<svg width="1921" height="1080" viewBox="0 0 1921 1080" fill="none" xmlns="http://www.w3.org/2000/svg"><g clip-path="url(#clip0_1714_626)"><path d="M1035.15 161.588C1035.15 161.588 1021.42 135.308 961.779 153.436C961.779 153.436 920.267 176.284 913.831 190.872C913.831 190.872 886.907 214.256 879.398 230.024C879.398 230.024 839.066 275.612 849.042 325.276L843.786 342.225C843.786 342.225 839.71 347.481 831.558 339.328C831.558 339.328 836.277 350.484 839.71 352.737L818.793 395.429C818.793 395.429 808.174 401.865 806.457 419.993C804.741 438.121 811.177 442.84 798.305 458.608C798.305 458.608 807.316 458.608 812.035 444.449C812.035 444.449 810.319 460.325 817.613 468.584C817.613 468.584 813.537 511.276 828.125 528.439C828.125 528.439 825.229 505.055 825.765 502.48C825.765 502.48 842.392 547.747 845.931 553.325C849.471 558.902 857.087 570.809 887.443 567.591L890.661 565.875L1247.54 500.12C1247.54 500.12 1265.66 491.968 1263.3 455.712C1263.3 455.712 1298.27 439.837 1302.03 410.66C1302.03 410.66 1294.09 433.186 1264.38 416.453C1264.38 416.453 1269.63 403.581 1257.94 380.84C1257.94 380.84 1258.8 338.47 1232.84 311.546C1232.84 311.546 1228.12 233.349 1166.55 200.204C1166.55 200.204 1187.25 198.273 1189.18 193.554C1189.18 193.554 1165.8 205.675 1109.27 156.118C1109.27 156.118 1065.29 133.913 1040.73 164.27L1035.36 161.588H1035.15Z" fill="#003B2F"/><path d="M1050.6 892.715C1050.6 892.715 965.211 887.995 936.035 841.871C906.858 795.746 903.855 652.546 903.855 652.546V600.522L1163.33 660.162L1166.23 798.643C1166.23 798.643 1133.51 910.307 1050.49 892.715H1050.6Z" fill="#E6E8EA" stroke="#003B2F" stroke-width="3" stroke-miterlimit="10"/><path d="M827.43 420.422C827.43 420.422 810.913 432.65 823.328 471.802C835.743 510.954 833.368 515.674 857.983 533.159C882.597 550.643 883.893 541.954 883.893 541.954C883.893 541.954 910.99 642.463 937.44 661.771C963.89 681.079 1012.15 724.307 1100.35 713.795C1100.35 713.795 1149.15 698.027 1189.2 634.847C1189.2 634.847 1216.84 605.671 1220.4 540.774C1220.4 540.774 1226.88 466.01 1223.96 440.266C1223.96 440.266 1231.63 301.785 1188.12 254.374C1188.12 254.374 1125.18 168.453 1045.72 173.173C966.265 177.893 926.32 220.477 909.263 302.965L827.538 420.422H827.43Z" fill="#E6E8EA" stroke="#003B2F" stroke-width="3" stroke-linecap="round" stroke-linejoin="round"/><path d="M1220.35 541.703C1223.35 542.99 1225.87 541.311 1233.16 529.833C1247.54 507.2 1246.79 476.415 1246.79 476.415V433.937L1222.01 409.802" fill="#E6E8EA"/><path d="M1220.35 541.703C1223.35 542.99 1225.87 541.311 1233.16 529.833C1247.54 507.2 1246.79 476.415 1246.79 476.415V433.937L1222.01 409.802" stroke="#003B2F" stroke-width="3" stroke-linecap="round" stroke-linejoin="round"/><path d="M1043.41 176.176L1023.24 177.678C1023.24 177.678 1021.74 179.823 1013.27 179.716C1004.79 179.609 986.987 182.076 964.997 204.602C964.997 204.602 953.841 217.152 946.011 224.768C938.181 232.384 927.561 253.086 926.381 266.816C925.201 280.547 921.983 304.789 920.267 307.47C918.551 310.152 918.229 333.214 916.513 339.65C914.797 346.086 911.579 353.702 911.579 353.702C911.579 353.702 917.156 348.982 918.015 340.83C918.873 332.678 923.807 351.02 913.08 369.47C902.354 387.92 877.146 452.173 827.16 432.006C827.16 432.006 822.44 430.29 816.004 427.072C816.004 427.072 908.682 155.259 1032.25 168.131C1155.82 181.003 1204.52 248.796 1204.52 248.796L1257.73 429.11L1275.85 439.193L1260.52 456.356C1260.52 456.356 1214.71 455.927 1218.68 396.716C1222.65 337.505 1214.71 189.156 1043.41 176.284V176.176Z" fill="#003B2F"/><path d="M1237.45 467.083C1237.45 467.083 1234.34 510.74 1226.51 498.619" stroke="#003B2F" stroke-width="3" stroke-linecap="round" stroke-linejoin="round"/><path d="M1223.83 479.954C1223.83 479.954 1233.59 486.605 1223.83 496.366" stroke="#003B2F" stroke-width="3" stroke-linecap="round" stroke-linejoin="round"/><path d="M1223.83 475.878C1223.83 475.878 1229.62 455.069 1234.34 450.778" stroke="#003B2F" stroke-width="3" stroke-linecap="round" stroke-linejoin="round"/><path d="M878.219 507.307C878.219 507.307 874.679 494.006 870.817 491.325C866.956 488.643 870.817 478.453 870.817 478.453C870.817 478.453 865.776 449.062 860.305 444.342" stroke="#003B2F" stroke-width="3" stroke-linecap="round" stroke-linejoin="round"/><path d="M866.848 500.764C866.848 500.764 862.986 495.186 857.086 496.366C851.187 497.546 840.353 472.982 843.034 460.861" stroke="#003B2F" stroke-width="3" stroke-linecap="round" stroke-linejoin="round"/><path d="M836.921 444.235C836.921 444.235 830.271 465.903 840.461 490.038" stroke="#003B2F" stroke-width="3" stroke-linecap="round" stroke-linejoin="round"/><path d="M895.06 405.941C887.658 420.744 874.25 432.436 867.814 447.238C867.063 430.29 882.402 415.487 895.06 405.941Z" fill="#003B2F"/><path d="M886.906 430.505C881.65 440.051 874.249 445.522 870.924 455.927C866.097 445.2 877.038 433.615 886.906 430.505Z" fill="#003B2F"/><path d="M878.862 443.269C879.828 450.885 877.682 455.605 874.893 462.47C870.174 456.57 873.07 447.56 878.862 443.269Z" fill="#003B2F"/><path d="M813.001 431.041C835.741 440.48 859.769 436.726 878.433 421.173C865.025 443.269 832.416 448.204 813.001 431.041Z" fill="#003B2F"/><path d="M1065.18 493.255C1065.18 493.255 1030.86 513.1 1055.42 528.761C1055.42 528.761 1060.46 529.511 1070.65 525.221" stroke="#003B2F" stroke-width="3" stroke-linecap="round" stroke-linejoin="round"/><path d="M1058.64 522.11C1058.64 522.11 1074.95 517.069 1086.64 533.373C1086.64 533.373 1094.79 543.134 1110.77 536.484C1110.77 536.484 1122.03 523.612 1130.29 524.363" stroke="#003B2F" stroke-width="3" stroke-linecap="round" stroke-linejoin="round"/><path d="M1130.29 499.048C1130.29 499.048 1157.22 523.183 1122.14 533.695" stroke="#003B2F" stroke-width="3" stroke-linecap="round" stroke-linejoin="round"/><path d="M1119.03 409.802C1119.03 409.802 1093.72 405.512 1070.76 409.802V415.595C1070.76 415.595 1113.67 412.913 1119.03 415.595V409.802Z" fill="#003B2F"/><path d="M955.343 411.84L898.492 395.965L895.917 400.041L953.734 418.384L955.343 411.84Z" fill="#003B2F"/><path d="M1069.15 407.979C1069.15 407.979 1071.73 392.318 1035.15 391.138C1035.15 391.138 967.035 384.487 955.343 409.802C955.343 409.802 950.623 425.785 955.343 441.017C960.063 456.249 986.129 463.328 986.129 463.328C986.129 463.328 1025.5 473.304 1051.99 460.217C1051.99 460.217 1067.65 452.28 1069.15 433.937C1070.65 415.595 1069.15 407.872 1069.15 407.872V407.979Z" stroke="#003B2F" stroke-width="3" stroke-linecap="round" stroke-linejoin="round"/><path d="M1230.48 409.802C1230.48 409.802 1223.83 393.069 1189.93 391.889C1189.93 391.889 1135.01 388.778 1122.14 405.512C1122.14 405.512 1109.7 425.463 1124.5 450.564C1124.5 450.564 1135.44 467.833 1168.48 467.083C1168.48 467.083 1211.71 469.013 1223.83 440.588C1223.83 440.588 1235.09 424.176 1230.48 409.802Z" stroke="#003B2F" stroke-width="3" stroke-linecap="round" stroke-linejoin="round"/><path d="M1094.47 875.874C1094.47 875.874 1072.05 896.898 1017.66 878.77L1056.07 944.203L1101.87 875.767H1094.47V875.874Z" fill="#03FC9D" stroke="#003B2F" stroke-width="3" stroke-linecap="round" stroke-linejoin="round"/><path d="M1058.64 926.182C1058.64 926.182 1032.9 870.618 1008.87 858.926C1008.87 858.926 970.682 831.466 958.239 789.954C945.796 748.442 912.436 686.549 912.436 686.549C912.436 686.549 907.18 625.729 898.384 632.809C898.384 632.809 877.896 677.217 866.848 683.653L863.952 691.805C863.952 691.805 696.187 764.854 663.471 779.227C663.471 779.227 543.655 826.317 535.503 844.338C535.503 844.338 514.478 835.542 475.862 910.092C437.247 984.642 409.25 1072.28 409.25 1126.56H1510.98C1510.98 1126.56 1512.7 986.895 1466.57 923.715C1420.45 860.535 1367.78 808.618 1246.79 761.85C1246.79 761.85 1187.79 737.93 1182.53 728.49C1177.28 719.051 1160.33 675.93 1160.33 675.93C1160.33 675.93 1144.56 715.726 1152.71 778.798C1152.71 778.798 1127.61 847.234 1082.56 886.923C1082.56 886.923 1069.04 903.871 1063.9 915.026L1058.64 926.182Z" fill="#003B2F"/><path d="M1030 521.359C1030 521.359 991.384 553.539 987.951 568.02" stroke="#003B2F" stroke-width="3" stroke-linecap="round" stroke-linejoin="round"/><path d="M1153.25 524.577C1153.25 524.577 1191.86 569.629 1178.99 587.113" stroke="#003B2F" stroke-width="3" stroke-linecap="round" stroke-linejoin="round"/><path d="M1069.8 391.674C1069.8 391.674 1068.51 370.328 1055.64 368.505C1042.76 366.681 980.229 362.82 963.281 391.674C963.281 391.674 954.485 398.754 980.229 390.387C1005.97 382.02 1069.8 391.674 1069.8 391.674Z" fill="#003B2F"/><path d="M1136.3 373.761C1136.3 373.761 1120.1 379.017 1122.03 383.093C1123.96 387.169 1122.89 398.11 1131.04 394.356C1139.2 390.602 1180.71 382.235 1188.86 384.38C1197.01 386.526 1208.17 390.28 1208.17 390.28C1208.17 390.28 1199.37 367.218 1181.57 367.218C1163.76 367.218 1136.3 373.761 1136.3 373.761Z" fill="#003B2F"/><path d="M1017.66 587.114C1017.66 587.114 1027 583.574 1027.64 581.321" stroke="#003B2F" stroke-width="3" stroke-linecap="round" stroke-linejoin="round"/><path d="M1153.25 594.729L1144.56 587.114" stroke="#003B2F" stroke-width="3" stroke-linecap="round" stroke-linejoin="round"/><path d="M1024.1 584.217C1024.1 584.217 1072.59 602.024 1084.28 603.633C1095.97 605.242 1111.2 604.705 1144.45 590.975C1144.45 590.975 1128.69 578.425 1097.69 577.245L1084.28 581.321L1074.19 575.422L1023.99 584.217H1024.1Z" fill="#03FC9D" stroke="#003B2F" stroke-width="3" stroke-linecap="round" stroke-linejoin="round"/><path d="M1147.67 589.902C1147.67 589.902 1126.11 590.653 1110.02 590.975C1093.93 591.297 1081.06 593.871 1069.8 590.975C1058.53 588.079 1020.35 584.217 1020.35 584.217" stroke="#003B2F" stroke-width="3" stroke-linecap="round" stroke-linejoin="round"/><path d="M1067.33 603.633C1067.33 603.633 1092.11 611.677 1110.56 604.276" stroke="#003B2F" stroke-width="3" stroke-linecap="round" stroke-linejoin="round"/><path d="M1169.66 572.203C1168.16 570.594 1166.55 569.307 1164.94 568.449C1163.98 565.124 1162.58 561.906 1161.51 559.439C1160.97 561.262 1161.51 564.266 1161.72 566.947C1159.58 566.197 1157.43 565.767 1155.07 565.553C1154.54 564.373 1154.11 563.193 1153.68 562.228C1153.46 563.086 1153.46 564.158 1153.46 565.338C1152.93 565.338 1152.39 565.231 1151.85 565.124C1151.1 563.086 1150.24 561.262 1149.6 559.761C1149.17 561.048 1149.39 562.979 1149.6 564.909C1149.17 564.909 1148.74 564.909 1148.31 564.802C1147.46 562.228 1146.38 559.761 1145.53 557.83C1145.1 559.117 1145.31 560.941 1145.53 562.871C1145.1 561.906 1144.77 561.048 1144.45 560.297C1144.13 561.262 1144.24 562.657 1144.35 564.051C1143.81 562.657 1143.27 561.37 1142.74 560.297C1142.41 561.262 1142.52 562.55 1142.52 563.837C1142.2 563.837 1141.88 563.729 1141.56 563.622C1141.13 562.549 1140.7 561.584 1140.38 560.726C1140.16 561.37 1140.16 562.12 1140.16 562.871C1138.66 559.117 1135.76 555.577 1133.73 553.217C1133.73 554.826 1135.55 558.366 1136.51 562.12C1135.76 560.082 1134.91 558.152 1134.26 556.543C1133.83 557.723 1134.05 559.439 1134.26 561.262C1134.15 561.262 1133.94 561.155 1133.83 561.048C1132.87 557.722 1131.47 554.29 1130.4 551.93C1129.76 553.754 1130.4 556.864 1130.62 559.653C1130.51 559.653 1130.4 559.546 1130.19 559.439C1129.44 557.508 1128.68 555.792 1128.04 554.397C1127.93 554.826 1127.93 555.363 1127.83 555.899C1126.86 552.466 1125.36 548.927 1124.29 546.46C1123.64 548.498 1124.39 552.145 1124.5 555.148C1124.07 553.968 1123.54 552.896 1123.11 551.93C1122.89 552.574 1122.89 553.325 1122.89 554.075C1122.03 550.536 1120.42 546.889 1119.25 544.314C1118.71 545.816 1119.03 548.176 1119.25 550.428C1118.6 548.819 1117.96 547.318 1117.42 546.03C1116.89 547.532 1117.21 549.785 1117.42 552.145C1116.46 548.712 1114.95 545.28 1113.99 542.813C1113.45 544.529 1113.99 547.21 1114.1 549.892C1113.13 546.781 1111.84 543.671 1110.88 541.418C1110.23 543.456 1110.88 546.889 1111.09 549.892C1110.45 548.176 1109.7 546.46 1109.16 545.172C1108.84 546.245 1108.95 547.854 1109.05 549.463C1109.05 549.463 1108.95 549.463 1108.84 549.463C1108.84 547.21 1108.52 545.28 1108.3 543.778C1107.45 544.207 1106.8 546.46 1106.16 548.927C1106.05 547.747 1105.94 546.567 1105.84 545.709C1105.3 546.03 1104.76 547.21 1104.34 548.712C1104.12 548.712 1103.91 548.712 1103.58 548.712C1103.48 547.318 1103.37 546.03 1103.16 544.958C1102.62 545.28 1102.19 546.46 1101.65 547.854C1101.22 546.996 1100.8 546.138 1100.47 545.494C1100.04 545.923 1100.04 546.996 1100.04 548.39C1096.72 548.176 1093.29 548.069 1089.96 548.176C1088.89 545.28 1087.49 542.491 1086.1 540.024L1085.24 540.238C1085.03 542.705 1084.49 545.172 1083.85 547.532C1082.88 545.494 1081.92 543.456 1080.84 541.633L1079.99 541.847C1079.77 544.314 1079.23 546.674 1078.7 548.927C1078.48 548.927 1078.16 548.927 1077.95 548.927C1078.27 547.639 1078.59 546.352 1079.13 545.065C1078.27 545.065 1077.2 546.245 1076.12 547.854C1076.12 544.529 1075.91 541.204 1075.59 538.951C1074.09 539.702 1073.34 546.138 1071.73 548.819C1071.51 549.141 1071.4 549.463 1071.19 549.892C1071.19 547.532 1070.87 545.28 1070.65 543.671C1070.12 543.885 1069.69 544.958 1069.37 546.138C1067.76 546.138 1064.97 549.248 1062.93 551.501C1059.5 552.252 1056.49 553.003 1054.03 553.646C1054.56 552.574 1055.1 551.501 1055.85 550.536C1054.56 550.214 1052.2 552.574 1050.27 554.719C1051.13 552.359 1052.1 549.892 1053.71 547.747C1052.1 547.318 1048.99 550.857 1046.84 553.325C1047.27 552.359 1047.81 551.394 1048.45 550.536C1047.38 550.214 1045.66 551.823 1043.94 553.539C1044.59 552.037 1045.34 550.643 1046.2 549.248C1044.59 548.819 1041.37 552.574 1039.22 554.934C1039.76 553.861 1040.3 552.896 1040.94 551.823C1040.08 551.608 1038.58 552.788 1037.08 554.183C1037.83 552.466 1038.58 550.75 1039.76 549.141C1037.83 548.605 1033.22 554.397 1031.5 556.328C1031.5 556.328 1031.39 556.543 1031.29 556.543C1030.21 556.65 1029.14 556.864 1028.07 557.079C1028.93 554.719 1029.89 552.359 1031.39 550.214C1029.46 549.678 1024.85 555.47 1023.13 557.401C1022.92 557.615 1022.71 557.937 1022.49 558.152C1020.67 558.581 1018.95 559.01 1017.13 559.546C1018.41 556.221 1019.49 552.788 1021.63 549.678C1019.7 549.141 1015.09 554.934 1013.37 556.864C1011.87 558.152 1010.91 560.082 1010.48 562.013C1010.26 562.12 1010.05 562.228 1009.73 562.335C1010.91 559.332 1011.87 556.221 1013.91 553.325C1011.98 552.788 1007.37 558.581 1005.65 560.511C1004.36 561.584 1003.61 562.979 1003.08 564.48C1003.4 562.442 1003.83 560.297 1004.68 558.259C1002.65 558.259 999.429 564.802 998.141 567.055C996.961 568.556 996.64 570.38 996.425 572.203C993.958 575.421 992.242 579.068 991.705 583.681C989.453 601.594 991.92 610.283 994.173 614.359L992.564 626.373C979.155 650.186 990.74 693.307 990.74 693.307C1002.97 717.871 1046.84 728.919 1046.84 728.919C1071.94 743.186 1100.9 721.947 1100.9 721.947C1125.14 720.767 1121.39 713.473 1138.02 705.857C1154.64 698.241 1164.3 657.587 1167.62 653.833C1169.87 651.259 1167.51 626.909 1165.69 611.785C1169.23 604.598 1179.31 581.965 1169.77 571.667L1169.66 572.203ZM1155.18 636.885C1154.32 634.203 1153.14 631.736 1152.39 629.805C1151.53 632.38 1153.03 637.1 1152.5 640.318C1152.5 640.639 1152.5 640.961 1152.5 641.283C1152.07 641.819 1151.64 642.356 1151.21 642.892C1150.35 640.425 1149.28 638.065 1148.53 636.241C1148.21 637.207 1148.31 638.601 1148.42 639.996C1148.31 641.39 1148.42 643.106 1148.64 644.93C1148.31 644.286 1148.1 643.643 1147.89 643.106C1147.78 643.428 1147.89 643.965 1147.78 644.286C1147.13 642.785 1146.6 641.283 1146.06 640.103C1145.74 641.176 1145.85 642.677 1145.95 644.286C1145.53 643.321 1145.2 642.463 1144.88 641.605C1144.35 643.428 1144.88 646.217 1144.99 648.792C1144.88 648.792 1144.77 649.006 1144.67 649.113C1144.13 647.719 1143.59 646.432 1143.06 645.359C1142.84 645.895 1142.84 646.646 1142.84 647.397C1140.91 645.681 1138.87 644.179 1136.84 642.785C1136.84 642.785 1136.19 643.321 1136.09 643.321C1136.84 645.145 1137.27 647.075 1137.69 648.899C1137.69 648.899 1137.69 648.684 1137.59 648.577C1137.59 648.792 1137.59 649.113 1137.59 649.435C1137.27 648.792 1137.05 648.148 1136.84 647.612C1136.41 648.792 1136.62 650.615 1136.84 652.439C1136.09 650.508 1135.33 648.684 1134.69 647.183C1134.26 648.363 1134.48 650.079 1134.69 651.795C1134.37 650.937 1134.05 650.186 1133.73 649.542C1133.51 650.186 1133.51 651.151 1133.51 652.117C1133.3 651.688 1133.19 651.366 1132.98 650.937C1132.76 651.58 1132.76 652.439 1132.76 653.297C1132.01 651.366 1131.26 649.542 1130.62 648.148C1129.97 650.186 1130.62 653.619 1130.83 656.622C1130.19 654.906 1129.44 653.189 1128.79 651.902C1128.26 653.404 1128.58 655.657 1128.79 658.016C1128.58 657.587 1128.47 657.158 1128.26 656.837C1128.04 657.48 1128.04 658.231 1128.04 659.089C1127.5 657.587 1126.86 656.3 1126.32 655.12C1126.11 655.871 1126.11 656.837 1126.11 657.802C1125.79 657.158 1125.57 656.515 1125.36 655.978C1125.04 657.051 1125.14 658.66 1125.36 660.376C1125.14 659.84 1124.93 659.304 1124.72 658.875C1124.72 659.196 1124.72 659.625 1124.61 660.055C1123.86 658.016 1123 656.193 1122.36 654.691C1121.71 656.729 1122.36 660.162 1122.57 663.165C1121.93 661.449 1121.18 659.733 1120.53 658.446C1120 660.162 1120.42 662.736 1120.64 665.311C1120.32 665.525 1120.1 665.632 1119.78 665.847C1118.82 663.487 1117.64 661.234 1116.46 659.196L1115.6 659.411C1115.38 661.985 1114.85 664.56 1114.2 667.027C1113.35 664.667 1112.38 662.414 1111.63 660.698C1111.31 661.664 1111.41 663.058 1111.52 664.452C1111.52 665.954 1111.74 667.778 1111.84 669.601C1110.88 666.491 1109.59 663.38 1108.63 661.127C1107.98 663.165 1108.63 666.598 1108.84 669.601C1108.2 667.885 1107.45 666.169 1106.8 664.882C1106.59 665.525 1106.59 666.383 1106.59 667.349C1106.16 666.383 1105.73 665.418 1105.41 664.56C1105.41 663.916 1105.41 663.38 1105.62 662.736C1105.41 662.951 1105.19 663.273 1104.98 663.487C1103.58 665.203 1102.73 668.529 1102.08 671.21C1102.08 668.85 1102.08 666.491 1102.51 664.023C1100.8 665.203 1099.83 668.958 1099.08 671.961C1098.86 671.961 1098.76 671.961 1098.54 671.961C1098.54 670.459 1098.65 668.85 1098.97 667.241C1098.65 667.456 1098.54 667.778 1098.22 668.1C1098.22 667.778 1098.22 667.563 1098.22 667.241C1097.26 667.885 1096.61 669.387 1095.97 671.103C1095.97 668.636 1095.97 666.061 1096.4 663.487C1094.9 664.56 1093.93 667.67 1093.29 670.352C1093.29 668.958 1093.29 667.563 1093.72 666.276C1093.5 666.383 1093.29 666.812 1093.18 667.027C1093.18 666.276 1093.18 665.632 1093.39 664.882C1092.54 665.418 1092 666.598 1091.46 667.992C1091.46 666.169 1091.57 664.452 1092 662.629C1090.5 663.702 1089.53 666.812 1088.89 669.494C1088.78 669.708 1088.57 669.923 1088.46 670.245C1088.46 668.207 1088.46 666.061 1088.89 664.023C1087.92 664.667 1087.28 666.169 1086.64 667.778C1086.64 666.812 1086.64 665.847 1086.96 664.882C1086.21 665.311 1085.67 666.276 1085.24 667.456C1085.03 667.67 1084.92 667.885 1084.71 668.1C1084.71 665.847 1084.71 663.487 1085.13 661.127C1083.53 662.2 1082.56 665.632 1081.81 668.529C1081.81 667.992 1081.81 667.456 1081.92 666.92C1081.7 667.027 1081.59 667.349 1081.49 667.456C1081.49 665.847 1081.59 664.131 1081.92 662.414C1081.06 663.058 1080.41 664.345 1079.88 665.847C1079.88 664.989 1079.88 664.023 1080.09 663.165C1079.34 663.594 1078.81 664.667 1078.38 665.74C1077.63 666.276 1077.09 667.349 1076.66 668.529C1076.66 667.241 1076.66 665.954 1076.98 664.56C1075.59 665.525 1074.84 667.992 1074.09 670.459C1073.76 670.459 1073.55 670.459 1073.23 670.459C1073.23 669.601 1073.23 668.743 1073.44 667.885C1072.8 668.314 1072.26 669.279 1071.73 670.352C1071.62 670.352 1071.51 670.352 1071.4 670.352C1071.4 668.529 1071.51 666.705 1071.94 664.882C1070.98 665.525 1070.33 667.027 1069.69 668.743C1069.69 666.276 1069.69 663.702 1070.12 661.127C1068.29 662.414 1067.33 666.598 1066.58 669.708C1066.58 669.172 1066.58 668.529 1066.58 667.992C1066.58 666.491 1066.68 664.882 1067.01 663.273C1067.01 663.058 1067.01 662.736 1067.01 662.522C1066.04 663.165 1065.29 664.774 1064.75 666.598C1064.75 664.238 1064.75 661.985 1065.18 659.625C1063.36 660.913 1062.39 665.096 1061.64 668.207C1061.64 665.847 1061.64 663.487 1062.07 661.02C1060.25 662.2 1059.39 666.061 1058.64 669.172C1058.53 669.172 1058.32 669.172 1058.21 669.172C1058.21 667.563 1058.32 665.954 1058.64 664.345C1057.78 664.882 1057.14 666.169 1056.6 667.67C1055.64 665.203 1054.35 662.843 1053.17 660.698L1052.31 660.913C1052.2 663.273 1051.67 665.525 1051.02 667.778C1051.02 666.383 1051.02 664.882 1051.45 663.487C1050.49 664.131 1049.84 665.632 1049.2 667.349C1049.2 664.881 1049.2 662.307 1049.63 659.733C1047.81 660.913 1046.95 664.774 1046.2 667.885C1046.2 667.885 1046.2 667.885 1046.09 667.885C1046.09 665.632 1046.09 663.487 1046.52 661.127C1045.02 662.093 1044.16 664.882 1043.52 667.563C1043.3 667.563 1042.98 667.563 1042.76 667.563C1042.76 666.49 1042.76 665.525 1043.09 664.452C1042.34 664.989 1041.69 666.061 1041.26 667.349C1040.83 667.349 1040.4 667.349 1040.08 667.241C1040.08 665.311 1040.08 663.273 1040.62 661.342C1039.65 661.985 1039.01 663.487 1038.37 665.203C1038.37 662.736 1038.37 660.162 1038.8 657.695C1038.8 657.695 1038.8 657.802 1038.69 657.909C1038.9 656.944 1039.22 655.978 1039.44 655.12C1038.04 656.086 1036.86 658.124 1035.68 660.162C1035.68 659.84 1035.68 659.411 1035.68 659.089C1034.61 659.84 1033.97 661.449 1033.32 663.273C1033.32 663.273 1033.22 663.487 1033.11 663.594C1032.9 663.809 1032.9 663.916 1032.68 664.131C1032.57 664.131 1032.36 663.916 1032.25 663.809C1033.22 661.342 1033.86 658.767 1034.4 656.622C1035.15 654.262 1035.79 651.902 1036.22 649.971C1034.18 651.366 1032.57 655.228 1030.54 657.695C1030.96 655.549 1031.29 653.404 1031.61 651.366L1030.75 651.044C1029.14 652.975 1027.21 654.584 1025.28 656.193C1026.14 653.511 1026.89 650.83 1027.32 648.792C1025.92 649.757 1024.64 652.117 1023.24 654.262C1023.24 652.01 1023.24 649.864 1023.67 647.504C1022.71 648.148 1022.06 649.65 1021.42 651.366C1021.42 649.864 1021.42 648.255 1021.63 646.754C1023.13 643.321 1023.99 639.459 1024.74 636.778C1022.71 638.172 1021.1 642.141 1019.06 644.501C1019.06 642.57 1019.06 640.532 1019.59 638.494C1018.63 639.138 1017.99 640.639 1017.34 642.356C1017.34 639.888 1017.34 637.314 1017.77 634.74C1017.77 634.74 1017.77 634.74 1017.77 634.847C1018.09 633.774 1018.31 632.809 1018.52 631.951C1017.13 632.916 1015.95 635.061 1014.66 637.1C1014.66 636.778 1014.66 636.456 1014.66 636.134C1014.66 636.134 1014.55 636.349 1014.45 636.456C1015.63 633.453 1016.38 630.235 1016.91 627.875C1015.09 629.162 1013.59 632.487 1011.76 634.847C1011.76 634.632 1011.55 634.525 1011.55 634.311C1013.37 630.664 1014.45 626.158 1015.2 623.048C1013.27 624.442 1011.66 628.089 1009.73 630.449C1009.73 630.449 1009.73 630.342 1009.73 630.234C1011.87 626.266 1012.62 621.331 1013.16 617.041L1012.3 616.719C1011.55 617.684 1010.58 618.328 1009.62 619.186C1010.91 615.968 1011.76 612.428 1012.41 609.961C1010.37 611.356 1008.76 615.217 1006.72 617.684C1007.26 615.217 1007.69 612.75 1008.01 610.39L1007.15 610.068C1007.04 610.176 1006.94 610.283 1006.72 610.39C1007.26 607.923 1007.69 605.456 1007.9 603.203L1007.04 602.882C1006.62 603.418 1006.08 603.74 1005.65 604.169C1008.76 598.055 1011.66 591.511 1011.98 587.543C1012.19 583.574 1016.38 580.356 1021.1 577.889C1021.53 578.532 1021.85 579.068 1022.28 579.498L1022.6 579.283C1022.38 578.639 1022.28 577.996 1022.17 577.245C1022.49 577.03 1022.81 576.923 1023.13 576.709C1023.89 578.103 1024.64 579.283 1025.39 580.248L1025.71 580.034C1025.17 578.639 1025.07 577.352 1025.07 575.958C1025.28 575.958 1025.49 575.743 1025.71 575.743C1026.25 576.601 1026.78 577.352 1027.21 577.996L1027.53 577.781C1027.21 576.923 1027.1 576.065 1027 575.207C1027.32 575.1 1027.64 574.992 1027.96 574.885C1027.96 576.387 1027.96 577.781 1028.18 578.854C1028.93 578.639 1029.68 576.28 1030.54 574.456C1030.54 575.636 1030.54 576.816 1030.75 577.674C1031.5 577.46 1032.14 575.421 1033 573.705C1033 573.705 1033 573.705 1033.11 573.705C1033.11 573.705 1033.11 573.705 1033.11 573.812C1033 575.421 1033.11 577.03 1033.32 578.21C1033.75 578.21 1034.18 577.245 1034.61 576.28C1034.83 576.601 1035.15 576.923 1035.36 577.245C1035.68 577.889 1035.9 578.639 1036.22 579.176C1036.65 577.781 1036.44 575.851 1036.22 573.812C1036.22 573.812 1036.33 573.812 1036.54 573.812C1037.08 575.1 1037.62 576.28 1038.04 577.352C1038.37 576.494 1038.26 575.421 1038.26 574.242C1038.47 574.242 1038.8 574.242 1039.01 574.349C1039.87 576.709 1040.83 578.854 1041.58 580.57C1042.01 579.068 1041.8 576.923 1041.58 574.778C1041.58 574.778 1041.8 574.778 1041.91 574.778C1042.76 577.46 1043.94 580.034 1044.69 581.965C1045.23 580.356 1044.8 577.781 1044.69 575.207C1044.91 575.207 1045.12 575.207 1045.34 575.207C1045.77 576.28 1046.2 577.245 1046.52 578.103C1046.73 577.352 1046.73 576.387 1046.73 575.421C1046.73 575.421 1046.84 575.421 1046.95 575.421C1047.05 577.03 1047.27 578.532 1047.38 579.605C1048.13 579.283 1048.66 577.567 1049.2 575.743C1049.41 575.743 1049.63 575.743 1049.84 575.743C1049.84 576.387 1049.95 577.03 1050.06 577.674C1050.49 577.46 1050.81 576.816 1051.13 575.958C1051.56 575.958 1051.99 576.065 1052.42 576.172C1052.42 577.03 1052.63 577.889 1052.74 578.532C1053.17 578.318 1053.6 577.459 1054.03 576.387C1054.24 576.387 1054.46 576.387 1054.56 576.387C1054.89 576.923 1055.1 577.567 1055.42 577.996C1055.53 577.889 1055.53 577.459 1055.64 577.138C1056.28 578.854 1056.92 580.356 1057.57 581.643C1058 580.356 1057.78 578.639 1057.57 576.709C1057.67 576.709 1057.89 576.709 1058 576.709C1058.43 577.889 1058.96 578.961 1059.28 579.819C1059.5 579.068 1059.5 577.996 1059.5 576.923C1059.71 576.923 1060.03 576.923 1060.25 576.923C1061.11 579.176 1061.96 581.321 1062.72 583.037C1063.14 581.536 1062.93 579.39 1062.72 577.245C1062.72 577.245 1062.93 577.245 1063.04 577.245C1063.9 579.927 1065.08 582.501 1065.93 584.432C1066.47 582.716 1066.04 580.034 1065.83 577.567H1066.36C1066.79 578.747 1067.33 579.819 1067.65 580.785C1067.86 579.927 1067.86 578.961 1067.86 577.781C1067.86 577.781 1067.97 577.781 1068.08 577.781C1068.19 579.498 1068.4 581.107 1068.51 582.287C1069.26 581.857 1069.9 580.034 1070.44 577.996C1070.55 577.996 1070.65 577.996 1070.87 577.996C1070.87 578.854 1071.08 579.712 1071.19 580.356C1071.73 580.141 1072.05 579.176 1072.48 578.103C1072.8 578.103 1073.12 578.103 1073.44 578.103C1073.55 579.283 1073.66 580.356 1073.76 581.214C1074.3 580.892 1074.73 579.712 1075.27 578.425C1075.69 579.283 1076.12 580.141 1076.45 580.785C1076.77 580.356 1076.87 579.498 1076.87 578.318C1077.3 578.318 1077.73 578.318 1078.05 578.318C1078.38 579.176 1078.7 579.927 1079.02 580.57C1079.23 579.927 1079.23 579.176 1079.23 578.318C1079.45 578.318 1079.56 578.318 1079.77 578.318C1080.09 579.176 1080.41 579.927 1080.74 580.57C1080.95 579.927 1080.95 579.176 1080.95 578.21C1081.49 578.21 1082.02 578.21 1082.56 578.103C1083.1 579.498 1083.74 580.892 1084.17 581.965C1084.49 580.892 1084.38 579.283 1084.28 577.674C1084.49 577.674 1084.71 577.567 1084.92 577.46C1085.67 579.605 1086.64 581.75 1087.28 583.359C1087.71 581.965 1087.49 579.927 1087.28 577.889C1087.92 579.283 1088.57 580.678 1089.1 581.857C1089.1 580.356 1089 578.639 1088.89 576.923C1089.1 576.923 1089.21 576.923 1089.42 576.923C1089.53 578.532 1089.75 580.034 1089.85 581.214C1090.6 580.892 1091.14 579.069 1091.78 577.03C1091.89 577.03 1092.11 577.03 1092.21 577.03C1092.21 577.889 1092.43 578.639 1092.54 579.283C1092.96 579.068 1093.39 578.21 1093.72 577.138C1094.04 577.138 1094.47 577.138 1094.79 577.245C1094.79 578.318 1095 579.283 1095.11 580.141C1095.65 579.927 1096.08 578.747 1096.5 577.46C1096.5 577.46 1096.5 577.46 1096.61 577.46C1097.04 578.318 1097.36 579.069 1097.68 579.605C1097.68 579.605 1097.68 579.283 1097.79 579.176C1098.01 579.819 1098.33 580.356 1098.54 580.892C1098.86 580.034 1098.76 578.854 1098.76 577.674C1099.08 577.674 1099.4 577.674 1099.83 577.781C1100.04 578.21 1100.26 578.747 1100.37 579.176C1100.47 578.854 1100.37 578.318 1100.47 577.889C1101.01 577.889 1101.44 577.996 1101.98 578.103C1102.62 579.712 1103.26 581.214 1103.8 582.394C1104.12 581.321 1104.01 579.927 1103.91 578.318C1104.12 578.318 1104.44 578.318 1104.66 578.318C1105.41 580.356 1106.27 582.179 1106.91 583.681C1107.34 582.394 1107.12 580.57 1106.91 578.639C1107.34 578.639 1107.77 578.747 1108.09 578.854C1108.3 579.283 1108.41 579.712 1108.63 580.034C1108.63 579.712 1108.63 579.283 1108.73 578.961C1108.84 578.961 1109.05 578.961 1109.16 578.961C1109.16 579.927 1109.38 580.785 1109.48 581.536C1110.02 581.321 1110.34 580.356 1110.77 579.176C1111.09 579.176 1111.41 579.176 1111.74 579.283C1112.27 580.677 1112.92 582.072 1113.35 583.145C1113.67 582.179 1113.56 580.892 1113.45 579.498C1113.77 579.498 1113.99 579.498 1114.31 579.605C1114.31 579.819 1114.53 580.034 1114.53 580.248V580.463C1114.63 580.785 1114.85 581.107 1114.95 581.428C1115.06 580.999 1115.06 580.356 1115.17 579.819C1115.6 579.819 1116.03 579.927 1116.46 580.034C1117.1 581.75 1117.85 583.359 1118.39 584.754C1118.71 583.574 1118.6 581.965 1118.39 580.248C1118.6 580.248 1118.82 580.248 1119.03 580.248C1119.78 582.394 1120.75 584.432 1121.39 586.041C1121.82 584.646 1121.6 582.608 1121.39 580.463C1121.71 580.463 1122.14 580.463 1122.46 580.57C1122.68 581.214 1123 581.75 1123.21 582.287C1123.32 581.857 1123.32 581.214 1123.43 580.677C1123.54 580.677 1123.64 580.677 1123.75 580.677C1123.86 581.857 1123.96 582.93 1124.07 583.788C1124.61 583.466 1125.14 582.286 1125.57 580.785C1125.9 580.785 1126.22 580.785 1126.54 580.785C1126.54 581.107 1126.54 581.428 1126.65 581.75C1126.86 581.643 1127.08 581.214 1127.29 580.785C1127.93 580.785 1128.47 580.785 1129.11 580.892C1129.11 581.428 1129.22 582.072 1129.33 582.501C1129.76 582.286 1130.08 581.75 1130.4 580.892C1130.72 580.892 1131.15 580.892 1131.47 580.892C1131.69 581.214 1131.8 581.643 1132.01 581.965C1132.22 581.75 1132.22 581.321 1132.33 580.892C1132.76 580.892 1133.19 580.892 1133.62 580.892C1134.26 582.179 1135.12 583.359 1135.76 584.11L1136.09 583.895C1135.66 582.823 1135.55 581.857 1135.44 580.785C1135.66 580.785 1135.87 580.785 1136.09 580.785C1136.62 581.643 1137.16 582.394 1137.59 583.037L1137.91 582.823C1137.69 582.072 1137.59 581.428 1137.48 580.677C1137.8 580.677 1138.12 580.677 1138.45 580.677C1139.2 582.286 1140.27 583.896 1141.02 584.968L1141.34 584.754C1140.81 583.252 1140.7 581.857 1140.7 580.463C1140.81 580.463 1141.02 580.463 1141.13 580.463C1141.99 582.501 1143.27 584.539 1144.24 585.826L1144.56 585.612C1143.92 583.788 1143.81 582.072 1143.81 580.248C1144.45 581.536 1145.31 582.716 1145.95 583.574L1146.28 583.359C1145.95 582.501 1145.85 581.536 1145.74 580.677C1146.06 580.677 1146.38 580.785 1146.71 580.999C1146.71 582.286 1146.71 583.574 1146.92 584.432C1147.46 584.432 1147.89 583.252 1148.42 581.965C1148.74 582.179 1149.07 582.394 1149.49 582.716C1149.49 582.93 1149.49 583.145 1149.49 583.252C1149.49 583.252 1149.71 583.037 1149.82 582.93C1155.72 587.972 1160.11 598.484 1162.47 605.885C1160.54 612.75 1157.54 623.799 1156.25 633.131C1156.14 633.989 1155.82 634.954 1155.5 635.812L1155.18 636.885ZM1068.62 547.21C1068.29 548.283 1067.97 549.463 1067.65 550.643C1067.33 550.643 1067.11 550.643 1066.79 550.75C1067.33 549.57 1067.86 548.39 1068.62 547.21Z" fill="#003B2F"/><path d="M1106.8 610.498C1106.8 610.498 1089.85 616.29 1067.33 607.387C1067.33 607.387 1048.13 617.792 1058.64 632.165C1058.96 632.594 1059.39 633.023 1059.71 633.452C1059.71 636.456 1059.82 639.567 1059.07 641.39C1059.71 642.463 1060.79 640.21 1061.54 638.601C1061.54 639.888 1061.75 641.176 1061.86 642.141C1062.61 641.819 1063.25 639.996 1063.9 637.958C1064.33 638.279 1064.65 638.709 1065.08 639.03C1066.04 640.961 1067.01 642.785 1067.76 643.965C1068.08 643.536 1068.08 642.57 1068.08 641.497C1068.08 641.497 1068.29 641.605 1068.29 641.712C1069.26 643.643 1070.22 645.359 1070.98 646.646C1071.4 646.217 1071.3 645.037 1071.19 643.75C1071.4 643.857 1071.62 644.072 1071.73 644.179C1071.73 646.003 1071.94 647.719 1072.05 649.006C1072.69 648.684 1073.34 647.183 1073.87 645.359C1074.09 645.466 1074.3 645.574 1074.62 645.788C1074.3 648.363 1073.87 651.044 1072.91 653.619C1074.41 653.619 1076.34 650.186 1077.84 647.397C1078.16 647.504 1078.38 647.612 1078.7 647.719C1078.81 648.792 1078.91 649.757 1079.02 650.508C1079.45 650.293 1079.88 649.435 1080.2 648.363C1080.42 648.363 1080.52 648.47 1080.74 648.577C1080.2 650.401 1079.56 652.224 1078.59 653.94L1079.24 654.584C1081.27 653.619 1083.1 652.439 1084.81 651.044C1084.06 653.404 1083.31 655.871 1082.13 658.016L1082.78 658.66C1086.21 656.944 1089.32 654.799 1092 652.01C1092.86 651.366 1093.61 650.722 1094.25 649.971C1094.25 650.615 1094.47 651.366 1094.47 651.902C1095.22 651.473 1095.75 649.65 1096.4 647.612C1100.15 645.037 1104.12 640.21 1106.59 630.771C1106.59 630.771 1107.02 629.484 1107.45 627.66C1107.34 629.162 1107.23 630.664 1107.02 632.273C1109.91 627.446 1110.56 620.795 1108.3 615.539C1107.98 613.716 1107.55 611.999 1106.59 610.605L1106.8 610.498Z" fill="#003B2F"/><path d="M863.951 691.805C836.384 775.58 848.29 899.044 848.29 899.044L912.543 828.892C931.851 803.791 955.235 811.944 955.235 811.944C955.235 811.944 938.287 751.553 930.671 734.39C923.055 717.227 921.231 703.605 921.231 703.605" stroke="white" stroke-width="3" stroke-linecap="round" stroke-linejoin="round"/><path d="M1220.08 542.773C1221.64 538.024 1225.23 449.813 1224.69 439.193L1220.08 542.773Z" fill="#E6E8EA"/><path d="M1220.08 542.773C1221.64 538.024 1225.23 449.813 1224.69 439.193" stroke="#003B2F" stroke-width="3" stroke-linecap="round" stroke-linejoin="round"/><path d="M1056.92 932.404C1056.92 932.404 1028.61 874.587 987.845 858.712C987.845 858.712 960.492 847.556 955.236 811.944" stroke="white" stroke-width="3" stroke-linecap="round" stroke-linejoin="round"/><path d="M1047.06 1115.83C1028.28 1097.59 1054.67 997.836 1049.95 956.968C1045.23 916.099 1113.67 901.404 1113.67 901.404C1141.88 902.584 1137.59 872.227 1137.59 872.227C1167.84 861.179 1181.57 839.511 1181.57 839.511M1181.57 839.511C1197.87 926.611 1213.96 918.995 1213.96 918.995C1202.7 913.739 1201.84 828.999 1201.84 828.999C1211.82 811.515 1182.43 728.705 1182.43 728.705C1201.52 797.141 1181.57 839.511 1181.57 839.511Z" stroke="white" stroke-width="3" stroke-linecap="round" stroke-linejoin="round"/><path d="M1479.02 956.968C1479.02 956.968 1464.43 1105.42 1457.35 1120.66" stroke="white" stroke-width="3" stroke-linecap="round" stroke-linejoin="round"/><path d="M535.503 844.338C535.503 844.338 613.914 1051.58 611.018 1110.04" stroke="white" stroke-width="3" stroke-linecap="round" stroke-linejoin="round"/><path d="M1137.7 872.12C1136.73 870.726 1134.69 851.954 1134.69 851.954" stroke="white" stroke-width="3" stroke-linecap="round" stroke-linejoin="round"/><path d="M1078.81 968.981C1085.62 968.981 1091.14 963.459 1091.14 956.646C1091.14 949.833 1085.62 944.31 1078.81 944.31C1071.99 944.31 1066.47 949.833 1066.47 956.646C1066.47 963.459 1071.99 968.981 1078.81 968.981Z" stroke="white" stroke-width="3" stroke-miterlimit="10"/><path d="M658.593 577.077H612.739C627.283 577.077 639.052 565.337 639.052 550.827C639.052 536.318 627.283 524.577 612.739 524.577H480.948C466.404 524.577 454.635 536.318 454.635 550.827H414.22C399.676 550.827 387.907 562.568 387.907 577.077C387.907 591.587 399.676 603.327 414.22 603.327H500.489C500.489 617.837 512.258 629.577 526.803 629.577H658.593C673.138 629.577 684.907 617.837 684.907 603.327C684.907 588.818 673.138 577.077 658.593 577.077Z" fill="#E6E8EA"/><path d="M1562.64 921.267H1656.99C1667.38 921.267 1675.81 912.76 1675.81 902.267C1675.81 891.774 1667.38 883.267 1656.99 883.267H1562.64C1552.24 883.267 1543.81 891.774 1543.81 902.267C1543.81 912.76 1552.24 921.267 1562.64 921.267Z" fill="#03FC9D"/><path d="M1613.79 892.267H1768.83C1785.94 892.267 1799.81 878.388 1799.81 861.267C1799.81 844.146 1785.94 830.267 1768.83 830.267H1613.79C1596.68 830.267 1582.81 844.146 1582.81 861.267C1582.81 878.388 1596.68 892.267 1613.79 892.267Z" fill="#03FC9D"/><path d="M1635.96 591.036H1845.13" stroke="#03FC9D" stroke-width="3" stroke-linecap="round" stroke-linejoin="round"/><path d="M1611.27 619.072H1728.25" stroke="#003B2F" stroke-width="3" stroke-linecap="round" stroke-linejoin="round"/><path d="M1643.16 208.567H1598.17C1612.4 208.567 1623.92 198.372 1623.92 185.804C1623.92 173.236 1612.4 163.041 1598.17 163.041H1468.88C1454.64 163.041 1443.13 173.236 1443.13 185.804H1403.41C1389.17 185.804 1377.65 195.999 1377.65 208.567C1377.65 221.135 1389.17 231.33 1403.41 231.33H1488.13C1488.13 243.898 1499.64 254.093 1513.88 254.093H1643.16C1657.4 254.093 1668.92 243.898 1668.92 231.33C1668.92 218.762 1657.4 208.567 1643.16 208.567Z" fill="#E6E8EA"/><path d="M1486.72 192.308H1518.98" stroke="#003B2F" stroke-width="3" stroke-linecap="round" stroke-linejoin="round"/><path d="M1560.64 142.651H1794.24" stroke="#03FC9D" stroke-width="3" stroke-linecap="round" stroke-linejoin="round"/><path d="M1560.64 192.132H1691.24" stroke="#003B2F" stroke-width="3" stroke-linecap="round" stroke-linejoin="round"/><path d="M1356.43 544.69L1370.14 558.4" stroke="#003B2F" stroke-width="3" stroke-linecap="round" stroke-linejoin="round"/><path d="M1380.16 568.419L1393.87 582.042" stroke="#003B2F" stroke-width="3" stroke-linecap="round" stroke-linejoin="round"/><path d="M1356.43 582.042L1370.14 568.419" stroke="#003B2F" stroke-width="3" stroke-linecap="round" stroke-linejoin="round"/><path d="M1380.16 558.4L1393.87 544.69" stroke="#003B2F" stroke-width="3" stroke-linecap="round" stroke-linejoin="round"/><path d="M1744.67 359.839C1754.28 359.839 1762.07 352.048 1762.07 342.437C1762.07 332.827 1754.28 325.036 1744.67 325.036C1735.06 325.036 1727.27 332.827 1727.27 342.437C1727.27 352.048 1735.06 359.839 1744.67 359.839Z" stroke="#003B2F" stroke-width="3" stroke-linecap="round" stroke-linejoin="round"/><path d="M124.726 508.749L145.468 520.702" stroke="#003B2F" stroke-width="3" stroke-linecap="round" stroke-linejoin="round"/><path d="M166.209 508.749L154.081 515.78" stroke="#003B2F" stroke-width="3" stroke-linecap="round" stroke-linejoin="round"/><path d="M145.467 520.701V544.959" stroke="#003B2F" stroke-width="3" stroke-linecap="round" stroke-linejoin="round"/><path d="M136.252 772.988H194.258" stroke="#003B2F" stroke-width="3" stroke-linecap="round" stroke-linejoin="round"/><path d="M92.2209 772.988H106.81" stroke="#003B2F" stroke-width="3" stroke-linecap="round" stroke-linejoin="round"/><path d="M144.69 733.088H294.978" stroke="#03FC9D" stroke-width="3" stroke-linecap="round" stroke-linejoin="round"/><path d="M304.707 939.187V960.984" stroke="#003B2F" stroke-width="3" stroke-linecap="round" stroke-linejoin="round"/><path d="M304.707 976.979V998.775" stroke="#003B2F" stroke-width="3" stroke-linecap="round" stroke-linejoin="round"/><path d="M274.913 968.981H296.709" stroke="#003B2F" stroke-width="3" stroke-linecap="round" stroke-linejoin="round"/><path d="M312.616 968.981H334.5" stroke="#003B2F" stroke-width="3" stroke-linecap="round" stroke-linejoin="round"/><path d="M219.834 359.602H380.493" stroke="#03FC9D" stroke-width="3" stroke-linecap="round" stroke-linejoin="round"/><path d="M334.5 380.861H458.51" stroke="#003B2F" stroke-width="3" stroke-linecap="round" stroke-linejoin="round"/><path d="M736.089 207.628V228.282" stroke="#003B2F" stroke-width="3" stroke-linecap="round" stroke-linejoin="round"/><path d="M736.089 243.398V264.14" stroke="#003B2F" stroke-width="3" stroke-linecap="round" stroke-linejoin="round"/><path d="M707.789 235.84H728.531" stroke="#003B2F" stroke-width="3" stroke-linecap="round" stroke-linejoin="round"/><path d="M743.648 235.84H764.301" stroke="#003B2F" stroke-width="3" stroke-linecap="round" stroke-linejoin="round"/><path d="M206.901 220.444L356.047 220.444C372.453 220.444 385.753 207.144 385.753 190.738V190.65C385.753 174.244 372.453 160.944 356.047 160.944L206.901 160.944C190.495 160.944 177.195 174.244 177.195 190.65V190.738C177.195 207.144 190.495 220.444 206.901 220.444Z" fill="#03FC9D"/><path d="M154.432 255.863L303.578 255.863C319.984 255.863 333.284 242.563 333.284 226.157V226.069C333.284 209.663 319.984 196.363 303.578 196.363L154.432 196.363C138.026 196.363 124.726 209.663 124.726 226.069V226.157C124.726 242.563 138.026 255.863 154.432 255.863Z" fill="#03FC9D"/></g><defs><clipPath id="clip0_1714_626"><rect width="1920" height="1080" fill="white" transform="translate(0.11615)"/></clipPath></defs></svg>