<svg width="1920" height="1080" viewBox="0 0 1920 1080" fill="none" xmlns="http://www.w3.org/2000/svg"><path d="M626.162 349.379V711.726L939.888 892.872V530.525L646.614 361.231L626.162 349.379Z" fill="#E6E8EA"/><path d="M1253.61 349.379V711.671L939.888 892.872V530.525L1233.16 361.231L1253.61 349.379Z" fill="#E6E8EA"/><path d="M1252.98 349.693L1241.79 356.142L939.257 530.728L636.667 356.142L625.532 349.693L939.257 168.491L1252.98 349.693Z" fill="#E6E8EA"/><path d="M644.274 377.823V742.481L960 924.782V560.124L664.856 389.75L644.274 377.823Z" stroke="#003B2F" stroke-width="2.60747" stroke-linecap="round" stroke-linejoin="round"/><path d="M907.295 723.674C907.295 793.021 858.641 821.149 798.558 786.475C738.475 751.801 689.821 667.474 689.821 598.126C689.821 528.779 738.475 500.54 798.558 535.27C858.641 569.944 907.295 654.381 907.295 723.729V723.674Z" fill="#03FC9D" stroke="#003B2F" stroke-width="2.60747" stroke-linecap="round" stroke-linejoin="round"/><path d="M877.67 701.76C869.903 692.328 857.087 680.012 836.616 666.975C835.451 660.539 833.454 653.993 830.68 647.724C846.658 647.169 870.569 660.872 876.449 664.367C876.616 664.478 876.727 664.478 876.838 664.478L883.384 662.537C883.772 662.537 883.939 662.037 883.772 661.483C880.499 651.385 877.115 643.508 874.23 637.349C868.294 625.255 858.252 615.99 849.431 615.158C844.438 614.603 838.169 615.047 830.957 617.766H830.735C826.131 618.82 820.86 620.54 815.146 623.924C810.985 619.319 806.491 615.38 801.665 612.218C800.5 588.862 819.085 571.33 823.301 567.613C823.579 567.336 823.412 566.282 822.746 565.783C815.146 559.514 808.988 555.408 804.106 552.634C799.279 549.86 794.896 549.084 791.235 550.249L790.736 550.36L784.3 552.301C780.916 553.467 778.364 556.24 777.088 560.734C774.869 568.834 773.648 582.648 776.921 606.115C775.479 606.393 774.203 606.892 772.983 607.558C771.429 607.669 769.987 608.057 768.544 608.501C753.565 585.699 746.741 548.695 745.354 540.596C745.188 539.819 744.467 539.153 744.023 539.32L737.698 541.261H737.532C731.374 543.258 727.047 545.866 723.995 548.473C717.948 553.466 717.338 565.283 722.941 577.489C728.045 588.64 737.476 604.784 755.063 626.42V626.531C754.508 629.028 754.286 631.746 754.286 634.687C754.286 636.517 754.397 638.348 754.564 640.179C736.311 631.358 713.676 606.337 708.406 600.346C708.129 600.068 707.851 599.957 707.518 599.957L700.972 601.899C700.694 601.899 700.473 602.065 700.584 602.565C700.584 611.497 701.471 618.986 702.581 625.144C704.689 637.183 712.678 649.666 722.22 655.602C731.041 661.094 744.411 666.753 763.163 668.306C766.547 674.853 770.652 681.122 775.479 686.559C772.483 693.382 766.27 697.543 759.335 700.04C751.235 701.871 743.69 701.871 740.805 701.871H740.694L734.259 703.812L733.981 703.923C733.704 704.201 733.815 704.811 734.092 705.366C740.25 714.52 745.521 721.232 749.959 726.115C750.625 726.836 751.291 727.557 751.956 728.223C755.396 731.607 759.446 734.714 764.106 736.156C765.937 736.711 767.879 737.044 769.765 736.877C774.425 736.489 780.25 734.603 783.69 731.385C784.744 730.386 785.742 729.332 786.63 728.223C789.016 725.338 791.013 722.065 792.733 718.736C795.118 714.076 797.005 709.138 798.558 704.09C801.831 705.366 804.882 706.031 807.767 706.309C818.53 731.995 812.871 765.171 811.54 771.995C811.429 772.661 812.039 773.548 812.594 773.715C820.194 775.823 825.853 776.433 830.18 776.322C831.346 776.322 832.511 776.156 833.565 775.768L838.946 774.214C845.992 772.772 849.82 765.171 847.989 754.187C846.158 743.146 841.276 726.004 828.96 700.151C830.902 698.431 832.622 696.212 833.953 693.604C852.205 710.137 869.736 744.922 873.675 752.911C873.953 753.41 874.341 753.687 874.729 753.687L874.951 753.576C874.951 753.576 875.118 753.576 875.118 753.465L881.276 751.745H881.387C881.387 751.745 881.664 751.745 881.775 751.579C885.048 745.421 886.99 739.873 888.1 734.936C890.208 725.393 886.158 711.968 877.725 701.76H877.67Z" fill="#003B2F" stroke="#003B2F" stroke-width="1.66435" stroke-linecap="round" stroke-linejoin="round"/><path d="M1275.73 377.823V742.425L960 924.782V560.124L1255.14 389.75L1275.73 377.823Z" stroke="#003B2F" stroke-width="2.60747" stroke-linecap="round" stroke-linejoin="round"/><path d="M1012.7 723.674C1012.7 793.021 1061.36 821.149 1121.44 786.475C1181.52 751.801 1230.18 667.474 1230.18 598.126C1230.18 528.779 1181.52 500.54 1121.44 535.27C1061.36 569.944 1012.7 654.381 1012.7 723.729V723.674Z" fill="#03FC9D" stroke="#003B2F" stroke-width="2.60747" stroke-linecap="round" stroke-linejoin="round"/><path d="M1219.03 601.843L1212.48 599.902C1212.2 599.902 1211.93 600.013 1211.59 600.29C1206.32 606.226 1183.69 631.247 1165.44 640.068C1165.6 638.237 1165.71 636.406 1165.71 634.576C1165.71 631.58 1165.55 628.917 1164.94 626.42V626.309C1182.52 604.673 1191.95 588.529 1197.06 577.378C1202.66 565.172 1202.05 553.356 1196 548.362C1192.95 545.755 1188.63 543.148 1182.47 541.15H1182.3L1175.98 539.209C1175.48 539.042 1174.81 539.708 1174.65 540.485C1173.31 548.584 1166.49 585.588 1151.46 608.39C1150.01 607.891 1148.57 607.502 1147.02 607.447C1145.74 606.781 1144.52 606.282 1143.08 606.004C1146.35 582.537 1145.08 568.723 1142.91 560.623C1141.64 556.129 1139.08 553.3 1135.7 552.135L1129.26 550.193L1128.76 550.082C1125.1 548.917 1120.66 549.694 1115.89 552.468C1111.01 555.242 1104.85 559.403 1097.25 565.616C1096.59 566.116 1096.37 567.17 1096.7 567.447C1100.91 571.22 1119.5 588.695 1118.33 612.051C1113.51 615.214 1109.01 619.153 1104.85 623.757C1099.19 620.373 1093.87 618.653 1089.26 617.599H1089.1C1081.89 614.881 1075.62 614.437 1070.62 614.992C1061.8 615.879 1051.76 625.089 1045.82 637.183C1042.94 643.341 1039.56 651.219 1036.28 661.316C1036.12 661.871 1036.28 662.37 1036.67 662.37L1043.22 664.312C1043.22 664.312 1043.38 664.312 1043.61 664.201C1049.49 660.761 1073.4 647.003 1089.38 647.557C1086.6 653.827 1084.55 660.373 1083.44 666.808C1062.97 679.901 1050.15 692.217 1042.39 701.593C1033.9 711.801 1029.9 725.227 1032.01 734.769C1033.18 739.651 1035.06 745.255 1038.34 751.413C1038.45 751.579 1038.5 751.579 1038.72 751.579H1038.83L1044.99 753.299C1044.99 753.299 1045.1 753.41 1045.16 753.41L1045.33 753.521C1045.71 753.521 1046.1 753.243 1046.38 752.744C1050.32 744.755 1067.79 709.97 1086.1 693.438C1087.43 696.045 1089.15 698.265 1091.1 699.984C1078.78 725.837 1073.9 742.98 1072.07 754.02C1070.24 765.005 1074.06 772.55 1081.11 773.992L1086.49 775.546C1087.54 775.934 1088.71 776.1 1089.87 776.1C1094.2 776.211 1099.86 775.601 1107.46 773.493C1108.02 773.326 1108.63 772.439 1108.52 771.773C1107.18 764.949 1101.47 731.773 1112.29 706.087C1115.17 705.81 1118.22 705.144 1121.5 703.868C1123.05 708.861 1124.94 713.798 1127.32 718.514C1129.04 721.843 1131.04 725.116 1133.42 728.001C1134.37 729.11 1135.31 730.164 1136.37 731.163C1139.8 734.436 1145.63 736.323 1150.29 736.655C1152.18 736.822 1154.12 736.489 1155.95 735.934C1160.61 734.492 1164.66 731.44 1168.1 728.001C1168.76 727.335 1169.43 726.614 1170.1 725.893C1174.53 721.011 1179.8 714.242 1185.96 705.144C1186.24 704.589 1186.35 703.979 1186.07 703.701L1185.8 703.59L1179.36 701.649H1179.25C1176.37 701.649 1168.76 701.649 1160.72 699.818C1153.79 697.321 1147.57 693.161 1144.58 686.337C1149.4 680.844 1153.51 674.631 1156.89 668.084C1175.64 666.531 1189.01 660.872 1197.84 655.38C1207.38 649.444 1215.31 636.906 1217.47 624.922C1218.64 618.764 1219.47 611.275 1219.47 602.343C1219.58 601.843 1219.36 601.677 1219.08 601.677L1219.03 601.843Z" fill="#003B2F" stroke="#003B2F" stroke-width="1.66435" stroke-linecap="round" stroke-linejoin="round"/><path d="M1275.73 377.588L1264.46 384.079L960 559.778L655.48 384.079L644.274 377.588L960 195.231L1275.73 377.588Z" stroke="#003B2F" stroke-width="2.60747" stroke-linecap="round" stroke-linejoin="round"/><path d="M682.609 377.532L960 217.367L1237.39 377.532L960 537.698L682.609 377.532Z" fill="#03FC9D" stroke="#003B2F" stroke-width="2.60747" stroke-linecap="round" stroke-linejoin="round"/><path d="M1166.71 358.392L1157 364.107L958.835 478.281L761 364.107L751.291 358.392L958.835 238.449L1166.71 358.392Z" fill="white" stroke="#003B2F" stroke-width="2.60747" stroke-linecap="round" stroke-linejoin="round"/><path d="M1166.71 358.392L1166.6 376.312L958.724 496.2L751.236 376.312L751.291 358.392L761 364.107L958.835 478.281L1157 364.107L1166.71 358.392Z" fill="#003B2F" stroke="#003B2F" stroke-width="2.60747" stroke-linecap="round" stroke-linejoin="round"/><path d="M1027.41 412.151L870.902 324.44C866.408 321.943 866.908 317.449 872.012 314.398C877.116 311.347 884.883 310.958 889.376 313.455L1045.88 401.166C1050.37 403.662 1049.87 408.156 1044.77 411.208C1039.67 414.259 1031.9 414.647 1027.41 412.151Z" fill="#003B2F"/><mask id="mask0_1152_3328" style="mask-type:luminance" maskUnits="userSpaceOnUse" x="803" y="183" width="411" height="234"><path d="M1034.51 416.034L803.94 287.436L983.301 183.692L1213.87 312.29L1034.51 416.034Z" fill="white"/></mask><g mask="url(#mask0_1152_3328)"><path d="M1029.74 376.756C1029.74 398.725 1022.75 414.703 1011.1 423.246C997.836 429.071 980.471 427.185 961.498 416.256C919.944 392.289 886.214 333.982 886.158 285.993C886.158 264.024 893.148 248.046 904.799 239.503C918.058 233.677 935.367 235.564 954.341 246.493C995.95 270.459 1029.68 328.767 1029.74 376.756Z" fill="#003B2F"/><path d="M1029.74 376.756C1029.74 398.725 1022.75 414.703 1011.1 423.246C1010.32 423.857 1009.65 424.356 1008.82 424.855L1008.49 425.077L1006.27 426.353C992.787 433.288 974.59 431.845 954.563 420.25C913.01 396.339 879.279 337.976 879.224 289.988C879.224 266.631 887.212 249.988 900.25 241.888C901.692 241 903.246 240.168 904.854 239.503C918.114 233.677 935.423 235.564 954.396 246.493C996.005 270.459 1029.74 328.767 1029.79 376.756H1029.74Z" fill="#03FC9D" stroke="#003B2F" stroke-width="2.60747" stroke-linecap="round" stroke-linejoin="round"/><path d="M1036.67 372.706C1036.67 396.062 1028.68 412.761 1015.64 420.861L1008.77 424.855C1009.6 424.356 1010.32 423.857 1011.04 423.246C1022.69 414.703 1029.74 398.725 1029.68 376.756C1029.68 328.767 995.894 270.459 954.285 246.493C935.312 235.564 918.003 233.677 904.743 239.503C903.135 240.113 901.581 240.945 900.139 241.888L907.129 237.838L909.404 236.507C922.885 229.461 941.082 230.903 961.276 242.443C1002.88 266.41 1036.62 324.717 1036.67 372.706Z" fill="#003B2F" stroke="#003B2F" stroke-width="1.66435" stroke-linecap="round" stroke-linejoin="round"/><path d="M1007.21 363.552C1007.21 397.282 983.578 410.986 954.341 394.12C925.104 377.255 901.415 336.257 901.359 302.526C901.359 268.795 924.993 255.092 954.23 271.957C983.467 288.823 1007.16 329.821 1007.21 363.552Z" fill="#03FC9D" stroke="#003B2F" stroke-width="2.60747" stroke-linecap="round" stroke-linejoin="round"/><path d="M970.707 342.637C976.366 343.968 980.249 339.696 980.138 332.429C979.972 323.718 973.314 313.067 965.88 308.961C965.769 308.906 965.325 308.684 965.325 308.684V294.426L956.893 289.655L956.726 303.635L948.571 298.975V285.217L940.249 280.445V294.537L924.161 285.272V295.425L930.263 298.92C930.596 299.142 930.929 299.086 931.206 299.419C931.65 299.863 932.427 300.473 932.427 301.25V322.054C932.427 322.054 932.427 322.332 932.427 322.886V343.913C932.427 346.465 930.596 345.299 930.596 345.299L924.161 341.582V351.735L940.749 361.277V375.369L948.571 379.862V365.494L957.115 370.376L957.281 384.911L965.27 389.516V375.424L965.825 375.757C976.144 381.693 984.133 378.087 984.133 368.156C984.133 359.003 978.307 348.295 970.54 342.747L970.707 342.637ZM948.627 308.85L957.059 313.677C960.721 315.785 963.273 320.445 963.273 324.662V325.771C963.273 329.987 960.721 332.65 957.059 330.542L948.627 325.716V308.85ZM962.995 361.277C961.331 362.276 959.001 362.109 956.393 360.611L948.627 356.173V335.369L956.338 339.807C961.497 342.747 965.658 349.682 965.658 355.618C965.658 358.559 964.604 360.334 962.94 361.333L962.995 361.277Z" fill="#003B2F"/></g><path d="M576.308 88.8329L600.24 116.393" stroke="#003B2F" stroke-width="4.02011" stroke-linecap="round" stroke-linejoin="round"/><path d="M636.085 109.505L614.978 113.549" stroke="#003B2F" stroke-width="4.02011" stroke-linecap="round" stroke-linejoin="round"/><path d="M600.241 116.393L588.153 151.347" stroke="#003B2F" stroke-width="4.02011" stroke-linecap="round" stroke-linejoin="round"/><path d="M490.062 333.394H424.936C445.573 333.394 462.323 318.251 462.323 299.491C462.323 280.73 445.573 265.588 424.936 265.588H237.867C217.23 265.588 200.48 280.73 200.48 299.491H142.992C122.356 299.491 105.605 314.633 105.605 333.394C105.605 352.154 122.356 367.297 142.992 367.297H265.606C265.606 386.057 282.356 401.2 302.993 401.2H490.062C510.699 401.2 527.449 386.057 527.449 367.297C527.449 348.536 510.699 333.394 490.062 333.394Z" fill="#03FC9D"/><path d="M471.864 558.143C483.155 558.143 492.309 548.989 492.309 537.698C492.309 526.406 483.155 517.253 471.864 517.253C460.572 517.253 451.419 526.406 451.419 537.698C451.419 548.989 460.572 558.143 471.864 558.143Z" stroke="#003B2F" stroke-width="4.46258" stroke-linecap="round" stroke-linejoin="round"/><path d="M235.131 712.048L266.1 729.938" stroke="#003B2F" stroke-width="4.46258" stroke-linecap="round" stroke-linejoin="round"/><path d="M297.194 712.048L278.933 722.535" stroke="#003B2F" stroke-width="4.46258" stroke-linecap="round" stroke-linejoin="round"/><path d="M266.101 729.939V766.09" stroke="#003B2F" stroke-width="4.46258" stroke-linecap="round" stroke-linejoin="round"/><path d="M419.858 904.884H644.291" stroke="#03FC9D" stroke-width="4.46258" stroke-linecap="round" stroke-linejoin="round"/><path d="M595.431 954.361H768.536" stroke="#003B2F" stroke-width="4.46258" stroke-linecap="round" stroke-linejoin="round"/><path d="M1720.25 793.371H1673.01C1687.89 793.371 1700.16 781.252 1700.16 766.22C1700.16 751.187 1688.04 739.069 1673.01 739.069H1537.25C1522.38 739.069 1510.1 751.187 1510.1 766.22H1468.38C1453.5 766.22 1441.23 778.338 1441.23 793.371C1441.23 808.403 1453.35 820.521 1468.38 820.521H1557.35C1557.35 835.4 1569.47 847.672 1584.5 847.672H1720.25C1735.13 847.672 1747.4 835.554 1747.4 820.521C1747.4 805.489 1735.29 793.371 1720.25 793.371Z" fill="#03FC9D"/><path d="M1375.52 904.884H1611.6C1637.6 904.884 1658.69 883.801 1658.69 857.792C1658.69 831.784 1637.6 810.701 1611.6 810.701H1375.52C1349.51 810.701 1328.43 831.784 1328.43 857.792C1328.43 883.801 1349.51 904.884 1375.52 904.884Z" fill="#E6E8EA"/><path d="M1718.73 531.179L1731.59 558.516" stroke="#003B2F" stroke-width="4.02011" stroke-linecap="round" stroke-linejoin="round"/><path d="M1740.97 578.616L1753.84 605.953" stroke="#003B2F" stroke-width="4.02011" stroke-linecap="round" stroke-linejoin="round"/><path d="M1698.9 586.121L1726.23 573.256" stroke="#003B2F" stroke-width="4.02011" stroke-linecap="round" stroke-linejoin="round"/><path d="M1746.33 563.876L1773.67 551.011" stroke="#003B2F" stroke-width="4.02011" stroke-linecap="round" stroke-linejoin="round"/><path d="M1375.55 403.417H1422.18" stroke="#003B2F" stroke-width="4.02011" stroke-linecap="round" stroke-linejoin="round"/><path d="M1545.33 352.228H1773.67" stroke="#03FC9D" stroke-width="4.02011" stroke-linecap="round" stroke-linejoin="round"/><path d="M1482.48 403.283H1671.56" stroke="#003B2F" stroke-width="4.02011" stroke-linecap="round" stroke-linejoin="round"/><path d="M1459.2 103.417H1601.53C1617.21 103.417 1629.91 116.118 1629.91 131.796C1629.91 147.475 1617.21 160.175 1601.53 160.175H1459.2C1443.52 160.175 1430.82 147.475 1430.82 131.796C1430.82 116.118 1443.52 103.417 1459.2 103.417Z" fill="#E6E8EA"/><path d="M1388.83 136.872H1547.19C1564.62 136.872 1578.81 150.974 1578.81 168.491C1578.81 186.009 1564.71 200.111 1547.19 200.111H1388.83C1371.4 200.111 1357.21 186.009 1357.21 168.491C1357.21 151.061 1371.4 136.872 1388.83 136.872Z" fill="#E6E8EA"/></svg>