<svg width="1676" height="857" viewBox="0 0 1676 857" fill="none" xmlns="http://www.w3.org/2000/svg"><g clip-path="url(#clip0_237_497)"><path d="M269.246 642.501C254.333 642.501 239.42 641.097 224.945 639.782C219.331 639.255 213.717 638.729 208.103 638.29L-125.597 611.886C-131.65 611.447 -136.124 606.096 -135.685 600.131C-135.247 594.165 -129.983 589.516 -123.93 590.043L209.769 616.447C215.471 616.886 221.173 617.412 226.963 617.939C241.262 619.254 256 620.57 270.298 620.57C286.878 620.482 299.072 617.237 307.581 610.57C316.704 603.464 321.617 591.709 320.739 579.077C318.722 548.023 289.773 531.706 265.649 527.145C246.789 523.636 227.577 525.39 207.313 527.32C185.382 529.338 162.75 531.443 139.942 526.531C124.59 523.197 103.361 515.127 90.027 495.214C77.9212 477.143 77.5703 455.036 89.1497 436.088C106.782 407.139 142.135 390.647 194.33 387.138C213.454 385.823 232.753 386.086 251.438 386.349L264.07 386.524C276.264 386.612 322.318 386.524 366.97 386.349C411.621 386.173 457.763 386.086 470.132 386.173C476.185 386.173 481.098 391.174 481.01 397.227C481.01 403.28 476.097 408.104 470.044 408.104H469.957C457.851 408.104 411.708 408.104 367.057 408.28C322.406 408.367 276.264 408.543 263.895 408.455L251.175 408.28C232.928 408.017 214.068 407.841 195.821 409.069C151.17 412.052 121.607 425.035 107.923 447.58C100.817 459.247 100.992 472.142 108.273 483.108C117.572 496.968 133.187 502.758 144.591 505.214C164.153 509.425 184.154 507.583 205.295 505.565C226.261 503.635 247.841 501.617 269.684 505.653C311.704 513.46 340.302 541.795 342.67 577.674C343.986 597.499 335.916 616.272 321.09 627.851C308.634 637.589 292.054 642.413 270.386 642.501H269.246Z" fill="#E6E8EA" stroke="#003B2F" stroke-width="3" stroke-linecap="round" stroke-linejoin="round"/><path d="M1366.23 412.403C1311.23 412.403 1255.96 410.561 1201.04 406.789C1194.99 406.35 1190.43 401.174 1190.87 395.121C1191.31 389.068 1196.48 384.595 1202.54 384.945C1297.19 391.349 1392.72 392.226 1486.41 387.489L1490.36 387.314C1507.37 386.524 1525.01 385.647 1537.11 376.349C1546.06 369.506 1548.43 359.067 1543.34 349.154C1529.04 321.609 1494.92 324.767 1455.09 331.171L1450.79 331.873C1415.53 337.487 1370.96 339.592 1339.47 306.17C1314.03 279.063 1307.1 239.939 1321.75 206.341C1336.75 172.041 1369.56 151.075 1411.84 148.794C1429.65 147.829 1447.37 149.671 1464.39 151.338L1473.34 152.215C1494.74 154.321 1516.15 156.426 1537.55 158.619C1625.1 167.567 1714.23 177.831 1802.48 189.059C1802.83 189.059 1803.7 189.235 1804.05 189.322C1809.93 190.638 1813.7 196.516 1812.39 202.393C1811.07 208.271 1805.2 211.955 1799.32 210.727L1801.69 200.025L1799.23 210.727C1711.68 199.586 1622.73 189.41 1535.36 180.375C1513.95 178.182 1492.64 176.076 1471.23 173.971L1462.11 173.094C1445.88 171.427 1429.04 169.672 1412.9 170.637C1393.07 171.69 1357.54 178.883 1341.75 215.025C1330.61 240.553 1335.96 270.466 1355.35 291.081C1379.65 316.96 1415.44 315.205 1447.2 310.205L1451.41 309.503C1486.67 303.801 1539.92 295.204 1562.64 339.066C1572.64 358.365 1567.73 380.384 1550.36 393.718C1532.73 407.227 1510.71 408.28 1491.23 409.245L1487.37 409.42C1447.2 411.438 1406.67 412.491 1366.05 412.491L1366.23 412.403Z" fill="#E6E8EA" stroke="#003B2F" stroke-width="3" stroke-linecap="round" stroke-linejoin="round"/><path d="M988.226 247.483C996.034 230.991 1003.84 214.499 1011.65 198.007C1013.49 194.235 1009.63 189.586 1005.6 191.954C986.121 203.446 966.734 214.938 947.26 226.429C960.769 169.234 974.278 111.95 987.788 54.7548C989.016 49.6669 982.524 47.2983 979.717 51.3336C946.119 98.2656 912.521 145.198 879.011 192.13C874.8 157.742 870.502 123.354 866.291 88.9669C865.677 84.0544 859.361 82.914 857.606 87.8265C844.974 122.039 832.254 156.338 819.622 190.551C801.902 145.899 784.094 101.248 766.374 56.5093C764.62 52.1231 757.689 52.2986 757.689 57.6497C757.865 104.582 758.128 151.514 758.303 198.446C740.496 187.48 722.688 176.427 704.968 165.462C700.845 162.918 697.16 167.742 698.915 171.515C708.827 193.182 718.74 214.85 728.653 236.518" stroke="#003B2F" stroke-width="3" stroke-linecap="round" stroke-linejoin="round"/><path d="M704.003 565.48C710.757 561.971 717.512 558.55 724.179 555.041C714.705 576.533 705.231 598.025 695.757 619.517C694.09 623.377 697.687 627.939 701.81 625.57C721.46 614.429 741.197 603.289 760.847 592.148C755.145 615.921 749.443 639.606 743.741 663.379C742.776 667.327 748.215 671.362 751.11 667.678C765.058 650.133 779.006 632.588 792.954 615.044C796.726 644.869 800.498 674.608 804.27 704.434C804.709 708.206 810.499 711.188 812.516 706.627C825.763 676.801 839.009 646.975 852.255 617.149C853.483 677.678 854.624 685.573 855.852 746.102C856.203 765.138 856.641 784.262 856.992 803.298C857.08 808.123 864.624 809.526 865.677 804.438L907.17 659.87L912.872 632.764C915.24 659.782 917.609 686.801 919.977 713.82C920.416 718.382 927.96 720.312 928.662 714.96C933.311 682.152 938.048 649.256 942.698 616.447C967.787 644.957 992.876 673.467 1017.96 701.977C1020.95 705.311 1026.56 701.802 1025.33 697.679C1013.05 655.396 1000.77 613.201 988.577 570.919" stroke="#003B2F" stroke-width="3" stroke-linecap="round" stroke-linejoin="round"/><path d="M1108.85 165.023C1101.74 171.251 1094.64 177.392 1087.62 183.62" stroke="#003B2F" stroke-width="3" stroke-linecap="round" stroke-linejoin="round"/><path d="M582.944 160.023C592.418 170.111 601.805 180.199 611.279 190.287" stroke="#003B2F" stroke-width="3" stroke-linecap="round" stroke-linejoin="round"/><path d="M581.543 635.571C590.403 624.079 599.264 612.5 608.124 601.008" stroke="#003B2F" stroke-width="3" stroke-linecap="round" stroke-linejoin="round"/><path d="M1089.2 587.937C1096.3 598.552 1103.41 609.166 1110.51 619.781" stroke="#003B2F" stroke-width="3" stroke-linecap="round" stroke-linejoin="round"/><path d="M810.147 430.649H704.879V362.488H810.147C817.867 362.488 824.183 356.172 824.183 348.452C824.183 340.733 817.867 334.417 810.147 334.417H704.879V314.679C704.879 307.749 699.265 302.135 692.335 302.135H649.087C648.736 294.678 642.683 288.713 635.139 288.713C627.595 288.713 621.454 294.678 621.191 302.135H612.594C606.015 302.135 599.699 304.328 594.523 308.363L508.466 375.208C506.8 372.84 504.168 371.173 501.01 371.173C498.027 371.173 495.483 372.664 493.817 374.857C492.15 372.664 489.606 371.173 486.623 371.173C483.641 371.173 481.36 372.489 479.693 374.506C478.29 373.541 476.711 372.84 474.868 372.84C470.044 372.84 466.184 376.699 466.184 381.524V421.263C466.184 426.088 470.044 429.947 474.868 429.947C476.711 429.947 478.29 429.246 479.693 428.281C481.36 430.298 483.816 431.614 486.623 431.614C489.606 431.614 492.15 430.123 493.817 427.93C495.483 430.123 498.027 431.614 501.01 431.614C506.098 431.614 510.221 427.491 510.221 422.403V422.14L594.26 492.582C599.523 497.056 606.278 499.424 613.208 499.424H621.103V500.302C621.103 508.021 627.419 514.337 635.139 514.337C642.859 514.337 649.175 508.021 649.175 500.302V499.424H692.335C699.265 499.424 704.879 493.81 704.879 486.88V458.896H810.147C817.867 458.896 824.183 452.58 824.183 444.86C824.183 437.141 817.867 430.825 810.147 430.825V430.649Z" fill="#03FC9D" stroke="#003B2F" stroke-width="3" stroke-linecap="round" stroke-linejoin="round"/><path d="M962.964 462.405V482.143C962.964 489.073 968.579 494.687 975.509 494.687H1018.76C1019.11 502.144 1025.16 508.109 1032.7 508.109C1040.25 508.109 1046.39 502.144 1046.65 494.687H1055.25C1061.83 494.687 1068.14 492.494 1073.32 488.459L1159.38 421.614C1161.04 423.982 1163.68 425.649 1166.83 425.649C1169.82 425.649 1172.36 424.158 1174.03 421.965C1175.69 424.158 1178.24 425.649 1181.22 425.649C1184.2 425.649 1186.48 424.333 1188.15 422.316C1189.55 423.281 1191.13 423.982 1192.97 423.982C1197.8 423.982 1201.66 420.123 1201.66 415.298V375.559C1201.66 370.734 1197.8 366.874 1192.97 366.874C1191.13 366.874 1189.55 367.576 1188.15 368.541C1186.48 366.524 1184.03 365.208 1181.22 365.208C1178.24 365.208 1175.69 366.699 1174.03 368.892C1172.36 366.699 1169.82 365.208 1166.83 365.208C1161.75 365.208 1157.62 369.331 1157.62 374.419V374.682L1073.58 304.24C1068.32 299.766 1061.57 297.398 1054.64 297.398H1046.74V296.52C1046.74 288.801 1040.42 282.485 1032.7 282.485C1024.98 282.485 1018.67 288.801 1018.67 296.52V297.398H975.509C968.579 297.398 962.964 303.012 962.964 309.942V462.23V462.405Z" fill="#03FC9D" stroke="#003B2F" stroke-width="3" stroke-linecap="round" stroke-linejoin="round"/><path d="M635.051 500.214V302.749" stroke="#003B2F" stroke-width="3" stroke-linecap="round" stroke-linejoin="round"/><path d="M1032.79 296.608V494.161" stroke="#003B2F" stroke-width="3" stroke-linecap="round" stroke-linejoin="round"/><path d="M642.771 155.9H642.157C636.367 156.689 630.753 156.514 625.314 155.373C622.945 154.847 620.489 154.233 618.208 153.443H617.77C601.892 147.303 589.523 133.092 586.628 114.933C582.417 88.1772 600.664 63.0883 627.507 58.8776C634.876 57.7372 642.069 58.2635 648.648 60.1934C650.49 60.7198 652.245 61.3338 653.912 62.0356C668.474 68.0885 679.79 81.247 683.036 97.6513V98.5285C683.036 98.5285 683.299 99.318 683.387 99.6689C687.597 126.425 669.351 151.513 642.508 155.724H642.683L642.771 155.9Z" fill="#03FC9D"/><path d="M616.715 84.054L624.698 92.3C626.014 93.6159 627.33 95.0195 628.733 96.3353C632.33 100.107 638.207 100.371 641.979 96.8616C642.155 96.7739 642.242 96.5985 642.418 96.5107C646.365 92.5632 650.401 88.6156 654.348 84.6681L654.611 84.4049H662.243C662.243 84.4049 662.068 84.6681 661.98 84.7558C656.717 90.0192 651.453 95.1072 646.19 100.371C643.295 103.353 639.26 104.932 635.137 104.844C631.452 104.844 627.944 103.265 625.312 100.634C619.961 95.2826 614.697 89.7561 609.259 84.2295L608.995 83.9663H616.627L616.715 84.054Z" fill="#003B2F"/><path d="M608.646 129.144C609.436 128.354 610.313 127.565 611.102 126.775C615.576 122.302 620.138 117.828 624.612 113.266C627.507 110.283 631.542 108.704 635.753 108.792C639.437 108.792 642.858 110.371 645.49 112.827C651.016 118.354 656.368 123.881 661.806 129.495L661.368 129.758H654.525C654.525 129.758 653.999 129.67 653.736 129.407C649.788 125.372 645.753 121.249 641.805 117.214C638.121 113.529 632.244 113.442 628.559 117.214C624.524 121.161 620.576 125.196 616.453 129.319C616.19 129.583 615.839 129.67 615.488 129.67H608.383L608.558 129.144H608.646Z" fill="#003B2F"/><path d="M737.601 711.802H737.074C732.074 711.627 727.249 710.75 722.863 709.083C720.933 708.293 718.916 707.416 717.074 706.451H716.723C704.003 699.082 695.406 685.398 695.318 669.607C695.318 646.273 714.091 627.412 737.425 627.325C743.829 627.325 749.882 628.728 755.233 631.272C756.724 631.974 758.128 632.764 759.444 633.553C771.023 640.571 778.919 653.291 779.533 667.677V668.467C779.533 668.467 779.533 669.169 779.533 669.52C779.533 692.854 760.76 711.715 737.425 711.802H737.513H737.601Z" fill="#03FC9D"/><path fill-rule="evenodd" clip-rule="evenodd" d="M724.97 674.783L721.724 675.66L724.18 669.52L727.426 668.643L734.795 649.87L745.585 651.537L740.146 665.309L743.392 664.432L740.935 670.572L737.689 671.45L734.619 679.169L750.936 681.713L747.778 689.696L720.671 685.485L724.882 674.783H724.97Z" fill="#003B2F"/><path d="M983.756 618.29H983.229C978.317 618.202 973.492 617.237 969.194 615.658C967.176 614.868 965.246 614.079 963.404 613.026H963.053C950.421 605.657 941.912 592.148 941.912 576.533C941.912 553.55 960.509 534.777 983.668 534.689C989.984 534.689 995.949 536.093 1001.39 538.549C1002.88 539.251 1004.28 539.953 1005.6 540.83C1017.09 547.848 1024.99 560.304 1025.6 574.603V575.305C1025.6 575.305 1025.6 575.919 1025.69 576.358C1025.69 599.341 1007.09 618.114 983.931 618.202H983.756V618.29Z" fill="#03FC9D"/><path d="M1006.91 567.586C1007.18 561.094 1001.56 558.199 994.105 556.708L995.508 547.76L989.631 547.058L988.315 555.743C986.736 555.48 985.157 555.392 983.666 555.304L985.069 546.444L979.192 545.742L977.788 554.69C976.56 554.515 975.244 554.427 974.016 554.339L965.858 553.287L964.981 559.076C964.981 559.076 969.367 559.515 969.191 559.603C971.648 559.954 972.174 561.269 972.174 562.41L970.595 572.586L968.402 586.797C968.314 587.499 967.612 588.551 965.946 588.376L961.735 587.85L959.542 594.166L967.174 595.131C968.665 595.394 969.981 595.569 971.297 595.657L969.893 604.692L975.771 605.394L977.174 596.447C978.753 596.71 980.332 596.973 981.824 597.061L980.42 606.008L986.298 606.71L987.701 597.675C997.614 598.376 1004.89 596.797 1007.09 588.288C1008.93 581.358 1005.86 577.937 1000.42 576.007C1004.11 574.867 1006.56 572.147 1006.82 567.498H1006.91V567.586ZM995.772 586.007C994.719 592.762 982.35 590.569 978.402 590.13L980.245 578.2C984.28 578.726 996.824 579.077 995.684 586.007H995.772ZM995.596 568.814C994.631 574.954 984.28 573.024 981.034 572.586L982.701 561.708C985.947 562.059 996.561 562.41 995.596 568.814Z" fill="#003B2F"/><path d="M845.501 536.444C845.501 536.444 845.238 536.444 845.15 536.531C841.817 537.408 838.395 537.759 835.062 537.496C833.571 537.408 832.079 537.145 830.676 536.794C830.676 536.794 830.5 536.794 830.413 536.794C820.5 534.338 812.078 526.794 809.096 516.267C804.622 500.652 813.745 484.336 829.36 479.862C833.658 478.634 837.957 478.458 842.08 479.072C843.22 479.248 844.273 479.511 845.326 479.774C854.449 482.318 862.168 489.336 865.326 498.898C865.326 499.073 865.414 499.161 865.502 499.337C865.502 499.6 865.677 499.775 865.677 500.038C870.151 515.653 861.028 531.97 845.413 536.356L845.501 536.444Z" fill="#03FC9D"/><path fill-rule="evenodd" clip-rule="evenodd" d="M822.954 497.231L848.832 494.073L849.534 499.6L823.656 502.758L822.954 497.231ZM840.586 510.565L842.341 524.864L836.814 525.566L835.06 511.267L840.586 510.565Z" fill="#003B2F"/><path fill-rule="evenodd" clip-rule="evenodd" d="M837.078 504.951C827.867 506.091 820.586 508.635 820.849 510.653C821.112 512.67 828.744 513.46 837.955 512.32C847.166 511.179 854.447 508.635 854.184 506.618C853.921 504.6 846.289 503.81 837.078 504.951ZM837.78 510.477C828.569 511.618 821.902 511.53 821.814 510.477C821.726 509.425 828.042 506.881 837.253 505.74C846.464 504.6 853.219 505.565 853.307 506.618C853.394 507.67 846.991 509.249 837.78 510.39V510.477Z" fill="#003B2F"/><path fill-rule="evenodd" clip-rule="evenodd" d="M839.36 500.915L840.413 509.249L834.886 509.951L833.834 501.617L839.36 500.915Z" fill="#003B2F"/><path d="M895.59 277.397H895.24C892.257 277.133 889.538 276.519 886.906 275.379C885.765 274.853 884.625 274.326 883.572 273.624H883.397C876.116 268.887 871.379 260.641 871.73 251.343C872.344 237.57 883.923 226.956 897.696 227.57C901.468 227.745 904.977 228.71 908.135 230.377C908.924 230.815 909.802 231.254 910.503 231.868C917.17 236.342 921.469 243.974 921.469 252.571V253.009C921.469 253.009 921.469 253.448 921.469 253.624C920.855 267.396 909.275 278.011 895.503 277.397H895.59Z" fill="#03FC9D"/><path d="M889.186 267.396C889.098 268.01 888.659 268.098 888.045 268.01C881.378 264.238 877.694 256.694 879.185 248.974C880.677 241.255 887.08 235.728 894.712 234.851C895.326 234.851 895.677 235.202 895.502 235.816L895.239 237.132C895.239 237.132 894.888 237.833 894.449 238.009C888.396 238.974 883.484 243.448 882.256 249.588C881.028 255.729 884.01 261.957 889.01 265.028C889.361 265.291 889.449 265.729 889.361 266.08L889.098 267.396H889.186Z" fill="#003B2F"/><path d="M895.94 263.712C895.94 263.712 895.414 264.413 894.975 264.326L893.396 263.975C893.396 263.975 892.694 263.448 892.782 263.01L893.221 260.729C890.238 259.764 889.01 257.659 888.922 255.027C888.922 254.676 889.273 254.325 889.624 254.413L891.379 254.764C891.379 254.764 891.905 255.115 891.993 255.466C892.08 256.869 892.607 258.185 895.151 258.711C897.081 259.062 898.66 258.448 898.923 256.869C899.186 255.29 898.572 254.588 895.94 253.623C891.993 252.22 890.326 250.641 890.94 247.395C891.466 244.851 893.747 243.36 896.554 243.535L896.993 241.254C896.993 241.254 897.519 240.553 897.958 240.64L899.537 240.991C899.537 240.991 900.239 241.518 900.151 241.956L899.712 244.237C901.993 245.114 903.221 246.781 903.221 248.974C903.221 249.325 902.87 249.676 902.52 249.588L900.94 249.237C900.94 249.237 900.414 248.886 900.326 248.535C900.239 247.132 899.361 246.342 897.607 245.991C895.677 245.641 894.537 246.342 894.273 247.746C894.01 249.149 894.449 250.027 897.256 250.992C901.204 252.395 902.87 253.974 902.256 257.22C901.73 259.764 899.361 261.431 896.379 261.431L895.94 263.712Z" fill="#003B2F"/><path d="M898.487 270.028C897.872 270.028 897.522 269.677 897.697 269.063L897.96 267.747C897.96 267.747 898.311 267.045 898.75 266.87C904.803 265.905 909.715 261.431 910.943 255.29C912.171 249.15 909.189 242.921 904.189 239.851C903.838 239.588 903.75 239.149 903.838 238.798L904.101 237.482C904.189 236.868 904.627 236.781 905.241 236.868C911.733 240.553 915.593 248.185 914.101 255.904C912.522 263.624 906.206 269.151 898.574 270.028H898.487Z" fill="#003B2F"/><path d="M1284.74 509.861L1265.82 490.942L1246.9 509.861L1265.82 528.78L1284.74 509.861Z" stroke="#003B2F" stroke-width="3" stroke-linecap="round" stroke-linejoin="round"/><path d="M458.466 544.163C468.689 544.163 476.976 535.876 476.976 525.654C476.976 515.431 468.689 507.144 458.466 507.144C448.244 507.144 439.957 515.431 439.957 525.654C439.957 535.876 448.244 544.163 458.466 544.163Z" stroke="#003B2F" stroke-width="3" stroke-linecap="round" stroke-linejoin="round"/><path d="M1262.45 84.4929H1320.35" stroke="#003B2F" stroke-width="3" stroke-linecap="round" stroke-linejoin="round"/><path d="M1218.5 84.4929H1233.06" stroke="#003B2F" stroke-width="3" stroke-linecap="round" stroke-linejoin="round"/><path d="M1284.29 49.3158H1434.3" stroke="#03FC9D" stroke-width="3" stroke-linecap="round" stroke-linejoin="round"/><path d="M210.56 192.217L315.477 192.217C327.008 192.217 336.355 182.87 336.355 171.339V171.251C336.355 159.721 327.008 150.373 315.477 150.373H210.56C199.029 150.373 189.682 159.721 189.682 171.251V171.339C189.682 182.87 199.029 192.217 210.56 192.217Z" fill="#E6E8EA"/><path d="M261.791 171.164L374.516 171.164C392.878 171.164 407.763 156.278 407.763 137.917V137.829C407.763 119.467 392.878 104.582 374.516 104.582L261.791 104.582C243.429 104.582 228.544 119.467 228.544 137.829V137.917C228.544 156.278 243.429 171.164 261.791 171.164Z" fill="#E6E8EA"/><path d="M403.201 649.958H455.747" stroke="#003B2F" stroke-width="3" stroke-linecap="round" stroke-linejoin="round"/><path d="M363.284 649.958H376.531" stroke="#003B2F" stroke-width="3" stroke-linecap="round" stroke-linejoin="round"/><path d="M1385.44 525.654H1526.23" stroke="#03FC9D" stroke-width="3" stroke-linecap="round" stroke-linejoin="round"/><path d="M1541.94 525.654H1581.15" stroke="#03FC9D" stroke-width="3" stroke-linecap="round" stroke-linejoin="round"/><path d="M1471.58 555.041H1612.29" stroke="#03FC9D" stroke-width="3" stroke-linecap="round" stroke-linejoin="round"/><path d="M1187.19 234.149L1209.38 246.869" stroke="#003B2F" stroke-width="3" stroke-linecap="round" stroke-linejoin="round"/><path d="M1231.48 234.149L1218.5 241.605" stroke="#003B2F" stroke-width="3" stroke-linecap="round" stroke-linejoin="round"/><path d="M1209.38 246.869V272.747" stroke="#003B2F" stroke-width="3" stroke-linecap="round" stroke-linejoin="round"/><path d="M1517.46 645.221H1474.83C1488.34 645.221 1499.3 634.255 1499.3 620.746C1499.3 607.236 1488.34 596.271 1474.83 596.271H1352.28C1338.77 596.271 1327.8 607.236 1327.8 620.746H1290.17C1276.66 620.746 1265.7 631.711 1265.7 645.221C1265.7 658.73 1276.66 669.695 1290.17 669.695H1370.44C1370.44 683.205 1381.4 694.17 1394.91 694.17H1517.46C1530.97 694.17 1541.94 683.205 1541.94 669.695C1541.94 656.186 1530.97 645.221 1517.46 645.221Z" fill="#E6E8EA"/><path d="M284.072 247.044H444.43" stroke="#03FC9D" stroke-width="3" stroke-linecap="round" stroke-linejoin="round"/><path d="M409.515 293.099H533.293" stroke="#003B2F" stroke-width="3" stroke-linecap="round" stroke-linejoin="round"/><path d="M878.398 359.944L886.205 379.068" stroke="#003B2F" stroke-width="3" stroke-linecap="round" stroke-linejoin="round"/><path d="M891.908 393.016L899.715 412.227" stroke="#003B2F" stroke-width="3" stroke-linecap="round" stroke-linejoin="round"/><path d="M862.961 396.7L882.084 388.893" stroke="#003B2F" stroke-width="3" stroke-linecap="round" stroke-linejoin="round"/><path d="M896.033 383.191L915.156 375.384" stroke="#003B2F" stroke-width="3" stroke-linecap="round" stroke-linejoin="round"/><path d="M1200.78 742.681H1413.86C1437.36 742.681 1456.41 723.652 1456.41 700.179C1456.41 676.706 1437.36 657.677 1413.86 657.677H1200.78C1177.28 657.677 1158.24 676.706 1158.24 700.179C1158.24 723.652 1177.28 742.681 1200.78 742.681Z" fill="#03FC9D"/><path d="M345.829 784.35H471.625C487.952 784.35 501.187 771.114 501.187 754.787V754.699C501.187 738.372 487.952 725.137 471.625 725.137H345.829C329.502 725.137 316.267 738.372 316.267 754.699V754.787C316.267 771.114 329.502 784.35 345.829 784.35Z" fill="#03FC9D"/><path d="M400.745 753.12H510.75C524.025 753.12 534.786 742.379 534.786 729.128C534.786 715.877 524.025 705.136 510.75 705.136H400.745C387.47 705.136 376.709 715.877 376.709 729.128C376.709 742.379 387.47 753.12 400.745 753.12Z" fill="#03FC9D"/><path d="M442.941 784.174H549.788C561.561 784.174 571.105 774.63 571.105 762.857C571.105 751.084 561.561 741.541 549.788 741.541H442.941C431.168 741.541 421.624 751.084 421.624 762.857C421.624 774.63 431.168 784.174 442.941 784.174Z" fill="#03FC9D"/></g><defs><clipPath id="clip0_237_497"><rect width="1675.05" height="857" fill="white" transform="translate(0.219727)"/></clipPath></defs></svg>