<svg width="1920" height="1080" viewBox="0 0 1920 1080" fill="none" xmlns="http://www.w3.org/2000/svg"><g clip-path="url(#clip0_794_1420)"><path d="M996.546 -60.6603L888.974 574.44L965.958 587.073L930.922 1144.16L941.409 1140.66L1048.98 505.56L971.996 492.928L1007.11 -64.156L996.625 -60.6603H996.546Z" fill="#03FC9D"/><path d="M895.648 615.197L840.194 460.434L826.211 458.13L826.926 450.821L862.439 451.297L894.774 450.821L895.489 457.971L878.726 460.513L918.37 577.221V585.007L960.794 460.513L942.919 457.971L943.634 450.821L966.594 451.297L987.012 450.821L987.489 458.13L972.791 460.434L920.515 608.523L895.727 615.197H895.648Z" fill="#003B2F"/><path d="M1032.54 615.356C1015.14 615.356 998.929 610.43 983.913 600.658L981.371 560.775H992.811L1003.14 586.199C1013.07 598.116 1024.03 604.074 1035.95 604.074C1044.05 604.074 1050.57 601.77 1055.57 597.162C1060.5 592.554 1063.04 586.437 1063.04 578.81C1063.04 572.851 1061.37 567.608 1057.96 563.079C1054.54 558.551 1049.14 554.261 1041.67 550.129L1012.36 533.128C1002.9 527.646 995.751 521.926 990.905 515.888C986.058 509.929 983.675 502.461 983.675 493.404C983.675 469.57 1002.74 454.078 1041.04 446.848C1057.24 446.848 1072.66 450.344 1087.35 457.415V496.185H1077.5L1066.7 468.934C1059.07 460.99 1050.25 457.017 1040.32 457.017C1032.38 457.017 1026.1 459.004 1021.41 462.976C1016.73 466.948 1014.42 472.271 1014.42 479.024C1014.42 484.347 1016.01 489.035 1019.27 492.928C1022.45 496.82 1027.37 500.634 1033.97 504.288L1063.52 521.29C1074.4 527.408 1082.11 533.604 1086.8 539.96C1091.48 546.316 1093.79 554.181 1093.79 563.715C1093.79 588.82 1073.37 605.981 1032.54 615.276V615.356Z" fill="#003B2F"/><path d="M116.358 793.978L112.646 711.967C113.931 711.824 147.121 728.669 157.756 727.67C168.391 726.67 172.317 724.386 182.524 720.389C192.73 716.392 200.082 710.753 234.271 706.257C268.461 701.76 289.874 679.919 289.874 679.919C289.874 679.919 308.075 665.429 320.066 665.429C332.057 665.429 330.13 682.488 325.633 687.413C321.137 692.338 276.098 726.884 276.098 726.884L281.451 739.589L116.358 793.978Z" fill="#E6E8EA"/><path d="M375.524 705.471L377.808 699.404C380.377 686.485 398.864 677.706 403.218 679.847C407.572 681.989 404.788 691.196 404.788 691.196L388.3 737.805C388.3 737.805 374.596 773.279 368.172 777.99C361.748 782.701 332.127 791.694 317.78 800.759C303.505 809.824 291.514 812.251 285.518 812.251C279.522 812.251 223.92 798.903 216.64 799.617C209.359 800.331 112.145 793.764 112.145 793.764L267.959 742.516L290.229 757.933L374.596 750.01L375.452 705.471H375.524Z" fill="#E6E8EA"/><path d="M260.461 710.896C260.461 710.896 268.741 716.749 277.949 733.951C287.156 751.152 296.935 750.224 296.935 750.224L327.341 752.937L353.965 734.236C353.965 734.236 371.166 706.542 378.518 703.401C385.87 700.261 395.149 699.404 393.079 706.114C391.009 712.823 375.092 737.805 373.736 740.517C372.38 743.23 354.964 772.708 345.685 776.991C336.406 781.273 296.435 790.623 296.435 790.623L260.461 710.825V710.896Z" fill="#E6E8EA"/><path d="M177.385 722.459C177.385 722.459 200.511 717.534 225.422 726.956C250.332 736.449 272.459 750.367 287.876 750.581C303.293 750.795 327.276 752.865 327.276 752.865L177.314 722.388L177.385 722.459Z" fill="#E6E8EA"/><path d="M391.625 728.257C391.625 728.257 409.113 711.769 412.753 710.056C416.393 708.343 428.598 700.348 437.877 706.63C437.877 706.63 442.374 708.842 426.957 723.403C411.468 737.964 395.051 753.453 395.051 753.453L374.566 768.442L391.554 728.185L391.625 728.257Z" fill="#E6E8EA"/><path d="M321.846 798.332C321.846 798.332 363.101 791.266 367.955 789.41C372.809 787.554 421.273 758.861 425.342 753.222C429.41 747.583 427.697 743.872 423.985 743.444C420.274 743.015 415.706 739.589 407.141 742.088L321.846 798.332Z" fill="#E6E8EA"/><path d="M154.976 737.662C146.34 737.662 127.425 729.24 117.075 724.601C114.078 723.244 111.294 722.031 110.794 721.888C110.223 721.888 109.795 721.531 109.724 720.96C109.652 720.389 110.152 719.818 110.723 719.747C111.294 719.747 111.865 719.89 117.932 722.602C127.782 727.027 148.41 736.164 155.833 735.45C164.469 734.593 168.681 732.952 175.604 730.097C177.032 729.526 178.602 728.883 180.315 728.241C182.171 727.527 183.955 726.742 185.811 725.885C194.019 722.245 204.297 717.677 232.277 713.965C265.681 709.54 287.094 688.127 287.308 687.913C288.165 687.199 305.937 673.138 318.214 673.138H318.286C323.639 673.138 326.137 676.207 327.208 678.777C329.706 684.487 327.85 693.338 324.638 696.907C320.141 701.832 276.816 735.093 274.96 736.449C274.532 736.806 273.818 736.735 273.461 736.235C273.104 735.735 273.176 735.093 273.675 734.736C274.104 734.379 318.714 700.19 323.068 695.408C325.852 692.338 327.422 684.487 325.281 679.562C323.996 676.636 321.64 675.208 318.286 675.208H318.214C306.723 675.208 288.95 689.269 288.736 689.412C288.593 689.555 266.68 711.467 232.562 715.964C204.868 719.604 194.733 724.101 186.667 727.67C184.812 728.526 182.956 729.311 181.1 730.025C179.387 730.668 177.817 731.31 176.389 731.881C169.252 734.736 164.969 736.52 156.047 737.377C155.69 737.377 155.333 737.377 154.976 737.377V737.662Z" fill="#003B2F"/><path d="M283.666 822.101C280.953 822.101 269.462 819.674 256.114 816.89C239.555 813.393 219.07 809.11 214.93 809.467C207.578 810.109 114.218 803.9 110.292 803.614C109.721 803.614 109.222 803.043 109.293 802.472C109.293 801.901 109.793 801.473 110.364 801.473C111.363 801.473 207.578 808.111 214.716 807.326C219.141 806.969 238.127 810.895 256.543 814.749C269.248 817.39 281.239 819.959 283.666 819.959C290.304 819.959 302.152 816.962 315.357 808.611C323.422 803.543 335.985 798.546 347.048 794.192C355.542 790.838 362.893 787.911 365.677 785.913C370.745 782.201 381.665 756.006 385.448 746.227L401.936 699.619C402.65 697.335 403.864 690.982 400.937 689.555C399.795 689.055 396.583 689.412 392.158 691.625C385.877 694.765 378.596 700.761 377.097 708.398L374.742 714.679C374.528 715.25 373.957 715.536 373.386 715.321C372.815 715.107 372.529 714.465 372.743 713.965L375.027 707.898C376.669 699.69 384.449 693.195 391.23 689.84C395.869 687.556 399.866 686.771 401.936 687.77C407.076 690.268 404.149 699.976 404.078 700.404L387.518 747.084C386.947 748.583 373.6 782.915 367.033 787.769C364.036 789.91 356.612 792.908 347.904 796.334C336.912 800.688 324.493 805.613 316.57 810.609C303.009 819.246 290.732 822.315 283.737 822.315L283.666 822.101Z" fill="#003B2F"/><path d="M294.661 800.545C294.161 800.545 293.733 800.188 293.59 799.688C293.447 799.117 293.804 798.546 294.375 798.404C294.803 798.332 334.275 789.053 343.411 784.842C352.047 780.845 369.32 752.223 370.962 748.868C371.39 748.012 372.961 745.442 375.102 741.802C380.17 733.38 388.735 719.247 390.162 714.608C390.805 712.609 390.091 711.967 389.877 711.753C388.164 710.182 382.525 710.825 377.1 713.18C371.39 715.678 357.829 735.949 353.047 743.586C353.047 743.729 352.904 743.801 352.761 743.872L326.138 762.573C326.138 762.573 325.709 762.787 325.424 762.787L295.018 760.074C295.018 760.074 284.668 760.788 275.175 743.23C266.181 726.527 252.12 718.676 251.978 718.533C251.478 718.248 251.264 717.605 251.549 717.106C251.835 716.606 252.477 716.392 252.977 716.677C253.548 717.034 267.752 724.957 277.031 742.23C285.739 758.433 294.875 757.933 295.018 757.933L325.21 760.574L351.334 742.23C352.975 739.589 368.964 714.322 376.244 711.181C381.74 708.826 388.449 707.613 391.304 710.111C392.232 710.896 393.089 712.466 392.232 715.179C390.733 720.104 382.454 733.808 376.958 742.873C374.888 746.299 373.246 749.011 372.889 749.796C371.89 751.866 354.189 782.201 344.339 786.769C335.06 791.052 296.516 800.117 294.946 800.473C294.875 800.473 294.803 800.473 294.732 800.473L294.661 800.545Z" fill="#003B2F"/><path d="M325.563 762.858C325.563 762.858 325.563 762.858 325.491 762.858C325.277 762.858 301.438 760.717 286.163 760.574C275.885 760.431 263.108 754.507 248.262 747.726C240.268 744.015 231.988 740.232 223.28 736.949C199.012 727.741 176.029 732.452 175.815 732.452C175.173 732.595 174.673 732.166 174.53 731.595C174.388 731.024 174.744 730.453 175.387 730.311C175.601 730.311 199.155 725.386 224.066 734.879C232.845 738.233 241.124 742.016 249.19 745.728C263.751 752.437 276.384 758.29 286.163 758.433C301.438 758.647 325.42 760.717 325.634 760.788C326.205 760.788 326.633 761.359 326.633 761.93C326.633 762.501 326.134 762.93 325.563 762.93V762.858Z" fill="#003B2F"/><path d="M372.815 778.347C372.815 778.347 372.172 778.204 371.958 777.919C371.601 777.419 371.744 776.777 372.172 776.42L392.657 761.431C392.657 761.431 409.002 745.942 424.42 731.453C434.555 721.96 435.626 718.105 435.626 716.892C435.626 716.464 435.483 716.392 435.483 716.392C427.846 711.253 417.925 716.464 413.214 718.962C412.5 719.319 411.858 719.676 411.429 719.89C408.503 721.246 395.37 733.309 390.516 737.877C390.088 738.305 389.374 738.234 389.017 737.877C388.589 737.449 388.66 736.735 389.017 736.378C390.802 734.665 406.718 719.747 410.43 717.963C410.858 717.749 411.429 717.463 412.143 717.106C417.282 714.394 427.917 708.755 436.625 714.608C436.625 714.608 437.482 715.108 437.696 716.392C438.195 719.604 434.198 725.243 425.847 733.095C410.359 747.655 393.942 763.144 393.942 763.144L373.386 778.276C373.386 778.276 372.957 778.49 372.743 778.49L372.815 778.347Z" fill="#003B2F"/><path d="M320.066 808.254C319.567 808.254 319.067 807.897 318.996 807.397C318.924 806.826 319.281 806.255 319.852 806.184C320.281 806.184 361.037 799.118 365.747 797.333C370.458 795.549 418.78 766.927 422.634 761.502C424.49 758.861 425.204 756.506 424.49 755.007C424.133 754.151 423.205 753.58 421.992 753.437C420.85 753.294 419.708 752.937 418.495 752.58C415.354 751.581 411.5 750.368 405.575 752.081C405.004 752.223 404.433 751.938 404.219 751.367C404.077 750.796 404.362 750.225 404.933 750.011C411.428 748.155 415.854 749.511 419.066 750.582C420.279 750.939 421.278 751.295 422.206 751.367C424.133 751.581 425.704 752.58 426.417 754.151C427.417 756.435 426.703 759.504 424.348 762.787C420.065 768.854 370.815 797.69 366.461 799.403C361.536 801.259 321.851 808.04 320.138 808.397C320.138 808.397 319.995 808.397 319.924 808.397L320.066 808.254Z" fill="#003B2F"/><path d="M287.377 727.67C333.262 727.67 370.459 690.473 370.459 644.588C370.459 598.703 333.262 561.505 287.377 561.505C241.492 561.505 204.294 598.703 204.294 644.588C204.294 690.473 241.492 727.67 287.377 727.67Z" fill="white"/><path d="M301.792 727.671C347.677 727.671 384.874 690.473 384.874 644.588C384.874 598.703 347.677 561.506 301.792 561.506C255.907 561.506 218.71 598.703 218.71 644.588C218.71 690.473 255.907 727.671 301.792 727.671Z" fill="#03FC9D"/><path d="M286.801 725.957C268.529 725.957 250.899 720.033 236.124 708.827C218.209 695.265 206.646 675.494 203.576 653.225C200.507 630.955 206.289 608.828 219.922 590.913C233.483 572.997 253.254 561.434 275.524 558.365C321.562 552.013 364.031 584.346 370.383 630.313C376.664 676.279 344.402 718.82 298.436 725.172C294.581 725.743 290.656 725.957 286.801 725.957ZM287.016 559.721C283.304 559.721 279.592 560.007 275.809 560.507C254.111 563.504 234.839 574.782 221.635 592.198C208.359 609.685 202.72 631.241 205.718 652.939C208.716 674.638 219.993 693.909 237.409 707.114C254.896 720.318 276.452 725.957 298.15 723.031C342.975 716.892 374.38 675.423 368.242 630.598C362.603 589.557 327.343 559.721 287.016 559.721Z" fill="#003B2F"/><path d="M302.5 698.049C302.5 699.976 300.573 701.903 298.646 701.903H290.937C289.01 701.903 287.083 699.976 287.083 698.049V686.486C271.665 684.559 263.957 675.922 261.102 663.36C261.102 661.433 262.101 659.505 263.957 659.505H272.593C274.52 659.505 275.448 660.433 276.447 662.361C278.375 669.07 282.229 674.851 294.72 674.851C304.356 674.851 311.065 670.069 311.065 662.361C311.065 654.652 307.211 651.797 293.721 649.87C273.521 647.015 263.885 641.233 263.885 624.817C263.885 612.326 273.521 602.69 287.011 600.763V589.2C287.011 587.273 288.938 585.345 290.866 585.345H298.574C300.501 585.345 302.429 587.273 302.429 589.2V600.763C313.992 602.69 321.7 609.399 323.627 620.034C323.627 621.961 322.699 623.889 320.772 623.889H313.064C311.136 623.889 310.209 622.889 309.209 621.034C307.282 614.324 302.5 611.398 293.792 611.398C284.156 611.398 279.374 616.18 279.374 622.961C279.374 629.741 282.229 633.524 296.718 635.452C316.918 638.307 326.554 644.088 326.554 660.505C326.554 672.996 316.918 683.631 302.5 686.486V698.049Z" fill="#003B2F"/><path d="M766.495 350.574C766.138 350.574 765.71 350.574 765.353 350.574C756.003 349.646 751.506 347.862 744.083 344.864C742.584 344.293 741.014 343.651 739.229 342.937C737.231 342.152 735.375 341.367 733.448 340.439C724.954 336.656 714.462 332.016 685.554 328.233C649.937 323.522 627.097 300.682 626.883 300.396C626.812 300.396 608.254 285.622 596.191 285.622H596.12C592.551 285.622 590.124 287.192 588.768 290.261C586.555 295.4 588.125 303.608 591.052 306.82C595.62 311.817 642.157 347.505 642.586 347.862C643.085 348.219 643.157 348.861 642.8 349.361C642.443 349.86 641.729 349.932 641.301 349.575C639.374 348.076 594.121 313.458 589.482 308.319C586.127 304.679 584.2 295.4 586.841 289.476C587.983 286.835 590.552 283.623 596.12 283.552H596.191C608.967 283.552 627.525 298.255 628.31 298.898C628.596 299.183 651.008 321.595 685.84 326.163C715.104 330.018 725.739 334.8 734.376 338.583C736.303 339.439 738.159 340.225 740.086 341.01C741.87 341.723 743.512 342.366 745.011 342.937C752.22 345.863 756.645 347.648 765.639 348.504C773.49 349.147 794.903 339.725 805.181 335.085C811.462 332.302 812.105 332.016 812.747 332.088C813.318 332.159 813.746 332.73 813.675 333.301C813.675 333.801 813.175 334.229 812.676 334.229C812.033 334.372 809.178 335.656 806.109 337.013C795.331 341.866 775.631 350.646 766.567 350.646L766.495 350.574Z" fill="#003B2F"/><path d="M632.17 438.653C624.89 438.653 612.113 435.441 597.981 426.447C589.773 421.237 576.782 416.098 565.29 411.601C556.297 408.032 548.446 404.963 545.376 402.679C538.453 397.611 524.606 361.852 524.035 360.282L506.762 311.603C506.619 311.103 503.621 301.039 508.903 298.47C511.044 297.47 515.184 298.255 520.038 300.682C527.104 304.18 535.241 311.032 536.954 319.668L539.309 325.878C539.524 326.449 539.238 327.02 538.667 327.234C538.096 327.448 537.525 327.163 537.311 326.592L534.955 320.239C533.314 312.102 525.748 305.821 519.11 302.538C514.47 300.254 511.044 299.754 509.902 300.397C506.833 301.896 508.118 308.534 508.832 310.96L526.033 359.568C529.959 369.775 541.379 397.112 546.661 400.966C549.516 403.036 557.225 406.105 566.076 409.603C577.639 414.171 590.701 419.31 599.123 424.663C612.899 433.371 625.247 436.512 632.17 436.512C634.74 436.512 647.231 433.871 660.507 431.087C679.778 427.019 699.692 422.879 704.118 423.307C711.541 424.092 811.967 417.311 812.967 417.24C813.466 417.24 814.037 417.668 814.109 418.239C814.109 418.81 813.681 419.31 813.109 419.381C808.97 419.667 711.398 426.233 703.904 425.448C699.621 425.091 678.208 429.588 660.935 433.157C647.016 436.083 635.025 438.581 632.17 438.581V438.653Z" fill="#003B2F"/><path d="M620.743 416.169C620.743 416.169 620.6 416.169 620.529 416.169C618.816 415.741 578.631 406.319 568.995 401.894C558.645 397.112 540.23 365.492 539.231 363.351C538.874 362.566 537.161 359.71 534.948 356.142C529.238 346.72 520.602 332.445 519.031 327.306C518.175 324.45 519.031 322.88 520.031 322.024C522.957 319.383 530.023 320.668 535.662 323.166C543.228 326.449 559.93 352.858 561.643 355.571L588.909 374.7L620.243 371.916C620.243 371.916 630.093 372.487 639.229 355.499C648.865 337.512 663.711 329.233 664.282 328.876C664.854 328.59 665.496 328.804 665.71 329.304C665.996 329.804 665.781 330.446 665.282 330.732C665.139 330.803 650.435 339.083 641.085 356.499C631.235 374.914 620.671 374.057 620.243 374.057L588.695 376.841C588.695 376.841 588.195 376.841 587.981 376.627L560.216 357.141C560.216 357.141 560.002 356.927 559.93 356.855C555.005 348.861 540.801 327.662 534.806 325.093C529.095 322.666 523.243 321.952 521.458 323.594C521.173 323.808 520.459 324.522 521.101 326.663C522.6 331.517 531.522 346.22 536.804 355C539.088 358.783 540.73 361.566 541.158 362.423C542.871 365.92 560.858 395.827 569.923 399.967C579.416 404.321 620.672 414.028 621.1 414.099C621.671 414.242 622.028 414.813 621.885 415.384C621.742 415.884 621.314 416.241 620.814 416.241L620.743 416.169Z" fill="#003B2F"/><path d="M588.559 376.769C587.988 376.769 587.56 376.341 587.488 375.77C587.488 375.199 587.845 374.628 588.488 374.628C588.773 374.628 613.683 372.415 629.672 372.201C639.879 372.058 653.083 365.991 668.286 358.996C676.638 355.142 685.345 351.145 694.482 347.647C720.463 337.798 745.016 342.865 745.23 342.865C745.801 343.008 746.158 343.579 746.087 344.15C745.944 344.721 745.373 345.078 744.802 345.007C744.588 345.007 720.605 340.01 695.267 349.646C686.202 353.072 677.565 357.069 669.214 360.924C653.726 368.061 640.378 374.2 629.672 374.342C613.755 374.556 588.916 376.769 588.63 376.769C588.63 376.769 588.63 376.769 588.559 376.769Z" fill="#003B2F"/><path d="M539.164 393.043C539.164 393.043 538.735 393.043 538.521 392.829L517.18 377.126C517.18 377.126 499.978 360.852 483.847 345.649C475.139 337.441 470.999 331.588 471.499 328.304C471.713 326.948 472.498 326.52 472.712 326.449C481.634 320.453 492.698 326.306 498.051 329.161C498.765 329.518 499.407 329.875 499.835 330.089C503.69 331.873 520.32 347.505 522.176 349.289C522.604 349.717 522.604 350.36 522.176 350.788C521.748 351.216 521.105 351.216 520.677 350.788C515.61 346.006 501.905 333.372 498.907 332.016C498.408 331.802 497.765 331.445 497.052 331.088C492.055 328.447 481.706 323.023 473.783 328.376C473.783 328.376 473.64 328.519 473.64 328.947C473.64 330.232 474.782 334.229 485.346 344.221C501.477 359.425 518.607 375.627 518.607 375.627L539.878 391.187C540.377 391.544 540.449 392.186 540.092 392.686C539.878 392.971 539.521 393.114 539.235 393.114L539.164 393.043Z" fill="#003B2F"/><path d="M594.267 424.163C594.267 424.163 594.124 424.163 594.052 424.163C592.268 423.878 550.87 416.812 545.731 414.813C541.163 413.029 489.843 382.979 485.346 376.627C482.919 373.201 482.134 369.989 483.205 367.633C483.919 365.992 485.489 364.921 487.559 364.707C488.487 364.635 489.557 364.278 490.842 363.85C494.197 362.78 498.836 361.352 505.617 363.279C506.188 363.422 506.545 364.064 506.331 364.635C506.188 365.206 505.546 365.492 504.975 365.349C498.765 363.565 494.696 364.849 491.485 365.92C490.2 366.348 488.986 366.705 487.844 366.848C486.56 366.991 485.632 367.562 485.203 368.49C484.49 370.06 485.203 372.558 487.202 375.342C491.27 381.052 541.662 410.816 546.587 412.743C551.512 414.67 594.124 421.879 594.552 421.951C595.123 422.022 595.551 422.593 595.409 423.164C595.337 423.664 594.838 424.021 594.338 424.021L594.267 424.163Z" fill="#003B2F"/><path d="M614.183 339.797C662.079 339.797 700.906 300.97 700.906 253.075C700.906 205.179 662.079 166.352 614.183 166.352C566.288 166.352 527.461 205.179 527.461 253.075C527.461 300.97 566.288 339.797 614.183 339.797Z" fill="white"/><path d="M629.239 339.797C677.135 339.797 715.961 300.97 715.961 253.075C715.961 205.179 677.135 166.352 629.239 166.352C581.344 166.352 542.517 205.179 542.517 253.075C542.517 300.97 581.344 339.797 629.239 339.797Z" fill="#03FC9D"/><path d="M613.611 337.941C594.554 337.941 576.138 331.803 560.721 320.097C542.02 305.893 529.958 285.336 526.817 262.068C523.677 238.799 529.672 215.744 543.805 197.044C558.009 178.343 578.565 166.281 601.834 163.14C625.103 159.928 648.157 165.995 666.858 180.128C685.558 194.26 697.621 214.888 700.762 238.085C707.328 286.05 673.71 330.446 625.745 337.013C621.677 337.584 617.608 337.869 613.611 337.869V337.941ZM613.968 164.496C610.042 164.496 606.117 164.782 602.119 165.281C579.422 168.422 559.365 180.128 545.518 198.4C531.671 216.601 525.818 239.156 528.887 261.782C532.028 284.48 543.733 304.537 562.006 318.384C580.207 332.231 602.762 338.084 625.388 335.014C648.086 331.874 668.143 320.168 681.99 301.896C695.837 283.623 701.69 261.14 698.62 238.513C695.48 215.816 683.774 195.759 665.502 181.912C650.441 170.492 632.526 164.496 613.897 164.496H613.968Z" fill="#003B2F"/><path d="M646.162 241.868C653.014 238.513 657.297 232.732 656.44 223.239C655.298 210.319 643.378 206.251 628.318 205.323L628.603 187.408L616.898 187.622L616.684 205.109C613.614 205.18 610.474 205.323 607.333 205.394L607.619 187.764L595.913 188.05L595.628 205.965C593.058 206.037 590.631 206.18 588.133 206.18L572.002 206.465L571.859 218.171C571.859 218.171 580.496 217.814 580.353 217.957C585.135 217.885 586.634 220.384 587.062 222.596L586.777 243.081C586.777 243.081 587.562 243.081 588.062 243.081C587.633 243.081 587.276 243.081 586.777 243.081L586.349 271.703C586.134 273.131 585.207 275.343 581.852 275.415C581.852 275.558 573.358 275.558 573.358 275.558L570.86 288.691L586.063 288.405C586.92 288.405 587.776 288.405 588.561 288.405C590.56 288.405 592.487 288.405 594.414 288.334L594.129 306.464L605.834 306.249L606.12 288.263C607.405 288.263 608.689 288.263 609.974 288.263C611.83 288.263 613.686 288.263 615.47 288.191V291.189L615.185 306.107L626.89 305.893L627.033 298.969L627.176 287.763C646.876 286.264 660.723 281.339 662.721 264.066C664.292 250.147 657.368 244.08 646.305 241.796L646.162 241.868ZM607.333 218.314C613.9 218.171 634.742 215.744 634.528 228.663C634.314 241.011 613.614 240.012 606.976 240.155L607.262 218.314H607.333ZM606.477 275.201L606.834 251.147C614.756 251.004 639.667 248.292 639.453 262.496C639.239 276.057 614.399 275.058 606.405 275.272L606.477 275.201Z" fill="#003B2F"/><path d="M184.769 574.465C184.769 574.465 184.769 574.465 184.657 574.544C184.211 574.856 183.563 574.644 183.306 574.158C118.342 457.537 160.234 309.894 276.871 244.835C284.843 240.421 293.144 236.359 301.59 232.861C360.39 208.269 427.831 208.15 486.748 232.456C487.245 232.69 487.485 233.271 487.345 233.785C487.15 234.337 486.53 234.521 485.978 234.326C427.613 210.216 360.702 210.379 302.388 234.715C294.037 238.229 285.808 242.157 277.931 246.588C162.299 310.944 120.703 457.465 185.115 573.059C185.428 573.505 185.232 574.058 184.786 574.371L184.769 574.465Z" fill="#003B2F"/><path d="M185.54 577.585C185.54 577.585 185.372 577.702 185.261 577.78C184.998 577.881 184.714 577.831 184.446 577.685L118.164 537.743C117.684 537.414 117.539 536.85 117.829 536.314C118.103 535.873 118.723 535.689 119.258 535.98L184.603 575.414L218.595 508.472C218.829 507.975 219.449 507.791 219.946 508.025C220.442 508.26 220.626 508.88 220.392 509.376L185.892 577.256C185.892 577.256 185.691 577.563 185.579 577.641L185.54 577.585Z" fill="#003B2F"/><path d="M636.576 807.846C629.765 812.611 622.663 817.081 615.289 821.16C607.317 825.573 599.016 829.635 590.569 833.133C531.77 857.725 464.329 857.844 405.412 833.538C404.915 833.304 404.675 832.723 404.815 832.21C405.01 831.657 405.63 831.473 406.182 831.669C464.547 855.779 531.457 855.615 589.772 831.28C598.123 827.765 606.352 823.837 614.229 819.407C729.822 754.995 771.457 608.529 707.045 492.935C706.732 492.489 706.889 491.88 707.486 491.546C707.933 491.233 708.58 491.445 708.837 491.931C740.295 548.422 747.928 613.765 730.236 675.955C714.857 730.04 681.964 776.089 636.52 807.885L636.576 807.846Z" fill="#003B2F"/><path d="M774.154 530.137C773.819 530.371 773.423 530.399 773.021 530.181L707.677 490.747L673.685 557.689C673.45 558.186 672.831 558.37 672.334 558.135C671.837 557.901 671.653 557.281 671.888 556.784L706.388 488.905C706.388 488.905 706.756 488.48 707.058 488.436C707.32 488.335 707.605 488.386 707.873 488.531L774.194 528.529C774.674 528.858 774.819 529.422 774.529 529.958C774.417 530.036 774.344 530.17 774.233 530.248L774.154 530.137Z" fill="#003B2F"/><path d="M830.397 98.2643H723.302C711.529 98.2643 701.985 107.808 701.985 119.581V119.666C701.985 131.439 711.529 140.983 723.302 140.983H830.397C842.17 140.983 851.714 131.439 851.714 119.666V119.581C851.714 107.808 842.17 98.2643 830.397 98.2643Z" fill="#03FC9D"/><path d="M867.657 140.983H760.561C748.788 140.983 739.245 150.527 739.245 162.3V162.385C739.245 174.158 748.788 183.702 760.561 183.702H867.657C879.43 183.702 888.974 174.158 888.974 162.385V162.3C888.974 150.527 879.43 140.983 867.657 140.983Z" fill="#03FC9D"/><path d="M776.166 119.581H669.071C657.298 119.581 647.754 129.125 647.754 140.898V140.983C647.754 152.756 657.298 162.3 669.071 162.3H776.166C787.939 162.3 797.483 152.756 797.483 140.983V140.898C797.483 129.125 787.939 119.581 776.166 119.581Z" fill="#03FC9D"/><path d="M842.08 137.402C841.398 137.402 840.801 136.805 840.801 136.123V122.992C840.801 122.309 841.398 121.713 842.08 121.713C842.762 121.713 843.359 122.309 843.359 122.992V136.123C843.359 136.805 842.762 137.402 842.08 137.402Z" fill="#003B2F"/><path d="M842.08 160.082C841.398 160.082 840.801 159.485 840.801 158.803V145.672C840.801 144.99 841.398 144.393 842.08 144.393C842.762 144.393 843.359 144.99 843.359 145.672V158.803C843.359 159.485 842.762 160.082 842.08 160.082Z" fill="#003B2F"/><path d="M837.301 142.261H824.17C823.487 142.261 822.891 141.665 822.891 140.982C822.891 140.3 823.487 139.703 824.17 139.703H837.301C837.983 139.703 838.58 140.3 838.58 140.982C838.58 141.665 837.983 142.261 837.301 142.261Z" fill="#003B2F"/><path d="M859.982 142.261H846.851C846.169 142.261 845.572 141.665 845.572 140.982C845.572 140.3 846.169 139.703 846.851 139.703H859.982C860.665 139.703 861.261 140.3 861.261 140.982C861.261 141.665 860.665 142.261 859.982 142.261Z" fill="#003B2F"/><path d="M826.046 664.919C826.046 664.919 825.364 664.833 825.108 664.578L812.147 651.617C811.636 651.105 811.636 650.338 812.147 649.826C812.659 649.315 813.426 649.315 813.938 649.826L826.899 662.787C827.41 663.299 827.41 664.066 826.899 664.578C826.643 664.833 826.302 664.919 825.961 664.919H826.046Z" fill="#003B2F"/><path d="M848.47 687.344C848.47 687.344 847.788 687.258 847.532 687.003L834.572 674.042C834.06 673.53 834.06 672.763 834.572 672.251C835.083 671.74 835.851 671.74 836.362 672.251L849.323 685.212C849.834 685.724 849.834 686.491 849.323 687.003C849.067 687.258 848.726 687.344 848.385 687.344H848.47Z" fill="#003B2F"/><path d="M813.085 687.344C813.085 687.344 812.403 687.258 812.147 687.003C811.636 686.491 811.636 685.724 812.147 685.212L825.108 672.251C825.62 671.74 826.387 671.74 826.899 672.251C827.41 672.763 827.41 673.53 826.899 674.042L813.938 687.003C813.938 687.003 813.341 687.344 813 687.344H813.085Z" fill="#003B2F"/><path d="M835.51 664.919C835.51 664.919 834.827 664.834 834.572 664.578C834.06 664.066 834.06 663.299 834.572 662.787L847.532 649.826C848.044 649.315 848.811 649.315 849.323 649.826C849.834 650.338 849.834 651.105 849.323 651.617L836.362 664.578C836.362 664.578 835.765 664.919 835.424 664.919H835.51Z" fill="#003B2F"/><path d="M525.456 599.819H508.573C507.891 599.819 507.294 599.222 507.294 598.54C507.294 597.858 507.891 597.261 508.573 597.261H525.456C526.138 597.261 526.735 597.858 526.735 598.54C526.735 599.222 526.138 599.819 525.456 599.819Z" fill="#003B2F"/><path d="M596.226 642.794H473.782C473.1 642.794 472.503 642.197 472.503 641.515C472.503 640.832 473.1 640.236 473.782 640.236H596.226C596.908 640.236 597.505 640.832 597.505 641.515C597.505 642.197 596.908 642.794 596.226 642.794Z" fill="#03FC9D"/><path d="M486.658 599.904H418.188C417.506 599.904 416.909 599.307 416.909 598.625C416.909 597.943 417.506 597.346 418.188 597.346H486.658C487.34 597.346 487.937 597.943 487.937 598.625C487.937 599.307 487.34 599.904 486.658 599.904Z" fill="#003B2F"/><path d="M192.337 941.305H273.013C281.903 941.305 289.11 934.098 289.11 925.208C289.11 916.318 281.903 909.111 273.013 909.111H192.337C183.447 909.111 176.24 916.318 176.24 925.208C176.24 934.098 183.447 941.305 192.337 941.305Z" fill="#E6E8EA"/><path d="M233.917 983.655H362.245C376.391 983.655 387.859 972.187 387.859 958.04C387.859 943.894 376.391 932.426 362.245 932.426H233.917C219.771 932.426 208.303 943.894 208.303 958.04C208.303 972.187 219.771 983.655 233.917 983.655Z" fill="#03FC9D"/><path d="M305.117 924.981C305.117 924.981 304.435 924.896 304.179 924.64L291.815 912.277C291.304 911.765 291.304 910.998 291.815 910.486C292.327 909.974 293.094 909.974 293.606 910.486L305.97 922.85C306.481 923.361 306.481 924.129 305.97 924.64C305.714 924.896 305.373 924.981 305.032 924.981H305.117Z" fill="#003B2F"/><path d="M326.602 946.383C326.602 946.383 325.92 946.298 325.664 946.042L313.3 933.678C312.789 933.167 312.789 932.399 313.3 931.888C313.812 931.376 314.579 931.376 315.091 931.888L327.454 944.251C327.966 944.763 327.966 945.53 327.454 946.042C327.199 946.298 326.858 946.383 326.517 946.383H326.602Z" fill="#003B2F"/><path d="M292.753 946.383C292.753 946.383 292.071 946.298 291.815 946.042C291.304 945.53 291.304 944.763 291.815 944.251L304.179 931.888C304.691 931.376 305.458 931.376 305.97 931.888C306.481 932.399 306.481 933.167 305.97 933.678L293.606 946.042C293.606 946.042 293.009 946.383 292.668 946.383H292.753Z" fill="#003B2F"/><path d="M314.238 924.981C314.238 924.981 313.556 924.896 313.3 924.64C312.789 924.129 312.789 923.361 313.3 922.85L325.664 910.486C326.176 909.974 326.943 909.974 327.454 910.486C327.966 910.998 327.966 911.765 327.454 912.277L315.091 924.64C315.091 924.64 314.494 924.981 314.153 924.981H314.238Z" fill="#003B2F"/><path d="M731.311 897.496H714.428C713.746 897.496 713.149 896.899 713.149 896.217C713.149 895.534 713.746 894.938 714.428 894.938H731.311C731.993 894.938 732.59 895.534 732.59 896.217C732.59 896.899 731.993 897.496 731.311 897.496Z" fill="#003B2F"/><path d="M766.101 854.521H643.657C642.975 854.521 642.378 853.924 642.378 853.242C642.378 852.56 642.975 851.963 643.657 851.963H766.101C766.783 851.963 767.38 852.56 767.38 853.242C767.38 853.924 766.783 854.521 766.101 854.521Z" fill="#03FC9D"/><path d="M821.611 897.41H753.142C752.46 897.41 751.863 896.813 751.863 896.131C751.863 895.449 752.46 894.852 753.142 894.852H821.611C822.293 894.852 822.89 895.449 822.89 896.131C822.89 896.813 822.293 897.41 821.611 897.41Z" fill="#003B2F"/><path d="M140.567 189.926H123.684C123.002 189.926 122.405 189.329 122.405 188.647C122.405 187.965 123.002 187.368 123.684 187.368H140.567C141.249 187.368 141.846 187.965 141.846 188.647C141.846 189.329 141.249 189.926 140.567 189.926Z" fill="#003B2F"/><path d="M52.9138 146.951C52.2316 146.951 51.6348 146.354 51.6348 145.672C51.6348 144.99 52.2316 144.393 52.9138 144.393H175.358C176.04 144.393 176.637 144.99 176.637 145.672C176.637 146.354 176.04 146.951 175.358 146.951H52.9138Z" fill="#03FC9D"/><path d="M230.868 189.755H162.398C161.716 189.755 161.119 189.158 161.119 188.476C161.119 187.794 161.716 187.197 162.398 187.197H230.868C231.55 187.197 232.147 187.794 232.147 188.476C232.147 189.158 231.55 189.755 230.868 189.755Z" fill="#003B2F"/><path d="M254.657 438.353H367.636C380.069 438.353 390.147 428.274 390.147 415.842V415.757C390.147 403.324 380.069 393.246 367.636 393.246H254.657C242.225 393.246 232.147 403.324 232.147 415.757V415.842C232.147 428.274 242.225 438.353 254.657 438.353Z" fill="#E6E8EA"/><path d="M312.812 497.528H434.062C453.888 497.528 469.959 481.475 469.959 461.673C469.959 441.871 453.888 425.818 434.062 425.818H312.812C292.986 425.818 276.914 441.871 276.914 461.673C276.914 481.475 292.986 497.528 312.812 497.528Z" fill="#E6E8EA"/><path d="M389.033 420.02C389.033 420.02 388.351 419.935 388.095 419.679L375.135 406.719C374.623 406.207 374.623 405.439 375.135 404.928C375.646 404.416 376.414 404.416 376.925 404.928L389.886 417.889C390.397 418.4 390.397 419.168 389.886 419.679C389.63 419.935 389.289 420.02 388.948 420.02H389.033Z" fill="#003B2F"/><path d="M411.464 442.53C411.464 442.53 410.782 442.445 410.526 442.189L397.566 429.229C397.054 428.717 397.054 427.95 397.566 427.438C398.077 426.926 398.845 426.926 399.357 427.438L412.317 440.399C412.829 440.91 412.829 441.678 412.317 442.189C412.061 442.445 411.72 442.53 411.379 442.53H411.464Z" fill="#003B2F"/><path d="M375.989 442.53C375.989 442.53 375.307 442.445 375.051 442.189C374.54 441.678 374.54 440.91 375.051 440.399L388.012 427.438C388.523 426.926 389.291 426.926 389.803 427.438C390.314 427.95 390.314 428.717 389.803 429.229L376.842 442.189C376.842 442.189 376.245 442.53 375.904 442.53H375.989Z" fill="#003B2F"/><path d="M398.504 420.02C398.504 420.02 397.822 419.935 397.566 419.679C397.054 419.168 397.054 418.4 397.566 417.889L410.526 404.928C411.038 404.416 411.806 404.416 412.317 404.928C412.829 405.439 412.829 406.207 412.317 406.719L399.357 419.679C399.357 419.679 398.76 420.02 398.419 420.02H398.504Z" fill="#003B2F"/><path d="M1360.29 513.992C1361.43 510.802 1362.35 507.882 1362.89 505.503C1367.7 484.037 1377.76 463.49 1389.28 445.268C1382.52 418.232 1358.19 398.172 1329.04 398.172C1294.71 398.172 1266.86 426.018 1266.86 460.354C1266.86 494.689 1294.71 522.536 1329.04 522.536C1340.45 522.536 1351.1 519.399 1360.29 514.046V513.992Z" fill="#03FC9D"/><path d="M1306.33 461.381C1306.49 461.273 1306.71 461.164 1306.87 461.11L1310.17 459.596L1313.09 458.299L1316.44 456.785L1319.25 455.487L1322.61 453.973L1325.47 452.675L1328.82 451.161L1331.26 450.026C1331.26 450.026 1331.42 449.918 1331.53 449.972C1331.53 449.972 1331.53 449.972 1331.53 450.026C1331.53 450.134 1331.53 450.188 1331.53 450.296V475.98C1331.53 475.98 1331.53 476.25 1331.47 476.358C1330.72 475.926 1329.96 475.493 1329.2 475.007L1309.68 463.49L1306.22 461.435L1306.33 461.381Z" fill="#003B2F"/><path d="M1331.53 476.305V449.918C1331.53 449.918 1331.53 449.756 1331.53 449.647V419.962C1331.53 419.962 1331.48 419.692 1331.64 419.638C1332.18 420.557 1332.72 421.422 1333.26 422.341L1356.62 461.11C1356.62 461.11 1356.73 461.273 1356.78 461.381C1356.67 461.435 1356.56 461.381 1356.46 461.327L1354.56 460.462L1350.78 458.731L1346.99 457.001C1345.7 456.406 1344.45 455.866 1343.15 455.271L1339.42 453.595L1335.58 451.864L1331.85 450.188H1331.75C1331.75 450.188 1331.58 450.134 1331.58 450.188V475.872C1331.58 475.872 1331.58 476.142 1331.58 476.25L1331.53 476.305Z" fill="#003B2F"/><path d="M1331.58 476.304V450.242C1331.58 450.062 1331.67 450.008 1331.85 450.08L1336.23 452.026C1337.21 452.459 1338.12 452.892 1339.1 453.324L1343.26 455.217L1345.64 456.298L1349.05 457.866L1351.43 458.948L1354.78 460.462L1356.62 461.273C1356.62 461.273 1356.67 461.273 1356.73 461.273C1356.73 461.381 1356.62 461.381 1356.56 461.435L1343.91 468.897L1331.85 476.034C1331.85 476.034 1331.64 476.142 1331.53 476.196L1331.58 476.304Z" fill="#003B2F"/><path d="M1331.58 483.983L1336.88 480.847L1351.8 472.033L1356.51 469.221C1356.51 469.221 1356.62 469.113 1356.67 469.167C1356.67 469.221 1356.62 469.275 1356.56 469.329C1348.24 481.009 1339.96 492.742 1331.64 504.422C1331.64 504.476 1331.64 504.584 1331.47 504.584C1331.47 504.476 1331.42 504.368 1331.42 504.26V484.307C1331.42 484.307 1331.42 484.037 1331.53 483.983H1331.58Z" fill="#003B2F"/><path d="M1331.58 483.983C1331.58 483.983 1331.58 484.199 1331.58 484.253V504.584C1331.2 504.151 1330.93 503.665 1330.61 503.232C1327.74 499.177 1324.88 495.121 1321.96 491.066L1313.36 478.954L1306.49 469.275L1306.33 469.059C1306.33 469.059 1306.6 469.167 1306.66 469.275L1321.52 478.035L1331.42 483.875C1331.42 483.875 1331.53 483.875 1331.58 483.929V483.983Z" fill="#003B2F"/><path d="M1331.64 419.638C1331.64 419.638 1331.64 419.8 1331.64 419.908V449.701C1331.64 449.701 1331.64 449.864 1331.64 449.972C1331.64 449.918 1331.58 449.864 1331.58 449.755V420.07C1331.58 420.07 1331.58 419.746 1331.64 419.584V419.692V419.638Z" fill="#003B2F"/><path d="M1331.53 419.584V449.864C1330.34 450.458 1329.15 450.999 1327.96 451.594C1326.72 452.189 1325.47 452.729 1324.17 453.324L1317.69 456.298L1313.14 458.353L1306.39 461.435C1306.39 461.435 1306.33 461.435 1306.28 461.435C1306.66 460.786 1307.03 460.191 1307.41 459.542L1317.04 443.537L1329.37 423.098L1331.42 419.746C1331.42 419.746 1331.42 419.692 1331.47 419.638L1331.53 419.584Z" fill="#003B2F"/><path d="M1389.17 445.484C1382.25 418.719 1358.02 398.875 1329.04 398.875C1294.71 398.875 1266.86 426.721 1266.86 461.057C1266.86 495.392 1294.71 523.239 1329.04 523.239C1340.34 523.239 1350.89 520.211 1359.97 514.912" stroke="#003B2F" stroke-width="3" stroke-linecap="round" stroke-linejoin="round"/><path d="M1777.4 730.711L1784.37 581.42C1782.05 581.096 1721.27 612.024 1701.92 610.132C1682.56 608.239 1675.26 604.13 1656.6 596.83C1637.95 589.531 1624.49 579.203 1562.03 570.93C1499.58 562.657 1460.27 522.753 1460.27 522.753C1460.27 522.753 1427.02 496.204 1405.01 496.312C1383 496.42 1386.57 527.565 1394.79 536.541C1402.96 545.517 1485.41 608.672 1485.41 608.672L1475.68 631.977L1777.4 730.711Z" fill="#E6E8EA"/><path d="M1295.73 569.308L1291.52 558.169C1286.76 534.54 1253.07 518.427 1245.01 522.32C1237.01 526.213 1242.15 543.083 1242.15 543.083L1272.32 628.408C1272.32 628.408 1297.36 693.239 1309.14 701.837C1320.93 710.434 1375.06 726.872 1401.23 743.418C1427.4 759.963 1449.24 764.505 1460.22 764.505C1471.2 764.505 1572.85 740.065 1586.15 741.363C1599.45 742.715 1777.24 730.711 1777.24 730.711L1492.23 637.059L1451.51 665.284L1316.98 643.44L1295.63 569.362L1295.73 569.308Z" fill="#E6E8EA"/><path d="M1514.02 579.365C1514.02 579.365 1498.93 590.071 1482.06 621.541C1465.19 653.01 1447.35 651.334 1447.35 651.334L1391.71 656.254L1342.99 622.081C1342.99 622.081 1311.47 571.417 1298.11 565.685C1284.76 559.953 1267.72 558.385 1271.51 570.66C1275.29 582.934 1304.38 628.57 1306.82 633.599C1309.25 638.627 1341.15 692.482 1358.13 700.323C1375.11 708.163 1448.16 725.249 1448.16 725.249L1514.02 579.365Z" fill="#E6E8EA"/><path d="M1665.91 600.561C1665.91 600.561 1623.57 591.531 1577.99 608.834C1532.46 626.137 1491.96 651.658 1463.68 652.037C1435.45 652.415 1391.66 656.254 1391.66 656.254L1665.91 600.561Z" fill="#E6E8EA"/><path d="M1274.11 611.104C1274.11 611.104 1242.15 580.987 1235.39 577.851C1228.69 574.714 1206.41 560.115 1189.43 571.524C1189.43 571.524 1181.16 575.58 1209.44 602.237C1237.72 628.84 1267.72 657.227 1267.72 657.227L1305.14 684.695L1274.05 611.104H1274.11Z" fill="#E6E8EA"/><path d="M1401.77 739.253C1401.77 739.253 1326.28 726.384 1317.42 722.978C1308.55 719.571 1219.87 667.176 1212.46 656.795C1205.06 646.413 1208.19 639.654 1214.9 638.951C1221.6 638.194 1230.09 631.976 1245.77 636.464L1401.77 739.307V739.253Z" fill="#E6E8EA"/><path d="M1787.73 597.587C1785.4 597.263 1724.63 628.191 1705.27 626.299C1685.91 624.406 1678.61 620.297 1659.96 612.997C1641.3 605.698 1627.84 595.37 1565.39 587.097C1502.93 578.824 1463.62 538.92 1463.62 538.92C1463.62 538.92 1430.37 512.371 1408.36 512.479C1386.36 512.587 1389.92 543.732 1398.14 552.708C1406.31 561.684 1488.77 624.839 1488.77 624.839" stroke="#003B2F" stroke-width="3" stroke-linecap="round" stroke-linejoin="round"/><path d="M1788.59 747.094C1788.59 747.094 1610.81 759.098 1597.5 757.746C1584.2 756.394 1482.55 780.888 1471.57 780.888C1460.6 780.888 1438.75 776.4 1412.58 759.801C1386.41 743.201 1332.28 726.817 1320.5 718.22C1308.71 709.622 1283.67 644.791 1283.67 644.791L1253.5 559.466C1253.5 559.466 1248.31 542.596 1256.37 538.703C1264.37 534.81 1298.11 550.923 1302.87 574.552L1307.09 585.691" stroke="#003B2F" stroke-width="3" stroke-linecap="round" stroke-linejoin="round"/><path d="M1528.56 591.856C1528.56 591.856 1502.23 606.293 1485.36 637.762C1468.49 669.232 1450.65 667.555 1450.65 667.555L1395.01 672.476L1346.29 638.303C1346.29 638.303 1314.77 587.638 1301.41 581.906C1288.05 576.175 1271.02 574.607 1274.81 586.881C1278.59 599.155 1307.68 644.791 1310.12 649.82C1312.55 654.849 1344.45 708.704 1361.43 716.544C1378.41 724.384 1451.46 741.471 1451.46 741.471" stroke="#003B2F" stroke-width="3" stroke-linecap="round" stroke-linejoin="round"/><path d="M1669.26 616.728C1669.26 616.728 1626.92 607.699 1581.34 625.001C1535.81 642.304 1495.31 667.826 1467.03 668.204C1438.81 668.583 1395.01 672.422 1395.01 672.422" stroke="#003B2F" stroke-width="3" stroke-linecap="round" stroke-linejoin="round"/><path d="M1277.46 627.272C1277.46 627.272 1245.5 597.155 1238.74 594.019C1232.04 590.882 1209.76 576.283 1192.78 587.692C1192.78 587.692 1184.51 591.748 1212.79 618.405C1241.07 645.062 1271.08 673.395 1271.08 673.395L1308.49 700.863" stroke="#003B2F" stroke-width="3" stroke-linecap="round" stroke-linejoin="round"/><path d="M1405.06 755.421C1405.06 755.421 1329.58 742.552 1320.71 739.146C1311.85 735.739 1223.17 683.344 1215.76 672.963C1208.35 662.581 1211.49 655.822 1218.19 655.119C1224.9 654.416 1233.39 648.144 1249.07 652.632" stroke="#003B2F" stroke-width="3" stroke-linecap="round" stroke-linejoin="round"/><path d="M1627.35 632.354C1624.81 601.858 1588.1 532.539 1582.85 509.18C1572.74 464.193 1539.81 423.098 1517.7 399.469C1526.56 373.515 1539.87 333.016 1554.19 320.525C1554.19 320.525 1516.89 335.016 1490.93 322.364C1437.78 296.626 1395.6 334.151 1395.6 334.151L1432.97 399.848C1410.8 423.585 1378.19 464.463 1368.14 509.288C1362.73 532.647 1326.01 602.02 1323.42 632.408C1322.23 646.791 1339.26 676.26 1374.84 687.129L1401.77 686.101L1475.41 684.695L1549.06 686.101L1575.99 687.129C1611.51 676.206 1628.6 646.737 1627.41 632.408L1627.35 632.354Z" fill="#03FC9D"/><path d="M1432.1 396.333C1432.1 396.333 1481.41 423.693 1519.1 396.333" stroke="#003B2F" stroke-width="3" stroke-linecap="round" stroke-linejoin="round"/><path d="M1495.42 486.2C1495.42 486.2 1484.66 416.61 1478.06 409.797" stroke="#003B2F" stroke-width="3" stroke-linecap="round" stroke-linejoin="round"/><path d="M1521.32 477.386C1521.32 477.386 1489.09 414.772 1480.66 410.392" stroke="#003B2F" stroke-width="3" stroke-linecap="round" stroke-linejoin="round"/><path d="M1317.14 701.999C1328.93 710.596 1383.06 727.034 1409.23 743.58C1435.4 760.179 1457.24 764.667 1468.22 764.667C1479.2 764.667 1580.85 740.227 1594.15 741.525C1607.45 742.877 1777.4 730.711 1777.4 730.711L1627.41 614.944L1606.26 617.864C1595.29 619.973 1584.09 623.812 1573.77 627.975L1507.31 657.444L1493.09 662.851L1479.03 666.798L1465.89 668.204L1395.11 672.476C1395.11 672.476 1353.32 643.169 1346.4 638.303C1344.5 637.005 1326.77 603.21 1323.36 609.861C1314.28 627.759 1317.2 701.999 1317.2 701.999H1317.14Z" fill="#E6E8EA"/><path d="M1395.01 672.422L1346.29 638.249C1346.29 638.249 1314.77 587.584 1301.41 581.853C1288.05 576.067 1271.02 574.553 1274.81 586.827C1278.59 599.155 1307.68 644.737 1310.12 649.766C1312.55 654.795 1344.45 708.65 1361.43 716.49C1378.41 724.33 1451.46 741.417 1451.46 741.417" stroke="#003B2F" stroke-width="3" stroke-linecap="round" stroke-linejoin="round"/><path d="M1669.26 616.728C1669.26 616.728 1626.92 607.699 1581.34 625.001C1535.81 642.304 1495.31 667.826 1467.03 668.204C1438.81 668.583 1395.01 672.422 1395.01 672.422" stroke="#003B2F" stroke-width="3" stroke-linecap="round" stroke-linejoin="round"/><path d="M1594.96 556.547C1630.27 556.547 1658.93 527.943 1658.93 492.58C1658.93 457.218 1630.33 428.668 1594.96 428.668C1559.6 428.668 1531.05 457.272 1531.05 492.58C1531.05 527.889 1559.65 556.547 1594.96 556.547Z" fill="white"/><path d="M1600.15 554.816C1635.46 554.816 1664.07 526.213 1664.07 490.85C1664.07 455.488 1635.46 426.884 1600.15 426.884C1564.84 426.884 1536.24 455.488 1536.24 490.85C1536.24 526.213 1564.84 554.816 1600.15 554.816Z" fill="#03FC9D"/><path d="M1600.37 556.546C1635.68 556.546 1664.28 527.943 1664.28 492.58C1664.28 457.217 1635.68 428.614 1600.37 428.614C1565.06 428.614 1536.4 457.217 1536.4 492.58C1536.4 527.943 1565.01 556.546 1600.37 556.546Z" stroke="#003B2F" stroke-width="3" stroke-linecap="round" stroke-linejoin="round"/><path d="M1624.22 486.47C1629.24 483.983 1632.44 479.711 1631.79 472.736C1631.46 469.113 1630.06 466.464 1627.79 464.517C1625.78 462.787 1623.13 461.652 1620.05 460.841C1617.35 460.138 1614.32 459.759 1611.08 459.543L1611.29 446.295L1602.64 446.512L1602.43 459.381C1600.15 459.381 1597.83 459.489 1595.5 459.597L1595.72 446.62L1587.12 446.836L1586.91 460.084C1585.01 460.192 1583.18 460.246 1581.39 460.3L1573.34 460.408L1569.44 460.516V461.922L1569.28 469.113C1569.28 469.113 1575.66 468.843 1575.55 468.951C1579.07 468.843 1580.15 470.736 1580.47 472.358L1580.26 487.444C1580.26 487.444 1580.8 487.444 1581.18 487.444H1580.26L1579.93 508.586C1579.77 509.613 1579.07 511.235 1576.63 511.343C1576.63 511.451 1570.36 511.505 1570.36 511.505L1568.52 521.184L1579.72 520.968C1581.82 520.968 1583.88 520.914 1585.88 520.86L1585.72 534.269L1594.31 534.107L1594.53 520.86C1596.91 520.86 1599.18 520.86 1601.4 520.752L1601.18 533.945L1609.83 533.783L1610.05 520.427C1624.59 519.346 1634.76 515.669 1636.27 502.962C1637.41 492.689 1632.38 488.201 1624.16 486.579L1624.22 486.47ZM1595.61 469.059C1600.48 468.951 1615.84 467.167 1615.67 476.683C1615.51 485.767 1600.26 485.065 1595.4 485.173L1595.61 469.059ZM1594.96 511.019L1595.23 493.283C1601.07 493.121 1619.46 491.175 1619.3 501.61C1619.13 511.614 1600.8 510.857 1594.91 511.019H1594.96Z" fill="#003B2F"/><path d="M1552.41 360.376C1568.2 360.376 1580.96 347.616 1580.96 331.827C1580.96 316.038 1568.2 303.277 1552.41 303.277C1536.62 303.277 1523.86 316.038 1523.86 331.827C1523.86 347.616 1536.62 360.376 1552.41 360.376Z" fill="white"/><path d="M1556.36 360.376C1572.14 360.376 1584.91 347.616 1584.91 331.827C1584.91 316.038 1572.09 303.277 1556.36 303.277C1540.62 303.277 1527.81 316.038 1527.81 331.827C1527.81 347.616 1540.57 360.376 1556.36 360.376Z" fill="#03FC9D"/><path d="M1556.19 360.376C1571.98 360.376 1584.74 347.616 1584.74 331.827C1584.74 316.038 1571.93 303.277 1556.19 303.277C1540.46 303.277 1527.65 316.038 1527.65 331.827C1527.65 347.616 1540.41 360.376 1556.19 360.376Z" stroke="#003B2F" stroke-width="3" stroke-linecap="round" stroke-linejoin="round"/><path d="M1544.14 317.119L1549.27 322.418C1550.14 323.283 1551 324.202 1551.87 325.067C1554.14 327.501 1557.98 327.663 1560.41 325.392C1560.52 325.284 1560.57 325.23 1560.68 325.122C1563.28 322.58 1565.82 320.039 1568.42 317.443C1568.42 317.389 1568.52 317.335 1568.58 317.281H1573.5C1573.5 317.281 1573.39 317.498 1573.34 317.552C1569.98 320.904 1566.58 324.31 1563.17 327.663C1561.33 329.609 1558.68 330.637 1556.03 330.529C1553.65 330.529 1551.33 329.555 1549.65 327.825C1546.19 324.31 1542.79 320.796 1539.32 317.227C1539.32 317.173 1539.22 317.119 1539.22 317.065H1544.14V317.119Z" fill="#003B2F"/><path d="M1538.89 346.21C1539.43 345.669 1539.97 345.182 1540.51 344.642C1543.43 341.722 1546.35 338.856 1549.27 335.936C1551.17 333.99 1553.76 332.908 1556.47 333.07C1558.79 333.07 1561.06 334.044 1562.74 335.72C1566.25 339.289 1569.71 342.857 1573.23 346.48C1573.23 346.48 1573.28 346.534 1573.28 346.588C1573.17 346.588 1573.12 346.588 1573.01 346.588C1571.55 346.588 1570.09 346.588 1568.63 346.588C1568.47 346.588 1568.25 346.48 1568.14 346.372C1565.55 343.722 1563.01 341.127 1560.41 338.478C1558.09 336.098 1554.25 336.044 1551.82 338.423C1549.22 341.019 1546.62 343.56 1544.03 346.21C1543.87 346.372 1543.65 346.48 1543.43 346.48C1542.03 346.48 1540.62 346.48 1539.27 346.48H1538.95L1538.89 346.372V346.21Z" fill="#003B2F"/><path d="M1450 596.56C1469.14 596.56 1484.71 581.042 1484.71 561.846C1484.71 542.651 1469.19 527.133 1450 527.133C1430.8 527.133 1415.29 542.651 1415.29 561.846C1415.29 581.042 1430.8 596.56 1450 596.56Z" fill="#03FC9D"/><path d="M1449.4 595.424C1468.54 595.424 1484.12 579.905 1484.12 560.71C1484.12 541.515 1468.6 525.996 1449.4 525.996C1430.21 525.996 1414.69 541.515 1414.69 560.71C1414.69 579.905 1430.21 595.424 1449.4 595.424Z" stroke="#003B2F" stroke-width="3" stroke-linecap="round" stroke-linejoin="round"/><path fill-rule="evenodd" clip-rule="evenodd" d="M1468.11 565.361C1468.11 565.361 1467.95 565.198 1467.84 565.144C1467.57 564.928 1467.19 564.82 1466.81 564.82C1466.81 564.82 1466.76 564.82 1466.71 564.82H1434.1C1432.97 564.82 1432.05 565.739 1432.05 566.875C1432.05 568.01 1432.97 568.929 1434.1 568.929H1436.81L1435.72 572.065L1434.64 575.202L1434.21 576.391C1433.99 576.986 1434.1 577.581 1434.37 578.121C1434.59 578.5 1434.97 578.824 1435.45 579.041C1435.83 579.149 1436.26 579.203 1436.59 579.095C1436.91 578.986 1437.24 578.878 1437.45 578.608C1437.72 578.392 1437.89 578.121 1438.05 577.797L1438.48 576.607L1438.59 576.229L1439.56 573.471L1441.13 568.983H1459.73C1460.33 570.66 1460.81 572.174 1461.3 573.471L1462.11 575.85L1462.22 576.121L1462.33 576.607L1462.6 577.364L1462.76 577.797C1463.14 578.878 1464.27 579.419 1465.35 579.095C1465.68 578.986 1465.95 578.824 1466.17 578.554C1466.17 578.554 1466.54 578.067 1466.65 577.743C1466.65 577.743 1466.65 577.743 1466.65 577.635C1466.71 577.364 1466.76 577.094 1466.65 576.824C1466.65 576.716 1466.65 576.553 1466.54 576.391L1466.11 575.202L1465.03 572.065L1463.95 568.929H1466.65C1466.98 568.929 1467.25 568.875 1467.52 568.713C1467.57 568.713 1467.68 568.659 1467.73 568.605C1468.33 568.28 1468.71 567.632 1468.71 566.875C1468.71 566.28 1468.49 565.739 1468.06 565.415L1468.11 565.361ZM1468.49 557.682C1468.17 557.034 1467.46 556.601 1466.71 556.601H1459.79C1458.06 551.626 1456.65 547.517 1456.43 546.814C1456 545.516 1455.3 544.327 1454.16 543.516C1453.08 542.705 1451.78 542.326 1450.38 542.326C1448.97 542.326 1447.73 542.651 1446.59 543.516C1445.51 544.327 1444.81 545.462 1444.38 546.814C1443.24 550.112 1442.1 553.357 1440.97 556.601H1434.05C1432.91 556.601 1431.99 557.52 1431.99 558.656C1431.99 559.791 1432.91 560.71 1434.05 560.71H1466.65C1466.98 560.71 1467.3 560.602 1467.57 560.494C1468.22 560.17 1468.65 559.467 1468.65 558.71C1468.65 558.331 1468.54 558.007 1468.38 557.736L1468.49 557.682ZM1445.35 556.601C1446.86 552.275 1448.05 548.761 1448.27 548.058C1448.48 547.355 1448.81 546.976 1449.08 546.76C1449.35 546.544 1449.73 546.382 1450.43 546.382C1451.13 546.382 1451.51 546.544 1451.78 546.76C1452.05 546.976 1452.38 547.355 1452.59 548.058C1452.81 548.761 1454 552.221 1455.51 556.601H1445.35Z" fill="#003B2F"/><path d="M1255.72 905.947H1286.31" stroke="#003B2F" stroke-width="2.65199" stroke-linecap="round" stroke-linejoin="round"/><path d="M1127.8 837.438H1349.07" stroke="#03FC9D" stroke-width="2.65199" stroke-linecap="round" stroke-linejoin="round"/><path d="M1325.73 905.771H1449.4" stroke="#003B2F" stroke-width="2.65199" stroke-linecap="round" stroke-linejoin="round"/><path d="M1226.37 905.948L1207.36 886.942L1188.36 905.948L1207.36 924.954L1226.37 905.948Z" stroke="#003B2F" stroke-width="2.65199" stroke-linecap="round" stroke-linejoin="round"/><path d="M1127.8 767.426L1140.98 780.597" stroke="#003B2F" stroke-width="2.65199" stroke-linecap="round" stroke-linejoin="round"/><path d="M1150.61 790.321L1163.78 803.492" stroke="#003B2F" stroke-width="2.65199" stroke-linecap="round" stroke-linejoin="round"/><path d="M1127.8 803.492L1140.98 790.321" stroke="#003B2F" stroke-width="2.65199" stroke-linecap="round" stroke-linejoin="round"/><path d="M1150.61 780.686L1163.78 767.514" stroke="#003B2F" stroke-width="2.65199" stroke-linecap="round" stroke-linejoin="round"/><path d="M1787.81 215.511H1745.21C1758.73 215.511 1769.6 205.61 1769.6 193.323C1769.6 181.035 1758.64 171.135 1745.21 171.135H1622.77C1609.25 171.135 1598.37 181.035 1598.37 193.323H1560.8C1547.28 193.323 1536.4 203.224 1536.4 215.511C1536.4 227.799 1547.37 237.7 1560.8 237.7H1641.07C1641.07 249.987 1652.03 259.888 1665.47 259.888H1787.9C1801.43 259.888 1812.3 249.987 1812.3 237.7C1812.3 225.412 1801.34 215.511 1787.9 215.511H1787.81Z" fill="#E6E8EA"/><path d="M1249.97 218.609H1232.82" stroke="#03FC9D" stroke-width="2.65199" stroke-linecap="round" stroke-linejoin="round"/><path d="M1321.93 260.952H1197.46" stroke="#003B2F" stroke-width="2.65199" stroke-linecap="round" stroke-linejoin="round"/><path d="M1210.55 218.698H1140.98" stroke="#03FC9D" stroke-width="2.65199" stroke-linecap="round" stroke-linejoin="round"/><path d="M1143.01 240.798L1153.09 250.875" stroke="#003B2F" stroke-width="2.65199" stroke-linecap="round" stroke-linejoin="round"/><path d="M1160.43 258.212L1170.5 268.29" stroke="#003B2F" stroke-width="2.65199" stroke-linecap="round" stroke-linejoin="round"/><path d="M1143.01 268.29L1153.09 258.212" stroke="#003B2F" stroke-width="2.65199" stroke-linecap="round" stroke-linejoin="round"/><path d="M1160.43 250.875L1170.5 240.798" stroke="#003B2F" stroke-width="2.65199" stroke-linecap="round" stroke-linejoin="round"/><path d="M1723.83 432.821L1743.28 421.594" stroke="#003B2F" stroke-width="2.65199" stroke-linecap="round" stroke-linejoin="round"/><path d="M1762.73 432.82L1754.16 427.87" stroke="#003B2F" stroke-width="2.65199" stroke-linecap="round" stroke-linejoin="round"/><path d="M1743.28 421.594V398.875" stroke="#003B2F" stroke-width="2.65199" stroke-linecap="round" stroke-linejoin="round"/></g><defs><clipPath id="clip0_794_1420"><rect width="1920" height="1080" fill="white"/></clipPath></defs></svg>