<svg width="1920" height="1081" viewBox="0 0 1920 1081" fill="none" xmlns="http://www.w3.org/2000/svg"><path d="M108.951 323.705H102.727V343.515H93.7036V550.025H102.727V569.835H108.951V550.025H117.974V343.515H108.951V323.705Z" fill="#E6E8EA"/><path d="M141.213 492.563H134.989V505.113H125.966V636.321H134.989V648.871H141.213V636.321H150.236V505.113H141.213V492.563Z" fill="#E6E8EA"/><path d="M174.615 428.878H168.392V437.694H159.472V529.28H168.392V538.096H174.615V529.28H183.639V437.694H174.615V428.878Z" fill="#E6E8EA"/><path d="M208.115 405.644H201.892V418.195H192.868V549.402H201.892V561.952H208.115V549.402H217.139V418.195H208.115V405.644Z" fill="#E6E8EA"/><path d="M275.018 414.357H268.794V426.907H259.771V558.115H268.794V570.665H275.018V558.115H283.938V426.907H275.018V414.357Z" fill="#E6E8EA"/><path d="M308.412 465.284H302.189V477.834H293.165V608.938H302.189V621.592H308.412V608.938H317.436V477.834H308.412V465.284Z" fill="#E6E8EA"/><path d="M250.534 426.7H241.51V417.883H235.287V426.7H226.263V518.286H235.287V527.102H241.51V518.286H250.534V426.7Z" fill="#E6E8EA"/><path d="M349.07 491.941H342.846V504.491H333.823V635.18H342.846V647.73H349.07V635.18H358.093V504.491H349.07V491.941Z" fill="#E6E8EA"/><path d="M382.465 539.341H376.242V548.054H367.218V639.329H376.242V648.145H382.465V639.329H391.489V548.054H382.465V539.341Z" fill="#E6E8EA"/><path d="M415.962 594.625H409.739V607.175H400.715V737.864H409.739V750.414H415.962V737.864H424.882V607.175H415.962V594.625Z" fill="#E6E8EA"/><path d="M482.76 649.804H476.641V662.355H467.617V793.043H476.641V805.594H482.76V793.043H491.784V662.355H482.76V649.804Z" fill="#E6E8EA"/><path d="M516.27 655.717H510.046V668.163H501.023V798.956H510.046V811.402H516.27V798.956H525.294V668.163H516.27V655.717Z" fill="#E6E8EA"/><path d="M458.391 612.983H449.368V604.271H443.144V612.983H434.121V704.258H443.144V713.074H449.368V704.258H458.391V612.983Z" fill="#E6E8EA"/><path d="M556.613 679.157H550.39V694.612H541.366V855.691H550.39V871.145H556.613V855.691H565.637V694.612H556.613V679.157Z" fill="#E6E8EA"/><path d="M590.008 674.075H583.785V684.862H574.761V797.4H583.785V808.187H590.008V797.4H599.032V684.862H590.008V674.075Z" fill="#E6E8EA"/><path d="M623.515 707.577H617.292V723.032H608.268V884.111H617.292V899.565H623.515V884.111H632.435V723.032H623.515V707.577Z" fill="#E6E8EA"/><path d="M690.314 629.786H684.195V645.241H675.171V806.424H684.195V821.878H690.314V806.424H699.338V645.241H690.314V629.786Z" fill="#E6E8EA"/><path d="M723.813 587.26H717.59V602.715H708.566V763.794H717.59V779.249H723.813V763.794H732.837V602.715H723.813V587.26Z" fill="#E6E8EA"/><path d="M665.934 679.158H656.911V668.37H650.687V679.158H641.664V791.591H650.687V802.378H656.911V791.591H665.934V679.158Z" fill="#E6E8EA"/><path d="M800.774 351.191H794.551V416.328H785.527V548.676H794.551V561.434H800.774V548.676H809.798V416.328H800.774V351.191Z" fill="#E6E8EA"/><path d="M834.167 373.802H827.943V382.722H819.023V475.138H827.943V483.954H834.167V475.138H843.19V382.722H834.167V373.802Z" fill="#E6E8EA"/><path d="M867.676 325.572H861.453V338.226H852.429V470.678H861.453V483.332H867.676V470.678H876.7V338.226H867.676V325.572Z" fill="#E6E8EA"/><path d="M934.568 437.487H928.345V450.141H919.321V582.593H928.345V595.247H934.568V582.593H943.488V450.141H934.568V437.487Z" fill="#E6E8EA"/><path d="M910.095 402.948H901.071V394.028H894.848V402.948H885.824V495.363H894.848V504.18H901.071V495.363H910.095V402.948Z" fill="#E6E8EA"/><path d="M777.539 383.344H764.47V351.191H755.446V383.344H742.377V718.468H755.446V778.315H764.47V718.468H777.539V383.344Z" fill="#03FC9D"/><path d="M987.094 526.687H980.871V539.238H971.847V669.926H980.871V682.477H987.094V669.926H996.118V539.238H987.094V526.687Z" fill="#E6E8EA"/><path d="M1020.49 574.088H1014.27V582.801H1005.24V674.075H1014.27V682.892H1020.49V674.075H1029.51V582.801H1020.49V574.088Z" fill="#E6E8EA"/><path d="M1053.99 629.371H1047.76V641.922H1038.74V772.61H1047.76V785.161H1053.99V772.61H1062.91V641.922H1053.99V629.371Z" fill="#E6E8EA"/><path d="M1120.78 684.551H1114.67V697.102H1105.64V827.79H1114.67V840.341H1120.78V827.79H1129.81V697.102H1120.78V684.551Z" fill="#E6E8EA"/><path d="M1154.29 690.463H1148.07V702.91H1139.05V833.703H1148.07V846.149H1154.29V833.703H1163.32V702.91H1154.29V690.463Z" fill="#E6E8EA"/><path d="M1096.42 647.73H1087.39V639.018H1081.17V647.73H1072.14V739.005H1081.17V747.821H1087.39V739.005H1096.42V647.73Z" fill="#E6E8EA"/><path d="M1194.64 713.904H1188.41V729.359H1179.39V890.438H1188.41V905.892H1194.64V890.438H1203.66V729.359H1194.64V713.904Z" fill="#E6E8EA"/><path d="M1228.03 708.822H1221.81V719.609H1212.79V832.146H1221.81V842.933H1228.03V832.146H1237.06V719.609H1228.03V708.822Z" fill="#E6E8EA"/><path d="M1261.54 742.324H1255.32V757.778H1246.29V918.858H1255.32V934.312H1261.54V918.858H1270.46V757.778H1261.54V742.324Z" fill="#E6E8EA"/><path d="M1328.34 664.533H1322.22V679.988H1313.2V841.17H1322.22V856.625H1328.34V841.17H1337.36V679.988H1328.34V664.533Z" fill="#E6E8EA"/><path d="M1361.84 622.007H1355.61V637.462H1346.59V798.541H1355.61V813.995H1361.84V798.541H1370.86V637.462H1361.84V622.007Z" fill="#E6E8EA"/><path d="M1303.96 713.904H1294.94V703.117H1288.71V713.904H1279.69V826.338H1288.71V837.125H1294.94V826.338H1303.96V713.904Z" fill="#E6E8EA"/><path d="M1438.8 385.937H1432.57V451.074H1423.55V583.423H1432.57V596.18H1438.8V583.423H1447.82V451.074H1438.8V385.937Z" fill="#E6E8EA"/><path d="M1472.19 408.549H1465.97V417.469H1457.05V509.884H1465.97V518.701H1472.19V509.884H1481.21V417.469H1472.19V408.549Z" fill="#E6E8EA"/><path d="M1505.7 360.318H1499.48V372.972H1490.45V505.424H1499.48V518.078H1505.7V505.424H1514.72V372.972H1505.7V360.318Z" fill="#E6E8EA"/><path d="M1572.59 472.234H1566.37V484.888H1557.34V617.34H1566.37V629.994H1572.59V617.34H1581.51V484.888H1572.59V472.234Z" fill="#E6E8EA"/><path d="M1617.62 274.645H1607.56V295.285H1592.83V511.337H1607.56V532.081H1617.62V511.337H1632.35V295.285H1617.62V274.645Z" fill="#03FC9D"/><path d="M1548.12 437.694H1539.1V428.774H1532.87V437.694H1523.85V530.11H1532.87V538.926H1539.1V530.11H1548.12V437.694Z" fill="#E6E8EA"/><path d="M1415.56 418.091H1402.49V385.937H1393.47V418.091H1380.4V753.214H1393.47V813.062H1402.49V753.214H1415.56V418.091Z" fill="#03FC9D"/><path d="M1652.36 337.707H1647.79V350.568H1641.05V483.954H1647.79V496.712H1652.36V483.954H1659.1V350.568H1652.36V337.707Z" fill="#E6E8EA"/><path d="M1677.26 272.985H1672.59V281.905H1665.95V375.047H1672.59V383.967H1677.26V375.047H1683.89V281.905H1677.26V272.985Z" fill="#E6E8EA"/><path d="M1702.04 346.212H1697.37V358.97H1690.73V447.859H1697.37V460.721H1702.04V447.859H1708.68V358.97H1702.04V346.212Z" fill="#E6E8EA"/><path d="M1751.72 258.257H1747.06V271.014H1740.42V404.4H1747.06V417.261H1751.72V404.4H1758.36V271.014H1751.72V258.257Z" fill="#E6E8EA"/><path d="M1776.51 323.705H1771.84V336.462H1765.2V469.848H1771.84V482.606H1776.51V469.848H1783.15V336.462H1776.51V323.705Z" fill="#E6E8EA"/><path d="M1733.57 325.261H1726.83V316.341H1722.26V325.261H1715.52V418.402H1722.26V427.322H1726.83V418.402H1733.57V325.261Z" fill="#E6E8EA"/><path d="M1826.3 201.417H1813.23V168.019H1804.2V201.417H1791.13V615.265H1804.2V638.291H1813.23V615.265H1826.3V201.417Z" fill="#03FC9D"/><path d="M1073.73 841.535C1067.12 869.867 1051.79 925.889 1011.72 912.167C1007.77 910.806 1004.02 908.878 1000.66 906.497C992.552 900.808 986.333 892.472 983.101 882.908C973.632 854.633 986.333 826.622 999.545 802.618C1000.24 801.314 1000.96 800.066 1001.7 798.8C1022.76 812.106 1052.41 827.888 1073.56 841.119C1073.69 841.213 1073.79 841.383 1073.73 841.535Z" fill="#E6E8EA" stroke="#15483D" stroke-width="3.4416" stroke-miterlimit="10" stroke-linecap="round" stroke-linejoin="round"/><path d="M999.545 802.617C986.334 826.64 973.632 854.651 983.102 882.908C986.334 892.472 992.552 900.826 1000.66 906.496V906.572C946.302 865.179 889.751 827.188 834.069 787.572C798.554 762.283 757.218 742.494 726.391 711.119C678.478 662.468 707.434 596.296 738.412 547.173C777.423 485.273 825.261 429.629 867.278 369.808C909.181 310.158 945.848 244.761 958.417 172.919C958.455 172.616 958.757 172.503 959.003 172.635C1048.46 235.48 1138.43 297.532 1228.28 359.772C1232.95 363.042 1237.85 366.463 1240.45 371.528C1243.63 377.709 1242.87 385.156 1241.83 392.073C1216.34 560.857 1080.29 658.707 1001.7 798.78C1000.96 800.066 1000.24 801.332 999.545 802.617Z" fill="white" stroke="#15483D" stroke-width="3.4416" stroke-miterlimit="10" stroke-linecap="round" stroke-linejoin="round"/><path d="M949.658 288.822L1079.29 386.048" stroke="#15483D" stroke-width="3.4416" stroke-miterlimit="10" stroke-linecap="round" stroke-linejoin="round"/><path d="M904.868 370.087L887.408 395.17L1014.81 483.854L1032.27 458.771L904.868 370.087Z" fill="#03FC9D" stroke="#15483D" stroke-width="3.4416" stroke-miterlimit="10" stroke-linecap="round" stroke-linejoin="round"/><path d="M933.461 313.13L1030.69 386.049" stroke="#15483D" stroke-width="3.4416" stroke-miterlimit="10" stroke-linecap="round" stroke-linejoin="round"/><path d="M925.354 337.437L973.967 369.846" stroke="#15483D" stroke-width="3.4416" stroke-miterlimit="10" stroke-linecap="round" stroke-linejoin="round"/><path d="M1054.99 394.151L1144.11 458.968" stroke="#15483D" stroke-width="3.4416" stroke-miterlimit="10" stroke-linecap="round" stroke-linejoin="round"/><path d="M990.175 386.048L1095.5 458.968" stroke="#15483D" stroke-width="3.4416" stroke-miterlimit="10" stroke-linecap="round" stroke-linejoin="round"/><path d="M844.329 458.969L973.965 548.093" stroke="#15483D" stroke-width="3.4416" stroke-miterlimit="10" stroke-linecap="round" stroke-linejoin="round"/><path d="M802.561 533.378L785.101 558.461L912.5 647.145L929.96 622.062L802.561 533.378Z" fill="#03FC9D" stroke="#15483D" stroke-width="3.4416" stroke-miterlimit="10" stroke-linecap="round" stroke-linejoin="round"/><path d="M836.229 483.276L925.353 548.094" stroke="#15483D" stroke-width="3.4416" stroke-miterlimit="10" stroke-linecap="round" stroke-linejoin="round"/><path d="M820.028 499.48L868.641 531.889" stroke="#15483D" stroke-width="3.4416" stroke-miterlimit="10" stroke-linecap="round" stroke-linejoin="round"/><path d="M949.658 564.298L1038.78 621.013" stroke="#15483D" stroke-width="3.4416" stroke-miterlimit="10" stroke-linecap="round" stroke-linejoin="round"/><path d="M892.943 548.094L998.272 621.014" stroke="#15483D" stroke-width="3.4416" stroke-miterlimit="10" stroke-linecap="round" stroke-linejoin="round"/><path d="M927.262 766.747L1006.63 742.32C1010.02 741.299 1012.23 738.033 1011.98 734.504C1011.65 730.124 1007.71 726.915 1003.39 727.513L936.518 736.543C935.19 736.833 933.935 736.029 933.645 734.701L921.085 707.983C919.254 704.069 915.003 701.973 910.754 702.903C905.973 703.949 902.869 708.524 903.609 713.337L910.233 756.175C911.483 764.111 919.466 769.114 927.155 766.736L927.262 766.747Z" fill="#03FC9D"/><path d="M985.905 712.936C981.224 702.514 973.605 693.292 963.287 686.678C935.084 668.601 897.567 676.809 879.49 705.013C861.412 733.216 869.621 770.732 897.824 788.81C926.028 806.887 963.544 798.679 981.621 770.475C982.555 769.019 983.408 767.51 984.22 765.976" stroke="#003B2F" stroke-width="3.4416" stroke-miterlimit="10" stroke-linecap="round"/><path d="M611.756 569.835C623.177 569.835 632.436 560.577 632.436 549.156C632.436 537.735 623.177 528.477 611.756 528.477C600.336 528.477 591.077 537.735 591.077 549.156C591.077 560.577 600.336 569.835 611.756 569.835Z" stroke="#003B2F" stroke-width="3.59431" stroke-miterlimit="10" stroke-linecap="round" stroke-linejoin="round"/><path d="M347.588 840.34H319.576" stroke="#03FC9D" stroke-width="3.59431" stroke-miterlimit="10" stroke-linecap="round" stroke-linejoin="round"/><path d="M464.807 909.339H262.052" stroke="#003B2F" stroke-width="3.59431" stroke-miterlimit="10" stroke-linecap="round" stroke-linejoin="round"/><path d="M283.417 840.495H170.065" stroke="#03FC9D" stroke-width="3.59431" stroke-miterlimit="10" stroke-linecap="round" stroke-linejoin="round"/><path d="M1798.89 895.257H1743.01C1760.7 895.257 1775.03 882.246 1775.03 866.191C1775.03 850.137 1760.7 837.125 1743.01 837.125H1582.54C1564.86 837.125 1550.53 850.137 1550.53 866.191H1501.27C1483.59 866.191 1469.26 879.203 1469.26 895.257C1469.26 911.312 1483.59 924.323 1501.27 924.323H1606.39C1606.39 940.378 1620.72 953.389 1638.41 953.389H1798.88C1816.56 953.389 1830.89 940.378 1830.89 924.323C1830.91 908.269 1816.58 895.257 1798.89 895.257Z" fill="#E6E8EA"/><path d="M1733.74 171.112L1708.82 146.188L1683.89 171.112L1708.82 196.036L1733.74 171.112Z" stroke="#003B2F" stroke-width="3.59431" stroke-miterlimit="10" stroke-linecap="round" stroke-linejoin="round"/><path d="M1292.42 227.49H1332.46" stroke="#003B2F" stroke-width="3.59431" stroke-miterlimit="10" stroke-linecap="round" stroke-linejoin="round"/><path d="M1212.79 164.583H1502.7" stroke="#03FC9D" stroke-width="3.59431" stroke-miterlimit="10" stroke-linecap="round" stroke-linejoin="round"/><path d="M1384.17 227.285H1546.25" stroke="#003B2F" stroke-width="3.59431" stroke-miterlimit="10" stroke-linecap="round" stroke-linejoin="round"/><path d="M1662.74 686.669V713.734" stroke="#003B2F" stroke-width="3.59431" stroke-miterlimit="10" stroke-linecap="round" stroke-linejoin="round"/><path d="M1662.74 733.514V760.579" stroke="#003B2F" stroke-width="3.59431" stroke-miterlimit="10" stroke-linecap="round" stroke-linejoin="round"/><path d="M1625.78 723.63H1652.86" stroke="#003B2F" stroke-width="3.59431" stroke-miterlimit="10" stroke-linecap="round" stroke-linejoin="round"/><path d="M1672.64 723.63H1699.71" stroke="#003B2F" stroke-width="3.59431" stroke-miterlimit="10" stroke-linecap="round" stroke-linejoin="round"/><path d="M420.038 156.367H546.251C560.16 156.367 571.426 167.642 571.426 181.542C571.426 195.452 560.151 206.717 546.251 206.717H420.038C406.129 206.717 394.863 195.443 394.863 181.542C394.863 167.642 406.138 156.367 420.038 156.367Z" fill="#03FC9D"/><path d="M488.483 85.6589H695.179C717.951 85.6589 736.411 104.119 736.411 126.89C736.411 149.661 717.951 168.121 695.179 168.121H488.483C465.712 168.121 447.251 149.661 447.251 126.89C447.251 104.119 465.712 85.6589 488.483 85.6589Z" fill="#03FC9D"/><path d="M317.436 297.315L336.57 316.46" stroke="#003B2F" stroke-width="3.59431" stroke-miterlimit="10" stroke-linecap="round" stroke-linejoin="round"/><path d="M350.565 330.456L369.699 349.589" stroke="#003B2F" stroke-width="3.59431" stroke-miterlimit="10" stroke-linecap="round" stroke-linejoin="round"/><path d="M317.436 349.589L336.57 330.456" stroke="#003B2F" stroke-width="3.59431" stroke-miterlimit="10" stroke-linecap="round" stroke-linejoin="round"/><path d="M350.565 316.46L369.699 297.315" stroke="#003B2F" stroke-width="3.59431" stroke-miterlimit="10" stroke-linecap="round" stroke-linejoin="round"/><path d="M1288.59 559.256L1317.6 575.981" stroke="#003B2F" stroke-width="3.59431" stroke-miterlimit="10" stroke-linecap="round" stroke-linejoin="round"/><path d="M1346.59 559.256L1329.54 569.092" stroke="#003B2F" stroke-width="3.59431" stroke-miterlimit="10" stroke-linecap="round" stroke-linejoin="round"/><path d="M1317.6 575.981V609.852" stroke="#003B2F" stroke-width="3.59431" stroke-miterlimit="10" stroke-linecap="round" stroke-linejoin="round"/></svg>