<svg width="192" height="108" viewBox="0 0 192 108" fill="none" xmlns="http://www.w3.org/2000/svg"><g clip-path="url(#clip0_13_347)"><path d="M154.36 25.95L170.27 25.95C171.441 25.95 172.39 25.0008 172.39 23.83C172.39 22.6592 171.441 21.71 170.27 21.71H154.36C153.189 21.71 152.24 22.6592 152.24 23.83C152.24 25.0008 153.189 25.95 154.36 25.95Z" fill="#03FC9D"/><path d="M160.14 24.1L177.56 24.1C179.482 24.1 181.04 22.5442 181.04 20.625C181.04 18.7058 179.482 17.15 177.56 17.15L160.14 17.15C158.218 17.15 156.66 18.7058 156.66 20.625C156.66 22.5442 158.218 24.1 160.14 24.1Z" fill="#03FC9D"/><path d="M-3.71 29.18L15.64 29.18C17.7718 29.18 19.5 27.4518 19.5 25.32C19.5 23.1882 17.7718 21.46 15.64 21.46L-3.71 21.46C-5.84182 21.46 -7.57 23.1882 -7.57 25.32C-7.57 27.4518 -5.84182 29.18 -3.71 29.18Z" fill="#E6E8EA"/><path d="M2.68999 39.69L33.48 39.69C36.871 39.69 39.62 36.941 39.62 33.55C39.62 30.159 36.871 27.41 33.48 27.41L2.68999 27.41C-0.701035 27.41 -3.45 30.159 -3.45 33.55C-3.45 36.941 -0.701035 39.69 2.68999 39.69Z" fill="#03FC9D"/><path d="M58.77 62.42L61.13 63.78" stroke="#003B2F" stroke-width="0.3" stroke-linecap="round" stroke-linejoin="round"/><path d="M63.49 62.42L62.1 63.22" stroke="#003B2F" stroke-width="0.3" stroke-linecap="round" stroke-linejoin="round"/><path d="M61.13 63.78V66.54" stroke="#003B2F" stroke-width="0.3" stroke-linecap="round" stroke-linejoin="round"/><path d="M36.36 94.3H42.96" stroke="#003B2F" stroke-width="0.3" stroke-linecap="round" stroke-linejoin="round"/><path d="M31.34 94.3H33" stroke="#003B2F" stroke-width="0.3" stroke-linecap="round" stroke-linejoin="round"/><path d="M37.31 89.55H54.42" stroke="#03FC9D" stroke-width="0.3" stroke-linecap="round" stroke-linejoin="round"/><path d="M21.6 88.25L23.16 89.81" stroke="#003B2F" stroke-width="0.3" stroke-linecap="round" stroke-linejoin="round"/><path d="M24.3 90.95L25.85 92.51" stroke="#003B2F" stroke-width="0.3" stroke-linecap="round" stroke-linejoin="round"/><path d="M21.6 92.51L23.16 90.95" stroke="#003B2F" stroke-width="0.3" stroke-linecap="round" stroke-linejoin="round"/><path d="M24.3 89.81L25.85 88.25" stroke="#003B2F" stroke-width="0.3" stroke-linecap="round" stroke-linejoin="round"/><path d="M141.95 14.47L144.31 15.83" stroke="#003B2F" stroke-width="0.3" stroke-linecap="round" stroke-linejoin="round"/><path d="M146.67 14.47L145.28 15.27" stroke="#003B2F" stroke-width="0.3" stroke-linecap="round" stroke-linejoin="round"/><path d="M144.31 15.83V18.59" stroke="#003B2F" stroke-width="0.3" stroke-linecap="round" stroke-linejoin="round"/><path d="M126.78 27.09H133.38" stroke="#003B2F" stroke-width="0.3" stroke-linecap="round" stroke-linejoin="round"/><path d="M121.76 27.09H123.43" stroke="#003B2F" stroke-width="0.3" stroke-linecap="round" stroke-linejoin="round"/><path d="M127.74 22.34H144.84" stroke="#03FC9D" stroke-width="0.3" stroke-linecap="round" stroke-linejoin="round"/><path d="M171.831 61.81H170.081" stroke="#003B2F" stroke-width="0.3" stroke-linecap="round" stroke-linejoin="round"/><path d="M179.161 66.26H166.481" stroke="#03FC9D" stroke-width="0.3" stroke-linecap="round" stroke-linejoin="round"/><path d="M167.821 61.82H160.731" stroke="#003B2F" stroke-width="0.3" stroke-linecap="round" stroke-linejoin="round"/><path d="M31.2907 24.56L34.1007 25.4" stroke="#003B2F" stroke-width="0.3" stroke-linecap="round" stroke-linejoin="round"/><path d="M36.1607 26.01L38.9807 26.85" stroke="#003B2F" stroke-width="0.3" stroke-linecap="round" stroke-linejoin="round"/><path d="M33.9907 29.55L34.8307 26.74" stroke="#003B2F" stroke-width="0.3" stroke-linecap="round" stroke-linejoin="round"/><path d="M35.4407 24.68L36.2807 21.86" stroke="#003B2F" stroke-width="0.3" stroke-linecap="round" stroke-linejoin="round"/><path d="M163.031 19.55C164.202 19.55 165.151 18.6008 165.151 17.43C165.151 16.2592 164.202 15.31 163.031 15.31C161.86 15.31 160.911 16.2592 160.911 17.43C160.911 18.6008 161.86 19.55 163.031 19.55Z" stroke="#003B2F" stroke-width="0.3" stroke-linecap="round" stroke-linejoin="round"/><path d="M173.891 78.24H168.461C170.181 78.24 171.571 76.98 171.571 75.41C171.571 73.84 170.181 72.58 168.461 72.58H152.861C151.141 72.58 149.751 73.84 149.751 75.41H144.961C143.241 75.41 141.851 76.67 141.851 78.24C141.851 79.81 143.241 81.07 144.961 81.07H155.181C155.181 82.63 156.571 83.9 158.291 83.9H173.891C175.611 83.9 177.001 82.64 177.001 81.07C177.001 79.5 175.611 78.24 173.891 78.24Z" fill="#E6E8EA"/><path d="M92.2608 12C93.4808 12 94.4808 12.99 94.4808 14.22V24.53H90.0508V14.22C90.0508 13 91.0408 12 92.2708 12H92.2608Z" stroke="#003B2F" stroke-width="0.3" stroke-linecap="round" stroke-linejoin="round"/><path d="M105.741 26.89H78.7708V57.43H105.741V26.89Z" fill="white" stroke="#003B2F" stroke-width="0.3" stroke-linecap="round" stroke-linejoin="round"/><path d="M98.5407 24.52H85.9707V26.89H98.5407V24.52Z" stroke="#003B2F" stroke-width="0.3" stroke-linecap="round" stroke-linejoin="round"/><path d="M90.3108 84.12V92.39H93.9208V84.12" stroke="#003B2F" stroke-width="0.3" stroke-linecap="round" stroke-linejoin="round"/><path d="M93.9208 80.93V60.18H90.3108V80.95" stroke="#003B2F" stroke-width="0.3" stroke-linecap="round" stroke-linejoin="round"/><path d="M81.6008 60.18L74.1608 92.39H77.7708L85.2008 60.18H81.6008Z" stroke="#003B2F" stroke-width="0.3" stroke-linecap="round" stroke-linejoin="round"/><path d="M80.5307 84.12L78.6207 92.39H77.7507L85.1807 60.18H86.0507L81.2907 80.83" stroke="#003B2F" stroke-width="0.3" stroke-linecap="round" stroke-linejoin="round"/><path d="M102.921 60.18L110.351 92.39H106.741L99.3107 60.18H102.921Z" stroke="#003B2F" stroke-width="0.3" stroke-linecap="round" stroke-linejoin="round"/><path d="M103.971 84.05L105.891 92.39H106.761L99.3307 60.18H98.4607L103.271 81.01" stroke="#003B2F" stroke-width="0.3" stroke-linecap="round" stroke-linejoin="round"/><path d="M104.841 84.05H79.6908L80.3708 81.01H104.141L104.841 84.05Z" stroke="#003B2F" stroke-width="0.3" stroke-linecap="round" stroke-linejoin="round"/><path d="M92.2607 14.98C92.7025 14.98 93.0607 14.6218 93.0607 14.18C93.0607 13.7382 92.7025 13.38 92.2607 13.38C91.8189 13.38 91.4607 13.7382 91.4607 14.18C91.4607 14.6218 91.8189 14.98 92.2607 14.98Z" stroke="#003B2F" stroke-width="0.3" stroke-linecap="round" stroke-linejoin="round"/><path d="M119.611 90.71H105.651V94H119.611V90.71Z" fill="#03FC9D"/><path d="M118.251 87.41H104.291V90.7H118.251V87.41Z" fill="#03FC9D"/><path d="M118.251 80.83H104.291V84.12H118.251V80.83Z" fill="#03FC9D"/><path d="M118.251 77.55H104.291V80.84H118.251V77.55Z" fill="#03FC9D"/><path d="M116.991 84.12H103.031V87.41H116.991V84.12Z" fill="#03FC9D"/><path d="M132.991 90.71H119.031V94H132.991V90.71Z" fill="#03FC9D"/><path d="M120.841 89.89H106.881V93.18H120.841V89.89Z" stroke="#003B2F" stroke-width="0.3" stroke-linecap="round" stroke-linejoin="round"/><path d="M131.771 87.41H117.811V90.7H131.771V87.41Z" fill="#03FC9D"/><path d="M130.511 84.12H116.551V87.41H130.511V84.12Z" fill="#03FC9D"/><path d="M119.471 89.89H105.511V86.6H119.471V89.89ZM118.211 86.6H104.251V83.31H118.211V86.6ZM119.381 79.92H105.421V76.63H119.381V79.92ZM119.471 83.3H105.511V80.01H119.471V83.3ZM132.171 86.59H118.211V83.3H132.171V86.59ZM133.341 89.88H119.381V86.59H133.341V89.88ZM134.791 93.17H120.831V89.88H134.791V93.17Z" stroke="#003B2F" stroke-width="0.3" stroke-linecap="round" stroke-linejoin="round"/><path d="M101.421 56.63C101.461 56.56 101.511 56.5 101.561 56.44C101.561 56.08 101.731 55.68 101.991 55.44C102.051 55.38 102.121 55.33 102.191 55.3C102.421 55.16 102.701 55.09 102.981 55.12C103.141 55.13 103.291 55.18 103.431 55.26C103.801 55.44 104.101 55.78 104.291 56.16C104.541 56.68 104.611 57.28 104.671 57.86C103.571 57.83 102.481 57.79 101.381 57.76C101.281 57.76 101.161 57.76 101.091 57.68C100.971 57.56 101.041 57.36 101.111 57.2C101.201 57.01 101.301 56.82 101.421 56.64V56.63Z" fill="#03FC9D"/><path d="M103.781 53.62C103.661 54.17 103.541 54.73 103.431 55.25C103.291 55.18 103.141 55.13 102.981 55.12C102.711 55.09 102.431 55.16 102.191 55.29C101.981 53.45 102.061 51.48 102.451 49.67C102.671 49.72 102.891 49.72 103.111 49.71C103.281 49.71 103.451 49.7 103.621 49.71C104.011 49.74 104.451 49.91 104.581 50.28C104.651 50.48 104.621 50.7 104.551 50.9C104.521 50.99 104.481 51.07 104.441 51.16C104.021 50.72 103.421 50.37 102.821 50.24C102.821 50.6 102.791 50.96 102.721 51.31C103.261 51.37 103.771 51.64 104.111 52.06C104.081 52.2 104.051 52.34 104.021 52.47C104.021 52.5 104.021 52.52 104.001 52.55C103.931 52.9 103.861 53.26 103.781 53.62Z" fill="#E6E8EA"/><path d="M104.441 51.16C104.391 51.27 104.341 51.37 104.301 51.48C104.221 51.67 104.161 51.86 104.111 52.06C103.771 51.64 103.261 51.37 102.721 51.31C102.791 50.96 102.821 50.6 102.821 50.24C103.421 50.37 104.021 50.71 104.441 51.16Z" fill="#E6E8EA"/><path d="M101.561 50.77C101.561 50.54 101.561 50.32 101.561 50.09C101.561 49.87 101.561 49.64 101.561 49.41C102.041 49.21 102.571 49.13 103.081 49.18C103.081 49.32 103.081 49.57 103.091 49.71C102.871 49.71 102.651 49.71 102.431 49.67C102.041 51.48 101.961 53.45 102.171 55.29C102.101 55.33 102.031 55.38 101.971 55.44C101.711 55.68 101.541 56.08 101.541 56.44C101.491 56.5 101.451 56.57 101.401 56.63C101.211 55.44 101.421 54.19 101.491 53C101.521 52.5 101.531 52 101.531 51.5C101.531 51.26 101.531 51.01 101.531 50.77H101.561Z" fill="#E6E8EA"/><path d="M96.8407 51.55C96.6707 51.63 96.5007 51.71 96.3307 51.78C96.2607 51.81 96.1807 51.85 96.1007 51.88C95.6407 52.64 94.8707 53.24 94.0307 53.54C93.1907 53.84 92.2807 53.9 91.3907 53.85C90.5007 53.79 89.5507 53.65 88.6807 53.48C88.6307 53.46 88.5907 53.43 88.5407 53.41C88.2207 53.22 87.9007 52.81 87.7807 52.46C87.7807 52.46 87.6907 52.43 87.6507 52.42C86.5907 51.27 85.8907 49.74 85.6507 48.18C85.5907 47.82 85.5707 47.46 85.6707 47.12C85.8307 46.55 86.3107 46.15 86.7507 45.76C87.6907 44.93 88.5707 44.02 89.3707 43.03C89.7307 42.6 90.0807 42.14 90.5407 41.83C91.1507 41.42 91.9307 41.31 92.6407 41.45C93.3607 41.59 94.0207 41.96 94.5707 42.46C94.9807 42.83 95.3407 43.28 95.8007 43.59C96.0907 43.78 96.4407 43.91 96.7707 43.92C96.6407 44.01 96.5207 44.11 96.4107 44.22C96.3207 44.31 96.2507 44.43 96.2207 44.55C96.1807 44.78 96.3207 45.01 96.5007 45.16C96.7107 45.32 96.9507 45.41 97.2007 45.5C97.4507 45.59 97.6907 45.69 97.8907 45.86C98.0807 46.03 98.2107 46.3 98.1507 46.55C98.1007 46.77 97.9307 46.93 97.7607 47.07C97.5007 47.29 97.2207 47.5 96.9407 47.7C97.2107 47.7 97.4507 47.54 97.6607 47.37C97.8707 47.2 98.0807 47.02 98.3307 46.95C98.7807 46.83 99.2407 47.1 99.7107 47.09C99.7907 47.09 99.9007 47.06 99.9307 46.98C99.9407 46.91 99.8907 46.84 99.8207 46.81C99.7507 46.78 99.6807 46.79 99.6107 46.79C99.2607 46.79 98.8907 46.72 98.6407 46.47C98.3507 46.19 98.3007 45.74 98.5507 45.43C98.8307 45.07 99.1507 44.72 99.2007 44.23C99.2207 43.98 99.1507 43.71 98.9507 43.55C98.7307 43.38 98.4307 43.41 98.1607 43.45C97.9907 43.48 97.8207 43.51 97.6607 43.55C97.7407 43.44 97.8007 43.31 97.8107 43.17C97.8207 42.88 97.6207 42.63 97.4807 42.37C97.1507 41.79 97.1907 40.83 97.4407 40.22C97.6507 40.46 97.8507 40.7 98.0607 40.94L98.0007 40.99C97.8107 41.18 97.6407 41.39 97.5507 41.64C97.5507 41.66 97.5407 41.69 97.5307 41.72C97.4807 41.95 97.5307 42.22 97.6807 42.38C97.8107 42.51 97.9807 42.57 98.1707 42.57C98.2507 42.57 98.3407 42.57 98.4207 42.54C98.6707 42.47 98.8907 42.32 99.0907 42.15C99.2807 42.37 99.4707 42.6 99.6707 42.83C100.081 43.31 100.481 43.79 100.751 44.35C101.261 45.41 101.231 46.69 100.801 47.79C100.371 48.88 99.5607 49.81 98.6107 50.51C98.0607 50.92 97.4707 51.25 96.8507 51.54L96.8407 51.55ZM93.3907 43.61C93.5007 43.33 93.4407 43 93.2607 42.75C93.0807 42.51 92.8107 42.35 92.5207 42.27C92.2307 42.19 91.9207 42.2 91.6207 42.23C91.2607 42.27 90.9407 42.37 90.6407 42.59C90.4907 42.69 90.4407 42.81 90.4307 42.95C90.4307 43.05 90.4507 43.17 90.4907 43.29C90.5507 43.49 90.6207 43.68 90.7607 43.83C90.8907 43.96 91.0507 44.04 91.2307 44.1C91.2607 44.1 91.2907 44.12 91.3107 44.13H91.3207C91.5807 44.21 91.8507 44.25 92.1207 44.26C92.3707 44.26 92.6207 44.24 92.8607 44.14C93.0907 44.04 93.2907 43.86 93.3807 43.63L93.3907 43.61Z" fill="#E6E8EA"/><path d="M99.8306 46.81C99.9006 46.84 99.9506 46.91 99.9406 46.98C99.9206 47.06 99.8106 47.09 99.7206 47.09C99.2506 47.1 98.7906 46.83 98.3406 46.95C98.0806 47.02 97.8806 47.2 97.6706 47.37C97.4606 47.54 97.2206 47.7 96.9506 47.7C97.2406 47.5 97.5106 47.3 97.7706 47.07C97.9406 46.93 98.1106 46.77 98.1606 46.55C98.2206 46.3 98.0906 46.03 97.9006 45.86C97.7006 45.69 97.4606 45.59 97.2106 45.5C96.9706 45.41 96.7206 45.32 96.5106 45.16C96.3306 45.01 96.1906 44.78 96.2306 44.55C96.2606 44.42 96.3306 44.31 96.4206 44.22C96.5306 44.1 96.6406 44 96.7806 43.92C97.0406 43.75 97.3406 43.64 97.6406 43.56C97.8006 43.52 97.9706 43.49 98.1406 43.46C98.4106 43.42 98.7206 43.39 98.9306 43.56C99.1306 43.71 99.2006 43.99 99.1806 44.24C99.1306 44.73 98.8206 45.07 98.5306 45.44C98.2806 45.75 98.3406 46.21 98.6206 46.48C98.8706 46.72 99.2406 46.81 99.5906 46.8C99.6606 46.8 99.7306 46.8 99.8006 46.82L99.8306 46.81ZM98.7206 44.62C98.8606 44.52 98.9306 44.34 98.9106 44.18C98.8906 44.01 98.7706 43.86 98.6206 43.79C98.4606 43.72 98.2806 43.74 98.1106 43.79C97.8906 43.84 97.6806 43.93 97.4906 44.04C97.4706 44.05 97.4506 44.07 97.4506 44.1C97.4506 44.14 97.5106 44.15 97.5506 44.14C97.7106 44.1 97.8806 44.05 98.0506 44.05C98.1706 44.05 98.2906 44.07 98.3906 44.15C98.5106 44.25 98.5906 44.4 98.6106 44.56C98.6106 44.6 98.6206 44.66 98.6706 44.66C98.6906 44.66 98.7106 44.66 98.7206 44.64V44.62Z" fill="#003B2F"/><path d="M98.0606 40.95C98.4106 41.35 98.7506 41.76 99.0906 42.17C98.8906 42.34 98.6706 42.5 98.4206 42.56C98.3406 42.58 98.2606 42.59 98.1706 42.59C98.3206 42.41 98.3406 42.13 98.2106 41.94C98.0706 41.74 97.7606 41.65 97.5306 41.74C97.5306 41.71 97.5306 41.68 97.5506 41.66C97.6306 41.41 97.8106 41.2 98.0006 41.01L98.0606 40.96V40.95Z" fill="white"/><path d="M98.0507 44.02C97.8807 44.02 97.7107 44.08 97.5507 44.11C97.5107 44.11 97.4507 44.11 97.4507 44.07C97.4507 44.05 97.4707 44.03 97.4907 44.01C97.6907 43.9 97.9007 43.81 98.1107 43.76C98.2807 43.72 98.4607 43.7 98.6207 43.76C98.7707 43.83 98.8907 43.98 98.9107 44.15C98.9307 44.32 98.8507 44.49 98.7207 44.59C98.7107 44.59 98.6907 44.61 98.6707 44.61C98.6207 44.61 98.6107 44.55 98.6107 44.51C98.5907 44.35 98.5107 44.2 98.3907 44.1C98.3007 44.02 98.1707 44 98.0507 44V44.02Z" fill="white"/><path d="M98.5707 57.66L96.1707 57.72C96.0807 57.31 95.9907 56.9 95.8907 56.49C95.8507 56.34 95.8207 56.18 95.8407 56.02C95.8607 55.88 95.9207 55.76 95.9907 55.64C96.1807 55.33 96.4607 55.08 96.6607 54.78C96.8707 54.46 96.9707 54.09 97.0707 53.73C97.0907 53.66 97.1107 53.58 97.1307 53.5C97.2007 53.21 97.2807 52.88 97.3507 52.61C97.3107 52.8 97.4407 52.96 97.5407 53.11C97.7207 53.41 97.8007 53.76 97.8707 54.09C98.1307 55.28 98.3607 56.47 98.5707 57.66Z" fill="#003B2F"/><path d="M98.2107 41.93C98.3407 42.13 98.3206 42.41 98.1706 42.58C97.9906 42.58 97.8106 42.51 97.6806 42.39C97.5206 42.22 97.4707 41.96 97.5307 41.73C97.7507 41.65 98.0707 41.73 98.2107 41.93Z" fill="#003B2F"/><path d="M95.8607 38.35C96.3907 38.97 96.9207 39.59 97.4507 40.22C97.1907 40.83 97.1607 41.8 97.4907 42.37C97.6307 42.63 97.8407 42.87 97.8207 43.17C97.8207 43.31 97.7507 43.44 97.6707 43.55C97.3607 43.63 97.0607 43.75 96.8107 43.91C96.4707 43.91 96.1207 43.77 95.8407 43.58C95.3807 43.27 95.0207 42.82 94.6107 42.45C94.0707 41.96 93.4007 41.58 92.6807 41.44C91.9607 41.3 91.1807 41.42 90.5807 41.82C90.1107 42.13 89.7607 42.58 89.4107 43.02C88.6107 44 87.7307 44.91 86.7907 45.75C86.3507 46.14 85.8707 46.54 85.7107 47.11C85.6107 47.45 85.6407 47.82 85.6907 48.17C85.9207 49.72 86.6307 51.25 87.6907 52.41C87.5607 52.37 87.4307 52.33 87.3007 52.28C86.3207 51.94 85.3807 51.48 84.5107 50.92C83.9307 50.55 83.3707 50.13 82.9107 49.61C82.8907 49.58 82.8607 49.55 82.8307 49.52C82.0307 48.57 81.6107 47.32 81.6407 46.07C81.6707 44.83 82.1407 43.57 82.9307 42.6C82.8907 42.46 82.8607 42.32 82.8307 42.19C82.7407 41.79 82.6507 41.38 82.6607 40.97C82.6607 40.61 82.7507 40.26 82.8307 39.92C82.9807 39.28 83.1307 38.63 83.3807 38.03C83.6307 37.42 83.9907 36.85 84.4907 36.43C85.2507 36.94 85.9607 37.52 86.6207 38.15C87.9307 37.41 89.3207 36.92 90.8207 36.75C91.1707 36.71 91.5307 36.68 91.8307 36.51C92.0607 36.37 92.2307 36.17 92.4107 35.98C92.9207 35.44 93.5207 35 94.1207 34.55C94.4107 35.2 94.9007 35.72 95.3007 36.3C95.7107 36.88 96.0007 37.67 95.8807 38.36L95.8607 38.35ZM94.5707 37.66C94.3107 37.32 94.0507 36.98 93.9007 36.58C93.8307 36.4 93.7907 36.21 93.7907 36.01C93.7907 35.9 93.8807 35.63 93.7907 35.55C93.6207 35.39 93.2207 36.12 93.1407 36.24C93.0007 36.46 92.8807 36.72 93.0007 36.95C93.0707 37.1 93.2307 37.18 93.3807 37.25C93.7607 37.44 94.1507 37.63 94.5607 37.66H94.5707ZM85.0507 41.85C85.6007 41.32 86.1507 40.78 86.7007 40.26C86.3307 40.36 85.9507 40.47 85.5807 40.57C85.4307 40.62 85.2507 40.66 85.1107 40.57C84.9807 40.5 84.9207 40.36 84.8807 40.23C84.7207 39.8 84.6407 39.34 84.6307 38.88C84.6307 38.77 84.7207 38.29 84.6507 38.22C84.5107 38.09 84.4007 38.51 84.3807 38.59C84.1407 39.66 84.2407 40.8 84.6607 41.81C84.6807 41.87 84.7107 41.93 84.7707 41.96C84.8707 42.01 84.9807 41.93 85.0607 41.85H85.0507Z" fill="#03FC9D"/><path d="M97.3906 52.42C97.3906 52.48 97.3606 52.54 97.3506 52.6C97.2906 52.88 97.2106 53.2 97.1306 53.5C97.1006 53.4 97.0106 53.29 96.9106 53.24C96.8206 53.19 96.7206 53.17 96.6206 53.14C96.3906 53.08 96.1306 53.03 95.9006 52.97C95.9006 52.96 95.9006 52.95 95.9106 52.93C96.1506 52.58 96.3106 52.16 96.3306 51.78C96.5006 51.71 96.6806 51.63 96.8406 51.55C96.9906 51.77 97.1506 52 97.3106 52.22C97.3506 52.28 97.3906 52.34 97.3906 52.41V52.42Z" fill="#003B2F"/><path d="M94.5806 56.61C94.5806 56.53 94.5806 56.45 94.6006 56.37C94.6306 56.17 94.6806 55.97 94.7506 55.78C94.7806 55.68 94.8206 55.58 94.8506 55.48C94.9106 55.32 94.9706 55.16 95.0506 55C95.1206 54.87 95.1906 54.74 95.2706 54.61C95.5306 54.13 95.7206 53.5 95.9106 52.98C96.1406 53.04 96.3906 53.09 96.6306 53.15C96.7306 53.17 96.8406 53.2 96.9206 53.25C97.0106 53.3 97.1006 53.4 97.1406 53.51C97.1206 53.59 97.1006 53.67 97.0806 53.74C96.9806 54.1 96.8706 54.47 96.6706 54.79C96.4706 55.1 96.1906 55.35 96.0006 55.65C95.9306 55.77 95.8606 55.89 95.8506 56.03C95.8306 56.19 95.8606 56.35 95.9006 56.5C95.9906 56.91 96.0806 57.32 96.1806 57.73L94.5206 57.77C94.6306 57.4 94.5806 57 94.5906 56.62L94.5806 56.61Z" fill="#003B2F"/><path d="M96.0907 51.88C96.1707 51.85 96.2506 51.81 96.3206 51.78C96.3106 52.16 96.1406 52.58 95.9007 52.93C95.7607 53.13 95.6107 53.3 95.4407 53.43C94.9707 53.8 94.3907 54.01 93.8107 54.12C92.4107 54.39 90.9607 54.16 89.5907 53.8C89.2807 53.72 88.9607 53.63 88.6707 53.48C89.5407 53.65 90.4907 53.79 91.3807 53.85C92.2707 53.91 93.1807 53.85 94.0207 53.54C94.8607 53.24 95.6307 52.64 96.0907 51.88Z" fill="#E6E8EA"/><path d="M88.6807 53.48C88.9707 53.62 89.2807 53.72 89.6007 53.8C90.9707 54.16 92.4207 54.39 93.8207 54.12C94.4007 54.01 94.9807 53.8 95.4507 53.43C95.6207 53.3 95.7707 53.13 95.9107 52.93C95.9107 52.93 95.9107 52.96 95.9007 52.97C95.7107 53.48 95.5207 54.12 95.2607 54.6C95.1907 54.73 95.1107 54.86 95.0407 54.99C94.9707 55.15 94.9007 55.31 94.8407 55.47C94.8007 55.57 94.7707 55.67 94.7407 55.77H94.7207C93.7407 56.21 92.6307 56.36 91.5607 56.19C91.4307 56.17 91.3007 56.14 91.1707 56.12C90.9507 56.08 90.6607 56.03 90.4507 55.99C90.3807 55.92 90.3107 55.84 90.2307 55.77C89.8307 55.41 89.3607 55.12 88.9407 54.78C88.6407 54.53 88.3707 54.25 88.1007 53.97C87.9107 53.76 87.7107 53.56 87.5607 53.33C87.5407 53.3 87.5107 53.26 87.4907 53.23C87.3307 52.96 87.2107 52.6 87.2507 52.29C87.3807 52.34 87.5107 52.38 87.6407 52.42C87.6807 52.43 87.7307 52.45 87.7707 52.46C87.8907 52.82 88.2007 53.23 88.5307 53.42C88.5807 53.45 88.6207 53.47 88.6707 53.49L88.6807 53.48Z" fill="#003B2F"/><path d="M94.7307 55.77H94.7507C94.6807 55.97 94.6307 56.17 94.6007 56.37C94.6007 56.45 94.5807 56.53 94.5807 56.61C93.4607 56.84 92.3207 56.95 91.1807 56.9C90.9607 56.57 90.7307 56.26 90.4607 55.98C90.6807 56.02 90.9707 56.07 91.1807 56.11C91.3107 56.13 91.4407 56.16 91.5707 56.18C92.6407 56.35 93.7507 56.2 94.7307 55.75V55.77Z" fill="#003B2F"/><path d="M94.5807 56.61C94.5707 56.99 94.6107 57.39 94.5107 57.76L91.7207 57.83C91.6607 57.63 91.5507 57.46 91.4307 57.28C91.3507 57.15 91.2607 57.03 91.1807 56.91C92.3307 56.95 93.4707 56.85 94.5807 56.62V56.61Z" fill="#003B2F"/><path d="M93.9006 36.58C94.0506 36.98 94.3106 37.32 94.5706 37.66C94.1506 37.63 93.7706 37.44 93.3906 37.25C93.2406 37.18 93.0806 37.1 93.0106 36.95C92.8906 36.72 93.0106 36.45 93.1506 36.24C93.2306 36.11 93.6306 35.38 93.8006 35.55C93.8806 35.63 93.7906 35.91 93.8006 36.01C93.8006 36.21 93.8406 36.4 93.9106 36.58H93.9006Z" fill="#003B2F"/><path d="M93.2707 42.75C93.4407 43 93.5107 43.33 93.4007 43.61C93.3107 43.84 93.1107 44.02 92.8807 44.12C92.6507 44.22 92.3907 44.25 92.1407 44.24C91.8707 44.24 91.6007 44.19 91.3407 44.11C91.5507 44.13 91.6907 44.02 91.8107 43.84C91.9307 43.66 91.9407 43.41 91.8207 43.21C91.6907 43 91.4507 42.88 91.2007 42.85C90.9507 42.83 90.6907 42.88 90.4507 42.93C90.4507 42.79 90.5107 42.67 90.6607 42.57C90.9607 42.36 91.2907 42.26 91.6407 42.21C91.9407 42.18 92.2507 42.17 92.5407 42.25C92.8307 42.33 93.1107 42.49 93.2807 42.73L93.2707 42.75Z" fill="white"/><path d="M91.8207 43.22C91.9307 43.41 91.9307 43.66 91.8107 43.85C91.6907 44.03 91.5507 44.14 91.3407 44.12H91.3307C91.3307 44.12 91.2707 44.1 91.2507 44.09C91.0807 44.03 90.9107 43.95 90.7807 43.82C90.6407 43.68 90.5707 43.48 90.5107 43.28C90.4707 43.16 90.4407 43.04 90.4507 42.94C90.6907 42.89 90.9507 42.84 91.2007 42.86C91.4507 42.89 91.7007 43 91.8207 43.22Z" fill="#003B2F"/><path d="M91.7207 57.83L87.7007 57.93C87.6707 57.36 87.5407 56.79 87.2707 56.29C87.0407 55.87 86.7107 55.51 86.3907 55.16C86.1207 54.87 85.8607 54.58 85.5807 54.29C86.2207 53.98 86.9207 53.64 87.5507 53.33C87.7007 53.56 87.9007 53.76 88.0907 53.97C88.3607 54.25 88.6307 54.53 88.9307 54.78C89.3507 55.13 89.8207 55.41 90.2207 55.77C90.2907 55.84 90.3707 55.91 90.4407 55.99C90.7107 56.27 90.9407 56.58 91.1607 56.9C91.2407 57.03 91.3307 57.15 91.4107 57.27C91.5307 57.44 91.6407 57.62 91.7007 57.82L91.7207 57.83ZM88.3707 57.9C89.0907 57.83 89.8307 57.81 90.5607 57.83C90.3407 57.69 90.3407 57.38 90.3507 57.12V57.1C90.3607 56.84 90.3707 56.56 90.1807 56.39C90.0407 56.27 89.8407 56.25 89.6507 56.25C89.3507 56.25 89.0607 56.23 88.7607 56.23C88.5707 56.23 88.3507 56.23 88.2707 56.44C88.2707 56.44 88.2707 56.44 88.2707 56.46C88.2207 56.7 88.3707 57.88 88.3707 57.88V57.9Z" fill="#003B2F"/><path d="M90.5707 57.84C89.8407 57.82 89.1007 57.84 88.3807 57.91C88.3807 57.91 88.2307 56.73 88.2807 56.49C88.3207 56.75 88.5007 56.97 88.7207 57.1C88.9607 57.24 89.2507 57.29 89.5307 57.28C89.8107 57.27 90.0907 57.2 90.3607 57.11V57.13C90.3407 57.39 90.3607 57.7 90.5707 57.84Z" fill="#003B2F"/><path d="M90.1906 56.4C90.3906 56.56 90.3806 56.85 90.3606 57.11C90.0906 57.19 89.8106 57.26 89.5306 57.28C89.2506 57.3 88.9606 57.25 88.7206 57.1C88.5006 56.96 88.3206 56.74 88.2806 56.49C88.2806 56.49 88.2806 56.48 88.2806 56.47C88.3606 56.27 88.5806 56.26 88.7706 56.26C89.0706 56.26 89.3606 56.26 89.6606 56.28C89.8506 56.28 90.0506 56.29 90.1906 56.42V56.4Z" fill="#003B2F"/><path d="M87.7107 57.93L80.2207 58.11C79.9907 57.57 79.9307 56.85 80.1007 56.29C80.1707 56.06 80.2707 55.85 80.3207 55.62C80.3707 55.37 80.3607 55.12 80.3907 54.86C80.4307 54.52 80.5307 54.19 80.6707 53.87C80.7307 53.71 80.8007 53.56 80.8707 53.4C81.0907 52.91 81.3007 52.43 81.5107 51.95C81.5807 51.81 81.6407 51.66 81.6407 51.5C81.6407 51.45 81.6407 51.39 81.6407 51.34C82.4507 51.74 83.2707 52.25 83.9907 52.8C84.5707 53.24 85.0907 53.75 85.5907 54.28C85.8707 54.57 86.1307 54.86 86.4007 55.15C86.7207 55.51 87.0507 55.86 87.2807 56.28C87.5507 56.78 87.6807 57.35 87.7107 57.92V57.93Z" fill="#003B2F"/><path d="M87.5706 53.33C86.9306 53.64 86.2406 53.98 85.6006 54.29C85.1006 53.76 84.5706 53.25 84.0006 52.81C83.2806 52.25 82.4606 51.75 81.6506 51.35C81.6506 51.29 81.6506 51.23 81.6506 51.18C81.6506 50.85 81.9006 50.57 82.1506 50.37C82.4106 50.16 82.7306 49.91 82.9006 49.63C83.3606 50.15 83.9106 50.57 84.5006 50.94C85.3706 51.5 86.3106 51.96 87.2906 52.3C87.2506 52.62 87.3606 52.97 87.5306 53.24C87.5506 53.27 87.5706 53.31 87.6006 53.34L87.5706 53.33Z" fill="#003B2F"/><path d="M86.6907 40.26C86.1407 40.79 85.5907 41.32 85.0407 41.85C84.9607 41.93 84.8407 42.01 84.7507 41.96C84.6907 41.93 84.6607 41.87 84.6407 41.81C84.2107 40.8 84.1207 39.66 84.3607 38.59C84.3807 38.51 84.5007 38.09 84.6307 38.22C84.7007 38.29 84.6107 38.77 84.6107 38.88C84.6107 39.34 84.7007 39.8 84.8607 40.23C84.9107 40.36 84.9707 40.5 85.0907 40.57C85.2307 40.65 85.4107 40.61 85.5607 40.57C85.9307 40.47 86.3107 40.36 86.6807 40.26H86.6907Z" fill="#003B2F"/><path d="M88.0207 39.66C87.5807 39.12 87.0907 38.61 86.5907 38.14C85.9307 37.51 85.2207 36.93 84.4607 36.42C83.9607 36.84 83.6007 37.42 83.3507 38.02C83.1007 38.63 82.9507 39.27 82.8007 39.91C82.7207 40.26 82.6407 40.61 82.6307 40.96C82.6307 41.37 82.7107 41.78 82.8007 42.18C82.8307 42.32 82.8607 42.46 82.9007 42.59C83.0207 43.03 83.2007 43.45 83.5707 43.69" stroke="#003B2F" stroke-width="0.3" stroke-linecap="round" stroke-linejoin="round"/><path d="M86.6007 38.14C87.9107 37.41 89.3007 36.91 90.8007 36.74C91.1507 36.7 91.5107 36.67 91.8107 36.5C92.0407 36.36 92.2107 36.16 92.3907 35.97C92.9007 35.43 93.5007 34.99 94.1007 34.54C94.3907 35.19 94.8807 35.71 95.2807 36.29C95.6907 36.87 95.9807 37.66 95.8607 38.35" stroke="#003B2F" stroke-width="0.3" stroke-linecap="round" stroke-linejoin="round"/><path d="M93.9006 36.58C94.0506 36.98 94.3106 37.32 94.5706 37.66C94.1506 37.63 93.7706 37.44 93.3906 37.25C93.2406 37.18 93.0806 37.1 93.0106 36.95C92.8906 36.72 93.0106 36.45 93.1506 36.24C93.2306 36.11 93.6306 35.38 93.8006 35.55C93.8806 35.63 93.7906 35.91 93.8006 36.01C93.8006 36.21 93.8406 36.4 93.9106 36.58H93.9006Z" stroke="#003B2F" stroke-width="0.3" stroke-linecap="round" stroke-linejoin="round"/><path d="M84.8606 40.24C84.9106 40.37 84.9706 40.51 85.0906 40.58C85.2306 40.66 85.4106 40.62 85.5606 40.58C85.9306 40.48 86.3106 40.37 86.6806 40.27C86.1306 40.8 85.5806 41.33 85.0306 41.86C84.9506 41.94 84.8306 42.02 84.7406 41.97C84.6806 41.94 84.6506 41.88 84.6306 41.82C84.2006 40.81 84.1106 39.67 84.3506 38.6C84.3706 38.52 84.4906 38.1 84.6206 38.23C84.6906 38.3 84.6006 38.78 84.6006 38.89C84.6006 39.35 84.6906 39.81 84.8506 40.24H84.8606Z" stroke="#003B2F" stroke-width="0.3" stroke-linecap="round" stroke-linejoin="round"/><path d="M95.3007 37.7C95.4807 37.92 95.6707 38.13 95.8507 38.35C96.3807 38.97 96.9107 39.59 97.4407 40.22C97.6507 40.46 97.8507 40.7 98.0607 40.94C98.4107 41.34 98.7507 41.75 99.0907 42.16C99.2807 42.38 99.4707 42.61 99.6707 42.84C100.081 43.32 100.481 43.8 100.751 44.36C101.261 45.42 101.231 46.7 100.801 47.8C100.371 48.89 99.5607 49.82 98.6107 50.52C98.0607 50.93 97.4707 51.26 96.8507 51.55C96.6807 51.63 96.5107 51.71 96.3407 51.78C96.2707 51.81 96.1907 51.85 96.1107 51.88C95.9007 51.96 95.6907 52.04 95.4807 52.12" stroke="#003B2F" stroke-width="0.3" stroke-linecap="round" stroke-linejoin="round"/><path d="M91.8506 52.91C90.4806 53.02 89.1006 52.85 87.7806 52.45C87.7406 52.45 87.6906 52.43 87.6506 52.41C87.5206 52.37 87.3906 52.33 87.2606 52.28C86.2806 51.94 85.3406 51.48 84.4706 50.92C83.8906 50.55 83.3306 50.13 82.8706 49.61C82.8506 49.58 82.8206 49.55 82.7906 49.52C81.9906 48.57 81.5706 47.32 81.6006 46.07C81.6306 44.83 82.1006 43.57 82.8906 42.6" stroke="#003B2F" stroke-width="0.3" stroke-linecap="round" stroke-linejoin="round"/><path d="M96.8006 43.92C96.6706 44.01 96.5506 44.11 96.4406 44.22C96.3506 44.31 96.2806 44.43 96.2506 44.55C96.2106 44.78 96.3507 45.01 96.5307 45.16C96.7407 45.32 96.9806 45.41 97.2306 45.5C97.4706 45.59 97.7207 45.69 97.9207 45.86C98.1107 46.03 98.2406 46.3 98.1806 46.55C98.1306 46.77 97.9606 46.93 97.7906 47.07C97.5306 47.29 97.2506 47.5 96.9706 47.7C97.2406 47.7 97.4806 47.54 97.6906 47.37C97.9006 47.2 98.1106 47.02 98.3606 46.95C98.8106 46.83 99.2707 47.1 99.7407 47.09C99.8207 47.09 99.9307 47.06 99.9607 46.98C99.9707 46.91 99.9207 46.84 99.8507 46.81C99.7807 46.78 99.7107 46.79 99.6407 46.79C99.2907 46.79 98.9207 46.72 98.6707 46.47C98.3807 46.19 98.3306 45.74 98.5806 45.43C98.8606 45.07 99.1806 44.72 99.2306 44.23C99.2506 43.98 99.1806 43.71 98.9806 43.55C98.7606 43.38 98.4606 43.41 98.1906 43.45C98.0206 43.48 97.8506 43.51 97.6906 43.55C97.3806 43.63 97.0806 43.75 96.8306 43.91L96.8006 43.92Z" stroke="#003B2F" stroke-width="0.3" stroke-linecap="round" stroke-linejoin="round"/><path d="M98.0406 44.02C98.0406 44.02 97.9607 44.02 97.9207 44.02" stroke="#003B2F" stroke-width="0.3" stroke-linecap="round" stroke-linejoin="round"/><path d="M98.1007 44.02H98.0507M98.0507 44.02C97.8807 44.02 97.7107 44.08 97.5507 44.11C97.5107 44.11 97.4507 44.11 97.4507 44.07C97.4507 44.05 97.4707 44.03 97.4907 44.01C97.6907 43.9 97.9007 43.81 98.1107 43.76C98.2807 43.72 98.4607 43.7 98.6207 43.76C98.7707 43.83 98.8907 43.98 98.9107 44.15C98.9307 44.32 98.8507 44.49 98.7207 44.59C98.7107 44.59 98.6907 44.61 98.6707 44.61C98.6207 44.61 98.6107 44.55 98.6107 44.51C98.5907 44.35 98.5107 44.2 98.3907 44.1C98.3007 44.02 98.1707 44 98.0507 44V44.02Z" stroke="#003B2F" stroke-width="0.3" stroke-linecap="round" stroke-linejoin="round"/><path d="M91.3207 44.12C91.3207 44.12 91.2607 44.1 91.2407 44.09C91.0707 44.03 90.9007 43.95 90.7707 43.82C90.6307 43.68 90.5607 43.48 90.5007 43.28C90.4607 43.16 90.4307 43.04 90.4407 42.94C90.4407 42.8 90.5007 42.68 90.6507 42.58C90.9507 42.37 91.2807 42.27 91.6307 42.22C91.9307 42.19 92.2407 42.18 92.5307 42.26C92.8207 42.34 93.1007 42.5 93.2707 42.74C93.4407 42.99 93.5107 43.32 93.4007 43.6C93.3107 43.83 93.1107 44.01 92.8807 44.11C92.6507 44.21 92.3907 44.24 92.1407 44.23C91.8707 44.23 91.6007 44.18 91.3407 44.1" stroke="#003B2F" stroke-width="0.3" stroke-linecap="round" stroke-linejoin="round"/><path d="M90.4407 42.94C90.6807 42.89 90.9407 42.84 91.1907 42.86C91.4407 42.89 91.6907 43 91.8107 43.22C91.9207 43.41 91.9207 43.66 91.8007 43.85C91.6807 44.03 91.5407 44.14 91.3307 44.12H91.3207" stroke="#003B2F" stroke-width="0.3" stroke-linecap="round" stroke-linejoin="round"/><path d="M98.0007 41C97.8107 41.19 97.6407 41.4 97.5507 41.65C97.5507 41.67 97.5407 41.7 97.5307 41.73C97.4807 41.96 97.5307 42.23 97.6807 42.39C97.8107 42.52 97.9807 42.58 98.1707 42.58C98.2507 42.58 98.3407 42.58 98.4207 42.55C98.6707 42.48 98.8907 42.33 99.0907 42.16" stroke="#003B2F" stroke-width="0.3" stroke-linecap="round" stroke-linejoin="round"/><path d="M97.5306 41.73C97.7506 41.65 98.0706 41.73 98.2106 41.93C98.3406 42.13 98.3206 42.41 98.1706 42.58" stroke="#003B2F" stroke-width="0.3" stroke-linecap="round" stroke-linejoin="round"/><path d="M97.4406 40.22C97.1806 40.83 97.1506 41.8 97.4806 42.37C97.6206 42.63 97.8306 42.87 97.8106 43.17C97.8106 43.31 97.7406 43.44 97.6606 43.55" stroke="#003B2F" stroke-width="0.3" stroke-linecap="round" stroke-linejoin="round"/><path d="M87.6507 52.41C86.5907 51.26 85.8907 49.73 85.6507 48.17C85.5907 47.81 85.5707 47.45 85.6707 47.11C85.8307 46.54 86.3107 46.14 86.7507 45.75C87.6907 44.92 88.5707 44.01 89.3707 43.02C89.7307 42.59 90.0807 42.13 90.5407 41.82C91.1507 41.41 91.9307 41.3 92.6407 41.44C93.3607 41.58 94.0207 41.95 94.5707 42.45C94.9807 42.82 95.3407 43.27 95.8007 43.58C96.0907 43.77 96.4407 43.9 96.7707 43.91" stroke="#003B2F" stroke-width="0.3" stroke-linecap="round" stroke-linejoin="round"/><path d="M80.2207 58.11C79.9907 57.57 79.9307 56.85 80.1007 56.29C80.1707 56.06 80.2707 55.85 80.3207 55.62C80.3707 55.37 80.3607 55.12 80.3907 54.86C80.4307 54.52 80.5307 54.19 80.6707 53.87C80.7307 53.71 80.8007 53.56 80.8707 53.4C81.0907 52.91 81.3007 52.43 81.5107 51.95C81.5807 51.81 81.6407 51.66 81.6407 51.5C81.6407 51.45 81.6407 51.39 81.6407 51.34C81.6407 51.28 81.6407 51.22 81.6407 51.17C81.6407 50.84 81.8907 50.56 82.1407 50.36C82.4007 50.15 82.7207 49.9 82.8907 49.62" stroke="#003B2F" stroke-width="0.3" stroke-linecap="round" stroke-linejoin="round"/><path d="M87.7106 57.93C87.6806 57.36 87.5506 56.79 87.2806 56.29C87.0506 55.87 86.7206 55.51 86.4006 55.16C86.1306 54.87 85.8706 54.58 85.5906 54.29C85.0906 53.76 84.5606 53.25 83.9906 52.81C83.2706 52.25 82.4506 51.75 81.6406 51.35" stroke="#003B2F" stroke-width="0.3" stroke-linecap="round" stroke-linejoin="round"/><path d="M91.1807 56.91C91.2607 57.04 91.3507 57.16 91.4307 57.28C91.5507 57.45 91.6607 57.63 91.7207 57.83" stroke="#003B2F" stroke-width="0.3" stroke-linecap="round" stroke-linejoin="round"/><path d="M87.2707 52.29C87.2307 52.61 87.3407 52.96 87.5107 53.23C87.5307 53.26 87.5507 53.3 87.5807 53.33C87.7307 53.56 87.9307 53.76 88.1207 53.97C88.3907 54.25 88.6607 54.53 88.9607 54.78C89.3807 55.13 89.8507 55.41 90.2507 55.77C90.3207 55.84 90.4007 55.91 90.4707 55.99C90.7407 56.27 90.9707 56.58 91.1907 56.9" stroke="#003B2F" stroke-width="0.3" stroke-linecap="round" stroke-linejoin="round"/><path d="M85.5907 54.29C86.2307 53.98 86.9307 53.64 87.5607 53.33" stroke="#003B2F" stroke-width="0.3" stroke-linecap="round" stroke-linejoin="round"/><path d="M88.2707 56.47C88.2707 56.47 88.2707 56.46 88.2707 56.45C88.3507 56.25 88.5707 56.24 88.7607 56.24C89.0607 56.24 89.3507 56.24 89.6507 56.26C89.8407 56.26 90.0407 56.27 90.1807 56.4C90.3807 56.56 90.3707 56.85 90.3507 57.11V57.13C90.3307 57.39 90.3507 57.7 90.5607 57.84C89.8307 57.82 89.0907 57.84 88.3707 57.91C88.3707 57.91 88.2207 56.73 88.2707 56.49" stroke="#003B2F" stroke-width="0.3" stroke-linecap="round" stroke-linejoin="round"/><path d="M90.3606 57.1C90.0906 57.18 89.8106 57.25 89.5306 57.27C89.2506 57.29 88.9606 57.24 88.7206 57.09C88.5006 56.95 88.3206 56.73 88.2806 56.48" stroke="#003B2F" stroke-width="0.3" stroke-linecap="round" stroke-linejoin="round"/><path d="M87.7906 52.45C87.9106 52.81 88.2207 53.21 88.5507 53.4C88.6007 53.43 88.6407 53.45 88.6907 53.47C88.9807 53.61 89.2906 53.71 89.6106 53.79C90.9806 54.15 92.4307 54.38 93.8307 54.11C94.4107 54 94.9907 53.79 95.4607 53.42C95.6307 53.29 95.7807 53.12 95.9207 52.92C96.1607 52.57 96.3207 52.16 96.3407 51.77" stroke="#003B2F" stroke-width="0.3" stroke-linecap="round" stroke-linejoin="round"/><path d="M96.0906 51.88C95.6306 52.64 94.8706 53.24 94.0206 53.54C93.1806 53.84 92.2706 53.9 91.3806 53.85C90.4906 53.79 89.5406 53.65 88.6706 53.48C88.6706 53.48 88.6706 53.48 88.6606 53.48" stroke="#003B2F" stroke-width="0.3" stroke-linecap="round" stroke-linejoin="round"/><path d="M95.9207 52.94C95.9207 52.94 95.9207 52.96 95.9107 52.98C95.7207 53.49 95.5307 54.13 95.2707 54.61C95.2007 54.74 95.1207 54.87 95.0507 55C94.9807 55.16 94.9107 55.32 94.8507 55.48C94.8107 55.58 94.7807 55.68 94.7507 55.78C94.6807 55.98 94.6307 56.17 94.6007 56.37C94.6007 56.45 94.5807 56.53 94.5807 56.61C94.5707 56.99 94.6107 57.39 94.5107 57.76C94.5107 57.78 94.5107 57.8 94.5007 57.82" stroke="#003B2F" stroke-width="0.3" stroke-linecap="round" stroke-linejoin="round"/><path d="M94.7307 55.77C93.7507 56.21 92.6407 56.37 91.5707 56.2C91.4407 56.18 91.3107 56.15 91.1807 56.13C90.9607 56.09 90.6707 56.04 90.4607 56" stroke="#003B2F" stroke-width="0.3" stroke-linecap="round" stroke-linejoin="round"/><path d="M91.1707 56.91C92.3207 56.95 93.4606 56.85 94.5706 56.62C94.5706 56.62 94.5907 56.62 94.6007 56.62" stroke="#003B2F" stroke-width="0.3" stroke-linecap="round" stroke-linejoin="round"/><path d="M97.3507 52.6C97.2907 52.87 97.2107 53.2 97.1307 53.49C97.1107 53.57 97.0907 53.65 97.0707 53.72C96.9707 54.08 96.8607 54.45 96.6607 54.77C96.4607 55.08 96.1807 55.33 95.9907 55.63C95.9207 55.75 95.8507 55.87 95.8407 56.01C95.8207 56.17 95.8507 56.33 95.8907 56.48C95.9807 56.89 96.0707 57.3 96.1707 57.71C96.1707 57.74 96.1807 57.76 96.1907 57.79" stroke="#003B2F" stroke-width="0.3" stroke-linecap="round" stroke-linejoin="round"/><path d="M95.9106 52.97C96.1406 53.03 96.3906 53.08 96.6306 53.14C96.7306 53.16 96.8406 53.19 96.9206 53.24C97.0106 53.29 97.1006 53.39 97.1406 53.5" stroke="#003B2F" stroke-width="0.3" stroke-linecap="round" stroke-linejoin="round"/><path d="M102.191 55.3C102.121 55.34 102.051 55.39 101.991 55.44C101.731 55.68 101.561 56.08 101.561 56.44" stroke="#003B2F" stroke-width="0.3" stroke-linecap="round" stroke-linejoin="round"/><path d="M102.981 55.82C102.581 55.7 102.131 55.87 101.821 56.15C101.731 56.23 101.641 56.33 101.561 56.44C101.511 56.5 101.471 56.57 101.421 56.63C101.301 56.81 101.201 57 101.111 57.19C101.041 57.34 100.971 57.55 101.091 57.67C101.161 57.74 101.281 57.75 101.381 57.75C102.471 57.78 103.571 57.82 104.671 57.85C104.601 57.27 104.541 56.68 104.291 56.15C104.101 55.77 103.801 55.43 103.431 55.25C103.291 55.18 103.141 55.13 102.981 55.11C102.711 55.08 102.431 55.15 102.191 55.28" stroke="#003B2F" stroke-width="0.3" stroke-linecap="round" stroke-linejoin="round"/><path d="M103.111 49.71C103.111 49.57 103.111 49.32 103.101 49.18C102.591 49.13 102.051 49.21 101.581 49.41C101.581 49.63 101.581 49.86 101.581 50.09C101.581 50.32 101.581 50.54 101.581 50.77C101.581 51.01 101.581 51.26 101.581 51.5C101.581 52 101.581 52.5 101.541 53C101.471 54.2 101.251 55.45 101.451 56.63" stroke="#003B2F" stroke-width="0.3" stroke-linecap="round" stroke-linejoin="round"/><path d="M102.191 55.3C101.981 53.45 102.061 51.48 102.451 49.68C102.671 49.73 102.891 49.73 103.111 49.72C103.281 49.72 103.451 49.71 103.621 49.72C104.011 49.75 104.451 49.92 104.581 50.29C104.651 50.49 104.621 50.71 104.551 50.91C104.521 51 104.481 51.08 104.441 51.17C104.391 51.28 104.341 51.38 104.301 51.49C104.221 51.68 104.161 51.87 104.111 52.07C104.081 52.21 104.051 52.35 104.021 52.48C104.021 52.51 104.021 52.53 104.001 52.56C103.931 52.91 103.861 53.27 103.781 53.63C103.661 54.18 103.541 54.74 103.431 55.26" stroke="#003B2F" stroke-width="0.3" stroke-linecap="round" stroke-linejoin="round"/><path d="M104.111 52.06C103.771 51.64 103.261 51.37 102.721 51.31C102.791 50.96 102.821 50.6 102.821 50.24C103.421 50.37 104.021 50.71 104.441 51.16" stroke="#003B2F" stroke-width="0.3" stroke-linecap="round" stroke-linejoin="round"/><path d="M104.001 52.55C103.821 52.34 103.571 52.2 103.301 52.14" stroke="#003B2F" stroke-width="0.3" stroke-linecap="round" stroke-linejoin="round"/><path d="M103.911 52.96C103.621 52.67 103.251 52.45 102.861 52.33" stroke="#003B2F" stroke-width="0.3" stroke-linecap="round" stroke-linejoin="round"/><path d="M103.291 53.38C103.461 53.38 103.661 53.49 103.771 53.62" stroke="#003B2F" stroke-width="0.3" stroke-linecap="round" stroke-linejoin="round"/><path d="M102.681 53.93C102.991 54.07 103.301 54.22 103.601 54.39" stroke="#003B2F" stroke-width="0.3" stroke-linecap="round" stroke-linejoin="round"/><path d="M102.611 53.41C102.771 53.41 102.931 53.49 103.031 53.62" stroke="#003B2F" stroke-width="0.3" stroke-linecap="round" stroke-linejoin="round"/><path d="M102.631 53.01C102.751 53.01 102.871 53.06 102.961 53.14" stroke="#003B2F" stroke-width="0.3" stroke-linecap="round" stroke-linejoin="round"/><path d="M102.631 51.76C102.771 51.82 102.921 51.88 103.061 51.94" stroke="#003B2F" stroke-width="0.3" stroke-linecap="round" stroke-linejoin="round"/><path d="M101.571 50.09C101.731 50.09 101.921 50.07 102.081 50.06" stroke="#003B2F" stroke-width="0.3" stroke-linecap="round" stroke-linejoin="round"/><path d="M101.821 50.4C101.931 50.41 101.961 50.42 102.041 50.43" stroke="#003B2F" stroke-width="0.3" stroke-linecap="round" stroke-linejoin="round"/><path d="M101.561 50.77C101.681 50.77 101.821 50.77 101.941 50.76" stroke="#003B2F" stroke-width="0.3" stroke-linecap="round" stroke-linejoin="round"/><path d="M101.761 52.21C101.861 52.21 102.011 52.18 102.111 52.17" stroke="#003B2F" stroke-width="0.3" stroke-linecap="round" stroke-linejoin="round"/><path d="M107.721 57.43H76.7908V60.18H107.721V57.43Z" fill="#03FC9D"/><path d="M107.721 57.43H76.7908V60.18H107.721V57.43Z" stroke="#003B2F" stroke-width="0.3" stroke-linecap="round" stroke-linejoin="round"/><path d="M101.161 29.99L101.681 30.6C101.741 30.67 101.791 30.72 101.811 30.76C101.971 30.92 102.051 31.13 102.051 31.34C102.031 31.6 101.871 31.77 101.711 31.96L101.341 32.39L101.151 32.61C101.151 32.61 101.141 32.63 101.141 32.64C101.141 32.65 101.141 32.66 101.141 32.67C101.141 32.68 101.151 32.69 101.161 32.69C101.161 32.69 101.181 32.69 101.191 32.69H103.091C103.381 32.69 103.751 32.93 103.721 33.3C103.721 33.47 103.651 33.63 103.531 33.75C103.411 33.87 103.241 33.94 103.071 33.94H100.091C99.8907 33.94 99.3707 33.96 99.2207 33.51C99.1907 33.42 99.1807 33.32 99.2107 33.22C99.2507 33.08 99.3207 32.94 99.4107 32.82C99.5607 32.6 99.7207 32.38 99.8807 32.16C100.091 31.88 100.301 31.61 100.511 31.32C100.511 31.31 100.521 31.3 100.521 31.29C100.521 31.28 100.521 31.27 100.511 31.26L99.7507 30.37C99.7507 30.37 99.7407 30.36 99.7307 30.35H99.7107H99.6907C99.6907 30.35 99.6807 30.35 99.6707 30.37C99.4707 30.64 98.5807 31.83 98.3907 32.08C98.2007 32.32 97.7307 32.34 97.4807 32.08L96.3007 30.91C96.3007 30.91 96.2807 30.9 96.2707 30.89C96.2607 30.88 96.2507 30.89 96.2407 30.89C96.2307 30.89 96.2207 30.9 96.2207 30.91C96.2207 30.91 96.2107 30.93 96.2207 30.94V33.19C96.2207 33.35 96.1807 33.51 96.0807 33.64C95.9907 33.77 95.8607 33.87 95.7007 33.93C95.6007 33.96 95.5007 33.97 95.4007 33.96C95.3007 33.94 95.2007 33.91 95.1207 33.85C95.0307 33.79 94.9707 33.71 94.9207 33.62C94.8707 33.53 94.8507 33.43 94.8507 33.33V29.28C94.8507 29.13 94.9107 28.99 95.0007 28.88C95.0907 28.77 95.2207 28.68 95.3607 28.64C95.4807 28.61 95.6107 28.61 95.7307 28.64C95.8507 28.67 95.9607 28.74 96.0507 28.83L97.8707 30.63C97.8707 30.63 97.8807 30.64 97.8907 30.64H97.9107H97.9307C97.9307 30.64 97.9407 30.64 97.9507 30.62L99.2407 28.86C99.3007 28.79 99.3707 28.73 99.4607 28.69C99.5507 28.65 99.6407 28.63 99.7307 28.63H103.091C103.181 28.63 103.271 28.65 103.361 28.69C103.441 28.73 103.521 28.78 103.581 28.85C103.641 28.92 103.691 29 103.711 29.09C103.741 29.18 103.741 29.27 103.731 29.36C103.711 29.52 103.631 29.66 103.501 29.76C103.371 29.86 103.221 29.92 103.061 29.92H101.181C101.181 29.92 101.161 29.92 101.151 29.92C101.141 29.92 101.131 29.93 101.131 29.94C101.131 29.94 101.131 29.96 101.131 29.97C101.131 29.98 101.131 29.99 101.131 30L101.161 29.99Z" fill="#003B2F"/><path d="M130.031 51.27L148.461 36.6C148.801 36.33 149.271 36.32 149.621 36.56L160.081 43.87C160.591 44.23 160.641 44.96 160.181 45.38L139.821 64.21C139.401 64.6 138.721 64.54 138.381 64.08L129.851 52.61C129.541 52.19 129.611 51.59 130.031 51.27Z" fill="#03FC9D" stroke="#003B2F" stroke-width="0.3" stroke-linecap="round" stroke-linejoin="round"/><path d="M138.551 62.32L131.491 52.82C131.181 52.4 131.251 51.8 131.671 51.48L148.521 38.07C148.861 37.8 149.331 37.79 149.681 38.03L158.211 44C158.721 44.36 158.771 45.09 158.311 45.51L139.991 62.45C139.571 62.84 138.891 62.78 138.551 62.32Z" fill="white" stroke="#003B2F" stroke-width="0.3" stroke-linecap="round" stroke-linejoin="round"/><path d="M150.471 47.52L146.431 43.67L146.981 43.12L151.021 46.97L150.471 47.52Z" fill="#003B2F"/><path d="M141.601 56.4L138.741 53.68L139.291 53.13L142.151 55.85L141.601 56.4Z" fill="#003B2F"/><path d="M145.911 44.24L145.341 43.7L145.891 43.15L146.461 43.69L145.911 44.24Z" fill="#003B2F"/><path d="M150.491 48.61L149.921 48.07L150.471 47.52L151.041 48.06L150.491 48.61Z" fill="#003B2F"/><path d="M144.781 44.25L144.211 43.71L144.761 43.16L145.331 43.7L144.781 44.25Z" fill="#003B2F"/><path d="M140.341 47.58L139.771 47.04L140.321 46.49L140.891 47.03L140.341 47.58Z" fill="#03FC9D"/><path d="M144.261 45.89L143.691 45.35L144.241 44.8L144.811 45.34L144.261 45.89Z" fill="#03FC9D"/><path d="M145.421 47L144.851 46.46L145.401 45.91L145.971 46.45L145.421 47Z" fill="#03FC9D"/><path d="M144.301 49.2L143.731 48.66L144.281 48.11L144.851 48.65L144.301 49.2Z" fill="#03FC9D"/><path d="M140.931 49.22L140.361 48.68L140.911 48.13L141.481 48.67L140.931 49.22Z" fill="#03FC9D"/><path d="M144.951 54.16L144.381 53.62L144.931 53.07L145.501 53.61L144.951 54.16Z" fill="#03FC9D"/><path d="M140.951 50.33L139.801 49.23L140.351 48.68L141.501 49.78L140.951 50.33Z" fill="#03FC9D"/><path d="M144.391 54.68L139.251 49.78L139.801 49.23L144.941 54.13L144.391 54.68Z" fill="#03FC9D"/><path d="M143.841 55.23L138.701 50.33L139.251 49.78L144.391 54.68L143.841 55.23Z" fill="#03FC9D"/><path d="M143.271 55.8L138.681 51.43L139.231 50.88L143.821 55.25L143.271 55.8Z" fill="#03FC9D"/><path d="M142.711 56.36L138.721 52.56L139.271 52.01L143.261 55.81L142.711 56.36Z" fill="#03FC9D"/><path d="M146.541 48.07L145.971 47.53L146.521 46.98L147.091 47.52L146.541 48.07Z" fill="#03FC9D"/><path d="M147.701 49.17L147.131 48.63L147.681 48.08L148.251 48.62L147.701 49.17Z" fill="#03FC9D"/><path d="M148.851 50.26L148.281 49.72L148.831 49.17L149.401 49.71L148.851 50.26Z" fill="#03FC9D"/><path d="M149.921 48.07L145.881 44.22L146.431 43.67L150.471 47.52L149.921 48.07Z" fill="#03FC9D"/><path d="M149.931 49.14L144.791 44.24L145.341 43.69L150.481 48.59L149.931 49.14Z" fill="#03FC9D"/><path d="M149.951 50.24L143.671 44.26L144.221 43.71L150.501 49.69L149.951 50.24Z" fill="#03FC9D"/><path d="M139.771 47.04L139.201 46.5L139.751 45.95L140.321 46.49L139.771 47.04Z" fill="#E6E8EA"/><path d="M148.281 50.79L143.141 45.89L143.691 45.34L148.831 50.24L148.281 50.79Z" fill="#E6E8EA"/><path d="M139.791 48.13L139.221 47.59L139.771 47.04L140.341 47.58L139.791 48.13Z" fill="#E6E8EA"/><path d="M143.751 48.67L143.181 48.13L143.731 47.58L144.301 48.12L143.751 48.67Z" fill="#E6E8EA"/><path d="M143.691 45.35L143.121 44.81L143.671 44.26L144.241 44.8L143.691 45.35Z" fill="#E6E8EA"/><path d="M144.841 46.44L144.271 45.9L144.821 45.35L145.391 45.89L144.841 46.44Z" fill="#E6E8EA"/><path d="M145.991 47.54L145.421 47L145.971 46.45L146.541 46.99L145.991 47.54Z" fill="#E6E8EA"/><path d="M147.111 48.61L146.541 48.07L147.091 47.52L147.661 48.06L147.111 48.61Z" fill="#E6E8EA"/><path d="M148.261 49.71L147.691 49.17L148.241 48.62L148.811 49.16L148.261 49.71Z" fill="#E6E8EA"/><path d="M149.401 50.79L148.831 50.25L149.381 49.7L149.951 50.24L149.401 50.79Z" fill="#E6E8EA"/><path d="M150.521 49.71L149.951 49.17L150.501 48.62L151.071 49.16L150.521 49.71Z" fill="#003B2F"/><path d="M142.721 56.39L142.151 55.85L142.701 55.3L143.271 55.84L142.721 56.39Z" fill="#003B2F"/><path d="M143.101 44.81L142.531 44.27L143.641 43.16L144.211 43.7L143.101 44.81Z" fill="#003B2F"/><path d="M142.571 46.47L142.001 45.93L143.111 44.82L143.681 45.36L142.571 46.47Z" fill="#003B2F"/><path d="M143.701 47.59L144.251 47.04L145.401 48.14L144.851 48.69L143.701 47.59Z" fill="#003B2F"/><path d="M143.201 51.4L143.751 50.85L144.901 51.95L144.351 52.5L143.201 51.4Z" fill="#003B2F"/><path d="M141.001 52.56L141.551 52.01L143.231 53.62L142.681 54.17L140.991 52.56H141.001Z" fill="#003B2F"/><path d="M147.151 51.92L146.581 51.38L147.131 50.83L147.701 51.37L147.151 51.92Z" fill="#03FC9D"/><path d="M146.601 51.39L146.031 50.85L146.581 50.3L147.151 50.84L146.601 51.39Z" fill="#E6E8EA"/><path d="M146.561 50.31L147.111 49.76L148.261 50.86L147.711 51.41L146.561 50.31Z" fill="#003B2F"/><path d="M140.891 47.03L140.321 46.49L141.431 45.38L142.001 45.92L140.891 47.03Z" fill="#003B2F"/><path d="M138.211 55.33L137.641 54.79L138.751 53.68L139.321 54.22L138.211 55.33Z" fill="#003B2F"/><path d="M149.981 51.36L149.411 50.82L150.521 49.71L151.091 50.25L149.981 51.36Z" fill="#003B2F"/><path d="M143.881 56.35L143.311 55.81L148.841 50.28L149.411 50.82L143.881 56.35Z" fill="#003B2F"/><path d="M135.931 53.11L135.361 52.57L140.891 47.04L141.461 47.58L135.931 53.11Z" fill="#003B2F"/><path d="M22.2407 54.67L36.0107 47.52C36.1907 47.42 36.4207 47.47 36.5507 47.63L53.4307 68.53C53.5707 68.7 53.5607 68.95 53.4007 69.11L42.8807 79.98C42.7007 80.17 42.3907 80.16 42.2307 79.95L22.1007 55.33C21.9207 55.11 21.9907 54.79 22.2407 54.66V54.67Z" fill="#03FC9D" stroke="#003B2F" stroke-width="0.3" stroke-linecap="round" stroke-linejoin="round"/><path d="M23.6607 54.96L35.7707 48.67C35.9507 48.57 36.1807 48.62 36.3107 48.78L52.2207 68.47C52.3607 68.64 52.3507 68.89 52.1907 69.05L42.9407 78.61C42.7607 78.8 42.4507 78.79 42.2907 78.58L23.5207 55.62C23.3507 55.4 23.4107 55.08 23.6607 54.95V54.96Z" fill="white" stroke="#003B2F" stroke-width="0.3" stroke-linecap="round" stroke-linejoin="round"/><path d="M44.9907 60.65C45.3807 61.24 45.8707 62.14 45.7107 62.75C43.3407 66.55 38.4407 69.21 38.4407 69.21C37.9507 69.18 37.1607 68.87 36.6707 68.77C36.1807 68.66 35.6907 68.48 35.2907 68.17C34.9807 67.93 34.7307 67.63 34.4907 67.33C33.9707 66.68 33.4407 66.03 32.9307 65.38C32.9307 65.38 32.9207 65.37 32.9107 65.36L32.1607 64.52C31.7607 64.07 31.3107 63.66 30.9207 63.21C30.5307 62.76 30.1907 62.26 30.0507 61.74C29.9207 61.21 30.0207 60.65 30.4207 60.32C30.9207 59.9 31.7607 59.92 32.5207 60.07C33.1607 60.2 34.1507 60.61 34.8607 60.94C35.2707 60.32 35.8107 59.72 36.3307 59.28C35.8407 58.62 35.4707 57.92 35.2007 57.19C35.0507 56.77 34.9307 56.33 35.0607 55.94C35.2507 55.35 35.9907 55.04 36.7307 55.08C37.4707 55.11 38.2007 55.42 38.8807 55.77C38.9607 55.81 39.1607 55.93 39.3707 56.04C39.3707 56.1 39.3707 56.16 39.3707 56.22C39.4007 56.38 39.5007 56.53 39.6107 56.67C39.7507 56.85 39.9207 57.02 40.1107 57.18C40.2207 57.27 40.5607 57.43 40.6007 57.56C40.6407 57.7 40.3707 57.84 40.2907 57.94C40.1507 58.1 40.0207 58.27 39.9207 58.46C39.8507 58.59 39.7907 58.74 39.8607 58.89C39.9307 59.04 40.1207 59.14 40.3007 59.19C40.6707 59.29 41.0607 59.25 41.3707 59.12C41.6907 58.99 41.9407 58.77 42.1407 58.52C42.2307 58.4 42.3207 58.29 42.3807 58.16C42.7707 58.46 43.2407 58.81 43.4907 59.04C44.0507 59.53 44.6007 60.05 44.9907 60.65Z" fill="#E6E8EA"/><path d="M42.3807 58.17C42.2207 58.05 42.0807 57.94 41.9707 57.85L42.3807 58.17Z" fill="#003B2F"/><path d="M42.6407 55.46C42.8807 56.38 42.8307 57.35 42.4007 58.13C42.4007 58.15 42.3807 58.16 42.3707 58.17C42.3007 58.3 42.2207 58.42 42.1307 58.53C41.9307 58.78 41.6807 59 41.3607 59.13C41.0407 59.26 40.6607 59.3 40.2907 59.2C40.1107 59.15 39.9207 59.05 39.8507 58.9C39.7807 58.75 39.8507 58.6 39.9107 58.47C40.0107 58.28 40.1407 58.11 40.2807 57.95C40.3607 57.86 40.6307 57.71 40.5907 57.57C40.5607 57.44 40.2107 57.28 40.1007 57.19C39.9107 57.04 39.7407 56.87 39.6007 56.68C39.4907 56.54 39.3907 56.39 39.3607 56.23C39.3507 56.17 39.3507 56.11 39.3607 56.05C39.3807 55.96 39.4207 55.88 39.5007 55.82C39.7107 55.67 40.0707 55.78 40.3307 55.94C40.4607 56.02 40.5807 56.1 40.7207 56.16C40.8607 56.21 41.0207 56.22 41.1207 56.15C41.2207 56.07 41.2207 55.91 41.1907 55.78C41.1207 55.52 40.9607 55.28 40.8107 55.04C40.6607 54.8 40.5207 54.55 40.5007 54.29C40.4807 54.03 40.6107 53.77 40.8807 53.71C41.1407 53.64 41.4607 53.78 41.6907 53.96C42.2107 54.35 42.4707 54.93 42.6207 55.48L42.6407 55.46Z" fill="#03FC9D"/><path d="M33.2607 65.77C32.6607 66.13 31.5207 66.38 30.7307 66.27C29.8807 66.15 29.0207 65.77 28.3907 65.17C28.1807 64.97 27.9807 64.7 28.0407 64.46C28.0907 64.23 28.3707 64.11 28.6407 64.12C28.9207 64.12 29.1907 64.25 29.4507 64.37C29.7107 64.5 29.9707 64.64 30.2407 64.7C30.3707 64.73 30.5007 64.74 30.6007 64.7C30.7907 64.61 30.7607 64.35 30.6507 64.15C30.5407 63.96 30.3607 63.78 30.2907 63.58C30.2207 63.38 30.5607 63.02 30.7907 63.04L33.2507 65.77H33.2607Z" fill="#03FC9D"/><path d="M32.1607 64.49C31.7607 64.04 31.3107 63.63 30.9207 63.18C30.5307 62.73 30.1907 62.23 30.0507 61.7C29.9207 61.17 30.0207 60.61 30.4207 60.28C30.9207 59.86 31.7607 59.89 32.5207 60.03C33.2707 60.18 34.1607 60.52 34.8607 60.86" stroke="#003B2F" stroke-width="0.3" stroke-miterlimit="10" stroke-linecap="round"/><path d="M34.3307 61.91C34.6907 60.92 35.4607 59.93 36.3307 59.25" stroke="#003B2F" stroke-width="0.3" stroke-miterlimit="10" stroke-linecap="round"/><path d="M42.4007 58.1C42.7707 58.4 43.1307 58.71 43.4807 59.02C44.0407 59.51 44.5907 60.03 44.9907 60.63C45.3807 61.22 45.8707 62.12 45.7107 62.73" stroke="#003B2F" stroke-width="0.3" stroke-miterlimit="10" stroke-linecap="round"/><path d="M36.7207 59.75C36.0507 58.95 35.5307 58.07 35.2007 57.16C35.0407 56.74 34.9307 56.3 35.0607 55.91C35.2507 55.32 35.9907 55.01 36.7307 55.05C37.4707 55.08 38.2007 55.39 38.8807 55.74C39.0507 55.83 39.2107 55.91 39.3707 56" stroke="#003B2F" stroke-width="0.3" stroke-miterlimit="10" stroke-linecap="round"/><path d="M32.9107 65.33C33.4407 65.99 33.9707 66.64 34.4907 67.3C34.7307 67.6 34.9707 67.9 35.2907 68.14C35.6907 68.45 36.1807 68.63 36.6707 68.74C37.1607 68.85 37.9507 69.15 38.4407 69.18" stroke="#003B2F" stroke-width="0.3" stroke-miterlimit="10" stroke-linecap="round"/><path d="M42.6407 55.43C42.8807 56.35 42.8307 57.32 42.4007 58.1C42.3207 58.24 42.2307 58.38 42.1307 58.51C41.9307 58.76 41.6807 58.98 41.3607 59.11C41.0407 59.24 40.6607 59.28 40.2907 59.18C40.1107 59.13 39.9207 59.03 39.8507 58.88C39.7807 58.73 39.8507 58.58 39.9107 58.45C40.0107 58.26 40.1407 58.09 40.2807 57.93C40.3607 57.84 40.6307 57.69 40.5907 57.55C40.5607 57.42 40.2107 57.26 40.1007 57.17C39.9107 57.02 39.7407 56.85 39.6007 56.66C39.4907 56.52 39.3907 56.37 39.3607 56.21C39.3507 56.15 39.3507 56.08 39.3607 56.02C39.3807 55.93 39.4207 55.85 39.5007 55.79C39.7107 55.64 40.0707 55.75 40.3307 55.91C40.4607 55.99 40.5807 56.07 40.7207 56.13C40.8607 56.18 41.0207 56.19 41.1207 56.12C41.2207 56.04 41.2207 55.88 41.1907 55.75C41.1207 55.49 40.9607 55.25 40.8107 55.01C40.6607 54.77 40.5207 54.52 40.5007 54.26C40.4807 54 40.6107 53.74 40.8807 53.68C41.1407 53.61 41.4607 53.75 41.6907 53.93C42.2107 54.32 42.4707 54.9 42.6207 55.45L42.6407 55.43Z" stroke="#003B2F" stroke-width="0.3" stroke-miterlimit="10" stroke-linecap="round"/><path d="M33.2607 65.77C32.6607 66.13 31.5207 66.38 30.7307 66.27C29.8807 66.15 29.0207 65.77 28.3907 65.17C28.1807 64.97 27.9807 64.7 28.0407 64.46C28.0907 64.23 28.3707 64.11 28.6407 64.12C28.9207 64.12 29.1907 64.25 29.4507 64.37C29.7107 64.5 29.9707 64.64 30.2407 64.7C30.3707 64.73 30.5007 64.74 30.6007 64.7C30.7907 64.61 30.7607 64.35 30.6507 64.15C30.5407 63.96 30.3607 63.78 30.2907 63.58C30.2207 63.38 30.5607 63.02 30.7907 63.04" stroke="#003B2F" stroke-width="0.3" stroke-miterlimit="10" stroke-linecap="round"/><path d="M38.3607 79.77C38.5707 79.89 38.7907 80.01 38.8707 80.06L38.3607 79.77Z" fill="#003B2F"/><path d="M39.5507 64.24C39.3007 64.66 38.9907 65.04 38.6207 65.37C38.4907 65.49 38.2007 65.62 38.1307 65.77C38.0707 65.92 38.2407 66.15 38.2807 66.32" stroke="#003B2F" stroke-width="0.3" stroke-miterlimit="10" stroke-linecap="round"/><path d="M39.1407 63.69C39.2707 63.89 39.3907 64.1 39.5807 64.27C39.7607 64.44 40.0207 64.57 40.2607 64.56" stroke="#003B2F" stroke-width="0.3" stroke-miterlimit="10" stroke-linecap="round"/><path d="M41.6507 63.13C41.5207 63.34 41.2307 63.41 40.9407 63.41C40.5307 63.41 40.2307 63.21 40.1507 62.84C40.1007 62.57 40.1707 62.32 40.4407 62.21C41.0107 61.99 42.0107 62.55 41.6407 63.14L41.6507 63.13Z" fill="#003B2F"/><path d="M36.7107 66.6C36.7607 66.84 36.6507 67.09 36.4207 67.2C36.1907 67.31 35.8507 67.24 35.6507 67.05C35.1707 66.59 35.8907 65.93 36.4307 66.22C36.5807 66.3 36.6807 66.46 36.7107 66.6Z" fill="#003B2F"/><path d="M42.4507 60.91C42.6907 60.64 43.0607 60.35 43.3107 60.08" stroke="#003B2F" stroke-width="0.3" stroke-miterlimit="10" stroke-linecap="round"/><path d="M43.1807 61.64C43.6307 61.52 44.0407 61.35 44.4207 61.14" stroke="#003B2F" stroke-width="0.3" stroke-miterlimit="10" stroke-linecap="round"/><path d="M34.6107 67.51C34.3307 67.68 33.6807 68.07 33.4007 68.24" stroke="#003B2F" stroke-width="0.3" stroke-miterlimit="10" stroke-linecap="round"/><path d="M35.3207 68.16C35.1207 68.43 34.7007 68.96 34.6007 69.29" stroke="#003B2F" stroke-width="0.3" stroke-miterlimit="10" stroke-linecap="round"/><path d="M46.1407 62.59C46.4407 62.87 47.0107 63.01 47.1707 63.37C47.2507 63.56 47.1907 63.74 47.1307 63.92C47.0607 64.11 46.9807 64.29 46.9007 64.47C46.5507 64.19 45.6307 63.56 45.2807 63.27C45.4607 63.04 45.6407 62.8 45.8307 62.58C45.9007 62.5 46.0507 62.5 46.1407 62.59Z" fill="#03FC9D"/><path d="M45.2807 63.27C45.6307 63.55 46.5507 64.18 46.9007 64.47C46.7107 64.89 46.4907 65.29 46.2307 65.68C45.8707 65.36 44.8407 64.65 44.4907 64.33H44.4707C44.7407 63.97 45.0107 63.62 45.2707 63.27H45.2807Z" fill="#03FC9D"/><path d="M44.4907 64.33C44.8407 64.65 45.8807 65.36 46.2307 65.68C45.9807 66.06 45.7007 66.42 45.4007 66.77C45.0907 66.44 43.9507 65.7 43.6307 65.37C43.9207 65.03 44.2007 64.68 44.4707 64.33H44.4907Z" fill="#03FC9D"/><path d="M43.6307 65.36C43.9507 65.69 45.0907 66.43 45.4007 66.76C45.1107 67.09 44.8007 67.4 44.4707 67.69C44.1507 67.41 43.0907 66.55 42.7707 66.28C43.0707 65.99 43.3607 65.68 43.6307 65.36Z" fill="#03FC9D"/><path d="M47.6107 69.42C47.8807 69.54 48.0707 69.81 48.1107 70.06C48.1607 70.31 48.0607 70.56 47.8807 70.73C47.7007 70.9 47.2107 71.08 46.9407 71.12C46.8307 70.95 46.5907 70.83 46.3707 70.79C46.3207 70.7 46.2907 70.55 46.2807 70.4C46.4107 70.14 46.8507 69.64 47.0907 69.47C47.1707 69.41 47.2707 69.36 47.3907 69.36C47.4607 69.36 47.5407 69.38 47.6107 69.42Z" fill="#03FC9D"/><path d="M48.3007 71.27C48.4307 71.27 48.5807 71.3 48.6607 71.4C48.7107 71.46 48.9007 71.58 48.8707 71.64C48.8407 71.7 48.7207 71.82 48.6707 71.86C48.4807 72.01 48.2007 72.06 47.9407 72.1C47.6807 72.14 46.9607 71.79 46.7407 71.61C46.8607 71.57 46.9807 71.51 47.0107 71.39C47.0207 71.33 47.0107 71.26 46.9907 71.2C47.2907 71.18 48.0007 71.26 48.3007 71.26V71.27Z" fill="#03FC9D"/><path d="M44.4707 67.69C44.1307 67.99 43.7607 68.28 43.3707 68.55C43.0207 68.32 42.0907 67.43 41.8207 67.13L41.7907 67.1C41.8607 67.05 41.9207 67 41.9907 66.95C42.2607 66.74 42.5207 66.51 42.7607 66.28C43.0807 66.56 44.1407 67.42 44.4607 67.69H44.4707Z" fill="#03FC9D"/><path d="M46.2807 70.39C46.2907 70.54 46.3207 70.7 46.3707 70.78C46.1907 70.75 46.0107 70.78 45.9007 70.89C45.8307 70.96 45.8007 71.05 45.7907 71.14C45.7707 71.14 45.7407 71.14 45.7107 71.14C45.3407 70.92 44.7907 70.39 44.6207 70.04C44.5607 69.92 44.5107 69.78 44.5307 69.65C44.5507 69.52 44.6407 69.42 44.7607 69.34C45.0107 69.19 45.3707 69.18 45.6807 69.32C45.9907 69.46 46.2207 69.75 46.2707 70.03C46.2707 70.11 46.2807 70.24 46.2907 70.37L46.2807 70.39Z" fill="#03FC9D"/><path d="M46.3707 70.79C46.5907 70.83 46.8307 70.95 46.9407 71.12C46.9407 71.12 46.9507 71.13 46.9607 71.14C46.9707 71.16 46.9807 71.18 46.9907 71.2C47.0207 71.26 47.0307 71.33 47.0107 71.39C46.9807 71.5 46.8607 71.56 46.7407 71.61C46.7407 71.61 46.7207 71.61 46.7107 71.62C46.5907 71.66 46.4607 71.7 46.3207 71.69C46.2607 71.69 46.2007 71.68 46.1507 71.66C46.1307 71.66 46.1107 71.65 46.1007 71.64C45.8907 71.55 45.7707 71.34 45.7807 71.14C45.7807 71.05 45.8207 70.96 45.8907 70.89C46.0007 70.78 46.1807 70.75 46.3607 70.78L46.3707 70.79Z" fill="#003B2F"/><path d="M41.8007 67.1L41.8307 67.13C42.0907 67.43 43.0307 68.32 43.3807 68.55C42.9407 68.85 42.4707 69.14 41.9807 69.39C41.7507 69.11 40.8607 68.14 40.5907 67.9C41.0107 67.65 41.4207 67.39 41.8107 67.11L41.8007 67.1Z" fill="#03FC9D"/><path d="M46.3307 71.7C46.4707 71.7 46.6007 71.67 46.7207 71.63C46.8607 71.97 47.1307 72.64 47.1507 72.98C47.1607 73.16 47.1507 73.38 46.9707 73.46C46.8307 73.53 46.6307 73.48 46.4707 73.39C46.3207 73.29 46.2207 73.15 46.1307 73.01C46.0507 72.88 45.9807 72.74 45.9507 72.59C45.9307 72.45 46.0607 71.77 46.1607 71.68C46.1607 71.68 46.2707 71.71 46.3307 71.71V71.7Z" fill="#03FC9D"/><path d="M45.7007 71.15C45.7007 71.15 45.7607 71.15 45.7807 71.15C45.7707 71.35 45.8907 71.56 46.1007 71.65C45.9707 71.87 45.5807 72.31 45.3007 72.36C45.0207 72.41 44.6807 72.35 44.4207 72.17C44.2707 72.07 44.1507 71.92 44.1207 71.76C44.0807 71.54 44.2207 71.35 44.4207 71.26C44.6007 71.17 45.3707 71.17 45.6907 71.16L45.7007 71.15Z" fill="#03FC9D"/><path d="M40.5807 67.89C40.8607 68.14 41.7407 69.1 41.9707 69.38C41.5807 69.59 41.1707 69.77 40.7507 69.94C40.3807 69.74 39.6107 68.88 39.3307 68.6C39.4307 68.54 39.5307 68.49 39.6307 68.43C39.9507 68.25 40.2707 68.07 40.5807 67.89Z" fill="#03FC9D"/><path d="M38.7707 68.92C38.9507 68.82 39.1407 68.72 39.3207 68.61C39.6107 68.89 40.3807 69.75 40.7407 69.94C40.6907 69.96 40.6407 69.98 40.5907 70C40.3107 70.11 40.0207 70.21 39.7007 70.23C39.6707 70.23 39.6407 70.23 39.6107 70.23C39.0307 70.23 38.3007 69.84 38.4107 69.26C38.4507 69.07 38.6007 69 38.7707 68.91V68.92Z" fill="#03FC9D"/><path d="M40.5807 67.89C41.0007 67.64 41.4107 67.38 41.8007 67.09C41.8707 67.04 41.9407 66.99 42.0007 66.94C42.2707 66.73 42.5307 66.5 42.7707 66.27" stroke="#003B2F" stroke-width="0.3" stroke-miterlimit="10" stroke-linecap="round"/><path d="M44.4707 67.69C44.1307 67.99 43.7607 68.28 43.3707 68.55C42.9307 68.85 42.4607 69.14 41.9707 69.39" stroke="#003B2F" stroke-width="0.3" stroke-miterlimit="10" stroke-linecap="round"/><path d="M39.3307 68.61C39.4307 68.55 39.5307 68.5 39.6307 68.44C39.9507 68.26 40.2707 68.08 40.5807 67.9C40.8607 68.15 41.7407 69.11 41.9707 69.39C41.5807 69.6 41.1707 69.78 40.7507 69.95" stroke="#003B2F" stroke-width="0.3" stroke-miterlimit="10" stroke-linecap="round"/><path d="M40.7507 69.95C40.7007 69.97 40.6507 69.99 40.6007 70.01C40.3207 70.12 40.0307 70.22 39.7107 70.24C39.6807 70.24 39.6507 70.24 39.6207 70.24C39.0407 70.24 38.3107 69.85 38.4207 69.27C38.4607 69.08 38.6107 69.01 38.7807 68.92C38.9607 68.82 39.1507 68.72 39.3307 68.61C39.6207 68.89 40.3907 69.75 40.7607 69.94L40.7507 69.95Z" stroke="#003B2F" stroke-width="0.3" stroke-miterlimit="10" stroke-linecap="round"/><path d="M45.4007 66.76C45.1107 67.09 44.8007 67.4 44.4707 67.69C44.1507 67.41 43.0907 66.55 42.7707 66.28C43.0707 65.99 43.3607 65.68 43.6307 65.36" stroke="#003B2F" stroke-width="0.3" stroke-miterlimit="10" stroke-linecap="round"/><path d="M46.9007 64.47C46.7107 64.89 46.4907 65.29 46.2307 65.68C45.9807 66.06 45.7007 66.42 45.4007 66.77C45.0907 66.44 43.9507 65.7 43.6307 65.37C43.9207 65.03 44.2007 64.68 44.4707 64.33C44.7407 63.98 45.0107 63.63 45.2707 63.28" stroke="#003B2F" stroke-width="0.3" stroke-miterlimit="10" stroke-linecap="round"/><path d="M47.1707 63.37C47.2507 63.56 47.1907 63.74 47.1307 63.92C47.0607 64.11 46.9807 64.29 46.9007 64.47C46.5507 64.19 45.6307 63.56 45.2807 63.27C45.4607 63.04 45.6407 62.8 45.8307 62.58C45.9007 62.5 46.0507 62.5 46.1407 62.59C46.4407 62.87 47.0107 63.01 47.1707 63.37Z" stroke="#003B2F" stroke-width="0.3" stroke-miterlimit="10" stroke-linecap="round"/><path d="M47.1707 63.37C47.4205 63.328 47.6871 63.2959 47.9643 63.2743" stroke="#003B2F" stroke-width="0.3" stroke-miterlimit="10" stroke-linecap="round"/><path d="M39.7107 70.24C39.7307 70.87 40.0407 71.96 40.2907 72.58C40.5407 73.2 40.9007 73.8 41.2607 74.39C41.6707 75.07 42.0807 75.75 42.4907 76.43" stroke="#003B2F" stroke-width="0.3" stroke-miterlimit="10" stroke-linecap="round"/><path d="M42.5707 72.49C42.9807 72.84 43.2407 73.29 43.5207 73.71C43.8007 74.14 44.1407 74.57 44.6307 74.82" stroke="#003B2F" stroke-width="0.3" stroke-miterlimit="10" stroke-linecap="round"/><path d="M48.7307 66.82C49.6907 67.55 50.6907 68.22 51.7207 68.84" stroke="#003B2F" stroke-width="0.3" stroke-miterlimit="10" stroke-linecap="round"/><path d="M46.7407 71.61C46.7407 71.61 46.7207 71.61 46.7107 71.62C46.5907 71.66 46.4607 71.7 46.3207 71.69C46.2607 71.69 46.2007 71.68 46.1507 71.66C46.1307 71.66 46.1107 71.65 46.1007 71.64" stroke="#003B2F" stroke-width="0.3" stroke-miterlimit="10" stroke-linecap="round"/><path d="M46.3707 70.79C46.1907 70.76 46.0107 70.79 45.9007 70.9C45.8307 70.97 45.8007 71.06 45.7907 71.15" stroke="#003B2F" stroke-width="0.3" stroke-miterlimit="10" stroke-linecap="round"/><path d="M45.7007 71.15C45.3307 70.93 44.7807 70.4 44.6107 70.05C44.5507 69.93 44.5007 69.79 44.5207 69.66C44.5407 69.53 44.6307 69.43 44.7507 69.35C45.0007 69.2 45.3607 69.19 45.6707 69.33C45.9807 69.47 46.2107 69.76 46.2607 70.04C46.2607 70.12 46.2707 70.25 46.2807 70.38" stroke="#003B2F" stroke-width="0.3" stroke-miterlimit="10" stroke-linecap="round" stroke-linejoin="round"/><path d="M46.2807 70.3901C46.4107 70.1301 46.8507 69.6301 47.0907 69.4601C47.1707 69.4001 47.2707 69.3501 47.3907 69.3501C47.4607 69.3501 47.5407 69.3701 47.6107 69.4101C47.8807 69.5301 48.0707 69.8001 48.1107 70.0501C48.1607 70.3001 48.0607 70.5501 47.8807 70.7201C47.7007 70.8901 47.2107 71.0701 46.9407 71.1101C46.8307 70.9401 46.5907 70.8201 46.3707 70.7801C46.3207 70.6901 46.2907 70.5401 46.2807 70.3901Z" stroke="#003B2F" stroke-width="0.3" stroke-miterlimit="10" stroke-linecap="round" stroke-linejoin="round"/><path d="M46.1007 71.65C45.9707 71.87 45.5807 72.31 45.3007 72.36C45.0207 72.41 44.6807 72.35 44.4207 72.17C44.2707 72.07 44.1507 71.92 44.1207 71.76C44.0807 71.54 44.2207 71.35 44.4207 71.26C44.6007 71.17 45.3707 71.17 45.6907 71.16C45.7207 71.16 45.7507 71.16 45.7707 71.16C45.7607 71.36 45.8807 71.57 46.0907 71.66L46.1007 71.65Z" stroke="#003B2F" stroke-width="0.3" stroke-miterlimit="10" stroke-linecap="round" stroke-linejoin="round"/><path d="M46.1507 71.67C46.0507 71.77 45.9207 72.44 45.9407 72.58C45.9707 72.72 46.0407 72.86 46.1207 73C46.2107 73.14 46.3107 73.29 46.4607 73.38C46.6107 73.48 46.8207 73.52 46.9607 73.45C47.1307 73.36 47.1507 73.15 47.1407 72.97C47.1207 72.63 46.8407 71.96 46.7107 71.62" stroke="#003B2F" stroke-width="0.3" stroke-miterlimit="10" stroke-linecap="round" stroke-linejoin="round"/><path d="M46.9907 71.2C47.2907 71.18 48.0007 71.26 48.3007 71.26C48.4307 71.26 48.5807 71.29 48.6607 71.39C48.7107 71.45 48.9007 71.57 48.8707 71.63C48.8407 71.69 48.7207 71.81 48.6707 71.85C48.4807 72 48.2007 72.05 47.9407 72.09C47.6807 72.13 46.9607 71.78 46.7407 71.6C46.8607 71.56 46.9807 71.5 47.0107 71.38C47.0207 71.32 47.0107 71.25 46.9907 71.19V71.2Z" stroke="#003B2F" stroke-width="0.3" stroke-miterlimit="10" stroke-linecap="round" stroke-linejoin="round"/><path d="M44.4907 64.33C44.8407 64.65 45.8807 65.36 46.2307 65.68" stroke="#003B2F" stroke-width="0.3" stroke-miterlimit="10" stroke-linecap="round"/><path d="M41.8307 67.13C42.0907 67.43 43.0307 68.32 43.3807 68.55" stroke="#003B2F" stroke-width="0.3" stroke-miterlimit="10" stroke-linecap="round"/><path d="M67.8207 20.17L68.7207 21.07" stroke="#003B2F" stroke-width="0.3" stroke-linecap="round" stroke-linejoin="round"/><path d="M69.3707 21.73L70.2707 22.63" stroke="#003B2F" stroke-width="0.3" stroke-linecap="round" stroke-linejoin="round"/><path d="M67.8207 22.62L68.7207 21.72" stroke="#003B2F" stroke-width="0.3" stroke-linecap="round" stroke-linejoin="round"/><path d="M69.3707 21.07L70.2707 20.17" stroke="#003B2F" stroke-width="0.3" stroke-linecap="round" stroke-linejoin="round"/><path d="M50.3307 28.5L61.3207 12.82C61.4407 12.65 61.6607 12.57 61.8607 12.64L73.0807 16.53C73.3507 16.62 73.4707 16.92 73.3607 17.18L64.9507 35.23C64.8407 35.47 64.5607 35.57 64.3207 35.46L50.5207 29.2C50.2507 29.08 50.1607 28.74 50.3307 28.5Z" fill="#E6E8EA" stroke="#003B2F" stroke-width="0.3" stroke-linecap="round" stroke-linejoin="round"/><path d="M64.0007 34.6L51.5107 28.93C51.2407 28.81 51.1507 28.47 51.3207 28.23L61.5707 13.61C61.6907 13.44 61.9107 13.36 62.1107 13.43L72.1707 16.92C72.4407 17.01 72.5607 17.31 72.4507 17.57L64.6207 34.37C64.5107 34.61 64.2307 34.71 63.9907 34.6H64.0007Z" fill="white" stroke="#003B2F" stroke-width="0.3" stroke-linecap="round" stroke-linejoin="round"/><path d="M59.7007 16.45C60.0807 16.4 60.4607 16.45 60.8207 16.58C61.1807 16.72 61.5007 16.95 61.7807 17.22C62.0807 17.51 62.3507 17.82 62.7507 17.97C62.9607 18.05 63.1707 18.08 63.3907 18.1C63.6307 18.13 63.8607 18.14 64.1007 18.15C64.5907 18.18 65.0707 18.19 65.5607 18.18C65.8007 18.18 66.0407 18.16 66.2807 18.15C66.5007 18.15 66.7307 18.14 66.9507 18.19C67.3307 18.28 67.6307 18.54 67.9007 18.81C68.1707 19.08 68.4407 19.34 68.7707 19.55C69.4307 19.96 70.2107 20.19 70.9907 20.2C71.0807 20.2 71.1807 20.2 71.2707 20.2C71.4007 20.2 71.4107 19.98 71.2707 19.99C70.5107 20.03 69.7207 19.85 69.0607 19.48C68.9007 19.39 68.7407 19.29 68.5907 19.17C68.4407 19.05 68.3107 18.92 68.1707 18.78C67.9007 18.51 67.6207 18.23 67.2607 18.07C66.8307 17.89 66.3607 17.94 65.9007 17.96C65.4107 17.98 64.9207 17.98 64.4307 17.96C64.1907 17.96 63.9407 17.94 63.7007 17.92C63.4807 17.9 63.2607 17.89 63.0507 17.84C62.8407 17.79 62.6607 17.71 62.4807 17.59C62.3207 17.47 62.1807 17.32 62.0407 17.18C61.7607 16.9 61.4407 16.64 61.0807 16.47C60.7307 16.3 60.3507 16.22 59.9607 16.23C59.8607 16.23 59.7507 16.24 59.6507 16.26C59.5907 16.26 59.5607 16.34 59.5807 16.39C59.6007 16.45 59.6507 16.47 59.7107 16.46L59.7007 16.45Z" fill="#003B2F"/><path d="M57.2407 19.99C58.0707 19.87 58.8807 20.12 59.5907 20.56C59.9607 20.79 60.3107 21.05 60.7207 21.21C61.1407 21.37 61.5807 21.46 62.0207 21.56C62.4707 21.67 62.9207 21.76 63.3807 21.8C63.8407 21.84 64.3007 21.8 64.7707 21.79C65.0007 21.79 65.2207 21.79 65.4507 21.84C65.6607 21.88 65.8707 21.96 66.0607 22.04C66.4507 22.21 66.8307 22.4 67.2307 22.54C68.0107 22.81 68.8207 22.98 69.6307 23.09C69.7307 23.1 69.8307 23.12 69.9307 23.13C69.9907 23.13 70.0407 23.08 70.0407 23.03C70.0407 22.97 69.9907 22.93 69.9307 22.93C69.1107 22.84 68.3007 22.68 67.5207 22.43C67.1207 22.3 66.7507 22.14 66.3707 21.96C65.9607 21.77 65.5507 21.61 65.0907 21.59C64.6307 21.56 64.1607 21.63 63.7007 21.62C63.2407 21.61 62.7807 21.53 62.3307 21.43C62.1107 21.38 61.8907 21.33 61.6707 21.27C61.4507 21.22 61.2407 21.16 61.0207 21.1C60.8107 21.03 60.6007 20.95 60.4107 20.84C60.2207 20.74 60.0407 20.61 59.8707 20.49C59.5207 20.26 59.1507 20.06 58.7507 19.93C58.3607 19.8 57.9407 19.74 57.5207 19.76C57.4107 19.76 57.3107 19.78 57.2007 19.79C57.1407 19.79 57.1107 19.87 57.1307 19.92C57.1507 19.98 57.2007 20 57.2607 19.99H57.2407Z" fill="#003B2F"/><path d="M54.7407 23.52C55.6707 23.39 56.6007 23.57 57.4507 23.93C57.8907 24.11 58.3207 24.32 58.7607 24.49C59.1907 24.66 59.6107 24.83 60.0407 25C60.4607 25.17 60.8907 25.33 61.3507 25.4C61.8307 25.47 62.3007 25.45 62.7807 25.4C63.2507 25.36 63.7207 25.33 64.2007 25.36C64.6507 25.39 65.1007 25.45 65.5507 25.51C66.4307 25.62 67.3207 25.75 68.1807 25.96C68.2807 25.99 68.3907 26.01 68.4907 26.04C68.6207 26.07 68.6807 25.87 68.5507 25.84C67.6807 25.61 66.7907 25.47 65.9007 25.35C65.4507 25.29 65.0107 25.23 64.5607 25.19C64.0907 25.14 63.6207 25.13 63.1507 25.17C62.6707 25.21 62.1807 25.27 61.7007 25.24C61.2407 25.21 60.7907 25.07 60.3607 24.91C59.9307 24.74 59.5107 24.56 59.0807 24.39C58.6307 24.22 58.2007 24.03 57.7607 23.84C57.3307 23.65 56.8807 23.48 56.4107 23.39C55.9607 23.29 55.4907 23.25 55.0307 23.29C54.9107 23.29 54.8007 23.31 54.6807 23.33C54.6207 23.33 54.5907 23.41 54.6107 23.46C54.6307 23.52 54.6807 23.54 54.7407 23.53V23.52Z" fill="#003B2F"/><path d="M52.2807 27.04C53.2407 26.9 54.2307 26.98 55.1707 27.2C55.6407 27.31 56.1107 27.46 56.5607 27.65C57.0107 27.84 57.4407 28.07 57.8607 28.32C58.2907 28.57 58.7407 28.83 59.2207 28.97C59.7407 29.12 60.2907 29.12 60.8207 29.05C61.3607 28.98 61.8907 28.84 62.4307 28.74C62.9207 28.64 63.4107 28.57 63.9007 28.54C64.8807 28.47 65.8907 28.54 66.8307 28.85C66.9407 28.89 67.0607 28.93 67.1707 28.98C67.2207 29 67.2807 28.96 67.3007 28.91C67.3207 28.85 67.2807 28.8 67.2307 28.78C66.3107 28.4 65.3007 28.29 64.3107 28.32C63.8007 28.33 63.3007 28.39 62.8007 28.47C62.2807 28.56 61.7707 28.69 61.2507 28.78C60.7107 28.88 60.1507 28.95 59.6007 28.85C59.1007 28.76 58.6407 28.53 58.2007 28.28C57.7707 28.03 57.3507 27.78 56.8907 27.57C56.4407 27.37 55.9807 27.2 55.5107 27.08C54.5707 26.83 53.5707 26.72 52.5907 26.81C52.4707 26.82 52.3507 26.84 52.2307 26.85C52.1707 26.85 52.1407 26.93 52.1607 26.98C52.1807 27.04 52.2307 27.06 52.2907 27.05L52.2807 27.04Z" fill="#003B2F"/><path d="M58.4307 26.04C58.3707 26.09 58.3607 26.11 58.3007 26.15C57.5507 26.61 56.6307 26.09 55.8507 26.42C54.9507 26.8 54.2407 27.57 53.6807 28.34L58.4307 26.04Z" fill="white"/><path d="M61.8507 27.51C62.2307 28.17 63.0607 28.7 63.1507 29.5C63.2007 29.91 63.1007 30.32 62.9807 30.7C62.8307 31.16 62.5507 31.64 62.5807 32.13L61.8507 27.5V27.51Z" fill="white"/><path d="M62.6307 29.65C62.7107 29.75 62.6707 29.86 62.6107 29.96C62.2207 30.55 61.8007 31.14 61.9307 31.89L62.6307 29.65Z" fill="white"/><path d="M56.3007 28.41C56.3907 28.75 56.4107 29.11 56.3607 29.47L56.3007 28.41Z" fill="white"/><path d="M56.3307 28.56C56.2207 28.81 56.1507 29.08 56.1307 29.35L56.3307 28.56Z" fill="white"/><path d="M56.0007 26.4C56.1607 26.9 56.3807 27.32 56.3307 27.87L56.0007 26.4Z" fill="white"/><path d="M60.4007 23.04C60.0907 23.7 60.0107 24.71 59.6007 25.32C59.3107 25.75 58.9007 25.98 58.4507 26.23L60.4007 23.05V23.04Z" fill="white"/><path d="M58.6507 26.11C58.5907 26.04 58.4907 25.98 58.4407 26.04C58.4107 26.08 58.4207 26.13 58.4407 26.18C58.8507 27.37 60.5507 28.22 61.7507 27.81C61.8207 27.78 61.8907 27.63 61.8907 27.58C61.8907 27.51 61.6907 27.36 61.6207 27.35L58.6607 26.11H58.6507Z" fill="white"/><path d="M61.9007 26.03C61.9007 26.16 61.8407 26.28 61.7907 26.4C61.7207 26.55 61.6707 26.7 61.6107 26.85C61.5907 26.91 61.5707 26.98 61.5707 27.05C61.5707 27.27 61.7207 27.63 61.6507 27.84L61.9007 26.03Z" fill="white"/><path d="M61.8807 19.15C61.7307 19.65 61.6807 20.19 61.5107 20.69C61.3407 21.2 61.0707 21.63 60.7107 22.03C60.3507 22.43 59.7407 22.96 59.7307 23.54C59.9007 23.61 60.1407 23.37 60.2407 23.26C60.3507 23.13 60.4407 22.98 60.5207 22.83C60.2607 23.33 60.4807 24 60.6107 24.51C60.6907 24.21 60.7507 23.9 60.8607 23.61C60.7807 23.83 60.6907 24.23 60.8107 24.44C60.9207 24.32 61.0007 24.13 61.0907 23.99L61.8907 19.16L61.8807 19.15Z" fill="white"/><path d="M61.0707 23.99C60.9007 24.31 61.0007 24.7 61.1007 25.05C61.1307 25.17 61.1807 25.3 61.2907 25.36C61.3207 25.37 61.3607 25.38 61.3807 25.4C61.4207 25.43 61.4407 25.49 61.4607 25.54C61.5407 25.75 61.7107 25.93 61.9207 26.02L61.0707 23.99Z" fill="white"/><path d="M61.8607 19.14C61.7707 18.72 61.6407 18.15 61.1807 17.98C60.6907 17.8 60.1707 18.18 59.8507 18.51C59.4207 18.95 59.1507 19.59 59.2007 20.22C59.2807 21.12 60.2107 21.9 61.0907 21.4L61.8507 19.15L61.8607 19.14Z" fill="white"/><path d="M61.7007 19.89C61.6007 19.66 61.5707 19.45 61.4607 19.22C61.3007 18.9 61.0207 18.59 60.6307 18.63C60.3907 18.66 60.1807 18.81 60.0607 19.01C59.8207 19.41 60.0007 19.78 60.1107 20.19C60.2107 20.56 60.0207 20.93 60.4007 21.19C60.5707 21.31 60.8007 21.34 61.0007 21.27C61.1107 21.23 61.2107 21.16 61.3307 21.15L61.7107 19.89H61.7007Z" fill="white"/><path d="M65.7507 23.41C66.8407 23.7 67.9207 22.93 68.2107 21.89L65.7507 23.41Z" fill="white"/><path d="M66.5407 21.52C66.7807 21.53 67.0107 21.37 67.2407 21.44C67.3607 21.47 67.4807 21.54 67.6007 21.61C67.8507 21.74 67.7407 22.06 67.6007 22.27C67.1807 22.91 66.5007 23.34 65.7407 23.41L66.5307 21.52H66.5407Z" fill="white"/><path d="M65.7507 23.41C65.4507 23.83 65.5807 24.38 65.5907 24.86C65.6007 25.33 65.5407 26.07 65.1207 26.37C65.0707 26.4 65.0107 26.44 65.0207 26.5C65.0207 26.55 65.0807 26.6 65.0607 26.65C65.0307 26.7 64.9607 26.66 64.9107 26.68C64.8207 26.71 64.8507 26.84 64.8107 26.91C64.7607 26.99 64.6707 27.04 64.5807 27.05C64.3507 27.08 64.0707 26.95 63.8707 26.86C63.6007 26.75 63.3507 26.62 63.0807 26.5C62.6807 26.33 62.2407 26.28 61.8907 25.99L65.7607 23.4L65.7507 23.41Z" fill="white"/><path d="M61.6107 25.22C62.1807 25.63 62.7707 25.85 63.3107 26.08C63.8507 26.31 64.4507 26.57 65.0307 26.42L61.6107 25.22Z" fill="white"/><path d="M61.7708 18.53C61.9208 18.23 61.9208 17.89 62.0908 17.59C62.2708 17.28 62.5508 17.03 62.8808 16.9C64.1508 16.4 65.9307 17.02 67.0807 17.59C67.9607 18.03 67.6308 19.23 67.4508 19.97L61.7708 18.53Z" fill="white"/><path d="M61.8807 19.08C62.7207 19.58 63.6407 19.5 64.5807 19.53C65.5807 19.56 66.5807 19.8 67.5507 20.02L61.8807 19.08Z" fill="white"/><path d="M67.4907 20.01C68.2307 20.16 68.7407 20.95 68.7007 21.68C68.7007 21.82 68.6607 22.03 68.4707 21.98C68.3807 21.95 68.3007 21.93 68.2207 21.88L67.4907 20.01Z" fill="white"/><path d="M63.2007 19.48C63.3507 19.57 63.4707 19.6 63.6307 19.69C63.8407 19.82 64.0607 19.94 64.3107 19.97C64.4607 19.99 64.6107 19.97 64.7507 19.95C65.2407 19.88 65.8607 19.81 66.3507 19.77L63.2007 19.48Z" fill="white"/><path d="M64.7507 19.95C65.1307 20.09 65.4707 20.21 65.8307 20.39C66.2507 20.6 66.5707 20.92 66.9407 21.18C67.3407 21.46 67.7707 21.7 68.2207 21.87L64.7507 19.95Z" fill="white"/><path d="M68.7007 21.67C68.7407 20.94 68.2307 20.15 67.4907 20C67.4907 20 67.4907 20 67.4807 20L67.4407 19.96C67.6207 19.22 67.9407 18.02 67.0707 17.58C65.9307 17.01 64.1507 16.39 62.8707 16.89C62.5407 17.02 62.2607 17.27 62.0807 17.58C61.9107 17.88 61.9207 18.22 61.7607 18.52H61.7807L61.6907 18.57C61.5907 18.31 61.4307 18.08 61.1707 17.98C60.6807 17.8 60.1607 18.18 59.8407 18.51C59.4107 18.95 59.1407 19.59 59.1907 20.22C59.2707 21.07 60.0907 21.81 60.9307 21.47C60.9807 21.45 61.0307 21.42 61.0807 21.4V21.37L61.2207 21.29C61.0707 21.56 60.9007 21.8 60.6907 22.03C60.3307 22.43 59.7207 22.96 59.7107 23.54C59.8807 23.61 60.1207 23.37 60.2207 23.26C60.3307 23.13 60.4207 22.98 60.5007 22.83C60.4807 22.87 60.4607 22.92 60.4507 22.96L60.2707 23.31C60.3007 23.22 60.3407 23.13 60.3807 23.05L58.5607 26.03H58.5307C58.5307 26.03 58.4507 26.03 58.4207 26.06C58.4107 26.08 58.4007 26.1 58.4007 26.11L58.2407 26.19H58.2307C58.2307 26.19 58.2707 26.17 58.2907 26.16C58.3507 26.12 58.3607 26.1 58.4207 26.05L57.8507 26.32C57.8507 26.32 57.8707 26.32 57.8807 26.32L57.8207 26.34H57.8507C57.2007 26.45 56.4707 26.16 55.8407 26.43C54.9407 26.81 54.2307 27.58 53.6707 28.35L61.9107 31.87C61.9107 31.87 61.9107 31.89 61.9107 31.9V31.88L62.5707 32.16C62.5407 31.67 62.8207 31.19 62.9707 30.73C63.1007 30.34 63.1907 29.93 63.1407 29.53C63.0507 28.73 62.2107 28.2 61.8407 27.54C61.8407 27.54 61.7507 27.46 61.7007 27.42L61.8207 26.58L61.9707 26.11C62.2907 26.33 62.6907 26.39 63.0507 26.54C63.3207 26.65 63.5707 26.79 63.8407 26.9C64.0507 26.99 64.3207 27.12 64.5507 27.09C64.6407 27.08 64.7307 27.03 64.7807 26.95C64.8207 26.88 64.7807 26.75 64.8807 26.72C64.9307 26.7 65.0007 26.73 65.0307 26.69C65.0607 26.64 65.0007 26.59 64.9907 26.54C64.9907 26.48 65.0507 26.44 65.0907 26.41C65.5107 26.11 65.5807 25.37 65.5607 24.9C65.5507 24.45 65.4307 23.93 65.6707 23.52L65.7507 23.45C66.8107 23.71 67.8607 22.97 68.1607 21.97L68.2007 21.92C68.2807 21.96 68.3507 21.98 68.4407 22.01C68.6307 22.07 68.6607 21.86 68.6707 21.72L68.7007 21.67ZM67.4807 20H67.4907V20.02L67.4707 20H67.4807Z" fill="#03FC9D"/><path d="M58.3507 25.97C58.3507 25.97 58.2907 26.03 58.2707 26.04C58.2307 26.07 58.1907 26.09 58.1407 26.11C58.0707 26.15 57.9907 26.17 57.9107 26.19C57.7407 26.23 57.5707 26.24 57.4007 26.24C57.0407 26.24 56.6807 26.17 56.3207 26.2C56.1307 26.22 55.9507 26.26 55.7807 26.33C55.6107 26.4 55.4407 26.49 55.2907 26.59C54.9707 26.79 54.6807 27.04 54.4107 27.3C54.1107 27.6 53.8407 27.93 53.5907 28.27C53.5607 28.32 53.5907 28.39 53.6307 28.41C53.6807 28.44 53.7407 28.41 53.7707 28.37C54.2007 27.78 54.7007 27.21 55.3107 26.81C55.6007 26.62 55.9307 26.44 56.2807 26.4C56.6407 26.36 57.0007 26.42 57.3607 26.43C57.5607 26.43 57.7607 26.43 57.9607 26.38C58.0607 26.36 58.1607 26.32 58.2607 26.27C58.3107 26.25 58.3507 26.22 58.4007 26.19C58.4407 26.16 58.4807 26.12 58.5207 26.09C58.5607 26.05 58.5607 25.98 58.5207 25.94C58.4807 25.9 58.4107 25.9 58.3707 25.94L58.3507 25.97Z" fill="#003B2F"/><path d="M61.7607 27.57C62.0507 28.08 62.5407 28.45 62.8407 28.95C62.9107 29.07 62.9707 29.19 63.0107 29.32C63.0607 29.48 63.0707 29.64 63.0607 29.82C63.0407 30.2 62.9307 30.58 62.7907 30.94C62.6407 31.33 62.4607 31.72 62.4807 32.15C62.4807 32.21 62.5307 32.25 62.5907 32.25C62.6407 32.25 62.7007 32.2 62.6907 32.15C62.6707 31.78 62.8207 31.42 62.9607 31.09C63.1107 30.72 63.2307 30.34 63.2707 29.95C63.2907 29.76 63.2807 29.57 63.2507 29.39C63.2207 29.25 63.1707 29.11 63.1007 28.98C62.9607 28.71 62.7607 28.48 62.5607 28.25C62.3407 28 62.1207 27.77 61.9507 27.48C61.8807 27.36 61.7007 27.47 61.7707 27.58L61.7607 27.57Z" fill="#003B2F"/><path d="M62.5407 29.7C62.5807 29.76 62.5807 29.8 62.5407 29.87C62.5007 29.94 62.4507 30 62.4107 30.06C62.3207 30.19 62.2407 30.33 62.1607 30.46C62.0007 30.73 61.8707 31.03 61.8207 31.34C61.7907 31.53 61.7907 31.72 61.8207 31.91C61.8207 31.97 61.9007 32 61.9507 31.98C62.0107 31.96 62.0307 31.91 62.0207 31.85C61.9107 31.2 62.2707 30.63 62.6107 30.12C62.6607 30.04 62.7207 29.96 62.7507 29.87C62.7807 29.77 62.7707 29.66 62.7107 29.58C62.6807 29.53 62.6207 29.51 62.5707 29.54C62.5207 29.57 62.5007 29.64 62.5307 29.68L62.5407 29.7Z" fill="#003B2F"/><path d="M61.8407 30.36C61.8507 30.58 61.8707 30.79 61.8807 31.01C61.8807 31.06 61.9307 31.12 61.9807 31.11C62.0307 31.11 62.0907 31.06 62.0807 31.01C62.0707 30.79 62.0507 30.58 62.0407 30.36C62.0407 30.31 61.9907 30.25 61.9307 30.25C61.8807 30.25 61.8207 30.3 61.8307 30.36H61.8407Z" fill="#003B2F"/><path d="M56.1907 28.44C56.2707 28.77 56.3007 29.11 56.2507 29.44C56.2507 29.5 56.2607 29.55 56.3207 29.57C56.3707 29.58 56.4407 29.55 56.4507 29.5C56.5007 29.13 56.4807 28.75 56.3907 28.39C56.3607 28.26 56.1507 28.31 56.1907 28.45V28.44Z" fill="#003B2F"/><path d="M56.2307 28.51C56.1107 28.78 56.0407 29.06 56.0107 29.35C56.0107 29.41 56.0607 29.46 56.1107 29.46C56.1707 29.46 56.2107 29.41 56.2207 29.35C56.2407 29.1 56.3007 28.85 56.4107 28.61C56.4307 28.56 56.4207 28.5 56.3707 28.47C56.3307 28.44 56.2507 28.46 56.2307 28.51Z" fill="#003B2F"/><path d="M55.8907 26.42C55.9707 26.66 56.0607 26.89 56.1307 27.13C56.2007 27.37 56.2307 27.61 56.2107 27.86C56.2107 27.92 56.2607 27.96 56.3207 27.96C56.3807 27.96 56.4207 27.91 56.4207 27.86C56.4407 27.6 56.4107 27.34 56.3407 27.09C56.2707 26.84 56.1707 26.61 56.0907 26.36C56.0707 26.31 56.0207 26.27 55.9607 26.29C55.9107 26.3 55.8707 26.37 55.8907 26.42Z" fill="#003B2F"/><path d="M60.3007 22.99C60.0807 23.44 59.9907 23.95 59.8607 24.43C59.7907 24.66 59.7207 24.89 59.6107 25.1C59.4907 25.32 59.3307 25.51 59.1407 25.67C58.9107 25.86 58.6507 26 58.4007 26.14C58.2807 26.21 58.3907 26.39 58.5107 26.32C58.9807 26.06 59.4607 25.78 59.7407 25.31C60.0007 24.88 60.1007 24.36 60.2307 23.87C60.3007 23.61 60.3807 23.33 60.4907 23.1C60.5107 23.05 60.5007 22.99 60.4507 22.96C60.4007 22.93 60.3307 22.95 60.3107 23L60.3007 22.99Z" fill="#003B2F"/><path d="M58.7307 26.04C58.6607 25.96 58.5307 25.88 58.4107 25.94C58.2807 26.01 58.3107 26.16 58.3507 26.27C58.4107 26.43 58.4907 26.59 58.5907 26.73C58.8007 27.04 59.0807 27.29 59.3907 27.5C60.0007 27.9 60.7707 28.13 61.5007 28C61.5907 27.98 61.6907 27.96 61.7807 27.93C61.8807 27.89 61.9507 27.78 61.9807 27.67C62.0107 27.56 61.9607 27.48 61.8807 27.41C61.8107 27.35 61.7307 27.28 61.6407 27.26C61.5807 27.25 61.5307 27.28 61.5107 27.33C61.5007 27.38 61.5307 27.45 61.5807 27.46C61.5807 27.46 61.6107 27.47 61.5907 27.46C61.6007 27.46 61.6207 27.47 61.6307 27.48C61.6707 27.5 61.6807 27.51 61.7107 27.54C61.7207 27.55 61.7407 27.56 61.7507 27.58C61.7507 27.58 61.7607 27.59 61.7707 27.6C61.7707 27.6 61.7707 27.6 61.7707 27.61C61.7707 27.61 61.7707 27.61 61.7707 27.6C61.7707 27.61 61.7707 27.6 61.7707 27.59V27.6C61.7707 27.58 61.7707 27.58 61.7707 27.6C61.7707 27.6 61.7707 27.61 61.7707 27.62C61.7707 27.62 61.7707 27.63 61.7707 27.64C61.7607 27.67 61.7707 27.62 61.7707 27.65C61.7707 27.67 61.7507 27.68 61.7407 27.7C61.7407 27.7 61.7307 27.71 61.7207 27.72C61.7407 27.71 61.7107 27.72 61.7007 27.72C61.6307 27.74 61.5607 27.76 61.4807 27.78C61.4007 27.8 61.3507 27.8 61.2707 27.81C61.1907 27.81 61.1207 27.81 61.0407 27.81C60.8707 27.81 60.7407 27.79 60.5807 27.75C59.9507 27.61 59.3607 27.28 58.9307 26.79C58.8707 26.72 58.8307 26.67 58.7807 26.6C58.7307 26.53 58.6907 26.46 58.6507 26.38C58.6307 26.34 58.6107 26.3 58.5907 26.26C58.5907 26.26 58.5807 26.23 58.5907 26.24C58.5907 26.24 58.5907 26.22 58.5807 26.21C58.5807 26.19 58.5607 26.17 58.5607 26.15C58.5607 26.14 58.5407 26.09 58.5407 26.09C58.5407 26.09 58.5307 26.1 58.5207 26.1C58.5107 26.1 58.5107 26.1 58.5207 26.1C58.5207 26.1 58.5407 26.11 58.5507 26.12C58.5607 26.12 58.5807 26.15 58.5907 26.16C58.6307 26.2 58.7007 26.2 58.7407 26.16C58.7807 26.12 58.7807 26.05 58.7407 26.01L58.7307 26.04Z" fill="#003B2F"/><path d="M61.7907 26.05C61.7907 26.18 61.7207 26.3 61.6707 26.42C61.6107 26.56 61.5607 26.69 61.5107 26.84C61.4907 26.91 61.4707 26.98 61.4607 27.05C61.4607 27.11 61.4607 27.16 61.4707 27.22C61.4907 27.33 61.5107 27.43 61.5307 27.54C61.5407 27.6 61.5507 27.64 61.5507 27.71C61.5507 27.74 61.5507 27.76 61.5507 27.79C61.5507 27.78 61.5507 27.8 61.5507 27.81C61.5507 27.82 61.5507 27.84 61.5407 27.85C61.5207 27.9 61.5607 27.96 61.6107 27.98C61.6707 28 61.7207 27.96 61.7407 27.91C61.7807 27.81 61.7607 27.7 61.7407 27.59C61.7207 27.48 61.7007 27.37 61.6707 27.26C61.6607 27.21 61.6607 27.19 61.6507 27.13C61.6507 27.07 61.6607 27.01 61.6807 26.96C61.7307 26.82 61.7807 26.69 61.8307 26.56C61.9007 26.41 61.9807 26.25 61.9807 26.08C61.9807 25.94 61.7707 25.94 61.7707 26.08L61.7907 26.05Z" fill="#003B2F"/><path d="M61.7807 19.13C61.6707 19.49 61.6207 19.86 61.5307 20.22C61.4507 20.56 61.3407 20.88 61.1807 21.19C61.0307 21.48 60.8307 21.74 60.6107 21.99C60.4107 22.21 60.2107 22.41 60.0307 22.64C59.8207 22.9 59.6407 23.21 59.6307 23.55C59.6307 23.6 59.6607 23.64 59.7107 23.65C59.9007 23.72 60.1007 23.56 60.2307 23.44C60.3907 23.28 60.5107 23.09 60.6207 22.89C60.5607 22.86 60.5007 22.82 60.4407 22.78C60.1607 23.33 60.3807 23.98 60.5207 24.54C60.5507 24.64 60.7007 24.64 60.7207 24.54C60.8007 24.24 60.8607 23.93 60.9707 23.64C60.9007 23.62 60.8307 23.6 60.7707 23.58C60.7207 23.73 60.6807 23.88 60.6607 24.03C60.6407 24.18 60.6507 24.35 60.7207 24.49C60.7507 24.55 60.8407 24.56 60.8907 24.51C61.0207 24.37 61.0907 24.2 61.1807 24.04C61.2507 23.92 61.0707 23.82 61.0007 23.93C60.9207 24.07 60.8507 24.24 60.7407 24.36C60.8007 24.36 60.8507 24.37 60.9107 24.38C60.9107 24.38 60.9107 24.37 60.9107 24.36C60.9107 24.35 60.9107 24.33 60.9007 24.32C60.9007 24.29 60.8907 24.27 60.8907 24.24C60.8907 24.17 60.8907 24.09 60.8907 24.02C60.9107 23.9 60.9407 23.76 60.9907 23.64C61.0107 23.59 60.9707 23.53 60.9207 23.51C60.8607 23.49 60.8107 23.53 60.7907 23.58C60.6807 23.87 60.6207 24.18 60.5407 24.48H60.7407C60.6707 24.21 60.5907 23.94 60.5507 23.67C60.5107 23.41 60.5107 23.13 60.6407 22.89C60.6707 22.84 60.6507 22.78 60.6007 22.75C60.5507 22.72 60.4807 22.74 60.4607 22.79C60.3707 22.97 60.2707 23.14 60.1307 23.28C60.0707 23.34 60.0207 23.38 59.9507 23.42C59.9107 23.44 59.8907 23.45 59.8607 23.46C59.8607 23.46 59.8307 23.46 59.8407 23.46C59.8507 23.46 59.8307 23.46 59.8307 23.46C59.8307 23.46 59.8107 23.46 59.8007 23.46C59.8307 23.49 59.8507 23.53 59.8807 23.56C59.8807 23.44 59.9207 23.3 59.9707 23.19C60.0307 23.06 60.1107 22.93 60.2007 22.81C60.3807 22.58 60.5807 22.38 60.7807 22.17C61.0007 21.93 61.2007 21.66 61.3607 21.38C61.5307 21.08 61.6507 20.75 61.7407 20.42C61.8407 20.02 61.9007 19.6 62.0207 19.2C62.0607 19.07 61.8507 19.02 61.8107 19.14L61.7807 19.13Z" fill="#003B2F"/><path d="M60.9907 23.93C60.8207 24.27 60.8907 24.65 60.9907 25C61.0307 25.15 61.0807 25.32 61.2207 25.42C61.2507 25.44 61.2907 25.45 61.3207 25.47C61.3507 25.48 61.3507 25.5 61.3607 25.52C61.3907 25.6 61.4207 25.67 61.4707 25.74C61.5707 25.89 61.7107 26.02 61.8807 26.09C61.9307 26.11 61.9907 26.11 62.0207 26.05C62.0507 26.01 62.0307 25.93 61.9807 25.91C61.8607 25.86 61.7407 25.77 61.6607 25.66C61.6207 25.6 61.5907 25.54 61.5607 25.48C61.5307 25.4 61.5007 25.33 61.4307 25.28C61.4007 25.26 61.3607 25.25 61.3307 25.23C61.3107 25.22 61.2907 25.2 61.2807 25.18C61.2407 25.12 61.2307 25.07 61.2107 25.01C61.1707 24.85 61.1207 24.7 61.1007 24.54C61.0807 24.37 61.0907 24.19 61.1707 24.03C61.2007 23.98 61.1807 23.92 61.1307 23.89C61.0807 23.86 61.0107 23.88 60.9907 23.93Z" fill="#003B2F"/><path d="M61.9607 19.11C61.8707 18.68 61.7407 18.16 61.3307 17.93C60.8007 17.64 60.2107 18.01 59.8407 18.38C59.4307 18.78 59.1507 19.32 59.1107 19.89C59.0707 20.4 59.2507 20.92 59.6307 21.27C59.8007 21.43 60.0207 21.56 60.2507 21.62C60.4907 21.68 60.7407 21.66 60.9707 21.57C61.0407 21.54 61.1007 21.51 61.1607 21.48C61.2807 21.41 61.1707 21.23 61.0507 21.3C60.8507 21.41 60.6407 21.46 60.4207 21.44C60.3407 21.44 60.2207 21.4 60.1407 21.37C60.0507 21.33 59.9507 21.27 59.8707 21.21C59.7107 21.09 59.5707 20.92 59.4707 20.73C59.3707 20.53 59.3107 20.31 59.3107 20.09C59.3007 19.57 59.5107 19.06 59.8507 18.67C60.0107 18.48 60.2107 18.32 60.4207 18.19C60.6307 18.07 60.8707 17.99 61.1007 18.06C61.2907 18.11 61.4307 18.26 61.5307 18.44C61.6307 18.62 61.6807 18.82 61.7307 19.02C61.7407 19.07 61.7507 19.12 61.7607 19.17C61.7707 19.23 61.8407 19.26 61.8907 19.24C61.9507 19.22 61.9707 19.17 61.9607 19.11Z" fill="#003B2F"/><path d="M61.7807 19.84C61.6907 19.62 61.6507 19.39 61.5407 19.17C61.4607 19.01 61.3507 18.85 61.2107 18.73C61.0607 18.61 60.8807 18.52 60.6907 18.52C60.4807 18.52 60.2807 18.61 60.1307 18.75C59.9607 18.9 59.8607 19.11 59.8307 19.33C59.8007 19.54 59.8607 19.75 59.9207 19.96C59.9507 20.06 59.9907 20.17 60.0107 20.27C60.0207 20.34 60.0307 20.42 60.0307 20.51C60.0307 20.69 60.0307 20.86 60.1007 21.03C60.2007 21.24 60.4207 21.38 60.6407 21.41C60.7607 21.43 60.8807 21.42 61.0007 21.38C61.1207 21.34 61.2207 21.27 61.3407 21.25C61.4007 21.25 61.4307 21.17 61.4107 21.12C61.3907 21.06 61.3407 21.04 61.2807 21.05C61.1807 21.06 61.0907 21.12 60.9907 21.16C60.9107 21.2 60.8307 21.21 60.7407 21.21C60.6607 21.21 60.5707 21.19 60.5007 21.15C60.4307 21.11 60.3607 21.05 60.3207 21C60.2807 20.94 60.2607 20.89 60.2407 20.81C60.2407 20.78 60.2407 20.8 60.2407 20.77C60.2407 20.75 60.2407 20.73 60.2407 20.71C60.2407 20.67 60.2407 20.63 60.2407 20.59C60.2407 20.41 60.2307 20.25 60.1807 20.08C60.1307 19.9 60.0607 19.71 60.0407 19.52C60.0307 19.33 60.0707 19.15 60.1907 19C60.2907 18.87 60.4407 18.77 60.6107 18.74C60.7607 18.71 60.9107 18.76 61.0407 18.85C61.1807 18.95 61.2907 19.11 61.3707 19.27C61.4807 19.48 61.5207 19.73 61.6107 19.95C61.6307 20 61.7107 20.01 61.7507 19.99C61.8107 19.96 61.8107 19.9 61.7907 19.85L61.7807 19.84Z" fill="#003B2F"/><path d="M65.7407 23.52C66.1707 23.63 66.6307 23.59 67.0407 23.41C67.4407 23.24 67.7807 22.94 68.0207 22.59C68.1607 22.39 68.2607 22.16 68.3307 21.92C68.3707 21.79 68.1607 21.73 68.1307 21.86C68.0207 22.25 67.8007 22.59 67.5007 22.86C67.2207 23.12 66.8507 23.3 66.4707 23.35C66.2407 23.38 66.0207 23.36 65.8007 23.31C65.6707 23.28 65.6107 23.48 65.7407 23.51V23.52Z" fill="#003B2F"/><path d="M66.5407 21.64C66.6907 21.64 66.8307 21.6 66.9707 21.56C67.0307 21.55 67.0907 21.53 67.1607 21.54C67.2307 21.54 67.2907 21.57 67.3507 21.6C67.4207 21.63 67.4907 21.67 67.5607 21.71C67.5907 21.73 67.5907 21.73 67.6107 21.75C67.6207 21.76 67.6107 21.75 67.6107 21.76C67.6107 21.76 67.6107 21.77 67.6107 21.78C67.6107 21.79 67.6107 21.8 67.6107 21.81C67.6107 21.81 67.6107 21.81 67.6107 21.82C67.6107 21.8 67.6107 21.84 67.6107 21.82C67.6107 21.85 67.6107 21.87 67.6107 21.9C67.6107 21.88 67.6107 21.92 67.6107 21.92C67.6107 21.93 67.6107 21.95 67.6107 21.96C67.6107 21.99 67.5907 22.02 67.5807 22.05C67.5807 22.06 67.5607 22.09 67.5507 22.11C67.5407 22.14 67.5207 22.16 67.5107 22.19C67.4807 22.24 67.4407 22.29 67.4007 22.34C67.3307 22.44 67.2407 22.54 67.1507 22.63C66.9707 22.81 66.7607 22.96 66.5307 23.08C66.2807 23.21 65.9907 23.29 65.7207 23.32C65.6607 23.32 65.6207 23.36 65.6207 23.42C65.6207 23.47 65.6707 23.53 65.7207 23.53C66.3007 23.48 66.8407 23.23 67.2607 22.83C67.3707 22.73 67.4607 22.62 67.5507 22.5C67.6307 22.4 67.7107 22.29 67.7607 22.16C67.8107 22.04 67.8507 21.91 67.8207 21.78C67.8107 21.72 67.7807 21.66 67.7307 21.61C67.6807 21.55 67.6107 21.52 67.5407 21.49C67.3707 21.4 67.2007 21.32 67.0107 21.34C66.8407 21.36 66.6807 21.44 66.5007 21.43C66.4407 21.43 66.3907 21.48 66.3907 21.53C66.3907 21.59 66.4407 21.63 66.4907 21.64H66.5407Z" fill="#003B2F"/><path d="M65.6707 23.36C65.3707 23.78 65.4707 24.3 65.4907 24.78C65.4907 24.98 65.4907 25.17 65.4707 25.37C65.4707 25.46 65.4407 25.56 65.4207 25.65C65.4107 25.7 65.3907 25.75 65.3807 25.8C65.3807 25.82 65.3607 25.85 65.3607 25.87C65.3607 25.88 65.3607 25.89 65.3507 25.9C65.3507 25.92 65.3507 25.9 65.3407 25.93C65.3207 25.97 65.3007 26.02 65.2707 26.06C65.2607 26.08 65.2507 26.1 65.2307 26.12C65.2307 26.12 65.2207 26.14 65.2107 26.15C65.1807 26.19 65.1507 26.22 65.1107 26.25C65.1107 26.25 65.0907 26.27 65.1007 26.25C65.1007 26.25 65.0807 26.26 65.0707 26.27C65.0407 26.29 65.0107 26.31 64.9907 26.33C64.9407 26.38 64.9107 26.45 64.9307 26.52C64.9307 26.55 64.9507 26.58 64.9707 26.61C64.9707 26.58 64.9907 26.59 65.0007 26.56C64.9407 26.56 64.8707 26.56 64.8207 26.6C64.7807 26.63 64.7507 26.68 64.7407 26.74C64.7407 26.76 64.7407 26.78 64.7307 26.8C64.7307 26.8 64.7307 26.82 64.7307 26.83C64.7307 26.83 64.7307 26.83 64.7307 26.84C64.7307 26.83 64.7307 26.85 64.7307 26.84C64.7107 26.88 64.6707 26.91 64.6307 26.92C64.5307 26.96 64.4107 26.93 64.3107 26.9C64.1907 26.87 64.0807 26.82 63.9707 26.77C63.8407 26.71 63.7107 26.66 63.5807 26.6C63.3207 26.48 63.0707 26.36 62.8007 26.27C62.5707 26.2 62.3307 26.13 62.1207 26C62.0707 25.97 62.0207 25.94 61.9807 25.9C61.9407 25.86 61.8707 25.86 61.8307 25.9C61.7907 25.94 61.7907 26.01 61.8307 26.05C62.0407 26.22 62.2807 26.32 62.5407 26.4C62.6607 26.44 62.7907 26.48 62.9107 26.52C63.0407 26.57 63.1707 26.62 63.2907 26.68C63.5507 26.8 63.8207 26.93 64.0907 27.03C64.3207 27.12 64.6407 27.21 64.8507 27.03C64.9007 26.99 64.9307 26.94 64.9507 26.88C64.9607 26.84 64.9607 26.79 64.9807 26.75C64.9807 26.75 64.9807 26.75 64.9807 26.76C64.9807 26.76 64.9907 26.76 65.0007 26.76C65.0207 26.76 65.0307 26.76 65.0507 26.76C65.1307 26.76 65.2007 26.72 65.2207 26.64C65.2207 26.6 65.2207 26.56 65.2107 26.53C65.2107 26.52 65.2007 26.5 65.1907 26.49C65.1907 26.49 65.1907 26.48 65.1907 26.47C65.1907 26.45 65.1907 26.45 65.1907 26.47C65.1907 26.46 65.1907 26.49 65.1907 26.49C65.1907 26.49 65.2107 26.47 65.2207 26.47C65.2207 26.47 65.2607 26.44 65.2707 26.43C65.3607 26.37 65.4307 26.29 65.4907 26.2C65.6107 26.03 65.6707 25.82 65.7107 25.62C65.7507 25.41 65.7707 25.2 65.7707 24.99C65.7707 24.76 65.7507 24.53 65.7407 24.31C65.7307 24.08 65.7307 23.83 65.8307 23.61C65.8607 23.55 65.8907 23.5 65.9207 23.45C65.9507 23.4 65.9207 23.33 65.8807 23.31C65.8307 23.28 65.7707 23.3 65.7407 23.35L65.6707 23.36Z" fill="#003B2F"/><path d="M61.5507 25.31C61.9507 25.6 62.3907 25.81 62.8507 26C63.0707 26.09 63.2807 26.18 63.5007 26.28C63.7307 26.38 63.9707 26.47 64.2207 26.52C64.4907 26.58 64.7807 26.59 65.0507 26.52C65.1807 26.49 65.1307 26.29 64.9907 26.32C64.5207 26.43 64.0407 26.27 63.6107 26.1C63.4007 26.02 63.2007 25.93 62.9907 25.84C62.7807 25.75 62.5707 25.66 62.3707 25.56C62.1207 25.44 61.8807 25.3 61.6607 25.13C61.6107 25.1 61.5407 25.13 61.5207 25.17C61.4907 25.22 61.5207 25.28 61.5607 25.31H61.5507Z" fill="#003B2F"/><path d="M61.8707 18.56C62.0307 18.25 62.0307 17.87 62.2207 17.57C62.3807 17.31 62.6207 17.1 62.9007 16.98C63.4607 16.74 64.1007 16.76 64.6907 16.85C65.3207 16.95 65.9407 17.16 66.5207 17.41C66.6507 17.47 66.7907 17.53 66.9207 17.59C66.9807 17.62 67.0507 17.65 67.1107 17.69C67.1707 17.72 67.2007 17.75 67.2407 17.79C67.3307 17.87 67.3807 17.94 67.4407 18.05C67.4407 18.06 67.4507 18.07 67.4607 18.09C67.4607 18.09 67.4807 18.13 67.4607 18.11C67.4707 18.14 67.4807 18.16 67.4907 18.19C67.5107 18.25 67.5207 18.3 67.5307 18.36C67.5307 18.37 67.5307 18.39 67.5307 18.4C67.5307 18.4 67.5307 18.44 67.5307 18.42C67.5307 18.45 67.5307 18.48 67.5307 18.51C67.5307 18.57 67.5307 18.63 67.5307 18.69C67.5307 18.81 67.5207 18.94 67.5007 19.06C67.5007 19.05 67.5007 19.08 67.5007 19.09C67.5007 19.1 67.5007 19.12 67.5007 19.13C67.5007 19.16 67.4907 19.19 67.4807 19.23C67.4707 19.29 67.4607 19.35 67.4507 19.41C67.4307 19.53 67.4007 19.64 67.3707 19.76C67.3607 19.81 67.3507 19.86 67.3307 19.91C67.3007 20.04 67.5007 20.1 67.5307 19.97C67.6407 19.48 67.7807 18.98 67.7407 18.48C67.7207 18.23 67.6507 17.99 67.5007 17.79C67.4207 17.68 67.3207 17.59 67.2007 17.52C67.0807 17.45 66.9407 17.39 66.8107 17.33C66.2107 17.05 65.5807 16.83 64.9307 16.69C64.3007 16.56 63.6107 16.52 62.9907 16.71C62.6707 16.81 62.3907 16.98 62.1707 17.24C62.0507 17.38 61.9607 17.53 61.8907 17.69C61.8307 17.86 61.8007 18.03 61.7507 18.2C61.7307 18.28 61.7007 18.37 61.6607 18.44C61.6307 18.49 61.6507 18.55 61.7007 18.58C61.7507 18.61 61.8207 18.59 61.8407 18.54L61.8707 18.56Z" fill="#003B2F"/><path d="M61.8307 19.16C62.1407 19.35 62.4907 19.47 62.8507 19.53C63.2007 19.59 63.5507 19.61 63.9107 19.61C64.2907 19.61 64.6607 19.61 65.0407 19.65C65.4307 19.68 65.8307 19.75 66.2107 19.82C66.6507 19.91 67.0907 20.01 67.5307 20.11C67.5907 20.12 67.6407 20.09 67.6607 20.04C67.6707 19.99 67.6407 19.92 67.5907 19.91C66.8107 19.73 66.0307 19.55 65.2407 19.46C64.8607 19.42 64.4807 19.41 64.1007 19.4C63.7507 19.4 63.4107 19.4 63.0607 19.34C62.6707 19.29 62.2907 19.17 61.9407 18.97C61.8207 18.9 61.7207 19.08 61.8307 19.15V19.16Z" fill="#003B2F"/><path d="M67.4807 20.12C68.2007 20.27 68.6707 21.04 68.6007 21.76C68.6007 21.79 68.6007 21.74 68.6007 21.77C68.6007 21.78 68.6007 21.8 68.6007 21.81C68.6007 21.83 68.6007 21.85 68.5807 21.86C68.5807 21.86 68.5607 21.89 68.5807 21.87C68.5807 21.87 68.5807 21.87 68.5707 21.88C68.5707 21.88 68.5307 21.88 68.5507 21.88C68.5207 21.88 68.5007 21.87 68.4707 21.86C68.4107 21.84 68.3507 21.82 68.3007 21.79C68.1807 21.72 68.0807 21.9 68.1907 21.97C68.2507 22 68.3107 22.03 68.3707 22.05C68.4307 22.07 68.4907 22.09 68.5507 22.09C68.6507 22.09 68.7407 22.03 68.7807 21.94C68.8607 21.76 68.8407 21.53 68.8107 21.34C68.7507 20.92 68.5207 20.51 68.2007 20.24C68.0107 20.08 67.7907 19.96 67.5507 19.91C67.4907 19.9 67.4407 19.93 67.4207 19.98C67.4107 20.03 67.4407 20.1 67.4907 20.11L67.4807 20.12Z" fill="#003B2F"/><path d="M63.1607 19.57C63.2507 19.63 63.3507 19.66 63.4507 19.71C63.5507 19.75 63.6407 19.81 63.7407 19.87C63.9407 19.98 64.1507 20.07 64.3707 20.08C64.5907 20.09 64.8107 20.05 65.0207 20.02C65.2307 19.99 65.4507 19.97 65.6607 19.94C65.8907 19.91 66.1307 19.89 66.3607 19.87C66.4207 19.87 66.4607 19.83 66.4607 19.76C66.4607 19.71 66.4107 19.65 66.3607 19.66C65.9407 19.69 65.5307 19.74 65.1207 19.79C64.9107 19.82 64.7007 19.86 64.4807 19.87C64.2707 19.87 64.0707 19.81 63.8907 19.71C63.7807 19.65 63.6807 19.59 63.5807 19.53C63.4707 19.48 63.3707 19.44 63.2707 19.38C63.1507 19.31 63.0507 19.49 63.1607 19.56V19.57Z" fill="#003B2F"/><path d="M64.7208 20.05C65.2108 20.24 65.7208 20.4 66.1508 20.7C66.3508 20.84 66.5408 21 66.7308 21.15C66.9408 21.31 67.1608 21.45 67.3808 21.58C67.6408 21.73 67.9108 21.86 68.1908 21.97C68.2408 21.99 68.3108 21.95 68.3208 21.9C68.3408 21.84 68.3008 21.79 68.2508 21.77C67.7608 21.58 67.3008 21.32 66.8808 21.01C66.6808 20.86 66.5008 20.7 66.3008 20.56C66.0908 20.41 65.8608 20.29 65.6208 20.18C65.3408 20.06 65.0508 19.96 64.7708 19.85C64.7208 19.83 64.6508 19.87 64.6408 19.92C64.6208 19.98 64.6608 20.03 64.7108 20.05H64.7208Z" fill="#003B2F"/></g><defs><clipPath id="clip0_13_347"><rect width="192" height="108" fill="white"/></clipPath></defs></svg>