<svg width="192" height="108" viewBox="0 0 192 108" fill="none" xmlns="http://www.w3.org/2000/svg"><path d="M81.44 96.22H92.18" stroke="#003B2F" stroke-width="0.3" stroke-linecap="round" stroke-linejoin="round"/><path d="M127.69 22.62H122.83C124.37 22.62 125.62 21.49 125.62 20.09C125.62 18.69 124.37 17.56 122.83 17.56H108.87C107.33 17.56 106.08 18.69 106.08 20.09H101.79C100.25 20.09 99 21.22 99 22.62C99 24.02 100.25 25.15 101.79 25.15H110.94C110.94 26.55 112.19 27.68 113.73 27.68H127.69C129.23 27.68 130.48 26.55 130.48 25.15C130.48 23.75 129.23 22.62 127.69 22.62Z" fill="#03FC9D"/><path d="M141.14 94.36H144.62" stroke="#003B2F" stroke-width="0.3" stroke-linecap="round" stroke-linejoin="round"/><path d="M135.28 89.73H160.51" stroke="#03FC9D" stroke-width="0.3" stroke-linecap="round" stroke-linejoin="round"/><path d="M149.12 94.34H163.23" stroke="#003B2F" stroke-width="0.3" stroke-linecap="round" stroke-linejoin="round"/><path d="M117.75 40.3L119.86 39.09" stroke="#003B2F" stroke-width="0.3" stroke-linecap="round" stroke-linejoin="round"/><path d="M121.97 40.3L120.73 39.59" stroke="#003B2F" stroke-width="0.3" stroke-linecap="round" stroke-linejoin="round"/><path d="M119.86 39.09V36.63" stroke="#003B2F" stroke-width="0.3" stroke-linecap="round" stroke-linejoin="round"/><path d="M9.49003 66.3H24.32C25.9548 66.3 27.28 64.9748 27.28 63.34C27.28 61.7052 25.9548 60.38 24.32 60.38H9.49003C7.85526 60.38 6.53003 61.7052 6.53003 63.34C6.53003 64.9748 7.85526 66.3 9.49003 66.3Z" fill="#E6E8EA"/><path d="M17.54 61.77L41.83 61.77C44.5086 61.77 46.68 59.6008 46.68 56.925C46.68 54.2492 44.5086 52.08 41.83 52.08H17.54C14.8614 52.08 12.69 54.2492 12.69 56.925C12.69 59.6008 14.8614 61.77 17.54 61.77Z" fill="#E6E8EA"/><path d="M172.864 51.3084L170.785 49.2295L168.706 51.3084L170.785 53.3873L172.864 51.3084Z" stroke="#003B2F" stroke-width="0.3" stroke-linecap="round" stroke-linejoin="round"/><path d="M37.76 16.69L40.18 18.09" stroke="#003B2F" stroke-width="0.3" stroke-linecap="round" stroke-linejoin="round"/><path d="M42.6 16.69L41.18 17.52" stroke="#003B2F" stroke-width="0.3" stroke-linecap="round" stroke-linejoin="round"/><path d="M40.18 18.09V20.92" stroke="#003B2F" stroke-width="0.3" stroke-linecap="round" stroke-linejoin="round"/><path d="M29.94 95.62H32.66" stroke="#003B2F" stroke-width="0.3" stroke-linecap="round" stroke-linejoin="round"/><path d="M18.57 91.04H38.24" stroke="#03FC9D" stroke-width="0.3" stroke-linecap="round" stroke-linejoin="round"/><path d="M36.17 95.61H47.16" stroke="#003B2F" stroke-width="0.3" stroke-linecap="round" stroke-linejoin="round"/><path d="M64.76 41.27V43.53" stroke="#003B2F" stroke-width="0.3" stroke-linecap="round" stroke-linejoin="round"/><path d="M64.76 45.18V47.44" stroke="#003B2F" stroke-width="0.3" stroke-linecap="round" stroke-linejoin="round"/><path d="M61.67 44.36H63.93" stroke="#003B2F" stroke-width="0.3" stroke-linecap="round" stroke-linejoin="round"/><path d="M65.58 44.36H67.84" stroke="#003B2F" stroke-width="0.3" stroke-linecap="round" stroke-linejoin="round"/><path d="M38.44 83.51H64.39" stroke="#03FC9D" stroke-width="0.3" stroke-linecap="round" stroke-linejoin="round"/><path d="M55.1 87.05H69.6" stroke="#003B2F" stroke-width="0.3" stroke-linecap="round" stroke-linejoin="round"/><path d="M121.18 75.11H157.63" stroke="#003B2F" stroke-width="0.3" stroke-linecap="round" stroke-linejoin="round"/><path d="M41.78 74.95H68.87" stroke="#003B2F" stroke-width="0.3" stroke-linecap="round" stroke-linejoin="round"/><path d="M104.7 93.33H114.74" stroke="#003B2F" stroke-width="0.3" stroke-linecap="round" stroke-linejoin="round"/><path d="M126.11 81.44H136.15" stroke="#003B2F" stroke-width="0.3" stroke-linecap="round" stroke-linejoin="round"/><path d="M124.8 83.58H130.37" stroke="#003B2F" stroke-width="0.3" stroke-linecap="round" stroke-linejoin="round"/><path d="M82.15 36.61C84.99 40.18 86.63 44.66 86.63 49.6C86.63 53.81 85.35 57.74 83.25 61.03H68.07L82.15 36.61Z" fill="#03FC9D"/><path d="M128.52 66.42C128.52 66.6 128.43 66.79 128.25 66.88C127.24 67.34 123.86 68.89 122.4 70.9C118.74 75.93 116 83.98 109.78 83.98H83.71C74.47 83.98 66.79 76.66 66.88 66.97C66.88 66.7 67.06 66.51 67.34 66.51H79.6C80.06 66.51 80.33 66.88 80.33 67.24V69.62C80.33 70.9 81.34 71.91 82.62 71.91H91.95V66.51H85.55C89.21 61.85 91.4 55.99 91.4 49.59C91.4 42.46 88.66 35.96 84.17 31.12C86.91 31.39 89.47 31.94 91.85 32.67V31.12C91.85 29.57 93.13 28.28 94.69 28.28C96.25 28.28 97.53 29.56 97.53 31.12V34.78C106.22 38.8 111.98 45.57 111.98 53.25C111.98 57.73 110.06 61.94 106.68 65.41C106.04 66.05 105.13 66.42 104.21 66.42H97.63V71.82H105.86C107.6 71.82 110.8 68.44 112.35 66.42C112.35 66.42 112.44 66.33 112.62 66.24C112.8 66.15 127.8 62.76 127.8 62.76C128.07 62.67 128.44 62.94 128.44 63.22L128.53 66.42H128.52Z" fill="#03FC9D"/><path d="M82.85 38.06C85.69 41.63 87.33 46.11 87.33 51.05C87.33 55.26 86.05 59.19 83.95 62.48H68.77L82.85 38.06Z" stroke="#003B2F" stroke-width="0.3" stroke-linecap="round" stroke-linejoin="round"/><path d="M129.21 67.88C129.21 68.06 129.12 68.25 128.94 68.34C127.93 68.8 124.55 70.35 123.09 72.36C119.43 77.39 116.69 85.44 110.47 85.44H84.4C75.16 85.44 67.48 78.12 67.57 68.43C67.57 68.16 67.75 67.97 68.03 67.97H80.29C80.75 67.97 81.02 68.34 81.02 68.7V71.08C81.02 72.36 82.03 73.37 83.31 73.37H92.64V67.97H86.24C89.9 63.31 92.09 57.45 92.09 51.05C92.09 43.92 89.35 37.42 84.86 32.58C87.6 32.85 90.16 33.4 92.54 34.13V32.58C92.54 31.03 93.82 29.74 95.38 29.74C96.94 29.74 98.22 31.02 98.22 32.58V36.24C106.91 40.26 112.67 47.03 112.67 54.71C112.67 59.19 110.75 63.4 107.37 66.87C106.73 67.51 105.82 67.88 104.9 67.88H98.32V73.28H106.55C108.29 73.28 111.49 69.9 113.04 67.88C113.04 67.88 113.13 67.79 113.31 67.7C113.49 67.61 128.49 64.22 128.49 64.22C128.76 64.13 129.13 64.4 129.13 64.68L129.22 67.88H129.21Z" stroke="#003B2F" stroke-width="0.3" stroke-linecap="round" stroke-linejoin="round"/><path d="M72.25 31.24L61.75 35.52C61.33 35.69 60.84 35.46 60.72 35.02L54.64 13.89C54.5 13.42 54.84 12.94 55.33 12.91L65.42 12.24C65.76 12.22 66.08 12.42 66.19 12.74L72.67 30.26C72.81 30.65 72.62 31.09 72.24 31.24H72.25Z" fill="#03FC9D" stroke="#003B2F" stroke-width="0.3" stroke-linecap="round" stroke-linejoin="round"/><path d="M61.33 33.75L55.86 14.73C55.72 14.26 56.06 13.78 56.55 13.75L64.79 13.21C65.13 13.19 65.45 13.39 65.56 13.71L71.48 29.73C71.62 30.12 71.43 30.56 71.05 30.71L62.36 34.25C61.94 34.42 61.45 34.19 61.33 33.75Z" fill="white" stroke="#003B2F" stroke-width="0.3" stroke-linecap="round" stroke-linejoin="round"/><path d="M60.21 18.72L64.53 17.77L64.68 18.37L60.36 19.32L60.21 18.72Z" fill="#003B2F"/><path d="M62.58 28.38L65.64 27.71L65.79 28.31L62.73 28.98L62.58 28.38Z" fill="#003B2F"/><path d="M64.66 18.37L65.27 18.24L65.42 18.84L64.81 18.97L64.66 18.37Z" fill="#003B2F"/><path d="M59.75 19.45L60.36 19.32L60.51 19.92L59.9 20.05L59.75 19.45Z" fill="#003B2F"/><path d="M65.41 18.83L66.02 18.7L66.17 19.3L65.56 19.43L65.41 18.83Z" fill="#003B2F"/><path d="M67.06 22.92L67.67 22.79L67.82 23.39L67.21 23.52L67.06 22.92Z" fill="#03FC9D"/><path d="M65.1 20.17L65.71 20.04L65.86 20.64L65.25 20.77L65.1 20.17Z" fill="#03FC9D"/><path d="M63.86 20.44L64.47 20.31L64.62 20.91L64.01 21.04L63.86 20.44Z" fill="#03FC9D"/><path d="M63.71 22.39L64.32 22.26L64.47 22.86L63.86 22.99L63.71 22.39Z" fill="#03FC9D"/><path d="M65.99 23.79L66.6 23.66L66.75 24.26L66.14 24.39L65.99 23.79Z" fill="#03FC9D"/><path d="M61.23 25.49L61.84 25.36L61.99 25.96L61.38 26.09L61.23 25.49Z" fill="#03FC9D"/><path d="M65.51 24.54L66.74 24.27L66.89 24.87L65.66 25.14L65.51 24.54Z" fill="#03FC9D"/><path d="M61.39 26.08L66.89 24.87L67.04 25.47L61.54 26.68L61.39 26.08Z" fill="#03FC9D"/><path d="M61.54 26.68L67.04 25.47L67.19 26.07L61.69 27.28L61.54 26.68Z" fill="#03FC9D"/><path d="M61.69 27.29L66.6 26.21L66.75 26.81L61.84 27.89L61.69 27.29Z" fill="#03FC9D"/><path d="M61.84 27.9L66.11 26.96L66.26 27.56L61.99 28.5L61.84 27.9Z" fill="#03FC9D"/><path d="M62.65 20.7L63.26 20.57L63.41 21.17L62.8 21.3L62.65 20.7Z" fill="#03FC9D"/><path d="M61.41 20.98L62.02 20.85L62.17 21.45L61.56 21.58L61.41 20.98Z" fill="#03FC9D"/><path d="M60.19 21.25L60.8 21.12L60.95 21.72L60.34 21.85L60.19 21.25Z" fill="#03FC9D"/><path d="M60.36 19.32L64.68 18.37L64.83 18.97L60.51 19.92L60.36 19.32Z" fill="#03FC9D"/><path d="M59.92 20.04L65.42 18.83L65.57 19.43L60.07 20.64L59.92 20.04Z" fill="#03FC9D"/><path d="M59.45 20.78L66.17 19.3L66.32 19.9L59.6 21.38L59.45 20.78Z" fill="#03FC9D"/><path d="M67.67 22.79L68.28 22.66L68.43 23.26L67.82 23.39L67.67 22.79Z" fill="#E6E8EA"/><path d="M60.36 21.84L65.86 20.63L66.01 21.23L60.51 22.44L60.36 21.84Z" fill="#E6E8EA"/><path d="M67.21 23.52L67.82 23.39L67.97 23.99L67.36 24.12L67.21 23.52Z" fill="#E6E8EA"/><path d="M64.3 22.26L64.91 22.13L65.06 22.73L64.45 22.86L64.3 22.26Z" fill="#E6E8EA"/><path d="M65.71 20.03L66.32 19.9L66.47 20.5L65.86 20.63L65.71 20.03Z" fill="#E6E8EA"/><path d="M64.48 20.3L65.09 20.17L65.24 20.77L64.63 20.9L64.48 20.3Z" fill="#E6E8EA"/><path d="M63.24 20.58L63.85 20.45L64 21.05L63.39 21.18L63.24 20.58Z" fill="#E6E8EA"/><path d="M62.04 20.84L62.65 20.71L62.8 21.31L62.19 21.44L62.04 20.84Z" fill="#E6E8EA"/><path d="M60.81 21.11L61.42 20.98L61.57 21.58L60.96 21.71L60.81 21.11Z" fill="#E6E8EA"/><path d="M59.6 21.38L60.21 21.25L60.36 21.85L59.75 21.98L59.6 21.38Z" fill="#E6E8EA"/><path d="M59.28 20.18L59.89 20.05L60.04 20.65L59.43 20.78L59.28 20.18Z" fill="#003B2F"/><path d="M61.82 27.92L62.43 27.79L62.58 28.39L61.97 28.52L61.82 27.92Z" fill="#003B2F"/><path d="M66.17 19.3L66.78 19.17L67.08 20.38L66.47 20.51L66.17 19.3Z" fill="#003B2F"/><path d="M65.86 20.64L66.47 20.51L66.77 21.72L66.16 21.85L65.86 20.64Z" fill="#003B2F"/><path d="M63.69 22.42L63.54 21.82L64.77 21.55L64.92 22.15L63.69 22.42Z" fill="#003B2F"/><path d="M62.46 25.21L62.31 24.61L63.54 24.34L63.69 24.94L62.46 25.21Z" fill="#003B2F"/><path d="M62.91 27.03L62.76 26.43L64.56 26.03L64.71 26.63L62.91 27.03Z" fill="#003B2F"/><path d="M60.66 23.07L61.27 22.94L61.42 23.54L60.81 23.67L60.66 23.07Z" fill="#03FC9D"/><path d="M61.25 22.94L61.86 22.81L62.01 23.41L61.4 23.54L61.25 22.94Z" fill="#E6E8EA"/><path d="M60.63 23.09L60.48 22.49L61.71 22.22L61.86 22.82L60.63 23.09Z" fill="#003B2F"/><path d="M66.76 21.72L67.37 21.59L67.67 22.8L67.06 22.93L66.76 21.72Z" fill="#003B2F"/><path d="M65.17 28.44L65.78 28.31L66.08 29.52L65.47 29.65L65.17 28.44Z" fill="#003B2F"/><path d="M58.82 20.92L59.43 20.79L59.73 22L59.12 22.13L58.82 20.92Z" fill="#003B2F"/><path d="M59.73 21.99L60.34 21.86L61.82 27.88L61.21 28.01L59.73 21.99Z" fill="#003B2F"/><path d="M66.45 23.06L67.06 22.93L68.54 28.95L67.93 29.08L66.45 23.06Z" fill="#003B2F"/><path d="M44.14 58.74L42.99 58.41L42.66 59.56L43.81 59.89L44.14 58.74Z" stroke="#003B2F" stroke-width="0.3" stroke-linecap="round" stroke-linejoin="round"/><path d="M31.25 36.33C31.59 36.14 31.71 35.71 31.52 35.38C31.33 35.05 30.9 34.92 30.57 35.11C30.24 35.3 30.11 35.73 30.3 36.06C30.49 36.39 30.92 36.52 31.25 36.33Z" stroke="#003B2F" stroke-width="0.3" stroke-linecap="round" stroke-linejoin="round"/><path d="M26.87 38.33L26.04 38.79" stroke="#03FC9D" stroke-width="0.3" stroke-linecap="round" stroke-linejoin="round"/><path d="M31.48 38.44L25.46 41.78" stroke="#003B2F" stroke-width="0.3" stroke-linecap="round" stroke-linejoin="round"/><path d="M24.96 39.39L21.59 41.26" stroke="#03FC9D" stroke-width="0.3" stroke-linecap="round" stroke-linejoin="round"/><path d="M18.88 41.81L31.86 31.83C32.03 31.7 32.28 31.7 32.44 31.85L53.86 50.43C54.04 50.58 54.07 50.84 53.94 51.04L45.03 64.29C44.88 64.52 44.56 64.56 44.35 64.38L18.87 42.53C18.65 42.34 18.66 41.99 18.89 41.81H18.88Z" fill="#03FC9D" stroke="#003B2F" stroke-width="0.3" stroke-linecap="round" stroke-linejoin="round"/><path d="M20.4 41.85L31.82 33.06C31.99 32.93 32.24 32.93 32.4 33.08L52.59 50.59C52.77 50.74 52.8 51 52.67 51.2L44.83 62.85C44.68 63.08 44.36 63.12 44.15 62.94L20.38 42.56C20.16 42.37 20.17 42.02 20.4 41.84V41.85Z" fill="#E6E8EA" stroke="#003B2F" stroke-width="0.3" stroke-linecap="round" stroke-linejoin="round"/><path d="M37.35 31.34L39.66 32.85L35.9 42.55L35.71 43.05L35.41 43.82L35.25 44.23L35.21 44.34C35.11 44.49 34.88 44.52 34.7 44.4C34.52 44.28 34.45 44.06 34.55 43.91L34.23 43.74L34.55 42.49L37.36 31.35L37.35 31.34Z" fill="#03FC9D"/><path d="M42.08 53.65L42.2 53.58C42.2 53.58 43.16 52.89 43.38 52.27C43.45 52.06 43.52 51.83 43.56 51.59C43.65 51.15 43.68 50.73 43.62 50.61C43.53 50.43 43.19 49.91 43.19 49.91C43.3 49.86 43.4 49.79 43.52 49.71C44.31 49.11 46.33 48.23 46.33 48.23C46.33 48.23 48.49 47.13 48.62 47.11C48.75 47.09 49.05 47.27 49.17 47.29C49.3 47.31 49.52 47.15 49.8 47.32C50.07 47.49 52.14 48.74 52.14 48.74L53.96 49.64L42.84 66.66L40.34 65.12C40.34 65.12 39.52 64.57 39.1 63.33C38.67 62.09 38.46 60.72 38.46 60.72L38.19 57.95L38.15 55.65L39.45 55.02L40.07 54.72L41.34 54.06L42.08 53.63V53.65Z" fill="#03FC9D"/><path d="M36.21 42.74C36.55 42.37 37.13 42.3 37.58 42.59C38.08 42.92 38.23 43.57 37.91 44.06C37.89 44.1 37.86 44.13 37.83 44.16C37.76 44.25 37.67 44.32 37.57 44.38C37.52 44.41 37.46 44.43 37.41 44.46C37.1 44.58 36.73 44.55 36.42 44.35C36.02 44.09 35.84 43.61 35.95 43.18C35.98 43.08 36.03 42.97 36.09 42.88C36.12 42.83 36.16 42.78 36.2 42.74H36.21ZM37.44 42.74C37.04 42.48 36.54 42.55 36.31 42.9C36.23 43.02 36.19 43.17 36.2 43.31C36.2 43.57 36.36 43.83 36.61 44C36.92 44.2 37.29 44.2 37.55 44.03C37.62 43.98 37.69 43.92 37.74 43.84C37.97 43.49 37.83 43 37.43 42.74H37.44Z" fill="#003B2F"/><path d="M36.31 42.9C36.54 42.55 37.04 42.48 37.44 42.74C37.84 43 37.97 43.49 37.74 43.84C37.69 43.92 37.62 43.98 37.55 44.03C37.29 44.2 36.92 44.2 36.61 44C36.35 43.83 36.21 43.57 36.2 43.31C36.2 43.17 36.23 43.03 36.31 42.9ZM37.36 42.9C37.03 42.68 36.62 42.73 36.44 43C36.36 43.12 36.34 43.26 36.37 43.4C36.41 43.58 36.53 43.76 36.71 43.89C36.94 44.04 37.22 44.06 37.42 43.97C37.5 43.93 37.58 43.87 37.63 43.79C37.81 43.52 37.68 43.12 37.35 42.91L37.36 42.9Z" fill="#E6E8EA"/><path d="M36.44 43C36.62 42.73 37.03 42.68 37.36 42.9C37.69 43.11 37.81 43.51 37.64 43.78C37.59 43.86 37.51 43.92 37.43 43.96C37.23 44.06 36.95 44.04 36.72 43.88C36.53 43.76 36.41 43.58 36.38 43.39C36.35 43.25 36.38 43.11 36.45 42.99L36.44 43Z" fill="#03FC9D"/><path d="M35.9 42.54L36.2 42.74C36.2 42.74 36.12 42.83 36.09 42.88C36.03 42.97 35.98 43.08 35.95 43.18C35.84 43.61 36.01 44.09 36.42 44.35C36.73 44.55 37.1 44.58 37.41 44.46C37.14 44.6 36.97 44.77 36.85 44.94C36.58 45.36 36.66 45.77 36.67 45.81C36.57 45.5 36.37 45.21 36.07 45.02C35.77 44.82 35.43 44.75 35.1 44.79C35.16 44.79 35.21 44.76 35.26 44.74C35.46 44.65 35.67 44.4 35.62 44.18C35.59 44.03 35.51 43.92 35.42 43.82L35.72 43.05L35.91 42.55L35.9 42.54Z" fill="white"/><path d="M42.08 53.65L41.34 54.08L40.07 54.74L39.45 55.04C39.3 54.7 38.6 53.73 38.6 53.73C37.66 53.44 36.6 53.11 36.6 53.11C35.87 52.63 34.99 52.08 34.99 52.08L34.24 51.74C34.24 51.74 33.62 51.72 33.08 51.58C32.54 51.45 32.3 51.07 32.3 51.07C32.13 50.62 32.33 50.22 32.69 49.91C33.06 49.6 33.99 49.86 34.2 49.7C34.41 49.53 34.37 49.24 34.2 48.87C34.03 48.5 32.75 47.28 32.55 47.02C32.35 46.76 31.85 46.65 31.85 46.65L31.37 46.41C31.88 45.53 33.23 42.16 33.23 42.16C33.55 42.15 33.78 42.16 34.06 42.27C34.19 42.32 34.36 42.39 34.53 42.47L34.21 43.71V43.73L34.18 43.78L33.92 44.33L33.71 44.76L34.12 45.03C34.12 45.03 33.82 44.88 33.54 45.01C33.27 45.14 33.26 45.49 33.26 45.49C33.26 45.49 32.81 46.06 32.82 46.16C32.84 46.26 32.82 46.38 32.82 46.38C32.82 46.38 32.74 46.82 32.7 46.85C32.66 46.88 32.97 47.03 32.97 47.03L33.16 46.97L33.39 47.14C33.39 47.14 33.27 47.61 33.59 47.84C33.91 48.07 34.25 48.37 34.54 48.46C34.83 48.54 35.23 48.48 35.43 48.3C35.58 48.16 36.13 47.43 36.37 47.12C36.43 47.03 36.47 46.98 36.47 46.98C36.7 46.62 36.75 46.2 36.63 45.81C36.62 45.76 36.54 45.35 36.81 44.94C36.93 44.76 37.1 44.59 37.37 44.45C37.43 44.43 37.48 44.4 37.53 44.37C37.63 44.31 37.71 44.24 37.79 44.15C37.86 44.15 38.23 44.11 38.42 44.24C38.64 44.38 38.88 44.77 38.99 45C39.09 45.23 39.22 45.46 39.29 45.47C39.3 45.47 39.32 45.47 39.33 45.47C39.26 45.59 39.18 45.84 39.18 45.84C39.18 45.84 38.96 46.03 38.93 46.23C38.89 46.43 38.95 46.53 39.09 46.64C39.23 46.75 39.35 46.63 39.44 46.53C39.53 46.43 39.65 46.42 39.72 46.39C39.78 46.36 40.02 46 40.02 46C40.06 46.05 40.11 46.1 40.15 46.18C40.24 46.34 40.6 46.89 40.6 46.89C40.6 46.89 41.12 47.11 41.31 47.32C41.5 47.52 41.7 47.94 41.63 48.2C41.58 48.41 41.43 48.78 41.05 49.21L41.12 49.26L42.09 49.89C42.09 49.89 42.12 49.91 42.17 49.93L42.15 49.99L43.53 51.56C43.49 51.79 43.42 52.02 43.35 52.24C43.13 52.86 42.17 53.55 42.17 53.55L42.05 53.62L42.08 53.65ZM39.14 46.88C39.02 46.75 38.72 46.6 38.59 46.82C38.46 47.05 38.45 47.21 38.45 47.21C38.45 47.21 38.09 47.64 37.96 48.09C37.83 48.54 38.17 49.06 38.17 49.06C38.17 49.06 38.31 49.33 38.45 49.2C38.6 49.07 38.61 48.79 38.58 48.69C38.55 48.59 38.71 48.66 38.75 48.55C38.8 48.44 39.01 47.97 38.96 47.84C38.91 47.71 39.19 47.39 39.15 47.28C39.15 47.28 39.25 47.02 39.13 46.89L39.14 46.88Z" fill="#E6E8EA"/><path d="M39.73 45.58C39.94 45.7 40 45.79 39.99 45.9C39.99 45.95 40.01 45.99 40.05 46.04C40.05 46.04 39.82 46.4 39.75 46.43C39.69 46.46 39.56 46.47 39.47 46.57C39.38 46.67 39.25 46.78 39.12 46.68C38.98 46.57 38.93 46.46 38.96 46.27C39 46.07 39.21 45.88 39.21 45.88C39.21 45.88 39.3 45.63 39.36 45.51C39.43 45.51 39.54 45.49 39.71 45.59L39.73 45.58Z" fill="#003B2F"/><path d="M35.26 44.23L35.42 43.82C35.51 43.91 35.6 44.03 35.62 44.18C35.67 44.4 35.46 44.65 35.26 44.74C35.21 44.76 35.16 44.78 35.1 44.79C35.07 44.79 35.05 44.79 35.02 44.8C34.85 44.81 34.68 44.77 34.53 44.68C34.35 44.57 34.2 44.39 34.16 44.18C34.13 44.05 34.14 43.91 34.19 43.79L34.21 43.74C34.21 43.74 34.21 43.73 34.22 43.72L34.54 43.89C34.44 44.04 34.51 44.26 34.69 44.38C34.87 44.5 35.1 44.47 35.2 44.32C35.22 44.29 35.24 44.25 35.24 44.21L35.26 44.23Z" fill="#E6E8EA"/><path d="M32.44 42.22C32.77 42.2 33.02 42.17 33.23 42.16C33.23 42.16 31.88 45.53 31.37 46.41L31.85 46.65C31.85 46.65 32.35 46.76 32.55 47.02C32.75 47.28 34.03 48.5 34.2 48.87C34.37 49.24 34.41 49.53 34.2 49.7C33.99 49.87 33.06 49.61 32.69 49.91C32.32 50.22 32.13 50.62 32.3 51.07C32.3 51.07 32.02 51.01 31.52 50.78C31.02 50.55 30.37 50.05 30.12 49.79C29.88 49.54 29.29 48.84 29.11 48.33C28.92 47.82 28.64 46.89 28.77 46.12C28.9 45.35 29.54 44.3 30.09 43.64C30.65 42.98 31.61 42.28 32.43 42.22H32.44Z" fill="#003B2F"/><path d="M38.5901 46.82C38.7201 46.59 39.02 46.75 39.14 46.88C39.26 47.01 39.1601 47.27 39.1601 47.27C39.2001 47.38 38.9201 47.7 38.9701 47.83C39.0201 47.96 38.81 48.43 38.76 48.54C38.71 48.65 38.5601 48.58 38.5901 48.68C38.6201 48.78 38.6 49.06 38.46 49.19C38.31 49.32 38.1801 49.05 38.1801 49.05C38.1801 49.05 37.8401 48.53 37.9701 48.08C38.1001 47.63 38.46 47.2 38.46 47.2C38.46 47.2 38.47 47.04 38.6 46.81L38.5901 46.82Z" fill="#003B2F"/><path d="M33.94 44.35L34.2 43.8C34.15 43.92 34.14 44.06 34.17 44.19C34.21 44.4 34.36 44.58 34.54 44.69C34.68 44.78 34.86 44.82 35.03 44.81C34.66 44.87 34.31 45.08 34.09 45.42C33.66 46.07 33.86 46.96 34.53 47.39C35.15 47.79 35.95 47.68 36.41 47.14C36.17 47.45 35.63 48.18 35.47 48.32C35.27 48.5 34.87 48.56 34.58 48.48C34.29 48.39 33.95 48.09 33.63 47.86C33.31 47.63 33.43 47.16 33.43 47.16L33.2 46.99L33.01 47.05C33.01 47.05 32.69 46.9 32.74 46.87C32.79 46.84 32.86 46.4 32.86 46.4C32.86 46.4 32.88 46.28 32.86 46.18C32.84 46.08 33.3 45.51 33.3 45.51C33.3 45.51 33.3 45.16 33.58 45.03C33.85 44.9 34.16 45.05 34.16 45.05L33.75 44.78L33.96 44.35H33.94Z" fill="white"/><path d="M35.1 44.79C35.42 44.76 35.76 44.83 36.07 45.02C36.37 45.21 36.57 45.5 36.67 45.81C36.79 46.2 36.74 46.63 36.51 46.99C36.51 46.99 36.47 47.04 36.41 47.13C35.96 47.67 35.15 47.78 34.53 47.38C33.86 46.94 33.66 46.06 34.09 45.41C34.31 45.07 34.66 44.86 35.03 44.8C35.05 44.8 35.08 44.8 35.11 44.8L35.1 44.79ZM35.88 45.22C35.35 44.87 34.67 44.97 34.36 45.44C34.05 45.91 34.24 46.57 34.77 46.91C35.3 47.26 35.98 47.16 36.28 46.69C36.59 46.22 36.4 45.56 35.87 45.21L35.88 45.22Z" fill="#003B2F"/><path d="M43.1901 49.92C43.1901 49.92 43.5301 50.43 43.6201 50.62C43.6801 50.74 43.6501 51.16 43.5601 51.6L42.1801 50.03L42.2001 49.97C42.3601 50.04 42.7201 50.14 43.1901 49.92Z" fill="#E6E8EA"/><path d="M34.36 45.43C34.66 44.96 35.35 44.86 35.88 45.21C36.41 45.56 36.59 46.22 36.29 46.69C35.99 47.16 35.31 47.25 34.78 46.91C34.25 46.56 34.06 45.9 34.37 45.44L34.36 45.43ZM35.77 45.43C35.33 45.14 34.78 45.21 34.54 45.57C34.3 45.93 34.47 46.47 34.91 46.75C35.35 47.04 35.91 46.98 36.15 46.61C36.39 46.24 36.23 45.71 35.78 45.42L35.77 45.43Z" fill="#E6E8EA"/><path d="M34.54 45.57C34.78 45.2 35.33 45.14 35.77 45.43C36.21 45.72 36.38 46.25 36.14 46.62C35.9 46.98 35.35 47.05 34.9 46.76C34.46 46.47 34.29 45.94 34.53 45.58L34.54 45.57Z" fill="#03FC9D"/><path d="M36.61 53.11C36.61 53.11 37.66 53.43 38.61 53.73C38.61 53.73 39.3 54.7 39.46 55.04L38.16 55.67C38.11 55.63 37.93 54.05 37.45 53.68C37.29 53.56 36.97 53.34 36.62 53.11H36.61Z" fill="#E6E8EA"/><path d="M35.71 51.02C35.71 51.02 36.63 51.39 37.41 51.49C38.19 51.59 38.57 51.2 38.57 51.2C38.57 51.2 40.06 50.22 40.71 49.64C40.86 49.51 40.98 49.38 41.09 49.26C41.47 48.83 41.62 48.45 41.67 48.25C41.74 47.98 41.53 47.57 41.35 47.37C41.16 47.16 40.64 46.94 40.64 46.94C40.64 46.94 40.28 46.39 40.19 46.23C40.14 46.15 40.1 46.1 40.06 46.05C40.02 46 40 45.96 40 45.91C40 45.79 39.94 45.71 39.74 45.59C39.57 45.49 39.46 45.5 39.39 45.51C39.37 45.51 39.36 45.51 39.35 45.51C39.28 45.49 39.15 45.27 39.05 45.04C38.94 44.81 38.7 44.42 38.48 44.28C38.28 44.15 37.92 44.19 37.85 44.19" stroke="#003B2F" stroke-width="0.3" stroke-linecap="round" stroke-linejoin="round"/><path d="M41.09 49.25L41.16 49.3L42.13 49.93C42.13 49.93 42.16 49.95 42.21 49.97C42.37 50.04 42.73 50.14 43.2 49.92C43.31 49.87 43.41 49.8 43.53 49.72C44.32 49.12 46.34 48.24 46.34 48.24C46.34 48.24 48.5 47.14 48.63 47.12C48.76 47.1 49.06 47.28 49.18 47.3C49.31 47.32 49.53 47.16 49.81 47.33C50.08 47.5 52.15 48.75 52.15 48.75L53.97 49.65L42.85 66.67L40.35 65.13C40.35 65.13 39.53 64.58 39.11 63.34C38.68 62.1 38.47 60.73 38.47 60.73L38.2 57.96L38.16 55.66C38.11 55.62 37.93 54.04 37.45 53.67C37.29 53.55 36.97 53.33 36.62 53.1C35.89 52.62 35.01 52.07 35.01 52.07L34.26 51.73C34.26 51.73 33.64 51.71 33.1 51.57C32.56 51.44 32.32 51.06 32.32 51.06C32.32 51.06 32.04 51 31.54 50.77C31.04 50.54 30.39 50.04 30.14 49.78C29.9 49.53 29.31 48.83 29.13 48.32C28.94 47.81 28.66 46.88 28.79 46.11C28.92 45.34 29.56 44.29 30.11 43.63C30.67 42.97 31.63 42.26 32.45 42.21C32.78 42.19 33.03 42.16 33.24 42.15C33.56 42.14 33.79 42.15 34.07 42.26C34.2 42.31 34.37 42.38 34.54 42.46" stroke="#003B2F" stroke-width="0.3" stroke-linecap="round" stroke-linejoin="round"/><path d="M38.16 55.66L39.46 55.03L40.08 54.73L41.35 54.07L42.09 53.64L42.21 53.57C42.21 53.57 43.17 52.88 43.39 52.26C43.46 52.05 43.53 51.82 43.57 51.58C43.66 51.14 43.69 50.72 43.63 50.6C43.54 50.42 43.2 49.9 43.2 49.9" stroke="#003B2F" stroke-width="0.3" stroke-linecap="round" stroke-linejoin="round"/><path d="M36.61 53.11C36.61 53.11 37.66 53.43 38.61 53.73C39.28 53.93 39.89 54.13 40.05 54.18" stroke="#003B2F" stroke-width="0.3" stroke-linecap="round" stroke-linejoin="round"/><path d="M38.61 53.73C38.61 53.73 39.3 54.7 39.46 55.04C39.46 55.05 39.46 55.06 39.47 55.07" stroke="#003B2F" stroke-width="0.3" stroke-linecap="round" stroke-linejoin="round"/><path d="M37.9 52.21C37.9 52.21 39.36 52.49 39.93 52.83C40.5 53.17 41.71 53.67 42.08 53.66" stroke="#003B2F" stroke-width="0.3" stroke-linecap="round" stroke-linejoin="round"/><path d="M41.66 50.7C41.7 50.87 41.72 51.02 41.71 51.13" stroke="#003B2F" stroke-width="0.3" stroke-linecap="round" stroke-linejoin="round"/><path d="M41.4901 50.13C41.5501 50.32 41.62 50.51 41.66 50.69" stroke="#003B2F" stroke-width="0.3" stroke-linecap="round" stroke-linejoin="round"/><path d="M41.16 49.3C41.16 49.3 41.34 49.69 41.49 50.13" stroke="#003B2F" stroke-width="0.3" stroke-linecap="round" stroke-linejoin="round"/><path d="M41.49 50.13C41.48 50.19 41.39 50.57 41.36 50.63" stroke="#003B2F" stroke-width="0.3" stroke-linecap="round" stroke-linejoin="round"/><path d="M41.66 50.7C41.61 50.73 41.13 51.03 40.88 51.22" stroke="#003B2F" stroke-width="0.3" stroke-linecap="round" stroke-linejoin="round"/><path d="M42.1801 50.03L43.5601 51.6" stroke="#003B2F" stroke-width="0.3" stroke-linecap="round" stroke-linejoin="round"/><path d="M33.23 42.17C33.23 42.17 31.88 45.54 31.37 46.42L31.85 46.66C31.85 46.66 32.35 46.77 32.55 47.03C32.75 47.29 34.03 48.51 34.2 48.88C34.37 49.25 34.41 49.54 34.2 49.71C33.99 49.88 33.06 49.62 32.69 49.92C32.32 50.23 32.13 50.63 32.3 51.08" stroke="#003B2F" stroke-width="0.3" stroke-linecap="round" stroke-linejoin="round"/><path d="M33.9 50.22C33.9 50.22 33.74 50.18 33.54 50.15C33.24 50.11 32.84 50.11 32.71 50.37V50.38C32.55 50.7 32.69 51.09 33 51.25C33.24 51.38 33.64 51.53 34.11 51.4" stroke="#003B2F" stroke-width="0.3" stroke-linecap="round" stroke-linejoin="round"/><path d="M33.54 50.15C33.54 50.15 33.52 50.47 33.7 50.6C33.87 50.73 33.94 50.66 34.23 50.6C34.52 50.54 34.52 50.68 34.52 50.68L34.65 50.57" stroke="#003B2F" stroke-width="0.3" stroke-linecap="round" stroke-linejoin="round"/><path d="M34.52 50.68C34.52 50.68 34.73 50.76 34.66 50.95" stroke="#003B2F" stroke-width="0.3" stroke-linecap="round" stroke-linejoin="round"/><path d="M32.84 50.53C32.84 50.53 33.01 50.83 33.2 50.58" stroke="#003B2F" stroke-width="0.3" stroke-linecap="round" stroke-linejoin="round"/><path d="M33.38 50.58C33.38 50.58 33.55 51.11 34.04 51.01" stroke="#003B2F" stroke-width="0.3" stroke-linecap="round" stroke-linejoin="round"/><path d="M32.82 50.87C32.82 50.87 33.28 51.32 33.66 51.26" stroke="#003B2F" stroke-width="0.3" stroke-linecap="round" stroke-linejoin="round"/><path d="M34.89 48.83C34.89 48.83 36.18 49.19 36.9 49.11" stroke="#003B2F" stroke-width="0.3" stroke-linecap="round" stroke-linejoin="round"/><path d="M36.85 44.95C37.11 45.08 37.37 45.19 37.58 45.21C38.26 45.28 38.37 45.18 38.62 45.36C38.81 45.49 38.94 45.69 38.78 45.96C38.63 46.22 38.38 46.37 37.91 46.23" stroke="#003B2F" stroke-width="0.3" stroke-linecap="round" stroke-linejoin="round"/><path d="M37.68 46.67C37.68 46.67 37.64 47.1 38.06 47.04" stroke="#003B2F" stroke-width="0.3" stroke-linecap="round" stroke-linejoin="round"/><path d="M38.37 46.43C38.37 46.43 38.11 46.59 38.25 46.85" stroke="#003B2F" stroke-width="0.3" stroke-linecap="round" stroke-linejoin="round"/><path d="M38.45 47.21C38.45 47.21 38.09 47.64 37.96 48.09C37.83 48.54 38.17 49.06 38.17 49.06C38.17 49.06 38.31 49.33 38.45 49.2C38.6 49.07 38.61 48.79 38.58 48.69C38.55 48.59 38.71 48.66 38.75 48.55C38.8 48.44 39.01 47.97 38.96 47.84C38.91 47.71 39.19 47.39 39.15 47.28C39.15 47.28 39.25 47.02 39.13 46.89C39.01 46.76 38.71 46.61 38.58 46.83C38.45 47.06 38.44 47.22 38.44 47.22L38.45 47.21Z" stroke="#003B2F" stroke-width="0.3" stroke-linecap="round" stroke-linejoin="round"/><path d="M40.05 46.04C40.05 46.04 39.82 46.4 39.75 46.43C39.69 46.46 39.56 46.47 39.47 46.57C39.38 46.67 39.25 46.78 39.12 46.68C38.98 46.57 38.93 46.46 38.96 46.27C39 46.07 39.21 45.88 39.21 45.88C39.21 45.88 39.3 45.63 39.36 45.51" stroke="#003B2F" stroke-width="0.3" stroke-linecap="round" stroke-linejoin="round"/><path d="M35.78 45.42C36.22 45.71 36.39 46.24 36.15 46.61C35.91 46.97 35.36 47.04 34.91 46.75C34.47 46.46 34.3 45.93 34.54 45.57C34.78 45.2 35.33 45.14 35.77 45.43L35.78 45.42Z" stroke="#003B2F" stroke-width="0.3" stroke-linecap="round" stroke-linejoin="round"/><path d="M35.26 44.23C35.26 44.23 35.24 44.3 35.22 44.34" stroke="#003B2F" stroke-width="0.3" stroke-linecap="round" stroke-linejoin="round"/><path d="M35.88 45.21C36.41 45.56 36.59 46.22 36.29 46.69C35.99 47.16 35.31 47.25 34.78 46.91C34.25 46.56 34.06 45.9 34.37 45.44C34.68 44.97 35.35 44.87 35.89 45.22L35.88 45.21Z" stroke="#003B2F" stroke-width="0.3" stroke-linecap="round" stroke-linejoin="round"/><path d="M36.67 45.82C36.79 46.21 36.74 46.64 36.51 46.99" stroke="#003B2F" stroke-width="0.3" stroke-linecap="round" stroke-linejoin="round"/><path d="M37.57 44.38C37.67 44.32 37.75 44.25 37.83 44.16C37.86 44.13 37.89 44.1 37.91 44.06C38.23 43.57 38.08 42.92 37.58 42.59C37.13 42.3 36.55 42.37 36.21 42.74" stroke="#003B2F" stroke-width="0.3" stroke-linecap="round" stroke-linejoin="round"/><path d="M37.42 44.46C37.42 44.46 37.52 44.41 37.58 44.38C37.53 44.41 37.48 44.44 37.42 44.46Z" stroke="#003B2F" stroke-width="0.3" stroke-linecap="round" stroke-linejoin="round"/><path d="M37.74 43.83C37.97 43.48 37.83 42.99 37.44 42.73C37.04 42.47 36.54 42.54 36.31 42.89C36.23 43.01 36.19 43.16 36.2 43.3C36.2 43.56 36.36 43.82 36.61 43.99C36.92 44.19 37.29 44.19 37.55 44.02C37.62 43.97 37.69 43.91 37.74 43.83Z" stroke="#003B2F" stroke-width="0.3" stroke-linecap="round" stroke-linejoin="round"/><path d="M37.64 43.78C37.59 43.86 37.51 43.92 37.43 43.96C37.23 44.06 36.95 44.04 36.72 43.88C36.53 43.76 36.41 43.58 36.38 43.39C36.35 43.25 36.38 43.11 36.45 42.99C36.63 42.72 37.04 42.67 37.37 42.89C37.7 43.11 37.82 43.5 37.65 43.77L37.64 43.78Z" stroke="#003B2F" stroke-width="0.3" stroke-linecap="round" stroke-linejoin="round"/><path d="M35.02 44.8C35.04 44.8 35.07 44.8 35.1 44.79" stroke="#003B2F" stroke-width="0.3" stroke-linecap="round" stroke-linejoin="round"/><path d="M34.19 43.79C34.14 43.91 34.13 44.05 34.16 44.18C34.2 44.39 34.35 44.57 34.53 44.68C34.67 44.77 34.85 44.81 35.02 44.8C34.65 44.86 34.3 45.07 34.08 45.41C33.65 46.06 33.85 46.95 34.52 47.38C35.14 47.78 35.94 47.67 36.4 47.13C36.16 47.44 35.62 48.17 35.46 48.31C35.26 48.49 34.86 48.55 34.57 48.47C34.28 48.38 33.94 48.08 33.62 47.85C33.3 47.62 33.42 47.15 33.42 47.15L33.19 46.98L33 47.04C33 47.04 32.68 46.89 32.73 46.86C32.78 46.83 32.85 46.39 32.85 46.39C32.85 46.39 32.87 46.27 32.85 46.17C32.83 46.07 33.29 45.5 33.29 45.5C33.29 45.5 33.29 45.15 33.57 45.02C33.84 44.89 34.15 45.04 34.15 45.04L33.74 44.77L33.95 44.34L34.21 43.79H34.19Z" stroke="#003B2F" stroke-width="0.3" stroke-linecap="round" stroke-linejoin="round"/><path d="M34.21 43.74L34.19 43.79" stroke="#003B2F" stroke-width="0.3" stroke-linecap="round" stroke-linejoin="round"/><path d="M36.4 47.13C36.46 47.04 36.5 46.99 36.5 46.99" stroke="#003B2F" stroke-width="0.3" stroke-linecap="round" stroke-linejoin="round"/><path d="M35.9 42.54L39.65 32.84L37.34 31.33L34.53 42.47L34.21 43.71" stroke="#003B2F" stroke-width="0.3" stroke-linecap="round" stroke-linejoin="round"/><path d="M34.23 43.72L34.55 43.89C34.45 44.04 34.52 44.26 34.7 44.38C34.88 44.5 35.11 44.47 35.21 44.32L35.25 44.21L35.41 43.8" stroke="#003B2F" stroke-width="0.3" stroke-linecap="round" stroke-linejoin="round"/><path d="M35.9 42.54L36.2 42.74C36.2 42.74 36.12 42.83 36.09 42.88C36.03 42.97 35.98 43.08 35.95 43.18C35.84 43.61 36.01 44.09 36.42 44.35C36.73 44.55 37.1 44.58 37.41 44.46C37.14 44.6 36.97 44.77 36.85 44.94C36.58 45.36 36.66 45.77 36.67 45.81C36.57 45.5 36.37 45.21 36.07 45.02C35.77 44.82 35.43 44.75 35.1 44.79C35.16 44.79 35.21 44.76 35.26 44.74C35.46 44.65 35.67 44.4 35.62 44.18C35.59 44.03 35.51 43.92 35.42 43.82L35.72 43.05L35.91 42.55L35.9 42.54Z" stroke="#003B2F" stroke-width="0.3" stroke-linecap="round" stroke-linejoin="round"/><path d="M34.22 43.72C34.22 43.72 34.22 43.73 34.21 43.74V43.72H34.22Z" stroke="#003B2F" stroke-width="0.3" stroke-linecap="round" stroke-linejoin="round"/><path d="M34.25 51.74C34.25 51.74 35.02 51.8 35.35 51.48C35.68 51.16 35.27 50.84 35.15 50.68" stroke="#003B2F" stroke-width="0.3" stroke-linecap="round" stroke-linejoin="round"/><path d="M165.39 35.68H166.55" stroke="#003B2F" stroke-width="0.3" stroke-linecap="round" stroke-linejoin="round"/><path d="M158.6 31.46L159.69 32.55" stroke="#003B2F" stroke-width="0.3" stroke-linecap="round" stroke-linejoin="round"/><path d="M160.48 33.34L161.57 34.43" stroke="#003B2F" stroke-width="0.3" stroke-linecap="round" stroke-linejoin="round"/><path d="M158.6 34.43L159.69 33.34" stroke="#003B2F" stroke-width="0.3" stroke-linecap="round" stroke-linejoin="round"/><path d="M160.48 32.54L161.57 31.45" stroke="#003B2F" stroke-width="0.3" stroke-linecap="round" stroke-linejoin="round"/><path d="M132.64 48.16L150.52 22.66C150.72 22.38 151.08 22.26 151.41 22.37L169.66 28.69C170.09 28.84 170.3 29.33 170.11 29.75L156.43 59.12C156.25 59.5 155.8 59.67 155.41 59.5L132.96 49.31C132.52 49.11 132.37 48.56 132.65 48.16H132.64Z" fill="#E6E8EA" stroke="#003B2F" stroke-width="0.3" stroke-linecap="round" stroke-linejoin="round"/><path d="M154.89 58.08L134.58 48.86C134.14 48.66 133.99 48.11 134.27 47.71L150.95 23.92C151.15 23.64 151.51 23.52 151.84 23.63L168.21 29.3C168.64 29.45 168.85 29.94 168.66 30.36L155.93 57.69C155.75 58.07 155.3 58.24 154.91 58.07L154.89 58.08Z" fill="white" stroke="#003B2F" stroke-width="0.3" stroke-linecap="round" stroke-linejoin="round"/><path d="M147.89 28.49C148.52 28.4 149.15 28.47 149.74 28.7C150.34 28.93 150.88 29.32 151.34 29.76C151.82 30.22 152.25 30.72 152.89 30.96C153.22 31.08 153.57 31.14 153.91 31.17C154.29 31.21 154.68 31.24 155.06 31.26C155.85 31.3 156.64 31.32 157.43 31.3C157.82 31.3 158.21 31.27 158.6 31.26C158.97 31.24 159.35 31.24 159.72 31.32C160.35 31.47 160.84 31.9 161.29 32.34C161.73 32.77 162.16 33.2 162.69 33.53C163.75 34.19 165.02 34.56 166.26 34.58C166.41 34.58 166.56 34.58 166.71 34.58C166.84 34.58 166.84 34.37 166.71 34.38C165.46 34.45 164.17 34.14 163.08 33.54C162.81 33.39 162.55 33.22 162.31 33.03C162.07 32.84 161.85 32.62 161.63 32.4C161.19 31.96 160.74 31.51 160.17 31.26C159.48 30.97 158.72 31.06 158 31.09C157.2 31.12 156.41 31.12 155.61 31.09C155.21 31.07 154.81 31.05 154.42 31.02C154.06 30.99 153.69 30.96 153.34 30.88C153 30.8 152.69 30.67 152.4 30.47C152.13 30.27 151.9 30.03 151.66 29.8C151.2 29.34 150.7 28.93 150.11 28.65C149.55 28.38 148.94 28.25 148.32 28.26C148.16 28.26 147.99 28.28 147.83 28.3C147.7 28.32 147.76 28.51 147.88 28.5L147.89 28.49Z" fill="#003B2F"/><path d="M143.85 34.24C145.22 34.05 146.56 34.45 147.72 35.18C148.32 35.56 148.88 35.97 149.54 36.23C150.22 36.49 150.94 36.63 151.65 36.8C152.37 36.97 153.1 37.12 153.84 37.18C154.6 37.24 155.34 37.18 156.1 37.16C156.47 37.15 156.85 37.16 157.22 37.24C157.57 37.31 157.91 37.43 158.23 37.58C158.86 37.86 159.47 38.17 160.12 38.39C161.38 38.83 162.7 39.11 164.03 39.28C164.19 39.3 164.34 39.32 164.5 39.34C164.63 39.35 164.63 39.15 164.5 39.14C163.17 38.99 161.84 38.73 160.56 38.32C159.91 38.11 159.3 37.84 158.68 37.55C158.03 37.25 157.37 37 156.64 36.95C155.88 36.91 155.13 37.02 154.37 37C153.61 36.98 152.86 36.86 152.12 36.69C151.76 36.61 151.4 36.52 151.05 36.43C150.7 36.34 150.34 36.26 149.99 36.15C149.64 36.04 149.3 35.9 148.98 35.72C148.67 35.55 148.39 35.35 148.09 35.16C147.52 34.79 146.93 34.46 146.28 34.25C145.64 34.04 144.97 33.95 144.3 33.98C144.13 33.98 143.96 34.01 143.8 34.03C143.67 34.05 143.73 34.25 143.85 34.23V34.24Z" fill="#003B2F"/><path d="M139.82 39.99C141.34 39.78 142.87 40.07 144.27 40.66C144.99 40.96 145.68 41.3 146.4 41.58C147.1 41.85 147.79 42.13 148.48 42.41C149.17 42.69 149.87 42.95 150.6 43.06C151.37 43.18 152.14 43.14 152.92 43.06C153.69 42.99 154.45 42.94 155.22 42.99C155.96 43.04 156.69 43.14 157.42 43.24C158.86 43.42 160.31 43.63 161.72 43.97C161.89 44.01 162.06 44.06 162.23 44.1C162.36 44.13 162.41 43.94 162.28 43.9C160.87 43.52 159.43 43.3 157.99 43.11C157.26 43.01 156.54 42.92 155.81 42.84C155.04 42.76 154.28 42.74 153.51 42.8C152.72 42.86 151.93 42.97 151.14 42.91C150.38 42.86 149.65 42.64 148.94 42.37C148.24 42.1 147.56 41.8 146.86 41.53C146.13 41.25 145.42 40.94 144.7 40.62C144 40.31 143.28 40.05 142.53 39.89C141.8 39.74 141.04 39.67 140.3 39.73C140.11 39.74 139.93 39.76 139.75 39.79C139.62 39.81 139.68 40 139.81 39.99H139.82Z" fill="#003B2F"/><path d="M135.77 45.72C137.34 45.5 138.96 45.62 140.5 45.98C141.27 46.16 142.03 46.4 142.76 46.7C143.5 47.01 144.2 47.39 144.89 47.8C145.59 48.21 146.3 48.62 147.09 48.85C147.93 49.09 148.81 49.09 149.68 48.98C150.55 48.87 151.41 48.64 152.27 48.47C153.07 48.31 153.87 48.2 154.69 48.14C156.29 48.03 157.94 48.14 159.48 48.65C159.67 48.71 159.85 48.78 160.03 48.86C160.15 48.91 160.2 48.71 160.08 48.66C158.59 48.05 156.95 47.86 155.34 47.91C154.52 47.93 153.71 48.02 152.9 48.15C152.05 48.29 151.22 48.5 150.38 48.66C149.49 48.83 148.56 48.93 147.66 48.78C146.83 48.64 146.08 48.26 145.36 47.85C144.66 47.45 143.97 47.03 143.23 46.7C142.51 46.38 141.76 46.11 141 45.91C139.47 45.5 137.86 45.32 136.28 45.47C136.09 45.49 135.91 45.51 135.72 45.54C135.59 45.56 135.65 45.75 135.77 45.74V45.72Z" fill="#003B2F"/><path d="M145.84 44.16C145.75 44.23 145.73 44.27 145.63 44.33C144.41 45.08 142.91 44.23 141.65 44.77C140.19 45.38 139.03 46.64 138.11 47.89L145.84 44.15V44.16Z" fill="white"/><path d="M151.39 46.55C152 47.62 153.36 48.49 153.51 49.79C153.58 50.45 153.44 51.12 153.23 51.75C152.99 52.5 152.53 53.28 152.58 54.08L151.39 46.55Z" fill="white"/><path d="M152.66 50.02C152.79 50.19 152.73 50.36 152.62 50.52C151.98 51.47 151.31 52.45 151.51 53.66L152.65 50.01L152.66 50.02Z" fill="white"/><path d="M142.36 48C142.5 48.56 142.54 49.15 142.46 49.72L142.36 48Z" fill="white"/><path d="M142.41 48.25C142.23 48.65 142.11 49.09 142.08 49.53L142.41 48.25Z" fill="white"/><path d="M141.87 44.73C142.14 45.55 142.49 46.23 142.4 47.13L141.87 44.73Z" fill="white"/><path d="M149.03 39.27C148.52 40.34 148.4 41.99 147.73 42.97C147.26 43.67 146.59 44.04 145.86 44.44L149.03 39.26V39.27Z" fill="white"/><path d="M146.19 44.27C146.1 44.16 145.93 44.05 145.84 44.16C145.79 44.22 145.81 44.31 145.84 44.38C146.51 46.31 149.28 47.7 151.22 47.03C151.34 46.99 151.45 46.74 151.44 46.65C151.44 46.53 151.12 46.29 151 46.27L146.19 44.26V44.27Z" fill="white"/><path d="M151.47 44.14C151.47 44.35 151.38 44.55 151.29 44.75C151.18 44.99 151.09 45.24 151 45.48C150.96 45.58 150.93 45.69 150.93 45.8C150.93 46.15 151.18 46.75 151.06 47.08L151.47 44.14Z" fill="white"/><path d="M151.44 32.95C151.19 33.77 151.11 34.65 150.84 35.45C150.56 36.27 150.12 36.98 149.54 37.63C148.96 38.28 147.97 39.14 147.94 40.09C148.22 40.2 148.61 39.82 148.77 39.63C148.95 39.42 149.1 39.17 149.23 38.93C148.81 39.74 149.16 40.83 149.37 41.65C149.5 41.16 149.6 40.65 149.78 40.18C149.65 40.53 149.5 41.19 149.69 41.54C149.87 41.34 150 41.04 150.14 40.81L151.44 32.96V32.95Z" fill="white"/><path d="M150.13 40.81C149.86 41.34 150.01 41.97 150.18 42.54C150.24 42.74 150.31 42.95 150.49 43.04C150.54 43.06 150.6 43.08 150.64 43.11C150.71 43.16 150.74 43.25 150.77 43.33C150.9 43.68 151.17 43.96 151.51 44.11L150.13 40.81Z" fill="white"/><path d="M151.42 32.93C151.28 32.24 151.06 31.32 150.32 31.04C149.53 30.74 148.68 31.37 148.16 31.9C147.45 32.62 147.02 33.66 147.11 34.68C147.24 36.14 148.75 37.42 150.19 36.6L151.43 32.93H151.42Z" fill="white"/><path d="M151.15 34.15C150.99 33.78 150.94 33.43 150.76 33.06C150.5 32.54 150.04 32.03 149.41 32.1C149.02 32.14 148.67 32.39 148.48 32.72C148.09 33.38 148.39 33.98 148.56 34.64C148.72 35.24 148.42 35.84 149.03 36.27C149.31 36.47 149.68 36.52 150 36.4C150.18 36.33 150.35 36.22 150.54 36.2L151.16 34.15H151.15Z" fill="white"/><path d="M157.74 39.88C159.51 40.35 161.27 39.09 161.74 37.4L157.74 39.88Z" fill="white"/><path d="M159.03 36.81C159.42 36.83 159.8 36.57 160.18 36.68C160.37 36.73 160.57 36.85 160.77 36.95C161.17 37.16 160.99 37.68 160.77 38.03C160.09 39.07 158.98 39.78 157.75 39.88L159.04 36.81H159.03Z" fill="white"/><path d="M157.74 39.88C157.25 40.56 157.46 41.46 157.48 42.24C157.5 43 157.4 44.22 156.71 44.7C156.63 44.75 156.53 44.82 156.54 44.91C156.54 45 156.64 45.08 156.6 45.16C156.55 45.24 156.43 45.18 156.35 45.21C156.21 45.26 156.25 45.48 156.19 45.59C156.12 45.72 155.96 45.81 155.82 45.82C155.44 45.86 155 45.65 154.66 45.51C154.23 45.33 153.81 45.12 153.37 44.93C152.72 44.65 152 44.57 151.44 44.1L157.74 39.88Z" fill="white"/><path d="M151 42.82C151.93 43.49 152.88 43.84 153.76 44.22C154.64 44.6 155.62 45.01 156.55 44.78L150.99 42.82H151Z" fill="white"/><path d="M151.26 31.93C151.51 31.44 151.5 30.88 151.78 30.4C152.07 29.9 152.53 29.48 153.07 29.27C155.14 28.46 158.04 29.47 159.9 30.4C161.32 31.11 160.79 33.06 160.5 34.27L151.27 31.93H151.26Z" fill="white"/><path d="M151.44 32.83C152.81 33.65 154.3 33.52 155.83 33.56C157.45 33.61 159.09 34 160.67 34.36L151.45 32.82L151.44 32.83Z" fill="white"/><path d="M160.57 34.34C161.77 34.58 162.6 35.87 162.53 37.06C162.52 37.29 162.47 37.63 162.16 37.54C162.01 37.49 161.88 37.47 161.75 37.38L160.57 34.34Z" fill="white"/><path d="M153.59 33.49C153.84 33.64 154.04 33.68 154.28 33.83C154.62 34.04 154.98 34.24 155.38 34.29C155.62 34.32 155.86 34.29 156.1 34.25C156.9 34.14 157.9 34.02 158.71 33.96L153.59 33.49Z" fill="white"/><path d="M156.11 34.25C156.72 34.48 157.28 34.67 157.87 34.96C158.55 35.29 159.07 35.82 159.68 36.25C160.33 36.71 161.03 37.09 161.76 37.38L156.11 34.25Z" fill="white"/><path d="M162.54 37.04C162.61 35.85 161.78 34.56 160.58 34.32H160.56L160.49 34.25H160.5C160.79 33.04 161.32 31.09 159.9 30.38C158.04 29.45 155.14 28.44 153.07 29.25C152.53 29.46 152.07 29.87 151.78 30.38C151.5 30.86 151.51 31.42 151.26 31.91H151.3L151.16 31.99C150.99 31.57 150.74 31.19 150.32 31.03C149.53 30.73 148.68 31.36 148.16 31.89C147.45 32.61 147.02 33.65 147.11 34.67C147.23 36.05 148.58 37.26 149.94 36.71C150.02 36.68 150.1 36.64 150.19 36.59L150.21 36.54L150.42 36.4C150.18 36.83 149.89 37.23 149.55 37.61C148.97 38.26 147.98 39.12 147.95 40.07C148.23 40.18 148.62 39.8 148.78 39.61C148.96 39.4 149.11 39.15 149.24 38.91C149.2 38.98 149.18 39.05 149.15 39.12L148.86 39.69C148.91 39.54 148.97 39.4 149.04 39.26L146.08 44.1L146.04 44.12C145.97 44.09 145.9 44.08 145.85 44.14C145.83 44.17 145.82 44.2 145.82 44.23L145.56 44.36H145.54C145.54 44.36 145.61 44.33 145.64 44.31C145.74 44.25 145.76 44.21 145.85 44.14L144.93 44.59C144.93 44.59 144.96 44.59 144.97 44.58L144.88 44.61L144.93 44.59C143.87 44.8 142.69 44.32 141.66 44.76C140.2 45.37 139.04 46.63 138.12 47.88L151.53 53.6C151.53 53.6 151.53 53.63 151.53 53.65V53.61L152.6 54.06C152.55 53.26 153 52.47 153.25 51.73C153.46 51.1 153.6 50.43 153.53 49.77C153.38 48.47 152.02 47.61 151.41 46.53C151.36 46.47 151.26 46.39 151.17 46.34L151.36 44.97L151.61 44.2C152.14 44.56 152.79 44.65 153.37 44.9C153.8 45.09 154.22 45.3 154.66 45.48C155 45.62 155.44 45.83 155.82 45.79C155.97 45.77 156.12 45.69 156.19 45.56C156.25 45.45 156.21 45.23 156.35 45.18C156.43 45.15 156.55 45.2 156.6 45.13C156.65 45.06 156.55 44.97 156.54 44.88C156.54 44.78 156.63 44.72 156.71 44.67C157.4 44.19 157.5 42.97 157.48 42.21C157.46 41.48 157.27 40.63 157.67 39.97L157.8 39.86C159.52 40.29 161.23 39.08 161.73 37.44L161.8 37.36C161.92 37.43 162.04 37.46 162.19 37.5C162.49 37.59 162.54 37.25 162.56 37.02L162.54 37.04ZM160.56 34.33H160.58L160.59 34.36L160.56 34.33Z" fill="#03FC9D"/><path d="M145.76 44.09C145.76 44.09 145.66 44.18 145.62 44.22C145.56 44.26 145.49 44.3 145.43 44.33C145.31 44.39 145.17 44.44 145.04 44.48C144.77 44.55 144.48 44.57 144.2 44.57C143.61 44.57 143.03 44.46 142.44 44.5C142.14 44.52 141.85 44.58 141.57 44.7C141.29 44.82 141.03 44.96 140.77 45.12C140.25 45.45 139.77 45.85 139.34 46.28C138.91 46.71 138.52 47.19 138.15 47.67C138.11 47.73 138.06 47.79 138.02 47.85C137.99 47.89 138.02 47.96 138.06 47.99C138.11 48.02 138.17 47.99 138.2 47.95C138.56 47.47 138.94 47 139.35 46.56C139.77 46.12 140.22 45.72 140.72 45.39C140.97 45.22 141.23 45.07 141.51 44.95C141.77 44.83 142.04 44.74 142.32 44.71C142.9 44.65 143.48 44.74 144.07 44.76C144.36 44.77 144.66 44.76 144.94 44.71C145.08 44.68 145.22 44.64 145.35 44.59C145.49 44.53 145.64 44.46 145.76 44.37C145.81 44.33 145.85 44.28 145.9 44.24C145.94 44.2 145.94 44.13 145.9 44.1C145.86 44.06 145.8 44.06 145.76 44.1V44.09Z" fill="#003B2F"/><path d="M151.31 46.6C151.55 47.02 151.87 47.37 152.19 47.73C152.51 48.09 152.83 48.44 153.08 48.86C153.2 49.06 153.29 49.26 153.36 49.48C153.44 49.75 153.45 50.01 153.44 50.29C153.41 50.92 153.23 51.54 153 52.12C152.78 52.68 152.52 53.25 152.49 53.86C152.49 53.93 152.49 54.01 152.49 54.08C152.49 54.14 152.53 54.18 152.59 54.18C152.64 54.18 152.7 54.13 152.69 54.08C152.65 53.47 152.9 52.9 153.12 52.35C153.36 51.76 153.56 51.14 153.62 50.51C153.65 50.21 153.65 49.9 153.59 49.6C153.54 49.37 153.46 49.14 153.35 48.93C153.12 48.5 152.8 48.12 152.48 47.76C152.16 47.4 151.84 47.06 151.58 46.66C151.55 46.61 151.52 46.56 151.49 46.52C151.42 46.41 151.25 46.51 151.31 46.62V46.6Z" fill="#003B2F"/><path d="M152.57 50.07C152.65 50.17 152.64 50.27 152.59 50.38C152.53 50.49 152.45 50.6 152.38 50.71C152.24 50.93 152.09 51.14 151.96 51.37C151.71 51.81 151.49 52.28 151.41 52.78C151.36 53.08 151.37 53.39 151.41 53.69C151.41 53.74 151.49 53.78 151.54 53.76C151.6 53.74 151.62 53.69 151.61 53.63C151.52 53.12 151.61 52.61 151.8 52.14C151.99 51.66 152.27 51.23 152.55 50.8C152.63 50.68 152.73 50.55 152.79 50.41C152.85 50.26 152.85 50.09 152.74 49.95C152.71 49.91 152.65 49.88 152.6 49.91C152.56 49.94 152.53 50.01 152.56 50.05L152.57 50.07Z" fill="#003B2F"/><path d="M151.44 51.17C151.46 51.52 151.48 51.87 151.51 52.23C151.51 52.29 151.55 52.33 151.61 52.33C151.66 52.33 151.72 52.28 151.71 52.23C151.69 51.88 151.67 51.53 151.64 51.17C151.64 51.11 151.6 51.07 151.54 51.07C151.49 51.07 151.43 51.12 151.44 51.17Z" fill="#003B2F"/><path d="M142.26 48.04C142.4 48.58 142.43 49.15 142.36 49.7C142.36 49.75 142.37 49.81 142.43 49.83C142.48 49.84 142.55 49.81 142.56 49.76C142.64 49.17 142.61 48.57 142.46 47.99C142.43 47.86 142.23 47.92 142.26 48.04Z" fill="#003B2F"/><path d="M142.32 48.21C142.13 48.63 142.01 49.08 141.98 49.55C141.98 49.61 142.03 49.65 142.08 49.65C142.14 49.65 142.18 49.6 142.18 49.55C142.21 49.13 142.32 48.71 142.5 48.32C142.52 48.27 142.51 48.21 142.46 48.18C142.42 48.15 142.34 48.17 142.32 48.22V48.21Z" fill="#003B2F"/><path d="M141.76 44.76C141.96 45.36 142.23 45.94 142.29 46.57C142.31 46.76 142.31 46.94 142.29 47.13C142.29 47.19 142.34 47.23 142.39 47.23C142.45 47.23 142.49 47.18 142.49 47.13C142.52 46.8 142.49 46.46 142.42 46.14C142.35 45.83 142.25 45.54 142.14 45.24C142.08 45.06 142.01 44.89 141.95 44.71C141.93 44.66 141.88 44.62 141.82 44.64C141.77 44.65 141.73 44.71 141.75 44.77L141.76 44.76Z" fill="#003B2F"/><path d="M148.93 39.22C148.76 39.58 148.64 39.96 148.54 40.34C148.43 40.74 148.33 41.15 148.21 41.56C148.1 41.94 147.98 42.32 147.79 42.66C147.6 43.02 147.33 43.33 147.01 43.6C146.64 43.91 146.21 44.14 145.79 44.37C145.68 44.43 145.78 44.61 145.89 44.55C146.27 44.34 146.66 44.13 147.01 43.86C147.35 43.6 147.66 43.28 147.88 42.91C148.09 42.57 148.22 42.18 148.34 41.8C148.46 41.4 148.56 40.99 148.67 40.58C148.73 40.36 148.79 40.14 148.86 39.92C148.93 39.71 149 39.52 149.09 39.33C149.11 39.28 149.1 39.22 149.05 39.19C149.01 39.16 148.94 39.18 148.91 39.23L148.93 39.22Z" fill="#003B2F"/><path d="M146.26 44.19C146.15 44.07 145.94 43.93 145.79 44.06C145.64 44.19 145.73 44.39 145.79 44.54C145.89 44.8 146.03 45.04 146.19 45.26C146.53 45.74 146.97 46.13 147.46 46.45C147.96 46.77 148.51 47.02 149.09 47.16C149.65 47.3 150.23 47.34 150.8 47.24C150.93 47.22 151.07 47.18 151.2 47.14C151.27 47.12 151.33 47.09 151.38 47.04C151.43 46.99 151.47 46.92 151.5 46.86C151.53 46.8 151.55 46.73 151.56 46.66C151.56 46.6 151.54 46.55 151.5 46.51C151.42 46.4 151.3 46.31 151.18 46.24C151.14 46.21 151.08 46.19 151.03 46.18C150.98 46.17 150.92 46.2 150.9 46.25C150.89 46.3 150.92 46.36 150.97 46.38C150.97 46.38 150.99 46.38 151 46.38C151 46.38 151.01 46.38 151.02 46.38C151.04 46.39 151.07 46.4 151.09 46.42C151.15 46.45 151.19 46.48 151.23 46.52C151.25 46.54 151.27 46.56 151.29 46.58C151.29 46.59 151.31 46.6 151.32 46.61C151.32 46.6 151.32 46.62 151.32 46.62C151.32 46.62 151.33 46.64 151.34 46.65C151.34 46.63 151.34 46.66 151.34 46.65C151.34 46.64 151.34 46.67 151.34 46.65V46.66C151.34 46.66 151.34 46.67 151.34 46.68C151.33 46.75 151.31 46.78 151.27 46.84C151.27 46.85 151.26 46.86 151.25 46.88C151.25 46.88 151.24 46.89 151.23 46.9C151.23 46.91 151.21 46.92 151.2 46.93C151.16 46.94 151.22 46.92 151.2 46.93C151.08 46.97 150.96 47 150.84 47.03C150.78 47.04 150.72 47.05 150.65 47.06C150.65 47.06 150.64 47.06 150.63 47.06C150.6 47.06 150.64 47.06 150.63 47.06C150.61 47.06 150.6 47.06 150.58 47.06C150.55 47.06 150.52 47.06 150.48 47.06C150.35 47.07 150.22 47.08 150.09 47.07C149.82 47.07 149.57 47.04 149.31 46.98C148.77 46.87 148.27 46.67 147.8 46.39C147.33 46.12 146.92 45.79 146.57 45.37C146.41 45.18 146.26 44.97 146.14 44.74C146.08 44.63 146.03 44.52 145.99 44.41C145.97 44.35 145.94 44.28 145.93 44.22C145.93 44.21 145.93 44.19 145.93 44.19C145.95 44.19 145.94 44.19 145.97 44.19C146.02 44.21 146.08 44.26 146.12 44.31C146.16 44.35 146.23 44.35 146.26 44.31C146.3 44.27 146.3 44.2 146.26 44.16V44.19Z" fill="#003B2F"/><path d="M151.37 44.16C151.37 44.38 151.26 44.58 151.18 44.78C151.08 45 150.99 45.23 150.91 45.46C150.87 45.57 150.84 45.68 150.83 45.8C150.83 45.88 150.83 45.97 150.85 46.05C150.88 46.23 150.92 46.4 150.96 46.58C150.99 46.75 151.02 46.93 150.96 47.08C150.94 47.13 150.98 47.19 151.03 47.21C151.09 47.23 151.14 47.19 151.16 47.14C151.22 46.98 151.2 46.8 151.17 46.64C151.14 46.46 151.1 46.28 151.06 46.11C151.04 46.03 151.03 45.97 151.03 45.89C151.03 45.79 151.05 45.69 151.08 45.6C151.16 45.38 151.24 45.15 151.34 44.94C151.44 44.7 151.57 44.46 151.57 44.19C151.57 44.06 151.37 44.06 151.37 44.19V44.16Z" fill="#003B2F"/><path d="M151.34 32.92C151.17 33.5 151.07 34.1 150.94 34.69C150.81 35.24 150.64 35.78 150.37 36.28C150.12 36.75 149.8 37.19 149.44 37.59C149.12 37.94 148.78 38.27 148.49 38.64C148.2 39.01 147.92 39.43 147.86 39.91C147.86 39.97 147.85 40.03 147.84 40.09C147.84 40.14 147.87 40.17 147.91 40.19C148.14 40.28 148.38 40.12 148.55 39.99C148.74 39.84 148.91 39.64 149.04 39.44C149.14 39.29 149.23 39.14 149.31 38.98C149.25 38.95 149.19 38.91 149.13 38.88C148.77 39.57 148.93 40.39 149.11 41.1C149.16 41.29 149.21 41.49 149.26 41.68C149.29 41.78 149.43 41.78 149.46 41.68C149.59 41.19 149.69 40.69 149.87 40.21C149.8 40.19 149.74 40.17 149.67 40.16C149.59 40.39 149.53 40.63 149.5 40.87C149.47 41.11 149.47 41.37 149.59 41.59C149.62 41.65 149.71 41.66 149.75 41.61C149.95 41.39 150.07 41.11 150.21 40.86C150.28 40.75 150.1 40.64 150.03 40.76C149.89 41 149.79 41.27 149.6 41.47C149.65 41.47 149.71 41.48 149.76 41.49C149.72 41.42 149.69 41.3 149.69 41.22C149.69 41.1 149.69 40.98 149.7 40.86C149.73 40.65 149.78 40.42 149.86 40.21C149.88 40.16 149.84 40.1 149.79 40.08C149.73 40.06 149.68 40.1 149.66 40.15C149.48 40.63 149.39 41.13 149.25 41.62H149.45C149.36 41.28 149.27 40.93 149.2 40.58C149.13 40.23 149.09 39.86 149.14 39.51C149.17 39.33 149.22 39.14 149.3 38.98C149.36 38.86 149.19 38.76 149.12 38.88C148.99 39.13 148.85 39.37 148.66 39.58C148.53 39.73 148.38 39.87 148.2 39.96C148.16 39.98 148.11 40 148.06 40.01C148.08 40.01 148.04 40.01 148.04 40.01C148.03 40.01 148.02 40.01 148.01 40.01C148 40.01 147.98 40.01 147.97 40C148 40.03 148.02 40.07 148.04 40.1C148.05 39.65 148.3 39.23 148.57 38.87C148.86 38.49 149.2 38.16 149.52 37.81C149.88 37.42 150.21 36.99 150.47 36.53C150.75 36.04 150.95 35.51 151.09 34.96C151.24 34.38 151.32 33.78 151.48 33.2C151.5 33.13 151.52 33.05 151.54 32.98C151.58 32.85 151.38 32.8 151.34 32.93V32.92Z" fill="#003B2F"/><path d="M150.04 40.75C149.77 41.28 149.89 41.89 150.04 42.43C150.11 42.67 150.17 42.95 150.39 43.09C150.44 43.13 150.51 43.14 150.56 43.17C150.6 43.19 150.62 43.24 150.64 43.28C150.69 43.4 150.73 43.52 150.8 43.63C150.96 43.87 151.19 44.07 151.45 44.19C151.5 44.21 151.56 44.2 151.59 44.15C151.62 44.11 151.6 44.03 151.55 44.01C151.34 43.92 151.15 43.77 151.01 43.58C150.94 43.49 150.89 43.39 150.85 43.28C150.8 43.15 150.76 43.03 150.62 42.97C150.57 42.95 150.51 42.93 150.46 42.9C150.42 42.87 150.39 42.83 150.37 42.79C150.31 42.7 150.28 42.59 150.25 42.49C150.18 42.23 150.1 41.97 150.08 41.7C150.05 41.41 150.07 41.11 150.2 40.84C150.23 40.79 150.21 40.73 150.16 40.7C150.12 40.67 150.05 40.69 150.02 40.74L150.04 40.75Z" fill="#003B2F"/><path d="M151.51 32.9C151.44 32.54 151.35 32.18 151.2 31.85C151.06 31.52 150.83 31.2 150.51 31.03C149.68 30.57 148.75 31.17 148.16 31.75C147.51 32.39 147.06 33.24 146.99 34.16C146.96 34.58 147 35 147.16 35.39C147.3 35.75 147.52 36.09 147.81 36.36C148.08 36.62 148.42 36.82 148.79 36.91C149.17 37 149.57 36.98 149.93 36.83C150.03 36.79 150.13 36.74 150.22 36.69C150.33 36.63 150.23 36.45 150.12 36.51C149.79 36.7 149.43 36.78 149.06 36.74C149.04 36.74 149.02 36.74 149.01 36.74C148.99 36.74 148.97 36.74 148.95 36.74C148.9 36.74 148.86 36.72 148.81 36.71C148.73 36.69 148.64 36.66 148.56 36.63C148.5 36.6 148.4 36.56 148.33 36.52C148.26 36.48 148.18 36.43 148.11 36.38C147.98 36.28 147.84 36.14 147.73 36.01C147.62 35.88 147.52 35.72 147.44 35.56C147.27 35.23 147.18 34.86 147.17 34.49C147.15 33.63 147.51 32.78 148.07 32.14C148.34 31.83 148.66 31.55 149.02 31.35C149.37 31.15 149.78 31.02 150.17 31.14C150.5 31.23 150.73 31.47 150.9 31.77C151.07 32.07 151.16 32.41 151.24 32.75C151.26 32.83 151.27 32.91 151.29 32.98C151.3 33.03 151.36 33.07 151.42 33.05C151.47 33.03 151.5 32.98 151.49 32.92L151.51 32.9Z" fill="#003B2F"/><path d="M151.23 34.1C151.08 33.76 151.02 33.39 150.86 33.06C150.73 32.79 150.56 32.53 150.34 32.34C150.11 32.14 149.83 32.01 149.53 32C149.21 32 148.9 32.13 148.66 32.34C148.4 32.57 148.23 32.9 148.18 33.24C148.14 33.58 148.23 33.92 148.32 34.25C148.37 34.41 148.42 34.58 148.46 34.74C148.49 34.87 148.49 35 148.49 35.14C148.49 35.41 148.49 35.69 148.6 35.94C148.73 36.23 149.02 36.44 149.32 36.52C149.49 36.56 149.66 36.57 149.83 36.54C150 36.51 150.15 36.43 150.31 36.36C150.38 36.33 150.45 36.3 150.52 36.29C150.57 36.29 150.62 36.25 150.62 36.19C150.62 36.14 150.57 36.08 150.52 36.09C150.35 36.11 150.2 36.19 150.04 36.26C149.9 36.32 149.76 36.35 149.61 36.35C149.33 36.35 149.03 36.21 148.87 35.98C148.79 35.88 148.76 35.78 148.73 35.65C148.72 35.59 148.71 35.55 148.71 35.48C148.71 35.42 148.71 35.35 148.71 35.29C148.71 35.16 148.71 35.03 148.7 34.9C148.69 34.75 148.65 34.6 148.61 34.46C148.52 34.15 148.41 33.84 148.39 33.52C148.37 33.21 148.45 32.89 148.65 32.64C148.83 32.42 149.08 32.25 149.36 32.2C149.62 32.15 149.88 32.22 150.1 32.38C150.31 32.53 150.48 32.75 150.61 32.98C150.78 33.28 150.85 33.6 150.96 33.92C150.99 34.01 151.02 34.1 151.06 34.18C151.08 34.23 151.16 34.24 151.2 34.22C151.25 34.19 151.26 34.13 151.24 34.08L151.23 34.1Z" fill="#003B2F"/><path d="M157.73 39.98C158.42 40.16 159.14 40.09 159.79 39.81C160.42 39.54 160.97 39.07 161.36 38.49C161.58 38.17 161.75 37.8 161.85 37.43C161.89 37.3 161.69 37.25 161.65 37.38C161.47 38.02 161.11 38.59 160.62 39.03C160.14 39.46 159.53 39.77 158.89 39.85C158.52 39.9 158.14 39.87 157.78 39.78C157.65 39.75 157.6 39.94 157.73 39.98Z" fill="#003B2F"/><path d="M159.02 36.91C159.26 36.92 159.49 36.83 159.73 36.78C159.84 36.76 159.95 36.74 160.06 36.75C160.17 36.76 160.29 36.81 160.39 36.86C160.51 36.92 160.63 36.98 160.74 37.05C160.74 37.05 160.76 37.06 160.77 37.07C160.78 37.07 160.77 37.07 160.78 37.08C160.8 37.09 160.81 37.11 160.83 37.13C160.83 37.13 160.83 37.13 160.83 37.14C160.83 37.14 160.84 37.16 160.85 37.16C160.85 37.16 160.85 37.18 160.86 37.19C160.86 37.19 160.86 37.19 160.86 37.2C160.86 37.22 160.87 37.24 160.88 37.25C160.88 37.25 160.88 37.27 160.88 37.28C160.88 37.27 160.88 37.28 160.88 37.29C160.88 37.33 160.88 37.37 160.88 37.42C160.88 37.42 160.88 37.45 160.88 37.43C160.88 37.44 160.88 37.45 160.88 37.46C160.88 37.48 160.88 37.51 160.86 37.53C160.85 37.57 160.83 37.62 160.82 37.66C160.81 37.7 160.79 37.73 160.77 37.77C160.75 37.81 160.73 37.85 160.7 37.89C160.65 37.98 160.59 38.06 160.53 38.15C160.4 38.32 160.26 38.48 160.11 38.63C159.81 38.93 159.46 39.18 159.08 39.37C158.71 39.56 158.29 39.69 157.88 39.74C157.83 39.74 157.78 39.75 157.73 39.76C157.67 39.76 157.63 39.8 157.63 39.86C157.63 39.91 157.68 39.97 157.73 39.96C158.19 39.92 158.64 39.8 159.06 39.61C159.47 39.42 159.85 39.16 160.18 38.86C160.35 38.71 160.5 38.54 160.64 38.36C160.77 38.19 160.9 38.01 160.99 37.82C161.07 37.64 161.13 37.43 161.1 37.23C161.09 37.14 161.04 37.05 160.98 36.98C160.91 36.89 160.8 36.84 160.7 36.79C160.46 36.66 160.21 36.53 159.93 36.54C159.68 36.55 159.44 36.66 159.19 36.69C159.13 36.69 159.08 36.69 159.02 36.69C158.96 36.69 158.92 36.74 158.92 36.79C158.92 36.85 158.97 36.89 159.02 36.89V36.91Z" fill="#003B2F"/><path d="M157.66 39.84C157.17 40.52 157.35 41.38 157.38 42.16C157.39 42.47 157.38 42.79 157.35 43.1C157.35 43.18 157.33 43.25 157.32 43.33C157.31 43.41 157.29 43.5 157.27 43.58C157.23 43.73 157.18 43.9 157.12 44.03C157.09 44.1 157.05 44.17 157.01 44.24C156.97 44.31 156.93 44.36 156.89 44.41C156.84 44.47 156.79 44.52 156.73 44.57C156.71 44.59 156.68 44.61 156.65 44.63C156.61 44.66 156.57 44.69 156.54 44.72C156.46 44.81 156.44 44.91 156.49 45.02C156.49 45.04 156.51 45.06 156.52 45.08C156.53 45.1 156.52 45.09 156.53 45.12C156.53 45.13 156.53 45.13 156.53 45.12C156.53 45.12 156.56 45.1 156.53 45.11C156.52 45.11 156.52 45.11 156.53 45.11C156.53 45.11 156.52 45.11 156.51 45.11C156.41 45.11 156.32 45.11 156.24 45.17C156.18 45.22 156.16 45.3 156.14 45.38C156.14 45.41 156.14 45.45 156.12 45.48C156.12 45.49 156.12 45.51 156.11 45.52C156.11 45.53 156.1 45.55 156.09 45.56C156.04 45.62 155.97 45.67 155.9 45.69C155.73 45.74 155.52 45.7 155.34 45.65C155.15 45.59 154.96 45.51 154.78 45.44C154.56 45.35 154.35 45.25 154.14 45.15C153.92 45.05 153.7 44.95 153.48 44.85C153.29 44.77 153.09 44.69 152.89 44.63C152.51 44.51 152.12 44.4 151.77 44.19C151.69 44.14 151.6 44.08 151.53 44.02C151.49 43.98 151.43 43.98 151.39 44.02C151.35 44.06 151.35 44.13 151.39 44.16C151.72 44.43 152.12 44.59 152.52 44.72C152.72 44.78 152.92 44.84 153.11 44.92C153.32 45 153.52 45.09 153.73 45.18C154.15 45.38 154.57 45.57 155.01 45.74C155.37 45.88 155.89 46.05 156.21 45.74C156.27 45.68 156.32 45.6 156.34 45.51C156.34 45.47 156.35 45.44 156.36 45.4C156.36 45.38 156.36 45.37 156.37 45.35C156.37 45.35 156.37 45.33 156.37 45.32C156.37 45.32 156.39 45.31 156.38 45.32C156.37 45.32 156.4 45.32 156.4 45.32C156.38 45.32 156.42 45.32 156.42 45.32H156.45C156.45 45.32 156.5 45.32 156.52 45.32C156.63 45.32 156.73 45.24 156.72 45.12C156.72 45.07 156.69 45.02 156.67 44.98C156.67 44.96 156.66 44.95 156.65 44.94C156.65 44.91 156.65 44.95 156.65 44.92C156.65 44.94 156.65 44.89 156.65 44.91C156.66 44.89 156.69 44.86 156.71 44.85C156.74 44.82 156.78 44.8 156.82 44.77C156.95 44.67 157.06 44.54 157.15 44.41C157.33 44.13 157.44 43.8 157.5 43.47C157.56 43.14 157.59 42.8 157.59 42.46C157.59 42.09 157.55 41.72 157.53 41.35C157.51 40.96 157.52 40.56 157.68 40.2C157.72 40.11 157.77 40.03 157.83 39.94C157.86 39.9 157.83 39.83 157.79 39.8C157.74 39.77 157.68 39.8 157.65 39.84H157.66Z" fill="#003B2F"/><path d="M150.94 42.9C151.59 43.37 152.31 43.71 153.05 44.02C153.4 44.17 153.75 44.32 154.1 44.47C154.47 44.62 154.85 44.77 155.24 44.85C155.68 44.95 156.13 44.98 156.57 44.87C156.7 44.84 156.64 44.64 156.52 44.67C155.76 44.86 154.97 44.6 154.27 44.32C153.93 44.18 153.59 44.03 153.24 43.89C152.89 43.74 152.55 43.59 152.21 43.43C151.8 43.23 151.41 43 151.04 42.73C151 42.7 150.93 42.73 150.9 42.77C150.87 42.82 150.9 42.88 150.94 42.91V42.9Z" fill="#003B2F"/><path d="M151.36 31.97C151.49 31.71 151.56 31.43 151.63 31.15C151.7 30.88 151.77 30.61 151.92 30.37C152.19 29.94 152.59 29.58 153.05 29.38C153.49 29.19 153.98 29.11 154.46 29.08C154.97 29.05 155.49 29.09 156 29.17C156.53 29.26 157.05 29.39 157.57 29.55C158.06 29.7 158.54 29.89 159.02 30.09C159.24 30.19 159.46 30.29 159.68 30.39C159.87 30.48 160.06 30.58 160.21 30.71C160.35 30.84 160.45 30.97 160.54 31.13C160.58 31.22 160.61 31.28 160.64 31.37C160.67 31.46 160.69 31.55 160.71 31.64C160.74 31.82 160.76 32.01 160.75 32.21C160.75 32.41 160.73 32.62 160.7 32.82C160.7 32.81 160.7 32.83 160.7 32.84C160.7 32.85 160.7 32.87 160.7 32.88C160.7 32.91 160.7 32.93 160.69 32.96C160.69 33.01 160.67 33.06 160.66 33.11C160.64 33.21 160.62 33.31 160.6 33.41C160.56 33.6 160.52 33.78 160.47 33.97C160.45 34.06 160.43 34.14 160.41 34.23C160.38 34.36 160.58 34.41 160.61 34.28C160.7 33.9 160.79 33.52 160.86 33.13C160.93 32.72 160.98 32.3 160.94 31.88C160.91 31.49 160.8 31.1 160.56 30.78C160.43 30.62 160.28 30.48 160.1 30.37C159.9 30.25 159.68 30.16 159.48 30.06C159 29.84 158.52 29.64 158.03 29.47C157.51 29.29 156.99 29.14 156.45 29.03C155.92 28.92 155.38 28.85 154.84 28.85C154.33 28.85 153.81 28.91 153.33 29.06C153.08 29.14 152.84 29.24 152.62 29.38C152.39 29.52 152.19 29.7 152.02 29.91C151.84 30.13 151.68 30.37 151.58 30.63C151.48 30.9 151.43 31.19 151.35 31.47C151.31 31.6 151.26 31.74 151.2 31.86C151.17 31.91 151.19 31.97 151.24 32C151.28 32.03 151.35 32.01 151.38 31.96L151.36 31.97Z" fill="#003B2F"/><path d="M151.39 32.91C151.9 33.21 152.46 33.4 153.04 33.51C153.61 33.61 154.19 33.63 154.77 33.64C155.38 33.65 155.98 33.64 156.59 33.7C157.23 33.76 157.88 33.86 158.51 33.99C159.15 34.11 159.78 34.26 160.41 34.41C160.49 34.43 160.57 34.45 160.64 34.46C160.77 34.49 160.82 34.29 160.69 34.26C160.06 34.12 159.43 33.97 158.8 33.84C158.16 33.71 157.52 33.6 156.87 33.53C156.26 33.46 155.64 33.45 155.02 33.44C154.45 33.44 153.88 33.43 153.31 33.35C152.74 33.27 152.19 33.12 151.68 32.85C151.61 32.81 151.55 32.78 151.48 32.74C151.37 32.67 151.26 32.85 151.38 32.92L151.39 32.91Z" fill="#003B2F"/><path d="M160.55 34.44C161.15 34.57 161.66 34.96 162 35.47C162.33 35.97 162.51 36.59 162.43 37.19C162.43 37.17 162.43 37.21 162.43 37.22C162.43 37.24 162.43 37.26 162.42 37.28C162.42 37.3 162.42 37.31 162.41 37.33C162.41 37.33 162.41 37.34 162.41 37.35C162.41 37.37 162.4 37.38 162.39 37.39C162.39 37.39 162.39 37.39 162.39 37.4C162.39 37.42 162.4 37.4 162.39 37.4C162.39 37.4 162.39 37.4 162.38 37.41C162.37 37.43 162.39 37.41 162.38 37.41C162.38 37.41 162.37 37.41 162.36 37.42C162.36 37.42 162.35 37.42 162.34 37.42C162.32 37.42 162.35 37.42 162.34 37.42C162.34 37.42 162.32 37.42 162.31 37.42C162.31 37.42 162.28 37.42 162.3 37.42C162.25 37.42 162.2 37.39 162.16 37.38C162.06 37.35 161.96 37.32 161.87 37.26C161.76 37.19 161.66 37.37 161.77 37.44C161.86 37.5 161.96 37.54 162.07 37.57C162.16 37.6 162.25 37.63 162.34 37.63C162.5 37.63 162.6 37.51 162.65 37.36C162.7 37.23 162.71 37.08 162.71 36.93C162.71 36.76 162.7 36.59 162.67 36.42C162.56 35.76 162.2 35.13 161.69 34.7C161.4 34.46 161.05 34.28 160.67 34.2C160.62 34.19 160.56 34.22 160.54 34.27C160.53 34.32 160.56 34.38 160.61 34.4L160.55 34.44Z" fill="#003B2F"/><path d="M153.55 33.57C153.7 33.66 153.86 33.72 154.01 33.79C154.17 33.86 154.32 33.96 154.47 34.04C154.78 34.22 155.11 34.36 155.47 34.39C155.66 34.4 155.85 34.38 156.04 34.35C156.2 34.33 156.37 34.31 156.53 34.29C156.88 34.25 157.22 34.2 157.57 34.16C157.95 34.12 158.33 34.08 158.71 34.05C158.77 34.05 158.81 34.01 158.81 33.95C158.81 33.9 158.76 33.84 158.71 33.85C158.03 33.91 157.35 33.98 156.67 34.07C156.51 34.09 156.34 34.11 156.18 34.13C156 34.15 155.82 34.18 155.64 34.19C155.47 34.19 155.3 34.18 155.13 34.13C154.97 34.08 154.81 34.01 154.67 33.93C154.5 33.84 154.34 33.73 154.16 33.64C153.99 33.56 153.81 33.49 153.64 33.39C153.53 33.32 153.43 33.5 153.54 33.57H153.55Z" fill="#003B2F"/><path d="M156.08 34.35C156.88 34.65 157.71 34.92 158.41 35.41C158.74 35.64 159.05 35.91 159.37 36.16C159.71 36.42 160.06 36.65 160.43 36.86C160.85 37.1 161.28 37.31 161.73 37.48C161.78 37.5 161.84 37.46 161.86 37.41C161.88 37.35 161.84 37.3 161.79 37.28C161 36.97 160.25 36.56 159.57 36.05C159.24 35.81 158.94 35.54 158.61 35.3C158.45 35.18 158.28 35.07 158.11 34.97C157.92 34.86 157.72 34.77 157.52 34.68C157.07 34.48 156.6 34.32 156.14 34.14C156.09 34.12 156.03 34.16 156.01 34.21C156 34.27 156.03 34.31 156.08 34.33V34.35Z" fill="#003B2F"/></svg>