<svg width="1920" height="1080" viewBox="0 0 1920 1080" fill="none" xmlns="http://www.w3.org/2000/svg"><g clip-path="url(#clip0_1146_2177)"><path d="M491.427 453.895H464.79C457.735 453.895 452.015 459.615 452.015 466.67V493.307C452.015 500.362 457.735 506.082 464.79 506.082H491.427C498.482 506.082 504.202 500.362 504.202 493.307V466.67C504.202 459.615 498.482 453.895 491.427 453.895Z" fill="#003B2F"/><path d="M485.81 507.531H478.018V910.711H499.672L485.81 507.531Z" fill="white"/><path d="M483.726 480.079L525.493 298.965C519.695 297.606 513.896 300.687 511.54 306.123L465.696 415.933C464.337 419.285 464.427 423 466.149 426.171L478.108 449.184C479.467 451.721 479.83 454.71 479.195 457.519L474.484 478.086L483.726 480.26V480.079Z" fill="white"/><path d="M477.112 476.636L299.26 530.997C300.981 536.615 306.508 540.239 312.397 539.514L430.361 524.293C433.895 523.84 437.066 521.847 439.059 518.766L453.012 496.931C454.552 494.485 456.908 492.673 459.716 491.857L479.921 485.696L477.112 476.636Z" fill="white"/><path d="M476.296 483.613L612.29 610.365C616.277 606.016 616.639 599.402 613.106 594.781L540.986 500.193C538.812 497.293 535.46 495.572 531.926 495.391L506.014 494.213C503.115 494.122 500.397 492.945 498.313 490.951L478.199 475.458L476.478 483.522L476.296 483.613Z" fill="white"/><path d="M483.726 481.347L525.493 300.234C519.695 298.875 513.896 301.955 511.54 307.391L465.696 417.201C464.337 420.553 464.427 424.268 466.149 427.439L478.108 450.452C479.467 452.989 479.83 455.979 479.195 458.787L474.484 479.354L483.726 481.529V481.347Z" stroke="#003B2F" stroke-width="3" stroke-linecap="round" stroke-linejoin="round"/><path d="M478.018 476.092L300.256 530.454C301.978 536.071 307.505 539.695 313.394 538.97L431.358 523.749C434.891 523.296 438.062 521.303 440.056 518.222L454.008 496.387C455.548 493.941 457.904 492.129 460.713 491.314L480.917 485.153L478.108 476.092H478.018Z" stroke="#003B2F" stroke-width="3" stroke-linecap="round" stroke-linejoin="round"/><path d="M476.296 483.613L612.29 610.365C616.277 606.016 616.639 599.402 613.106 594.781L540.986 500.193C538.812 497.293 535.46 495.572 531.926 495.391L506.014 494.213C503.115 494.122 500.397 492.945 498.313 490.951L482.91 476.546L476.478 483.522L476.296 483.613Z" stroke="#003B2F" stroke-width="3" stroke-linecap="round" stroke-linejoin="round"/><path d="M488.485 489.071C493.465 483.257 492.789 474.506 486.974 469.526C481.159 464.545 472.409 465.222 467.428 471.036C462.448 476.851 463.125 485.602 468.939 490.582C474.754 495.562 483.505 494.886 488.485 489.071Z" fill="white"/><path d="M450.203 909.262H507.826C510.454 909.262 512.538 911.345 512.538 913.973V921.946H445.492V913.973C445.492 911.345 447.576 909.262 450.203 909.262Z" stroke="#003B2F" stroke-width="3" stroke-linecap="round" stroke-linejoin="round"/><path d="M485.81 506.082H472.129L458.267 909.262H499.672L485.81 506.082Z" stroke="#003B2F" stroke-width="3" stroke-linecap="round" stroke-linejoin="round"/><path d="M488.485 489.071C493.465 483.257 492.789 474.506 486.974 469.526C481.159 464.545 472.409 465.222 467.428 471.036C462.448 476.851 463.125 485.602 468.939 490.582C474.754 495.562 483.505 494.886 488.485 489.071Z" stroke="#003B2F" stroke-width="3" stroke-linecap="round" stroke-linejoin="round"/><path d="M551.949 934.63H405.989V1004.76H551.949V934.63Z" fill="#003B2F" stroke="#003B2F" stroke-width="3" stroke-linecap="round" stroke-linejoin="round"/><path d="M557.204 921.946H400.734V934.63H557.204V921.946Z" fill="#03FC9D" stroke="#003B2F" stroke-width="3" stroke-linecap="round" stroke-linejoin="round"/><path d="M353.078 396.091C386.872 345.807 449.297 319.079 511.722 333.485" stroke="#03FC9D" stroke-width="3" stroke-linecap="round" stroke-linejoin="round"/><path d="M444.133 626.583C390.949 614.261 350.903 575.211 334.957 526.83" stroke="#03FC9D" stroke-width="3" stroke-linecap="round" stroke-linejoin="round"/><path d="M624.431 445.469C629.595 467.214 629.958 490.498 624.522 513.783C618.814 538.336 607.489 560.081 592.086 577.929" stroke="#03FC9D" stroke-width="3" stroke-linecap="round" stroke-linejoin="round"/><path d="M370.745 405.06C400.463 362.659 453.827 340.28 507.373 352.602" stroke="#03FC9D" stroke-width="3" stroke-linecap="round" stroke-linejoin="round"/><path d="M350.54 450.633C353.349 438.493 357.789 427.077 363.497 416.658" stroke="#03FC9D" stroke-width="3" stroke-linecap="round" stroke-linejoin="round"/><path d="M510.544 606.741C490.884 611.815 469.683 612.358 448.573 607.466C403.181 596.956 368.843 564.067 354.437 523.115" stroke="#03FC9D" stroke-width="3" stroke-linecap="round" stroke-linejoin="round"/><path d="M572.426 389.567C601.871 420.372 615.734 464.858 605.405 509.434C600.603 530.091 591.18 548.484 578.496 563.705" stroke="#03FC9D" stroke-width="3" stroke-linecap="round" stroke-linejoin="round"/><path d="M1446.87 453.895H1420.24C1413.18 453.895 1407.46 459.614 1407.46 466.67V493.307C1407.46 500.362 1413.18 506.082 1420.24 506.082H1446.87C1453.93 506.082 1459.65 500.362 1459.65 493.307V466.67C1459.65 459.614 1453.93 453.895 1446.87 453.895Z" fill="#003B2F"/><path d="M1406.56 909.262H1462.19C1465.36 909.262 1467.89 911.798 1467.89 914.97V921.946H1400.85V914.97C1400.85 911.798 1403.39 909.262 1406.56 909.262Z" stroke="#003B2F" stroke-width="3" stroke-linecap="round" stroke-linejoin="round"/><path d="M1441.26 506.082H1427.58L1413.71 909.262H1455.12L1441.26 506.082Z" stroke="#003B2F" stroke-width="3" stroke-linecap="round" stroke-linejoin="round"/><path d="M1507.4 934.63H1361.44V1004.76H1507.4V934.63Z" fill="#003B2F" stroke="#003B2F" stroke-width="3" stroke-linecap="round" stroke-linejoin="round"/><path d="M1512.65 921.946H1356.18V934.63H1512.65V921.946Z" fill="#03FC9D" stroke="#003B2F" stroke-width="3" stroke-linecap="round" stroke-linejoin="round"/><path d="M1437.63 476.364L1339.51 318.445C1334.53 321.525 1332.44 327.867 1334.71 333.303L1379.65 443.476C1381.01 446.828 1383.73 449.365 1387.17 450.452L1411.81 458.334C1414.53 459.24 1416.89 461.053 1418.43 463.499L1429.57 481.438L1437.63 476.455V476.364Z" fill="white"/><path d="M1430.57 478.629L1342.86 642.529C1348.12 645.337 1354.55 643.978 1358.18 639.267L1431.11 545.313C1433.28 542.504 1434.1 538.789 1433.37 535.256L1427.85 509.978C1427.21 507.169 1427.67 504.179 1429.03 501.642L1438.99 483.069L1430.66 478.629H1430.57Z" fill="white"/><path d="M1434.91 484.066L1620.74 477.995C1620.56 472.106 1616.12 467.214 1610.23 466.398L1492.36 450.271C1488.82 449.818 1485.2 450.905 1482.57 453.351L1463.45 470.747C1461.28 472.65 1458.56 473.827 1455.66 473.918L1430.48 477.18L1434.91 484.156V484.066Z" fill="white"/><path d="M1438.54 477.27L1340.42 319.351C1335.43 322.431 1333.35 328.773 1335.62 334.209L1380.55 444.382C1381.91 447.734 1384.63 450.271 1388.07 451.358L1412.72 459.24C1415.44 460.146 1417.79 461.959 1419.33 464.405L1430.48 482.344L1438.54 477.361V477.27Z" stroke="#003B2F" stroke-width="3" stroke-linecap="round" stroke-linejoin="round"/><path d="M1430.84 477.542L1343.13 641.441C1348.39 644.25 1354.82 642.891 1358.45 638.18L1431.38 544.225C1433.56 541.417 1434.37 537.702 1433.65 534.168L1428.12 508.89C1427.49 506.082 1427.94 503.092 1429.3 500.555L1439.26 481.982L1430.93 477.542H1430.84Z" stroke="#003B2F" stroke-width="3" stroke-linecap="round" stroke-linejoin="round"/><path d="M1434.92 484.066L1620.74 477.995C1620.56 472.106 1616.12 467.214 1610.23 466.398L1492.36 450.271C1488.82 449.818 1485.2 450.905 1482.57 453.351L1463.45 470.747C1461.28 472.65 1458.56 473.827 1455.66 473.918L1434.55 474.643L1434.82 484.156L1434.92 484.066Z" stroke="#003B2F" stroke-width="3" stroke-linecap="round" stroke-linejoin="round"/><path d="M1433.56 494.213C1441.21 494.213 1447.42 488.007 1447.42 480.351C1447.42 472.695 1441.21 466.489 1433.56 466.489C1425.9 466.489 1419.69 472.695 1419.69 480.351C1419.69 488.007 1425.9 494.213 1433.56 494.213Z" fill="white"/><path d="M1433.56 494.213C1441.21 494.213 1447.42 488.007 1447.42 480.351C1447.42 472.695 1441.21 466.489 1433.56 466.489C1425.9 466.489 1419.69 472.695 1419.69 480.351C1419.69 488.007 1425.9 494.213 1433.56 494.213Z" stroke="#003B2F" stroke-width="3" stroke-linecap="round" stroke-linejoin="round"/><path d="M1285.87 508.891C1274.37 449.456 1299.74 386.396 1354.19 352.602" stroke="#03FC9D" stroke-width="3" stroke-linecap="round" stroke-linejoin="round"/><path d="M1513.01 608.1C1466.63 636.911 1410.63 637.455 1365.24 614.351" stroke="#03FC9D" stroke-width="3" stroke-linecap="round" stroke-linejoin="round"/><path d="M1513.01 352.602C1532.04 364.38 1548.71 380.688 1561.3 400.983C1574.62 422.365 1581.87 445.831 1583.59 469.297" stroke="#03FC9D" stroke-width="3" stroke-linecap="round" stroke-linejoin="round"/><path d="M1304.63 502.82C1295.75 451.811 1317.86 398.265 1364.52 369.273" stroke="#03FC9D" stroke-width="3" stroke-linecap="round" stroke-linejoin="round"/><path d="M1322.48 549.39C1315.86 538.789 1310.97 527.555 1307.71 516.139" stroke="#03FC9D" stroke-width="3" stroke-linecap="round" stroke-linejoin="round"/><path d="M1546.08 547.215C1535.76 564.701 1521.08 580.013 1502.69 591.429C1463.09 615.982 1415.53 616.888 1376.48 598.043" stroke="#03FC9D" stroke-width="3" stroke-linecap="round" stroke-linejoin="round"/><path d="M1436.73 349.521C1479.31 350.608 1520.53 372.353 1544.63 411.221C1555.87 429.251 1562.12 448.912 1563.84 468.663" stroke="#03FC9D" stroke-width="3" stroke-linecap="round" stroke-linejoin="round"/><path d="M964.848 352.058H973.727" stroke="#003B2F" stroke-width="3" stroke-linecap="round" stroke-linejoin="round"/><path d="M926.977 398.809V367.189C926.977 358.853 933.772 352.058 942.107 352.058H953.251" stroke="#003B2F" stroke-width="3" stroke-linecap="round" stroke-linejoin="round"/><path d="M988.858 367.189V398.809C988.858 407.144 982.063 413.939 973.727 413.939H942.107C938.936 413.939 936.037 412.943 933.681 411.312" stroke="#003B2F" stroke-width="3" stroke-linecap="round" stroke-linejoin="round"/><path d="M958.235 382.953V162.7C951.258 162.7 945.279 167.773 944.101 174.659L920.454 313.643C919.729 317.811 920.907 322.159 923.715 325.331L943.648 348.706C945.822 351.333 947.091 354.595 947.091 358.038V383.044H958.325L958.235 382.953Z" fill="#03FC9D"/><path d="M950.262 373.803L759.453 483.975C762.987 490.045 770.326 492.673 776.849 490.226L909.037 441.211C913.024 439.761 916.195 436.59 917.554 432.513L927.792 403.611C928.97 400.349 931.144 397.722 934.134 396L955.788 383.497L950.171 373.712L950.262 373.803Z" fill="#03FC9D"/><path d="M959.412 382.319L1150.22 492.491C1153.75 486.421 1152.3 478.72 1146.96 474.28L1038.42 384.313C1035.16 381.594 1030.81 380.507 1026.64 381.232L996.469 386.759C993.116 387.393 989.673 386.759 986.683 385.037L959.322 372.534V382.319H959.412Z" fill="#03FC9D"/><path d="M964.848 382.953V162.7C957.872 162.7 951.892 167.773 950.714 174.659L927.067 313.643C926.342 317.811 927.52 322.159 930.329 325.331L950.261 348.706C952.436 351.333 953.704 354.595 953.704 358.038V383.044H964.939L964.848 382.953Z" stroke="#003B2F" stroke-width="3" stroke-linecap="round" stroke-linejoin="round"/><path d="M956.966 378.423L766.158 488.596C769.691 494.666 777.03 497.293 783.553 494.847L915.742 445.831C919.729 444.382 922.9 441.211 924.259 437.134L934.497 408.232C935.674 404.97 937.849 402.342 940.839 400.621L962.493 388.118L956.875 378.333L956.966 378.423Z" stroke="#003B2F" stroke-width="3" stroke-linecap="round" stroke-linejoin="round"/><path d="M956.966 387.574L1147.77 497.746C1151.31 491.676 1149.86 483.975 1144.51 479.535L1035.97 389.567C1032.71 386.849 1028.36 385.762 1024.19 386.487L994.022 392.014C990.67 392.648 987.227 392.014 984.237 390.292L962.583 377.789L956.966 387.574Z" stroke="#003B2F" stroke-width="3" stroke-linecap="round" stroke-linejoin="round"/><path d="M957.872 399.443C966.979 399.443 974.362 392.06 974.362 382.953C974.362 373.847 966.979 366.464 957.872 366.464C948.765 366.464 941.383 373.847 941.383 382.953C941.383 392.06 948.765 399.443 957.872 399.443Z" fill="white"/><path d="M926.433 891.594H991.304C995.291 891.594 998.643 894.856 998.643 898.933V906.634H919.185V898.933C919.185 894.946 922.447 891.594 926.524 891.594H926.433Z" stroke="#003B2F" stroke-width="3" stroke-linecap="round" stroke-linejoin="round"/><path d="M967.023 413.939H950.805L934.315 891.594H983.512L967.023 413.939Z" stroke="#003B2F" stroke-width="3" stroke-linecap="round" stroke-linejoin="round"/><path d="M957.872 399.443C966.979 399.443 974.362 392.06 974.362 382.953C974.362 373.847 966.979 366.464 957.872 366.464C948.765 366.464 941.383 373.847 941.383 382.953C941.383 392.06 948.765 399.443 957.872 399.443Z" stroke="#003B2F" stroke-width="3" stroke-linecap="round" stroke-linejoin="round"/><path d="M1045.39 921.674H872.435V1004.76H1045.39V921.674Z" fill="#003B2F" stroke="#003B2F" stroke-width="3" stroke-linecap="round" stroke-linejoin="round"/><path d="M1051.65 906.634H866.183V921.674H1051.65V906.634Z" fill="#03FC9D" stroke="#003B2F" stroke-width="3" stroke-linecap="round" stroke-linejoin="round"/><path d="M791.345 319.351C816.17 254.48 877.78 207.819 950.715 204.92" stroke="#003B2F" stroke-width="3" stroke-linecap="round" stroke-linejoin="round"/><path d="M957.872 561.168C893.182 561.168 836.465 526.649 805.298 475.096" stroke="#003B2F" stroke-width="3" stroke-linecap="round" stroke-linejoin="round"/><path d="M1117.79 304.13C1129.56 327.867 1136.18 354.686 1136.18 383.044C1136.18 412.852 1128.84 441.029 1115.88 465.764" stroke="#003B2F" stroke-width="3" stroke-linecap="round" stroke-linejoin="round"/><path d="M814.087 324.968C836.103 270.426 888.29 231.285 949.99 228.205" stroke="#003B2F" stroke-width="3" stroke-linecap="round" stroke-linejoin="round"/><path d="M802.942 382.953C802.942 368.185 805.026 353.78 808.922 340.28" stroke="#003B2F" stroke-width="3" stroke-linecap="round" stroke-linejoin="round"/><path d="M1029.27 520.578C1007.88 531.632 983.603 537.974 957.872 537.974C902.695 537.974 854.223 509.162 826.771 465.673" stroke="#003B2F" stroke-width="3" stroke-linecap="round" stroke-linejoin="round"/><path d="M1042.86 253.302C1084.99 281.026 1112.89 328.683 1112.89 382.953C1112.89 408.05 1106.91 431.788 1096.31 452.808" stroke="#003B2F" stroke-width="3" stroke-linecap="round" stroke-linejoin="round"/><path d="M1614.08 1004.76H305.918" stroke="#003B2F" stroke-width="3" stroke-miterlimit="10" stroke-linecap="round" stroke-linejoin="round"/><g clip-path="url(#clip1_1146_2177)"><path d="M1089.4 248.07C1103.85 250.96 1117.91 241.584 1120.8 227.13C1123.69 212.675 1114.31 198.616 1099.86 195.726C1085.4 192.837 1071.34 202.213 1068.45 216.667C1065.57 231.122 1074.94 245.181 1089.4 248.07Z" fill="#03FC9D"/><path d="M1107.03 221.002C1108.24 217.678 1105.98 215.349 1102.67 213.381L1104.75 208.953L1102.07 207.681L1100.02 212.089L1097.84 211.11L1099.94 206.629L1097.24 205.41L1095.16 209.812L1093.42 209.028L1089.73 207.311L1088.38 210.143C1088.38 210.143 1090.38 211.033 1090.32 211.048C1090.52 211.111 1090.7 211.215 1090.86 211.352C1091.02 211.489 1091.15 211.658 1091.24 211.847C1091.34 212.036 1091.39 212.242 1091.4 212.452C1091.41 212.662 1091.38 212.872 1091.3 213.069L1088.92 218.036L1085.58 225.071C1085.52 225.196 1085.43 225.306 1085.33 225.395C1085.22 225.485 1085.1 225.551 1084.96 225.591C1084.83 225.631 1084.69 225.643 1084.55 225.626C1084.42 225.61 1084.28 225.565 1084.16 225.496L1082.2 224.559L1080.17 227.501L1083.65 229.149L1085.56 230.075L1083.47 234.556L1086.16 235.802L1088.22 231.504L1090.35 232.53L1088.27 236.958L1090.95 238.23L1093.07 233.78C1097.7 235.659 1101.39 236.015 1103.8 231.952C1104.24 231.397 1104.55 230.758 1104.72 230.076C1104.89 229.393 1104.92 228.682 1104.81 227.988C1104.69 227.293 1104.43 226.631 1104.04 226.043C1103.65 225.455 1103.15 224.954 1102.56 224.572C1103.57 224.572 1104.56 224.234 1105.37 223.612C1106.17 222.989 1106.75 222.117 1107 221.133L1107.03 221.002ZM1098.7 228.755C1097.13 232.115 1091.6 229.023 1089.78 228.17L1092.57 222.249C1094.39 223.102 1100.4 225.284 1098.7 228.755ZM1101.41 219.825C1099.96 222.856 1095.36 220.25 1093.85 219.538L1096.46 214.099C1097.95 214.916 1102.96 216.679 1101.46 219.835L1101.41 219.825Z" fill="#003B2F"/></g><g clip-path="url(#clip2_1146_2177)"><path d="M722.819 456.384C737.273 459.273 751.333 449.898 754.222 435.443C757.111 420.989 747.736 406.929 733.281 404.04C718.827 401.151 704.767 410.526 701.878 424.981C698.989 439.435 708.364 453.495 722.819 456.384Z" fill="#03FC9D"/><path d="M740.45 429.316C741.659 425.992 739.402 423.663 736.094 421.695L738.177 417.267L735.492 415.995L733.44 420.403L731.268 419.424L733.361 414.943L730.665 413.724L728.588 418.126L726.839 417.341L723.154 415.625L721.799 418.457C721.799 418.457 723.799 419.346 723.741 419.362C723.942 419.425 724.127 419.529 724.286 419.666C724.446 419.803 724.575 419.971 724.668 420.161C724.76 420.35 724.812 420.555 724.822 420.765C724.832 420.976 724.799 421.185 724.725 421.382L722.344 426.35L719.006 433.385C718.944 433.509 718.857 433.62 718.751 433.709C718.645 433.798 718.521 433.865 718.388 433.905C718.255 433.944 718.116 433.957 717.978 433.94C717.84 433.924 717.707 433.879 717.587 433.809L715.624 432.873L713.594 435.814L717.075 437.463L718.985 438.389L716.892 442.87L719.583 444.115L721.639 439.818L723.775 440.843L721.692 445.272L724.377 446.544L726.492 442.094C731.124 443.973 734.809 444.328 737.227 440.266C737.66 439.711 737.973 439.072 738.146 438.389C738.318 437.707 738.347 436.996 738.23 436.301C738.112 435.607 737.852 434.945 737.464 434.357C737.077 433.769 736.572 433.268 735.98 432.886C736.997 432.886 737.985 432.548 738.79 431.926C739.594 431.303 740.169 430.431 740.424 429.447L740.45 429.316ZM732.123 437.069C730.553 440.429 725.02 437.336 723.204 436.483L725.993 430.563C727.809 431.416 733.824 433.598 732.123 437.069ZM734.833 428.139C733.384 431.169 728.788 428.563 727.27 427.852L729.881 422.413C731.378 423.229 736.388 424.993 734.886 428.149L734.833 428.139Z" fill="#003B2F"/></g><g clip-path="url(#clip3_1146_2177)"><path d="M242.546 613.737C252.717 606.447 255.052 592.292 247.762 582.121C240.472 571.95 226.317 569.615 216.146 576.905C205.975 584.195 203.639 598.35 210.929 608.521C218.219 618.692 232.374 621.027 242.546 613.737Z" fill="#03FC9D"/><path d="M235.978 587.111C234.617 584.434 231.865 584.483 228.726 585.395L227.187 581.536L224.842 582.464L226.386 586.291L224.52 587.071L222.954 583.176L220.636 584.141L222.162 587.981L220.661 588.611L217.46 589.901L218.431 592.383C218.431 592.383 220.142 591.659 220.118 591.704C220.274 591.616 220.446 591.561 220.623 591.542C220.801 591.522 220.98 591.539 221.151 591.592C221.321 591.644 221.48 591.731 221.616 591.847C221.752 591.962 221.863 592.104 221.942 592.264L223.643 596.621L226.071 602.77C226.112 602.88 226.13 602.998 226.124 603.116C226.118 603.233 226.087 603.348 226.035 603.454C225.983 603.559 225.909 603.653 225.819 603.729C225.729 603.805 225.624 603.862 225.511 603.895L223.793 604.57L224.44 607.535L227.48 606.331L229.162 605.683L230.728 609.579L233.06 608.632L231.587 604.865L233.461 604.135L235 607.994L237.346 607.066L235.812 603.175C239.662 601.391 242.019 599.312 240.901 595.458C240.808 594.867 240.593 594.303 240.27 593.8C239.946 593.297 239.522 592.867 239.023 592.537C238.525 592.208 237.963 591.985 237.374 591.885C236.785 591.784 236.181 591.807 235.601 591.952C236.191 591.322 236.554 590.513 236.634 589.653C236.714 588.794 236.507 587.932 236.044 587.203L235.978 587.111ZM235.959 596.769C237.134 599.691 232.008 601.33 230.426 601.962L228.371 596.8C229.953 596.168 234.793 593.703 235.959 596.769ZM231.992 589.912C233.031 592.568 228.751 593.907 227.429 594.436L225.57 589.664C226.944 589.209 230.942 587.124 232.029 589.885L231.992 589.912Z" fill="#003B2F"/></g><g clip-path="url(#clip4_1146_2177)"><path d="M1479.7 311.768C1489.87 304.478 1492.2 290.323 1484.91 280.152C1477.62 269.981 1463.47 267.646 1453.3 274.936C1443.13 282.226 1440.79 296.381 1448.08 306.552C1455.37 316.723 1469.53 319.058 1479.7 311.768Z" fill="#03FC9D"/><path d="M1473.13 285.142C1471.77 282.465 1469.02 282.514 1465.88 283.426L1464.34 279.567L1461.99 280.495L1463.54 284.322L1461.67 285.102L1460.11 281.207L1457.79 282.172L1459.31 286.012L1457.81 286.642L1454.61 287.932L1455.58 290.414C1455.58 290.414 1457.29 289.69 1457.27 289.735C1457.43 289.647 1457.6 289.592 1457.77 289.573C1457.95 289.553 1458.13 289.57 1458.3 289.623C1458.47 289.675 1458.63 289.762 1458.77 289.878C1458.9 289.993 1459.01 290.135 1459.09 290.295L1460.79 294.652L1463.22 300.801C1463.26 300.911 1463.28 301.029 1463.28 301.147C1463.27 301.264 1463.24 301.379 1463.19 301.485C1463.13 301.59 1463.06 301.684 1462.97 301.76C1462.88 301.836 1462.78 301.893 1462.66 301.927L1460.94 302.601L1461.59 305.566L1464.63 304.362L1466.31 303.714L1467.88 307.61L1470.21 306.663L1468.74 302.897L1470.61 302.166L1472.15 306.025L1474.5 305.097L1472.96 301.207C1476.81 299.422 1479.17 297.343 1478.05 293.489C1477.96 292.898 1477.74 292.334 1477.42 291.831C1477.1 291.328 1476.67 290.898 1476.17 290.568C1475.68 290.239 1475.11 290.016 1474.53 289.916C1473.94 289.815 1473.33 289.838 1472.75 289.984C1473.34 289.353 1473.71 288.544 1473.79 287.684C1473.87 286.825 1473.66 285.963 1473.2 285.234L1473.13 285.142ZM1473.11 294.8C1474.28 297.722 1469.16 299.361 1467.58 299.993L1465.52 294.831C1467.1 294.199 1471.94 291.734 1473.11 294.8ZM1469.14 287.943C1470.18 290.599 1465.9 291.939 1464.58 292.467L1462.72 287.695C1464.1 287.24 1468.09 285.155 1469.18 287.916L1469.14 287.943Z" fill="#003B2F"/></g><g clip-path="url(#clip5_1146_2177)"><path d="M1240.41 650.436C1256.48 644.675 1264.84 626.976 1259.08 610.904C1253.32 594.832 1235.62 586.474 1219.55 592.235C1203.48 597.995 1195.12 615.694 1200.88 631.766C1206.64 647.838 1224.34 656.197 1240.41 650.436Z" fill="#03FC9D"/><path d="M1241.75 613.043C1240.97 609.022 1237.34 608.058 1232.88 608.079L1232.3 602.44L1228.88 602.781L1229.48 608.381L1226.73 608.706L1226.14 603.009L1222.73 603.408L1223.3 609.018L1221.1 609.282L1216.41 609.779L1216.76 613.399C1216.76 613.399 1219.27 613.088 1219.23 613.138C1219.46 613.081 1219.71 613.073 1219.95 613.114C1220.19 613.155 1220.42 613.245 1220.62 613.377C1220.83 613.51 1221 613.683 1221.14 613.885C1221.27 614.088 1221.37 614.316 1221.41 614.556L1222.01 620.908L1222.9 629.884C1222.91 630.044 1222.89 630.205 1222.84 630.357C1222.79 630.509 1222.7 630.649 1222.6 630.768C1222.49 630.887 1222.36 630.982 1222.21 631.048C1222.06 631.114 1221.9 631.149 1221.74 631.152L1219.24 631.394L1218.98 635.526L1223.42 635.084L1225.86 634.863L1226.46 640.56L1229.88 640.19L1229.35 634.697L1232.08 634.44L1232.66 640.079L1236.08 639.738L1235.53 634.059C1241.25 633.159 1245.12 631.312 1245.09 625.836C1245.19 625.027 1245.12 624.206 1244.88 623.425C1244.65 622.645 1244.25 621.922 1243.72 621.303C1243.19 620.683 1242.54 620.182 1241.8 619.829C1241.06 619.477 1240.26 619.281 1239.45 619.255C1240.46 618.648 1241.24 617.723 1241.66 616.625C1242.09 615.527 1242.14 614.318 1241.81 613.189L1241.75 613.043ZM1238.12 625.709C1238.56 629.982 1231.23 630.215 1228.91 630.453L1228.15 622.911C1230.46 622.674 1237.73 621.249 1238.12 625.709ZM1235.48 615.228C1235.85 619.101 1229.73 619.258 1227.8 619.458L1227.14 612.501C1229.12 612.417 1235.14 611.177 1235.53 615.207L1235.48 615.228Z" fill="#003B2F"/></g><path d="M1042.85 190.495V172.398" stroke="#003B2F" stroke-width="3" stroke-miterlimit="10" stroke-linecap="round" stroke-linejoin="round"/><path d="M1042.85 159.162V141.065" stroke="#003B2F" stroke-width="3" stroke-miterlimit="10" stroke-linecap="round" stroke-linejoin="round"/><path d="M1067.57 165.784H1049.47" stroke="#003B2F" stroke-width="3" stroke-miterlimit="10" stroke-linecap="round" stroke-linejoin="round"/><path d="M1036.24 165.784H1018.14" stroke="#003B2F" stroke-width="3" stroke-miterlimit="10" stroke-linecap="round" stroke-linejoin="round"/><path d="M1670.65 649.007L1680.24 633.661" stroke="#003B2F" stroke-width="3" stroke-miterlimit="10" stroke-linecap="round" stroke-linejoin="round"/><path d="M1687.26 622.437L1696.85 607.091" stroke="#003B2F" stroke-width="3" stroke-miterlimit="10" stroke-linecap="round" stroke-linejoin="round"/><path d="M1704.71 641.155L1689.35 631.558" stroke="#003B2F" stroke-width="3" stroke-miterlimit="10" stroke-linecap="round" stroke-linejoin="round"/><path d="M1678.14 624.547L1662.79 614.955" stroke="#003B2F" stroke-width="3" stroke-miterlimit="10" stroke-linecap="round" stroke-linejoin="round"/><path d="M169.156 227.568L178.748 212.222" stroke="#003B2F" stroke-width="3" stroke-miterlimit="10" stroke-linecap="round" stroke-linejoin="round"/><path d="M185.764 200.998L195.356 185.652" stroke="#003B2F" stroke-width="3" stroke-miterlimit="10" stroke-linecap="round" stroke-linejoin="round"/><path d="M203.217 219.716L187.862 210.119" stroke="#003B2F" stroke-width="3" stroke-miterlimit="10" stroke-linecap="round" stroke-linejoin="round"/><path d="M176.646 203.108L161.301 193.516" stroke="#003B2F" stroke-width="3" stroke-miterlimit="10" stroke-linecap="round" stroke-linejoin="round"/><path d="M685.303 733.195L706.418 745.376" stroke="#003B2F" stroke-width="3" stroke-miterlimit="10" stroke-linecap="round" stroke-linejoin="round"/><path d="M727.542 733.196L715.122 740.357" stroke="#003B2F" stroke-width="3" stroke-miterlimit="10" stroke-linecap="round" stroke-linejoin="round"/><path d="M706.419 745.376V770.046" stroke="#003B2F" stroke-width="3" stroke-miterlimit="10" stroke-linecap="round" stroke-linejoin="round"/><path d="M1537.39 198.829L1661.25 198.829C1674.91 198.829 1685.99 187.773 1685.99 174.136C1685.99 160.498 1674.91 149.443 1661.25 149.443L1537.39 149.443C1523.73 149.443 1512.65 160.498 1512.65 174.136C1512.65 187.773 1523.73 198.829 1537.39 198.829Z" fill="#E6E8EA"/><path d="M1601.21 263.709L1798.23 263.709C1819.96 263.709 1837.58 246.111 1837.58 224.402C1837.58 202.694 1819.96 185.096 1798.23 185.096L1601.21 185.096C1579.48 185.096 1561.86 202.694 1561.86 224.402C1561.86 246.111 1579.48 263.709 1601.21 263.709Z" fill="#03FC9D"/><path d="M-135.556 452.808H-78.1344C-96.3112 452.808 -111.033 467.543 -111.033 485.706C-111.033 503.883 -96.2978 518.605 -78.1344 518.605H86.8014C104.978 518.605 119.7 503.87 119.7 485.706H170.318C188.495 485.706 203.217 470.971 203.217 452.808C203.217 434.631 188.481 419.909 170.318 419.909H62.2654C62.2654 401.732 47.5304 387.011 29.3671 387.011H-135.569C-153.746 387.011 -168.467 401.746 -168.467 419.909C-168.454 438.086 -153.719 452.808 -135.556 452.808Z" fill="#E6E8EA"/><path d="M173.477 751.621H232.489" stroke="#003B2F" stroke-width="3" stroke-miterlimit="10" stroke-linecap="round" stroke-linejoin="round"/><path d="M128.639 751.621H143.509" stroke="#003B2F" stroke-width="3" stroke-miterlimit="10" stroke-linecap="round" stroke-linejoin="round"/><path d="M182.034 709.121H334.957" stroke="#03FC9D" stroke-width="3" stroke-miterlimit="10" stroke-linecap="round" stroke-linejoin="round"/><path d="M657.695 177.493H757.791" stroke="#003B2F" stroke-width="3" stroke-miterlimit="10" stroke-linecap="round" stroke-linejoin="round"/><path d="M590.962 180.324H610.473" stroke="#003B2F" stroke-width="3" stroke-miterlimit="10" stroke-linecap="round" stroke-linejoin="round"/><path d="M585.724 145.075H759.453" stroke="#03FC9D" stroke-width="3" stroke-miterlimit="10" stroke-linecap="round" stroke-linejoin="round"/><path d="M1663.49 768.608H1540.08" stroke="#003B2F" stroke-width="3" stroke-miterlimit="10" stroke-linecap="round" stroke-linejoin="round"/></g><defs><clipPath id="clip0_1146_2177"><rect width="1920" height="1080" fill="white"/></clipPath><clipPath id="clip1_1146_2177"><rect width="53.3794" height="53.3794" fill="white" transform="translate(1073.69 190.495) rotate(11.3034)"/></clipPath><clipPath id="clip2_1146_2177"><rect width="53.3794" height="53.3794" fill="white" transform="translate(707.109 398.809) rotate(11.3034)"/></clipPath><clipPath id="clip3_1146_2177"><rect width="45.3165" height="45.3165" fill="white" transform="translate(197.73 590.104) rotate(-35.6307)"/></clipPath><clipPath id="clip4_1146_2177"><rect width="45.3165" height="45.3165" fill="white" transform="translate(1434.88 288.135) rotate(-35.6307)"/></clipPath><clipPath id="clip5_1146_2177"><rect width="61.8273" height="61.8273" fill="white" transform="translate(1190.45 602.666) rotate(-19.72)"/></clipPath></defs></svg>