<svg width="1920" height="1080" viewBox="0 0 1920 1080" fill="none" xmlns="http://www.w3.org/2000/svg"><path d="M1765.19 863.774H1656.85C1644.94 863.774 1635.29 873.426 1635.29 885.331V885.443C1635.29 897.349 1644.94 907 1656.85 907H1765.19C1777.1 907 1786.75 897.349 1786.75 885.443V885.331C1786.75 873.426 1777.1 863.774 1765.19 863.774Z" fill="#E6E8EA"/><path d="M1706.47 803.146H1529.07C1509.54 803.146 1493.71 818.98 1493.71 838.512C1493.71 858.045 1509.54 873.879 1529.07 873.879H1706.47C1726.01 873.879 1741.84 858.045 1741.84 838.512C1741.84 818.98 1726.01 803.146 1706.47 803.146Z" fill="#E6E8EA"/><path d="M182.849 196.862H348.236" stroke="#003B2F" stroke-width="3" stroke-linecap="round" stroke-linejoin="round"/><path d="M139.736 196.862H154.107" stroke="#003B2F" stroke-width="3" stroke-linecap="round" stroke-linejoin="round"/><path d="M264.702 151.278H411.788" stroke="#03FC9D" stroke-width="3" stroke-linecap="round" stroke-linejoin="round"/><path d="M272.893 318.905H355.306C364.401 318.905 371.698 326.315 371.698 335.297C371.698 344.279 364.288 351.689 355.306 351.689H272.893C263.798 351.689 256.5 344.279 256.5 335.297C256.5 326.315 263.798 318.905 272.893 318.905Z" fill="#03FC9D"/><path d="M380.233 299.144H516.427C531.473 299.144 543.599 311.27 543.599 326.315C543.599 341.359 531.473 353.485 516.427 353.485H380.233C365.187 353.485 353.062 341.359 353.062 326.315C353.062 311.27 365.187 299.144 380.233 299.144Z" fill="#03FC9D"/><path d="M324.093 323.283H475.669C492.399 323.283 505.872 336.869 505.872 353.485C505.872 370.102 492.287 383.687 475.669 383.687H324.093C307.363 383.687 293.89 370.102 293.89 353.485C293.89 336.756 307.475 323.283 324.093 323.283Z" fill="#03FC9D"/><path d="M1036.45 153.42H1075.63" stroke="#003B2F" stroke-width="3" stroke-linecap="round" stroke-linejoin="round"/><path d="M1178.82 110.531H1370.14" stroke="#03FC9D" stroke-width="3" stroke-linecap="round" stroke-linejoin="round"/><path d="M1126.16 153.195H1284.47" stroke="#003B2F" stroke-width="3" stroke-linecap="round" stroke-linejoin="round"/><path d="M874.374 958.085H843.946" stroke="#003B2F" stroke-width="3" stroke-linecap="round" stroke-linejoin="round"/><path d="M791.514 901.049H570.661" stroke="#03FC9D" stroke-width="3" stroke-linecap="round" stroke-linejoin="round"/><path d="M804.536 957.973H681.029" stroke="#003B2F" stroke-width="3" stroke-linecap="round" stroke-linejoin="round"/><path d="M639.151 471.486H626.238V790.122H669.017V708.274C630.73 634.622 620.849 550.415 639.151 471.598V471.486Z" fill="#03FC9D"/><path d="M647.57 673.356V814.149" stroke="#03FC9D" stroke-width="3" stroke-linecap="round" stroke-linejoin="round"/><path d="M1669.42 351.577H1626.64V649.33H1669.42V351.577Z" fill="#03FC9D"/><path d="M1648.09 311.158V676.949" stroke="#03FC9D" stroke-width="3" stroke-linecap="round" stroke-linejoin="round"/><path d="M1447.11 307.228H1404.33V447.908H1447.11V307.228Z" fill="#03FC9D"/><path d="M1425.78 291.734V460.483" stroke="#03FC9D" stroke-width="3" stroke-linecap="round" stroke-linejoin="round"/><path d="M557.075 610.707H514.297V662.803H557.075V610.707Z" fill="#E6E8EA"/><path d="M535.74 597.459V679.307" stroke="#E6E8EA" stroke-width="3" stroke-linecap="round" stroke-linejoin="round"/><path d="M613.439 570.176H570.661V673.357H613.439V570.176Z" fill="#03FC9D"/><path d="M591.992 556.927V701.313" stroke="#03FC9D" stroke-width="3" stroke-linecap="round" stroke-linejoin="round"/><path d="M328.586 576.688H285.808V637.428H328.586V576.688Z" fill="#E6E8EA"/><path d="M307.14 563.439V657.526" stroke="#E6E8EA" stroke-width="3" stroke-linecap="round" stroke-linejoin="round"/><path d="M443.672 671.335H400.894V695.362H443.672V671.335Z" fill="#E6E8EA"/><path d="M422.226 658.199V707.376" stroke="#E6E8EA" stroke-width="3" stroke-linecap="round" stroke-linejoin="round"/><path d="M1391.53 389.413H1348.75V549.517H1391.53V389.413Z" fill="#03FC9D"/><path d="M1370.2 350.903V585.445" stroke="#03FC9D" stroke-width="3" stroke-linecap="round" stroke-linejoin="round"/><path d="M1502.69 426.689H1459.91V451.838H1502.69V426.689Z" fill="#E6E8EA"/><path d="M1481.35 413.889V469.465" stroke="#E6E8EA" stroke-width="3" stroke-linecap="round" stroke-linejoin="round"/><path d="M1293.17 399.967V418.942C1298.12 430.955 1302.38 443.305 1305.86 455.655H1335.95V399.967H1293.17Z" fill="#E6E8EA"/><path d="M1314.62 361.569V435.895" stroke="#E6E8EA" stroke-width="3" stroke-linecap="round" stroke-linejoin="round"/><path d="M385.062 609.921H342.284V684.584H385.062V609.921Z" fill="#E6E8EA"/><path d="M363.619 596.785V704.569" stroke="#E6E8EA" stroke-width="3" stroke-linecap="round" stroke-linejoin="round"/><path d="M1725.11 342.145H1682.33V416.808H1725.11V342.145Z" fill="#03FC9D"/><path d="M1703.67 328.897V436.793" stroke="#03FC9D" stroke-width="3" stroke-linecap="round" stroke-linejoin="round"/><path d="M279.969 544.802H237.19V698.843H279.969V544.802Z" fill="#03FC9D"/><path d="M258.524 531.553V639.449" stroke="#03FC9D" stroke-width="3" stroke-linecap="round" stroke-linejoin="round"/><path d="M1558.27 426.015H1515.49V491.359H1558.27V426.015Z" fill="#E6E8EA"/><path d="M1536.93 401.539V508.425" stroke="#E6E8EA" stroke-width="3" stroke-linecap="round" stroke-linejoin="round"/><path d="M1613.84 382.901H1571.07V463.065H1613.84V382.901Z" fill="#E6E8EA"/><path d="M1592.51 356.18V491.359" stroke="#E6E8EA" stroke-width="3" stroke-linecap="round" stroke-linejoin="round"/><path d="M500.71 553.559H457.932V690.085H500.71V553.559Z" fill="#03FC9D"/><path d="M479.377 524.704V706.477" stroke="#03FC9D" stroke-width="3" stroke-linecap="round" stroke-linejoin="round"/><path d="M224.391 511.793H181.612V758.012H224.391V511.793Z" fill="#03FC9D"/><path d="M202.947 465.76V811.005" stroke="#03FC9D" stroke-width="3" stroke-linecap="round" stroke-linejoin="round"/><path d="M146.921 732.986L608.158 695.362" stroke="#003B2F" stroke-width="7" stroke-linecap="round" stroke-linejoin="round"/><path d="M1456.1 394.141L1725.45 302.096" stroke="#003B2F" stroke-width="7" stroke-linecap="round" stroke-linejoin="round"/><path d="M374.397 883.31L400.896 898.692" stroke="#003B2F" stroke-width="3" stroke-linecap="round" stroke-linejoin="round"/><path d="M427.395 883.31L411.788 892.292" stroke="#003B2F" stroke-width="3" stroke-linecap="round" stroke-linejoin="round"/><path d="M400.896 898.692V929.567" stroke="#003B2F" stroke-width="3" stroke-linecap="round" stroke-linejoin="round"/><path d="M824.176 294.259C689.528 388.496 656.749 574.037 750.888 708.741C845.122 843.383 1030.66 876.155 1165.37 782.012C1300.02 687.776 1332.8 502.235 1238.66 367.531C1144.43 232.888 958.885 200.117 824.176 294.259Z" fill="#03FC9D"/><path d="M790.826 290.426C656.178 384.663 623.399 570.203 717.538 704.907C811.772 839.55 997.314 872.321 1132.02 778.179C1266.67 683.943 1299.45 498.402 1205.31 363.698C1111.08 229.056 925.535 196.284 790.826 290.426Z" stroke="#003B2F" stroke-width="3" stroke-linecap="round" stroke-linejoin="round"/><path d="M878.699 514.962C881.472 515.14 884.662 514.783 887.822 514.544C891.167 514.316 894.466 513.639 897.63 512.532C899.583 511.831 901.386 510.698 902.162 508.656C903.578 504.93 903.891 501.009 902.788 497.208C901.059 491.275 896.691 487.281 891.966 483.643C890.054 482.084 887.83 480.953 885.443 480.328C883.056 479.703 880.563 479.599 878.133 480.021C869.368 481.497 860.454 489.204 859.381 498.281C858.904 502.276 858.68 506.092 860.991 509.685C862.556 512.114 864.18 514.142 867.4 514.395C871.008 514.693 874.645 514.991 878.699 514.962ZM1044.07 515.006C1046.05 515.155 1049.17 514.768 1052.3 514.559C1055.07 514.38 1057.69 513.754 1059.38 511.131C1061.75 507.464 1062.72 503.469 1062.12 499.191C1061.08 491.693 1056.66 486.431 1050.28 482.719C1045.2 479.753 1039.76 478.814 1034.04 480.871C1030.71 482.063 1028.03 484.284 1025.51 486.625C1021.05 490.798 1017.66 495.568 1017.16 501.919C1016.69 507.747 1019.07 511.265 1024.63 512.904C1030.61 514.663 1036.75 514.872 1044.07 515.006ZM1074.21 540.377C1074.21 536.695 1074.25 532.998 1073.09 529.465C1071.62 524.993 1072 524.949 1067.58 525.336C1061.52 525.858 1056.1 528.407 1050.76 531.06C1043.19 534.817 1036 539.259 1028.94 543.909C1023.23 547.681 1017.3 551.169 1012.36 555.984C1008.46 559.77 1004.97 563.854 1004.09 569.504C1003.81 571.248 1004.39 572.276 1006.3 572.738C1008.09 573.156 1009.87 573.513 1011.75 573.513C1018.79 573.513 1025.64 572.261 1032.43 570.621C1041.17 568.59 1049.63 565.522 1057.65 561.484C1062.97 558.741 1067.99 555.596 1072.06 551.139C1073.14 549.947 1073.93 548.754 1073.9 547.055C1073.87 544.819 1074.09 542.598 1074.21 540.377ZM851.287 539.81C851.376 541.375 851.674 544.044 851.614 546.712C851.555 549.201 852.777 550.856 854.432 552.451C861.289 559.024 869.711 562.885 878.461 566.179C884.155 568.311 889.983 569.966 895.931 571.277C901.893 572.574 907.9 573.513 913.997 573.692C916.173 573.752 918.35 573.513 920.437 572.798C922.225 572.202 922.777 571.352 922.494 569.608C922.247 568.072 921.764 566.584 921.063 565.196C918.335 559.8 914.116 555.671 909.227 552.317C896.616 543.641 883.827 535.249 869.681 529.167C865.373 527.319 860.961 525.798 856.131 525.858C854.491 525.873 853.791 526.544 853.195 527.945C851.704 531.388 851.6 535.055 851.287 539.81ZM806.821 359.668C805.778 359.519 805.554 359.817 804.645 361.874C801.202 369.551 800.218 377.72 799.785 385.963C799.644 391.069 799.853 396.179 800.412 401.257C800.71 404.789 801.142 408.292 801.679 411.795C803.081 420.801 804.887 429.738 807.09 438.582C808.684 444.843 810.429 451.088 812.247 457.304C813.738 462.447 815.407 467.545 817.017 472.658C817.136 473.015 817.27 473.463 817.762 473.463C818.165 473.463 818.269 473.075 818.448 472.807C821.936 467.321 825.439 461.851 829.389 456.663C834.308 450.209 839.362 443.874 845.041 438.045C849.617 433.335 854.268 428.684 859.351 424.495C864.036 420.566 868.911 416.87 873.959 413.42C874.898 412.794 874.853 412.317 874.153 411.587C870.724 408.009 867.445 404.283 863.927 400.809C858.037 394.88 851.905 389.196 845.548 383.772C840.947 379.832 836.167 376.107 831.223 372.607C826.031 368.984 820.575 365.755 814.9 362.948C812.303 361.631 809.601 360.534 806.821 359.668ZM1063.03 426.389C1063.83 427.79 1065.33 428.475 1066.41 429.579C1071.24 434.498 1076.3 439.223 1080.8 444.485C1088.11 453.074 1094.82 462.159 1100.88 471.674C1101.32 472.389 1101.43 473.507 1102.4 473.582C1102.65 473.582 1103.08 472.225 1103.32 471.45C1105.21 465.085 1107.27 458.78 1109.11 452.4C1111.19 445.156 1113.13 437.881 1114.72 430.533C1116.5 422.498 1118 414.419 1118.94 406.206C1119.57 400.75 1119.91 395.294 1120.14 389.824C1120.31 384.964 1119.69 380.09 1119.17 375.245C1119.06 374.947 1118.9 374.634 1118.87 374.306C1118.28 369.794 1116.97 365.406 1114.99 361.308C1114.07 359.251 1113.85 359.221 1111.68 360.086C1104.18 363.049 1097.03 366.85 1090.37 371.414C1079.92 378.554 1070.39 386.827 1061.26 395.562C1055.97 400.673 1050.86 405.968 1045.95 411.438C1045.2 412.257 1045.01 412.72 1046.1 413.51C1050.14 416.446 1054.21 419.353 1058.11 422.498C1059.72 423.81 1061.09 425.494 1063.03 426.389ZM1060.67 370.893C1065.34 366.436 1069.86 361.83 1074.78 357.626C1083.69 350.009 1093.2 343.256 1103.99 338.442C1111 335.311 1118.26 333.031 1125.98 332.434C1127.1 332.36 1127.77 332.554 1128.42 333.612C1131.26 338.129 1133.04 343.048 1134.42 348.161C1137.25 358.699 1137.67 369.447 1137.25 380.239C1136.92 389.063 1136.03 397.828 1134.74 406.578C1133.73 413.495 1132.46 420.366 1131.21 427.238C1130.73 429.862 1130.02 432.426 1129.66 435.064C1129.51 435.601 1129.3 436.107 1129.18 436.659C1127.25 445.603 1124.98 454.472 1122.64 463.326C1119.88 473.746 1116.98 484.12 1113.59 494.331C1112.59 497.342 1113.25 499.653 1114.43 502.232C1117.77 509.61 1122.03 516.571 1124.86 524.203C1126.89 529.629 1128.89 535.04 1130.56 540.585C1133.28 549.633 1135.33 558.831 1136.83 568.162C1138.55 578.797 1139.56 589.532 1139.87 600.3C1139.93 602.208 1140.72 604.131 1140.01 606.069C1137.41 605.666 1134.82 605.174 1132.21 604.906C1123.7 603.881 1115.11 603.731 1106.57 604.459C1096.73 605.382 1087.08 607.743 1077.92 611.465C1066 616.384 1055.46 623.494 1046.1 632.318C1043.56 634.703 1041.12 637.193 1038.54 639.742L1035.65 631.096C1032.89 622.972 1028.76 615.474 1025.02 607.798C1023.9 605.483 1022.47 603.328 1020.79 601.388C1014.89 594.512 1007.98 588.575 1000.29 583.784C988.305 576.435 975.098 573.245 961.146 573.2C953.924 573.31 946.761 574.522 939.904 576.793C926.25 581.041 915.264 589.15 905.903 599.748C902.475 603.624 900.224 608.14 897.6 612.448C894.006 618.258 890.818 624.309 888.06 630.559L884.05 639.816L882.351 637.953C866.252 620.259 847.023 608.111 822.905 604.429C813.98 603.144 804.935 602.904 795.955 603.713C791.483 604.071 787.085 604.831 782.688 605.577C782.748 600.583 783.18 595.589 783.582 590.611C784.104 584.082 785.043 577.598 786.146 571.143C787.085 565.687 788.278 560.262 789.575 554.866C791.662 546.22 794.166 537.708 797.177 529.331C797.728 527.736 798.593 526.156 797.087 524.591C797.043 524.531 797.162 524.323 797.251 524.039C798.235 525.336 798.742 525.113 799.249 523.726C802.327 515.606 805.724 507.611 809.43 499.757C809.788 498.982 810.056 498.222 809.713 497.372C806.394 489.069 803.518 480.595 801.097 471.987C799.219 465.428 797.46 458.839 796.029 452.161C795.001 447.347 793.897 442.532 792.824 437.717C792.571 433.722 791.587 429.832 790.991 425.897C789.052 413.552 787.779 401.112 787.175 388.631C786.864 382.465 786.815 376.288 787.026 370.117C787.324 362.515 787.831 354.928 789.768 347.535C790.812 343.51 792.198 339.589 794.449 336.042C797.028 331.957 799.13 331.182 803.914 331.928C812.337 333.225 819.745 336.847 826.766 341.348C836.157 347.356 844.504 354.63 852.405 362.411L861.945 371.757C862.138 372.025 862.317 372.324 862.541 372.562C866.685 377.064 870.903 381.521 875.002 386.097C880.801 392.566 886.555 399.08 892.204 405.684C893.352 407.025 894.291 407.234 895.841 406.578C905.799 402.509 916.114 399.632 926.682 397.649C935.82 395.95 945.077 395.354 954.348 395.026C967.615 394.579 980.852 395.175 993.969 397.366C1005.72 399.304 1017.22 402.255 1028.37 406.474C1030.89 407.428 1030.86 407.473 1032.49 405.192C1037.41 398.29 1042.68 391.672 1048.08 385.143C1052.1 380.254 1056.43 375.603 1060.67 370.893Z" fill="#426159"/><path d="M987.694 744.354H986.158C986.755 744.726 987.202 744.592 987.694 744.354ZM982.67 745.099C983.878 745.457 984.653 745.174 985.562 744.726C984.519 744.384 983.773 744.965 982.67 745.099ZM965.007 681.464V681.42H950.726C947.879 681.42 947.909 681.42 948.013 684.267C948.043 685.012 948.401 685.355 948.938 685.698C950.339 686.622 951.934 687.114 953.469 687.785C954.527 688.232 955.109 688.142 955.526 686.89C956.361 684.416 956.45 684.505 959.059 684.669C959.923 684.729 960.386 685.116 960.773 685.742L963.426 690.155C964.813 692.42 967.034 692.555 968.793 690.497L971.029 687.829C973.533 684.893 973.533 684.893 976.499 687.397C976.902 687.74 977.2 688.276 977.9 688.113C979.08 687.807 980.133 687.134 980.904 686.191C981.676 685.247 982.128 684.083 982.193 682.866C982.238 681.598 981.716 681.435 980.628 681.449C975.426 681.494 970.224 681.464 965.007 681.464ZM1013.6 667.05H999.41C998.724 667.05 998.367 667.467 998.158 667.974C997.681 669.211 996.816 669.465 995.564 669.42C991.868 669.316 988.171 669.375 984.474 669.346C982.566 669.346 980.3 669.912 978.869 669.092C977.379 668.228 976.589 666.051 975.709 664.322C975.098 663.13 974.368 662.533 973.026 662.742C972.176 662.891 971.878 662.593 971.893 661.684C971.938 657.51 971.923 653.336 971.893 649.148C971.893 648.432 972.072 648.074 972.788 647.836C976.011 646.747 979.03 645.124 981.716 643.036C987.038 639.011 990.765 633.913 992.002 627.25C992.866 622.674 992.419 618.038 992.583 613.432C992.762 607.872 987.112 602.193 981.523 602.193H950.428C944.123 602.193 939.949 606.352 939.949 612.627C939.949 615.579 940.098 618.545 939.919 621.482C939.562 627.534 942.051 632.348 946.12 636.537C951.039 641.605 957.121 644.944 963.546 647.717C964.157 647.985 964.768 648.074 964.753 649.013C964.708 653.247 964.723 657.48 964.753 661.699C964.753 662.369 964.604 662.891 963.829 662.682C962.13 662.28 961.518 663.398 960.848 664.59C960.102 665.947 959.238 667.229 958.478 668.585C958.135 669.196 957.732 669.42 957.017 669.405C950.413 669.405 943.795 669.42 937.191 669.062C936.67 669.033 936.163 669.062 936.148 668.347C936.148 667.288 935.432 667.154 934.568 667.154L920.795 667.065C920.452 667.065 919.93 666.826 919.841 667.408C919.751 667.944 919.647 668.526 920.124 668.988C920.929 669.748 921.689 670.583 922.553 671.268C923.056 671.656 923.463 672.152 923.744 672.721C924.026 673.289 924.174 673.914 924.178 674.548C924.298 676.486 924.64 678.394 925.028 680.302C925.326 681.882 925.818 682.359 927.413 681.867C928.441 681.554 929.619 681.42 929.798 683.119C930.051 685.444 930.812 687.65 931.557 689.857C932.571 692.808 933.733 695.715 935.611 698.204C937.773 696.013 937.967 693.434 937.877 690.602C937.698 685.385 937.818 680.167 937.818 674.891C938.578 674.98 939.427 675.01 940.232 675.189C947.223 676.605 954.304 677.127 961.399 677.395C972.819 677.759 984.245 676.925 995.49 674.906C996.757 674.682 996.98 674.95 996.951 676.158C996.831 681.509 996.861 686.86 996.772 692.197C996.727 694.671 998.471 696.192 999.604 698.308L1004.85 684.699C1005.83 682.165 1005.83 682.12 1008.55 682.135C1009.31 682.135 1009.93 682.135 1010.16 681.196L1013.6 667.05ZM1104.39 679.452L1104.66 679.124L1104.48 678.975L1104.34 679.407C1104.24 679.527 1104.14 679.646 1104.04 679.765C1103.56 679.735 1103.35 679.974 1103.37 680.421L1102.95 680.525L1103.07 680.704L1103.37 680.421C1103.52 680.368 1103.66 680.295 1103.78 680.179C1103.9 680.062 1103.98 679.921 1104.04 679.765L1104.39 679.452ZM1105.83 678.871C1102.45 682.781 1098.8 686.451 1094.91 689.857C1085.99 697.986 1076.43 705.384 1066.32 711.977C1055.62 718.998 1044.44 725.184 1032.79 730.521C1024.56 734.307 1016.13 737.631 1007.5 740.404C999.142 743.087 990.615 745.174 981.925 746.634C972.278 748.332 962.45 748.753 952.694 747.887C944.103 747.052 935.618 745.354 927.368 742.818C925.132 742.148 922.911 741.343 920.72 740.583C917.194 739.389 913.681 738.156 910.181 736.886C905.411 735.127 900.865 732.98 896.274 730.879C873.044 720.306 851.433 706.489 832.087 689.842C818.12 677.797 805.495 664.561 795.716 648.849C790.775 641.131 786.993 632.728 784.492 623.911C782.867 617.944 782.253 611.747 782.673 605.577C787.085 604.831 791.483 604.071 795.94 603.713C804.921 602.904 813.965 603.144 822.89 604.429C847.024 608.111 866.267 620.259 882.366 637.968L884.051 639.816L888.075 630.559C890.788 624.284 894.038 618.292 897.6 612.448C900.224 608.126 902.49 603.624 905.903 599.763C915.264 589.15 926.235 581.041 939.904 576.808C946.759 574.529 953.923 573.312 961.146 573.2C975.113 573.245 988.305 576.435 1000.29 583.784C1008.07 588.554 1014.81 594.546 1020.79 601.403C1022.49 603.341 1023.9 605.487 1025.02 607.798C1028.76 615.474 1032.89 622.972 1035.65 631.111L1038.54 639.742C1041.12 637.208 1043.55 634.703 1046.1 632.318C1055.34 623.477 1066.12 616.413 1077.92 611.479C1087.08 607.756 1096.74 605.396 1106.59 604.474C1115.13 603.747 1123.72 603.897 1132.22 604.921C1134.82 605.174 1137.41 605.666 1140.01 606.069C1140.13 609.452 1139.86 612.821 1139.34 616.175C1137.93 625.307 1135.2 634.186 1131.23 642.529C1129.06 647.15 1126.31 651.413 1123.71 655.796C1118.94 663.569 1113.43 670.858 1107.24 677.559C1107.09 677.738 1106.9 677.857 1106.74 678.006C1106.45 677.305 1107.36 676.933 1107.27 676.143C1106.59 676.769 1105.78 677.142 1105.72 678.081C1105.54 678.17 1105.21 678.215 1105.18 678.334C1105.1 678.736 1105.48 678.662 1105.72 678.751L1105.83 678.871Z" fill="#FFFEFE"/><path d="M806.822 359.668C809.534 360.473 812.262 361.651 814.901 362.948C820.58 365.735 826.021 369 831.223 372.607C836.202 376.065 840.912 379.881 845.563 383.787C851.973 389.153 857.995 394.936 863.927 400.809C867.445 404.283 870.74 407.994 874.153 411.587C874.839 412.317 874.898 412.779 873.959 413.42C863.458 420.564 853.762 428.826 845.041 438.06C839.362 443.874 834.309 450.209 829.39 456.663C825.439 461.851 821.936 467.321 818.448 472.807C818.27 473.075 818.165 473.463 817.763 473.463C817.271 473.463 817.137 473.015 817.017 472.672C815.408 467.545 813.738 462.447 812.247 457.304C810.419 451.094 808.699 444.852 807.09 438.582C804.884 429.739 803.079 420.801 801.679 411.795C801.142 408.292 800.725 404.789 800.412 401.257C799.848 396.179 799.639 391.069 799.786 385.963C800.218 377.72 801.202 369.551 804.645 361.874C805.554 359.817 805.778 359.519 806.822 359.668Z" fill="#14483D"/><path d="M1119.17 375.245C1119.7 380.09 1120.31 384.964 1120.12 389.824C1119.91 395.294 1119.55 400.75 1118.94 406.22C1118.02 414.419 1116.5 422.498 1114.72 430.532C1113.11 437.881 1111.19 445.156 1109.1 452.4C1107.27 458.78 1105.21 465.085 1103.32 471.45C1103.08 472.225 1102.65 473.597 1102.38 473.582C1101.43 473.507 1101.34 472.389 1100.88 471.674C1094.84 462.145 1088.13 453.059 1080.8 444.485C1076.3 439.223 1071.26 434.498 1066.41 429.579C1065.33 428.461 1063.83 427.79 1063.03 426.389C1063.33 425.986 1063.7 425.643 1063.92 425.196C1066.03 420.739 1068.43 416.446 1070.99 412.228C1074.85 405.848 1079.13 399.766 1084.14 394.251C1089.4 388.452 1095.35 383.444 1102.43 379.896C1107.69 377.272 1113.2 375.454 1119.17 375.245Z" fill="#14483D"/><path d="M851.287 539.78C851.6 535.04 851.719 531.373 853.195 527.915C853.791 526.529 854.491 525.858 856.131 525.843C860.961 525.783 865.373 527.304 869.681 529.152C883.827 535.234 896.617 543.626 909.227 552.302C914.116 555.656 918.32 559.785 921.063 565.181C921.763 566.582 922.24 568.043 922.494 569.593C922.777 571.337 922.211 572.201 920.437 572.798C918.35 573.498 916.174 573.737 913.997 573.692C907.912 573.452 901.863 572.639 895.931 571.262C889.993 569.982 884.155 568.278 878.461 566.164C869.711 562.885 861.289 559.009 854.432 552.436C852.777 550.841 851.555 549.186 851.6 546.697C851.674 544.029 851.376 541.36 851.302 539.795L851.287 539.78Z" fill="#003B2F"/><path d="M1074.21 540.377C1074.09 542.583 1073.87 544.819 1073.91 547.04C1073.91 548.754 1073.14 549.946 1072.06 551.124C1067.99 555.596 1062.97 558.726 1057.65 561.469C1049.64 565.507 1041.17 568.575 1032.43 570.607C1025.65 572.246 1018.77 573.483 1011.75 573.498C1009.87 573.498 1008.07 573.141 1006.3 572.723C1004.39 572.276 1003.81 571.233 1004.09 569.489C1004.97 563.824 1008.46 559.755 1012.36 555.954C1017.28 551.154 1023.23 547.666 1028.94 543.895C1035.99 539.259 1043.17 534.802 1050.76 531.045C1056.11 528.392 1061.52 525.843 1067.58 525.321C1071.99 524.934 1071.6 524.993 1073.09 529.45C1074.25 532.983 1074.19 536.68 1074.21 540.362V540.377Z" fill="#003B2F"/><path d="M1119.17 375.245C1113.2 375.454 1107.69 377.272 1102.43 379.896C1095.35 383.444 1089.4 388.452 1084.14 394.251C1079.13 399.766 1074.85 405.848 1070.99 412.228C1068.41 416.429 1066.05 420.757 1063.91 425.196C1063.7 425.643 1063.31 425.986 1063.02 426.389C1061.08 425.494 1059.71 423.81 1058.1 422.513C1054.19 419.353 1050.12 416.446 1046.07 413.51C1044.99 412.72 1045.17 412.257 1045.92 411.423C1050.87 405.982 1055.95 400.66 1061.26 395.577C1070.38 386.827 1079.92 378.554 1090.37 371.399C1097.03 366.853 1104.14 363.052 1111.68 360.086C1113.85 359.236 1114.07 359.251 1115.01 361.293C1116.92 365.452 1118.33 369.745 1118.85 374.306C1118.9 374.634 1119.06 374.932 1119.15 375.245H1119.17Z" fill="#2D5349"/><path d="M1044.07 515.006C1036.74 514.872 1030.61 514.663 1024.63 512.904C1019.07 511.265 1016.69 507.747 1017.15 501.919C1017.66 495.554 1021.05 490.784 1025.51 486.625C1028.03 484.284 1030.71 482.063 1034.04 480.871C1039.75 478.814 1045.2 479.753 1050.29 482.719C1056.67 486.446 1061.06 491.693 1062.12 499.191C1062.72 503.469 1061.75 507.464 1059.38 511.131C1057.69 513.754 1055.06 514.38 1052.3 514.559C1049.17 514.753 1046.04 515.155 1044.07 515.006ZM878.7 514.962C874.63 515.006 871.008 514.678 867.386 514.395C864.181 514.142 862.556 512.114 860.991 509.685C858.68 506.092 858.904 502.276 859.381 498.281C860.454 489.204 869.368 481.497 878.133 480.021C883.201 479.172 887.852 480.454 891.966 483.629C896.691 487.281 901.059 491.275 902.788 497.193C903.891 501.009 903.578 504.945 902.162 508.671C901.387 510.698 899.583 511.831 897.63 512.532C894.466 513.64 891.167 514.317 887.822 514.544C884.647 514.783 881.487 515.14 878.7 514.962Z" fill="#FFFEFE"/><path d="M1105.72 678.096C1105.8 677.142 1106.57 676.769 1107.27 676.143C1107.36 676.933 1106.45 677.305 1106.74 678.006L1106.69 678.096H1105.72Z" fill="#426159"/><path d="M1105.72 678.095H1106.59C1106.44 678.468 1106.24 678.781 1105.81 678.871L1105.72 678.751V678.095Z" fill="#FFFEFE"/><path d="M1013.59 667.05L1010.16 681.211C1009.93 682.135 1009.31 682.135 1008.53 682.135C1005.83 682.135 1005.83 682.15 1004.85 684.699L999.589 698.308C998.471 696.192 996.727 694.671 996.757 692.197C996.861 686.86 996.832 681.509 996.951 676.158C996.966 674.95 996.757 674.667 995.49 674.906C984.206 676.843 972.832 677.827 961.399 677.395C954.295 677.239 947.216 676.501 940.233 675.189C939.413 675.01 938.578 674.98 937.818 674.891C937.818 680.153 937.698 685.385 937.877 690.602C937.967 693.434 937.773 696.013 935.612 698.204C933.831 695.652 932.462 692.835 931.557 689.857C930.812 687.65 930.052 685.444 929.798 683.119C929.619 681.405 928.442 681.554 927.398 681.867C925.818 682.359 925.341 681.867 925.013 680.302C924.613 678.403 924.334 676.482 924.178 674.548C924.175 673.914 924.026 673.289 923.745 672.721C923.463 672.152 923.056 671.656 922.554 671.268C921.689 670.583 920.929 669.748 920.124 668.973C919.647 668.526 919.751 667.944 919.826 667.408C919.93 666.826 920.452 667.065 920.795 667.065L934.568 667.139C935.433 667.139 936.133 667.288 936.148 668.332C936.163 669.077 936.655 669.033 937.192 669.077C943.795 669.42 950.399 669.405 957.017 669.405C957.718 669.405 958.135 669.197 958.478 668.585C959.223 667.244 960.103 665.947 960.863 664.59C961.504 663.398 962.13 662.28 963.844 662.697C964.604 662.876 964.738 662.369 964.738 661.699C964.738 657.48 964.709 653.247 964.738 649.013C964.768 648.074 964.157 647.97 963.546 647.702C957.106 644.944 951.054 641.59 946.12 636.522C942.051 632.348 939.562 627.534 939.919 621.467C940.098 618.545 939.934 615.579 939.949 612.627C939.949 606.352 944.123 602.193 950.428 602.193H981.523C987.113 602.193 992.762 607.872 992.583 613.432C992.434 618.053 992.867 622.674 992.002 627.25C990.765 633.913 987.038 639.011 981.717 643.036C979.031 645.118 976.019 646.74 972.803 647.836C972.072 648.074 971.878 648.432 971.893 649.148C971.923 653.321 971.938 657.495 971.893 661.669C971.878 662.578 972.192 662.891 973.026 662.742C974.368 662.519 975.098 663.13 975.709 664.322C976.589 666.051 977.394 668.228 978.87 669.092C980.301 669.912 982.566 669.346 984.474 669.346C988.171 669.375 991.868 669.316 995.565 669.42C996.832 669.465 997.681 669.211 998.158 667.974C998.352 667.467 998.725 667.035 999.41 667.05H1013.59Z" fill="#003B2F"/><path d="M965.007 681.464C970.224 681.464 975.441 681.494 980.628 681.464C981.717 681.434 982.238 681.598 982.194 682.865C982.128 684.083 981.677 685.247 980.905 686.191C980.133 687.134 979.081 687.807 977.901 688.112C977.2 688.262 976.902 687.74 976.499 687.397C973.533 684.893 973.533 684.893 971.044 687.844L968.778 690.497C967.034 692.555 964.813 692.42 963.412 690.155C962.517 688.694 961.653 687.218 960.773 685.742C960.386 685.116 959.924 684.729 959.059 684.669C956.45 684.505 956.376 684.416 955.526 686.875C955.109 688.142 954.528 688.232 953.469 687.77C951.934 687.114 950.339 686.622 948.938 685.698C948.401 685.355 948.043 685.012 948.014 684.267C947.909 681.405 947.864 681.42 950.726 681.42H965.007V681.464Z" fill="#003B2F"/><path d="M982.67 745.084C983.788 744.95 984.519 744.384 985.562 744.726C984.668 745.174 983.878 745.457 982.67 745.084ZM987.679 744.354C987.187 744.592 986.74 744.726 986.158 744.354H987.679ZM1105.72 678.081V678.751C1105.5 678.662 1105.1 678.751 1105.18 678.334C1105.21 678.215 1105.54 678.17 1105.72 678.081ZM1103.37 680.421C1103.37 679.974 1103.56 679.735 1104.04 679.765C1103.98 679.921 1103.9 680.062 1103.78 680.179C1103.66 680.295 1103.52 680.368 1103.37 680.421Z" fill="#426159"/><path d="M1103.37 680.436L1103.07 680.704L1102.95 680.525L1103.37 680.436ZM1098.45 685.206L1098.43 685.325C1098.39 685.355 1098.33 685.385 1098.28 685.37C1098.13 685.295 1098.13 685.221 1098.3 685.161L1098.45 685.206Z" fill="#426159"/><path d="M1104.35 679.392L1104.5 678.99L1104.66 679.124L1104.39 679.452L1104.35 679.392Z" fill="#426159"/><path d="M1104.04 679.75L1104.35 679.392L1104.41 679.437L1104.04 679.75Z" fill="#426159"/><path d="M1102.32 681.39L1102.49 681.181C1102.71 681.375 1102.49 681.39 1102.38 681.464L1102.32 681.405V681.39Z" fill="#426159"/><path d="M1102.38 681.449L1102.19 681.598C1102.24 681.534 1102.29 681.47 1102.34 681.405L1102.38 681.449ZM1101.52 682.18L1101.56 682.299L1101.46 682.284L1101.52 682.18ZM1100.61 683.044C1100.68 682.925 1100.76 682.746 1100.91 682.955L1100.71 683.149L1100.61 683.044Z" fill="#426159"/><path d="M1100.71 683.134L1100.5 683.268C1100.54 683.194 1100.58 683.119 1100.62 683.044L1100.71 683.134ZM1099.85 683.67L1099.8 683.581H1099.89L1099.85 683.67ZM1098.83 684.669L1098.79 684.58L1098.88 684.595L1098.83 684.669Z" fill="#426159"/><path d="M1518.71 825.51C1557.36 793.951 1563.09 737.065 1531.53 698.42C1499.97 659.775 1443.08 654.044 1404.44 685.603C1365.79 717.162 1360.06 774.048 1391.62 812.693C1423.18 851.338 1480.06 857.069 1518.71 825.51Z" fill="#03FC9D"/><path d="M1526.65 816.88C1565.3 785.321 1571.03 728.435 1539.47 689.79C1507.91 651.145 1451.03 645.414 1412.38 676.973C1373.73 708.532 1368 765.418 1399.56 804.063C1431.12 842.708 1488.01 848.439 1526.65 816.88Z" stroke="#003B2F" stroke-width="3" stroke-linecap="round" stroke-linejoin="round"/><path d="M1445.21 747.001C1445.98 746.823 1446.81 746.466 1447.64 746.143C1448.52 745.808 1449.35 745.357 1450.11 744.8C1450.58 744.452 1450.97 743.999 1451.02 743.386C1451.09 742.267 1450.86 741.186 1450.25 740.253C1449.3 738.797 1447.8 738.078 1446.23 737.485C1445.59 737.221 1444.89 737.099 1444.2 737.126C1443.51 737.152 1442.83 737.328 1442.21 737.64C1439.97 738.754 1438.2 741.557 1438.65 744.089C1438.85 745.203 1439.1 746.249 1440.02 747.028C1440.64 747.554 1441.24 747.967 1442.13 747.772C1443.12 747.557 1444.13 747.34 1445.21 747.001ZM1489.74 733.5C1490.29 733.378 1491.09 733.019 1491.92 732.707C1492.65 732.432 1493.31 732.049 1493.55 731.205C1493.89 730.024 1493.82 728.87 1493.31 727.767C1492.42 725.833 1490.8 724.777 1488.78 724.299C1487.17 723.916 1485.62 724.107 1484.25 725.129C1483.45 725.722 1482.91 726.539 1482.43 727.375C1481.57 728.863 1481.04 730.425 1481.43 732.175C1481.78 733.783 1482.71 734.535 1484.34 734.522C1486.09 734.507 1487.76 734.062 1489.74 733.5ZM1499.93 737.867C1499.63 736.876 1499.34 735.877 1498.74 735.021C1497.97 733.938 1498.08 733.894 1496.91 734.36C1495.33 734.995 1494.08 736.125 1492.86 737.275C1491.12 738.905 1489.55 740.688 1488.03 742.518C1486.8 744 1485.49 745.424 1484.55 747.123C1483.81 748.462 1483.21 749.846 1483.43 751.439C1483.5 751.932 1483.74 752.161 1484.29 752.13C1484.81 752.096 1485.32 752.046 1485.82 751.893C1487.72 751.318 1489.46 750.42 1491.15 749.425C1493.34 748.163 1495.37 746.646 1497.2 744.903C1498.4 743.73 1499.5 742.473 1500.23 740.94C1500.42 740.532 1500.54 740.146 1500.39 739.691C1500.2 739.091 1500.08 738.475 1499.93 737.867ZM1439.86 755.931C1440.02 756.345 1440.32 757.039 1440.52 757.763C1440.7 758.438 1441.17 758.783 1441.74 759.078C1444.13 760.287 1446.71 760.638 1449.34 760.81C1451.04 760.919 1452.75 760.888 1454.46 760.755C1456.17 760.617 1457.86 760.379 1459.52 759.929C1460.11 759.767 1460.67 759.525 1461.18 759.162C1461.61 758.855 1461.69 758.582 1461.47 758.135C1461.28 757.742 1461.03 757.381 1460.73 757.064C1459.55 755.834 1458.08 755.067 1456.49 754.564C1452.38 753.259 1448.25 752.044 1443.95 751.563C1442.64 751.417 1441.32 751.368 1440.03 751.779C1439.59 751.917 1439.46 752.155 1439.41 752.581C1439.29 753.63 1439.56 754.626 1439.86 755.931ZM1413.17 711.064C1412.88 711.109 1412.84 711.208 1412.77 711.836C1412.47 714.184 1412.87 716.464 1413.43 718.719C1413.81 720.105 1414.28 721.464 1414.85 722.785C1415.21 723.712 1415.62 724.62 1416.05 725.519C1417.16 727.829 1418.38 730.088 1419.69 732.289C1420.63 733.844 1421.61 735.383 1422.61 736.908C1423.43 738.171 1424.3 739.407 1425.15 740.652C1425.21 740.738 1425.28 740.848 1425.42 740.808C1425.53 740.775 1425.52 740.662 1425.55 740.575C1426.04 738.813 1426.54 737.054 1427.17 735.335C1427.97 733.195 1428.81 731.076 1429.87 729.043C1430.71 727.401 1431.59 725.769 1432.61 724.226C1433.55 722.785 1434.56 721.391 1435.64 720.05C1435.84 719.805 1435.79 719.68 1435.54 719.54C1434.33 718.857 1433.14 718.122 1431.91 717.474C1429.84 716.359 1427.72 715.33 1425.57 714.389C1424.01 713.704 1422.42 713.092 1420.8 712.554C1419.11 712.003 1417.37 711.579 1415.62 711.287C1414.81 711.145 1413.99 711.07 1413.17 711.064ZM1487.61 708.091C1487.94 708.403 1488.39 708.466 1488.78 708.674C1490.48 709.603 1492.23 710.463 1493.87 711.512C1496.54 713.227 1499.09 715.124 1501.5 717.191C1501.67 717.347 1501.79 717.64 1502.06 717.58C1502.13 717.56 1502.13 717.159 1502.14 716.931C1502.12 715.063 1502.16 713.197 1502.14 711.329C1502.11 709.208 1502.03 707.092 1501.86 704.983C1501.68 702.675 1501.43 700.376 1501.01 698.088C1500.73 696.568 1500.38 695.071 1499.99 693.58C1499.64 692.257 1499.08 690.996 1498.54 689.734C1498.49 689.663 1498.42 689.592 1498.38 689.506C1497.86 688.34 1497.14 687.265 1496.28 686.323C1495.86 685.845 1495.8 685.855 1495.29 686.264C1493.51 687.676 1491.89 689.283 1490.47 691.056C1488.24 693.833 1486.36 696.838 1484.61 699.937C1483.6 701.745 1482.66 703.588 1481.78 705.462C1481.65 705.744 1481.64 705.884 1481.99 706.008C1483.32 706.468 1484.65 706.918 1485.96 707.446C1486.5 707.667 1487.01 708.009 1487.61 708.091ZM1482.44 693.342C1483.33 691.761 1484.17 690.152 1485.15 688.618C1486.93 685.839 1488.93 683.244 1491.45 681.066C1493.08 679.65 1494.85 678.443 1496.88 677.652C1497.17 677.54 1497.37 677.538 1497.63 677.769C1498.76 678.753 1499.65 679.932 1500.43 681.196C1502.06 683.802 1503.05 686.662 1503.82 689.601C1504.45 692.004 1504.92 694.437 1505.29 696.897C1505.59 698.842 1505.81 700.796 1506.03 702.749C1506.12 703.494 1506.13 704.243 1506.25 704.982C1506.26 705.139 1506.24 705.292 1506.26 705.451C1506.46 708.017 1506.58 710.59 1506.67 713.165C1506.78 716.196 1506.85 719.227 1506.77 722.252C1506.75 723.144 1507.11 723.713 1507.64 724.311C1509.14 726.025 1510.86 727.551 1512.25 729.374C1513.23 730.669 1514.21 731.963 1515.12 733.319C1516.59 735.532 1517.89 737.842 1519.06 740.231C1520.39 742.954 1521.54 745.761 1522.51 748.635C1522.68 749.144 1523.05 749.597 1523.01 750.177C1522.28 750.281 1521.54 750.36 1520.82 750.501C1518.44 750.921 1516.12 751.582 1513.88 752.476C1511.31 753.529 1508.9 754.953 1506.74 756.703C1503.93 759.002 1501.67 761.778 1499.87 764.919C1499.39 765.768 1498.93 766.638 1498.45 767.535L1496.96 765.443C1495.55 763.482 1493.83 761.8 1492.2 760.039C1491.7 759.508 1491.15 759.044 1490.53 758.659C1488.38 757.29 1486.04 756.256 1483.58 755.595C1479.75 754.595 1475.93 754.816 1472.17 755.944C1470.24 756.564 1468.41 757.475 1466.75 758.647C1463.42 760.906 1461.12 763.987 1459.47 767.606C1458.86 768.929 1458.62 770.329 1458.27 771.704C1457.78 773.561 1457.41 775.451 1457.18 777.359L1456.86 780.179L1456.25 779.816C1450.47 776.368 1444.3 774.669 1437.5 775.648C1435 776.032 1432.54 776.706 1430.19 777.658C1429.01 778.12 1427.89 778.684 1426.77 779.244C1426.38 777.894 1426.09 776.514 1425.79 775.141C1425.39 773.341 1425.12 771.518 1424.89 769.69C1424.69 768.145 1424.57 766.586 1424.48 765.028C1424.34 762.529 1424.31 760.033 1424.44 757.532C1424.46 757.057 1424.56 756.561 1424.03 756.263C1424.01 756.25 1424.03 756.184 1424.03 756.101C1424.4 756.37 1424.52 756.268 1424.54 755.853C1424.71 753.416 1424.97 750.985 1425.32 748.568C1425.36 748.33 1425.37 748.103 1425.2 747.903C1423.63 745.938 1422.16 743.892 1420.81 741.772C1419.77 740.16 1418.76 738.53 1417.83 736.849C1417.15 735.636 1416.46 734.43 1415.78 733.222C1415.39 732.167 1414.8 731.2 1414.32 730.189C1412.79 727.024 1411.43 723.779 1410.25 720.468C1409.66 718.833 1409.14 717.174 1408.7 715.495C1408.16 713.424 1407.67 711.34 1407.59 709.191C1407.54 708.022 1407.59 706.853 1407.91 705.714C1408.27 704.404 1408.77 704.023 1410.12 703.833C1412.5 703.494 1414.79 703.864 1417.05 704.502C1420.06 705.352 1422.91 706.628 1425.67 708.078L1429 709.815C1429.08 709.871 1429.15 709.937 1429.23 709.983C1430.71 710.856 1432.21 711.711 1433.69 712.608C1435.78 713.876 1437.86 715.16 1439.92 716.476C1440.34 716.744 1440.61 716.723 1440.97 716.42C1443.32 714.51 1445.86 712.893 1448.55 711.496C1450.87 710.291 1453.31 709.374 1455.78 708.528C1459.32 707.324 1462.93 706.403 1466.64 705.921C1469.96 705.483 1473.3 705.337 1476.65 705.562C1477.4 705.613 1477.4 705.627 1477.65 704.88C1478.41 702.62 1479.29 700.407 1480.21 698.208C1480.89 696.563 1481.68 694.958 1482.44 693.342Z" fill="#426159"/><path d="M1493.31 799.855L1492.89 799.981C1493.08 800.032 1493.19 799.959 1493.31 799.855ZM1492.01 800.466C1492.37 800.464 1492.55 800.324 1492.76 800.13C1492.45 800.123 1492.3 800.34 1492.01 800.466ZM1482.06 784.777L1482.05 784.765L1478.21 785.932C1477.44 786.164 1477.45 786.162 1477.71 786.92C1477.78 787.118 1477.91 787.181 1478.08 787.23C1478.53 787.364 1479 787.366 1479.47 787.421C1479.79 787.455 1479.94 787.384 1479.95 787.012C1479.97 786.278 1480 786.295 1480.72 786.126C1480.96 786.071 1481.11 786.138 1481.27 786.275L1482.34 787.246C1482.9 787.742 1483.51 787.597 1483.82 786.9L1484.2 785.998C1484.63 785.003 1484.63 785.003 1485.64 785.435C1485.77 785.494 1485.9 785.615 1486.07 785.513C1486.37 785.335 1486.59 785.067 1486.72 784.75C1486.86 784.433 1486.88 784.083 1486.8 783.75C1486.71 783.405 1486.55 783.403 1486.26 783.496C1484.87 783.933 1483.46 784.351 1482.06 784.777ZM1493.96 776.925L1490.14 778.085C1489.96 778.141 1489.9 778.282 1489.88 778.436C1489.85 778.808 1489.64 778.947 1489.3 779.037C1488.3 779.311 1487.31 779.629 1486.31 779.923C1485.8 780.079 1485.23 780.417 1484.78 780.313C1484.31 780.202 1483.92 779.681 1483.54 779.287C1483.28 779.016 1483.03 778.915 1482.69 779.081C1482.47 779.19 1482.37 779.135 1482.3 778.889C1481.97 777.761 1481.62 776.639 1481.27 775.513C1481.21 775.321 1481.23 775.21 1481.4 775.087C1482.18 774.53 1482.86 773.847 1483.42 773.065C1484.52 771.547 1485.11 769.87 1484.9 767.975C1484.75 766.672 1484.26 765.46 1483.92 764.207C1483.52 762.695 1481.53 761.628 1480.03 762.085L1471.66 764.626C1469.96 765.141 1469.17 766.602 1469.69 768.291C1469.93 769.086 1470.21 769.872 1470.4 770.677C1470.8 772.336 1471.86 773.429 1473.3 774.224C1475.04 775.187 1476.95 775.589 1478.91 775.81C1479.09 775.832 1479.27 775.807 1479.34 776.061C1479.67 777.204 1480.02 778.343 1480.37 779.476C1480.43 779.657 1480.43 779.809 1480.21 779.816C1479.72 779.847 1479.64 780.198 1479.56 780.574C1479.47 781 1479.34 781.416 1479.25 781.843C1479.21 782.035 1479.12 782.129 1478.92 782.183C1477.14 782.723 1475.36 783.267 1473.56 783.711C1473.41 783.745 1473.28 783.795 1473.22 783.603C1473.13 783.318 1472.93 783.341 1472.69 783.411L1468.98 784.513C1468.89 784.541 1468.73 784.519 1468.75 784.683C1468.77 784.835 1468.79 785 1468.95 785.085C1469.23 785.224 1469.51 785.387 1469.79 785.501C1469.96 785.564 1470.11 785.665 1470.23 785.795C1470.36 785.925 1470.45 786.081 1470.5 786.251C1470.69 786.763 1470.94 787.249 1471.2 787.731C1471.41 788.132 1471.58 788.22 1471.97 787.957C1472.22 787.789 1472.53 787.657 1472.71 788.099C1472.97 788.705 1473.36 789.237 1473.74 789.77C1474.25 790.482 1474.8 791.169 1475.51 791.686C1475.91 790.919 1475.76 790.209 1475.5 789.454C1475.03 788.064 1474.63 786.65 1474.2 785.229C1474.41 785.191 1474.64 785.129 1474.88 785.112C1476.87 784.922 1478.82 784.484 1480.75 783.976C1483.86 783.141 1486.87 781.983 1489.73 780.52C1490.05 780.356 1490.13 780.41 1490.22 780.738C1490.63 782.188 1491.08 783.627 1491.49 785.071C1491.68 785.741 1492.27 786.007 1492.75 786.485L1493.05 782.392C1493.11 781.629 1493.1 781.617 1493.84 781.399C1494.04 781.337 1494.21 781.286 1494.19 781.015L1493.96 776.925ZM1519.42 772.845L1519.47 772.735L1519.41 772.709L1519.4 772.838C1519.39 772.878 1519.37 772.918 1519.35 772.958C1519.22 772.989 1519.18 773.071 1519.22 773.19L1519.12 773.252L1519.17 773.29L1519.22 773.19C1519.26 773.163 1519.29 773.131 1519.32 773.091C1519.34 773.05 1519.35 773.005 1519.35 772.958L1519.42 772.845ZM1519.76 772.571C1519.17 773.9 1518.49 775.186 1517.72 776.421C1515.98 779.338 1514.01 782.111 1511.83 784.713C1509.52 787.478 1507.02 790.057 1504.32 792.446C1502.41 794.138 1500.41 795.721 1498.32 797.173C1496.28 798.578 1494.16 799.837 1491.94 800.94C1489.48 802.186 1486.87 803.102 1484.17 803.666C1481.79 804.144 1479.37 804.38 1476.94 804.371C1476.28 804.373 1475.62 804.338 1474.97 804.313C1473.92 804.279 1472.87 804.235 1471.83 804.178C1470.4 804.095 1469 803.888 1467.59 803.698C1460.47 802.749 1453.52 800.795 1446.96 797.894C1442.21 795.793 1437.73 793.261 1433.81 789.83C1431.85 788.155 1430.15 786.202 1428.75 784.033C1427.83 782.559 1427.16 780.94 1426.77 779.245C1427.89 778.684 1429.01 778.12 1430.19 777.659C1432.54 776.707 1434.99 776.033 1437.5 775.649C1444.3 774.669 1450.47 776.367 1456.25 779.819L1456.86 780.179L1457.19 777.358C1457.4 775.447 1457.79 773.568 1458.27 771.704C1458.62 770.325 1458.87 768.928 1459.47 767.61C1461.12 763.987 1463.41 760.908 1466.75 758.651C1468.41 757.477 1470.24 756.564 1472.17 755.944C1475.94 754.815 1479.75 754.595 1483.58 755.595C1486.06 756.243 1488.36 757.306 1490.53 758.663C1491.15 759.046 1491.71 759.509 1492.2 760.039C1493.83 761.8 1495.55 763.482 1496.96 765.448L1498.45 767.535C1498.93 766.642 1499.38 765.769 1499.87 764.919C1501.64 761.783 1503.97 759 1506.74 756.708C1508.9 754.956 1511.31 753.532 1513.88 752.479C1516.12 751.585 1518.45 750.924 1520.82 750.504C1521.54 750.36 1522.28 750.281 1523.01 750.177C1523.32 751.079 1523.52 752.008 1523.66 752.953C1524.03 755.527 1524.02 758.14 1523.63 760.711C1523.42 762.132 1523.03 763.505 1522.69 764.897C1522.04 767.38 1521.15 769.793 1520.03 772.102C1520.01 772.163 1519.97 772.211 1519.93 772.264C1519.8 772.099 1520.01 771.924 1519.93 771.719C1519.79 771.943 1519.61 772.109 1519.67 772.367C1519.63 772.406 1519.54 772.445 1519.54 772.479C1519.55 772.595 1519.65 772.543 1519.72 772.548L1519.76 772.571Z" fill="#FFFEFE"/><path d="M1413.17 711.064C1413.97 711.059 1414.8 711.153 1415.62 711.287C1417.37 711.573 1419.1 712.008 1420.8 712.554C1422.42 713.078 1424 713.721 1425.57 714.392C1427.74 715.313 1429.83 716.378 1431.91 717.475C1433.14 718.122 1434.33 718.852 1435.54 719.541C1435.79 719.681 1435.84 719.801 1435.64 720.05C1433.4 722.832 1431.46 725.848 1429.87 729.047C1428.81 731.076 1427.97 733.195 1427.18 735.335C1426.54 737.054 1426.04 738.813 1425.55 740.575C1425.52 740.662 1425.53 740.775 1425.42 740.808C1425.29 740.848 1425.21 740.738 1425.15 740.656C1424.3 739.407 1423.43 738.171 1422.61 736.908C1421.61 735.385 1420.64 733.845 1419.69 732.289C1418.38 730.088 1417.16 727.829 1416.05 725.519C1415.62 724.62 1415.22 723.711 1414.85 722.785C1414.28 721.464 1413.8 720.106 1413.43 718.719C1412.87 716.464 1412.47 714.184 1412.77 711.836C1412.84 711.208 1412.88 711.109 1413.17 711.064Z" fill="#14483D"/><path d="M1498.54 689.734C1499.08 690.995 1499.64 692.257 1499.99 693.581C1500.38 695.071 1500.73 696.569 1501.01 698.092C1501.43 700.375 1501.68 702.675 1501.86 704.983C1502.03 707.093 1502.11 709.208 1502.14 711.329C1502.16 713.197 1502.13 715.063 1502.14 716.931C1502.14 717.159 1502.13 717.564 1502.06 717.582C1501.79 717.64 1501.68 717.346 1501.5 717.191C1499.09 715.119 1496.54 713.221 1493.87 711.511C1492.23 710.463 1490.48 709.602 1488.78 708.674C1488.39 708.462 1487.94 708.403 1487.61 708.091C1487.65 707.959 1487.73 707.836 1487.75 707.697C1487.95 706.325 1488.25 704.974 1488.59 703.628C1489.11 701.595 1489.76 699.608 1490.66 697.714C1491.61 695.723 1492.8 693.888 1494.41 692.354C1495.62 691.218 1496.95 690.278 1498.54 689.734Z" fill="#14483D"/><path d="M1439.86 755.923C1439.56 754.621 1439.29 753.624 1439.41 752.573C1439.45 752.151 1439.59 751.913 1440.03 751.775C1441.32 751.364 1442.64 751.413 1443.95 751.559C1448.25 752.04 1452.38 753.254 1456.49 754.56C1458.08 755.063 1459.55 755.831 1460.72 757.06C1461.03 757.38 1461.28 757.734 1461.47 758.131C1461.69 758.577 1461.61 758.857 1461.18 759.162C1460.67 759.521 1460.11 759.763 1459.52 759.929C1457.86 760.362 1456.16 760.637 1454.46 760.751C1452.75 760.892 1451.04 760.91 1449.33 760.806C1446.71 760.638 1444.13 760.283 1441.74 759.074C1441.17 758.779 1440.7 758.434 1440.51 757.76C1440.31 757.035 1440.02 756.341 1439.87 755.926L1439.86 755.923Z" fill="#003B2F"/><path d="M1499.93 737.867C1500.08 738.471 1500.2 739.091 1500.39 739.686C1500.53 740.147 1500.42 740.532 1500.23 740.936C1499.5 742.473 1498.4 743.726 1497.2 744.9C1495.37 746.642 1493.34 748.159 1491.15 749.421C1489.46 750.416 1487.71 751.311 1485.82 751.889C1485.32 752.042 1484.8 752.093 1484.29 752.126C1483.74 752.161 1483.5 751.928 1483.43 751.435C1483.2 749.838 1483.81 748.458 1484.55 747.115C1485.48 745.421 1486.8 743.996 1488.03 742.514C1489.55 740.69 1491.12 738.903 1492.85 737.271C1494.08 736.12 1495.33 734.991 1496.91 734.356C1498.07 733.891 1497.97 733.939 1498.74 735.017C1499.34 735.873 1499.62 736.873 1499.93 737.863L1499.93 737.867Z" fill="#003B2F"/><path d="M1498.54 689.734C1496.95 690.278 1495.62 691.218 1494.41 692.355C1492.8 693.888 1491.6 695.723 1490.66 697.714C1489.76 699.608 1489.11 701.595 1488.59 703.628C1488.24 704.97 1487.96 706.328 1487.74 707.698C1487.72 707.836 1487.65 707.96 1487.6 708.093C1487.01 708.01 1486.5 707.669 1485.96 707.451C1484.65 706.919 1483.32 706.469 1481.99 706.01C1481.63 705.885 1481.64 705.746 1481.78 705.46C1482.66 703.591 1483.6 701.743 1484.61 699.941C1486.35 696.84 1488.24 693.833 1490.47 691.052C1491.89 689.284 1493.5 687.679 1495.29 686.264C1495.8 685.859 1495.86 685.845 1496.28 686.318C1497.13 687.282 1497.87 688.322 1498.38 689.507C1498.42 689.592 1498.49 689.659 1498.54 689.736L1498.54 689.734Z" fill="#2D5349"/><path d="M1489.74 733.5C1487.76 734.063 1486.09 734.508 1484.34 734.522C1482.71 734.535 1481.78 733.783 1481.42 732.176C1481.04 730.421 1481.57 728.859 1482.43 727.375C1482.91 726.539 1483.45 725.722 1484.25 725.129C1485.62 724.109 1487.17 723.916 1488.78 724.299C1490.8 724.781 1492.41 725.835 1493.31 727.767C1493.82 728.87 1493.89 730.025 1493.55 731.206C1493.31 732.05 1492.65 732.434 1491.92 732.707C1491.09 733.015 1490.28 733.379 1489.74 733.5ZM1445.21 747.001C1444.12 747.346 1443.12 747.554 1442.12 747.773C1441.24 747.967 1440.64 747.554 1440.02 747.028C1439.1 746.249 1438.85 745.204 1438.65 744.089C1438.2 741.557 1439.97 738.754 1442.21 737.64C1443.5 736.998 1444.86 736.963 1446.23 737.481C1447.8 738.078 1449.3 738.797 1450.25 740.249C1450.86 741.186 1451.09 742.271 1451.02 743.39C1450.97 744 1450.58 744.452 1450.11 744.8C1449.35 745.357 1448.52 745.809 1447.64 746.144C1446.8 746.467 1445.98 746.822 1445.21 747.001Z" fill="#FFFEFE"/><path d="M1519.67 772.371C1519.61 772.108 1519.79 771.945 1519.93 771.719C1520.01 771.924 1519.8 772.099 1519.93 772.264L1519.93 772.292L1519.67 772.371Z" fill="#426159"/><path d="M1519.67 772.371L1519.9 772.301C1519.89 772.413 1519.86 772.513 1519.75 772.573L1519.72 772.548L1519.67 772.371Z" fill="#FFFEFE"/><path d="M1493.96 776.926L1494.19 781.019C1494.21 781.286 1494.04 781.338 1493.83 781.401C1493.11 781.621 1493.11 781.625 1493.05 782.392L1492.75 786.486C1492.27 786.008 1491.68 785.741 1491.48 785.072C1491.08 783.627 1490.63 782.188 1490.22 780.738C1490.13 780.412 1490.05 780.352 1489.73 780.52C1486.85 781.964 1483.87 783.158 1480.75 783.976C1478.83 784.515 1476.86 784.894 1474.87 785.112C1474.64 785.131 1474.41 785.191 1474.2 785.229C1474.63 786.646 1475.03 788.064 1475.5 789.454C1475.76 790.209 1475.91 790.919 1475.51 791.686C1474.82 791.144 1474.22 790.498 1473.74 789.77C1473.36 789.237 1472.97 788.705 1472.71 788.1C1472.53 787.653 1472.22 787.789 1471.97 787.959C1471.58 788.22 1471.41 788.127 1471.2 787.732C1470.93 787.254 1470.7 786.759 1470.5 786.251C1470.45 786.081 1470.36 785.925 1470.23 785.795C1470.11 785.665 1469.96 785.564 1469.79 785.501C1469.51 785.387 1469.23 785.224 1468.95 785.082C1468.79 785 1468.77 784.835 1468.74 784.685C1468.73 784.52 1468.89 784.541 1468.98 784.513L1472.69 783.408C1472.92 783.337 1473.13 783.32 1473.22 783.6C1473.28 783.799 1473.41 783.747 1473.56 783.715C1475.36 783.268 1477.14 782.724 1478.92 782.183C1479.11 782.126 1479.21 782.036 1479.25 781.843C1479.34 781.421 1479.47 781 1479.56 780.573C1479.64 780.199 1479.72 779.847 1480.21 779.819C1480.43 779.805 1480.43 779.658 1480.37 779.477C1480.03 778.342 1479.67 777.204 1479.33 776.062C1479.27 775.807 1479.09 775.829 1478.91 775.806C1476.95 775.59 1475.04 775.182 1473.3 774.22C1471.86 773.429 1470.8 772.336 1470.4 770.674C1470.21 769.872 1469.92 769.087 1469.69 768.291C1469.17 766.602 1469.96 765.141 1471.66 764.626L1480.03 762.085C1481.53 761.628 1483.52 762.695 1483.92 764.207C1484.26 765.463 1484.75 766.672 1484.9 767.975C1485.11 769.87 1484.52 771.547 1483.42 773.065C1482.86 773.845 1482.19 774.528 1481.41 775.086C1481.23 775.21 1481.21 775.322 1481.27 775.514C1481.62 776.635 1481.97 777.757 1482.29 778.885C1482.36 779.131 1482.47 779.189 1482.69 779.081C1483.03 778.911 1483.28 779.016 1483.54 779.287C1483.92 779.681 1484.31 780.201 1484.78 780.313C1485.23 780.417 1485.8 780.079 1486.31 779.923C1487.31 779.629 1488.3 779.311 1489.3 779.037C1489.65 778.946 1489.85 778.808 1489.88 778.436C1489.89 778.284 1489.96 778.137 1490.14 778.085L1493.96 776.926Z" fill="#003B2F"/><path d="M1482.06 784.777C1483.46 784.351 1484.87 783.932 1486.26 783.5C1486.55 783.403 1486.71 783.405 1486.8 783.75C1486.88 784.083 1486.85 784.433 1486.72 784.75C1486.59 785.067 1486.37 785.335 1486.07 785.513C1485.9 785.611 1485.77 785.495 1485.64 785.435C1484.63 785.003 1484.63 785.003 1484.2 786.001L1483.81 786.901C1483.51 787.597 1482.9 787.743 1482.34 787.247C1481.98 786.927 1481.62 786.6 1481.27 786.275C1481.11 786.138 1480.96 786.071 1480.72 786.126C1480 786.295 1479.98 786.277 1479.95 787.008C1479.94 787.384 1479.79 787.455 1479.47 787.417C1479 787.366 1478.53 787.364 1478.08 787.23C1477.9 787.181 1477.78 787.118 1477.71 786.92C1477.45 786.158 1477.44 786.166 1478.21 785.932L1482.05 784.765L1482.06 784.777Z" fill="#003B2F"/><path d="M1492.01 800.462C1492.3 800.335 1492.45 800.123 1492.76 800.13C1492.56 800.323 1492.37 800.464 1492.01 800.462ZM1493.3 799.856C1493.19 799.961 1493.08 800.033 1492.89 799.98L1493.3 799.856ZM1519.67 772.367L1519.72 772.548C1519.65 772.542 1519.55 772.599 1519.54 772.479C1519.54 772.445 1519.63 772.406 1519.67 772.367ZM1519.22 773.19C1519.19 773.069 1519.22 772.989 1519.35 772.958C1519.35 773.005 1519.34 773.05 1519.32 773.091C1519.29 773.131 1519.26 773.163 1519.22 773.19Z" fill="#426159"/><path d="M1519.22 773.194L1519.17 773.29L1519.12 773.252L1519.22 773.194ZM1518.29 774.88L1518.3 774.913C1518.29 774.925 1518.27 774.938 1518.26 774.938C1518.21 774.93 1518.21 774.91 1518.25 774.88L1518.29 774.88Z" fill="#426159"/><path d="M1519.4 772.832L1519.41 772.712L1519.47 772.734L1519.42 772.845L1519.4 772.832Z" fill="#426159"/><path d="M1519.35 772.954L1519.4 772.832L1519.42 772.84L1519.35 772.954Z" fill="#426159"/><path d="M1519.02 773.536L1519.05 773.466C1519.13 773.5 1519.07 773.522 1519.04 773.551L1519.02 773.54L1519.02 773.536Z" fill="#426159"/><path d="M1519.04 773.547L1519 773.603C1519.01 773.582 1519.02 773.56 1519.03 773.539L1519.04 773.547ZM1518.87 773.815L1518.89 773.843L1518.86 773.847L1518.87 773.815ZM1518.7 774.122C1518.71 774.083 1518.71 774.029 1518.77 774.073L1518.73 774.141L1518.7 774.122Z" fill="#426159"/><path d="M1518.73 774.137L1518.69 774.19C1518.69 774.167 1518.7 774.144 1518.7 774.12L1518.73 774.137ZM1518.54 774.352L1518.52 774.332L1518.55 774.324L1518.54 774.352ZM1518.35 774.704L1518.33 774.683L1518.36 774.68L1518.35 774.704Z" fill="#426159"/><path d="M1577.49 246.165C1612.58 239.842 1635.89 206.279 1629.57 171.185C1623.25 136.091 1589.68 112.783 1554.59 119.106C1519.49 125.428 1496.18 158.991 1502.51 194.086C1508.83 229.18 1542.39 252.487 1577.49 246.165Z" fill="#03FC9D"/><path d="M1585.45 243.526C1620.54 237.203 1643.85 203.64 1637.53 168.546C1631.2 133.451 1597.64 110.144 1562.54 116.467C1527.45 122.789 1504.14 156.352 1510.46 191.447C1516.79 226.541 1550.35 249.848 1585.45 243.526Z" stroke="#003B2F" stroke-width="3" stroke-linecap="round" stroke-linejoin="round"/><path d="M1558.78 171.616C1559.32 171.769 1559.96 171.833 1560.59 171.92C1561.26 172.017 1561.94 172.023 1562.61 171.939C1563.02 171.884 1563.42 171.738 1563.66 171.369C1564.1 170.696 1564.32 169.939 1564.27 169.145C1564.18 167.905 1563.49 166.935 1562.71 166.021C1562.4 165.633 1562.01 165.317 1561.57 165.093C1561.13 164.869 1560.64 164.743 1560.15 164.723C1558.36 164.643 1556.28 165.781 1555.69 167.52C1555.43 168.286 1555.22 169.026 1555.52 169.83C1555.73 170.374 1555.96 170.841 1556.58 171.027C1557.28 171.238 1557.98 171.451 1558.78 171.616ZM1591.29 178.618C1591.67 178.731 1592.3 178.787 1592.93 178.878C1593.48 178.96 1594.02 178.948 1594.46 178.504C1595.09 177.883 1595.44 177.139 1595.51 176.272C1595.62 174.754 1594.98 173.533 1593.88 172.534C1593 171.736 1591.97 171.321 1590.76 171.483C1590.06 171.577 1589.44 171.9 1588.84 172.254C1587.79 172.886 1586.92 173.68 1586.55 174.908C1586.21 176.033 1586.53 176.826 1587.56 177.383C1588.66 177.982 1589.86 178.282 1591.29 178.618ZM1596.14 184.88C1596.3 184.157 1596.46 183.432 1596.38 182.688C1596.28 181.747 1596.36 181.754 1595.48 181.643C1594.26 181.49 1593.09 181.761 1591.93 182.057C1590.28 182.476 1588.68 183.045 1587.09 183.661C1585.81 184.161 1584.5 184.596 1583.32 185.333C1582.4 185.913 1581.54 186.568 1581.13 187.642C1581 187.972 1581.07 188.199 1581.42 188.371C1581.76 188.528 1582.09 188.674 1582.46 188.754C1583.85 189.051 1585.25 189.095 1586.65 189.06C1588.45 189.03 1590.25 188.785 1591.99 188.33C1593.16 188.016 1594.28 187.61 1595.27 186.906C1595.53 186.716 1595.73 186.515 1595.8 186.18C1595.89 185.739 1596.03 185.312 1596.14 184.88ZM1552.34 175.342C1552.29 175.654 1552.24 176.191 1552.11 176.713C1552 177.2 1552.17 177.577 1552.43 177.96C1553.5 179.543 1554.99 180.658 1556.57 181.676C1557.6 182.335 1558.67 182.907 1559.79 183.416C1560.91 183.924 1562.05 184.362 1563.24 184.655C1563.66 184.759 1564.1 184.804 1564.54 184.752C1564.92 184.71 1565.06 184.566 1565.08 184.212C1565.1 183.899 1565.07 183.586 1564.99 183.284C1564.68 182.107 1564.02 181.117 1563.2 180.251C1561.09 178.012 1558.93 175.822 1556.41 174.028C1555.64 173.482 1554.84 172.997 1553.88 172.804C1553.56 172.738 1553.4 172.84 1553.22 173.09C1552.78 173.704 1552.6 174.421 1552.34 175.342ZM1551.22 138.047C1551.02 137.974 1550.96 138.023 1550.7 138.389C1549.7 139.752 1549.16 141.317 1548.72 142.919C1548.48 143.917 1548.3 144.93 1548.2 145.952C1548.11 146.659 1548.05 147.366 1548 148.078C1547.9 149.907 1547.87 151.741 1547.93 153.573C1547.98 154.871 1548.06 156.172 1548.16 157.471C1548.23 158.545 1548.34 159.618 1548.44 160.691C1548.45 160.767 1548.46 160.86 1548.56 160.881C1548.64 160.898 1548.67 160.826 1548.72 160.781C1549.64 159.85 1550.56 158.923 1551.55 158.07C1552.79 157.009 1554.05 155.978 1555.42 155.072C1556.52 154.339 1557.63 153.622 1558.8 153.013C1559.89 152.439 1561.01 151.918 1562.14 151.454C1562.35 151.37 1562.37 151.275 1562.26 151.101C1561.74 150.253 1561.25 149.382 1560.7 148.55C1559.8 147.135 1558.83 145.759 1557.81 144.423C1557.07 143.454 1556.29 142.52 1555.47 141.623C1554.6 140.691 1553.66 139.825 1552.67 139.034C1552.21 138.665 1551.73 138.335 1551.22 138.047ZM1598.77 161.998C1598.86 162.308 1599.13 162.506 1599.3 162.769C1600.04 163.94 1600.83 165.082 1601.49 166.307C1602.57 168.305 1603.5 170.375 1604.29 172.502C1604.35 172.661 1604.32 172.885 1604.51 172.941C1604.56 172.952 1604.7 172.703 1604.78 172.561C1605.42 171.39 1606.09 170.237 1606.72 169.06C1607.44 167.724 1608.13 166.376 1608.75 164.999C1609.44 163.495 1610.08 161.97 1610.61 160.395C1610.97 159.349 1611.26 158.291 1611.54 157.225C1611.78 156.277 1611.86 155.292 1611.96 154.318C1611.96 154.255 1611.94 154.186 1611.95 154.12C1612.02 153.209 1611.95 152.291 1611.73 151.401C1611.64 150.958 1611.6 150.942 1611.13 151.021C1609.53 151.286 1607.97 151.731 1606.46 152.347C1604.11 153.309 1601.89 154.532 1599.72 155.863C1598.46 156.644 1597.24 157.469 1596.04 158.337C1595.86 158.466 1595.8 158.549 1595.98 158.75C1596.65 159.498 1597.33 160.242 1597.96 161.025C1598.22 161.351 1598.42 161.741 1598.77 161.998ZM1600.65 150.989C1601.76 150.31 1602.84 149.595 1603.98 148.977C1606.06 147.856 1608.21 146.931 1610.54 146.441C1612.05 146.122 1613.57 145.98 1615.11 146.189C1615.34 146.222 1615.46 146.289 1615.54 146.524C1615.91 147.532 1616.05 148.575 1616.11 149.638C1616.22 151.829 1615.85 153.96 1615.31 156.064C1614.87 157.785 1614.32 159.47 1613.7 161.136C1613.21 162.453 1612.67 163.751 1612.13 165.049C1611.93 165.544 1611.68 166.018 1611.5 166.521C1611.45 166.621 1611.38 166.712 1611.34 166.815C1610.58 168.491 1609.76 170.139 1608.92 171.781C1607.94 173.713 1606.93 175.629 1605.83 177.494C1605.51 178.043 1605.54 178.525 1605.66 179.082C1606.01 180.674 1606.55 182.223 1606.79 183.843C1606.95 184.995 1607.12 186.143 1607.21 187.304C1607.37 189.198 1607.38 191.093 1607.28 192.991C1607.17 195.154 1606.91 197.308 1606.52 199.438C1606.45 199.815 1606.52 200.227 1606.3 200.577C1605.81 200.389 1605.32 200.182 1604.82 200.019C1603.19 199.458 1601.51 199.065 1599.8 198.847C1597.82 198.613 1595.82 198.668 1593.87 199.013C1591.31 199.476 1588.94 200.428 1586.73 201.767C1586.13 202.129 1585.54 202.515 1584.93 202.907L1584.73 201.085C1584.53 199.371 1584.03 197.722 1583.62 196.055C1583.5 195.552 1583.31 195.069 1583.06 194.616C1582.19 193.015 1581.08 191.555 1579.78 190.288C1577.73 188.337 1575.27 187.151 1572.53 186.552C1571.1 186.268 1569.64 186.204 1568.2 186.36C1565.34 186.618 1562.83 187.748 1560.54 189.435C1559.71 190.052 1559.07 190.845 1558.38 191.581C1557.42 192.571 1556.54 193.626 1555.73 194.738L1554.55 196.388L1554.3 195.95C1551.88 191.791 1548.62 188.59 1544.03 186.846C1542.33 186.216 1540.56 185.786 1538.76 185.566C1537.87 185.447 1536.97 185.41 1536.07 185.371C1536.3 184.392 1536.59 183.428 1536.88 182.466C1537.26 181.205 1537.72 179.97 1538.21 178.748C1538.63 177.715 1539.09 176.699 1539.57 175.693C1540.35 174.081 1541.2 172.514 1542.15 170.994C1542.32 170.704 1542.56 170.43 1542.33 170.058C1542.32 170.045 1542.36 170.009 1542.39 169.957C1542.52 170.254 1542.63 170.231 1542.79 169.98C1543.74 168.514 1544.75 167.085 1545.81 165.698C1545.91 165.561 1545.99 165.423 1545.96 165.241C1545.66 163.469 1545.45 161.681 1545.34 159.886C1545.25 158.517 1545.18 157.148 1545.19 155.774C1545.19 154.784 1545.17 153.791 1545.17 152.799C1545.28 152.003 1545.26 151.197 1545.31 150.398C1545.45 147.889 1545.72 145.39 1546.13 142.91C1546.33 141.685 1546.58 140.469 1546.88 139.264C1547.26 137.782 1547.68 136.312 1548.38 134.941C1548.75 134.194 1549.19 133.481 1549.78 132.879C1550.46 132.185 1550.91 132.122 1551.82 132.471C1553.42 133.082 1554.72 134.107 1555.91 135.289C1557.51 136.867 1558.84 138.65 1560.06 140.514L1561.54 142.755C1561.57 142.816 1561.59 142.882 1561.63 142.938C1562.25 143.999 1562.89 145.053 1563.5 146.126C1564.37 147.643 1565.23 149.167 1566.06 150.704C1566.23 151.016 1566.4 151.097 1566.74 151.034C1568.86 150.655 1571.01 150.525 1573.18 150.583C1575.04 150.635 1576.89 150.909 1578.73 151.237C1581.35 151.71 1583.93 152.387 1586.42 153.372C1588.64 154.25 1590.78 155.317 1592.79 156.618C1593.25 156.912 1593.24 156.919 1593.66 156.54C1594.92 155.391 1596.23 154.313 1597.57 153.257C1598.57 152.466 1599.62 151.735 1600.65 150.989Z" fill="#426159"/><path d="M1570.51 221.323L1570.21 221.258C1570.31 221.356 1570.4 221.349 1570.51 221.323ZM1569.49 221.257C1569.71 221.378 1569.88 221.355 1570.07 221.306C1569.88 221.194 1569.71 221.277 1569.49 221.257ZM1568.71 208L1568.71 207.991L1565.9 207.387C1565.34 207.267 1565.35 207.268 1565.25 207.832C1565.22 207.98 1565.28 208.062 1565.37 208.153C1565.61 208.393 1565.9 208.558 1566.17 208.754C1566.36 208.887 1566.48 208.894 1566.61 208.666C1566.88 208.214 1566.9 208.236 1567.4 208.378C1567.57 208.427 1567.64 208.522 1567.69 208.662L1568.03 209.641C1568.21 210.145 1568.64 210.266 1569.07 209.936L1569.62 209.506C1570.24 209.034 1570.24 209.034 1570.72 209.652C1570.78 209.737 1570.82 209.855 1570.96 209.852C1571.21 209.842 1571.44 209.754 1571.63 209.601C1571.82 209.448 1571.96 209.239 1572.03 209.002C1572.09 208.755 1571.99 208.701 1571.78 208.657C1570.75 208.446 1569.73 208.22 1568.71 208ZM1578.87 207.221L1576.08 206.621C1575.95 206.592 1575.86 206.659 1575.8 206.75C1575.65 206.973 1575.47 206.986 1575.22 206.924C1574.5 206.747 1573.77 206.603 1573.05 206.441C1572.67 206.36 1572.2 206.375 1571.96 206.154C1571.7 205.921 1571.64 205.459 1571.54 205.082C1571.47 204.822 1571.35 204.674 1571.08 204.658C1570.9 204.652 1570.86 204.58 1570.9 204.402C1571.08 203.584 1571.26 202.762 1571.43 201.938C1571.46 201.797 1571.51 201.734 1571.66 201.718C1572.34 201.64 1573 201.449 1573.62 201.152C1574.83 200.585 1575.78 199.741 1576.31 198.483C1576.67 197.62 1576.78 196.69 1577.01 195.791C1577.28 194.706 1576.41 193.35 1575.31 193.114L1569.19 191.799C1567.95 191.532 1566.96 192.173 1566.69 193.407C1566.57 193.987 1566.47 194.577 1566.31 195.147C1565.99 196.321 1566.27 197.373 1566.89 198.369C1567.65 199.573 1568.7 200.487 1569.85 201.303C1569.96 201.382 1570.07 201.425 1570.03 201.609C1569.84 202.44 1569.67 203.273 1569.49 204.103C1569.47 204.235 1569.41 204.331 1569.27 204.258C1568.95 204.107 1568.79 204.301 1568.6 204.507C1568.4 204.742 1568.18 204.957 1567.97 205.192C1567.88 205.297 1567.79 205.324 1567.65 205.291C1566.35 205.012 1565.05 204.735 1563.76 204.385C1563.66 204.357 1563.56 204.342 1563.59 204.201C1563.63 203.993 1563.5 203.936 1563.33 203.899L1560.62 203.299C1560.56 203.285 1560.46 203.216 1560.42 203.326C1560.38 203.428 1560.34 203.538 1560.41 203.649C1560.54 203.832 1560.65 204.029 1560.79 204.2C1560.88 204.297 1560.93 204.412 1560.97 204.536C1561 204.66 1561 204.789 1560.97 204.914C1560.92 205.3 1560.9 205.689 1560.9 206.081C1560.89 206.404 1560.97 206.518 1561.3 206.489C1561.52 206.471 1561.75 206.495 1561.72 206.836C1561.67 207.304 1561.72 207.77 1561.78 208.235C1561.85 208.858 1561.96 209.479 1562.22 210.048C1562.74 209.708 1562.89 209.21 1562.99 208.649C1563.17 207.616 1563.42 206.595 1563.64 205.558C1563.79 205.607 1563.95 205.649 1564.1 205.718C1565.42 206.292 1566.79 206.694 1568.17 207.047C1570.4 207.602 1572.68 207.921 1574.98 207.999C1575.24 208.009 1575.27 208.071 1575.21 208.307C1574.96 209.354 1574.74 210.408 1574.5 211.453C1574.39 211.938 1574.66 212.31 1574.8 212.774L1576.4 210.321C1576.7 209.864 1576.71 209.855 1577.24 209.973C1577.39 210.005 1577.51 210.031 1577.6 209.856L1578.87 207.221ZM1596.2 213.498L1596.26 213.445L1596.23 213.408L1596.19 213.487C1596.16 213.506 1596.14 213.526 1596.11 213.545C1596.02 213.519 1595.97 213.557 1595.95 213.645L1595.87 213.648L1595.88 213.689L1595.95 213.645C1595.99 213.642 1596.02 213.633 1596.04 213.615C1596.07 213.597 1596.1 213.573 1596.11 213.545L1596.2 213.498ZM1596.5 213.445C1595.67 214.071 1594.8 214.638 1593.89 215.143C1591.79 216.364 1589.6 217.414 1587.34 218.283C1584.93 219.211 1582.48 219.954 1579.96 220.51C1578.18 220.907 1576.38 221.204 1574.57 221.384C1572.81 221.558 1571.05 221.608 1569.28 221.527C1567.31 221.453 1565.36 221.12 1563.48 220.537C1561.82 220.01 1560.23 219.317 1558.71 218.47C1558.3 218.244 1557.9 217.991 1557.5 217.749C1556.86 217.365 1556.22 216.975 1555.59 216.577C1554.72 216.029 1553.92 215.415 1553.11 214.808C1548.99 211.747 1545.32 208.117 1542.22 204.026C1539.99 201.068 1538.06 197.931 1536.81 194.429C1536.16 192.703 1535.77 190.891 1535.65 189.052C1535.59 187.81 1535.73 186.566 1536.07 185.37C1536.97 185.41 1537.87 185.447 1538.76 185.565C1540.56 185.786 1542.33 186.215 1544.03 186.845C1548.61 188.59 1551.88 191.792 1554.3 195.954L1554.55 196.389L1555.74 194.739C1556.53 193.62 1557.43 192.579 1558.37 191.581C1559.07 190.842 1559.71 190.053 1560.54 189.439C1562.83 187.748 1565.33 186.618 1568.2 186.363C1569.64 186.205 1571.1 186.269 1572.53 186.552C1575.27 187.152 1577.73 188.337 1579.77 190.288C1581.1 191.555 1582.17 193.018 1583.06 194.619C1583.31 195.072 1583.5 195.554 1583.62 196.055C1584.03 197.723 1584.53 199.371 1584.72 201.088L1584.93 202.907C1585.54 202.518 1586.13 202.128 1586.73 201.767C1588.92 200.42 1591.34 199.487 1593.87 199.016C1595.82 198.671 1597.82 198.616 1599.8 198.851C1601.51 199.069 1603.19 199.462 1604.82 200.023C1605.32 200.182 1605.81 200.389 1606.3 200.578C1606.18 201.248 1605.99 201.899 1605.74 202.536C1605.08 204.272 1604.17 205.902 1603.03 207.374C1602.41 208.191 1601.69 208.913 1600.99 209.665C1599.73 210.991 1598.33 212.191 1596.84 213.247C1596.8 213.276 1596.76 213.291 1596.72 213.313C1596.69 213.163 1596.89 213.129 1596.9 212.97C1596.74 213.064 1596.57 213.103 1596.51 213.285C1596.48 213.295 1596.41 213.29 1596.4 213.312C1596.36 213.387 1596.44 213.389 1596.49 213.417L1596.5 213.445Z" fill="#FFFEFE"/><path d="M1551.22 138.047C1551.72 138.32 1552.2 138.667 1552.67 139.034C1553.67 139.822 1554.6 140.694 1555.47 141.623C1556.3 142.513 1557.07 143.463 1557.82 144.427C1558.85 145.753 1559.79 147.145 1560.71 148.55C1561.25 149.382 1561.74 150.251 1562.26 151.102C1562.36 151.274 1562.36 151.367 1562.14 151.454C1559.78 152.414 1557.52 153.628 1555.42 155.075C1554.06 155.978 1552.79 157.009 1551.55 158.07C1550.56 158.923 1549.64 159.85 1548.72 160.781C1548.67 160.827 1548.64 160.898 1548.56 160.881C1548.46 160.861 1548.45 160.767 1548.44 160.695C1548.35 159.618 1548.23 158.546 1548.16 157.471C1548.06 156.173 1547.99 154.874 1547.93 153.573C1547.87 151.741 1547.9 149.907 1548 148.078C1548.05 147.366 1548.11 146.66 1548.2 145.952C1548.3 144.93 1548.48 143.917 1548.72 142.919C1549.16 141.317 1549.7 139.753 1550.7 138.389C1550.96 138.023 1551.02 137.974 1551.22 138.047Z" fill="#14483D"/><path d="M1611.96 154.318C1611.87 155.293 1611.78 156.277 1611.54 157.224C1611.26 158.291 1610.96 159.348 1610.61 160.398C1610.08 161.971 1609.44 163.495 1608.75 164.999C1608.13 166.376 1607.44 167.725 1606.72 169.061C1606.09 170.237 1605.42 171.39 1604.78 172.561C1604.7 172.703 1604.56 172.955 1604.51 172.94C1604.32 172.885 1604.35 172.662 1604.29 172.502C1603.51 170.373 1602.57 168.303 1601.49 166.307C1600.83 165.083 1600.04 163.941 1599.3 162.769C1599.13 162.503 1598.87 162.308 1598.77 161.998C1598.84 161.932 1598.93 161.88 1598.99 161.802C1599.59 161.014 1600.25 160.272 1600.93 159.551C1601.96 158.46 1603.06 157.445 1604.27 156.573C1605.55 155.655 1606.94 154.922 1608.48 154.524C1609.62 154.231 1610.78 154.107 1611.96 154.318Z" fill="#14483D"/><path d="M1552.34 175.337C1552.61 174.418 1552.78 173.702 1553.22 173.085C1553.4 172.837 1553.56 172.735 1553.88 172.802C1554.84 172.994 1555.64 173.48 1556.41 174.025C1558.93 175.819 1561.09 178.01 1563.2 180.248C1564.02 181.114 1564.68 182.104 1564.99 183.281C1565.07 183.586 1565.1 183.893 1565.08 184.209C1565.06 184.564 1564.92 184.71 1564.54 184.752C1564.1 184.801 1563.66 184.756 1563.24 184.655C1562.05 184.351 1560.9 183.935 1559.79 183.414C1558.68 182.911 1557.6 182.329 1556.57 181.673C1554.99 180.658 1553.5 179.54 1552.43 177.958C1552.17 177.574 1552 177.197 1552.11 176.71C1552.24 176.188 1552.29 175.651 1552.35 175.34L1552.34 175.337Z" fill="#003B2F"/><path d="M1596.14 184.88C1596.03 185.309 1595.89 185.739 1595.8 186.178C1595.73 186.515 1595.53 186.716 1595.27 186.903C1594.28 187.61 1593.16 188.013 1591.99 188.327C1590.25 188.782 1588.45 189.027 1586.65 189.057C1585.25 189.092 1583.84 189.045 1582.46 188.751C1582.09 188.671 1581.75 188.525 1581.42 188.368C1581.07 188.199 1581 187.969 1581.13 187.639C1581.54 186.562 1582.4 185.91 1583.33 185.328C1584.5 184.592 1585.81 184.158 1587.09 183.658C1588.68 183.044 1590.28 182.472 1591.93 182.054C1593.09 181.759 1594.26 181.487 1595.48 181.64C1596.36 181.751 1596.28 181.746 1596.38 182.685C1596.46 183.429 1596.3 184.153 1596.14 184.878L1596.14 184.88Z" fill="#003B2F"/><path d="M1611.96 154.318C1610.78 154.107 1609.62 154.231 1608.48 154.524C1606.94 154.922 1605.55 155.656 1604.27 156.573C1603.06 157.446 1601.96 158.46 1600.93 159.551C1600.25 160.268 1599.6 161.019 1598.99 161.801C1598.93 161.88 1598.84 161.931 1598.76 161.998C1598.42 161.74 1598.22 161.351 1597.96 161.028C1597.33 160.242 1596.65 159.498 1595.98 158.749C1595.8 158.549 1595.85 158.465 1596.03 158.333C1597.24 157.472 1598.46 156.641 1599.72 155.866C1601.88 154.532 1604.11 153.309 1606.47 152.344C1607.97 151.732 1609.53 151.285 1611.13 151.021C1611.6 150.946 1611.64 150.958 1611.74 151.399C1611.94 152.297 1612.03 153.201 1611.94 154.12C1611.94 154.186 1611.96 154.252 1611.96 154.317L1611.96 154.318Z" fill="#2D5349"/><path d="M1591.29 178.618C1589.85 178.282 1588.66 177.981 1587.56 177.383C1586.53 176.825 1586.21 176.033 1586.55 174.907C1586.92 173.677 1587.79 172.883 1588.84 172.254C1589.44 171.9 1590.06 171.577 1590.76 171.483C1591.97 171.32 1593 171.735 1593.88 172.534C1594.97 173.536 1595.62 174.753 1595.51 176.272C1595.44 177.138 1595.08 177.883 1594.46 178.504C1594.02 178.948 1593.48 178.96 1592.93 178.878C1592.3 178.784 1591.67 178.731 1591.29 178.618ZM1558.78 171.616C1557.98 171.453 1557.28 171.235 1556.58 171.027C1555.96 170.841 1555.73 170.374 1555.52 169.83C1555.22 169.026 1555.43 168.285 1555.69 167.52C1556.28 165.781 1558.36 164.643 1560.15 164.723C1561.18 164.771 1562.04 165.219 1562.71 166.017C1563.49 166.935 1564.18 167.905 1564.27 169.142C1564.32 169.939 1564.1 170.699 1563.66 171.372C1563.42 171.738 1563.02 171.884 1562.61 171.939C1561.94 172.023 1561.26 172.017 1560.59 171.92C1559.96 171.833 1559.32 171.769 1558.78 171.616Z" fill="#FFFEFE"/><path d="M1596.51 213.288C1596.57 213.103 1596.74 213.063 1596.9 212.969C1596.89 213.129 1596.69 213.163 1596.72 213.313L1596.7 213.329L1596.51 213.288Z" fill="#426159"/><path d="M1596.51 213.288L1596.68 213.324C1596.64 213.391 1596.59 213.445 1596.5 213.444L1596.49 213.417L1596.51 213.288Z" fill="#FFFEFE"/><path d="M1578.87 207.22L1577.6 209.859C1577.51 210.031 1577.39 210.005 1577.24 209.972C1576.71 209.858 1576.71 209.861 1576.4 210.32L1574.79 212.773C1574.66 212.31 1574.39 211.937 1574.5 211.452C1574.74 210.407 1574.96 209.354 1575.21 208.307C1575.27 208.07 1575.24 208.006 1574.98 207.999C1572.68 207.903 1570.4 207.615 1568.17 207.047C1566.78 206.716 1565.42 206.271 1564.1 205.718C1563.95 205.648 1563.79 205.607 1563.64 205.557C1563.42 206.592 1563.17 207.616 1562.99 208.649C1562.89 209.209 1562.74 209.708 1562.22 210.047C1561.98 209.47 1561.83 208.859 1561.78 208.235C1561.72 207.77 1561.67 207.304 1561.72 206.836C1561.75 206.491 1561.52 206.471 1561.3 206.488C1560.97 206.518 1560.89 206.401 1560.89 206.08C1560.9 205.69 1560.92 205.3 1560.97 204.913C1561 204.788 1561 204.659 1560.97 204.536C1560.93 204.412 1560.88 204.297 1560.79 204.2C1560.65 204.029 1560.54 203.832 1560.41 203.646C1560.34 203.538 1560.38 203.428 1560.42 203.326C1560.47 203.216 1560.56 203.285 1560.62 203.299L1563.33 203.896C1563.5 203.933 1563.63 203.992 1563.59 204.197C1563.56 204.345 1563.66 204.357 1563.76 204.388C1565.05 204.735 1566.35 205.011 1567.65 205.291C1567.78 205.321 1567.88 205.297 1567.97 205.192C1568.17 204.959 1568.4 204.742 1568.61 204.507C1568.78 204.3 1568.95 204.106 1569.27 204.261C1569.41 204.328 1569.46 204.234 1569.49 204.102C1569.67 203.273 1569.84 202.44 1570.03 201.609C1570.07 201.425 1569.96 201.379 1569.85 201.3C1568.7 200.486 1567.65 199.571 1566.9 198.366C1566.27 197.373 1565.99 196.321 1566.31 195.144C1566.47 194.577 1566.56 193.987 1566.69 193.407C1566.96 192.173 1567.95 191.532 1569.19 191.799L1575.31 193.114C1576.41 193.35 1577.28 194.705 1577.01 195.791C1576.78 196.693 1576.67 197.62 1576.31 198.483C1575.78 199.741 1574.83 200.585 1573.62 201.151C1573 201.447 1572.34 201.639 1571.66 201.718C1571.51 201.734 1571.46 201.796 1571.43 201.938C1571.26 202.759 1571.08 203.58 1570.9 204.399C1570.86 204.577 1570.91 204.652 1571.08 204.658C1571.35 204.671 1571.47 204.822 1571.54 205.082C1571.64 205.459 1571.7 205.921 1571.96 206.153C1572.2 206.375 1572.67 206.36 1573.05 206.44C1573.77 206.603 1574.5 206.747 1575.22 206.924C1575.47 206.986 1575.65 206.972 1575.8 206.749C1575.86 206.658 1575.95 206.589 1576.08 206.621L1578.87 207.22Z" fill="#003B2F"/><path d="M1568.71 208C1569.73 208.22 1570.76 208.447 1571.78 208.66C1571.99 208.7 1572.09 208.755 1572.03 209.002C1571.96 209.238 1571.83 209.448 1571.63 209.601C1571.44 209.754 1571.21 209.842 1570.96 209.852C1570.82 209.851 1570.78 209.736 1570.72 209.652C1570.24 209.034 1570.24 209.034 1569.62 209.509L1569.07 209.935C1568.64 210.266 1568.21 210.145 1568.03 209.641C1567.91 209.316 1567.81 208.989 1567.69 208.662C1567.64 208.522 1567.57 208.426 1567.4 208.378C1566.9 208.236 1566.89 208.215 1566.62 208.662C1566.48 208.894 1566.36 208.887 1566.17 208.751C1565.9 208.557 1565.61 208.393 1565.37 208.152C1565.28 208.062 1565.22 207.98 1565.25 207.832C1565.35 207.265 1565.34 207.266 1565.9 207.387L1568.71 207.991L1568.71 208Z" fill="#003B2F"/><path d="M1569.49 221.254C1569.72 221.275 1569.88 221.194 1570.07 221.306C1569.88 221.356 1569.71 221.378 1569.49 221.254ZM1570.51 221.322C1570.4 221.348 1570.31 221.356 1570.21 221.258L1570.51 221.322ZM1596.51 213.285L1596.49 213.417C1596.45 213.39 1596.36 213.39 1596.4 213.312C1596.41 213.29 1596.48 213.295 1596.51 213.285ZM1595.95 213.645C1595.97 213.557 1596.02 213.519 1596.11 213.545C1596.09 213.573 1596.07 213.597 1596.04 213.615C1596.02 213.633 1595.99 213.641 1595.95 213.645Z" fill="#426159"/><path d="M1595.95 213.648L1595.88 213.688L1595.87 213.648L1595.95 213.648ZM1594.78 214.378L1594.78 214.401C1594.77 214.405 1594.75 214.408 1594.74 214.403C1594.72 214.382 1594.72 214.368 1594.76 214.363L1594.78 214.378Z" fill="#426159"/><path d="M1596.19 213.485L1596.24 213.412L1596.26 213.445L1596.2 213.498L1596.19 213.485Z" fill="#426159"/><path d="M1596.11 213.542L1596.19 213.485L1596.2 213.496L1596.11 213.542Z" fill="#426159"/><path d="M1595.71 213.791L1595.75 213.757C1595.78 213.804 1595.74 213.798 1595.72 213.808L1595.71 213.794L1595.71 213.791Z" fill="#426159"/><path d="M1595.71 213.806L1595.67 213.827C1595.68 213.816 1595.7 213.806 1595.71 213.795L1595.71 213.806ZM1595.51 213.913L1595.52 213.938L1595.5 213.931L1595.51 213.913ZM1595.3 214.044C1595.32 214.024 1595.34 213.992 1595.36 214.039L1595.31 214.069L1595.3 214.044Z" fill="#426159"/><path d="M1595.32 214.067L1595.27 214.084C1595.28 214.071 1595.29 214.058 1595.3 214.045L1595.32 214.067ZM1595.12 214.136L1595.12 214.116L1595.14 214.12L1595.12 214.136ZM1594.88 214.289L1594.88 214.27L1594.89 214.276L1594.88 214.289Z" fill="#426159"/><path d="M641.726 285.766C683.949 260.941 698.036 206.612 673.211 164.391C648.386 122.169 594.055 108.083 551.832 132.908C509.609 157.733 495.522 212.061 520.347 254.283C545.172 296.504 599.503 310.591 641.726 285.766Z" fill="#03FC9D"/><path d="M650.725 278.584C692.948 253.759 707.035 199.431 682.21 157.209C657.385 114.988 603.054 100.901 560.831 125.726C518.608 150.551 504.521 204.88 529.346 247.101C554.171 289.323 608.502 303.409 650.725 278.584Z" stroke="#003B2F" stroke-width="3" stroke-linecap="round" stroke-linejoin="round"/><path d="M582.191 198.585C582.956 198.526 583.814 198.304 584.669 198.116C585.575 197.924 586.45 197.61 587.273 197.184C587.779 196.917 588.228 196.537 588.361 195.948C588.603 194.874 588.536 193.79 588.086 192.793C587.383 191.238 586.033 190.316 584.599 189.505C584.016 189.153 583.364 188.931 582.687 188.853C582.01 188.775 581.324 188.843 580.676 189.053C578.336 189.798 576.199 192.252 576.259 194.776C576.284 195.887 576.371 196.939 577.143 197.832C577.665 198.435 578.189 198.926 579.079 198.87C580.077 198.811 581.083 198.751 582.191 198.585ZM627.412 192.161C627.96 192.124 628.797 191.897 629.645 191.718C630.396 191.561 631.089 191.288 631.447 190.505C631.953 189.41 632.062 188.28 631.733 187.133C631.155 185.124 629.744 183.856 627.855 183.09C626.35 182.477 624.825 182.432 623.34 183.217C622.478 183.672 621.83 184.384 621.233 185.122C620.176 186.437 619.433 187.874 619.545 189.629C619.642 191.241 620.431 192.111 622.015 192.342C623.718 192.591 625.406 192.409 627.412 192.161ZM636.641 197.925C636.498 196.918 636.366 195.905 635.911 194.985C635.333 193.819 635.438 193.792 634.242 194.07C632.608 194.449 631.223 195.357 629.867 196.29C627.943 197.612 626.151 199.106 624.4 200.653C622.986 201.906 621.499 203.091 620.337 204.6C619.417 205.787 618.622 207.04 618.601 208.619C618.592 209.107 618.791 209.365 619.331 209.417C619.836 209.462 620.339 209.49 620.853 209.417C622.777 209.143 624.603 208.534 626.394 207.822C628.705 206.926 630.9 205.757 632.935 204.341C634.283 203.384 635.534 202.328 636.473 200.951C636.721 200.583 636.89 200.227 636.816 199.763C636.721 199.153 636.695 198.537 636.641 197.925ZM575.662 206.447C575.747 206.872 575.933 207.59 576.02 208.322C576.101 209.005 576.499 209.41 577.014 209.781C579.145 211.312 581.598 212.04 584.119 212.6C585.759 212.961 587.417 213.187 589.095 213.314C590.775 213.437 592.455 213.46 594.129 213.271C594.726 213.203 595.312 213.053 595.855 212.776C596.321 212.543 596.438 212.289 596.293 211.824C596.166 211.413 595.976 211.025 595.73 210.673C594.774 209.303 593.46 208.339 591.992 207.612C588.206 205.73 584.382 203.933 580.278 202.821C579.028 202.483 577.762 202.239 576.444 202.443C575.996 202.511 575.83 202.722 575.722 203.128C575.448 204.128 575.562 205.135 575.662 206.447ZM556.491 158.919C556.2 158.919 556.15 159.009 555.982 159.607C555.339 161.84 555.388 164.112 555.591 166.383C555.751 167.785 556.007 169.174 556.357 170.541C556.576 171.495 556.831 172.436 557.114 173.373C557.848 175.781 558.689 178.155 559.636 180.487C560.316 182.137 561.036 183.777 561.775 185.406C562.383 186.754 563.038 188.083 563.677 189.418C563.724 189.512 563.778 189.629 563.912 189.61C564.022 189.594 564.036 189.484 564.074 189.404C564.815 187.768 565.559 186.136 566.438 184.563C567.532 182.607 568.667 180.678 569.993 178.863C571.061 177.397 572.152 175.944 573.378 174.601C574.507 173.344 575.696 172.144 576.942 171.004C577.174 170.796 577.144 170.667 576.924 170.495C575.847 169.65 574.805 168.759 573.708 167.946C571.866 166.554 569.969 165.238 568.019 164.002C566.607 163.104 565.155 162.272 563.667 161.507C562.106 160.718 560.489 160.048 558.828 159.501C558.067 159.242 557.285 159.047 556.491 158.919ZM629.147 167.19C629.422 167.542 629.856 167.672 630.197 167.931C631.709 169.088 633.275 170.183 634.711 171.447C637.044 173.511 639.232 175.734 641.259 178.1C641.409 178.278 641.481 178.58 641.749 178.563C641.819 178.553 641.884 178.165 641.919 177.944C642.189 176.13 642.506 174.326 642.759 172.51C643.048 170.447 643.294 168.383 643.445 166.311C643.617 164.045 643.714 161.777 643.651 159.495C643.61 157.979 643.491 156.474 643.34 154.969C643.199 153.633 642.838 152.325 642.507 151.02C642.467 150.943 642.41 150.864 642.389 150.775C642.052 149.564 641.523 148.415 640.823 147.372C640.491 146.845 640.428 146.846 639.871 147.166C637.933 148.269 636.126 149.586 634.483 151.094C631.904 153.453 629.621 156.086 627.462 158.83C626.216 160.433 625.025 162.08 623.894 163.767C623.722 164.02 623.687 164.154 624.016 164.328C625.235 164.974 626.461 165.61 627.651 166.318C628.142 166.614 628.583 167.021 629.147 167.19ZM626.343 152.107C627.446 150.707 628.501 149.271 629.683 147.93C631.824 145.5 634.161 143.284 636.925 141.547C638.719 140.418 640.615 139.512 642.704 139.049C643.006 138.985 643.197 139.012 643.418 139.276C644.368 140.4 645.049 141.676 645.623 143.02C646.807 145.792 647.34 148.715 647.646 151.682C647.9 154.108 647.996 156.539 647.986 158.982C647.978 160.913 647.899 162.841 647.824 164.769C647.796 165.505 647.7 166.234 647.705 166.969C647.685 167.122 647.648 167.268 647.637 167.424C647.455 169.945 647.181 172.458 646.885 174.971C646.537 177.927 646.146 180.877 645.618 183.801C645.462 184.663 645.732 185.269 646.154 185.929C647.354 187.816 648.791 189.554 649.862 191.531C650.628 192.935 651.385 194.337 652.057 195.789C653.155 198.157 654.072 200.592 654.847 203.085C655.729 205.926 656.425 208.822 656.929 211.755C657.02 212.274 657.31 212.769 657.19 213.327C656.465 213.318 655.737 213.284 655.013 213.312C652.647 213.363 650.292 213.657 647.985 214.188C645.33 214.824 642.782 215.845 640.424 217.219C637.354 219.028 634.749 221.383 632.533 224.16C631.933 224.911 631.361 225.687 630.755 226.484L629.628 224.233C628.558 222.119 627.137 220.229 625.815 218.276C625.418 217.686 624.945 217.152 624.408 216.688C622.528 215.037 620.407 213.683 618.118 212.672C614.555 211.129 610.819 210.77 607.002 211.301C605.032 211.613 603.12 212.223 601.334 213.11C597.765 214.804 595.077 217.449 592.93 220.711C592.143 221.904 591.703 223.227 591.154 224.507C590.397 226.236 589.761 228.014 589.25 229.831L588.514 232.518L587.977 232.075C582.886 227.863 577.155 225.29 570.416 225.222C567.926 225.218 565.443 225.504 563.019 226.075C561.81 226.347 560.637 226.726 559.464 227.101C559.286 225.733 559.21 224.351 559.126 222.974C559.014 221.168 559.019 219.359 559.069 217.551C559.114 216.022 559.228 214.492 559.373 212.966C559.607 210.521 559.961 208.096 560.458 205.688C560.547 205.23 560.722 204.765 560.249 204.395C560.234 204.381 560.259 204.319 560.272 204.238C560.592 204.554 560.722 204.474 560.806 204.075C561.332 201.735 561.95 199.416 562.657 197.124C562.725 196.898 562.769 196.68 562.642 196.461C561.411 194.32 560.295 192.114 559.298 189.855C558.529 188.134 557.791 186.401 557.14 184.631C556.672 183.354 556.183 182.081 555.702 180.806C555.477 179.723 555.056 178.698 554.74 177.645C553.73 174.345 552.897 170.993 552.246 167.603C551.921 165.929 551.667 164.242 551.485 162.547C551.27 160.456 551.114 158.362 551.356 156.265C551.484 155.124 551.711 153.998 552.188 152.94C552.734 151.723 553.279 151.429 554.616 151.446C556.97 151.473 559.137 152.175 561.232 153.133C564.033 154.41 566.599 156.074 569.062 157.894L572.035 160.079C572.098 160.145 572.159 160.219 572.229 160.276C573.538 161.345 574.865 162.4 576.164 163.492C578.001 165.035 579.828 166.592 581.63 168.178C581.996 168.5 582.261 168.521 582.659 168.281C585.224 166.781 587.932 165.593 590.745 164.639C593.178 163.819 595.686 163.295 598.208 162.845C601.818 162.206 605.461 161.854 609.133 161.942C612.421 162.015 615.682 162.374 618.895 163.094C619.621 163.257 619.615 163.27 619.971 162.583C621.047 160.504 622.232 158.489 623.454 156.494C624.364 155 625.365 153.56 626.343 152.107Z" fill="#426159"/><path d="M620.925 257.069L620.505 257.129C620.683 257.208 620.8 257.154 620.925 257.069ZM619.58 257.469C619.924 257.519 620.125 257.412 620.357 257.254C620.058 257.201 619.877 257.389 619.58 257.469ZM612.273 240.755L612.271 240.743L608.367 241.299C607.588 241.41 607.596 241.409 607.736 242.183C607.773 242.386 607.884 242.466 608.044 242.538C608.463 242.737 608.918 242.809 609.364 242.933C609.671 243.014 609.827 242.967 609.892 242.608C610.024 241.899 610.052 241.92 610.772 241.863C611.01 241.846 611.152 241.934 611.282 242.09L612.179 243.193C612.647 243.759 613.259 243.709 613.66 243.078L614.168 242.261C614.738 241.361 614.738 241.361 615.647 241.93C615.77 242.008 615.873 242.144 616.058 242.071C616.369 241.942 616.63 241.717 616.804 241.429C616.979 241.141 617.057 240.805 617.027 240.47C616.99 240.121 616.841 240.097 616.544 240.143C615.124 240.358 613.7 240.552 612.273 240.755ZM625 234.922L621.12 235.475C620.932 235.501 620.851 235.629 620.813 235.776C620.731 236.133 620.504 236.236 620.16 236.272C619.145 236.388 618.137 236.548 617.125 236.684C616.603 236.758 616.006 237.001 615.582 236.833C615.141 236.654 614.84 236.09 614.533 235.651C614.319 235.349 614.096 235.214 613.737 235.324C613.511 235.398 613.418 235.328 613.386 235.078C613.236 233.935 613.07 232.795 612.898 231.65C612.871 231.455 612.906 231.35 613.092 231.257C613.931 230.834 614.693 230.272 615.347 229.597C616.645 228.289 617.466 226.75 617.545 224.88C617.603 223.595 617.3 222.345 617.166 221.079C616.998 219.551 615.232 218.218 613.704 218.436L605.201 219.646C603.477 219.892 602.498 221.191 602.742 222.908C602.857 223.715 603.013 224.52 603.078 225.33C603.216 226.999 604.084 228.218 605.36 229.205C606.902 230.4 608.695 231.076 610.56 231.584C610.738 231.634 610.908 231.634 610.941 231.892C611.093 233.051 611.262 234.208 611.435 235.36C611.461 235.544 611.44 235.692 611.22 235.665C610.74 235.621 610.616 235.951 610.479 236.303C610.328 236.703 610.142 237.087 609.987 237.488C609.917 237.668 609.815 237.745 609.619 237.769C607.813 238.026 606.004 238.288 604.185 238.447C604.041 238.459 603.903 238.487 603.871 238.292C603.83 238.002 603.629 237.994 603.393 238.027L599.623 238.539C599.529 238.552 599.377 238.507 599.376 238.67C599.372 238.82 599.366 238.983 599.515 239.091C599.764 239.267 600.005 239.466 600.268 239.62C600.42 239.706 600.551 239.826 600.65 239.971C600.749 240.115 600.814 240.28 600.84 240.453C600.948 240.979 601.116 241.487 601.296 241.994C601.439 242.414 601.592 242.525 602.009 242.329C602.278 242.203 602.595 242.121 602.71 242.578C602.87 243.204 603.163 243.778 603.453 244.352C603.845 245.12 604.276 245.869 604.887 246.477C605.393 245.794 605.345 245.081 605.21 244.31C604.958 242.89 604.788 241.459 604.583 240.016C604.794 240.011 605.027 239.986 605.254 240.004C607.221 240.119 609.178 239.986 611.128 239.783C614.265 239.438 617.357 238.765 620.353 237.775C620.691 237.665 620.763 237.73 620.802 238.061C620.977 239.529 621.194 240.991 621.377 242.454C621.461 243.132 621.997 243.48 622.389 244.015L623.294 240.089C623.465 239.358 623.463 239.346 624.205 239.244C624.413 239.214 624.585 239.19 624.609 238.925L625 234.922ZM650.31 234.779L650.371 234.679L650.316 234.646L650.292 234.77C650.27 234.806 650.247 234.843 650.224 234.879C650.093 234.889 650.045 234.963 650.067 235.084L649.957 235.129L649.996 235.173L650.067 235.084C650.107 235.064 650.143 235.038 650.17 235.002C650.198 234.966 650.216 234.924 650.224 234.879L650.31 234.779ZM650.679 234.565C649.907 235.765 649.053 236.911 648.123 237.994C646 240.564 643.673 242.959 641.166 245.155C638.513 247.492 635.696 249.618 632.717 251.531C630.614 252.887 628.44 254.124 626.188 255.218C624.006 256.277 621.756 257.18 619.436 257.917C616.865 258.757 614.193 259.255 611.492 259.398C609.11 259.504 606.724 259.37 604.369 258.998C603.732 258.901 603.093 258.767 602.464 258.645C601.454 258.456 600.445 258.255 599.439 258.044C598.066 257.749 596.739 257.339 595.402 256.943C588.638 254.956 582.191 252.019 576.253 248.22C571.965 245.47 567.997 242.342 564.712 238.427C563.06 236.508 561.699 234.358 560.672 232.044C559.995 230.476 559.586 228.805 559.461 227.101C560.638 226.726 561.811 226.347 563.016 226.076C565.44 225.505 567.923 225.218 570.413 225.222C577.156 225.29 582.891 227.863 587.982 232.078L588.515 232.518L589.255 229.83C589.753 228.009 590.408 226.243 591.155 224.507C591.704 223.223 592.148 221.904 592.931 220.715C595.078 217.449 597.762 214.804 601.335 213.114C603.121 212.224 605.033 211.613 607.003 211.301C610.824 210.77 614.556 211.129 618.119 212.672C620.432 213.673 622.508 215.049 624.409 216.692C624.95 217.155 625.42 217.687 625.816 218.276C627.138 220.229 628.559 222.119 629.63 224.237L630.756 226.484C631.363 225.691 631.93 224.912 632.534 224.16C634.716 221.383 637.391 219.031 640.425 217.223C642.785 215.848 645.334 214.827 647.991 214.192C650.297 213.66 652.652 213.367 655.019 213.316C655.738 213.284 656.466 213.318 657.191 213.327C657.356 214.247 657.413 215.179 657.401 216.117C657.372 218.668 656.971 221.203 656.21 223.639C655.799 224.986 655.211 226.259 654.672 227.559C653.67 229.87 652.446 232.078 651.015 234.151C650.981 234.206 650.933 234.246 650.894 234.293C650.789 234.112 651.023 233.975 650.968 233.763C650.805 233.96 650.599 234.094 650.62 234.353C650.574 234.384 650.486 234.409 650.483 234.443C650.474 234.557 650.577 234.521 650.646 234.536L650.679 234.565Z" fill="#FFFEFE"/><path d="M556.492 158.919C557.265 159.033 558.057 159.249 558.829 159.501C560.491 160.042 562.106 160.723 563.668 161.507C565.164 162.259 566.601 163.119 568.025 164.006C569.986 165.224 571.858 166.571 573.709 167.946C574.806 168.759 575.852 169.645 576.925 170.495C577.141 170.668 577.175 170.792 576.943 171.004C574.35 173.366 572.02 176.002 569.995 178.867C568.668 180.678 567.533 182.607 566.439 184.563C565.561 186.135 564.816 187.768 564.076 189.403C564.037 189.484 564.024 189.594 563.914 189.609C563.779 189.629 563.725 189.512 563.679 189.422C563.039 188.083 562.384 186.754 561.776 185.406C561.035 183.779 560.322 182.139 559.637 180.487C558.69 178.155 557.849 175.781 557.115 173.373C556.832 172.436 556.582 171.494 556.358 170.54C556.007 169.174 555.75 167.785 555.592 166.383C555.389 164.112 555.34 161.84 555.983 159.607C556.152 159.009 556.201 158.919 556.492 158.919Z" fill="#14483D"/><path d="M642.508 151.02C642.843 152.324 643.2 153.633 643.336 154.969C643.492 156.473 643.607 157.979 643.653 159.499C643.719 161.777 643.618 164.045 643.446 166.311C643.291 168.383 643.049 170.447 642.76 172.51C642.507 174.325 642.19 176.13 641.92 177.944C641.885 178.165 641.82 178.557 641.746 178.563C641.482 178.58 641.415 178.278 641.26 178.1C639.238 175.73 637.05 173.506 634.712 171.447C633.276 170.183 631.714 169.087 630.198 167.931C629.857 167.668 629.423 167.542 629.148 167.19C629.214 167.069 629.303 166.96 629.347 166.829C629.748 165.529 630.237 164.262 630.774 163.008C631.581 161.113 632.514 159.284 633.669 157.581C634.882 155.79 636.314 154.189 638.112 152.944C639.449 152.021 640.886 151.309 642.508 151.02Z" fill="#14483D"/><path d="M575.662 206.439C575.563 205.131 575.453 204.123 575.722 203.12C575.831 202.718 575.996 202.507 576.444 202.439C577.762 202.235 579.028 202.479 580.278 202.817C584.383 203.929 588.207 205.726 591.993 207.608C593.46 208.334 594.77 209.3 595.73 210.669C595.977 211.024 596.164 211.405 596.294 211.819C596.439 212.285 596.318 212.544 595.856 212.776C595.312 213.049 594.727 213.199 594.13 213.271C592.456 213.442 590.771 213.455 589.095 213.31C587.422 213.191 585.759 212.952 584.119 212.596C581.599 212.04 579.145 211.308 577.014 209.777C576.5 209.405 576.101 209.001 576.017 208.318C575.933 207.586 575.748 206.868 575.666 206.443L575.662 206.439Z" fill="#003B2F"/><path d="M636.642 197.925C636.695 198.533 636.721 199.153 636.82 199.758C636.887 200.227 636.721 200.583 636.473 200.947C635.535 202.329 634.283 203.38 632.935 204.337C630.9 205.753 628.705 206.922 626.394 207.818C624.603 208.53 622.772 209.136 620.853 209.413C620.339 209.486 619.832 209.459 619.331 209.413C618.791 209.365 618.592 209.103 618.601 208.615C618.621 207.032 619.417 205.783 620.337 204.592C621.495 203.088 622.986 201.902 624.4 200.649C626.147 199.107 627.939 197.608 629.867 196.286C631.227 195.352 632.608 194.444 634.242 194.066C635.434 193.789 635.33 193.82 635.911 194.981C636.366 195.901 636.494 196.915 636.641 197.921L636.642 197.925Z" fill="#003B2F"/><path d="M642.509 151.02C640.886 151.309 639.449 152.021 638.112 152.943C636.314 154.189 634.883 155.79 633.67 157.581C632.515 159.284 631.582 161.113 630.774 163.008C630.233 164.257 629.756 165.533 629.343 166.83C629.303 166.96 629.211 167.069 629.145 167.191C628.58 167.022 628.14 166.614 627.649 166.322C626.458 165.61 625.232 164.974 624.009 164.329C623.685 164.154 623.716 164.021 623.887 163.764C625.029 162.084 626.211 160.43 627.465 158.834C629.619 156.086 631.905 153.453 634.484 151.089C636.129 149.587 637.925 148.271 639.873 147.166C640.43 146.85 640.492 146.845 640.828 147.367C641.512 148.43 642.066 149.548 642.387 150.775C642.412 150.863 642.468 150.939 642.505 151.021L642.509 151.02Z" fill="#2D5349"/><path d="M627.412 192.161C625.401 192.41 623.718 192.591 622.015 192.343C620.43 192.111 619.641 191.242 619.541 189.63C619.432 187.87 620.175 186.433 621.232 185.122C621.83 184.384 622.477 183.673 623.34 183.217C624.821 182.432 626.349 182.477 627.855 183.09C629.744 183.861 631.151 185.124 631.732 187.133C632.062 188.28 631.952 189.41 631.447 190.505C631.088 191.288 630.391 191.562 629.644 191.718C628.796 191.893 627.955 192.125 627.412 192.161ZM582.19 198.586C581.079 198.756 580.076 198.808 579.074 198.871C578.188 198.927 577.665 198.435 577.142 197.832C576.371 196.94 576.283 195.887 576.258 194.776C576.198 192.252 578.336 189.798 580.675 189.053C582.028 188.624 583.35 188.793 584.598 189.501C586.032 190.316 587.382 191.238 588.085 192.789C588.536 193.79 588.603 194.878 588.361 195.952C588.228 196.537 587.779 196.917 587.272 197.184C586.45 197.61 585.574 197.924 584.668 198.116C583.809 198.305 582.959 198.526 582.19 198.586Z" fill="#FFFEFE"/><path d="M650.62 234.357C650.603 234.093 650.801 233.961 650.968 233.763C651.023 233.975 650.789 234.113 650.894 234.293L650.885 234.319L650.62 234.357Z" fill="#426159"/><path d="M650.62 234.357L650.857 234.323C650.83 234.431 650.79 234.524 650.675 234.565L650.646 234.536L650.62 234.357Z" fill="#FFFEFE"/><path d="M624.995 234.923L624.608 238.929C624.583 239.19 624.412 239.215 624.2 239.245C623.462 239.35 623.463 239.354 623.293 240.089L622.384 244.015C621.996 243.48 621.46 243.132 621.372 242.454C621.192 240.991 620.976 239.529 620.8 238.061C620.757 237.73 620.689 237.661 620.352 237.776C617.342 238.745 614.27 239.456 611.127 239.783C609.178 240.017 607.214 240.091 605.253 240.004C605.022 239.987 604.793 240.011 604.581 240.016C604.786 241.455 604.957 242.891 605.209 244.31C605.344 245.081 605.391 245.794 604.885 246.477C604.299 245.849 603.815 245.132 603.452 244.352C603.162 243.778 602.868 243.205 602.709 242.579C602.593 242.117 602.277 242.203 602.004 242.33C601.591 242.526 601.441 242.41 601.29 241.994C601.107 241.491 600.956 240.976 600.838 240.454C600.813 240.28 600.748 240.115 600.649 239.971C600.549 239.826 600.419 239.706 600.266 239.62C600.003 239.466 599.763 239.268 599.513 239.087C599.365 238.983 599.371 238.82 599.37 238.671C599.376 238.508 599.528 238.552 599.622 238.539L603.391 238.023C603.627 237.99 603.825 238.003 603.869 238.288C603.902 238.491 604.035 238.46 604.184 238.451C606.003 238.288 607.808 238.027 609.618 237.769C609.809 237.742 609.915 237.668 609.985 237.488C610.137 237.092 610.327 236.703 610.482 236.303C610.611 235.952 610.738 235.622 611.223 235.669C611.438 235.688 611.455 235.545 611.429 235.361C611.265 234.208 611.092 233.051 610.935 231.892C610.907 231.634 610.736 231.63 610.558 231.58C608.69 231.077 606.905 230.395 605.358 229.201C604.083 228.219 603.215 226.999 603.076 225.326C603.012 224.52 602.851 223.715 602.74 222.908C602.496 221.192 603.476 219.892 605.2 219.647L613.702 218.436C615.231 218.219 616.997 219.552 617.164 221.079C617.304 222.348 617.602 223.595 617.543 224.88C617.464 226.75 616.644 228.289 615.345 229.597C614.692 230.271 613.931 230.832 613.095 231.257C612.904 231.35 612.865 231.456 612.897 231.651C613.068 232.791 613.234 233.931 613.384 235.075C613.416 235.324 613.514 235.397 613.736 235.324C614.094 235.211 614.318 235.349 614.531 235.652C614.839 236.09 615.144 236.654 615.581 236.833C616.004 237.001 616.602 236.758 617.123 236.684C618.135 236.548 619.144 236.388 620.159 236.273C620.507 236.236 620.73 236.133 620.812 235.776C620.845 235.63 620.93 235.497 621.118 235.475L624.995 234.923Z" fill="#003B2F"/><path d="M612.273 240.756C613.699 240.552 615.127 240.358 616.544 240.147C616.841 240.097 616.99 240.121 617.027 240.47C617.056 240.805 616.978 241.141 616.804 241.429C616.629 241.717 616.368 241.942 616.057 242.072C615.871 242.14 615.769 242.009 615.646 241.93C614.737 241.361 614.737 241.361 614.172 242.265L613.655 243.079C613.259 243.709 612.646 243.759 612.175 243.194C611.873 242.829 611.579 242.459 611.281 242.09C611.151 241.934 611.01 241.846 610.771 241.863C610.051 241.92 610.027 241.899 609.891 242.604C609.826 242.967 609.67 243.014 609.363 242.929C608.918 242.809 608.462 242.737 608.043 242.539C607.883 242.466 607.772 242.386 607.735 242.183C607.595 241.405 607.583 241.411 608.366 241.299L612.271 240.743L612.273 240.756Z" fill="#003B2F"/><path d="M619.579 257.465C619.879 257.384 620.057 257.201 620.356 257.254C620.128 257.411 619.923 257.519 619.579 257.465ZM620.92 257.07C620.795 257.154 620.678 257.208 620.504 257.129L620.92 257.07ZM650.619 234.353L650.645 234.536C650.58 234.521 650.474 234.561 650.482 234.443C650.485 234.409 650.573 234.384 650.619 234.353ZM650.066 235.085C650.048 234.962 650.092 234.89 650.224 234.879C650.215 234.924 650.197 234.966 650.169 235.002C650.142 235.039 650.106 235.064 650.066 235.085Z" fill="#426159"/><path d="M650.066 235.089L649.995 235.174L649.955 235.129L650.066 235.089ZM648.907 236.584L648.907 236.618C648.896 236.628 648.881 236.638 648.868 236.636C648.825 236.621 648.822 236.601 648.864 236.578L648.907 236.584Z" fill="#426159"/><path d="M650.296 234.765L650.321 234.649L650.371 234.679L650.31 234.779L650.296 234.765Z" fill="#426159"/><path d="M650.224 234.875L650.296 234.765L650.314 234.775L650.224 234.875Z" fill="#426159"/><path d="M649.818 235.389L649.854 235.327C649.922 235.37 649.862 235.383 649.837 235.407L649.819 235.393L649.818 235.389Z" fill="#426159"/><path d="M649.836 235.404L649.789 235.452C649.8 235.433 649.812 235.413 649.822 235.394L649.836 235.404ZM649.628 235.638L649.645 235.668L649.616 235.668L649.628 235.638ZM649.413 235.909C649.429 235.874 649.443 235.822 649.491 235.873L649.446 235.934L649.413 235.909Z" fill="#426159"/><path d="M649.447 235.93L649.395 235.974C649.404 235.952 649.412 235.931 649.419 235.909L649.447 235.93ZM649.232 236.11L649.216 236.087L649.24 236.084L649.232 236.11ZM648.993 236.422L648.978 236.4L649.003 236.4L648.993 236.422Z" fill="#426159"/></svg>