<svg width="1920" height="1081" viewBox="0 0 1920 1081" fill="none" xmlns="http://www.w3.org/2000/svg"><g clip-path="url(#clip0_897_2)"><path d="M1398.86 850.964L546.457 658.113C523.731 652.918 506.686 628.081 508.309 602.595L529.25 269.652C530.873 244.003 550.516 227.445 573.242 232.64L1425.65 425.491C1448.38 430.685 1465.42 455.522 1463.8 481.008L1442.86 813.952C1441.23 839.6 1421.59 856.158 1398.86 850.964Z" fill="white" stroke="#003B2F" stroke-width="3" stroke-linecap="round" stroke-linejoin="round"/><path d="M524.705 550.161C524.705 550.161 565.45 475.65 635.578 484.741C705.705 493.832 717.393 558.44 801.481 567.53C885.407 576.621 941.412 487.663 1035.4 526.298C1129.55 564.933 1203.58 655.027 1329.39 581.978C1329.39 581.978 1393.99 539.285 1434.25 586.361" stroke="#03FC9D" stroke-width="3" stroke-linecap="round" stroke-linejoin="round"/><path d="M514.479 129.233C441.267 112.675 380.068 161.05 377.795 237.346L510.421 267.54L514.479 129.233Z" fill="#E6E8EA" stroke="#003B2F" stroke-width="3" stroke-linecap="round" stroke-linejoin="round"/><path d="M536.393 148.225C534.283 147.738 532.173 147.413 530.062 146.926L524.706 287.343L400.521 259.098C400.034 333.771 456.526 406.658 528.115 422.891C600.839 439.449 661.714 391.398 663.824 315.427C666.097 239.618 608.956 164.62 536.231 148.062L536.393 148.225Z" fill="#03FC9D" stroke="#003B2F" stroke-width="3" stroke-linecap="round" stroke-linejoin="round"/><path d="M690.447 438.962L685.902 499.512" stroke="#03FC9D" stroke-width="3" stroke-linecap="round" stroke-linejoin="round"/><path d="M711.712 362.829L695.966 576.296" stroke="#003B2F" stroke-width="3" stroke-linecap="round" stroke-linejoin="round"/><path d="M767.718 342.538L757.816 479.384" stroke="#003B2F" stroke-width="3" stroke-linecap="round" stroke-linejoin="round"/><path d="M746.127 442.208L741.095 510.712" stroke="#03FC9D" stroke-width="3" stroke-linecap="round" stroke-linejoin="round"/><path d="M711.225 531.169L703.758 632.302" stroke="#003B2F" stroke-width="3" stroke-linecap="round" stroke-linejoin="round"/><path d="M728.758 485.716L720.804 593.991" stroke="#03FC9D" stroke-width="3" stroke-linecap="round" stroke-linejoin="round"/><path d="M792.717 399.191L785.899 494.156" stroke="#003B2F" stroke-width="3" stroke-linecap="round" stroke-linejoin="round"/><path d="M801.645 462.336L796.126 538.308" stroke="#003B2F" stroke-width="3" stroke-linecap="round" stroke-linejoin="round"/><path d="M812.196 514.286L805.541 606.653" stroke="#003B2F" stroke-width="3" stroke-linecap="round" stroke-linejoin="round"/><path d="M777.783 388.641L770.153 494.319" stroke="#03FC9D" stroke-width="3" stroke-linecap="round" stroke-linejoin="round"/><path d="M823.074 527.595L819.015 584.736" stroke="#003B2F" stroke-width="3" stroke-linecap="round" stroke-linejoin="round"/><path d="M840.117 527.432L833.786 616.553" stroke="#03FC9D" stroke-width="3" stroke-linecap="round" stroke-linejoin="round"/><path d="M854.729 540.094L849.696 610.709" stroke="#003B2F" stroke-width="3" stroke-linecap="round" stroke-linejoin="round"/><path d="M869.176 510.553L863.657 588.797" stroke="#003B2F" stroke-width="3" stroke-linecap="round" stroke-linejoin="round"/><path d="M880.539 550.649L877.13 598.537" stroke="#003B2F" stroke-width="3" stroke-linecap="round" stroke-linejoin="round"/><path d="M898.232 510.553L894.823 558.278" stroke="#03FC9D" stroke-width="3" stroke-linecap="round" stroke-linejoin="round"/><path d="M912.679 478.411L906.673 564.285" stroke="#03FC9D" stroke-width="3" stroke-linecap="round" stroke-linejoin="round"/><path d="M930.699 484.091L925.504 558.277" stroke="#03FC9D" stroke-width="3" stroke-linecap="round" stroke-linejoin="round"/><path d="M944.823 457.958L940.277 522.89" stroke="#03FC9D" stroke-width="3" stroke-linecap="round" stroke-linejoin="round"/><path d="M957.646 497.24L943.198 707.136" stroke="#003B2F" stroke-width="3" stroke-linecap="round" stroke-linejoin="round"/><path d="M962.192 579.869L956.023 669.964" stroke="#03FC9D" stroke-width="3" stroke-linecap="round" stroke-linejoin="round"/><path d="M984.594 491.882L976.639 608.112" stroke="#03FC9D" stroke-width="3" stroke-linecap="round" stroke-linejoin="round"/><path d="M997.58 503.083L994.171 552.594" stroke="#03FC9D" stroke-width="3" stroke-linecap="round" stroke-linejoin="round"/><path d="M1012.68 510.228L1004.89 625.809" stroke="#003B2F" stroke-width="3" stroke-linecap="round" stroke-linejoin="round"/><path d="M1021.12 558.603L1018.03 603.082" stroke="#03FC9D" stroke-width="3" stroke-linecap="round" stroke-linejoin="round"/><path d="M1038.97 535.228L1034.59 601.135" stroke="#03FC9D" stroke-width="3" stroke-linecap="round" stroke-linejoin="round"/><path d="M1055.37 474.028L1050.01 552.759" stroke="#03FC9D" stroke-width="3" stroke-linecap="round" stroke-linejoin="round"/><path d="M1069.17 504.057L1066.9 538.147" stroke="#003B2F" stroke-width="3" stroke-linecap="round" stroke-linejoin="round"/><path d="M1082.32 510.715L1075.82 607.303" stroke="#003B2F" stroke-width="3" stroke-linecap="round" stroke-linejoin="round"/><path d="M1094.82 551.619L1091.89 595.936" stroke="#03FC9D" stroke-width="3" stroke-linecap="round" stroke-linejoin="round"/><path d="M1111.38 528.57L1108.62 571.425" stroke="#03FC9D" stroke-width="3" stroke-linecap="round" stroke-linejoin="round"/><path d="M1126.96 509.416L1123.71 559.739" stroke="#03FC9D" stroke-width="3" stroke-linecap="round" stroke-linejoin="round"/><path d="M1141.41 489.449L1137.67 545.291" stroke="#003B2F" stroke-width="3" stroke-linecap="round" stroke-linejoin="round"/><path d="M1156.02 516.72L1153.58 554.056" stroke="#03FC9D" stroke-width="3" stroke-linecap="round" stroke-linejoin="round"/><path d="M1169 518.507L1164.62 585.388" stroke="#003B2F" stroke-width="3" stroke-linecap="round" stroke-linejoin="round"/><path d="M1184.26 519.803L1180.85 573.697" stroke="#003B2F" stroke-width="3" stroke-linecap="round" stroke-linejoin="round"/><path d="M1195.3 536.686L1188.48 641.878" stroke="#003B2F" stroke-width="3" stroke-linecap="round" stroke-linejoin="round"/><path d="M1208.61 577.919L1201.14 695.285" stroke="#03FC9D" stroke-width="3" stroke-linecap="round" stroke-linejoin="round"/><path d="M1222.41 571.911L1218.03 639.603" stroke="#003B2F" stroke-width="3" stroke-linecap="round" stroke-linejoin="round"/><path d="M1235.4 619.315L1230.36 697.397" stroke="#003B2F" stroke-width="3" stroke-linecap="round" stroke-linejoin="round"/><path d="M692.558 474.514L683.142 473.216L682.331 485.228L691.746 486.527L692.558 474.514Z" fill="#03FC9D" stroke="#03FC9D" stroke-width="3" stroke-linecap="round" stroke-linejoin="round"/><path d="M714.96 547.076L705.544 545.615L704.733 557.628L714.148 559.089L714.96 547.076Z" fill="#003B2F" stroke="#003B2F" stroke-width="3" stroke-linecap="round" stroke-linejoin="round"/><path d="M750.023 456.494L740.607 455.195L738.335 486.038L747.75 487.337L750.023 456.494Z" fill="#03FC9D" stroke="#03FC9D" stroke-width="3" stroke-linecap="round" stroke-linejoin="round"/><path d="M817.067 514.935L807.489 513.474L804.568 553.57L814.145 555.031L817.067 514.935Z" fill="#003B2F" stroke="#003B2F" stroke-width="3" stroke-linecap="round" stroke-linejoin="round"/><path d="M843.689 545.289L834.112 543.828L832.813 562.658L842.391 564.119L843.689 545.289Z" fill="#03FC9D" stroke="#03FC9D" stroke-width="3" stroke-linecap="round" stroke-linejoin="round"/><path d="M859.273 545.939L849.695 544.478L848.721 557.302L858.299 558.763L859.273 545.939Z" fill="#003B2F" stroke="#003B2F" stroke-width="3" stroke-linecap="round" stroke-linejoin="round"/><path d="M870.474 558.439L860.896 556.978L858.948 584.899L868.526 586.36L870.474 558.439Z" fill="#003B2F" stroke="#003B2F" stroke-width="3" stroke-linecap="round" stroke-linejoin="round"/><path d="M885.084 555.355L875.506 553.894L873.234 587.01L882.811 588.471L885.084 555.355Z" fill="#003B2F" stroke="#003B2F" stroke-width="3" stroke-linecap="round" stroke-linejoin="round"/><path d="M914.304 525.647L904.727 524.186L902.454 557.302L912.032 558.763L914.304 525.647Z" fill="#03FC9D" stroke="#03FC9D" stroke-width="3" stroke-linecap="round" stroke-linejoin="round"/><path d="M965.6 601.134L956.022 599.673L951.639 664.119L961.217 665.58L965.6 601.134Z" fill="#03FC9D" stroke="#03FC9D" stroke-width="3" stroke-linecap="round" stroke-linejoin="round"/><path d="M986.379 537.172L976.802 535.711L972.419 600.157L981.996 601.618L986.379 537.172Z" fill="#03FC9D" stroke="#03FC9D" stroke-width="3" stroke-linecap="round" stroke-linejoin="round"/><path d="M1001.15 519.805L991.573 518.344L990.275 537.987L999.852 539.448L1001.15 519.805Z" fill="#03FC9D" stroke="#03FC9D" stroke-width="3" stroke-linecap="round" stroke-linejoin="round"/><path d="M1016.74 522.077L1007.16 520.616L1003.1 580.029L1012.68 581.49L1016.74 522.077Z" fill="#003B2F" stroke="#003B2F" stroke-width="3" stroke-linecap="round" stroke-linejoin="round"/><path d="M1043.36 542.856L1033.78 541.395L1030.86 584.088L1040.44 585.549L1043.36 542.856Z" fill="#03FC9D" stroke="#03FC9D" stroke-width="3" stroke-linecap="round" stroke-linejoin="round"/><path d="M1057.97 508.439L1048.39 506.978L1045.96 542.366L1055.53 543.827L1057.97 508.439Z" fill="#03FC9D" stroke="#03FC9D" stroke-width="3" stroke-linecap="round" stroke-linejoin="round"/><path d="M1087.19 512.66L1077.61 511.199L1072.9 582.95L1082.48 584.411L1087.19 512.66Z" fill="#003B2F" stroke="#003B2F" stroke-width="3" stroke-linecap="round" stroke-linejoin="round"/><path d="M1199.85 541.393L1190.11 539.932L1183.61 641.065L1193.35 642.526L1199.85 541.231V541.393Z" fill="#003B2F" stroke="#003B2F" stroke-width="3" stroke-linecap="round" stroke-linejoin="round"/><path d="M932.647 515.26L923.07 513.799L922.096 528.084L931.673 529.545L932.647 515.26Z" fill="#03FC9D" stroke="#03FC9D" stroke-width="3" stroke-linecap="round" stroke-linejoin="round"/><path d="M947.095 494.481L937.517 493.02L935.894 516.883L945.471 518.344L947.095 494.481Z" fill="#03FC9D" stroke="#03FC9D" stroke-width="3" stroke-linecap="round" stroke-linejoin="round"/><path d="M962.516 496.752L952.938 495.291L941.413 662.655L950.99 664.116L962.516 496.752Z" fill="#003B2F" stroke="#003B2F" stroke-width="3" stroke-linecap="round" stroke-linejoin="round"/><path d="M900.182 553.568L890.604 552.107L890.279 556.165L899.857 557.626L900.182 553.568Z" fill="#03FC9D" stroke="#03FC9D" stroke-width="3" stroke-linecap="round" stroke-linejoin="round"/><path d="M1024.36 581.005L1014.79 579.544L1014.46 583.602L1024.04 585.063L1024.36 581.005Z" fill="#03FC9D" stroke="#03FC9D" stroke-width="3" stroke-linecap="round" stroke-linejoin="round"/><path d="M1073.71 508.601L1064.14 507.14L1063.81 511.199L1073.39 512.66L1073.71 508.601Z" fill="#003B2F" stroke="#003B2F" stroke-width="3" stroke-linecap="round" stroke-linejoin="round"/><path d="M1144 522.889L1134.43 521.428V523.701L1143.84 525.162V522.889H1144Z" fill="#003B2F" stroke="#003B2F" stroke-width="3" stroke-linecap="round" stroke-linejoin="round"/><path d="M1173.71 521.264L1164.13 519.803V522.076L1173.71 523.537V521.264Z" fill="#003B2F" stroke="#003B2F" stroke-width="3" stroke-linecap="round" stroke-linejoin="round"/><path d="M1098.55 567.368L1088.97 565.907L1087.67 585.062L1097.25 586.523L1098.55 567.368Z" fill="#03FC9D" stroke="#03FC9D" stroke-width="3" stroke-linecap="round" stroke-linejoin="round"/><path d="M1114.62 547.888L1105.04 546.427L1103.74 565.583L1113.32 567.044L1114.62 547.888Z" fill="#03FC9D" stroke="#03FC9D" stroke-width="3" stroke-linecap="round" stroke-linejoin="round"/><path d="M1160.89 517.043L1151.31 515.582L1150.66 525.971L1160.24 527.432L1160.89 517.043Z" fill="#03FC9D" stroke="#03FC9D" stroke-width="3" stroke-linecap="round" stroke-linejoin="round"/><path d="M1188.81 524.351L1179.07 522.89L1177.93 540.097L1187.67 541.558L1188.81 524.351Z" fill="#003B2F" stroke="#003B2F" stroke-width="3" stroke-linecap="round" stroke-linejoin="round"/><path d="M1130.37 522.077L1120.79 520.616L1119.01 548.375L1128.58 549.836L1130.37 522.077Z" fill="#03FC9D" stroke="#03FC9D" stroke-width="3" stroke-linecap="round" stroke-linejoin="round"/><path d="M1226.31 588.635L1216.57 587.174L1214.29 623.374L1224.03 624.835L1226.31 588.635Z" fill="#003B2F" stroke="#003B2F" stroke-width="3" stroke-linecap="round" stroke-linejoin="round"/><path d="M1239.94 625.484L1230.2 624.023L1225.98 690.092L1235.72 691.553L1239.94 625.322V625.484Z" fill="#003B2F" stroke="#003B2F" stroke-width="3" stroke-linecap="round" stroke-linejoin="round"/><path d="M1212.83 586.685L1203.09 585.224L1199.36 643.501L1209.1 644.962L1212.83 586.685Z" fill="#03FC9D" stroke="#03FC9D" stroke-width="3" stroke-linecap="round" stroke-linejoin="round"/><path d="M763.985 458.444L754.57 457.145L754.245 461.528L763.66 462.827L763.985 458.444Z" fill="#003B2F" stroke="#003B2F" stroke-width="3" stroke-linecap="round" stroke-linejoin="round"/><path d="M827.293 557.139L817.715 555.678V558.6L826.968 560.061V557.139H827.293Z" fill="#003B2F" stroke="#003B2F" stroke-width="3" stroke-linecap="round" stroke-linejoin="round"/><path d="M708.141 476.785L698.726 475.487L692.233 564.12L701.648 565.581L708.141 476.948V476.785Z" fill="#003B2F" stroke="#003B2F" stroke-width="3" stroke-linecap="round" stroke-linejoin="round"/><path d="M734.765 486.689L725.35 485.39L717.72 589.121L727.135 590.582L734.765 486.851V486.689Z" fill="#03FC9D" stroke="#03FC9D" stroke-width="3" stroke-linecap="round" stroke-linejoin="round"/><path d="M782.003 396.757L772.588 395.458L767.88 460.553L777.296 461.852L782.003 396.757Z" fill="#03FC9D" stroke="#03FC9D" stroke-width="3" stroke-linecap="round" stroke-linejoin="round"/><path d="M797.587 398.865L788.171 397.566L783.464 462.661L792.879 463.96L797.587 398.865Z" fill="#003B2F" stroke="#003B2F" stroke-width="3" stroke-linecap="round" stroke-linejoin="round"/><path d="M806.352 470.131L796.937 468.833L793.853 512.987L803.268 514.448L806.352 470.294V470.131Z" fill="#003B2F" stroke="#003B2F" stroke-width="3" stroke-linecap="round" stroke-linejoin="round"/><path d="M332.104 442.207C341.714 442.207 349.506 434.416 349.506 424.806C349.506 415.195 341.714 407.404 332.104 407.404C322.493 407.404 314.702 415.195 314.702 424.806C314.702 434.416 322.493 442.207 332.104 442.207Z" stroke="#003B2F" stroke-width="3" stroke-linecap="round" stroke-linejoin="round"/><path d="M587.947 765.119C561.427 786.241 494.618 746.031 438.918 675.467C383.218 604.903 359.749 530.74 386.269 509.696L419.204 484.584C413.65 489.2 410.208 495.85 408.878 504.377C403.636 536.842 427.575 595.124 471.775 651.137C515.193 706.211 565.339 742.901 598.117 746.5C607.427 747.439 615.406 745.874 621.508 741.102L587.947 765.197V765.119Z" fill="#03FC9D"/><path d="M621.51 741.103C615.564 745.953 607.506 747.517 598.119 746.5C565.34 742.902 515.116 706.212 471.776 651.137C427.498 595.203 403.638 536.765 408.879 504.377C410.131 496.007 413.417 489.279 419.206 484.585C446.039 463.384 513.082 503.83 568.939 574.706C624.873 645.427 648.421 719.902 621.666 741.103H621.51Z" fill="#E6E8EA"/><path d="M621.508 741.181L587.947 765.276C561.427 786.398 494.618 746.187 438.918 675.623C383.218 605.06 359.749 530.897 386.269 509.853L419.204 484.741" stroke="#003B2F" stroke-width="3" stroke-linecap="round" stroke-linejoin="round"/><path d="M621.51 741.103C615.564 745.953 607.506 747.517 598.119 746.5C565.34 742.902 515.116 706.212 471.776 651.137C427.498 595.203 403.638 536.765 408.879 504.377C410.131 496.007 413.417 489.279 419.206 484.585C446.039 463.384 513.082 503.83 568.939 574.706C624.873 645.427 648.421 719.902 621.666 741.103H621.51Z" stroke="#003B2F" stroke-width="3" stroke-linecap="round" stroke-linejoin="round"/><path d="M598.038 746.343C565.259 742.745 515.192 706.133 471.617 651.137C427.339 595.202 403.322 536.686 408.72 504.377C409.972 495.85 413.336 489.2 419.046 484.584C445.879 463.384 512.845 503.673 568.779 574.471C624.714 645.348 648.262 719.902 621.507 741.024C615.561 745.874 607.504 747.439 598.194 746.343H598.038Z" stroke="#003B2F" stroke-width="3" stroke-linecap="round" stroke-linejoin="round"/><path d="M420.612 518.614C420.299 514.077 420.456 509.852 420.925 506.332C421.707 500.621 423.663 496.71 426.792 494.285C435.007 487.87 454.095 492.172 476.703 505.706C503.693 521.978 533.029 549.124 559.158 582.294C594.362 626.963 617.753 674.84 620.022 707.306C620.413 714.112 620.256 726.316 613.841 731.401C610.712 733.904 605.94 734.843 599.603 734.061C569.563 730.775 521.138 693.459 481.632 643.47C446.506 599.035 423.116 551.158 420.769 518.614H420.69H420.612Z" stroke="#003B2F" stroke-width="3" stroke-linecap="round" stroke-linejoin="round"/><path d="M523.484 567.352C512.218 552.097 502.596 551.628 493.756 556.165L479.127 534.104L473.181 538.876L487.419 560.311C485.698 561.485 484.212 562.893 482.804 564.223L468.409 542.475L462.464 547.247L477.093 569.308C475.763 570.168 474.511 571.42 473.416 572.593L464.967 579.086L474.433 593.403C474.433 593.403 478.814 589.648 478.892 590.039C481.552 588.318 484.29 590.743 486.324 593.246L502.909 618.28L526.222 653.405C527.395 655.205 528.647 658.256 527.004 659.742L522.545 663.106L531.854 680.082L539.834 673.98C541.398 672.963 542.885 671.946 544.136 670.694L558.922 692.99L564.868 688.218L550.238 666.157C551.959 664.984 553.681 663.888 555.089 662.558L569.718 684.619L575.663 679.847L560.878 657.552C570.187 648.32 573.395 636.821 560.33 615.073C549.691 597.236 541.085 592.699 533.262 594.029C534.201 587.379 531.541 578.461 523.484 567.508H523.64L523.484 567.352ZM546.796 621.8C557.827 638.463 543.824 646.912 539.756 650.042L520.198 620.549C524.344 617.341 535.296 604.511 546.796 621.8ZM516.286 582.45C526.378 597.627 514.409 604.277 510.967 606.937L493.208 580.104C496.572 577.444 505.804 566.648 516.286 582.372V582.45Z" fill="#003B2F"/><path d="M1382.15 493.73C1408.67 514.852 1475.48 474.641 1531.18 404.078C1586.88 333.514 1610.35 259.351 1583.83 238.307L1550.9 213.195C1556.45 217.811 1559.89 224.461 1561.22 232.988C1566.46 265.453 1542.53 323.735 1498.33 379.748C1454.91 434.822 1404.76 471.512 1371.98 475.111C1362.67 476.05 1354.69 474.485 1348.59 469.713L1382.15 493.808V493.73Z" fill="#03FC9D"/><path d="M1348.59 469.714C1354.54 474.564 1362.6 476.129 1371.98 475.112C1404.76 471.513 1454.99 434.823 1498.33 379.749C1542.6 323.814 1566.47 265.376 1561.22 232.988C1559.97 224.618 1556.69 217.89 1550.9 213.196C1524.06 191.996 1457.02 232.441 1401.16 303.317C1345.23 374.038 1321.68 448.513 1348.44 469.714H1348.59Z" fill="#E6E8EA"/><path d="M1348.59 469.791L1382.15 493.886C1408.67 515.009 1475.48 474.798 1531.18 404.234C1586.88 333.67 1610.35 259.508 1583.83 238.464L1550.9 213.352" stroke="#003B2F" stroke-width="3" stroke-linecap="round" stroke-linejoin="round"/><path d="M1348.59 469.714C1354.54 474.564 1362.6 476.129 1371.98 475.112C1404.76 471.513 1454.99 434.823 1498.33 379.749C1542.6 323.814 1566.47 265.376 1561.22 232.988C1559.97 224.618 1556.69 217.89 1550.9 213.196C1524.06 191.996 1457.02 232.441 1401.16 303.317C1345.23 374.038 1321.68 448.513 1348.44 469.714H1348.59Z" stroke="#003B2F" stroke-width="3" stroke-linecap="round" stroke-linejoin="round"/><path d="M1372.06 474.954C1404.84 471.356 1454.91 434.744 1498.48 379.748C1542.76 323.813 1566.78 265.297 1561.38 232.988C1560.13 224.46 1556.76 217.811 1551.05 213.195C1524.22 191.995 1457.26 232.283 1401.32 303.082C1345.39 373.959 1321.84 448.512 1348.59 469.635C1354.54 474.485 1362.6 476.049 1371.91 474.954H1372.06Z" stroke="#003B2F" stroke-width="3" stroke-linecap="round" stroke-linejoin="round"/><path d="M1549.49 247.225C1549.8 242.688 1549.65 238.463 1549.18 234.943C1548.4 229.232 1546.44 225.321 1543.31 222.895C1535.1 216.481 1516.01 220.783 1493.4 234.317C1466.41 250.589 1437.07 277.735 1410.94 310.905C1375.74 355.574 1352.35 403.451 1350.08 435.917C1349.69 442.723 1349.85 454.927 1356.26 460.012C1359.39 462.515 1364.16 463.454 1370.5 462.672C1400.54 459.386 1448.96 422.07 1488.47 372.081C1523.6 327.646 1546.99 279.769 1549.33 247.225H1549.41H1549.49Z" stroke="#003B2F" stroke-width="3" stroke-linecap="round" stroke-linejoin="round"/><path opacity="0.6" fill-rule="evenodd" clip-rule="evenodd" d="M1507.79 267.487L1466.33 320.214L1477.2 361.129L1507.71 267.487H1507.79Z" fill="#003B2F"/><path fill-rule="evenodd" clip-rule="evenodd" d="M1507.79 267.487L1424.08 319.354L1466.33 320.214L1507.79 267.487Z" fill="#003B2F"/><path opacity="0.6" fill-rule="evenodd" clip-rule="evenodd" d="M1423.77 374.428L1395.53 410.336L1470.71 369.422L1423.77 374.428Z" fill="#003B2F"/><path fill-rule="evenodd" clip-rule="evenodd" d="M1395.61 410.335L1423.85 374.428L1417.67 327.646L1395.69 410.335H1395.61Z" fill="#003B2F"/><path opacity="0.2" fill-rule="evenodd" clip-rule="evenodd" d="M1430.34 366.136L1477.28 361.129L1466.41 320.214L1430.34 366.136Z" fill="#003B2F"/><path opacity="0.6" fill-rule="evenodd" clip-rule="evenodd" d="M1424.08 319.432L1430.26 366.214L1466.33 320.293L1424.08 319.432Z" fill="#003B2F"/><path d="M1810.73 379.072C1788.9 391.276 1767.39 395.657 1757.84 390.728C1756.12 389.868 1754.71 388.616 1753.85 387.051C1748.22 377.038 1764.57 357.246 1790.31 342.773C1816.05 328.379 1841.55 324.702 1847.18 334.793L1847.73 336.123C1848.28 337.766 1848.43 339.644 1847.96 341.756C1845.93 352.473 1831.38 367.494 1810.65 379.15L1810.73 379.072Z" fill="#E6E8EA"/><path d="M1847.81 336.124L1852.03 345.433C1857.66 355.447 1841.31 375.239 1815.58 389.711C1789.84 404.184 1764.34 407.704 1758.7 397.691L1758.16 396.361L1753.93 387.052C1754.79 388.616 1756.12 389.868 1757.92 390.728C1767.47 395.735 1788.98 391.276 1810.8 379.072C1831.54 367.416 1846.16 352.317 1848.12 341.678C1848.51 339.644 1848.43 337.688 1847.89 336.045L1847.81 336.124Z" fill="#03FC9D"/><path d="M1847.81 336.124L1852.03 345.433C1857.66 355.447 1841.31 375.239 1815.58 389.712C1789.84 404.184 1764.34 407.705 1758.7 397.691L1758.16 396.361L1753.93 387.052" stroke="#003B2F" stroke-width="3" stroke-linecap="round" stroke-linejoin="round"/><path d="M1847.81 336.124C1848.36 337.767 1848.51 339.644 1848.04 341.756C1846.01 352.474 1831.46 367.494 1810.73 379.151C1788.9 391.354 1767.39 395.735 1757.84 390.807C1756.12 389.946 1754.72 388.695 1753.85 387.13" stroke="#003B2F" stroke-width="3" stroke-linecap="round" stroke-linejoin="round"/><path d="M1757.84 390.728C1756.12 389.868 1754.71 388.616 1753.85 387.051C1748.22 377.038 1764.57 357.167 1790.31 342.695C1816.05 328.3 1841.55 324.702 1847.18 334.715L1847.73 336.045C1848.28 337.688 1848.43 339.644 1847.97 341.678C1845.93 352.317 1831.38 367.416 1810.65 379.072C1788.82 391.276 1767.31 395.735 1757.77 390.728H1757.84Z" stroke="#003B2F" stroke-width="3" stroke-linecap="round" stroke-linejoin="round"/><path d="M1756.82 382.671C1756.75 374.691 1769.18 359.28 1792.34 346.294C1804.39 339.566 1816.67 335.028 1826.84 333.62C1835.45 332.369 1841.86 333.62 1843.58 336.749L1843.97 337.688C1843.97 337.688 1844.13 338.471 1844.13 339.096C1844.13 339.644 1844.13 340.27 1843.97 340.817C1842.49 348.797 1830.75 363.035 1808.69 375.474C1786.4 387.99 1766.84 390.807 1759.64 387.052C1758.47 386.504 1757.84 385.878 1757.37 385.018C1756.98 384.314 1756.82 383.531 1756.75 382.514L1756.82 382.671Z" stroke="#003B2F" stroke-width="3" stroke-linecap="round" stroke-linejoin="round"/><path fill-rule="evenodd" clip-rule="evenodd" d="M1811.51 341.678L1821.83 356.463L1814.25 361.783L1803.92 346.997L1811.51 341.678ZM1796.88 365.225L1777.32 378.915L1775.13 375.786L1794.69 362.096L1796.88 365.225Z" fill="#003B2F"/><path fill-rule="evenodd" clip-rule="evenodd" d="M1804 357.872C1800.32 352.63 1795.08 349.97 1792.34 351.926C1789.53 353.882 1790.23 359.671 1793.91 364.991C1797.59 370.31 1802.83 372.892 1805.56 370.936C1808.3 368.98 1807.68 363.191 1804 357.95V357.872ZM1796.41 363.191C1792.73 357.95 1791.33 353.412 1792.66 352.474C1793.99 351.535 1799.07 353.569 1802.75 358.81C1806.43 364.052 1806.58 369.45 1805.17 370.388C1803.77 371.327 1800.01 368.433 1796.41 363.191Z" fill="#003B2F"/><path fill-rule="evenodd" clip-rule="evenodd" d="M1810.18 355.916L1798.76 363.896L1796.57 360.766L1807.99 352.787L1810.18 355.916Z" fill="#003B2F"/><path d="M1595.16 801.009L1604.7 819.158C1605.33 820.332 1606.5 821.114 1607.91 821.192C1613.85 821.661 1632.24 820.644 1672.29 800.148C1713.29 779.182 1725.72 763.38 1728.93 758.138C1729.64 757.043 1729.64 755.635 1729.09 754.461L1719.47 735.217" fill="#03FC9D"/><path d="M1595.16 801.009L1604.7 819.158C1605.33 820.332 1606.5 821.114 1607.91 821.192C1613.85 821.661 1632.24 820.644 1672.29 800.148C1713.29 779.182 1725.72 763.38 1728.93 758.138C1729.64 757.043 1729.64 755.635 1729.09 754.461L1719.47 735.217" stroke="#003B2F" stroke-width="3" stroke-miterlimit="10"/><path d="M1651.09 754.774C1616.2 772.298 1591.17 792.951 1595.16 800.93C1595.39 801.478 1595.78 801.947 1596.33 802.338C1597.51 803.199 1599.15 803.746 1601.42 803.981C1613 805.155 1638.26 797.41 1665.64 783.719C1693.03 770.029 1714.54 754.148 1720.41 744.135C1721.97 741.475 1722.44 739.206 1721.58 737.485C1717.59 729.506 1685.98 737.172 1651.09 754.696V754.774Z" fill="#E6E8EA" stroke="#003B2F" stroke-width="3" stroke-miterlimit="10"/><path d="M1652.89 758.686C1623.87 773.236 1602.75 790.525 1605.48 796.08C1608.22 801.634 1634.04 794.28 1663.14 779.73C1692.24 765.179 1713.52 748.829 1710.7 743.274C1707.89 737.72 1681.92 744.135 1652.89 758.686Z" stroke="#003B2F" stroke-width="3" stroke-linecap="round" stroke-linejoin="round"/><path fill-rule="evenodd" clip-rule="evenodd" d="M1646.24 778.4L1643.12 780.669L1643.51 777.305L1646.64 775.036L1647.73 764.866L1660.09 758.686L1659.23 766.196L1662.36 763.927L1661.97 767.291L1658.84 769.56L1658.37 773.784L1676.91 764.475L1676.36 768.856L1645.46 784.345L1646.09 778.556H1646.17L1646.24 778.4Z" fill="#003B2F"/><path d="M217.971 199.343L198.961 190.738C197.318 189.955 195.362 189.955 193.876 190.972C188.087 194.727 173.379 207.401 152.57 248.002C131.135 289.855 129.727 310.899 130.04 317.94C130.118 319.661 131.057 321.148 132.543 321.93L149.285 330.692" fill="#03FC9D"/><path d="M217.971 199.343L198.961 190.738C197.318 189.955 195.362 189.955 193.876 190.972C188.087 194.727 173.379 207.401 152.57 248.002C131.135 289.855 129.727 310.899 130.04 317.94C130.118 319.661 131.057 321.148 132.543 321.93L149.285 330.692" stroke="#003B2F" stroke-width="3" stroke-miterlimit="10"/><path d="M198.646 272.879C217.578 236.58 226.183 203.645 217.891 199.342C217.343 199.03 216.717 198.873 216.092 198.873C214.605 198.873 212.806 199.421 210.772 200.594C200.211 206.696 183.391 228.757 168.527 257.155C153.664 285.552 145.058 312.307 146.232 324.355C146.545 327.562 147.562 329.753 149.283 330.691C157.575 335.072 179.714 309.178 198.646 272.879Z" fill="#E6E8EA" stroke="#003B2F" stroke-width="3" stroke-miterlimit="10"/><path d="M194.738 270.767C210.54 240.57 217.894 212.955 212.183 209.904C206.472 206.853 188.949 228.914 173.146 259.189C157.343 289.464 149.208 316.297 154.997 319.348C160.786 322.399 178.935 300.964 194.738 270.767Z" stroke="#003B2F" stroke-width="3" stroke-linecap="round" stroke-linejoin="round"/><path d="M166.964 288.682L175.57 273.974L184.253 259.267L192.859 244.56L194.267 242.213L193.641 244.168L191.138 252.383L188.165 257.389L179.559 272.097L170.876 286.804L174.866 284.926L183.549 270.219L188.008 262.553L186.053 269.046L182.219 281.484L185.74 279.841L189.573 267.325L193.406 254.964L194.345 251.757L200.76 240.804L197.161 242.526L197.474 241.587L200.603 231.417L200.995 230.087L197.552 231.73L197.318 232.043L188.869 246.437L180.264 261.144L171.658 275.773L162.975 290.559L166.964 288.682Z" fill="#003B2F"/><g clip-path="url(#clip1_897_2)"><path d="M1648.91 964.917L1619.49 1001.53L1245.65 703.426L1275.08 666.817L1648.91 964.917Z" fill="#03FC9D" stroke="#003B2F" stroke-width="4.07704" stroke-linecap="round" stroke-linejoin="round"/><g style="mix-blend-mode:multiply" opacity="0.15"><path d="M1263.15 463.353C1202.81 385.15 1089.97 371.074 1011.12 431.914C932.259 492.754 917.245 605.472 977.581 683.676C1037.92 761.88 1150.76 775.956 1229.61 715.115C1308.47 654.275 1323.49 541.557 1263.15 463.353Z" fill="#03FC9D"/></g><path d="M1326.38 708.605L1297.86 744.168C1293.13 750.05 1294.06 758.599 1299.94 763.331L1606.39 1007.68C1612.27 1012.42 1620.84 1011.29 1625.57 1005.41L1654.09 969.848C1658.82 963.967 1657.89 955.417 1652.01 950.686L1345.48 706.224C1339.6 701.493 1331.02 702.615 1326.29 708.497L1326.38 708.605Z" fill="#03FC9D" stroke="#003B2F" stroke-width="4.07704" stroke-linecap="round" stroke-linejoin="round"/><path d="M1233.96 710.735L1245.11 719.635C1248.19 722.066 1252.72 721.488 1255.24 718.518L1291.94 672.867C1294.37 669.789 1293.98 665.282 1290.9 662.851L1279.75 653.951L1234.04 710.842L1233.96 710.735Z" fill="#003B2F"/><path d="M1269.29 692.231C1203.05 774.573 1082.28 788.452 1000.22 723.027C918.156 657.603 905.289 537.25 971.442 454.8C1037.79 372.374 1158.45 358.578 1240.51 424.003C1322.57 489.428 1335.44 609.781 1269.29 692.231ZM989.468 469.042C931.173 541.654 942.428 647.459 1014.73 705.134C1086.95 762.701 1193.16 750.624 1251.45 678.013C1309.75 605.401 1298.49 499.596 1226.19 441.921C1153.97 384.354 1047.76 396.431 989.468 469.042Z" fill="#003B2F"/></g><path d="M1123.71 230.135L1137.42 243.845" stroke="#003B2F" stroke-width="3" stroke-linecap="round" stroke-linejoin="round"/><path d="M1147.44 253.865L1161.15 267.487" stroke="#003B2F" stroke-width="3" stroke-linecap="round" stroke-linejoin="round"/><path d="M1123.71 267.487L1137.42 253.865" stroke="#003B2F" stroke-width="3" stroke-linecap="round" stroke-linejoin="round"/><path d="M1147.44 243.845L1161.15 230.135" stroke="#003B2F" stroke-width="3" stroke-linecap="round" stroke-linejoin="round"/><path d="M1779.04 637.099H1734.04C1748.28 637.099 1759.79 626.904 1759.79 614.336C1759.79 601.768 1748.28 591.573 1734.04 591.573H1604.76C1590.52 591.573 1579.01 601.768 1579.01 614.336H1539.28C1525.05 614.336 1513.53 624.531 1513.53 637.099C1513.53 649.667 1525.05 659.862 1539.28 659.862H1624.01C1624.01 672.43 1635.52 682.625 1649.76 682.625H1779.04C1793.28 682.625 1804.79 672.43 1804.79 659.862C1804.79 647.294 1793.28 637.099 1779.04 637.099Z" fill="#E6E8EA"/><path d="M1622.6 620.839H1654.86" stroke="#003B2F" stroke-width="3" stroke-linecap="round" stroke-linejoin="round"/><path d="M1696.52 571.183H1930.12" stroke="#03FC9D" stroke-width="3" stroke-linecap="round" stroke-linejoin="round"/><path d="M1696.52 620.664H1827.12" stroke="#003B2F" stroke-width="3" stroke-linecap="round" stroke-linejoin="round"/><path d="M198.944 867.126H348.089C364.496 867.126 377.795 853.826 377.795 837.42V837.332C377.795 820.926 364.496 807.626 348.089 807.626H198.944C182.537 807.626 169.237 820.926 169.237 837.332V837.42C169.237 853.826 182.537 867.126 198.944 867.126Z" fill="#03FC9D"/><path d="M146.475 902.545H295.621C312.027 902.545 325.327 889.245 325.327 872.839V872.751C325.327 856.345 312.027 843.045 295.621 843.045H146.475C130.069 843.045 116.769 856.345 116.769 872.751V872.839C116.769 889.245 130.069 902.545 146.475 902.545Z" fill="#03FC9D"/><path d="M1067.7 866.335L1088.44 878.288" stroke="#003B2F" stroke-width="3" stroke-linecap="round" stroke-linejoin="round"/><path d="M1109.18 866.335L1097.05 873.366" stroke="#003B2F" stroke-width="3" stroke-linecap="round" stroke-linejoin="round"/><path d="M1088.44 878.288V902.545" stroke="#003B2F" stroke-width="3" stroke-linecap="round" stroke-linejoin="round"/><path d="M528.039 966.803H568.383" stroke="#003B2F" stroke-width="3" stroke-linecap="round" stroke-linejoin="round"/><path d="M620.489 904.694H912.68" stroke="#03FC9D" stroke-width="3" stroke-linecap="round" stroke-linejoin="round"/><path d="M620.489 966.584H783.843" stroke="#003B2F" stroke-width="3" stroke-linecap="round" stroke-linejoin="round"/><path d="M836.542 171.485H930.886C941.284 171.485 949.714 162.978 949.714 152.485C949.714 141.991 941.284 133.485 930.886 133.485H836.542C826.143 133.485 817.714 141.991 817.714 152.485C817.714 162.978 826.143 171.485 836.542 171.485Z" fill="#03FC9D"/><path d="M887.694 142.485L1042.73 142.485C1059.84 142.485 1073.71 128.605 1073.71 111.485C1073.71 94.3638 1059.84 80.4846 1042.73 80.4846L887.694 80.4846C870.584 80.4846 856.714 94.3638 856.714 111.485C856.714 128.605 870.584 142.485 887.694 142.485Z" fill="#03FC9D"/><path d="M120.526 534.104L130.465 555.224" stroke="#003B2F" stroke-width="3" stroke-linecap="round" stroke-linejoin="round"/><path d="M137.711 570.754L147.65 591.874" stroke="#003B2F" stroke-width="3" stroke-linecap="round" stroke-linejoin="round"/><path d="M105.203 576.552L126.324 566.613" stroke="#003B2F" stroke-width="3" stroke-linecap="round" stroke-linejoin="round"/><path d="M141.854 559.366L162.975 549.427" stroke="#003B2F" stroke-width="3" stroke-linecap="round" stroke-linejoin="round"/></g><defs><clipPath id="clip0_897_2"><rect width="1920" height="1080" fill="white" transform="translate(0 0.211914)"/></clipPath><clipPath id="clip1_897_2"><rect width="843.267" height="384.736" fill="white" transform="translate(1367.32 1207.75) rotate(-127.651)"/></clipPath></defs></svg>