<svg width="1920" height="1080" viewBox="0 0 1920 1080" fill="none" xmlns="http://www.w3.org/2000/svg"><path d="M1378.21 174.365H495.167V828.578H1378.21V174.365Z" fill="#E6E8EA"/><path d="M1235.32 934.108C1339.99 934.108 1424.83 922.881 1424.83 909.032C1424.83 895.182 1339.99 883.955 1235.32 883.955C1130.66 883.955 1045.81 895.182 1045.81 909.032C1045.81 922.881 1130.66 934.108 1235.32 934.108Z" fill="#E6E8EA"/><path d="M1404.59 147.982H521.55V235.88H1404.59V147.982Z" fill="#00FF94" stroke="#163B2F" stroke-width="3.91823" stroke-linecap="round" stroke-linejoin="round"/><path d="M1404.59 147.982H521.55V802.195H1404.59V147.982Z" stroke="#163B2F" stroke-width="3.91823" stroke-linecap="round" stroke-linejoin="round"/><path d="M618.33 188.339C618.33 194.608 613.236 199.571 607.097 199.571C600.959 199.571 595.865 194.478 595.865 188.339C595.865 182.201 600.959 177.107 607.097 177.107C613.236 177.107 618.33 182.201 618.33 188.339Z" fill="white"/><path d="M664.693 188.339C664.693 194.608 659.599 199.571 653.461 199.571C647.322 199.571 642.229 194.478 642.229 188.339C642.229 182.201 647.322 177.107 653.461 177.107C659.599 177.107 664.693 182.201 664.693 188.339Z" fill="white"/><path d="M711.19 188.339C711.19 194.608 706.096 199.571 699.958 199.571C693.819 199.571 688.726 194.478 688.726 188.339C688.726 182.201 693.819 177.107 699.958 177.107C706.096 177.107 711.19 182.201 711.19 188.339Z" fill="white"/><path d="M1186.87 435.188L1217.3 374.455C1219.52 369.884 1226.7 369.492 1230.75 373.672L1265.23 409.589L1186.87 435.188Z" fill="#003D2E"/><path d="M1231.53 413.507L1287.69 373.279C1292.13 370.798 1298.27 374.847 1299.45 380.985L1308.72 433.359L1231.53 413.376V413.507Z" fill="#003D2E"/><path d="M1351.3 862.143H1125.61C1112.03 862.143 1100.8 873.245 1100.8 886.958C1100.8 900.672 1111.9 911.774 1125.61 911.774H1351.3C1364.89 911.774 1376.12 900.672 1376.12 886.958C1376.12 873.245 1365.02 862.143 1351.3 862.143Z" fill="#003D2E"/><path d="M1139.85 563.184C1139.85 563.184 1170.8 539.674 1200.32 549.862C1214.29 554.694 1225.65 556.653 1234.93 556L1232.19 559.004C1221.48 608.504 1208.02 598.578 1176.15 634.234C1130.31 685.302 1128.22 738.328 1128.48 751.389C1128.48 753.087 1130.7 756.875 1132.01 758.442L1160.22 787.176L1121.17 830.015C1119.21 833.019 1118.16 836.545 1118.16 840.202C1118.16 852.088 1129.4 861.883 1143.24 861.883H1332.1C1345.94 861.883 1357.18 852.088 1357.18 840.202C1357.18 838.243 1356.26 834.325 1356.26 834.194L1318.91 787.045L1343.46 758.181C1344.77 756.613 1346.73 753.087 1346.99 751.52L1369.32 579.51C1379.77 537.193 1366.19 491.219 1366.19 491.219C1349.08 443.808 1308.07 410.242 1259.87 401.622L1218.08 399.793C1208.02 400.316 1198.62 404.365 1191.31 411.287L1098.18 500.1C1083.29 514.336 1080.81 537.193 1092.44 554.302C1092.44 554.302 1107.72 581.338 1140.11 562.922L1139.85 563.184Z" fill="#003D2E"/><path d="M1206.33 462.092C1206.33 467.447 1210.77 471.888 1216.12 471.888C1221.48 471.888 1225.92 467.447 1225.92 462.092C1225.92 456.737 1221.48 452.296 1216.12 452.296C1210.77 452.296 1206.33 456.737 1206.33 462.092Z" fill="white"/><path d="M1197.32 797.493L1205.67 847.646H1160.09L1172.63 797.101L1197.32 797.493Z" fill="white"/><path d="M1163.75 894.404H1204.36V878.731H1163.75V894.404Z" fill="white"/><path d="M1189.74 652.387C1203.19 631.751 1225.52 617.384 1237.28 595.834H1252.17C1244.46 613.466 1231.01 626.004 1217.43 639.979C1194.31 663.881 1193.53 692.484 1195.88 725.789C1195.88 726.05 1171.98 726.311 1171.98 726.311C1171.98 726.18 1171.98 725.919 1171.98 725.789C1170.15 699.928 1175.63 674.199 1190 652.256L1189.74 652.387Z" fill="white"/><path d="M1178.38 438.844C1160.22 453.995 1143.38 470.582 1127.96 488.475C1124.44 492.655 1130.45 498.663 1133.97 494.483C1149.38 476.59 1166.23 459.872 1184.39 444.852C1186.22 443.416 1185.95 440.281 1184.39 438.844C1182.69 437.146 1180.08 437.408 1178.38 438.844Z" fill="white"/><path d="M1110.85 537.192C1110.85 537.192 1117.25 524.784 1129.53 528.833" stroke="white" stroke-width="3.91823" stroke-linecap="round" stroke-linejoin="round"/><path d="M1223.57 555.869C1223.57 555.869 1244.99 564.359 1271.24 531.576" stroke="white" stroke-width="3.91823" stroke-linecap="round" stroke-linejoin="round"/><path d="M1253.6 399.532L1289 406.454" stroke="white" stroke-width="3.91823" stroke-linecap="round" stroke-linejoin="round"/><path d="M1160.09 787.305H1310.55" stroke="white" stroke-width="3.91823" stroke-linecap="round" stroke-linejoin="round"/><path d="M1160.09 862.143H1310.55" stroke="white" stroke-width="3.91823" stroke-linecap="round" stroke-linejoin="round"/><path d="M1153.3 541.371C1153.3 541.371 1156.04 503.234 1120.65 492.002" stroke="white" stroke-width="3.91823" stroke-linecap="round" stroke-linejoin="round"/><path d="M801.083 524.861C863.075 510.879 901.994 449.291 888.012 387.299C874.031 325.307 812.442 286.388 750.45 300.369C688.459 314.351 649.539 375.94 663.521 437.931C677.503 499.923 739.091 538.843 801.083 524.861Z" fill="#003D2E"/><path d="M662.867 390.388C661.43 397.572 660.646 405.016 660.646 412.592C660.646 436.754 668.091 459.088 680.76 477.634L775.712 412.592L662.736 390.388H662.867Z" fill="#03FC9E"/><path d="M666.392 448.118C673.184 469.276 685.983 487.692 702.701 501.537L775.841 412.723L666.392 448.249V448.118Z" fill="#03FC9E"/><path d="M661.169 402.796L775.843 412.723L719.29 312.416C687.03 330.701 664.435 364.006 661.169 402.796Z" fill="white"/><path d="M760.561 526.744L775.842 412.723L704.791 466.926L686.768 485.733C704.791 507.675 730.913 522.826 760.43 526.874L760.561 526.744Z" fill="#03FC9E"/><path d="M1159.17 391.434H948.896C942.104 391.434 936.619 385.949 936.619 379.157C936.619 372.366 942.104 366.88 948.896 366.88H1159.17C1165.97 366.88 1171.45 372.366 1171.45 379.157C1171.45 385.949 1165.97 391.434 1159.17 391.434Z" fill="white"/><path d="M1045.55 458.305H952.684C945.892 458.305 940.407 452.82 940.407 446.028C940.407 439.237 945.892 433.751 952.684 433.751H1045.55C1052.34 433.751 1057.82 439.237 1057.82 446.028C1057.82 452.82 1052.34 458.305 1045.55 458.305Z" fill="white"/><path d="M957.649 625.351H926.434V730.229H957.649V625.351Z" fill="white"/><path d="M910.629 625.351H879.414V730.229H910.629V625.351Z" fill="white"/><path d="M863.609 625.351H832.394V730.229H863.609V625.351Z" fill="white"/><path d="M816.462 625.351H785.247V730.229H816.462V625.351Z" fill="white"/><path d="M983.377 579.9L1001.53 581.468L993.695 597.14" stroke="#163B2F" stroke-width="3.91823" stroke-linecap="round" stroke-linejoin="round"/><path d="M790.992 642.331L856.557 604.454L892.997 644.551L998.789 583.165" stroke="#163B2F" stroke-width="3.91823" stroke-linecap="round" stroke-linejoin="round"/><path d="M816.462 720.303H785.247V730.23H816.462V720.303Z" fill="#03FC9E"/><path d="M863.609 695.097H832.394V730.361H863.609V695.097Z" fill="#03FC9E"/><path d="M910.629 666.101H879.414V730.229H910.629V666.101Z" fill="#03FC9E"/><path d="M957.649 715.209H926.434V730.229H957.649V715.209Z" fill="#03FC9E"/><path d="M1004.67 625.351H973.454V730.229H1004.67V625.351Z" fill="#03FC9E"/><path d="M764.348 745.773H1030.13" stroke="#163B2F" stroke-width="3.91823" stroke-linecap="round" stroke-linejoin="round"/><path d="M1832.72 357.345H1788.34C1802.31 357.345 1813.84 345.962 1813.84 331.841C1813.84 317.721 1802.46 306.338 1788.34 306.338H1660.82C1646.85 306.338 1635.32 317.721 1635.32 331.841H1596.13C1582.15 331.841 1570.62 343.224 1570.62 357.345C1570.62 371.465 1582.01 382.848 1596.13 382.848H1679.7C1679.7 396.824 1691.08 408.351 1705.2 408.351H1832.72C1846.69 408.351 1858.22 396.968 1858.22 382.848C1858.22 368.727 1846.84 357.345 1832.72 357.345Z" fill="#03FC9D"/><path d="M1508.9 462.092L1730.65 462.092C1755.08 462.092 1774.89 442.288 1774.89 417.858C1774.89 393.428 1755.08 373.623 1730.65 373.623H1508.9C1484.47 373.623 1464.67 393.428 1464.67 417.858C1464.67 442.288 1484.47 462.092 1508.9 462.092Z" fill="#E6E8EA"/><path d="M227.762 720.303L250.706 733.525" stroke="#003B2F" stroke-width="3" stroke-linecap="round" stroke-linejoin="round"/><path d="M273.65 720.304L260.233 728.081" stroke="#003B2F" stroke-width="3" stroke-linecap="round" stroke-linejoin="round"/><path d="M250.705 733.525V760.358" stroke="#003B2F" stroke-width="3" stroke-linecap="round" stroke-linejoin="round"/><path d="M345.972 911.774H410.137" stroke="#003B2F" stroke-width="3" stroke-linecap="round" stroke-linejoin="round"/><path d="M297.265 911.774H313.404" stroke="#003B2F" stroke-width="3" stroke-linecap="round" stroke-linejoin="round"/><path d="M355.305 867.637H521.55" stroke="#03FC9D" stroke-width="3" stroke-linecap="round" stroke-linejoin="round"/><path d="M1464.67 665.132C1474.14 665.132 1481.82 657.455 1481.82 647.985C1481.82 638.515 1474.14 630.838 1464.67 630.838C1455.2 630.838 1447.52 638.515 1447.52 647.985C1447.52 657.455 1455.2 665.132 1464.67 665.132Z" stroke="#003B2F" stroke-width="3.74268" stroke-linecap="round" stroke-linejoin="round"/><path d="M373.302 245.207H318.682C335.99 245.207 350.038 232.507 350.038 216.773C350.038 201.039 335.99 188.339 318.682 188.339H161.791C144.484 188.339 130.435 201.039 130.435 216.773H82.2215C64.914 216.773 50.8657 229.473 50.8657 245.207C50.8657 260.941 64.914 273.64 82.2215 273.64H185.055C185.055 289.374 199.103 302.074 216.411 302.074H373.302C390.61 302.074 404.658 289.374 404.658 273.64C404.658 257.906 390.61 245.207 373.302 245.207Z" fill="#00FF94"/><path d="M111.341 454.341H299.568" stroke="#03FC9D" stroke-width="3.74268" stroke-linecap="round" stroke-linejoin="round"/><path d="M258.591 495.836H403.771" stroke="#003B2F" stroke-width="3.74268" stroke-linecap="round" stroke-linejoin="round"/><path d="M1524.32 926.887H1563.43" stroke="#003C2E" stroke-width="3.37159" stroke-linecap="round" stroke-linejoin="round"/><path d="M1666.71 883.955H1858.22" stroke="#00FF94" stroke-width="3.37159" stroke-linecap="round" stroke-linejoin="round"/><path d="M1614 926.774H1772.58" stroke="#003C2E" stroke-width="3.37159" stroke-linecap="round" stroke-linejoin="round"/></svg>