<?xml version="1.0" encoding="UTF-8"?><svg id="Layer_1" data-name="Layer 1" xmlns="http://www.w3.org/2000/svg" viewBox="0 0 192 108"><defs><style>.cls-1 {
        stroke: #163b2f;
      }

      .cls-1, .cls-2, .cls-3, .cls-4 {
        fill: none;
      }

      .cls-1, .cls-2, .cls-3, .cls-4, .cls-5, .cls-6, .cls-7, .cls-8 {
        stroke-width: .35px;
      }

      .cls-1, .cls-2, .cls-3, .cls-4, .cls-8 {
        stroke-linecap: round;
        stroke-linejoin: round;
      }

      .cls-2 {
        stroke: #00ff94;
      }

      .cls-3 {
        stroke: #003c2e;
      }

      .cls-4, .cls-5, .cls-6, .cls-7, .cls-8 {
        stroke: #003d2e;
      }

      .cls-9, .cls-5 {
        fill: #00ff94;
      }

      .cls-10 {
        fill: #003d2e;
      }

      .cls-11, .cls-6 {
        fill: #e3e7e3;
      }

      .cls-5, .cls-6, .cls-7 {
        stroke-miterlimit: 10;
      }

      .cls-7, .cls-8 {
        fill: #fff;
      }</style></defs><rect class="cls-4" x="174.18" y="86.33" width="3.18" height="3.18" transform="translate(113.65 -98.54) rotate(45)"/><path class="cls-9" d="M160.63,95.39h-5.03c1.59,0,2.88-1.17,2.88-2.62s-1.29-2.62-2.88-2.62h-14.46c-1.59,0-2.88,1.17-2.88,2.62h-4.44c-1.59,0-2.88,1.17-2.88,2.62s1.29,2.62,2.88,2.62h9.47c0,1.45,1.29,2.62,2.88,2.62h14.46c1.59,0,2.88-1.17,2.88-2.62s-1.29-2.62-2.88-2.62Z"/><line class="cls-3" x1="151.84" y1="93.53" x2="155.45" y2="93.53"/><line class="cls-2" x1="146.63" y1="83.93" x2="172.76" y2="83.93"/><line class="cls-3" x1="160.11" y1="93.51" x2="174.72" y2="93.51"/><rect class="cls-4" x="90.01" y="9.32" width="3.18" height="3.18" transform="translate(34.54 -61.57) rotate(45)"/><line class="cls-2" x1="62.46" y1="6.93" x2="88.59" y2="6.93"/><line class="cls-3" x1="70.85" y1="12.96" x2="85.45" y2="12.96"/><g><line class="cls-4" x1="40.29" y1="83.93" x2="42.91" y2="85.44"/><line class="cls-4" x1="45.52" y1="83.93" x2="43.98" y2="84.82"/><line class="cls-4" x1="42.91" y1="85.44" x2="42.91" y2="88.49"/></g><line class="cls-3" x1="22.57" y1="53.99" x2="29.87" y2="53.99"/><line class="cls-3" x1="17.02" y1="53.99" x2="18.86" y2="53.99"/><line class="cls-2" x1="24.57" y1="92.63" x2="43.49" y2="92.63"/><g><line class="cls-1" x1="6.24" y1="47.29" x2="7.96" y2="49.01"/><line class="cls-1" x1="9.22" y1="50.27" x2="10.95" y2="52"/><line class="cls-1" x1="6.24" y1="52" x2="7.96" y2="50.27"/><line class="cls-1" x1="9.22" y1="49.01" x2="10.95" y2="47.29"/></g><line class="cls-3" x1="145.54" y1="16.1" x2="149.44" y2="16.1"/><line class="cls-2" x1="154.47" y1="10.88" x2="182.71" y2="10.88"/><line class="cls-3" x1="179.73" y1="19.61" x2="195.52" y2="19.61"/><path class="cls-11" d="M182.12,51.9h-5.44c1.72,0,3.12-1.23,3.12-2.75s-1.4-2.75-3.12-2.75h-15.63c-1.72,0-3.12,1.23-3.12,2.75h-4.8c-1.72,0-3.12,1.23-3.12,2.75s1.4,2.75,3.12,2.75h10.24c0,1.52,1.4,2.75,3.12,2.75h15.63c1.72,0,3.12-1.23,3.12-2.75s-1.4-2.75-3.12-2.75Z"/><line class="cls-3" x1="172.62" y1="49.94" x2="176.52" y2="49.94"/><line class="cls-2" x1="166.99" y1="39.86" x2="195.22" y2="39.86"/><line class="cls-3" x1="181.56" y1="49.92" x2="197.34" y2="49.92"/><line class="cls-3" x1="31.1" y1="98.22" x2="38.99" y2="98.22"/><line class="cls-3" x1="25.1" y1="98.22" x2="27.09" y2="98.22"/><g><line class="cls-1" x1="13.45" y1="90.98" x2="15.31" y2="92.85"/><line class="cls-1" x1="16.67" y1="94.21" x2="18.54" y2="96.08"/><line class="cls-1" x1="13.45" y1="96.08" x2="15.31" y2="94.21"/><line class="cls-1" x1="16.67" y1="92.85" x2="18.54" y2="90.98"/></g><path class="cls-11" d="M43.41,10.75h-5.44c1.72,0,3.12-1.4,3.12-3.12s-1.4-3.12-3.12-3.12h-15.63c-1.72,0-3.12,1.4-3.12,3.12h-4.8c-1.72,0-3.12,1.4-3.12,3.12s1.4,3.12,3.12,3.12h10.24c0,1.72,1.4,3.12,3.12,3.12h15.63c1.72,0,3.12-1.4,3.12-3.12s-1.4-3.12-3.12-3.12Z"/><path class="cls-9" d="M20.44,7.54H.15c.07,3.68,.01,7.25-.06,10.85H20.44c3,0,5.42-2.43,5.42-5.42s-2.43-5.42-5.42-5.42Z"/><path class="cls-7" d="M95.37,22.96c-12.22,0-22.12,3.84-22.12,8.59s9.9,8.59,22.12,8.59,22.11-3.84,22.11-8.59-9.9-8.59-22.11-8.59Zm-.02,11.63c-5.38,0-9.73-1.07-9.73-2.39s4.35-2.4,9.73-2.4,9.73,1.07,9.73,2.4-4.35,2.39-9.73,2.39Z"/><path class="cls-5" d="M105.08,32.2c0,1.32-4.35,2.39-9.73,2.39s-9.73-1.07-9.73-2.39,4.35-2.4,9.73-2.4,9.73,1.07,9.73,2.4Z"/><path class="cls-6" d="M117.49,31.55v62.59c0,4.74-9.9,8.59-22.11,8.59s-22.12-3.85-22.12-8.59V31.55c0,4.74,9.9,8.59,22.12,8.59s22.11-3.84,22.11-8.59Z"/><g><path class="cls-5" d="M101.8,60.89c-.19-3.77-2.88-6.51-6.4-6.51-3.61,.02-6.31,2.72-6.45,6.45-.11,2.62-.11,5.23,0,7.78,.14,3.71,2.7,6.33,6.26,6.36h.07c3.75,0,6.36-2.6,6.54-6.49,.04-.87,.04-1.71,.02-2.58l-.02-2.28c.02-.92,.04-1.84-.02-2.74Zm-1.75,7.51c-.12,2.97-2.05,4.84-4.83,4.81-2.55-.02-4.4-1.87-4.51-4.65-.11-2.55-.11-5.11,0-7.65,.11-2.85,2.05-4.76,4.68-4.76,2.55-.02,4.49,1.98,4.63,4.83,.07,1.27,.02,2.55,.02,3.82h.02c0,1.2,.04,2.42-.02,3.61Z"/><path class="cls-5" d="M97.13,80.21v4.4h2.95s0,1.77,0,1.77h-9.44s0-1.77,0-1.77h2.95v-4.4c-1.94-.41-4.3-1.49-6.2-3.59-1.94-2.14-4.1-6.12-3.45-12.96l1.75,.18c-1.11,11.72,6.43,14.8,9.67,14.8s10.96-3.08,9.65-14.8l1.75-.19c.76,6.75-1.36,10.73-3.27,12.87-1.94,2.17-4.37,3.29-6.36,3.69Z"/></g><path class="cls-8" d="M112.21,26c1.37-3.21,4.19-5.69,7.54-6.98,5.25-2.02,11.49-.91,15.66,2.87,3.67,3.32,4.87,8.51,3.43,13.19-1.66,5.41-6.04,8.22-11.16,9.95-5.73,1.94-11.56,3.5-17.08,6.03-.15,.07-.33,.14-.48,.06-.1-.06,2.2-3.59,2.36-3.84,1.02-1.58,2.89-3.47,2.95-5.46s-2.01-3.56-2.77-5.28c-.95-2.15-1.47-4.5-1.33-6.85,.08-1.31,.38-2.55,.87-3.69Z"/><path class="cls-9" d="M124.7,24.6c-4.65,0-6.59,1.99-6.59,4.65v4.26c0,2.66,1.94,4.65,6.59,4.65h4.51c4.21,0,4.41-.51,4.41-1.36,0-.97-.39-1.36-1.36-1.36h-7.56c-2.33,0-3.49-1.16-3.49-2.33v-.39s11.05,0,11.05,0c.78,0,1.36-.51,1.36-1.36s-.58-1.36-1.36-1.36h-11.05s0-.39,0-.39c0-1.17,1.16-2.33,3.49-2.33h7.56c.97,0,1.36-.39,1.36-1.36,0-.85-.19-1.36-4.41-1.36h-4.51Z"/><path class="cls-9" d="M66.26,56.08c-1.37-3.21-4.19-5.69-7.54-6.98-5.25-2.02-11.49-.91-15.66,2.87-3.67,3.32-4.87,8.51-3.43,13.19,1.66,5.41,6.04,8.22,11.16,9.95,5.73,1.94,11.56,3.5,17.08,6.03,.15,.07,.33,.14,.48,.06,.1-.06-2.2-3.59-2.36-3.84-1.02-1.58-2.89-3.47-2.95-5.46-.07-2.01,2.01-3.56,2.77-5.28,.95-2.15,1.47-4.5,1.33-6.85-.08-1.31-.38-2.55-.87-3.69Z"/><path class="cls-10" d="M51.69,54.69c-4.65,0-6.59,1.99-6.59,4.65v4.26c0,2.66,1.94,4.65,6.59,4.65h4.51c4.21,0,4.41-.51,4.41-1.36,0-.97-.39-1.36-1.36-1.36h-7.56c-2.33,0-3.49-1.16-3.49-2.33v-.39s11.05,0,11.05,0c.78,0,1.36-.51,1.36-1.36s-.58-1.36-1.36-1.36h-11.05s0-.39,0-.39c0-1.17,1.16-2.33,3.49-2.33h7.56c.97,0,1.36-.39,1.36-1.36,0-.85-.19-1.36-4.41-1.36h-4.51Z"/></svg>