<svg width="1676" height="858" viewBox="0 0 1676 858" fill="none" xmlns="http://www.w3.org/2000/svg"><path fill-rule="evenodd" clip-rule="evenodd" d="M1040.97 427.991C1096.37 431.186 1119.98 474.899 1118.58 522.041C1117.18 569.183 1075.57 623.96 1031.23 621.389C986.895 618.818 956.739 555.936 958.142 508.794C959.545 461.653 985.57 424.874 1040.97 427.991Z" fill="#E6E8EA" stroke="#003B2F" stroke-width="3" stroke-linecap="round" stroke-linejoin="round"/><path d="M947.857 492.042C946.766 527.885 965.856 550.949 988.921 561.546C1001.23 567.157 1014.79 569.183 1027.1 567.546C1039.72 565.91 1050.95 560.456 1058.35 551.261C1068.63 538.404 1071.2 518.69 1058.97 492.353" stroke="#003B2F" stroke-width="3" stroke-linecap="round" stroke-linejoin="round"/><path fill-rule="evenodd" clip-rule="evenodd" d="M665.863 527.573C646.773 669.154 810.25 772.554 919.182 813.54C939.909 809.566 960.09 795.697 967.96 782.139C954.869 752.996 945.753 729.542 938.974 704.997C968.272 712.945 997.648 713.335 1026.95 704.608C1078.3 638.687 1031.7 489.548 934.922 451.289C957.441 384.59 940.065 339.474 887.936 293.111C887.235 261.632 876.248 223.84 866.04 219.399C856.378 216.282 839.314 237.165 826.223 257.346C800.042 248.619 771.523 245.97 743.082 251.112C720.953 255.086 699.837 264.593 680.98 277.917C666.253 260.541 651.994 244.879 643.656 248.463C633.059 254.307 625.111 301.994 628.695 333.63C586.619 401.888 584.593 493.6 665.863 527.495V527.573Z" fill="#E6E8EA"/><path fill-rule="evenodd" clip-rule="evenodd" d="M909.52 809.8L919.182 813.54C939.909 809.567 960.09 795.697 967.96 782.139L963.207 771.386C943.493 773.645 918.325 791.333 909.52 809.8Z" fill="white"/><path fill-rule="evenodd" clip-rule="evenodd" d="M934.922 451.367C945.753 419.186 947.389 392.07 940.298 367.369C902.741 346.175 842.119 364.019 823.574 391.992C781.731 367.369 706.538 393.395 691.967 428.848C656.279 421.991 617.787 444.043 612.488 480.743C622.929 500.379 640.228 516.82 665.863 527.495C696.019 544.248 735.368 542.69 755.238 570.585C766.225 586.013 773.082 629.025 774.562 648.038C817.34 727.75 968.817 689.102 952.921 569.962C939.987 570.741 931.026 574.325 924.714 585.234C924.558 602.377 922.688 611.259 922.533 628.402C896.819 611.649 867.443 627.856 857.859 645.622C837.288 598.247 823.34 560.611 847.262 526.015C874.066 493.132 903.91 496.639 934.922 451.133V451.367Z" fill="white"/><path fill-rule="evenodd" clip-rule="evenodd" d="M673.422 287.579C665.084 278.229 652.383 266.852 647.63 269.19C642.176 272.618 642.331 299.89 645.37 315.942C652.773 305.501 662.279 295.916 673.422 287.579Z" fill="#003B2F"/><path fill-rule="evenodd" clip-rule="evenodd" d="M839.158 262.333C845.002 252.671 856.3 238.1 861.287 239.658C866.274 241.84 869.781 263.346 869.781 278.151C860.664 271.839 850.378 266.463 839.158 262.255V262.333Z" fill="#003B2F"/><path d="M924.714 553.754C924.948 566.767 923.468 612.584 922.766 626.064C922.766 626.999 922.455 627.934 921.987 628.791C921.442 629.649 920.896 630.428 920.195 631.285C914.351 638.687 903.364 645.311 892.066 648.661C880.456 652.168 868.066 652.323 859.729 646.869C859.183 646.479 858.638 646.09 858.015 645.622C857.391 645.155 856.846 644.531 856.456 643.83C847.651 626.688 838.067 600.117 835.729 575.182C834.327 560.066 836.353 545.417 842.82 533.339" stroke="#003B2F" stroke-width="3" stroke-linecap="round" stroke-linejoin="round"/><path d="M959.934 568.092C958.61 570.273 951.831 570.118 948.948 570.273C943.103 570.741 938.35 572.377 934.454 574.949C930.48 577.52 926.818 581.338 924.091 585.624" stroke="#003B2F" stroke-width="3" stroke-linecap="round" stroke-linejoin="round"/><path fill-rule="evenodd" clip-rule="evenodd" d="M716.979 438.744C733.966 442.406 750.251 435.316 761.316 420.433C777.991 426.666 796.302 424.874 809.081 411.005C813.99 460.094 735.524 478.328 716.901 438.744H716.979Z" fill="#003B2F"/><path fill-rule="evenodd" clip-rule="evenodd" d="M810.094 464.614C805.73 461.575 802.146 458.302 799.185 454.718C798.562 454.017 798.016 453.315 797.471 452.536C797.003 451.913 796.536 451.211 796.068 450.51C795.601 449.809 795.133 449.108 794.743 448.406C794.198 447.471 793.653 446.458 793.185 445.445C793.029 445.134 792.873 444.822 792.795 444.51C791.549 441.783 790.614 438.822 789.99 435.783C789.99 435.472 789.834 435.238 789.834 434.926C789.523 433.368 789.289 431.809 789.133 430.173C787.419 430.64 785.783 430.952 784.146 431.186C778.926 431.809 773.861 431.03 769.108 429.238C767.004 428.459 764.978 427.446 762.952 426.277C761.549 429.394 759.524 432.822 756.796 435.861C754.069 438.9 750.641 441.627 746.433 443.264C746.433 443.341 746.433 443.497 746.433 443.575C746.277 445.212 746.199 446.77 746.199 448.406C746.199 449.03 746.199 449.575 746.199 450.198C746.199 451.289 746.199 452.458 746.199 453.549C746.199 454.25 746.199 454.874 746.199 455.575C746.199 456.588 746.199 457.679 746.355 458.692C746.355 459.393 746.511 460.094 746.511 460.796C746.589 461.809 746.667 462.744 746.822 463.757C746.9 464.458 747.056 465.159 747.134 465.86C747.29 466.795 747.446 467.808 747.602 468.743C747.758 469.445 747.913 470.146 748.069 470.847C748.303 471.782 748.459 472.717 748.77 473.574C748.926 474.276 749.16 474.899 749.316 475.6C749.628 476.535 749.861 477.393 750.173 478.25C750.407 478.873 750.641 479.574 750.874 480.198C751.186 481.055 751.576 481.912 751.965 482.769C752.121 483.159 752.277 483.548 752.433 483.938C757.342 494.145 765.523 502.327 778.146 506.613C804.639 515.496 836.587 483.159 810.094 464.614Z" fill="#03FC9D" stroke="#003B2F" stroke-width="3" stroke-linecap="round" stroke-linejoin="round"/><path d="M918.091 471.86C926.429 463.99 931.961 457.99 936.013 448.173" stroke="#003B2F" stroke-width="3" stroke-linecap="round" stroke-linejoin="round"/><path d="M714.408 434.848C713.395 432.277 714.641 429.238 717.291 428.069C719.94 426.9 722.901 428.069 723.992 430.64C725.239 433.757 728.122 435.16 731.55 435.316C733.966 435.394 736.615 434.926 739.264 433.913C741.991 432.9 744.641 431.342 746.978 429.394C752.277 424.796 755.783 417.862 753.835 409.758L750.485 396.122C749.783 393.395 751.498 390.589 754.225 389.81C756.952 389.031 759.757 390.589 760.459 393.317L763.809 406.953C766.926 419.576 761.627 430.173 753.524 437.108C750.251 439.913 746.433 442.095 742.615 443.575C738.641 445.056 734.589 445.757 730.849 445.601C723.68 445.289 717.447 441.939 714.564 434.848H714.408Z" fill="#003B2F"/><path fill-rule="evenodd" clip-rule="evenodd" d="M727.654 398.304C734.667 405.628 745.03 407.342 757.809 408.122C768.796 401.109 777.211 394.33 780.25 384.356C786.562 363.629 713.083 383.187 727.654 398.304Z" fill="#003B2F"/><path d="M799.029 409.29C798.795 406.485 800.977 403.914 803.782 403.602C806.587 403.29 809.081 405.316 809.314 408.121C809.938 416.615 804.951 423.238 797.704 427.212C794.198 429.082 790.224 430.329 786.094 430.874C781.964 431.342 777.679 431.186 773.549 430.095C764.355 427.757 756.251 421.29 753.757 409.602L750.796 395.81C750.173 393.083 751.965 390.278 754.77 389.576C757.575 388.875 760.303 390.511 760.848 393.239L763.809 407.031C765.445 414.511 770.588 418.641 776.51 420.121C779.315 420.822 782.354 420.978 785.237 420.589C788.12 420.199 790.847 419.42 793.107 418.173C796.847 416.147 799.341 412.953 799.107 409.134L799.029 409.29Z" fill="#003B2F"/><path fill-rule="evenodd" clip-rule="evenodd" d="M673.387 294.375C661.699 301.855 662.79 312.92 675.88 309.803C683.672 307.933 690.062 307.777 699.023 309.18C709.464 310.816 712.737 301.699 709.308 295.076C703.153 283.076 681.491 289.31 673.465 294.453L673.387 294.375Z" fill="white"/><path fill-rule="evenodd" clip-rule="evenodd" d="M687.058 340.643C700.616 336.98 712.927 346.253 714.641 361.369C716.278 376.486 706.616 391.68 693.058 395.343C679.499 399.005 667.188 389.732 665.474 374.616C663.837 359.499 673.5 344.305 687.058 340.643Z" fill="#003B2F"/><path fill-rule="evenodd" clip-rule="evenodd" d="M694.071 348.668C699.603 347.188 704.668 350.928 705.291 357.162C705.992 363.317 702.018 369.551 696.486 371.032C690.954 372.512 685.889 368.772 685.188 362.538C684.486 356.383 688.46 350.149 693.993 348.668H694.071Z" fill="white"/><path fill-rule="evenodd" clip-rule="evenodd" d="M790.422 268.452C804.136 270.946 807.253 281.699 793.929 283.647C785.981 284.816 779.981 287.075 772.267 291.75C763.228 297.205 756.761 289.958 757.462 282.556C758.631 269.154 781.072 266.738 790.422 268.452Z" fill="white"/><path fill-rule="evenodd" clip-rule="evenodd" d="M798.795 313.293C784.848 315.007 776.9 328.253 781.029 342.824C785.159 357.473 799.886 367.915 813.834 366.2C827.782 364.486 835.729 351.24 831.6 336.669C827.47 322.02 812.743 311.578 798.795 313.293Z" fill="#003B2F"/><path fill-rule="evenodd" clip-rule="evenodd" d="M795.367 323.422C789.679 324.123 786.406 329.5 788.12 335.5C789.834 341.5 795.834 345.707 801.522 345.084C807.211 344.383 810.483 339.006 808.769 333.006C807.055 327.007 801.055 322.721 795.367 323.422Z" fill="white"/><path d="M793.575 489.47C786.094 484.639 779.861 478.406 775.263 471.081C770.822 463.912 768.017 455.809 767.238 447.004" stroke="#003B2F" stroke-width="3" stroke-linecap="round" stroke-linejoin="round"/><path fill-rule="evenodd" clip-rule="evenodd" d="M665.863 527.573C646.773 669.154 810.25 772.554 919.182 813.54C939.909 809.566 960.09 795.697 967.96 782.138C954.869 752.996 945.753 729.542 938.974 704.997C968.272 712.945 997.648 713.335 1026.95 704.608C1078.3 638.687 1031.7 489.548 934.922 451.289C957.441 384.59 940.065 339.474 887.936 293.111C887.235 261.632 876.248 223.84 866.04 219.399C856.378 216.282 839.314 237.165 826.223 257.346C800.042 248.619 771.523 245.97 743.082 251.112C720.953 255.086 699.837 264.593 680.98 277.917C666.253 260.541 651.994 244.879 643.656 248.463C633.059 254.307 625.111 301.994 628.695 333.63C586.619 401.888 584.593 493.6 665.863 527.495V527.573Z" stroke="#003B2F" stroke-width="3" stroke-linecap="round" stroke-linejoin="round"/><path fill-rule="evenodd" clip-rule="evenodd" d="M667.422 629.025C668.591 631.207 669.837 633.389 671.006 635.415C671.24 635.726 671.396 636.116 671.63 636.428C672.798 638.298 673.967 640.168 675.136 641.882C675.37 642.194 675.526 642.505 675.759 642.817C677.084 644.765 678.409 646.557 679.733 648.427C680.045 648.817 680.279 649.207 680.59 649.596C681.993 651.388 683.395 653.181 684.798 654.973C684.798 654.973 684.798 654.973 684.798 655.051C686.201 656.765 687.681 658.557 689.239 660.271C689.551 660.661 689.863 660.973 690.175 661.362C691.655 662.998 693.135 664.713 694.694 666.349C695.006 666.661 695.317 666.972 695.629 667.284C697.031 668.765 698.512 670.323 699.915 671.803C700.07 671.959 700.304 672.193 700.46 672.349C708.408 680.531 719.94 684.271 731.083 682.011C732.018 681.777 732.953 681.621 733.888 681.388C734.667 681.154 735.446 680.92 736.225 680.686C737.706 680.219 739.186 679.751 740.667 679.206C741.446 678.894 742.225 678.66 742.926 678.349C743.784 678.037 744.563 677.647 745.342 677.258C758.433 671.18 766.303 657.622 764.978 643.207C764.978 643.051 764.978 642.817 764.978 642.583C764.978 642.038 764.9 641.57 764.822 641.103C764.588 638.687 764.277 636.35 763.965 634.012C763.809 633.155 763.731 632.298 763.575 631.441C763.264 629.415 762.952 627.389 762.64 625.363C762.484 624.584 762.407 623.805 762.251 623.025C761.783 620.376 761.238 617.649 760.692 615C760.692 614.688 760.536 614.376 760.459 614.065C759.913 611.649 759.368 609.234 758.744 606.818C758.511 605.961 758.277 605.104 758.121 604.247C757.575 602.221 757.03 600.195 756.485 598.169C756.251 597.312 756.017 596.455 755.783 595.598C755.004 592.792 754.147 589.909 753.212 586.948C738.251 537.469 645.137 582.117 663.058 620.376C664.227 622.87 665.396 625.207 666.643 627.545C666.876 628.012 667.188 628.558 667.422 629.025Z" fill="#E6E8EA"/><path fill-rule="evenodd" clip-rule="evenodd" d="M764.51 653.025C764.51 652.635 764.355 652.246 764.277 651.856C744.251 648.35 717.992 659.804 704.59 675.777C712.148 681.466 721.81 683.803 731.161 682.011C732.096 681.777 733.031 681.621 733.966 681.388C734.745 681.154 735.524 680.92 736.303 680.686C737.784 680.219 739.264 679.751 740.745 679.206C741.524 678.894 742.303 678.661 743.004 678.349C743.862 678.037 744.641 677.648 745.42 677.258C755.472 672.583 762.407 663.544 764.51 653.025Z" fill="white"/><path d="M733.888 566.767C742.771 569.572 749.939 575.962 753.29 586.871C759.446 607.052 763.186 623.259 765.134 642.973C766.614 657.856 758.199 671.959 744.407 677.803C740.667 679.362 736.771 680.686 732.719 681.621C721.109 684.505 708.875 680.686 700.538 672.115C685.577 656.687 673.578 642.583 663.136 620.298C656.981 607.13 663.915 593.26 676.227 582.741" stroke="#003B2F" stroke-width="3" stroke-linecap="round" stroke-linejoin="round"/><path fill-rule="evenodd" clip-rule="evenodd" d="M988.921 640.09C980.739 641.337 973.025 646.324 970.142 657.154C946.922 642.661 935.389 673.751 941.311 695.881C948.714 723.776 967.025 740.529 998.037 735.932C1029.05 731.334 1043.7 709.673 1045.72 680.375C1047.28 657.077 1030.3 630.272 1010.43 651.155C1005.67 641.415 997.18 638.843 988.998 640.012L988.921 640.09Z" fill="white"/><path fill-rule="evenodd" clip-rule="evenodd" d="M990.245 654.349C995.855 653.492 1000.92 658.245 1001.54 664.947C1002.17 671.648 998.115 677.725 992.583 678.583C986.973 679.44 981.908 674.687 981.284 667.985C980.661 661.284 984.713 655.206 990.245 654.349Z" fill="#003B2F"/><path fill-rule="evenodd" clip-rule="evenodd" d="M960.869 665.882C966.48 665.025 971.544 669.778 972.168 676.479C972.791 683.18 968.739 689.258 963.207 690.115C957.597 690.972 952.532 686.219 951.909 679.518C951.285 672.817 955.337 666.739 960.869 665.882Z" fill="#003B2F"/><path fill-rule="evenodd" clip-rule="evenodd" d="M1022.35 656.765C1027.96 655.908 1033.02 660.661 1033.65 667.362C1034.27 674.063 1030.22 680.141 1024.69 680.998C1019.08 681.855 1014.01 677.102 1013.39 670.401C1012.76 663.7 1016.82 657.622 1022.35 656.765Z" fill="#003B2F"/><path fill-rule="evenodd" clip-rule="evenodd" d="M1019.23 702.037C1020.17 711.621 1010.11 720.971 996.791 722.919C983.466 724.867 972.012 718.711 971.077 709.205C970.142 699.621 980.194 690.271 993.518 688.323C1006.84 686.375 1018.3 692.53 1019.23 702.037Z" fill="#003B2F"/><path fill-rule="evenodd" clip-rule="evenodd" d="M988.921 640.09C980.739 641.337 973.025 646.324 970.142 657.154C946.922 642.661 935.389 673.751 941.311 695.881C948.714 723.776 967.025 740.529 998.037 735.932C1029.05 731.334 1043.7 709.673 1045.72 680.375C1047.28 657.077 1030.3 630.272 1010.43 651.155C1005.67 641.415 997.18 638.843 988.998 640.012L988.921 640.09Z" stroke="#003B2F" stroke-width="3" stroke-linecap="round" stroke-linejoin="round"/><path d="M686.045 177.166C688.928 175.686 691.889 174.439 694.928 173.504C697.733 171.556 700.772 170.231 703.966 170.855C706.849 168.907 709.81 167.66 712.46 168.205C712.693 168.205 712.927 168.283 713.161 168.361C715.109 166.413 717.524 164.933 720.408 164.465C722.511 164.075 724.226 164.465 725.784 165.244C727.342 163.14 729.135 161.894 731.161 161.504C733.186 161.114 735.212 161.738 737.238 163.14C738.407 161.972 739.888 161.192 741.836 160.881C744.719 160.413 747.446 161.114 749.939 162.283C750.095 162.127 750.329 161.972 750.563 161.894C752.9 160.569 756.095 160.725 759.446 161.66C762.251 160.024 765.601 160.335 768.874 161.27C779.783 160.881 790.458 164.465 800.587 169.14C801.367 167.504 802.146 165.868 803.003 164.231C804.483 161.348 805.496 158.154 806.587 154.803C807.6 151.764 808.613 148.647 809.938 145.764C808.146 147.011 806.354 148.258 804.25 148.803L802.224 149.271L803.003 147.323C804.639 143.193 805.574 139.92 805.808 137.115C807.055 120.674 797.86 102.986 788.198 92.6226C778.692 82.493 765.523 76.0256 756.485 72.0517C753.134 70.5712 749.55 69.0128 746.121 67.4544L744.874 66.909C743.784 66.4414 742.615 65.7401 741.368 65.1168C739.576 64.1817 737.628 63.0909 735.914 62.4675C736.381 62.6233 737.238 64.9609 737.55 65.4285C738.173 66.3635 738.953 67.0648 739.654 67.9219C740.277 68.6232 740.745 68.9349 741.68 69.4024C742.381 69.7141 743.238 70.1037 743.472 70.8829C742.926 70.9608 742.303 70.8829 741.68 70.727C740.355 70.4933 739.342 70.2595 738.095 69.792C736.849 69.3245 735.602 68.9349 734.277 68.5453C731.784 67.844 729.213 67.2986 726.641 66.9869C721.654 66.3635 716.589 66.3635 711.68 66.9869C702.564 68.0778 693.681 70.8829 685.266 74.701C678.409 77.8178 672.798 81.1684 668.045 85.1423C665.24 87.4799 663.136 89.5837 661.5 91.6876C660.721 92.6226 660.097 93.7135 659.474 94.8044C659.318 95.1161 659.162 95.3498 658.929 95.6615C659.24 95.194 660.721 95.2719 661.266 95.194C662.591 95.0381 663.993 95.0381 665.318 94.8044C666.487 94.6485 668.045 94.3369 669.058 93.7914C668.357 94.2589 667.5 94.7265 666.798 95.2719C666.097 95.8174 665.785 96.5966 665.162 97.2199C663.682 98.9342 662.045 100.337 660.721 102.207C656.357 108.518 653.396 114.284 651.37 120.362C648.409 129.245 646.383 137.661 645.292 145.453C643.734 156.595 644.981 169.374 648.331 179.348C648.643 177.244 649.266 175.218 650.046 173.815L651.448 171.322L651.994 174.127C653.474 181.53 659.552 187.218 665.863 192.283C671.396 186.906 677.318 181.841 683.863 178.101L685.811 177.01L686.045 177.166Z" fill="white" stroke="#003B2F" stroke-width="3" stroke-linecap="round" stroke-linejoin="round"/><path d="M687.759 184.335C686.356 183.01 685.11 181.607 684.019 180.205C678.253 172.88 675.915 160.413 675.681 151.998C675.681 151.686 675.681 151.297 675.681 150.907C675.681 149.348 675.526 147.634 675.915 146.154L676.616 143.349L677.863 145.92C678.72 147.634 679.967 149.582 681.292 151.063C679.655 145.297 679.499 138.985 680.902 132.829C681.681 129.323 682.928 125.972 684.642 122.7C685.421 121.219 686.434 119.895 687.369 118.57M702.953 84.7526C711.369 81.0904 722.589 79.7658 732.173 81.0904C748.069 83.3501 758.978 93.4797 766.77 102.051L767.16 102.441C769.575 105.09 772.224 108.051 772.77 111.869L773.16 114.674L771.056 112.804C770.432 112.258 769.575 111.791 768.64 111.246C774.484 122.076 776.744 135.79 774.562 146.699" stroke="#003B2F" stroke-width="3" stroke-linecap="round" stroke-linejoin="round"/><path d="M843.366 232.489C846.093 233.035 848.82 233.736 851.547 234.359C846.482 220.646 838.535 207.087 828.483 195.01C819.522 184.335 807.756 175.997 797.315 168.595C787.419 161.582 776.822 156.05 763.03 150.673C762.095 150.284 761.16 149.894 760.147 149.504C755.082 147.401 750.719 145.764 747.134 146.388C750.563 147.712 753.913 149.349 756.485 150.673C757.108 150.985 757.731 151.297 758.199 151.53C772.536 158.543 783.445 170.309 794.276 182.698C802.847 192.516 810.094 203.191 815.626 214.334C817.886 218.853 819.6 223.684 821.158 228.438C828.561 229.606 835.963 230.931 843.288 232.489H843.366Z" fill="#03FC9D" stroke="#003B2F" stroke-width="3" stroke-linecap="round" stroke-linejoin="round"/><path d="M759.757 223.762C766.147 223.529 772.614 223.451 779.004 223.529C782.666 223.529 786.328 223.684 789.99 223.84C786.328 196.49 773.549 172.413 752.667 153.556C748.225 149.504 742.849 145.53 736.771 146.466C735.212 146.699 734.044 147.323 733.031 148.18C735.914 150.751 738.797 154.725 741.524 160.024C746.978 170.387 751.342 184.646 753.835 200.075C755.16 208.334 755.939 216.36 756.095 223.84C757.342 223.84 758.511 223.684 759.757 223.684V223.762Z" fill="#03FC9D" stroke="#003B2F" stroke-width="3" stroke-linecap="round" stroke-linejoin="round"/><path d="M724.927 151.141C723.602 150.517 722.2 150.284 720.563 150.517C714.564 151.608 710.745 157.063 707.784 162.361C693.993 186.906 689.629 213.866 694.928 240.905C702.018 238.1 709.265 235.528 716.512 233.191C720.096 232.022 723.758 230.931 727.42 229.918C725.161 222.827 723.291 214.957 721.966 206.698C719.395 191.192 719.005 176.309 720.797 164.777C721.732 159.011 723.135 154.413 724.927 151.063V151.141Z" fill="#03FC9D" stroke="#003B2F" stroke-width="3" stroke-linecap="round" stroke-linejoin="round"/><path d="M708.797 161.115C710.044 158.933 711.447 156.673 713.005 154.647C707.551 154.258 699.681 162.127 695.395 166.491C694.928 167.036 694.46 167.504 693.993 167.894C683.006 178.88 676.461 193.218 670.305 208.178C665.396 220.1 662.045 232.256 660.409 244.411C659.786 248.853 659.708 253.45 659.708 257.969C666.876 254.307 674.123 250.879 681.447 247.684C686.201 245.658 690.876 243.632 695.707 241.762C693.291 229.451 692.824 217.061 694.304 204.828C696.174 189.633 701.005 174.906 708.797 161.115Z" fill="#03FC9D" stroke="#003B2F" stroke-width="3" stroke-linecap="round" stroke-linejoin="round"/><path d="M757.653 148.18C771.679 153.634 782.432 159.244 792.484 166.335C803.003 173.815 815.003 182.231 824.119 193.14C834.716 205.841 843.054 220.256 848.197 234.749C853.807 236.23 859.417 237.866 864.872 239.424C869.781 240.827 874.923 242.385 879.988 243.71C881.78 244.177 883.65 244.801 885.52 245.424C880.534 236.541 874.066 228.36 867.755 220.412L866.118 218.386C848.197 195.867 826.769 178.179 800.432 164.309L799.808 163.998C786.016 156.673 770.744 148.647 755.16 147.089C756.017 147.478 756.874 147.79 757.731 148.102L757.653 148.18Z" fill="#03FC9D" stroke="#003B2F" stroke-width="3" stroke-linecap="round" stroke-linejoin="round"/><path d="M626.747 281.267C631.423 277.995 636.176 274.722 641.007 271.527C641.241 256.099 644.513 239.814 650.513 224.386C655.656 211.139 664.305 199.295 671.863 188.854C679.11 178.88 687.525 170.153 699.057 160.491C699.759 159.946 700.382 159.322 701.161 158.699C686.902 165.166 674.98 177.634 664.227 189.01L663.76 189.555C643.267 211.139 628.618 234.749 618.877 261.787L618.02 264.281C614.592 273.787 611.008 283.683 609.215 293.657C610.774 292.41 612.332 291.241 613.891 290.228C618.332 287.267 622.696 284.228 626.903 281.345L626.747 281.267Z" fill="#03FC9D" stroke="#003B2F" stroke-width="3" stroke-linecap="round" stroke-linejoin="round"/><path d="M699.135 163.062C699.525 162.673 699.992 162.205 700.538 161.66C702.564 159.556 705.213 156.907 708.018 154.647C704.512 155.193 700.85 158.154 696.72 161.816C695.941 162.517 695.161 163.218 694.382 163.842C683.006 173.348 674.746 181.997 667.578 191.737C660.097 202.023 651.526 213.711 646.539 226.723C640.851 241.372 637.734 256.801 637.267 271.372C639.604 269.891 641.942 268.411 644.357 266.93C650.747 263.112 657.37 259.528 664.071 256.021C664.071 251.034 664.071 245.892 664.85 240.905C666.565 228.593 669.915 216.204 674.902 204.126C681.214 188.932 687.759 174.283 699.135 163.062Z" fill="#03FC9D" stroke="#003B2F" stroke-width="3" stroke-linecap="round" stroke-linejoin="round"/><path d="M731.628 227.814C739.342 225.866 747.134 224.775 755.082 224.23C756.095 224.23 757.186 224.074 758.199 223.996C758.043 216.905 757.42 209.035 756.017 200.464C750.485 166.803 737.628 145.686 729.057 147.089C720.485 148.491 715.031 172.647 720.563 206.23C721.966 214.724 723.836 222.438 726.018 229.139C727.888 228.593 729.836 228.126 731.706 227.658L731.628 227.814Z" fill="#03FC9D" stroke="#003B2F" stroke-width="3" stroke-linecap="round" stroke-linejoin="round"/><path d="M801.834 224.853C809.782 225.554 817.808 226.49 825.756 227.58C824.275 223.295 822.717 219.009 820.769 214.957C815.314 203.971 808.224 193.529 799.808 183.867C789.133 171.634 778.38 160.101 764.432 153.322C763.887 153.089 763.264 152.777 762.64 152.465C757.186 149.738 747.29 144.751 742.225 146.855C744.407 148.258 746.433 149.894 748.303 151.608C759.991 162.127 769.341 174.517 775.965 188.387C781.341 199.529 784.848 211.451 786.484 223.84C791.627 224.074 796.769 224.464 801.912 224.931L801.834 224.853Z" fill="#03FC9D" stroke="#003B2F" stroke-width="3" stroke-linecap="round" stroke-linejoin="round"/><path d="M910.377 291.475C908.507 285.397 907.884 278.93 907.338 272.696C906.871 267.008 906.325 261.164 904.767 255.632C902.351 246.905 891.364 241.138 881.936 238.645C877.495 237.476 872.975 236.152 868.69 234.905C860.898 232.645 852.872 230.308 844.768 228.593C830.898 225.632 816.717 223.529 802.535 222.36C792.406 221.503 782.276 220.957 772.147 220.957C766.692 220.957 761.16 221.113 755.705 221.425C751.03 221.658 746.355 222.048 741.758 222.827C733.342 224.308 724.771 226.645 716.745 229.217C705.447 232.801 694.382 237.087 683.551 241.84C670.539 247.528 657.76 254.073 645.526 261.242C638.358 265.528 631.501 270.281 624.877 274.878C621.215 277.449 617.397 280.099 613.501 282.67C605.397 288.046 596.826 297.085 597.294 306.124C597.605 311.812 599.008 317.578 600.333 323.111C601.813 329.188 603.293 335.5 603.449 341.811C603.449 342.98 603.449 344.227 603.449 345.474C603.683 356.772 600.411 374.228 605.476 384.514C608.159 382.12 609.527 376.408 610.54 374.148C615.371 363.551 627.605 353.733 634.539 348.902C644.28 342.045 654.877 336.279 665.162 330.669C667.578 329.344 669.993 328.02 672.409 326.695C689.551 317.189 708.174 309.786 727.654 304.643C739.654 301.449 751.965 299.189 764.277 297.553C769.653 296.851 775.185 296.15 780.64 295.916C800.743 294.592 820.691 295.683 840.015 299.111C842.742 299.579 845.469 300.046 848.197 300.514C859.729 302.54 871.573 304.566 883.027 307.994C891.131 310.41 902.819 314.383 913.026 322.175C914.974 323.656 921.208 328.253 921.987 330.045C923.468 318.669 914.896 305.578 911.468 294.826C911.078 293.657 910.689 292.41 910.377 291.319V291.475Z" fill="white" stroke="#003B2F" stroke-width="3" stroke-linecap="round" stroke-linejoin="round"/><path d="M606.574 596.175C613.22 609.127 590.581 633.681 556.229 651.138C521.877 668.483 488.764 672.088 482.119 659.135L474.347 643.254C475.811 645.957 478.289 647.985 481.781 649.224C494.958 654.179 521.426 649.224 548.795 635.258C575.601 621.742 595.311 603.834 599.591 590.318C600.83 586.489 600.83 582.997 599.366 580.069L606.574 596.175Z" fill="#9FB4AD"/><path d="M599.366 580.069C600.83 582.997 600.83 586.489 599.591 590.318C595.311 603.834 575.601 621.742 548.795 635.258C521.539 649.111 494.958 654.179 481.781 649.224C478.402 647.985 475.811 645.957 474.347 643.254C467.702 630.189 490.453 605.523 524.918 588.066C559.383 570.608 592.608 567.117 599.254 580.069H599.366Z" fill="#E6E8EA"/><path d="M599.366 580.069L606.574 596.175C613.22 609.127 590.581 633.681 556.229 651.138C521.877 668.483 488.764 672.088 482.119 659.135L474.347 643.254" stroke="#003B2F" stroke-width="3" stroke-linecap="round" stroke-linejoin="round"/><path d="M599.366 580.069C600.83 582.997 600.83 586.489 599.591 590.318C595.311 603.834 575.601 621.742 548.795 635.258C521.539 649.111 494.958 654.179 481.781 649.224C478.402 647.985 475.811 645.957 474.347 643.254C467.702 630.189 490.453 605.523 524.918 588.066C559.383 570.608 592.608 567.117 599.254 580.069H599.366Z" stroke="#003B2F" stroke-width="3" stroke-linecap="round" stroke-linejoin="round"/><path d="M599.591 590.318C595.312 603.834 575.601 621.742 548.796 635.258C521.539 649.111 494.959 654.179 481.781 649.224C478.289 647.985 475.811 645.957 474.347 643.254C467.702 630.189 490.341 605.523 524.918 588.066C559.383 570.608 592.721 567.117 599.254 580.182C600.718 583.11 600.718 586.602 599.479 590.431L599.591 590.318Z" stroke="#003B2F" stroke-width="3" stroke-linecap="round" stroke-linejoin="round"/><path d="M488.877 645.394C486.962 645.169 485.16 644.719 483.696 644.155C481.33 643.367 479.866 642.128 479.078 640.776C477.05 636.722 480.542 629.176 488.201 620.841C497.324 610.93 511.29 600.906 527.396 592.796C549.133 581.759 571.209 576.127 585.062 577.929C587.991 578.267 593.059 579.393 594.636 582.547C595.424 584.124 595.424 586.151 594.636 588.742C590.694 601.131 570.871 618.251 546.543 630.527C524.918 641.565 502.73 647.196 488.989 645.394H488.877Z" stroke="#003B2F" stroke-width="3" stroke-linecap="round" stroke-linejoin="round"/><path d="M498.876 129.922C511.941 136.117 509.013 169.455 492.231 204.145C475.449 238.835 451.346 261.699 438.281 255.392L422.401 247.395C425.216 248.634 428.483 248.746 431.974 247.62C445.49 243.565 463.398 223.405 476.801 195.923C489.866 168.892 494.596 142.762 489.866 129.472C488.514 125.755 486.374 122.939 483.446 121.475L498.989 129.922H498.876Z" fill="#9FB4AD"/><path d="M483.333 121.475C486.262 122.827 488.402 125.642 489.753 129.472C494.484 142.762 489.753 169.005 476.688 195.923C463.398 223.405 445.377 243.566 431.862 247.62C428.37 248.746 425.217 248.634 422.288 247.395C409.111 240.975 412.152 207.637 428.933 172.834C445.715 138.031 470.043 115.055 483.108 121.362L483.333 121.475Z" fill="#E6E8EA"/><path d="M483.333 121.588L498.876 130.035C511.941 136.229 509.013 169.568 492.231 204.258C475.449 238.948 451.346 261.812 438.281 255.617L422.401 247.62" stroke="#003B2F" stroke-width="3" stroke-linecap="round" stroke-linejoin="round"/><path d="M483.333 121.475C486.262 122.827 488.402 125.642 489.753 129.472C494.484 142.762 489.753 169.005 476.688 195.923C463.398 223.405 445.377 243.566 431.862 247.62C428.37 248.746 425.217 248.634 422.288 247.395C409.111 240.975 412.152 207.637 428.933 172.834C445.715 138.031 470.043 115.055 483.108 121.362L483.333 121.475Z" stroke="#003B2F" stroke-width="3" stroke-linecap="round" stroke-linejoin="round"/><path d="M489.753 129.584C494.484 142.875 489.753 169.005 476.688 196.036C463.398 223.518 445.377 243.791 431.861 247.733C428.37 248.859 425.104 248.747 422.288 247.508C409.11 241.088 412.039 207.862 428.933 173.059C445.715 138.257 470.043 115.28 483.221 121.588C486.149 122.939 488.289 125.755 489.641 129.584H489.753Z" stroke="#003B2F" stroke-width="3" stroke-linecap="round" stroke-linejoin="round"/><path d="M435.24 240.525C433.551 241.538 431.861 242.214 430.51 242.664C428.145 243.453 426.343 243.453 424.766 242.664C420.711 240.75 418.909 232.528 419.81 221.265C421.049 207.862 426.005 191.418 433.889 175.199C444.476 153.236 458.555 135.328 470.606 128.345C473.197 126.881 477.927 124.629 481.081 126.205C482.657 126.994 483.896 128.571 484.797 131.161C489.19 143.325 483.896 169.005 471.958 193.558C461.37 215.408 447.404 233.316 435.24 240.299V240.525Z" stroke="#003B2F" stroke-width="3" stroke-linecap="round" stroke-linejoin="round"/><path d="M1053.95 183.053C1069.75 154.386 1090.61 134.561 1104.53 133.471C1107.11 133.219 1109.39 133.661 1111.53 134.809C1124.8 142.056 1120.35 175.322 1101.76 209.26C1083.1 243.111 1057.36 264.824 1044.18 257.504L1042.59 256.485C1040.79 255.047 1039.38 253.003 1038.4 250.439C1033.18 237.185 1039.06 210.362 1053.95 183.053Z" fill="#E6E8EA"/><path d="M1042.59 256.485L1031.41 249.102C1018.13 241.854 1022.59 208.588 1041.18 174.65C1059.76 140.713 1085.58 119.086 1098.76 126.406L1100.35 127.426L1111.53 134.809C1109.55 133.675 1107.11 133.219 1104.53 133.471C1090.45 134.547 1069.66 154.459 1053.95 183.053C1039.06 210.362 1033.25 237.272 1038.4 250.439C1039.38 253.003 1040.79 255.047 1042.59 256.485Z" fill="#9FB4AD"/><path d="M1042.59 256.485L1031.41 249.102C1018.13 241.854 1022.59 208.588 1041.18 174.65C1059.76 140.713 1085.58 119.086 1098.76 126.406L1100.35 127.426L1111.53 134.809" stroke="#003B2F" stroke-width="3" stroke-linecap="round" stroke-linejoin="round"/><path d="M1042.59 256.485C1040.79 255.047 1039.38 253.003 1038.4 250.439C1033.18 237.185 1039.06 210.362 1053.95 183.053C1069.75 154.386 1090.61 134.561 1104.53 133.471C1107.11 133.219 1109.39 133.661 1111.53 134.809" stroke="#003B2F" stroke-width="3" stroke-linecap="round" stroke-linejoin="round"/><path d="M1104.53 133.471C1107.11 133.219 1109.39 133.661 1111.46 134.722C1124.73 141.97 1120.26 175.395 1101.76 209.26C1083.1 243.111 1057.36 264.824 1044.18 257.504L1042.59 256.485C1040.79 255.047 1039.38 253.003 1038.4 250.439C1033.25 237.272 1039.06 210.362 1053.95 183.053C1069.67 154.3 1090.61 134.561 1104.53 133.471Z" stroke="#003B2F" stroke-width="3" stroke-linecap="round" stroke-linejoin="round"/><path d="M1111.32 141.746C1116.94 150.556 1113.79 176.262 1097.11 206.691C1088.44 222.476 1077.89 236.015 1067.53 244.695C1058.81 252.001 1050.86 255.136 1046.74 252.854L1045.62 252.035C1045.62 252.035 1044.89 251.172 1044.39 250.567C1043.95 250.049 1043.71 249.228 1043.45 248.565C1039.53 238.625 1042.75 214.765 1058.6 185.622C1074.7 156.262 1094.48 139.54 1104.95 138.705C1106.57 138.528 1107.82 138.798 1108.89 139.373C1109.89 139.86 1110.54 140.637 1111.25 141.659L1111.32 141.746Z" stroke="#003B2F" stroke-width="3" stroke-linecap="round" stroke-linejoin="round"/><path d="M318.363 372.476C332.442 408.518 332.442 442.194 318.363 447.6L316.561 448.164L303.721 451.993C305.861 451.205 307.776 449.628 309.24 447.488C317.462 436 315.547 407.279 303.721 376.869C292.346 347.923 275.451 326.186 262.048 321.68C259.458 320.779 256.98 320.554 254.727 321.005L267.567 317.175C281.646 311.656 304.284 336.435 318.363 372.476Z" fill="#9FB4AD"/><path d="M303.834 376.756C315.66 407.279 317.462 436 309.353 447.375C307.889 449.515 306.086 450.979 303.834 451.88C289.755 457.399 267.117 432.621 253.038 396.579C239.072 360.538 238.959 326.861 253.038 321.455L254.84 320.892C257.093 320.441 259.57 320.667 262.161 321.568C275.676 326.073 292.458 347.81 303.834 376.756Z" fill="#E6E8EA"/><path d="M254.84 320.892L267.68 317.063C281.758 311.544 304.397 336.322 318.476 372.364C332.554 408.405 332.554 442.082 318.476 447.488L316.674 448.051L303.834 451.88" stroke="#003B2F" stroke-width="3" stroke-linecap="round" stroke-linejoin="round"/><path d="M298.653 447.375C288.291 446.024 270.608 427.102 257.994 394.777C251.461 377.995 247.857 361.214 247.857 347.698C247.857 336.322 250.56 328.213 254.953 326.524L256.304 326.186C256.304 326.186 257.431 326.186 258.219 326.186C258.895 326.186 259.683 326.524 260.359 326.749C270.496 330.128 286.714 347.923 298.878 378.784C311.042 409.982 311.155 435.887 305.073 444.447C304.172 445.798 303.158 446.587 302.032 447.037C301.018 447.488 300.005 447.488 298.766 447.375H298.653Z" stroke="#003B2F" stroke-width="3" stroke-linecap="round" stroke-linejoin="round"/><path d="M309.353 447.488C307.889 449.628 306.086 451.092 303.947 451.993C289.868 457.399 267.117 432.621 253.038 396.692C239.072 360.65 238.959 326.974 253.038 321.568L254.84 321.005C257.093 320.554 259.57 320.779 262.161 321.68C275.564 326.186 292.458 347.923 303.834 376.869C315.773 407.392 317.462 436.112 309.353 447.488Z" stroke="#003B2F" stroke-width="3" stroke-linecap="round" stroke-linejoin="round"/><path d="M1278.56 536.676C1243.92 519.432 1221.3 494.483 1228.1 481.022L1229.06 479.394L1236 467.933C1234.94 469.954 1234.58 472.408 1234.93 474.977C1236.56 489.011 1257.27 509.002 1286.46 523.587C1314.33 537.391 1341.44 542.147 1354.4 536.482C1356.92 535.41 1358.91 533.912 1360.28 532.065L1353.34 543.527C1346.61 557.072 1313.2 553.921 1278.56 536.676Z" fill="#9FB4AD"/><path d="M1286.45 523.747C1257.19 509.078 1236.56 489.011 1234.93 475.136C1234.57 472.568 1234.93 470.272 1235.99 468.092C1242.71 454.547 1276.13 457.698 1310.77 474.942C1345.32 492.262 1368.02 517.135 1361.23 530.597L1360.27 532.224C1358.9 534.071 1356.92 535.569 1354.39 536.641C1341.35 542.382 1314.32 537.55 1286.45 523.747Z" fill="#E6E8EA"/><path d="M1360.27 532.224L1353.33 543.686C1346.61 557.231 1313.19 554.08 1278.55 536.835C1243.91 519.591 1221.29 494.642 1228.09 481.181L1229.05 479.553L1235.99 468.092" stroke="#003B2F" stroke-width="3" stroke-linecap="round" stroke-linejoin="round"/><path d="M1242.85 467.949C1251.44 461.991 1277.25 464.131 1308.3 479.606C1324.42 487.651 1338.36 497.662 1347.44 507.675C1355.08 516.103 1358.52 523.926 1356.4 528.128L1355.63 529.286C1355.63 529.286 1354.79 530.043 1354.21 530.572C1353.71 531.026 1352.9 531.305 1352.25 531.592C1342.47 535.898 1318.5 533.608 1288.76 518.916C1258.79 503.973 1241.31 484.858 1240.06 474.431C1239.82 472.825 1240.05 471.56 1240.58 470.469C1241.03 469.455 1241.78 468.774 1242.77 468.025L1242.85 467.949Z" stroke="#003B2F" stroke-width="3" stroke-linecap="round" stroke-linejoin="round"/><path d="M1234.85 475.053C1234.5 472.484 1234.85 470.189 1235.83 468.084C1242.63 454.622 1276.13 457.698 1310.69 474.859C1345.25 492.179 1367.95 517.052 1361.15 530.513L1360.19 532.141C1358.83 533.988 1356.84 535.485 1354.32 536.558C1341.36 542.223 1314.24 537.466 1286.37 523.663C1257.03 509.07 1236.48 488.927 1234.85 475.053Z" stroke="#003B2F" stroke-width="3" stroke-linecap="round" stroke-linejoin="round"/><path d="M117.994 652.017H205.531C215.154 652.017 222.955 644.216 222.955 634.593V634.534C222.955 624.91 215.154 617.109 205.531 617.109H117.994C108.37 617.109 100.569 624.91 100.569 634.534V634.593C100.569 644.216 108.37 652.017 117.994 652.017Z" fill="#E6E8EA"/><path d="M165.466 625.229H308.773C324.55 625.229 337.34 612.439 337.34 596.662C337.34 580.885 324.55 568.096 308.773 568.096H165.466C149.689 568.096 136.9 580.885 136.9 596.662C136.9 612.439 149.689 625.229 165.466 625.229Z" fill="#E6E8EA"/><path d="M1118.4 271.372L1139.22 283.399" stroke="#003B2F" stroke-width="3" stroke-linecap="round" stroke-linejoin="round"/><path d="M1160.12 271.372L1147.84 278.422" stroke="#003B2F" stroke-width="3" stroke-linecap="round" stroke-linejoin="round"/><path d="M1139.22 283.399V307.702" stroke="#003B2F" stroke-width="3" stroke-linecap="round" stroke-linejoin="round"/><path d="M1118.4 340.713H1269.28" stroke="#03FC9D" stroke-width="3" stroke-linecap="round" stroke-linejoin="round"/><path d="M1236.43 373.974H1352.8" stroke="#003B2F" stroke-width="3" stroke-linecap="round" stroke-linejoin="round"/><path d="M427.143 403.767L440.912 417.536" stroke="#003B2F" stroke-width="3" stroke-linecap="round" stroke-linejoin="round"/><path d="M450.948 427.572L464.717 441.341" stroke="#003B2F" stroke-width="3" stroke-linecap="round" stroke-linejoin="round"/><path d="M427.143 441.341L440.912 427.572" stroke="#003B2F" stroke-width="3" stroke-linecap="round" stroke-linejoin="round"/><path d="M450.948 417.536L464.717 403.767" stroke="#003B2F" stroke-width="3" stroke-linecap="round" stroke-linejoin="round"/><path d="M191.858 178.478H220.64" stroke="#003B2F" stroke-width="3" stroke-linecap="round" stroke-linejoin="round"/><path d="M71.5054 114.029H279.697" stroke="#03FC9D" stroke-width="3" stroke-linecap="round" stroke-linejoin="round"/><path d="M257.799 178.395H374.171" stroke="#003B2F" stroke-width="3" stroke-linecap="round" stroke-linejoin="round"/><path d="M1569.74 189.366H1534.17C1545.37 189.366 1554.61 180.242 1554.61 168.924C1554.61 157.605 1545.49 148.481 1534.17 148.481H1431.96C1420.75 148.481 1411.51 157.605 1411.51 168.924H1380.1C1368.9 168.924 1359.66 178.048 1359.66 189.366C1359.66 200.684 1368.78 209.809 1380.1 209.809H1447.09C1447.09 221.011 1456.21 230.251 1467.53 230.251H1569.74C1580.94 230.251 1590.18 221.127 1590.18 209.809C1590.18 198.49 1581.06 189.366 1569.74 189.366Z" fill="#03FC9D"/><path d="M1287.82 257.969H1465.57C1485.15 257.969 1501.02 242.095 1501.02 222.513C1501.02 202.93 1485.15 187.056 1465.57 187.056L1287.82 187.056C1268.24 187.056 1252.36 202.93 1252.36 222.513C1252.36 242.095 1268.24 257.969 1287.82 257.969Z" fill="#E6E8EA"/><path d="M1193.84 707.046H1224.59" stroke="#003B2F" stroke-width="3" stroke-linecap="round" stroke-linejoin="round"/><path d="M1305.57 673.384H1455.73" stroke="#03FC9D" stroke-width="3" stroke-linecap="round" stroke-linejoin="round"/><path d="M1264.24 706.87H1388.49" stroke="#003B2F" stroke-width="3" stroke-linecap="round" stroke-linejoin="round"/><path d="M297.585 564.699L279.697 546.81L261.808 564.699L279.697 582.587L297.585 564.699Z" stroke="#003B2F" stroke-width="3" stroke-linecap="round" stroke-linejoin="round"/></svg>