<svg width="1920" height="1080" viewBox="0 0 1920 1080" fill="none" xmlns="http://www.w3.org/2000/svg"><path d="M1181.28 760.662L1036.67 673.235L1038.93 504.158L1183.66 591.471L1181.28 760.662Z" fill="#E6E8EA"/><path d="M1183.67 591.471L1038.94 504.157L1187.63 421.6L1332.25 508.914L1183.67 591.471Z" fill="#E6E8EA"/><path d="M1332.24 508.913L1329.98 678.104L1181.28 760.661L1183.66 591.47L1332.24 508.913Z" fill="#E6E8EA"/><path d="M1180.94 780.593L1019.23 682.974L1021.83 493.852L1183.55 591.471L1180.94 780.593Z" stroke="#003B2F" stroke-width="3" stroke-linecap="round" stroke-linejoin="round"/><path d="M1183.55 591.47L1021.83 493.851L1187.97 401.555L1349.68 499.174L1183.55 591.47Z" stroke="#003B2F" stroke-width="3" stroke-linecap="round" stroke-linejoin="round"/><path d="M1349.68 499.174L1347.08 688.297L1180.94 780.593L1183.55 591.47L1349.68 499.174Z" stroke="#003B2F" stroke-width="3" stroke-linecap="round" stroke-linejoin="round"/><path d="M932.371 454.555L787.641 367.242L790.02 198.051L934.636 285.364L932.371 454.555Z" fill="#E6E8EA"/><path d="M934.636 285.364L790.019 198.05L938.599 115.493L1083.33 202.807L934.636 285.364Z" fill="#E6E8EA"/><path d="M1083.33 202.806L1080.95 371.997L932.368 454.554L934.633 285.363L1083.33 202.806Z" fill="#E6E8EA"/><path d="M931.917 474.599L770.201 376.98L772.805 187.745L934.522 285.364L931.917 474.599Z" stroke="#003B2F" stroke-width="3" stroke-linecap="round" stroke-linejoin="round"/><path d="M934.522 285.363L772.805 187.744L939.052 95.5614L1100.77 193.18L934.522 285.363Z" stroke="#003B2F" stroke-width="3" stroke-linecap="round" stroke-linejoin="round"/><path d="M1100.77 193.18L1098.16 382.303L931.915 474.599L934.52 285.363L1100.77 193.18Z" stroke="#003B2F" stroke-width="3" stroke-linecap="round" stroke-linejoin="round"/><path d="M563.299 366.676L493.878 324.774L495.011 243.689L564.431 285.591L563.299 366.676Z" fill="#E6E8EA"/><path d="M564.432 285.591L495.012 243.689L566.358 204.053L635.778 245.954L564.432 285.591Z" fill="#E6E8EA"/><path d="M635.776 245.954L634.644 327.152L563.298 366.675L564.431 285.59L635.776 245.954Z" fill="#E6E8EA"/><path d="M563.07 376.302L485.496 329.418L486.742 238.707L564.316 285.591L563.07 376.302Z" stroke="#003B2F" stroke-width="3" stroke-linecap="round" stroke-linejoin="round"/><path d="M564.314 285.591L486.74 238.707L566.466 194.427L644.153 241.311L564.314 285.591Z" stroke="#003B2F" stroke-width="3" stroke-linecap="round" stroke-linejoin="round"/><path d="M644.156 241.312L642.797 332.023L563.071 376.302L564.317 285.591L644.156 241.312Z" stroke="#003B2F" stroke-width="3" stroke-linecap="round" stroke-linejoin="round"/><path d="M1308.12 349.008L1199.97 283.777L1201.67 157.28L1309.82 222.511L1308.12 349.008Z" fill="#E6E8EA"/><path d="M1309.82 222.511L1201.67 157.281L1312.88 95.5613L1421.03 160.792L1309.82 222.511Z" fill="#E6E8EA"/><path d="M1421.03 160.792L1419.21 287.289L1308.12 349.008L1309.82 222.511L1421.03 160.792Z" fill="#E6E8EA"/><path d="M1307.78 363.957L1186.95 291.026L1188.87 149.58L1309.82 222.512L1307.78 363.957Z" stroke="#003B2F" stroke-width="3" stroke-linecap="round" stroke-linejoin="round"/><path d="M1309.82 222.512L1188.87 149.581L1313.1 80.6134L1434.05 153.545L1309.82 222.512Z" stroke="#003B2F" stroke-width="3" stroke-linecap="round" stroke-linejoin="round"/><path d="M1434.05 153.544L1432.01 294.989L1307.78 363.957L1309.82 222.511L1434.05 153.544Z" stroke="#003B2F" stroke-width="3" stroke-linecap="round" stroke-linejoin="round"/><path d="M678.806 760.662L534.19 673.235L536.455 504.158L681.184 591.471L678.806 760.662Z" fill="#E6E8EA"/><path d="M681.187 591.471L536.457 504.157L685.15 421.6L829.767 508.914L681.187 591.471Z" fill="#E6E8EA"/><path d="M829.765 508.913L827.5 678.104L678.806 760.661L681.185 591.47L829.765 508.913Z" fill="#E6E8EA"/><path d="M678.466 780.593L516.75 682.974L519.354 493.852L681.071 591.471L678.466 780.593Z" stroke="#003B2F" stroke-width="3" stroke-linecap="round" stroke-linejoin="round"/><path d="M681.071 591.47L519.354 493.851L685.487 401.555L847.204 499.174L681.071 591.47Z" stroke="#003B2F" stroke-width="3" stroke-linecap="round" stroke-linejoin="round"/><path d="M847.201 499.174L844.597 688.297L678.463 780.593L681.068 591.47L847.201 499.174Z" stroke="#003B2F" stroke-width="3" stroke-linecap="round" stroke-linejoin="round"/><path d="M736.793 880.591C719.126 863.944 707.915 830.083 707.915 811.624C708.141 816.72 709.16 821.816 710.859 826.912C714.483 838.237 721.731 849.335 732.602 859.867C732.942 860.207 733.395 860.66 733.735 861C785.376 909.696 897.037 926.23 983.218 897.805C984.464 897.352 985.71 896.899 986.955 896.446C987.748 896.219 988.541 895.88 989.333 895.54C989.447 895.54 989.56 895.54 989.673 895.427C1041.77 876.628 1070.98 844.919 1071.44 811.964C1071.44 808.113 1071.21 804.263 1070.42 800.412C1083.78 841.068 1052.98 895.314 986.049 917.283C899.982 945.595 788.207 929.061 736.566 880.478L736.793 880.591Z" fill="#E6E8EA"/><path d="M733.851 861.113C733.851 861.113 733.058 860.32 732.718 859.981C721.846 849.449 714.599 838.351 710.975 827.026C709.276 821.93 708.257 816.834 708.03 811.738C708.03 811.511 708.03 811.171 708.03 810.945C706.558 775.498 738.154 740.845 796.25 721.819C882.431 693.508 994.092 710.042 1045.73 758.625C1059.89 771.988 1068.04 786.257 1070.65 800.639C1071.33 804.49 1071.67 808.34 1071.67 812.191C1071.1 845.145 1042 876.855 989.902 895.654C989.789 895.654 989.676 895.654 989.562 895.767C988.77 895.993 987.977 896.333 987.184 896.673C985.938 897.126 984.693 897.579 983.447 898.032C897.379 926.343 785.604 909.809 733.964 861.226L733.851 861.113Z" fill="#03FC9D" stroke="#003B2F" stroke-width="3" stroke-linecap="round" stroke-linejoin="round"/><path d="M735.548 880.251C717.882 863.604 706.67 829.743 706.67 811.284C706.897 816.38 707.916 821.476 709.615 826.572C713.239 837.897 720.487 848.995 731.358 859.527C731.698 859.867 732.151 860.32 732.491 860.66C784.131 909.356 895.793 925.89 981.974 897.465C983.22 897.012 984.465 896.559 985.711 896.106C986.504 895.879 987.297 895.54 988.089 895.2C988.203 895.2 988.316 895.2 988.429 895.087C1040.52 876.288 1069.74 844.578 1070.19 811.624C1070.19 807.773 1069.97 803.923 1069.17 800.072C1082.54 840.728 1051.73 894.973 984.805 916.943C898.737 945.255 786.963 928.721 735.322 880.138L735.548 880.251Z" stroke="#003B2F" stroke-width="3" stroke-linecap="round" stroke-linejoin="round"/><path d="M732.49 860.773C732.49 860.773 731.697 859.98 731.358 859.641C720.486 849.109 713.238 838.01 709.614 826.686C707.916 821.59 706.896 816.493 706.67 811.397C706.67 811.171 706.67 810.831 706.67 810.605C705.198 775.158 736.794 740.505 794.889 721.479C881.07 693.167 992.732 709.701 1044.37 758.284C1058.53 771.648 1066.68 785.917 1069.29 800.299C1069.97 804.15 1070.31 808 1070.31 811.85C1069.74 844.805 1040.64 876.514 988.542 895.313C988.428 895.313 988.315 895.313 988.202 895.427C987.409 895.653 986.617 895.993 985.824 896.333C984.578 896.786 983.332 897.239 982.087 897.692C896.019 926.003 784.244 909.469 732.603 860.886L732.49 860.773Z" stroke="#003B2F" stroke-width="3" stroke-linecap="round" stroke-linejoin="round"/><path d="M772.017 825.213C754.35 808.566 743.139 774.705 743.139 756.246C743.365 761.342 744.385 766.438 746.083 771.534C749.707 782.859 756.955 793.957 767.827 804.489C768.167 804.829 768.62 805.282 768.959 805.622C820.6 854.318 932.261 870.852 1018.44 842.427C1019.69 841.974 1020.93 841.521 1022.18 841.068C1022.97 840.841 1023.77 840.502 1024.56 840.162C1024.67 840.162 1024.78 840.162 1024.9 840.049C1076.99 821.25 1106.21 789.54 1106.66 756.586C1106.66 752.735 1106.44 748.885 1105.64 745.034C1119.01 785.69 1088.2 839.935 1021.27 861.905C935.206 890.217 823.431 873.683 771.79 825.1L772.017 825.213Z" fill="#E6E8EA"/><path d="M768.958 805.735C768.958 805.735 768.166 804.942 767.826 804.603C756.954 794.071 749.706 782.972 746.083 771.648C744.384 766.552 743.365 761.456 743.138 756.359C743.138 756.133 743.138 755.793 743.138 755.567C741.666 720.12 773.262 685.467 831.358 666.441C917.539 638.13 1029.2 654.664 1080.84 703.247C1095 716.61 1103.15 730.879 1105.76 745.261C1106.43 749.112 1106.77 752.962 1106.77 756.812C1106.21 789.767 1077.1 821.476 1025.01 840.275C1024.9 840.275 1024.78 840.276 1024.67 840.389C1023.88 840.615 1023.08 840.955 1022.29 841.295C1021.05 841.748 1019.8 842.201 1018.55 842.654C932.487 870.965 820.712 854.431 769.072 805.848L768.958 805.735Z" fill="#03FC9D" stroke="#003B2F" stroke-width="3" stroke-linecap="round" stroke-linejoin="round"/><path d="M770.656 824.987C752.99 808.339 741.778 774.478 741.778 756.019C742.005 761.115 743.024 766.211 744.723 771.307C748.347 782.632 755.594 793.73 766.466 804.262C766.806 804.602 767.259 805.055 767.599 805.395C819.239 854.091 930.901 870.625 1017.08 842.2C1018.33 841.747 1019.57 841.294 1020.82 840.841C1021.61 840.615 1022.4 840.275 1023.2 839.935C1023.31 839.935 1023.42 839.935 1023.54 839.822C1075.63 821.023 1104.85 789.314 1105.3 756.359C1105.3 752.508 1105.07 748.658 1104.28 744.808C1117.65 785.463 1086.84 839.709 1019.91 861.679C933.845 889.99 822.07 873.456 770.43 824.873L770.656 824.987Z" stroke="#003B2F" stroke-width="3" stroke-linecap="round" stroke-linejoin="round"/><path d="M767.714 805.395C767.714 805.395 766.922 804.602 766.582 804.263C755.71 793.731 748.462 782.632 744.838 771.308C743.14 766.212 742.12 761.115 741.894 756.019C741.894 755.793 741.894 755.453 741.894 755.227C740.422 719.78 772.018 685.127 830.113 666.101C916.294 637.789 1027.96 654.324 1079.6 702.906C1093.75 716.27 1101.91 730.539 1104.51 744.921C1105.19 748.772 1105.53 752.622 1105.53 756.472C1104.96 789.427 1075.86 821.136 1023.77 839.935C1023.65 839.935 1023.54 839.935 1023.43 840.049C1022.63 840.275 1021.84 840.615 1021.05 840.955C1019.8 841.408 1018.56 841.861 1017.31 842.314C931.243 870.625 819.468 854.091 767.828 805.508L767.714 805.395Z" stroke="#003B2F" stroke-width="3" stroke-linecap="round" stroke-linejoin="round"/><path d="M715.73 761.682C698.064 745.035 686.852 711.174 686.852 692.714C687.079 697.811 688.098 702.907 689.796 708.003C693.42 719.327 700.668 730.426 711.54 740.958C711.88 741.297 712.333 741.75 712.672 742.09C764.313 790.786 875.975 807.32 962.156 778.895C963.401 778.442 964.647 777.989 965.893 777.536C966.686 777.31 967.478 776.97 968.271 776.63C968.384 776.63 968.497 776.631 968.611 776.517C1020.7 757.718 1049.92 726.009 1050.38 693.054C1050.38 689.204 1050.15 685.353 1049.36 681.503C1062.72 722.159 1031.92 776.404 964.987 798.374C878.919 826.686 767.144 810.152 715.504 761.569L715.73 761.682Z" fill="#E6E8EA"/><path d="M712.788 742.204C712.788 742.204 711.995 741.411 711.656 741.071C700.784 730.539 693.536 719.441 689.912 708.116C688.213 703.02 687.194 697.924 686.968 692.828C686.968 692.601 686.968 692.262 686.968 692.035C685.495 656.589 717.091 621.935 775.187 602.91C861.368 574.598 973.03 591.132 1024.67 639.715C1038.83 653.078 1046.98 667.347 1049.58 681.73C1050.26 685.58 1050.6 689.431 1050.6 693.281C1050.04 726.236 1020.93 757.945 968.84 776.744C968.726 776.744 968.613 776.744 968.5 776.857C967.707 777.084 966.914 777.424 966.122 777.763C964.876 778.216 963.63 778.669 962.385 779.122C876.317 807.434 764.542 790.9 712.901 742.317L712.788 742.204Z" fill="#03FC9D" stroke="#003B2F" stroke-width="3" stroke-linecap="round" stroke-linejoin="round"/><path d="M714.37 761.342C696.703 744.694 685.492 710.834 685.492 692.374C685.718 697.47 686.737 702.567 688.436 707.663C692.06 718.987 699.308 730.086 710.18 740.618C710.519 740.957 710.972 741.41 711.312 741.75C762.953 790.446 874.614 806.98 960.795 778.555C962.041 778.102 963.287 777.649 964.532 777.196C965.325 776.97 966.118 776.63 966.911 776.29C967.024 776.29 967.137 776.29 967.25 776.177C1019.34 757.378 1048.56 725.669 1049.01 692.714C1049.01 688.864 1048.79 685.013 1048 681.163C1061.36 721.819 1030.56 776.064 963.626 798.034C877.559 826.346 765.784 809.811 714.143 761.228L714.37 761.342Z" stroke="#003B2F" stroke-width="3" stroke-linecap="round" stroke-linejoin="round"/><path d="M711.428 741.864C711.428 741.864 710.635 741.071 710.295 740.731C699.423 730.199 692.176 719.101 688.552 707.776C686.853 702.68 685.834 697.584 685.607 692.488C685.607 692.261 685.607 691.922 685.607 691.695C684.135 656.249 715.731 621.595 773.827 602.57C860.008 574.258 971.669 590.792 1023.31 639.375C1037.47 652.738 1045.62 667.007 1048.22 681.39C1048.9 685.24 1049.24 689.09 1049.24 692.941C1048.68 725.896 1019.57 757.605 967.479 776.404C967.366 776.404 967.253 776.404 967.14 776.517C966.347 776.744 965.554 777.083 964.761 777.423C963.516 777.876 962.27 778.329 961.024 778.782C874.956 807.094 763.182 790.56 711.541 741.977L711.428 741.864Z" stroke="#003B2F" stroke-width="3" stroke-linecap="round" stroke-linejoin="round"/><path d="M779.26 729.972C761.593 713.325 750.382 679.464 750.382 661.005C750.608 666.101 751.628 671.197 753.326 676.293C756.95 687.618 764.198 698.716 775.07 709.248C775.409 709.588 775.862 710.041 776.202 710.381C827.843 759.077 939.504 775.611 1025.69 747.186C1026.93 746.733 1028.18 746.28 1029.42 745.827C1030.22 745.6 1031.01 745.261 1031.8 744.921C1031.91 744.921 1032.03 744.921 1032.14 744.808C1084.23 726.009 1113.45 694.299 1113.9 661.345C1113.9 657.494 1113.68 653.644 1112.89 649.793C1126.25 690.449 1095.45 744.694 1028.52 766.664C942.449 794.976 830.674 778.442 779.033 729.859L779.26 729.972Z" fill="#E6E8EA"/><path d="M776.202 710.494C776.202 710.494 775.409 709.701 775.069 709.362C764.198 698.83 756.95 687.731 753.326 676.407C751.627 671.311 750.608 666.214 750.382 661.118C750.382 660.892 750.382 660.552 750.382 660.326C748.909 624.879 780.505 590.226 838.601 571.2C924.782 542.888 1036.44 559.422 1088.08 608.005C1102.24 621.369 1110.39 635.638 1113 650.02C1113.68 653.871 1114.02 657.721 1114.02 661.571C1113.45 694.526 1084.35 726.235 1032.25 745.034C1032.14 745.034 1032.03 745.034 1031.91 745.148C1031.12 745.374 1030.33 745.714 1029.54 746.054C1028.29 746.507 1027.04 746.96 1025.8 747.413C939.731 775.724 827.956 759.19 776.315 710.607L776.202 710.494Z" fill="#03FC9D" stroke="#003B2F" stroke-width="3" stroke-linecap="round" stroke-linejoin="round"/><path d="M777.9 729.632C760.233 712.985 749.022 679.124 749.022 660.665C749.248 665.761 750.267 670.857 751.966 675.953C755.59 687.278 762.838 698.376 773.71 708.908C774.049 709.248 774.502 709.701 774.842 710.04C826.483 758.737 938.144 775.271 1024.33 746.846C1025.57 746.393 1026.82 745.94 1028.06 745.487C1028.86 745.26 1029.65 744.92 1030.44 744.581C1030.55 744.581 1030.67 744.581 1030.78 744.467C1082.87 725.668 1112.09 693.959 1112.54 661.004C1112.54 657.154 1112.32 653.304 1111.53 649.453C1124.89 690.109 1094.09 744.354 1027.16 766.324C941.089 794.636 829.314 778.102 777.673 729.519L777.9 729.632Z" stroke="#003B2F" stroke-width="3" stroke-linecap="round" stroke-linejoin="round"/><path d="M774.842 710.154C774.842 710.154 774.049 709.361 773.709 709.021C762.838 698.489 755.59 687.391 751.966 676.067C750.267 670.97 749.248 665.874 749.021 660.778C749.021 660.552 749.021 660.212 749.021 659.985C747.549 624.539 779.145 589.886 837.241 570.86C923.422 542.548 1035.08 559.082 1086.72 607.665C1100.88 621.028 1109.03 635.298 1111.64 649.68C1112.32 653.53 1112.66 657.381 1112.66 661.231C1112.09 694.186 1082.99 725.895 1030.89 744.694C1030.78 744.694 1030.67 744.694 1030.55 744.808C1029.76 745.034 1028.97 745.374 1028.18 745.714C1026.93 746.166 1025.68 746.619 1024.44 747.072C938.37 775.384 826.596 758.85 774.955 710.267L774.842 710.154Z" stroke="#003B2F" stroke-width="3" stroke-linecap="round" stroke-linejoin="round"/><path d="M722.98 666.327C705.313 649.68 694.102 615.819 694.102 597.36C694.328 602.456 695.347 607.552 697.046 612.648C700.67 623.973 707.918 635.071 718.789 645.603C719.129 645.943 719.582 646.396 719.922 646.736C771.563 695.432 883.224 711.966 969.405 683.541C970.651 683.088 971.897 682.635 973.142 682.182C973.935 681.956 974.728 681.616 975.52 681.276C975.634 681.276 975.747 681.276 975.86 681.163C1027.95 662.364 1057.17 630.655 1057.62 597.7C1057.62 593.849 1057.4 589.999 1056.61 586.149C1069.97 626.804 1039.17 681.05 972.236 703.019C886.169 731.331 774.394 714.797 722.753 666.214L722.98 666.327Z" fill="#E6E8EA"/><path d="M719.921 646.849C719.921 646.849 719.129 646.056 718.789 645.717C707.917 635.185 700.669 624.087 697.045 612.762C695.347 607.666 694.327 602.57 694.101 597.474C694.101 597.247 694.101 596.907 694.101 596.681C692.629 561.234 724.225 526.581 782.32 507.555C868.501 479.244 980.163 495.778 1031.8 544.361C1045.96 557.724 1054.11 571.993 1056.72 586.375C1057.4 590.226 1057.74 594.076 1057.74 597.927C1057.17 630.881 1028.07 662.591 975.973 681.39C975.86 681.39 975.746 681.39 975.633 681.503C974.84 681.729 974.048 682.069 973.255 682.409C972.009 682.862 970.764 683.315 969.518 683.768C883.45 712.08 771.675 695.545 720.035 646.962L719.921 646.849Z" fill="#03FC9D" stroke="#003B2F" stroke-width="3" stroke-linecap="round" stroke-linejoin="round"/><path d="M721.619 666.101C703.953 649.453 692.741 615.593 692.741 597.133C692.968 602.229 693.987 607.325 695.686 612.422C699.31 623.746 706.557 634.844 717.429 645.376C717.769 645.716 718.222 646.169 718.562 646.509C770.202 695.205 881.864 711.739 968.045 683.314C969.291 682.861 970.536 682.408 971.782 681.955C972.575 681.729 973.367 681.389 974.16 681.049C974.273 681.049 974.387 681.049 974.5 680.936C1026.59 662.137 1055.81 630.428 1056.26 597.473C1056.26 593.623 1056.04 589.772 1055.25 585.922C1068.61 626.577 1037.8 680.823 970.876 702.793C884.808 731.104 773.033 714.57 721.393 665.987L721.619 666.101Z" stroke="#003B2F" stroke-width="3" stroke-linecap="round" stroke-linejoin="round"/><path d="M718.677 646.509C718.677 646.509 717.884 645.716 717.545 645.377C706.673 634.845 699.425 623.747 695.801 612.422C694.103 607.326 693.083 602.23 692.857 597.133C692.857 596.907 692.857 596.567 692.857 596.341C691.385 560.894 722.981 526.241 781.076 507.215C867.257 478.904 978.919 495.438 1030.56 544.021C1044.72 557.384 1052.87 571.653 1055.47 586.035C1056.15 589.886 1056.49 593.736 1056.49 597.586C1055.93 630.541 1026.82 662.251 974.729 681.05C974.616 681.05 974.502 681.05 974.389 681.163C973.596 681.389 972.804 681.729 972.011 682.069C970.765 682.522 969.519 682.975 968.274 683.428C882.206 711.739 770.431 695.205 718.79 646.622L718.677 646.509Z" stroke="#003B2F" stroke-width="3" stroke-linecap="round" stroke-linejoin="round"/><path d="M921.956 529.977H827.169C821.166 529.977 815.504 532.129 812.56 535.526L765.222 589.658C762.165 593.056 762.165 597.359 765.222 600.756L812.56 654.889C815.617 658.286 821.166 660.438 827.169 660.438H921.956C927.958 660.438 933.621 658.286 936.565 654.889L983.902 600.756C986.96 597.359 986.96 593.056 983.902 589.658L936.565 535.526C933.508 532.129 927.958 529.977 921.956 529.977Z" fill="#03FC9D"/><path d="M856.157 607.098L824.108 599.397C823.202 599.171 822.183 599.171 821.39 599.397L766.125 612.647L779.602 628.049L856.27 609.59C857.969 609.137 857.969 607.551 856.27 607.098M910.289 622.5C912.101 622.047 912.101 620.461 910.289 620.008L878.24 612.308C877.334 612.081 876.315 612.081 875.522 612.308L785.038 634.051L798.514 649.453L910.289 622.613V622.5Z" fill="#00261E"/><path d="M980.504 595.321C980.504 595.321 980.277 596.114 980.051 596.453L928.75 655.002C928.183 655.682 927.051 656.135 925.918 656.135H823.43C822.184 656.135 821.165 655.682 820.599 655.002L769.298 596.453C769.298 596.453 768.845 595.774 768.845 595.321C768.845 594.868 769.071 594.528 769.298 594.189L820.599 535.64C821.165 534.96 822.297 534.507 823.43 534.507H926.032C927.277 534.507 928.297 534.96 928.863 535.64L980.164 594.189C980.164 594.189 980.617 594.868 980.617 595.321M995.565 595.321C995.565 593.283 994.659 591.131 993.074 589.319L941.773 530.77C938.489 527.033 932.487 524.768 925.918 524.768H823.43C816.862 524.768 810.859 527.033 807.575 530.77L756.274 589.319C754.576 591.131 753.783 593.283 753.783 595.321C753.783 597.359 754.689 599.511 756.274 601.323L807.575 659.872C810.859 663.609 816.862 665.874 823.43 665.874H925.918C932.487 665.874 938.489 663.609 941.773 659.872L992.961 601.323C994.546 599.398 995.452 597.359 995.452 595.321" fill="white"/><path d="M784.813 556.591L807.123 562.027L793.533 572.786L779.49 562.707L784.813 556.591Z" fill="#03FC9D"/><path d="M933.165 590.338V575.502C933.165 574.37 932.145 573.351 930.56 573.011L798.287 541.188L784.811 556.59L930.56 591.583C931.919 591.923 933.278 591.244 933.278 590.338M933.278 616.271V601.436C933.278 600.303 932.259 599.284 930.673 598.944L779.602 562.592L766.125 577.994L930.56 617.517C931.919 617.857 933.278 617.177 933.278 616.271Z" fill="#003B2F"/><path d="M1001.79 927.588C988.878 915.471 980.725 890.67 980.725 877.307C980.951 881.044 981.631 884.781 982.876 888.518C985.594 896.785 990.804 904.939 998.731 912.64C998.957 912.98 999.297 913.206 999.524 913.433C1037.23 948.992 1118.77 960.996 1181.74 940.385C1182.64 940.046 1183.55 939.706 1184.46 939.479C1185.02 939.253 1185.7 939.026 1186.27 938.8C1186.27 938.8 1186.38 938.8 1186.49 938.8C1224.55 925.097 1245.84 901.881 1246.29 877.873C1246.29 875.042 1246.06 872.211 1245.61 869.379C1255.35 899.05 1232.93 938.687 1184 954.768C1121.15 975.492 1039.5 963.375 1001.79 927.815V927.588Z" fill="#E6E8EA"/><path d="M999.523 913.432C999.523 913.432 998.957 912.866 998.73 912.639C990.803 904.939 985.481 896.785 982.876 888.518C981.63 884.781 980.951 881.044 980.724 877.306C980.724 877.08 980.724 876.967 980.724 876.74C979.705 850.92 1002.69 825.553 1045.16 811.623C1108.01 790.899 1189.66 803.016 1227.38 838.576C1237.68 848.315 1243.68 858.734 1245.61 869.266C1246.18 872.097 1246.4 874.928 1246.29 877.759C1245.84 901.768 1224.66 924.983 1186.49 938.686C1186.49 938.686 1186.38 938.686 1186.27 938.686C1185.7 938.913 1185.02 939.139 1184.46 939.366C1183.55 939.706 1182.64 940.045 1181.74 940.272C1118.89 960.996 1037.23 948.879 999.523 913.319V913.432Z" fill="#03FC9D" stroke="#003B2F" stroke-width="3" stroke-linecap="round" stroke-linejoin="round"/><path d="M1000.77 927.362C987.861 915.244 979.708 890.443 979.708 877.08C979.934 880.817 980.613 884.554 981.859 888.291C984.577 896.558 989.787 904.712 997.714 912.413C997.94 912.753 998.28 912.979 998.507 913.206C1036.22 948.765 1117.76 960.77 1180.72 940.159C1181.63 939.819 1182.53 939.479 1183.44 939.253C1184.01 939.026 1184.68 938.8 1185.25 938.573C1185.25 938.573 1185.36 938.573 1185.48 938.573C1223.53 924.87 1244.82 901.655 1245.27 877.646C1245.27 874.815 1245.05 871.984 1244.59 869.153C1254.33 898.823 1231.91 938.46 1182.99 954.541C1120.13 975.265 1038.48 963.148 1000.77 927.588V927.362Z" stroke="#003B2F" stroke-width="3" stroke-linecap="round" stroke-linejoin="round"/><path d="M998.622 913.205C998.622 913.205 998.056 912.639 997.829 912.413C989.902 904.712 984.579 896.558 981.974 888.291C980.729 884.554 980.049 880.817 979.823 877.08C979.823 876.853 979.823 876.74 979.823 876.513C978.804 850.693 1001.79 825.326 1044.26 811.396C1107.11 790.672 1188.76 802.79 1226.47 838.349C1236.78 848.088 1242.78 858.507 1244.71 869.039C1245.27 871.87 1245.5 874.701 1245.39 877.533C1244.93 901.541 1223.76 924.757 1185.59 938.46C1185.59 938.46 1185.48 938.46 1185.37 938.46C1184.8 938.686 1184.12 938.913 1183.55 939.139C1182.65 939.479 1181.74 939.818 1180.84 940.045C1117.98 960.769 1036.33 948.652 998.622 913.092V913.205Z" stroke="#003B2F" stroke-width="3" stroke-linecap="round" stroke-linejoin="round"/><path d="M1022.86 902.221C1009.95 890.104 1001.79 865.303 1001.79 851.939C1002.02 855.677 1002.7 859.414 1003.94 863.151C1006.66 871.418 1011.87 879.572 1019.8 887.272C1020.03 887.612 1020.37 887.839 1020.59 888.065C1058.3 923.625 1139.84 935.629 1202.81 915.018C1203.71 914.678 1204.62 914.339 1205.52 914.112C1206.09 913.886 1206.77 913.659 1207.34 913.433C1207.34 913.433 1207.45 913.433 1207.56 913.433C1245.61 899.73 1266.9 876.514 1267.36 852.506C1267.36 849.674 1267.13 846.843 1266.68 844.012C1276.42 873.683 1253.99 913.319 1205.07 929.4C1142.22 950.125 1060.57 938.007 1022.86 902.448V902.221Z" fill="#E6E8EA"/><path d="M1020.71 887.951C1020.71 887.951 1020.14 887.385 1019.91 887.159C1011.99 879.458 1006.66 871.304 1004.06 863.037C1002.81 859.3 1002.13 855.563 1001.91 851.826C1001.91 851.599 1001.91 851.486 1001.91 851.259C1000.89 825.439 1023.88 800.072 1066.35 786.142C1129.2 765.418 1210.85 777.536 1248.56 813.095C1258.87 822.834 1264.87 833.253 1266.79 843.785C1267.36 846.616 1267.59 849.447 1267.47 852.279C1267.02 876.287 1245.84 899.503 1207.68 913.206C1207.68 913.206 1207.56 913.206 1207.45 913.206C1206.89 913.432 1206.21 913.659 1205.64 913.885C1204.73 914.225 1203.83 914.565 1202.92 914.791C1140.07 935.515 1058.42 923.398 1020.71 887.838V887.951Z" fill="#03FC9D" stroke="#003B2F" stroke-width="3" stroke-linecap="round" stroke-linejoin="round"/><path d="M1021.95 901.994C1009.04 889.877 1000.89 865.076 1000.89 851.713C1001.11 855.45 1001.79 859.187 1003.04 862.924C1005.76 871.191 1010.97 879.345 1018.89 887.046C1019.12 887.386 1019.46 887.612 1019.69 887.839C1057.4 923.398 1138.93 935.402 1201.9 914.791C1202.81 914.452 1203.71 914.112 1204.62 913.885C1205.18 913.659 1205.86 913.432 1206.43 913.206C1206.43 913.206 1206.54 913.206 1206.66 913.206C1244.71 899.503 1266 876.287 1266.45 852.279C1266.45 849.448 1266.22 846.617 1265.77 843.785C1275.51 873.456 1253.09 913.093 1204.16 929.174C1141.31 949.898 1059.66 937.781 1021.95 902.221V901.994Z" stroke="#003B2F" stroke-width="3" stroke-linecap="round" stroke-linejoin="round"/><path d="M1019.68 887.725C1019.68 887.725 1019.12 887.159 1018.89 886.932C1010.96 879.231 1005.64 871.078 1003.04 862.81C1001.79 859.073 1001.11 855.336 1000.89 851.599C1000.89 851.373 1000.89 851.259 1000.89 851.033C999.866 825.213 1022.86 799.845 1065.32 785.916C1128.17 765.192 1209.83 777.309 1247.54 812.869C1257.84 822.608 1263.84 833.027 1265.77 843.559C1266.34 846.39 1266.56 849.221 1266.45 852.052C1266 876.06 1244.82 899.276 1206.66 912.979C1206.66 912.979 1206.54 912.979 1206.43 912.979C1205.86 913.205 1205.18 913.432 1204.62 913.658C1203.71 913.998 1202.8 914.338 1201.9 914.564C1139.05 935.289 1057.4 923.171 1019.68 887.612V887.725Z" stroke="#003B2F" stroke-width="3" stroke-linecap="round" stroke-linejoin="round"/><path d="M993.522 874.59C980.612 862.472 972.458 837.671 972.458 824.308C972.685 828.045 973.364 831.782 974.61 835.519C977.328 843.786 982.537 851.94 990.464 859.641C990.691 859.981 991.031 860.207 991.257 860.434C1028.97 895.993 1110.51 907.998 1173.47 887.387C1174.38 887.047 1175.28 886.707 1176.19 886.481C1176.76 886.254 1177.44 886.028 1178 885.801C1178 885.801 1178.11 885.801 1178.23 885.801C1216.28 872.098 1237.57 848.883 1238.02 824.874C1238.02 822.043 1237.8 819.212 1237.34 816.381C1247.08 846.051 1224.66 885.688 1175.74 901.769C1112.88 922.493 1031.23 910.376 993.522 874.816V874.59Z" fill="#E6E8EA"/><path d="M991.257 860.32C991.257 860.32 990.69 859.754 990.464 859.527C982.536 851.826 977.214 843.673 974.609 835.406C973.364 831.668 972.684 827.931 972.458 824.194C972.458 823.968 972.458 823.854 972.458 823.628C971.438 797.808 994.427 772.44 1036.9 758.511C1099.75 737.787 1181.4 749.904 1219.11 785.464C1229.42 795.203 1235.42 805.622 1237.34 816.154C1237.91 818.985 1238.14 821.816 1238.02 824.647C1237.57 848.656 1216.39 871.871 1178.23 885.574C1178.23 885.574 1178.11 885.574 1178 885.574C1177.43 885.801 1176.76 886.027 1176.19 886.254C1175.28 886.593 1174.38 886.933 1173.47 887.16C1110.62 907.884 1028.97 895.766 991.257 860.207V860.32Z" fill="#03FC9D" stroke="#003B2F" stroke-width="3" stroke-linecap="round" stroke-linejoin="round"/><path d="M992.505 874.363C979.595 862.245 971.441 837.444 971.441 824.081C971.667 827.818 972.347 831.555 973.593 835.293C976.311 843.56 981.52 851.713 989.447 859.414C989.674 859.754 990.013 859.981 990.24 860.207C1027.95 895.767 1109.49 907.771 1172.45 887.16C1173.36 886.82 1174.27 886.48 1175.17 886.254C1175.74 886.027 1176.42 885.801 1176.98 885.574C1176.98 885.574 1177.1 885.574 1177.21 885.574C1215.26 871.871 1236.55 848.656 1237.01 824.647C1237.01 821.816 1236.78 818.985 1236.33 816.154C1246.06 845.825 1223.64 885.461 1174.72 901.542C1111.87 922.266 1030.22 910.149 992.505 874.589V874.363Z" stroke="#003B2F" stroke-width="3" stroke-linecap="round" stroke-linejoin="round"/><path d="M990.355 860.093C990.355 860.093 989.789 859.527 989.563 859.301C981.635 851.6 976.313 843.446 973.708 835.179C972.462 831.442 971.783 827.705 971.556 823.967C971.556 823.741 971.556 823.628 971.556 823.401C970.537 797.581 993.526 772.214 1035.99 758.284C1098.85 737.56 1180.5 749.677 1218.21 785.237C1228.51 794.976 1234.52 805.395 1236.44 815.927C1237.01 818.758 1237.23 821.589 1237.12 824.42C1236.67 848.429 1215.49 871.645 1177.33 885.347C1177.33 885.347 1177.21 885.347 1177.1 885.347C1176.53 885.574 1175.85 885.8 1175.29 886.027C1174.38 886.367 1173.48 886.706 1172.57 886.933C1109.72 907.657 1028.07 895.54 990.355 859.98V860.093Z" stroke="#003B2F" stroke-width="3" stroke-linecap="round" stroke-linejoin="round"/><path d="M1027.5 851.6C1014.59 839.483 1006.43 814.682 1006.43 801.318C1006.66 805.056 1007.34 808.793 1008.58 812.53C1011.3 820.797 1016.51 828.951 1024.44 836.651C1024.67 836.991 1025 837.218 1025.23 837.444C1062.94 873.004 1144.48 885.008 1207.45 864.397C1208.35 864.057 1209.26 863.718 1210.16 863.491C1210.73 863.265 1211.41 863.038 1211.98 862.811C1211.98 862.811 1212.09 862.811 1212.2 862.811C1250.25 849.109 1271.54 825.893 1272 801.885C1272 799.053 1271.77 796.222 1271.32 793.391C1281.06 823.062 1258.63 862.698 1209.71 878.779C1146.86 899.504 1065.21 887.386 1027.5 851.827V851.6Z" fill="#E6E8EA"/><path d="M1025.23 837.33C1025.23 837.33 1024.66 836.764 1024.44 836.538C1016.51 828.837 1011.19 820.683 1008.58 812.416C1007.34 808.679 1006.66 804.942 1006.43 801.205C1006.43 800.978 1006.43 800.865 1006.43 800.638C1005.41 774.818 1028.4 749.451 1070.87 735.521C1133.72 714.797 1215.37 726.915 1253.08 762.474C1263.39 772.213 1269.39 782.632 1271.32 793.164C1271.88 795.995 1272.11 798.827 1272 801.658C1271.54 825.666 1250.37 848.882 1212.2 862.585C1212.2 862.585 1212.09 862.585 1211.98 862.585C1211.41 862.811 1210.73 863.038 1210.16 863.264C1209.26 863.604 1208.35 863.944 1207.45 864.17C1144.59 884.894 1062.94 872.777 1025.23 837.217V837.33Z" fill="#03FC9D" stroke="#003B2F" stroke-width="3" stroke-linecap="round" stroke-linejoin="round"/><path d="M1026.48 851.373C1013.57 839.256 1005.42 814.455 1005.42 801.092C1005.64 804.829 1006.32 808.566 1007.57 812.303C1010.28 820.57 1015.49 828.724 1023.42 836.425C1023.65 836.765 1023.99 836.991 1024.21 837.218C1061.93 872.777 1143.46 884.781 1206.43 864.17C1207.33 863.831 1208.24 863.491 1209.15 863.264C1209.71 863.038 1210.39 862.811 1210.96 862.585C1210.96 862.585 1211.07 862.585 1211.18 862.585C1249.24 848.882 1270.53 825.666 1270.98 801.658C1270.98 798.827 1270.75 795.996 1270.3 793.164C1280.04 822.835 1257.62 862.472 1208.69 878.553C1145.84 899.277 1064.19 887.159 1026.48 851.6V851.373Z" stroke="#003B2F" stroke-width="3" stroke-linecap="round" stroke-linejoin="round"/><path d="M1024.33 837.104C1024.33 837.104 1023.76 836.537 1023.54 836.311C1015.61 828.61 1010.29 820.456 1007.68 812.189C1006.44 808.452 1005.76 804.715 1005.53 800.978C1005.53 800.751 1005.53 800.638 1005.53 800.412C1004.51 774.591 1027.5 749.224 1069.97 735.295C1132.82 714.57 1214.47 726.688 1252.18 762.247C1262.49 771.987 1268.49 782.405 1270.42 792.937C1270.98 795.769 1271.21 798.6 1271.09 801.431C1270.64 825.439 1249.46 848.655 1211.3 862.358C1211.3 862.358 1211.19 862.358 1211.07 862.358C1210.51 862.584 1209.83 862.811 1209.26 863.037C1208.36 863.377 1207.45 863.717 1206.54 863.943C1143.69 884.668 1062.04 872.55 1024.33 836.99V837.104Z" stroke="#003B2F" stroke-width="3" stroke-linecap="round" stroke-linejoin="round"/><path d="M1011.31 830.536C998.395 818.419 990.242 793.618 990.242 780.255C990.468 783.992 991.148 787.729 992.393 791.466C995.111 799.733 1000.32 807.887 1008.25 815.588C1008.47 815.927 1008.81 816.154 1009.04 816.38C1046.75 851.94 1128.29 863.944 1191.26 843.333C1192.16 842.994 1193.07 842.654 1193.97 842.427C1194.54 842.201 1195.22 841.974 1195.79 841.748C1195.79 841.748 1195.9 841.748 1196.01 841.748C1234.06 828.045 1255.35 804.829 1255.81 780.821C1255.81 777.99 1255.58 775.158 1255.13 772.327C1264.87 801.998 1242.44 841.635 1193.52 857.716C1130.67 878.44 1049.02 866.322 1011.31 830.763V830.536Z" fill="#E6E8EA" stroke="#003B2F" stroke-width="3" stroke-linecap="round" stroke-linejoin="round"/><path d="M1009.16 816.267C1009.16 816.267 1008.59 815.7 1008.36 815.474C1000.44 807.773 995.114 799.619 992.509 791.352C991.263 787.615 990.584 783.878 990.357 780.141C990.357 779.914 990.357 779.801 990.357 779.575C989.338 753.754 1012.33 728.387 1054.79 714.458C1117.65 693.733 1199.3 705.851 1237.01 741.41C1247.31 751.15 1253.32 761.568 1255.24 772.1C1255.81 774.932 1256.03 777.763 1255.92 780.594C1255.47 804.602 1234.29 827.818 1196.13 841.521C1196.13 841.521 1196.01 841.521 1195.9 841.521C1195.33 841.747 1194.65 841.974 1194.09 842.2C1193.18 842.54 1192.28 842.88 1191.37 843.106C1128.52 863.83 1046.87 851.713 1009.16 816.154V816.267Z" fill="#03FC9D" stroke="#003B2F" stroke-width="3" stroke-linecap="round" stroke-linejoin="round"/><path d="M1010.4 830.31C997.488 818.192 989.334 793.391 989.334 780.028C989.561 783.765 990.24 787.502 991.486 791.239C994.204 799.506 999.413 807.66 1007.34 815.361C1007.57 815.701 1007.91 815.927 1008.13 816.154C1045.84 851.713 1127.38 863.717 1190.35 843.106C1191.25 842.767 1192.16 842.427 1193.07 842.2C1193.63 841.974 1194.31 841.748 1194.88 841.521C1194.88 841.521 1194.99 841.521 1195.1 841.521C1233.16 827.818 1254.45 804.602 1254.9 780.594C1254.9 777.763 1254.67 774.932 1254.22 772.101C1263.96 801.771 1241.54 841.408 1192.61 857.489C1129.76 878.213 1048.11 866.096 1010.4 830.536V830.31Z" stroke="#003B2F" stroke-width="3" stroke-linecap="round" stroke-linejoin="round"/><path d="M1008.13 816.04C1008.13 816.04 1007.57 815.474 1007.34 815.247C999.413 807.546 994.09 799.393 991.485 791.126C990.24 787.388 989.56 783.651 989.334 779.914C989.334 779.688 989.334 779.574 989.334 779.348C988.315 753.528 1011.3 728.16 1053.77 714.231C1116.62 693.507 1198.27 705.624 1235.99 741.184C1246.29 750.923 1252.29 761.342 1254.22 771.874C1254.78 774.705 1255.01 777.536 1254.9 780.367C1254.45 804.376 1233.27 827.591 1195.1 841.294C1195.1 841.294 1194.99 841.294 1194.88 841.294C1194.31 841.521 1193.63 841.747 1193.07 841.974C1192.16 842.313 1191.25 842.653 1190.35 842.88C1127.5 863.604 1045.84 851.486 1008.13 815.927V816.04Z" stroke="#003B2F" stroke-width="3" stroke-linecap="round" stroke-linejoin="round"/><path d="M1154.68 726.802H1092.84C1088.88 726.802 1085.26 728.387 1083.33 731.105L1052.41 772.554C1050.38 775.158 1050.38 778.442 1052.41 781.047L1083.33 822.495C1085.37 825.1 1088.99 826.799 1092.84 826.799H1154.68C1158.64 826.799 1162.26 825.213 1164.3 822.495L1195.22 781.047C1197.26 778.442 1197.26 775.158 1195.22 772.554L1164.3 731.105C1162.26 728.5 1158.64 726.802 1154.68 726.802Z" fill="#03FC9D"/><path d="M1111.76 785.804L1090.81 779.915C1090.81 779.915 1089.56 779.689 1088.99 779.915L1052.98 790.107L1061.81 801.885L1111.87 787.729C1113 787.389 1113 786.144 1111.87 785.804M1147.09 797.695C1148.22 797.355 1148.22 796.109 1147.09 795.77L1126.14 789.881C1125.57 789.654 1124.89 789.654 1124.33 789.881L1065.32 806.528L1074.16 818.306L1147.2 797.695H1147.09Z" fill="#00261E"/><path d="M1192.95 776.744C1192.95 776.744 1192.95 777.31 1192.61 777.536L1159.09 822.382C1159.09 822.382 1157.96 823.175 1157.17 823.175H1090.24C1089.45 823.175 1088.77 822.835 1088.31 822.382L1054.79 777.536C1054.79 777.536 1054.45 776.97 1054.45 776.744C1054.45 776.517 1054.45 776.178 1054.79 775.951L1088.31 731.105C1088.31 731.105 1089.45 730.312 1090.24 730.312H1157.17C1157.96 730.312 1158.64 730.652 1159.09 731.105L1192.61 775.951C1192.61 775.951 1192.95 776.517 1192.95 776.744ZM1202.69 776.744C1202.69 775.158 1202.13 773.573 1201.11 772.101L1167.59 727.255C1165.44 724.424 1161.59 722.612 1157.28 722.612H1090.35C1086.05 722.612 1082.09 724.424 1080.05 727.255L1046.53 772.101C1045.39 773.573 1044.94 775.158 1044.94 776.744C1044.94 778.329 1045.51 779.915 1046.53 781.387L1080.05 826.233C1082.2 829.064 1086.05 830.876 1090.35 830.876H1157.28C1161.59 830.876 1165.55 829.064 1167.59 826.233L1201 781.387C1202.01 779.915 1202.58 778.329 1202.58 776.744" fill="white"/><path d="M1065.21 747.073L1079.82 751.264L1070.87 759.531L1061.7 751.83L1065.21 747.187V747.073Z" fill="#03FC9D"/><path d="M1162.04 773.007V761.682C1162.04 760.889 1161.36 760.096 1160.34 759.757L1073.93 735.409L1065.1 747.186L1160.23 774.026C1161.13 774.252 1162.04 773.799 1162.04 773.007ZM1162.04 792.938V781.613C1162.04 780.821 1161.36 780.028 1160.34 779.688L1061.7 751.829L1052.87 763.607L1160.23 793.844C1161.13 794.071 1162.04 793.618 1162.04 792.938Z" fill="#003B2F"/><path d="M833.279 965.979C821.954 955.334 814.819 933.591 814.819 921.813C815.046 925.097 815.612 928.381 816.745 931.665C819.123 938.913 823.653 946.048 830.674 952.729C830.9 952.956 831.127 953.182 831.353 953.409C864.422 984.552 935.994 995.197 991.032 976.964C991.824 976.738 992.617 976.398 993.41 976.171C993.976 975.945 994.429 975.832 994.995 975.605C994.995 975.605 995.109 975.605 995.222 975.605C1028.63 963.601 1047.2 943.217 1047.66 922.153C1047.66 919.661 1047.54 917.283 1046.98 914.792C1055.47 940.838 1035.88 975.492 992.957 989.648C937.806 1007.77 866.347 997.235 833.279 966.092V965.979Z" fill="#E6E8EA"/><path d="M831.355 953.523C831.355 953.523 830.902 953.07 830.676 952.843C823.654 946.162 819.124 938.914 816.746 931.779C815.727 928.495 815.048 925.211 814.821 921.927C814.821 921.813 814.821 921.587 814.821 921.361C813.915 898.711 834.073 876.515 871.331 864.284C926.483 846.165 997.941 856.697 1031.12 887.839C1040.18 896.333 1045.39 905.506 1047.09 914.792C1047.54 917.284 1047.77 919.775 1047.77 922.153C1047.43 943.217 1028.74 963.602 995.337 975.606C995.337 975.606 995.224 975.606 995.11 975.606C994.544 975.832 994.091 975.946 993.525 976.172C992.732 976.512 991.939 976.738 991.147 976.965C935.995 995.084 864.536 984.552 831.468 953.409L831.355 953.523Z" fill="#03FC9D" stroke="#003B2F" stroke-width="3" stroke-linecap="round" stroke-linejoin="round"/><path d="M832.488 965.753C821.163 955.107 814.029 933.364 814.029 921.586C814.255 924.87 814.821 928.154 815.954 931.439C818.332 938.686 822.862 945.821 829.883 952.503C830.11 952.729 830.336 952.956 830.563 953.182C863.631 984.325 935.203 994.97 990.241 976.737C991.034 976.511 991.826 976.171 992.619 975.945C993.185 975.718 993.638 975.605 994.205 975.378C994.205 975.378 994.318 975.378 994.431 975.378C1027.84 963.374 1046.41 942.99 1046.86 921.926C1046.86 919.434 1046.75 917.056 1046.19 914.565C1054.68 940.612 1035.09 975.265 992.166 989.421C937.015 1007.54 865.556 997.009 832.488 965.866V965.753Z" stroke="#003B2F" stroke-width="3" stroke-linecap="round" stroke-linejoin="round"/><path d="M830.564 953.296C830.564 953.296 830.111 952.843 829.885 952.617C822.863 945.935 818.333 938.687 815.955 931.553C814.936 928.268 814.256 924.984 814.03 921.7C814.03 921.587 814.03 921.36 814.03 921.134C813.124 898.485 833.282 876.288 870.54 864.057C925.692 845.938 997.15 856.47 1030.33 887.613C1039.39 896.106 1044.6 905.279 1046.3 914.566C1046.75 917.057 1046.98 919.548 1046.98 921.927C1046.64 942.991 1027.95 963.375 994.546 975.379C994.546 975.379 994.433 975.379 994.319 975.379C993.753 975.606 993.3 975.719 992.734 975.946C991.941 976.285 991.148 976.512 990.356 976.738C935.204 994.858 863.745 984.326 830.677 953.183L830.564 953.296Z" stroke="#003B2F" stroke-width="3" stroke-linecap="round" stroke-linejoin="round"/><path d="M841.656 943.67C830.331 933.025 823.197 911.281 823.197 899.503C823.423 902.788 823.989 906.072 825.122 909.356C827.5 916.604 832.03 923.738 839.051 930.42C839.278 930.646 839.504 930.873 839.731 931.099C872.799 962.242 944.371 972.888 999.409 954.655C1000.2 954.428 1000.99 954.088 1001.79 953.862C1002.35 953.636 1002.81 953.522 1003.37 953.296C1003.37 953.296 1003.49 953.296 1003.6 953.296C1037.01 941.292 1055.58 920.907 1056.03 899.843C1056.03 897.352 1055.92 894.974 1055.35 892.482C1063.85 918.529 1044.25 953.183 1001.33 967.338C946.183 985.458 874.724 974.926 841.656 943.783V943.67Z" fill="#E6E8EA"/><path d="M839.732 931.212C839.732 931.212 839.279 930.759 839.053 930.533C832.031 923.851 827.502 916.603 825.123 909.469C824.104 906.184 823.425 902.9 823.198 899.616C823.198 899.503 823.198 899.276 823.198 899.05C822.292 876.4 842.45 854.204 879.708 841.973C934.86 823.854 1006.32 834.386 1039.5 865.529C1048.56 874.022 1053.77 883.195 1055.47 892.482C1055.92 894.973 1056.15 897.464 1056.15 899.843C1055.81 920.907 1037.12 941.291 1003.71 953.295C1003.71 953.295 1003.6 953.295 1003.49 953.295C1002.92 953.522 1002.47 953.635 1001.9 953.861C1001.11 954.201 1000.32 954.428 999.524 954.654C944.373 972.774 872.914 962.242 839.846 931.099L839.732 931.212Z" fill="#03FC9D" stroke="#003B2F" stroke-width="3" stroke-linecap="round" stroke-linejoin="round"/><path d="M840.865 943.443C829.541 932.798 822.406 911.054 822.406 899.277C822.632 902.561 823.199 905.845 824.331 909.129C826.709 916.377 831.239 923.512 838.261 930.193C838.487 930.42 838.714 930.646 838.94 930.873C872.008 962.016 943.58 972.661 998.618 954.428C999.411 954.202 1000.2 953.862 1001 953.635C1001.56 953.409 1002.02 953.296 1002.58 953.069C1002.58 953.069 1002.7 953.069 1002.81 953.069C1036.22 941.065 1054.79 920.68 1055.24 899.617C1055.24 897.125 1055.13 894.747 1054.56 892.256C1063.06 918.302 1043.46 952.956 1000.54 967.112C945.392 985.231 873.933 974.699 840.865 943.556V943.443Z" stroke="#003B2F" stroke-width="3" stroke-linecap="round" stroke-linejoin="round"/><path d="M838.942 930.985C838.942 930.985 838.489 930.532 838.262 930.306C831.241 923.624 826.711 916.377 824.333 909.242C823.313 905.958 822.634 902.674 822.407 899.389C822.407 899.276 822.407 899.05 822.407 898.823C821.501 876.174 841.659 853.977 878.918 841.747C934.069 823.627 1005.53 834.159 1038.71 865.302C1047.77 873.796 1052.98 882.969 1054.68 892.255C1055.13 894.746 1055.36 897.238 1055.36 899.616C1055.02 920.68 1036.33 941.064 1002.92 953.069C1002.92 953.069 1002.81 953.069 1002.7 953.069C1002.13 953.295 1001.68 953.408 1001.11 953.635C1000.32 953.975 999.526 954.201 998.733 954.428C943.582 972.547 872.123 962.015 839.055 930.872L838.942 930.985Z" stroke="#003B2F" stroke-width="3" stroke-linecap="round" stroke-linejoin="round"/><path d="M823.309 921.361C811.984 910.716 804.849 888.972 804.849 877.194C805.076 880.479 805.642 883.763 806.775 887.047C809.153 894.295 813.683 901.429 820.704 908.111C820.93 908.337 821.157 908.564 821.383 908.79C854.452 939.933 926.024 950.578 981.062 932.346C981.855 932.119 982.647 931.779 983.44 931.553C984.006 931.326 984.459 931.213 985.025 930.987C985.025 930.987 985.139 930.987 985.252 930.987C1018.66 918.983 1037.23 898.598 1037.69 877.534C1037.69 875.043 1037.57 872.664 1037.01 870.173C1045.5 896.22 1025.91 930.873 982.987 945.029C927.836 963.149 856.377 952.617 823.309 921.474V921.361Z" fill="#E6E8EA"/><path d="M821.385 908.903C821.385 908.903 820.932 908.45 820.705 908.223C813.684 901.542 809.154 894.294 806.776 887.159C805.757 883.875 805.077 880.591 804.851 877.307C804.851 877.194 804.851 876.967 804.851 876.741C803.945 854.091 824.103 831.895 861.361 819.664C916.512 801.545 987.971 812.077 1021.15 843.219C1030.21 851.713 1035.42 860.886 1037.12 870.172C1037.57 872.664 1037.8 875.155 1037.8 877.533C1037.46 898.597 1018.77 918.982 985.367 930.986C985.367 930.986 985.253 930.986 985.14 930.986C984.574 931.212 984.121 931.326 983.555 931.552C982.762 931.892 981.969 932.118 981.176 932.345C926.025 950.464 854.566 939.932 821.498 908.79L821.385 908.903Z" fill="#03FC9D" stroke="#003B2F" stroke-width="3" stroke-linecap="round" stroke-linejoin="round"/><path d="M822.518 921.134C811.193 910.489 804.058 888.745 804.058 876.967C804.285 880.252 804.851 883.536 805.984 886.82C808.362 894.068 812.892 901.202 819.913 907.884C820.139 908.11 820.366 908.337 820.592 908.563C853.661 939.706 925.233 950.352 980.271 932.119C981.064 931.892 981.856 931.553 982.649 931.326C983.215 931.1 983.668 930.986 984.234 930.76C984.234 930.76 984.348 930.76 984.461 930.76C1017.87 918.756 1036.44 898.371 1036.89 877.307C1036.89 874.816 1036.78 872.438 1036.21 869.946C1044.71 895.993 1025.12 930.647 982.196 944.802C927.045 962.922 855.586 952.39 822.518 921.247V921.134Z" stroke="#003B2F" stroke-width="3" stroke-linecap="round" stroke-linejoin="round"/><path d="M820.594 908.676C820.594 908.676 820.141 908.223 819.915 907.997C812.893 901.315 808.363 894.067 805.985 886.933C804.966 883.648 804.287 880.364 804.06 877.08C804.06 876.967 804.06 876.74 804.06 876.514C803.154 853.864 823.312 831.668 860.57 819.437C915.722 801.318 987.181 811.85 1020.36 842.993C1029.42 851.486 1034.63 860.659 1036.33 869.946C1036.78 872.437 1037.01 874.928 1037.01 877.307C1036.67 898.371 1017.98 918.755 984.576 930.759C984.576 930.759 984.463 930.759 984.349 930.759C983.783 930.986 983.33 931.099 982.764 931.325C981.971 931.665 981.178 931.892 980.386 932.118C925.234 950.238 853.775 939.706 820.707 908.563L820.594 908.676Z" stroke="#003B2F" stroke-width="3" stroke-linecap="round" stroke-linejoin="round"/><path d="M851.393 899.163C840.068 888.518 832.934 866.775 832.934 854.997C833.16 858.281 833.727 861.565 834.859 864.849C837.237 872.097 841.767 879.232 848.788 885.913C849.015 886.14 849.241 886.366 849.468 886.593C882.536 917.736 954.108 928.381 1009.15 910.148C1009.94 909.922 1010.73 909.582 1011.52 909.355C1012.09 909.129 1012.54 909.016 1013.11 908.789C1013.11 908.789 1013.22 908.789 1013.34 908.789C1046.74 896.785 1065.32 876.401 1065.77 855.337C1065.77 852.845 1065.66 850.467 1065.09 847.976C1073.58 874.022 1053.99 908.676 1011.07 922.832C955.92 940.951 884.461 930.419 851.393 899.276V899.163Z" fill="#E6E8EA"/><path d="M849.47 886.593C849.47 886.593 849.017 886.14 848.79 885.914C841.769 879.232 837.239 871.985 834.861 864.85C833.842 861.566 833.162 858.282 832.936 854.998C832.936 854.884 832.936 854.658 832.936 854.431C832.03 831.782 852.188 809.585 889.446 797.355C944.597 779.235 1016.06 789.767 1049.24 820.91C1058.3 829.404 1063.51 838.577 1065.21 847.863C1065.66 850.354 1065.88 852.846 1065.88 855.224C1065.55 876.288 1046.86 896.672 1013.45 908.677C1013.45 908.677 1013.34 908.677 1013.23 908.677C1012.66 908.903 1012.21 909.016 1011.64 909.243C1010.85 909.583 1010.05 909.809 1009.26 910.036C954.11 928.155 882.651 917.623 849.583 886.48L849.47 886.593Z" fill="#03FC9D" stroke="#003B2F" stroke-width="3" stroke-linecap="round" stroke-linejoin="round"/><path d="M850.603 898.938C839.278 888.293 832.143 866.549 832.143 854.772C832.37 858.056 832.936 861.34 834.069 864.624C836.447 871.872 840.977 879.006 847.998 885.688C848.224 885.915 848.451 886.141 848.677 886.367C881.746 917.51 953.318 928.156 1008.36 909.923C1009.15 909.696 1009.94 909.357 1010.73 909.13C1011.3 908.904 1011.75 908.79 1012.32 908.564C1012.32 908.564 1012.43 908.564 1012.55 908.564C1045.95 896.56 1064.53 876.175 1064.98 855.111C1064.98 852.62 1064.87 850.242 1064.3 847.75C1072.79 873.797 1053.2 908.451 1010.28 922.607C955.13 940.726 883.671 930.194 850.603 899.051V898.938Z" stroke="#003B2F" stroke-width="3" stroke-linecap="round" stroke-linejoin="round"/><path d="M848.679 886.48C848.679 886.48 848.226 886.027 848 885.801C840.978 879.119 836.448 871.871 834.07 864.737C833.051 861.453 832.371 858.168 832.145 854.884C832.145 854.771 832.145 854.544 832.145 854.318C831.239 831.668 851.397 809.472 888.655 797.241C943.807 779.122 1015.27 789.654 1048.45 820.797C1057.51 829.29 1062.72 838.463 1064.41 847.75C1064.87 850.241 1065.09 852.732 1065.09 855.111C1064.75 876.175 1046.07 896.559 1012.66 908.563C1012.66 908.563 1012.55 908.563 1012.43 908.563C1011.87 908.79 1011.42 908.903 1010.85 909.129C1010.06 909.469 1009.26 909.696 1008.47 909.922C953.319 928.042 881.86 917.51 848.792 886.367L848.679 886.48Z" stroke="#003B2F" stroke-width="3" stroke-linecap="round" stroke-linejoin="round"/><path d="M827.843 886.82C816.518 876.174 809.383 854.431 809.383 842.653C809.61 845.937 810.176 849.222 811.309 852.506C813.687 859.754 818.217 866.888 825.238 873.57C825.464 873.796 825.691 874.023 825.917 874.249C858.986 905.392 930.558 916.037 985.596 897.805C986.388 897.578 987.181 897.238 987.974 897.012C988.54 896.785 988.993 896.672 989.559 896.446C989.559 896.446 989.673 896.446 989.786 896.446C1023.19 884.441 1041.77 864.057 1042.22 842.993C1042.22 840.502 1042.11 838.124 1041.54 835.632C1050.03 861.679 1030.44 896.332 987.521 910.488C932.37 928.608 860.911 918.076 827.843 886.933V886.82Z" fill="#E6E8EA"/><path d="M825.919 874.362C825.919 874.362 825.466 873.909 825.24 873.682C818.218 867.001 813.689 859.753 811.31 852.619C810.291 849.334 809.612 846.05 809.385 842.766C809.385 842.653 809.385 842.426 809.385 842.2C808.479 819.55 828.637 797.354 865.895 785.123C921.047 767.004 992.506 777.536 1025.69 808.679C1034.75 817.172 1039.96 826.345 1041.65 835.631C1042.11 838.123 1042.33 840.614 1042.33 842.992C1041.99 864.056 1023.31 884.441 989.901 896.445C989.901 896.445 989.788 896.445 989.675 896.445C989.108 896.672 988.655 896.785 988.089 897.011C987.296 897.351 986.504 897.578 985.711 897.804C930.56 915.924 859.101 905.392 826.033 874.249L825.919 874.362Z" fill="#03FC9D" stroke="#003B2F" stroke-width="3" stroke-linecap="round" stroke-linejoin="round"/><path d="M826.936 886.593C815.611 875.948 808.477 854.204 808.477 842.427C808.703 845.711 809.27 848.995 810.402 852.279C812.78 859.527 817.31 866.662 824.331 873.343C824.558 873.57 824.784 873.796 825.011 874.023C858.079 905.166 929.651 915.811 984.689 897.578C985.482 897.351 986.275 897.012 987.067 896.785C987.634 896.559 988.087 896.446 988.653 896.219C988.653 896.219 988.766 896.219 988.879 896.219C1022.29 884.215 1040.86 863.83 1041.31 842.766C1041.31 840.275 1041.2 837.897 1040.63 835.405C1049.13 861.452 1029.54 896.106 986.614 910.262C931.463 928.381 860.004 917.849 826.936 886.706V886.593Z" stroke="#003B2F" stroke-width="3" stroke-linecap="round" stroke-linejoin="round"/><path d="M825.012 874.135C825.012 874.135 824.559 873.682 824.333 873.456C817.312 866.774 812.782 859.526 810.403 852.392C809.384 849.108 808.705 845.823 808.478 842.539C808.478 842.426 808.478 842.199 808.478 841.973C807.572 819.324 827.73 797.127 864.989 784.896C920.14 766.777 991.599 777.309 1024.78 808.452C1033.84 816.945 1039.05 826.118 1040.75 835.405C1041.2 837.896 1041.43 840.388 1041.43 842.766C1041.09 863.83 1022.4 884.214 988.994 896.218C988.994 896.218 988.881 896.218 988.768 896.218C988.201 896.445 987.748 896.558 987.182 896.784C986.389 897.124 985.597 897.351 984.804 897.577C929.653 915.697 858.194 905.165 825.126 874.022L825.012 874.135Z" stroke="#003B2F" stroke-width="3" stroke-linecap="round" stroke-linejoin="round"/><path d="M953.657 798.487H899.186C895.675 798.487 892.504 799.846 890.805 801.997L863.626 836.198C861.927 838.35 861.927 841.068 863.626 843.219L890.805 877.42C892.504 879.572 895.788 880.931 899.186 880.931H953.657C957.168 880.931 960.339 879.572 962.038 877.42L989.217 843.219C990.916 841.068 990.916 838.35 989.217 836.198L962.038 801.997C960.339 799.846 957.055 798.487 953.657 798.487Z" fill="#03FC9D"/><path d="M915.837 847.182L897.377 842.312C897.377 842.312 896.245 842.199 895.792 842.312L864.083 850.693L871.784 860.432L915.837 848.767C916.856 848.541 916.856 847.522 915.837 847.182ZM946.866 856.921C947.886 856.695 947.886 855.676 946.866 855.336L928.407 850.466C928.407 850.466 927.275 850.353 926.822 850.466L874.841 864.282L882.542 874.022L946.753 857.035L946.866 856.921Z" fill="#00261E"/><path d="M987.294 839.708C987.294 839.708 987.294 840.161 987.068 840.387L957.624 877.419C957.624 877.419 956.718 878.099 955.925 878.099H897.036C896.357 878.099 895.678 877.872 895.338 877.419L865.894 840.387C865.894 840.387 865.667 839.935 865.667 839.708C865.667 839.482 865.667 839.255 865.894 839.028L895.338 801.997C895.338 801.997 896.244 801.317 897.036 801.317H956.038C956.718 801.317 957.397 801.544 957.737 801.997L987.181 839.028C987.181 839.028 987.408 839.482 987.408 839.708M996.014 839.708C996.014 838.349 995.561 837.103 994.542 835.858L965.098 798.826C963.173 796.448 959.775 794.975 956.038 794.975H897.15C893.413 794.975 889.902 796.448 887.977 798.826L858.533 835.858C857.627 836.99 857.06 838.349 857.06 839.708C857.06 841.067 857.513 842.313 858.533 843.558L887.977 880.59C889.902 882.968 893.299 884.441 897.15 884.441H956.038C959.775 884.441 963.286 882.968 965.211 880.59L994.655 843.558C995.561 842.313 996.128 841.067 996.128 839.708" fill="white"/><path d="M874.838 815.247L887.635 818.644L879.821 825.439L871.78 819.097L874.838 815.247Z" fill="#03FC9D"/><path d="M960.114 836.651V827.251C960.114 826.572 959.547 825.892 958.641 825.666L882.539 805.508L874.839 815.247L958.641 837.444C959.434 837.67 960.227 837.217 960.227 836.651M960.227 853.072V843.672C960.227 842.993 959.661 842.313 958.755 842.087L871.894 819.098L864.193 828.837L958.755 853.864C959.547 854.091 960.34 853.638 960.34 853.072" fill="#003B2F"/><path d="M463.235 794.975H407.859C425.424 794.975 439.636 780.763 439.636 763.198C439.636 745.633 425.424 731.421 407.859 731.421H248.704C231.14 731.421 216.927 745.633 216.927 763.198H168.121C150.556 763.198 136.344 777.411 136.344 794.975C136.344 812.54 150.556 826.753 168.121 826.753H272.303C272.303 844.317 286.515 858.53 304.08 858.53H463.235C480.8 858.53 495.012 844.317 495.012 826.753C495.012 809.188 480.8 794.975 463.235 794.975Z" fill="#E6E8EA"/><path d="M329.359 474.179H386.419" stroke="#003B2F" stroke-width="3" stroke-linecap="round" stroke-linejoin="round"/><path d="M286.045 474.179H300.397" stroke="#003B2F" stroke-width="3" stroke-linecap="round" stroke-linejoin="round"/><path d="M337.659 434.929H485.496" stroke="#03FC9D" stroke-width="3" stroke-linecap="round" stroke-linejoin="round"/><path d="M1643.78 136.826L1638.53 159.06" stroke="#003B2F" stroke-width="3" stroke-linecap="round" stroke-linejoin="round"/><path d="M1634.68 175.334L1629.4 197.663" stroke="#003B2F" stroke-width="3" stroke-linecap="round" stroke-linejoin="round"/><path d="M1606.14 159.997L1628.47 165.274" stroke="#003B2F" stroke-width="3" stroke-linecap="round" stroke-linejoin="round"/><path d="M1644.74 169.12L1666.97 174.375" stroke="#003B2F" stroke-width="3" stroke-linecap="round" stroke-linejoin="round"/><path d="M662.027 139.009L684.971 152.231" stroke="#003B2F" stroke-width="3" stroke-linecap="round" stroke-linejoin="round"/><path d="M707.915 139.009L694.498 146.787" stroke="#003B2F" stroke-width="3" stroke-linecap="round" stroke-linejoin="round"/><path d="M684.97 152.231V179.064" stroke="#003B2F" stroke-width="3" stroke-linecap="round" stroke-linejoin="round"/><path d="M182.864 241.312H360.581" stroke="#03FC9D" stroke-width="3" stroke-linecap="round" stroke-linejoin="round"/><path d="M136.344 199.567H273.52" stroke="#003B2F" stroke-width="3" stroke-linecap="round" stroke-linejoin="round"/><path d="M329.359 611.446V626.782" stroke="#003B2F" stroke-width="3" stroke-linecap="round" stroke-linejoin="round"/><path d="M329.359 638.037V653.373" stroke="#003B2F" stroke-width="3" stroke-linecap="round" stroke-linejoin="round"/><path d="M308.396 632.41H323.732" stroke="#003B2F" stroke-width="3" stroke-linecap="round" stroke-linejoin="round"/><path d="M334.925 632.41H350.323" stroke="#003B2F" stroke-width="3" stroke-linecap="round" stroke-linejoin="round"/><path d="M1455.36 667.568H1597.89C1613.6 667.568 1626.33 654.832 1626.33 639.123C1626.33 623.413 1613.6 610.677 1597.89 610.677H1455.36C1439.65 610.677 1426.91 623.413 1426.91 639.123C1426.91 654.832 1439.65 667.568 1455.36 667.568Z" fill="#03FC9D"/><path d="M1532.78 624.027H1766.09C1791.84 624.027 1812.72 603.177 1812.72 577.457C1812.72 551.737 1791.84 530.887 1766.09 530.887H1532.78C1507.03 530.887 1486.16 551.737 1486.16 577.457C1486.16 603.177 1507.03 624.027 1532.78 624.027Z" fill="#03FC9D"/><path d="M1428.39 825.138H1659.77" stroke="#03FC9D" stroke-width="3" stroke-linecap="round" stroke-linejoin="round"/><path d="M1401.07 856.151H1530.47" stroke="#003B2F" stroke-width="3" stroke-linecap="round" stroke-linejoin="round"/><path d="M1685.64 707.982L1700.81 723.148" stroke="#003B2F" stroke-width="3" stroke-linecap="round" stroke-linejoin="round"/><path d="M1711.89 734.231L1727.06 749.3" stroke="#003B2F" stroke-width="3" stroke-linecap="round" stroke-linejoin="round"/><path d="M1685.64 749.3L1700.81 734.231" stroke="#003B2F" stroke-width="3" stroke-linecap="round" stroke-linejoin="round"/><path d="M1711.89 723.148L1727.06 707.982" stroke="#003B2F" stroke-width="3" stroke-linecap="round" stroke-linejoin="round"/><path d="M1436.05 434.929H1471.73" stroke="#003B2F" stroke-width="3" stroke-linecap="round" stroke-linejoin="round"/><path d="M1517.81 380H1776.22" stroke="#03FC9D" stroke-width="3" stroke-linecap="round" stroke-linejoin="round"/><path d="M1517.81 434.735H1662.28" stroke="#003B2F" stroke-width="3" stroke-linecap="round" stroke-linejoin="round"/><path d="M631.816 916.218C638.63 916.218 644.153 910.694 644.153 903.88C644.153 897.066 638.63 891.542 631.816 891.542C625.002 891.542 619.478 897.066 619.478 903.88C619.478 910.694 625.002 916.218 631.816 916.218Z" stroke="#003B2F" stroke-width="3" stroke-linecap="round" stroke-linejoin="round"/></svg>