<?xml version="1.0" encoding="UTF-8"?><svg id="Layer_1" data-name="Layer 1" xmlns="http://www.w3.org/2000/svg" viewBox="0 0 192 108"><defs><style>.cls-1 {
        fill: #00ff94;
      }

      .cls-2 {
        fill: #003d2e;
      }

      .cls-3 {
        fill: #e3e7e3;
      }

      .cls-4 {
        fill: #fff;
      }

      .cls-5 {
        stroke: #163b2f;
      }

      .cls-5, .cls-6, .cls-7, .cls-8 {
        fill: none;
        stroke-linecap: round;
        stroke-linejoin: round;
        stroke-width: .3px;
      }

      .cls-6 {
        stroke: #00ff94;
      }

      .cls-7 {
        stroke: #003c2e;
      }

      .cls-8 {
        stroke: #003d2e;
      }</style></defs><path class="cls-3" d="M28.65,31.94h-4.6c1.46,0,2.64-1.07,2.64-2.39s-1.18-2.39-2.64-2.39H10.83c-1.46,0-2.64,1.07-2.64,2.39H4.14c-1.46,0-2.64,1.07-2.64,2.39s1.18,2.39,2.64,2.39H12.8c0,1.32,1.18,2.39,2.64,2.39h13.21c1.46,0,2.64-1.07,2.64-2.39s-1.18-2.39-2.64-2.39Z"/><line class="cls-7" x1="20.62" y1="30.23" x2="23.92" y2="30.23"/><line class="cls-6" x1="15.85" y1="21.46" x2="39.73" y2="21.46"/><line class="cls-7" x1="28.17" y1="30.21" x2="41.52" y2="30.21"/><line class="cls-7" x1="11.39" y1="95.44" x2="14.63" y2="95.44"/><line class="cls-6" x1="1.71" y1="85.61" x2="25.17" y2="85.61"/><line class="cls-7" x1="18.81" y1="95.43" x2="31.93" y2="95.43"/><g><line class="cls-8" x1="164.66" y1="87.62" x2="167" y2="88.97"/><line class="cls-8" x1="169.35" y1="87.62" x2="167.97" y2="88.41"/><line class="cls-8" x1="167" y1="88.97" x2="167" y2="91.71"/></g><line class="cls-6" x1="164.66" y1="95.43" x2="181.66" y2="95.43"/><line class="cls-7" x1="82.45" y1="20.6" x2="89" y2="20.6"/><line class="cls-7" x1="77.46" y1="20.6" x2="79.11" y2="20.6"/><line class="cls-6" x1="84.89" y1="15.3" x2="108.35" y2="15.3"/><g><line class="cls-5" x1="67.78" y1="14.59" x2="69.33" y2="16.13"/><line class="cls-5" x1="70.46" y1="17.27" x2="72.01" y2="18.82"/><line class="cls-5" x1="67.78" y1="18.82" x2="69.33" y2="17.27"/><line class="cls-5" x1="70.46" y1="16.13" x2="72.01" y2="14.59"/></g><circle class="cls-7" cx="179.1" cy="20.84" r="1.97"/><g><line class="cls-8" x1="159.24" y1="12.29" x2="161.2" y2="11.16"/><line class="cls-8" x1="163.16" y1="12.29" x2="162.01" y2="11.62"/><line class="cls-8" x1="161.2" y1="11.16" x2="161.2" y2="8.87"/></g><rect class="cls-1" x="161.2" y="24.24" width="19.3" height="5.5" rx="2.75" ry="2.75"/><rect class="cls-1" x="143.17" y="16.52" width="31.61" height="9.01" rx="3.91" ry="3.91"/><rect class="cls-3" x="158.55" y="52.67" width="17.31" height="4.94" rx="2.47" ry="2.47" transform="translate(334.41 110.28) rotate(180)"/><rect class="cls-3" x="163.46" y="56.24" width="27.55" height="7.86" rx="3.93" ry="3.93" transform="translate(354.47 120.34) rotate(180)"/><g><line class="cls-5" x1="174.32" y1="54.04" x2="175.74" y2="55.46"/><line class="cls-5" x1="176.78" y1="56.5" x2="178.2" y2="57.93"/><line class="cls-5" x1="174.32" y1="57.93" x2="175.74" y2="56.5"/><line class="cls-5" x1="176.78" y1="55.46" x2="178.2" y2="54.04"/></g><rect class="cls-1" x="11.13" y="59.93" width="15.77" height="3.75" rx="1.24" ry="1.24" transform="translate(38.02 123.61) rotate(-180)"/><rect class="cls-1" x="15.6" y="55" width="19.27" height="5.97" rx="1.97" ry="1.97" transform="translate(50.46 115.97) rotate(-180)"/><g><line class="cls-5" x1="25.49" y1="62.64" x2="26.78" y2="61.56"/><line class="cls-5" x1="27.73" y1="60.77" x2="29.03" y2="59.69"/><line class="cls-5" x1="25.49" y1="59.69" x2="26.78" y2="60.77"/><line class="cls-5" x1="27.73" y1="61.56" x2="29.03" y2="62.64"/></g><g><g><rect class="cls-3" x="29.6" y="78.2" width="130.63" height="11.74"/><path class="cls-4" d="M136.74,39.2l23.49,39H29.6l24.59-39.63,18.01,.15c-2.17,.9-4.17,2.2-5.81,3.88-.18,.19-.37,.38-.53,.57-.85,.87-1.66,1.79-2.35,2.78l-.8,1.37c-.18,.24-.33,.49-.49,.75-.03,.01-.03,.04-.04,.05-.73,1.15-1.42,2.33-2.12,3.51-3.05,5.2-6.09,10.41-9.13,15.62-.71,1.19-1.41,2.4-2.12,3.61-.12,.22-.26,.45-.39,.66l-.03,.03h5.98c1.98,.01,3.98,.01,5.96,.01,4.65-.01,9.29-.01,13.94-.01h41.76c9.28,0,18.56,.01,27.84,.01h.03c-4.41-10.58-8.44-21.25-12.25-32.08-.04-.11-.08-.23-.14-.33l5.22,.04Z"/><path class="cls-3" d="M103,63.61l.03-.04c2.18-3.23-.65-5.58-.65-5.58l2.36-6.93,.99,.45,.08-.26c.08-.23,.12-.46,.12-.68,0-.81-.49-1.57-1.29-1.89-.99-.38-2.12,.07-2.56,1.03l-.16,.34,.98,.35-2.47,6.83c-3.31-.28-3.89,3.65-3.93,3.95,2.31,.23,4.55,1.04,6.51,2.43Zm40.91,7.95h-.03c-9.28,0-18.56-.01-27.84-.01H54.38c-1.98,0-3.96,0-5.96-.03,.14-.22,.27-.45,.39-.66,.71-1.21,1.41-2.42,2.12-3.61,3.04-5.21,6.08-10.42,9.13-15.62,.69-1.18,1.38-2.36,2.12-3.51,.01-.01,.01-.04,.04-.05,.16-.26,.31-.5,.49-.75l.8-1.37c.69-.99,1.49-1.91,2.35-2.78,.16-.19,.35-.38,.53-.57,1.64-1.68,3.64-2.99,5.81-3.88,1.19-.5,2.46-.87,3.73-1.1,3.22-.58,6.57-.3,9.55,1.02,.14,.07,.26,.12,.39,.18,.03,.01,.07,.04,.11,.05,.31,.15,.61,.31,.91,.49,.84,.47,1.67,1.18,2.51,1.95,.08,.07,.16,.14,.24,.22,1.98,1.86,4.15,4.33,6.84,4.94,.04,.01,.08,.01,.12,.03,.15,.03,.3,.05,.45,.07,.41,.07,.84,.07,1.28,0,.11,0,.23-.03,.34-.04,3.73-.6,9-4.29,14.3-7.5,.27-.16,.56-.34,.84-.5,.65-.39,1.3-.76,1.95-1.11,6.13-3.41,11.93-5.26,14.99,.11,.28,.49,.54,1.03,.76,1.66,.05,.09,.09,.22,.14,.33,3.81,10.83,7.84,21.49,12.25,32.08Zm-12.85-17.86h0v-.08c.12-3.88-2.9-7.25-6.78-7.27h-.15c-3.87,.04-6.89,3.39-6.77,7.26v.16s.03,.08,.03,.08l1.95,13.01c0,.5,2.18,.91,4.87,.91s4.88-.41,4.88-.91l1.95-13.01v-.08s.01-.07,.01-.07Z"/><path class="cls-3" d="M131.06,53.63v.07c-.24-.69-3.23-1.21-6.85-1.21s-6.84,.57-6.84,1.29v-.16c-.14-3.87,2.89-7.22,6.76-7.26h.15c3.88,.03,6.91,3.39,6.78,7.27Z"/><path class="cls-2" d="M131.06,53.7h0v.16c-.22,.66-3.2,1.21-6.85,1.21s-6.62-.54-6.83-1.21v-.08c-.01-.72,3.05-1.29,6.83-1.29s6.61,.52,6.85,1.21Z"/><path class="cls-1" d="M131.04,53.86l-1.95,13.01c0,.5-2.18,.91-4.88,.91s-4.87-.41-4.87-.91l-1.95-13.01c.2,.66,3.18,1.21,6.83,1.21s6.64-.54,6.84-1.21Z"/><path class="cls-1" d="M105.93,50.57c0,.22-.04,.45-.12,.68l-.08,.26-.99-.45-2.36,6.93s2.84,2.35,.65,5.58l-.03,.04c-1.97-1.38-4.21-2.2-6.51-2.43,.04-.3,.62-4.23,3.93-3.95l2.47-6.83-.98-.35,.16-.34c.45-.96,1.57-1.41,2.56-1.03,.8,.31,1.29,1.07,1.29,1.89Z"/></g><g><polyline class="cls-8" points="160.23 78.2 160.23 89.94 29.6 89.94 29.6 78.2"/><line class="cls-8" x1="85.87" y1="38.81" x2="112.97" y2="39.01"/><polyline class="cls-8" points="131.52 39.16 136.74 39.2 160.23 78.2 29.6 78.2 54.19 38.57 72.19 38.72"/><polyline class="cls-8" points="48.42 71.52 48.39 71.55 54.38 71.55"/><path class="cls-8" d="M54.38,71.55c-1.98,0-3.96,0-5.96-.03,.14-.22,.27-.45,.39-.66,.71-1.21,1.41-2.42,2.12-3.61,3.04-5.21,6.08-10.42,9.13-15.62,.69-1.18,1.38-2.36,2.12-3.51,.01-.01,.01-.04,.04-.05,.16-.26,.31-.5,.49-.75l.8-1.37c.69-.99,1.49-1.91,2.35-2.78,.16-.19,.35-.38,.53-.57,1.64-1.68,3.64-2.99,5.81-3.88,1.19-.5,2.46-.87,3.73-1.1,3.22-.58,6.57-.3,9.55,1.02,.14,.07,.26,.12,.39,.18,.03,.01,.07,.04,.11,.05,.31,.15,.61,.31,.91,.49,.84,.47,1.67,1.18,2.51,1.95,.08,.07,.16,.14,.24,.22,1.98,1.86,4.15,4.33,6.84,4.94,.04,.01,.08,.01,.12,.03,.15,.03,.3,.05,.45,.07,.41,.07,.84,.07,1.28,0,.11,0,.23-.03,.34-.04,3.73-.6,9-4.29,14.3-7.5,.27-.16,.56-.34,.84-.5,.65-.39,1.3-.76,1.95-1.11,6.13-3.41,11.93-5.26,14.99,.11,.28,.49,.54,1.03,.76,1.66,.05,.09,.09,.22,.14,.33,3.81,10.83,7.84,21.49,12.25,32.08h-.03c-9.28,0-18.56-.01-27.84-.01h-41.76"/><path class="cls-8" d="M74.27,71.55c-4.64,0-9.28,0-13.94,.01-1.98,0-3.98,0-5.96-.01h19.89Z"/><path class="cls-8" d="M59.82,68.21c6.95-6.95,17.54-7.99,25.59-3.15,1.44,.85,2.8,1.91,4.03,3.15"/><path class="cls-8" d="M85.33,65.15l.08-.08c3.04-3,7.12-4.29,11.07-3.88,2.31,.23,4.55,1.04,6.51,2.43,.64,.45,1.25,.96,1.82,1.53"/><path class="cls-8" d="M96.48,61.2h0c.04-.31,.62-4.25,3.93-3.96l2.47-6.83-.98-.35,.16-.34c.45-.96,1.57-1.41,2.56-1.03,.8,.31,1.29,1.07,1.29,1.89,0,.22-.04,.45-.12,.68l-.08,.26-.99-.45-2.36,6.93s2.84,2.35,.65,5.58"/><line class="cls-8" x1="117.38" y1="53.86" x2="117.37" y2="53.78"/><path class="cls-8" d="M131.04,53.86l-1.95,13.01c0,.5-2.18,.91-4.88,.91s-4.87-.41-4.87-.91l-1.95-13.01c.2,.66,3.18,1.21,6.83,1.21s6.64-.54,6.84-1.21Z"/><path class="cls-8" d="M131.06,53.7c-.24-.69-3.23-1.21-6.85-1.21s-6.84,.57-6.84,1.29v-.16c-.14-3.87,2.89-7.22,6.76-7.26h.15c3.88,.03,6.91,3.39,6.78,7.27v.07h0v.16"/></g></g><path class="cls-2" d="M121.58,56.73l-.88,.88v3.5l.88,.87h3.51v1.75h-1.75v-.87h-2.63v1.75l.88,.87h5.26l.88-.87v-3.5l-.88-.88h-3.51v-1.75h1.75v.87h2.63v-1.75l-.88-.88h-5.26Z"/></svg>