<?xml version="1.0" encoding="UTF-8"?><svg id="Layer_1" data-name="Layer 1" xmlns="http://www.w3.org/2000/svg" viewBox="0 0 192 108"><defs><style>.cls-1, .cls-2, .cls-3, .cls-4, .cls-5 {
        stroke-linecap: round;
        stroke-linejoin: round;
        stroke-width: .32px;
      }

      .cls-1, .cls-4 {
        stroke: #003d2e;
      }

      .cls-1, .cls-6 {
        fill: #e3e7e3;
      }

      .cls-2 {
        stroke: #00ff94;
      }

      .cls-2, .cls-3, .cls-4, .cls-5 {
        fill: none;
      }

      .cls-3 {
        stroke: #003c2e;
      }

      .cls-5 {
        stroke: #163b2f;
      }

      .cls-7 {
        fill: #00ff94;
      }

      .cls-8 {
        fill: #003d2e;
      }

      .cls-9 {
        fill: #fff;
      }</style></defs><line class="cls-3" x1="33.15" y1="50.42" x2="39.85" y2="50.42"/><line class="cls-3" x1="28.06" y1="50.42" x2="29.74" y2="50.42"/><line class="cls-2" x1="34.12" y1="45.6" x2="51.49" y2="45.6"/><g><line class="cls-5" x1="18.16" y1="44.28" x2="19.74" y2="45.86"/><line class="cls-5" x1="20.9" y1="47.02" x2="22.48" y2="48.6"/><line class="cls-5" x1="18.16" y1="48.6" x2="19.74" y2="47.02"/><line class="cls-5" x1="20.9" y1="45.86" x2="22.48" y2="44.28"/></g><path class="cls-6" d="M166.11,82.54h-4.65c1.47,0,2.66-1.05,2.66-2.35s-1.19-2.35-2.66-2.35h-13.35c-1.47,0-2.66,1.05-2.66,2.35h-4.1c-1.47,0-2.66,1.05-2.66,2.35s1.19,2.35,2.66,2.35h8.74c0,1.3,1.19,2.35,2.66,2.35h13.35c1.47,0,2.66-1.05,2.66-2.35s-1.19-2.35-2.66-2.35Z"/><line class="cls-3" x1="158" y1="80.87" x2="161.33" y2="80.87"/><line class="cls-2" x1="153.19" y1="72.26" x2="177.3" y2="72.26"/><line class="cls-3" x1="165.63" y1="80.85" x2="179.11" y2="80.85"/><g><line class="cls-5" x1="141.13" y1="70.05" x2="141.13" y2="72.3"/><line class="cls-5" x1="141.13" y1="73.95" x2="141.13" y2="76.2"/><line class="cls-5" x1="138.05" y1="73.12" x2="140.31" y2="73.12"/><line class="cls-5" x1="141.95" y1="73.12" x2="144.2" y2="73.12"/></g><g><g><path class="cls-6" d="M123.27,14.12V100.32l-22.43,13.19V27.31l22.43-13.19Zm-2.27,53.16V24.47l-16.88,9.91v42.73l16.88-9.83Z"/><polygon class="cls-6" points="123.27 14.12 100.84 27.31 100.84 27.21 78.4 40.41 78.4 40.5 60.99 29.94 106.02 4.09 123.27 14.12"/><polygon class="cls-7" points="120.99 24.47 120.99 67.28 104.12 77.11 104.12 34.39 120.99 24.47"/><path class="cls-6" d="M100.84,27.31V113.41l-22.44,13.29V40.5l22.44-13.19Zm-5.91,48.78v-29.71l-5.74,3.38-5.47,3.21,.29,14.13,.15,6.78,.18,8.68,10.6-6.47Z"/><polygon class="cls-9" points="94.93 46.38 94.93 76.09 89.19 71.22 84.01 67.1 83.72 52.97 89.19 49.75 94.93 46.38"/><polygon class="cls-9" points="94.93 76.09 84.34 82.56 84.16 73.88 84.01 67.1 89.19 71.22 94.93 76.09"/><polygon class="cls-6" points="78.4 40.5 78.4 126.7 60.99 116.15 60.99 29.94 78.4 40.5"/></g><g><polyline class="cls-4" points="60.99 29.94 106.02 4.09 123.27 14.12"/><polyline class="cls-4" points="78.4 126.7 60.99 116.15 60.99 29.94 78.4 40.5"/><line class="cls-4" x1="78.4" y1="40.5" x2="100.84" y2="27.31"/><polyline class="cls-4" points="123.27 100.32 100.84 113.51 78.4 126.7"/><polyline class="cls-4" points="100.84 27.31 100.84 27.21 78.4 40.41 78.4 40.5 78.4 126.7 100.84 113.41"/><polygon class="cls-4" points="123.27 14.12 100.84 27.31 100.84 113.41 100.84 113.51 100.84 113.61 123.27 100.32 123.27 14.12"/><polyline class="cls-4" points="94.93 76.09 84.34 82.56 84.16 73.88 84.01 67.1"/><polygon class="cls-4" points="84.01 67.1 83.72 52.97 89.19 49.75 94.93 46.38 94.93 76.09 89.19 71.22 84.01 67.1"/><polygon class="cls-4" points="120.99 24.47 104.12 34.39 104.12 77.11 120.99 67.28 120.99 24.47"/></g></g><path class="cls-8" d="M111.13,41.34l-1.3,.62c-.27,.13-.41,.19-.49,.17-.09-.03-.15-.12-.15-.25,0-.12,.06-.3,.19-.66l3.12-8.58c.13-.36,.2-.55,.29-.64,.09-.1,.21-.16,.3-.14,.09,.01,.16,.13,.3,.36l.68,1.12c.15,.25,.23,.38,.27,.54,.04,.17,.04,.37,0,.57-.03,.19-.1,.39-.25,.78l-1.64,4.52c-.15,.4-.22,.6-.32,.78-.11,.19-.25,.35-.4,.48-.14,.11-.29,.19-.6,.33Zm5-2.95l-1.97,.94c-.29,.14-.44,.21-.52,.18-.09-.03-.15-.12-.16-.24,0-.12,.06-.3,.21-.66l.96-2.42c.14-.36,.21-.53,.3-.63,.1-.11,.22-.16,.32-.15,.09,.01,.17,.12,.32,.34l1.02,1.48c.15,.22,.23,.33,.22,.45,0,.13-.06,.28-.15,.39-.09,.11-.23,.18-.52,.32Z"/><path class="cls-4" d="M118.25,41.65c-.42,.23-.34-.19-.75,.05s-.49,.66-.91,.89-.34-.19-.75,.05-.49,.66-.91,.89-.33-.19-.75,.04-.5,.66-.91,.89-.34-.19-.75,.05-.5,.66-.91,.89-.34-.19-.75,.05-.49,.66-.91,.89-.34-.19-.75,.05-.5,.66-.91,.89-.34-.19-.76,.05"/><path class="cls-4" d="M118.25,44.04c-.42,.23-.34-.19-.75,.05s-.49,.66-.91,.89-.34-.19-.75,.05-.49,.66-.91,.89-.33-.19-.75,.04-.5,.66-.91,.89-.34-.19-.75,.05-.5,.66-.91,.89-.34-.19-.75,.05-.49,.66-.91,.89-.34-.19-.75,.05-.5,.66-.91,.89-.34-.19-.76,.05"/><path class="cls-4" d="M118.25,46.91c-.42,.23-.34-.19-.75,.05s-.49,.66-.91,.89-.34-.19-.75,.05-.49,.66-.91,.89-.33-.19-.75,.04-.5,.66-.91,.89-.34-.19-.75,.05-.5,.66-.91,.89-.34-.19-.75,.05-.49,.66-.91,.89-.34-.19-.75,.05-.5,.66-.91,.89-.34-.19-.76,.05"/><path class="cls-4" d="M118.25,49.3c-.42,.23-.34-.19-.75,.05s-.49,.66-.91,.89-.34-.19-.75,.05-.49,.66-.91,.89-.33-.19-.75,.04-.5,.66-.91,.89-.34-.19-.75,.05-.5,.66-.91,.89-.34-.19-.75,.05-.49,.66-.91,.89-.34-.19-.75,.05-.5,.66-.91,.89-.34-.19-.76,.05"/><path class="cls-4" d="M119.17,55.01c-.21,.12-.17-.1-.38,.02s-.25,.33-.46,.45-.17-.1-.38,.02-.25,.33-.46,.45-.17-.1-.38,.02-.25,.33-.46,.45-.17-.1-.38,.02-.25,.33-.46,.45-.17-.1-.38,.02-.25,.33-.46,.45-.17-.1-.38,.02-.25,.33-.46,.45-.17-.09-.38,.02"/><path class="cls-4" d="M119.17,56.45c-.21,.12-.17-.1-.38,.02s-.25,.33-.46,.45-.17-.1-.38,.02-.25,.33-.46,.45-.17-.1-.38,.02-.25,.33-.46,.45-.17-.1-.38,.02-.25,.33-.46,.45-.17-.1-.38,.02-.25,.33-.46,.45-.17-.1-.38,.02-.25,.33-.46,.45-.17-.09-.38,.02"/><path class="cls-4" d="M119.17,58.32c-.21,.12-.17-.1-.38,.02s-.25,.33-.46,.45-.17-.1-.38,.02-.25,.33-.46,.45-.17-.1-.38,.02-.25,.33-.46,.45-.17-.1-.38,.02-.25,.33-.46,.45-.17-.1-.38,.02-.25,.33-.46,.45-.17-.1-.38,.02-.25,.33-.46,.45-.17-.09-.38,.02"/><path class="cls-4" d="M119.17,59.76c-.21,.12-.17-.1-.38,.02s-.25,.33-.46,.45-.17-.1-.38,.02-.25,.33-.46,.45-.17-.1-.38,.02-.25,.33-.46,.45-.17-.1-.38,.02-.25,.33-.46,.45-.17-.1-.38,.02-.25,.33-.46,.45-.17-.1-.38,.02-.25,.33-.46,.45-.17-.09-.38,.02"/><path class="cls-4" d="M119.17,61.63c-.21,.12-.17-.1-.38,.02s-.25,.33-.46,.45-.17-.1-.38,.02-.25,.33-.46,.45-.17-.1-.38,.02-.25,.33-.46,.45-.17-.1-.38,.02-.25,.33-.46,.45-.17-.1-.38,.02-.25,.33-.46,.45-.17-.1-.38,.02-.25,.33-.46,.45-.17-.09-.38,.02"/><path class="cls-4" d="M119.17,63.07c-.21,.12-.17-.1-.38,.02s-.25,.33-.46,.45-.17-.1-.38,.02-.25,.33-.46,.45-.17-.1-.38,.02-.25,.33-.46,.45-.17-.1-.38,.02-.25,.33-.46,.45-.17-.1-.38,.02-.25,.33-.46,.45-.17-.1-.38,.02-.25,.33-.46,.45-.17-.09-.38,.02"/><polygon class="cls-9" points="107.53 59.43 112.53 56.49 112.53 67.16 107.53 70.13 107.53 59.43"/><line class="cls-4" x1="98.54" y1="54.98" x2="98.54" y2="71.22"/><line class="cls-4" x1="102.4" y1="52.6" x2="102.4" y2="68.84"/><polygon class="cls-1" points="91.92 48.14 86.47 51.34 86.47 65.14 91.92 61.97 91.92 48.14"/><polygon class="cls-1" points="86.47 65.14 84.02 63.99 83.72 52.97 86.47 51.34 86.47 65.14"/><path class="cls-6" d="M39.45,19.29h-4.83c1.53,0,2.77-1.13,2.77-2.51s-1.24-2.51-2.77-2.51h-13.88c-1.53,0-2.77,1.13-2.77,2.51h-4.26c-1.53,0-2.77,1.13-2.77,2.51s1.24,2.51,2.77,2.51h9.09c0,1.39,1.24,2.51,2.77,2.51h13.88c1.53,0,2.77-1.13,2.77-2.51s-1.24-2.51-2.77-2.51Z"/><line class="cls-3" x1="31.02" y1="17.49" x2="34.48" y2="17.49"/><line class="cls-2" x1="26.01" y1="8.29" x2="51.08" y2="8.29"/><line class="cls-3" x1="38.95" y1="17.48" x2="52.96" y2="17.48"/><line class="cls-3" x1="160.55" y1="43.46" x2="153.65" y2="43.46"/><line class="cls-3" x1="165.79" y1="43.46" x2="164.05" y2="43.46"/><line class="cls-3" x1="177.73" y1="58.27" x2="174.32" y2="58.27"/><line class="cls-2" x1="192" y1="51.68" x2="167.32" y2="51.68"/><line class="cls-3" x1="169.92" y1="58.25" x2="156.13" y2="58.25"/><g><line class="cls-5" x1="175.97" y1="38.01" x2="174.35" y2="39.41"/><line class="cls-5" x1="173.15" y1="40.44" x2="171.53" y2="41.84"/><line class="cls-5" x1="175.97" y1="41.84" x2="174.35" y2="40.44"/><line class="cls-5" x1="173.15" y1="39.41" x2="171.53" y2="38.01"/></g><circle class="cls-3" cx="171.86" cy="15.77" r="2.07"/><rect class="cls-7" x="152.83" y="20.51" width="20.3" height="5.79" rx="2.89" ry="2.89"/><rect class="cls-7" x="133.86" y="12.38" width="33.24" height="9.48" rx="4.03" ry="4.03"/><rect class="cls-4" x="42.44" y="88.31" width="3" height="3" transform="translate(76.37 -4.77) rotate(45)"/><path class="cls-6" d="M37.58,76.71h-4.76c1.5,0,2.72-1.22,2.72-2.72s-1.22-2.72-2.72-2.72h-13.66c-1.5,0-2.72,1.22-2.72,2.72h-4.19c-1.5,0-2.72,1.22-2.72,2.72s1.22,2.72,2.72,2.72h8.95c0,1.5,1.22,2.72,2.72,2.72h13.66c1.5,0,2.72-1.22,2.72-2.72s-1.22-2.72-2.72-2.72Z"/><path class="cls-7" d="M17.5,73.9H-.24c.06,3.21,0,6.34-.05,9.48H17.5c2.62,0,4.74-2.12,4.74-4.74s-2.12-4.74-4.74-4.74Z"/></svg>