<?xml version="1.0" encoding="UTF-8"?><svg id="Layer_1" data-name="Layer 1" xmlns="http://www.w3.org/2000/svg" viewBox="0 0 192 108"><defs><style>.cls-1 {
        fill: #00ff94;
      }

      .cls-2 {
        fill: #003d2e;
      }

      .cls-3 {
        fill: #e3e7e3;
      }

      .cls-4 {
        fill: #fff;
      }

      .cls-5 {
        stroke: #00ff94;
      }

      .cls-5, .cls-6, .cls-7, .cls-8 {
        fill: none;
        stroke-linecap: round;
        stroke-linejoin: round;
        stroke-width: .3px;
      }

      .cls-6 {
        stroke: #003c2e;
      }

      .cls-7 {
        stroke: #003d2e;
      }

      .cls-8 {
        stroke: #163b2f;
      }</style></defs><path class="cls-1" d="M49.24,107.95l21.29-36.87,7.95-13.76c3.63,.7,8.18,1.24,13.34,1.25h.03s.2-.26,.2-.26c5.16-.01,9.46-.99,13.09-1.67l7.98,14.45,21.29,36.87H49.24Z"/><path class="cls-3" d="M154.68,16.63h4.69c-1.48,0-2.69-1.2-2.69-2.69s1.2-2.69,2.69-2.69h13.46c1.48,0,2.69,1.2,2.69,2.69h4.13c1.48,0,2.69,1.2,2.69,2.69s-1.2,2.69-2.69,2.69h-8.82c0,1.48-1.2,2.69-2.69,2.69h-13.46c-1.48,0-2.69-1.2-2.69-2.69s1.2-2.69,2.69-2.69Z"/><path class="cls-1" d="M174.46,13.86h17.48c-.06,3.17,0,6.24,.05,9.34h-17.54c-2.58,0-4.67-2.09-4.67-4.67s2.09-4.67,4.67-4.67Z"/><line class="cls-6" x1="52.71" y1="72.73" x2="54.47" y2="72.73"/><line class="cls-5" x1="45.36" y1="77.2" x2="58.08" y2="77.2"/><line class="cls-6" x1="56.74" y1="72.74" x2="63.85" y2="72.74"/><rect class="cls-3" x="18.34" y="57.89" width="15.65" height="4.46" rx="2.23" ry="2.23"/><rect class="cls-1" x="4.66" y="52.03" width="24.9" height="7.1" rx="3.55" ry="3.55"/><g><line class="cls-8" x1="17.99" y1="61.84" x2="17.99" y2="60.02"/><line class="cls-8" x1="17.99" y1="58.69" x2="17.99" y2="56.88"/><line class="cls-8" x1="20.47" y1="59.36" x2="18.65" y2="59.36"/><line class="cls-8" x1="17.32" y1="59.36" x2="15.5" y2="59.36"/></g><g><line class="cls-8" x1="35.67" y1="97.74" x2="35.67" y2="95.93"/><line class="cls-8" x1="35.67" y1="94.6" x2="35.67" y2="92.78"/><line class="cls-8" x1="38.15" y1="95.26" x2="36.33" y2="95.26"/><line class="cls-8" x1="35" y1="95.26" x2="33.18" y2="95.26"/></g><line class="cls-6" x1="169.85" y1="86.68" x2="171.61" y2="86.68"/><line class="cls-5" x1="162.5" y1="82.22" x2="175.22" y2="82.22"/><line class="cls-6" x1="173.88" y1="86.67" x2="180.99" y2="86.67"/><circle class="cls-6" cx="148.56" cy="56.18" r="2.12"/><circle class="cls-6" cx="179.55" cy="9.1" r="2.12"/><rect class="cls-1" x="147.27" y="61.02" width="20.73" height="5.91" rx="2.96" ry="2.96" transform="translate(315.27 127.96) rotate(-180)"/><rect class="cls-1" x="153.42" y="52.72" width="33.95" height="9.68" rx="4.84" ry="4.84" transform="translate(340.79 115.12) rotate(-180)"/><path class="cls-3" d="M49.38,18.24h-4.86c1.54,0,2.78-1.13,2.78-2.53s-1.25-2.53-2.78-2.53h-13.95c-1.54,0-2.78,1.13-2.78,2.53h-4.28c-1.54,0-2.78,1.13-2.78,2.53s1.25,2.53,2.78,2.53h9.14c0,1.4,1.25,2.53,2.78,2.53h13.95c1.54,0,2.78-1.13,2.78-2.53s-1.25-2.53-2.78-2.53Z"/><line class="cls-6" x1="40.9" y1="16.44" x2="44.38" y2="16.44"/><line class="cls-6" x1="48.88" y1="16.42" x2="62.96" y2="16.42"/><g><line class="cls-8" x1="28.36" y1="24.51" x2="28.36" y2="26.86"/><line class="cls-8" x1="28.36" y1="28.58" x2="28.36" y2="30.94"/><line class="cls-8" x1="25.15" y1="27.72" x2="27.5" y2="27.72"/><line class="cls-8" x1="29.22" y1="27.72" x2="31.58" y2="27.72"/></g><g><line class="cls-8" x1="172.07" y1="66.31" x2="172.07" y2="68.66"/><line class="cls-8" x1="172.07" y1="70.38" x2="172.07" y2="72.73"/><line class="cls-8" x1="168.86" y1="69.52" x2="171.21" y2="69.52"/><line class="cls-8" x1="172.93" y1="69.52" x2="175.28" y2="69.52"/></g><line class="cls-6" x1="113.74" y1="16.51" x2="121.51" y2="16.51"/><line class="cls-6" x1="107.83" y1="16.51" x2="109.79" y2="16.51"/><line class="cls-6" x1="137.87" y1="97.32" x2="141.71" y2="97.32"/><line class="cls-5" x1="108.15" y1="11.22" x2="135.97" y2="11.22"/><line class="cls-6" x1="146.68" y1="97.3" x2="162.23" y2="97.3"/><g><line class="cls-8" x1="146.14" y1="92.37" x2="148.27" y2="92.37"/><line class="cls-8" x1="149.82" y1="92.37" x2="151.94" y2="92.37"/><line class="cls-8" x1="149.04" y1="95.26" x2="149.04" y2="93.14"/><line class="cls-8" x1="149.04" y1="91.59" x2="149.04" y2="89.47"/></g><line class="cls-6" x1="20.25" y1="97.01" x2="30.3" y2="97.01"/><line class="cls-6" x1="13.55" y1="97.29" x2="15.5" y2="97.29"/><line class="cls-5" x1="13.02" y1="93.75" x2="30.46" y2="93.75"/><path class="cls-2" d="M103.21,77.64l-1.09,.56-5.27,2.68c-.22-1.72,.99-3.29,2.71-3.52,.67-.09,1.35,.04,1.94,.37l.62-.32,.09-.05c-1.71-1.24-4.11-.86-5.35,.85-.53,.74-.79,1.64-.72,2.54,.02,.28-.13,.55-.38,.67l-.33,.17v.78l.97-.49,.31-.16,.31-.16,5.55-2.83,.62-.32,1.29-.66v-.78l-1.28,.65Zm1.28,.91l-7.15,3.64-.62,.32-1.28,.65v.78l1.28-.65,1.09-.56,5.27-2.69c.23,1.72-.98,3.3-2.7,3.52-.67,.09-1.36-.04-1.95-.37l-.04,.02-.68,.34c1.71,1.24,4.11,.86,5.36-.85,.53-.74,.79-1.64,.72-2.55-.02-.28,.13-.55,.38-.67l.33-.17v-.78Z"/><path class="cls-2" d="M85.46,95.98l-1.09,.56-5.27,2.68c-.22-1.72,.99-3.29,2.71-3.52,.67-.09,1.35,.04,1.94,.37l.62-.32,.09-.05c-1.71-1.24-4.11-.86-5.35,.85-.53,.74-.79,1.64-.72,2.54,.02,.28-.13,.55-.38,.67l-.33,.17v.78l.97-.49,.31-.16,.31-.16,5.55-2.83,.62-.32,1.29-.66v-.78l-1.28,.65Zm1.28,.91l-7.15,3.64-.62,.32-1.28,.65v.78l1.28-.65,1.09-.56,5.27-2.69c.23,1.72-.98,3.3-2.7,3.52-.67,.09-1.36-.04-1.95-.37l-.04,.02-.68,.34c1.71,1.24,4.11,.86,5.36-.85,.53-.74,.79-1.64,.72-2.55-.02-.28,.13-.55,.38-.67l.33-.17v-.78Z"/><path class="cls-2" d="M65.73,98.09l-.87,.44-4.18,2.13c-.18-1.36,.78-2.61,2.15-2.79,.53-.07,1.07,.03,1.54,.3l.5-.25,.07-.04c-1.36-.99-3.26-.68-4.25,.68-.42,.58-.63,1.3-.57,2.02,.02,.22-.1,.43-.3,.53l-.26,.13v.62l.77-.39,.25-.13,.25-.13,4.41-2.25,.5-.25,1.02-.52v-.62l-1.02,.52Zm1.02,.73l-5.68,2.89-.5,.25-1.02,.52v.62l1.01-.52,.87-.44,4.19-2.13c.18,1.36-.78,2.62-2.14,2.8-.53,.07-1.08-.03-1.54-.3l-.03,.02-.54,.27c1.36,.99,3.26,.69,4.25-.67,.42-.58,.63-1.3,.57-2.02-.02-.22,.1-.43,.3-.53l.26-.13v-.62Z"/><path class="cls-2" d="M116.17,92.33l-.87,.44-4.18,2.13c-.18-1.36,.78-2.61,2.15-2.79,.53-.07,1.07,.03,1.54,.3l.5-.25,.07-.04c-1.36-.99-3.26-.68-4.25,.68-.42,.58-.63,1.3-.57,2.02,.02,.22-.1,.43-.3,.53l-.26,.13v.62l.77-.39,.25-.13,.25-.13,4.41-2.25,.5-.25,1.02-.52v-.62l-1.02,.52Zm1.02,.73l-5.68,2.89-.5,.25-1.02,.52v.62l1.01-.52,.87-.44,4.19-2.13c.18,1.36-.78,2.62-2.14,2.8-.53,.07-1.08-.03-1.54-.3l-.03,.02-.54,.27c1.36,.99,3.26,.69,4.25-.67,.42-.58,.63-1.3,.57-2.02-.02-.22,.1-.43,.3-.53l.26-.13v-.62Z"/><path class="cls-2" d="M101.98,56.67l-1.09,.56-5.27,2.68c-.22-1.72,.99-3.29,2.71-3.52,.67-.09,1.35,.04,1.94,.37l.62-.32,.09-.05c-1.71-1.24-4.11-.86-5.35,.85-.53,.74-.79,1.64-.72,2.54,.02,.28-.13,.55-.38,.67l-.33,.17v.78l.97-.49,.31-.16,.31-.16,5.55-2.83,.62-.32,1.29-.66v-.78l-1.28,.65Zm1.28,.91l-7.15,3.64-.62,.32-1.28,.65v.78l1.28-.65,1.09-.56,5.27-2.69c.23,1.72-.98,3.3-2.7,3.52-.67,.09-1.36-.04-1.95-.37l-.04,.02-.68,.34c1.71,1.24,4.11,.86,5.36-.85,.53-.74,.79-1.64,.72-2.55-.02-.28,.13-.55,.38-.67l.33-.17v-.78Z"/><path class="cls-2" d="M86.68,72.3l-1.89,.96-9.1,4.64c-.39-2.97,1.71-5.69,4.68-6.08,1.16-.15,2.33,.07,3.35,.64l1.08-.55,.16-.08c-2.96-2.15-7.1-1.49-9.25,1.47-.92,1.27-1.36,2.83-1.24,4.4,.04,.48-.22,.94-.65,1.16l-.57,.29v1.35l1.68-.85,.54-.28,.53-.27,9.6-4.89,1.08-.55,2.23-1.14v-1.35l-2.21,1.13Zm2.21,1.58l-12.36,6.29-1.08,.55-2.22,1.13v1.35l2.2-1.12,1.88-.96,9.11-4.64c.39,2.97-1.7,5.69-4.67,6.09-1.16,.15-2.34-.07-3.36-.65l-.07,.04-1.17,.6c2.96,2.15,7.1,1.49,9.25-1.47,.92-1.27,1.36-2.83,1.24-4.4-.04-.48,.22-.94,.65-1.16l.57-.29v-1.35Z"/><path class="cls-2" d="M107.1,101.51l-1.89,.96-9.1,4.64c-.39-2.97,1.71-5.69,4.68-6.08,1.16-.15,2.33,.07,3.35,.64l1.08-.55,.16-.08c-2.96-2.15-7.1-1.49-9.25,1.47-.92,1.27-1.36,2.83-1.24,4.4,.04,.48-.22,.94-.65,1.16l-.57,.29v1.35l1.68-.85,.54-.28,.53-.27,9.6-4.89,1.08-.55,2.23-1.14v-1.35l-2.21,1.13Zm2.21,1.58l-12.36,6.29-1.08,.55-2.22,1.13v1.35l2.2-1.12,1.88-.96,9.11-4.64c.39,2.97-1.7,5.69-4.67,6.09-1.16,.15-2.34-.07-3.36-.65l-.07,.04-1.17,.6c2.96,2.15,7.1,1.49,9.25-1.47,.92-1.27,1.36-2.83,1.24-4.4-.04-.48,.22-.94,.65-1.16l.57-.29v-1.35Z"/><g><g><path class="cls-4" d="M145.44,44.28h.01c-.68,4.03-12.33,7.51-29.08,9.25-2.08,.22-4.24,.4-6.46,.57h-.01c-2.22,.17-4.51,.3-6.86,.4-1.38,.05-2.78,.1-4.2,.14-.76,.01-1.54,.04-2.31,.05-1.55,.03-3.11,.04-4.7,.04,0,0,17.29-1.12,30.54-3.88,11.77-2.46,19.66-6.58,19.66-6.58v-.03l3.42,.03Z"/><path class="cls-3" d="M41.84,43.52l-3.66-.03s5.57-2.49,15.1-5.18c1.91-.53,3.98-1.09,6.2-1.62,3.44-.83,7.22-1.63,11.32-2.33,1.8-.31,3.66-.61,5.57-.87,4.85-.67,10.07-.47,15.44-.47s10.56,.16,15.44,.47c1.5,.21,2.97,.44,4.39,.68,2.79,.47,5.45,1,7.96,1.56,3.67,.83,7.02,1.72,10,2.61,9.67,2.91,15.46,5.74,15.82,5.92l-3.42-.03-22.8-.16-6.54-.05-8.23-.06h-1.69s-5.82-.05-5.82-.05l-10.22-.08-6.77-.05h-.9s-12.69-.1-12.69-.1l-3.4-.03-21.11-.16Z"/><path class="cls-4" d="M142.02,44.26v.03s-7.88,4.12-19.66,6.58c-13.25,2.75-30.54,3.88-30.54,3.88,0,0,15.39-4.96,27.4-10.64l22.8,.16Z"/><path class="cls-4" d="M112.68,44.05l6.54,.05c-12.01,5.67-27.4,10.64-27.4,10.64,0,0,5.05-4.68,10.93-10.77h1.69s8.23,.08,8.23,.08Z"/><path class="cls-3" d="M116.38,53.54c.37,.65-1.46,1.58-2.47,2.11-.93,.49-3.54,1.42-7.37,2.24-.44,.09-.9,.18-1.38,.28-3.63,.68-8.16,1.23-13.31,1.24h-.05c-5.16-.01-9.71-.56-13.34-1.25-4.58-.87-7.68-1.96-8.72-2.51-1.01-.53-2.84-1.46-2.47-2.11,2.04,.21,4.15,.4,6.33,.56h.01c1.42,.1,2.87,.19,4.34,.27,.58,.04,1.18,.06,1.77,.09,.27,.01,.56,.03,.85,.04,.9,.04,1.82,.08,2.74,.1s1.85,.05,2.79,.08c.7,.01,1.4,.03,2.09,.04,1.18,.01,2.37,.03,3.57,.03h.05c1.59,0,3.15-.01,4.7-.04,.78-.01,1.55-.04,2.31-.05,1.42-.04,2.82-.09,4.2-.14,2.35-.1,4.64-.23,6.86-.4h.01c2.22-.17,4.38-.35,6.46-.57Z"/><path class="cls-4" d="M96.94,43.93l5.82,.04c-5.88,6.09-10.93,10.77-10.93,10.77,0,0-5.54-4.79-11.88-10.93l6.77,.05,10.22,.08Z"/><path class="cls-3" d="M91.82,22.49c7.7,0,14.1,4.74,15.44,11.01-4.89-.31-10.07-.47-15.44-.47s-10.6-.21-15.44,.47c1.34-6.27,7.74-11.01,15.44-11.01Z"/><path class="cls-4" d="M91.82,54.74h-.05c-1.05-.1-17.2-1.67-30.24-4.59-10.86-2.44-19-6.29-19.68-6.63l21.11,.16s.09,.04,.13,.06c12.2,5.82,28.74,11,28.74,11Z"/><path class="cls-4" d="M91.77,54.74c-1.2,0-2.39-.01-3.57-.03-.7-.01-1.4-.03-2.09-.04-.94-.03-1.87-.05-2.79-.08s-1.84-.06-2.74-.1c-.3-.01-.58-.03-.85-.04-.59-.03-1.19-.05-1.77-.09-1.47-.08-2.92-.17-4.34-.27h-.01c-2.18-.16-4.29-.35-6.33-.56-17.29-1.8-29.12-5.44-29.12-9.64,0-.13,.01-.27,.04-.4l3.66,.03c.68,.34,8.83,4.19,19.68,6.63,13.04,2.92,29.2,4.48,30.24,4.59Z"/><path class="cls-4" d="M79.94,43.8c6.33,6.14,11.88,10.93,11.88,10.93,0,0-16.54-5.18-28.74-11-.04-.03-.09-.04-.13-.06l3.4,.03,12.69,.09h.9Z"/></g><g><path class="cls-7" d="M76.38,33.5c1.34-6.27,7.74-11.01,15.44-11.01s14.1,4.74,15.44,11.01"/><path class="cls-7" d="M38.19,43.49s5.57-2.49,15.1-5.18c1.91-.53,3.98-1.09,6.2-1.62,3.44-.83,7.22-1.63,11.32-2.33,1.8-.31,3.66-.61,5.57-.87,4.85-.67,10.07-.47,15.44-.47s10.56,.16,15.44,.47c1.5,.21,2.97,.44,4.39,.68,2.79,.47,5.45,1,7.96,1.56,3.67,.83,7.02,1.72,10,2.61,9.67,2.91,15.46,5.74,15.82,5.92"/><path class="cls-7" d="M41.84,43.52l21.11,.16,3.4,.03,12.69,.09h.9s6.77,.06,6.77,.06l10.22,.08,5.82,.04h1.69s8.23,.08,8.23,.08l6.54,.05,22.8,.16,3.42,.03h.01c-.68,4.03-12.33,7.51-29.08,9.25"/><path class="cls-7" d="M67.27,53.54c-17.29-1.8-29.12-5.44-29.12-9.64,0-.13,.01-.27,.04-.4l3.66,.03c.68,.34,8.83,4.19,19.68,6.63,13.04,2.92,29.2,4.48,30.24,4.59"/><path class="cls-7" d="M116.38,53.54c.37,.65-1.46,1.58-2.47,2.11-.93,.49-3.54,1.42-7.37,2.24-.44,.09-.9,.18-1.38,.28-3.63,.68-8.16,1.23-13.31,1.24h-.05c-5.16-.01-9.71-.56-13.34-1.25-4.58-.87-7.68-1.96-8.72-2.51-1.01-.53-2.84-1.46-2.47-2.11,2.04,.21,4.15,.4,6.33,.56h.01c1.42,.1,2.87,.19,4.34,.27,.58,.04,1.18,.06,1.77,.09,.27,.01,.56,.03,.85,.04,.9,.04,1.82,.08,2.74,.1s1.85,.05,2.79,.08c.7,.01,1.4,.03,2.09,.04,1.18,.01,2.37,.03,3.57,.03h.05c1.59,0,3.15-.01,4.7-.04,.78-.01,1.55-.04,2.31-.05,1.42-.04,2.82-.09,4.2-.14,2.35-.1,4.64-.23,6.86-.4h.01c2.22-.17,4.38-.35,6.46-.57Z"/><path class="cls-7" d="M41.84,43.52s-.05-.03-.05-.03"/><path class="cls-7" d="M91.82,54.74s17.29-1.12,30.54-3.88c11.77-2.46,19.66-6.58,19.66-6.58"/><path class="cls-7" d="M91.82,54.74s15.39-4.96,27.4-10.64"/><path class="cls-7" d="M62.95,43.67s.09,.04,.13,.06c12.2,5.82,28.74,11,28.74,11"/><path class="cls-7" d="M91.82,54.74s5.05-4.68,10.93-10.77"/><path class="cls-7" d="M79.94,43.8c6.33,6.14,11.88,10.93,11.88,10.93"/></g></g><path class="cls-2" d="M94.53,25.54l-.94,.48-4.55,2.32c-.19-1.48,.85-2.84,2.34-3.04,.58-.08,1.16,.04,1.67,.32l.54-.27,.08-.04c-1.48-1.07-3.55-.75-4.62,.73-.46,.64-.68,1.41-.62,2.2,.02,.24-.11,.47-.33,.58l-.28,.15v.68l.84-.43,.27-.14,.27-.14,4.8-2.44,.54-.27,1.11-.57v-.68l-1.1,.56Zm1.1,.79l-6.18,3.15-.54,.27-1.11,.57v.68l1.1-.56,.94-.48,4.55-2.32c.2,1.48-.85,2.85-2.33,3.04-.58,.08-1.17-.04-1.68-.32l-.03,.02-.58,.3c1.48,1.07,3.55,.75,4.62-.73,.46-.64,.68-1.41,.62-2.2-.02-.24,.11-.47,.33-.58l.28-.15v-.67Z"/></svg>