<svg width="1676" height="857" viewBox="0 0 1676 857" fill="none" xmlns="http://www.w3.org/2000/svg"><g clip-path="url(#clip0_182_536)"><path d="M562.651 56.0963L583.989 68.4828" stroke="#003B2F" stroke-width="3.12" stroke-linecap="round" stroke-linejoin="round"/><path d="M605.325 56.0963L592.848 63.3293" stroke="#003B2F" stroke-width="3.12" stroke-linecap="round" stroke-linejoin="round"/><path d="M583.992 68.4828V93.3462" stroke="#003B2F" stroke-width="3.12" stroke-linecap="round" stroke-linejoin="round"/><path d="M574.217 226.072H633.889" stroke="#003B2F" stroke-width="3.12" stroke-linecap="round" stroke-linejoin="round"/><path d="M528.834 226.072H543.933" stroke="#003B2F" stroke-width="3.12" stroke-linecap="round" stroke-linejoin="round"/><path d="M582.809 183.126H737.504" stroke="#03FC9D" stroke-width="3.12" stroke-linecap="round" stroke-linejoin="round"/><path d="M1157.92 158.986C1167.81 158.986 1175.82 150.971 1175.82 141.084C1175.82 131.197 1167.81 123.182 1157.92 123.182C1148.03 123.182 1140.02 131.197 1140.02 141.084C1140.02 150.971 1148.03 158.986 1157.92 158.986Z" stroke="#003B2F" stroke-width="3.12" stroke-linecap="round" stroke-linejoin="round"/><path d="M52.9054 671.082H142.414C152.301 671.082 160.315 663.087 160.315 653.225C160.315 643.364 152.301 635.369 142.414 635.369H52.9054C43.0186 635.369 35.0038 643.364 35.0038 653.225C35.0038 663.087 43.0186 671.082 52.9054 671.082Z" fill="#03FC9D"/><path d="M101.457 643.687H248.197C264.375 643.687 277.49 630.572 277.49 614.393C277.49 598.215 264.375 585.1 248.197 585.1H101.457C85.2787 585.1 72.1635 598.215 72.1635 614.393C72.1635 630.572 85.2787 643.687 101.457 643.687Z" fill="#03FC9D"/><path d="M156.235 297.045V319.468" stroke="#003B2F" stroke-width="3.12" stroke-linecap="round" stroke-linejoin="round"/><path d="M156.235 335.832V358.255" stroke="#003B2F" stroke-width="3.12" stroke-linecap="round" stroke-linejoin="round"/><path d="M125.589 327.695H148.011" stroke="#003B2F" stroke-width="3.12" stroke-linecap="round" stroke-linejoin="round"/><path d="M164.464 327.695H186.886" stroke="#003B2F" stroke-width="3.12" stroke-linecap="round" stroke-linejoin="round"/><path d="M1527.71 365.94L1541.81 380.044" stroke="#003B2F" stroke-width="3.12" stroke-linecap="round" stroke-linejoin="round"/><path d="M1552.12 390.351L1566.13 404.456" stroke="#003B2F" stroke-width="3.12" stroke-linecap="round" stroke-linejoin="round"/><path d="M1527.71 404.456L1541.81 390.351" stroke="#003B2F" stroke-width="3.12" stroke-linecap="round" stroke-linejoin="round"/><path d="M1552.12 380.044L1566.13 365.94" stroke="#003B2F" stroke-width="3.12" stroke-linecap="round" stroke-linejoin="round"/><path d="M1305.75 578.68H1520.93" stroke="#03FC9D" stroke-width="3.12" stroke-linecap="round" stroke-linejoin="round"/><path d="M1280.34 607.612H1400.68" stroke="#003B2F" stroke-width="3.12" stroke-linecap="round" stroke-linejoin="round"/><path d="M1318.86 722.888H1359.63C1359.63 722.888 1360 722.436 1359.63 722.436C1344.35 719.543 1333.5 703.902 1338.75 686.994C1342.27 675.512 1353.76 668.279 1365.69 668.279H1501.67C1516.68 668.279 1528.89 680.394 1528.98 695.312C1528.98 695.493 1529.07 695.584 1529.25 695.584H1569.21C1584.13 695.584 1597.6 706.795 1598.32 721.622C1599.05 737.264 1586.57 750.193 1571.02 750.193H1481.6C1481.6 750.193 1481.33 750.283 1481.33 750.464C1481.24 765.472 1469.03 777.497 1454.02 777.497H1317.05C1301.59 777.497 1289.11 764.568 1289.74 748.927C1290.38 733.286 1303.85 722.888 1318.86 722.888Z" fill="#E6E8EA"/><path d="M1704.56 736.721H1466.41C1440.14 736.721 1418.85 757.993 1418.85 784.233C1418.85 810.473 1440.14 831.745 1466.41 831.745H1704.56C1730.82 831.745 1752.11 810.473 1752.11 784.233C1752.11 757.993 1730.82 736.721 1704.56 736.721Z" fill="#03FC9D"/><path d="M354.156 141.084H316.816C328.66 141.084 338.243 131.501 338.243 119.657C338.243 107.812 328.66 98.2288 316.816 98.2288H209.496C197.652 98.2288 188.068 107.812 188.068 119.657H155.158C143.314 119.657 133.73 129.24 133.73 141.084C133.73 152.928 143.314 162.512 155.158 162.512H225.409C225.409 174.356 234.992 183.94 246.836 183.94H354.156C366 183.94 375.584 174.356 375.584 162.512C375.584 150.668 366 141.084 354.156 141.084Z" fill="#E6E8EA"/><path d="M1154.32 678.182L1135.52 659.386L1116.73 678.182L1135.52 696.978L1154.32 678.182Z" stroke="#003B2F" stroke-width="3.12" stroke-linecap="round" stroke-linejoin="round"/><path d="M349.725 243.521H344.3V260.79H336.435V440.801H344.3V458.161H349.725V440.801H357.591V260.79H349.725V243.521Z" fill="#E6E8EA"/><path d="M408.044 319.558H402.619V336.827H394.753V516.929H402.619V534.198H408.044V516.929H415.819V336.827H408.044V319.558Z" fill="#E6E8EA"/><path d="M437.153 327.695H431.728V344.964H423.862V524.975H431.728V542.244H437.153V524.975H445.019V344.964H437.153V327.695Z" fill="#E6E8EA"/><path d="M386.701 268.837H378.836V256.812H373.411V268.837H365.545V394.601H373.411V406.626H378.836V394.601H386.701V268.837Z" fill="#E6E8EA"/><path d="M465.275 474.887H459.85V485.827H451.984V600.199H459.85V611.138H465.275V600.199H473.141V485.827H465.275V474.887Z" fill="#E6E8EA"/><path d="M494.392 419.374H488.967V427.059H481.191V506.893H488.967V514.578H494.392V506.893H502.258V427.059H494.392V419.374Z" fill="#E6E8EA"/><path d="M523.593 399.121H518.169V410.061H510.303V524.433H518.169V535.373H523.593V524.433H531.459V410.061H523.593V399.121Z" fill="#E6E8EA"/><path d="M581.911 406.716H576.486V417.656H568.62V532.027H576.486V542.967H581.911V532.027H589.686V417.656H581.911V406.716Z" fill="#E6E8EA"/><path d="M611.021 451.108H605.596V462.048H597.73V576.33H605.596V587.36H611.021V576.33H618.887V462.048H611.021V451.108Z" fill="#E6E8EA"/><path d="M560.569 417.475H552.703V409.79H547.278V417.475H539.412V497.309H547.278V504.994H552.703V497.309H560.569V417.475Z" fill="#E6E8EA"/><path d="M646.461 474.344H641.037V485.284H633.171V599.204H641.037V610.144H646.461V599.204H654.327V485.284H646.461V474.344Z" fill="#E6E8EA"/><path d="M675.572 515.663H670.147V523.258H662.281V602.821H670.147V610.506H675.572V602.821H683.438V523.258H675.572V515.663Z" fill="#E6E8EA"/><path d="M704.77 563.853H699.345V574.793H691.479V688.712H699.345V699.652H704.77V688.712H712.546V574.793H704.77V563.853Z" fill="#E6E8EA"/><path d="M762.998 611.952H757.664V622.892H749.798V736.812H757.664V747.752H762.998V736.812H770.864V622.892H762.998V611.952Z" fill="#E6E8EA"/><path d="M792.208 617.106H786.783V627.955H778.917V741.966H786.783V752.815H792.208V741.966H800.074V627.955H792.208V617.106Z" fill="#E6E8EA"/><path d="M741.756 579.856H733.89V572.261H728.465V579.856H720.6V659.419H728.465V667.104H733.89V659.419H741.756V579.856Z" fill="#E6E8EA"/><path d="M827.375 637.539H821.95V651.01H814.084V791.421H821.95V804.892H827.375V791.421H835.241V651.01H827.375V637.539Z" fill="#E6E8EA"/><path d="M856.485 633.109H851.06V642.512H843.194V740.609H851.06V750.012H856.485V740.609H864.351V642.512H856.485V633.109Z" fill="#E6E8EA"/><path d="M885.693 662.312H880.268V675.784H872.402V816.194H880.268V829.666H885.693V816.194H893.468V675.784H885.693V662.312Z" fill="#E6E8EA"/><path d="M943.92 594.503H938.586V607.974H930.72V748.475H938.586V761.947H943.92V748.475H951.786V607.974H943.92V594.503Z" fill="#E6E8EA"/><path d="M973.121 557.434H967.696V570.905H959.83V711.316H967.696V724.787H973.121V711.316H980.987V570.905H973.121V557.434Z" fill="#E6E8EA"/><path d="M922.668 637.539H914.802V628.136H909.378V637.539H901.512V735.546H909.378V744.949H914.802V735.546H922.668V637.539Z" fill="#E6E8EA"/><path d="M1040.21 351.655H1034.78V408.434H1026.92V523.8H1034.78V534.921H1040.21V523.8H1048.07V408.434H1040.21V351.655Z" fill="#E6E8EA"/><path d="M1069.31 371.365H1063.89V379.14H1056.11V459.697H1063.89V467.383H1069.31V459.697H1077.18V379.14H1069.31V371.365Z" fill="#E6E8EA"/><path d="M1098.52 329.323H1093.1V340.353H1085.23V455.81H1093.1V466.84H1098.52V455.81H1106.39V340.353H1098.52V329.323Z" fill="#E6E8EA"/><path d="M1156.83 426.878H1151.41V437.908H1143.54V553.365H1151.41V564.395H1156.83V553.365H1164.61V437.908H1156.83V426.878Z" fill="#E6E8EA"/><path d="M1196.08 254.642H1187.31V272.634H1174.47V460.964H1187.31V479.046H1196.08V460.964H1208.92V272.634H1196.08V254.642Z" fill="#03FC9D"/><path d="M1135.5 396.771H1127.63V388.995H1122.21V396.771H1114.34V477.328H1122.21V485.013H1127.63V477.328H1135.5V396.771Z" fill="#E6E8EA"/><path d="M1019.95 379.683H1008.56V351.655H1000.69V379.683H989.303V671.805H1000.69V723.973H1008.56V671.805H1019.95V379.683Z" fill="#03FC9D"/><path d="M1226.36 309.613H1222.38V320.824H1216.51V437.094H1222.38V448.215H1226.36V437.094H1232.24V320.824H1226.36V309.613Z" fill="#E6E8EA"/><path d="M1248.07 253.196H1244V260.971H1238.21V342.162H1244V349.937H1248.07V342.162H1253.85V260.971H1248.07V253.196Z" fill="#E6E8EA"/><path d="M1269.67 317.027H1265.6V328.148H1259.82V405.631H1265.6V416.842H1269.67V405.631H1275.46V328.148H1269.67V317.027Z" fill="#E6E8EA"/><path d="M1312.98 240.357H1308.91V251.478H1303.12V367.748H1308.91V378.959H1312.98V367.748H1318.77V251.478H1312.98V240.357Z" fill="#E6E8EA"/><path d="M1334.58 297.407H1330.51V308.528H1324.73V424.798H1330.51V435.919H1334.58V424.798H1340.37V308.528H1334.58V297.407Z" fill="#E6E8EA"/><path d="M1297.15 298.763H1291.28V290.988H1287.3V298.763H1281.42V379.954H1287.3V387.729H1291.28V379.954H1297.15V298.763Z" fill="#E6E8EA"/><path d="M1377.53 53.1128H1366.14V24H1358.27V53.1128H1346.88V413.859H1358.27V433.93H1366.14V413.859H1377.53V53.1128Z" fill="#03FC9D"/><path d="M402.799 727.861L402.257 751.911C402.257 755.799 404.879 759.777 410.304 763.845C440.411 786.539 539.232 800.462 630.548 794.857C711.196 789.884 748.265 772.886 748.537 759.144L749.079 735.094" fill="#03FC9D"/><path d="M402.799 727.861L402.257 751.911C402.257 755.799 404.879 759.777 410.304 763.845C440.411 786.539 539.232 800.462 630.548 794.857C711.196 789.884 748.265 772.886 748.537 759.144L749.079 735.094" stroke="#003B2F" stroke-width="3.12" stroke-linecap="round" stroke-linejoin="round"/><path d="M746.633 726.234C748.894 729.217 749.617 732.201 748.803 735.094C744.825 748.385 706.852 763.936 631.177 768.547C539.86 774.152 441.039 760.229 410.932 737.535C404.422 732.653 401.891 727.861 403.247 723.34C404.422 719.453 409.214 714.48 416.538 711.225C431.817 704.354 484.347 699.743 544.923 701.732C658.029 705.348 728.189 707.97 746.633 726.234Z" fill="#E6E8EA" stroke="#003B2F" stroke-width="3.12" stroke-miterlimit="10"/><path d="M429.014 693.595L428.472 717.644C428.472 721.532 431.094 725.51 436.518 729.579C466.626 752.272 565.447 766.196 656.763 760.59C737.411 755.618 774.48 738.62 774.751 724.877L775.294 700.828" fill="#03FC9D"/><path d="M429.014 693.595L428.472 717.644C428.472 721.532 431.094 725.51 436.518 729.579C466.626 752.272 565.447 766.196 656.763 760.59C737.411 755.618 774.48 738.62 774.751 724.877L775.294 700.828" stroke="#003B2F" stroke-width="3.12" stroke-linecap="round" stroke-linejoin="round"/><path d="M772.857 691.967C775.117 694.951 775.841 697.935 775.027 700.828C771.049 714.118 733.076 729.669 657.4 734.28C566.084 739.886 467.263 725.962 437.156 703.269C430.646 698.387 428.114 693.595 429.471 689.074C430.646 685.186 435.438 680.214 442.761 676.959C458.041 670.088 510.571 665.476 571.147 667.466C684.253 671.082 754.413 673.704 772.857 691.967Z" fill="#E6E8EA" stroke="#003B2F" stroke-width="3.12" stroke-miterlimit="10"/><path d="M363.739 648.208L363.196 672.257C363.196 676.145 365.818 680.123 371.243 684.192C401.35 706.885 500.171 720.809 591.488 715.203C672.136 710.231 709.205 693.233 709.476 679.49L710.019 655.441" fill="#03FC9D"/><path d="M363.739 648.208L363.196 672.257C363.196 676.145 365.818 680.123 371.243 684.192C401.35 706.885 500.171 720.809 591.488 715.203C672.136 710.231 709.205 693.233 709.476 679.49L710.019 655.441" stroke="#003B2F" stroke-width="3.12" stroke-linecap="round" stroke-linejoin="round"/><path d="M707.582 646.58C709.842 649.564 710.565 652.548 709.752 655.441C705.773 668.731 667.8 684.282 592.125 688.893C500.808 694.499 401.988 680.575 371.88 657.882C365.371 653 362.839 648.208 364.195 643.687C365.371 639.799 370.162 634.827 377.486 631.572C392.766 624.7 445.295 620.09 505.872 622.079C618.978 625.695 689.138 628.317 707.582 646.58Z" fill="#E6E8EA" stroke="#003B2F" stroke-width="3.12" stroke-miterlimit="10"/><path d="M401.802 611.771L401.26 635.821C401.26 639.709 403.882 643.687 409.307 647.756C439.414 670.449 538.235 684.373 629.551 678.767C710.199 673.794 747.268 656.797 747.539 643.054L748.082 619.004" fill="#03FC9D"/><path d="M401.802 611.771L401.26 635.821C401.26 639.709 403.882 643.687 409.307 647.756C439.414 670.449 538.235 684.373 629.551 678.767C710.199 673.794 747.268 656.797 747.539 643.054L748.082 619.004" stroke="#003B2F" stroke-width="3.12" stroke-linecap="round" stroke-linejoin="round"/><path d="M745.645 610.144C747.905 613.127 748.629 616.111 747.815 619.004C743.837 632.295 705.864 647.846 630.188 652.457C538.872 658.062 440.051 644.139 409.944 621.445C403.434 616.563 400.902 611.771 402.259 607.251C403.434 603.363 408.226 598.39 415.549 595.135C430.829 588.264 483.359 583.653 543.935 585.642C657.041 589.259 727.201 591.881 745.645 610.144Z" fill="#E6E8EA" stroke="#003B2F" stroke-width="3.12" stroke-miterlimit="10"/><path d="M404.697 546.946L401.533 570.724C400.99 574.521 403.251 578.861 408.223 583.472C435.618 609.33 532.269 634.013 623.586 638.533C704.234 642.512 742.93 629.673 744.648 616.021L747.813 592.242" fill="#03FC9D"/><path d="M404.697 546.946L401.533 570.724C400.99 574.521 403.251 578.861 408.223 583.472C435.618 609.33 532.269 634.013 623.586 638.533C704.234 642.512 742.93 629.673 744.648 616.021L747.813 592.242" stroke="#003B2F" stroke-width="3.12" stroke-linecap="round" stroke-linejoin="round"/><path d="M746.908 593.779C746.908 593.779 742.568 525.156 466.267 523.891C429.017 526.784 408.855 534.921 405.058 543.781C403.159 548.121 405.239 553.184 411.116 558.79C432.543 578.952 496.194 598.481 566.535 608.155C586.245 610.867 606.497 612.857 626.478 613.761C701.521 617.468 740.85 606.437 746.817 593.779" fill="#E6E8EA"/><path d="M746.908 593.779C746.908 593.779 742.568 525.156 466.267 523.891C429.017 526.784 408.855 534.921 405.058 543.781C403.159 548.121 405.239 553.184 411.116 558.79C432.543 578.952 496.194 598.481 566.535 608.155C586.245 610.867 606.497 612.857 626.478 613.761C701.521 617.468 740.85 606.437 746.817 593.779" stroke="#003B2F" stroke-width="3.12" stroke-miterlimit="10"/><path d="M465.185 465.303C465.185 465.303 467.083 454.906 467.083 454.815L463.015 476.062C458.675 498.394 470.881 522.805 497.552 544.595C554.422 591.157 659.029 611.591 730.726 590.072C735.789 588.535 740.491 586.908 745.011 585.009C737.869 579.404 730.364 573.165 722.77 566.384" fill="#03FC9D"/><path d="M465.185 465.303C465.185 465.303 467.083 454.906 467.083 454.815L463.015 476.062C458.675 498.394 470.881 522.805 497.552 544.595C554.422 591.157 659.029 611.591 730.726 590.072C735.789 588.535 740.491 586.908 745.011 585.009C737.869 579.404 730.364 573.165 722.77 566.384" stroke="#003B2F" stroke-width="3.12" stroke-linecap="round" stroke-linejoin="round"/><path d="M596.368 388.634C595.102 388.634 593.746 388.634 592.48 388.634C569.877 388.634 548.088 391.346 528.649 397.223C493.027 407.891 471.328 426.968 467.44 450.837V451.199C467.259 451.741 467.169 452.193 467.169 452.736C467.169 453.369 467.078 453.911 466.988 454.544V454.815V455.177C466.988 455.72 466.897 456.262 466.897 456.714C466.897 457.257 466.897 457.799 466.897 458.432V459.426C466.897 459.879 466.897 460.421 466.897 460.873C466.897 461.416 466.988 461.958 467.078 462.5V463.676C467.259 464.128 467.259 464.58 467.35 465.122C467.35 465.665 467.53 466.207 467.621 466.75L467.802 467.925C467.802 468.377 467.982 468.92 468.073 469.372C468.163 469.914 468.344 470.547 468.525 471.09L468.796 472.265C468.887 472.717 469.067 473.26 469.248 473.712C469.429 474.254 469.61 474.797 469.791 475.339L470.243 476.605C470.424 477.057 470.604 477.509 470.785 478.051C471.056 478.594 471.237 479.227 471.508 479.769L472.051 480.945C472.232 481.397 472.503 481.939 472.684 482.391C472.955 482.934 473.226 483.567 473.588 484.109L474.311 485.465C474.583 485.917 474.763 486.369 475.035 486.821C475.396 487.364 475.758 487.997 476.12 488.539L476.933 489.895C476.933 489.895 477.476 490.8 477.747 491.161C478.109 491.704 478.561 492.337 478.922 492.879L479.917 494.326C479.917 494.326 480.459 495.139 480.821 495.591C481.273 496.224 481.725 496.857 482.268 497.4L483.353 498.756C483.353 498.756 483.985 499.57 484.347 500.022C484.89 500.655 485.432 501.287 485.974 501.83L487.24 503.186C487.24 503.186 487.964 504 488.325 504.361C488.958 505.085 489.591 505.718 490.314 506.351L491.58 507.707C491.58 507.707 492.213 508.43 492.575 508.792C493.479 509.696 494.383 510.51 495.377 511.414L496.372 512.408C496.372 512.408 496.914 512.951 497.276 513.222C498.903 514.668 500.621 516.115 502.339 517.562C554.417 560.236 646.637 580.941 716.888 567.56C716.888 567.56 786.686 552.099 743.469 471.813C743.469 471.813 708.389 399.845 596.459 388.543L596.368 388.634Z" fill="#E6E8EA" stroke="#003B2F" stroke-width="3.12" stroke-miterlimit="10"/><path d="M612.461 437.095C598.899 424.708 585.337 426.426 572.408 432.845L554.958 414.672L545.827 420.639L562.824 438.27C560.474 439.807 558.033 441.525 555.682 443.152L538.594 425.341L529.462 431.308L546.912 449.481C545.013 450.837 543.114 452.103 541.216 453.369L528.648 461.506L539.95 473.26C539.95 473.26 546.55 468.739 546.55 468.92C550.257 466.479 553.964 468.287 556.405 470.366L576.205 490.98C576.205 490.98 576.838 490.619 577.2 490.438C576.929 490.619 576.567 490.89 576.205 491.071L603.962 520.003C605.137 521.54 606.584 524.162 604.052 525.88C604.324 525.88 597.452 530.219 597.452 530.219L608.302 544.595L620.146 536.819C622.316 535.373 624.576 534.017 626.746 532.66L644.376 551.014L653.508 545.047L636.058 526.874C638.59 525.337 641.031 523.71 643.382 522.173L660.741 540.255L669.873 534.288L652.333 516.025C666.618 504.994 672.856 493.331 657.396 474.977C645.009 460.24 633.527 457.528 622.406 460.692C624.576 454.002 622.406 446.045 612.37 437.004L612.461 437.095ZM637.415 484.652C650.615 498.394 629.73 509.425 623.582 513.493L600.255 489.172C606.403 485.104 623.672 470.366 637.415 484.652ZM600.255 453.098C612.19 465.574 594.65 474.616 589.586 478.051L568.43 455.991C573.583 452.645 587.778 440.078 600.255 453.098Z" fill="#003B2F"/><path d="M614.005 360.063L592.577 379.23C589.684 381.852 588.599 386.463 589.142 392.973C592.216 428.776 646.011 504.271 708.938 561.412C764.542 611.771 800.707 624.7 810.743 615.388L828.102 599.294" fill="#03FC9D"/><path d="M614.005 360.063L592.577 379.23C589.684 381.852 588.599 386.463 589.142 392.973C592.216 428.776 646.011 504.271 708.938 561.412C764.542 611.771 800.707 624.7 810.743 615.388L828.102 599.294" stroke="#003B2F" stroke-width="3.12" stroke-linecap="round" stroke-linejoin="round"/><path d="M610.02 374.439C613.094 410.242 666.889 485.736 729.817 542.877C781.442 589.711 817.065 604.448 829.451 598.3C833.881 596.13 835.78 590.976 835.057 583.111C831.983 547.307 778.187 471.813 715.26 414.672C663.635 367.838 628.012 353.101 615.626 359.249C611.195 361.419 609.297 366.573 610.02 374.439Z" fill="#E6E8EA" stroke="#003B2F" stroke-width="3.12" stroke-miterlimit="10"/><path d="M724.214 439.355C711.104 424.437 699.441 421.091 688.682 421.724L671.684 400.839L664.27 402.466L680.816 422.809C678.827 423.261 676.928 423.713 675.029 424.256L658.393 403.732L650.979 405.36L667.977 426.245C666.44 426.607 664.903 427.059 663.366 427.42L653.149 429.59L664.18 443.152C664.18 443.152 669.514 441.796 669.605 441.977C672.588 441.344 676.024 444.147 678.375 446.588L697.723 470.457C697.723 470.457 698.265 470.457 698.536 470.457C698.265 470.457 697.994 470.547 697.723 470.637L724.756 504C725.931 505.627 727.468 508.339 725.389 508.791C725.57 508.882 719.964 509.967 719.964 509.967L730.814 525.518L740.488 523.438C742.296 523.077 744.104 522.715 745.822 522.353L763.001 543.51L770.414 541.882L753.417 520.907C755.496 520.545 757.485 520.093 759.474 519.731L776.382 540.526L783.795 538.899L766.707 517.742C778.19 513.764 782.53 506.531 767.34 486.188C755.135 469.824 744.828 463.585 735.334 462.139C736.6 457.437 733.888 450.204 724.304 439.355H724.214ZM750.524 486.821C763.362 502.643 746.093 504.271 741.03 505.356L718.337 477.328C723.4 476.243 737.143 470.366 750.524 486.821ZM714.992 448.034C726.655 462.41 712.098 463.585 707.939 464.489L687.325 439.083C691.484 438.179 702.876 433.026 714.992 448.034Z" fill="#003B2F"/><path d="M829.453 267.481L798.894 272.092C746.816 282.308 712.731 343.608 717.794 417.746C723.58 502.101 778.189 573.165 839.489 576.149C845.999 576.42 852.418 575.968 858.566 574.793L879.271 570.905" fill="#03FC9D"/><path d="M829.453 267.481L798.894 272.092C746.816 282.308 712.731 343.608 717.794 417.746C723.58 502.101 778.189 573.165 839.489 576.149C845.999 576.42 852.418 575.968 858.566 574.793L879.271 570.905" stroke="#003B2F" stroke-width="3.12" stroke-linecap="round" stroke-linejoin="round"/><path d="M851.606 267.752C847.447 266.758 843.198 266.486 839.491 266.305C832.981 266.034 827.918 266.577 821.679 267.752C820.956 267.933 820.233 268.023 819.509 268.204C818.786 268.385 818.063 268.566 817.43 268.747L816.797 268.927C815.441 269.289 814.085 269.651 812.729 270.103L812.186 270.284C812.186 270.284 812.005 270.284 811.915 270.284C810.649 270.736 809.383 271.188 808.118 271.64L807.756 271.821C806.219 272.454 804.863 272.996 803.597 273.629H803.416C802.15 274.352 800.794 274.985 799.528 275.708L799.348 275.799H799.167C797.901 276.613 796.726 277.336 795.46 278.059L794.827 278.421C793.652 279.144 792.476 279.958 791.301 280.771L790.849 281.043C789.493 282.037 788.317 282.851 787.232 283.755L786.78 284.117C785.605 285.021 784.429 286.015 783.344 287.01C782.169 288.095 780.994 289.18 779.909 290.174L779.457 290.626C778.372 291.711 777.377 292.706 776.383 293.791L775.84 294.333C774.846 295.418 773.851 296.594 772.857 297.679L772.405 298.221C771.41 299.396 770.416 300.662 769.511 301.928L769.24 302.29C768.336 303.555 767.342 304.821 766.437 306.087L766.257 306.449C765.352 307.805 764.448 309.161 763.635 310.517L763.183 311.15C762.369 312.506 761.555 313.862 760.741 315.219L760.289 315.942C759.476 317.389 758.752 318.745 757.939 320.282L757.577 320.915C756.763 322.452 756.04 323.989 755.317 325.616C754.503 327.334 753.87 328.961 753.147 330.589L752.876 331.131C752.243 332.668 751.61 334.296 750.977 335.923L750.706 336.556C750.073 338.364 749.53 339.992 748.988 341.619L748.807 342.252V342.433C748.174 344.151 747.632 345.868 747.18 347.586L746.999 348.219C746.547 349.937 746.004 351.745 745.552 353.554V353.825C745.01 355.633 744.648 357.532 744.196 359.34L744.015 360.154C743.653 361.962 743.292 363.77 743.021 365.578L742.84 366.573C742.569 368.381 742.207 370.28 742.026 372.088V372.902C741.664 374.891 741.393 376.88 741.212 378.869V379.321C740.941 381.22 740.851 383.209 740.67 385.198V385.74C740.489 387.729 740.399 389.719 740.308 391.708V392.702C740.308 394.691 740.218 396.68 740.218 398.669V399.754C740.218 401.743 740.218 403.823 740.308 405.812V406.626C740.399 408.796 740.489 410.965 740.67 413.135C746.456 497.49 801.065 568.554 862.365 571.538C863.902 571.538 865.349 571.628 866.795 571.538H867.519C868.965 571.538 870.321 571.538 871.678 571.357H872.491C873.847 571.176 875.294 571.086 876.65 570.905H876.921C876.921 570.905 877.102 570.905 877.193 570.905C878.549 570.724 879.905 570.453 881.261 570.272C881.442 570.272 881.532 570.272 881.713 570.272C903.412 565.932 929.632 544.776 939.577 525.066C958.654 487.274 970.408 295.057 851.606 267.662V267.752Z" fill="#E6E8EA" stroke="#003B2F" stroke-width="3.12" stroke-miterlimit="10"/><path d="M898.258 388.272C892.562 366.935 874.209 361.871 852.238 362.595L846.994 332.668L830.268 334.748L835.331 363.861C830.901 364.403 826.471 365.126 821.95 365.759L816.797 336.466L800.07 338.545L805.314 368.381C801.698 368.924 798.172 369.466 794.646 369.918L771.5 372.721L774.936 392.16C774.936 392.16 787.232 390.351 787.141 390.623C793.922 389.809 796.906 393.787 798.172 397.404L804.139 431.489C804.591 431.489 805.224 431.399 805.947 431.399C805.405 431.399 804.772 431.579 804.139 431.67L812.457 479.408C812.547 481.758 811.914 485.646 807.213 486.189C807.484 486.369 795.007 487.726 795.007 487.726L795.459 509.877L817.249 507.164C821.317 506.622 825.295 506.26 829.274 505.718L834.608 535.915L851.334 533.836L846.09 503.909C850.701 503.457 855.132 502.915 859.471 502.372L864.715 532.118L881.442 530.039L876.198 499.841C904.045 494.507 922.398 484.29 919.867 455.268C917.787 431.851 905.943 422.809 889.217 420.73C897.987 414.13 902.417 403.913 898.258 388.272ZM886.143 455.9C890.121 478.504 854.047 480.402 842.655 481.849L835.693 441.796C847.085 440.349 882.074 432.303 886.143 455.9ZM868.422 400.387C872.039 420.911 841.931 422.267 832.438 423.533L826.109 387.187C835.602 386.012 864.715 378.959 868.422 400.387Z" fill="#003B2F"/><path d="M815.348 303.917L803.594 319.468C791.931 334.386 786.777 354.096 788.586 376.518C794.372 447.13 867.154 526.241 950.876 553.003C1004.13 570.001 1051.78 561.954 1075.37 531.847L1085.95 517.29C1085.95 517.29 1077.72 528.682 1077.72 528.773" fill="#03FC9D"/><path d="M815.348 303.917L803.594 319.468C791.931 334.386 786.777 354.096 788.586 376.518C794.372 447.13 867.154 526.241 950.876 553.003C1004.13 570.001 1051.78 561.954 1075.37 531.847L1085.95 517.29C1085.95 517.29 1077.72 528.682 1077.72 528.773" stroke="#003B2F" stroke-width="3.12" stroke-linecap="round" stroke-linejoin="round"/><path d="M863.089 274.895C860.106 274.895 852.511 276.884 849.708 277.969C835.423 283.393 823.67 292.073 815.352 303.917C814.448 305.183 813.724 306.358 812.73 307.895L812.097 308.89C811.193 310.427 810.56 311.692 809.927 312.868C809.294 314.224 808.661 315.58 807.938 317.298L807.486 318.383C806.853 320.101 806.311 321.457 805.858 322.813C805.406 324.26 804.954 325.797 804.502 327.605L804.231 328.78C803.779 330.589 803.508 332.216 803.236 333.663C802.965 335.2 802.694 336.827 802.513 338.907L802.332 340.172C802.152 342.161 802.061 343.879 801.971 345.507C801.971 345.507 801.971 345.507 801.971 345.597C801.971 347.405 801.971 349.214 801.971 351.022V352.468C801.971 354.367 802.152 356.266 802.332 358.255C808.119 428.867 880.901 507.978 964.623 534.74C966.973 535.463 969.234 536.187 971.584 536.819L973.302 537.272C975.563 537.904 977.823 538.447 980.083 538.989C980.083 538.989 980.174 538.989 980.264 538.989C982.434 539.532 984.604 539.984 986.864 540.346L988.492 540.707C990.662 541.159 992.831 541.521 995.001 541.792C997.171 542.063 999.251 542.335 1001.33 542.606L1002.87 542.787C1004.95 542.967 1007.03 543.148 1009.11 543.329C1011.19 543.42 1013.17 543.51 1015.25 543.51H1016.79C1018.78 543.51 1020.68 543.51 1022.67 543.51C1024.66 543.51 1026.56 543.329 1028.45 543.148H1029.9C1031.71 542.877 1033.61 542.606 1035.42 542.335C1037.31 542.063 1039.12 541.702 1040.84 541.43L1042.11 541.159C1043.82 540.798 1045.54 540.436 1047.17 539.984C1048.89 539.532 1050.6 538.989 1052.14 538.537L1053.32 538.176C1054.85 537.633 1056.48 537.091 1058.02 536.458C1059.65 535.825 1061.18 535.102 1062.63 534.469L1063.71 533.926C1065.16 533.203 1066.52 532.48 1067.96 531.756C1069.32 531.033 1070.59 530.219 1072.12 529.225C1072.48 529.044 1072.76 528.773 1073.12 528.592C1074.38 527.688 1075.65 526.874 1076.82 525.88C1078 524.975 1079.08 524.071 1080.44 522.896L1081.25 522.173C1082.34 521.178 1083.42 520.093 1084.51 519.008C1085.5 517.923 1086.5 516.838 1087.67 515.482L1088.4 514.578C1100.6 499.569 1106.03 479.498 1104.13 456.624C1103.04 443.785 1099.79 430.585 1094.64 417.565C1094.64 417.565 1041.29 277.878 863.27 274.985L863.089 274.895Z" fill="#E6E8EA" stroke="#003B2F" stroke-width="3.12" stroke-miterlimit="10"/><path d="M981.438 348.4C968.057 329.142 949.341 328.961 929.631 335.29L913.447 307.624L898.981 314.043L914.804 340.986C911.006 342.704 907.209 344.512 903.321 346.23L887.409 319.106L872.943 325.526L889.126 353.192C886.052 354.638 882.978 356.085 879.995 357.441L860.014 366.121L870.592 384.113C870.592 384.113 881.17 379.14 881.08 379.502C886.957 376.88 891.206 380.044 893.738 383.209L912.182 414.763C912.182 414.763 913.176 414.401 913.809 414.22C913.357 414.401 912.815 414.672 912.272 414.944L938.13 459.155C939.125 461.416 940.029 465.303 935.96 467.111C936.231 467.202 925.472 471.723 925.472 471.723L934.423 493.15L953.229 484.832C956.755 483.295 960.191 481.849 963.626 480.402L980.081 508.43L994.547 502.011L978.273 474.254C982.342 472.627 986.139 470.909 989.936 469.281L1006.12 496.857L1020.59 490.438L1004.22 462.5C1027.55 450.114 1040.39 435.467 1026.92 407.891C1016.07 385.74 1001.78 379.954 985.777 382.214C991.202 373.535 991.383 362.414 981.528 348.4H981.438ZM996.265 417.294C1008.56 438.27 976.375 449.481 966.61 453.821L944.821 416.661C954.585 412.322 983.427 395.505 996.265 417.294ZM958.834 367.929C969.955 387.006 943.012 396.138 934.875 399.664L915.165 366.03C923.302 362.414 947.171 348.038 958.834 367.929Z" fill="#003B2F"/><path d="M860.464 239.182C860.464 239.182 860.374 238.458 860.283 238.187L853.683 254.913C853.683 254.913 853.412 255.637 853.231 256.089C841.297 291.35 905.941 350.57 997.348 388.181C1086.95 425.07 1170.76 427.601 1184.05 393.787L1191.92 373.806" fill="#03FC9D"/><path d="M860.464 239.182C860.464 239.182 860.374 238.458 860.283 238.187L853.683 254.913C853.683 254.913 853.412 255.637 853.231 256.089C841.297 291.35 905.941 350.57 997.348 388.181C1086.95 425.07 1170.76 427.601 1184.05 393.787L1191.92 373.806" stroke="#003B2F" stroke-width="3.12" stroke-linecap="round" stroke-linejoin="round"/><path d="M1049.34 381.762C1051.78 382.485 1054.13 383.118 1056.57 383.751C1063.81 385.65 1071.04 387.367 1078 388.814C1080.44 389.356 1082.61 389.718 1084.87 390.17H1085.14C1087.4 390.622 1089.57 390.984 1091.74 391.346C1098.52 392.43 1105.03 393.335 1111.27 393.967C1113.44 394.148 1115.43 394.329 1117.33 394.51H1117.78C1119.68 394.691 1121.58 394.781 1123.39 394.872H1123.75C1125.65 394.962 1127.46 395.052 1129.35 395.052C1130.35 395.052 1131.25 395.052 1132.25 395.052C1135.05 395.052 1137.76 395.052 1140.38 394.872H1140.66C1142.28 394.872 1143.91 394.691 1145.54 394.6H1146.08C1147.62 394.42 1149.15 394.329 1150.6 394.148H1151.14C1152.68 393.877 1154.13 393.696 1155.57 393.515H1155.94C1158.92 392.973 1161.72 392.43 1164.43 391.798H1164.71C1165.43 391.526 1166.06 391.346 1166.79 391.165C1167.33 390.984 1167.87 390.893 1168.41 390.713L1168.86 390.532C1170.04 390.17 1171.13 389.809 1172.21 389.356L1172.66 389.176C1173.75 388.724 1174.74 388.362 1175.74 387.91L1176.1 387.729C1177.09 387.277 1178.09 386.734 1178.99 386.282C1180.08 385.65 1180.98 385.107 1181.79 384.565L1181.97 384.474C1182.79 383.932 1183.6 383.389 1184.33 382.756L1184.69 382.485C1185.41 381.943 1186.04 381.31 1186.68 380.677L1187.04 380.315C1187.67 379.682 1188.21 379.049 1188.76 378.417L1189.03 378.055C1189.39 377.603 1189.66 377.241 1190.02 376.789C1190.2 376.518 1190.38 376.247 1190.56 375.975V375.795C1191.2 375.071 1191.56 374.258 1192.01 373.534C1192.28 373.082 1192.46 372.63 1192.64 372.178C1192.82 371.726 1193 371.274 1193.19 370.912C1205.21 336.646 1140.2 278.963 1048.44 242.346C979.089 214.68 910.556 206.181 877.827 221.008C868.786 225.077 862.999 230.863 860.468 238.006C860.287 238.639 860.016 239.272 859.925 239.905V240.447C859.654 240.99 859.564 241.532 859.473 242.075V242.346C859.293 243.25 859.202 243.883 859.202 244.606V245.058C859.202 245.601 859.202 246.143 859.202 246.776V247.318C859.202 248.042 859.202 248.765 859.383 249.488C859.473 250.302 859.564 251.025 859.745 251.749V252.382C860.016 253.014 860.106 253.647 860.287 254.371V254.732C860.558 255.546 860.83 256.269 861.01 257.083L861.191 257.626C861.372 258.258 861.643 258.891 861.914 259.524L862.095 260.157C862.457 260.971 862.728 261.784 863.09 262.598V262.869C863.542 263.593 863.904 264.406 864.265 265.13L864.627 265.763C864.989 266.576 865.441 267.3 865.893 268.113L866.073 268.385C866.526 269.289 867.068 270.102 867.61 271.007L867.972 271.639C868.424 272.363 868.876 273.086 869.419 273.809L869.78 274.352C870.413 275.256 871.046 276.16 871.679 277.064L871.95 277.426C872.493 278.24 873.126 279.053 873.758 279.777L874.211 280.409C875.657 282.218 877.194 284.116 878.822 285.925L879.364 286.467C880.087 287.281 880.811 288.095 881.534 288.908L881.896 289.36C882.8 290.355 883.704 291.259 884.608 292.253L884.879 292.525C885.783 293.429 886.688 294.333 887.501 295.147L888.134 295.689C890.123 297.588 892.203 299.486 894.282 301.385L894.915 301.928C895.91 302.832 896.904 303.645 897.899 304.55L898.079 304.73C899.436 305.815 900.521 306.81 901.786 307.804L902.238 308.166C903.323 308.98 904.318 309.884 905.403 310.698L906.036 311.15C908.477 313.048 911.008 315.037 913.63 316.936L914.354 317.479C915.62 318.383 916.885 319.287 918.151 320.191C918.151 320.191 918.332 320.281 918.332 320.372C919.688 321.366 921.044 322.27 922.491 323.265L923.033 323.627C924.299 324.44 925.565 325.344 926.831 326.158L927.464 326.61C928.91 327.605 930.447 328.509 931.894 329.503C944.19 337.279 957.48 344.783 971.494 351.654L972.851 352.287C980.445 355.994 988.402 359.611 996.358 362.956C999.341 364.222 1002.42 365.488 1005.49 366.753C1007.03 367.386 1008.65 368.019 1010.19 368.562C1018.24 371.726 1026.47 374.619 1034.51 377.241C1037.04 378.055 1039.48 378.869 1041.93 379.592C1044.55 380.406 1046.9 381.129 1049.34 381.762Z" fill="#E6E8EA"/><path d="M1049.34 381.762C1051.78 382.485 1054.13 383.118 1056.57 383.751C1063.81 385.65 1071.04 387.367 1078 388.814C1080.44 389.356 1082.61 389.718 1084.87 390.17H1085.14C1087.4 390.622 1089.57 390.984 1091.74 391.346C1098.52 392.43 1105.03 393.335 1111.27 393.967C1113.44 394.148 1115.43 394.329 1117.33 394.51H1117.78C1119.68 394.691 1121.58 394.781 1123.39 394.872H1123.75C1125.65 394.962 1127.46 395.052 1129.35 395.052C1130.35 395.052 1131.25 395.052 1132.25 395.052C1135.05 395.052 1137.76 395.052 1140.38 394.872H1140.66C1142.28 394.872 1143.91 394.691 1145.54 394.6H1146.08C1147.62 394.42 1149.15 394.329 1150.6 394.148H1151.14C1152.68 393.877 1154.13 393.696 1155.57 393.515H1155.94C1158.92 392.973 1161.72 392.43 1164.43 391.798H1164.71C1165.43 391.526 1166.06 391.346 1166.79 391.165C1167.33 390.984 1167.87 390.893 1168.41 390.713L1168.86 390.532C1170.04 390.17 1171.13 389.809 1172.21 389.356L1172.66 389.176C1173.75 388.724 1174.74 388.362 1175.74 387.91L1176.1 387.729C1177.09 387.277 1178.09 386.734 1178.99 386.282C1180.08 385.65 1180.98 385.107 1181.79 384.565L1181.97 384.474C1182.79 383.932 1183.6 383.389 1184.33 382.756L1184.69 382.485C1185.41 381.943 1186.04 381.31 1186.68 380.677L1187.04 380.315C1187.67 379.682 1188.21 379.049 1188.76 378.417L1189.03 378.055C1189.39 377.603 1189.66 377.241 1190.02 376.789C1190.2 376.518 1190.38 376.247 1190.56 375.975V375.795C1191.2 375.071 1191.56 374.258 1192.01 373.534C1192.28 373.082 1192.46 372.63 1192.64 372.178C1192.82 371.726 1193 371.274 1193.19 370.912C1205.21 336.646 1140.2 278.963 1048.44 242.346C979.089 214.68 910.556 206.181 877.827 221.008C868.786 225.077 862.999 230.863 860.468 238.006C860.287 238.639 860.016 239.272 859.925 239.905V240.447C859.654 240.99 859.564 241.532 859.473 242.075V242.346C859.293 243.25 859.202 243.883 859.202 244.606V245.058C859.202 245.601 859.202 246.143 859.202 246.776V247.318C859.202 248.042 859.202 248.765 859.383 249.488C859.473 250.302 859.564 251.025 859.745 251.749V252.382C860.016 253.014 860.106 253.647 860.287 254.371V254.732C860.558 255.546 860.83 256.269 861.01 257.083L861.191 257.626C861.372 258.258 861.643 258.891 861.914 259.524L862.095 260.157C862.457 260.971 862.728 261.784 863.09 262.598V262.869C863.542 263.593 863.904 264.406 864.265 265.13L864.627 265.763C864.989 266.576 865.441 267.3 865.893 268.113L866.073 268.385C866.526 269.289 867.068 270.102 867.61 271.007L867.972 271.639C868.424 272.363 868.876 273.086 869.419 273.809L869.78 274.352C870.413 275.256 871.046 276.16 871.679 277.064L871.95 277.426C872.493 278.24 873.126 279.053 873.758 279.777L874.211 280.409C875.657 282.218 877.194 284.116 878.822 285.925L879.364 286.467C880.087 287.281 880.811 288.095 881.534 288.908L881.896 289.36C882.8 290.355 883.704 291.259 884.608 292.253L884.879 292.525C885.783 293.429 886.688 294.333 887.501 295.147L888.134 295.689C890.123 297.588 892.203 299.486 894.282 301.385L894.915 301.928C895.91 302.832 896.904 303.645 897.899 304.55L898.079 304.73C899.436 305.815 900.521 306.81 901.786 307.804L902.238 308.166C903.323 308.98 904.318 309.884 905.403 310.698L906.036 311.15C908.477 313.048 911.008 315.037 913.63 316.936L914.354 317.479C915.62 318.383 916.885 319.287 918.151 320.191C918.151 320.191 918.332 320.281 918.332 320.372C919.688 321.366 921.044 322.27 922.491 323.265L923.033 323.627C924.299 324.44 925.565 325.344 926.831 326.158L927.464 326.61C928.91 327.605 930.447 328.509 931.894 329.503C944.19 337.279 957.48 344.783 971.494 351.654L972.851 352.287C980.445 355.994 988.402 359.611 996.358 362.956C999.341 364.222 1002.42 365.488 1005.49 366.753C1007.03 367.386 1008.65 368.019 1010.19 368.562C1018.24 371.726 1026.47 374.619 1034.51 377.241C1037.04 378.055 1039.48 378.869 1041.93 379.592C1044.55 380.406 1046.9 381.129 1049.34 381.762ZM1049.34 381.762H1049.61" stroke="#003B2F" stroke-width="3.12" stroke-miterlimit="10"/><path d="M1102.68 315.58C1109.28 307.262 1094.82 296.413 1073.66 285.021L1085.5 274.804L1068.51 266.577L1057.02 276.522C1052.59 274.352 1047.98 272.182 1043.37 270.012L1054.94 259.977L1037.95 251.749L1026.1 261.966C1022.4 260.157 1018.78 258.44 1015.25 256.722L991.836 245.33L984.151 251.93C984.151 251.93 996.809 257.988 996.447 257.897C1003.32 261.242 1003.86 263.774 1003.05 265.401L989.576 277.065C990.028 277.336 990.661 277.607 991.294 277.969C990.751 277.698 990.118 277.426 989.486 277.065L970.589 293.339C969.414 293.972 966.611 294.605 961.819 292.254C961.91 292.435 949.523 286.287 949.523 286.287L937.589 292.073L959.649 302.832C963.718 304.821 967.787 306.81 971.765 308.799L959.83 319.106L976.737 327.334L988.581 317.117C993.193 319.378 997.713 321.638 1002.05 323.808L990.299 333.934L1007.3 342.162L1019.23 331.855C1048.43 345.145 1071.49 352.197 1085.32 343.608C1096.44 336.737 1090.39 328.238 1075.83 318.926C1087.76 321.909 1097.71 321.638 1102.5 315.58H1102.68ZM1053.41 326.068C1044.46 333.753 1009.47 315.309 997.894 309.704L1013.72 296.051C1025.2 301.657 1062.63 318.021 1053.32 326.068H1053.41ZM1067.87 302.923C1059.74 309.975 1030.62 294.424 1021.04 289.813L1035.42 277.426C1045 282.128 1076.37 295.599 1067.87 302.923Z" fill="#003B2F"/></g><defs><clipPath id="clip0_182_536"><rect width="1675.05" height="857" fill="white"/></clipPath></defs></svg>