<svg width="1676" height="857" viewBox="0 0 1676 857" fill="none" xmlns="http://www.w3.org/2000/svg"><path d="M510.414 465.39L530.497 477.048" stroke="#003B2F" stroke-width="3" stroke-linecap="round" stroke-linejoin="round"/><path d="M550.578 465.39L538.835 472.197" stroke="#003B2F" stroke-width="3" stroke-linecap="round" stroke-linejoin="round"/><path d="M530.496 477.048V500.449" stroke="#003B2F" stroke-width="3" stroke-linecap="round" stroke-linejoin="round"/><path d="M637.548 83.3895L645.718 100.834" stroke="#003B2F" stroke-width="3" stroke-linecap="round" stroke-linejoin="round"/><path d="M651.676 113.514L659.845 130.959" stroke="#003B2F" stroke-width="3" stroke-linecap="round" stroke-linejoin="round"/><path d="M624.954 118.279L642.399 110.11" stroke="#003B2F" stroke-width="3" stroke-linecap="round" stroke-linejoin="round"/><path d="M655.079 104.153L672.524 95.9839" stroke="#003B2F" stroke-width="3" stroke-linecap="round" stroke-linejoin="round"/><path d="M246.443 765.696H410" stroke="#003B2F" stroke-width="3" stroke-linecap="round" stroke-linejoin="round"/><path d="M203.812 765.696H217.938" stroke="#003B2F" stroke-width="3" stroke-linecap="round" stroke-linejoin="round"/><path d="M327.373 720.595H472.973" stroke="#03FC9D" stroke-width="3" stroke-linecap="round" stroke-linejoin="round"/><path d="M1181.4 694.555H1283.35C1294.58 694.555 1303.69 703.661 1303.69 714.893C1303.69 726.126 1294.58 735.231 1283.35 735.231H1181.4C1170.17 735.231 1161.06 726.126 1161.06 714.893C1161.06 703.661 1170.17 694.555 1181.4 694.555Z" fill="#E6E8EA"/><path d="M1314.32 670.132H1482.99C1501.54 670.132 1516.6 685.195 1516.6 703.746C1516.6 722.297 1501.54 737.359 1482.99 737.359H1314.32C1295.69 737.359 1280.71 722.297 1280.71 703.746C1280.71 685.195 1295.77 670.132 1314.32 670.132Z" fill="#E6E8EA"/><path d="M1244.89 700.002H1432.53C1453.2 700.002 1469.97 716.766 1469.97 737.444C1469.97 758.123 1453.2 774.887 1432.53 774.887H1244.89C1224.21 774.887 1207.44 758.123 1207.44 737.444C1207.44 716.766 1224.21 700.002 1244.89 700.002Z" fill="#E6E8EA"/><path d="M1112.39 518.575H1142.09" stroke="#003B2F" stroke-width="3" stroke-linecap="round" stroke-linejoin="round"/><path d="M1220.29 486.068H1365.21" stroke="#03FC9D" stroke-width="3" stroke-linecap="round" stroke-linejoin="round"/><path d="M1180.3 518.405H1300.37" stroke="#003B2F" stroke-width="3" stroke-linecap="round" stroke-linejoin="round"/><path d="M402.512 431.776H361.155C374.26 431.776 384.897 422.16 384.897 410.247C384.897 398.333 374.26 388.717 361.155 388.717H242.36C229.255 388.717 218.618 398.333 218.618 410.247H182.196C169.091 410.247 158.454 419.863 158.454 431.776C158.454 443.69 169.091 453.306 182.196 453.306H260.06C260.06 465.219 270.697 474.835 283.802 474.835H402.597C415.702 474.835 426.339 465.219 426.339 453.306C426.339 441.392 415.702 431.776 402.597 431.776H402.512Z" fill="#03FC9D"/><path d="M1396.36 133.937L1404.53 151.382" stroke="#003B2F" stroke-width="3" stroke-linecap="round" stroke-linejoin="round"/><path d="M1410.49 164.061L1418.66 181.506" stroke="#003B2F" stroke-width="3" stroke-linecap="round" stroke-linejoin="round"/><path d="M1383.77 168.912L1401.13 160.743" stroke="#003B2F" stroke-width="3" stroke-linecap="round" stroke-linejoin="round"/><path d="M1413.89 154.701L1431.25 146.531" stroke="#003B2F" stroke-width="3" stroke-linecap="round" stroke-linejoin="round"/><path d="M408.807 308.556C390.426 328.724 332.22 305.152 279.034 256.051C225.849 206.95 197.852 150.956 216.318 130.959L239.379 106.876C235.55 111.301 233.593 117.003 233.678 123.896C233.593 150.361 259.973 193.675 302.181 232.735C343.623 271.113 388.129 293.919 414.594 292.643C422.082 292.217 428.294 289.92 432.549 285.41L408.892 308.726L408.807 308.556Z" fill="#8F9F99"/><path d="M432.466 285.324C428.296 289.92 422.169 292.132 414.51 292.558C387.96 293.834 343.454 270.943 302.097 232.649C259.889 193.76 233.509 150.276 233.594 123.81C233.509 117.003 235.296 111.216 239.296 106.791C257.932 86.538 316.308 110.28 369.749 159.551C423.105 208.737 451.187 264.986 432.551 285.154H432.381L432.466 285.324Z" fill="#03FC9D" stroke="#003B2F" stroke-width="3" stroke-linecap="round" stroke-linejoin="round"/><path d="M432.465 285.325L408.808 308.641C390.427 328.809 332.221 305.237 279.035 256.136C225.85 207.035 197.768 151.042 216.234 131.044L239.295 106.961" stroke="#003B2F" stroke-width="3" stroke-linecap="round" stroke-linejoin="round"/><path d="M432.466 285.324C428.296 289.92 422.169 292.132 414.51 292.558C387.96 293.834 343.454 270.943 302.097 232.649C259.889 193.76 233.509 150.276 233.594 123.81C233.509 117.003 235.296 111.216 239.296 106.791C257.932 86.538 316.308 110.28 369.749 159.551C423.105 208.737 451.187 264.986 432.551 285.154H432.381L432.466 285.324Z" stroke="#003B2F" stroke-width="3" stroke-linecap="round" stroke-linejoin="round"/><path d="M414.426 292.387C387.876 293.664 343.455 270.858 301.928 232.564C259.72 193.675 233.255 150.191 233.51 123.725C233.51 116.833 235.297 111.046 239.212 106.706C257.848 86.453 316.224 110.025 369.58 159.381C422.936 208.652 451.103 264.986 432.467 285.154C428.297 289.749 422.17 291.962 414.596 292.302H414.426V292.387Z" stroke="#003B2F" stroke-width="3" stroke-linecap="round" stroke-linejoin="round"/><path d="M244.741 133.682C243.975 130.108 243.465 126.789 243.465 123.896C243.38 119.215 244.401 115.896 246.613 113.599C252.315 107.472 268.058 108.493 287.715 116.407C311.202 125.938 337.922 143.808 362.856 166.869C396.469 197.93 421.062 233.075 426.934 258.604C428.125 263.965 429.572 273.666 425.061 278.517C422.849 280.899 419.19 282.261 414.084 282.431C389.831 283.622 346.602 260.051 308.904 225.246C275.376 194.356 250.783 159.211 244.826 133.682H244.741Z" stroke="#003B2F" stroke-width="3" stroke-linecap="round" stroke-linejoin="round"/><path d="M333.156 178.953C339.623 185.166 342.942 192.314 340.474 194.867L352.218 206.184C357.068 201.079 350.516 186.867 337.496 174.358C324.476 161.849 310.009 155.892 305.159 160.998C303.542 162.7 303.202 165.338 303.883 168.657C305.244 175.294 311.116 184.485 319.796 192.824L378.598 249.329L393.149 255.37L394.766 256.051L324.221 188.314C317.753 182.102 314.435 174.954 316.902 172.401C319.37 169.848 326.603 172.826 333.071 179.039L333.156 178.953Z" fill="#003B2F"/><path d="M281.674 138.362C278.44 141.681 277.76 147.042 279.121 153.594C280.057 157.764 281.759 162.445 284.312 167.465C289.843 178.273 299.119 190.526 311.033 201.929L346.348 235.798L362.516 242.436L315.458 197.249C304.991 187.208 297.332 176.4 293.588 167.38C291.801 163.125 290.95 159.296 291.035 156.062C291.035 153.339 291.886 151.127 293.417 149.51C300.736 141.851 322.521 150.871 341.923 169.593C361.325 188.314 371.281 209.673 363.963 217.247L375.706 228.565C385.492 218.353 372.302 189.931 346.348 164.912C320.393 139.894 291.375 127.98 281.589 138.107L281.674 138.362Z" fill="#003B2F"/><path d="M335.711 645.199C300.736 667.58 265.421 677.111 249.082 669.792C246.104 668.516 243.721 666.559 242.104 664.091C231.807 648.007 256.911 613.458 298.268 586.908C339.625 560.443 381.493 551.848 391.875 568.016L392.981 570.144C394.087 572.782 394.428 575.93 394.002 579.419C391.79 597.375 368.984 623.755 335.796 645.199H335.711Z" fill="#03FC9D" stroke="#003B2F" stroke-width="3" stroke-linecap="round" stroke-linejoin="round"/><path d="M392.982 570.144L400.896 585.121C411.193 601.204 386.089 635.753 344.732 662.219C303.375 688.769 261.508 697.193 251.126 681.11L250.019 678.983L242.105 664.006C243.722 666.559 246.105 668.431 249.083 669.707C265.422 677.025 300.737 667.495 335.712 645.114C368.985 623.67 391.706 597.29 393.918 579.334C394.429 575.845 394.089 572.697 392.897 570.059L392.982 570.144Z" fill="#8F9F99"/><path d="M392.982 570.144L400.896 585.121C411.193 601.204 386.089 635.754 344.732 662.219C303.375 688.769 261.508 697.194 251.126 681.11L250.019 678.983L242.105 664.006" stroke="#003B2F" stroke-width="3" stroke-linecap="round" stroke-linejoin="round"/><path d="M392.98 570.144C394.086 572.782 394.427 575.93 394.001 579.419C391.789 597.375 368.983 623.755 335.795 645.199C300.82 667.58 265.505 677.111 249.166 669.792C246.188 668.516 243.805 666.559 242.188 664.091" stroke="#003B2F" stroke-width="3" stroke-linecap="round" stroke-linejoin="round"/><path d="M249.082 669.792C246.104 668.516 243.721 666.644 242.104 664.091C231.807 648.007 256.911 613.458 298.268 586.908C339.625 560.443 381.493 551.933 391.875 568.016L392.981 570.144C394.087 572.867 394.513 576.015 394.002 579.504C391.704 597.375 368.984 623.84 335.796 645.199C300.821 667.665 265.506 677.11 249.167 669.792H249.082Z" stroke="#003B2F" stroke-width="3" stroke-linecap="round" stroke-linejoin="round"/><path d="M246.616 656.517C245.68 643.327 264.741 616.522 301.929 592.61C321.161 580.27 341.158 571.505 358.007 568.102C372.134 565.208 382.941 566.655 386.175 571.676L386.94 573.207C386.94 573.207 387.281 574.569 387.366 575.505C387.366 576.356 387.366 577.377 387.196 578.313C385.494 591.759 367.538 616.437 331.968 639.328C296.227 662.304 263.975 668.941 251.721 663.495C249.764 662.644 248.573 661.708 247.722 660.432C246.956 659.24 246.616 658.049 246.531 656.432L246.616 656.517Z" stroke="#003B2F" stroke-width="3" stroke-linecap="round" stroke-linejoin="round"/><path d="M328.478 614.905C323.883 618.053 318.947 618.819 317.415 616.607L309.076 622.308C312.139 626.818 322.096 625.287 331.286 618.904C340.477 612.522 345.412 603.842 342.349 599.332C341.328 597.885 339.541 597.034 337.328 596.864C332.818 596.439 326.266 598.481 320.139 602.736L278.611 631.414L273.676 640.179L273.165 641.115L323.032 606.736C327.627 603.587 332.563 602.821 334.094 605.034C335.626 607.246 333.158 611.671 328.563 614.82L328.478 614.905Z" fill="#003B2F"/><path d="M358.941 587.844C356.898 584.866 353.409 583.249 348.899 582.823C346.006 582.568 342.772 582.823 339.283 583.504C331.71 585.036 322.945 588.78 314.52 594.652L289.587 611.841L284.055 621.627L317.328 598.736C324.732 593.63 332.39 590.652 338.688 589.971C341.666 589.631 344.219 589.886 346.431 590.652C348.218 591.248 349.665 592.269 350.601 593.716C355.196 600.438 347.793 613.543 334.007 623.074C320.222 632.605 305.33 634.817 300.734 628.095L292.395 633.796C298.522 642.731 318.435 639.753 336.815 627.074C355.196 614.394 365.068 596.864 358.941 587.929V587.844Z" fill="#003B2F"/><path d="M1493.03 445.136C1481.45 470.495 1417.54 465.73 1350.49 434.67C1283.52 403.609 1238.76 357.912 1250.41 332.723L1265.22 302.089C1262.84 307.535 1262.75 313.662 1264.97 320.384C1273.14 346.084 1312.36 379.952 1365.47 404.715C1417.71 428.968 1468.09 437.308 1493.45 427.777C1500.6 424.969 1505.88 420.884 1508.6 415.182L1492.86 445.307L1493.03 445.136Z" fill="#8F9F99"/><path d="M1508.68 415.097C1506.05 420.884 1500.77 424.968 1493.54 427.691C1468.18 437.222 1417.8 428.883 1365.55 404.63C1312.37 380.037 1273.22 346.084 1265.05 320.299C1262.84 313.662 1262.84 307.535 1265.31 302.003C1277.13 276.474 1341.21 281.325 1408.52 312.555C1475.75 343.701 1520.6 389.568 1508.85 415.012H1508.77L1508.68 415.097Z" fill="#03FC9D" stroke="#003B2F" stroke-width="3" stroke-linecap="round" stroke-linejoin="round"/><path d="M1508.68 415.097L1492.94 445.222C1481.37 470.581 1417.46 465.815 1350.4 434.755C1283.43 403.694 1238.67 357.997 1250.33 332.809L1265.14 302.174" stroke="#003B2F" stroke-width="3" stroke-linecap="round" stroke-linejoin="round"/><path d="M1508.68 415.097C1506.05 420.884 1500.77 424.968 1493.54 427.691C1468.18 437.222 1417.8 428.883 1365.55 404.63C1312.37 380.037 1273.22 346.084 1265.05 320.299C1262.84 313.662 1262.84 307.535 1265.31 302.003C1277.13 276.474 1341.21 281.325 1408.52 312.555C1475.75 343.701 1520.6 389.568 1508.85 415.012H1508.77L1508.68 415.097Z" stroke="#003B2F" stroke-width="3" stroke-linecap="round" stroke-linejoin="round"/><path d="M1493.45 427.606C1468.09 437.137 1417.8 428.883 1365.47 404.63C1312.28 380.037 1272.97 346.084 1264.97 320.299C1262.76 313.577 1262.76 307.45 1265.22 302.003C1277.05 276.474 1341.04 281.155 1408.36 312.385C1475.67 343.616 1520.51 389.483 1508.77 414.927C1506.13 420.714 1500.86 424.798 1493.62 427.436H1493.54L1493.45 427.606Z" stroke="#003B2F" stroke-width="3" stroke-linecap="round" stroke-linejoin="round"/><path d="M1278.92 326.511C1277.05 323.363 1275.52 320.214 1274.67 317.406C1273.14 312.896 1273.14 309.322 1274.5 306.429C1278.16 298.685 1293.73 294.77 1315.35 296.302C1341.13 298.174 1372.7 307.194 1404.19 321.831C1446.57 341.489 1481.46 367.954 1495.16 390.93C1497.96 395.78 1502.39 404.801 1499.58 410.928C1498.22 413.991 1495.07 416.374 1490.14 418.161C1466.9 426.926 1417.55 417.48 1370.06 395.525C1327.77 375.953 1292.97 349.573 1279.18 326.597H1279.09L1278.92 326.511Z" stroke="#003B2F" stroke-width="3" stroke-linecap="round" stroke-linejoin="round"/><path d="M1375.93 344.637C1383.93 347.956 1389.38 353.232 1388.02 356.465L1402.48 362.422C1405.12 356.04 1394.31 345.488 1378.23 338.85C1362.15 332.213 1347.09 332.043 1344.45 338.425C1343.6 340.552 1344.19 343.105 1345.98 345.828C1349.55 351.36 1357.98 357.572 1368.7 361.997L1441.2 391.951L1456.43 392.121H1458.14L1371.17 356.21C1363.17 352.891 1357.72 347.615 1359.08 344.382C1360.45 341.148 1368.02 341.233 1375.93 344.552V344.637Z" fill="#003B2F"/><path d="M1315.43 326.511C1313.73 330.766 1314.83 335.872 1318.41 341.318C1320.71 344.807 1323.85 348.466 1327.94 352.04C1336.7 359.869 1349.21 367.613 1363.94 373.74L1407.42 391.696L1424.27 391.866L1366.23 367.868C1353.38 362.592 1342.66 355.529 1336.19 348.637C1333.13 345.403 1331 342.254 1329.98 339.276C1329.13 336.808 1329.05 334.51 1329.98 332.468C1333.98 322.852 1356.62 323.107 1380.7 333.064C1404.78 343.02 1420.95 358.848 1417.04 368.464L1431.5 374.421C1436.78 361.571 1415.08 340.467 1383.08 327.192C1351.09 313.917 1320.71 313.662 1315.43 326.426H1315.51L1315.43 326.511Z" fill="#003B2F"/><path d="M1114.95 657.793H1020.15C994.025 657.793 972.921 636.689 972.921 610.565V446.838" stroke="#003B2F" stroke-width="16.1684" stroke-linecap="round" stroke-linejoin="round"/><path d="M1127.54 681.876C1140.84 681.876 1151.62 671.094 1151.62 657.793C1151.62 644.493 1140.84 633.711 1127.54 633.711C1114.24 633.711 1103.46 644.493 1103.46 657.793C1103.46 671.094 1114.24 681.876 1127.54 681.876Z" fill="#003B2F"/><path d="M567.177 657.793H661.975C688.1 657.793 709.204 636.689 709.204 610.565V446.838" stroke="#003B2F" stroke-width="16.1684" stroke-linecap="round" stroke-linejoin="round"/><path d="M554.582 681.876C567.883 681.876 578.665 671.094 578.665 657.793C578.665 644.493 567.883 633.711 554.582 633.711C541.282 633.711 530.5 644.493 530.5 657.793C530.5 671.094 541.282 681.876 554.582 681.876Z" fill="#003B2F"/><path d="M792.172 514.916V719.063" stroke="#003B2F" stroke-width="16.1684" stroke-linecap="round" stroke-linejoin="round"/><path d="M792.172 743.146C805.472 743.146 816.254 732.364 816.254 719.063C816.254 705.763 805.472 694.981 792.172 694.981C778.871 694.981 768.089 705.763 768.089 719.063C768.089 732.364 778.871 743.146 792.172 743.146Z" fill="#003B2F"/><path d="M907.652 514.916V719.063" stroke="#003B2F" stroke-width="16.1684" stroke-linecap="round" stroke-linejoin="round"/><path d="M907.651 743.146C920.952 743.146 931.734 732.364 931.734 719.063C931.734 705.763 920.952 694.981 907.651 694.981C894.351 694.981 883.569 705.763 883.569 719.063C883.569 732.364 894.351 743.146 907.651 743.146Z" fill="#003B2F"/><path d="M1119.71 209.673H1024.91C998.787 209.673 977.683 230.777 977.683 256.902V420.628" stroke="#003B2F" stroke-width="16.1684" stroke-linecap="round" stroke-linejoin="round"/><path d="M1132.3 233.841C1145.6 233.841 1156.39 223.059 1156.39 209.758C1156.39 196.458 1145.6 185.676 1132.3 185.676C1119 185.676 1108.22 196.458 1108.22 209.758C1108.22 223.059 1119 233.841 1132.3 233.841Z" fill="#003B2F"/><path d="M571.943 209.673H666.741C692.866 209.673 713.97 230.777 713.97 256.902V420.628" stroke="#003B2F" stroke-width="16.1684" stroke-linecap="round" stroke-linejoin="round"/><path d="M559.348 233.841C572.648 233.841 583.43 223.059 583.43 209.758C583.43 196.458 572.648 185.676 559.348 185.676C546.048 185.676 535.266 196.458 535.266 209.758C535.266 223.059 546.048 233.841 559.348 233.841Z" fill="#003B2F"/><path d="M796.938 352.551V148.403" stroke="#003B2F" stroke-width="16.1684" stroke-linecap="round" stroke-linejoin="round"/><path d="M796.938 172.486C810.238 172.486 821.02 161.704 821.02 148.403C821.02 135.103 810.238 124.321 796.938 124.321C783.638 124.321 772.855 135.103 772.855 148.403C772.855 161.704 783.638 172.486 796.938 172.486Z" fill="#003B2F"/><path d="M912.414 352.551V148.403" stroke="#003B2F" stroke-width="16.1684" stroke-linecap="round" stroke-linejoin="round"/><path d="M912.413 172.486C925.713 172.486 936.495 161.704 936.495 148.403C936.495 135.103 925.713 124.321 912.413 124.321C899.113 124.321 888.331 135.103 888.331 148.403C888.331 161.704 899.113 172.486 912.413 172.486Z" fill="#003B2F"/><path d="M986.722 540.813C1044.42 456.891 1023.16 342.084 939.242 284.384C855.32 226.684 740.512 247.942 682.813 331.864C625.113 415.786 646.37 530.593 730.293 588.293C814.215 645.993 929.022 624.735 986.722 540.813Z" fill="#8F9F99" stroke="#003B2F" stroke-width="3" stroke-miterlimit="10"/><path d="M1022.13 494.868C1058.02 399.561 1009.87 293.197 914.558 257.297C819.251 221.398 712.887 269.557 676.988 364.864C641.088 460.171 689.247 566.535 784.555 602.435C879.862 638.334 986.226 590.175 1022.13 494.868Z" fill="#03FC9D" stroke="#003B2F" stroke-width="3" stroke-linecap="round" stroke-linejoin="round"/><path d="M790.132 588.61C748.264 572.526 715.162 541.041 696.866 500.024C678.655 459.007 677.464 413.31 693.547 371.442C709.63 329.575 741.116 296.472 782.133 278.176C823.15 259.966 868.847 258.774 910.714 274.857C952.582 290.941 985.685 322.427 1003.98 363.443C1022.19 404.46 1023.38 450.157 1007.3 492.025C991.216 533.892 959.73 566.995 918.713 585.291C877.697 603.502 832 604.693 790.132 588.61Z" stroke="#003B2F" stroke-width="3" stroke-linecap="round" stroke-linejoin="round"/><path d="M876.331 405.992C876.331 420.288 864.673 431.946 850.377 431.946V457.901C878.969 457.901 902.201 434.669 902.201 405.907C902.201 377.144 879.055 353.913 850.377 353.913C840.931 353.913 832.081 356.465 824.422 360.89C808.85 369.826 798.468 386.59 798.468 405.907V535.85L821.699 559.251L824.252 561.804V405.907C824.252 391.61 835.91 379.952 850.207 379.952C864.503 379.952 876.161 391.61 876.161 405.907H876.246L876.331 405.992Z" fill="#003B2F"/><path d="M850.378 302.003C831.572 302.003 813.872 307.024 798.554 315.874C788.768 321.576 780.003 328.724 772.6 337.148C756.431 355.444 746.645 379.527 746.645 405.907V483.856L772.6 509.81V405.822C772.6 382.76 782.556 361.997 798.554 347.786C806.043 341.063 814.808 335.872 824.509 332.383C832.678 329.49 841.273 327.958 850.463 327.958C893.352 327.958 928.157 362.848 928.157 405.907C928.157 448.966 893.352 483.856 850.463 483.856V509.81C907.733 509.81 954.111 463.262 954.111 405.822C954.111 348.381 907.648 301.833 850.463 301.833V302.003H850.378Z" fill="#003B2F"/></svg>