<svg width="1920" height="1080" viewBox="0 0 1920 1080" fill="none" xmlns="http://www.w3.org/2000/svg"><path d="M1428.31 422.31L1531.61 327.59L1447.77 384.253L1428.31 422.31Z" fill="#03FC9D"/><path d="M1531.62 327.59L1447.77 384.253L1483.51 438.907L1531.62 327.59Z" fill="#E6E8EA"/><path d="M1377.67 362.793L1430.43 376.536L1531.61 327.59L1377.67 362.793Z" fill="#E6E8EA"/><path d="M1430.43 376.536L1428.31 422.31L1447.77 384.253L1531.61 327.59L1430.43 376.536Z" fill="#E6E8EA"/><path d="M1528.34 321.143L1444.49 377.7L1480.23 432.354L1528.34 321.143Z" stroke="#003B2F" stroke-width="3" stroke-linecap="round" stroke-linejoin="round"/><path d="M1374.39 356.24L1427.15 369.983L1528.34 321.143L1374.39 356.24Z" stroke="#003B2F" stroke-width="3" stroke-linecap="round" stroke-linejoin="round"/><path d="M1427.15 369.983L1425.04 415.757L1444.49 377.7L1528.34 321.143L1427.15 369.983Z" stroke="#003B2F" stroke-width="3" stroke-linecap="round" stroke-linejoin="round"/><path d="M1421.44 433.516C1421.44 433.516 1420.59 435.63 1419.01 439.33" stroke="#003B2F" stroke-width="3" stroke-linecap="round" stroke-linejoin="round" stroke-dasharray="6 6"/><path d="M1413.73 451.064C1396.17 488.698 1351.45 569.358 1313.07 513.752C1280.93 467.132 1326.28 422.309 1347.33 472.418C1372.7 532.781 1309.58 541.449 1281.35 542.401" stroke="#003B2F" stroke-width="3" stroke-linecap="round" stroke-linejoin="round" stroke-dasharray="6 6"/><path d="M1275 542.506C1271.09 542.506 1268.66 542.4 1268.66 542.4" stroke="#003B2F" stroke-width="3" stroke-linecap="round" stroke-linejoin="round" stroke-dasharray="6 6"/><path d="M591.975 79.5845L618.619 95.0188" stroke="#003B2F" stroke-width="3" stroke-linecap="round" stroke-linejoin="round"/><path d="M645.259 79.584L629.61 88.6754" stroke="#003B2F" stroke-width="3" stroke-linecap="round" stroke-linejoin="round"/><path d="M618.614 95.0181V126.098" stroke="#003B2F" stroke-width="3" stroke-linecap="round" stroke-linejoin="round"/><path d="M42.5908 811.971H235.869" stroke="#03FC9D" stroke-width="3" stroke-linecap="round" stroke-linejoin="round"/><path d="M168.726 851.51H317.808" stroke="#003B2F" stroke-width="3" stroke-linecap="round" stroke-linejoin="round"/><path d="M336.841 977.629H483.914C500.09 977.629 513.202 964.519 513.202 948.347V948.241C513.202 932.068 500.09 918.958 483.914 918.958H336.841C320.666 918.958 307.553 932.068 307.553 948.241V948.347C307.553 964.519 320.666 977.629 336.841 977.629Z" fill="#03FC9D"/><path d="M425.029 1003H543.872C556.952 1003 567.556 992.398 567.556 979.32C567.556 966.241 556.952 955.64 543.872 955.64H425.029C411.948 955.64 401.345 966.241 401.345 979.32C401.345 992.398 411.948 1003 425.029 1003Z" fill="#03FC9D"/><path d="M1402.2 914.727H1369.11" stroke="#003B2F" stroke-width="3" stroke-linecap="round" stroke-linejoin="round"/><path d="M1402.2 960.926H1301.33" stroke="#03FC9D" stroke-width="3" stroke-linecap="round" stroke-linejoin="round"/><path d="M1326.5 914.831H1192.85" stroke="#003B2F" stroke-width="3" stroke-linecap="round" stroke-linejoin="round"/><path d="M173.17 213.1L289.053 213.1C301.841 213.1 312.208 202.735 312.208 189.949C312.208 177.162 301.841 166.797 289.053 166.797H173.17C160.382 166.797 150.015 177.162 150.015 189.949C150.015 202.735 160.382 213.1 173.17 213.1Z" fill="#E6E8EA"/><path d="M232.802 273.886H417.305C437.626 273.886 454.1 257.415 454.1 237.097C454.1 216.779 437.626 200.309 417.305 200.309L232.802 200.309C212.481 200.309 196.007 216.779 196.007 237.097C196.007 257.415 212.481 273.886 232.802 273.886Z" fill="#03FC9D"/><path d="M142.087 366.174L156.044 380.129" stroke="#003B2F" stroke-width="3" stroke-linecap="round" stroke-linejoin="round"/><path d="M166.3 390.275L180.256 404.335" stroke="#003B2F" stroke-width="3" stroke-linecap="round" stroke-linejoin="round"/><path d="M142.087 404.335L156.044 390.275" stroke="#003B2F" stroke-width="3" stroke-linecap="round" stroke-linejoin="round"/><path d="M166.3 380.129L180.256 366.175" stroke="#003B2F" stroke-width="3" stroke-linecap="round" stroke-linejoin="round"/><path d="M1734.1 445.883H1855.8C1869.17 445.883 1880.01 435.045 1880.01 421.675V421.569C1880.01 408.199 1869.17 397.36 1855.8 397.36H1734.1C1720.73 397.36 1709.88 408.199 1709.88 421.569V421.675C1709.88 435.045 1720.73 445.883 1734.1 445.883Z" fill="#E6E8EA"/><path d="M1665.37 508.677H1796.06C1817.37 508.677 1834.65 491.401 1834.65 470.091C1834.65 448.781 1817.37 431.505 1796.06 431.505H1665.37C1644.06 431.505 1626.78 448.781 1626.78 470.091C1626.78 491.401 1644.06 508.677 1665.37 508.677Z" fill="#E6E8EA"/><path d="M1736.21 635.007L1750.16 648.962" stroke="#003B2F" stroke-width="3" stroke-linecap="round" stroke-linejoin="round"/><path d="M1760.32 659.216L1774.38 673.171" stroke="#003B2F" stroke-width="3" stroke-linecap="round" stroke-linejoin="round"/><path d="M1736.21 673.171L1750.16 659.216" stroke="#003B2F" stroke-width="3" stroke-linecap="round" stroke-linejoin="round"/><path d="M1760.32 648.962L1774.38 635.007" stroke="#003B2F" stroke-width="3" stroke-linecap="round" stroke-linejoin="round"/><path d="M1457.5 120.497H1343.2" stroke="#003B2F" stroke-width="3" stroke-linecap="round" stroke-linejoin="round"/><path d="M1544.41 120.497H1515.66" stroke="#003B2F" stroke-width="3" stroke-linecap="round" stroke-linejoin="round"/><path d="M1697.93 227.058H1641.47" stroke="#003B2F" stroke-width="3" stroke-linecap="round" stroke-linejoin="round"/><path d="M1706.07 177.473H1399.56" stroke="#03FC9D" stroke-width="3" stroke-linecap="round" stroke-linejoin="round"/><path d="M1553.4 874.765C1566.25 874.765 1576.66 864.353 1576.66 851.508C1576.66 838.664 1566.25 828.251 1553.4 828.251C1540.56 828.251 1530.14 838.664 1530.14 851.508C1530.14 864.353 1540.56 874.765 1553.4 874.765Z" stroke="#003B2F" stroke-width="3" stroke-linecap="round" stroke-linejoin="round"/><path d="M473.066 757.055L447.646 782.471L473.066 807.886L498.486 782.471L473.066 757.055Z" stroke="#003B2F" stroke-width="3" stroke-linecap="round" stroke-linejoin="round"/><path d="M674.454 560.372C673.82 547.263 680.904 535.952 691.9 532.886L789.597 505.506L772.68 371.037L772.151 369.557C767.71 366.069 762.212 364.589 756.925 366.069L577.075 416.495C567.559 419.137 562.378 430.343 565.444 441.337L691.16 889.249L674.243 560.372H674.454Z" fill="#03FC9D"/><path d="M1261.16 790.723L694.644 949.717L550.214 435.206C547.148 424.106 552.329 413.006 561.845 410.363L741.695 359.937C751.211 357.295 761.467 364.06 764.533 375.16L771.3 398.84" stroke="#003B2F" stroke-width="3" stroke-linecap="round" stroke-linejoin="round"/><path d="M674.452 560.373C673.818 547.264 680.902 535.953 691.898 532.887L953.268 459.522L968.705 413.007L592.192 518.722L694.435 947.922L674.558 560.267L674.452 560.373Z" fill="white"/><path d="M694.755 949.615L708.817 945.703L694.755 949.615Z" fill="white"/><path d="M1261.15 790.727L694.745 949.616L592.079 518.724L968.592 413.116" stroke="#003B2F" stroke-width="3" stroke-linecap="round" stroke-linejoin="round"/><path d="M962.142 432.565L1052.65 161.514C1056.03 151.259 1067.24 145.657 1077.5 149.145L1266.23 212.151L1267.07 213.842L1313.17 304.017L1249.84 493.879" stroke="#003B2F" stroke-width="3" stroke-linecap="round" stroke-linejoin="round"/><path d="M1313.07 304.018L1259.67 286.152C1251.32 283.403 1246.77 274.312 1249.63 265.96L1267.07 213.843L1313.17 304.018H1313.07Z" stroke="#003B2F" stroke-width="3" stroke-linecap="round" stroke-linejoin="round"/><path d="M1198.03 390.81C1195.81 391.445 1191.58 392.608 1185.77 394.299L1179.95 395.885C1173.71 397.576 1166.42 399.69 1158.07 402.016L1149.61 404.342C1125.08 411.213 1094.52 419.776 1064.81 428.127L1050.32 432.25C1040.81 434.893 1031.4 437.536 1022.52 440.073L1018.18 441.342C980.436 451.913 951.782 459.948 951.782 459.948L691.787 532.89C680.791 535.956 673.707 547.268 674.341 560.376L694.219 947.502L612.699 527.393L1179.11 368.399L1181.86 382.776L1198.98 378.548L1200.04 385.842L1200.89 390.07L1197.93 390.916L1198.03 390.81Z" fill="white"/><path d="M784.517 464.598L754.595 226.318C753.22 215.535 760.833 205.809 771.618 204.435L817.188 198.726L969.02 179.698L970.5 180.861L1030.45 226.635" stroke="#003B2F" stroke-width="3" stroke-linecap="round" stroke-linejoin="round"/><path d="M1023.47 245.662L995.132 249.257C986.356 250.314 978.426 244.182 977.263 235.408L970.391 180.859L1029.71 226.105" stroke="#003B2F" stroke-width="3" stroke-linecap="round" stroke-linejoin="round"/><path d="M848.376 350.762L825.506 353.631L832.468 409.119L855.338 406.25L848.376 350.762Z" stroke="#003B2F" stroke-width="3" stroke-linecap="round" stroke-linejoin="round"/><path d="M882.657 361.437L859.786 364.306L864.892 405.004L887.763 402.135L882.657 361.437Z" stroke="#003B2F" stroke-width="3" stroke-linecap="round" stroke-linejoin="round"/><path d="M912.559 331.953L889.688 334.821L897.979 400.903L920.85 398.035L912.559 331.953Z" stroke="#003B2F" stroke-width="3" stroke-linecap="round" stroke-linejoin="round"/><path d="M942.069 315.306L919.198 318.174L929.082 396.948L951.952 394.08L942.069 315.306Z" stroke="#003B2F" stroke-width="3" stroke-linecap="round" stroke-linejoin="round"/><path d="M975.361 391.231L960.136 393.134L951.889 327.063L974.727 324.208L981.071 374.74" stroke="#003B2F" stroke-width="3" stroke-linecap="round" stroke-linejoin="round"/><path d="M987.205 356.24L979.169 292.283L1002.01 289.428L1004.12 305.603" stroke="#003B2F" stroke-width="3" stroke-linecap="round" stroke-linejoin="round"/><path d="M1070.09 234.563L1272.47 302.114" stroke="#003B2F" stroke-width="3" stroke-linecap="round" stroke-linejoin="round"/><path d="M1062.06 259.619L1264.43 327.17" stroke="#003B2F" stroke-width="3" stroke-linecap="round" stroke-linejoin="round"/><path d="M1053.91 284.777L1256.29 352.329" stroke="#003B2F" stroke-width="3" stroke-linecap="round" stroke-linejoin="round"/><path d="M1045.88 309.936L1248.25 377.487" stroke="#003B2F" stroke-width="3" stroke-linecap="round" stroke-linejoin="round"/><path d="M1036.15 334.568L1156.48 374.74" stroke="#003B2F" stroke-width="3" stroke-linecap="round" stroke-linejoin="round"/><path d="M1028.01 359.727L1111.11 387.424" stroke="#003B2F" stroke-width="3" stroke-linecap="round" stroke-linejoin="round"/><path d="M1019.97 384.891L1065.02 399.903" stroke="#003B2F" stroke-width="3" stroke-linecap="round" stroke-linejoin="round"/><path d="M1011.94 410.05L1019.98 412.693" stroke="#003B2F" stroke-width="3" stroke-linecap="round" stroke-linejoin="round"/><path d="M694.745 949.616L612.803 527.393L1179.21 368.399L1181.01 377.913" stroke="#003B2F" stroke-width="3" stroke-linecap="round" stroke-linejoin="round"/><path d="M694.754 949.615L632.689 537.541L1199.1 378.547L1200.15 385.841" stroke="#003B2F" stroke-width="3" stroke-linecap="round" stroke-linejoin="round"/><path d="M702.152 954.69L1268.67 795.696L1249.42 421.467C1248.47 402.544 1232.08 388.378 1216.22 392.818L699.509 537.858C688.512 540.924 681.428 552.236 682.063 565.344L702.046 954.69H702.152Z" fill="#03FC9D"/><path d="M694.429 949.719L1260.94 790.725L1241.7 416.496C1240.75 397.573 1224.36 383.408 1208.5 387.848L691.786 532.888C680.79 535.953 673.706 547.265 674.34 560.373L694.324 949.719H694.429Z" stroke="#003B2F" stroke-width="3" stroke-linecap="round" stroke-linejoin="round"/><path d="M293.705 639.873C282.921 635.645 269.704 621.584 264.629 612.599C266.109 615.03 267.907 617.356 269.81 619.47C274.145 624.227 279.749 628.033 286.515 630.782C286.727 630.887 286.938 630.993 287.256 631.099C318.87 643.573 362.96 627.187 385.587 594.522C385.904 593.993 386.221 593.57 386.538 593.042C386.75 592.725 386.961 592.407 387.173 592.09C387.173 592.09 387.173 592.09 387.173 591.984C400.495 571.37 402.081 549.593 393.305 533.419C392.248 531.516 391.085 529.719 389.816 528.027C405.676 544.942 409.588 578.136 391.93 603.507C369.198 636.173 325.108 652.559 293.6 640.084L293.705 639.873Z" fill="#03FC9D"/><path d="M287.357 630.991C287.357 630.991 286.828 630.779 286.617 630.674C279.85 627.925 274.246 624.014 269.911 619.362C267.902 617.248 266.211 614.922 264.73 612.491C264.73 612.385 264.625 612.279 264.519 612.068C254.263 595.154 255.955 571.368 271.392 549.274C294.124 516.608 338.214 500.222 369.828 512.696C378.498 516.079 385.265 521.259 390.129 527.708C391.398 529.399 392.666 531.196 393.618 533.099C402.394 549.274 400.808 571.156 387.486 591.665C387.486 591.665 387.486 591.665 387.486 591.771C387.274 592.088 387.063 592.405 386.851 592.722C386.534 593.251 386.217 593.674 385.9 594.202C363.167 626.868 319.077 643.254 287.569 630.779L287.357 630.991Z" fill="#E6E8EA"/><path d="M293.181 639.977C282.396 635.748 269.18 621.688 264.104 612.702C265.585 615.134 267.382 617.459 269.285 619.574C273.62 624.331 279.224 628.137 285.991 630.885C286.203 630.991 286.414 631.097 286.731 631.202C318.345 643.677 362.435 627.291 385.062 594.625C385.379 594.097 385.697 593.674 386.014 593.145C386.225 592.828 386.437 592.511 386.648 592.194C386.648 592.194 386.648 592.194 386.648 592.088C399.97 571.474 401.556 549.697 392.781 533.522C391.723 531.619 390.56 529.822 389.291 528.131C405.151 545.045 409.063 578.239 391.406 603.611C368.674 636.277 324.583 652.662 293.075 640.188L293.181 639.977Z" stroke="#003B2F" stroke-width="3" stroke-linecap="round" stroke-linejoin="round"/><path d="M286.729 631.094C286.729 631.094 286.201 630.883 285.989 630.777C279.222 628.028 273.618 624.117 269.283 619.466C267.274 617.351 265.583 615.026 264.103 612.594C264.103 612.488 263.997 612.383 263.891 612.171C253.635 595.257 255.327 571.471 270.764 549.377C293.496 516.711 337.586 500.326 369.2 512.8C377.87 516.183 384.637 521.363 389.501 527.811C390.77 529.503 392.038 531.3 392.99 533.203C401.766 549.377 400.18 571.26 386.858 591.768C386.858 591.768 386.858 591.768 386.858 591.874C386.646 592.191 386.435 592.508 386.223 592.826C385.906 593.354 385.589 593.777 385.272 594.306C362.539 626.971 318.449 643.357 286.941 630.883L286.729 631.094Z" stroke="#003B2F" stroke-width="3" stroke-linecap="round" stroke-linejoin="round"/><path d="M362.331 591.456C359.794 592.831 357.468 592.936 355.247 591.985C354.824 591.773 354.507 591.773 354.084 591.985C347.423 595.896 340.656 599.702 333.889 603.613C333.466 603.825 333.255 604.036 333.255 604.459C333.043 607.208 331.035 609.745 328.18 610.908C325.431 612.071 322.365 611.542 320.567 609.639C319.51 608.476 319.087 607.102 319.193 605.516C319.193 604.988 319.087 604.776 318.664 604.671C312.531 601.816 306.399 598.856 300.372 596.002C299.949 595.791 299.632 595.791 299.209 596.002C295.931 597.905 292.019 597.376 290.116 595.051C288.213 592.513 288.847 588.813 291.702 586.382C292.125 585.959 292.654 585.642 293.182 585.325C293.5 585.113 293.711 584.902 293.711 584.585C294.24 577.713 294.874 570.948 295.403 564.076C295.403 563.653 295.403 563.548 294.98 563.336C290.856 561.433 290.751 556.148 294.663 552.976C297.095 550.968 300.161 550.439 302.804 551.602C303.227 551.813 303.544 551.813 303.967 551.602C310.628 547.691 317.395 543.885 324.162 539.973C324.585 539.762 324.796 539.551 324.796 539.128C325.008 536.273 326.911 533.948 329.977 532.679C332.938 531.516 336.004 532.045 337.696 534.159C338.647 535.322 339.07 536.591 338.859 538.176C338.859 538.493 338.859 538.705 339.282 538.916C345.414 541.876 351.652 544.731 357.785 547.691C358.208 547.902 358.419 547.796 358.842 547.691C362.543 545.576 366.772 546.422 368.464 549.488C369.838 551.919 368.675 555.513 366.032 557.522C365.82 557.733 365.609 557.839 365.292 558.051C364.552 558.473 364.34 558.896 364.234 559.636C363.706 566.191 363.177 572.851 362.543 579.405C362.543 579.828 362.543 580.145 363.071 580.251C367.089 582.153 367.195 587.228 363.389 590.505C363.071 590.822 362.648 591.033 362.226 591.245L362.331 591.456ZM315.28 563.019C315.28 563.019 315.175 563.019 315.069 563.019C311.686 561.433 308.302 559.848 305.024 558.262C304.813 558.262 304.707 557.839 304.707 557.628C304.707 556.676 304.707 555.725 304.284 554.879C302.804 552.131 299.209 552.025 296.777 553.188C294.028 554.668 292.231 557.945 293.817 560.693C295.191 563.125 298.681 563.653 301.535 561.856C302.064 561.539 302.381 561.539 302.91 561.751C306.505 563.442 309.994 565.133 313.589 566.825C313.906 567.036 314.117 567.142 314.117 567.565C314.117 569.891 314.963 571.793 316.761 573.273C316.972 573.379 316.972 573.696 316.972 573.908C316.972 574.648 316.972 575.388 316.972 576.022C316.972 576.445 316.866 576.656 316.444 576.868C311.157 579.933 305.87 582.999 300.584 585.959C300.161 586.171 299.949 586.171 299.632 585.959C297.94 585.008 295.086 585.113 292.865 586.805C290.328 588.708 289.588 592.302 291.385 594.311C292.971 596.002 295.403 596.425 298.152 595.262C299.949 594.416 301.852 592.513 301.958 589.976C301.958 589.659 301.958 589.448 302.381 589.236C307.562 586.276 312.637 583.316 317.818 580.356C318.241 580.145 318.452 580.251 318.77 580.462C319.51 581.202 320.144 582.048 320.99 582.682C321.307 582.999 321.519 583.316 321.519 583.739C321.624 586.171 322.893 587.968 325.114 588.919C325.431 589.025 325.536 589.236 325.536 589.553C325.219 592.831 325.008 596.108 324.691 599.279C324.691 599.808 324.479 600.125 323.951 600.442C320.884 602.133 319.615 605.833 321.413 608.265C323.21 610.591 327.228 610.696 329.872 608.476C333.043 605.728 332.832 601.499 329.343 600.019C329.026 599.913 328.814 599.702 328.814 599.279C329.131 596.213 329.343 593.042 329.554 589.976C329.554 589.553 329.766 589.342 330.294 589.236C333.361 588.391 335.581 586.488 336.638 583.739C336.85 583.211 338.859 580.039 339.282 579.511C339.599 579.088 339.916 579.088 340.233 579.299C344.463 581.308 348.798 583.316 353.027 585.325C353.344 585.536 353.45 585.642 353.45 586.065C353.238 587.439 353.556 588.602 354.507 589.659C356.199 591.562 359.477 591.773 362.12 589.976C364.975 588.073 365.82 584.268 363.812 582.153C362.014 580.356 359.159 580.145 356.516 581.731C356.093 582.048 355.776 582.048 355.353 581.836C351.018 579.828 346.683 577.713 342.348 575.705C341.925 575.493 341.925 575.282 342.031 574.965C342.982 572.322 342.877 569.785 342.031 567.353C341.714 566.508 341.714 566.508 342.665 565.979C347.529 563.231 352.287 560.482 357.15 557.628C357.785 557.205 358.313 557.099 358.948 557.416C361.38 558.579 364.552 557.628 366.455 555.408C368.358 553.188 368.358 550.228 366.455 548.536C364.657 547.056 362.437 546.951 360.005 548.113C358.102 548.959 356.516 550.862 356.41 553.188C356.41 553.505 356.41 553.822 355.882 554.033C350.595 557.099 345.203 560.165 339.916 563.231C339.493 563.442 339.282 563.442 338.964 563.231C337.907 562.702 336.956 562.068 335.793 561.751C334.524 561.433 333.572 560.905 332.832 559.742C332.832 559.636 332.726 559.531 332.621 559.425C332.409 559.108 332.303 558.791 332.303 558.473C332.726 553.716 333.149 548.853 333.466 544.096C333.466 543.462 333.784 542.933 334.418 542.616C334.735 542.511 334.947 542.299 335.264 542.088C337.59 540.291 338.542 537.013 336.638 534.793C334.735 532.573 331.14 532.573 328.603 534.688C325.219 537.331 325.431 541.876 328.92 543.251C329.343 543.462 329.449 543.568 329.449 543.991C329.131 547.585 328.814 551.285 328.497 554.879C328.497 555.513 328.391 556.148 328.286 556.782C322.787 555.936 318.452 558.051 315.28 562.702V563.019Z" fill="#003B2F"/><path d="M331.671 563.126C331.988 563.866 332.411 564.078 333.257 564.183C336.852 564.923 339.072 567.038 339.601 570.526C340.129 573.909 338.755 576.975 335.583 579.512C334.949 580.041 334.737 580.463 334.631 581.203C334.526 583.212 332.834 585.221 330.931 585.961C328.393 586.912 326.173 586.595 324.798 585.009C324.058 584.163 323.635 583.212 323.847 581.943C323.847 581.415 323.741 581.098 323.318 580.886C320.675 579.195 319.512 576.658 319.935 573.381C319.935 572.852 319.935 572.535 319.512 572.323C316.445 569.892 316.657 565.346 320.04 562.281C323.847 558.792 329.768 559.321 331.671 563.126ZM325.644 603.932C326.49 603.403 327.442 603.615 327.864 604.249C328.287 604.883 327.864 605.835 327.124 606.363C326.384 606.786 325.327 606.575 324.904 605.941C324.481 605.306 324.904 604.355 325.644 603.826V603.932ZM361.382 551.709C362.227 551.286 363.179 551.392 363.602 552.132C364.025 552.872 363.602 553.718 362.862 554.246C362.016 554.669 361.064 554.563 360.641 553.929C360.219 553.295 360.641 552.238 361.382 551.815V551.709ZM299.74 558.898C298.894 559.426 297.942 559.215 297.519 558.475C297.202 557.841 297.519 556.783 298.259 556.361C299 555.938 300.057 556.149 300.48 556.783C300.903 557.523 300.48 558.369 299.74 558.792V558.898ZM297.731 590.083C298.154 590.823 297.731 591.669 296.991 592.092C296.145 592.515 295.193 592.409 294.876 591.669C294.453 590.929 294.876 590.083 295.616 589.555C296.462 589.132 297.414 589.238 297.731 589.978V590.083ZM330.508 539.552C330.085 538.812 330.402 537.966 331.248 537.438C331.988 536.909 333.045 537.121 333.468 537.861C333.891 538.601 333.574 539.446 332.728 539.869C331.882 540.398 330.931 540.186 330.613 539.552H330.508ZM357.787 587.018C357.364 586.278 357.787 585.432 358.527 585.009C359.373 584.481 360.219 584.692 360.641 585.432C361.064 586.172 360.641 587.018 359.901 587.546C359.055 587.969 358.104 587.758 357.787 587.123V587.018Z" fill="#003B2F"/><path d="M1420.39 636.699C1423.35 623.062 1437.52 604.562 1447.25 596.951C1444.6 599.171 1442.28 601.708 1440.16 604.456C1435.41 610.588 1431.92 617.988 1429.91 626.445C1429.91 626.762 1429.8 627.079 1429.7 627.396C1421.03 667.356 1448.94 716.408 1492.08 737.128C1492.71 737.445 1493.35 737.656 1493.98 737.974C1494.4 738.185 1494.83 738.291 1495.25 738.502C1495.25 738.502 1495.36 738.502 1495.46 738.502C1522.42 750.342 1548.75 748.016 1566.2 734.379C1568.2 732.794 1570.11 731.102 1571.91 729.199C1554.88 751.294 1516.29 762.394 1482.77 746.325C1439.63 725.711 1411.72 676.554 1420.39 636.594V636.699Z" fill="#03FC9D"/><path d="M1429.59 627.396C1429.59 627.396 1429.69 626.762 1429.8 626.445C1431.81 617.882 1435.3 610.482 1440.06 604.456C1442.17 601.708 1444.6 599.171 1447.14 596.951C1447.25 596.845 1447.46 596.739 1447.56 596.633C1465.75 581.199 1494.3 578.662 1523.37 592.616C1566.51 613.336 1594.42 662.388 1585.86 702.348C1583.53 713.236 1578.67 722.328 1571.9 729.411C1570.11 731.313 1568.2 733.005 1566.19 734.591C1548.64 748.228 1522.42 750.448 1495.46 738.713C1495.46 738.713 1495.35 738.713 1495.25 738.713C1494.82 738.502 1494.4 738.396 1493.98 738.185C1493.34 737.868 1492.71 737.656 1492.08 737.339C1448.94 716.725 1421.02 667.568 1429.69 627.608L1429.59 627.396Z" fill="#E6E8EA"/><path d="M1420.07 636.064C1423.03 622.426 1437.2 603.926 1446.93 596.315C1444.28 598.535 1441.96 601.072 1439.84 603.821C1435.09 609.952 1431.6 617.352 1429.59 625.809C1429.59 626.126 1429.48 626.444 1429.38 626.761C1420.71 666.721 1448.62 715.772 1491.76 736.492C1492.39 736.809 1493.03 737.021 1493.66 737.338C1494.08 737.549 1494.51 737.655 1494.93 737.866C1494.93 737.866 1495.04 737.866 1495.14 737.866C1522.1 749.706 1548.43 747.381 1565.88 733.744C1567.89 732.158 1569.79 730.466 1571.59 728.564C1554.56 750.658 1515.97 761.758 1482.45 745.689C1439.32 725.075 1411.4 675.918 1420.07 635.958V636.064Z" stroke="#003B2F" stroke-width="3" stroke-linecap="round" stroke-linejoin="round"/><path d="M1429.37 626.761C1429.37 626.761 1429.48 626.126 1429.58 625.809C1431.59 617.246 1435.08 609.846 1439.84 603.821C1441.95 601.072 1444.39 598.535 1446.92 596.315C1447.03 596.209 1447.24 596.103 1447.35 595.998C1465.53 580.563 1494.08 578.026 1523.16 591.981C1566.3 612.701 1594.21 661.752 1585.64 701.712C1583.32 712.601 1578.45 721.692 1571.69 728.775C1569.89 730.678 1567.99 732.369 1565.98 733.955C1548.43 747.592 1522.2 749.812 1495.24 738.078C1495.24 738.078 1495.14 738.078 1495.03 738.078C1494.61 737.866 1494.19 737.761 1493.76 737.549C1493.13 737.232 1492.49 737.021 1491.86 736.703C1448.72 716.089 1420.81 666.932 1429.48 626.972L1429.37 626.761Z" stroke="#003B2F" stroke-width="3" stroke-linecap="round" stroke-linejoin="round"/><path d="M626.24 433.406C615.667 434.041 599.279 427.592 591.666 422.095C593.886 423.575 596.212 424.738 598.644 425.689C604.037 427.909 610.169 428.861 616.83 428.543C617.042 428.543 617.253 428.543 617.57 428.543C648.444 426.641 678.578 396.089 684.71 360.358C684.71 359.829 684.922 359.301 684.922 358.772C684.922 358.455 684.922 358.032 685.028 357.715C685.028 357.715 685.028 357.715 685.028 357.609C688.094 335.515 681.01 316.803 667.476 306.866C665.89 305.703 664.198 304.646 662.507 303.695C682.173 311.518 698.244 337.418 693.38 365.221C687.248 400.952 657.22 431.503 626.24 433.406Z" fill="#03FC9D"/><path d="M617.567 428.65C617.567 428.65 617.144 428.65 616.827 428.65C610.166 428.967 604.034 427.91 598.641 425.796C596.21 424.844 593.883 423.576 591.663 422.201C591.557 422.201 591.452 422.096 591.346 421.99C576.332 411.947 568.613 391.65 572.737 367.547C578.869 331.816 608.897 301.264 639.877 299.361C648.335 298.833 655.948 300.524 662.504 303.907C664.301 304.859 665.887 305.916 667.473 307.079C681.007 317.016 688.091 335.727 685.025 357.821C685.025 357.821 685.025 357.821 685.025 357.927C685.025 358.244 685.025 358.667 684.919 358.984C684.919 359.513 684.813 360.041 684.707 360.57C678.575 396.301 648.547 426.853 617.567 428.756V428.65Z" fill="#E6E8EA"/><path d="M625.817 433.721C615.243 434.356 598.855 427.907 591.242 422.41C593.463 423.89 595.789 425.053 598.221 426.004C603.613 428.224 609.745 429.175 616.406 428.858C616.618 428.858 616.829 428.858 617.147 428.858C648.02 426.955 678.154 396.404 684.287 360.673C684.287 360.144 684.498 359.615 684.498 359.087C684.498 358.77 684.498 358.347 684.604 358.03C684.604 358.03 684.604 358.03 684.604 357.924C687.67 335.83 680.586 317.118 667.052 307.181C665.466 306.018 663.774 304.961 662.083 304.01C681.749 311.833 697.82 337.733 692.957 365.535C686.824 401.267 656.796 431.818 625.817 433.721Z" stroke="#003B2F" stroke-width="3" stroke-linecap="round" stroke-linejoin="round"/><path d="M617.144 428.965C617.144 428.965 616.721 428.965 616.403 428.965C609.742 429.282 603.61 428.225 598.218 426.111C595.786 425.159 593.46 423.891 591.239 422.516C591.133 422.516 591.028 422.411 590.922 422.305C575.908 412.262 568.19 391.965 572.313 367.862C578.446 332.131 608.474 301.579 639.453 299.676C647.912 299.148 655.524 300.839 662.08 304.222C663.877 305.174 665.463 306.231 667.049 307.394C680.583 317.331 687.667 336.042 684.601 358.136C684.601 358.136 684.601 358.136 684.601 358.242C684.601 358.559 684.601 358.982 684.495 359.299C684.495 359.828 684.389 360.356 684.284 360.885C678.151 396.616 648.123 427.168 617.144 429.071V428.965Z" stroke="#003B2F" stroke-width="3" stroke-linecap="round" stroke-linejoin="round"/><path d="M666.621 365.437C664.929 367.763 662.815 368.82 660.383 368.82C659.96 368.82 659.643 368.926 659.431 369.348C654.991 375.691 650.444 382.034 646.003 388.271C645.686 388.694 645.686 388.906 645.792 389.328C646.743 391.971 646.003 395.037 643.889 397.257C641.88 399.477 638.813 400.323 636.382 399.266C635.007 398.737 633.95 397.68 633.421 396.094C633.315 395.671 632.998 395.46 632.575 395.46C625.808 395.46 619.042 395.354 612.275 395.248C611.852 395.248 611.535 395.354 611.217 395.777C609.103 398.843 605.191 400.111 602.547 398.631C599.693 397.151 598.847 393.557 600.433 390.068C600.644 389.54 600.961 389.011 601.279 388.588C601.49 388.271 601.596 388.06 601.49 387.637C599.164 381.188 596.838 374.74 594.512 368.291C594.406 367.974 594.194 367.763 593.772 367.763C589.225 367.763 586.899 363.006 589.119 358.46C590.494 355.606 593.137 353.808 595.992 353.808C596.415 353.808 596.732 353.703 597.049 353.28C601.49 346.937 606.036 340.594 610.477 334.357C610.794 333.934 610.794 333.723 610.689 333.3C609.737 330.657 610.477 327.697 612.698 325.266C614.918 322.94 617.879 322.2 620.31 323.363C621.579 323.997 622.531 325.054 623.059 326.534C623.165 326.851 623.377 326.957 623.694 326.957C630.566 326.957 637.333 327.063 644.206 327.168C644.629 327.168 644.84 327.063 645.157 326.64C647.589 323.151 651.819 322.094 654.673 324.208C656.894 325.9 657.422 329.6 655.836 332.56C655.731 332.877 655.625 332.983 655.413 333.3C654.885 334.04 654.885 334.568 655.096 335.203C657.422 341.44 659.643 347.677 661.863 353.914C661.969 354.337 662.18 354.548 662.709 354.548C667.15 354.548 669.476 359.2 667.255 363.746C667.044 364.168 666.727 364.591 666.515 364.908L666.621 365.437ZM611.957 359.306C611.957 359.306 611.852 359.306 611.746 359.306C608.045 359.306 604.345 359.306 600.538 359.2C600.327 359.2 600.115 358.988 600.01 358.777C599.693 357.826 599.164 356.98 598.424 356.451C595.886 354.548 592.608 355.923 590.917 358.037C589.014 360.574 588.696 364.274 591.34 366.071C593.666 367.657 596.944 366.706 598.847 363.957C599.164 363.428 599.481 363.323 600.01 363.323C603.922 363.323 607.94 363.428 611.852 363.428C612.275 363.428 612.486 363.534 612.592 363.851C613.543 365.966 615.129 367.34 617.35 367.974C617.561 367.974 617.773 368.291 617.879 368.503C618.196 369.137 618.513 369.771 618.83 370.406C619.042 370.723 618.936 371.04 618.724 371.357C615.129 376.326 611.64 381.294 608.151 386.263C607.94 386.58 607.622 386.791 607.305 386.686C605.296 386.474 602.759 387.848 601.49 390.28C600.01 393.134 600.856 396.623 603.287 397.68C605.508 398.526 607.834 397.891 609.737 395.671C611.112 394.191 611.957 391.548 611.006 389.328C610.9 389.011 610.9 388.8 611.006 388.377C614.495 383.514 617.879 378.757 621.262 373.894C621.579 373.471 621.791 373.471 622.108 373.683C623.059 374.106 624.011 374.528 625.068 374.846C625.491 374.951 625.808 375.163 626.02 375.586C627.183 377.806 628.98 378.863 631.518 378.757C631.835 378.757 632.047 378.863 632.152 379.18C633.21 382.246 634.373 385.311 635.536 388.377C635.747 388.906 635.641 389.223 635.324 389.751C633.21 392.606 633.633 396.411 636.276 397.891C638.919 399.266 642.62 397.68 643.994 394.508C645.686 390.703 643.783 387.003 639.977 387.108C639.554 387.108 639.342 387.108 639.236 386.686C638.179 383.726 637.122 380.871 636.064 377.911C635.853 377.488 636.064 377.277 636.382 376.96C638.813 374.846 639.977 372.308 639.871 369.243C639.871 368.608 640.399 365.014 640.505 364.38C640.611 363.851 640.822 363.746 641.351 363.746C646.109 363.746 650.761 363.851 655.519 363.957C655.942 363.957 656.048 364.063 656.154 364.486C656.576 365.86 657.422 366.811 658.585 367.34C660.911 368.397 663.978 367.234 665.669 364.486C667.467 361.526 666.727 357.72 663.978 356.663C661.546 355.711 658.903 356.663 657.211 359.306C656.894 359.728 656.682 359.94 656.154 359.94C651.396 359.94 646.638 359.834 641.774 359.728C641.351 359.728 641.245 359.623 641.14 359.094C640.822 356.24 639.765 354.02 637.862 352.223C637.227 351.588 637.227 351.588 637.862 350.743C641.034 346.197 644.312 341.651 647.484 337.106C647.906 336.471 648.329 336.154 649.069 336.154C651.713 336.154 654.25 334.04 654.99 331.186C655.731 328.331 654.568 325.688 652.136 324.948C649.915 324.314 647.801 325.16 646.109 327.168C644.734 328.754 644.1 331.08 644.946 333.3C645.052 333.617 645.157 333.934 644.946 334.357C641.351 339.326 637.862 344.294 634.267 349.368C633.95 349.791 633.738 349.791 633.315 349.791C632.152 349.791 630.989 349.474 629.826 349.791C628.452 350.003 627.394 349.897 626.337 349.157C626.337 349.157 626.126 349.051 626.02 348.946C625.703 348.734 625.491 348.523 625.385 348.206C623.694 343.66 622.108 339.114 620.416 334.674C620.205 334.04 620.205 333.511 620.733 332.983C620.945 332.771 621.05 332.454 621.262 332.137C622.636 329.494 622.108 326.111 619.464 324.948C616.821 323.786 613.543 325.266 612.063 328.226C610.16 332.031 612.063 336.048 615.975 335.943C616.398 335.943 616.61 335.943 616.715 336.471C617.984 339.96 619.147 343.343 620.416 346.726C620.628 347.36 620.839 347.888 621.05 348.523C615.658 350.108 612.698 353.703 611.746 359.306H611.957Z" fill="#003B2F"/><path d="M626.967 352.539C627.602 353.067 628.025 353.067 628.87 352.856C632.465 352.01 635.426 353.067 637.223 355.922C639.021 358.776 639.127 362.159 637.329 365.753C637.012 366.493 636.906 367.022 637.118 367.656C637.858 369.559 637.118 372.096 635.743 373.576C633.84 375.479 631.62 376.113 629.716 375.267C628.765 374.844 627.919 374.104 627.602 372.942C627.39 372.413 627.179 372.307 626.65 372.202C623.478 371.779 621.469 369.982 620.412 366.81C620.306 366.282 619.989 366.07 619.566 365.964C615.76 365.013 614.068 360.784 615.865 356.662C617.874 351.904 623.478 349.896 626.862 352.539H626.967ZM638.492 392.182C639.021 391.336 639.972 391.124 640.607 391.653C641.241 392.076 641.347 393.133 640.818 393.873C640.29 394.613 639.232 394.93 638.598 394.402C637.963 393.979 637.858 392.922 638.492 392.182ZM649.171 329.81C649.7 329.07 650.651 328.753 651.286 329.282C651.92 329.704 652.026 330.656 651.497 331.502C650.969 332.242 649.911 332.559 649.383 332.136C648.748 331.713 648.642 330.656 649.171 329.916V329.81ZM596.094 362.053C595.565 362.793 594.613 363.11 593.979 362.582C593.344 362.159 593.344 361.102 593.767 360.362C594.296 359.622 595.248 359.41 595.882 359.833C596.516 360.256 596.622 361.207 595.988 362.053H596.094ZM607.301 391.23C607.936 391.653 608.041 392.604 607.513 393.45C606.984 394.19 606.032 394.402 605.398 393.979C604.764 393.556 604.658 392.499 605.187 391.759C605.715 391.019 606.667 390.807 607.301 391.23ZM616.077 331.607C615.443 331.184 615.337 330.233 615.865 329.387C616.394 328.647 617.346 328.33 617.98 328.859C618.72 329.282 618.72 330.233 618.192 330.973C617.663 331.819 616.711 332.03 616.077 331.607ZM660.696 363.322C660.062 362.793 659.956 361.947 660.59 361.102C661.119 360.256 662.07 360.044 662.705 360.573C663.339 360.996 663.445 362.053 662.916 362.793C662.388 363.533 661.436 363.744 660.802 363.322H660.696Z" fill="#003B2F"/><path d="M1520.09 613.441C1522.95 615.872 1524.32 618.727 1524.11 622.004C1524.11 622.638 1524.22 622.955 1524.74 623.378C1532.78 629.932 1540.82 636.381 1548.85 642.935C1549.38 643.358 1549.7 643.464 1550.23 643.252C1553.82 642.195 1557.84 643.464 1560.69 646.529C1563.44 649.384 1564.29 653.507 1562.7 656.678C1561.86 658.475 1560.38 659.744 1558.26 660.272C1557.63 660.484 1557.42 660.801 1557.42 661.329C1556.78 670.315 1556.04 679.301 1555.41 688.287C1555.41 688.921 1555.51 689.344 1556.04 689.767C1559.95 692.938 1561.22 698.118 1559.11 701.501C1556.78 705.095 1551.92 706.047 1547.58 703.615C1546.95 703.192 1546.21 702.769 1545.68 702.347C1545.26 702.029 1544.94 701.924 1544.52 702.029C1535.74 704.567 1526.96 707.104 1518.19 709.641C1517.66 709.747 1517.55 710.064 1517.45 710.487C1517.13 716.512 1510.58 719.261 1504.76 715.878C1501.06 713.764 1498.95 710.169 1499.16 706.364C1499.16 705.729 1499.16 705.412 1498.52 704.884C1490.49 698.329 1482.45 691.881 1474.42 685.327C1473.89 684.904 1473.57 684.798 1473.04 685.009C1469.34 686.067 1465.53 684.798 1462.57 681.627C1459.61 678.455 1458.98 674.438 1460.78 671.267C1461.73 669.575 1463.21 668.412 1465.22 667.989C1465.64 667.884 1465.85 667.672 1465.85 667.144C1466.49 658.052 1467.23 648.961 1467.97 639.869C1467.97 639.341 1467.86 638.918 1467.33 638.601C1462.89 635.007 1461.94 629.298 1465.01 625.704C1467.44 622.849 1472.41 622.532 1476.21 624.858C1476.53 625.069 1476.85 625.175 1477.27 625.492C1478.22 626.232 1478.86 626.338 1479.81 626.021C1488.27 623.484 1496.73 621.052 1505.29 618.621C1505.92 618.409 1506.14 618.198 1506.14 617.564C1506.66 611.644 1512.9 609.001 1518.82 612.278C1519.35 612.595 1519.88 613.018 1520.3 613.335L1520.09 613.441ZM1507.19 685.644V685.855C1506.77 690.824 1506.45 695.792 1506.03 700.761C1506.03 701.078 1505.71 701.395 1505.4 701.395C1504.13 701.712 1502.96 702.347 1502.12 703.298C1499.37 706.469 1500.95 711.015 1503.6 713.447C1506.77 716.195 1511.74 716.829 1514.38 713.447C1516.71 710.487 1515.76 706.047 1512.16 703.192C1511.53 702.664 1511.32 702.241 1511.32 701.501C1511.74 696.215 1512.16 691.035 1512.48 685.749C1512.48 685.221 1512.69 684.904 1513.22 684.798C1516.07 683.635 1518.08 681.627 1519.14 678.772C1519.14 678.455 1519.56 678.244 1519.88 678.138C1520.73 677.715 1521.68 677.504 1522.52 677.081C1523.05 676.869 1523.37 676.975 1523.79 677.292C1530.14 682.472 1536.48 687.547 1542.82 692.727C1543.25 693.044 1543.46 693.361 1543.35 693.889C1542.93 696.532 1544.52 700.021 1547.69 701.924C1551.28 704.144 1556.15 703.404 1557.63 700.127C1559 697.272 1558.37 694.101 1555.62 691.352C1553.71 689.449 1550.33 688.075 1547.27 689.132C1546.84 689.238 1546.53 689.238 1546.1 688.921C1539.97 683.952 1533.84 678.878 1527.7 673.909C1527.18 673.487 1527.18 673.169 1527.49 672.747C1528.13 671.478 1528.76 670.315 1529.18 668.941C1529.4 668.307 1529.71 667.989 1530.24 667.672C1533.2 666.404 1534.79 663.972 1535 660.695C1535 660.272 1535.21 659.955 1535.63 659.849C1539.86 658.687 1543.99 657.418 1548.22 656.255C1548.85 656.044 1549.38 656.255 1550.01 656.678C1553.61 659.744 1558.79 659.532 1560.9 656.044C1563.02 652.661 1561.22 647.692 1557.1 645.472C1552.13 642.829 1547.05 645.155 1546.84 650.124C1546.84 650.652 1546.74 650.969 1546.21 651.075C1542.19 652.238 1538.28 653.401 1534.26 654.564C1533.63 654.775 1533.41 654.564 1532.99 654.035C1530.35 650.652 1527.07 648.855 1523.05 648.749C1522.31 648.749 1517.45 647.692 1516.6 647.481C1515.97 647.269 1515.76 646.952 1515.76 646.318C1516.29 640.081 1516.71 633.738 1517.24 627.501C1517.24 626.972 1517.45 626.761 1517.98 626.655C1519.77 626.232 1521.15 625.281 1521.89 623.695C1523.48 620.629 1522.21 616.507 1518.61 614.075C1514.81 611.432 1509.73 612.172 1508.14 615.767C1506.77 618.938 1507.83 622.532 1511 625.069C1511.53 625.492 1511.74 625.915 1511.74 626.549C1511.21 632.892 1510.79 639.235 1510.26 645.578C1510.26 646.107 1510.05 646.318 1509.41 646.318C1505.61 646.424 1502.54 647.692 1500 650.018C1499.16 650.758 1499.16 650.758 1498.1 649.912C1492.39 645.261 1486.57 640.504 1480.76 635.852C1479.91 635.218 1479.6 634.689 1479.7 633.738C1480.02 630.249 1477.38 626.655 1473.68 625.387C1469.97 624.118 1466.27 625.387 1465.11 628.664C1464.05 631.624 1465.01 634.372 1467.65 636.909C1469.66 638.812 1472.72 639.975 1475.79 639.024C1476.21 638.918 1476.64 638.812 1477.16 639.235C1483.51 644.415 1489.85 649.595 1496.2 654.669C1496.73 655.092 1496.73 655.409 1496.62 655.938C1496.41 657.418 1496.09 659.004 1496.2 660.589C1496.41 662.387 1496.2 663.761 1495.03 665.241C1494.93 665.347 1494.82 665.452 1494.72 665.664C1494.4 665.981 1494.08 666.404 1493.66 666.509C1487.53 668.307 1481.29 670.104 1475.16 671.901C1474.31 672.112 1473.57 672.112 1472.94 671.372C1472.62 671.055 1472.2 670.844 1471.88 670.632C1468.49 668.518 1463.95 668.941 1462.15 672.429C1460.35 675.812 1462.04 680.252 1465.85 682.578C1470.72 685.538 1476.32 683.107 1476.42 678.138C1476.42 677.609 1476.64 677.292 1477.16 677.187C1481.82 675.812 1486.47 674.438 1491.23 673.169C1492.07 672.958 1492.81 672.747 1493.66 672.429C1495.35 679.724 1499.9 684.058 1507.3 685.749L1507.19 685.644Z" fill="#003B2F"/><path d="M1499.48 665.137C1500.22 664.397 1500.22 663.763 1500 662.6C1499.26 657.737 1500.74 653.931 1504.87 651.711C1508.89 649.491 1513.33 649.703 1517.98 652.451C1518.93 652.98 1519.56 653.085 1520.52 652.874C1523.05 652.134 1526.44 653.191 1528.24 655.2C1530.56 657.843 1531.3 660.908 1530.03 663.34C1529.29 664.608 1528.24 665.665 1526.75 665.983C1526.12 666.194 1525.8 666.511 1525.7 667.145C1524.75 671.268 1522.21 673.911 1517.98 674.968C1517.34 675.18 1517.03 675.497 1516.82 676.025C1515.23 680.994 1509.41 682.897 1504.02 680.148C1497.89 676.977 1495.67 669.471 1499.48 665.137ZM1553.19 653.191C1552.13 652.345 1551.92 651.183 1552.55 650.337C1553.19 649.491 1554.56 649.491 1555.51 650.337C1556.47 651.077 1556.68 652.557 1556.15 653.297C1555.51 654.143 1554.14 654.143 1553.19 653.297V653.191ZM1471.03 633.634C1470.08 632.788 1469.77 631.52 1470.51 630.78C1471.14 629.934 1472.41 629.934 1473.47 630.78C1474.42 631.52 1474.73 632.894 1474.1 633.74C1473.47 634.48 1472.09 634.585 1471.14 633.74L1471.03 633.634ZM1509.41 707.105C1510.37 707.951 1510.68 709.22 1510.05 709.96C1509.41 710.7 1507.93 710.7 1507.09 709.96C1506.14 709.22 1505.93 707.845 1506.56 707C1507.19 706.154 1508.46 706.154 1509.52 707L1509.41 707.105ZM1549.28 694.737C1549.91 693.891 1551.18 693.891 1552.24 694.737C1553.19 695.583 1553.4 696.745 1552.76 697.591C1552.13 698.437 1550.76 698.437 1549.8 697.591C1548.85 696.745 1548.64 695.583 1549.28 694.737ZM1470.61 677.928C1469.98 678.774 1468.71 678.88 1467.65 678.034C1466.7 677.294 1466.38 676.025 1467.12 675.18C1467.76 674.334 1469.02 674.228 1469.98 675.18C1471.03 676.025 1471.25 677.188 1470.61 678.034V677.928ZM1516.71 621.265C1515.97 622.111 1514.81 622.111 1513.75 621.265C1512.69 620.42 1512.48 619.257 1513.22 618.411C1513.86 617.565 1515.23 617.565 1516.18 618.411C1517.13 619.257 1517.34 620.525 1516.71 621.265Z" fill="#003B2F"/></svg>