<?xml version="1.0" encoding="UTF-8"?><svg id="Layer_1" data-name="Layer 1" xmlns="http://www.w3.org/2000/svg" viewBox="0 0 192 108"><defs><style>.cls-1 {
        fill: #00ff94;
      }

      .cls-2 {
        fill: #003d2e;
      }

      .cls-3, .cls-4 {
        fill: #e3e7e3;
      }

      .cls-5 {
        fill: #fff;
      }

      .cls-5, .cls-4, .cls-6 {
        stroke-width: .45px;
      }

      .cls-5, .cls-4, .cls-6, .cls-7, .cls-8, .cls-9, .cls-10 {
        stroke-linecap: round;
        stroke-linejoin: round;
      }

      .cls-5, .cls-4, .cls-6, .cls-10 {
        stroke: #003d2e;
      }

      .cls-6, .cls-7, .cls-8, .cls-9, .cls-10 {
        fill: none;
      }

      .cls-7 {
        stroke: #163b2f;
      }

      .cls-7, .cls-8, .cls-9, .cls-10 {
        stroke-width: .34px;
      }

      .cls-8 {
        stroke: #00ff94;
      }

      .cls-9 {
        stroke: #003c2e;
      }</style></defs><rect class="cls-10" x="56.19" y="82.72" width="3.05" height="3.05" transform="translate(76.47 -16.14) rotate(45)"/><circle class="cls-9" cx="143.07" cy="17.85" r="2.1"/><path class="cls-3" d="M43.2,91.42h-4.83c1.53,0,2.77-1.12,2.77-2.51s-1.24-2.51-2.77-2.51h-13.87c-1.53,0-2.77,1.12-2.77,2.51h-4.26c-1.53,0-2.77,1.12-2.77,2.51s1.24,2.51,2.77,2.51h9.09c0,1.39,1.24,2.51,2.77,2.51h13.87c1.53,0,2.77-1.12,2.77-2.51s-1.24-2.51-2.77-2.51Z"/><path class="cls-3" d="M39.05,47.89h-4.83c1.53,0,2.77-1.24,2.77-2.77s-1.24-2.77-2.77-2.77h-13.87c-1.53,0-2.77,1.24-2.77,2.77h-4.26c-1.53,0-2.77,1.24-2.77,2.77s1.24,2.77,2.77,2.77h9.09c0,1.53,1.24,2.77,2.77,2.77h13.87c1.53,0,2.77-1.24,2.77-2.77s-1.24-2.77-2.77-2.77Z"/><g><line class="cls-10" x1="179.67" y1="52.74" x2="182.18" y2="54.19"/><line class="cls-10" x1="184.69" y1="52.74" x2="183.21" y2="53.59"/><line class="cls-10" x1="182.18" y1="54.19" x2="182.18" y2="57.11"/></g><line class="cls-9" x1="163.57" y1="66.14" x2="170.57" y2="66.14"/><line class="cls-9" x1="158.25" y1="66.14" x2="160.01" y2="66.14"/><line class="cls-9" x1="178.94" y1="96.17" x2="181.76" y2="96.17"/><line class="cls-8" x1="167.17" y1="91.43" x2="187.54" y2="91.43"/><line class="cls-9" x1="185.39" y1="96.15" x2="196.78" y2="96.15"/><line class="cls-9" x1="34.76" y1="89.62" x2="38.23" y2="89.62"/><line class="cls-8" x1="29.76" y1="80.42" x2="54.83" y2="80.42"/><line class="cls-9" x1="42.7" y1="89.61" x2="56.71" y2="89.61"/><line class="cls-8" x1="164.59" y1="61.09" x2="182.74" y2="61.09"/><line class="cls-9" x1="23.5" y1="38.16" x2="37.51" y2="38.16"/><g><line class="cls-7" x1="147.9" y1="59.71" x2="149.56" y2="61.37"/><line class="cls-7" x1="150.77" y1="62.58" x2="152.42" y2="64.23"/><line class="cls-7" x1="147.9" y1="64.23" x2="149.56" y2="62.58"/><line class="cls-7" x1="150.77" y1="61.37" x2="152.42" y2="59.71"/></g><g><line class="cls-7" x1="23.79" y1="57.62" x2="23.79" y2="59.96"/><line class="cls-7" x1="23.79" y1="61.67" x2="23.79" y2="64.01"/><line class="cls-7" x1="20.6" y1="60.82" x2="22.94" y2="60.82"/><line class="cls-7" x1="24.65" y1="60.82" x2="26.99" y2="60.82"/></g><rect class="cls-1" x="141.79" y="22.66" width="20.62" height="5.88" rx="2.94" ry="2.94" transform="translate(304.19 51.21) rotate(-180)"/><rect class="cls-1" x="147.9" y="14.41" width="33.76" height="9.63" rx="4.04" ry="4.04" transform="translate(329.57 38.45) rotate(-180)"/><path class="cls-1" d="M18.66,45.04H.64c.06,3.26,0,6.44-.05,9.63H18.66c2.66,0,4.81-2.16,4.81-4.81s-2.16-4.81-4.81-4.81Z"/><g><path class="cls-5" d="M118.45,89.64c-.19,3.7-.85,11.05-6.17,10.24-.53-.08-1.04-.24-1.51-.46-1.14-.53-2.11-1.43-2.73-2.56-1.82-3.32-.86-7.12,.25-10.42,.06-.18,.12-.35,.18-.53,2.94,1.19,7,2.5,9.95,3.68,.02,0,.04,.03,.03,.05Z"/><path class="cls-4" d="M108.29,86.44c-1.11,3.3-2.07,7.1-.25,10.42,.62,1.12,1.59,2.03,2.73,2.56h0c-7.74-3.94-15.67-7.43-23.53-11.13-5.01-2.37-10.63-3.91-15.2-7.14-7.09-5.01-4.96-13.95-2.19-20.79,3.49-8.63,8.22-16.67,12.13-25.11,3.9-8.41,7.02-17.42,6.97-26.7,0-.04,.03-.06,.07-.05,12.61,5.85,25.28,11.59,37.92,17.35,.66,.3,1.35,.62,1.79,1.2,.54,.7,.61,1.65,.63,2.54,.61,21.7-14.21,37.02-20.89,56.32-.06,.17-.13,.35-.18,.53Z"/></g><line class="cls-6" x1="88.52" y1="29.56" x2="104.54" y2="37.04"/><line class="cls-6" x1="81.22" y1="48.36" x2="97.24" y2="55.83"/><line class="cls-6" x1="106.44" y1="37.93" x2="111.44" y2="40.26"/><line class="cls-6" x1="113.07" y1="41.02" x2="118.07" y2="43.35"/><line class="cls-6" x1="87.42" y1="32.2" x2="103.44" y2="39.67"/><line class="cls-6" x1="84.71" y1="37.99" x2="92.42" y2="41.59"/><line class="cls-6" x1="93.74" y1="42.2" x2="98.31" y2="44.33"/><line class="cls-6" x1="79.94" y1="50.67" x2="82.96" y2="52.09"/><line class="cls-6" x1="84.28" y1="52.7" x2="88.85" y2="54.83"/><line class="cls-6" x1="105.34" y1="40.56" x2="110.34" y2="42.89"/><line class="cls-6" x1="111.98" y1="43.66" x2="116.97" y2="45.99"/><line class="cls-6" x1="115.48" y1="49.27" x2="99.56" y2="41.59"/><line class="cls-6" x1="97.66" y1="40.68" x2="92.7" y2="38.28"/><line class="cls-6" x1="91.07" y1="37.5" x2="86.11" y2="35.11"/><g><path class="cls-2" d="M102.37,61.16c-4.51-.09-8.67,3.87-9.27,8.87-.12,1-.09,1.99,.09,2.94,.12,.65,.73,1.02,1.36,.82,.61-.2,1.02-.91,.9-1.59-.15-.75-.17-1.54-.05-2.32,.49-3.36,3.29-6.09,6.36-6.19,3.43-.12,5.89,2.92,5.45,6.62-.41,3.45-3.19,6.25-6.34,6.39,0,0-1.16,.05-1.73,.13-.29,.04-.51,.09-.66,.11-.07,.02-.12-.05-.09-.12l.32-1.05,1.7-5.38c.21-.67-.1-1.34-.69-1.5-.59-.15-1.24,.26-1.46,.93,0,0-4.12,13.09-4.15,13.23-.21,.67,.1,1.34,.69,1.5,.59,.15,1.24-.26,1.46-.93,.04-.14,.59-1.88,.59-1.88,.41-1.3,1.5-2.28,2.72-2.44,.27-.04,1.29-.1,1.29-.1,4.27-.27,8.07-4.1,8.63-8.85,.59-4.99-2.62-9.1-7.13-9.19h0Z"/><path class="cls-1" d="M100.5,81.94c-.72-.19-1.5,.31-1.76,1.12,0,0,0,.01,0,.02-.26,.81,.12,1.62,.83,1.81,0,0,.01,0,.02,0,.72,.19,1.5-.31,1.76-1.12,0,0,0-.01,0-.02,.25-.83-.11-1.63-.85-1.81Z"/></g><circle class="cls-9" cx="58.85" cy="16.62" r="1.79"/><line class="cls-8" x1="46.63" y1="17.45" x2="44.21" y2="17.45"/><line class="cls-9" x1="56.76" y1="23.41" x2="39.24" y2="23.41"/><line class="cls-8" x1="41.08" y1="17.46" x2="31.29" y2="17.46"/></svg>