<svg xmlns="http://www.w3.org/2000/svg" viewBox="0 0 16 11"><path fill="#003b2f" d="M13.21 3.72c-.04-.12-.09-.24-.14-.36v-.02A5.5 5.5 0 0 0 10.15.43C9.52.17 8.86.03 8.19 0H8a5.6 5.6 0 0 0-2.14.43 5.5 5.5 0 0 0-2.92 2.91v.02c-.05.12-.1.24-.14.36a5.63 5.63 0 0 0 0 3.56c.04.12.09.24.14.36v.02a5.5 5.5 0 0 0 2.92 2.91c.68.29 1.4.43 2.14.43h.19c.68-.02 1.33-.17 1.95-.43.65-.28 1.24-.67 1.75-1.18s.89-1.08 1.17-1.73v-.02c.05-.12.1-.24.14-.36a5.63 5.63 0 0 0 0-3.56ZM4.65 8.85c-.36-.36-.65-.76-.87-1.19h1.71c.13.6.31 1.15.53 1.63.12.26.25.48.4.69-.66-.23-1.26-.61-1.77-1.12ZM3.26 5.49c0-.48.07-.95.21-1.4h1.89c-.06.45-.09.92-.09 1.4s.03.95.09 1.4H3.47c-.14-.45-.21-.92-.21-1.4m8.09-3.34c.36.36.65.76.87 1.19h-1.53c-.13-.6-.31-1.15-.53-1.63-.1-.22-.21-.42-.33-.59.56.24 1.08.58 1.53 1.03zm-3.21 8.09h-.07c-.48-.01-.98-.48-1.36-1.28-.18-.38-.33-.82-.44-1.3h3.64c-.11.48-.26.91-.44 1.3-.37.78-.85 1.25-1.32 1.28zM8.07.77h.07c.47.03.95.5 1.32 1.28.18.38.33.82.44 1.3H6.26c.11-.48.26-.91.44-1.3.38-.8.88-1.27 1.36-1.28zm2.07 4.74c0 .48-.03.95-.09 1.4H6.13c-.06-.45-.09-.92-.09-1.4s.03-.95.09-1.4h3.92c.06.45.09.92.09 1.4M6.42 1.03c-.14.2-.27.43-.4.69-.23.48-.41 1.03-.53 1.63H3.78c.22-.43.51-.84.87-1.19.51-.51 1.11-.89 1.77-1.12Zm3.4 8.84c.12-.18.23-.38.33-.59.23-.48.41-1.03.53-1.63h1.53c-.22.43-.51.84-.87 1.19-.45.45-.96.79-1.53 1.03zm.99-2.98c.06-.45.09-.92.09-1.4s-.03-.95-.09-1.4h1.71c.14.45.21.92.21 1.4s-.07.95-.21 1.4z"/></svg>