<svg xmlns="http://www.w3.org/2000/svg" height="150" width="150" viewBox="0 0 37 37"><path fill="#fff" d="M0 0h37v37H0z"/><path d="M0 0h7v1H0zm10 0h1v1h-1zm2 0h4v1h-4zm5 0h3v1h-3zm4 0h1v1h-1zm2 0h1v1h-1zm5 0h1v1h-1zm2 0h7v1h-7zM0 1h1v1H0zm6 0h1v1H6zm2 0h1v1H8zm2 0h1v1h-1zm3 0h5v1h-5zm7 0h3v1h-3zm4 0h2v1h-2zm3 0h2v1h-2zm3 0h1v1h-1zm6 0h1v1h-1zM0 2h1v1H0zm2 0h3v1H2zm4 0h1v1H6zm6 0h2v1h-2zm3 0h1v1h-1zm3 0h2v1h-2zm3 0h1v1h-1zm2 0h2v1h-2zm7 0h1v1h-1zm2 0h3v1h-3zm4 0h1v1h-1zM0 3h1v1H0zm2 0h3v1H2zm4 0h1v1H6zm2 0h3v1H8zm4 0h1v1h-1zm2 0h2v1h-2zm3 0h2v1h-2zm3 0h1v1h-1zm2 0h1v1h-1zm2 0h4v1h-4zm6 0h1v1h-1zm2 0h3v1h-3zm4 0h1v1h-1zM0 4h1v1H0zm2 0h3v1H2zm4 0h1v1H6zm3 0h1v1H9zm6 0h2v1h-2zm4 0h1v1h-1zm2 0h1v1h-1zm2 0h1v1h-1zm5 0h1v1h-1zm2 0h1v1h-1zm2 0h3v1h-3zm4 0h1v1h-1zM0 5h1v1H0zm6 0h1v1H6zm2 0h2v1H8zm3 0h2v1h-2zm7 0h1v1h-1zm3 0h2v1h-2zm5 0h2v1h-2zm4 0h1v1h-1zm6 0h1v1h-1zM0 6h7v1H0zm8 0h1v1H8zm2 0h1v1h-1zm2 0h1v1h-1zm2 0h1v1h-1zm2 0h1v1h-1zm2 0h1v1h-1zm2 0h1v1h-1zm2 0h1v1h-1zm2 0h1v1h-1zm2 0h1v1h-1zm2 0h1v1h-1zm2 0h7v1h-7zM9 7h3v1H9zm5 0h1v1h-1zm2 0h1v1h-1zm5 0h1v1h-1zm2 0h2v1h-2zm4 0h2v1h-2zM0 8h5v1H0zm6 0h4v1H6zm5 0h1v1h-1zm6 0h2v1h-2zm5 0h1v1h-1zm2 0h2v1h-2zm3 0h3v1h-3zm4 0h1v1h-1zm2 0h1v1h-1zm2 0h1v1h-1zM4 9h1v1H4zm3 0h4v1H7zm5 0h4v1h-4zm8 0h2v1h-2zm3 0h1v1h-1zm3 0h1v1h-1zm3 0h1v1h-1zm6 0h1v1h-1zM0 10h4v1H0zm5 0h4v1H5zm8 0h6v1h-6zm7 0h3v1h-3zm4 0h2v1h-2zm3 0h2v1h-2zm3 0h1v1h-1zm2 0h2v1h-2zm4 0h1v1h-1zM2 11h1v1H2zm3 0h1v1H5zm3 0h1v1H8zm4 0h2v1h-2zm3 0h2v1h-2zm3 0h2v1h-2zm3 0h4v1h-4zm5 0h2v1h-2zm4 0h2v1h-2zm3 0h1v1h-1zm3 0h1v1h-1zM2 12h2v1H2zm4 0h3v1H6zm6 0h1v1h-1zm2 0h5v1h-5zm8 0h1v1h-1zm3 0h8v1h-8zm9 0h3v1h-3zM5 13h1v1H5zm4 0h1v1H9zm10 0h3v1h-3zm4 0h2v1h-2zm12 0h1v1h-1zM0 14h3v1H0zm4 0h4v1H4zm7 0h2v1h-2zm4 0h4v1h-4zm6 0h2v1h-2zm6 0h1v1h-1zm2 0h2v1h-2zm4 0h1v1h-1zm3 0h1v1h-1zM5 15h1v1H5zm2 0h2v1H7zm3 0h2v1h-2zm4 0h1v1h-1zm4 0h1v1h-1zm2 0h2v1h-2zm3 0h1v1h-1zm3 0h2v1h-2zm4 0h2v1h-2zm3 0h1v1h-1zm3 0h1v1h-1zM0 16h1v1H0zm4 0h1v1H4zm2 0h2v1H6zm5 0h1v1h-1zm4 0h4v1h-4zm5 0h1v1h-1zm5 0h1v1h-1zm3 0h1v1h-1zm2 0h1v1h-1zm2 0h1v1h-1zm2 0h1v1h-1zm2 0h1v1h-1zM1 17h1v1H1zm2 0h1v1H3zm4 0h1v1H7zm2 0h1v1H9zm3 0h3v1h-3zm5 0h3v1h-3zm4 0h4v1h-4zm5 0h1v1h-1zm3 0h1v1h-1zm2 0h1v1h-1zm4 0h1v1h-1zM0 18h1v1H0zm3 0h1v1H3zm2 0h3v1H5zm8 0h5v1h-5zm9 0h1v1h-1zm3 0h3v1h-3zm4 0h2v1h-2zm3 0h3v1h-3zm4 0h1v1h-1zM0 19h2v1H0zm4 0h1v1H4zm3 0h4v1H7zm5 0h2v1h-2zm4 0h1v1h-1zm2 0h5v1h-5zm6 0h1v1h-1zm7 0h1v1h-1zm4 0h2v1h-2zM1 20h1v1H1zm4 0h2v1H5zm3 0h2v1H8zm4 0h1v1h-1zm2 0h5v1h-5zm8 0h1v1h-1zm3 0h4v1h-4zm5 0h5v1h-5zm6 0h1v1h-1zM0 21h4v1H0zm7 0h1v1H7zm3 0h1v1h-1zm9 0h3v1h-3zm4 0h2v1h-2zm6 0h1v1h-1zm4 0h1v1h-1zM1 22h2v1H1zm3 0h5v1H4zm6 0h3v1h-3zm5 0h2v1h-2zm6 0h1v1h-1zm4 0h1v1h-1zm2 0h1v1h-1zm3 0h3v1h-3zm4 0h3v1h-3zM0 23h1v1H0zm2 0h1v1H2zm3 0h1v1H5zm2 0h2v1H7zm4 0h1v1h-1zm3 0h2v1h-2zm4 0h7v1h-7zm10 0h2v1h-2zM0 24h1v1H0zm4 0h1v1H4zm2 0h1v1H6zm4 0h2v1h-2zm6 0h3v1h-3zm9 0h1v1h-1zm2 0h1v1h-1zm2 0h6v1h-6zm7 0h1v1h-1zM0 25h3v1H0zm4 0h2v1H4zm4 0h1v1H8zm4 0h3v1h-3zm7 0h6v1h-6zm7 0h1v1h-1zm2 0h1v1h-1zm5 0h1v1h-1zm2 0h1v1h-1zM0 26h1v1H0zm2 0h1v1H2zm4 0h1v1H6zm2 0h2v1H8zm5 0h3v1h-3zm5 0h1v1h-1zm3 0h1v1h-1zm5 0h2v1h-2zm4 0h1v1h-1zm2 0h1v1h-1zm4 0h1v1h-1zM0 27h1v1H0zm4 0h2v1H4zm6 0h1v1h-1zm2 0h2v1h-2zm6 0h5v1h-5zm8 0h1v1h-1zm2 0h1v1h-1zm3 0h1v1h-1zm5 0h1v1h-1zM0 28h1v1H0zm3 0h2v1H3zm3 0h2v1H6zm3 0h1v1H9zm3 0h1v1h-1zm2 0h1v1h-1zm2 0h3v1h-3zm8 0h11v1H24zm12 0h1v1h-1zM8 29h3v1H8zm9 0h7v1h-7zm11 0h1v1h-1zm4 0h2v1h-2zm3 0h1v1h-1zM0 30h7v1H0zm8 0h2v1H8zm3 0h2v1h-2zm4 0h1v1h-1zm2 0h1v1h-1zm3 0h1v1h-1zm2 0h1v1h-1zm2 0h2v1h-2zm4 0h1v1h-1zm2 0h1v1h-1zm2 0h1v1h-1zm4 0h1v1h-1zM0 31h1v1H0zm6 0h1v1H6zm5 0h1v1h-1zm3 0h1v1h-1zm4 0h2v1h-2zm3 0h1v1h-1zm3 0h1v1h-1zm2 0h3v1h-3zm6 0h2v1h-2zm4 0h1v1h-1zM0 32h1v1H0zm2 0h3v1H2zm4 0h1v1H6zm2 0h1v1H8zm3 0h1v1h-1zm4 0h4v1h-4zm7 0h2v1h-2zm3 0h1v1h-1zm2 0h6v1h-6zm7 0h3v1h-3zM0 33h1v1H0zm2 0h3v1H2zm4 0h1v1H6zm2 0h2v1H8zm4 0h3v1h-3zm7 0h3v1h-3zm4 0h2v1h-2zm3 0h3v1h-3zm4 0h7v1h-7zM0 34h1v1H0zm2 0h3v1H2zm4 0h1v1H6zm2 0h3v1H8zm5 0h3v1h-3zm5 0h1v1h-1zm3 0h2v1h-2zm4 0h1v1h-1zm4 0h1v1h-1zm4 0h1v1h-1zm2 0h2v1h-2zM0 35h1v1H0zm6 0h1v1H6zm2 0h2v1H8zm4 0h2v1h-2zm7 0h1v1h-1zm2 0h2v1h-2zm7 0h1v1h-1zm2 0h2v1h-2zm3 0h1v1h-1zm3 0h1v1h-1zM0 36h7v1H0zm8 0h1v1H8zm2 0h1v1h-1zm2 0h1v1h-1zm2 0h5v1h-5zm6 0h1v1h-1zm5 0h1v1h-1zm2 0h1v1h-1zm3 0h1v1h-1zm4 0h3v1h-3z"/></svg>