<svg xmlns="http://www.w3.org/2000/svg" viewBox="0 0 995.6 803.5"><path d="M496.7 736.9h-1.6c-.2 0-.4-.2-.4-.5 0-.2.2-.4.4-.4h3.5c.2 0 .5.2.5.4s-.2.5-.4.5h-2m-8.7-.2c-1.2 0-2.4-.1-3.6-.1-.2 0-.4-.2-.4-.5 0-.2.2-.4.4-.4l3.5.1c.2 0 .4.2.4.4.1.3 0 .5-.3.5m17.7 0c-.2 0-.4-.2-.4-.4s.2-.4.4-.5c1.2 0 2.4-.1 3.5-.1.2 0 .4.2.4.5 0 .2-.2.4-.4.4-1.1.1-2.3.1-3.5.1Zm-28.3-.4c-1.2-.1-2.4-.1-3.6-.2-.2 0-.4-.2-.4-.5 0-.2.2-.4.4-.4 1.2.1 2.4.2 3.5.2.2 0 .4.2.4.5.1.2-.1.4-.3.4m39 0c-.2 0-.4-.2-.4-.4s.2-.5.4-.5c1.2-.1 2.4-.1 3.5-.2.2 0 .4.2.4.5 0 .2-.2.4-.4.4-1.1 0-2.3.1-3.5.2Zm-49.6-.8-3.6-.3c-.2 0-.4-.2-.4-.5 0-.2.2-.4.5-.4 1.2.1 2.4.2 3.5.3.2 0 .4.2.4.5 0 .2-.2.4-.4.4m60.2 0c-.2 0-.4-.2-.4-.4s.2-.5.4-.5c1.2-.1 2.4-.2 3.5-.3.2 0 .5.1.5.4 0 .2-.1.5-.4.5h-.1c-1.1.1-2.3.2-3.5.3Zm-70.8-1.1c-1.2-.1-2.4-.3-3.6-.4-.2 0-.4-.3-.4-.5s.3-.4.5-.4c1.2.2 2.4.3 3.5.5.2 0 .4.2.4.5 0 .1-.2.3-.4.3m81.4 0c-.2 0-.4-.2-.4-.4s.2-.4.4-.4c1.2-.1 2.3-.3 3.5-.4h.1c.2 0 .4.2.4.4s-.1.5-.4.5c-1.2 0-2.4.1-3.6.3Zm-92-1.4-3.6-.6c-.2 0-.4-.3-.4-.5s.3-.4.5-.4c1.2.2 2.3.4 3.5.6.2 0 .4.3.4.5s-.2.4-.4.4m102.5-.1c-.2 0-.4-.2-.4-.4s.1-.5.3-.5c1.2-.2 2.3-.4 3.5-.6.2 0 .5.1.5.4 0 .2-.1.5-.4.5-1.1.2-2.2.4-3.5.6m-113-1.7c-1.3-.2-2.4-.4-3.6-.7-.2 0-.4-.3-.4-.5s.3-.4.5-.4c1.2.2 2.3.5 3.5.7.2.1.4.3.4.5s-.2.4-.4.4m123.5-.1c-.2 0-.4-.2-.4-.4s.2-.4.4-.4c1.2-.2 2.3-.4 3.5-.7.2-.1.4 0 .5.3v.1c0 .2-.1.5-.4.5-1.2.2-2.3.4-3.6.6M424.7 729c-1.3-.3-2.4-.5-3.6-.8-.2-.1-.4-.3-.3-.5 0-.2.2-.4.5-.3h.1c1.2.3 2.3.5 3.5.8.2.1.4.3.3.5s-.3.4-.5.3m144.4 0c-.2 0-.4-.1-.4-.3-.1-.2.1-.5.3-.5 1.2-.3 2.3-.5 3.5-.8.2-.1.5.1.5.3.1.2-.1.5-.3.5-1.2.2-2.4.5-3.6.8m-154.8-2.4h-.1c-1.2-.3-2.3-.6-3.4-.9-.2-.1-.4-.3-.3-.5.1-.2.3-.4.5-.3 1.1.3 2.3.6 3.4.9.2.1.4.3.3.5 0 .2-.2.3-.4.3m165.1-.1c-.2 0-.4-.2-.4-.5 0-.2.1-.4.3-.4 1.1-.3 2.3-.6 3.4-.9.2 0 .5.1.5.3.1.2-.1.5-.3.5-1.1.3-2.3.6-3.4.9l-.1.1m-175.3-2.7h-.1c-1.1-.3-2.3-.7-3.4-1-.2-.1-.4-.3-.3-.5s.3-.4.6-.3c1.1.3 2.3.7 3.4 1 .2.1.4.3.3.5-.2.2-.3.3-.5.3m185.6-.1c-.2 0-.4-.2-.4-.4s.1-.4.3-.4c1.1-.3 2.3-.7 3.4-1 .2-.1.5.1.6.3s-.1.5-.3.6c-1.1.3-2.3.7-3.4 1l-.2-.1m-195.8-3h-.1c-1.1-.4-2.3-.7-3.4-1.1-.2-.1-.4-.3-.3-.6.1-.2.3-.4.6-.3 1.1.4 2.2.8 3.4 1.1.2.1.4.3.3.6-.2.2-.3.3-.5.3m206-.1c-.2 0-.4-.1-.4-.3-.1-.2.1-.5.3-.6 1.1-.4 2.2-.7 3.4-1.1.2-.1.5 0 .6.3.1.2 0 .5-.3.6-1.1.4-2.3.7-3.4 1.1h-.2m-216.1-3.4h-.2l-3.4-1.2c-.2-.1-.3-.3-.3-.6.1-.2.3-.3.6-.3l3.3 1.2c.2.1.3.3.3.6 0 .2-.2.3-.3.3m226.1-.1c-.2 0-.4-.2-.4-.4s.1-.4.3-.4l3.3-1.2c.2-.1.5 0 .6.3.1.2 0 .5-.3.6l-3.3 1.2-.2-.1m-236.1-3.7h-.2c-1.1-.4-2.2-.9-3.3-1.3-.2-.1-.4-.3-.3-.6.1-.2.3-.4.6-.3 1.1.5 2.2.9 3.3 1.3.2.1.3.3.3.6-.1.2-.3.3-.4.3m246.1-.1c-.2 0-.4-.2-.4-.4s.1-.3.3-.4c1.1-.4 2.2-.9 3.3-1.3.2-.1.5 0 .6.2s0 .5-.2.6c-1.1.5-2.2.9-3.3 1.3h-.3m-256-4h-.2c-1.1-.5-2.2-.9-3.3-1.4-.2-.1-.3-.4-.2-.6s.4-.3.6-.2c1.1.5 2.2 1 3.2 1.4.2.1.3.4.2.6 0 .1-.1.2-.3.2m265.8 0c-.2 0-.3-.1-.4-.3-.1-.2 0-.5.2-.6 1.1-.5 2.2-.9 3.2-1.4.2-.1.5 0 .6.2.1.2 0 .5-.2.6-1.1.5-2.2 1-3.2 1.4-.1.1-.2.1-.2.1m-275.5-4.4h-.2c-1.1-.5-2.2-1-3.2-1.5-.2-.1-.3-.4-.2-.6s.4-.3.6-.2c1.1.5 2.1 1 3.2 1.5.2.1.3.4.2.6-.1.1-.3.2-.4.2m285.1 0c-.2 0-.5-.2-.5-.4s.1-.3.3-.4c1.1-.5 2.1-1 3.2-1.5.2-.1.5 0 .6.2s0 .5-.2.6c-1.1.5-2.1 1-3.2 1.5h-.2m-294.7-4.7h-.2c-1.1-.5-2.1-1.1-3.2-1.6-.2-.1-.3-.4-.2-.6s.4-.3.6-.2c1 .5 2.1 1.1 3.1 1.6.2.1.3.4.2.6 0 .1-.1.2-.3.2m304.3 0c-.2 0-.3-.1-.4-.2-.1-.2 0-.5.2-.6 1-.5 2.1-1.1 3.1-1.6.2-.1.5 0 .6.2s0 .5-.2.6c-1 .5-2.1 1.1-3.1 1.6h-.2m-313.7-5c-.07 0-.13-.03-.2-.1-1-.6-2.1-1.2-3.1-1.7-.2-.1-.3-.4-.2-.6s.4-.3.6-.2c1 .6 2.1 1.2 3.1 1.7.2.1.3.4.2.6-.1.2-.2.3-.4.3m323 0c-.2 0-.3-.1-.4-.2-.1-.2 0-.5.2-.6 1-.6 2.1-1.1 3.1-1.7.2-.1.5-.1.6.1.1.2.1.5-.2.6-1 .6-2.1 1.2-3.1 1.7 0 .1-.1.1-.2.1m9.2-5.3c-.2 0-.3-.1-.4-.2-.1-.2 0-.5.2-.6l3-1.8c.2-.1.5-.1.6.1.1.2.1.5-.1.6l-3 1.8c-.1 0-.2.1-.3.1m-341.5 0c-.1 0-.2 0-.2-.1-1-.6-2-1.2-3.1-1.8-.2-.1-.3-.4-.2-.6.1-.2.4-.3.6-.2l3 1.8c.2.1.3.4.1.6.1.2 0 .3-.2.3m350.5-5.6c-.2 0-.3-.1-.4-.2-.1-.2-.1-.5.1-.6 1-.6 2-1.3 3-1.9.2-.1.5-.1.6.1.1.2.1.5-.1.6-1 .6-2 1.3-3 1.9 0 .1-.1.1-.2.1m-359.5-.1c-.1 0-.2 0-.2-.1-1-.6-2-1.3-3-1.9-.2-.1-.3-.4-.1-.6.1-.2.4-.3.6-.1 1 .7 2 1.3 3 1.9.2.1.3.4.2.6-.2.2-.4.2-.5.2m368.4-5.8c-.1 0-.3-.1-.4-.2-.1-.2-.1-.5.1-.6 1-.7 1.9-1.3 2.9-2 .2-.1.5-.1.6.1.1.2.1.5-.1.6-1 .7-1.9 1.4-2.9 2 0 .1-.1.1-.2.1m-377.3-.1c-.1 0-.2 0-.2-.1-1-.7-2-1.3-2.9-2-.2-.1-.2-.4-.1-.6.1-.2.4-.2.6-.1 1 .7 1.9 1.4 2.9 2 .2.1.3.4.1.6-.1.2-.2.2-.4.2m386-6.1c-.1 0-.3-.1-.4-.2-.1-.2-.1-.5.1-.6.9-.7 1.9-1.4 2.8-2.1.2-.1.5-.1.6.1.2.2.1.5-.1.6-.9.7-1.9 1.4-2.9 2.1.1.1 0 .1-.1.1m-394.7 0c-.1 0-.2 0-.3-.1-1-.7-1.9-1.4-2.9-2.1-.2-.1-.2-.4-.1-.6.1-.2.4-.2.6-.1.9.7 1.9 1.4 2.8 2.1.2.1.2.4.1.6.1.1 0 .2-.2.2m403.1-6.4c-.1 0-.3-.1-.4-.2-.1-.2-.1-.5.1-.6.9-.7 1.8-1.5 2.8-2.2.2-.1.5-.1.6.1.1.2.1.5-.1.6-.9.7-1.9 1.5-2.8 2.2 0 .1-.1.1-.2.1m-411.5-.1c-.1 0-.2 0-.3-.1-.9-.7-1.9-1.5-2.8-2.2-.2-.2-.2-.4-.1-.6s.4-.2.6-.1c.9.7 1.8 1.5 2.8 2.2.2.2.2.4.1.6-.1.1-.2.2-.3.2m419.8-6.6c-.1 0-.3-.1-.3-.2-.2-.2-.1-.5.1-.6.9-.8 1.8-1.5 2.7-2.3.2-.2.5-.1.6.1.2.2.1.5 0 .6-.9.8-1.8 1.5-2.7 2.3-.2.1-.3.1-.4.1m-428.1-.1c-.1 0-.2 0-.3-.1-.9-.8-1.8-1.5-2.7-2.3-.2-.2-.2-.4-.1-.6.2-.2.4-.2.6-.1.9.8 1.8 1.5 2.7 2.3.2.2.2.4.1.6-.1.1-.2.2-.3.2m436.1-6.9c-.1 0-.2-.1-.3-.2-.2-.2-.2-.4 0-.6.9-.8 1.8-1.6 2.6-2.4.2-.2.5-.2.6 0 .2.2.2.5 0 .6-.9.8-1.8 1.6-2.6 2.4-.1.2-.2.2-.3.2m-444.2-.1c-.1 0-.2 0-.3-.1-.9-.8-1.8-1.6-2.6-2.4-.2-.2-.2-.4 0-.6.2-.2.4-.2.6 0 .9.8 1.8 1.6 2.6 2.4.2.2.2.4 0 .6 0 .1-.1.1-.3.1m452.1-7.1c-.2 0-.4-.2-.4-.4 0-.1.1-.2.1-.3.9-.8 1.7-1.6 2.6-2.5.2-.2.5-.2.6 0 .2.2.2.5 0 .6-.9.8-1.7 1.6-2.6 2.5-.1.1-.2.1-.3.1m-459.9-.1c-.1 0-.2 0-.3-.1-.9-.8-1.7-1.6-2.6-2.5-.2-.2-.2-.4 0-.6.2-.2.4-.2.6 0 .8.8 1.7 1.6 2.6 2.5.2.2.2.5 0 .6-.1.1-.2.1-.3.1m467.4-7.3c-.1 0-.2 0-.3-.1-.2-.2-.2-.5 0-.6l2.5-2.5c.2-.2.4-.2.6 0 .2.2.2.5 0 .6-.8.9-1.7 1.7-2.5 2.5 0 0-.1.1-.3.1m-475-.2c-.1 0-.2 0-.3-.1-.8-.9-1.7-1.7-2.5-2.6-.2-.2-.2-.5 0-.6.2-.2.4-.2.6 0 .8.9 1.6 1.7 2.5 2.5.2.2.2.5 0 .6 0 .2-.2.2-.3.2m482.4-7.5c-.1 0-.2 0-.3-.1-.2-.2-.2-.4 0-.6.8-.9 1.6-1.7 2.4-2.6.2-.2.4-.2.6-.1.2.2.2.4.1.6-.8.9-1.6 1.7-2.4 2.6-.2.1-.3.2-.4.2m-489.7-.2c-.1 0-.2-.1-.3-.1-.8-.9-1.6-1.7-2.4-2.6-.2-.2-.1-.5 0-.6.2-.2.5-.2.6 0 .8.9 1.6 1.7 2.4 2.6.2.2.2.5 0 .6-.1.1-.2.1-.3.1m496.8-7.8c-.2 0-.4-.2-.4-.4 0-.1 0-.2.1-.3.8-.9 1.5-1.8 2.3-2.7.2-.2.4-.2.6 0 .2.2.2.4.1.6-.8.9-1.5 1.8-2.3 2.7-.1.1-.3.1-.4.1m-503.9-.1c-.1 0-.3-.1-.3-.2-.8-.9-1.6-1.8-2.3-2.7-.2-.2-.2-.5 0-.6.2-.2.5-.2.6 0 .8.9 1.5 1.8 2.3 2.7.2.2.1.5 0 .6-.1.2-.2.2-.3.2m510.8-8c-.1 0-.2 0-.3-.1-.2-.2-.2-.4-.1-.6.7-.9 1.5-1.8 2.2-2.8.1-.2.4-.2.6-.1.2.1.2.4.1.6-.7.9-1.5 1.8-2.2 2.8-.1.1-.2.2-.3.2m-517.6-.1c-.1 0-.3-.1-.3-.2-.7-.9-1.5-1.8-2.2-2.8-.2-.2-.1-.5.1-.6.2-.1.5-.1.6.1.7.9 1.5 1.8 2.2 2.8.1.2.1.5-.1.6-.2 0-.2.1-.3.1m524.1-8.3c-.1 0-.2 0-.3-.1-.2-.1-.2-.4-.1-.6.7-.9 1.4-1.9 2.1-2.8.1-.2.4-.2.6-.1.2.1.2.4.1.6-.7.9-1.4 1.9-2.1 2.8 0 .1-.1.2-.3.2m-530.7-.1c-.1 0-.3-.1-.4-.2-.7-.9-1.4-1.9-2.1-2.8-.2-.2-.1-.5.1-.6.2-.2.5-.1.6.1.7.9 1.4 1.9 2.1 2.8.1.2.1.5-.1.6 0 .1-.1.1-.2.1m537.1-8.5c-.1 0-.2 0-.2-.1-.2-.1-.2-.4-.1-.6.7-1 1.4-1.9 2-2.9.1-.2.4-.3.6-.1.2.1.2.4.1.6-.7 1-1.4 1.9-2 2.9-.2.2-.3.2-.4.2m-543.4-.1c-.1 0-.3-.1-.4-.2-.7-1-1.4-1.9-2-2.9-.1-.2-.1-.5.1-.6.2-.1.5-.1.6.1.7 1 1.3 1.9 2 2.9.1.2.1.5-.1.6 0 .1-.1.1-.2.1m549.4-8.7c-.1 0-.2 0-.2-.1-.2-.1-.3-.4-.1-.6.7-1 1.3-2 2-3 .1-.2.4-.3.6-.1.2.1.3.4.1.6-.6 1-1.3 2-2 3-.1.2-.3.2-.4.2m-555.5 0c-.1 0-.3-.1-.4-.2-.7-1-1.3-2-2-3-.1-.2-.1-.5.1-.6.2-.1.5-.1.6.1.6 1 1.3 2 1.9 3 .1.2.1.5-.1.6.1 0 0 .1-.1.1m561.3-8.9c-.1 0-.2 0-.2-.1-.2-.1-.3-.4-.2-.6.6-1 1.3-2 1.9-3 .1-.2.4-.3.6-.2.2.1.3.4.2.6-.6 1-1.2 2-1.9 3-.1.2-.3.3-.4.3m-567-.1c-.2 0-.3-.1-.4-.2l-1.8-3c-.1-.2-.1-.5.2-.6.2-.1.5-.1.6.1l1.8 3c.1.2.1.5-.1.6-.1.1-.2.1-.3.1m572.4-9.1c-.1 0-.2 0-.2-.1-.2-.1-.3-.4-.2-.6.6-1 1.2-2 1.8-3.1.1-.2.4-.3.6-.2.2.1.3.4.2.6-.6 1-1.2 2.1-1.8 3.1-.1.3-.2.3-.4.3m-577.8 0c-.2 0-.3-.1-.4-.2-.6-1-1.2-2-1.8-3.1-.1-.2 0-.5.2-.6s.5 0 .6.2c.6 1 1.2 2 1.8 3.1.1.2 0 .5-.2.6h-.2m-5.2-9.2c-.2 0-.3-.1-.4-.2-.6-1-1.1-2.1-1.7-3.1-.1-.2 0-.5.2-.6.2-.1.5 0 .6.2.6 1 1.1 2.1 1.7 3.1.1.2 0 .5-.2.6-.1-.1-.1 0-.2 0m588.2-.1c-.07 0-.13-.03-.2-.1-.2-.1-.3-.4-.2-.6.6-1 1.1-2.1 1.7-3.1.1-.2.4-.3.6-.2.2.1.3.4.2.6-.5 1.1-1.1 2.1-1.7 3.2-.1.1-.2.2-.4.2m-593.1-9.4c-.2 0-.3-.1-.4-.2-.5-1.1-1-2.1-1.6-3.2-.1-.2 0-.5.2-.6s.5 0 .6.2c.5 1.1 1 2.1 1.6 3.2.1.2 0 .5-.2.6h-.2m598-.1h-.2c-.2-.1-.3-.4-.2-.6.5-1.1 1-2.1 1.6-3.2.1-.2.3-.3.6-.2.2.1.3.4.2.6-.5 1.1-1 2.1-1.6 3.2-.1.1-.2.2-.4.2m-602.5-9.5c-.2 0-.3-.1-.4-.3-.5-1.1-1-2.1-1.5-3.2-.1-.2 0-.5.2-.6.2-.1.5 0 .6.2.5 1.1.9 2.1 1.4 3.2.1.2 0 .5-.2.6 0 .1-.1.1-.1.1m607.1-.1h-.2c-.2-.1-.3-.4-.2-.6.5-1.1 1-2.2 1.5-3.2.1-.2.4-.3.6-.2.2.1.3.4.2.6-.5 1.1-1 2.2-1.5 3.2-.1.1-.2.2-.4.2m-611.4-9.6c-.2 0-.3-.1-.4-.3-.5-1.1-.9-2.2-1.3-3.3-.1-.2 0-.5.2-.6.2-.1.5 0 .6.2.4 1.1.9 2.2 1.3 3.3.1.2 0 .5-.2.6 0 .1-.1.1-.2.1m615.6-.2h-.2c-.2-.1-.3-.4-.2-.6.5-1.1.9-2.2 1.3-3.3.1-.2.3-.3.6-.3.2.1.3.3.2.6-.5 1.1-.9 2.2-1.4 3.3.1.2-.1.3-.3.3M185 521.9c-.2 0-.3-.1-.4-.3l-1.2-3.3c-.1-.2 0-.5.2-.6s.5 0 .6.2l1.2 3.3c.1.2 0 .5-.3.6l-.1.1m623.5-.2h-.2c-.2-.1-.3-.3-.3-.6l1.2-3.3c.1-.2.4-.3.6-.2.2.1.3.3.3.5l-1.2 3.3c-.1.1-.2.3-.4.3m-627.1-9.8c-.2 0-.4-.1-.4-.3-.4-1.1-.8-2.2-1.1-3.4-.1-.2.1-.5.3-.6s.5.1.6.3c.4 1.1.7 2.2 1.1 3.4.1.2 0 .5-.2.6h-.3m630.7-.3c-.3-.1-.5-.3-.4-.6.4-1.1.8-2.3 1.1-3.4.1-.2.3-.4.6-.3.2.1.4.3.3.6-.4 1.1-.8 2.3-1.1 3.4-.1.2-.3.3-.5.3m-634-9.8c-.2 0-.4-.1-.4-.3-.3-1.1-.7-2.3-1-3.4-.1-.2.1-.5.3-.5.2-.1.5.1.5.3.3 1.1.7 2.3 1 3.4.1.2-.1.5-.3.5h-.1m637.3-.4c-.3-.1-.5-.3-.4-.5.3-1.1.7-2.3 1-3.4.1-.2.3-.4.5-.3s.4.3.3.5c-.3 1.1-.7 2.3-1 3.4 0 .2-.2.3-.4.3m-640.3-9.8c-.2 0-.4-.1-.4-.3-.3-1.1-.6-2.3-.9-3.4-.1-.2.1-.5.3-.5.2-.1.4 0 .5.3v.1c.3 1.2.6 2.3.9 3.4.1.2-.1.5-.3.5l-.1-.1m643.3-.4c-.3-.1-.5-.3-.4-.5.3-1.1.6-2.3.9-3.4.1-.2.3-.4.5-.3s.4.3.3.5c-.3 1.1-.6 2.3-.9 3.4-.1.2-.2.3-.4.3m-645.9-10c-.2 0-.4-.1-.4-.3-.3-1.2-.5-2.3-.8-3.5-.1-.2.1-.5.3-.5.2-.1.5.1.5.3v.1c.3 1.2.5 2.3.8 3.5.1.2-.1.5-.3.5l-.1-.1m648.5-.3c-.3-.1-.5-.3-.4-.5.3-1.1.5-2.3.8-3.4 0-.2.3-.4.5-.3h.1c.2.1.4.3.3.5-.3 1.2-.5 2.3-.8 3.5-.1.1-.3.2-.5.2m-650.8-10.1c-.2 0-.4-.1-.4-.4-.2-1.2-.5-2.3-.7-3.5 0-.2.1-.5.4-.5.2 0 .5.1.5.4.2 1.2.5 2.3.7 3.5 0 .3-.2.5-.5.5m653.1-.3c-.3 0-.5-.3-.4-.5.2-1.2.5-2.3.7-3.5 0-.2.3-.4.5-.3.2 0 .4.3.4.5-.2 1.2-.5 2.3-.7 3.5-.1.2-.3.3-.5.3m-655.1-10.1c-.2 0-.4-.2-.4-.4-.2-1.2-.4-2.3-.6-3.5 0-.2.1-.5.4-.5.2 0 .5.1.5.3.2 1.2.4 2.3.6 3.5 0 .3-.2.5-.5.6q.07 0 0 0m657.1-.4c-.3 0-.5-.3-.4-.5v-.3l.5-3.2c0-.2.3-.4.5-.3.2 0 .4.3.4.5-.2 1.1-.4 2.2-.5 3.3v.2c-.1.2-.3.3-.5.3m-658.7-10.1c-.2 0-.4-.2-.4-.4-.2-1.2-.3-2.3-.5-3.5 0-.2.1-.5.4-.5.2 0 .5.2.5.4.2 1.2.3 2.3.5 3.5-.1.2-.2.4-.5.5m660.3-.4c-.3 0-.5-.3-.4-.5.2-1.2.3-2.3.5-3.5 0-.2.3-.4.5-.4s.4.3.4.5c-.2 1.2-.3 2.4-.5 3.5-.1.3-.3.4-.5.4m-661.6-10.2c-.2 0-.4-.2-.4-.4-.1-1.2-.2-2.4-.4-3.5 0-.2.1-.5.4-.5.2 0 .4.2.4.4.1 1.2.2 2.4.4 3.5 0 .3-.1.5-.4.5Zm662.9-.4c-.3 0-.5-.2-.4-.5.1-1.2.2-2.4.3-3.5 0-.2.2-.4.4-.4s.4.2.4.5c-.1 1.2-.2 2.4-.4 3.5.1.3-.1.4-.3.4m-663.9-10.2c-.2 0-.4-.2-.4-.4-.1-1.2-.2-2.4-.2-3.5 0-.2.2-.5.4-.5s.4.2.4.4c.1 1.2.2 2.4.2 3.5.1.3-.1.5-.4.5Zm664.8-.4c-.3 0-.5-.2-.4-.5.1-1.2.2-2.4.2-3.5 0-.2.2-.4.4-.4s.4.2.4.5c-.1 1.2-.2 2.4-.2 3.5 0 .3-.2.4-.4.4m-665.4-10.2c-.2 0-.4-.2-.4-.4l-.1-3.6c0-.2.2-.4.4-.5.2 0 .4.2.5.4 0 1.2.1 2.4.1 3.5-.1.3-.2.5-.5.6Zm666-.4c-.2 0-.4-.2-.4-.5 0-1.2.1-2.4.1-3.5 0-.2.2-.4.4-.4s.4.2.4.5c0 1.2-.1 2.4-.1 3.6.1.1-.1.3-.4.3m-666.3-10.3c-.2 0-.4-.2-.4-.4v-3.6c0-.2.2-.5.4-.5s.5.2.5.4v3.5c-.1.4-.2.6-.5.6Zm666.6-.3c-.2 0-.4-.2-.4-.4v-3.5c0-.2.2-.5.4-.5s.5.2.5.4v3.6c-.1.2-.3.4-.5.4m0-7.9c-.2 0-.4-.2-.4-.4 0-1.2 0-2.4-.1-3.5 0-.2.2-.4.4-.5.2 0 .4.2.4.4 0 1.2 0 2.4.1 3.5 0 .3-.1.5-.4.5Zm-666.6-2.4c-.2 0-.4-.2-.4-.4 0-1.2 0-2.4.1-3.6 0-.2.2-.4.5-.4.2 0 .4.2.4.4 0 1.2-.1 2.4-.1 3.5 0 .3-.2.5-.5.5m666.3-8.2c-.2 0-.4-.2-.4-.4-.1-1.2-.1-2.4-.2-3.5 0-.2.2-.4.4-.5.2 0 .4.2.4.4.1 1.2.1 2.4.2 3.5.1.3-.1.5-.4.5Zm-665.9-2.4c-.3 0-.5-.2-.4-.5.1-1.2.1-2.4.2-3.5 0-.2.2-.4.5-.4.2 0 .4.2.4.5-.1 1.2-.1 2.4-.2 3.5-.1.2-.3.4-.5.4m665.3-8.2c-.2 0-.4-.2-.4-.4-.1-1.2-.2-2.4-.3-3.5 0-.2.2-.5.4-.5s.4.2.4.4c.1 1.2.2 2.4.3 3.5 0 .2-.2.4-.4.5Zm-664.6-2.5c-.3 0-.5-.2-.4-.5.1-1.2.2-2.4.3-3.5 0-.2.2-.4.5-.4.2 0 .4.2.4.5-.1 1.2-.2 2.4-.3 3.5 0 .3-.2.4-.5.4m663.6-8.1c-.2 0-.4-.2-.4-.4-.1-1.2-.3-2.4-.4-3.5 0-.2.1-.5.4-.5.2 0 .4.2.5.4.1 1.2.3 2.4.4 3.5 0 .2-.2.4-.5.5Zm-662.5-2.5c-.3 0-.5-.3-.4-.5.1-1.2.3-2.4.4-3.5 0-.2.2-.4.5-.4.2 0 .4.3.4.5-.2 1.2-.3 2.3-.4 3.5-.1.3-.3.4-.5.4m661.2-8.1c-.2 0-.4-.2-.4-.4-.2-1.2-.3-2.3-.5-3.5 0-.2.1-.5.4-.5.2 0 .5.1.5.4.2 1.2.3 2.3.5 3.5 0 .2-.2.5-.5.5M167 354.4c-.3 0-.5-.3-.4-.5.2-1.2.4-2.3.5-3.5 0-.2.2-.4.5-.4.2 0 .4.3.4.5-.2 1.2-.4 2.3-.5 3.5-.1.2-.3.4-.5.4m658.1-8.1c-.2 0-.4-.2-.4-.4-.2-1.2-.4-2.3-.6-3.5 0-.2.1-.5.4-.5.2 0 .5.1.5.4.2 1.2.4 2.3.6 3.5 0 .2-.2.4-.5.5m-656.4-2.4c-.3-.1-.5-.3-.4-.5.2-1.2.4-2.3.7-3.5.1-.2.3-.4.5-.4s.4.3.4.5c-.2 1.2-.4 2.3-.6 3.5-.2.2-.4.4-.6.4m654.4-8.1c-.2 0-.4-.1-.4-.3-.2-1.2-.5-2.3-.7-3.5-.1-.2.1-.5.3-.5.2-.1.5.1.5.3.3 1.2.5 2.3.7 3.5.1.2-.1.5-.4.5.2 0 .1 0 0 0m-652.3-2.4h-.1c-.2 0-.4-.3-.3-.5.2-1.2.5-2.3.8-3.5 0-.2.3-.4.5-.3.2.1.4.3.3.5-.3 1.1-.5 2.3-.8 3.5-.1.2-.2.3-.4.3m650-8c-.2 0-.4-.1-.4-.3-.3-1.2-.5-2.3-.8-3.4-.1-.2.1-.5.3-.5.2-.1.5.1.5.3.3 1.2.6 2.3.9 3.5.1.2-.1.5-.3.5l-.2-.1m-647.6-2.3h-.1c-.2-.1-.4-.3-.3-.5.3-1.2.6-2.3.9-3.4.1-.2.3-.4.5-.3.2.1.4.3.3.5-.3 1.1-.6 2.3-.9 3.4-.1.1-.2.3-.4.3m645-8c-.2 0-.4-.1-.4-.3-.3-1.1-.6-2.3-1-3.4-.1-.2.1-.5.3-.5.2-.1.5.1.5.3.3 1.1.6 2.3 1 3.4.1.2-.1.5-.4.5m-642.3-2.3h-.1c-.2-.1-.4-.3-.3-.5.3-1.1.7-2.3 1-3.4.1-.2.3-.4.5-.3.2.1.4.3.3.6-.3 1.1-.7 2.3-1 3.4-.1.1-.2.2-.4.2m639.3-7.9c-.2 0-.4-.1-.4-.3-.3-1.1-.7-2.3-1.1-3.4-.1-.2.1-.5.3-.6s.5.1.6.3c.4 1.1.7 2.3 1.1 3.4.1.2-.1.5-.3.6h-.2m-636.3-2.3h-.1c-.2-.1-.4-.3-.3-.6.4-1.1.7-2.3 1.1-3.4.1-.2.3-.4.6-.3s.4.3.3.6c-.4 1.1-.7 2.3-1.1 3.4-.1.2-.3.3-.5.3m633-7.8c-.2 0-.4-.1-.4-.3l-1.2-3.3c-.1-.2.1-.5.3-.6s.4 0 .5.3c.4 1.1.8 2.2 1.2 3.4.1.2 0 .5-.3.6 0-.1-.1-.1-.1-.1m-629.6-2.4h-.1c-.2-.1-.4-.3-.3-.6.4-1.1.8-2.2 1.2-3.4.1-.2.3-.3.6-.3.2.1.3.3.3.6l-1.2 3.3c-.1.3-.3.4-.5.4m625.9-7.6c-.2 0-.3-.1-.4-.3-.4-1.1-.9-2.2-1.3-3.3-.1-.2 0-.5.3-.6.2-.1.4 0 .5.2.4 1.1.9 2.2 1.3 3.3.1.2 0 .5-.4.7m-622.1-2.4h-.2c-.2-.1-.3-.3-.3-.6.4-1.1.9-2.2 1.3-3.3.1-.2.3-.3.6-.2.2.1.3.3.2.6-.4 1.1-.9 2.2-1.3 3.3 0 .1-.2.2-.3.2m618.2-7.5c-.2 0-.3-.1-.4-.3-.5-1.1-.9-2.2-1.4-3.2-.1-.2 0-.5.2-.6s.5 0 .6.2c.5 1.1.9 2.2 1.4 3.3.1.2 0 .5-.2.6h-.2m-614.2-2.4h-.2c-.2-.1-.3-.4-.2-.6.5-1.1.9-2.2 1.4-3.3.1-.2.4-.3.6-.2.2.1.3.4.2.6-.5 1.1-.9 2.2-1.4 3.3-.1.1-.2.2-.4.2m610-7.3c-.2 0-.3-.1-.4-.3-.5-1.1-1-2.1-1.5-3.2-.1-.2 0-.5.2-.6s.5 0 .6.2c.5 1.1 1 2.1 1.5 3.2.1.2 0 .5-.2.6-.1.1-.2.1-.2.1m-605.6-2.4h-.2c-.2-.1-.3-.4-.2-.6.5-1.1 1-2.1 1.5-3.2.1-.2.4-.3.6-.2.2.1.3.4.2.6-.5 1.1-1 2.1-1.5 3.2-.1.1-.3.2-.4.2m601-7.2c-.2 0-.3-.1-.4-.2-.5-1-1-2.1-1.6-3.1-.1-.2 0-.5.2-.6.2-.1.5 0 .6.2.5 1 1.1 2.1 1.6 3.2.1.2 0 .5-.2.6-.07-.07-.13-.1-.2-.1m-596.4-2.4h-.2c-.2-.1-.3-.4-.2-.6.5-1.1 1.1-2.1 1.6-3.2.1-.2.4-.3.6-.2.2.1.3.4.2.6-.6 1.1-1.1 2.1-1.6 3.2-.1.1-.2.2-.4.2m591.5-7c-.2 0-.3-.1-.4-.2-.6-1-1.1-2.1-1.7-3.1-.1-.2 0-.5.2-.6s.5 0 .6.2c.6 1 1.1 2.1 1.7 3.1.1.2 0 .5-.2.6h-.2m-586.5-2.4c-.07 0-.13-.03-.2-.1-.2-.1-.3-.4-.2-.6.6-1 1.1-2.1 1.7-3.1.1-.2.4-.3.6-.2.2.1.3.4.2.6-.6 1-1.2 2.1-1.7 3.1-.1.2-.3.3-.4.3m581.4-6.9c-.2 0-.3-.1-.4-.2l-1.8-3c-.1-.2-.1-.5.2-.6.2-.1.5-.1.6.1.6 1 1.2 2 1.8 3.1.1.2 0 .5-.2.6h-.2m-576.2-2.4c-.1 0-.2 0-.2-.1-.2-.1-.3-.4-.2-.6.6-1 1.2-2.1 1.8-3.1.1-.2.4-.3.6-.2.2.1.3.4.2.6l-1.8 3c0 .3-.2.4-.4.4m570.7-6.7c-.1 0-.3-.1-.4-.2-.6-1-1.3-2-1.9-3-.1-.2-.1-.5.1-.6.2-.1.5-.1.6.1.6 1 1.3 2 1.9 3 .1.2.1.5-.1.6-.07.07-.13.1-.2.1m-565.1-2.4c-.1 0-.2 0-.2-.1-.2-.1-.3-.4-.1-.6.6-1 1.3-2 1.9-3 .1-.2.4-.3.6-.1.2.1.3.4.1.6-.6 1-1.3 2-1.9 3-.1.1-.2.2-.4.2m559.3-6.5c-.1 0-.3-.1-.4-.2-.7-1-1.3-2-2-2.9-.1-.2-.1-.5.1-.6.2-.1.5-.1.6.1.7 1 1.3 2 2 2.9.1.2.1.5-.1.6s-.1.1-.2.1m-553.4-2.4c-.1 0-.2 0-.2-.1-.2-.1-.3-.4-.1-.6l2-2.9c.1-.2.4-.3.6-.1.2.1.3.4.1.6-.7 1-1.3 2-2 2.9-.2.1-.3.2-.4.2m547.4-6.4c-.1 0-.3-.1-.4-.2-.7-1-1.4-1.9-2.1-2.9-.1-.2-.1-.5.1-.6.2-.1.5-.1.6.1.7 1 1.4 1.9 2.1 2.9.1.2.1.5-.1.6 0 .1-.1.1-.2.1m-541.3-2.3c-.1 0-.2 0-.3-.1-.2-.1-.2-.4-.1-.6.7-.9 1.4-1.9 2.1-2.9.1-.2.4-.2.6-.1.2.1.2.4.1.6-.7.9-1.4 1.9-2.1 2.9 0 .1-.2.2-.3.2m535-6.2c-.1 0-.3-.1-.4-.2-.7-.9-1.4-1.9-2.2-2.8-.2-.2-.1-.5.1-.6.2-.1.5-.1.6.1.7.9 1.4 1.9 2.2 2.8.1.2.1.5-.1.6s-.1.1-.2.1m-528.6-2.4c-.1 0-.2 0-.3-.1-.2-.1-.2-.4-.1-.6.7-.9 1.5-1.9 2.2-2.8.2-.2.4-.2.6-.1.2.1.2.4.1.6-.7.9-1.5 1.9-2.2 2.8 0 .2-.2.2-.3.2m522-6c-.1 0-.3-.1-.3-.2-.8-.9-1.5-1.8-2.3-2.7-.2-.2-.1-.5 0-.6.2-.2.5-.1.6.1.8.9 1.5 1.8 2.3 2.7.2.2.1.5-.1.6 0 .1-.1.1-.2.1M240 190.9c-.1 0-.2 0-.3-.1-.2-.2-.2-.4-.1-.6.8-.9 1.5-1.8 2.3-2.7.2-.2.4-.2.6 0 .2.2.2.4 0 .6-.8.9-1.5 1.8-2.3 2.7 0 .1-.1.1-.2.1m508.5-5.8c-.1 0-.3-.1-.3-.2-.8-.9-1.6-1.8-2.3-2.7-.2-.2-.1-.5 0-.6.2-.2.5-.2.6 0 .8.9 1.6 1.8 2.3 2.7.2.2.1.5 0 .6-.1.1-.2.2-.3.2m-501.6-2.3c-.1 0-.2 0-.3-.1-.2-.2-.2-.4 0-.6l2.4-2.7c.2-.2.4-.2.6 0 .2.2.2.4 0 .6-.8.9-1.6 1.7-2.4 2.6-.1.2-.2.2-.3.2m494.5-5.7c-.1 0-.2 0-.3-.1-.8-.9-1.6-1.7-2.4-2.6-.2-.2-.2-.5 0-.6.2-.2.4-.2.6 0 .8.9 1.6 1.7 2.4 2.6.2.2.2.5 0 .6-.1.1-.2.1-.3.1M254.1 175c-.1 0-.2 0-.3-.1-.2-.2-.2-.4 0-.6.8-.9 1.6-1.7 2.5-2.6.2-.2.4-.2.6 0 .2.2.2.5 0 .6-.8.8-1.6 1.7-2.4 2.6-.2 0-.3.1-.4.1m479.9-5.5c-.1 0-.2 0-.3-.1l-2.5-2.5c-.2-.2-.2-.4 0-.6.2-.2.5-.2.6 0l2.5 2.5c.2.2.2.5 0 .6-.1 0-.2.1-.3.1m-472.5-2.1c-.1 0-.2 0-.3-.1-.2-.2-.2-.5 0-.6l2.5-2.5c.2-.2.5-.1.6 0 .2.2.1.4 0 .6-.9.8-1.7 1.6-2.5 2.5-.1 0-.2.1-.3.1m464.9-5.4c-.1 0-.2 0-.3-.1-.9-.8-1.7-1.6-2.6-2.4-.2-.2-.2-.5 0-.6.2-.2.4-.2.6 0 .9.8 1.7 1.6 2.6 2.4.2.2.2.5 0 .6-.1 0-.2.1-.3.1m-457.3-2c-.1 0-.2 0-.3-.1-.2-.2-.1-.5 0-.6.9-.8 1.7-1.6 2.6-2.4.2-.2.5-.2.6 0s.2.5 0 .6c-.9.8-1.7 1.6-2.6 2.4 0 0-.1.1-.3.1m449.5-5.2c-.1 0-.2 0-.3-.1-.9-.8-1.8-1.6-2.7-2.3-.2-.2-.2-.4 0-.6.1-.2.4-.2.6-.1l2.7 2.4c.2.2.2.4 0 .6-.1 0-.2.1-.3.1m-441.6-2c-.1 0-.2 0-.3-.1-.2-.2-.1-.5 0-.6l2.7-2.3c.2-.2.5-.1.6 0 .2.2.1.5 0 .6-.9.8-1.8 1.5-2.7 2.3-.1.1-.2.1-.3.1m433.5-5c-.1 0-.2 0-.3-.1-.9-.8-1.8-1.5-2.7-2.3-.2-.2-.2-.4 0-.6.2-.2.4-.2.6-.1.9.8 1.8 1.5 2.7 2.3.2.2.2.4.1.6-.1.2-.2.2-.4.2m-425.4-1.9c-.1 0-.3-.1-.3-.2-.2-.2-.1-.5 0-.6.9-.8 1.8-1.5 2.8-2.2.2-.1.5-.1.6.1.1.2.1.5-.1.6-.9.7-1.8 1.5-2.8 2.2.1.1-.1.1-.2.1m417.1-4.8c-.1 0-.2 0-.3-.1-.9-.7-1.9-1.5-2.8-2.2-.2-.1-.2-.4-.1-.6.1-.2.4-.2.6-.1.9.7 1.9 1.4 2.8 2.2.2.1.2.4.1.6 0 .1-.1.2-.3.2m-408.7-1.8c-.1 0-.3-.1-.4-.2-.1-.2-.1-.5.1-.6l2.8-2.2c.2-.1.5-.1.6.1s.1.5-.1.6c-.9.7-1.9 1.4-2.8 2.1 0 .2-.1.2-.2.2m400.3-4.6c-.1 0-.2 0-.3-.1-1-.7-1.9-1.4-2.9-2.1-.2-.1-.2-.4-.1-.6.1-.2.4-.2.6-.1 1 .7 1.9 1.4 2.9 2.1.2.1.2.4.1.6-.1.1-.2.2-.3.2M302 133c-.2 0-.4-.2-.4-.4 0-.1.1-.3.2-.4 1-.7 1.9-1.4 2.9-2.1.2-.1.5-.1.6.1.1.2.1.5-.1.6-1 .7-1.9 1.4-2.9 2.1-.1 0-.2.1-.3.1m383.1-4.5c-.1 0-.2 0-.3-.1-1-.7-1.9-1.3-2.9-2-.2-.1-.3-.4-.1-.6s.4-.3.6-.1c1 .7 2 1.3 2.9 2 .2.1.3.4.1.6-.1.1-.2.2-.3.2m-374.4-1.6c-.2 0-.4-.2-.4-.4 0-.1.1-.3.2-.4 1-.7 2-1.3 3-2 .2-.1.5-.1.6.1s.1.5-.1.6c-1 .6-2 1.3-2.9 2-.2.1-.3.1-.4.1m365.5-4.3c-.1 0-.2 0-.2-.1-1-.6-2-1.3-3-1.9-.2-.1-.3-.4-.2-.6.1-.2.4-.3.6-.1 1 .6 2 1.3 3 1.9.2.1.3.4.1.6 0 .1-.2.2-.3.2m-356.6-1.5c-.2 0-.3-.1-.4-.2-.1-.2-.1-.5.1-.6 1-.6 2-1.3 3-1.9.2-.1.5-.1.6.2.1.2.1.5-.1.6-1 .6-2 1.2-3 1.9h-.2m347.5-4.1c-.1 0-.2 0-.2-.1-1-.6-2-1.2-3.1-1.8-.2-.1-.3-.4-.2-.6s.4-.3.6-.2c1 .6 2 1.2 3.1 1.8.2.1.3.4.2.6s-.2.3-.4.3m-338.4-1.4c-.2 0-.3-.1-.4-.2-.1-.2-.1-.5.2-.6 1-.6 2-1.2 3.1-1.8.2-.1.5 0 .6.2s.1.5-.2.6c-1 .6-2.1 1.2-3.1 1.8h-.2m329.2-3.9h-.2c-1-.6-2.1-1.1-3.1-1.7-.2-.1-.3-.4-.2-.6s.4-.3.6-.2c1 .6 2.1 1.1 3.1 1.7.2.1.3.4.2.6-.1.1-.3.2-.4.2M338 110.4c-.2 0-.3-.1-.4-.2-.1-.2 0-.5.2-.6 1-.6 2.1-1.1 3.1-1.7.2-.1.5 0 .6.2s0 .5-.2.6c-1 .5-2.1 1.1-3.1 1.7-.1-.1-.2 0-.2 0m310.4-3.7h-.2c-1.1-.6-2.1-1.1-3.2-1.6-.2-.1-.3-.4-.2-.6s.4-.3.6-.2c1.1.5 2.1 1.1 3.2 1.6.2.1.3.4.2.6 0 .1-.2.2-.4.2m-301-1.3c-.2 0-.3-.1-.4-.2-.1-.2 0-.5.2-.6 1.1-.5 2.1-1.1 3.2-1.6.2-.1.5 0 .6.2s0 .5-.2.6c-1.1.5-2.1 1-3.2 1.6h-.2m291.5-3.4h-.2c-1.1-.5-2.1-1-3.2-1.5-.2-.1-.3-.4-.2-.6s.4-.3.6-.2c1.1.5 2.1 1 3.2 1.5.2.1.3.4.2.6-.1.1-.3.2-.4.2m-282-1.2c-.2 0-.3-.1-.4-.3-.1-.2 0-.5.2-.6 1.1-.5 2.1-1 3.2-1.5.2-.1.5 0 .6.2.1.2 0 .5-.2.6-1.1.5-2.1 1-3.2 1.5 0 .1-.1.1-.2.1m272.2-3.2h-.2c-1.1-.5-2.2-.9-3.3-1.4-.2-.1-.3-.4-.2-.6s.4-.3.6-.2c1.1.5 2.2.9 3.3 1.4.2.1.3.4.2.6 0 .1-.2.2-.4.2m-262.5-1.1c-.2 0-.3-.1-.4-.3-.1-.2 0-.5.2-.6 1.1-.5 2.2-.9 3.3-1.4.2-.1.5 0 .6.2s0 .5-.2.6c-1.1.4-2.2.9-3.3 1.3-.07.13-.13.2-.2.2m252.7-3h-.2c-1.1-.4-2.2-.9-3.3-1.3-.2-.1-.3-.3-.3-.6.1-.2.3-.3.6-.3 1.1.4 2.2.9 3.3 1.3.2.1.3.4.2.6 0 .2-.1.3-.3.3m-242.8-.9c-.2 0-.3-.1-.4-.3-.1-.2 0-.5.3-.6 1.1-.4 2.2-.8 3.3-1.3.2-.1.5 0 .6.3.1.2 0 .5-.3.6-1.1.4-2.2.8-3.3 1.3h-.2m232.8-2.9h-.2l-3.3-1.2c-.2-.1-.4-.3-.3-.6.1-.2.3-.4.6-.3 1.1.4 2.2.8 3.4 1.2.2.1.3.3.3.6-.2.2-.3.3-.5.3m-222.8-.8c-.2 0-.4-.1-.4-.3-.1-.2 0-.5.3-.6 1.1-.4 2.2-.8 3.4-1.2.2-.1.5 0 .6.3.1.2 0 .5-.3.6-1.1.4-2.2.8-3.4 1.2h-.2m212.7-2.6c-1.2-.4-2.4-.7-3.5-1.1-.2-.1-.4-.3-.3-.6.1-.2.3-.4.5-.3 1.1.4 2.3.7 3.4 1.1.2.1.4.3.3.5-.1.2-.2.4-.4.4m-202.6-.8c-.2 0-.4-.1-.4-.3-.1-.2 0-.5.3-.6 1.1-.4 2.3-.7 3.4-1.1.2-.1.5.1.6.3.1.2-.1.5-.3.6-1.1.3-2.3.7-3.4 1-.1.1-.2.1-.2.1M589 83.2c-1.2-.3-2.4-.6-3.5-1-.2-.1-.4-.3-.3-.6.1-.2.3-.4.5-.3 1.1.3 2.3.6 3.4 1 .2.1.4.3.3.5-.1.2-.2.4-.4.4m-182.2-.7c-.2 0-.4-.2-.5-.4 0-.2.1-.4.3-.4 1.1-.3 2.3-.6 3.4-.9.2-.1.5.1.6.3.1.2-.1.5-.3.6-1.1.3-2.3.6-3.4.9l-.1-.1m171.9-2.1c-1.2-.3-2.4-.6-3.5-.9-.2-.1-.4-.3-.3-.5.1-.2.3-.4.5-.3 1.2.3 2.3.6 3.5.9.2.1.4.3.3.5-.1.1-.3.3-.5.3m-161.6-.6c-.2 0-.4-.2-.4-.4s.1-.4.3-.4c1.1-.3 2.3-.6 3.5-.8.2-.1.5.1.5.3v.1c.1.2-.1.5-.3.5-1.2.3-2.3.6-3.5.8l-.1-.1m151.2-1.9c-1.2-.3-2.4-.5-3.6-.7-.2-.1-.4-.3-.3-.5 0-.2.3-.4.5-.4 1.2.2 2.3.5 3.5.7.2.1.4.3.3.5 0 .3-.2.4-.4.4m-140.9-.5c-.2 0-.4-.2-.4-.4s.1-.4.4-.4c1.2-.2 2.3-.5 3.5-.7.2-.1.5.1.5.3 0 .2-.1.5-.3.5-1.3.2-2.4.5-3.7.7m130.5-1.6-3.6-.6c-.2 0-.4-.3-.4-.5s.3-.4.5-.4c1.2.2 2.3.4 3.5.6.2.1.4.3.4.5 0 .3-.2.4-.4.4m-120-.4c-.2 0-.4-.2-.4-.4s.2-.4.4-.4c1.2-.2 2.3-.4 3.5-.6.2-.1.5.1.5.3 0 .2-.1.5-.4.5l-3.6.6M547.4 74c-1.2-.2-2.4-.4-3.6-.5-.2 0-.4-.3-.4-.5s.2-.4.4-.4h.1c1.2.2 2.3.3 3.5.5.2 0 .4.3.4.5 0 .3-.2.4-.4.4m-99-.3c-.2 0-.4-.2-.4-.4s.1-.5.4-.5c1.2-.2 2.3-.3 3.5-.5h.1c.2 0 .4.2.4.4s-.2.4-.4.4l-3.6.6m88.5-1.1c-1.2-.1-2.4-.3-3.6-.4-.2 0-.4-.2-.4-.5 0-.2.2-.4.5-.4 1.2.1 2.4.3 3.5.4.2 0 .4.3.4.5s-.2.4-.4.4m-77.9-.3c-.2 0-.4-.2-.4-.4s.2-.4.4-.4c1.2-.1 2.4-.3 3.5-.4.2 0 .4.2.4.4s-.1.5-.4.5c-1.1.1-2.3.2-3.5.3Zm67.3-.8-3.6-.3c-.2 0-.4-.2-.4-.5s.2-.5.5-.4c1.2.1 2.4.2 3.5.3.2 0 .4.2.4.5 0 .2-.2.4-.4.4m-56.7-.2c-.2 0-.4-.2-.4-.4s.2-.4.4-.4c1.2-.1 2.4-.2 3.5-.3.2 0 .5.2.5.4s-.2.5-.4.5c-1.2 0-2.4.1-3.6.2Zm46.1-.6c-1.2-.1-2.4-.1-3.6-.2-.2 0-.4-.2-.4-.5 0-.2.2-.4.4-.4 1.2.1 2.4.1 3.5.2.2 0 .4.2.4.5.1.3-.1.4-.3.4m-35.5-.1c-.2 0-.4-.2-.4-.4s.2-.4.4-.5l3.5-.2c.2 0 .4.2.4.5 0 .2-.2.4-.4.4-1.1.1-2.3.1-3.5.2Zm24.8-.3c-1.2 0-2.4-.1-3.6-.1-.2 0-.4-.2-.4-.5 0-.2.2-.4.4-.4 1.2 0 2.4 0 3.5.1.2 0 .4.2.4.5.1.2-.1.4-.3.4m-14.2 0c-.2 0-.4-.2-.4-.4s.2-.4.4-.5h3.5c.2 0 .4.2.4.4s-.2.4-.4.4c-1.1 0-2.3 0-3.5.1Zm3.6 521.5c-1.2 0-2.4 0-3.6-.1-.2 0-.4-.2-.4-.5 0-.2.2-.4.4-.4 1.2 0 2.4.1 3.5.1.2 0 .4.2.4.5.1.2-.1.4-.3.4m7.1-.1c-.2 0-.4-.2-.4-.5 0-.2.2-.4.4-.4 1.2 0 2.4-.1 3.5-.1.2 0 .4.2.4.5 0 .2-.2.4-.4.4-1.1.1-2.3.1-3.5.1Zm-17.8-.3-3.6-.3c-.2 0-.4-.2-.4-.5 0-.2.2-.4.4-.4h.1c1.2.1 2.4.2 3.5.3.2 0 .4.2.4.5.1.2-.1.4-.4.4m28.4-.2c-.2 0-.4-.2-.4-.4s.2-.4.4-.4c1.2-.1 2.4-.2 3.5-.3.2 0 .4.2.5.4 0 .2-.2.5-.4.5-1.2 0-2.4.1-3.6.2Zm-39-.9c-1.2-.2-2.4-.3-3.6-.5-.2 0-.4-.2-.4-.5 0-.2.2-.4.5-.4 1.2.2 2.3.3 3.5.5.2 0 .4.3.4.5 0 .3-.1.4-.4.4m49.6-.3c-.2 0-.4-.2-.4-.5 0-.2.2-.4.4-.4 1.2-.2 2.3-.3 3.5-.5.3-.1.5.1.5.4 0 .2-.1.5-.4.5-1.2.2-2.4.3-3.6.5m-60.1-1.3c-1.3-.2-2.4-.5-3.6-.7-.2 0-.4-.3-.3-.5 0-.2.3-.4.5-.4 1.2.2 2.3.5 3.5.7.2 0 .4.3.4.5-.1.3-.3.4-.5.4m70.6-.4c-.2 0-.4-.1-.4-.4 0-.2.1-.5.3-.5 1.2-.2 2.3-.5 3.5-.7.2-.1.4.1.5.3v.1c.1.2-.1.5-.3.5-1.2.2-2.4.4-3.6.7m-81-1.8h-.1c-1.2-.3-2.3-.6-3.4-.9-.2-.1-.4-.3-.3-.5.1-.2.3-.4.5-.3 1.1.3 2.3.6 3.4.9.2.1.4.3.3.5 0 .2-.2.3-.4.3m91.4-.6c-.2 0-.4-.2-.4-.5 0-.2.1-.4.3-.4 1.1-.3 2.3-.6 3.4-.9.2-.1.5.1.5.3.1.2-.1.5-.3.5-1.1.3-2.3.6-3.4.9l-.1.1m-101.7-2.2h-.1c-1.1-.3-2.3-.7-3.4-1.1-.2-.1-.4-.3-.3-.5.1-.2.3-.4.5-.3 1.1.4 2.3.7 3.4 1.1.2.1.4.3.3.6 0 .1-.2.2-.4.2m111.9-.7c-.2 0-.4-.2-.4-.4s.1-.4.3-.4c1.1-.4 2.2-.7 3.4-1.1.2-.1.5 0 .5.3.1.2 0 .5-.3.6-1.1.4-2.2.8-3.5 1m-122-2.7h-.2c-1.1-.4-2.2-.8-3.3-1.3-.2-.1-.3-.3-.3-.6.1-.2.3-.3.6-.2 1.1.4 2.2.8 3.3 1.3.2.1.3.3.3.6 0 .1-.2.2-.4.2m132-.8c-.2 0-.4-.2-.4-.4s.1-.4.3-.4c1.1-.4 2.2-.8 3.3-1.3.2-.1.5 0 .6.2.1.2 0 .5-.2.6-1.1.4-2.2.9-3.3 1.3h-.3m-141.9-3.1h-.2l-3.3-1.5c-.2-.1-.3-.4-.2-.6s.4-.3.6-.2c1.1.5 2.1 1 3.2 1.4.2.1.3.4.2.6 0 .2-.1.3-.3.3m151.7-1c-.2 0-.3-.1-.4-.3-.1-.2 0-.5.2-.6 1.1-.5 2.1-1 3.2-1.5.2-.1.5 0 .6.2s0 .5-.2.6c-1.1.5-2.1 1-3.2 1.5 0 .1-.1.1-.2.1m-161.4-3.6h-.2c-1.1-.5-2.1-1.1-3.2-1.6-.2-.1-.3-.4-.2-.6s.4-.3.6-.2c1 .5 2.1 1.1 3.1 1.6.2.1.3.4.2.6.1.1-.1.2-.3.2m171-1c-.2 0-.3-.1-.4-.2-.1-.2 0-.5.2-.6 1-.5 2.1-1.1 3.1-1.7.2-.1.5 0 .6.2s0 .5-.2.6c-1 .6-2.1 1.1-3.1 1.7h-.2m-180.3-4c-.1 0-.2 0-.2-.1-1-.6-2-1.2-3.1-1.8-.2-.1-.3-.4-.1-.6.1-.2.4-.3.6-.1 1 .6 2 1.2 3.1 1.8.2.1.3.4.2.6-.2.1-.4.2-.5.2m189.6-1.2c-.2 0-.3-.1-.4-.2-.1-.2-.1-.5.2-.6l3-1.8c.2-.1.5-.1.6.1.1.2.1.5-.1.6l-3 1.8c-.1.1-.2.1-.3.1m-198.7-4.4c-.1 0-.2 0-.2-.1-1-.7-2-1.3-3-2-.2-.1-.3-.4-.1-.6.1-.2.4-.3.6-.1 1 .7 2 1.3 3 2 .2.1.3.4.1.6-.1.1-.3.2-.4.2m207.7-1.2c-.1 0-.3-.1-.4-.2-.1-.2-.1-.5.1-.6 1-.7 2-1.3 2.9-2 .2-.1.5-.1.6.1.1.2.1.5-.1.6-1 .7-2 1.3-2.9 2 0 0-.1.1-.2.1M385 555.1c-.1 0-.2 0-.3-.1-1-.7-1.9-1.4-2.8-2.1-.2-.1-.2-.4-.1-.6.1-.2.4-.2.6-.1.9.7 1.9 1.4 2.8 2.1.2.1.2.4.1.6 0 .1-.1.2-.3.2m225.1-1.3c-.2 0-.4-.2-.4-.4 0-.1.1-.3.2-.4.9-.7 1.9-1.4 2.8-2.2.2-.1.5-.1.6.1.1.2.1.4-.1.6-.9.7-1.9 1.5-2.8 2.2-.1.1-.2.1-.3.1m-233.5-5.3c-.1 0-.2 0-.3-.1-.9-.8-1.8-1.5-2.7-2.3-.2-.2-.2-.4 0-.6.2-.2.4-.2.6 0 .9.8 1.8 1.5 2.7 2.3.2.2.2.4.1.6-.1.1-.2.1-.4.1m241.8-1.4c-.1 0-.3-.1-.3-.2-.2-.2-.1-.5 0-.6.9-.8 1.8-1.5 2.7-2.3.2-.2.5-.2.6 0 .2.2.2.5 0 .6-.9.8-1.8 1.6-2.7 2.3 0 .2-.2.2-.3.2m-249.8-5.6c-.1 0-.2 0-.3-.1-.9-.8-1.7-1.6-2.6-2.4-.2-.2-.2-.4 0-.6.2-.2.4-.2.6 0 .9.8 1.7 1.6 2.6 2.4.2.2.2.5 0 .6 0 .1-.1.1-.3.1m257.8-1.5c-.2 0-.4-.2-.4-.4 0-.1 0-.2.1-.3.9-.8 1.7-1.6 2.5-2.5.2-.2.5-.2.6 0 .2.2.2.5 0 .6l-2.5 2.5c-.1.1-.2.1-.3.1M361 534.1c-.1 0-.2 0-.3-.1-.8-.9-1.6-1.7-2.4-2.6-.2-.2-.1-.5.1-.6s.4-.1.6 0c.8.9 1.6 1.7 2.4 2.6.2.2.2.5 0 .6-.1 0-.2.1-.4.1m272.9-1.6c-.1 0-.2 0-.3-.1-.2-.2-.2-.4 0-.6.8-.9 1.6-1.7 2.4-2.6.2-.2.4-.2.6 0 .2.2.2.4 0 .6-.8.9-1.6 1.7-2.4 2.6-.1 0-.2.1-.3.1m-280-6.3c-.1 0-.3-.1-.3-.2-.8-.9-1.5-1.8-2.3-2.7-.2-.2-.1-.5 0-.6.2-.2.5-.1.6.1.8.9 1.5 1.8 2.3 2.7.2.2.1.5 0 .6-.1.1-.2.1-.3.1m287-1.7c-.1 0-.2 0-.3-.1-.2-.2-.2-.4-.1-.6.8-.9 1.5-1.8 2.3-2.7.2-.2.4-.2.6-.1.2.2.2.4.1.6-.8.9-1.5 1.8-2.3 2.7 0 .2-.1.2-.3.2m-293.7-6.6c-.1 0-.3-.1-.4-.2-.7-.9-1.4-1.9-2.1-2.8-.2-.2-.1-.5.1-.6.2-.2.5-.1.6.1.7.9 1.4 1.9 2.1 2.8.1.2.1.5-.1.6 0 .1-.1.1-.2.1m300.4-1.7c-.1 0-.2 0-.3-.1-.2-.1-.2-.4-.1-.6.7-.9 1.4-1.9 2.1-2.9.1-.2.4-.2.6-.1s.2.4.1.6c-.7 1-1.4 1.9-2.1 2.9-.1.1-.2.2-.3.2m-306.7-6.9c-.1 0-.3-.1-.4-.2-.7-1-1.3-2-2-3-.1-.2-.1-.5.1-.6s.5-.1.6.1c.6 1 1.3 2 2 2.9.1.2.1.5-.1.6 0 .2-.1.2-.2.2m312.8-1.8c-.1 0-.2 0-.2-.1-.2-.1-.3-.4-.1-.6.7-1 1.3-2 1.9-3 .1-.2.4-.3.6-.1.2.1.3.4.1.6-.6 1-1.3 2-1.9 3-.1.1-.3.2-.4.2m-318.5-7.1c-.2 0-.3-.1-.4-.2-.6-1-1.2-2-1.8-3.1-.1-.2-.1-.5.2-.6.2-.1.5 0 .6.2l1.8 3c.1.2.1.5-.2.6 0 .1-.1.1-.2.1m324.1-2c-.1 0-.2 0-.2-.1-.2-.1-.3-.4-.2-.6.6-1 1.2-2 1.8-3.1.1-.2.4-.3.6-.2s.3.4.2.6c-.6 1-1.2 2.1-1.8 3.1-.1.3-.2.3-.4.3M330 491.1c-.2 0-.3-.1-.4-.2-.6-1-1.1-2.1-1.6-3.1-.1-.2 0-.5.2-.6s.5 0 .6.2c.5 1 1.1 2.1 1.6 3.1.1.2 0 .5-.2.6h-.2m334.4-2c-.07 0-.13-.03-.2-.1-.2-.1-.3-.4-.2-.6.5-1 1.1-2.1 1.6-3.2.1-.2.4-.3.6-.2s.3.4.2.6c-.5 1.1-1.1 2.1-1.6 3.2 0 .2-.2.3-.4.3m-339.1-7.5c-.2 0-.3-.1-.4-.3-.5-1.1-1-2.2-1.4-3.2-.1-.2 0-.5.2-.6s.5 0 .6.2c.5 1.1.9 2.1 1.4 3.2.1.2 0 .5-.2.6 0 .1-.1.1-.2.1m343.7-2.2h-.2c-.2-.1-.3-.4-.2-.6.5-1.1 1-2.2 1.4-3.3.1-.2.3-.3.6-.2.2.1.3.3.2.6-.5 1.1-.9 2.2-1.4 3.3 0 .1-.2.2-.4.2m-347.8-7.6c-.2 0-.3-.1-.4-.3-.4-1.1-.9-2.2-1.3-3.3-.1-.2 0-.5.3-.6.2-.1.5 0 .6.3.4 1.1.8 2.2 1.3 3.3.1.2 0 .5-.2.6h-.3m351.9-2.2h-.2c-.2-.1-.4-.3-.3-.6l1.2-3.3c.1-.2.3-.4.6-.3.2.1.3.3.3.6-.4 1.1-.8 2.2-1.2 3.4-.1 0-.3.2-.4.2m-355.5-7.8c-.2 0-.4-.1-.4-.3-.4-1.1-.7-2.3-1.1-3.4-.1-.2.1-.5.3-.5.2-.1.5.1.6.3.3 1.1.7 2.3 1.1 3.4.1.2 0 .5-.3.6l-.2-.1m358.9-2.3c-.3-.1-.5-.3-.4-.6.3-1.1.7-2.3 1-3.4.1-.2.3-.4.5-.3.2.1.4.3.3.5-.3 1.1-.7 2.3-1 3.4 0 .2-.2.4-.4.4m-361.9-7.9c-.2 0-.4-.1-.4-.3-.3-1.2-.6-2.3-.9-3.5-.1-.2.1-.5.3-.5.2-.1.5.1.5.3.3 1.1.6 2.3.9 3.4.1.2-.1.5-.3.5l-.1.1m364.8-2.4c-.3-.1-.5-.3-.4-.5.3-1.1.5-2.3.8-3.4 0-.2.3-.4.5-.3.2.1.4.3.3.5-.3 1.2-.5 2.3-.8 3.5 0 .1-.2.2-.4.2m-367.2-8c-.2 0-.4-.2-.4-.4-.2-1.2-.5-2.3-.7-3.5 0-.2.1-.5.4-.5.2 0 .5.1.5.4.2 1.2.4 2.3.7 3.5 0 .2-.2.4-.5.5q.07 0 0 0m369.5-2.4c-.3-.1-.5-.3-.4-.5.2-1.2.4-2.3.6-3.5.1-.2.3-.4.5-.4s.4.3.4.5c-.2 1.2-.4 2.3-.6 3.5-.1.3-.3.4-.5.4m-371.3-8.1c-.2 0-.4-.2-.4-.4-.2-1.2-.3-2.4-.5-3.5 0-.2.1-.5.4-.5.2 0 .5.1.5.4.1 1.2.3 2.3.5 3.5 0 .2-.2.5-.5.5q.07 0 0 0m372.9-2.4c-.3 0-.5-.3-.4-.5.2-1.2.3-2.3.4-3.5.1-.2.3-.4.5-.4s.4.3.4.5c-.1 1.2-.3 2.4-.4 3.5 0 .2-.2.4-.5.4m-374.1-8.2c-.2 0-.4-.2-.4-.4-.1-1.2-.2-2.4-.3-3.5 0-.2.2-.5.4-.5s.4.2.4.4c.1 1.2.2 2.4.3 3.5 0 .3-.1.5-.4.5Zm375.2-2.4c-.3 0-.5-.2-.4-.5.1-1.2.2-2.3.2-3.5 0-.2.2-.4.5-.4.2 0 .4.2.4.5-.1 1.2-.1 2.4-.2 3.5 0 .2-.2.4-.5.4m-375.9-8.2c-.2 0-.4-.2-.4-.4 0-1.2-.1-2.4-.1-3.6 0-.2.2-.4.4-.4s.4.2.4.4c0 1.2 0 2.4.1 3.5.1.3-.1.5-.4.5q.07 0 0 0Zm376.4-2.4c-.2 0-.4-.2-.4-.4v-4.8c0-.2.2-.4.4-.4s.4.2.4.4v4.8c.1.2-.1.4-.4.4m-376.4-8.2c-.2 0-.4-.2-.4-.4 0-1.2.1-2.4.1-3.5 0-.2.2-.4.4-.4s.4.2.4.5c-.1 1.2-.1 2.4-.1 3.5 0 .1-.2.3-.4.3m376.3-3.8c-.2 0-.4-.2-.4-.4 0-1.2-.1-2.4-.2-3.5 0-.2.2-.5.4-.5s.4.2.4.4c.1 1.2.1 2.4.2 3.5 0 .3-.1.5-.4.5m-375.7-6.9c-.3 0-.5-.2-.4-.5.1-1.2.2-2.4.3-3.5 0-.2.2-.4.4-.4s.4.2.4.5c-.1 1.2-.2 2.3-.3 3.5 0 .3-.2.4-.4.4m374.9-3.7c-.2 0-.4-.2-.4-.4-.1-1.2-.2-2.4-.4-3.5 0-.2.1-.5.4-.5.2 0 .5.1.5.4.1 1.2.3 2.4.4 3.5 0 .2-.2.5-.5.5q.07 0 0 0Zm-373.8-6.8c-.3 0-.5-.2-.4-.5.2-1.2.3-2.3.5-3.5 0-.2.2-.4.4-.4h.1c.2 0 .4.3.4.5-.2 1.2-.4 2.3-.5 3.5-.1.2-.3.4-.5.4m372.5-3.8c-.2 0-.4-.2-.4-.4-.2-1.2-.4-2.3-.6-3.5 0-.2.1-.5.4-.5.2 0 .5.1.5.4.2 1.2.4 2.3.6 3.5-.1.2-.2.5-.5.5m-370.8-6.7c-.3-.1-.5-.3-.4-.5.2-1.2.5-2.3.7-3.5 0-.2.2-.4.5-.3.2 0 .4.3.3.5-.2 1.2-.5 2.3-.7 3.5 0 .1-.1.3-.4.3m368.8-3.7c-.2 0-.4-.1-.4-.3-.3-1.2-.5-2.3-.8-3.5-.1-.2.1-.5.3-.5.2-.1.5.1.5.3.3 1.2.5 2.3.8 3.5.1.2-.1.5-.4.5q.07 0 0 0m-366.4-6.7h-.1c-.2-.1-.4-.3-.3-.5.3-1.2.6-2.3.9-3.4.1-.2.3-.4.5-.3s.4.3.3.5c-.3 1.1-.6 2.3-.9 3.4 0 .1-.2.3-.4.3m363.8-3.7c-.2 0-.4-.1-.4-.3-.3-1.1-.6-2.3-1-3.4-.1-.2.1-.5.3-.5.2-.1.5.1.5.3.3 1.1.7 2.3 1 3.4.1.2-.1.5-.4.5m-360.9-6.6h-.1c-.2-.1-.4-.3-.3-.6.4-1.1.7-2.3 1.1-3.4.1-.2.3-.4.6-.3.2.1.4.3.3.6-.4 1.1-.7 2.2-1.1 3.4-.1.2-.3.3-.5.3M675 343c-.2 0-.4-.1-.4-.3l-1.2-3.3c-.1-.2 0-.5.3-.6.2-.1.5 0 .6.3.4 1.1.8 2.2 1.2 3.4.1.2-.1.5-.3.6-.07-.07-.13-.1-.2-.1m-354.3-6.5h-.2c-.2-.1-.3-.3-.2-.6.4-1.1.9-2.2 1.3-3.3.1-.2.4-.3.6-.2.2.1.3.3.2.6-.4 1.1-.9 2.2-1.3 3.3 0 0-.2.2-.4.2m350.6-3.5c-.2 0-.3-.1-.4-.3-.4-1.1-.9-2.2-1.3-3.3-.1-.2 0-.5.2-.6s.5 0 .6.2c.5 1.1.9 2.2 1.4 3.3.1.2 0 .5-.2.6s-.3.1-.3.1m-346.5-6.4h-.2c-.2-.1-.3-.4-.2-.6.5-1.1 1-2.2 1.5-3.2.1-.2.4-.3.6-.2.2.1.3.4.2.6-.5 1.1-1 2.1-1.5 3.2-.1.1-.2.2-.4.2m342.2-3.3c-.2 0-.3-.1-.4-.3-.5-1.1-1-2.1-1.5-3.2-.1-.2 0-.5.2-.6s.5 0 .6.2c.5 1.1 1 2.1 1.5 3.2.1.2 0 .5-.2.6s-.1.1-.2.1M329.5 317h-.2c-.2-.1-.3-.4-.2-.6.6-1.1 1.1-2.1 1.7-3.2.1-.2.4-.3.6-.2.2.1.3.4.2.6-.6 1-1.1 2.1-1.7 3.1-.1.2-.3.3-.4.3m332.7-3.2c-.2 0-.3-.1-.4-.2-.6-1-1.1-2.1-1.7-3.1-.1-.2 0-.5.2-.6.2-.1.5-.1.6.1.6 1 1.2 2.1 1.7 3.1.1.2 0 .5-.2.6 0 .1-.1.1-.2.1m-327.6-6.1c-.1 0-.2 0-.2-.1-.2-.1-.3-.4-.2-.6.6-1 1.2-2 1.8-3.1.1-.2.4-.3.6-.1.2.1.3.4.1.6l-1.8 3c0 .2-.1.3-.3.3m322.3-3.1c-.2 0-.3-.1-.4-.2-.6-1-1.2-2-1.9-3-.1-.2-.1-.5.1-.6.2-.1.5-.1.6.1.6 1 1.3 2 1.9 3 .1.2.1.5-.1.6 0 .1-.1.1-.2.1m-316.6-5.9c-.1 0-.2 0-.2-.1-.2-.1-.3-.4-.1-.6.7-1 1.3-2 2-2.9.1-.2.4-.2.6-.1.2.1.3.4.1.6-.7 1-1.3 1.9-2 2.9-.1.1-.2.2-.4.2m310.8-3c-.1 0-.3-.1-.4-.2-.7-1-1.4-1.9-2.1-2.9-.1-.2-.1-.5.1-.6.2-.1.5-.1.6.1.7.9 1.4 1.9 2.1 2.9.1.2.1.5-.1.6-.07.07-.13.1-.2.1M346.5 290c-.1 0-.2 0-.3-.1-.2-.2-.2-.4-.1-.6.7-.9 1.4-1.9 2.2-2.8.2-.2.4-.2.6-.1.2.2.2.4.1.6-.7.9-1.5 1.9-2.2 2.8 0 .1-.1.2-.3.2m298.2-2.8c-.1 0-.3-.1-.3-.2-.7-.9-1.5-1.8-2.2-2.8-.2-.2-.1-.5.1-.6s.5-.1.6.1c.8.9 1.5 1.8 2.2 2.8.1.2.1.5-.1.6-.1.1-.2.1-.3.1m-291.5-5.5c-.1 0-.2 0-.3-.1-.2-.2-.2-.4-.1-.6.8-.9 1.5-1.8 2.3-2.7.2-.2.4-.2.6 0 .2.2.2.4 0 .6-.8.9-1.6 1.8-2.3 2.7 0 0-.1.1-.2.1m284.7-2.7c-.1 0-.2 0-.3-.1-.8-.9-1.6-1.8-2.4-2.6-.2-.2-.2-.5 0-.6.2-.2.5-.2.6 0 .8.9 1.6 1.8 2.4 2.6.2.2.1.5 0 .6s-.2.1-.3.1m-277.6-5.2c-.1 0-.2 0-.3-.1-.2-.2-.2-.4 0-.6.8-.9 1.6-1.7 2.5-2.6.2-.2.5-.2.6 0 .2.2.2.5 0 .6l-2.5 2.5c-.1.1-.2.2-.3.2m270.3-2.6c-.1 0-.2 0-.3-.1l-2.5-2.5c-.2-.2-.2-.5 0-.6.2-.2.5-.2.6 0l2.5 2.5c.2.2.2.5 0 .6 0 .1-.1.1-.3.1m-262.7-4.9c-.1 0-.2 0-.3-.1-.2-.2-.2-.5 0-.6.9-.8 1.7-1.6 2.6-2.4.2-.2.5-.1.6 0 .2.2.1.5 0 .6-.9.8-1.7 1.6-2.6 2.4-.1 0-.2.1-.3.1m255.1-2.4c-.1 0-.2 0-.3-.1-.9-.8-1.8-1.6-2.6-2.4-.2-.2-.2-.4 0-.6s.4-.2.6 0l2.7 2.4c.2.2.2.4 0 .6-.2 0-.3.1-.4.1m-247.2-4.7c-.1 0-.3-.1-.3-.2-.2-.2-.1-.5.1-.6.9-.8 1.8-1.5 2.7-2.3.2-.2.5-.1.6.1s.1.5-.1.6c-.9.7-1.8 1.5-2.7 2.2-.1.2-.2.2-.3.2m239.1-2.2c-.1 0-.2 0-.3-.1-.9-.7-1.8-1.5-2.8-2.2-.2-.2-.2-.4 0-.6.1-.2.4-.2.6-.1.9.7 1.9 1.5 2.8 2.2.2.2.2.4.1.6-.2.1-.3.2-.4.2m-230.8-4.4c-.1 0-.3-.1-.4-.2-.1-.2-.1-.5.1-.6.9-.7 1.9-1.4 2.9-2.1.2-.1.5-.1.6.1.1.2.1.5-.1.6-1 .7-1.9 1.4-2.9 2.1 0 .1-.1.1-.2.1m222.3-2.1c-.1 0-.2 0-.3-.1-1-.7-1.9-1.4-2.9-2-.2-.1-.2-.4-.1-.6.1-.2.4-.3.6-.1 1 .7 2 1.4 2.9 2.1.2.1.2.4.1.6s-.2.1-.3.1m-213.6-4c-.1 0-.3-.1-.4-.2-.1-.2-.1-.5.1-.6 1-.6 2-1.3 3-1.9.2-.1.5 0 .6.2s.1.4-.1.6c-1 .6-2 1.3-3 1.9h-.2m204.8-2c-.1 0-.2 0-.2-.1-1-.6-2-1.3-3-1.9-.2-.1-.3-.4-.2-.6.1-.2.4-.3.6-.2 1 .6 2 1.3 3 1.9.2.1.3.4.1.6 0 .3-.2.3-.3.3m-195.7-3.6c-.2 0-.3-.1-.4-.2-.1-.2-.1-.5.2-.6 1-.6 2-1.2 3.1-1.8.2-.1.5-.1.6.2.1.2 0 .5-.2.6-1 .6-2 1.2-3.1 1.8-.1-.1-.2 0-.2 0m186.5-1.8c-.1 0-.2 0-.2-.1-1-.6-2.1-1.1-3.1-1.7-.2-.1-.3-.4-.2-.6.1-.2.4-.3.6-.2 1.1.6 2.1 1.1 3.1 1.7.2.1.3.4.2.6-.1.2-.2.3-.4.3m-177.2-3.3c-.2 0-.4-.2-.4-.5 0-.2.1-.3.2-.4 1.1-.5 2.1-1.1 3.2-1.6.2-.1.5 0 .6.2.1.2 0 .5-.2.6-1.1.5-2.1 1-3.2 1.6-.07.07-.13.1-.2.1m167.8-1.7h-.2c-1.1-.5-2.1-1-3.2-1.5-.2-.1-.3-.4-.2-.6.1-.2.3-.3.6-.2 1.1.5 2.2 1 3.2 1.5.2.1.3.4.2.6-.1.1-.3.2-.4.2m-158.2-2.9c-.2 0-.3-.1-.4-.3s0-.5.2-.6c1.1-.5 2.2-.9 3.3-1.4.2-.1.5 0 .6.2.1.2 0 .5-.2.6-1.1.5-2.2.9-3.2 1.4-.2.1-.3.1-.3.1m148.4-1.5h-.2c-1.1-.5-2.2-.9-3.3-1.3-.2-.1-.3-.3-.2-.6.1-.2.3-.3.6-.2 1.1.4 2.2.9 3.3 1.3.2.1.3.3.2.6 0 .1-.2.2-.4.2m-138.6-2.5c-.2 0-.4-.2-.4-.4s.1-.4.3-.4l3.3-1.2c.2-.1.5 0 .6.3.1.2 0 .5-.3.6l-3.3 1.2-.2-.1m128.7-1.3c-1.2-.4-2.3-.8-3.5-1.2-.2-.1-.4-.3-.3-.6s.3-.4.6-.3c1.1.4 2.3.8 3.4 1.2.2.1.4.3.3.6-.2.2-.3.3-.5.3m-118.6-2.2c-.2 0-.4-.2-.4-.4s.1-.4.3-.4c1.1-.4 2.3-.7 3.4-1 .2-.1.5.1.5.3.1.2-.1.5-.3.5-1.1.3-2.3.7-3.4 1h-.1m108.4-1c-1.2-.3-2.4-.6-3.5-.9-.2-.1-.4-.3-.3-.5.1-.2.3-.4.5-.3 1.1.3 2.3.6 3.4.9.2.1.4.3.3.5 0 .1-.2.3-.4.3m-98.2-1.8c-.2 0-.4-.2-.4-.4s.1-.4.3-.4c1.2-.3 2.3-.6 3.5-.8.2-.1.5.1.5.3 0 .2-.1.5-.3.5-1.1.3-2.3.5-3.4.8h-.2m87.9-.9c-1.2-.3-2.4-.5-3.6-.8-.2 0-.4-.3-.3-.5 0-.2.3-.4.5-.3 1.2.2 2.3.5 3.5.8.2.1.4.3.3.5 0 .1-.2.3-.4.3m-77.5-1.4c-.2 0-.4-.2-.4-.5 0-.2.2-.4.4-.4 1.2-.2 2.3-.4 3.5-.6.2 0 .5.1.5.4 0 .2-.1.5-.4.5-1.2.2-2.3.4-3.6.6m67.1-.7-3.6-.6c-.2 0-.4-.2-.4-.5 0-.2.2-.4.4-.4h.1c1.2.2 2.3.4 3.5.6.2 0 .4.2.4.5s-.2.4-.4.4m-56.6-1c-.2 0-.4-.2-.4-.4s.1-.5.4-.5c1.2-.2 2.4-.3 3.5-.4.2 0 .5.2.5.4s-.1.5-.4.5c-1.2.1-2.4.2-3.6.4m46-.5c-1.2-.1-2.4-.2-3.6-.4-.2 0-.4-.2-.4-.5 0-.2.2-.4.5-.4 1.2.1 2.4.2 3.5.4.2 0 .4.3.4.5 0 .3-.1.4-.4.4m-35.4-.6c-.2 0-.4-.2-.4-.4s.2-.4.4-.4c1.2-.1 2.4-.2 3.5-.2.2 0 .4.2.5.4 0 .2-.2.4-.4.5-1.2-.1-2.4 0-3.6.1Zm24.8-.2c-1.2-.1-2.4-.1-3.6-.2-.2 0-.4-.2-.4-.4s.2-.4.4-.4c1.2 0 2.4.1 3.5.2.2 0 .4.2.4.5.2.1 0 .3-.3.3m-14.2-.3c-.2 0-.4-.2-.4-.4s.2-.4.4-.5h3.6c.2 0 .4.2.4.5 0 .2-.2.4-.4.4H493Z"/><path fill="none" d="m332.9 150.3 49.5 73.4"/><path d="M382.4 224.6c-.3 0-.6-.1-.7-.4l-49.5-73.4c-.3-.4-.2-1 .2-1.2.4-.3 1-.2 1.2.2l49.5 73.4c.3.4.2 1-.2 1.2-.1.1-.3.2-.5.2" fill="#003c2e"/><path d="M336.6 150.3c0 2-1.6 3.6-3.6 3.6s-3.6-1.6-3.6-3.6 1.6-3.6 3.6-3.6c1.9 0 3.6 1.6 3.6 3.6m49.4 73.4c0 2-1.6 3.6-3.6 3.6s-3.6-1.6-3.6-3.6 1.6-3.6 3.6-3.6 3.6 1.6 3.6 3.6" fill="#03fd9e"/><path fill="none" d="m282.3 191.5 64.1 61.1"/><path d="M346.4 253.4c-.2 0-.4-.1-.6-.2l-64.1-61c-.4-.3-.4-.9 0-1.3.3-.4.9-.4 1.3 0l64.1 61c.4.3.4.9 0 1.2-.2.2-.4.3-.7.3" fill="#003c2e"/><path d="M285.9 190.7c.4 2-.8 3.9-2.8 4.3-2 .4-3.9-.8-4.3-2.8-.4-1.9.8-3.9 2.8-4.3 1.9-.4 3.8.9 4.3 2.8m64.1 61.1c.4 2-.8 3.9-2.8 4.3-2 .4-3.9-.8-4.3-2.8s.8-3.9 2.8-4.3c1.9-.4 3.9.8 4.3 2.8" fill="#03fd9e"/><path fill="none" d="m241.8 242.7 75.7 45.8"/><path d="M317.5 289.4c-.2 0-.3 0-.5-.1l-75.8-45.8c-.4-.2-.6-.8-.3-1.2.2-.4.8-.6 1.2-.3l75.8 45.8c.4.3.6.8.3 1.2-.1.2-.3.4-.7.4" fill="#003c2e"/><path d="M245 241.2c.8 1.8.1 4-1.8 4.8-1.8.8-4 .1-4.8-1.8-.8-1.8-.1-4 1.8-4.8 1.9-.8 4-.1 4.8 1.8m75.8 45.7c.8 1.8.1 4-1.8 4.8-1.8.8-4 .1-4.8-1.8-.8-1.8-.1-4 1.8-4.8 1.8-.8 4 0 4.8 1.8" fill="#03fd9e"/><path fill="none" d="m213.2 301.4 83.9 28.4"/><path d="M297.1 330.7h-.3l-83.9-28.4c-.5-.2-.7-.7-.6-1.1.2-.5.7-.7 1.1-.6l83.9 28.4c.5.2.7.7.6 1.1-.1.3-.5.6-.8.6" fill="#003c2e"/><path d="M216.1 299.2c1.2 1.6.9 3.9-.7 5.1-1.6 1.2-3.9.9-5.1-.7-1.2-1.6-.9-3.9.7-5.1 1.6-1.2 3.9-.9 5.1.7m83.8 28.4c1.2 1.6.9 3.9-.7 5.1s-3.9.9-5.1-.7-.9-3.9.7-5.1 3.9-.9 5.1.7" fill="#03fd9e"/><path fill="none" d="m197.9 364.9 88 9.6"/><path d="M285.9 375.4h-.1l-88-9.7c-.5-.1-.8-.5-.8-1 .1-.5.5-.8 1-.8l88 9.6c.5.1.8.5.8 1 0 .6-.4.9-.9.9" fill="#003c2e"/><path d="M200.3 362.1c1.5 1.3 1.7 3.6.4 5.1s-3.6 1.7-5.1.4c-1.5-1.3-1.7-3.6-.4-5.1 1.3-1.5 3.5-1.7 5.1-.4m88 9.6c1.5 1.3 1.7 3.6.4 5.1s-3.6 1.7-5.1.4c-1.5-1.3-1.7-3.6-.4-5.1 1.3-1.5 3.5-1.6 5.1-.4" fill="#03fd9e"/><path fill="none" d="m196.7 430.2 88-9.6"/><path d="M196.7 431c-.5 0-.9-.4-.9-.9s.3-.8.8-.9l88-9.5c.5 0 .9.3 1 .8s-.3.9-.8 1l-88 9.6h-.1" fill="#003c2e"/><path d="M198.4 427c1.8.9 2.4 3.1 1.5 4.9s-3.1 2.4-4.9 1.5c-1.8-.9-2.4-3.1-1.5-4.9 1-1.8 3.1-2.5 4.9-1.5m88-9.6c1.8.9 2.4 3.1 1.5 4.9s-3.1 2.4-4.9 1.5-2.4-3.1-1.5-4.9c1-1.7 3.2-2.4 4.9-1.5" fill="#03fd9e"/><path fill="none" d="m209.6 494.2 83.9-28.3"/><path d="M209.6 495c-.4 0-.7-.2-.8-.6-.2-.5.1-1 .6-1.1l83.9-28.3c.5-.2 1 .1 1.1.6.2.5-.1 1-.6 1.1L209.9 495c-.1 0-.2.1-.3 0" fill="#003c2e"/><path d="M210.6 490.7c1.9.5 3.1 2.5 2.5 4.4-.5 1.9-2.5 3.1-4.4 2.5-1.9-.5-3.1-2.5-2.5-4.4.4-1.9 2.4-3.1 4.4-2.5m83.8-28.3c1.9.5 3.1 2.5 2.5 4.4s-2.5 3.1-4.4 2.5c-1.9-.5-3.1-2.5-2.5-4.4.5-1.9 2.5-3 4.4-2.5" fill="#03fd9e"/><path fill="none" d="m236 553.9 75.8-45.7"/><path d="M236 554.8c-.3 0-.6-.2-.8-.4-.3-.4-.1-1 .3-1.2l75.8-45.7c.4-.3 1-.1 1.2.3s.1 1-.3 1.2l-75.8 45.7c-.1 0-.3.1-.4.1" fill="#003c2e"/><path d="M236.2 550.3c2 .1 3.5 1.8 3.4 3.8s-1.8 3.5-3.8 3.4-3.5-1.8-3.4-3.8 1.8-3.5 3.8-3.4m75.8-45.7c2 .1 3.5 1.8 3.4 3.8s-1.8 3.5-3.8 3.4-3.5-1.8-3.4-3.8 1.8-3.5 3.8-3.4" fill="#03fd9e"/><path fill="none" d="m274.6 606.5 64.2-60.9"/><path d="M274.6 607.4c-.2 0-.5-.1-.6-.3-.3-.4-.3-.9 0-1.2l64.2-61c.4-.3.9-.3 1.3 0 .3.4.3.9 0 1.3l-64.2 61c-.3.1-.5.2-.7.2" fill="#003c2e"/><path d="M274 603c2-.3 3.8 1 4.2 3 .3 2-1 3.8-3 4.2-2 .3-3.8-1-4.2-3-.3-2 1-3.9 3-4.2m64.2-61c2-.3 3.8 1 4.2 3s-1 3.8-3 4.2c-2 .3-3.8-1-4.2-3-.3-2 1-3.9 3-4.2" fill="#03fd9e"/><path fill="none" d="m323.7 649.6 49.5-73.4"/><path d="M323.6 650.5c-.2 0-.4-.1-.5-.2-.4-.3-.5-.8-.2-1.2l49.5-73.4c.3-.4.8-.5 1.2-.2.4.3.5.8.2 1.2l-49.5 73.4c-.1.3-.4.4-.7.4" fill="#003c2e"/><path d="M322.3 646.3c1.9-.7 4 .1 4.7 2s-.1 4-2 4.7-4-.1-4.7-2c-.8-1.9.1-4 2-4.7m49.5-73.4c1.9-.7 4 .1 4.7 2s-.1 4-2 4.7-4-.1-4.7-2c-.7-1.9.2-4 2-4.7" fill="#03fd9e"/><path fill="none" d="m380.8 681.1 32.6-82.3"/><path d="M380.8 682c-.1 0-.2 0-.3-.1-.5-.2-.7-.7-.5-1.2l32.6-82.3c.2-.4.7-.7 1.1-.5.5.2.7.7.5 1.1l-32.6 82.3c-.1.5-.4.7-.8.7" fill="#003c2e"/><path d="M378.8 678.1c1.6-1.1 3.9-.7 5 .9s.7 3.9-.9 5-3.9.7-5-.9c-1.2-1.6-.8-3.8.9-5m32.6-82.3c1.6-1.1 3.9-.7 5 .9s.7 3.9-.9 5-3.9.7-5-.9c-1.2-1.6-.8-3.9.9-5" fill="#03fd9e"/><path fill="none" d="m443.5 699.6 14-87.5"/><path d="M443.5 700.4h-.1c-.5-.1-.8-.5-.7-1l14.1-87.4c.1-.5.5-.8 1-.7s.8.5.7 1l-14.1 87.4c-.1.4-.5.7-.9.7" fill="#003c2e"/><path d="M440.8 697.1c1.4-1.5 3.7-1.5 5.1-.2s1.5 3.7.2 5.1c-1.4 1.5-3.7 1.5-5.1.2-1.5-1.4-1.5-3.7-.2-5.1m14.1-87.4c1.4-1.5 3.7-1.5 5.1-.2 1.5 1.4 1.5 3.7.2 5.1-1.4 1.5-3.7 1.5-5.1.2-1.5-1.4-1.6-3.7-.2-5.1" fill="#03fd9e"/><path fill="none" d="m508.6 704.1-5.1-88.4"/><path d="M508.6 704.9c-.5 0-.9-.4-.9-.8l-5.1-88.4c0-.5.3-.9.8-.9h.1c.5 0 .9.4.9.8l5.1 88.4c0 .5-.4.9-.9.9" fill="#003c2e"/><path d="M505.5 702.2c1-1.7 3.2-2.3 5-1.3s2.3 3.2 1.3 5c-1 1.7-3.2 2.3-5 1.3-1.7-1.1-2.3-3.3-1.3-5m-5.1-88.4c1-1.7 3.2-2.3 5-1.3s2.3 3.2 1.3 5c-1 1.7-3.2 2.3-5 1.3s-2.3-3.3-1.3-5" fill="#03fd9e"/><path fill="none" d="m573.2 694.4-24-85.2"/><path d="M573.2 695.3c-.4 0-.7-.3-.9-.6l-24-85.2c-.1-.5.1-1 .6-1.1s1 .1 1.1.6l24 85.2c.1.5-.1 1-.6 1.1h-.2" fill="#003c2e"/><path d="M569.7 693.3c.6-1.9 2.7-2.9 4.6-2.3s2.9 2.7 2.3 4.6-2.7 2.9-4.6 2.3c-1.8-.7-2.9-2.7-2.3-4.6m-24-85.2c.6-1.9 2.7-2.9 4.6-2.3 1.9.6 2.9 2.7 2.3 4.6s-2.7 2.9-4.6 2.3c-1.9-.7-2.9-2.7-2.3-4.6" fill="#03fd9e"/><path fill="none" d="m634.2 671.1-41.9-78"/><path d="M634.2 672c-.3 0-.6-.2-.8-.5l-41.8-78c-.2-.4-.1-1 .4-1.2.4-.2 1-.1 1.2.4l41.8 78c.2.4.1 1-.4 1.2-.2 0-.3.1-.4.1" fill="#003c2e"/><path d="M630.6 670.7c.2-2 2-3.4 4-3.2s3.4 2 3.2 4-2 3.4-4 3.2-3.4-2-3.2-4m-41.9-78c.2-2 2-3.4 4-3.2s3.4 2 3.2 4-2 3.4-4 3.2c-1.9-.2-3.4-2-3.2-4" fill="#03fd9e"/><path fill="none" d="M688.7 635.2 631 568"/><path d="M688.7 636.1c-.3 0-.5-.1-.7-.3l-57.7-67.2c-.3-.4-.3-.9.1-1.3.4-.3.9-.3 1.3.1l57.7 67.2c.3.4.3.9-.1 1.3-.2.1-.4.2-.6.2" fill="#003c2e"/><path d="M685.1 635.6c-.2-2 1.2-3.8 3.2-4s3.8 1.2 4 3.2-1.2 3.8-3.2 4c-2 .2-3.8-1.2-4-3.2m-57.7-67.2c-.2-2 1.2-3.8 3.2-4s3.8 1.2 4 3.2-1.2 3.8-3.2 4c-1.9.2-3.7-1.2-4-3.2" fill="#03fd9e"/><path fill="none" d="m734.2 588.3-70.8-53.1"/><path d="M734.2 589.2c-.2 0-.4-.1-.5-.2l-70.8-53.2c-.4-.3-.5-.8-.2-1.2s.8-.5 1.2-.2l70.8 53.2c.4.3.5.8.2 1.2-.2.3-.4.4-.7.4" fill="#003c2e"/><path d="M730.8 589.5c-.7-1.9.3-4 2.2-4.6 1.9-.7 4 .3 4.6 2.2.7 1.9-.3 4-2.2 4.6-1.9.7-4-.3-4.6-2.2M660 536.3c-.7-1.9.3-4 2.2-4.6 1.9-.7 4 .3 4.6 2.2s-.3 4-2.2 4.6c-1.9.7-4-.3-4.6-2.2" fill="#03fd9e"/><path fill="none" d="M768.5 532.8 688 496.1"/><path d="M768.5 533.7c-.1 0-.3 0-.4-.1l-80.6-36.7c-.4-.2-.6-.7-.4-1.2.2-.4.7-.6 1.2-.4l80.6 36.7c.4.2.6.7.4 1.2-.1.3-.4.5-.8.5" fill="#003c2e"/><path d="M765.5 534.7c-1-1.7-.5-3.9 1.2-5 1.7-1 3.9-.5 5 1.2 1 1.7.5 3.9-1.2 5-1.8 1-4 .5-5-1.2M684.9 498c-1-1.7-.5-3.9 1.2-5 1.7-1 3.9-.5 5 1.2 1 1.7.5 3.9-1.2 5-1.8 1.1-4 .5-5-1.2" fill="#03fd9e"/><path fill="none" d="m790.1 471.2-86.6-18.5"/><path d="M790.1 472.1h-.2l-86.6-18.5c-.5-.1-.8-.6-.7-1s.6-.8 1-.7l86.6 18.4c.5.1.8.6.7 1.1 0 .4-.4.7-.8.7" fill="#003c2e"/><path d="M787.5 473.7c-1.4-1.4-1.3-3.7.1-5.1 1.4-1.4 3.7-1.3 5.1.1 1.4 1.4 1.3 3.7-.1 5.1-1.4 1.4-3.7 1.3-5.1-.1m-86.6-18.4c-1.4-1.4-1.3-3.7.1-5.1 1.4-1.4 3.7-1.3 5.1.1 1.4 1.4 1.3 3.7-.1 5.1-1.4 1.3-3.7 1.3-5.1-.1" fill="#03fd9e"/><path fill="none" d="m797.9 406.4-88.5.6"/><path d="M709.4 407.9c-.5 0-.9-.4-.9-.9s.4-.9.9-.9l88.5-.6c.5 0 .9.4.9.9s-.4.9-.9.9l-88.5.6Z" fill="#003c2e"/><path d="M795.9 409.4c-1.7-1.1-2.1-3.4-1-5 1.1-1.7 3.4-2.1 5-1 1.7 1.1 2.1 3.3 1 5-1.1 1.6-3.4 2.1-5 1m-88.6.6c-1.7-1.1-2.1-3.4-1-5 1.1-1.7 3.4-2.1 5-1 1.7 1.1 2.1 3.3 1 5-1 1.7-3.3 2.1-5 1" fill="#03fd9e"/><path fill="none" d="m791.5 341.4-86.3 19.7"/><path d="M705.2 362c-.5 0-.9-.4-.9-.9 0-.4.3-.8.7-.9l86.3-19.7c.5-.1 1 .2 1.1.6.1.5-.2 1-.6 1.1L705.4 362h-.2" fill="#003c2e"/><path d="M790.2 344.8c-1.9-.7-2.8-2.8-2.1-4.7.7-1.9 2.8-2.8 4.7-2.1 1.9.7 2.8 2.8 2.1 4.7-.7 1.8-2.8 2.8-4.7 2.1m-86.3 19.7c-1.9-.7-2.8-2.8-2.1-4.7s2.8-2.8 4.7-2.1c1.9.7 2.8 2.8 2.1 4.7-.7 1.9-2.8 2.8-4.7 2.1" fill="#03fd9e"/><path fill="none" d="m771.3 279.3-80 37.8"/><path d="M691.2 318c-.5 0-.9-.4-.9-.9 0-.3.2-.6.5-.8l80-37.8c.4-.2.9 0 1.2.4.2.4 0 1-.4 1.2l-80 37.8c-.1.1-.2.1-.4.1" fill="#003c2e"/><path d="M770.7 282.9c-2-.3-3.3-2.1-3-4.1s2.1-3.3 4.1-3 3.3 2.1 3 4.1c-.2 1.9-2.1 3.3-4.1 3m-80 37.8c-2-.3-3.3-2.1-3-4.1s2.1-3.3 4.1-3 3.3 2.1 3 4.1c-.3 2-2.1 3.3-4.1 3" fill="#03fd9e"/><path fill="none" d="m738.2 223-70 54.2"/><path d="M668.2 278.1c-.3 0-.5-.1-.7-.3-.3-.4-.2-.9.1-1.2l70-54.2c.4-.3.9-.3 1.2.1.3.4.3.9-.1 1.2l-.1.1-70 54.2c-.1.1-.2.1-.4.1" fill="#003c2e"/><path d="M738.4 226.6c-2 .1-3.7-1.4-3.9-3.4-.1-2 1.4-3.7 3.4-3.9 2-.1 3.7 1.4 3.9 3.4.1 2.1-1.4 3.8-3.4 3.9m-70 54.2c-2 .1-3.7-1.4-3.9-3.4s1.4-3.7 3.4-3.9c2-.1 3.7 1.4 3.9 3.4.1 2.1-1.4 3.8-3.4 3.9" fill="#03fd9e"/><path fill="none" d="M693.7 175.2 637 243.3"/><path d="M637 244.1c-.2 0-.4-.1-.6-.2-.4-.3-.4-.9-.1-1.3l56.7-68c.3-.4.9-.4 1.3-.1.4.3.4.9.1 1.2l-56.7 68c-.2.3-.4.4-.7.4" fill="#003c2e"/><path d="M694.7 178.7c-1.9.6-3.9-.5-4.5-2.5-.6-1.9.5-3.9 2.5-4.5 1.9-.6 3.9.5 4.5 2.5.5 1.9-.6 4-2.5 4.5m-56.7 68c-1.9.6-3.9-.5-4.5-2.5-.6-1.9.5-3.9 2.5-4.5 1.9-.6 3.9.5 4.5 2.5.5 2-.6 4-2.5 4.5" fill="#03fd9e"/><path fill="none" d="m741 163.2-27.2 27.6"/><path d="M713.8 191.7c-.5 0-.9-.4-.9-.9 0-.2.1-.5.3-.6l27.1-27.6c.3-.3.9-.4 1.3 0 .3.3.3.9 0 1.3l-27.1 27.6c-.2.1-.5.2-.7.2" fill="#003c2e"/><path d="M741.7 166.8c-2 .4-3.9-.9-4.3-2.8s.9-3.9 2.8-4.3c2-.4 3.9.9 4.3 2.8.4 2-.9 3.9-2.8 4.3m-27.2 27.6c-2 .4-3.9-.9-4.3-2.8s.9-3.9 2.8-4.3c2-.4 3.9.9 4.3 2.8.5 2-.8 3.9-2.8 4.3" fill="#03fd9e"/><path fill="none" d="m786.3 220.5-32.4 21.2"/><path d="M753.9 242.6c-.3 0-.6-.2-.7-.4-.3-.4-.2-1 .2-1.2l32.4-21.2c.4-.3.9-.2 1.2.2.3.4.1 1-.3 1.2l-32.4 21.2c-.1.1-.2.2-.4.2" fill="#003c2e"/><path d="M786.2 224.1c-2 0-3.6-1.7-3.6-3.7s1.7-3.6 3.7-3.6 3.6 1.7 3.6 3.7-1.7 3.6-3.7 3.6m-32.4 21.2c-2 0-3.6-1.7-3.6-3.7s1.7-3.6 3.7-3.6 3.6 1.7 3.6 3.7-1.7 3.6-3.7 3.6" fill="#03fd9e"/><path fill="none" d="m819.4 288.7-36.3 13.6"/><path d="M783.1 303.2c-.5 0-.9-.4-.9-.9 0-.4.2-.7.6-.8l36.2-13.6c.5-.2 1 .1 1.1.5.2.5-.1 1-.5 1.1L783.3 303c0 .2-.1.2-.2.2" fill="#003c2e"/><path d="M818.5 292.3c-1.9-.5-3.1-2.4-2.7-4.4s2.4-3.1 4.4-2.7c1.9.5 3.1 2.4 2.7 4.4-.5 1.9-2.4 3.1-4.4 2.7m-36.2 13.5c-1.9-.5-3.1-2.4-2.7-4.4.5-1.9 2.4-3.1 4.4-2.7 1.9.5 3.1 2.4 2.7 4.4-.5 2-2.5 3.2-4.4 2.7" fill="#03fd9e"/><path fill="none" d="m836.6 362.6-38.3 5.2"/><path d="M798.3 368.7c-.5 0-.9-.4-.9-.9 0-.4.3-.8.8-.9l38.3-5.2c.5-.1.9.2 1 .7s-.2.9-.7 1l-38.3 5.2-.2.1" fill="#003c2e"/><path d="M835 365.8c-1.8-.9-2.5-3.1-1.6-4.8.9-1.8 3.1-2.5 4.8-1.6 1.8.9 2.5 3.1 1.6 4.8-.8 1.8-3 2.5-4.8 1.6m-38.3 5.3c-1.8-.9-2.5-3.1-1.6-4.8.9-1.8 3.1-2.5 4.8-1.6 1.8.9 2.5 3.1 1.6 4.8-.8 1.7-3 2.5-4.8 1.6" fill="#03fd9e"/><path fill="none" d="m837.2 438.4-38.6-3.3"/><path d="m837.2 439.3-38.6-3.3c-.5 0-.9-.5-.8-1 0-.5.5-.9 1-.8l38.6 3.3c.5 0 .9.5.8 1s-.5.8-1 .8" fill="#003c2e"/><path d="M834.9 441.2c-1.6-1.3-1.8-3.5-.5-5.1s3.5-1.8 5.1-.5 1.8 3.5.5 5.1c-1.2 1.6-3.5 1.8-5.1.5m-38.5-3.3c-1.6-1.3-1.8-3.5-.5-5.1s3.5-1.8 5.1-.5 1.8 3.5.5 5.1c-1.3 1.5-3.6 1.8-5.1.5" fill="#03fd9e"/><path fill="none" d="m821.1 512.5-36.9-11.7"/><path d="M821.1 513.4h-.3l-36.9-11.7c-.5-.1-.7-.6-.6-1.1.1-.5.6-.7 1.1-.6l36.9 11.7c.5.1.7.6.6 1.1-.1.4-.5.6-.8.6" fill="#003c2e"/><path d="M818.2 514.8c-1.2-1.6-1-3.8.6-5.1s3.8-1 5.1.6c1.2 1.6 1 3.8-.6 5.1-1.6 1.2-3.8 1-5.1-.6M781.4 503c-1.2-1.6-1-3.8.6-5.1 1.6-1.2 3.8-1 5.1.6 1.2 1.6 1 3.8-.6 5.1-1.6 1.3-3.9 1-5.1-.6" fill="#03fd9e"/><path fill="none" d="m789 581.3-33.4-19.6"/><path d="M789 582.2c-.2 0-.3 0-.5-.1l-33.4-19.6c-.4-.3-.6-.8-.3-1.2.2-.4.8-.6 1.2-.3l33.4 19.6c.4.3.5.8.3 1.2-.1.2-.4.4-.7.4" fill="#003c2e"/><path d="M785.7 582.8c-.9-1.8-.1-4 1.7-4.8 1.8-.9 4-.1 4.8 1.7.9 1.8.1 4-1.7 4.8-1.7.9-3.9.1-4.8-1.7m-33.3-19.5c-.9-1.8-.1-4 1.7-4.8 1.8-.9 4-.1 4.8 1.7.9 1.8.1 4-1.7 4.8s-4 .1-4.8-1.7" fill="#03fd9e"/><path fill="none" d="m742.6 641.3-28.3-26.5"/><path d="M742.6 642.1c-.2 0-.4-.1-.6-.2l-28.3-26.4c-.4-.3-.4-.9 0-1.3.3-.4.9-.4 1.3 0l28.3 26.4c.4.3.4.9.1 1.2-.3.2-.6.3-.8.3" fill="#003c2e"/><path d="M739.1 642.1c-.4-2 .8-3.9 2.7-4.3 2-.4 3.9.8 4.3 2.7.4 2-.8 3.9-2.7 4.3-1.9.4-3.9-.8-4.3-2.7m-28.3-26.5c-.4-2 .8-3.9 2.7-4.3 2-.4 3.9.8 4.3 2.7.4 2-.8 3.9-2.7 4.3-1.9.5-3.8-.7-4.3-2.7" fill="#03fd9e"/><path fill="none" d="m684.1 689.6-21.7-32.1"/><path d="M684.1 690.4c-.3 0-.6-.1-.7-.4l-21.7-32c-.3-.4-.2-1 .2-1.2s1-.2 1.2.2l21.7 32c.3.4.2.9-.2 1.2-.1.2-.3.2-.5.2" fill="#003c2e"/><path d="M680.5 689.6c0-2 1.6-3.6 3.6-3.6s3.6 1.6 3.6 3.6-1.6 3.6-3.6 3.6-3.6-1.6-3.6-3.6m-21.7-32.1c0-2 1.6-3.6 3.6-3.6s3.6 1.6 3.6 3.6-1.6 3.6-3.6 3.6c-2 .1-3.6-1.5-3.6-3.6" fill="#03fd9e"/><path fill="none" d="m616.5 723.8-14.2-36"/><path d="M616.5 724.7c-.4 0-.7-.2-.8-.6l-14.2-36c-.2-.5 0-1 .5-1.2s1 0 1.1.5l14.2 36c.2.5 0 1-.5 1.2-.1.1-.2.1-.3.1" fill="#003c2e"/><path d="M612.9 723c.4-2 2.4-3.2 4.3-2.8s3.2 2.4 2.8 4.3c-.4 2-2.4 3.2-4.3 2.8-2-.4-3.2-2.3-2.8-4.3m-14.1-36c.4-2 2.4-3.2 4.3-2.8 2 .4 3.2 2.4 2.8 4.3-.4 2-2.4 3.2-4.3 2.8-2-.4-3.3-2.4-2.8-4.3" fill="#03fd9e"/><path fill="none" d="M542.9 742.3 537 704"/><path d="M542.9 743.2c-.4 0-.8-.3-.9-.8l-5.9-38.2c-.1-.5.3-.9.7-1 .5-.1.9.3 1 .7l5.9 38.2c.1.5-.3.9-.8 1.1" fill="#003c2e"/><path d="M539.6 740.7c.9-1.8 3-2.6 4.8-1.7 1.8.9 2.6 3 1.7 4.8-.9 1.8-3 2.6-4.8 1.7-1.7-.8-2.5-3-1.7-4.8m-5.8-38.2c.9-1.8 3-2.6 4.8-1.7 1.8.9 2.6 3 1.7 4.8-.9 1.8-3 2.6-4.8 1.7-1.8-.8-2.6-3-1.7-4.8" fill="#03fd9e"/><path fill="none" d="m467.1 744.1 2.7-38.6"/><path d="M467.1 745c-.6 0-.9-.5-.9-.9l2.7-38.6c0-.5.5-.8.9-.8.5 0 .8.5.8.9l-2.7 38.6c0 .5-.3.8-.8.8" fill="#003c2e"/><path d="M464.2 741.9c1.2-1.6 3.5-1.9 5.1-.6 1.6 1.2 1.9 3.5.6 5.1-1.2 1.6-3.5 1.9-5.1.6-1.5-1.2-1.8-3.5-.6-5.1m2.7-38.6c1.2-1.6 3.5-1.9 5.1-.6 1.6 1.2 1.9 3.5.6 5.1-1.2 1.6-3.5 1.9-5.1.6-1.5-1.2-1.8-3.5-.6-5.1" fill="#03fd9e"/><path fill="none" d="m343.3 708.9 16.7-34.8"/><path d="M343.3 709.8c-.1 0-.3 0-.4-.1-.4-.2-.6-.7-.4-1.2l16.8-34.9c.2-.4.7-.6 1.2-.4.4.2.6.7.4 1.2l-16.8 34.9c-.2.3-.5.5-.8.5" fill="#003c2e"/><path d="M341.4 705.8c1.7-1 3.9-.4 5 1.3 1 1.7.4 3.9-1.3 5-1.7 1-3.9.4-5-1.3-1-1.8-.4-4 1.3-5m16.8-34.9c1.7-1 3.9-.4 5 1.3 1 1.7.4 3.9-1.3 5s-3.9.4-5-1.3c-1-1.7-.4-3.9 1.3-5" fill="#03fd9e"/><path fill="none" d="m403.1 732.2 10-37.4"/><path d="M403.1 733.1h-.2a.8.8 0 0 1-.6-1.1l10-37.4c.1-.5.6-.8 1-.6h.1c.5.1.8.6.6 1.1l-10 37.4c-.1.3-.5.6-.9.6" fill="#003c2e"/><path d="M400.7 729.5c1.5-1.3 3.8-1.2 5.1.3 1.3 1.5 1.2 3.8-.3 5.1s-3.8 1.2-5.1-.3-1.2-3.8.3-5.1m10-37.4c1.5-1.3 3.8-1.2 5.1.3 1.3 1.5 1.2 3.8-.3 5.1s-3.8 1.2-5.1-.3c-1.3-1.5-1.2-3.8.3-5.1" fill="#03fd9e"/><path fill="none" d="m277.1 665.7 24.3-30.1"/><path d="M277.1 666.6c-.5 0-.9-.4-.9-.9 0-.2.1-.4.2-.6l24.3-30.1c.3-.4.9-.4 1.3-.1.4.3.4.9.1 1.2l-24.3 30.1c-.2.3-.4.4-.7.4" fill="#003c2e"/><path d="M276.1 662.3c1.9-.6 3.9.5 4.5 2.4s-.5 3.9-2.4 4.5-3.9-.5-4.5-2.4.4-3.9 2.4-4.5m24.3-30.1c1.9-.6 3.9.5 4.5 2.4s-.5 3.9-2.4 4.5-3.9-.5-4.5-2.4.5-4 2.4-4.5" fill="#03fd9e"/><path fill="none" d="m224.5 610.7 30.4-24"/><path d="M224.5 611.6c-.5 0-.9-.4-.9-.9 0-.3.1-.5.3-.7l30.4-24c.4-.3.9-.3 1.3.1.3.4.3.9-.1 1.3l-30.4 24c-.2.1-.4.2-.6.2" fill="#003c2e"/><path d="M224.2 607.1c2-.2 3.7 1.3 3.9 3.3s-1.3 3.7-3.3 3.9-3.7-1.3-3.9-3.3c-.1-2 1.4-3.8 3.3-3.9m30.4-24c2-.2 3.7 1.3 3.9 3.3s-1.3 3.7-3.3 3.9c-2 .2-3.7-1.3-3.9-3.3-.2-2 1.3-3.7 3.3-3.9" fill="#03fd9e"/><path fill="none" d="m188.2 551.3 34.5-17.4"/><path d="M188.2 552.2c-.5 0-.9-.4-.9-.9 0-.3.2-.6.5-.8l34.6-17.4c.4-.2 1 0 1.2.4s0 1-.4 1.2L188.6 552c-.2.1-.3.2-.4.2" fill="#003c2e"/><path d="M188.6 547.7c2 .2 3.4 2.1 3.1 4-.2 2-2.1 3.4-4 3.1s-3.4-2.1-3.1-4c.2-2 2-3.4 4-3.1m34.6-17.4c2 .3 3.4 2.1 3.1 4.1-.3 2-2.1 3.4-4.1 3.1-2-.3-3.4-2.1-3.1-4.1.3-1.9 2.1-3.3 4.1-3.1" fill="#03fd9e"/><path fill="none" d="m162 475.2 37.7-8.8"/><path d="M162 476.1c-.4 0-.8-.3-.9-.7-.1-.5.2-.9.6-1.1l37.7-8.8c.5-.1.9.1 1.1.6v.1c.1.5-.2.9-.6 1.1l-37.7 8.8c0-.1-.1-.1-.2 0" fill="#003c2e"/><path d="M163.3 471.8c1.9.7 2.8 2.8 2.1 4.7s-2.8 2.8-4.7 2.1c-1.9-.7-2.8-2.8-2.1-4.7.8-1.9 2.9-2.8 4.7-2.1M201 463c1.9.7 2.8 2.8 2.1 4.7-.7 1.9-2.8 2.8-4.7 2.1-1.9-.7-2.8-2.8-2.1-4.7.8-1.9 2.8-2.8 4.7-2.1" fill="#03fd9e"/><path fill="none" d="m154.4 400 38.7-.3"/><path d="M154.4 400.9c-.5 0-.9-.4-.9-.9s.4-.9.9-.9l38.7-.3c.5 0 .9.4.9.9s-.4.9-.9.9l-38.7.3Z" fill="#003c2e"/><path d="M156.4 397c1.7 1.1 2.1 3.4 1 5s-3.4 2.1-5 1c-1.7-1.1-2.1-3.4-1-5s3.3-2.1 5-1m38.7-.3c1.7 1.1 2.1 3.4 1 5s-3.4 2.1-5 1c-1.7-1.1-2.1-3.4-1-5 1.1-1.7 3.3-2.1 5-1" fill="#03fd9e"/><path fill="none" d="m163.4 325.2 37.8 8.1"/><path d="M201.2 334.2h-.2l-37.8-8.2c-.5-.1-.8-.6-.7-1.1.1-.5.6-.8 1-.7l37.8 8.2c.5.1.8.6.7 1.1 0 .4-.4.7-.8.7" fill="#003c2e"/><path d="M166 322.7c1.4 1.4 1.3 3.7-.1 5.1-1.4 1.4-3.7 1.3-5.1-.1-1.4-1.4-1.3-3.7.1-5.1 1.4-1.4 3.7-1.4 5.1.1m37.8 8.1c1.4 1.4 1.3 3.7-.1 5.1-1.4 1.4-3.7 1.3-5.1-.1s-1.3-3.7.1-5.1c1.4-1.4 3.7-1.3 5.1.1" fill="#03fd9e"/><path fill="none" d="m187.5 256.2 35.2 16"/><path d="M222.7 273.1c-.1 0-.3 0-.4-.1l-35.2-16c-.5-.2-.7-.7-.5-1.2s.7-.7 1.2-.5l35.2 16c.4.2.6.7.4 1.2 0 .4-.3.6-.7.6" fill="#003c2e"/><path d="M190.6 254.3c1 1.7.5 3.9-1.2 5s-3.9.5-5-1.2c-1-1.7-.5-3.9 1.2-5 1.7-1 3.9-.5 5 1.2m35.2 16c1 1.7.5 3.9-1.2 5-1.7 1-3.9.5-5-1.2-1-1.7-.5-3.9 1.2-5 1.7-1 3.9-.5 5 1.2" fill="#03fd9e"/><path fill="none" d="m225.1 194.7 31.1 23"/><path d="M256.2 218.6c-.2 0-.4-.1-.5-.2l-31.1-23c-.4-.3-.5-.8-.2-1.2.3-.4.8-.5 1.2-.2l31.1 23c.4.3.5.8.2 1.2-.1.3-.4.4-.7.4" fill="#003c2e"/><path d="M228.5 193.5c.7 1.9-.3 4-2.2 4.6-1.9.7-4-.3-4.6-2.2-.7-1.9.3-4 2.2-4.6 1.9-.7 4 .3 4.6 2.2m31.1 23c.7 1.9-.3 4-2.2 4.6-1.9.7-4-.3-4.6-2.2-.7-1.9.3-4 2.2-4.6 1.9-.7 4 .3 4.6 2.2" fill="#03fd9e"/><path fill="none" d="m276.1 141.3 25.4 29.2"/><path d="M301.5 171.4c-.3 0-.5-.1-.7-.3l-25.4-29.2c-.3-.4-.3-.9 0-1.3.4-.3.9-.3 1.3 0l25.4 29.2c.3.4.3.9-.1 1.3 0 .2-.2.3-.5.3" fill="#003c2e"/><path d="M279.7 140.9c.2 2-1.2 3.8-3.1 4-2 .2-3.8-1.2-4-3.1-.2-2 1.2-3.8 3.1-4 1.9-.3 3.7 1.1 4 3.1m25.4 29.1c.2 2-1.2 3.8-3.1 4s-3.8-1.2-4-3.1c-.2-2 1.2-3.8 3.1-4 2-.3 3.8 1.1 4 3.1" fill="#03fd9e"/><path fill="none" d="m336.6 100.5 18.7 33.9"/><path d="M355.3 135.3c-.3 0-.6-.2-.8-.5l-18.7-33.9c-.2-.4-.1-1 .3-1.2.4-.2 1-.1 1.2.3l18.7 34c.2.4.1.9-.3 1.2-.1 0-.3.1-.4.1" fill="#003c2e"/><path d="M340.2 100.8c-.2 2-1.9 3.5-3.9 3.3s-3.5-1.9-3.3-3.9 1.9-3.5 3.9-3.3c2 .2 3.5 1.9 3.3 3.9m18.7 33.9c-.2 2-1.9 3.5-3.9 3.3s-3.5-1.9-3.3-3.9 1.9-3.5 3.9-3.3c2 .2 3.5 1.9 3.3 3.9" fill="#03fd9e"/><path fill="none" d="m400.7 74.5 11.5 37"/><path d="M412.2 112.3c-.4 0-.7-.3-.9-.6l-11.5-37c-.1-.5.1-1 .6-1.1.5-.1 1 .1 1.1.6l11.5 36.9c.1.5-.1 1-.6 1.1-.07.07-.13.1-.2.1" fill="#003c2e"/><path d="M404.1 75.5c-.6 1.9-2.6 3-4.5 2.4s-3-2.6-2.4-4.5 2.6-3 4.5-2.4c1.9.6 3 2.6 2.4 4.5m11.5 37c-.6 1.9-2.6 3-4.5 2.4s-3-2.6-2.4-4.5 2.6-3 4.5-2.4c1.9.6 3 2.6 2.4 4.5" fill="#03fd9e"/><path fill="none" d="m473.7 61.5 3.3 38.6"/><path d="M477 101c-.5 0-.8-.4-.9-.8l-3.2-38.6c0-.5.3-.9.8-1 .5-.1.9.3 1 .7v.1L478 100c-.1.5-.5.9-1 1" fill="#003c2e"/><path d="M476.9 63.3c-1 1.7-3.2 2.4-4.9 1.4-1.7-1-2.4-3.2-1.4-4.9s3.2-2.4 4.9-1.4c1.7.9 2.4 3.1 1.4 4.9m3.2 38.6c-1 1.7-3.2 2.4-4.9 1.4s-2.4-3.2-1.4-4.9 3.2-2.4 4.9-1.4c1.8.9 2.4 3.1 1.4 4.9" fill="#03fd9e"/><path fill="none" d="m514.8 61.2-1.4 38.7"/><path d="M513.4 100.8c-.5 0-.9-.4-.9-.9l1.4-38.7c0-.5.4-.9.9-.9s.9.4.9.9l-1.4 38.7c0 .5-.4.9-.9.9" fill="#003c2e"/><path d="M517.8 63.4c-1.2 1.6-3.4 2-5.1.8-1.6-1.2-2-3.4-.8-5.1 1.2-1.6 3.4-2 5.1-.8 1.6 1.2 1.9 3.4.8 5.1m-1.4 38.6c-1.2 1.6-3.4 2-5.1.8-1.6-1.2-2-3.4-.8-5.1s3.4-2 5.1-.8c1.6 1.3 1.9 3.5.8 5.1" fill="#03fd9e"/><path fill="none" d="m619.5 83.5-13.3 36.4"/><path d="M606.2 120.8c-.1 0-.2 0-.3-.1-.5-.2-.7-.7-.5-1.1l13.3-36.4c.1-.5.6-.7 1.1-.6s.7.6.6 1.1v.1l-13.3 36.4c-.2.3-.5.6-.9.6" fill="#003c2e"/><path d="M621.6 86.5c-1.6 1.2-3.9.8-5.1-.8-1.2-1.6-.8-3.9.8-5.1s3.9-.8 5.1.8c1.2 1.6.8 3.9-.8 5.1m-13.3 36.3c-1.6 1.2-3.9.8-5.1-.8-1.2-1.6-.8-3.9.8-5.1s3.9-.8 5.1.8c1.2 1.7.9 3.9-.8 5.1" fill="#03fd9e"/><path fill="none" d="m687.4 118.8-21 32.5"/><path d="M666.4 152.2c-.2 0-.3 0-.5-.1-.4-.3-.5-.8-.3-1.2l21-32.5c.3-.4.8-.5 1.2-.3.4.3.5.8.3 1.2l-21 32.5c-.2.2-.4.4-.7.4" fill="#003c2e"/><path d="M688.8 122.1c-1.8.8-4-.1-4.8-1.9s.1-4 1.9-4.8c1.8-.8 4 .1 4.8 1.9.8 1.9-.1 4-1.9 4.8m-21 32.5c-1.8.8-4-.1-4.8-1.9s.1-4 1.9-4.8c1.8-.8 4 .1 4.8 1.9.8 1.9-.1 4-1.9 4.8" fill="#03fd9e"/><path fill="none" d="m640 138.1-40.7 78.7"/><path d="M599.3 217.7c-.1 0-.3 0-.4-.1-.4-.2-.6-.8-.4-1.2l40.7-78.6c.2-.4.8-.6 1.2-.4.4.2.6.8.4 1.2l-40.7 78.6c-.2.3-.5.5-.8.5" fill="#003c2e"/><path d="M641.7 141.3c-1.8 1-4 .3-4.9-1.4-1-1.8-.3-4 1.4-4.9 1.8-1 4-.3 4.9 1.4 1 1.8.3 3.9-1.4 4.9M601 219.9c-1.8 1-4 .3-4.9-1.4-1-1.8-.3-4 1.4-4.9s4-.3 4.9 1.4c1 1.8.4 4-1.4 4.9" fill="#03fd9e"/><path fill="none" d="M579.5 113.5 556.7 199"/><path d="M556.7 199.9h-.2a.8.8 0 0 1-.6-1.1l22.8-85.6c.1-.5.6-.7 1.1-.6s.7.6.6 1.1l-22.8 85.5c-.1.5-.5.7-.9.7" fill="#003c2e"/><path d="M581.9 116.2c-1.5 1.3-3.8 1.2-5.1-.3s-1.2-3.8.3-5.1c1.5-1.3 3.8-1.2 5.1.3s1.2 3.8-.3 5.1m-22.8 85.6c-1.5 1.3-3.8 1.2-5.1-.3s-1.2-3.8.3-5.1 3.8-1.2 5.1.3c1.4 1.5 1.2 3.8-.3 5.1" fill="#03fd9e"/><path fill="none" d="m515.1 102.5-3.8 88.4"/><path d="M511.3 191.8c-.5 0-.9-.4-.9-.9l3.8-88.5c.1-.5.5-.8.9-.8.5 0 .9.4.8.9l-3.8 88.5c.1.4-.3.8-.8.8" fill="#003c2e"/><path d="M518.1 104.6c-1.2 1.6-3.5 2-5.1.8s-2-3.5-.8-5.1 3.5-2 5.1-.8 1.9 3.5.8 5.1m-3.9 88.5c-1.2 1.6-3.5 2-5.1.8s-2-3.5-.8-5.1 3.5-2 5.1-.8c1.7 1.2 2 3.4.8 5.1" fill="#03fd9e"/><path fill="none" d="m449.9 105.5 15.4 87.2"/><path d="M465.3 193.6c-.4 0-.8-.3-.9-.7l-15.3-87.2c-.1-.5.3-.9.7-1 .5-.1.9.2 1 .7l15.3 87.2c.1.5-.2.9-.7 1h-.1" fill="#003c2e"/><path d="M453.2 107c-.8 1.8-3 2.7-4.8 1.8-1.8-.8-2.7-3-1.8-4.8.8-1.8 3-2.7 4.8-1.8 1.8.8 2.7 3 1.8 4.8m15.4 87.2c-.8 1.8-3 2.7-4.8 1.8-1.8-.8-2.7-3-1.8-4.8s3-2.7 4.8-1.8c1.8.8 2.6 3 1.8 4.8" fill="#03fd9e"/><path fill="none" d="m386.9 122.6 33.8 81.9"/><path d="M420.7 205.3c-.4 0-.7-.2-.8-.6l-33.8-81.8c-.2-.5 0-1 .5-1.2s1 0 1.2.5l33.8 81.8c.2.4 0 1-.5 1.2-.2.1-.3.1-.4.1" fill="#003c2e"/><path d="M390.5 123.3c-.4 2-2.3 3.2-4.3 2.8-2-.4-3.2-2.3-2.8-4.3.4-2 2.3-3.2 4.3-2.8 1.9.5 3.2 2.4 2.8 4.3m33.7 81.9c-.4 2-2.3 3.2-4.3 2.8s-3.2-2.3-2.8-4.3c.4-2 2.3-3.2 4.3-2.8 1.9.4 3.2 2.3 2.8 4.3" fill="#03fd9e"/><path fill="none" d="m377.9 190.8 36.1 61.8"/><path d="M413.9 253.5c-.3 0-.6-.2-.8-.4l-36-61.8c-.2-.4-.1-1 .4-1.2.4-.2.9-.1 1.2.3l36 61.8c.2.4.1 1-.3 1.2-.1 0-.3.1-.5.1" fill="#003c2e"/><path d="M380.9 191c-.1 1.6-1.5 2.8-3.1 2.7s-2.8-1.5-2.7-3.1c.1-1.6 1.5-2.8 3.1-2.7 1.5.1 2.8 1.5 2.7 3.1m36 61.8c-.1 1.6-1.5 2.8-3.1 2.7s-2.8-1.5-2.7-3.1c.1-1.6 1.5-2.8 3.1-2.7 1.6.1 2.8 1.5 2.7 3.1" fill="#03fd9e"/><path fill="none" d="m335 221.4 48.4 52.5"/><path d="M383.4 274.8c-.2 0-.5-.1-.7-.3L334.3 222c-.3-.4-.3-.9.1-1.3.4-.3.9-.3 1.2 0l48.5 52.6c.3.4.3.9-.1 1.3-.1.1-.3.2-.6.2" fill="#003c2e"/><path d="M337.9 220.9c.2 1.6-.9 3.1-2.4 3.3s-3.1-.9-3.3-2.4c-.2-1.6.9-3.1 2.4-3.3 1.5-.3 3 .8 3.3 2.4m48.4 52.6c.2 1.6-.9 3.1-2.4 3.3-1.6.2-3.1-.9-3.3-2.4-.2-1.6.9-3.1 2.4-3.3 1.6-.3 3.1.8 3.3 2.4" fill="#03fd9e"/><path fill="none" d="m299.6 260.5 58.7 40.9"/><path d="M358.3 302.3c-.2 0-.4-.1-.5-.2l-58.7-40.9c-.4-.3-.5-.8-.2-1.2.3-.4.8-.5 1.2-.2l58.7 40.9c.4.3.5.8.2 1.2-.2.2-.4.4-.7.4" fill="#003c2e"/><path d="M302.3 259.4c.6 1.5-.2 3.2-1.7 3.8-1.5.6-3.2-.2-3.8-1.7-.6-1.5.2-3.2 1.7-3.8 1.5-.5 3.2.2 3.8 1.7m58.7 40.9c.6 1.5-.2 3.2-1.7 3.8-1.5.6-3.2-.2-3.8-1.7s.2-3.2 1.7-3.8c1.5-.5 3.2.2 3.8 1.7" fill="#03fd9e"/><path fill="none" d="m273.5 306.3 66.1 27.3"/><path d="M339.6 334.5c-.1 0-.2 0-.3-.1l-66.1-27.3c-.5-.2-.7-.7-.5-1.2s.7-.7 1.1-.5l66.1 27.3c.5.2.7.7.5 1.1-.1.5-.5.7-.8.7" fill="#003c2e"/><path d="M275.9 304.7c.9 1.3.5 3.2-.8 4.1s-3.2.5-4.1-.8-.5-3.2.8-4.1c1.4-.9 3.2-.6 4.1.8M342 332c.9 1.3.5 3.2-.8 4.1s-3.2.5-4.1-.8-.5-3.2.8-4.1c1.4-1 3.2-.6 4.1.8" fill="#03fd9e"/><path fill="none" d="m257.8 356.7 70.5 12.4"/><path d="M328.3 369.9h-.2l-70.4-12.4c-.5-.1-.8-.5-.7-1 .1-.5.5-.8 1-.7l70.4 12.4c.5.1.8.5.7 1 0 .4-.4.8-.8.7" fill="#003c2e"/><path d="M259.9 354.6c1.2 1.1 1.2 3 .1 4.1-1.1 1.2-3 1.2-4.1.1-1.2-1.1-1.2-3-.1-4.1 1.1-1.2 2.9-1.3 4.1-.1m70.4 12.4c1.2 1.1 1.2 3 .1 4.1-1.1 1.2-3 1.2-4.1.1-1.2-1.1-1.2-3-.1-4.1 1.1-1.2 2.9-1.3 4.1-.1" fill="#03fd9e"/><path fill="none" d="m253.4 409.2 71.5-3"/><path d="M253.4 410.1c-.5 0-.9-.4-.9-.9s.4-.9.8-.9l71.4-3.1c.5.1.9.4.9.8 0 .5-.4.9-.8.9l-71.4 3.2Z" fill="#003c2e"/><path d="M255 406.7c1.4.8 1.8 2.6 1 4s-2.6 1.8-4 1-1.8-2.6-1-4 2.6-1.8 4-1m71.4-3c1.4.8 1.8 2.6 1 4s-2.6 1.8-4 1-1.8-2.6-1-4c.8-1.5 2.6-1.9 4-1" fill="#03fd9e"/><path fill="none" d="m260.5 461.5 69.1-18.4"/><path d="M260.5 462.4c-.5 0-.9-.4-.9-.9 0-.4.3-.8.7-.9l69.1-18.4c.5-.1.9.1 1.1.6.1.5-.2 1-.6 1.1l-69.1 18.4c-.2.1-.3.1-.3.1" fill="#003c2e"/><path d="M261.4 458.7c1.5.5 2.3 2.2 1.8 3.7s-2.2 2.3-3.7 1.8-2.3-2.2-1.8-3.7 2.2-2.3 3.7-1.8m69.1-18.4c1.5.5 2.3 2.2 1.8 3.7s-2.2 2.3-3.7 1.8-2.3-2.2-1.8-3.7 2.2-2.3 3.7-1.8" fill="#03fd9e"/><path fill="none" d="m278.6 511 63.5-32.8"/><path d="M278.6 511.9c-.5 0-.9-.4-.9-.9 0-.3.2-.6.5-.8l63.5-32.9c.4-.2 1-.1 1.2.4.2.4.1 1-.4 1.2L279 511.8c-.1.1-.3.1-.4.1" fill="#003c2e"/><path d="M278.9 508.1c1.6.2 2.8 1.6 2.6 3.2-.2 1.6-1.6 2.8-3.2 2.6s-2.8-1.6-2.6-3.2c.2-1.6 1.6-2.8 3.2-2.6m63.5-32.8c1.6.2 2.8 1.6 2.6 3.2-.2 1.6-1.6 2.8-3.2 2.6-1.6-.2-2.8-1.6-2.6-3.2.2-1.7 1.6-2.8 3.2-2.6" fill="#03fd9e"/><path fill="none" d="m306.9 555.5 55-45.8"/><path d="M306.9 556.4c-.3 0-.5-.1-.7-.3-.3-.4-.3-.9.1-1.3l54.9-45.8c.4-.3.9-.3 1.2.1.3.4.3.9-.1 1.2l-54.9 45.8c-.1.2-.3.3-.5.3" fill="#003c2e"/><path d="M306.6 552.6c1.6-.2 3 1 3.2 2.6s-1 3-2.6 3.2-3-1-3.2-2.6c-.1-1.6 1-3.1 2.6-3.2m55-45.8c1.6-.2 3 1 3.2 2.6s-1 3-2.6 3.2c-1.6.2-3-1-3.2-2.6-.2-1.6 1-3 2.6-3.2" fill="#03fd9e"/><path fill="none" d="m344.2 592.8 43.8-56.6"/><path d="M344.2 593.7c-.5 0-.9-.4-.9-.9 0-.2.1-.4.2-.5l43.8-56.5c.3-.4.9-.5 1.2-.2s.5.9.2 1.2l-43.8 56.5c-.1.2-.4.4-.7.4" fill="#003c2e"/><path d="M343.3 590c1.5-.5 3.2.3 3.7 1.9.5 1.5-.3 3.2-1.9 3.7-1.5.5-3.2-.3-3.7-1.9-.5-1.5.4-3.2 1.9-3.7m43.8-56.5c1.5-.5 3.2.3 3.7 1.9.5 1.5-.3 3.2-1.9 3.7s-3.2-.3-3.7-1.9c-.5-1.6.3-3.2 1.9-3.7" fill="#03fd9e"/><path fill="none" d="m388.7 621.2 30.5-64.7"/><path d="M388.7 622c-.1 0-.3 0-.4-.1-.4-.2-.6-.7-.4-1.2l30.6-64.6c.2-.4.7-.6 1.2-.4.4.2.6.7.4 1.2l-30.6 64.6c-.2.4-.5.5-.8.5" fill="#003c2e"/><path d="M387.2 618.6c1.4-.8 3.2-.4 4 1s.4 3.2-1 4-3.2.4-4-1c-.9-1.3-.4-3.1 1-4m30.5-64.6c1.4-.8 3.2-.4 4 1s.4 3.2-1 4-3.2.4-4-1-.4-3.2 1-4" fill="#03fd9e"/><path fill="none" d="m438.2 639.3 15.9-69.7"/><path d="M438.2 640.2h-.2c-.5-.1-.8-.6-.7-1.1l15.9-69.7c.1-.5.6-.8 1-.7.5.1.8.6.7 1.1L439 639.5c0 .4-.4.7-.8.7" fill="#003c2e"/><path d="M436.2 637.2c1.2-1.1 3-1 4.1.1 1.1 1.2 1 3-.1 4.1-1.2 1.1-3 1-4.1-.1-1.2-1.2-1.1-3 .1-4.1m15.9-69.7c1.2-1.1 3-1 4.1.1 1.1 1.2 1 3-.1 4.1-1.2 1.1-3 1-4.1-.1-1.1-1.2-1.1-3 .1-4.1" fill="#03fd9e"/><path fill="none" d="m490.4 646.4.6-71.5"/><path d="M490.4 647.2c-.5 0-.9-.4-.9-.9l.5-71.5c0-.5.4-.9.9-.9s.9.4.9.9l-.5 71.5c0 .6-.4.9-.9.9" fill="#003c2e"/><path d="M488 644.7c.9-1.3 2.7-1.7 4.1-.8 1.3.9 1.7 2.7.8 4.1-.9 1.3-2.7 1.7-4.1.8-1.3-.9-1.7-2.8-.8-4.1m.5-71.5c.9-1.3 2.7-1.7 4.1-.8 1.3.9 1.7 2.7.8 4.1s-2.7 1.7-4.1.8c-1.3-.9-1.7-2.8-.8-4.1" fill="#03fd9e"/><path fill="none" d="m543 642-14.9-70"/><path d="M543 642.9c-.4 0-.8-.3-.9-.7l-14.9-69.9c-.1-.5.2-1 .7-1.1s1 .2 1.1.7l14.9 69.9c.1.5-.2.9-.7 1.1h-.2" fill="#003c2e"/><path d="M540.3 640.9c.6-1.5 2.3-2.2 3.8-1.6s2.2 2.3 1.6 3.8c-.6 1.5-2.3 2.2-3.8 1.6-1.5-.6-2.2-2.3-1.6-3.8M525.4 571c.6-1.5 2.3-2.2 3.8-1.6 1.5.6 2.2 2.3 1.6 3.8-.6 1.5-2.3 2.2-3.8 1.6-1.5-.6-2.2-2.3-1.6-3.8" fill="#03fd9e"/><path fill="none" d="m593.4 626.4-29.6-65.1"/><path d="M593.4 627.3c-.3 0-.7-.2-.8-.5L563 561.7c-.2-.4 0-1 .4-1.2.4-.2 1 0 1.2.4l29.6 65.1c.2.4 0 1-.4 1.2-.2 0-.3.1-.4.1" fill="#003c2e"/><path d="M590.5 625.9c.3-1.6 1.8-2.7 3.4-2.4 1.6.3 2.7 1.8 2.4 3.4-.3 1.6-1.8 2.7-3.4 2.4-1.6-.3-2.7-1.8-2.4-3.4m-29.6-65.1c.3-1.6 1.8-2.7 3.4-2.4 1.6.3 2.7 1.8 2.4 3.4-.3 1.6-1.8 2.7-3.4 2.4s-2.7-1.8-2.4-3.4" fill="#03fd9e"/><path fill="none" d="m639.2 600.3-43-57.2"/><path d="M639.2 601.2c-.3 0-.5-.1-.7-.4l-42.9-57.2c-.3-.4-.2-.9.2-1.2s.9-.2 1.2.2l42.9 57.2c.3.4.2.9-.2 1.2-.1.1-.3.2-.5.2" fill="#003c2e"/><path d="M636.3 600.4c-.1-1.6 1.2-3 2.8-3.1s3 1.2 3.1 2.8-1.2 3-2.8 3.1c-1.7.1-3-1.1-3.1-2.8m-43-57.1c-.1-1.6 1.2-3 2.8-3.1s3 1.2 3.1 2.8-1.2 3-2.8 3.1c-1.6 0-3-1.2-3.1-2.8" fill="#03fd9e"/><path fill="none" d="m678.3 564.9-54.2-46.5"/><path d="M678.3 565.8c-.2 0-.4-.1-.6-.2L623.5 519c-.4-.3-.4-.9-.1-1.2.3-.4.9-.4 1.2-.1l54.2 46.6c.4.3.4.9.1 1.3-.1.1-.3.2-.6.2" fill="#003c2e"/><path d="M675.5 565.7c-.4-1.6.5-3.2 2-3.6 1.6-.4 3.2.5 3.6 2s-.5 3.2-2 3.6c-1.6.5-3.2-.4-3.6-2m-54.3-46.6c-.4-1.6.5-3.2 2-3.6 1.6-.4 3.2.5 3.6 2 .4 1.6-.5 3.2-2 3.6-1.5.5-3.1-.4-3.6-2" fill="#03fd9e"/><path fill="none" d="m708.9 522-63-33.8"/><path d="M708.9 522.9c-.1 0-.3 0-.4-.1l-63-33.8c-.4-.2-.6-.8-.4-1.2.2-.4.8-.6 1.2-.4l63 33.8c.4.2.6.8.4 1.2-.2.3-.5.5-.8.5" fill="#003c2e"/><path d="M706.3 523.4c-.8-1.4-.2-3.2 1.2-4s3.2-.2 4 1.2.2 3.2-1.2 4c-1.5.7-3.2.2-4-1.2m-63-33.8c-.8-1.4-.2-3.2 1.2-4s3.2-.2 4 1.2c.8 1.4.2 3.2-1.2 4-1.5.7-3.2.2-4-1.2" fill="#03fd9e"/><path fill="none" d="M729.5 473.5 660.7 454"/><path d="M729.5 474.3h-.2l-68.8-19.4c-.5-.1-.7-.6-.6-1.1.1-.5.6-.7 1.1-.6l68.8 19.4c.5.1.7.6.6 1.1-.1.4-.5.6-.9.6" fill="#003c2e"/><path d="M727.3 475.3c-1-1.2-.9-3.1.3-4.1s3.1-.9 4.1.3c1 1.2.9 3.1-.3 4.1-1.2 1.1-3 1-4.1-.3m-68.8-19.4c-1-1.2-.9-3.1.3-4.1s3.1-.9 4.1.3c1 1.2.9 3.1-.3 4.1-1.2 1.1-3.1 1-4.1-.3" fill="#03fd9e"/><path fill="none" d="m739.2 421.6-71.4-4.1"/><path d="m739.2 422.5-71.4-4.1c-.5 0-.9-.5-.8-.9 0-.5.4-1 .9-.8l71.4 4.1c.5 0 .9.4.8.9 0 .4-.4.8-.9.8" fill="#003c2e"/><path d="M737.4 423.9c-1.3-1-1.5-2.8-.6-4.1 1-1.3 2.8-1.5 4.1-.6 1.3 1 1.5 2.8.6 4.1-.9 1.4-2.8 1.6-4.1.6m-71.3-4.1c-1.3-1-1.5-2.8-.6-4.1 1-1.3 2.8-1.5 4.1-.6s1.5 2.8.6 4.1c-1 1.3-2.9 1.6-4.1.6" fill="#03fd9e"/><path fill="none" d="m737.5 368.9-70.6 11.4"/><path d="M666.9 381.1c-.5 0-.9-.4-.9-.9 0-.4.3-.8.7-.9l70.6-11.4c.5-.1.9.3 1 .7.1.5-.3.9-.7 1l-70.7 11.5" fill="#003c2e"/><path d="M736.3 371.6c-1.5-.7-2.1-2.4-1.4-3.9.7-1.5 2.4-2.1 3.9-1.4s2.1 2.4 1.4 3.9c-.7 1.4-2.5 2-3.9 1.4m-70.6 11.3c-1.5-.7-2.1-2.4-1.4-3.9.7-1.5 2.4-2.1 3.9-1.4s2.1 2.4 1.4 3.9c-.7 1.5-2.5 2.1-3.9 1.4" fill="#03fd9e"/><path fill="none" d="M724.5 317.8 658 344.1"/><path d="M658 345c-.4 0-.7-.2-.8-.6-.2-.5 0-1 .5-1.1l66.5-26.3c.4-.2 1 0 1.1.5.2.5-.1 1-.5 1.1l-66.5 26.3c-.1.1-.2.1-.3.1" fill="#003c2e"/><path d="M723.8 320.7c-1.6-.3-2.6-1.9-2.2-3.5s1.9-2.6 3.5-2.2c1.6.3 2.6 1.9 2.2 3.5-.3 1.5-1.9 2.5-3.5 2.2M657.3 347c-1.6-.3-2.6-1.9-2.2-3.5.3-1.6 1.9-2.6 3.5-2.2s2.6 1.9 2.2 3.5c-.3 1.5-1.9 2.5-3.5 2.2" fill="#03fd9e"/><path fill="none" d="m700.7 270.7-59.3 40"/><path d="M641.4 311.6c-.3 0-.6-.1-.7-.4-.3-.4-.2-1 .2-1.2l59.3-40c.4-.3 1-.2 1.2.2.3.4.2 1-.2 1.2l-59.3 40c-.1.2-.3.2-.5.2" fill="#003c2e"/><path d="M700.7 273.7c-1.6 0-2.9-1.3-2.9-2.9s1.3-2.9 2.9-2.9 2.9 1.3 2.9 2.9c0 1.5-1.3 2.9-2.9 2.9m-59.3 40c-1.6 0-2.9-1.3-2.9-2.9s1.3-2.9 2.9-2.9 2.9 1.3 2.9 2.9c.1 1.5-1.2 2.9-2.9 2.9" fill="#03fd9e"/><path fill="none" d="m667.4 229.9-49.3 51.8"/><path d="M618.1 282.6c-.2 0-.4-.1-.6-.2-.4-.3-.4-.9 0-1.2l49.3-51.8c.3-.4.9-.4 1.2 0s.4.9 0 1.2l-49.3 51.8c-.1.1-.3.2-.6.2" fill="#003c2e"/><path d="M668 232.7c-1.6.3-3.1-.6-3.5-2.2-.3-1.6.6-3.1 2.2-3.5 1.6-.3 3.1.6 3.5 2.2.4 1.6-.6 3.2-2.2 3.5m-49.2 51.9c-1.6.3-3.1-.6-3.5-2.2-.3-1.6.6-3.1 2.2-3.5 1.6-.3 3.1.6 3.5 2.2.3 1.6-.7 3.1-2.2 3.5" fill="#03fd9e"/><path fill="none" d="m626 197.1-36.9 61.3"/><path d="M589.1 259.3c-.2 0-.3 0-.5-.1-.4-.2-.5-.8-.3-1.2l36.9-61.2c.3-.4.8-.5 1.2-.3.4.3.5.8.3 1.2l-36.9 61.2c-.1.2-.4.4-.7.4" fill="#003c2e"/><path d="M627.2 199.8c-1.5.7-3.2 0-3.9-1.4-.7-1.5 0-3.2 1.4-3.9 1.5-.7 3.2 0 3.9 1.4.8 1.5.1 3.2-1.4 3.9q.07 0 0 0M590.3 261c-1.5.7-3.2 0-3.9-1.4-.7-1.5 0-3.2 1.4-3.9 1.5-.7 3.2 0 3.9 1.4.7 1.5.1 3.2-1.4 3.9" fill="#03fd9e"/><path fill="none" d="m578.6 174.1-22.9 67.8"/><path d="M555.7 242.7h-.3c-.5-.2-.7-.7-.6-1.1l22.9-67.8c.2-.5.7-.7 1.1-.6.5.2.7.7.6 1.1l-22.9 67.8c-.1.4-.4.6-.8.6" fill="#003c2e"/><path d="M580.4 176.4c-1.3 1-3.1.7-4.1-.6s-.7-3.1.6-4.1 3.1-.7 4.1.5c.9 1.4.7 3.2-.6 4.2m-22.9 67.8c-1.3 1-3.1.7-4.1-.6s-.7-3.1.6-4.1 3.1-.7 4.1.5c.9 1.4.7 3.2-.6 4.2" fill="#03fd9e"/><path fill="none" d="m527.3 161.8-7.7 71.1"/><path d="M519.6 233.8c-.6-.1-.9-.5-.9-1l7.7-71.1c.1-.5.5-.8 1-.8s.8.5.8 1l-7.7 71.1c-.1.5-.5.8-.9.8" fill="#003c2e"/><path d="M529.5 163.7c-1 1.2-2.9 1.4-4.1.3-1.2-1-1.4-2.9-.3-4.1 1-1.2 2.9-1.4 4.1-.3 1.2 1 1.4 2.9.3 4.1m-7.7 71.1c-1 1.2-2.9 1.4-4.1.3-1.2-1-1.4-2.9-.3-4.1 1-1.2 2.9-1.4 4.1-.3 1.2 1 1.3 2.9.3 4.1" fill="#03fd9e"/><path fill="none" d="m474.6 160.9 7.7 71.1"/><path d="M482.3 232.9c-.5 0-.8-.3-.9-.8l-7.8-71.1c0-.5.3-.9.8-1 .5 0 .9.3 1 .8l7.8 71.1c.1.5-.3.9-.9 1" fill="#003c2e"/><path d="M477.2 162.2c-.8 1.4-2.5 2-4 1.2-1.4-.8-2-2.5-1.2-4 .8-1.4 2.5-2 4-1.2 1.4.8 1.9 2.6 1.2 4m7.7 71.1c-.8 1.4-2.5 2-4 1.2-1.4-.8-2-2.5-1.2-4s2.5-2 4-1.2c1.4.8 2 2.6 1.2 4" fill="#03fd9e"/><path fill="none" d="m422.9 171.3 22.9 67.8"/><path d="M445.8 240c-.4 0-.7-.2-.8-.6l-23-67.8c-.2-.5.1-1 .6-1.1s1 .1 1.1.6l22.9 67.7c.2.5-.1 1-.6 1.1 0 0-.1.1-.2.1" fill="#003c2e"/><path d="M425.7 172.1c-.4 1.6-2 2.5-3.6 2s-2.5-2-2-3.6c.4-1.6 2-2.5 3.6-2 1.5.4 2.4 2 2 3.6m22.9 67.7c-.4 1.6-2 2.5-3.6 2s-2.5-2-2-3.6c.4-1.6 2-2.5 3.6-2 1.5.5 2.4 2.1 2 3.6" fill="#03fd9e"/><path fill="none" d="m346.6 68.4 46 97.5"/><path d="M392.6 166.8c-.3 0-.7-.2-.8-.5l-45.9-97.5c-.2-.4 0-1 .4-1.2s1 0 1.2.4l45.9 97.5c.2.4 0 1-.4 1.2-.2.1-.3.1-.4.1" fill="#003c2e"/><path d="M351 69c-.4 2.4-2.6 4.1-5 3.7s-4.1-2.6-3.7-5 2.6-4.1 5-3.7 4 2.6 3.7 5m45.9 97.6c-.4 2.4-2.6 4.1-5 3.7-2.4-.4-4.1-2.6-3.7-5s2.6-4.1 5-3.7c2.4.3 4.1 2.6 3.7 5" fill="#03fd9e"/><path fill="none" d="m278 108.6 65.9 85.4"/><path d="M343.9 194.9c-.3 0-.5-.1-.7-.3l-65.9-85.4c-.3-.4-.2-1 .2-1.2.4-.3.9-.2 1.2.2l65.9 85.4c.3.4.2.9-.2 1.2-.1 0-.3.1-.5.1" fill="#003c2e"/><path d="M282.4 108.3c.2 2.4-1.7 4.5-4.1 4.7s-4.5-1.7-4.7-4.1 1.7-4.5 4.1-4.7c2.5-.1 4.6 1.7 4.7 4.1m65.9 85.4c.2 2.4-1.7 4.5-4.1 4.7s-4.5-1.7-4.7-4.1c-.2-2.4 1.7-4.5 4.1-4.7 2.5-.2 4.6 1.7 4.7 4.1" fill="#03fd9e"/><path fill="none" d="m219.8 162.7 82.7 69.1"/><path d="M302.5 232.7c-.2 0-.4-.1-.6-.2l-82.7-69.2c-.4-.3-.4-.9-.1-1.3.3-.4.9-.4 1.3-.1l82.7 69.2c.4.3.4.9.1 1.2-.2.3-.5.4-.7.4" fill="#003c2e"/><path d="M224 161.5c.7 2.3-.7 4.8-3 5.5s-4.8-.7-5.5-3 .7-4.8 3-5.5c2.4-.7 4.8.6 5.5 3m82.7 69.1c.7 2.3-.7 4.8-3 5.5s-4.8-.7-5.5-3 .7-4.8 3-5.5c2.4-.7 4.8.7 5.5 3" fill="#03fd9e"/><path fill="none" d="m174.5 228.1 95.7 49.7"/><path d="M270.2 278.6c-.1 0-.3 0-.4-.1l-95.7-49.7c-.4-.2-.6-.8-.4-1.2.2-.4.7-.6 1.2-.4l95.7 49.7c.4.2.6.8.4 1.2-.2.4-.5.5-.8.5" fill="#003c2e"/><path d="M178.4 225.9c1.2 2.1.4 4.8-1.8 6s-4.8.4-6-1.8-.4-4.8 1.8-6c2.1-1.1 4.8-.3 6 1.8m95.6 49.7c1.2 2.1.4 4.8-1.8 6-2.1 1.2-4.8.4-6-1.8-1.2-2.1-.4-4.8 1.8-6 2.2-1.1 4.9-.3 6 1.8" fill="#03fd9e"/><path fill="none" d="m144.4 301.6 104.1 27.9"/><path d="M248.5 330.4h-.2l-104.1-27.9a.8.8 0 0 1-.6-1.1c.1-.5.6-.8 1-.6l104.1 27.9c.5.1.8.6.6 1.1 0 .4-.4.6-.8.6" fill="#003c2e"/><path d="M147.7 298.7c1.6 1.8 1.4 4.6-.4 6.2-1.8 1.6-4.6 1.4-6.2-.4s-1.4-4.6.4-6.2c1.8-1.6 4.6-1.4 6.2.4m104.1 28c1.6 1.8 1.4 4.6-.4 6.2s-4.6 1.4-6.2-.4c-1.6-1.8-1.4-4.6.4-6.2 1.8-1.7 4.6-1.5 6.2.4" fill="#03fd9e"/><path fill="none" d="m130.8 380 107.7 4.8"/><path d="m238.5 385.7-107.8-4.8c-.5 0-.9-.4-.9-.9s.4-.9.9-.9l107.7 4.8c.5 0 .9.4.9.9.1.5-.3.9-.8.9" fill="#003c2e"/><path d="M133.4 376.4c2 1.4 2.4 4.2.9 6.2-1.4 2-4.2 2.4-6.2.9-2-1.4-2.4-4.2-.9-6.2 1.5-1.9 4.3-2.3 6.2-.9m107.7 4.9c2 1.4 2.4 4.2.9 6.2-1.4 2-4.2 2.4-6.2.9-2-1.4-2.4-4.2-.9-6.2s4.3-2.4 6.2-.9" fill="#03fd9e"/><path fill="none" d="m134.4 459.4 106.3-18.5"/><path d="M134.4 460.3c-.5 0-.9-.4-.9-.9 0-.4.3-.8.7-.9L240.5 440c.5-.1.9.2 1 .7s-.2.9-.7 1l-106.2 18.5-.2.1" fill="#003c2e"/><path d="M136.2 455.4c2.2 1 3.2 3.6 2.2 5.8s-3.6 3.2-5.8 2.2-3.2-3.6-2.2-5.8c1-2.2 3.6-3.2 5.8-2.2m106.3-18.5c2.2 1 3.2 3.6 2.2 5.8s-3.6 3.2-5.8 2.2-3.2-3.6-2.2-5.8c.9-2.2 3.5-3.2 5.8-2.2" fill="#03fd9e"/><path fill="none" d="m155.1 536.2 99.7-41"/><path d="M155.1 537.1c-.4 0-.7-.2-.8-.5-.2-.5 0-1 .5-1.2l99.7-41c.4-.2 1 0 1.1.5.2.4 0 1-.5 1.2l-99.7 41h-.3" fill="#003c2e"/><path d="M156 531.9c2.4.5 3.9 2.8 3.4 5.2s-2.8 3.9-5.2 3.4-3.9-2.8-3.4-5.2c.5-2.4 2.8-3.9 5.2-3.4m99.7-41c2.4.5 3.9 2.8 3.4 5.2s-2.8 3.9-5.2 3.4c-2.4-.5-3.9-2.8-3.4-5.2.5-2.3 2.9-3.9 5.2-3.4" fill="#03fd9e"/><path fill="none" d="m191.9 606.7 88.5-61.5"/><path d="M191.8 607.6c-.3 0-.6-.1-.7-.4-.3-.4-.2-.9.2-1.2l88.6-61.5c.4-.3.9-.2 1.2.2.3.4.2.9-.2 1.2h-.1l-88.6 61.5c0 .1-.2.2-.4.2" fill="#003c2e"/><path d="M191.8 602.3c2.4 0 4.4 1.9 4.5 4.3 0 2.4-1.9 4.4-4.3 4.5s-4.4-1.9-4.5-4.3c-.1-2.5 1.9-4.5 4.3-4.5m88.6-61.5c2.4 0 4.4 1.9 4.5 4.3 0 2.4-1.9 4.4-4.3 4.5s-4.4-1.9-4.5-4.3c-.1-2.5 1.8-4.5 4.3-4.5" fill="#03fd9e"/><path fill="none" d="m242.9 667.7 73.2-79.2"/><path d="M242.9 668.5c-.5 0-.9-.4-.9-.9 0-.2.1-.4.2-.6l73.2-79.1c.3-.4.9-.4 1.2-.1.4.3.4.9 0 1.2l-73.2 79.1c0 .3-.2.4-.5.4" fill="#003c2e"/><path d="M241.9 663.4c2.4-.6 4.7.9 5.3 3.3.6 2.4-.9 4.7-3.3 5.3-2.4.6-4.7-.9-5.3-3.3-.5-2.4.9-4.8 3.3-5.3m73.2-79.2c2.4-.6 4.7.9 5.3 3.3.6 2.4-.9 4.7-3.3 5.3s-4.7-.9-5.3-3.3c-.5-2.3 1-4.7 3.3-5.3" fill="#03fd9e"/><path fill="none" d="m305.9 716.2 54.5-93.1"/><path d="M305.9 717c-.2 0-.3 0-.4-.1-.4-.2-.6-.8-.3-1.2l54.4-93.1c.3-.4.8-.5 1.2-.3.4.2.5.8.3 1.2l-54.5 93.1c-.1.3-.4.4-.7.4" fill="#003c2e"/><path d="M304 712.2c2.2-1.1 4.8-.1 5.9 2.1 1.1 2.2.1 4.8-2.1 5.9-2.2 1.1-4.8.1-5.9-2.1-1-2.2-.1-4.9 2.1-5.9m54.5-93.1c2.2-1.1 4.8-.1 5.9 2.1 1.1 2.2.1 4.8-2.1 5.9-2.2 1.1-4.8.1-5.9-2.1-1.1-2.2-.1-4.8 2.1-5.9" fill="#03fd9e"/><path fill="none" d="M377.9 750 411 647.3"/><path d="M377.9 750.8h-.3c-.5-.2-.7-.7-.6-1.1l33.1-102.6c.1-.5.6-.7 1.1-.6.5.2.7.7.6 1.1l-33.1 102.6c-.1.4-.4.6-.8.6" fill="#003c2e"/><path d="M375.2 746.5c1.9-1.5 4.7-1.2 6.2.7s1.2 4.7-.7 6.2-4.7 1.2-6.2-.7c-1.6-1.9-1.3-4.7.7-6.2m33.1-102.6c1.9-1.5 4.7-1.2 6.2.7s1.2 4.7-.7 6.2-4.7 1.2-6.2-.7c-1.6-1.9-1.2-4.7.7-6.2" fill="#03fd9e"/><path fill="none" d="m455.5 767.4 10.2-107.3"/><path d="M455.5 768.3c-.6 0-.9-.5-.9-1L464.8 660c0-.5.4-.8.9-.8s.8.5.8 1l-10.2 107.3c0 .5-.4.8-.8.8" fill="#003c2e"/><path d="M452 764.6c1.5-1.9 4.3-2.1 6.2-.6 1.9 1.5 2.1 4.3.6 6.2s-4.3 2.1-6.2.6c-1.8-1.5-2.1-4.3-.6-6.2m10.3-107.3c1.5-1.9 4.3-2.1 6.2-.6 1.9 1.5 2.1 4.3.6 6.2s-4.3 2.1-6.2.6c-1.9-1.5-2.2-4.3-.6-6.2" fill="#03fd9e"/><path fill="none" d="m535 767.8-13.2-107"/><path d="M535 768.7c-.4 0-.8-.3-.9-.8l-13.1-107c-.1-.5.3-.9.8-1 .5-.1.9.2 1 .7v.1l13.1 107c.1.5-.3.9-.9 1" fill="#003c2e"/><path d="M531 765.8c1.1-2.2 3.8-3 5.9-1.9 2.2 1.1 3 3.8 1.9 5.9-1.1 2.2-3.8 3-5.9 1.9-2.1-1.1-3-3.7-1.9-5.9m-13.1-107c1.1-2.2 3.8-3 5.9-1.9 2.2 1.1 3 3.8 1.9 5.9-1.1 2.2-3.8 3-5.9 1.9-2.1-1.1-3-3.7-1.9-5.9" fill="#03fd9e"/><path fill="none" d="m612.7 751-35.9-101.6"/><path d="M612.7 751.9c-.4 0-.7-.2-.8-.6L576 649.7c-.2-.5.1-1 .5-1.1.5-.2 1 .1 1.1.5l35.9 101.7c.2.5-.1 1-.5 1.1h-.3" fill="#003c2e"/><path d="M608.4 749.9c.6-2.4 3-3.8 5.4-3.2s3.8 3 3.2 5.4-3 3.8-5.4 3.2-3.8-3-3.2-5.4m-35.9-101.7c.6-2.4 3-3.8 5.4-3.2s3.8 3 3.2 5.4-3 3.8-5.4 3.2-3.8-3-3.2-5.4c0 .1 0 0 0 0" fill="#03fd9e"/><path fill="none" d="m685 717.9-57-91.6"/><path d="M685 718.8c-.3 0-.6-.2-.8-.4l-56.9-91.5c-.3-.4-.1-1 .3-1.2.4-.3 1-.1 1.2.3l57 91.5c.3.4.1 1-.3 1.2-.2 0-.4.1-.5.1" fill="#003c2e"/><path d="M680.6 717.7c.1-2.4 2.1-4.3 4.6-4.2 2.4.1 4.3 2.1 4.2 4.6-.1 2.4-2.1 4.3-4.6 4.2-2.4-.1-4.3-2.1-4.2-4.6m-57-91.5c.1-2.4 2.1-4.3 4.6-4.2 2.4.1 4.3 2.1 4.2 4.6-.1 2.4-2.1 4.3-4.6 4.2-2.4-.1-4.3-2.2-4.2-4.6" fill="#03fd9e"/><path fill="none" d="m748.4 670-75.3-77.2"/><path d="M748.4 670.9c-.2 0-.5-.1-.6-.3l-75.3-77.1c-.3-.3-.3-.9 0-1.2.4-.3.9-.3 1.3 0l75.3 77.1c.3.4.3.9 0 1.3-.2.1-.5.1-.7.2" fill="#003c2e"/><path d="M744.1 670.8c-.4-2.4 1.2-4.7 3.5-5.1s4.7 1.2 5.1 3.5c.4 2.4-1.2 4.7-3.5 5.1-2.4.4-4.7-1.1-5.1-3.5m-75.4-77.2c-.4-2.4 1.1-4.7 3.5-5.1s4.7 1.1 5.1 3.5c.4 2.4-1.1 4.7-3.5 5.1-2.3.5-4.6-1.1-5.1-3.5" fill="#03fd9e"/><path fill="none" d="m800 609.5-90.2-59.1"/><path d="M800 610.4c-.2 0-.3-.1-.5-.2l-90.2-59.1c-.4-.3-.5-.8-.3-1.2.3-.4.8-.5 1.2-.3l90.2 59.1c.4.3.5.8.2 1.2 0 .3-.3.5-.6.5" fill="#003c2e"/><path d="M796 611.2c-.9-2.2.1-4.8 2.4-5.8 2.2-.9 4.8.1 5.8 2.4.9 2.2-.1 4.8-2.4 5.8-2.3.9-4.9-.1-5.8-2.4m-90.2-59.1c-.9-2.2.1-4.8 2.4-5.8 2.2-.9 4.8.1 5.8 2.4.9 2.2-.1 4.8-2.4 5.8-2.3.9-4.9-.1-5.8-2.4" fill="#03fd9e"/><path fill="none" d="m837.4 539.3-100.8-38.2"/><path d="M837.4 540.2c-.1 0-.2 0-.3-.1l-100.8-38.3c-.5-.2-.7-.7-.5-1.1s.7-.7 1.1-.5l100.8 38.2c.5.2.7.7.5 1.1-.1.5-.4.7-.8.7" fill="#003c2e"/><path d="M833.8 541.9c-1.4-2-.9-4.7 1.1-6.1 2-1.4 4.7-.9 6.1 1.1 1.4 2 .9 4.7-1.1 6.1-1.9 1.3-4.7.8-6.1-1.1M733 503.6c-1.4-2-.9-4.7 1.1-6.1s4.7-.9 6.1 1.1c1.4 2 .9 4.7-1.1 6.1-1.9 1.4-4.7.9-6.1-1.1" fill="#03fd9e"/><path fill="none" d="m858.8 462.7-106.7-15.6"/><path d="M858.8 463.6 752 448c-.5-.1-.8-.5-.7-1s.5-.8 1-.8L859 461.8c.5.1.8.5.7 1s-.5.8-.9.8" fill="#003c2e"/><path d="M855.8 466c-1.8-1.6-1.9-4.4-.3-6.2 1.6-1.8 4.4-1.9 6.2-.3s1.9 4.4.3 6.2c-1.6 1.8-4.4 1.9-6.2.3m-106.7-15.6c-1.8-1.6-1.9-4.4-.3-6.2s4.4-1.9 6.2-.3 1.9 4.4.3 6.2c-1.6 1.8-4.4 1.9-6.2.3" fill="#03fd9e"/><path fill="none" d="m863.2 383.3-107.6 7.8"/><path d="M755.6 391.9c-.5 0-.9-.4-.9-.9s.4-.9.9-.9l107.5-7.7c.5 0 .9.3.9.8s-.3.9-.8.9l-107.6 7.8" fill="#003c2e"/><path d="M861 387.2c-2.1-1.2-2.8-3.9-1.6-6s3.9-2.8 6-1.6c2.1 1.2 2.8 3.9 1.6 6-1.2 2-3.9 2.8-6 1.6m-107.6 7.7c-2.1-1.2-2.8-3.9-1.6-6s3.9-2.8 6-1.6c2.1 1.2 2.8 3.9 1.6 6s-3.9 2.8-6 1.6" fill="#03fd9e"/><path fill="none" d="M850.3 304.9 747 335.6"/><path d="M747 336.5c-.4 0-.7-.3-.9-.6-.1-.5.1-1 .6-1.1L850.1 304c.5-.1 1 .1 1.1.6.1.5-.1 1-.6 1.1l-103.3 30.7c-.13.07-.23.1-.3.1" fill="#003c2e"/><path d="M849 309.1c-2.3-.7-3.6-3.2-2.9-5.5.7-2.3 3.2-3.6 5.5-2.9s3.6 3.2 2.9 5.5c-.7 2.3-3.2 3.6-5.5 2.9m-103.4 30.7c-2.3-.7-3.6-3.2-2.9-5.5.7-2.3 3.2-3.6 5.5-2.9s3.6 3.2 2.9 5.5c-.6 2.3-3.1 3.6-5.5 2.9q.07 0 0 0" fill="#03fd9e"/><path fill="none" d="m820.9 231-94.3 52.3"/><path d="M726.6 284.2c-.3 0-.6-.2-.8-.5-.2-.4-.1-.9.3-1.2l94.3-52.3c.4-.2 1-.1 1.2.3.2.4.1 1-.3 1.2L727 284.1c-.1 0-.3.1-.4.1" fill="#003c2e"/><path d="M820.5 235.4c-2.4-.2-4.2-2.3-4-4.8.2-2.4 2.3-4.2 4.8-4 2.4.2 4.2 2.3 4 4.8-.3 2.4-2.4 4.2-4.8 4m-94.3 52.3c-2.4-.2-4.2-2.3-4-4.8.2-2.4 2.3-4.2 4.8-4 2.4.2 4.2 2.3 4 4.8-.3 2.4-2.4 4.2-4.8 4" fill="#03fd9e"/><path fill="none" d="m776.2 165.2-80.8 71.4"/><path d="M695.4 237.5c-.5 0-.9-.4-.9-.9 0-.3.1-.5.3-.7l80.8-71.4c.4-.3.9-.3 1.3.1.3.4.3.9-.1 1.3L696 237.3c-.2.1-.4.2-.6.2" fill="#003c2e"/><path d="M776.8 169.6c-2.4.3-4.6-1.4-4.9-3.8-.3-2.4 1.4-4.6 3.8-4.9 2.4-.3 4.6 1.4 4.9 3.8.3 2.4-1.4 4.6-3.8 4.9M695.9 241c-2.4.3-4.6-1.4-4.9-3.8-.3-2.4 1.4-4.6 3.8-4.9s4.6 1.4 4.9 3.8c.4 2.3-1.3 4.5-3.8 4.9q.07 0 0 0" fill="#03fd9e"/><path fill="none" d="m718.4 110.6-63.5 87.1"/><path d="M654.9 198.6c-.2 0-.4-.1-.5-.2-.4-.3-.5-.8-.2-1.2l63.6-87.1c.3-.4.8-.5 1.2-.3.4.3.5.8.3 1.2 0 0 0 .1-.1.1l-63.5 87.1c-.3.3-.6.4-.8.4" fill="#003c2e"/><path d="M719.9 114.8c-2.3.8-4.8-.4-5.7-2.6-.8-2.3.4-4.8 2.6-5.7 2.3-.8 4.8.4 5.7 2.6.9 2.3-.3 4.9-2.6 5.7m-63.5 87.1c-2.3.8-4.8-.4-5.7-2.6s.4-4.8 2.6-5.7c2.3-.8 4.8.4 5.7 2.6.8 2.3-.4 4.8-2.6 5.7" fill="#03fd9e"/><path fill="none" d="m650.2 69.8-43.3 98.7"/><path d="M606.9 169.4c-.1 0-.2 0-.4-.1-.4-.2-.7-.7-.5-1.2l43.3-98.7c.2-.4.7-.6 1.2-.5.4.2.7.7.5 1.2l-43.3 98.7c-.1.4-.4.6-.8.6" fill="#003c2e"/><path d="M652.6 73.5c-2.1 1.3-4.8.7-6.1-1.4s-.7-4.8 1.4-6.1c2.1-1.3 4.8-.7 6.1 1.4 1.2 2.1.6 4.8-1.4 6.1m-43.3 98.7c-2.1 1.3-4.8.7-6.1-1.4-1.3-2.1-.7-4.8 1.4-6.1 2.1-1.3 4.8-.7 6.1 1.4 1.2 2.1.6 4.8-1.4 6.1" fill="#03fd9e"/><path fill="none" d="m574.8 44.6-21 105.7"/><path d="M553.8 151.2h-.2c-.5-.1-.8-.6-.7-1l21-105.8c.1-.5.5-.8.9-.7h.1c.5.1.8.6.7 1l-21 105.8c0 .4-.4.7-.8.7" fill="#003c2e"/><path d="M577.9 47.7c-1.7 1.7-4.5 1.7-6.2 0s-1.7-4.5 0-6.2 4.5-1.7 6.2 0c1.7 1.7 1.7 4.5 0 6.2m-21 105.7c-1.7 1.7-4.5 1.7-6.2 0s-1.7-4.5 0-6.2 4.5-1.7 6.2 0c1.7 1.7 1.7 4.5 0 6.2" fill="#03fd9e"/><path fill="none" d="M495.7 36.2 498 144"/><path d="M498 144.9c-.5 0-.9-.4-.9-.9l-2.3-107.8c0-.5.4-.9.9-.9.5.1.9.4.9.9l2.3 107.8c0 .5-.4.9-.9.9Z" fill="#003c2e"/><path d="M499.4 38.6c-1.3 2-4 2.6-6.1 1.3s-2.6-4-1.3-6.1c1.3-2 4-2.6 6.1-1.3 2.1 1.3 2.6 4 1.3 6.1m2.3 107.8c-1.3 2-4 2.6-6.1 1.3-2-1.3-2.6-4-1.3-6.1 1.3-2 4-2.6 6.1-1.3 2 1.3 2.6 4 1.3 6.1" fill="#03fd9e"/><path fill="none" d="m416.7 45.1 25.5 104.7"/><path d="M442.2 150.7c-.4 0-.8-.3-.9-.7L415.8 45.3c-.1-.5.1-1 .6-1.1s1 .1 1.1.6v.1L443 149.6c.1.5-.2 1-.8 1.1.1 0 0 0 0 0" fill="#003c2e"/><path d="M420.8 46.6c-.8 2.3-3.4 3.4-5.7 2.6-2.3-.8-3.4-3.4-2.6-5.7s3.4-3.4 5.7-2.6c2.3.9 3.5 3.4 2.6 5.7m25.5 104.8c-.8 2.3-3.4 3.4-5.7 2.6-2.3-.8-3.4-3.4-2.6-5.7s3.4-3.4 5.7-2.6c2.3.8 3.4 3.4 2.6 5.7" fill="#03fd9e"/></svg>