<svg xmlns="http://www.w3.org/2000/svg" width="100%" height="100%" fill-rule="evenodd" stroke-linejoin="round" stroke-miterlimit="1.41" clip-rule="evenodd" version="1.1" viewBox="0 0 460 344" xml:space="preserve"><path fill="none" stroke="#000" stroke-opacity=".1" stroke-width="1" vector-effect="non-scaling-stroke" d="M459.5 171.73c0-36.72-13.22-73.02-36.15-102.24-23.06-29.4-55.06-50.17-91.6-60.1-17.35-4.72-34.86-6.8-52.75-7.8A839.93 839.93 0 0 0 238.25.52h-16.5c-1.26 0-21.68.02-40.75 1.08-17.9 1-35.35 3.09-52.7 7.8-36.54 9.93-68.55 30.64-91.6 60.03C13.76 98.64.5 135.01.5 171.72v.55c0 36.72 13.28 73.1 36.2 102.32 23.07 29.39 55.08 50.1 91.62 60.03 17.36 4.71 34.79 6.79 52.68 7.79a834.96 834.96 0 0 0 40.75 1.08h16.5c1.26 0 21.68-.01 40.76-1.08 17.89-1 35.3-3.08 52.65-7.8 36.53-9.93 68.56-30.62 91.61-60.01 22.93-29.22 36.23-65.61 36.23-102.33v-.54z"/></svg>
