<svg xmlns="http://www.w3.org/2000/svg" width="100%" height="100%" version="1.1" viewBox="0 0 313.924 418.442"><path fill="none" stroke="#000" stroke-linejoin="round" stroke-miterlimit="1.41" stroke-opacity=".1" stroke-width="1" d="M313.424,7.535c0,-2.225 -0.188,-3.196 -0.726,-4.203c-0.473,-0.883 -1.165,-1.576 -2.049,-2.048c-1.006,-0.538 -1.978,-0.726 -4.202,-0.726l-298.894,0c-2.224,0 -3.196,0.188 -4.202,0.726c-0.884,0.472 -1.576,1.165 -2.049,2.048c-0.538,1.007 -0.726,1.978 -0.726,4.203l0,403.43c0,2.225 0.188,3.197 0.726,4.203c0.473,0.883 1.165,1.576 2.049,2.048c1.006,0.538 1.978,0.726 4.202,0.726l298.894,0c2.224,0 3.196,-0.188 4.202,-0.726c0.884,-0.472 1.576,-1.165 2.049,-2.048c0.538,-1.006 0.726,-1.978 0.726,-4.203l0,-403.43Z" clip-rule="evenodd" vector-effect="non-scaling-stroke"/></svg>
