<svg xmlns="http://www.w3.org/2000/svg" width="100%" height="100%" version="1.1" viewBox="0 0 418.442 313.924"><path fill="none" stroke="#000" stroke-linejoin="round" stroke-miterlimit="1.41" stroke-opacity=".1" stroke-width="1" d="M410.965,313.424c2.225,0 3.196,-0.188 4.203,-0.726c0.883,-0.473 1.576,-1.165 2.048,-2.049c0.538,-1.006 0.726,-1.978 0.726,-4.202l0,-298.894c0,-2.224 -0.188,-3.196 -0.726,-4.202c-0.472,-0.884 -1.165,-1.576 -2.048,-2.049c-1.007,-0.538 -1.978,-0.726 -4.203,-0.726l-403.43,0c-2.225,0 -3.197,0.188 -4.203,0.726c-0.883,0.473 -1.576,1.165 -2.048,2.049c-0.538,1.006 -0.726,1.978 -0.726,4.202l0,298.894c0,2.224 0.188,3.196 0.726,4.202c0.472,0.884 1.165,1.576 2.048,2.049c1.006,0.538 1.978,0.726 4.203,0.726l403.43,0Z" clip-rule="evenodd" vector-effect="non-scaling-stroke"/></svg>
