<svg xmlns="http://www.w3.org/2000/svg" width="100%" height="100%" version="1.1" viewBox="0 0 314 448.97"><path fill="none" stroke="#000" stroke-linejoin="round" stroke-miterlimit="1.41" stroke-opacity=".1" stroke-width="1" d="M0.5,439.903c0,2.732 0.231,3.924 0.892,5.16c0.58,1.085 1.431,1.936 2.516,2.516c1.237,0.66 2.43,0.891 5.163,0.891l295.858,0c2.733,0 3.926,-0.231 5.163,-0.891c1.085,-0.58 1.936,-1.431 2.516,-2.516c0.661,-1.236 0.892,-2.428 0.892,-5.16l0,-430.806c0,-2.732 -0.231,-3.925 -0.892,-5.16c-0.58,-1.085 -1.431,-1.936 -2.516,-2.516c-1.237,-0.66 -2.43,-0.891 -5.163,-0.891l-295.858,0c-2.733,0 -3.926,0.231 -5.163,0.891c-1.085,0.58 -1.936,1.431 -2.516,2.516c-0.661,1.235 -0.892,2.428 -0.892,5.16l0,430.806Z" clip-rule="evenodd" vector-effect="non-scaling-stroke"/></svg>
