<svg xmlns="http://www.w3.org/2000/svg" width="100%" height="100%" version="1.1" viewBox="0 0 498.615 230.6957"><path fill="none" stroke="#000" stroke-linejoin="round" stroke-miterlimit="1.41" stroke-opacity=".1" stroke-width="1" d="M33.94,0.504c-1.281,0 -2.562,0 -3.843,0.007c-1.08,0.004 -2.159,0.02 -3.238,0.048c-2.36,0.029 -4.717,0.22 -7.046,0.602c-2.331,0.398 -4.603,1.12 -6.715,2.184c-4.24,2.158 -7.689,5.594 -9.848,9.832c-1.065,2.109 -1.802,4.4 -2.2,6.728c-0.384,2.328 -0.58,4.694 -0.61,7.054c-0.03,1.078 -0.041,2.156 -0.048,3.234c-0.007,1.281 -0.007,2.559 -0.007,3.841l0,162.632c0,1.28 0,2.56 0.007,3.84c0.007,1.079 0.019,2.158 0.048,3.235c0.03,2.36 0.224,4.716 0.607,7.045c0.399,2.327 1.12,4.599 2.184,6.707c2.165,4.244 5.618,7.696 9.862,9.86c2.111,1.065 4.391,1.788 6.722,2.186c2.329,0.383 4.684,0.573 7.044,0.602c1.079,0.03 2.158,0.041 3.238,0.048c1.281,0.007 2.562,0.007 3.843,0.007l430.618,0c1.285,0 2.566,0 3.847,-0.007c1.079,-0.006 2.158,-0.019 3.236,-0.048c2.36,-0.029 4.715,-0.217 7.043,-0.599c2.331,-0.398 4.616,-1.126 6.727,-2.19c4.24,-2.16 7.688,-5.609 9.848,-9.849c1.065,-2.108 1.797,-4.381 2.195,-6.709c0.384,-2.328 0.577,-4.691 0.606,-7.051c0.028,-1.078 0.04,-2.156 0.046,-3.234c0.009,-1.281 0.009,-2.561 0.009,-3.841l0,-162.632c0,-1.28 0,-2.56 -0.009,-3.841c-0.006,-1.078 -0.018,-2.156 -0.046,-3.234c-0.029,-2.36 -0.224,-4.704 -0.608,-7.032c-0.386,-2.34 -1.125,-4.607 -2.193,-6.725c-2.159,-4.236 -5.601,-7.688 -9.841,-9.846c-2.111,-1.064 -4.4,-1.797 -6.73,-2.194c-2.329,-0.383 -4.687,-0.572 -7.047,-0.601c-1.078,-0.031 -2.157,-0.042 -3.236,-0.048c-1.281,-0.008 -2.562,-0.007 -3.847,-0.007l-430.618,-0.004Z" clip-rule="evenodd" vector-effect="non-scaling-stroke"/></svg>
