<svg xmlns="http://www.w3.org/2000/svg" width="100%" height="100%" version="1.1" viewBox="0 0 230.656 498.547"><path fill="none" stroke="#000" stroke-linejoin="round" stroke-miterlimit="1.41" stroke-opacity=".1" stroke-width="1" d="M28.03.45h174.44c9.66 0 13.08.98 16.61 2.87 3.5 1.84 6.36 4.7 8.2 8.19 1.9 3.52 2.88 6.97 2.88 16.63v442.23c0 9.65-1 13.12-2.9 16.65a19.65 19.65 0 0 1-8.19 8.17c-3.53 1.89-6.94 2.86-16.6 2.86H28.02c-9.65 0-13.1-.99-16.63-2.88a19.68 19.68 0 0 1-8.18-8.2c-1.88-3.5-2.85-6.91-2.87-16.43V28.14c0-9.67 1-13.1 2.88-16.64a19.7 19.7 0 0 1 8.19-8.19C14.94 1.42 18.37.45 28.03.45z" clip-rule="evenodd" vector-effect="non-scaling-stroke"/></svg>
