<svg xmlns="http://www.w3.org/2000/svg" width="100%" height="100%" version="1.1" viewBox="0 0 498.547 230.656"><path fill="none" stroke="#000" stroke-linejoin="round" stroke-miterlimit="1.41" stroke-opacity=".1" stroke-width="1" d="M.45 202.47V28.03c0-9.66.98-13.08 2.87-16.61 1.84-3.5 4.7-6.36 8.19-8.2C15.03 1.32 18.48.34 28.14.34h442.23c9.65 0 13.12 1 16.65 2.9a19.65 19.65 0 0 1 8.17 8.19c1.89 3.53 2.86 6.94 2.86 16.6v174.45c0 9.65-.99 13.1-2.88 16.63a19.68 19.68 0 0 1-8.2 8.18c-3.5 1.88-6.91 2.85-16.43 2.87H28.14c-9.67 0-13.1-1-16.64-2.88a19.7 19.7 0 0 1-8.19-8.19c-1.89-3.53-2.86-6.96-2.86-16.62z" clip-rule="evenodd" vector-effect="non-scaling-stroke"/></svg>
