<svg xmlns="http://www.w3.org/2000/svg" width="100%" height="100%" version="1.1" viewBox="0 0 230.692 498.615"><path fill="none" stroke="#000" stroke-linejoin="round" stroke-miterlimit="1.41" stroke-opacity=".1" stroke-width="1" d="M230.2 33.94l-.01-3.84c0-1.08-.02-2.16-.05-3.24a47.1 47.1 0 0 0-.6-7.05A22.5 22.5 0 0 0 210.8 1.05c-2.33-.38-4.7-.58-7.06-.61-1.08-.03-2.16-.04-3.23-.05H30.19c-1.08 0-2.15.02-3.23.05a47.1 47.1 0 0 0-7.05.6A22.6 22.6 0 0 0 1.16 19.82a46.95 46.95 0 0 0-.6 7.05A151.9 151.9 0 0 0 .5 30.1V468.4c0 1.08.02 2.16.05 3.24.03 2.36.22 4.72.6 7.04a22.53 22.53 0 0 0 18.75 18.77c2.32.39 4.69.58 7.05.61 1.07.03 2.15.04 3.23.05H200.5c1.08-.01 2.16-.02 3.24-.05 2.36-.03 4.7-.22 7.03-.6a22.52 22.52 0 0 0 18.76-18.76c.39-2.34.58-4.7.6-7.06.04-1.08.05-2.16.06-3.24V33.94z" clip-rule="evenodd" vector-effect="non-scaling-stroke"/></svg>
