<svg xmlns="http://www.w3.org/2000/svg" width="933.333" height="933.333" version="1.0" viewBox="0 0 700 700"><path d="M127 .7C95.2 3.9 64.5 18.5 41.5 41.5 21.6 61.4 8.4 86 2.3 115 .6 123 .5 135.8.5 350v226.5l2.2 10c6.2 28.5 19 52.3 38.9 72.1 19.7 19.6 43.2 32.3 71.7 38.6l10.2 2.3h226c214.7 0 226.4-.1 235-1.8 29.4-6 53.6-18.8 74-39.2 19.7-19.6 32.4-43.3 38.7-71.8l2.3-10.2v-453l-2.3-10.2c-6.3-28.7-18.9-52-38.7-71.8-19.6-19.6-41.1-31.3-71-38.7l-9-2.2-224-.2C231.3.4 128.9.5 127 .7m273.7 178.4c44.9 6.1 76.4 31 86.4 68.4 2.9 10.8 3.1 30.8.5 41-5.5 21.1-19 39.3-37.2 49.9l-7.4 4.3 8.7 4.2c24 11.5 39.2 29.2 47 54.8 2.4 7.9 2.7 10.4 2.7 24.8.1 13.7-.2 17.1-2.2 23.8-10.3 35.9-37.1 59.1-79.7 69-8.8 2.1-11.6 2.1-115.3 2.4l-106.2.4.2-24.8.3-24.8 5.5-.6c12.2-1.3 22.6-6.6 31.4-15.9 7-7.4 10.8-14.5 13.1-24.2 6.9-29.4-14.4-59.5-44.5-62.7l-5.5-.6-.3-20.8-.2-20.7h4.4c15.1 0 33.8-12.6 41.5-27.9 10.3-20.3 7.1-42.6-8.7-59.2-7.4-7.9-16.9-13.2-26.7-15-3.3-.6-7-1.3-8.2-1.5l-2.3-.4v-45h97.4c63.4 0 100.2.4 105.3 1.1"/><path d="M296 274.9V323h42.3c33.7 0 43.5-.3 48.5-1.5 17.7-4.2 31.5-16.9 35.7-33 1.7-6.7 1.9-17.9.4-24.4-3.8-16.5-17-29.4-35.6-34.8-4.9-1.4-12.5-1.7-48.5-2.1l-42.8-.4zm.5 94.3c-.3.7-.4 24.2-.3 52.3l.3 51 45.5-.1c51.1 0 53.2-.2 66.4-7.2 16.5-8.7 26.5-25.6 26.6-44.9 0-24.3-14.8-43-39.5-49.9-5.1-1.4-13.1-1.8-52.2-2.1-38.2-.4-46.4-.3-46.8.9"/></svg>