<svg width="1920" height="1081" viewBox="0 0 1920 1081" fill="none" xmlns="http://www.w3.org/2000/svg"><path d="M1225.07 245.634L1065.91 923.029C1062.06 939.426 1045.61 949.619 1029.21 945.766L716.644 872.328C700.247 868.475 690.055 852.023 693.908 835.626L853.064 158.231C856.916 141.834 873.369 131.641 889.766 135.494L967.651 153.793L964.761 166.091C963.317 172.24 967.237 178.568 973.386 180.012L1104.56 210.832C1110.71 212.277 1117.04 208.357 1118.48 202.208L1121.37 189.91L1202.33 208.932C1219.51 214.05 1228.68 230.262 1225.07 245.634Z" fill="white"/><path d="M1207.69 190.726L894.1 117.047C867.455 110.787 840.878 127.251 834.617 153.896L675.461 831.292C669.201 857.936 685.665 884.514 712.31 890.774L1025.9 964.453C1052.55 970.713 1079.12 954.249 1085.38 927.604L1244.54 250.208C1250.56 224.588 1234.33 196.986 1207.69 190.726ZM1065.91 923.029C1062.06 939.426 1045.61 949.618 1029.21 945.766L716.644 872.327C700.247 868.475 690.055 852.022 693.908 835.626L853.064 158.23C856.916 141.833 873.369 131.641 889.766 135.493L967.651 153.793L964.762 166.09C963.317 172.239 967.237 178.567 973.386 180.012L1104.56 210.832C1110.71 212.276 1117.04 208.356 1118.48 202.208L1121.37 189.91L1202.33 208.932C1218.73 212.784 1228.92 229.237 1225.07 245.634L1065.91 923.029Z" fill="#003B2F"/><path d="M729.217 896.534C697.382 850.337 682.875 803.146 691.852 780.73C693.425 776.66 695.944 773.372 699.213 771.101C720.471 756.447 768.189 788.718 806.047 843.272C843.689 897.846 857.309 954.051 836.051 968.705L833.153 970.287C829.606 971.931 825.526 972.537 820.695 972.125C796.304 969.871 759.748 940.458 729.001 896.554L729.217 896.534Z" fill="#E6E8EA"/><path d="M833.153 970.293L813.334 981.761C792.076 996.415 744.358 964.144 706.716 909.569C668.858 855.016 655.669 798.77 676.711 784.136L679.394 782.574L699.213 771.107C695.944 773.378 693.425 776.666 691.852 780.736C682.66 803.173 697.166 850.364 729.217 896.54C759.748 940.464 796.52 969.856 820.911 972.111C825.526 972.543 829.822 971.917 833.369 970.273L833.153 970.293Z" fill="#8F9F99"/><path d="M833.152 970.293L813.334 981.761C792.075 996.415 744.357 964.143 706.715 909.569C668.858 855.015 655.669 798.769 676.711 784.136L679.394 782.574L699.213 771.106" stroke="#003B2F" stroke-width="4.50136" stroke-linecap="round" stroke-linejoin="round"/><path d="M833.152 970.293C829.606 971.937 825.525 972.543 820.694 972.131C796.304 969.876 759.748 940.464 729.001 896.56C697.165 850.364 682.659 803.173 691.636 780.757C693.209 776.687 695.728 773.398 698.997 771.127" stroke="#003B2F" stroke-width="4.50136" stroke-linecap="round" stroke-linejoin="round"/><path d="M691.85 780.73C693.424 776.66 695.942 773.371 699.211 771.1C720.469 756.446 768.404 788.697 806.045 843.272C843.687 897.846 857.308 954.051 835.834 968.725L833.151 970.287C829.605 971.931 825.308 972.558 820.693 972.125C796.519 969.85 759.747 940.458 729.216 896.533C697.164 850.358 682.874 803.146 691.85 780.73Z" stroke="#003B2F" stroke-width="4.50136" stroke-linecap="round" stroke-linejoin="round"/><path d="M709.564 776.864C727.264 775.181 764.427 799.526 798.493 848.56C816.148 873.889 828.704 900.574 834.117 923.146C838.75 942.09 837.298 956.603 830.565 961.381L828.489 962.45C828.489 962.45 826.803 963.046 825.292 963.19C824.213 963.292 822.702 963.436 821.366 963.127C803.122 961.377 768.908 938.276 736.363 891.494C703.561 844.3 693.135 801.078 700.035 784.304C701.084 781.591 702.235 779.957 704.075 778.693C705.72 777.665 707.19 777.09 709.564 776.864Z" stroke="#003B2F" stroke-width="4.50136" stroke-linecap="round" stroke-linejoin="round"/><path d="M1345.37 317.81C1326.59 336.391 1271.65 310.539 1222.98 260.449C1174.3 210.36 1150.07 154.818 1168.85 136.64L1192.28 114.625C1188.44 118.665 1186.22 124.118 1185.82 130.783C1184.4 156.232 1207.63 199.454 1246.21 239.242C1284.18 278.425 1325.98 302.662 1351.63 302.662C1358.91 302.662 1364.96 300.844 1369.21 296.602L1345.17 318.012L1345.37 317.81Z" fill="#8F9F99"/><path d="M1369.41 296.601C1365.17 300.843 1359.11 302.66 1351.84 302.66C1326.19 302.66 1284.38 278.222 1246.41 239.241C1207.63 199.655 1184.4 156.23 1186.02 130.782C1186.22 124.117 1188.24 118.664 1192.48 114.624C1211.47 96.0428 1266.61 121.895 1315.48 172.186C1364.36 222.275 1388.6 278.02 1369.61 296.601H1369.41Z" fill="#E6E8EA"/><path d="M1369.41 296.603L1345.37 318.012C1326.59 336.593 1271.65 310.741 1222.98 260.652C1174.3 210.563 1150.07 155.02 1168.85 136.843L1192.28 114.828" stroke="#003B2F" stroke-width="4.00434" stroke-linecap="round" stroke-linejoin="round"/><path d="M1369.41 296.601C1365.17 300.843 1359.11 302.66 1351.84 302.66C1326.19 302.66 1284.38 278.222 1246.41 239.241C1207.63 199.655 1184.4 156.231 1186.02 130.782C1186.22 124.117 1188.24 118.664 1192.48 114.624C1211.47 96.0428 1266.61 121.895 1315.48 172.186C1364.36 222.275 1388.6 278.02 1369.61 296.601H1369.41Z" stroke="#003B2F" stroke-width="4.00434" stroke-linecap="round" stroke-linejoin="round"/><path d="M1351.64 302.46C1325.99 302.46 1284.39 278.022 1246.21 239.041C1207.44 199.455 1184.21 156.031 1185.82 130.582C1186.23 123.917 1188.25 118.464 1192.29 114.424C1211.27 95.8428 1266.41 121.695 1315.29 171.784C1364.17 222.075 1388.4 277.82 1369.42 296.199C1365.18 300.441 1359.12 302.258 1351.85 302.258L1351.64 302.46Z" stroke="#003B2F" stroke-width="4.00434" stroke-linecap="round" stroke-linejoin="round"/><path d="M1196.12 140.883C1195.51 137.449 1195.31 134.217 1195.31 131.39C1195.31 126.946 1196.72 123.715 1198.95 121.695C1204.8 116.04 1219.95 117.858 1238.53 126.543C1260.75 136.843 1285.59 155.627 1308.42 179.055C1339.32 210.765 1361.13 245.908 1365.57 270.751C1366.38 276.002 1367.39 285.495 1362.75 289.938C1360.52 292.16 1356.89 293.17 1352.04 293.17C1328.61 293.17 1288.02 268.125 1253.48 232.578C1222.78 201.07 1200.76 165.927 1196.32 140.883H1196.12Z" stroke="#003B2F" stroke-width="4.00434" stroke-linecap="round" stroke-linejoin="round"/><path d="M397.896 555.841C435.909 512.336 479.13 486.004 503.77 489.353C508.283 489.826 512.147 491.482 515.362 494.322C535.361 511.752 515.248 567.532 470.411 618.993C425.574 670.454 372.999 698.124 352.999 680.695L350.677 678.19C348.196 675.137 346.416 671.082 345.812 666.287C341.739 641.426 361.892 597.367 397.896 555.841Z" fill="#E6E8EA"/><path d="M350.732 678.375L334.275 661.502C314.276 644.073 334.389 588.293 379.226 536.832C424.063 485.37 476.692 457.884 496.638 475.13L498.906 477.451L515.363 494.324C512.201 491.667 508.337 490.01 503.771 489.354C479.131 486.005 435.726 512.391 397.897 555.842C361.893 597.368 341.924 641.374 345.813 666.289C346.417 671.084 348.196 675.138 350.678 678.192L350.732 678.375Z" fill="#8F9F99"/><path d="M350.732 678.375L334.275 661.502C314.276 644.073 334.389 588.293 379.226 536.832C424.063 485.37 476.692 457.884 496.638 475.13L498.906 477.451L515.363 494.324" stroke="#003B2F" stroke-width="3.77986" stroke-linecap="round" stroke-linejoin="round"/><path d="M350.732 678.375C348.25 675.321 346.47 671.267 345.866 666.472C341.794 641.611 361.946 597.551 397.951 556.025C435.963 512.521 479.184 486.188 503.825 489.538C508.337 490.01 512.201 491.667 515.416 494.507" stroke="#003B2F" stroke-width="3.77986" stroke-linecap="round" stroke-linejoin="round"/><path d="M503.824 489.535C508.336 490.008 512.2 491.665 515.361 494.321C535.361 511.751 515.301 567.714 470.464 619.175C425.627 670.637 372.998 698.123 352.999 680.694L350.731 678.373C348.195 675.136 346.416 671.081 345.812 666.286C341.793 641.609 361.892 597.366 397.949 556.023C435.962 512.519 479.183 486.186 503.824 489.535Z" stroke="#003B2F" stroke-width="3.77986" stroke-linecap="round" stroke-linejoin="round"/><path d="M512.264 506.164C518.68 523.381 503.636 566.547 463.28 612.922C442.437 636.9 419.235 656.198 398.033 667.356C380.281 676.712 365.453 679.05 359.077 673.553L357.389 671.858C357.389 671.858 356.305 670.186 355.931 668.903C355.61 667.804 355.182 666.338 354.991 665.002C351.95 646.402 366.33 606.413 404.915 562.145C443.63 517.64 484.126 496.279 502.52 498.667C505.407 499.018 507.43 499.819 509.064 501.331C510.591 502.476 511.493 504.201 512.264 506.164Z" stroke="#003B2F" stroke-width="3.77986" stroke-linecap="round" stroke-linejoin="round"/><path d="M851.46 438.125C890.429 381.447 876.072 303.91 819.394 264.942C762.716 225.973 685.179 240.33 646.21 297.008C607.242 353.686 621.599 431.223 678.277 470.192C734.955 509.16 812.492 494.803 851.46 438.125Z" fill="#8F9F99" stroke="#003B2F" stroke-width="4.80068" stroke-miterlimit="10"/><path d="M875.325 407.007C899.57 342.64 867.045 270.805 802.678 246.56C738.311 222.314 666.476 254.84 642.231 319.207C617.986 383.574 650.511 455.408 714.878 479.654C779.245 503.899 851.08 471.374 875.325 407.007Z" fill="#E6E8EA" stroke="#003B2F" stroke-width="4.80068" stroke-linecap="round" stroke-linejoin="round"/><path d="M718.659 470.297C690.418 459.421 667.966 438.197 655.687 410.482C643.408 382.767 642.531 351.895 653.407 323.654C664.282 295.413 685.507 272.961 713.221 260.682C740.936 248.403 771.808 247.526 800.049 258.402C828.29 269.277 850.742 290.502 863.021 318.216C875.3 345.931 876.177 376.803 865.301 405.044C854.426 433.285 833.201 455.738 805.487 468.016C777.772 480.295 746.9 481.172 718.659 470.297Z" stroke="#003B2F" stroke-width="4.80068" stroke-linecap="round" stroke-linejoin="round"/><path opacity="0.6" fill-rule="evenodd" clip-rule="evenodd" d="M1238.02 157.581L1270.04 193.222L1304.01 187.121L1238.02 157.581Z" fill="#003B2F"/><path fill-rule="evenodd" clip-rule="evenodd" d="M1238.02 157.581L1260.39 226.302L1270.04 193.222L1238.02 157.581Z" fill="#003B2F"/><path opacity="0.6" fill-rule="evenodd" clip-rule="evenodd" d="M1302.92 229.828L1324.71 254.082L1309.03 192.718L1302.92 229.828Z" fill="#003B2F"/><path fill-rule="evenodd" clip-rule="evenodd" d="M1324.71 254.082L1302.92 229.828L1265.42 231.899L1324.71 254.082Z" fill="#003B2F"/><path opacity="0.2" fill-rule="evenodd" clip-rule="evenodd" d="M1297.89 224.231L1304.01 187.121L1270.04 193.222L1297.89 224.231Z" fill="#003B2F"/><path opacity="0.6" fill-rule="evenodd" clip-rule="evenodd" d="M1260.39 226.302L1297.89 224.231L1270.04 193.222L1260.39 226.302Z" fill="#003B2F"/><path opacity="0.6" fill-rule="evenodd" clip-rule="evenodd" d="M476.787 535.928L447.687 573.986L459.969 606.238L476.787 535.928Z" fill="#003B2F"/><path fill-rule="evenodd" clip-rule="evenodd" d="M476.787 535.928L413.392 570.624L447.687 573.986L476.787 535.928Z" fill="#003B2F"/><path opacity="0.6" fill-rule="evenodd" clip-rule="evenodd" d="M417.798 613.074L397.995 638.973L455.399 612.215L417.798 613.074Z" fill="#003B2F"/><path fill-rule="evenodd" clip-rule="evenodd" d="M397.995 638.973L417.798 613.074L408.822 576.601L397.995 638.973Z" fill="#003B2F"/><path opacity="0.2" fill-rule="evenodd" clip-rule="evenodd" d="M422.368 607.098L459.969 606.238L447.687 573.986L422.368 607.098Z" fill="#003B2F"/><path opacity="0.6" fill-rule="evenodd" clip-rule="evenodd" d="M413.392 570.624L422.368 607.098L447.686 573.986L413.392 570.624Z" fill="#003B2F"/><path opacity="0.6" fill-rule="evenodd" clip-rule="evenodd" d="M733.588 814.436L758.403 855.417L792.914 855.751L733.588 814.436Z" fill="#003B2F"/><path fill-rule="evenodd" clip-rule="evenodd" d="M733.589 814.436L742.759 886.12L758.403 855.417L733.589 814.436Z" fill="#003B2F"/><path opacity="0.6" fill-rule="evenodd" clip-rule="evenodd" d="M783.89 897.508L800.777 925.396L796.811 862.186L783.89 897.508Z" fill="#003B2F"/><path fill-rule="evenodd" clip-rule="evenodd" d="M800.777 925.396L783.89 897.508L746.656 892.556L800.777 925.396Z" fill="#003B2F"/><path opacity="0.2" fill-rule="evenodd" clip-rule="evenodd" d="M779.993 891.072L792.914 855.751L758.403 855.417L779.993 891.072Z" fill="#003B2F"/><path opacity="0.6" fill-rule="evenodd" clip-rule="evenodd" d="M742.759 886.12L779.993 891.072L758.403 855.417L742.759 886.12Z" fill="#003B2F"/><path opacity="0.6" fill-rule="evenodd" clip-rule="evenodd" d="M750.598 279.388L757.374 337.198L808.883 353.375L750.598 279.388Z" fill="#003B2F"/><path fill-rule="evenodd" clip-rule="evenodd" d="M750.598 279.388L711.107 364.836L757.374 337.198L750.598 279.388Z" fill="#003B2F"/><path opacity="0.6" fill-rule="evenodd" clip-rule="evenodd" d="M764.334 396.573L768.945 435.913L809.947 362.454L764.334 396.573Z" fill="#003B2F"/><path fill-rule="evenodd" clip-rule="evenodd" d="M768.945 435.913L764.333 396.573L712.171 373.914L768.945 435.913Z" fill="#003B2F"/><path opacity="0.2" fill-rule="evenodd" clip-rule="evenodd" d="M763.269 387.495L808.882 353.375L757.374 337.198L763.269 387.495Z" fill="#003B2F"/><path opacity="0.6" fill-rule="evenodd" clip-rule="evenodd" d="M711.107 364.836L763.269 387.495L757.374 337.198L711.107 364.836Z" fill="#003B2F"/><path d="M1697.31 695.819H1646.78C1662.57 695.819 1675.21 683.187 1675.21 667.396C1675.21 651.606 1662.57 638.973 1646.78 638.973H1502.56C1486.77 638.973 1474.14 651.606 1474.14 667.396H1429.93C1414.13 667.396 1401.5 680.029 1401.5 695.819C1401.5 711.61 1414.13 724.243 1429.93 724.243H1524.67C1524.67 740.033 1537.3 752.666 1553.09 752.666H1697.31C1713.1 752.666 1725.74 740.033 1725.74 724.243C1725.74 708.452 1713.1 695.819 1697.31 695.819Z" fill="#E6E8EA"/><path d="M1323.6 703.187H1574.15C1601.52 703.187 1624.68 725.294 1624.68 753.717C1624.68 781.087 1602.57 804.247 1574.15 804.247H1323.6C1296.23 804.247 1273.07 782.14 1273.07 753.717C1273.07 725.294 1295.18 703.187 1323.6 703.187Z" fill="#03FC9D"/><path d="M1506.37 359.112L1532.69 373.85" stroke="#003B2F" stroke-width="3.15813" stroke-miterlimit="10" stroke-linecap="round" stroke-linejoin="round"/><path d="M1559.01 359.112L1543.21 368.586" stroke="#003B2F" stroke-width="3.15813" stroke-miterlimit="10" stroke-linecap="round" stroke-linejoin="round"/><path d="M1532.69 373.851V404.38" stroke="#003B2F" stroke-width="3.15813" stroke-miterlimit="10" stroke-linecap="round" stroke-linejoin="round"/><path d="M1506.37 446.487H1695.86" stroke="#03FC9D" stroke-width="3.15813" stroke-miterlimit="10" stroke-linecap="round" stroke-linejoin="round"/><path d="M1652.7 483.332H1797.97" stroke="#003B2F" stroke-width="3.15813" stroke-miterlimit="10" stroke-linecap="round" stroke-linejoin="round"/><path d="M1282.09 920.288V944.5" stroke="#003B2F" stroke-width="3.15813" stroke-miterlimit="10" stroke-linecap="round" stroke-linejoin="round"/><path d="M1282.09 962.396V986.608" stroke="#003B2F" stroke-width="3.15813" stroke-miterlimit="10" stroke-linecap="round" stroke-linejoin="round"/><path d="M1249.46 952.923H1273.67" stroke="#003B2F" stroke-width="3.15813" stroke-miterlimit="10" stroke-linecap="round" stroke-linejoin="round"/><path d="M1291.57 952.923H1315.78" stroke="#003B2F" stroke-width="3.15813" stroke-miterlimit="10" stroke-linecap="round" stroke-linejoin="round"/><path d="M418.985 255.286H368.455C384.245 255.286 396.878 243.706 396.878 228.968C396.878 214.23 384.245 202.65 368.455 202.65H224.234C208.443 202.65 195.81 214.23 195.81 228.968H151.597C135.806 228.968 123.173 240.548 123.173 255.286C123.173 270.024 135.806 281.604 151.597 281.604H246.34C246.34 296.342 258.973 307.921 274.764 307.921H418.985C434.776 307.921 447.408 296.342 447.408 281.604C447.408 266.866 434.776 255.286 418.985 255.286Z" fill="#E6E8EA"/><path d="M330.557 236.337H367.401" stroke="#003B2F" stroke-width="3.15813" stroke-miterlimit="10" stroke-linecap="round" stroke-linejoin="round"/><path d="M278.975 140.542H538.995" stroke="#03FC9D" stroke-width="3.15813" stroke-miterlimit="10" stroke-linecap="round" stroke-linejoin="round"/><path d="M413.721 236.337H558.995" stroke="#003B2F" stroke-width="3.15813" stroke-miterlimit="10" stroke-linecap="round" stroke-linejoin="round"/><path d="M712.084 85.4395L728.928 102.283" stroke="#003B2F" stroke-width="3.15813" stroke-miterlimit="10" stroke-linecap="round" stroke-linejoin="round"/><path d="M741.56 114.916L758.403 131.759" stroke="#003B2F" stroke-width="3.15813" stroke-miterlimit="10" stroke-linecap="round" stroke-linejoin="round"/><path d="M712.084 131.759L728.928 114.916" stroke="#003B2F" stroke-width="3.15813" stroke-miterlimit="10" stroke-linecap="round" stroke-linejoin="round"/><path d="M741.56 102.283L758.403 85.4395" stroke="#003B2F" stroke-width="3.15813" stroke-miterlimit="10" stroke-linecap="round" stroke-linejoin="round"/><path d="M1314.7 571.083L1292.37 548.752L1270.04 571.083L1292.37 593.414L1314.7 571.083Z" stroke="#003B2F" stroke-width="3.15813" stroke-miterlimit="10" stroke-linecap="round" stroke-linejoin="round"/><path d="M558.454 695.819V720.032" stroke="#003B2F" stroke-width="3.15813" stroke-miterlimit="10" stroke-linecap="round" stroke-linejoin="round"/><path d="M558.454 737.928V762.14" stroke="#003B2F" stroke-width="3.15813" stroke-miterlimit="10" stroke-linecap="round" stroke-linejoin="round"/><path d="M525.82 728.455H550.033" stroke="#003B2F" stroke-width="3.15813" stroke-miterlimit="10" stroke-linecap="round" stroke-linejoin="round"/><path d="M567.929 728.455H592.141" stroke="#003B2F" stroke-width="3.15813" stroke-miterlimit="10" stroke-linecap="round" stroke-linejoin="round"/><g clip-path="url(#clip0_1209_2)"><path fill-rule="evenodd" clip-rule="evenodd" d="M835.93 523.236C832.481 529.434 825.219 532.852 817.979 531.128C809.254 529.051 803.865 520.294 805.942 511.569C808.02 502.844 816.777 497.455 825.501 499.533C830.398 500.698 834.244 503.968 836.309 508.156L840.26 506.21C837.635 500.887 832.746 496.73 826.521 495.248C815.43 492.608 804.299 499.458 801.658 510.549C799.018 521.64 805.868 532.772 816.959 535.412C822.921 536.832 828.894 535.509 833.554 532.259L832.145 538.179L837.232 539.39L839.527 529.751L839.719 528.948L838.64 527.195L836.25 523.312L840.344 524.287L840.802 524.396L841.822 520.112L837.538 519.092L821.472 515.267L820.453 519.551L835.93 523.236ZM868.775 506.157L851.773 502.109L842.593 540.667L847.632 541.866L850.062 531.663L846.425 525.735L858.474 528.603L868.426 546.817L874.624 548.293L864.199 529.572L864.861 529.73C872.194 531.13 878.496 527.775 880.058 521.212C881.751 514.102 877.252 508.175 868.775 506.157ZM875.019 520.012C873.938 524.554 869.779 526.768 864.185 525.436L852.222 522.588L855.771 507.684L867.734 510.533C873.332 511.865 876.1 515.471 875.019 520.012ZM899.421 513.454L906.287 515.088L910.463 547.692L885.716 541.8L880.336 549.653L875.522 548.507L899.421 513.454ZM910.464 547.702L910.463 547.692L910.476 547.695L910.464 547.702ZM910.464 547.702L911.67 557.113L906.855 555.967L906.069 550.091L910.464 547.702ZM905.123 542.092L902.033 518.699L901.533 518.58L888.178 538.058L905.118 542.091L905.123 542.092ZM1036.42 546.07L1029.55 544.436L1005.65 579.489L1010.47 580.635L1015.85 572.782L1040.59 578.674L1040.6 578.684L1036.2 581.061L1036.99 586.949L1041.8 588.095L1040.6 578.684L1040.61 578.678L1040.59 578.674L1036.42 546.07ZM1032.16 549.681L1035.25 573.074L1035.25 573.073L1018.31 569.04L1031.66 549.562L1032.16 549.681ZM919.101 518.139L913.888 516.898L920.342 538.806L925.546 540.045L919.101 518.139ZM947.09 524.803L941.877 523.562L922.144 544.603L918.764 558.8L923.854 560.014L927.19 546.004L947.09 524.803ZM1082.23 575.175L1078.15 592.321L1100.37 597.611L1099.37 601.801L1072.07 595.3L1075.53 580.738L1076.31 577.475L1081.25 556.743L1108.82 563.307L1107.8 567.591L1085.31 562.237L1082.25 575.09L1086.93 576.205L1097.91 578.82L1096.89 583.104L1085.06 580.287L1082.23 575.175ZM1114.83 570.114C1116.56 570.526 1118.07 569.595 1118.48 567.865C1118.89 566.141 1117.96 564.635 1116.23 564.223C1114.52 563.815 1113 564.768 1112.59 566.462C1112.18 568.193 1113.11 569.706 1114.83 570.114ZM1114.93 569.709C1113.47 569.36 1112.68 568.059 1113.04 566.568C1113.38 565.113 1114.67 564.291 1116.14 564.64C1117.6 564.989 1118.39 566.304 1118.04 567.759C1117.68 569.25 1116.4 570.057 1114.93 569.709ZM1113.91 568.652L1114.37 568.761L1114.71 567.321L1115.27 567.452L1116 569.149L1116.59 569.288L1115.79 567.562L1115.81 567.567C1116.47 567.723 1117.07 567.405 1117.21 566.794C1117.37 566.154 1116.98 565.57 1116.33 565.414L1114.77 565.044L1113.91 568.652ZM1114.81 566.928L1115.13 565.561L1116.16 565.806C1116.58 565.906 1116.86 566.263 1116.76 566.677C1116.66 567.092 1116.28 567.277 1115.84 567.173L1114.81 566.928ZM950.236 536.226C949.059 541.171 953.719 543.239 958.912 545.374L958.917 545.375C965.292 548.072 972.457 551.354 970.431 559.866C968.76 566.886 962.471 570.056 953.495 567.92C943.921 565.64 939.24 559.097 941.189 550.777L941.203 550.719L941.204 550.714L941.748 548.429L946.411 549.539L945.867 551.824C944.537 557.636 947.71 562.045 954.555 563.675C960.519 565.095 964.626 563.262 965.626 559.058C966.854 553.9 961.973 551.834 956.691 549.623C950.354 546.99 943.51 543.509 945.449 535.368C947.057 528.614 952.985 525.357 961.96 527.494C970.935 529.631 975.144 536.12 973.308 544.06L968.741 542.973C970.008 537.653 967.221 533.244 960.946 531.75C955.033 530.342 951.198 532.185 950.236 536.226ZM1003.45 569.057C1000.15 572.03 995.338 573.38 990.749 572.287C982.319 570.28 977.806 562.18 979.997 552.976C982.189 543.772 989.804 538.614 998.285 540.634C1002.84 541.719 1006.47 545.024 1008.05 549.157C1008.29 549.028 1009.7 548.197 1010.79 547.553L1010.79 547.552L1010.79 547.549C1011.47 547.148 1012.03 546.82 1012.11 546.779C1009.75 541.733 1005.09 537.762 999.297 536.384C988.061 533.708 977.947 540.183 975.173 551.833C972.348 563.47 978.499 573.872 989.735 576.548C995.629 577.951 1001.69 576.53 1006.04 573.102C1005.97 572.969 1005.24 571.845 1004.58 570.813L1004.58 570.811C1004.02 569.953 1003.51 569.159 1003.45 569.057ZM1058.69 551.373L1053.93 550.239L1044.75 588.796L1069.13 594.602L1070.15 590.318L1046.3 584.639L1051.52 581.496L1058.69 551.373Z" fill="#003B2F"/></g><defs><clipPath id="clip0_1209_2"><rect width="327.541" height="42.1124" fill="white" transform="translate(805.56 489.409) rotate(13.3919)"/></clipPath></defs></svg>