<svg width="1920" height="1080" viewBox="0 0 1920 1080" fill="none" xmlns="http://www.w3.org/2000/svg"><path d="M879.892 928.136C865.701 921.251 869.144 885.144 887.617 847.693C906.007 810.159 932.457 785.472 946.564 792.357L963.694 801.174C960.587 799.746 957.144 799.662 953.366 800.838C938.671 805.121 919.022 826.869 904.411 856.678C890.052 885.983 884.678 914.281 889.8 928.724C891.312 932.839 893.579 935.862 896.77 937.457L879.976 928.22L879.892 928.136Z" fill="#9FB4AD"/><path d="M896.686 937.373C893.495 935.862 891.228 932.755 889.717 928.64C884.678 914.197 889.969 885.732 904.327 856.594C918.938 826.869 938.587 805.121 953.282 800.838C957.06 799.663 960.503 799.747 963.61 801.174C977.885 808.143 974.358 844.418 955.885 882.037C937.412 919.655 910.877 944.51 896.686 937.457V937.373Z" fill="#E3E7E3"/><path d="M896.602 937.373L879.808 928.136C865.617 921.251 869.06 885.143 887.533 847.693C905.922 810.158 932.373 785.471 946.48 792.357L963.61 801.174" stroke="#003B2F" stroke-width="2.09924" stroke-linecap="round" stroke-linejoin="round"/><path d="M896.686 937.373C893.495 935.862 891.228 932.755 889.717 928.64C884.678 914.197 889.969 885.732 904.327 856.594C918.938 826.869 938.587 805.121 953.282 800.838C957.06 799.663 960.503 799.747 963.61 801.174C977.885 808.143 974.358 844.418 955.885 882.037C937.412 919.655 910.877 944.51 896.686 937.457V937.373Z" stroke="#003B2F" stroke-width="2.09924" stroke-linecap="round" stroke-linejoin="round"/><path d="M889.717 928.556C884.678 914.113 889.969 885.731 904.327 856.426C918.938 826.701 938.587 804.869 953.282 800.67C957.144 799.494 960.587 799.578 963.61 801.006C977.885 807.975 974.442 844.166 955.885 881.785C937.412 919.487 910.877 944.258 896.602 937.289C893.411 935.777 891.144 932.671 889.717 928.556Z" stroke="#003B2F" stroke-width="2.09924" stroke-linecap="round" stroke-linejoin="round"/><path d="M949.671 808.563C951.518 807.555 953.281 806.715 954.877 806.212C957.396 805.372 959.495 805.456 961.09 806.212C965.457 808.395 967.472 817.212 966.297 829.387C964.869 843.998 959.411 861.716 950.678 879.265C939.006 902.945 923.64 922.426 910.457 929.815C907.686 931.327 902.563 933.762 899.121 932.082C897.441 931.243 896.098 929.479 895.174 926.624C890.556 913.357 896.434 885.563 909.533 858.945C921.121 835.265 936.487 815.952 949.671 808.395V808.563Z" stroke="#003B2F" stroke-width="2.09924" stroke-linecap="round" stroke-linejoin="round"/><path d="M949.838 861.464C953.953 853.655 952.273 849.54 948.579 846.769L954.876 836.189L951.686 834.678L945.556 844.922C944.716 844.418 943.792 844.082 942.953 843.746L949.167 833.334L945.976 831.823L939.678 842.403C939.006 841.983 938.25 841.731 937.579 841.479L933.128 839.212L929.014 846.014C929.014 846.014 931.449 847.105 931.281 847.189C932.541 847.945 932.037 849.624 931.449 850.968L924.311 862.976L914.235 879.77C913.731 880.609 912.724 881.785 911.716 881.365L909.449 880.189L904.243 887.495L908.441 889.594C909.197 890.014 909.869 890.434 910.708 890.77L904.327 901.434L907.517 902.945L913.815 892.365C914.655 892.869 915.495 893.373 916.334 893.625L910.037 904.205L913.227 905.716L919.609 895.052C925.319 897.151 930.861 896.144 937.327 886.319C942.617 878.258 942.869 873.724 940.686 870.701C943.625 869.777 946.899 866.838 949.838 861.296V861.464ZM931.701 882.121C926.915 890.098 920.533 885.899 918.434 884.808L926.915 870.701C929.098 871.792 936.655 873.808 931.701 882.121ZM942.113 861.464C937.747 868.769 932.54 865.075 930.777 864.151L938.418 851.304C940.182 852.143 946.563 853.907 942.113 861.464Z" fill="#003B2F"/><path d="M1026.25 305.164C1041.45 317.339 1079.91 294.248 1111.9 253.69C1143.89 213.133 1157.41 170.56 1142.13 158.469L1123.24 144.026C1126.43 146.713 1128.44 150.491 1129.2 155.362C1132.22 174.003 1118.45 207.507 1093.09 239.667C1068.15 271.324 1039.35 292.4 1020.54 294.416C1015.17 294.919 1010.63 294.08 1007.11 291.309L1026.42 305.164H1026.25Z" fill="#9FB4AD"/><path d="M1006.94 291.394C1010.38 294.165 1015 295.088 1020.37 294.5C1039.18 292.401 1068.07 271.325 1092.92 239.752C1118.37 207.592 1132.05 174.088 1129.03 155.446C1128.36 150.66 1126.43 146.798 1123.07 144.111C1107.62 131.935 1069.16 155.195 1037 195.836C1004.92 236.477 991.319 279.302 1006.69 291.394H1006.77H1006.94Z" fill="#E3E7E3"/><path d="M1007.02 291.393L1026.34 305.248C1041.53 317.424 1079.99 294.332 1111.98 253.775C1143.98 213.217 1157.5 170.644 1142.21 158.553L1123.32 144.11" stroke="#003B2F" stroke-width="2.60306" stroke-linecap="round" stroke-linejoin="round"/><path d="M1006.94 291.394C1010.38 294.165 1015 295.088 1020.37 294.5C1039.18 292.401 1068.07 271.325 1092.92 239.752C1118.37 207.592 1132.05 174.088 1129.03 155.446C1128.36 150.66 1126.43 146.798 1123.07 144.111C1107.62 131.935 1069.16 155.195 1037 195.836C1004.92 236.477 991.319 279.302 1006.69 291.394H1006.77H1006.94Z" stroke="#003B2F" stroke-width="2.60306" stroke-linecap="round" stroke-linejoin="round"/><path d="M1020.46 294.416C1039.27 292.317 1068.07 271.325 1093.09 239.752C1118.53 207.592 1132.3 174.004 1129.2 155.446C1128.44 150.576 1126.51 146.713 1123.24 144.11C1107.79 131.935 1069.33 155.026 1037.25 195.752C1005.09 236.477 991.571 279.302 1006.94 291.393C1010.38 294.164 1015 295.088 1020.37 294.416H1020.46Z" stroke="#003B2F" stroke-width="2.60306" stroke-linecap="round" stroke-linejoin="round"/><path d="M1122.4 163.591C1122.56 160.988 1122.48 158.553 1122.23 156.538C1121.81 153.263 1120.63 150.996 1118.87 149.652C1114.17 145.958 1103.17 148.477 1090.24 156.202C1074.7 165.523 1057.91 181.141 1042.88 200.202C1022.64 225.813 1009.2 253.355 1007.95 271.996C1007.69 275.943 1007.78 282.912 1011.47 285.851C1013.32 287.279 1016.01 287.783 1019.62 287.363C1036.83 285.515 1064.71 264.019 1087.38 235.301C1107.62 209.775 1120.97 182.317 1122.31 163.591H1122.4Z" stroke="#003B2F" stroke-width="2.60306" stroke-linecap="round" stroke-linejoin="round"/><path opacity="0.6" fill-rule="evenodd" clip-rule="evenodd" d="M1098.47 175.179L1074.62 205.492L1080.92 229.004L1098.47 175.179Z" fill="#003B2F"/><path fill-rule="evenodd" clip-rule="evenodd" d="M1098.46 175.179L1050.35 204.989L1074.62 205.492L1098.46 175.179Z" fill="#003B2F"/><path opacity="0.6" fill-rule="evenodd" clip-rule="evenodd" d="M1050.18 236.645L1033.98 257.302L1077.14 233.79L1050.18 236.645Z" fill="#003B2F"/><path fill-rule="evenodd" clip-rule="evenodd" d="M1033.98 257.218L1050.18 236.561L1046.66 209.691L1033.98 257.218Z" fill="#003B2F"/><path opacity="0.2" fill-rule="evenodd" clip-rule="evenodd" d="M1053.88 231.859L1080.83 229.004L1074.53 205.492L1053.79 231.859H1053.88Z" fill="#003B2F"/><path opacity="0.6" fill-rule="evenodd" clip-rule="evenodd" d="M1050.35 204.989L1053.88 231.859L1074.62 205.493L1050.35 204.989Z" fill="#003B2F"/><path d="M920.954 138.317C889.465 155.866 858.396 162.332 844.625 155.111C842.106 153.851 840.175 152.088 838.915 149.82C830.77 135.294 854.366 106.744 891.564 85.9194C928.679 65.0109 965.458 59.8048 973.519 74.3316L974.359 76.2629C975.198 78.614 975.366 81.385 974.694 84.324C971.84 99.7744 950.763 121.439 920.87 138.317H920.954Z" fill="#E3E7E3"/><path d="M974.36 76.2628L980.489 89.698C988.634 104.225 965.039 132.774 927.84 153.515C890.642 174.34 853.947 179.462 845.802 165.019L844.962 163.172L838.832 149.736C840.092 152.004 842.023 153.767 844.542 155.026C858.313 162.164 889.382 155.782 920.871 138.233C950.764 121.355 971.84 99.6904 974.695 84.2399C975.283 81.217 975.199 78.53 974.36 76.1788V76.2628Z" fill="#9FB4AD"/><path d="M974.36 76.2628L980.489 89.698C988.634 104.225 965.039 132.774 927.84 153.515C890.642 174.34 853.947 179.462 845.802 165.019L844.962 163.172L838.832 149.736" stroke="#003B2F" stroke-width="2.43512" stroke-linecap="round" stroke-linejoin="round"/><path d="M974.36 76.2628C975.199 78.614 975.367 81.385 974.695 84.3239C971.84 99.7744 950.764 121.439 920.871 138.316C889.382 155.866 858.313 162.332 844.542 155.11C842.023 153.851 840.092 152.088 838.832 149.82" stroke="#003B2F" stroke-width="2.43512" stroke-linecap="round" stroke-linejoin="round"/><path d="M844.625 155.11C842.106 153.85 840.175 152.087 838.915 149.82C830.77 135.293 854.366 106.743 891.564 85.8349C928.679 65.0104 965.458 59.8883 973.519 74.3311L974.359 76.1784C975.198 78.5296 975.366 81.3006 974.778 84.3235C971.923 99.6899 950.847 121.438 920.954 138.232C889.465 155.866 858.396 162.247 844.625 155.026V155.11Z" stroke="#003B2F" stroke-width="2.43512" stroke-linecap="round" stroke-linejoin="round"/><path d="M843.113 143.438C843.029 131.934 860.914 109.682 894.334 90.9571C911.632 81.2166 929.35 74.751 944.128 72.6517C956.556 70.8884 965.793 72.6517 968.312 77.1861L968.9 78.6136C968.9 78.6136 969.151 79.7892 969.151 80.6289C969.151 81.3846 969.068 82.3082 968.9 83.064C966.716 94.6518 949.838 115.056 917.93 133.026C885.769 151.08 857.472 155.11 847.227 149.82C845.548 148.98 844.54 148.057 843.953 146.965C843.365 145.957 843.113 144.782 843.113 143.438Z" stroke="#003B2F" stroke-width="2.43512" stroke-linecap="round" stroke-linejoin="round"/><path fill-rule="evenodd" clip-rule="evenodd" d="M922.045 84.2396L936.908 105.568L925.908 113.209L911.045 91.8809L922.045 84.2396ZM900.885 118.247L872.587 137.98L869.396 133.446L897.694 113.713L900.885 118.247Z" fill="#003B2F"/><path fill-rule="evenodd" clip-rule="evenodd" d="M911.213 107.667C905.923 100.109 898.366 96.2469 894.335 99.1019C890.305 101.957 891.313 110.354 896.603 117.911C901.893 125.468 909.45 129.331 913.481 126.476C917.511 123.621 916.504 115.224 911.213 107.667ZM900.297 115.308C895.007 107.751 892.908 101.201 894.923 99.8576C896.939 98.5141 904.16 101.369 909.45 109.01C914.74 116.568 914.992 124.377 912.977 125.804C910.961 127.232 905.587 122.949 900.297 115.392V115.308Z" fill="#003B2F"/><path fill-rule="evenodd" clip-rule="evenodd" d="M920.114 104.897L903.655 116.401L900.465 111.866L916.923 100.362L920.114 104.897Z" fill="#003B2F"/><path d="M901.004 262.887C931.455 218.596 920.236 158.006 875.946 127.554C831.655 97.1027 771.065 108.322 740.614 152.612C710.162 196.903 721.381 257.493 765.671 287.944C809.962 318.396 870.552 307.177 901.004 262.887Z" fill="#9FB4AD" stroke="#003B2F" stroke-width="2.93894" stroke-miterlimit="10"/><path d="M919.677 238.609C938.624 188.31 913.207 132.176 862.908 113.23C812.609 94.2833 756.475 119.7 737.529 169.999C718.583 220.298 743.999 276.432 794.298 295.378C844.597 314.324 900.731 288.908 919.677 238.609Z" fill="#E3E7E3" stroke="#003B2F" stroke-width="2.93894" stroke-linecap="round" stroke-linejoin="round"/><path d="M797.18 288.119C775.096 279.638 757.63 263.012 747.974 241.348C738.317 219.683 737.729 195.584 746.21 173.5C754.691 151.416 771.317 133.95 792.981 124.294C814.646 114.637 838.745 114.049 860.829 122.53C882.913 131.011 900.379 147.637 910.035 169.302C919.692 190.966 920.28 215.065 911.799 237.149C903.318 259.233 886.692 276.699 865.027 286.355C843.363 296.012 819.264 296.6 797.18 288.119Z" stroke="#003B2F" stroke-width="2.93894" stroke-linecap="round" stroke-linejoin="round"/><path d="M871.83 187.943C872.333 174.927 861.165 169.301 846.387 166.278L849.158 148.477L837.57 147.133L834.883 164.431C831.776 163.927 828.585 163.675 825.646 163.507L828.417 145.958L816.829 144.614L814.058 162.416C811.623 162.08 808.936 161.912 806.501 161.744L790.295 159.729L788.532 171.317C788.532 171.317 797.264 172.156 797.012 172.408C801.799 173.164 802.89 175.767 803.058 178.034L799.951 198.271L795.501 226.653C795.249 228.08 793.99 230.096 790.547 229.844L782.066 228.752L777.615 241.347L792.814 243.195C795.669 243.615 798.356 244.035 801.043 244.202L798.272 262.256L809.86 263.599L812.631 245.798C815.738 246.302 818.845 246.806 821.784 246.973L819.013 264.775L830.6 266.119L833.371 248.065C853.104 249.409 867.631 246.218 871.998 229.424C875.608 215.653 869.562 208.851 858.814 204.989C866.036 202.637 871.074 197.263 871.578 188.027H871.83V187.943ZM849.578 224.637C847.478 238.073 822.791 233.79 815.066 232.783L818.761 208.935C826.738 209.943 851.761 210.615 849.578 224.554V224.637ZM849.242 190.378C847.31 202.637 826.738 198.691 820.188 197.935L823.547 176.271C830.097 177.027 851.173 177.614 849.158 190.378H849.242Z" fill="#003B2F"/><path d="M965.877 864.907L966.044 865.074C966.044 865.074 965.877 864.991 965.877 864.907Z" fill="#003B2F"/><path d="M911.381 560.852C911.381 560.852 911.969 561.524 912.305 561.86C912.473 560.432 911.549 554.135 911.633 552.203C911.717 549.684 911.717 546.661 911.549 543.387C911.297 540.112 910.877 536.417 910.122 532.555L905.251 507.699C906.007 511.562 906.427 515.173 906.679 518.532C906.931 521.89 906.931 524.829 906.763 527.348C906.679 529.867 906.427 531.967 906.259 533.562C906.091 535.074 905.839 536.081 905.839 536.417C905.671 537.257 905.503 538.097 905.419 538.936C905.335 539.776 905.251 540.616 905.251 541.371C905.251 542.211 905.251 542.967 905.335 543.806C905.335 544.562 905.503 545.402 905.671 546.158C906.007 548.005 907.687 554.387 908.442 556.066C909.198 557.745 910.206 559.341 911.381 560.852Z" fill="#003B2F"/><path d="M1017.77 597.295C1046.74 592.089 1075.96 588.059 1104.59 586.379C1133.31 584.7 1161.44 585.456 1188.48 589.906C1215.6 594.356 1241.55 602.585 1265.73 616.021C1280.01 623.914 1292.01 632.143 1301.92 640.54C1311.92 648.937 1319.98 657.502 1326.27 666.151C1332.66 674.799 1337.27 683.448 1340.63 692.013C1342.31 696.296 1343.57 700.578 1344.58 704.861C1344.58 704.189 1344.58 703.517 1344.58 702.845C1344.58 699.403 1344.41 695.876 1343.99 692.349C1343.07 684.12 1341.14 675.639 1337.86 666.99C1334.5 658.425 1329.89 649.692 1323.5 641.044C1317.12 632.395 1309.06 623.83 1298.98 615.433C1288.91 607.036 1276.9 598.807 1262.54 590.914C1238.27 577.562 1212.16 569.333 1184.87 564.883C1157.75 560.433 1129.37 559.677 1100.56 561.44C1071.76 563.12 1042.46 567.234 1013.32 572.44C984.181 577.646 955.212 584.028 927.166 590.074C903.235 595.28 879.555 600.486 856.799 604.769C834.043 609.051 812.043 612.578 791.471 614.425C770.898 616.273 751.753 616.524 734.455 614.425C717.241 612.326 701.959 607.792 689.112 600.234C684.745 597.631 680.799 594.776 677.356 591.753C673.913 588.73 670.89 585.54 668.371 582.097C665.852 578.738 663.669 575.211 661.989 571.517C660.226 567.906 658.966 564.127 657.959 560.265C660.058 568.494 662.073 576.639 664.173 584.868C665.096 588.73 666.44 592.425 668.203 596.12C669.966 599.73 672.066 603.257 674.585 606.7C677.104 610.059 680.127 613.334 683.486 616.356C686.928 619.379 690.791 622.234 695.157 624.837C707.921 632.395 723.119 636.929 740.249 639.028C757.463 641.128 776.524 640.96 796.929 639.028C817.417 637.181 839.25 633.738 861.921 629.456C884.593 625.173 908.105 620.051 931.952 614.845C959.83 608.715 988.632 602.417 1017.6 597.295H1017.77Z" fill="#003B2F"/><path d="M580.959 570.173C581.883 557.158 584.738 544.059 589.44 531.296C594.142 518.532 600.524 506.189 608.501 494.517C616.478 482.929 625.967 472.013 636.715 462.188C652.669 447.746 672.738 435.15 695.326 425.074C717.83 414.997 742.769 407.524 768.548 403.41C794.326 399.211 820.861 398.371 846.555 401.646C872.334 404.921 897.273 412.394 919.777 424.822C932.205 431.707 942.617 439.265 951.266 447.158C959.999 455.135 966.968 463.448 972.594 471.761C978.22 480.158 982.503 488.639 985.609 496.868C987.037 500.647 991.403 505.853 992.411 509.547C992.075 505.601 991.655 501.486 990.9 497.12C989.556 489.646 987.457 481.669 984.266 473.356C981.075 465.127 973.686 455.219 968.06 446.822C962.434 438.425 955.38 430.112 946.647 422.219C937.915 414.326 927.502 406.768 914.991 399.883C892.403 387.455 867.296 380.066 841.433 376.791C815.571 373.516 788.952 374.44 763.006 378.638C737.143 382.837 712.036 390.31 689.364 400.387C666.692 410.463 646.455 423.142 630.417 437.585C619.585 447.41 610.013 458.326 602.035 469.998C593.974 481.669 587.509 494.097 582.806 506.86C578.104 519.624 573.654 534.822 572.73 547.838C571.806 560.937 572.898 573.952 576.341 586.548C577.432 590.662 578.86 594.777 580.455 598.723C579.112 590.074 580.287 579.242 580.875 570.341L580.959 570.173Z" fill="#003B2F"/><path d="M658.462 560.265C658.462 560.265 658.378 559.761 658.294 559.509C657.959 557.998 657.623 556.57 657.371 555.059C657.371 554.807 657.287 554.471 657.203 554.219C656.951 552.456 656.783 550.693 656.615 548.845C656.615 548.341 656.615 547.838 656.615 547.334C656.615 545.99 656.531 544.647 656.531 543.303C656.531 542.715 656.531 542.212 656.531 541.624C656.531 540.112 656.699 538.517 656.783 536.922C656.783 536.67 656.783 536.502 656.783 536.25C656.783 536.25 656.783 536.166 656.783 536.082C656.783 536.082 656.783 535.998 656.783 535.914C656.951 534.151 657.203 532.387 657.539 530.624C657.623 530.12 657.707 529.616 657.791 529.112C658.043 527.769 658.294 526.425 658.63 525.082C658.798 524.578 658.882 523.99 659.05 523.486C659.47 521.891 659.89 520.296 660.394 518.7C660.394 518.532 660.478 518.28 660.562 518.112C661.149 516.349 661.737 514.586 662.409 512.822C662.409 512.654 662.493 512.486 662.577 512.318C662.745 511.982 662.829 511.647 662.997 511.311C663.501 510.051 664.004 508.792 664.592 507.532C664.844 507.028 665.096 506.441 665.348 505.937C666.02 504.425 666.775 502.914 667.531 501.402C667.615 501.234 667.699 500.982 667.783 500.815C667.783 500.815 667.783 500.731 667.867 500.647C669.127 498.295 670.554 495.944 671.982 493.677C672.317 493.089 672.737 492.502 673.073 491.914C673.409 491.326 673.745 490.822 674.165 490.234C675.34 488.471 676.6 486.792 677.859 485.196C677.859 485.196 677.859 485.112 677.943 485.028C679.623 482.929 681.302 480.83 683.15 478.898C683.569 478.395 684.073 477.891 684.493 477.387C686.34 475.372 688.272 473.44 690.203 471.677C698.432 464.204 709.768 457.15 722.951 451.188C736.134 445.31 751.249 440.608 767.035 437.753C782.822 434.898 799.364 434.059 815.486 435.822C831.608 437.585 847.226 442.036 861.333 449.845C868.723 453.959 874.936 458.578 880.227 463.28C885.433 468.066 889.715 473.104 893.158 478.143C896.601 483.181 899.204 488.303 901.219 493.341C903.234 498.379 904.578 503.166 905.418 507.784L910.288 532.639C910.036 531.38 909.7 530.036 909.364 528.692C911.463 537.341 911.883 539.441 911.715 545.319C911.715 547.922 911.044 551.616 912.051 556.654C912.723 558.838 913.395 559.593 914.57 560.601C916.082 561.945 917.845 563.12 919.692 564.128C921.12 564.967 922.547 565.639 924.143 566.311C925.738 566.983 927.334 567.487 929.097 567.99C930.776 568.494 932.624 568.83 934.471 569.166C936.318 569.418 938.25 569.67 940.181 569.754C945.891 570.006 951.517 569.334 956.807 567.906C962.097 566.479 967.051 564.38 971.418 561.693C975.784 559.006 979.563 555.731 982.418 552.036C985.357 548.341 987.372 544.227 988.296 539.861C988.38 539.441 988.716 538.013 988.967 535.662C989.303 533.311 989.639 530.12 989.891 526.257C990.143 521.387 990.983 516.517 989.639 508.54C985.105 491.83 979.731 480.998 969.403 466.975C958.319 451.944 942.448 437.333 919.944 424.906C897.44 412.478 872.501 405.089 846.723 401.73C821.028 398.455 794.493 399.295 768.715 403.494C743.02 407.692 717.997 415.165 695.493 425.158C672.905 435.234 652.836 447.83 636.882 462.272C620.34 477.219 606.905 494.769 597.332 513.578C587.676 532.471 581.966 552.54 580.958 572.441C580.79 575.212 580.706 577.731 580.622 580.25C580.454 589.319 582.47 598.303 586.248 606.533C586.5 607.036 586.668 607.456 586.836 607.792C589.943 614.09 592.21 616.273 596.661 622.067C601.111 627.945 606.317 633.487 612.279 638.693C618.241 643.899 624.874 648.853 632.348 653.388C652.501 665.563 674.92 673.121 698.936 677.235C723.035 681.35 748.73 682.105 775.432 680.426C802.135 678.831 829.761 674.884 857.723 669.762C885.685 664.724 913.982 658.51 942.028 652.38C967.975 646.67 993.586 641.128 1018.36 636.51C1043.13 631.891 1067.14 628.197 1089.9 626.433C1112.66 624.586 1134.24 624.67 1154.14 627.441C1174.12 630.212 1192.51 635.67 1208.88 644.907C1216.19 649.021 1222.74 653.22 1228.37 657.586C1234.08 661.953 1238.86 666.487 1242.89 671.105C1246.92 675.724 1250.03 680.51 1252.38 685.464C1254.73 690.418 1256.24 695.457 1256.92 700.747C1257.92 708.976 1259.01 717.289 1260.11 725.518C1260.19 726.273 1260.19 727.029 1260.27 727.701C1260.27 728.709 1260.44 729.716 1260.53 730.808C1260.53 732.151 1260.53 733.411 1260.44 734.754C1260.44 735.258 1260.44 735.678 1260.44 736.182C1260.36 737.693 1260.11 739.289 1259.85 740.8C1259.85 741.136 1259.85 741.388 1259.77 741.64C1259.43 743.487 1259.01 745.335 1258.51 747.266C1256.75 753.9 1254.06 760.197 1250.87 766.159C1247.68 772.121 1244.07 777.579 1240.37 782.533C1236.68 787.487 1233.07 791.77 1229.79 795.381C1226.52 798.991 1223.75 801.846 1221.82 803.778C1220.72 804.869 1218.37 807.052 1214.93 809.823C1211.49 812.594 1206.95 815.953 1201.49 819.648C1196.04 823.342 1189.74 827.205 1182.69 830.984C1175.63 834.762 1167.82 838.373 1159.59 841.564C1150.11 845.175 1141.04 847.694 1132.3 849.289C1123.49 850.885 1115.01 851.388 1106.78 850.969C1098.55 850.549 1090.49 849.037 1082.59 846.518C1074.7 843.999 1067.06 840.556 1059.42 836.022C1057.15 834.678 1055.05 833.335 1052.95 831.907C1052.36 831.488 1051.69 831.068 1051.11 830.648C1049.59 829.64 1048.17 828.633 1046.74 827.541C1046.15 827.121 1045.56 826.701 1044.98 826.198C1043.38 825.022 1041.87 823.762 1040.36 822.503C1040.11 822.251 1039.77 822.083 1039.52 821.831C1037.84 820.404 1036.16 818.892 1034.56 817.465C1034.48 817.381 1034.31 817.213 1034.23 817.129C1033.89 816.793 1033.64 816.541 1033.39 816.205C1032.21 815.113 1031.12 814.022 1030.11 812.846C1029.69 812.342 1029.19 811.839 1028.77 811.419C1027.68 810.243 1026.67 809.152 1025.75 807.976C1025.41 807.64 1025.07 807.22 1024.74 806.884C1024.65 806.8 1024.49 806.633 1024.4 806.549C1023.31 805.121 1022.22 803.778 1021.21 802.434C1020.96 802.098 1020.71 801.762 1020.46 801.426C1019.62 800.251 1018.78 798.991 1017.94 797.816C1017.77 797.564 1017.6 797.396 1017.52 797.144C1017.35 796.892 1017.18 796.556 1017.01 796.304C1016.34 795.213 1015.67 794.121 1015 793.029C1014.75 792.61 1014.49 792.106 1014.16 791.686C1013.32 790.174 1012.48 788.663 1011.72 787.152C1011.64 786.984 1011.56 786.732 1011.47 786.564C1010.8 785.22 1010.21 783.877 1009.62 782.617C1009.37 782.113 1009.2 781.694 1009.04 781.19C1008.62 780.098 1008.11 779.007 1007.69 777.915C1007.61 777.663 1007.44 777.411 1007.36 777.159C1007.36 776.991 1007.27 776.823 1007.19 776.655C1007.1 776.403 1007.02 776.151 1006.85 775.9C1006.69 775.396 1006.52 774.892 1006.35 774.388C1006.01 773.38 1005.59 772.373 1005.34 771.281C1005.17 770.693 1005.01 770.022 1004.75 769.434C1004.42 768.258 1004.08 767.167 1003.83 765.991C1003.75 765.571 1003.58 765.151 1003.49 764.732C1003.16 763.304 1002.82 761.961 1002.57 760.617C1002.57 760.449 1002.57 760.365 1002.57 760.197C1002.49 759.609 1002.32 759.022 1002.23 758.518C1001.65 755.411 1000.98 752.976 1000.72 750.121C1000.64 749.617 1000.56 749.197 1000.47 748.693C1000.47 748.441 1000.39 748.19 1000.3 747.854C1000.05 746.678 999.8 745.419 999.716 744.663C999.38 742.731 998.96 740.8 998.624 738.785C998.288 737.106 998.036 735.51 997.7 733.831C997.113 730.724 996.693 727.701 996.357 724.846C996.021 721.991 995.853 719.304 995.769 716.701C995.685 714.182 995.601 711.831 995.601 709.647C995.601 708.64 995.601 707.716 995.601 706.792C995.265 706.289 994.929 705.785 994.593 705.281C993.334 703.686 991.906 702.258 990.395 700.915C988.8 699.571 987.12 698.395 985.273 697.304C983.006 695.96 980.487 694.869 977.883 693.945C975.28 693.021 972.425 692.35 969.57 691.93C966.632 691.51 963.609 691.342 960.586 691.342C957.479 691.342 954.372 691.762 951.181 692.35C945.555 693.441 940.433 695.289 935.815 697.808C931.196 700.243 927.25 703.35 923.975 706.792C920.7 710.235 918.265 714.098 916.669 718.128C915.158 722.159 913.647 725.602 913.311 730.892C913.311 731.144 913.311 731.396 913.311 731.647C913.311 731.899 913.311 732.151 913.311 732.487C913.311 732.739 913.311 733.075 913.311 733.411C913.311 733.747 913.311 734.083 913.311 734.419C913.143 740.716 913.395 743.571 914.486 755.243C914.654 757.174 915.662 765.403 916.25 767.754C917.677 772.625 919.273 777.579 921.372 782.617C925.15 792.022 930.105 801.762 936.654 811.503C943.204 821.327 951.433 831.152 961.593 840.724C971.754 850.297 983.929 859.701 998.54 868.434C1026.84 885.48 1056.4 893.877 1085.53 896.06C1114.67 898.244 1143.3 894.129 1169.75 886.488C1196.12 878.846 1220.22 867.595 1240.54 855.419C1260.78 843.243 1277.15 830.144 1288.32 818.724C1295.37 811.503 1301.75 804.197 1307.55 796.892C1313.34 789.671 1318.38 782.449 1322.83 775.228C1327.28 768.006 1331.06 760.869 1334.25 753.648C1337.36 746.51 1339.88 739.373 1341.72 732.319C1342.48 729.296 1343.15 726.273 1343.74 723.083C1344.33 719.892 1344.75 716.701 1345.08 713.342C1345.59 707.716 1344.83 702.09 1343.07 696.8C1342.23 694.197 1341.22 691.51 1340.05 688.907C1334.76 676.647 1326.61 664.136 1314.69 651.876C1302.76 639.701 1287.06 627.693 1266.57 616.441C1242.39 603.09 1216.44 594.861 1189.32 590.326C1162.28 585.876 1134.07 585.12 1105.43 586.8C1076.8 588.479 1047.58 592.594 1018.61 597.716C989.639 602.922 960.838 609.22 932.96 615.265C909.112 620.471 885.601 625.594 862.929 629.876C840.257 634.159 818.425 637.601 797.936 639.449C777.448 641.296 758.386 641.548 741.257 639.449C724.127 637.349 708.928 632.815 696.165 625.258C681.47 616.441 670.722 602.418 666.104 585.96L658.966 560.769L658.462 560.265Z" fill="#03FC9D" stroke="#003B2F" stroke-width="5.54201" stroke-linecap="round" stroke-linejoin="round"/><path d="M1259.94 725.349C1258.85 717.036 1257.84 708.807 1256.75 700.494C1257 702.257 1257.08 704.021 1257.17 705.784C1257.17 707.547 1257.17 709.395 1257 711.158C1256.83 713.005 1256.58 714.853 1256.24 716.7C1255.91 718.547 1255.49 720.479 1254.98 722.326C1253.22 728.96 1250.45 735.257 1247.26 741.219C1244.07 747.181 1240.37 752.723 1236.68 757.593C1232.98 762.548 1229.29 766.914 1226.02 770.525C1222.74 774.135 1219.97 776.99 1218.04 778.922C1216.95 780.013 1214.51 782.196 1211.07 784.967C1207.63 787.738 1203.01 791.181 1197.55 794.792C1192.09 798.487 1185.71 802.349 1178.57 806.128C1171.43 809.906 1163.63 813.601 1155.31 816.708C1145.82 820.319 1136.67 822.838 1127.85 824.433C1119.04 826.029 1110.47 826.533 1102.16 826.113C1093.85 825.693 1085.79 824.181 1077.89 821.662C1070 819.227 1062.27 815.7 1054.63 811.166C1044.64 805.288 1036.33 798.906 1029.36 792.357C1022.47 785.807 1016.93 779.09 1012.48 772.288C1008.03 765.57 1004.75 758.769 1002.24 752.303C1001.4 750.036 999.717 746.677 999.045 744.41C999.129 745.67 999.885 748.525 1000.05 749.784C1000.39 752.639 1001.06 755.074 1001.65 758.181C1002.74 764.059 1004.42 770.357 1006.85 776.906C1009.29 783.456 1012.65 790.174 1017.01 796.891C1021.38 803.609 1026.92 810.41 1033.81 816.96C1040.69 823.51 1049.01 829.891 1058.92 835.769C1066.47 840.304 1074.2 843.746 1082.09 846.265C1089.98 848.785 1097.96 850.212 1106.27 850.716C1114.5 851.22 1123.07 850.716 1131.8 849.036C1140.62 847.441 1149.69 844.922 1159.09 841.311C1167.4 838.204 1175.13 834.51 1182.18 830.731C1189.24 826.952 1195.62 823.09 1200.99 819.395C1206.45 815.784 1210.98 812.342 1214.43 809.571C1217.87 806.8 1220.22 804.7 1221.31 803.525C1223.24 801.593 1226.02 798.739 1229.29 795.128C1232.56 791.517 1236.18 787.151 1239.87 782.28C1243.56 777.326 1247.18 771.868 1250.37 765.906C1253.56 759.945 1256.24 753.647 1258.01 747.013C1258.51 745.082 1258.93 743.234 1259.27 741.387C1259.6 739.54 1259.86 737.693 1259.94 735.845C1260.11 733.998 1260.11 732.234 1260.11 730.471C1260.11 728.708 1259.94 726.944 1259.69 725.181L1259.94 725.349Z" fill="#003B2F"/><path d="M916.67 767.167C916.166 762.633 915.83 758.434 915.662 754.488C915.494 750.625 915.41 747.014 915.494 743.823C915.494 740.633 915.578 737.862 915.662 735.511C915.662 735.175 915.662 734.839 915.662 734.503C915.662 734.167 915.662 733.915 915.662 733.579C915.662 733.327 915.662 732.991 915.662 732.739C915.662 732.488 915.662 732.236 915.662 731.984C915.158 727.701 915.83 723.419 917.341 719.388C918.937 715.358 921.456 711.495 924.815 708.052C928.09 704.61 932.204 701.587 936.906 699.068C941.609 696.632 946.899 694.701 952.609 693.61C955.884 693.022 959.074 692.686 962.265 692.602C965.456 692.602 968.479 692.686 971.502 693.19C974.441 693.61 977.296 694.281 979.983 695.205C982.67 696.129 985.189 697.22 987.54 698.564C989.472 699.655 991.235 700.831 992.83 702.174C994.426 703.518 995.853 705.029 997.113 706.541C997.449 707.045 997.868 707.549 998.204 708.052C998.204 707.045 998.204 706.037 998.204 705.197C998.204 704.022 998.204 702.846 998.204 701.839C998.204 700.747 998.204 699.739 998.204 698.816C998.204 697.808 998.12 696.884 998.036 695.961C997.952 695.037 997.785 694.113 997.617 693.19C997.617 693.19 997.617 693.106 997.617 693.022V692.938C997.617 692.938 997.617 692.854 997.617 692.77C997.617 692.77 997.617 692.77 997.617 692.602C997.197 690.587 996.525 688.739 995.685 686.892C994.846 685.129 993.754 683.449 992.494 681.854C991.235 680.258 989.807 678.831 988.128 677.487C986.533 676.144 984.769 674.968 982.838 673.877C980.487 672.533 977.968 671.442 975.281 670.518C972.594 669.594 969.739 668.922 966.716 668.503C963.693 668.083 960.67 667.915 957.479 667.915C954.288 667.915 951.013 668.335 947.739 668.922C941.945 670.014 936.655 671.945 931.952 674.381C927.25 676.816 923.135 679.923 919.777 683.365C916.418 686.808 913.899 690.671 912.303 694.701C910.708 698.732 910.288 702.426 909.952 707.465C909.952 707.716 909.952 707.968 909.952 708.22C909.952 708.472 909.952 708.724 909.952 709.06C909.952 709.312 909.952 709.648 909.952 709.984C909.952 710.32 909.952 710.655 909.952 710.991C909.952 713.342 909.784 716.113 909.784 719.304C909.784 722.495 909.784 726.274 909.952 730.22C910.12 734.167 910.54 746.427 911.128 750.961C911.632 755.495 912.387 760.282 913.479 765.32C914.319 769.266 915.83 764.816 917.09 768.93C917.006 768.259 916.922 767.671 916.838 766.999L916.67 767.167Z" fill="#003B2F"/><path d="M1074.45 614.509C1064.96 634.41 1014.41 629.96 961.762 604.517C909.113 579.074 874.182 542.379 883.754 522.562L895.846 498.463C893.914 502.746 893.747 507.616 895.426 512.99C901.556 533.479 932.205 560.769 974.022 580.921C1015.17 600.738 1054.88 607.96 1075.12 600.654C1080.83 598.555 1085.11 595.364 1087.3 590.83L1074.53 614.509H1074.45Z" fill="#9FB4AD"/><path d="M1087.3 590.914C1085.2 595.448 1080.91 598.639 1075.12 600.738C1054.88 607.96 1015.08 600.738 974.021 581.006C932.204 560.937 901.555 533.563 895.425 513.074C893.746 507.784 893.83 502.914 895.845 498.547C905.502 478.478 956.219 483.097 1009.12 508.624C1061.94 534.066 1096.95 570.929 1087.38 590.914H1087.3Z" fill="#E3E7E3"/><path d="M1087.3 590.914L1074.53 614.593C1065.04 634.494 1014.49 630.044 961.846 604.601C909.197 579.158 874.265 542.463 883.838 522.647L895.929 498.547" stroke="#003B2F" stroke-width="2.93894" stroke-linecap="round" stroke-linejoin="round"/><path d="M1087.3 590.914C1085.2 595.448 1080.91 598.639 1075.12 600.738C1054.88 607.96 1015.08 600.738 974.021 581.006C932.204 560.937 901.555 533.563 895.425 513.074C893.746 507.784 893.83 502.914 895.845 498.547C905.502 478.478 956.219 483.097 1009.12 508.624C1061.94 534.066 1096.95 570.929 1087.38 590.914H1087.3Z" stroke="#003B2F" stroke-width="2.93894" stroke-linecap="round" stroke-linejoin="round"/><path d="M1075.04 600.654C1054.8 607.876 1015.08 600.738 973.937 581.005C932.12 560.936 901.387 533.478 895.341 513.074C893.662 507.7 893.746 502.829 895.761 498.547C905.417 478.478 956.051 482.928 1008.95 508.455C1061.85 533.982 1096.87 570.845 1087.21 590.83C1085.11 595.364 1080.83 598.555 1075.04 600.57H1074.95L1075.04 600.654Z" stroke="#003B2F" stroke-width="2.93894" stroke-linecap="round" stroke-linejoin="round"/><path d="M906.341 518.028C904.913 515.509 903.738 512.99 903.066 510.807C901.89 507.28 901.974 504.425 903.066 502.074C906.089 495.944 918.433 493.089 935.478 494.517C955.883 496.364 980.822 503.837 1005.51 515.845C1038.85 531.967 1066.14 553.295 1076.72 571.601C1078.9 575.463 1082.26 582.685 1079.99 587.471C1078.9 589.822 1076.38 591.754 1072.43 593.097C1053.96 599.731 1015 591.754 977.547 573.7C944.295 557.746 917.005 536.418 906.425 518.028H906.341Z" stroke="#003B2F" stroke-width="2.93894" stroke-linecap="round" stroke-linejoin="round"/><path d="M980.403 517.188C969.487 511.478 963.693 513.913 959.83 519.119L944.968 510.386L942.868 514.921L957.311 523.402C956.64 524.577 956.136 525.837 955.716 527.012L941.105 518.363L939.006 522.898L953.869 531.631C953.365 532.554 952.945 533.646 952.609 534.653L949.502 540.867L959.159 546.493C959.159 546.493 960.67 543.05 960.754 543.218C961.762 541.455 964.113 542.043 966.044 542.967L982.838 552.875L1006.52 566.814C1007.69 567.486 1009.29 568.913 1008.78 570.341L1007.19 573.616L1017.52 580.837L1020.46 574.959C1021.04 573.867 1021.63 572.944 1022.05 571.852L1037.08 580.669L1039.18 576.135L1024.32 567.402C1024.99 566.226 1025.66 565.051 1026.08 563.875L1040.95 572.608L1043.04 568.073L1028.01 559.257C1030.87 551.196 1029.44 543.554 1015.59 534.57C1004.25 527.18 997.953 526.928 993.754 529.951C992.411 525.837 988.296 521.302 980.487 517.188H980.403ZM1009.54 542.379C1020.79 549.012 1015 557.913 1013.49 560.852L993.67 549.18C995.182 546.157 997.953 535.493 1009.54 542.379ZM980.487 528.02C990.731 534.066 985.609 541.371 984.35 543.89L966.296 533.31C967.472 530.791 969.823 521.806 980.403 528.104L980.487 528.02Z" fill="#003B2F"/><path d="M717.325 329.936L689.363 324.73C686.928 324.142 684.409 324.898 682.73 326.745C676.348 333.547 660.982 355.127 646.707 415.669C632.012 477.975 637.05 506.357 639.821 515.593C640.493 517.777 642.256 519.456 644.44 519.96L669.463 526.09" fill="#9FB4AD"/><path d="M717.325 329.936L689.363 324.73C686.928 324.142 684.409 324.898 682.73 326.745C676.348 333.547 660.982 355.127 646.707 415.669C632.012 477.975 637.05 506.357 639.821 515.593C640.493 517.777 642.256 519.456 644.44 519.96L669.463 526.09" stroke="#003B2F" stroke-width="2.26718" stroke-miterlimit="10"/><path d="M715.898 433.555C729.082 379.395 729.753 332.959 717.326 329.936C716.486 329.768 715.646 329.684 714.723 329.936C712.708 330.356 710.524 331.7 708.257 333.883C696.249 345.387 681.303 380.066 670.891 422.555C660.478 465.296 657.875 503.166 663.333 518.784C664.761 522.983 666.86 525.502 669.463 526.174C681.891 529.197 702.631 487.716 715.898 433.555Z" fill="#E3E7E3" stroke="#003B2F" stroke-width="2.26718" stroke-miterlimit="10"/><path d="M710.019 431.96C721.019 386.868 721.775 347.906 713.21 345.807C704.645 343.707 688.691 378.555 677.691 423.731C666.691 468.822 664.759 507.113 673.324 509.212C681.889 511.311 699.019 477.051 710.019 431.96Z" stroke="#003B2F" stroke-width="2.26718" stroke-linecap="round" stroke-linejoin="round"/><path d="M679.119 464.792L685.752 442.456L692.302 420.204L698.936 397.952L700.027 394.341L699.859 397.196L699.187 408.868L696.92 416.425L690.371 438.677L683.737 461.013L688.355 457.234L694.989 434.898L698.432 423.395L697.928 432.547L696.92 450.265L701.119 446.906L702.042 429.189L703.05 411.555L703.302 406.937L708.172 390.394L703.974 393.837L704.058 392.494L704.897 378.051L704.981 376.12L700.951 379.394L700.783 379.898L694.317 401.646L687.684 423.982L681.134 446.234L674.5 468.486L679.119 464.792Z" fill="#003B2F"/><path d="M1257.59 650.532L1250.87 671.861C1250.2 673.708 1250.54 675.723 1251.79 677.235C1256.5 682.861 1271.95 696.968 1317.96 713.846C1365.32 731.311 1387.91 730.052 1395.47 728.708C1397.23 728.372 1398.74 727.197 1399.33 725.517L1406.47 706.54" fill="#9FB4AD"/><path d="M1257.59 650.532L1250.87 671.861C1250.2 673.708 1250.54 675.723 1251.79 677.235C1256.5 682.861 1271.95 696.968 1317.96 713.846C1365.32 731.311 1387.91 730.052 1395.47 728.708C1397.23 728.372 1398.74 727.197 1399.33 725.517L1406.47 706.54" stroke="#003B2F" stroke-width="1.76337" stroke-miterlimit="10"/><path d="M1338.45 661.532C1297.31 646.082 1261.12 641.128 1257.59 650.532C1257.34 651.12 1257.25 651.876 1257.34 652.548C1257.51 654.143 1258.34 655.99 1259.86 658.006C1267.75 668.502 1293.44 683.533 1325.6 695.624C1357.76 707.716 1387.41 713.51 1400.09 710.655C1403.44 709.899 1405.71 708.556 1406.47 706.54C1409.99 697.136 1379.6 676.899 1338.45 661.448V661.532Z" fill="#E3E7E3" stroke="#003B2F" stroke-width="1.76337" stroke-miterlimit="10"/><path d="M1336.69 665.983C1302.43 653.052 1272.12 648.769 1269.6 655.319C1267.08 661.868 1292.94 677.571 1327.12 690.502C1361.29 703.433 1391.1 708.556 1393.54 702.006C1395.97 695.456 1370.86 678.914 1336.6 665.983H1336.69Z" stroke="#003B2F" stroke-width="1.76337" stroke-linecap="round" stroke-linejoin="round"/><path fill-rule="evenodd" clip-rule="evenodd" d="M1315.86 675.052L1311.75 674.212L1314.69 672.113L1318.8 672.953L1327.62 666.403L1341.47 671.609L1334.93 676.395L1339.04 677.235L1336.1 679.334L1331.99 678.495L1328.38 681.182L1349.2 689.075L1345.42 691.846L1310.74 678.746L1315.7 675.052H1315.86Z" fill="#003B2F"/><path d="M886.778 760.701L875.61 778.922C874.686 780.518 874.518 782.449 875.274 784.044C878.297 790.342 889.213 806.8 927.839 832.915C967.053 859.449 988.129 863.648 995.603 864.151C997.45 864.319 999.213 863.396 1000.3 861.884L1011.3 845.93" fill="#9FB4AD"/><path d="M886.778 760.701L875.61 778.922C874.686 780.518 874.518 782.449 875.274 784.044C878.297 790.342 889.213 806.8 927.839 832.915C967.053 859.449 988.129 863.648 995.603 864.151C997.45 864.319 999.213 863.396 1000.3 861.884L1011.3 845.93" stroke="#003B2F" stroke-width="1.76337" stroke-miterlimit="10"/><path d="M959.16 789.334C924.648 765.571 892.236 752.724 886.778 760.701C886.442 761.204 886.19 761.792 886.106 762.548C885.854 764.059 886.19 765.991 887.198 768.174C892.068 779.678 912.473 799.495 939.511 818.052C966.549 836.609 992.664 848.701 1005.09 849.037C1008.37 849.121 1010.72 848.365 1011.89 846.686C1017.35 838.793 993.755 813.098 959.244 789.334H959.16Z" fill="#E3E7E3" stroke="#003B2F" stroke-width="1.76337" stroke-miterlimit="10"/><path d="M956.473 793.113C927.755 773.38 900.549 762.38 896.771 767.922C892.992 773.464 913.229 793.868 942.03 813.685C970.832 833.502 997.115 845.006 1000.89 839.548C1004.67 834.09 985.191 812.929 956.389 793.197L956.473 793.113Z" stroke="#003B2F" stroke-width="1.76337" stroke-linecap="round" stroke-linejoin="round"/><path d="M927.335 793.785L935.816 796.64C937.16 797.059 938.671 797.563 940.015 797.983C943.877 799.327 945.137 797.983 942.786 794.96C942.702 794.876 942.618 794.708 942.534 794.624C939.847 791.349 937.16 787.991 934.473 784.632L934.305 784.38L935.648 782.449C935.648 782.449 935.816 782.617 935.9 782.784C939.511 787.235 942.954 791.517 946.564 795.968C948.664 798.487 949.251 800.418 948.496 801.426C947.824 802.349 945.893 802.349 943.206 801.426C937.664 799.578 932.038 797.731 926.412 795.8H926.16L927.503 793.785H927.335Z" fill="#003B2F"/><path d="M964.45 822.418C963.946 821.746 963.358 821.074 962.854 820.403C959.832 816.624 956.809 812.845 953.618 809.067C951.519 806.548 950.931 804.616 951.77 803.609C952.442 802.685 954.373 802.769 956.977 803.609C962.687 805.456 968.312 807.303 974.106 809.319L974.274 809.571L973.099 811.334C973.099 811.334 972.931 811.334 972.595 811.334C968.396 809.906 964.198 808.563 960.083 807.135C956.305 805.876 955.129 807.303 957.816 810.494C960.503 813.853 963.274 817.212 966.045 820.655C966.213 820.907 966.297 821.074 966.213 821.158L965.122 822.754V822.922L964.618 822.586L964.45 822.418Z" fill="#003B2F"/><path d="M1299.41 362.586V391.973" stroke="#003B2F" stroke-width="3.16076" stroke-linecap="round" stroke-linejoin="round"/><path d="M1299.41 413.572V442.959" stroke="#003B2F" stroke-width="3.16076" stroke-linecap="round" stroke-linejoin="round"/><path d="M1259.23 402.772H1288.74" stroke="#003B2F" stroke-width="3.16076" stroke-linecap="round" stroke-linejoin="round"/><path d="M1310.21 402.772H1339.6" stroke="#003B2F" stroke-width="3.16076" stroke-linecap="round" stroke-linejoin="round"/><path d="M243.585 526.329H273.91" stroke="#003B2F" stroke-width="3.16076" stroke-linecap="round" stroke-linejoin="round"/><path d="M168.197 477.276H387.544" stroke="#03FC9D" stroke-width="3.16076" stroke-linecap="round" stroke-linejoin="round"/><path d="M312.973 526.154H435.668" stroke="#003B2F" stroke-width="3.16076" stroke-linecap="round" stroke-linejoin="round"/><path d="M423.509 337.463H367.49C385.198 337.463 399.55 324.384 399.55 308.296C399.55 292.208 385.198 279.129 367.49 279.129H206.608C188.899 279.129 174.547 292.208 174.547 308.296H125.241C107.532 308.296 93.1804 321.375 93.1804 337.463C93.1804 353.551 107.532 366.63 125.241 366.63H230.567C230.567 382.718 244.919 395.797 262.627 395.797H423.509C441.218 395.797 455.57 382.718 455.57 366.63C455.57 350.542 441.218 337.463 423.509 337.463Z" fill="#E6E8EA"/><path d="M425.575 168.11C435.759 168.11 444.014 159.854 444.014 149.671C444.014 139.487 435.759 131.232 425.575 131.232C415.391 131.232 407.136 139.487 407.136 149.671C407.136 159.854 415.391 168.11 425.575 168.11Z" stroke="#003B2F" stroke-width="3.16076" stroke-linecap="round" stroke-linejoin="round"/><path d="M435.668 744.124L416.821 725.277L397.974 744.124L416.821 762.971L435.668 744.124Z" stroke="#003B2F" stroke-width="3.16076" stroke-linecap="round" stroke-linejoin="round"/><path d="M703.118 790.825L725.052 803.496" stroke="#003B2F" stroke-width="3.16076" stroke-linecap="round" stroke-linejoin="round"/><path d="M747.074 790.825L734.141 798.253" stroke="#003B2F" stroke-width="3.16076" stroke-linecap="round" stroke-linejoin="round"/><path d="M725.053 803.497V829.102" stroke="#003B2F" stroke-width="3.16076" stroke-linecap="round" stroke-linejoin="round"/><path d="M151.011 870.673H309.972" stroke="#03FC9D" stroke-width="3.16076" stroke-linecap="round" stroke-linejoin="round"/><path d="M275.366 905.716H397.974" stroke="#003B2F" stroke-width="3.16076" stroke-linecap="round" stroke-linejoin="round"/><path d="M1590.82 301.29H1621.14" stroke="#003B2F" stroke-width="3.16076" stroke-linecap="round" stroke-linejoin="round"/><path d="M1464.01 233.388H1683.36" stroke="#03FC9D" stroke-width="3.16076" stroke-linecap="round" stroke-linejoin="round"/><path d="M1660.29 301.203H1782.9" stroke="#003B2F" stroke-width="3.16076" stroke-linecap="round" stroke-linejoin="round"/><path d="M1801.93 818.374H1758.63C1772.27 818.374 1783.52 807.267 1783.52 793.489C1783.52 779.711 1772.41 768.604 1758.63 768.604H1634.21C1620.57 768.604 1609.32 779.711 1609.32 793.489H1571.08C1557.45 793.489 1546.2 804.596 1546.2 818.374C1546.2 832.152 1557.31 843.259 1571.08 843.259H1652.63C1652.63 856.896 1663.73 868.143 1677.51 868.143H1801.93C1815.57 868.143 1826.82 857.037 1826.82 843.259C1826.82 829.481 1815.71 818.374 1801.93 818.374Z" fill="#E6E8EA"/><path d="M1458.75 901.885H1675.12C1698.96 901.885 1718.28 882.561 1718.28 858.723C1718.28 834.886 1698.96 815.562 1675.12 815.562H1458.75C1434.91 815.562 1415.59 834.886 1415.59 858.723C1415.59 882.561 1434.91 901.885 1458.75 901.885Z" fill="#03FC9D"/><path d="M1520.12 885.08L1543.46 908.419" stroke="#003B2F" stroke-width="3.16076" stroke-linecap="round" stroke-linejoin="round"/><path d="M1560.47 925.43L1583.81 948.768" stroke="#003B2F" stroke-width="3.16076" stroke-linecap="round" stroke-linejoin="round"/><path d="M1520.12 948.768L1543.46 925.43" stroke="#003B2F" stroke-width="3.16076" stroke-linecap="round" stroke-linejoin="round"/><path d="M1560.47 908.419L1583.81 885.08" stroke="#003B2F" stroke-width="3.16076" stroke-linecap="round" stroke-linejoin="round"/><path d="M1476.7 577.939H1538.05" stroke="#003B2F" stroke-width="3.16076" stroke-linecap="round" stroke-linejoin="round"/><path d="M1430.12 577.939H1445.59" stroke="#003B2F" stroke-width="3.16076" stroke-linecap="round" stroke-linejoin="round"/><path d="M1442.92 612.007H1662.27" stroke="#03FC9D" stroke-width="3.16076" stroke-linecap="round" stroke-linejoin="round"/></svg>