<svg width="1920" height="1081" viewBox="0 0 1920 1081" fill="none" xmlns="http://www.w3.org/2000/svg"><path d="M1780.29 606.827H197.401V670.095H1780.29V606.827Z" fill="#03FC9D"/><path d="M658.991 678.74L810.92 916.704H507.171L658.991 678.74Z" fill="#03FC9D"/><path d="M676.941 687.169L828.76 925.133H525.121L676.941 687.169Z" stroke="#003B2F" stroke-width="3.39219" stroke-linecap="round" stroke-linejoin="round"/><path d="M1792.77 619.853H209.878V683.12H1792.77V619.853Z" stroke="#003B2F" stroke-width="3.39219" stroke-linecap="round" stroke-linejoin="round"/><path d="M486.592 591.283C486.592 591.283 499.837 483.247 434.052 429.831C433.067 428.955 432.082 428.189 430.987 427.423C444.341 416.915 461.745 401.59 466.89 389.988C479.259 373.022 458.68 370.942 452.332 370.614C447.734 370.395 446.749 369.738 442.809 361.528C440.62 356.931 435.365 354.195 430.659 353.1C430.33 353.1 430.002 352.991 429.564 352.881C428.36 352.662 427.266 352.553 426.28 352.553C423.325 352.334 419.713 352.115 417.305 352.115C414.787 352.115 412.27 350.692 410.409 349.269C409.752 348.831 409.205 348.284 408.657 347.627C408.11 347.08 407.563 346.642 407.016 346.095C404.498 344.015 400.995 342.045 396.179 340.95C387.532 338.98 381.731 343.249 378.666 346.751C374.397 351.568 368.595 354.961 362.247 355.508C360.167 355.727 357.868 355.727 355.351 355.508C345.39 354.851 342.435 358.464 341.778 361.966C341.231 364.593 338.932 366.454 336.196 366.126C331.379 365.469 324.155 365.907 316.165 370.942C302.701 379.261 334.444 412.427 351.191 428.517C350.644 428.955 350.206 429.393 349.659 429.831C283.874 483.247 297.119 591.283 297.119 591.283C283.436 610.438 283.874 632.768 283.874 632.768C314.194 638.35 335.101 634.957 335.101 634.957C343.201 638.35 352.067 640.43 360.605 641.525C360.605 641.525 384.576 646.341 420.041 641.853C429.564 640.759 439.634 638.679 448.719 634.848C448.719 634.848 469.626 638.241 499.946 632.659C499.946 632.659 500.384 610.438 486.702 591.174L486.592 591.283Z" fill="#03FC9D" stroke="#003B2F" stroke-width="3.39219" stroke-linecap="round" stroke-linejoin="round"/><path d="M345.171 385.611L358.415 423.813" stroke="#003B2F" stroke-width="3.39219" stroke-linecap="round" stroke-linejoin="round"/><path d="M433.613 388.457L427.046 423.813" stroke="#003B2F" stroke-width="3.39219" stroke-linecap="round" stroke-linejoin="round"/><path d="M379.103 423.812C379.103 423.812 378.118 384.406 380.416 373.57" stroke="#003B2F" stroke-width="3.39219" stroke-linecap="round" stroke-linejoin="round"/><path d="M408.548 397.76C408.548 397.76 409.862 422.826 409.424 423.811" stroke="#003B2F" stroke-width="3.39219" stroke-linecap="round" stroke-linejoin="round"/><path d="M407.455 429.721C407.455 429.721 407.126 440.667 414.46 457.195" stroke="#003B2F" stroke-width="3.39219" stroke-linecap="round" stroke-linejoin="round"/><path d="M427.375 429.721C427.375 429.721 428.25 437.821 435.256 449.423" stroke="#003B2F" stroke-width="3.39219" stroke-linecap="round" stroke-linejoin="round"/><path d="M378.446 429.721C378.446 429.721 378.118 434.975 369.58 451.613" stroke="#003B2F" stroke-width="3.39219" stroke-linecap="round" stroke-linejoin="round"/><path d="M359.402 429.721C359.402 429.721 353.491 445.483 340.794 454.787" stroke="#003B2F" stroke-width="3.39219" stroke-linecap="round" stroke-linejoin="round"/><path d="M436.461 423.045H346.924C343.78 423.045 341.232 425.594 341.232 428.737V428.847C341.232 431.99 343.78 434.539 346.924 434.539H436.461C439.605 434.539 442.153 431.99 442.153 428.847V428.737C442.153 425.594 439.605 423.045 436.461 423.045Z" fill="#003B2F"/><path d="M1706.62 564.138C1706.62 564.138 1727.86 390.536 1622.23 304.829C1620.7 303.406 1619.06 302.093 1617.3 300.889C1638.76 284.032 1666.78 259.404 1674.99 240.686C1694.91 213.431 1661.74 210.147 1651.56 209.6C1644.23 209.162 1642.59 208.177 1636.35 194.932C1632.85 187.489 1624.42 183.22 1616.76 181.359C1616.32 181.25 1615.66 181.14 1615.01 181.031C1613.14 180.703 1611.39 180.484 1609.64 180.484C1604.94 180.155 1599.13 179.827 1595.3 179.717C1591.25 179.608 1587.31 177.419 1584.25 175.12C1583.15 174.354 1582.28 173.478 1581.4 172.493C1580.64 171.727 1579.65 170.851 1578.77 170.085C1574.61 166.692 1569.03 163.518 1561.37 161.766C1547.47 158.592 1538.27 165.488 1533.35 171.07C1526.45 178.842 1517.26 184.205 1506.86 185.19C1503.58 185.519 1499.85 185.628 1495.8 185.3C1479.82 184.205 1475.01 190.116 1473.91 195.699C1473.15 199.967 1469.32 202.923 1464.94 202.376C1457.27 201.39 1445.67 202.047 1432.76 210.038C1411.08 223.392 1462.09 276.698 1489.02 302.531C1488.14 303.187 1487.38 303.844 1486.61 304.61C1380.98 390.317 1402.22 563.919 1402.22 563.919C1380.22 594.677 1380.98 630.47 1380.98 630.47C1429.69 639.446 1463.3 633.863 1463.3 633.863C1476.32 639.336 1490.55 642.62 1504.34 644.481C1504.34 644.481 1542.76 652.143 1599.79 645.137C1615.01 643.386 1631.21 640.102 1645.76 633.973C1645.76 633.973 1679.37 639.446 1728.08 630.579C1728.08 630.579 1728.84 594.786 1706.84 564.028L1706.62 564.138Z" fill="#03FC9D" stroke="#003B2F" stroke-width="3.39219" stroke-linecap="round" stroke-linejoin="round"/><path d="M1479.49 233.681L1500.62 295.087" stroke="#003B2F" stroke-width="3.39219" stroke-linecap="round" stroke-linejoin="round"/><path d="M1621.57 238.387L1610.85 295.087" stroke="#003B2F" stroke-width="3.39219" stroke-linecap="round" stroke-linejoin="round"/><path d="M1534 295.087C1534 295.087 1532.36 231.82 1536.08 214.416" stroke="#003B2F" stroke-width="3.39219" stroke-linecap="round" stroke-linejoin="round"/><path d="M1581.18 253.274C1581.18 253.274 1583.26 293.665 1582.61 295.088" stroke="#003B2F" stroke-width="3.39219" stroke-linecap="round" stroke-linejoin="round"/><path d="M1579.43 304.61C1579.43 304.61 1578.99 322.124 1590.71 348.722" stroke="#003B2F" stroke-width="3.39219" stroke-linecap="round" stroke-linejoin="round"/><path d="M1611.39 304.61C1611.39 304.61 1612.71 317.636 1623.98 336.353" stroke="#003B2F" stroke-width="3.39219" stroke-linecap="round" stroke-linejoin="round"/><path d="M1532.91 304.61C1532.91 304.61 1532.36 313.038 1518.68 339.746" stroke="#003B2F" stroke-width="3.39219" stroke-linecap="round" stroke-linejoin="round"/><path d="M1502.37 304.61C1502.37 304.61 1492.85 330.005 1472.38 345.001" stroke="#003B2F" stroke-width="3.39219" stroke-linecap="round" stroke-linejoin="round"/><path d="M1626.28 293.774H1482.34C1477.32 293.774 1473.26 297.841 1473.26 302.859V303.078C1473.26 308.096 1477.32 312.163 1482.34 312.163H1626.28C1631.3 312.163 1635.37 308.096 1635.37 303.078V302.859C1635.37 297.841 1631.3 293.774 1626.28 293.774Z" fill="#003B2F"/><path d="M1387.11 608.687C1370.69 617.882 1354.49 621.166 1347.27 617.444C1345.95 616.787 1344.97 615.802 1344.31 614.707C1340.04 607.155 1352.41 592.268 1371.79 581.322C1391.16 570.486 1410.43 567.749 1414.69 575.302L1415.13 576.287C1415.57 577.491 1415.68 578.914 1415.35 580.556C1413.82 588.656 1402.87 599.93 1387.22 608.797L1387.11 608.687Z" fill="#E3E7E3"/><path d="M1415.13 576.288L1418.31 583.293C1422.57 590.846 1410.21 605.732 1390.83 616.678C1371.46 627.624 1352.19 630.251 1347.92 622.699L1347.49 621.713L1344.31 614.708C1344.97 615.912 1345.95 616.788 1347.27 617.445C1354.49 621.166 1370.69 617.882 1387.11 608.688C1402.76 599.931 1413.71 588.547 1415.24 580.447C1415.57 578.915 1415.46 577.492 1415.02 576.178L1415.13 576.288Z" fill="#9FB4AD"/><path d="M1415.13 576.288L1418.31 583.293C1422.57 590.846 1410.21 605.733 1390.83 616.679C1371.46 627.624 1352.19 630.251 1347.92 622.699L1347.49 621.714L1344.31 614.708" stroke="#003B2F" stroke-width="2.26146" stroke-linecap="round" stroke-linejoin="round"/><path d="M1415.13 576.288C1415.57 577.492 1415.68 578.915 1415.35 580.557C1413.82 588.657 1402.87 599.931 1387.22 608.797C1370.8 617.992 1354.6 621.276 1347.38 617.554C1346.06 616.897 1345.08 615.912 1344.42 614.818" stroke="#003B2F" stroke-width="2.26146" stroke-linecap="round" stroke-linejoin="round"/><path d="M1347.27 617.444C1345.95 616.787 1344.97 615.911 1344.31 614.707C1340.04 607.155 1352.41 592.159 1371.79 581.322C1391.16 570.486 1410.43 567.749 1414.69 575.302L1415.13 576.287C1415.57 577.491 1415.68 579.024 1415.35 580.556C1413.82 588.547 1402.87 599.93 1387.22 608.687C1370.8 617.882 1354.6 621.166 1347.38 617.444H1347.27Z" stroke="#003B2F" stroke-width="2.26146" stroke-linecap="round" stroke-linejoin="round"/><path d="M1346.5 611.423C1346.5 605.403 1355.81 593.8 1373.32 583.949C1382.41 578.914 1391.6 575.52 1399.37 574.426C1405.83 573.55 1410.65 574.426 1412.07 576.834L1412.4 577.6C1412.4 577.6 1412.51 578.257 1412.51 578.695C1412.51 579.133 1412.51 579.57 1412.4 580.008C1411.3 586.029 1402.44 596.756 1385.8 606.169C1368.94 615.582 1354.27 617.662 1348.8 614.926C1347.93 614.488 1347.38 614.05 1347.05 613.393C1346.72 612.846 1346.61 612.299 1346.61 611.533L1346.5 611.423Z" stroke="#003B2F" stroke-width="2.26146" stroke-linecap="round" stroke-linejoin="round"/><path fill-rule="evenodd" clip-rule="evenodd" d="M1387.77 580.446L1395.54 591.611L1389.85 595.552L1382.08 584.387L1387.77 580.446ZM1376.71 598.179L1361.94 608.468L1360.29 606.06L1375.07 595.771L1376.71 598.179Z" fill="#003B2F"/><path fill-rule="evenodd" clip-rule="evenodd" d="M1382.08 592.706C1379.34 588.765 1375.4 586.686 1373.32 588.218C1371.24 589.751 1371.79 594.129 1374.52 598.069C1377.26 602.01 1381.2 603.98 1383.28 602.557C1385.36 601.134 1384.81 596.646 1382.08 592.706ZM1376.38 596.647C1373.65 592.706 1372.55 589.313 1373.54 588.547C1374.52 587.78 1378.35 589.313 1381.09 593.363C1383.83 597.303 1384.05 601.353 1382.95 602.119C1381.86 602.886 1379.12 600.696 1376.27 596.647H1376.38Z" fill="#003B2F"/><path fill-rule="evenodd" clip-rule="evenodd" d="M1386.78 591.283L1378.25 597.303L1376.6 594.895L1385.14 588.875L1386.78 591.283Z" fill="#003B2F"/><path d="M1308.08 633.533L1308.41 648.966C1308.41 649.952 1308.96 650.937 1309.83 651.484C1313.66 653.783 1326.36 659.365 1360.29 659.037C1394.99 658.818 1408.68 652.36 1412.73 649.842C1413.6 649.295 1414.04 648.419 1414.04 647.434V631.234" fill="#9FB4AD"/><path d="M1308.08 633.533L1308.41 648.966C1308.41 649.952 1308.96 650.937 1309.83 651.484C1313.66 653.783 1326.36 659.365 1360.29 659.037C1394.99 658.818 1408.68 652.36 1412.73 649.842C1413.6 649.295 1414.04 648.419 1414.04 647.434V631.234" stroke="#003B2F" stroke-width="2.26146" stroke-miterlimit="10"/><path d="M1361.39 621.384C1331.94 621.384 1308.08 626.857 1308.08 633.643C1308.08 634.081 1308.08 634.519 1308.41 634.957C1308.85 635.942 1309.83 636.927 1311.26 637.803C1318.7 642.509 1338.29 645.903 1361.39 645.903C1384.48 645.903 1404.41 642.509 1411.63 637.693C1413.6 636.38 1414.7 635.066 1414.7 633.643C1414.7 626.857 1390.83 621.384 1361.39 621.384Z" fill="#E3E7E3" stroke="#003B2F" stroke-width="2.26146" stroke-miterlimit="10"/><path d="M1361.28 624.559C1336.76 624.559 1316.73 629.046 1316.73 633.753C1316.73 638.46 1336.65 642.182 1361.06 642.182C1385.47 642.182 1405.39 638.35 1405.39 633.753C1405.39 629.156 1385.69 624.559 1361.17 624.559H1361.28Z" stroke="#003B2F" stroke-width="2.26146" stroke-linecap="round" stroke-linejoin="round"/><path d="M1365.77 639.555C1364.78 639.555 1364.02 639.336 1364.02 639.117V637.694C1362.16 637.694 1360.19 637.694 1358.32 637.694V639.117C1358.32 639.117 1357.45 639.555 1356.46 639.555C1355.48 639.555 1354.71 639.336 1354.71 639.117V637.475C1352.41 637.256 1350.22 636.818 1348.36 636.38C1341.25 634.629 1341.36 631.892 1348.36 630.36C1350.22 629.922 1352.41 629.703 1354.71 629.484V627.733C1354.71 627.733 1355.59 627.295 1356.57 627.295C1357.56 627.295 1358.32 627.514 1358.32 627.733V629.156C1360.19 629.156 1362.16 629.156 1364.02 629.156V627.733C1364.02 627.733 1364.89 627.295 1365.88 627.295C1366.86 627.295 1367.63 627.514 1367.63 627.733V629.375C1370.04 629.594 1372.34 630.032 1374.31 630.469C1374.96 630.688 1374.96 630.907 1374.31 631.017C1373.65 631.126 1372.44 631.126 1371.79 631.017C1370.58 630.688 1369.16 630.469 1367.63 630.251V631.674C1367.63 631.674 1366.75 632.111 1365.77 632.111C1364.78 632.111 1364.02 631.892 1364.02 631.674V630.032C1362.16 629.922 1360.19 629.922 1358.32 630.032V631.674C1358.32 631.674 1357.45 632.111 1356.46 632.111C1355.48 632.111 1354.71 631.892 1354.71 631.674V630.36C1353.29 630.47 1352.09 630.688 1350.88 630.907C1345.08 632.111 1345.08 634.301 1350.88 635.833C1351.98 636.161 1353.29 636.38 1354.71 636.49V635.067C1354.71 635.067 1355.59 634.629 1356.57 634.629C1357.56 634.629 1358.32 634.848 1358.32 635.067V636.709C1360.19 636.818 1362.16 636.818 1364.02 636.709V635.067C1364.02 635.067 1364.89 634.629 1365.88 634.629C1366.86 634.629 1367.63 634.848 1367.63 635.067V636.49C1369.16 636.38 1370.47 636.161 1371.79 635.833C1372.44 635.724 1373.65 635.724 1374.31 635.833C1374.96 636.052 1374.96 636.271 1374.31 636.38C1372.34 636.818 1370.04 637.146 1367.63 637.256V638.898C1367.63 638.898 1366.75 639.336 1365.77 639.336V639.555Z" fill="#003B2F"/><path d="M1476.51 626.832C1489.63 607.753 1484.8 581.653 1465.72 568.535C1446.64 555.418 1420.54 560.25 1407.42 579.329C1394.31 598.408 1399.14 624.509 1418.22 637.626C1437.3 650.744 1463.4 645.911 1476.51 626.832Z" fill="#9FB4AD" stroke="#003B2F" stroke-width="2.26146" stroke-miterlimit="10"/><path d="M1445.34 643.496C1468.5 643.496 1487.27 624.726 1487.27 601.573C1487.27 578.42 1468.5 559.65 1445.34 559.65C1422.19 559.65 1403.42 578.42 1403.42 601.573C1403.42 624.726 1422.19 643.496 1445.34 643.496Z" fill="#E3E7E3" stroke="#003B2F" stroke-width="2.26146" stroke-linecap="round" stroke-linejoin="round"/><path d="M1431.88 637.585C1422.36 633.973 1414.8 626.749 1410.75 617.445C1406.6 608.141 1406.38 597.742 1409.99 588.219C1413.6 578.696 1420.82 571.144 1430.13 567.094C1439.43 562.934 1449.83 562.715 1459.35 566.327C1468.88 569.94 1476.43 577.164 1480.48 586.468C1484.64 595.772 1484.86 606.171 1481.25 615.693C1477.63 625.216 1470.41 632.769 1461.11 636.819C1451.8 640.978 1441.4 641.197 1431.88 637.585Z" stroke="#003B2F" stroke-width="2.26146" stroke-linecap="round" stroke-linejoin="round"/><path d="M1463.95 594.458C1464.17 588.876 1459.35 586.468 1453.01 585.154L1454.21 577.492L1449.18 576.945L1447.97 584.388C1446.66 584.169 1445.23 584.06 1444.03 583.95L1445.23 576.397L1440.2 575.85L1439 583.512C1438.01 583.403 1436.81 583.293 1435.71 583.184L1428.71 582.308L1427.94 587.234C1427.94 587.234 1431.66 587.562 1431.55 587.672C1433.63 588 1434.07 589.095 1434.18 590.08L1432.87 598.727L1431.01 610.986C1431.01 611.643 1430.35 612.519 1428.93 612.3L1425.31 611.862L1423.45 617.335L1430.02 618.101C1431.22 618.32 1432.43 618.43 1433.52 618.539L1432.32 626.311L1437.35 626.858L1438.56 619.196C1439.87 619.415 1441.29 619.634 1442.5 619.743L1441.29 627.405L1446.33 627.953L1447.53 620.181C1456.07 620.728 1462.31 619.415 1464.17 612.191C1465.7 606.28 1463.08 603.324 1458.48 601.682C1461.65 600.697 1463.73 598.399 1463.95 594.349V594.458ZM1454.43 610.22C1453.55 616.022 1442.94 614.161 1439.54 613.723L1441.18 603.434C1444.58 603.872 1455.41 604.2 1454.43 610.22ZM1454.32 595.443C1453.44 600.697 1444.69 599.055 1441.84 598.727L1443.26 589.423C1446.11 589.751 1455.2 589.97 1454.32 595.443Z" fill="#003B2F"/><path d="M252.569 627.298L252.788 642.513C252.788 643.717 253.445 644.702 254.43 645.359C258.48 647.767 271.396 653.13 305 652.802C339.26 652.583 353.162 646.344 357.431 643.826C358.416 643.279 359.073 642.184 359.073 641.09V627.736" fill="#9FB4AD"/><path d="M252.569 627.298L252.788 642.513C252.788 643.717 253.445 644.702 254.43 645.359C258.48 647.767 271.396 653.13 305 652.802C339.26 652.583 353.162 646.344 357.431 643.826C358.416 643.279 359.073 642.184 359.073 641.09V627.736" stroke="#003B2F" stroke-width="2.26146" stroke-miterlimit="10"/><path d="M305.875 615.037C276.431 615.037 252.569 620.51 252.569 627.297C252.569 627.735 252.569 628.172 252.897 628.61C253.335 629.595 254.32 630.581 255.743 631.456C263.186 636.163 282.78 639.556 305.875 639.556C328.971 639.556 348.893 636.163 356.117 631.347C358.087 630.033 359.182 628.72 359.182 627.297C359.182 620.51 335.32 615.037 305.875 615.037Z" fill="#E3E7E3" stroke="#003B2F" stroke-width="2.26146" stroke-miterlimit="10"/><path d="M305.767 618.322C281.248 618.322 261.217 622.809 261.217 627.516C261.217 632.223 281.138 635.944 305.548 635.944C329.957 635.944 349.879 632.113 349.879 627.516C349.879 622.919 330.176 618.322 305.657 618.322H305.767Z" stroke="#003B2F" stroke-width="2.26146" stroke-linecap="round" stroke-linejoin="round"/><path d="M310.254 633.208C309.269 633.208 308.503 632.989 308.503 632.77V631.347C306.642 631.347 304.672 631.347 302.811 631.347V632.77C302.811 632.77 301.935 633.208 300.95 633.208C299.965 633.208 299.199 632.989 299.199 632.77V631.128C296.9 630.909 294.711 630.471 292.85 630.034C285.735 628.282 285.845 625.546 292.85 624.013C294.711 623.575 296.9 623.357 299.199 623.138V621.386C299.199 621.386 300.075 620.948 301.06 620.948C302.045 620.948 302.811 621.167 302.811 621.386V622.809C304.672 622.809 306.642 622.809 308.503 622.809V621.386C308.503 621.386 309.379 620.948 310.364 620.948C311.349 620.948 312.115 621.167 312.115 621.386V623.028C314.523 623.247 316.822 623.685 318.792 624.123C319.449 624.342 319.449 624.561 318.792 624.67C318.135 624.78 316.931 624.78 316.275 624.67C315.071 624.342 313.648 624.123 312.115 623.904V625.327C312.115 625.327 311.239 625.765 310.254 625.765C309.269 625.765 308.503 625.546 308.503 625.327V623.685C306.642 623.576 304.672 623.576 302.811 623.685V625.327C302.811 625.327 301.935 625.765 300.95 625.765C299.965 625.765 299.199 625.546 299.199 625.327V624.013C297.776 624.123 296.572 624.342 295.368 624.561C289.567 625.765 289.567 627.954 295.368 629.486C296.462 629.815 297.776 630.034 299.199 630.143V628.72C299.199 628.72 300.075 628.282 301.06 628.282C302.045 628.282 302.811 628.501 302.811 628.72V630.362C304.672 630.471 306.642 630.471 308.503 630.362V628.72C308.503 628.72 309.379 628.282 310.364 628.282C311.349 628.282 312.115 628.501 312.115 628.72V630.143C313.648 630.034 314.961 629.815 316.275 629.486C316.931 629.377 318.135 629.377 318.792 629.486C319.449 629.705 319.449 629.924 318.792 630.034C316.822 630.471 314.523 630.8 312.115 630.909V632.551C312.115 632.551 311.239 632.989 310.254 632.989V633.208Z" fill="#003B2F"/><path d="M1649.82 630.954L1650.58 645.95C1650.58 647.263 1651.35 648.358 1652.44 649.015C1656.71 651.423 1669.52 656.677 1702.36 656.349C1735.63 656.13 1749.42 650.109 1754.02 647.482C1755.11 646.826 1755.88 645.622 1755.88 644.308V630.735" fill="#9FB4AD"/><path d="M1649.82 630.954L1650.58 645.95C1650.58 647.263 1651.35 648.358 1652.44 649.015C1656.71 651.423 1669.52 656.677 1702.36 656.349C1735.63 656.13 1749.42 650.109 1754.02 647.482C1755.11 646.826 1755.88 645.622 1755.88 644.308V630.735" stroke="#003B2F" stroke-width="2.26146" stroke-miterlimit="10"/><path d="M1703.01 618.693C1673.57 618.693 1649.71 624.166 1649.71 630.953C1649.71 631.391 1649.71 631.828 1650.03 632.266C1650.47 633.251 1651.46 634.237 1652.88 635.112C1660.32 639.819 1679.92 643.212 1703.01 643.212C1726.11 643.212 1746.03 639.819 1753.25 635.003C1755.22 633.689 1756.32 632.376 1756.32 630.953C1756.32 624.166 1732.46 618.693 1703.01 618.693Z" fill="#E3E7E3" stroke="#003B2F" stroke-width="2.26146" stroke-miterlimit="10"/><path d="M1703.01 621.978C1678.49 621.978 1658.46 626.466 1658.46 631.172C1658.46 635.879 1678.38 639.601 1702.79 639.601C1727.2 639.601 1747.12 635.77 1747.12 631.172C1747.12 626.575 1727.42 621.978 1702.9 621.978H1703.01Z" stroke="#003B2F" stroke-width="2.26146" stroke-linecap="round" stroke-linejoin="round"/><path d="M1726.11 630.405L1708.81 630.186L1705.75 623.728L1726.11 630.405ZM1708.81 630.186H1693.82L1705.75 623.728L1708.81 630.186ZM1691.08 629.967H1679.37L1703.01 623.619L1691.08 629.967ZM1726.11 630.296L1708.81 630.077L1698.85 636.425L1726.22 630.296H1726.11ZM1708.81 630.077H1693.82L1698.85 636.425L1708.81 630.077ZM1691.08 629.858H1679.37L1696.12 636.316L1691.08 629.858Z" fill="#003B2F"/><path d="M267.454 612.848L268.22 627.844C268.22 629.158 268.986 630.252 270.081 630.909C274.35 633.317 287.156 638.571 319.994 638.243C353.27 638.024 367.062 632.004 371.659 629.377C372.753 628.72 373.52 627.516 373.52 626.202V612.629" fill="#9FB4AD"/><path d="M267.454 612.848L268.22 627.844C268.22 629.158 268.986 630.252 270.081 630.909C274.35 633.317 287.156 638.571 319.994 638.243C353.27 638.024 367.062 632.004 371.659 629.377C372.753 628.72 373.52 627.516 373.52 626.202V612.629" stroke="#003B2F" stroke-width="2.26146" stroke-miterlimit="10"/><path d="M320.76 600.697C291.316 600.697 267.454 606.17 267.454 612.957C267.454 613.395 267.454 613.832 267.782 614.27C268.22 615.255 269.205 616.24 270.628 617.116C278.071 621.823 297.665 625.216 320.76 625.216C343.856 625.216 363.778 621.823 371.002 617.007C372.972 615.693 374.067 614.38 374.067 612.957C374.067 606.17 350.205 600.697 320.76 600.697Z" fill="#E3E7E3" stroke="#003B2F" stroke-width="2.26146" stroke-miterlimit="10"/><path d="M320.651 603.872C296.132 603.872 276.101 608.36 276.101 613.067C276.101 617.773 296.023 621.495 320.432 621.495C344.842 621.495 364.763 617.664 364.763 613.067C364.763 608.469 345.061 603.872 320.542 603.872H320.651Z" stroke="#003B2F" stroke-width="2.26146" stroke-linecap="round" stroke-linejoin="round"/><path d="M304.124 615.912L310.144 614.16C311.129 613.832 312.114 613.613 313.099 613.285C315.836 612.519 316.055 611.205 313.428 610.439C313.428 610.439 313.209 610.439 313.099 610.439C310.253 609.563 307.407 608.688 304.452 607.812H304.233V606.061C304.233 606.061 304.452 606.061 304.561 606.061C308.393 607.155 312.114 608.359 315.945 609.454C318.134 610.111 319.338 610.986 319.229 611.862C319.229 612.628 318.134 613.394 316.164 613.942C312.224 615.146 308.174 616.24 304.233 617.444H304.014V615.912H304.124Z" fill="#003B2F"/><path d="M336.962 617.663C336.414 617.444 335.867 617.335 335.21 617.116C331.927 616.131 328.752 615.146 325.359 614.161C323.17 613.504 321.966 612.628 322.075 611.753C322.075 610.986 323.17 610.22 325.031 609.673C329.081 608.469 333.021 607.374 337.181 606.17H337.399V607.703C337.399 607.703 337.399 607.812 337.071 607.922C334.116 608.797 331.16 609.673 328.205 610.549C325.578 611.315 325.468 612.628 328.205 613.394C331.051 614.27 334.006 615.146 336.962 616.021C337.181 616.021 337.29 616.131 337.29 616.24V617.663L336.962 617.773V617.663Z" fill="#003B2F"/><path d="M1419.08 636.272L1419.4 650.939C1419.4 652.581 1420.28 654.004 1421.7 654.661C1426.41 657.179 1439.76 661.995 1471.62 661.776C1507.41 661.557 1520.98 654.771 1524.59 652.472C1525.25 652.034 1525.69 651.268 1525.69 650.502V636.381" fill="#9FB4AD"/><path d="M1419.08 636.272L1419.4 650.939C1419.4 652.581 1420.28 654.004 1421.7 654.661C1426.41 657.179 1439.76 661.995 1471.62 661.776C1507.41 661.557 1520.98 654.771 1524.59 652.472C1525.25 652.034 1525.69 651.268 1525.69 650.502V636.381" stroke="#003B2F" stroke-width="2.26146" stroke-miterlimit="10"/><path d="M1472.38 624.121C1442.94 624.121 1419.08 629.594 1419.08 636.38C1419.08 636.818 1419.08 637.256 1419.4 637.694C1419.84 638.679 1420.83 639.664 1422.25 640.54C1429.69 645.246 1449.29 648.64 1472.38 648.64C1495.48 648.64 1515.4 645.246 1522.62 640.43C1524.59 639.117 1525.69 637.803 1525.69 636.38C1525.69 629.594 1501.83 624.121 1472.38 624.121Z" fill="#E3E7E3" stroke="#003B2F" stroke-width="2.26146" stroke-miterlimit="10"/><path d="M1472.27 627.296C1447.75 627.296 1427.72 631.783 1427.72 636.49C1427.72 641.197 1447.64 644.919 1472.05 644.919C1496.46 644.919 1516.38 641.087 1516.38 636.49C1516.38 631.893 1496.68 627.296 1472.16 627.296H1472.27Z" stroke="#003B2F" stroke-width="2.26146" stroke-linecap="round" stroke-linejoin="round"/><path fill-rule="evenodd" clip-rule="evenodd" d="M1454.98 631.344H1487.6V633.096H1454.98V631.344ZM1474.79 636.27V640.867H1467.78V636.27H1474.79Z" fill="#003B2F"/><path fill-rule="evenodd" clip-rule="evenodd" d="M1471.29 634.3C1459.69 634.3 1450.38 634.847 1450.38 635.504C1450.38 636.161 1459.8 636.708 1471.29 636.708C1482.78 636.708 1492.19 636.161 1492.19 635.504C1492.19 634.847 1482.78 634.3 1471.29 634.3ZM1471.29 636.051C1459.69 636.051 1451.48 635.832 1451.48 635.504C1451.48 635.175 1459.69 634.628 1471.29 634.628C1482.89 634.628 1491.1 635.175 1491.1 635.504C1491.1 635.832 1482.89 636.051 1471.29 636.051Z" fill="#003B2F"/><path fill-rule="evenodd" clip-rule="evenodd" d="M1474.68 633.204V635.831H1467.68V633.204H1474.68Z" fill="#003B2F"/><path d="M1341.58 623.682L1342.45 639.335C1342.45 640.758 1343.22 641.962 1344.42 642.619C1348.91 645.136 1362.48 650.609 1396.96 650.281C1432.43 650.062 1446.99 643.604 1451.58 640.868C1452.68 640.211 1453.34 639.116 1453.34 637.803V623.573" fill="#9FB4AD"/><path d="M1341.58 623.682L1342.45 639.335C1342.45 640.758 1343.22 641.962 1344.42 642.619C1348.91 645.136 1362.48 650.609 1396.96 650.281C1432.43 650.062 1446.99 643.604 1451.58 640.868C1452.68 640.211 1453.34 639.116 1453.34 637.803V623.573" stroke="#003B2F" stroke-width="2.26146" stroke-miterlimit="10"/><path d="M1397.4 610.877C1366.53 610.877 1341.58 616.569 1341.58 623.683C1341.58 624.121 1341.58 624.669 1341.91 625.106C1342.34 626.092 1343.44 627.186 1344.86 628.062C1352.63 632.987 1373.21 636.49 1397.4 636.49C1421.59 636.49 1442.5 632.878 1450.16 627.952C1452.24 626.639 1453.33 625.216 1453.33 623.683C1453.33 616.569 1428.27 610.877 1397.51 610.877H1397.4Z" fill="#E3E7E3" stroke="#003B2F" stroke-width="2.26146" stroke-miterlimit="10"/><path d="M1397.4 614.271C1371.68 614.271 1350.66 618.977 1350.66 623.903C1350.66 628.829 1371.46 632.769 1397.18 632.769C1422.91 632.769 1443.7 628.829 1443.7 623.903C1443.7 618.977 1423.13 614.271 1397.4 614.271Z" stroke="#003B2F" stroke-width="2.26146" stroke-linecap="round" stroke-linejoin="round"/><path fill-rule="evenodd" clip-rule="evenodd" d="M1385.91 625.435L1383.06 625.873L1384.49 623.793L1387.33 623.356L1391.49 616.897H1401.89L1398.82 621.714L1401.67 621.276L1400.25 623.356L1397.4 623.793L1395.65 626.53H1411.3L1409.44 629.266H1383.39L1385.8 625.545L1385.91 625.435Z" fill="#003B2F"/><path d="M407.452 628.06L407.781 643.494C407.781 644.479 408.328 645.464 409.204 646.011C413.035 648.31 425.732 653.892 459.664 653.564C494.363 653.345 508.045 646.887 512.095 644.37C512.971 643.822 513.409 642.947 513.409 641.961V625.761" fill="#9FB4AD"/><path d="M407.452 628.06L407.781 643.494C407.781 644.479 408.328 645.464 409.204 646.011C413.035 648.31 425.732 653.892 459.664 653.564C494.363 653.345 508.045 646.887 512.095 644.37C512.971 643.822 513.409 642.947 513.409 641.961V625.761" stroke="#003B2F" stroke-width="2.26146" stroke-miterlimit="10"/><path d="M460.759 615.802C431.315 615.802 407.453 621.274 407.453 628.061C407.453 628.499 407.453 628.937 407.781 629.374C408.219 630.36 409.204 631.345 410.627 632.22C418.07 636.927 437.663 640.32 460.759 640.32C483.855 640.32 503.777 636.927 511.001 632.111C512.971 630.797 514.066 629.484 514.066 628.061C514.066 621.274 490.204 615.802 460.759 615.802Z" fill="#E3E7E3" stroke="#003B2F" stroke-width="2.26146" stroke-miterlimit="10"/><path d="M460.65 618.977C436.131 618.977 416.1 623.464 416.1 628.171C416.1 632.878 436.022 636.599 460.431 636.599C484.84 636.599 504.762 632.768 504.762 628.171C504.762 623.574 485.059 618.977 460.54 618.977H460.65Z" stroke="#003B2F" stroke-width="2.26146" stroke-linecap="round" stroke-linejoin="round"/><path fill-rule="evenodd" clip-rule="evenodd" d="M449.486 630.032L446.64 630.47L448.063 628.39L450.909 627.952L455.068 621.494H465.467L462.402 626.31L465.248 625.872L463.825 627.952L460.979 628.39L459.227 631.126H474.88L473.019 633.863H446.968L449.376 630.141L449.486 630.032Z" fill="#003B2F"/><path d="M1635.37 611.799L1636.24 627.451C1636.24 628.874 1637.01 630.078 1638.21 630.735C1642.7 633.253 1656.27 638.726 1690.75 638.397C1726.22 638.178 1740.77 631.72 1745.37 628.984C1746.47 628.327 1747.12 627.232 1747.12 625.919V611.689" fill="#9FB4AD"/><path d="M1635.37 611.799L1636.24 627.451C1636.24 628.874 1637.01 630.078 1638.21 630.735C1642.7 633.253 1656.27 638.726 1690.75 638.397C1726.22 638.178 1740.77 631.72 1745.37 628.984C1746.47 628.327 1747.12 627.232 1747.12 625.919V611.689" stroke="#003B2F" stroke-width="2.26146" stroke-miterlimit="10"/><path d="M1691.19 598.993C1660.32 598.993 1635.37 604.685 1635.37 611.8C1635.37 612.237 1635.37 612.785 1635.69 613.223C1636.13 614.208 1637.23 615.302 1638.65 616.178C1646.42 621.104 1667 624.606 1691.19 624.606C1715.38 624.606 1736.29 620.994 1743.95 616.069C1746.03 614.755 1747.12 613.332 1747.12 611.8C1747.12 604.685 1722.06 598.993 1691.3 598.993H1691.19Z" fill="#E3E7E3" stroke="#003B2F" stroke-width="2.26146" stroke-miterlimit="10"/><path d="M1691.08 602.387C1665.36 602.387 1644.34 607.093 1644.34 612.019C1644.34 616.945 1665.14 620.885 1690.86 620.885C1716.59 620.885 1737.38 616.945 1737.38 612.019C1737.38 607.093 1716.8 602.387 1691.08 602.387Z" stroke="#003B2F" stroke-width="2.26146" stroke-linecap="round" stroke-linejoin="round"/><path d="M1712.75 614.646L1699.95 613.989L1687.14 613.333L1674.22 612.785L1672.25 612.676L1673.79 612.348L1680.13 611.144L1684.51 611.362L1697.32 612.019L1710.13 612.676L1707.5 610.706L1694.69 610.049L1688.01 609.721L1693.05 608.735L1702.68 606.984L1700.27 605.123L1690.64 606.984L1681.01 608.735L1678.6 609.173L1668.97 608.735L1671.38 610.596L1670.72 610.706L1662.84 612.129L1661.74 612.348L1664.04 614.099H1664.37L1676.85 614.756L1689.77 615.412L1702.57 615.96L1715.38 616.616L1712.75 614.646Z" fill="#003B2F"/><path d="M549.422 652.908C543.731 660.571 522.824 654.331 502.683 639.226C482.543 624.121 470.94 605.622 476.632 598.069L483.747 588.984C482.543 590.626 482.105 592.706 482.324 595.114C483.2 604.309 493.817 618.319 509.798 630.36C525.451 642.182 541.651 648.53 550.736 647.217C553.363 646.779 555.333 645.794 556.647 644.042L549.204 652.908H549.422Z" fill="#9FB4AD"/><path d="M556.757 644.042C555.443 645.794 553.473 646.779 550.846 647.217C541.761 648.53 525.561 642.182 509.908 630.36C493.927 618.32 483.31 604.199 482.434 595.114C482.215 592.706 482.653 590.736 483.857 588.984C489.658 581.322 510.674 587.562 530.815 602.776C550.955 617.991 562.667 636.49 556.866 644.042H556.757Z" fill="#E3E7E3"/><path d="M556.756 644.042L549.313 652.908C543.621 660.571 522.714 654.331 502.574 639.226C482.433 624.121 470.831 605.622 476.523 598.069L483.637 588.984" stroke="#003B2F" stroke-width="2.26146" stroke-linecap="round" stroke-linejoin="round"/><path d="M556.757 644.042C555.443 645.794 553.473 646.779 550.846 647.217C541.761 648.53 525.561 642.182 509.908 630.36C493.927 618.32 483.31 604.199 482.434 595.114C482.215 592.706 482.653 590.736 483.857 588.984C489.658 581.322 510.674 587.562 530.815 602.776C550.955 617.991 562.667 636.49 556.866 644.042H556.757Z" stroke="#003B2F" stroke-width="2.26146" stroke-linecap="round" stroke-linejoin="round"/><path d="M550.736 647.108C541.651 648.422 525.451 642.073 509.689 630.251C493.708 618.211 483.09 604.091 482.215 595.006C481.996 592.597 482.434 590.518 483.638 588.876C489.439 581.214 510.346 587.343 530.596 602.558C550.736 617.773 562.448 636.272 556.756 643.934C555.443 645.685 553.472 646.67 550.845 646.999L550.736 647.108Z" stroke="#003B2F" stroke-width="2.26146" stroke-linecap="round" stroke-linejoin="round"/><path d="M486.593 598.071C486.155 596.867 485.937 595.772 485.827 594.678C485.608 593.036 485.827 591.832 486.593 590.956C488.345 588.657 493.818 588.438 500.932 590.518C509.361 593.036 519.322 598.29 528.735 605.405C541.432 615.037 551.174 626.311 554.129 634.959C554.677 636.819 555.552 640.103 554.129 641.964C553.473 642.84 552.269 643.496 550.517 643.715C542.198 644.919 526.327 638.242 512.097 627.515C499.4 617.992 489.658 606.718 486.703 598.071H486.593Z" stroke="#003B2F" stroke-width="2.26146" stroke-linecap="round" stroke-linejoin="round"/><path d="M517.899 603.872C513.739 600.588 511.112 601.135 509.032 602.996L503.56 598.07L502.246 599.822L507.609 604.638C507.609 604.638 506.953 605.514 506.624 606.061L501.151 601.245L499.838 602.996L505.311 607.922C505.311 607.922 504.764 608.688 504.545 609.126L502.684 611.534L506.296 614.708C506.296 614.708 507.172 613.395 507.281 613.504C507.828 612.847 508.814 613.285 509.58 613.832L515.819 619.415L524.576 627.296C524.576 627.296 525.561 628.39 525.232 628.938L524.247 630.142L527.969 634.082L529.72 631.893C529.72 631.893 530.377 631.127 530.705 630.689L536.288 635.724L537.601 633.973L532.128 629.047C532.128 629.047 532.895 628.172 533.223 627.734L538.696 632.659L540.009 630.908L534.427 625.873C536.288 622.699 536.397 619.415 531.253 614.38C527.093 610.33 524.466 609.673 522.386 610.658C522.168 608.797 520.854 606.608 517.899 604.2V603.872ZM528.078 617.007C532.238 620.728 529.063 624.012 528.078 625.107L520.745 618.539C521.62 617.335 523.7 613.176 528.078 617.007ZM517.023 608.469C520.854 611.862 518.008 614.489 517.351 615.474L510.674 609.454C511.441 608.469 513.082 604.857 517.132 608.469H517.023Z" fill="#003B2F"/><path d="M391.259 194.648H357.564C368.176 194.648 376.928 186.006 376.928 175.284C376.928 164.563 368.285 155.92 357.564 155.92H260.744C250.132 155.92 241.38 164.563 241.38 175.284H211.623C201.011 175.284 192.259 183.927 192.259 194.648C192.259 205.37 200.901 214.012 211.623 214.012H275.075C275.075 224.624 283.718 233.376 294.439 233.376H391.259C401.871 233.376 410.623 224.734 410.623 214.012C410.623 203.291 401.981 194.648 391.259 194.648Z" fill="#03FC9D"/><path d="M145.396 274.181H313.764C332.314 274.181 347.351 259.144 347.351 240.595C347.351 222.046 332.314 207.009 313.764 207.009L145.396 207.009C126.847 207.009 111.81 222.046 111.81 240.595C111.81 259.144 126.847 274.181 145.396 274.181Z" fill="#E6E8EA"/><path d="M256.646 842.104H321.165" stroke="#003B2F" stroke-width="3.39219" stroke-linecap="round" stroke-linejoin="round"/><path d="M207.67 842.104H223.898" stroke="#003B2F" stroke-width="3.39219" stroke-linecap="round" stroke-linejoin="round"/><path d="M266.031 797.723H433.194" stroke="#03FC9D" stroke-width="3.39219" stroke-linecap="round" stroke-linejoin="round"/><path d="M1794.24 443.458C1801.94 443.458 1808.19 437.212 1808.19 429.507C1808.19 421.803 1801.94 415.557 1794.24 415.557C1786.53 415.557 1780.29 421.803 1780.29 429.507C1780.29 437.212 1786.53 443.458 1794.24 443.458Z" stroke="#003B2F" stroke-width="3.39219" stroke-linecap="round" stroke-linejoin="round"/><path d="M1222.38 842.104H1262.72" stroke="#003B2F" stroke-width="3.39219" stroke-linecap="round" stroke-linejoin="round"/><path d="M1314.82 779.994H1607.02" stroke="#03FC9D" stroke-width="3.39219" stroke-linecap="round" stroke-linejoin="round"/><path d="M1314.82 841.884H1478.18" stroke="#003B2F" stroke-width="3.39219" stroke-linecap="round" stroke-linejoin="round"/><path d="M1365.28 304.61V321.951" stroke="#003B2F" stroke-width="3.39219" stroke-linecap="round" stroke-linejoin="round"/><path d="M1365.28 334.677V352.019" stroke="#003B2F" stroke-width="3.39219" stroke-linecap="round" stroke-linejoin="round"/><path d="M1341.58 328.315H1358.92" stroke="#003B2F" stroke-width="3.39219" stroke-linecap="round" stroke-linejoin="round"/><path d="M1371.57 328.315H1388.99" stroke="#003B2F" stroke-width="3.39219" stroke-linecap="round" stroke-linejoin="round"/><path d="M1028.67 340.451H966.055C985.916 340.451 1001.99 324.381 1001.99 304.52C1001.99 284.659 985.916 268.588 966.055 268.588H786.094C766.233 268.588 750.163 284.659 750.163 304.52H694.977C675.116 304.52 659.045 320.591 659.045 340.451C659.045 360.312 675.116 376.383 694.977 376.383H812.778C812.778 396.244 828.848 412.315 848.709 412.315H1028.67C1048.53 412.315 1064.6 396.244 1064.6 376.383C1064.6 356.522 1048.53 340.451 1028.67 340.451Z" fill="#E6E8EA"/><path d="M987.416 217.977H1027.76" stroke="#003B2F" stroke-width="3.39219" stroke-linecap="round" stroke-linejoin="round"/><path d="M1079.86 155.867H1372.06" stroke="#03FC9D" stroke-width="3.39219" stroke-linecap="round" stroke-linejoin="round"/><path d="M1079.86 217.757H1243.22" stroke="#003B2F" stroke-width="3.39219" stroke-linecap="round" stroke-linejoin="round"/><path d="M622.613 423.813V450.489" stroke="#003B2F" stroke-width="3.39219" stroke-miterlimit="10" stroke-linecap="round" stroke-linejoin="round"/><path d="M622.613 469.985V496.662" stroke="#003B2F" stroke-width="3.39219" stroke-miterlimit="10" stroke-linecap="round" stroke-linejoin="round"/><path d="M586.182 460.243H612.87" stroke="#003B2F" stroke-width="3.39219" stroke-miterlimit="10" stroke-linecap="round" stroke-linejoin="round"/><path d="M632.369 460.243H659.045" stroke="#003B2F" stroke-width="3.39219" stroke-miterlimit="10" stroke-linecap="round" stroke-linejoin="round"/><path d="M932.82 775.077L958.764 790.028" stroke="#003B2F" stroke-width="3.39219" stroke-linecap="round" stroke-linejoin="round"/><path d="M984.707 775.077L969.537 783.872" stroke="#003B2F" stroke-width="3.39219" stroke-linecap="round" stroke-linejoin="round"/><path d="M958.763 790.028V820.368" stroke="#003B2F" stroke-width="3.39219" stroke-linecap="round" stroke-linejoin="round"/></svg>