<svg width="1676" height="857" viewBox="0 0 1676 857" fill="none" xmlns="http://www.w3.org/2000/svg"><path d="M1462.08 688.421H1376.1C1366.66 688.421 1359 696.079 1359 705.527V705.616C1359 715.063 1366.66 722.721 1376.1 722.721H1462.08C1471.53 722.721 1479.18 715.063 1479.18 705.616V705.527C1479.18 696.079 1471.53 688.421 1462.08 688.421Z" fill="#03FC9D"/><path d="M1415.49 640.311H1274.72C1259.22 640.311 1246.66 652.876 1246.66 668.375C1246.66 683.874 1259.22 696.439 1274.72 696.439H1415.49C1430.98 696.439 1443.55 683.874 1443.55 668.375C1443.55 652.876 1430.98 640.311 1415.49 640.311Z" fill="#03FC9D"/><path d="M214.433 294.367H345.666" stroke="#003B2F" stroke-width="3" stroke-linecap="round" stroke-linejoin="round"/><path d="M180.223 294.367H191.627" stroke="#003B2F" stroke-width="3" stroke-linecap="round" stroke-linejoin="round"/><path d="M279.381 258.195H396.093" stroke="#03FC9D" stroke-width="3" stroke-linecap="round" stroke-linejoin="round"/><path d="M163.206 92.0382H228.6C235.816 92.0382 241.607 97.9183 241.607 105.046C241.607 112.173 235.727 118.053 228.6 118.053H163.206C155.989 118.053 150.198 112.173 150.198 105.046C150.198 97.9183 155.989 92.0382 163.206 92.0382Z" fill="#E6E8EA"/><path d="M248.378 76.3579H356.447C368.385 76.3579 378.007 85.9799 378.007 97.9182C378.007 109.857 368.385 119.479 356.447 119.479H248.378C236.44 119.479 226.818 109.857 226.818 97.9182C226.818 85.9799 236.44 76.3579 248.378 76.3579Z" fill="#E6E8EA"/><path d="M203.832 95.5129H324.107C337.381 95.5129 348.072 106.293 348.072 119.479C348.072 132.664 337.292 143.445 324.107 143.445H203.832C190.557 143.445 179.866 132.664 179.866 119.479C179.866 106.204 190.647 95.5129 203.832 95.5129Z" fill="#E6E8EA"/><path d="M680.385 114.935H711.478" stroke="#003B2F" stroke-width="3" stroke-linecap="round" stroke-linejoin="round"/><path d="M793.353 80.9016H945.167" stroke="#03FC9D" stroke-width="3" stroke-linecap="round" stroke-linejoin="round"/><path d="M751.57 114.757H877.19" stroke="#003B2F" stroke-width="3" stroke-linecap="round" stroke-linejoin="round"/><path d="M1323.72 659.11H1299.58" stroke="#003B2F" stroke-width="3" stroke-linecap="round" stroke-linejoin="round"/><path d="M1257.97 613.851H1082.73" stroke="#03FC9D" stroke-width="3" stroke-linecap="round" stroke-linejoin="round"/><path d="M1268.3 659.021H1170.3" stroke="#003B2F" stroke-width="3" stroke-linecap="round" stroke-linejoin="round"/><path d="M568.575 377.133H558.329V629.977H592.274V565.028C561.894 506.584 554.053 439.765 568.575 377.222V377.133Z" fill="#03FC9D"/><path d="M575.256 537.32V649.042" stroke="#03FC9D" stroke-width="5" stroke-linecap="round" stroke-linejoin="round"/><path d="M1386.08 281.983H1352.14V518.255H1386.08V281.983Z" fill="#03FC9D"/><path d="M1369.16 249.91V540.172" stroke="#03FC9D" stroke-width="5" stroke-linecap="round" stroke-linejoin="round"/><path d="M1209.68 246.791H1175.74V358.424H1209.68V246.791Z" fill="#03FC9D"/><path d="M1192.75 234.496V368.402" stroke="#03FC9D" stroke-width="5" stroke-linecap="round" stroke-linejoin="round"/><path d="M503.449 487.607H469.505V528.946H503.449V487.607Z" fill="#E6E8EA"/><path d="M486.521 477.095V542.043" stroke="#E6E8EA" stroke-width="5" stroke-linecap="round" stroke-linejoin="round"/><path d="M548.173 455.445H514.229V537.321H548.173V455.445Z" fill="#03FC9D"/><path d="M531.156 444.932V559.505" stroke="#03FC9D" stroke-width="5" stroke-linecap="round" stroke-linejoin="round"/><path d="M322.146 460.612H288.202V508.811H322.146V460.612Z" fill="#E6E8EA"/><path d="M305.128 450.099V524.759" stroke="#E6E8EA" stroke-width="5" stroke-linecap="round" stroke-linejoin="round"/><path d="M413.465 535.717H379.521V554.783H413.465V535.717Z" fill="#E6E8EA"/><path d="M396.448 525.293V564.316" stroke="#E6E8EA" stroke-width="5" stroke-linecap="round" stroke-linejoin="round"/><path d="M1165.58 312.007H1131.64V439.052H1165.58V312.007Z" fill="#03FC9D"/><path d="M1148.65 281.448V467.562" stroke="#03FC9D" stroke-width="5" stroke-linecap="round" stroke-linejoin="round"/><path d="M1253.78 341.585H1219.84V361.542H1253.78V341.585Z" fill="#E6E8EA"/><path d="M1236.85 331.429V375.529" stroke="#E6E8EA" stroke-width="5" stroke-linecap="round" stroke-linejoin="round"/><path d="M1087.54 320.381V335.438C1091.46 344.971 1094.84 354.771 1097.6 364.571H1121.48V320.381H1087.54Z" fill="#E6E8EA"/><path d="M1104.55 289.912V348.891" stroke="#E6E8EA" stroke-width="5" stroke-linecap="round" stroke-linejoin="round"/><path d="M366.959 486.984H333.015V546.23H366.959V486.984Z" fill="#E6E8EA"/><path d="M349.944 476.56V562.089" stroke="#E6E8EA" stroke-width="5" stroke-linecap="round" stroke-linejoin="round"/><path d="M1430.27 274.499H1396.33V333.745H1430.27V274.499Z" fill="#03FC9D"/><path d="M1413.26 263.986V349.603" stroke="#03FC9D" stroke-width="5" stroke-linecap="round" stroke-linejoin="round"/><path d="M283.568 435.31H249.624V557.545H283.568V435.31Z" fill="#03FC9D"/><path d="M266.553 424.797V510.415" stroke="#03FC9D" stroke-width="5" stroke-linecap="round" stroke-linejoin="round"/><path d="M1297.88 341.051H1263.94V392.902H1297.88V341.051Z" fill="#E6E8EA"/><path d="M1280.96 321.629V406.445" stroke="#E6E8EA" stroke-width="5" stroke-linecap="round" stroke-linejoin="round"/><path d="M1341.98 306.839H1308.04V370.451H1341.98V306.839Z" fill="#E6E8EA"/><path d="M1325.06 285.635V392.902" stroke="#E6E8EA" stroke-width="5" stroke-linecap="round" stroke-linejoin="round"/><path d="M458.724 442.259H424.78V550.595H458.724V442.259Z" fill="#03FC9D"/><path d="M441.796 419.363V563.603" stroke="#03FC9D" stroke-width="5" stroke-linecap="round" stroke-linejoin="round"/><path d="M239.468 409.117H205.524V604.496H239.468V409.117Z" fill="#03FC9D"/><path d="M222.453 372.589V646.548" stroke="#03FC9D" stroke-width="5" stroke-linecap="round" stroke-linejoin="round"/><path d="M195.814 664.277L587.73 560.93" stroke="#003B2F" stroke-width="7" stroke-linecap="round" stroke-linejoin="round"/><path d="M1175.74 229.596L1430.27 261.67" stroke="#003B2F" stroke-width="7" stroke-linecap="round" stroke-linejoin="round"/><path d="M1439.89 189.683C1464.13 195.742 1488.72 180.952 1494.78 156.719C1500.83 132.486 1486.04 107.897 1461.81 101.838C1437.58 95.7802 1412.99 110.57 1406.93 134.803C1400.87 159.036 1415.66 183.625 1439.89 189.683Z" fill="#03FC9D"/><path d="M1438.11 185.05C1462.35 191.109 1486.94 176.319 1493 152.086C1499.05 127.853 1484.26 103.264 1460.03 97.2055C1435.8 91.1473 1411.21 105.937 1405.15 130.17C1399.09 154.403 1413.88 178.992 1438.11 185.05Z" stroke="#003B2F" stroke-width="3" stroke-linecap="round" stroke-linejoin="round"/><path d="M1429.47 152.621C1429.47 152.621 1430.36 152.265 1430.9 152.443L1474.64 163.312C1475.44 163.49 1475.62 164.559 1474.91 165.005L1464.13 171.509C1464.13 171.509 1463.24 171.865 1462.7 171.687L1418.87 160.817C1418.87 160.817 1418.51 160.639 1418.43 160.55C1418.34 160.372 1418.25 160.283 1418.16 160.105C1418.16 159.927 1418.16 159.748 1418.16 159.57C1418.16 159.392 1418.34 159.303 1418.51 159.214L1429.29 152.71L1429.47 152.621Z" fill="#003B2F"/><path d="M1437.67 119.657C1437.67 119.657 1438.56 119.3 1439.09 119.479L1482.84 130.348C1483.64 130.526 1483.82 131.595 1483.1 132.041L1472.32 138.544C1472.32 138.544 1471.43 138.901 1470.9 138.722L1427.07 127.853C1427.07 127.853 1426.71 127.675 1426.62 127.586C1426.53 127.408 1426.44 127.319 1426.35 127.141C1426.35 126.962 1426.35 126.784 1426.35 126.606C1426.35 126.428 1426.53 126.339 1426.71 126.25L1437.49 119.746L1437.67 119.657Z" fill="#003B2F"/><path d="M1470.63 145.404C1470.63 145.404 1470.01 144.692 1469.47 144.602L1425.64 133.733C1425.64 133.733 1425.28 133.733 1425.11 133.733C1424.93 133.733 1424.75 133.911 1424.66 134.09C1424.57 134.268 1424.48 134.446 1424.48 134.624C1424.48 134.802 1424.48 134.981 1424.57 135.159L1431.08 145.939C1431.08 145.939 1431.34 146.295 1431.52 146.473C1431.7 146.652 1431.97 146.741 1432.14 146.741L1475.89 157.61C1476.69 157.788 1477.31 156.986 1476.87 156.274L1470.37 145.493L1470.63 145.404Z" fill="#003B2F"/><path d="M505.764 213.649C542.381 198.593 559.843 156.719 544.786 120.103C529.73 83.4857 487.856 66.0236 451.24 81.0802C414.623 96.1368 397.161 138.01 412.217 174.627C427.274 211.244 469.147 228.706 505.764 213.649Z" fill="#03FC9D"/><path d="M513.784 208.927C550.401 193.871 567.863 151.997 552.806 115.38C537.749 78.7635 495.876 61.3015 459.259 76.358C422.642 91.4146 405.18 133.288 420.237 169.905C435.293 206.522 477.167 223.984 513.784 208.927Z" stroke="#003B2F" stroke-width="3" stroke-linecap="round" stroke-linejoin="round"/><path d="M457.745 176.319C458.012 175.607 458.636 175.072 459.349 174.716L525.455 147.543C526.614 147.008 527.861 148.255 527.326 149.414L519.664 167.856C519.397 168.568 518.773 169.103 518.061 169.459L451.954 196.632C451.954 196.632 451.42 196.811 451.152 196.632C450.885 196.632 450.618 196.454 450.439 196.187C450.261 196.009 450.083 195.741 450.083 195.474C450.083 195.207 450.083 194.94 450.083 194.672L457.745 176.23V176.319Z" fill="#003B2F"/><path d="M437.253 126.606C437.521 125.893 438.144 125.358 438.857 125.002L504.963 97.829C506.121 97.2945 507.369 98.5418 506.834 99.7L499.173 118.142C498.905 118.855 498.282 119.389 497.569 119.746L431.462 146.919C431.462 146.919 430.928 147.097 430.661 146.919C430.393 146.919 430.126 146.741 429.948 146.473C429.77 146.295 429.592 146.028 429.592 145.761C429.592 145.493 429.592 145.226 429.592 144.959L437.253 126.517V126.606Z" fill="#003B2F"/><path d="M503.36 128.477C502.647 128.21 501.845 128.21 501.132 128.477L435.026 155.65C435.026 155.65 434.492 155.917 434.402 156.185C434.313 156.452 434.135 156.719 434.135 156.986C434.135 157.254 434.135 157.521 434.402 157.788C434.67 158.055 434.759 158.234 435.026 158.323L453.468 165.985C453.468 165.985 454.181 166.252 454.627 166.252C454.983 166.252 455.428 166.252 455.785 166.074L521.891 138.901C523.049 138.366 523.138 136.673 521.891 136.228L503.449 128.566L503.36 128.477Z" fill="#003B2F"/><path d="M573.208 789.095C595.392 797.737 620.426 786.779 629.068 764.595C637.71 742.411 626.752 717.376 604.568 708.734C582.384 700.092 557.349 711.05 548.708 733.234C540.066 755.418 551.024 780.453 573.208 789.095Z" fill="#03FC9D"/><path d="M572.048 784.552C594.232 793.194 619.267 782.235 627.909 760.051C636.551 737.867 625.593 712.832 603.409 704.19C581.225 695.549 556.19 706.507 547.548 728.691C538.906 750.875 549.864 775.91 572.048 784.552Z" stroke="#003B2F" stroke-width="3" stroke-linecap="round" stroke-linejoin="round"/><path d="M567.863 752.835C567.863 752.835 568.754 752.657 569.199 752.835L609.291 768.426C610.003 768.693 610.003 769.762 609.291 770.03L598.332 774.841C598.332 774.841 597.441 775.019 596.996 774.841L556.904 759.249C556.904 759.249 556.637 759.071 556.459 758.893C556.37 758.715 556.281 758.626 556.281 758.448C556.281 758.269 556.281 758.091 556.459 757.913C556.637 757.735 556.726 757.646 556.815 757.557L567.774 752.746L567.863 752.835Z" fill="#003B2F"/><path d="M579.623 722.721C579.623 722.721 580.514 722.543 580.96 722.721L621.051 738.313C621.764 738.58 621.764 739.649 621.051 739.916L610.093 744.727C610.093 744.727 609.202 744.905 608.757 744.727L568.665 729.136C568.665 729.136 568.398 728.958 568.22 728.78C568.131 728.602 568.041 728.513 568.041 728.334C568.041 728.156 568.042 727.978 568.22 727.8C568.309 727.622 568.487 727.532 568.576 727.443L579.534 722.632L579.623 722.721Z" fill="#003B2F"/><path d="M607.598 750.964C607.598 750.964 607.064 750.162 606.618 750.073L566.527 734.482C566.527 734.482 566.171 734.482 565.992 734.482C565.814 734.482 565.636 734.571 565.547 734.749C565.458 734.838 565.369 735.016 565.28 735.195C565.19 735.373 565.28 735.551 565.28 735.729L570.09 746.688C570.09 746.688 570.358 747.133 570.447 747.222C570.625 747.4 570.803 747.489 570.982 747.578L611.073 763.17C611.786 763.437 612.499 762.724 612.231 762.011L607.42 751.053L607.598 750.964Z" fill="#003B2F"/><path d="M358.496 703.923L379.523 716.129" stroke="#003B2F" stroke-width="3" stroke-linecap="round" stroke-linejoin="round"/><path d="M400.549 703.923L388.165 711.05" stroke="#003B2F" stroke-width="3" stroke-linecap="round" stroke-linejoin="round"/><path d="M379.523 716.128V740.629" stroke="#003B2F" stroke-width="3" stroke-linecap="round" stroke-linejoin="round"/><path d="M834.809 656.041C965.151 651.854 1067.43 542.805 1063.33 412.463C1059.14 282.121 950.094 179.844 819.753 183.942C689.411 188.129 587.133 297.178 591.231 427.52C595.418 557.862 704.467 660.139 834.809 656.041Z" fill="#03FC9D"/><path d="M855.302 673.058C985.644 668.871 1087.92 559.822 1083.82 429.48C1079.64 299.138 970.588 196.861 840.246 200.959C709.904 205.146 607.627 314.195 611.725 444.537C615.912 574.879 724.961 677.156 855.302 673.058Z" stroke="#003B2F" stroke-width="3" stroke-linecap="round" stroke-linejoin="round"/><path d="M751.598 497.457C753.38 495.765 755.697 494.785 758.191 494.785H985.643C989.741 494.785 991.879 499.774 988.939 502.714L944.037 547.616C942.255 549.398 939.939 550.378 937.444 550.378H709.992C709.101 550.378 708.21 550.111 707.408 549.576C706.607 549.042 706.072 548.329 705.716 547.527C705.359 546.636 705.27 545.745 705.448 544.854C705.626 543.963 706.072 543.162 706.696 542.449L751.598 497.546V497.457Z" fill="#003B2F"/><path d="M751.598 326.4C753.38 324.708 755.697 323.728 758.191 323.728H985.643C989.741 323.728 991.879 328.717 988.939 331.657L944.037 376.559C942.255 378.341 939.939 379.321 937.444 379.321H709.992C709.101 379.321 708.21 379.054 707.408 378.519C706.607 377.985 706.072 377.272 705.716 376.47C705.359 375.579 705.27 374.688 705.448 373.797C705.626 372.906 706.072 372.105 706.696 371.392L751.598 326.489V326.4Z" fill="#003B2F"/><path d="M943.948 411.929C942.166 410.236 939.85 409.256 937.355 409.256H709.903C709.012 409.256 708.121 409.523 707.319 410.058C706.517 410.592 705.983 411.305 705.627 412.107C705.27 412.998 705.181 413.889 705.359 414.78C705.537 415.67 705.983 416.472 706.606 417.185L751.509 462.087C752.4 462.978 753.38 463.602 754.538 464.137C755.696 464.582 756.855 464.849 758.102 464.849H985.554C989.652 464.849 991.79 459.86 988.85 456.92L943.948 412.018V411.929Z" fill="#003B2F"/></svg>