<svg width="1676" height="857" viewBox="0 0 1676 857" fill="none" xmlns="http://www.w3.org/2000/svg"><path d="M531.809 99.236L552.834 111.353" stroke="#003B2F" stroke-width="3" stroke-linecap="round" stroke-linejoin="round"/><path d="M573.861 99.236L561.566 106.363" stroke="#003B2F" stroke-width="3" stroke-linecap="round" stroke-linejoin="round"/><path d="M552.835 111.352V135.942" stroke="#003B2F" stroke-width="3" stroke-linecap="round" stroke-linejoin="round"/><path d="M616.981 293.011V243.743H583.037V406.158C585.977 366.869 597.292 328.203 616.981 293.011Z" fill="#03FC9D"/><path d="M583.037 446.517V534.807H604.597C592.391 506.565 585.175 476.63 583.037 446.517Z" fill="#03FC9D"/><path d="M600.052 531.6V560.644" stroke="#03FC9D" stroke-width="5" stroke-linecap="round" stroke-linejoin="round"/><path d="M600.052 211.759V314.037" stroke="#03FC9D" stroke-width="5" stroke-linecap="round" stroke-linejoin="round"/><path d="M1403.31 205.79H1369.36V374.085H1403.31V205.79Z" fill="#03FC9D"/><path d="M1386.29 173.717V403.575" stroke="#03FC9D" stroke-width="5" stroke-linecap="round" stroke-linejoin="round"/><path d="M1225.84 234.21H1191.89V345.843H1225.84V234.21Z" fill="#03FC9D"/><path d="M1208.91 221.916V355.821" stroke="#03FC9D" stroke-width="5" stroke-linecap="round" stroke-linejoin="round"/><path d="M573.859 436.093H539.915V468.077H573.859V436.093Z" fill="#E6E8EA"/><path d="M556.933 425.581V477.432" stroke="#E6E8EA" stroke-width="5" stroke-linecap="round" stroke-linejoin="round"/><path d="M356.475 579.799H322.531V627.998H356.475V579.799Z" fill="#E6E8EA"/><path d="M339.547 569.286V643.856" stroke="#E6E8EA" stroke-width="5" stroke-linecap="round" stroke-linejoin="round"/><path d="M486.372 473.958H452.428V493.023H486.372V473.958Z" fill="#E6E8EA"/><path d="M469.355 463.445V502.467" stroke="#E6E8EA" stroke-width="5" stroke-linecap="round" stroke-linejoin="round"/><path d="M1181.29 299.426H1147.35V318.492H1181.29V299.426Z" fill="#E6E8EA"/><path d="M1164.27 268.867V344.774" stroke="#E6E8EA" stroke-width="5" stroke-linecap="round" stroke-linejoin="round"/><path d="M1268.6 323.926H1234.66V342.992H1268.6V323.926Z" fill="#E6E8EA"/><path d="M1251.67 293.457V335.865" stroke="#E6E8EA" stroke-width="5" stroke-linecap="round" stroke-linejoin="round"/><path d="M1102.53 307.8V309.582C1109.04 323.392 1114.38 337.557 1118.39 351.99H1136.48V307.8H1102.53Z" fill="#E6E8EA"/><path d="M1119.55 277.331V336.31" stroke="#E6E8EA" stroke-width="5" stroke-linecap="round" stroke-linejoin="round"/><path d="M528.691 440.191H494.747V499.438H528.691V440.191Z" fill="#E6E8EA"/><path d="M511.763 429.678V515.296" stroke="#E6E8EA" stroke-width="5" stroke-linecap="round" stroke-linejoin="round"/><path d="M1451.06 240.714H1417.12V299.961H1451.06V240.714Z" fill="#03FC9D"/><path d="M1434.13 230.29V315.819" stroke="#03FC9D" stroke-width="5" stroke-linecap="round" stroke-linejoin="round"/><path d="M310.326 604.656H276.382V663.902H310.326V604.656Z" fill="#03FC9D"/><path d="M293.309 594.143V679.76" stroke="#03FC9D" stroke-width="5" stroke-linecap="round" stroke-linejoin="round"/><path d="M1311.54 295.595H1277.6V339.161H1311.54V295.595Z" fill="#03FC9D"/><path d="M1294.53 282.587V346.734" stroke="#03FC9D" stroke-width="5" stroke-linecap="round" stroke-linejoin="round"/><path d="M1355.82 285.349H1321.88V308.691H1355.82V285.349Z" fill="#03FC9D"/><path d="M1338.9 273.055V320.897" stroke="#03FC9D" stroke-width="5" stroke-linecap="round" stroke-linejoin="round"/><path d="M444.408 442.953H410.464V551.289H444.408V442.953Z" fill="#03FC9D"/><path d="M427.393 420.057V564.386" stroke="#03FC9D" stroke-width="5" stroke-linecap="round" stroke-linejoin="round"/><path d="M400.486 528.571H366.542V636.907H400.486V528.571Z" fill="#03FC9D"/><path d="M383.471 505.764V650.004" stroke="#03FC9D" stroke-width="5" stroke-linecap="round" stroke-linejoin="round"/><path d="M1128.73 420.948L1530.18 269.402" stroke="#003B2F" stroke-width="7" stroke-linecap="round" stroke-linejoin="round"/><path d="M231.836 625.147L598.094 334.796" stroke="#003B2F" stroke-width="7" stroke-linecap="round" stroke-linejoin="round"/><path d="M137.487 431.282H196.288" stroke="#003B2F" stroke-width="3" stroke-linecap="round" stroke-linejoin="round"/><path d="M146.039 388.875H298.387" stroke="#03FC9D" stroke-width="3" stroke-linecap="round" stroke-linejoin="round"/><path d="M1024.76 131.665H1094.51C1102.18 131.665 1108.41 137.902 1108.41 145.564C1108.41 153.225 1102.18 159.462 1094.51 159.462H1024.76C1017.09 159.462 1010.86 153.225 1010.86 145.564C1010.86 137.902 1017.09 131.665 1024.76 131.665Z" fill="#03FC9D"/><path d="M882.385 78.8336H1047.03C1065.2 78.8336 1079.9 93.5338 1079.9 111.709C1079.9 129.883 1065.2 144.584 1047.03 144.584H882.385C864.21 144.584 849.51 129.883 849.51 111.709C849.51 93.5338 864.21 78.8336 882.385 78.8336Z" fill="#E6E8EA"/><path d="M1334.26 692.857H1290.96C1304.68 692.857 1315.82 682.789 1315.82 670.316C1315.82 657.843 1304.68 647.776 1290.96 647.776H1166.59C1152.87 647.776 1141.73 657.843 1141.73 670.316H1103.51C1089.79 670.316 1078.66 680.384 1078.66 692.857C1078.66 705.329 1089.79 715.397 1103.51 715.397H1185.03C1185.03 727.87 1196.17 737.937 1209.89 737.937H1334.26C1347.98 737.937 1359.12 727.87 1359.12 715.397C1359.12 702.924 1347.98 692.857 1334.26 692.857Z" fill="#E6E8EA"/><path d="M1275.1 90.1485H1306.11" stroke="#003B2F" stroke-width="3" stroke-linecap="round" stroke-linejoin="round"/><path d="M1385.84 71.7955H1537.57" stroke="#00FF94" stroke-width="3" stroke-linecap="round" stroke-linejoin="round"/><path d="M1346.2 90.0593H1471.91" stroke="#003B2F" stroke-width="3" stroke-linecap="round" stroke-linejoin="round"/><path d="M1152.6 503.002L1161.15 521.176" stroke="#003B2F" stroke-width="3" stroke-linecap="round" stroke-linejoin="round"/><path d="M1167.39 534.54L1175.94 552.715" stroke="#003B2F" stroke-width="3" stroke-linecap="round" stroke-linejoin="round"/><path d="M1139.42 539.53L1157.68 530.977" stroke="#003B2F" stroke-width="3" stroke-linecap="round" stroke-linejoin="round"/><path d="M1170.96 524.74L1189.22 516.187" stroke="#003B2F" stroke-width="3" stroke-linecap="round" stroke-linejoin="round"/><path d="M852.896 654.012C983.237 649.825 1085.52 540.776 1081.42 410.434C1077.23 280.093 968.181 177.815 837.839 181.913C707.497 186.1 605.219 295.149 609.318 425.491C613.505 555.833 722.554 658.111 852.896 654.012Z" fill="#03FC9D"/><path d="M873.298 671.029C1003.64 666.841 1105.92 557.793 1101.82 427.451C1097.63 297.109 988.583 194.831 858.241 198.93C727.9 203.117 625.622 312.166 629.72 442.507C633.907 572.849 742.956 675.127 873.298 671.029Z" stroke="#003B2F" stroke-width="3" stroke-linecap="round" stroke-linejoin="round"/><path opacity="0.6" fill-rule="evenodd" clip-rule="evenodd" d="M847.016 240.714L851.203 371.501L963.459 417.562L847.016 240.803V240.714Z" fill="#003B2F"/><path fill-rule="evenodd" clip-rule="evenodd" d="M847.016 240.714L742.332 424.6L851.203 371.501L847.016 240.714Z" fill="#003B2F"/><path opacity="0.6" fill-rule="evenodd" clip-rule="evenodd" d="M855.479 505.763L858.33 594.766L964.171 438.053L855.479 505.763Z" fill="#003B2F"/><path fill-rule="evenodd" clip-rule="evenodd" d="M858.331 594.766L855.48 505.763L742.957 445.091L858.331 594.766Z" fill="#003B2F"/><path opacity="0.2" fill-rule="evenodd" clip-rule="evenodd" d="M854.766 485.183L963.459 417.472L851.203 371.412L854.855 485.183H854.766Z" fill="#003B2F"/><path opacity="0.6" fill-rule="evenodd" clip-rule="evenodd" d="M742.243 424.511L854.766 485.183L851.114 371.412L742.243 424.511Z" fill="#003B2F"/><path d="M359.95 270.203C406.1 246.772 424.542 190.377 401.111 144.227C377.68 98.0774 321.284 79.6354 275.135 103.067C228.985 126.498 210.543 182.893 233.974 229.043C257.405 275.193 313.801 293.635 359.95 270.203Z" fill="#03FC9D"/><path d="M370.195 272.876C416.345 249.445 434.787 193.05 411.355 146.9C387.924 100.75 331.529 82.308 285.379 105.739C239.229 129.17 220.787 185.566 244.219 231.716C267.65 277.865 324.045 296.307 370.195 272.876Z" stroke="#003B2F" stroke-width="3" stroke-linecap="round" stroke-linejoin="round"/><path opacity="0.6" fill-rule="evenodd" clip-rule="evenodd" d="M288.319 122.578L311.84 168.905L359.949 166.589L288.319 122.578Z" fill="#003B2F"/><path fill-rule="evenodd" clip-rule="evenodd" d="M288.319 122.578L281.637 206.324L311.839 168.905L288.319 122.578Z" fill="#003B2F"/><path opacity="0.6" fill-rule="evenodd" clip-rule="evenodd" d="M335.984 216.481L351.932 248.019L363.603 173.895L335.895 216.481H335.984Z" fill="#003B2F"/><path fill-rule="evenodd" clip-rule="evenodd" d="M351.933 248.02L335.985 216.481L285.292 213.63L351.933 248.02Z" fill="#003B2F"/><path opacity="0.2" fill-rule="evenodd" clip-rule="evenodd" d="M332.243 209.175L359.951 166.589L311.841 168.906L332.243 209.175Z" fill="#003B2F"/><path opacity="0.6" fill-rule="evenodd" clip-rule="evenodd" d="M281.637 206.324L332.331 209.175L311.928 168.906L281.726 206.324H281.637Z" fill="#003B2F"/><path d="M1391.64 596.281C1423.8 611.338 1462.11 597.528 1477.16 565.455C1492.22 533.293 1478.41 494.983 1446.34 479.927C1414.27 464.87 1375.87 478.68 1360.81 510.753C1345.75 542.826 1359.56 581.225 1391.64 596.281Z" fill="#03FC9D"/><path d="M1394.49 602.874C1426.65 617.93 1464.96 604.121 1480.02 572.048C1495.07 539.975 1481.26 501.576 1449.19 486.52C1417.03 471.463 1378.72 485.272 1363.66 517.345C1348.61 549.419 1362.41 587.817 1394.49 602.874Z" stroke="#003B2F" stroke-width="3" stroke-linecap="round" stroke-linejoin="round"/><path opacity="0.6" fill-rule="evenodd" clip-rule="evenodd" d="M1441.26 495.251L1426.11 527.502L1447.67 552.537L1441.26 495.251Z" fill="#003B2F"/><path fill-rule="evenodd" clip-rule="evenodd" d="M1441.26 495.251L1393.15 526.968L1426.11 527.502L1441.26 495.251Z" fill="#003B2F"/><path opacity="0.6" fill-rule="evenodd" clip-rule="evenodd" d="M1410.52 560.644L1400.19 582.561L1445.27 557.615L1410.52 560.644Z" fill="#003B2F"/><path fill-rule="evenodd" clip-rule="evenodd" d="M1400.28 582.561L1410.61 560.644L1390.83 532.046L1400.37 582.65L1400.28 582.561Z" fill="#003B2F"/><path opacity="0.2" fill-rule="evenodd" clip-rule="evenodd" d="M1412.93 555.566L1447.67 552.537L1426.11 527.502L1412.93 555.566Z" fill="#003B2F"/><path opacity="0.6" fill-rule="evenodd" clip-rule="evenodd" d="M1393.15 526.878L1412.93 555.477L1426.11 527.413L1393.15 526.878Z" fill="#003B2F"/><path d="M530.116 773.396C559.873 787.383 595.332 774.554 609.319 744.797C623.306 715.041 610.477 679.582 580.72 665.594C550.964 651.607 515.505 664.436 501.517 694.193C487.53 723.95 500.359 759.408 530.116 773.396Z" fill="#03FC9D"/><path d="M532.789 779.543C562.546 793.531 598.004 780.701 611.992 750.945C625.979 721.188 613.15 685.729 583.393 671.742C553.637 657.754 518.178 670.584 504.191 700.34C490.203 730.097 503.032 765.556 532.789 779.543Z" stroke="#003B2F" stroke-width="3" stroke-linecap="round" stroke-linejoin="round"/><path opacity="0.6" fill-rule="evenodd" clip-rule="evenodd" d="M576.088 679.849L562.101 709.695L582.058 732.859L576.088 679.76V679.849Z" fill="#003B2F"/><path fill-rule="evenodd" clip-rule="evenodd" d="M576.087 679.849L531.541 709.161L562.1 709.695L576.087 679.849Z" fill="#003B2F"/><path opacity="0.6" fill-rule="evenodd" clip-rule="evenodd" d="M547.666 740.343L538.134 760.656L579.829 737.581L547.666 740.343Z" fill="#003B2F"/><path fill-rule="evenodd" clip-rule="evenodd" d="M538.134 760.656L547.666 740.343L529.313 713.794L538.134 760.656Z" fill="#003B2F"/><path opacity="0.2" fill-rule="evenodd" clip-rule="evenodd" d="M549.894 735.71L582.057 732.948L562.1 709.784L549.894 735.799V735.71Z" fill="#003B2F"/><path opacity="0.6" fill-rule="evenodd" clip-rule="evenodd" d="M531.541 709.161L549.894 735.71L562.1 709.695L531.541 709.161Z" fill="#003B2F"/></svg>