<svg width="192" height="108" viewBox="0 0 192 108" fill="none" xmlns="http://www.w3.org/2000/svg"><path d="M132.7 69.42C133.871 69.42 134.82 68.4708 134.82 67.3C134.82 66.1292 133.871 65.18 132.7 65.18C131.529 65.18 130.58 66.1292 130.58 67.3C130.58 68.4708 131.529 69.42 132.7 69.42Z" stroke="#003B2F" stroke-width="0.3" stroke-linecap="round" stroke-linejoin="round"/><path d="M157.3 84.42H152.44C153.98 84.42 155.23 83.17 155.23 81.63C155.23 80.09 153.98 78.84 152.44 78.84H138.47C136.93 78.84 135.68 80.09 135.68 81.63H131.39C129.85 81.63 128.6 82.88 128.6 84.42C128.6 85.96 129.85 87.21 131.39 87.21H140.54C140.54 88.75 141.79 90 143.33 90H157.3C158.84 90 160.09 88.75 160.09 87.21C160.09 85.67 158.84 84.42 157.3 84.42Z" fill="#E6E8EA"/><path d="M142.75 17.01L145.27 18.47" stroke="#003B2F" stroke-width="0.3" stroke-linecap="round" stroke-linejoin="round"/><path d="M147.8 17.01L146.31 17.87" stroke="#003B2F" stroke-width="0.3" stroke-linecap="round" stroke-linejoin="round"/><path d="M145.27 18.47V21.41" stroke="#003B2F" stroke-width="0.3" stroke-linecap="round" stroke-linejoin="round"/><path d="M147.74 69.83H161.85" stroke="#003B2F" stroke-width="0.3" stroke-linecap="round" stroke-linejoin="round"/><path d="M139.11 35.12H157.39" stroke="#03FC9D" stroke-width="0.3" stroke-linecap="round" stroke-linejoin="round"/><path d="M153.41 39.86H167.52" stroke="#003B2F" stroke-width="0.3" stroke-linecap="round" stroke-linejoin="round"/><path d="M176.35 28.38V30.74" stroke="#003B2F" stroke-width="0.3" stroke-linecap="round" stroke-linejoin="round"/><path d="M176.35 32.46V34.81" stroke="#003B2F" stroke-width="0.3" stroke-linecap="round" stroke-linejoin="round"/><path d="M173.14 31.6H175.49" stroke="#003B2F" stroke-width="0.3" stroke-linecap="round" stroke-linejoin="round"/><path d="M177.22 31.6H179.57" stroke="#003B2F" stroke-width="0.3" stroke-linecap="round" stroke-linejoin="round"/><path d="M67.38 82.52V84.45" stroke="#003B2F" stroke-width="0.3" stroke-linecap="round" stroke-linejoin="round"/><path d="M67.38 85.86V87.78" stroke="#003B2F" stroke-width="0.3" stroke-linecap="round" stroke-linejoin="round"/><path d="M64.76 85.15H66.68" stroke="#003B2F" stroke-width="0.3" stroke-linecap="round" stroke-linejoin="round"/><path d="M68.09 85.15H70.01" stroke="#003B2F" stroke-width="0.3" stroke-linecap="round" stroke-linejoin="round"/><path d="M114.42 95.63H138.71C141.389 95.63 143.56 93.4608 143.56 90.785C143.56 88.1092 141.389 85.94 138.71 85.94H114.42C111.741 85.94 109.57 88.1092 109.57 90.785C109.57 93.4608 111.741 95.63 114.42 95.63Z" fill="#03FC9D"/><path d="M47.3 63C50.38 62.08 53.62 63.82 54.54 66.9C55.46 69.98 53.72 73.22 50.64 74.14C47.56 75.06 44.32 73.32 43.4 70.24C42.48 67.16 44.22 63.92 47.3 63Z" fill="#03FC9D"/><path d="M95.99 45.27C95.03 45.24 94.11 45.12 93.24 44.7C93.04 44.65 92.89 44.52 92.72 44.43C92.66 44.4 92.51 44.4 92.6 44.25C92.74 44.25 92.88 44.24 93.02 44.25C93.9 44.29 94.75 44.16 95.58 43.87C95.78 43.8 95.98 43.71 96.19 43.52C95.45 43.46 94.78 43.42 94.12 43.35C93.13 43.24 92.49 43.06 92.22 42.84C92.99 42.69 93.76 42.57 94.44 42.11C94.23 41.97 94.03 42.02 93.83 42.02C92.81 42.02 91.79 42 90.77 41.86C90.56 41.83 90.33 41.83 90.14 41.65C91.26 41.51 92.27 41.12 93.14 40.31C92.88 40.25 92.7 40.31 92.53 40.38C91.84 40.64 91.12 40.68 90.39 40.64C89.31 40.58 87.27 40.28 86.22 40.03L86.05 39.99C85.09 39.78 84.26 39.86 83.36 40.26C82.66 40.57 82.27 40.93 82.27 40.93C81.3 41.68 81.16 41.56 80.6 42.7C80.37 43.22 80.28 43.46 80.17 44.05C80.06 44.63 79.97 45.21 80.56 45.8C80.68 45.66 80.8 45.54 80.91 45.47C80.98 45.43 81.04 45.4 81.09 45.4C81.34 45.38 81.61 45.4 81.59 45.78C81.58 46.16 81.78 46.27 82.2 46.29C82.62 46.31 83.37 46.11 83.49 46.13C83.61 46.15 83.64 46.32 83.35 46.57C83.3 46.62 83.22 46.66 83.12 46.72C82.97 46.81 82.68 47.42 82.44 47.57L82.47 47.6C83.15 47.41 84.02 47.26 84.54 47.37C85.59 48.25 85.74 49.02 86.11 50.37C86.47 49.59 86.31 48.86 86.28 48.13C86.9 48.77 87.49 49.41 88.21 49.91C88.48 50.11 88.78 50.28 89.09 50.41C89.63 50.6 90.16 50.85 90.76 50.77C90.83 50.68 90.75 50.66 90.7 50.62C90.58 50.54 90.43 50.5 90.33 50.38C89.45 49.75 88.67 49.03 88.17 48.05C88.51 48.16 88.75 48.41 89.04 48.59C89.5 48.9 89.98 49.17 90.48 49.41C90.84 49.5 91.21 49.59 91.57 49.68C90.99 49.09 90.5 48.5 90.14 47.81C90.21 47.65 90.3 47.78 90.37 47.81C90.64 47.93 90.87 48.13 91.15 48.22C92.42 48.88 94.52 49.2 95.15 48.81C94.5 48.71 93.93 48.47 93.36 48.25C92.98 48.08 92.62 47.88 92.29 47.64C91.9 47.32 91.39 47.12 91.15 46.55C92.04 46.75 92.85 47.02 93.7 46.7C93.1 46.49 92.47 46.45 91.88 46.23C91.09 45.94 90.47 45.58 90.23 45.21C91.22 45.49 92.17 45.7 93.14 45.72C94.11 45.74 95.06 45.72 95.97 45.29L95.99 45.27Z" fill="#03FC9D"/><path d="M89.38 61.77C89.23 62.04 89.59 62.57 90 62.48C90.09 62.31 90.42 62 90.75 62.1C90.81 61.7 90.45 61.19 90.17 60.94C90.19 60.7 90.2 60.64 90.28 60.54C90.37 60.44 90.5 60.32 90.5 60.32" stroke="#003B2F" stroke-width="0.3" stroke-linecap="round" stroke-linejoin="round"/><path d="M90 62.48C90.3 62.68 90.46 63.13 90.29 63.49C90.65 63.22 90.91 62.68 90.74 62.1" stroke="#003B2F" stroke-width="0.3" stroke-linecap="round" stroke-linejoin="round"/><path d="M81.8 61.27C82.08 61.44 82.67 61.12 82.36 60.45C82.98 60.34 83.16 60.26 83.28 60.18C83.4 60.1 83.88 60.02 84.17 60.54C84.03 60.81 84.38 61.34 84.79 61.25C84.88 61.08 85.21 60.77 85.53 60.87C85.59 60.47 85.23 59.97 84.95 59.71C84.97 59.46 84.98 59.4 85.06 59.31C85.15 59.21 85.66 58.75 85.66 58.75" stroke="#003B2F" stroke-width="0.3" stroke-linecap="round" stroke-linejoin="round"/><path d="M81.38 60.97C81.3 60.75 81.28 60.47 81.47 60.29" stroke="#003B2F" stroke-width="0.3" stroke-linecap="round" stroke-linejoin="round"/><path d="M84.79 61.25C85.09 61.45 85.25 61.9 85.09 62.26C85.44 61.99 85.7 61.45 85.54 60.87" stroke="#003B2F" stroke-width="0.3" stroke-linecap="round" stroke-linejoin="round"/><path d="M82.71 59.32C89.81 59.32 95.56 65.07 95.56 72.17C95.56 79.27 89.81 85.02 82.71 85.02C75.61 85.02 69.86 79.27 69.86 72.17C69.86 65.07 75.61 59.32 82.71 59.32Z" fill="#03FC9D"/><path fill-rule="evenodd" clip-rule="evenodd" d="M80.38 63.85L79.48 62.89C81.04 62.69 85.13 62.95 89.11 65.58C89.16 65.94 89.15 66.3 89.15 66.3L89.44 66.46C89.6 66.75 89.77 67.17 89.87 67.66C90 68.26 90.04 68.94 89.89 69.6C89.76 70.18 89.51 70.73 89.18 71.21C88.97 71.51 88.78 71.72 88.65 71.83C88.14 71.83 87.2 72.18 86.93 73.36C86.12 73.83 84.84 74.29 83.16 74.29C81.48 74.29 79.91 73.82 78.67 72.92C77.44 72.02 76.61 70.69 76.61 68.94C76.61 67.54 77.24 66.46 78.03 65.66C78.82 64.86 79.92 64.21 80.54 63.99L80.38 63.85ZM87.35 66.14C87.04 66.48 86.75 66.65 86.66 66.69C84.84 66.28 84.18 65.29 84.18 65.29C85.9 65.29 87.46 65.71 88.6 66.43C88.6 66.43 87.98 66.22 87.36 66.13L87.35 66.14Z" fill="#003B2F"/><path d="M79.46 64.11C75.55 64.9 72.56 68.42 72.56 72.69C72.56 78.08 77.11 82.53 82.72 82.53C86.91 82.53 90.4 79.97 92.22 76.53C89.79 77.11 86.9 76.08 86.88 73.84C86 74.29 84.75 74.69 83.15 74.69C81.47 74.69 79.74 74.21 78.43 73.24C77.11 72.28 76.21 70.83 76.21 68.94C76.21 67.41 76.89 66.23 77.74 65.37C78.23 64.88 78.9 64.41 79.45 64.1L79.46 64.11ZM90.28 67.58C90.22 67.33 90.16 67.1 90.08 66.89C91.13 67.68 91.95 68.75 91.89 70.25C91.79 72.41 90.49 73.25 89.66 73.4C90.06 72.73 89.72 72.31 89.6 72.16C89.54 72.09 89.4 71.98 89.17 71.9C89.28 71.77 89.4 71.63 89.53 71.45C89.84 71.02 90.14 70.42 90.31 69.7C90.48 68.97 90.43 68.22 90.29 67.59L90.28 67.58Z" fill="#003B2F"/><path d="M84.46 44.37C84.32 44.63 84.05 44.77 83.85 44.66C83.65 44.56 83.6 44.26 83.74 43.99C83.88 43.73 84.15 43.59 84.35 43.7C84.55 43.8 84.6 44.1 84.46 44.37Z" fill="#003B2F"/><path d="M83.76 46.44C83.86 46.39 83.94 46.34 83.99 46.29C84.28 46.04 84.25 45.87 84.14 45.85C84.02 45.83 83.26 46.03 82.85 46.01C82.43 45.99 82.23 45.88 82.24 45.5C82.25 45.12 81.98 45.1 81.74 45.12C81.69 45.12 81.63 45.15 81.56 45.19C81.45 45.26 81.32 45.39 81.19 45.54C80.94 45.84 80.68 46.24 80.53 46.58C80.25 47.2 80.49 48.16 81.13 48.48C81.09 48.34 81.1 48.08 81.19 47.82C81.29 47.52 81.5 47.22 81.87 47.11C82.45 46.93 83.31 46.67 83.76 46.44Z" stroke="#003B2F" stroke-width="0.3" stroke-linecap="round" stroke-linejoin="round"/><path d="M81.19 47.82C81.63 47.89 81.83 47.8 82.13 47.65C82.43 47.5 82.81 47.42 83.06 47.29C83.31 47.16 83.6 46.53 83.76 46.43" stroke="#003B2F" stroke-width="0.3" stroke-linecap="round" stroke-linejoin="round"/><path d="M83.94 43.76C84.16 43.41 84.41 43.07 84.73 42.79" stroke="#003B2F" stroke-width="0.3" stroke-linecap="round" stroke-linejoin="round"/><path d="M83.11 45.11C83.11 45.11 83.19 45.03 83.22 44.97C83.29 44.88 83.35 44.77 83.42 44.66C83.58 44.39 83.75 44.07 83.95 43.76" stroke="#003B2F" stroke-width="0.3" stroke-linecap="round" stroke-linejoin="round"/><path d="M82.32 44.65C82.41 45.02 82.75 45.45 83.11 45.11" stroke="#003B2F" stroke-width="0.3" stroke-linecap="round" stroke-linejoin="round"/><path d="M81.19 45.55C80.56 44.94 80.65 44.35 80.76 43.76C80.87 43.17 80.96 42.93 81.19 42.41C81.75 41.26 81.89 41.39 82.86 40.64C82.86 40.64 83.25 40.28 83.95 39.97C84.85 39.58 85.86 39.53 86.81 39.74C86.9 39.76 86.96 39.77 86.97 39.76C87.07 39.73 87.18 39.7 87.29 39.67" stroke="#003B2F" stroke-width="0.3" stroke-linecap="round" stroke-linejoin="round"/><path d="M88.77 53.69C88.96 53.9 89.18 54.05 89.45 54.14C89.45 54.14 89.68 54.54 90.08 54.76C90.17 54.81 90.28 54.86 90.39 54.88" stroke="#003B2F" stroke-width="0.3" stroke-linecap="round" stroke-linejoin="round"/><path d="M87.92 51.8C88.13 52.59 88.38 53.26 88.77 53.69" stroke="#003B2F" stroke-width="0.3" stroke-linecap="round" stroke-linejoin="round"/><path d="M86.94 48.86C87.22 49.31 87.5 49.91 87.63 50.5C87.72 50.96 87.82 51.39 87.92 51.8" stroke="#003B2F" stroke-width="0.3" stroke-linecap="round" stroke-linejoin="round"/><path d="M83.06 47.3C83.74 47.11 84.61 46.96 85.13 47.07" stroke="#003B2F" stroke-width="0.3" stroke-linecap="round" stroke-linejoin="round"/><path d="M89.35 53.03C89.35 53.03 89.71 54.2 90.57 54.46" stroke="#003B2F" stroke-width="0.3" stroke-linecap="round" stroke-linejoin="round"/><path d="M90.09 53.37C90.09 53.37 90.34 53.95 90.84 54.14" stroke="#003B2F" stroke-width="0.3" stroke-linecap="round" stroke-linejoin="round"/><path d="M88.3 49.94C88.3 49.94 88.63 51.4 89.7 52" stroke="#003B2F" stroke-width="0.3" stroke-linecap="round" stroke-linejoin="round"/><path d="M90.21 51.39C90.21 51.39 90.77 52.29 91.55 52.52" stroke="#003B2F" stroke-width="0.3" stroke-linecap="round" stroke-linejoin="round"/><path d="M91 51C91 51 91.46 51.74 92.1 51.93" stroke="#003B2F" stroke-width="0.3" stroke-linecap="round" stroke-linejoin="round"/><path d="M91.79 50.61C91.79 50.61 92.15 51.19 92.65 51.34" stroke="#003B2F" stroke-width="0.3" stroke-linecap="round" stroke-linejoin="round"/><path d="M92.58 50.22C92.58 50.22 92.84 50.64 93.2 50.74" stroke="#003B2F" stroke-width="0.3" stroke-linecap="round" stroke-linejoin="round"/><path d="M107.31 18.77C107.65 18.48 107.98 18.2 108.29 17.93C111.6 15.02 113.77 12.77 114.01 12.69C114.25 12.61 114.03 13.71 113.29 14.78C112.92 15.31 112.35 16.08 111.48 17.02C110.85 17.71 110.07 18.49 109.1 19.36C108.72 19.7 108.3 20.06 107.86 20.43" stroke="#003B2F" stroke-width="0.3" stroke-linecap="round" stroke-linejoin="round"/><path d="M90.98 40.35C91.79 39.6 93.72 37.71 94.49 36.34C96.5 32.76 97 30.76 97.28 29.05C97.35 28.63 97.42 28.27 97.51 27.94C97.8 26.91 98.27 26.18 99.39 25.13C100.06 24.5 101.37 23.47 102.86 22.31C104.31 21.18 105.93 19.93 107.3 18.78" stroke="#003B2F" stroke-width="0.3" stroke-linecap="round" stroke-linejoin="round"/><path d="M115.14 17.32C112.05 19.29 109.4 20.68 109.4 20.68" stroke="#003B2F" stroke-width="0.3" stroke-linecap="round" stroke-linejoin="round"/><path d="M113.93 15.87C117.36 13.43 120.34 11.37 121.31 10.63C122.72 9.56 123.02 9.56 123.1 9.67C123.17 9.78 122.83 11.64 119.31 14.42C119.07 14.61 118.81 14.8 118.54 15C117.42 15.82 116.25 16.61 115.14 17.31" stroke="#003B2F" stroke-width="0.3" stroke-linecap="round" stroke-linejoin="round"/><path d="M109.1 19.37C110.7 18.18 112.36 16.99 113.93 15.87" stroke="#003B2F" stroke-width="0.3" stroke-linecap="round" stroke-linejoin="round"/><path d="M115.14 17.33C116.19 16.84 117.26 16.35 118.3 15.88C122.97 13.77 127.25 12 128.08 11.85C129.09 11.67 129.43 11.89 129.39 12.07C129.36 12.23 127.22 13.82 123.98 15.7C123.54 15.95 123.09 16.21 122.61 16.47C122.15 16.72 121.64 16.99 121.11 17.25C117.04 19.27 111.38 21.47 111.38 21.47" stroke="#003B2F" stroke-width="0.3" stroke-linecap="round" stroke-linejoin="round"/><path d="M118.91 20.69C116.51 21.42 114.22 22.07 112.48 22.53C112.46 22.53 112.44 22.53 112.43 22.54" stroke="#003B2F" stroke-width="0.3" stroke-linecap="round" stroke-linejoin="round"/><path d="M121.12 17.25C121.8 17.07 122.47 16.91 123.11 16.75C128.52 15.45 132.32 15 131.84 15.91C131.62 16.32 129.36 17.24 126.34 18.29C124.1 19.07 121.44 19.92 118.9 20.69" stroke="#003B2F" stroke-width="0.3" stroke-linecap="round" stroke-linejoin="round"/><path d="M121.97 22.66C117.55 23.63 114.1 24.14 114.1 24.14" stroke="#003B2F" stroke-width="0.3" stroke-linecap="round" stroke-linejoin="round"/><path d="M122.09 20.12C126.39 19.45 130.2 19.25 130.31 19.63C130.42 20.01 128.76 20.87 125.59 21.76C124.8 21.98 123.91 22.21 122.94 22.43C122.91 22.43 122.89 22.44 122.86 22.45C122.56 22.52 122.26 22.59 121.96 22.65" stroke="#003B2F" stroke-width="0.3" stroke-linecap="round" stroke-linejoin="round"/><path d="M118.91 20.69C119.97 20.47 121.04 20.29 122.09 20.12" stroke="#003B2F" stroke-width="0.3" stroke-linecap="round" stroke-linejoin="round"/><path d="M119.32 25.88C115.41 26.51 112.39 26.5 112.39 26.5" stroke="#003B2F" stroke-width="0.3" stroke-linecap="round" stroke-linejoin="round"/><path d="M125.6 21.76C126.61 21.6 128.43 22.03 128.41 22.43C128.39 22.68 127.6 23.4 125.82 24.15C124.74 24.61 123.3 25.09 121.45 25.48C121.19 25.54 120.92 25.59 120.66 25.64C120.21 25.73 119.76 25.81 119.32 25.88" stroke="#003B2F" stroke-width="0.3" stroke-linecap="round" stroke-linejoin="round"/><path d="M117.79 28.03C114.43 28.45 111.95 28.38 111.95 28.38" stroke="#003B2F" stroke-width="0.3" stroke-linecap="round" stroke-linejoin="round"/><path d="M124.61 26.47C123.59 26.87 122.25 27.27 120.57 27.59C120.07 27.69 119.58 27.77 119.1 27.85C118.65 27.92 118.22 27.98 117.79 28.03" stroke="#003B2F" stroke-width="0.3" stroke-linecap="round" stroke-linejoin="round"/><path d="M125.82 24.16C126.8 24.02 127.39 24.38 127.36 24.77C127.34 25.02 126.5 25.75 124.62 26.47" stroke="#003B2F" stroke-width="0.3" stroke-linecap="round" stroke-linejoin="round"/><path d="M117.04 30.03C113.78 30.38 111.38 30.25 111.38 30.25" stroke="#003B2F" stroke-width="0.3" stroke-linecap="round" stroke-linejoin="round"/><path d="M117.68 29.96C117.46 29.99 117.25 30.01 117.04 30.03" stroke="#003B2F" stroke-width="0.3" stroke-linecap="round" stroke-linejoin="round"/><path d="M124.61 26.47C125.57 26.36 126.22 26.71 126.18 27.08C126.15 27.32 125.32 28.01 123.46 28.69C122.47 29.05 121.18 29.4 119.57 29.68C118.92 29.79 118.28 29.88 117.67 29.96" stroke="#003B2F" stroke-width="0.3" stroke-linecap="round" stroke-linejoin="round"/><path d="M114.99 32.1C112.45 32.24 110.69 32.1 110.69 32.1" stroke="#003B2F" stroke-width="0.3" stroke-linecap="round" stroke-linejoin="round"/><path d="M121.98 30.95C121.05 31.24 119.89 31.53 118.45 31.74C117.21 31.93 116.03 32.03 114.98 32.09" stroke="#003B2F" stroke-width="0.3" stroke-linecap="round" stroke-linejoin="round"/><path d="M123.47 28.69C124.41 28.6 124.94 29.01 124.89 29.37C124.86 29.62 123.98 30.31 121.98 30.95" stroke="#003B2F" stroke-width="0.3" stroke-linecap="round" stroke-linejoin="round"/><path d="M121.98 30.95C122.89 30.88 123.54 31.26 123.48 31.61C123.44 31.85 122.58 32.51 120.63 33.07C119.73 33.33 118.61 33.57 117.22 33.75C115.94 33.91 114.74 33.98 113.7 34.01" stroke="#003B2F" stroke-width="0.3" stroke-linecap="round" stroke-linejoin="round"/><path d="M119.06 35.16C118.21 35.38 117.16 35.57 115.89 35.69C115.24 35.76 114.6 35.8 114.01 35.82" stroke="#003B2F" stroke-width="0.3" stroke-linecap="round" stroke-linejoin="round"/><path d="M120.63 33.07C121.52 33.03 122.03 33.44 121.97 33.79C121.93 34.03 121.05 34.66 119.06 35.16" stroke="#003B2F" stroke-width="0.3" stroke-linecap="round" stroke-linejoin="round"/><path d="M112.75 37.64C109.98 37.67 107.99 37.28 107.99 37.28" stroke="#003B2F" stroke-width="0.3" stroke-linecap="round" stroke-linejoin="round"/><path d="M119.06 35.16C119.92 35.15 120.44 35.55 120.37 35.88C120.32 36.12 119.45 36.71 117.45 37.15C116.64 37.33 115.65 37.47 114.46 37.56C114.18 37.58 113.9 37.6 113.63 37.61C113.33 37.62 113.03 37.63 112.75 37.63" stroke="#003B2F" stroke-width="0.3" stroke-linecap="round" stroke-linejoin="round"/><path d="M111.88 39.37C109.01 39.37 106.9 38.84 106.9 38.84" stroke="#003B2F" stroke-width="0.3" stroke-linecap="round" stroke-linejoin="round"/><path d="M115.76 39.05C115 39.19 114.06 39.3 112.95 39.34C112.85 39.34 112.74 39.34 112.64 39.35C112.38 39.35 112.13 39.35 111.88 39.35" stroke="#003B2F" stroke-width="0.3" stroke-linecap="round" stroke-linejoin="round"/><path d="M117.45 37.16C118.29 37.16 118.76 37.58 118.68 37.9C118.62 38.13 117.76 38.7 115.76 39.06" stroke="#003B2F" stroke-width="0.3" stroke-linecap="round" stroke-linejoin="round"/><path d="M110.3 41C107.64 40.89 105.74 40.29 105.74 40.29" stroke="#003B2F" stroke-width="0.3" stroke-linecap="round" stroke-linejoin="round"/><path d="M115.76 39.05C116.57 39.09 116.99 39.49 116.91 39.8C116.85 40.03 115.98 40.56 113.96 40.84C113.28 40.94 112.47 41 111.51 41.02C111.46 41.02 111.4 41.02 111.35 41.02C110.99 41.02 110.64 41.02 110.3 41" stroke="#003B2F" stroke-width="0.3" stroke-linecap="round" stroke-linejoin="round"/><path d="M109.36 42.56C106.55 42.43 104.5 41.63 104.5 41.63" stroke="#003B2F" stroke-width="0.3" stroke-linecap="round" stroke-linejoin="round"/><path d="M113.96 40.84C114.75 40.9 115.16 41.28 115.07 41.58C115 41.8 114.16 42.3 112.18 42.5C111.64 42.56 111.01 42.59 110.29 42.59C110.09 42.59 109.89 42.59 109.67 42.59C109.56 42.59 109.45 42.59 109.35 42.58" stroke="#003B2F" stroke-width="0.3" stroke-linecap="round" stroke-linejoin="round"/><path d="M107.47 43.96C104.96 43.7 103.2 42.84 103.2 42.84" stroke="#003B2F" stroke-width="0.3" stroke-linecap="round" stroke-linejoin="round"/><path d="M112.18 42.5C112.95 42.58 113.26 42.95 113.16 43.23C113.09 43.45 112.26 43.91 110.29 44.02C109.7 44.06 109 44.06 108.19 44.01C108.11 44.01 108.03 44.01 107.95 44C107.79 43.99 107.63 43.97 107.47 43.96" stroke="#003B2F" stroke-width="0.3" stroke-linecap="round" stroke-linejoin="round"/><path d="M105.73 45.25C103.42 44.89 101.84 43.93 101.84 43.93" stroke="#003B2F" stroke-width="0.3" stroke-linecap="round" stroke-linejoin="round"/><path d="M106.74 45.37C106.56 45.35 106.37 45.33 106.17 45.31C106.02 45.29 105.88 45.27 105.74 45.25" stroke="#003B2F" stroke-width="0.3" stroke-linecap="round" stroke-linejoin="round"/><path d="M110.3 44.03C111.04 44.14 111.32 44.51 111.21 44.78C111.13 45 110.24 45.47 108.07 45.44C107.67 45.44 107.23 45.41 106.73 45.37" stroke="#003B2F" stroke-width="0.3" stroke-linecap="round" stroke-linejoin="round"/><path d="M104.34 46.65C102 46.27 100.45 45.06 100.45 45.06" stroke="#003B2F" stroke-width="0.3" stroke-linecap="round" stroke-linejoin="round"/><path d="M106.3 46.86C105.9 46.84 105.44 46.8 104.94 46.73C104.75 46.7 104.55 46.67 104.35 46.64" stroke="#003B2F" stroke-width="0.3" stroke-linecap="round" stroke-linejoin="round"/><path d="M108.08 45.44C108.8 45.57 109.33 46.08 109.21 46.34C109.12 46.55 108.3 46.96 106.3 46.86" stroke="#003B2F" stroke-width="0.3" stroke-linecap="round" stroke-linejoin="round"/><path d="M100.46 47.03C99.54 46.52 99.02 46 99.02 46" stroke="#003B2F" stroke-width="0.3" stroke-linecap="round" stroke-linejoin="round"/><path d="M101.97 47.67C101.39 47.49 100.88 47.26 100.46 47.03" stroke="#003B2F" stroke-width="0.3" stroke-linecap="round" stroke-linejoin="round"/><path d="M106.3 46.86C106.99 47.02 107.29 47.48 107.17 47.73C107.05 47.98 105.79 48.55 102.48 47.81C102.31 47.77 102.14 47.73 101.98 47.68" stroke="#003B2F" stroke-width="0.3" stroke-linecap="round" stroke-linejoin="round"/><path d="M108.99 35.62C108.99 35.62 111.1 35.94 114.01 35.82" stroke="#003B2F" stroke-width="0.3" stroke-linecap="round" stroke-linejoin="round"/><path d="M109.89 33.89C109.89 33.89 111.43 34.06 113.7 34.01" stroke="#003B2F" stroke-width="0.3" stroke-linecap="round" stroke-linejoin="round"/><path d="M89.41 15.55C89.68 16.64 89.86 18.15 89.85 20.13" stroke="#003B2F" stroke-width="0.3" stroke-linecap="round" stroke-linejoin="round"/><path d="M87.29 39.67C87.56 38.99 87.52 37.73 87.04 36.06C86.56 34.39 84.91 30.52 84.63 29.79C84.35 29.05 84.01 27.56 84.85 25.37C85.69 23.18 86.94 20.45 87 17.72C87.06 14.99 86.38 12.44 86.42 12.26C86.46 12.08 87.4 12.2 88.17 13.22C88.49 13.4 88.86 13.89 89.17 14.76C89.25 15 89.33 15.26 89.4 15.55" stroke="#003B2F" stroke-width="0.3" stroke-linecap="round" stroke-linejoin="round"/><path d="M91.31 17.62C91.6 18.49 91.84 19.55 91.97 20.81" stroke="#003B2F" stroke-width="0.3" stroke-linecap="round" stroke-linejoin="round"/><path d="M89.18 14.76C89.79 14.85 90.54 15.65 91.13 17.11C91.19 17.27 91.26 17.44 91.32 17.62" stroke="#003B2F" stroke-width="0.3" stroke-linecap="round" stroke-linejoin="round"/><path d="M94.59 23.27C94.99 24.47 95.45 25.63 96.04 26.48" stroke="#003B2F" stroke-width="0.3" stroke-linecap="round" stroke-linejoin="round"/><path d="M91.13 17.11C91.92 17.2 92.9 18.39 93.61 20.32C93.82 20.89 94.03 21.53 94.24 22.18C94.36 22.54 94.47 22.9 94.59 23.26" stroke="#003B2F" stroke-width="0.3" stroke-linecap="round" stroke-linejoin="round"/><path d="M94.24 22.19C95.07 22.76 96.95 26.25 97.51 27.94" stroke="#003B2F" stroke-width="0.3" stroke-linecap="round" stroke-linejoin="round"/><path d="M106.9 22.11C106.49 22.35 106.01 22.58 105.51 22.81" stroke="#003B2F" stroke-width="0.3" stroke-linecap="round" stroke-linejoin="round"/><path d="M102.86 22.31C104.32 21.33 106.92 20.34 107.86 20.44C108.04 20.46 108.16 20.51 108.2 20.62C108.39 21.07 107.82 21.59 106.91 22.11" stroke="#003B2F" stroke-width="0.3" stroke-linecap="round" stroke-linejoin="round"/><path d="M109.34 22.81C108.76 23.01 108.15 23.18 107.65 23.29" stroke="#003B2F" stroke-width="0.3" stroke-linecap="round" stroke-linejoin="round"/><path d="M106.9 22.11C108.67 21.4 110.8 21.18 111.31 21.48C111.38 21.52 111.42 21.57 111.42 21.63C111.45 21.96 110.43 22.44 109.32 22.82" stroke="#003B2F" stroke-width="0.3" stroke-linecap="round" stroke-linejoin="round"/><path d="M109.34 22.81C110.54 22.61 111.79 22.63 112.57 22.84C113.03 22.96 113.33 23.15 113.35 23.41C113.41 24.1 109.05 24.76 109.05 24.76" stroke="#003B2F" stroke-width="0.3" stroke-linecap="round" stroke-linejoin="round"/><path d="M106.53 26.18C105.86 26.45 105.22 26.69 104.89 26.82" stroke="#003B2F" stroke-width="0.3" stroke-linecap="round" stroke-linejoin="round"/><path d="M106.36 24.5C108.07 24.07 109.24 24.44 108.98 24.91C108.82 25.2 107.62 25.74 106.53 26.18" stroke="#003B2F" stroke-width="0.3" stroke-linecap="round" stroke-linejoin="round"/><path d="M106.36 27.72C104.85 28.67 102.64 29.96 102.64 29.96" stroke="#003B2F" stroke-width="0.3" stroke-linecap="round" stroke-linejoin="round"/><path d="M106.53 26.18C107.46 26.05 107.8 26.5 107.74 26.76C107.72 26.85 107.13 27.24 106.36 27.72" stroke="#003B2F" stroke-width="0.3" stroke-linecap="round" stroke-linejoin="round"/><path d="M87.2 59.56C87.28 59.79 86.98 60.03 86.98 60.03C86.94 60.01 86.89 60 86.84 60C86.62 59.99 86.3 60.11 86.08 60.26C86.21 60.02 86.36 59.83 86.53 59.71C86.73 59.56 86.96 59.5 87.19 59.56H87.2Z" stroke="#003B2F" stroke-width="0.3" stroke-linecap="round" stroke-linejoin="round"/><path d="M88.15 60.45C88.42 60.49 88.63 60.57 88.74 60.67C88.88 60.79 89.09 60.99 89.3 60.99" stroke="#003B2F" stroke-width="0.3" stroke-linecap="round" stroke-linejoin="round"/><path d="M86.98 60.04C86.87 60.35 87.29 60.87 87.89 60.43C87.98 60.43 88.07 60.43 88.15 60.45" stroke="#003B2F" stroke-width="0.3" stroke-linecap="round" stroke-linejoin="round"/><path d="M87.2 59.56C87.49 59.42 87.71 59.42 88.03 59.53C88.28 59.62 88.68 59.81 88.98 59.86C89.07 59.87 89.15 59.88 89.22 59.86C89.42 59.8 89.43 59.55 89.8 59.22" stroke="#003B2F" stroke-width="0.3" stroke-linecap="round" stroke-linejoin="round"/><path d="M82.15 59.6C82.02 59.78 81.94 60.11 81.95 60.38C81.67 59.86 81.64 59.36 81.97 59.07C82.2 59.13 82.25 59.51 82.25 59.51C82.21 59.53 82.18 59.57 82.15 59.61" stroke="#003B2F" stroke-width="0.3" stroke-linecap="round" stroke-linejoin="round"/><path d="M82.31 59.47C82.37 59.79 83 60.02 83.29 59.34C83.38 59.29 83.46 59.25 83.54 59.22C83.54 59.22 83.61 59.52 84.29 58.95" stroke="#003B2F" stroke-width="0.3" stroke-linecap="round" stroke-linejoin="round"/><path d="M80.57 59.78C80.8 59.85 80.82 60.24 80.82 60.24C80.61 60.34 80.47 60.77 80.46 61.09C80.22 60.55 80.23 60.05 80.58 59.78H80.57Z" stroke="#003B2F" stroke-width="0.3" stroke-linecap="round" stroke-linejoin="round"/><path d="M80.57 59.78C80.59 59.5 80.77 58.72 81.47 58.5C81.47 58.5 81.7 58.31 81.97 58.34C82.29 58.38 82.48 58.19 82.8 58.31C83.12 58.42 83.71 58.72 83.99 58.64C84.27 58.56 85.23 57.79 85.23 57.79" stroke="#003B2F" stroke-width="0.3" stroke-linecap="round" stroke-linejoin="round"/><path d="M85.98 57.01C85.98 57.01 86.57 56.29 86.66 56.04C86.75 55.36 86.95 53.89 86.93 53.42C86.91 52.94 86.91 52.77 87.16 52.19C87.41 51.61 87.76 50.39 87.35 49.87" stroke="#003B2F" stroke-width="0.3" stroke-linecap="round" stroke-linejoin="round"/><path d="M93.27 52.47C94.05 52.17 94.95 51.96 95.72 51.96" stroke="#003B2F" stroke-width="0.3" stroke-linecap="round" stroke-linejoin="round"/><path d="M89.04 58.06C89.51 57.93 89.82 57.74 90.05 57.45C90.08 57.41 90.11 57.37 90.14 57.32C90.22 57.19 90.29 57.03 90.35 56.86C90.39 56.68 90.42 56.5 90.46 56.33C90.71 55.17 91 54.09 91.52 53.51C91.82 53.18 92.49 52.79 93.28 52.49" stroke="#003B2F" stroke-width="0.3" stroke-linecap="round" stroke-linejoin="round"/><path d="M89.05 58.04C88.72 58.23 88.41 58.58 88.37 58.98C88.62 58.84 89.16 58.87 89.45 58.83C89.26 59.16 89.21 59.4 89.21 59.4C89.21 59.4 89.76 59.19 90.04 59.18C89.95 59.47 90.13 59.82 90.27 59.94" stroke="#003B2F" stroke-width="0.3" stroke-linecap="round" stroke-linejoin="round"/><path d="M92.61 59.32C92.65 59.08 92.71 58.83 92.8 58.57" stroke="#003B2F" stroke-width="0.3" stroke-linecap="round" stroke-linejoin="round"/><path d="M90.28 59.94C90.31 60 90.34 60.07 90.37 60.12C90.46 60.28 90.58 60.42 90.73 60.55C90.9 61 91.43 61.5 91.86 61.6C91.79 60.98 91.83 60.5 91.83 60.5C91.83 60.5 92.18 60.91 92.72 61.01C92.6 60.65 92.48 60.07 92.61 59.31" stroke="#003B2F" stroke-width="0.3" stroke-linecap="round" stroke-linejoin="round"/><path d="M94.4 57.25C94.46 56.61 94.38 55.83 94.06 54.88" stroke="#003B2F" stroke-width="0.3" stroke-linecap="round" stroke-linejoin="round"/><path d="M92.61 59.32C92.62 59.79 92.98 60.23 93.32 60.32C93.27 59.97 93.38 59.48 93.53 59.22C93.89 58.88 94.3 58.27 94.4 57.32C94.4 57.3 94.4 57.28 94.4 57.26" stroke="#003B2F" stroke-width="0.3" stroke-linecap="round" stroke-linejoin="round"/><path d="M89.96 55.07C89.96 55.07 89.96 55.4 89.96 55.82C89.98 56.3 90.02 56.91 90.13 57.31" stroke="#003B2F" stroke-width="0.3" stroke-linecap="round" stroke-linejoin="round"/><path d="M89.14 56.43C89.08 56.26 89.03 56.05 89 55.82" stroke="#003B2F" stroke-width="0.3" stroke-linecap="round" stroke-linejoin="round"/><path d="M90.04 57.44C90.04 57.44 89.43 57.25 89.13 56.44" stroke="#003B2F" stroke-width="0.3" stroke-linecap="round" stroke-linejoin="round"/><path d="M89.14 56.43C89.22 56.73 88.95 57.54 88.95 57.54C88.95 57.54 88.69 57.24 88.67 56.84C88.54 56.99 88.33 57.54 88.3 57.87C87.81 57.73 87.59 57.16 87.59 57.16C87.59 57.16 87.36 58.04 87.61 58.57L87.07 58.02C86.8 58.4 86.47 58.93 86.47 58.93C86.47 58.93 86.3 58.45 86.41 58.26C86.17 58.42 85.54 58.8 85.54 58.8C85.54 58.8 85.54 57.87 85.69 57.62C85.69 57.62 85.15 57.81 84.79 57.74C84.79 57.74 85.78 57.26 86.06 56.89" stroke="#003B2F" stroke-width="0.3" stroke-linecap="round" stroke-linejoin="round"/><path d="M93.27 52.47C93.6 51.8 94.08 51.25 95.05 51" stroke="#003B2F" stroke-width="0.3" stroke-linecap="round" stroke-linejoin="round"/><path d="M89.97 55.82C89.97 55.82 90.12 56.09 90.46 56.32" stroke="#003B2F" stroke-width="0.3" stroke-linecap="round" stroke-linejoin="round"/><path d="M94.4 57.25C94.4 57.25 95.07 56.5 95.12 55.32" stroke="#003B2F" stroke-width="0.3" stroke-linecap="round" stroke-linejoin="round"/><path d="M94.91 57.42C95.32 57.48 95.93 57.5 96.56 57.31" stroke="#003B2F" stroke-width="0.3" stroke-linecap="round" stroke-linejoin="round"/><path d="M94.4 57.31C94.4 57.31 94.6 57.37 94.91 57.42" stroke="#003B2F" stroke-width="0.3" stroke-linecap="round" stroke-linejoin="round"/><path d="M97.32 58.24C97.59 58.3 97.8 58.38 97.96 58.5" stroke="#003B2F" stroke-width="0.3" stroke-linecap="round" stroke-linejoin="round"/><path d="M94.91 57.42C95.38 57.91 95.73 58.01 96.47 58.11C96.76 58.15 97.01 58.18 97.22 58.22C97.25 58.22 97.28 58.23 97.32 58.24" stroke="#003B2F" stroke-width="0.3" stroke-linecap="round" stroke-linejoin="round"/><path d="M102.82 52.62C102.82 52.62 102.33 49.44 100.46 47.03" stroke="#003B2F" stroke-width="0.3" stroke-linecap="round" stroke-linejoin="round"/><path d="M86.81 39.74C87.86 39.99 89.9 40.29 90.98 40.35C91.71 40.39 92.43 40.35 93.12 40.09C93.29 40.03 93.47 39.97 93.73 40.02C92.85 40.83 91.85 41.22 90.73 41.36C90.92 41.55 91.15 41.55 91.36 41.58C92.37 41.71 93.39 41.74 94.42 41.74C94.61 41.74 94.82 41.69 95.03 41.83C94.35 42.29 93.58 42.41 92.81 42.56C93.07 42.78 93.72 42.96 94.71 43.07C95.37 43.14 96.03 43.18 96.78 43.24C96.57 43.44 96.37 43.52 96.17 43.59C95.34 43.88 94.49 44.01 93.61 43.97C93.47 43.97 93.33 43.97 93.19 43.97C93.1 44.12 93.25 44.11 93.31 44.15C93.48 44.25 93.64 44.37 93.83 44.42C94.7 44.84 95.63 44.96 96.58 44.99C95.67 45.41 94.72 45.44 93.75 45.42C92.77 45.4 91.83 45.18 90.84 44.91C91.07 45.28 91.7 45.64 92.49 45.93C93.08 46.15 93.71 46.19 94.31 46.4C93.47 46.72 92.65 46.44 91.76 46.25C92 46.82 92.51 47.02 92.9 47.34C93.23 47.59 93.59 47.78 93.97 47.95C94.54 48.17 95.11 48.41 95.76 48.51C95.13 48.9 93.03 48.58 91.76 47.92C91.47 47.83 91.24 47.64 90.98 47.51C90.91 47.48 90.83 47.35 90.75 47.51C91.11 48.2 91.6 48.79 92.18 49.38C91.82 49.29 91.45 49.2 91.09 49.11C90.59 48.87 90.11 48.6 89.65 48.29C89.36 48.11 89.12 47.86 88.78 47.75C89.27 48.73 90.06 49.45 90.94 50.08C91.04 50.2 91.19 50.24 91.31 50.32C91.36 50.36 91.44 50.38 91.37 50.47C90.77 50.55 90.24 50.3 89.7 50.11C89.39 49.98 89.09 49.81 88.82 49.61C88.1 49.11 87.51 48.47 86.89 47.83C86.92 48.56 87.09 49.29 86.72 50.07C86.34 48.71 86.19 47.95 85.15 47.07" stroke="#003B2F" stroke-width="0.3" stroke-linecap="round" stroke-linejoin="round"/><path d="M111.36 56.66C113.05 57.37 114.57 57.94 116.31 58.53C117.14 58.81 117.99 58.95 118.87 59.24C118.47 59.59 118.12 59.61 117.55 59.71C116.89 59.76 116.56 59.78 115.94 59.65C115.56 59.54 115.3 59.45 115.03 59.36C111.77 58.36 108.94 56.47 105.91 54.98" stroke="#003B2F" stroke-width="0.3" stroke-linecap="round" stroke-linejoin="round"/><path d="M104.62 53.16C106.75 54.09 108.88 55.02 111.02 55.95C112.28 56.5 113.54 57.04 114.81 57.59C114.92 57.64 115.02 57.69 115.11 57.74C115.11 57.79 115.11 57.8 115.1 57.82C115.1 57.83 115.08 57.84 115.07 57.84C115.04 57.84 115.01 57.86 114.99 57.85" stroke="#003B2F" stroke-width="0.3" stroke-linecap="round" stroke-linejoin="round"/><path d="M102.64 51.64C104.18 52.19 106.37 53.14 107.92 53.68C109.24 54.14 110.58 54.5 111.94 54.81C112.4 54.91 112.87 54.96 113.35 55.18C112.97 55.49 112.7 55.89 112.25 55.92C111.92 55.92 110.69 55.67 110.36 55.59" stroke="#003B2F" stroke-width="0.3" stroke-linecap="round" stroke-linejoin="round"/><path d="M103.55 59.21C104.29 60.36 104.93 61.61 105.55 62.9C105.98 63.79 106.31 64.67 106.73 65.53C106.4 65.62 106.22 65.62 105.88 65.54C105.4 65.43 105.05 65.15 104.77 64.76C104.34 64.16 103.97 63.53 103.61 62.88C103.07 61.9 102.54 60.92 102.01 59.93C101.93 59.79 101.87 59.63 101.67 59.56C101.63 59.87 101.77 60.12 101.89 60.36C102.58 61.8 103.28 63.23 103.98 64.66C104.08 64.87 104.18 65.08 104.25 65.3C104.31 65.5 104.22 65.59 104.02 65.51C103.71 65.39 103.47 65.16 103.25 64.91C102.83 64.44 102.5 63.9 102.24 63.33C101.66 62.08 100.71 60.77 100.14 59.51" stroke="#003B2F" stroke-width="0.3" stroke-linecap="round" stroke-linejoin="round"/><path d="M104.59 57.86C106.21 59.8 108.32 62.41 110.17 64.12C110.67 64.58 111.17 65.04 111.67 65.5C111.73 65.55 111.83 65.59 111.79 65.69C111.75 65.79 111.66 65.81 111.56 65.82C110.7 65.92 109.89 65.73 109.15 65.3C108.7 65.04 108.3 64.7 107.93 64.34C106.3 62.78 104.98 60.95 103.55 59.21" stroke="#003B2F" stroke-width="0.3" stroke-linecap="round" stroke-linejoin="round"/><path d="M100.14 59.53C100.65 61.06 101.24 62.55 101.84 64.04C101.93 64.27 102.03 64.49 102.04 64.74C102.04 64.99 101.92 65.03 101.73 64.9C101.47 64.71 101.3 64.44 101.15 64.17C100.64 63.27 100.45 62.25 100.12 61.29C100.05 61.1 100 60.9 99.93 60.71C99.9 60.62 99.82 60.45 99.63 60.16C99.59 60.51 99.64 60.71 99.66 60.8C99.77 61.43 99.9 62.05 100.12 62.66C100.24 62.98 100.34 63.31 100.43 63.63C100.49 63.86 100.59 64.17 100.32 64.29C100.05 64.42 99.73 64.37 99.48 64.18C99.22 63.98 99.09 63.69 99.01 63.38C98.83 62.74 98.78 62.09 98.73 61.42C98.68 60.65 98.67 59.89 98.67 59.12C98.67 59.03 98.7 58.93 98.71 58.84" stroke="#003B2F" stroke-width="0.3" stroke-linecap="round" stroke-linejoin="round"/><path d="M113.98 64.85C113.65 64.9 113.48 64.82 113.29 64.78C111.54 64.33 110.18 63.24 108.84 62.12C107.41 60.91 106.12 59.52 104.84 58.16" stroke="#003B2F" stroke-width="0.3" stroke-linecap="round" stroke-linejoin="round"/><path d="M98.7 58.85C98.42 59.62 98.28 60.82 98.19 61.47C98.14 61.81 98.21 62.51 98.25 62.85C98.28 63.08 98.35 63.37 98.06 63.49C97.78 63.61 97.5 63.54 97.27 63.33C96.79 62.88 96.72 62.29 96.66 61.69C96.65 61.41 96.64 61.39 96.66 60.61C96.85 59.8 97 59.14 97.39 58.37" stroke="#003B2F" stroke-width="0.3" stroke-linecap="round" stroke-linejoin="round"/><path d="M105.96 57.86C108.7 60.06 111.63 62.02 114.45 64.11C114.66 64.27 115.03 64.5 114.91 64.7C114.76 64.94 114.09 64.87 113.87 64.78" stroke="#003B2F" stroke-width="0.3" stroke-linecap="round" stroke-linejoin="round"/><path d="M113.17 60.86C113.99 61.52 114.95 62.06 115.91 62.32C116.02 62.35 116.12 62.41 116.27 62.48C116.13 62.82 115.64 63.18 115.43 63.21C115.15 63.21 114.87 63.2 114.6 63.12C113.81 62.94 113.06 62.66 112.35 62.28C109.14 60.53 109.06 59.88 105.74 57.71" stroke="#003B2F" stroke-width="0.3" stroke-linecap="round" stroke-linejoin="round"/><path d="M115.03 59.36L116.34 60.72C116.54 60.88 116.58 61.32 116.34 61.64C116.1 61.85 115.85 61.67 115.61 61.64C114.2 61.39 112.93 60.81 111.71 60.09C109.95 59.06 108.29 57.86 106.65 56.64C106.07 56.21 105.48 55.8 104.89 55.38" stroke="#003B2F" stroke-width="0.3" stroke-linecap="round" stroke-linejoin="round"/><path d="M80.82 60.24C80.82 60.24 81.35 60.24 81.43 59.71" stroke="#003B2F" stroke-width="0.3" stroke-linecap="round" stroke-linejoin="round"/><path d="M81.98 59.03C81.98 59.03 81.98 58.36 82.53 58.27" stroke="#003B2F" stroke-width="0.3" stroke-linecap="round" stroke-linejoin="round"/><path d="M43.78 89.16H38.92C40.46 89.16 41.71 88.03 41.71 86.63C41.71 85.23 40.46 84.1 38.92 84.1H24.95C23.41 84.1 22.16 85.23 22.16 86.63H17.87C16.33 86.63 15.08 87.76 15.08 89.16C15.08 90.56 16.33 91.69 17.87 91.69H27.02C27.02 93.09 28.27 94.22 29.81 94.22H43.78C45.32 94.22 46.57 93.09 46.57 91.69C46.57 90.29 45.32 89.16 43.78 89.16Z" fill="#E6E8EA"/><path d="M60.78 17.96H55.92C57.46 17.96 58.71 16.71 58.71 15.17C58.71 13.63 57.46 12.38 55.92 12.38H41.95C40.41 12.38 39.16 13.63 39.16 15.17H34.87C33.33 15.17 32.08 16.42 32.08 17.96C32.08 19.5 33.33 20.75 34.87 20.75H44.02C44.02 22.29 45.27 23.54 46.81 23.54H60.78C62.32 23.54 63.57 22.29 63.57 20.75C63.57 19.21 62.32 17.96 60.78 17.96Z" fill="#E6E8EA"/><path d="M26.15 72.66L28.67 74.12" stroke="#003B2F" stroke-width="0.3" stroke-linecap="round" stroke-linejoin="round"/><path d="M31.2 72.66L29.71 73.52" stroke="#003B2F" stroke-width="0.3" stroke-linecap="round" stroke-linejoin="round"/><path d="M28.67 74.12V77.07" stroke="#003B2F" stroke-width="0.3" stroke-linecap="round" stroke-linejoin="round"/><path d="M31.56 49.52H49.83" stroke="#03FC9D" stroke-width="0.3" stroke-linecap="round" stroke-linejoin="round"/><path d="M44.16 53.03H58.27" stroke="#003B2F" stroke-width="0.3" stroke-linecap="round" stroke-linejoin="round"/><path d="M36.04 53.03H41.38" stroke="#003B2F" stroke-width="0.3" stroke-linecap="round" stroke-linejoin="round"/><path d="M70.6 25.89V28.24" stroke="#003B2F" stroke-width="0.3" stroke-linecap="round" stroke-linejoin="round"/><path d="M70.6 29.96V32.32" stroke="#003B2F" stroke-width="0.3" stroke-linecap="round" stroke-linejoin="round"/><path d="M67.38 29.1H69.74" stroke="#003B2F" stroke-width="0.3" stroke-linecap="round" stroke-linejoin="round"/><path d="M71.46 29.1H73.82" stroke="#003B2F" stroke-width="0.3" stroke-linecap="round" stroke-linejoin="round"/><path d="M18.69 27.3L42.98 27.3C45.6586 27.3 47.83 25.1308 47.83 22.455C47.83 19.7792 45.6586 17.61 42.98 17.61L18.69 17.61C16.0114 17.61 13.84 19.7792 13.84 22.455C13.84 25.1308 16.0114 27.3 18.69 27.3Z" fill="#03FC9D"/><path d="M52 64.36C52.72 65.03 53.28 65.89 53.59 66.9C54.5 69.92 52.78 73.1 49.77 74.01C46.75 74.92 43.57 73.2 42.66 70.19C41.75 67.17 43.47 63.99 46.48 63.08C47.48 62.78 48.49 62.77 49.43 62.99" stroke="#003B2F" stroke-width="0.3" stroke-linecap="round" stroke-linejoin="round"/><path fill-rule="evenodd" clip-rule="evenodd" d="M46.65 65.64L46.24 65.4C46.76 65.17 48.22 64.83 49.88 65.33C49.93 65.45 49.97 65.58 49.97 65.58L50.09 65.61C50.18 65.69 50.28 65.82 50.37 65.98C50.48 66.18 50.56 66.41 50.58 66.66C50.59 66.88 50.57 67.09 50.5 67.3C50.46 67.43 50.41 67.52 50.38 67.57C50.2 67.63 49.91 67.85 49.94 68.28C49.71 68.53 49.31 68.82 48.72 69C48.13 69.18 47.54 69.18 47.01 69C46.49 68.82 46.06 68.44 45.88 67.83C45.73 67.34 45.84 66.9 46.03 66.54C46.22 66.18 46.54 65.84 46.73 65.69L46.66 65.66L46.65 65.64Z" stroke="#003B2F" stroke-width="0.3" stroke-linecap="round" stroke-linejoin="round"/><path fill-rule="evenodd" clip-rule="evenodd" d="M49.31 65.7C49.24 65.85 49.15 65.94 49.13 65.96C48.45 66.01 48.12 65.73 48.12 65.73C48.72 65.55 49.31 65.53 49.78 65.67C49.78 65.67 49.54 65.67 49.32 65.7H49.31Z" fill="#003B2F"/><path d="M45.88 65.87C45.71 65.99 45.56 66.13 45.42 66.28C44.67 67.1 44.35 68.29 44.7 69.46C45.28 71.4 47.4 72.51 49.42 71.9C50.93 71.45 51.9 70.15 52.19 68.72C51.48 69.13 50.51 69.14 50.11 68.6" stroke="#003B2F" stroke-width="0.3" stroke-linecap="round" stroke-linejoin="round"/><path d="M50.62 65.81C50.95 65.99 51.22 66.25 51.32 66.67C51.51 67.43 51.15 67.86 50.87 68C50.94 67.72 50.78 67.61 50.72 67.58" stroke="#003B2F" stroke-width="0.3" stroke-linecap="round" stroke-linejoin="round"/><path d="M144.95 48.45C148.02 47.5 151.27 49.21 152.23 52.27C153.18 55.34 151.47 58.59 148.41 59.55C145.35 60.51 142.09 58.79 141.13 55.73C140.18 52.66 141.89 49.41 144.95 48.45Z" fill="#03FC9D"/><path d="M149.67 49.77C150.4 50.43 150.97 51.29 151.28 52.3C152.22 55.31 150.54 58.51 147.53 59.44C144.52 60.37 141.32 58.7 140.39 55.69C139.45 52.68 141.13 49.48 144.14 48.55C145.13 48.24 146.15 48.22 147.09 48.43" stroke="#003B2F" stroke-width="0.3" stroke-linecap="round" stroke-linejoin="round"/><path fill-rule="evenodd" clip-rule="evenodd" d="M144.33 51.09L143.91 50.86C144.43 50.62 145.88 50.27 147.55 50.75C147.61 50.87 147.64 51 147.64 51L147.76 51.02C147.85 51.1 147.95 51.23 148.04 51.39C148.15 51.59 148.24 51.82 148.26 52.06C148.28 52.28 148.26 52.49 148.19 52.7C148.15 52.83 148.11 52.92 148.07 52.97C147.9 53.03 147.6 53.25 147.64 53.69C147.41 53.94 147.02 54.24 146.43 54.42C145.84 54.6 145.25 54.61 144.72 54.42C144.2 54.24 143.76 53.87 143.57 53.26C143.42 52.77 143.52 52.33 143.71 51.97C143.9 51.61 144.21 51.26 144.4 51.12L144.33 51.09Z" stroke="#003B2F" stroke-width="0.3" stroke-linecap="round" stroke-linejoin="round"/><path fill-rule="evenodd" clip-rule="evenodd" d="M147 51.13C146.93 51.28 146.85 51.37 146.82 51.39C146.14 51.44 145.81 51.17 145.81 51.17C146.41 50.98 146.99 50.96 147.47 51.09C147.47 51.09 147.23 51.09 147.01 51.12L147 51.13Z" fill="#003B2F"/><path d="M143.56 51.33C143.39 51.45 143.24 51.59 143.1 51.75C142.36 52.58 142.05 53.78 142.42 54.94C143.02 56.87 145.15 57.96 147.16 57.33C148.66 56.86 149.63 55.55 149.9 54.12C149.2 54.54 148.23 54.56 147.82 54.02" stroke="#003B2F" stroke-width="0.3" stroke-linecap="round" stroke-linejoin="round"/><path d="M148.31 51.22C148.64 51.39 148.91 51.66 149.02 52.07C149.22 52.83 148.86 53.26 148.58 53.41C148.65 53.13 148.48 53.02 148.42 52.99" stroke="#003B2F" stroke-width="0.3" stroke-linecap="round" stroke-linejoin="round"/><path d="M55.68 30.12C58.58 31.5 59.82 34.96 58.44 37.87C57.06 40.78 53.6 42.01 50.69 40.63C47.78 39.25 46.55 35.79 47.93 32.88C49.31 29.98 52.77 28.74 55.68 30.12Z" fill="#03FC9D"/><path d="M58.26 34.29C58.35 35.27 58.18 36.29 57.73 37.24C56.38 40.09 52.98 41.3 50.13 39.95C47.28 38.6 46.07 35.2 47.42 32.35C48.77 29.5 52.17 28.29 55.02 29.64C55.96 30.09 56.72 30.75 57.27 31.55" stroke="#003B2F" stroke-width="0.3" stroke-linecap="round" stroke-linejoin="round"/><path fill-rule="evenodd" clip-rule="evenodd" d="M53.43 31.64L53.28 31.19C53.82 31.37 55.13 32.09 56.03 33.58C55.99 33.71 55.93 33.82 55.93 33.82L56 33.92C56 34.04 56 34.2 55.96 34.38C55.91 34.6 55.82 34.83 55.66 35.02C55.53 35.19 55.36 35.33 55.17 35.44C55.06 35.51 54.96 35.54 54.9 35.56C54.73 35.48 54.37 35.45 54.1 35.8C53.76 35.83 53.27 35.78 52.71 35.52C52.15 35.26 51.71 34.86 51.45 34.37C51.19 33.88 51.12 33.32 51.4 32.74C51.62 32.28 51.99 32.02 52.38 31.88C52.77 31.74 53.23 31.7 53.47 31.72L53.44 31.65L53.43 31.64Z" stroke="#003B2F" stroke-width="0.3" stroke-linecap="round" stroke-linejoin="round"/><path fill-rule="evenodd" clip-rule="evenodd" d="M55.36 33.48C55.2 33.54 55.08 33.55 55.05 33.55C54.51 33.13 54.45 32.7 54.45 32.7C55.02 32.97 55.46 33.35 55.72 33.76C55.72 33.76 55.55 33.59 55.36 33.47V33.48Z" fill="#003B2F"/><path d="M52.7 31.3C52.49 31.28 52.29 31.28 52.08 31.3C50.98 31.4 49.94 32.08 49.42 33.18C48.55 35.01 49.38 37.25 51.28 38.15C52.7 38.82 54.3 38.52 55.47 37.64C54.67 37.47 53.94 36.83 54.01 36.16" stroke="#003B2F" stroke-width="0.3" stroke-linecap="round" stroke-linejoin="round"/><path d="M56.26 34.44C56.39 34.79 56.41 35.17 56.21 35.55C55.84 36.25 55.28 36.32 54.99 36.24C55.23 36.08 55.18 35.89 55.16 35.82" stroke="#003B2F" stroke-width="0.3" stroke-linecap="round" stroke-linejoin="round"/></svg>