<svg width="1920" height="1080" viewBox="0 0 1920 1080" fill="none" xmlns="http://www.w3.org/2000/svg"><path d="M1199.5 209.431C1186.96 236.72 1169.22 256.309 1156.45 258.314C1154.15 258.704 1151.94 258.445 1150 257.563C1137.44 251.793 1139.23 221.008 1153.97 188.661C1168.78 156.408 1190.91 134.76 1203.46 140.529L1204.99 141.43C1206.71 142.611 1208.11 144.323 1209.24 146.658C1214.88 158.496 1211.35 183.364 1199.57 209.525L1199.5 209.431Z" fill="#E6E8EA"/><path d="M1204.99 141.428L1215.69 147.408C1228.25 153.178 1226.46 183.963 1211.65 216.216C1196.92 248.563 1174.65 270.023 1162.16 264.347L1160.71 263.541L1150.01 257.561C1151.95 258.444 1154.15 258.702 1156.45 258.312C1169.29 256.401 1187.03 236.812 1199.5 209.43C1211.35 183.363 1214.81 158.401 1209.17 146.563C1208.11 144.322 1206.65 142.516 1204.92 141.335L1204.99 141.428Z" fill="#8F9F99"/><path d="M1204.99 141.428L1215.69 147.408C1228.25 153.177 1226.46 183.963 1211.65 216.216C1196.92 248.562 1174.65 270.023 1162.16 264.347L1160.71 263.54L1150.01 257.561" stroke="#003B2F" stroke-width="2.40961" stroke-linecap="round" stroke-linejoin="round"/><path d="M1204.99 141.428C1206.72 142.61 1208.11 144.322 1209.24 146.657C1214.88 158.495 1211.35 183.362 1199.57 209.523C1187.03 236.812 1169.29 256.401 1156.52 258.406C1154.22 258.796 1152.01 258.537 1150.07 257.655" stroke="#003B2F" stroke-width="2.40961" stroke-linecap="round" stroke-linejoin="round"/><path d="M1156.45 258.314C1154.15 258.704 1151.94 258.446 1150 257.563C1137.44 251.794 1139.16 220.915 1153.97 188.662C1168.78 156.409 1190.91 134.76 1203.53 140.624L1204.99 141.431C1206.71 142.612 1208.18 144.417 1209.24 146.659C1214.81 158.404 1211.35 183.365 1199.5 209.432C1187.03 236.815 1169.22 256.309 1156.45 258.314Z" stroke="#003B2F" stroke-width="2.40961" stroke-linecap="round" stroke-linejoin="round"/><path d="M1149.82 251.223C1144.2 243.541 1145.23 219.781 1158.47 190.689C1165.29 175.635 1174.13 162.556 1183.03 153.888C1190.48 146.572 1197.56 143.268 1201.6 145.058L1202.66 145.72C1202.66 145.72 1203.39 146.333 1203.87 146.989C1204.21 147.457 1204.69 148.113 1204.92 148.812C1209.11 157.684 1207.84 179.747 1195.22 207.523C1182.49 235.529 1165.46 252.155 1155.85 253.571C1154.32 253.831 1153.25 253.749 1152.17 253.248C1151.24 252.773 1150.58 252.254 1149.82 251.223Z" stroke="#003B2F" stroke-width="2.40961" stroke-linecap="round" stroke-linejoin="round"/><path d="M1549.16 647.313C1537.86 658.494 1504.8 642.938 1475.51 612.797C1446.22 582.655 1431.64 549.233 1442.94 538.295L1457.04 525.047C1454.73 527.478 1453.39 530.759 1453.15 534.77C1452.3 550.084 1466.27 576.092 1489.49 600.035C1512.34 623.613 1537.49 638.198 1552.93 638.198C1557.31 638.198 1560.95 637.104 1563.5 634.552L1549.04 647.434L1549.16 647.313Z" fill="#8F9F99"/><path d="M1563.63 634.551C1561.07 637.103 1557.43 638.197 1553.05 638.197C1537.62 638.197 1512.46 623.491 1489.61 600.034C1466.28 576.213 1452.3 550.083 1453.27 534.769C1453.39 530.758 1454.61 527.477 1457.16 525.046C1468.58 513.865 1501.76 529.421 1531.18 559.684C1560.59 589.825 1575.17 623.369 1563.75 634.551H1563.63Z" fill="#E6E8EA"/><path d="M1563.63 634.552L1549.16 647.435C1537.86 658.616 1504.8 643.059 1475.51 612.918C1446.22 582.777 1431.64 549.354 1442.94 538.416L1457.04 525.169" stroke="#003B2F" stroke-width="2.40961" stroke-linecap="round" stroke-linejoin="round"/><path d="M1563.63 634.551C1561.07 637.103 1557.43 638.197 1553.05 638.197C1537.62 638.197 1512.46 623.491 1489.61 600.034C1466.28 576.213 1452.3 550.083 1453.27 534.769C1453.39 530.758 1454.61 527.477 1457.16 525.046C1468.58 513.865 1501.76 529.421 1531.18 559.684C1560.59 589.825 1575.17 623.369 1563.75 634.551H1563.63Z" stroke="#003B2F" stroke-width="2.40961" stroke-linecap="round" stroke-linejoin="round"/><path d="M1552.94 638.077C1537.5 638.077 1512.46 623.371 1489.49 599.914C1466.16 576.093 1452.18 549.962 1453.15 534.649C1453.4 530.638 1454.61 527.357 1457.04 524.926C1468.47 513.744 1501.65 529.301 1531.06 559.442C1560.47 589.705 1575.05 623.249 1563.63 634.309C1561.08 636.861 1557.43 637.955 1553.06 637.955L1552.94 638.077Z" stroke="#003B2F" stroke-width="2.40961" stroke-linecap="round" stroke-linejoin="round"/><path d="M1459.35 540.847C1458.98 538.781 1458.86 536.836 1458.86 535.135C1458.86 532.461 1459.71 530.516 1461.05 529.301C1464.57 525.898 1473.69 526.992 1484.87 532.218C1498.24 538.416 1513.19 549.719 1526.92 563.817C1545.52 582.899 1558.64 604.046 1561.32 618.995C1561.8 622.155 1562.41 627.867 1559.62 630.541C1558.28 631.878 1556.09 632.486 1553.17 632.486C1539.08 632.486 1514.65 617.415 1493.86 596.025C1475.39 577.065 1462.14 555.918 1459.47 540.847H1459.35Z" stroke="#003B2F" stroke-width="2.40961" stroke-linecap="round" stroke-linejoin="round"/><path d="M399.653 730.162C368.623 749.998 337.47 758.394 322.989 751.945C320.312 750.849 318.244 749.146 316.783 746.834C307.657 732.596 329.926 702.052 366.554 678.566C403.182 655.08 440.298 647.536 449.424 661.773L450.398 663.72C451.371 666.032 451.736 668.831 451.25 671.873C449.303 687.815 429.102 711.179 399.653 730.162Z" fill="#E6E8EA"/><path d="M450.398 663.597L457.456 676.862C466.582 691.099 444.313 721.643 407.685 745.129C371.056 768.615 333.941 776.038 324.815 761.922L323.841 760.097L316.783 746.833C318.243 749.023 320.312 750.727 322.989 751.944C337.47 758.393 368.744 749.997 399.653 730.161C429.102 711.178 449.181 687.814 451.249 671.872C451.736 668.83 451.371 666.031 450.398 663.719V663.597Z" fill="#8F9F99"/><path d="M450.398 663.597L457.456 676.862C466.582 691.099 444.313 721.643 407.685 745.129C371.056 768.615 333.941 776.038 324.815 761.922L323.841 760.097L316.783 746.833" stroke="#003B2F" stroke-width="2.40961" stroke-linecap="round" stroke-linejoin="round"/><path d="M450.398 663.597C451.371 665.91 451.736 668.708 451.249 671.751C449.302 687.692 429.102 711.056 399.653 730.04C368.623 749.875 337.47 758.271 322.989 751.822C320.312 750.727 318.243 749.023 316.783 746.711" stroke="#003B2F" stroke-width="2.40961" stroke-linecap="round" stroke-linejoin="round"/><path d="M322.989 751.823C320.312 750.728 318.244 749.025 316.783 746.834C307.657 732.597 329.926 701.931 366.554 678.445C403.182 654.959 440.298 647.536 449.424 661.774L450.398 663.599C451.371 666.033 451.736 668.832 451.25 671.874C449.303 687.693 429.102 711.179 399.653 730.041C368.623 749.876 337.47 758.273 322.989 751.823Z" stroke="#003B2F" stroke-width="2.40961" stroke-linecap="round" stroke-linejoin="round"/><path d="M320.793 740.14C319.942 728.458 336.856 704.729 369.834 683.555C386.87 672.603 404.515 664.936 419.483 661.894C432.017 659.339 441.509 660.556 444.429 665.058L445.159 666.397C445.159 666.397 445.524 667.613 445.524 668.465C445.524 669.195 445.524 670.169 445.403 671.021C443.943 682.946 428.001 704.85 396.484 725.051C364.845 745.373 336.248 751.214 325.418 746.468C323.714 745.738 322.619 744.886 321.889 743.669C321.158 742.696 320.915 741.479 320.793 740.14Z" stroke="#003B2F" stroke-width="2.40961" stroke-linecap="round" stroke-linejoin="round"/><path d="M1268.41 546.606C1266.87 547.604 1265.24 548.511 1263.6 549.51C1262.06 550.417 1260.52 551.325 1258.98 552.232C1230.57 568.386 1204.07 577.098 1178.93 580.91C1174.94 581.545 1171.04 581.999 1167.04 582.362C1130.38 585.811 1096.44 579.276 1063.5 571.381C1060.95 570.746 1058.41 570.11 1055.87 569.566C1053.42 568.931 1050.97 568.386 1048.61 567.751C1047.25 567.388 1045.98 567.116 1044.62 566.753C1040.81 565.754 1037 564.847 1033.18 563.939C1002.87 556.407 973.016 549.963 941.615 551.052C937.531 551.143 933.448 551.415 929.364 551.869C903.862 554.32 877.272 562.124 848.231 578.641C846.598 579.549 845.055 580.456 843.421 581.455L831.442 561.307C833.075 560.309 834.709 559.402 836.252 558.494C864.657 542.34 891.157 533.628 916.295 529.907C920.288 529.272 924.191 528.818 928.184 528.455C964.848 525.097 998.789 531.632 1031.82 539.527C1034.27 540.071 1036.72 540.707 1039.08 541.342C1041.62 541.977 1044.17 542.613 1046.71 543.248C1047.89 543.52 1049.16 543.883 1050.34 544.155C1054.15 545.154 1057.96 546.061 1061.77 546.969C1092.17 554.501 1122.12 560.944 1153.61 559.855C1157.7 559.765 1161.69 559.402 1165.86 559.039C1191.28 556.498 1217.96 548.693 1247 532.176C1248.54 531.359 1250.08 530.452 1251.63 529.453C1253.26 528.455 1254.8 527.548 1256.34 526.549C1284.66 508.943 1304.26 489.159 1318.6 468.014C1320.96 464.565 1323.14 461.117 1325.13 457.668C1341.11 430.533 1349.64 401.22 1357.53 371C1358.53 367.188 1359.53 363.377 1360.53 359.565C1360.89 358.294 1361.16 356.933 1361.53 355.663C1362.16 353.212 1362.8 350.762 1363.43 348.312C1364.07 345.771 1364.7 343.32 1365.43 340.779C1374.23 308.018 1384.76 275.075 1405.27 244.491C1407.45 241.224 1409.81 237.957 1412.17 234.78C1427.5 214.543 1447.83 195.394 1475.6 178.151L1487.58 198.298C1459.27 215.904 1439.66 235.597 1425.23 256.743C1422.88 260.191 1420.7 263.64 1418.7 267.088C1402.64 294.223 1394.11 323.627 1386.12 353.938C1385.12 357.75 1384.12 361.562 1383.13 365.373C1382.76 366.644 1382.49 367.823 1382.22 369.094C1381.58 371.635 1380.95 374.176 1380.22 376.626C1379.59 379.077 1378.95 381.527 1378.32 383.887C1369.51 416.739 1359.08 449.591 1338.57 480.266C1336.39 483.533 1334.03 486.8 1331.67 489.976C1316.33 510.305 1296.09 529.363 1268.32 546.606H1268.41Z" fill="#003B2F"/><path d="M943.884 739.454C942.341 740.452 940.707 741.451 939.074 742.358L927.094 722.211C928.728 721.213 930.271 720.305 931.904 719.307C960.219 701.701 979.822 682.008 994.16 660.772C996.52 657.323 998.698 653.875 1000.69 650.426C1016.67 623.291 1025.2 594.069 1033.09 563.757C1034.09 559.946 1035.09 556.134 1036.09 552.323C1036.45 550.961 1036.81 549.691 1037.09 548.329C1037.72 545.879 1038.36 543.52 1038.99 541.069C1039.63 538.528 1040.35 535.987 1040.99 533.537C1049.79 500.775 1060.32 467.832 1080.83 437.249C1083.01 433.981 1085.37 430.714 1087.73 427.538C1103.06 407.3 1123.39 388.152 1151.16 370.999C1152.7 370.092 1154.16 369.094 1155.7 368.186C1157.33 367.188 1158.88 366.28 1160.51 365.373C1188.92 349.219 1215.41 340.507 1240.55 336.786C1244.55 336.15 1248.54 335.697 1252.44 335.334C1289.11 331.976 1323.05 338.419 1356.08 346.405C1358.53 346.95 1360.98 347.585 1363.43 348.22C1365.97 348.856 1368.51 349.491 1371.06 350.126C1372.33 350.399 1373.51 350.762 1374.78 351.034C1378.59 352.032 1382.4 352.94 1386.21 353.847C1416.61 361.38 1446.47 367.823 1478.05 366.734C1482.14 366.643 1486.22 366.371 1490.3 365.917C1515.71 363.376 1542.4 355.571 1571.44 339.054L1583.42 359.202C1555.01 375.355 1528.51 384.068 1503.37 387.879C1499.38 388.515 1495.48 388.968 1491.48 389.331C1454.82 392.78 1420.88 386.246 1387.84 378.35C1385.3 377.715 1382.76 377.08 1380.31 376.535C1377.86 375.9 1375.41 375.265 1372.96 374.72C1371.69 374.357 1370.33 374.085 1369.06 373.722C1365.25 372.724 1361.44 371.816 1357.62 370.909C1327.31 363.376 1297.45 356.933 1265.96 358.022C1261.88 358.112 1257.8 358.385 1253.71 358.839C1228.3 361.289 1201.62 369.094 1172.58 385.61C1170.95 386.518 1169.4 387.426 1167.77 388.424C1166.23 389.331 1164.68 390.239 1163.23 391.237C1134.92 408.843 1115.31 428.536 1100.89 449.682C1098.53 453.13 1096.35 456.579 1094.35 460.027C1078.29 487.253 1069.76 516.566 1061.77 546.877C1060.77 550.689 1059.77 554.501 1058.78 558.312C1058.5 559.492 1058.14 560.763 1057.87 561.942C1057.23 564.483 1056.6 567.024 1055.87 569.566C1055.24 572.016 1054.6 574.375 1053.97 576.826C1045.16 609.678 1034.73 642.53 1014.22 673.205C1012.04 676.472 1009.68 679.739 1007.32 682.915C991.982 703.244 971.745 722.393 943.974 739.545L943.884 739.454Z" fill="#003B2F"/><path d="M1503.38 387.97C1499.38 388.606 1495.48 389.059 1491.49 389.422L1405.27 244.4C1407.45 241.133 1409.81 237.866 1412.17 234.69L1503.29 387.97H1503.38Z" fill="#003B2F"/><path d="M1380.4 376.626C1379.77 379.076 1379.13 381.526 1378.5 383.886L1356.26 346.405C1358.71 346.95 1361.16 347.585 1363.61 348.22C1364.25 345.679 1364.88 343.229 1365.61 340.688L1388.03 378.441C1385.49 377.806 1382.94 377.17 1380.49 376.626H1380.4Z" fill="#003B2F"/><path d="M1380.4 376.628C1379.77 379.078 1379.13 381.529 1378.5 383.888L1356.26 346.407C1358.71 346.952 1361.16 347.587 1363.61 348.222C1364.25 345.681 1364.89 343.231 1365.61 340.69L1388.03 378.443C1385.49 377.808 1382.94 377.172 1380.49 376.628H1380.4Z" fill="#003B2F"/><path d="M1331.76 489.977L1240.74 336.787C1244.73 336.152 1248.73 335.698 1252.63 335.335L1338.75 480.176C1336.57 483.443 1334.22 486.71 1331.86 489.886L1331.76 489.977Z" fill="#003B2F"/><path d="M1178.94 580.91C1174.94 581.545 1171.04 581.999 1167.05 582.362L1080.83 437.34C1083.01 434.073 1085.37 430.805 1087.73 427.629L1178.85 580.91H1178.94Z" fill="#003B2F"/><path d="M1055.87 569.477C1055.24 571.927 1054.6 574.287 1053.97 576.737L1031.73 539.347C1034.18 539.892 1036.64 540.527 1038.99 541.162C1039.63 538.621 1040.36 536.08 1040.99 533.63L1063.5 571.383C1060.96 570.747 1058.42 570.112 1055.87 569.568V569.477Z" fill="#003B2F"/><path d="M1263.61 549.511C1262.06 550.418 1260.52 551.326 1258.98 552.233L1151.26 371.001C1152.8 370.093 1154.25 369.095 1155.79 368.188C1157.43 367.189 1158.97 366.282 1160.6 365.374L1268.33 546.607C1266.78 547.605 1265.15 548.513 1263.52 549.511H1263.61Z" fill="#003B2F"/><path d="M1055.87 569.477C1055.24 571.927 1054.6 574.286 1053.97 576.737L1031.73 539.347C1034.18 539.891 1036.64 540.527 1038.99 541.162C1039.63 538.621 1040.36 536.08 1040.99 533.629L1063.5 571.382C1060.96 570.747 1058.42 570.112 1055.87 569.567V569.477Z" fill="#003B2F"/><path d="M1007.32 682.825L916.291 529.635C920.284 529 924.186 528.546 928.179 528.183L1014.3 673.024C1012.13 676.291 1009.77 679.558 1007.41 682.735L1007.32 682.825Z" fill="#003B2F"/><path d="M836.25 558.314L848.229 578.461C846.596 579.368 845.053 580.276 843.419 581.274L831.44 561.127C833.073 560.129 834.707 559.221 836.25 558.314Z" fill="#003B2F"/><path d="M939.161 742.36L927.182 722.213C928.815 721.214 930.358 720.307 931.992 719.309L943.971 739.456C942.428 740.454 940.795 741.452 939.161 742.36Z" fill="#003B2F"/><path d="M648.568 826.668L745.854 620.479L882.527 330.707V186.229H869.731C860.293 186.229 852.579 178.515 852.579 169.077C852.579 159.638 860.293 151.924 869.731 151.924H1027.55C1036.99 151.924 1044.7 159.638 1044.7 169.077C1044.7 178.515 1036.99 186.229 1027.55 186.229H1014.75V330.707L1163.41 645.89L1248.62 826.578C1275.49 883.479 1233.92 948.912 1171.03 948.912H726.07C663.179 948.912 621.705 883.479 648.477 826.578L648.568 826.668Z" fill="#E6E8EA" stroke="#003B2F" stroke-width="3.61441" stroke-miterlimit="10"/><path d="M726.169 949.093H1171.13C1234.02 949.093 1275.58 883.66 1248.72 826.758L1163.5 646.07C1159.69 644.437 1155.79 642.894 1151.89 641.533C1128.29 633.637 1102.61 632.548 1073.02 643.62C1027.74 660.591 990.621 702.246 942.341 702.881C896.874 703.517 860.482 667.669 820.823 645.435C800.223 633.819 777.807 626.105 754.665 622.021C751.761 621.476 748.766 621.023 745.862 620.66L648.575 826.849C621.713 883.751 663.277 949.183 726.169 949.183V949.093Z" fill="#03FC9D" stroke="#003B2F" stroke-width="3.61441" stroke-linecap="round" stroke-linejoin="round"/><path d="M612.891 572.82C622.883 561.45 621.766 544.133 610.396 534.141C599.026 524.149 581.709 525.266 571.717 536.636C561.725 548.005 562.842 565.323 574.211 575.315C585.581 585.307 602.899 584.19 612.891 572.82Z" fill="#03FC9D" stroke="#003B2F" stroke-width="3.61441" stroke-linecap="round" stroke-linejoin="round"/><path d="M444.565 444.872L635.145 397.681L593.49 547.694" stroke="#003B2F" stroke-width="18.1505" stroke-linecap="round" stroke-linejoin="round"/><path d="M479.161 458.727C486.107 439.601 476.233 418.464 457.106 411.518C437.98 404.571 416.843 414.445 409.897 433.572C402.95 452.699 412.824 473.835 431.951 480.782C451.078 487.728 472.215 477.854 479.161 458.727Z" fill="#03FC9D" stroke="#003B2F" stroke-width="3.61441" stroke-linecap="round" stroke-linejoin="round"/><path d="M619.894 409.297L559.725 272.805" stroke="#003B2F" stroke-width="18.1505" stroke-linecap="round" stroke-linejoin="round"/><path d="M659.731 422.871C668.687 404.153 660.773 381.719 642.055 372.763C623.337 363.807 600.903 371.72 591.947 390.438C582.991 409.156 590.905 431.59 609.623 440.546C628.34 449.502 650.775 441.589 659.731 422.871Z" fill="#03FC9D" stroke="#003B2F" stroke-width="3.61441" stroke-linecap="round" stroke-linejoin="round"/><path d="M635.146 400.856L752.217 340.688" stroke="#003B2F" stroke-width="18.1505" stroke-linecap="round" stroke-linejoin="round"/><path d="M751.21 364.919C764.592 364.919 775.441 354.071 775.441 340.689C775.441 327.306 764.592 316.458 751.21 316.458C737.828 316.458 726.979 327.306 726.979 340.689C726.979 354.071 737.828 364.919 751.21 364.919Z" fill="#03FC9D" stroke="#003B2F" stroke-width="3.61441" stroke-linecap="round" stroke-linejoin="round"/><path d="M559.723 306.746C578.468 306.746 593.665 291.55 593.665 272.805C593.665 254.06 578.468 238.864 559.723 238.864C540.978 238.864 525.782 254.06 525.782 272.805C525.782 291.55 540.978 306.746 559.723 306.746Z" fill="#03FC9D" stroke="#003B2F" stroke-width="3.61441" stroke-linecap="round" stroke-linejoin="round"/><path d="M1088.63 749.256C1088.63 767.225 1074.01 781.836 1056.05 781.836C1038.08 781.836 1023.47 767.225 1023.47 749.256C1023.47 731.287 1038.08 716.676 1056.05 716.676C1074.01 716.676 1088.63 731.287 1088.63 749.256Z" fill="white"/><path d="M965.121 844.091C965.121 857.613 954.14 868.594 940.618 868.594C927.096 868.594 916.115 857.613 916.115 844.091C916.115 830.569 927.096 819.588 940.618 819.588C954.14 819.588 965.121 830.569 965.121 844.091Z" fill="white"/><path d="M980.546 542.976C980.546 551.416 973.739 558.313 965.209 558.313C956.678 558.313 949.872 551.506 949.872 542.976C949.872 534.445 956.678 527.638 965.209 527.638C973.739 527.638 980.546 534.445 980.546 542.976Z" fill="white"/><path d="M916.113 632.366C916.113 642.712 907.764 651.061 897.418 651.061C887.072 651.061 878.723 642.712 878.723 632.366C878.723 622.021 887.072 613.671 897.418 613.671C907.764 613.671 916.113 622.021 916.113 632.366Z" fill="white"/><path d="M942.429 427.539C942.429 435.979 935.622 442.876 927.092 442.876C918.561 442.876 911.754 436.07 911.754 427.539C911.754 419.008 918.561 412.202 927.092 412.202C935.622 412.202 942.429 419.008 942.429 427.539Z" fill="white"/><path d="M878.628 749.438C878.628 765.047 866.014 777.662 850.404 777.662C834.795 777.662 822.18 765.047 822.18 749.438C822.18 733.828 834.795 721.214 850.404 721.214C866.014 721.214 878.628 733.828 878.628 749.438Z" fill="white"/><path d="M402.766 215.938H348.146C365.453 215.938 379.502 203.238 379.502 187.504C379.502 171.77 365.453 159.07 348.146 159.07H191.254C173.947 159.07 159.899 171.77 159.899 187.504H111.685C94.3774 187.504 80.3291 200.204 80.3291 215.938C80.3291 231.672 94.3774 244.371 111.685 244.371H214.518C214.518 260.106 228.567 272.805 245.874 272.805H402.766C420.073 272.805 434.121 260.106 434.121 244.371C434.121 228.637 420.073 215.938 402.766 215.938Z" fill="#03FC9D"/><path d="M1423.86 805.755H1462.36C1450.14 805.755 1440.36 795.857 1440.36 783.759C1440.36 771.66 1450.26 761.762 1462.36 761.762H1572.83C1585.05 761.762 1594.83 771.66 1594.83 783.759H1628.68C1640.9 783.759 1650.67 793.657 1650.67 805.755C1650.67 817.976 1640.77 827.752 1628.68 827.752H1556.33C1556.33 839.973 1546.43 849.749 1534.33 849.749H1423.86C1411.64 849.749 1401.86 839.851 1401.86 827.752C1401.86 815.654 1411.76 805.755 1423.86 805.755Z" fill="#E6E8EA"/><path d="M1736.22 816.998H1544.23C1523.04 816.998 1505.86 834.151 1505.86 855.309C1505.86 876.468 1523.04 893.62 1544.23 893.62H1736.22C1757.41 893.62 1774.59 876.468 1774.59 855.309C1774.59 834.151 1757.41 816.998 1736.22 816.998Z" fill="#03FC9D"/><path d="M278.438 885.341H469.944" stroke="#03FC9D" stroke-width="3" stroke-linecap="round" stroke-linejoin="round"/><path d="M225.729 928.16H384.306" stroke="#003B2F" stroke-width="3" stroke-linecap="round" stroke-linejoin="round"/><path d="M136.046 928.273H175.157" stroke="#003B2F" stroke-width="3" stroke-linecap="round" stroke-linejoin="round"/><path d="M200.35 458.804L220.421 481.918" stroke="#003B2F" stroke-width="3" stroke-linecap="round" stroke-linejoin="round"/><path d="M250.484 476.141L232.781 479.533" stroke="#003B2F" stroke-width="3" stroke-linecap="round" stroke-linejoin="round"/><path d="M220.421 481.918L210.283 511.233" stroke="#003B2F" stroke-width="3" stroke-linecap="round" stroke-linejoin="round"/><path d="M1333.32 676.622L1356.26 689.844" stroke="#003B2F" stroke-width="3" stroke-linecap="round" stroke-linejoin="round"/><path d="M1379.21 676.622L1365.79 684.399" stroke="#003B2F" stroke-width="3" stroke-linecap="round" stroke-linejoin="round"/><path d="M1356.26 689.844V716.676" stroke="#003B2F" stroke-width="3" stroke-linecap="round" stroke-linejoin="round"/><path d="M1685.4 239.741C1694.87 239.741 1702.54 232.064 1702.54 222.594C1702.54 213.124 1694.87 205.447 1685.4 205.447C1675.93 205.447 1668.25 213.124 1668.25 222.594C1668.25 232.064 1675.93 239.741 1685.4 239.741Z" stroke="#003B2F" stroke-width="3" stroke-linecap="round" stroke-linejoin="round"/><path d="M1289.75 92.7361L1314.03 117.023" stroke="#003B2F" stroke-width="3" stroke-linecap="round" stroke-linejoin="round"/><path d="M1331.64 134.783L1355.93 159.07" stroke="#003B2F" stroke-width="3" stroke-linecap="round" stroke-linejoin="round"/><path d="M1289.75 159.07L1314.03 134.783" stroke="#003B2F" stroke-width="3" stroke-linecap="round" stroke-linejoin="round"/><path d="M1331.64 117.023L1355.93 92.7361" stroke="#003B2F" stroke-width="3" stroke-linecap="round" stroke-linejoin="round"/><path d="M1517.77 467.379H1746.14" stroke="#03FC9D" stroke-width="3" stroke-linecap="round" stroke-linejoin="round"/><path d="M1658.07 501.897H1834.2" stroke="#003B2F" stroke-width="3" stroke-linecap="round" stroke-linejoin="round"/></svg>