<svg width="192" height="108" viewBox="0 0 192 108" fill="none" xmlns="http://www.w3.org/2000/svg"><g clip-path="url(#clip0_13_3)"><path d="M6.9 54.07H19.31C20.6741 54.07 21.78 52.9641 21.78 51.6V51.59C21.78 50.2259 20.6741 49.12 19.31 49.12H6.9C5.53586 49.12 4.43 50.2259 4.43 51.59V51.6C4.43 52.9641 5.53586 54.07 6.9 54.07Z" fill="#E6E8EA"/><path d="M13.28 60.58H33.01C35.186 60.58 36.95 58.8182 36.95 56.645C36.95 54.4718 35.186 52.71 33.01 52.71H13.28C11.104 52.71 9.34 54.4718 9.34 56.645C9.34 58.8182 11.104 60.58 13.28 60.58Z" fill="#03FC9D"/><path d="M21.82 50.37L23.1 51.66" stroke="#003B2F" stroke-width="0.3" stroke-linecap="round" stroke-linejoin="round"/><path d="M24.05 52.6L25.34 53.89" stroke="#003B2F" stroke-width="0.3" stroke-linecap="round" stroke-linejoin="round"/><path d="M21.82 53.89L23.1 52.6" stroke="#003B2F" stroke-width="0.3" stroke-linecap="round" stroke-linejoin="round"/><path d="M24.05 51.66L25.34 50.37" stroke="#003B2F" stroke-width="0.3" stroke-linecap="round" stroke-linejoin="round"/><path d="M66.63 9.48L68.19 11.04" stroke="#003B2F" stroke-width="0.3" stroke-linecap="round" stroke-linejoin="round"/><path d="M69.33 12.18L70.89 13.74" stroke="#003B2F" stroke-width="0.3" stroke-linecap="round" stroke-linejoin="round"/><path d="M66.63 13.74L68.19 12.18" stroke="#003B2F" stroke-width="0.3" stroke-linecap="round" stroke-linejoin="round"/><path d="M69.33 11.04L70.89 9.48" stroke="#003B2F" stroke-width="0.3" stroke-linecap="round" stroke-linejoin="round"/><path d="M171.49 79.73H180.59C181.595 79.73 182.41 78.9174 182.41 77.915C182.41 76.9126 181.595 76.1 180.59 76.1H171.49C170.485 76.1 169.67 76.9126 169.67 77.915C169.67 78.9174 170.485 79.73 171.49 79.73Z" fill="#03FC9D"/><path d="M163.65 69.26C163.65 68.08 164.13 67 164.91 66.23C165.68 65.46 166.75 64.97 167.94 64.97H193.19V73.54H167.94C165.57 73.54 163.66 71.62 163.66 69.26H163.65Z" fill="#03FC9D"/><path d="M152.91 77.77H174.39C176.759 77.77 178.68 75.8515 178.68 73.485C178.68 71.1185 176.759 69.2 174.39 69.2H152.91C150.541 69.2 148.62 71.1185 148.62 73.485C148.62 75.8515 150.541 77.77 152.91 77.77Z" fill="#E6E8EA"/><path d="M156.43 77.1464L158.763 79.4799L161.096 77.1464L158.763 74.813L156.43 77.1464Z" stroke="#003B2F" stroke-width="0.3" stroke-linecap="round" stroke-linejoin="round"/><path d="M154.17 18.79H134.07C132.921 18.79 131.99 19.7212 131.99 20.87C131.99 22.0188 132.921 22.95 134.07 22.95H154.17C155.319 22.95 156.25 22.0188 156.25 20.87C156.25 19.7212 155.319 18.79 154.17 18.79Z" fill="#03FC9D"/><path d="M137.58 13.51H130.44C129.948 13.51 129.55 13.9085 129.55 14.4V14.7C129.55 15.1915 129.948 15.59 130.44 15.59H137.58C138.072 15.59 138.47 15.1915 138.47 14.7V14.4C138.47 13.9085 138.072 13.51 137.58 13.51Z" fill="#03FC9D"/><path d="M40.44 84.3H28.1" stroke="#003B2F" stroke-width="0.3" stroke-linecap="round" stroke-linejoin="round"/><path d="M151.31 55.5H155.25" stroke="#003B2F" stroke-width="0.3" stroke-linecap="round" stroke-linejoin="round"/><path d="M148.3 55.5H149.3" stroke="#003B2F" stroke-width="0.3" stroke-linecap="round" stroke-linejoin="round"/><path d="M42.31 87.54H31.41" stroke="#03FC9D" stroke-width="0.3" stroke-linecap="round" stroke-linejoin="round"/><path d="M43.48 87.54H32.58" stroke="#03FC9D" stroke-width="0.3" stroke-linecap="round" stroke-linejoin="round"/><path d="M23.94 88.12C24.8844 88.12 25.65 87.3544 25.65 86.41C25.65 85.4656 24.8844 84.7 23.94 84.7C22.9956 84.7 22.23 85.4656 22.23 86.41C22.23 87.3544 22.9956 88.12 23.94 88.12Z" stroke="#003B2F" stroke-width="0.3" stroke-linecap="round" stroke-linejoin="round"/><path d="M50.25 50.47V52.4" stroke="#003B2F" stroke-width="0.3" stroke-linecap="round" stroke-linejoin="round"/><path d="M50.25 53.82V55.75" stroke="#003B2F" stroke-width="0.3" stroke-linecap="round" stroke-linejoin="round"/><path d="M47.61 53.11H49.54" stroke="#003B2F" stroke-width="0.3" stroke-linecap="round" stroke-linejoin="round"/><path d="M50.95 53.11H52.88" stroke="#003B2F" stroke-width="0.3" stroke-linecap="round" stroke-linejoin="round"/><path d="M143.49 95.7H150.09" stroke="#003B2F" stroke-width="0.3" stroke-linecap="round" stroke-linejoin="round"/><path d="M138.47 95.7H140.14" stroke="#003B2F" stroke-width="0.3" stroke-linecap="round" stroke-linejoin="round"/><path d="M144.44 90.95H161.55" stroke="#03FC9D" stroke-width="0.3" stroke-linecap="round" stroke-linejoin="round"/><path d="M26.59 28.3H30.05" stroke="#003B2F" stroke-width="0.3" stroke-linecap="round" stroke-linejoin="round"/><path d="M15.81 21.55H40.83" stroke="#03FC9D" stroke-width="0.3" stroke-linecap="round" stroke-linejoin="round"/><path d="M143.18 53.11H168.21" stroke="#03FC9D" stroke-width="0.3" stroke-linecap="round" stroke-linejoin="round"/><path d="M34.51 28.28H48.5" stroke="#003B2F" stroke-width="0.3" stroke-linecap="round" stroke-linejoin="round"/><path d="M152.49 34.52L153.92 35.96" stroke="#003B2F" stroke-width="0.3" stroke-linecap="round" stroke-linejoin="round"/><path d="M154.97 37.01L156.41 38.44" stroke="#003B2F" stroke-width="0.3" stroke-linecap="round" stroke-linejoin="round"/><path d="M152.49 38.44L153.92 37.01" stroke="#003B2F" stroke-width="0.3" stroke-linecap="round" stroke-linejoin="round"/><path d="M154.97 35.96L156.41 34.52" stroke="#003B2F" stroke-width="0.3" stroke-linecap="round" stroke-linejoin="round"/><path d="M122.12 25.54H68.41C67.1618 25.54 66.15 26.5518 66.15 27.8V80.21C66.15 81.4582 67.1618 82.47 68.41 82.47H122.12C123.368 82.47 124.38 81.4582 124.38 80.21V27.8C124.38 26.5518 123.368 25.54 122.12 25.54Z" fill="#E6E8EA"/><path d="M124.38 27.8V29.43H66.15V27.8C66.15 26.55 67.16 25.54 68.41 25.54H122.12C123.37 25.54 124.38 26.55 124.38 27.8Z" fill="#003B2F"/><path d="M116.4 27.48C116.4 27.94 116.03 28.31 115.57 28.31C115.11 28.31 114.74 27.94 114.74 27.48C114.74 27.02 115.11 26.65 115.57 26.65C116.03 26.65 116.4 27.02 116.4 27.48Z" fill="white"/><path d="M118.96 27.48C118.96 27.94 118.59 28.31 118.13 28.31C117.67 28.31 117.3 27.94 117.3 27.48C117.3 27.02 117.67 26.65 118.13 26.65C118.59 26.65 118.96 27.02 118.96 27.48Z" fill="white"/><path d="M121.51 27.48C121.51 27.94 121.14 28.31 120.68 28.31C120.22 28.31 119.85 27.94 119.85 27.48C119.85 27.02 120.22 26.65 120.68 26.65C121.14 26.65 121.51 27.02 121.51 27.48Z" fill="white"/><path d="M131.53 37.52H60.48C58.9612 37.52 57.73 38.7512 57.73 40.27V43.59C57.73 45.1088 58.9612 46.34 60.48 46.34H131.53C133.049 46.34 134.28 45.1088 134.28 43.59V40.27C134.28 38.7512 133.049 37.52 131.53 37.52Z" fill="white" stroke="#003B2F" stroke-width="0.3" stroke-linecap="round" stroke-linejoin="round"/><path d="M80.15 43.52C79.95 43.52 79.76 43.48 79.59 43.41C79.45 43.36 79.34 43.28 79.25 43.17V43.45H78.49V39.31H79.31V40.71C79.39 40.63 79.48 40.57 79.59 40.51C79.76 40.43 79.95 40.39 80.17 40.39C80.45 40.39 80.71 40.46 80.94 40.6C81.17 40.74 81.35 40.92 81.49 41.16C81.63 41.4 81.69 41.66 81.69 41.95C81.69 42.24 81.62 42.5 81.49 42.74C81.36 42.98 81.18 43.16 80.95 43.3C80.72 43.44 80.46 43.51 80.17 43.51L80.15 43.52ZM80.05 42.78C80.2 42.78 80.34 42.74 80.45 42.68C80.57 42.61 80.66 42.51 80.72 42.39C80.78 42.27 80.82 42.12 80.82 41.96C80.82 41.8 80.79 41.66 80.72 41.54C80.65 41.42 80.56 41.32 80.45 41.25C80.33 41.18 80.2 41.14 80.05 41.14C79.9 41.14 79.77 41.18 79.66 41.24C79.55 41.31 79.46 41.41 79.39 41.53C79.32 41.65 79.29 41.8 79.29 41.96C79.29 42.12 79.32 42.26 79.39 42.39C79.46 42.52 79.54 42.61 79.66 42.68C79.78 42.75 79.91 42.78 80.05 42.78Z" fill="#003B2F"/><path d="M82.15 40.2V39.38H82.97V40.2H82.15ZM82.15 43.45V40.47H82.97V43.45H82.15Z" fill="#003B2F"/><path d="M85.01 43.49C84.65 43.49 84.37 43.39 84.17 43.2C83.97 43.01 83.87 42.73 83.87 42.38V41.18H83.37V40.47H83.4C83.55 40.47 83.67 40.43 83.75 40.36C83.83 40.28 83.87 40.17 83.87 40.02V39.8H84.69V40.48H85.39V41.19H84.69V42.33C84.69 42.43 84.71 42.52 84.74 42.58C84.78 42.65 84.83 42.7 84.91 42.73C84.99 42.76 85.08 42.78 85.19 42.78C85.22 42.78 85.24 42.78 85.28 42.78C85.31 42.78 85.35 42.78 85.38 42.77V43.46C85.33 43.46 85.26 43.47 85.19 43.48C85.12 43.48 85.06 43.49 84.99 43.49H85.01Z" fill="#003B2F"/><path d="M87.04 43.52C86.71 43.52 86.43 43.44 86.18 43.29C85.94 43.14 85.77 42.93 85.69 42.67L86.29 42.39C86.37 42.55 86.47 42.68 86.6 42.77C86.73 42.86 86.88 42.91 87.04 42.91C87.16 42.91 87.25 42.89 87.31 42.84C87.37 42.79 87.4 42.73 87.4 42.64C87.4 42.6 87.39 42.56 87.37 42.53C87.35 42.5 87.32 42.47 87.27 42.45C87.22 42.43 87.17 42.4 87.11 42.38L86.6 42.24C86.36 42.17 86.17 42.06 86.04 41.9C85.91 41.75 85.84 41.56 85.84 41.35C85.84 41.16 85.89 41 85.98 40.86C86.07 40.72 86.21 40.61 86.38 40.53C86.55 40.45 86.75 40.41 86.97 40.41C87.26 40.41 87.52 40.48 87.74 40.62C87.96 40.76 88.12 40.95 88.21 41.2L87.6 41.48C87.56 41.36 87.48 41.26 87.36 41.18C87.25 41.11 87.11 41.07 86.97 41.07C86.86 41.07 86.78 41.09 86.72 41.14C86.66 41.18 86.63 41.24 86.63 41.32C86.63 41.36 86.64 41.4 86.66 41.43C86.68 41.46 86.72 41.49 86.77 41.52C86.82 41.55 86.88 41.57 86.95 41.59L87.42 41.73C87.67 41.8 87.86 41.91 87.99 42.06C88.12 42.21 88.19 42.39 88.19 42.6C88.19 42.79 88.14 42.95 88.04 43.09C87.94 43.23 87.81 43.34 87.64 43.42C87.47 43.5 87.27 43.54 87.03 43.54L87.04 43.52Z" fill="#003B2F"/><path d="M90.12 43.49C89.76 43.49 89.48 43.39 89.28 43.2C89.08 43.01 88.98 42.73 88.98 42.38V41.18H88.48V40.47H88.51C88.66 40.47 88.78 40.43 88.86 40.36C88.94 40.28 88.98 40.17 88.98 40.02V39.8H89.8V40.48H90.5V41.19H89.8V42.33C89.8 42.43 89.82 42.52 89.85 42.58C89.89 42.65 89.94 42.7 90.02 42.73C90.1 42.76 90.19 42.78 90.3 42.78C90.33 42.78 90.35 42.78 90.39 42.78C90.42 42.78 90.46 42.78 90.49 42.77V43.46C90.44 43.46 90.37 43.47 90.3 43.48C90.23 43.48 90.17 43.49 90.1 43.49H90.12Z" fill="#003B2F"/><path d="M91.91 43.52C91.7 43.52 91.51 43.49 91.35 43.42C91.19 43.35 91.07 43.25 90.99 43.12C90.91 42.99 90.87 42.84 90.87 42.66C90.87 42.49 90.91 42.34 90.98 42.21C91.06 42.08 91.17 41.97 91.33 41.88C91.49 41.79 91.69 41.73 91.92 41.69L92.75 41.56V41.48C92.75 41.37 92.71 41.27 92.62 41.2C92.53 41.12 92.41 41.08 92.26 41.08C92.11 41.08 91.99 41.12 91.87 41.2C91.76 41.28 91.68 41.39 91.63 41.52L90.97 41.21C91.03 41.04 91.12 40.9 91.25 40.78C91.38 40.66 91.53 40.57 91.71 40.5C91.89 40.43 92.08 40.4 92.29 40.4C92.54 40.4 92.76 40.45 92.96 40.54C93.15 40.63 93.3 40.76 93.41 40.92C93.52 41.08 93.57 41.27 93.57 41.49V43.46H92.81V43.18C92.81 43.18 92.74 43.25 92.71 43.27C92.6 43.36 92.49 43.42 92.35 43.46C92.21 43.5 92.07 43.52 91.91 43.52ZM92.75 42.17L92.07 42.29C91.95 42.31 91.86 42.35 91.8 42.4C91.74 42.45 91.71 42.53 91.71 42.63C91.71 42.72 91.74 42.79 91.81 42.84C91.88 42.89 91.97 42.92 92.07 42.92C92.2 42.92 92.32 42.89 92.43 42.83C92.53 42.77 92.61 42.69 92.67 42.59C92.73 42.49 92.75 42.38 92.75 42.26V42.17Z" fill="#003B2F"/><path d="M94.17 43.45V40.47H94.93V40.83C94.98 40.72 95.06 40.63 95.17 40.57C95.34 40.46 95.54 40.41 95.77 40.41C96.02 40.41 96.24 40.47 96.43 40.6C96.54 40.68 96.62 40.77 96.68 40.87C96.76 40.75 96.85 40.66 96.96 40.59C97.14 40.47 97.35 40.42 97.6 40.42C97.81 40.42 98.01 40.47 98.17 40.56C98.33 40.65 98.47 40.79 98.56 40.96C98.65 41.13 98.7 41.33 98.7 41.55V43.47H97.88V41.73C97.88 41.61 97.86 41.51 97.82 41.43C97.78 41.35 97.72 41.28 97.64 41.23C97.56 41.18 97.47 41.16 97.36 41.16C97.25 41.16 97.16 41.18 97.08 41.23C97 41.28 96.94 41.34 96.9 41.43C96.86 41.51 96.84 41.61 96.84 41.73V43.47H96.02V41.73C96.02 41.61 96 41.51 95.96 41.43C95.92 41.35 95.86 41.28 95.78 41.23C95.7 41.18 95.61 41.16 95.5 41.16C95.39 41.16 95.3 41.18 95.22 41.23C95.14 41.28 95.08 41.34 95.04 41.43C95 41.51 94.98 41.61 94.98 41.73V43.47H94.16L94.17 43.45Z" fill="#003B2F"/><path d="M99.25 44.55V40.47H100.01V40.78C100.1 40.67 100.21 40.59 100.34 40.52C100.51 40.44 100.7 40.4 100.92 40.4C101.2 40.4 101.46 40.47 101.69 40.61C101.92 40.75 102.1 40.93 102.24 41.17C102.38 41.41 102.44 41.67 102.44 41.96C102.44 42.25 102.37 42.51 102.24 42.75C102.11 42.99 101.93 43.17 101.7 43.31C101.47 43.45 101.21 43.52 100.92 43.52C100.72 43.52 100.53 43.48 100.36 43.41C100.25 43.37 100.15 43.31 100.07 43.23V44.55H99.25ZM100.82 42.79C100.97 42.79 101.11 42.75 101.22 42.69C101.34 42.62 101.43 42.52 101.49 42.4C101.55 42.28 101.59 42.13 101.59 41.97C101.59 41.81 101.56 41.67 101.49 41.55C101.42 41.43 101.33 41.33 101.22 41.26C101.1 41.19 100.97 41.15 100.82 41.15C100.67 41.15 100.54 41.19 100.43 41.25C100.32 41.32 100.23 41.42 100.16 41.54C100.09 41.66 100.06 41.81 100.06 41.97C100.06 42.13 100.09 42.27 100.16 42.4C100.23 42.53 100.31 42.62 100.43 42.69C100.55 42.76 100.68 42.79 100.82 42.79Z" fill="#003B2F"/><path d="M103.33 43.45V42.63H104.15V43.45H103.33Z" fill="#003B2F"/><path d="M106.59 43.52C106.27 43.52 106 43.45 105.76 43.31C105.53 43.17 105.35 42.98 105.22 42.74C105.09 42.5 105.03 42.24 105.03 41.95C105.03 41.66 105.1 41.39 105.23 41.15C105.36 40.91 105.54 40.73 105.77 40.6C106 40.47 106.25 40.4 106.53 40.4C106.77 40.4 106.98 40.44 107.16 40.51C107.34 40.58 107.5 40.69 107.62 40.82C107.75 40.95 107.84 41.11 107.91 41.29C107.98 41.47 108.01 41.66 108.01 41.87C108.01 41.93 108.01 41.99 108.01 42.04C108.01 42.1 107.99 42.15 107.98 42.19H105.89C105.89 42.27 105.92 42.34 105.94 42.4C105.99 42.53 106.08 42.63 106.19 42.7C106.3 42.77 106.44 42.81 106.6 42.81C106.75 42.81 106.87 42.78 106.98 42.72C107.08 42.66 107.16 42.58 107.22 42.48L107.88 42.79C107.82 42.94 107.73 43.06 107.6 43.17C107.47 43.28 107.33 43.36 107.15 43.42C106.98 43.48 106.79 43.51 106.59 43.51V43.52ZM107.14 41.59C107.14 41.59 107.13 41.5 107.11 41.45C107.07 41.33 107 41.23 106.9 41.16C106.8 41.09 106.68 41.05 106.53 41.05C106.38 41.05 106.27 41.09 106.16 41.15C106.06 41.22 105.98 41.32 105.93 41.46C105.92 41.5 105.9 41.54 105.89 41.58H107.13L107.14 41.59Z" fill="#003B2F"/><path d="M109.93 43.49C109.57 43.49 109.29 43.39 109.09 43.2C108.89 43.01 108.79 42.73 108.79 42.38V41.18H108.29V40.47H108.32C108.47 40.47 108.59 40.43 108.67 40.36C108.75 40.28 108.79 40.17 108.79 40.02V39.8H109.61V40.48H110.31V41.19H109.61V42.33C109.61 42.43 109.63 42.52 109.66 42.58C109.7 42.65 109.75 42.7 109.83 42.73C109.91 42.76 110 42.78 110.11 42.78C110.14 42.78 110.16 42.78 110.2 42.78C110.23 42.78 110.27 42.78 110.3 42.77V43.46C110.25 43.46 110.18 43.47 110.11 43.48C110.04 43.48 109.98 43.49 109.91 43.49H109.93Z" fill="#003B2F"/><path d="M110.79 43.45V39.31H111.61V40.74C111.67 40.65 111.75 40.58 111.85 40.53C112 40.45 112.18 40.4 112.39 40.4C112.62 40.4 112.81 40.45 112.98 40.54C113.15 40.63 113.28 40.77 113.38 40.94C113.47 41.11 113.52 41.31 113.52 41.53V43.45H112.7V41.71C112.7 41.59 112.68 41.49 112.63 41.41C112.58 41.33 112.52 41.26 112.44 41.21C112.36 41.16 112.26 41.14 112.15 41.14C112.04 41.14 111.95 41.16 111.87 41.21C111.79 41.26 111.72 41.32 111.68 41.41C111.63 41.49 111.61 41.59 111.61 41.71V43.45H110.79Z" fill="#003B2F"/><path d="M121.4 49.56L118.66 44.6C118.38 44.14 118.55 43.55 119.02 43.29C119.49 43.03 120.07 43.18 120.33 43.65L121.97 46.62L122.04 46.75C121.77 46.31 121.93 45.75 122.38 45.48C122.82 45.21 123.38 45.37 123.65 45.82L123.67 45.86L123.89 46.3C123.62 45.86 123.78 45.3 124.23 45.03C124.67 44.76 125.23 44.92 125.5 45.37L126.18 46.6L126.15 46.55C125.88 46.11 126.04 45.55 126.49 45.28C126.93 45.01 127.49 45.17 127.76 45.62L130.03 49.73C130.15 49.99 130.24 50.28 130.23 50.56L125.22 55.47C124.53 55 123.6 55.06 122.87 54.71C122.3 54.41 121.82 53.97 121.48 53.43C121.1 52.91 120.7 52.32 120.52 51.69C120.26 50.87 120.63 49.97 121.42 49.59V49.57L121.4 49.56Z" fill="white"/><path d="M126.16 46.53C125.89 46.09 126.05 45.53 126.5 45.26C126.94 44.99 127.5 45.15 127.77 45.6L130.04 49.71C130.16 49.97 130.25 50.26 130.24 50.54M123.91 46.29C123.64 45.85 123.8 45.29 124.25 45.02C124.69 44.75 125.25 44.91 125.52 45.36L126.77 47.62M122.06 46.75C121.79 46.31 121.95 45.75 122.4 45.48C122.84 45.21 123.4 45.37 123.67 45.82L123.69 45.86M121.42 49.57L118.68 44.61C118.4 44.15 118.57 43.56 119.04 43.3C119.51 43.04 120.09 43.19 120.35 43.66L123.11 48.65M125.24 55.45C124.55 54.98 123.62 55.04 122.89 54.69C122.32 54.39 121.84 53.95 121.5 53.41C121.12 52.89 120.72 52.3 120.54 51.67C120.28 50.85 120.65 49.95 121.44 49.57" stroke="#003B2F" stroke-width="0.3" stroke-miterlimit="10" stroke-linecap="round"/><path d="M110.14 85.19C109.28 84.38 108.73 82.72 108.73 81.82C108.74 82.07 108.79 82.32 108.87 82.57C109.05 83.12 109.4 83.67 109.93 84.18C109.95 84.2 109.97 84.22 109.99 84.24C112.52 86.62 117.98 87.43 122.19 86.04C122.25 86.02 122.31 86 122.37 85.98C122.41 85.97 122.45 85.95 122.49 85.94C122.49 85.94 122.5 85.94 122.51 85.94C125.06 85.02 126.48 83.47 126.51 81.86C126.51 81.67 126.5 81.48 126.46 81.3C127.11 83.29 125.61 85.94 122.34 87.01C118.13 88.4 112.67 87.59 110.14 85.21V85.19Z" fill="#03FC9D"/><path d="M110 84.24C110 84.24 109.96 84.2 109.94 84.18C109.41 83.67 109.05 83.12 108.88 82.57C108.8 82.32 108.75 82.07 108.74 81.82C108.74 81.81 108.74 81.79 108.74 81.78C108.67 80.05 110.21 78.36 113.05 77.42C117.26 76.04 122.72 76.84 125.25 79.22C125.94 79.87 126.34 80.57 126.47 81.28C126.51 81.47 126.52 81.66 126.52 81.84C126.49 83.45 125.07 85 122.52 85.92C122.52 85.92 122.52 85.92 122.5 85.92C122.46 85.93 122.42 85.95 122.38 85.96C122.32 85.98 122.26 86 122.2 86.02C117.99 87.41 112.53 86.6 110 84.22V84.24Z" fill="#E6E8EA"/><path d="M110.08 85.18C109.22 84.37 108.67 82.71 108.67 81.81C108.68 82.06 108.73 82.31 108.81 82.56C108.99 83.11 109.34 83.66 109.87 84.17C109.89 84.19 109.91 84.21 109.93 84.23C112.46 86.61 117.92 87.42 122.13 86.03C122.19 86.01 122.25 85.99 122.31 85.97C122.35 85.96 122.39 85.94 122.43 85.93C122.43 85.93 122.44 85.93 122.45 85.93C125 85.01 126.42 83.46 126.45 81.85C126.45 81.66 126.44 81.47 126.4 81.29C127.05 83.28 125.55 85.93 122.28 87C118.07 88.39 112.61 87.58 110.08 85.2V85.18Z" stroke="#003B2F" stroke-width="0.3" stroke-linecap="round" stroke-linejoin="round"/><path d="M109.93 84.22C109.93 84.22 109.89 84.18 109.87 84.16C109.34 83.65 108.98 83.1 108.81 82.55C108.73 82.3 108.68 82.05 108.67 81.8C108.67 81.79 108.67 81.77 108.67 81.76C108.6 80.03 110.14 78.34 112.98 77.4C117.19 76.02 122.65 76.82 125.18 79.2C125.87 79.85 126.27 80.55 126.4 81.26C126.44 81.45 126.45 81.64 126.45 81.82C126.42 83.43 125 84.98 122.45 85.9C122.45 85.9 122.45 85.9 122.43 85.9C122.39 85.91 122.35 85.93 122.31 85.94C122.25 85.96 122.19 85.98 122.13 86C117.92 87.39 112.46 86.58 109.93 84.2V84.22Z" stroke="#003B2F" stroke-width="0.3" stroke-linecap="round" stroke-linejoin="round"/><path d="M118 79.4C118.02 79.42 118.03 79.43 118.04 79.45L118.22 79.75L118.38 80.02L118.56 80.33L118.71 80.59L118.89 80.9L119.04 81.16L119.22 81.47L119.35 81.7C119.35 81.7 119.37 81.72 119.35 81.73C119.34 81.73 119.32 81.73 119.31 81.73C118.15 81.7 116.99 81.68 115.82 81.65C115.8 81.65 115.79 81.65 115.77 81.65C115.84 81.58 115.9 81.51 115.97 81.45L117.68 79.72L117.98 79.41L118 79.4Z" fill="#003B2F"/><path d="M115.78 81.64L119.34 81.72H119.36C119.36 81.72 119.38 81.72 119.4 81.72C120.75 81.75 122.09 81.78 123.44 81.81C123.46 81.81 123.47 81.81 123.49 81.81C123.36 81.86 123.24 81.9 123.11 81.95L117.66 83.95C117.66 83.95 117.64 83.95 117.62 83.96C117.62 83.95 117.62 83.94 117.62 83.93L117.75 83.76L118.01 83.42L118.27 83.08C118.36 82.97 118.45 82.85 118.53 82.74L118.79 82.41L119.05 82.07L119.31 81.74C119.31 81.74 119.31 81.72 119.3 81.71H119.27C118.12 81.68 116.96 81.66 115.81 81.63C115.79 81.63 115.77 81.63 115.76 81.63L115.78 81.64Z" fill="#003B2F"/><path d="M115.78 81.64L116.64 81.66C117.54 81.68 118.43 81.7 119.33 81.72C119.37 81.72 119.37 81.72 119.35 81.75L119.05 82.14C118.98 82.23 118.92 82.31 118.85 82.4L118.56 82.77L118.39 82.98L118.15 83.29L117.98 83.5L117.75 83.8L117.62 83.96C117.61 83.96 117.61 83.96 117.6 83.95L116.68 82.78L115.8 81.67C115.8 81.67 115.78 81.65 115.78 81.64Z" fill="#003B2F"/><path d="M114.73 81.62L115.12 82.11L116.21 83.49L116.55 83.93C116.55 83.93 116.56 83.93 116.55 83.95C116.54 83.95 116.53 83.95 116.53 83.95C115 83.16 113.47 82.38 111.94 81.59C111.94 81.59 111.92 81.59 111.92 81.57C111.93 81.57 111.95 81.57 111.97 81.57C112.87 81.59 113.78 81.61 114.68 81.63C114.7 81.63 114.72 81.63 114.73 81.64V81.62Z" fill="#003B2F"/><path d="M114.73 81.62C114.73 81.62 114.7 81.62 114.69 81.62C113.78 81.6 112.87 81.58 111.97 81.56H111.93C111.99 81.53 112.06 81.5 112.12 81.47C112.69 81.22 113.26 80.97 113.84 80.73L115.55 79.99L116.91 79.4H116.94C116.94 79.4 116.92 79.4 116.91 79.42L115.61 80.74L114.74 81.62C114.74 81.62 114.74 81.62 114.73 81.63V81.62Z" fill="#003B2F"/><path d="M123.48 81.82C123.48 81.82 123.46 81.82 123.45 81.82C122.1 81.79 120.75 81.76 119.4 81.73C119.39 81.73 119.37 81.73 119.36 81.73C119.36 81.73 119.38 81.73 119.39 81.73H119.42C120.75 81.76 122.09 81.79 123.42 81.82C123.44 81.82 123.47 81.82 123.49 81.82H123.48Z" fill="#003B2F"/><path d="M123.49 81.81C122.12 81.78 120.74 81.75 119.37 81.72H119.36C119.3 81.61 119.23 81.5 119.16 81.39C119.09 81.27 119.02 81.16 118.96 81.04L118.61 80.44L118.36 80.02L117.99 79.4C118.07 79.44 118.16 79.47 118.24 79.51L120.34 80.43L123.03 81.61L123.47 81.8C123.47 81.8 123.47 81.8 123.48 81.8L123.49 81.81Z" fill="#003B2F"/><path d="M111.86 82.49C111 81.68 110.45 80.02 110.45 79.12C110.46 79.37 110.51 79.62 110.59 79.87C110.77 80.42 111.12 80.97 111.65 81.48C111.67 81.5 111.69 81.52 111.71 81.54C114.24 83.92 119.7 84.73 123.91 83.34C123.97 83.32 124.03 83.3 124.09 83.28C124.13 83.27 124.17 83.25 124.21 83.24C124.21 83.24 124.22 83.24 124.23 83.24C126.78 82.32 128.2 80.77 128.23 79.16C128.23 78.97 128.22 78.78 128.18 78.6C128.83 80.59 127.33 83.24 124.06 84.31C119.85 85.7 114.39 84.89 111.86 82.51V82.49Z" fill="#03FC9D"/><path d="M111.72 81.54C111.72 81.54 111.68 81.5 111.66 81.48C111.13 80.97 110.77 80.42 110.6 79.87C110.52 79.62 110.47 79.37 110.46 79.12C110.46 79.11 110.46 79.09 110.46 79.08C110.39 77.35 111.93 75.66 114.77 74.72C118.98 73.34 124.44 74.14 126.97 76.52C127.66 77.17 128.06 77.87 128.19 78.58C128.23 78.77 128.24 78.96 128.24 79.14C128.21 80.75 126.79 82.3 124.24 83.22C124.24 83.22 124.24 83.22 124.22 83.22C124.18 83.23 124.14 83.25 124.1 83.26C124.04 83.28 123.98 83.3 123.92 83.32C119.71 84.71 114.25 83.9 111.72 81.52V81.54Z" fill="#E6E8EA"/><path d="M111.8 82.47C110.94 81.66 110.39 80 110.39 79.1C110.4 79.35 110.45 79.6 110.53 79.85C110.71 80.4 111.06 80.95 111.59 81.46C111.61 81.48 111.63 81.5 111.65 81.52C114.18 83.9 119.64 84.71 123.85 83.32C123.91 83.3 123.97 83.28 124.03 83.26C124.07 83.25 124.11 83.23 124.15 83.22C124.15 83.22 124.16 83.22 124.17 83.22C126.72 82.3 128.14 80.75 128.17 79.14C128.17 78.95 128.16 78.76 128.12 78.58C128.77 80.57 127.27 83.22 124 84.29C119.79 85.68 114.33 84.87 111.8 82.49V82.47Z" stroke="#003B2F" stroke-width="0.3" stroke-linecap="round" stroke-linejoin="round"/><path d="M111.65 81.52C111.65 81.52 111.61 81.48 111.59 81.46C111.06 80.95 110.7 80.4 110.53 79.85C110.45 79.6 110.4 79.35 110.39 79.1C110.39 79.09 110.39 79.07 110.39 79.06C110.32 77.33 111.86 75.64 114.7 74.7C118.91 73.32 124.37 74.12 126.9 76.5C127.59 77.15 127.99 77.85 128.12 78.56C128.16 78.75 128.17 78.94 128.17 79.12C128.14 80.73 126.72 82.28 124.17 83.2C124.17 83.2 124.17 83.2 124.15 83.2C124.11 83.21 124.07 83.23 124.03 83.24C123.97 83.26 123.91 83.28 123.85 83.3C119.64 84.69 114.18 83.88 111.65 81.5V81.52Z" stroke="#003B2F" stroke-width="0.3" stroke-linecap="round" stroke-linejoin="round"/><path d="M119.72 76.7C119.74 76.72 119.75 76.73 119.76 76.75L119.94 77.05L120.1 77.32L120.28 77.63L120.43 77.89L120.61 78.2L120.76 78.46L120.94 78.77L121.07 79C121.07 79 121.09 79.02 121.07 79.03C121.06 79.03 121.04 79.03 121.03 79.03C119.87 79 118.71 78.98 117.54 78.95C117.52 78.95 117.51 78.95 117.49 78.95C117.56 78.88 117.62 78.81 117.69 78.75L119.4 77.02L119.7 76.71L119.72 76.7Z" fill="#003B2F"/><path d="M117.5 78.94L121.06 79.02H121.08C121.08 79.02 121.1 79.02 121.12 79.02L125.16 79.11C125.16 79.11 125.19 79.11 125.21 79.11C125.08 79.16 124.96 79.2 124.83 79.25L119.38 81.25C119.38 81.25 119.36 81.25 119.34 81.26C119.34 81.25 119.34 81.24 119.34 81.23L119.47 81.06L119.73 80.72L119.99 80.38C120.08 80.27 120.17 80.15 120.25 80.04L120.51 79.71L120.77 79.37L121.03 79.04C121.03 79.04 121.03 79.02 121.02 79.01H120.99C119.84 78.98 118.68 78.96 117.53 78.93C117.51 78.93 117.49 78.93 117.48 78.93L117.5 78.94Z" fill="#003B2F"/><path d="M117.5 78.94L118.36 78.96C119.26 78.98 120.15 79 121.05 79.02C121.09 79.02 121.09 79.02 121.07 79.05L120.77 79.44C120.7 79.53 120.64 79.61 120.57 79.7L120.28 80.07L120.11 80.28L119.87 80.59L119.7 80.8L119.47 81.1L119.34 81.26C119.33 81.26 119.33 81.26 119.32 81.25L118.4 80.08L117.52 78.97C117.52 78.97 117.5 78.95 117.5 78.94Z" fill="#003B2F"/><path d="M116.45 78.91L116.84 79.4L117.93 80.78L118.27 81.22C118.27 81.22 118.28 81.22 118.27 81.24C118.26 81.24 118.25 81.24 118.25 81.24C116.72 80.45 115.19 79.67 113.66 78.88C113.66 78.88 113.64 78.88 113.64 78.86C113.65 78.86 113.67 78.86 113.69 78.86C114.59 78.88 115.5 78.9 116.4 78.92C116.42 78.92 116.44 78.92 116.45 78.93V78.91Z" fill="#003B2F"/><path d="M116.45 78.91C116.45 78.91 116.42 78.91 116.41 78.91C115.5 78.89 114.59 78.87 113.69 78.85H113.65C113.71 78.82 113.78 78.79 113.84 78.76C114.41 78.51 114.98 78.26 115.56 78.02L117.27 77.28L118.63 76.69H118.66C118.66 76.69 118.64 76.69 118.63 76.71L117.33 78.03L116.46 78.91C116.46 78.91 116.46 78.91 116.45 78.92V78.91Z" fill="#003B2F"/><path d="M125.2 79.11C125.2 79.11 125.18 79.11 125.17 79.11C123.82 79.08 122.47 79.05 121.12 79.02C121.11 79.02 121.09 79.02 121.08 79.02C121.08 79.02 121.1 79.02 121.11 79.02H121.14C122.47 79.05 123.81 79.08 125.14 79.11C125.16 79.11 125.19 79.11 125.21 79.11H125.2Z" fill="#003B2F"/><path d="M125.21 79.11C123.84 79.08 122.46 79.05 121.09 79.02H121.08C121.02 78.91 120.95 78.8 120.88 78.69C120.81 78.57 120.74 78.46 120.68 78.34L120.33 77.74L120.08 77.32L119.71 76.7C119.79 76.74 119.88 76.77 119.96 76.81L122.06 77.73L124.75 78.91L125.19 79.1C125.19 79.1 125.19 79.1 125.2 79.1L125.21 79.11Z" fill="#003B2F"/><path d="M109.11 79.38C108.25 78.57 107.7 76.91 107.7 76.01C107.71 76.26 107.76 76.51 107.84 76.76C108.02 77.31 108.37 77.86 108.9 78.37C108.92 78.39 108.94 78.41 108.96 78.43C111.49 80.81 116.95 81.62 121.16 80.23C121.22 80.21 121.28 80.19 121.34 80.17C121.38 80.16 121.42 80.14 121.46 80.13C121.46 80.13 121.47 80.13 121.48 80.13C124.03 79.21 125.45 77.66 125.48 76.05C125.48 75.86 125.47 75.67 125.43 75.49C126.08 77.48 124.58 80.13 121.31 81.2C117.1 82.59 111.64 81.78 109.11 79.4V79.38Z" fill="#03FC9D"/><path d="M108.97 78.43C108.97 78.43 108.93 78.39 108.91 78.37C108.38 77.86 108.02 77.31 107.85 76.76C107.77 76.51 107.72 76.26 107.71 76.01C107.71 76 107.71 75.98 107.71 75.97C107.64 74.24 109.18 72.55 112.02 71.61C116.23 70.23 121.69 71.03 124.22 73.41C124.91 74.06 125.31 74.76 125.44 75.47C125.48 75.66 125.49 75.85 125.49 76.03C125.46 77.64 124.04 79.19 121.49 80.11C121.49 80.11 121.49 80.11 121.47 80.11C121.43 80.12 121.39 80.14 121.35 80.15C121.29 80.17 121.23 80.19 121.17 80.21C116.96 81.6 111.5 80.79 108.97 78.41V78.43Z" fill="#E6E8EA"/><path d="M109.05 79.37C108.19 78.56 107.64 76.9 107.64 76C107.65 76.25 107.7 76.5 107.78 76.75C107.96 77.3 108.31 77.85 108.84 78.36C108.86 78.38 108.88 78.4 108.9 78.42C111.43 80.8 116.89 81.61 121.1 80.22C121.16 80.2 121.22 80.18 121.28 80.16C121.32 80.15 121.36 80.13 121.4 80.12C121.4 80.12 121.41 80.12 121.42 80.12C123.97 79.2 125.39 77.65 125.42 76.04C125.42 75.85 125.41 75.66 125.37 75.48C126.02 77.47 124.52 80.12 121.25 81.19C117.04 82.58 111.58 81.77 109.05 79.39V79.37Z" stroke="#003B2F" stroke-width="0.3" stroke-linecap="round" stroke-linejoin="round"/><path d="M108.9 78.41C108.9 78.41 108.86 78.37 108.84 78.35C108.31 77.84 107.95 77.29 107.78 76.74C107.7 76.49 107.65 76.24 107.64 75.99C107.64 75.98 107.64 75.96 107.64 75.95C107.57 74.22 109.11 72.53 111.95 71.59C116.16 70.21 121.62 71.01 124.15 73.39C124.84 74.04 125.24 74.74 125.37 75.45C125.41 75.64 125.42 75.83 125.42 76.01C125.39 77.62 123.97 79.17 121.42 80.09C121.42 80.09 121.42 80.09 121.4 80.09C121.36 80.1 121.32 80.12 121.28 80.13C121.22 80.15 121.16 80.17 121.1 80.19C116.89 81.58 111.43 80.77 108.9 78.39V78.41Z" stroke="#003B2F" stroke-width="0.3" stroke-linecap="round" stroke-linejoin="round"/><path d="M116.97 73.59C116.99 73.61 117 73.62 117.01 73.64L117.19 73.94L117.35 74.21L117.53 74.52L117.68 74.78L117.86 75.09L118.01 75.35L118.19 75.66L118.32 75.89C118.32 75.89 118.34 75.91 118.32 75.92C118.31 75.92 118.29 75.92 118.28 75.92C117.12 75.89 115.96 75.87 114.79 75.84C114.77 75.84 114.76 75.84 114.74 75.84C114.81 75.77 114.87 75.7 114.94 75.64L116.65 73.91L116.95 73.6L116.97 73.59Z" fill="#003B2F"/><path d="M114.75 75.83L118.31 75.91H118.33C118.33 75.91 118.35 75.91 118.37 75.91L122.41 76C122.41 76 122.44 76 122.46 76C122.33 76.05 122.21 76.09 122.08 76.14L116.63 78.14C116.63 78.14 116.61 78.14 116.59 78.15C116.59 78.14 116.59 78.13 116.59 78.12L116.72 77.95L116.98 77.61L117.24 77.27C117.33 77.16 117.42 77.04 117.5 76.93L117.76 76.6L118.02 76.26L118.28 75.93C118.28 75.93 118.28 75.91 118.27 75.9H118.24C117.09 75.87 115.93 75.85 114.78 75.82C114.76 75.82 114.74 75.82 114.73 75.82L114.75 75.83Z" fill="#003B2F"/><path d="M114.75 75.83L115.61 75.85C116.51 75.87 117.4 75.89 118.3 75.91C118.34 75.91 118.34 75.91 118.32 75.94L118.02 76.33C117.95 76.42 117.89 76.5 117.82 76.59L117.53 76.96L117.36 77.17L117.12 77.48L116.95 77.69L116.72 77.99L116.59 78.15C116.58 78.15 116.58 78.15 116.57 78.14L115.65 76.97L114.77 75.86C114.77 75.86 114.75 75.84 114.75 75.83Z" fill="#003B2F"/><path d="M113.7 75.81L114.09 76.3L115.18 77.68L115.52 78.12C115.52 78.12 115.53 78.12 115.52 78.14C115.51 78.14 115.5 78.14 115.5 78.14C113.97 77.35 112.44 76.57 110.91 75.78C110.91 75.78 110.89 75.78 110.89 75.76C110.9 75.76 110.92 75.76 110.94 75.76C111.84 75.78 112.75 75.8 113.65 75.82C113.67 75.82 113.69 75.82 113.7 75.83V75.81Z" fill="#003B2F"/><path d="M113.7 75.81C113.7 75.81 113.67 75.81 113.66 75.81C112.75 75.79 111.84 75.77 110.94 75.75H110.9C110.96 75.72 111.03 75.69 111.09 75.66C111.66 75.41 112.23 75.16 112.81 74.92L114.52 74.18L115.88 73.59H115.91C115.91 73.59 115.89 73.59 115.88 73.61L114.58 74.93L113.71 75.81C113.71 75.81 113.71 75.81 113.7 75.82V75.81Z" fill="#003B2F"/><path d="M122.45 76.01C122.45 76.01 122.43 76.01 122.42 76.01C121.07 75.98 119.72 75.95 118.37 75.92C118.36 75.92 118.34 75.92 118.33 75.92C118.33 75.92 118.35 75.92 118.36 75.92H118.39C119.72 75.95 121.06 75.98 122.39 76.01C122.41 76.01 122.44 76.01 122.46 76.01H122.45Z" fill="#003B2F"/><path d="M122.46 76C121.09 75.97 119.71 75.94 118.34 75.91H118.33C118.27 75.8 118.2 75.69 118.13 75.58C118.06 75.46 117.99 75.35 117.93 75.23L117.58 74.63L117.33 74.21L116.96 73.59C117.04 73.63 117.13 73.66 117.21 73.7L119.31 74.62L122 75.8L122.44 75.99C122.44 75.99 122.44 75.99 122.45 75.99L122.46 76Z" fill="#003B2F"/><path d="M112.22 77.83C111.36 77.02 110.81 75.36 110.81 74.46C110.82 74.71 110.87 74.96 110.95 75.21C111.13 75.76 111.48 76.31 112.01 76.82C112.03 76.84 112.05 76.86 112.07 76.88C114.6 79.26 120.06 80.07 124.27 78.68C124.33 78.66 124.39 78.64 124.45 78.62C124.49 78.61 124.53 78.59 124.57 78.58C124.57 78.58 124.58 78.58 124.59 78.58C127.14 77.66 128.56 76.11 128.59 74.5C128.59 74.31 128.58 74.12 128.54 73.94C129.19 75.93 127.69 78.58 124.42 79.65C120.21 81.04 114.75 80.23 112.22 77.85V77.83Z" fill="#03FC9D"/><path d="M112.07 76.88C112.07 76.88 112.03 76.84 112.01 76.82C111.48 76.31 111.12 75.76 110.95 75.21C110.87 74.96 110.82 74.71 110.81 74.46C110.81 74.45 110.81 74.43 110.81 74.42C110.74 72.69 112.28 71 115.12 70.06C119.33 68.68 124.79 69.48 127.32 71.86C128.01 72.51 128.41 73.21 128.54 73.92C128.58 74.11 128.59 74.3 128.59 74.48C128.56 76.09 127.14 77.64 124.59 78.56C124.59 78.56 124.59 78.56 124.57 78.56C124.53 78.57 124.49 78.59 124.45 78.6C124.39 78.62 124.33 78.64 124.27 78.66C120.06 80.05 114.6 79.24 112.07 76.86V76.88Z" fill="#E6E8EA"/><path d="M112.15 77.81C111.29 77 110.74 75.34 110.74 74.44C110.75 74.69 110.8 74.94 110.88 75.19C111.06 75.74 111.41 76.29 111.94 76.8C111.96 76.82 111.98 76.84 112 76.86C114.53 79.24 119.99 80.05 124.2 78.66C124.26 78.64 124.32 78.62 124.38 78.6C124.42 78.59 124.46 78.57 124.5 78.56C124.5 78.56 124.51 78.56 124.52 78.56C127.07 77.64 128.49 76.09 128.52 74.48C128.52 74.29 128.51 74.1 128.47 73.92C129.12 75.91 127.62 78.56 124.35 79.63C120.14 81.02 114.68 80.21 112.15 77.83V77.81Z" stroke="#003B2F" stroke-width="0.3" stroke-linecap="round" stroke-linejoin="round"/><path d="M112 76.86C112 76.86 111.96 76.82 111.94 76.8C111.41 76.29 111.05 75.74 110.88 75.19C110.8 74.94 110.75 74.69 110.74 74.44C110.74 74.43 110.74 74.41 110.74 74.4C110.67 72.67 112.21 70.98 115.05 70.04C119.26 68.66 124.72 69.46 127.25 71.84C127.94 72.49 128.34 73.19 128.47 73.9C128.51 74.09 128.52 74.28 128.52 74.46C128.49 76.07 127.07 77.62 124.52 78.54C124.52 78.54 124.52 78.54 124.5 78.54C124.46 78.55 124.42 78.57 124.38 78.58C124.32 78.6 124.26 78.62 124.2 78.64C119.99 80.03 114.53 79.22 112 76.84V76.86Z" stroke="#003B2F" stroke-width="0.3" stroke-linecap="round" stroke-linejoin="round"/><path d="M117.11 76.35C116.94 76.29 116.79 76.2 116.68 76.08L114.76 74.21L119.41 76.12C119.41 76.12 118.99 76.29 118.78 76.35C118.52 76.43 118.23 76.47 117.94 76.47C117.65 76.47 117.36 76.42 117.1 76.34L117.11 76.35ZM120.32 77.12C120.77 77.1 121.2 77.01 121.59 76.87C121.98 76.73 122.32 76.53 122.59 76.29L124.71 74.23C124.71 74.23 121.97 75.52 119.25 76.61C118.96 76.72 118.65 76.79 118.32 76.83C118.17 76.85 118.02 76.85 117.87 76.83C117.95 76.86 118.11 76.91 118.11 76.91C118.44 77.02 118.8 77.1 119.16 77.13C119.55 77.15 119.93 77.15 120.32 77.13V77.12ZM120.69 71.86C120.48 71.93 120.06 72.09 120.06 72.09L124.71 74L122.79 72.13C122.68 72.02 122.53 71.93 122.36 71.86C122.1 71.78 121.81 71.73 121.52 71.73C121.23 71.73 120.94 71.77 120.68 71.85L120.69 71.86ZM119.16 71.1C118.71 71.12 118.28 71.21 117.89 71.35C117.5 71.49 117.16 71.69 116.89 71.93L114.77 73.99C114.77 73.99 117.51 72.7 120.23 71.61C120.52 71.5 120.83 71.43 121.16 71.39C121.31 71.37 121.46 71.37 121.61 71.39C121.53 71.36 121.37 71.31 121.37 71.31C121.04 71.2 120.68 71.12 120.32 71.09C119.93 71.07 119.55 71.07 119.16 71.09V71.1Z" fill="#003B2F"/><path d="M109.47 74.25C108.61 73.44 108.06 71.78 108.06 70.88C108.07 71.13 108.12 71.38 108.2 71.63C108.38 72.18 108.73 72.73 109.26 73.24C109.28 73.26 109.3 73.28 109.32 73.3C111.85 75.68 117.31 76.49 121.52 75.1C121.58 75.08 121.64 75.06 121.7 75.04C121.74 75.03 121.78 75.01 121.82 75C121.82 75 121.83 75 121.84 75C124.39 74.08 125.81 72.53 125.84 70.92C125.84 70.73 125.83 70.54 125.79 70.36C126.44 72.35 124.94 75 121.67 76.07C117.46 77.46 112 76.65 109.47 74.27V74.25Z" fill="#03FC9D"/><path d="M109.32 73.3C109.32 73.3 109.28 73.26 109.26 73.24C108.73 72.73 108.37 72.18 108.2 71.63C108.12 71.38 108.07 71.13 108.06 70.88C108.06 70.87 108.06 70.85 108.06 70.84C107.99 69.11 109.53 67.42 112.37 66.48C116.58 65.1 122.04 65.9 124.57 68.28C125.26 68.93 125.66 69.63 125.79 70.34C125.83 70.53 125.84 70.72 125.84 70.9C125.81 72.51 124.39 74.06 121.84 74.98C121.84 74.98 121.84 74.98 121.82 74.98C121.78 74.99 121.74 75.01 121.7 75.02C121.64 75.04 121.58 75.06 121.52 75.08C117.31 76.47 111.85 75.66 109.32 73.28V73.3Z" fill="#E6E8EA"/><path d="M109.41 74.24C108.55 73.43 108 71.77 108 70.87C108.01 71.12 108.06 71.37 108.14 71.62C108.32 72.17 108.67 72.72 109.2 73.23C109.22 73.25 109.24 73.27 109.26 73.29C111.79 75.67 117.25 76.48 121.46 75.09C121.52 75.07 121.58 75.05 121.64 75.03C121.68 75.02 121.72 75 121.76 74.99C121.76 74.99 121.77 74.99 121.78 74.99C124.33 74.07 125.75 72.52 125.78 70.91C125.78 70.72 125.77 70.53 125.73 70.35C126.38 72.34 124.88 74.99 121.61 76.06C117.4 77.45 111.94 76.64 109.41 74.26V74.24Z" stroke="#003B2F" stroke-width="0.3" stroke-linecap="round" stroke-linejoin="round"/><path d="M109.26 73.28C109.26 73.28 109.22 73.24 109.2 73.22C108.67 72.71 108.31 72.16 108.14 71.61C108.06 71.36 108.01 71.11 108 70.86C108 70.85 108 70.83 108 70.82C107.93 69.09 109.47 67.4 112.31 66.46C116.52 65.08 121.98 65.88 124.51 68.26C125.2 68.91 125.6 69.61 125.73 70.32C125.77 70.51 125.78 70.7 125.78 70.88C125.75 72.49 124.33 74.04 121.78 74.96C121.78 74.96 121.78 74.96 121.76 74.96C121.72 74.97 121.68 74.99 121.64 75C121.58 75.02 121.52 75.04 121.46 75.06C117.25 76.45 111.79 75.64 109.26 73.26V73.28Z" stroke="#003B2F" stroke-width="0.3" stroke-linecap="round" stroke-linejoin="round"/><path d="M124.14 87.69C123.51 87.1 123.11 85.89 123.11 85.23C123.11 85.41 123.16 85.6 123.22 85.78C123.35 86.18 123.61 86.58 124 86.96C124.01 86.97 124.03 86.99 124.04 87C125.88 88.74 129.87 89.33 132.95 88.32C132.99 88.31 133.04 88.29 133.08 88.27C133.11 88.26 133.14 88.25 133.17 88.24C133.17 88.24 133.17 88.24 133.18 88.24C135.04 87.57 136.08 86.44 136.1 85.26C136.1 85.12 136.1 84.99 136.06 84.85C136.54 86.3 135.44 88.24 133.05 89.02C129.98 90.03 125.99 89.44 124.14 87.7V87.69Z" fill="#03FC9D"/><path d="M124.03 86.99C124.03 86.99 124 86.96 123.99 86.95C123.6 86.57 123.34 86.18 123.21 85.77C123.15 85.59 123.11 85.41 123.1 85.22C123.1 85.22 123.1 85.2 123.1 85.19C123.05 83.93 124.17 82.69 126.25 82.01C129.32 81 133.31 81.59 135.16 83.33C135.67 83.81 135.96 84.32 136.05 84.83C136.08 84.97 136.09 85.11 136.09 85.24C136.07 86.42 135.03 87.55 133.17 88.22C133.17 88.22 133.17 88.22 133.16 88.22C133.13 88.23 133.1 88.24 133.07 88.25C133.03 88.27 132.98 88.28 132.94 88.3C129.87 89.31 125.88 88.72 124.03 86.98V86.99Z" fill="#E6E8EA"/><path d="M124.09 87.68C123.46 87.09 123.06 85.88 123.06 85.22C123.06 85.4 123.11 85.59 123.17 85.77C123.3 86.17 123.56 86.57 123.95 86.95C123.96 86.96 123.98 86.98 123.99 86.99C125.83 88.73 129.82 89.32 132.9 88.31C132.94 88.3 132.99 88.28 133.03 88.26C133.06 88.25 133.09 88.24 133.12 88.23C133.12 88.23 133.12 88.23 133.13 88.23C134.99 87.56 136.03 86.43 136.05 85.25C136.05 85.11 136.05 84.98 136.01 84.84C136.49 86.29 135.39 88.23 133 89.01C129.93 90.02 125.94 89.43 124.09 87.69V87.68Z" stroke="#003B2F" stroke-width="0.3" stroke-linecap="round" stroke-linejoin="round"/><path d="M123.99 86.98C123.99 86.98 123.96 86.95 123.95 86.94C123.56 86.56 123.3 86.17 123.17 85.76C123.11 85.58 123.07 85.4 123.06 85.21C123.06 85.21 123.06 85.19 123.06 85.18C123.01 83.92 124.13 82.68 126.21 82C129.28 80.99 133.27 81.58 135.12 83.32C135.63 83.8 135.92 84.31 136.01 84.82C136.04 84.96 136.05 85.1 136.05 85.23C136.03 86.41 134.99 87.54 133.13 88.21C133.13 88.21 133.13 88.21 133.12 88.21C133.09 88.22 133.06 88.23 133.03 88.24C132.99 88.26 132.94 88.27 132.9 88.29C129.83 89.3 125.84 88.71 123.99 86.97V86.98Z" stroke="#003B2F" stroke-width="0.3" stroke-linecap="round" stroke-linejoin="round"/><path d="M129.88 83.46C129.89 83.47 129.9 83.48 129.91 83.5L130.04 83.72L130.16 83.91L130.29 84.13L130.4 84.32L130.53 84.55L130.64 84.74L130.77 84.96L130.87 85.12C130.87 85.12 130.88 85.13 130.87 85.14C130.87 85.14 130.85 85.14 130.84 85.14C129.99 85.12 129.14 85.1 128.29 85.08C128.28 85.08 128.26 85.08 128.25 85.08C128.3 85.03 128.35 84.98 128.39 84.93L129.64 83.67L129.86 83.45L129.88 83.46Z" fill="#003B2F"/><path d="M128.26 85.09L130.86 85.15H130.88C130.88 85.15 130.9 85.15 130.91 85.15C131.89 85.17 132.88 85.19 133.86 85.22C133.87 85.22 133.88 85.22 133.89 85.22C133.8 85.25 133.71 85.29 133.61 85.32L129.63 86.78C129.63 86.78 129.61 86.78 129.6 86.78C129.6 86.78 129.6 86.77 129.6 86.76L129.7 86.63L129.89 86.38L130.08 86.13C130.14 86.05 130.21 85.96 130.27 85.88L130.46 85.64L130.65 85.39L130.84 85.15V85.13H130.82C129.98 85.11 129.13 85.09 128.29 85.07C128.28 85.07 128.26 85.07 128.25 85.07L128.26 85.09Z" fill="#003B2F"/><path d="M128.26 85.1H128.89C129.54 85.13 130.2 85.14 130.85 85.16C130.88 85.16 130.88 85.16 130.86 85.18L130.64 85.46C130.59 85.52 130.54 85.58 130.49 85.65L130.28 85.92L130.16 86.08L129.99 86.3L129.87 86.46L129.7 86.68L129.61 86.8C129.6 86.8 129.6 86.8 129.6 86.79L128.93 85.94L128.29 85.13C128.29 85.13 128.28 85.12 128.28 85.11L128.26 85.1Z" fill="#003B2F"/><path d="M127.49 85.08L127.77 85.44L128.57 86.45L128.82 86.77C128.82 86.77 128.82 86.77 128.82 86.78C128.82 86.78 128.81 86.78 128.8 86.78C127.68 86.21 126.57 85.63 125.45 85.06C125.45 85.06 125.43 85.06 125.43 85.05C125.44 85.05 125.45 85.05 125.46 85.05C126.12 85.06 126.78 85.08 127.44 85.09C127.45 85.09 127.47 85.09 127.47 85.09L127.49 85.08Z" fill="#003B2F"/><path d="M127.49 85.08C127.49 85.08 127.47 85.08 127.46 85.08C126.8 85.07 126.13 85.05 125.47 85.04H125.44C125.44 85.04 125.53 85 125.58 84.98C126 84.8 126.41 84.62 126.83 84.44L128.08 83.9L129.08 83.47H129.1C129.1 83.47 129.09 83.47 129.08 83.48L128.13 84.44L127.5 85.08C127.5 85.08 127.5 85.08 127.5 85.09L127.49 85.08Z" fill="#003B2F"/><path d="M133.88 85.22H133.86C132.87 85.2 131.89 85.18 130.9 85.15C130.9 85.15 130.88 85.15 130.87 85.15C130.87 85.15 130.88 85.15 130.89 85.15H130.91C131.88 85.17 132.86 85.19 133.83 85.22C133.85 85.22 133.86 85.22 133.88 85.22Z" fill="#003B2F"/><path d="M133.89 85.22C132.89 85.2 131.89 85.18 130.88 85.15C130.83 85.07 130.79 84.99 130.74 84.91C130.69 84.83 130.64 84.74 130.59 84.66L130.33 84.22L130.15 83.91L129.88 83.46C129.94 83.49 130 83.51 130.06 83.54L131.6 84.21L133.56 85.07L133.88 85.21C133.88 85.21 133.88 85.21 133.89 85.21V85.22Z" fill="#003B2F"/><path d="M125.17 86.44C124.54 85.85 124.14 84.64 124.14 83.98C124.14 84.16 124.19 84.35 124.25 84.53C124.38 84.93 124.64 85.33 125.03 85.71C125.04 85.72 125.06 85.74 125.07 85.75C126.91 87.49 130.9 88.08 133.98 87.07C134.02 87.06 134.07 87.04 134.11 87.02C134.14 87.01 134.17 87 134.2 86.99C134.2 86.99 134.2 86.99 134.21 86.99C136.07 86.32 137.11 85.19 137.13 84.01C137.13 83.87 137.13 83.74 137.09 83.6C137.57 85.05 136.47 86.99 134.08 87.77C131.01 88.78 127.02 88.19 125.17 86.45V86.44Z" fill="#03FC9D"/><path d="M125.07 85.75C125.07 85.75 125.04 85.72 125.03 85.71C124.64 85.33 124.38 84.94 124.25 84.53C124.19 84.35 124.15 84.17 124.14 83.98C124.14 83.98 124.14 83.96 124.14 83.95C124.09 82.69 125.21 81.45 127.29 80.77C130.36 79.76 134.35 80.35 136.2 82.09C136.71 82.57 137 83.08 137.09 83.59C137.12 83.73 137.13 83.87 137.13 84C137.11 85.18 136.07 86.31 134.21 86.98C134.21 86.98 134.21 86.98 134.2 86.98C134.17 86.99 134.14 87 134.11 87.01C134.07 87.03 134.02 87.04 133.98 87.06C130.91 88.07 126.92 87.48 125.07 85.74V85.75Z" fill="#E6E8EA"/><path d="M125.13 86.43C124.5 85.84 124.1 84.63 124.1 83.97C124.1 84.15 124.15 84.34 124.21 84.52C124.34 84.92 124.6 85.32 124.99 85.7C125 85.71 125.02 85.73 125.03 85.74C126.87 87.48 130.86 88.07 133.94 87.06C133.98 87.05 134.03 87.03 134.07 87.01C134.1 87 134.13 86.99 134.16 86.98C134.16 86.98 134.16 86.98 134.17 86.98C136.03 86.31 137.07 85.18 137.09 84C137.09 83.86 137.09 83.73 137.05 83.59C137.53 85.04 136.43 86.98 134.04 87.76C130.97 88.77 126.98 88.18 125.13 86.44V86.43Z" stroke="#003B2F" stroke-width="0.3" stroke-linecap="round" stroke-linejoin="round"/><path d="M125.02 85.74C125.02 85.74 124.99 85.71 124.98 85.7C124.59 85.32 124.33 84.93 124.2 84.52C124.14 84.34 124.1 84.16 124.09 83.97C124.09 83.97 124.09 83.95 124.09 83.94C124.04 82.68 125.16 81.44 127.24 80.76C130.31 79.75 134.3 80.34 136.15 82.08C136.66 82.56 136.95 83.07 137.04 83.58C137.07 83.72 137.08 83.86 137.08 83.99C137.06 85.17 136.02 86.3 134.16 86.97C134.16 86.97 134.16 86.97 134.15 86.97C134.12 86.98 134.09 86.99 134.06 87C134.02 87.02 133.97 87.03 133.93 87.05C130.86 88.06 126.87 87.47 125.02 85.73V85.74Z" stroke="#003B2F" stroke-width="0.3" stroke-linecap="round" stroke-linejoin="round"/><path d="M130.91 82.21C130.92 82.22 130.93 82.23 130.94 82.25L131.07 82.47L131.19 82.66L131.32 82.88L131.43 83.07L131.56 83.3L131.67 83.49L131.8 83.71L131.9 83.87C131.9 83.87 131.91 83.88 131.9 83.89C131.9 83.89 131.88 83.89 131.87 83.89C131.02 83.87 130.17 83.85 129.32 83.83C129.31 83.83 129.29 83.83 129.28 83.83C129.33 83.78 129.38 83.73 129.42 83.68L130.67 82.42L130.89 82.2L130.91 82.21Z" fill="#003B2F"/><path d="M129.29 83.85L131.89 83.91H131.91C131.91 83.91 131.93 83.91 131.94 83.91L134.89 83.98C134.89 83.98 134.91 83.98 134.92 83.98C134.83 84.01 134.74 84.05 134.64 84.08L130.66 85.54C130.66 85.54 130.64 85.54 130.63 85.54C130.63 85.54 130.63 85.53 130.63 85.52L130.73 85.39L130.92 85.14L131.11 84.89C131.17 84.81 131.24 84.72 131.3 84.64L131.49 84.4L131.68 84.15L131.87 83.91V83.89H131.85C131.01 83.87 130.16 83.85 129.32 83.83C129.31 83.83 129.29 83.83 129.28 83.83L129.29 83.85Z" fill="#003B2F"/><path d="M129.29 83.85H129.92C130.57 83.88 131.23 83.89 131.88 83.91C131.91 83.91 131.91 83.91 131.89 83.93L131.67 84.21C131.62 84.27 131.57 84.33 131.52 84.4L131.31 84.67L131.19 84.83L131.02 85.05L130.9 85.21L130.73 85.43L130.64 85.55C130.63 85.55 130.63 85.55 130.63 85.54L129.96 84.69L129.32 83.88C129.32 83.88 129.31 83.87 129.31 83.86L129.29 83.85Z" fill="#003B2F"/><path d="M128.52 83.83L128.8 84.19L129.6 85.2L129.85 85.52C129.85 85.52 129.85 85.52 129.85 85.53C129.85 85.53 129.84 85.53 129.83 85.53C128.71 84.96 127.6 84.38 126.48 83.81C126.48 83.81 126.46 83.81 126.46 83.8C126.47 83.8 126.48 83.8 126.49 83.8C127.15 83.81 127.81 83.83 128.47 83.84C128.48 83.84 128.5 83.84 128.5 83.84L128.52 83.83Z" fill="#003B2F"/><path d="M128.52 83.83C128.52 83.83 128.5 83.83 128.49 83.83C127.83 83.82 127.16 83.8 126.5 83.79H126.47C126.47 83.79 126.56 83.75 126.61 83.73C127.03 83.55 127.44 83.37 127.86 83.19L129.11 82.65L130.11 82.22H130.13C130.13 82.22 130.12 82.22 130.11 82.23L129.16 83.19L128.53 83.83C128.53 83.83 128.53 83.83 128.53 83.84L128.52 83.83Z" fill="#003B2F"/><path d="M134.91 83.98H134.89L131.93 83.91C131.93 83.91 131.91 83.91 131.9 83.91C131.9 83.91 131.91 83.91 131.92 83.91H131.94C132.91 83.93 133.89 83.95 134.86 83.98C134.88 83.98 134.89 83.98 134.91 83.98Z" fill="#003B2F"/><path d="M134.92 83.97C133.92 83.95 132.92 83.93 131.91 83.9C131.86 83.82 131.82 83.74 131.77 83.66C131.72 83.58 131.67 83.49 131.62 83.41L131.36 82.97L131.18 82.66L130.91 82.21C130.97 82.24 131.03 82.26 131.09 82.29L132.63 82.96L134.59 83.82L134.91 83.96C134.91 83.96 134.91 83.96 134.92 83.96V83.97Z" fill="#003B2F"/><path d="M123.74 85.09C123.11 84.5 122.71 83.29 122.71 82.63C122.71 82.81 122.76 83 122.82 83.18C122.95 83.58 123.21 83.98 123.6 84.36C123.61 84.37 123.63 84.39 123.64 84.4C125.48 86.14 129.47 86.73 132.55 85.72C132.59 85.71 132.64 85.69 132.68 85.67C132.71 85.66 132.74 85.65 132.77 85.64C132.77 85.64 132.77 85.64 132.78 85.64C134.64 84.97 135.68 83.84 135.7 82.66C135.7 82.52 135.7 82.39 135.66 82.25C136.14 83.7 135.04 85.64 132.65 86.42C129.58 87.43 125.59 86.84 123.74 85.1V85.09Z" fill="#03FC9D"/><path d="M123.63 84.4C123.63 84.4 123.6 84.37 123.59 84.36C123.2 83.98 122.94 83.59 122.81 83.18C122.75 83 122.71 82.82 122.7 82.63C122.7 82.63 122.7 82.61 122.7 82.6C122.65 81.34 123.77 80.1 125.85 79.42C128.92 78.41 132.91 79 134.76 80.74C135.27 81.22 135.56 81.73 135.65 82.24C135.68 82.38 135.69 82.52 135.69 82.65C135.67 83.83 134.63 84.96 132.77 85.63C132.77 85.63 132.77 85.63 132.76 85.63C132.73 85.64 132.7 85.65 132.67 85.66C132.63 85.68 132.58 85.69 132.54 85.71C129.47 86.72 125.48 86.13 123.63 84.39V84.4Z" fill="#E6E8EA"/><path d="M123.69 85.08C123.06 84.49 122.66 83.28 122.66 82.62C122.66 82.8 122.71 82.99 122.77 83.17C122.9 83.57 123.16 83.97 123.55 84.35C123.56 84.36 123.58 84.38 123.59 84.39C125.43 86.13 129.42 86.72 132.5 85.71C132.54 85.7 132.59 85.68 132.63 85.66C132.66 85.65 132.69 85.64 132.72 85.63C132.72 85.63 132.72 85.63 132.73 85.63C134.59 84.96 135.63 83.83 135.65 82.65C135.65 82.51 135.65 82.38 135.61 82.24C136.09 83.69 134.99 85.63 132.6 86.41C129.53 87.42 125.54 86.83 123.69 85.09V85.08Z" stroke="#003B2F" stroke-width="0.3" stroke-linecap="round" stroke-linejoin="round"/><path d="M123.58 84.39C123.58 84.39 123.55 84.36 123.54 84.35C123.15 83.97 122.89 83.58 122.76 83.17C122.7 82.99 122.66 82.81 122.65 82.62C122.65 82.62 122.65 82.6 122.65 82.59C122.6 81.33 123.72 80.09 125.8 79.41C128.87 78.4 132.86 78.99 134.71 80.73C135.22 81.21 135.51 81.72 135.6 82.23C135.63 82.37 135.64 82.51 135.64 82.64C135.62 83.82 134.58 84.95 132.72 85.62C132.72 85.62 132.72 85.62 132.71 85.62C132.68 85.63 132.65 85.64 132.62 85.65C132.58 85.67 132.53 85.68 132.49 85.7C129.42 86.71 125.43 86.12 123.58 84.38V84.39Z" stroke="#003B2F" stroke-width="0.3" stroke-linecap="round" stroke-linejoin="round"/><path d="M129.47 80.86C129.48 80.87 129.49 80.88 129.5 80.9L129.63 81.12L129.75 81.31L129.88 81.53L129.99 81.72L130.12 81.95L130.23 82.14L130.36 82.36L130.46 82.52C130.46 82.52 130.47 82.53 130.46 82.54C130.46 82.54 130.44 82.54 130.43 82.54C129.58 82.52 128.73 82.5 127.88 82.48C127.87 82.48 127.85 82.48 127.84 82.48C127.89 82.43 127.94 82.38 127.98 82.33L129.23 81.07L129.45 80.85L129.47 80.86Z" fill="#003B2F"/><path d="M127.85 82.5L130.45 82.56H130.47C130.47 82.56 130.49 82.56 130.5 82.56C131.48 82.58 132.47 82.6 133.45 82.63C133.46 82.63 133.47 82.63 133.48 82.63C133.39 82.66 133.3 82.7 133.2 82.73L129.22 84.19C129.22 84.19 129.2 84.19 129.19 84.19C129.19 84.19 129.19 84.18 129.19 84.17L129.29 84.04L129.48 83.79L129.67 83.54C129.73 83.46 129.8 83.37 129.86 83.29L130.05 83.05L130.24 82.8L130.43 82.56V82.54H130.41C129.57 82.52 128.72 82.5 127.88 82.48C127.87 82.48 127.85 82.48 127.84 82.48L127.85 82.5Z" fill="#003B2F"/><path d="M127.85 82.5H128.48C129.13 82.53 129.79 82.54 130.44 82.56C130.47 82.56 130.47 82.56 130.45 82.58L130.23 82.86C130.18 82.92 130.13 82.98 130.08 83.05L129.87 83.32L129.75 83.48L129.58 83.7L129.46 83.86L129.29 84.08L129.2 84.2C129.19 84.2 129.19 84.2 129.19 84.19L128.52 83.34L127.88 82.53C127.88 82.53 127.87 82.52 127.87 82.51L127.85 82.5Z" fill="#003B2F"/><path d="M127.09 82.48L127.37 82.84L128.17 83.85L128.42 84.17C128.42 84.17 128.42 84.17 128.42 84.18C128.42 84.18 128.41 84.18 128.4 84.18C127.28 83.61 126.17 83.03 125.05 82.46C125.05 82.46 125.03 82.46 125.03 82.45C125.04 82.45 125.05 82.45 125.06 82.45C125.72 82.46 126.38 82.48 127.04 82.49C127.05 82.49 127.07 82.49 127.07 82.49L127.09 82.48Z" fill="#003B2F"/><path d="M127.09 82.48C127.09 82.48 127.07 82.48 127.06 82.48C126.4 82.47 125.73 82.45 125.07 82.44H125.04C125.04 82.44 125.13 82.4 125.18 82.38C125.6 82.2 126.01 82.02 126.43 81.84L127.68 81.3L128.68 80.87H128.7C128.7 80.87 128.69 80.87 128.68 80.88L127.73 81.84L127.1 82.48C127.1 82.48 127.1 82.48 127.1 82.49L127.09 82.48Z" fill="#003B2F"/><path d="M133.48 82.63H133.46L130.5 82.56C130.5 82.56 130.48 82.56 130.47 82.56C130.47 82.56 130.48 82.56 130.49 82.56H130.51C131.48 82.58 132.46 82.6 133.43 82.63C133.45 82.63 133.46 82.63 133.48 82.63Z" fill="#003B2F"/><path d="M133.49 82.62C132.49 82.6 131.49 82.58 130.48 82.55C130.43 82.47 130.39 82.39 130.34 82.31C130.29 82.23 130.24 82.14 130.19 82.06L129.93 81.62L129.75 81.31L129.48 80.86C129.54 80.89 129.6 80.91 129.66 80.94L131.2 81.61L133.16 82.47L133.48 82.61C133.48 82.61 133.48 82.61 133.49 82.61V82.62Z" fill="#003B2F"/><path d="M125.4 83.97C124.77 83.38 124.37 82.17 124.37 81.51C124.37 81.69 124.42 81.88 124.48 82.06C124.61 82.46 124.87 82.86 125.26 83.24C125.27 83.25 125.29 83.27 125.3 83.28C127.14 85.02 131.13 85.61 134.21 84.6C134.25 84.59 134.3 84.57 134.34 84.55C134.37 84.54 134.4 84.53 134.43 84.52C134.43 84.52 134.43 84.52 134.44 84.52C136.3 83.85 137.34 82.72 137.36 81.54C137.36 81.4 137.36 81.27 137.32 81.13C137.8 82.58 136.7 84.52 134.31 85.3C131.24 86.31 127.25 85.72 125.4 83.98V83.97Z" fill="#03FC9D"/><path d="M125.29 83.28C125.29 83.28 125.26 83.25 125.25 83.24C124.86 82.86 124.6 82.47 124.47 82.06C124.41 81.88 124.37 81.7 124.36 81.51C124.36 81.51 124.36 81.49 124.36 81.48C124.31 80.22 125.43 78.98 127.51 78.3C130.58 77.29 134.57 77.88 136.42 79.62C136.93 80.1 137.22 80.61 137.31 81.12C137.34 81.26 137.35 81.4 137.35 81.53C137.33 82.71 136.29 83.84 134.43 84.51C134.43 84.51 134.43 84.51 134.42 84.51C134.39 84.52 134.36 84.53 134.33 84.54C134.29 84.56 134.24 84.57 134.2 84.59C131.13 85.6 127.14 85.01 125.29 83.27V83.28Z" fill="#E6E8EA"/><path d="M125.35 83.96C124.72 83.37 124.32 82.16 124.32 81.5C124.32 81.68 124.37 81.87 124.43 82.05C124.56 82.45 124.82 82.85 125.21 83.23C125.22 83.24 125.24 83.26 125.25 83.27C127.09 85.01 131.08 85.6 134.16 84.59C134.2 84.58 134.25 84.56 134.29 84.54C134.32 84.53 134.35 84.52 134.38 84.51C134.38 84.51 134.38 84.51 134.39 84.51C136.25 83.84 137.29 82.71 137.31 81.53C137.31 81.39 137.31 81.26 137.27 81.12C137.75 82.57 136.65 84.51 134.26 85.29C131.19 86.3 127.2 85.71 125.35 83.97V83.96Z" stroke="#003B2F" stroke-width="0.3" stroke-linecap="round" stroke-linejoin="round"/><path d="M125.24 83.26C125.24 83.26 125.21 83.23 125.2 83.22C124.81 82.84 124.55 82.45 124.42 82.04C124.36 81.86 124.32 81.68 124.31 81.49C124.31 81.49 124.31 81.47 124.31 81.46C124.26 80.2 125.38 78.96 127.46 78.28C130.53 77.27 134.52 77.86 136.37 79.6C136.88 80.08 137.17 80.59 137.26 81.1C137.29 81.24 137.3 81.38 137.3 81.51C137.28 82.69 136.24 83.82 134.38 84.49C134.38 84.49 134.38 84.49 134.37 84.49C134.34 84.5 134.31 84.51 134.28 84.52C134.24 84.54 134.19 84.55 134.15 84.57C131.08 85.58 127.09 84.99 125.24 83.25V83.26Z" stroke="#003B2F" stroke-width="0.3" stroke-linecap="round" stroke-linejoin="round"/><path d="M124.61 82.94C123.98 82.35 123.58 81.14 123.58 80.48C123.58 80.66 123.63 80.85 123.69 81.03C123.82 81.43 124.08 81.83 124.47 82.21C124.48 82.22 124.5 82.24 124.51 82.25C126.35 83.99 130.34 84.58 133.42 83.57C133.46 83.56 133.51 83.54 133.55 83.52C133.58 83.51 133.61 83.5 133.64 83.49C133.64 83.49 133.64 83.49 133.65 83.49C135.51 82.82 136.55 81.69 136.57 80.51C136.57 80.37 136.57 80.24 136.53 80.1C137.01 81.55 135.91 83.49 133.52 84.27C130.45 85.28 126.46 84.69 124.61 82.95V82.94Z" fill="#03FC9D"/><path d="M124.5 82.24C124.5 82.24 124.47 82.21 124.46 82.2C124.07 81.82 123.81 81.43 123.68 81.02C123.62 80.84 123.58 80.66 123.57 80.47C123.57 80.47 123.57 80.45 123.57 80.44C123.52 79.18 124.64 77.94 126.72 77.26C129.79 76.25 133.78 76.84 135.63 78.58C136.14 79.06 136.43 79.57 136.52 80.08C136.55 80.22 136.56 80.36 136.56 80.49C136.54 81.67 135.5 82.8 133.64 83.47C133.64 83.47 133.64 83.47 133.63 83.47C133.6 83.48 133.57 83.49 133.54 83.5C133.5 83.52 133.45 83.53 133.41 83.55C130.34 84.56 126.35 83.97 124.5 82.23V82.24Z" fill="#E6E8EA"/><path d="M124.56 82.93C123.93 82.34 123.53 81.13 123.53 80.47C123.53 80.65 123.58 80.84 123.64 81.02C123.77 81.42 124.03 81.82 124.42 82.2C124.43 82.21 124.45 82.23 124.46 82.24C126.3 83.98 130.29 84.57 133.37 83.56C133.41 83.55 133.46 83.53 133.5 83.51C133.53 83.5 133.56 83.49 133.59 83.48C133.59 83.48 133.59 83.48 133.6 83.48C135.46 82.81 136.5 81.68 136.52 80.5C136.52 80.36 136.52 80.23 136.48 80.09C136.96 81.54 135.86 83.48 133.47 84.26C130.4 85.27 126.41 84.68 124.56 82.94V82.93Z" stroke="#003B2F" stroke-width="0.3" stroke-linecap="round" stroke-linejoin="round"/><path d="M124.46 82.23C124.46 82.23 124.43 82.2 124.42 82.19C124.03 81.81 123.77 81.42 123.64 81.01C123.58 80.83 123.54 80.65 123.53 80.46C123.53 80.46 123.53 80.44 123.53 80.43C123.48 79.17 124.6 77.93 126.68 77.25C129.75 76.24 133.74 76.83 135.59 78.57C136.1 79.05 136.39 79.56 136.48 80.07C136.51 80.21 136.52 80.35 136.52 80.48C136.5 81.66 135.46 82.79 133.6 83.46C133.6 83.46 133.6 83.46 133.59 83.46C133.56 83.47 133.53 83.48 133.5 83.49C133.46 83.51 133.41 83.52 133.37 83.54C130.3 84.55 126.31 83.96 124.46 82.22V82.23Z" stroke="#003B2F" stroke-width="0.3" stroke-linecap="round" stroke-linejoin="round"/><path d="M128.04 82.18C127.9 82.13 127.78 82.05 127.69 81.96L126.12 80.43L129.93 81.99C129.93 81.99 129.59 82.13 129.42 82.18C129.2 82.25 128.97 82.28 128.73 82.28C128.49 82.28 128.26 82.24 128.04 82.17V82.18ZM130.67 82.81C131.03 82.79 131.39 82.72 131.71 82.61C132.03 82.49 132.31 82.33 132.53 82.13L134.26 80.44C134.26 80.44 132.02 81.5 129.79 82.39C129.55 82.48 129.3 82.54 129.03 82.57C128.91 82.58 128.79 82.58 128.66 82.57C128.72 82.59 128.85 82.64 128.85 82.64C129.12 82.73 129.41 82.79 129.71 82.82C130.03 82.84 130.34 82.84 130.66 82.82L130.67 82.81ZM130.97 78.5C130.8 78.55 130.46 78.69 130.46 78.69L134.27 80.25L132.7 78.72C132.61 78.63 132.49 78.55 132.35 78.5C132.14 78.43 131.9 78.39 131.66 78.39C131.42 78.39 131.19 78.42 130.97 78.49V78.5ZM129.72 77.88C129.36 77.9 129 77.97 128.68 78.09C128.36 78.21 128.08 78.37 127.86 78.57L126.13 80.26C126.13 80.26 128.37 79.2 130.6 78.31C130.84 78.22 131.09 78.16 131.36 78.13C131.48 78.12 131.6 78.12 131.73 78.13C131.67 78.11 131.54 78.06 131.54 78.06C131.27 77.97 130.98 77.91 130.68 77.88C130.36 77.86 130.05 77.86 129.73 77.88H129.72Z" fill="#003B2F"/><path d="M114.86 89.37C114.31 88.85 113.96 87.79 113.96 87.21C113.96 87.37 114 87.53 114.05 87.69C114.16 88.04 114.39 88.39 114.73 88.72C114.74 88.73 114.75 88.74 114.77 88.76C116.39 90.28 119.88 90.8 122.58 89.91C122.62 89.9 122.66 89.88 122.7 89.87C122.73 89.87 122.75 89.85 122.78 89.84C122.78 89.84 122.78 89.84 122.79 89.84C124.42 89.25 125.33 88.26 125.35 87.23C125.35 87.11 125.35 86.99 125.32 86.87C125.74 88.14 124.77 89.84 122.68 90.53C119.98 91.42 116.49 90.9 114.87 89.38L114.86 89.37Z" fill="#03FC9D"/><path d="M114.77 88.76C114.77 88.76 114.75 88.74 114.73 88.72C114.39 88.39 114.16 88.04 114.05 87.69C114 87.53 113.97 87.37 113.96 87.21C113.96 87.21 113.96 87.19 113.96 87.18C113.91 86.07 114.9 84.99 116.72 84.39C119.42 83.5 122.91 84.02 124.53 85.54C124.97 85.96 125.23 86.41 125.31 86.86C125.33 86.98 125.34 87.1 125.34 87.22C125.32 88.25 124.41 89.24 122.78 89.83C122.78 89.83 122.78 89.83 122.77 89.83C122.74 89.83 122.72 89.85 122.69 89.86C122.65 89.87 122.61 89.89 122.57 89.9C119.87 90.79 116.38 90.27 114.76 88.75L114.77 88.76Z" fill="#E6E8EA"/><path d="M114.82 89.36C114.27 88.84 113.92 87.78 113.92 87.2C113.92 87.36 113.96 87.52 114.01 87.68C114.12 88.03 114.35 88.38 114.69 88.71C114.7 88.72 114.71 88.73 114.73 88.75C116.35 90.27 119.84 90.79 122.54 89.9C122.58 89.89 122.62 89.87 122.66 89.86C122.69 89.86 122.71 89.84 122.74 89.83C122.74 89.83 122.74 89.83 122.75 89.83C124.38 89.24 125.29 88.25 125.31 87.22C125.31 87.1 125.31 86.98 125.28 86.86C125.7 88.13 124.73 89.83 122.64 90.52C119.94 91.41 116.45 90.89 114.83 89.37L114.82 89.36Z" stroke="#003B2F" stroke-width="0.3" stroke-linecap="round" stroke-linejoin="round"/><path d="M114.72 88.75C114.72 88.75 114.7 88.73 114.68 88.71C114.34 88.38 114.11 88.03 114 87.68C113.95 87.52 113.92 87.36 113.91 87.2C113.91 87.2 113.91 87.18 113.91 87.17C113.86 86.06 114.85 84.98 116.67 84.38C119.37 83.49 122.86 84.01 124.48 85.53C124.92 85.95 125.18 86.4 125.26 86.85C125.28 86.97 125.29 87.09 125.29 87.21C125.27 88.24 124.36 89.23 122.73 89.82C122.73 89.82 122.73 89.82 122.72 89.82C122.69 89.82 122.67 89.84 122.64 89.85C122.6 89.86 122.56 89.88 122.52 89.89C119.82 90.78 116.33 90.26 114.71 88.74L114.72 88.75Z" stroke="#003B2F" stroke-width="0.3" stroke-linecap="round" stroke-linejoin="round"/><path d="M119.89 85.66C119.9 85.67 119.91 85.68 119.91 85.69L120.03 85.88L120.13 86.05L120.25 86.25L120.35 86.42L120.47 86.62L120.57 86.79L120.69 86.99L120.78 87.13C120.78 87.13 120.78 87.13 120.78 87.15H120.76C120.02 87.13 119.27 87.12 118.53 87.1C118.52 87.1 118.51 87.1 118.5 87.1C118.54 87.06 118.58 87.01 118.63 86.97L119.73 85.86L119.92 85.66H119.89Z" fill="#003B2F"/><path d="M118.47 87.09L120.75 87.14H120.77H120.79C121.65 87.16 122.51 87.18 123.37 87.2C123.37 87.2 123.39 87.2 123.4 87.2C123.32 87.23 123.24 87.26 123.16 87.29L119.67 88.57H119.65C119.65 88.57 119.65 88.56 119.65 88.55L119.74 88.44L119.91 88.22L120.08 88.01C120.14 87.94 120.19 87.86 120.25 87.79L120.41 87.58L120.58 87.36L120.74 87.15V87.13H120.72C119.98 87.11 119.24 87.1 118.5 87.08C118.49 87.08 118.48 87.08 118.47 87.08V87.09Z" fill="#003B2F"/><path d="M118.47 87.09H119.02C119.59 87.11 120.17 87.13 120.74 87.14C120.76 87.14 120.76 87.14 120.75 87.16L120.56 87.41C120.52 87.46 120.47 87.52 120.43 87.57L120.25 87.81L120.14 87.95L119.99 88.15L119.88 88.29L119.73 88.48L119.65 88.59C119.65 88.59 119.65 88.59 119.64 88.59L119.05 87.84L118.49 87.13C118.49 87.13 118.48 87.12 118.48 87.11L118.47 87.09Z" fill="#003B2F"/><path d="M117.8 87.08L118.05 87.39L118.75 88.27L118.97 88.55C118.97 88.55 118.97 88.55 118.97 88.56C118.97 88.56 118.97 88.56 118.96 88.56C117.98 88.06 117 87.55 116.02 87.05C116.02 87.05 116 87.05 116.01 87.04C116.01 87.04 116.03 87.04 116.04 87.04C116.62 87.05 117.2 87.07 117.78 87.08C117.79 87.08 117.8 87.08 117.81 87.08H117.8Z" fill="#003B2F"/><path d="M117.8 87.08C117.8 87.08 117.78 87.08 117.77 87.08C117.19 87.07 116.61 87.05 116.03 87.04H116.01C116.01 87.04 116.09 87 116.13 86.98C116.5 86.82 116.86 86.66 117.23 86.5L118.33 86.03L119.2 85.65H119.22C119.22 85.65 119.21 85.65 119.2 85.66L118.36 86.5L117.8 87.06V87.08Z" fill="#003B2F"/><path d="M123.4 87.21C123.4 87.21 123.39 87.21 123.38 87.21C122.52 87.19 121.65 87.17 120.79 87.15H120.77C120.77 87.15 120.78 87.15 120.79 87.15H120.81C121.66 87.17 122.52 87.19 123.37 87.21C123.38 87.21 123.4 87.21 123.41 87.21H123.4Z" fill="#003B2F"/><path d="M123.41 87.2C122.53 87.18 121.65 87.16 120.77 87.14C120.73 87.07 120.69 87 120.65 86.93C120.61 86.86 120.56 86.78 120.52 86.71L120.29 86.33L120.13 86.06L119.9 85.66C119.95 85.68 120.01 85.71 120.06 85.73L121.41 86.32L123.13 87.07L123.41 87.19V87.2Z" fill="#003B2F"/><path d="M115.27 88.28C114.72 87.76 114.37 86.7 114.37 86.12C114.37 86.28 114.41 86.44 114.46 86.6C114.57 86.95 114.8 87.3 115.14 87.63C115.15 87.64 115.16 87.65 115.18 87.67C116.8 89.19 120.29 89.71 122.99 88.82C123.03 88.81 123.07 88.79 123.11 88.78C123.14 88.78 123.16 88.76 123.19 88.75C123.19 88.75 123.19 88.75 123.2 88.75C124.83 88.16 125.74 87.17 125.76 86.14C125.76 86.02 125.76 85.9 125.73 85.78C126.15 87.05 125.18 88.75 123.09 89.44C120.39 90.33 116.9 89.81 115.28 88.29L115.27 88.28Z" fill="#03FC9D"/><path d="M115.18 87.67C115.18 87.67 115.16 87.65 115.14 87.63C114.8 87.3 114.57 86.95 114.46 86.6C114.41 86.44 114.38 86.28 114.37 86.12C114.37 86.12 114.37 86.1 114.37 86.09C114.32 84.98 115.31 83.9 117.13 83.3C119.83 82.41 123.32 82.93 124.94 84.45C125.38 84.87 125.64 85.32 125.72 85.77C125.74 85.89 125.75 86.01 125.75 86.13C125.73 87.16 124.82 88.15 123.19 88.74C123.19 88.74 123.19 88.74 123.18 88.74C123.15 88.74 123.13 88.76 123.1 88.77C123.06 88.78 123.02 88.8 122.98 88.81C120.28 89.7 116.79 89.18 115.17 87.66L115.18 87.67Z" fill="#E6E8EA"/><path d="M115.23 88.27C114.68 87.75 114.33 86.69 114.33 86.11C114.33 86.27 114.37 86.43 114.42 86.59C114.53 86.94 114.76 87.29 115.1 87.62C115.11 87.63 115.12 87.64 115.14 87.66C116.76 89.18 120.25 89.7 122.95 88.81C122.99 88.8 123.03 88.78 123.07 88.77C123.1 88.77 123.12 88.75 123.15 88.74C123.15 88.74 123.15 88.74 123.16 88.74C124.79 88.15 125.7 87.16 125.72 86.13C125.72 86.01 125.72 85.89 125.69 85.77C126.11 87.04 125.14 88.74 123.05 89.43C120.35 90.32 116.86 89.8 115.24 88.28L115.23 88.27Z" stroke="#003B2F" stroke-width="0.3" stroke-linecap="round" stroke-linejoin="round"/><path d="M115.13 87.66C115.13 87.66 115.11 87.64 115.09 87.62C114.75 87.29 114.52 86.94 114.41 86.59C114.36 86.43 114.33 86.27 114.32 86.11C114.32 86.11 114.32 86.09 114.32 86.08C114.27 84.97 115.26 83.89 117.08 83.29C119.78 82.4 123.27 82.92 124.89 84.44C125.33 84.86 125.59 85.31 125.67 85.76C125.69 85.88 125.7 86 125.7 86.12C125.68 87.15 124.77 88.14 123.14 88.73C123.14 88.73 123.14 88.73 123.13 88.73C123.1 88.73 123.08 88.75 123.05 88.76C123.01 88.77 122.97 88.79 122.93 88.8C120.23 89.69 116.74 89.17 115.12 87.65L115.13 87.66Z" stroke="#003B2F" stroke-width="0.3" stroke-linecap="round" stroke-linejoin="round"/><path d="M120.3 84.57C120.31 84.58 120.32 84.59 120.32 84.6L120.44 84.79L120.54 84.96L120.66 85.16L120.76 85.33L120.88 85.53L120.98 85.7L121.1 85.9L121.19 86.04C121.19 86.04 121.19 86.04 121.19 86.06H121.17C120.43 86.04 119.68 86.03 118.94 86.01C118.93 86.01 118.92 86.01 118.91 86.01C118.95 85.97 118.99 85.92 119.04 85.88L120.14 84.77L120.33 84.57H120.3Z" fill="#003B2F"/><path d="M118.88 86L121.16 86.05H121.18H121.2C122.06 86.07 122.92 86.09 123.78 86.11C123.78 86.11 123.8 86.11 123.81 86.11C123.73 86.14 123.65 86.17 123.57 86.2L120.08 87.48H120.06C120.06 87.48 120.06 87.47 120.06 87.46L120.15 87.35L120.32 87.13L120.49 86.92C120.55 86.85 120.6 86.77 120.66 86.7L120.82 86.49L120.99 86.27L121.15 86.06V86.04H121.13C120.39 86.02 119.65 86.01 118.91 85.99C118.9 85.99 118.89 85.99 118.88 85.99V86Z" fill="#003B2F"/><path d="M118.88 86H119.43C120 86.02 120.58 86.04 121.15 86.05C121.17 86.05 121.17 86.05 121.16 86.07L120.97 86.32C120.93 86.37 120.88 86.43 120.84 86.48L120.66 86.72L120.55 86.86L120.4 87.06L120.29 87.2L120.14 87.39L120.06 87.5C120.06 87.5 120.06 87.5 120.05 87.5L119.46 86.75L118.9 86.04C118.9 86.04 118.89 86.03 118.89 86.02L118.88 86Z" fill="#003B2F"/><path d="M118.21 85.99L118.46 86.3L119.16 87.18L119.38 87.46C119.38 87.46 119.38 87.46 119.38 87.47C119.38 87.47 119.38 87.47 119.37 87.47C118.39 86.97 117.41 86.46 116.43 85.96C116.43 85.96 116.41 85.96 116.42 85.95C116.42 85.95 116.44 85.95 116.45 85.95C117.03 85.96 117.61 85.98 118.19 85.99C118.2 85.99 118.21 85.99 118.22 85.99H118.21Z" fill="#003B2F"/><path d="M118.21 85.99C118.21 85.99 118.19 85.99 118.18 85.99C117.6 85.98 117.02 85.96 116.44 85.95H116.42C116.42 85.95 116.5 85.91 116.54 85.89C116.91 85.73 117.27 85.57 117.64 85.41L118.74 84.94L119.61 84.56H119.63C119.63 84.56 119.62 84.56 119.61 84.57L118.77 85.41L118.21 85.97V85.99Z" fill="#003B2F"/><path d="M123.81 86.12C123.81 86.12 123.8 86.12 123.79 86.12L121.2 86.06H121.18C121.18 86.06 121.19 86.06 121.2 86.06H121.22C122.07 86.08 122.93 86.1 123.78 86.12C123.79 86.12 123.81 86.12 123.82 86.12H123.81Z" fill="#003B2F"/><path d="M123.82 86.11C122.94 86.09 122.06 86.07 121.18 86.05C121.14 85.98 121.1 85.91 121.06 85.84C121.02 85.77 120.97 85.69 120.93 85.62L120.7 85.24L120.54 84.97L120.31 84.57C120.36 84.59 120.42 84.62 120.47 84.64L121.82 85.23L123.54 85.98L123.82 86.1V86.11Z" fill="#003B2F"/><path d="M114.37 87.19C113.82 86.67 113.47 85.61 113.47 85.03C113.47 85.19 113.51 85.35 113.56 85.51C113.67 85.86 113.9 86.21 114.24 86.54C114.25 86.55 114.26 86.56 114.28 86.58C115.9 88.1 119.39 88.62 122.09 87.73C122.13 87.72 122.17 87.7 122.21 87.69C122.24 87.69 122.26 87.67 122.29 87.66C122.29 87.66 122.29 87.66 122.3 87.66C123.93 87.07 124.84 86.08 124.86 85.05C124.86 84.93 124.86 84.81 124.83 84.69C125.25 85.96 124.28 87.66 122.19 88.35C119.49 89.24 116 88.72 114.38 87.2L114.37 87.19Z" fill="#03FC9D"/><path d="M114.28 86.58C114.28 86.58 114.26 86.56 114.24 86.54C113.9 86.21 113.67 85.86 113.56 85.51C113.51 85.35 113.48 85.19 113.47 85.03C113.47 85.03 113.47 85.01 113.47 85C113.42 83.89 114.41 82.81 116.23 82.21C118.93 81.32 122.42 81.84 124.04 83.36C124.48 83.78 124.74 84.23 124.82 84.68C124.84 84.8 124.85 84.92 124.85 85.04C124.83 86.07 123.92 87.06 122.29 87.65C122.29 87.65 122.29 87.65 122.28 87.65C122.25 87.65 122.23 87.67 122.2 87.68C122.16 87.69 122.12 87.71 122.08 87.72C119.38 88.61 115.89 88.09 114.27 86.57L114.28 86.58Z" fill="#E6E8EA"/><path d="M114.33 87.18C113.78 86.66 113.43 85.6 113.43 85.02C113.43 85.18 113.47 85.34 113.52 85.5C113.63 85.85 113.86 86.2 114.2 86.53C114.21 86.54 114.22 86.55 114.24 86.57C115.86 88.09 119.35 88.61 122.05 87.72C122.09 87.71 122.13 87.69 122.17 87.68C122.2 87.68 122.22 87.66 122.25 87.65C122.25 87.65 122.25 87.65 122.26 87.65C123.89 87.06 124.8 86.07 124.82 85.04C124.82 84.92 124.82 84.8 124.79 84.68C125.21 85.95 124.24 87.65 122.15 88.34C119.45 89.23 115.96 88.71 114.34 87.19L114.33 87.18Z" stroke="#003B2F" stroke-width="0.3" stroke-linecap="round" stroke-linejoin="round"/><path d="M114.24 86.57C114.24 86.57 114.22 86.55 114.2 86.53C113.86 86.2 113.63 85.85 113.52 85.5C113.47 85.34 113.44 85.18 113.43 85.02C113.43 85.02 113.43 85 113.43 84.99C113.38 83.88 114.37 82.8 116.19 82.2C118.89 81.31 122.38 81.83 124 83.35C124.44 83.77 124.7 84.22 124.78 84.67C124.8 84.79 124.81 84.91 124.81 85.03C124.79 86.06 123.88 87.05 122.25 87.64C122.25 87.64 122.25 87.64 122.24 87.64C122.21 87.64 122.19 87.66 122.16 87.67C122.12 87.68 122.08 87.7 122.04 87.71C119.34 88.6 115.85 88.08 114.23 86.56L114.24 86.57Z" stroke="#003B2F" stroke-width="0.3" stroke-linecap="round" stroke-linejoin="round"/><path d="M119.4 83.48C119.41 83.49 119.42 83.5 119.42 83.51L119.54 83.7L119.64 83.87L119.76 84.07L119.86 84.24L119.98 84.44L120.08 84.61L120.2 84.81L120.29 84.95C120.29 84.95 120.29 84.95 120.29 84.97H120.27C119.53 84.95 118.78 84.94 118.04 84.92C118.03 84.92 118.02 84.92 118.01 84.92C118.05 84.88 118.09 84.83 118.14 84.79L119.24 83.68L119.43 83.48H119.4Z" fill="#003B2F"/><path d="M117.98 84.91L120.26 84.96H120.28H120.3L122.88 85.02C122.88 85.02 122.9 85.02 122.91 85.02C122.83 85.05 122.75 85.08 122.67 85.11L119.18 86.39H119.16C119.16 86.39 119.16 86.38 119.16 86.37L119.25 86.26L119.42 86.04L119.59 85.83C119.65 85.76 119.7 85.68 119.76 85.61L119.92 85.4L120.09 85.18L120.25 84.97V84.95H120.23C119.49 84.93 118.75 84.92 118.01 84.9C118 84.9 117.99 84.9 117.98 84.9V84.91Z" fill="#003B2F"/><path d="M117.98 84.91H118.53C119.1 84.93 119.68 84.95 120.25 84.96C120.27 84.96 120.27 84.96 120.26 84.98L120.07 85.23C120.03 85.28 119.98 85.34 119.94 85.39L119.76 85.63L119.65 85.77L119.5 85.97L119.39 86.11L119.24 86.3L119.16 86.41C119.16 86.41 119.16 86.41 119.15 86.41L118.56 85.66L118 84.95C118 84.95 117.99 84.94 117.99 84.93L117.98 84.91Z" fill="#003B2F"/><path d="M117.31 84.9L117.56 85.21L118.26 86.09L118.48 86.37C118.48 86.37 118.48 86.37 118.48 86.38C118.48 86.38 118.48 86.38 118.47 86.38C117.49 85.88 116.51 85.37 115.53 84.87C115.53 84.87 115.51 84.87 115.52 84.86C115.52 84.86 115.54 84.86 115.55 84.86L117.29 84.9C117.29 84.9 117.31 84.9 117.32 84.9H117.31Z" fill="#003B2F"/><path d="M117.31 84.9C117.31 84.9 117.29 84.9 117.28 84.9C116.7 84.89 116.12 84.87 115.54 84.86H115.52C115.52 84.86 115.6 84.82 115.64 84.8C116.01 84.64 116.37 84.48 116.74 84.32L117.84 83.85L118.71 83.47H118.73C118.73 83.47 118.72 83.47 118.71 83.48L117.87 84.32L117.31 84.88V84.9Z" fill="#003B2F"/><path d="M122.91 85.02C122.91 85.02 122.9 85.02 122.89 85.02L120.3 84.96H120.28C120.28 84.96 120.29 84.96 120.3 84.96H120.32C121.17 84.98 122.03 85 122.88 85.02C122.89 85.02 122.91 85.02 122.92 85.02H122.91Z" fill="#003B2F"/><path d="M122.92 85.02C122.04 85 121.16 84.98 120.28 84.96C120.24 84.89 120.2 84.82 120.16 84.75C120.12 84.68 120.07 84.6 120.03 84.53L119.8 84.15L119.64 83.88L119.41 83.48C119.46 83.5 119.52 83.53 119.57 83.55L120.92 84.14L122.64 84.89L122.92 85.01V85.02Z" fill="#003B2F"/><path d="M115.75 86.1C115.2 85.58 114.85 84.52 114.85 83.94C114.85 84.1 114.89 84.26 114.94 84.42C115.05 84.77 115.28 85.12 115.62 85.45C115.63 85.46 115.64 85.47 115.66 85.49C117.28 87.01 120.77 87.53 123.47 86.64C123.51 86.63 123.55 86.61 123.59 86.6C123.62 86.6 123.64 86.58 123.67 86.57C123.67 86.57 123.67 86.57 123.68 86.57C125.31 85.98 126.22 84.99 126.24 83.96C126.24 83.84 126.24 83.72 126.21 83.6C126.63 84.87 125.66 86.57 123.57 87.26C120.87 88.15 117.38 87.63 115.76 86.11L115.75 86.1Z" fill="#03FC9D"/><path d="M115.65 85.49C115.65 85.49 115.63 85.47 115.61 85.45C115.27 85.12 115.04 84.77 114.93 84.42C114.88 84.26 114.85 84.1 114.84 83.94C114.84 83.94 114.84 83.92 114.84 83.91C114.79 82.8 115.78 81.72 117.6 81.12C120.3 80.23 123.79 80.75 125.41 82.27C125.85 82.69 126.11 83.14 126.19 83.59C126.21 83.71 126.22 83.83 126.22 83.95C126.2 84.98 125.29 85.97 123.66 86.56C123.66 86.56 123.66 86.56 123.65 86.56C123.62 86.56 123.6 86.58 123.57 86.59C123.53 86.6 123.49 86.62 123.45 86.63C120.75 87.52 117.26 87 115.64 85.48L115.65 85.49Z" fill="#E6E8EA"/><path d="M115.71 86.09C115.16 85.57 114.81 84.51 114.81 83.93C114.81 84.09 114.85 84.25 114.9 84.41C115.01 84.76 115.24 85.11 115.58 85.44C115.59 85.45 115.6 85.46 115.62 85.48C117.24 87 120.73 87.52 123.43 86.63C123.47 86.62 123.51 86.6 123.55 86.59C123.58 86.59 123.6 86.57 123.63 86.56C123.63 86.56 123.63 86.56 123.64 86.56C125.27 85.97 126.18 84.98 126.2 83.95C126.2 83.83 126.2 83.71 126.17 83.59C126.59 84.86 125.62 86.56 123.53 87.25C120.83 88.14 117.34 87.62 115.72 86.1L115.71 86.09Z" stroke="#003B2F" stroke-width="0.3" stroke-linecap="round" stroke-linejoin="round"/><path d="M115.61 85.48C115.61 85.48 115.59 85.46 115.57 85.44C115.23 85.11 115 84.76 114.89 84.41C114.84 84.25 114.81 84.09 114.8 83.93C114.8 83.93 114.8 83.91 114.8 83.9C114.75 82.79 115.74 81.71 117.56 81.11C120.26 80.22 123.75 80.74 125.37 82.26C125.81 82.68 126.07 83.13 126.15 83.58C126.17 83.7 126.18 83.82 126.18 83.94C126.16 84.97 125.25 85.96 123.62 86.55C123.62 86.55 123.62 86.55 123.61 86.55C123.58 86.55 123.56 86.57 123.53 86.58C123.49 86.59 123.45 86.61 123.41 86.62C120.71 87.51 117.22 86.99 115.6 85.47L115.61 85.48Z" stroke="#003B2F" stroke-width="0.3" stroke-linecap="round" stroke-linejoin="round"/><path d="M114.59 85.5C114.04 84.98 113.69 83.92 113.69 83.34C113.69 83.5 113.73 83.66 113.78 83.82C113.89 84.17 114.12 84.52 114.46 84.85C114.47 84.86 114.48 84.87 114.5 84.89C116.12 86.41 119.61 86.93 122.31 86.04C122.35 86.03 122.39 86.01 122.43 86C122.46 86 122.48 85.98 122.51 85.97C122.51 85.97 122.51 85.97 122.52 85.97C124.15 85.38 125.06 84.39 125.08 83.36C125.08 83.24 125.08 83.12 125.05 83C125.47 84.27 124.5 85.97 122.41 86.66C119.71 87.55 116.22 87.03 114.6 85.51L114.59 85.5Z" fill="#03FC9D"/><path d="M114.5 84.89C114.5 84.89 114.48 84.87 114.46 84.85C114.12 84.52 113.89 84.17 113.78 83.82C113.73 83.66 113.7 83.5 113.69 83.34C113.69 83.34 113.69 83.32 113.69 83.31C113.64 82.2 114.63 81.12 116.45 80.52C119.15 79.63 122.64 80.15 124.26 81.67C124.7 82.09 124.96 82.54 125.04 82.99C125.06 83.11 125.07 83.23 125.07 83.35C125.05 84.38 124.14 85.37 122.51 85.96C122.51 85.96 122.51 85.96 122.5 85.96C122.47 85.96 122.45 85.98 122.42 85.99C122.38 86 122.34 86.02 122.3 86.03C119.6 86.92 116.11 86.4 114.49 84.88L114.5 84.89Z" fill="#E6E8EA"/><path d="M114.55 85.49C114 84.97 113.65 83.91 113.65 83.33C113.65 83.49 113.69 83.65 113.74 83.81C113.85 84.16 114.08 84.51 114.42 84.84C114.43 84.85 114.44 84.86 114.46 84.88C116.08 86.4 119.57 86.92 122.27 86.03C122.31 86.02 122.35 86 122.39 85.99C122.42 85.99 122.44 85.97 122.47 85.96C122.47 85.96 122.47 85.96 122.48 85.96C124.11 85.37 125.02 84.38 125.04 83.35C125.04 83.23 125.04 83.11 125.01 82.99C125.43 84.26 124.46 85.96 122.37 86.65C119.67 87.54 116.18 87.02 114.56 85.5L114.55 85.49Z" stroke="#003B2F" stroke-width="0.3" stroke-linecap="round" stroke-linejoin="round"/><path d="M114.46 84.88C114.46 84.88 114.44 84.86 114.42 84.84C114.08 84.51 113.85 84.16 113.74 83.81C113.69 83.65 113.66 83.49 113.65 83.33C113.65 83.33 113.65 83.31 113.65 83.3C113.6 82.19 114.59 81.11 116.41 80.51C119.11 79.62 122.6 80.14 124.22 81.66C124.66 82.08 124.92 82.53 125 82.98C125.02 83.1 125.03 83.22 125.03 83.34C125.01 84.37 124.1 85.36 122.47 85.95C122.47 85.95 122.47 85.95 122.46 85.95C122.43 85.95 122.41 85.97 122.38 85.98C122.34 85.99 122.3 86.01 122.26 86.02C119.56 86.91 116.07 86.39 114.45 84.87L114.46 84.88Z" stroke="#003B2F" stroke-width="0.3" stroke-linecap="round" stroke-linejoin="round"/><path d="M117.31 85.07C117.18 85.02 117.07 84.95 116.99 84.87L115.56 83.48L119.04 84.91C119.04 84.91 118.73 85.03 118.57 85.08C118.37 85.14 118.16 85.17 117.94 85.17C117.72 85.17 117.51 85.13 117.31 85.07ZM119.71 85.65C120.04 85.63 120.37 85.57 120.66 85.46C120.95 85.35 121.21 85.2 121.41 85.02L122.99 83.48C122.99 83.48 120.94 84.44 118.91 85.26C118.7 85.34 118.46 85.4 118.22 85.42C118.11 85.43 118 85.43 117.89 85.42C117.95 85.44 118.07 85.48 118.07 85.48C118.32 85.56 118.58 85.62 118.86 85.65C119.15 85.67 119.44 85.66 119.73 85.65H119.71ZM119.99 81.72C119.83 81.77 119.52 81.89 119.52 81.89L122.99 83.32L121.56 81.93C121.48 81.85 121.37 81.78 121.24 81.73C121.04 81.67 120.83 81.63 120.61 81.63C120.39 81.63 120.18 81.66 119.98 81.72H119.99ZM118.85 81.15C118.52 81.17 118.19 81.23 117.9 81.34C117.61 81.45 117.35 81.6 117.15 81.78L115.57 83.32C115.57 83.32 117.62 82.36 119.65 81.54C119.87 81.46 120.1 81.4 120.34 81.38C120.45 81.37 120.56 81.37 120.67 81.38C120.61 81.36 120.49 81.32 120.49 81.32C120.24 81.24 119.98 81.18 119.7 81.15C119.41 81.13 119.12 81.14 118.83 81.15H118.85Z" fill="#003B2F"/><path d="M114.31 73.02C114.14 72.96 113.99 72.87 113.88 72.75L111.96 70.88L116.61 72.79C116.61 72.79 116.19 72.96 115.98 73.02C115.72 73.1 115.43 73.14 115.14 73.14C114.85 73.14 114.56 73.09 114.3 73.01L114.31 73.02ZM117.52 73.79C117.97 73.77 118.4 73.68 118.79 73.54C119.18 73.4 119.52 73.2 119.79 72.96L121.91 70.9C121.91 70.9 119.17 72.19 116.45 73.28C116.16 73.39 115.85 73.46 115.52 73.5C115.37 73.52 115.22 73.52 115.07 73.5C115.15 73.53 115.31 73.58 115.31 73.58C115.64 73.69 116 73.77 116.36 73.8C116.75 73.82 117.13 73.82 117.52 73.8V73.79ZM117.89 68.53C117.68 68.6 117.26 68.76 117.26 68.76L121.91 70.67L119.99 68.8C119.88 68.69 119.73 68.6 119.56 68.53C119.3 68.45 119.01 68.4 118.72 68.4C118.43 68.4 118.14 68.44 117.88 68.52L117.89 68.53ZM116.36 67.77C115.91 67.79 115.48 67.88 115.09 68.02C114.7 68.16 114.36 68.36 114.09 68.6L111.97 70.66C111.97 70.66 114.71 69.37 117.43 68.28C117.72 68.17 118.03 68.1 118.36 68.06C118.51 68.04 118.66 68.04 118.81 68.06C118.73 68.03 118.57 67.98 118.57 67.98C118.24 67.87 117.88 67.79 117.52 67.76C117.13 67.74 116.75 67.74 116.36 67.76V67.77Z" fill="#003B2F"/><path d="M72.16 55.41H117.67" stroke="#003B2F" stroke-width="0.3" stroke-linecap="round" stroke-linejoin="round"/><path d="M72.16 53.34H117.67" stroke="#003B2F" stroke-width="0.3" stroke-linecap="round" stroke-linejoin="round"/><path d="M72.16 57.49H117.67" stroke="#003B2F" stroke-width="0.3" stroke-linecap="round" stroke-linejoin="round"/><path d="M72.16 59.56H117.67" stroke="#003B2F" stroke-width="0.3" stroke-linecap="round" stroke-linejoin="round"/><path d="M72.16 61.64H99.87" stroke="#003B2F" stroke-width="0.3" stroke-linecap="round" stroke-linejoin="round"/><mask id="mask0_13_3" style="mask-type:luminance" maskUnits="userSpaceOnUse" x="54" y="50" width="43" height="43"><path d="M96.44 50.06H54.4V92.1H96.44V50.06Z" fill="white"/></mask><g mask="url(#mask0_13_3)"><path d="M96.44 71.08C96.44 82.69 87.03 92.1 75.42 92.1C63.81 92.1 54.4 82.69 54.4 71.08C54.4 59.47 63.81 50.06 75.42 50.06C87.03 50.06 96.44 59.47 96.44 71.08Z" fill="#03FC9D"/><path d="M66.4 68.66C66.67 69.23 67.33 70.35 67.33 70.35L74.98 57.76L67.51 62.95C67.07 63.25 66.7 63.65 66.45 64.12C66.11 64.83 65.93 65.6 65.92 66.39C65.92 67.17 66.08 67.95 66.4 68.67V68.66ZM63.37 72.81C63.45 74.02 63.8 75.19 64.37 76.25C64.95 77.31 65.75 78.24 66.71 78.97L74.97 84.7C74.97 84.7 69.8 77.29 65.44 69.91C65 69.13 64.7 68.28 64.56 67.39C64.5 66.99 64.5 66.58 64.56 66.18C64.45 66.39 64.23 66.82 64.23 66.82C63.79 67.72 63.49 68.68 63.34 69.67C63.25 70.72 63.26 71.76 63.37 72.81ZM84.44 73.81C84.17 73.24 83.51 72.12 83.51 72.12L75.86 84.71L83.33 79.52C83.77 79.23 84.14 78.83 84.39 78.36C84.73 77.65 84.91 76.88 84.92 76.09C84.92 75.3 84.76 74.53 84.44 73.81ZM87.47 69.66C87.39 68.46 87.04 67.28 86.47 66.22C85.89 65.16 85.09 64.23 84.13 63.5L75.87 57.77C75.87 57.77 81.04 65.18 85.4 72.56C85.84 73.34 86.14 74.19 86.27 75.08C86.33 75.48 86.33 75.89 86.27 76.29C86.38 76.08 86.6 75.65 86.6 75.65C87.04 74.75 87.34 73.79 87.49 72.8C87.58 71.76 87.57 70.7 87.47 69.66Z" fill="#003B2F"/><path d="M66.45 64.11C66.7 63.64 67.07 63.24 67.51 62.94L74.98 57.75L67.33 70.35C67.33 70.35 66.66 69.22 66.4 68.66C66.08 67.94 65.91 67.17 65.92 66.38C65.92 65.59 66.11 64.82 66.45 64.11ZM63.37 72.8C63.45 74.01 63.8 75.18 64.37 76.24C64.95 77.3 65.75 78.23 66.71 78.96L74.97 84.69C74.97 84.69 69.8 77.28 65.44 69.9C65 69.12 64.7 68.27 64.56 67.38C64.5 66.98 64.5 66.57 64.56 66.17C64.45 66.38 64.23 66.81 64.23 66.81C63.79 67.71 63.49 68.67 63.34 69.66C63.25 70.71 63.26 71.75 63.37 72.8ZM84.43 73.8C84.16 73.23 83.5 72.11 83.5 72.11L75.86 84.7L83.33 79.51C83.77 79.22 84.14 78.82 84.39 78.35C84.73 77.64 84.91 76.87 84.92 76.08C84.92 75.29 84.76 74.52 84.44 73.8H84.43ZM87.46 69.65C87.38 68.44 87.03 67.27 86.46 66.21C85.88 65.15 85.09 64.22 84.12 63.49L75.87 57.75C75.87 57.75 81.04 65.16 85.4 72.54C85.84 73.32 86.14 74.17 86.27 75.06C86.33 75.46 86.33 75.87 86.27 76.27C86.38 76.06 86.6 75.63 86.6 75.63C87.04 74.73 87.34 73.77 87.49 72.78C87.58 71.74 87.57 70.68 87.47 69.64H87.46V69.65Z" fill="#003B2F"/></g></g><defs><clipPath id="clip0_13_3"><rect width="192" height="108" fill="white"/></clipPath></defs></svg>