<svg width="1920" height="1080" viewBox="0 0 1920 1080" fill="none" xmlns="http://www.w3.org/2000/svg"><path d="M934.953 982.914C1169.45 982.914 1359.54 964.24 1359.54 941.204C1359.54 918.168 1169.45 899.494 934.953 899.494C700.461 899.494 510.367 918.168 510.367 941.204C510.367 964.24 700.461 982.914 934.953 982.914Z" fill="#E6E8EA"/><path d="M1236.68 532.68V872.837C1236.68 884.694 1227.01 894.28 1215.24 894.28H651.896C649.626 894.28 647.439 893.944 645.505 893.271C643.571 892.599 641.721 891.758 639.955 890.58H639.871C639.114 889.908 638.357 889.403 637.6 888.73C636.087 887.469 634.741 885.871 633.732 884.189C633.227 883.348 632.639 882.339 632.218 881.246C631.125 878.639 630.452 875.864 630.452 872.753V532.596C630.452 520.739 640.123 510.984 651.896 510.984H1215.32C1224.65 510.984 1232.56 517.039 1235.5 525.364C1236.34 527.635 1236.76 529.989 1236.76 532.512L1236.68 532.68Z" fill="#03FC9D" stroke="#003B2F" stroke-width="2.46375" stroke-linecap="round" stroke-linejoin="round"/><path d="M1210.19 540.501H653.157V865.016H1210.19V540.501Z" fill="#E6E8EA" stroke="#003B2F" stroke-width="2.46375" stroke-linecap="round" stroke-linejoin="round"/><path d="M1283.35 946.671C1283.02 949.278 1280.32 950.876 1275.7 950.876H591.434C586.977 950.876 584.37 949.362 583.865 946.924C583.697 946.335 583.697 945.578 583.865 944.905C584.202 943.476 585.043 941.878 586.556 940.112L590.425 935.655L617.334 905.045C622.548 899.159 633.228 894.281 641.133 894.281H1226.08C1233.99 894.281 1244.67 899.159 1249.88 905.045L1276.79 935.655L1280.66 940.112C1282.26 941.962 1283.18 943.728 1283.44 945.242C1283.44 945.746 1283.44 946.167 1283.44 946.587L1283.35 946.671Z" fill="#E6E8EA" stroke="#003B2F" stroke-width="2.46375" stroke-linecap="round" stroke-linejoin="round"/><path d="M609.934 927.497L629.276 905.465C631.714 902.69 638.526 899.578 642.226 899.578H1226.34C1230.04 899.578 1236.85 902.69 1239.29 905.465L1258.63 927.497H609.934Z" fill="white"/><path d="M1010.89 944.988C1011.56 945.66 1010.05 946.165 1007.53 946.165H859.523C857.084 946.165 855.57 945.66 856.159 944.988L866.923 933.887C867.595 933.215 870.202 932.626 872.641 932.626H994.24C996.762 932.626 999.369 933.215 999.958 933.887L1010.72 944.988H1010.89Z" fill="white"/><path d="M1283.35 946.671C1283.01 949.278 1280.32 950.876 1275.7 950.876H591.433C586.976 950.876 584.369 949.362 583.865 946.923V954.66C583.78 957.771 586.303 960.378 589.499 960.378H1277.72C1280.83 960.378 1283.44 957.771 1283.44 954.66V946.587L1283.35 946.671Z" fill="#003B2F" stroke="#003B2F" stroke-width="1.58952" stroke-linecap="round" stroke-linejoin="round"/><path d="M1042.34 785.8C1028.04 785.8 1015.51 793.453 1008.62 804.805C1009.88 802.703 1010.64 800.349 1010.64 797.742C1010.64 790.173 1004.5 784.119 997.014 784.119C992.221 784.119 988.016 786.641 985.577 790.426C982.718 785.296 978.009 781.512 972.206 779.914C978.85 776.13 983.391 769.066 983.391 760.909C983.391 750.734 976.495 742.324 967.161 739.801V738.456C976.495 730.551 982.382 718.862 982.382 705.66C982.382 692.457 976.495 680.768 967.161 672.863V519.309H900.139V642.674C892.991 646.542 888.113 654.027 888.113 662.688C888.113 668.154 890.131 673.116 893.411 677.068C885.422 684.889 880.461 695.737 880.461 707.762C880.461 718.021 884.077 727.356 890.047 734.756C872.304 740.558 859.437 757.209 859.437 776.887C859.437 790.762 865.829 803.124 875.836 811.281C874.911 812.542 874.238 814.056 873.733 815.653C868.351 810.944 861.372 808.001 853.719 808.001C848.589 808.001 843.796 809.262 839.592 811.533C832.948 798.919 819.746 790.257 804.441 790.257C782.492 790.257 764.665 808.085 764.665 830.033C764.665 843.993 771.897 856.27 782.745 863.334H826.053C827.818 862.241 829.5 860.98 831.014 859.55C832.275 860.98 833.621 862.241 835.135 863.334H872.22C872.976 862.746 873.565 861.989 874.322 861.4C874.911 862.073 875.499 862.746 876.256 863.334H963.461C966.908 861.989 969.936 859.802 972.375 857.111C975.318 859.802 978.766 861.989 982.634 863.334H1003.74C1008.45 861.652 1012.66 858.793 1015.85 855.093C1019.89 858.709 1024.68 861.568 1030.06 863.334H1054.87C1070.68 858.12 1082.2 843.236 1082.2 825.576C1082.2 803.712 1064.37 785.884 1042.51 785.884L1042.34 785.8ZM1007.19 807.076C1007.19 807.076 1007.02 807.076 1006.94 806.992C1007.36 806.571 1007.78 806.067 1008.11 805.562C1007.78 806.067 1007.44 806.571 1007.19 807.076Z" fill="white"/><path d="M968.256 820.532C968.004 819.186 967.92 817.925 967.92 816.579C967.331 817.42 966.742 818.345 966.238 819.27C966.995 819.607 967.667 820.111 968.256 820.532Z" fill="white"/><path d="M1103.65 849.712C1102.22 849.712 1100.87 850.048 1099.69 850.637C1097.84 842.564 1090.69 836.594 1082.03 836.594C1081.53 836.594 1081.02 836.594 1080.52 836.594C1081.44 833.062 1082.03 829.362 1082.03 825.493C1082.03 814.729 1077.66 804.89 1070.68 797.658C1065.97 814.477 1050.83 826.755 1032.59 826.755C1021.49 826.755 1011.48 822.13 1004.25 814.813C1003.32 818.177 1002.65 821.793 1002.65 825.409C1002.65 832.641 1004.58 839.537 1008.03 845.339C1005.09 846.348 1001.98 846.853 998.697 846.853C991.044 846.853 983.981 844.078 978.599 839.453C978.599 839.453 978.599 840.21 978.599 840.546C978.599 846.937 976.16 852.655 972.208 856.944C969.769 859.719 966.742 861.822 963.294 863.251H1111.3C1112.05 861.906 1112.56 860.392 1112.56 858.71C1112.56 853.749 1108.52 849.628 1103.48 849.628L1103.65 849.712Z" fill="white"/><path d="M869.781 854.001C867.847 854.337 865.913 854.59 863.895 854.59C854.813 854.59 846.74 850.721 841.19 844.498C841.19 844.33 841.358 844.162 841.442 843.994C841.274 843.994 841.106 844.246 840.937 844.246C836.06 838.864 833.117 831.716 833.117 823.811C833.117 820.616 833.79 817.504 834.63 814.729C827.567 820.364 822.857 828.941 822.857 838.78C822.857 842.48 823.53 846.096 824.792 849.376C823.867 849.376 822.857 849.376 821.848 849.376C799.9 849.376 782.072 831.548 782.072 809.684C782.072 804.638 783.166 800.013 784.763 795.556C772.822 802.368 764.581 815.15 764.581 829.95C764.581 833.987 765.17 837.939 766.431 841.723C759.451 844.246 754.49 850.889 754.49 858.71C754.49 860.308 754.742 861.737 755.078 863.251H872.136C872.893 862.662 873.566 862.074 874.322 861.317C878.275 857.701 881.218 853.076 882.9 847.778C879.116 850.805 874.659 852.908 869.781 853.917V854.001Z" fill="white"/><path d="M867.092 455.658C874.744 473.906 883.826 489.8 894.17 501.488H972.965C983.224 489.8 992.222 473.906 999.791 455.658H867.092Z" fill="#003B2F" stroke="#003B2F" stroke-width="1.58952" stroke-linecap="round" stroke-linejoin="round"/><path d="M968.844 528.398H898.29L904.765 501.488H962.369L968.844 528.398Z" fill="#003B2F" stroke="#003B2F" stroke-width="1.58952" stroke-linecap="round" stroke-linejoin="round"/><path d="M866.671 366.52C863.223 369.548 838.5 386.787 822.27 413.612C801.835 447.25 827.063 510.908 831.604 511.16C836.145 511.413 842.2 471.721 847.245 459.611C849.684 453.809 859.102 444.895 868.353 437.074L866.671 366.604V366.52Z" fill="#03FC9D" stroke="#003B2F" stroke-width="2.46375" stroke-linecap="round" stroke-linejoin="round"/><path d="M1000.46 366.52C1003.91 369.548 1028.63 386.787 1044.86 413.612C1065.3 447.25 1040.07 510.908 1035.53 511.16C1030.99 511.413 1024.93 471.721 1019.89 459.611C1017.45 453.809 1008.03 444.895 998.781 437.074L1000.46 366.604V366.52Z" fill="#03FC9D" stroke="#003B2F" stroke-width="2.46375" stroke-linecap="round" stroke-linejoin="round"/><path d="M867.091 455.659H999.706L1003.91 278.391C1003.91 276.373 1003.99 274.354 1004.08 272.336V268.888C1004.08 268.636 1004.08 268.3 1004.08 268.047C1004.08 198.671 944.625 141.571 933.609 141.571C922.593 141.571 862.719 199.511 862.719 268.888C862.719 272.504 862.803 276.12 862.971 279.736L867.091 455.659Z" fill="#E6E8EA" stroke="#003B2F" stroke-width="2.46375" stroke-linecap="round" stroke-linejoin="round"/><path d="M932.263 355.421C958.039 355.421 978.935 334.525 978.935 308.749C978.935 282.973 958.039 262.077 932.263 262.077C906.487 262.077 885.592 282.973 885.592 308.749C885.592 334.525 906.487 355.421 932.263 355.421Z" fill="#003B2F" stroke="#003B2F" stroke-width="1.58952" stroke-linecap="round" stroke-linejoin="round"/><path d="M930.412 344.994C910.398 343.985 894.925 326.914 896.018 306.816C897.028 286.802 914.098 271.329 934.197 272.422C954.211 273.431 969.684 290.502 968.591 310.6C967.582 330.614 950.511 346.087 930.412 344.994Z" fill="white"/><path d="M933.273 219.105C956.567 219.105 978.515 222.469 997.772 228.355C982.215 178.152 942.355 141.487 933.525 141.487C924.695 141.487 885.003 178.236 869.194 228.271C888.367 222.385 910.147 219.105 933.357 219.105H933.273Z" fill="#03FC9D" stroke="#003B2F" stroke-width="2.46375" stroke-linecap="round" stroke-linejoin="round"/><path d="M933.524 144.851C932.263 144.851 929.404 144.01 929.404 142.916L931.338 99.0198C931.338 97.9266 932.347 97.0857 933.524 97.0857C934.702 97.0857 935.711 97.9266 935.711 99.0198L937.645 142.916C937.645 144.01 934.786 144.851 933.524 144.851Z" fill="#003B2F" stroke="#003B2F" stroke-width="1.58952" stroke-linecap="round" stroke-linejoin="round"/><path d="M926.04 499.302C926.292 505.778 928.815 511.075 931.674 511.075C934.534 511.075 937.056 505.778 937.309 499.302L942.018 379.554C942.27 373.079 937.645 367.781 931.674 367.781C925.704 367.781 921.079 373.079 921.331 379.554L926.04 499.302Z" fill="#03FC9D" stroke="#003B2F" stroke-width="2.46375" stroke-linecap="round" stroke-linejoin="round"/><path d="M545.252 752.345V575.975H805.968V752.345H545.252Z" fill="white" stroke="#003B2F" stroke-width="3"/><path d="M545.252 590.466V575.975H805.968V590.466H545.252Z" fill="#003B2F" stroke="#003B2F" stroke-width="3"/><path d="M557.222 583.473C557.222 584.158 556.632 584.748 555.946 584.748C555.261 584.748 554.671 584.158 554.671 583.473C554.671 582.788 555.261 582.198 555.946 582.198C556.632 582.198 557.222 582.788 557.222 583.473Z" fill="white" stroke="#003B2F" stroke-width="3"/><path d="M565.378 583.473C565.378 584.158 564.788 584.748 564.103 584.748C563.418 584.748 562.828 584.158 562.828 583.473C562.828 582.788 563.418 582.198 564.103 582.198C564.788 582.198 565.378 582.788 565.378 583.473Z" fill="white" stroke="#003B2F" stroke-width="3"/><path d="M573.535 583.473C573.535 584.158 572.945 584.748 572.26 584.748C571.575 584.748 570.985 584.158 570.985 583.473C570.985 582.788 571.575 582.198 572.26 582.198C572.945 582.198 573.535 582.788 573.535 583.473Z" fill="white" stroke="#003B2F" stroke-width="3"/><path d="M564.186 736.102C564.186 736.102 569.063 718.022 584.62 716.004C600.178 714.069 611.026 702.044 625.406 698.008C639.785 693.887 655.006 698.008 663.752 694.055C672.498 690.103 675.525 674.546 692.68 670.93C709.835 667.314 717.74 674.041 730.354 667.818C742.968 661.595 768.616 633.34 768.616 633.34V736.102H564.186Z" fill="#03FC9D"/><path d="M564.186 736.102V606.178" stroke="#003B2F" stroke-width="2.46375" stroke-linecap="round" stroke-linejoin="round"/><path d="M616.492 648.646V736.102" stroke="#003B2F" stroke-width="2.46375" stroke-linecap="round" stroke-linejoin="round"/><path d="M665.771 736.102V633.424" stroke="#003B2F" stroke-width="2.46375" stroke-linecap="round" stroke-linejoin="round"/><path d="M717.319 619.213V736.102" stroke="#003B2F" stroke-width="2.46375" stroke-linecap="round" stroke-linejoin="round"/><path d="M767.859 736.102V606.178" stroke="#003B2F" stroke-width="2.46375" stroke-linecap="round" stroke-linejoin="round"/><path d="M781.23 736.102H564.186" stroke="#003B2F" stroke-width="2.46375" stroke-linecap="round" stroke-linejoin="round"/><path d="M749.947 622.913L708.068 655.204L688.054 639.647L640.626 675.555L610.1 661.511L578.061 692.878" stroke="#003B2F" stroke-width="2.46375" stroke-linecap="round" stroke-linejoin="round"/><path d="M748.182 622.156L745.323 619.044L754.489 618.371L752.975 627.369L750.2 624.342L748.182 622.156Z" fill="#003B2F"/><path d="M1094.63 792.459V593.467H1407.99V792.459H1094.63Z" fill="white" stroke="#003B2F" stroke-width="3"/><path d="M1094.63 611.49V593.467H1407.99V611.49H1094.63Z" fill="#003B2F" stroke="#003B2F" stroke-width="3"/><path d="M1108.44 602.311C1108.44 604.161 1106.92 605.591 1105.16 605.591C1103.39 605.591 1101.88 604.077 1101.88 602.311C1101.88 600.545 1103.39 599.031 1105.16 599.031C1106.92 599.031 1108.44 600.545 1108.44 602.311Z" fill="white"/><path d="M1118.78 602.311C1118.78 604.161 1117.27 605.591 1115.5 605.591C1113.74 605.591 1112.22 604.077 1112.22 602.311C1112.22 600.545 1113.74 599.031 1115.5 599.031C1117.27 599.031 1118.78 600.545 1118.78 602.311Z" fill="white"/><path d="M1128.7 602.311C1128.7 604.161 1127.19 605.591 1125.42 605.591C1123.66 605.591 1122.14 604.077 1122.14 602.311C1122.14 600.545 1123.66 599.031 1125.42 599.031C1127.19 599.031 1128.7 600.545 1128.7 602.311Z" fill="white"/><path d="M1270.82 750.986H1255.1V779.073H1270.82V750.986Z" fill="#03FC9D"/><path d="M1290.16 740.306H1274.44V779.157H1290.16V740.306Z" fill="#03FC9D"/><path d="M1309.59 752.249H1293.86V779.075H1309.59V752.249Z" fill="#03FC9D"/><path d="M1329.01 734.925H1313.29V779.158H1329.01V734.925Z" fill="#03FC9D"/><path d="M1348.02 713.818H1332.29V779.074H1348.02V713.818Z" fill="#03FC9D"/><path d="M1367.44 707.258H1351.72V779.158H1367.44V707.258Z" fill="#03FC9D"/><path d="M1386.87 698.175H1371.15V779.157H1386.87V698.175Z" fill="#03FC9D"/><path d="M1261.24 641.581H1387.63" stroke="#003B2F" stroke-width="2.46375" stroke-linecap="round" stroke-linejoin="round"/><path d="M1261.24 656.466H1387.63" stroke="#003B2F" stroke-width="2.46375" stroke-linecap="round" stroke-linejoin="round"/><path d="M1261.24 671.266H1387.63" stroke="#003B2F" stroke-width="2.46375" stroke-linecap="round" stroke-linejoin="round"/><path d="M1132.83 742.829C1123.66 731.729 1118.61 717.854 1118.61 703.39C1118.61 696.242 1119.79 689.262 1122.23 682.535C1124.5 676.059 1127.86 670.089 1132.24 664.707C1140.23 654.7 1151.24 647.384 1163.52 643.936L1170.75 674.798C1158.56 678.919 1150.23 690.271 1150.23 703.39C1150.23 709.949 1152.33 716.256 1156.29 721.47L1132.91 742.829H1132.83Z" fill="#03FC9D"/><path d="M1180.42 765.198C1171.59 765.198 1163.01 763.348 1155.03 759.732C1148.21 756.62 1142.07 752.416 1136.78 747.118L1160.15 725.758C1165.7 730.72 1172.94 733.579 1180.42 733.579C1191.94 733.579 1202.2 727.188 1207.33 717.012L1237.44 727.104C1232.98 737.783 1225.75 746.95 1216.24 753.677C1205.73 761.161 1193.37 765.198 1180.34 765.198H1180.42Z" fill="#03FC9D"/><path d="M1209.43 711.631C1210.19 708.94 1210.53 706.249 1210.53 703.389C1210.53 686.739 1196.99 673.2 1180.34 673.2C1178.99 673.2 1177.65 673.284 1176.3 673.452L1169.07 642.59C1172.77 641.917 1176.55 641.581 1180.34 641.581C1196.82 641.581 1212.38 647.972 1223.98 659.661C1235.67 671.35 1242.06 686.823 1242.06 703.305C1242.06 709.528 1241.14 715.667 1239.29 721.554L1209.27 711.547L1209.43 711.631Z" fill="#03FC9D"/><path d="M918.794 652.168C928.871 637.51 925.158 617.458 910.501 607.381C895.843 597.303 875.791 601.016 865.714 615.673C855.636 630.331 859.349 650.383 874.006 660.461C888.664 670.538 908.716 666.826 918.794 652.168Z" fill="#8F9F99" stroke="#003B2F" stroke-width="0.953711" stroke-miterlimit="10"/><path d="M894.842 665.044C912.63 665.044 927.05 650.624 927.05 632.837C927.05 615.049 912.63 600.629 894.842 600.629C877.054 600.629 862.634 615.049 862.634 632.837C862.634 650.624 877.054 665.044 894.842 665.044Z" fill="#E6E8EA" stroke="#003B2F" stroke-width="0.953711" stroke-linecap="round" stroke-linejoin="round"/><path d="M884.414 660.503C877.098 657.728 871.296 652.178 868.184 645.03C864.989 637.882 864.821 629.893 867.596 622.577C870.371 615.261 875.921 609.459 883.069 606.347C890.217 603.152 898.206 602.984 905.522 605.759C912.838 608.534 918.64 614.084 921.752 621.232C924.947 628.38 925.115 636.368 922.34 643.685C919.565 651.001 914.015 656.803 906.867 659.915C899.719 663.11 891.73 663.278 884.414 660.503Z" stroke="#003B2F" stroke-width="0.953711" stroke-linecap="round" stroke-linejoin="round"/><path d="M902.411 613.158C894.926 610.299 886.433 611.981 880.631 617.447C879.033 618.876 877.687 620.558 876.678 622.408H875.08C877.519 617.699 881.64 613.999 886.517 611.981C893.749 609.037 901.99 610.047 908.297 614.672C911.072 616.69 913.343 619.381 915.025 622.408H913.343C910.904 618.204 907.036 614.924 902.495 613.158H902.411ZM876.846 631.827C875.333 631.827 874.071 630.733 873.987 629.22L873.483 626.445H877.519L878.528 631.743H876.846V631.827Z" fill="#003B2F"/><path d="M881.135 630.985C881.724 630.312 881.976 629.471 882.144 628.546L882.565 626.444H886.601L886.097 629.387C886.097 629.892 885.844 630.396 885.592 630.817C885.172 631.405 884.583 631.91 883.91 632.33L880.799 634.012C880.799 634.012 880.21 634.349 879.958 634.517C879.117 635.105 878.528 635.862 878.276 636.787C878.192 637.124 878.108 637.46 878.024 637.796C877.94 638.385 877.772 639.142 877.603 639.983H873.567C873.819 638.806 873.987 637.796 874.156 636.871C874.324 635.946 874.828 635.19 875.585 634.601C875.837 634.433 876.09 634.265 876.426 634.096L879.622 632.33C880.21 631.994 880.799 631.574 881.219 630.985H881.135ZM893.413 634.769L891.395 633.928C889.797 633.255 889.124 631.489 889.797 629.892C889.965 629.471 890.217 629.135 890.554 628.883C891.479 628.042 892.74 627.705 893.917 627.958C894.927 628.126 895.852 628.546 896.524 629.303L895.263 630.985C895.263 630.985 894.842 630.733 894.674 630.564C894.17 630.312 893.665 630.144 893.076 630.228C892.656 630.228 892.236 630.396 892.236 630.901C892.236 631.153 892.32 631.321 892.488 631.405C892.656 631.489 892.74 631.574 892.908 631.658L894.927 632.499C895.515 632.751 896.104 633.255 896.44 633.844C897.113 635.19 896.777 636.871 895.599 637.796C894.17 638.974 892.067 638.806 890.47 638.049C889.965 637.796 889.545 637.46 889.208 637.124C888.788 636.787 890.638 635.274 890.638 635.274C891.311 635.862 892.236 636.283 893.161 636.283C893.497 636.283 894.002 636.115 894.002 635.694C894.002 635.61 894.002 635.442 894.002 635.358C894.002 635.274 893.917 635.19 893.833 635.105C893.665 635.021 893.497 634.937 893.329 634.853M903.925 634.685H902.495V632.499H906.279V637.376C904.85 638.637 902.831 638.974 901.065 638.385C899.636 637.88 898.543 636.703 898.206 635.19C897.786 633.592 897.954 631.994 898.627 630.48C899.383 629.051 900.729 628.126 902.327 627.958C903.756 627.789 905.186 628.21 906.195 629.303C907.204 630.396 904.85 630.985 904.85 630.985C904.85 630.985 904.009 630.396 903.42 630.312C902.579 630.228 901.738 630.564 901.234 631.321C900.729 632.162 900.645 633.255 900.813 634.265C900.981 635.274 901.402 636.03 902.327 636.283C902.747 636.367 903.168 636.451 903.588 636.367C903.756 636.367 903.925 636.367 904.009 636.199V634.769L903.925 634.685Z" fill="#003B2F"/><path fill-rule="evenodd" clip-rule="evenodd" d="M916.201 630.902C915.865 629.641 914.94 628.716 913.763 628.211C913.09 627.959 912.333 627.791 911.576 627.791H908.381V638.47H911.24C911.997 638.47 912.753 638.47 913.51 638.134C914.603 637.713 915.444 636.957 915.949 635.863C916.622 634.266 916.706 632.5 916.201 630.818V630.902ZM912.333 636.116C913.342 635.779 913.678 634.77 913.763 633.677C913.763 633.088 913.763 632.416 913.678 631.827C913.51 630.902 912.922 630.313 912.081 630.145C911.828 630.145 911.492 630.145 911.156 630.145V636.284C911.156 636.284 911.997 636.284 912.417 636.116" fill="#003B2F"/><path d="M884.414 634.771C885.087 635.023 885.591 635.612 885.844 636.285C885.844 636.453 886.012 636.705 886.012 637.125C886.18 638.051 886.348 638.975 886.516 639.901H882.48L881.471 634.519H883.237C883.237 634.519 884.078 634.519 884.414 634.771ZM886.012 654.196C881.219 652.178 877.35 648.478 874.912 643.937H876.509C879.2 648.562 883.489 652.01 888.619 653.608C891.814 654.617 895.178 654.785 898.458 654.196C901.485 653.692 904.428 652.43 906.951 650.664C909.474 648.899 911.576 646.544 913.174 643.853H914.772C913.174 646.88 910.903 649.403 908.213 651.421C905.522 653.44 902.326 654.869 899.046 655.458C894.674 656.299 890.048 655.794 885.928 654.028" fill="#003B2F"/><path d="M1117.94 548.91C1103.73 557.992 1089.35 561.86 1082.7 558.917C1081.53 558.412 1080.52 557.571 1079.85 556.562C1075.64 550.003 1085.9 535.96 1102.72 525.196C1119.54 514.432 1136.61 510.984 1140.81 517.459L1141.23 518.3C1141.65 519.393 1141.82 520.655 1141.65 522.084C1140.73 529.4 1131.48 540.08 1117.94 548.826V548.91Z" fill="#E6E8EA"/><path d="M1141.23 518.383L1144.43 524.522C1148.63 531.081 1138.37 545.125 1121.56 555.889C1104.74 566.653 1087.67 570.101 1083.46 563.625L1083.04 562.784L1079.85 556.646C1080.52 557.655 1081.44 558.496 1082.7 559C1089.35 561.944 1103.73 558.075 1117.94 548.993C1131.48 540.248 1140.73 529.568 1141.65 522.252C1141.82 520.822 1141.65 519.561 1141.23 518.467V518.383Z" fill="#8F9F99"/><path d="M1141.23 518.383L1144.43 524.522C1148.63 531.081 1138.37 545.125 1121.56 555.889C1104.74 566.653 1087.67 570.101 1083.46 563.625L1083.04 562.784L1079.85 556.646" stroke="#003B2F" stroke-width="0.953711" stroke-linecap="round" stroke-linejoin="round"/><path d="M1141.23 518.383C1141.65 519.477 1141.82 520.738 1141.65 522.167C1140.73 529.484 1131.48 540.163 1117.94 548.909C1103.73 557.991 1089.35 561.859 1082.7 558.916C1081.53 558.412 1080.52 557.571 1079.85 556.562" stroke="#003B2F" stroke-width="0.953711" stroke-linecap="round" stroke-linejoin="round"/><path d="M1082.7 558.918C1081.53 558.413 1080.52 557.656 1079.85 556.647C1075.64 550.088 1085.9 536.044 1102.72 525.196C1119.54 514.432 1136.61 510.985 1140.81 517.544L1141.23 518.385C1141.65 519.478 1141.82 520.739 1141.65 522.169C1140.73 529.401 1131.48 540.165 1117.94 548.911C1103.73 558.077 1089.35 561.861 1082.7 558.918Z" stroke="#003B2F" stroke-width="0.953711" stroke-linecap="round" stroke-linejoin="round"/><path d="M1081.7 553.452C1081.36 548.07 1089.1 537.138 1104.23 527.467C1112.05 522.421 1120.21 518.889 1127.02 517.544C1132.74 516.367 1137.11 516.955 1138.46 518.973L1138.79 519.646C1138.79 519.646 1138.96 520.151 1138.96 520.571C1138.96 520.908 1138.96 521.328 1138.96 521.749C1138.29 527.215 1130.97 537.306 1116.51 546.556C1101.96 555.89 1088.84 558.581 1083.88 556.395C1083.13 556.059 1082.62 555.638 1082.28 555.133C1081.95 554.629 1081.86 554.124 1081.78 553.452H1081.7Z" stroke="#003B2F" stroke-width="0.953711" stroke-linecap="round" stroke-linejoin="round"/><path d="M1129.46 527.383C1130.55 523.346 1127.36 521.664 1121.05 523.094C1119.37 523.43 1117.6 524.019 1115.59 524.86L1115.25 524.355C1120.13 522.337 1124.33 521.412 1127.27 521.748C1131.48 522.253 1132.24 525.448 1129.21 530.158C1127.86 532.26 1125.93 534.53 1123.41 536.885L1123.07 536.381C1126.52 533.101 1128.7 529.905 1129.38 527.467L1129.46 527.383ZM1107.01 530.494C1106.67 530.074 1107.51 528.98 1108.86 528.055L1111.3 526.205L1112.14 527.467L1107.43 530.999L1107.09 530.494H1107.01Z" fill="#003B2F"/><path d="M1108.69 531.418C1109.45 531.166 1110.29 530.746 1111.13 530.325L1113.15 529.148L1113.99 530.409L1111.21 532.007C1110.71 532.259 1110.2 532.511 1109.78 532.68C1109.11 532.932 1108.52 533.016 1108.02 533.016H1105.83C1105.83 533.016 1105.41 533.016 1105.24 533.016C1104.57 533.016 1103.73 533.352 1102.8 533.857C1102.47 534.025 1102.13 534.193 1101.79 534.362C1101.21 534.698 1100.45 535.118 1099.69 535.539L1098.85 534.277C1099.94 533.689 1100.95 533.1 1101.88 532.596C1102.8 532.091 1103.56 531.755 1104.23 531.671C1104.48 531.671 1104.65 531.671 1104.82 531.671H1107.09C1107.51 531.671 1108.02 531.586 1108.61 531.334L1108.69 531.418ZM1107.68 537.557L1108.1 536.38C1108.35 535.539 1109.95 534.193 1111.46 533.436C1111.89 533.268 1112.22 533.1 1112.56 533.016C1113.48 532.848 1114.07 533.016 1114.16 533.521C1114.16 533.941 1113.99 534.53 1113.48 535.118L1111.63 535.707C1111.63 535.707 1111.8 535.371 1111.88 535.287C1112.05 534.95 1112.05 534.698 1111.88 534.614C1111.8 534.53 1111.55 534.446 1111.13 534.782C1110.88 534.95 1110.79 535.034 1110.71 535.202C1110.71 535.287 1110.62 535.371 1110.62 535.455L1110.29 536.632C1110.29 536.632 1109.87 537.473 1109.36 537.893C1108.27 538.903 1106.67 539.828 1105.49 539.996C1104.15 540.248 1103.81 539.491 1104.23 538.566C1104.32 538.314 1104.57 537.977 1104.82 537.641C1105.07 537.305 1106.84 536.968 1106.84 536.968C1106.42 537.557 1106.25 538.146 1106.42 538.398C1106.5 538.482 1106.76 538.566 1107.18 538.314C1107.26 538.314 1107.34 538.146 1107.43 538.146C1107.51 538.146 1107.6 537.977 1107.6 537.893C1107.6 537.809 1107.76 537.641 1107.76 537.557M1110.03 540.837L1109.78 540.416L1111.8 539.071L1112.56 540.248L1108.02 543.191C1106.59 543.528 1105.83 543.107 1106.08 542.098C1106.25 541.341 1107.09 540.332 1108.44 539.323C1109.78 538.23 1111.38 537.305 1112.89 536.632C1114.32 536.043 1115.5 535.875 1116.01 536.296C1116.51 536.632 1116.34 537.389 1115.5 538.314C1114.74 539.239 1113.65 538.903 1113.65 538.903C1113.65 538.903 1114.07 538.23 1113.99 538.062C1113.99 537.725 1113.4 537.725 1112.64 538.062C1111.72 538.398 1110.71 539.071 1109.87 539.659C1109.03 540.248 1108.35 540.921 1108.35 541.341C1108.35 541.509 1108.35 541.678 1108.52 541.762C1108.52 541.762 1108.69 541.762 1108.77 541.762L1110.12 540.921L1110.03 540.837Z" fill="#003B2F"/><path fill-rule="evenodd" clip-rule="evenodd" d="M1115.92 542.351C1117.01 541.51 1117.69 540.669 1117.94 539.996C1118.02 539.66 1117.94 539.323 1117.94 539.071L1117.27 538.062L1107.34 544.453L1107.93 545.378C1107.93 545.378 1108.27 545.799 1108.69 545.883C1109.28 545.967 1110.2 545.799 1111.3 545.294C1112.89 544.537 1114.58 543.528 1116.01 542.351H1115.92ZM1110.29 544.285C1110.79 544.369 1111.8 543.864 1112.81 543.276C1113.4 542.939 1113.9 542.519 1114.49 542.098C1115.33 541.51 1115.75 540.921 1115.67 540.585C1115.67 540.501 1115.67 540.333 1115.59 540.248L1109.87 543.949C1109.87 543.949 1110.03 544.201 1110.29 544.285Z" fill="#003B2F"/><path d="M1105.83 534.698C1105.83 534.698 1105.33 535.539 1104.74 536.043C1104.57 536.128 1104.32 536.38 1103.98 536.632C1103.14 537.221 1102.38 537.809 1101.54 538.398L1100.7 537.137L1105.41 533.605L1105.83 534.193C1105.83 534.193 1105.83 534.53 1105.83 534.698ZM1088.17 546.891C1089.1 544.116 1091.7 540.753 1095.4 537.221L1095.74 537.725C1091.96 541.341 1089.69 544.789 1089.27 547.312C1089.01 548.91 1089.52 550.087 1090.69 550.76C1091.79 551.432 1093.55 551.601 1095.66 551.348C1097.84 551.096 1100.37 550.339 1103.22 549.246L1103.56 549.751C1100.45 551.012 1097.59 551.853 1095.15 552.273C1092.71 552.61 1090.78 552.442 1089.52 551.853C1087.84 551.012 1087.33 549.246 1088.17 546.891Z" fill="#003B2F"/><path d="M1101.12 825.157C1095.57 829.866 1080.94 821.709 1068.41 806.993C1055.96 792.192 1050.33 776.467 1055.88 771.758L1062.77 766.124C1061.6 767.133 1060.92 768.646 1060.67 770.412C1059.75 777.392 1065.38 789.754 1075.22 801.527C1084.97 813.047 1095.99 820.532 1103.06 821.12C1105.07 821.289 1106.76 820.868 1108.02 819.775L1100.95 825.157H1101.12Z" fill="#8F9F99"/><path d="M1108.1 819.691C1106.84 820.784 1105.16 821.204 1103.14 821.036C1096.07 820.532 1084.97 812.963 1075.3 801.443C1065.38 789.754 1059.83 777.308 1060.76 770.328C1060.92 768.478 1061.6 767.049 1062.86 766.039C1068.49 761.246 1083.21 769.487 1095.74 784.288C1108.27 799.088 1113.9 814.898 1108.27 819.691H1108.1Z" fill="#E6E8EA"/><path d="M1108.1 819.691L1101.04 825.073C1095.49 829.782 1080.85 821.625 1068.32 806.909C1055.88 792.108 1050.24 776.383 1055.79 771.674L1062.69 766.039" stroke="#003B2F" stroke-width="0.953711" stroke-linecap="round" stroke-linejoin="round"/><path d="M1108.1 819.691C1106.84 820.784 1105.16 821.204 1103.14 821.036C1096.07 820.532 1084.97 812.963 1075.3 801.443C1065.38 789.754 1059.83 777.308 1060.76 770.328C1060.92 768.478 1061.6 767.049 1062.86 766.039C1068.49 761.246 1083.21 769.487 1095.74 784.288C1108.27 799.088 1113.9 814.898 1108.27 819.691H1108.1Z" stroke="#003B2F" stroke-width="0.953711" stroke-linecap="round" stroke-linejoin="round"/><path d="M1103.14 821.036C1096.07 820.532 1085.06 812.963 1075.3 801.443C1065.38 789.754 1059.83 777.308 1060.76 770.328C1061.01 768.478 1061.68 767.049 1062.86 766.039C1068.49 761.246 1083.12 769.487 1095.74 784.288C1108.27 799.088 1113.9 814.982 1108.27 819.691C1107.01 820.784 1105.32 821.204 1103.31 821.036H1103.14Z" stroke="#003B2F" stroke-width="0.953711" stroke-linecap="round" stroke-linejoin="round"/><path d="M1063.36 773.356C1063.28 772.431 1063.28 771.506 1063.36 770.749C1063.53 769.488 1063.87 768.647 1064.54 768.142C1066.31 766.713 1070.43 767.47 1075.39 770.245C1081.27 773.524 1087.83 779.159 1093.64 786.138C1101.54 795.473 1106.92 805.564 1107.6 812.544C1107.76 813.973 1107.76 816.664 1106.42 817.757C1105.75 818.346 1104.74 818.514 1103.39 818.43C1096.92 817.925 1086.24 810.273 1077.32 799.845C1069.42 790.511 1064.12 780.42 1063.36 773.44V773.356Z" stroke="#003B2F" stroke-width="0.953711" stroke-linecap="round" stroke-linejoin="round"/><path d="M1073.29 773.608C1069.08 773.02 1067.9 776.468 1070.09 782.522C1070.68 784.12 1071.52 785.886 1072.53 787.652L1072.03 788.072C1069.33 783.531 1067.9 779.411 1067.82 776.552C1067.82 772.347 1070.85 771.17 1075.89 773.524C1078.16 774.533 1080.69 776.215 1083.38 778.402L1082.87 778.822C1079.17 775.879 1075.73 774.113 1073.2 773.693L1073.29 773.608ZM1079.34 795.473C1079.34 795.473 1077.74 795.22 1076.65 794.043L1074.55 791.857L1075.73 790.848L1079.85 795.052L1079.34 795.473Z" fill="#003B2F"/><path d="M1079.93 793.792C1079.59 793.035 1079.09 792.278 1078.5 791.521L1077.07 789.671L1078.25 788.662L1080.18 791.269C1080.52 791.689 1080.86 792.194 1081.11 792.615C1081.44 793.203 1081.61 793.792 1081.7 794.296L1082.03 796.483C1082.03 796.483 1082.03 796.903 1082.12 797.071C1082.29 797.744 1082.71 798.585 1083.21 799.426C1083.38 799.762 1083.63 800.015 1083.88 800.351C1084.3 800.856 1084.81 801.528 1085.31 802.285L1084.14 803.294C1083.38 802.285 1082.71 801.36 1082.12 800.519C1081.53 799.678 1081.11 798.922 1080.94 798.249C1080.94 798.081 1080.86 797.828 1080.86 797.66L1080.52 795.39C1080.52 794.969 1080.35 794.465 1080.02 793.876L1079.93 793.792ZM1086.15 793.96L1084.98 793.708C1084.05 793.54 1082.54 792.194 1081.61 790.764C1081.36 790.428 1081.19 790.008 1081.11 789.671C1080.77 788.746 1080.86 788.158 1081.36 788.074C1081.78 787.905 1082.37 788.073 1083.04 788.578L1083.88 790.344C1083.88 790.344 1083.55 790.176 1083.46 790.176C1083.13 790.092 1082.87 790.176 1082.79 790.26C1082.79 790.344 1082.79 790.596 1083.04 791.017C1083.21 791.185 1083.38 791.353 1083.46 791.353C1083.55 791.353 1083.63 791.353 1083.72 791.437L1084.89 791.605C1084.89 791.605 1085.73 791.942 1086.24 792.362C1087.42 793.371 1088.51 794.801 1088.84 795.894C1089.27 797.24 1088.59 797.576 1087.58 797.324C1087.25 797.324 1086.91 797.071 1086.57 796.903C1086.24 796.651 1085.65 794.969 1085.65 794.969C1086.24 795.306 1086.83 795.39 1087.08 795.137C1087.16 795.053 1087.16 794.801 1086.91 794.38C1086.91 794.296 1086.74 794.212 1086.66 794.128C1086.66 794.128 1086.49 793.96 1086.41 793.96C1086.32 793.96 1086.15 793.876 1086.07 793.876M1089.01 791.185L1088.59 791.521L1086.99 789.671L1088.09 788.746L1091.62 792.867C1092.12 794.296 1091.79 795.053 1090.78 794.969C1090.02 794.969 1088.84 794.212 1087.67 793.035C1086.41 791.858 1085.31 790.428 1084.39 788.999C1083.55 787.653 1083.29 786.476 1083.63 785.971C1083.88 785.467 1084.64 785.551 1085.73 786.139C1086.74 786.812 1086.57 787.905 1086.57 787.905C1086.57 787.905 1085.9 787.569 1085.65 787.653C1085.31 787.737 1085.4 788.326 1085.73 788.999C1086.15 789.839 1086.99 790.765 1087.67 791.521C1088.42 792.278 1089.1 792.783 1089.52 792.867C1089.69 792.867 1089.85 792.867 1089.94 792.699C1089.94 792.699 1089.94 792.53 1089.94 792.446L1088.93 791.185H1089.01Z" fill="#003B2F"/><path fill-rule="evenodd" clip-rule="evenodd" d="M1089.85 785.129C1088.85 784.204 1087.92 783.615 1087.25 783.447C1086.91 783.447 1086.57 783.447 1086.32 783.615L1085.4 784.372L1093.05 793.37L1093.89 792.698C1093.89 792.698 1094.23 792.277 1094.31 791.857C1094.31 791.268 1094.06 790.427 1093.39 789.334C1092.46 787.82 1091.2 786.306 1089.85 785.045V785.129ZM1092.46 790.427C1092.46 789.922 1091.87 788.913 1091.12 788.072C1090.7 787.568 1090.27 787.063 1089.77 786.559C1089.1 785.802 1088.51 785.466 1088.09 785.55C1088 785.55 1087.84 785.55 1087.75 785.718L1092.12 790.848C1092.12 790.848 1092.38 790.679 1092.38 790.427" fill="#003B2F"/><path d="M1083.63 796.145C1083.63 796.145 1084.56 796.565 1085.06 797.07C1085.23 797.238 1085.4 797.406 1085.73 797.743C1086.41 798.5 1087.16 799.172 1087.83 799.929L1086.66 800.938L1082.54 796.734L1083.04 796.313C1083.04 796.313 1083.38 796.229 1083.55 796.313M1097.93 812.207C1095.07 811.618 1091.37 809.516 1087.41 806.32L1087.83 805.9C1091.87 809.179 1095.57 810.945 1098.18 811.114C1099.78 811.114 1100.95 810.525 1101.46 809.264C1101.96 808.086 1101.88 806.32 1101.37 804.218C1100.79 802.116 1099.78 799.677 1098.26 796.986L1098.68 796.566C1100.36 799.425 1101.54 802.2 1102.21 804.554C1102.89 806.909 1102.97 808.843 1102.47 810.189C1101.79 811.955 1100.2 812.711 1097.76 812.207" fill="#003B2F"/><path d="M551.405 849.964C539.8 862.242 526.85 869.558 519.702 868.296C518.357 868.128 517.263 867.539 516.422 866.698C510.788 861.401 517.263 845.255 530.886 830.707C544.594 816.159 560.235 808.59 565.953 813.972L566.626 814.729C567.299 815.654 567.803 816.831 567.972 818.261C568.897 825.577 562.505 838.275 551.573 849.964H551.405Z" fill="#E6E8EA"/><path d="M566.543 814.645L571.168 819.775C576.802 825.073 570.327 841.219 556.704 855.767C543.081 870.315 527.356 877.799 521.637 872.501L520.964 871.829L516.339 866.699C517.18 867.54 518.358 868.044 519.619 868.297C526.767 869.558 539.801 862.326 551.322 849.964C562.338 838.191 568.645 825.493 567.72 818.261C567.552 816.832 567.132 815.654 566.375 814.729L566.543 814.645Z" fill="#8F9F99"/><path d="M566.543 814.645L571.168 819.775C576.802 825.073 570.327 841.219 556.704 855.767C543.081 870.315 527.356 877.799 521.637 872.501L520.964 871.829L516.339 866.699" stroke="#003B2F" stroke-width="0.953711" stroke-linecap="round" stroke-linejoin="round"/><path d="M566.541 814.645C567.214 815.57 567.718 816.748 567.887 818.177C568.812 825.493 562.42 838.191 551.488 849.88C539.883 862.158 526.933 869.474 519.785 868.213C518.44 868.044 517.347 867.456 516.506 866.615" stroke="#003B2F" stroke-width="0.953711" stroke-linecap="round" stroke-linejoin="round"/><path d="M519.702 868.296C518.357 868.128 517.263 867.623 516.422 866.782C510.788 861.484 517.263 845.338 530.886 830.706C544.594 816.158 560.235 808.674 565.953 813.972L566.626 814.729C567.383 815.654 567.803 816.915 567.972 818.345C568.897 825.577 562.505 838.359 551.573 850.048C539.969 862.409 527.018 869.641 519.87 868.38L519.702 868.296Z" stroke="#003B2F" stroke-width="0.953711" stroke-linecap="round" stroke-linejoin="round"/><path d="M517.347 863.25C515.665 858.12 520.542 845.675 532.82 832.556C539.211 825.745 546.191 820.363 552.498 817.335C557.795 814.812 562.168 814.308 563.934 815.906L564.439 816.41C564.439 816.41 564.691 816.915 564.859 817.251C564.943 817.588 565.027 818.008 565.111 818.428C565.784 823.894 561.159 835.415 549.386 847.945C537.529 860.559 525.504 866.361 520.122 865.436C519.281 865.352 518.692 865.016 518.272 864.596C517.851 864.175 517.599 863.755 517.347 863.166V863.25Z" stroke="#003B2F" stroke-width="0.953711" stroke-linecap="round" stroke-linejoin="round"/><path d="M558.468 825.83C558.636 821.625 555.104 820.7 549.302 823.56C547.788 824.316 546.106 825.241 544.424 826.503L544.004 826.082C548.293 822.971 552.245 821.121 555.104 820.785C559.309 820.364 560.738 823.307 558.888 828.605C558.047 830.96 556.618 833.651 554.768 836.51L554.347 836.089C556.954 832.137 558.384 828.521 558.468 825.914V825.83ZM537.276 833.987C537.276 833.987 537.36 832.389 538.454 831.212L540.472 828.857L541.565 829.867L537.781 834.324L537.36 833.903L537.276 833.987Z" fill="#003B2F"/><path d="M539.044 834.407C539.716 833.986 540.473 833.398 541.146 832.725L542.912 831.127L544.005 832.22L541.651 834.407C541.651 834.407 540.81 835.164 540.389 835.416C539.8 835.836 539.296 836.005 538.791 836.173L536.689 836.677C536.689 836.677 536.269 836.761 536.1 836.846C535.428 837.098 534.671 837.518 533.914 838.191C533.662 838.443 533.325 838.696 533.073 838.948C532.568 839.368 531.98 839.957 531.307 840.546L530.214 839.452C531.139 838.611 531.98 837.771 532.737 837.098C533.494 836.425 534.166 835.921 534.839 835.668C535.007 835.668 535.259 835.5 535.428 835.5L537.614 834.911C537.614 834.911 538.539 834.575 539.044 834.323V834.407ZM539.464 840.63V839.452C539.632 838.527 540.894 836.93 542.239 835.836C542.576 835.584 542.912 835.332 543.248 835.164C544.089 834.743 544.762 834.827 544.846 835.248C545.014 835.584 544.846 836.257 544.51 837.014L542.828 838.023C542.828 838.023 542.912 837.686 542.996 837.518C542.996 837.182 542.996 836.93 542.828 836.846C542.66 836.846 542.491 836.846 542.071 837.182C541.903 837.35 541.819 837.518 541.735 837.686C541.735 837.771 541.735 837.939 541.735 838.023V839.2C541.735 839.2 541.398 840.041 541.062 840.63C540.221 841.891 538.875 843.068 537.782 843.489C536.521 843.993 536.016 843.405 536.184 842.396C536.184 842.059 536.353 841.723 536.521 841.302C536.689 840.882 538.371 840.209 538.371 840.209C538.119 840.882 538.035 841.471 538.371 841.639C538.455 841.639 538.707 841.639 539.128 841.387C539.212 841.387 539.296 841.218 539.38 841.134C539.38 841.05 539.464 840.966 539.548 840.882C539.548 840.714 539.548 840.63 539.548 840.546M542.491 843.237L542.155 842.9L543.837 841.134L544.846 842.143L541.062 846.012C539.716 846.6 538.96 846.432 538.96 845.423C538.96 844.666 539.548 843.405 540.641 842.143C541.735 840.798 543.08 839.536 544.342 838.527C545.603 837.602 546.696 837.182 547.285 837.434C547.789 837.602 547.873 838.443 547.285 839.537C546.696 840.63 545.603 840.546 545.603 840.546C545.603 840.546 545.855 839.789 545.771 839.621C545.603 839.284 545.098 839.368 544.426 839.873C543.669 840.377 542.744 841.302 542.071 842.059C541.398 842.9 540.894 843.573 540.978 844.078C540.978 844.246 541.062 844.414 541.23 844.498C541.23 844.498 541.398 844.498 541.482 844.498L542.576 843.321L542.491 843.237Z" fill="#003B2F"/><path fill-rule="evenodd" clip-rule="evenodd" d="M548.546 843.491C549.387 842.397 549.891 841.388 549.975 840.716C549.975 840.379 549.891 840.043 549.723 839.875L548.882 839.034L540.641 847.527L541.398 848.284C541.398 848.284 541.903 848.62 542.239 848.62C542.828 848.62 543.668 848.2 544.678 847.443C546.107 846.35 547.453 844.92 548.63 843.491H548.546ZM543.5 846.602C544.005 846.602 544.93 845.845 545.771 845.088C546.275 844.584 546.696 844.163 547.116 843.575C547.789 842.818 548.125 842.145 547.957 841.809C547.957 841.725 547.873 841.557 547.789 841.557L543.08 846.434C543.08 846.434 543.332 846.686 543.5 846.602Z" fill="#003B2F"/><path d="M537.025 838.359C537.025 838.359 536.688 839.284 536.268 839.873C536.184 840.041 535.932 840.293 535.679 840.63C535.007 841.387 534.334 842.143 533.745 842.9L532.652 841.891L536.52 837.35L537.025 837.771C537.025 837.771 537.193 838.023 537.109 838.275M522.645 854.085C522.897 851.225 524.663 847.357 527.522 843.068L527.943 843.489C525.084 847.862 523.654 851.73 523.738 854.337C523.822 855.935 524.579 857.028 525.924 857.448C527.186 857.785 528.868 857.617 530.886 856.86C532.904 856.103 535.259 854.841 537.782 853.076L538.202 853.496C535.511 855.43 532.904 856.944 530.634 857.785C528.363 858.71 526.429 858.962 525.084 858.626C523.234 858.121 522.393 856.607 522.645 854.085Z" fill="#003B2F"/><path d="M515.014 323.183H403.191C390.896 323.183 380.928 333.15 380.928 345.445V345.518C380.928 357.813 390.896 367.781 403.191 367.781H515.014C527.309 367.781 537.276 357.813 537.276 345.518V345.445C537.276 333.15 527.309 323.183 515.014 323.183Z" fill="#03FC9D"/><path d="M457.496 264.571H279.616C260.024 264.571 244.142 280.453 244.142 300.045C244.142 319.636 260.024 335.519 279.616 335.519H457.496C477.088 335.519 492.97 319.636 492.97 300.045C492.97 280.453 477.088 264.571 457.496 264.571Z" fill="#03FC9D"/><path d="M282.755 305.446L307.645 319.753" stroke="#003B2F" stroke-width="3" stroke-linecap="round" stroke-linejoin="round"/><path d="M332.462 305.446L317.864 313.84" stroke="#003B2F" stroke-width="3" stroke-linecap="round" stroke-linejoin="round"/><path d="M307.645 319.752V348.803" stroke="#003B2F" stroke-width="3" stroke-linecap="round" stroke-linejoin="round"/><path d="M1837.12 467.711H1795.1C1808.34 467.711 1819.25 456.933 1819.25 443.563C1819.25 430.193 1808.47 419.416 1795.1 419.416H1674.36C1661.13 419.416 1650.22 430.193 1650.22 443.563H1613.11C1599.87 443.563 1588.96 454.341 1588.96 467.711C1588.96 481.081 1599.74 491.859 1613.11 491.859H1692.24C1692.24 505.093 1703.01 516.007 1716.38 516.007H1837.12C1850.36 516.007 1861.27 505.229 1861.27 491.859C1861.27 478.489 1850.49 467.711 1837.12 467.711Z" fill="#03FC9D"/><path d="M1530.52 566.891H1740.48C1763.61 566.891 1782.37 548.139 1782.37 525.008C1782.37 501.876 1763.61 483.124 1740.48 483.124H1530.52C1507.39 483.124 1488.64 501.876 1488.64 525.008C1488.64 548.139 1507.39 566.891 1530.52 566.891Z" fill="#E6E8EA"/><path d="M103.886 660.048L124.616 648.078" stroke="#003B2F" stroke-width="3" stroke-linecap="round" stroke-linejoin="round"/><path d="M145.345 660.049L133.156 652.969" stroke="#003B2F" stroke-width="3" stroke-linecap="round" stroke-linejoin="round"/><path d="M124.616 648.078V623.845" stroke="#003B2F" stroke-width="3" stroke-linecap="round" stroke-linejoin="round"/><path d="M87.637 757.857H332.462" stroke="#03FC9D" stroke-width="3" stroke-linecap="round" stroke-linejoin="round"/><path d="M58.73 790.672H195.647" stroke="#003B2F" stroke-width="3" stroke-linecap="round" stroke-linejoin="round"/><path d="M1128.7 293.631H1166.46" stroke="#003B2F" stroke-width="3" stroke-linecap="round" stroke-linejoin="round"/><path d="M1215.21 235.511H1488.64" stroke="#03FC9D" stroke-width="3" stroke-linecap="round" stroke-linejoin="round"/><path d="M1215.21 293.425H1368.08" stroke="#003B2F" stroke-width="3" stroke-linecap="round" stroke-linejoin="round"/><path d="M1340.16 456.847L1310.01 474.219" stroke="#003B2F" stroke-width="3" stroke-linecap="round" stroke-linejoin="round"/><path d="M1279.86 456.847L1297.6 467.066" stroke="#003B2F" stroke-width="3" stroke-linecap="round" stroke-linejoin="round"/><path d="M1310.01 474.219V509.401" stroke="#003B2F" stroke-width="3" stroke-linecap="round" stroke-linejoin="round"/><path d="M1554.25 824.042H1616.69" stroke="#003B2F" stroke-width="3" stroke-miterlimit="10" stroke-linecap="round" stroke-linejoin="round"/><path d="M1506.81 824.042H1522.54" stroke="#003B2F" stroke-width="3" stroke-miterlimit="10" stroke-linecap="round" stroke-linejoin="round"/><path d="M1563.31 779.073H1725.11" stroke="#03FC9D" stroke-width="3" stroke-miterlimit="10" stroke-linecap="round" stroke-linejoin="round"/><path d="M440.528 511.162L454.139 540.087" stroke="#003B2F" stroke-width="3" stroke-linecap="round" stroke-linejoin="round"/><path d="M464.063 561.354L477.675 590.279" stroke="#003B2F" stroke-width="3" stroke-linecap="round" stroke-linejoin="round"/><path d="M419.543 569.295L448.468 555.684" stroke="#003B2F" stroke-width="3" stroke-linecap="round" stroke-linejoin="round"/><path d="M469.737 545.758L498.662 532.146" stroke="#003B2F" stroke-width="3" stroke-linecap="round" stroke-linejoin="round"/></svg>