<svg width="1920" height="1081" viewBox="0 0 1920 1081" fill="none" xmlns="http://www.w3.org/2000/svg"><path d="M1315.94 942.357H551.432C532.894 942.357 519.128 925.067 523.43 906.996L663.05 312.041C666.1 299.054 677.755 289.823 691.052 289.823H1455.56C1474.09 289.823 1487.86 307.112 1483.56 325.184L1343.86 920.06C1340.81 933.047 1329.16 942.278 1315.86 942.278L1315.94 942.357Z" fill="#E6E8EA" stroke="#003B2F" stroke-width="3" stroke-linecap="round" stroke-linejoin="round"/><path d="M527.029 891.349H1319.07L1446.41 348.888H654.446L527.029 891.349Z" fill="white" stroke="#003B2F" stroke-width="3" stroke-linecap="round" stroke-linejoin="round"/><path d="M1432.41 393.246H900.443" stroke="#003B2F" stroke-width="3" stroke-linecap="round" stroke-linejoin="round"/><path d="M868.294 782.841H516.155C506.143 782.841 498.713 773.454 500.981 763.675L529.452 644.136C531.095 637.095 537.352 632.167 544.627 632.167H884.485C894.497 632.167 901.928 641.554 899.659 651.333L868.372 782.841H868.294Z" fill="#03FC9D"/><path d="M864.071 800.6L868.295 782.763L850.07 770.481L835.052 782.763L851.869 803.338C855.545 807.798 862.663 806.155 863.993 800.522L864.071 800.6Z" fill="#03FC9D"/><path d="M1216.45 874.217C1226.07 873.982 1235.22 866.785 1237.33 857.24C1239.28 848.635 1234.12 840.186 1225.05 839.325C1223.17 839.169 1221.22 839.247 1219.26 839.247H680.728C672.593 839.247 664.459 839.247 656.402 839.247C646.077 839.247 636.222 846.601 634.266 857.006C632.624 866.002 638.647 873.825 647.876 874.138C648.346 874.138 648.893 874.138 649.362 874.138C657.497 874.138 665.632 874.138 673.767 874.138H1216.37" stroke="#003B2F" stroke-width="3" stroke-linecap="round" stroke-linejoin="round"/><path d="M1333.38 817.42H687.298" stroke="#003B2F" stroke-width="3" stroke-linecap="round" stroke-linejoin="round"/><path d="M926.49 534.298H413.457C391.79 534.298 375.755 514.036 380.761 492.913L442.163 234.748C445.761 219.571 459.293 208.931 474.858 208.931H961.297C982.964 208.931 998.999 229.193 993.993 250.316L926.412 534.298H926.49Z" fill="#03FC9D"/><path d="M917.339 572.788L926.491 534.298L887.225 507.699L854.765 534.298L891.058 578.812C898.958 588.435 914.445 584.914 917.261 572.788H917.339Z" fill="#03FC9D"/><path d="M1026.32 253.181C1050.2 230.963 1053.98 196.205 1034.77 175.547C1015.55 154.89 980.618 156.155 956.738 178.373C932.858 200.591 929.074 235.349 948.287 256.007C967.501 276.664 1002.43 275.399 1026.32 253.181Z" fill="#003B2F"/><path d="M972.326 215.815C972.326 218.632 970.058 220.822 967.32 220.822C964.582 220.822 962.314 218.553 962.314 215.815C962.314 213.077 964.582 210.808 967.32 210.808C970.058 210.808 972.326 213.077 972.326 215.815Z" fill="white"/><path d="M996.572 215.815C996.572 218.632 994.304 220.822 991.567 220.822C988.829 220.822 986.561 218.553 986.561 215.815C986.561 213.077 988.829 210.808 991.567 210.808C994.304 210.808 996.572 213.077 996.572 215.815Z" fill="white"/><path d="M1015.82 220.822C1018.58 220.822 1020.82 218.581 1020.82 215.815C1020.82 213.05 1018.58 210.808 1015.82 210.808C1013.05 210.808 1010.81 213.05 1010.81 215.815C1010.81 218.581 1013.05 220.822 1015.82 220.822Z" fill="white"/><path d="M640.765 430.569C683.433 390.871 690.187 328.761 655.851 291.842C621.514 254.924 559.09 257.178 516.421 296.876C473.753 336.575 466.999 398.685 501.335 435.603C535.672 472.521 598.096 470.267 640.765 430.569Z" fill="white"/><path d="M609.94 409.753C591.402 410.926 555.656 410.77 538.37 409.753C513.027 408.266 494.255 386.048 500.121 361.327L502.155 352.643C507.083 332.068 525.464 318.065 546.583 317.517C564.495 317.048 600.241 317.048 618.153 317.517C643.495 318.143 662.268 341.221 656.401 365.943L654.368 374.626C649.44 395.201 631.059 408.423 609.94 409.753Z" fill="#03FC9D"/><path d="M604.621 398.331H544.628C525.229 398.331 510.915 380.181 515.374 361.327L516.391 356.946C520.302 340.517 535.007 328.939 551.824 328.939H611.817C631.215 328.939 645.529 347.089 641.071 365.943L640.054 370.324C636.143 386.752 621.438 398.331 604.621 398.331Z" fill="#003B2F"/><path d="M527.654 355.851C527.733 360.623 530.47 364.848 535.085 366.49C539.778 368.212 545.332 366.725 549.164 363.752C551.589 361.953 553.545 359.606 554.796 356.868" stroke="#03FC9D" stroke-width="3" stroke-linecap="round" stroke-linejoin="round"/><path d="M601.493 355.851C601.571 360.623 604.387 364.848 608.923 366.49C613.616 368.212 619.17 366.725 623.003 363.752C625.427 361.953 627.383 359.606 628.634 356.868" stroke="#03FC9D" stroke-width="3" stroke-linecap="round" stroke-linejoin="round"/><path d="M594.845 371.028C594.845 371.028 594.767 370.48 594.532 370.245C594.376 370.011 594.219 369.933 593.985 369.854C593.828 369.776 593.75 369.541 593.515 369.541C593.437 369.541 593.359 369.541 593.281 369.541C593.202 369.541 593.124 369.463 593.046 369.463H559.569C559.178 369.463 558.943 369.698 558.708 369.854C558.552 369.854 558.395 369.933 558.239 370.089C558.082 370.245 558.083 370.48 558.004 370.715C557.848 370.95 557.691 371.106 557.691 371.497C557.691 374.626 558.786 377.678 560.898 379.946C562.932 382.137 565.748 383.545 568.564 384.249C574.899 385.892 582.174 384.797 587.649 381.12C591.012 378.851 593.515 375.722 594.923 371.967C594.923 371.81 594.923 371.732 594.923 371.575C594.923 371.419 594.923 371.262 594.923 371.106L594.845 371.028Z" stroke="#03FC9D" stroke-width="3" stroke-linecap="round" stroke-linejoin="round"/><path d="M588.117 316.578C590.541 310.398 592.341 305.547 594.374 299.211" stroke="#003B2F" stroke-width="3" stroke-linecap="round" stroke-linejoin="round"/><path d="M601.883 287.632C600.397 285.442 597.581 284.425 594.922 284.66C591.48 284.972 588.586 287.006 587.491 290.37C586.944 292.17 587.022 294.126 587.882 295.847C588.586 297.333 589.994 298.272 591.48 298.82C594.531 299.993 598.364 298.82 600.397 296.316C602.274 293.969 603.761 290.449 601.883 287.632Z" stroke="#003B2F" stroke-width="3" stroke-linecap="round" stroke-linejoin="round"/><path d="M502.859 348.497C497.227 348.81 492.534 352.017 490.422 357.337C488.545 362.031 489.014 367.586 491.283 372.045C492.691 374.705 494.803 376.973 497.384 378.46" stroke="#003B2F" stroke-width="3" stroke-linecap="round" stroke-linejoin="round"/><path d="M655.072 380.337C665.162 378.069 671.654 364.926 666.022 355.851C664.302 353.113 661.72 351.313 658.748 350.14" stroke="#003B2F" stroke-width="3" stroke-linecap="round" stroke-linejoin="round"/><path d="M1522.28 740.596H993.289L1064.55 441.045C1068.14 425.868 1081.68 415.229 1097.24 415.229H1583.68C1605.35 415.229 1621.38 435.491 1616.38 456.614L1554.97 714.779C1551.38 729.957 1537.84 740.596 1522.28 740.596Z" fill="#03FC9D"/><path d="M985.78 771.889L993.289 740.596L1042.1 727.375L1077.22 740.596L1006.59 789.1C995.244 794.185 982.964 784.015 985.858 771.889H985.78Z" fill="#03FC9D"/><path d="M1106.67 455.452C1130.49 433.293 1134.24 398.608 1115.06 377.982C1095.88 357.356 1061.02 358.599 1037.2 380.758C1013.38 402.918 1009.63 437.602 1028.81 458.228C1048 478.854 1082.85 477.612 1106.67 455.452Z" fill="#003B2F"/><path d="M1254.31 626.312C1296.98 586.613 1303.74 524.503 1269.4 487.585C1235.06 450.667 1172.64 452.921 1129.97 492.619C1087.3 532.318 1080.55 594.428 1114.89 631.346C1149.22 668.264 1211.65 666.01 1254.31 626.312Z" fill="white"/><path d="M1066.97 433.77C1068.22 431.345 1069.79 429.702 1071.66 427.746C1073.85 425.477 1076.2 423.365 1078.47 421.253C1082.85 417.107 1087.62 412.726 1089.81 406.936C1092 401.304 1089.81 394.81 1085.59 390.664C1081.52 386.674 1075.65 385.657 1070.33 387.065C1064.08 388.708 1058.6 393.402 1055.86 399.27" stroke="white" stroke-width="3" stroke-linecap="round" stroke-linejoin="round"/><path d="M1058.83 444.175C1058.83 444.175 1058.83 444.331 1058.83 444.488C1058.83 449.104 1065.95 449.104 1066.03 444.488C1066.03 444.41 1066.03 444.331 1066.03 444.175C1066.03 439.559 1058.91 439.559 1058.83 444.175C1058.83 444.253 1058.83 444.331 1058.83 444.488C1058.83 449.104 1065.95 449.104 1066.03 444.488C1066.03 444.41 1066.03 444.331 1066.03 444.175C1066.03 439.559 1058.91 439.559 1058.83 444.175Z" fill="white"/><path d="M1225.6 582.88C1222.39 576.7 1218.09 571.146 1213.16 566.295C1213.39 564.73 1211.05 563.479 1209.95 564.965C1204.32 572.867 1198.38 580.925 1189.69 585.697C1185.55 587.965 1180.85 589.295 1176.16 589.53C1171.39 589.687 1166.78 588.357 1162.71 585.853C1158.48 583.193 1154.73 580.064 1150.74 577.091C1151.05 575.839 1149.72 574.04 1148.32 574.822C1148.16 574.822 1148.08 574.979 1147.92 575.057C1147.85 575.057 1147.77 574.901 1147.69 574.901C1145.81 573.649 1143.7 575.605 1144.33 577.326C1139.87 580.455 1136.19 584.445 1133.38 589.139C1129.93 594.928 1127.59 602.36 1129.39 609.088C1130.33 612.53 1132.67 615.268 1135.88 616.99C1138.93 618.632 1142.45 619.18 1145.89 619.571C1154.57 620.588 1180.15 621.292 1185.16 621.449C1196.11 621.84 1208.62 622.309 1219.1 618.163C1234.59 612.061 1232.32 595.789 1225.67 583.037L1225.6 582.88Z" fill="#003B2F"/><path d="M1225.6 557.377C1225.6 550.414 1219.34 511.924 1187.82 513.88C1178.66 514.427 1166.62 522.329 1158.72 530.543C1152.85 536.567 1149.02 546.894 1147.38 556.282C1140.49 557.925 1134.39 564.731 1132.99 572.945C1131.42 582.255 1136.58 589.765 1144.48 590C1145.19 604.864 1149.49 618.946 1162.71 623.874C1167.32 625.595 1172.33 625.752 1177.18 625.126C1194.07 622.779 1207.84 607.993 1216.29 591.095C1216.68 591.095 1217.07 591.251 1217.54 591.251C1225.67 591.251 1233.5 583.585 1235.06 574.197C1236.47 565.748 1232.32 558.785 1225.6 557.377Z" fill="white" stroke="#003B2F" stroke-width="3" stroke-linecap="round" stroke-linejoin="round"/><path d="M1231.38 488.689C1231.38 488.689 1230.84 488.141 1230.52 487.828C1216.13 474.216 1184.06 499.094 1193.76 516.774C1198.14 524.754 1209.09 525.145 1216.68 522.329C1227.08 518.495 1240.54 499.094 1231.38 488.689Z" fill="#003B2F"/><path d="M1224.89 528.822C1221.61 521.077 1215.35 515.131 1207.37 512.08C1190.71 505.587 1170.76 512.628 1158.17 526.553C1154.5 530.543 1144.8 544.312 1147.3 556.36C1149.25 555.734 1176.24 543.217 1186.17 526.788C1205.81 547.832 1214.18 553.152 1222 556.751C1225.2 558.237 1228.18 558.159 1228.25 556.047C1228.49 546.893 1228.33 537.114 1224.81 528.822H1224.89Z" fill="#003B2F"/><path d="M1197.12 570.363C1196.42 574.275 1193.92 577.404 1190.87 577.404C1187.43 577.404 1186.49 574.275 1187.19 570.363C1187.9 566.452 1190.16 563.323 1193.45 563.323C1197.05 563.323 1197.83 566.452 1197.12 570.363Z" fill="#003B2F"/><path d="M1168.03 570.363C1167.32 574.275 1164.82 577.404 1161.77 577.404C1158.33 577.404 1157.39 574.275 1158.09 570.363C1158.8 566.452 1161.07 563.323 1164.35 563.323C1167.95 563.323 1168.73 566.452 1168.03 570.363Z" fill="#003B2F"/><path d="M1179.37 582.567C1177.73 583.272 1175.77 583.897 1173.97 583.35C1172.25 582.88 1171.31 581.394 1171.16 579.673C1170.92 577.482 1175.3 575.214 1176.16 573.336L1177.26 567.547" fill="white"/><path d="M1179.37 582.567C1177.73 583.272 1175.77 583.897 1173.97 583.35C1172.25 582.88 1171.31 581.394 1171.16 579.673C1170.92 577.482 1175.3 575.214 1176.16 573.336L1177.26 567.547" stroke="#003B2F" stroke-width="3" stroke-linecap="round" stroke-linejoin="round"/><path d="M1164.74 596.493C1168.65 598.918 1173.5 599.074 1177.96 598.136C1182.26 597.197 1186.64 595.163 1189.69 591.799" stroke="#003B2F" stroke-width="3" stroke-linecap="round" stroke-linejoin="round"/><path d="M1207.92 558.003C1206.43 553.152 1195.95 549.866 1190.63 552.448" stroke="#003B2F" stroke-width="3" stroke-linecap="round" stroke-linejoin="round"/><path d="M1171.08 551.666C1165.76 549.084 1155.28 552.37 1153.79 557.22" stroke="#003B2F" stroke-width="3" stroke-linecap="round" stroke-linejoin="round"/><path d="M1272.14 866.941C1276.28 864.359 1280.51 861.778 1284.73 859.274C1284.73 859.274 1284.81 859.118 1284.89 859.04C1284.89 859.04 1285.04 859.04 1285.12 858.961C1285.28 858.805 1285.2 858.648 1285.36 858.492C1285.51 858.257 1285.59 858.101 1285.59 857.866C1285.59 857.631 1285.59 857.397 1285.51 857.162C1285.51 857.005 1285.51 856.771 1285.51 856.614C1285.51 856.536 1285.36 856.536 1285.28 856.458C1285.28 856.458 1285.28 856.301 1285.2 856.223C1282.3 853.094 1279.41 850.043 1276.44 846.914" stroke="#003B2F" stroke-width="3" stroke-linecap="round" stroke-linejoin="round"/><path d="M1299.43 857.24C1300.45 852.703 1300.22 847.931 1298.18 843.706C1296.31 839.795 1292.94 836.822 1289.03 835.179C1279.8 831.346 1269.09 835.257 1262.12 841.75C1255.24 848.165 1250.63 858.805 1254.15 868.115C1255.63 872.104 1258.53 875.547 1262.36 877.502C1266.58 879.693 1271.43 880.084 1276.13 879.302C1286.06 877.581 1294.74 869.992 1298.42 860.683C1298.89 859.509 1299.2 858.414 1299.51 857.162" stroke="#003B2F" stroke-width="3" stroke-linecap="round" stroke-linejoin="round"/><path d="M811.04 348.341C824.102 348.497 837.165 348.575 850.227 348.575C863.211 348.575 876.196 348.575 889.18 348.575C896.532 348.575 903.885 348.497 911.316 348.419C913.819 348.419 913.819 344.507 911.316 344.507C898.253 344.664 885.269 344.742 872.206 344.742C859.222 344.742 846.238 344.742 833.254 344.742C825.901 344.742 818.47 344.664 811.118 344.585C808.615 344.585 808.615 348.497 811.118 348.497L811.04 348.341Z" fill="white"/><path d="M734.933 348.34H781.003C783.506 348.34 783.506 344.429 781.003 344.429H734.933C732.43 344.429 732.43 348.34 734.933 348.34Z" fill="white"/><path d="M772.555 311.102H919.84C922.343 311.102 922.343 307.19 919.84 307.19H772.555C770.052 307.19 770.052 311.102 772.555 311.102Z" fill="white"/><path d="M726.094 385.501H902.398C904.901 385.501 904.901 381.589 902.398 381.589H726.094C723.591 381.589 723.591 385.501 726.094 385.501Z" fill="white"/><path d="M850.696 422.661H893.559C896.062 422.661 896.062 418.749 893.559 418.749H850.696C848.193 418.749 848.193 422.661 850.696 422.661Z" fill="white"/><path d="M717.256 422.661C730.866 422.739 744.476 422.817 758.007 422.817C771.305 422.817 784.602 422.817 797.899 422.817C805.642 422.817 813.308 422.739 821.051 422.661C823.554 422.661 823.554 418.749 821.051 418.749C807.52 418.828 793.988 418.906 780.456 418.906C767.159 418.906 753.862 418.906 740.487 418.906C732.743 418.906 724.921 418.828 717.178 418.749C714.675 418.749 714.675 422.661 717.178 422.661H717.256Z" fill="white"/><path d="M1521.11 539.696H1487.16" stroke="#003B2F" stroke-width="3" stroke-linecap="round" stroke-linejoin="round"/><path d="M1446.56 539.696C1433.27 539.696 1419.97 539.618 1406.67 539.618C1393.45 539.618 1380.23 539.618 1367.02 539.618C1359.58 539.618 1352.15 539.618 1344.72 539.696" stroke="#003B2F" stroke-width="3" stroke-linecap="round" stroke-linejoin="round"/><path d="M1529.63 502.458H1382.35" stroke="#003B2F" stroke-width="3" stroke-linecap="round" stroke-linejoin="round"/><path d="M1512.19 576.857H1335.88" stroke="#003B2F" stroke-width="3" stroke-linecap="round" stroke-linejoin="round"/><path d="M1503.43 614.095C1490.52 614.017 1477.62 613.938 1464.71 613.938C1451.41 613.938 1438.12 613.938 1424.82 613.938C1417.7 613.938 1410.58 613.938 1403.54 614.017" stroke="#003B2F" stroke-width="3" stroke-linecap="round" stroke-linejoin="round"/><path d="M1363.96 614.095H1327.05" stroke="#003B2F" stroke-width="3" stroke-linecap="round" stroke-linejoin="round"/><path d="M296.754 891.349H1315.39C1328.22 891.349 1338.7 901.754 1338.7 914.662V919.044C1338.7 931.874 1328.3 942.357 1315.39 942.357H308.722C295.894 942.357 285.413 931.952 285.413 919.044V902.693C285.413 896.434 290.497 891.349 296.754 891.349Z" fill="#E6E8EA" stroke="#003B2F" stroke-width="3" stroke-linecap="round" stroke-linejoin="round"/><path d="M852.338 893.853C847.332 900.425 845.455 908.952 846.707 917.088C847.88 924.833 852.416 931.639 858.596 936.255C862.037 938.836 866.026 940.636 870.25 941.496" fill="#E6E8EA"/><path d="M852.338 893.853C847.332 900.425 845.455 908.952 846.707 917.088C847.88 924.833 852.416 931.639 858.596 936.255C862.037 938.836 866.026 940.636 870.25 941.496" stroke="#003B2F" stroke-width="3" stroke-linecap="round" stroke-linejoin="round"/><path fill-rule="evenodd" clip-rule="evenodd" d="M595.313 690.763L600.241 689.902L596.486 689.041L599.067 686.538L595.235 687.477L596.721 683.956L593.827 685.599L593.67 681.062L591.48 686.303L588.899 683.956L589.212 687.086L586.396 686.538L588.273 689.12L583.971 689.902L587.96 690.841L585.848 692.718L588.508 692.562L586.552 696.082L590.072 693.188L589.838 697.882L591.793 693.188L593.514 695.535L593.983 692.64L596.955 693.735L595.313 690.841V690.763ZM593.983 689.511C593.748 690.606 592.653 691.467 591.637 691.467C590.62 691.467 589.838 690.606 590.072 689.511C590.307 688.416 591.402 687.555 592.419 687.555C593.514 687.555 594.218 688.416 593.983 689.511Z" fill="#003B2F"/><path d="M864.383 700.151H865.087C865.557 700.151 865.635 700.385 865.557 700.62C865.478 700.855 865.322 701.089 864.853 701.089H864.149L864.383 700.151ZM864.696 701.48C864.696 701.48 865.009 701.48 865.165 701.637C865.244 701.872 865.244 702.106 865.165 702.341C865.165 702.497 865.165 702.732 865.165 702.889H865.635C865.635 702.889 865.635 702.263 865.635 701.95C865.713 701.637 865.635 701.402 865.322 701.324C865.322 701.324 866.026 700.933 866.104 700.542C866.182 700.072 865.869 699.681 865.322 699.681C865.322 699.681 865.244 699.681 865.165 699.681H863.992L863.21 702.81H863.601L863.914 701.402H864.54L864.696 701.48Z" fill="#003B2F"/><path d="M867.043 701.324C866.73 702.576 865.478 703.593 864.149 703.593C862.819 703.593 862.037 702.576 862.35 701.324C862.662 700.072 863.914 699.055 865.244 699.055C866.573 699.055 867.356 700.072 867.043 701.324ZM865.322 698.586C863.758 698.586 862.193 699.838 861.88 701.324C861.489 702.81 862.506 704.062 864.07 704.062C865.635 704.062 867.121 702.81 867.512 701.324C867.903 699.838 866.886 698.586 865.322 698.586Z" fill="#003B2F"/><path d="M568.249 688.65L561.522 701.793C560.818 703.28 560.192 704.766 559.723 706.252H559.41L558.628 688.572H545.957L533.129 722.055H545.018L549.555 707.817C549.946 706.487 550.337 705.079 550.728 703.827H551.119C550.963 705.235 550.884 706.644 550.963 707.974L552.292 722.134H559.488L567.623 707.113C568.171 706.018 568.718 704.923 569.188 703.749H569.422L567.076 722.134H579.043L580.842 688.572H568.249V688.65Z" fill="#003B2F"/><path d="M594.061 706.878L595.86 698.664H584.206L578.965 722.29H590.62L592.341 714.467C592.654 719.943 596.877 722.838 603.291 722.838C605.325 722.838 607.359 722.368 609.392 721.742L612.052 712.042C610.487 712.98 608.923 713.841 607.124 713.841C605.168 713.841 604.073 712.198 604.543 710.242C605.012 708.365 606.967 706.878 608.923 706.878C610.487 707.035 611.895 707.739 612.756 708.834L614.868 699.29C612.677 698.508 610.253 698.116 607.828 698.116C602.353 698.038 596.643 701.637 593.983 706.878H594.061Z" fill="#003B2F"/><path d="M849.679 698.351L843.186 707.739L841.153 711.416H840.84L841.622 707.739L842.561 698.351H818.782L817.765 701.715H817.453C816.905 699.212 814.715 697.569 811.899 697.725C805.955 697.725 800.401 702.732 797.507 707.895C798.289 701.715 793.909 698.116 786.869 698.116C781.629 698.116 776.153 700.385 772.008 704.453L774.276 698.821L770.287 698.977L773.416 690.997H761.527L758.398 698.977L755.973 698.821V698.664H744.475L743.771 701.48H743.458C742.598 699.133 740.642 698.116 737.67 698.116C731.882 698.116 726.641 702.654 723.669 707.661L727.345 698.273C723.434 698.195 721.009 698.821 717.646 701.95H717.411L718.976 698.742H707.165L703.097 698.899L706.226 690.919H694.337L691.287 698.899L688.471 698.742L685.655 706.018C685.029 703.671 682.761 702.263 679.71 701.48L677.129 700.855C676.269 700.62 674.782 700.463 675.252 699.212C675.799 697.804 677.52 697.412 678.615 697.412C681.118 697.412 683.308 698.351 684.873 699.916L691.599 691.31C688.94 689.276 685.577 688.259 681.822 688.337C674.313 688.337 665.24 692.797 662.111 700.855C660.077 706.096 663.05 708.913 667.586 709.773L669.933 710.242C670.95 710.477 672.592 710.634 671.967 712.12C671.341 713.606 669.229 714.154 667.978 714.154C665.24 713.998 662.972 712.902 661.407 711.025C661.407 711.025 661.173 710.79 660.86 710.321C662.502 702.263 656.87 697.96 649.049 697.96C643.886 697.96 638.802 699.838 635.439 703.436L636.69 697.96C632.779 697.882 630.511 698.508 627.695 701.637H627.46L628.399 698.429H616.745L611.504 722.056H623.158L625.192 712.981C625.818 710.008 627.773 708.287 630.824 708.287C631.371 708.287 631.841 708.365 632.31 708.521C632.075 709.225 631.841 709.851 631.684 710.555C629.963 718.379 636.064 722.603 643.573 722.603C646.937 722.603 650.457 721.743 653.664 719.943C657.105 721.899 661.173 722.916 665.553 722.994C672.905 722.994 681.979 719.083 685.107 711.025C685.577 709.93 685.811 708.756 685.889 707.661L687.923 707.504L682.213 722.212H694.024L699.734 707.504L703.645 707.739L697.935 722.368H709.668L713.188 713.293C714.361 710.321 716.551 708.521 719.68 708.521C720.853 708.521 721.87 708.913 722.574 709.695C722.417 709.93 722.339 710.242 722.261 710.477C719.993 716.266 721.088 722.76 727.658 722.76C730.943 722.76 733.446 721.351 736.497 719.083H736.731L735.167 722.212H746.743L752.453 707.583L755.034 707.426L749.246 722.212H761.135L766.924 707.426L769.505 707.583C768.879 708.6 768.332 709.617 767.94 710.712C764.734 718.926 770.209 722.76 777.874 722.76C783.506 722.76 791.093 720.1 794.926 714.389H783.349C782.724 715.484 781.394 716.345 780.221 716.345C777.718 716.345 778.265 714.154 779.047 712.276H795.864C794.691 717.44 796.334 722.368 802.122 722.368C804.938 722.368 808.614 721.038 810.882 718.457H811.195L810.022 720.882C808.536 723.855 805.72 726.124 802.513 726.124C799.541 726.124 796.881 725.107 795.082 723.229L789.294 731.287L790.311 731.678C793.283 732.93 796.568 733.634 800.01 733.556C808.536 733.556 817.844 729.8 821.52 720.569L829.968 699.368L831.767 719.63L820.581 731.835H833.096L862.35 698.038H849.835L849.679 698.351ZM645.92 713.998C644.121 713.998 642.948 712.589 643.339 710.79C643.73 708.991 645.529 707.583 647.328 707.583C649.127 707.583 650.3 708.991 649.909 710.79C649.518 712.589 647.719 713.998 645.92 713.998ZM740.095 710.477C739.391 712.276 737.748 714.076 735.558 714.076C733.368 714.076 733.133 712.433 733.915 710.555C734.541 708.756 736.418 707.426 738.218 707.348C740.095 707.348 740.799 708.678 740.095 710.477ZM786.556 707.661V707.817H780.612V707.661C781.159 706.174 782.489 704.844 784.132 704.453C784.366 704.453 784.523 704.453 784.757 704.453C785.461 704.453 786.165 704.766 786.478 705.236C786.869 705.94 786.948 706.878 786.556 707.739V707.661ZM814.48 710.321C813.776 712.12 812.212 713.606 810.178 713.606C808.145 713.606 807.362 712.198 808.145 710.242C808.849 708.365 810.804 706.878 812.838 706.8C814.793 706.8 815.263 708.443 814.48 710.242V710.321Z" fill="#003B2F"/><path d="M92.7844 736.628H226.719C241.513 736.628 253.506 724.671 253.506 709.922C253.506 695.173 241.513 683.217 226.719 683.217H92.7844C77.9903 683.217 65.9974 695.173 65.9974 709.922C65.9974 724.671 77.9903 736.628 92.7844 736.628Z" fill="#03FC9D"/><path d="M165.303 695.63H384.825C409.001 695.63 428.599 676.032 428.599 651.856C428.599 627.681 409.001 608.083 384.825 608.083H165.303C141.127 608.083 121.529 627.681 121.529 651.856C121.529 676.032 141.127 695.63 165.303 695.63Z" fill="#03FC9D"/><path d="M226.039 322.701L243.988 340.651" stroke="#003B2F" stroke-width="3" stroke-linecap="round" stroke-linejoin="round"/><path d="M257.114 353.777L275.064 371.615" stroke="#003B2F" stroke-width="3" stroke-linecap="round" stroke-linejoin="round"/><path d="M226.039 371.615L243.988 353.777" stroke="#003B2F" stroke-width="3" stroke-linecap="round" stroke-linejoin="round"/><path d="M257.114 340.651L275.064 322.701" stroke="#003B2F" stroke-width="3" stroke-linecap="round" stroke-linejoin="round"/><path d="M376.714 781.537L385.446 811.603" stroke="#003B2F" stroke-width="3" stroke-linecap="round" stroke-linejoin="round"/><path d="M415.815 819.21L397.961 814.781" stroke="#003B2F" stroke-width="3" stroke-linecap="round" stroke-linejoin="round"/><path d="M385.444 811.603L363.416 834.467" stroke="#003B2F" stroke-width="3" stroke-linecap="round" stroke-linejoin="round"/><path d="M1538.78 860.472L1519.28 833.876L1492.68 853.383L1512.19 879.979L1538.78 860.472Z" stroke="#003B2F" stroke-width="3" stroke-linecap="round" stroke-linejoin="round"/><path d="M1861.08 205.338H1825.28C1836.56 205.338 1845.85 196.157 1845.85 184.768C1845.85 173.378 1836.67 164.198 1825.28 164.198H1722.43C1711.16 164.198 1701.86 173.378 1701.86 184.768H1670.25C1658.98 184.768 1649.68 193.948 1649.68 205.338C1649.68 216.727 1658.86 225.908 1670.25 225.908H1737.66C1737.66 237.18 1746.84 246.478 1758.23 246.478H1861.08C1872.35 246.478 1881.65 237.297 1881.65 225.908C1881.65 214.518 1872.47 205.338 1861.08 205.338Z" fill="#03FC9D"/><path d="M1599.9 289.823H1778.76C1798.46 289.823 1814.43 273.849 1814.43 254.145C1814.43 234.441 1798.46 218.467 1778.76 218.467L1599.9 218.467C1580.2 218.467 1564.22 234.441 1564.22 254.145C1564.22 273.849 1580.2 289.823 1599.9 289.823Z" fill="#E6E8EA"/><path d="M1740.61 384.993L1765.62 399.439" stroke="#003B2F" stroke-width="3" stroke-linecap="round" stroke-linejoin="round"/><path d="M1790.72 384.993L1775.98 393.461" stroke="#003B2F" stroke-width="3" stroke-linecap="round" stroke-linejoin="round"/><path d="M1765.62 399.44V428.631" stroke="#003B2F" stroke-width="3" stroke-linecap="round" stroke-linejoin="round"/><path d="M276.833 161.108H314.416" stroke="#003B2F" stroke-width="3" stroke-linecap="round" stroke-linejoin="round"/><path d="M186.605 109.874H458.096" stroke="#03FC9D" stroke-width="3" stroke-linecap="round" stroke-linejoin="round"/><path d="M362.767 160.883H514.555" stroke="#003B2F" stroke-width="3" stroke-linecap="round" stroke-linejoin="round"/><path d="M1665.61 754.315H1741.45" stroke="#003B2F" stroke-width="3" stroke-linecap="round" stroke-linejoin="round"/><path d="M1607.95 754.315H1627.02" stroke="#003B2F" stroke-width="3" stroke-linecap="round" stroke-linejoin="round"/><path d="M1676.61 699.681H1873.27" stroke="#03FC9D" stroke-width="3" stroke-linecap="round" stroke-linejoin="round"/><path d="M1298.27 208.931C1308.99 208.931 1317.68 200.241 1317.68 189.523C1317.68 178.804 1308.99 170.114 1298.27 170.114C1287.55 170.114 1278.86 178.804 1278.86 189.523C1278.86 200.241 1287.55 208.931 1298.27 208.931Z" stroke="#003B2F" stroke-width="3" stroke-linecap="round" stroke-linejoin="round"/></svg>