<svg width="1676" height="858" viewBox="0 0 1676 858" fill="none" xmlns="http://www.w3.org/2000/svg"><path fill-rule="evenodd" clip-rule="evenodd" d="M1065.26 261.617C1065.26 313.921 1107.66 356.191 1159.83 356.191C1212.01 356.191 1254.41 313.796 1254.41 261.617C1254.41 209.439 1212.01 167.043 1159.83 167.043C1107.66 167.043 1065.26 209.439 1065.26 261.617Z" fill="#003B2F"/><path fill-rule="evenodd" clip-rule="evenodd" d="M1118.19 239.417L1120.57 232.142C1121.08 230.637 1122.2 229.508 1123.71 229.131L1130.98 226.874C1131.99 226.623 1131.99 225.118 1130.98 224.867L1123.71 222.484C1122.2 221.982 1121.08 220.853 1120.7 219.348L1118.44 212.073C1118.19 211.07 1116.69 211.07 1116.44 212.073L1114.05 219.348C1113.55 220.853 1112.42 221.982 1110.92 222.358L1103.64 224.616C1102.64 224.867 1102.64 226.372 1103.64 226.623L1110.92 229.006C1112.42 229.508 1113.55 230.637 1113.93 232.142L1116.18 239.417C1116.44 240.42 1117.94 240.42 1118.19 239.417Z" fill="white"/><path fill-rule="evenodd" clip-rule="evenodd" d="M1232.71 235.151C1229.7 231.765 1225.06 229.883 1220.54 229.131C1216.03 228.378 1211.14 228.504 1206.62 229.256C1197.46 230.761 1189.19 234.524 1181.91 239.291C1178.15 241.548 1174.89 244.182 1171.63 246.942C1169.99 248.321 1168.61 249.701 1167.11 251.206L1162.97 255.345C1158.46 260.112 1154.07 264.376 1149.68 267.888C1145.41 271.4 1141.27 274.16 1137.38 276.041C1133.37 277.923 1129.1 279.052 1123.59 279.177C1118.07 279.428 1111.54 278.425 1104.65 276.794C1097.62 275.163 1090.35 272.78 1082.07 270.899C1084.95 278.801 1089.22 285.825 1094.74 292.222C1100.38 298.493 1107.28 304.263 1116.31 308.026C1125.22 311.914 1136.25 313.294 1146.66 311.162C1157.08 309.155 1166.23 304.388 1173.63 298.744C1181.03 293.1 1187.05 286.703 1192.07 280.055C1193.45 278.174 1194.2 277.17 1195.21 275.79L1197.97 271.651C1199.85 269.143 1201.73 266.132 1203.61 263.624C1207.37 258.356 1211.14 252.962 1215.4 248.071C1217.53 245.562 1219.92 243.179 1222.55 240.921C1223.93 239.792 1225.31 238.663 1226.94 237.785C1228.57 236.782 1230.33 235.904 1232.46 235.277L1232.71 235.151Z" fill="#03FC9D"/><path fill-rule="evenodd" clip-rule="evenodd" d="M1232.71 235.151C1229.45 226.998 1223.55 220.225 1215.53 215.208C1207.5 210.19 1196.46 207.682 1185.55 209.814C1180.15 210.818 1174.89 212.824 1170.25 215.584C1165.6 218.218 1161.59 221.479 1157.95 224.991C1156.2 226.747 1154.57 228.503 1152.94 230.385L1148.8 235.653L1142.4 244.182C1134.25 255.094 1125.47 268.013 1111.04 271.776C1096.87 275.539 1090.72 272.153 1082.07 270.898C1083.7 275.038 1085.58 278.926 1088.21 282.438C1090.85 285.95 1093.86 289.336 1097.75 292.221C1099.63 293.601 1101.76 294.981 1104.02 296.11C1106.28 297.239 1108.66 298.242 1111.29 298.995C1116.44 300.374 1122.33 300.876 1127.98 300.123C1133.62 299.371 1139.01 297.615 1143.65 295.232C1148.42 292.848 1152.56 289.964 1156.2 286.953C1163.47 280.807 1169.24 274.16 1174.01 267.386C1176.39 264 1178.65 260.488 1180.66 257.101L1183.04 252.962C1183.79 251.708 1184.54 250.579 1185.3 249.45C1188.31 244.934 1191.32 241.297 1194.96 238.538C1198.47 235.778 1203.48 233.646 1210.13 233.144C1216.78 232.642 1224.31 233.52 1232.71 235.402V235.151Z" fill="white"/><path fill-rule="evenodd" clip-rule="evenodd" d="M1197.09 302.507C1197.09 308.402 1201.85 313.293 1207.87 313.293C1213.89 313.293 1218.66 308.527 1218.66 302.507C1218.66 296.486 1213.89 291.72 1207.87 291.72C1201.85 291.72 1197.09 296.486 1197.09 302.507Z" fill="#03FC9D"/><path fill-rule="evenodd" clip-rule="evenodd" d="M205.642 408.553C205.642 436.873 228.597 459.761 256.85 459.761C285.103 459.761 308.058 436.805 308.058 408.553C308.058 380.3 285.103 357.344 256.85 357.344C228.597 357.344 205.642 380.3 205.642 408.553Z" fill="#003B2F"/><path fill-rule="evenodd" clip-rule="evenodd" d="M234.302 396.532L235.592 392.593C235.864 391.778 236.475 391.166 237.29 390.963L241.229 389.74C241.773 389.604 241.773 388.789 241.229 388.654L237.29 387.363C236.475 387.092 235.864 386.48 235.66 385.665L234.438 381.726C234.302 381.183 233.487 381.183 233.351 381.726L232.061 385.665C231.789 386.48 231.178 387.092 230.363 387.295L226.424 388.518C225.88 388.654 225.88 389.469 226.424 389.604L230.363 390.895C231.178 391.166 231.789 391.778 231.993 392.593L233.215 396.532C233.351 397.075 234.166 397.075 234.302 396.532Z" fill="white"/><path fill-rule="evenodd" clip-rule="evenodd" d="M296.309 394.222C294.679 392.389 292.166 391.37 289.721 390.962C287.276 390.555 284.628 390.623 282.183 391.03C277.225 391.845 272.743 393.883 268.803 396.464C266.766 397.686 265 399.112 263.234 400.606C262.351 401.353 261.604 402.1 260.789 402.915L258.548 405.157C256.103 407.737 253.726 410.047 251.349 411.948C249.04 413.85 246.799 415.344 244.694 416.363C242.52 417.381 240.211 417.993 237.223 418.061C234.235 418.196 230.703 417.653 226.968 416.77C223.164 415.887 219.225 414.597 214.743 413.578C216.305 417.857 218.614 421.66 221.602 425.124C224.659 428.519 228.394 431.644 233.284 433.681C238.106 435.786 244.082 436.533 249.719 435.379C255.356 434.292 260.314 431.711 264.321 428.655C268.328 425.599 271.588 422.135 274.305 418.536C275.052 417.517 275.459 416.974 276.002 416.227L277.497 413.986C278.515 412.627 279.534 410.997 280.553 409.639C282.59 406.787 284.628 403.866 286.937 401.218C288.091 399.859 289.382 398.569 290.808 397.346C291.555 396.735 292.302 396.124 293.185 395.649C294.068 395.105 295.019 394.63 296.173 394.29L296.309 394.222Z" fill="#03FC9D"/><path fill-rule="evenodd" clip-rule="evenodd" d="M296.309 394.222C294.543 389.808 291.351 386.14 287.005 383.424C282.658 380.707 276.682 379.349 270.773 380.503C267.853 381.047 265 382.133 262.487 383.627C259.974 385.054 257.801 386.819 255.832 388.721C254.881 389.672 253.998 390.623 253.115 391.641L250.874 394.494L247.41 399.112C242.996 405.021 238.242 412.016 230.431 414.053C222.757 416.091 219.429 414.257 214.743 413.578C215.626 415.819 216.645 417.924 218.071 419.826C219.497 421.728 221.127 423.561 223.232 425.123C224.251 425.871 225.406 426.618 226.628 427.229C227.851 427.84 229.141 428.383 230.567 428.791C233.352 429.538 236.544 429.81 239.6 429.402C242.656 428.995 245.576 428.044 248.089 426.753C250.67 425.463 252.911 423.901 254.881 422.271C258.82 418.943 261.944 415.344 264.525 411.676C265.815 409.843 267.038 407.941 268.124 406.107L269.415 403.866C269.822 403.187 270.23 402.576 270.637 401.964C272.267 399.519 273.897 397.55 275.867 396.056C277.768 394.562 280.485 393.407 284.084 393.135C287.684 392.864 291.759 393.339 296.309 394.358V394.222Z" fill="white"/><path fill-rule="evenodd" clip-rule="evenodd" d="M277.021 430.693C277.021 433.885 279.601 436.533 282.861 436.533C286.121 436.533 288.702 433.952 288.702 430.693C288.702 427.433 286.121 424.852 282.861 424.852C279.601 424.852 277.021 427.433 277.021 430.693Z" fill="#03FC9D"/><path fill-rule="evenodd" clip-rule="evenodd" d="M1350.68 558.943C1350.68 581.436 1368.91 599.614 1391.35 599.614C1413.79 599.614 1432.02 581.382 1432.02 558.943C1432.02 536.505 1413.79 518.273 1391.35 518.273C1368.91 518.273 1350.68 536.505 1350.68 558.943Z" fill="#003B2F"/><path fill-rule="evenodd" clip-rule="evenodd" d="M1373.44 549.396L1374.47 546.268C1374.68 545.62 1375.17 545.135 1375.82 544.973L1378.94 544.002C1379.38 543.894 1379.38 543.247 1378.94 543.139L1375.82 542.114C1375.17 541.899 1374.68 541.413 1374.52 540.766L1373.55 537.637C1373.44 537.206 1372.79 537.206 1372.69 537.637L1371.66 540.766C1371.45 541.413 1370.96 541.899 1370.31 542.06L1367.19 543.031C1366.75 543.139 1366.75 543.787 1367.19 543.894L1370.31 544.919C1370.96 545.135 1371.45 545.62 1371.61 546.268L1372.58 549.396C1372.69 549.828 1373.33 549.828 1373.44 549.396Z" fill="white"/><path fill-rule="evenodd" clip-rule="evenodd" d="M1422.69 547.562C1421.39 546.106 1419.4 545.297 1417.46 544.973C1415.52 544.649 1413.41 544.703 1411.47 545.027C1407.53 545.674 1403.97 547.292 1400.84 549.342C1399.23 550.313 1397.82 551.446 1396.42 552.632C1395.72 553.226 1395.13 553.819 1394.48 554.466L1392.7 556.246C1390.76 558.296 1388.87 560.13 1386.98 561.64C1385.15 563.151 1383.37 564.337 1381.7 565.146C1379.97 565.955 1378.14 566.441 1375.76 566.495C1373.39 566.603 1370.58 566.171 1367.62 565.47C1364.6 564.769 1361.47 563.744 1357.91 562.935C1359.15 566.333 1360.98 569.354 1363.36 572.104C1365.78 574.801 1368.75 577.283 1372.63 578.901C1376.46 580.573 1381.21 581.166 1385.69 580.249C1390.16 579.386 1394.1 577.337 1397.28 574.909C1400.47 572.482 1403.06 569.731 1405.21 566.872C1405.81 566.063 1406.13 565.632 1406.56 565.038L1407.75 563.258C1408.56 562.18 1409.37 560.885 1410.18 559.806C1411.79 557.541 1413.41 555.221 1415.25 553.118C1416.16 552.039 1417.19 551.014 1418.32 550.043C1418.91 549.558 1419.51 549.072 1420.21 548.695C1420.91 548.263 1421.66 547.886 1422.58 547.616L1422.69 547.562Z" fill="#03FC9D"/><path fill-rule="evenodd" clip-rule="evenodd" d="M1422.69 547.562C1421.29 544.056 1418.75 541.143 1415.3 538.985C1411.85 536.828 1407.1 535.749 1402.41 536.666C1400.09 537.098 1397.82 537.961 1395.83 539.147C1393.83 540.28 1392.11 541.682 1390.54 543.193C1389.79 543.948 1389.09 544.703 1388.38 545.512L1386.6 547.778L1383.85 551.445C1380.35 556.138 1376.57 561.694 1370.37 563.312C1364.27 564.93 1361.63 563.474 1357.91 562.934C1358.61 564.714 1359.42 566.387 1360.55 567.897C1361.68 569.407 1362.98 570.864 1364.65 572.104C1365.46 572.697 1366.38 573.291 1367.35 573.776C1368.32 574.262 1369.34 574.693 1370.48 575.017C1372.69 575.61 1375.22 575.826 1377.65 575.502C1380.08 575.179 1382.4 574.424 1384.39 573.399C1386.44 572.374 1388.22 571.133 1389.79 569.839C1392.91 567.196 1395.4 564.337 1397.45 561.424C1398.47 559.968 1399.44 558.458 1400.3 557.001L1401.33 555.221C1401.65 554.682 1401.98 554.196 1402.3 553.711C1403.59 551.769 1404.89 550.205 1406.45 549.018C1407.96 547.832 1410.12 546.915 1412.98 546.699C1415.84 546.483 1419.08 546.861 1422.69 547.67V547.562Z" fill="white"/><path fill-rule="evenodd" clip-rule="evenodd" d="M1407.37 576.527C1407.37 579.062 1409.42 581.166 1412.01 581.166C1414.6 581.166 1416.65 579.116 1416.65 576.527C1416.65 573.938 1414.6 571.888 1412.01 571.888C1409.42 571.888 1407.37 573.938 1407.37 576.527Z" fill="#03FC9D"/><path d="M543.221 438.598C536.819 465.285 531.942 492.552 527.768 520.087C545.159 512.48 561.532 502.608 576.404 490.688C583.346 485.144 589.953 479.07 596.75 473.202C601.41 469.07 606.097 465.218 611.092 461.617C615.35 458.54 619.681 455.626 624.391 453.124C631.294 449.444 638.561 446.573 646.073 444.467C672.55 436.965 699.575 434.368 727.517 436.416C731.435 436.699 735.208 436.659 739.099 436.664C739.469 421.237 732.483 406.096 719.553 396.342C719.553 396.342 719.202 396.208 719.085 396.164C705.776 385.997 689.075 381.921 672.56 384.761C644.173 389.523 620.051 392.956 593.16 398.019C588.399 398.891 583.594 399.88 578.554 400.78C561.698 404.161 548.451 417.102 544.375 433.803C543.912 435.372 543.522 437.102 543.131 438.833L543.221 438.598Z" fill="white"/><path d="M586.598 592.945C587.424 592.186 588.222 591.147 589.048 590.388C589.505 589.891 590.08 589.439 590.465 588.78C591.085 588.211 591.587 587.597 592.016 586.821C592.016 586.821 592.68 586.134 592.976 585.71C593.155 585.241 593.64 585.023 593.936 584.599C594.114 584.13 594.555 584.029 594.851 583.605C594.985 583.253 595.353 582.991 595.604 582.684C595.783 582.215 596.151 581.953 596.447 581.528C596.625 581.06 596.994 580.797 597.245 580.49C597.468 579.904 597.998 579.569 598.294 579.145C598.383 578.91 598.428 578.793 598.517 578.559C599.019 577.944 599.404 577.286 599.951 576.554C600.453 575.94 600.838 575.282 601.223 574.623C601.401 574.154 601.814 573.774 602.11 573.35C602.333 572.764 602.791 572.267 603.176 571.608C603.946 570.291 604.716 568.974 605.324 567.729C605.413 567.494 605.502 567.26 605.591 567.025C606.406 565.591 607.103 564.111 607.639 562.705C607.951 561.884 608.264 561.064 608.576 560.243L610.629 554.851C610.896 554.147 611.253 553.21 611.521 552.506C612.057 551.1 618.232 537.345 618.65 535.894C616.251 537.262 604.442 544.309 602.087 545.56C602.087 545.56 601.718 545.822 601.439 545.85C600.423 546.403 599.291 546.911 598.437 547.391C597.421 547.944 596.288 548.452 595.317 548.888C593.168 549.949 591.064 550.893 588.843 551.792C586.901 552.663 584.842 553.49 582.782 554.316C581.532 554.78 580.12 555.316 578.987 555.824C578.016 556.26 576.81 556.606 575.795 557.159C574.545 557.622 573.133 558.159 571.927 558.505C571.162 558.751 570.515 559.041 569.75 559.287C566.971 560.242 564.192 561.197 561.457 562.035C560.854 562.208 560.251 562.381 559.649 562.555C558.722 562.873 557.84 563.074 556.914 563.393C556.914 563.393 556.68 563.303 556.59 563.538C555.664 563.856 554.827 563.94 553.9 564.258C553.18 564.387 552.695 564.605 551.975 564.733C551.048 565.052 550.211 565.136 549.284 565.454C549.05 565.365 548.844 565.554 548.564 565.582C547.521 565.856 546.522 566.013 545.478 566.286C545.244 566.197 545.037 566.387 544.875 566.46C543.832 566.733 542.715 566.845 541.672 567.119C540.628 567.393 539.394 567.46 538.234 567.689L537.999 567.6C536.955 567.874 535.722 567.941 534.723 568.098C533.724 568.254 532.725 568.411 531.608 568.522C535.406 575.471 540.749 581.531 547.582 586.145C549.513 587.417 551.445 588.689 553.259 589.917C560.912 594.843 569.012 598.598 577.558 601.18C580.064 599.181 582.569 597.182 584.885 594.977C585.622 594.452 586.213 593.604 586.833 593.034L586.598 592.945Z" fill="white"/><path d="M573.273 601.159C566.826 598.705 560.529 595.503 554.617 591.642L549.057 587.915C541.376 582.709 535.882 577.397 531.649 569.477M527.262 521.773C531.592 492.419 537.272 463.042 544.242 434.156C548.53 416.193 563.016 402.113 581.311 398.475C603.575 393.932 623.277 390.829 644.096 387.615" stroke="#003B2F" stroke-width="3" stroke-linecap="round" stroke-linejoin="round"/><path d="M566.472 409.602C576.861 416.509 585.905 425.186 592.991 435.131" stroke="#003B2F" stroke-width="3" stroke-linecap="round" stroke-linejoin="round"/><path d="M541.589 566.281C567.614 561.023 590.127 550.535 607.601 540.947C608.823 540.205 610.336 540.109 611.625 540.6C612.094 540.779 612.563 540.957 612.825 541.326C614.361 542.581 614.953 544.551 614.518 546.399C607.458 572.701 590.166 595.913 566.783 610.096C548.612 621.163 525.769 627.23 502.516 626.968C495.014 626.93 487.748 629.801 482.408 635.015C471.961 645.534 462.258 657.274 453.989 669.829C444.331 684.271 441.175 696.088 444.269 705.587C447.436 715.247 458.205 722.568 469.904 722.861C480.252 723.176 491.755 718.697 502.117 710.161C510.019 703.505 516.564 695.126 522.267 687.902C523.361 686.439 524.571 685.021 525.62 683.676C526.876 682.141 528.846 681.549 530.811 682.028C544.18 686.044 559.63 687.765 576.648 687.13C578.557 687.051 580.298 688.117 581.141 689.78C581.985 691.443 581.74 693.497 580.646 694.96C574.988 702.066 575.342 713.475 581.166 720.389C587.033 727.186 598.342 729.209 606.351 724.742C612.489 721.308 616.367 715 620.658 708.312C625.038 701.39 629.624 694.278 636.896 690.336C638.397 689.565 640.144 689.559 641.696 690.418C651.532 696.31 664.515 698.165 678.122 695.561C689.128 693.443 700.324 688.713 714.253 680.326C779.012 641.362 823.234 569.618 826.85 497.715C826.889 495.851 828.144 494.316 829.763 493.59C881.197 471.296 924.779 433.666 952.447 387.427C953.261 385.993 954.807 385.105 956.554 385.099C962.75 385.041 968.582 381.356 970.5 376.316C971.304 374.206 973.424 372.865 975.713 373.2C977.488 373.473 979.101 373.818 980.714 374.164C982.21 374.465 983.706 374.766 984.967 374.978C988.048 375.346 990.354 375.284 992.089 374.602C993.942 373.966 995.226 372.709 995.555 371.493C995.822 370.789 995.504 369.863 995.359 369.539C989.696 356.915 971.769 360.291 974.314 359.246C983.054 355.326 995.038 360.157 997.416 360.257L997.651 360.346C1000.98 360.406 1004.04 360.495 1006.54 359.568C1008.83 358.83 1010.53 357.195 1010.71 355.654C1010.92 354.393 1010.27 352.936 1009.01 351.653C1007.17 350.146 1005.15 349.108 1002.99 348.422C1001.12 347.708 993.835 345.338 989.978 344.541C992.746 342.91 996.044 340.945 997.897 340.308C1002.09 338.817 1007.44 338.168 1010.27 337.771C1010.99 337.642 1011.71 337.514 1012.43 337.385C1013.43 337.229 1016.75 336.614 1016.98 334.956C1017.04 334.443 1016.94 334.002 1016.72 333.516C1015.83 331.97 1014.14 330.788 1011.16 329.789C1005.09 327.748 999.161 328.173 992.341 329.872C989.974 330.447 981.017 333.882 977.378 336.389C975.832 334.458 985.809 323.762 987.857 322.26C991.289 319.943 993.175 318.513 994.855 317.274C996.373 316.107 997.684 315.13 999.643 313.862C999.85 313.672 1005.65 309.708 1003.73 306.293C1003.4 305.763 1002.9 305.305 1002.24 304.92C999.724 303.425 996.258 303.716 992.982 304.213C988.266 304.968 984.164 306.225 980.603 307.822C966.171 314.004 953.218 323.703 940.679 333.021C933.547 338.359 926.253 343.769 919.121 349.107C905.845 358.95 892.686 368.838 879.617 378.492C836.504 421.938 782.91 444.618 732.692 440.801C699.409 438.331 658.055 435.204 625.479 452.732C613.085 459.556 602.499 468.679 591.249 478.488C586.383 482.81 581.355 487.204 576.182 491.274C555.93 507.454 533.451 519.968 509.553 528.452C507.862 529.016 506.17 529.58 504.435 530.261C491.788 534.573 479.861 538.757 472.909 549.263C471.046 552.043 470.237 555.225 470.751 558.105C471.808 564.144 476.916 567.296 488.168 568.761" stroke="#003B2F" stroke-width="3" stroke-linecap="round" stroke-linejoin="round"/><path d="M557.837 540.525C558.726 544.89 557.733 549.612 555.703 553.536C553.627 557.578 550.469 560.939 546.83 563.446C545.034 564.64 543.119 565.791 541.06 566.617C539.001 567.444 536.986 568.153 535.016 568.745C531.767 569.522 528.491 570.02 525.304 570.283L524.774 570.618C523.413 572.784 521.7 574.816 519.797 576.641C517.274 579.036 514.373 581.019 511.208 582.632C509.59 583.358 508.088 584.129 506.236 584.766C504.31 585.241 502.267 585.671 499.862 585.292C497.573 584.958 495.229 584.065 493.196 582.352C492.203 581.437 491.298 580.287 490.717 578.993C490.137 577.698 489.835 576.375 489.768 575.142C489.633 572.675 490.157 570.593 490.709 568.79C491.022 567.969 491.334 567.148 491.647 566.328C491.959 565.507 492.461 564.893 492.773 564.073C494.403 561.203 495.987 558.451 497.923 555.833C501.751 550.714 506.472 546.069 512.008 542.808" stroke="#003B2F" stroke-width="3" stroke-linecap="round" stroke-linejoin="round"/><path d="M934.809 380.176C938.292 382.308 941.954 383.97 945.577 384.678" stroke="#003B2F" stroke-width="3" stroke-linecap="round" stroke-linejoin="round"/><path d="M826.852 497.716C827.202 492.213 827.598 489.411 827.346 484.081C827.255 478.678 826.534 473.169 825.209 467.833" stroke="#003B2F" stroke-width="3" stroke-linecap="round" stroke-linejoin="round"/><path d="M607.601 540.948C612.228 537.609 623.372 528.43 627.881 525.047C632.39 521.663 636.944 518.163 641.542 514.545L655.13 503.881" stroke="#003B2F" stroke-width="3" stroke-linecap="round" stroke-linejoin="round"/><path d="M499.329 663.2C501.489 665.633 503.784 667.714 506.196 669.84C508.652 671.849 511.242 673.506 513.877 675.046C516.512 676.586 519.353 677.936 522.167 679.007" stroke="#003B2F" stroke-width="3" stroke-linecap="round" stroke-linejoin="round"/><path d="M574.577 687.281C589.429 685.285 602.176 681.414 616.196 675.611C630.215 669.808 643.464 662.505 655.825 653.655C656.93 652.868 658.208 652.683 659.469 652.895L659.704 652.984C664.236 653.77 668.651 654.511 673.273 655.063C677.939 655.497 682.371 655.842 686.937 655.835C691.62 655.873 696.113 655.705 700.813 655.346C705.467 655.105 710.066 654.306 714.855 653.713" stroke="#003B2F" stroke-width="3" stroke-linecap="round" stroke-linejoin="round"/><path d="M669.985 696.49C662.164 692.708 654.811 683.467 652.594 677.657C649.913 670.597 650.859 660.354 654.983 654.811" stroke="#003B2F" stroke-width="3" stroke-linecap="round" stroke-linejoin="round"/><path d="M633.239 684.783C634.584 685.832 638.9 688.951 640.524 689.972" stroke="#003B2F" stroke-width="3" stroke-linecap="round" stroke-linejoin="round"/><path d="M818.562 582.602C816.391 582.313 814.147 581.861 812.02 581.454C816.12 571.741 820.22 562.028 823.572 552.165C823.69 552.21 823.924 552.299 824.203 552.271C832.124 553.676 837.355 561.438 835.772 569.828C834.262 578.379 826.6 584.052 818.517 582.72L818.562 582.602Z" fill="white"/><path d="M808.162 580.657L809.914 576.761C812.854 570.096 816.123 562.214 818.878 554.271L820.217 550.754L823.147 551.87L823.499 552.003C827.68 552.655 831.236 554.949 833.67 558.425C836.104 561.902 837.082 566.032 836.313 570.168C835.661 574.349 833.323 578.022 829.891 580.339C826.459 582.657 822.329 583.634 818.193 582.865C816.301 582.547 814.408 582.23 812.561 581.795L808.352 580.864L808.162 580.657Z" stroke="#003B2F" stroke-width="3" stroke-linecap="round" stroke-linejoin="round"/><path d="M598.946 681.796C585.583 676.709 575.194 669.801 566.383 658.395C556.406 645.47 549.94 634.956 549.551 618.703" stroke="#003B2F" stroke-width="3" stroke-linecap="round" stroke-linejoin="round"/><path d="M579.058 489.015C579.267 500.099 584.175 508.007 591.723 516.383C599.082 524.553 609.537 529.875 620.366 531.045" stroke="#003B2F" stroke-width="3" stroke-linecap="round" stroke-linejoin="round"/><path d="M865.588 386.439C886.545 402.604 899.521 420.696 902.62 447.107" stroke="#003B2F" stroke-width="3" stroke-linecap="round" stroke-linejoin="round"/><path d="M793.255 614.172L695.648 601.575C684.116 600.138 675.92 589.234 677.446 577.468L684.343 524.798C685.686 514.573 694.034 506.745 703.947 506.09C705.342 505.95 706.81 505.972 708.189 506.228L805.796 518.825C817.328 520.262 825.524 531.166 823.998 542.932L818.549 584.745L817.056 595.719C815.53 607.485 804.815 615.888 793.211 614.289L793.255 614.172Z" fill="white"/><path d="M689.882 600.856C681.09 597.51 675.278 588.452 676.604 578.623L683.791 523.782C685.301 512.413 695.764 504.317 707.179 505.709L805.886 518.59C817.256 520.1 825.351 530.563 823.959 541.978L816.772 596.818C816.025 602.305 813.197 607.268 808.805 610.696C804.413 614.124 798.871 615.638 793.384 614.891L694.677 602.011C693.019 601.782 691.406 601.437 689.882 600.856Z" stroke="#003B2F" stroke-width="3" stroke-linecap="round" stroke-linejoin="round"/><path d="M731.929 509.092C722.692 509.736 715.84 517.864 714.575 527.18L706.925 583.589C706.195 588.68 707.564 593.898 710.685 598.039C713.806 602.18 720.014 605.616 724.987 606.302" stroke="#003B2F" stroke-width="3" stroke-linecap="round" stroke-linejoin="round"/><path d="M744.098 559.624C743.825 561.399 739.202 576.013 739.202 576.013C739.202 576.013 734.463 575.417 728.741 574.581C721.48 573.561 716.705 565.302 717.925 556.103C719.146 546.904 726.02 540.127 733.282 541.146C738.138 541.787 744.887 542.745 744.887 542.745C744.887 542.745 744.583 556.588 744.098 559.624Z" fill="#003B2F" stroke="#003B2F" stroke-width="3" stroke-linecap="round" stroke-linejoin="round"/><path d="M739.258 576.048C746.465 577.028 753.329 570.31 754.589 561.043C755.848 551.777 751.026 543.47 743.819 542.491C736.612 541.511 729.748 548.229 728.488 557.496C727.229 566.762 732.05 575.068 739.258 576.048Z" fill="#03FC9D" stroke="#003B2F" stroke-width="3" stroke-linecap="round" stroke-linejoin="round"/><path d="M793.635 517.283L788.526 555.735C787.685 562.528 783.31 568.379 777.115 571.255C772.539 573.405 769.303 577.675 768.455 582.721L764.929 609.966" stroke="#003B2F" stroke-width="3" stroke-linecap="round" stroke-linejoin="round"/><path d="M686.856 568.971C660.211 571.98 633.831 565.83 609.097 556.415C606.401 555.388 603.632 554.2 600.981 553.056C598.915 552.136 597.754 549.546 596.514 547.867C600.019 545.711 602.915 544.801 606.303 542.601C611.532 539.089 617.726 533.394 622.62 529.352C642.916 536.676 663.932 541.052 685.716 538.474C689.668 537.965 693.301 539.348 695.886 542.077C698.136 544.275 699.633 547.395 699.879 550.978C700.356 558.541 694.391 568.216 686.974 569.015L686.856 568.971Z" fill="white"/><path d="M612.843 558.914C610.381 557.977 607.802 556.995 605.195 555.735C602.895 554.725 600.936 553.174 599.272 551.198L596.514 547.867L600.298 545.684C607.982 541.362 615.494 536.437 622.715 530.865L624.278 529.581L626.153 530.295C644.457 536.86 664.16 539.394 683.165 537.771C687.351 537.352 691.381 538.751 694.641 541.469C697.784 544.142 699.806 547.998 700.108 552.139C700.483 556.443 699.156 560.635 696.439 563.895C693.766 567.038 689.954 568.942 685.813 569.245C661.109 571.383 635.891 567.822 612.915 559.076L612.843 558.914Z" stroke="#003B2F" stroke-width="3" stroke-linecap="round" stroke-linejoin="round"/><path d="M858.807 409.895C752.96 551.859 550.461 411.828 637.263 264.896C742.288 116.982 951.252 261.889 858.807 409.895Z" fill="white"/><path d="M858.807 409.895C752.96 551.859 550.461 411.828 637.263 264.896C742.288 116.982 951.252 261.889 858.807 409.895Z" fill="white"/><path d="M861.848 412.126C752.558 558.55 545.582 415.473 635.079 263.929C743.357 111.349 957.221 259.598 861.848 412.126Z" fill="white"/><path d="M702.541 463.95C692.694 460.202 683.132 455.354 674.178 449.261C645.674 430.357 625.289 402.466 616.697 370.742C607.183 335.447 613.079 298.1 633.851 262.925L633.985 262.574C658.881 227.493 691.461 206.074 728.175 200.59C760.775 195.687 794.545 203.577 823.591 222.821C852.592 242.181 873.194 270.559 881.535 302.589C890.899 338.632 884.193 376.343 861.982 411.774L861.893 412.009C836.739 445.649 804.355 466.202 768.171 471.352C746.163 474.516 723.731 471.748 702.513 463.671L702.541 463.95Z" stroke="#003B2F" stroke-width="3" stroke-linecap="round" stroke-linejoin="round"/><path d="M839.896 436.652C702.346 509.239 596.185 347.769 701.973 262.016C826.275 173.111 953.761 326.863 839.896 436.652Z" fill="#03FC9D" stroke="#003B2F" stroke-width="3" stroke-linecap="round" stroke-linejoin="round"/><path d="M719.096 462.065C713.47 459.923 708.021 457.312 702.707 454.35C676.721 439.761 656.533 416.641 646.011 389.283C634.416 359.101 635.474 326.354 649.108 294.77C664.008 262.327 693.422 236.884 729.934 224.881C766.49 212.76 805.511 215.67 837.062 232.915L837.648 233.138C895.043 278.742 896.61 362.414 862.011 412.054C840.869 441.853 813.82 461.082 783.458 467.508C762.266 472.057 739.962 470.008 719.096 462.065Z" stroke="#003B2F" stroke-width="3" stroke-linecap="round" stroke-linejoin="round"/><path d="M593.297 356.064C599.156 420.703 665.984 420.374 666.734 358.117C663.24 290.085 591.685 290.493 593.297 356.064Z" fill="white"/><path d="M621.144 403.841C607.781 398.753 595.509 383.748 593.337 357.018L593.426 356.784C592.843 323.412 610.583 307.484 627.294 306.598C645.869 305.75 665.426 323.126 666.986 357.81L666.896 358.044C666.43 389.943 649.443 404.95 632.939 405.646C629.004 405.759 624.94 405.151 621.072 403.679L621.144 403.841Z" stroke="#003B2F" stroke-width="3" stroke-linecap="round" stroke-linejoin="round"/><path d="M595.099 359.434C599.649 409.884 646.668 410.47 647.276 361.983C644.723 308.401 593.535 307.839 595.099 359.434Z" fill="white"/><path d="M614.835 399.963C603.699 395.724 593.325 382.783 591.238 359.709L591.327 359.475C590.411 331.21 604.629 317.834 618.27 317.255C633.541 316.626 649.659 331.754 651.184 361.593L651.095 361.827C650.889 388.457 637.424 400.912 624.179 401.507C621.199 401.58 618.045 401.051 614.997 399.891L614.835 399.963Z" fill="#03FC9D" stroke="#003B2F" stroke-width="3" stroke-linecap="round" stroke-linejoin="round"/><path d="M680.338 331.891C686.01 357.537 715.239 351.619 714.061 328.623C710.99 299.673 676.341 306.077 680.338 331.891Z" fill="white"/><path d="M693.366 372.416C696.093 382.177 708.98 379.702 706.89 368.974C704.164 359.213 691.276 361.689 693.366 372.416Z" fill="white"/><path d="M859.313 355.329C882.208 259.226 782.344 239.866 750.439 258.455C814.74 267.23 840.738 308.934 859.313 355.329Z" fill="white"/><path d="M1012.02 457.662L1034.97 470.884" stroke="#003B2F" stroke-width="3" stroke-linecap="round" stroke-linejoin="round"/><path d="M1057.91 457.662L1044.5 465.44" stroke="#003B2F" stroke-width="3" stroke-linecap="round" stroke-linejoin="round"/><path d="M1034.97 470.884V497.716" stroke="#003B2F" stroke-width="3" stroke-linecap="round" stroke-linejoin="round"/><path d="M1067.54 605.011H1131.7" stroke="#003B2F" stroke-width="3" stroke-linecap="round" stroke-linejoin="round"/><path d="M1018.83 605.011H1034.97" stroke="#003B2F" stroke-width="3" stroke-linecap="round" stroke-linejoin="round"/><path d="M1076.87 560.874H1243.11" stroke="#03FC9D" stroke-width="3" stroke-linecap="round" stroke-linejoin="round"/><path d="M1122.22 735.271V759.382" stroke="#003B2F" stroke-width="3" stroke-linecap="round" stroke-linejoin="round"/><path d="M1122.22 777.076V801.186" stroke="#003B2F" stroke-width="3" stroke-linecap="round" stroke-linejoin="round"/><path d="M1089.26 768.229H1113.38" stroke="#003B2F" stroke-width="3" stroke-linecap="round" stroke-linejoin="round"/><path d="M1130.97 768.229H1155.18" stroke="#003B2F" stroke-width="3" stroke-linecap="round" stroke-linejoin="round"/><path d="M1464.52 702.812H1424.37C1437.11 702.812 1447.41 692.507 1447.41 679.771C1447.41 667.035 1437.11 656.73 1424.37 656.73H1308.97C1296.24 656.73 1285.93 667.035 1285.93 679.771H1250.54C1237.81 679.771 1227.5 690.076 1227.5 702.812C1227.5 715.548 1237.81 725.853 1250.54 725.853H1326.08C1326.08 738.589 1336.39 748.894 1349.12 748.894H1464.52C1477.26 748.894 1487.57 738.589 1487.57 725.853C1487.57 713.118 1477.26 702.812 1464.52 702.812Z" fill="#E6E8EA"/><path d="M1378.55 200.99L1543.53 200.99C1561.68 200.99 1576.39 186.278 1576.39 168.13V168.032C1576.39 149.884 1561.68 135.172 1543.53 135.172L1378.55 135.172C1360.4 135.172 1345.69 149.884 1345.69 168.032V168.13C1345.69 186.278 1360.4 200.99 1378.55 200.99Z" fill="#03FC9D"/><path d="M1320.51 240.169L1485.49 240.169C1503.64 240.169 1518.35 225.457 1518.35 207.309V207.212C1518.35 189.064 1503.64 174.352 1485.49 174.352L1320.51 174.352C1302.36 174.352 1287.65 189.064 1287.65 207.212V207.309C1287.65 225.457 1302.36 240.169 1320.51 240.169Z" fill="#03FC9D"/><path d="M1391.51 350.793V373.639" stroke="#003B2F" stroke-width="3" stroke-linecap="round" stroke-linejoin="round"/><path d="M1391.51 390.361V413.305" stroke="#003B2F" stroke-width="3" stroke-linecap="round" stroke-linejoin="round"/><path d="M1360.21 382H1383.15" stroke="#003B2F" stroke-width="3" stroke-linecap="round" stroke-linejoin="round"/><path d="M1399.87 382H1422.72" stroke="#003B2F" stroke-width="3" stroke-linecap="round" stroke-linejoin="round"/><path d="M787.447 56.3817H965.164" stroke="#03FC9D" stroke-width="3" stroke-linecap="round" stroke-linejoin="round"/><path d="M897.791 85.3534H1034.97" stroke="#003B2F" stroke-width="3" stroke-linecap="round" stroke-linejoin="round"/><path d="M394.22 204.402H344.444C360.193 204.402 372.929 193.125 372.929 179.223C372.929 165.32 360.193 154.043 344.444 154.043H201.434C185.684 154.043 172.949 165.32 172.949 179.223H129.005C113.256 179.223 100.52 190.5 100.52 204.402C100.52 218.305 113.256 229.582 129.005 229.582H222.725C222.725 243.485 235.461 254.762 251.21 254.762H394.22C409.97 254.762 422.706 243.485 422.706 229.582C422.706 215.68 409.97 204.402 394.22 204.402Z" fill="#E6E8EA"/><path d="M221.17 186.417H256.85" stroke="#003B2F" stroke-width="3" stroke-linecap="round" stroke-linejoin="round"/><path d="M302.931 131.488H561.341" stroke="#03FC9D" stroke-width="3" stroke-linecap="round" stroke-linejoin="round"/><path d="M302.931 186.222H447.399" stroke="#003B2F" stroke-width="3" stroke-linecap="round" stroke-linejoin="round"/><path d="M173.161 782.322H257.302C266.576 782.322 274.094 774.804 274.094 765.53C274.094 756.256 266.576 748.738 257.302 748.738H173.161C163.887 748.738 156.369 756.256 156.369 765.53C156.369 774.804 163.887 782.322 173.161 782.322Z" fill="#03FC9D"/><path d="M218.869 756.619H356.598C371.798 756.619 384.12 744.311 384.12 729.127C384.12 713.944 371.798 701.636 356.598 701.636H218.869C203.669 701.636 191.347 713.944 191.347 729.127C191.347 744.311 203.669 756.619 218.869 756.619Z" fill="#03FC9D"/><path d="M122.988 561.428H354.37" stroke="#03FC9D" stroke-width="3" stroke-linecap="round" stroke-linejoin="round"/><path d="M95.6686 592.441H225.068" stroke="#003B2F" stroke-width="3" stroke-linecap="round" stroke-linejoin="round"/><path d="M390.72 453.552L405.887 468.719" stroke="#003B2F" stroke-width="3" stroke-linecap="round" stroke-linejoin="round"/><path d="M416.97 479.802L432.136 494.871" stroke="#003B2F" stroke-width="3" stroke-linecap="round" stroke-linejoin="round"/><path d="M390.72 494.871L405.886 479.802" stroke="#003B2F" stroke-width="3" stroke-linecap="round" stroke-linejoin="round"/><path d="M416.97 468.719L432.136 453.552" stroke="#003B2F" stroke-width="3" stroke-linecap="round" stroke-linejoin="round"/><path d="M824.639 747.327C835.27 747.327 843.889 738.708 843.889 728.077C843.889 717.446 835.27 708.828 824.639 708.828C814.008 708.828 805.39 717.446 805.39 728.077C805.39 738.708 814.008 747.327 824.639 747.327Z" stroke="#003B2F" stroke-width="3" stroke-linecap="round" stroke-linejoin="round"/></svg>