<?xml version="1.0" encoding="UTF-8"?><svg id="Layer_1" data-name="Layer 1" xmlns="http://www.w3.org/2000/svg" viewBox="0 0 192 108"><defs><style>.cls-1 {
        fill: #00ff94;
      }

      .cls-2 {
        fill: #003d2e;
      }

      .cls-3 {
        fill: #e3e7e3;
      }

      .cls-4 {
        fill: #fff;
      }

      .cls-5 {
        stroke: #00ff94;
      }

      .cls-5, .cls-6, .cls-7, .cls-8 {
        fill: none;
        stroke-linecap: round;
        stroke-linejoin: round;
        stroke-width: .33px;
      }

      .cls-6 {
        stroke: #003c2e;
      }

      .cls-7 {
        stroke: #003d2e;
      }

      .cls-8 {
        stroke: #163b2f;
      }</style></defs><g><g><path class="cls-1" d="M94.31,52.59s-.06,0-.08-.02l-9.83-5.67c-.05-.03-.08-.08-.08-.14s.03-.12,.08-.14l9.83-5.67s.05-.02,.08-.02,.06,0,.08,.02l9.83,5.67c.05,.03,.08,.08,.08,.14s-.03,.12-.08,.14l-9.83,5.67s-.05,.02-.08,.02Z"/><path class="cls-4" d="M94.31,41.07l9.83,5.67-9.83,5.67-9.83-5.67,9.83-5.67m0-.33c-.06,0-.12,.01-.17,.04l-9.83,5.67c-.1,.06-.17,.17-.17,.29s.06,.23,.17,.29l9.83,5.67c.05,.03,.11,.04,.17,.04s.12-.01,.17-.04l9.83-5.67c.1-.06,.17-.17,.17-.29s-.06-.23-.17-.29l-9.83-5.67c-.05-.03-.11-.04-.17-.04h0Z"/></g><g><path class="cls-1" d="M94.31,63.93s-.06,0-.08-.02c-.05-.03-.08-.08-.08-.14v-11.35c0-.06,.03-.12,.08-.14l9.83-5.67s.05-.02,.08-.02,.06,0,.08,.02c.05,.03,.08,.08,.08,.14v11.35c0,.06-.03,.12-.08,.14l-9.83,5.67s-.05,.02-.08,.02Z"/><path class="cls-4" d="M104.15,46.75v11.35l-9.83,5.67v-11.35l9.83-5.67m0-.33c-.06,0-.12,.01-.17,.04l-9.83,5.67c-.1,.06-.17,.17-.17,.29v11.35c0,.12,.06,.23,.17,.29,.05,.03,.11,.04,.17,.04s.12-.01,.17-.04l9.83-5.67c.1-.06,.17-.17,.17-.29v-11.35c0-.12-.06-.23-.17-.29-.05-.03-.11-.04-.17-.04h0Z"/></g><g><path class="cls-1" d="M94.31,63.93s-.06,0-.08-.02l-9.83-5.67c-.05-.03-.08-.08-.08-.14v-11.35c0-.06,.03-.12,.08-.14,.03-.01,.05-.02,.08-.02s.06,0,.08,.02l9.83,5.67c.05,.03,.08,.08,.08,.14v11.35c0,.06-.03,.12-.08,.14-.03,.01-.05,.02-.08,.02Z"/><path class="cls-4" d="M84.48,46.75l9.83,5.67v11.35l-9.83-5.67v-11.35m0-.33c-.06,0-.12,.01-.17,.04-.1,.06-.17,.17-.17,.29v11.35c0,.12,.06,.23,.17,.29l9.83,5.67c.05,.03,.11,.04,.17,.04s.12-.01,.17-.04c.1-.06,.17-.17,.17-.29v-11.35c0-.12-.06-.23-.17-.29l-9.83-5.67c-.05-.03-.11-.04-.17-.04h0Z"/></g></g><g><g><path class="cls-1" d="M94.31,63.73s-.06,0-.08-.02l-9.83-5.67c-.05-.03-.08-.08-.08-.14s.03-.12,.08-.14l9.83-5.67s.05-.02,.08-.02,.06,0,.08,.02l9.83,5.67c.05,.03,.08,.08,.08,.14s-.03,.12-.08,.14l-9.83,5.67s-.05,.02-.08,.02Z"/><path class="cls-4" d="M94.31,52.21l9.83,5.67-9.83,5.67-9.83-5.67,9.83-5.67m0-.33c-.06,0-.12,.01-.17,.04l-9.83,5.67c-.1,.06-.17,.17-.17,.29s.06,.23,.17,.29l9.83,5.67c.05,.03,.11,.04,.17,.04s.12-.01,.17-.04l9.83-5.67c.1-.06,.17-.17,.17-.29s-.06-.23-.17-.29l-9.83-5.67c-.05-.03-.11-.04-.17-.04h0Z"/></g><g><path class="cls-1" d="M94.31,75.07s-.06,0-.08-.02c-.05-.03-.08-.08-.08-.14v-11.35c0-.06,.03-.12,.08-.14l9.83-5.67s.05-.02,.08-.02,.06,0,.08,.02c.05,.03,.08,.08,.08,.14v11.35c0,.06-.03,.12-.08,.14l-9.83,5.67s-.05,.02-.08,.02Z"/><path class="cls-4" d="M104.15,57.89v11.35l-9.83,5.67v-11.35l9.83-5.67m0-.33c-.06,0-.12,.01-.17,.04l-9.83,5.67c-.1,.06-.17,.17-.17,.29v11.35c0,.12,.06,.23,.17,.29,.05,.03,.11,.04,.17,.04s.12-.01,.17-.04l9.83-5.67c.1-.06,.17-.17,.17-.29v-11.35c0-.12-.06-.23-.17-.29-.05-.03-.11-.04-.17-.04h0Z"/></g><g><path class="cls-1" d="M94.31,75.07s-.06,0-.08-.02l-9.83-5.67c-.05-.03-.08-.08-.08-.14v-11.35c0-.06,.03-.12,.08-.14,.03-.01,.05-.02,.08-.02s.06,0,.08,.02l9.83,5.67c.05,.03,.08,.08,.08,.14v11.35c0,.06-.03,.12-.08,.14-.03,.01-.05,.02-.08,.02Z"/><path class="cls-4" d="M84.48,57.89l9.83,5.67v11.35l-9.83-5.67v-11.35m0-.33c-.06,0-.12,.01-.17,.04-.1,.06-.17,.17-.17,.29v11.35c0,.12,.06,.23,.17,.29l9.83,5.67c.05,.03,.11,.04,.17,.04s.12-.01,.17-.04c.1-.06,.17-.17,.17-.29v-11.35c0-.12-.06-.23-.17-.29l-9.83-5.67c-.05-.03-.11-.04-.17-.04h0Z"/></g></g><g><g><path class="cls-1" d="M104.15,58.26s-.06,0-.08-.02l-9.83-5.67c-.05-.03-.08-.08-.08-.14s.03-.12,.08-.14l9.83-5.67s.05-.02,.08-.02,.06,0,.08,.02l9.83,5.67c.05,.03,.08,.08,.08,.14s-.03,.12-.08,.14l-9.83,5.67s-.05,.02-.08,.02Z"/><path class="cls-4" d="M104.15,46.75l9.83,5.67-9.83,5.67-9.83-5.67,9.83-5.67m0-.33c-.06,0-.12,.01-.17,.04l-9.83,5.67c-.1,.06-.17,.17-.17,.29s.06,.23,.17,.29l9.83,5.67c.05,.03,.11,.04,.17,.04s.12-.01,.17-.04l9.83-5.67c.1-.06,.17-.17,.17-.29s-.06-.23-.17-.29l-9.83-5.67c-.05-.03-.11-.04-.17-.04h0Z"/></g><g><path class="cls-1" d="M104.15,69.61s-.06,0-.08-.02c-.05-.03-.08-.08-.08-.14v-11.35c0-.06,.03-.12,.08-.14l9.83-5.67s.05-.02,.08-.02,.06,0,.08,.02c.05,.03,.08,.08,.08,.14v11.35c0,.06-.03,.12-.08,.14l-9.83,5.67s-.05,.02-.08,.02Z"/><path class="cls-4" d="M113.98,52.42v11.35l-9.83,5.67v-11.35l9.83-5.67m0-.33c-.06,0-.12,.01-.17,.04l-9.83,5.67c-.1,.06-.17,.17-.17,.29v11.35c0,.12,.06,.23,.17,.29,.05,.03,.11,.04,.17,.04s.12-.01,.17-.04l9.83-5.67c.1-.06,.17-.17,.17-.29v-11.35c0-.12-.06-.23-.17-.29-.05-.03-.11-.04-.17-.04h0Z"/></g><g><path class="cls-1" d="M104.15,69.61s-.06,0-.08-.02l-9.83-5.67c-.05-.03-.08-.08-.08-.14v-11.35c0-.06,.03-.12,.08-.14,.03-.01,.05-.02,.08-.02s.06,0,.08,.02l9.83,5.67c.05,.03,.08,.08,.08,.14v11.35c0,.06-.03,.12-.08,.14-.03,.01-.05,.02-.08,.02Z"/><path class="cls-4" d="M94.31,52.42l9.83,5.67v11.35l-9.83-5.67v-11.35m0-.33c-.06,0-.12,.01-.17,.04-.1,.06-.17,.17-.17,.29v11.35c0,.12,.06,.23,.17,.29l9.83,5.67c.05,.03,.11,.04,.17,.04s.12-.01,.17-.04c.1-.06,.17-.17,.17-.29v-11.35c0-.12-.06-.23-.17-.29l-9.83-5.67c-.05-.03-.11-.04-.17-.04h0Z"/></g></g><g><g><path class="cls-1" d="M84.48,58.05s-.06,0-.08-.02l-9.83-5.67c-.05-.03-.08-.08-.08-.14s.03-.12,.08-.14l9.83-5.67s.05-.02,.08-.02,.06,0,.08,.02l9.83,5.67c.05,.03,.08,.08,.08,.14s-.03,.12-.08,.14l-9.83,5.67s-.05,.02-.08,.02Z"/><path class="cls-4" d="M84.48,46.54l9.83,5.67-9.83,5.67-9.83-5.67,9.83-5.67m0-.33c-.06,0-.12,.01-.17,.04l-9.83,5.67c-.1,.06-.17,.17-.17,.29s.06,.23,.17,.29l9.83,5.67c.05,.03,.11,.04,.17,.04s.12-.01,.17-.04l9.83-5.67c.1-.06,.17-.17,.17-.29s-.06-.23-.17-.29l-9.83-5.67c-.05-.03-.11-.04-.17-.04h0Z"/></g><g><path class="cls-1" d="M84.48,69.4s-.06,0-.08-.02c-.05-.03-.08-.08-.08-.14v-11.35c0-.06,.03-.12,.08-.14l9.83-5.67s.05-.02,.08-.02,.06,0,.08,.02c.05,.03,.08,.08,.08,.14v11.35c0,.06-.03,.12-.08,.14l-9.83,5.67s-.05,.02-.08,.02Z"/><path class="cls-4" d="M94.31,52.21v11.35l-9.83,5.67v-11.35l9.83-5.67m0-.33c-.06,0-.12,.01-.17,.04l-9.83,5.67c-.1,.06-.17,.17-.17,.29v11.35c0,.12,.06,.23,.17,.29,.05,.03,.11,.04,.17,.04s.12-.01,.17-.04l9.83-5.67c.1-.06,.17-.17,.17-.29v-11.35c0-.12-.06-.23-.17-.29-.05-.03-.11-.04-.17-.04h0Z"/></g><g><path class="cls-1" d="M84.48,69.4s-.06,0-.08-.02l-9.83-5.67c-.05-.03-.08-.08-.08-.14v-11.35c0-.06,.03-.12,.08-.14,.03-.01,.05-.02,.08-.02s.06,0,.08,.02l9.83,5.67c.05,.03,.08,.08,.08,.14v11.35c0,.06-.03,.12-.08,.14-.03,.01-.05,.02-.08,.02Z"/><path class="cls-4" d="M74.64,52.21l9.83,5.67v11.35l-9.83-5.67v-11.35m0-.33c-.06,0-.12,.01-.17,.04-.1,.06-.17,.17-.17,.29v11.35c0,.12,.06,.23,.17,.29l9.83,5.67c.05,.03,.11,.04,.17,.04s.12-.01,.17-.04c.1-.06,.17-.17,.17-.29v-11.35c0-.12-.06-.23-.17-.29l-9.83-5.67c-.05-.03-.11-.04-.17-.04h0Z"/></g></g><g><g><path class="cls-3" d="M113.98,68.39s-.06,0-.08-.02l-9.83-5.67c-.05-.03-.08-.08-.08-.14s.03-.12,.08-.14l9.83-5.67s.05-.02,.08-.02,.06,0,.08,.02l9.83,5.67c.05,.03,.08,.08,.08,.14s-.03,.12-.08,.14l-9.83,5.67s-.05,.02-.08,.02Z"/><path class="cls-4" d="M113.98,56.88l9.83,5.67-9.83,5.67-9.83-5.67,9.83-5.67m0-.33c-.06,0-.12,.01-.17,.04l-9.83,5.67c-.1,.06-.17,.17-.17,.29s.06,.23,.17,.29l9.83,5.67c.05,.03,.11,.04,.17,.04s.12-.01,.17-.04l9.83-5.67c.1-.06,.17-.17,.17-.29s-.06-.23-.17-.29l-9.83-5.67c-.05-.03-.11-.04-.17-.04h0Z"/></g><g><path class="cls-3" d="M113.98,79.74s-.06,0-.08-.02c-.05-.03-.08-.08-.08-.14v-11.35c0-.06,.03-.12,.08-.14l9.83-5.67s.05-.02,.08-.02,.06,0,.08,.02c.05,.03,.08,.08,.08,.14v11.35c0,.06-.03,.12-.08,.14l-9.83,5.67s-.05,.02-.08,.02Z"/><path class="cls-4" d="M123.81,62.55v11.35l-9.83,5.67v-11.35l9.83-5.67m0-.33c-.06,0-.12,.01-.17,.04l-9.83,5.67c-.1,.06-.17,.17-.17,.29v11.35c0,.12,.06,.23,.17,.29,.05,.03,.11,.04,.17,.04s.12-.01,.17-.04l9.83-5.67c.1-.06,.17-.17,.17-.29v-11.35c0-.12-.06-.23-.17-.29-.05-.03-.11-.04-.17-.04h0Z"/></g><g><path class="cls-3" d="M113.98,79.74s-.06,0-.08-.02l-9.83-5.67c-.05-.03-.08-.08-.08-.14v-11.35c0-.06,.03-.12,.08-.14,.03-.01,.05-.02,.08-.02s.06,0,.08,.02l9.83,5.67c.05,.03,.08,.08,.08,.14v11.35c0,.06-.03,.12-.08,.14-.03,.01-.05,.02-.08,.02Z"/><path class="cls-4" d="M104.15,62.55l9.83,5.67v11.35l-9.83-5.67v-11.35m0-.33c-.06,0-.12,.01-.17,.04-.1,.06-.17,.17-.17,.29v11.35c0,.12,.06,.23,.17,.29l9.83,5.67c.05,.03,.11,.04,.17,.04s.12-.01,.17-.04c.1-.06,.17-.17,.17-.29v-11.35c0-.12-.06-.23-.17-.29l-9.83-5.67c-.05-.03-.11-.04-.17-.04h0Z"/></g></g><g><g><path class="cls-3" d="M74.64,68.6s-.06,0-.08-.02l-9.83-5.67c-.05-.03-.08-.08-.08-.14s.03-.12,.08-.14l9.83-5.67s.05-.02,.08-.02,.06,0,.08,.02l9.83,5.67c.05,.03,.08,.08,.08,.14s-.03,.12-.08,.14l-9.83,5.67s-.05,.02-.08,.02Z"/><path class="cls-4" d="M74.64,57.09l9.83,5.67-9.83,5.67-9.83-5.67,9.83-5.67m0-.33c-.06,0-.12,.01-.17,.04l-9.83,5.67c-.1,.06-.17,.17-.17,.29s.06,.23,.17,.29l9.83,5.67c.05,.03,.11,.04,.17,.04s.12-.01,.17-.04l9.83-5.67c.1-.06,.17-.17,.17-.29s-.06-.23-.17-.29l-9.83-5.67c-.05-.03-.11-.04-.17-.04h0Z"/></g><g><path class="cls-3" d="M74.64,79.95s-.06,0-.08-.02c-.05-.03-.08-.08-.08-.14v-11.35c0-.06,.03-.12,.08-.14l9.83-5.67s.05-.02,.08-.02,.06,0,.08,.02c.05,.03,.08,.08,.08,.14v11.35c0,.06-.03,.12-.08,.14l-9.83,5.67s-.05,.02-.08,.02Z"/><path class="cls-4" d="M84.48,62.76v11.35l-9.83,5.67v-11.35l9.83-5.67m0-.33c-.06,0-.12,.01-.17,.04l-9.83,5.67c-.1,.06-.17,.17-.17,.29v11.35c0,.12,.06,.23,.17,.29,.05,.03,.11,.04,.17,.04s.12-.01,.17-.04l9.83-5.67c.1-.06,.17-.17,.17-.29v-11.35c0-.12-.06-.23-.17-.29-.05-.03-.11-.04-.17-.04h0Z"/></g><g><path class="cls-3" d="M74.64,79.95s-.06,0-.08-.02l-9.83-5.67c-.05-.03-.08-.08-.08-.14v-11.35c0-.06,.03-.12,.08-.14,.03-.01,.05-.02,.08-.02s.06,0,.08,.02l9.83,5.67c.05,.03,.08,.08,.08,.14v11.35c0,.06-.03,.12-.08,.14-.03,.01-.05,.02-.08,.02Z"/><path class="cls-4" d="M64.81,62.76l9.83,5.67v11.35l-9.83-5.67v-11.35m0-.33c-.06,0-.12,.01-.17,.04-.1,.06-.17,.17-.17,.29v11.35c0,.12,.06,.23,.17,.29l9.83,5.67c.05,.03,.11,.04,.17,.04s.12-.01,.17-.04c.1-.06,.17-.17,.17-.29v-11.35c0-.12-.06-.23-.17-.29l-9.83-5.67c-.05-.03-.11-.04-.17-.04h0Z"/></g></g><g><g><path class="cls-3" d="M84.48,74.28s-.06,0-.08-.02l-9.83-5.67c-.05-.03-.08-.08-.08-.14s.03-.12,.08-.14l9.83-5.67s.05-.02,.08-.02,.06,0,.08,.02l9.83,5.67c.05,.03,.08,.08,.08,.14s-.03,.12-.08,.14l-9.83,5.67s-.05,.02-.08,.02Z"/><path class="cls-4" d="M84.48,62.76l9.83,5.67-9.83,5.67-9.83-5.67,9.83-5.67m0-.33c-.06,0-.12,.01-.17,.04l-9.83,5.67c-.1,.06-.17,.17-.17,.29s.06,.23,.17,.29l9.83,5.67c.05,.03,.11,.04,.17,.04s.12-.01,.17-.04l9.83-5.67c.1-.06,.17-.17,.17-.29s-.06-.23-.17-.29l-9.83-5.67c-.05-.03-.11-.04-.17-.04h0Z"/></g><g><path class="cls-3" d="M84.48,85.62s-.06,0-.08-.02c-.05-.03-.08-.08-.08-.14v-11.35c0-.06,.03-.12,.08-.14l9.83-5.67s.05-.02,.08-.02,.06,0,.08,.02c.05,.03,.08,.08,.08,.14v11.35c0,.06-.03,.12-.08,.14l-9.83,5.67s-.05,.02-.08,.02Z"/><path class="cls-4" d="M94.31,68.44v11.35l-9.83,5.67v-11.35l9.83-5.67m0-.33c-.06,0-.12,.01-.17,.04l-9.83,5.67c-.1,.06-.17,.17-.17,.29v11.35c0,.12,.06,.23,.17,.29,.05,.03,.11,.04,.17,.04s.12-.01,.17-.04l9.83-5.67c.1-.06,.17-.17,.17-.29v-11.35c0-.12-.06-.23-.17-.29-.05-.03-.11-.04-.17-.04h0Z"/></g><g><path class="cls-3" d="M84.48,85.62s-.06,0-.08-.02l-9.83-5.67c-.05-.03-.08-.08-.08-.14v-11.35c0-.06,.03-.12,.08-.14,.03-.01,.05-.02,.08-.02s.06,0,.08,.02l9.83,5.67c.05,.03,.08,.08,.08,.14v11.35c0,.06-.03,.12-.08,.14-.03,.01-.05,.02-.08,.02Z"/><path class="cls-4" d="M74.64,68.44l9.83,5.67v11.35l-9.83-5.67v-11.35m0-.33c-.06,0-.12,.01-.17,.04-.1,.06-.17,.17-.17,.29v11.35c0,.12,.06,.23,.17,.29l9.83,5.67c.05,.03,.11,.04,.17,.04s.12-.01,.17-.04c.1-.06,.17-.17,.17-.29v-11.35c0-.12-.06-.23-.17-.29l-9.83-5.67c-.05-.03-.11-.04-.17-.04h0Z"/></g></g><g><g><path class="cls-3" d="M104.15,74.17s-.06,0-.08-.02l-9.83-5.67c-.05-.03-.08-.08-.08-.14s.03-.12,.08-.14l9.83-5.67s.05-.02,.08-.02,.06,0,.08,.02l9.83,5.67c.05,.03,.08,.08,.08,.14s-.03,.12-.08,.14l-9.83,5.67s-.05,.02-.08,.02Z"/><path class="cls-4" d="M104.15,62.66l9.83,5.67-9.83,5.67-9.83-5.67,9.83-5.67m0-.33c-.06,0-.12,.01-.17,.04l-9.83,5.67c-.1,.06-.17,.17-.17,.29s.06,.23,.17,.29l9.83,5.67c.05,.03,.11,.04,.17,.04s.12-.01,.17-.04l9.83-5.67c.1-.06,.17-.17,.17-.29s-.06-.23-.17-.29l-9.83-5.67c-.05-.03-.11-.04-.17-.04h0Z"/></g><g><path class="cls-3" d="M104.15,85.52s-.06,0-.08-.02c-.05-.03-.08-.08-.08-.14v-11.35c0-.06,.03-.12,.08-.14l9.83-5.67s.05-.02,.08-.02,.06,0,.08,.02c.05,.03,.08,.08,.08,.14v11.35c0,.06-.03,.12-.08,.14l-9.83,5.67s-.05,.02-.08,.02Z"/><path class="cls-4" d="M113.98,68.33v11.35l-9.83,5.67v-11.35l9.83-5.67m0-.33c-.06,0-.12,.01-.17,.04l-9.83,5.67c-.1,.06-.17,.17-.17,.29v11.35c0,.12,.06,.23,.17,.29,.05,.03,.11,.04,.17,.04s.12-.01,.17-.04l9.83-5.67c.1-.06,.17-.17,.17-.29v-11.35c0-.12-.06-.23-.17-.29-.05-.03-.11-.04-.17-.04h0Z"/></g><g><path class="cls-3" d="M104.15,85.52s-.06,0-.08-.02l-9.83-5.67c-.05-.03-.08-.08-.08-.14v-11.35c0-.06,.03-.12,.08-.14,.03-.01,.05-.02,.08-.02s.06,0,.08,.02l9.83,5.67c.05,.03,.08,.08,.08,.14v11.35c0,.06-.03,.12-.08,.14-.03,.01-.05,.02-.08,.02Z"/><path class="cls-4" d="M94.31,68.33l9.83,5.67v11.35l-9.83-5.67v-11.35m0-.33c-.06,0-.12,.01-.17,.04-.1,.06-.17,.17-.17,.29v11.35c0,.12,.06,.23,.17,.29l9.83,5.67c.05,.03,.11,.04,.17,.04s.12-.01,.17-.04c.1-.06,.17-.17,.17-.29v-11.35c0-.12-.06-.23-.17-.29l-9.83-5.67c-.05-.03-.11-.04-.17-.04h0Z"/></g></g><g><g><path class="cls-3" d="M94.31,79.95s-.06,0-.08-.02l-9.83-5.67c-.05-.03-.08-.08-.08-.14s.03-.12,.08-.14l9.83-5.67s.05-.02,.08-.02,.06,0,.08,.02l9.83,5.67c.05,.03,.08,.08,.08,.14s-.03,.12-.08,.14l-9.83,5.67s-.05,.02-.08,.02Z"/><path class="cls-4" d="M94.31,68.44l9.83,5.67-9.83,5.67-9.83-5.67,9.83-5.67m0-.33c-.06,0-.12,.01-.17,.04l-9.83,5.67c-.1,.06-.17,.17-.17,.29s.06,.23,.17,.29l9.83,5.67c.05,.03,.11,.04,.17,.04s.12-.01,.17-.04l9.83-5.67c.1-.06,.17-.17,.17-.29s-.06-.23-.17-.29l-9.83-5.67c-.05-.03-.11-.04-.17-.04h0Z"/></g><g><path class="cls-3" d="M94.31,91.3s-.06,0-.08-.02c-.05-.03-.08-.08-.08-.14v-11.35c0-.06,.03-.12,.08-.14l9.83-5.67s.05-.02,.08-.02,.06,0,.08,.02c.05,.03,.08,.08,.08,.14v11.35c0,.06-.03,.12-.08,.14l-9.83,5.67s-.05,.02-.08,.02Z"/><path class="cls-4" d="M104.15,74.11v11.35l-9.83,5.67v-11.35l9.83-5.67m0-.33c-.06,0-.12,.01-.17,.04l-9.83,5.67c-.1,.06-.17,.17-.17,.29v11.35c0,.12,.06,.23,.17,.29,.05,.03,.11,.04,.17,.04s.12-.01,.17-.04l9.83-5.67c.1-.06,.17-.17,.17-.29v-11.35c0-.12-.06-.23-.17-.29-.05-.03-.11-.04-.17-.04h0Z"/></g><g><path class="cls-3" d="M94.31,91.3s-.06,0-.08-.02l-9.83-5.67c-.05-.03-.08-.08-.08-.14v-11.35c0-.06,.03-.12,.08-.14,.03-.01,.05-.02,.08-.02s.06,0,.08,.02l9.83,5.67c.05,.03,.08,.08,.08,.14v11.35c0,.06-.03,.12-.08,.14-.03,.01-.05,.02-.08,.02Z"/><path class="cls-4" d="M84.48,74.11l9.83,5.67v11.35l-9.83-5.67v-11.35m0-.33c-.06,0-.12,.01-.17,.04-.1,.06-.17,.17-.17,.29v11.35c0,.12,.06,.23,.17,.29l9.83,5.67c.05,.03,.11,.04,.17,.04s.12-.01,.17-.04c.1-.06,.17-.17,.17-.29v-11.35c0-.12-.06-.23-.17-.29l-9.83-5.67c-.05-.03-.11-.04-.17-.04h0Z"/></g></g><g><g><path class="cls-3" d="M94.31,41.13s-.06,0-.08-.02l-9.83-5.67c-.05-.03-.08-.08-.08-.14s.03-.12,.08-.14l9.83-5.67s.05-.02,.08-.02,.06,0,.08,.02l9.83,5.67c.05,.03,.08,.08,.08,.14s-.03,.12-.08,.14l-9.83,5.67s-.05,.02-.08,.02Z"/><path class="cls-4" d="M94.31,29.62l9.83,5.67-9.83,5.67-9.83-5.67,9.83-5.67m0-.33c-.06,0-.12,.01-.17,.04l-9.83,5.67c-.1,.06-.17,.17-.17,.29s.06,.23,.17,.29l9.83,5.67c.05,.03,.11,.04,.17,.04s.12-.01,.17-.04l9.83-5.67c.1-.06,.17-.17,.17-.29s-.06-.23-.17-.29l-9.83-5.67c-.05-.03-.11-.04-.17-.04h0Z"/></g><g><path class="cls-3" d="M94.31,52.48s-.06,0-.08-.02c-.05-.03-.08-.08-.08-.14v-11.35c0-.06,.03-.12,.08-.14l9.83-5.67s.05-.02,.08-.02,.06,0,.08,.02c.05,.03,.08,.08,.08,.14v11.35c0,.06-.03,.12-.08,.14l-9.83,5.67s-.05,.02-.08,.02Z"/><path class="cls-4" d="M104.15,35.29v11.35l-9.83,5.67v-11.35l9.83-5.67m0-.33c-.06,0-.12,.01-.17,.04l-9.83,5.67c-.1,.06-.17,.17-.17,.29v11.35c0,.12,.06,.23,.17,.29,.05,.03,.11,.04,.17,.04s.12-.01,.17-.04l9.83-5.67c.1-.06,.17-.17,.17-.29v-11.35c0-.12-.06-.23-.17-.29-.05-.03-.11-.04-.17-.04h0Z"/></g><g><path class="cls-3" d="M94.31,52.48s-.06,0-.08-.02l-9.83-5.67c-.05-.03-.08-.08-.08-.14v-11.35c0-.06,.03-.12,.08-.14,.03-.01,.05-.02,.08-.02s.06,0,.08,.02l9.83,5.67c.05,.03,.08,.08,.08,.14v11.35c0,.06-.03,.12-.08,.14-.03,.01-.05,.02-.08,.02Z"/><path class="cls-4" d="M84.48,35.29l9.83,5.67v11.35l-9.83-5.67v-11.35m0-.33c-.06,0-.12,.01-.17,.04-.1,.06-.17,.17-.17,.29v11.35c0,.12,.06,.23,.17,.29l9.83,5.67c.05,.03,.11,.04,.17,.04s.12-.01,.17-.04c.1-.06,.17-.17,.17-.29v-11.35c0-.12-.06-.23-.17-.29l-9.83-5.67c-.05-.03-.11-.04-.17-.04h0Z"/></g></g><g><g><path class="cls-1" d="M94.31,52.27s-.06,0-.08-.02l-9.83-5.67c-.05-.03-.08-.08-.08-.14s.03-.12,.08-.14l9.83-5.67s.05-.02,.08-.02,.06,0,.08,.02l9.83,5.67c.05,.03,.08,.08,.08,.14s-.03,.12-.08,.14l-9.83,5.67s-.05,.02-.08,.02Z"/><path class="cls-4" d="M94.31,40.76l9.83,5.67-9.83,5.67-9.83-5.67,9.83-5.67m0-.33c-.06,0-.12,.01-.17,.04l-9.83,5.67c-.1,.06-.17,.17-.17,.29s.06,.23,.17,.29l9.83,5.67c.05,.03,.11,.04,.17,.04s.12-.01,.17-.04l9.83-5.67c.1-.06,.17-.17,.17-.29s-.06-.23-.17-.29l-9.83-5.67c-.05-.03-.11-.04-.17-.04h0Z"/></g><g><path class="cls-1" d="M94.31,63.62s-.06,0-.08-.02c-.05-.03-.08-.08-.08-.14v-11.35c0-.06,.03-.12,.08-.14l9.83-5.67s.05-.02,.08-.02,.06,0,.08,.02c.05,.03,.08,.08,.08,.14v11.35c0,.06-.03,.12-.08,.14l-9.83,5.67s-.05,.02-.08,.02Z"/><path class="cls-4" d="M104.15,46.43v11.35l-9.83,5.67v-11.35l9.83-5.67m0-.33c-.06,0-.12,.01-.17,.04l-9.83,5.67c-.1,.06-.17,.17-.17,.29v11.35c0,.12,.06,.23,.17,.29,.05,.03,.11,.04,.17,.04s.12-.01,.17-.04l9.83-5.67c.1-.06,.17-.17,.17-.29v-11.35c0-.12-.06-.23-.17-.29-.05-.03-.11-.04-.17-.04h0Z"/></g><g><path class="cls-1" d="M94.31,63.62s-.06,0-.08-.02l-9.83-5.67c-.05-.03-.08-.08-.08-.14v-11.35c0-.06,.03-.12,.08-.14,.03-.01,.05-.02,.08-.02s.06,0,.08,.02l9.83,5.67c.05,.03,.08,.08,.08,.14v11.35c0,.06-.03,.12-.08,.14-.03,.01-.05,.02-.08,.02Z"/><path class="cls-4" d="M84.48,46.43l9.83,5.67v11.35l-9.83-5.67v-11.35m0-.33c-.06,0-.12,.01-.17,.04-.1,.06-.17,.17-.17,.29v11.35c0,.12,.06,.23,.17,.29l9.83,5.67c.05,.03,.11,.04,.17,.04s.12-.01,.17-.04c.1-.06,.17-.17,.17-.29v-11.35c0-.12-.06-.23-.17-.29l-9.83-5.67c-.05-.03-.11-.04-.17-.04h0Z"/></g></g><g><g><path class="cls-3" d="M103.87,46.59s-.06,0-.08-.02l-9.83-5.67c-.05-.03-.08-.08-.08-.14s.03-.12,.08-.14l9.83-5.67s.05-.02,.08-.02,.06,0,.08,.02l9.83,5.67c.05,.03,.08,.08,.08,.14s-.03,.12-.08,.14l-9.83,5.67s-.05,.02-.08,.02Z"/><path class="cls-4" d="M103.87,35.08l9.83,5.67-9.83,5.67-9.83-5.67,9.83-5.67m0-.33c-.06,0-.12,.01-.17,.04l-9.83,5.67c-.1,.06-.17,.17-.17,.29s.06,.23,.17,.29l9.83,5.67c.05,.03,.11,.04,.17,.04s.12-.01,.17-.04l9.83-5.67c.1-.06,.17-.17,.17-.29s-.06-.23-.17-.29l-9.83-5.67c-.05-.03-.11-.04-.17-.04h0Z"/></g><g><path class="cls-3" d="M103.87,57.94s-.06,0-.08-.02c-.05-.03-.08-.08-.08-.14v-11.35c0-.06,.03-.12,.08-.14l9.83-5.67s.05-.02,.08-.02,.06,0,.08,.02c.05,.03,.08,.08,.08,.14v11.35c0,.06-.03,.12-.08,.14l-9.83,5.67s-.05,.02-.08,.02Z"/><path class="cls-4" d="M113.7,40.75v11.35l-9.83,5.67v-11.35l9.83-5.67m0-.33c-.06,0-.12,.01-.17,.04l-9.83,5.67c-.1,.06-.17,.17-.17,.29v11.35c0,.12,.06,.23,.17,.29,.05,.03,.11,.04,.17,.04s.12-.01,.17-.04l9.83-5.67c.1-.06,.17-.17,.17-.29v-11.35c0-.12-.06-.23-.17-.29-.05-.03-.11-.04-.17-.04h0Z"/></g><g><path class="cls-3" d="M103.87,57.94s-.06,0-.08-.02l-9.83-5.67c-.05-.03-.08-.08-.08-.14v-11.35c0-.06,.03-.12,.08-.14,.03-.01,.05-.02,.08-.02s.06,0,.08,.02l9.83,5.67c.05,.03,.08,.08,.08,.14v11.35c0,.06-.03,.12-.08,.14-.03,.01-.05,.02-.08,.02Z"/><path class="cls-4" d="M94.04,40.75l9.83,5.67v11.35l-9.83-5.67v-11.35m0-.33c-.06,0-.12,.01-.17,.04-.1,.06-.17,.17-.17,.29v11.35c0,.12,.06,.23,.17,.29l9.83,5.67c.05,.03,.11,.04,.17,.04s.12-.01,.17-.04c.1-.06,.17-.17,.17-.29v-11.35c0-.12-.06-.23-.17-.29l-9.83-5.67c-.05-.03-.11-.04-.17-.04h0Z"/></g></g><g><g><path class="cls-3" d="M84.48,46.81s-.06,0-.08-.02l-9.83-5.67c-.05-.03-.08-.08-.08-.14s.03-.12,.08-.14l9.83-5.67s.05-.02,.08-.02,.06,0,.08,.02l9.83,5.67c.05,.03,.08,.08,.08,.14s-.03,.12-.08,.14l-9.83,5.67s-.05,.02-.08,.02Z"/><path class="cls-4" d="M84.48,35.29l9.83,5.67-9.83,5.67-9.83-5.67,9.83-5.67m0-.33c-.06,0-.12,.01-.17,.04l-9.83,5.67c-.1,.06-.17,.17-.17,.29s.06,.23,.17,.29l9.83,5.67c.05,.03,.11,.04,.17,.04s.12-.01,.17-.04l9.83-5.67c.1-.06,.17-.17,.17-.29s-.06-.23-.17-.29l-9.83-5.67c-.05-.03-.11-.04-.17-.04h0Z"/></g><g><path class="cls-3" d="M84.48,58.15s-.06,0-.08-.02c-.05-.03-.08-.08-.08-.14v-11.35c0-.06,.03-.12,.08-.14l9.83-5.67s.05-.02,.08-.02,.06,0,.08,.02c.05,.03,.08,.08,.08,.14v11.35c0,.06-.03,.12-.08,.14l-9.83,5.67s-.05,.02-.08,.02Z"/><path class="cls-4" d="M94.31,40.97v11.35l-9.83,5.67v-11.35l9.83-5.67m0-.33c-.06,0-.12,.01-.17,.04l-9.83,5.67c-.1,.06-.17,.17-.17,.29v11.35c0,.12,.06,.23,.17,.29,.05,.03,.11,.04,.17,.04s.12-.01,.17-.04l9.83-5.67c.1-.06,.17-.17,.17-.29v-11.35c0-.12-.06-.23-.17-.29-.05-.03-.11-.04-.17-.04h0Z"/></g><g><path class="cls-3" d="M84.48,58.15s-.06,0-.08-.02l-9.83-5.67c-.05-.03-.08-.08-.08-.14v-11.35c0-.06,.03-.12,.08-.14,.03-.01,.05-.02,.08-.02s.06,0,.08,.02l9.83,5.67c.05,.03,.08,.08,.08,.14v11.35c0,.06-.03,.12-.08,.14-.03,.01-.05,.02-.08,.02Z"/><path class="cls-4" d="M74.64,40.97l9.83,5.67v11.35l-9.83-5.67v-11.35m0-.33c-.06,0-.12,.01-.17,.04-.1,.06-.17,.17-.17,.29v11.35c0,.12,.06,.23,.17,.29l9.83,5.67c.05,.03,.11,.04,.17,.04s.12-.01,.17-.04c.1-.06,.17-.17,.17-.29v-11.35c0-.12-.06-.23-.17-.29l-9.83-5.67c-.05-.03-.11-.04-.17-.04h0Z"/></g></g><g><g><path class="cls-3" d="M113.43,52.48s-.06,0-.08-.02l-9.83-5.67c-.05-.03-.08-.08-.08-.14s.03-.12,.08-.14l9.83-5.67s.05-.02,.08-.02,.06,0,.08,.02l9.83,5.67c.05,.03,.08,.08,.08,.14s-.03,.12-.08,.14l-9.83,5.67s-.05,.02-.08,.02Z"/><path class="cls-4" d="M113.43,40.97l9.83,5.67-9.83,5.67-9.83-5.67,9.83-5.67m0-.33c-.06,0-.12,.01-.17,.04l-9.83,5.67c-.1,.06-.17,.17-.17,.29s.06,.23,.17,.29l9.83,5.67c.05,.03,.11,.04,.17,.04s.12-.01,.17-.04l9.83-5.67c.1-.06,.17-.17,.17-.29s-.06-.23-.17-.29l-9.83-5.67c-.05-.03-.11-.04-.17-.04h0Z"/></g><g><path class="cls-3" d="M113.43,63.83s-.06,0-.08-.02c-.05-.03-.08-.08-.08-.14v-11.35c0-.06,.03-.12,.08-.14l9.83-5.67s.05-.02,.08-.02,.06,0,.08,.02c.05,.03,.08,.08,.08,.14v11.35c0,.06-.03,.12-.08,.14l-9.83,5.67s-.05,.02-.08,.02Z"/><path class="cls-4" d="M123.26,46.64v11.35l-9.83,5.67v-11.35l9.83-5.67m0-.33c-.06,0-.12,.01-.17,.04l-9.83,5.67c-.1,.06-.17,.17-.17,.29v11.35c0,.12,.06,.23,.17,.29,.05,.03,.11,.04,.17,.04s.12-.01,.17-.04l9.83-5.67c.1-.06,.17-.17,.17-.29v-11.35c0-.12-.06-.23-.17-.29-.05-.03-.11-.04-.17-.04h0Z"/></g><g><path class="cls-3" d="M113.43,63.83s-.06,0-.08-.02l-9.83-5.67c-.05-.03-.08-.08-.08-.14v-11.35c0-.06,.03-.12,.08-.14,.03-.01,.05-.02,.08-.02s.06,0,.08,.02l9.83,5.67c.05,.03,.08,.08,.08,.14v11.35c0,.06-.03,.12-.08,.14-.03,.01-.05,.02-.08,.02Z"/><path class="cls-4" d="M103.59,46.64l9.83,5.67v11.35l-9.83-5.67v-11.35m0-.33c-.06,0-.12,.01-.17,.04-.1,.06-.17,.17-.17,.29v11.35c0,.12,.06,.23,.17,.29l9.83,5.67c.05,.03,.11,.04,.17,.04s.12-.01,.17-.04c.1-.06,.17-.17,.17-.29v-11.35c0-.12-.06-.23-.17-.29l-9.83-5.67c-.05-.03-.11-.04-.17-.04h0Z"/></g></g><g><g><path class="cls-3" d="M74.64,52.48s-.06,0-.08-.02l-9.83-5.67c-.05-.03-.08-.08-.08-.14s.03-.12,.08-.14l9.83-5.67s.05-.02,.08-.02,.06,0,.08,.02l9.83,5.67c.05,.03,.08,.08,.08,.14s-.03,.12-.08,.14l-9.83,5.67s-.05,.02-.08,.02Z"/><path class="cls-4" d="M74.64,40.97l9.83,5.67-9.83,5.67-9.83-5.67,9.83-5.67m0-.33c-.06,0-.12,.01-.17,.04l-9.83,5.67c-.1,.06-.17,.17-.17,.29s.06,.23,.17,.29l9.83,5.67c.05,.03,.11,.04,.17,.04s.12-.01,.17-.04l9.83-5.67c.1-.06,.17-.17,.17-.29s-.06-.23-.17-.29l-9.83-5.67c-.05-.03-.11-.04-.17-.04h0Z"/></g><g><path class="cls-3" d="M74.64,63.83s-.06,0-.08-.02c-.05-.03-.08-.08-.08-.14v-11.35c0-.06,.03-.12,.08-.14l9.83-5.67s.05-.02,.08-.02,.06,0,.08,.02c.05,.03,.08,.08,.08,.14v11.35c0,.06-.03,.12-.08,.14l-9.83,5.67s-.05,.02-.08,.02Z"/><path class="cls-4" d="M84.48,46.64v11.35l-9.83,5.67v-11.35l9.83-5.67m0-.33c-.06,0-.12,.01-.17,.04l-9.83,5.67c-.1,.06-.17,.17-.17,.29v11.35c0,.12,.06,.23,.17,.29,.05,.03,.11,.04,.17,.04s.12-.01,.17-.04l9.83-5.67c.1-.06,.17-.17,.17-.29v-11.35c0-.12-.06-.23-.17-.29-.05-.03-.11-.04-.17-.04h0Z"/></g><g><path class="cls-3" d="M74.64,63.83s-.06,0-.08-.02l-9.83-5.67c-.05-.03-.08-.08-.08-.14v-11.35c0-.06,.03-.12,.08-.14,.03-.01,.05-.02,.08-.02s.06,0,.08,.02l9.83,5.67c.05,.03,.08,.08,.08,.14v11.35c0,.06-.03,.12-.08,.14-.03,.01-.05,.02-.08,.02Z"/><path class="cls-4" d="M64.81,46.64l9.83,5.67v11.35l-9.83-5.67v-11.35m0-.33c-.06,0-.12,.01-.17,.04-.1,.06-.17,.17-.17,.29v11.35c0,.12,.06,.23,.17,.29l9.83,5.67c.05,.03,.11,.04,.17,.04s.12-.01,.17-.04c.1-.06,.17-.17,.17-.29v-11.35c0-.12-.06-.23-.17-.29l-9.83-5.67c-.05-.03-.11-.04-.17-.04h0Z"/></g></g><g><g><path class="cls-1" d="M94.31,24.22s-.06,0-.08-.02l-9.83-5.67c-.05-.03-.08-.08-.08-.14s.03-.12,.08-.14l9.83-5.67s.05-.02,.08-.02,.06,0,.08,.02l9.83,5.67c.05,.03,.08,.08,.08,.14s-.03,.12-.08,.14l-9.83,5.67s-.05,.02-.08,.02Z"/><path class="cls-2" d="M94.31,12.7l9.83,5.67-9.83,5.67-9.83-5.67,9.83-5.67m0-.33c-.06,0-.12,.01-.17,.04l-9.83,5.67c-.1,.06-.17,.17-.17,.29s.06,.23,.17,.29l9.83,5.67c.05,.03,.11,.04,.17,.04s.12-.01,.17-.04l9.83-5.67c.1-.06,.17-.17,.17-.29s-.06-.23-.17-.29l-9.83-5.67c-.05-.03-.11-.04-.17-.04h0Z"/></g><g><path class="cls-1" d="M94.31,35.56s-.06,0-.08-.02c-.05-.03-.08-.08-.08-.14v-11.35c0-.06,.03-.12,.08-.14l9.83-5.67s.05-.02,.08-.02,.06,0,.08,.02c.05,.03,.08,.08,.08,.14v11.35c0,.06-.03,.12-.08,.14l-9.83,5.67s-.05,.02-.08,.02Z"/><path class="cls-2" d="M104.15,18.38v11.35l-9.83,5.67v-11.35l9.83-5.67m0-.33c-.06,0-.12,.01-.17,.04l-9.83,5.67c-.1,.06-.17,.17-.17,.29v11.35c0,.12,.06,.23,.17,.29,.05,.03,.11,.04,.17,.04s.12-.01,.17-.04l9.83-5.67c.1-.06,.17-.17,.17-.29v-11.35c0-.12-.06-.23-.17-.29-.05-.03-.11-.04-.17-.04h0Z"/></g><g><path class="cls-1" d="M94.31,35.56s-.06,0-.08-.02l-9.83-5.67c-.05-.03-.08-.08-.08-.14v-11.35c0-.06,.03-.12,.08-.14,.03-.01,.05-.02,.08-.02s.06,0,.08,.02l9.83,5.67c.05,.03,.08,.08,.08,.14v11.35c0,.06-.03,.12-.08,.14-.03,.01-.05,.02-.08,.02Z"/><path class="cls-2" d="M84.48,18.38l9.83,5.67v11.35l-9.83-5.67v-11.35m0-.33c-.06,0-.12,.01-.17,.04-.1,.06-.17,.17-.17,.29v11.35c0,.12,.06,.23,.17,.29l9.83,5.67c.05,.03,.11,.04,.17,.04s.12-.01,.17-.04c.1-.06,.17-.17,.17-.29v-11.35c0-.12-.06-.23-.17-.29l-9.83-5.67c-.05-.03-.11-.04-.17-.04h0Z"/></g></g><line class="cls-6" x1="174.86" y1="46.28" x2="182.34" y2="46.28"/><line class="cls-5" x1="166.69" y1="52.7" x2="193.48" y2="52.7"/><circle class="cls-6" cx="166.65" cy="42.32" r="2.17"/><g><line class="cls-8" x1="35.77" y1="24.16" x2="35.77" y2="26.48"/><line class="cls-8" x1="35.77" y1="28.18" x2="35.77" y2="30.49"/><line class="cls-8" x1="32.61" y1="27.33" x2="34.93" y2="27.33"/><line class="cls-8" x1="36.62" y1="27.33" x2="38.94" y2="27.33"/></g><g><line class="cls-8" x1="123.81" y1="82.29" x2="123.81" y2="84.61"/><line class="cls-8" x1="123.81" y1="86.3" x2="123.81" y2="88.62"/><line class="cls-8" x1="120.65" y1="85.46" x2="122.97" y2="85.46"/><line class="cls-8" x1="124.66" y1="85.46" x2="126.98" y2="85.46"/></g><line class="cls-6" x1="9.51" y1="15.17" x2="17" y2="15.17"/><line class="cls-5" x1="1.35" y1="21.59" x2="28.13" y2="21.59"/><line class="cls-6" x1="25.94" y1="26.75" x2="10.96" y2="26.75"/><rect class="cls-3" x="154.59" y="11.37" width="19.08" height="5.44" rx="2.72" ry="2.72" transform="translate(328.26 28.17) rotate(180)"/><rect class="cls-3" x="160" y="15.3" width="30.35" height="8.66" rx="3.68" ry="3.68" transform="translate(350.36 39.26) rotate(180)"/><g><line class="cls-8" x1="171.97" y1="12.88" x2="173.53" y2="14.45"/><line class="cls-8" x1="174.68" y1="15.59" x2="176.24" y2="17.16"/><line class="cls-8" x1="171.97" y1="17.16" x2="173.53" y2="15.59"/><line class="cls-8" x1="174.68" y1="14.45" x2="176.24" y2="12.88"/></g><line class="cls-6" x1="30.62" y1="91.82" x2="37.72" y2="91.82"/><line class="cls-6" x1="25.22" y1="91.82" x2="27.01" y2="91.82"/><line class="cls-5" x1="1.07" y1="96.05" x2="26.47" y2="96.05"/><g><line class="cls-8" x1="14.74" y1="86.21" x2="16.42" y2="87.65"/><line class="cls-8" x1="17.64" y1="88.71" x2="19.32" y2="90.15"/><line class="cls-8" x1="14.74" y1="90.15" x2="16.42" y2="88.71"/><line class="cls-8" x1="17.64" y1="87.65" x2="19.32" y2="86.21"/></g><g><line class="cls-8" x1="55.57" y1="51.01" x2="57.25" y2="52.45"/><line class="cls-8" x1="58.48" y1="53.51" x2="60.15" y2="54.95"/><line class="cls-8" x1="55.57" y1="54.95" x2="57.25" y2="53.51"/><line class="cls-8" x1="58.48" y1="52.45" x2="60.15" y2="51.01"/></g><rect class="cls-1" x="149.84" y="94.78" width="20.78" height="5.93" rx="2.87" ry="2.87" transform="translate(320.46 195.48) rotate(-180)"/><rect class="cls-1" x="156.01" y="86.45" width="34.03" height="9.71" rx="4" ry="4" transform="translate(346.04 182.61) rotate(-180)"/><g><g><path class="cls-1" d="M94.04,52.27s-.06,0-.08-.02l-9.83-5.67c-.05-.03-.08-.08-.08-.14s.03-.12,.08-.14l9.83-5.67s.05-.02,.08-.02,.06,0,.08,.02l9.83,5.67c.05,.03,.08,.08,.08,.14s-.03,.12-.08,.14l-9.83,5.67s-.05,.02-.08,.02Z"/><path class="cls-4" d="M94.04,40.76l9.83,5.67-9.83,5.67-9.83-5.67,9.83-5.67m0-.33c-.06,0-.12,.01-.17,.04l-9.83,5.67c-.1,.06-.17,.17-.17,.29s.06,.23,.17,.29l9.83,5.67c.05,.03,.11,.04,.17,.04s.12-.01,.17-.04l9.83-5.67c.1-.06,.17-.17,.17-.29s-.06-.23-.17-.29l-9.83-5.67c-.05-.03-.11-.04-.17-.04h0Z"/></g><g><path class="cls-1" d="M94.04,63.62s-.06,0-.08-.02c-.05-.03-.08-.08-.08-.14v-11.35c0-.06,.03-.12,.08-.14l9.83-5.67s.05-.02,.08-.02,.06,0,.08,.02c.05,.03,.08,.08,.08,.14v11.35c0,.06-.03,.12-.08,.14l-9.83,5.67s-.05,.02-.08,.02Z"/><path class="cls-4" d="M103.87,46.43v11.35l-9.83,5.67v-11.35l9.83-5.67m0-.33c-.06,0-.12,.01-.17,.04l-9.83,5.67c-.1,.06-.17,.17-.17,.29v11.35c0,.12,.06,.23,.17,.29,.05,.03,.11,.04,.17,.04s.12-.01,.17-.04l9.83-5.67c.1-.06,.17-.17,.17-.29v-11.35c0-.12-.06-.23-.17-.29-.05-.03-.11-.04-.17-.04h0Z"/></g><g><path class="cls-1" d="M94.04,63.62s-.06,0-.08-.02l-9.83-5.67c-.05-.03-.08-.08-.08-.14v-11.35c0-.06,.03-.12,.08-.14,.03-.01,.05-.02,.08-.02s.06,0,.08,.02l9.83,5.67c.05,.03,.08,.08,.08,.14v11.35c0,.06-.03,.12-.08,.14-.03,.01-.05,.02-.08,.02Z"/><path class="cls-4" d="M84.2,46.43l9.83,5.67v11.35l-9.83-5.67v-11.35m0-.33c-.06,0-.12,.01-.17,.04-.1,.06-.17,.17-.17,.29v11.35c0,.12,.06,.23,.17,.29l9.83,5.67c.05,.03,.11,.04,.17,.04s.12-.01,.17-.04c.1-.06,.17-.17,.17-.29v-11.35c0-.12-.06-.23-.17-.29l-9.83-5.67c-.05-.03-.11-.04-.17-.04h0Z"/></g></g><g><g><path class="cls-1" d="M104.15,29.89s-.06,0-.08-.02l-9.83-5.67c-.05-.03-.08-.08-.08-.14s.03-.12,.08-.14l9.83-5.67s.05-.02,.08-.02,.06,0,.08,.02l9.83,5.67c.05,.03,.08,.08,.08,.14s-.03,.12-.08,.14l-9.83,5.67s-.05,.02-.08,.02Z"/><path class="cls-2" d="M104.15,18.38l9.83,5.67-9.83,5.67-9.83-5.67,9.83-5.67m0-.33c-.06,0-.12,.01-.17,.04l-9.83,5.67c-.1,.06-.17,.17-.17,.29s.06,.23,.17,.29l9.83,5.67c.05,.03,.11,.04,.17,.04s.12-.01,.17-.04l9.83-5.67c.1-.06,.17-.17,.17-.29s-.06-.23-.17-.29l-9.83-5.67c-.05-.03-.11-.04-.17-.04h0Z"/></g><g><path class="cls-1" d="M104.15,41.24s-.06,0-.08-.02c-.05-.03-.08-.08-.08-.14v-11.35c0-.06,.03-.12,.08-.14l9.83-5.67s.05-.02,.08-.02,.06,0,.08,.02c.05,.03,.08,.08,.08,.14v11.35c0,.06-.03,.12-.08,.14l-9.83,5.67s-.05,.02-.08,.02Z"/><path class="cls-2" d="M113.98,24.05v11.35l-9.83,5.67v-11.35l9.83-5.67m0-.33c-.06,0-.12,.01-.17,.04l-9.83,5.67c-.1,.06-.17,.17-.17,.29v11.35c0,.12,.06,.23,.17,.29,.05,.03,.11,.04,.17,.04s.12-.01,.17-.04l9.83-5.67c.1-.06,.17-.17,.17-.29v-11.35c0-.12-.06-.23-.17-.29-.05-.03-.11-.04-.17-.04h0Z"/></g><g><path class="cls-1" d="M104.15,41.24s-.06,0-.08-.02l-9.83-5.67c-.05-.03-.08-.08-.08-.14v-11.35c0-.06,.03-.12,.08-.14,.03-.01,.05-.02,.08-.02s.06,0,.08,.02l9.83,5.67c.05,.03,.08,.08,.08,.14v11.35c0,.06-.03,.12-.08,.14-.03,.01-.05,.02-.08,.02Z"/><path class="cls-2" d="M94.31,24.05l9.83,5.67v11.35l-9.83-5.67v-11.35m0-.33c-.06,0-.12,.01-.17,.04-.1,.06-.17,.17-.17,.29v11.35c0,.12,.06,.23,.17,.29l9.83,5.67c.05,.03,.11,.04,.17,.04s.12-.01,.17-.04c.1-.06,.17-.17,.17-.29v-11.35c0-.12-.06-.23-.17-.29l-9.83-5.67c-.05-.03-.11-.04-.17-.04h0Z"/></g></g><g><g><path class="cls-1" d="M84.48,29.89s-.06,0-.08-.02l-9.83-5.67c-.05-.03-.08-.08-.08-.14s.03-.12,.08-.14l9.83-5.67s.05-.02,.08-.02,.06,0,.08,.02l9.83,5.67c.05,.03,.08,.08,.08,.14s-.03,.12-.08,.14l-9.83,5.67s-.05,.02-.08,.02Z"/><path class="cls-2" d="M84.48,18.38l9.83,5.67-9.83,5.67-9.83-5.67,9.83-5.67m0-.33c-.06,0-.12,.01-.17,.04l-9.83,5.67c-.1,.06-.17,.17-.17,.29s.06,.23,.17,.29l9.83,5.67c.05,.03,.11,.04,.17,.04s.12-.01,.17-.04l9.83-5.67c.1-.06,.17-.17,.17-.29s-.06-.23-.17-.29l-9.83-5.67c-.05-.03-.11-.04-.17-.04h0Z"/></g><g><path class="cls-1" d="M84.48,41.24s-.06,0-.08-.02c-.05-.03-.08-.08-.08-.14v-11.35c0-.06,.03-.12,.08-.14l9.83-5.67s.05-.02,.08-.02,.06,0,.08,.02c.05,.03,.08,.08,.08,.14v11.35c0,.06-.03,.12-.08,.14l-9.83,5.67s-.05,.02-.08,.02Z"/><path class="cls-2" d="M94.31,24.05v11.35l-9.83,5.67v-11.35l9.83-5.67m0-.33c-.06,0-.12,.01-.17,.04l-9.83,5.67c-.1,.06-.17,.17-.17,.29v11.35c0,.12,.06,.23,.17,.29,.05,.03,.11,.04,.17,.04s.12-.01,.17-.04l9.83-5.67c.1-.06,.17-.17,.17-.29v-11.35c0-.12-.06-.23-.17-.29-.05-.03-.11-.04-.17-.04h0Z"/></g><g><path class="cls-1" d="M84.48,41.24s-.06,0-.08-.02l-9.83-5.67c-.05-.03-.08-.08-.08-.14v-11.35c0-.06,.03-.12,.08-.14,.03-.01,.05-.02,.08-.02s.06,0,.08,.02l9.83,5.67c.05,.03,.08,.08,.08,.14v11.35c0,.06-.03,.12-.08,.14-.03,.01-.05,.02-.08,.02Z"/><path class="cls-2" d="M74.64,24.05l9.83,5.67v11.35l-9.83-5.67v-11.35m0-.33c-.06,0-.12,.01-.17,.04-.1,.06-.17,.17-.17,.29v11.35c0,.12,.06,.23,.17,.29l9.83,5.67c.05,.03,.11,.04,.17,.04s.12-.01,.17-.04c.1-.06,.17-.17,.17-.29v-11.35c0-.12-.06-.23-.17-.29l-9.83-5.67c-.05-.03-.11-.04-.17-.04h0Z"/></g></g><g><g><path class="cls-1" d="M113.98,35.56s-.06,0-.08-.02l-9.83-5.67c-.05-.03-.08-.08-.08-.14s.03-.12,.08-.14l9.83-5.67s.05-.02,.08-.02,.06,0,.08,.02l9.83,5.67c.05,.03,.08,.08,.08,.14s-.03,.12-.08,.14l-9.83,5.67s-.05,.02-.08,.02Z"/><path class="cls-2" d="M113.98,24.05l9.83,5.67-9.83,5.67-9.83-5.67,9.83-5.67m0-.33c-.06,0-.12,.01-.17,.04l-9.83,5.67c-.1,.06-.17,.17-.17,.29s.06,.23,.17,.29l9.83,5.67c.05,.03,.11,.04,.17,.04s.12-.01,.17-.04l9.83-5.67c.1-.06,.17-.17,.17-.29s-.06-.23-.17-.29l-9.83-5.67c-.05-.03-.11-.04-.17-.04h0Z"/></g><g><path class="cls-1" d="M113.98,46.91s-.06,0-.08-.02c-.05-.03-.08-.08-.08-.14v-11.35c0-.06,.03-.12,.08-.14l9.83-5.67s.05-.02,.08-.02,.06,0,.08,.02c.05,.03,.08,.08,.08,.14v11.35c0,.06-.03,.12-.08,.14l-9.83,5.67s-.05,.02-.08,.02Z"/><path class="cls-2" d="M123.81,29.72v11.35l-9.83,5.67v-11.35l9.83-5.67m0-.33c-.06,0-.12,.01-.17,.04l-9.83,5.67c-.1,.06-.17,.17-.17,.29v11.35c0,.12,.06,.23,.17,.29,.05,.03,.11,.04,.17,.04s.12-.01,.17-.04l9.83-5.67c.1-.06,.17-.17,.17-.29v-11.35c0-.12-.06-.23-.17-.29-.05-.03-.11-.04-.17-.04h0Z"/></g><g><path class="cls-1" d="M113.98,46.91s-.06,0-.08-.02l-9.83-5.67c-.05-.03-.08-.08-.08-.14v-11.35c0-.06,.03-.12,.08-.14,.03-.01,.05-.02,.08-.02s.06,0,.08,.02l9.83,5.67c.05,.03,.08,.08,.08,.14v11.35c0,.06-.03,.12-.08,.14-.03,.01-.05,.02-.08,.02Z"/><path class="cls-2" d="M104.15,29.72l9.83,5.67v11.35l-9.83-5.67v-11.35m0-.33c-.06,0-.12,.01-.17,.04-.1,.06-.17,.17-.17,.29v11.35c0,.12,.06,.23,.17,.29l9.83,5.67c.05,.03,.11,.04,.17,.04s.12-.01,.17-.04c.1-.06,.17-.17,.17-.29v-11.35c0-.12-.06-.23-.17-.29l-9.83-5.67c-.05-.03-.11-.04-.17-.04h0Z"/></g></g><g><g><path class="cls-1" d="M74.64,35.56s-.06,0-.08-.02l-9.83-5.67c-.05-.03-.08-.08-.08-.14s.03-.12,.08-.14l9.83-5.67s.05-.02,.08-.02,.06,0,.08,.02l9.83,5.67c.05,.03,.08,.08,.08,.14s-.03,.12-.08,.14l-9.83,5.67s-.05,.02-.08,.02Z"/><path class="cls-2" d="M74.64,24.05l9.83,5.67-9.83,5.67-9.83-5.67,9.83-5.67m0-.33c-.06,0-.12,.01-.17,.04l-9.83,5.67c-.1,.06-.17,.17-.17,.29s.06,.23,.17,.29l9.83,5.67c.05,.03,.11,.04,.17,.04s.12-.01,.17-.04l9.83-5.67c.1-.06,.17-.17,.17-.29s-.06-.23-.17-.29l-9.83-5.67c-.05-.03-.11-.04-.17-.04h0Z"/></g><g><path class="cls-1" d="M74.64,46.91s-.06,0-.08-.02c-.05-.03-.08-.08-.08-.14v-11.35c0-.06,.03-.12,.08-.14l9.83-5.67s.05-.02,.08-.02,.06,0,.08,.02c.05,.03,.08,.08,.08,.14v11.35c0,.06-.03,.12-.08,.14l-9.83,5.67s-.05,.02-.08,.02Z"/><path class="cls-2" d="M84.48,29.72v11.35l-9.83,5.67v-11.35l9.83-5.67m0-.33c-.06,0-.12,.01-.17,.04l-9.83,5.67c-.1,.06-.17,.17-.17,.29v11.35c0,.12,.06,.23,.17,.29,.05,.03,.11,.04,.17,.04s.12-.01,.17-.04l9.83-5.67c.1-.06,.17-.17,.17-.29v-11.35c0-.12-.06-.23-.17-.29-.05-.03-.11-.04-.17-.04h0Z"/></g><g><path class="cls-1" d="M74.64,46.91s-.06,0-.08-.02l-9.83-5.67c-.05-.03-.08-.08-.08-.14v-11.35c0-.06,.03-.12,.08-.14,.03-.01,.05-.02,.08-.02s.06,0,.08,.02l9.83,5.67c.05,.03,.08,.08,.08,.14v11.35c0,.06-.03,.12-.08,.14-.03,.01-.05,.02-.08,.02Z"/><path class="cls-2" d="M64.81,29.72l9.83,5.67v11.35l-9.83-5.67v-11.35m0-.33c-.06,0-.12,.01-.17,.04-.1,.06-.17,.17-.17,.29v11.35c0,.12,.06,.23,.17,.29l9.83,5.67c.05,.03,.11,.04,.17,.04s.12-.01,.17-.04c.1-.06,.17-.17,.17-.29v-11.35c0-.12-.06-.23-.17-.29l-9.83-5.67c-.05-.03-.11-.04-.17-.04h0Z"/></g></g><g><g><path class="cls-1" d="M52.95,86.31s-.06,0-.08-.02l-9.83-5.67c-.05-.03-.08-.08-.08-.14s.03-.12,.08-.14l9.83-5.67s.05-.02,.08-.02,.06,0,.08,.02l9.83,5.67c.05,.03,.08,.08,.08,.14s-.03,.12-.08,.14l-9.83,5.67s-.05,.02-.08,.02Z"/><path class="cls-2" d="M52.95,74.79l9.83,5.67-9.83,5.67-9.83-5.67,9.83-5.67m0-.33c-.06,0-.12,.01-.17,.04l-9.83,5.67c-.1,.06-.17,.17-.17,.29s.06,.23,.17,.29l9.83,5.67c.05,.03,.11,.04,.17,.04s.12-.01,.17-.04l9.83-5.67c.1-.06,.17-.17,.17-.29s-.06-.23-.17-.29l-9.83-5.67c-.05-.03-.11-.04-.17-.04h0Z"/></g><g><path class="cls-1" d="M52.95,97.65s-.06,0-.08-.02c-.05-.03-.08-.08-.08-.14v-11.35c0-.06,.03-.12,.08-.14l9.83-5.67s.05-.02,.08-.02,.06,0,.08,.02c.05,.03,.08,.08,.08,.14v11.35c0,.06-.03,.12-.08,.14l-9.83,5.67s-.05,.02-.08,.02Z"/><path class="cls-2" d="M62.78,80.47v11.35l-9.83,5.67v-11.35l9.83-5.67m0-.33c-.06,0-.12,.01-.17,.04l-9.83,5.67c-.1,.06-.17,.17-.17,.29v11.35c0,.12,.06,.23,.17,.29,.05,.03,.11,.04,.17,.04s.12-.01,.17-.04l9.83-5.67c.1-.06,.17-.17,.17-.29v-11.35c0-.12-.06-.23-.17-.29-.05-.03-.11-.04-.17-.04h0Z"/></g><g><path class="cls-1" d="M52.94,97.65s-.06,0-.09-.03l-9.26-5.93s-.07-.08-.08-.13l-.57-11.09c0-.06,.03-.12,.08-.15,.03-.02,.06-.02,.09-.02s.06,0,.08,.02l9.83,5.67c.05,.03,.08,.08,.08,.14v11.35c0,.06-.03,.12-.09,.15-.02,.01-.05,.02-.08,.02Z"/><path class="cls-2" d="M43.11,80.47l9.83,5.67v11.35l-9.26-5.93-.57-11.09m0-.33c-.06,0-.12,.02-.17,.05-.1,.06-.17,.18-.16,.3l.57,11.09c0,.11,.06,.21,.15,.26l9.26,5.93c.05,.04,.12,.05,.18,.05,.06,0,.11-.01,.16-.04,.11-.06,.17-.17,.17-.29v-11.35c0-.12-.06-.23-.17-.29l-9.83-5.67c-.05-.03-.11-.04-.17-.04h0Z"/></g></g><g><g><path class="cls-1" d="M25.94,50.31s-.06,0-.08-.02l-9.83-5.67c-.05-.03-.08-.08-.08-.14s.03-.12,.08-.14l9.83-5.67s.05-.02,.08-.02,.06,0,.08,.02l9.83,5.67c.05,.03,.08,.08,.08,.14s-.03,.12-.08,.14l-9.83,5.67s-.05,.02-.08,.02Z"/><path class="cls-2" d="M25.94,38.79l9.83,5.67-9.83,5.67-9.83-5.67,9.83-5.67m0-.33c-.06,0-.12,.01-.17,.04l-9.83,5.67c-.1,.06-.17,.17-.17,.29s.06,.23,.17,.29l9.83,5.67c.05,.03,.11,.04,.17,.04s.12-.01,.17-.04l9.83-5.67c.1-.06,.17-.17,.17-.29s-.06-.23-.17-.29l-9.83-5.67c-.05-.03-.11-.04-.17-.04h0Z"/></g><g><path class="cls-1" d="M25.94,61.66s-.06,0-.08-.02c-.05-.03-.08-.08-.08-.14v-11.35c0-.06,.03-.12,.08-.14l9.83-5.67s.05-.02,.08-.02,.06,0,.08,.02c.05,.03,.08,.08,.08,.14v11.35c0,.06-.03,.12-.08,.14l-9.83,5.67s-.05,.02-.08,.02Z"/><path class="cls-2" d="M35.77,44.47v11.35l-9.83,5.67v-11.35l9.83-5.67m0-.33c-.06,0-.12,.01-.17,.04l-9.83,5.67c-.1,.06-.17,.17-.17,.29v11.35c0,.12,.06,.23,.17,.29,.05,.03,.11,.04,.17,.04s.12-.01,.17-.04l9.83-5.67c.1-.06,.17-.17,.17-.29v-11.35c0-.12-.06-.23-.17-.29-.05-.03-.11-.04-.17-.04h0Z"/></g><g><path class="cls-1" d="M25.94,61.66s-.06,0-.08-.02l-9.83-5.67c-.05-.03-.08-.08-.08-.14v-11.35c0-.06,.03-.12,.08-.14,.03-.01,.05-.02,.08-.02s.06,0,.08,.02l9.83,5.67c.05,.03,.08,.08,.08,.14v11.35c0,.06-.03,.12-.08,.14-.03,.01-.05,.02-.08,.02Z"/><path class="cls-2" d="M16.11,44.47l9.83,5.67v11.35l-9.83-5.67v-11.35m0-.33c-.06,0-.12,.01-.17,.04-.1,.06-.17,.17-.17,.29v11.35c0,.12,.06,.23,.17,.29l9.83,5.67c.05,.03,.11,.04,.17,.04s.12-.01,.17-.04c.1-.06,.17-.17,.17-.29v-11.35c0-.12-.06-.23-.17-.29l-9.83-5.67c-.05-.03-.11-.04-.17-.04h0Z"/></g></g><g><g><path class="cls-3" d="M84.2,57.94s-.06,0-.08-.02l-9.83-5.67c-.05-.03-.08-.08-.08-.14s.03-.12,.08-.14l9.83-5.67s.05-.02,.08-.02,.06,0,.08,.02l9.83,5.67c.05,.03,.08,.08,.08,.14s-.03,.12-.08,.14l-9.83,5.67s-.05,.02-.08,.02Z"/><path class="cls-4" d="M84.2,46.43l9.83,5.67-9.83,5.67-9.83-5.67,9.83-5.67m0-.33c-.06,0-.12,.01-.17,.04l-9.83,5.67c-.1,.06-.17,.17-.17,.29s.06,.23,.17,.29l9.83,5.67c.05,.03,.11,.04,.17,.04s.12-.01,.17-.04l9.83-5.67c.1-.06,.17-.17,.17-.29s-.06-.23-.17-.29l-9.83-5.67c-.05-.03-.11-.04-.17-.04h0Z"/></g><g><path class="cls-3" d="M84.2,69.29s-.06,0-.08-.02c-.05-.03-.08-.08-.08-.14v-11.35c0-.06,.03-.12,.08-.14l9.83-5.67s.05-.02,.08-.02,.06,0,.08,.02c.05,.03,.08,.08,.08,.14v11.35c0,.06-.03,.12-.08,.14l-9.83,5.67s-.05,.02-.08,.02Z"/><path class="cls-4" d="M94.04,52.1v11.35l-9.83,5.67v-11.35l9.83-5.67m0-.33c-.06,0-.12,.01-.17,.04l-9.83,5.67c-.1,.06-.17,.17-.17,.29v11.35c0,.12,.06,.23,.17,.29,.05,.03,.11,.04,.17,.04s.12-.01,.17-.04l9.83-5.67c.1-.06,.17-.17,.17-.29v-11.35c0-.12-.06-.23-.17-.29-.05-.03-.11-.04-.17-.04h0Z"/></g><g><path class="cls-3" d="M84.2,69.29s-.06,0-.08-.02l-9.83-5.67c-.05-.03-.08-.08-.08-.14v-11.35c0-.06,.03-.12,.08-.14,.03-.01,.05-.02,.08-.02s.06,0,.08,.02l9.83,5.67c.05,.03,.08,.08,.08,.14v11.35c0,.06-.03,.12-.08,.14-.03,.01-.05,.02-.08,.02Z"/><path class="cls-4" d="M74.37,52.1l9.83,5.67v11.35l-9.83-5.67v-11.35m0-.33c-.06,0-.12,.01-.17,.04-.1,.06-.17,.17-.17,.29v11.35c0,.12,.06,.23,.17,.29l9.83,5.67c.05,.03,.11,.04,.17,.04s.12-.01,.17-.04c.1-.06,.17-.17,.17-.29v-11.35c0-.12-.06-.23-.17-.29l-9.83-5.67c-.05-.03-.11-.04-.17-.04h0Z"/></g></g><g><g><path class="cls-1" d="M103.87,57.94s-.06,0-.08-.02l-9.83-5.67c-.05-.03-.08-.08-.08-.14s.03-.12,.08-.14l9.83-5.67s.05-.02,.08-.02,.06,0,.08,.02l9.83,5.67c.05,.03,.08,.08,.08,.14s-.03,.12-.08,.14l-9.83,5.67s-.05,.02-.08,.02Z"/><path class="cls-4" d="M103.87,46.43l9.83,5.67-9.83,5.67-9.83-5.67,9.83-5.67m0-.33c-.06,0-.12,.01-.17,.04l-9.83,5.67c-.1,.06-.17,.17-.17,.29s.06,.23,.17,.29l9.83,5.67c.05,.03,.11,.04,.17,.04s.12-.01,.17-.04l9.83-5.67c.1-.06,.17-.17,.17-.29s-.06-.23-.17-.29l-9.83-5.67c-.05-.03-.11-.04-.17-.04h0Z"/></g><g><path class="cls-1" d="M103.87,69.29s-.06,0-.08-.02c-.05-.03-.08-.08-.08-.14v-11.35c0-.06,.03-.12,.08-.14l9.83-5.67s.05-.02,.08-.02,.06,0,.08,.02c.05,.03,.08,.08,.08,.14v11.35c0,.06-.03,.12-.08,.14l-9.83,5.67s-.05,.02-.08,.02Z"/><path class="cls-4" d="M113.7,52.1v11.35l-9.83,5.67v-11.35l9.83-5.67m0-.33c-.06,0-.12,.01-.17,.04l-9.83,5.67c-.1,.06-.17,.17-.17,.29v11.35c0,.12,.06,.23,.17,.29,.05,.03,.11,.04,.17,.04s.12-.01,.17-.04l9.83-5.67c.1-.06,.17-.17,.17-.29v-11.35c0-.12-.06-.23-.17-.29-.05-.03-.11-.04-.17-.04h0Z"/></g><g><path class="cls-1" d="M103.87,69.29s-.06,0-.08-.02l-9.83-5.67c-.05-.03-.08-.08-.08-.14v-11.35c0-.06,.03-.12,.08-.14,.03-.01,.05-.02,.08-.02s.06,0,.08,.02l9.83,5.67c.05,.03,.08,.08,.08,.14v11.35c0,.06-.03,.12-.08,.14-.03,.01-.05,.02-.08,.02Z"/><path class="cls-4" d="M94.04,52.1l9.83,5.67v11.35l-9.83-5.67v-11.35m0-.33c-.06,0-.12,.01-.17,.04-.1,.06-.17,.17-.17,.29v11.35c0,.12,.06,.23,.17,.29l9.83,5.67c.05,.03,.11,.04,.17,.04s.12-.01,.17-.04c.1-.06,.17-.17,.17-.29v-11.35c0-.12-.06-.23-.17-.29l-9.83-5.67c-.05-.03-.11-.04-.17-.04h0Z"/></g></g><g><g><path class="cls-3" d="M94.04,63.61s-.06,0-.08-.02l-9.83-5.67c-.05-.03-.08-.08-.08-.14s.03-.12,.08-.14l9.83-5.67s.05-.02,.08-.02,.06,0,.08,.02l9.83,5.67c.05,.03,.08,.08,.08,.14s-.03,.12-.08,.14l-9.83,5.67s-.05,.02-.08,.02Z"/><path class="cls-4" d="M94.04,52.1l9.83,5.67-9.83,5.67-9.83-5.67,9.83-5.67m0-.33c-.06,0-.12,.01-.17,.04l-9.83,5.67c-.1,.06-.17,.17-.17,.29s.06,.23,.17,.29l9.83,5.67c.05,.03,.11,.04,.17,.04s.12-.01,.17-.04l9.83-5.67c.1-.06,.17-.17,.17-.29s-.06-.23-.17-.29l-9.83-5.67c-.05-.03-.11-.04-.17-.04h0Z"/></g><g><path class="cls-3" d="M94.04,74.96s-.06,0-.08-.02c-.05-.03-.08-.08-.08-.14v-11.35c0-.06,.03-.12,.08-.14l9.83-5.67s.05-.02,.08-.02,.06,0,.08,.02c.05,.03,.08,.08,.08,.14v11.35c0,.06-.03,.12-.08,.14l-9.83,5.67s-.05,.02-.08,.02Z"/><path class="cls-4" d="M103.87,57.77v11.35l-9.83,5.67v-11.35l9.83-5.67m0-.33c-.06,0-.12,.01-.17,.04l-9.83,5.67c-.1,.06-.17,.17-.17,.29v11.35c0,.12,.06,.23,.17,.29,.05,.03,.11,.04,.17,.04s.12-.01,.17-.04l9.83-5.67c.1-.06,.17-.17,.17-.29v-11.35c0-.12-.06-.23-.17-.29-.05-.03-.11-.04-.17-.04h0Z"/></g><g><path class="cls-3" d="M94.04,74.96s-.06,0-.08-.02l-9.83-5.67c-.05-.03-.08-.08-.08-.14v-11.35c0-.06,.03-.12,.08-.14,.03-.01,.05-.02,.08-.02s.06,0,.08,.02l9.83,5.67c.05,.03,.08,.08,.08,.14v11.35c0,.06-.03,.12-.08,.14-.03,.01-.05,.02-.08,.02Z"/><path class="cls-4" d="M84.2,57.77l9.83,5.67v11.35l-9.83-5.67v-11.35m0-.33c-.06,0-.12,.01-.17,.04-.1,.06-.17,.17-.17,.29v11.35c0,.12,.06,.23,.17,.29l9.83,5.67c.05,.03,.11,.04,.17,.04s.12-.01,.17-.04c.1-.06,.17-.17,.17-.29v-11.35c0-.12-.06-.23-.17-.29l-9.83-5.67c-.05-.03-.11-.04-.17-.04h0Z"/></g></g><line class="cls-7" x1="74.64" y1="79.78" x2="65.01" y2="85.46"/><line class="cls-7" x1="64.81" y1="63.08" x2="33.57" y2="60.04"/><line class="cls-7" x1="123.81" y1="62.55" x2="138.46" y2="48.29"/><g><g><path class="cls-1" d="M145.64,37.57s-.06,0-.08-.02l-9.83-5.67c-.05-.03-.08-.08-.08-.14s.03-.12,.08-.14l9.83-5.67s.05-.02,.08-.02,.06,0,.08,.02l9.83,5.67c.05,.03,.08,.08,.08,.14s-.03,.12-.08,.14l-9.83,5.67s-.05,.02-.08,.02Z"/><path class="cls-2" d="M145.64,26.06l9.83,5.67-9.83,5.67-9.83-5.67,9.83-5.67m0-.33c-.06,0-.12,.01-.17,.04l-9.83,5.67c-.1,.06-.17,.17-.17,.29s.06,.23,.17,.29l9.83,5.67c.05,.03,.11,.04,.17,.04s.12-.01,.17-.04l9.83-5.67c.1-.06,.17-.17,.17-.29s-.06-.23-.17-.29l-9.83-5.67c-.05-.03-.11-.04-.17-.04h0Z"/></g><g><path class="cls-1" d="M145.64,48.92s-.06,0-.08-.02c-.05-.03-.08-.08-.08-.14v-11.35c0-.06,.03-.12,.08-.14l9.83-5.67s.05-.02,.08-.02,.06,0,.08,.02c.05,.03,.08,.08,.08,.14v11.35c0,.06-.03,.12-.08,.14l-9.83,5.67s-.05,.02-.08,.02Z"/><path class="cls-2" d="M155.47,31.73v11.35l-9.83,5.67v-11.35l9.83-5.67m0-.33c-.06,0-.12,.01-.17,.04l-9.83,5.67c-.1,.06-.17,.17-.17,.29v11.35c0,.12,.06,.23,.17,.29,.05,.03,.11,.04,.17,.04s.12-.01,.17-.04l9.83-5.67c.1-.06,.17-.17,.17-.29v-11.35c0-.12-.06-.23-.17-.29-.05-.03-.11-.04-.17-.04h0Z"/></g><g><path class="cls-1" d="M145.64,48.92s-.06,0-.08-.02l-9.83-5.67c-.05-.03-.08-.08-.08-.14v-11.35c0-.06,.03-.12,.08-.14,.03-.01,.05-.02,.08-.02s.06,0,.08,.02l9.83,5.67c.05,.03,.08,.08,.08,.14v11.35c0,.06-.03,.12-.08,.14-.03,.01-.05,.02-.08,.02Z"/><path class="cls-2" d="M135.8,31.73l9.83,5.67v11.35l-9.83-5.67v-11.35m0-.33c-.06,0-.12,.01-.17,.04-.1,.06-.17,.17-.17,.29v11.35c0,.12,.06,.23,.17,.29l9.83,5.67c.05,.03,.11,.04,.17,.04s.12-.01,.17-.04c.1-.06,.17-.17,.17-.29v-11.35c0-.12-.06-.23-.17-.29l-9.83-5.67c-.05-.03-.11-.04-.17-.04h0Z"/></g></g><line class="cls-7" x1="123.81" y1="73.9" x2="138.49" y2="74.24"/><g><g><path class="cls-1" d="M152.11,69.29s-.06,0-.08-.02l-9.83-5.67c-.05-.03-.08-.08-.08-.14s.03-.12,.08-.14l9.83-5.67s.05-.02,.08-.02,.06,0,.08,.02l9.83,5.67c.05,.03,.08,.08,.08,.14s-.03,.12-.08,.14l-9.83,5.67s-.05,.02-.08,.02Z"/><path class="cls-2" d="M152.11,57.77l9.83,5.67-9.83,5.67-9.83-5.67,9.83-5.67m0-.33c-.06,0-.12,.01-.17,.04l-9.83,5.67c-.1,.06-.17,.17-.17,.29s.06,.23,.17,.29l9.83,5.67c.05,.03,.11,.04,.17,.04s.12-.01,.17-.04l9.83-5.67c.1-.06,.17-.17,.17-.29s-.06-.23-.17-.29l-9.83-5.67c-.05-.03-.11-.04-.17-.04h0Z"/></g><g><path class="cls-1" d="M152.11,80.63s-.06,0-.08-.02c-.05-.03-.08-.08-.08-.14v-11.35c0-.06,.03-.12,.08-.14l9.83-5.67s.05-.02,.08-.02,.06,0,.08,.02c.05,.03,.08,.08,.08,.14v11.35c0,.06-.03,.12-.08,.14l-9.83,5.67s-.05,.02-.08,.02Z"/><path class="cls-2" d="M161.94,63.45v11.35l-9.83,5.67v-11.35l9.83-5.67m0-.33c-.06,0-.12,.01-.17,.04l-9.83,5.67c-.1,.06-.17,.17-.17,.29v11.35c0,.12,.06,.23,.17,.29,.05,.03,.11,.04,.17,.04s.12-.01,.17-.04l9.83-5.67c.1-.06,.17-.17,.17-.29v-11.35c0-.12-.06-.23-.17-.29-.05-.03-.11-.04-.17-.04h0Z"/></g><g><path class="cls-1" d="M152.11,80.63s-.06,0-.08-.02l-9.83-5.67c-.05-.03-.08-.08-.08-.14v-11.35c0-.06,.03-.12,.08-.14,.03-.01,.05-.02,.08-.02s.06,0,.08,.02l9.83,5.67c.05,.03,.08,.08,.08,.14v11.35c0,.06-.03,.12-.08,.14-.03,.01-.05,.02-.08,.02Z"/><path class="cls-2" d="M142.28,63.45l9.83,5.67v11.35l-9.83-5.67v-11.35m0-.33c-.06,0-.12,.01-.17,.04-.1,.06-.17,.17-.17,.29v11.35c0,.12,.06,.23,.17,.29l9.83,5.67c.05,.03,.11,.04,.17,.04s.12-.01,.17-.04c.1-.06,.17-.17,.17-.29v-11.35c0-.12-.06-.23-.17-.29l-9.83-5.67c-.05-.03-.11-.04-.17-.04h0Z"/></g></g></svg>