<svg width="1920" height="1080" viewBox="0 0 1920 1080" fill="none" xmlns="http://www.w3.org/2000/svg"><g clip-path="url(#clip0_13_5285)"><path d="M1132.9 818.7H1150.5" stroke="#003B2F" stroke-width="3" stroke-linecap="round" stroke-linejoin="round"/><path d="M1059.1 773.9H1186.7" stroke="#03FC9D" stroke-width="3" stroke-linecap="round" stroke-linejoin="round"/><path d="M1173.3 818.6H1244.6" stroke="#003B2F" stroke-width="3" stroke-linecap="round" stroke-linejoin="round"/><path d="M1514.3 920.9H1646.4C1660.98 920.9 1672.8 909.103 1672.8 894.55C1672.8 879.997 1660.98 868.2 1646.4 868.2H1514.3C1499.72 868.2 1487.9 879.997 1487.9 894.55C1487.9 909.103 1499.72 920.9 1514.3 920.9Z" fill="#E6E8EA"/><path d="M1579.8 990.3H1794.9C1816.77 990.3 1834.5 972.57 1834.5 950.7V946C1834.5 924.129 1816.77 906.4 1794.9 906.4H1579.8C1557.93 906.4 1540.2 924.129 1540.2 946V950.7C1540.2 972.57 1557.93 990.3 1579.8 990.3Z" fill="#03FC9D"/><path d="M1683.2 889.9L1696.1 902.8" stroke="#003B2F" stroke-width="3" stroke-linecap="round" stroke-linejoin="round"/><path d="M1705.5 912.2L1718.4 925.1" stroke="#003B2F" stroke-width="3" stroke-linecap="round" stroke-linejoin="round"/><path d="M1683.2 925.1L1696.1 912.2" stroke="#003B2F" stroke-width="3" stroke-linecap="round" stroke-linejoin="round"/><path d="M1705.5 902.8L1718.4 889.9" stroke="#003B2F" stroke-width="3" stroke-linecap="round" stroke-linejoin="round"/><path d="M1672.5 147.9L1696.1 161.5" stroke="#003B2F" stroke-width="3" stroke-linecap="round" stroke-linejoin="round"/><path d="M1719.7 147.9L1705.8 155.9" stroke="#003B2F" stroke-width="3" stroke-linecap="round" stroke-linejoin="round"/><path d="M1696.1 161.5V189.1" stroke="#003B2F" stroke-width="3" stroke-linecap="round" stroke-linejoin="round"/><path d="M1570.6 299.4H1636.6" stroke="#003B2F" stroke-width="3" stroke-linecap="round" stroke-linejoin="round"/><path d="M1520.4 299.4H1537.1" stroke="#003B2F" stroke-width="3" stroke-linecap="round" stroke-linejoin="round"/><path d="M1580.2 251.9H1751.2" stroke="#03FC9D" stroke-width="3" stroke-linecap="round" stroke-linejoin="round"/><path d="M1645 579.3L1660.6 594.9" stroke="#003B2F" stroke-width="3" stroke-linecap="round" stroke-linejoin="round"/><path d="M1672 606.3L1687.5 621.9" stroke="#003B2F" stroke-width="3" stroke-linecap="round" stroke-linejoin="round"/><path d="M1645 621.9L1660.6 606.3" stroke="#003B2F" stroke-width="3" stroke-linecap="round" stroke-linejoin="round"/><path d="M1672 594.9L1687.5 579.3" stroke="#003B2F" stroke-width="3" stroke-linecap="round" stroke-linejoin="round"/><path d="M232.5 863.1H183.9C199.3 863.1 211.8 851.8 211.8 837.8C211.8 823.8 199.3 812.5 183.9 812.5H44.2001C28.8001 812.5 16.3001 823.8 16.3001 837.8H-26.4999C-41.8999 837.8 -54.3999 849.1 -54.3999 863.1C-54.3999 877.1 -41.8999 888.4 -26.4999 888.4H65.0001C65.0001 902.4 77.5001 913.7 92.9001 913.7H232.6C248 913.7 260.5 902.4 260.5 888.4C260.5 874.4 248 863.1 232.6 863.1H232.5Z" fill="#E6E8EA"/><path d="M435.4 217.4H386.8C402.2 217.4 414.7 204.9 414.7 189.5C414.7 174.1 402.2 161.6 386.8 161.6H247.1C231.7 161.6 219.2 174.1 219.2 189.5H176.3C160.9 189.5 148.4 202 148.4 217.4C148.4 232.8 160.9 245.3 176.3 245.3H267.8C267.8 260.7 280.3 273.2 295.7 273.2H435.4C450.8 273.2 463.3 260.7 463.3 245.3C463.3 229.9 450.8 217.4 435.4 217.4Z" fill="#E6E8EA"/><path d="M280.6 435.9L305.9 450.5" stroke="#003B2F" stroke-width="3" stroke-linecap="round" stroke-linejoin="round"/><path d="M331.1 435.9L316.3 444.5" stroke="#003B2F" stroke-width="3" stroke-linecap="round" stroke-linejoin="round"/><path d="M305.9 450.5V479.9" stroke="#003B2F" stroke-width="3" stroke-linecap="round" stroke-linejoin="round"/><path d="M71.6001 618H254.4" stroke="#03FC9D" stroke-width="3" stroke-linecap="round" stroke-linejoin="round"/><path d="M214.6 697.1H355.6" stroke="#003B2F" stroke-width="3" stroke-linecap="round" stroke-linejoin="round"/><path d="M605.9 168.5V192.1" stroke="#003B2F" stroke-width="3" stroke-linecap="round" stroke-linejoin="round"/><path d="M605.9 209.3V232.9" stroke="#003B2F" stroke-width="3" stroke-linecap="round" stroke-linejoin="round"/><path d="M573.7 200.7H597.2" stroke="#003B2F" stroke-width="3" stroke-linecap="round" stroke-linejoin="round"/><path d="M614.5 200.7H638" stroke="#003B2F" stroke-width="3" stroke-linecap="round" stroke-linejoin="round"/><path d="M14.4003 310.9L257.3 310.9C284.086 310.9 305.8 289.208 305.8 262.45C305.8 235.692 284.086 214 257.3 214L14.4003 214C-12.3855 214 -34.0997 235.692 -34.0997 262.45C-34.0997 289.208 -12.3855 310.9 14.4003 310.9Z" fill="#03FC9D"/><path d="M686.1 711.7C681.2 700.4 682.3 689.3 688.5 681.7V661.7C674.1 643.7 679.4 623.9 688.5 616.8V444.3C688.5 434.9 680.9 427.4 671.6 427.4H535.5C526.1 427.4 518.6 435 518.6 444.3V688.8C530 707.6 543.3 737.6 543.1 774H671.6C681 774 688.5 766.4 688.5 757.1V716.5C687.6 715.1 686.8 713.5 686.1 711.8V711.7Z" fill="#E6E8EA"/><path d="M417.8 816.9C413 839.5 300.2 1012.9 300.2 1012.9" stroke="#003B2F" stroke-width="3" stroke-linecap="round" stroke-linejoin="round"/><path d="M700.2 751.9C704.7 746.7 711 740.2 714.6 737C716.4 735.4 718 733.9 719.5 732.4" stroke="#003B2F" stroke-width="3" stroke-linecap="round" stroke-linejoin="round"/><path d="M523.3 1012.9L568 904.4C623.2 894.9 664 814.4 677.6 784.2" stroke="#003B2F" stroke-width="3" stroke-linecap="round" stroke-linejoin="round"/><path d="M775.1 978.3H930.3C947.366 978.3 961.2 964.465 961.2 947.4V947.3C961.2 930.234 947.366 916.4 930.3 916.4H775.1C758.035 916.4 744.2 930.234 744.2 947.3V947.4C744.2 964.465 758.035 978.3 775.1 978.3Z" fill="#03FC9D"/><path d="M841 941.6H966.3C980.107 941.6 991.3 930.407 991.3 916.6C991.3 902.792 980.107 891.6 966.3 891.6H841C827.193 891.6 816 902.792 816 916.6C816 930.407 827.193 941.6 841 941.6Z" fill="#03FC9D"/><path d="M868.2 1004.9H993.5C1007.31 1004.9 1018.5 993.707 1018.5 979.9C1018.5 966.093 1007.31 954.9 993.5 954.9H868.2C854.393 954.9 843.2 966.093 843.2 979.9C843.2 993.707 854.393 1004.9 868.2 1004.9Z" fill="#03FC9D"/><path d="M856.5 350.9L870.8 365.2" stroke="#003B2F" stroke-width="3" stroke-linecap="round" stroke-linejoin="round"/><path d="M881.3 375.7L895.7 390.1" stroke="#003B2F" stroke-width="3" stroke-linecap="round" stroke-linejoin="round"/><path d="M856.5 390.1L870.8 375.7" stroke="#003B2F" stroke-width="3" stroke-linecap="round" stroke-linejoin="round"/><path d="M881.3 365.2L895.7 350.9" stroke="#003B2F" stroke-width="3" stroke-linecap="round" stroke-linejoin="round"/><path d="M700.5 485.3C700.5 485.3 714.4 483.3 720.6 499.5C725.4 512.3 725.5 529.2 700.7 546.7" stroke="#003B2F" stroke-width="3" stroke-linecap="round" stroke-linejoin="round"/><path d="M700.2 563.1C713.4 552.7 739.3 536.2 752.3 552.6C766.4 570.4 749.8 589 711.9 621.2" stroke="#003B2F" stroke-width="3" stroke-linecap="round" stroke-linejoin="round"/><path d="M730.8 665.7L721.8 685.8" stroke="#003B2F" stroke-width="3" stroke-linecap="round" stroke-linejoin="round"/><path d="M699.7 494H701.2C702.6 494 703.8 495.2 703.8 496.6V529.4C703.8 530.8 702.6 532 701.2 532H699.7V494Z" fill="#003B2F"/><path d="M505.5 499H507V527H505.5C504.1 527 502.9 525.8 502.9 524.4V501.6C502.9 500.2 504.1 499 505.5 499Z" fill="#003B2F"/><path d="M417.8 816.9C417.8 816.9 417.4 741.9 420.7 704.9C421.3 698.6 422.7 692.4 425 686.5C439 650.8 449.5 617.5 457 602.5C484.8 546.4 471.3 519.9 486.4 518.4C499.3 517.2 515.3 524.4 515.3 573.8C515.3 607.5 508.7 622 508.7 622C508.7 622 510.4 643.7 503 667.1C503 667.1 543.4 710.9 543.1 773.9C542.9 803 535.1 822.4 523.3 834.4" stroke="#003B2F" stroke-width="3" stroke-linecap="round" stroke-linejoin="round"/><path d="M707 731.5C707 731.5 693 727.7 686 711.6C679.1 695.5 684.1 679.6 699.2 674.3C709 670.5 733.9 694 732.9 705.6C732.1 715.3 728.2 723.3 719.5 732.3" stroke="#003B2F" stroke-width="3" stroke-linecap="round" stroke-linejoin="round"/><path d="M700.2 613.9V443.4C700.2 428.8 688.3 416.9 673.7 416.9H533.3C518.7 416.9 506.8 428.8 506.8 443.4V528.8C511.8 536.9 515.3 550.8 515.3 573.8C515.3 607.5 508.7 622 508.7 622C508.7 622 509.7 634.7 506.8 651.1V671.8C516.9 684.6 543.3 723 543 774C543 777.6 542.8 781 542.6 784.3H673.7C688.3 784.3 700.2 772.4 700.2 757.8V728.4" stroke="#003B2F" stroke-width="3" stroke-linecap="round" stroke-linejoin="round"/><path d="M730.8 665.7C735 649.8 711.9 621.2 711.9 621.2C711.9 621.2 702.2 609.5 691 615.1C679.8 620.7 671.8 644.8 691.6 665.3C691.6 665.3 699.2 672.7 707.9 675.6" stroke="#003B2F" stroke-width="3" stroke-linecap="round" stroke-linejoin="round"/><path d="M1196.7 503.9C1201.6 492.6 1200.5 481.5 1194.3 473.9V453.9C1208.7 435.9 1203.4 416.1 1194.3 409V236.5C1194.3 227.1 1201.9 219.6 1211.2 219.6H1347.3C1356.7 219.6 1364.2 227.2 1364.2 236.5V481C1352.8 499.8 1339.5 529.8 1339.7 566.2H1211.2C1201.8 566.2 1194.3 558.6 1194.3 549.3V508.7C1195.2 507.3 1196 505.7 1196.7 504V503.9Z" fill="#E6E8EA"/><path d="M1464.9 609.1C1469.7 631.7 1582.5 805.1 1582.5 805.1" stroke="#003B2F" stroke-width="3" stroke-linecap="round" stroke-linejoin="round"/><path d="M1182.6 544.1C1178.1 538.9 1171.8 532.4 1168.2 529.2C1166.4 527.6 1164.8 526.1 1163.3 524.6" stroke="#003B2F" stroke-width="3" stroke-linecap="round" stroke-linejoin="round"/><path d="M1359.5 805.1L1314.8 696.6C1259.6 687.1 1218.8 606.6 1205.2 576.4" stroke="#003B2F" stroke-width="3" stroke-linecap="round" stroke-linejoin="round"/><path d="M1182.2 277.5C1182.2 277.5 1168.3 275.5 1162.1 291.7C1157.3 304.5 1157.2 321.4 1182 338.9" stroke="#003B2F" stroke-width="3" stroke-linecap="round" stroke-linejoin="round"/><path d="M1182.6 355.3C1169.4 344.9 1143.5 328.4 1130.5 344.8C1116.4 362.6 1133 381.2 1170.9 413.4" stroke="#003B2F" stroke-width="3" stroke-linecap="round" stroke-linejoin="round"/><path d="M1151.9 457.9L1160.9 478.1" stroke="#003B2F" stroke-width="3" stroke-linecap="round" stroke-linejoin="round"/><path d="M1183 324.2H1181.5C1180.1 324.2 1178.9 323 1178.9 321.6V288.8C1178.9 287.4 1180.1 286.2 1181.5 286.2H1183V324.2Z" fill="#003B2F"/><path d="M1377.2 319.2H1375.7V291.2H1377.2C1378.6 291.2 1379.8 292.4 1379.8 293.8V316.6C1379.8 318 1378.6 319.2 1377.2 319.2Z" fill="#003B2F"/><path d="M1464.9 609.1C1464.9 609.1 1465.3 534.1 1462 497.1C1461.4 490.8 1460 484.6 1457.7 478.7C1443.7 443 1433.2 409.7 1425.7 394.7C1397.9 338.6 1411.4 312.1 1396.3 310.6C1383.4 309.4 1367.4 316.6 1367.4 366C1367.4 399.7 1374 414.2 1374 414.2C1374 414.2 1372.3 435.9 1379.7 459.3C1379.7 459.3 1339.3 503.1 1339.6 566.1C1339.8 595.2 1347.6 614.6 1359.4 626.6" stroke="#003B2F" stroke-width="3" stroke-linecap="round" stroke-linejoin="round"/><path d="M1175.7 523.8C1175.7 523.8 1189.7 520 1196.7 503.9C1203.6 487.8 1198.6 471.9 1183.5 466.6C1173.7 462.8 1148.8 486.3 1149.8 497.9C1150.6 507.6 1154.5 515.6 1163.2 524.6" stroke="#003B2F" stroke-width="3" stroke-linecap="round" stroke-linejoin="round"/><path d="M1182.6 406.2V235.7C1182.6 221.1 1194.5 209.2 1209.1 209.2H1349.5C1364.1 209.2 1376 221.1 1376 235.7V321.1C1371 329.2 1367.5 343.1 1367.5 366.1C1367.5 399.8 1374.1 414.3 1374.1 414.3C1374.1 414.3 1373.1 427 1376 443.4V464.1C1365.9 476.9 1339.5 515.3 1339.8 566.3C1339.8 569.9 1340 573.3 1340.2 576.6H1209.1C1194.5 576.6 1182.6 564.7 1182.6 550.1V520.7" stroke="#003B2F" stroke-width="3" stroke-linecap="round" stroke-linejoin="round"/><path d="M1151.9 457.9C1147.7 442 1170.8 413.4 1170.8 413.4C1170.8 413.4 1180.5 401.7 1191.7 407.3C1202.9 412.9 1210.9 437 1191.1 457.5C1191.1 457.5 1183.5 464.9 1174.8 467.8" stroke="#003B2F" stroke-width="3" stroke-linecap="round" stroke-linejoin="round"/><path d="M1243.3 423.8V371.1C1243.3 370.4 1244 369.8 1244.7 369.8H1247.5C1248.3 369.8 1249 369.1 1249 368.3V361.7C1249 360.9 1248.3 360.2 1247.5 360.2H1226.9C1226.1 360.2 1225.4 360.9 1225.4 361.7V368.3C1225.4 369.1 1226.1 369.8 1226.9 369.8H1229.7C1230.4 369.8 1231 370.4 1231 371.1V423.8" stroke="#003B2F" stroke-width="3" stroke-linecap="round" stroke-linejoin="round"/><path d="M1271.4 424V371.1C1271.4 370.4 1272.1 369.8 1272.8 369.8H1275.6C1276.4 369.8 1277.1 369.1 1277.1 368.3V361.7C1277.1 360.9 1276.4 360.2 1275.6 360.2H1255C1254.2 360.2 1253.5 360.9 1253.5 361.7V368.3C1253.5 369.1 1254.2 369.8 1255 369.8H1257.8C1258.5 369.8 1259.1 370.4 1259.1 371.1V424" stroke="#003B2F" stroke-width="3" stroke-linecap="round" stroke-linejoin="round"/><path d="M1299.5 423.5V370.6C1299.5 369.9 1300.2 369.3 1300.9 369.3H1303.7C1304.5 369.3 1305.2 368.6 1305.2 367.8V361.2C1305.2 360.4 1304.5 359.7 1303.7 359.7H1283.1C1282.3 359.7 1281.6 360.4 1281.6 361.2V367.8C1281.6 368.6 1282.3 369.3 1283.1 369.3H1285.9C1286.6 369.3 1287.2 369.9 1287.2 370.6V423.5" stroke="#003B2F" stroke-width="3" stroke-linecap="round" stroke-linejoin="round"/><path d="M1327.6 423.8V370.6C1327.6 369.9 1328.3 369.3 1329 369.3H1331.8C1332.6 369.3 1333.3 368.6 1333.3 367.8V361.2C1333.3 360.4 1332.6 359.7 1331.8 359.7H1311.2C1310.4 359.7 1309.7 360.4 1309.7 361.2V367.8C1309.7 368.6 1310.4 369.3 1311.2 369.3H1314C1314.7 369.3 1315.3 369.9 1315.3 370.6V423.5" stroke="#003B2F" stroke-width="3" stroke-linecap="round" stroke-linejoin="round"/><path d="M1352.4 344.7V341.1C1352.4 341.1 1352.2 340.5 1351.9 340.3L1280.3 306.4C1279.8 306.2 1279.2 306.2 1278.7 306.4L1206.4 340.4C1206.4 340.4 1205.9 340.8 1205.9 341.2V344.7V352.6C1205.9 353.2 1206.4 353.7 1207 353.7H1351.2C1351.8 353.7 1352.3 353.2 1352.3 352.6V344.7H1352.4Z" fill="#03FC9D"/><path d="M1352.4 344.7V341.1C1352.4 341.1 1352.2 340.5 1351.9 340.3L1280.3 306.4C1279.8 306.2 1279.2 306.2 1278.7 306.4L1206.4 340.4C1206.4 340.4 1205.9 340.8 1205.9 341.2V344.7V352.6C1205.9 353.2 1206.4 353.7 1207 353.7H1351.2C1351.8 353.7 1352.3 353.2 1352.3 352.6V344.7H1352.4Z" stroke="#003B2F" stroke-width="3" stroke-miterlimit="10"/><path d="M1341.3 423.7H1217.1C1216.44 423.7 1215.9 424.237 1215.9 424.9V434.7C1215.9 435.363 1216.44 435.9 1217.1 435.9H1341.3C1341.96 435.9 1342.5 435.363 1342.5 434.7V424.9C1342.5 424.237 1341.96 423.7 1341.3 423.7Z" fill="#03FC9D" stroke="#003B2F" stroke-width="3" stroke-miterlimit="10"/><path d="M1352.2 435.9H1206.4C1205.68 435.9 1205.1 436.482 1205.1 437.2V446.8C1205.1 447.518 1205.68 448.1 1206.4 448.1H1352.2C1352.92 448.1 1353.5 447.518 1353.5 446.8V437.2C1353.5 436.482 1352.92 435.9 1352.2 435.9Z" fill="#03FC9D" stroke="#003B2F" stroke-width="3" stroke-miterlimit="10"/><path d="M1279.2 342.6C1286.16 342.6 1291.8 336.959 1291.8 330C1291.8 323.041 1286.16 317.4 1279.2 317.4C1272.24 317.4 1266.6 323.041 1266.6 330C1266.6 336.959 1272.24 342.6 1279.2 342.6Z" fill="#E6E8EA" stroke="#003B2F" stroke-width="3" stroke-miterlimit="10"/><path d="M1208.3 343.6H1247.9" stroke="#003B2F" stroke-width="3" stroke-linecap="round" stroke-linejoin="round"/><path d="M1309.6 343.6H1349.2" stroke="#003B2F" stroke-width="3" stroke-linecap="round" stroke-linejoin="round"/><path d="M567.6 647.2V594.5C567.6 593.8 568.3 593.2 569 593.2H571.8C572.6 593.2 573.3 592.5 573.3 591.7V585.1C573.3 584.3 572.6 583.6 571.8 583.6H551.2C550.4 583.6 549.7 584.3 549.7 585.1V591.7C549.7 592.5 550.4 593.2 551.2 593.2H554C554.7 593.2 555.3 593.8 555.3 594.5V647.2" stroke="#003B2F" stroke-width="3" stroke-linecap="round" stroke-linejoin="round"/><path d="M595.7 647.4V594.5C595.7 593.8 596.4 593.2 597.1 593.2H599.9C600.7 593.2 601.4 592.5 601.4 591.7V585.1C601.4 584.3 600.7 583.6 599.9 583.6H579.3C578.5 583.6 577.8 584.3 577.8 585.1V591.7C577.8 592.5 578.5 593.2 579.3 593.2H582.1C582.8 593.2 583.4 593.8 583.4 594.5V647.4" stroke="#003B2F" stroke-width="3" stroke-linecap="round" stroke-linejoin="round"/><path d="M623.8 646.9V594C623.8 593.3 624.5 592.7 625.2 592.7H628C628.8 592.7 629.5 592 629.5 591.2V584.6C629.5 583.8 628.8 583.1 628 583.1H607.4C606.6 583.1 605.9 583.8 605.9 584.6V591.2C605.9 592 606.6 592.7 607.4 592.7H610.2C610.9 592.7 611.5 593.3 611.5 594V646.9" stroke="#003B2F" stroke-width="3" stroke-linecap="round" stroke-linejoin="round"/><path d="M651.8 647.1V593.9C651.8 593.2 652.5 592.6 653.2 592.6H656C656.8 592.6 657.5 591.9 657.5 591.1V584.5C657.5 583.7 656.8 583 656 583H635.4C634.6 583 633.9 583.7 633.9 584.5V591.1C633.9 591.9 634.6 592.6 635.4 592.6H638.2C638.9 592.6 639.5 593.2 639.5 593.9V646.8" stroke="#003B2F" stroke-width="3" stroke-linecap="round" stroke-linejoin="round"/><path d="M676.7 568.1V564.5C676.7 564.5 676.5 563.9 676.2 563.7L604.6 529.8C604.1 529.6 603.5 529.6 603 529.8L530.7 563.8C530.7 563.8 530.2 564.2 530.2 564.6V568.1V576C530.2 576.6 530.7 577.1 531.3 577.1H675.5C676.1 577.1 676.6 576.6 676.6 576V568.1H676.7Z" fill="#03FC9D"/><path d="M676.7 568.1V564.5C676.7 564.5 676.5 563.9 676.2 563.7L604.6 529.8C604.1 529.6 603.5 529.6 603 529.8L530.7 563.8C530.7 563.8 530.2 564.2 530.2 564.6V568.1V576C530.2 576.6 530.7 577.1 531.3 577.1H675.5C676.1 577.1 676.6 576.6 676.6 576V568.1H676.7Z" stroke="#003B2F" stroke-width="3" stroke-miterlimit="10"/><path d="M665.6 647.1H541.4C540.737 647.1 540.2 647.637 540.2 648.3V658.1C540.2 658.763 540.737 659.3 541.4 659.3H665.6C666.263 659.3 666.8 658.763 666.8 658.1V648.3C666.8 647.637 666.263 647.1 665.6 647.1Z" fill="#03FC9D" stroke="#003B2F" stroke-width="3" stroke-miterlimit="10"/><path d="M676.4 659.3H530.6C529.882 659.3 529.3 659.882 529.3 660.6V670.2C529.3 670.918 529.882 671.5 530.6 671.5H676.4C677.118 671.5 677.7 670.918 677.7 670.2V660.6C677.7 659.882 677.118 659.3 676.4 659.3Z" fill="#03FC9D" stroke="#003B2F" stroke-width="3" stroke-miterlimit="10"/><path d="M603.5 566C610.459 566 616.1 560.359 616.1 553.4C616.1 546.441 610.459 540.8 603.5 540.8C596.542 540.8 590.9 546.441 590.9 553.4C590.9 560.359 596.542 566 603.5 566Z" fill="#E6E8EA" stroke="#003B2F" stroke-width="3" stroke-miterlimit="10"/><path d="M532.6 567H572.1" stroke="#003B2F" stroke-width="3" stroke-linecap="round" stroke-linejoin="round"/><path d="M633.9 567H673.4" stroke="#003B2F" stroke-width="3" stroke-linecap="round" stroke-linejoin="round"/><path d="M975.8 264.1C977.8 254.7 987.6 242 994.2 236.7C992.4 238.2 990.8 240 989.3 241.9C986 246.1 983.6 251.2 982.3 257.1C982.3 257.3 982.2 257.5 982.1 257.7C976.1 285.2 995.4 319 1025 333.2C1025.4 333.4 1025.9 333.6 1026.3 333.8C1026.6 333.9 1026.9 334.1 1027.2 334.2C1027.2 334.2 1027.2 334.2 1027.3 334.2C1045.9 342.3 1063.9 340.7 1076 331.4C1077.4 330.3 1078.7 329.1 1080 327.8C1068.3 343 1041.7 350.6 1018.7 339.6C989 325.4 969.8 291.6 975.8 264.1Z" fill="#03FC9D"/><path d="M982.2 257.7C982.2 257.7 982.2 257.3 982.4 257.1C983.7 251.2 986.2 246.1 989.4 241.9C990.9 240 992.5 238.3 994.3 236.7C994.3 236.7 994.5 236.5 994.6 236.5C1007.1 225.9 1026.7 224.1 1046.8 233.7C1076.5 247.9 1095.7 281.7 1089.7 309.2C1088.1 316.7 1084.7 323 1080.1 327.8C1078.9 329.1 1077.5 330.3 1076.1 331.4C1064.1 340.8 1046 342.3 1027.4 334.2C1027.4 334.2 1027.4 334.2 1027.3 334.2C1027 334.1 1026.7 333.9 1026.4 333.8C1026 333.6 1025.5 333.4 1025.1 333.2C995.4 319 976.2 285.2 982.2 257.7Z" fill="#E6E8EA"/><path d="M975.6 263.7C977.6 254.3 987.4 241.6 994 236.3C992.2 237.8 990.6 239.6 989.1 241.5C985.8 245.7 983.4 250.8 982.1 256.7C982.1 256.9 982 257.1 981.9 257.3C975.9 284.8 995.2 318.6 1024.8 332.8C1025.2 333 1025.7 333.2 1026.1 333.4C1026.4 333.5 1026.7 333.7 1027 333.8C1027 333.8 1027 333.8 1027.1 333.8C1045.7 341.9 1063.7 340.3 1075.8 331C1077.2 329.9 1078.5 328.7 1079.8 327.4C1068.1 342.6 1041.5 350.2 1018.5 339.2C988.8 325 969.6 291.2 975.6 263.7Z" stroke="#003B2F" stroke-width="3" stroke-linecap="round" stroke-linejoin="round"/><path d="M982 257.3C982 257.3 982 256.9 982.2 256.7C983.5 250.8 986 245.7 989.2 241.5C990.7 239.6 992.3 237.9 994.1 236.3C994.1 236.3 994.3 236.1 994.4 236.1C1006.9 225.5 1026.5 223.7 1046.6 233.3C1076.3 247.5 1095.5 281.3 1089.5 308.8C1087.9 316.3 1084.5 322.6 1079.9 327.4C1078.7 328.7 1077.3 329.9 1075.9 331C1063.9 340.4 1045.8 341.9 1027.2 333.8C1027.2 333.8 1027.2 333.8 1027.1 333.8C1026.8 333.7 1026.5 333.5 1026.2 333.4C1025.8 333.2 1025.3 333 1024.9 332.8C995.2 318.6 976 284.8 982 257.3Z" stroke="#003B2F" stroke-width="3" stroke-linecap="round" stroke-linejoin="round"/><path d="M1017.3 251.6C1016.4 250.8 1016.6 250 1017.3 249.2C1029.8 243 1046.4 245.8 1058.5 257C1070.6 268.2 1074.7 284.4 1069.5 297.3C1069.1 298.4 1068 298.3 1067.1 297.5L1065 295.5C1064.4 294.9 1064 294.1 1064.2 293.3C1067.8 282.8 1064.4 270.1 1054.7 261.1C1045 252.2 1031.5 249.7 1021.7 254.1C1020.9 254.3 1020.1 254.1 1019.5 253.5L1017.4 251.5L1017.3 251.6Z" fill="#003B2F"/><path d="M1017.7 266.3C1017.1 265.7 1017 264.7 1017.4 264.1L1019.3 262C1019.8 261.5 1020.9 261.5 1021.5 262L1025.1 265.4C1029.5 261.8 1034.2 262.3 1038.9 265.2C1039.5 265.8 1039.9 266.6 1039.4 267.1L1037.2 269.4C1036.7 269.9 1036.2 269.9 1035.3 269.6C1032.7 268.2 1029.9 267.5 1026.8 270.9C1024.4 273.5 1024.2 276.7 1026.7 278.9C1029.2 281.1 1031 280.9 1035 277.9C1040.9 273.3 1045.2 272.4 1050.3 277.2C1054.2 280.8 1054.9 286.2 1052.1 290.4L1055.7 293.8C1056.3 294.4 1056.4 295.4 1056 296L1054.1 298.1C1053.6 298.6 1052.5 298.6 1051.9 298.1L1048.3 294.7C1044.8 297.2 1040.8 297.3 1037 294.7C1036.4 294.1 1036 293.3 1036.5 292.8L1038.4 290.7C1038.9 290.2 1039.4 290.2 1040.3 290.5C1042.9 291.9 1045 291.5 1047.2 289.2C1049.6 286.6 1049.3 283.9 1047.2 282C1045.1 280.1 1043.1 279.7 1038.9 283C1033 287.6 1028.7 288.5 1023.6 283.7C1019.7 280.1 1018.7 274.4 1021.4 269.7L1017.8 266.3H1017.7Z" fill="#003B2F"/><path d="M1004.3 263.1C1004.7 262 1005.8 262.1 1006.7 262.9L1008.8 264.9C1009.4 265.5 1009.8 266.3 1009.6 267.1C1006 277.6 1009.4 290.3 1019.1 299.3C1028.8 308.2 1042.3 310.7 1052.1 306.3C1052.8 306.1 1053.7 306.3 1054.3 306.9L1056.4 308.9C1057.3 309.7 1057.1 310.5 1056.4 311.3C1044.1 317.2 1027.3 314.7 1015.2 303.5C1003.1 292.3 999 276.1 1004.2 263.2L1004.3 263.1Z" fill="#003B2F"/><path d="M875.8 571.2C866.5 568.2 854.7 557 850 549.8C851.4 551.8 853 553.6 854.7 555.3C858.6 559 863.5 562 869.3 564C869.5 564 869.7 564.1 869.9 564.2C897.1 573 933.2 557.1 950.6 528.5C950.9 528.1 951.1 527.7 951.3 527.2C951.5 526.9 951.6 526.6 951.8 526.4C951.8 526.4 951.8 526.4 951.8 526.3C961.9 508.3 962.2 489.9 953.9 476.8C952.9 475.3 951.9 473.8 950.7 472.4C964.9 485.8 969.9 513.4 956.3 535.6C938.9 564.2 902.7 580.1 875.6 571.3L875.8 571.2Z" fill="#03FC9D"/><path d="M870 564C870 564 869.6 563.9 869.4 563.8C863.6 561.8 858.7 558.9 854.8 555.1C853 553.4 851.4 551.6 850.1 549.6C850.1 549.6 850 549.4 849.9 549.3C840.5 535.6 840.7 515.5 852.4 496.2C869.8 467.6 906 451.7 933.1 460.5C940.5 462.9 946.5 466.9 950.9 472.1C952.1 473.5 953.2 474.9 954.1 476.5C962.3 489.6 962.1 508.1 952 526C952 526 952 526 952 526.1C951.8 526.4 951.7 526.7 951.5 526.9C951.3 527.3 951 527.8 950.8 528.2C933.4 556.8 897.2 572.7 870.1 563.9L870 564Z" fill="#E6E8EA"/><path d="M875.3 571.3C866 568.3 854.2 557.1 849.5 549.9C850.9 551.9 852.5 553.7 854.2 555.4C858.1 559.1 863 562.1 868.8 564.1C869 564.1 869.2 564.2 869.4 564.3C896.6 573.1 932.7 557.2 950.1 528.6C950.4 528.2 950.6 527.8 950.8 527.3C951 527 951.1 526.7 951.3 526.5C951.3 526.5 951.3 526.5 951.3 526.4C961.4 508.4 961.7 490 953.4 476.9C952.4 475.4 951.4 473.9 950.2 472.5C964.4 485.9 969.4 513.5 955.8 535.7C938.4 564.3 902.2 580.2 875.1 571.4L875.3 571.3Z" stroke="#003B2F" stroke-width="3" stroke-linecap="round" stroke-linejoin="round"/><path d="M869.5 564.2C869.5 564.2 869.1 564.1 868.9 564C863.1 562 858.2 559.1 854.3 555.3C852.5 553.6 850.9 551.8 849.6 549.8C849.6 549.8 849.5 549.6 849.4 549.5C840 535.8 840.2 515.7 851.9 496.4C869.3 467.8 905.5 451.9 932.6 460.7C940 463.1 946 467.1 950.4 472.3C951.6 473.7 952.7 475.1 953.6 476.7C961.8 489.8 961.6 508.3 951.5 526.2C951.5 526.2 951.5 526.2 951.5 526.3C951.3 526.6 951.2 526.9 951 527.1C950.8 527.5 950.5 528 950.3 528.4C932.9 557 896.7 572.9 869.6 564.1L869.5 564.2Z" stroke="#003B2F" stroke-width="3" stroke-linecap="round" stroke-linejoin="round"/><path d="M920.7 481.2L913 482.2L891.9 484.9L884.2 485.9L863.7 516.9L867.1 522.5L876.5 537.7L879.9 543.3L887.6 542.3L908.6 539.5L916.3 538.5L936.8 507.5L933.4 501.9L924.1 486.7L920.7 481.1V481.2ZM878.5 514.8L892.4 497.2L914.1 494.6L921.9 509.6L908 527.2L886.3 529.8L878.5 514.8Z" fill="#003B2F"/><path d="M1300.9 143.7C1283.1 143.7 1268.6 158.1 1268.6 176C1268.6 198.1 1291 222.8 1299.1 229.7C1300.1 230.6 1301.6 230.6 1302.6 229.7C1310.8 222.8 1333.1 198.2 1333.1 176C1333.1 158.2 1318.7 143.7 1300.8 143.7H1300.9ZM1300.9 196.4C1290.2 196.4 1281.5 187.7 1281.5 177C1281.5 166.3 1290.2 157.6 1300.9 157.6C1311.6 157.6 1320.3 166.3 1320.3 177C1320.3 187.7 1311.6 196.4 1300.9 196.4Z" fill="#003B2F"/><path d="M657.5 370.5C643 370.5 631.2 382.3 631.2 396.8C631.2 414.9 649.5 435 656.1 440.6C656.9 441.3 658.1 441.3 658.9 440.6C665.6 434.9 683.8 414.8 683.8 396.8C683.8 382.3 672 370.5 657.5 370.5ZM657.5 413.5C648.8 413.5 641.7 406.4 641.7 397.7C641.7 389 648.8 381.9 657.5 381.9C666.2 381.9 673.3 389 673.3 397.7C673.3 406.4 666.2 413.5 657.5 413.5Z" fill="#003B2F"/><path d="M674 408.3C674 408.3 707.5 236.1 915.2 165.3C1137.9 89.4999 1293.4 209.1 1293.4 209.1" stroke="#003B2F" stroke-width="3" stroke-linecap="round" stroke-linejoin="round"/><path d="M766.9 252.8C759.5 249.9 750.4 240.2 746.9 234C747.9 235.7 749.1 237.2 750.5 238.7C753.5 241.9 757.4 244.6 762 246.5C762.2 246.5 762.3 246.6 762.5 246.7C784.2 255.3 814.5 244 830.2 221.6C830.4 221.3 830.6 220.9 830.9 220.6C831 220.4 831.2 220.2 831.3 219.9C840.4 205.7 841.6 190.7 835.5 179.6C834.8 178.3 834 177.1 833.1 175.9C844 187.6 846.7 210.4 834.6 227.8C819 250.3 788.7 261.5 766.9 252.9V252.8Z" fill="#03FC9D"/><path d="M762.5 246.7C762.5 246.7 762.2 246.6 762 246.5C757.4 244.6 753.5 242 750.5 238.7C749.1 237.2 747.9 235.7 746.9 234C746.9 234 746.8 233.8 746.7 233.7C739.7 222 740.8 205.7 751.4 190.5C767 168.1 797.3 156.8 819.1 165.3C825.1 167.6 829.7 171.2 833.1 175.7C834 176.9 834.8 178.1 835.5 179.4C841.6 190.5 840.4 205.6 831.3 219.7C831.2 219.9 831 220.1 830.9 220.4C830.7 220.7 830.5 221.1 830.2 221.4C814.6 243.9 784.3 255.1 762.5 246.5V246.7Z" fill="#E6E8EA"/><path d="M766.6 252.9C759.2 250 750.1 240.3 746.6 234.1C747.6 235.8 748.8 237.3 750.2 238.8C753.2 242 757.1 244.7 761.7 246.6C761.9 246.6 762 246.7 762.2 246.8C783.9 255.4 814.2 244.1 829.9 221.7C830.1 221.4 830.3 221 830.6 220.7C830.7 220.5 830.9 220.3 831 220C840.1 205.8 841.3 190.8 835.2 179.7C834.5 178.4 833.7 177.2 832.8 176C843.7 187.7 846.4 210.5 834.3 227.9C818.7 250.4 788.4 261.6 766.6 253V252.9Z" stroke="#003B2F" stroke-width="3" stroke-linecap="round" stroke-linejoin="round"/><path d="M762.2 246.8C762.2 246.8 761.9 246.7 761.7 246.6C757.1 244.7 753.2 242.1 750.2 238.8C748.8 237.3 747.6 235.8 746.6 234.1C746.6 234.1 746.5 233.9 746.4 233.8C739.4 222.1 740.5 205.8 751.1 190.6C766.7 168.2 797 156.9 818.8 165.4C824.8 167.7 829.4 171.3 832.8 175.8C833.7 177 834.5 178.2 835.2 179.5C841.3 190.6 840.1 205.7 831 219.8C830.9 220 830.7 220.2 830.6 220.5C830.4 220.8 830.2 221.2 829.9 221.5C814.3 244 784 255.2 762.2 246.6V246.8Z" stroke="#003B2F" stroke-width="3" stroke-linecap="round" stroke-linejoin="round"/><path d="M783.8 188.9C783.9 188.9 784.1 189 784.2 189.2L786.3 190.7L788.1 192L790.2 193.6L792 194.9L794.1 196.5L795.9 197.8L798 199.3L799.5 200.4C799.5 200.4 799.6 200.4 799.6 200.6C799.6 200.6 799.5 200.6 799.4 200.7C793.5 204.1 787.6 207.5 781.7 210.9C781.7 210.9 781.5 211 781.4 211C781.4 210.3 781.5 209.7 781.6 209L783.5 191.9L783.8 188.9Z" fill="#003B2F"/><path d="M781.3 211.1L799.3 200.7H799.4C799.4 200.7 799.5 200.5 799.6 200.5C806.4 196.6 813.2 192.6 820 188.7C820 188.7 820.1 188.6 820.3 188.7C819.9 189.4 819.4 190.1 819 190.8L799.6 221.3C799.6 221.3 799.6 221.4 799.5 221.5C799.5 221.5 799.5 221.4 799.5 221.3V219.7V216.6V213.5C799.5 212.4 799.5 211.4 799.5 210.3V207.2V204V200.9C799.5 200.9 799.5 200.8 799.4 200.9H799.2C793.4 204.4 787.5 207.7 781.7 211.1C781.7 211.1 781.5 211.2 781.4 211.2L781.3 211.1Z" fill="#003B2F"/><path d="M781.4 211.1L785.7 208.6L799.3 200.7C799.3 200.7 799.5 200.6 799.5 200.8V204.4C799.5 205.2 799.5 206 799.5 206.8V210.2V212.2V215V217V219.8V221.3H799.4L790.3 216.1L781.6 211.2C781.6 211.2 781.4 211.2 781.4 211.1Z" fill="#003B2F"/><path d="M776 214.2L779.8 216.4L790.5 222.5L793.9 224.4C793.9 224.4 793.9 224.4 794 224.4C794 224.4 794 224.4 793.9 224.4C783.3 223.7 772.6 223 762 222.3C762 222.3 761.9 222.3 761.8 222.3C761.8 222.3 761.9 222.2 762 222.1L775.7 214.2C775.7 214.2 775.9 214.1 776 214.2Z" fill="#003B2F"/><path d="M776 214.2H775.8L762 222.2H761.8C761.8 222.2 762.2 221.5 762.4 221.1C764.3 217.6 766.2 214.2 768.1 210.7L773.8 200.3L778.3 192V191.8C778.3 191.8 778.3 192 778.3 192.1L776.9 205.2L776 213.9C776 213.9 776 213.9 776 214V214.2Z" fill="#003B2F"/><path d="M820.401 188.6C820.401 188.6 820.3 188.6 820.2 188.6C813.4 192.5 806.501 196.5 799.701 200.4C799.701 200.4 799.6 200.4 799.5 200.4C799.5 200.4 799.501 200.4 799.601 200.3H799.801C806.601 196.3 813.301 192.4 820.101 188.5C820.201 188.5 820.301 188.4 820.501 188.3L820.401 188.6Z" fill="#003B2F"/><path d="M820.4 188.5C813.4 192.5 806.5 196.5 799.5 200.5C798.8 200 798 199.4 797.3 198.9C796.5 198.3 795.7 197.7 795 197.2L790.9 194.2L788.1 192.1L783.9 189C784.5 189 785 189 785.6 189H799.6L817.5 188.7H820.5C820.5 188.7 820.5 188.7 820.6 188.7L820.4 188.5Z" fill="#003B2F"/></g><defs><clipPath id="clip0_13_5285"><rect width="1920" height="1080" fill="white"/></clipPath></defs></svg>