<?xml version="1.0" encoding="UTF-8"?><svg id="Layer_1" data-name="Layer 1" xmlns="http://www.w3.org/2000/svg" viewBox="0 0 192 108"><defs><style>.cls-1 {
        stroke: #00ff94;
      }

      .cls-1, .cls-2, .cls-3, .cls-4 {
        stroke-linecap: round;
        stroke-linejoin: round;
      }

      .cls-1, .cls-2, .cls-3, .cls-4, .cls-5 {
        fill: none;
      }

      .cls-1, .cls-2, .cls-3, .cls-4, .cls-5, .cls-6, .cls-7 {
        stroke-width: .37px;
      }

      .cls-2 {
        stroke: #003c2e;
      }

      .cls-3, .cls-5, .cls-6, .cls-7 {
        stroke: #003d2e;
      }

      .cls-4 {
        stroke: #163b2f;
      }

      .cls-8 {
        fill: #00ff94;
      }

      .cls-9, .cls-6 {
        fill: #e3e7e3;
      }

      .cls-5, .cls-6, .cls-7 {
        stroke-miterlimit: 10;
      }

      .cls-10 {
        fill: #003d2e;
        fill-rule: evenodd;
      }

      .cls-7 {
        fill: #fff;
      }</style></defs><path class="cls-8" d="M52.03,76.49c.13-2.89,.46-5.76,.67-8.38,.72-8.98,2.13-17.97,4.52-26.66,1.56-5.72,3.52-11.38,6.1-16.72,2.47-5.12,8.28-7.36,13.65-7.73,2.77-.19,5.63,.06,8.29,.87,3.24,.98,5.67,3.6,8.93,4.48,3.78,1.02,7.79,.78,11.67,.73,3.62-.05,7.26,.04,10.84-.5,2.2-.33,4.39-.92,6.4-1.89s3.6-2.41,5.87-3c4.46-1.15,9.33-.98,13.56,.94,7.68,3.5,10.54,12.22,12.54,19.78,2.15,8.12,3.96,16.63,5.06,25.07,1,7.62,3.05,17.79-.32,25.07-1.6,3.45-5.12,6.29-8.91,5.92-2.31-.22-4.35-1.55-6.15-3.01-7.88-6.39-13.41-16.13-22.92-19.67-8.7-3.24-18.62-3.55-27.48-.74-10.39,3.3-15.76,11.38-23.33,18.57-2.94,2.79-6.76,5.38-10.75,4.64-3.26-.6-5.78-3.38-6.95-6.48-1.3-3.43-1.48-7.38-1.3-11.3Z"/><g><line class="cls-3" x1="104.48" y1="83.95" x2="107.34" y2="85.61"/><line class="cls-3" x1="110.21" y1="83.95" x2="108.53" y2="84.93"/><line class="cls-3" x1="107.34" y1="85.61" x2="107.34" y2="88.95"/></g><line class="cls-1" x1="104.48" y1="93.5" x2="125.23" y2="93.5"/><circle class="cls-2" cx="45.99" cy="25.16" r="2.41"/><g><line class="cls-3" x1="21.76" y1="14.73" x2="24.15" y2="13.35"/><line class="cls-3" x1="26.54" y1="14.73" x2="25.13" y2="13.91"/><line class="cls-3" x1="24.15" y1="13.35" x2="24.15" y2="10.55"/></g><rect class="cls-8" x="24.15" y="29.32" width="23.57" height="6.72" rx="3.36" ry="3.36"/><rect class="cls-8" x="2.13" y="19.89" width="38.59" height="11.01" rx="4.52" ry="4.52"/><path class="cls-9" d="M191.82,17.52h-5.72c1.81,0,3.28-1.29,3.28-2.89s-1.47-2.89-3.28-2.89h-16.43c-1.81,0-3.28,1.29-3.28,2.89h-5.04c-1.81,0-3.28,1.29-3.28,2.89s1.47,2.89,3.28,2.89h10.76c0,1.6,1.47,2.89,3.28,2.89h16.43c1.81,0,3.28-1.29,3.28-2.89s-1.47-2.89-3.28-2.89Z"/><line class="cls-2" x1="22.77" y1="79.24" x2="31.07" y2="79.24"/><line class="cls-2" x1="16.47" y1="79.24" x2="18.56" y2="79.24"/><line class="cls-2" x1="50.37" y1="92.09" x2="46.27" y2="92.09"/><line class="cls-1" x1="13.72" y1="86.35" x2="43.41" y2="86.35"/><line class="cls-2" x1="40.97" y1="92.07" x2="24.38" y2="92.07"/><g><line class="cls-4" x1="4.21" y1="71.63" x2="6.17" y2="73.59"/><line class="cls-4" x1="7.61" y1="75.02" x2="9.57" y2="76.98"/><line class="cls-4" x1="4.21" y1="76.98" x2="6.17" y2="75.02"/><line class="cls-4" x1="7.61" y1="73.59" x2="9.57" y2="71.63"/></g><path class="cls-10" d="M105.64,32.78c-.24,.9-.59,1.23-1.18,1.12-.29-.06-.83-.7-1.22-.99-.26-.19-1.98,2.36-2.9,3.23-.34,.32-.52-.34-.52-1.99,1.41-1.42,2.02-2.17,1.85-2.26-1.02-.49-1.36-.79-1.91-.79-1.05,0-1.77,3.61-1.77,5.6s.9,4.93,1.18,4.48l14.79-13.32c2.02-1.92,3.2-.8,3.55,3.38l.52,7.14c0,4.96-1.69,4.55-2.95,3.68l-3.08-2.11s-2.16-1.82-2.16-2.27,.52-1,.52-1c.59,0,.19-.06,2.36,2.01,2.18,2.07,3.03,1.1,2.95,.24v-5.04c0-3.34-1.06-4.31-1.77-3.59-4.71,4.48-13.3,13.33-15.19,13.33-1.26,0-2.09-.79-2.48-2.37-.4-2.53-.6-4.43-.6-5.69,0-1.82,.24-4.44,.6-5.46,.36-1.02,1.26-1.99,1.89-1.69,0,0,7.77,3.45,7.53,4.35Z"/><path class="cls-5" d="M54.47,73.63c.13-2.89,.46-5.76,.67-8.38,.72-8.98,2.13-17.97,4.52-26.66,1.56-5.72,3.52-11.38,6.1-16.72,2.47-5.12,8.28-7.36,13.65-7.73,2.77-.19,5.63,.06,8.29,.87,3.24,.98,5.67,3.6,8.93,4.48,3.78,1.02,7.79,.78,11.67,.73,3.62-.05,7.26,.04,10.84-.5,2.2-.33,4.39-.92,6.4-1.89s3.6-2.41,5.87-3c4.46-1.15,9.33-.98,13.56,.94,7.68,3.5,10.54,12.22,12.54,19.78,2.15,8.12,3.96,16.63,5.06,25.07,1,7.62,3.05,17.79-.32,25.07-1.6,3.45-5.12,6.29-8.91,5.92-2.31-.22-4.35-1.55-6.15-3.01-7.88-6.39-13.41-16.13-22.92-19.67-8.7-3.24-18.62-3.55-27.48-.74-10.39,3.3-15.76,11.38-23.33,18.57-2.94,2.79-6.76,5.38-10.75,4.64-3.26-.6-5.78-3.38-6.95-6.48-1.3-3.43-1.48-7.38-1.3-11.3Z"/><circle class="cls-7" cx="131.67" cy="37.22" r="4.19"/><circle class="cls-6" cx="131.67" cy="37.23" r="1.95"/><circle class="cls-7" cx="147.84" cy="37.22" r="4.19"/><circle class="cls-6" cx="147.84" cy="37.23" r="1.95"/><circle class="cls-7" cx="139.76" cy="29.14" r="4.19"/><circle class="cls-6" cx="139.74" cy="29.14" r="1.95"/><circle class="cls-7" cx="139.76" cy="45.3" r="4.19"/><circle class="cls-6" cx="139.74" cy="45.3" r="1.95"/><circle class="cls-7" cx="122.1" cy="51.72" r="6.63"/><circle class="cls-6" cx="122.07" cy="51.72" r="4.23"/><circle class="cls-7" cx="93.21" cy="51.72" r="6.63"/><circle class="cls-6" cx="93.18" cy="51.72" r="4.23"/><circle class="cls-6" cx="77.21" cy="34.16" r="9.06"/><circle class="cls-7" cx="77.2" cy="34.16" r="7.17"/><circle class="cls-6" cx="77.19" cy="34.16" r="5.28"/><circle class="cls-7" cx="77.18" cy="34.16" r="3.39"/></svg>