<svg width="192" height="108" viewBox="0 0 192 108" fill="none" xmlns="http://www.w3.org/2000/svg"><path d="M46.15 28.52C40.82 33.29 47.15 48.53 60.25 62.54C73.35 76.53 88.24 83.99 93.54 79.22L99.9 73.28C98.74 74.29 97.22 74.75 95.4 74.72C88.38 74.68 76.85 67.69 66.46 56.56C56.24 45.64 50.12 33.97 50.42 27.05C50.52 25.07 51.11 23.47 52.31 22.4L46.15 28.52Z" fill="#03FC9D"/><path d="M51.83 34.45C52.67 36.78 53.88 39.31 55.41 41.95L49.19 47.87C47.45 44.85 46.32 42.53 45.48 39.93L51.83 34.45Z" fill="white"/><path d="M40.65 29.09C37.47 31.7 38 37.95 41.4 45.57" stroke="#003B2F" stroke-width="0.3" stroke-linecap="round" stroke-linejoin="round"/><path d="M37.04 28.6C34.08 30.85 34.04 36.16 36.34 42.85" stroke="#003B2F" stroke-width="0.3" stroke-linecap="round" stroke-linejoin="round"/><path d="M52.31 22.4C51.11 23.48 50.52 25.07 50.42 27.05C50.12 33.98 56.25 45.64 66.46 56.56C76.85 67.69 88.38 74.68 95.4 74.72C97.22 74.75 98.74 74.29 99.9 73.28C105.24 68.46 98.87 53.16 85.73 39.11C72.61 25.07 57.65 17.58 52.31 22.4Z" fill="#E6E8EA"/><path d="M52.31 22.4L46.15 28.52C40.82 33.29 47.15 48.53 60.25 62.54C73.35 76.53 88.24 83.99 93.54 79.22L99.9 73.28" stroke="#003B2F" stroke-width="0.3" stroke-linecap="round" stroke-linejoin="round"/><path d="M52.31 22.4C51.11 23.48 50.52 25.07 50.42 27.05C50.12 33.98 56.25 45.64 66.46 56.56C76.85 67.69 88.38 74.68 95.4 74.72C97.22 74.75 98.74 74.29 99.9 73.28C105.24 68.46 98.87 53.16 85.73 39.11C72.61 25.07 57.65 17.58 52.31 22.4Z" stroke="#003B2F" stroke-width="0.3" stroke-linecap="round" stroke-linejoin="round"/><path d="M50.43 27.09C50.13 34.02 56.23 45.67 66.45 56.59C76.84 67.71 88.4 74.71 95.39 74.74C97.23 74.78 98.76 74.31 99.89 73.3C105.23 68.48 98.88 53.19 85.74 39.14C72.6 25.09 57.63 17.61 52.3 22.43C51.1 23.51 50.51 25.1 50.43 27.09Z" stroke="#003B2F" stroke-width="0.3" stroke-linecap="round" stroke-linejoin="round"/><path d="M92.76 71.77C93.71 72 94.58 72.12 95.37 72.12C96.62 72.15 97.5 71.88 98.11 71.35C99.73 69.87 99.43 65.76 97.3 60.61C94.75 54.45 89.95 47.43 83.81 40.87C75.51 32.01 66.18 25.51 59.41 23.9C57.99 23.56 55.41 23.16 54.1 24.35C53.48 24.92 53.12 25.88 53.08 27.21C52.81 33.56 59.11 44.91 68.39 54.84C76.64 63.69 86 70.19 92.76 71.8L92.74 71.77H92.76Z" stroke="#003B2F" stroke-width="0.3" stroke-linecap="round" stroke-linejoin="round"/><path d="M83.57 48.34C85.2 50.16 85.6 52.48 84.45 53.5L80.47 57.07L78.71 46.78C79.9 45.95 82.01 46.6 83.57 48.33V48.34ZM73.67 50.56L66.84 42.95L71.48 38.79C71.56 38.72 71.64 38.66 71.73 38.6L73.66 50.56H73.67ZM77.39 39.56C76.74 38.83 75.98 38.21 75.19 37.75C74.4 37.29 73.58 37.01 72.82 36.92L72.01 32L70.82 33.08L71.46 36.98C71.02 37.09 70.63 37.3 70.31 37.58L64.85 42.48L75.71 54.58L73.05 38.4C73.62 38.43 74.24 38.61 74.85 38.95C75.46 39.28 76.04 39.75 76.54 40.31C77.32 41.18 77.85 42.21 78.01 43.18C78.17 44.15 77.95 44.98 77.39 45.48L77.22 45.64L80.18 63.65L81.37 62.58L80.79 59.05L85.66 54.68C87.28 53.23 86.75 49.98 84.47 47.44C83.76 46.65 82.93 45.99 82.06 45.52C81.19 45.05 80.31 44.8 79.51 44.78C79.58 43.98 79.42 43.08 79.05 42.16C78.68 41.24 78.11 40.34 77.4 39.55L77.39 39.56Z" fill="#003B2F"/><path d="M139.11 48.09C143.88 53.42 135.9 67.86 121.34 80.35C106.77 92.81 91.16 98.58 86.42 93.25L80.75 86.64C81.79 87.77 83.25 88.4 85.06 88.57C92.04 89.31 104.28 83.63 115.83 73.72C127.19 63.99 134.56 53.08 135.03 46.16C135.15 44.18 134.74 42.53 133.66 41.33L139.1 48.09H139.11Z" fill="#03FC9D"/><path d="M132.81 53.36C131.71 55.59 130.24 57.96 128.42 60.41L133.95 66.98C136.01 64.17 137.4 61.99 138.51 59.5L132.81 53.35V53.36Z" fill="white"/><path d="M144.51 49.26C149.5 54.38 142.16 69.15 128.15 82.26" stroke="#003B2F" stroke-width="0.3" stroke-linecap="round" stroke-linejoin="round"/><path d="M148.16 49.18C150.85 51.74 150.31 57.03 147.28 63.42" stroke="#003B2F" stroke-width="0.3" stroke-linecap="round" stroke-linejoin="round"/><path d="M133.67 41.33C134.75 42.53 135.15 44.18 135.04 46.16C134.57 53.08 127.2 63.99 115.84 73.72C104.29 83.63 92.05 89.31 85.07 88.57C83.26 88.4 81.8 87.77 80.76 86.64C75.99 81.26 84.01 66.76 98.62 54.24C113.21 41.73 128.9 35.94 133.68 41.32L133.67 41.33Z" fill="#E6E8EA"/><path d="M133.67 41.33L139.11 48.09C143.88 53.42 135.9 67.86 121.34 80.35C106.77 92.81 91.16 98.58 86.42 93.25L80.75 86.64" stroke="#003B2F" stroke-width="0.3" stroke-linecap="round" stroke-linejoin="round"/><path d="M133.67 41.33C134.75 42.53 135.15 44.18 135.04 46.16C134.57 53.08 127.2 63.99 115.84 73.72C104.29 83.63 92.05 89.31 85.07 88.57C83.26 88.4 81.8 87.77 80.76 86.64C75.99 81.26 84.01 66.76 98.62 54.24C113.21 41.73 128.9 35.94 133.68 41.32L133.67 41.33Z" stroke="#003B2F" stroke-width="0.3" stroke-linecap="round" stroke-linejoin="round"/><path d="M135.02 46.19C134.55 53.11 127.2 64.02 115.84 73.75C104.29 83.66 92.02 89.34 85.07 88.6C83.23 88.43 81.77 87.8 80.76 86.67C75.99 81.29 83.98 66.79 98.59 54.28C113.2 41.77 128.9 35.98 133.68 41.36C134.76 42.56 135.16 44.21 135.02 46.2V46.19Z" stroke="#003B2F" stroke-width="0.3" stroke-linecap="round" stroke-linejoin="round"/><path d="M88.02 85.93C87.05 86.05 86.17 86.08 85.38 85.99C84.14 85.88 83.29 85.51 82.74 84.93C81.29 83.28 82.04 79.23 84.73 74.34C87.94 68.5 93.49 62.05 100.31 56.21C109.53 48.32 119.53 42.89 126.43 42.04C127.88 41.86 130.48 41.75 131.65 43.07C132.21 43.71 132.46 44.7 132.34 46.02C131.91 52.36 124.39 62.95 114.07 71.79C104.9 79.68 94.88 85.1 87.98 85.95L88 85.92L88.02 85.93Z" stroke="#003B2F" stroke-width="0.3" stroke-linecap="round" stroke-linejoin="round"/><path d="M106.75 70.24C104.96 71.91 102.65 72.35 101.6 71.22L97.95 67.3L108.21 65.35C109.06 66.52 108.45 68.65 106.75 70.24ZM104.34 60.38L111.82 53.42L116.07 57.98C116.14 58.06 116.21 58.14 116.26 58.23L104.34 60.38ZM115.41 63.89C116.13 63.22 116.73 62.46 117.17 61.65C117.61 60.85 117.88 60.03 117.96 59.27L122.86 58.37L121.76 57.2L117.87 57.91C117.75 57.47 117.54 57.09 117.25 56.77L112.25 51.4L100.35 62.48L116.48 59.52C116.47 60.09 116.29 60.71 115.97 61.33C115.65 61.95 115.19 62.54 114.65 63.05C113.8 63.85 112.77 64.39 111.81 64.57C110.84 64.75 110.01 64.54 109.5 63.99L109.34 63.82L91.39 67.11L92.48 68.28L96 67.63L100.45 72.41C101.93 74 105.17 73.41 107.66 71.09C108.44 70.36 109.09 69.52 109.54 68.64C109.99 67.76 110.23 66.88 110.23 66.07C111.03 66.12 111.93 65.95 112.84 65.56C113.75 65.17 114.64 64.59 115.42 63.86L115.41 63.89Z" fill="#003B2F"/><path d="M52.34 82.62C52.27 81.64 52.88 80.11 53.38 79.39C53.25 79.59 53.14 79.81 53.05 80.04C52.85 80.55 52.75 81.12 52.79 81.74C52.79 81.76 52.79 81.78 52.79 81.81C52.98 84.69 55.84 87.48 59.17 88.04C59.22 88.04 59.27 88.05 59.32 88.06C59.35 88.06 59.38 88.06 59.42 88.07C59.42 88.07 59.42 88.07 59.43 88.07C61.49 88.34 63.23 87.68 64.16 86.41C64.27 86.26 64.36 86.11 64.45 85.94C63.72 87.77 61.32 89.28 58.73 88.84C55.4 88.28 52.54 85.49 52.35 82.61L52.34 82.62Z" fill="#03FC9D"/><path d="M52.79 81.81C52.79 81.81 52.79 81.77 52.79 81.74C52.76 81.12 52.85 80.55 53.05 80.04C53.14 79.81 53.25 79.59 53.38 79.39C53.38 79.38 53.39 79.37 53.4 79.36C54.33 77.96 56.22 77.23 58.47 77.6C61.8 78.16 64.66 80.95 64.85 83.83C64.9 84.62 64.75 85.33 64.43 85.94C64.35 86.1 64.25 86.26 64.14 86.41C63.22 87.68 61.48 88.34 59.41 88.07C59.41 88.07 59.41 88.07 59.4 88.07C59.37 88.07 59.34 88.07 59.3 88.06C59.25 88.06 59.2 88.05 59.15 88.04C55.82 87.48 52.96 84.69 52.77 81.81H52.79Z" fill="#E6E8EA"/><path d="M52.31 82.59C52.24 81.61 52.85 80.08 53.35 79.36C53.22 79.56 53.11 79.78 53.02 80.01C52.82 80.52 52.72 81.09 52.76 81.71C52.76 81.73 52.76 81.75 52.76 81.78C52.95 84.66 55.81 87.45 59.14 88.01C59.19 88.01 59.24 88.02 59.29 88.03C59.32 88.03 59.35 88.03 59.39 88.04C59.39 88.04 59.39 88.04 59.4 88.04C61.46 88.31 63.2 87.65 64.13 86.38C64.24 86.23 64.33 86.08 64.42 85.91C63.69 87.74 61.29 89.25 58.7 88.81C55.37 88.25 52.51 85.46 52.32 82.58L52.31 82.59Z" stroke="#003B2F" stroke-width="0.3" stroke-linecap="round" stroke-linejoin="round"/><path d="M52.76 81.77C52.76 81.77 52.76 81.73 52.76 81.7C52.73 81.08 52.82 80.51 53.02 80C53.11 79.77 53.22 79.55 53.35 79.35C53.35 79.34 53.36 79.33 53.37 79.32C54.3 77.92 56.19 77.19 58.44 77.56C61.77 78.12 64.63 80.91 64.82 83.79C64.87 84.58 64.72 85.29 64.4 85.9C64.32 86.06 64.22 86.22 64.11 86.37C63.19 87.64 61.45 88.3 59.38 88.03C59.38 88.03 59.38 88.03 59.37 88.03C59.34 88.03 59.31 88.03 59.27 88.02C59.22 88.02 59.17 88.01 59.12 88C55.79 87.44 52.93 84.65 52.74 81.77H52.76Z" stroke="#003B2F" stroke-width="0.3" stroke-linecap="round" stroke-linejoin="round"/><path d="M57.17 84.4C56.56 84.3 56.14 83.74 56.24 83.14L56.57 81.06L58.43 83.57C58.3 84.12 57.76 84.49 57.17 84.4ZM58.95 81.16L61.49 81.57L61.1 83.99C61.1 83.99 61.08 84.07 61.07 84.11L58.94 81.16H58.95ZM59.74 85.31C59.98 85.35 60.23 85.33 60.47 85.25C60.7 85.17 60.92 85.04 61.09 84.87L61.97 86.08L62.07 85.46L61.37 84.5C61.45 84.35 61.5 84.19 61.53 84.03L61.98 81.18L57.93 80.54L60.82 84.52C60.7 84.66 60.54 84.77 60.36 84.83C60.18 84.89 59.99 84.91 59.81 84.88C59.52 84.83 59.26 84.67 59.09 84.44C58.92 84.2 58.84 83.9 58.89 83.61V83.52L55.68 79.1L55.58 79.72L56.21 80.59L55.81 83.13C55.68 83.98 56.26 84.77 57.1 84.91C57.37 84.95 57.64 84.92 57.89 84.83C58.14 84.74 58.36 84.58 58.54 84.37C58.64 84.62 58.8 84.84 59.01 85.01C59.22 85.18 59.47 85.29 59.74 85.33V85.31Z" fill="#003B2F"/><path d="M130.98 16.57C131.07 15.66 131.86 14.37 132.44 13.8C132.29 13.96 132.15 14.15 132.03 14.34C131.77 14.77 131.59 15.28 131.52 15.84C131.52 15.86 131.52 15.88 131.52 15.9C131.24 18.55 133.4 21.54 136.35 22.57C136.39 22.58 136.44 22.6 136.48 22.61C136.51 22.61 136.54 22.63 136.57 22.64C136.57 22.64 136.57 22.64 136.58 22.64C138.42 23.21 140.1 22.88 141.14 21.87C141.26 21.75 141.37 21.63 141.48 21.49C140.53 23.04 138.11 24.04 135.82 23.23C132.87 22.2 130.71 19.21 130.99 16.56L130.98 16.57Z" fill="#03FC9D"/><path d="M131.52 15.9C131.52 15.9 131.52 15.86 131.52 15.84C131.59 15.27 131.76 14.77 132.03 14.34C132.15 14.15 132.28 13.97 132.44 13.8C132.44 13.8 132.46 13.78 132.47 13.77C133.54 12.64 135.37 12.27 137.36 12.97C140.31 14.01 142.47 16.99 142.19 19.64C142.11 20.37 141.86 20.99 141.48 21.49C141.38 21.63 141.26 21.75 141.14 21.87C140.1 22.88 138.41 23.21 136.58 22.64C136.58 22.64 136.58 22.64 136.57 22.64C136.54 22.64 136.51 22.62 136.48 22.61C136.44 22.6 136.39 22.58 136.35 22.57C133.4 21.54 131.24 18.55 131.52 15.9Z" fill="#E6E8EA"/><path d="M130.96 16.53C131.05 15.62 131.84 14.33 132.42 13.76C132.27 13.92 132.13 14.11 132.01 14.3C131.75 14.73 131.57 15.24 131.5 15.8C131.5 15.82 131.5 15.84 131.5 15.86C131.22 18.51 133.38 21.5 136.33 22.53C136.37 22.54 136.42 22.56 136.46 22.57C136.49 22.57 136.52 22.59 136.55 22.6C136.55 22.6 136.55 22.6 136.56 22.6C138.4 23.17 140.08 22.84 141.12 21.83C141.24 21.71 141.35 21.59 141.46 21.45C140.51 23 138.09 24 135.8 23.19C132.85 22.16 130.69 19.17 130.97 16.52L130.96 16.53Z" stroke="#003B2F" stroke-width="0.3" stroke-linecap="round" stroke-linejoin="round"/><path d="M131.49 15.87C131.49 15.87 131.49 15.83 131.49 15.81C131.56 15.24 131.73 14.74 132 14.31C132.12 14.12 132.25 13.94 132.41 13.77C132.41 13.77 132.43 13.75 132.44 13.74C133.51 12.61 135.34 12.24 137.33 12.94C140.28 13.98 142.44 16.96 142.16 19.61C142.08 20.34 141.83 20.96 141.45 21.46C141.35 21.6 141.23 21.72 141.11 21.84C140.07 22.85 138.38 23.18 136.55 22.61C136.55 22.61 136.55 22.61 136.54 22.61C136.51 22.61 136.48 22.59 136.45 22.58C136.41 22.57 136.36 22.55 136.32 22.54C133.37 21.51 131.21 18.52 131.49 15.87Z" stroke="#003B2F" stroke-width="0.3" stroke-linecap="round" stroke-linejoin="round"/><path d="M136.55 19.75C136.01 19.99 135.4 19.8 135.19 19.33L134.44 17.68L137.15 18.52C137.31 18.98 137.06 19.52 136.55 19.75ZM136.4 16.53L138.64 15.52L139.51 17.44C139.51 17.44 139.54 17.51 139.55 17.54L136.4 16.53ZM139.06 19.09C139.27 18.99 139.47 18.85 139.62 18.68C139.77 18.51 139.88 18.3 139.93 18.09L141.22 18.5L140.99 18.01L139.96 17.68C139.95 17.53 139.91 17.39 139.85 17.26L138.82 15L135.26 16.61L139.52 17.96C139.49 18.12 139.42 18.28 139.3 18.42C139.19 18.56 139.04 18.67 138.88 18.74C138.62 18.86 138.34 18.88 138.08 18.79C137.82 18.71 137.62 18.53 137.52 18.3L137.49 18.23L132.75 16.72L132.97 17.21L133.9 17.51L134.81 19.53C135.11 20.2 135.97 20.47 136.72 20.14C136.95 20.03 137.16 19.88 137.31 19.68C137.47 19.48 137.57 19.26 137.61 19.02C137.81 19.15 138.05 19.22 138.3 19.23C138.55 19.24 138.81 19.19 139.04 19.09H139.06Z" fill="#003B2F"/><path d="M110.14 28.63C109.6 28.96 108.54 29.06 107.99 28.98C108.15 29 108.3 29 108.46 28.98C108.81 28.95 109.16 28.83 109.51 28.63C109.52 28.63 109.53 28.62 109.55 28.61C111.14 27.66 111.91 25.2 111.25 23.13C111.25 23.1 111.23 23.07 111.22 23.04C111.22 23.02 111.21 23 111.2 22.98C110.75 21.72 109.86 20.92 108.87 20.76C108.75 20.74 108.64 20.73 108.52 20.73C109.78 20.61 111.35 21.55 111.86 23.16C112.51 25.23 111.75 27.69 110.16 28.64L110.14 28.63Z" fill="#03FC9D"/><path d="M109.54 28.61C109.54 28.61 109.52 28.62 109.5 28.63C109.16 28.83 108.8 28.94 108.45 28.98C108.29 28.99 108.13 28.99 107.98 28.98H107.96C106.88 28.86 105.91 27.99 105.47 26.59C104.82 24.52 105.58 22.06 107.17 21.11C107.61 20.85 108.06 20.73 108.5 20.73C108.62 20.73 108.74 20.74 108.85 20.76C109.85 20.92 110.74 21.72 111.18 22.98C111.18 23 111.19 23.02 111.2 23.04C111.21 23.07 111.22 23.1 111.23 23.13C111.88 25.2 111.12 27.66 109.53 28.61H109.54Z" fill="#E6E8EA"/><path d="M110.12 28.66C109.58 28.99 108.52 29.09 107.97 29.01C108.13 29.03 108.28 29.03 108.44 29.01C108.79 28.98 109.14 28.86 109.49 28.66C109.5 28.66 109.51 28.65 109.53 28.64C111.12 27.69 111.89 25.23 111.23 23.16C111.23 23.13 111.21 23.1 111.2 23.07C111.2 23.05 111.19 23.03 111.18 23.01C110.73 21.75 109.84 20.95 108.85 20.79C108.73 20.77 108.62 20.76 108.5 20.76C109.76 20.64 111.33 21.58 111.84 23.19C112.49 25.26 111.73 27.72 110.14 28.67L110.12 28.66Z" stroke="#003B2F" stroke-width="0.3" stroke-linecap="round" stroke-linejoin="round"/><path d="M109.53 28.64C109.53 28.64 109.51 28.65 109.49 28.66C109.15 28.86 108.79 28.97 108.44 29.01C108.28 29.02 108.12 29.02 107.97 29.01H107.95C106.87 28.89 105.9 28.02 105.46 26.62C104.81 24.55 105.57 22.09 107.16 21.14C107.6 20.88 108.05 20.76 108.49 20.76C108.61 20.76 108.73 20.77 108.84 20.79C109.84 20.95 110.73 21.75 111.17 23.01C111.17 23.03 111.18 23.05 111.19 23.07C111.2 23.1 111.21 23.13 111.22 23.16C111.87 25.23 111.11 27.69 109.52 28.64H109.53Z" stroke="#003B2F" stroke-width="0.3" stroke-linecap="round" stroke-linejoin="round"/><path d="M109.48 25.22C109.63 25.59 109.49 26 109.17 26.13L108.05 26.6L108.66 24.79C108.97 24.69 109.33 24.87 109.48 25.22ZM107.31 25.25L106.67 23.72L107.98 23.17C107.98 23.17 108.02 23.15 108.05 23.15L107.31 25.25ZM109.07 23.51C109.01 23.36 108.92 23.23 108.8 23.13C108.69 23.02 108.55 22.95 108.41 22.91L108.71 22.05L108.37 22.19L108.13 22.88C108.03 22.88 107.94 22.9 107.85 22.94L106.31 23.58L107.33 26.02L108.32 23.17C108.43 23.19 108.53 23.25 108.62 23.33C108.71 23.41 108.78 23.51 108.83 23.62C108.9 23.8 108.91 23.99 108.85 24.16C108.79 24.33 108.67 24.46 108.51 24.53L108.46 24.55L107.36 27.72L107.69 27.58L107.91 26.96L109.28 26.39C109.74 26.2 109.94 25.63 109.72 25.12C109.65 24.96 109.55 24.82 109.42 24.71C109.29 24.6 109.14 24.53 108.98 24.5C109.07 24.37 109.12 24.21 109.13 24.04C109.14 23.87 109.11 23.7 109.05 23.54L109.07 23.51Z" fill="#003B2F"/><path d="M24.35 69.94C22.8 70.51 20.04 70.27 18.66 69.8C19.05 69.92 19.46 69.99 19.87 70.03C20.78 70.11 21.75 69.99 22.73 69.64C22.77 69.63 22.8 69.62 22.83 69.6C27.38 67.92 30.52 61.99 29.83 56.35C29.82 56.27 29.81 56.19 29.79 56.1C29.79 56.05 29.77 55.99 29.76 55.94C29.76 55.94 29.76 55.93 29.76 55.92C29.22 52.46 27.31 49.98 24.84 49.09C24.55 48.99 24.25 48.9 23.95 48.85C27.25 49.15 30.82 52.3 31.35 56.68C32.03 62.32 28.9 68.25 24.35 69.93V69.94Z" fill="#03FC9D"/><path d="M22.82 69.6C22.82 69.6 22.75 69.63 22.72 69.64C21.74 69.99 20.78 70.11 19.86 70.03C19.45 69.99 19.04 69.92 18.65 69.8C18.63 69.8 18.61 69.79 18.59 69.78C15.89 68.94 13.81 66.25 13.35 62.44C12.67 56.8 15.8 50.87 20.35 49.18C21.6 48.72 22.82 48.63 23.95 48.85C24.25 48.91 24.55 48.99 24.84 49.09C27.32 49.98 29.22 52.46 29.76 55.92C29.76 55.92 29.76 55.93 29.76 55.94C29.76 55.99 29.78 56.05 29.79 56.1C29.8 56.18 29.82 56.26 29.83 56.35C30.51 61.99 27.38 67.92 22.83 69.6H22.82Z" fill="#E6E8EA"/><path d="M24.3 70.01C22.75 70.58 19.99 70.34 18.61 69.87C19 69.99 19.41 70.06 19.82 70.1C20.73 70.18 21.7 70.06 22.68 69.71C22.72 69.7 22.75 69.69 22.78 69.67C27.33 67.99 30.47 62.06 29.78 56.42C29.77 56.34 29.76 56.26 29.74 56.17C29.74 56.12 29.72 56.06 29.71 56.01C29.71 56.01 29.71 56 29.71 55.99C29.17 52.53 27.26 50.05 24.79 49.16C24.5 49.06 24.2 48.97 23.9 48.92C27.2 49.22 30.77 52.37 31.3 56.75C31.98 62.39 28.85 68.32 24.3 70V70.01Z" stroke="#003B2F" stroke-width="0.3" stroke-linecap="round" stroke-linejoin="round"/><path d="M22.78 69.67C22.78 69.67 22.71 69.7 22.68 69.71C21.7 70.06 20.74 70.18 19.82 70.1C19.41 70.06 19 69.99 18.61 69.87C18.59 69.87 18.57 69.86 18.55 69.85C15.85 69.01 13.77 66.32 13.31 62.51C12.63 56.87 15.76 50.94 20.31 49.25C21.56 48.79 22.78 48.7 23.91 48.92C24.21 48.98 24.51 49.06 24.8 49.16C27.28 50.05 29.18 52.53 29.72 55.99C29.72 55.99 29.72 56 29.72 56.01C29.72 56.06 29.74 56.12 29.75 56.17C29.76 56.25 29.78 56.33 29.79 56.42C30.47 62.06 27.34 67.99 22.79 69.67H22.78Z" stroke="#003B2F" stroke-width="0.3" stroke-linecap="round" stroke-linejoin="round"/><path d="M25.17 59.39C25.64 60.29 25.3 61.4 24.42 61.85L21.36 63.44L22.86 58.53C23.72 58.17 24.73 58.53 25.18 59.39H25.17ZM19.16 60.19L17.21 56.42L20.78 54.57C20.84 54.54 20.9 54.51 20.96 54.49L19.16 60.19ZM23.86 55.09C23.67 54.73 23.4 54.42 23.07 54.18C22.74 53.94 22.36 53.79 21.96 53.73L22.69 51.39L21.77 51.87L21.19 53.73C20.92 53.77 20.65 53.86 20.41 53.98L16.21 56.16L19.32 62.15L21.73 54.43C22.04 54.46 22.34 54.56 22.59 54.73C22.85 54.9 23.06 55.14 23.2 55.41C23.42 55.84 23.47 56.34 23.32 56.8C23.18 57.26 22.85 57.65 22.43 57.87L22.3 57.94L19.62 66.52L20.53 66.05L21.06 64.37L24.8 62.43C26.05 61.78 26.53 60.24 25.88 58.98C25.68 58.59 25.37 58.25 25 58.01C24.63 57.77 24.2 57.63 23.76 57.6C23.99 57.22 24.12 56.79 24.13 56.35C24.15 55.91 24.05 55.47 23.84 55.08L23.86 55.09Z" fill="#003B2F"/><path d="M143.63 87.63C144.801 87.63 145.75 86.6808 145.75 85.51C145.75 84.3392 144.801 83.39 143.63 83.39C142.459 83.39 141.51 84.3392 141.51 85.51C141.51 86.6808 142.459 87.63 143.63 87.63Z" stroke="#003B2F" stroke-width="0.3" stroke-linecap="round" stroke-linejoin="round"/><path d="M145.3 96.26H160.11C161.745 96.26 163.07 94.937 163.07 93.305C163.07 91.673 161.745 90.35 160.11 90.35H145.3C143.665 90.35 142.34 91.673 142.34 93.305C142.34 94.937 143.665 96.26 145.3 96.26Z" fill="#03FC9D"/><path d="M153.33 91.73H177.6C180.273 91.73 182.44 89.5631 182.44 86.89C182.44 84.2169 180.273 82.05 177.6 82.05H153.33C150.657 82.05 148.49 84.2169 148.49 86.89C148.49 89.5631 150.657 91.73 153.33 91.73Z" fill="#03FC9D"/><path d="M44.1561 70.3705L41.9923 68.2068L39.8286 70.3705L41.9923 72.5343L44.1561 70.3705Z" stroke="#003B2F" stroke-width="0.3" stroke-linecap="round" stroke-linejoin="round"/><path d="M172.07 59.37C173.241 59.37 174.19 58.4208 174.19 57.25C174.19 56.0792 173.241 55.13 172.07 55.13C170.899 55.13 169.95 56.0792 169.95 57.25C169.95 58.4208 170.899 59.37 172.07 59.37Z" stroke="#003B2F" stroke-width="0.3" stroke-linecap="round" stroke-linejoin="round"/><path d="M34.9 12.58H30.04C31.58 12.58 32.82 11.45 32.82 10.05C32.82 8.65 31.57 7.52 30.04 7.52H16.09C14.55 7.52 13.31 8.65 13.31 10.05H9.03C7.49 10.05 6.25 11.18 6.25 12.58C6.25 13.98 7.5 15.11 9.03 15.11H18.17C18.17 16.51 19.42 17.64 20.95 17.64H34.9C36.44 17.64 37.68 16.51 37.68 15.11C37.68 13.71 36.43 12.58 34.9 12.58Z" fill="#E6E8EA"/><path d="M26.42 10.78H29.9" stroke="#003B2F" stroke-width="0.3" stroke-linecap="round" stroke-linejoin="round"/><path d="M34.4 10.76H48.49" stroke="#003B2F" stroke-width="0.3" stroke-linecap="round" stroke-linejoin="round"/><path d="M172.07 14.76H179.12" stroke="#003B2F" stroke-width="0.3" stroke-linecap="round" stroke-linejoin="round"/><path d="M166.72 14.76H168.49" stroke="#003B2F" stroke-width="0.3" stroke-linecap="round" stroke-linejoin="round"/><path d="M156.09 40.3H159.57" stroke="#003B2F" stroke-width="0.3" stroke-linecap="round" stroke-linejoin="round"/><path d="M141.52 32.5H166.72" stroke="#03FC9D" stroke-width="0.3" stroke-linecap="round" stroke-linejoin="round"/><path d="M164.06 40.28H178.15" stroke="#003B2F" stroke-width="0.3" stroke-linecap="round" stroke-linejoin="round"/><path d="M35.87 86.78V89.13" stroke="#003B2F" stroke-width="0.3" stroke-linecap="round" stroke-linejoin="round"/><path d="M35.87 90.85V93.2" stroke="#003B2F" stroke-width="0.3" stroke-linecap="round" stroke-linejoin="round"/><path d="M32.66 89.99H35.01" stroke="#003B2F" stroke-width="0.3" stroke-linecap="round" stroke-linejoin="round"/><path d="M36.73 89.99H39.08" stroke="#003B2F" stroke-width="0.3" stroke-linecap="round" stroke-linejoin="round"/><path d="M76.61 16.6L78.71 15.38" stroke="#003B2F" stroke-width="0.3" stroke-linecap="round" stroke-linejoin="round"/><path d="M80.82 16.6L79.58 15.89" stroke="#003B2F" stroke-width="0.3" stroke-linecap="round" stroke-linejoin="round"/><path d="M78.71 15.38V12.93" stroke="#003B2F" stroke-width="0.3" stroke-linecap="round" stroke-linejoin="round"/></svg>