<svg width="1676" height="858" viewBox="0 0 1676 858" fill="none" xmlns="http://www.w3.org/2000/svg"><path d="M135.728 232.571H163.485C154.673 232.571 147.624 225.434 147.624 216.71C147.624 207.986 154.762 200.848 163.485 200.848H243.146C251.958 200.848 259.007 207.986 259.007 216.71H283.416C292.228 216.71 299.278 223.848 299.278 232.571C299.278 241.383 292.14 248.433 283.416 248.433H231.249C231.249 257.245 224.112 264.294 215.388 264.294H135.728C126.916 264.294 119.866 257.157 119.866 248.433C119.866 239.709 127.004 232.571 135.728 232.571Z" fill="#E6E8EA"/><path d="M360.962 240.678H222.526C207.244 240.678 194.856 253.047 194.856 268.304C194.856 283.561 207.244 295.929 222.526 295.929H360.962C376.243 295.929 388.631 283.561 388.631 268.304C388.631 253.047 376.243 240.678 360.962 240.678Z" fill="#03FC9D"/><path d="M135.993 740.317H166.658" stroke="#003B2F" stroke-width="3" stroke-linecap="round" stroke-linejoin="round"/><path d="M245.437 722.164H395.592" stroke="#03FC9D" stroke-width="3" stroke-linecap="round" stroke-linejoin="round"/><path d="M206.312 740.141H330.649" stroke="#003B2F" stroke-width="3" stroke-linecap="round" stroke-linejoin="round"/><path d="M1272.65 737.277C1282.97 737.277 1291.33 728.913 1291.33 718.595C1291.33 708.278 1282.97 699.914 1272.65 699.914C1262.33 699.914 1253.97 708.278 1253.97 718.595C1253.97 728.913 1262.33 737.277 1272.65 737.277Z" stroke="#003B2F" stroke-width="3" stroke-linecap="round" stroke-linejoin="round"/><path d="M1287.28 813.5H1417.96C1432.37 813.5 1444.04 801.822 1444.04 787.417C1444.04 773.011 1432.37 761.333 1417.96 761.333H1287.28C1272.87 761.333 1261.19 773.011 1261.19 787.417C1261.19 801.822 1272.87 813.5 1287.28 813.5Z" fill="#03FC9D"/><path d="M1358.21 773.494H1572.26C1595.86 773.494 1614.99 754.379 1614.99 730.8C1614.99 707.221 1595.86 688.106 1572.26 688.106H1358.21C1334.61 688.106 1315.48 707.221 1315.48 730.8C1315.48 754.379 1334.61 773.494 1358.21 773.494Z" fill="#03FC9D"/><path d="M1293.27 412.952H1324.02" stroke="#003B2F" stroke-width="3" stroke-linecap="round" stroke-linejoin="round"/><path d="M1405 379.291H1555.16" stroke="#03FC9D" stroke-width="3" stroke-linecap="round" stroke-linejoin="round"/><path d="M1363.68 412.776H1487.93" stroke="#003B2F" stroke-width="3" stroke-linecap="round" stroke-linejoin="round"/><path d="M280.685 461.947L301.481 473.931" stroke="#003B2F" stroke-width="3" stroke-linecap="round" stroke-linejoin="round"/><path d="M322.366 461.947L310.118 468.997" stroke="#003B2F" stroke-width="3" stroke-linecap="round" stroke-linejoin="round"/><path d="M301.482 473.931V498.252" stroke="#003B2F" stroke-width="3" stroke-linecap="round" stroke-linejoin="round"/><path d="M1311.16 113.081L1325.26 127.18" stroke="#003B2F" stroke-width="3" stroke-linecap="round" stroke-linejoin="round"/><path d="M1335.48 137.49L1349.58 151.589" stroke="#003B2F" stroke-width="3" stroke-linecap="round" stroke-linejoin="round"/><path d="M1311.16 151.589L1325.26 137.49" stroke="#003B2F" stroke-width="3" stroke-linecap="round" stroke-linejoin="round"/><path d="M1335.48 127.18L1349.58 113.081" stroke="#003B2F" stroke-width="3" stroke-linecap="round" stroke-linejoin="round"/><path d="M824.647 209.132V234.598" stroke="#003B2F" stroke-width="3" stroke-linecap="round" stroke-linejoin="round"/><path d="M824.647 259.712V285.179" stroke="#003B2F" stroke-width="3" stroke-linecap="round" stroke-linejoin="round"/><path d="M824.647 310.293V335.848" stroke="#003B2F" stroke-width="3" stroke-linecap="round" stroke-linejoin="round"/><path d="M901.664 164.631L923.782 177.409" stroke="#003B2F" stroke-width="3" stroke-linecap="round" stroke-linejoin="round"/><path d="M945.459 189.922L967.577 202.699" stroke="#003B2F" stroke-width="3" stroke-linecap="round" stroke-linejoin="round"/><path d="M989.342 215.212L1011.37 227.989" stroke="#003B2F" stroke-width="3" stroke-linecap="round" stroke-linejoin="round"/><path d="M638.187 316.726L660.305 329.503" stroke="#003B2F" stroke-width="3" stroke-linecap="round" stroke-linejoin="round"/><path d="M682.07 342.016L704.1 354.793" stroke="#003B2F" stroke-width="3" stroke-linecap="round" stroke-linejoin="round"/><path d="M725.865 367.306L747.984 380.084" stroke="#003B2F" stroke-width="3" stroke-linecap="round" stroke-linejoin="round"/><path d="M638.187 227.813L660.305 215.035" stroke="#003B2F" stroke-width="3" stroke-linecap="round" stroke-linejoin="round"/><path d="M682.07 202.434L704.1 189.745" stroke="#003B2F" stroke-width="3" stroke-linecap="round" stroke-linejoin="round"/><path d="M725.865 177.144L747.984 164.455" stroke="#003B2F" stroke-width="3" stroke-linecap="round" stroke-linejoin="round"/><path d="M638.187 532.002L660.305 519.225" stroke="#003B2F" stroke-width="3" stroke-linecap="round" stroke-linejoin="round"/><path d="M682.07 506.624L704.1 493.934" stroke="#003B2F" stroke-width="3" stroke-linecap="round" stroke-linejoin="round"/><path d="M725.865 481.333L747.984 468.644" stroke="#003B2F" stroke-width="3" stroke-linecap="round" stroke-linejoin="round"/><path d="M561.17 487.502V461.947" stroke="#003B2F" stroke-width="3" stroke-linecap="round" stroke-linejoin="round"/><path d="M561.17 436.833V411.366" stroke="#003B2F" stroke-width="3" stroke-linecap="round" stroke-linejoin="round"/><path d="M561.17 386.252V360.785" stroke="#003B2F" stroke-width="3" stroke-linecap="round" stroke-linejoin="round"/><path d="M824.647 639.596V614.042" stroke="#003B2F" stroke-width="3" stroke-linecap="round" stroke-linejoin="round"/><path d="M824.647 588.927V563.461" stroke="#003B2F" stroke-width="3" stroke-linecap="round" stroke-linejoin="round"/><path d="M824.647 538.347V512.88" stroke="#003B2F" stroke-width="3" stroke-linecap="round" stroke-linejoin="round"/><path d="M747.631 684.009L725.513 671.319" stroke="#003B2F" stroke-width="3" stroke-linecap="round" stroke-linejoin="round"/><path d="M703.747 658.718L681.718 646.029" stroke="#003B2F" stroke-width="3" stroke-linecap="round" stroke-linejoin="round"/><path d="M659.952 633.428L637.834 620.651" stroke="#003B2F" stroke-width="3" stroke-linecap="round" stroke-linejoin="round"/><path d="M1011.02 532.002L988.903 519.225" stroke="#003B2F" stroke-width="3" stroke-linecap="round" stroke-linejoin="round"/><path d="M967.226 506.624L945.108 493.934" stroke="#003B2F" stroke-width="3" stroke-linecap="round" stroke-linejoin="round"/><path d="M923.343 481.333L901.313 468.644" stroke="#003B2F" stroke-width="3" stroke-linecap="round" stroke-linejoin="round"/><path d="M1011.02 620.915L988.903 633.692" stroke="#003B2F" stroke-width="3" stroke-linecap="round" stroke-linejoin="round"/><path d="M967.226 646.205L945.108 658.982" stroke="#003B2F" stroke-width="3" stroke-linecap="round" stroke-linejoin="round"/><path d="M923.343 671.495L901.313 684.273" stroke="#003B2F" stroke-width="3" stroke-linecap="round" stroke-linejoin="round"/><path d="M1011.02 316.726L988.903 329.503" stroke="#003B2F" stroke-width="3" stroke-linecap="round" stroke-linejoin="round"/><path d="M967.226 342.016L945.108 354.793" stroke="#003B2F" stroke-width="3" stroke-linecap="round" stroke-linejoin="round"/><path d="M923.343 367.306L901.313 380.084" stroke="#003B2F" stroke-width="3" stroke-linecap="round" stroke-linejoin="round"/><path d="M1088.04 361.226V386.693" stroke="#003B2F" stroke-width="3" stroke-linecap="round" stroke-linejoin="round"/><path d="M1088.04 411.807V437.273" stroke="#003B2F" stroke-width="3" stroke-linecap="round" stroke-linejoin="round"/><path d="M1088.04 462.388V487.942" stroke="#003B2F" stroke-width="3" stroke-linecap="round" stroke-linejoin="round"/><path d="M561.171 206.488L504.157 239.445L561.171 272.313L618.184 239.445L561.171 206.488Z" fill="#03FC9D"/><path d="M561.171 272.313V338.139L618.184 305.27V239.445L561.171 272.313Z" fill="#03FC9D"/><path d="M561.171 272.313V338.139L504.157 305.27V239.445L561.171 272.313Z" fill="#03FC9D"/><path d="M628.76 272.313V233.364" stroke="#003B2F" stroke-width="3" stroke-linecap="round" stroke-linejoin="round"/><path d="M493.672 233.364V311.262L561.172 350.299L600.561 327.564" stroke="#003B2F" stroke-width="3" stroke-linecap="round" stroke-linejoin="round"/><path d="M561.172 272.313L628.759 233.364L561.172 194.239L493.672 233.364L561.172 272.313Z" stroke="#003B2F" stroke-width="3" stroke-linecap="round" stroke-linejoin="round"/><path d="M561.171 272.313V350.299" stroke="#003B2F" stroke-width="3" stroke-linecap="round" stroke-linejoin="round"/><path d="M560.466 510.237L503.364 543.193L560.466 576.062L617.479 543.193L560.466 510.237Z" fill="#03FC9D"/><path d="M560.465 576.062V641.887L617.479 609.019V543.193L560.465 576.062Z" fill="#03FC9D"/><path d="M560.466 576.062V641.887L503.364 609.019V543.193L560.466 576.062Z" fill="#03FC9D"/><path d="M627.966 576.062V537.113" stroke="#003B2F" stroke-width="3" stroke-linecap="round" stroke-linejoin="round"/><path d="M492.878 537.113V615.011L560.466 654.048L599.767 631.313" stroke="#003B2F" stroke-width="3" stroke-linecap="round" stroke-linejoin="round"/><path d="M560.466 576.062L627.965 537.113L560.466 497.988L492.878 537.113L560.466 576.062Z" stroke="#003B2F" stroke-width="3" stroke-linecap="round" stroke-linejoin="round"/><path d="M560.465 576.062V654.048" stroke="#003B2F" stroke-width="3" stroke-linecap="round" stroke-linejoin="round"/><path d="M824.824 668.588L767.81 701.456L824.824 734.413L881.837 701.456L824.824 668.588Z" fill="#03FC9D"/><path d="M824.823 734.413V800.15L881.837 767.281V701.456L824.823 734.413Z" fill="#03FC9D"/><path d="M824.824 734.413V800.15L767.81 767.281V701.456L824.824 734.413Z" fill="#03FC9D"/><path d="M892.325 734.413V695.376" stroke="#003B2F" stroke-width="3" stroke-linecap="round" stroke-linejoin="round"/><path d="M757.236 695.376V773.362L824.824 812.311L864.125 789.576" stroke="#003B2F" stroke-width="3" stroke-linecap="round" stroke-linejoin="round"/><path d="M824.824 734.413L892.324 695.376L824.824 656.339L757.236 695.376L824.824 734.413Z" stroke="#003B2F" stroke-width="3" stroke-linecap="round" stroke-linejoin="round"/><path d="M824.823 734.413V812.311" stroke="#003B2F" stroke-width="3" stroke-linecap="round" stroke-linejoin="round"/><path d="M892.324 695.376V773.362L824.824 812.311L785.434 789.576" stroke="#003B2F" stroke-width="3" stroke-linecap="round" stroke-linejoin="round"/><path d="M1088.83 206.929L1145.84 239.886L1088.83 272.754L1031.73 239.886L1088.83 206.929Z" fill="#03FC9D"/><path d="M1088.83 272.754V338.579L1031.73 305.623V239.885L1088.83 272.754Z" fill="#03FC9D"/><path d="M1088.83 272.754V338.579L1145.84 305.623V239.885L1088.83 272.754Z" fill="#03FC9D"/><path d="M1021.24 272.754V233.805" stroke="#003B2F" stroke-width="3" stroke-linecap="round" stroke-linejoin="round"/><path d="M1156.33 233.805V311.703L1088.83 350.652L1049.44 328.005" stroke="#003B2F" stroke-width="3" stroke-linecap="round" stroke-linejoin="round"/><path d="M1088.83 272.754L1021.24 233.805L1088.83 194.68L1156.33 233.805L1088.83 272.754Z" stroke="#003B2F" stroke-width="3" stroke-linecap="round" stroke-linejoin="round"/><path d="M1088.83 272.754V350.652" stroke="#003B2F" stroke-width="3" stroke-linecap="round" stroke-linejoin="round"/><path d="M1088.04 512.528L1145.05 545.485L1088.04 578.353L1031.02 545.485L1088.04 512.528Z" fill="#03FC9D"/><path d="M1088.04 578.353V644.178L1031.02 611.222V545.484L1088.04 578.353Z" fill="#03FC9D"/><path d="M1088.04 578.353V644.178L1145.05 611.222V545.484L1088.04 578.353Z" fill="#03FC9D"/><path d="M1020.54 578.353V539.404" stroke="#003B2F" stroke-width="3" stroke-linecap="round" stroke-linejoin="round"/><path d="M1155.62 539.404V617.302L1088.04 656.339L1048.73 633.604" stroke="#003B2F" stroke-width="3" stroke-linecap="round" stroke-linejoin="round"/><path d="M1088.04 578.353L1020.54 539.404L1088.04 500.279L1155.62 539.404L1088.04 578.353Z" stroke="#003B2F" stroke-width="3" stroke-linecap="round" stroke-linejoin="round"/><path d="M1088.04 578.353V656.339" stroke="#003B2F" stroke-width="3" stroke-linecap="round" stroke-linejoin="round"/><path d="M824.823 53.8647L767.458 86.9977L824.823 120.043L882.189 86.9977L824.823 53.8647Z" fill="#03FC9D"/><path d="M824.823 120.043V186.221L882.189 153.176V86.9978L824.823 120.043Z" fill="#03FC9D"/><path d="M824.823 120.043V186.221L767.458 153.176V86.9978L824.823 120.043Z" fill="#03FC9D"/><path d="M892.764 80.8293L824.824 41.7042L756.884 80.8293" stroke="#003B2F" stroke-width="3" stroke-linecap="round" stroke-linejoin="round"/><path d="M824.823 120.043L892.764 80.8293V120.043" stroke="#003B2F" stroke-width="3" stroke-linecap="round" stroke-linejoin="round"/><path d="M824.823 120.042V198.469" stroke="#003B2F" stroke-width="3" stroke-linecap="round" stroke-linejoin="round"/><path d="M824.824 120.043L756.884 80.8293" stroke="#003B2F" stroke-width="3" stroke-linecap="round" stroke-linejoin="round"/><path d="M756.884 136.609V80.8293" stroke="#003B2F" stroke-width="3" stroke-linecap="round" stroke-linejoin="round"/><path d="M824.824 198.469L774.419 169.302" stroke="#003B2F" stroke-width="3" stroke-linecap="round" stroke-linejoin="round"/><path d="M824.823 198.469L875.228 169.302" stroke="#003B2F" stroke-width="3" stroke-linecap="round" stroke-linejoin="round"/><path d="M830.464 543.105C888.865 543.105 936.208 495.762 936.208 437.361C936.208 378.961 888.865 331.618 830.464 331.618C772.064 331.618 724.721 378.961 724.721 437.361C724.721 495.762 772.064 543.105 830.464 543.105Z" fill="#03FC9D"/><mask id="mask0_565_3239" style="mask-type:luminance" maskUnits="userSpaceOnUse" x="728" y="335" width="204" height="204"><path d="M931.978 335.848H728.862V538.963H931.978V335.848Z" fill="white"/></mask><g mask="url(#mask0_565_3239)"><path d="M837.602 538.964H830.376C774.332 538.964 728.862 493.494 728.862 437.45C728.862 381.406 774.332 335.936 830.376 335.936C886.42 335.936 931.89 381.406 931.89 437.45C931.89 442.473 931.538 447.407 930.833 452.254H916.645C917.438 447.407 917.879 442.473 917.879 437.45C917.879 389.16 878.666 349.947 830.376 349.947C782.087 349.947 742.873 389.16 742.873 437.45C742.873 485.739 782.087 524.953 830.376 524.953H882.455C869.149 532.883 853.904 537.818 837.602 538.964Z" fill="#003B2F"/><path d="M901.93 509.884H830.465C790.458 509.884 758.03 477.456 758.03 437.45C758.03 397.443 790.458 365.015 830.465 365.015C870.471 365.015 902.899 397.443 902.899 437.45C902.899 442.472 902.37 447.495 901.401 452.254H886.949C888.183 447.495 888.8 442.561 888.8 437.45C888.8 405.198 862.628 379.026 830.377 379.026C798.125 379.026 771.953 405.198 771.953 437.45C771.953 469.701 798.125 495.873 830.377 495.873H913.738C910.213 500.896 906.248 505.566 901.842 509.884H901.93Z" fill="#003B2F"/><path d="M922.55 480.805H830.465C806.496 480.805 787.11 461.418 787.11 437.45C787.11 413.481 806.496 394.095 830.465 394.095C854.434 394.095 873.82 413.481 873.82 437.45C873.82 442.649 872.939 447.584 871.264 452.254H855.843C858.399 447.936 859.809 442.825 859.809 437.45C859.809 421.236 846.679 408.106 830.465 408.106C814.251 408.106 801.121 421.236 801.121 437.45C801.121 453.664 814.251 466.794 830.465 466.794H927.925C926.427 471.64 924.665 476.311 922.55 480.805Z" fill="#003B2F"/></g></svg>