<?xml version="1.0" encoding="UTF-8"?><svg id="Layer_1" data-name="Layer 1" xmlns="http://www.w3.org/2000/svg" viewBox="0 0 192 108"><defs><style>.cls-1, .cls-2, .cls-3, .cls-4, .cls-5, .cls-6 {
        stroke-linecap: round;
        stroke-linejoin: round;
        stroke-width: .3px;
      }

      .cls-1, .cls-2, .cls-5 {
        stroke: #003d2e;
      }

      .cls-1, .cls-7 {
        fill: #e3e7e3;
      }

      .cls-2, .cls-8 {
        fill: #00ff94;
      }

      .cls-9 {
        fill: #f7ddb0;
      }

      .cls-10 {
        fill: #003d2e;
      }

      .cls-11 {
        fill: #f6d9a7;
      }

      .cls-12 {
        fill: #fffefe;
      }

      .cls-3 {
        stroke: #00ff94;
      }

      .cls-3, .cls-4, .cls-5, .cls-6 {
        fill: none;
      }

      .cls-4 {
        stroke: #003c2e;
      }

      .cls-6 {
        stroke: #163b2f;
      }</style></defs><rect class="cls-5" x="32.31" y="84.02" width="2.79" height="2.79" transform="translate(70.27 1.18) rotate(45)"/><path class="cls-8" d="M20.4,91.99h-4.43c1.4,0,2.54-1.03,2.54-2.3s-1.14-2.3-2.54-2.3H3.25c-1.4,0-2.54,1.03-2.54,2.3H-3.18c-1.4,0-2.54,1.03-2.54,2.3s1.14,2.3,2.54,2.3H5.15c0,1.27,1.14,2.3,2.54,2.3h12.71c1.4,0,2.54-1.03,2.54-2.3s-1.14-2.3-2.54-2.3Z"/><line class="cls-4" x1="12.67" y1="90.35" x2="15.84" y2="90.35"/><line class="cls-3" x1="8.09" y1="81.91" x2="31.06" y2="81.91"/><line class="cls-4" x1="19.94" y1="90.33" x2="32.78" y2="90.33"/><g><line class="cls-5" x1="170.4" y1="43.45" x2="172.7" y2="44.77"/><line class="cls-5" x1="175" y1="43.45" x2="173.65" y2="44.23"/><line class="cls-5" x1="172.7" y1="44.77" x2="172.7" y2="47.46"/></g><line class="cls-4" x1="155.65" y1="55.73" x2="162.07" y2="55.73"/><line class="cls-4" x1="150.77" y1="55.73" x2="152.38" y2="55.73"/><line class="cls-3" x1="156.58" y1="51.1" x2="173.22" y2="51.1"/><g><line class="cls-6" x1="141.29" y1="49.84" x2="142.8" y2="51.35"/><line class="cls-6" x1="143.91" y1="52.46" x2="145.43" y2="53.98"/><line class="cls-6" x1="141.29" y1="53.98" x2="142.8" y2="52.46"/><line class="cls-6" x1="143.91" y1="51.35" x2="145.43" y2="49.84"/></g><line class="cls-4" x1="24.23" y1="50.46" x2="17.81" y2="50.46"/><line class="cls-4" x1="29.11" y1="50.46" x2="27.49" y2="50.46"/><line class="cls-3" x1="23.3" y1="55.09" x2="6.66" y2="55.09"/><g><line class="cls-6" x1="38.59" y1="56.35" x2="37.07" y2="54.83"/><line class="cls-6" x1="35.96" y1="53.73" x2="34.45" y2="52.21"/><line class="cls-6" x1="38.59" y1="52.21" x2="37.07" y2="53.73"/><line class="cls-6" x1="35.96" y1="54.83" x2="34.45" y2="56.35"/></g><path class="cls-7" d="M35.1,20.83h-4.43c1.4,0,2.54,1.14,2.54,2.54s-1.14,2.54-2.54,2.54h-12.72c-1.4,0-2.54-1.14-2.54-2.54h-3.9c-1.4,0-2.54-1.14-2.54-2.54s1.14-2.54,2.54-2.54h8.33c0-1.4,1.14-2.54,2.54-2.54h12.71c1.4,0,2.54,1.14,2.54,2.54s-1.14,2.54-2.54,2.54Z"/><g><line class="cls-6" x1="10.89" y1="32.01" x2="10.89" y2="29.86"/><line class="cls-6" x1="10.89" y1="28.29" x2="10.89" y2="26.15"/><line class="cls-6" x1="7.96" y1="29.08" x2="10.11" y2="29.08"/><line class="cls-6" x1="11.68" y1="29.08" x2="13.82" y2="29.08"/></g><path class="cls-8" d="M16.41,23.45H-.1c.06-2.99,0-5.9-.05-8.83H16.41c2.44,0,4.41,1.98,4.41,4.41,0,2.44-1.98,4.41-4.41,4.41Z"/><rect class="cls-5" x="174.1" y="17.97" width="2.79" height="2.79" transform="translate(65.09 -118.42) rotate(45)"/><line class="cls-4" x1="154.46" y1="24.3" x2="157.63" y2="24.3"/><line class="cls-3" x1="149.87" y1="15.86" x2="172.85" y2="15.86"/><line class="cls-4" x1="161.73" y1="24.28" x2="174.57" y2="24.28"/><path class="cls-7" d="M173.43,91.22h-4.78c1.51,0,2.74-1.08,2.74-2.42s-1.23-2.42-2.74-2.42h-13.74c-1.51,0-2.74,1.08-2.74,2.42h-4.22c-1.51,0-2.74,1.08-2.74,2.42s1.23,2.42,2.74,2.42h9c0,1.34,1.23,2.42,2.74,2.42h13.74c1.51,0,2.74-1.08,2.74-2.42s-1.23-2.42-2.74-2.42Z"/><line class="cls-4" x1="165.08" y1="89.49" x2="168.51" y2="89.49"/><line class="cls-3" x1="160.13" y1="80.63" x2="184.96" y2="80.63"/><line class="cls-4" x1="174.57" y1="86.38" x2="188.45" y2="86.38"/><rect class="cls-2" x="40" y="61.18" width="106.12" height="28.08" rx="12.94" ry="12.94"/><rect class="cls-1" x="49.4" y="89.25" width="16.46" height="4.51" rx="2.08" ry="2.08"/><rect class="cls-1" x="119.1" y="89.25" width="16.46" height="4.51" rx="2.08" ry="2.08"/><line class="cls-5" x1="86.63" y1="75.22" x2="93.06" y2="75.22"/><line class="cls-5" x1="99.27" y1="75.22" x2="105.69" y2="75.22"/><line class="cls-5" x1="111.49" y1="75.22" x2="117.91" y2="75.22"/><line class="cls-5" x1="130.54" y1="20.08" x2="130.54" y2="60.77"/><line class="cls-5" x1="56.46" y1="20.08" x2="56.46" y2="60.77"/><line class="cls-5" x1="56.46" y1="67.84" x2="56.46" y2="75.35"/><line class="cls-5" x1="124.12" y1="75.22" x2="130.54" y2="75.22"/><path class="cls-5" d="M61.45,69.32c2.76,2.76,2.76,7.23,0,9.98-2.76,2.76-7.23,2.76-9.98,0-2.76-2.76-2.76-7.23,0-9.98"/><circle class="cls-5" cx="93.35" cy="42.01" r="4.3"/><path class="cls-5" d="M75.69,34.2c9.72-9.72,25.47-9.72,35.19,0"/><path class="cls-5" d="M66.09,23.31c15.14-15.14,39.68-15.14,54.81,0"/><g><circle class="cls-7" cx="92.15" cy="45.28" r="11.45"/><g><path class="cls-8" d="M88.18,44.06c.13,0,.29,0,.44-.02,.16-.01,.32-.04,.47-.1,.09-.03,.18-.09,.22-.19,.07-.18,.08-.37,.03-.55-.08-.28-.29-.48-.52-.65-.19-.15-.43-.21-.66-.17-.42,.07-.85,.44-.9,.88-.02,.19-.03,.38,.08,.55,.08,.12,.15,.21,.31,.23,.17,.01,.35,.03,.54,.03h0Zm7.94,0c.1,0,.24-.01,.4-.02,.13,0,.26-.04,.34-.16,.11-.18,.16-.37,.13-.57-.05-.36-.26-.61-.57-.79-.24-.14-.51-.19-.78-.09-.16,.06-.29,.16-.41,.28-.21,.2-.38,.43-.4,.73-.02,.28,.09,.45,.36,.53,.29,.08,.58,.09,.93,.1Zm1.45,1.22c0-.18,0-.35-.05-.52-.07-.21-.05-.22-.26-.2-.29,.03-.55,.15-.81,.27-.36,.18-.71,.39-1.05,.62-.27,.18-.56,.35-.8,.58-.19,.18-.36,.38-.4,.65-.01,.08,.01,.13,.11,.16,.09,.02,.17,.04,.26,.04,.34,0,.67-.06,.99-.14,.42-.1,.83-.24,1.21-.44,.26-.13,.5-.28,.69-.5,.05-.06,.09-.11,.09-.2,0-.11,0-.21,.02-.32Zm-10.7-.03c0,.08,.02,.2,.02,.33,0,.12,.06,.2,.14,.28,.33,.32,.73,.5,1.15,.66,.27,.1,.55,.18,.84,.24,.29,.06,.57,.11,.87,.12,.1,0,.21,0,.31-.04,.09-.03,.11-.07,.1-.15-.01-.07-.04-.15-.07-.21-.13-.26-.33-.46-.57-.62-.61-.42-1.22-.82-1.9-1.11-.21-.09-.42-.16-.65-.16-.08,0-.11,.03-.14,.1-.07,.17-.08,.34-.09,.57Zm-2.14-8.65c-.05,0-.06,0-.1,.11-.17,.37-.21,.76-.23,1.16,0,.25,0,.49,.03,.73,.01,.17,.04,.34,.06,.51,.07,.43,.15,.86,.26,1.29,.08,.3,.16,.6,.25,.9,.07,.25,.15,.49,.23,.74,0,.02,.01,.04,.04,.04,.02,0,.02-.02,.03-.03,.17-.26,.34-.53,.53-.78,.24-.31,.48-.61,.75-.89,.22-.23,.44-.45,.69-.65,.22-.19,.46-.37,.7-.53,.05-.03,.04-.05,0-.09-.16-.17-.32-.35-.49-.52-.28-.28-.58-.56-.88-.82-.22-.19-.45-.37-.69-.54-.25-.17-.51-.33-.78-.46-.12-.06-.25-.12-.39-.16Zm12.3,3.2c.04,.07,.11,.1,.16,.15,.23,.24,.47,.46,.69,.72,.35,.41,.67,.85,.96,1.31,.02,.03,.03,.09,.07,.09,.01,0,.03-.07,.04-.1,.09-.31,.19-.61,.28-.91,.1-.35,.19-.7,.27-1.05,.09-.39,.16-.77,.2-1.17,.03-.26,.05-.52,.06-.79,0-.23-.02-.47-.05-.7,0-.01-.01-.03-.01-.05-.03-.22-.09-.43-.19-.62-.04-.1-.06-.1-.16-.06-.36,.14-.7,.32-1.02,.54-.5,.34-.96,.74-1.4,1.16-.25,.25-.5,.5-.74,.76-.04,.04-.05,.06,0,.1,.19,.14,.39,.28,.58,.43,.08,.06,.14,.14,.24,.19h0Zm-.11-2.66c.22-.21,.44-.44,.68-.64,.43-.37,.88-.69,1.4-.92,.34-.15,.69-.26,1.06-.29,.05,0,.09,0,.12,.06,.14,.22,.22,.45,.29,.7,.14,.51,.16,1.02,.14,1.54-.02,.42-.06,.84-.12,1.26-.05,.33-.11,.66-.17,.99-.02,.13-.06,.25-.07,.38,0,.03-.02,.05-.02,.08-.09,.43-.2,.86-.31,1.28-.13,.5-.27,1-.43,1.49-.05,.14-.02,.26,.04,.38,.16,.35,.37,.69,.5,1.06,.1,.26,.19,.52,.27,.79,.13,.43,.23,.88,.3,1.32,.08,.51,.13,1.03,.15,1.54,0,.09,.04,.18,0,.28-.12-.02-.25-.04-.37-.06-.41-.05-.82-.06-1.23-.02-.47,.04-.94,.16-1.38,.34-.57,.24-1.08,.58-1.53,1-.12,.11-.24,.23-.36,.36l-.14-.42c-.13-.39-.33-.75-.51-1.12-.05-.11-.12-.21-.2-.31-.28-.33-.62-.62-.98-.85-.58-.35-1.21-.51-1.88-.51-.35,0-.69,.06-1.02,.17-.66,.2-1.18,.59-1.63,1.1-.16,.19-.27,.4-.4,.61-.17,.28-.33,.57-.46,.87l-.19,.44-.08-.09c-.77-.85-1.7-1.43-2.85-1.61-.43-.06-.86-.07-1.29-.03-.21,.02-.43,.05-.64,.09,0-.24,.02-.48,.04-.72,.03-.31,.07-.62,.12-.93,.05-.26,.1-.52,.16-.78,.1-.42,.22-.82,.37-1.23,.03-.08,.07-.15,0-.23,0,0,0-.01,0-.03,.05,.06,.07,.05,.1-.02,.15-.39,.31-.77,.49-1.15,.02-.04,.03-.07,.01-.11-.16-.4-.3-.81-.41-1.22-.09-.31-.17-.63-.24-.95-.05-.23-.1-.46-.15-.69-.01-.19-.06-.38-.09-.57-.09-.59-.15-1.19-.18-1.79-.01-.3-.02-.59,0-.89,.01-.37,.04-.73,.13-1.08,.05-.19,.12-.38,.22-.55,.12-.2,.22-.23,.45-.2,.4,.06,.76,.24,1.1,.45,.45,.29,.85,.64,1.23,1.01l.46,.45s.02,.03,.03,.04c.2,.22,.4,.43,.6,.65,.28,.31,.55,.62,.83,.94,.06,.06,.1,.07,.17,.04,.48-.2,.97-.33,1.48-.43,.44-.08,.88-.11,1.33-.13,.64-.02,1.27,0,1.9,.11,.56,.09,1.12,.23,1.65,.44,.12,.05,.12,.05,.2-.06,.24-.33,.49-.65,.75-.96,.19-.23,.4-.46,.6-.69h0Z"/><path class="cls-12" d="M93.42,55.08h-.07s.05,.01,.07,0Zm-.24,.04c.06,.02,.1,0,.14-.02-.05-.02-.09,.01-.14,.02h0Zm-.85-3.06h0s-.69,0-.69,0c-.14,0-.14,0-.13,.14,0,.04,.02,.05,.04,.07,.07,.04,.14,.07,.22,.1,.05,.02,.08,.02,.1-.04,.04-.12,.04-.11,.17-.11,.04,0,.06,.02,.08,.05l.13,.21c.07,.11,.17,.12,.26,.02l.11-.13q.12-.14,.26-.02s.03,.04,.07,.03c.12-.03,.2-.13,.21-.25,0-.06-.02-.07-.08-.07-.25,0-.5,0-.75,0Zm2.33-.69h-.68s-.05,.02-.06,.04c-.02,.06-.06,.07-.12,.07-.18,0-.36,0-.53,0-.09,0-.2,.03-.27-.01-.07-.04-.11-.15-.15-.23-.03-.06-.06-.09-.13-.08-.04,0-.06,0-.05-.05,0-.2,0-.4,0-.6,0-.03,0-.05,.04-.06,.15-.05,.3-.13,.43-.23,.26-.19,.43-.44,.49-.76,.04-.22,.02-.44,.03-.66,0-.27-.26-.54-.53-.54h-1.49c-.3,0-.5,.2-.5,.5,0,.14,0,.28,0,.43-.02,.29,.1,.52,.3,.72,.24,.24,.53,.4,.84,.54,.03,.01,.06,.02,.06,.06,0,.2,0,.41,0,.61,0,.03,0,.06-.04,.05-.08-.02-.11,.03-.14,.09-.04,.07-.08,.13-.11,.19-.02,.03-.04,.04-.07,.04-.32,0-.63,0-.95-.02-.03,0-.05,0-.05-.03,0-.05-.03-.06-.08-.06h-.66s-.04-.02-.05,.01c0,.03,0,.05,.01,.08,.04,.04,.08,.08,.12,.11,.05,.04,.08,.1,.08,.16,0,.09,.02,.18,.04,.28,.01,.08,.04,.1,.11,.08,.05-.02,.11-.02,.11,.06,.01,.11,.05,.22,.08,.32,.05,.14,.1,.28,.19,.4,.1-.11,.11-.23,.11-.37,0-.25,0-.5,0-.75,.04,0,.08,0,.12,.01,.34,.07,.68,.09,1.02,.11,.55,.02,1.1-.02,1.64-.12,.06-.01,.07,0,.07,.06,0,.26,0,.51,0,.77,0,.12,.08,.19,.14,.29l.25-.65c.05-.12,.05-.12,.18-.12,.04,0,.07,0,.08-.05l.16-.68h0Zm4.36,.6v-.02s0,0,0,0v.02s-.02,.01-.02,.02c-.02,0-.03,.01-.03,.03h-.02s0,.01,0,.01h.01s.03-.03,.03-.05l.02-.02Zm.07-.03c-.16,.19-.34,.36-.52,.53-.43,.39-.89,.75-1.37,1.06-.51,.34-1.05,.63-1.61,.89-.4,.18-.8,.34-1.21,.47-.4,.13-.81,.23-1.23,.3-.46,.08-.94,.1-1.4,.06-.41-.04-.82-.12-1.22-.24-.11-.03-.21-.07-.32-.11-.17-.06-.34-.12-.51-.18-.23-.08-.45-.19-.67-.29-1.12-.51-2.15-1.17-3.08-1.97-.67-.58-1.28-1.21-1.75-1.97-.24-.37-.42-.77-.54-1.2-.08-.29-.11-.58-.09-.88,.21-.04,.42-.07,.64-.09,.43-.04,.87-.03,1.29,.03,1.16,.18,2.08,.76,2.86,1.61l.08,.09,.19-.44c.13-.3,.29-.59,.46-.87,.13-.21,.23-.42,.4-.61,.45-.51,.98-.9,1.63-1.1,.33-.11,.67-.17,1.02-.17,.67,0,1.3,.16,1.88,.51,.37,.23,.7,.52,.98,.85,.08,.09,.15,.2,.2,.31,.18,.37,.38,.73,.51,1.12l.14,.41c.12-.12,.24-.24,.36-.36,.44-.42,.96-.76,1.53-1,.44-.18,.9-.29,1.38-.34,.41-.03,.82-.03,1.23,.02,.12,.01,.25,.04,.37,.06,0,.16,0,.32-.03,.49-.07,.44-.2,.86-.39,1.27-.1,.22-.24,.43-.36,.64-.23,.37-.49,.72-.79,1.05,0,0-.02,.01-.02,.02-.01-.03,.03-.05,.03-.09-.03,.03-.07,.05-.07,.09,0,0-.02,0-.03,.01,0,.02,.01,.02,.03,.02h0Z"/><path class="cls-10" d="M84.73,36.61c.13,.04,.26,.1,.39,.16,.27,.13,.53,.29,.78,.46,.24,.17,.47,.35,.69,.54,.31,.26,.6,.54,.88,.82,.17,.17,.33,.35,.49,.52,.03,.04,.04,.06,0,.09-.5,.34-.97,.74-1.39,1.18-.27,.28-.52,.58-.75,.89-.19,.25-.36,.51-.53,.78,0,.01-.01,.03-.03,.03-.02,0-.03-.02-.04-.04-.08-.25-.16-.49-.23-.74-.09-.3-.17-.6-.25-.9-.11-.42-.19-.85-.26-1.29-.03-.17-.05-.34-.06-.51-.03-.24-.04-.49-.03-.73,.02-.4,.07-.79,.23-1.16,.04-.1,.05-.11,.1-.11Z"/><path class="cls-10" d="M99.73,37.35c.03,.23,.06,.47,.05,.7-.01,.26-.03,.52-.06,.79-.04,.39-.12,.78-.2,1.17-.08,.35-.17,.7-.27,1.05-.09,.31-.19,.61-.28,.91-.01,.04-.03,.1-.05,.1-.05,0-.05-.06-.07-.09-.29-.46-.61-.89-.96-1.31-.22-.25-.46-.48-.69-.72-.05-.05-.12-.09-.16-.15,.01-.02,.03-.04,.04-.06,.1-.21,.22-.42,.34-.62,.19-.31,.39-.6,.63-.86,.25-.28,.54-.52,.88-.69,.25-.13,.52-.21,.8-.22Z"/><path class="cls-10" d="M86.87,45.25c.02-.23,.02-.4,.09-.57,.03-.07,.06-.1,.14-.1,.23,0,.44,.07,.65,.16,.68,.29,1.29,.7,1.9,1.11,.23,.16,.44,.36,.57,.62,.03,.07,.06,.14,.07,.21,.01,.08-.01,.13-.1,.15-.1,.03-.2,.05-.31,.04-.29-.01-.58-.05-.87-.12-.29-.06-.57-.14-.84-.24-.42-.16-.82-.34-1.15-.66-.08-.08-.14-.16-.14-.28,0-.13-.01-.26-.01-.33h0Z"/><path class="cls-10" d="M97.57,45.28c0,.11-.02,.21-.01,.32,0,.08-.04,.14-.09,.2-.2,.21-.44,.37-.69,.5-.38,.19-.79,.34-1.21,.44-.33,.08-.66,.14-.99,.14-.09,0-.18-.02-.26-.04-.09-.02-.12-.07-.11-.16,.04-.27,.21-.47,.4-.65,.24-.23,.52-.4,.8-.58,.34-.22,.68-.44,1.05-.62,.26-.13,.52-.25,.81-.27,.21-.02,.19-.02,.26,.2,.06,.17,.05,.35,.05,.52h0Z"/><path class="cls-10" d="M99.73,37.35c-.29,.01-.55,.1-.8,.22-.34,.17-.63,.41-.88,.69-.24,.26-.45,.56-.63,.86-.12,.2-.24,.41-.34,.62-.01,.02-.03,.04-.04,.06-.09-.04-.16-.12-.24-.19-.19-.15-.38-.29-.58-.43-.05-.04-.04-.06,0-.1,.24-.26,.48-.52,.74-.76,.44-.42,.9-.82,1.4-1.16,.32-.22,.66-.4,1.02-.54,.1-.04,.11-.04,.16,.06,.09,.2,.16,.41,.18,.62,0,.02,.01,.03,.01,.05h0Z"/><path class="cls-12" d="M96.12,44.07c-.35,0-.65-.02-.93-.1-.27-.08-.38-.25-.36-.53,.02-.31,.19-.53,.4-.73,.12-.11,.25-.22,.41-.28,.27-.1,.54-.05,.78,.09,.31,.18,.52,.43,.57,.79,.03,.21-.02,.4-.13,.57-.08,.13-.21,.16-.34,.16-.15,0-.3,.03-.4,.02Zm-7.94,0c-.2,0-.37-.01-.54-.03-.15-.01-.23-.11-.31-.23-.11-.17-.1-.36-.08-.55,.05-.44,.48-.81,.9-.88,.24-.04,.47,.02,.66,.17,.23,.18,.44,.37,.52,.65,.05,.18,.04,.37-.03,.55-.04,.1-.12,.15-.22,.19-.15,.05-.31,.09-.47,.1-.15,.01-.3,.03-.44,.02h0Z"/><path class="cls-11" d="M99.08,51.9s.04-.06,.07-.09c0,.04-.04,.06-.03,.09h0s-.05,0-.05,0Z"/><path class="cls-12" d="M99.08,51.9h.04s-.02,.03-.04,.04h0v-.04h0Z"/><path class="cls-10" d="M94.66,51.37l-.16,.68s-.04,.04-.08,.04c-.13,0-.13,0-.18,.12l-.25,.65c-.05-.1-.14-.17-.14-.29,0-.26,0-.51,0-.77,0-.06,0-.07-.07-.06-.54,.09-1.09,.14-1.64,.12-.34,0-.68-.04-1.02-.11-.04,0-.08-.01-.12-.01,0,.25,0,.5,0,.75,0,.14,0,.26-.11,.37-.09-.12-.15-.26-.19-.4-.04-.11-.07-.21-.08-.32,0-.08-.07-.08-.12-.06-.08,.02-.1,0-.11-.08-.02-.09-.03-.18-.04-.28,0-.06-.03-.12-.08-.16-.04-.03-.08-.07-.12-.11-.02-.02-.02-.05-.01-.08,0-.03,.03-.02,.05-.02h.66s.08,.01,.08,.06c0,.04,.02,.03,.05,.04,.32,.02,.63,.02,.95,.02,.03,0,.05-.01,.07-.04,.04-.06,.08-.13,.11-.19,.03-.06,.06-.11,.14-.09,.04,0,.04-.02,.04-.05,0-.2,0-.41,0-.61,0-.05-.03-.05-.06-.06-.31-.13-.6-.29-.84-.54-.2-.2-.31-.43-.3-.72,0-.14,0-.28,0-.42,0-.3,.2-.5,.5-.5h1.49c.27,0,.54,.27,.53,.54,0,.22,.01,.44-.03,.66-.06,.32-.24,.56-.49,.76-.13,.1-.27,.18-.43,.23-.04,.01-.04,.03-.04,.06,0,.2,0,.4,0,.6,0,.04,.01,.06,.05,.05,.06-.01,.1,.02,.13,.08,.04,.08,.08,.19,.15,.23,.07,.04,.18,.01,.27,.01,.18,0,.36,0,.53,0,.06,0,.1-.01,.12-.07,0-.02,.03-.05,.06-.04h.68Z"/><path class="cls-10" d="M92.33,52.06c.25,0,.5,0,.75,0,.05,0,.08,0,.08,.07,0,.12-.09,.22-.21,.25-.03,0-.05-.02-.07-.03q-.14-.12-.26,.02l-.11,.13c-.08,.1-.19,.09-.26-.02-.04-.07-.08-.14-.13-.21-.02-.03-.04-.05-.08-.05-.13,0-.13-.01-.17,.11-.02,.06-.05,.07-.1,.04-.07-.03-.15-.06-.22-.1-.03-.02-.04-.03-.04-.07,0-.14,0-.14,.13-.14h.69Z"/><path class="cls-11" d="M93.17,55.11c.05,0,.09-.03,.14-.02-.04,.02-.08,.04-.14,.02Zm.24-.04s-.05,.02-.07,0h.07Zm5.67-3.18v.03s-.03,0-.03-.02c0,0,.02,0,.03-.01Zm-.11,.11s0-.03,.03-.03c0,.02-.02,.03-.03,.03h0Z"/><path class="cls-9" d="M98.97,52.01h-.01s0,0,0,0h.02s0,0,0,0Zm-.24,.23h0s0,0,0,0c0,0,0,0,0-.01h0Z"/><path class="cls-11" d="M99.02,51.96v-.02s.02,0,.02,0v.02s-.02,0-.02,0Z"/><path class="cls-11" d="M99,51.98l.02-.02h0s-.02,.02-.02,.02h0Z"/><path class="cls-9" d="M98.92,52.05h0s0,0,0,0h0Z"/><path class="cls-9" d="M98.92,52.06h0s0,0,0,0h0Zm-.04,.04h0s0,0,0,0h0Zm-.04,.04s0-.01,.01,0h0s0,0,0,0Z"/><path class="cls-9" d="M98.84,52.14h-.01s0,0,0,0h0Zm-.04,.03h0s0,0,0,0h0Zm-.05,.05h0s0,0,0,0h0Z"/></g></g></svg>