<svg width="1920" height="1080" viewBox="0 0 1920 1080" fill="none" xmlns="http://www.w3.org/2000/svg"><g clip-path="url(#clip0_16_8024)"><path d="M605.1 273.1V299" stroke="#003B2F" stroke-width="3" stroke-linecap="round" stroke-linejoin="round"/><path d="M605.1 317.9V343.8" stroke="#003B2F" stroke-width="3" stroke-linecap="round" stroke-linejoin="round"/><path d="M569.8 308.4H595.7" stroke="#003B2F" stroke-width="3" stroke-linecap="round" stroke-linejoin="round"/><path d="M614.6 308.4H640.5" stroke="#003B2F" stroke-width="3" stroke-linecap="round" stroke-linejoin="round"/><path d="M860.799 349.7H993.199C1007.8 349.7 1019.6 361.5 1019.6 376.1C1019.6 390.7 1007.8 402.5 993.199 402.5H860.799C846.199 402.5 834.399 390.7 834.399 376.1C834.399 361.5 846.199 349.7 860.799 349.7Z" fill="#03FC9D"/><path d="M944.099 397.4H1030.1C1039.6 397.4 1047.3 405.1 1047.3 414.6C1047.3 424.1 1039.6 431.8 1030.1 431.8H944.099C934.599 431.8 926.899 424.1 926.899 414.6C926.899 405.1 934.599 397.4 944.099 397.4Z" fill="#03FC9D"/><path d="M1442.98 756.403L1422.19 735.614L1401.4 756.403L1422.19 777.192L1442.98 756.403Z" stroke="#003B2F" stroke-width="3" stroke-linecap="round" stroke-linejoin="round"/><path d="M1865.8 176.8H1819.2C1834 176.8 1845.9 165.9 1845.9 152.5C1845.9 139.1 1833.9 128.2 1819.2 128.2H1685.3C1670.5 128.2 1658.6 139.1 1658.6 152.5H1617.5C1602.7 152.5 1590.8 163.4 1590.8 176.8C1590.8 190.2 1602.8 201.1 1617.5 201.1H1705.2C1705.2 214.5 1717.2 225.4 1731.9 225.4H1865.8C1880.6 225.4 1892.5 214.5 1892.5 201.1C1892.5 187.7 1880.5 176.8 1865.8 176.8Z" fill="#E6E8EA"/><path d="M1736.2 70.5996H1978.1" stroke="#03FC9D" stroke-width="3" stroke-linecap="round" stroke-linejoin="round"/><path d="M1861 159.3H1996.3" stroke="#003B2F" stroke-width="3" stroke-linecap="round" stroke-linejoin="round"/><path d="M295.6 640.9L311.6 656.9" stroke="#003B2F" stroke-width="3" stroke-linecap="round" stroke-linejoin="round"/><path d="M323.3 668.6L339.3 684.5" stroke="#003B2F" stroke-width="3" stroke-linecap="round" stroke-linejoin="round"/><path d="M295.6 684.5L311.6 668.6" stroke="#003B2F" stroke-width="3" stroke-linecap="round" stroke-linejoin="round"/><path d="M323.3 656.9L339.3 640.9" stroke="#003B2F" stroke-width="3" stroke-linecap="round" stroke-linejoin="round"/><path d="M125.6 672H102.2" stroke="#03FC9D" stroke-width="3" stroke-linecap="round" stroke-linejoin="round"/><path d="M223.4 729.6H54.2002" stroke="#003B2F" stroke-width="3" stroke-linecap="round" stroke-linejoin="round"/><path d="M71.9994 672.1H-22.6006" stroke="#03FC9D" stroke-width="3" stroke-linecap="round" stroke-linejoin="round"/><path d="M179.2 761.6L-91.7002 917.9L179.2 1074.2L450.1 917.9L179.2 761.6Z" fill="white"/><path d="M179.2 1074.1V1386.6L450.1 1230.3V917.8L179.2 1074.1Z" fill="white"/><path d="M179.2 1074.1V1386.6L-91.7002 1230.3V917.8L179.2 1074.1Z" fill="white"/><path d="M179.199 837.3L-26.1006 955.7L179.199 1074.1L384.499 955.7L179.199 837.3Z" fill="#03FC9D"/><path d="M179.2 1074.1V1310.9L384.5 1192.5V955.7L179.2 1074.1Z" fill="#03FC9D"/><path d="M179.199 1074.1V1310.9L-26.1006 1192.5V955.7L179.199 1074.1Z" fill="#03FC9D"/><path d="M422.3 933.9L179.2 793.6L-63.9004 933.9V1132.2" stroke="#003B2F" stroke-width="3" stroke-linecap="round" stroke-linejoin="round"/><path d="M422.3 1214.4L179.2 1354.7L-63.9004 1214.4V1016.1" stroke="#003B2F" stroke-width="3" stroke-linecap="round" stroke-linejoin="round"/><path d="M354.1 1253.8L179.2 1354.7V1074.2" stroke="#003B2F" stroke-width="3" stroke-linecap="round" stroke-linejoin="round"/><path d="M179.2 1074.1L422.3 933.9V1132.2" stroke="#003B2F" stroke-width="3" stroke-linecap="round" stroke-linejoin="round"/><path d="M179.2 1074.1L-63.9004 933.9" stroke="#003B2F" stroke-width="3" stroke-linecap="round" stroke-linejoin="round"/><path d="M203 0L-67.9004 156.3L203 312.6L473.9 156.3L203 0Z" fill="white"/><path d="M203 312.6V625.1L473.9 468.8V156.3L203 312.6Z" fill="white"/><path d="M203 312.6V625.1L-67.9004 468.8V156.3L203 312.6Z" fill="white"/><path d="M203 75.7998L-2.2002 194.2L203.1 312.6L408.4 194.2L203 75.7998Z" fill="#E6E8EA"/><path d="M203 312.6V549.4L408.3 431V194.2L203 312.6Z" fill="#E6E8EA"/><path d="M203 312.6V549.4L-2.2002 431V194.2L203.1 312.6H203Z" fill="#E6E8EA"/><path d="M446.099 172.3L202.999 32.1001L-40.1006 172.3V370.6" stroke="#003B2F" stroke-width="3" stroke-linecap="round" stroke-linejoin="round"/><path d="M446.099 452.8L202.999 593.1L-40.1006 452.8V254.5" stroke="#003B2F" stroke-width="3" stroke-linecap="round" stroke-linejoin="round"/><path d="M377.9 492.2L203 593.1V312.6" stroke="#003B2F" stroke-width="3" stroke-linecap="round" stroke-linejoin="round"/><path d="M203 312.6L446.1 172.4V370.7" stroke="#003B2F" stroke-width="3" stroke-linecap="round" stroke-linejoin="round"/><path d="M202.999 312.6L-40.1006 172.3" stroke="#003B2F" stroke-width="3" stroke-linecap="round" stroke-linejoin="round"/><path d="M726.7 409.2L455.8 565.5L726.7 721.8L997.6 565.5L726.7 409.2Z" fill="white"/><path d="M726.7 721.7V1034.2L997.6 877.9V565.4L726.7 721.7Z" fill="white"/><path d="M726.7 721.7V1034.2L455.8 877.9V565.4L726.7 721.7Z" fill="white"/><path d="M726.699 484.9L521.399 603.3L726.699 721.7L931.999 603.3L726.699 484.9Z" fill="#03FC9D"/><path d="M726.7 721.7V958.5L932 840.1V603.3L726.7 721.7Z" fill="#03FC9D"/><path d="M726.699 721.7V958.5L521.399 840.1V603.3L726.699 721.7Z" fill="#03FC9D"/><path d="M969.8 581.5L726.7 441.2L483.6 581.5V779.8" stroke="#003B2F" stroke-width="3" stroke-linecap="round" stroke-linejoin="round"/><path d="M969.8 862L726.7 1002.3L483.6 862V663.7" stroke="#003B2F" stroke-width="3" stroke-linecap="round" stroke-linejoin="round"/><path d="M901.6 901.3L726.7 1002.2V721.7" stroke="#003B2F" stroke-width="3" stroke-linecap="round" stroke-linejoin="round"/><path d="M726.7 721.7L969.8 581.5V779.8" stroke="#003B2F" stroke-width="3" stroke-linecap="round" stroke-linejoin="round"/><path d="M726.7 721.7L483.6 581.5" stroke="#003B2F" stroke-width="3" stroke-linecap="round" stroke-linejoin="round"/><path d="M1300.6 819.6L1029.7 975.9L1300.6 1132.2L1571.5 975.9L1300.6 819.6Z" fill="white"/><path d="M1300.6 1132.2V1444.7L1571.5 1288.4V975.9L1300.6 1132.2Z" fill="white"/><path d="M1300.6 1132.2V1444.7L1029.7 1288.4V975.9L1300.6 1132.2Z" fill="white"/><path d="M1300.6 895.4L1095.3 1013.8L1300.6 1132.2L1505.9 1013.8L1300.6 895.4Z" fill="#03FC9D"/><path d="M1300.6 1132.2V1369L1505.9 1250.6V1013.8L1300.6 1132.2Z" fill="#03FC9D"/><path d="M1300.6 1132.2V1369L1095.3 1250.6V1013.8L1300.6 1132.2Z" fill="#03FC9D"/><path d="M1543.7 991.9L1300.6 851.6L1057.5 991.9V1190.2" stroke="#003B2F" stroke-width="3" stroke-linecap="round" stroke-linejoin="round"/><path d="M1543.7 1272.4L1300.6 1412.7L1057.5 1272.4V1074.1" stroke="#003B2F" stroke-width="3" stroke-linecap="round" stroke-linejoin="round"/><path d="M1300.6 1132.2L1543.7 992V1190.3" stroke="#003B2F" stroke-width="3" stroke-linecap="round" stroke-linejoin="round"/><path d="M1300.6 1132.2L1057.5 992" stroke="#003B2F" stroke-width="3" stroke-linecap="round" stroke-linejoin="round"/><path d="M1274.2 72.2998L1003.3 228.6L1274.2 384.9L1545.1 228.6L1274.2 72.2998Z" fill="white"/><path d="M1274.2 384.8V697.3L1545.1 541V228.5L1274.2 384.8Z" fill="white"/><path d="M1274.2 384.8V697.3L1003.3 541V228.5L1274.2 384.8Z" fill="white"/><path d="M1274.2 148L1068.9 266.4L1274.2 384.8L1479.5 266.4L1274.2 148Z" fill="#03FC9D"/><path d="M1274.2 384.8V621.6L1479.5 503.2V266.4L1274.2 384.8Z" fill="#03FC9D"/><path d="M1274.2 384.8V621.6L1068.9 503.2V266.4L1274.2 384.8Z" fill="#03FC9D"/><path d="M1517.3 244.6L1274.2 104.3L1031.1 244.6V442.9" stroke="#003B2F" stroke-width="3" stroke-linecap="round" stroke-linejoin="round"/><path d="M1517.3 525.1L1274.2 665.4L1031.1 525.1V326.8" stroke="#003B2F" stroke-width="3" stroke-linecap="round" stroke-linejoin="round"/><path d="M1449 564.4L1274.1 665.3V384.8" stroke="#003B2F" stroke-width="3" stroke-linecap="round" stroke-linejoin="round"/><path d="M1274.2 384.8L1517.3 244.6V442.9" stroke="#003B2F" stroke-width="3" stroke-linecap="round" stroke-linejoin="round"/><path d="M1274.2 384.8L1031.1 244.6" stroke="#003B2F" stroke-width="3" stroke-linecap="round" stroke-linejoin="round"/><path d="M1859.8 420.3L1588.9 576.6L1859.8 732.9L2130.7 576.6L1859.8 420.3Z" fill="white"/><path d="M1859.8 732.8V1045.3L2130.7 889V576.5L1859.8 732.8Z" fill="white"/><path d="M1859.8 732.8V1045.3L1588.9 889V576.5L1859.8 732.8Z" fill="white"/><path d="M1859.8 496L1654.5 614.4L1859.8 732.8L2065.1 614.4L1859.8 496Z" fill="#E6E8EA"/><path d="M1859.8 732.8V969.6L2065.1 851.2V614.4L1859.8 732.8Z" fill="#E6E8EA"/><path d="M1859.8 732.8V969.6L1654.5 851.2V614.4L1859.8 732.8Z" fill="#E6E8EA"/><path d="M2102.9 592.6L1859.8 452.3L1616.7 592.6V790.9" stroke="#003B2F" stroke-width="3" stroke-linecap="round" stroke-linejoin="round"/><path d="M2102.9 873.1L1859.8 1013.4L1616.7 873.1V674.8" stroke="#003B2F" stroke-width="3" stroke-linecap="round" stroke-linejoin="round"/><path d="M2034.7 912.5L1859.8 1013.4V732.9" stroke="#003B2F" stroke-width="3" stroke-linecap="round" stroke-linejoin="round"/><path d="M1859.8 732.8L2102.9 592.6V790.9" stroke="#003B2F" stroke-width="3" stroke-linecap="round" stroke-linejoin="round"/><path d="M1859.8 732.8L1616.7 592.6" stroke="#003B2F" stroke-width="3" stroke-linecap="round" stroke-linejoin="round"/><path d="M756.601 -25.7V286.8L1027.5 130.5V-182L756.601 -25.7Z" fill="white"/><path d="M756.6 -25.7V286.8L485.7 130.5V-182L756.6 -25.7Z" fill="white"/><path d="M756.601 -25.7001V211.1L961.901 92.6999V-144.1L756.601 -25.7001Z" fill="#03FC9D"/><path d="M756.6 -25.7001V211.1L551.3 92.6999V-144.1L756.6 -25.7001Z" fill="#03FC9D"/><path d="M999.7 -165.9L756.6 -306.2L513.5 -165.9V32.3998" stroke="#003B2F" stroke-width="3" stroke-linecap="round" stroke-linejoin="round"/><path d="M999.7 114.6L756.6 254.9L513.5 114.6V-83.7002" stroke="#003B2F" stroke-width="3" stroke-linecap="round" stroke-linejoin="round"/><path d="M931.501 153.9L756.601 254.8V-25.7002" stroke="#003B2F" stroke-width="3" stroke-linecap="round" stroke-linejoin="round"/><path d="M756.601 -25.7004L999.701 -165.9V32.3996" stroke="#003B2F" stroke-width="3" stroke-linecap="round" stroke-linejoin="round"/><path fill-rule="evenodd" clip-rule="evenodd" d="M1207.4 207.8V325H1316V311.9H1220.4V220.9H1316V207.8H1207.4Z" fill="#003B2F"/><path fill-rule="evenodd" clip-rule="evenodd" d="M1326.7 252.8C1326.7 250 1325.6 247.6 1323.5 245.5C1321.3 243.4 1318.3 242.4 1314.5 242.4C1311.2 242.4 1308.6 243.1 1306.7 244.5C1305.8 245.1 1305.1 245.9 1304.6 246.9C1304.1 247.9 1303.8 248.9 1303.9 250C1303.9 251.2 1304.1 252.3 1304.6 253.3C1305.1 254.3 1305.9 255.1 1307 255.9C1308.1 256.7 1309.6 257.4 1311.6 258C1313.9 258.7 1316.3 259.3 1318.7 259.7C1325.9 261 1331.5 263.3 1335.3 266.4C1339.1 269.5 1341.1 274.2 1341.1 280.3V281.5C1341.1 284.5 1340.5 287.5 1339.4 290.3C1338.3 292.9 1336.6 295.1 1334.4 297C1332.2 298.9 1329.6 300.3 1326.5 301.3C1323.1 302.3 1319.6 302.8 1316 302.8C1311.5 302.8 1307.5 302.1 1304 300.9C1300.8 299.8 1297.8 297.9 1295.4 295.5C1293.1 293.2 1291.3 290.5 1290.2 287.4C1289 284.2 1288.4 280.7 1288.4 277.3V276.7H1301.4C1301.4 280.9 1302.6 284.2 1305 286.8C1307.4 289.3 1311.1 290.6 1316.2 290.6C1320.2 290.6 1323.1 289.8 1325 288C1326.9 286.2 1327.9 284.2 1327.9 281.8C1327.9 280.7 1327.7 279.6 1327.3 278.5C1326.8 277.4 1326.1 276.5 1325.2 275.7C1324.2 274.9 1322.9 274.1 1321.1 273.5C1319 272.7 1316.8 272.2 1314.6 271.8C1311.4 271.2 1308.1 270.5 1305 269.4C1302.3 268.5 1299.8 267.2 1297.5 265.6C1295.4 264 1293.7 262 1292.5 259.6C1291.3 257.2 1290.7 254.3 1290.7 250.8V250.2C1290.7 247.4 1291.3 244.7 1292.4 242.3C1293.5 239.9 1295.2 237.8 1297.3 235.9C1299.5 234 1302 232.6 1304.8 231.7C1308 230.7 1311.3 230.2 1314.6 230.2C1318.7 230.2 1322.3 230.8 1325.4 232C1328.6 233.1 1331.2 234.7 1333.4 236.7C1335.5 238.7 1337 241.1 1338.3 243.6C1339.9 246.7 1339.9 253 1339.9 253H1327L1326.7 252.8Z" fill="#003B2F"/><path fill-rule="evenodd" clip-rule="evenodd" d="M659.899 544.7V661.9H768.499V648.8H672.899V557.8H768.499V544.7H659.899Z" fill="#003B2F"/><path fill-rule="evenodd" clip-rule="evenodd" d="M779.299 589.7C779.299 586.9 778.199 584.5 776.099 582.4C773.899 580.3 770.899 579.3 767.099 579.3C763.799 579.3 761.199 580 759.299 581.4C758.399 582 757.699 582.8 757.199 583.8C756.699 584.8 756.399 585.8 756.499 586.9C756.499 588.1 756.699 589.2 757.199 590.2C757.699 591.2 758.499 592 759.599 592.8C760.699 593.6 762.199 594.3 764.199 594.9C766.499 595.6 768.899 596.2 771.299 596.6C778.499 597.9 784.099 600.2 787.899 603.3C791.699 606.4 793.699 611.1 793.699 617.2V618.4C793.699 621.4 793.099 624.4 791.999 627.2C790.899 629.8 789.199 632 786.999 633.9C784.799 635.8 782.199 637.2 779.099 638.2C775.699 639.2 772.199 639.7 768.599 639.7C764.099 639.7 760.099 639 756.599 637.8C753.399 636.7 750.399 634.8 747.999 632.4C745.699 630.1 743.899 627.4 742.799 624.3C741.599 621.1 740.999 617.6 740.999 614.2V613.6H753.999C753.999 617.8 755.199 621.1 757.599 623.7C759.999 626.2 763.699 627.5 768.799 627.5C772.799 627.5 775.699 626.7 777.599 624.9C779.499 623.1 780.499 621.1 780.499 618.7C780.499 617.6 780.299 616.5 779.899 615.4C779.399 614.3 778.699 613.4 777.799 612.6C776.799 611.8 775.499 611 773.699 610.4C771.599 609.6 769.399 609.1 767.199 608.7C763.999 608.1 760.699 607.4 757.599 606.3C754.899 605.4 752.399 604.1 750.099 602.5C747.999 600.9 746.299 598.9 745.099 596.5C743.899 594.1 743.299 591.2 743.299 587.7V587.1C743.299 584.3 743.899 581.6 744.999 579.2C746.099 576.8 747.799 574.7 749.899 572.8C752.099 570.9 754.599 569.5 757.399 568.6C760.599 567.6 763.899 567.1 767.199 567.1C771.299 567.1 774.899 567.7 777.999 568.9C781.199 570 783.799 571.6 785.999 573.6C788.099 575.6 789.599 578 790.899 580.5C792.499 583.6 792.499 589.9 792.499 589.9H779.599L779.299 589.7Z" fill="#003B2F"/><path fill-rule="evenodd" clip-rule="evenodd" d="M119.3 897.1V1014.3H227.9V1001.2H132.3V910.2H227.9V897.1H119.3Z" fill="#003B2F"/><path fill-rule="evenodd" clip-rule="evenodd" d="M238.6 942.2C238.6 939.4 237.5 937 235.4 934.9C233.2 932.8 230.2 931.8 226.4 931.8C223.1 931.8 220.5 932.5 218.6 933.9C217.7 934.5 217 935.3 216.5 936.3C216 937.3 215.7 938.3 215.8 939.4C215.8 940.6 216 941.7 216.5 942.7C217 943.7 217.8 944.5 218.9 945.3C220 946.1 221.5 946.8 223.5 947.4C225.8 948.1 228.2 948.7 230.6 949.1C237.8 950.4 243.4 952.7 247.2 955.8C251 958.9 253 963.6 253 969.7V970.9C253 973.9 252.4 976.9 251.3 979.7C250.2 982.3 248.5 984.5 246.3 986.4C244.1 988.3 241.5 989.7 238.4 990.7C235 991.7 231.5 992.2 227.9 992.2C223.4 992.2 219.4 991.5 215.9 990.3C212.7 989.2 209.7 987.3 207.3 984.9C205 982.6 203.2 979.9 202.1 976.8C200.9 973.6 200.3 970.1 200.3 966.7V966.1H213.3C213.3 970.3 214.5 973.6 216.9 976.2C219.3 978.7 223 980 228.1 980C232.1 980 235 979.2 236.9 977.4C238.8 975.6 239.8 973.6 239.8 971.2C239.8 970.1 239.6 969 239.2 967.9C238.7 966.8 238 965.9 237.1 965.1C236.1 964.3 234.8 963.5 233 962.9C230.9 962.1 228.7 961.6 226.5 961.2C223.3 960.6 220 959.9 216.9 958.8C214.2 957.9 211.7 956.6 209.4 955C207.3 953.4 205.6 951.4 204.4 949C203.2 946.6 202.6 943.7 202.6 940.2V939.6C202.6 936.8 203.2 934.1 204.3 931.7C205.4 929.3 207.1 927.2 209.2 925.3C211.4 923.4 213.9 922 216.7 921.1C219.9 920.1 223.2 919.6 226.5 919.6C230.6 919.6 234.2 920.2 237.3 921.4C240.5 922.5 243.1 924.1 245.3 926.1C247.4 928.1 248.9 930.5 250.2 933C251.8 936.1 251.8 942.4 251.8 942.4H238.9L238.6 942.2Z" fill="#003B2F"/><path fill-rule="evenodd" clip-rule="evenodd" d="M136.3 125.2V242.4H244.9V229.3H149.3V138.3H244.9V125.2H136.3Z" fill="#003B2F"/><path fill-rule="evenodd" clip-rule="evenodd" d="M255.6 170.3C255.6 167.5 254.5 165.1 252.4 163C250.2 160.9 247.2 159.9 243.4 159.9C240.1 159.9 237.5 160.6 235.6 162C234.7 162.6 234 163.4 233.5 164.4C233 165.4 232.7 166.4 232.8 167.5C232.8 168.7 233 169.8 233.5 170.8C234 171.8 234.8 172.6 235.9 173.4C237 174.2 238.5 174.9 240.5 175.5C242.8 176.2 245.2 176.8 247.6 177.2C254.8 178.5 260.4 180.8 264.2 183.9C268 187 270 191.7 270 197.8V199C270 202 269.4 205 268.3 207.8C267.2 210.4 265.5 212.6 263.3 214.5C261.1 216.4 258.5 217.8 255.4 218.8C252 219.8 248.5 220.3 244.9 220.3C240.4 220.3 236.4 219.6 232.9 218.4C229.7 217.3 226.7 215.4 224.3 213C222 210.7 220.2 208 219.1 204.9C217.9 201.7 217.3 198.2 217.3 194.8V194.2H230.3C230.3 198.4 231.5 201.7 233.9 204.3C236.3 206.8 240 208.1 245.1 208.1C249.1 208.1 252 207.3 253.9 205.5C255.8 203.7 256.8 201.7 256.8 199.3C256.8 198.2 256.6 197.1 256.2 196C255.7 194.9 255 194 254.1 193.2C253.1 192.4 251.8 191.6 250 191C247.9 190.2 245.7 189.7 243.5 189.3C240.3 188.7 237 188 233.9 186.9C231.2 186 228.7 184.7 226.4 183.1C224.3 181.5 222.6 179.5 221.4 177.1C220.2 174.7 219.6 171.8 219.6 168.3V167.7C219.6 164.9 220.2 162.2 221.3 159.8C222.4 157.4 224.1 155.3 226.2 153.4C228.4 151.5 230.9 150.1 233.7 149.2C236.9 148.2 240.2 147.7 243.5 147.7C247.6 147.7 251.2 148.3 254.3 149.5C257.5 150.6 260.1 152.2 262.3 154.2C264.4 156.2 265.9 158.6 267.2 161.1C268.8 164.2 268.8 170.5 268.8 170.5H255.9L255.6 170.3Z" fill="#003B2F"/><path fill-rule="evenodd" clip-rule="evenodd" d="M1233.9 955.1V1072.3H1342.5V1059.2H1246.9V968.2H1342.5V955.1H1233.9Z" fill="#003B2F"/><path fill-rule="evenodd" clip-rule="evenodd" d="M1353.2 1000.2C1353.2 997.4 1352.1 995 1350 992.9C1347.8 990.8 1344.8 989.8 1341 989.8C1337.7 989.8 1335.1 990.5 1333.2 991.9C1332.3 992.5 1331.6 993.3 1331.1 994.3C1330.6 995.3 1330.3 996.3 1330.4 997.4C1330.4 998.6 1330.6 999.7 1331.1 1000.7C1331.6 1001.7 1332.4 1002.5 1333.5 1003.3C1334.6 1004.1 1336.1 1004.8 1338.1 1005.4C1340.4 1006.1 1342.8 1006.7 1345.2 1007.1C1352.4 1008.4 1358 1010.7 1361.8 1013.8C1365.6 1016.9 1367.6 1021.6 1367.6 1027.7V1028.9C1367.6 1031.9 1367 1034.9 1365.9 1037.7C1364.8 1040.3 1363.1 1042.5 1360.9 1044.4C1358.7 1046.3 1356.1 1047.7 1353 1048.7C1349.6 1049.7 1346.1 1050.2 1342.5 1050.2C1338 1050.2 1334 1049.5 1330.5 1048.3C1327.3 1047.2 1324.3 1045.3 1321.9 1042.9C1319.6 1040.6 1317.8 1037.9 1316.7 1034.8C1315.5 1031.6 1314.9 1028.1 1314.9 1024.7V1024.1H1327.9C1327.9 1028.3 1329.1 1031.6 1331.5 1034.2C1333.9 1036.7 1337.6 1038 1342.7 1038C1346.7 1038 1349.6 1037.2 1351.5 1035.4C1353.4 1033.6 1354.4 1031.6 1354.4 1029.2C1354.4 1028.1 1354.2 1027 1353.8 1025.9C1353.3 1024.8 1352.6 1023.9 1351.7 1023.1C1350.7 1022.3 1349.4 1021.5 1347.6 1020.9C1345.5 1020.1 1343.3 1019.6 1341.1 1019.2C1337.9 1018.6 1334.6 1017.9 1331.5 1016.8C1328.8 1015.9 1326.3 1014.6 1324 1013C1321.9 1011.4 1320.2 1009.4 1319 1007C1317.8 1004.6 1317.2 1001.7 1317.2 998.2V997.6C1317.2 994.8 1317.8 992.1 1318.9 989.7C1320 987.3 1321.7 985.2 1323.8 983.3C1326 981.4 1328.5 980 1331.3 979.1C1334.5 978.1 1337.8 977.6 1341.1 977.6C1345.2 977.6 1348.8 978.2 1351.9 979.4C1355.1 980.5 1357.7 982.1 1359.9 984.1C1362 986.1 1363.5 988.5 1364.8 991C1366.4 994.1 1366.4 1000.4 1366.4 1000.4H1353.5L1353.2 1000.2Z" fill="#003B2F"/><path fill-rule="evenodd" clip-rule="evenodd" d="M1805 551.9V669.1H1913.6V656H1818V565H1913.6V551.9H1805Z" fill="#003B2F"/><path fill-rule="evenodd" clip-rule="evenodd" d="M1924.3 596.9C1924.3 594.1 1923.2 591.7 1921.1 589.6C1918.9 587.5 1915.9 586.5 1912.1 586.5C1908.8 586.5 1906.2 587.2 1904.3 588.6C1903.4 589.2 1902.7 590 1902.2 591C1901.7 592 1901.4 593 1901.5 594.1C1901.5 595.3 1901.7 596.4 1902.2 597.4C1902.7 598.4 1903.5 599.2 1904.6 600C1905.7 600.8 1907.2 601.5 1909.2 602.1C1911.5 602.8 1913.9 603.4 1916.3 603.8C1923.5 605.1 1929.1 607.4 1932.9 610.5C1936.7 613.6 1938.7 618.3 1938.7 624.4V625.6C1938.7 628.6 1938.1 631.6 1937 634.4C1935.9 637 1934.2 639.2 1932 641.1C1929.8 643 1927.2 644.4 1924.1 645.4C1920.7 646.4 1917.2 646.9 1913.6 646.9C1909.1 646.9 1905.1 646.2 1901.6 645C1898.4 643.9 1895.4 642 1893 639.6C1890.7 637.3 1888.9 634.6 1887.8 631.5C1886.6 628.3 1886 624.8 1886 621.4V620.8H1899C1899 625 1900.2 628.3 1902.6 630.9C1905 633.4 1908.7 634.7 1913.8 634.7C1917.8 634.7 1920.7 633.9 1922.6 632.1C1924.5 630.3 1925.5 628.3 1925.5 625.9C1925.5 624.8 1925.3 623.7 1924.9 622.6C1924.4 621.5 1923.7 620.6 1922.8 619.8C1921.8 619 1920.5 618.2 1918.7 617.6C1916.6 616.8 1914.4 616.3 1912.2 615.9C1909 615.3 1905.7 614.6 1902.6 613.5C1899.9 612.6 1897.4 611.3 1895.1 609.7C1893 608.1 1891.3 606.1 1890.1 603.7C1888.9 601.3 1888.3 598.4 1888.3 594.9V594.3C1888.3 591.5 1888.9 588.8 1890 586.4C1891.1 584 1892.8 581.9 1894.9 580C1897.1 578.1 1899.6 576.7 1902.4 575.8C1905.6 574.8 1908.9 574.3 1912.2 574.3C1916.3 574.3 1919.9 574.9 1923 576.1C1926.2 577.2 1928.8 578.8 1931 580.8C1933.1 582.8 1934.6 585.2 1935.9 587.7C1937.5 590.8 1937.5 597.1 1937.5 597.1H1924.6L1924.3 596.9Z" fill="#003B2F"/></g><defs><clipPath id="clip0_16_8024"><rect width="1920" height="1080" fill="white"/></clipPath></defs></svg>