<svg width="1920" height="1081" viewBox="0 0 1920 1081" fill="none" xmlns="http://www.w3.org/2000/svg"><path d="M359.718 717.126V933.203" stroke="#E6E8EA" stroke-width="14.6216" stroke-linecap="round" stroke-linejoin="round"/><path d="M387.112 736.964H332.321V917.207H387.112V736.964Z" fill="#E6E8EA"/><path d="M1430.5 473.053V689.13" stroke="#E6E8EA" stroke-width="14.6216" stroke-linecap="round" stroke-linejoin="round"/><path d="M1457.89 492.89H1403.1V673.133H1457.89V492.89Z" fill="#E6E8EA"/><path d="M1506.93 432.131V648.208" stroke="#E6E8EA" stroke-width="14.6216" stroke-linecap="round" stroke-linejoin="round"/><path d="M1534.32 451.968H1479.53V632.211H1534.32V451.968Z" fill="#E6E8EA"/><path d="M1201.21 491.098V707.175" stroke="#E6E8EA" stroke-width="14.6216" stroke-linecap="round" stroke-linejoin="round"/><path d="M1228.6 510.936H1173.81V691.178H1228.6V510.936Z" fill="#E6E8EA"/><path d="M666.2 263.694V732.25" stroke="#BFFEE5" stroke-width="14.6216" stroke-linecap="round" stroke-linejoin="round"/><path d="M643.714 692.075V320.368H688.692V692.075H643.714Z" fill="#BFFEE5" stroke="#BFFEE5" stroke-width="9.81314"/><path d="M589.771 338.564V807.12" stroke="#E6E8EA" stroke-width="14.6216" stroke-linecap="round" stroke-linejoin="round"/><path d="M617.169 390.331H562.378V771.852H617.169V390.331Z" fill="#E6E8EA"/><path d="M513.346 509.326V772.196" stroke="#E6E8EA" stroke-width="14.6216" stroke-linecap="round" stroke-linejoin="round"/><path d="M540.74 529.101H485.949V704.432H540.74V529.101Z" fill="#E6E8EA"/><path d="M436.916 584.585V824.279" stroke="#BFFEE5" stroke-width="14.6216" stroke-linecap="round" stroke-linejoin="round"/><path d="M464.311 614.751H409.521V794.365H464.311V614.751Z" fill="#BFFEE5" stroke="#BFFEE5" stroke-width="1.66823" stroke-miterlimit="10"/><path d="M742.63 211.926V680.482" stroke="#E6E8EA" stroke-width="14.6216" stroke-linecap="round" stroke-linejoin="round"/><path d="M770.028 263.694H715.237V645.214H770.028V263.694Z" fill="#E6E8EA"/><path d="M819.062 332.342V548.419" stroke="#E6E8EA" stroke-width="14.6216" stroke-linecap="round" stroke-linejoin="round"/><path d="M846.457 352.179H791.666V532.422H846.457V352.179Z" fill="#E6E8EA"/><path d="M895.491 380.905V643.774" stroke="#E6E8EA" stroke-width="14.6216" stroke-linecap="round" stroke-linejoin="round"/><path d="M1583.35 403.539V666.409" stroke="#E6E8EA" stroke-width="14.6216" stroke-linecap="round" stroke-linejoin="round"/><path d="M922.887 400.68H868.096V576.011H922.887V400.68Z" fill="#E6E8EA"/><path d="M1610.75 451.968H1555.96V598.645H1610.75V451.968Z" fill="#E6E8EA"/><path d="M971.921 488.345V728.039" stroke="#BFFEE5" stroke-width="14.6216" stroke-linecap="round" stroke-linejoin="round"/><path d="M1277.64 379.543V619.237" stroke="#BFFEE5" stroke-width="14.6216" stroke-linecap="round" stroke-linejoin="round"/><path d="M1354.07 459.697V606.957" stroke="#BFFEE5" stroke-width="14.6216" stroke-linecap="round" stroke-linejoin="round"/><path d="M999.315 518.512H944.524V698.125H999.315V518.512Z" fill="#BFFEE5" stroke="#BFFEE5" stroke-width="1.66823" stroke-miterlimit="10"/><path d="M1305.03 409.71H1250.24V589.323H1305.03V409.71Z" fill="#BFFEE5" stroke="#BFFEE5" stroke-width="1.66823" stroke-miterlimit="10"/><path d="M1381.46 478.231H1326.67V588.579H1381.46V478.231Z" fill="#BFFEE5" stroke="#BFFEE5" stroke-width="1.66823" stroke-miterlimit="10"/><path d="M1048.35 575.948V820.303" stroke="#BFFEE5" stroke-width="14.6216" stroke-linecap="round" stroke-linejoin="round"/><path d="M1075.74 619.237H1020.95V768.727H1075.74V619.237Z" fill="#BFFEE5" stroke="#BFFEE5" stroke-width="0.981314" stroke-miterlimit="10"/><path d="M1124.78 548.419V811.289" stroke="#E6E8EA" stroke-width="14.6216" stroke-linecap="round" stroke-linejoin="round"/><path d="M1152.17 568.195H1097.38V743.525H1152.17V568.195Z" fill="#E6E8EA"/><path d="M1126.39 973.541H260.807V107.958H1126.39V973.541ZM263.884 970.464H1123.38V111.035H263.884V970.527V970.464Z" stroke="#03FC9D" stroke-width="3" stroke-linecap="round" stroke-linejoin="round"/><path d="M1659.19 643.774H1123.38V107.958H1659.19V643.774ZM1126.39 640.697H1656.11V111.035H1126.39V640.76V640.697Z" stroke="#03FC9D" stroke-width="3" stroke-linecap="round" stroke-linejoin="round"/><path d="M1253 770.57H1123.31V640.761H1253V770.57ZM1126.39 767.493H1249.98V643.775H1126.39V767.493Z" stroke="#03FC9D" stroke-width="3" stroke-linecap="round" stroke-linejoin="round"/><path d="M1329.43 720.204H1249.98V640.761H1329.43V720.204ZM1253.06 717.127H1326.41V643.775H1253.06V717.127Z" stroke="#03FC9D" stroke-width="3" stroke-linecap="round" stroke-linejoin="round"/><path d="M1278.87 770.569H1249.92V741.618H1278.87V770.569ZM1253 767.492H1275.85V744.632H1253V767.492Z" stroke="#03FC9D" stroke-width="3" stroke-linecap="round" stroke-linejoin="round"/><path d="M1329.42 770.569H1275.85V717.126H1329.42V770.569ZM1278.93 767.492H1326.41V720.14H1278.93V767.492Z" stroke="#03FC9D" stroke-width="3" stroke-linecap="round" stroke-linejoin="round"/><path d="M1329.36 973.541H1123.31V767.492H1329.36V973.541ZM1126.39 970.464H1326.28V770.569H1126.39V970.464Z" stroke="#03FC9D" stroke-width="3" stroke-linecap="round" stroke-linejoin="round"/><path d="M1659.19 973.542H1326.35V640.698H1659.19V973.542ZM1329.42 970.465H1656.11V643.775H1329.42V970.465Z" stroke="#03FC9D" stroke-width="3" stroke-linecap="round" stroke-linejoin="round"/><path d="M1251.49 743.251C1251.49 757.507 1263.11 769.062 1277.37 769.062C1305.25 769.062 1327.86 746.517 1327.86 718.696C1327.86 676.494 1293.63 642.268 1251.43 642.268C1181.66 642.268 1125.01 699.165 1125.01 769.376C1125.01 881.287 1215.76 972.034 1327.67 972.034C1509.79 972.034 1657.44 824.39 1657.44 642.268C1657.56 348.046 1419.04 109.529 1124.82 109.529C648.478 109.529 262.316 495.691 262.316 972.034" stroke="#003B2F" stroke-width="3" stroke-linecap="round" stroke-linejoin="round"/><path d="M1777.6 507.81L1811.52 488.197" stroke="#003B2F" stroke-width="3" stroke-linecap="round" stroke-linejoin="round"/><path d="M1845.28 507.81L1825.35 496.235" stroke="#003B2F" stroke-width="3" stroke-linecap="round" stroke-linejoin="round"/><path d="M1811.52 488.198V448.652" stroke="#003B2F" stroke-width="3" stroke-linecap="round" stroke-linejoin="round"/><path d="M983.998 292.704L1007.98 293.71" stroke="#003B2F" stroke-width="3" stroke-linecap="round" stroke-linejoin="round"/><path d="M1020.95 273.425L1013.35 285.341" stroke="#003B2F" stroke-width="3" stroke-linecap="round" stroke-linejoin="round"/><path d="M1007.98 293.71L1019.23 315.273" stroke="#003B2F" stroke-width="3" stroke-linecap="round" stroke-linejoin="round"/><path d="M158.644 231.378L182.931 255.665" stroke="#003B2F" stroke-width="3" stroke-linecap="round" stroke-linejoin="round"/><path d="M200.539 273.425L224.826 297.712" stroke="#003B2F" stroke-width="3" stroke-linecap="round" stroke-linejoin="round"/><path d="M158.644 297.712L182.931 273.425" stroke="#003B2F" stroke-width="3" stroke-linecap="round" stroke-linejoin="round"/><path d="M200.539 255.665L224.826 231.378" stroke="#003B2F" stroke-width="3" stroke-linecap="round" stroke-linejoin="round"/><path d="M87.3634 536.131H196.002C207.976 536.131 217.683 526.505 217.683 514.631C217.683 502.757 207.976 493.131 196.002 493.131H87.3634C75.3895 493.131 65.6826 502.757 65.6826 514.631C65.6826 526.505 75.3895 536.131 87.3634 536.131Z" fill="#03FC9D"/><path d="M146.232 503.131H324.134C343.767 503.131 359.683 487.237 359.683 467.631C359.683 448.025 343.767 432.131 324.134 432.131H146.232C126.598 432.131 110.683 448.025 110.683 467.631C110.683 487.237 126.598 503.131 146.232 503.131Z" fill="#03FC9D"/><path d="M1824.84 207.184H1789.27C1800.47 207.184 1809.71 198.06 1809.71 186.741C1809.71 175.423 1800.58 166.299 1789.27 166.299H1687.05C1675.85 166.299 1666.61 175.423 1666.61 186.741H1635.2C1623.99 186.741 1614.75 195.865 1614.75 207.184C1614.75 218.502 1623.88 227.626 1635.2 227.626H1702.18C1702.18 238.829 1711.31 248.069 1722.63 248.069H1824.84C1836.04 248.069 1845.28 238.945 1845.28 227.626C1845.28 216.308 1836.16 207.184 1824.84 207.184Z" fill="#03FC9D"/><path d="M1565.28 291.146H1743.03C1762.61 291.146 1778.48 275.271 1778.48 255.689C1778.48 236.107 1762.61 220.232 1743.03 220.232L1565.28 220.232C1545.7 220.232 1529.82 236.107 1529.82 255.689C1529.82 275.271 1545.7 291.146 1565.28 291.146Z" fill="#E6E8EA"/><path d="M748.947 856.931L960 856.931" stroke="#03FC9D" stroke-width="3" stroke-linecap="round" stroke-linejoin="round"/><path d="M805.617 883.988H905.821" stroke="#003B2F" stroke-width="3" stroke-linecap="round" stroke-linejoin="round"/><path d="M658.586 884.103L773.591 884.103" stroke="#003B2F" stroke-width="3" stroke-linecap="round" stroke-linejoin="round"/></svg>