<svg width="1676" height="858" viewBox="0 0 1676 858" fill="none" xmlns="http://www.w3.org/2000/svg"><g clip-path="url(#clip0_692_2)"><path d="M1397.6 415.062H279.189V446.053H1397.6V415.062Z" fill="#E6E8EA"/><path d="M1397.6 708.955H279.189V739.946H1397.6V708.955Z" fill="#E6E8EA"/><path d="M829.303 491.148H789.121V702.862H829.303V491.148Z" fill="#03FC9D"/><path d="M809.211 689.02C801.645 689.02 795.469 682.839 795.469 675.265V518.569C795.469 510.995 801.645 504.815 809.211 504.815C816.778 504.815 822.953 510.995 822.953 518.569V675.265C822.953 682.839 816.778 689.02 809.211 689.02Z" stroke="#003B2F" stroke-width="2.0908" stroke-miterlimit="10"/><path d="M795.469 537.547H822.953" stroke="#003B2F" stroke-width="2.0908" stroke-miterlimit="10"/><path d="M795.469 543.727H822.953" stroke="#003B2F" stroke-width="2.0908" stroke-miterlimit="10"/><path d="M795.469 650.194H822.953" stroke="#003B2F" stroke-width="2.0908" stroke-miterlimit="10"/><path d="M795.469 656.461H822.953" stroke="#003B2F" stroke-width="2.0908" stroke-miterlimit="10"/><path d="M730.586 483.487H696.927V702.862H730.586V483.487Z" fill="#003B2F"/><path d="M730.586 490.886H696.927V494.368H730.586V490.886Z" fill="#E6E8EA"/><path d="M730.586 499.33H696.927V502.812H730.586V499.33Z" fill="#E6E8EA"/><path d="M730.586 683.536H696.927V687.018H730.586V683.536Z" fill="#E6E8EA"/><path d="M730.586 691.98H696.927V695.462H730.586V691.98Z" fill="#E6E8EA"/><path d="M724.41 530.931H702.58V655.417H724.41V530.931Z" fill="#E6E8EA"/><path d="M713.452 572.281L705.276 553.826L713.452 535.458L721.628 553.826L713.452 572.281Z" fill="#03FC9D"/><path d="M713.452 611.542L705.276 593.174L713.452 574.719L721.628 593.174L713.452 611.542Z" fill="#03FC9D"/><path d="M713.452 650.891L705.276 632.522L713.452 614.067L721.628 632.522L713.452 650.891Z" fill="#03FC9D"/><path d="M766.777 541.131L732.464 544.112L746.346 704.211L780.659 701.23L766.777 541.131Z" fill="#E6E8EA"/><path d="M767.805 552.523L733.492 555.504L734.672 569.12L768.985 566.139L767.805 552.523Z" fill="#03FC9D"/><path d="M769.665 574.077L735.352 577.058L735.728 581.394L770.041 578.414L769.665 574.077Z" fill="#03FC9D"/><path d="M690.057 499.33H652.223V702.861H690.057V499.33Z" fill="#03FC9D"/><path d="M671.182 526.404L677.618 534.152H678.662C680.923 534.152 682.663 535.98 682.663 538.156V662.73C682.663 664.993 680.837 666.734 678.662 666.734L671.182 675.701L663.702 666.734C661.441 666.734 659.702 664.906 659.702 662.73V538.156C659.702 535.893 661.528 534.152 663.702 534.152H664.746L671.182 526.404ZM671.182 524.663C670.66 524.663 670.139 524.924 669.878 525.272L663.963 532.324H663.702C660.484 532.324 657.962 534.935 657.962 538.069V662.643C657.962 665.516 660.05 667.953 662.833 668.388L669.791 676.833C669.791 676.833 670.574 677.442 671.095 677.442C671.617 677.442 672.139 677.181 672.4 676.833L679.358 668.388C682.141 667.953 684.229 665.603 684.229 662.643V538.069C684.229 534.848 681.619 532.324 678.488 532.324H678.227L672.313 525.272C672.313 525.272 671.53 524.663 671.008 524.663H671.182Z" fill="#003B2F"/><path d="M1251.57 519.09H1203.47V704.95H1251.57V519.09Z" fill="#E6E8EA"/><path d="M1246.78 529.624H1208.34V531.8H1246.78V529.624Z" fill="#03FC9D"/><path d="M1246.78 536.414H1208.34V538.59H1246.78V536.414Z" fill="#03FC9D"/><path d="M1246.78 686.32H1208.34V688.496H1246.78V686.32Z" fill="#03FC9D"/><path d="M1246.78 693.198H1208.34V695.374H1246.78V693.198Z" fill="#03FC9D"/><path d="M1222.95 673.523C1224.17 673.436 1225.04 673.175 1225.39 672.826C1225.73 672.478 1225.91 671.521 1225.91 669.954V652.369C1225.91 650.889 1225.73 650.018 1225.39 649.583C1225.04 649.148 1224.17 648.887 1222.95 648.8V648.103H1232.08V648.8C1230.87 648.8 1230 649.148 1229.65 649.583C1229.3 650.018 1229.13 650.976 1229.13 652.369V669.954C1229.13 671.521 1229.3 672.391 1229.65 672.826C1230 673.175 1230.87 673.436 1232.08 673.523V674.219H1222.95V673.523Z" fill="#03FC9D"/><path d="M1305.41 519.09H1257.31V704.95H1305.41V519.09Z" fill="#03FC9D"/><path d="M1300.62 529.624H1262.18V531.8H1300.62V529.624Z" fill="#003B2F"/><path d="M1300.62 536.414H1262.18V538.59H1300.62V536.414Z" fill="#003B2F"/><path d="M1300.62 686.32H1262.18V688.496H1300.62V686.32Z" fill="#003B2F"/><path d="M1300.62 693.198H1262.18V695.374H1300.62V693.198Z" fill="#003B2F"/><path d="M1271.14 673.523C1272.36 673.436 1273.14 673.175 1273.49 672.826C1273.83 672.478 1274.01 671.521 1274.01 669.954V652.369C1274.01 650.889 1273.83 650.018 1273.49 649.583C1273.14 649.148 1272.36 648.887 1271.14 648.8V648.103H1280.01V648.8C1278.79 648.8 1278.01 649.148 1277.66 649.583C1277.31 650.018 1277.14 650.976 1277.14 652.369V669.954C1277.14 671.521 1277.31 672.391 1277.66 672.826C1278.01 673.175 1278.79 673.436 1280.01 673.523V674.219H1271.14V673.523Z" fill="#003B2F"/><path d="M1281.14 673.523C1282.36 673.436 1283.14 673.175 1283.49 672.827C1283.84 672.478 1284.01 671.521 1284.01 669.954V652.369C1284.01 650.889 1283.84 650.019 1283.49 649.583C1283.14 649.148 1282.36 648.887 1281.14 648.8V648.103H1290.01V648.8C1288.79 648.8 1288.01 649.148 1287.66 649.583C1287.31 650.019 1287.14 650.976 1287.14 652.369V669.954C1287.14 671.521 1287.31 672.391 1287.66 672.827C1288.01 673.175 1288.79 673.436 1290.01 673.523V674.219H1281.14V673.523Z" fill="#003B2F"/><path d="M1359.33 519.09H1311.23V704.95H1359.33V519.09Z" fill="#003B2F"/><path d="M1354.55 529.624H1316.1V531.8H1354.55V529.624Z" fill="#03FC9D"/><path d="M1354.55 536.414H1316.1V538.59H1354.55V536.414Z" fill="#03FC9D"/><path d="M1354.55 686.32H1316.1V688.496H1354.55V686.32Z" fill="#03FC9D"/><path d="M1354.55 693.198H1316.1V695.374H1354.55V693.198Z" fill="#03FC9D"/><path d="M1323.06 673.523C1324.11 673.436 1324.71 673.175 1325.06 672.826C1325.32 672.478 1325.5 671.521 1325.5 669.954V652.369C1325.5 650.889 1325.32 650.018 1325.06 649.583C1324.8 649.148 1324.11 648.887 1323.06 648.8V648.103H1330.45V648.8C1329.41 648.8 1328.8 649.148 1328.45 649.583C1328.19 650.018 1328.02 650.976 1328.02 652.369V669.954C1328.02 671.521 1328.19 672.391 1328.45 672.826C1328.72 673.175 1329.41 673.436 1330.45 673.523V674.219H1323.06V673.523Z" fill="#03FC9D"/><path d="M1331.41 673.523C1332.45 673.436 1333.06 673.175 1333.41 672.827C1333.67 672.478 1333.85 671.521 1333.85 669.954V652.369C1333.85 650.889 1333.67 650.019 1333.41 649.583C1333.15 649.148 1332.45 648.887 1331.41 648.8V648.103H1338.8V648.8C1337.76 648.8 1337.15 649.148 1336.8 649.583C1336.54 650.019 1336.37 650.976 1336.37 652.369V669.954C1336.37 671.521 1336.54 672.391 1336.8 672.827C1337.06 673.175 1337.76 673.436 1338.8 673.523V674.219H1331.41V673.523Z" fill="#03FC9D"/><path d="M1339.67 673.523C1340.72 673.436 1341.33 673.175 1341.67 672.827C1341.93 672.478 1342.11 671.521 1342.11 669.954V652.369C1342.11 650.889 1341.93 650.019 1341.67 649.583C1341.41 649.148 1340.72 648.887 1339.67 648.8V648.103H1347.07V648.8C1346.02 648.8 1345.41 649.148 1345.07 649.583C1344.8 650.019 1344.63 650.976 1344.63 652.369V669.954C1344.63 671.521 1344.8 672.391 1345.07 672.827C1345.33 673.175 1346.02 673.436 1347.07 673.523V674.219H1339.67V673.523Z" fill="#03FC9D"/><path d="M1193.82 492.278H1145.63V703.47H1193.82V492.278Z" fill="#003B2F"/><path d="M1169.73 520.397L1177.9 528.405H1179.21C1182.08 528.405 1184.34 530.234 1184.34 532.584V661.771C1184.34 664.122 1182.08 665.95 1179.21 665.95L1169.73 675.265L1160.24 665.95C1157.37 665.95 1155.11 664.122 1155.11 661.771V532.584C1155.11 530.321 1157.37 528.405 1160.24 528.405H1161.55L1169.73 520.397ZM1169.73 518.394C1169.2 518.394 1168.68 518.568 1168.33 519.004L1160.77 526.403H1160.24C1156.33 526.403 1153.11 529.189 1153.11 532.584V661.771C1153.11 664.905 1155.9 667.517 1159.38 667.865L1168.33 676.658C1168.33 676.658 1169.2 677.267 1169.73 677.267C1170.25 677.267 1170.77 677.093 1171.12 676.658L1180.08 667.865C1183.64 667.517 1186.34 664.905 1186.34 661.771V532.584C1186.34 529.189 1183.12 526.403 1179.21 526.403H1178.68L1171.12 519.004C1171.12 519.004 1170.25 518.394 1169.73 518.394Z" fill="#03FC9D"/><path d="M898.537 559.572C883.925 559.572 872.096 572.194 873.575 587.168C874.793 600.226 886.273 609.889 899.32 609.889H1056.4C1058.05 609.889 1059.35 608.583 1059.35 606.929C1059.35 605.275 1058.05 603.969 1056.4 603.969V565.491C1058.05 565.491 1059.35 564.185 1059.35 562.531C1059.35 560.877 1058.05 559.572 1056.4 559.572H898.624H898.537Z" fill="#03FC9D"/><path d="M1095.01 597.178C1095.97 600.225 1097.19 602.488 1097.97 603.968H950.114C944.2 603.968 938.981 601.357 935.415 597.178C935.241 596.917 934.98 596.656 934.806 596.395C934.459 595.872 934.111 595.35 933.763 594.828C933.589 594.567 933.415 594.305 933.241 594.044C931.675 591.259 930.893 588.125 930.893 584.73C930.893 583.511 930.98 582.292 931.24 581.073C931.24 580.812 931.327 580.551 931.414 580.29C931.501 579.767 931.675 579.245 931.849 578.723C931.849 578.462 932.023 578.201 932.11 577.939C932.284 577.417 932.545 576.895 932.806 576.459C932.893 576.198 933.067 575.937 933.154 575.676C933.415 575.154 933.676 574.631 934.024 574.109C934.198 573.848 934.372 573.587 934.545 573.326C934.893 572.803 935.328 572.281 935.85 571.846C936.111 571.584 936.372 571.323 936.546 571.062C937.068 570.54 937.764 570.017 938.372 569.495C938.72 569.234 939.155 568.973 939.503 568.712C942.547 566.709 946.113 565.578 950.027 565.578H1097.88C1097.45 566.448 1096.84 567.493 1096.32 568.712C1096.23 568.973 1096.06 569.234 1095.97 569.495C1095.8 570.017 1095.54 570.54 1095.36 571.062C1095.27 571.323 1095.19 571.584 1095.1 571.846C1094.93 572.281 1094.75 572.803 1094.67 573.326C1094.67 573.587 1094.49 573.848 1094.49 574.109C1094.32 574.631 1094.23 575.154 1094.06 575.676C1094.06 575.937 1093.97 576.198 1093.88 576.459C1093.8 576.982 1093.71 577.504 1093.62 577.939C1093.62 578.201 1093.54 578.462 1093.54 578.723C1093.45 579.245 1093.36 579.767 1093.27 580.29C1093.27 580.551 1093.27 580.812 1093.27 581.073C1093.19 582.031 1093.1 583.076 1093.1 584.033C1093.1 587.776 1093.54 591.084 1094.23 593.957C1094.23 594.218 1094.32 594.48 1094.4 594.741C1094.58 595.263 1094.67 595.785 1094.84 596.308C1094.84 596.569 1095.01 596.83 1095.1 597.091L1095.01 597.178Z" fill="#E6E8EA"/><path d="M1096.4 568.538C1096.4 568.538 1096.14 569.061 1096.06 569.322C1095.88 569.844 1095.62 570.367 1095.45 570.889H932.893C933.675 570.018 934.545 569.235 935.502 568.538H1096.4Z" fill="white"/><path d="M1094.75 596.308H932.371C931.762 595.611 931.153 594.741 930.631 593.957H1094.14C1094.14 593.957 1094.23 594.48 1094.32 594.741C1094.49 595.263 1094.58 595.785 1094.75 596.308Z" fill="white"/><path d="M1094.66 573.239C1094.66 573.239 1094.49 573.761 1094.49 574.022C1094.32 574.544 1094.23 575.067 1094.06 575.589H929.674C930.021 574.718 930.456 574.022 930.978 573.239H1094.66Z" fill="white"/><path d="M1093.53 577.94C1093.53 577.94 1093.45 578.462 1093.45 578.723C1093.36 579.246 1093.27 579.768 1093.19 580.29H928.021C928.108 579.507 928.369 578.723 928.63 577.94H1093.53Z" fill="white"/><path d="M950.112 559.572C935.5 559.572 923.672 572.194 925.15 587.168C926.368 600.226 937.849 609.888 950.895 609.888H1098.23C1099.88 609.888 1101.19 608.583 1101.19 606.929C1101.19 605.275 1099.88 603.969 1098.23 603.969H950.808C940.545 603.969 931.587 596.221 930.978 585.949C930.282 574.719 939.153 565.404 950.199 565.404H1098.32C1099.97 565.404 1101.27 564.098 1101.27 562.444C1101.27 560.79 1099.97 559.484 1098.32 559.484H950.199L950.112 559.572Z" fill="#03FC9D"/><path d="M1109.71 613.11C1111.45 617.898 1113.28 624.949 1113.54 633.567C1113.8 644.101 1111.54 652.458 1109.71 657.681H881.663C880.01 652.632 878.271 645.145 878.184 636.092C878.097 626.255 880.01 618.246 881.663 613.023H1109.71V613.11Z" fill="#003B2F"/><path d="M906.798 617.55L915.669 635.396L906.798 653.242L897.927 635.396L906.798 617.55Z" fill="#03FC9D"/><path d="M926.106 617.55H923.845V653.242H926.106V617.55Z" fill="#03FC9D"/><path d="M935.065 617.55H932.803V653.242H935.065V617.55Z" fill="#03FC9D"/><path d="M943.936 617.55H941.675V653.242H943.936V617.55Z" fill="#03FC9D"/><path d="M856.963 662.73C855.484 667.692 853.919 674.917 853.919 683.71C853.919 692.154 855.484 699.205 856.963 704.08H1109.62C1111.45 699.815 1113.89 692.241 1113.8 682.491C1113.63 673.698 1111.36 666.821 1109.62 662.643H856.963V662.73Z" fill="#003B2F"/><path d="M865.574 662.73V704.08H869.575V662.73H865.574Z" fill="#03FC9D"/><path d="M875.229 662.73V704.08H879.23V662.73H875.229Z" fill="#03FC9D"/><path d="M1087.53 662.73V704.08H1091.53V662.73H1087.53Z" fill="#03FC9D"/><path d="M1097.27 662.73V704.08H1101.27V662.73H1097.27Z" fill="#03FC9D"/><path d="M965.943 668.736L954.81 698.073H959.855L971.075 668.736H965.943Z" fill="#03FC9D"/><path d="M979.598 668.736L968.379 698.073H973.51L984.643 668.736H979.598Z" fill="#03FC9D"/><path d="M993.165 668.736L982.032 698.073H987.164L998.297 668.736H993.165Z" fill="#03FC9D"/><path d="M1006.82 668.736L995.688 698.073H1000.73L1011.95 668.736H1006.82Z" fill="#03FC9D"/><path d="M901.493 506.991C899.754 503.422 896.536 495.674 897.231 485.663C897.753 478.699 899.841 473.388 901.493 470.08H1091.27C1092.4 474.52 1093.36 480.179 1093.45 486.795C1093.62 494.978 1092.49 501.855 1091.27 506.991H901.493Z" fill="#003B2F"/><path d="M1076.23 503.422V473.65H1071.97V503.422H1076.23Z" fill="#03FC9D"/><path d="M1068.66 503.422V473.65H1064.4V503.422H1068.66Z" fill="#03FC9D"/><path d="M922.456 503.422V473.65H918.195V503.422H922.456Z" fill="#03FC9D"/><path d="M914.888 503.422V473.65H910.627V503.422H914.888Z" fill="#03FC9D"/><path d="M1048.74 483.487H937.674C934.792 483.487 932.455 485.806 932.455 488.667C932.455 491.527 934.792 493.846 937.674 493.846H1048.74C1051.62 493.846 1053.96 491.527 1053.96 488.667C1053.96 485.806 1051.62 483.487 1048.74 483.487Z" fill="#03FC9D"/><path d="M1017.78 545.121C1019.35 542.335 1020.74 538.94 1020.91 534.935C1021.17 529.886 1019.61 525.534 1017.87 522.139C1015.87 518.308 1011.95 515.871 1007.52 515.871H921.76C920.629 515.871 919.672 514.913 919.672 513.781C919.672 512.65 920.629 511.692 921.76 511.692C941.59 511.692 1105.02 511.692 1105.02 511.692C1116.93 512.04 1121.11 524.054 1121.11 535.197C1120.32 544.947 1115.63 554.958 1105.19 555.045H921.76C920.629 555.045 919.672 554.087 919.672 552.956C919.672 551.824 920.629 550.866 921.76 550.866H1007.69C1011.87 550.866 1015.78 548.69 1017.78 545.121Z" fill="#003B2F"/><path d="M1020.91 534.935C1020.74 538.94 1019.35 542.335 1017.78 545.121C1015.78 548.69 1011.87 550.866 1007.69 550.866H921.673C923.238 548.08 926.369 541.551 926.195 532.846C926.195 530.931 926.021 529.016 925.674 527.362C925.5 526.578 925.413 525.795 925.152 525.098C924.978 524.315 924.804 523.618 924.543 522.835C924.369 521.964 924.021 521.268 923.76 520.571C923.064 518.656 922.281 517.089 921.586 515.958H1007.52C1011.26 515.958 1014.65 517.699 1016.82 520.571C1017.26 521.094 1017.61 521.616 1017.87 522.225C1017.95 522.4 1018.04 522.661 1018.21 522.835C1018.56 523.531 1018.91 524.315 1019.17 525.098C1019.43 525.795 1019.78 526.578 1019.95 527.362C1020.65 529.625 1021 532.15 1020.91 534.935Z" fill="#E6E8EA"/><path d="M1110.23 535.284C1110.23 524.141 1106.06 512.127 1094.14 511.779C1096.49 511.779 1097.88 511.779 1097.88 511.779C1109.8 512.127 1113.97 524.141 1113.97 535.284C1113.19 545.034 1108.5 555.045 1098.06 555.132H1094.32C1104.76 555.132 1109.45 545.034 1110.23 535.284Z" fill="#03FC9D"/><path d="M1102.06 535.284C1102.06 524.141 1097.88 512.127 1085.97 511.779C1088.32 511.779 1089.71 511.779 1089.71 511.779C1101.62 512.127 1105.8 524.141 1105.8 535.284C1105.02 545.034 1100.32 555.045 1089.88 555.132H1086.14C1096.58 555.132 1101.28 545.034 1102.06 535.284Z" fill="#03FC9D"/><path d="M1018.3 522.835H924.63C924.456 521.965 924.108 521.268 923.847 520.572H1016.91C1017.34 521.094 1017.69 521.616 1017.95 522.226C1018.04 522.4 1018.13 522.661 1018.3 522.835Z" fill="white"/><path d="M1020.04 527.362H925.76C925.586 526.579 925.499 525.795 925.238 525.099H1019.26C1019.52 525.795 1019.87 526.579 1020.04 527.362Z" fill="white"/><path d="M996.211 567.058L988.557 560.79L980.99 567.058V543.118H996.211V567.058Z" fill="#E6E8EA"/><path d="M480.971 233.121H470.534V410.797H480.971V233.121Z" fill="#03FC9D"/><path d="M591.08 233.121H480.883V410.797H591.08C596.995 410.797 601.778 406.009 601.778 400.089V243.828C601.778 237.909 596.995 233.121 591.08 233.121Z" fill="#003B2F"/><path d="M538.2 357.694C554.099 357.694 566.988 338.285 566.988 314.342C566.988 290.399 554.099 270.989 538.2 270.989C522.3 270.989 509.411 290.399 509.411 314.342C509.411 338.285 522.3 357.694 538.2 357.694Z" fill="#03FC9D"/><path d="M574.555 373.713H503.149V376.411H574.555V373.713Z" fill="#03FC9D"/><path d="M574.555 380.676H503.149V383.375H574.555V380.676Z" fill="#03FC9D"/><path d="M686.467 242.254L657.973 243.649L666.186 411.722L694.679 410.327L686.467 242.254Z" fill="#03FC9D"/><path d="M686.97 254.148L658.476 255.543L659.173 269.803L687.667 268.408L686.97 254.148Z" fill="#003B2F"/><path d="M688.078 276.887L659.585 278.282L659.806 282.803L688.299 281.409L688.078 276.887Z" fill="#003B2F"/><path d="M653.79 196.123H612.042V410.884H653.79V196.123Z" fill="#E6E8EA"/><path d="M632.915 224.677L639.96 232.773H641.091C643.526 232.773 645.527 234.688 645.527 237.039V368.49C645.527 370.84 643.526 372.755 641.091 372.755L632.828 382.244L624.566 372.755C622.13 372.755 620.13 370.84 620.13 368.49V237.039C620.13 234.688 622.13 232.773 624.566 232.773H625.696L632.741 224.677M632.741 222.762C632.219 222.762 631.698 223.023 631.35 223.371L624.827 230.858H624.566C621.087 230.858 618.217 233.644 618.217 236.952V368.402C618.217 371.449 620.565 374.061 623.609 374.496L631.35 383.376C631.35 383.376 632.219 383.985 632.741 383.985C633.263 383.985 633.785 383.724 634.133 383.376L641.874 374.496C644.918 374.061 647.266 371.536 647.266 368.402V236.952C647.266 233.557 644.396 230.858 640.917 230.858H640.656L634.133 223.371C634.133 223.371 633.263 222.762 632.741 222.762Z" fill="#003B2F"/><path d="M1082.83 411.754H1117.54V230.508H1082.83V411.754Z" fill="#003B2F"/><path d="M1082.83 252.794H1117.54V244.611H1082.83V252.794Z" fill="#03FC9D"/><path d="M1082.83 267.332H1117.54V259.149H1082.83V267.332Z" fill="#03FC9D"/><path d="M1082.83 385.464H1117.54V377.28H1082.83V385.464Z" fill="#03FC9D"/><path d="M1082.83 400.002H1117.54V391.819H1082.83V400.002Z" fill="#03FC9D"/><path d="M992.866 401.532L1040.76 411.747L1090.61 177.608L1042.72 167.393L992.866 401.532Z" fill="#03FC9D"/><path d="M1003.23 390.036L1035.98 397.021L1080.28 188.935L1047.53 181.949L1003.23 390.036Z" stroke="white" stroke-width="2.71804" stroke-miterlimit="10"/><path d="M1076.14 208.484L1043.35 201.519" stroke="white" stroke-width="2.71804" stroke-miterlimit="10"/><path d="M1074.22 217.363L1041.52 210.399" stroke="white" stroke-width="2.71804" stroke-miterlimit="10"/><path d="M1041.96 368.75L1009.25 361.785" stroke="white" stroke-width="2.71804" stroke-miterlimit="10"/><path d="M1040.13 377.629L1007.34 370.665" stroke="white" stroke-width="2.71804" stroke-miterlimit="10"/><path d="M1120.32 411.754H1164.16V198.821H1120.32V411.754Z" fill="#E6E8EA"/><path d="M1124.76 222.239L1142.24 230.509L1159.72 222.239L1142.24 213.969L1124.76 222.239Z" fill="#003B2F"/><path d="M1159.72 238.17H1124.76V240.346H1159.72V238.17Z" fill="#003B2F"/><path d="M904.623 411.754H940.804V219.54H904.623V411.754Z" fill="#E6E8EA"/><path d="M904.623 229.116H940.804V226.069H904.623V229.116Z" fill="#003B2F"/><path d="M904.623 236.428H940.804V233.381H904.623V236.428Z" fill="#003B2F"/><path d="M904.623 397.913H940.804V394.866H904.623V397.913Z" fill="#003B2F"/><path d="M904.623 405.312H940.804V402.265H904.623V405.312Z" fill="#003B2F"/><path d="M909.843 302.416L935.5 293.971V297.802L909.843 306.333V302.416Z" fill="#003B2F"/><path d="M909.842 312.774L935.5 304.33V308.16L909.842 316.692V312.774Z" fill="#003B2F"/><path d="M909.842 323.134L935.5 314.69V318.52L909.842 327.052V323.134Z" fill="#003B2F"/><path d="M909.842 333.493L935.5 325.049V328.879L909.842 337.41V333.493Z" fill="#003B2F"/><path d="M943.588 402.644L985.95 411.679L1031.56 197.463L989.197 188.427L943.588 402.644Z" fill="#03FC9D"/><path d="M1004.3 221.628L1009.78 231.291L1010.91 231.552C1013.43 232.075 1014.99 234.425 1014.47 236.776L986.554 367.878C986.119 369.88 984.293 371.273 982.205 371.273C981.857 371.273 981.509 371.273 981.161 371.186L970.811 378.847L964.462 367.617C961.94 367.095 960.374 364.744 960.896 362.394L988.815 231.291C989.25 229.289 991.077 227.896 993.164 227.896C993.512 227.896 993.86 227.896 994.208 227.983L995.338 228.244L1004.3 221.628ZM1004.3 219.713C1004.3 219.713 1003.51 219.887 1003.17 220.061L994.99 226.155H994.643C994.208 225.981 993.686 225.894 993.251 225.894C990.207 225.894 987.598 227.896 986.989 230.769L959.07 361.872C958.722 363.526 959.07 365.267 960.027 366.659C960.809 367.791 961.94 368.662 963.245 369.097L969.246 379.63C969.507 380.153 970.029 380.414 970.55 380.588C970.724 380.588 970.811 380.588 970.985 380.588C971.42 380.588 971.768 380.414 972.116 380.24L981.857 373.014C981.857 373.014 982.205 373.014 982.379 373.014C985.423 373.014 988.032 370.925 988.641 368.139L1016.56 237.037C1017.26 233.642 1014.99 230.334 1011.43 229.55H1011.08L1006.04 220.584C1005.78 220.061 1005.25 219.8 1004.73 219.626C1004.56 219.626 1004.47 219.626 1004.3 219.626V219.713Z" fill="#003B2F"/><path d="M884.794 239.04H848.699V409.491H884.794V239.04Z" fill="#003B2F"/><path d="M879.227 244.611H854.352V269.509H879.227V244.611Z" fill="#03FC9D"/><path d="M879.227 271.336H854.352V312.513H879.227V271.336Z" fill="#03FC9D"/><path d="M874.356 256.886C874.356 261.065 870.964 264.46 866.79 264.46C862.615 264.46 859.223 261.065 859.223 256.886C859.223 252.708 862.615 249.313 866.79 249.313C870.964 249.313 874.356 252.708 874.356 256.886Z" fill="#E6E8EA"/><path d="M873.659 305.462C873.224 305.984 870.963 308.335 867.136 308.509C862.874 308.683 860.178 305.897 859.83 305.462V278.127C860.265 277.605 862.7 275.341 866.527 275.254C870.615 275.254 873.224 277.692 873.659 278.127V305.462Z" fill="#E6E8EA"/><path d="M854.266 404.703H879.14V379.806H854.266V404.703Z" fill="#03FC9D"/><path d="M854.266 377.977H879.14V336.801H854.266V377.977Z" fill="#03FC9D"/><path d="M859.136 392.428C859.136 388.25 862.528 384.854 866.703 384.854C870.877 384.854 874.269 388.25 874.269 392.428C874.269 396.607 870.877 400.002 866.703 400.002C862.528 400.002 859.136 396.607 859.136 392.428Z" fill="#E6E8EA"/><path d="M859.83 343.765C860.265 343.243 862.526 340.892 866.353 340.718C870.615 340.544 873.311 343.33 873.659 343.765V371.1C873.224 371.622 870.789 373.886 866.962 373.973C862.874 373.973 860.265 371.535 859.83 371.1V343.765Z" fill="#E6E8EA"/><path d="M841.307 184.283H795.211V409.403H841.307V184.283Z" fill="#003B2F"/><path d="M835.045 397.999H801.473V195.774H835.045V397.999ZM803.56 395.823H832.871V197.95H803.56V395.823Z" fill="#E6E8EA"/><path d="M834.002 214.49H802.518V216.667H834.002V214.49Z" fill="#E6E8EA"/><path d="M834.002 223.021H802.518V225.198H834.002V223.021Z" fill="#E6E8EA"/><path d="M834.002 368.574H802.518V370.751H834.002V368.574Z" fill="#E6E8EA"/><path d="M834.002 377.106H802.518V379.282H834.002V377.106Z" fill="#E6E8EA"/><path d="M740.765 209.181H701.626V409.404H740.765V209.181Z" fill="#03FC9D"/><path d="M736.85 231.206L721.195 239.041L705.54 231.206L721.195 223.458L736.85 231.206Z" fill="#E6E8EA"/><path d="M736.85 246.266H705.54V248.268H736.85V246.266Z" fill="#E6E8EA"/><path d="M736.85 254.101H705.54V256.103H736.85V254.101Z" fill="#E6E8EA"/><path d="M736.85 261.936H705.54V263.938H736.85V261.936Z" fill="#E6E8EA"/><path d="M784.425 187.505H748.156V409.404H784.425V187.505Z" fill="#E6E8EA"/><path d="M784.425 194.991H748.156V198.474H784.425V194.991Z" fill="#03FC9D"/><path d="M784.425 203.522H748.156V207.005H784.425V203.522Z" fill="#03FC9D"/><path d="M784.425 389.991H748.156V393.474H784.425V389.991Z" fill="#03FC9D"/><path d="M784.425 398.435H748.156V401.918H784.425V398.435Z" fill="#03FC9D"/><path d="M779.207 283.177L753.463 273.427V277.866L779.207 287.704V283.177Z" fill="#003B2F"/><path d="M779.207 295.19L753.463 285.353V289.88L779.207 299.63V295.19Z" fill="#003B2F"/><path d="M779.207 307.116L753.463 297.279V301.806L779.207 311.643V307.116Z" fill="#003B2F"/><path d="M779.207 319.043L753.463 309.293V313.732L779.207 323.57V319.043Z" fill="#003B2F"/><path d="M393.3 216.145H359.38V407.575H393.3V216.145Z" fill="#E6E8EA"/><path d="M393.3 230.943H359.38V239.562H393.3V230.943Z" fill="#03FC9D"/><path d="M393.3 246.352H359.38V254.97H393.3V246.352Z" fill="#03FC9D"/><path d="M393.3 371.013H359.38V379.632H393.3V371.013Z" fill="#03FC9D"/><path d="M393.3 386.422H359.38V395.04H393.3V386.422Z" fill="#03FC9D"/><path d="M354.771 194.991H309.805V407.489H354.771V194.991Z" fill="#03FC9D"/><path d="M350.248 218.409L332.331 226.679L314.327 218.409L332.331 210.139L350.248 218.409Z" fill="#003B2F"/><path d="M350.248 234.253H314.327V236.516H350.248V234.253Z" fill="#003B2F"/><path d="M314.327 386.335L332.331 378.065L350.248 386.335L332.331 394.605L314.327 386.335Z" fill="#003B2F"/><path d="M350.248 368.228H314.327V370.491H350.248V368.228Z" fill="#003B2F"/><path d="M431.95 205.809L399.079 210.006L424.68 410.865L457.551 406.667L431.95 205.809Z" fill="#003B2F"/><path d="M440.44 313.731L431.568 320.695C430.612 321.479 429.307 321.653 428.176 321.131L417.826 316.604C415.478 315.559 415.13 312.512 417.131 310.945L426.002 303.981C426.959 303.198 428.263 303.023 429.394 303.546L439.744 308.073C442.092 309.117 442.44 312.164 440.44 313.731Z" fill="#E6E8EA"/><path d="M433.361 243.41L407.133 246.759L407.386 248.745L433.614 245.396L433.361 243.41Z" fill="#E6E8EA"/><path d="M434.268 251.322L408.04 254.671L408.293 256.657L434.521 253.308L434.268 251.322Z" fill="#E6E8EA"/><path d="M435.336 259.135L409.108 262.484L409.361 264.471L435.589 261.122L435.336 259.135Z" fill="#E6E8EA"/><path d="M1236.52 373.363C1236.52 373.363 1235.82 373.363 1235.48 373.102C1234.17 372.493 1233.65 371.013 1234.17 369.707L1313.84 190.899C1314.45 189.593 1315.93 189.071 1317.23 189.593C1318.54 190.203 1319.06 191.683 1318.54 192.988L1238.87 371.796C1238.43 372.754 1237.56 373.276 1236.52 373.276V373.363Z" fill="#003B2F"/><path d="M1270.18 380.241C1257.65 380.241 1244.87 377.89 1232.52 372.928C1230.17 371.971 1227.91 371.013 1225.73 369.881C1224.08 369.098 1223.39 367.008 1224.17 365.354C1224.95 363.7 1227.04 363.004 1228.69 363.787C1230.78 364.832 1232.87 365.79 1235.04 366.66C1283.49 386.16 1338.72 362.569 1358.2 314.08C1377.68 265.591 1354.11 210.312 1305.66 190.812C1303.93 190.116 1303.06 188.113 1303.75 186.372C1304.45 184.631 1306.45 183.761 1308.19 184.457C1360.11 205.35 1385.33 264.546 1364.55 316.517C1348.63 356.127 1310.54 380.241 1270.27 380.241H1270.18Z" fill="#003B2F"/><path d="M1269.92 362.221C1316.13 362.221 1353.59 324.727 1353.59 278.475C1353.59 232.224 1316.13 194.73 1269.92 194.73C1223.71 194.73 1186.25 232.224 1186.25 278.475C1186.25 324.727 1223.71 362.221 1269.92 362.221Z" fill="#03FC9D"/><path d="M1215.12 319.652C1216.52 315.299 1218.95 312.949 1217.39 308.161C1215.56 302.415 1210.08 298.498 1208.25 293.101C1205.12 284.221 1213.99 274.471 1207.38 266.462C1201.82 259.672 1193.9 265.679 1191.47 272.121C1189.73 276.386 1189.55 281.261 1187.29 285.353C1187.12 285.701 1186.86 286.049 1186.6 286.397C1186.34 286.746 1186.6 287.007 1186.6 287.355C1188.6 306.681 1197.38 324.701 1211.3 338.281C1212.08 336.627 1212.6 334.886 1212.95 333.145C1213.38 328.618 1214.08 324.092 1215.12 319.652Z" fill="#003B2F"/><path d="M1342.89 237.299C1341.67 237.299 1340.37 237.038 1339.24 236.429C1337.67 235.645 1336.11 234.252 1334.37 234.601C1333.15 235.036 1332.02 235.819 1331.23 236.864C1328.97 238.779 1326.19 239.911 1323.23 240.172C1318.45 240.694 1298.18 241.391 1301.23 250.706C1302.01 253.23 1304.97 254.188 1307.49 255.145C1310.01 256.016 1312.88 257.844 1312.62 260.543C1312.62 261.848 1311.67 263.067 1311.58 264.373C1311.4 267.594 1315.67 268.987 1318.88 268.9C1322.1 268.813 1326.1 268.552 1327.76 271.25C1329.76 274.558 1325.76 278.824 1321.93 278.737C1318.1 278.65 1314.88 275.864 1311.84 273.339C1308.88 270.728 1305.06 268.639 1301.32 269.335C1297.84 270.293 1295.05 272.817 1293.75 276.125C1292.79 279.259 1295.4 283.177 1293.31 286.049C1292.36 287.355 1290.62 288.051 1290.1 289.531C1289.75 291.011 1290.36 292.491 1291.57 293.275C1292.79 294.058 1294.01 294.755 1295.4 295.277C1304.1 299.891 1303.49 313.384 1300.79 321.306C1298.71 326.877 1297.58 332.797 1297.23 338.804C1296.88 340.893 1297.4 342.982 1298.62 344.636C1300.79 346.987 1304.62 346.203 1307.49 344.984C1317.58 340.719 1325.67 332.971 1333.58 325.397C1336.37 323.047 1338.71 320.087 1340.45 316.866C1341.76 313.819 1341.58 310.337 1340.11 307.377C1339.24 305.375 1336.63 302.764 1337.58 300.5C1338.45 299.107 1340.19 298.411 1341.85 298.933C1343.41 299.456 1344.89 300.152 1346.28 300.935C1347.59 301.458 1348.89 301.806 1350.28 301.806C1356.54 280.217 1353.85 256.973 1342.8 237.386L1342.89 237.299Z" fill="#003B2F"/><path d="M1195.99 256.19C1198.42 252.272 1199.29 249.051 1204.6 247.659C1208.25 246.788 1211.73 247.659 1215.38 246.353C1220.78 244.351 1218.86 242.261 1220.17 237.473C1221.47 232.772 1224.52 231.728 1228.78 230.161C1233.48 228.507 1243.22 225.199 1238.35 218.409C1234.69 213.272 1225.3 213.011 1218.34 212.489C1202.6 224.851 1191.81 242.435 1187.9 262.11C1191.21 261.065 1194.08 258.889 1195.99 256.103V256.19Z" fill="#003B2F"/><path d="M1285.14 209.093C1285.57 203.522 1276.61 204.828 1273.05 204.828C1265.74 202.129 1251.3 203.522 1247.83 211.618C1242.43 224.241 1264.79 215.013 1269.13 213.098C1272.27 211.879 1275.66 211.357 1278.96 211.618C1281.31 211.618 1284.88 212.227 1285.14 209.18V209.093Z" fill="#003B2F"/><g opacity="0.4"><path d="M1205.99 243.218C1205.99 243.218 1205.3 243.131 1204.95 242.957C1203.9 242.348 1203.56 241.042 1204.16 240.084C1212.43 225.982 1225.21 214.665 1240.26 208.31C1241.3 207.874 1242.61 208.31 1243.04 209.441C1243.48 210.486 1243.04 211.792 1241.91 212.227C1227.73 218.234 1215.56 228.941 1207.82 242.261C1207.38 242.957 1206.69 243.305 1205.99 243.305V243.218Z" fill="white"/></g><g opacity="0.4"><path d="M1195.9 282.741C1194.77 282.741 1193.82 281.87 1193.82 280.651C1193.55 273.426 1194.42 266.287 1196.16 259.323C1196.42 258.191 1197.64 257.495 1198.77 257.843C1199.9 258.104 1200.6 259.323 1200.25 260.455C1198.51 267.071 1197.82 273.861 1197.99 280.651C1197.99 281.783 1197.12 282.828 1195.9 282.828V282.741Z" fill="white"/></g><path d="M1272.18 396.259C1257.13 396.433 1243.83 401.656 1235.39 409.491H1310.36C1301.75 401.308 1287.83 396.085 1272.18 396.259Z" fill="#003B2F"/><path d="M1274.96 377.803H1269.74V401.743H1274.96V377.803Z" fill="#003B2F"/><mask id="mask0_692_2" style="mask-type:luminance" maskUnits="userSpaceOnUse" x="1186" y="194" width="168" height="169"><path d="M1330.88 335.712C1362.55 302.035 1360.95 249.034 1327.31 217.332C1293.66 185.63 1240.71 187.23 1209.03 220.907C1177.36 254.585 1178.96 307.585 1212.61 339.288C1246.25 370.99 1299.21 369.389 1330.88 335.712Z" fill="white"/></mask><g mask="url(#mask0_692_2)"><path d="M1233.48 360.219C1232.95 360.219 1232.43 360.219 1231.91 360.219V357.52C1261.74 358.304 1292.36 334.8 1310.1 297.628C1327.84 260.456 1326.89 221.804 1307.58 199.17L1309.58 197.429C1329.5 220.846 1330.63 260.63 1312.45 298.759C1294.53 336.279 1263.66 360.219 1233.39 360.219H1233.48Z" fill="#003B2F"/><path d="M1230.26 359.348C1209.73 335.669 1208.34 295.712 1226.52 257.582C1244.7 219.453 1276.7 195.513 1308.01 196.645V199.344C1277.66 198.212 1246.7 221.629 1228.95 258.801C1211.21 295.973 1212.52 334.799 1232.35 357.694L1230.35 359.435L1230.26 359.348Z" fill="#003B2F"/><path d="M1342.98 269.509C1325.23 269.509 1303.58 264.111 1281.75 253.665C1245.91 236.516 1221.04 211.444 1218.34 189.681L1220.86 189.333C1223.47 210.225 1247.74 234.6 1282.79 251.315C1317.84 268.116 1352.02 271.772 1369.85 260.629L1371.24 262.806C1364.02 267.332 1354.28 269.509 1342.89 269.509H1342.98Z" fill="#003B2F"/><path d="M1319.06 366.66C1316.45 345.767 1292.18 321.392 1257.13 304.678C1222.08 287.877 1187.9 284.22 1170.07 295.363L1168.68 293.187C1187.29 281.609 1222.43 285.265 1258.26 302.328C1294.1 319.477 1318.97 344.549 1321.67 366.312L1319.15 366.66H1319.06Z" fill="#003B2F"/><path d="M1307.13 197.601L1230.31 358.071L1232.74 359.237L1309.56 198.767L1307.13 197.601Z" fill="#003B2F"/><path d="M1194.94 241.039L1193.81 243.396L1344.79 315.634L1345.91 313.278L1194.94 241.039Z" fill="#003B2F"/></g><path d="M470.098 650.019V674.916H587.601V650.019H470.098Z" fill="#03FC9D"/><path d="M473.925 653.849V670.998H491.059V653.849H473.925Z" fill="#03FC9D"/><path d="M492.365 653.936V671.085H520.718V653.936H492.365Z" fill="#03FC9D"/><path d="M482.362 667.691C485.244 667.691 487.581 665.352 487.581 662.467C487.581 659.583 485.244 657.244 482.362 657.244C479.48 657.244 477.144 659.583 477.144 662.467C477.144 665.352 479.48 667.691 482.362 667.691Z" fill="#003B2F"/><path d="M515.933 657.679C515.933 657.679 517.933 659.594 518.02 662.206C518.107 665.166 516.194 666.994 515.933 667.255H497.059C497.059 667.255 495.146 665.253 495.059 662.641C495.059 659.855 496.798 658.027 497.059 657.766H515.933V657.679Z" fill="#003B2F"/><path d="M584.295 670.999V653.849H567.161V670.999H584.295Z" fill="#03FC9D"/><path d="M565.858 671.086V653.936H537.504V671.086H565.858Z" fill="#03FC9D"/><path d="M575.86 667.691C578.742 667.691 581.079 665.352 581.079 662.468C581.079 659.583 578.742 657.244 575.86 657.244C572.978 657.244 570.642 659.583 570.642 662.468C570.642 665.352 572.978 667.691 575.86 667.691Z" fill="#003B2F"/><path d="M542.287 667.255C542.287 667.255 540.286 665.34 540.199 662.728C540.112 659.768 542.026 657.94 542.287 657.679H561.16C561.16 657.679 563.074 659.681 563.16 662.293C563.16 665.078 561.421 666.907 561.16 667.168H542.287V667.255Z" fill="#003B2F"/><path d="M443.138 677.268V703.558H625.089V677.268H443.138Z" fill="#003B2F"/><path d="M615.87 680.837V699.989H452.445V680.837H615.87ZM614.131 698.77V682.056H454.184V698.77H614.131Z" fill="#03FC9D"/><path d="M469.318 681.446H467.578V699.379H469.318V681.446Z" fill="#03FC9D"/><path d="M476.189 681.446H474.449V699.379H476.189V681.446Z" fill="#03FC9D"/><path d="M593.866 681.446H592.126V699.379H593.866V681.446Z" fill="#03FC9D"/><path d="M600.737 681.445H598.998V699.378H600.737V681.445Z" fill="#03FC9D"/><path d="M374.339 478.089H328.329V702.861H374.339V478.089Z" fill="#003B2F"/><path d="M367.034 490.624H335.636V690.324H367.034V490.624Z" stroke="white" stroke-width="2.6135" stroke-miterlimit="10"/><path d="M335.636 509.253H367.034" stroke="white" stroke-width="2.6135" stroke-miterlimit="10"/><path d="M335.636 517.784H367.034" stroke="white" stroke-width="2.6135" stroke-miterlimit="10"/><path d="M335.636 663.164H367.034" stroke="white" stroke-width="2.6135" stroke-miterlimit="10"/><path d="M335.636 671.608H367.034" stroke="white" stroke-width="2.6135" stroke-miterlimit="10"/><path d="M419.218 524.923H382.34V702.861H419.218V524.923Z" fill="#003B2F"/><path d="M415.477 544.51L400.778 551.474L385.993 544.51L400.778 537.633L415.477 544.51Z" fill="#03FC9D"/><path d="M415.477 557.83H385.993V559.658H415.477V557.83Z" fill="#03FC9D"/><path d="M462.62 636.962L504.455 628.518C496.192 615.286 491.061 600.661 489.06 585.688L462.62 636.962Z" stroke="#003B2F" stroke-width="1.77718" stroke-linecap="round" stroke-linejoin="round"/><path d="M565.51 584.556C563.77 599.79 558.9 614.676 550.637 628.17L595.081 638.007L565.51 584.556Z" stroke="#003B2F" stroke-width="1.77718" stroke-linecap="round" stroke-linejoin="round"/><path d="M526.893 540.245C519.674 540.245 513.934 546.164 513.934 553.39C513.934 560.615 519.848 566.361 527.067 566.361C534.286 566.361 540.026 560.441 540.026 553.216C540.026 545.99 534.112 540.245 526.893 540.245Z" stroke="#003B2F" stroke-width="0.627239" stroke-miterlimit="10"/><path d="M524.371 634.176H507.324L508.89 628.517H522.718L524.371 634.176ZM547.941 634.001H530.894L532.46 628.343H546.289L547.941 634.001Z" stroke="#003B2F" stroke-width="1.77718" stroke-linecap="round" stroke-linejoin="round"/><path d="M554.116 523.009C546.114 525.098 536.808 526.404 526.806 526.491C516.804 526.491 507.41 525.446 499.409 523.444C489.668 542.857 486.275 564.62 489.059 585.687C491.059 600.66 496.191 615.285 504.453 628.517L550.637 628.169C558.812 614.676 563.77 599.79 565.509 584.555C567.858 563.575 564.118 542.16 554.203 523.009" fill="white"/><path d="M554.116 523.009C546.114 525.098 536.808 526.404 526.806 526.491C516.804 526.491 507.41 525.446 499.409 523.444C489.668 542.857 486.275 564.62 489.059 585.687C491.059 600.66 496.191 615.285 504.453 628.517L550.637 628.169C558.812 614.676 563.77 599.79 565.509 584.555C567.858 563.575 564.118 542.16 554.203 523.009H554.116Z" stroke="#003B2F" stroke-width="1.77718" stroke-linecap="round" stroke-linejoin="round"/><path d="M554.117 523.009C549.072 513.259 542.375 504.031 534.113 495.848C529.938 491.67 523.154 491.757 518.979 495.935C510.804 504.205 504.28 513.52 499.41 523.357C507.412 525.359 516.805 526.491 526.807 526.404C536.809 526.404 546.202 525.098 554.117 522.922" fill="#03FC9D"/><path d="M554.117 523.009C549.072 513.259 542.375 504.031 534.113 495.848C529.938 491.67 523.154 491.757 518.979 495.935C510.804 504.205 504.28 513.52 499.41 523.357C507.412 525.359 516.805 526.491 526.807 526.404C536.809 526.404 546.202 525.098 554.117 522.922V523.009Z" stroke="#003B2F" stroke-width="1.77718" stroke-miterlimit="10"/><path d="M526.023 322.002C526.023 322.002 526.545 321.654 526.893 321.654H555.682C556.204 321.654 556.464 322.263 556.117 322.698L550.463 328.357C550.463 328.357 549.941 328.705 549.593 328.705H520.805C520.805 328.705 520.544 328.705 520.457 328.618C520.37 328.618 520.283 328.444 520.283 328.357C520.283 328.27 520.283 328.096 520.283 328.008C520.283 327.921 520.283 327.747 520.457 327.747L526.11 322.089L526.023 322.002Z" fill="#003B2F"/><path d="M526.023 300.326C526.023 300.326 526.545 299.977 526.893 299.977H555.682C556.204 299.977 556.464 300.587 556.117 301.022L550.463 306.681C550.463 306.681 549.941 307.029 549.593 307.029H520.805C520.805 307.029 520.544 307.029 520.457 306.942C520.37 306.942 520.283 306.768 520.283 306.681C520.283 306.593 520.283 306.419 520.283 306.332C520.283 306.245 520.283 306.071 520.457 306.071L526.11 300.413L526.023 300.326Z" fill="#003B2F"/><path d="M550.289 311.207C550.289 311.207 549.767 310.859 549.419 310.859H520.631C520.631 310.859 520.37 310.859 520.283 310.946C520.196 311.033 520.109 311.12 520.109 311.207C520.109 311.294 520.109 311.468 520.109 311.555C520.109 311.642 520.109 311.817 520.283 311.817L525.936 317.475C525.936 317.475 526.197 317.649 526.284 317.736C526.458 317.736 526.545 317.823 526.719 317.823H555.508C556.029 317.823 556.29 317.214 555.942 316.779L550.289 311.12V311.207Z" fill="#003B2F"/><path d="M520.632 574.631C511.673 570.975 507.237 560.789 510.89 551.736C514.543 542.769 524.719 538.33 533.765 541.986C542.723 545.642 547.159 555.827 543.506 564.881C539.853 573.847 529.677 578.287 520.632 574.631Z" fill="#03FC9D" stroke="#003B2F" stroke-width="2.40442" stroke-linecap="round" stroke-linejoin="round"/><path d="M520.371 563.314C520.371 563.314 520.632 563.14 520.806 563.14H536.81C536.81 563.14 537.244 563.488 537.07 563.662L533.939 566.796C533.939 566.796 533.678 566.97 533.504 566.97H517.501C517.501 566.97 517.414 566.97 517.327 566.97C517.327 566.97 517.24 566.883 517.24 566.796C517.24 566.796 517.24 566.709 517.24 566.622C517.24 566.535 517.24 566.535 517.327 566.448L520.458 563.314H520.371Z" fill="#003B2F"/><path d="M520.371 551.301C520.371 551.301 520.632 551.126 520.806 551.126H536.81C536.81 551.126 537.244 551.475 537.07 551.649L533.939 554.783C533.939 554.783 533.678 554.957 533.504 554.957H517.501C517.501 554.957 517.414 554.957 517.327 554.957C517.327 554.957 517.24 554.87 517.24 554.783C517.24 554.783 517.24 554.696 517.24 554.609C517.24 554.609 517.24 554.522 517.327 554.434L520.458 551.301H520.371Z" fill="#003B2F"/><path d="M533.939 557.307C533.939 557.307 533.678 557.133 533.504 557.133H517.501C517.501 557.133 517.414 557.133 517.327 557.133C517.24 557.133 517.24 557.22 517.24 557.307C517.24 557.307 517.24 557.394 517.24 557.481C517.24 557.568 517.24 557.568 517.327 557.655L520.458 560.789C520.458 560.789 520.632 560.876 520.632 560.963C520.632 560.963 520.806 560.963 520.893 560.963H536.896C536.896 560.963 537.331 560.615 537.157 560.441L534.026 557.307H533.939Z" fill="#003B2F"/><path d="M1133.28 384.419C1133.28 384.419 1133.63 384.157 1133.89 384.157H1155.02C1155.02 384.157 1155.63 384.593 1155.37 384.854L1151.2 389.032C1151.2 389.032 1150.85 389.294 1150.59 389.294H1129.45C1129.45 389.294 1129.28 389.294 1129.19 389.294C1129.19 389.294 1129.11 389.207 1129.02 389.12C1129.02 389.12 1129.02 388.945 1129.02 388.858C1129.02 388.771 1129.02 388.684 1129.11 388.597L1133.28 384.419Z" fill="#003B2F"/><path d="M1133.28 368.488C1133.28 368.488 1133.63 368.227 1133.89 368.227H1155.02C1155.02 368.227 1155.63 368.662 1155.37 368.923L1151.2 373.102C1151.2 373.102 1150.85 373.363 1150.59 373.363H1129.45C1129.45 373.363 1129.28 373.363 1129.19 373.363C1129.19 373.363 1129.11 373.276 1129.02 373.189C1129.02 373.189 1129.02 373.015 1129.02 372.928C1129.02 372.928 1129.02 372.754 1129.11 372.667L1133.28 368.488Z" fill="#003B2F"/><path d="M1151.2 376.41C1151.2 376.41 1150.85 376.149 1150.59 376.149H1129.45C1129.45 376.149 1129.28 376.149 1129.19 376.149C1129.11 376.149 1129.11 376.236 1129.02 376.323C1129.02 376.323 1129.02 376.497 1129.02 376.584C1129.02 376.672 1129.02 376.759 1129.11 376.846L1133.28 381.024C1133.28 381.024 1133.45 381.198 1133.54 381.198C1133.63 381.198 1133.72 381.198 1133.89 381.198H1155.02C1155.02 381.198 1155.63 380.763 1155.37 380.502L1151.2 376.323V376.41Z" fill="#003B2F"/><path d="M205.925 109.836H264.152" stroke="#003B2F" stroke-width="3" stroke-linecap="round" stroke-linejoin="round"/><path d="M161.716 109.836H176.398" stroke="#003B2F" stroke-width="3" stroke-linecap="round" stroke-linejoin="round"/><path d="M75.7856 56.4204L89.5545 70.1892" stroke="#003B2F" stroke-width="3" stroke-linecap="round" stroke-linejoin="round"/><path d="M99.5908 80.2256L113.36 93.9944" stroke="#003B2F" stroke-width="3" stroke-linecap="round" stroke-linejoin="round"/><path d="M75.7856 93.9944L89.5545 80.2256" stroke="#003B2F" stroke-width="3" stroke-linecap="round" stroke-linejoin="round"/><path d="M99.5908 70.1894L113.36 56.4205" stroke="#003B2F" stroke-width="3" stroke-linecap="round" stroke-linejoin="round"/><path d="M1583.28 463.497L1597.05 477.266" stroke="#003B2F" stroke-width="3" stroke-linecap="round" stroke-linejoin="round"/><path d="M1607.09 487.302L1620.86 501.071" stroke="#003B2F" stroke-width="3" stroke-linecap="round" stroke-linejoin="round"/><path d="M1583.28 501.071L1597.05 487.302" stroke="#003B2F" stroke-width="3" stroke-linecap="round" stroke-linejoin="round"/><path d="M1607.09 477.266L1620.86 463.497" stroke="#003B2F" stroke-width="3" stroke-linecap="round" stroke-linejoin="round"/><path d="M1468.32 357.173L1450.43 339.285L1432.54 357.173L1450.43 375.062L1468.32 357.173Z" stroke="#003B2F" stroke-width="3" stroke-linecap="round" stroke-linejoin="round"/><path d="M88.7246 708.955L109.544 720.982" stroke="#003B2F" stroke-width="3" stroke-linecap="round" stroke-linejoin="round"/><path d="M130.446 708.955L118.17 716.005" stroke="#003B2F" stroke-width="3" stroke-linecap="round" stroke-linejoin="round"/><path d="M109.544 720.982V745.285" stroke="#003B2F" stroke-width="3" stroke-linecap="round" stroke-linejoin="round"/><path d="M88.7246 778.296H239.601" stroke="#03FC9D" stroke-width="3" stroke-linecap="round" stroke-linejoin="round"/><path d="M206.755 811.557H323.126" stroke="#003B2F" stroke-width="3" stroke-linecap="round" stroke-linejoin="round"/><path d="M124.024 322.941H88.4521C99.6551 322.941 108.895 313.817 108.895 302.499C108.895 291.18 99.7706 282.056 88.4521 282.056H-13.7604C-24.9633 282.056 -34.2029 291.18 -34.2029 302.499H-65.6173C-76.8203 302.499 -86.0598 311.623 -86.0598 322.941C-86.0598 334.26 -76.9358 343.384 -65.6173 343.384H1.36942C1.36942 354.587 10.4934 363.826 21.8119 363.826H124.024C135.227 363.826 144.467 354.702 144.467 343.384C144.467 332.065 135.343 322.941 124.024 322.941Z" fill="#03FC9D"/><path d="M-157.897 391.545H19.8491C39.4314 391.545 55.3059 375.67 55.3059 356.088C55.3059 336.506 39.4314 320.631 19.8491 320.631H-157.897C-177.479 320.631 -193.353 336.506 -193.353 356.088C-193.353 375.67 -177.479 391.545 -157.897 391.545Z" fill="#E6E8EA"/><path d="M1508.17 695.942H1595.71C1605.33 695.942 1613.13 688.141 1613.13 678.517V678.458C1613.13 668.835 1605.33 661.034 1595.71 661.034H1508.17C1498.55 661.034 1490.75 668.835 1490.75 678.458V678.517C1490.75 688.141 1498.55 695.942 1508.17 695.942Z" fill="#E6E8EA"/><path d="M1555.65 669.153H1698.95C1714.73 669.153 1727.52 656.364 1727.52 640.587C1727.52 624.81 1714.73 612.02 1698.95 612.02H1555.65C1539.87 612.02 1527.08 624.81 1527.08 640.587C1527.08 656.364 1539.87 669.153 1555.65 669.153Z" fill="#E6E8EA"/><path d="M1459.16 167.393H1487.94" stroke="#003B2F" stroke-width="3" stroke-linecap="round" stroke-linejoin="round"/><path d="M1338.8 102.944H1547" stroke="#03FC9D" stroke-width="3" stroke-linecap="round" stroke-linejoin="round"/><path d="M1525.1 167.31H1641.47" stroke="#003B2F" stroke-width="3" stroke-linecap="round" stroke-linejoin="round"/></g><defs><clipPath id="clip0_692_2"><rect width="1675.05" height="857" fill="white" transform="translate(0.865723 0.446045)"/></clipPath></defs></svg>