<?xml version="1.0" encoding="UTF-8"?><svg id="Layer_1" data-name="Layer 1" xmlns="http://www.w3.org/2000/svg" viewBox="0 0 192 108"><defs><style>.cls-1 {
        stroke: #00ff94;
      }

      .cls-1, .cls-2, .cls-3 {
        fill: none;
        stroke-linecap: round;
        stroke-linejoin: round;
        stroke-width: .35px;
      }

      .cls-2 {
        stroke: #003c2e;
      }

      .cls-3 {
        stroke: #163b2f;
      }

      .cls-4 {
        fill: #00ff94;
      }

      .cls-5 {
        fill: #004734;
      }

      .cls-6 {
        fill: #003d2e;
      }

      .cls-7 {
        fill: #e3e7e3;
      }</style></defs><g><path id="Path_14" data-name="Path 14" class="cls-6" d="M54.24,42.52s0,0,.01,0c.05-.04,.11-.07,.17-.09l.98-.44,.86-.39,.99-.45,.84-.38,.99-.45,.84-.38,.98-.45,.72-.33s.05-.04,.08-.02c0,0,0,.01,0,.02,0,.03,0,.06,0,.08,0,2.53,0,5.06,0,7.59,0,.04,0,.08-.02,.11-.22-.13-.45-.26-.67-.39l-5.77-3.41-1.02-.6h0Z"/><path id="Path_15" data-name="Path 15" class="cls-5" d="M61.7,46.94v-7.75s0-.04,0-.05c0-.03,0-.05,0-.08,0-2.93,0-5.85,0-8.78,0-.03-.02-.07,.03-.1,.16,.27,.32,.53,.48,.8l6.91,11.47s.03,.05,.04,.08c-.03,.02-.06,0-.09-.02l-.57-.26-1.12-.51-1.11-.51c-.38-.17-.75-.34-1.13-.51l-1.1-.5-1.14-.51-1.1-.5-.03-.02s-.05,0-.05,.03v.07c0,2.51,0,5.02,0,7.53,0,.04,0,.08-.02,.12,0,0,0,.01-.01,0h0Z"/><path id="Path_16" data-name="Path 16" class="cls-5" d="M61.71,46.93c0-.62,0-1.24,0-1.86,0-1.95,0-3.9,0-5.84,0-.08,0-.08,.08-.05l1.29,.58c.28,.13,.57,.26,.85,.39l1.24,.56,.71,.32,1.01,.46,.71,.32,.99,.45,.54,.25s.02,0,.03,0c0,.03-.03,.03-.05,.04l-3.74,2.21-3.56,2.11s-.06,.04-.09,.05h0Z"/><path id="Path_17" data-name="Path 17" class="cls-5" d="M61.71,49.21l1.56-.92,4.42-2.61,1.4-.83s.03-.03,.05-.02c0,.02-.02,.03-.03,.05-2.46,3.46-4.91,6.92-7.37,10.38-.01,.02-.02,.05-.05,.05-.01-.03-.02-.06-.02-.1,0-1.97,0-3.93,0-5.9,0-.04,0-.08,.03-.1h0Z"/><path id="Path_18" data-name="Path 18" class="cls-6" d="M61.71,49.21s-.01,.06-.01,.09c0,1.98,0,3.95,0,5.93v.08c-.1-.13-.2-.27-.29-.4-.85-1.2-1.7-2.39-2.55-3.59l-2.54-3.58-2.03-2.86-.04-.06s.07,.04,.1,.06l4.39,2.6,2.92,1.73s.03,.02,.05,.02h0Z"/><path id="Path_19" data-name="Path 19" class="cls-6" d="M61.72,30.18s0,.05,0,.07c0,2.93,0,5.87,0,8.8,0,.03,0,.06-.01,.08h0s-.02-.04-.02-.06v-.07c0-2.9,0-5.8,0-8.7,0-.05,0-.1,.02-.15h.01s0,.03,0,.03h0Z"/><path id="Path_20" data-name="Path 20" class="cls-6" d="M61.7,30.16c0,2.99,0,5.97,0,8.96v.02c-.35,.16-.7,.32-1.05,.48-.37,.17-.74,.34-1.11,.5l-1.92,.87-1.34,.61-1.99,.91s-.02,0-.03,0c.11-.19,.22-.37,.33-.56l2.85-4.73,3.65-6.04,.6-1s.02-.02,.02-.03h0Z"/></g><g><path id="Path_14-2" data-name="Path 14" class="cls-6" d="M118.22,29.7s0,0,.01,0c.05-.04,.11-.07,.17-.09l.98-.44,.86-.39,.99-.45,.84-.38,.99-.45,.84-.38,.98-.45,.72-.33s.05-.04,.08-.02c0,0,0,.01,0,.02,0,.03,0,.06,0,.08,0,2.53,0,5.06,0,7.59,0,.04,0,.08-.02,.11-.22-.13-.45-.26-.67-.39l-5.77-3.41-1.02-.6h0Z"/><path id="Path_15-2" data-name="Path 15" class="cls-5" d="M125.68,34.11v-7.75s0-.04,0-.05c0-.03,0-.05,0-.08,0-2.93,0-5.85,0-8.78,0-.03-.02-.07,.03-.1,.16,.27,.32,.53,.48,.8l6.91,11.47s.03,.05,.04,.08c-.03,.02-.06,0-.09-.02l-.57-.26-1.12-.51-1.11-.51c-.38-.17-.75-.34-1.13-.51l-1.1-.5-1.14-.51-1.1-.5-.03-.02s-.05,0-.05,.03v.07c0,2.51,0,5.02,0,7.53,0,.04,0,.08-.02,.12,0,0,0,.01-.01,0h0Z"/><path id="Path_16-2" data-name="Path 16" class="cls-5" d="M125.7,34.1c0-.62,0-1.24,0-1.86,0-1.95,0-3.9,0-5.84,0-.08,0-.08,.08-.05l1.29,.58c.28,.13,.57,.26,.85,.39l1.24,.56,.71,.32,1.01,.46,.71,.32,.99,.45,.54,.25s.02,0,.03,0c0,.03-.03,.03-.05,.04l-3.74,2.21-3.56,2.11s-.06,.04-.09,.05h0Z"/><path id="Path_17-2" data-name="Path 17" class="cls-5" d="M125.69,36.39l1.56-.92,4.42-2.61,1.4-.83s.03-.03,.05-.02c0,.02-.02,.03-.03,.05-2.46,3.46-4.91,6.92-7.37,10.38-.01,.02-.02,.05-.05,.05-.01-.03-.02-.06-.02-.1,0-1.97,0-3.93,0-5.9,0-.04,0-.08,.03-.1h0Z"/><path id="Path_18-2" data-name="Path 18" class="cls-6" d="M125.69,36.39s-.01,.06-.01,.09c0,1.98,0,3.95,0,5.93v.08c-.1-.13-.2-.27-.29-.4-.85-1.2-1.7-2.39-2.55-3.59l-2.54-3.58-2.03-2.86-.04-.06s.07,.04,.1,.06l4.39,2.6,2.92,1.73s.03,.02,.05,.02h0Z"/><path id="Path_19-2" data-name="Path 19" class="cls-6" d="M125.71,17.35s0,.05,0,.07c0,2.93,0,5.87,0,8.8,0,.03,0,.06-.01,.08h0s-.02-.04-.02-.06v-.07c0-2.9,0-5.8,0-8.7,0-.05,0-.1,.02-.15h.01s0,.03,0,.03h0Z"/><path id="Path_20-2" data-name="Path 20" class="cls-6" d="M125.68,17.33c0,2.99,0,5.97,0,8.96v.02c-.35,.16-.7,.32-1.05,.48-.37,.17-.74,.34-1.11,.5l-1.92,.87-1.34,.61-1.99,.91s-.02,0-.03,0c.11-.19,.22-.37,.33-.56l2.85-4.73,3.65-6.04,.6-1s.02-.02,.02-.03h0Z"/></g><g><path id="Path_14-3" data-name="Path 14" class="cls-6" d="M59.84,80.41s0,0,.01,0c.05-.04,.11-.07,.17-.09l.98-.44,.86-.39,.99-.45,.84-.38,.99-.45,.84-.38,.98-.45,.72-.33s.05-.04,.08-.02c0,0,0,.01,0,.02,0,.03,0,.06,0,.08,0,2.53,0,5.06,0,7.59,0,.04,0,.08-.02,.11-.22-.13-.45-.26-.67-.39l-5.77-3.41-1.02-.6h0Z"/><path id="Path_15-3" data-name="Path 15" class="cls-5" d="M67.31,84.83v-7.75s0-.04,0-.05c0-.03,0-.05,0-.08,0-2.93,0-5.85,0-8.78,0-.03-.02-.07,.03-.1,.16,.27,.32,.53,.48,.8l6.91,11.47s.03,.05,.04,.08c-.03,.02-.06,0-.09-.02l-.57-.26-1.12-.51-1.11-.51c-.38-.17-.75-.34-1.13-.51l-1.1-.5-1.14-.51-1.1-.5-.03-.02s-.05,0-.05,.03v.07c0,2.51,0,5.02,0,7.53,0,.04,0,.08-.02,.12,0,0,0,.01-.01,0h0Z"/><path id="Path_16-3" data-name="Path 16" class="cls-5" d="M67.32,84.82c0-.62,0-1.24,0-1.86,0-1.95,0-3.9,0-5.84,0-.08,0-.08,.08-.05l1.29,.58c.28,.13,.57,.26,.85,.39l1.24,.56,.71,.32,1.01,.46,.71,.32,.99,.45,.54,.25s.02,0,.03,0c0,.03-.03,.03-.05,.04l-3.74,2.21-3.56,2.11s-.06,.04-.09,.05h0Z"/><path id="Path_17-3" data-name="Path 17" class="cls-5" d="M67.31,87.1l1.56-.92,4.42-2.61,1.4-.83s.03-.03,.05-.02c0,.02-.02,.03-.03,.05-2.46,3.46-4.91,6.92-7.37,10.38-.01,.02-.02,.05-.05,.05-.01-.03-.02-.06-.02-.1,0-1.97,0-3.93,0-5.9,0-.04,0-.08,.03-.1h0Z"/><path id="Path_18-3" data-name="Path 18" class="cls-6" d="M67.31,87.1s-.01,.06-.01,.09c0,1.98,0,3.95,0,5.93v.08c-.1-.13-.2-.27-.29-.4-.85-1.2-1.7-2.39-2.55-3.59l-2.54-3.58-2.03-2.86-.04-.06s.07,.04,.1,.06l4.39,2.6,2.92,1.73s.03,.02,.05,.02h0Z"/><path id="Path_19-3" data-name="Path 19" class="cls-6" d="M67.33,68.07s0,.05,0,.07c0,2.93,0,5.87,0,8.8,0,.03,0,.06-.01,.08h0s-.02-.04-.02-.06v-.07c0-2.9,0-5.8,0-8.7,0-.05,0-.1,.02-.15h.01s0,.03,0,.03h0Z"/><path id="Path_20-3" data-name="Path 20" class="cls-6" d="M67.31,68.04c0,2.99,0,5.97,0,8.96v.02c-.35,.16-.7,.32-1.05,.48-.37,.17-.74,.34-1.11,.5l-1.92,.87-1.34,.61-1.99,.91s-.02,0-.03,0c.11-.19,.22-.37,.33-.56l2.85-4.73,3.65-6.04,.6-1s.02-.02,.02-.03h0Z"/></g><g><path id="Path_14-4" data-name="Path 14" class="cls-6" d="M42.02,63.74s0,0,0,0c.03-.02,.05-.03,.08-.04l.49-.22,.43-.2,.5-.22,.42-.19,.5-.23,.42-.19,.49-.22,.36-.17s.02-.02,.04,0c0,0,0,0,0,0,0,.01,0,.03,0,.04,0,1.27,0,2.53,0,3.8,0,.02,0,.04,0,.05-.11-.07-.23-.13-.34-.2l-2.89-1.71-.51-.3h0Z"/><path id="Path_15-4" data-name="Path 15" class="cls-5" d="M45.75,65.95v-3.88s0-.02,0-.03c0-.01,0-.03,0-.04,0-1.47,0-2.93,0-4.4,0-.02,0-.04,.01-.05,.08,.13,.16,.27,.24,.4l3.46,5.75s.01,.03,.02,.04c-.02,0-.03,0-.04,0l-.28-.13-.56-.26-.56-.25c-.19-.09-.38-.17-.57-.26l-.55-.25-.57-.26-.55-.25h-.02s-.02-.01-.02,0v.03c0,1.26,0,2.51,0,3.77,0,.02,0,.04,0,.06,0,0,0,0,0,0h0Z"/><path id="Path_16-4" data-name="Path 16" class="cls-5" d="M45.76,65.95v-.93c0-.98,0-1.95,0-2.93,0-.04,0-.04,.04-.02l.65,.29c.14,.06,.28,.13,.43,.19l.62,.28,.35,.16,.51,.23,.35,.16,.5,.23,.27,.12s0,0,.01,0c0,.02-.01,.02-.02,.02l-1.87,1.11-1.79,1.05s-.03,.02-.05,.02h0Z"/><path id="Path_17-4" data-name="Path 17" class="cls-5" d="M45.76,67.09l.78-.46,2.21-1.31,.7-.41s.01-.01,.03-.01c0,.01,0,.02-.01,.02-1.23,1.73-2.46,3.47-3.69,5.2,0,0,0,.03-.03,.03,0-.02,0-.03,0-.05,0-.98,0-1.97,0-2.95,0-.02,0-.04,.02-.05h0Z"/><path id="Path_18-4" data-name="Path 18" class="cls-6" d="M45.76,67.09s0,.03,0,.04v2.97s0,.03,0,.04c-.05-.06-.1-.13-.15-.2-.43-.6-.85-1.2-1.28-1.8l-1.27-1.79-1.01-1.43-.02-.03s.04,.02,.05,.03l2.2,1.3,1.46,.86s.02,0,.02,.01h0Z"/><path id="Path_19-4" data-name="Path 19" class="cls-6" d="M45.76,57.56s0,.02,0,.04c0,1.47,0,2.94,0,4.41,0,.01,0,.03,0,.04h0s-.01-.02,0-.03v-.04c0-1.45,0-2.91,0-4.36,0-.02,0-.05,.01-.07h0s0,.01,0,.01h0Z"/><path id="Path_20-4" data-name="Path 20" class="cls-6" d="M45.75,57.54c0,1.5,0,2.99,0,4.49h0c-.18,.09-.35,.17-.53,.25-.19,.08-.37,.17-.56,.25l-.96,.44-.67,.31-1,.45s0,0-.01,0c.06-.09,.11-.19,.17-.28l1.43-2.37,1.83-3.03,.3-.5s0-.01,.01-.02h0Z"/></g><g><path id="Path_14-5" data-name="Path 14" class="cls-6" d="M104.54,93.09s0,0,0,0c.03-.02,.05-.03,.08-.04l.49-.22,.43-.2,.5-.22,.42-.19,.5-.23,.42-.19,.49-.22,.36-.17s.02-.02,.04,0c0,0,0,0,0,0,0,.01,0,.03,0,.04,0,1.27,0,2.53,0,3.8,0,.02,0,.04,0,.05-.11-.07-.23-.13-.34-.2l-2.89-1.71-.51-.3h0Z"/><path id="Path_15-5" data-name="Path 15" class="cls-5" d="M108.28,95.31v-3.88s0-.02,0-.03c0-.01,0-.03,0-.04v-4.4s0-.04,.01-.05c.08,.13,.16,.27,.24,.4l3.46,5.75s.01,.03,.02,.04c-.02,0-.03,0-.04,0l-.28-.13-.56-.26-.56-.25c-.19-.09-.38-.17-.57-.26l-.55-.25-.57-.26-.55-.25h-.02s-.02-.01-.02,0v.03c0,1.26,0,2.51,0,3.77,0,.02,0,.04,0,.06,0,0,0,0,0,0h0Z"/><path id="Path_16-5" data-name="Path 16" class="cls-5" d="M108.28,95.3v-.93c0-.98,0-1.95,0-2.93,0-.04,0-.04,.04-.02l.65,.29c.14,.06,.28,.13,.43,.19l.62,.28,.35,.16,.51,.23,.35,.16,.5,.23,.27,.12s0,0,.01,0c0,.02-.01,.02-.02,.02l-1.87,1.11-1.79,1.05s-.03,.02-.05,.02h0Z"/><path id="Path_17-5" data-name="Path 17" class="cls-5" d="M108.28,96.44l.78-.46,2.21-1.31,.7-.41s.01-.01,.03-.01c0,.01,0,.02-.01,.02-1.23,1.73-2.46,3.47-3.69,5.2,0,0,0,.03-.03,.03,0-.02,0-.03,0-.05v-2.95s0-.04,.02-.05h0Z"/><path id="Path_18-5" data-name="Path 18" class="cls-6" d="M108.28,96.44s0,.03,0,.04v2.97s0,.03,0,.04c-.05-.06-.1-.13-.15-.2-.43-.6-.85-1.2-1.28-1.8l-1.27-1.79-1.01-1.43-.02-.03s.04,.02,.05,.03l2.2,1.3,1.46,.86s.02,0,.02,.01h0Z"/><path id="Path_19-5" data-name="Path 19" class="cls-6" d="M108.29,86.91s0,.02,0,.04c0,1.47,0,2.94,0,4.41,0,.01,0,.03,0,.04h0s-.01-.02,0-.03v-.04c0-1.45,0-2.91,0-4.36,0-.02,0-.05,.01-.07h0s0,.01,0,.01h0Z"/><path id="Path_20-5" data-name="Path 20" class="cls-6" d="M108.28,86.9c0,1.5,0,2.99,0,4.49h0c-.18,.09-.35,.17-.53,.25-.19,.08-.37,.17-.56,.25l-.96,.44-.67,.31-1,.45s0,0-.01,0c.06-.09,.11-.19,.17-.28l1.43-2.37,1.83-3.03,.3-.5s0-.01,.01-.02h0Z"/></g><g><path id="Path_14-6" data-name="Path 14" class="cls-6" d="M78.49,14.7s0,0,0,0c.03-.02,.05-.03,.08-.04l.49-.22,.43-.2,.5-.22,.42-.19,.5-.23,.42-.19,.49-.22,.36-.17s.02-.02,.04,0c0,0,0,0,0,0,0,.01,0,.03,0,.04,0,1.27,0,2.53,0,3.8,0,.02,0,.04,0,.05-.11-.07-.23-.13-.34-.2l-2.89-1.71-.51-.3h0Z"/><path id="Path_15-6" data-name="Path 15" class="cls-5" d="M82.23,16.91v-3.88s0-.02,0-.03c0-.01,0-.03,0-.04,0-1.47,0-2.93,0-4.4,0-.02,0-.04,.01-.05,.08,.13,.16,.27,.24,.4l3.46,5.75s.01,.03,.02,.04c-.02,0-.03,0-.04,0l-.28-.13-.56-.26-.56-.25c-.19-.09-.38-.17-.57-.26l-.55-.25-.57-.26-.55-.25h-.02s-.02-.01-.02,0v.03c0,1.26,0,2.51,0,3.77,0,.02,0,.04,0,.06,0,0,0,0,0,0h0Z"/><path id="Path_16-6" data-name="Path 16" class="cls-5" d="M82.23,16.91v-.93c0-.98,0-1.95,0-2.93,0-.04,0-.04,.04-.02l.65,.29c.14,.06,.28,.13,.43,.19l.62,.28,.35,.16,.51,.23,.35,.16,.5,.23,.27,.12s0,0,.01,0c0,.02-.01,.02-.02,.02l-1.87,1.11-1.79,1.05s-.03,.02-.05,.02h0Z"/><path id="Path_17-6" data-name="Path 17" class="cls-5" d="M82.23,18.05l.78-.46,2.21-1.31,.7-.41s.01-.01,.03-.01c0,.01,0,.02-.01,.02-1.23,1.73-2.46,3.47-3.69,5.2,0,0,0,.03-.03,.03,0-.02,0-.03,0-.05,0-.98,0-1.97,0-2.95,0-.02,0-.04,.02-.05h0Z"/><path id="Path_18-6" data-name="Path 18" class="cls-6" d="M82.23,18.05s0,.03,0,.04c0,.99,0,1.98,0,2.97v.04c-.05-.06-.1-.13-.15-.2-.43-.6-.85-1.2-1.28-1.8l-1.27-1.79-1.01-1.43-.02-.03s.04,.02,.05,.03l2.2,1.3,1.46,.86s.02,0,.02,.01h0Z"/><path id="Path_19-6" data-name="Path 19" class="cls-6" d="M82.24,8.51s0,.02,0,.04v4.41s0,.03,0,.04h0s-.01-.02,0-.03v-.04c0-1.45,0-2.91,0-4.36,0-.02,0-.05,.01-.07h0s0,.01,0,.01h0Z"/><path id="Path_20-6" data-name="Path 20" class="cls-6" d="M82.23,8.5c0,1.5,0,2.99,0,4.49h0c-.18,.09-.35,.17-.53,.25-.19,.08-.37,.17-.56,.25l-.96,.44-.67,.31-1,.45s0,0-.01,0c.06-.09,.11-.19,.17-.28l1.43-2.37,1.83-3.03,.3-.5s0-.01,.01-.02h0Z"/></g><g><path id="Path_14-7" data-name="Path 14" class="cls-6" d="M145.04,43.39s0,0,0,0c.03-.02,.05-.03,.08-.04l.49-.22,.43-.2,.5-.22,.42-.19,.5-.23,.42-.19,.49-.22,.36-.17s.02-.02,.04,0c0,0,0,0,0,0,0,.01,0,.03,0,.04,0,1.27,0,2.53,0,3.8,0,.02,0,.04,0,.05-.11-.07-.23-.13-.34-.2l-2.89-1.71-.51-.3h0Z"/><path id="Path_15-7" data-name="Path 15" class="cls-5" d="M148.78,45.6v-3.88s0-.02,0-.03c0-.01,0-.03,0-.04,0-1.47,0-2.93,0-4.4,0-.02,0-.04,.01-.05,.08,.13,.16,.27,.24,.4l3.46,5.75s.01,.03,.02,.04c-.02,0-.03,0-.04,0l-.28-.13-.56-.26-.56-.25c-.19-.09-.38-.17-.57-.26l-.55-.25-.57-.26-.55-.25h-.02s-.02-.01-.02,0v.03c0,1.26,0,2.51,0,3.77,0,.02,0,.04,0,.06,0,0,0,0,0,0h0Z"/><path id="Path_16-7" data-name="Path 16" class="cls-5" d="M148.79,45.6v-.93c0-.98,0-1.95,0-2.93,0-.04,0-.04,.04-.02l.65,.29c.14,.06,.28,.13,.43,.19l.62,.28,.35,.16,.51,.23,.35,.16,.5,.23,.27,.12s0,0,.01,0c0,.02-.01,.02-.02,.02l-1.87,1.11-1.79,1.05s-.03,.02-.05,.02h0Z"/><path id="Path_17-7" data-name="Path 17" class="cls-5" d="M148.78,46.74l.78-.46,2.21-1.31,.7-.41s.01-.01,.03-.01c0,.01,0,.02-.01,.02-1.23,1.73-2.46,3.47-3.69,5.2,0,0,0,.03-.03,.03,0-.02,0-.03,0-.05,0-.98,0-1.97,0-2.95,0-.02,0-.04,.02-.05h0Z"/><path id="Path_18-7" data-name="Path 18" class="cls-6" d="M148.78,46.74s0,.03,0,.04v2.97s0,.03,0,.04c-.05-.06-.1-.13-.15-.2-.43-.6-.85-1.2-1.28-1.8l-1.27-1.79-1.01-1.43-.02-.03s.04,.02,.05,.03l2.2,1.3,1.46,.86s.02,0,.02,.01h0Z"/><path id="Path_19-7" data-name="Path 19" class="cls-6" d="M148.79,37.21s0,.02,0,.04c0,1.47,0,2.94,0,4.41,0,.01,0,.03,0,.04h0s-.01-.02,0-.03v-.04c0-1.45,0-2.91,0-4.36,0-.02,0-.05,.01-.07h0s0,.01,0,.01h0Z"/><path id="Path_20-7" data-name="Path 20" class="cls-6" d="M148.78,37.2c0,1.5,0,2.99,0,4.49h0c-.18,.09-.35,.17-.53,.25-.19,.08-.37,.17-.56,.25l-.96,.44-.67,.31-1,.45s0,0-.01,0c.06-.09,.11-.19,.17-.28l1.43-2.37,1.83-3.03,.3-.5s0-.01,.01-.02h0Z"/></g><line class="cls-2" x1="13.85" y1="41.35" x2="21.63" y2="41.35"/><line class="cls-1" x1="5.37" y1="48.02" x2="33.19" y2="48.02"/><line class="cls-2" x1="30.91" y1="53.38" x2="15.35" y2="53.38"/><circle class="cls-2" cx="5.32" cy="37.24" r="2.26"/><path class="cls-7" d="M175.96,26.23h-4.97c1.57,0,2.85-1.12,2.85-2.51s-1.27-2.51-2.85-2.51h-14.27c-1.57,0-2.85,1.12-2.85,2.51h-4.38c-1.57,0-2.85,1.12-2.85,2.51s1.27,2.51,2.85,2.51h9.35c0,1.39,1.27,2.51,2.85,2.51h14.27c1.57,0,2.85-1.12,2.85-2.51s-1.27-2.51-2.85-2.51Z"/><line class="cls-2" x1="167.28" y1="24.44" x2="170.85" y2="24.44"/><line class="cls-1" x1="162.14" y1="15.23" x2="187.93" y2="15.23"/><line class="cls-2" x1="175.44" y1="24.42" x2="189.86" y2="24.42"/><g><line class="cls-3" x1="149.24" y1="12.87" x2="149.24" y2="15.28"/><line class="cls-3" x1="149.24" y1="17.04" x2="149.24" y2="19.44"/><line class="cls-3" x1="145.96" y1="16.16" x2="148.36" y2="16.16"/><line class="cls-3" x1="150.13" y1="16.16" x2="152.53" y2="16.16"/></g><rect class="cls-7" x="3.06" y="13.95" width="19.82" height="5.65" rx="2.83" ry="2.83" transform="translate(25.95 33.56) rotate(180)"/><rect class="cls-7" x="8.68" y="18.04" width="31.54" height="8.99" rx="3.79" ry="3.79" transform="translate(48.9 45.07) rotate(180)"/><g><line class="cls-3" x1="21.11" y1="15.52" x2="22.74" y2="17.15"/><line class="cls-3" x1="23.93" y1="18.34" x2="25.56" y2="19.97"/><line class="cls-3" x1="21.11" y1="19.97" x2="22.74" y2="18.34"/><line class="cls-3" x1="23.93" y1="17.15" x2="25.56" y2="15.52"/></g><line class="cls-2" x1="33.35" y1="89.86" x2="40.73" y2="89.86"/><line class="cls-2" x1="27.75" y1="89.86" x2="29.61" y2="89.86"/><line class="cls-1" x1="2.66" y1="94.26" x2="29.04" y2="94.26"/><g><line class="cls-3" x1="16.86" y1="84.04" x2="18.6" y2="85.54"/><line class="cls-3" x1="19.87" y1="86.63" x2="21.61" y2="88.13"/><line class="cls-3" x1="16.86" y1="88.13" x2="18.6" y2="86.63"/><line class="cls-3" x1="19.87" y1="85.54" x2="21.61" y2="84.04"/></g><line class="cls-2" x1="164.96" y1="69.46" x2="168.58" y2="69.46"/><line class="cls-1" x1="149.78" y1="61.33" x2="176.03" y2="61.33"/><line class="cls-2" x1="173.26" y1="69.44" x2="187.94" y2="69.44"/><rect class="cls-4" x="145.83" y="90.39" width="21.59" height="6.16" rx="2.97" ry="2.97" transform="translate(313.24 186.94) rotate(-180)"/><rect class="cls-4" x="152.23" y="81.75" width="35.36" height="10.08" rx="4.1" ry="4.1" transform="translate(339.82 173.58) rotate(-180)"/><g><path id="Path_14-8" data-name="Path 14" class="cls-6" d="M73.63,53.51s.02,0,.03,0c.14-.1,.29-.18,.45-.23l2.63-1.2,2.31-1.05,2.66-1.21,2.25-1.02,2.67-1.22,2.27-1.03,2.65-1.2,1.95-.89c.07-.03,.13-.1,.22-.05,.01,.02,.02,.03,.02,.05,0,.07,0,.15,0,.22,0,6.8,0,13.6,0,20.41,.02,.1,0,.2-.05,.29-.6-.35-1.21-.71-1.81-1.06l-15.51-9.17-2.75-1.62v-.04Z"/><path id="Path_15-8" data-name="Path 15" class="cls-5" d="M93.7,65.39v-20.84s0-.1,0-.14c-.02-.07-.02-.14-.02-.21,0-7.87,0-15.75,0-23.62,0-.09-.05-.2,.07-.27,.43,.71,.87,1.43,1.3,2.14l18.59,30.85c.04,.07,.08,.14,.12,.21-.09,.05-.17-.01-.24-.05l-1.53-.69-3.01-1.37-2.99-1.36c-1.01-.46-2.02-.92-3.04-1.38l-2.95-1.34-3.05-1.38-2.95-1.34-.09-.04c-.08-.04-.13-.02-.13,.08v.18c0,6.75,0,13.5,0,20.26,.02,.11,0,.21-.04,.31,0,.02,0,.03-.03,.02h0Z"/><path id="Path_16-8" data-name="Path 16" class="cls-5" d="M93.73,65.37c0-1.67,0-3.34,0-5.01,0-5.24,0-10.48,0-15.72,0-.23,0-.23,.22-.13l3.47,1.57c.76,.35,1.53,.7,2.29,1.05l3.32,1.5,1.9,.87,2.73,1.24,1.9,.87,2.67,1.21,1.46,.67s.05,.02,.07,.03c0,.09-.08,.09-.13,.12l-10.06,5.95-9.59,5.66c-.07,.06-.16,.1-.25,.12h0Z"/><path id="Path_17-8" data-name="Path 17" class="cls-5" d="M93.72,71.5l4.2-2.48,11.89-7.02,3.76-2.22s.08-.07,.14-.06c0,.06-.05,.09-.08,.13-6.6,9.3-13.21,18.61-19.82,27.91-.04,.05-.04,.14-.14,.14-.04-.08-.05-.17-.05-.26,0-5.29,0-10.57,0-15.86,0-.1-.02-.21,.08-.28h0Z"/><path id="Path_18-8" data-name="Path 18" class="cls-6" d="M93.72,71.5c-.03,.07-.04,.16-.03,.24,0,5.31,0,10.63,0,15.94v.22c-.28-.35-.53-.72-.78-1.08-2.29-3.22-4.57-6.44-6.86-9.66l-6.84-9.64-5.45-7.68-.12-.17c.12,.06,.2,.11,.28,.15l11.82,6.98,7.86,4.64s.09,.04,.13,.06h0Z"/><path id="Path_19-8" data-name="Path 19" class="cls-6" d="M93.75,20.31c-.05,.06-.03,.13-.03,.2,0,7.89,0,15.79,0,23.68,0,.07,.03,.15-.03,.22h0s-.06-.1-.05-.16v-.2c0-7.8,0-15.61,0-23.41-.01-.13,0-.27,.05-.39h.03s.03,.07,.03,.07h0Z"/><path id="Path_20-8" data-name="Path 20" class="cls-6" d="M93.7,20.25c0,8.03,0,16.06,0,24.09v.06c-.94,.43-1.89,.86-2.83,1.3-1,.45-1.99,.91-2.99,1.36l-5.17,2.35-3.62,1.65-5.36,2.44s-.05,.02-.08,.02c.3-.5,.59-1.01,.9-1.51l7.67-12.73,9.8-16.26,1.61-2.68s.04-.06,.06-.09h0Z"/></g><g><path id="Path_14-9" data-name="Path 14" class="cls-6" d="M125.67,63.77s0,0,.01,0c.05-.04,.11-.07,.17-.09l.98-.44,.86-.39,.99-.45,.84-.38,.99-.45,.84-.38,.98-.45,.72-.33s.05-.04,.08-.02c0,0,0,.01,0,.02,0,.03,0,.06,0,.08,0,2.53,0,5.06,0,7.59,0,.04,0,.08-.02,.11-.22-.13-.45-.26-.67-.39l-5.77-3.41-1.02-.6h0Z"/><path id="Path_15-9" data-name="Path 15" class="cls-5" d="M133.13,68.19v-7.75s0-.04,0-.05c0-.03,0-.05,0-.08,0-2.93,0-5.85,0-8.78,0-.03-.02-.07,.03-.1,.16,.27,.32,.53,.48,.8l6.91,11.47s.03,.05,.04,.08c-.03,.02-.06,0-.09-.02l-.57-.26-1.12-.51-1.11-.51c-.38-.17-.75-.34-1.13-.51l-1.1-.5-1.14-.51-1.1-.5-.03-.02s-.05,0-.05,.03v.07c0,2.51,0,5.02,0,7.53,0,.04,0,.08-.02,.12,0,0,0,.01-.01,0h0Z"/><path id="Path_16-9" data-name="Path 16" class="cls-5" d="M133.14,68.18c0-.62,0-1.24,0-1.86,0-1.95,0-3.9,0-5.84,0-.08,0-.08,.08-.05l1.29,.58c.28,.13,.57,.26,.85,.39l1.24,.56,.71,.32,1.01,.46,.71,.32,.99,.45,.54,.25s.02,0,.03,0c0,.03-.03,.03-.05,.04l-3.74,2.21-3.56,2.11s-.06,.04-.09,.05h0Z"/><path id="Path_17-9" data-name="Path 17" class="cls-5" d="M133.14,70.46l1.56-.92,4.42-2.61,1.4-.83s.03-.03,.05-.02c0,.02-.02,.03-.03,.05-2.46,3.46-4.91,6.92-7.37,10.38-.01,.02-.02,.05-.05,.05-.01-.03-.02-.06-.02-.1,0-1.97,0-3.93,0-5.9,0-.04,0-.08,.03-.1h0Z"/><path id="Path_18-9" data-name="Path 18" class="cls-6" d="M133.14,70.46s-.01,.06-.01,.09c0,1.98,0,3.95,0,5.93v.08c-.1-.13-.2-.27-.29-.4-.85-1.2-1.7-2.39-2.55-3.59l-2.54-3.58-2.03-2.86-.04-.06s.07,.04,.1,.06l4.39,2.6,2.92,1.73s.03,.02,.05,.02h0Z"/><path id="Path_19-9" data-name="Path 19" class="cls-6" d="M133.15,51.43s0,.05,0,.07c0,2.93,0,5.87,0,8.8,0,.03,0,.06-.01,.08h0s-.02-.04-.02-.06v-.07c0-2.9,0-5.8,0-8.7,0-.05,0-.1,.02-.15h.01s0,.03,0,.03h0Z"/><path id="Path_20-9" data-name="Path 20" class="cls-6" d="M133.13,51.4c0,2.99,0,5.97,0,8.96v.02c-.35,.16-.7,.32-1.05,.48-.37,.17-.74,.34-1.11,.5l-1.92,.87-1.34,.61-1.99,.91s-.02,0-.03,0c.11-.19,.22-.37,.33-.56l2.85-4.73,3.65-6.04,.6-1s.02-.02,.02-.03h0Z"/></g></svg>