<svg width="1920" height="1080" viewBox="0 0 1920 1080" fill="none" xmlns="http://www.w3.org/2000/svg"><g clip-path="url(#clip0_732_1510)"><path d="M420.75 305.748H630.147" stroke="#003B2F" stroke-width="2.24594" stroke-linecap="round" stroke-linejoin="round"/><path d="M438.118 330.454H472.705" stroke="#003B2F" stroke-width="2.24594" stroke-linecap="round" stroke-linejoin="round"/><path d="M438.118 355.084H472.705" stroke="#003B2F" stroke-width="2.24594" stroke-linecap="round" stroke-linejoin="round"/><path d="M438.118 379.79H472.705" stroke="#003B2F" stroke-width="2.24594" stroke-linecap="round" stroke-linejoin="round"/><path d="M540.459 330.454H646.692" stroke="#003B2F" stroke-width="2.24594" stroke-linecap="round" stroke-linejoin="round"/><path d="M540.459 355.084H646.692" stroke="#003B2F" stroke-width="2.24594" stroke-linecap="round" stroke-linejoin="round"/><path d="M540.459 379.79H646.692" stroke="#003B2F" stroke-width="2.24594" stroke-linecap="round" stroke-linejoin="round"/><path d="M487.679 330.454H512.085" stroke="#003B2F" stroke-width="2.24594" stroke-linecap="round" stroke-linejoin="round"/><path d="M487.679 355.084H512.085" stroke="#003B2F" stroke-width="2.24594" stroke-linecap="round" stroke-linejoin="round"/><path d="M487.679 379.79H512.085" stroke="#003B2F" stroke-width="2.24594" stroke-linecap="round" stroke-linejoin="round"/><path d="M522.64 330.454H529.079" stroke="#003B2F" stroke-width="2.24594" stroke-linecap="round" stroke-linejoin="round"/><path d="M522.64 355.084H529.079" stroke="#003B2F" stroke-width="2.24594" stroke-linecap="round" stroke-linejoin="round"/><path d="M522.64 379.79H529.079" stroke="#003B2F" stroke-width="2.24594" stroke-linecap="round" stroke-linejoin="round"/><path d="M421.573 330.454H428.086" stroke="#003B2F" stroke-width="2.24594" stroke-linecap="round" stroke-linejoin="round"/><path d="M421.573 355.084H428.086" stroke="#003B2F" stroke-width="2.24594" stroke-linecap="round" stroke-linejoin="round"/><path d="M421.573 379.79H428.086" stroke="#003B2F" stroke-width="2.24594" stroke-linecap="round" stroke-linejoin="round"/><path d="M438.118 429.125H491.646" stroke="#003B2F" stroke-width="2.24594" stroke-linecap="round" stroke-linejoin="round"/><path d="M565.612 429.125H646.691" stroke="#003B2F" stroke-width="2.24594" stroke-linecap="round" stroke-linejoin="round"/><path d="M506.545 429.125H537.239" stroke="#003B2F" stroke-width="2.24594" stroke-linecap="round" stroke-linejoin="round"/><path d="M547.795 429.125H554.309" stroke="#003B2F" stroke-width="2.24594" stroke-linecap="round" stroke-linejoin="round"/><path d="M649.835 478.461H900.931" stroke="#003B2F" stroke-width="2.24594" stroke-linecap="round" stroke-linejoin="round"/><path d="M509.689 478.461H630.146" stroke="#003B2F" stroke-width="2.24594" stroke-linecap="round" stroke-linejoin="round"/><path d="M741.17 429.125H822.248" stroke="#003B2F" stroke-width="2.24594" stroke-linecap="round" stroke-linejoin="round"/><path d="M669.526 429.125H712.797" stroke="#003B2F" stroke-width="2.24594" stroke-linecap="round" stroke-linejoin="round"/><path d="M723.353 429.125H729.866" stroke="#003B2F" stroke-width="2.24594" stroke-linecap="round" stroke-linejoin="round"/><path d="M830.41 429.125H836.923" stroke="#003B2F" stroke-width="2.24594" stroke-linecap="round" stroke-linejoin="round"/><path d="M421.573 429.125H428.086" stroke="#003B2F" stroke-width="2.24594" stroke-linecap="round" stroke-linejoin="round"/><path d="M438.118 527.797H491.646" stroke="#003B2F" stroke-width="2.24594" stroke-linecap="round" stroke-linejoin="round"/><path d="M421.573 527.797H428.086" stroke="#003B2F" stroke-width="2.24594" stroke-linecap="round" stroke-linejoin="round"/><path d="M501.828 527.797H508.341" stroke="#003B2F" stroke-width="2.24594" stroke-linecap="round" stroke-linejoin="round"/><path d="M397.167 626.469H450.695" stroke="#003B2F" stroke-width="2.24594" stroke-linecap="round" stroke-linejoin="round"/><path d="M380.622 626.469H387.135" stroke="#003B2F" stroke-width="2.24594" stroke-linecap="round" stroke-linejoin="round"/><path d="M460.877 626.469H467.39" stroke="#003B2F" stroke-width="2.24594" stroke-linecap="round" stroke-linejoin="round"/><path d="M466.417 503.092H472.93" stroke="#003B2F" stroke-width="2.24594" stroke-linecap="round" stroke-linejoin="round"/><path d="M466.417 453.831H497.935" stroke="#003B2F" stroke-width="2.24594" stroke-linecap="round" stroke-linejoin="round"/><path d="M509.689 453.831H632.467" stroke="#003B2F" stroke-width="2.24594" stroke-linecap="round" stroke-linejoin="round"/><path d="M721.481 330.454H827.789" stroke="#003B2F" stroke-width="2.24594" stroke-linecap="round" stroke-linejoin="round"/><path d="M721.481 355.084H827.789" stroke="#003B2F" stroke-width="2.24594" stroke-linecap="round" stroke-linejoin="round"/><path d="M721.481 379.79H827.789" stroke="#003B2F" stroke-width="2.24594" stroke-linecap="round" stroke-linejoin="round"/><path d="M833.253 330.454H1019.07" stroke="#003B2F" stroke-width="2.24594" stroke-linecap="round" stroke-linejoin="round"/><path d="M833.253 355.084H1087.57" stroke="#003B2F" stroke-width="2.24594" stroke-linecap="round" stroke-linejoin="round"/><path d="M833.253 379.79H1133.16" stroke="#003B2F" stroke-width="2.24594" stroke-linecap="round" stroke-linejoin="round"/><path d="M668.776 330.454H693.182" stroke="#003B2F" stroke-width="2.24594" stroke-linecap="round" stroke-linejoin="round"/><path d="M668.776 355.084H693.182" stroke="#003B2F" stroke-width="2.24594" stroke-linecap="round" stroke-linejoin="round"/><path d="M668.776 379.79H693.182" stroke="#003B2F" stroke-width="2.24594" stroke-linecap="round" stroke-linejoin="round"/><path d="M703.662 330.454H710.176" stroke="#003B2F" stroke-width="2.24594" stroke-linecap="round" stroke-linejoin="round"/><path d="M703.662 355.084H710.176" stroke="#003B2F" stroke-width="2.24594" stroke-linecap="round" stroke-linejoin="round"/><path d="M703.662 379.79H710.176" stroke="#003B2F" stroke-width="2.24594" stroke-linecap="round" stroke-linejoin="round"/><path d="M1043.47 330.454H1049.99" stroke="#003B2F" stroke-width="2.24594" stroke-linecap="round" stroke-linejoin="round"/><path d="M1105.91 355.084H1112.43" stroke="#003B2F" stroke-width="2.24594" stroke-linecap="round" stroke-linejoin="round"/><path d="M1148.43 379.79H1154.95" stroke="#003B2F" stroke-width="2.24594" stroke-linecap="round" stroke-linejoin="round"/><path d="M420.75 404.42H630.147" stroke="#003B2F" stroke-width="2.24594" stroke-linecap="round" stroke-linejoin="round"/><path d="M395.595 678.949H430.182" stroke="#003B2F" stroke-width="2.24594" stroke-linecap="round" stroke-linejoin="round"/><path d="M476.674 728.285H511.336" stroke="#003B2F" stroke-width="2.24594" stroke-linecap="round" stroke-linejoin="round"/><path d="M579.013 728.285H808.848" stroke="#003B2F" stroke-width="2.24594" stroke-linecap="round" stroke-linejoin="round"/><path d="M423.145 703.579H674.915" stroke="#003B2F" stroke-width="2.24594" stroke-linecap="round" stroke-linejoin="round"/><path d="M526.233 728.285H550.639" stroke="#003B2F" stroke-width="2.24594" stroke-linecap="round" stroke-linejoin="round"/><path d="M561.197 728.285H567.71" stroke="#003B2F" stroke-width="2.24594" stroke-linecap="round" stroke-linejoin="round"/><path d="M379.05 678.949H385.563" stroke="#003B2F" stroke-width="2.24594" stroke-linecap="round" stroke-linejoin="round"/><path d="M438.118 678.949H444.556" stroke="#003B2F" stroke-width="2.24594" stroke-linecap="round" stroke-linejoin="round"/><path d="M523.09 752.915H538.886" stroke="#003B2F" stroke-width="2.24594" stroke-linecap="round" stroke-linejoin="round"/><path d="M506.545 752.915H513.058" stroke="#003B2F" stroke-width="2.24594" stroke-linecap="round" stroke-linejoin="round"/><path d="M546.746 752.915H553.185" stroke="#003B2F" stroke-width="2.24594" stroke-linecap="round" stroke-linejoin="round"/><path d="M567.184 802.251H582.906" stroke="#003B2F" stroke-width="2.24594" stroke-linecap="round" stroke-linejoin="round"/><path d="M550.639 802.251H557.153" stroke="#003B2F" stroke-width="2.24594" stroke-linecap="round" stroke-linejoin="round"/><path d="M590.843 802.251H597.281" stroke="#003B2F" stroke-width="2.24594" stroke-linecap="round" stroke-linejoin="round"/><path d="M460.129 728.285H466.642" stroke="#003B2F" stroke-width="2.24594" stroke-linecap="round" stroke-linejoin="round"/><path d="M519.047 777.62H683.974" stroke="#003B2F" stroke-width="2.24594" stroke-linecap="round" stroke-linejoin="round"/><path d="M816.708 728.285H823.222" stroke="#003B2F" stroke-width="2.24594" stroke-linecap="round" stroke-linejoin="round"/><path d="M420.75 552.428H708.905" stroke="#003B2F" stroke-width="2.24594" stroke-linecap="round" stroke-linejoin="round"/><path d="M420.75 577.133H847.479" stroke="#003B2F" stroke-width="2.24594" stroke-linecap="round" stroke-linejoin="round"/><path d="M420.75 601.763H565.614" stroke="#003B2F" stroke-width="2.24594" stroke-linecap="round" stroke-linejoin="round"/><path d="M305.832 305.748H321.554" stroke="#003B2F" stroke-width="2.24594" stroke-linecap="round" stroke-linejoin="round"/><path d="M305.832 330.454H321.554" stroke="#003B2F" stroke-width="2.24594" stroke-linecap="round" stroke-linejoin="round"/><path d="M305.832 355.084H321.554" stroke="#003B2F" stroke-width="2.24594" stroke-linecap="round" stroke-linejoin="round"/><path d="M305.832 379.79H321.554" stroke="#003B2F" stroke-width="2.24594" stroke-linecap="round" stroke-linejoin="round"/><path d="M305.832 404.42H321.554" stroke="#003B2F" stroke-width="2.24594" stroke-linecap="round" stroke-linejoin="round"/><path d="M305.832 429.125H321.554" stroke="#003B2F" stroke-width="2.24594" stroke-linecap="round" stroke-linejoin="round"/><path d="M305.832 453.831H321.554" stroke="#003B2F" stroke-width="2.24594" stroke-linecap="round" stroke-linejoin="round"/><path d="M305.832 478.461H321.554" stroke="#003B2F" stroke-width="2.24594" stroke-linecap="round" stroke-linejoin="round"/><path d="M305.832 503.092H321.554" stroke="#003B2F" stroke-width="2.24594" stroke-linecap="round" stroke-linejoin="round"/><path d="M305.832 527.797H321.554" stroke="#003B2F" stroke-width="2.24594" stroke-linecap="round" stroke-linejoin="round"/><path d="M305.832 552.428H321.554" stroke="#003B2F" stroke-width="2.24594" stroke-linecap="round" stroke-linejoin="round"/><path d="M305.832 577.133H321.554" stroke="#003B2F" stroke-width="2.24594" stroke-linecap="round" stroke-linejoin="round"/><path d="M305.832 601.763H321.554" stroke="#003B2F" stroke-width="2.24594" stroke-linecap="round" stroke-linejoin="round"/><path d="M305.832 626.469H321.554" stroke="#003B2F" stroke-width="2.24594" stroke-linecap="round" stroke-linejoin="round"/><path d="M305.832 651.099H321.554" stroke="#003B2F" stroke-width="2.24594" stroke-linecap="round" stroke-linejoin="round"/><path d="M305.832 675.805H321.554" stroke="#003B2F" stroke-width="2.24594" stroke-linecap="round" stroke-linejoin="round"/><path d="M305.832 700.435H321.554" stroke="#003B2F" stroke-width="2.24594" stroke-linecap="round" stroke-linejoin="round"/><path d="M493.967 822.839H1442.88V632.383" stroke="#003B2F" stroke-width="2.24594" stroke-linecap="round" stroke-linejoin="round"/><path d="M352.323 468.504V691.227" stroke="#003B2F" stroke-width="2.24594" stroke-linecap="round" stroke-linejoin="round"/><path d="M1442.88 300.283V209.547C1442.88 198.917 1435.54 190.307 1426.48 190.307H368.718C359.66 190.307 352.323 198.917 352.323 209.547V254.391" stroke="#003B2F" stroke-width="2.24594" stroke-linecap="round" stroke-linejoin="round"/><path d="M410.268 233.654C410.268 239.418 405.551 244.135 399.787 244.135C394.022 244.135 389.306 239.418 389.306 233.654C389.306 227.889 394.022 223.173 399.787 223.173C405.551 223.173 410.268 227.889 410.268 233.654Z" stroke="#003B2F" stroke-width="2.24594" stroke-linecap="round" stroke-linejoin="round"/><path d="M441.038 233.654C441.038 239.418 436.322 244.135 430.557 244.135C424.792 244.135 420.076 239.418 420.076 233.654C420.076 227.889 424.792 223.173 430.557 223.173C436.322 223.173 441.038 227.889 441.038 233.654Z" stroke="#003B2F" stroke-width="2.24594" stroke-linecap="round" stroke-linejoin="round"/><path d="M471.881 233.654C471.881 239.418 467.165 244.135 461.4 244.135C455.636 244.135 450.919 239.418 450.919 233.654C450.919 227.889 455.636 223.173 461.4 223.173C467.165 223.173 471.881 227.889 471.881 233.654Z" stroke="#003B2F" stroke-width="2.24594" stroke-linecap="round" stroke-linejoin="round"/><path d="M1293.9 233.654C1293.9 241.664 1287.38 248.178 1279.37 248.178C1271.36 248.178 1264.85 241.664 1264.85 233.654C1264.85 225.643 1271.36 219.13 1279.37 219.13C1287.38 219.13 1293.9 225.643 1293.9 233.654Z" stroke="#003B2F" stroke-width="2.24594" stroke-linecap="round" stroke-linejoin="round"/><path d="M1286.48 230.06L1279.3 237.247L1272.11 230.06" stroke="#003B2F" stroke-width="2.24594" stroke-linecap="round" stroke-linejoin="round"/><path d="M555.282 220.253L541.881 233.654L555.282 247.129" stroke="#003B2F" stroke-width="2.24594" stroke-linecap="round" stroke-linejoin="round"/><path d="M581.56 220.253L595.035 233.654L581.56 247.129" stroke="#003B2F" stroke-width="2.24594" stroke-linecap="round" stroke-linejoin="round"/><path d="M1327.36 221.676V245.707" stroke="#003B2F" stroke-width="2.24594" stroke-linecap="round" stroke-linejoin="round"/><path d="M1339.34 233.654H1315.31" stroke="#003B2F" stroke-width="2.24594" stroke-linecap="round" stroke-linejoin="round"/><path d="M1368.46 223.921V227.665H1364.72V223.921H1368.46ZM1371.46 220.927H1361.72V230.659H1371.46V220.927Z" fill="#003B2F"/><path d="M1368.46 239.718V243.461H1364.72V239.718H1368.46ZM1371.46 236.723H1361.72V246.456H1371.46V236.723Z" fill="#003B2F"/><path d="M1384.41 223.921V227.665H1380.67V223.921H1384.41ZM1387.4 220.927H1377.67V230.659H1387.4V220.927Z" fill="#003B2F"/><path d="M1384.41 239.718V243.461H1380.67V239.718H1384.41ZM1387.4 236.723H1377.67V246.456H1387.4V236.723Z" fill="#003B2F"/><path d="M251.63 740.188V872.025C251.63 881.757 259.566 889.693 269.298 889.693H436.097C445.829 889.693 453.765 881.757 453.765 872.025V832.571L462.599 823.737L480.267 806.069L462.599 788.401L453.765 779.567V740.188C453.765 730.456 445.829 722.52 436.097 722.52H269.298C259.566 722.52 251.63 730.456 251.63 740.188Z" fill="#03FC9D"/><path d="M382.269 289.054H270.347V439.981H382.269V289.054Z" fill="#E6E8EA"/><path d="M294.978 363.918H283.972V389.971H294.978V363.918Z" fill="#003B2F"/><path d="M318.11 318.775H307.104V389.971H318.11V318.775Z" fill="#03FC9D"/><path d="M341.318 352.838H330.313V389.971H341.318V352.838Z" fill="#003B2F"/><path d="M364.452 329.331H353.447V389.971H364.452V329.331Z" fill="#03FC9D"/><path d="M1668.37 635.228H1556.45V786.155H1668.37V635.228Z" fill="#E6E8EA"/><path d="M1660.66 626.618H1548.74V777.546H1660.66V626.618Z" stroke="#003B2F" stroke-width="2.24594" stroke-linecap="round" stroke-linejoin="round"/><path d="M1616.64 710.617V705.226H1579.51V710.617H1616.64Z" fill="#003B2F"/><path d="M1640.15 722.071V716.681H1579.5V722.071H1640.15Z" fill="#03FC9D"/><path d="M1616.64 675.355V669.965H1579.51V675.355H1616.64Z" fill="#003B2F"/><path d="M1640.15 686.81V681.419H1579.5V686.81H1640.15Z" fill="#03FC9D"/><path d="M1616.64 747.076V741.685H1579.51V747.076H1616.64Z" fill="#003B2F"/><path d="M1640.15 758.53V753.14H1579.5V758.53H1640.15Z" fill="#03FC9D"/><path d="M1608.63 341.384H1215.44V598.469H1608.63V341.384Z" fill="#E6E8EA"/><path d="M1598.07 330.454H1204.88V587.539H1598.07V330.454Z" stroke="#003B2F" stroke-width="2.24594" stroke-linecap="round" stroke-linejoin="round"/><path d="M1443.85 412.955H1380.14V579.678H1443.85V412.955Z" fill="#03FC9D"/><path d="M1315.53 412.955H1251.82V579.678H1315.53V412.955Z" fill="#03FC9D"/><path d="M1571.42 412.955H1507.71V579.678H1571.42V412.955Z" fill="#03FC9D"/><path d="M1252.05 387.426H1332.53" stroke="#003B2F" stroke-width="2.24594" stroke-linecap="round" stroke-linejoin="round"/><path d="M1252.05 399.404H1295.47" stroke="#003B2F" stroke-width="2.24594" stroke-linecap="round" stroke-linejoin="round"/><path d="M1304.08 399.404H1324.22" stroke="#003B2F" stroke-width="2.24594" stroke-linecap="round" stroke-linejoin="round"/><path d="M1252.05 559.24H1571.87" stroke="#003B2F" stroke-width="2.24594" stroke-linecap="round" stroke-linejoin="round"/><path d="M1252.12 566.502V559.24" stroke="#003B2F" stroke-width="2.24594" stroke-linecap="round" stroke-linejoin="round"/><path d="M1316.06 566.502V559.24" stroke="#003B2F" stroke-width="2.24594" stroke-linecap="round" stroke-linejoin="round"/><path d="M1379.99 566.502V559.24" stroke="#003B2F" stroke-width="2.24594" stroke-linecap="round" stroke-linejoin="round"/><path d="M1444 566.502V559.24" stroke="#003B2F" stroke-width="2.24594" stroke-linecap="round" stroke-linejoin="round"/><path d="M1507.93 566.502V559.24" stroke="#003B2F" stroke-width="2.24594" stroke-linecap="round" stroke-linejoin="round"/><path d="M1571.94 566.502V559.24" stroke="#003B2F" stroke-width="2.24594" stroke-linecap="round" stroke-linejoin="round"/><path d="M1257.14 523.455C1257.14 526.15 1254.97 528.321 1252.27 528.321C1249.58 528.321 1247.41 526.15 1247.41 523.455C1247.41 520.76 1249.58 518.589 1252.27 518.589C1254.97 518.589 1257.14 520.76 1257.14 523.455Z" fill="#003B2F"/><path d="M1385.38 511.477C1385.38 514.172 1383.21 516.343 1380.51 516.343C1377.82 516.343 1375.65 514.172 1375.65 511.477C1375.65 508.781 1377.82 506.61 1380.51 506.61C1383.21 506.61 1385.38 508.781 1385.38 511.477Z" fill="#003B2F"/><path d="M1512.2 478.461C1512.2 481.156 1510.03 483.327 1507.34 483.327C1504.64 483.327 1502.47 481.156 1502.47 478.461C1502.47 475.766 1504.64 473.595 1507.34 473.595C1510.03 473.595 1512.2 475.766 1512.2 478.461Z" fill="#003B2F"/><path d="M1574.79 415.5C1574.79 418.195 1572.62 420.366 1569.92 420.366C1567.23 420.366 1565.06 418.195 1565.06 415.5C1565.06 412.805 1567.23 410.634 1569.92 410.634C1572.62 410.634 1574.79 412.805 1574.79 415.5Z" fill="#003B2F"/><path d="M1252.57 523.455C1252.57 523.455 1297.94 431.895 1380.51 511.477C1463.09 591.058 1511.15 471.798 1511.15 471.798C1511.15 471.798 1535.48 416.548 1570 415.425" stroke="#003B2F" stroke-width="2.24594" stroke-linecap="round" stroke-linejoin="round"/><path d="M1249.43 573.24C1245.83 572.416 1242.09 571.668 1238.27 571.069C1242.09 571.743 1245.83 572.416 1249.35 573.24H1249.43Z" fill="white"/><path d="M1238.27 571.069C1170 559.09 1064.44 560.812 1064.44 560.812C1064.44 560.812 1004.84 543.593 951.765 543.144C898.686 542.695 910.141 575.561 910.141 575.561C910.141 575.561 909.841 595.25 957.755 609.4C957.755 609.4 985.155 605.806 1008.29 599.218C1030.3 592.929 1161.16 559.09 1238.27 571.069Z" fill="white"/><path d="M794.774 637.998C785.716 623.998 720.134 523.081 720.134 523.081L728.22 518.439C728.22 518.439 718.936 500.397 705.91 483.702C692.958 467.007 662.264 461.692 641.676 480.108L700.145 568.449C700.145 568.449 739.225 629.239 751.577 647.056C763.93 664.874 770.069 669.591 794.924 677.077C819.779 684.564 878.174 702.681 878.174 702.681L944.504 723.942C944.504 723.942 852.869 678.574 829.736 667.869C806.603 657.163 803.833 652.072 794.774 638.073V637.998Z" fill="white"/><path d="M1442.88 680.82C1359.18 626.319 1314.33 599.368 1279.3 582.299C1271.59 578.555 1261.26 575.71 1249.43 573.165C1221.2 567.625 1193.73 570.245 1150.16 581.325C1106.51 592.48 1046.17 612.469 1016.6 622.127C987.027 631.784 981.636 632.982 972.653 632.084C963.669 631.185 871.96 619.806 871.96 619.806L860.356 617.111C860.356 617.111 813.041 559.689 789.758 533.711C766.475 507.658 743.642 509.979 728.219 518.439L720.134 523.081C720.134 523.081 785.79 623.998 794.774 637.998C803.833 651.998 806.528 657.088 829.736 667.794C852.869 678.5 944.503 723.868 944.503 723.868C944.503 723.868 971.829 737.867 999.08 733.825C1026.33 729.782 1043.32 725.889 1121.33 717.28C1199.34 708.67 1258.86 739.14 1302.13 779.492C1310.74 787.577 1326.99 803.074 1347.35 822.764H1442.8V680.746L1442.88 680.82Z" fill="white"/><path d="M1324.22 822.839H1442.88V661.281" stroke="#003B2F" stroke-width="2.24594" stroke-linecap="round" stroke-linejoin="round"/><path d="M1293.9 233.654C1293.9 241.664 1287.38 248.178 1279.37 248.178C1271.36 248.178 1264.85 241.664 1264.85 233.654C1264.85 225.643 1271.36 219.13 1279.37 219.13C1287.38 219.13 1293.9 225.643 1293.9 233.654Z" stroke="#003B2F" stroke-width="2.24594" stroke-linecap="round" stroke-linejoin="round"/><path d="M1286.49 230.06L1279.3 237.247L1272.11 230.06" stroke="#003B2F" stroke-width="2.24594" stroke-linecap="round" stroke-linejoin="round"/><path d="M1016.52 622.201C1046.09 612.544 1106.44 592.555 1150.08 581.4C1193.65 570.245 1221.13 567.7 1249.35 573.24C1245.76 572.491 1242.09 571.743 1238.27 571.069C1161.16 559.09 1030.3 592.929 1008.29 599.218C985.155 605.806 957.38 607.827 957.38 607.827L871.885 619.806C871.885 619.806 963.594 631.185 972.578 632.084C981.562 632.982 986.952 631.784 1016.52 622.127V622.201Z" fill="white"/><mask id="mask0_732_1510" style="mask-type:luminance" maskUnits="userSpaceOnUse" x="871" y="568" width="379" height="65"><path d="M1016.52 622.201C1046.09 612.544 1106.44 592.555 1150.08 581.4C1193.65 570.245 1221.13 567.7 1249.35 573.24C1245.76 572.491 1242.09 571.743 1238.27 571.069C1161.16 559.09 1030.3 592.929 1008.29 599.218C985.155 605.806 957.38 607.827 957.38 607.827L871.885 619.806C871.885 619.806 963.594 631.185 972.578 632.084C981.562 632.982 986.952 631.784 1016.52 622.127V622.201Z" fill="white"/></mask><g mask="url(#mask0_732_1510)"><g style="mix-blend-mode:multiply"><path d="M944.593 727.256C1220.93 676.09 1438.71 600.962 1431.03 559.453C1423.34 517.943 1193.1 525.771 916.76 576.937C640.424 628.103 422.64 703.232 430.326 744.741C438.012 786.25 668.257 778.422 944.593 727.256Z" fill="white"/></g></g><path d="M732.786 661.73C726.722 656.564 639.879 585.143 639.879 585.143C639.879 585.143 609.259 579.304 599.751 611.271L732.561 679.548L878.173 702.681C878.173 702.681 770.218 674.831 757.491 671.313C744.764 667.794 738.85 666.896 732.786 661.73Z" fill="white"/><path d="M751.501 647.056C739.149 629.239 700.069 568.449 700.069 568.449C700.069 568.449 657.696 533.112 634.563 514.247C611.355 495.381 579.687 499.798 565.463 524.278L639.878 585.143C639.878 585.143 726.721 656.564 732.785 661.73C738.849 666.896 744.764 667.794 757.491 671.313C770.217 674.831 878.172 702.681 878.172 702.681C878.172 702.681 819.703 684.564 794.923 677.077C770.068 669.591 763.929 664.874 751.576 647.056H751.501Z" fill="white"/><path d="M794.774 637.998C785.716 623.998 720.134 523.081 720.134 523.081L728.22 518.439C728.22 518.439 718.936 500.397 705.91 483.702C692.958 467.007 662.264 461.692 641.676 480.108L700.145 568.449C700.145 568.449 739.225 629.239 751.577 647.056C763.93 664.874 770.069 669.591 794.924 677.077C819.779 684.564 878.174 702.681 878.174 702.681L944.504 723.942C944.504 723.942 852.869 678.574 829.736 667.869C806.603 657.163 803.833 652.072 794.774 638.073V637.998Z" fill="white"/><path d="M732.786 661.73C726.722 656.564 639.879 585.143 639.879 585.143C639.879 585.143 609.259 579.304 599.751 611.271L732.561 679.548L878.173 702.681C878.173 702.681 770.218 674.831 757.491 671.313C744.764 667.794 738.85 666.896 732.786 661.73Z" fill="white"/><path d="M751.501 647.056C739.149 629.239 700.069 568.449 700.069 568.449C700.069 568.449 657.696 533.112 634.563 514.247C611.355 495.381 579.687 499.798 565.463 524.278L639.878 585.143C639.878 585.143 726.721 656.564 732.785 661.73C738.849 666.896 744.764 667.794 757.491 671.313C770.217 674.831 878.172 702.681 878.172 702.681C878.172 702.681 819.703 684.564 794.923 677.077C770.068 669.591 763.929 664.874 751.576 647.056H751.501Z" fill="white"/><path d="M945.552 724.467C944.878 724.092 874.43 688.457 840.292 671.912C809.598 657.013 807.127 653.57 798.892 642.115C797.919 640.768 796.796 639.196 795.523 637.549C784.144 622.201 728.444 518.813 727.771 517.765" stroke="#003B2F" stroke-width="2.24594" stroke-linecap="round" stroke-linejoin="round"/><path d="M878.098 702.681C877.574 702.531 825.169 685.387 795.223 676.254C768.571 668.093 763.406 661.206 755.545 650.8C754.497 649.377 753.374 647.955 752.176 646.383C744.689 636.875 730.016 613.817 715.867 591.507C710.476 583.047 702.241 571.892 697.6 564.78" stroke="#003B2F" stroke-width="2.24594" stroke-linecap="round" stroke-linejoin="round"/><path d="M868.291 699.611C867.318 699.387 771.566 674.083 752.775 669.142C737.353 665.024 734.134 662.254 726.348 655.441C724.701 653.944 722.755 652.297 720.509 650.425C710.252 641.891 685.172 621.303 658.67 599.517L639.804 585.143" stroke="#003B2F" stroke-width="2.24594" stroke-linecap="round" stroke-linejoin="round"/><path d="M1148.66 572.491C1095.28 578.93 1072.3 584.769 1050.06 590.309C1046.24 591.282 1042.35 592.256 1038.38 593.229C1016.22 598.619 907.744 615.014 876.151 620.405" stroke="#003B2F" stroke-width="2.24594" stroke-linecap="round" stroke-linejoin="round"/><path d="M1443.33 680.746C1365.99 630.811 1307.3 595.325 1279.3 582.373C1271.51 578.78 1261.25 575.785 1249.43 573.24C1221.2 567.7 1193.73 570.32 1150.16 581.4C1106.51 592.555 1046.17 612.544 1016.6 622.201C987.025 631.859 981.635 633.057 972.651 632.158C963.668 631.26 871.958 619.881 871.958 619.881L860.354 617.185C860.354 617.185 813.04 559.764 789.757 533.786C766.474 507.733 743.64 510.054 728.218 518.514C728.218 518.514 718.935 500.471 705.909 483.777C692.957 467.082 662.262 461.766 641.675 480.183L700.144 568.523C700.144 568.523 657.771 533.187 634.637 514.321C611.429 495.455 579.762 499.873 565.537 524.353L639.953 585.218C639.953 585.218 609.333 579.379 599.825 611.346L732.635 679.623L878.247 702.756L944.577 724.017C944.577 724.017 971.903 738.017 999.153 733.974C1026.4 729.932 1043.4 726.039 1121.41 717.429C1199.42 708.82 1258.93 739.29 1302.21 779.642C1310.82 787.727 1327.06 803.224 1347.42 822.914" stroke="#003B2F" stroke-width="2.24594" stroke-linecap="round" stroke-linejoin="round"/><path d="M1244.04 572.267C1175.76 560.288 1064.44 560.812 1064.44 560.812C1064.44 560.812 1004.84 543.593 951.765 543.144C898.685 542.695 909.092 576.459 909.092 576.459C909.092 576.459 911.637 595.924 956.406 607.528" stroke="#003B2F" stroke-width="2.24594" stroke-linecap="round" stroke-linejoin="round"/><path d="M797.994 385.929C809.823 472.098 889.329 532.364 975.498 520.535C1061.67 508.707 1122.01 429.2 1110.11 343.031C1098.28 256.862 1018.77 196.521 932.601 208.424C846.432 220.253 786.166 299.759 797.994 385.929Z" fill="#03FC9D"/><path d="M781.074 385.18C792.903 471.349 872.409 531.615 958.578 519.787C1044.75 507.958 1105.09 428.452 1093.18 342.282C1081.36 256.113 1001.85 195.847 915.681 207.676C829.512 219.504 769.171 299.011 781.074 385.18Z" stroke="#003B2F" stroke-width="2.24594" stroke-linecap="round" stroke-linejoin="round"/><path d="M946.3 425.382L992.94 287.332H1010.68L964.043 425.382H946.3Z" fill="#003B2F"/><path d="M830.409 425.382L877.05 287.332H894.793L848.152 425.382H830.409Z" fill="#003B2F"/><path d="M946.899 349.02H899.135L894.194 363.769H941.958L946.899 349.02Z" fill="#003B2F"/><path d="M384.365 529.294C390.355 573.24 430.856 603.934 474.802 597.87C518.673 591.806 549.442 551.379 543.378 507.434C537.389 463.488 496.887 432.794 452.941 438.858C408.996 444.847 378.301 485.349 384.365 529.294Z" fill="#03FC9D"/><path d="M381.221 478.985C396.718 437.51 442.984 416.399 484.609 431.821C526.234 447.243 547.421 493.359 531.924 534.834C516.427 576.309 470.16 597.421 428.535 581.999C386.911 566.577 365.724 520.46 381.221 478.985Z" stroke="#003B2F" stroke-width="2.24594" stroke-linecap="round" stroke-linejoin="round"/><path d="M466.269 532.963L483.862 480.932H490.525L472.932 532.963H466.269Z" fill="#003B2F"/><path d="M422.622 532.963L440.215 480.932H446.878L429.285 532.963H422.622Z" fill="#003B2F"/><path d="M466.492 504.14H448.525L446.653 509.68H464.621L466.492 504.14Z" fill="#003B2F"/><path d="M1069.08 821.341C1072.52 846.496 1095.65 864.014 1120.81 860.57C1145.89 857.127 1163.48 833.993 1160.04 808.839C1156.59 783.684 1133.46 766.166 1108.31 769.61C1083.15 773.054 1065.63 796.187 1069.08 821.341Z" fill="#03FC9D"/><path d="M1067.28 792.518C1076.11 768.786 1102.62 756.733 1126.42 765.567C1150.23 774.401 1162.36 800.754 1153.52 824.486C1144.69 848.218 1118.19 860.271 1094.38 851.437C1070.57 842.603 1058.45 816.251 1067.28 792.518Z" stroke="#003B2F" stroke-width="1.2727" stroke-linecap="round" stroke-linejoin="round"/><path d="M1115.94 823.438L1125.97 793.716H1129.79L1119.76 823.438H1115.94Z" fill="#003B2F"/><path d="M1090.94 823.438L1100.97 793.716H1104.79L1094.76 823.438H1090.94Z" fill="#003B2F"/><path d="M1116.09 806.967H1105.84L1104.79 810.112H1115.04L1116.09 806.967Z" fill="#003B2F"/><path d="M369.992 854.207L402.034 759.428H414.237L382.195 854.207H369.992Z" fill="#003B2F"/><path d="M290.485 854.207L322.527 759.428H334.73L302.763 854.207H290.56H290.485Z" fill="#003B2F"/><path d="M370.441 801.727H337.65L334.207 811.834H366.997L370.441 801.727Z" fill="#003B2F"/><path d="M376.804 279.321H264.882V430.248H376.804V279.321Z" stroke="#003B2F" stroke-width="2.62026" stroke-linecap="round" stroke-linejoin="round"/><path d="M677.565 932.347H708.854" stroke="#003B2F" stroke-width="3" stroke-linecap="round" stroke-linejoin="round"/><path d="M602.447 889.693H828.473" stroke="#03FC9D" stroke-width="3" stroke-linecap="round" stroke-linejoin="round"/><path d="M749.108 932.16H875.477" stroke="#003B2F" stroke-width="3" stroke-linecap="round" stroke-linejoin="round"/><path d="M62.8403 592.094H139.427C147.887 592.094 154.745 585.257 154.745 576.823C154.745 568.389 147.887 561.552 139.427 561.552H62.8403C54.3807 561.552 47.5229 568.389 47.5229 576.823C47.5229 585.257 54.3807 592.094 62.8403 592.094Z" fill="#03FC9D"/><path d="M104.308 568.651H229.837C243.661 568.651 254.867 557.444 254.867 543.62C254.867 529.795 243.661 518.589 229.837 518.589H104.308C90.4841 518.589 79.2774 529.795 79.2774 543.62C79.2774 557.444 90.4841 568.651 104.308 568.651Z" fill="#03FC9D"/><path d="M170.903 932.347C179.827 932.347 187.061 925.113 187.061 916.189C187.061 907.265 179.827 900.031 170.903 900.031C161.979 900.031 154.745 907.265 154.745 916.189C154.745 925.113 161.979 932.347 170.903 932.347Z" stroke="#003B2F" stroke-width="3" stroke-linecap="round" stroke-linejoin="round"/><path d="M225.894 167.792L206.478 148.375L187.061 167.792L206.478 187.209L225.894 167.792Z" stroke="#003B2F" stroke-width="3" stroke-linecap="round" stroke-linejoin="round"/><path d="M1148.43 249.639L1171.04 262.622" stroke="#003B2F" stroke-width="3" stroke-linecap="round" stroke-linejoin="round"/><path d="M1193.64 249.639L1180.38 257.298" stroke="#003B2F" stroke-width="3" stroke-linecap="round" stroke-linejoin="round"/><path d="M1171.04 262.622V289.054" stroke="#003B2F" stroke-width="3" stroke-linecap="round" stroke-linejoin="round"/><path d="M1982.47 220.342H1929.23C1946.04 220.342 1959.77 207.92 1959.77 192.603C1959.77 177.285 1946.14 164.863 1929.23 164.863H1776.34C1759.53 164.863 1745.8 177.285 1745.8 192.603H1698.91C1682.1 192.603 1668.37 205.025 1668.37 220.342C1668.37 235.66 1682.01 248.082 1698.91 248.082H1799.13C1799.13 263.399 1812.76 275.821 1829.67 275.821H1982.56C1999.38 275.821 2013.11 263.399 2013.11 248.082C2013.11 232.764 1999.47 220.342 1982.56 220.342H1982.47Z" fill="#E6E8EA"/><path d="M1645.76 953.735H1671.16" stroke="#003B2F" stroke-width="3" stroke-linecap="round" stroke-linejoin="round"/><path d="M1539.56 910.959H1723.28" stroke="#03FC9D" stroke-width="3" stroke-linecap="round" stroke-linejoin="round"/><path d="M1703.85 953.642H1806.59" stroke="#003B2F" stroke-width="3" stroke-linecap="round" stroke-linejoin="round"/><path d="M1531.13 144.502L1546.07 159.446" stroke="#003B2F" stroke-width="3" stroke-linecap="round" stroke-linejoin="round"/><path d="M1557 170.374L1571.94 185.224" stroke="#003B2F" stroke-width="3" stroke-linecap="round" stroke-linejoin="round"/><path d="M1531.13 185.224L1546.07 170.374" stroke="#003B2F" stroke-width="3" stroke-linecap="round" stroke-linejoin="round"/><path d="M1557 159.446L1571.94 144.502" stroke="#003B2F" stroke-width="3" stroke-linecap="round" stroke-linejoin="round"/><path d="M1708.67 523.455H1771.8" stroke="#003B2F" stroke-width="3" stroke-linecap="round" stroke-linejoin="round"/><path d="M1660.66 523.455H1676.54" stroke="#003B2F" stroke-width="3" stroke-linecap="round" stroke-linejoin="round"/><path d="M1717.82 477.97H1881.55" stroke="#03FC9D" stroke-width="3" stroke-linecap="round" stroke-linejoin="round"/></g><defs><clipPath id="clip0_732_1510"><rect width="1920" height="1080" fill="white"/></clipPath></defs></svg>