<svg viewBox="0 0 11 10.5" xmlns="http://www.w3.org/2000/svg"><path d="m2.11052 10.6592c-.20308-.15337-.24766-.40568-.12383-.76189l1.0352-3.08219-2.64498-1.89483c-.30709-.21769-.43591-.45021-.35167-.69263.07925-.24242.31205-.36116.69344-.35621l3.24432.02474.98568-3.097c.11887-.36119.29718-.54919.54979-.54919.25756 0 .43588.188.55475.54915l.98568 3.097 3.24431-.02474c.3814-.005.6142.11379.69345.35621s-.04458.47494-.35168.69263l-2.64498 1.89487 1.03521 3.08219c.12383.35621.07925.60852-.12383.76189-.208.15831-.46065.10389-.76774-.11874l-2.62517-1.92446-2.62022 1.92446c-.30709.22263-.56466.27705-.76773.11874z" fill="#231f20" transform="translate(0 -.25)"/></svg>