<svg viewBox="0 0 11 11" xmlns="http://www.w3.org/2000/svg"><path d="m2.82377 9.68457c-.00991-.01484-.005-.01979 0-.04947l.98568-2.82493a.36482.36482 0 0 0 -.14364-.47l-2.46667-1.70188c-.02477-.01484-.02972-.02474-.02477-.03463.00331-.0099.00881-.0132.02092-.01429l3.02032.04892a.35881.35881 0 0 0 .39625-.277l.86185-2.86451c.005-.02969.01486-.03958.02476-.03958a.024.024 0 0 1 .02312.01613l.86841 2.88791a.3588.3588 0 0 0 .39625.27705l2.99675-.04947c.02971 0 .03962 0 .04458.01484.005.00989-.005.01979-.02477.03463l-2.46672 1.70188a.36482.36482 0 0 0 -.14364.47l.98568 2.82493.0055.03665-.0055.01282c-.00991.0099-.02477.00495-.04458-.00989l-2.38247-1.81568a.38361.38361 0 0 0 -.50027 0l-2.38246 1.81568c-.01981.01484-.03467.01979-.04458.00989zm-.71325.97463c.20308.15831.46064.10389.76774-.11874l2.62021-1.92446 2.62517 1.92451c.3071.22263.55971.27705.76774.11874.20308-.15337.24766-.40568.12383-.76189l-1.03521-3.08224 2.645-1.89483c.3071-.21769.43093-.45021.35168-.69263s-.31205-.36116-.69345-.35621l-3.24433.02474-.98567-3.09704c-.11888-.36115-.29723-.54915-.55476-.54915-.25261 0-.43092.188-.5498.54915l-.98567 3.09704-3.24432-.02474c-.38139-.005-.61419.11379-.69344.35621-.0842.24242.04458.47494.35168.69263l2.645 1.89483-1.03523 3.08219c-.12383.35621-.07925.60852.12383.76189z" fill="#231f20"/></svg>