<svg width="1920" height="1080" viewBox="0 0 1920 1080" fill="none" xmlns="http://www.w3.org/2000/svg"><g clip-path="url(#clip0_172_486)"><path d="M210.873 116.604C220.428 116.604 228.175 108.858 228.175 99.3022C228.175 89.7465 220.428 82 210.873 82C201.317 82 193.57 89.7465 193.57 99.3022C193.57 108.858 201.317 116.604 210.873 116.604Z" stroke="#003B2F" stroke-width="3.00733" stroke-miterlimit="10" stroke-linecap="round" stroke-linejoin="round"/><path d="M92.5717 107.342H69.1445" stroke="#03FC9D" stroke-width="3.00733" stroke-miterlimit="10" stroke-linecap="round" stroke-linejoin="round"/><path d="M190.644 165.073H21" stroke="#003B2F" stroke-width="3.00733" stroke-miterlimit="10" stroke-linecap="round" stroke-linejoin="round"/><path d="M207.735 607.576L191.631 591.472L175.526 607.576L191.631 623.681L207.735 607.576Z" stroke="#003B2F" stroke-width="3.00733" stroke-miterlimit="10" stroke-linecap="round" stroke-linejoin="round"/><path d="M376.455 676.55H340.367C351.785 676.55 361.047 668.139 361.047 657.774C361.047 647.409 351.785 638.998 340.367 638.998H236.694C225.276 638.998 216.014 647.409 216.014 657.774H184.196C172.778 657.774 163.516 666.185 163.516 676.55C163.516 686.915 172.778 695.326 184.196 695.326H252.112C252.112 705.691 261.374 714.102 272.792 714.102H376.455C387.873 714.102 397.135 705.691 397.135 695.326C397.135 684.951 387.883 676.55 376.455 676.55Z" fill="#E6E8EA"/><path d="M313.451 663.147H339.324" stroke="#003B2F" stroke-width="3.00733" stroke-miterlimit="10" stroke-linecap="round" stroke-linejoin="round"/><path d="M276.096 594.36H463.382" stroke="#03FC9D" stroke-width="3.00733" stroke-miterlimit="10" stroke-linecap="round" stroke-linejoin="round"/><path d="M372.736 663.017H477.432" stroke="#003B2F" stroke-width="3.00733" stroke-miterlimit="10" stroke-linecap="round" stroke-linejoin="round"/><path d="M325.043 232.196V243.143" stroke="#003B2F" stroke-width="3.00733" stroke-miterlimit="10" stroke-linecap="round" stroke-linejoin="round"/><path d="M325.043 251.152V262.109" stroke="#003B2F" stroke-width="3.00733" stroke-miterlimit="10" stroke-linecap="round" stroke-linejoin="round"/><path d="M310.084 247.153H321.031" stroke="#003B2F" stroke-width="3.00733" stroke-miterlimit="10" stroke-linecap="round" stroke-linejoin="round"/><path d="M329.035 247.153H339.992" stroke="#003B2F" stroke-width="3.00733" stroke-miterlimit="10" stroke-linecap="round" stroke-linejoin="round"/><path d="M399.424 246.982H442.87" stroke="#003B2F" stroke-width="3.00733" stroke-miterlimit="10" stroke-linecap="round" stroke-linejoin="round"/><path d="M325.023 316.382H560.708" stroke="#03FC9D" stroke-width="3.00733" stroke-miterlimit="10" stroke-linecap="round" stroke-linejoin="round"/><path d="M498.982 247.153H674.821" stroke="#003B2F" stroke-width="3.00733" stroke-miterlimit="10" stroke-linecap="round" stroke-linejoin="round"/><path d="M1603.47 425.157V406.942" stroke="#003B2F" stroke-width="3.00733" stroke-miterlimit="10" stroke-linecap="round" stroke-linejoin="round"/><path d="M1603.47 393.62V375.406" stroke="#003B2F" stroke-width="3.00733" stroke-miterlimit="10" stroke-linecap="round" stroke-linejoin="round"/><path d="M1628.35 400.286H1610.13" stroke="#003B2F" stroke-width="3.00733" stroke-miterlimit="10" stroke-linecap="round" stroke-linejoin="round"/><path d="M1596.81 400.286H1578.59" stroke="#003B2F" stroke-width="3.00733" stroke-miterlimit="10" stroke-linecap="round" stroke-linejoin="round"/><path d="M1448.88 417.749H1549.62" stroke="#003B2F" stroke-width="3.00733" stroke-miterlimit="10" stroke-linecap="round" stroke-linejoin="round"/><path d="M1381.72 420.596H1401.36" stroke="#003B2F" stroke-width="3.00733" stroke-miterlimit="10" stroke-linecap="round" stroke-linejoin="round"/><path d="M1376.43 385.109H1551.3" stroke="#03FC9D" stroke-width="3.00733" stroke-miterlimit="10" stroke-linecap="round" stroke-linejoin="round"/><path d="M1802.07 219.826H1690.48C1678.19 219.826 1668.22 209.862 1668.22 197.562C1668.22 185.272 1678.18 175.298 1690.48 175.298H1802.07C1814.36 175.298 1824.33 185.262 1824.33 197.562C1824.32 209.862 1814.36 219.826 1802.07 219.826Z" fill="#03FC9D"/><path d="M1744.66 187.637H1567.11C1547.56 187.637 1531.7 171.779 1531.7 152.221C1531.7 132.663 1547.56 116.805 1567.11 116.805H1744.66C1764.21 116.805 1780.07 132.663 1780.07 152.221C1780.07 171.779 1764.21 187.637 1744.66 187.637Z" fill="#03FC9D"/><path d="M1813.09 145.996C1819.3 145.996 1824.32 140.97 1824.32 134.769C1824.32 128.568 1819.3 123.541 1813.09 123.541C1806.89 123.541 1801.87 128.568 1801.87 134.769C1801.87 140.97 1806.89 145.996 1813.09 145.996Z" stroke="#003B2F" stroke-width="3.00733" stroke-miterlimit="10" stroke-linecap="round" stroke-linejoin="round"/><path d="M1570.21 157.594L1595.03 171.909" stroke="#003B2F" stroke-width="3.00733" stroke-miterlimit="10" stroke-linecap="round" stroke-linejoin="round"/><path d="M1619.84 157.594L1605.26 166.005" stroke="#003B2F" stroke-width="3.00733" stroke-miterlimit="10" stroke-linecap="round" stroke-linejoin="round"/><path d="M1595.04 171.909V200.89" stroke="#003B2F" stroke-width="3.00733" stroke-miterlimit="10" stroke-linecap="round" stroke-linejoin="round"/><path d="M1788.05 821.243H1655.18" stroke="#003B2F" stroke-width="3.00733" stroke-miterlimit="10" stroke-linecap="round" stroke-linejoin="round"/><path d="M1691.32 743.463V721.279" stroke="#003B2F" stroke-width="3.00733" stroke-miterlimit="10" stroke-linecap="round" stroke-linejoin="round"/><path d="M1691.32 705.06V682.865" stroke="#003B2F" stroke-width="3.00733" stroke-miterlimit="10" stroke-linecap="round" stroke-linejoin="round"/><path d="M1721.61 713.169H1699.43" stroke="#003B2F" stroke-width="3.00733" stroke-miterlimit="10" stroke-linecap="round" stroke-linejoin="round"/><path d="M1683.2 713.169H1661.02" stroke="#003B2F" stroke-width="3.00733" stroke-miterlimit="10" stroke-linecap="round" stroke-linejoin="round"/><path d="M1803.62 775.952H1974.48C1973.87 745.007 1974.4 714.924 1975 684.65H1803.62C1778.41 684.65 1757.97 705.09 1757.97 730.301C1757.96 755.513 1778.4 775.952 1803.62 775.952Z" fill="#03FC9D"/><path d="M1847.05 871.125C1856.41 871.125 1864 863.535 1864 854.173C1864 844.811 1856.41 837.222 1847.05 837.222C1837.69 837.222 1830.1 844.811 1830.1 854.173C1830.1 863.535 1837.69 871.125 1847.05 871.125Z" stroke="#003B2F" stroke-width="3.00733" stroke-miterlimit="10" stroke-linecap="round" stroke-linejoin="round"/><path d="M867.604 719.685C847.996 740.887 826.092 760.465 800.45 773.737C769.264 789.877 734.068 795.992 699.915 804.161C615.589 824.331 534.561 858.193 460.962 904.035C451.068 910.2 441.043 916.826 434.417 926.42C428.793 934.559 426.017 944.273 423.33 953.786C408.674 1005.66 394.009 1057.53 379.353 1109.41C377.679 1115.31 376.005 1121.57 377.568 1127.51C380.516 1138.72 393.217 1143.87 404.384 1146.93C518.272 1178.08 638.876 1160.14 756.503 1149.88C882.52 1138.9 1009.13 1137.02 1135.61 1135.16C1301.52 1132.71 1467.44 1130.26 1633.34 1127.81C1641.4 1127.69 1650.35 1127.9 1655.17 1131.89C1643.98 1085.94 1638.49 1038.59 1638.89 991.298C1639.01 978.587 1639.49 965.545 1635.3 953.546C1631.11 941.546 1620.98 930.63 1603.76 935.241C1569.19 907.804 1530.81 885.179 1490.07 868.238C1438.56 846.805 1383.74 834.566 1330.99 816.381C1278.25 798.197 1227.13 763.963 1190.11 722.222C1183.47 714.743 1176.21 715.666 1167.93 710.052C1156.72 702.453 1142.85 700.098 1129.42 698.373C1041.08 686.976 950.305 694.885 867.604 719.685Z" fill="#003B2F" stroke="#E6E8EA" stroke-width="3.00733" stroke-miterlimit="10" stroke-linecap="round" stroke-linejoin="round"/><path d="M885.489 229.791C873.108 260.235 871.194 293.716 866.522 326.246C860.598 367.506 850.012 408.085 834.875 447.702C830.685 437.036 824.139 427.302 815.829 419.403C814.275 417.919 812.501 416.436 810.365 416.205C807.358 415.884 804.601 418.27 803.459 421.067C802.316 423.864 802.446 427.002 802.586 430.019C803.93 459.24 805.283 488.461 806.626 517.683C806.977 525.402 807.368 533.271 810.045 540.518C812.721 547.766 818.114 554.442 825.502 556.678C832.9 558.913 842.143 555.415 846.423 545.851C851.576 559.976 856.728 574.11 861.881 588.235C865.911 599.292 869.961 610.399 872.186 621.957C874.512 634.016 874.802 646.367 874.893 658.656C875.093 685.271 874.351 711.886 872.667 738.441C872.667 738.441 873.429 741.809 874.381 740.346C873.369 755.433 878.532 770.209 884.346 784.173C894.22 807.86 906.339 830.846 922.81 850.514C945.144 877.199 975.819 898.461 988.179 930.991C992.51 942.398 994.354 954.739 999.737 965.695C1005.12 976.652 1015.55 986.486 1027.75 985.995C1041.06 985.454 1050.6 973.434 1058.24 962.518C1068.3 948.122 1078.37 933.727 1088.44 919.332C1097.12 906.912 1105.82 894.482 1113.39 881.36C1121.6 867.145 1128.46 852.189 1134.77 837.032C1148.29 804.522 1159.31 770.98 1169.21 735.624C1172.93 725.379 1171.23 714.072 1169.76 703.265C1166.16 676.6 1164.4 649.675 1164.55 622.659C1172.89 611.07 1179.41 598.169 1183.79 584.586C1184.86 581.268 1185.8 577.9 1186.74 574.541C1188.19 569.409 1189.62 564.276 1191.06 559.154C1193.15 551.726 1195.2 543.646 1192.79 534.584C1192.3 541.1 1198.11 547.114 1204.62 547.716C1211.12 548.317 1217.53 544.117 1220.46 538.283C1222.61 533.992 1223.09 529.07 1223.52 524.279C1227.03 485.875 1230.55 447.201 1226.93 408.797C1226.7 406.361 1226.36 403.735 1224.66 401.991C1222.95 400.236 1219.41 400.196 1218.9 403.314C1201.84 397.419 1193.82 378.323 1188.22 361.161C1181.24 339.799 1174.91 318.176 1170.96 296.062C1168.3 281.136 1166.66 265.778 1160.55 251.894C1156.7 243.153 1151.18 235.254 1145.24 227.776C1141.47 223.034 1137.44 218.363 1132.36 215.055C1125.64 210.694 1117.52 208.99 1109.53 208.458C1090.04 207.155 1070.75 212.258 1051.32 214.373C1014.28 218.423 976.881 211.636 939.661 213.27C922.148 214.042 904.214 216.849 889.157 225.821C885.348 228.066 882.04 234.372 885.489 229.791Z" fill="#E6E8EA" stroke="#003B2F" stroke-width="3.00733" stroke-miterlimit="10" stroke-linecap="round" stroke-linejoin="round"/><path d="M989.727 487.96C987.382 492.211 985.788 496.872 985.056 501.664C984.785 503.408 984.635 505.222 985.076 506.936C985.958 510.325 989.226 512.831 992.715 513.182C996.203 513.533 999.732 511.899 1002.04 509.262" stroke="#003B2F" stroke-width="3.00733" stroke-miterlimit="10" stroke-linecap="round" stroke-linejoin="round"/><path d="M1036.37 518.394C1040.29 514.665 1043.38 510.074 1045.36 505.042C1046.27 502.706 1046.95 500.27 1048.18 498.085C1049.1 496.441 1050.3 494.977 1051.49 493.524C1052.18 492.692 1052.94 491.81 1053.98 491.569C1055.02 491.318 1056.36 492.1 1056.21 493.163" stroke="#003B2F" stroke-width="3.00733" stroke-miterlimit="10" stroke-linecap="round" stroke-linejoin="round"/><path d="M1046.86 500.882C1048.65 501.904 1050.52 502.846 1052.56 503.187C1054.58 503.528 1056.81 503.217 1058.42 501.954C1060.04 500.691 1060.89 498.355 1060.24 496.651C1059.89 494.356 1057.93 492.702 1056.09 491.268C1055.83 491.068 1055.57 490.857 1055.25 490.787C1054.92 490.717 1054.57 490.797 1054.25 490.917C1052.72 491.469 1051.48 492.631 1050.31 493.764C1049.19 494.847 1048.02 495.99 1047.58 497.483C1047.25 498.606 1047.32 499.939 1046.86 500.882Z" fill="#003B2F"/><path d="M999.617 510.365C1002.89 505.643 1006.68 501.303 1010.91 497.423C1012.29 496.17 1013.72 494.947 1015.36 494.065C1016.29 493.564 1017.3 493.163 1018.36 493.143C1020.37 493.103 1022.18 494.416 1023.39 496.02C1023.78 496.541 1024.13 497.123 1024.2 497.764C1024.32 498.927 1023.51 499.979 1022.58 500.701C1020.31 502.496 1017.34 503.047 1014.61 504.029C1009.42 505.914 1004.97 509.513 999.617 510.365Z" fill="#003B2F"/><path d="M1060.25 466.558C1063.27 477.685 1075.54 485.003 1076.91 496.451C1077.61 502.315 1074.98 508.46 1070.27 512.009C1065.56 515.557 1058.92 516.369 1053.48 514.074" stroke="#003B2F" stroke-width="3.00733" stroke-miterlimit="10" stroke-linecap="round" stroke-linejoin="round"/><path d="M1002.04 359.346C1003.09 367.536 996.432 372.899 989.375 376.027C982.317 379.155 974.248 378.593 966.559 377.972C957.667 377.25 948.776 376.528 939.874 375.807C936.305 375.516 932.717 375.225 929.158 375.656C913.73 377.531 903.245 391.896 889.581 399.304C887.476 400.447 886.424 400.968 885.682 398.682C885.231 397.309 886.233 393.58 887.165 392.467C894.203 384.107 898.914 378.082 905.951 369.732C909.43 365.602 913.039 361.361 917.84 358.875C922.251 356.6 927.303 355.988 932.235 355.407C949.437 353.402 966.639 351.397 983.841 349.392C988.432 348.861 993.395 348.4 997.364 350.765C1001.34 353.141 1001.66 354.845 1002.04 359.346Z" fill="#003B2F"/><path d="M963.936 568.567C966.081 568.767 969.66 568.557 972.537 568.958C980.136 570.01 987.474 566.321 994.491 563.244C998.52 561.479 1002.62 559.886 1006.78 558.462C1011.2 556.948 1015.81 555.625 1020.47 555.946C1025.02 556.267 1029.41 558.141 1033.95 557.871C1038.6 557.6 1043.04 555.084 1047.85 555.224C1057.47 556.577 1065.8 562.542 1075.13 565.289C1081.31 567.113 1087.92 567.484 1094.09 566.863C1093.04 571.704 1088.06 574.461 1083.58 576.596C1078.11 579.203 1072.65 581.809 1067.2 584.405C1062.44 586.671 1057.65 588.956 1052.57 590.38C1047.82 591.713 1042.89 592.285 1037.96 592.575C1019.01 593.688 999.844 590.671 982.15 583.804C975.464 581.208 968.718 577.859 964.437 572.105C963.856 571.333 963.776 570.411 963.946 569.459C964.127 568.497 964.949 567.785 963.936 568.567Z" fill="#03FC9D" stroke="#003B2F" stroke-width="3.00733" stroke-miterlimit="10" stroke-linecap="round" stroke-linejoin="round"/><path d="M1047.95 353.282C1048.06 357.582 1048.23 358.755 1050.58 362.344C1055.09 369.23 1064.43 371.005 1072.65 370.574C1085.6 369.882 1098.24 365.291 1111.21 365.832C1122.23 366.293 1132.95 370.534 1141.78 377.15C1147.45 381.4 1153.83 383.866 1159.69 388.257C1162.42 384.087 1154.56 374.914 1150.57 371.927C1142.14 365.622 1136.01 360.319 1126.62 353.582C1121.66 350.024 1115.7 348.761 1109.97 346.635C1099.77 342.836 1088.46 344.089 1077.65 345.392C1069.92 346.325 1062.18 347.257 1054.44 348.189C1052.63 348.41 1050.74 348.66 1049.31 349.763C1047.87 350.856 1047.62 356.389 1047.95 353.282Z" fill="#003B2F"/><path d="M1019.47 495.288C1022.94 497.293 1025.86 500.25 1027.81 503.739" stroke="#003B2F" stroke-width="3.00733" stroke-miterlimit="10" stroke-linecap="round" stroke-linejoin="round"/><path d="M958.48 575.834C959.643 571.604 962.49 567.855 966.249 565.589" stroke="#003B2F" stroke-width="3.00733" stroke-miterlimit="10" stroke-linecap="round" stroke-linejoin="round"/><path d="M961.516 569.87C965.325 572.997 970.618 573.419 975.54 573.699C982.918 574.12 990.366 574.541 997.654 573.348C1001.41 572.737 1005.09 571.704 1008.87 571.283C1020.76 569.96 1032.78 574.802 1044.6 572.997C1049.02 572.326 1053.27 570.732 1057.69 570.09C1070.28 568.276 1084.14 574.09 1095.34 568.035" stroke="#003B2F" stroke-width="3.00733" stroke-miterlimit="10" stroke-linecap="round" stroke-linejoin="round"/><path d="M1091.89 564.908C1094.44 566.291 1096.36 568.767 1097.08 571.584" stroke="#003B2F" stroke-width="3.00733" stroke-miterlimit="10" stroke-linecap="round" stroke-linejoin="round"/><path d="M1166.09 623.591C1156.55 638.738 1146.09 653.474 1133 665.674C1119.9 677.873 1103.96 687.477 1086.39 690.905" stroke="#003B2F" stroke-width="3.00733" stroke-miterlimit="10" stroke-linecap="round" stroke-linejoin="round"/><path d="M860.332 585.718C871.89 619.08 893.463 648.893 921.541 670.305" stroke="#003B2F" stroke-width="3.00733" stroke-miterlimit="10" stroke-linecap="round" stroke-linejoin="round"/><path d="M1223.36 416.235C1217.78 417.899 1213.36 422.942 1212.45 428.686C1211.39 435.362 1214.7 441.858 1217.39 448.053C1223.13 461.225 1226.36 476.743 1220.24 489.735C1216.89 496.832 1210.77 504.17 1213.56 511.498" stroke="#003B2F" stroke-width="3.00733" stroke-miterlimit="10" stroke-linecap="round" stroke-linejoin="round"/><path d="M1201.52 449.025C1198.34 455.07 1197.89 462.478 1200.31 468.853C1201.5 472.011 1203.36 474.958 1203.87 478.286C1204.49 482.397 1202.93 486.547 1200.81 490.105C1199.8 491.799 1198.61 493.474 1198.25 495.418C1197.63 498.716 1199.48 501.924 1201.24 504.781C1200.14 501.483 1201.37 497.814 1203.28 494.907C1205.2 492 1207.77 489.584 1209.77 486.737C1216.81 476.793 1215.78 462.418 1208.75 452.464C1207.71 451 1206.49 449.556 1204.83 448.865C1203.16 448.183 1200.98 448.484 1201.52 449.025Z" stroke="#003B2F" stroke-width="3.00733" stroke-miterlimit="10" stroke-linecap="round" stroke-linejoin="round"/><path d="M810.504 474.838C810.414 467.721 813.261 460.944 814.755 453.987C816.078 447.852 816.349 441.497 815.547 435.282C815.196 432.505 814.544 429.598 812.63 427.553C812.158 427.051 811.597 426.6 810.925 426.44C809.652 426.129 808.319 426.991 807.657 428.124C806.996 429.257 806.845 430.61 806.705 431.913" stroke="#003B2F" stroke-width="3.00733" stroke-miterlimit="10" stroke-linecap="round" stroke-linejoin="round"/><path d="M836.073 464.643C838.007 468.653 837.235 473.415 836.012 477.695C834.779 481.976 833.105 486.266 833.346 490.707C833.637 496.17 836.784 501.102 837.606 506.515C837.917 508.56 837.857 510.756 836.854 512.56C835.852 514.365 833.707 515.648 831.702 515.146C832.023 512.871 832.323 510.485 831.521 508.33C830.72 506.175 828.394 504.41 826.188 505.042C825.406 505.262 824.695 505.764 823.893 505.804C822.088 505.884 821.056 503.809 820.555 502.075C819.171 497.253 818.249 492.221 818.82 487.238C819.372 482.256 821.567 477.304 836.073 464.643Z" stroke="#003B2F" stroke-width="3.00733" stroke-miterlimit="10" stroke-linecap="round" stroke-linejoin="round"/><path d="M812.501 499.127C811.97 503.007 814.215 506.656 816.26 509.994C818.305 513.332 820.33 517.201 819.318 520.991C818.957 522.344 818.225 523.567 817.674 524.86C815.198 530.624 816.631 537.852 821.122 542.242" stroke="#003B2F" stroke-width="3.00733" stroke-miterlimit="10" stroke-linecap="round" stroke-linejoin="round"/><path d="M1201.82 392.327C1202.87 393.66 1203.53 394.522 1202.48 392.387C1201.59 390.302 1200.52 388.167 1199.37 386.011C1201.68 388.898 1204.01 391.816 1206.39 394.783C1195.91 367.647 1177.19 344.059 1155.22 325.253C1157.83 329.433 1160.42 333.393 1163 337.262C1159.94 334.235 1156.74 331.298 1153.29 328.702C1161.52 339.398 1167.76 351.477 1175.84 362.253C1173.3 360.379 1170.66 358.605 1167.87 357.061C1181.72 371.215 1194.18 389.36 1203.69 404.817C1202.18 398.251 1199.72 392.036 1196.59 386.222C1198.37 388.237 1200.14 390.242 1201.82 392.327Z" fill="#003B2F"/><path d="M1174.79 366.664C1182.58 381.36 1191.27 402.361 1201.25 412.266C1194.33 396.186 1187.54 379.085 1174.79 366.664Z" fill="#003B2F"/><path d="M1232.42 341.683C1229.25 307.139 1220.85 267.162 1190.12 246.672C1200.21 258.761 1205.65 269.898 1210.26 282.248C1216.47 306.638 1218.42 332.681 1225.26 356.51C1225.71 343.578 1225.43 330.296 1223.33 317.424C1226.39 325.183 1229.43 332.932 1232.42 341.683Z" fill="#003B2F"/><path d="M1224.92 379.185C1225.64 381.741 1226.4 384.227 1227.18 386.613C1227.47 364.188 1223.45 342.485 1214.65 321.805C1215.65 332.03 1217.17 343.047 1219.14 353.823C1217.93 350.635 1216.61 347.487 1215.03 344.42C1215.75 348.59 1216.6 353.161 1217.52 357.813C1217.07 356.54 1216.75 355.246 1216.18 354.003C1217.48 364.87 1217.91 378.152 1222.61 387.275C1222.09 382.844 1221.68 378.383 1221.13 373.942C1222.47 379.265 1223.91 384.217 1225.42 388.247C1225.43 385.209 1225.19 382.192 1224.92 379.185Z" fill="#003B2F"/><path d="M1197.18 359.376C1194.49 354.715 1191.62 350.364 1188.75 346.024C1191.06 348.119 1193.38 350.044 1195.73 351.708C1191.6 345.503 1187.48 339.197 1183.22 332.992C1188.86 339.167 1194.66 345.362 1200.68 351.718C1196.43 342.976 1191.33 334.857 1185.67 327.168C1188.23 330.075 1190.87 332.992 1193.34 335.899C1190.26 328.802 1186.73 322.266 1182.76 316.171C1185.64 318.928 1188.49 321.715 1191.42 324.411C1192.97 325.734 1193.74 326.416 1192.26 324.451C1186 315.139 1179.56 305.746 1172.51 296.804C1176.37 300.834 1180.26 304.934 1184.18 309.264C1190.13 316.211 1181.09 301.836 1179.24 298.789C1168.06 277.958 1149.5 263.051 1133.85 245.749C1131.19 240.737 1127.92 235.905 1123.69 232.537C1120.23 228.668 1115.83 225.63 1111.85 224.598C1106.96 222.813 1102.78 219.575 1097.87 217.861C1091.48 216.277 1085.77 213.23 1080.77 208.94C1081.06 209.441 1081.42 209.862 1081.74 210.333C1079.05 208.328 1076.13 206.614 1072.93 205.271C1071.33 202.795 1069.72 200.329 1068.17 197.832C1068.49 200.379 1069.08 202.825 1069.77 205.23C1069.73 205.21 1069.7 205.19 1069.66 205.18C1068.52 203.446 1067.39 201.682 1066.33 199.667C1066.9 204.198 1068.12 208.579 1069.71 212.819C1069.53 212.759 1069.37 212.669 1069.19 212.608C1069.4 212.749 1069.59 212.929 1069.8 213.08C1071.13 216.578 1072.75 219.956 1074.61 223.244C1074.01 222.773 1073.51 222.212 1072.91 221.751C1071.88 219.385 1070.63 217.13 1069.26 214.934C1068.21 210.954 1066.91 207.035 1064.87 203.326C1065.06 206.393 1065.4 209.701 1065.85 213.05C1065.54 212.248 1065.3 211.426 1064.95 210.624C1065.08 212.007 1065.29 213.39 1065.46 214.784C1064.79 212.448 1064.14 210.102 1063.26 207.807C1063.36 209.711 1063.56 211.606 1063.74 213.511C1063.45 211.877 1063.12 210.243 1062.78 208.629C1062.75 207.697 1062.77 206.764 1062.72 205.832C1062.72 205.812 1062.73 205.792 1062.73 205.772C1063.29 204.429 1063.86 203.095 1064.5 201.862C1063.61 202.574 1062.89 203.386 1062.09 204.158C1062.1 203.967 1062.11 203.767 1062.11 203.576C1062.03 203.827 1061.98 204.088 1061.9 204.338C1061.14 205.1 1060.38 205.862 1059.71 206.684C1059.73 205.692 1059.8 204.699 1059.73 203.707C1058.95 205.822 1058.08 207.957 1057.23 210.102C1055.79 212.418 1054.66 214.904 1053.67 217.47C1053.51 217.881 1053.27 218.242 1053.12 218.653C1054.16 214.353 1055.23 210.062 1056.47 205.842C1055.93 206.624 1055.6 207.546 1055.11 208.368C1053.76 209.782 1052.46 211.305 1051.2 212.879C1051.26 212.789 1051.32 212.709 1051.39 212.618C1049.69 213.851 1048.21 215.325 1046.66 216.708C1048.51 214.583 1050.26 212.358 1052.24 210.363C1046.83 213.05 1041.94 217.551 1037.93 222.613C1039.65 220.127 1041.31 217.601 1042.85 214.974C1043.72 214.172 1044.57 213.44 1045.45 212.618C1020.21 224.828 996.104 242.07 980.215 264.625C995.622 253.007 1009.3 243.213 1023.2 231.946C1014.67 241.288 1005.86 250.721 1000.79 262.48C1006.88 255.072 1014.14 248.727 1020.41 241.499C1019.45 243.103 1018.39 244.687 1017.57 246.301C1023.99 240.065 1029.96 233.369 1035.29 226.202C1032.9 229.73 1030.95 233.389 1029.61 236.787C1030.59 235.685 1031.5 234.502 1032.45 233.369C1029.63 237.73 1027.02 242.221 1024.84 246.882C1030.46 240.847 1035.5 234.372 1040.38 227.765C1033.53 239.995 1026.24 253.268 1025.24 267.262C1028.63 257.358 1035.11 248.917 1039.28 239.364C1039.97 238.01 1040.54 236.567 1041.12 235.133C1040.89 237.539 1040.87 239.985 1041.32 242.441C1042.49 233.74 1046.41 225.771 1050.44 217.921C1046.77 227.765 1045.37 238.662 1045.84 248.897C1046.48 246.651 1046.96 244.356 1047.53 242.09C1049.78 239.654 1051.59 236.627 1053.1 233.229C1052.9 234.823 1052.67 236.407 1052.61 238.01C1052.66 238.341 1052.78 238.472 1052.92 238.592C1052.95 240.326 1053 242.05 1053.3 243.785C1054.02 238.832 1055.28 233.8 1056.12 228.738C1056.51 227.475 1056.75 226.172 1057.09 224.898C1056.61 228.758 1056.36 232.607 1056.62 236.276C1057.03 234.943 1057.33 233.73 1057.66 232.487C1057.76 234.632 1057.85 236.787 1058.24 238.873C1058.66 235.865 1059.13 232.848 1059.59 229.83C1059.56 234.773 1059.78 239.705 1060.58 244.506C1060.96 241.97 1061.26 239.424 1061.55 236.878C1062.2 240.346 1063.12 243.744 1064.39 247.012C1064.24 244.145 1064.16 241.258 1064.07 238.381C1065.13 233.58 1065.36 228.718 1065.05 223.856C1066.01 229.67 1067.27 235.434 1068.76 241.088C1068.96 237.409 1068.81 233.78 1068.46 230.171C1069.5 233.88 1070.72 237.529 1072.37 240.998C1071.88 237.289 1071.26 233.58 1070.53 229.891C1071.2 231.244 1071.78 232.687 1072.61 233.84C1072.35 231.936 1072.09 230.021 1071.82 228.106C1074.66 233.94 1077.07 239.975 1078.86 245.358C1078.88 240.196 1077.84 235.194 1075.89 230.602C1075.67 229.66 1075.37 228.738 1075.1 227.816C1082.96 236.998 1090.43 246.561 1096.95 256.455C1096.12 253.508 1094.97 250.721 1093.76 247.975C1094.86 249.097 1095.96 250.24 1097.06 251.313C1095.22 245.599 1092.18 240.356 1089.16 235.103C1089.28 235.224 1089.38 235.354 1089.51 235.474C1092.61 239.965 1095.66 244.416 1098.97 248.376C1097.55 244.707 1096 240.958 1094.21 237.309C1095.92 239.103 1097.63 240.897 1099.35 242.551C1095.79 235.705 1091.32 229.229 1085.71 224.046C1084.73 222.884 1083.68 221.781 1082.58 220.738C1082.29 220.247 1082.01 219.736 1081.71 219.245C1087.51 225.38 1094.88 231.875 1102.76 230.673C1094.69 229.169 1087.66 221.36 1080.19 216.658C1079.46 215.485 1078.7 214.333 1077.96 213.16C1082.29 216.869 1086.96 220.277 1091.33 222.753C1094.93 225.751 1098.56 228.207 1102.22 229.409C1100.99 228.337 1099.81 227.184 1098.62 226.051L1098.66 226.071C1096.67 223.776 1094.51 221.6 1092.25 219.545C1096.29 221.921 1100.63 223.936 1104.62 226.412C1110.21 228.597 1115.68 229.961 1120.52 232.707C1124.89 236.868 1127.95 242.602 1132.06 247.032C1132.74 247.844 1133.31 248.556 1133.88 249.268C1139.21 258.781 1145.48 267.131 1152.34 275.071C1148.2 271.382 1143.87 267.863 1139.16 264.716C1145.59 271.091 1150.41 278.77 1155.61 286.178C1149.42 281.055 1142.7 276.214 1135.33 271.612C1141.86 279.091 1148.68 286.539 1155.52 293.987C1152.54 291.22 1149.52 288.484 1146.45 285.797C1150.01 291.611 1153.81 297.125 1157.76 302.488C1153.55 298.638 1149.09 295.04 1144.14 291.922C1147.68 296.022 1151.3 300.653 1154.97 305.455C1152.03 302.598 1149.21 299.721 1146.06 296.904C1152.24 307.269 1159.83 318.036 1167.92 328.18C1161.94 322.216 1155.74 316.442 1149.13 311.089C1162.03 330.686 1183.79 355.497 1198.91 367.065C1195.21 360.96 1191.12 355.166 1186.83 349.552C1190.31 353.081 1193.79 356.439 1197.18 359.376Z" fill="#003B2F"/><path d="M965.844 258.851C983.106 248.827 998.934 239.173 1013.15 226.803C994.574 232.126 976.67 242.973 965.844 258.851Z" fill="#003B2F"/><path d="M983.524 228.788C988.005 225.58 992.416 222.362 996.646 219.094C991.975 220.007 987.123 221.611 982.362 223.726C982.592 223.515 982.853 223.345 983.083 223.134C982.041 223.455 981.018 223.936 979.976 224.307C984.146 221.721 988.246 219.034 992.246 216.167C974.573 219.455 958.072 228.417 946.264 242.05C949.471 240.617 952.639 239.093 955.797 237.559C954.033 238.933 952.258 240.306 950.745 241.73C954.023 240.747 957.16 239.544 960.208 238.181C955.195 242.782 951.095 247.774 948.75 252.847C954.714 248.727 960.619 244.697 966.463 240.687C958.173 247.784 951.597 255.644 948.168 262.821C962.874 252.345 978.993 243.875 993.749 233.409C1002.57 227.475 1011.55 222.342 1021.2 218.744C1008.89 217.841 995.534 222.082 983.524 228.788Z" fill="#003B2F"/><path d="M907.869 259.282C929.502 245.799 951.245 232.186 973.539 219.826C948.418 220.458 916.36 240.908 907.869 259.282Z" fill="#003B2F"/><path d="M900.039 247.163C916.439 239.294 931.736 229.299 945.69 217.631C927.757 222.453 911.808 232.808 900.039 247.163Z" fill="#003B2F"/><path d="M885.863 251.965C903.186 240.988 917.921 226.502 933.58 213.23C913.33 218.633 896.82 234.602 885.863 251.965Z" fill="#003B2F"/><path d="M872.942 324.842C875.348 321.003 877.423 316.933 878.947 312.592C866.306 325.474 855.871 336.591 846.197 350.174C849.756 348.149 853.164 345.843 856.372 343.297C855.53 344.691 854.608 346.064 853.936 347.467C855.37 346.355 856.713 345.152 858.076 343.959C855.46 347.417 852.843 351.086 849.986 355.236C862.006 347.928 870.527 336.982 875.649 323.96C875.178 324.421 874.777 324.842 874.326 325.293C875.008 324.231 875.749 323.218 876.381 322.126C875.208 322.948 874.085 323.93 872.942 324.842Z" fill="#003B2F"/><path d="M875.939 304.192C877.322 301.315 878.615 298.388 879.688 295.36C879.116 295.942 878.535 296.603 877.964 297.225C879.157 295.38 880.46 293.636 881.522 291.691C879.738 292.995 877.964 294.358 876.219 295.751C878.866 292.403 881.312 288.885 883.357 285.095C881.091 286.779 878.806 288.684 876.54 290.629C877.633 288.564 878.796 286.539 879.688 284.364C875.518 288.263 871.959 292.002 868.601 295.741C874.716 288.444 880.209 280.624 884.46 271.903C879.307 276.053 873.914 280.875 868.701 286.018C875.377 278.82 880.981 270.73 884.46 261.277C882.405 263.362 880.279 265.488 878.144 267.643C880.069 265.317 882.054 263.032 883.728 260.546C868.24 269.688 852.842 281.857 845.384 298.628C851.76 293.135 858.346 287.642 864.601 281.888C858.697 288.584 853.594 295.38 850.667 302.037C855.409 298.458 860 294.619 864.29 290.519C855.078 300.222 846.968 310.828 842.908 320.792C850.346 314.728 857.374 308.202 863.839 301.215C859.539 306.478 855.639 311.901 851.69 318.016C854.346 316.312 856.782 314.357 859.148 312.312C854.767 317.605 850.988 323.349 848.191 329.624C853.715 324.842 859.068 319.88 864.11 314.637C859.99 320.592 856.441 326.536 854.296 331.448C854.527 331.278 854.707 331.057 854.928 330.877C854.096 332.601 853.394 334.305 852.873 335.959C866.396 323.459 876.53 312.833 884.84 296.473C881.933 298.749 878.926 301.375 875.939 304.192Z" fill="#003B2F"/><path d="M855.414 364.359C866.461 354.384 874.751 341.884 880.054 327.629C867.212 340.601 850.201 360.59 843.344 373.541C847.635 370.814 851.624 367.777 855.303 364.469C850.361 369.12 845.409 373.902 841.169 379.415C839.244 381.741 835.375 385.51 834.703 387.074C841.61 383.606 848.116 379.435 854.121 374.584C862.27 369.18 875.453 354.354 876.024 340.841C870.972 349.994 863.193 357.031 855.414 364.359Z" fill="#003B2F"/><path d="M875.059 185.252C867.441 192.56 860.163 200.479 854.419 209.381C839.092 220.678 825.358 234.292 819.183 252.696C823.183 248.446 827.383 244.376 831.644 240.356C828.877 244.747 826.461 249.358 824.677 253.789C813.459 267.222 805.019 284.484 802.071 300.994C797.5 309.014 793.731 317.966 792.648 325.735C795.836 321.294 798.603 316.612 800.979 311.76C800.969 312.222 800.939 312.673 800.919 313.134C797.38 320.201 795.495 328.12 795.445 335.99C796.799 333.133 797.821 330.155 798.944 327.218C797.921 331.058 797.25 334.797 797.43 337.984C797.971 336.902 798.453 335.799 798.974 334.706C799.014 336.07 798.994 337.453 799.134 338.806C799.345 338.235 799.525 337.664 799.736 337.092C797.991 345.934 797.39 354.996 798.884 363.146C798.242 369.511 798.332 375.897 799.214 381.611C799.846 379.606 800.297 377.571 800.758 375.536C800.237 381.46 800.277 387.495 801.099 394.031C805.189 380.819 806.883 367.116 805.63 353.322C804.327 357.051 803.314 360.66 802.492 364.239C802.903 358.976 802.863 353.663 802.402 348.37C803.545 340.942 804.116 333.443 803.565 325.915C806.883 315.62 809.6 305.164 810.672 294.338C814.973 286.419 819.283 278.509 822.321 269.989C824.005 265.788 825.519 262.009 827.153 258.07C844.345 236.296 869.797 221.22 882.638 196.259C907.128 180.771 934.755 168.25 960.718 154.607C930.214 158.026 898.005 162.907 875.059 185.252Z" fill="#003B2F"/><path d="M810.379 387.395C809.477 389.46 808.705 391.585 807.954 393.72C809.146 388.036 809.638 382.212 809.277 376.398C809.207 376.578 809.156 376.789 809.086 376.969C809.126 374.704 809.136 372.428 808.916 370.163C804.946 381.641 803.142 391.114 803.052 402.963C803.412 402.191 803.643 401.379 803.974 400.597C803.854 402.662 803.753 404.707 803.834 406.612C804.325 405.549 804.656 404.426 805.077 403.334C803.823 408.456 802.911 413.649 802.34 418.751C808.314 409.529 810.6 398.301 810.379 387.395Z" fill="#003B2F"/><path d="M804.434 421.508C809.235 413.468 812.493 404.486 812.954 395.084C808.674 403.173 805.095 412.837 804.434 421.508Z" fill="#003B2F"/><path d="M896.769 174.806C880.309 193.312 862.065 210.193 845.915 228.969C829.756 247.744 815.531 268.836 807.953 292.814C800.434 323.128 798.71 354.866 802.92 385.811C803.081 387.004 803.632 388.518 804.825 388.458C806.018 388.397 804.685 386.042 804.434 387.215C806.78 398.382 807.261 409.94 805.206 421.508C809.156 419.102 814.499 421.819 816.985 425.708C819.471 429.608 820.112 434.36 821.666 438.72C823.581 444.053 827.069 448.955 831.971 451.782C832.823 452.273 833.806 452.704 834.758 452.454C835.58 452.233 836.182 451.551 836.683 450.86C843.971 440.855 839.52 426.591 843.239 414.782C844.492 410.802 846.657 407.173 848.572 403.474C854.917 391.234 858.676 377.852 862.395 364.569C859.769 360.68 860.31 354.966 861.483 348.209C862.927 341.563 864.36 334.927 865.804 328.281C866.105 326.877 866.415 325.444 866.275 324.01C866.125 322.477 865.463 321.033 865.192 319.509C863.679 310.918 874.645 304.092 873.763 295.411C871.979 295.832 870.235 294.198 869.864 292.403C869.483 290.609 870.084 288.774 870.706 287.05C879.026 264.024 892.689 242.943 909.631 224.808C913.089 223.275 916.548 221.741 920.006 220.207C916.227 223.756 912.588 227.445 909.099 231.274C912.397 229.269 915.826 227.505 919.364 225.971C917.179 229.219 914.984 232.467 912.798 235.715C916.828 233.099 920.848 230.492 924.878 227.876C921.891 229.991 919.535 232.978 918.161 236.367C922.362 232.858 927.013 229.891 931.965 227.555C927.344 231.425 923.124 235.765 919.405 240.507C922.953 238.231 926.502 235.946 930.05 233.67C926.161 237.088 922.763 241.078 920.006 245.459C926.592 240.396 933.749 236.086 941.318 232.648C937.99 235.324 934.662 238.001 931.334 240.677C940.396 235.595 949.458 230.512 959.061 228.026C957.136 229.37 955.483 231.084 954.199 233.049C957.036 231.284 960.254 230.131 963.562 229.7C962.089 232.688 960.274 235.505 958.189 238.101C963.632 234.723 969.567 232.116 975.752 230.412C973.937 232.878 972.123 235.344 970.309 237.8C975.421 235.525 980.534 233.249 985.646 230.984C983.11 233.48 980.955 236.367 979.301 239.514C983.601 238.181 987.902 236.858 992.202 235.525C989.756 237.159 987.751 239.454 986.468 242.101C988.894 242.091 991.32 241.82 993.686 241.299C993.054 242.321 991.741 242.883 990.558 242.622C994.067 239.484 998.838 237.8 1003.54 238.011C999.219 240.567 995.31 243.835 992.032 247.644C997.645 243.584 1003.27 239.514 1008.88 235.454C1004.9 238.101 1001.78 242.01 1000.07 246.471C1007.12 239.444 1015.71 233.971 1025.06 230.552C1025.01 231.605 1024.97 232.648 1024.92 233.7C1029.73 231.926 1034.36 229.64 1038.71 226.894C1037.68 228.447 1036.66 230.001 1035.64 231.555C1038.07 229.309 1040.51 227.064 1042.95 224.818C1043.11 226.232 1043.27 227.645 1043.43 229.059C1046.69 226.152 1050.6 223.956 1054.78 222.683C1054.16 225.661 1056.29 228.928 1060.84 228.939C1061.44 227.325 1062.03 225.721 1062.63 224.107C1064.91 225.059 1067.13 226.142 1069.28 227.365C1072.59 226.603 1076.12 226.863 1079.27 228.096C1081.55 230.362 1083.84 232.638 1086.11 234.903C1084.62 231.585 1083.56 228.066 1083.01 224.468C1085.54 226.633 1088.76 227.986 1092.07 228.277C1091.26 226.743 1090.46 225.199 1089.67 223.666C1091.87 225.139 1094.07 226.613 1096.27 228.096C1096.25 225.791 1096.23 223.485 1096.2 221.18C1111.22 221.851 1123.54 233.139 1133.02 244.827C1135.19 247.514 1137.3 250.251 1139.33 253.047C1151.17 269.317 1160.47 287.361 1167.45 306.227C1169.92 312.903 1172.11 319.74 1172.92 326.807C1173.85 334.847 1172.97 343.167 1175.35 350.906C1177.4 357.612 1181.81 363.597 1182.65 370.564C1183.38 376.729 1182.11 384.789 1186.6 387.245C1189.86 405.599 1193.92 423.824 1198.76 441.828C1203.1 434.139 1204.63 425.177 1208.23 417.117C1212.26 408.085 1218.86 400.206 1221.57 390.703C1224.21 381.44 1222.88 371.576 1222.25 361.963C1221.36 348.42 1221.9 334.817 1222.92 321.284C1223.48 313.966 1224 305.966 1219.3 296.995C1211.9 280.695 1204.5 264.395 1197.1 248.095C1193.66 240.527 1190.23 232.938 1185.92 225.821C1170.27 199.868 1144.28 181.753 1117.23 168.1C1071.97 145.244 1019.08 132.754 970.168 146.157C956.816 149.816 944.045 155.319 931.324 160.792C918.793 166.165 906.242 171.579 896.769 174.806Z" fill="#003B2F"/><path d="M1025.35 958.227C1047.07 935.862 1068.81 913.508 1090.53 891.143C1092.13 889.499 1093.77 887.805 1094.73 885.72C1097.53 879.675 1093.98 872.809 1092.78 866.263C1090.64 854.654 1096.2 842.876 1103.75 833.804C1111.3 824.731 1120.82 817.504 1128.74 808.763C1140.81 795.44 1148.82 779.03 1156.67 762.861C1162.82 750.2 1169.07 737.088 1169.71 723.023C1170.32 709.601 1165.73 695.977 1168.72 682.875C1182.86 701.932 1193.18 728.818 1203.31 755.332C1206.29 763.121 1209.28 770.97 1210.69 779.19C1212.28 788.463 1211.81 797.956 1211.22 807.339C1204.93 909.137 1186.67 1010.19 1156.94 1107.76C1114.1 1109.71 1070.75 1112.69 1027.74 1108.54C971.8 1103.15 915.603 1085.76 860.409 1096.3C852.75 1081.72 850.705 1069.36 848.66 1057.01C834.155 969.484 819.629 880.207 833.042 792.513C834.706 781.646 836.891 770.569 842.575 761.156C848.81 750.831 859.055 742.832 862.814 731.364C865.802 722.262 864.94 710.774 873.781 706.593C881.691 743.313 897.309 778.358 919.322 808.793C921.397 811.66 923.603 814.547 926.64 816.361C931.292 819.128 937.046 818.907 942.359 819.94C955.761 822.556 966.818 834.475 968.402 848.038C969.134 854.253 968.522 861.661 973.454 865.521C976.512 867.907 980.712 867.987 984.481 868.909C998.806 872.418 1006.38 887.805 1011.34 901.699C1017.88 920.134 1023.23 939 1025.35 958.227Z" fill="#03FC9D" stroke="#003B2F" stroke-width="3.00733" stroke-miterlimit="10" stroke-linecap="round" stroke-linejoin="round"/><path d="M830.631 908.616C852.404 884.006 873.225 858.544 893.013 832.31C896.842 827.238 901.333 821.704 908.531 822.346C913.683 823.759 917.092 828.481 920.34 832.721C923.588 836.961 927.738 841.342 933.081 841.522C933.692 841.542 934.334 841.502 934.875 841.212C936.509 840.34 936.359 837.994 936.118 836.159C935.577 832.019 935.807 827.779 936.79 823.709C936.99 822.897 937.251 822.035 937.933 821.544C938.444 821.173 939.105 821.083 939.737 821.012C941.351 820.822 942.965 820.621 944.579 820.431" stroke="#003B2F" stroke-width="3.00733" stroke-miterlimit="10" stroke-linecap="round" stroke-linejoin="round"/><path d="M1202.93 891.785C1183.74 868.468 1165.65 844.239 1148.73 819.218C1148.09 818.266 1147.42 817.283 1146.44 816.682C1145.53 816.12 1144.42 815.94 1143.35 815.91C1137.83 815.75 1132.87 819.108 1128.51 822.506C1121.94 827.639 1115.7 833.192 1109.87 839.147C1101.1 848.088 1092.71 859.757 1094.66 876.297C1098.2 881.34 1101.68 888.497 1097.56 893.088C1096.23 894.572 1094.26 895.474 1093.27 897.198C1091.43 900.386 1093.81 904.396 1093.31 908.025C1092.86 911.253 1090.24 913.678 1087.76 915.784C1074.33 927.161 1060.07 937.547 1045.1 946.799C1039.51 950.258 1033.77 953.606 1028.93 958.057C1020.47 965.856 1015.32 976.532 1010.82 987.118C994.899 1024.58 984.714 1064.48 980.725 1104.98" stroke="#003B2F" stroke-width="3.00733" stroke-miterlimit="10" stroke-linecap="round" stroke-linejoin="round"/><path d="M1027.82 1024.59C1033.64 1024.59 1038.35 1019.88 1038.35 1014.06C1038.35 1008.25 1033.64 1003.54 1027.82 1003.54C1022.01 1003.54 1017.3 1008.25 1017.3 1014.06C1017.3 1019.88 1022.01 1024.59 1027.82 1024.59Z" stroke="#003B2F" stroke-width="3.00733" stroke-miterlimit="10" stroke-linecap="round" stroke-linejoin="round"/><path d="M747.526 792.924C721.703 823.098 691.269 858.233 665.446 888.407C664.042 890.051 662.569 891.855 662.448 894.021C662.278 897.278 665.185 899.754 667.801 901.689C683.159 912.987 698.506 924.294 713.864 935.592C694.747 951.902 675.63 968.201 656.514 984.511C649.517 990.486 642.049 997.262 640.685 1006.36C639.773 1012.47 641.808 1018.58 643.823 1024.42C655.401 1058.05 666.979 1091.67 678.558 1125.3" stroke="#E6E8EA" stroke-width="3.00733" stroke-miterlimit="10" stroke-linecap="round" stroke-linejoin="round"/><path d="M452.674 909.939C451.641 942.148 465.535 972.652 475.239 1003.38C488.591 1045.65 494.265 1090.33 491.919 1134.61" stroke="#E6E8EA" stroke-width="3.00733" stroke-miterlimit="10" stroke-linecap="round" stroke-linejoin="round"/><path d="M1300.29 804.823C1323.67 838.395 1347.05 871.967 1370.42 905.539C1372.01 907.824 1376.04 915.122 1375.37 917.818C1374.69 920.515 1371.96 922.089 1369.47 923.362C1352.21 932.163 1334.95 940.975 1317.69 949.776C1329 975.299 1366.69 979.148 1380.02 1003.69C1389 1020.23 1383.82 1040.93 1375.37 1057.75C1366.92 1074.57 1355.28 1090.16 1351.01 1108.49" stroke="#E6E8EA" stroke-width="3.00733" stroke-miterlimit="10" stroke-linecap="round" stroke-linejoin="round"/><path d="M1603.66 935.301C1588.43 960.723 1585.96 991.628 1575.47 1019.35C1572.16 1028.1 1568.05 1036.52 1564.51 1045.18C1558.44 1060.06 1554.1 1075.63 1551.61 1091.49" stroke="#E6E8EA" stroke-width="3.00733" stroke-miterlimit="10" stroke-linecap="round" stroke-linejoin="round"/></g><defs><clipPath id="clip0_172_486"><rect width="1920" height="1080" fill="white"/></clipPath></defs></svg>