<svg width="1920" height="1080" viewBox="0 0 1920 1080" fill="none" xmlns="http://www.w3.org/2000/svg"><path d="M574.715 125.058L601.213 140.328" stroke="#003B2F" stroke-width="3" stroke-linecap="round" stroke-linejoin="round"/><path d="M627.712 125.058L612.218 134.04" stroke="#003B2F" stroke-width="3" stroke-linecap="round" stroke-linejoin="round"/><path d="M601.214 140.327V171.315" stroke="#003B2F" stroke-width="3" stroke-linecap="round" stroke-linejoin="round"/><path d="M682.055 369.256V307.168H639.276V511.845C642.981 462.331 657.241 413.604 682.055 369.256Z" fill="#03FC9D"/><path d="M639.276 562.705V673.97H666.448C651.065 638.378 641.971 600.654 639.276 562.705Z" fill="#03FC9D"/><path d="M660.72 669.928V706.529" stroke="#03FC9D" stroke-width="3" stroke-linecap="round" stroke-linejoin="round"/><path d="M660.72 266.861V395.753" stroke="#03FC9D" stroke-width="3" stroke-linecap="round" stroke-linejoin="round"/><path d="M1673.03 259.338H1630.25V471.426H1673.03V259.338Z" fill="#03FC9D"/><path d="M1651.58 218.92V508.589" stroke="#03FC9D" stroke-width="3" stroke-linecap="round" stroke-linejoin="round"/><path d="M1449.37 295.154H1406.59V435.835H1449.37V295.154Z" fill="#03FC9D"/><path d="M1428.04 279.66V448.409" stroke="#03FC9D" stroke-width="3" stroke-linecap="round" stroke-linejoin="round"/><path d="M627.71 549.569H584.932V589.876H627.71V549.569Z" fill="#E6E8EA"/><path d="M606.379 536.321V601.665" stroke="#E6E8EA" stroke-width="3" stroke-linecap="round" stroke-linejoin="round"/><path d="M353.75 730.669H310.972V791.409H353.75V730.669Z" fill="#E6E8EA"/><path d="M332.417 717.42V811.394" stroke="#E6E8EA" stroke-width="3" stroke-linecap="round" stroke-linejoin="round"/><path d="M517.454 597.286H474.676V621.313H517.454V597.286Z" fill="#E6E8EA"/><path d="M496.008 584.038V633.214" stroke="#E6E8EA" stroke-width="3" stroke-linecap="round" stroke-linejoin="round"/><path d="M1393.23 377.339H1350.45V401.366H1393.23V377.339Z" fill="#E6E8EA"/><path d="M1371.78 338.829V434.487" stroke="#E6E8EA" stroke-width="3" stroke-linecap="round" stroke-linejoin="round"/><path d="M1503.26 408.215H1460.48V432.242H1503.26V408.215Z" fill="#E6E8EA"/><path d="M1481.93 369.817V423.26" stroke="#E6E8EA" stroke-width="3" stroke-linecap="round" stroke-linejoin="round"/><path d="M1293.98 387.893V390.139C1302.17 407.541 1308.91 425.393 1313.96 443.582H1336.75V387.893H1293.98Z" fill="#E6E8EA"/><path d="M1315.42 349.495V423.821" stroke="#E6E8EA" stroke-width="3" stroke-linecap="round" stroke-linejoin="round"/><path d="M570.787 554.733H528.008V629.396H570.787V554.733Z" fill="#E6E8EA"/><path d="M549.453 541.485V649.381" stroke="#E6E8EA" stroke-width="3" stroke-linecap="round" stroke-linejoin="round"/><path d="M1733.21 303.351H1690.43V378.013H1733.21V303.351Z" fill="#03FC9D"/><path d="M1711.88 290.214V397.998" stroke="#03FC9D" stroke-width="3" stroke-linecap="round" stroke-linejoin="round"/><path d="M295.591 761.993H252.812V836.656H295.591V761.993Z" fill="#03FC9D"/><path d="M274.145 748.745V856.641" stroke="#03FC9D" stroke-width="3" stroke-linecap="round" stroke-linejoin="round"/><path d="M1557.38 372.512H1514.6V427.414H1557.38V372.512Z" fill="#03FC9D"/><path d="M1535.93 356.119V436.957" stroke="#03FC9D" stroke-width="3" stroke-linecap="round" stroke-linejoin="round"/><path d="M1613.18 359.6H1570.4V389.016H1613.18V359.6Z" fill="#03FC9D"/><path d="M1591.85 344.106V404.398" stroke="#03FC9D" stroke-width="3" stroke-linecap="round" stroke-linejoin="round"/><path d="M464.568 558.214H421.79V694.74H464.568V558.214Z" fill="#03FC9D"/><path d="M443.125 529.36V711.245" stroke="#03FC9D" stroke-width="3" stroke-linecap="round" stroke-linejoin="round"/><path d="M409.216 666.111H366.438V802.637H409.216V666.111Z" fill="#03FC9D"/><path d="M387.772 637.368V819.141" stroke="#03FC9D" stroke-width="3" stroke-linecap="round" stroke-linejoin="round"/><path d="M1326.98 530.482L1832.91 339.503" stroke="#003B2F" stroke-width="7" stroke-linecap="round" stroke-linejoin="round"/><path d="M196.673 787.816L443.179 511.845" stroke="#003B2F" stroke-width="7" stroke-linecap="round" stroke-linejoin="round"/><path d="M77.7686 543.506H151.873" stroke="#003B2F" stroke-width="3" stroke-linecap="round" stroke-linejoin="round"/><path d="M88.5469 490.064H280.544" stroke="#03FC9D" stroke-width="3" stroke-linecap="round" stroke-linejoin="round"/><path d="M1195.96 165.926H1283.87C1293.53 165.926 1301.39 173.785 1301.39 183.441C1301.39 193.096 1293.53 200.955 1283.87 200.955H1195.96C1186.3 200.955 1178.44 193.096 1178.44 183.441C1178.44 173.785 1186.3 165.926 1195.96 165.926Z" fill="#03FC9D"/><path d="M1016.53 99.3469H1224.02C1246.93 99.3469 1265.46 117.872 1265.46 140.776C1265.46 163.68 1246.93 182.206 1224.02 182.206H1016.53C993.628 182.206 975.102 163.68 975.102 140.776C975.102 117.872 993.628 99.3469 1016.53 99.3469Z" fill="#E6E8EA"/><path d="M1586.01 873.145H1531.44C1548.73 873.145 1562.77 860.458 1562.77 844.739C1562.77 829.021 1548.73 816.334 1531.44 816.334H1374.7C1357.41 816.334 1343.38 829.021 1343.38 844.739H1295.21C1277.92 844.739 1263.88 857.426 1263.88 873.145C1263.88 888.863 1277.92 901.55 1295.21 901.55H1397.94C1397.94 917.269 1411.98 929.956 1429.27 929.956H1586.01C1603.3 929.956 1617.34 917.269 1617.34 901.55C1617.34 885.832 1603.3 873.145 1586.01 873.145Z" fill="#E6E8EA"/><path d="M1511.46 113.606H1550.53" stroke="#003B2F" stroke-width="3" stroke-linecap="round" stroke-linejoin="round"/><path d="M1651.02 90.4774H1842.23" stroke="#00FF94" stroke-width="3" stroke-linecap="round" stroke-linejoin="round"/><path d="M1601.06 113.494H1759.48" stroke="#003B2F" stroke-width="3" stroke-linecap="round" stroke-linejoin="round"/><path d="M1675.67 717.42L1686.45 740.324" stroke="#003B2F" stroke-width="3" stroke-linecap="round" stroke-linejoin="round"/><path d="M1694.31 757.165L1705.08 780.069" stroke="#003B2F" stroke-width="3" stroke-linecap="round" stroke-linejoin="round"/><path d="M1659.05 763.453L1682.07 752.675" stroke="#003B2F" stroke-width="3" stroke-linecap="round" stroke-linejoin="round"/><path d="M1698.8 744.815L1721.82 734.037" stroke="#003B2F" stroke-width="3" stroke-linecap="round" stroke-linejoin="round"/><path d="M979.368 824.193C1143.63 818.916 1272.53 681.492 1267.36 517.234C1262.09 352.976 1124.66 224.084 960.393 229.249C796.128 234.526 667.232 371.95 672.397 536.208C677.674 700.466 815.104 829.358 979.368 824.193Z" fill="#03FC9D"/><path d="M1005.08 845.637C1169.34 840.36 1298.24 702.936 1293.08 538.678C1287.8 374.42 1150.37 245.528 986.105 250.693C821.841 255.97 692.945 393.394 698.109 557.652C703.387 721.91 840.816 850.802 1005.08 845.637Z" stroke="#003B2F" stroke-width="3" stroke-linecap="round" stroke-linejoin="round"/><path fill-rule="evenodd" clip-rule="evenodd" d="M999.536 415.737C1085.94 425.662 1125.41 471.123 1125.41 556.264C1125.41 634.257 1094.29 681.913 1021.77 696.791H899.024V571.845H865.772V540.877H899.024V415.737H999.536ZM995.496 467.715L952.512 468.119L952.495 540.877H1012.11V571.863L952.495 571.845V643.988L995.496 644.726C1056.92 638.578 1071.73 604.851 1071.73 556.053C1071.73 502.776 1040.99 473.933 995.496 467.715Z" fill="#003B2F"/><path d="M1476.28 634.362C1506.63 667.248 1557.91 669.384 1590.75 639.135C1623.64 608.782 1625.77 557.507 1595.52 524.663C1565.27 491.819 1513.89 489.641 1481.05 519.89C1448.2 550.139 1446.02 601.518 1476.28 634.362Z" fill="#03FC9D"/><path d="M1476.46 643.412C1506.82 676.299 1558.09 678.434 1590.94 648.185C1623.78 617.936 1625.96 566.557 1595.71 533.713C1565.35 500.827 1514.08 498.691 1481.23 528.94C1448.39 559.189 1446.21 610.568 1476.46 643.412Z" stroke="#003B2F" stroke-width="3" stroke-linecap="round" stroke-linejoin="round"/><path fill-rule="evenodd" clip-rule="evenodd" d="M1556.13 542.898C1581.22 556.667 1587.59 575.424 1577 601.36C1567.3 625.119 1551.89 635.765 1527.95 631.28L1490.56 616.015L1506.1 577.953L1495.97 573.818L1499.82 564.384L1509.95 568.519L1525.51 530.398L1556.13 542.898ZM1548.43 558.229L1535.29 553.007L1526.24 575.169L1544.4 582.583L1540.54 592.022L1522.39 584.602L1513.41 606.579L1526.42 612.152C1545.9 617.918 1554.6 609.485 1560.67 594.62C1567.3 578.39 1561.52 565.781 1548.43 558.229Z" fill="#003B2F"/><path d="M338.874 365.877C408.791 378.291 475.624 331.772 488.085 262.029C500.501 192.115 453.982 125.285 384.237 112.825C314.493 100.365 247.487 146.93 235.026 216.673C222.565 286.415 269.13 353.418 338.874 365.877Z" fill="#03FC9D"/><path d="M347.797 377.132C417.713 389.546 484.547 343.027 497.008 273.284C509.469 203.542 462.904 136.539 393.159 124.08C323.243 111.666 256.41 158.185 243.948 227.928C231.487 297.67 278.052 364.672 347.797 377.132Z" stroke="#003B2F" stroke-width="3" stroke-linecap="round" stroke-linejoin="round"/><path fill-rule="evenodd" clip-rule="evenodd" d="M351.97 173.673C396.882 166.989 422.935 184.572 434.452 227.504C445.003 266.83 435.755 295.071 401.204 312.383L339.309 328.988L322.406 265.985L305.639 270.484L301.45 254.868L318.217 250.37L301.288 187.27L351.97 173.673ZM356.965 200.429L335.345 206.447L345.179 243.137L375.241 235.072L379.433 250.696L349.368 258.752L359.128 295.129L380.91 289.684C411.053 278.274 413.957 259.265 407.356 234.659C400.149 207.795 380.746 197.409 356.965 200.429Z" fill="#003B2F"/><path d="M600.958 946.366C653.668 951.387 700.542 912.794 705.609 860.211C710.632 807.503 672.039 760.631 619.454 755.566C566.87 750.5 519.871 789.137 514.803 841.72C509.736 894.303 548.374 941.3 600.958 946.366Z" fill="#03FC9D"/><path d="M608.267 954.194C660.976 959.215 707.85 920.623 712.918 868.039C717.985 815.456 679.347 768.46 626.763 763.394C574.053 758.373 527.179 796.965 522.112 849.548C517.045 902.132 555.682 949.128 608.267 954.194Z" stroke="#003B2F" stroke-width="3" stroke-linecap="round" stroke-linejoin="round"/><path fill-rule="evenodd" clip-rule="evenodd" d="M599.133 802.729C632.11 795.06 652.53 806.562 663.672 837.777C673.878 866.37 668.703 887.916 644.066 902.859L599.063 918.923L582.712 873.115L570.521 877.467L566.468 866.113L578.659 861.762L562.283 815.883L599.133 802.729ZM604.453 822.314L588.748 828.087L598.263 854.764L620.12 846.962L624.175 858.322L602.315 866.118L611.756 892.567L627.618 887.21C649.334 876.917 650.35 862.615 643.964 844.724C636.991 825.192 621.947 818.64 604.453 822.314Z" fill="#003B2F"/></svg>