<svg width="1920" height="1080" viewBox="0 0 1920 1080" fill="none" xmlns="http://www.w3.org/2000/svg"><path d="M1751.13 652.228L1777.77 667.609" stroke="#003B2F" stroke-width="3" stroke-linecap="round" stroke-linejoin="round"/><path d="M1804.29 652.228L1788.67 661.21" stroke="#003B2F" stroke-width="3" stroke-linecap="round" stroke-linejoin="round"/><path d="M1777.77 667.609V698.485" stroke="#003B2F" stroke-width="3" stroke-linecap="round" stroke-linejoin="round"/><path d="M757.838 381.085V318.997H715.019V523.674C718.728 474.16 733.001 425.433 757.838 381.085Z" fill="#03FC9D"/><path d="M715.019 574.534V685.799H742.216C726.82 650.207 717.716 612.483 715.019 574.534Z" fill="#03FC9D"/><path d="M736.371 677.715V718.358" stroke="#03FC9D" stroke-width="3" stroke-linecap="round" stroke-linejoin="round"/><path d="M736.371 278.69V371.429" stroke="#03FC9D" stroke-width="3" stroke-linecap="round" stroke-linejoin="round"/><path d="M1749.64 271.167H1706.82V568.92H1749.64V271.167Z" fill="#03FC9D"/><path d="M1728.29 230.749V596.54" stroke="#03FC9D" stroke-width="3" stroke-linecap="round" stroke-linejoin="round"/><path d="M1525.88 306.983H1483.06V447.663H1525.88V306.983Z" fill="#03FC9D"/><path d="M1504.41 291.489V460.238" stroke="#03FC9D" stroke-width="3" stroke-linecap="round" stroke-linejoin="round"/><path d="M645.115 589.354H602.296V641.45H645.115V589.354Z" fill="#E6E8EA"/><path d="M623.761 576.106V657.954" stroke="#E6E8EA" stroke-width="3" stroke-linecap="round" stroke-linejoin="round"/><path d="M701.533 569.931H658.714V610.237H701.533V569.931Z" fill="#E6E8EA"/><path d="M680.066 556.682V622.026" stroke="#E6E8EA" stroke-width="3" stroke-linecap="round" stroke-linejoin="round"/><path d="M425.514 734.189H382.695V794.929H425.514V734.189Z" fill="#E6E8EA"/><path d="M404.047 720.94V814.914" stroke="#E6E8EA" stroke-width="3" stroke-linecap="round" stroke-linejoin="round"/><path d="M480.919 745.529H438.1V769.555H480.919V745.529Z" fill="#E6E8EA"/><path d="M459.567 732.28V781.457" stroke="#E6E8EA" stroke-width="3" stroke-linecap="round" stroke-linejoin="round"/><path d="M1469.57 389.168H1426.75V413.195H1469.57V389.168Z" fill="#E6E8EA"/><path d="M1448.22 350.658V446.316" stroke="#E6E8EA" stroke-width="3" stroke-linecap="round" stroke-linejoin="round"/><path d="M1579.82 401.294H1537V451.48H1579.82V401.294Z" fill="#E6E8EA"/><path d="M1558.36 381.645V474.834" stroke="#E6E8EA" stroke-width="3" stroke-linecap="round" stroke-linejoin="round"/><path d="M1370.34 399.722V401.968C1378.54 419.37 1385.29 437.222 1390.34 455.41H1413.16V399.722H1370.34Z" fill="#E6E8EA"/><path d="M1391.69 361.324V435.65" stroke="#E6E8EA" stroke-width="3" stroke-linecap="round" stroke-linejoin="round"/><path d="M528.795 677.715H485.977V752.377H528.795V677.715Z" fill="#E6E8EA"/><path d="M507.331 664.466V772.25" stroke="#E6E8EA" stroke-width="3" stroke-linecap="round" stroke-linejoin="round"/><path d="M1809.99 315.179H1767.17V389.842H1809.99V315.179Z" fill="#03FC9D"/><path d="M1788.52 302.043V409.827" stroke="#03FC9D" stroke-width="3" stroke-linecap="round" stroke-linejoin="round"/><path d="M366.624 723.747H323.805V798.41H366.624V723.747Z" fill="#03FC9D"/><path d="M345.27 710.611V818.395" stroke="#03FC9D" stroke-width="3" stroke-linecap="round" stroke-linejoin="round"/><path d="M1633.88 425.77H1591.06V491.114H1633.88V425.77Z" fill="#E6E8EA"/><path d="M1612.53 401.294V508.179" stroke="#E6E8EA" stroke-width="3" stroke-linecap="round" stroke-linejoin="round"/><path d="M1689.85 371.429H1647.03V508.292H1689.85V371.429Z" fill="#03FC9D"/><path d="M1668.38 355.935V561.173" stroke="#03FC9D" stroke-width="3" stroke-linecap="round" stroke-linejoin="round"/><path d="M586.9 561.959H544.082V698.485H586.9V561.959Z" fill="#03FC9D"/><path d="M565.546 533.217V714.99" stroke="#03FC9D" stroke-width="3" stroke-linecap="round" stroke-linejoin="round"/><path d="M307.847 690.289H265.028V936.508H307.847V690.289Z" fill="#03FC9D"/><path d="M286.38 644.256V989.501" stroke="#03FC9D" stroke-width="3" stroke-linecap="round" stroke-linejoin="round"/><path d="M265.028 961.096L602.296 720.94" stroke="#003B2F" stroke-width="7" stroke-linecap="round" stroke-linejoin="round"/><path d="M1336.73 345.718L1728.28 184.716" stroke="#003B2F" stroke-width="7" stroke-linecap="round" stroke-linejoin="round"/><path d="M369.658 256.347H282.672C273.051 256.347 265.252 264.113 265.252 273.694C265.252 283.274 273.051 291.04 282.672 291.04H369.658C379.279 291.04 387.078 283.274 387.078 273.694C387.078 264.113 379.279 256.347 369.658 256.347Z" fill="#03FC9D"/><path d="M322.567 207.619H179.951C164.247 207.619 151.517 220.337 151.517 236.025C151.517 251.713 164.247 264.431 179.951 264.431H322.567C338.271 264.431 351.001 251.713 351.001 236.025C351.001 220.337 338.271 207.619 322.567 207.619Z" fill="#03FC9D"/><path d="M189.055 465.403H405.06" stroke="#003B2F" stroke-width="3" stroke-linecap="round" stroke-linejoin="round"/><path d="M132.75 465.403H151.519" stroke="#003C2E" stroke-width="3" stroke-linecap="round" stroke-linejoin="round"/><path d="M296.046 406.01H488.225" stroke="#03FC9D" stroke-width="3" stroke-linecap="round" stroke-linejoin="round"/><path d="M1167.6 162.036H1206.71" stroke="#003B2F" stroke-width="3" stroke-linecap="round" stroke-linejoin="round"/><path d="M1310.1 119.148H1501.49" stroke="#03FC9D" stroke-width="3" stroke-linecap="round" stroke-linejoin="round"/><path d="M1257.28 161.924H1415.85" stroke="#003B2F" stroke-width="3" stroke-linecap="round" stroke-linejoin="round"/><path d="M832.124 942.122H801.555" stroke="#003B2F" stroke-width="3" stroke-linecap="round" stroke-linejoin="round"/><path d="M749.071 884.974H528.121" stroke="#03FC9D" stroke-width="3" stroke-linecap="round" stroke-linejoin="round"/><path d="M762.108 941.897H638.597" stroke="#003B2F" stroke-width="3" stroke-linecap="round" stroke-linejoin="round"/><path d="M1746.41 853.293H1691.79C1709.1 853.293 1723.15 840.606 1723.15 824.888C1723.15 809.169 1709.1 796.482 1691.79 796.482H1534.9C1517.6 796.482 1503.55 809.169 1503.55 824.888H1455.33C1438.03 824.888 1423.98 837.575 1423.98 853.293C1423.98 869.012 1438.03 881.699 1455.33 881.699H1558.17C1558.17 897.417 1572.21 910.104 1589.52 910.104H1746.41C1763.72 910.104 1777.77 897.417 1777.77 881.699C1777.77 865.98 1763.72 853.293 1746.41 853.293Z" fill="#E6E8EA"/><path d="M1323.2 645.401C1376.87 489.897 1294.45 320.373 1139.14 266.661C983.781 213.055 814.327 295.645 760.553 451.108C706.884 606.612 789.302 776.136 944.616 829.848C1099.97 883.454 1269.42 800.864 1323.2 645.401Z" fill="#03FC9D"/><path d="M1352.45 628.892C1406.12 473.389 1323.7 303.864 1168.38 250.152C1013.03 196.546 843.576 279.136 789.802 434.599C736.133 590.103 818.551 759.627 973.865 813.338C1129.22 866.945 1298.67 784.356 1352.45 628.892Z" stroke="#003B2F" stroke-width="3" stroke-linecap="round" stroke-linejoin="round"/><path d="M1071.13 418.918C1108.13 418.918 1138.13 400.656 1138.13 378.128C1138.13 355.6 1108.13 337.338 1071.13 337.338C1034.12 337.338 1004.12 355.6 1004.12 378.128C1004.12 400.656 1034.12 418.918 1071.13 418.918Z" fill="#003B2F"/><path d="M1071.13 726.153C1108.13 726.153 1138.13 707.891 1138.13 685.363C1138.13 662.835 1108.13 644.573 1071.13 644.573C1034.12 644.573 1004.12 662.835 1004.12 685.363C1004.12 707.891 1034.12 726.153 1071.13 726.153Z" fill="#003B2F"/><path d="M978.159 474.669C997.305 441.508 997.524 405.79 978.648 394.893C959.772 383.995 928.95 402.043 909.804 435.204C890.658 468.366 890.439 504.083 909.315 514.981C928.191 525.879 959.013 507.83 978.159 474.669Z" fill="#003B2F"/><path d="M1232.44 628.287C1251.59 595.125 1251.81 559.408 1232.93 548.51C1214.06 537.612 1183.24 555.66 1164.09 588.822C1144.94 621.983 1144.73 657.7 1163.6 668.598C1182.48 679.496 1213.3 661.448 1232.44 628.287Z" fill="#003B2F"/><path d="M978.648 668.598C997.524 657.7 997.305 621.983 978.159 588.822C959.013 555.66 928.191 537.612 909.315 548.51C890.439 559.408 890.658 595.125 909.804 628.287C928.95 661.448 959.772 679.496 978.648 668.598Z" fill="#003B2F"/><path d="M1232.93 514.981C1251.81 504.083 1251.59 468.366 1232.44 435.204C1213.3 402.043 1182.48 383.995 1163.6 394.893C1144.73 405.79 1144.94 441.508 1164.09 474.669C1183.24 507.83 1214.06 525.879 1232.93 514.981Z" fill="#003B2F"/><path d="M1516.88 857.526C1570.18 853.455 1609.97 806.937 1605.88 753.687C1601.79 700.437 1555.21 660.671 1501.91 664.742C1448.61 668.812 1408.83 715.33 1412.92 768.58C1417.01 821.831 1463.58 861.596 1516.88 857.526Z" fill="#03FC9D"/><path d="M1525.45 853.635C1578.75 849.565 1618.54 803.047 1614.44 749.796C1610.35 696.546 1563.78 656.781 1510.48 660.851C1457.18 664.922 1417.39 711.44 1421.48 764.69C1425.57 817.94 1472.15 857.705 1525.45 853.635Z" stroke="#003B2F" stroke-width="3" stroke-linecap="round" stroke-linejoin="round"/><path d="M1523.48 721.897C1535.07 723.705 1545.36 719.45 1546.46 712.393C1547.56 705.335 1539.06 698.148 1527.47 696.339C1515.88 694.531 1505.59 698.786 1504.48 705.843C1503.38 712.901 1511.89 720.088 1523.48 721.897Z" fill="#003B2F"/><path d="M1508.46 818.147C1520.06 819.956 1530.35 815.701 1531.45 808.643C1532.55 801.586 1524.04 794.398 1512.45 792.59C1500.86 790.781 1490.57 795.036 1489.47 802.094C1488.37 809.151 1496.87 816.339 1508.46 818.147Z" fill="#003B2F"/><path d="M1491.63 734.818C1499.25 725.365 1501.06 714.187 1495.68 709.85C1490.3 705.513 1479.76 709.661 1472.15 719.114C1464.53 728.567 1462.71 739.746 1468.09 744.082C1473.47 748.419 1484.01 744.271 1491.63 734.818Z" fill="#003B2F"/><path d="M1563.78 795.372C1571.4 785.919 1573.22 774.741 1567.84 770.404C1562.46 766.067 1551.92 770.215 1544.3 779.668C1536.68 789.121 1534.87 800.3 1540.25 804.636C1545.63 808.973 1556.17 804.825 1563.78 795.372Z" fill="#003B2F"/><path d="M1482.31 795.596C1488.75 793.105 1490.43 781.905 1486.05 770.58C1481.67 759.256 1472.9 752.095 1466.45 754.586C1460.01 757.078 1458.33 768.278 1462.71 779.603C1467.09 790.927 1475.86 798.088 1482.31 795.596Z" fill="#003B2F"/><path d="M1569.48 759.9C1575.92 757.408 1577.6 746.208 1573.22 734.884C1568.85 723.559 1560.07 716.398 1553.63 718.89C1547.18 721.381 1545.5 732.582 1549.88 743.906C1554.26 755.231 1563.03 762.391 1569.48 759.9Z" fill="#003B2F"/><path d="M557.83 366.269C616.2 361.811 659.775 310.867 655.295 252.55C650.816 194.233 599.811 150.685 541.441 155.142C483.071 159.6 439.497 210.544 443.976 268.861C448.455 327.178 499.46 370.727 557.83 366.269Z" fill="#03FC9D"/><path d="M567.214 362.008C625.585 357.55 669.159 306.606 664.68 248.29C660.2 189.973 609.195 146.424 550.825 150.882C492.455 155.339 448.88 206.283 453.36 264.6C457.839 322.917 508.844 366.466 567.214 362.008Z" stroke="#003B2F" stroke-width="3" stroke-linecap="round" stroke-linejoin="round"/><path d="M565.059 217.735C577.755 219.716 589.024 215.056 590.23 207.327C591.436 199.598 582.122 191.727 569.426 189.746C556.731 187.765 545.462 192.425 544.256 200.154C543.05 207.883 552.364 215.755 565.059 217.735Z" fill="#003B2F"/><path d="M548.614 323.144C561.309 325.124 572.578 320.464 573.784 312.735C574.99 305.006 565.676 297.135 552.98 295.154C540.285 293.174 529.016 297.834 527.81 305.563C526.604 313.292 535.918 321.163 548.614 323.144Z" fill="#003B2F"/><path d="M530.179 231.886C538.523 221.534 540.51 209.292 534.617 204.542C528.725 199.793 517.184 204.335 508.84 214.688C500.496 225.04 498.509 237.283 504.402 242.032C510.295 246.781 521.836 242.239 530.179 231.886Z" fill="#003B2F"/><path d="M609.199 298.202C617.543 287.85 619.53 275.607 613.637 270.858C607.745 266.109 596.204 270.651 587.86 281.003C579.516 291.356 577.529 303.598 583.422 308.347C589.315 313.097 600.856 308.554 609.199 298.202Z" fill="#003B2F"/><path d="M519.967 298.447C527.026 295.719 528.863 283.453 524.069 271.051C519.276 258.649 509.667 250.807 502.608 253.535C495.548 256.264 493.712 268.53 498.505 280.932C503.299 293.334 512.908 301.176 519.967 298.447Z" fill="#003B2F"/><path d="M615.432 259.354C622.492 256.626 624.328 244.36 619.535 231.958C614.741 219.556 605.132 211.714 598.073 214.442C591.014 217.171 589.177 229.437 593.971 241.839C598.764 254.241 608.373 262.083 615.432 259.354Z" fill="#003B2F"/><path d="M1634 170.691C1660.9 158.854 1673.05 127.464 1661.21 100.59C1649.38 73.7156 1617.96 61.5883 1591.06 73.4256C1564.15 85.263 1552.01 116.652 1563.84 143.527C1575.68 170.401 1607.1 182.528 1634 170.691Z" fill="#03FC9D"/><path d="M1637.73 167.109C1664.64 155.272 1676.79 123.883 1664.95 97.0084C1653.11 70.134 1621.7 58.0066 1594.79 69.844C1567.89 81.6813 1555.74 113.071 1567.58 139.945C1579.42 166.819 1610.83 178.947 1637.73 167.109Z" stroke="#003B2F" stroke-width="3" stroke-linecap="round" stroke-linejoin="round"/><path d="M1612.67 99.1363C1619.02 97.9591 1623.58 93.8742 1622.86 90.0126C1622.14 86.1509 1616.42 83.9748 1610.08 85.1521C1603.74 86.3293 1599.17 90.4142 1599.89 94.2758C1600.61 98.1374 1606.33 100.314 1612.67 99.1363Z" fill="#003B2F"/><path d="M1622.45 151.801C1628.79 150.624 1633.35 146.539 1632.64 142.678C1631.92 138.816 1626.2 136.64 1619.85 137.817C1613.51 138.994 1608.95 143.079 1609.67 146.941C1610.38 150.803 1616.11 152.979 1622.45 151.801Z" fill="#003B2F"/><path d="M1598.51 111.651C1600.74 105.357 1599.64 99.2277 1596.06 97.9601C1592.48 96.6926 1587.77 100.767 1585.54 107.06C1583.31 113.354 1584.41 119.483 1587.99 120.751C1591.58 122.019 1596.28 117.944 1598.51 111.651Z" fill="#003B2F"/><path d="M1646.99 129.893C1649.21 123.6 1648.12 117.47 1644.53 116.203C1640.95 114.935 1636.24 119.009 1634.01 125.303C1631.79 131.596 1632.89 137.726 1636.47 138.993C1640.05 140.261 1644.76 136.187 1646.99 129.893Z" fill="#003B2F"/><path d="M1604.77 144.878C1607.65 142.409 1606.48 136.294 1602.14 131.218C1597.81 126.143 1591.95 124.03 1589.06 126.499C1586.17 128.967 1587.34 135.083 1591.68 140.158C1596.02 145.233 1601.88 147.346 1604.77 144.878Z" fill="#003B2F"/><path d="M1643.47 110.455C1646.36 107.986 1645.18 101.871 1640.84 96.7956C1636.51 91.7204 1630.65 89.6072 1627.76 92.0758C1624.87 94.5445 1626.05 100.66 1630.38 105.735C1634.72 110.811 1640.58 112.924 1643.47 110.455Z" fill="#003B2F"/></svg>