<svg width="1920" height="1081" viewBox="0 0 1920 1081" fill="none" xmlns="http://www.w3.org/2000/svg"><g clip-path="url(#clip0_885_2580)"><path d="M506.067 166.576L413.943 219.765L506.067 272.872L598.109 219.765L506.067 166.576Z" fill="#03FC9D"/><path d="M506.068 272.871V379.167L598.11 326.06V219.764L506.068 272.871Z" fill="#03FC9D"/><path d="M506.067 272.871V379.167L413.943 326.06V219.764L506.067 272.871Z" fill="#03FC9D"/><path d="M615.133 209.993L506.067 147.029L396.92 209.993" stroke="#003B2F" stroke-width="3.4585" stroke-linecap="round" stroke-linejoin="round"/><path d="M506.068 272.871L615.134 209.99V272.871" stroke="#003B2F" stroke-width="3.4585" stroke-linecap="round" stroke-linejoin="round"/><path d="M506.068 272.872V398.799" stroke="#003B2F" stroke-width="3.4585" stroke-linecap="round" stroke-linejoin="round"/><path d="M506.067 272.871L396.92 209.99" stroke="#003B2F" stroke-width="3.4585" stroke-linecap="round" stroke-linejoin="round"/><path d="M396.92 299.425V209.99" stroke="#003B2F" stroke-width="3.4585" stroke-linecap="round" stroke-linejoin="round"/><path d="M506.067 398.8L425.021 352.046" stroke="#003B2F" stroke-width="3.4585" stroke-linecap="round" stroke-linejoin="round"/><path d="M506.069 398.8L587.034 352.046" stroke="#003B2F" stroke-width="3.4585" stroke-linecap="round" stroke-linejoin="round"/><path d="M1442.53 163.97L1350.41 217.077L1442.53 270.185L1534.57 217.077L1442.53 163.97Z" fill="#E6E8EA"/><path d="M1442.53 270.183V376.479L1534.58 323.371V217.075L1442.53 270.183Z" fill="#E6E8EA"/><path d="M1442.53 270.183V376.479L1350.41 323.371V217.075L1442.53 270.183Z" fill="#E6E8EA"/><path d="M1551.6 207.302L1442.53 144.339L1333.38 207.302" stroke="#003B2F" stroke-width="3.4585" stroke-linecap="round" stroke-linejoin="round"/><path d="M1551.6 296.821V207.304" stroke="#003B2F" stroke-width="3.4585" stroke-linecap="round" stroke-linejoin="round"/><path d="M1442.53 396.111L1523.5 349.357" stroke="#003B2F" stroke-width="3.4585" stroke-linecap="round" stroke-linejoin="round"/><path d="M1551.6 207.304L1442.53 270.186" stroke="#003B2F" stroke-width="3.4585" stroke-linecap="round" stroke-linejoin="round"/><path d="M1442.53 270.183V396.109" stroke="#003B2F" stroke-width="3.4585" stroke-linecap="round" stroke-linejoin="round"/><path d="M1442.53 270.186L1333.38 207.304V289.734" stroke="#003B2F" stroke-width="3.4585" stroke-linecap="round" stroke-linejoin="round"/><path d="M1442.53 395.702L1367.84 352.532" stroke="#003B2F" stroke-width="3.4585" stroke-linecap="round" stroke-linejoin="round"/><path d="M1396.73 303.895L1161.34 456.555" stroke="#003B2F" stroke-width="3.4585" stroke-linecap="round" stroke-linejoin="round" stroke-dasharray="9.16 9.16"/><path d="M549.707 298.968L831.39 462.462" stroke="#003B2F" stroke-width="3.4585" stroke-linecap="round" stroke-linejoin="round" stroke-dasharray="9.16 9.16"/><path d="M1491.28 297.983L2013.51 638.464" stroke="#003B2F" stroke-width="3.4585" stroke-linecap="round" stroke-linejoin="round" stroke-dasharray="9.16 9.16"/><path d="M614.711 298.969V209.343" stroke="#003B2F" stroke-width="3.4585" stroke-linecap="round" stroke-linejoin="round"/><path d="M1605.59 565.879H1566.14C1578.58 565.879 1588.73 555.702 1588.73 543.227C1588.73 530.751 1578.58 520.574 1566.14 520.574H1452.96C1440.52 520.574 1430.37 530.751 1430.37 543.227H1395.68C1383.24 543.227 1373.09 553.404 1373.09 565.879C1373.09 578.355 1383.24 588.532 1395.68 588.532H1469.82C1469.82 601.008 1479.97 611.185 1492.41 611.185H1605.59C1618.03 611.185 1628.18 601.008 1628.18 588.532C1628.18 576.057 1618.03 565.879 1605.59 565.879Z" fill="#E6E8EA"/><path d="M1536.58 550.118H1565.14" stroke="#003B2F" stroke-width="3.4585" stroke-linecap="round" stroke-linejoin="round"/><path d="M1419.38 486.099H1623.25" stroke="#03FC9D" stroke-width="3.4585" stroke-linecap="round" stroke-linejoin="round"/><path d="M1600.6 550.118H1658.71" stroke="#003B2F" stroke-width="3.4585" stroke-linecap="round" stroke-linejoin="round"/><path d="M238.558 815.552H295.682" stroke="#003B2F" stroke-width="3.4585" stroke-linecap="round" stroke-linejoin="round"/><path d="M195.224 815.552H209.012" stroke="#003B2F" stroke-width="3.4585" stroke-linecap="round" stroke-linejoin="round"/><path d="M954.48 909.428H983.043" stroke="#003B2F" stroke-width="3.4585" stroke-linecap="round" stroke-linejoin="round"/><path d="M326.774 626.134H355.337" stroke="#003B2F" stroke-width="3.4585" stroke-linecap="round" stroke-linejoin="round"/><path d="M837.28 845.409H1041.16" stroke="#03FC9D" stroke-width="3.4585" stroke-linecap="round" stroke-linejoin="round"/><path d="M209.574 562.115H413.45" stroke="#03FC9D" stroke-width="3.4585" stroke-linecap="round" stroke-linejoin="round"/><path d="M1019.48 909.428H1133.73" stroke="#003B2F" stroke-width="3.4585" stroke-linecap="round" stroke-linejoin="round"/><path d="M391.778 626.134H506.027" stroke="#003B2F" stroke-width="3.4585" stroke-linecap="round" stroke-linejoin="round"/><path d="M1715.66 181.489L1729.1 194.929" stroke="#003B2F" stroke-width="3.4585" stroke-linecap="round" stroke-linejoin="round"/><path d="M1738.95 204.699L1752.39 218.139" stroke="#003B2F" stroke-width="3.4585" stroke-linecap="round" stroke-linejoin="round"/><path d="M1715.66 218.139L1729.1 204.699" stroke="#003B2F" stroke-width="3.4585" stroke-linecap="round" stroke-linejoin="round"/><path d="M1738.95 194.928L1752.39 181.488" stroke="#003B2F" stroke-width="3.4585" stroke-linecap="round" stroke-linejoin="round"/><path d="M722.925 156.034L736.283 169.392" stroke="#003B2F" stroke-width="3.4585" stroke-linecap="round" stroke-linejoin="round"/><path d="M746.058 179.164L759.497 192.522" stroke="#003B2F" stroke-width="3.4585" stroke-linecap="round" stroke-linejoin="round"/><path d="M722.925 192.522L736.283 179.164" stroke="#003B2F" stroke-width="3.4585" stroke-linecap="round" stroke-linejoin="round"/><path d="M746.058 169.39L759.497 156.032" stroke="#003B2F" stroke-width="3.4585" stroke-linecap="round" stroke-linejoin="round"/><path d="M1140.17 840.696L1157.19 830.84" stroke="#003B2F" stroke-width="3.4585" stroke-linecap="round" stroke-linejoin="round"/><path d="M1174.14 840.696L1164.2 834.913" stroke="#003B2F" stroke-width="3.4585" stroke-linecap="round" stroke-linejoin="round"/><path d="M1157.19 830.84V811.047" stroke="#003B2F" stroke-width="3.4585" stroke-linecap="round" stroke-linejoin="round"/><path d="M69.8737 222.978L180.103 222.978C192.261 222.978 202.118 213.17 202.118 201.071C202.118 188.972 192.261 179.164 180.103 179.164H69.8737C57.7148 179.164 47.8581 188.972 47.8581 201.071C47.8581 213.17 57.7148 222.978 69.8737 222.978Z" fill="#03FC9D"/><path d="M111.775 195.308L292.461 195.308C312.386 195.308 328.538 179.166 328.538 159.253C328.538 139.341 312.386 123.198 292.461 123.198L111.775 123.198C91.8499 123.198 75.6977 139.341 75.6977 159.253C75.6977 179.166 91.8499 195.308 111.775 195.308Z" fill="#03FC9D"/><path d="M677.2 478.989C686.991 478.989 694.928 471.492 694.928 462.245C694.928 452.998 686.991 445.502 677.2 445.502C667.409 445.502 659.472 452.998 659.472 462.245C659.472 471.492 667.409 478.989 677.2 478.989Z" stroke="#003B2F" stroke-width="3.4585" stroke-linecap="round" stroke-linejoin="round"/><path d="M858.969 715.583C863.864 715.583 867.833 711.835 867.833 707.212C867.833 702.588 863.864 698.84 858.969 698.84C854.073 698.84 850.104 702.588 850.104 707.212C850.104 711.835 854.073 715.583 858.969 715.583Z" stroke="#003B2F" stroke-width="3.4585" stroke-linecap="round" stroke-linejoin="round"/><path d="M1165.77 394.503C1170.39 394.503 1174.14 390.535 1174.14 385.639C1174.14 380.744 1170.39 376.775 1165.77 376.775C1161.14 376.775 1157.39 380.744 1157.39 385.639C1157.39 390.535 1161.14 394.503 1165.77 394.503Z" stroke="#003B2F" stroke-width="3.4585" stroke-linecap="round" stroke-linejoin="round"/><path d="M1206.48 521.139L981.103 651.057L756.781 520.325L983.628 388.208L1206.48 521.139Z" fill="white" stroke="#003B2F" stroke-width="3.4585" stroke-linecap="round" stroke-linejoin="round"/><path d="M981.184 722.248V649.999L1206.56 520.733V589.317L981.184 722.248Z" fill="#03FC9D" stroke="#003B2F" stroke-width="3.4585" stroke-linecap="round" stroke-linejoin="round"/><path d="M981.186 722.25V650.001L757.679 519.92V589.97L981.186 722.25Z" fill="#E6E8EA" stroke="#003B2F" stroke-width="3.4585" stroke-linecap="round" stroke-linejoin="round"/><path d="M982.179 534.029C1032.49 534.029 1073.28 528.077 1073.28 520.733C1073.28 513.39 1032.49 507.437 982.179 507.437C931.864 507.437 891.075 513.39 891.075 520.733C891.075 528.077 931.864 534.029 982.179 534.029Z" fill="#E6E8EA"/><path d="M1398.72 693.007L1306.59 746.114L1398.72 799.303L1490.76 746.114L1398.72 693.007Z" fill="#E6E8EA"/><path d="M1398.72 799.304V905.519L1490.76 852.411V746.115L1398.72 799.304Z" fill="#E6E8EA"/><path d="M1398.72 799.304V905.519L1306.59 852.411V746.115L1398.72 799.304Z" fill="#E6E8EA"/><path d="M1344.14 893.708L1398.72 925.149" stroke="#003B2F" stroke-width="3.4585" stroke-linecap="round" stroke-linejoin="round"/><path d="M1507.78 736.338L1398.72 673.375L1289.57 736.338V799.301" stroke="#003B2F" stroke-width="3.4585" stroke-linecap="round" stroke-linejoin="round"/><path d="M1398.72 799.304L1507.78 736.341V862.186L1398.72 925.149V799.304Z" stroke="#003B2F" stroke-width="3.4585" stroke-linecap="round" stroke-linejoin="round"/><path d="M1398.72 799.304L1289.57 736.341" stroke="#003B2F" stroke-width="3.4585" stroke-linecap="round" stroke-linejoin="round"/><circle cx="859.413" cy="627.356" r="1.2218" fill="#003B2F"/><path d="M850.287 632.651L680.539 730.558" stroke="#003B2F" stroke-width="3.4585" stroke-linecap="round" stroke-linejoin="round" stroke-dasharray="9.16 9.16"/><circle cx="675.98" cy="733.246" r="1.2218" fill="#003B2F"/><circle cx="457.618" cy="306.583" r="1.37173" fill="#003B2F"/><path d="M447.649 312.893L-89.5117 663.34" stroke="#003B2F" stroke-width="3.4585" stroke-linecap="round" stroke-linejoin="round" stroke-dasharray="9.16 9.16"/><path d="M1106.18 621.033L1282.48 722.478" stroke="#003B2F" stroke-width="3.4585" stroke-linecap="round" stroke-linejoin="round" stroke-dasharray="9.16 9.16"/><path d="M566.915 707.26L474.792 760.368L566.915 813.475L659.039 760.368L566.915 707.26Z" fill="#03FC9D"/><path d="M566.917 813.477V919.773L659.04 866.665V760.369L566.917 813.477Z" fill="#03FC9D"/><path d="M566.915 813.477V919.773L474.792 866.665V760.369L566.915 813.477Z" fill="#03FC9D"/><path d="M675.981 813.476V750.594" stroke="#003B2F" stroke-width="3.4585" stroke-linecap="round" stroke-linejoin="round"/><path d="M457.769 750.594V876.439L566.916 939.402L630.449 902.749" stroke="#003B2F" stroke-width="3.4585" stroke-linecap="round" stroke-linejoin="round"/><path d="M566.916 813.477L675.981 750.595L566.916 687.388L457.769 750.595L566.916 813.477Z" stroke="#003B2F" stroke-width="3.4585" stroke-linecap="round" stroke-linejoin="round"/><path d="M566.917 813.477V939.403" stroke="#003B2F" stroke-width="3.4585" stroke-linecap="round" stroke-linejoin="round"/><path d="M614.711 843.62L995.487 1080.5" stroke="#003B2F" stroke-width="3.4585" stroke-linecap="round" stroke-linejoin="round" stroke-dasharray="9.16 9.16"/><circle cx="980.67" cy="270.832" r="112.656" fill="white"/><path d="M952.289 187.367C940.311 180.495 926.431 176.568 911.636 176.568C886.793 176.568 862.9 188.144 847.478 207.612C830.179 229.444 825.496 259.194 833.976 285.615C835.439 290.168 837.281 294.597 839.49 298.837C848.851 316.788 864.965 331.912 884.274 338.346" fill="white"/><path d="M1062.51 207.04C1062.51 196.474 1060.5 186.377 1056.86 177.101C1044.91 146.724 1015.31 125.225 980.697 125.225C946.169 125.225 916.638 146.614 904.63 176.862" fill="white"/><path d="M1062.51 316.569C1101.17 316.569 1132.51 285.227 1132.51 246.569C1132.51 207.911 1101.17 176.568 1062.51 176.568C1060.38 176.568 1058.27 176.663 1056.19 176.847" fill="white"/><path d="M893.526 327.214C886.997 332.504 878.83 338.346 880.826 354.923C880.826 354.923 880.572 365.618 887.255 378.199C887.255 378.199 914.144 425.949 963.447 413.826C982.273 409.198 993.445 381.488 993.445 359.755" fill="white"/><path d="M990.423 372.043C1000.66 387.196 1018 397.159 1037.67 397.159C1069.13 397.159 1094.64 371.655 1094.64 340.188C1094.64 330.21 1092.07 320.834 1087.57 312.677" fill="white"/><path d="M961.019 519.632H1006.12C1014.84 519.632 1022.14 513.029 1023.02 504.349L1029.69 438.345H937.45L944.119 504.349C944.99 513.029 952.295 519.632 961.019 519.632Z" fill="#03FC9D"/><path d="M952.289 187.367C940.311 180.495 926.431 176.568 911.636 176.568C886.793 176.568 862.9 188.144 847.478 207.612C830.179 229.444 825.496 259.194 833.976 285.615C835.439 290.168 837.281 294.597 839.49 298.837C848.851 316.788 864.965 331.912 884.274 338.346" stroke="#003B2F" stroke-width="3.4585" stroke-miterlimit="10" stroke-linecap="round" stroke-linejoin="round"/><path d="M1062.51 207.04C1062.51 196.474 1060.5 186.377 1056.86 177.101C1044.91 146.724 1015.31 125.225 980.698 125.225C946.17 125.225 916.639 146.614 904.631 176.862" stroke="#003B2F" stroke-width="3.4585" stroke-miterlimit="10" stroke-linecap="round" stroke-linejoin="round"/><path d="M1062.51 316.569C1101.17 316.569 1132.51 285.227 1132.51 246.569C1132.51 207.911 1101.17 176.568 1062.51 176.568C1060.38 176.568 1058.27 176.663 1056.19 176.847" stroke="#003B2F" stroke-width="3.4585" stroke-miterlimit="10" stroke-linecap="round" stroke-linejoin="round"/><path d="M893.527 327.214C886.998 332.504 878.831 338.346 880.827 354.923C880.827 354.923 880.573 365.618 887.256 378.199C887.256 378.199 914.145 425.949 963.448 413.826C982.274 409.198 993.446 381.488 993.446 359.755" stroke="#003B2F" stroke-width="3.4585" stroke-miterlimit="10" stroke-linecap="round" stroke-linejoin="round"/><path d="M990.423 372.043C1000.66 387.196 1018 397.159 1037.67 397.159C1069.13 397.159 1094.64 371.655 1094.64 340.188C1094.64 330.21 1092.07 320.834 1087.57 312.677" stroke="#003B2F" stroke-width="3.4585" stroke-miterlimit="10" stroke-linecap="round" stroke-linejoin="round"/><path d="M971.652 333.873C958.797 323.511 936.422 296.399 930.729 285.958C930.232 285.048 929.102 284.694 928.161 285.157C927.231 285.63 926.843 286.755 927.285 287.7C932.013 297.802 956.697 332.519 964.963 340.561C967.591 340.75 971.652 337.446 971.652 333.873Z" fill="#003B2F"/><path d="M960.047 519.632H1005.14C1013.87 519.632 1021.17 513.029 1022.04 504.349L1028.71 438.345H936.473L943.141 504.349C944.017 513.029 951.323 519.632 960.047 519.632Z" stroke="#003B2F" stroke-width="3.4585" stroke-miterlimit="10" stroke-linecap="round" stroke-linejoin="round"/><path d="M1040.13 303.107C1039.15 302.829 1038.12 303.366 1037.79 304.332C1030.61 324.92 1015.25 343.358 995.988 354.919C997.864 353.779 992.589 337.102 992.156 335.206C989.468 323.422 982.82 309.567 976.907 297.295C977.44 296.553 977.763 295.682 977.773 294.762C980.043 280.559 985.567 266.331 990.901 252.565C992.385 248.748 993.853 244.956 995.251 241.189C995.609 240.224 995.147 239.144 994.201 238.741C993.26 238.332 992.151 238.746 991.708 239.671C989.772 243.657 987.766 247.594 985.766 251.515C980.376 262.086 974.872 272.959 970.911 284.585L948.068 236.193C947.625 235.252 946.511 234.839 945.545 235.252C944.585 235.675 944.137 236.78 944.535 237.75L975.026 312.533C978.963 321.824 981.615 331.404 983.357 341.123C979.54 339.257 975.663 336.854 971.652 333.883L964.964 340.571C971.319 346.1 978.047 350.624 985.144 354.097C987.831 382.568 983.287 411.736 977.569 438.361H993.031C996.48 416.265 999.083 391.904 997.267 367.25C1006.9 361.109 1015.78 352.599 1024.33 341.263C1033.23 329.17 1039 317.092 1041.49 305.387C1041.71 304.372 1041.11 303.381 1040.13 303.107Z" fill="#003B2F"/><path d="M912.597 219.456C918.798 219.456 923.824 214.429 923.824 208.229C923.824 202.028 918.798 197.002 912.597 197.002C906.397 197.002 901.37 202.028 901.37 208.229C901.37 214.429 906.397 219.456 912.597 219.456Z" fill="#03FC9D"/><path d="M1056.19 370.978C1062.39 370.978 1067.42 365.951 1067.42 359.751C1067.42 353.55 1062.39 348.523 1056.19 348.523C1049.99 348.523 1044.96 353.55 1044.96 359.751C1044.96 365.951 1049.99 370.978 1056.19 370.978Z" fill="#03FC9D"/><path d="M1010.68 281.002C1016.88 281.002 1021.91 275.975 1021.91 269.775C1021.91 263.574 1016.88 258.547 1010.68 258.547C1004.48 258.547 999.453 263.574 999.453 269.775C999.453 275.975 1004.48 281.002 1010.68 281.002Z" fill="#03FC9D"/><path d="M983.564 199.814C997.825 199.814 1009.39 188.252 1009.39 173.99C1009.39 159.728 997.825 148.167 983.564 148.167C969.302 148.167 957.74 159.728 957.74 173.99C957.74 188.252 969.302 199.814 983.564 199.814Z" fill="#03FC9D"/><path d="M983.564 199.814C997.825 199.814 1009.39 188.252 1009.39 173.99C1009.39 159.728 997.825 148.167 983.564 148.167C969.302 148.167 957.74 159.728 957.74 173.99C957.74 188.252 969.302 199.814 983.564 199.814Z" stroke="#003B2F" stroke-width="3.4585" stroke-miterlimit="10" stroke-linecap="round" stroke-linejoin="round"/><path d="M1069.02 276.204C1081.13 276.204 1090.95 266.385 1090.95 254.273C1090.95 242.16 1081.13 232.341 1069.02 232.341C1056.91 232.341 1047.09 242.16 1047.09 254.273C1047.09 266.385 1056.91 276.204 1069.02 276.204Z" fill="#03FC9D"/><path d="M1068.47 275.353C1080.58 275.353 1090.4 265.534 1090.4 253.421C1090.4 241.309 1080.58 231.49 1068.47 231.49C1056.36 231.49 1046.54 241.309 1046.54 253.421C1046.54 265.534 1056.36 275.353 1068.47 275.353Z" stroke="#003B2F" stroke-width="3.4585" stroke-miterlimit="10" stroke-linecap="round" stroke-linejoin="round"/><path d="M897.209 292.637C909.322 292.637 919.141 282.818 919.141 270.705C919.141 258.593 909.322 248.773 897.209 248.773C885.097 248.773 875.277 258.593 875.277 270.705C875.277 282.818 885.097 292.637 897.209 292.637Z" fill="#03FC9D"/><path d="M896.615 292.637C908.728 292.637 918.547 282.818 918.547 270.705C918.547 258.593 908.728 248.773 896.615 248.773C884.503 248.773 874.684 258.593 874.684 270.705C874.684 282.818 884.503 292.637 896.615 292.637Z" stroke="#003B2F" stroke-width="3.4585" stroke-miterlimit="10" stroke-linecap="round" stroke-linejoin="round"/><path d="M1059.76 242.035L1063.72 246.116C1064.39 246.798 1065.05 247.48 1065.72 248.162C1067.46 250.053 1070.41 250.167 1072.3 248.42C1072.37 248.356 1072.44 248.286 1072.51 248.216C1074.49 246.251 1076.46 244.285 1078.44 242.319C1078.48 242.274 1078.51 242.229 1078.55 242.185L1082.35 242.215C1082.3 242.279 1082.26 242.339 1082.21 242.394C1079.6 244.986 1077.01 247.574 1074.4 250.162C1072.97 251.65 1070.97 252.456 1068.9 252.377C1067.06 252.357 1065.3 251.605 1064.01 250.292C1061.34 247.599 1058.71 244.867 1056.06 242.155C1056.02 242.11 1055.99 242.06 1055.96 242.01L1059.76 242.035Z" fill="#003B2F"/><path d="M1055.73 264.405C1056.15 264.007 1056.58 263.613 1056.99 263.21C1059.24 260.981 1061.48 258.746 1063.73 256.507C1065.17 255.004 1067.19 254.193 1069.27 254.282C1071.08 254.302 1072.81 255.034 1074.09 256.318C1076.79 259.05 1079.47 261.822 1082.16 264.584C1082.18 264.614 1082.2 264.644 1082.22 264.673C1082.16 264.683 1082.09 264.688 1082.02 264.693C1080.89 264.683 1079.76 264.683 1078.64 264.658C1078.5 264.644 1078.37 264.584 1078.28 264.479C1076.29 262.459 1074.32 260.423 1072.34 258.403C1070.54 256.562 1067.58 256.537 1065.74 258.343L1065.74 258.348C1063.73 260.329 1061.73 262.319 1059.74 264.32C1059.62 264.454 1059.44 264.529 1059.26 264.519C1058.19 264.499 1057.11 264.504 1056.04 264.494H1055.79L1055.73 264.405Z" fill="#003B2F"/><path d="M992.311 171.84C994.347 170.835 995.645 169.113 995.372 166.302C995.038 162.44 991.49 161.225 987.001 160.972L987.086 155.622L983.602 155.687L983.518 160.887C982.597 160.907 981.671 160.952 980.726 160.992L980.81 155.746L977.327 155.831L977.242 161.181C976.486 161.201 975.754 161.22 975.018 161.245V161.225L970.215 161.33L970.151 164.814C970.151 164.814 972.728 164.709 972.689 164.749C974.117 164.729 974.555 165.485 974.679 166.132L974.575 172.239C974.679 172.219 974.804 172.239 974.953 172.239C974.829 172.239 974.699 172.239 974.575 172.259L974.45 180.773C974.386 181.191 974.117 181.863 973.126 181.883C973.126 181.923 970.588 181.948 970.588 181.948L969.832 185.85L974.386 185.745C975.227 185.725 976.043 185.725 976.859 185.725L976.794 191.115L980.278 191.05L980.343 185.7C981.308 185.7 982.229 185.68 983.134 185.66L983.05 190.99L986.533 190.906L986.618 185.516C992.49 185.073 996.626 183.605 997.213 178.469C997.681 174.319 995.626 172.512 992.311 171.84ZM980.756 164.814C982.726 164.774 988.917 164.057 988.872 167.899C988.808 171.572 982.622 171.278 980.671 171.318L980.756 164.814ZM980.502 181.764L980.606 174.588C982.975 174.548 990.405 173.746 990.34 177.967C990.276 182.018 982.871 181.699 980.502 181.764Z" fill="#003B2F"/><path d="M888.423 269.888H888.438C888.497 269.844 888.567 269.809 888.637 269.789L889.791 269.261L890.807 268.799L891.976 268.266L892.966 267.818L894.141 267.286L895.136 266.833L896.296 266.305L897.152 265.917C897.182 265.902 897.211 265.872 897.251 265.897C897.251 265.897 897.261 265.912 897.261 265.922C897.261 265.957 897.261 265.987 897.261 266.022C897.261 269.008 897.261 271.994 897.261 274.984C897.266 275.029 897.261 275.074 897.241 275.114C896.978 274.96 896.709 274.805 896.445 274.646L889.632 270.62L888.428 269.908L888.423 269.888Z" fill="#003B2F"/><path d="M897.229 275.103V265.952C897.229 265.932 897.229 265.912 897.229 265.887C897.224 265.857 897.219 265.827 897.224 265.797C897.224 262.339 897.224 258.885 897.224 255.426C897.224 255.386 897.2 255.341 897.254 255.307C897.443 255.62 897.632 255.934 897.827 256.247L905.988 269.793C906.008 269.823 906.023 269.853 906.038 269.883C905.998 269.903 905.963 269.878 905.933 269.863L905.262 269.56L903.938 268.957L902.624 268.36C902.181 268.156 901.733 267.957 901.29 267.753L899.996 267.166L898.653 266.559L897.359 265.966L897.319 265.947C897.284 265.932 897.259 265.937 897.259 265.981C897.259 266.006 897.259 266.031 897.259 266.061C897.259 269.027 897.259 271.993 897.259 274.954C897.269 274.999 897.264 275.049 897.239 275.088C897.244 275.103 897.244 275.108 897.229 275.103Z" fill="#003B2F"/><path d="M897.248 275.094C897.248 274.357 897.248 273.626 897.248 272.894C897.248 270.595 897.248 268.296 897.248 265.992C897.248 265.892 897.248 265.892 897.343 265.937L898.865 266.624C899.199 266.778 899.537 266.932 899.871 267.082L901.329 267.743L902.16 268.122L903.359 268.664L904.19 269.042L905.365 269.575L906.007 269.868C906.017 269.873 906.027 269.878 906.042 269.878C906.042 269.918 906.007 269.918 905.987 269.928L901.568 272.541L897.358 275.029C897.328 275.059 897.288 275.079 897.248 275.094Z" fill="#003B2F"/><path d="M897.239 277.786L899.086 276.696L904.306 273.611L905.958 272.635C905.978 272.625 905.993 272.605 906.023 272.61C906.023 272.635 906.003 272.65 905.988 272.67C903.087 276.756 900.186 280.842 897.289 284.927C897.274 284.952 897.269 284.992 897.23 284.987C897.215 284.952 897.205 284.912 897.21 284.873C897.21 282.554 897.21 280.23 897.21 277.91C897.205 277.866 897.195 277.816 897.239 277.786Z" fill="#003B2F"/><path d="M897.241 277.786C897.226 277.821 897.221 277.856 897.231 277.891C897.231 280.225 897.231 282.559 897.231 284.888C897.231 284.923 897.231 284.953 897.231 284.987C897.107 284.833 897.002 284.669 896.888 284.51C895.883 283.096 894.877 281.683 893.872 280.27L890.871 276.04L888.478 272.665L888.423 272.591C888.473 272.621 888.507 272.636 888.542 272.656L893.733 275.721L897.182 277.761C897.202 277.771 897.221 277.781 897.241 277.786Z" fill="#003B2F"/><path d="M897.256 255.307C897.236 255.332 897.246 255.367 897.246 255.392C897.246 258.855 897.246 262.324 897.246 265.788C897.246 265.817 897.256 265.852 897.236 265.882C897.221 265.862 897.211 265.837 897.211 265.812C897.211 265.783 897.211 265.758 897.211 265.728C897.211 262.304 897.211 258.875 897.211 255.451C897.206 255.392 897.216 255.332 897.236 255.277H897.251L897.256 255.307Z" fill="#003B2F"/><path d="M897.231 255.282C897.231 258.811 897.231 262.334 897.231 265.862C897.231 265.872 897.231 265.882 897.231 265.892C896.818 266.081 896.405 266.27 895.992 266.46C895.554 266.659 895.116 266.858 894.678 267.057L892.409 268.092L890.821 268.814L888.467 269.883C888.457 269.888 888.448 269.888 888.433 269.893C888.562 269.674 888.691 269.451 888.826 269.232L892.195 263.643L896.5 256.506L897.206 255.327C897.216 255.307 897.226 255.297 897.231 255.282Z" fill="#003B2F"/><path d="M929.541 384.917C941.967 384.917 952.04 374.844 952.04 362.418C952.04 349.992 941.967 339.919 929.541 339.919C917.115 339.919 907.042 349.992 907.042 362.418C907.042 374.844 917.115 384.917 929.541 384.917Z" fill="#E6E8EA"/><path d="M929.541 384.917C941.967 384.917 952.04 374.844 952.04 362.418C952.04 349.992 941.967 339.919 929.541 339.919C917.115 339.919 907.042 349.992 907.042 362.418C907.042 374.844 917.115 384.917 929.541 384.917Z" fill="#03FC9D"/><path fill-rule="evenodd" clip-rule="evenodd" d="M942.185 365.235C942.185 364.458 941.558 363.831 940.781 363.831H918.292C917.516 363.831 916.889 364.458 916.889 365.235C916.889 366.011 917.516 366.638 918.292 366.638H920.158L919.402 368.818L918.645 370.978L918.372 371.794C918.098 372.53 918.496 373.326 919.233 373.6C919.944 373.854 920.765 373.476 921.014 372.739V372.719L921.308 371.903L922.064 369.743L923.134 366.638H935.954C936.352 367.773 936.71 368.843 937.024 369.743L937.78 371.903L938.054 372.719C938.308 373.456 939.104 373.854 939.836 373.6C940.572 373.346 940.97 372.55 940.717 371.819C940.717 371.819 940.717 371.819 940.717 371.799L940.423 370.983L939.686 368.823L938.93 366.643H940.776C941.558 366.638 942.185 366.006 942.185 365.235ZM940.781 358.203H936.019C934.844 354.784 933.859 351.932 933.69 351.425C933.396 350.524 932.893 349.728 932.137 349.16C931.381 348.593 930.48 348.364 929.534 348.364C928.589 348.364 927.688 348.593 926.931 349.16C926.175 349.728 925.692 350.524 925.399 351.425C924.622 353.689 923.846 355.933 923.07 358.203H918.287C917.511 358.203 916.884 358.83 916.884 359.606C916.884 360.382 917.511 361.009 918.287 361.009H940.776C941.553 361.009 942.18 360.382 942.18 359.606C942.185 358.835 941.558 358.203 940.781 358.203ZM926.036 358.203C927.086 355.202 927.902 352.788 928.071 352.31C928.24 351.808 928.449 351.554 928.638 351.41C928.808 351.285 929.081 351.181 929.539 351.181C930.002 351.181 930.276 351.285 930.46 351.41C930.649 351.559 930.858 351.808 931.027 352.31C931.176 352.793 932.013 355.207 933.043 358.203H926.036Z" fill="white"/></g><defs><clipPath id="clip0_885_2580"><rect width="1920" height="1080" fill="white" transform="translate(0 0.5)"/></clipPath></defs></svg>