<svg width="1676" height="857" viewBox="0 0 1676 857" fill="none" xmlns="http://www.w3.org/2000/svg"><path d="M835.164 748.586H241.197" stroke="#003B2F" stroke-width="3" stroke-linecap="round" stroke-linejoin="round"/><path d="M941.499 748.586H868.176" stroke="#003B2F" stroke-width="3" stroke-linecap="round" stroke-linejoin="round"/><path d="M1461.48 748.586H974.428" stroke="#003B2F" stroke-width="3" stroke-linecap="round" stroke-linejoin="round"/><path d="M986.297 187.561C986.297 187.561 985.965 187.561 985.799 187.561C980.823 187.312 976.178 186.151 971.865 184.326C969.957 183.496 968.049 182.501 966.307 181.423C966.224 181.423 966.141 181.34 966.059 181.257C953.783 173.543 945.903 159.608 946.567 144.015C947.645 120.956 967.137 103.123 990.195 104.118C996.499 104.367 1002.39 106.026 1007.61 108.846C1009.02 109.593 1010.35 110.422 1011.68 111.252C1022.88 118.8 1030.09 131.573 1030.01 145.923C1030.01 145.923 1030.01 145.923 1030.01 146.005C1030.01 146.254 1030.01 146.42 1030.01 146.669C1030.01 147.001 1030.01 147.333 1030.01 147.664C1029.01 170.723 1009.44 188.556 986.463 187.478L986.297 187.561Z" fill="#03FC9D" stroke="#003B2F" stroke-width="3" stroke-miterlimit="10"/><path d="M994.591 187.064C994.591 187.064 994.26 187.064 994.094 187.064C989.2 187.81 984.389 187.644 979.744 186.649C977.671 186.234 975.68 185.654 973.689 184.907C973.606 184.907 973.523 184.907 973.358 184.741C959.755 179.599 949.304 167.489 946.898 152.144C943.332 129.334 958.925 108.017 981.652 104.451C987.873 103.455 994.011 103.953 999.734 105.612C1001.23 106.027 1002.72 106.607 1004.21 107.188C1016.65 112.413 1026.28 123.528 1029.1 137.546C1029.1 137.546 1029.1 137.546 1029.1 137.629C1029.1 137.877 1029.18 138.043 1029.26 138.292C1029.26 138.624 1029.43 138.956 1029.43 139.287C1032.99 162.097 1017.4 183.414 994.674 186.981L994.591 187.064Z" stroke="#003B2F" stroke-width="3" stroke-linecap="round" stroke-linejoin="round"/><path d="M1006.7 138.789C1007.2 133.232 1002.47 130.578 996.167 129.002L997.66 121.371L992.684 120.542L991.191 127.924C989.864 127.675 988.537 127.509 987.209 127.343L988.702 119.878L983.726 119.049L982.233 126.68C981.154 126.514 980.076 126.348 979.081 126.182L972.196 125.021L971.201 129.997C971.201 129.997 974.934 130.495 974.851 130.578C976.841 130.91 977.339 132.071 977.339 133.066L975.597 141.693C975.597 141.693 975.929 141.693 976.095 141.776C975.929 141.776 975.763 141.776 975.597 141.693L973.192 153.802C973.026 154.383 972.445 155.295 971.035 155.047L967.386 154.466L965.312 159.857L971.782 160.936C973.026 161.102 974.187 161.35 975.348 161.516L973.772 169.23L978.749 170.06L980.242 162.429C981.569 162.678 982.896 162.926 984.223 163.092L982.73 170.64L987.707 171.47L989.283 163.839C997.743 164.751 1004.05 163.839 1006.2 156.623C1007.95 150.816 1005.54 147.748 1000.98 145.923C1004.13 145.01 1006.45 142.937 1006.78 138.872L1006.7 138.789ZM996.416 154.051C995.255 159.774 984.804 157.369 981.403 156.871L983.477 146.669C986.878 147.25 997.66 148.079 996.416 154.051ZM996.997 139.287C995.919 144.513 987.209 142.439 984.389 142.024L986.214 132.817C989.034 133.315 998.075 133.896 996.914 139.37L996.997 139.287Z" fill="#003B2F"/><path d="M840.97 354.101V433.893" stroke="#003B2F" stroke-width="3" stroke-linecap="round" stroke-linejoin="round"/><path d="M840.97 574.816V715.075" stroke="#003B2F" stroke-width="3" stroke-linecap="round" stroke-linejoin="round"/><path d="M923.914 715.076V578.632" stroke="#003B2F" stroke-width="3" stroke-linecap="round" stroke-linejoin="round"/><path d="M923.914 437.792V337.429" stroke="#003B2F" stroke-width="3" stroke-linecap="round" stroke-linejoin="round"/><path d="M923.915 193.52V130.98C923.915 127.745 921.26 125.174 918.108 125.174H846.859C843.624 125.174 841.053 127.828 841.053 130.98V210.192" stroke="#003B2F" stroke-width="3" stroke-linecap="round" stroke-linejoin="round"/><path fill-rule="evenodd" clip-rule="evenodd" d="M1075.81 183.052C1074.59 181.62 1072.68 180.926 1070.82 181.077L646.497 218.253C644.21 218.427 642.238 219.903 641.427 222.049C640.616 224.195 641.025 226.6 642.548 228.244C642.548 228.244 685.479 276.476 697.527 290.022L649.297 360.94C648.017 362.851 647.909 365.35 649.046 367.357C650.182 369.363 652.445 370.526 654.744 370.27L1079.06 333.095C1080.85 332.932 1082.49 331.995 1083.55 330.47L1134.35 255.648C1135.93 253.362 1135.7 250.312 1133.9 248.293L1075.81 183.052Z" fill="#03FC9D" stroke="#003B2F" stroke-width="3" stroke-linecap="round" stroke-linejoin="round"/><path fill-rule="evenodd" clip-rule="evenodd" d="M699.549 419.876C697.642 419.793 695.817 420.54 694.573 422.033L637.009 489.384C635.184 491.457 635.018 494.526 636.677 496.849L687.854 570.089C688.932 571.665 690.674 572.577 692.499 572.66L1116.18 595.47C1118.5 595.636 1120.66 594.392 1121.82 592.318C1122.98 590.245 1122.82 587.756 1121.49 585.848L1072.97 516.507C1084.91 502.572 1127.46 452.722 1127.46 452.722C1128.95 450.981 1129.37 448.492 1128.46 446.336C1127.54 444.179 1125.47 442.769 1123.15 442.686L699.466 419.876H699.549Z" fill="#E6E8EA" stroke="#003B2F" stroke-width="3" stroke-linecap="round" stroke-linejoin="round"/><path d="M797.24 301.291L786.098 302.381L785.726 299.844L791.238 298.582L787.132 249.339L781.481 248.927L781.435 246.444L792.603 245.673L825.34 242.783L827.047 258.448L824.417 258.667L817.717 246.628L799.383 248.077L801.323 271.344L810.792 270.394L813.587 260.613L816.137 260.4L816.655 271.43L817.984 282.552L815.434 282.764L811.058 273.581L801.562 274.212L803.509 297.559L811.304 297.712L811.278 300.282L797.24 301.291ZM851.111 291.184L841.642 298.873C834.869 299.438 829.304 296.211 828.753 289.597C828.487 286.41 829.437 283.362 831.96 280.905L849.271 273.926L848.772 267.95C848.407 263.567 847.524 261.635 843.858 261.94C842.344 262.067 841.096 262.492 839.629 263.176L838.998 271.974L828.799 272.824L828.227 265.972L844.177 258.062C854.775 257.179 859.589 259.104 860.399 268.826L861.768 285.24C861.994 287.949 862.472 289.835 863.335 291.528L866.981 290.984L867.505 293.427L853.873 297.372L851.111 291.184ZM844.783 292.273C846.456 292.133 847.97 291.044 848.873 290.327L850.526 288.986L849.477 276.396L841.92 280.075C840.532 281.715 839.915 283.933 840.128 286.483C840.466 290.546 842.551 292.459 844.783 292.273ZM888.415 294.974C877.579 295.877 869.013 289.37 868.049 277.816C867.006 265.306 875.93 257.822 886.488 254.535C890.791 254.176 895.638 255.537 898.786 257.682L899.57 267.084L890.566 267.835L887.551 258.619C886.714 258.207 886.057 258.021 884.941 258.114C881.116 258.433 877.644 262.975 878.381 271.82C879.132 280.824 884.703 287.019 892.432 286.374C895.62 286.109 898.083 284.86 900.573 282.968L901.868 285.026C897.811 289.296 894.192 292.085 888.415 294.974ZM933.289 284.894L921.782 292.192C914.691 292.783 910.846 289.012 910.241 281.76L908.255 257.935L902.04 258.454L901.98 257.736L903.301 255.299L908.082 254.901L907.644 249.642L916.535 242.722L918.128 242.59L919.098 254.223L929.616 253.346L929.849 256.135L919.41 257.005L921.377 280.591C921.636 283.699 923.608 285.219 925.919 285.027C928.07 284.847 929.538 284.163 932.061 282.669L933.289 284.894ZM951.114 289.827C946.811 290.185 941.207 289.369 937.468 287.835L935.721 276.507L939.148 276.221L943.391 283.811C945.788 285.617 948.132 286.785 950.841 286.56C954.348 286.267 956.26 284.182 956.027 281.393C955.808 278.764 954.433 277.675 950.17 275.623L942.806 271.985C938.63 270.006 935.522 267.377 935.13 262.675C934.665 257.098 938.542 252.602 949.1 249.315C955.076 248.816 958.523 249.733 961.684 251.074L962.554 261.512L959.606 261.758L955.057 254.354C953.171 252.907 951.424 252.17 949.034 252.369C945.847 252.635 944.007 254.634 944.22 257.184C944.426 259.654 945.973 260.889 950.482 263L957.833 266.479C962.587 268.65 964.898 271.346 965.27 275.808C965.795 282.103 961.592 286.546 951.114 289.827Z" fill="#003B2F"/><path d="M780.062 522.729L772.867 522.545L772.749 519.977L778.139 519.435L780.497 470.157L775.112 468.938L775.39 466.47L784.168 467.05L794.878 467.403L808.803 509.295L808.737 512.334L827.144 468.947L835.682 469.516L845.593 469.83L845.715 472.317L840.082 472.928L837.72 522.286L843.112 523.345L842.83 525.893L831.816 525.206L820.228 524.811L820.111 522.244L825.58 521.705L827.594 479.615L828.383 474.85L807.282 524.352L800.653 524.035L785.303 476.791L784.338 471.862L782.052 519.622L787.685 520.692L787.402 523.24L780.062 522.729ZM859.386 545.417L847.645 544.855L848.138 534.552L858.521 535.049L867.408 523.307L858.797 525.937L847.658 491.062L844.098 490.171L844.456 487.707L854.592 488.352L864.343 488.659L864.385 491.142L860.037 491.655L867.919 517.648L868.242 520.945L879.122 492.648L874.448 491.624L874.806 489.159L881.907 489.659L887.585 489.771L887.706 492.258L883.515 492.858L870.321 524.327L859.386 545.417ZM915.93 524.188L903.568 529.921C896.459 529.58 893.14 525.339 893.488 518.071L894.631 494.191L888.401 493.893L888.436 493.174L890.064 490.93L894.856 491.16L895.108 485.888L904.827 480.19L906.424 480.266L905.866 491.927L916.409 492.431L916.275 495.227L905.812 494.726L904.681 518.367C904.532 521.481 906.289 523.246 908.605 523.357C910.761 523.461 912.305 522.974 915.002 521.822L915.93 524.188ZM926.761 529.75L917.01 529.443L916.972 526.88L921.479 526.375L923.826 477.337L919.258 477.438L919.141 474.871L932.031 473.166L935.153 473.156L933.918 498.953L947.323 491.509C956.188 491.933 958.176 495.551 957.756 504.336L956.621 528.057L961.298 529.001L960.936 531.545L950.961 530.908L942.008 530.64L941.891 528.072L945.04 527.503L946.19 503.463C946.347 500.188 945.058 498.685 942.582 498.567C940.346 498.46 938.212 499.558 935.827 500.885L933.769 502.068L932.581 526.906L935.821 527.782L935.539 530.33L926.761 529.75ZM978.74 533.598C974.427 533.392 968.978 531.85 965.471 529.841L965.219 518.382L968.654 518.546L971.869 526.625C974.01 528.729 976.181 530.194 978.897 530.324C982.411 530.492 984.579 528.674 984.713 525.879C984.839 523.243 983.619 521.984 979.66 519.393L972.834 514.824C968.952 512.317 966.214 509.304 966.44 504.592C966.707 499.001 971.139 495.051 982.036 493.171C988.026 493.457 991.323 494.816 994.281 496.558L993.781 507.021L990.826 506.88L987.283 498.945C985.602 497.264 983.967 496.305 981.571 496.19C978.376 496.037 976.292 497.779 976.169 500.334C976.051 502.81 977.424 504.237 981.618 506.919L988.451 511.329C992.881 514.102 994.82 517.077 994.606 521.55C994.304 527.859 989.557 531.714 978.74 533.598Z" fill="#003B2F"/><path d="M943.572 761.442C938.596 753.894 936.605 738.964 937.351 731.002C937.186 733.241 937.351 735.481 937.6 737.72C938.264 742.697 940.089 747.673 943.158 752.401C943.158 752.567 943.406 752.733 943.406 752.899C957.922 775.045 993.256 784.418 1022.37 773.967C1022.78 773.801 1023.2 773.718 1023.7 773.469C1023.95 773.469 1024.28 773.22 1024.53 773.137H1024.69C1042.44 766.087 1053.31 752.899 1054.97 738.632C1055.22 736.974 1055.22 735.315 1055.22 733.573C1057.7 751.406 1045.18 774.299 1022.62 782.51C993.505 793.044 958.171 783.588 943.655 761.442H943.572Z" fill="#03FC9D"/><path d="M943.572 752.899C943.572 752.899 943.323 752.568 943.323 752.402C940.337 747.674 938.43 742.697 937.766 737.721C937.517 735.481 937.434 733.242 937.517 731.002V730.67C938.679 715.326 950.457 700.893 970.115 693.843C999.311 683.309 1034.56 692.765 1049.08 714.911C1053.06 720.966 1055.05 727.353 1055.22 733.656C1055.22 735.315 1055.22 737.057 1054.97 738.716C1053.31 752.982 1042.44 766.088 1024.69 773.221H1024.53C1024.53 773.221 1023.95 773.47 1023.7 773.553C1023.28 773.719 1022.87 773.884 1022.37 774.05C993.256 784.584 957.922 775.129 943.406 752.982L943.572 752.899Z" fill="#E6E8EA"/><path d="M943.157 761.276C938.181 753.728 936.19 738.798 936.937 730.836C936.771 733.075 936.937 735.315 937.185 737.554C937.849 742.531 939.674 747.507 942.743 752.235C942.743 752.401 942.992 752.567 942.992 752.733C957.507 774.879 992.841 784.252 1021.95 773.801C1022.37 773.635 1022.78 773.552 1023.28 773.303C1023.53 773.303 1023.86 773.054 1024.11 772.971H1024.28C1042.03 765.921 1052.89 752.733 1054.55 738.466C1054.8 736.808 1054.8 735.149 1054.8 733.407C1057.29 751.24 1044.76 774.133 1022.2 782.344C993.09 792.878 957.756 783.422 943.24 761.276H943.157Z" stroke="#003B2F" stroke-width="3" stroke-linecap="round" stroke-linejoin="round"/><path d="M943.075 752.816C943.075 752.816 942.826 752.485 942.826 752.319C939.84 747.591 937.932 742.614 937.268 737.638C937.02 735.398 936.937 733.159 937.02 730.919V730.587C938.181 715.243 949.959 700.81 969.617 693.76C998.813 683.226 1034.06 692.682 1048.58 714.828C1052.56 720.883 1054.55 727.27 1054.72 733.573C1054.72 735.232 1054.72 736.974 1054.47 738.633C1052.81 752.899 1041.94 766.005 1024.19 773.138H1024.03C1024.03 773.138 1023.45 773.387 1023.2 773.47C1022.78 773.636 1022.37 773.801 1021.87 773.967C992.758 784.501 957.424 775.046 942.909 752.899L943.075 752.816Z" stroke="#003B2F" stroke-width="3" stroke-linecap="round" stroke-linejoin="round"/><path d="M1020.46 725.113C1021.54 718.394 1016.4 714.828 1009.43 712.256L1011.75 703.132L1006.2 701.722L1003.96 710.846L999.477 709.768L1001.8 700.478L996.242 699.151L993.92 708.275L990.353 707.446L982.722 705.538L981.229 711.427C981.229 711.427 985.376 712.339 985.21 712.422C985.625 712.422 986.04 712.588 986.372 712.837C986.703 713.003 987.035 713.335 987.284 713.666C987.533 713.998 987.699 714.33 987.782 714.745C987.865 715.159 987.865 715.574 987.782 715.989L985.127 726.274L981.395 740.789C981.395 740.789 981.229 741.287 981.063 741.536C980.897 741.785 980.648 741.951 980.483 742.033C980.234 742.116 979.985 742.199 979.736 742.282C979.487 742.282 979.238 742.282 978.907 742.199L974.842 741.121L972.105 747.425L979.321 749.25L983.303 750.328L980.98 759.618L986.538 761.028L988.86 752.153L993.256 753.314L990.934 762.438L996.491 763.848L998.896 754.641C1008.35 756.466 1015.49 755.802 1018.55 747.259C1019.13 746.015 1019.55 744.688 1019.63 743.361C1019.63 742.034 1019.47 740.623 1019.05 739.379C1018.55 738.135 1017.81 736.974 1016.9 735.979C1015.98 734.983 1014.82 734.237 1013.58 733.739C1015.49 733.324 1017.23 732.329 1018.55 730.919C1019.88 729.426 1020.63 727.601 1020.71 725.61V725.362L1020.46 725.113ZM1007.52 742.863C1005.78 749.83 994.168 746.015 990.436 745.019L993.505 732.744C997.237 733.656 1009.43 735.647 1007.52 742.78V742.863ZM1009.35 724.947C1007.69 731.251 998.067 728.016 994.915 727.186L997.818 715.906C1000.97 716.901 1011.09 718.394 1009.43 724.947H1009.35Z" fill="#003B2F"/><path d="M833.919 771.064C828.943 763.516 826.952 748.586 827.699 740.623C827.533 742.863 827.699 745.102 827.947 747.342C828.611 752.319 830.436 757.295 833.505 762.023C833.505 762.189 833.754 762.355 833.754 762.521C848.269 784.667 883.603 794.04 912.717 783.589C913.132 783.423 913.546 783.34 914.044 783.091C914.293 783.091 914.625 782.842 914.873 782.759H915.039C932.789 775.709 943.655 762.521 945.314 748.254C945.563 746.595 945.563 744.937 945.563 743.195C948.051 761.028 935.527 783.921 912.966 792.132C883.852 802.666 848.518 793.21 834.002 771.064H833.919Z" fill="#03FC9D"/><path d="M833.836 762.438C833.836 762.438 833.588 762.106 833.588 761.941C830.602 757.213 828.694 752.236 828.03 747.259C827.781 745.02 827.699 742.78 827.781 740.541V740.209C828.943 724.864 840.721 710.432 860.379 703.382C889.575 692.848 924.827 702.303 939.342 724.45C943.323 730.505 945.314 736.891 945.48 743.195C945.48 744.854 945.48 746.596 945.231 748.255C943.572 762.521 932.706 775.626 914.956 782.76H914.79C914.79 782.76 914.21 783.009 913.961 783.091C913.546 783.257 913.131 783.423 912.634 783.589C883.52 794.123 848.186 784.667 833.671 762.521L833.836 762.438Z" fill="#E6E8EA"/><path d="M833.505 770.815C828.528 763.267 826.537 748.337 827.284 740.374C827.118 742.614 827.284 744.853 827.533 747.093C828.196 752.07 830.021 757.046 833.09 761.774C833.09 761.94 833.339 762.106 833.339 762.272C847.854 784.418 883.188 793.791 912.302 783.34C912.717 783.174 913.132 783.091 913.629 782.842C913.878 782.842 914.21 782.593 914.459 782.51H914.624C932.375 775.46 943.24 762.272 944.899 748.005C945.148 746.346 945.148 744.687 945.148 742.946C947.636 760.779 935.112 783.671 912.551 791.883C883.437 802.417 848.103 792.961 833.588 770.815H833.505Z" stroke="#003B2F" stroke-width="3" stroke-linecap="round" stroke-linejoin="round"/><path d="M833.505 762.355C833.505 762.355 833.256 762.023 833.256 761.858C830.27 757.13 828.362 752.153 827.699 747.176C827.45 744.937 827.367 742.697 827.45 740.458V740.126C828.611 724.781 840.389 710.349 860.047 703.299C889.243 692.765 924.495 702.22 939.01 724.367C942.992 730.422 944.982 736.808 945.148 743.112C945.148 744.771 945.148 746.513 944.899 748.172C943.24 762.438 932.375 775.543 914.624 782.677H914.459C914.459 782.677 913.878 782.926 913.629 783.008C913.214 783.174 912.8 783.34 912.302 783.506C883.188 794.04 847.854 784.584 833.339 762.438L833.505 762.355Z" stroke="#003B2F" stroke-width="3" stroke-linecap="round" stroke-linejoin="round"/><path d="M892.147 724.366C886.506 720.468 881.115 723.62 875.807 728.845L868.507 722.79L864.858 727.186L872.074 733.158L869.171 736.725L861.789 730.67L858.222 735.149L865.438 741.121L863.116 744.024L858.139 750.079L862.784 753.978C862.784 753.978 865.438 750.66 865.438 750.826C865.687 750.494 865.936 750.162 866.268 749.913C866.6 749.664 867.014 749.498 867.346 749.416C867.761 749.416 868.176 749.416 868.59 749.416C869.005 749.498 869.337 749.664 869.669 749.913L877.797 756.798L889.326 766.419C889.326 766.419 889.658 766.834 889.824 767.083C889.907 767.332 889.99 767.58 889.99 767.829C889.99 768.078 889.99 768.327 889.824 768.576C889.741 768.825 889.575 769.073 889.409 769.239L886.672 772.474L891.151 777.7L895.879 771.976L898.533 768.825L905.915 774.88L909.565 770.483L902.515 764.594L905.501 761.111L912.8 767.166L916.449 762.77L909.15 756.715C914.873 749.001 917.362 742.282 910.892 735.813C910.063 734.734 908.984 733.822 907.823 733.158C906.662 732.495 905.335 732.08 903.925 731.997C902.598 731.914 901.188 731.997 899.943 732.495C898.699 732.91 897.455 733.656 896.46 734.569C896.957 732.661 896.791 730.67 896.045 728.845C895.298 727.021 893.888 725.528 892.23 724.615H891.981L892.147 724.366ZM902.598 743.692C908.155 748.254 899.695 757.129 897.206 760.033L887.502 751.987C889.99 749.001 896.957 738.799 902.598 743.692ZM887.253 734.32C892.23 738.467 885.096 745.849 883.106 748.337L874.231 740.872C876.47 738.467 882.193 729.924 887.336 734.32H887.253Z" fill="#003B2F"/><path d="M795.184 718.975C790.208 711.427 788.217 696.497 788.963 688.534C788.797 690.774 788.963 693.013 789.212 695.252C789.876 700.229 791.7 705.206 794.769 709.934C794.769 710.1 795.018 710.265 795.018 710.431C809.534 732.578 844.868 741.95 873.982 731.499C874.396 731.333 874.811 731.251 875.309 731.002C875.558 731.002 875.889 730.753 876.138 730.67H876.304C894.054 723.62 904.92 710.431 906.579 696.165C906.828 694.506 906.828 692.847 906.828 691.105C909.316 708.938 896.791 731.831 874.23 740.043C845.117 750.577 809.782 741.121 795.267 718.975H795.184Z" fill="#03FC9D"/><path d="M795.101 710.515C795.101 710.515 794.853 710.183 794.853 710.017C791.867 705.289 789.959 700.313 789.295 695.336C789.047 693.096 788.964 690.857 789.046 688.618V688.286C790.208 672.941 801.986 658.509 821.644 651.458C850.84 640.924 886.092 650.38 900.607 672.526C904.588 678.581 906.579 684.968 906.745 691.272C906.745 692.931 906.745 694.672 906.496 696.331C904.837 710.598 893.971 723.703 876.221 730.836H876.055C876.055 730.836 875.475 731.085 875.226 731.168C874.811 731.334 874.397 731.5 873.899 731.666C844.785 742.2 809.451 732.744 794.936 710.598L795.101 710.515Z" fill="#E6E8EA"/><path d="M794.687 718.809C789.71 711.261 787.719 696.331 788.466 688.368C788.3 690.607 788.466 692.847 788.715 695.086C789.378 700.063 791.203 705.04 794.272 709.768C794.272 709.934 794.521 710.099 794.521 710.265C809.036 732.412 844.37 741.784 873.484 731.333C873.899 731.167 874.313 731.084 874.811 730.836C875.06 730.836 875.392 730.587 875.641 730.504H875.806C893.557 723.454 904.422 710.265 906.081 695.999C906.33 694.34 906.33 692.681 906.33 690.939C908.818 708.772 896.294 731.665 873.733 739.877C844.619 750.411 809.285 740.955 794.77 718.809H794.687Z" stroke="#003B2F" stroke-width="3" stroke-linecap="round" stroke-linejoin="round"/><path d="M794.604 710.349C794.604 710.349 794.355 710.017 794.355 709.851C791.369 705.123 789.461 700.147 788.798 695.17C788.549 692.93 788.466 690.691 788.549 688.451V688.12C789.71 672.775 801.488 658.343 821.146 651.292C850.342 640.758 885.594 650.214 900.109 672.36C904.091 678.415 906.081 684.802 906.247 691.106C906.247 692.765 906.247 694.506 905.998 696.165C904.339 710.432 893.474 723.537 875.724 730.67H875.558C875.558 730.67 874.977 730.919 874.728 731.002C874.313 731.168 873.899 731.334 873.401 731.5C844.288 742.034 808.953 732.578 794.438 710.432L794.604 710.349Z" stroke="#003B2F" stroke-width="3" stroke-linecap="round" stroke-linejoin="round"/><path d="M849.928 665.227C844.536 660.997 838.979 663.734 833.339 668.545L826.537 662.075L822.556 666.222L829.357 672.692L826.206 676.093L819.238 669.54L815.34 673.77L822.141 680.24L819.653 682.977L814.261 688.7L818.658 692.93C818.658 692.93 821.478 689.779 821.478 689.944C821.727 689.613 822.058 689.364 822.39 689.115C822.722 688.866 823.137 688.783 823.551 688.7C823.966 688.7 824.381 688.7 824.713 688.783C825.127 688.866 825.459 689.115 825.791 689.364L833.422 696.746L844.287 707.114C844.287 707.114 844.619 707.529 844.702 707.778C844.785 708.026 844.868 708.275 844.868 708.524C844.868 708.773 844.868 709.022 844.702 709.271C844.619 709.519 844.453 709.768 844.204 709.934L841.301 712.92L845.449 718.394L850.591 713.003L853.411 710.1L860.379 716.653L864.277 712.505L857.642 706.119L860.793 702.801L867.595 709.271L871.576 705.123L864.692 698.571C870.913 691.272 873.816 684.719 867.844 677.835C867.097 676.673 866.102 675.761 864.941 675.014C863.779 674.268 862.535 673.77 861.208 673.604C859.881 673.438 858.471 673.438 857.144 673.853C855.817 674.185 854.573 674.849 853.577 675.678C854.158 673.853 854.158 671.78 853.577 669.955C852.997 668.13 851.67 666.554 850.011 665.476L849.762 665.31L849.928 665.227ZM859.052 685.217C864.277 690.11 855.236 698.405 852.582 701.225L843.458 692.516C846.112 689.696 853.743 679.991 859.135 685.217H859.052ZM844.37 674.849C849.015 679.328 841.467 686.212 839.228 688.534L830.85 680.406C833.256 678.166 839.56 670.038 844.37 674.766V674.849Z" fill="#003B2F"/><path d="M737.455 770.981C732.478 763.433 730.487 748.503 731.234 740.54C731.068 742.78 731.234 745.02 731.483 747.259C732.146 752.236 733.971 757.212 737.04 761.94C737.04 762.106 737.289 762.272 737.289 762.438C751.804 784.584 787.139 793.957 816.252 783.506C816.667 783.34 817.082 783.257 817.579 783.008C817.828 783.008 818.16 782.759 818.409 782.676H818.575C836.325 775.626 847.191 762.438 848.849 748.171C849.098 746.513 849.098 744.854 849.098 743.112C851.587 760.945 839.062 783.838 816.501 792.049C787.387 802.583 752.053 793.127 737.538 770.981H737.455Z" fill="#03FC9D"/><path d="M737.372 762.438C737.372 762.438 737.123 762.106 737.123 761.941C734.137 757.213 732.229 752.236 731.566 747.259C731.317 745.02 731.234 742.78 731.317 740.541V740.209C732.478 724.864 744.256 710.432 763.914 703.382C793.111 692.848 828.362 702.303 842.877 724.45C846.859 730.505 848.849 736.891 849.015 743.195C849.015 744.854 849.015 746.596 848.766 748.255C847.108 762.521 836.242 775.626 818.492 782.76H818.326C818.326 782.76 817.745 783.009 817.496 783.091C817.082 783.257 816.667 783.423 816.169 783.589C787.056 794.123 751.721 784.667 737.206 762.521L737.372 762.438Z" fill="#E6E8EA"/><path d="M737.04 770.815C732.063 763.267 730.073 748.337 730.819 740.374C730.653 742.614 730.819 744.853 731.068 747.093C731.732 752.07 733.556 757.046 736.625 761.774C736.625 761.94 736.874 762.106 736.874 762.272C751.39 784.418 786.724 793.791 815.837 783.34C816.252 783.174 816.667 783.091 817.165 782.842C817.413 782.842 817.745 782.593 817.994 782.51H818.16C835.91 775.46 846.776 762.272 848.435 748.005C848.684 746.346 848.684 744.687 848.684 742.946C851.172 760.779 838.647 783.671 816.086 791.883C786.973 802.417 751.638 792.961 737.123 770.815H737.04Z" stroke="#003B2F" stroke-width="3" stroke-linecap="round" stroke-linejoin="round"/><path d="M736.957 762.355C736.957 762.355 736.708 762.023 736.708 761.858C733.722 757.13 731.815 752.153 731.151 747.176C730.902 744.937 730.819 742.697 730.902 740.458V740.126C732.063 724.781 743.842 710.349 763.499 703.299C792.696 692.765 827.947 702.22 842.463 724.367C846.444 730.422 848.435 736.808 848.601 743.112C848.601 744.771 848.601 746.513 848.352 748.172C846.693 762.438 835.827 775.543 818.077 782.677H817.911C817.911 782.677 817.331 782.926 817.082 783.008C816.667 783.174 816.252 783.34 815.755 783.506C786.641 794.04 751.307 784.584 736.791 762.438L736.957 762.355Z" stroke="#003B2F" stroke-width="3" stroke-linecap="round" stroke-linejoin="round"/><path d="M812.52 734.735C813.598 728.016 808.455 724.449 801.488 721.878L803.81 712.754L798.253 711.344L796.014 720.468L791.535 719.39L793.857 710.1L788.3 708.773L785.977 717.897L782.411 717.067L774.78 715.16L773.287 721.049C773.287 721.049 777.434 721.961 777.268 722.044C777.683 722.044 778.098 722.21 778.429 722.459C778.761 722.625 779.093 722.957 779.342 723.288C779.591 723.62 779.756 723.952 779.839 724.367C779.922 724.781 779.922 725.196 779.839 725.611L777.185 735.896L773.453 750.411C773.453 750.411 773.287 750.909 773.121 751.158C772.955 751.407 772.706 751.572 772.54 751.655C772.291 751.821 772.043 751.821 771.794 751.904C771.545 751.904 771.296 751.904 770.964 751.821L766.9 750.743L764.163 757.047L771.379 758.872L775.36 759.95L773.038 769.24L778.595 770.567L780.918 761.692L785.314 762.853L782.991 771.977L788.549 773.387L790.954 764.18C800.41 766.005 807.543 765.341 810.612 756.798C811.193 755.554 811.607 754.227 811.69 752.9C811.69 751.572 811.524 750.162 811.11 748.918C810.612 747.674 809.865 746.513 808.953 745.517C808.041 744.522 806.879 743.776 805.635 743.278C807.543 742.863 809.285 741.868 810.612 740.458C811.939 738.965 812.686 737.14 812.768 735.149V734.901L812.52 734.735ZM799.58 752.485C797.838 759.452 786.226 755.637 782.494 754.641L785.563 742.366C789.295 743.278 801.488 745.269 799.58 752.402V752.485ZM801.405 734.569C799.746 740.873 790.125 737.638 786.973 736.808L789.876 725.528C793.028 726.523 803.147 728.016 801.488 734.569H801.405Z" fill="#003B2F"/><path d="M865.936 718.892C860.959 711.344 858.969 696.414 859.715 688.451C859.549 690.69 859.715 692.93 859.964 695.17C860.628 700.146 862.452 705.123 865.521 709.851C865.521 710.017 865.77 710.182 865.77 710.348C880.285 732.495 915.62 741.867 944.733 731.416C945.148 731.25 945.563 731.167 946.061 730.919C946.309 730.919 946.641 730.67 946.89 730.587H947.056C964.806 723.537 975.672 710.348 977.331 696.082C977.58 694.423 977.58 692.764 977.58 691.022C980.068 708.855 967.543 731.748 944.982 739.96C915.869 750.494 880.534 741.038 866.019 718.892H865.936Z" fill="#03FC9D"/><path d="M865.853 710.432C865.853 710.432 865.604 710.1 865.604 709.934C862.618 705.206 860.711 700.23 860.047 695.253C859.798 693.013 859.715 690.774 859.798 688.534V688.203C860.959 672.858 872.738 658.426 892.395 651.375C921.592 640.841 956.843 650.297 971.359 672.443C975.34 678.498 977.331 684.885 977.497 691.189C977.497 692.848 977.497 694.589 977.248 696.248C975.589 710.515 964.723 723.62 946.973 730.753H946.807C946.807 730.753 946.227 731.002 945.978 731.085C945.563 731.251 945.148 731.417 944.651 731.583C915.537 742.117 880.203 732.661 865.687 710.515L865.853 710.432Z" fill="#E6E8EA"/><path d="M942.411 694.755C946.558 689.363 943.738 683.723 938.844 678.166L945.231 671.198L941.001 667.3L934.697 674.184L931.296 671.115L937.766 664.065L933.536 660.25L927.149 667.134L924.412 664.646L918.606 659.337L914.459 663.733C914.459 663.733 917.611 666.553 917.528 666.553C917.859 666.802 918.108 667.051 918.357 667.466C918.606 667.798 918.689 668.212 918.772 668.627C918.772 669.042 918.772 669.457 918.772 669.871C918.689 670.286 918.523 670.618 918.274 670.95L910.975 678.746L900.773 689.778C900.773 689.778 900.358 690.11 900.109 690.193C899.86 690.276 899.612 690.359 899.363 690.359C899.114 690.359 898.865 690.359 898.616 690.193C898.367 690.027 898.119 689.944 897.953 689.695L894.884 686.792L889.409 691.022L894.884 696.082L897.87 698.902L891.4 705.952L895.63 709.768L901.934 703.049L905.252 706.201L898.865 713.168L903.095 717.067L909.565 710.099C917.03 716.237 923.583 719.057 930.384 713.002C931.462 712.256 932.458 711.261 933.204 710.099C933.951 708.938 934.365 707.611 934.531 706.284C934.697 704.957 934.614 703.547 934.282 702.303C933.951 700.975 933.287 699.814 932.375 698.736C934.282 699.317 936.273 699.317 938.098 698.57C939.923 697.907 941.499 696.579 942.577 694.921V694.672L942.411 694.755ZM922.587 704.21C917.776 709.519 909.399 700.561 906.496 697.99L915.039 688.7C917.859 691.354 927.647 698.819 922.504 704.21H922.587ZM932.789 689.363C928.393 694.091 921.426 686.626 919.021 684.47L926.983 676.009C929.223 678.415 937.434 684.552 932.872 689.446H932.789V689.363Z" fill="#003B2F"/><path d="M865.521 718.809C860.545 711.261 858.554 696.331 859.301 688.368C859.135 690.607 859.3 692.847 859.549 695.086C860.213 700.063 862.038 705.04 865.107 709.768C865.107 709.934 865.355 710.099 865.355 710.265C879.871 732.412 915.205 741.784 944.319 731.333C944.733 731.167 945.148 731.084 945.646 730.836C945.895 730.836 946.227 730.587 946.475 730.504H946.641C964.391 723.454 975.257 710.265 976.916 695.999C977.165 694.34 977.165 692.681 977.165 690.939C979.653 708.772 967.129 731.665 944.568 739.877C915.454 750.411 880.12 740.955 865.604 718.809H865.521Z" stroke="#003B2F" stroke-width="3" stroke-linecap="round" stroke-linejoin="round"/><path d="M865.438 710.266C865.438 710.266 865.189 709.934 865.189 709.768C862.203 705.04 860.296 700.064 859.632 695.087C859.383 692.847 859.3 690.608 859.383 688.368V688.037C860.545 672.692 872.323 658.26 891.981 651.209C921.177 640.675 956.429 650.131 970.944 672.277C974.925 678.332 976.916 684.719 977.082 691.023C977.082 692.682 977.082 694.423 976.833 696.082C975.174 710.349 964.308 723.454 946.558 730.587H946.392C946.392 730.587 945.812 730.836 945.563 730.919C945.148 731.085 944.733 731.251 944.236 731.417C915.122 741.951 879.788 732.495 865.272 710.349L865.438 710.266Z" stroke="#003B2F" stroke-width="3" stroke-linecap="round" stroke-linejoin="round"/><path d="M475.562 381.128L457.673 363.239L439.785 381.128L457.673 399.016L475.562 381.128Z" stroke="#003B2F" stroke-width="3" stroke-linecap="round" stroke-linejoin="round"/><path d="M1267.55 313.709C1277.22 313.709 1285.06 305.873 1285.06 296.207C1285.06 286.541 1277.22 278.706 1267.55 278.706C1257.89 278.706 1250.05 286.541 1250.05 296.207C1250.05 305.873 1257.89 313.709 1267.55 313.709Z" stroke="#003B2F" stroke-width="3" stroke-linecap="round" stroke-linejoin="round"/><path d="M407.169 620.271H367.024C379.715 620.271 390 610.898 390 599.369C390 587.84 379.715 578.467 367.024 578.467H251.731C239.041 578.467 228.756 587.84 228.756 599.369H193.421C180.731 599.369 170.445 608.742 170.445 620.271C170.445 631.8 180.731 641.173 193.421 641.173H268.901C268.901 652.702 279.186 662.075 291.876 662.075H407.169C419.86 662.075 430.145 652.702 430.145 641.173C430.145 629.644 419.86 620.271 407.169 620.271Z" fill="#E6E8EA"/><path d="M322.483 280.613H296.936C304.982 280.613 311.617 274.061 311.617 265.932C311.617 257.803 305.065 251.251 296.936 251.251H223.53C215.484 251.251 208.849 257.803 208.849 265.932H186.288C178.242 265.932 171.607 272.485 171.607 280.613C171.607 288.742 178.159 295.294 186.288 295.294H234.396C234.396 303.34 240.948 309.976 249.077 309.976H322.483C330.529 309.976 337.164 303.423 337.164 295.294C337.164 287.166 330.612 280.613 322.483 280.613Z" fill="#E6E8EA"/><path d="M205.365 81.7943L226.184 93.8213" stroke="#003B2F" stroke-width="3" stroke-linecap="round" stroke-linejoin="round"/><path d="M247.086 81.7943L234.81 88.8446" stroke="#003B2F" stroke-width="3" stroke-linecap="round" stroke-linejoin="round"/><path d="M226.184 93.822V118.125" stroke="#003B2F" stroke-width="3" stroke-linecap="round" stroke-linejoin="round"/><path d="M1473.92 524.718H1532.15" stroke="#003B2F" stroke-width="3" stroke-linecap="round" stroke-linejoin="round"/><path d="M1429.71 524.718H1444.39" stroke="#003B2F" stroke-width="3" stroke-linecap="round" stroke-linejoin="round"/><path d="M1328.93 669.705H1357.71" stroke="#003B2F" stroke-width="3" stroke-linecap="round" stroke-linejoin="round"/><path d="M1208.58 605.257H1416.77" stroke="#03FC9D" stroke-width="3" stroke-linecap="round" stroke-linejoin="round"/><path d="M1394.87 669.622H1511.25" stroke="#003B2F" stroke-width="3" stroke-linecap="round" stroke-linejoin="round"/><path d="M337.164 605.424H365.946" stroke="#003B2F" stroke-width="3" stroke-linecap="round" stroke-linejoin="round"/><path d="M295.609 528.866H503.8" stroke="#03FC9D" stroke-width="3" stroke-linecap="round" stroke-linejoin="round"/><path d="M403.022 605.258H519.476" stroke="#003B2F" stroke-width="3" stroke-linecap="round" stroke-linejoin="round"/><path d="M1245.99 145.33H1362.44" stroke="#003B2F" stroke-width="3" stroke-linecap="round" stroke-linejoin="round"/><path d="M205.365 151.136H356.241" stroke="#03FC9D" stroke-width="3" stroke-linecap="round" stroke-linejoin="round"/><path d="M323.395 184.397H439.767" stroke="#003B2F" stroke-width="3" stroke-linecap="round" stroke-linejoin="round"/><path d="M1343.78 471.302L1357.55 485.071" stroke="#003B2F" stroke-width="3" stroke-linecap="round" stroke-linejoin="round"/><path d="M1367.59 495.108L1381.35 508.876" stroke="#003B2F" stroke-width="3" stroke-linecap="round" stroke-linejoin="round"/><path d="M1343.78 508.876L1357.55 495.108" stroke="#003B2F" stroke-width="3" stroke-linecap="round" stroke-linejoin="round"/><path d="M1367.59 485.071L1381.35 471.302" stroke="#003B2F" stroke-width="3" stroke-linecap="round" stroke-linejoin="round"/><path d="M613.287 60.5605V79.9695" stroke="#003B2F" stroke-width="3" stroke-linecap="round" stroke-linejoin="round"/><path d="M613.287 94.2355V113.645" stroke="#003B2F" stroke-width="3" stroke-linecap="round" stroke-linejoin="round"/><path d="M586.744 87.1024H606.236" stroke="#003B2F" stroke-width="3" stroke-linecap="round" stroke-linejoin="round"/><path d="M620.42 87.1024H639.829" stroke="#003B2F" stroke-width="3" stroke-linecap="round" stroke-linejoin="round"/><path d="M1410.47 172.369L1427.8 162.333" stroke="#003B2F" stroke-width="3" stroke-linecap="round" stroke-linejoin="round"/><path d="M1445.22 172.369L1435.02 166.48" stroke="#003B2F" stroke-width="3" stroke-linecap="round" stroke-linejoin="round"/><path d="M1427.8 162.333V142.095" stroke="#003B2F" stroke-width="3" stroke-linecap="round" stroke-linejoin="round"/><path d="M1281.24 385.124H1403.75C1417.22 385.124 1428.13 374.206 1428.13 360.739V360.656C1428.13 347.188 1417.22 336.27 1403.75 336.27H1281.24C1267.77 336.27 1256.85 347.188 1256.85 360.656V360.739C1256.85 374.206 1267.77 385.124 1281.24 385.124Z" fill="#03FC9D"/><path d="M1347.68 347.633L1548.24 347.633C1570.32 347.633 1588.22 329.734 1588.22 307.654C1588.22 285.574 1570.32 267.675 1548.24 267.675H1347.68C1325.6 267.675 1307.7 285.574 1307.7 307.654C1307.7 329.734 1325.6 347.633 1347.68 347.633Z" fill="#03FC9D"/><path d="M120.015 329.882H247.667C261.73 329.882 273.131 318.482 273.131 304.418C273.131 290.355 261.73 278.954 247.667 278.954H120.015C105.952 278.954 94.5511 290.355 94.5511 304.418C94.5511 318.482 105.952 329.882 120.015 329.882Z" fill="#03FC9D"/></svg>