<svg width="1920" height="1080" viewBox="0 0 1920 1080" fill="none" xmlns="http://www.w3.org/2000/svg"><g clip-path="url(#clip0_1112_2)"><path d="M1085.7 706.374C1085.71 706.381 1085.73 706.388 1085.74 706.395C1096.41 711.211 1106.47 715.755 1122.99 708.029L1085.7 706.374ZM1085.7 706.374L1087.93 705.735M1085.7 706.374L1087.93 705.735M1087.93 705.735C1092.36 707.72 1096.6 709.49 1101.3 710.269C1107.17 711.243 1113.82 710.663 1122.36 706.67L1122.36 706.67C1124.43 705.701 1125.46 704.813 1125.92 704.068C1126.33 703.419 1126.4 702.727 1126.08 701.774L1125.49 699.987L1127.36 699.809L1134.97 699.09L1136 698.993L1136.04 699.075L2714.51 625.427C2710.35 623.877 2705.06 621.885 2698.76 619.51C2649.91 601.107 2539.87 559.656 2419.39 521.798C2346 498.737 2268.78 477.022 2199.2 462.674C2129.58 448.316 2067.79 441.375 2025.18 447.739L2025.01 447.764L2024.85 447.752C1989.25 445.173 1958.02 449.601 1934.1 464.593C1922.28 472.011 1909.5 479.207 1895.92 486.201L1895.53 486.405L1895.08 486.359C1848.19 481.523 1777.29 473.279 1734.44 463.762C1722.04 461.012 1716.92 456.717 1711.27 451.989C1709.53 450.534 1707.74 449.038 1705.68 447.533C1696.92 441.144 1682.5 433.915 1644.17 427.63L1644.17 427.63C1640.21 426.972 1636 426.473 1631.59 426.098L1631.37 426.079L1631.17 425.997C1592.23 410.53 1538.54 413.747 1479.39 428.706C1420.3 443.65 1356.01 470.246 1296.04 501.234L1295.62 501.45L1295.15 501.389L1143.03 481.355L1142.9 481.337L1142.77 481.297L1037.35 447.757L1034.38 446.813L1035.6 445.995C1034.85 445.542 1033.77 444.981 1032.38 444.323C1028.85 442.654 1023.62 440.497 1017.54 438.129C1005.38 433.398 989.952 427.87 978.215 423.79L978.708 422.373L978.215 423.79C965.247 419.279 941.767 416.34 925.482 416.608L925.357 416.61L925.232 416.591C887.627 410.87 843.406 415.69 786.722 443.306C706.771 482.276 660.189 523.666 605.707 572.076C604.335 573.295 602.958 574.518 601.576 575.746L601.254 576.032L600.829 576.104C583.021 579.109 549.794 592.774 512.574 611.997C475.414 631.189 434.471 655.816 401.281 680.6C331.994 732.345 223.954 781.815 120.816 821.401C33.1138 855.062 -51.1571 881.619 -105.257 896.381L962.249 744.107C960.519 743.276 958.307 742.216 955.658 740.952C948.579 737.573 938.375 732.732 925.876 726.883C900.879 715.186 866.708 699.46 830.008 683.343L830.836 680.487L975.918 702.469C1006.35 703.623 1031.71 700.561 1054 694.585L1054.4 694.476L1054.8 694.594C1057.74 695.453 1060.79 696.341 1063.92 697.254C1067.3 698.239 1070.78 699.254 1074.34 700.295L1074.34 700.296C1077.76 701.303 1080.91 702.604 1083.93 703.941L1083.94 703.94L1084.31 704.105C1084.53 704.205 1084.76 704.306 1084.98 704.406L1087.96 705.728L1087.93 705.735Z" fill="white" stroke="#003B2F" stroke-width="3"/><path d="M853.389 545.404L855.085 545.628V545.616C959.939 559.818 1111.94 614.969 1232.87 669.332C1293.64 696.653 1346.5 723.743 1381.51 745.285C1399.04 756.07 1412 765.406 1419.25 772.64C1422.91 776.293 1424.93 779.225 1425.51 781.392C1425.78 782.427 1425.7 783.185 1425.43 783.767C1425.15 784.335 1424.61 784.921 1423.58 785.453C1370.19 799.28 1308.9 799.637 1245.24 794.202L1244.6 794.148L1244.12 794.577C1240.11 798.143 1234.88 801.598 1228.28 804.897L1228.26 804.904L1228.25 804.91C1142.85 849.694 994.839 886.146 823.882 911.529C652.979 936.904 459.323 951.192 282.743 951.73C106.126 952.267 -53.2703 939.047 -155.721 909.473C-207.008 894.668 -243.695 875.853 -261.28 852.902C-270.028 841.485 -274.035 829.063 -272.797 815.542C-271.564 802.076 -265.114 787.365 -252.651 771.353C-252.485 771.293 -252.269 771.214 -252.004 771.117C-251.308 770.863 -250.274 770.485 -248.92 769.987C-246.21 768.991 -242.217 767.517 -237.078 765.601C-226.802 761.77 -211.946 756.176 -193.628 749.122C-156.993 735.014 -106.504 715.065 -51.0887 691.7C59.6999 644.988 190.318 584.566 269.222 529.844L269.224 529.843C275.542 525.45 283.31 517.804 289.618 511.137C294.935 505.517 299.3 500.499 300.957 498.595C301.271 498.234 301.487 497.985 301.595 497.865C307.704 491.037 313.209 484.682 318.311 478.792C330.805 464.367 340.887 452.727 351.537 443.742C366.396 431.206 382.285 423.93 407.271 421.935C416.542 421.194 428.189 422.873 441.284 426.148C454.358 429.418 468.769 434.251 483.535 439.742C498.299 445.232 513.386 451.369 527.817 457.242L528.122 457.366C542.431 463.19 556.096 468.751 568.107 473.136C594.41 482.741 635.185 496.152 684.012 512.211C700.207 517.537 717.288 523.155 735.021 529.022L735.149 529.064L735.282 529.083C778.447 535.178 823.434 541.456 853.389 545.404Z" fill="white" stroke="#003B2F" stroke-width="3"/><path d="M315.114 796.717C637.84 813.73 1086.92 709.777 1458.38 588.475C1644.14 527.816 1810.55 462.797 1932.13 406.347C1992.92 378.125 2042.53 352.029 2077.76 329.676C2095.38 318.501 2109.43 308.238 2119.5 299.087C2126.35 292.865 2131.46 287.067 2134.55 281.767L2134.47 1212.86L-82.2853 1209.62L-82.1611 731.775C-81.6849 731.868 -81.1162 731.979 -80.4581 732.107C-78.1743 732.552 -74.8132 733.204 -70.5036 734.036C-61.8845 735.701 -49.4712 738.083 -34.2938 740.957C-3.93925 746.706 37.4733 754.419 81.7038 762.282C170.117 777.998 269.934 794.335 315.114 796.717Z" fill="white" stroke="#003B2F" stroke-width="3"/><path d="M1371.91 790.66C1371.91 790.66 969.769 791.896 961.549 805.704C953.275 819.458 1037.57 818.867 1105.59 816.986C1173.55 815.106 1365.47 814.139 1402.27 810.593C1439.07 806.993 1494.62 789.156 1371.97 790.714L1371.91 790.66Z" fill="#E6E8EA"/><path d="M1192.57 548.837C1192.57 548.837 1210.25 642.966 1206.65 656.666C1203 670.367 1191.5 688.741 1194.13 697.015C1196.76 705.289 1199.4 717.807 1198.97 730.111C1198.54 742.414 1192.09 762.615 1192.9 770.459C1193.7 778.303 1196.55 784.159 1195.9 787.383C1195.31 790.607 1187.42 800.922 1198.11 804.146C1208.8 807.369 1237.44 804.361 1238.08 799.31C1238.72 794.26 1235.23 790.822 1225.35 788.619C1215.46 786.416 1210.2 780.56 1210.84 774.704C1211.43 768.847 1210.03 755.953 1210.03 750.903C1210.03 745.852 1217.72 711.575 1219.33 706.901C1220.94 702.28 1225.4 697.821 1225.56 686.108C1225.78 674.396 1232.55 643.557 1238.13 633.242C1243.72 622.926 1260.05 585.855 1260.86 570.919C1261.67 555.983 1202.84 541.96 1192.52 548.783L1192.57 548.837Z" fill="#E6E8EA" stroke="#003B2F" stroke-width="1.6118" stroke-linecap="round" stroke-linejoin="round"/><path d="M1060.62 489.147C1060.62 489.147 1039.35 493.123 1035.37 525.788C1031.39 558.454 1033.97 579.998 1022.05 608.688C1010.12 637.378 987.392 657.526 988.52 673.16C989.648 688.795 988.251 704.375 991.367 731.669C994.484 758.908 987.983 785.073 990.508 787.867C993.087 790.714 994.215 790.983 993.624 795.818C993.033 800.654 995.343 805.972 1003.29 809.572C1011.25 813.118 1043.05 814.3 1040.47 807.477C1037.89 800.654 1023.98 797.269 1017.21 790.714C1010.39 784.159 1006.14 782.763 1006.41 779.378C1006.68 775.993 1008.4 777.121 1005.82 771.158C1003.24 765.194 1005.82 710.984 1011.19 694.758C1016.57 678.587 1040.69 637.969 1046.65 630.018C1052.62 622.066 1056.91 621.798 1065.67 616.371C1074.43 610.945 1083.83 599.877 1086.41 590.529C1088.99 581.18 1087.54 502.202 1060.57 489.147H1060.62Z" fill="#E6E8EA" stroke="#003B2F" stroke-width="1.6118" stroke-linecap="round" stroke-linejoin="round"/><path d="M1510.69 456.427C1509.56 454.708 1506.98 452.72 1506.66 451.431C1506.34 450.141 1504.94 445.682 1503.38 444.715C1501.88 443.748 1486.73 434.507 1481.62 431.552C1476.52 428.651 1466.8 423.117 1464.81 421.236C1462.82 419.356 1448.74 408.127 1440.85 408.449C1432.95 408.772 1427.63 412.694 1426.45 414.735C1425.26 416.777 1426.23 416.777 1424.94 418.55C1423.65 420.269 1418.12 424.299 1417.37 424.729C1416.61 425.158 1400.55 424.406 1396.9 428.221C1393.19 432.035 1398.94 434.184 1398.94 434.184C1398.94 434.184 1393.08 433.379 1393.73 436.978C1394.37 440.578 1396.79 443.694 1396.79 443.694C1396.79 443.694 1390.5 443.049 1390.93 446.595C1391.36 450.195 1391.15 451.592 1391.15 451.592C1391.15 451.592 1385.51 447.777 1383.68 451.377C1381.85 454.977 1380.78 460.027 1380.78 460.027C1380.78 460.027 1376.96 457.018 1376 459.705C1375.03 462.391 1370.68 467.387 1366.81 469.375C1362.89 471.309 1355.21 475.232 1338.6 473.512C1322 471.793 1305.24 466.259 1296.86 459.221C1288.53 452.183 1281.44 441.975 1271.93 433.432C1262.37 424.89 1245.6 419.248 1235.82 417.69C1226.05 416.186 1174.68 425.911 1164.58 427.254C1154.48 428.543 1141.16 427.361 1132.83 431.82C1124.5 436.28 1093.4 454.708 1090.12 456.427C1086.95 458.093 1077.71 447.133 1069.65 465.023C1067.18 466.42 1065.19 468.301 1064.01 470.718C1064.01 470.718 1059.49 475.07 1055.03 482.323C1055.03 482.323 1041.28 493.337 1036.93 510.208C1032.58 527.131 1048.26 560.711 1045.95 587.842C1043.64 614.921 1034.19 642.697 1037.84 659.621C1041.5 676.545 1047.08 692.985 1048.43 685.84C1049.72 678.694 1051.22 651.132 1051.92 654.84C1052.56 658.547 1052.99 664.833 1053.85 664.188C1054.71 663.543 1057.13 614.33 1056.86 597.406C1056.65 580.482 1050.58 550.771 1051.01 533.901C1051.01 532.773 1051.17 531.806 1051.22 530.785C1061.27 560.281 1085.01 604.551 1091.09 618.413C1098.77 636.035 1087.81 668.647 1088.13 680.306C1088.4 691.965 1096.08 703.032 1103.76 710.984C1111.45 718.935 1144.06 770.889 1148.36 781.419C1152.6 791.95 1146.1 795.066 1151.47 801.298C1156.85 807.531 1157.17 801.298 1160.82 806.671C1164.53 812.044 1190.37 809.25 1192.36 804.952C1194.35 800.654 1180.16 797.269 1177.32 794.744C1174.47 792.165 1160.82 776.584 1160.82 772.286C1160.82 767.988 1161.41 768.579 1153.46 760.95C1145.51 753.267 1122.52 709.533 1122.25 694.221C1121.98 678.909 1128.1 649.413 1132.4 644.04C1136.65 638.668 1144.6 632.704 1147.44 619.917C1150.29 607.13 1140.08 592.355 1132.94 581.879C1129.45 576.667 1126.22 565.922 1124.56 553.887C1128.32 555.177 1132.35 556.466 1136.91 557.756C1164.64 565.653 1204.61 570.166 1234.27 562.967C1235.02 574.035 1234.91 587.359 1231.04 594.397C1223.79 607.721 1234.86 613.954 1243.78 616.371C1252.64 618.789 1294.01 647.855 1303.31 663.006C1312.6 678.157 1311.58 682.562 1311.96 689.225C1312.33 695.887 1296.64 740.856 1295.41 743.918C1294.17 746.981 1287.94 751.386 1287.56 757.028C1287.19 762.669 1276.87 765.677 1276.28 771.749C1275.69 777.82 1290.63 797.967 1303.95 795.764C1317.27 793.562 1306.37 784.858 1304.97 777.82C1303.57 770.781 1303.36 764.495 1304.54 761.487C1305.78 758.478 1319.96 713.67 1326.35 703.784C1332.75 693.899 1341.24 686.861 1341.24 675.524C1341.24 664.188 1317.01 645.061 1313.57 640.011C1310.13 634.961 1284.12 604.122 1283.69 599.071C1283.27 594.021 1282.3 590.421 1283.69 587.789C1285.09 585.156 1299.44 568.393 1303.09 551.899C1303.63 549.535 1304 547.44 1304.27 545.56C1317.17 540.671 1335.86 532.988 1347.36 532.128C1362.4 530.946 1401.14 509.885 1409.52 510.745C1417.9 511.604 1419.95 522.027 1432.36 517.676C1444.77 513.324 1441.92 498.334 1441.92 498.334C1441.92 498.334 1445.95 500.376 1448.58 496.883C1451.16 493.391 1449.76 480.98 1449.76 480.98C1449.76 480.98 1452.34 483.882 1456.43 480.389C1460.46 476.897 1459.92 468.247 1463.63 467.978C1467.39 467.71 1485.01 471.739 1489.36 474.318C1493.71 476.897 1500.32 479.207 1504.08 477.219C1507.84 475.178 1504.94 471.9 1504.94 471.9C1504.94 471.9 1511.23 476.467 1512.62 471.9C1513.32 469.698 1512.79 459.543 1510.8 456.642L1510.69 456.427Z" fill="#E6E8EA" stroke="#003B2F" stroke-width="1.6118" stroke-linecap="round" stroke-linejoin="round"/><path d="M1446.59 412.049C1446.59 412.049 1438.05 413.876 1436.33 417.099C1434.61 420.377 1439.12 425.642 1440.95 426.125C1442.78 426.609 1445.73 426.555 1446 425.427C1446.27 424.245 1446.59 412.049 1446.59 412.049Z" fill="#003B2F"/><path d="M1444.82 426.555C1444.82 426.555 1440.04 426.233 1439.72 421.559C1439.39 416.884 1444.39 414.413 1446.97 411.566C1449.55 408.772 1448.26 404.098 1451.11 405.172C1453.9 406.247 1455.67 414.843 1455.57 418.496C1455.46 422.203 1449.92 423.6 1448.74 423.063C1448.74 423.063 1447.56 426.448 1444.82 426.555Z" fill="#E6E8EA" stroke="#003B2F" stroke-width="1.6118" stroke-linecap="round" stroke-linejoin="round"/><path d="M1467.55 432.68C1466.79 434.722 1470.45 438.268 1472.27 438.053C1472.27 438.053 1473.4 436.602 1473.4 436.548C1474.91 432.465 1467.98 431.444 1467.55 432.626V432.68Z" fill="#003B2F"/><path d="M1506.71 451.431C1506.39 450.141 1504.99 445.682 1503.44 444.715C1502.63 444.178 1497.74 441.223 1492.69 438.106C1491.99 438.912 1491.29 440.417 1491.67 443.157C1492.31 448.261 1494.09 451.807 1493.33 455.084C1492.64 458.361 1483.18 453.472 1478.51 457.233C1475.23 459.866 1477.11 465.668 1480.6 470.933C1484.36 472.008 1487.69 473.136 1489.25 474.05C1493.6 476.628 1500.21 478.939 1503.97 476.951C1507.73 474.909 1504.83 471.632 1504.83 471.632C1504.83 471.632 1511.12 476.199 1512.51 471.632C1513.21 469.429 1512.68 459.275 1510.69 456.373C1509.56 454.654 1506.98 452.666 1506.66 451.377L1506.71 451.431Z" fill="#E6E8EA" stroke="#003B2F" stroke-width="1.6118" stroke-linecap="round" stroke-linejoin="round"/><path d="M1504.72 450.786C1504.72 450.786 1502.25 448.1 1499.3 446.542C1496.4 445.037 1493.98 442.19 1493.33 445.252C1492.69 448.261 1498.98 450.141 1500.59 450.786C1502.2 451.431 1505.48 452.828 1504.72 450.786Z" fill="#003B2F"/><path d="M1507.25 473.029C1507.25 473.029 1506.93 473.029 1506.77 472.921C1506.71 472.921 1500.75 470.289 1496.29 468.086C1494.84 467.387 1493.07 466.689 1491.4 466.044C1487.64 464.647 1484.09 463.304 1482.43 461.101" stroke="#003B2F" stroke-width="1.6118" stroke-linecap="round" stroke-linejoin="round"/><path d="M1138.26 467.925C1138.26 467.925 1092.54 503.922 1077.98 512.142C1063.47 520.362 1051.22 518.643 1051.49 523.478C1051.81 530.14 1049.61 534.599 1052.72 533.794C1055.89 532.988 1097.53 507.736 1113.97 496.991C1134.76 483.344 1139.12 475.554 1139.98 473.351C1140.84 471.202 1138.26 467.925 1138.26 467.925Z" fill="#003B2F"/><path d="M1161.9 431.068C1161.9 431.068 1122.25 419.141 1106.18 409.631C1090.12 400.068 1084.74 415.488 1081.47 431.068C1078.19 446.703 1074.97 458.361 1094.47 467.065C1113.97 475.715 1159.32 468.14 1166.46 452.129C1173.61 436.065 1161.9 431.122 1161.9 431.122V431.068Z" fill="#003B2F"/><path d="M1127.35 419.248C1127.35 419.248 1131.54 479.1 1127.89 501.665C1124.18 524.23 1119.29 556.305 1123.91 568.716C1128.53 581.127 1143.25 578.279 1162.65 579.139C1181.99 579.998 1244.74 584.619 1249.09 579.139C1253.45 573.659 1257.74 503.062 1252.59 477.81C1247.37 452.559 1236.09 420.538 1226.85 417.905C1217.61 415.273 1183.66 421.021 1168.83 421.612C1154 422.203 1127.4 419.248 1127.4 419.248H1127.35Z" fill="#03FC9D"/><path d="M1241.73 561.14C1239.64 561.033 1237.44 560.979 1234.91 560.979C1228.95 560.979 1220.73 560.872 1207.13 559.206C1196.66 557.917 1189.19 558.185 1181.99 558.454C1176.03 558.669 1170.39 558.884 1163.78 558.078C1151.74 556.627 1129.39 556.251 1122.08 556.144C1122.08 556.735 1122.09 557.326 1122.14 557.863C1129.5 557.971 1151.69 558.347 1163.56 559.797C1170.33 560.603 1176.03 560.388 1182.04 560.173C1189.19 559.905 1196.55 559.636 1206.92 560.872C1220.62 562.591 1228.89 562.645 1234.91 562.645C1237.44 562.645 1239.59 562.645 1241.68 562.806C1244.69 562.967 1247.91 563.075 1250.76 563.075C1251.3 563.075 1251.83 563.075 1252.37 563.075C1252.43 562.484 1252.48 561.946 1252.59 561.355C1249.42 561.355 1245.5 561.355 1241.79 561.14H1241.73Z" fill="#003B2F"/><path d="M1245.98 488.502C1243.88 488.502 1241.68 488.502 1239.15 488.609C1233.19 488.824 1224.97 489.039 1211.32 487.911C1200.85 487.051 1193.38 487.589 1186.18 488.18C1180.22 488.663 1174.57 489.093 1167.91 488.556C1157.22 487.696 1138.26 487.965 1129.07 488.18C1129.07 488.771 1129.01 489.362 1128.96 489.899C1138.04 489.684 1157.06 489.415 1167.75 490.275C1174.52 490.812 1180.22 490.382 1186.29 489.899C1193.43 489.362 1200.85 488.771 1211.16 489.63C1219.28 490.329 1225.45 490.49 1230.45 490.49C1233.89 490.49 1236.74 490.382 1239.21 490.329C1241.73 490.275 1243.88 490.168 1245.98 490.221C1248.66 490.275 1251.51 490.221 1254.14 490.168C1254.14 489.577 1254.04 488.986 1253.98 488.448C1251.46 488.556 1248.66 488.556 1245.98 488.502Z" fill="white"/><path d="M1243.24 541.154C1241.04 541.047 1238.78 540.993 1236.15 540.993C1230.02 540.993 1221.69 540.885 1207.78 539.22C1196.93 537.93 1188.81 538.199 1181.72 538.468C1175.65 538.683 1169.96 538.898 1163.24 538.145C1151.96 536.856 1132.35 536.372 1123 536.265C1122.84 538.038 1122.68 539.757 1122.52 541.476C1131.59 541.638 1151.53 542.067 1162.6 543.357C1169.69 544.163 1175.6 543.948 1181.83 543.733C1189.08 543.464 1196.6 543.196 1207.08 544.431C1221.26 546.151 1229.75 546.204 1235.99 546.258C1238.56 546.258 1240.77 546.258 1242.81 546.419C1245.93 546.58 1249.26 546.688 1252.21 546.688C1252.69 546.688 1253.18 546.688 1253.66 546.688C1253.77 544.969 1253.88 543.249 1253.98 541.476C1250.81 541.476 1246.84 541.476 1243.13 541.262L1243.24 541.154Z" fill="#003B2F"/><path d="M1244.1 507.79C1241.89 507.682 1239.64 507.629 1237.01 507.629C1230.88 507.629 1222.55 507.521 1208.64 505.856C1197.78 504.566 1189.67 504.835 1182.58 505.104C1176.51 505.318 1170.81 505.533 1164.1 504.781C1154.16 503.599 1137.77 503.116 1127.67 502.954C1127.4 504.62 1127.13 506.393 1126.81 508.166C1136.81 508.381 1153.68 508.811 1163.51 509.993C1170.6 510.799 1176.51 510.584 1182.74 510.369C1189.99 510.1 1197.52 509.831 1207.99 511.067C1222.18 512.786 1230.72 512.84 1236.9 512.894C1239.48 512.894 1241.68 512.894 1243.72 513.055C1246.84 513.216 1250.17 513.324 1253.12 513.324C1253.71 513.324 1254.31 513.324 1254.84 513.324C1254.84 511.551 1254.84 509.831 1254.84 508.112C1251.67 508.112 1247.75 508.112 1244.04 507.897L1244.1 507.79Z" fill="#003B2F"/><path d="M1243.18 528.367C1240.98 528.26 1238.72 528.206 1236.15 528.206C1230.02 528.206 1221.64 528.099 1207.72 526.433C1196.93 525.144 1188.87 525.412 1181.77 525.681C1175.7 525.896 1169.95 526.111 1163.19 525.358C1152.65 524.123 1134.39 523.639 1124.56 523.478C1124.39 524.606 1124.23 525.788 1124.13 526.917C1133.8 527.078 1152.28 527.561 1162.81 528.797C1169.79 529.603 1175.7 529.388 1181.94 529.173C1189.24 528.904 1196.76 528.636 1207.35 529.871C1221.48 531.591 1229.97 531.644 1236.2 531.698C1238.78 531.698 1240.98 531.698 1243.08 531.859C1246.19 532.021 1249.52 532.128 1252.43 532.128C1253.18 532.128 1253.93 532.128 1254.63 532.128C1254.63 531 1254.74 529.818 1254.74 528.636C1251.46 528.636 1247.21 528.636 1243.29 528.421L1243.18 528.367Z" fill="#003B2F"/><path d="M1251.4 472.814C1250.6 472.814 1249.79 472.814 1248.99 472.814C1246.73 472.814 1244.47 472.814 1241.84 472.921C1235.82 473.136 1227.55 473.405 1213.8 472.277C1202.83 471.363 1194.72 472.008 1187.58 472.545C1181.61 473.029 1175.97 473.459 1169.42 472.921C1158.13 472.062 1138.69 472.384 1129.34 472.599C1129.34 475.393 1129.34 478.187 1129.28 480.819C1138.42 480.604 1157.92 480.282 1168.77 481.088C1171.08 481.249 1173.29 481.356 1175.43 481.356C1179.84 481.356 1183.92 481.034 1188.17 480.712C1195.37 480.174 1202.78 479.583 1213.04 480.443C1227.23 481.571 1235.77 481.303 1242 481.088C1244.53 480.98 1246.68 480.927 1248.72 480.98C1250.11 480.98 1251.56 480.98 1252.96 480.98C1252.8 479.852 1252.59 478.724 1252.37 477.703C1252.05 476.091 1251.67 474.426 1251.3 472.76L1251.4 472.814Z" fill="white"/><path d="M1479.96 430.585C1479.96 430.585 1475.07 442.566 1472.54 451.86C1470.07 461.209 1466.15 469.107 1470.56 469.537C1474.64 469.966 1480.12 473.029 1480.6 470.987C1481.09 468.946 1491.13 437.139 1490.6 436.871C1490.11 436.548 1482.75 430.262 1479.9 430.531L1479.96 430.585Z" fill="#003B2F"/><path d="M1476.84 446.273C1476.84 446.273 1428.7 420.162 1424.99 418.55C1424.99 418.55 1422.25 419.571 1421.07 422.096C1421.07 422.096 1451.37 440.094 1462.66 446.004C1473.94 451.914 1476.84 451.86 1476.84 451.86V446.327V446.273Z" fill="#003B2F"/><path d="M1218.9 534.17L1221.69 543.249C1221.69 543.249 1226.21 545.936 1230.4 547.924C1234.37 549.75 1237.97 550.879 1239.91 551.631C1243.88 553.189 1234.8 557.379 1229.11 557.379C1223.41 557.379 1214.49 555.875 1208.15 554.21C1203.75 553.081 1209.77 541.638 1209.01 536.91C1208.26 532.182 1217.72 530.301 1218.9 534.17Z" fill="white" stroke="#003B2F" stroke-width="1.6118" stroke-linecap="round" stroke-linejoin="round"/><path d="M1239.85 551.631C1237.92 550.879 1234.32 549.75 1230.34 547.924C1228.46 547.064 1226.53 546.043 1224.97 545.13C1224.65 545.721 1224.22 546.473 1223.63 547.386C1221.96 549.911 1215.51 548.622 1214.12 547.01C1212.94 545.613 1210.46 542.766 1208.37 542.229C1207.13 547.333 1204.93 553.404 1208.1 554.21C1214.49 555.821 1223.41 557.326 1229.05 557.379C1234.75 557.379 1243.77 553.243 1239.85 551.631Z" fill="#003B2F"/><path d="M1202.83 532.074C1203.91 547.171 1227.82 539.918 1230.61 536.211C1232.17 534.17 1249.52 490.221 1259.41 469.268C1244.2 467.925 1222.82 473.405 1214.76 471.578C1209.71 489.2 1200.85 502.901 1202.83 532.074Z" fill="#E6E8EA" stroke="#003B2F" stroke-width="1.6118" stroke-linecap="round" stroke-linejoin="round"/><path d="M1230.61 393.782C1230.61 393.782 1261.24 327.376 1258.76 308.733C1257.37 298.095 1256.51 292.292 1244.37 289.391C1231.31 286.275 1217.5 289.499 1206.92 297.773C1190.58 310.559 1159.42 337.423 1147.12 365.199C1130.03 403.668 1130.57 417.368 1158.83 425.964C1188.22 434.883 1203.96 438.644 1203.96 438.644C1203.96 438.644 1199.18 469.053 1193.49 488.986C1201.54 490.758 1258.71 485.278 1269.24 477.81C1277.35 460.618 1277.3 439.503 1277.25 429.51C1277.19 407.267 1230.56 393.836 1230.56 393.836L1230.61 393.782Z" fill="#003B2F"/><path d="M1183.92 450.141C1184.35 434.56 1185.32 400.444 1185.91 395.179C1186.18 392.654 1186.56 387.818 1186.83 382.768C1187.36 374.226 1193.97 366.113 1193.97 366.113L1169.85 362.191C1169.85 362.191 1164.48 376.697 1160.66 406.193C1158.62 422.15 1157.17 440.954 1156.42 449.067C1158.3 449.174 1164.37 449.496 1171.78 449.926C1177.1 450.249 1181.35 450.195 1183.92 450.141Z" fill="#03FC9D" stroke="#003B2F" stroke-width="1.6118" stroke-linecap="round" stroke-linejoin="round"/><path d="M1160.77 457.394L1162.65 454.439L1163.72 457.878H1171.62L1173.34 455.997L1175.38 457.878H1183.76C1183.76 457.878 1183.82 454.869 1183.98 450.141C1181.4 450.249 1177.15 450.249 1171.84 449.926C1164.42 449.443 1158.4 449.12 1156.47 449.067C1156.04 453.526 1155.88 456.159 1155.83 456.32C1155.66 456.803 1160.77 457.394 1160.77 457.394Z" fill="#003B2F" stroke="#003B2F" stroke-width="1.6118" stroke-linecap="round" stroke-linejoin="round"/><path d="M1164.2 338.175C1164.2 338.175 1185.96 354.669 1204.82 359.612C1226.42 365.253 1245.55 368.047 1245.01 368.96C1244.53 369.874 1242.64 381.479 1238.78 384.863C1234.91 388.248 1209.28 384.756 1178.6 371.808C1167.64 367.187 1150.83 357.731 1150.83 357.731C1150.83 357.731 1153.46 341.184 1164.15 338.121L1164.2 338.175Z" fill="#03FC9D" stroke="#003B2F" stroke-width="1.6118" stroke-linecap="round" stroke-linejoin="round"/><path d="M1265.96 391.364C1265.96 391.364 1275.37 392.278 1276.6 395.609C1277.84 398.94 1277.46 403.345 1275.15 404.044C1272.84 404.742 1271.87 404.688 1271.28 403.292C1270.69 401.895 1271.07 400.337 1271.07 400.337C1271.07 400.337 1262.52 398.779 1260.59 397.059C1258.66 395.34 1256.78 390.612 1266.02 391.311L1265.96 391.364Z" fill="white" stroke="#003B2F" stroke-width="1.6118" stroke-linecap="round" stroke-linejoin="round"/><path d="M1232.76 295.462C1232.76 295.462 1241.14 298.632 1243.88 308.733C1246.62 318.833 1221.91 363.803 1221.91 363.803C1221.91 363.803 1270.53 387.765 1269.24 391.955C1267.95 396.146 1246.78 430.585 1238.62 426.394C1230.45 422.203 1184.46 388.678 1181.93 371.217C1179.36 353.756 1209.55 295.785 1232.71 295.409L1232.76 295.462Z" fill="#003B2F"/><path d="M1262.04 385.616C1259.63 390.075 1255 397.704 1248.07 405.065C1241.14 412.425 1235.34 418.765 1232.12 422.365C1235.07 424.352 1237.33 425.803 1238.67 426.501C1246.84 430.692 1268.01 396.253 1269.3 392.063C1269.62 390.988 1266.66 388.624 1262.1 385.669L1262.04 385.616Z" fill="#03FC9D"/><path d="M1358.91 486.138C1349.4 486.138 1339.57 485.493 1329.74 483.935C1305.83 480.174 1288.37 470.342 1277.78 454.762C1261.13 430.155 1267.63 400.283 1267.95 399.047C1268.27 397.65 1269.62 396.791 1271.01 397.113C1272.41 397.435 1273.27 398.779 1272.95 400.175C1272.89 400.444 1266.61 429.188 1282.08 451.914C1291.86 466.313 1308.14 475.339 1330.6 478.885C1369.17 484.956 1406.51 477.112 1431.07 469.429C1457.77 461.101 1475.5 451.216 1475.66 451.162C1476.89 450.464 1478.45 450.893 1479.15 452.129C1479.85 453.365 1479.42 454.923 1478.18 455.621C1477.43 456.051 1459.86 465.829 1432.73 474.318C1413.93 480.174 1387.65 486.192 1359.02 486.192L1358.91 486.138Z" fill="#003B2F"/><path d="M1243.13 375.354C1243.13 375.354 1242.75 375.354 1242.59 375.246L1222.39 364.877C1222.12 364.716 1221.91 364.501 1221.8 364.179C1221.69 363.91 1221.75 363.588 1221.85 363.265C1221.96 363.104 1230.72 346.019 1235.34 336.295C1239.85 326.678 1243.67 308.679 1243.72 308.518" stroke="#E6E8EA" stroke-width="1.6118" stroke-linecap="round" stroke-linejoin="round"/><path d="M1239.75 426.394C1239.75 426.394 1239.32 426.501 1238.99 426.501C1237.17 426.501 1232.22 424.782 1214.98 409.47C1204.82 400.444 1194.08 389.967 1190.59 386.153C1188.97 384.38 1187.63 382.768 1186.5 381.156" stroke="#E6E8EA" stroke-width="1.6118" stroke-linecap="round" stroke-linejoin="round"/><path d="M1217.02 304.488C1217.02 304.488 1208.1 313.568 1199.83 325.818C1194.24 334.038 1189.57 343.333 1186.56 351.983" stroke="#E6E8EA" stroke-width="1.6118" stroke-linecap="round" stroke-linejoin="round"/><path d="M1195.53 367.08C1207.72 362.835 1220.73 364.179 1221.26 364.232" stroke="#E6E8EA" stroke-width="1.6118" stroke-linecap="round" stroke-linejoin="round"/><path d="M1268.7 281.547C1268.7 281.547 1267.63 278.431 1267.41 277.625C1267.41 276.175 1267.41 274.831 1267.31 273.918C1266.98 270.157 1265.86 268.277 1263.01 267.578C1260.48 266.987 1257.31 269.298 1254.73 275.1C1254.31 276.013 1253.39 276.658 1252.37 276.766L1249.58 277.625C1246.62 288.209 1249.09 290.09 1254.57 292.722C1263.6 296.967 1265.91 295.892 1266.82 288.908C1267.09 287.027 1267.2 284.717 1267.31 282.407C1268.11 282.138 1268.87 281.816 1268.65 281.547H1268.7Z" fill="white" stroke="#003B2F" stroke-width="1.8267" stroke-linecap="round" stroke-linejoin="round"/><path d="M1266.93 283.374C1266.93 283.374 1265.75 283.374 1265.27 283.642C1264.78 283.911 1262.9 282.944 1262.2 283.535C1261.5 284.126 1262.36 284.663 1262.36 284.663C1262.36 284.663 1260.97 284.824 1260.27 285.899C1259.52 286.974 1259.03 287.672 1258.28 287.242C1257.53 286.812 1256.51 282.729 1255.59 282.837C1254.68 282.944 1252.37 287.35 1252.75 289.23C1253.18 291.11 1250.54 302.017 1256.83 304.918C1263.06 307.819 1270.1 306.423 1270.96 303.79C1271.82 301.157 1266.77 288.478 1266.77 288.478C1266.77 288.478 1265.86 287.565 1266.07 287.027C1266.29 286.49 1266.77 286.06 1266.77 286.06C1266.77 286.06 1267.68 284.824 1266.93 283.32V283.374Z" fill="#003B2F"/><path d="M1264.46 275.745C1264.46 275.745 1265.1 275.745 1265.27 276.282C1265.37 276.712 1265.43 277.249 1265.27 277.733C1265.1 278.27 1264.46 278.485 1263.98 278.216C1263.33 277.84 1263.39 275.745 1264.46 275.745Z" fill="#003B2F"/><path d="M1266.77 286.114C1265.32 286.06 1263.92 285.792 1263.33 285.845C1263.12 285.845 1263.6 288.639 1266.77 288.532C1266.88 287.672 1266.77 286.866 1266.77 286.114Z" fill="white"/><path d="M1239.05 264.193C1239.05 264.193 1238.67 255.92 1242.27 253.77C1245.87 251.621 1251.3 253.985 1254.09 254.039C1256.88 254.039 1262.26 252.75 1265 256.188C1267.74 259.627 1267.09 266.181 1266.34 267.954C1265.59 269.727 1242.05 267.847 1239.05 264.247V264.193Z" fill="#03FC9D"/><path d="M1264.41 271.5C1264.41 271.5 1257.96 272.145 1257.64 272.252C1257.37 272.414 1253.72 288.693 1253.82 290.197C1254.57 298.579 1256.35 300.029 1258.77 301.963C1263.71 305.885 1261.56 305.832 1262.26 316.255C1263.65 337.047 1260.65 344.407 1254.74 344.515C1248.83 344.676 1238.13 330.653 1226.31 317.759C1214.49 304.865 1210.63 293.313 1210.63 293.313C1210.63 293.313 1229.54 279.667 1233.84 275.369C1236.25 272.951 1238.03 268.814 1240.93 265.59C1243.18 263.065 1248.72 261.883 1251.51 261.507C1257.91 260.594 1263.28 261.615 1264.41 271.393V271.5Z" fill="#03FC9D"/><path d="M1269.08 272.145C1269.08 272.145 1269.08 264.784 1267.2 263.871C1265.32 262.958 1259.14 264.516 1253.88 263.979C1248.56 263.441 1241.52 259.68 1238.56 261.4C1235.61 263.119 1235.55 267.686 1237.01 270.211C1238.4 272.736 1255.49 273.649 1259.73 273.864C1263.98 274.079 1269.08 272.199 1269.08 272.199V272.145Z" fill="#003B2F"/><path d="M1203.1 437.945L1214.49 423.654" stroke="#E6E8EA" stroke-width="1.6118" stroke-linecap="round" stroke-linejoin="round"/><path d="M1257.69 330.6C1257.69 330.6 1257.69 330.6 1257.64 330.6C1257.31 330.6 1249.42 329.686 1239.85 318.887C1232.01 310.022 1219.27 292.507 1219.17 292.346" stroke="#003B2F" stroke-width="1.8267" stroke-linecap="round" stroke-linejoin="round"/><path d="M1248.23 253.448C1248.23 253.448 1249.42 250.977 1251.03 250.225C1252.64 249.472 1252.85 246.41 1254.04 246.356C1254.73 246.356 1255.06 249.634 1255.92 250.439C1256.83 251.192 1257.1 252.212 1257.64 253.878C1258.12 255.543 1249.95 255.758 1248.18 253.394L1248.23 253.448Z" fill="#03FC9D"/><path d="M1260.86 319.102C1260.86 319.102 1260.75 319.102 1260.7 319.102C1250.22 315.878 1237.06 299.76 1236.52 299.062" stroke="#003B2F" stroke-width="1.8267" stroke-linecap="round" stroke-linejoin="round"/><path d="M1253.45 298.74C1253.45 298.74 1253.12 298.686 1253.02 298.525C1246.3 291.487 1241.68 273.811 1241.68 273.22" stroke="#003B2F" stroke-width="1.8267" stroke-linecap="round" stroke-linejoin="round"/><path d="M1051.11 538.736C1051.11 538.736 1052.62 517.676 1051.11 510.315V538.736Z" fill="#E6E8EA"/><path d="M1051.11 538.736C1051.11 538.736 1052.62 517.676 1051.11 510.315" stroke="#003B2F" stroke-width="1.6118" stroke-linecap="round" stroke-linejoin="round"/><path d="M995.154 488.569C989.428 488.569 983.345 488.092 976.963 487.078C939.27 481.174 911.536 462.208 894.538 430.717C880.642 405.011 877.72 377.218 877.183 362.964C877.004 358.61 873.485 355.211 869.131 355.211H858.336V349.425H869.131C876.646 349.425 882.729 355.27 882.968 362.785C884.161 394.157 895.731 468.53 977.858 481.412C1004.34 485.587 1024.56 480.637 1037.92 466.8C1066.9 436.92 1055.57 374.713 1055.45 374.117L1061.18 373.044C1061.3 373.7 1064.28 389.564 1063.5 409.544C1062.49 436.323 1055.09 457.496 1042.15 470.796C1030.7 482.665 1014.9 488.569 995.154 488.569Z" fill="#003B2F"/><path d="M840.742 344.117C840.742 344.117 844.857 344.654 850.523 344.535C856.189 344.475 858.038 342.865 861.259 344.296C864.48 345.728 867.163 344.117 868.416 345.489C869.668 346.861 863.585 348.65 863.585 348.65C863.585 348.65 867.7 354.912 866.746 357.716C865.792 360.519 860.961 360.34 857.74 360.638C854.579 360.877 851.299 362.248 850.345 360.638C849.39 359.028 848.913 356.165 846.11 355.449C843.307 354.734 839.609 356.881 839.251 354.912C838.834 352.944 839.788 343.998 840.742 344.058V344.117Z" fill="white" stroke="#003B2F" stroke-width="1.78925" stroke-linecap="round" stroke-linejoin="round"/><path d="M901.159 919.063C901.159 919.063 413.231 920.614 403.211 937.254C393.191 953.954 495.477 953.178 577.961 950.912C660.446 948.646 893.287 947.512 937.958 943.158C982.63 938.805 1050.03 917.214 901.159 919.123V919.063Z" fill="#E6E8EA"/><path d="M745.732 147.837C749.549 150.461 752.889 153.98 755.513 161.256C758.078 168.532 751.458 193.701 752.949 203.84C754.5 213.92 759.748 223.224 760.702 232.886C761.657 242.548 738.873 239.446 724.619 237.239C710.365 235.033 708.874 212.965 713.347 201.633C717.76 190.361 734.221 139.845 745.732 147.777V147.837Z" fill="#E6E8EA" stroke="#003B2F" stroke-width="1.78925" stroke-linecap="round" stroke-linejoin="round"/><path d="M752.353 224.834C752.353 224.834 773.705 268.909 786.945 284.237C800.185 299.565 849.449 329.923 855.95 340.3C858.336 344.117 854.877 353.064 851 362.666C848.018 370.002 845.573 378.59 840.801 380.499C829.708 384.972 798.635 368.63 767.681 337.497C736.786 306.304 715.077 253.701 726.707 233.661C738.337 213.562 752.353 224.894 752.353 224.894V224.834Z" fill="#03FC9D" stroke="#003B2F" stroke-width="1.78925" stroke-linecap="round" stroke-linejoin="round"/><path d="M740.543 532.168C740.543 532.168 737.441 563.897 733.624 574.394C729.807 584.891 711.08 595.03 714.718 613.34C718.356 631.65 736.606 649.542 744.419 669.463C752.232 689.383 759.151 725.586 759.509 735.128C759.807 744.671 750.026 768.289 745.732 773.597C741.437 778.905 683.406 800.376 673.267 808.607C663.128 816.897 652.154 820.297 648.217 822.742C644.281 825.187 632.651 809.561 622.333 819.641C612.015 829.72 616.905 870.753 622.75 876.598C628.595 882.384 637.84 875.525 638.496 867.175C639.152 858.885 640.583 852.861 648.217 847.195C655.851 841.529 668.496 845.286 673.863 840.455C679.171 835.624 691.04 827.931 708.455 816.539C725.871 805.148 763.445 796.201 772.212 795.784C781.039 795.366 797.322 787.136 800.781 776.639C804.24 766.142 798.097 741.271 796.248 729.76C794.339 718.25 785.334 675.188 785.632 660.278C785.99 645.367 783.723 624.672 789.33 611.491C794.936 598.31 806.387 585.666 810.443 570.1C814.498 554.533 740.483 532.287 740.483 532.287L740.543 532.168Z" fill="#E6E8EA" stroke="#003B2F" stroke-width="1.78925" stroke-linecap="round" stroke-linejoin="round"/><path d="M527.384 496.323C527.384 496.323 497.861 501.81 492.314 546.66C486.827 591.571 490.346 621.213 473.825 660.636C457.305 700.059 425.754 727.792 427.365 749.263C428.915 770.734 426.947 792.205 431.301 829.66C435.655 867.115 426.589 903.079 430.108 906.956C433.627 910.833 435.237 911.25 434.462 917.87C433.687 924.491 436.848 931.886 447.881 936.777C458.915 941.667 503.05 943.278 499.471 933.854C495.952 924.491 476.629 919.779 467.146 910.833C457.722 901.827 451.758 899.918 452.175 895.206C452.593 890.495 454.919 892.105 451.4 883.875C447.881 875.704 451.4 801.092 458.855 778.846C466.311 756.599 499.77 700.775 508.06 689.86C516.35 678.946 522.254 678.528 534.481 671.133C546.708 663.737 559.709 648.469 563.228 635.586C566.747 622.704 564.779 514.156 527.384 496.204V496.323Z" fill="#E6E8EA" stroke="#003B2F" stroke-width="1.78925" stroke-linecap="round" stroke-linejoin="round"/><path d="M1109.43 369.226C1108.83 366.065 1101.61 354.018 1097.32 351.632C1094.81 350.26 1090.4 349.485 1089.15 348.113C1087.9 346.742 1083.3 342.149 1080.8 341.97C1078.29 341.732 1053.78 340.181 1045.61 339.883C1037.44 339.585 1021.93 339.107 1018.35 338.094C1014.78 337.08 990.203 332.368 980.66 337.855C971.118 343.342 967.122 351.573 967.002 354.853C966.883 358.133 968.076 357.537 967.599 360.519C967.122 363.501 962.947 371.97 962.291 372.984C961.635 373.998 957.221 414.852 953.762 428.451C950.005 443.421 935.989 477.118 912.967 474.733C889.945 472.347 866.626 464.653 855.055 454.872C843.485 445.091 833.703 430.956 820.463 419.087C807.222 407.218 783.902 399.405 770.364 397.258C756.825 395.111 685.553 408.709 671.597 410.499C657.641 412.288 639.092 410.677 627.522 416.821C615.951 422.964 572.771 448.55 568.298 450.936C563.944 453.262 551.181 438.172 540.028 462.506C535.972 464.474 532.572 467.158 530.366 470.737C530.366 470.737 517.244 481.83 507.821 499.245C502.692 505.866 497.265 514.812 494.521 525.488C488.497 548.927 510.266 595.567 507.046 633.141C503.825 670.715 490.764 709.244 495.773 732.683C500.783 756.122 508.656 779.025 510.445 769.064C512.235 759.104 514.382 720.934 515.276 726.063C516.171 731.192 516.767 739.9 517.96 739.005C519.153 738.11 522.493 669.821 522.195 646.381C522.075 637.674 520.823 626.461 519.392 614.652C528.338 640.835 537.582 664.751 540.863 675.546C548.258 699.94 527.085 745.208 525.356 761.371C523.626 777.533 532.215 792.861 541.399 803.895C550.584 814.929 586.31 886.976 590.306 901.588C594.302 916.141 584.64 920.495 590.962 929.143C597.284 937.791 598.834 929.143 602.95 936.598C607.065 944.053 643.446 940.117 646.965 934.212C650.484 928.308 631.458 923.596 627.999 920.017C624.54 916.499 608.496 894.789 609.272 888.885C610.047 882.98 610.763 883.755 601.101 873.139C591.498 862.523 567.642 801.867 570.027 780.575C572.413 759.283 586.429 718.429 593.288 710.973C600.206 703.518 612.313 695.228 618.576 677.514C624.838 659.801 613.387 639.284 605.514 624.731C601.041 616.501 602.353 600.159 606.468 582.326C614.043 585.428 622.751 588.35 633.128 591.272C667.363 601.054 715.136 607.137 754.201 601.292C764.996 623.24 811.994 719.92 812.352 737.574C812.829 757.553 804.538 786.778 811.218 797.036C817.898 807.235 826.248 823.219 830.423 840.038C834.658 856.857 837.282 885.246 838.654 896.28C840.025 907.314 844.141 915.485 843.425 920.077C842.709 924.67 832.093 939.401 847.063 943.576C862.033 947.751 901.635 942.622 902.291 935.465C902.947 928.367 898.116 923.596 884.339 920.793C870.562 917.99 863.107 909.878 863.763 901.648C864.419 893.417 855.294 870.753 853.325 863.954C851.357 857.095 848.375 807.712 848.733 800.853C849.091 793.935 853.325 786.241 849.031 770.317C844.797 754.392 841.934 709.959 845.393 693.916C848.435 679.84 838.475 612.505 832.809 582.207C840.204 581.193 845.989 580.537 851.596 579.046C866.148 575.05 927.639 560.855 945.353 549.702C963.066 538.549 1001.12 489.822 1007.14 479.862C1019.43 459.643 1042.21 398.749 1046.62 395.946C1051.04 393.143 1075.31 386.761 1082.29 387.179C1089.27 387.596 1098.87 386.165 1102.21 381.214C1105.49 376.324 1099.82 374.117 1099.82 374.117C1099.82 374.117 1110.5 375.668 1109.25 369.167L1109.43 369.226Z" fill="#E6E8EA" stroke="#003B2F" stroke-width="1.78925" stroke-linecap="round" stroke-linejoin="round"/><path d="M989.964 338.511C989.964 338.511 980.66 346.205 980.66 351.334C980.66 356.463 989.606 359.982 992.171 359.445C994.735 358.908 998.314 356.881 997.896 355.27C997.479 353.66 989.964 338.451 989.964 338.451V338.511Z" fill="#003B2F"/><path d="M1089.15 348.113C1087.9 346.742 1083.3 342.149 1080.8 341.97C1079.43 341.851 1071.55 341.314 1063.32 340.837C1062.96 342.268 1063.14 344.594 1065.29 347.755C1069.41 353.6 1073.82 356.881 1075.07 361.294C1076.32 365.767 1061.59 365.827 1058.31 373.521C1056.05 378.888 1062.07 384.793 1069.76 389.027C1075.07 387.894 1079.9 387.119 1082.41 387.298C1089.39 387.715 1098.99 386.284 1102.33 381.334C1105.61 376.443 1099.94 374.236 1099.94 374.236C1099.94 374.236 1110.62 375.787 1109.37 369.286C1108.77 366.125 1101.55 354.077 1097.26 351.692C1094.75 350.32 1090.34 349.545 1089.09 348.173L1089.15 348.113Z" fill="#E6E8EA" stroke="#003B2F" stroke-width="1.78925" stroke-linecap="round" stroke-linejoin="round"/><path d="M1086.34 348.59C1086.34 348.59 1081.51 346.861 1076.98 346.92C1072.39 346.92 1067.68 345.012 1068.81 349.187C1069.94 353.362 1078.89 351.513 1081.28 351.274C1083.72 351.036 1088.61 350.678 1086.34 348.59Z" fill="#003B2F"/><path d="M997.182 357.537C997.182 357.537 991.098 360.221 987.699 354.674C984.299 349.187 988.832 342.865 990.203 337.736C991.575 332.606 986.983 327.716 991.158 327.239C995.333 326.762 1002.97 336.125 1005.23 340.718C1007.5 345.31 1001.6 350.618 999.806 350.738C999.806 350.738 1000.52 355.628 997.241 357.537H997.182Z" fill="#E6E8EA" stroke="#003B2F" stroke-width="1.78925" stroke-linecap="round" stroke-linejoin="round"/><path d="M1028.97 350.32C1029.39 353.302 1036.19 355.33 1038.22 353.899L1038.69 351.334C1037.92 345.31 1028.73 348.59 1028.97 350.32Z" fill="#003B2F"/><path d="M606.647 582.147C607.184 579.523 611.895 556.263 616.786 551.134" stroke="#003B2F" stroke-width="1.78925" stroke-linecap="round" stroke-linejoin="round"/><path d="M635.036 466.86C635.036 466.86 571.577 516.78 551.418 528.231C531.259 539.682 505.494 543.022 509.967 548.092C514.44 553.102 512.054 559.424 516.408 558.231C520.762 557.098 562.511 537.535 585.294 522.625C614.161 503.659 636.228 477.416 637.481 474.375C638.674 471.393 635.095 466.86 635.095 466.86H635.036Z" fill="#003B2F"/><path d="M667.78 415.747C667.78 415.747 612.731 399.226 590.485 385.986C568.238 372.745 560.723 394.097 556.191 415.747C551.658 437.397 547.185 453.619 574.262 465.667C601.339 477.715 664.202 467.158 674.102 444.912C684.003 422.665 667.78 415.747 667.78 415.747Z" fill="#003B2F"/><path d="M619.888 399.345C619.888 399.345 625.733 482.367 620.604 513.679C615.474 544.99 608.675 589.483 615.057 606.72C621.498 623.956 641.896 619.96 668.794 621.153C695.633 622.346 782.65 628.787 788.674 621.153C794.698 613.519 800.722 515.647 793.505 480.577C786.288 445.508 770.603 401.135 757.78 397.497C744.957 393.799 697.84 401.85 677.323 402.626C656.747 403.401 619.888 399.345 619.888 399.345Z" fill="#03FC9D"/><path d="M1042.87 339.763C1042.87 339.763 1044.54 357.596 1047.52 370.658C1050.5 383.719 1050.8 395.946 1056.47 393.68C1061.77 391.532 1070.48 391.771 1069.77 389.027C1069.05 386.224 1060.82 340.718 1060.04 340.658C1059.21 340.658 1046.21 337.616 1042.87 339.763Z" fill="#003B2F"/><path d="M1049.13 361.115C1049.13 361.115 1031.36 366.662 1011.97 366.483C991.993 366.244 970.403 360.28 967.6 360.519C967.6 360.519 964.856 363.56 965.035 367.437C965.035 367.437 997.301 377.696 1015.02 377.696C1032.67 377.696 1052.77 368.034 1052.77 368.034L1049.19 361.234L1049.13 361.115Z" fill="#003B2F"/><path d="M836.684 508.788C836.684 508.788 830.183 521.134 834.418 542.068C839.01 564.732 833.344 581.372 833.106 582.028" stroke="#003B2F" stroke-width="1.78925" stroke-linecap="round" stroke-linejoin="round"/><path d="M681.199 398.033C677.62 398.332 675.175 401.731 676.07 405.25C681.08 424.395 690.324 452.009 690.324 504.673C690.324 547.257 682.094 573.32 696.527 576.362C710.96 579.344 799.051 575.467 802.093 572.128C805.075 568.847 805.433 511.651 796.844 480.399C788.256 449.146 775.612 399.823 768.097 396.542C761.954 393.858 700.761 396.542 681.199 398.093V398.033Z" fill="#003B2F"/><path d="M770.722 609.046C778.893 609.046 786.229 608.926 791.954 608.628C792.61 604.513 793.207 599.622 793.743 594.135C765.95 595.984 658.655 591.69 636.647 589.483C635.932 580.954 637.84 555.786 644.758 516.661C650.663 483.44 645.892 427.198 643.208 401.493C637.661 401.075 632.532 400.658 628.536 400.24C631.041 423.799 636.23 481.83 630.504 514.096C626.747 535.329 624.003 555.249 622.751 570.279C622.095 578.032 621.916 584.294 622.095 588.827C622.393 594.612 623.287 600.278 628.238 602.545C629.729 603.201 631.101 603.857 657.045 605.348C672.73 606.243 692.651 607.137 711.796 607.793C731.12 608.449 752.948 609.046 770.602 609.046H770.722Z" fill="#003B2F"/><path d="M893.765 448.61C890.246 423.918 857.98 356.463 830.425 349.008C797.682 340.121 738.995 351.095 738.995 351.095C738.995 351.095 745.197 394.992 744.005 418.371C755.396 416.403 767.384 413.182 777.881 409.962C782.533 420.816 788.855 433.103 795.296 438.053C808 447.834 827.324 461.552 832.692 461.552C840.087 461.552 847.244 453.023 850.167 448.669C851.837 450.101 853.507 451.413 854.998 452.486C871.876 464.116 884.699 466.502 889.948 457.854C890.783 456.482 894.421 453.262 893.765 448.61Z" fill="#E6E8EA" stroke="#003B2F" stroke-width="1.78925" stroke-linecap="round" stroke-linejoin="round"/><path d="M844.023 442.824C843.903 442.526 829.709 411.453 824.878 404.892C820.285 398.63 812.114 393.083 807.462 393.023" stroke="#003B2F" stroke-width="1.78925" stroke-linecap="round" stroke-linejoin="round"/><path d="M812.055 392.964C820.345 389.624 824.64 383.362 824.64 383.302" stroke="#003B2F" stroke-width="1.78925" stroke-linecap="round" stroke-linejoin="round"/><path d="M813.724 345.549C813.724 345.549 758.854 334.097 752.174 330.638C758.198 298.193 758.675 231.335 750.385 221.434C739.828 208.731 722.77 205.092 719.371 205.212C719.371 205.212 684.123 204.138 669.331 229.188C654.54 254.178 638.676 330.579 636.23 338.571C633.785 346.563 624.6 374.356 632.354 392.725C636.767 403.103 653.526 408.53 672.612 412.288C688.954 420.578 718.834 454.275 738.933 458.093C762.909 462.625 785.871 514.096 789.688 504.732C815.036 442.586 813.724 345.668 813.724 345.668V345.549Z" fill="#03FC9D" stroke="#003B2F" stroke-width="1.78925" stroke-linecap="round" stroke-linejoin="round"/><path d="M890.304 450.876L897.938 458.51C897.938 458.51 903.903 458.808 909.151 458.51C914.101 458.212 918.336 457.377 920.662 457.138C925.493 456.602 918.634 465.667 912.968 468.649C907.243 471.631 897.581 474.971 890.304 476.76C885.294 478.013 885.175 463.341 881.895 458.987C878.615 454.693 887.084 447.715 890.304 450.936V450.876Z" fill="white" stroke="#003B2F" stroke-width="1.78925" stroke-linecap="round" stroke-linejoin="round"/><path d="M920.72 457.079C918.394 457.317 914.16 458.212 909.21 458.45C906.884 458.57 904.379 458.57 902.351 458.57C902.351 459.345 902.351 460.299 902.231 461.552C901.933 464.951 894.776 467.158 892.51 466.263C890.601 465.488 886.605 463.937 884.22 464.534C885.77 470.319 886.784 477.536 890.422 476.641C897.699 474.852 907.361 471.512 913.086 468.53C918.812 465.548 925.611 456.482 920.78 457.019L920.72 457.079Z" fill="#003B2F"/><path d="M845.455 449.504L854.998 454.574C854.998 454.574 860.783 453.142 865.733 451.353C870.385 449.683 874.202 447.655 876.349 446.701C880.823 444.792 876.886 455.409 872.294 459.941C867.701 464.474 859.352 470.379 852.91 474.196C848.437 476.82 844.143 462.804 839.789 459.584C835.376 456.423 841.519 447.297 845.515 449.445L845.455 449.504Z" fill="white" stroke="#003B2F" stroke-width="1.78925" stroke-linecap="round" stroke-linejoin="round"/><path d="M876.289 446.701C874.142 447.655 870.325 449.683 865.673 451.353C863.466 452.128 861.081 452.904 859.113 453.441C859.351 454.156 859.59 455.11 859.828 456.363C860.544 459.703 854.282 463.878 851.836 463.639C849.749 463.46 845.514 463.102 843.367 464.355C846.469 469.484 849.57 476.104 852.791 474.196C859.232 470.379 867.582 464.415 872.174 459.941C876.766 455.409 880.703 444.792 876.23 446.701H876.289Z" fill="#003B2F"/><path d="M933.782 488.092C927.818 488.092 921.675 487.615 915.472 486.601C877.778 480.697 850.045 461.731 833.047 430.24C819.151 404.534 816.169 376.741 815.691 362.487C815.513 358.133 811.994 354.734 807.64 354.734H796.845V348.948H807.64C815.155 348.948 821.238 354.793 821.477 362.308C822.67 393.68 834.24 468.053 916.367 480.935C958.712 487.556 994.199 470.856 1021.81 431.313C1042.63 401.552 1050.86 369.405 1050.92 369.107L1056.58 370.539C1056.23 371.91 1048 403.998 1026.58 434.653C1013.94 452.784 999.328 466.502 983.165 475.508C968.016 483.917 951.436 488.152 933.842 488.152L933.782 488.092Z" fill="#003B2F"/><path d="M748.478 162.807C748.478 162.807 751.877 145.332 733.806 144.854C720.923 144.497 720.327 150.878 720.327 150.878C720.327 150.878 716.152 151.296 715.078 153.801C714.005 156.306 713.289 174.854 714.899 180.699C716.51 186.604 720.029 187.2 723.965 186.842C727.842 186.484 748.537 162.807 748.537 162.807H748.478Z" fill="#E6E8EA"/><path d="M721.936 173.482L710.366 206.047C709.948 210.937 728.019 222.448 736.19 216.782C738.576 215.112 737.92 185.411 737.92 185.411L721.936 173.423V173.482Z" fill="white" stroke="#003B2F" stroke-width="1.78925" stroke-linecap="round" stroke-linejoin="round"/><path d="M728.973 161.017L719.907 181.713C717.462 187.975 720.385 195.132 726.587 197.757C731.538 199.844 734.877 200.321 741.617 200.44C747.223 200.56 750.742 195.669 751.756 188.452C753.068 179.089 752.83 170.202 752.77 165.312C752.77 163.105 752.054 159.288 750.861 157.677C748.893 155.053 745.494 152.071 742.333 153.443C735.593 156.365 732.134 155.59 728.973 161.017Z" fill="white" stroke="#003B2F" stroke-width="1.78925" stroke-linecap="round" stroke-linejoin="round"/><path d="M746.867 174.854C748.775 174.973 754.919 175.093 754.978 180.997C754.978 182.548 758.08 194.417 755.396 200.262C753.189 205.033 745.257 206.464 740.724 206.226C736.191 205.928 730.406 201.812 727.722 198.89C722.891 193.701 724.263 190.421 724.203 186.126C724.143 179.148 722.235 163.701 724.203 164.119C724.501 164.119 727.126 165.013 726.887 165.848C725.694 169.964 728.915 185.351 731.897 185.232C735.356 185.053 732.016 174.079 746.927 174.914L746.867 174.854Z" fill="#003B2F"/><path d="M750.146 171.276C750.086 172.409 749.072 173.423 747.879 173.482L750.146 171.276Z" fill="white"/><path d="M750.146 171.276C750.086 172.409 749.072 173.423 747.879 173.482" stroke="#003B2F" stroke-width="1.78925" stroke-linecap="round" stroke-linejoin="round"/><path d="M742.095 162.628L737.8 163.582L742.095 162.628Z" fill="white"/><path d="M742.095 162.628L737.8 163.582" stroke="#003B2F" stroke-width="1.78925" stroke-linecap="round" stroke-linejoin="round"/><path d="M751.696 163.82C750.921 163.522 750.086 163.284 749.251 163.164L751.696 163.82Z" fill="white"/><path d="M751.696 163.82C750.921 163.522 750.086 163.284 749.251 163.164" stroke="#003B2F" stroke-width="1.78925" stroke-linecap="round" stroke-linejoin="round"/><path d="M744.778 178.134C744.778 178.134 747.342 179.983 751.04 178.552" stroke="white" stroke-width="1.78925" stroke-linecap="round" stroke-linejoin="round"/><path d="M752.414 149.507C752.891 150.341 753.845 157.081 752.891 157.021C751.34 156.842 751.34 156.127 748.657 157.439C745.794 158.87 739.531 156.544 738.458 157.26C735.535 159.228 729.989 166.624 728.498 171.395C727.007 176.226 720.506 209.208 719.432 213.323C719.432 213.323 714.005 229.307 707.504 234.198C701.003 239.088 650.785 259.844 650.606 257.398C650.427 254.953 661.759 224.894 668.2 218.333C678.935 207.419 691.162 200.56 696.649 194.357C702.136 188.214 707.206 160.838 710.546 153.443C713.885 146.107 715.854 138.95 729.571 137.22C737.205 136.266 745.317 136.982 752.354 149.447L752.414 149.507Z" fill="#E6E8EA" stroke="#003B2F" stroke-width="1.78925" stroke-linecap="round" stroke-linejoin="round"/><path d="M711.439 205.212C711.439 205.212 738.397 221.255 744.719 251.911C751.041 282.567 750.206 308.929 750.027 322.885C749.849 336.901 754.501 392.845 755.872 413.421C757.244 433.997 764.878 484.156 754.322 484.395C743.765 484.633 732.612 475.925 728.914 468.291C725.217 460.657 712.811 464.892 711.499 457.973C710.187 451.115 712.811 255.549 705.177 242.846C697.543 230.142 687.94 223.999 684.064 228.174C680.127 232.349 671.897 250.241 671.121 268.193C670.346 286.146 663.189 327.716 660.565 344.714C657.941 361.712 640.167 368.749 634.919 368.869C629.671 368.928 622.215 364.634 622.215 364.634C622.215 364.634 640.167 307.557 644.7 289.307C649.173 271.056 651.44 243.084 659.432 226.921C667.066 211.534 683.288 197.936 711.559 205.093L711.439 205.212Z" fill="#E6E8EA" stroke="#003B2F" stroke-width="1.78925" stroke-linecap="round" stroke-linejoin="round"/><path d="M820.644 344.594C819.749 342.984 817.543 346.085 811.28 345.25C810.863 345.25 810.386 345.25 809.908 345.25C808.06 344.714 806.628 344.356 806.628 344.356C806.628 344.356 795.237 341.254 793.805 343.223C792.314 345.131 791.419 351.215 795.535 353.72C799.65 356.165 802.871 363.322 806.628 364.395C810.445 365.469 811.996 366.483 814.62 367.199C817.244 367.914 817.602 365.171 816.648 362.248C815.813 359.684 818.199 351.692 817.841 348.948C819.928 347.457 821.24 345.608 820.644 344.594Z" fill="white" stroke="#003B2F" stroke-width="1.78925" stroke-linecap="round" stroke-linejoin="round"/><path d="M679.889 229.784C686.808 220.54 700.943 221.494 706.847 231.395C715.853 246.663 738.278 284.177 748.716 296.225C761.956 311.553 800.067 329.863 806.568 340.241C808.954 344.058 805.495 353.004 801.618 362.606C798.636 369.942 796.19 378.531 791.419 380.439C780.326 384.912 749.252 368.57 718.298 337.437C687.404 306.245 665.694 253.641 677.325 233.601C678.16 232.17 678.995 230.858 679.889 229.725V229.784Z" fill="#03FC9D" stroke="#003B2F" stroke-width="1.78925" stroke-linecap="round" stroke-linejoin="round"/><path d="M761.06 151.773C761.06 151.773 764.162 158.333 754.798 159.705C745.434 161.077 733.506 162.151 726.349 162.091C719.192 162.031 707.502 165.61 704.043 163.463C700.524 161.316 699.629 152.727 704.818 148.671C710.007 144.675 737.74 144.377 744.778 143.542C751.876 142.707 759.51 141.336 761.12 151.713L761.06 151.773Z" fill="#003B2F" stroke="#003B2F" stroke-width="1.78925" stroke-linecap="round" stroke-linejoin="round"/><path d="M730.763 144.497C729.272 144.616 727.721 144.676 726.171 144.795C725.753 146.524 725.276 148.552 724.739 150.819C723.726 155.232 722.712 159.765 721.757 162.449C723.368 162.27 724.978 162.151 726.35 162.151C726.35 162.151 726.469 162.151 726.529 162.151C727.423 159.288 728.199 155.65 729.093 151.833C729.57 149.626 730.167 146.942 730.823 144.556L730.763 144.497Z" fill="#03FC9D" stroke="#003B2F" stroke-width="1.78925" stroke-linecap="round" stroke-linejoin="round"/><path d="M750.745 143.065C750.507 145.749 750.208 148.85 749.91 152.489C749.672 155.65 749.373 159.228 749.135 160.54C750.685 160.361 752.176 160.182 753.668 159.944C753.846 158.393 754.025 156.127 754.324 152.846C754.503 150.401 754.801 147.002 755.159 143.602C753.846 143.184 752.355 143.065 750.805 143.125L750.745 143.065Z" fill="#03FC9D" stroke="#003B2F" stroke-width="1.78925" stroke-linecap="round" stroke-linejoin="round"/><path d="M739.233 161.196C739.054 159.228 741.082 151.296 742.275 146.465C742.514 145.511 742.752 144.616 742.931 143.721C741.679 143.841 740.068 143.9 738.339 144.019C738.219 144.497 738.1 144.914 737.981 145.391C735.714 154.337 734.581 159.228 734.879 161.793C736.43 161.673 738.04 161.554 739.71 161.435C739.531 161.375 739.353 161.316 739.233 161.196Z" fill="#03FC9D" stroke="#003B2F" stroke-width="1.78925" stroke-linecap="round" stroke-linejoin="round"/><path d="M713.527 163.642C713.647 162.747 713.885 161.494 714.064 159.765C714.362 156.127 715.257 150.282 715.913 145.809C714.303 146.047 712.752 146.226 711.321 146.524C710.665 150.819 709.949 155.948 709.651 159.407C709.531 161.077 709.293 162.27 709.173 163.105C709.114 163.463 709.054 163.82 709.054 164.178C710.426 164.119 711.977 163.94 713.587 163.701L713.527 163.642Z" fill="#03FC9D" stroke="#003B2F" stroke-width="1.78925" stroke-linecap="round" stroke-linejoin="round"/><path d="M716.867 303.263C725.217 291.454 740.664 287.696 741.32 287.577" stroke="#003B2F" stroke-width="1.78925" stroke-linecap="round" stroke-linejoin="round"/><path d="M690.981 208.969C690.981 208.969 703.565 208.969 715.494 218.87C726.766 228.233 732.253 244.039 734.877 251.613C735.056 252.09 735.235 252.567 735.354 253.044C737.859 260.142 741.557 278.154 741.617 278.332" stroke="#003B2F" stroke-width="1.78925" stroke-linecap="round" stroke-linejoin="round"/><path d="M757.363 429.822L735.176 428.033C735.176 428.033 735.772 420.995 734.58 417.357C733.566 414.375 716.627 413.838 710.961 413.779C710.961 420.399 710.961 426.482 710.961 431.91L735.355 432.864L735.892 443.182L758.496 442.586C758.138 438.232 757.661 433.938 757.303 429.822H757.363Z" fill="#003B2F"/><path d="M711.081 226.564C711.379 226.921 718.536 235.152 721.041 241.653C723.546 248.154 723.665 255.132 723.665 255.43C723.665 255.728 723.427 255.967 723.129 255.967" stroke="#003B2F" stroke-width="1.78925" stroke-linecap="round" stroke-linejoin="round"/><path d="M733.625 361.413C733.625 362.01 734.937 419.564 736.01 434.176C737.084 448.848 736.01 469.246 736.01 469.484" stroke="#003B2F" stroke-width="1.78925" stroke-linecap="round" stroke-linejoin="round"/><path d="M660.862 342.09C661.577 337.497 662.532 331.712 663.546 325.33C658.774 323.839 649.053 321.692 649.053 321.692C649.053 321.692 650.842 313.044 651.021 312.03C651.14 311.374 643.864 309.764 639.212 308.809C637.721 313.879 636.11 319.306 634.44 324.734L646.428 327.895L644.043 337.437L660.862 342.149V342.09Z" fill="#003B2F"/><path d="M635.635 360.042C635.635 360.042 643.627 337.676 648.04 323.302C650.128 316.503 651.857 303.322 653.647 289.426C655.674 273.561 657.821 257.16 660.744 247.975C667.483 227.1 677.742 220.54 679.77 219.407" stroke="#003B2F" stroke-width="1.78925" stroke-linecap="round" stroke-linejoin="round"/><path d="M519.451 614.712C519.451 614.712 516.469 565.03 509.968 548.092L519.451 614.712Z" fill="#E6E8EA"/><path d="M519.451 614.712C519.451 614.712 516.469 565.03 509.968 548.092" stroke="#003B2F" stroke-width="1.78925" stroke-linecap="round" stroke-linejoin="round"/><path d="M741.557 165.192C741.557 165.192 742.273 165.192 742.452 165.789C742.571 166.266 742.631 166.862 742.452 167.399C742.273 167.995 741.557 168.234 741.021 167.936C740.305 167.518 740.365 165.192 741.557 165.192Z" fill="#003B2F"/><path d="M750.145 165.192C750.145 165.192 750.861 165.192 751.04 165.789C751.159 166.266 751.219 166.862 751.04 167.399C750.861 167.995 750.145 168.234 749.609 167.936C748.893 167.518 748.952 165.192 750.145 165.192Z" fill="#003B2F"/><path d="M395.95 237.816H341.33C358.637 237.816 372.686 225.117 372.686 209.383C372.686 193.649 358.637 180.949 341.33 180.949H184.438C167.131 180.949 153.083 193.649 153.083 209.383H104.869C87.5615 209.383 73.5132 222.082 73.5132 237.816C73.5132 253.55 87.5615 266.25 104.869 266.25H207.702C207.702 281.984 221.751 294.684 239.058 294.684H395.95C413.257 294.684 427.305 281.984 427.305 266.25C427.305 250.516 413.257 237.816 395.95 237.816Z" fill="#03FC9D"/><path d="M1560.32 275.022H1661.62C1672.8 275.022 1681.86 265.98 1681.86 254.826C1681.86 243.673 1672.8 234.631 1661.62 234.631H1560.32C1549.15 234.631 1540.09 243.673 1540.09 254.826C1540.09 265.98 1549.15 275.022 1560.32 275.022Z" fill="#E6E8EA"/><path d="M1612.52 328.083H1773.65C1791.43 328.083 1805.83 313.691 1805.83 295.937C1805.83 278.183 1791.43 263.79 1773.65 263.79H1612.52C1594.75 263.79 1580.34 278.183 1580.34 295.937C1580.34 313.691 1594.75 328.083 1612.52 328.083Z" fill="#03FC9D"/><path d="M73.5132 686.754H112.624" stroke="#003B2F" stroke-width="3" stroke-linecap="round" stroke-linejoin="round"/><path d="M215.905 643.822H407.411" stroke="#03FC9D" stroke-width="3" stroke-linecap="round" stroke-linejoin="round"/><path d="M163.196 686.641H321.773" stroke="#003B2F" stroke-width="3" stroke-linecap="round" stroke-linejoin="round"/><path d="M888.931 93.3779H1117.3" stroke="#03FC9D" stroke-width="3" stroke-linecap="round" stroke-linejoin="round"/><path d="M1067.58 143.721H1243.72" stroke="#003B2F" stroke-width="3" stroke-linecap="round" stroke-linejoin="round"/><path d="M1709.29 577.428L1719.81 599.768" stroke="#003B2F" stroke-width="3" stroke-linecap="round" stroke-linejoin="round"/><path d="M1727.47 616.194L1737.99 638.534" stroke="#003B2F" stroke-width="3" stroke-linecap="round" stroke-linejoin="round"/><path d="M1693.09 622.327L1715.43 611.814" stroke="#003B2F" stroke-width="3" stroke-linecap="round" stroke-linejoin="round"/><path d="M1731.85 604.148L1754.19 593.635" stroke="#003B2F" stroke-width="3" stroke-linecap="round" stroke-linejoin="round"/><path d="M1268.7 919.004C1278.17 919.004 1285.85 911.327 1285.85 901.857C1285.85 892.387 1278.17 884.71 1268.7 884.71C1259.23 884.71 1251.56 892.387 1251.56 901.857C1251.56 911.327 1259.23 919.004 1268.7 919.004Z" stroke="#003B2F" stroke-width="3" stroke-linecap="round" stroke-linejoin="round"/><path d="M517.776 148.545L537.847 171.659" stroke="#003B2F" stroke-width="3" stroke-linecap="round" stroke-linejoin="round"/><path d="M567.91 165.882L550.208 169.274" stroke="#003B2F" stroke-width="3" stroke-linecap="round" stroke-linejoin="round"/><path d="M537.848 171.659L527.71 200.974" stroke="#003B2F" stroke-width="3" stroke-linecap="round" stroke-linejoin="round"/><path d="M173.732 386.324L180.566 400.847" stroke="#003B2F" stroke-width="3" stroke-linecap="round" stroke-linejoin="round"/><path d="M185.549 411.525L192.384 426.048" stroke="#003B2F" stroke-width="3" stroke-linecap="round" stroke-linejoin="round"/><path d="M163.196 415.512L177.719 408.678" stroke="#003B2F" stroke-width="3" stroke-linecap="round" stroke-linejoin="round"/><path d="M188.397 403.695L202.92 396.86" stroke="#003B2F" stroke-width="3" stroke-linecap="round" stroke-linejoin="round"/></g><defs><clipPath id="clip0_1112_2"><rect width="1920" height="1080" fill="white"/></clipPath></defs></svg>