<svg width="1920" height="1080" viewBox="0 0 1920 1080" fill="none" xmlns="http://www.w3.org/2000/svg"><path d="M1381.68 745.854L951 550.5" stroke="#003B2F" stroke-width="2.17029" stroke-miterlimit="10" stroke-linecap="round" stroke-linejoin="round"/><path d="M1526.6 308.122L1659.96 464.297" stroke="#003B2F" stroke-width="2.17029" stroke-miterlimit="10" stroke-linecap="round" stroke-linejoin="round"/><path d="M1525.91 308.224L1497.34 121.874" stroke="#003B2F" stroke-width="2.17029" stroke-miterlimit="10" stroke-linecap="round" stroke-linejoin="round"/><path d="M978 516L1468.52 311.324" stroke="#003B2F" stroke-width="2.17029" stroke-miterlimit="10" stroke-linecap="round" stroke-linejoin="round"/><path d="M1497.49 155.672C1515.63 155.672 1530.33 140.971 1530.33 122.836C1530.33 104.701 1515.63 90 1497.49 90C1479.36 90 1464.66 104.701 1464.66 122.836C1464.66 140.971 1479.36 155.672 1497.49 155.672Z" fill="#E6E8EA" stroke="#003B2F" stroke-width="2.17029" stroke-miterlimit="10" stroke-linecap="round" stroke-linejoin="round"/><path d="M1652.47 495.249C1670.6 495.249 1685.3 480.548 1685.3 462.413C1685.3 444.279 1670.6 429.577 1652.47 429.577C1634.33 429.577 1619.63 444.279 1619.63 462.413C1619.63 480.548 1634.33 495.249 1652.47 495.249Z" fill="#E6E8EA" stroke="#003B2F" stroke-width="2.17029" stroke-miterlimit="10" stroke-linecap="round" stroke-linejoin="round"/><path d="M1526.6 365.514C1558.3 365.514 1583.99 339.819 1583.99 308.123C1583.99 276.426 1558.3 250.731 1526.6 250.731C1494.9 250.731 1469.21 276.426 1469.21 308.123C1469.21 339.819 1494.9 365.514 1526.6 365.514Z" fill="#03FC9D" stroke="#003B2F" stroke-width="2.17029" stroke-miterlimit="10" stroke-linecap="round" stroke-linejoin="round"/><path d="M1442.91 315.921C1439.55 302.84 1443.78 280.721 1448.82 269.851C1447.54 272.921 1446.6 276.146 1445.94 279.452C1444.49 286.801 1444.67 294.723 1446.68 302.953C1446.73 303.25 1446.8 303.536 1446.88 303.833C1456.71 342.145 1502.23 372.514 1548.54 371.664C1549.21 371.644 1549.89 371.613 1550.57 371.583C1551.01 371.562 1551.46 371.531 1551.9 371.511C1551.97 371.521 1552.03 371.501 1552.1 371.491C1580.59 369.986 1602.31 356.608 1611.56 337.232C1612.64 334.98 1613.54 332.636 1614.27 330.22C1609.12 356.741 1580.53 383.087 1544.55 383.753C1498.26 384.602 1452.74 354.233 1442.91 315.921Z" fill="#03FC9D"/><path d="M1446.89 303.843C1446.82 303.546 1446.74 303.26 1446.69 302.963C1444.68 294.734 1444.5 286.801 1445.95 279.462C1446.6 276.156 1447.55 272.932 1448.83 269.861C1448.89 269.707 1448.97 269.544 1449.05 269.37C1458.09 248.161 1481.69 233.514 1512.93 232.941C1559.24 232.102 1604.76 262.461 1614.62 300.773C1617.32 311.264 1617.05 321.244 1614.3 330.231C1613.57 332.646 1612.66 334.99 1611.59 337.242C1602.33 356.608 1580.62 369.986 1552.13 371.501C1552.06 371.511 1552 371.531 1551.93 371.521C1551.49 371.542 1551.04 371.572 1550.6 371.593C1549.93 371.624 1549.25 371.665 1548.57 371.675C1502.24 372.524 1456.72 342.145 1446.89 303.843Z" fill="#E6E8EA"/><path d="M1442.4 315.491C1439.03 302.41 1443.27 280.291 1448.31 269.421C1447.03 272.492 1446.09 275.716 1445.43 279.022C1443.98 286.371 1444.16 294.293 1446.17 302.523C1446.22 302.82 1446.29 303.106 1446.37 303.403C1456.2 341.715 1501.72 372.084 1548.02 371.235C1548.7 371.214 1549.37 371.184 1550.06 371.153C1550.5 371.132 1550.95 371.102 1551.39 371.081C1551.46 371.091 1551.51 371.071 1551.59 371.061C1580.08 369.556 1601.8 356.178 1611.04 336.802C1612.13 334.55 1613.03 332.206 1613.76 329.791C1608.61 356.311 1580.02 382.658 1544.04 383.323C1497.75 384.173 1452.23 353.793 1442.4 315.491Z" stroke="#003B2F" stroke-width="2.17029" stroke-miterlimit="10" stroke-linecap="round" stroke-linejoin="round"/><path d="M1446.38 303.403C1446.31 303.107 1446.23 302.82 1446.18 302.523C1444.17 294.294 1443.99 286.361 1445.44 279.022C1446.09 275.716 1447.04 272.492 1448.32 269.421C1448.38 269.268 1448.46 269.104 1448.54 268.93C1457.58 247.722 1481.17 233.074 1512.42 232.501C1558.73 231.662 1604.25 262.021 1614.1 300.333C1616.81 310.824 1616.54 320.804 1613.79 329.791C1613.06 332.206 1612.15 334.55 1611.07 336.802C1601.82 356.168 1580.11 369.546 1551.62 371.061C1551.54 371.071 1551.49 371.092 1551.42 371.081C1550.98 371.102 1550.53 371.133 1550.09 371.153C1549.42 371.184 1548.74 371.225 1548.05 371.235C1501.73 372.095 1456.22 341.715 1446.38 303.403Z" stroke="#003B2F" stroke-width="2.17029" stroke-miterlimit="10" stroke-linecap="round" stroke-linejoin="round"/><path d="M475.185 303.345L390.922 116.067" stroke="#003B2F" stroke-width="2.17029" stroke-miterlimit="10" stroke-linecap="round" stroke-linejoin="round"/><path d="M475.886 303.45L451.098 490.332" stroke="#003B2F" stroke-width="2.17029" stroke-miterlimit="10" stroke-linecap="round" stroke-linejoin="round"/><path d="M933.704 561.915L531.831 316.541" stroke="#003B2F" stroke-width="2.17029" stroke-miterlimit="10" stroke-linecap="round" stroke-linejoin="round"/><path d="M424.954 469.678C414.079 484.19 417.027 504.77 431.54 515.645C446.052 526.52 466.632 523.572 477.507 509.06C488.382 494.548 485.434 473.967 470.922 463.092C456.41 452.217 435.829 455.166 424.954 469.678Z" fill="#E6E8EA" stroke="#003B2F" stroke-width="2.17029" stroke-miterlimit="10" stroke-linecap="round" stroke-linejoin="round"/><path d="M475.884 303.448L193.966 250.893" stroke="#003B2F" stroke-width="2.17029" stroke-miterlimit="10" stroke-linecap="round" stroke-linejoin="round"/><path d="M167.691 231.202C156.816 245.714 159.764 266.294 174.276 277.169C188.789 288.045 209.369 285.096 220.244 270.584C231.119 256.072 228.171 235.491 213.658 224.616C199.146 213.741 178.566 216.69 167.691 231.202Z" fill="#E6E8EA" stroke="#003B2F" stroke-width="2.17029" stroke-miterlimit="10" stroke-linecap="round" stroke-linejoin="round"/><path d="M371.302 100.277C360.427 114.789 363.376 135.369 377.888 146.244C392.4 157.119 412.98 154.171 423.855 139.659C434.73 125.147 431.782 104.566 417.27 93.691C402.758 82.816 382.177 85.7644 371.302 100.277Z" fill="#E6E8EA" stroke="#003B2F" stroke-width="2.17029" stroke-miterlimit="10" stroke-linecap="round" stroke-linejoin="round"/><path d="M429.258 268.928C410.25 294.293 415.403 330.263 440.768 349.271C466.133 368.279 502.103 363.125 521.111 337.761C540.119 312.396 534.965 276.425 509.601 257.418C484.236 238.41 448.265 243.563 429.258 268.928Z" fill="#03FC9D" stroke="#003B2F" stroke-width="2.17029" stroke-miterlimit="10" stroke-linecap="round" stroke-linejoin="round"/><path d="M527.44 213.281C542.657 219.772 560.966 240.4 567.752 253.415C565.717 249.882 563.296 246.559 560.57 243.454C554.516 236.564 546.69 230.827 537.198 226.63C536.866 226.458 536.539 226.315 536.188 226.168C491.658 207.11 428.183 228.626 394.45 274.221C393.961 274.891 393.489 275.573 393.016 276.255C392.713 276.693 392.4 277.162 392.097 277.6C392.034 277.668 392.02 277.721 391.973 277.801C372.16 306.595 368.942 337.67 380.839 361.103C382.209 363.831 383.815 366.467 385.622 368.972C363.716 344.165 359.474 296.743 385.694 261.328C419.441 215.731 482.909 194.223 527.44 213.281Z" fill="#03FC9D"/><path d="M536.203 226.166C536.554 226.313 536.881 226.456 537.213 226.628C546.705 230.825 554.54 236.568 560.585 243.452C563.318 246.548 565.732 249.88 567.767 253.413C567.871 253.58 567.974 253.785 568.076 253.99C581.924 278.591 578.534 312.439 555.757 343.208C521.994 388.793 458.55 410.319 414.001 391.287C401.804 386.073 392.306 378.368 385.639 368.984C383.839 366.471 382.235 363.849 380.856 361.115C368.951 337.676 372.177 306.608 391.99 277.813C392.037 277.733 392.051 277.68 392.114 277.612C392.417 277.174 392.73 276.705 393.033 276.267C393.506 275.585 393.978 274.903 394.467 274.234C428.198 228.625 491.673 207.108 536.203 226.166Z" fill="#E6E8EA"/><path d="M528.243 213.114C543.46 219.605 561.769 240.233 568.554 253.248C566.52 249.715 564.099 246.392 561.373 243.287C555.319 236.397 547.493 230.66 538.001 226.463C537.669 226.291 537.341 226.148 536.991 226.001C492.461 206.944 428.986 228.46 395.253 274.055C394.764 274.724 394.291 275.406 393.819 276.088C393.516 276.526 393.203 276.995 392.9 277.433C392.837 277.501 392.822 277.554 392.775 277.634C372.962 306.428 369.745 337.503 381.642 360.936C383.012 363.664 384.618 366.3 386.425 368.805C364.519 343.999 360.277 296.577 386.496 261.161C420.243 215.564 483.712 194.056 528.243 213.114Z" stroke="#003B2F" stroke-width="2.17029" stroke-miterlimit="10" stroke-linecap="round" stroke-linejoin="round"/><path d="M537.007 225.999C537.357 226.146 537.684 226.289 538.016 226.461C547.508 230.658 555.343 236.401 561.389 243.285C564.121 246.382 566.536 249.713 568.57 253.246C568.674 253.414 568.777 253.618 568.879 253.823C582.728 278.424 579.337 312.272 556.56 343.042C522.797 388.626 459.353 410.152 414.804 391.12C402.607 385.906 393.109 378.201 386.442 368.817C384.642 366.304 383.038 363.682 381.659 360.948C369.754 337.509 372.98 306.441 392.793 277.646C392.84 277.566 392.854 277.513 392.918 277.445C393.22 277.007 393.533 276.538 393.836 276.1C394.309 275.418 394.782 274.736 395.27 274.067C429.001 228.458 492.476 206.942 537.007 225.999Z" stroke="#003B2F" stroke-width="2.17029" stroke-miterlimit="10" stroke-linecap="round" stroke-linejoin="round"/><path d="M416.81 752.463L310.802 612.876" stroke="#003B2F" stroke-width="2.17029" stroke-miterlimit="10" stroke-linecap="round" stroke-linejoin="round"/><path d="M416.809 752.462L221.556 917.381" stroke="#003B2F" stroke-width="2.17029" stroke-miterlimit="10" stroke-linecap="round" stroke-linejoin="round"/><path d="M372.069 744L657.652 859.628" stroke="#003B2F" stroke-width="2.17029" stroke-miterlimit="10" stroke-linecap="round" stroke-linejoin="round"/><path d="M935 567L462.461 717.669" stroke="#003B2F" stroke-width="2.17029" stroke-miterlimit="10" stroke-linecap="round" stroke-linejoin="round"/><path d="M235.277 955.021C256.126 947.512 266.94 924.523 259.431 903.674C251.922 882.826 228.934 872.012 208.085 879.521C187.236 887.03 176.422 910.018 183.931 930.867C191.44 951.716 214.429 962.529 235.277 955.021Z" fill="#E6E8EA" stroke="#003B2F" stroke-width="2.17029" stroke-miterlimit="10" stroke-linecap="round" stroke-linejoin="round"/><path d="M333.816 663.031C354.665 655.522 365.479 632.533 357.97 611.685C350.461 590.836 327.473 580.022 306.624 587.531C285.775 595.04 274.961 618.028 282.47 638.877C289.979 659.726 312.968 670.54 333.816 663.031Z" fill="#E6E8EA" stroke="#003B2F" stroke-width="2.17029" stroke-miterlimit="10" stroke-linecap="round" stroke-linejoin="round"/><path d="M684.643 870.538C692.947 849.993 683.024 826.606 662.479 818.302C641.934 809.998 618.547 819.921 610.243 840.466C601.939 861.011 611.862 884.398 632.407 892.702C652.952 901.006 676.339 891.083 684.643 870.538Z" fill="#E6E8EA" stroke="#003B2F" stroke-width="2.17029" stroke-miterlimit="10" stroke-linecap="round" stroke-linejoin="round"/><path d="M436.258 806.458C466.079 795.718 481.547 762.836 470.806 733.015C460.066 703.194 427.184 687.726 397.363 698.466C367.542 709.207 352.074 742.089 362.815 771.91C373.555 801.731 406.437 817.199 436.258 806.458Z" fill="#03FC9D" stroke="#003B2F" stroke-width="2.17029" stroke-miterlimit="10" stroke-linecap="round" stroke-linejoin="round"/><path d="M438.764 838.063C426.369 843.43 403.856 842.694 392.338 839.411C395.569 840.195 398.901 840.627 402.275 840.75C409.754 841.037 417.555 839.62 425.374 836.347C425.666 836.253 425.929 836.136 426.211 836.013C462.512 820.327 485.42 770.627 477.34 725.026C477.221 724.362 477.079 723.695 476.936 723.028C476.848 722.603 476.74 722.152 476.653 721.727C476.648 721.653 476.621 721.608 476.596 721.541C470.657 693.631 454.053 674.263 433.476 668.151C431.086 667.434 428.632 666.904 426.128 666.566C453.124 667.515 483.615 691.641 489.88 727.07C497.976 772.686 475.078 822.383 438.764 838.063Z" fill="#03FC9D"/><path d="M426.214 836.023C425.932 836.146 425.66 836.266 425.377 836.357C417.558 839.63 409.757 841.047 402.278 840.76C398.904 840.637 395.582 840.201 392.341 839.421C392.188 839.389 392.006 839.335 391.823 839.281C369.468 833.668 351.313 812.65 345.874 781.873C337.824 736.262 360.703 686.572 397.003 670.854C406.943 666.556 416.842 665.254 426.153 666.578C428.658 666.916 431.112 667.447 433.502 668.163C454.078 674.275 470.679 693.634 476.622 721.553C476.646 721.621 476.673 721.665 476.678 721.74C476.766 722.165 476.874 722.616 476.962 723.041C477.104 723.708 477.243 724.365 477.366 725.039C485.423 770.637 462.515 820.337 426.214 836.023Z" fill="#E6E8EA"/><path d="M438.415 838.635C426.02 844.002 403.507 843.266 391.989 839.983C395.22 840.767 398.552 841.199 401.925 841.322C409.405 841.609 417.206 840.192 425.025 836.919C425.317 836.825 425.58 836.708 425.862 836.585C462.163 820.899 485.071 771.199 476.991 725.598C476.872 724.934 476.729 724.267 476.587 723.6C476.499 723.175 476.391 722.724 476.303 722.299C476.298 722.225 476.271 722.18 476.247 722.113C470.308 694.203 453.704 674.835 433.127 668.723C430.737 668.006 428.283 667.476 425.778 667.138C452.775 668.087 483.266 692.213 489.531 727.642C497.624 773.249 474.726 822.946 438.415 838.635Z" stroke="#003B2F" stroke-width="2.17029" stroke-miterlimit="10" stroke-linecap="round" stroke-linejoin="round"/><path d="M425.861 836.585C425.579 836.708 425.307 836.828 425.024 836.919C417.206 840.192 409.405 841.609 401.925 841.322C398.552 841.199 395.229 840.764 391.989 839.984C391.836 839.952 391.653 839.898 391.471 839.844C369.116 834.231 350.96 813.213 345.522 782.436C337.471 736.825 360.35 687.134 396.65 671.417C406.591 667.118 416.49 665.816 425.801 667.141C428.305 667.479 430.759 668.009 433.15 668.726C453.726 674.838 470.326 694.197 476.27 722.116C476.294 722.183 476.321 722.228 476.326 722.302C476.414 722.727 476.522 723.178 476.61 723.603C476.752 724.27 476.891 724.927 477.014 725.601C485.07 771.199 462.162 820.9 425.861 836.585Z" stroke="#003B2F" stroke-width="2.17029" stroke-miterlimit="10" stroke-linecap="round" stroke-linejoin="round"/><path d="M1363.7 755.991L1325.15 954.94" stroke="#003B2F" stroke-width="2.17029" stroke-miterlimit="10" stroke-linecap="round" stroke-linejoin="round"/><path d="M1363.7 755.991L1608.72 915.951" stroke="#003B2F" stroke-width="2.17029" stroke-miterlimit="10" stroke-linecap="round" stroke-linejoin="round"/><path d="M1641.44 939.971C1654.57 922.119 1650.74 897.005 1632.88 883.876C1615.03 870.748 1589.92 874.577 1576.79 892.429C1563.66 910.281 1567.49 935.396 1585.34 948.524C1603.19 961.652 1628.31 957.823 1641.44 939.971Z" fill="#E6E8EA" stroke="#003B2F" stroke-width="2.17029" stroke-miterlimit="10" stroke-linecap="round" stroke-linejoin="round"/><path d="M1358.54 973.264C1371.66 955.412 1367.84 930.297 1349.98 917.169C1332.13 904.04 1307.02 907.869 1293.89 925.722C1280.76 943.574 1284.59 968.688 1302.44 981.817C1320.29 994.945 1345.41 991.116 1358.54 973.264Z" fill="#E6E8EA" stroke="#003B2F" stroke-width="2.17029" stroke-miterlimit="10" stroke-linecap="round" stroke-linejoin="round"/><path d="M1409.94 789.993C1428.72 764.458 1423.24 728.535 1397.71 709.756C1372.17 690.978 1336.25 696.455 1317.47 721.99C1298.69 747.525 1304.17 783.448 1329.7 802.226C1355.24 821.005 1391.16 815.527 1409.94 789.993Z" fill="#03FC9D" stroke="#003B2F" stroke-width="2.17029" stroke-miterlimit="10" stroke-linecap="round" stroke-linejoin="round"/><path d="M1318.93 829.942C1303.2 824.806 1283.15 805.855 1275.26 793.493C1277.59 796.834 1280.29 799.937 1283.28 802.783C1289.9 809.117 1298.21 814.146 1308.03 817.495C1308.37 817.641 1308.72 817.743 1309.07 817.864C1355.1 832.949 1416.45 805.959 1446.06 757.581C1446.5 756.87 1446.9 756.15 1447.32 755.428C1447.58 754.962 1447.85 754.469 1448.12 754.009C1448.17 753.935 1448.19 753.882 1448.23 753.796C1465.44 723.38 1465.93 692.145 1452.02 669.834C1450.42 667.231 1448.59 664.757 1446.57 662.407C1470.56 685.194 1478.93 732.062 1455.92 769.644C1426.3 818.045 1364.95 845.035 1318.93 829.942Z" fill="#03FC9D"/><path d="M1309.07 817.879C1308.72 817.757 1308.38 817.648 1308.04 817.51C1298.21 814.161 1289.91 809.131 1283.28 802.798C1280.29 799.952 1277.59 796.849 1275.26 793.507C1275.14 793.342 1275.02 793.155 1274.9 792.954C1258.96 769.651 1259.37 735.647 1279.37 703.004C1309 654.638 1370.33 627.636 1416.37 642.704C1428.98 646.83 1439.12 653.674 1446.57 662.436C1448.59 664.785 1450.42 667.26 1452.03 669.863C1465.93 692.174 1465.44 723.409 1448.23 753.824C1448.2 753.902 1448.18 753.964 1448.12 754.038C1447.86 754.503 1447.6 754.997 1447.32 755.456C1446.91 756.185 1446.5 756.899 1446.07 757.609C1416.45 805.973 1355.1 832.963 1309.07 817.879Z" fill="#E6E8EA"/><path d="M1318.15 830.184C1302.43 825.048 1282.38 806.097 1274.48 793.734C1276.81 797.076 1279.51 800.179 1282.5 803.025C1289.13 809.358 1297.43 814.388 1307.26 817.737C1307.59 817.883 1307.94 817.984 1308.29 818.106C1354.33 833.191 1415.67 806.2 1445.29 757.822C1445.72 757.112 1446.12 756.392 1446.54 755.669C1446.81 755.204 1447.07 754.71 1447.34 754.251C1447.4 754.177 1447.41 754.124 1447.45 754.037C1464.66 723.622 1465.15 692.387 1451.25 670.076C1449.64 667.473 1447.81 664.998 1445.79 662.649C1469.78 685.436 1478.16 732.304 1455.14 769.886C1425.52 818.287 1364.17 845.271 1318.15 830.184Z" stroke="#003B2F" stroke-width="2.17029" stroke-miterlimit="10" stroke-linecap="round" stroke-linejoin="round"/><path d="M1308.3 818.12C1307.94 817.999 1307.6 817.889 1307.26 817.751C1297.44 814.402 1289.13 809.373 1282.5 803.039C1279.51 800.193 1276.82 797.091 1274.48 793.749C1274.36 793.584 1274.25 793.397 1274.13 793.195C1258.18 769.892 1258.59 735.888 1278.59 703.246C1308.23 654.88 1369.56 627.878 1415.6 642.946C1428.2 647.071 1438.34 653.916 1445.8 662.677C1447.82 665.027 1449.64 667.501 1451.25 670.105C1465.16 692.415 1464.66 723.65 1447.45 754.066C1447.42 754.144 1447.4 754.206 1447.35 754.28C1447.08 754.745 1446.82 755.239 1446.55 755.698C1446.14 756.427 1445.73 757.141 1445.29 757.851C1415.66 806.209 1354.32 833.199 1308.3 818.12Z" stroke="#003B2F" stroke-width="2.17029" stroke-miterlimit="10" stroke-linecap="round" stroke-linejoin="round"/><path d="M960.305 675.61C1035.03 675.61 1095.61 615.032 1095.61 540.305C1095.61 465.578 1035.03 405 960.305 405C885.578 405 825 465.578 825 540.305C825 615.032 885.578 675.61 960.305 675.61Z" fill="#03FC9D" stroke="#003B2F" stroke-width="2.17029" stroke-miterlimit="10" stroke-linecap="round" stroke-linejoin="round"/><path opacity="0.6" fill-rule="evenodd" clip-rule="evenodd" d="M1401.69 674.67L1373.67 713.531L1395.95 751.982L1401.69 674.67Z" fill="#003B2F"/><path fill-rule="evenodd" clip-rule="evenodd" d="M1401.69 674.67L1330.23 704.591L1373.67 713.531L1401.69 674.67Z" fill="#003B2F"/><path opacity="0.6" fill-rule="evenodd" clip-rule="evenodd" d="M1344.9 753.444L1325.83 779.888L1391.55 758.085L1344.9 753.444Z" fill="#003B2F"/><path fill-rule="evenodd" clip-rule="evenodd" d="M1325.83 779.888L1344.9 753.444L1325.82 710.694L1325.83 779.888Z" fill="#003B2F"/><path opacity="0.2" fill-rule="evenodd" clip-rule="evenodd" d="M1349.3 747.341L1395.95 751.982L1373.67 713.531L1349.3 747.341Z" fill="#003B2F"/><path opacity="0.6" fill-rule="evenodd" clip-rule="evenodd" d="M1330.22 704.591L1349.3 747.341L1373.67 713.531L1330.22 704.591Z" fill="#003B2F"/><path opacity="0.6" fill-rule="evenodd" clip-rule="evenodd" d="M516.694 258.67L488.675 297.531L510.951 335.982L516.694 258.67Z" fill="#003B2F"/><path fill-rule="evenodd" clip-rule="evenodd" d="M516.694 258.67L445.225 288.591L488.674 297.531L516.694 258.67Z" fill="#003B2F"/><path opacity="0.6" fill-rule="evenodd" clip-rule="evenodd" d="M459.896 337.444L440.828 363.888L506.551 342.085L459.896 337.444Z" fill="#003B2F"/><path fill-rule="evenodd" clip-rule="evenodd" d="M440.828 363.888L459.896 337.444L440.825 294.694L440.828 363.888Z" fill="#003B2F"/><path opacity="0.2" fill-rule="evenodd" clip-rule="evenodd" d="M464.296 331.341L510.951 335.982L488.674 297.531L464.296 331.341Z" fill="#003B2F"/><path opacity="0.6" fill-rule="evenodd" clip-rule="evenodd" d="M445.225 288.591L464.296 331.341L488.674 297.531L445.225 288.591Z" fill="#003B2F"/><path opacity="0.6" fill-rule="evenodd" clip-rule="evenodd" d="M440.964 709.809L417.515 742.331L436.158 774.51L440.964 709.809Z" fill="#003B2F"/><path fill-rule="evenodd" clip-rule="evenodd" d="M440.964 709.809L381.153 734.85L417.515 742.331L440.964 709.809Z" fill="#003B2F"/><path opacity="0.6" fill-rule="evenodd" clip-rule="evenodd" d="M393.431 775.733L377.473 797.865L432.476 779.618L393.431 775.733Z" fill="#003B2F"/><path fill-rule="evenodd" clip-rule="evenodd" d="M377.474 797.865L393.431 775.733L377.471 739.957L377.474 797.865Z" fill="#003B2F"/><path opacity="0.2" fill-rule="evenodd" clip-rule="evenodd" d="M397.113 770.626L436.158 774.51L417.515 742.331L397.113 770.626Z" fill="#003B2F"/><path opacity="0.6" fill-rule="evenodd" clip-rule="evenodd" d="M381.153 734.85L397.113 770.626L417.515 742.331L381.153 734.85Z" fill="#003B2F"/><path opacity="0.6" fill-rule="evenodd" clip-rule="evenodd" d="M1490.46 265.264L1521.48 290.662L1554.74 274.026L1490.46 265.264Z" fill="#003B2F"/><path fill-rule="evenodd" clip-rule="evenodd" d="M1490.46 265.264L1511.78 326.497L1521.48 290.662L1490.46 265.264Z" fill="#003B2F"/><path opacity="0.6" fill-rule="evenodd" clip-rule="evenodd" d="M1553.34 316.748L1574.46 334.031L1559.61 278.014L1553.34 316.748Z" fill="#003B2F"/><path fill-rule="evenodd" clip-rule="evenodd" d="M1574.45 334.031L1553.34 316.748L1516.66 330.486L1574.45 334.031Z" fill="#003B2F"/><path opacity="0.2" fill-rule="evenodd" clip-rule="evenodd" d="M1548.47 312.759L1554.74 274.026L1521.48 290.662L1548.47 312.759Z" fill="#003B2F"/><path opacity="0.6" fill-rule="evenodd" clip-rule="evenodd" d="M1511.78 326.497L1548.47 312.759L1521.48 290.662L1511.78 326.497Z" fill="#003B2F"/><path d="M951 783C802.521 744.761 755 621.322 755 538.719V376.669C755 376.669 790.502 374.627 848.377 354.951C883.325 343.071 917.717 328.964 951 313C984.468 328.964 1018.68 342.886 1053.62 354.951C1111.31 374.627 1147 376.669 1147 376.669V538.719C1147 621.136 1099.66 744.576 951 783Z" fill="white" stroke="#003B2F" stroke-width="3" stroke-linecap="round" stroke-linejoin="round"/><path d="M1020.05 675.486H876.023C856.502 675.486 840.673 661.295 840.673 643.807V514.86C840.673 497.373 856.502 483.182 876.023 483.182H1020.05C1039.57 483.182 1055.4 500.166 1055.4 517.654V643.752C1055.4 661.239 1039.57 675.43 1020.05 675.43V675.486Z" fill="#03FC9D"/><path d="M1008.51 487.939V452.88C1008.51 422.757 983.972 398.243 953.813 398.243C923.654 398.243 899.112 422.757 899.112 452.88V487.939" stroke="#003B2F" stroke-width="3" stroke-linecap="round" stroke-linejoin="round"/><path d="M876.009 488.116V453.074C876.009 442.534 878.08 432.329 882.11 422.742C886.028 413.435 891.626 405.137 898.79 397.96C905.955 390.784 914.24 385.177 923.531 381.252C933.159 377.16 943.346 375.141 953.814 375.141C964.281 375.141 974.524 377.216 984.096 381.252C993.388 385.177 1001.67 390.784 1008.84 397.96C1016 405.137 1021.6 413.435 1025.52 422.742C1029.6 432.385 1031.62 442.59 1031.62 453.074V488.621" stroke="#003B2F" stroke-width="3" stroke-linecap="round" stroke-linejoin="round"/><path d="M1026.05 680.924H881.571C861.988 680.924 846.109 666.683 846.109 649.134V519.731C846.109 502.182 861.988 487.941 881.571 487.941H1026.05C1045.64 487.941 1061.52 504.985 1061.52 522.534V649.078C1061.52 666.627 1045.64 680.868 1026.05 680.868V680.924Z" stroke="#003B2F" stroke-width="3" stroke-linecap="round" stroke-linejoin="round"/><path d="M975.218 568.566C975.218 556.717 965.717 547.114 953.925 547.058C942.189 547.001 932.465 556.605 932.409 568.398C932.409 576.148 936.377 582.887 942.413 586.762V610.404C942.413 616.694 947.498 621.804 953.758 621.804C960.017 621.804 965.103 616.694 965.103 610.404V586.762C971.139 582.943 975.107 576.204 975.107 568.566H975.218Z" fill="white" stroke="#003B2F" stroke-width="3" stroke-linecap="round" stroke-linejoin="round"/><path d="M699.681 232L808.319 232C820.293 232 830 222.374 830 210.5C830 198.626 820.293 189 808.319 189H699.681C687.707 189 678 198.626 678 210.5C678 222.374 687.707 232 699.681 232Z" fill="#03FC9D"/><path d="M758.549 199L936.451 199C956.084 199 972 183.106 972 163.5C972 143.894 956.084 128 936.451 128L758.549 128C738.916 128 723 143.894 723 163.5C723 183.106 738.916 199 758.549 199Z" fill="#03FC9D"/><path d="M1191 235L1206.17 250.166" stroke="#003B2F" stroke-width="3" stroke-linecap="round" stroke-linejoin="round"/><path d="M1217.25 261.249L1232.42 276.318" stroke="#003B2F" stroke-width="3" stroke-linecap="round" stroke-linejoin="round"/><path d="M1191 276.318L1206.17 261.249" stroke="#003B2F" stroke-width="3" stroke-linecap="round" stroke-linejoin="round"/><path d="M1217.25 250.166L1232.42 235" stroke="#003B2F" stroke-width="3" stroke-linecap="round" stroke-linejoin="round"/><path d="M1420 587.929H1455.68" stroke="#003B2F" stroke-width="3" stroke-linecap="round" stroke-linejoin="round"/><path d="M1514 552H1772.41" stroke="#03FC9D" stroke-width="3" stroke-linecap="round" stroke-linejoin="round"/><path d="M1501.76 587.735H1646.23" stroke="#003B2F" stroke-width="3" stroke-linecap="round" stroke-linejoin="round"/><path d="M881.32 897H1112.7" stroke="#03FC9D" stroke-width="3" stroke-linecap="round" stroke-linejoin="round"/><path d="M854 928.013H983.399" stroke="#003B2F" stroke-width="3" stroke-linecap="round" stroke-linejoin="round"/><path d="M501 581L516.166 596.166" stroke="#003B2F" stroke-width="3" stroke-linecap="round" stroke-linejoin="round"/><path d="M527.25 607.249L542.416 622.318" stroke="#003B2F" stroke-width="3" stroke-linecap="round" stroke-linejoin="round"/><path d="M501 622.318L516.166 607.249" stroke="#003B2F" stroke-width="3" stroke-linecap="round" stroke-linejoin="round"/><path d="M527.25 596.166L542.416 581" stroke="#003B2F" stroke-width="3" stroke-linecap="round" stroke-linejoin="round"/><path d="M215.338 165.675C222.152 165.675 227.675 160.152 227.675 153.338C227.675 146.524 222.152 141 215.338 141C208.524 141 203 146.524 203 153.338C203 160.152 208.524 165.675 215.338 165.675Z" stroke="#003B2F" stroke-width="3" stroke-linecap="round" stroke-linejoin="round"/><path d="M275.762 463.5H237.009C249.301 463.5 259.247 453.548 259.247 441.25C259.247 428.951 249.301 419 237.009 419H125.631C113.339 419 103.393 428.951 103.393 441.25H69.2381C56.9462 441.25 47 451.201 47 463.5C47 475.799 56.9462 485.75 69.2381 485.75H142.145C142.145 498.049 152.092 508 164.384 508H275.762C288.054 508 298 498.049 298 485.75C298 473.452 288.054 463.5 275.762 463.5Z" fill="#E6E8EA"/><path d="M1260 525L1282.94 538.222" stroke="#003B2F" stroke-width="3" stroke-linecap="round" stroke-linejoin="round"/><path d="M1305.89 525L1292.47 532.778" stroke="#003B2F" stroke-width="3" stroke-linecap="round" stroke-linejoin="round"/><path d="M1282.94 538.222V565.054" stroke="#003B2F" stroke-width="3" stroke-linecap="round" stroke-linejoin="round"/></svg>