<svg width="1676" height="858" viewBox="0 0 1676 858" fill="none" xmlns="http://www.w3.org/2000/svg"><path d="M867.239 368.709C849.473 375.284 817.869 372.551 801.981 367.087C806.423 368.453 811.121 369.307 815.819 369.734C826.325 370.673 837.344 369.307 848.533 365.294C848.96 365.209 849.302 365.038 849.729 364.867C901.833 345.656 937.793 277.693 929.935 213.06C929.85 212.12 929.679 211.181 929.508 210.242C929.423 209.644 929.337 208.961 929.252 208.364C929.252 208.278 929.252 208.193 929.252 208.108C923.016 168.491 901.235 140.059 872.791 129.899C869.46 128.703 866.044 127.764 862.627 127.081C900.466 130.496 941.381 166.612 947.445 216.816C955.304 281.364 919.343 349.328 867.239 368.624V368.709Z" fill="#03FC9D"/><path d="M849.815 364.867C849.815 364.867 849.046 365.124 848.619 365.294C837.429 369.307 826.325 370.673 815.904 369.734C811.206 369.307 806.508 368.453 802.067 367.087C801.811 367.087 801.64 366.917 801.383 366.831C770.463 357.269 746.546 326.361 741.25 282.816C733.392 218.183 769.352 150.305 821.456 131.009C835.721 125.715 849.729 124.691 862.712 127.252C866.214 127.935 869.631 128.874 872.877 130.07C901.321 140.23 923.102 168.662 929.337 208.279C929.337 208.364 929.337 208.449 929.337 208.535C929.423 209.132 929.508 209.815 929.593 210.413C929.764 211.352 929.85 212.292 930.021 213.231C937.879 277.779 901.919 345.742 849.815 365.038V364.867Z" fill="#E6E8EA"/><path d="M866.727 369.477C848.96 376.052 817.356 373.319 801.469 367.855C805.91 369.221 810.608 370.075 815.306 370.502C825.813 371.441 836.831 370.075 848.021 366.062C848.448 365.977 848.79 365.806 849.217 365.635C901.321 346.424 937.281 278.461 929.423 213.828C929.337 212.889 929.166 211.949 928.996 211.01C928.91 210.412 928.825 209.729 928.739 209.132C928.739 209.046 928.739 208.961 928.739 208.876C922.504 169.259 900.723 140.827 872.279 130.667C868.948 129.471 865.531 128.532 862.114 127.849C899.954 131.264 940.868 167.38 946.933 217.584C954.791 282.133 918.831 350.096 866.727 369.392V369.477Z" stroke="#003B2F" stroke-width="3" stroke-linecap="round" stroke-linejoin="round"/><path d="M849.302 365.636C849.302 365.636 848.533 365.892 848.106 366.062C836.917 370.075 825.812 371.441 815.392 370.502C810.694 370.075 805.996 369.221 801.554 367.855C801.298 367.855 801.127 367.685 800.871 367.599C769.95 358.037 746.034 327.129 740.738 283.584C732.879 218.951 768.84 151.073 820.944 131.777C835.208 126.483 849.217 125.459 862.2 128.02C865.702 128.703 869.119 129.642 872.364 130.838C900.808 140.998 922.589 169.43 928.825 209.047C928.825 209.132 928.825 209.217 928.825 209.303C928.91 209.9 928.996 210.584 929.081 211.181C929.252 212.12 929.337 213.06 929.508 213.999C937.366 278.547 901.406 346.51 849.302 365.806V365.636Z" stroke="#003B2F" stroke-width="3" stroke-linecap="round" stroke-linejoin="round"/><path d="M858.015 197.094C851.523 183.348 840.077 184.97 827.35 191.63L819.833 171.565L810.352 177.798L817.613 197.265C815.135 198.887 812.573 200.68 810.096 202.388L802.75 182.75L793.269 188.983L800.785 209.047C798.735 210.499 796.771 211.865 794.806 213.146L781.738 221.684L786.606 234.662C786.606 234.662 793.525 229.88 793.44 230.136C797.283 227.575 799.59 229.624 800.871 231.844L809.413 254.641C809.413 254.641 810.01 254.214 810.438 254.043C810.096 254.214 809.754 254.47 809.413 254.726L821.371 286.659C821.798 288.281 821.969 291.269 819.321 293.062C819.492 293.062 812.402 297.587 812.402 297.587L815.99 313.383L828.29 305.272C830.596 303.735 832.817 302.283 835.037 300.832L842.64 321.067L852.121 314.834L844.604 294.77C847.252 293.148 849.729 291.525 852.206 289.903L859.637 309.882L869.119 303.65L861.517 283.414C876.977 271.717 886.202 259.166 880.394 239.016C875.696 222.794 867.496 219.635 857.417 222.794C861.517 215.536 862.627 206.913 857.844 196.923L858.015 197.094ZM861.004 249.176C866.642 264.289 845.885 275.901 839.479 280.17L829.485 253.36C835.892 249.091 855.11 233.466 861.004 249.176ZM842.469 214.256C847.594 228.002 830.254 237.565 824.873 241.065L815.733 216.732C821.029 213.231 837.002 199.912 842.383 214.256H842.469Z" fill="#003B2F"/><path d="M574.555 333.693L432.508 349.83L467.016 384.409L98.7006 752.572L155.502 809.35L523.903 441.187L558.412 475.681L574.555 333.693Z" fill="#03FC9D"/><path d="M582.755 588.299L473.422 600.765L499.987 627.318L342.394 784.846L386.127 828.647L543.72 671.034L570.37 697.672L582.755 588.299Z" fill="#03FC9D"/><path d="M320.698 333.693L219.906 345.134L244.421 369.638L88.3651 525.715L128.682 565.929L284.737 409.938L309.252 434.442L320.698 333.693Z" fill="#03FC9D"/><path d="M249.29 693.233L516.728 425.99L551.237 460.484L567.38 318.495L425.333 334.633L459.841 369.212L91.5256 737.375L125.692 771.527" stroke="#003B2F" stroke-width="3" stroke-linecap="round" stroke-linejoin="round"/><path d="M185.911 756.585L223.152 719.359" stroke="#003B2F" stroke-width="3" stroke-linecap="round" stroke-linejoin="round"/><path d="M344.871 760.086L335.219 769.649" stroke="#003B2F" stroke-width="3" stroke-linecap="round" stroke-linejoin="round"/><path d="M378.952 813.449L536.545 655.836L563.195 682.474L575.58 573.101L466.247 585.567L492.812 612.12L358.793 746.083" stroke="#003B2F" stroke-width="3" stroke-linecap="round" stroke-linejoin="round"/><path d="M199.236 473.121L277.563 394.741L302.077 419.245L313.523 318.495L212.731 329.937L237.246 354.441L81.1902 510.517L121.507 550.732L133.892 538.352" stroke="#003B2F" stroke-width="3" stroke-linecap="round" stroke-linejoin="round"/><path d="M544.83 560.892L632.639 473.12" stroke="#003B2F" stroke-width="3" stroke-linecap="round" stroke-linejoin="round"/><path d="M345.212 376.042L400.391 320.801" stroke="#003B2F" stroke-width="3" stroke-linecap="round" stroke-linejoin="round"/><path d="M295.158 750.865L434.216 611.95" stroke="#003B2F" stroke-width="3" stroke-linecap="round" stroke-linejoin="round"/><path d="M86.2297 460.228L176.515 369.895" stroke="#003B2F" stroke-width="3" stroke-linecap="round" stroke-linejoin="round"/><path d="M1114.42 542.289L1256.47 526.152L1221.96 491.658L1590.27 123.409L1533.47 66.631L1165.16 434.794L1130.56 400.3L1114.42 542.289Z" fill="#E6E8EA"/><path d="M1106.22 287.683L1215.55 275.302L1188.99 248.663L1346.58 91.1354L1302.85 47.4203L1145.25 204.948L1118.6 178.395L1106.22 287.683Z" fill="#E6E8EA"/><path d="M1368.28 542.289L1469.07 530.848L1444.55 506.343L1600.61 350.352L1560.29 310.052L1404.24 466.043L1379.72 441.539L1368.28 542.289Z" fill="#E6E8EA"/><path d="M1433.96 253.018L1492.39 194.617" stroke="#003B2F" stroke-width="3" stroke-linecap="round" stroke-linejoin="round"/><path d="M1533.98 79.6092L1513.91 59.5447L1145.6 427.708L1111 393.128L1094.86 535.117L1236.91 519.065L1202.4 484.486L1412.1 274.876" stroke="#003B2F" stroke-width="3" stroke-linecap="round" stroke-linejoin="round"/><path d="M1517.24 169.772L1537.49 149.537" stroke="#003B2F" stroke-width="3" stroke-linecap="round" stroke-linejoin="round"/><path d="M1311.47 68.3389L1283.29 40.2485L1125.69 197.862L1099.04 171.223L1086.66 280.596L1144.14 274.022" stroke="#003B2F" stroke-width="3" stroke-linecap="round" stroke-linejoin="round"/><path d="M1180.45 269.924L1196.08 268.131L1169.43 241.577L1306.69 104.37" stroke="#003B2F" stroke-width="3" stroke-linecap="round" stroke-linejoin="round"/><path d="M1543.3 380.919L1552.35 371.868" stroke="#003B2F" stroke-width="3" stroke-linecap="round" stroke-linejoin="round"/><path d="M1540.73 302.881L1384.68 458.872L1360.16 434.453L1348.72 535.117L1449.51 523.676L1424.99 499.172L1524.93 399.276" stroke="#003B2F" stroke-width="3" stroke-linecap="round" stroke-linejoin="round"/><path d="M1144.14 315.09L1056.34 402.861" stroke="#003B2F" stroke-width="3" stroke-linecap="round" stroke-linejoin="round"/><path d="M1283.89 550.401L1339.06 495.244" stroke="#003B2F" stroke-width="3" stroke-linecap="round" stroke-linejoin="round"/><path d="M1393.82 125.117L1254.76 264.032" stroke="#003B2F" stroke-width="3" stroke-linecap="round" stroke-linejoin="round"/><path d="M1509.04 502.672L1599.41 412.339" stroke="#003B2F" stroke-width="3" stroke-linecap="round" stroke-linejoin="round"/><path d="M481.072 236.967C470.822 232.954 458.266 219.549 453.482 211.011C454.934 213.316 456.557 215.45 458.436 217.5C462.622 221.939 467.918 225.611 474.324 228.258C474.58 228.343 474.751 228.428 475.007 228.514C504.988 240.296 546.842 224.842 568.367 193.849C568.709 193.422 568.965 192.91 569.307 192.483C569.478 192.227 569.734 191.885 569.905 191.544C569.905 191.544 569.905 191.544 569.905 191.373C582.546 171.821 584.084 151.159 575.713 135.79C574.774 133.997 573.663 132.289 572.382 130.667C587.415 146.719 591.173 178.224 574.432 202.216C552.822 233.21 511.053 248.749 481.072 236.881V236.967Z" fill="#03FC9D"/><path d="M475.007 228.514C475.007 228.514 474.58 228.343 474.324 228.258C467.918 225.611 462.622 221.94 458.436 217.5C456.557 215.451 454.849 213.316 453.482 211.011C453.482 210.926 453.311 210.755 453.226 210.669C443.574 194.532 445.111 171.992 459.718 151.073C481.328 120.08 523.097 104.541 553.078 116.409C561.278 119.653 567.769 124.605 572.382 130.667C573.663 132.29 574.774 133.997 575.713 135.79C584.084 151.159 582.546 171.906 569.905 191.373C569.905 191.373 569.905 191.459 569.905 191.544C569.734 191.8 569.478 192.142 569.307 192.483C568.965 192.91 568.709 193.422 568.367 193.849C546.757 224.843 504.988 240.382 475.007 228.514Z" fill="#E6E8EA"/><path d="M480.559 237.052C470.309 233.039 457.753 219.634 452.97 211.096C454.422 213.402 456.045 215.536 457.924 217.585C462.109 222.025 467.405 225.696 473.811 228.343C474.068 228.429 474.238 228.514 474.495 228.599C504.476 240.382 546.33 224.928 567.855 193.935C568.196 193.508 568.453 192.995 568.794 192.569C568.965 192.312 569.221 191.971 569.392 191.629C569.392 191.629 569.392 191.629 569.392 191.459C582.034 171.906 583.571 151.244 575.201 135.876C574.261 134.083 573.151 132.375 571.869 130.753C586.903 146.804 590.661 178.31 573.919 202.302C552.309 233.295 510.54 248.835 480.559 236.967V237.052Z" stroke="#003B2F" stroke-width="3" stroke-linecap="round" stroke-linejoin="round"/><path d="M474.495 228.685C474.495 228.685 474.068 228.514 473.811 228.429C467.405 225.782 462.109 222.111 457.924 217.671C456.045 215.622 454.336 213.487 452.97 211.182C452.97 211.097 452.799 210.926 452.713 210.84C443.061 194.703 444.599 172.163 459.205 151.244C480.815 120.251 522.584 104.712 552.565 116.58C560.765 119.824 567.257 124.776 571.869 130.838C573.151 132.461 574.261 134.168 575.201 135.961C583.571 151.33 582.034 172.077 569.392 191.544C569.392 191.544 569.392 191.63 569.392 191.715C569.221 191.971 568.965 192.313 568.794 192.654C568.453 193.081 568.196 193.593 567.855 194.02C546.244 225.014 504.476 240.553 474.495 228.685Z" stroke="#003B2F" stroke-width="3" stroke-linecap="round" stroke-linejoin="round"/><path d="M504.305 148.769C504.476 148.769 504.647 148.94 504.817 149.11L507.636 151.245L510.113 153.123L513.017 155.258L515.494 157.051L518.399 159.185L520.876 160.978L523.78 163.113L525.915 164.65C525.915 164.65 526.086 164.65 526.086 164.82C526.001 164.82 525.915 164.906 525.83 164.991C517.715 169.687 509.601 174.383 501.486 179.079C501.401 179.165 501.23 179.25 501.144 179.25C501.23 178.311 501.315 177.372 501.401 176.518L503.963 152.867L504.39 148.683L504.305 148.769Z" fill="#003B2F"/><path d="M500.888 179.42L525.83 165.076H526.001C526.001 165.076 526.171 164.82 526.257 164.82C535.653 159.356 545.049 153.977 554.444 148.512C554.53 148.512 554.615 148.342 554.786 148.427C554.188 149.366 553.59 150.391 552.907 151.33L526.086 193.337C526.086 193.337 526.001 193.508 525.915 193.594C525.83 193.594 525.915 193.423 525.915 193.337V191.118V186.848V182.579C525.915 181.128 525.915 179.676 525.915 178.225V174.041V169.687V165.503V165.418C525.915 165.332 525.915 165.247 525.744 165.332H525.574C517.544 170.114 509.43 174.724 501.401 179.42C501.315 179.506 501.144 179.591 500.974 179.591L500.888 179.42Z" fill="#003B2F"/><path d="M500.974 179.42L506.953 176.004C513.188 172.418 519.509 168.747 525.744 165.161C526.001 164.99 526.001 164.99 526.001 165.332V170.284C526.001 171.394 526.001 172.504 526.001 173.528V178.31V181.042V184.969V187.702V191.544V193.678C526.001 193.678 526.001 193.678 526.001 193.764C525.915 193.764 525.83 193.764 525.83 193.764L513.274 186.592L501.315 179.761C501.315 179.761 501.145 179.676 501.059 179.59L500.974 179.42Z" fill="#003B2F"/><path d="M493.628 183.604L498.838 186.592L513.615 195.045L518.313 197.692C518.313 197.692 518.484 197.692 518.484 197.777H518.313C503.622 196.838 488.93 195.813 474.238 194.874C474.238 194.874 474.068 194.874 473.982 194.874C473.982 194.789 474.153 194.704 474.238 194.618C480.559 190.947 486.88 187.361 493.201 183.689C493.286 183.689 493.457 183.519 493.542 183.604H493.628Z" fill="#003B2F"/><path d="M493.628 183.603C493.628 183.603 493.457 183.603 493.372 183.774C487.051 187.446 480.645 191.117 474.324 194.788L474.068 194.959C474.324 194.447 474.666 193.849 474.922 193.337C477.57 188.556 480.132 183.774 482.78 178.993L490.638 164.734L496.874 153.379L497.045 153.122C497.045 153.122 497.045 153.379 497.045 153.549L495.08 171.565L493.799 183.518C493.799 183.518 493.799 183.603 493.799 183.689L493.628 183.603Z" fill="#003B2F"/><path d="M554.786 148.341C554.786 148.341 554.615 148.341 554.53 148.427C545.134 153.891 535.653 159.27 526.257 164.735C526.172 164.735 526.086 164.905 526.001 164.82C526.001 164.82 526.086 164.649 526.172 164.649L526.428 164.478C535.738 159.099 545.049 153.72 554.359 148.341C554.53 148.256 554.701 148.171 554.871 148.171V148.256L554.786 148.341Z" fill="#003B2F"/><path d="M554.871 148.256C545.305 153.806 535.653 159.356 526.086 164.82C525.061 164.137 524.036 163.369 523.011 162.6C521.901 161.832 520.876 160.978 519.765 160.209L514.128 156.026L510.199 153.123L504.39 148.854C505.159 148.854 505.928 148.854 506.697 148.854L526.086 148.683L550.771 148.427H554.871C554.871 148.427 554.957 148.427 555.042 148.427L554.871 148.256Z" fill="#003B2F"/><path d="M722.854 530.976C726.015 516.375 741.219 496.482 751.64 488.285C748.821 490.676 746.344 493.408 744.038 496.396C738.913 502.971 735.154 510.911 733.104 520.047C733.019 520.388 732.933 520.644 732.848 520.986C723.538 563.847 753.519 616.613 799.9 638.812C800.583 639.153 801.267 639.41 801.95 639.751C802.377 639.922 802.889 640.178 803.317 640.349C803.317 640.349 803.402 640.349 803.487 640.349C832.529 653.07 860.716 650.594 879.508 635.994C881.729 634.287 883.779 632.408 885.658 630.359C867.379 654.095 825.867 665.963 789.906 648.716C743.525 626.517 713.544 573.751 722.854 530.89V530.976Z" fill="#03FC9D"/><path d="M732.848 520.986C732.848 520.986 733.019 520.303 733.104 520.047C735.24 510.911 738.998 502.971 744.038 496.396C746.344 493.408 748.906 490.676 751.64 488.285C751.81 488.2 751.981 488.029 752.067 487.944C771.542 471.38 802.292 468.647 833.554 483.589C879.935 505.788 909.916 558.554 900.606 601.415C898.043 613.198 892.833 622.931 885.658 630.445C883.693 632.494 881.643 634.372 879.508 636.08C860.716 650.68 832.529 653.156 803.487 640.434H803.317C802.889 640.263 802.377 640.007 801.95 639.836C801.267 639.495 800.583 639.239 799.9 638.897C753.519 616.698 723.538 563.933 732.848 521.071V520.986Z" fill="#E6E8EA"/><path d="M722.598 530.293C725.758 515.693 740.963 495.799 751.383 487.602C748.565 489.993 746.088 492.725 743.781 495.714C738.656 502.288 734.898 510.228 732.848 519.364C732.763 519.706 732.677 519.962 732.592 520.303C723.281 563.165 753.263 615.93 799.644 638.129C800.327 638.471 801.01 638.727 801.694 639.068C802.121 639.239 802.633 639.495 803.06 639.666C803.06 639.666 803.146 639.666 803.231 639.666C832.273 652.388 860.46 649.912 879.252 635.312C881.473 633.604 883.523 631.726 885.402 629.677C867.123 653.412 825.61 665.28 789.65 648.033C743.269 625.834 713.288 573.069 722.598 530.208V530.293Z" stroke="#003B2F" stroke-width="3" stroke-linecap="round" stroke-linejoin="round"/><path d="M732.506 520.303C732.506 520.303 732.677 519.62 732.763 519.364C734.898 510.228 738.656 502.288 743.696 495.714C746.002 492.725 748.565 489.993 751.298 487.602C751.469 487.517 751.64 487.346 751.725 487.261C771.2 470.697 801.95 467.965 833.212 482.907C879.593 505.106 909.575 557.871 900.264 600.732C897.702 612.515 892.491 622.248 885.316 629.762C883.352 631.811 881.302 633.689 879.166 635.397C860.375 649.997 832.187 652.473 803.146 639.752H802.975C802.548 639.581 802.035 639.325 801.608 639.154C800.925 638.812 800.242 638.556 799.558 638.215C753.177 616.016 723.196 563.25 732.506 520.389V520.303Z" stroke="#003B2F" stroke-width="3" stroke-linecap="round" stroke-linejoin="round"/><path d="M787.6 511.424C786.148 510.143 786.49 508.863 787.6 507.667C807.16 498.019 832.956 502.459 851.919 519.877C870.881 537.38 877.202 562.653 869.002 582.717C868.319 584.339 866.696 584.254 865.244 582.973L861.912 579.9C860.887 578.96 860.46 577.68 860.631 576.484C866.269 560.006 860.973 540.197 845.854 526.195C830.735 512.192 809.552 508.436 794.348 515.351C793.152 515.693 791.786 515.266 790.846 514.412L787.515 511.339L787.6 511.424Z" fill="#003B2F"/><path d="M788.198 534.391C787.258 533.537 787.088 531.83 787.771 531.061L790.76 527.817C791.529 527.048 793.238 527.048 794.177 527.987L799.9 533.196C806.819 527.646 814.079 528.329 821.425 532.854C822.365 533.708 822.962 534.989 822.194 535.842L818.863 539.428C818.094 540.197 817.24 540.197 815.958 539.77C811.858 537.55 807.588 536.525 802.719 541.734C798.96 545.747 798.704 550.784 802.463 554.285C806.221 557.785 809.21 557.444 815.36 552.748C824.671 545.576 831.248 544.21 839.277 551.638C845.427 557.273 846.452 565.726 842.096 572.215L847.819 577.423C848.758 578.277 848.929 579.984 848.246 580.753L845.256 583.997C844.487 584.766 842.779 584.766 841.84 583.827L836.117 578.618C830.65 582.546 824.329 582.717 818.435 578.704C817.496 577.85 816.898 576.569 817.667 575.715L820.656 572.471C821.425 571.702 822.279 571.702 823.56 572.215C827.66 574.435 830.906 573.752 834.323 570.166C838.081 566.153 837.569 561.969 834.323 558.895C831.077 555.822 828.002 555.309 821.425 560.432C812.115 567.604 805.538 568.97 797.508 561.542C791.358 555.907 789.906 547.027 794.092 539.685L788.369 534.476L788.198 534.391Z" fill="#003B2F"/><path d="M767.356 529.354C768.04 527.732 769.663 527.817 771.115 529.098L774.446 532.172C775.386 533.026 775.983 534.306 775.727 535.587C770.09 552.066 775.386 571.874 790.504 585.876C805.623 599.879 826.806 603.636 842.01 596.72C843.206 596.378 844.487 596.72 845.512 597.659L848.844 600.733C850.296 602.014 849.954 603.294 848.844 604.49C829.625 613.711 803.487 609.698 784.525 592.28C765.563 574.777 759.242 549.504 767.442 529.44L767.356 529.354Z" fill="#003B2F"/><path d="M1063.81 733.718C1053.14 729.534 1040.07 715.617 1035.11 706.738C1036.57 709.128 1038.36 711.434 1040.24 713.483C1044.59 718.179 1050.06 721.936 1056.72 724.668C1056.98 724.753 1057.15 724.838 1057.41 725.009C1088.58 737.389 1132.15 721.252 1154.61 689.064C1154.95 688.551 1155.29 688.125 1155.55 687.612C1155.72 687.271 1155.98 687.015 1156.15 686.673C1156.15 686.673 1156.15 686.588 1156.15 686.502C1169.3 666.182 1170.93 644.666 1162.3 628.614C1161.27 626.736 1160.16 624.943 1158.88 623.235C1174.51 639.97 1178.36 672.756 1160.85 697.773C1138.38 729.961 1094.82 746.098 1063.64 733.718H1063.81Z" fill="#03FC9D"/><path d="M1057.49 724.923C1057.49 724.923 1056.98 724.753 1056.81 724.582C1050.15 721.85 1044.59 718.008 1040.32 713.397C1038.36 711.263 1036.65 709.043 1035.2 706.652C1035.2 706.567 1035.03 706.396 1034.94 706.225C1024.86 689.49 1026.57 666.01 1041.78 644.238C1064.33 612.05 1107.8 595.913 1139.06 608.293C1147.61 611.708 1154.35 616.831 1159.14 623.235C1160.42 624.942 1161.61 626.735 1162.55 628.614C1171.27 644.58 1169.56 666.181 1156.4 686.502C1156.4 686.502 1156.4 686.587 1156.4 686.673C1156.23 687.014 1155.98 687.27 1155.81 687.612C1155.46 688.124 1155.21 688.551 1154.87 689.063C1132.4 721.252 1088.84 737.389 1057.66 725.009L1057.49 724.923Z" fill="#E6E8EA"/><path d="M1063.22 733.804C1052.54 729.62 1039.47 715.703 1034.52 706.823C1035.97 709.214 1037.76 711.519 1039.64 713.568C1044 718.264 1049.46 722.021 1056.13 724.753C1056.38 724.839 1056.55 724.924 1056.81 725.095C1087.99 737.475 1131.55 721.338 1154.01 689.149C1154.35 688.637 1154.7 688.21 1154.95 687.698C1155.12 687.356 1155.38 687.1 1155.55 686.759C1155.55 686.759 1155.55 686.673 1155.55 686.588C1168.7 666.267 1170.33 644.751 1161.7 628.7C1160.68 626.821 1159.56 625.028 1158.28 623.321C1173.91 640.055 1177.76 672.842 1160.25 697.858C1137.78 730.047 1094.22 746.184 1063.04 733.804H1063.22Z" stroke="#003B2F" stroke-width="3" stroke-linecap="round" stroke-linejoin="round"/><path d="M1056.98 725.094C1056.98 725.094 1056.47 724.924 1056.3 724.753C1049.63 722.021 1044.08 718.179 1039.81 713.568C1037.85 711.433 1036.14 709.214 1034.69 706.823C1034.69 706.738 1034.52 706.567 1034.43 706.396C1024.35 689.661 1026.06 666.182 1041.26 644.409C1063.81 612.221 1107.29 596.084 1138.55 608.464C1147.09 611.879 1153.84 617.002 1158.63 623.406C1159.91 625.113 1161.1 626.906 1162.04 628.785C1170.75 644.751 1169.05 666.352 1155.89 686.673C1155.89 686.673 1155.89 686.758 1155.89 686.844C1155.72 687.185 1155.46 687.441 1155.29 687.783C1154.95 688.295 1154.7 688.722 1154.35 689.234C1131.89 721.423 1088.33 737.56 1057.15 725.18L1056.98 725.094Z" stroke="#003B2F" stroke-width="3" stroke-linecap="round" stroke-linejoin="round"/><path d="M1123.01 631.517L1113.87 632.115L1088.93 633.737L1079.79 634.334L1053.48 669.17L1057.07 675.915L1066.97 694.443L1070.56 701.188L1079.7 700.59L1104.47 698.882L1113.61 698.285L1139.92 663.449L1136.33 656.704L1126.59 638.262L1123.01 631.517ZM1071.07 667.804L1088.67 648.166L1114.29 646.629L1122.32 664.73L1104.73 684.368L1079.1 685.905L1071.07 667.804Z" fill="#003B2F"/><path d="M335.219 145.801L356.038 157.828" stroke="#003B2F" stroke-width="3" stroke-linecap="round" stroke-linejoin="round"/><path d="M376.94 145.801L364.664 152.852" stroke="#003B2F" stroke-width="3" stroke-linecap="round" stroke-linejoin="round"/><path d="M356.038 157.829V182.132" stroke="#003B2F" stroke-width="3" stroke-linecap="round" stroke-linejoin="round"/><path d="M948.943 396.2L963.887 411.144" stroke="#003B2F" stroke-width="3" stroke-linecap="round" stroke-linejoin="round"/><path d="M974.814 422.072L989.758 436.922" stroke="#003B2F" stroke-width="3" stroke-linecap="round" stroke-linejoin="round"/><path d="M948.943 436.922L963.887 422.072" stroke="#003B2F" stroke-width="3" stroke-linecap="round" stroke-linejoin="round"/><path d="M974.814 411.144L989.758 396.2" stroke="#003B2F" stroke-width="3" stroke-linecap="round" stroke-linejoin="round"/><path d="M670.919 732.028C679.843 732.028 687.077 724.794 687.077 715.87C687.077 706.946 679.843 699.712 670.919 699.712C661.996 699.712 654.761 706.946 654.761 715.87C654.761 724.794 661.996 732.028 670.919 732.028Z" stroke="#003B2F" stroke-width="3" stroke-linecap="round" stroke-linejoin="round"/><path d="M1377.9 618.978L1358.48 599.561L1339.06 618.978L1358.48 638.394L1377.9 618.978Z" stroke="#003B2F" stroke-width="3" stroke-linecap="round" stroke-linejoin="round"/></svg>