<svg width="1921" height="1080" viewBox="0 0 1921 1080" fill="none" xmlns="http://www.w3.org/2000/svg"><path d="M1023.84 697.22C1018.75 700.611 930.834 721.675 930.834 721.675C896.204 717.123 837.119 716.588 837.119 716.588C828.015 710.429 748.937 696.149 748.937 696.149C682.8 653.843 653.168 660.448 641.476 660.983C634.336 661.251 613.808 668.034 610.059 675.888C606.935 682.314 609.167 690.079 615.147 694.007C666.378 727.566 796.062 807.268 830.157 817.89C866.751 829.314 1033.83 831.813 1033.83 831.813C1033.83 831.813 1037.49 688.027 1023.84 697.22Z" fill="#E6E8EA" stroke="#003B2F" stroke-width="2.67759" stroke-miterlimit="10"/><path d="M938.51 717.391C933.422 720.783 845.508 741.846 845.508 741.846C810.878 737.294 751.792 736.759 751.792 736.759C742.689 730.6 663.611 716.32 663.611 716.32C597.474 674.014 567.842 680.619 556.15 681.154C549.01 681.422 528.482 688.205 524.733 696.059C521.609 702.486 523.841 710.251 529.821 714.178C581.052 747.737 710.736 827.44 744.831 838.061C781.424 849.485 948.506 851.984 948.506 851.984C948.506 851.984 952.165 708.198 938.51 717.391Z" fill="#E6E8EA" stroke="#003B2F" stroke-width="2.67759" stroke-miterlimit="10"/><path d="M919.944 633.937C866.571 681.241 789.01 688.024 746.794 649.11C704.577 610.196 713.592 540.4 767.054 493.096C820.427 445.792 897.988 439.009 940.205 477.923C982.421 516.837 973.407 586.633 919.944 633.937Z" fill="#03FC9D" stroke="#003B2F" stroke-width="2.67759" stroke-miterlimit="10"/><path d="M908.164 614.749C854.791 662.053 777.231 668.836 735.014 629.922C692.797 591.007 701.812 521.212 755.274 473.908C808.648 426.603 886.208 419.82 928.425 458.735C970.642 497.649 961.627 567.445 908.164 614.749Z" fill="#A9FEDE" stroke="#003B2F" stroke-width="2.67759" stroke-miterlimit="10"/><path d="M1397.27 875.011L1279.81 737.026C1266.87 719.354 1245.27 697.577 1209.22 676.245C1160.66 647.506 1100.95 639.205 1081.94 636.528L948.954 680.529C958.683 738.097 882.282 708.822 883.085 725.245C883.978 744.077 872.286 757.733 857.113 767.462C823.911 773.352 796.599 777.726 796.599 777.726C785.71 776.208 649.511 779.154 649.511 779.154C571.504 770.05 555.26 789.775 544.995 795.398C538.659 798.789 523.218 813.873 523.307 822.62C523.307 829.76 528.751 835.74 535.802 836.633C596.584 844.398 747.689 853.769 783.39 853.769C806.06 853.769 847.384 856.625 886.031 859.838C886.745 860.017 887.191 860.106 887.191 860.106L1122.91 883.044L1183.33 1005.68" fill="#E6E8EA"/><path d="M1397.27 875.011L1279.81 737.026C1266.87 719.354 1245.27 697.577 1209.22 676.245C1160.66 647.506 1100.95 639.205 1081.94 636.528L948.954 680.529C958.683 738.097 882.282 708.822 883.085 725.245C883.978 744.077 872.286 757.733 857.113 767.462C823.911 773.352 796.599 777.726 796.599 777.726C785.71 776.208 649.511 779.154 649.511 779.154C571.504 770.05 555.26 789.775 544.995 795.398C538.659 798.789 523.218 813.873 523.307 822.62C523.307 829.76 528.751 835.74 535.802 836.633C596.584 844.398 747.689 853.769 783.39 853.769C806.06 853.769 847.384 856.625 886.031 859.838C886.745 860.017 887.191 860.106 887.191 860.106L1122.91 883.044L1183.33 1005.68" stroke="#003B2F" stroke-width="2.67759" stroke-miterlimit="10"/><path d="M862.379 284.389C906.218 254.886 912.284 187.175 875.928 133.154C839.572 79.1318 774.561 59.2555 730.722 88.7585C686.883 118.262 680.817 185.972 717.173 239.994C753.529 294.015 818.54 313.892 862.379 284.389Z" fill="#03FC9D" stroke="#003B2F" stroke-width="2.67759" stroke-miterlimit="10"/><path d="M840.21 299.444C884.049 269.94 890.115 202.23 853.759 148.209C817.403 94.1868 752.392 74.3104 708.553 103.813C664.714 133.316 658.648 201.027 695.004 255.048C731.36 309.07 796.371 328.947 840.21 299.444Z" fill="#A9FEDE" stroke="#003B2F" stroke-width="2.67759" stroke-miterlimit="10"/><path d="M1126.31 396.578C1156.12 337.799 1138.55 268.986 1087.07 242.879C1035.58 216.773 969.687 243.259 939.88 302.038C910.073 360.817 927.643 429.63 979.124 455.736C1030.6 481.843 1096.5 455.357 1126.31 396.578Z" fill="#03FC9D" stroke="#003B2F" stroke-width="2.67759" stroke-miterlimit="10"/><path d="M1105.09 388.337C1134.9 329.558 1117.33 260.745 1065.85 234.638C1014.37 208.532 948.473 235.018 918.665 293.797C888.858 352.576 906.428 421.389 957.909 447.495C1009.39 473.602 1075.29 447.116 1105.09 388.337Z" fill="#A9FEDE" stroke="#003B2F" stroke-width="2.67759" stroke-miterlimit="10"/><path d="M892.542 774.69C859.697 776.564 849.255 779.688 832.118 782.812C792.311 790.13 770.534 789.416 750.095 782.008C721.891 771.834 716.357 743.183 726.71 738.542C756.253 725.243 811.768 711.142 841.043 702.127C872.728 692.398 942.435 667.318 965.73 658.839C970.192 657.233 974.566 655.358 978.939 653.395C995.183 645.987 1044.9 626.173 1093.81 638.043" fill="#E6E8EA"/><path d="M892.542 774.69C859.697 776.564 849.255 779.688 832.118 782.812C792.311 790.13 770.534 789.416 750.095 782.008C721.891 771.834 716.357 743.183 726.71 738.542C756.253 725.243 811.768 711.142 841.043 702.127C872.728 692.398 942.435 667.318 965.73 658.839C970.192 657.233 974.566 655.358 978.939 653.395C995.183 645.987 1044.9 626.173 1093.81 638.043" stroke="#003B2F" stroke-width="2.67759" stroke-miterlimit="10"/><path d="M736.086 523.266L752.865 491.581L758.488 493.812L760.809 513.716L758.131 512.645L776.428 501.042L782.051 503.273L765.718 535.226L759.827 532.816L772.501 508.182L774.554 509.699L755.543 521.213L754.74 520.945L752.598 500.953L754.829 501.131L741.887 525.676L735.997 523.355L736.086 523.266Z" fill="#003B2F"/><path d="M770.717 537.189L786.961 505.148L805.793 512.645L802.937 518.446L789.906 513.27L786.247 520.499L798.564 525.408L795.619 531.21L783.212 526.211L779.464 533.619L792.673 538.885L789.728 544.776L770.539 537.1L770.717 537.189Z" fill="#003B2F"/><path d="M793.296 546.204L809.273 513.984L815.163 516.304L802.222 542.634L814.271 547.453L811.415 553.433L793.386 546.204H793.296Z" fill="#003B2F"/><path d="M812.127 553.79L837.386 525.229L845.24 528.353L839.528 564.769L833.013 562.18L834.262 554.683L823.82 550.488L818.643 556.468L812.217 553.88L812.127 553.79ZM828.193 545.222L835.333 548.078L838.279 531.031L839.885 531.656L828.193 545.222Z" fill="#003B2F"/><path d="M842.477 566.017L857.739 533.351L862.291 535.136L867.022 564.322L864.255 563.965L875.144 540.223L881.034 542.544L866.129 575.389L861.488 573.515L857.204 543.972L859.703 544.24L848.546 568.338L842.566 565.928L842.477 566.017Z" fill="#003B2F"/><path d="M871.214 577.531L886.03 544.597L891.921 546.917L877.194 579.852L871.214 577.442V577.531Z" fill="#003B2F"/><path d="M880.231 581.191L904.597 552.005L912.54 555.129L907.899 592.258L901.295 589.581L902.366 581.905L891.745 577.621L886.746 583.69L880.231 581.102V581.191ZM896.029 572.355L903.258 575.3L905.668 557.985L907.275 558.61L896.029 572.444V572.355Z" fill="#003B2F"/><path d="M916.285 355.29L922.801 320.482L928.334 320.66L935.475 338.332H932.886L946.185 321.196L951.808 321.374L945.56 356.808L939.669 356.54L944.578 329.228L946.81 329.942L932.886 346.99H932.172L925.121 329.139L927.174 328.604L922.176 355.647L916.464 355.38L916.285 355.29Z" fill="#003B2F"/><path d="M950.648 357.077L956.896 321.554L976.175 322.179L975.104 328.605L961.716 328.159L960.288 336.191L972.872 336.727L971.801 343.242L959.127 342.707L957.699 350.918L971.177 351.543L970.106 358.148L950.648 357.166V357.077Z" fill="#003B2F"/><path d="M973.585 358.235L979.565 322.266L985.634 322.445L980.814 351.988L993.399 352.612L992.328 359.306L973.585 358.325V358.235Z" fill="#003B2F"/><path d="M993.131 359.218L1009.02 323.16L1017.41 323.428L1022.23 360.735L1015.27 360.378L1014.37 352.703L1003.22 352.167L1000 359.575L993.22 359.218H993.131ZM1005.98 345.562L1013.57 345.919L1011.61 328.426H1013.3L1005.98 345.562Z" fill="#003B2F"/><path d="M1025.44 360.912L1030.98 323.872L1035.89 324.051L1048.92 351.005L1046.06 351.63L1049.9 324.497L1056.5 324.676L1051.33 362.251L1046.15 361.983L1033.39 334.493L1035.89 333.869L1031.87 361.269L1025.35 360.912H1025.44Z" fill="#003B2F"/><path d="M1056.95 362.52L1062.12 324.766L1068.73 324.944L1063.64 362.788L1056.95 362.431V362.52Z" fill="#003B2F"/><path d="M1067.03 363.056L1083.01 325.48L1092.03 325.748L1098.54 364.662L1090.95 364.305L1089.7 356.273L1077.66 355.737L1074.44 363.502L1067.03 363.145V363.056ZM1080.42 348.865L1088.72 349.222L1085.96 331.014H1087.83L1080.42 348.865Z" fill="#003B2F"/><path d="M707.699 245.244L691.544 218.557L695.739 216.772L711.805 227.036L709.752 227.84L709.574 210.882L714.036 209.007L730.191 236.676L725.639 238.461L713.233 217.397L715.375 217.129L715.018 234.087L714.482 234.355L698.595 224.18L699.756 223.02L712.162 243.637L707.788 245.333L707.699 245.244Z" fill="#003B2F"/><path d="M734.209 235.067L718.055 207.221L733.406 200.705L736.352 205.971L725.73 210.434L729.39 216.86L739.386 212.754L742.331 217.931L732.335 221.947L735.995 228.284L746.616 224.179L749.472 229.266L734.12 235.157L734.209 235.067Z" fill="#003B2F"/><path d="M752.239 228.196L736.084 199.635L740.993 197.583L754.292 221.235L764.377 217.307L767.233 222.484L752.239 228.196Z" fill="#003B2F"/><path d="M767.947 222.127L760.092 189.371L766.965 186.426L791.688 213.023L785.886 215.255L780.977 209.9L771.874 213.47L773.48 220.074L767.947 222.216V222.127ZM770.446 207.668L776.693 205.169L765.18 192.584L766.608 191.96L770.446 207.668Z" fill="#003B2F"/><path d="M794.366 212.041L778.3 181.606L782.406 179.82L808.022 195.975L806.058 197.493L794.366 174.733L799.989 172.323L815.965 203.651L811.592 205.347L786.333 189.014L788.029 187.585L799.721 209.899L794.366 211.952V212.041Z" fill="#003B2F"/><path d="M820.782 201.955L804.806 170.36L810.518 167.95L826.495 199.813L820.782 202.045V201.955Z" fill="#003B2F"/><path d="M829.442 198.653L823.105 162.595L831.049 159.203L856.843 188.121L850.149 190.71L845.062 184.908L834.53 189.014L835.779 196.243L829.442 198.653ZM833.28 182.588L840.51 179.732L828.55 166.076L830.156 165.362L833.28 182.588Z" fill="#003B2F"/><path d="M1057.78 210.05C1057.99 206.797 1058.42 203.58 1059.02 200.365C1059.06 199.974 1059.16 199.618 1059.27 199.261C1059.02 200.365 1059.34 198.969 1059.37 198.741C1059.51 197.995 1059.75 197.217 1059.89 196.47C1060.31 194.88 1060.72 193.291 1061.23 191.67C1061.92 189.563 1060.85 186.878 1058.58 186.193C1056.37 185.543 1053.82 186.515 1053.1 188.849C1051.02 195.56 1049.65 202.476 1049.16 209.437C1048.99 211.649 1050.82 213.987 1053.09 214.02C1055.44 214.087 1057.51 212.456 1057.68 210.081L1057.78 210.05Z" fill="#03FC9D"/><path d="M1100.76 212.397C1103.39 203.513 1107.03 195.067 1111.67 187.222C1112.84 185.285 1112.62 182.547 1110.59 181.247C1108.71 180.113 1105.85 180.267 1104.61 182.333C1099.54 190.856 1095.47 199.98 1092.66 209.512C1092.01 211.717 1093.01 214.206 1095.31 214.989C1097.39 215.735 1100.11 214.602 1100.79 212.333L1100.76 212.397Z" fill="#03FC9D"/><path d="M1157.45 234.644C1157.21 233.534 1156.67 232.516 1155.67 231.916C1154.67 231.315 1153.63 231.105 1152.49 231.251C1147.1 231.824 1141.79 234.32 1137.93 238.139C1137.1 238.941 1136.5 239.942 1136.39 241.112C1136.34 242.154 1136.68 243.396 1137.42 244.188C1138.22 245.014 1139.19 245.679 1140.39 245.729C1141.43 245.777 1142.71 245.535 1143.47 244.699C1144.42 243.801 1145.45 242.937 1146.56 242.204C1147.84 241.474 1149.16 240.841 1150.53 240.405C1151.67 240.096 1152.88 239.821 1154.09 239.708C1155.13 239.593 1156.28 238.795 1156.82 237.924C1157.42 237.086 1157.76 235.788 1157.52 234.678L1157.45 234.644Z" fill="#03FC9D"/><path d="M382.534 441.042H212.673C193.94 441.042 178.753 456.228 178.753 474.962C178.753 493.695 193.94 508.882 212.673 508.882H382.534C401.268 508.882 416.454 493.695 416.454 474.962C416.454 456.228 401.268 441.042 382.534 441.042Z" fill="#E6E8EA"/><path d="M441.634 508.751H271.773C253.04 508.751 237.853 523.937 237.853 542.671C237.853 561.404 253.04 576.591 271.773 576.591H441.634C460.367 576.591 475.554 561.404 475.554 542.671C475.554 523.937 460.367 508.751 441.634 508.751Z" fill="#E6E8EA"/><path d="M296.43 474.831H126.569C107.836 474.831 92.6494 490.018 92.6494 508.751C92.6494 527.485 107.836 542.671 126.569 542.671H296.43C315.164 542.671 330.35 527.485 330.35 508.751C330.35 490.018 315.164 474.831 296.43 474.831Z" fill="#E6E8EA"/><path d="M110.659 557.04H316.626C339.328 557.04 357.731 538.637 357.731 515.936C357.731 493.234 339.328 474.831 316.626 474.831H110.659C87.9573 474.831 69.5541 493.234 69.5541 515.936C69.5541 538.637 87.9573 557.04 110.659 557.04Z" fill="#03FC9D"/><path d="M1186.12 557.04L1212.1 555.036" stroke="#003B2F" stroke-width="3" stroke-linecap="round" stroke-linejoin="round"/><path d="M1226.7 576.507L1218.08 563.833" stroke="#003B2F" stroke-width="3" stroke-linecap="round" stroke-linejoin="round"/><path d="M1212.1 555.036L1223.47 531.324" stroke="#003B2F" stroke-width="3" stroke-linecap="round" stroke-linejoin="round"/><path d="M1411.27 773.521H1446.95" stroke="#003B2F" stroke-width="3" stroke-linecap="round" stroke-linejoin="round"/><path d="M1493.03 718.592H1751.44" stroke="#03FC9D" stroke-width="3" stroke-linecap="round" stroke-linejoin="round"/><path d="M1493.03 773.327H1637.5" stroke="#003B2F" stroke-width="3" stroke-linecap="round" stroke-linejoin="round"/><path d="M724.12 382.147L741.584 390.246" stroke="#003B2F" stroke-width="3" stroke-linecap="round" stroke-linejoin="round"/><path d="M754.346 396.166L771.779 404.183" stroke="#003B2F" stroke-width="3" stroke-linecap="round" stroke-linejoin="round"/><path d="M736.876 416.969L745.005 399.587" stroke="#003B2F" stroke-width="3" stroke-linecap="round" stroke-linejoin="round"/><path d="M750.924 386.825L759.024 369.361" stroke="#003B2F" stroke-width="3" stroke-linecap="round" stroke-linejoin="round"/><path d="M268.194 191.717H531.249" stroke="#003B2F" stroke-width="3" stroke-linecap="round" stroke-linejoin="round"/><path d="M377.669 152.929L471.377 152.929" stroke="#03FC9D" stroke-width="3" stroke-linecap="round" stroke-linejoin="round"/><path d="M191.439 152.929L344.949 152.929" stroke="#03FC9D" stroke-width="3" stroke-linecap="round" stroke-linejoin="round"/><path d="M303.628 892.002L337.548 872.39" stroke="#003B2F" stroke-width="3" stroke-linecap="round" stroke-linejoin="round"/><path d="M371.311 892.002L351.377 880.427" stroke="#003B2F" stroke-width="3" stroke-linecap="round" stroke-linejoin="round"/><path d="M337.546 872.39V832.844" stroke="#003B2F" stroke-width="3" stroke-linecap="round" stroke-linejoin="round"/><path d="M971.155 946.91C977.968 946.91 983.492 941.387 983.492 934.573C983.492 927.759 977.968 922.235 971.155 922.235C964.341 922.235 958.817 927.759 958.817 934.573C958.817 941.387 964.341 946.91 971.155 946.91Z" stroke="#003B2F" stroke-width="3" stroke-linecap="round" stroke-linejoin="round"/><path d="M1487.79 546.699H1611.8C1625.47 546.699 1636.55 535.618 1636.55 521.95C1636.55 508.282 1625.47 497.201 1611.8 497.201H1487.79C1474.12 497.201 1463.04 508.282 1463.04 521.95C1463.04 535.618 1474.12 546.699 1487.79 546.699Z" fill="#03FC9D"/><path d="M1555.16 508.816L1758.15 508.816C1780.55 508.816 1798.71 490.676 1798.71 468.298C1798.71 445.921 1780.55 427.78 1758.15 427.78H1555.16C1532.76 427.78 1514.59 445.921 1514.59 468.298C1514.59 490.676 1532.76 508.816 1555.16 508.816Z" fill="#03FC9D"/><path d="M1403.64 189.41H1581.36" stroke="#03FC9D" stroke-width="3" stroke-linecap="round" stroke-linejoin="round"/><path d="M1357.12 147.666H1494.3" stroke="#003B2F" stroke-width="3" stroke-linecap="round" stroke-linejoin="round"/><path d="M1438.76 307.85L1448.44 329.925" stroke="#003B2F" stroke-width="3" stroke-linecap="round" stroke-linejoin="round"/><path d="M1455.52 346.057L1465.24 368.03" stroke="#003B2F" stroke-width="3" stroke-linecap="round" stroke-linejoin="round"/><path d="M1421.88 351.109L1443.91 341.529" stroke="#003B2F" stroke-width="3" stroke-linecap="round" stroke-linejoin="round"/><path d="M1460.04 334.453L1482.12 324.771" stroke="#003B2F" stroke-width="3" stroke-linecap="round" stroke-linejoin="round"/></svg>