<?xml version="1.0" encoding="UTF-8"?><svg id="Layer_1" data-name="Layer 1" xmlns="http://www.w3.org/2000/svg" viewBox="0 0 192 108"><defs><style>.cls-1, .cls-2, .cls-3, .cls-4, .cls-5, .cls-6, .cls-7, .cls-8, .cls-9 {
        stroke-width: .33px;
      }

      .cls-1, .cls-2, .cls-3, .cls-4, .cls-8, .cls-9 {
        stroke: #003d2e;
      }

      .cls-1, .cls-2, .cls-3, .cls-9 {
        stroke-miterlimit: 10;
      }

      .cls-1, .cls-10 {
        fill: #00ff94;
      }

      .cls-2 {
        fill: #fff;
      }

      .cls-3, .cls-4, .cls-11 {
        fill: #e3e7e3;
      }

      .cls-4, .cls-5, .cls-6, .cls-7, .cls-8 {
        stroke-linecap: round;
        stroke-linejoin: round;
      }

      .cls-5 {
        stroke: #163b2f;
      }

      .cls-5, .cls-6, .cls-7, .cls-8, .cls-9 {
        fill: none;
      }

      .cls-6 {
        stroke: #00ff94;
      }

      .cls-7 {
        stroke: #003c2e;
      }</style></defs><rect class="cls-8" x="108.07" y="42.87" width="2.97" height="2.97" transform="translate(63.45 -64.48) rotate(45)"/><circle class="cls-7" cx="96.53" cy="94.74" r="2.05"/><line class="cls-7" x1="104.35" y1="97.1" x2="107.72" y2="97.1"/><line class="cls-6" x1="90.24" y1="89.54" x2="114.65" y2="89.54"/><line class="cls-7" x1="112.07" y1="97.08" x2="125.72" y2="97.08"/><path class="cls-11" d="M174.43,93.32h-4.7c1.49,0,2.7-1.06,2.7-2.38s-1.21-2.38-2.7-2.38h-13.51c-1.49,0-2.7,1.06-2.7,2.38h-4.15c-1.49,0-2.7,1.06-2.7,2.38s1.21,2.38,2.7,2.38h8.85c0,1.31,1.21,2.38,2.7,2.38h13.51c1.49,0,2.7-1.06,2.7-2.38s-1.21-2.38-2.7-2.38Z"/><line class="cls-7" x1="166.22" y1="91.62" x2="169.59" y2="91.62"/><line class="cls-6" x1="161.35" y1="82.91" x2="185.75" y2="82.91"/><line class="cls-7" x1="173.94" y1="91.6" x2="187.59" y2="91.6"/><g><line class="cls-5" x1="149.14" y1="80.67" x2="149.14" y2="82.95"/><line class="cls-5" x1="149.14" y1="84.62" x2="149.14" y2="86.89"/><line class="cls-5" x1="146.03" y1="83.78" x2="148.31" y2="83.78"/><line class="cls-5" x1="149.98" y1="83.78" x2="152.25" y2="83.78"/></g><g><line class="cls-8" x1="60.99" y1="23.94" x2="63.03" y2="22.77"/><line class="cls-8" x1="65.07" y1="23.94" x2="63.87" y2="23.25"/><line class="cls-8" x1="63.03" y1="22.77" x2="63.03" y2="20.39"/></g><path class="cls-11" d="M38.19,22.84h-4.7c1.49,0,2.7-1.21,2.7-2.7s-1.21-2.7-2.7-2.7h-13.51c-1.49,0-2.7,1.21-2.7,2.7h-4.15c-1.49,0-2.7,1.21-2.7,2.7s1.21,2.7,2.7,2.7h8.85c0,1.49,1.21,2.7,2.7,2.7h13.51c1.49,0,2.7-1.21,2.7-2.7s-1.21-2.7-2.7-2.7Z"/><path class="cls-10" d="M18.33,20.07H.78c.06,3.18,0,6.27-.05,9.38H18.33c2.59,0,4.69-2.1,4.69-4.69s-2.1-4.69-4.69-4.69Z"/><g><polygon class="cls-10" points="44.24 94.84 37.76 95.94 30.91 81.01 24.52 98.18 17.3 99.4 27.16 72.83 23.5 64.81 10.18 100.61 2.95 101.84 19.82 56.45 26.15 55.38 30.66 65.18 37.19 64.08 34.04 72.58 44.24 94.84"/><polygon class="cls-10" points="72.46 84.27 67.61 85.09 62.47 73.89 57.68 86.77 52.25 87.69 59.66 67.76 56.91 61.74 46.92 88.6 41.49 89.52 54.15 55.47 58.9 54.66 62.28 62.02 67.18 61.19 64.82 67.57 72.46 84.27"/><polygon class="cls-10" points="100.69 73.69 97.45 74.24 94.02 66.77 90.83 75.36 87.21 75.97 92.15 62.68 90.31 58.67 83.65 76.58 80.04 77.19 88.47 54.48 91.64 53.95 93.9 58.85 97.17 58.3 95.59 62.56 100.69 73.69"/><polygon class="cls-10" points="128.92 63.12 127.3 63.39 125.58 59.65 123.98 63.95 122.17 64.26 124.64 57.6 123.72 55.59 120.39 64.56 118.58 64.87 122.8 53.5 124.39 53.23 125.52 55.69 127.15 55.41 126.37 57.54 128.92 63.12"/></g><g><polygon class="cls-3" points="211.04 15.91 191.06 28.15 164.03 44.71 142.36 32.24 121.77 20.39 170.28 -7.06 211.04 15.91"/><path class="cls-3" d="M124.11,25.17v16.09l20.27,11.61c1.15,3.15,3.47,5.96,6.19,7.14,2.12,.94,4.04,.66,5.35-.53l.11,.07,.53,.3v.02l7.47,4.27v4.07l-42.26-24.32V20.39l20.58,11.86,21.68,12.47v3.05l-5.86-3.47c-1.05-1.2-2.08-1.94-3.41-2.53-.74-.33-1.46-.49-2.15-.54-.18-.02-.35-.02-.53,0l-13.88-7.95-12.5-7.19-1.61-.92Z"/><path class="cls-9" d="M152.09,41.23c-1.05,.03-1.53,.32-2.91,.91l-2.06,.96-.02,.02-.43,.13-.03,.02c-1.79,.74-2.99,2.66-3.02,5.42-.02,.49,.02,.99,.08,1.49l-17.98-10.31v-13.78l12.5,7.19,13.88,7.95Z"/><path class="cls-3" d="M144.38,52.88l-20.27-11.62V25.16l1.61,.93v13.78l17.99,10.31c.11,.91,.34,1.81,.67,2.7Z"/><path class="cls-4" d="M164.03,61.84v2.3s-7.47-4.27-7.47-4.29c0-.02-.21-.13-.24-.14-.09-.05-.23-.13-.25-.24,0-.05,0-.1,.03-.13,.06-.07,.16-.1,.24-.13,.32-.14,.65-.25,.99-.34,.34-.08,.68-.11,1.01-.22,.04-.01,.06-.03,.14,0,.2,.1,.39,.22,.58,.33l1.06,.61,1.28,.74,1.25,.72,.96,.55,.42,.24Z"/><polygon class="cls-3" points="211.04 15.9 211.04 39.41 167.94 65.81 167.45 66.11 164.03 68.21 164.03 44.71 191.07 28.16 211.04 15.9"/><path class="cls-3" d="M161.72,53.12c-.03,2.22-.82,3.91-2.07,4.86-.36,.3-.77,.51-1.22,.64-.26,.08-.52,.15-.78,.19-.41,.07-.8,.22-1.19,.36-.07,.03-.13,.05-.2,.07-.04,.02-.11,.02-.15,.06,.15-.15,.3-.31,.43-.49,.21-.28,.41-.61,.56-.95,.39-.84,.61-1.86,.62-3.02,.07-4.57-3.04-9.64-6.93-11.33-.69-.31-1.36-.48-2-.54-.59-.05-1.17,0-1.68,.13l2.06-.96c1.73-.73,1.86-.88,2.91-.91,.18-.02,.34-.02,.53,0,.69,.05,1.41,.21,2.15,.54,1.33,.59,2.56,1.56,3.61,2.76,.15,.18,.3,.36,.46,.54,1.77,2.28,2.91,5.26,2.87,8.05Z"/><path class="cls-2" d="M150.8,43.51c-.69-.31-1.36-.48-2-.54-.59-.05-1.17,0-1.68,.13l-.02,.02-.43,.13-.03,.02c-1.79,.74-2.99,2.66-3.02,5.42-.02,.49,.02,.99,.08,1.49,.12,.9,.34,1.81,.67,2.69,1.15,3.15,3.47,5.96,6.19,7.14,2.12,.94,4.04,.66,5.35-.53,.1-.03,.1-.08,.2-.18,.15-.15,.3-.31,.43-.49,.21-.28,.41-.61,.56-.95,.39-.84,.61-1.86,.62-3.02,.07-4.57-3.04-9.64-6.93-11.33Zm4.47,13.3c-.28,.54-.67,.99-1.13,1.28-.12,.07-.21,.13-.33,.18-.89,.43-2,.43-3.22-.1-1.63-.71-3.07-2.23-3.99-4.02-.46-.9-.8-1.89-.95-2.87-.08-.46-.11-.92-.11-1.36,.03-1.99,.87-3.38,2.15-3.94,.85-.36,1.94-.34,3.09,.16,2.84,1.23,5.11,4.94,5.06,8.26-.02,.95-.21,1.76-.56,2.41Z"/><path class="cls-1" d="M155.82,54.4c-.01,.95-.21,1.76-.55,2.41h0c-.28,.55-.67,.98-1.14,1.28-.1,.07-.21,.13-.33,.18-.89,.43-2,.43-3.2-.09-1.63-.72-3.07-2.24-3.99-4.03-.47-.91-.8-1.89-.96-2.87-.07-.46-.11-.92-.1-1.37,.03-1.98,.87-3.38,2.14-3.93,.87-.37,1.94-.35,3.09,.15,2.84,1.24,5.11,4.94,5.06,8.27Z"/></g></svg>