<svg width="1676" height="858" viewBox="0 0 1676 858" fill="none" xmlns="http://www.w3.org/2000/svg"><g clip-path="url(#clip0_565_2199)"><path d="M432.709 127.881V189.524L670.783 326.914V385.475L826.572 475.418V224.642" stroke="#003B2F" stroke-width="3" stroke-linecap="round" stroke-linejoin="round"/><path d="M422.527 116.766C422.527 113.871 423.368 111.723 425.049 110.789C425.703 110.415 426.357 110.228 427.197 110.228C428.505 110.228 429.999 110.695 431.587 111.629C437.565 115.085 442.608 123.771 442.608 130.683C442.608 133.578 441.768 135.726 440.086 136.66C438.499 137.594 436.07 137.314 433.548 135.82C427.571 132.364 422.527 123.678 422.527 116.766Z" fill="#003B2F"/><path d="M997.492 360.351L1193.72 473.551V243.789L1369.5 345.314V518.849" stroke="#003B2F" stroke-width="3" stroke-linecap="round" stroke-linejoin="round"/><path d="M465.866 439.927V210.072" stroke="#003B2F" stroke-width="3" stroke-linecap="round" stroke-linejoin="round"/><path d="M1075.39 102.85V235.29L1193.63 303.564" stroke="#003B2F" stroke-width="3" stroke-linecap="round" stroke-linejoin="round"/><path d="M1374.92 533.512C1373.7 534.166 1371.84 533.886 1369.69 532.672C1364.27 529.496 1359.6 521.557 1359.6 515.3C1359.6 512.965 1360.25 511.19 1361.47 510.443C1361.93 510.163 1362.4 510.069 1362.96 510.069C1363.99 510.069 1365.3 510.443 1366.7 511.283C1372.12 514.459 1376.79 522.398 1376.79 528.656C1376.79 530.991 1376.13 532.765 1374.92 533.512Z" fill="#003B2F"/><path d="M1082.11 114.338C1080.9 114.991 1079.03 114.711 1076.88 113.497C1071.46 110.322 1066.79 102.383 1066.79 96.1249C1066.79 93.7899 1067.45 92.0153 1068.66 91.2681C1069.13 90.9879 1069.6 90.8945 1070.16 90.8945C1071.18 90.8945 1072.49 91.2681 1073.89 92.1087C1079.31 95.2843 1083.98 103.223 1083.98 109.481C1083.98 111.816 1083.32 113.59 1082.11 114.338Z" fill="#003B2F"/><path d="M1119.94 301.229L1110.25 305.93L1119.94 487L1244.81 559.01V373.24L1119.94 301.229Z" fill="#E6E8EA" stroke="#003B2F" stroke-width="3" stroke-linecap="round" stroke-linejoin="round"/><path d="M1225.67 558.45L1235.19 563.961V563.867H1235.29H1235.38V563.774L1235.47 563.867V563.774H1235.57V563.681L1235.66 563.774V563.681H1235.75V563.587L1235.85 563.681V563.587H1235.94V563.494V563.587V563.494H1236.03H1236.13V563.4V563.494V563.4H1236.22H1236.31V563.307V563.4V563.307H1236.41H1236.5V563.214V563.307V563.214H1236.59H1236.69V563.12V563.214V563.12H1236.78V563.027L1236.87 563.12V563.027V563.12V563.027H1236.97V562.933L1237.06 563.027V562.933H1237.15V562.84L1237.25 562.933V562.84H1237.34H1237.43V562.747V562.84V562.747H1237.53H1237.62V562.653V562.747V562.653H1237.71V562.56L1237.81 562.653V562.56V562.653V562.56H1237.9V562.466L1237.99 562.56V562.466H1238.09V562.373L1238.18 562.466V562.373H1238.27V562.28L1238.37 562.373V562.28H1238.46V562.186L1238.55 562.28V562.186H1238.65V562.093L1238.74 562.186V562.093H1238.83V561.999V562.093V561.999H1238.93H1239.02V561.906V561.999V561.906H1239.11H1239.21V561.813L1239.3 561.906V561.813H1239.39V561.719L1239.49 561.813V561.719H1239.58V561.626L1239.68 561.719V561.626H1239.77V561.532V561.626V561.532L1239.86 561.626V561.532H1239.96V561.439V561.532V561.439H1240.05H1240.14V561.346V561.439V561.346H1240.24H1240.33V561.252V561.346V561.252H1240.42H1240.52V561.159V561.252V561.159H1240.61V561.065L1240.7 561.159V561.065V561.159V561.065H1240.8V560.972L1240.89 561.065V560.972H1240.98V560.879L1241.08 560.972V560.879H1241.17V560.785L1241.26 560.879V560.785H1241.36H1241.45V560.692V560.785V560.692H1241.54V560.598L1241.64 560.692V560.598V560.692V560.598H1241.73V560.505L1241.82 560.598V560.505H1241.92V560.412L1242.01 560.505V560.412H1242.1V560.318L1242.2 560.412V560.318H1242.29V560.225L1242.38 560.318V560.225H1242.48V560.131L1242.57 560.225V560.131H1242.66V560.038V560.131V560.038H1242.76H1242.85V559.945V560.038V559.945H1242.94H1243.04V559.851V559.945V559.851H1243.13H1243.22V559.758L1243.32 559.851V559.758H1243.41V559.664L1243.5 559.758V559.664H1243.6V559.571V559.664V559.571L1243.69 559.664V559.571H1243.78V559.478V559.571V559.478H1243.88H1243.97V559.384V559.478V559.384H1244.06H1244.16V559.291V559.384V559.291H1244.25H1244.35V559.197V559.291V559.197H1244.44V559.104L1244.53 559.197V559.104V559.197V559.104H1244.63V559.011L1244.72 559.104V559.011H1244.81V373.24L1225.67 383.888V558.45Z" fill="#E6E8EA" stroke="#003B2F" stroke-width="3" stroke-linecap="round" stroke-linejoin="round"/><path d="M1230.43 555.555L1115.18 489.055V314.586L1230.43 381.086V555.555Z" fill="#03FC9D" stroke="#003B2F" stroke-width="3" stroke-linecap="round" stroke-linejoin="round"/><path d="M1235.19 563.961L1110.32 491.95V306.18L1235.19 378.19V563.961ZM1119.85 486.253L1225.57 547.242V383.981L1119.85 322.992V486.253Z" fill="#E6E8EA" stroke="#003B2F" stroke-width="3" stroke-linecap="round" stroke-linejoin="round"/><path d="M1197.46 438.806C1191.48 423.956 1177.75 415.083 1170.75 421.528L1169.72 422.462L1168.88 420.687C1161.87 406.304 1148.24 398.925 1142.17 406.584C1137.5 412.374 1139.27 424.703 1146.18 434.603L1168.79 467.48C1169.44 468.414 1170.28 468.881 1170.93 468.694L1193.54 461.876C1200.26 459.821 1202.13 449.827 1197.65 438.806H1197.46Z" fill="#003B2F"/><path d="M1151.32 422.368C1149.45 421.341 1147.96 418.912 1147.96 417.044V413.589C1147.96 411.721 1149.45 411.067 1151.32 412.188C1153.19 413.215 1154.68 415.643 1154.68 417.511V420.967C1154.68 422.835 1153.19 423.489 1151.32 422.368Z" fill="white"/><path d="M831.847 806.051C962.455 806.051 1068.33 744.915 1068.33 669.501C1068.33 594.087 962.455 532.952 831.847 532.952C701.239 532.952 595.361 594.087 595.361 669.501C595.361 744.915 701.239 806.051 831.847 806.051Z" fill="#03FC9D" stroke="#003B2F" stroke-width="3" stroke-linecap="round" stroke-linejoin="round"/><path d="M1068.43 672.023L1068.15 633.823L1051.89 658.947" fill="#03FC9D"/><path d="M1068.43 672.023L1068.15 633.823L1051.89 658.947" stroke="#003B2F" stroke-width="3" stroke-linecap="round" stroke-linejoin="round"/><path d="M611.986 647.74L595.267 632.329L595.361 671.369" fill="#03FC9D"/><path d="M611.986 647.74L595.267 632.329L595.361 671.369" stroke="#003B2F" stroke-width="3" stroke-linecap="round" stroke-linejoin="round"/><path d="M831.847 765.609C962.455 765.609 1068.33 704.474 1068.33 629.059C1068.33 553.645 962.455 492.51 831.847 492.51C701.239 492.51 595.361 553.645 595.361 629.059C595.361 704.474 701.239 765.609 831.847 765.609Z" fill="#E6E8EA" stroke="#003B2F" stroke-width="3" stroke-linecap="round" stroke-linejoin="round"/><path d="M831.847 751.973C949.456 751.973 1044.8 696.943 1044.8 629.06C1044.8 561.177 949.456 506.147 831.847 506.147C714.238 506.147 618.897 561.177 618.897 629.06C618.897 696.943 714.238 751.973 831.847 751.973Z" fill="#E6E8EA" stroke="#003B2F" stroke-width="3" stroke-linecap="round" stroke-linejoin="round"/><path d="M681.287 552.566C764.413 504.559 899.281 504.559 982.499 552.566C1021.73 575.262 1042.46 604.589 1044.7 634.29C1047.13 601.133 1026.4 567.416 982.499 542.105C899.374 494.098 764.506 494.098 681.287 542.105C637.39 567.416 616.655 601.133 619.084 634.29C621.232 604.589 641.967 575.262 681.287 552.566Z" fill="#003B2F"/><path d="M768.523 670.249C769.55 669.221 770.951 668.661 772.446 668.661L909.555 664.365C912.077 664.365 912.077 671.183 910.303 672.957L884.431 700.51C883.404 701.537 882.003 702.191 880.508 702.191H743.492C742.932 702.191 742.371 702.004 741.904 701.724C741.437 701.444 741.064 700.977 740.877 700.51C740.877 700.323 740.69 700.136 740.69 699.856C740.69 699.483 739.569 694.813 739.663 694.439C739.756 693.879 741.624 694.906 742.091 694.439L768.616 670.342L768.523 670.249Z" fill="#00261E"/><path d="M768.523 567.136C769.55 566.109 770.951 565.548 772.446 565.548L909.555 561.345C912.077 561.345 911.797 567.416 910.022 569.191L884.338 597.397C883.31 598.425 881.909 599.078 880.415 599.078H743.399C742.838 599.078 742.278 598.892 741.811 598.611C741.344 598.331 740.97 597.864 740.783 597.397C740.597 596.93 739.476 591.98 739.569 591.42C739.663 590.859 741.998 590.579 742.371 590.112L768.429 567.229L768.523 567.136Z" fill="#00261E"/><path d="M884.337 618.692C883.31 617.665 881.909 617.104 880.414 617.104H743.398C742.838 617.104 742.744 614.863 742.277 615.143C741.81 615.423 739.756 614.676 739.569 615.143C739.382 615.61 740.503 619.813 740.596 620.373C740.69 620.933 740.97 621.401 741.343 621.774L768.429 648.86C768.989 649.42 769.55 649.794 770.204 650.074C770.857 650.354 771.605 650.541 772.352 650.541L907.22 649.981C911.329 649.42 912.077 642.695 910.302 640.921L884.244 618.599L884.337 618.692Z" fill="#00261E"/><path d="M767.495 665.485C768.522 664.458 769.923 663.897 771.417 663.897H908.434C910.955 663.897 912.17 666.886 910.395 668.66L883.309 695.746C882.282 696.774 880.881 697.427 879.387 697.427H742.37C741.81 697.427 741.25 697.241 740.783 696.96C740.316 696.68 739.942 696.213 739.755 695.746C739.568 695.279 739.475 694.625 739.568 694.158C739.662 693.691 739.942 693.131 740.316 692.757L767.401 665.672L767.495 665.485Z" fill="#003B2F"/><path d="M767.495 562.373C768.522 561.345 769.923 560.785 771.417 560.785H908.434C910.955 560.785 912.17 563.774 910.395 565.548L883.309 592.634C882.282 593.661 880.881 594.315 879.387 594.315H742.37C741.81 594.315 741.25 594.128 740.783 593.848C740.316 593.568 739.942 593.101 739.755 592.634C739.568 592.167 739.475 591.513 739.568 591.046C739.662 590.486 739.942 590.019 740.316 589.645L767.401 562.559L767.495 562.373Z" fill="#003B2F"/><path d="M883.403 613.929C882.376 612.902 880.975 612.341 879.48 612.341H742.464C741.904 612.341 741.343 612.528 740.876 612.808C740.409 613.088 740.036 613.555 739.849 614.022C739.662 614.489 739.569 615.143 739.662 615.61C739.756 616.077 740.036 616.638 740.409 617.011L767.495 644.097C768.055 644.657 768.616 645.031 769.27 645.311C769.923 645.591 770.671 645.778 771.418 645.778H908.434C910.956 645.778 912.17 642.789 910.395 641.015L883.31 613.929H883.403Z" fill="#003B2F"/><path d="M839.555 576.663L594.383 435.35L593.949 80.6064L613.156 70.7207L858.328 212.033V576.663H858.235H858.142H858.048H857.955H857.861H857.768H857.675H857.581H857.488H857.394H857.301H857.208H857.114H857.021H856.927H856.834H856.741H856.647H856.554H856.46H856.367H856.274H856.18H856.087H855.993H855.9H855.807H855.713H855.62H855.526H855.433H855.34H855.246H855.153H855.059H854.966H854.873H854.779H854.686H854.592H854.499H854.406H854.312H854.219H854.125H854.032H853.939H853.845H853.752H853.658H853.565H853.472H853.378H853.285H853.191H853.098H853.005H852.911H852.818H852.724H852.631H852.538H852.444H852.351H852.257H852.164H852.071H851.977H851.884H851.791H851.697H851.604H851.51H851.417H851.323H851.23H851.137H851.043H850.95H850.856H850.763H850.67H850.576H850.483H850.39H850.296H850.203H850.109H850.016H849.923H849.829H849.736H849.642H849.549H849.456H849.362H849.269H849.175H849.082H848.989H848.895H848.802H848.708H848.615H848.521H848.428H848.335H848.241H848.148H848.055H847.961H847.868H847.774H847.681H847.588H847.494H847.401H847.307H847.214H847.121H847.027H846.934H846.84H846.747H846.654H846.56H846.467H846.373H846.28H846.187H846.093H846H845.906H845.813H845.72H845.626H845.533H845.439H845.346H845.253H845.159H845.066H844.972H844.879H844.786H844.692H844.599H844.505H844.412H844.319H844.225H844.132H844.038H843.945H843.852H843.758H843.665H843.571H843.478H843.385H843.291H843.198H843.104H843.011H842.918H842.824H842.731H842.637H842.544H842.451H842.357H842.264H842.17H842.077H841.984H841.89H841.797H841.703H841.61H841.517H841.423H841.33H841.236H841.143H841.05H840.956H840.863H840.769H840.676H840.583H840.489H840.396H840.302H840.209H840.116H840.022H839.929H839.835H839.742H839.649H839.555Z" fill="#E6E8EA" stroke="#003B2F" stroke-width="3" stroke-linecap="round" stroke-linejoin="round"/><path d="M820.688 575.542L839.461 586.377V586.19L839.555 586.283V586.19L839.648 586.283V586.096L839.742 586.19V586.096L839.835 586.19V586.003L839.928 586.096V586.003H840.022V585.91L840.115 586.003V585.91H840.209V585.816L840.302 585.91V585.816H840.395V585.723L840.489 585.816V585.723H840.582V585.629L840.676 585.723V585.629H840.769V585.536L840.862 585.629V585.536H840.956V585.443L841.049 585.536V585.443H841.143V585.349L841.236 585.443V585.349H841.329V585.256L841.423 585.349V585.256H841.516V585.162L841.61 585.256V585.162H841.703V585.069L841.796 585.162V585.069H841.89V584.976L841.983 585.069V584.976H842.077V584.882L842.17 584.976V584.882H842.263V584.789L842.357 584.882V584.789H842.45V584.695L842.544 584.789V584.602L842.637 584.695V584.602L842.73 584.695V584.509L842.824 584.602V584.509L842.917 584.602V584.415L843.011 584.509V584.415H843.104V584.322L843.197 584.415V584.322H843.291V584.228L843.384 584.322V584.228H843.478V584.135L843.571 584.228V584.135H843.664V584.042L843.758 584.135V584.042H843.851V583.948L843.945 584.042V583.948H844.038V583.855L844.131 583.948V583.855H844.225V583.761L844.318 583.855V583.761H844.412V583.668L844.505 583.761V583.668H844.598V583.575L844.692 583.668V583.575H844.785V583.481L844.879 583.575V583.481H844.972V583.388L845.065 583.481V583.388H845.159V583.294L845.252 583.388V583.294H845.346V583.201L845.439 583.294V583.201H845.532V583.108L845.626 583.201V583.014L845.719 583.108V583.014L845.813 583.108V582.921L845.906 583.014V582.921L845.999 583.014V582.827L846.093 582.921V582.827H846.186V582.734L846.28 582.827V582.734H846.373V582.641L846.466 582.734V582.641H846.56V582.547L846.747 582.641V582.547H846.84V582.454L846.933 582.547V582.454H847.027V582.36L847.12 582.454V582.36H847.214V582.267L847.307 582.36V582.267H847.4V582.174L847.494 582.267V582.174H847.587V582.08L847.681 582.174V582.08H847.774V581.987L847.867 582.08V581.987H847.961V581.893L848.054 581.987V581.893H848.147V581.8L848.241 581.893V581.8H848.334V581.707L848.428 581.8V581.707H848.521V581.613L848.615 581.707V581.613H848.708V581.52L848.801 581.613V581.426L848.895 581.52V581.426L848.988 581.52V581.333L849.082 581.426V581.333L849.175 581.426V581.24L849.268 581.333V581.24H849.362V581.146L849.455 581.24V581.146H849.548V581.053L849.642 581.146V581.053H849.735V580.959L849.829 581.053V580.959H849.922V580.866L850.016 580.959V580.866H850.109V580.773L850.202 580.866V580.773H850.296V580.679L850.389 580.773V580.679H850.482V580.586L850.576 580.679V580.586H850.669V580.492L850.763 580.586V580.492H850.856V580.399L850.949 580.492V580.399H851.043V580.306L851.136 580.399V580.306H851.23V580.212L851.323 580.306V580.212H851.417V580.119L851.51 580.212V580.119H851.603V580.025L851.697 580.119V580.025H851.79V579.932L851.883 580.025V579.839L851.977 579.932V579.839L852.07 579.932V579.745L852.164 579.839V579.745L852.257 579.839V579.652L852.35 579.745V579.652H852.444V579.558L852.537 579.652V579.558H852.631V579.465L852.724 579.558V579.465H852.817V579.372L852.911 579.465V579.372H853.004V579.278L853.098 579.372V579.278H853.191V579.185L853.284 579.278V579.185H853.378V579.091L853.471 579.185V579.091H853.565V578.998L853.658 579.091V578.998H853.751V578.905L853.845 578.998V578.905H853.938V578.811L854.032 578.905V578.811H854.125V578.718L854.218 578.811V578.718H854.312V578.624L854.405 578.718V578.624H854.499V578.531L854.592 578.624V578.531H854.685V578.438L854.779 578.531V578.438H854.872V578.344L854.966 578.438V578.251L855.059 578.344V578.251L855.152 578.344V578.157L855.246 578.251V578.157L855.339 578.251V578.064L855.433 578.157V578.064H855.526V577.971L855.619 578.064V577.971H855.713V577.877L855.806 577.971V577.877H855.9V577.784L855.993 577.877V577.784H856.086V577.69L856.18 577.784V577.69H856.273V577.597L856.367 577.69V577.597H856.46V577.504L856.553 577.597V577.504H856.647V577.41L856.74 577.504V577.41H856.834V577.317L856.927 577.41V577.317H857.02V577.223L857.114 577.317V577.223H857.207V577.13L857.301 577.223V577.13H857.394V577.037L857.487 577.13V577.037H857.581V576.943L857.674 577.037V576.943H857.768V576.85L857.861 576.943V576.85H857.954V576.757L858.048 576.85V576.663L858.141 576.757V576.663L858.235 576.757V576.57L858.328 576.663V212.034L820.688 232.955V575.542Z" fill="#E6E8EA" stroke="#003B2F" stroke-width="3" stroke-linecap="round" stroke-linejoin="round"/><path d="M830.122 569.845L603.723 439.367V96.7793L830.122 227.351V569.845Z" fill="#03FC9D" stroke="#003B2F" stroke-width="3" stroke-linecap="round" stroke-linejoin="round"/><path d="M839.462 586.377L594.29 445.064V80.3409L839.462 221.654V586.283V586.377ZM613.063 433.763L820.689 553.407V232.955L613.063 113.311V433.763Z" fill="#E6E8EA" stroke="#003B2F" stroke-width="3" stroke-linecap="round" stroke-linejoin="round"/><path d="M746.624 389.865V341.111C746.624 341.111 746.811 273.957 713.467 212.127C680.217 235.57 680.311 302.911 680.311 302.911V365.395C668.729 379.404 662.565 375.575 662.565 401.82V413.308L691.425 429.933L691.985 403.034L698.337 407.237V425.076C698.337 430.213 698.336 435.631 708.05 440.207C709.825 441.048 716.829 444.13 718.137 444.13C720.939 444.13 722.807 442.168 722.807 438.713V420.874L735.136 427.972V455.151L763.996 471.776V441.888C763.996 415.643 760.634 409.759 746.53 389.865H746.624Z" fill="#003B2F"/><path d="M738.871 364.367L687.875 342.045V339.896L738.871 362.219V364.367Z" fill="#03FC9D"/><path d="M710.29 298.334C708.049 297.027 705.994 296.466 704.126 296.466C699.456 296.466 696.187 300.296 696.187 306.834C696.187 315.987 702.538 327.101 710.29 331.584C712.532 332.892 714.587 333.452 716.455 333.452C721.125 333.452 724.393 329.623 724.393 323.085C724.393 313.932 718.042 302.818 710.29 298.334Z" fill="white"/><path d="M373.026 251.261L361.735 256.595L373.026 467.947L518.728 551.912V335.227L373.026 251.261Z" fill="#E6E8EA" stroke="#003B2F" stroke-width="3" stroke-linecap="round" stroke-linejoin="round"/><path d="M496.314 551.258L507.522 557.703V557.609H507.616V557.516L507.709 557.609V557.516V557.609V557.516H507.803H507.896V557.423V557.516V557.423H507.989V557.329L508.083 557.423V557.329H508.176V557.236L508.27 557.329V557.236H508.363V557.143L508.456 557.236V557.143H508.55V557.049L508.643 557.143V557.049H508.737V556.956L508.83 557.049V556.956H508.923V556.862V556.956V556.862H509.017H509.11V556.769L509.204 556.862V556.769H509.297V556.675L509.39 556.769V556.675H509.484V556.582V556.675V556.582H509.577H509.671V556.489V556.582V556.489L509.764 556.582V556.489H509.857V556.395L509.951 556.489V556.395H510.044V556.302V556.395V556.302H510.138H510.231V556.209V556.302V556.209H510.324V556.115L510.418 556.209V556.115L510.511 556.209V556.115H510.605V556.022V556.115V556.022H510.698H510.791V555.928V556.022V555.928H510.885V555.835L510.978 555.928V555.835H511.072H511.165V555.742V555.835V555.742H511.258H511.352V555.648V555.742V555.648H511.445V555.555L511.538 555.648V555.555H511.632V555.461L511.725 555.555V555.461H511.819H511.912V555.368V555.461V555.368H512.005V555.275L512.099 555.368V555.275H512.192V555.181L512.286 555.275V555.181H512.379V555.088V555.181V555.088L512.473 555.181V555.088H512.566V554.994L512.659 555.088V554.994H512.753V554.901L512.846 554.994V554.901H512.939V554.808V554.901V554.808H513.033H513.126V554.714V554.808V554.714L513.22 554.808V554.714H513.313V554.621L513.406 554.714V554.621H513.5V554.527V554.621V554.527H513.593H513.687V554.434V554.527V554.434H513.78H513.873V554.341L513.967 554.434V554.341H514.06V554.247V554.341V554.247H514.154H514.247V554.154V554.247V554.154H514.34V554.06L514.434 554.154V554.06H514.527H514.621V553.967V554.06V553.967H514.714H514.807V553.874V553.967V553.874H514.901V553.78L514.994 553.874V553.78H515.088V553.687L515.181 553.78V553.687V553.78V553.687H515.274H515.368V553.593V553.687V553.593H515.461V553.5L515.555 553.593V553.5H515.648V553.407L515.741 553.5V553.407H515.835V553.313L515.928 553.407V553.313V553.407V553.313H516.022V553.22L516.115 553.313V553.22H516.208V553.126L516.302 553.22V553.126H516.395V553.033L516.489 553.126V553.033H516.582V552.94L516.675 553.033V552.94H516.769V552.846L516.862 552.94V552.846H516.956V552.753V552.846V552.753H517.049H517.142V552.659V552.753V552.659H517.236H517.329V552.566L517.423 552.659V552.566H517.516V552.473V552.566V552.473H517.609H517.703V552.379V552.473V552.379H517.796V552.286L517.89 552.379V552.286H517.983H518.076V552.192V552.286V552.192H518.17H518.263V552.099V552.192V552.099H518.357V552.006L518.45 552.099V552.006H518.543V551.912L518.637 552.006V551.912V552.006V551.912H518.73V335.227L496.314 347.649V551.258Z" fill="#E6E8EA" stroke="#003B2F" stroke-width="3" stroke-linecap="round" stroke-linejoin="round"/><path d="M501.917 547.896L367.423 470.375V266.765L501.917 344.286V547.896Z" fill="#03FC9D" stroke="#003B2F" stroke-width="3" stroke-linecap="round" stroke-linejoin="round"/><path d="M507.521 557.703L361.818 473.737V257.052L507.521 341.017V557.703ZM372.933 467.013L496.313 538.089V347.649L372.933 276.572V467.013Z" fill="#E6E8EA" stroke="#003B2F" stroke-width="3" stroke-linecap="round" stroke-linejoin="round"/><path d="M469.134 400.606L455.124 392.48V385.008L392.36 348.77V415.456C392.36 427.972 401.046 443.196 411.693 449.36L435.884 463.277C446.531 469.441 455.217 464.211 455.217 451.695V451.322C468.48 457.299 479.408 455.992 479.408 427.505C479.408 407.704 469.694 400.793 469.321 400.513L469.134 400.606ZM455.124 445.718V398.178L468.76 406.023C469.507 406.677 474.458 411.253 474.458 424.796C474.458 447.772 467.453 451.135 455.124 445.718Z" fill="#003B2F"/><path d="M400.487 415.83C400.487 424.61 406.558 435.351 414.03 439.647L431.028 449.454C438.5 453.75 444.571 450.108 444.571 441.328V414.056L400.394 388.558V415.83H400.487Z" fill="#03FC9D"/><path d="M400.487 388.557L444.571 414.055V400.513L400.487 375.015V388.557Z" fill="white"/><path d="M807.611 116.673L792.41 123.677L807.611 408.451L1003.84 521.557V229.779L807.611 116.673Z" fill="#E6E8EA" stroke="#003B2F" stroke-width="3" stroke-linecap="round" stroke-linejoin="round"/><path d="M973.675 520.624L988.712 529.31V529.216V529.123L988.805 529.216V529.123H988.899H988.992V529.03L989.086 529.123V529.03V528.936L989.179 529.03V528.936H989.272V528.843L989.366 528.936V528.843L989.459 528.936V528.843V528.749L989.553 528.843V528.749H989.646V528.656L989.739 528.749V528.656H989.833V528.563L989.926 528.656V528.563H990.02V528.469L990.113 528.563V528.469H990.206V528.376L990.3 528.469V528.376H990.393V528.282L990.487 528.376V528.282H990.58V528.189L990.673 528.282V528.189V528.282V528.189H990.767V528.096L990.86 528.189V528.096H990.954V528.002L991.047 528.096V528.002H991.14V527.909L991.234 528.002V527.909H991.327V527.815L991.421 527.909V527.815H991.514V527.722L991.607 527.815V527.722H991.701V527.629L991.794 527.722V527.629V527.535L991.888 527.629V527.535L991.981 527.629V527.535H992.074V527.442L992.168 527.535V527.442V527.348L992.261 527.442V527.348H992.355H992.448V527.255L992.541 527.348V527.255V527.162L992.635 527.255V527.162H992.728H992.822V527.068L992.915 527.162V527.068V526.975L993.008 527.068V526.975H993.102V526.881L993.195 526.975V526.881L993.289 526.975V526.881V526.788L993.382 526.881V526.788H993.475V526.695L993.569 526.788V526.695H993.662V526.601L993.756 526.695V526.601H993.849V526.508L993.942 526.601V526.508H994.036H994.129V526.414V526.508V526.414H994.223V526.321L994.316 526.414V526.321H994.409V526.228L994.503 526.321V526.228V526.321V526.228H994.596V526.134L994.69 526.228V526.134H994.783V526.041L994.876 526.134V526.041H994.97V525.948L995.063 526.041V525.948H995.157V525.854L995.25 525.948V525.854H995.343V525.761L995.437 525.854V525.761H995.53V525.667L995.624 525.761V525.667V525.574L995.717 525.667V525.574L995.81 525.667V525.574H995.904V525.48L995.997 525.574V525.48V525.387L996.091 525.48V525.387H996.184H996.277V525.294L996.371 525.387V525.294V525.2L996.464 525.294V525.2H996.558H996.651V525.107L996.744 525.2V525.107V525.013L996.838 525.107V525.013H996.931V524.92L997.025 525.013V524.92H997.118V524.827L997.211 524.92V524.827H997.305V524.733L997.398 524.827V524.733H997.492H997.585V524.64V524.733V524.64H997.678V524.547L997.772 524.64V524.547H997.865V524.453L997.959 524.547V524.453V524.547V524.453H998.052V524.36L998.145 524.453V524.36H998.239V524.266L998.332 524.36V524.266H998.426V524.173L998.519 524.266V524.173H998.612V524.08L998.706 524.173V524.08H998.799V523.986L998.893 524.08V523.986H998.986V523.893L999.079 523.986V523.893V523.799L999.173 523.893V523.799L999.266 523.893V523.799H999.36V523.706L999.453 523.799V523.706V523.613L999.546 523.706V523.613H999.64H999.733V523.519L999.827 523.613V523.519V523.426L999.92 523.519V523.426H1000.01H1000.11V523.332L1000.2 523.426V523.332V523.239L1000.29 523.332V523.239H1000.39V523.146L1000.48 523.239V523.146L1000.57 523.239V523.146V523.052L1000.67 523.146V523.052H1000.76V522.959L1000.85 523.052V522.959H1000.95H1001.04V522.865V522.959V522.865H1001.13V522.772L1001.23 522.865V522.772H1001.32H1001.41V522.679V522.772V522.679H1001.51V522.585L1001.6 522.679V522.585H1001.69V522.492L1001.79 522.585V522.492V522.585V522.492H1001.88V522.398L1001.97 522.492V522.398H1002.07V522.305L1002.16 522.398V522.305H1002.25V522.212L1002.35 522.305V522.212H1002.44V522.118L1002.54 522.212V522.118H1002.63V522.025L1002.72 522.118V522.025H1002.82V521.931L1002.91 522.025V521.931V521.838L1003 521.931V521.838L1003.1 521.931V521.838H1003.19V521.745L1003.28 521.838V521.745V521.651L1003.38 521.745V521.651H1003.47H1003.56V521.558L1003.66 521.651V521.558V521.464L1003.75 521.558V229.779L973.675 246.498V520.624Z" fill="#E6E8EA" stroke="#003B2F" stroke-width="3" stroke-linecap="round" stroke-linejoin="round"/><path d="M981.148 516.14L800.048 411.72V137.594L981.148 242.014V516.14Z" fill="#03FC9D" stroke="#003B2F" stroke-width="3" stroke-linecap="round" stroke-linejoin="round"/><path d="M988.713 529.31L792.482 416.203V124.425L988.713 237.531V529.31ZM807.519 407.237L973.676 502.971V246.591L807.519 150.857V407.237Z" fill="#E6E8EA" stroke="#003B2F" stroke-width="3" stroke-linecap="round" stroke-linejoin="round"/><path d="M939.398 347.088C940.799 339.149 943.134 317.668 932.673 292.637C916.609 286.659 905.12 293.104 899.236 298.054C896.434 295.999 893.539 294.131 890.55 292.45C887.561 290.769 884.759 289.274 881.864 288.06C875.98 276.385 864.492 256.585 848.427 244.163C837.873 257.052 840.208 281.149 841.703 290.769C838.34 294.878 836.472 300.576 836.472 307.674C836.472 333.359 860.663 368.103 890.55 385.288C920.438 402.474 944.628 395.656 944.628 370.064C944.628 362.873 942.76 355.027 939.398 347.088Z" fill="#003B2F"/><path d="M905.868 371.185C905.868 371.185 898.397 369.504 893.353 359.604C894.754 359.417 895.595 358.203 895.595 356.148C895.595 353.066 893.446 349.423 890.925 347.929C888.309 346.434 886.255 347.648 886.255 350.731C886.255 352.505 887.002 354.56 888.123 356.241C883.173 360.818 875.701 353.906 875.327 353.626L874.953 354.84L874.58 356.054C874.58 356.054 876.354 357.642 878.689 359.043C882.145 361.004 886.909 362.592 890.458 358.856C890.458 358.856 890.551 358.856 890.644 358.95C894.194 366.795 899.05 370.811 902.413 372.773C904.841 374.174 906.522 374.547 906.522 374.547L905.775 371.278L905.868 371.185Z" fill="white"/><path d="M872.358 332.217C875.96 330.806 876.82 324.406 874.279 317.922C871.738 311.438 866.758 307.327 863.156 308.738C859.554 310.15 858.694 316.55 861.235 323.034C863.776 329.517 868.756 333.629 872.358 332.217Z" fill="white"/><path d="M921.373 351.292C921.373 357.363 917.824 360.258 913.341 357.736C908.951 355.214 905.309 348.116 905.309 342.045C905.309 335.974 908.858 333.079 913.341 335.601C917.731 338.122 921.373 345.221 921.373 351.292Z" fill="white"/><path d="M463.988 672.023L444.571 652.606L425.155 672.023L444.571 691.44L463.988 672.023Z" stroke="#003B2F" stroke-width="3" stroke-linecap="round" stroke-linejoin="round"/><path d="M1776.81 429.653H1723.58C1740.39 429.653 1754.12 417.231 1754.12 401.913C1754.12 386.596 1740.48 374.174 1723.58 374.174H1570.68C1553.87 374.174 1540.14 386.596 1540.14 401.913H1493.25C1476.44 401.913 1462.71 414.335 1462.71 429.653C1462.71 444.97 1476.35 457.392 1493.25 457.392H1593.47C1593.47 472.71 1607.11 485.132 1624.01 485.132H1776.91C1793.72 485.132 1807.45 472.71 1807.45 457.392C1807.45 442.075 1793.81 429.653 1776.91 429.653H1776.81Z" fill="#E6E8EA"/><path d="M281.403 104.064L304.006 117.047" stroke="#003B2F" stroke-width="3" stroke-linecap="round" stroke-linejoin="round"/><path d="M326.607 104.064L313.345 111.723" stroke="#003B2F" stroke-width="3" stroke-linecap="round" stroke-linejoin="round"/><path d="M304.005 117.047V143.479" stroke="#003B2F" stroke-width="3" stroke-linecap="round" stroke-linejoin="round"/><path d="M1392.43 243.695H1455.57" stroke="#003B2F" stroke-width="3" stroke-linecap="round" stroke-linejoin="round"/><path d="M1344.42 243.695H1360.3" stroke="#003B2F" stroke-width="3" stroke-linecap="round" stroke-linejoin="round"/><path d="M1344.42 714.146H1369.83" stroke="#003B2F" stroke-width="3" stroke-linecap="round" stroke-linejoin="round"/><path d="M1238.23 671.369H1421.94" stroke="#03FC9D" stroke-width="3" stroke-linecap="round" stroke-linejoin="round"/><path d="M1402.52 714.052H1505.26" stroke="#003B2F" stroke-width="3" stroke-linecap="round" stroke-linejoin="round"/><path d="M154.887 607.704H186.175" stroke="#003B2F" stroke-width="3" stroke-linecap="round" stroke-linejoin="round"/><path d="M79.769 565.049H305.795" stroke="#03FC9D" stroke-width="3" stroke-linecap="round" stroke-linejoin="round"/><path d="M226.43 607.517H352.798" stroke="#003B2F" stroke-width="3" stroke-linecap="round" stroke-linejoin="round"/><path d="M1401.58 198.21H1565.31" stroke="#03FC9D" stroke-width="3" stroke-linecap="round" stroke-linejoin="round"/><path d="M1230.43 73.1492L1245.37 88.093" stroke="#003B2F" stroke-width="3" stroke-linecap="round" stroke-linejoin="round"/><path d="M1256.3 99.0208L1271.24 113.871" stroke="#003B2F" stroke-width="3" stroke-linecap="round" stroke-linejoin="round"/><path d="M1230.43 113.871L1245.37 99.0208" stroke="#003B2F" stroke-width="3" stroke-linecap="round" stroke-linejoin="round"/><path d="M1256.3 88.093L1271.24 73.1492" stroke="#003B2F" stroke-width="3" stroke-linecap="round" stroke-linejoin="round"/><path d="M83.279 314.586H159.866C168.326 314.586 175.184 307.749 175.184 299.315C175.184 290.881 168.326 284.044 159.866 284.044H83.279C74.8194 284.044 67.9616 290.881 67.9616 299.315C67.9616 307.749 74.8194 314.586 83.279 314.586Z" fill="#03FC9D"/><path d="M124.747 291.143H250.275C264.099 291.143 275.306 279.936 275.306 266.112C275.306 252.288 264.099 241.081 250.275 241.081L124.747 241.081C110.923 241.081 99.7161 252.288 99.7161 266.112C99.7161 279.936 110.923 291.143 124.747 291.143Z" fill="#03FC9D"/><path d="M252.364 456.085C261.287 456.085 268.522 448.851 268.522 439.927C268.522 431.003 261.287 423.769 252.364 423.769C243.44 423.769 236.206 431.003 236.206 439.927C236.206 448.851 243.44 456.085 252.364 456.085Z" stroke="#003B2F" stroke-width="3" stroke-linecap="round" stroke-linejoin="round"/></g><defs><clipPath id="clip0_565_2199"><rect width="1675.05" height="857" fill="white" transform="translate(0.645996 0.446045)"/></clipPath></defs></svg>