<svg width="1920" height="1080" viewBox="0 0 1920 1080" fill="none" xmlns="http://www.w3.org/2000/svg"><path d="M723.315 954.518H753.855" stroke="#003B2F" stroke-width="3" stroke-linecap="round" stroke-linejoin="round"/><path d="M595.655 903.097H816.508" stroke="#03FC9D" stroke-width="3" stroke-linecap="round" stroke-linejoin="round"/><path d="M793.152 954.407H916.659" stroke="#003B2F" stroke-width="3" stroke-linecap="round" stroke-linejoin="round"/><path d="M671.443 359.35V297.262H628.665V501.939C632.37 452.426 646.629 403.698 671.443 359.35Z" fill="#03FC9D"/><path d="M628.665 552.799V664.064H655.836C640.454 628.473 631.359 590.748 628.665 552.799Z" fill="#03FC9D"/><path d="M649.997 658.674V699.992" stroke="#03FC9D" stroke-width="3" stroke-linecap="round" stroke-linejoin="round"/><path d="M649.997 256.956V362.606" stroke="#03FC9D" stroke-width="3" stroke-linecap="round" stroke-linejoin="round"/><path d="M1662.31 249.433H1619.53V616.122H1662.31V249.433Z" fill="#03FC9D"/><path d="M1640.86 209.014V648.682" stroke="#03FC9D" stroke-width="3" stroke-linecap="round" stroke-linejoin="round"/><path d="M1438.76 285.248H1395.98V425.929H1438.76V285.248Z" fill="#E6E8EA"/><path d="M1417.31 269.754V438.503" stroke="#E6E8EA" stroke-width="3" stroke-linecap="round" stroke-linejoin="round"/><path d="M616.987 539.663H574.208V579.97H616.987V539.663Z" fill="#E6E8EA"/><path d="M595.655 526.415V591.759" stroke="#E6E8EA" stroke-width="3" stroke-linecap="round" stroke-linejoin="round"/><path d="M343.139 765.673H300.361V826.413H343.139V765.673Z" fill="#E6E8EA"/><path d="M321.693 752.424V846.398" stroke="#E6E8EA" stroke-width="3" stroke-linecap="round" stroke-linejoin="round"/><path d="M506.73 587.38H463.952V611.407H506.73V587.38Z" fill="#E6E8EA"/><path d="M485.396 574.132V623.308" stroke="#E6E8EA" stroke-width="3" stroke-linecap="round" stroke-linejoin="round"/><path d="M1273.71 211.484H1230.93V235.511H1273.71V211.484Z" fill="#E6E8EA"/><path d="M1252.37 198.235V247.412" stroke="#E6E8EA" stroke-width="3" stroke-linecap="round" stroke-linejoin="round"/><path d="M1382.17 273.908H1339.39V297.935H1382.17V273.908Z" fill="#E6E8EA"/><path d="M1360.72 235.511V331.169" stroke="#E6E8EA" stroke-width="3" stroke-linecap="round" stroke-linejoin="round"/><path d="M1492.65 398.309H1449.87V422.336H1492.65V398.309Z" fill="#E6E8EA"/><path d="M1471.21 359.911V413.354" stroke="#E6E8EA" stroke-width="3" stroke-linecap="round" stroke-linejoin="round"/><path d="M1326.14 224.058H1283.36V279.747H1326.14V224.058Z" fill="#E6E8EA"/><path d="M1304.7 185.661V260.099" stroke="#E6E8EA" stroke-width="3" stroke-linecap="round" stroke-linejoin="round"/><path d="M560.176 544.828H517.397V619.49H560.176V544.828Z" fill="#03FC9D"/><path d="M538.729 531.579V639.475" stroke="#03FC9D" stroke-width="3" stroke-linecap="round" stroke-linejoin="round"/><path d="M1722.49 293.445H1679.71V368.108H1722.49V293.445Z" fill="#03FC9D"/><path d="M1701.15 280.308V388.092" stroke="#03FC9D" stroke-width="3" stroke-linecap="round" stroke-linejoin="round"/><path d="M284.867 796.997H242.089V871.66H284.867V796.997Z" fill="#03FC9D"/><path d="M263.421 783.749V891.645" stroke="#03FC9D" stroke-width="3" stroke-linecap="round" stroke-linejoin="round"/><path d="M1546.66 362.606H1503.88V417.508H1546.66V362.606Z" fill="#03FC9D"/><path d="M1525.21 346.213V427.051" stroke="#03FC9D" stroke-width="3" stroke-linecap="round" stroke-linejoin="round"/><path d="M1602.57 349.694H1559.79V379.11H1602.57V349.694Z" fill="#03FC9D"/><path d="M1581.13 334.2V394.492" stroke="#03FC9D" stroke-width="3" stroke-linecap="round" stroke-linejoin="round"/><path d="M1218.35 213.393H1175.58V245.054H1218.35V213.393Z" fill="#03FC9D"/><path d="M1196.91 197.001V256.955" stroke="#03FC9D" stroke-width="3" stroke-linecap="round" stroke-linejoin="round"/><path d="M453.845 593.218H411.067V729.744H453.845V593.218Z" fill="#03FC9D"/><path d="M432.513 564.363V746.249" stroke="#03FC9D" stroke-width="3" stroke-linecap="round" stroke-linejoin="round"/><path d="M398.492 701.115H355.714V837.641H398.492V701.115Z" fill="#03FC9D"/><path d="M377.049 672.372V854.145" stroke="#03FC9D" stroke-width="3" stroke-linecap="round" stroke-linejoin="round"/><path d="M1406.87 501.939L1822.19 329.597" stroke="#003B2F" stroke-width="7" stroke-linecap="round" stroke-linejoin="round"/><path d="M121.836 978.77L714.557 752.424" stroke="#003B2F" stroke-width="7" stroke-linecap="round" stroke-linejoin="round"/><path d="M1582.03 888.95H1494.11C1484.46 888.95 1476.6 896.809 1476.6 906.465C1476.6 916.12 1484.46 923.98 1494.11 923.98H1582.03C1591.68 923.98 1599.54 916.12 1599.54 906.465C1599.54 896.809 1591.68 888.95 1582.03 888.95Z" fill="#03FC9D"/><path d="M1761.45 822.371H1553.96C1531.05 822.371 1512.53 840.896 1512.53 863.801C1512.53 886.705 1531.05 905.23 1553.96 905.23H1761.45C1784.35 905.23 1802.88 886.705 1802.88 863.801C1802.88 840.896 1784.35 822.371 1761.45 822.371Z" fill="#E6E8EA"/><path d="M1727.31 899.055L1704.86 921.51L1682.4 899.055L1704.86 876.6L1727.31 899.055Z" stroke="#003B2F" stroke-width="3" stroke-linecap="round" stroke-linejoin="round"/><path d="M543.894 184.089H489.326C506.617 184.089 520.652 171.402 520.652 155.683C520.652 139.965 506.617 127.278 489.326 127.278H332.585C315.294 127.278 301.259 139.965 301.259 155.683H253.091C235.8 155.683 221.765 168.37 221.765 184.089C221.765 199.807 235.8 212.494 253.091 212.494H355.827C355.827 228.213 369.861 240.9 387.152 240.9H543.894C561.185 240.9 575.22 228.213 575.22 212.494C575.22 196.776 561.185 184.089 543.894 184.089Z" fill="#E6E8EA"/><path d="M97.8093 438.504H136.882" stroke="#003B2F" stroke-width="3" stroke-linecap="round" stroke-linejoin="round"/><path d="M237.596 401.79H428.807" stroke="#03FC9D" stroke-width="3" stroke-linecap="round" stroke-linejoin="round"/><path d="M187.407 438.391H345.833" stroke="#003B2F" stroke-width="3" stroke-linecap="round" stroke-linejoin="round"/><path d="M1768.3 136.484L1779.08 159.501" stroke="#003B2F" stroke-width="3" stroke-linecap="round" stroke-linejoin="round"/><path d="M1786.93 176.229L1797.71 199.246" stroke="#003B2F" stroke-width="3" stroke-linecap="round" stroke-linejoin="round"/><path d="M1751.68 182.517L1774.58 171.739" stroke="#003B2F" stroke-width="3" stroke-linecap="round" stroke-linejoin="round"/><path d="M1791.43 163.879L1814.33 153.101" stroke="#003B2F" stroke-width="3" stroke-linecap="round" stroke-linejoin="round"/><path d="M989.472 832.307C1156.71 832.307 1292.29 696.737 1292.29 529.502C1292.29 362.267 1156.71 226.697 989.472 226.697C822.231 226.697 686.656 362.267 686.656 529.502C686.656 696.737 822.231 832.307 989.472 832.307Z" fill="#03FC9D"/><path d="M951.299 822.764C1118.54 822.764 1254.12 687.194 1254.12 519.959C1254.12 352.724 1118.54 217.154 951.299 217.154C784.058 217.154 648.482 352.724 648.482 519.959C648.482 687.194 784.058 822.764 951.299 822.764Z" stroke="#003B2F" stroke-width="3" stroke-linecap="round" stroke-linejoin="round"/><path d="M1058.24 140.302L1048.7 160.062" stroke="#003B2F" stroke-width="3" stroke-linecap="round" stroke-linejoin="round"/><path d="M1041.74 174.433L1032.19 194.193" stroke="#003B2F" stroke-width="3" stroke-linecap="round" stroke-linejoin="round"/><path d="M1018.27 154.224L1038.03 163.767" stroke="#003B2F" stroke-width="3" stroke-linecap="round" stroke-linejoin="round"/><path d="M1052.41 170.729L1072.17 180.272" stroke="#003B2F" stroke-width="3" stroke-linecap="round" stroke-linejoin="round"/><path d="M852.999 518.541C852.58 526.172 855.201 533.658 860.289 539.36C865.376 545.063 872.516 548.518 880.145 548.969H881.803C887.44 548.967 892.952 547.314 897.659 544.214C902.366 541.114 906.061 536.703 908.288 531.525C910.516 526.348 911.177 520.632 910.191 515.082C909.205 509.533 906.614 504.395 902.74 500.302C898.865 496.209 893.876 493.341 888.389 492.052C882.902 490.763 877.158 491.111 871.866 493.051C866.575 494.992 861.968 498.44 858.615 502.97C855.261 507.5 853.309 512.914 852.999 518.541ZM745.539 511.121C743.072 510.982 740.651 511.828 738.808 513.474C736.965 515.119 735.851 517.43 735.711 519.897C735.572 522.363 736.418 524.785 738.064 526.628C739.709 528.471 742.02 529.585 744.486 529.724C745.708 529.793 746.931 529.621 748.086 529.217C749.241 528.814 750.305 528.187 751.218 527.372C752.13 526.557 752.873 525.57 753.405 524.468C753.936 523.366 754.245 522.17 754.314 520.949C754.383 519.727 754.211 518.504 753.807 517.349C753.404 516.195 752.777 515.13 751.962 514.218C751.147 513.305 750.16 512.562 749.058 512.031C747.956 511.5 746.76 511.191 745.539 511.121ZM851.162 351.242C852.252 350.687 853.222 349.923 854.017 348.993C854.812 348.063 855.416 346.985 855.794 345.822C856.173 344.658 856.318 343.432 856.223 342.212C856.127 340.992 855.792 339.803 855.237 338.713C854.682 337.622 853.918 336.652 852.988 335.857C852.057 335.062 850.98 334.459 849.816 334.08C848.653 333.702 847.426 333.556 846.207 333.652C844.987 333.747 843.798 334.082 842.708 334.637C840.554 335.785 838.937 337.731 838.205 340.059C837.472 342.386 837.682 344.908 838.79 347.082C839.898 349.256 841.815 350.908 844.129 351.682C846.443 352.457 848.968 352.311 851.162 351.242ZM880.412 402.217C882.163 401.404 883.733 400.248 885.028 398.817C886.323 397.385 887.317 395.708 887.951 393.885C888.585 392.061 888.845 390.129 888.717 388.203C888.588 386.277 888.074 384.396 887.204 382.673C886.334 380.95 885.126 379.419 883.653 378.172C882.179 376.925 880.47 375.988 878.626 375.415C876.783 374.842 874.843 374.646 872.922 374.838C871.002 375.03 869.139 375.607 867.446 376.533C864.169 378.326 861.718 381.322 860.61 384.889C859.502 388.455 859.823 392.313 861.506 395.647C863.19 398.981 866.103 401.53 869.63 402.756C873.158 403.982 877.024 403.788 880.412 402.217ZM782.013 437.282C783.314 438.178 784.782 438.805 786.329 439.126C787.876 439.447 789.472 439.456 791.023 439.152C792.574 438.848 794.048 438.236 795.359 437.354C796.67 436.472 797.792 435.337 798.659 434.016C799.525 432.694 800.119 431.213 800.405 429.659C800.69 428.104 800.663 426.509 800.323 424.965C799.984 423.422 799.339 421.962 798.428 420.671C797.516 419.38 796.356 418.285 795.015 417.448C792.385 415.809 789.218 415.263 786.192 415.929C783.165 416.595 780.519 418.419 778.82 421.01C777.121 423.602 776.504 426.756 777.101 429.797C777.697 432.837 779.46 435.524 782.013 437.282ZM799.545 505.985C797.634 505.836 795.713 506.071 793.894 506.674C792.074 507.277 790.394 508.237 788.95 509.498C787.506 510.758 786.329 512.295 785.486 514.016C784.643 515.737 784.152 517.61 784.042 519.523C783.931 521.437 784.204 523.353 784.843 525.16C785.483 526.967 786.476 528.628 787.765 530.046C789.054 531.465 790.614 532.612 792.352 533.42C794.089 534.228 795.971 534.682 797.887 534.754C801.656 534.896 805.331 533.554 808.123 531.017C810.914 528.479 812.599 524.948 812.816 521.182C813.033 517.416 811.765 513.715 809.284 510.874C806.803 508.032 803.306 506.277 799.545 505.985ZM783.636 602.69C780.826 604.104 778.693 606.577 777.706 609.564C776.72 612.551 776.96 615.807 778.374 618.617C779.789 621.427 782.261 623.56 785.248 624.547C788.235 625.533 791.492 625.293 794.302 623.879C795.693 623.178 796.933 622.211 797.95 621.031C798.967 619.852 799.742 618.484 800.231 617.005C800.72 615.526 800.912 613.965 800.797 612.412C800.683 610.858 800.263 609.343 799.563 607.951C798.863 606.56 797.895 605.32 796.716 604.303C795.536 603.286 794.168 602.511 792.689 602.022C791.21 601.533 789.649 601.341 788.096 601.456C786.543 601.57 785.027 601.99 783.636 602.69ZM839.569 476.181C841.427 477.472 843.525 478.377 845.739 478.844C847.953 479.31 850.238 479.329 852.459 478.898C854.68 478.467 856.793 477.596 858.672 476.336C860.551 475.075 862.158 473.451 863.4 471.56C864.641 469.668 865.491 467.547 865.899 465.321C866.307 463.096 866.266 460.811 865.777 458.602C865.288 456.393 864.361 454.304 863.052 452.459C861.743 450.614 860.077 449.049 858.153 447.858C854.398 445.533 849.884 444.766 845.571 445.721C841.259 446.675 837.49 449.276 835.067 452.968C832.644 456.661 831.758 461.154 832.599 465.49C833.44 469.826 835.941 473.662 839.569 476.181ZM1017.03 401.075C1018.61 402.202 1020.4 402.998 1022.3 403.416C1024.19 403.835 1026.15 403.866 1028.06 403.509C1029.96 403.152 1031.78 402.414 1033.39 401.338C1035.01 400.263 1036.39 398.873 1037.45 397.251C1038.52 395.63 1039.24 393.81 1039.59 391.901C1039.93 389.992 1039.89 388.033 1039.45 386.142C1039.02 384.25 1038.22 382.466 1037.08 380.894C1035.94 379.323 1034.5 377.997 1032.84 376.997C1029.64 375.076 1025.83 374.465 1022.2 375.293C1018.57 376.121 1015.4 378.323 1013.36 381.437C1011.31 384.551 1010.55 388.336 1011.24 391.997C1011.92 395.658 1014 398.912 1017.03 401.075ZM1046.57 350.244C1047.59 350.949 1048.74 351.442 1049.96 351.695C1051.17 351.948 1052.43 351.956 1053.65 351.717C1054.86 351.478 1056.02 350.998 1057.05 350.306C1058.08 349.613 1058.96 348.721 1059.64 347.683C1060.32 346.644 1060.79 345.48 1061.01 344.259C1061.24 343.038 1061.22 341.785 1060.95 340.573C1060.68 339.361 1060.17 338.214 1059.46 337.201C1058.74 336.188 1057.83 335.328 1056.77 334.673C1054.71 333.39 1052.22 332.965 1049.85 333.489C1047.48 334.013 1045.4 335.445 1044.07 337.478C1042.74 339.511 1042.25 341.984 1042.72 344.37C1043.19 346.755 1044.57 348.863 1046.57 350.244ZM1019.28 491.038C1011.65 490.606 1004.16 493.223 998.454 498.313C992.751 503.404 989.304 510.552 988.871 518.184C988.438 525.817 991.055 533.308 996.146 539.011C1001.24 544.714 1008.38 548.161 1016.02 548.594H1017.68C1025.21 548.642 1032.47 545.736 1037.89 540.499C1043.31 535.261 1046.46 528.109 1046.67 520.575C1046.88 513.041 1044.13 505.725 1039.01 500.194C1033.89 494.662 1026.81 491.357 1019.28 490.985V491.038Z" fill="#003B2F"/><path d="M889.883 474.184C889.888 481.826 892.928 489.154 898.335 494.556C903.741 499.958 911.072 502.991 918.715 502.988C926.357 502.986 933.686 499.948 939.09 494.543C944.493 489.138 947.528 481.809 947.528 474.166C947.528 466.523 944.493 459.193 939.09 453.788C933.686 448.383 926.357 445.346 918.715 445.343C911.072 445.341 903.741 448.374 898.335 453.776C892.928 459.178 889.888 466.505 889.883 474.148V474.184ZM1115.81 437.246C1117.24 436.563 1118.51 435.602 1119.56 434.419C1120.61 433.235 1121.41 431.854 1121.92 430.356C1122.43 428.857 1122.63 427.273 1122.52 425.695C1122.41 424.117 1121.98 422.577 1121.26 421.167C1120.54 419.757 1119.55 418.505 1118.34 417.484C1117.13 416.464 1115.73 415.695 1114.22 415.224C1112.71 414.753 1111.12 414.588 1109.55 414.741C1107.97 414.893 1106.45 415.359 1105.05 416.111C1103.66 416.817 1102.43 417.79 1101.41 418.974C1100.4 420.158 1099.63 421.53 1099.15 423.011C1098.67 424.492 1098.48 426.054 1098.6 427.608C1098.72 429.161 1099.15 430.676 1099.85 432.065C1101.28 434.87 1103.76 436.993 1106.75 437.968C1108.24 438.451 1109.8 438.638 1111.35 438.517C1112.9 438.396 1114.42 437.97 1115.81 437.264V437.246ZM1042.75 446.431C1040.71 447.396 1038.87 448.761 1037.36 450.446C1035.85 452.13 1034.69 454.101 1033.96 456.24C1033.22 458.38 1032.92 460.646 1033.07 462.903C1033.22 465.161 1033.83 467.366 1034.84 469.387C1035.86 471.407 1037.28 473.204 1039 474.669C1040.73 476.135 1042.73 477.24 1044.88 477.92C1047.04 478.6 1049.32 478.841 1051.57 478.628C1053.82 478.415 1056.01 477.753 1058 476.681C1061.89 474.589 1064.81 471.061 1066.14 466.85C1067.46 462.638 1067.09 458.075 1065.11 454.132C1063.12 450.189 1059.67 447.177 1055.49 445.739C1051.32 444.301 1046.75 444.549 1042.75 446.431ZM948.652 345.909C950.208 345.995 951.766 345.773 953.237 345.256C954.708 344.74 956.062 343.939 957.223 342.898C958.384 341.858 959.329 340.6 960.004 339.195C960.678 337.789 961.069 336.265 961.155 334.709C961.24 333.152 961.018 331.594 960.502 330.124C959.985 328.653 959.184 327.298 958.144 326.137C957.104 324.976 955.845 324.032 954.44 323.357C953.035 322.683 951.51 322.291 949.954 322.206C946.813 322.028 943.73 323.106 941.384 325.202C939.037 327.297 937.62 330.239 937.442 333.38C937.265 336.521 938.342 339.604 940.438 341.95C942.534 344.296 945.475 345.714 948.616 345.892L948.652 345.909ZM948.509 420.516C950.775 420.72 953.058 420.465 955.223 419.767C957.388 419.069 959.391 417.943 961.111 416.454C962.831 414.966 964.234 413.147 965.236 411.105C966.238 409.062 966.819 406.84 966.944 404.568C967.068 402.297 966.734 400.024 965.962 397.884C965.189 395.745 963.993 393.783 962.446 392.115C960.899 390.448 959.032 389.109 956.956 388.179C954.88 387.248 952.638 386.745 950.364 386.7C945.973 386.612 941.72 388.232 938.5 391.219C935.281 394.207 933.347 398.327 933.107 402.712C932.866 407.097 934.338 411.405 937.211 414.726C940.084 418.047 944.135 420.123 948.509 420.516ZM856.691 593.522C858.714 592.543 860.522 591.172 862.01 589.488C863.498 587.803 864.636 585.84 865.357 583.712C866.079 581.583 866.37 579.333 866.214 577.091C866.057 574.849 865.457 572.661 864.446 570.653C863.436 568.646 862.037 566.86 860.329 565.398C858.622 563.937 856.641 562.83 854.502 562.141C852.363 561.453 850.108 561.196 847.869 561.388C845.63 561.579 843.451 562.214 841.46 563.255C837.518 565.316 834.545 568.845 833.182 573.079C831.819 577.313 832.176 581.914 834.176 585.887C836.175 589.86 839.657 592.888 843.869 594.316C848.082 595.745 852.687 595.46 856.691 593.522ZM959.425 445.254C957.288 448.416 955.802 451.972 955.052 455.714C954.302 459.456 954.304 463.309 955.057 467.051C955.811 470.792 957.3 474.346 959.439 477.506C961.579 480.667 964.325 483.37 967.518 485.459C970.712 487.549 974.289 488.982 978.042 489.676C981.794 490.37 985.648 490.311 989.377 489.503C993.107 488.694 996.639 487.152 999.767 484.966C1002.89 482.78 1005.56 479.994 1007.6 476.77C1011.64 470.382 1013.01 462.659 1011.41 455.27C1009.81 447.881 1005.36 441.419 999.038 437.28C992.71 433.141 985.009 431.657 977.597 433.149C970.185 434.641 963.657 438.989 959.425 445.254ZM1009.56 565.77C1007 560.672 1002.98 556.45 998.015 553.636C993.051 550.823 987.364 549.545 981.674 549.965C975.983 550.384 970.545 552.483 966.048 555.994C961.55 559.505 958.195 564.272 956.407 569.69C954.619 575.109 954.479 580.936 956.004 586.434C957.528 591.933 960.65 596.855 964.973 600.579C969.297 604.303 974.627 606.66 980.291 607.354C985.955 608.047 991.697 607.045 996.791 604.473C1000.18 602.787 1003.21 600.443 1005.69 597.579C1008.18 594.715 1010.07 591.387 1011.25 587.787C1012.44 584.188 1012.9 580.388 1012.61 576.609C1012.32 572.83 1011.28 569.146 1009.56 565.77ZM1059.88 563.772C1058.02 562.482 1055.92 561.577 1053.7 561.11C1051.49 560.643 1049.21 560.625 1046.98 561.056C1044.76 561.486 1042.65 562.358 1040.77 563.618C1038.89 564.878 1037.29 566.502 1036.04 568.394C1034.8 570.286 1033.95 572.407 1033.54 574.632C1033.14 576.858 1033.18 579.142 1033.67 581.352C1034.16 583.561 1035.08 585.649 1036.39 587.495C1037.7 589.34 1039.37 590.904 1041.29 592.095C1045.05 594.421 1049.56 595.188 1053.87 594.233C1058.18 593.279 1061.95 590.678 1064.38 586.985C1066.8 583.293 1067.69 578.8 1066.84 574.464C1066 570.128 1063.5 566.292 1059.88 563.772ZM1115.09 520.467C1115.28 518.535 1115.08 516.584 1114.5 514.732C1113.92 512.88 1112.97 511.165 1111.7 509.69C1110.44 508.214 1108.9 507.009 1107.16 506.146C1105.42 505.284 1103.52 504.781 1101.58 504.669C1099.64 504.558 1097.7 504.839 1095.88 505.495C1094.05 506.152 1092.37 507.172 1090.95 508.492C1089.53 509.813 1088.39 511.407 1087.59 513.18C1086.8 514.953 1086.38 516.867 1086.34 518.809C1086.28 522.529 1087.66 526.131 1090.19 528.859C1092.72 531.587 1096.21 533.23 1099.92 533.444C1103.64 533.658 1107.29 532.427 1110.12 530.009C1112.95 527.59 1114.73 524.171 1115.09 520.467ZM1154.96 510.212C1153.74 510.144 1152.51 510.317 1151.36 510.722C1150.2 511.127 1149.14 511.755 1148.23 512.57C1147.32 513.386 1146.57 514.373 1146.04 515.476C1145.51 516.578 1145.21 517.774 1145.14 518.996C1145.07 520.217 1145.24 521.44 1145.65 522.595C1146.05 523.749 1146.68 524.813 1147.5 525.724C1148.31 526.636 1149.3 527.378 1150.4 527.908C1151.51 528.439 1152.7 528.747 1153.92 528.814C1156.39 528.952 1158.81 528.103 1160.65 526.456C1162.49 524.809 1163.6 522.497 1163.74 520.03C1163.88 517.564 1163.03 515.143 1161.38 513.302C1159.74 511.461 1157.42 510.349 1154.96 510.212ZM1117.43 602.654C1116.13 601.733 1114.66 601.083 1113.1 600.744C1111.54 600.405 1109.93 600.383 1108.37 600.68C1106.8 600.977 1105.31 601.587 1103.98 602.473C1102.66 603.359 1101.53 604.503 1100.65 605.836C1099.78 607.17 1099.18 608.666 1098.9 610.235C1098.62 611.804 1098.66 613.414 1099.01 614.968C1099.37 616.522 1100.03 617.989 1100.96 619.281C1101.9 620.573 1103.08 621.664 1104.45 622.487C1107.08 624.074 1110.22 624.579 1113.21 623.897C1116.2 623.215 1118.82 621.398 1120.5 618.829C1122.18 616.261 1122.8 613.14 1122.23 610.123C1121.66 607.106 1119.94 604.429 1117.43 602.654ZM852.874 689.692C851.852 689.02 850.707 688.556 849.505 688.326C848.304 688.096 847.068 688.105 845.87 688.353C844.672 688.601 843.534 689.082 842.522 689.769C841.509 690.456 840.642 691.336 839.97 692.359C839.298 693.381 838.834 694.526 838.604 695.728C838.374 696.93 838.383 698.165 838.631 699.363C838.879 700.561 839.36 701.699 840.047 702.711C840.734 703.724 841.614 704.591 842.637 705.263C844.701 706.62 847.221 707.102 849.641 706.602C852.061 706.102 854.183 704.661 855.541 702.596C856.898 700.532 857.38 698.012 856.88 695.592C856.38 693.172 854.939 691.05 852.874 689.692ZM1048.26 688.729C1047.15 689.271 1046.16 690.028 1045.34 690.958C1044.53 691.888 1043.9 692.97 1043.51 694.143C1043.12 695.316 1042.96 696.556 1043.06 697.789C1043.15 699.023 1043.48 700.225 1044.05 701.327C1044.61 702.429 1045.38 703.408 1046.33 704.207C1047.27 705.006 1048.37 705.609 1049.55 705.98C1050.73 706.352 1051.97 706.484 1053.2 706.37C1054.43 706.256 1055.63 705.898 1056.72 705.316C1058.87 704.169 1060.49 702.222 1061.22 699.895C1061.95 697.568 1061.74 695.046 1060.64 692.872C1059.53 690.698 1057.61 689.046 1055.3 688.271C1052.98 687.496 1050.46 687.661 1048.26 688.729ZM940.02 594.682C942.173 591.517 943.674 587.956 944.436 584.205C945.197 580.454 945.205 576.59 944.457 572.836C943.709 569.083 942.221 565.516 940.08 562.343C937.939 559.171 935.187 556.457 931.986 554.359C928.784 552.262 925.197 550.823 921.434 550.127C917.671 549.43 913.806 549.49 910.066 550.303C906.326 551.117 902.786 552.666 899.651 554.863C896.517 557.059 893.851 559.857 891.81 563.095C887.779 569.487 886.42 577.207 888.026 584.592C889.631 591.976 894.073 598.435 900.394 602.576C906.715 606.718 914.41 608.211 921.822 606.735C929.233 605.258 935.768 600.93 940.02 594.682ZM882.41 638.861C880.831 637.734 879.041 636.938 877.147 636.519C875.253 636.101 873.294 636.07 871.387 636.427C869.48 636.784 867.666 637.522 866.051 638.597C864.437 639.673 863.056 641.063 861.992 642.685C860.927 644.306 860.201 646.126 859.857 648.035C859.513 649.944 859.558 651.903 859.989 653.794C860.42 655.685 861.228 657.47 862.366 659.042C863.503 660.613 864.946 661.938 866.608 662.939C869.799 664.86 873.61 665.47 877.242 664.643C880.874 663.815 884.044 661.613 886.088 658.499C888.132 655.385 888.891 651.6 888.205 647.939C887.519 644.278 885.442 641.024 882.41 638.861ZM949.579 694.026C948.024 693.939 946.467 694.158 944.996 694.672C943.526 695.186 942.171 695.985 941.009 697.022C939.848 698.06 938.901 699.316 938.225 700.719C937.549 702.123 937.156 703.645 937.068 705.2C936.98 706.756 937.199 708.313 937.713 709.783C938.227 711.254 939.026 712.609 940.063 713.771C941.101 714.932 942.357 715.878 943.761 716.555C945.164 717.231 946.687 717.624 948.242 717.712C951.383 717.89 954.465 716.812 956.812 714.716C959.158 712.621 960.576 709.679 960.753 706.538C960.931 703.397 959.853 700.314 957.758 697.968C955.662 695.622 952.72 694.204 949.579 694.026ZM949.722 619.42C947.458 619.217 945.176 619.472 943.012 620.17C940.848 620.868 938.847 621.994 937.127 623.481C935.408 624.968 934.005 626.786 933.003 628.827C932.001 630.868 931.419 633.089 931.294 635.359C931.168 637.629 931.5 639.901 932.271 642.04C933.042 644.179 934.235 646.141 935.78 647.809C937.325 649.477 939.189 650.817 941.263 651.75C943.336 652.682 945.576 653.188 947.849 653.236C952.24 653.324 956.494 651.704 959.713 648.716C962.932 645.729 964.866 641.609 965.107 637.224C965.347 632.839 963.876 628.531 961.002 625.21C958.129 621.889 954.078 619.813 949.704 619.42H949.722ZM1019.01 637.719C1017.3 638.561 1015.77 639.735 1014.51 641.173C1013.25 642.611 1012.29 644.285 1011.69 646.098C1011.09 647.91 1010.85 649.824 1010.99 651.729C1011.13 653.634 1011.65 655.492 1012.52 657.195C1013.38 658.897 1014.58 660.41 1016.04 661.646C1017.49 662.882 1019.18 663.816 1021 664.394C1022.82 664.971 1024.74 665.181 1026.65 665.011C1028.55 664.841 1030.4 664.294 1032.09 663.403C1035.44 661.636 1037.95 658.623 1039.1 655.015C1040.24 651.407 1039.92 647.493 1038.2 644.12C1036.49 640.746 1033.51 638.184 1029.92 636.986C1026.33 635.789 1022.41 636.052 1019.01 637.719Z" fill="#003B2F"/><path d="M1446.84 778.247C1487.09 778.247 1519.71 745.624 1519.71 705.381C1519.71 665.138 1487.09 632.514 1446.84 632.514C1406.6 632.514 1373.97 665.138 1373.97 705.381C1373.97 745.624 1406.6 778.247 1446.84 778.247Z" fill="#03FC9D"/><path d="M1439.66 772.072C1479.9 772.072 1512.53 739.449 1512.53 699.206C1512.53 658.963 1479.9 626.339 1439.66 626.339C1399.41 626.339 1366.79 658.963 1366.79 699.206C1366.79 739.449 1399.41 772.072 1439.66 772.072Z" stroke="#003B2F" stroke-width="3" stroke-linecap="round" stroke-linejoin="round"/><path d="M1419.15 698.905C1419.06 700.523 1419.61 702.11 1420.69 703.319C1421.77 704.529 1423.28 705.261 1424.9 705.357H1425.25C1426.45 705.356 1427.62 705.006 1428.62 704.349C1429.61 703.691 1430.4 702.756 1430.87 701.658C1431.34 700.56 1431.48 699.348 1431.27 698.172C1431.06 696.995 1430.51 695.905 1429.69 695.037C1428.87 694.17 1427.81 693.562 1426.65 693.288C1425.49 693.015 1424.27 693.089 1423.15 693.5C1422.03 693.912 1421.05 694.643 1420.34 695.603C1419.63 696.564 1419.21 697.712 1419.15 698.905ZM1396.36 697.332C1395.84 697.302 1395.32 697.482 1394.93 697.83C1394.54 698.179 1394.31 698.669 1394.28 699.192C1394.25 699.715 1394.43 700.229 1394.78 700.62C1395.13 701.01 1395.62 701.247 1396.14 701.276C1396.4 701.291 1396.66 701.254 1396.9 701.169C1397.15 701.083 1397.37 700.95 1397.57 700.777C1397.76 700.605 1397.92 700.395 1398.03 700.162C1398.14 699.928 1398.21 699.674 1398.22 699.415C1398.24 699.156 1398.2 698.897 1398.11 698.652C1398.03 698.407 1397.9 698.182 1397.72 697.988C1397.55 697.795 1397.34 697.637 1397.11 697.525C1396.87 697.412 1396.62 697.346 1396.36 697.332ZM1418.76 663.432C1418.99 663.314 1419.19 663.152 1419.36 662.955C1419.53 662.757 1419.66 662.529 1419.74 662.282C1419.82 662.036 1419.85 661.775 1419.83 661.517C1419.81 661.258 1419.74 661.006 1419.62 660.775C1419.5 660.544 1419.34 660.338 1419.14 660.169C1418.95 660.001 1418.72 659.873 1418.47 659.793C1418.23 659.712 1417.97 659.682 1417.71 659.702C1417.45 659.722 1417.2 659.793 1416.96 659.911C1416.51 660.154 1416.17 660.567 1416.01 661.06C1415.85 661.554 1415.9 662.089 1416.13 662.549C1416.37 663.01 1416.78 663.361 1417.27 663.525C1417.76 663.689 1418.29 663.658 1418.76 663.432ZM1424.96 674.24C1425.33 674.068 1425.66 673.823 1425.94 673.519C1426.21 673.216 1426.42 672.86 1426.56 672.473C1426.69 672.087 1426.75 671.677 1426.72 671.269C1426.69 670.86 1426.58 670.461 1426.4 670.096C1426.21 669.731 1425.96 669.406 1425.65 669.142C1425.33 668.877 1424.97 668.679 1424.58 668.557C1424.19 668.436 1423.78 668.394 1423.37 668.435C1422.96 668.476 1422.57 668.598 1422.21 668.794C1421.52 669.174 1421 669.81 1420.76 670.566C1420.53 671.322 1420.59 672.14 1420.95 672.847C1421.31 673.554 1421.93 674.094 1422.67 674.354C1423.42 674.614 1424.24 674.573 1424.96 674.24ZM1404.09 681.675C1404.37 681.865 1404.68 681.998 1405.01 682.066C1405.34 682.134 1405.68 682.136 1406.01 682.072C1406.33 682.007 1406.65 681.877 1406.92 681.69C1407.2 681.503 1407.44 681.263 1407.62 680.983C1407.81 680.702 1407.93 680.388 1407.99 680.059C1408.06 679.729 1408.05 679.391 1407.98 679.064C1407.91 678.736 1407.77 678.427 1407.58 678.153C1407.38 677.879 1407.14 677.647 1406.85 677.47C1406.29 677.122 1405.62 677.006 1404.98 677.148C1404.34 677.289 1403.78 677.675 1403.42 678.225C1403.06 678.774 1402.93 679.443 1403.05 680.088C1403.18 680.733 1403.55 681.302 1404.09 681.675ZM1407.81 696.243C1407.41 696.211 1407 696.261 1406.61 696.389C1406.23 696.517 1405.87 696.72 1405.57 696.987C1405.26 697.255 1405.01 697.58 1404.83 697.945C1404.65 698.31 1404.55 698.707 1404.53 699.113C1404.5 699.519 1404.56 699.925 1404.7 700.308C1404.83 700.691 1405.04 701.044 1405.31 701.344C1405.59 701.645 1405.92 701.888 1406.29 702.06C1406.66 702.231 1407.05 702.327 1407.46 702.343C1408.26 702.373 1409.04 702.088 1409.63 701.55C1410.22 701.012 1410.58 700.263 1410.63 699.465C1410.67 698.666 1410.4 697.882 1409.88 697.279C1409.35 696.677 1408.61 696.304 1407.81 696.243ZM1404.44 716.747C1403.84 717.047 1403.39 717.572 1403.18 718.205C1402.97 718.838 1403.02 719.529 1403.32 720.125C1403.62 720.72 1404.15 721.173 1404.78 721.382C1405.41 721.591 1406.1 721.54 1406.7 721.24C1407 721.092 1407.26 720.887 1407.47 720.637C1407.69 720.386 1407.85 720.096 1407.96 719.783C1408.06 719.469 1408.1 719.138 1408.08 718.809C1408.05 718.479 1407.96 718.158 1407.82 717.863C1407.67 717.568 1407.46 717.305 1407.21 717.09C1406.96 716.874 1406.67 716.709 1406.36 716.606C1406.05 716.502 1405.71 716.461 1405.38 716.486C1405.06 716.51 1404.73 716.599 1404.44 716.747ZM1416.3 689.923C1416.69 690.197 1417.14 690.389 1417.61 690.488C1418.08 690.587 1418.56 690.591 1419.03 690.499C1419.5 690.408 1419.95 690.223 1420.35 689.956C1420.75 689.689 1421.09 689.344 1421.35 688.943C1421.62 688.542 1421.8 688.092 1421.88 687.62C1421.97 687.149 1421.96 686.664 1421.86 686.196C1421.75 685.727 1421.56 685.284 1421.28 684.893C1421 684.502 1420.65 684.17 1420.24 683.918C1419.44 683.425 1418.49 683.262 1417.57 683.464C1416.66 683.667 1415.86 684.218 1415.34 685.001C1414.83 685.784 1414.64 686.737 1414.82 687.656C1415 688.576 1415.53 689.389 1416.3 689.923ZM1453.93 673.998C1454.26 674.237 1454.64 674.406 1455.04 674.494C1455.45 674.583 1455.86 674.59 1456.27 674.514C1456.67 674.438 1457.05 674.282 1457.4 674.054C1457.74 673.826 1458.03 673.531 1458.26 673.187C1458.48 672.843 1458.64 672.457 1458.71 672.053C1458.78 671.648 1458.77 671.233 1458.68 670.832C1458.59 670.431 1458.42 670.052 1458.18 669.719C1457.94 669.386 1457.63 669.105 1457.28 668.893C1456.6 668.485 1455.79 668.356 1455.02 668.531C1454.25 668.707 1453.58 669.174 1453.15 669.834C1452.71 670.494 1452.55 671.297 1452.7 672.073C1452.84 672.849 1453.28 673.539 1453.93 673.998ZM1460.19 663.22C1460.41 663.369 1460.65 663.474 1460.91 663.528C1461.17 663.581 1461.43 663.583 1461.69 663.532C1461.95 663.482 1462.19 663.38 1462.41 663.233C1462.63 663.086 1462.82 662.897 1462.96 662.677C1463.11 662.457 1463.21 662.21 1463.25 661.951C1463.3 661.692 1463.3 661.426 1463.24 661.169C1463.18 660.912 1463.07 660.669 1462.92 660.454C1462.77 660.24 1462.58 660.057 1462.35 659.918C1461.92 659.646 1461.39 659.556 1460.89 659.667C1460.38 659.778 1459.94 660.082 1459.66 660.513C1459.38 660.944 1459.28 661.469 1459.37 661.974C1459.47 662.48 1459.77 662.927 1460.19 663.22ZM1454.4 693.073C1452.79 692.982 1451.2 693.536 1449.99 694.616C1448.78 695.695 1448.05 697.211 1447.96 698.829C1447.86 700.448 1448.42 702.036 1449.5 703.245C1450.58 704.455 1452.09 705.185 1453.71 705.277H1454.06C1455.66 705.287 1457.2 704.671 1458.35 703.561C1459.5 702.45 1460.17 700.934 1460.21 699.336C1460.26 697.739 1459.67 696.187 1458.59 695.015C1457.5 693.842 1456 693.141 1454.4 693.062V693.073Z" fill="#003B2F"/><path d="M1426.97 689.5C1426.97 691.12 1427.61 692.674 1428.76 693.819C1429.91 694.965 1431.46 695.608 1433.08 695.607C1434.7 695.607 1436.26 694.963 1437.4 693.817C1438.55 692.67 1439.19 691.116 1439.19 689.496C1439.19 687.875 1438.55 686.321 1437.4 685.175C1436.26 684.029 1434.7 683.385 1433.08 683.384C1431.46 683.384 1429.91 684.027 1428.76 685.172C1427.61 686.318 1426.97 687.872 1426.97 689.492V689.5ZM1474.87 681.667C1475.17 681.523 1475.44 681.319 1475.67 681.068C1475.89 680.817 1476.06 680.524 1476.17 680.206C1476.28 679.889 1476.32 679.553 1476.29 679.218C1476.27 678.884 1476.18 678.557 1476.03 678.258C1475.88 677.959 1475.67 677.694 1475.41 677.477C1475.15 677.261 1474.86 677.098 1474.54 676.998C1474.21 676.898 1473.88 676.863 1473.54 676.896C1473.21 676.928 1472.89 677.027 1472.59 677.186C1472.3 677.336 1472.03 677.542 1471.82 677.793C1471.6 678.044 1471.44 678.335 1471.34 678.649C1471.24 678.963 1471.2 679.294 1471.22 679.624C1471.25 679.953 1471.34 680.274 1471.49 680.569C1471.79 681.164 1472.32 681.614 1472.95 681.821C1473.27 681.923 1473.6 681.963 1473.93 681.937C1474.26 681.911 1474.58 681.821 1474.87 681.671V681.667ZM1459.38 683.615C1458.95 683.82 1458.56 684.109 1458.24 684.466C1457.92 684.823 1457.67 685.241 1457.52 685.695C1457.36 686.149 1457.3 686.629 1457.33 687.108C1457.36 687.587 1457.49 688.054 1457.7 688.482C1457.92 688.911 1458.22 689.292 1458.59 689.603C1458.95 689.913 1459.38 690.148 1459.83 690.292C1460.29 690.436 1460.77 690.487 1461.25 690.442C1461.73 690.397 1462.19 690.256 1462.61 690.029C1463.44 689.585 1464.06 688.838 1464.34 687.944C1464.62 687.051 1464.54 686.084 1464.12 685.248C1463.7 684.412 1462.97 683.773 1462.08 683.468C1461.2 683.163 1460.23 683.216 1459.38 683.615ZM1439.43 662.301C1439.76 662.319 1440.09 662.272 1440.4 662.162C1440.71 662.053 1441 661.883 1441.25 661.662C1441.49 661.442 1441.69 661.175 1441.84 660.877C1441.98 660.579 1442.06 660.256 1442.08 659.926C1442.1 659.596 1442.05 659.266 1441.94 658.954C1441.83 658.642 1441.66 658.355 1441.44 658.109C1441.22 657.862 1440.95 657.662 1440.66 657.519C1440.36 657.376 1440.03 657.293 1439.7 657.275C1439.04 657.237 1438.38 657.466 1437.89 657.91C1437.39 658.354 1437.09 658.978 1437.05 659.644C1437.01 660.31 1437.24 660.964 1437.69 661.461C1438.13 661.959 1438.75 662.259 1439.42 662.297L1439.43 662.301ZM1439.4 678.12C1439.88 678.163 1440.36 678.109 1440.82 677.961C1441.28 677.813 1441.71 677.574 1442.07 677.259C1442.43 676.943 1442.73 676.558 1442.94 676.125C1443.16 675.692 1443.28 675.22 1443.31 674.739C1443.33 674.257 1443.26 673.775 1443.1 673.321C1442.93 672.868 1442.68 672.452 1442.35 672.098C1442.03 671.745 1441.63 671.461 1441.19 671.263C1440.75 671.066 1440.27 670.96 1439.79 670.95C1438.86 670.931 1437.96 671.275 1437.28 671.908C1436.59 672.542 1436.18 673.415 1436.13 674.345C1436.08 675.275 1436.39 676.188 1437 676.892C1437.61 677.597 1438.47 678.037 1439.4 678.12ZM1419.93 714.804C1420.36 714.596 1420.74 714.305 1421.06 713.948C1421.37 713.591 1421.61 713.175 1421.77 712.723C1421.92 712.272 1421.98 711.795 1421.95 711.32C1421.92 710.844 1421.79 710.38 1421.57 709.955C1421.36 709.529 1421.06 709.15 1420.7 708.84C1420.34 708.53 1419.92 708.296 1419.47 708.15C1419.01 708.004 1418.53 707.949 1418.06 707.99C1417.58 708.03 1417.12 708.165 1416.7 708.386C1415.86 708.823 1415.23 709.571 1414.94 710.469C1414.66 711.367 1414.73 712.342 1415.16 713.185C1415.58 714.027 1416.32 714.669 1417.21 714.972C1418.1 715.275 1419.08 715.214 1419.93 714.804ZM1441.71 683.366C1441.26 684.036 1440.94 684.79 1440.79 685.583C1440.63 686.377 1440.63 687.194 1440.79 687.987C1440.95 688.78 1441.26 689.534 1441.72 690.204C1442.17 690.874 1442.75 691.447 1443.43 691.89C1444.11 692.333 1444.86 692.637 1445.66 692.785C1446.46 692.932 1447.27 692.919 1448.06 692.748C1448.85 692.576 1449.6 692.249 1450.27 691.786C1450.93 691.322 1451.49 690.732 1451.93 690.048C1452.78 688.694 1453.08 687.056 1452.74 685.489C1452.4 683.923 1451.45 682.552 1450.11 681.675C1448.77 680.797 1447.14 680.482 1445.57 680.799C1443.99 681.115 1442.61 682.037 1441.71 683.366ZM1452.34 708.919C1451.8 707.838 1450.95 706.943 1449.9 706.346C1448.84 705.75 1447.64 705.479 1446.43 705.568C1445.22 705.657 1444.07 706.102 1443.12 706.846C1442.16 707.591 1441.45 708.601 1441.07 709.75C1440.69 710.899 1440.66 712.135 1440.99 713.301C1441.31 714.467 1441.97 715.51 1442.89 716.3C1443.81 717.089 1444.94 717.589 1446.14 717.736C1447.34 717.883 1448.56 717.671 1449.64 717.126C1450.36 716.768 1451 716.271 1451.52 715.664C1452.05 715.056 1452.45 714.351 1452.7 713.588C1452.95 712.824 1453.05 712.019 1452.99 711.217C1452.93 710.416 1452.71 709.635 1452.34 708.919ZM1463.01 708.496C1462.62 708.222 1462.17 708.03 1461.7 707.931C1461.23 707.832 1460.75 707.828 1460.28 707.92C1459.81 708.011 1459.36 708.196 1458.96 708.463C1458.56 708.73 1458.22 709.074 1457.96 709.476C1457.7 709.877 1457.52 710.326 1457.43 710.798C1457.34 711.27 1457.35 711.755 1457.45 712.223C1457.56 712.691 1457.75 713.134 1458.03 713.526C1458.31 713.917 1458.66 714.248 1459.07 714.501C1459.87 714.994 1460.82 715.157 1461.74 714.954C1462.65 714.752 1463.45 714.201 1463.97 713.418C1464.48 712.635 1464.67 711.682 1464.49 710.763C1464.31 709.843 1463.78 709.03 1463.01 708.496ZM1474.72 699.313C1474.76 698.904 1474.72 698.49 1474.59 698.097C1474.47 697.705 1474.27 697.341 1474 697.028C1473.73 696.715 1473.41 696.46 1473.04 696.277C1472.67 696.094 1472.27 695.987 1471.86 695.964C1471.44 695.94 1471.03 695.999 1470.65 696.139C1470.26 696.278 1469.9 696.494 1469.6 696.774C1469.3 697.054 1469.06 697.392 1468.89 697.768C1468.72 698.144 1468.63 698.55 1468.62 698.962C1468.61 699.751 1468.9 700.514 1469.44 701.093C1469.98 701.671 1470.72 702.019 1471.5 702.065C1472.29 702.11 1473.07 701.849 1473.67 701.336C1474.26 700.824 1474.64 700.099 1474.72 699.313ZM1483.17 697.139C1482.91 697.124 1482.65 697.161 1482.41 697.247C1482.16 697.333 1481.94 697.466 1481.75 697.639C1481.55 697.812 1481.4 698.021 1481.28 698.255C1481.17 698.489 1481.1 698.742 1481.09 699.001C1481.08 699.26 1481.11 699.52 1481.2 699.764C1481.28 700.009 1481.42 700.235 1481.59 700.428C1481.76 700.621 1481.97 700.779 1482.21 700.891C1482.44 701.004 1482.69 701.069 1482.95 701.083C1483.48 701.112 1483.99 700.932 1484.38 700.583C1484.77 700.234 1485.01 699.744 1485.03 699.221C1485.06 698.698 1484.88 698.184 1484.53 697.794C1484.19 697.404 1483.7 697.168 1483.17 697.139ZM1475.22 716.74C1474.94 716.545 1474.63 716.407 1474.3 716.335C1473.97 716.263 1473.63 716.258 1473.29 716.321C1472.96 716.384 1472.65 716.514 1472.36 716.701C1472.08 716.889 1471.84 717.132 1471.66 717.415C1471.47 717.697 1471.35 718.015 1471.29 718.347C1471.23 718.68 1471.23 719.021 1471.31 719.351C1471.38 719.68 1471.53 719.992 1471.72 720.265C1471.92 720.539 1472.17 720.771 1472.46 720.945C1473.02 721.282 1473.69 721.389 1474.32 721.244C1474.96 721.099 1475.51 720.714 1475.87 720.17C1476.22 719.625 1476.35 718.963 1476.23 718.324C1476.11 717.684 1475.75 717.116 1475.22 716.74ZM1419.12 735.195C1418.9 735.053 1418.66 734.954 1418.41 734.905C1418.15 734.857 1417.89 734.859 1417.63 734.911C1417.38 734.964 1417.14 735.066 1416.93 735.211C1416.71 735.357 1416.53 735.544 1416.38 735.76C1416.24 735.977 1416.14 736.22 1416.09 736.475C1416.05 736.73 1416.05 736.992 1416.1 737.246C1416.15 737.5 1416.25 737.741 1416.4 737.956C1416.55 738.17 1416.73 738.354 1416.95 738.497C1417.39 738.784 1417.92 738.887 1418.43 738.781C1418.95 738.675 1419.4 738.369 1419.69 737.931C1419.97 737.493 1420.08 736.959 1419.97 736.446C1419.86 735.933 1419.56 735.483 1419.12 735.195ZM1460.55 734.991C1460.31 735.106 1460.1 735.266 1459.93 735.463C1459.76 735.661 1459.63 735.89 1459.54 736.139C1459.46 736.388 1459.43 736.65 1459.45 736.912C1459.46 737.173 1459.54 737.428 1459.66 737.662C1459.77 737.896 1459.94 738.103 1460.14 738.273C1460.34 738.442 1460.57 738.57 1460.82 738.649C1461.07 738.727 1461.33 738.756 1461.6 738.731C1461.86 738.707 1462.11 738.631 1462.34 738.508C1462.8 738.265 1463.14 737.852 1463.3 737.358C1463.45 736.865 1463.41 736.33 1463.17 735.869C1462.94 735.408 1462.53 735.058 1462.04 734.894C1461.55 734.729 1461.01 734.764 1460.55 734.991ZM1437.6 715.049C1438.05 714.378 1438.37 713.623 1438.53 712.828C1438.7 712.033 1438.7 711.213 1438.54 710.417C1438.38 709.622 1438.06 708.865 1437.61 708.193C1437.16 707.52 1436.57 706.944 1435.89 706.5C1435.22 706.055 1434.46 705.75 1433.66 705.602C1432.86 705.455 1432.04 705.467 1431.25 705.64C1430.45 705.812 1429.7 706.141 1429.04 706.606C1428.37 707.072 1427.81 707.665 1427.38 708.352C1426.52 709.707 1426.23 711.344 1426.57 712.91C1426.91 714.476 1427.86 715.845 1429.2 716.723C1430.54 717.602 1432.17 717.918 1433.74 717.605C1435.31 717.292 1436.7 716.374 1437.6 715.049ZM1425.38 724.417C1425.05 724.178 1424.67 724.009 1424.27 723.921C1423.87 723.832 1423.45 723.825 1423.05 723.901C1422.64 723.977 1422.26 724.133 1421.91 724.361C1421.57 724.589 1421.28 724.884 1421.05 725.228C1420.83 725.572 1420.67 725.957 1420.6 726.362C1420.53 726.767 1420.54 727.182 1420.63 727.583C1420.72 727.984 1420.89 728.363 1421.13 728.696C1421.37 729.029 1421.68 729.31 1422.03 729.522C1422.71 729.93 1423.52 730.059 1424.29 729.884C1425.06 729.708 1425.73 729.241 1426.16 728.581C1426.6 727.921 1426.76 727.118 1426.61 726.342C1426.47 725.566 1426.03 724.876 1425.38 724.417ZM1439.63 736.114C1439.3 736.095 1438.97 736.142 1438.65 736.251C1438.34 736.36 1438.05 736.529 1437.81 736.749C1437.56 736.969 1437.36 737.236 1437.22 737.533C1437.07 737.831 1436.99 738.154 1436.97 738.483C1436.95 738.813 1437 739.143 1437.11 739.455C1437.22 739.767 1437.39 740.054 1437.61 740.3C1437.83 740.547 1438.09 740.747 1438.39 740.891C1438.69 741.034 1439.01 741.118 1439.34 741.136C1440.01 741.174 1440.66 740.945 1441.16 740.501C1441.66 740.057 1441.96 739.433 1441.99 738.767C1442.03 738.101 1441.8 737.447 1441.36 736.95C1440.91 736.452 1440.29 736.152 1439.63 736.114ZM1439.66 720.295C1439.18 720.252 1438.69 720.306 1438.23 720.454C1437.77 720.602 1437.35 720.841 1436.98 721.156C1436.62 721.471 1436.32 721.857 1436.11 722.289C1435.9 722.722 1435.77 723.193 1435.75 723.675C1435.72 724.156 1435.79 724.638 1435.96 725.091C1436.12 725.545 1436.37 725.961 1436.7 726.314C1437.03 726.668 1437.42 726.952 1437.86 727.15C1438.3 727.348 1438.78 727.455 1439.26 727.465C1440.19 727.484 1441.09 727.14 1441.77 726.507C1442.46 725.873 1442.87 725 1442.92 724.07C1442.97 723.14 1442.66 722.227 1442.05 721.523C1441.44 720.818 1440.58 720.378 1439.65 720.295H1439.66ZM1454.35 724.175C1453.98 724.353 1453.66 724.602 1453.39 724.907C1453.13 725.212 1452.92 725.567 1452.79 725.951C1452.67 726.336 1452.62 726.742 1452.65 727.146C1452.68 727.549 1452.79 727.943 1452.97 728.304C1453.15 728.665 1453.41 728.986 1453.72 729.248C1454.03 729.51 1454.38 729.708 1454.77 729.831C1455.16 729.953 1455.56 729.998 1455.97 729.962C1456.37 729.926 1456.76 729.81 1457.12 729.621C1457.83 729.246 1458.36 728.607 1458.61 727.842C1458.85 727.077 1458.78 726.247 1458.42 725.532C1458.05 724.817 1457.42 724.273 1456.66 724.02C1455.9 723.766 1455.07 723.821 1454.35 724.175Z" fill="#003B2F"/><path d="M396.909 472.159C444.255 472.159 482.636 433.779 482.636 386.434C482.636 339.09 444.255 300.71 396.909 300.71C349.562 300.71 311.181 339.09 311.181 386.434C311.181 433.779 349.562 472.159 396.909 472.159Z" fill="#03FC9D"/><path d="M388.456 464.894C435.802 464.894 474.184 426.514 474.184 379.17C474.184 331.825 435.802 293.445 388.456 293.445C341.11 293.445 302.728 331.825 302.728 379.17C302.728 426.514 341.11 464.894 388.456 464.894Z" stroke="#003B2F" stroke-width="3" stroke-linecap="round" stroke-linejoin="round"/><path d="M364.327 378.816C364.223 380.719 364.877 382.587 366.146 384.009C367.415 385.432 369.196 386.294 371.099 386.406H371.513C372.919 386.406 374.294 385.993 375.468 385.22C376.642 384.447 377.564 383.346 378.119 382.055C378.675 380.763 378.84 379.337 378.594 377.953C378.348 376.569 377.702 375.287 376.735 374.266C375.769 373.245 374.524 372.53 373.155 372.208C371.787 371.887 370.354 371.973 369.034 372.457C367.714 372.941 366.565 373.802 365.728 374.932C364.892 376.062 364.405 377.412 364.327 378.816ZM337.521 376.965C336.906 376.93 336.302 377.141 335.842 377.552C335.382 377.962 335.104 378.539 335.07 379.154C335.035 379.769 335.246 380.373 335.656 380.833C336.067 381.293 336.643 381.571 337.259 381.605C337.563 381.623 337.868 381.58 338.156 381.479C338.445 381.378 338.71 381.222 338.938 381.019C339.165 380.815 339.351 380.569 339.483 380.294C339.616 380.02 339.693 379.721 339.71 379.416C339.727 379.112 339.684 378.807 339.584 378.519C339.483 378.23 339.327 377.965 339.123 377.737C338.92 377.51 338.674 377.324 338.399 377.192C338.124 377.059 337.826 376.982 337.521 376.965ZM363.869 337.083C364.141 336.944 364.383 336.754 364.581 336.522C364.78 336.29 364.93 336.021 365.025 335.731C365.119 335.44 365.155 335.134 365.131 334.83C365.108 334.526 365.024 334.229 364.886 333.957C364.747 333.685 364.556 333.443 364.324 333.245C364.092 333.047 363.824 332.896 363.533 332.802C363.243 332.707 362.937 332.671 362.633 332.695C362.329 332.719 362.032 332.802 361.76 332.941C361.223 333.227 360.82 333.712 360.637 334.293C360.454 334.874 360.507 335.503 360.783 336.045C361.059 336.587 361.537 336.999 362.115 337.193C362.692 337.386 363.322 337.349 363.869 337.083ZM371.166 349.798C371.602 349.596 371.994 349.307 372.317 348.95C372.64 348.593 372.888 348.175 373.046 347.72C373.204 347.265 373.269 346.783 373.237 346.303C373.205 345.822 373.077 345.353 372.86 344.923C372.643 344.493 372.341 344.112 371.974 343.801C371.606 343.489 371.18 343.256 370.72 343.113C370.26 342.97 369.776 342.921 369.297 342.969C368.818 343.017 368.353 343.161 367.931 343.392C367.114 343.839 366.502 344.586 366.226 345.476C365.949 346.366 366.03 347.328 366.449 348.16C366.869 348.991 367.596 349.627 368.476 349.933C369.356 350.239 370.32 350.191 371.166 349.798ZM346.62 358.546C346.944 358.769 347.31 358.926 347.696 359.006C348.082 359.086 348.48 359.088 348.867 359.012C349.254 358.936 349.622 358.784 349.949 358.564C350.276 358.344 350.556 358.06 350.772 357.731C350.988 357.401 351.136 357.032 351.207 356.644C351.279 356.256 351.272 355.858 351.187 355.473C351.103 355.088 350.942 354.724 350.714 354.402C350.487 354.08 350.198 353.807 349.863 353.598C349.207 353.189 348.417 353.053 347.662 353.219C346.907 353.385 346.247 353.84 345.823 354.487C345.399 355.133 345.245 355.92 345.394 356.678C345.543 357.437 345.983 358.107 346.62 358.546ZM350.993 375.684C350.516 375.647 350.037 375.705 349.583 375.856C349.129 376.006 348.71 376.245 348.35 376.56C347.99 376.874 347.696 377.258 347.486 377.687C347.276 378.116 347.153 378.583 347.126 379.061C347.098 379.538 347.166 380.016 347.326 380.467C347.485 380.918 347.733 381.332 348.055 381.686C348.376 382.04 348.765 382.326 349.199 382.527C349.632 382.729 350.102 382.842 350.579 382.86C351.52 382.896 352.436 382.561 353.133 381.928C353.829 381.295 354.249 380.414 354.304 379.475C354.358 378.535 354.041 377.612 353.422 376.903C352.803 376.194 351.931 375.757 350.993 375.684ZM347.024 399.807C346.324 400.16 345.791 400.777 345.545 401.522C345.299 402.267 345.359 403.079 345.712 403.78C346.065 404.481 346.682 405.013 347.427 405.259C348.172 405.505 348.984 405.445 349.685 405.093C350.032 404.918 350.341 404.676 350.595 404.382C350.849 404.088 351.042 403.747 351.164 403.378C351.286 403.009 351.334 402.62 351.305 402.232C351.277 401.845 351.172 401.467 350.998 401.119C350.823 400.772 350.581 400.463 350.287 400.209C349.993 399.956 349.652 399.762 349.283 399.64C348.914 399.518 348.525 399.47 348.137 399.499C347.75 399.528 347.372 399.632 347.024 399.807ZM360.977 368.249C361.441 368.571 361.964 368.797 362.516 368.913C363.068 369.03 363.638 369.034 364.193 368.927C364.747 368.819 365.274 368.602 365.742 368.288C366.211 367.973 366.612 367.568 366.922 367.096C367.231 366.624 367.443 366.095 367.545 365.54C367.647 364.985 367.637 364.415 367.515 363.864C367.393 363.313 367.162 362.792 366.835 362.332C366.508 361.871 366.093 361.481 365.613 361.184C364.676 360.604 363.55 360.412 362.474 360.651C361.399 360.889 360.458 361.537 359.854 362.459C359.25 363.38 359.029 364.501 359.238 365.582C359.448 366.664 360.072 367.621 360.977 368.249ZM405.246 349.514C405.64 349.795 406.087 349.993 406.559 350.098C407.032 350.202 407.52 350.21 407.996 350.121C408.471 350.032 408.924 349.848 409.327 349.579C409.73 349.311 410.074 348.964 410.34 348.56C410.605 348.155 410.786 347.701 410.872 347.225C410.958 346.749 410.947 346.26 410.839 345.789C410.732 345.317 410.53 344.872 410.246 344.48C409.962 344.088 409.603 343.757 409.188 343.507C408.392 343.028 407.441 342.876 406.535 343.082C405.629 343.289 404.838 343.838 404.329 344.615C403.819 345.392 403.63 346.336 403.801 347.249C403.972 348.162 404.49 348.974 405.246 349.514ZM412.614 336.834C412.869 337.009 413.156 337.133 413.459 337.196C413.763 337.259 414.075 337.261 414.379 337.201C414.683 337.142 414.972 337.022 415.229 336.849C415.486 336.676 415.706 336.454 415.875 336.195C416.045 335.936 416.161 335.645 416.217 335.341C416.273 335.036 416.267 334.724 416.201 334.421C416.134 334.119 416.007 333.833 415.828 333.58C415.649 333.327 415.422 333.113 415.159 332.95C414.644 332.629 414.024 332.523 413.432 332.654C412.84 332.785 412.322 333.142 411.99 333.649C411.658 334.156 411.537 334.773 411.654 335.368C411.77 335.963 412.115 336.489 412.614 336.834ZM405.807 371.955C403.903 371.847 402.034 372.5 400.611 373.77C399.189 375.04 398.329 376.823 398.221 378.727C398.113 380.631 398.766 382.5 400.036 383.922C401.306 385.345 403.089 386.205 404.992 386.313H405.406C407.286 386.325 409.096 385.6 410.448 384.293C411.8 382.987 412.587 381.203 412.639 379.323C412.691 377.444 412.006 375.619 410.728 374.239C409.451 372.859 407.684 372.035 405.807 371.942V371.955Z" fill="#003B2F"/><path d="M373.528 367.751C373.529 369.657 374.288 371.485 375.636 372.833C376.985 374.18 378.814 374.937 380.72 374.936C382.627 374.936 384.455 374.178 385.803 372.83C387.151 371.481 387.908 369.653 387.908 367.746C387.908 365.84 387.151 364.011 385.803 362.663C384.455 361.315 382.627 360.557 380.72 360.557C378.814 360.556 376.985 361.313 375.636 362.66C374.288 364.007 373.529 365.835 373.528 367.742V367.751ZM429.885 358.537C430.241 358.366 430.56 358.126 430.822 357.831C431.084 357.536 431.284 357.192 431.411 356.818C431.537 356.444 431.588 356.049 431.56 355.655C431.531 355.261 431.425 354.877 431.246 354.526C431.067 354.174 430.819 353.862 430.518 353.607C430.216 353.352 429.867 353.161 429.49 353.043C429.113 352.926 428.717 352.885 428.324 352.923C427.931 352.961 427.55 353.077 427.203 353.264C426.856 353.441 426.548 353.683 426.295 353.979C426.042 354.274 425.85 354.616 425.73 354.986C425.61 355.355 425.563 355.745 425.593 356.132C425.623 356.52 425.73 356.898 425.906 357.244C426.261 357.944 426.881 358.474 427.627 358.717C427.997 358.837 428.386 358.884 428.774 358.854C429.161 358.823 429.539 358.717 429.885 358.541V358.537ZM411.662 360.828C411.151 361.069 410.694 361.409 410.317 361.829C409.94 362.249 409.651 362.741 409.467 363.275C409.283 363.808 409.208 364.374 409.246 364.937C409.284 365.5 409.435 366.05 409.689 366.554C409.943 367.058 410.296 367.506 410.726 367.872C411.156 368.238 411.655 368.513 412.193 368.683C412.732 368.852 413.299 368.913 413.861 368.859C414.423 368.806 414.969 368.641 415.466 368.374C416.436 367.852 417.164 366.972 417.495 365.921C417.826 364.871 417.733 363.732 417.237 362.749C416.742 361.765 415.881 361.014 414.84 360.655C413.799 360.296 412.658 360.358 411.662 360.828ZM388.188 335.752C388.576 335.774 388.965 335.718 389.332 335.59C389.699 335.461 390.037 335.261 390.326 335.001C390.616 334.742 390.851 334.428 391.02 334.077C391.188 333.727 391.286 333.347 391.307 332.958C391.328 332.57 391.273 332.182 391.144 331.815C391.015 331.448 390.815 331.11 390.556 330.82C390.296 330.531 389.982 330.295 389.632 330.127C389.281 329.958 388.901 329.861 388.513 329.84C387.729 329.795 386.96 330.064 386.375 330.587C385.79 331.11 385.436 331.843 385.392 332.627C385.347 333.41 385.616 334.179 386.139 334.765C386.662 335.35 387.396 335.704 388.179 335.748L388.188 335.752ZM388.152 354.363C388.718 354.414 389.287 354.351 389.827 354.176C390.367 354.002 390.867 353.721 391.296 353.35C391.725 352.979 392.075 352.525 392.325 352.016C392.575 351.506 392.72 350.952 392.751 350.385C392.782 349.818 392.699 349.251 392.506 348.718C392.313 348.184 392.015 347.695 391.629 347.279C391.243 346.863 390.777 346.529 390.259 346.297C389.742 346.065 389.182 345.939 388.615 345.928C387.52 345.906 386.459 346.31 385.656 347.055C384.853 347.8 384.37 348.828 384.31 349.922C384.25 351.016 384.617 352.09 385.334 352.919C386.051 353.747 387.061 354.265 388.152 354.363ZM365.248 397.52C365.753 397.276 366.204 396.934 366.575 396.514C366.946 396.093 367.23 395.604 367.41 395.073C367.59 394.542 367.663 393.98 367.624 393.421C367.585 392.862 367.435 392.316 367.183 391.815C366.931 391.315 366.582 390.869 366.156 390.504C365.73 390.14 365.236 389.864 364.702 389.692C364.168 389.52 363.606 389.456 363.047 389.504C362.489 389.552 361.945 389.71 361.449 389.97C360.465 390.484 359.724 391.364 359.384 392.42C359.044 393.477 359.133 394.624 359.632 395.615C360.13 396.607 360.999 397.362 362.05 397.718C363.101 398.075 364.249 398.003 365.248 397.52ZM390.875 360.534C390.342 361.323 389.972 362.21 389.785 363.143C389.598 364.077 389.598 365.038 389.786 365.971C389.974 366.905 390.345 367.791 390.879 368.58C391.413 369.368 392.098 370.042 392.894 370.563C393.691 371.085 394.583 371.442 395.519 371.615C396.455 371.789 397.417 371.774 398.347 371.572C399.277 371.37 400.158 370.986 400.939 370.44C401.719 369.895 402.383 369.2 402.892 368.396C403.901 366.802 404.243 364.876 403.843 363.033C403.444 361.19 402.335 359.578 400.757 358.545C399.179 357.512 397.257 357.142 395.408 357.515C393.559 357.887 391.931 358.971 390.875 360.534ZM403.382 390.597C402.742 389.326 401.74 388.272 400.502 387.57C399.264 386.869 397.845 386.55 396.425 386.655C395.006 386.759 393.649 387.283 392.527 388.159C391.405 389.034 390.569 390.223 390.123 391.575C389.677 392.927 389.642 394.38 390.022 395.752C390.402 397.124 391.181 398.351 392.259 399.28C393.338 400.209 394.668 400.797 396.08 400.97C397.493 401.143 398.926 400.893 400.196 400.252C401.043 399.831 401.798 399.247 402.417 398.532C403.036 397.818 403.508 396.987 403.804 396.089C404.1 395.191 404.216 394.244 404.143 393.301C404.071 392.358 403.812 391.439 403.382 390.597ZM415.933 390.099C415.469 389.777 414.946 389.551 414.394 389.435C413.841 389.318 413.271 389.314 412.717 389.421C412.163 389.529 411.636 389.746 411.168 390.06C410.699 390.375 410.298 390.78 409.988 391.252C409.679 391.724 409.467 392.253 409.365 392.808C409.263 393.363 409.273 393.933 409.395 394.484C409.517 395.035 409.748 395.556 410.075 396.016C410.402 396.477 410.817 396.867 411.297 397.164C412.234 397.744 413.36 397.936 414.436 397.697C415.511 397.459 416.451 396.811 417.056 395.889C417.66 394.968 417.881 393.847 417.671 392.766C417.462 391.684 416.838 390.727 415.933 390.099ZM429.708 379.296C429.755 378.814 429.704 378.328 429.559 377.866C429.414 377.404 429.177 376.976 428.862 376.608C428.547 376.24 428.161 375.939 427.727 375.724C427.293 375.509 426.82 375.383 426.337 375.355C425.853 375.328 425.369 375.398 424.913 375.562C424.458 375.725 424.04 375.98 423.685 376.309C423.33 376.639 423.045 377.036 422.847 377.479C422.65 377.921 422.544 378.398 422.535 378.883C422.519 379.811 422.863 380.709 423.495 381.39C424.126 382.07 424.996 382.48 425.923 382.533C426.85 382.587 427.761 382.28 428.466 381.676C429.172 381.073 429.617 380.22 429.708 379.296ZM439.651 376.738C439.347 376.721 439.042 376.764 438.754 376.865C438.466 376.966 438.2 377.123 437.973 377.326C437.745 377.53 437.56 377.776 437.428 378.051C437.296 378.326 437.219 378.625 437.202 378.929C437.185 379.234 437.228 379.539 437.329 379.827C437.43 380.115 437.587 380.38 437.79 380.608C437.994 380.835 438.24 381.02 438.515 381.153C438.79 381.285 439.089 381.362 439.393 381.379C440.009 381.413 440.612 381.201 441.072 380.79C441.531 380.379 441.808 379.803 441.843 379.187C441.877 378.572 441.665 377.968 441.254 377.509C440.843 377.05 440.267 376.772 439.651 376.738ZM430.29 399.798C429.966 399.568 429.598 399.406 429.21 399.321C428.821 399.237 428.42 399.231 428.029 399.306C427.638 399.38 427.266 399.532 426.936 399.753C426.605 399.974 426.323 400.259 426.105 400.592C425.887 400.925 425.738 401.298 425.668 401.689C425.598 402.081 425.607 402.482 425.695 402.87C425.784 403.258 425.949 403.623 426.182 403.946C426.415 404.268 426.711 404.54 427.051 404.745C427.707 405.141 428.491 405.267 429.238 405.097C429.984 404.927 430.636 404.474 431.056 403.833C431.475 403.192 431.63 402.414 431.487 401.661C431.344 400.909 430.915 400.241 430.29 399.798ZM364.296 421.51C364.041 421.342 363.755 421.226 363.456 421.169C363.156 421.112 362.848 421.114 362.549 421.176C362.25 421.238 361.966 421.358 361.714 421.529C361.461 421.701 361.245 421.92 361.077 422.175C360.909 422.43 360.794 422.716 360.736 423.015C360.679 423.315 360.681 423.623 360.743 423.922C360.805 424.221 360.925 424.505 361.096 424.758C361.268 425.01 361.487 425.226 361.742 425.394C362.257 425.733 362.886 425.853 363.489 425.728C364.093 425.603 364.623 425.244 364.961 424.729C365.3 424.214 365.42 423.585 365.295 422.982C365.171 422.378 364.811 421.849 364.296 421.51ZM413.037 421.27C412.759 421.405 412.511 421.594 412.308 421.826C412.104 422.058 411.949 422.328 411.851 422.62C411.753 422.913 411.714 423.222 411.737 423.53C411.76 423.837 411.844 424.137 411.984 424.412C412.124 424.687 412.318 424.931 412.553 425.131C412.789 425.33 413.062 425.48 413.356 425.573C413.65 425.666 413.96 425.699 414.267 425.67C414.575 425.642 414.873 425.552 415.145 425.407C415.683 425.121 416.086 424.636 416.269 424.055C416.451 423.474 416.399 422.845 416.123 422.303C415.846 421.761 415.368 421.349 414.791 421.155C414.214 420.962 413.584 421.003 413.037 421.27ZM386.035 397.809C386.572 397.02 386.946 396.132 387.136 395.196C387.326 394.26 387.328 393.296 387.142 392.36C386.955 391.424 386.584 390.534 386.05 389.742C385.516 388.951 384.829 388.274 384.031 387.751C383.232 387.228 382.337 386.869 381.398 386.695C380.46 386.521 379.496 386.536 378.563 386.739C377.63 386.942 376.747 387.328 375.965 387.876C375.183 388.424 374.518 389.122 374.009 389.93C373.003 391.524 372.664 393.45 373.065 395.292C373.465 397.134 374.573 398.746 376.15 399.779C377.727 400.812 379.646 401.184 381.495 400.816C383.344 400.448 384.974 399.368 386.035 397.809ZM371.664 408.83C371.27 408.549 370.823 408.35 370.351 408.246C369.878 408.141 369.39 408.134 368.914 408.223C368.439 408.312 367.986 408.496 367.583 408.764C367.18 409.032 366.836 409.379 366.57 409.784C366.305 410.188 366.124 410.642 366.038 411.118C365.952 411.595 365.963 412.083 366.071 412.555C366.178 413.027 366.38 413.472 366.664 413.864C366.947 414.256 367.307 414.587 367.722 414.836C368.518 415.315 369.469 415.468 370.375 415.261C371.281 415.055 372.071 414.505 372.581 413.729C373.091 412.952 373.28 412.008 373.109 411.094C372.938 410.181 372.42 409.37 371.664 408.83ZM388.419 422.591C388.031 422.569 387.643 422.624 387.276 422.752C386.909 422.88 386.571 423.08 386.282 423.338C385.992 423.597 385.756 423.911 385.587 424.261C385.418 424.611 385.32 424.99 385.298 425.378C385.276 425.766 385.331 426.155 385.459 426.522C385.588 426.888 385.787 427.226 386.046 427.516C386.304 427.806 386.618 428.042 386.968 428.211C387.318 428.379 387.698 428.478 388.086 428.5C388.869 428.544 389.638 428.275 390.224 427.752C390.809 427.229 391.163 426.496 391.207 425.712C391.251 424.929 390.982 424.16 390.459 423.574C389.937 422.989 389.203 422.635 388.419 422.591ZM388.455 403.98C387.89 403.93 387.321 403.993 386.781 404.167C386.241 404.341 385.742 404.622 385.313 404.993C384.884 405.364 384.534 405.818 384.284 406.327C384.034 406.836 383.889 407.39 383.858 407.956C383.827 408.523 383.909 409.089 384.102 409.623C384.294 410.157 384.592 410.646 384.977 411.062C385.362 411.478 385.828 411.812 386.345 412.045C386.862 412.278 387.421 412.404 387.988 412.416C389.083 412.438 390.144 412.034 390.947 411.288C391.75 410.543 392.233 409.515 392.293 408.421C392.353 407.328 391.986 406.253 391.269 405.425C390.552 404.596 389.542 404.078 388.451 403.98H388.455ZM405.74 408.545C405.312 408.755 404.93 409.048 404.617 409.407C404.303 409.765 404.064 410.183 403.913 410.635C403.762 411.087 403.703 411.565 403.738 412.04C403.774 412.515 403.903 412.979 404.12 413.403C404.336 413.828 404.634 414.205 404.998 414.514C405.361 414.822 405.782 415.055 406.236 415.199C406.691 415.343 407.169 415.396 407.644 415.353C408.118 415.311 408.58 415.174 409.001 414.952C409.836 414.511 410.464 413.76 410.75 412.86C411.035 411.959 410.955 410.983 410.527 410.142C410.099 409.3 409.356 408.661 408.461 408.362C407.565 408.063 406.588 408.129 405.74 408.545Z" fill="#003B2F"/><path d="M1497.07 236.016C1527.75 236.016 1552.61 211.153 1552.61 180.483C1552.61 149.813 1527.75 124.951 1497.07 124.951C1466.4 124.951 1441.54 149.813 1441.54 180.483C1441.54 211.153 1466.4 236.016 1497.07 236.016Z" fill="#03FC9D"/><path d="M1491.6 231.31C1522.27 231.31 1547.13 206.447 1547.13 175.777C1547.13 145.107 1522.27 120.244 1491.6 120.244C1460.93 120.244 1436.06 145.107 1436.06 175.777C1436.06 206.447 1460.93 231.31 1491.6 231.31Z" stroke="#003B2F" stroke-width="3" stroke-linecap="round" stroke-linejoin="round"/><path d="M1475.97 175.548C1475.9 176.781 1476.32 177.991 1477.15 178.912C1477.97 179.834 1479.12 180.392 1480.35 180.465H1480.62C1481.53 180.465 1482.42 180.198 1483.18 179.697C1483.95 179.196 1484.54 178.483 1484.9 177.646C1485.26 176.81 1485.37 175.886 1485.21 174.989C1485.05 174.092 1484.63 173.262 1484.01 172.601C1483.38 171.939 1482.57 171.476 1481.69 171.268C1480.8 171.059 1479.87 171.115 1479.02 171.429C1478.16 171.743 1477.42 172.3 1476.88 173.032C1476.33 173.764 1476.02 174.639 1475.97 175.548ZM1458.6 174.349C1458.2 174.327 1457.81 174.463 1457.52 174.729C1457.22 174.995 1457.04 175.368 1457.01 175.767C1456.99 176.166 1457.13 176.557 1457.39 176.855C1457.66 177.153 1458.03 177.333 1458.43 177.355C1458.63 177.366 1458.83 177.339 1459.01 177.273C1459.2 177.208 1459.37 177.107 1459.52 176.975C1459.67 176.843 1459.79 176.684 1459.87 176.506C1459.96 176.328 1460.01 176.135 1460.02 175.937C1460.03 175.74 1460 175.542 1459.94 175.356C1459.87 175.169 1459.77 174.997 1459.64 174.849C1459.51 174.702 1459.35 174.582 1459.17 174.496C1458.99 174.41 1458.8 174.36 1458.6 174.349ZM1475.67 148.513C1475.85 148.424 1476 148.3 1476.13 148.15C1476.26 147.999 1476.36 147.825 1476.42 147.637C1476.48 147.449 1476.5 147.251 1476.49 147.054C1476.47 146.857 1476.42 146.665 1476.33 146.489C1476.24 146.312 1476.12 146.156 1475.97 146.027C1475.82 145.899 1475.64 145.801 1475.45 145.74C1475.27 145.679 1475.07 145.655 1474.87 145.671C1474.67 145.686 1474.48 145.74 1474.3 145.83C1473.96 146.015 1473.7 146.33 1473.58 146.706C1473.46 147.082 1473.49 147.49 1473.67 147.841C1473.85 148.192 1474.16 148.459 1474.53 148.584C1474.91 148.71 1475.32 148.686 1475.67 148.513ZM1480.4 156.751C1480.68 156.619 1480.93 156.432 1481.14 156.201C1481.35 155.97 1481.51 155.699 1481.62 155.404C1481.72 155.109 1481.76 154.797 1481.74 154.486C1481.72 154.175 1481.64 153.871 1481.5 153.592C1481.35 153.314 1481.16 153.067 1480.92 152.865C1480.68 152.664 1480.41 152.512 1480.11 152.419C1479.81 152.327 1479.5 152.295 1479.19 152.326C1478.88 152.357 1478.58 152.45 1478.3 152.6C1477.77 152.89 1477.38 153.374 1477.2 153.95C1477.02 154.527 1477.07 155.15 1477.34 155.689C1477.61 156.228 1478.09 156.64 1478.66 156.838C1479.23 157.036 1479.85 157.004 1480.4 156.751ZM1464.5 162.417C1464.71 162.562 1464.94 162.663 1465.19 162.715C1465.44 162.767 1465.7 162.768 1465.95 162.719C1466.2 162.67 1466.44 162.571 1466.65 162.429C1466.87 162.286 1467.05 162.103 1467.19 161.889C1467.33 161.676 1467.42 161.436 1467.47 161.185C1467.52 160.934 1467.51 160.676 1467.46 160.427C1467.4 160.177 1467.3 159.941 1467.15 159.733C1467 159.524 1466.81 159.347 1466.6 159.212C1466.17 158.947 1465.66 158.859 1465.17 158.966C1464.68 159.074 1464.26 159.369 1463.98 159.787C1463.71 160.206 1463.61 160.716 1463.7 161.207C1463.8 161.699 1464.08 162.133 1464.5 162.417ZM1467.33 173.519C1467.02 173.495 1466.71 173.533 1466.42 173.63C1466.12 173.728 1465.85 173.883 1465.62 174.087C1465.38 174.29 1465.19 174.539 1465.06 174.817C1464.92 175.095 1464.84 175.398 1464.82 175.707C1464.81 176.016 1464.85 176.326 1464.95 176.618C1465.06 176.91 1465.22 177.178 1465.43 177.407C1465.63 177.636 1465.89 177.822 1466.17 177.952C1466.45 178.083 1466.75 178.156 1467.06 178.168C1467.67 178.191 1468.27 177.974 1468.72 177.564C1469.17 177.154 1469.44 176.583 1469.47 175.975C1469.51 175.366 1469.3 174.768 1468.9 174.309C1468.5 173.85 1467.94 173.566 1467.33 173.519ZM1464.76 189.146C1464.31 189.375 1463.96 189.774 1463.8 190.257C1463.64 190.74 1463.68 191.266 1463.91 191.72C1464.14 192.174 1464.54 192.519 1465.02 192.678C1465.5 192.838 1466.03 192.799 1466.48 192.57C1466.71 192.457 1466.91 192.301 1467.07 192.11C1467.24 191.92 1467.36 191.698 1467.44 191.459C1467.52 191.22 1467.55 190.968 1467.53 190.717C1467.51 190.466 1467.45 190.221 1467.33 189.996C1467.22 189.772 1467.06 189.571 1466.87 189.407C1466.68 189.242 1466.46 189.117 1466.22 189.038C1465.98 188.959 1465.73 188.928 1465.48 188.947C1465.23 188.965 1464.98 189.033 1464.76 189.146ZM1473.8 168.703C1474.1 168.911 1474.44 169.058 1474.79 169.133C1475.15 169.209 1475.52 169.212 1475.88 169.142C1476.24 169.072 1476.58 168.932 1476.88 168.728C1477.19 168.524 1477.45 168.262 1477.65 167.956C1477.85 167.65 1477.99 167.308 1478.05 166.948C1478.12 166.588 1478.11 166.219 1478.03 165.862C1477.95 165.505 1477.8 165.168 1477.59 164.869C1477.38 164.571 1477.11 164.318 1476.8 164.126C1476.19 163.75 1475.46 163.626 1474.77 163.781C1474.07 163.935 1473.46 164.355 1473.07 164.952C1472.68 165.549 1472.54 166.275 1472.67 166.975C1472.81 167.676 1473.21 168.296 1473.8 168.703ZM1502.48 156.566C1502.73 156.748 1503.02 156.877 1503.33 156.944C1503.63 157.012 1503.95 157.017 1504.26 156.959C1504.56 156.902 1504.86 156.782 1505.12 156.609C1505.38 156.435 1505.6 156.21 1505.77 155.948C1505.95 155.686 1506.06 155.392 1506.12 155.084C1506.18 154.775 1506.17 154.458 1506.1 154.153C1506.03 153.847 1505.9 153.559 1505.71 153.305C1505.53 153.051 1505.3 152.837 1505.03 152.675C1504.51 152.365 1503.9 152.266 1503.31 152.4C1502.72 152.534 1502.21 152.889 1501.88 153.393C1501.55 153.896 1501.43 154.507 1501.54 155.099C1501.65 155.691 1501.99 156.216 1502.48 156.566ZM1507.25 148.352C1507.41 148.466 1507.6 148.546 1507.8 148.586C1507.99 148.627 1508.19 148.629 1508.39 148.59C1508.59 148.551 1508.78 148.474 1508.94 148.362C1509.11 148.25 1509.25 148.106 1509.36 147.938C1509.47 147.77 1509.55 147.582 1509.58 147.385C1509.62 147.188 1509.61 146.985 1509.57 146.789C1509.53 146.593 1509.45 146.408 1509.33 146.244C1509.21 146.081 1509.07 145.942 1508.9 145.836C1508.56 145.628 1508.16 145.56 1507.78 145.644C1507.39 145.729 1507.06 145.96 1506.84 146.289C1506.63 146.618 1506.55 147.017 1506.63 147.403C1506.7 147.788 1506.92 148.129 1507.25 148.352ZM1502.84 171.104C1501.61 171.034 1500.39 171.457 1499.47 172.279C1498.55 173.102 1497.99 174.257 1497.92 175.49C1497.85 176.724 1498.28 177.934 1499.1 178.856C1499.92 179.778 1501.08 180.335 1502.31 180.405H1502.58C1503.8 180.412 1504.97 179.943 1505.85 179.096C1506.72 178.25 1507.23 177.094 1507.26 175.877C1507.3 174.659 1506.85 173.477 1506.03 172.583C1505.2 171.689 1504.05 171.155 1502.84 171.095V171.104Z" fill="#003B2F"/><path d="M1481.93 168.38C1481.93 169.615 1482.42 170.799 1483.29 171.672C1484.17 172.545 1485.35 173.035 1486.59 173.035C1487.82 173.034 1489.01 172.544 1489.88 171.67C1490.75 170.797 1491.24 169.612 1491.24 168.377C1491.24 167.142 1490.75 165.958 1489.88 165.084C1489.01 164.211 1487.82 163.72 1486.59 163.72C1485.35 163.719 1484.17 164.209 1483.29 165.082C1482.42 165.955 1481.93 167.139 1481.93 168.374V168.38ZM1518.44 162.411C1518.67 162.301 1518.87 162.145 1519.04 161.954C1519.21 161.763 1519.34 161.54 1519.42 161.298C1519.51 161.056 1519.54 160.799 1519.52 160.544C1519.5 160.289 1519.43 160.041 1519.32 159.813C1519.2 159.585 1519.04 159.383 1518.85 159.218C1518.65 159.053 1518.42 158.929 1518.18 158.852C1517.94 158.776 1517.68 158.75 1517.43 158.774C1517.17 158.799 1516.92 158.874 1516.7 158.996C1516.47 159.11 1516.27 159.267 1516.11 159.458C1515.95 159.65 1515.82 159.871 1515.74 160.111C1515.67 160.35 1515.64 160.603 1515.66 160.854C1515.68 161.105 1515.74 161.349 1515.86 161.574C1516.09 162.027 1516.49 162.37 1516.97 162.528C1517.21 162.606 1517.47 162.636 1517.72 162.616C1517.97 162.597 1518.21 162.528 1518.44 162.414V162.411ZM1506.63 163.895C1506.3 164.051 1506 164.272 1505.76 164.544C1505.52 164.816 1505.33 165.135 1505.21 165.48C1505.09 165.826 1505.04 166.192 1505.07 166.557C1505.09 166.922 1505.19 167.278 1505.35 167.605C1505.52 167.931 1505.75 168.222 1506.03 168.459C1506.3 168.695 1506.63 168.874 1506.98 168.984C1507.32 169.094 1507.69 169.133 1508.06 169.098C1508.42 169.064 1508.77 168.957 1509.1 168.784C1509.72 168.446 1510.2 167.876 1510.41 167.195C1510.62 166.514 1510.56 165.777 1510.24 165.14C1509.92 164.503 1509.36 164.016 1508.69 163.784C1508.02 163.551 1507.28 163.591 1506.63 163.895ZM1491.43 147.651C1491.68 147.665 1491.93 147.629 1492.17 147.546C1492.4 147.462 1492.62 147.333 1492.81 147.165C1493 146.997 1493.15 146.793 1493.26 146.566C1493.37 146.339 1493.43 146.093 1493.45 145.841C1493.46 145.59 1493.42 145.338 1493.34 145.101C1493.26 144.863 1493.13 144.644 1492.96 144.456C1492.79 144.269 1492.59 144.116 1492.36 144.007C1492.13 143.898 1491.89 143.835 1491.64 143.821C1491.13 143.792 1490.63 143.967 1490.25 144.305C1489.87 144.644 1489.64 145.119 1489.61 145.627C1489.58 146.134 1489.76 146.632 1490.1 147.012C1490.44 147.391 1490.91 147.62 1491.42 147.649L1491.43 147.651ZM1491.4 159.708C1491.77 159.741 1492.14 159.699 1492.49 159.587C1492.84 159.474 1493.16 159.292 1493.44 159.051C1493.72 158.811 1493.94 158.517 1494.11 158.187C1494.27 157.857 1494.36 157.498 1494.38 157.131C1494.4 156.763 1494.35 156.396 1494.22 156.05C1494.1 155.705 1493.9 155.388 1493.65 155.118C1493.4 154.849 1493.1 154.632 1492.77 154.482C1492.43 154.332 1492.07 154.25 1491.7 154.243C1490.99 154.229 1490.3 154.491 1489.78 154.973C1489.26 155.456 1488.95 156.122 1488.91 156.831C1488.87 157.539 1489.11 158.235 1489.58 158.772C1490.04 159.309 1490.7 159.644 1491.4 159.708ZM1476.56 187.665C1476.89 187.507 1477.18 187.285 1477.42 187.013C1477.66 186.741 1477.85 186.423 1477.97 186.079C1478.08 185.735 1478.13 185.372 1478.1 185.009C1478.08 184.647 1477.98 184.294 1477.82 183.969C1477.65 183.645 1477.43 183.356 1477.15 183.12C1476.88 182.884 1476.56 182.705 1476.21 182.594C1475.87 182.482 1475.5 182.441 1475.14 182.472C1474.78 182.503 1474.43 182.605 1474.1 182.774C1473.47 183.107 1472.99 183.677 1472.77 184.361C1472.55 185.045 1472.6 185.789 1472.93 186.431C1473.25 187.073 1473.81 187.562 1474.49 187.793C1475.17 188.024 1475.92 187.978 1476.56 187.665ZM1493.17 163.705C1492.82 164.216 1492.58 164.791 1492.46 165.395C1492.34 166 1492.34 166.623 1492.46 167.227C1492.58 167.832 1492.82 168.406 1493.17 168.917C1493.51 169.428 1493.96 169.865 1494.47 170.202C1494.99 170.54 1495.57 170.771 1496.17 170.884C1496.78 170.996 1497.4 170.986 1498.01 170.856C1498.61 170.725 1499.18 170.476 1499.69 170.122C1500.19 169.769 1500.62 169.319 1500.95 168.798C1501.6 167.766 1501.83 166.518 1501.57 165.324C1501.31 164.13 1500.59 163.085 1499.57 162.417C1498.54 161.748 1497.3 161.508 1496.1 161.749C1494.9 161.99 1493.85 162.693 1493.17 163.705ZM1501.27 183.18C1500.85 182.356 1500.2 181.674 1499.4 181.219C1498.6 180.765 1497.68 180.558 1496.76 180.626C1495.84 180.694 1494.96 181.033 1494.24 181.6C1493.51 182.168 1492.97 182.938 1492.68 183.814C1492.39 184.689 1492.37 185.631 1492.61 186.519C1492.86 187.408 1493.36 188.203 1494.06 188.805C1494.76 189.407 1495.62 189.788 1496.54 189.9C1497.45 190.012 1498.38 189.85 1499.2 189.434C1499.75 189.162 1500.24 188.783 1500.64 188.32C1501.04 187.857 1501.35 187.32 1501.54 186.738C1501.73 186.156 1501.81 185.542 1501.76 184.932C1501.71 184.321 1501.55 183.726 1501.27 183.18ZM1509.4 182.857C1509.1 182.649 1508.76 182.502 1508.4 182.427C1508.04 182.352 1507.67 182.349 1507.32 182.418C1506.96 182.488 1506.61 182.629 1506.31 182.832C1506.01 183.036 1505.75 183.298 1505.55 183.604C1505.35 183.91 1505.21 184.253 1505.14 184.612C1505.08 184.972 1505.08 185.341 1505.16 185.698C1505.24 186.055 1505.39 186.393 1505.6 186.691C1505.82 186.989 1506.08 187.242 1506.4 187.434C1507 187.81 1507.73 187.934 1508.43 187.78C1509.13 187.625 1509.73 187.205 1510.13 186.608C1510.52 186.012 1510.66 185.286 1510.52 184.585C1510.39 183.884 1509.98 183.264 1509.4 182.857ZM1518.32 175.859C1518.35 175.547 1518.32 175.232 1518.23 174.933C1518.13 174.633 1517.98 174.356 1517.77 174.118C1517.57 173.879 1517.32 173.685 1517.04 173.545C1516.76 173.406 1516.45 173.325 1516.14 173.306C1515.82 173.288 1515.51 173.334 1515.22 173.44C1514.92 173.546 1514.65 173.711 1514.42 173.924C1514.19 174.138 1514.01 174.395 1513.88 174.682C1513.75 174.968 1513.68 175.278 1513.68 175.591C1513.67 176.193 1513.89 176.775 1514.3 177.215C1514.71 177.656 1515.27 177.922 1515.87 177.956C1516.47 177.991 1517.06 177.792 1517.52 177.401C1517.97 177.01 1518.26 176.458 1518.32 175.859ZM1524.76 174.202C1524.57 174.191 1524.37 174.219 1524.18 174.285C1524 174.35 1523.82 174.451 1523.68 174.583C1523.53 174.715 1523.41 174.875 1523.32 175.053C1523.24 175.231 1523.19 175.424 1523.18 175.622C1523.17 175.819 1523.19 176.017 1523.26 176.203C1523.32 176.39 1523.43 176.562 1523.56 176.709C1523.69 176.856 1523.85 176.976 1524.03 177.062C1524.21 177.147 1524.4 177.197 1524.6 177.208C1524.99 177.23 1525.39 177.093 1525.68 176.827C1525.98 176.561 1526.16 176.187 1526.18 175.789C1526.2 175.39 1526.07 174.999 1525.8 174.701C1525.54 174.404 1525.16 174.224 1524.76 174.202ZM1518.7 189.14C1518.49 188.992 1518.25 188.887 1518 188.832C1517.75 188.777 1517.49 188.773 1517.23 188.821C1516.98 188.869 1516.74 188.968 1516.53 189.111C1516.31 189.254 1516.13 189.439 1515.99 189.655C1515.85 189.87 1515.75 190.112 1515.7 190.365C1515.66 190.619 1515.67 190.879 1515.72 191.13C1515.78 191.381 1515.89 191.619 1516.04 191.827C1516.19 192.036 1516.38 192.212 1516.6 192.345C1517.03 192.602 1517.53 192.683 1518.02 192.573C1518.5 192.463 1518.92 192.169 1519.19 191.754C1519.47 191.339 1519.57 190.835 1519.47 190.347C1519.38 189.86 1519.1 189.427 1518.7 189.14ZM1475.95 203.205C1475.78 203.097 1475.6 203.022 1475.4 202.985C1475.21 202.947 1475.01 202.949 1474.82 202.989C1474.62 203.029 1474.44 203.107 1474.27 203.218C1474.11 203.329 1473.97 203.471 1473.86 203.636C1473.75 203.802 1473.68 203.987 1473.64 204.181C1473.6 204.375 1473.61 204.575 1473.65 204.768C1473.69 204.962 1473.76 205.146 1473.87 205.309C1473.99 205.473 1474.13 205.613 1474.29 205.722C1474.63 205.941 1475.03 206.019 1475.43 205.938C1475.82 205.857 1476.16 205.624 1476.38 205.291C1476.6 204.957 1476.68 204.55 1476.6 204.159C1476.51 203.768 1476.28 203.425 1475.95 203.205ZM1507.52 203.05C1507.34 203.137 1507.18 203.26 1507.05 203.41C1506.92 203.56 1506.82 203.735 1506.75 203.925C1506.69 204.114 1506.67 204.314 1506.68 204.514C1506.7 204.713 1506.75 204.908 1506.84 205.086C1506.93 205.264 1507.06 205.422 1507.21 205.551C1507.36 205.68 1507.54 205.777 1507.73 205.837C1507.92 205.897 1508.12 205.919 1508.32 205.901C1508.52 205.882 1508.71 205.824 1508.89 205.73C1509.24 205.545 1509.5 205.23 1509.62 204.854C1509.73 204.478 1509.7 204.071 1509.52 203.719C1509.34 203.368 1509.03 203.101 1508.66 202.976C1508.28 202.851 1507.88 202.877 1507.52 203.05ZM1490.03 187.852C1490.38 187.341 1490.62 186.765 1490.74 186.159C1490.87 185.553 1490.87 184.928 1490.75 184.322C1490.63 183.715 1490.39 183.139 1490.04 182.626C1489.69 182.114 1489.25 181.675 1488.73 181.336C1488.21 180.997 1487.63 180.765 1487.03 180.652C1486.42 180.54 1485.79 180.549 1485.19 180.681C1484.59 180.812 1484.01 181.063 1483.51 181.417C1483 181.772 1482.57 182.225 1482.24 182.748C1481.59 183.781 1481.37 185.028 1481.63 186.222C1481.89 187.415 1482.61 188.459 1483.63 189.128C1484.65 189.797 1485.89 190.038 1487.09 189.8C1488.29 189.561 1489.34 188.862 1490.03 187.852ZM1480.72 194.991C1480.47 194.809 1480.18 194.68 1479.87 194.613C1479.56 194.545 1479.25 194.54 1478.94 194.598C1478.63 194.656 1478.34 194.775 1478.08 194.949C1477.82 195.122 1477.59 195.347 1477.42 195.609C1477.25 195.871 1477.13 196.165 1477.08 196.474C1477.02 196.782 1477.03 197.099 1477.1 197.404C1477.17 197.71 1477.3 197.998 1477.48 198.252C1477.67 198.506 1477.9 198.721 1478.17 198.882C1478.68 199.193 1479.3 199.291 1479.89 199.157C1480.47 199.024 1480.98 198.668 1481.32 198.165C1481.65 197.661 1481.77 197.05 1481.66 196.458C1481.55 195.867 1481.21 195.341 1480.72 194.991ZM1491.57 203.906C1491.32 203.892 1491.07 203.927 1490.83 204.01C1490.6 204.093 1490.38 204.222 1490.19 204.39C1490 204.558 1489.85 204.761 1489.74 204.987C1489.63 205.214 1489.57 205.46 1489.55 205.711C1489.54 205.963 1489.57 206.214 1489.66 206.452C1489.74 206.69 1489.87 206.909 1490.04 207.096C1490.2 207.284 1490.41 207.437 1490.63 207.546C1490.86 207.656 1491.11 207.719 1491.36 207.733C1491.87 207.762 1492.36 207.588 1492.74 207.249C1493.12 206.911 1493.35 206.435 1493.38 205.928C1493.41 205.42 1493.24 204.922 1492.9 204.543C1492.56 204.164 1492.08 203.934 1491.57 203.906ZM1491.6 191.85C1491.23 191.817 1490.86 191.858 1490.51 191.971C1490.16 192.084 1489.84 192.266 1489.56 192.506C1489.28 192.746 1489.06 193.04 1488.9 193.37C1488.73 193.7 1488.64 194.059 1488.62 194.425C1488.6 194.792 1488.65 195.159 1488.78 195.505C1488.9 195.851 1489.1 196.168 1489.34 196.437C1489.59 196.707 1489.9 196.923 1490.23 197.074C1490.57 197.225 1490.93 197.306 1491.3 197.314C1492 197.328 1492.69 197.067 1493.21 196.584C1493.73 196.101 1494.05 195.435 1494.08 194.727C1494.12 194.018 1493.89 193.322 1493.42 192.785C1492.96 192.249 1492.3 191.913 1491.6 191.85H1491.6ZM1502.8 194.807C1502.52 194.943 1502.27 195.132 1502.07 195.365C1501.86 195.597 1501.71 195.868 1501.61 196.161C1501.51 196.454 1501.48 196.763 1501.5 197.071C1501.52 197.379 1501.61 197.679 1501.75 197.954C1501.89 198.229 1502.08 198.474 1502.31 198.673C1502.55 198.873 1502.82 199.024 1503.12 199.117C1503.41 199.211 1503.72 199.245 1504.03 199.217C1504.34 199.19 1504.63 199.101 1504.91 198.957C1505.45 198.672 1505.86 198.185 1506.04 197.602C1506.23 197.019 1506.17 196.386 1505.9 195.841C1505.62 195.296 1505.14 194.882 1504.56 194.688C1503.98 194.495 1503.34 194.537 1502.8 194.807Z" fill="#003B2F"/></svg>