<svg width="1676" height="858" viewBox="0 0 1676 858" fill="none" xmlns="http://www.w3.org/2000/svg"><g clip-path="url(#clip0_565_4036)"><path d="M202.337 468.709H140.845C134.044 468.709 128.531 474.205 128.531 480.984C128.531 487.763 134.044 493.259 140.845 493.259H202.337C209.138 493.259 214.651 487.763 214.651 480.984C214.651 474.205 209.138 468.709 202.337 468.709Z" fill="#03FC9D"/><path d="M168.969 434.229H68.1507C57.0497 434.229 48.0505 443.228 48.0505 454.329C48.0505 465.43 57.0497 474.429 68.1507 474.429H168.969C180.07 474.429 189.069 465.43 189.069 454.329C189.069 443.228 180.07 434.229 168.969 434.229Z" fill="#03FC9D"/><path d="M1471.8 504.143H1569.83" stroke="#003B2F" stroke-width="3" stroke-linecap="round" stroke-linejoin="round"/><path d="M1431.91 504.143H1445.18" stroke="#003B2F" stroke-width="3" stroke-linecap="round" stroke-linejoin="round"/><path d="M1515.33 480.458H1604" stroke="#03FC9D" stroke-width="3" stroke-linecap="round" stroke-linejoin="round"/><path d="M1002.87 548.052L1015.58 560.684" stroke="#003B2F" stroke-width="3" stroke-linecap="round" stroke-linejoin="round"/><path d="M1024.88 569.98L1037.59 582.691" stroke="#003B2F" stroke-width="3" stroke-linecap="round" stroke-linejoin="round"/><path d="M1002.87 582.691L1015.58 569.98" stroke="#003B2F" stroke-width="3" stroke-linecap="round" stroke-linejoin="round"/><path d="M1024.88 560.684L1037.59 548.052" stroke="#003B2F" stroke-width="3" stroke-linecap="round" stroke-linejoin="round"/><path d="M622.97 504.302C630.561 504.302 636.714 498.148 636.714 490.557C636.714 482.967 630.561 476.813 622.97 476.813C615.379 476.813 609.226 482.967 609.226 490.557C609.226 498.148 615.379 504.302 622.97 504.302Z" stroke="#003B2F" stroke-width="3" stroke-linecap="round" stroke-linejoin="round"/><path d="M604.641 609.718C604.482 591.445 585.971 573.172 549.187 559.19C475.619 531.304 356.766 531.304 283.675 559.19C247.129 573.172 228.936 591.445 229.095 609.718V689.006C229.253 707.279 247.765 725.552 284.549 739.535C358.117 767.421 476.97 767.421 550.061 739.535C586.607 725.552 604.8 707.279 604.641 689.006V609.718Z" fill="#03FC9D"/><path d="M604.641 609.718C604.482 591.445 585.971 573.172 549.187 559.19C475.619 531.304 356.766 531.304 283.675 559.19C247.129 573.172 228.936 591.445 229.095 609.718V689.006C229.253 707.279 247.765 725.552 284.549 739.535C358.117 767.421 476.97 767.421 550.061 739.535C586.607 725.552 604.8 707.279 604.641 689.006V609.718Z" fill="#003B2F" stroke="#003B2F" stroke-width="3" stroke-linecap="round" stroke-linejoin="round"/><path d="M549.187 559.19C475.619 531.304 356.766 531.304 283.675 559.19C210.583 587.076 210.98 632.36 284.549 660.246C358.117 688.132 476.97 688.132 550.061 660.246C623.152 632.36 622.755 587.076 549.187 559.19Z" fill="#E6E8EA" stroke="#003B2F" stroke-width="3" stroke-linecap="round" stroke-linejoin="round"/><path d="M874.884 -171.714L767.312 463.386L844.297 476.019L809.261 1033.1L819.748 1029.61L927.319 394.506L850.335 381.874L885.45 -175.21L874.963 -171.714H874.884Z" fill="#03FC9D"/><path d="M773.986 504.143L718.532 349.38L704.549 347.076L705.264 339.767L740.777 340.243L773.112 339.767L773.827 346.917L757.064 349.459L796.708 466.167V473.953L839.133 349.459L821.257 346.917L821.972 339.767L844.932 340.243L865.35 339.767L865.827 347.076L851.129 349.38L798.853 497.469L774.066 504.143H773.986Z" fill="#003B2F"/><path d="M910.874 504.302C893.475 504.302 877.268 499.376 862.252 489.604L859.71 449.722H871.15L881.478 475.145C891.409 487.062 902.373 493.02 914.29 493.02C922.393 493.02 928.908 490.716 933.913 486.108C938.839 481.5 941.381 475.383 941.381 467.756C941.381 461.797 939.713 456.554 936.297 452.025C932.881 447.497 927.478 443.207 920.01 439.076L890.694 422.074C881.24 416.592 874.09 410.872 869.243 404.834C864.397 398.875 862.014 391.407 862.014 382.35C862.014 358.516 881.081 343.024 919.375 335.794C935.582 335.794 950.994 339.29 965.692 346.361V385.131H955.841L945.036 357.881C937.409 349.936 928.59 345.963 918.66 345.963C910.715 345.963 904.438 347.95 899.751 351.922C895.064 355.894 892.76 361.217 892.76 367.97C892.76 373.293 894.349 377.981 897.606 381.874C900.784 385.767 905.71 389.58 912.304 393.235L941.858 410.236C952.742 416.354 960.449 422.551 965.136 428.906C969.823 435.262 972.127 443.127 972.127 452.661C972.127 477.766 951.71 494.927 910.874 504.222V504.302Z" fill="#003B2F"/><path opacity="0.19" d="M318.279 602.644L108.89 66.3708L724.846 64.0479L516.918 601.924C516.918 601.924 508.563 623.23 439.916 629.719C371.269 636.207 327.626 612.577 327.626 612.577C327.626 612.577 318.512 606.89 318.337 602.724L318.279 602.644Z" fill="url(#paint0_linear_565_4036)"/><path d="M589.03 333.12C589.03 238.037 511.95 160.958 416.868 160.958C321.785 160.958 244.706 238.037 244.706 333.12C244.706 428.202 321.785 505.282 416.868 505.282C511.95 505.282 589.03 428.202 589.03 333.12Z" fill="#03FC9D" stroke="#003B2F" stroke-width="3" stroke-linecap="round" stroke-linejoin="round"/><path d="M500.005 310.925C503.557 287.665 485.801 275.413 461.653 266.89L469.465 235.285L450.289 230.491L442.654 261.919L427.206 258.367L435.019 226.407L415.842 221.968L408.03 253.396L395.601 250.555L369.322 244.163L364.173 264.404C364.173 264.404 378.377 267.601 378.022 267.778C379.413 267.929 380.759 268.361 381.977 269.049C383.195 269.737 384.261 270.666 385.108 271.779C385.956 272.892 386.567 274.167 386.906 275.524C387.245 276.882 387.303 278.294 387.078 279.675L378.022 315.186L365.416 365.436C365.174 366.327 364.752 367.159 364.176 367.88C363.6 368.602 362.882 369.197 362.066 369.63C361.251 370.063 360.355 370.323 359.434 370.396C358.514 370.469 357.589 370.352 356.715 370.052L342.688 366.501L333.277 388.341L358.136 394.555L371.808 398.107L363.995 430.067L383.171 434.684L390.984 403.966L406.254 407.872L398.442 439.478L417.618 444.272L425.608 412.489C458.279 418.703 482.782 416.218 493.258 386.565C495.361 382.379 496.568 377.802 496.804 373.124C497.041 368.445 496.3 363.769 494.63 359.393C492.959 355.017 490.396 351.036 487.103 347.705C483.81 344.374 479.859 341.765 475.502 340.045C482.137 338.718 488.143 335.226 492.578 330.116C497.013 325.006 499.625 318.568 500.005 311.813V310.925ZM455.793 372.361C449.934 396.331 409.805 383.369 396.844 380.173L407.32 337.914C420.281 341.11 462.363 347.502 455.793 372.361ZM461.83 310.57C456.326 332.232 422.945 321.223 412.114 318.56L422.057 279.675C432.888 283.048 467.867 288.02 462.185 310.57H461.83Z" fill="#003B2F"/><path d="M180.36 141.524L186.68 158.294" stroke="#003B2F" stroke-width="3" stroke-linecap="round" stroke-linejoin="round"/><path d="M191.354 170.58L197.779 187.31" stroke="#003B2F" stroke-width="3" stroke-linecap="round" stroke-linejoin="round"/><path d="M166.177 173.126L182.874 166.774" stroke="#003B2F" stroke-width="3" stroke-linecap="round" stroke-linejoin="round"/><path d="M195.16 162.1L211.962 155.707" stroke="#003B2F" stroke-width="3" stroke-linecap="round" stroke-linejoin="round"/><path d="M736.907 149.909H715.297" stroke="#003B2F" stroke-width="3" stroke-linecap="round" stroke-linejoin="round"/><path d="M678.195 109.55H522.002" stroke="#03FC9D" stroke-width="3" stroke-linecap="round" stroke-linejoin="round"/><path d="M687.411 149.75H600.099" stroke="#003B2F" stroke-width="3" stroke-linecap="round" stroke-linejoin="round"/><path d="M1455.81 602.816C1455.65 584.543 1437.14 566.27 1400.35 552.288C1326.78 524.402 1207.93 524.402 1134.84 552.288C1098.29 566.27 1080.1 584.543 1080.26 602.816V682.104C1080.42 700.377 1098.93 718.65 1135.71 732.633C1209.28 760.519 1328.14 760.519 1401.23 732.633C1437.77 718.65 1455.97 700.377 1455.81 682.104V602.816Z" fill="#03FC9D"/><path d="M1455.81 602.816C1455.65 584.543 1437.14 566.27 1400.35 552.288C1326.78 524.402 1207.93 524.402 1134.84 552.288C1098.29 566.27 1080.1 584.543 1080.26 602.816V682.104C1080.42 700.377 1098.93 718.65 1135.71 732.633C1209.28 760.519 1328.14 760.519 1401.23 732.633C1437.77 718.65 1455.97 700.377 1455.81 682.104V602.816Z" fill="#003B2F" stroke="#003B2F" stroke-width="3" stroke-linecap="round" stroke-linejoin="round"/><path d="M1400.35 552.288C1326.78 524.402 1207.93 524.402 1134.84 552.288C1061.75 580.174 1062.15 625.458 1135.71 653.344C1209.28 681.23 1328.14 681.23 1401.23 653.344C1474.32 625.458 1473.92 580.174 1400.35 552.288Z" fill="#E6E8EA" stroke="#003B2F" stroke-width="3" stroke-linecap="round" stroke-linejoin="round"/><path opacity="0.19" d="M1169.44 595.743L960.055 59.4689L1576.01 57.146L1368.08 595.022C1368.08 595.022 1359.73 616.328 1291.08 622.817C1222.43 629.305 1178.79 605.675 1178.79 605.675C1178.79 605.675 1169.68 599.988 1169.5 595.823L1169.44 595.743Z" fill="url(#paint1_linear_565_4036)"/><path d="M1440.2 326.218C1440.2 231.135 1363.12 154.056 1268.03 154.056C1172.95 154.056 1095.87 231.135 1095.87 326.218C1095.87 421.3 1172.95 498.38 1268.03 498.38C1363.12 498.38 1440.2 421.3 1440.2 326.218Z" fill="#03FC9D" stroke="#003B2F" stroke-width="3" stroke-linecap="round" stroke-linejoin="round"/><path opacity="0.6" fill-rule="evenodd" clip-rule="evenodd" d="M1265.09 209.391L1267.08 295.671L1340.89 326.734L1265.09 209.391Z" fill="#003B2F"/><path fill-rule="evenodd" clip-rule="evenodd" d="M1265.09 209.391L1194.86 330.071L1267 295.671L1265.01 209.391H1265.09Z" fill="#003B2F"/><path opacity="0.6" fill-rule="evenodd" clip-rule="evenodd" d="M1269.07 384.333L1270.42 443.045L1341.2 340.32L1269.07 384.333Z" fill="#003B2F"/><path fill-rule="evenodd" clip-rule="evenodd" d="M1270.42 443.045L1269.07 384.334L1195.18 343.577L1270.42 443.045Z" fill="#003B2F"/><path opacity="0.2" fill-rule="evenodd" clip-rule="evenodd" d="M1268.75 370.748L1340.89 326.734L1267.08 295.67L1268.75 370.748Z" fill="#003B2F"/><path opacity="0.6" fill-rule="evenodd" clip-rule="evenodd" d="M1194.94 330.071L1268.83 370.828L1267.16 295.75L1195.02 330.151L1194.94 330.071Z" fill="#003B2F"/><path d="M1603.68 165.22H1572.54C1582.39 165.22 1590.33 157.99 1590.33 149.013C1590.33 140.035 1582.39 132.806 1572.54 132.806H1483.16C1473.31 132.806 1465.36 140.035 1465.36 149.013H1437.95C1428.1 149.013 1420.16 156.243 1420.16 165.22C1420.16 174.198 1428.1 181.427 1437.95 181.427H1496.5C1496.5 190.325 1504.45 197.635 1514.3 197.635H1603.68C1613.53 197.635 1621.48 190.405 1621.48 181.427C1621.48 172.45 1613.53 165.22 1603.68 165.22Z" fill="#E6E8EA"/><path d="M1020.23 165.22L1003.72 148.704L987.2 165.22L1003.72 181.736L1020.23 165.22Z" stroke="#003B2F" stroke-width="3" stroke-linecap="round" stroke-linejoin="round"/></g><defs><linearGradient id="paint0_linear_565_4036" x1="416.868" y1="64.0479" x2="416.868" y2="630.846" gradientUnits="userSpaceOnUse"><stop offset="0.112132" stop-color="#00FF94" stop-opacity="0.1"/><stop offset="1" stop-color="#00FF94"/></linearGradient><linearGradient id="paint1_linear_565_4036" x1="1268.03" y1="57.146" x2="1268.03" y2="623.944" gradientUnits="userSpaceOnUse"><stop offset="0.112132" stop-color="#00FF94" stop-opacity="0.1"/><stop offset="1" stop-color="#00FF94"/></linearGradient><clipPath id="clip0_565_4036"><rect width="1675.05" height="857" fill="white" transform="translate(0.865723 0.446045)"/></clipPath></defs></svg>