<svg width="1920" height="1081" viewBox="0 0 1920 1081" fill="none" xmlns="http://www.w3.org/2000/svg"><path d="M862.326 405.285C885.871 371.039 877.197 324.19 842.951 300.645C808.705 277.1 761.856 285.774 738.311 320.02C714.766 354.266 723.44 401.115 757.686 424.66C791.932 448.205 838.781 439.53 862.326 405.285Z" fill="#9FB4AD" stroke="#003B2F" stroke-width="3" stroke-miterlimit="10"/><path d="M806.357 435.272C847.915 435.272 881.606 401.582 881.606 360.023C881.606 318.464 847.915 284.774 806.357 284.774C764.798 284.774 731.107 318.464 731.107 360.023C731.107 401.582 764.798 435.272 806.357 435.272Z" fill="#E6E8EA" stroke="#003B2F" stroke-width="3" stroke-linecap="round" stroke-linejoin="round"/><path d="M782.058 424.82C764.944 418.288 751.488 405.355 744.041 388.633C736.595 371.911 736.072 353.229 742.735 336.246C749.267 319.132 762.2 305.676 778.922 298.229C795.644 290.783 814.326 290.26 831.309 296.923C848.423 303.455 861.879 316.388 869.326 333.11C876.772 349.832 877.295 368.514 870.632 385.497C864.1 402.611 851.167 416.067 834.445 423.514C817.723 430.96 799.041 431.483 782.058 424.82Z" stroke="#003B2F" stroke-width="3" stroke-linecap="round" stroke-linejoin="round"/><path d="M841.107 347.74C841.499 337.942 833.138 333.631 821.903 331.41L823.993 317.954L815.24 316.909L813.15 329.973C810.798 329.581 808.447 329.451 806.226 329.32L808.316 316.125L799.563 315.08L797.473 328.536C795.644 328.275 793.684 328.144 791.855 328.014L779.706 326.446L778.399 335.199C778.399 335.199 784.931 335.852 784.801 335.983C788.459 336.505 789.243 338.465 789.373 340.163L787.022 355.448L783.756 376.873C783.625 377.918 782.58 379.486 780.098 379.225L773.696 378.441L770.3 387.978L781.796 389.415C784.017 389.807 785.977 390.068 787.936 390.199L785.846 403.785L794.599 404.83L796.689 391.374C799.041 391.766 801.392 392.158 803.613 392.289L801.523 405.745L810.276 406.79L812.366 393.203C827.259 394.248 838.233 391.897 841.499 379.225C844.242 368.904 839.67 363.678 831.57 360.804C837.057 359.106 840.846 355.056 841.238 348.002H841.368L841.107 347.74ZM824.385 375.436C822.817 385.626 804.136 382.36 798.387 381.576L801.131 363.678C807.14 364.462 825.953 364.985 824.385 375.436ZM824.124 349.569C822.687 358.845 807.14 355.84 802.307 355.317L804.789 338.987C809.753 339.51 825.561 340.032 824.124 349.569Z" fill="#003B2F"/><path d="M1080.69 288.611C1053.65 317.352 1023.34 334.335 1006.62 331.461C1003.61 330.939 1000.87 329.763 998.911 327.803C985.586 315.392 1000.87 277.768 1032.75 243.671C1064.75 209.704 1101.33 192.067 1114.66 204.478L1116.23 206.177C1117.92 208.398 1118.97 211.141 1119.23 214.538C1121.32 231.652 1106.43 261.177 1080.82 288.742L1080.69 288.611Z" fill="#E6E8EA"/><path d="M1116.1 206.178L1126.94 218.196C1140.26 230.607 1124.98 268.232 1093.1 302.329C1061.23 336.426 1024.52 353.932 1011.19 341.521L1009.75 339.823L998.911 327.804C1001 329.764 1003.61 330.939 1006.62 331.462C1023.34 334.467 1053.65 317.484 1080.69 288.612C1106.3 261.047 1121.19 231.522 1119.1 214.408C1118.71 211.142 1117.66 208.268 1116.1 206.047V206.178Z" fill="#9FB4AD"/><path d="M1116.1 206.181L1126.94 218.2C1140.26 230.61 1124.98 268.235 1093.1 302.332C1061.23 336.43 1024.52 353.935 1011.19 341.525L1009.75 339.826L998.911 327.807" stroke="#003B2F" stroke-width="3" stroke-linecap="round" stroke-linejoin="round"/><path d="M1115.97 206.181C1117.66 208.402 1118.71 211.145 1118.97 214.542C1121.06 231.656 1106.17 261.18 1080.56 288.746C1053.52 317.487 1023.21 334.47 1006.49 331.596C1003.48 331.073 1000.74 329.898 998.781 327.938" stroke="#003B2F" stroke-width="3" stroke-linecap="round" stroke-linejoin="round"/><path d="M1006.62 331.332C1003.61 330.809 1001 329.633 998.911 327.674C985.586 315.263 1000.74 277.508 1032.75 243.41C1064.62 209.444 1101.33 191.807 1114.66 204.349L1116.1 206.047C1117.79 208.268 1118.84 211.142 1119.23 214.408C1121.32 231.391 1106.43 261.047 1080.82 288.481C1053.78 317.353 1023.47 334.206 1006.75 331.332H1006.62Z" stroke="#003B2F" stroke-width="3" stroke-linecap="round" stroke-linejoin="round"/><path d="M1001.26 319.702C997.344 307.814 1008.71 278.55 1037.45 247.98C1052.34 232.042 1068.67 219.501 1083.44 212.446C1095.85 206.567 1106.04 205.261 1110.22 209.18L1111.26 210.486C1111.26 210.486 1111.92 211.662 1112.18 212.577C1112.44 213.36 1112.57 214.275 1112.7 215.189C1114.27 227.992 1103.42 254.904 1075.99 284.298C1048.42 313.823 1020.21 327.41 1007.66 325.189C1005.71 324.928 1004.27 324.275 1003.22 323.229C1002.31 322.315 1001.66 321.27 1001.13 319.833L1001.26 319.702Z" stroke="#003B2F" stroke-width="3" stroke-linecap="round" stroke-linejoin="round"/><path d="M1077.3 265.225C1082.39 258.954 1080.82 254.121 1077.03 249.81L1084.74 241.71L1081.35 238.836L1073.77 246.805C1072.85 246.021 1071.94 245.237 1071.02 244.584L1078.73 236.484L1075.34 233.61L1067.63 241.71C1066.97 241.057 1066.06 240.534 1065.41 240.012L1060.7 235.962L1055.61 241.187C1055.61 241.187 1058.22 243.278 1058.09 243.278C1059.4 244.584 1058.74 246.021 1058.09 247.197L1049.34 256.472L1036.93 269.406C1036.27 270.059 1035.1 270.843 1034.05 270.059L1031.57 267.969L1025.3 273.325L1029.74 277.113C1030.53 277.897 1031.31 278.551 1032.09 279.204L1024.26 287.434L1027.65 290.308L1035.36 282.208C1036.27 282.992 1037.06 283.907 1037.97 284.56L1030.26 292.66L1033.66 295.534L1041.5 287.303C1047.64 291.745 1053.78 292.921 1061.62 285.475C1068.15 279.465 1068.67 275.023 1066.58 271.104C1069.98 271.365 1073.64 269.667 1077.43 265.225H1077.3ZM1055.74 278.942C1049.86 285.083 1043.2 278.289 1040.98 276.46L1051.3 265.617C1053.65 267.577 1061.75 272.672 1055.74 279.073V278.942ZM1068.8 262.22C1063.45 267.838 1057.96 262.09 1056.13 260.391L1065.54 250.463C1067.5 252.03 1074.29 256.342 1068.8 262.22Z" fill="#003B2F"/><path d="M730.958 777.107L731.611 774.233L729.39 772.274C708.749 754.245 563.999 595.647 514.225 558.545C507.562 553.581 498.156 555.279 493.583 562.203C489.142 568.997 492.016 576.835 497.895 582.191C534.997 616.55 642.122 709.305 720.637 777.63L730.958 776.977V777.107Z" fill="#003B2F"/><path d="M913.464 757.377L914.118 754.503L911.897 752.544C891.255 734.515 746.505 575.917 696.731 538.815C690.069 533.851 680.662 535.549 676.09 542.473C671.648 549.267 674.522 557.105 680.401 562.592C717.503 596.95 824.629 689.705 903.144 758.031L913.464 757.377Z" fill="#003B2F"/><path d="M795.234 947.981C788.832 947.981 782.431 946.413 775.899 943.409C710.056 912.839 717.241 783.896 717.633 778.54L727.823 779.193C727.823 780.5 720.638 906.568 780.21 934.264C791.576 939.49 802.158 938.967 812.478 932.696C849.711 909.965 871.92 818.908 873.226 785.072L883.416 785.464C882.11 819.169 860.685 915.19 817.835 941.318C810.519 945.76 802.942 947.981 795.234 947.981Z" fill="#003B2F"/><path d="M1108.25 889.456L1099.5 884.753C1119.48 847.52 1094.79 761.167 1094.66 760.252L1104.2 757.509C1105.25 761.167 1130.2 848.565 1108.25 889.325V889.456Z" fill="#003B2F"/><path d="M1041.23 882.661C1041.23 863.065 1048.28 845.559 1059.26 833.671V817.994H1092.83C1121.31 817.994 1144.44 846.996 1144.44 882.661C1144.44 918.326 1121.31 947.329 1092.83 947.329H1059.26V931.652C1048.28 919.763 1041.23 902.258 1041.23 882.661Z" fill="#003B2F" stroke="#003B2F" stroke-width="3" stroke-miterlimit="10"/><path d="M1007.66 882.661C1007.66 918.326 1030.65 947.329 1059.26 947.329C1087.74 947.329 1110.86 918.457 1110.86 882.661C1110.86 846.996 1087.87 817.994 1059.26 817.994C1030.78 817.994 1007.66 846.866 1007.66 882.661Z" fill="#03FC9D" stroke="#003B2F" stroke-width="3" stroke-miterlimit="10"/><path d="M1030.39 882.66C1030.39 902.648 1043.32 918.848 1059.26 918.848C1075.2 918.848 1088.13 902.648 1088.13 882.791C1088.13 862.803 1075.2 846.604 1059.26 846.604C1043.32 846.604 1030.39 862.803 1030.39 882.791V882.66Z" fill="#E6E8EA" stroke="#003B2F" stroke-width="3" stroke-linecap="round" stroke-linejoin="round"/><path d="M1057.04 888.931C1011.57 880.308 944.686 777.363 941.812 772.791L950.173 767.435C969.508 797.351 1025.03 873.123 1058.74 879.263C1061.09 879.655 1062.92 881.615 1062.92 884.097C1062.92 887.232 1060.04 889.453 1057.04 888.931Z" fill="#003B2F"/><path d="M853.37 535.288C823.714 551.88 794.32 557.889 781.387 551.096C779.035 549.92 777.206 548.222 776.03 546.131C768.323 532.414 790.662 505.502 825.674 485.775C860.816 466.179 895.436 461.215 903.144 474.932L903.928 476.761C904.712 478.982 904.842 481.595 904.32 484.338C901.576 498.839 881.719 519.35 853.5 535.288H853.37Z" fill="#E6E8EA"/><path d="M903.796 476.759L909.545 489.431C917.252 503.148 894.913 530.06 859.901 549.656C824.759 569.383 790.139 574.217 782.431 560.5L781.647 558.801L775.899 546.129C777.075 548.219 778.904 549.918 781.255 551.093C794.189 557.887 823.583 551.877 853.238 535.286C881.457 519.348 901.314 498.837 904.058 484.336C904.58 481.462 904.45 478.98 903.666 476.759H903.796Z" fill="#9FB4AD"/><path d="M903.796 476.759L909.545 489.431C917.252 503.148 894.913 530.06 859.901 549.656C824.759 569.383 790.139 574.217 782.431 560.5L781.647 558.801L775.899 546.129" stroke="#003B2F" stroke-width="3" stroke-linecap="round" stroke-linejoin="round"/><path d="M903.797 476.759C904.58 478.98 904.711 481.593 904.189 484.336C901.445 498.837 881.588 519.348 853.369 535.286C823.714 551.877 794.32 557.887 781.386 551.093C779.035 549.918 777.206 548.219 776.03 546.129" stroke="#003B2F" stroke-width="3" stroke-linecap="round" stroke-linejoin="round"/><path d="M781.387 551.223C779.035 550.047 777.206 548.349 776.03 546.259C768.322 532.541 790.662 505.499 825.674 485.903C860.816 466.307 895.436 461.342 903.144 475.06L903.928 476.758C904.711 478.979 904.842 481.592 904.32 484.466C901.576 498.967 881.719 519.477 853.5 535.416C823.845 552.138 794.451 558.016 781.517 551.354L781.387 551.223Z" stroke="#003B2F" stroke-width="3" stroke-linecap="round" stroke-linejoin="round"/><path d="M779.95 540.255C779.95 529.412 796.802 508.379 828.287 490.742C844.617 481.598 861.339 475.457 875.318 473.498C887.075 471.799 895.698 473.498 898.18 477.809L898.702 479.115C898.702 479.115 898.964 480.161 898.964 481.075C898.964 481.728 898.964 482.643 898.702 483.427C896.612 494.27 880.674 513.605 850.626 530.588C820.318 547.702 793.536 551.49 783.869 546.395C782.301 545.612 781.387 544.828 780.734 543.652C780.211 542.607 779.95 541.562 779.95 540.255Z" stroke="#003B2F" stroke-width="3" stroke-linecap="round" stroke-linejoin="round"/><path d="M855.198 515.17C860.946 510.598 860.424 506.025 857.942 501.583L866.303 495.705L863.82 492.569L855.59 498.317C854.937 497.403 854.284 496.619 853.631 495.966L861.861 490.218L859.379 487.082L851.018 492.961C850.495 492.308 849.973 491.655 849.319 491.002L845.923 486.69L840.436 490.479C840.436 490.479 842.395 492.7 842.134 492.7C843.049 494.006 842.134 495.182 841.35 496.097L831.813 502.759L818.357 512.035C817.704 512.557 816.529 512.949 815.745 512.035L814.046 509.814L807.384 513.472L810.519 517.522C811.042 518.305 811.564 519.089 812.217 519.743L803.726 525.621L806.208 528.757L814.569 522.878C815.222 523.792 815.745 524.576 816.529 525.36L808.167 531.239L810.65 534.374L819.141 528.495C823.714 533.329 828.939 535.55 837.3 530.324C844.224 526.144 845.531 522.355 844.355 518.436C847.229 519.22 850.887 518.436 855.068 515.17H855.198ZM833.512 523.531C827.11 527.973 822.538 520.918 820.97 518.828L832.205 510.99C833.904 513.08 840.175 518.959 833.512 523.531ZM848.274 510.99C842.526 515.039 838.737 509.03 837.431 507.201L847.621 500.146C849.058 501.845 854.284 506.809 848.274 510.99Z" fill="#003B2F"/><path d="M652.704 615.241L662.763 641.239C663.417 642.937 664.984 644.243 666.683 644.505C674.652 646.072 699.604 647.509 757.086 626.084C815.874 604.137 835.079 584.671 840.304 578.009C841.48 576.571 841.611 574.743 841.088 573.044L831.029 545.479" fill="#9FB4AD"/><path d="M652.704 615.241L662.763 641.239C663.417 642.937 664.984 644.243 666.683 644.505C674.652 646.072 699.604 647.509 757.086 626.084C815.874 604.137 835.079 584.671 840.304 578.009C841.48 576.571 841.611 574.743 841.088 573.044L831.029 545.479" stroke="#003B2F" stroke-width="3" stroke-miterlimit="10"/><path d="M735.661 561.546C685.756 579.835 648.523 603.873 652.704 615.239C652.965 616.023 653.488 616.676 654.01 617.329C655.447 618.766 657.668 619.681 660.542 620.334C676.089 623.731 711.492 617.199 750.684 602.959C789.877 588.719 821.492 570.56 831.029 557.888C833.511 554.491 834.556 551.486 833.641 549.135C829.461 537.638 785.566 543.125 735.661 561.415V561.546Z" fill="#E6E8EA" stroke="#003B2F" stroke-width="3" stroke-miterlimit="10"/><path d="M737.49 567.03C695.946 582.184 664.592 602.173 667.466 610.142C670.34 618.111 706.397 612.232 748.071 596.947C789.746 581.662 821.1 562.98 818.226 555.142C815.351 547.303 779.164 551.745 737.49 567.03Z" stroke="#003B2F" stroke-width="3" stroke-linecap="round" stroke-linejoin="round"/><path d="M779.948 565.598L750.293 578.009L741.801 571.346L779.948 565.598ZM750.293 578.009L724.557 588.722L741.801 571.346L750.293 578.009ZM719.984 590.681L699.996 599.042L737.229 573.306L720.115 590.681H719.984ZM779.948 565.729L750.293 578.14L736.445 594.078L779.818 565.729H779.948ZM750.293 578.14L724.557 588.852L736.445 594.078L750.293 578.14ZM719.984 590.812L699.996 599.173L731.872 596.037L719.984 590.812Z" fill="#003B2F"/><path d="M863.166 539.858L863.689 567.685C863.689 569.513 864.734 571.212 866.302 572.126C873.226 576.307 896.218 586.236 957.489 585.844C1020.2 585.321 1045.02 573.694 1052.2 569.252C1053.77 568.338 1054.69 566.639 1054.69 564.81V535.547" fill="#9FB4AD"/><path d="M863.166 539.858L863.689 567.685C863.689 569.513 864.734 571.212 866.302 572.126C873.226 576.307 896.218 586.236 957.489 585.844C1020.2 585.321 1045.02 573.694 1052.2 569.252C1053.77 568.338 1054.69 566.639 1054.69 564.81V535.547" stroke="#003B2F" stroke-width="3" stroke-miterlimit="10"/><path d="M959.579 517.782C906.409 517.782 863.297 527.71 863.297 539.86C863.297 540.644 863.428 541.428 863.82 542.212C864.603 544.041 866.432 545.739 868.915 547.307C882.371 555.798 917.774 561.938 959.449 561.938C1001.12 561.938 1037.05 555.798 1050.24 547.176C1053.77 544.824 1055.73 542.473 1055.73 539.86C1055.73 527.71 1012.62 517.782 959.449 517.782H959.579Z" fill="#E6E8EA" stroke="#003B2F" stroke-width="3" stroke-miterlimit="10"/><path d="M959.448 523.663C915.161 523.663 878.843 531.763 878.843 540.254C878.843 548.746 914.769 555.539 959.056 555.539C1003.34 555.539 1039.27 548.746 1039.27 540.254C1039.27 531.763 1003.74 523.663 959.448 523.663Z" stroke="#003B2F" stroke-width="3" stroke-linecap="round" stroke-linejoin="round"/><path d="M967.548 550.706C965.719 550.706 964.282 550.314 964.282 549.922V547.309C960.885 547.309 957.358 547.309 954.092 547.048V549.661C954.092 549.661 952.524 550.445 950.826 550.314C949.127 550.183 947.56 549.922 947.56 549.53V546.525C943.379 546.133 939.46 545.35 936.063 544.566C923.26 541.3 923.26 536.466 936.194 533.592C939.591 532.808 943.51 532.285 947.69 532.024V529.019C947.69 529.019 949.258 528.236 950.956 528.366C952.655 528.497 954.222 528.758 954.222 529.15V531.763C957.488 531.763 961.016 531.763 964.412 531.894V529.281C964.412 529.281 965.98 528.497 967.678 528.628C969.377 528.758 970.944 529.019 970.944 529.411V532.416C975.386 532.939 979.436 533.592 982.963 534.376C984.27 534.637 984.27 535.16 982.963 535.421C981.657 535.682 979.567 535.682 978.391 535.421C976.17 534.898 973.688 534.376 970.944 534.114V536.597C970.944 536.597 969.377 537.38 967.678 537.25C965.98 537.119 964.412 536.858 964.412 536.466V533.461C961.146 533.2 957.488 533.2 954.222 533.331V536.335C954.222 536.335 952.655 537.119 950.956 536.989C949.258 536.858 947.69 536.597 947.69 536.205V533.853C945.208 534.114 942.857 534.506 940.766 534.898C930.315 537.119 930.315 541.169 940.636 543.651C942.726 544.174 944.947 544.566 947.56 544.958V542.475C947.56 542.475 949.127 541.692 950.826 541.822C952.524 541.953 954.092 542.214 954.092 542.606V545.611C957.358 545.872 960.885 545.872 964.282 545.872V542.867C964.282 542.867 965.849 542.084 967.548 542.214C969.246 542.345 970.814 542.606 970.814 542.998V545.611C973.557 545.35 976.039 544.958 978.26 544.566C979.567 544.304 981.526 544.304 982.833 544.566C984.139 544.827 984.139 545.35 982.833 545.611C979.305 546.395 975.255 546.917 970.683 547.179V550.053C970.683 550.053 969.115 550.836 967.417 550.706H967.548Z" fill="#003B2F"/><path d="M1013.64 534.994C1047.98 511.081 1056.44 463.856 1032.52 429.514C1008.61 395.172 961.384 386.717 927.042 410.63C892.7 434.543 884.245 481.768 908.158 516.11C932.071 550.453 979.296 558.907 1013.64 534.994Z" fill="#9FB4AD" stroke="#003B2F" stroke-width="3" stroke-miterlimit="10"/><path d="M977.086 548.093C1018.93 548.093 1052.86 514.169 1052.86 472.321C1052.86 430.474 1018.93 396.55 977.086 396.55C935.238 396.55 901.314 430.474 901.314 472.321C901.314 514.169 935.238 548.093 977.086 548.093Z" fill="#E6E8EA" stroke="#003B2F" stroke-width="3" stroke-linecap="round" stroke-linejoin="round"/><path d="M931.231 524.84C917.513 512.56 909.283 495.707 908.238 477.287C907.193 458.867 913.333 441.23 925.613 427.382C937.893 413.665 954.746 405.434 973.166 404.389C991.587 403.344 1009.22 409.484 1023.07 421.765C1036.79 434.045 1045.02 450.897 1046.06 469.318C1047.11 487.738 1040.97 505.375 1028.69 519.223C1016.41 532.94 999.556 541.17 981.135 542.215C962.715 543.261 945.079 537.12 931.231 524.84Z" stroke="#003B2F" stroke-width="3" stroke-linecap="round" stroke-linejoin="round"/><path d="M1020.33 458.474C1020.85 446.978 1010.79 441.883 997.596 439.139L1000.08 423.332L989.757 422.156L987.406 437.572C984.662 437.18 981.788 436.918 979.175 436.788L981.657 421.111L971.337 419.935L968.855 435.743C966.764 435.351 964.282 435.22 962.192 435.089L947.821 433.26L946.254 443.581C946.254 443.581 954.092 444.365 953.831 444.496C958.142 445.149 959.057 447.5 959.187 449.46L956.444 467.488L952.525 492.833C952.263 494.139 951.218 495.968 948.083 495.707L940.506 494.792L936.586 506.027L950.173 507.726C952.786 508.118 955.137 508.51 957.489 508.64L955.007 524.709L965.327 525.885L967.809 510.077C970.553 510.469 973.427 510.992 976.04 511.122L973.558 526.93L983.878 528.106L986.36 512.037C1004 513.213 1016.93 510.469 1020.72 495.445C1023.99 483.165 1018.5 477.156 1008.96 473.628C1015.49 471.538 1019.94 466.704 1020.33 458.474ZM1000.6 491.134C998.771 503.153 976.693 499.234 969.9 498.45L973.166 477.286C980.22 478.201 1002.56 478.723 1000.6 491.265V491.134ZM1000.34 460.564C998.641 471.538 980.351 468.011 974.472 467.358L977.477 448.023C983.356 448.676 1002.04 449.199 1000.34 460.564Z" fill="#003B2F"/><path d="M1161.29 564.286C1151.1 578.004 1113.08 566.899 1076.77 539.595C1040.45 512.161 1019.41 478.847 1029.73 465.261L1042.67 448.8C1040.58 451.805 1039.66 455.462 1040.19 459.774C1041.75 476.365 1060.96 501.84 1089.83 523.526C1118.18 544.951 1147.44 556.448 1163.9 553.966C1168.61 553.182 1172.26 551.483 1174.62 548.348L1161.29 564.417V564.286Z" fill="#9FB4AD"/><path d="M1174.62 548.218C1172.26 551.353 1168.61 553.182 1163.9 553.835C1147.44 556.317 1118.05 544.821 1089.83 523.396C1060.96 501.71 1041.75 476.104 1040.19 459.643C1039.66 455.332 1040.45 451.674 1042.67 448.669C1053.12 434.821 1091.14 446.057 1127.59 473.491C1164.03 500.926 1185.07 534.37 1174.75 548.218H1174.62Z" fill="#E6E8EA"/><path d="M1174.62 548.217L1161.29 564.286C1151.1 578.004 1113.08 566.899 1076.77 539.595C1040.45 512.161 1019.41 478.847 1029.73 465.261L1042.67 448.8" stroke="#003B2F" stroke-width="3" stroke-linecap="round" stroke-linejoin="round"/><path d="M1174.62 548.218C1172.26 551.353 1168.61 553.182 1163.9 553.835C1147.44 556.317 1118.05 544.821 1089.83 523.396C1060.96 501.71 1041.75 476.104 1040.19 459.643C1039.66 455.332 1040.45 451.674 1042.67 448.669C1053.12 434.821 1091.14 446.057 1127.59 473.491C1164.03 500.926 1185.07 534.37 1174.75 548.218H1174.62Z" stroke="#003B2F" stroke-width="3" stroke-linecap="round" stroke-linejoin="round"/><path d="M1163.77 553.706C1147.31 556.188 1118.05 544.691 1089.7 523.266C1060.83 501.58 1041.62 475.974 1040.06 459.513C1039.53 455.202 1040.32 451.544 1042.54 448.54C1052.99 434.692 1090.87 445.796 1127.32 473.361C1163.77 500.927 1184.94 534.371 1174.49 548.088C1172.13 551.223 1168.48 553.052 1163.77 553.706Z" stroke="#003B2F" stroke-width="3" stroke-linecap="round" stroke-linejoin="round"/><path d="M1047.76 465.13C1046.98 462.909 1046.59 460.819 1046.33 459.12C1045.93 456.246 1046.33 454.025 1047.63 452.458C1050.9 448.277 1060.7 447.885 1073.5 451.674C1088.78 456.116 1106.68 465.652 1123.67 478.586C1146.66 495.961 1164.3 516.341 1169.52 532.018C1170.57 535.284 1172.13 541.293 1169.52 544.559C1168.35 546.258 1166.12 547.303 1162.86 547.695C1147.7 549.916 1119.22 537.897 1093.49 518.562C1070.63 501.317 1052.99 480.937 1047.63 465.26L1047.76 465.13Z" stroke="#003B2F" stroke-width="3" stroke-linecap="round" stroke-linejoin="round"/><path d="M1154.89 544.957L1122.23 511.513L1128.76 493.354L1154.89 544.957ZM1122.23 511.513L1093.88 482.38L1128.63 493.354L1122.1 511.513H1122.23ZM1088.78 477.155L1066.71 454.554L1123.53 488.128L1088.78 477.285V477.155ZM1154.76 544.957L1122.1 511.513L1091 504.459L1154.76 545.088V544.957ZM1122.1 511.513L1093.75 482.38L1091 504.328L1122.1 511.383V511.513ZM1088.65 477.155L1066.57 454.554L1085.78 499.102L1088.65 477.155Z" fill="#003B2F"/><path d="M869.439 504.59L869.83 532.025C869.83 534.115 871.006 536.075 872.835 537.12C880.151 541.431 903.536 551.098 964.284 550.576C1026.08 550.184 1051.29 538.949 1059.13 534.246C1060.96 533.201 1062 531.372 1062 529.281V505.113" fill="#9FB4AD"/><path d="M869.439 504.59L869.83 532.025C869.83 534.115 871.006 536.075 872.835 537.12C880.151 541.431 903.536 551.098 964.284 550.576C1026.08 550.184 1051.29 538.949 1059.13 534.246C1060.96 533.201 1062 531.372 1062 529.281V505.113" stroke="#003B2F" stroke-width="3" stroke-miterlimit="10"/><path d="M965.721 482.513C912.55 482.513 869.438 492.441 869.438 504.591C869.438 505.375 869.569 506.159 869.961 506.943C870.745 508.771 872.574 510.47 875.056 512.038C888.512 520.529 923.916 526.669 965.59 526.669C1007.26 526.669 1043.19 520.529 1056.39 511.907C1059.91 509.555 1061.87 507.204 1061.87 504.591C1061.87 492.441 1018.76 482.513 965.59 482.513H965.721Z" fill="#E6E8EA" stroke="#003B2F" stroke-width="3" stroke-miterlimit="10"/><path d="M965.589 488.394C921.302 488.394 884.984 496.494 884.984 504.985C884.984 513.477 920.91 520.27 965.197 520.27C1009.48 520.27 1045.41 513.477 1045.41 504.985C1045.41 496.494 1009.88 488.394 965.589 488.394Z" stroke="#003B2F" stroke-width="3" stroke-linecap="round" stroke-linejoin="round"/><path d="M1008.18 509.556L983.096 508.381L958.144 507.336L933.061 506.16L929.011 506.029L932.016 505.507L944.426 503.416L953.049 503.808L978.001 504.984L1003.08 506.029L997.989 502.632L972.906 501.457L959.842 500.934L969.64 499.236L988.452 496.1L983.88 493.096L965.068 496.231L946.255 499.236L941.422 500.15L922.871 499.236L927.443 502.371L926.137 502.632L910.721 505.245L908.762 505.507L913.203 508.511L913.726 508.642L938.156 509.687L963.239 510.732L988.191 511.908L1013.27 512.953L1008.18 509.556Z" fill="#003B2F"/><path d="M973.69 552.273L975.127 579.446C975.127 581.798 976.433 583.888 978.523 585.064C986.231 589.506 1009.49 598.781 1068.67 598.389C1128.76 597.997 1153.84 587.154 1161.94 582.32C1164.03 581.145 1165.21 578.924 1165.21 576.572V552.012" fill="#9FB4AD"/><path d="M973.69 552.273L975.127 579.446C975.127 581.798 976.433 583.888 978.523 585.064C986.231 589.506 1009.49 598.781 1068.67 598.389C1128.76 597.997 1153.84 587.154 1161.94 582.32C1164.03 581.145 1165.21 578.924 1165.21 576.572V552.012" stroke="#003B2F" stroke-width="3" stroke-miterlimit="10"/><path d="M1069.97 530.195C1016.8 530.195 973.69 540.124 973.69 552.274C973.69 553.057 973.82 553.841 974.212 554.625C974.996 556.454 976.825 558.152 979.307 559.72C992.763 568.212 1028.17 574.352 1069.84 574.352C1111.52 574.352 1147.44 568.212 1160.64 559.59C1164.16 557.238 1166.12 554.886 1166.12 552.274C1166.12 540.124 1123.01 530.195 1069.84 530.195H1069.97Z" fill="#E6E8EA" stroke="#003B2F" stroke-width="3" stroke-miterlimit="10"/><path d="M1069.84 536.077C1025.55 536.077 989.235 544.176 989.235 552.668C989.235 561.16 1025.16 567.953 1069.45 567.953C1113.74 567.953 1149.66 561.16 1149.66 552.668C1149.66 544.176 1114.13 536.077 1069.84 536.077Z" stroke="#003B2F" stroke-width="3" stroke-linecap="round" stroke-linejoin="round"/><path d="M1113.74 552.794L1081.99 552.402L1076.37 540.513L1113.74 552.663V552.794ZM1081.99 552.402L1054.43 552.141L1076.37 540.644L1081.99 552.532V552.402ZM1049.46 552.01L1028.04 551.749L1071.41 540.383L1049.59 551.879L1049.46 552.01ZM1113.74 552.663L1081.99 552.271L1063.7 563.898L1113.74 552.663ZM1081.99 552.271L1054.43 552.01L1063.7 563.898L1081.99 552.271ZM1049.46 551.879L1028.04 551.618L1058.74 563.768L1049.46 551.879Z" fill="#003B2F"/><path d="M1070.89 475.189L1055.34 496.615C1053.64 498.966 1053.38 501.971 1054.56 504.584C1058.61 513.467 1072.45 534.892 1118.57 569.381C1170.3 608.051 1197.22 613.277 1204.92 613.93C1206.36 613.93 1207.8 613.407 1208.58 612.232L1224.13 591.852" fill="#9FB4AD"/><path d="M1070.89 475.189L1055.34 496.615C1053.64 498.966 1053.38 501.971 1054.56 504.584C1058.61 513.467 1072.45 534.892 1118.57 569.381C1170.3 608.051 1197.22 613.277 1204.92 613.93C1206.36 613.93 1207.8 613.407 1208.58 612.232L1224.13 591.852" stroke="#003B2F" stroke-width="3" stroke-miterlimit="10"/><path d="M1160.9 515.951C1118.57 483.814 1078.2 465.524 1070.89 475.191C1070.36 475.845 1070.1 476.628 1069.84 477.412C1069.45 479.372 1069.84 481.723 1070.89 484.597C1076.37 499.491 1100.93 525.749 1134.12 550.963C1167.3 576.177 1199.7 593.029 1215.38 594.205C1219.56 594.466 1222.56 593.683 1224.13 591.723C1231.44 582.055 1203.1 548.089 1160.9 515.821V515.951Z" fill="#E6E8EA" stroke="#003B2F" stroke-width="3" stroke-miterlimit="10"/><path d="M1157.24 520.39C1121.97 493.609 1088.26 478.063 1083.17 484.856C1078.07 491.649 1102.5 518.823 1137.78 545.604C1173.05 572.385 1205.71 588.715 1210.8 581.922C1215.9 575.129 1192.51 547.302 1157.24 520.39Z" stroke="#003B2F" stroke-width="3" stroke-linecap="round" stroke-linejoin="round"/><path fill-rule="evenodd" clip-rule="evenodd" d="M1123.27 519.869L1116.61 515.689L1121.84 515.166L1128.5 519.347L1144.18 517.518L1166.65 534.631L1155.02 535.938L1161.68 540.118L1156.46 540.641L1149.79 536.46L1143.39 537.244L1177.23 562.981L1170.43 563.764L1114.13 520.914L1123.01 519.869H1123.27Z" fill="#003B2F"/><path d="M793.928 566.121L795.495 594.47C795.495 596.952 796.802 599.304 799.023 600.48C807.122 605.052 831.813 614.85 893.998 614.458C958.012 613.936 984.402 602.439 992.632 597.475C994.592 596.299 995.768 594.209 995.768 591.988V566.252" fill="#9FB4AD"/><path d="M793.928 566.121L795.495 594.47C795.495 596.952 796.802 599.304 799.023 600.48C807.122 605.052 831.813 614.85 893.998 614.458C958.012 613.936 984.402 602.439 992.632 597.475C994.592 596.299 995.768 594.209 995.768 591.988V566.252" stroke="#003B2F" stroke-width="3" stroke-miterlimit="10"/><path d="M894.913 542.998C839.129 542.998 793.928 553.318 793.928 566.121C793.928 567.035 794.058 567.819 794.581 568.603C795.495 570.432 797.324 572.261 799.937 573.959C814.046 582.843 851.148 589.244 894.913 589.244C938.678 589.244 976.302 582.843 990.15 573.829C993.808 571.477 995.898 568.864 995.898 566.121C995.898 553.318 950.697 542.998 894.913 542.998Z" fill="#E6E8EA" stroke="#003B2F" stroke-width="3" stroke-miterlimit="10"/><path d="M894.782 549.141C848.405 549.141 810.388 557.632 810.388 566.516C810.388 575.399 848.013 582.585 894.521 582.585C941.029 582.585 978.654 575.399 978.654 566.516C978.654 557.632 941.421 549.141 894.913 549.141H894.782Z" stroke="#003B2F" stroke-width="3" stroke-linecap="round" stroke-linejoin="round"/><path d="M846.184 572.133L863.69 569.259C866.433 568.736 869.569 568.345 872.312 567.822C880.412 566.516 880.934 564.425 873.357 562.988C873.096 562.988 872.835 562.988 872.573 562.858C864.212 561.421 855.982 559.984 847.621 558.546H847.098V555.672C847.098 555.672 847.621 555.672 847.882 555.672C858.987 557.632 869.83 559.461 880.934 561.421C887.336 562.466 890.602 563.903 890.341 565.47C890.341 566.777 887.075 568.083 881.457 568.998C870.091 570.957 858.464 572.917 846.837 574.877H846.315V572.264L846.184 572.133Z" fill="#003B2F"/><path d="M941.291 575.135C939.592 574.874 938.025 574.482 936.326 574.221C926.92 572.653 917.514 570.955 907.716 569.256C901.314 568.211 898.048 566.774 898.31 565.206C898.31 563.9 901.576 562.594 906.932 561.679C918.559 559.72 930.186 557.76 942.074 555.8H942.597V558.413C942.597 558.413 942.336 558.544 941.813 558.674C933.191 560.111 924.569 561.549 916.077 562.986C908.369 564.292 907.977 566.513 916.077 567.819C924.438 569.256 932.93 570.693 941.552 572.261C942.074 572.261 942.336 572.522 942.336 572.653V575.266H941.291V575.135Z" fill="#003B2F"/><path d="M870.091 643.195C837.039 651.164 807.122 649.074 796.41 639.015C794.45 637.186 793.144 635.096 792.621 632.744C788.963 617.459 817.704 597.602 856.766 588.065C895.827 578.659 930.578 583.231 934.236 598.516L934.497 600.476C934.628 602.827 934.105 605.31 932.799 607.922C926.267 621.248 901.576 635.618 870.091 643.326V643.195Z" fill="#E6E8EA"/><path d="M934.497 600.482L936.588 614.199C940.246 629.484 911.505 649.341 872.443 658.878C833.381 668.415 798.631 663.712 794.973 648.427L794.712 646.467L792.622 632.75C793.144 635.102 794.451 637.322 796.541 639.021C807.253 649.08 837.039 651.17 870.222 643.201C901.707 635.493 926.398 621.123 932.93 607.798C934.236 605.185 934.759 602.703 934.628 600.351L934.497 600.482Z" fill="#9FB4AD"/><path d="M934.497 600.479L936.588 614.196C940.246 629.481 911.505 649.338 872.443 658.875C833.381 668.412 798.631 663.709 794.973 648.424L794.712 646.464L792.622 632.747" stroke="#003B2F" stroke-width="3" stroke-linecap="round" stroke-linejoin="round"/><path d="M934.497 600.479C934.628 602.83 934.106 605.312 932.799 607.925C926.267 621.25 901.576 635.621 870.092 643.329C837.039 651.298 807.123 649.208 796.41 639.148C794.451 637.319 793.144 635.229 792.622 632.877" stroke="#003B2F" stroke-width="3" stroke-linecap="round" stroke-linejoin="round"/><path d="M796.41 639.018C794.45 637.189 793.144 635.098 792.49 632.747C788.833 617.462 817.574 597.474 856.635 587.937C895.697 578.531 930.447 583.103 934.105 598.388L934.366 600.348C934.497 602.699 933.974 605.312 932.668 607.794C926.136 620.989 901.445 635.49 869.96 643.067C836.908 651.036 806.992 648.946 796.279 638.887L796.41 639.018Z" stroke="#003B2F" stroke-width="3" stroke-linecap="round" stroke-linejoin="round"/><path d="M798.107 628.176C800.981 617.725 822.798 602.048 858.071 593.557C876.361 589.115 894.128 587.678 907.976 589.637C919.734 591.205 927.703 595.124 928.879 599.958V601.395C928.879 601.395 928.879 602.571 928.879 603.355C928.748 604.008 928.356 604.792 927.964 605.576C923 615.504 902.489 629.875 868.915 637.974C835.079 646.205 808.297 642.678 800.328 635.231C799.022 634.055 798.368 633.01 798.107 631.704C797.846 630.659 797.846 629.483 798.107 628.307V628.176Z" stroke="#003B2F" stroke-width="3" stroke-linecap="round" stroke-linejoin="round"/><path d="M851.801 604.918C852.977 604.918 853.892 605.179 854.676 605.571C855.459 605.963 855.851 606.355 856.766 607.4L867.87 619.811C868.915 620.987 869.438 621.64 869.569 622.293C869.699 622.946 869.569 623.73 868.915 624.514C868.393 625.167 867.478 625.821 865.78 627.127L858.464 632.483C857.027 633.528 856.243 634.051 855.459 634.312C855.067 634.312 854.545 634.443 854.153 634.312C853.761 634.182 853.369 634.312 852.977 634.051C852.324 633.79 851.932 633.267 851.148 632.222L834.687 609.882C834.034 609.099 833.773 608.707 833.904 608.315C833.904 608.053 834.165 607.923 834.296 607.661C834.557 607.531 834.818 607.27 835.079 607.139C835.602 606.878 836.516 606.747 838.345 606.486L847.36 605.31C849.581 605.049 850.756 604.918 851.801 604.918ZM899.355 601.129C899.355 601.129 900.269 601.391 900.53 601.521C900.792 601.783 900.922 601.913 900.922 602.305C900.922 602.828 899.747 603.612 897.526 605.049L883.808 614.324C881.849 615.631 880.934 616.284 879.889 616.545C879.367 616.676 878.713 616.806 878.191 616.806C877.668 616.806 877.146 616.806 876.623 616.806C875.709 616.676 875.186 616.153 874.01 615.108L866.694 608.445C865.649 607.531 865.127 607.008 865.257 606.616C865.257 606.355 865.519 606.094 865.911 605.832C866.172 605.571 866.564 605.441 867.086 605.179C867.87 604.787 869.307 604.657 872.051 604.395L892.953 601.783C896.481 601.391 898.179 601.129 899.224 601.26L899.355 601.129Z" fill="#003B2F"/><path d="M634.676 614.198L702.086 779.197L945.209 804.933L1035.35 566.906L634.676 614.198Z" fill="#03FC9D" stroke="#003B2F" stroke-width="3" stroke-linecap="round" stroke-linejoin="round"/><path d="M1035.35 566.906L945.209 804.933H1143.39L1233.53 566.906H1035.35Z" fill="#03FC9D" stroke="#003B2F" stroke-width="3" stroke-linecap="round" stroke-linejoin="round"/><path d="M1158.68 613.805C1154.23 605.052 1143.65 601.394 1134.77 605.836C1126.02 610.278 1122.36 620.86 1126.8 629.743L1292.97 962.747C1297.42 971.5 1308 975.158 1316.88 970.716C1325.64 966.274 1329.29 955.692 1324.85 946.809L1158.68 613.805Z" fill="#03FC9D" stroke="#003B2F" stroke-width="3" stroke-linecap="round" stroke-linejoin="round"/><path d="M1147.31 619.685L1313.35 952.427" stroke="#003B2F" stroke-width="3" stroke-linecap="round" stroke-linejoin="round"/><path d="M1331.38 925.255L1313.62 892.856C1316.75 891.027 1364.43 884.234 1428.58 819.697C1414.86 883.711 1331.38 925.124 1331.38 925.124V925.255Z" fill="#E6E8EA" stroke="#003B2F" stroke-width="3" stroke-linecap="round" stroke-linejoin="round"/><path d="M1276.64 951.383L1218.51 981.562L1181.28 964.709L1188.07 941.847C1190.94 941.063 1206.88 936.752 1256.39 918.201L1276.64 951.383Z" fill="#E6E8EA" stroke="#003B2F" stroke-width="3" stroke-linecap="round" stroke-linejoin="round"/><path d="M1307.26 890.346L1258.75 914.562C1255.08 916.399 1253.58 920.871 1255.42 924.551L1269.13 952.018C1270.97 955.698 1275.44 957.192 1279.12 955.355L1327.63 931.138C1331.31 929.301 1332.8 924.829 1330.96 921.15L1317.25 893.682C1315.41 890.002 1310.94 888.509 1307.26 890.346Z" fill="#E6E8EA" stroke="#003B2F" stroke-width="3" stroke-linecap="round" stroke-linejoin="round"/><path d="M1187.03 964.316L1221.51 964.185L1266.32 946.549" stroke="#003B2F" stroke-width="3" stroke-linecap="round" stroke-linejoin="round"/><path d="M1043.97 556.062L1098.97 626.347L1121.05 539.993L1044.1 556.193L1043.97 556.062ZM1084.47 588.722L1066.97 566.383L1104.07 558.544L1097.01 586.109L1084.47 588.722Z" fill="#003B2F"/><path d="M1106.29 916.24C1119.88 976.596 1152.67 1020.36 1180.62 1014.48C1208.58 1008.6 1220.99 955.301 1209.1 894.684L1152.54 880.967L1106.29 916.24Z" fill="#E6E8EA" stroke="#003B2F" stroke-width="3" stroke-linecap="round" stroke-linejoin="round"/><path d="M1168.61 909.312C1169.78 914.668 1166.25 920.024 1160.9 921.07C1155.54 922.245 1150.19 918.718 1149.14 913.362L1086.3 614.325C1085.13 608.969 1088.65 603.612 1094.01 602.567C1099.37 601.391 1104.72 604.919 1105.77 610.275L1168.61 909.312Z" fill="#03FC9D" stroke="#003B2F" stroke-width="3" stroke-linecap="round" stroke-linejoin="round"/><path d="M1161.55 910.748L1098.71 611.711" stroke="#003B2F" stroke-width="3" stroke-linecap="round" stroke-linejoin="round"/><path d="M1138.04 883.972L1144.44 914.542C1146.13 922.511 1153.84 927.606 1161.81 925.908C1169.78 924.209 1174.88 916.501 1173.18 908.532L1166.78 877.962L1138.04 883.972Z" fill="#E6E8EA" stroke="#003B2F" stroke-width="3" stroke-linecap="round" stroke-linejoin="round"/><path d="M1105.24 596.101L1081.08 601.18L1088.63 637.105L1112.79 632.026L1105.24 596.101Z" fill="#E6E8EA" stroke="#003B2F" stroke-width="3" stroke-linecap="round" stroke-linejoin="round"/><path d="M858.143 176.124C879.437 209.045 905.957 230.993 922.81 231.123C925.815 231.123 928.689 230.47 931.04 228.902C946.195 219.104 938.095 179.651 913.012 140.72C887.929 101.92 855.399 78.143 840.245 87.9411L838.416 89.3781C836.456 91.2071 834.889 93.6892 833.974 96.9553C828.879 113.285 838.155 144.77 858.274 176.124H858.143Z" fill="#E6E8EA"/><path d="M838.416 89.3774L825.744 99.1755C810.59 108.974 818.69 148.427 843.773 187.227C868.856 226.158 901.516 249.804 916.67 240.006L918.368 238.7L931.041 228.902C928.689 230.47 925.946 231.123 922.81 231.123C905.958 231.123 879.438 209.044 858.143 176.123C838.024 144.769 828.88 113.154 833.844 96.9546C834.758 93.8192 836.326 91.2064 838.286 89.3774H838.416Z" fill="#9FB4AD"/><path d="M838.416 89.3774L825.744 99.1755C810.59 108.974 818.69 148.427 843.773 187.227C868.856 226.158 901.516 249.804 916.67 240.006L918.368 238.7L931.041 228.902" stroke="#003B2F" stroke-width="3" stroke-linecap="round" stroke-linejoin="round"/><path d="M838.416 89.3774C836.456 91.2064 834.889 93.6886 833.974 96.9546C828.879 113.285 838.155 144.769 858.274 176.123C879.568 209.044 906.088 230.992 922.941 231.123C925.945 231.123 928.82 230.47 931.171 228.902" stroke="#003B2F" stroke-width="3" stroke-linecap="round" stroke-linejoin="round"/><path d="M922.941 231.122C926.076 231.122 928.82 230.469 931.171 229.032C946.325 219.234 938.226 179.78 913.143 140.849C887.929 101.918 855.269 78.2721 840.114 88.0701L838.416 89.3765C836.326 91.2055 834.889 93.8183 833.974 96.9537C828.879 113.153 838.155 144.768 858.274 176.122C879.568 209.044 906.088 230.991 922.941 231.122Z" stroke="#003B2F" stroke-width="3" stroke-linecap="round" stroke-linejoin="round"/><path d="M930.257 220.674C936.266 209.7 930.257 179.261 907.786 144.249C896.029 126.09 882.442 110.805 869.247 101.399C858.274 93.43 848.476 90.4253 843.642 93.43L842.335 94.4752C842.335 94.4752 841.552 95.5203 841.029 96.3041C840.637 97.088 840.245 97.8718 839.984 98.7863C836.195 110.936 841.943 139.154 863.499 172.729C885.186 206.434 910.269 224.724 922.941 224.724C924.9 224.724 926.337 224.463 927.644 223.679C928.689 223.026 929.603 221.981 930.257 220.674Z" stroke="#003B2F" stroke-width="3" stroke-linecap="round" stroke-linejoin="round"/><path d="M900.994 142.941L881.136 146.468L861.279 116.421L900.994 142.941ZM900.994 142.941L898.25 172.466L881.006 146.468L900.863 142.941H900.994ZM904.129 147.644L914.842 197.418L901.386 177.169L904.129 147.644ZM876.172 172.466L881.136 146.338L861.279 116.29L876.172 172.466ZM876.172 172.466H898.381L881.136 146.338L876.172 172.466ZM879.307 177.169L914.842 197.418L901.386 177.169H879.307Z" fill="#003B2F"/><path d="M1685.01 229.407H1637.77C1652.65 229.407 1664.92 217.289 1664.92 202.256C1664.92 187.223 1652.8 175.105 1637.77 175.105H1502.01C1487.14 175.105 1474.86 187.223 1474.86 202.256H1433.14C1418.26 202.256 1405.99 214.374 1405.99 229.407C1405.99 244.439 1418.11 256.557 1433.14 256.557H1522.11C1522.11 271.437 1534.23 283.708 1549.26 283.708H1685.01C1699.89 283.708 1712.16 271.59 1712.16 256.557C1712.16 241.525 1700.05 229.407 1685.01 229.407Z" fill="#03FC9D"/><path d="M1340.28 340.92L1576.36 340.92C1602.36 340.92 1623.45 319.836 1623.45 293.828C1623.45 267.82 1602.36 246.736 1576.36 246.736L1340.28 246.736C1314.27 246.736 1293.19 267.82 1293.19 293.828C1293.19 319.836 1314.27 340.92 1340.28 340.92Z" fill="#E6E8EA"/><path d="M146.357 857.952H270.368C284.036 857.952 295.117 846.871 295.117 833.203C295.117 819.535 284.036 808.454 270.368 808.454H146.357C132.689 808.454 121.608 819.535 121.608 833.203C121.608 846.871 132.689 857.952 146.357 857.952Z" fill="#03FC9D"/><path d="M213.722 820.069H416.715C439.117 820.069 457.277 801.928 457.277 779.551C457.277 757.173 439.117 739.033 416.715 739.033H213.722C191.32 739.033 173.159 757.173 173.159 779.551C173.159 801.928 191.32 820.069 213.722 820.069Z" fill="#03FC9D"/><path d="M247.588 258.013H510.644" stroke="#003B2F" stroke-width="3" stroke-linecap="round" stroke-linejoin="round"/><path d="M357.064 219.225L450.772 219.225" stroke="#03FC9D" stroke-width="3" stroke-linecap="round" stroke-linejoin="round"/><path d="M170.833 219.225L324.343 219.225" stroke="#03FC9D" stroke-width="3" stroke-linecap="round" stroke-linejoin="round"/><path d="M1599.34 931.2H1777.06" stroke="#03FC9D" stroke-width="3" stroke-linecap="round" stroke-linejoin="round"/><path d="M1552.82 889.456H1690" stroke="#003B2F" stroke-width="3" stroke-linecap="round" stroke-linejoin="round"/><path d="M1116.87 354.215L1134.33 362.315" stroke="#003B2F" stroke-width="3" stroke-linecap="round" stroke-linejoin="round"/><path d="M1147.09 368.234L1164.53 376.252" stroke="#003B2F" stroke-width="3" stroke-linecap="round" stroke-linejoin="round"/><path d="M1129.62 389.037L1137.75 371.655" stroke="#003B2F" stroke-width="3" stroke-linecap="round" stroke-linejoin="round"/><path d="M1143.67 358.893L1151.77 341.43" stroke="#003B2F" stroke-width="3" stroke-linecap="round" stroke-linejoin="round"/><path d="M690.504 215.985L724.423 196.372" stroke="#003B2F" stroke-width="3" stroke-linecap="round" stroke-linejoin="round"/><path d="M758.186 215.985L738.252 204.41" stroke="#003B2F" stroke-width="3" stroke-linecap="round" stroke-linejoin="round"/><path d="M724.421 196.373V156.827" stroke="#003B2F" stroke-width="3" stroke-linecap="round" stroke-linejoin="round"/><path d="M609.593 458.896C616.407 458.896 621.931 453.372 621.931 446.558C621.931 439.744 616.407 434.22 609.593 434.22C602.779 434.22 597.255 439.744 597.255 446.558C597.255 453.372 602.779 458.896 609.593 458.896Z" stroke="#003B2F" stroke-width="3" stroke-linecap="round" stroke-linejoin="round"/><path d="M1326.75 615.745H1362.42" stroke="#003B2F" stroke-width="3" stroke-linecap="round" stroke-linejoin="round"/><path d="M1408.51 560.815H1666.92" stroke="#03FC9D" stroke-width="3" stroke-linecap="round" stroke-linejoin="round"/><path d="M1408.51 615.55H1552.97" stroke="#003B2F" stroke-width="3" stroke-linecap="round" stroke-linejoin="round"/><path d="M1729.04 413.84L1738.73 435.915" stroke="#003B2F" stroke-width="3" stroke-linecap="round" stroke-linejoin="round"/><path d="M1745.8 452.047L1755.53 474.021" stroke="#003B2F" stroke-width="3" stroke-linecap="round" stroke-linejoin="round"/><path d="M1712.16 457.1L1734.2 447.519" stroke="#003B2F" stroke-width="3" stroke-linecap="round" stroke-linejoin="round"/><path d="M1750.33 440.444L1772.41 430.761" stroke="#003B2F" stroke-width="3" stroke-linecap="round" stroke-linejoin="round"/><path d="M539.658 903.383L565.637 901.379" stroke="#003B2F" stroke-width="3" stroke-linecap="round" stroke-linejoin="round"/><path d="M580.24 922.85L571.617 910.176" stroke="#003B2F" stroke-width="3" stroke-linecap="round" stroke-linejoin="round"/><path d="M565.636 901.379L577.01 877.667" stroke="#003B2F" stroke-width="3" stroke-linecap="round" stroke-linejoin="round"/><path d="M286.416 560.134H348.856" stroke="#003B2F" stroke-width="3" stroke-miterlimit="10" stroke-linecap="round" stroke-linejoin="round"/><path d="M238.973 560.134H254.707" stroke="#003B2F" stroke-width="3" stroke-miterlimit="10" stroke-linecap="round" stroke-linejoin="round"/><path d="M295.47 515.166H457.277" stroke="#03FC9D" stroke-width="3" stroke-miterlimit="10" stroke-linecap="round" stroke-linejoin="round"/></svg>