<svg width="1920" height="1080" viewBox="0 0 1920 1080" fill="none" xmlns="http://www.w3.org/2000/svg"><g clip-path="url(#clip0_13_3430)"><path d="M1102.2 496C1173.78 496 1231.8 482.21 1231.8 465.2C1231.8 448.19 1173.78 434.4 1102.2 434.4C1030.62 434.4 972.6 448.19 972.6 465.2C972.6 482.21 1030.62 496 1102.2 496Z" fill="#E6E8EA"/><path d="M1382.9 887.1C1394.61 887.1 1404.1 877.609 1404.1 865.9C1404.1 854.192 1394.61 844.7 1382.9 844.7C1371.19 844.7 1361.7 854.192 1361.7 865.9C1361.7 877.609 1371.19 887.1 1382.9 887.1Z" stroke="#003B2F" stroke-width="3" stroke-linecap="round" stroke-linejoin="round"/><path d="M253.2 526.1H204.6C220 526.1 232.5 514.8 232.5 500.8C232.5 486.8 220 475.5 204.6 475.5H64.9998C49.5998 475.5 37.0998 486.8 37.0998 500.8H-5.8002C-21.2002 500.8 -33.7002 512.1 -33.7002 526.1C-33.7002 540.1 -21.2002 551.4 -5.8002 551.4H85.6998C85.6998 565.4 98.1998 576.7 113.6 576.7H253.2C268.6 576.7 281.1 565.4 281.1 551.4C281.1 537.4 268.6 526.1 253.2 526.1Z" fill="#E6E8EA"/><path d="M242 198H312.5" stroke="#003B2F" stroke-width="3" stroke-linecap="round" stroke-linejoin="round"/><path d="M188.399 198.1H206.199" stroke="#003B2F" stroke-width="3" stroke-linecap="round" stroke-linejoin="round"/><path d="M250.5 941.4H285.3" stroke="#003B2F" stroke-width="3" stroke-linecap="round" stroke-linejoin="round"/><path d="M104.6 863.3H356.9" stroke="#03FC9D" stroke-width="3" stroke-linecap="round" stroke-linejoin="round"/><path d="M330.3 941.3H471.4" stroke="#003B2F" stroke-width="3" stroke-linecap="round" stroke-linejoin="round"/><path d="M174.1 508.1H208.9" stroke="#003B2F" stroke-width="3" stroke-linecap="round" stroke-linejoin="round"/><path d="M123.7 415.4H376" stroke="#03FC9D" stroke-width="3" stroke-linecap="round" stroke-linejoin="round"/><path d="M253.899 507.9H394.999" stroke="#003B2F" stroke-width="3" stroke-linecap="round" stroke-linejoin="round"/><path d="M1722.9 729.5H1863.9" stroke="#003B2F" stroke-width="3" stroke-linecap="round" stroke-linejoin="round"/><path d="M1543 278.6H1725.8" stroke="#03FC9D" stroke-width="3" stroke-linecap="round" stroke-linejoin="round"/><path d="M1686 357.7H1827" stroke="#003B2F" stroke-width="3" stroke-linecap="round" stroke-linejoin="round"/><path d="M1319.6 703.5L1340.6 691.3" stroke="#003B2F" stroke-width="3" stroke-linecap="round" stroke-linejoin="round"/><path d="M1361.7 703.5L1349.3 696.3" stroke="#003B2F" stroke-width="3" stroke-linecap="round" stroke-linejoin="round"/><path d="M1340.6 691.3V666.7" stroke="#003B2F" stroke-width="3" stroke-linecap="round" stroke-linejoin="round"/><path d="M1399.5 973.6H1547.8C1564.15 973.6 1577.4 960.348 1577.4 944C1577.4 927.652 1564.15 914.4 1547.8 914.4H1399.5C1383.15 914.4 1369.9 927.652 1369.9 944C1369.9 960.348 1383.15 973.6 1399.5 973.6Z" fill="#03FC9D"/><path d="M1479.9 928.2H1722.8C1749.59 928.2 1771.3 906.508 1771.3 879.75C1771.3 852.992 1749.59 831.3 1722.8 831.3H1479.9C1453.11 831.3 1431.4 852.992 1431.4 879.75C1431.4 906.508 1453.11 928.2 1479.9 928.2Z" fill="#03FC9D"/><path d="M421.59 299.316L400.801 278.527L380.012 299.316L400.801 320.105L421.59 299.316Z" stroke="#003B2F" stroke-width="3" stroke-linecap="round" stroke-linejoin="round"/><path d="M1646.6 170L1670.8 183.9" stroke="#003B2F" stroke-width="3" stroke-linecap="round" stroke-linejoin="round"/><path d="M1695 170L1680.8 178.2" stroke="#003B2F" stroke-width="3" stroke-linecap="round" stroke-linejoin="round"/><path d="M1670.8 183.9V212.2" stroke="#003B2F" stroke-width="3" stroke-linecap="round" stroke-linejoin="round"/><path d="M1591.5 588.3H1618.6" stroke="#003B2F" stroke-width="3" stroke-linecap="round" stroke-linejoin="round"/><path d="M1477.8 542.5H1674.4" stroke="#03FC9D" stroke-width="3" stroke-linecap="round" stroke-linejoin="round"/><path d="M1653.7 588.1H1763.7" stroke="#003B2F" stroke-width="3" stroke-linecap="round" stroke-linejoin="round"/><path d="M724.5 167.2V189.8" stroke="#003B2F" stroke-width="3" stroke-linecap="round" stroke-linejoin="round"/><path d="M724.5 206.3V228.9" stroke="#003B2F" stroke-width="3" stroke-linecap="round" stroke-linejoin="round"/><path d="M693.6 198H716.2" stroke="#003B2F" stroke-width="3" stroke-linecap="round" stroke-linejoin="round"/><path d="M732.699 198H755.299" stroke="#003B2F" stroke-width="3" stroke-linecap="round" stroke-linejoin="round"/><path d="M605.699 529.3H579.699C541.799 529.3 507.399 542.8 507.399 580.7" stroke="#003B2F" stroke-width="3" stroke-linecap="round" stroke-linejoin="round"/><path d="M897.299 529.3H797.899" stroke="#003B2F" stroke-width="3" stroke-linecap="round" stroke-linejoin="round"/><path d="M597.899 544.5H581.299C543.399 544.5 508.999 558 508.999 595.9" stroke="#003B2F" stroke-width="3" stroke-linecap="round" stroke-linejoin="round"/><path d="M898.799 544.5H805.499" stroke="#003B2F" stroke-width="3" stroke-linecap="round" stroke-linejoin="round"/><path d="M710.199 695.4C770.232 695.4 818.899 646.733 818.899 586.7C818.899 526.667 770.232 478 710.199 478C650.166 478 601.499 526.667 601.499 586.7C601.499 646.733 650.166 695.4 710.199 695.4Z" fill="#03FC9D"/><path d="M698.099 695.4C758.133 695.4 806.799 646.733 806.799 586.7C806.799 526.667 758.133 478 698.099 478C638.066 478 589.399 526.667 589.399 586.7C589.399 646.733 638.066 695.4 698.099 695.4Z" stroke="#003B2F" stroke-width="3" stroke-linecap="round" stroke-linejoin="round"/><path d="M743.999 561.6C742.799 548.3 730.599 544.1 715.099 543.2L715.399 524.7L703.399 525L703.099 543C699.899 543 696.699 543.2 693.499 543.3L693.799 525.2L681.799 525.5L681.499 544C678.899 544.1 676.299 544.2 673.799 544.3L657.199 544.6L656.999 556.6C656.999 556.6 665.899 556.2 665.699 556.4C670.599 556.3 672.099 558.9 672.599 561.2L672.299 582.2C672.299 582.2 673.099 582.2 673.599 582.2C673.199 582.2 672.799 582.2 672.299 582.2L671.899 611.7C671.699 613.1 670.699 615.4 667.299 615.5C667.399 615.6 658.499 615.7 658.499 615.7L655.899 629.2L671.599 628.9C674.499 628.9 677.399 628.9 680.199 628.8L679.899 647.5L691.899 647.2L692.199 628.7C695.499 628.7 698.699 628.7 701.799 628.6L701.499 647L713.499 646.7L713.799 628.1C734.099 626.6 748.299 621.5 750.299 603.7C751.899 589.4 744.799 583.2 733.399 580.8C740.399 577.3 744.899 571.4 743.999 561.7V561.6ZM726.599 601.9C726.399 615.9 700.799 614.8 692.699 615L693.099 590.3C701.299 590.1 726.899 587.4 726.699 601.9H726.599ZM721.499 567.1C721.299 579.8 699.999 578.8 693.199 578.9L693.499 556.5C700.299 556.4 721.699 553.9 721.499 567.1Z" fill="#003B2F"/><path d="M507.499 577.6C507.499 604.3 538.799 625.9 577.399 625.9H900.899V855.4H565.199C533.299 855.4 507.499 829.6 507.499 797.7V577.5V577.6Z" fill="#E6E8EA"/><path d="M837.999 855.5H578.899C540.299 855.5 508.999 833.9 508.999 807.2L507.499 580.8" stroke="#003B2F" stroke-width="3" stroke-linecap="round" stroke-linejoin="round"/><path d="M507.499 578.2C507.499 604.9 540.299 625.9 578.899 625.9H902.399V855.4" stroke="#003B2F" stroke-width="3" stroke-linecap="round" stroke-linejoin="round"/><path d="M577.399 529.3C538.799 529.3 507.499 550.9 507.499 577.6C507.499 604.3 538.799 625.9 577.399 625.9H900.899V855.4" stroke="#003B2F" stroke-width="3" stroke-linecap="round" stroke-linejoin="round"/><path d="M562.599 443.3C497.499 335.6 531.999 195.5 639.699 130.4C647.099 125.9 654.699 121.9 662.499 118.3C717.399 93.0001 780.099 90.7001 836.699 111.8" stroke="#003B2F" stroke-width="3" stroke-linecap="round" stroke-linejoin="round"/><path d="M499.399 410.6L563.399 446.2L593.699 380.9" stroke="#003B2F" stroke-width="3" stroke-linecap="round" stroke-linejoin="round"/><path d="M585.8 869.5C587.6 877.6 590.2 886 593.7 895C596.6 902.4 600.4 907.6 605.4 912.6C624.5 931.3 635.7 936 656.9 945.9C713.6 972.2 748.8 983.9 812.2 1005.7C836.6 1014.1 857.6 1026.2 882.4 1023.6C927.2 1019 964.2 999 994.1 965.9C1011.9 946.2 1028.7 925.6 1046 905.4C1166.9 764.1 1287.7 622.8 1408.6 481.5C1410.5 479.2 1412.4 477 1414.4 474.7C1438.1 447 1457.6 422.8 1469.6 392.6C1470.7 389.7 1471.2 386.6 1471.2 383.6C1471.2 382.9 1471.2 382.2 1471.2 381.5C1469.4 360.1 1458.4 335.6 1450.6 324.3C1442.8 313.1 1424.5 293.2 1404.6 285.7C1341.9 262.2 1279.4 238.2 1216.5 214.9C1206 211 1194.6 208 1183.5 207.8C1132.4 206.9 1090.6 228.4 1057 265.6C1025.8 300.2 996.1 336 965.8 371.3C924.6 419.2 883.6 467.3 842.4 515.2H863.2C864.1 514.2 864.9 513.1 865.8 512.1C897.2 475.2 928.7 438.4 960.1 401.5C984.6 372.7 1008.7 343.7 1033.4 315.1C1051.2 294.4 1068 272.3 1088.4 254.4C1116.9 229.3 1150.8 214.6 1189.9 221.5C1201.5 223.5 1212.6 227.8 1224 231.9C1230 234.1 1233.8 239.9 1233.7 246.3C1233.6 251.6 1236.1 252.6 1244.3 255.8C1277.1 268.2 1310 280.6 1342.8 293.1C1350.6 296.1 1357.5 295.4 1364.4 290.8C1366.7 289.3 1370.7 288.6 1373.2 289.5C1384.4 293.6 1395.7 297.9 1406.4 303.2C1426.4 313.3 1435.6 335.3 1430.6 357.4C1426.3 376.9 1415.5 392.3 1403.1 407.1C1374.9 440.3 1347 473.6 1318.7 506.8C1279.2 553.2 1239.4 599.5 1199.9 646C1169.1 682.3 1138.7 718.8 1108 755.2C1069.8 800.3 1031.6 845.5 993.1 890.4C978.8 907 964.9 924.2 948.3 938.2C923.2 959.4 893.5 971.1 860.2 969.3C849.3 968.7 838.3 965.4 828 961.5C778.7 942.7 729.7 923.2 680.6 904C666.7 898.6 652.7 893.4 638.9 887.7C629.6 883.9 622.4 877.4 617.4 869.6H585.8V869.5Z" fill="#03FC9D"/><path d="M617.399 869.5C622.499 877.3 629.599 883.8 638.899 887.6C652.699 893.3 666.699 898.4 680.599 903.9C729.699 923.1 778.799 942.6 827.999 961.4C838.299 965.4 849.299 968.6 860.199 969.2C893.499 971 923.299 959.3 948.299 938.1C964.899 924.1 978.799 906.9 993.099 890.3C1031.6 845.5 1069.8 800.3 1108 755.1C1138.7 718.8 1169 682.2 1199.9 645.9C1239.4 599.3 1279.2 553.1 1318.7 506.7C1346.9 473.5 1374.9 440.2 1403.1 407C1415.6 392.3 1426.4 376.8 1430.6 357.3C1435.5 335.2 1426.4 313.2 1406.4 303.1C1395.7 297.7 1384.4 293.5 1373.2 289.4C1370.7 288.5 1366.7 289.2 1364.4 290.7C1357.4 295.4 1350.5 296.1 1342.8 293C1310 280.5 1277.1 268.1 1244.3 255.7C1236.1 252.6 1233.6 251.6 1233.7 246.2C1233.7 239.8 1229.9 234 1224 231.8C1212.7 227.7 1201.5 223.4 1189.9 221.4C1150.8 214.5 1116.8 229.2 1088.4 254.3C1068.1 272.2 1051.2 294.3 1033.4 315C1008.7 343.6 984.499 372.7 960.099 401.4C928.699 438.3 897.299 475.2 865.799 512C864.899 513 864.099 514.1 863.199 515.1" stroke="#003B2F" stroke-width="3" stroke-linecap="round" stroke-linejoin="round"/><path d="M842.4 515.3C883.5 467.3 924.6 419.3 965.8 371.4C996.1 336.1 1025.8 300.3 1057 265.7C1090.6 228.4 1132.4 207 1183.5 207.9C1194.6 208.1 1206 211.1 1216.5 215C1279.3 238.3 1341.9 262.3 1404.6 285.8C1424.6 293.3 1442.8 313.2 1450.6 324.4C1458.4 335.6 1469.4 360.1 1471.2 381.6C1471.2 382.3 1471.2 383 1471.2 383.7C1471.2 386.8 1470.7 389.9 1469.6 392.7C1457.7 422.9 1438.1 447.1 1414.4 474.8C1412.5 477 1410.5 479.3 1408.6 481.6C1287.8 622.9 1166.9 764.2 1046 905.5C1028.7 925.7 1011.9 946.3 994.1 966C964.2 999.2 927.2 1019.1 882.4 1023.7C857.7 1026.3 836.6 1014.2 812.2 1005.8C748.8 984 713.6 972.3 656.9 946C635.7 936.1 624.4 931.5 605.4 912.7C600.4 907.7 596.6 902.6 593.7 895.1C590.2 886.1 587.6 877.6 585.8 869.6" stroke="#003B2F" stroke-width="3" stroke-linecap="round" stroke-linejoin="round"/><mask id="mask0_13_3430" style="mask-type:luminance" maskUnits="userSpaceOnUse" x="915" y="69" width="375" height="348"><path d="M1289.4 69.5H915V416.1H1289.4V69.5Z" fill="white"/></mask><g mask="url(#mask0_13_3430)"><path d="M1269.7 70.8999L1124.5 178.3L1151.5 115L1269.7 70.8999Z" fill="#51FCBA" stroke="#51FCBA" stroke-width="3" stroke-linecap="round" stroke-linejoin="round"/><path d="M934.801 70.8999L1078.7 179.3L1053 115L934.801 70.8999Z" fill="#51FCBA" stroke="#51FCBA" stroke-width="3" stroke-linecap="round" stroke-linejoin="round"/><path d="M1217.4 320L1178.8 379L1261.5 401.8L1285.2 321.3L1217.4 320Z" fill="#51FCBA" stroke="#51FCBA" stroke-width="3" stroke-linecap="round" stroke-linejoin="round"/><path d="M919.4 321.3L943 401.8L1025.6 379L987.1 320L919.4 321.3Z" fill="#51FCBA" stroke="#51FCBA" stroke-width="3" stroke-linecap="round" stroke-linejoin="round"/><path d="M1021.1 220.3L998.101 254.9L1080 258.6L1077.3 170.5L1021.2 220.2L1021.1 220.3Z" fill="#51FCBA" stroke="#51FCBA" stroke-width="3" stroke-linecap="round" stroke-linejoin="round"/><path d="M1183.3 220.3L1126.3 169.6L1124.4 258.7L1206.3 255L1183.3 220.4V220.3Z" fill="#51FCBA" stroke="#51FCBA" stroke-width="3" stroke-linecap="round" stroke-linejoin="round"/><path d="M1025.5 379L1075.1 355.1L1032.5 321.9L1025.6 379.1L1025.5 379Z" fill="#51FCBA" stroke="#51FCBA" stroke-width="3" stroke-linecap="round" stroke-linejoin="round"/><path d="M1129.4 355.1L1178.8 379L1172.1 321.8L1129.5 355L1129.4 355.1Z" fill="#51FCBA" stroke="#51FCBA" stroke-width="3" stroke-linecap="round" stroke-linejoin="round"/><path d="M1178.8 379L1129.4 355.1L1133.4 387.2L1133 400.8L1178.8 379Z" fill="#F2F2F2" stroke="#F2F2F2" stroke-width="3" stroke-linecap="round" stroke-linejoin="round"/><path d="M1025.5 379L1071.5 400.8L1071.2 387.2L1075.1 355.1L1025.5 379Z" fill="#F2F2F2" stroke="#F2F2F2" stroke-width="3" stroke-linecap="round" stroke-linejoin="round"/><path d="M1072.4 300.6L1031.3 288.6L1060.3 275.3L1072.4 300.7V300.6Z" fill="#003B2F" stroke="#003B2F" stroke-width="3" stroke-linecap="round" stroke-linejoin="round"/><path d="M1132.1 300.6L1144.2 275.2L1173.4 288.5L1132.2 300.5L1132.1 300.6Z" fill="#003B2F" stroke="#003B2F" stroke-width="3" stroke-linecap="round" stroke-linejoin="round"/><path d="M1025.5 379L1032.7 320L987 321.3L1025.5 379Z" fill="#03FC9D" stroke="#03FC9D" stroke-width="3" stroke-linecap="round" stroke-linejoin="round"/><path d="M1171.7 320L1178.7 379L1217.3 321.3L1171.6 320H1171.7Z" fill="#03FC9D" stroke="#03FC9D" stroke-width="3" stroke-linecap="round" stroke-linejoin="round"/><path d="M1206.3 254.9L1124.4 258.6L1132 300.6L1144.1 275.2L1173.3 288.5L1206.3 254.8V254.9Z" fill="#03FC9D" stroke="#03FC9D" stroke-width="3" stroke-linecap="round" stroke-linejoin="round"/><path d="M1031.3 288.6L1060.3 275.3L1072.4 300.7L1080 258.7L998.101 255L1031.3 288.7V288.6Z" fill="#03FC9D" stroke="#03FC9D" stroke-width="3" stroke-linecap="round" stroke-linejoin="round"/><path d="M998.101 254.9L1032.4 321.8L1031.3 288.6L998.101 254.9Z" fill="#03FC9D" stroke="#03FC9D" stroke-width="3" stroke-linecap="round" stroke-linejoin="round"/><path d="M1173.3 288.6L1172 321.8L1206.3 254.9L1173.3 288.6Z" fill="#03FC9D" stroke="#03FC9D" stroke-width="3" stroke-linecap="round" stroke-linejoin="round"/><path d="M1079.9 258.7L1072.3 300.7L1081.9 350.3L1084.1 285L1079.9 258.8V258.7Z" fill="#03FC9D" stroke="#03FC9D" stroke-width="3" stroke-linecap="round" stroke-linejoin="round"/><path d="M1124.5 258.7L1120.5 284.8L1122.5 350.3L1132.1 300.7L1124.5 258.7Z" fill="#03FC9D" stroke="#03FC9D" stroke-width="3" stroke-linecap="round" stroke-linejoin="round"/><path d="M1132.1 300.6L1122.5 350.2L1129.4 355.1L1172 321.9L1173.3 288.7L1132.1 300.7V300.6Z" fill="#A9FEDE" stroke="#A9FEDE" stroke-width="3" stroke-linecap="round" stroke-linejoin="round"/><path d="M1031.3 288.6L1032.4 321.8L1075 355L1081.9 350.1L1072.3 300.5L1031.2 288.5L1031.3 288.6Z" fill="#A9FEDE" stroke="#A9FEDE" stroke-width="3" stroke-linecap="round" stroke-linejoin="round"/><path d="M1133 400.7L1133.4 387.1L1129.7 383.9H1074.8L1071.2 387.1L1071.5 400.7L1025.5 378.9L1041.6 392.1L1074.2 414.6H1130.1L1162.8 392.1L1178.7 378.9L1132.9 400.7H1133Z" fill="#C7C8CA" stroke="#C7C8CA" stroke-width="3" stroke-linecap="round" stroke-linejoin="round"/><path d="M1129.4 355.1L1122.5 350.2H1082L1075.1 355.1L1071.2 387.2L1074.8 384H1129.7L1133.4 387.2L1129.4 355.1Z" fill="#003B2F" stroke="#003B2F" stroke-width="3" stroke-linecap="round" stroke-linejoin="round"/><path d="M1275.9 185.3L1288.1 126L1269.7 70.7998L1129.4 174.7L1183.4 220.2L1259.7 242.4L1276.5 222.8L1269.2 217.5L1280.8 206.9L1271.9 200L1283.5 191.1L1275.9 185.2V185.3Z" fill="#003B2F" stroke="#003B2F" stroke-width="3" stroke-linecap="round" stroke-linejoin="round"/><path d="M916.4 126L928.7 185.3L920.8 191.2L932.6 200.1L923.7 207L935.3 217.6L928 222.9L944.8 242.5L1021.1 220.3L1075.1 174.8L934.8 70.8999L916.4 126.1V126Z" fill="#003B2F" stroke="#003B2F" stroke-width="3" stroke-linecap="round" stroke-linejoin="round"/><path d="M1259.6 242.5L1183.3 220.3L1206.3 254.9L1172 321.8L1217.4 321.2H1285.2L1259.6 242.4V242.5Z" fill="#A9FEDE" stroke="#A9FEDE" stroke-width="3" stroke-linecap="round" stroke-linejoin="round"/><path d="M1021.1 220.3L944.8 242.5L919.4 321.3H987.1L1032.5 321.9L998.2 255L1021.2 220.4L1021.1 220.3Z" fill="#A9FEDE" stroke="#A9FEDE" stroke-width="3" stroke-linecap="round" stroke-linejoin="round"/><path d="M1124.5 258.7L1129.4 174.8L1151.5 115.1H1053L1075.1 174.8L1080 258.7L1081.9 285L1082.1 350.2H1122.6L1122.8 285L1124.7 258.7H1124.5Z" fill="#A9FEDE" stroke="#A9FEDE" stroke-width="3" stroke-linecap="round" stroke-linejoin="round"/></g></g><defs><clipPath id="clip0_13_3430"><rect width="1920" height="1080" fill="white"/></clipPath></defs></svg>