<svg width="1920" height="1081" viewBox="0 0 1920 1081" fill="none" xmlns="http://www.w3.org/2000/svg"><g clip-path="url(#clip0_898_458)"><path d="M170.681 72.0991H161.919V99.9919H149.214V390.749H161.919V418.787H170.681V390.749H183.386V99.9919H170.681V72.0991Z" fill="#F1F2F4"/><path d="M264.877 194.915H256.115V222.808H243.41V513.71H256.115V541.603H264.877V513.71H277.436V222.808H264.877V194.915Z" fill="#F1F2F4"/><path d="M311.896 208.057H303.134V235.95H290.428V526.707H303.134V554.6H311.896V526.707H324.601V235.95H311.896V208.057Z" fill="#F1F2F4"/><path d="M230.405 112.988H217.7V93.5654H208.937V112.988H196.232V316.124H208.937V335.546H217.7V316.124H230.405V112.988Z" fill="#F1F2F4"/><path d="M357.32 445.803H348.557V463.474H335.852V648.208H348.557V665.879H357.32V648.208H370.025V463.474H357.32V445.803Z" fill="#F1F2F4"/><path d="M404.348 356.137H395.585V368.55H383.026V497.5H395.585V509.913H404.348V497.5H417.053V368.55H404.348V356.137Z" fill="#F1F2F4"/><path d="M451.516 323.426H442.753V341.096H430.048V525.831H442.753V543.502H451.516V525.831H464.221V341.096H451.516V323.426Z" fill="#F1F2F4"/><path d="M545.711 335.692H536.949V353.363H524.244V538.098H536.949V555.768H545.711V538.098H558.27V353.363H545.711V335.692Z" fill="#F1F2F4"/><path d="M592.73 407.396H583.968V425.067H571.262V609.656H583.968V627.472H592.73V609.656H605.435V425.067H592.73V407.396Z" fill="#F1F2F4"/><path d="M511.239 353.071H498.534V340.657H489.772V353.071H477.067V482.02H489.772V494.433H498.534V482.02H511.239V353.071Z" fill="#F1F2F4"/><path d="M649.973 444.927H641.211V462.598H628.506V646.603H641.211V664.273H649.973V646.603H662.678V462.598H649.973V444.927Z" fill="#F1F2F4"/><path d="M696.993 511.666H688.231V523.933H675.526V652.444H688.231V664.857H696.993V652.444H709.698V523.933H696.993V511.666Z" fill="#F1F2F4"/><path d="M744.155 589.503H735.393V607.173H722.688V791.178H735.393V808.848H744.155V791.178H756.714V607.173H744.155V589.503Z" fill="#F1F2F4"/><path d="M838.204 667.194H829.588V684.864H816.883V868.869H829.588V886.539H838.204V868.869H850.91V684.864H838.204V667.194Z" fill="#F1F2F4"/><path d="M885.385 675.518H876.623V693.042H863.918V877.193H876.623V894.717H885.385V877.193H898.09V693.042H885.385V675.518Z" fill="#F1F2F4"/><path d="M803.894 615.351H791.189V603.084H782.427V615.351H769.722V743.862H782.427V756.275H791.189V743.862H803.894V615.351Z" fill="#F1F2F4"/><path d="M942.186 708.52H933.424V730.28H920.719V957.073H933.424V978.832H942.186V957.073H954.892V730.28H942.186V708.52Z" fill="#F1F2F4"/><path d="M989.206 701.365H980.444V716.553H967.739V875.001H980.444V890.189H989.206V875.001H1001.91V716.553H989.206V701.365Z" fill="#F1F2F4"/><path d="M1036.38 748.535H1027.62V770.294H1014.92V997.087H1027.62V1018.85H1036.38V997.087H1048.94V770.294H1036.38V748.535Z" fill="#F1F2F4"/><path d="M1130.43 639.008H1121.82V660.768H1109.11V887.707H1121.82V909.466H1130.43V887.707H1143.14V660.768H1130.43V639.008Z" fill="#F1F2F4"/><path d="M1177.6 579.134H1168.84V600.893H1156.13V827.686H1168.84V849.446H1177.6V827.686H1190.3V600.893H1177.6V579.134Z" fill="#F1F2F4"/><path d="M1096.11 708.521H1083.4V693.333H1074.64V708.521H1061.94V866.823H1074.64V882.011H1083.4V866.823H1096.11V708.521Z" fill="#F1F2F4"/><path d="M1285.96 246.757H1277.19V338.467H1264.49V524.808H1277.19V542.771H1285.96V524.808H1298.66V338.467H1285.96V246.757Z" fill="#F1F2F4"/><path d="M1332.97 278.593H1324.21V291.152H1311.65V421.269H1324.21V433.682H1332.97V421.269H1345.68V291.152H1332.97V278.593Z" fill="#F1F2F4"/><path d="M1380.15 210.686H1371.39V228.503H1358.68V414.99H1371.39V432.806H1380.15V414.99H1392.86V228.503H1380.15V210.686Z" fill="#F1F2F4"/><path d="M1474.33 368.259H1465.57V386.076H1452.86V572.563H1465.57V590.379H1474.33V572.563H1486.89V386.076H1474.33V368.259Z" fill="#F1F2F4"/><path d="M1537.73 90.0615H1523.56V119.123H1502.82V423.315H1523.56V452.522H1537.73V423.315H1558.46V119.123H1537.73V90.0615Z" fill="#F1F2F4"/><path d="M1439.88 319.629H1427.17V307.07H1418.41V319.629H1405.7V449.747H1418.41V462.16H1427.17V449.747H1439.88V319.629Z" fill="#F1F2F4"/><path d="M1253.24 292.028H1234.84V246.757H1222.14V292.028H1203.74V763.868H1222.14V848.131H1234.84V763.868H1253.24V292.028Z" fill="#F1F2F4"/><path d="M1586.64 178.851H1580.22V196.959H1570.72V384.761H1580.22V402.723H1586.64V384.761H1596.13V196.959H1586.64V178.851Z" fill="#F1F2F4"/><path d="M1621.7 87.7249H1615.13V100.284H1605.78V231.424H1615.13V243.983H1621.7V231.424H1631.04V100.284H1621.7V87.7249Z" fill="#F1F2F4"/><path d="M1656.59 190.826H1650.02V208.788H1640.67V333.941H1650.02V352.049H1656.59V333.941H1665.94V208.788H1656.59V190.826Z" fill="#F1F2F4"/><path d="M1726.55 66.9873H1719.97V84.9497H1710.63V272.751H1719.97V290.86H1726.55V272.751H1735.89V84.9497H1726.55V66.9873Z" fill="#F1F2F4"/><path d="M1761.44 159.136H1754.87V177.099H1745.52V364.901H1754.87V382.863H1761.44V364.901H1770.79V177.099H1761.44V159.136Z" fill="#F1F2F4"/><path d="M1700.98 161.326H1691.49V148.767H1685.06V161.326H1675.57V292.466H1685.06V305.025H1691.49V292.466H1700.98V161.326Z" fill="#F1F2F4"/><path d="M1230.65 174.832C1042.98 104.709 833.915 199.665 763.201 387.211L1102.82 514.212L1230.65 174.832Z" fill="white" stroke="#003B2F" stroke-width="3" stroke-linecap="round" stroke-linejoin="round"/><path d="M1230.41 175.307C1230.41 175.307 1229.82 175.07 1229.46 174.952L1101.63 514.332H1101.87L973.448 855.367C973.803 855.485 974.04 855.603 974.394 855.722C1162.41 926.554 1372.07 831.48 1442.9 643.58C1443.14 642.989 1443.38 642.397 1443.5 641.806H1443.26C1512.55 454.26 1417.6 245.784 1230.41 175.188V175.307Z" fill="#03FC9D" stroke="#003B2F" stroke-width="3" stroke-linecap="round" stroke-linejoin="round"/><path d="M427.012 875.115L513.926 983.551C521.967 968.179 580.147 868.611 590.316 850.637C593.864 844.37 594.1 844.015 598.712 835.974C608.763 818.473 617.159 804.047 618.578 801.918C622.717 796.242 651.807 802.155 667.652 795.414C650.033 807.358 635.37 822.73 646.722 846.144C647.195 847.208 647.786 848.272 648.377 849.337C667.416 839.403 682.434 834.555 691.776 832.072C698.634 830.298 702.418 829.943 702.418 829.943C702.418 829.943 698.634 848.272 710.223 856.905C711.05 857.496 711.878 857.969 712.824 858.442C723.585 850.046 740.14 836.684 753.621 825.686C764.736 816.581 773.723 809.131 775.615 807.476C785.785 798.37 782.119 770.936 780.109 761.003C788.268 769.99 798.556 770.936 806.006 769.99C812.037 769.163 816.412 767.152 816.412 767.152V714.294V697.148L745.225 583.864C718.5 580.434 637.617 577.833 619.051 585.874C571.278 606.449 561.818 655.051 505.412 747.404C494.77 764.787 436.827 860.57 427.13 874.879L427.012 875.115Z" fill="white" stroke="#003B2F" stroke-width="3" stroke-linecap="round" stroke-linejoin="round"/><path d="M581.57 792.339C603.091 800.026 611.96 802.627 625.441 799.553" stroke="#003B2F" stroke-width="3" stroke-linecap="round" stroke-linejoin="round"/><path d="M702.303 831.243C702.067 823.557 705.378 813.624 711.527 803.928C716.848 795.413 723.352 788.673 729.146 785.48C724.535 775.666 720.041 761.83 724.298 741.964" stroke="#003B2F" stroke-width="3" stroke-linecap="round" stroke-linejoin="round"/><path d="M641.52 628.916C645.541 658.597 653.937 668.293 678.414 685.558" stroke="#003B2F" stroke-width="3" stroke-linecap="round" stroke-linejoin="round"/><path d="M674.984 414.292C674.984 414.292 674.984 414.41 674.984 414.528C604.27 602.192 698.871 811.496 886.18 882.683L1014.72 541.411L675.102 414.41L674.984 414.292Z" fill="#003B2F"/><path d="M617.045 689.341C653.229 689.104 674.988 689.696 713.774 661.316C753.388 632.226 764.03 616.38 788.035 616.262C792.174 616.262 805.063 616.262 812.04 624.894C818.071 632.462 816.416 642.75 815.943 645.706C812.513 667.465 796.195 680.59 763.321 698.091C738.606 711.217 715.193 751.659 704.905 764.785C694.617 777.911 679.245 793.52 667.774 795.53" fill="white"/><path d="M617.045 689.341C653.229 689.104 674.988 689.696 713.774 661.316C753.388 632.226 764.03 616.38 788.035 616.262C792.174 616.262 805.063 616.262 812.04 624.894C818.071 632.462 816.416 642.75 815.943 645.706C812.513 667.465 796.195 680.59 763.321 698.091C738.606 711.217 715.193 751.659 704.905 764.785C694.617 777.911 679.245 793.52 667.774 795.53" stroke="#003B2F" stroke-width="3" stroke-linecap="round" stroke-linejoin="round"/><path d="M612.194 846.26C583.577 907.041 420.273 1218.99 391.538 1279.77L171 1196.75C215.344 1130.42 424.411 824.265 468.755 757.926C476.442 760.883 484.483 764.312 492.879 768.096C513.454 777.438 535.922 789.499 559.217 805.108C574.117 815.041 587.479 825.211 599.304 835.144C603.798 838.928 608.173 842.712 612.194 846.378V846.26Z" fill="#03FC9D"/><path d="M605.435 250.809C638.562 250.809 665.418 223.954 665.418 190.826C665.418 157.698 638.562 130.843 605.435 130.843C572.307 130.843 545.452 157.698 545.452 190.826C545.452 223.954 572.307 250.809 605.435 250.809Z" fill="#03FC9D"/><path d="M608.978 170.395L630.237 207.22C631.747 209.892 629.888 213.261 626.752 213.261L584.118 213.261C580.982 213.261 579.123 209.892 580.633 207.22L601.892 170.395C603.402 167.723 607.235 167.723 608.862 170.395L608.978 170.395Z" fill="white"/><path d="M1452.84 960.695C1485.97 960.695 1512.82 933.84 1512.82 900.713C1512.82 867.585 1485.97 840.73 1452.84 840.73C1419.71 840.73 1392.86 867.585 1392.86 900.713C1392.86 933.84 1419.71 960.695 1452.84 960.695Z" fill="#03FC9D"/><path d="M1449.3 921.144L1428.04 884.319C1426.53 881.647 1428.39 878.278 1431.52 878.278L1474.16 878.278C1477.29 878.278 1479.15 881.647 1477.64 884.319L1456.38 921.144C1454.87 923.816 1451.04 923.816 1449.41 921.144L1449.3 921.144Z" fill="white"/><mask id="mask0_898_458" style="mask-type:luminance" maskUnits="userSpaceOnUse" x="201" y="498" width="200" height="200"><path d="M376.046 498.31L201.117 522.303L225.111 697.232L400.04 673.239L376.046 498.31Z" fill="white"/></mask><g mask="url(#mask0_898_458)"><path d="M312.616 685.245C360.933 678.614 394.716 634.085 388.084 585.768C381.452 537.45 336.924 503.667 288.606 510.299C240.288 516.931 206.506 561.459 213.138 609.777C219.77 658.095 264.298 691.877 312.616 685.245Z" fill="#03FC9D"/><path d="M284.393 638.972L269.459 641.017C266.317 641.44 264.772 641.665 263.749 641.166C263.201 640.892 262.727 640.493 262.353 639.994C261.979 639.496 261.73 638.922 261.63 638.324C261.406 637.177 261.979 635.656 263.151 632.59L290.726 559.913C291.897 556.822 292.496 555.276 293.418 554.603C293.917 554.254 294.49 554.03 295.089 553.93C295.687 553.855 296.31 553.93 296.859 554.129C297.931 554.528 298.928 555.85 300.873 558.517L310.322 571.232C312.466 574.125 313.563 575.571 314.161 577.166C314.835 578.887 315.084 580.781 314.909 582.626C314.76 584.322 314.112 586.017 312.84 589.383L298.38 627.653C297.083 631.069 296.435 632.764 295.388 634.135C294.291 635.606 292.845 636.753 291.174 637.551C289.678 638.224 287.908 638.449 284.418 638.947L284.393 638.972ZM340.988 625.634L318.375 628.75C315.034 629.199 313.364 629.448 312.292 628.95C311.718 628.7 311.219 628.301 310.845 627.828C310.447 627.329 310.197 626.756 310.073 626.157C309.848 625.035 310.496 623.514 311.793 620.498L320.519 600.228C321.791 597.236 322.439 595.765 323.411 595.092C323.935 594.743 324.533 594.519 325.156 594.419C325.78 594.319 326.428 594.394 327.026 594.594C328.148 594.968 329.17 596.214 331.215 598.732L345.102 615.91C347.171 618.478 348.218 619.75 348.318 620.897C348.368 621.52 348.268 622.143 348.019 622.717C347.769 623.29 347.395 623.789 346.922 624.188C345.999 624.96 344.329 625.185 340.988 625.659V625.634Z" fill="#003B2F"/></g><path fill-rule="evenodd" clip-rule="evenodd" d="M1659.15 199.575C1674.19 165.992 1713.6 150.933 1747.21 165.992C1780.79 181.025 1795.85 220.443 1780.79 254.051C1765.76 287.634 1726.34 302.693 1692.74 287.634C1659.13 272.575 1644.09 233.183 1659.15 199.575Z" fill="#03FC9D"/><path d="M1729.14 246.845L1726.39 243.804C1726.09 243.48 1725.69 243.28 1725.27 243.255C1724.85 243.23 1724.4 243.355 1724.07 243.629C1721.01 246.147 1717.39 247.02 1713.83 245.424C1710.61 243.978 1708.74 241.261 1708.17 237.222C1707.94 235.651 1707.94 234.03 1708.14 232.31L1717.34 236.424C1717.92 236.673 1718.61 236.598 1719.11 236.199L1722.63 234.255C1722.85 234.08 1723.03 233.831 1723.13 233.582C1723.23 233.307 1723.28 233.033 1723.23 232.734C1723.18 232.46 1723.08 232.185 1722.9 231.936C1722.73 231.712 1722.5 231.512 1722.23 231.413L1709.79 225.853C1710.04 225.18 1710.31 224.531 1710.59 223.883C1710.86 223.235 1711.18 222.587 1711.51 221.963L1721.76 226.551C1722.33 226.825 1723.03 226.725 1723.5 226.326L1727.02 224.382C1727.24 224.207 1727.41 223.958 1727.51 223.709C1727.61 223.434 1727.66 223.16 1727.61 222.861C1727.56 222.587 1727.46 222.312 1727.29 222.063C1727.12 221.839 1726.89 221.639 1726.62 221.54L1715.2 216.429C1719.29 211.791 1724.35 209.797 1728.81 211.891C1732.23 213.412 1734.05 216.453 1734.4 220.268C1734.47 221.116 1735.22 221.764 1736.07 221.764H1740.18C1741.18 221.814 1741.95 220.966 1741.88 219.994C1741.25 212.888 1737.89 207.952 1731.78 205.209C1726.22 202.716 1720.78 202.916 1715.45 205.758C1712.33 207.428 1709.59 209.822 1707.25 212.888L1702.23 210.644C1701.66 210.395 1700.96 210.47 1700.46 210.869L1696.95 212.813C1696.72 212.988 1696.55 213.237 1696.45 213.487C1696.35 213.761 1696.3 214.035 1696.35 214.334C1696.4 214.609 1696.5 214.883 1696.67 215.132C1696.85 215.356 1697.07 215.556 1697.35 215.656L1703.73 218.498C1703.08 219.769 1702.48 221.041 1701.96 222.362L1697.8 220.492C1697.22 220.243 1696.52 220.318 1696.03 220.717L1692.51 222.661C1692.29 222.836 1692.11 223.085 1692.01 223.335C1691.91 223.609 1691.86 223.883 1691.91 224.182C1691.96 224.457 1692.06 224.731 1692.24 224.98C1692.41 225.205 1692.64 225.404 1692.91 225.504L1700.09 228.72C1698.19 239.042 1701.91 248.341 1710.74 252.131C1716.97 254.923 1723.03 253.951 1728.91 249.239C1729.09 249.089 1729.24 248.915 1729.33 248.715C1729.43 248.516 1729.51 248.291 1729.51 248.067C1729.51 247.843 1729.51 247.618 1729.41 247.394C1729.33 247.169 1729.21 246.97 1729.06 246.795L1729.14 246.845Z" fill="#003B2F"/><path d="M1676.33 233.008C1675.06 224.182 1676.43 214.858 1680.94 206.256C1691.19 186.735 1714.6 177.759 1735.27 185.438C1746.14 189.477 1754.37 197.256 1759.18 206.68C1759.4 207.129 1759.78 207.478 1760.25 207.652C1760.7 207.852 1761.22 207.877 1761.7 207.727L1765.84 206.406C1767.06 206.007 1767.65 204.611 1767.11 203.464C1761.57 192.245 1752.02 182.945 1739.41 177.909C1714.38 167.936 1685.5 178.757 1673.21 202.741C1667.9 213.113 1666.36 224.357 1668.03 234.953C1668.23 236.224 1669.52 236.997 1670.75 236.623L1674.88 235.302C1675.36 235.152 1675.76 234.853 1676.03 234.429C1676.31 234.005 1676.4 233.507 1676.33 233.008ZM1763.64 220.617C1764.91 229.443 1763.52 238.767 1759 247.369C1748.76 266.89 1725.35 275.866 1704.68 268.187C1693.81 264.148 1685.58 256.369 1680.74 246.945C1680.52 246.496 1680.14 246.147 1679.67 245.973C1679.22 245.773 1678.7 245.748 1678.22 245.898L1674.09 247.219C1672.86 247.618 1672.27 249.014 1672.81 250.161C1678.35 261.38 1687.9 270.68 1700.51 275.716C1725.57 285.689 1754.42 274.869 1766.71 250.884C1772.02 240.513 1773.56 229.268 1771.89 218.672C1771.69 217.401 1770.4 216.628 1769.18 217.002L1765.04 218.323C1764.56 218.473 1764.16 218.797 1763.89 219.196C1763.62 219.62 1763.52 220.118 1763.59 220.617H1763.64Z" fill="#003B2F"/><path d="M1540.74 786.604H1579.82" stroke="#003B2F" stroke-width="3" stroke-linecap="round" stroke-linejoin="round"/><path d="M1664.55 764.521H1843.05" stroke="#03FC9D" stroke-width="3" stroke-linecap="round" stroke-linejoin="round"/><path d="M1630.28 786.491H1788.29" stroke="#003B2F" stroke-width="3" stroke-linecap="round" stroke-linejoin="round"/><path d="M1687.78 894.717L1723.19 915.174" stroke="#003B2F" stroke-width="3" stroke-linecap="round" stroke-linejoin="round"/><path d="M1758.74 894.717L1737.86 906.709" stroke="#003B2F" stroke-width="3" stroke-linecap="round" stroke-linejoin="round"/><path d="M1723.19 915.175V956.512" stroke="#003B2F" stroke-width="3" stroke-linecap="round" stroke-linejoin="round"/><path d="M784.457 96.2385L807.876 119.658" stroke="#003B2F" stroke-width="3" stroke-linecap="round" stroke-linejoin="round"/><path d="M824.947 136.729L848.367 160.149" stroke="#003B2F" stroke-width="3" stroke-linecap="round" stroke-linejoin="round"/><path d="M784.457 160.149L807.876 136.729" stroke="#003B2F" stroke-width="3" stroke-linecap="round" stroke-linejoin="round"/><path d="M824.947 119.658L848.367 96.2388" stroke="#003B2F" stroke-width="3" stroke-linecap="round" stroke-linejoin="round"/><path d="M753.01 983.551C762.24 983.551 769.722 976.069 769.722 966.84C769.722 957.61 762.24 950.128 753.01 950.128C743.78 950.128 736.298 957.61 736.298 966.84C736.298 976.069 743.78 983.551 753.01 983.551Z" stroke="#003B2F" stroke-width="3" stroke-linecap="round" stroke-linejoin="round"/><path d="M100.759 341.225H357.388" stroke="#03FC9D" stroke-width="3" stroke-linecap="round" stroke-linejoin="round"/><path d="M229.073 384.615H427.012" stroke="#003B2F" stroke-width="3" stroke-linecap="round" stroke-linejoin="round"/><path d="M1629.5 644.005C1668.48 655.539 1709.45 633.284 1720.99 594.297C1732.52 555.31 1710.27 514.341 1671.28 502.807C1632.29 491.273 1591.32 513.528 1579.79 552.516C1568.25 591.503 1590.51 632.472 1629.5 644.005Z" fill="#03FC9D"/><path d="M1615.14 583.055C1615.85 582.665 1616.66 582.6 1617.41 582.828L1687.82 603.686C1689.08 604.076 1689.28 605.798 1688.11 606.448L1670.08 616.227C1669.39 616.617 1668.55 616.682 1667.8 616.454L1597.4 595.596C1597.11 595.499 1596.85 595.336 1596.68 595.109C1596.52 594.881 1596.36 594.589 1596.36 594.297C1596.33 594.004 1596.36 593.712 1596.52 593.452C1596.65 593.192 1596.88 592.964 1597.14 592.835L1615.17 583.055H1615.14Z" fill="#003B2F"/><path d="M1630.83 530.098C1631.54 529.708 1632.36 529.643 1633.1 529.87L1703.51 550.728C1704.77 551.118 1704.97 552.84 1703.8 553.49L1685.77 563.269C1685.09 563.659 1684.24 563.724 1683.49 563.497L1613.09 542.638C1612.8 542.541 1612.54 542.378 1612.38 542.151C1612.18 541.924 1612.08 541.631 1612.05 541.339C1612.05 541.046 1612.05 540.754 1612.21 540.494C1612.34 540.234 1612.57 540.007 1612.83 539.877L1630.86 530.098H1630.83Z" fill="#003B2F"/><path d="M1682.52 574.218C1682.13 573.536 1681.51 573.016 1680.73 572.789L1610.33 551.931C1610.04 551.833 1609.74 551.866 1609.45 551.931C1609.16 552.028 1608.93 552.191 1608.74 552.418C1608.54 552.645 1608.44 552.938 1608.41 553.23C1608.41 553.523 1608.44 553.815 1608.57 554.075L1618.35 572.106C1618.55 572.464 1618.81 572.756 1619.1 573.016C1619.39 573.276 1619.75 573.439 1620.14 573.569L1690.54 594.427C1691.81 594.817 1692.92 593.452 1692.3 592.282L1682.49 574.251L1682.52 574.218Z" fill="#003B2F"/></g><defs><clipPath id="clip0_898_458"><rect width="1920" height="1080" fill="white" transform="translate(0 0.211914)"/></clipPath></defs></svg>