<?xml version="1.0" encoding="UTF-8"?><svg id="Layer_1" data-name="Layer 1" xmlns="http://www.w3.org/2000/svg" viewBox="0 0 192 108"><defs><style>.cls-1 {
        fill: #00ff94;
      }

      .cls-2 {
        fill: #003d2e;
      }

      .cls-3 {
        fill: #e3e7e3;
      }

      .cls-4 {
        fill: #fff;
      }

      .cls-5 {
        stroke: #00ff94;
      }

      .cls-5, .cls-6, .cls-7, .cls-8 {
        fill: none;
        stroke-linecap: round;
        stroke-linejoin: round;
        stroke-width: .3px;
      }

      .cls-6 {
        stroke: #003c2e;
      }

      .cls-7 {
        stroke: #003d2e;
      }

      .cls-8 {
        stroke: #163b2f;
      }</style></defs><g><line class="cls-7" x1="140.17" y1="14.58" x2="142.75" y2="16.07"/><line class="cls-7" x1="145.33" y1="14.58" x2="143.81" y2="15.46"/><line class="cls-7" x1="142.75" y1="16.07" x2="142.75" y2="19.08"/></g><line class="cls-5" x1="140.17" y1="23.17" x2="158.83" y2="23.17"/><line class="cls-6" x1="155.36" y1="26.37" x2="169.76" y2="26.37"/><rect class="cls-7" x="48.36" y="12.28" width="2.87" height="2.87" transform="translate(24.28 -31.19) rotate(45)"/><path class="cls-3" d="M36.12,20.47h-4.55c1.44,0,2.61-1.06,2.61-2.37s-1.17-2.37-2.61-2.37h-13.07c-1.44,0-2.61,1.06-2.61,2.37h-4.01c-1.44,0-2.61,1.06-2.61,2.37s1.17,2.37,2.61,2.37h8.56c0,1.31,1.17,2.37,2.61,2.37h13.07c1.44,0,2.61-1.06,2.61-2.37s-1.17-2.37-2.61-2.37Z"/><line class="cls-6" x1="28.17" y1="18.79" x2="31.44" y2="18.79"/><line class="cls-5" x1="23.46" y1="10.11" x2="47.07" y2="10.11"/><line class="cls-6" x1="35.65" y1="18.77" x2="48.85" y2="18.77"/><g><line class="cls-7" x1="39.49" y1="84.42" x2="41.61" y2="85.65"/><line class="cls-7" x1="43.73" y1="84.42" x2="42.48" y2="85.14"/><line class="cls-7" x1="41.61" y1="85.65" x2="41.61" y2="88.12"/></g><line class="cls-6" x1="25.87" y1="95.75" x2="31.79" y2="95.75"/><line class="cls-6" x1="21.37" y1="95.75" x2="22.86" y2="95.75"/><line class="cls-5" x1="26.73" y1="91.49" x2="42.08" y2="91.49"/><g><line class="cls-8" x1="12.62" y1="90.32" x2="14.02" y2="91.72"/><line class="cls-8" x1="15.04" y1="92.74" x2="16.44" y2="94.14"/><line class="cls-8" x1="12.62" y1="94.14" x2="14.02" y2="92.74"/><line class="cls-8" x1="15.04" y1="91.72" x2="16.44" y2="90.32"/></g><circle class="cls-6" cx="25.87" cy="59.39" r="1.98"/><rect class="cls-1" x="24.65" y="63.92" width="19.42" height="5.54" rx="2.77" ry="2.77" transform="translate(68.73 133.39) rotate(-180)"/><rect class="cls-1" x="30.42" y="56.15" width="31.8" height="9.07" rx="4.54" ry="4.54" transform="translate(92.64 121.36) rotate(-180)"/><path class="cls-3" d="M155.77,61.35h4.55c-1.44,0-2.61,1.17-2.61,2.61s1.17,2.61,2.61,2.61h13.07c1.44,0,2.61-1.17,2.61-2.61h4.01c1.44,0,2.61-1.17,2.61-2.61,0-1.44-1.17-2.61-2.61-2.61h-8.56c0-1.44-1.17-2.61-2.61-2.61h-13.07c-1.44,0-2.61,1.17-2.61,2.61s1.17,2.61,2.61,2.61Z"/><line class="cls-6" x1="170.42" y1="70.52" x2="157.22" y2="70.52"/><g><line class="cls-8" x1="170.14" y1="52.19" x2="170.14" y2="49.98"/><line class="cls-8" x1="170.14" y1="48.37" x2="170.14" y2="46.17"/><line class="cls-8" x1="173.15" y1="49.18" x2="170.95" y2="49.18"/><line class="cls-8" x1="169.34" y1="49.18" x2="167.13" y2="49.18"/></g><path class="cls-1" d="M174.98,64.04h16.97c-.06-3.07,0-6.06,.05-9.07h-17.02c-2.5,0-4.54,2.03-4.54,4.54,0,2.5,2.03,4.54,4.54,4.54Z"/><line class="cls-6" x1="172.23" y1="96.66" x2="179.24" y2="96.66"/><line class="cls-6" x1="166.89" y1="96.66" x2="168.66" y2="96.66"/><line class="cls-8" x1="156.53" y1="90.23" x2="158.19" y2="91.88"/><line class="cls-8" x1="159.4" y1="93.09" x2="161.06" y2="94.75"/><line class="cls-8" x1="156.53" y1="94.75" x2="158.19" y2="93.09"/><line class="cls-8" x1="159.4" y1="91.88" x2="161.06" y2="90.23"/><g><g><path class="cls-3" d="M87.57,51.03c.05-.02,.1-.03,.16-.03,.5,.68,1.34,1.1,2.18,1.08,.46,0,.9-.13,1.36-.17,.47-.04,.95,0,1.42,.05,.46,.05,.93,.1,1.38,.02,.9-.17,1.63-.86,2.04-1.67,.04-.07,.14-.25,.17-.32-.22,0-.43-.01-.65-.04-.42-.05-.84-.14-1.26-.15-.57-.01-1.13,.11-1.64,.36-.15,.07-.3,.16-.46,.2-.23,.05-.46,.02-.69-.01-.82-.1-1.67-.12-2.48,.09-.45,.12-.88,.3-1.31,.49-.03,.01-.05,.02-.08,.04-.05,.02-.09,.04-.14,.06Zm-1.93-23.01c.34,.56,1.22,.9,1.61,.38,.31-.4,.17-1.14,.64-1.33,.31-.12,.64,.12,.85,.38s.42,.56,.74,.64c.51,.12,.92-.39,1.22-.83,.6-.91,1.3-1.76,2.08-2.53-.09,.76-.12,1.53-.07,2.3,0,.11,.02,.23,.09,.31,.14,.16,.4,.11,.6,.03,.67-.29,1.26-.74,1.71-1.31-.21,.76,.68,1.56,1.41,1.27,.75-.29,1.04-1.34,1.82-1.51-.05,.3,.29,.54,.59,.53,.3,0,.57-.16,.85-.27,.37-.14,.77-.2,1.17-.16,.33,.03,.71,.19,.75,.52,.01,.14-.04,.28-.06,.41-.07,.41,.16,.83,.48,1.09,.32,.27,.72,.42,1.12,.56,.1,.03,.22,.07,.28,.17,.06,.08,.06,.2,.05,.31-.07,.71-.64,1.34-.56,2.05,.07,.69,.71,1.16,1.23,1.61,.59,.5,1.09,1.08,1.5,1.73,.11,.18,.22,.38,.24,.59,.04,.46-.33,.84-.45,1.28-.15,.54,.1,1.16,.58,1.44,.4,.22,.92,.2,1.31-.04,.05,.63,.11,1.27,.2,1.89,.19,1.3,.6,2.74,.62,4.09h0c.02,.37,0,.72-.06,1.06-.03,1,.01,2.01,.12,3.01h0c-.32,1.08-1.21,2.3-1.98,3.1-.36,.37-.77,.7-1.02,1.15-.21,.36-.3,.76-.47,1.14-.22,.46-.54,.86-.88,1.24-1.34,1.55-2.9,2.92-4.6,4.06-2.14,1.42-4.67,2.52-7.22,2.22-2.49-.29-4.84-1.98-6.85-3.47h-.01c-.09-.08-.19-.16-.29-.24-.17-.12-.33-.23-.48-.35-.04-.03-.08-.07-.11-.1-.54-.4-.9-.81-1.27-1.28-1.8-2.28-3.24-4.69-4.4-7.44-.27-.5-.53-1.02-.76-1.54h0c-1.3-2.8-2.17-5.82-1.97-8.86,.04-.73,.16-1.46,.18-2.19,.03-.59-.01-1.18,.08-1.77,.13-.8,.49-1.58,.7-2.37,1.46-.04,2.76-1.54,2.54-2.98,.61,1.36,.45,2.98-.2,4.33-.64,1.35-1,2.35-2.18,3.27,3.11-1.57,4.91-4.16,6.36-7.33-.03,.49,.59,.8,1.06,.67s.8-.54,1.11-.93Zm15.69,6.24c.45-.07,.77-.22,1.14-.48-1.65-.08-3.3-.15-4.95-.22-.33-.02-.67-.03-1,.04-.36,.07-.69,.24-1.01,.41-.77,.41-1.53,.81-2.23,1.33,.16,.09,.2,.21,.36,.31,1.07-.4,2.17-.74,3.28-1.01,.29-.07,.58-.14,.87-.17,.33-.03,.66-.02,.99-.02,.85,0,1.71-.07,2.55-.19Zm-15.9,2.22c-.08-.27-.17-.54-.25-.81-.55,.03-1.09-.17-1.63-.2-.43-.03-.85,.04-1.27,.12-1.45,.26-2.9,.56-4.35,.88-.23,.06-.38,.14-.6,.22,.29,.14,.64,.1,.97,.06,2.36-.25,4.76-.37,7.13-.27Z"/><path class="cls-3" d="M146.67,105.95c.19,2.38,.37,4.76,.55,7.15l-19.72,.46c.6-4.52,.67-9.11,.17-13.63-.24-2.21-.27-4.44-.05-6.66,.03-.25,.05-.49,.07-.73,.15-1.56,.3-3.13,.31-4.7,2.21-2.57,6.65-4.63,9.29-6.76,1.01-.8,2.05-1.74,3.34-1.81,.15-.01,.31,0,.46,.02,.09,.01,.19,.02,.29,.05,.21,.03,.41,.1,.61,.18l.21,.09c.23,.09,.44,.21,.65,.34,.08,.05,.15,.09,.22,.14,.49,.3,.94,.66,1.38,.98,.27,.21,.54,.41,.81,.61,.15,.22,.28,.41,.44,.63,.23,1.43,.34,2.88,.29,4.34-.15,4.44-1.69,8.93-.6,13.23,.25,1.01,.65,1.99,.89,3,.23,1.01,.31,2.04,.39,3.07Z"/><path class="cls-1" d="M128,87.84c-.01,1.57-.16,3.14-.31,4.7-.02,.24-.04,.48-.07,.73-.22,2.22-.19,4.45,.05,6.66,.5,4.52,.43,9.11-.17,13.63l-72.45-.91c-.12-1.1,.24-2.19,.58-3.24,.42-1.26,.84-2.52,1.25-3.78,1.14-3.45,2.3-6.95,2.59-10.57,.14-1.68,.09-3.37-.12-5.04-.1-.86-.24-1.73-.08-2.58,.16-.87,.64-1.64,.99-2.45,.71-1.64,.93-3.47,.83-5.26-.06-1.12-.24-2.25-.08-3.36,.18-1.15,.71-2.2,1.23-3.23,.6-1.2,1.22-2.41,2.19-3.34,.68-.64,1.49-1.11,2.3-1.57,3.21-1.85,6.43-3.7,9.8-5.25,1.41-.64,2.86-1.24,4.39-1.45,1.93-.26,4.05,.08,5.78-.69,.16-.07,.31-.15,.46-.25,.03,.13,.05,.27,.07,.4,.09,.62,.17,1.39,.26,2.01,.15,.57,.27,1.16,.34,1.75,.06,.5,.09,1.01,.28,1.48,.48,1.21,1.84,1.8,3.11,2.09,3.27,.74,6.82,.2,9.72-1.48,.91-.53,1.76-1.17,2.6-1.8,3.2-2.41,6.51-4.93,8.33-8.5,.23-.45,.42-.97,.43-1.46,0-.36-.07-.69-.3-.97,6.42,2.28,12.78,4.95,19.2,7.23,1.88,.67,3.8,1.36,5.39,2.56,2.02,1.53,3.36,3.78,4.55,6.02,2.03,3.79,3.78,7.85,4.5,12.05-.13-.1-.25-.19-.38-.29-.02-.03-.05-.06-.07-.1-.24-.15-.49-.32-.74-.51-.44-.32-.89-.68-1.38-.98-.07-.05-.15-.1-.22-.14-.21-.13-.42-.25-.65-.34-.07-.04-.14-.07-.21-.09-.2-.08-.4-.15-.61-.18-.09-.02-.19-.04-.29-.05-.15-.02-.31-.03-.46-.02-1.29,.07-2.33,1.01-3.34,1.81-2.64,2.13-7.08,4.19-9.29,6.76Zm-7.1-1.77c-.1-1.1,.15-2.22,.7-3.17-2.25-.21-4.51-.44-6.76-.71-.59-.07-2.19-.58-2.49,.07-.12,.25,.16,3.06-.28,3.07,2.96-.1,5.93,.14,8.83,.74Zm-2.82,4.02c-.2-1.16-.24-2.35-.1-3.52-2.2,.45-4.44-.7-6.67-.53,.6,.63-.23,2.42-.25,3.2,2.35,.18,4.7,.46,7.02,.85Zm-4.33,.42c-.73,.16-1.48-.16-2.22-.24-.38-.04-.9-.14-1.18,.15-.26,.28-.36,1.12-.48,1.49-.19,.59-.38,1.21-.3,1.83,1.05,.15,2.09,.29,3.15,.4,.09,.01,.18,.02,.26-.03,.11-.07,.13-.22,.14-.35,.07-1.1,.28-2.2,.63-3.25Zm-2.73-4.27l-.03-.03c-.49-.48-2.24-.85-2.82-.46-.56,.38-.38,1.68-.66,2.28-.14,.3-.33,.62-.3,.95,.94-.02,1.88-.01,2.82,.05,.27-.95,.6-1.88,.99-2.79Z"/><path class="cls-2" d="M121.6,82.9c-.55,.95-.8,2.07-.7,3.17-2.9-.6-5.87-.84-8.83-.74,.44-.01,.16-2.82,.28-3.07,.3-.65,1.9-.14,2.49-.07,2.25,.27,4.51,.5,6.76,.71Z"/><path class="cls-2" d="M73.75,42.77c-2.01,.72-4.45-1.16-4.26-3.29-.48,.49-1.11,.94-1.79,.83-.67-.11-1.12-1.11-.57-1.51,.55,.26,1.1,.51,1.65,.77-.08-1.58-1.56-2.97-3.15-2.94,.34-.79-.6-1.48-1.25-2.05-1.3-1.14-1.77-2.94-2.16-4.63,1.03,.55,2.42-.78,1.91-1.83,.73,.15,1.53-.41,1.63-1.15,.05-.31-.02-.65,.09-.94,.37-.96,2.27-1.09,2-2.07-.13-.46-.71-.62-1.17-.54s-.9,.32-1.36,.35c-1.45,.1-2.27-1.93-1.58-3.2,.7-1.28,2.23-1.83,3.66-2.09-1.55-1.16-1.6-3.82-.11-5.05,.01,1.58,.38,3.62,1.93,3.88-.24-1.2-.15-2.61,.75-3.43,.9-.83,2.75-.46,2.86,.76,0-1.88,1.49-3.65,3.34-3.95,.56-.09,1.24-.13,1.5-.63,.3-.6-.29-1.37-.01-1.98,.41-.87,1.9-.34,2.61-.99,.27-.25,.37-.62,.51-.97,.54-1.33,1.82-2.34,3.25-2.55,.21-.04,.45-.04,.62,.09,.24,.2,.2,.58,.31,.87,.19,.49,.8,.68,1.32,.61,.52-.08,.99-.34,1.48-.51,1.25-.41,2.69-.17,3.72,.64,.91,.72,1.75,1.91,2.89,1.71,.81-.14,1.3-.93,1.95-1.43s1.9-.45,1.96,.36c.08,1.09-2.07,1.35-1.88,2.42,.05,.25,.23,.46,.43,.62,1.78,1.48,4.43,.65,6.56-.24-.28,.66,.33,1.4,1.01,1.59,.69,.18,1.41,0,2.12-.09,.89-.12,1.81-.07,2.69,.13,.43,.09,.88,.24,1.17,.58s.34,.91,0,1.19c-.99-.36-2.19-.06-2.89,.73,2.57,.13,5.14,.26,7.72,.39-1.09,.41-2.18,.81-3.26,1.22,.74,.33,1.45,.72,2.12,1.17,.5,.33,1,.75,1.13,1.33,.12,.58-.39,1.29-.96,1.13,.48,.82,1.61,.87,2.54,1.04s2.02,.94,1.67,1.83c-.22,.56-.96,.86-1.02,1.46-.03,.36,.2,.68,.37,1,.83,1.48,.44,3.53-.87,4.61-.31,.26-.68,.49-.78,.88-.17,.66,.54,1.35,.25,1.97-.23,.49-.97,.59-1.15,1.1-.32,.94,1.61,1.39,1.5,2.38-.89,.25-1.69,.84-2.18,1.62,.54-.09,1.1,.34,1.17,.88,.08,.54-.32,1.1-.86,1.22-.63,.14-1.61-.05-1.67,.59-.02,.23,.13,.44,.28,.63,.51,.63,1.01,1.27,1.52,1.9-1.21,.04-2.35,.95-2.64,2.12-.07,.26-.1,.55-.29,.74-.32,.32-.92,.22-1.21,.57-.49,.58,.48,1.38,.38,2.13-.1,.68-.95,.89-1.62,1.06-.52,.13-1.11,.55-1.17,1.01-.02-.1-.03-.2-.05-.3-.04-.27-.08-.54-.11-.82h0c-.11-1.01-.15-2.02-.12-3.02,.06-.34,.08-.69,.06-1.05h0c-.02-1.36-.43-2.8-.62-4.1-.09-.62-.15-1.26-.2-1.89-.39,.24-.91,.26-1.31,.04-.48-.28-.73-.9-.58-1.44,.12-.44,.49-.82,.45-1.28-.02-.21-.13-.41-.24-.59-.41-.65-.91-1.23-1.5-1.73-.52-.45-1.16-.92-1.23-1.61-.08-.71,.49-1.34,.56-2.05,.01-.11,.01-.23-.05-.31-.06-.1-.18-.14-.28-.17-.4-.14-.8-.29-1.12-.56-.32-.26-.55-.68-.48-1.09,.02-.13,.07-.27,.06-.41-.04-.33-.42-.49-.75-.52-.4-.04-.8,.02-1.17,.16-.28,.11-.55,.27-.85,.27-.3,.01-.64-.23-.59-.53-.78,.17-1.07,1.22-1.82,1.51-.73,.29-1.62-.51-1.41-1.27-.45,.57-1.04,1.02-1.71,1.31-.2,.08-.46,.13-.6-.03-.07-.08-.08-.2-.09-.31-.05-.77-.02-1.54,.07-2.3-.78,.77-1.48,1.62-2.08,2.53-.3,.44-.71,.95-1.22,.83-.32-.08-.53-.38-.74-.64s-.54-.5-.85-.38c-.47,.19-.33,.93-.64,1.33-.39,.52-1.27,.18-1.61-.38-.31,.39-.64,.8-1.11,.93s-1.09-.18-1.06-.67c-1.45,3.17-3.25,5.76-6.36,7.33,1.18-.92,1.54-1.92,2.18-3.27,.65-1.35,.81-2.97,.2-4.33,.22,1.44-1.08,2.94-2.54,2.98-.21,.79-.57,1.57-.7,2.37-.09,.59-.05,1.18-.08,1.77-.02,.73-.14,1.46-.18,2.19-.2,3.04,.67,6.06,1.97,8.85h0c-.01,.2-.02,.37-.04,.55-.02,.11-.04,.22-.1,.31-.07,.08-.17,.13-.28,.16-.56,.16-1.17-.08-1.6-.47-.43-.4-.71-.92-.98-1.44-.43-.82-.87-1.65-1.21-2.51Z"/><path class="cls-2" d="M117.98,86.57c-.14,1.17-.1,2.36,.1,3.52-2.32-.39-4.67-.67-7.02-.85,.02-.78,.85-2.57,.25-3.2,2.23-.17,4.47,.98,6.67,.53Z"/><path class="cls-2" d="M111.53,90.27c.74,.08,1.49,.4,2.22,.24-.35,1.05-.56,2.15-.63,3.25-.01,.13-.03,.28-.14,.35-.08,.05-.17,.04-.26,.03-1.06-.11-2.1-.25-3.15-.4-.08-.62,.11-1.24,.3-1.83,.12-.37,.22-1.21,.48-1.49,.28-.29,.8-.19,1.18-.15Z"/><path class="cls-3" d="M112.3,55.08c-.01,.49-.2,1.01-.43,1.46-1.82,3.57-5.13,6.09-8.33,8.5-.84,.63-1.69,1.27-2.6,1.8-2.9,1.68-6.45,2.22-9.72,1.48-1.27-.29-2.63-.88-3.11-2.09-.19-.47-.22-.98-.28-1.48-.07-.59-.19-1.18-.34-1.75-.09-.62-.17-1.39-.26-2.01-.02-.13-.04-.27-.07-.4-.05-.35-.13-.7-.28-1.04-.11-.25-.26-.49-.41-.72-.33-.53-.67-1.05-1.05-1.54-.04-.05-.09-.11-.15-.15h.01c2.01,1.48,4.36,3.17,6.85,3.46,2.55,.3,5.08-.8,7.22-2.22,1.7-1.14,3.26-2.51,4.6-4.06,.34-.38,.66-.78,.88-1.24,.17-.38,.26-.78,.47-1.14,.25-.45,.66-.78,1.02-1.15,.77-.8,1.66-2.02,1.98-3.09,.03,.28,.07,.55,.11,.82,.02,.1,.03,.2,.05,.3-.02,.12,0,.25,.07,.38,.01,0,.01,.01,.01,.01,.09,.46,.2,.91,.37,1.35,.25,.66,.61,1.27,.99,1.87,.64,1.02,1.39,2.06,2.4,2.65Z"/><path class="cls-2" d="M110.99,86.21l.03,.03c-.39,.91-.72,1.84-.99,2.79-.94-.06-1.88-.07-2.82-.05-.03-.33,.16-.65,.3-.95,.28-.6,.1-1.9,.66-2.28,.58-.39,2.33-.02,2.82,.46Z"/><path class="cls-2" d="M97.52,33.56c1.65,.07,3.3,.14,4.95,.22-.37,.26-.69,.41-1.14,.48-.84,.12-1.7,.19-2.55,.19-.33,0-.66-.01-.99,.02-.29,.03-.58,.1-.87,.17-1.11,.27-2.21,.61-3.28,1.01-.16-.1-.2-.22-.36-.31,.7-.52,1.46-.92,2.23-1.33,.32-.17,.65-.34,1.01-.41,.33-.07,.67-.06,1-.04Z"/><path class="cls-4" d="M96.28,49.99c-.03,.07-.13,.25-.17,.32-.24,.06-.48,.09-.68,.11-.81,.09-1.66,.03-2.44,.29-.29,.1-.57,.25-.87,.32-.32,.07-.65,.06-.97,.04-1.14-.09-2.31-.3-3.42-.07,0-.01-.01-.02-.02-.03,.03-.02,.05-.03,.08-.04,.43-.19,.86-.37,1.31-.49,.81-.21,1.66-.19,2.48-.09,.23,.03,.46,.06,.69,.01,.16-.04,.31-.13,.46-.2,.51-.25,1.07-.37,1.64-.36,.42,0,.84,.1,1.26,.15,.22,.03,.43,.04,.65,.04Z"/><path class="cls-4" d="M95.43,50.42c.2-.02,.44-.05,.68-.11-.41,.81-1.14,1.5-2.04,1.67-.45,.08-.92,.03-1.38-.02-.47-.05-.95-.09-1.42-.05-.46,.04-.9,.17-1.36,.17-.84,.02-1.68-.4-2.18-1.08,1.11-.23,2.28-.02,3.42,.07,.32,.02,.65,.03,.97-.04,.3-.07,.58-.22,.87-.32,.78-.26,1.63-.2,2.44-.29Z"/><path class="cls-2" d="M85.18,35.67c.08,.27,.17,.54,.25,.81-2.37-.1-4.77,.02-7.13,.27-.33,.04-.68,.08-.97-.06,.22-.08,.37-.16,.6-.22,1.45-.32,2.9-.62,4.35-.88,.42-.08,.84-.15,1.27-.12,.54,.03,1.08,.23,1.63,.2Z"/></g><g><path class="cls-7" d="M127.5,113.56l-72.45-.91c-.12-1.1,.24-2.19,.58-3.24,.42-1.26,.84-2.52,1.25-3.78,1.14-3.45,2.3-6.95,2.59-10.57,.14-1.68,.09-3.37-.12-5.04-.1-.86-.24-1.73-.08-2.58,.16-.87,.64-1.64,.99-2.45,.71-1.64,.93-3.47,.83-5.26-.06-1.12-.24-2.25-.08-3.36,.18-1.15,.71-2.2,1.23-3.23,.6-1.2,1.22-2.41,2.19-3.34,.68-.64,1.49-1.11,2.3-1.57,3.21-1.85,6.43-3.7,9.8-5.25,1.41-.64,2.86-1.24,4.39-1.45,1.93-.26,4.05,.08,5.78-.69"/><path class="cls-7" d="M141.38,79.34c-.09-.02-.19-.04-.29-.05"/><path class="cls-7" d="M142.2,79.61c-.07-.04-.14-.07-.21-.09"/><path class="cls-7" d="M143.07,80.09c-.07-.05-.15-.1-.22-.14"/><path class="cls-7" d="M112.3,55.08c0-.36-.07-.69-.3-.97,6.42,2.28,12.78,4.95,19.2,7.23,1.88,.67,3.8,1.36,5.39,2.56,2.02,1.53,3.36,3.78,4.55,6.02,2.03,3.79,3.78,7.85,4.5,12.05-.13-.1-.25-.19-.38-.29-.27-.2-.54-.4-.81-.61"/><path class="cls-7" d="M107.21,88.98c-.03-.33,.16-.65,.3-.95,.28-.6,.1-1.9,.66-2.28,.58-.39,2.33-.02,2.82,.46l.03,.03c-.39,.91-.72,1.84-.99,2.79-.94-.06-1.88-.07-2.82-.05Z"/><path class="cls-7" d="M127.5,113.56c.6-4.52,.67-9.11,.17-13.63-.24-2.21-.27-4.44-.05-6.66,.03-.25,.05-.49,.07-.73,.15-1.56,.3-3.13,.31-4.7,2.21-2.57,6.65-4.63,9.29-6.76,1.01-.8,2.05-1.74,3.34-1.81,.15-.01,.31,0,.46,.02,.09,.01,.19,.02,.29,.05,.21,.03,.41,.1,.61,.18l.21,.09c.23,.09,.44,.21,.65,.34,.08,.05,.15,.09,.22,.14,.49,.3,.94,.66,1.38,.98,.25,.19,.5,.36,.74,.51,.02,.04,.05,.07,.07,.1,.15,.22,.28,.41,.44,.63,.23,1.43,.34,2.88,.29,4.34-.15,4.44-1.69,8.93-.6,13.23,.25,1.01,.65,1.99,.89,3,.23,1.01,.31,2.04,.39,3.07,.19,2.38,.37,4.76,.55,7.15l-19.72,.46Z"/><path class="cls-7" d="M87.16,60.59c-.15,.1-.3,.18-.46,.25"/><path class="cls-7" d="M127.17,68.56c-.08,2.83-.17,5.66-.21,8.49-.02,1.41-.03,2.82,.2,4.2,.14,.84,.37,1.65,.52,2.48,.26,1.36,.34,2.73,.32,4.11"/><path class="cls-7" d="M120.9,86.07c-2.9-.6-5.87-.84-8.83-.74,.44-.01,.16-2.82,.28-3.07,.3-.65,1.9-.14,2.49-.07,2.25,.27,4.51,.5,6.76,.71-.55,.95-.8,2.07-.7,3.17Z"/><path class="cls-7" d="M111.06,89.24c.02-.78,.85-2.57,.25-3.2,2.23-.17,4.47,.98,6.67,.53-.14,1.17-.1,2.36,.1,3.52-2.32-.39-4.67-.67-7.02-.85Z"/><path class="cls-7" d="M113.12,93.76c-.01,.13-.03,.28-.14,.35-.08,.05-.17,.04-.26,.03-1.06-.11-2.1-.25-3.15-.4-.08-.62,.11-1.24,.3-1.83,.12-.37,.22-1.21,.48-1.49,.28-.29,.8-.19,1.18-.15,.74,.08,1.49,.4,2.22,.24-.35,1.05-.56,2.15-.63,3.25Z"/><path class="cls-7" d="M77.96,46.18c.23,.52,.49,1.04,.76,1.54,1.16,2.75,2.6,5.16,4.4,7.44,.37,.47,.73,.88,1.27,1.28,.03,.03,.07,.07,.11,.1,.15,.12,.31,.23,.48,.35,.1,.08,.2,.16,.29,.25,.06,.04,.11,.1,.15,.15,.38,.49,.72,1.01,1.05,1.54,.15,.23,.3,.47,.41,.72,.15,.34,.23,.69,.28,1.04,.03,.13,.05,.27,.07,.4,.09,.62,.17,1.39,.26,2.01,.15,.57,.27,1.16,.34,1.75,.06,.5,.09,1.01,.28,1.48,.48,1.21,1.84,1.8,3.11,2.09,3.27,.74,6.82,.2,9.72-1.48,.91-.53,1.76-1.17,2.6-1.8,3.2-2.41,6.51-4.93,8.33-8.5,.23-.45,.42-.97,.43-1.46-1.01-.59-1.76-1.63-2.4-2.65-.38-.6-.74-1.21-.99-1.87-.17-.44-.28-.89-.37-1.35,0,0,0-.01-.01-.01-.07-.13-.09-.26-.07-.38"/><path class="cls-7" d="M87.73,51c-.06,0-.11,.01-.16,.03,.05-.02,.09-.04,.14-.06"/><path class="cls-7" d="M96.11,50.31c-.41,.81-1.14,1.5-2.04,1.67-.45,.08-.92,.03-1.38-.02-.47-.05-.95-.09-1.42-.05-.46,.04-.9,.17-1.36,.17-.84,.02-1.68-.4-2.18-1.08"/><path class="cls-7" d="M108.53,49.2c-.02-.13-.05-.25-.07-.38"/><path class="cls-7" d="M108.23,43.71c-.02,.32-.04,.64-.05,.97"/><path class="cls-7" d="M111.81,32.02c.25,.94,.33,1.94,.24,2.91-.04,.54-.14,1.09-.1,1.63,.03,.28,.09,.55,.13,.83,.27,1.88-.6,3.72-1.46,5.41-.32,.62-.78,1.32-1.47,1.31-.37,0-.66-.2-.91-.48"/><path class="cls-7" d="M108.18,44.68s-.01,.04-.01,.06"/><path class="cls-7" d="M106.72,32.39c.55,1.69,.58,3.48,.7,5.25"/><path class="cls-7" d="M77.09,29.52c.07,.5-.01,.99-.14,1.47"/><path class="cls-7" d="M73.17,35.38c-.42,.61-.12,1.43-.05,2.16,.06,.61-.05,1.22-.07,1.83-.04,1.18,.26,2.31,.7,3.4"/><path class="cls-7" d="M85.28,57.13c2.01,1.49,4.36,3.18,6.85,3.47,2.55,.3,5.08-.8,7.22-2.22,1.7-1.14,3.26-2.51,4.6-4.06,.34-.38,.66-.78,.88-1.24,.17-.38,.26-.78,.47-1.14,.25-.45,.66-.78,1.02-1.15,.77-.8,1.66-2.02,1.98-3.09"/><path class="cls-7" d="M96.28,49.99c-.03,.07-.13,.25-.17,.32-.24,.06-.48,.09-.68,.11-.81,.09-1.66,.03-2.44,.29-.29,.1-.57,.25-.87,.32-.32,.07-.65,.06-.97,.04-1.14-.09-2.31-.3-3.42-.07,0-.01-.01-.02-.02-.03"/><path class="cls-7" d="M96.28,49.99c.69,.01,1.38-.08,2.03-.28"/><path class="cls-7" d="M87.55,51.03c-.47,.22-.95,.42-1.42,.63"/><path class="cls-7" d="M87.71,50.97s-.01-.02-.02-.03"/><path class="cls-7" d="M87.57,51.03h-.02"/><path class="cls-7" d="M86.36,36.73c1.04,.27,1.78,1.24,2.05,2.28,.29,1.1,.13,2.31-.43,3.3-.15,.27-.33,.52-.47,.79-.19,.39-.3,.81-.4,1.23-.09,.45-.18,.9-.12,1.35,.06,.44,.28,.89,.67,1.12s.87,.22,1.28,.39c.61,.25,1.08,.87,1.74,.86,.27-.01,.54-.13,.77-.28,.28-.17,.53-.39,.74-.64,.13-.14,.25-.3,.4-.41,.53-.38,1.33-.13,1.86-.5,.38-.27,.51-.79,.44-1.25-.08-.46-.32-.88-.55-1.28"/><path class="cls-7" d="M101.33,34.26c-.84,.12-1.7,.19-2.55,.19-.33,0-.66-.01-.99,.02-.29,.03-.58,.1-.87,.17-1.11,.27-2.21,.61-3.28,1.01-.16-.1-.2-.22-.36-.31,.7-.52,1.46-.92,2.23-1.33,.32-.17,.65-.34,1.01-.41,.33-.07,.67-.06,1-.04,1.65,.07,3.3,.14,4.95,.22-.37,.26-.69,.41-1.14,.48Z"/><path class="cls-7" d="M85.43,36.48c-2.37-.1-4.77,.02-7.13,.27-.33,.04-.68,.08-.97-.06,.22-.08,.37-.16,.6-.22,1.45-.32,2.9-.62,4.35-.88,.42-.08,.84-.15,1.27-.12,.54,.03,1.08,.23,1.63,.2,.08,.27,.17,.54,.25,.81Z"/><path class="cls-7" d="M73.75,42.77c-2.01,.72-4.45-1.16-4.26-3.29-.48,.49-1.11,.94-1.79,.83-.67-.11-1.12-1.11-.57-1.51,.55,.26,1.1,.51,1.65,.77-.08-1.58-1.56-2.97-3.15-2.94,.34-.79-.6-1.48-1.25-2.05-1.3-1.14-1.77-2.94-2.16-4.63,1.03,.55,2.42-.78,1.91-1.83,.73,.15,1.53-.41,1.63-1.15,.05-.31-.02-.65,.09-.94,.37-.96,2.27-1.09,2-2.07-.13-.46-.71-.62-1.17-.54s-.9,.32-1.36,.35c-1.45,.1-2.27-1.93-1.58-3.2,.7-1.28,2.23-1.83,3.66-2.09-1.55-1.16-1.6-3.82-.11-5.05,.01,1.58,.38,3.62,1.93,3.88-.24-1.2-.15-2.61,.75-3.43,.9-.83,2.75-.46,2.86,.76,0-1.88,1.49-3.65,3.34-3.95,.56-.09,1.24-.13,1.5-.63,.3-.6-.29-1.37-.01-1.98,.41-.87,1.9-.34,2.61-.99,.27-.25,.37-.62,.51-.97,.54-1.33,1.82-2.34,3.25-2.55,.21-.04,.45-.04,.62,.09,.24,.2,.2,.58,.31,.87,.19,.49,.8,.68,1.32,.61,.52-.08,.99-.34,1.48-.51,1.25-.41,2.69-.17,3.72,.64,.91,.72,1.75,1.91,2.89,1.71,.81-.14,1.3-.93,1.95-1.43s1.9-.45,1.96,.36c.08,1.09-2.07,1.35-1.88,2.42,.05,.25,.23,.46,.43,.62,1.78,1.48,4.43,.65,6.56-.24-.28,.66,.33,1.4,1.01,1.59,.69,.18,1.41,0,2.12-.09,.89-.12,1.81-.07,2.69,.13,.43,.09,.88,.24,1.17,.58s.34,.91,0,1.19c-.99-.36-2.19-.06-2.89,.73,2.57,.13,5.14,.26,7.72,.39-1.09,.41-2.18,.81-3.26,1.22,.74,.33,1.45,.72,2.12,1.17,.5,.33,1,.75,1.13,1.33,.12,.58-.39,1.29-.96,1.13,.48,.82,1.61,.87,2.54,1.04s2.02,.94,1.67,1.83c-.22,.56-.96,.86-1.02,1.46-.03,.36,.2,.68,.37,1,.83,1.48,.44,3.53-.87,4.61-.31,.26-.68,.49-.78,.88-.17,.66,.54,1.35,.25,1.97-.23,.49-.97,.59-1.15,1.1-.32,.94,1.61,1.39,1.5,2.38-.89,.25-1.69,.84-2.18,1.62,.54-.09,1.1,.34,1.17,.88,.08,.54-.32,1.1-.86,1.22-.63,.14-1.61-.05-1.67,.59-.02,.23,.13,.44,.28,.63,.51,.63,1.01,1.27,1.52,1.9-1.21,.04-2.35,.95-2.64,2.12-.07,.26-.1,.55-.29,.74-.32,.32-.92,.22-1.21,.57-.49,.58,.48,1.38,.38,2.13-.1,.68-.95,.89-1.62,1.06-.52,.13-1.11,.55-1.17,1.01-.02-.1-.03-.2-.05-.3-.04-.27-.08-.54-.11-.82h0c-.11-1.01-.15-2.02-.12-3.02,.06-.34,.08-.69,.06-1.05h0c-.02-1.36-.43-2.8-.62-4.1-.09-.62-.15-1.26-.2-1.89-.39,.24-.91,.26-1.31,.04-.48-.28-.73-.9-.58-1.44,.12-.44,.49-.82,.45-1.28-.02-.21-.13-.41-.24-.59-.41-.65-.91-1.23-1.5-1.73-.52-.45-1.16-.92-1.23-1.61-.08-.71,.49-1.34,.56-2.05,.01-.11,.01-.23-.05-.31-.06-.1-.18-.14-.28-.17-.4-.14-.8-.29-1.12-.56-.32-.26-.55-.68-.48-1.09,.02-.13,.07-.27,.06-.41-.04-.33-.42-.49-.75-.52-.4-.04-.8,.02-1.17,.16-.28,.11-.55,.27-.85,.27-.3,.01-.64-.23-.59-.53-.78,.17-1.07,1.22-1.82,1.51-.73,.29-1.62-.51-1.41-1.27-.45,.57-1.04,1.02-1.71,1.31-.2,.08-.46,.13-.6-.03-.07-.08-.08-.2-.09-.31-.05-.77-.02-1.54,.07-2.3-.78,.77-1.48,1.62-2.08,2.53-.3,.44-.71,.95-1.22,.83-.32-.08-.53-.38-.74-.64s-.54-.5-.85-.38c-.47,.19-.33,.93-.64,1.33-.39,.52-1.27,.18-1.61-.38-.31,.39-.64,.8-1.11,.93s-1.09-.18-1.06-.67c-1.45,3.17-3.25,5.76-6.36,7.33,1.18-.92,1.54-1.92,2.18-3.27,.65-1.35,.81-2.97,.2-4.33,.22,1.44-1.08,2.94-2.54,2.98-.21,.79-.57,1.57-.7,2.37-.09,.59-.05,1.18-.08,1.77-.02,.73-.14,1.46-.18,2.19-.2,3.04,.67,6.06,1.97,8.85h0c-.01,.2-.02,.37-.04,.55-.02,.11-.04,.22-.1,.31-.07,.08-.17,.13-.28,.16-.56,.16-1.17-.08-1.6-.47-.43-.4-.71-.92-.98-1.44-.43-.82-.87-1.65-1.21-2.51Z"/><line class="cls-7" x1="73.76" y1="42.77" x2="73.75" y2="42.77"/></g></g><path class="cls-7" d="M87.66,50.87c.54,.05,.94-.24,1.41-.43s1.04-.2,1.57-.17c.84,.05,1.68,.16,2.47-.19,.96-.43,2.2-.51,3.17-.09"/></svg>