<svg width="1920" height="1081" viewBox="0 0 1920 1081" fill="none" xmlns="http://www.w3.org/2000/svg"><path d="M1662.09 414.667L1680.4 435.748" stroke="#003B2F" stroke-width="3" stroke-linecap="round" stroke-linejoin="round"/><path d="M1707.82 430.48L1691.67 433.573" stroke="#003B2F" stroke-width="3" stroke-linecap="round" stroke-linejoin="round"/><path d="M1680.4 435.748L1671.16 462.485" stroke="#003B2F" stroke-width="3" stroke-linecap="round" stroke-linejoin="round"/><path d="M423.187 525.933H373.37C389.155 525.933 401.968 514.35 401.968 500C401.968 485.649 389.155 474.066 373.37 474.066H230.275C214.489 474.066 201.676 485.649 201.676 500H157.702C141.917 500 129.104 511.582 129.104 525.933C129.104 540.283 141.917 551.866 157.702 551.866H251.493C251.493 566.217 264.306 577.8 280.092 577.8H423.187C438.972 577.8 451.785 566.217 451.785 551.866C451.785 537.516 438.972 525.933 423.187 525.933Z" fill="#03FC9D"/><path d="M1530.27 532.087C1538.9 532.087 1545.91 525.086 1545.91 516.448C1545.91 507.811 1538.9 500.809 1530.27 500.809C1521.63 500.809 1514.63 507.811 1514.63 516.448C1514.63 525.086 1521.63 532.087 1530.27 532.087Z" stroke="#003B2F" stroke-width="3" stroke-linecap="round" stroke-linejoin="round"/><path d="M1524.18 908.431H1695.86" stroke="#03FC9D" stroke-width="3" stroke-linecap="round" stroke-linejoin="round"/><path d="M1658.48 946.277H1790.9" stroke="#003B2F" stroke-width="3" stroke-linecap="round" stroke-linejoin="round"/><path d="M614.179 134.223L624.02 155.134" stroke="#003B2F" stroke-width="3" stroke-linecap="round" stroke-linejoin="round"/><path d="M631.194 170.51L641.034 191.42" stroke="#003B2F" stroke-width="3" stroke-linecap="round" stroke-linejoin="round"/><path d="M599.009 176.25L619.919 166.41" stroke="#003B2F" stroke-width="3" stroke-linecap="round" stroke-linejoin="round"/><path d="M635.295 159.234L656.206 149.394" stroke="#003B2F" stroke-width="3" stroke-linecap="round" stroke-linejoin="round"/><path d="M147.248 929.806H182.92" stroke="#003B2F" stroke-width="3" stroke-linecap="round" stroke-linejoin="round"/><path d="M277.119 890.65H451.785" stroke="#03FC9D" stroke-width="3" stroke-linecap="round" stroke-linejoin="round"/><path d="M229.045 929.704H373.678" stroke="#003B2F" stroke-width="3" stroke-linecap="round" stroke-linejoin="round"/><path d="M1499.34 230.76H1627.43C1641.54 230.76 1652.97 242.189 1652.97 256.298C1652.97 270.408 1641.54 281.837 1627.43 281.837H1499.34C1485.23 281.837 1473.81 270.408 1473.81 256.298C1473.81 242.189 1485.23 230.76 1499.34 230.76Z" fill="#E6E8EA"/><path d="M1436.02 260.866H1578.53C1594.22 260.866 1606.98 273.556 1606.98 289.321C1606.98 305.085 1594.29 317.775 1578.53 317.775H1436.02C1420.33 317.775 1407.56 305.085 1407.56 289.321C1407.56 273.635 1420.33 260.866 1436.02 260.866Z" fill="#E6E8EA"/><path d="M766.144 847.3H699.163V279.492H766.144" stroke="#003B2F" stroke-width="3" stroke-linecap="round" stroke-linejoin="round"/><path d="M684.2 792.717H628.212V334.073H684.2" stroke="#003B2F" stroke-width="3" stroke-linecap="round" stroke-linejoin="round"/><path d="M612.107 754.371H565.578V372.423H612.107" stroke="#003B2F" stroke-width="3" stroke-linecap="round" stroke-linejoin="round"/><path d="M1310.57 422.497V236.029H777.959V890.873H1025.34M1310.57 802.562V890.873H1297.74" stroke="#003B2F" stroke-width="3" stroke-linecap="round" stroke-linejoin="round"/><path d="M1374.95 610.06L1458.43 637.269L1460.06 631.07C1462 625.927 1468.02 623.027 1473.17 624.964L1705.78 700.34C1716.07 704.214 1721.56 715.209 1718.74 725.189L1700.3 779.792C1696.42 790.08 1685.43 795.571 1675.45 792.753L1442.83 717.376C1437.69 715.44 1434.79 709.414 1436.73 704.271L1439.41 697.764L1355.92 670.555C1354.87 670.862 1374.67 644.489 1374.95 610.06Z" fill="white" stroke="#003B2F" stroke-width="3" stroke-miterlimit="10" stroke-linecap="round" stroke-linejoin="round"/><path d="M1386.29 492.917L1374.23 526.197C1373.04 529.978 1368.07 532.57 1364.29 531.381L1354 527.508C1358.24 589.244 1333.85 662.751 1289.55 711.144L1299.84 715.017C1303.62 716.206 1306.21 721.176 1305.02 724.957L1292.96 758.237C1291.77 762.018 1286.8 764.61 1283.02 763.421L1096.35 696.419C1092.57 695.23 1089.98 690.261 1091.17 686.48L1103.23 653.199C1104.42 649.418 1109.39 646.826 1113.17 648.015L1123.46 651.889C1118.91 589.097 1144.36 515.282 1187.91 468.253L1177.62 464.379C1173.84 463.19 1171.25 458.22 1172.44 454.44L1184.5 421.159C1185.69 417.378 1190.66 414.786 1194.44 415.975L1381.86 481.615C1385.2 485.222 1387.48 489.136 1386.29 492.917Z" fill="#03FC9D"/><path d="M1394.95 505.769L1382.89 539.05C1381.7 542.831 1376.73 545.423 1372.95 544.234L1362.66 540.36C1366.9 602.096 1342.51 675.604 1298.21 723.996L1308.5 727.87C1312.28 729.059 1314.87 734.029 1313.68 737.809L1301.62 771.09C1300.43 774.871 1295.46 777.463 1291.68 776.274L1105.01 709.272C1101.23 708.083 1098.64 703.113 1099.83 699.332L1111.89 666.052C1113.08 662.271 1118.05 659.679 1121.83 660.868L1132.12 664.741C1127.57 601.95 1153.02 528.135 1196.57 481.105L1186.28 477.232C1182.5 476.043 1179.91 471.073 1181.1 467.292L1193.16 434.012C1194.35 430.231 1199.32 427.639 1203.1 428.827L1390.51 494.467C1393.85 498.074 1396.14 501.988 1394.95 505.769Z" stroke="#003B2F" stroke-width="3" stroke-miterlimit="10" stroke-linecap="round" stroke-linejoin="round"/><path d="M1234.99 495.105L1363.72 540.054" stroke="#003B2F" stroke-width="3" stroke-miterlimit="10" stroke-linecap="round" stroke-linejoin="round"/><path d="M1231.96 700.927L1299.57 724.744" stroke="#003B2F" stroke-width="3" stroke-miterlimit="10" stroke-linecap="round" stroke-linejoin="round"/><path d="M1149.22 672.354L1214.11 694.675" stroke="#003B2F" stroke-width="3" stroke-miterlimit="10" stroke-linecap="round" stroke-linejoin="round"/><line x1="843.88" y1="332.573" x2="1097.1" y2="332.573" stroke="#003B2F" stroke-width="3"/><line x1="843.88" y1="448.125" x2="1097.1" y2="448.125" stroke="#003B2F" stroke-width="3"/><line x1="843.88" y1="563.677" x2="884.283" y2="563.677" stroke="#003B2F" stroke-width="3"/><line x1="910.732" y1="563.677" x2="1071.21" y2="563.677" stroke="#003B2F" stroke-width="3"/><line x1="843.88" y1="390.349" x2="1233.55" y2="390.349" stroke="#003B2F" stroke-width="3"/><line x1="843.88" y1="505.901" x2="1065.01" y2="505.901" stroke="#003B2F" stroke-width="3"/><line x1="843.88" y1="621.453" x2="919.512" y2="621.453" stroke="#003B2F" stroke-width="3"/><line x1="943.383" y1="621.453" x2="1010" y2="621.453" stroke="#003B2F" stroke-width="3"/><path d="M962.887 748.224C962.887 715.408 936.603 688.865 904.306 688.865C872.008 688.865 845.836 715.632 845.948 748.448C845.948 781.264 872.231 807.807 904.529 807.807C936.826 807.807 962.998 781.04 962.887 748.224Z" fill="#03FC9D"/><path d="M928.138 724.148L880.471 772.644M880.471 724.148L928.138 772.644" stroke="#003B2F" stroke-width="3" stroke-miterlimit="10" stroke-linecap="round"/><path d="M1079.77 862.064H1236.75C1246.53 862.064 1255.39 865.472 1261.83 870.974C1268.26 876.475 1272.24 884.071 1272.24 892.42V915.564C1272.24 919.546 1268.47 922.776 1263.81 922.776H1052.7C1048.04 922.776 1044.26 919.546 1044.26 915.564V892.42C1044.26 884.058 1048.25 876.475 1054.68 870.974C1061.11 865.472 1070 862.064 1079.76 862.064H1079.77Z" fill="#E6E8EA"/><path d="M1068.04 863.98V850.732C1068.04 840.864 1072.76 831.886 1080.35 825.385C1087.95 818.884 1098.43 814.846 1109.99 814.846H1206.5C1218.04 814.846 1228.54 818.884 1236.14 825.385C1243.74 831.886 1248.46 840.85 1248.46 850.732V863.98" fill="#E6E8EA"/><path d="M1087.52 855.025H1244.49C1254.27 855.025 1263.14 858.433 1269.57 863.935C1276 869.437 1279.99 877.033 1279.99 885.381V908.525C1279.99 912.508 1276.21 915.738 1271.55 915.738H1060.44C1055.78 915.738 1052 912.508 1052 908.525V885.381C1052 877.019 1055.99 869.437 1062.42 863.935C1068.86 858.433 1077.74 855.025 1087.5 855.025H1087.52Z" stroke="#003B2F" stroke-width="3" stroke-linecap="round" stroke-linejoin="round"/><path d="M1075.79 856.941V843.693C1075.79 833.825 1080.51 824.847 1088.09 818.346C1095.69 811.845 1106.18 807.807 1117.73 807.807H1214.25C1225.78 807.807 1236.28 811.845 1243.88 818.346C1251.49 824.847 1256.21 833.811 1256.21 843.693V856.941" stroke="#003B2F" stroke-width="3" stroke-linecap="round" stroke-linejoin="round"/><path d="M228.387 225.578H491.666" stroke="#03FC9D" stroke-width="3" stroke-linecap="round" stroke-linejoin="round"/><path d="M197.301 260.866H344.538" stroke="#003B2F" stroke-width="3" stroke-linecap="round" stroke-linejoin="round"/></svg>