<svg width="1920" height="1081" viewBox="0 0 1920 1081" fill="none" xmlns="http://www.w3.org/2000/svg"><path d="M540.186 702.212H494.332C508.876 702.212 520.645 690.471 520.645 675.962C520.645 661.452 508.876 649.712 494.332 649.712H362.542C347.997 649.712 336.228 661.452 336.228 675.962H295.814C281.269 675.962 269.5 687.702 269.5 702.212C269.5 716.721 281.269 728.462 295.814 728.462H382.082C382.082 742.971 393.851 754.712 408.396 754.712H540.186C554.731 754.712 566.5 742.971 566.5 728.462C566.5 713.952 554.731 702.212 540.186 702.212Z" fill="#E6E8EA"/><path d="M913.774 901.56C965.823 823.461 991.255 784.804 1016.72 748.447C1027.4 733.202 1058.39 690.361 1063.39 693.866C1068.08 697.128 1039.86 743.513 1030.64 759.427C1021.76 774.78 945.454 916.065 936.757 920.504C928.07 924.877 913.707 901.551 913.707 901.551L913.774 901.56Z" fill="#03FC9D"/><path d="M1259.69 604.212C1179.19 526.252 1070.92 477.536 951.266 475.06C949.66 475.06 948.054 475.06 946.448 474.993C942.701 474.993 938.953 474.993 935.206 474.993C877.857 475.796 822.314 487.239 770.72 507.448C716.383 528.795 666.462 559.845 623.5 598.524L728.696 731.089C728.696 731.089 728.696 731.089 728.763 731.022C775.271 679.161 843.059 642.757 938.619 641.285C941.228 641.285 943.838 641.285 946.515 641.285C947.586 641.285 948.656 641.285 949.66 641.285C1043.95 642.556 1109.8 680.097 1154.36 731.491C1155.5 732.762 1156.57 734.101 1157.71 735.372L1260.36 604.747C1260.36 604.747 1260.03 604.413 1259.83 604.212H1259.69Z" fill="#003B2F"/><path d="M914.76 908.309C966.809 830.21 992.241 791.553 1017.7 755.197C1028.39 739.951 1059.38 697.11 1064.37 700.615C1069.07 703.877 1040.85 750.262 1031.63 766.176C1022.75 781.529 946.44 922.814 937.744 927.253C929.056 931.626 914.694 908.3 914.694 908.3L914.76 908.309Z" stroke="#003A2F" stroke-width="3" stroke-miterlimit="10"/><path d="M334.5 968.865C334.5 975.407 590.198 983.548 922.606 984.566C1254.95 985.584 1524.43 981.174 1524.5 974.632C1524.5 968.09 1255.15 961.984 922.739 960.918C590.332 959.948 334.5 962.371 334.5 968.865Z" fill="#E6E8EA"/><path d="M1403.45 949.377C1403.39 956.604 1403.12 963.764 1402.79 970.924L1236.83 969.185C1237.03 968.248 1237.1 967.311 1237.1 966.374C1237.83 903.203 1217.76 806.841 1158 735.439C1156.93 734.1 1155.79 732.829 1154.65 731.558L1260.05 604.279C1260.05 604.279 1260.45 604.613 1260.58 604.814C1349.79 691.473 1404.79 814.001 1403.45 949.377Z" fill="#03FC9D"/><path d="M728.983 731.089C728.983 731.089 728.983 731.089 728.916 731.156C670.296 796.535 644.8 887.879 641.186 963.095L467.399 961.288C467.132 954.128 467.065 946.968 467.132 939.741C468.537 804.566 529.566 683.309 623.787 598.591L729.05 731.089H728.983Z" fill="#8F9F99"/><path d="M1006.81 719.102C996.313 712.767 985.352 711.434 973.419 714.832" stroke="#003D2E" stroke-width="3" stroke-linecap="round" stroke-linejoin="round"/><path d="M1019.35 717.203C1009.54 708.799 1000.4 705.416 987.9 705.497" stroke="#003D2E" stroke-width="3" stroke-linecap="round" stroke-linejoin="round"/><path d="M896.018 429.561L896.662 431.064L899.292 435.788C898.326 435.949 897.414 436.11 896.447 436.217C886.194 437.559 876.8 435.304 868.211 428.326C866.01 426.501 862.789 424.944 860.051 424.944C850.925 424.837 843.678 429.292 837.827 436.002C836.592 437.452 837.236 438.74 839.115 438.525C840.833 438.364 842.551 437.828 844.161 437.076C848.295 435.251 852.428 434.982 856.186 437.667C860.427 440.726 864.399 444.216 868.479 447.49C868.318 447.651 868.211 447.866 868.05 448.027C865.688 446.363 863.272 444.753 860.964 443.035C859.138 441.693 857.42 441.424 855.381 442.552C852.965 443.84 850.334 444.914 847.865 446.095C837.558 451.033 827.305 456.079 816.891 460.803C813.67 462.253 811.469 464.185 810.019 467.299C806.906 473.902 803.631 480.451 800.571 487.108C800.088 488.074 799.873 489.47 800.195 490.49C803.577 501.924 813.348 513.949 829.828 513.305C842.712 512.821 855.381 512.929 865.58 504.34C877.229 500.85 888.61 496.985 899.883 492.905C913.626 487.913 927.422 482.92 941.164 477.928L947.821 479.216C973.374 485.336 997.316 494.033 1021.2 503.105C1031.83 512.499 1044.13 512.499 1057.87 513.466C1073.87 514.539 1084.82 501.494 1087.82 490.114C1088.04 489.255 1087.82 488.074 1087.39 487.215C1083.91 479.914 1080.42 472.667 1076.77 465.474C1076.07 464.132 1074.89 462.736 1073.6 462.092C1060.77 455.865 1047.78 449.906 1034.95 443.625L1027.81 438.794C1028.99 437.989 1030.17 437.237 1031.35 436.432C1034.2 434.499 1037.47 433.909 1040.74 434.929C1042.57 435.519 1044.13 436.808 1045.95 437.398C1047.08 437.774 1048.42 437.398 1049.66 437.398C1049.17 436.432 1048.96 435.09 1048.15 434.553C1044.34 431.815 1040.58 429.024 1036.45 426.769C1030.38 423.494 1024.53 424.353 1019 428.594C1016.43 430.58 1013.64 432.459 1010.68 433.748C1004.89 436.378 998.873 436.969 992.807 436.271L992.485 434.392L999.356 319.083L1000.11 316.184C1000.27 316.721 1000.48 317.311 1000.7 317.848L1011.22 348.715L1036.45 332.235C1033.66 319.888 1031.67 307.327 1029.36 294.872C1026.52 279.358 1018.57 267.602 1004.46 260.14C996.457 255.899 988.405 251.605 980.621 246.988C973.857 243.015 967.63 238.238 964.14 230.883C963.12 228.736 962.369 226.428 961.51 224.173C951.579 230.722 939.178 232.064 926.509 223.636C925.919 225.354 925.543 226.911 924.952 228.36C921.571 236.896 915.021 242.532 907.345 246.988C899.4 251.605 891.348 255.899 883.349 260.301C870.25 267.494 861.876 278.124 859.138 292.94C857.796 300.294 856.669 307.702 855.381 315.057C852.911 329.068 849.153 342.703 844.054 356.016L874.813 348.876L890.972 346.3L896.34 429.399" fill="#03FC9D"/><path d="M995.921 313.715C992.163 321.498 988.03 328.907 981.91 335.134C975.683 341.415 968.06 344.796 959.202 346.3" stroke="#00261E" stroke-width="3" stroke-linecap="round" stroke-linejoin="round"/><path d="M841.048 351.185C843.357 343.347 845.182 335.349 846.631 327.243C847.92 319.888 849.047 312.48 850.389 305.126C853.073 290.309 861.501 279.68 874.6 272.487C882.652 268.085 890.704 263.737 898.595 259.174C906.272 254.718 912.821 249.081 916.203 240.546C916.794 239.097 917.223 237.54 917.76 235.822C930.429 244.196 942.829 242.908 952.761 236.359C953.619 238.613 954.371 240.922 955.391 243.069C958.934 250.424 965.107 255.201 971.871 259.174C979.709 263.79 987.708 268.031 995.706 272.326C1009.82 279.788 1017.77 291.598 1020.61 307.058C1022.92 319.512 1024.91 332.074 1027.7 344.421" stroke="#00261E" stroke-width="3" stroke-linecap="round" stroke-linejoin="round"/><path d="M839.706 476.962C849.744 464.4 864.024 462.253 878.518 461.77C887.697 461.448 896.931 462.79 906.11 463.81C919.907 465.259 933.757 466.547 947.607 464.615C952.599 463.917 957.43 462.79 960.973 458.871C962.369 457.314 963.711 455.65 964.57 453.825C967.523 447.49 970.851 445.665 977.669 447.275C985.989 449.262 994.203 449.423 1002.09 445.88C1005.05 444.538 1007.84 442.712 1010.41 440.726C1015.94 436.485 1021.8 435.626 1027.86 438.901C1031.94 441.102 1035.75 443.947 1039.56 446.685C1040.37 447.222 1040.58 448.564 1041.07 449.53C1039.83 449.53 1038.49 449.906 1037.36 449.53C1035.54 448.94 1033.98 447.598 1032.16 447.061C1028.88 446.041 1025.61 446.578 1022.76 448.564C1018.79 451.248 1014.66 453.771 1011.11 456.938C1004.46 462.897 996.833 466.816 988.512 469.822C956.088 481.471 923.718 493.388 891.348 505.091C880.075 509.171 868.694 513.036 857.045 516.525C846.845 525.114 834.176 525.007 821.293 525.49C804.812 526.134 795.042 514.11 791.66 502.675C791.338 501.655 791.607 500.26 792.036 499.293C795.096 492.69 798.371 486.141 801.484 479.485C802.934 476.371 805.134 474.439 808.355 472.989C818.77 468.319 829.023 463.219 839.33 458.28C841.853 457.099 844.43 456.026 846.845 454.737C848.885 453.61 850.657 453.878 852.428 455.22C854.737 456.938 857.152 458.549 859.514 460.213C859.675 460.052 859.783 459.837 859.944 459.676C855.864 456.401 851.945 452.912 847.651 449.852C843.947 447.168 839.759 447.437 835.626 449.262C834.069 449.96 832.298 450.55 830.58 450.711C828.701 450.872 828.057 449.584 829.291 448.188C835.196 441.478 842.444 437.022 851.516 437.13C854.254 437.13 857.475 438.686 859.675 440.512C869.607 448.618 880.719 450.335 892.905 447.49C895.052 447.007 897.468 446.739 899.615 447.168C901.225 447.49 902.836 448.832 903.909 450.174C906.594 453.449 908.956 456.992 911.532 460.589" stroke="#00261E" stroke-width="3" stroke-linecap="round" stroke-linejoin="round"/><path d="M1026.3 455.704C1039.13 461.984 1052.13 467.943 1064.96 474.17C1066.24 474.814 1067.48 476.21 1068.12 477.552C1071.77 484.746 1075.26 491.993 1078.75 499.293C1079.18 500.152 1079.4 501.333 1079.18 502.192C1076.18 513.573 1065.22 526.671 1049.23 525.544C1035.48 524.578 1023.19 524.578 1012.56 515.183C988.674 506.111 964.732 497.415 939.179 491.295" stroke="#00261E" stroke-width="3" stroke-linecap="round" stroke-linejoin="round"/><path d="M991.089 325.095C988.459 335.08 981.856 361.599 978.85 371.477C973.589 389.031 974.233 406.477 978.957 423.924C980.675 430.205 982.178 436.593 983.949 443.411" stroke="#00261E" stroke-width="3" stroke-linecap="round" stroke-linejoin="round"/><path d="M879.86 324.022C878.464 320.479 877.229 317.419 875.243 313.446C879.001 321.23 883.134 328.638 889.254 334.865C895.481 341.146 903.104 344.528 911.962 346.031" stroke="#00261E" stroke-width="3" stroke-linecap="round" stroke-linejoin="round"/><path d="M880.074 324.827C882.704 334.812 889.307 361.331 892.313 371.208C897.574 388.762 896.93 406.209 892.206 423.656C890.488 429.936 888.985 436.324 887.213 443.142" stroke="#00261E" stroke-width="3" stroke-linecap="round" stroke-linejoin="round"/><path d="M930.535 255.684C974.384 255.684 1009.93 220.138 1009.93 176.289C1009.93 132.44 974.384 96.8928 930.535 96.8928C886.686 96.8928 851.14 132.44 851.14 176.289C851.14 220.138 886.686 255.684 930.535 255.684Z" fill="#F2F2F2"/><path d="M947.875 254.503C991.724 254.503 1027.27 218.957 1027.27 175.108C1027.27 131.259 991.724 95.7119 947.875 95.7119C904.026 95.7119 868.479 131.259 868.479 175.108C868.479 218.957 904.026 254.503 947.875 254.503Z" fill="#E6E8EA"/><path d="M930.535 255.684C974.384 255.684 1009.93 220.138 1009.93 176.289C1009.93 132.44 974.384 96.8928 930.535 96.8928C886.686 96.8928 851.14 132.44 851.14 176.289C851.14 220.138 886.686 255.684 930.535 255.684Z" stroke="#003B2F" stroke-width="3" stroke-linecap="round" stroke-linejoin="round"/><path d="M968.005 157.124C967.092 146.71 957.483 143.435 945.351 142.684L945.566 128.189L936.118 128.404L935.903 142.469C933.434 142.523 930.911 142.63 928.387 142.737L928.602 128.565L919.154 128.78L918.939 143.22C916.9 143.328 914.913 143.381 912.927 143.435L899.936 143.65L899.775 153.044C899.775 153.044 906.754 152.776 906.646 152.883C910.458 152.776 911.692 154.869 912.014 156.641L911.746 173.121C911.746 173.121 912.337 173.121 912.766 173.121C912.444 173.121 912.122 173.121 911.746 173.121L911.37 196.205C911.209 197.332 910.458 199.157 907.774 199.211C907.881 199.318 900.902 199.372 900.902 199.372L898.862 209.947L911.156 209.679C913.464 209.679 915.665 209.625 917.92 209.571L917.705 224.227L927.153 224.012L927.368 209.518C929.944 209.518 932.467 209.518 934.883 209.41L934.668 223.797L944.116 223.582L944.331 208.981C960.221 207.8 971.387 203.827 972.944 189.87C974.232 178.651 968.649 173.765 959.684 171.94C965.213 169.203 968.703 164.586 968.005 156.963V157.124ZM954.316 188.689C954.155 199.64 934.131 198.835 927.743 198.942L928.065 179.563C934.454 179.402 954.531 177.255 954.37 188.689H954.316ZM950.343 161.419C950.182 171.35 933.487 170.545 928.173 170.706L928.441 153.098C933.756 152.991 950.505 151.058 950.343 161.419Z" fill="#003B2F"/><path d="M880.075 338.408C880.075 338.408 864.292 401.7 846.094 410.879C824.407 421.777 730.409 350.916 730.409 350.916C730.409 350.916 714.842 354.245 708.668 350.755C702.495 347.266 694.335 338.194 697.556 337.013C700.777 335.832 711.889 344.313 717.579 340.717C721.122 338.462 734.436 335.724 742.864 343.24C742.864 343.24 826.393 379.314 829.184 380.334C832.03 381.3 845.718 350.863 845.718 350.863" fill="#03FC9D"/><path d="M1006.82 333.953C1006.82 333.953 1022.6 397.244 1040.8 406.424C1062.49 417.321 1156.48 346.461 1156.48 346.461C1156.48 346.461 1172.05 349.789 1178.22 346.3C1184.4 342.81 1192.56 333.738 1189.34 332.557C1186.12 331.376 1175 339.858 1169.31 336.261C1165.77 334.007 1152.46 331.269 1144.03 338.784C1144.03 338.784 1060.5 374.859 1057.71 375.879C1054.86 376.845 1035.7 329.98 1035.7 329.98" fill="#03FC9D"/><path d="M880.074 324.827C880.074 324.827 860.964 398.21 842.765 407.39C821.078 418.287 727.081 347.427 727.081 347.427C727.081 347.427 711.513 350.755 705.339 347.266C699.166 343.776 691.006 334.704 694.227 333.523C697.448 332.342 708.56 340.824 714.251 337.227C717.794 334.973 731.107 332.235 739.535 339.75C739.535 339.75 823.064 375.825 825.856 376.845C828.701 377.811 840.189 353.547 840.189 353.547" stroke="#00261E" stroke-width="3" stroke-linecap="round" stroke-linejoin="round"/><path d="M991.089 322.841C991.089 322.841 1010.36 398.371 1028.56 407.551C1050.25 418.448 1144.24 347.588 1144.24 347.588C1144.24 347.588 1159.81 350.916 1165.99 347.427C1172.16 343.938 1180.32 334.865 1177.1 333.684C1173.88 332.503 1162.76 340.985 1157.07 337.388C1153.53 335.134 1140.22 332.396 1131.79 339.911C1131.79 339.911 1048.26 375.986 1045.47 377.006C1042.62 377.972 1031.14 353.708 1031.14 353.708" stroke="#00261E" stroke-width="3" stroke-linecap="round" stroke-linejoin="round"/><path d="M1579.33 801.712H1673.67C1684.07 801.712 1692.5 793.205 1692.5 782.712C1692.5 772.219 1684.07 763.712 1673.67 763.712H1579.33C1568.93 763.712 1560.5 772.219 1560.5 782.712C1560.5 793.205 1568.93 801.712 1579.33 801.712Z" fill="#03FC9D"/><path d="M1630.48 772.712H1785.52C1802.63 772.712 1816.5 758.833 1816.5 741.712C1816.5 724.591 1802.63 710.712 1785.52 710.712H1630.48C1613.37 710.712 1599.5 724.591 1599.5 741.712C1599.5 758.833 1613.37 772.712 1630.48 772.712Z" fill="#03FC9D"/><path d="M1518.2 590.712H1727.37" stroke="#03FC9D" stroke-width="3" stroke-linecap="round" stroke-linejoin="round"/><path d="M1493.5 618.748H1610.48" stroke="#003B2F" stroke-width="3" stroke-linecap="round" stroke-linejoin="round"/><path d="M1429.01 207.628H1384.01C1398.25 207.628 1409.76 197.433 1409.76 184.865C1409.76 172.297 1398.25 162.102 1384.01 162.102H1254.73C1240.49 162.102 1228.98 172.297 1228.98 184.865H1189.25C1175.01 184.865 1163.5 195.06 1163.5 207.628C1163.5 220.196 1175.01 230.391 1189.25 230.391H1273.98C1273.98 242.959 1285.49 253.154 1299.73 253.154H1429.01C1443.25 253.154 1454.76 242.959 1454.76 230.391C1454.76 217.823 1443.25 207.628 1429.01 207.628Z" fill="#E6E8EA"/><path d="M1272.57 191.369H1304.82" stroke="#003B2F" stroke-width="3" stroke-linecap="round" stroke-linejoin="round"/><path d="M1346.48 141.712H1580.09" stroke="#03FC9D" stroke-width="3" stroke-linecap="round" stroke-linejoin="round"/><path d="M1346.48 191.193H1477.08" stroke="#003B2F" stroke-width="3" stroke-linecap="round" stroke-linejoin="round"/><path d="M1357.5 455.712L1371.21 469.422" stroke="#003B2F" stroke-width="3" stroke-linecap="round" stroke-linejoin="round"/><path d="M1381.23 479.442L1394.94 493.064" stroke="#003B2F" stroke-width="3" stroke-linecap="round" stroke-linejoin="round"/><path d="M1357.5 493.064L1371.21 479.442" stroke="#003B2F" stroke-width="3" stroke-linecap="round" stroke-linejoin="round"/><path d="M1381.23 469.422L1394.94 455.712" stroke="#003B2F" stroke-width="3" stroke-linecap="round" stroke-linejoin="round"/><path d="M1626.9 359.516C1636.51 359.516 1644.3 351.724 1644.3 342.114C1644.3 332.503 1636.51 324.712 1626.9 324.712C1617.29 324.712 1609.5 332.503 1609.5 342.114C1609.5 351.724 1617.29 359.516 1626.9 359.516Z" stroke="#003B2F" stroke-width="3" stroke-linecap="round" stroke-linejoin="round"/><path d="M110.5 393.712L131.242 405.665" stroke="#003B2F" stroke-width="3" stroke-linecap="round" stroke-linejoin="round"/><path d="M151.983 393.712L139.855 400.743" stroke="#003B2F" stroke-width="3" stroke-linecap="round" stroke-linejoin="round"/><path d="M131.241 405.665V429.922" stroke="#003B2F" stroke-width="3" stroke-linecap="round" stroke-linejoin="round"/><path d="M147.531 578.691H205.537" stroke="#003B2F" stroke-width="3" stroke-linecap="round" stroke-linejoin="round"/><path d="M103.5 578.691H118.089" stroke="#003B2F" stroke-width="3" stroke-linecap="round" stroke-linejoin="round"/><path d="M155.969 538.79H306.257" stroke="#03FC9D" stroke-width="3" stroke-linecap="round" stroke-linejoin="round"/><path d="M269.294 775.712V797.508" stroke="#003B2F" stroke-width="3" stroke-linecap="round" stroke-linejoin="round"/><path d="M269.294 813.503V835.3" stroke="#003B2F" stroke-width="3" stroke-linecap="round" stroke-linejoin="round"/><path d="M239.5 805.506H261.296" stroke="#003B2F" stroke-width="3" stroke-linecap="round" stroke-linejoin="round"/><path d="M277.204 805.506H299.088" stroke="#003B2F" stroke-width="3" stroke-linecap="round" stroke-linejoin="round"/><path d="M139.533 141.712H300.192" stroke="#03FC9D" stroke-width="3" stroke-linecap="round" stroke-linejoin="round"/><path d="M239.287 167.903H363.297" stroke="#003B2F" stroke-width="3" stroke-linecap="round" stroke-linejoin="round"/><path d="M631.8 174.712V195.366" stroke="#003B2F" stroke-width="3" stroke-linecap="round" stroke-linejoin="round"/><path d="M631.8 210.482V231.224" stroke="#003B2F" stroke-width="3" stroke-linecap="round" stroke-linejoin="round"/><path d="M603.5 202.924H624.242" stroke="#003B2F" stroke-width="3" stroke-linecap="round" stroke-linejoin="round"/><path d="M639.358 202.924H660.012" stroke="#003B2F" stroke-width="3" stroke-linecap="round" stroke-linejoin="round"/><path d="M416.675 394.212H565.821C582.227 394.212 595.527 380.912 595.527 364.506V364.418C595.527 348.012 582.227 334.712 565.821 334.712H416.675C400.269 334.712 386.969 348.012 386.969 364.418V364.506C386.969 380.912 400.269 394.212 416.675 394.212Z" fill="#03FC9D"/><path d="M364.207 429.631H513.352C529.759 429.631 543.059 416.331 543.059 399.925V399.837C543.059 383.431 529.759 370.131 513.352 370.131H364.207C347.8 370.131 334.501 383.431 334.501 399.837V399.925C334.501 416.331 347.8 429.631 364.207 429.631Z" fill="#03FC9D"/><circle cx="930.584" cy="906.167" r="42.5449" fill="#003B2F"/></svg>