<svg width="1920" height="1080" viewBox="0 0 1920 1080" fill="none" xmlns="http://www.w3.org/2000/svg"><path d="M174.861 891.057L1773.79 891.057" stroke="#003B2F" stroke-width="3" stroke-miterlimit="10" stroke-linecap="round" stroke-linejoin="round"/><path d="M1155.09 307.872H399.19C390.275 307.872 383.048 315.099 383.048 324.014V896.639C383.048 905.554 390.275 912.781 399.19 912.781H1155.09C1164.01 912.781 1171.23 905.554 1171.23 896.639V324.014C1171.23 315.099 1164.01 307.872 1155.09 307.872Z" fill="#00261E"/><path d="M1147.83 319.575H406.522C401.21 319.575 396.904 323.881 396.904 329.192V891.46C396.904 896.772 401.21 901.078 406.522 901.078H1147.83C1153.14 901.078 1157.44 896.772 1157.44 891.46V329.192C1157.44 323.881 1153.14 319.575 1147.83 319.575Z" fill="#03FC9D" stroke="#003B2F" stroke-width="3" stroke-linecap="round" stroke-linejoin="round"/><path d="M1115 338.07H439.342C429.201 338.07 420.981 346.291 420.981 356.432V781.63C420.981 791.77 429.201 799.991 439.342 799.991H1115C1125.15 799.991 1133.37 791.77 1133.37 781.63V356.432C1133.37 346.291 1125.15 338.07 1115 338.07Z" fill="#003B2F" stroke="white" stroke-width="3" stroke-linecap="round" stroke-linejoin="round"/><path d="M1089.78 764.479L1129.2 793.265" stroke="white" stroke-width="3" stroke-linecap="round" stroke-linejoin="round"/><path d="M427.438 342.509L467.524 371.901" stroke="white" stroke-width="3" stroke-linecap="round" stroke-linejoin="round"/><path d="M465.035 764.748L425.555 793.669" stroke="white" stroke-width="3" stroke-linecap="round" stroke-linejoin="round"/><path d="M1127.18 342.711L1087.09 372.035" stroke="white" stroke-width="3" stroke-linecap="round" stroke-linejoin="round"/><path d="M1069.88 770.599L930.856 775.98C828.424 779.948 725.924 779.948 623.492 775.98L484.472 770.599C462.681 769.725 445.463 751.835 445.463 730.044V408.018C445.463 386.226 462.681 368.269 484.472 367.462L623.492 362.081C725.924 358.113 828.424 358.113 930.856 362.081L1069.88 367.462C1091.67 368.336 1108.88 386.226 1108.88 408.018V729.976C1108.88 751.768 1091.67 769.725 1069.88 770.532V770.599Z" fill="#E6E8EA" stroke="#003B2F" stroke-width="3" stroke-linecap="round" stroke-linejoin="round"/><path d="M859.699 826.826H694.651C690.414 826.826 686.916 823.396 686.916 819.092C686.916 814.787 690.346 811.357 694.651 811.357H859.699C863.936 811.357 867.434 814.787 867.434 819.092C867.434 823.396 864.004 826.826 859.699 826.826Z" fill="#00261E"/><path d="M448.019 848.214H437.998C428.6 848.214 420.982 855.832 420.982 865.23V875.251C420.982 884.649 428.6 892.267 437.998 892.267H448.019C457.417 892.267 465.035 884.649 465.035 875.251V865.23C465.035 855.832 457.417 848.214 448.019 848.214Z" fill="#00261E"/><path d="M847.458 861.934V901.078H1147.76C1153.07 901.078 1157.38 896.773 1157.38 891.46V851.51H857.882C852.098 851.51 847.458 856.15 847.458 861.934Z" fill="#003B2F"/><path d="M866.02 870.678H890.569" stroke="white" stroke-width="3" stroke-linecap="round" stroke-linejoin="round"/><path d="M870.124 863.347H886.467" stroke="white" stroke-width="3" stroke-linecap="round" stroke-linejoin="round"/><path d="M915.792 870.678H940.341" stroke="white" stroke-width="3" stroke-linecap="round" stroke-linejoin="round"/><path d="M919.895 863.347H936.238" stroke="white" stroke-width="3" stroke-linecap="round" stroke-linejoin="round"/><path d="M965.561 870.678H990.177" stroke="white" stroke-width="3" stroke-linecap="round" stroke-linejoin="round"/><path d="M969.665 863.347H986.008" stroke="white" stroke-width="3" stroke-linecap="round" stroke-linejoin="round"/><path d="M1015.33 870.678H1039.95" stroke="white" stroke-width="3" stroke-linecap="round" stroke-linejoin="round"/><path d="M1019.43 863.347H1035.78" stroke="white" stroke-width="3" stroke-linecap="round" stroke-linejoin="round"/><path d="M1065.1 870.678H1089.72" stroke="white" stroke-width="3" stroke-linecap="round" stroke-linejoin="round"/><path d="M1069.27 863.347H1085.55" stroke="white" stroke-width="3" stroke-linecap="round" stroke-linejoin="round"/><path d="M1114.87 870.678H1139.49" stroke="white" stroke-width="3" stroke-linecap="round" stroke-linejoin="round"/><path d="M1119.04 863.347H1135.39" stroke="white" stroke-width="3" stroke-linecap="round" stroke-linejoin="round"/><path d="M866.021 878.749H890.637C894.201 878.749 897.026 881.641 897.026 885.138V899.733H859.564V885.138C859.564 881.573 862.456 878.749 865.953 878.749H866.021Z" fill="#03FC9D"/><path d="M915.79 878.749H940.406C943.971 878.749 946.796 881.641 946.796 885.138V899.733H909.333V885.138C909.333 881.573 912.226 878.749 915.723 878.749H915.79Z" fill="#03FC9D"/><path d="M965.561 878.749H990.177C993.742 878.749 996.567 881.641 996.567 885.138V899.733H959.104V885.138C959.104 881.573 961.997 878.749 965.494 878.749H965.561Z" fill="#03FC9D"/><path d="M1015.33 878.749H1039.95C1043.51 878.749 1046.34 881.641 1046.34 885.138V899.733H1008.87V885.138C1008.87 881.573 1011.77 878.749 1015.26 878.749H1015.33Z" fill="#03FC9D"/><path d="M1065.1 878.749H1089.72C1093.28 878.749 1096.11 881.641 1096.11 885.138V899.733H1058.65V885.138C1058.65 881.573 1061.54 878.749 1065.03 878.749H1065.1Z" fill="#03FC9D"/><path d="M1114.87 878.749H1139.49C1143.05 878.749 1145.88 881.641 1145.88 885.138V899.733H1108.41V885.138C1108.41 881.573 1111.31 878.749 1114.8 878.749H1114.87Z" fill="#03FC9D"/><path d="M396.904 839.538H1157.44" stroke="#003B2F" stroke-width="3" stroke-linecap="round" stroke-linejoin="round"/><path d="M1593 897.042L1588.63 906.929C1587.08 910.494 1583.52 912.781 1579.62 912.781H1230.08C1226.18 912.781 1222.68 910.494 1221.07 906.929L1216.7 897.042H1592.93H1593Z" fill="#00261E"/><path d="M1597.51 604.542H1212.26C1207.73 604.542 1204.05 608.216 1204.05 612.748V888.837C1204.05 893.369 1207.73 897.042 1212.26 897.042H1597.51C1602.04 897.042 1605.71 893.369 1605.71 888.837V612.748C1605.71 608.216 1602.04 604.542 1597.51 604.542Z" fill="#003B2F"/><path d="M1593.74 610.528H1216.03C1213.31 610.528 1211.12 612.726 1211.12 615.438V886.147C1211.12 888.858 1213.31 891.057 1216.03 891.057H1593.74C1596.45 891.057 1598.65 888.858 1598.65 886.147V615.438C1598.65 612.726 1596.45 610.528 1593.74 610.528Z" fill="#03FC9D" stroke="#003B2F" stroke-width="3" stroke-linecap="round" stroke-linejoin="round"/><path d="M1598.65 690.766V615.438C1598.65 612.748 1596.43 610.528 1593.74 610.528H1532.67" stroke="#00261E" stroke-width="3" stroke-linecap="round" stroke-linejoin="round"/><path d="M1565.76 670.992C1576.83 670.992 1585.8 662.019 1585.8 650.949C1585.8 639.88 1576.83 630.907 1565.76 630.907C1554.69 630.907 1545.72 639.88 1545.72 650.949C1545.72 662.019 1554.69 670.992 1565.76 670.992Z" fill="#E6E8EA" stroke="#003B2F" stroke-width="3" stroke-linecap="round" stroke-linejoin="round"/><path d="M1565.76 663.796C1572.86 663.796 1578.61 658.044 1578.61 650.949C1578.61 643.855 1572.86 638.103 1565.76 638.103C1558.67 638.103 1552.92 643.855 1552.92 650.949C1552.92 658.044 1558.67 663.796 1565.76 663.796Z" fill="#003B2F" stroke="#003B2F" stroke-width="3" stroke-linecap="round" stroke-linejoin="round"/><path d="M1575.95 657.893L1558.83 640.772C1558.3 640.247 1557.45 640.247 1556.92 640.772L1555.59 642.104C1555.07 642.629 1555.07 643.481 1555.59 644.006L1572.71 661.127C1573.24 661.652 1574.09 661.652 1574.62 661.127L1575.95 659.795C1576.47 659.27 1576.47 658.418 1575.95 657.893Z" fill="#03FC9D" stroke="#003B2F" stroke-width="3" stroke-linecap="round" stroke-linejoin="round"/><path d="M1552.65 696.684C1556.47 696.684 1559.57 693.583 1559.57 689.757C1559.57 685.931 1556.47 682.829 1552.65 682.829C1548.82 682.829 1545.72 685.931 1545.72 689.757C1545.72 693.583 1548.82 696.684 1552.65 696.684Z" fill="#003B2F" stroke="#003B2F" stroke-width="3" stroke-linecap="round" stroke-linejoin="round"/><path d="M1578.88 696.684C1582.7 696.684 1585.8 693.583 1585.8 689.757C1585.8 685.931 1582.7 682.829 1578.88 682.829C1575.05 682.829 1571.95 685.931 1571.95 689.757C1571.95 693.583 1575.05 696.684 1578.88 696.684Z" fill="#003B2F" stroke="#003B2F" stroke-width="3" stroke-linecap="round" stroke-linejoin="round"/><path d="M1542.22 706.773H1589.1" stroke="#003B2F" stroke-width="3" stroke-linecap="round" stroke-linejoin="round"/><path d="M1542.22 713.095H1589.1" stroke="#003B2F" stroke-width="3" stroke-linecap="round" stroke-linejoin="round"/><path d="M1542.22 719.417H1589.1" stroke="#003B2F" stroke-width="3" stroke-linecap="round" stroke-linejoin="round"/><path d="M1542.22 725.672H1589.1" stroke="#003B2F" stroke-width="3" stroke-linecap="round" stroke-linejoin="round"/><path d="M1542.22 731.994H1589.1" stroke="#003B2F" stroke-width="3" stroke-linecap="round" stroke-linejoin="round"/><path d="M1542.22 738.316H1589.1" stroke="#003B2F" stroke-width="3" stroke-linecap="round" stroke-linejoin="round"/><path d="M1542.22 744.638H1589.1" stroke="#003B2F" stroke-width="3" stroke-linecap="round" stroke-linejoin="round"/><path d="M1542.22 750.893H1589.1" stroke="#003B2F" stroke-width="3" stroke-linecap="round" stroke-linejoin="round"/><path d="M1542.22 757.215H1589.1" stroke="#003B2F" stroke-width="3" stroke-linecap="round" stroke-linejoin="round"/><path d="M1542.22 763.538H1589.1" stroke="#003B2F" stroke-width="3" stroke-linecap="round" stroke-linejoin="round"/><path d="M1542.22 769.792H1589.1" stroke="#003B2F" stroke-width="3" stroke-linecap="round" stroke-linejoin="round"/><path d="M1542.22 776.115H1589.1" stroke="#003B2F" stroke-width="3" stroke-linecap="round" stroke-linejoin="round"/><path d="M1542.22 782.437H1589.1" stroke="#003B2F" stroke-width="3" stroke-linecap="round" stroke-linejoin="round"/><path d="M1542.22 788.759H1589.1" stroke="#003B2F" stroke-width="3" stroke-linecap="round" stroke-linejoin="round"/><path d="M1542.22 795.014H1589.1" stroke="#003B2F" stroke-width="3" stroke-linecap="round" stroke-linejoin="round"/><path d="M1542.22 801.336H1589.1" stroke="#003B2F" stroke-width="3" stroke-linecap="round" stroke-linejoin="round"/><path d="M1542.22 807.658H1589.1" stroke="#003B2F" stroke-width="3" stroke-linecap="round" stroke-linejoin="round"/><path d="M1542.22 813.913H1589.1" stroke="#003B2F" stroke-width="3" stroke-linecap="round" stroke-linejoin="round"/><path d="M1542.22 820.235H1589.1" stroke="#003B2F" stroke-width="3" stroke-linecap="round" stroke-linejoin="round"/><path d="M1542.22 826.557H1589.1" stroke="#003B2F" stroke-width="3" stroke-linecap="round" stroke-linejoin="round"/><path d="M1542.22 832.879H1589.1" stroke="#003B2F" stroke-width="3" stroke-linecap="round" stroke-linejoin="round"/><path d="M1542.22 839.134H1589.1" stroke="#003B2F" stroke-width="3" stroke-linecap="round" stroke-linejoin="round"/><path d="M1542.22 845.456H1589.1" stroke="#003B2F" stroke-width="3" stroke-linecap="round" stroke-linejoin="round"/><path d="M1542.22 851.779H1589.1" stroke="#003B2F" stroke-width="3" stroke-linecap="round" stroke-linejoin="round"/><path d="M1542.22 858.033H1589.1" stroke="#003B2F" stroke-width="3" stroke-linecap="round" stroke-linejoin="round"/><path d="M1542.22 864.356H1589.1" stroke="#003B2F" stroke-width="3" stroke-linecap="round" stroke-linejoin="round"/><path d="M1532.67 610.528V891.057" stroke="#00261E" stroke-width="3" stroke-linecap="round" stroke-linejoin="round"/><path d="M1511.28 624.248H1234.52C1230.36 624.248 1226.99 627.621 1226.99 631.781V870.947C1226.99 875.107 1230.36 878.48 1234.52 878.48H1511.28C1515.44 878.48 1518.82 875.107 1518.82 870.947V631.781C1518.82 627.621 1515.44 624.248 1511.28 624.248Z" fill="#E6E8EA" stroke="#003B2F" stroke-width="3" stroke-linecap="round" stroke-linejoin="round"/><path d="M1500.99 863.885L1517.13 875.722" stroke="#003B2F" stroke-width="3" stroke-linecap="round" stroke-linejoin="round"/><path d="M1229.61 626.064L1246.09 638.103" stroke="#003B2F" stroke-width="3" stroke-linecap="round" stroke-linejoin="round"/><path d="M1245.08 864.019L1228.87 875.924" stroke="#003B2F" stroke-width="3" stroke-linecap="round" stroke-linejoin="round"/><path d="M1516.33 626.132L1499.92 638.171" stroke="#003B2F" stroke-width="3" stroke-linecap="round" stroke-linejoin="round"/><path d="M1492.85 866.441L1435.89 868.66C1393.92 870.274 1351.95 870.274 1309.98 868.66L1253.02 866.441C1244.07 866.104 1237.01 858.773 1237.01 849.828V652.967C1237.01 644.022 1244.07 636.691 1253.02 636.355L1309.98 634.135C1351.95 632.521 1393.92 632.521 1435.89 634.135L1492.85 636.355C1501.8 636.691 1508.86 644.022 1508.86 652.967V849.828C1508.86 858.773 1501.8 866.104 1492.85 866.441Z" fill="#003B2F"/><path d="M1490.43 861.733L1432.73 863.952C1392.84 865.499 1352.96 865.499 1313.14 863.952L1255.44 861.733C1248.78 861.464 1243.53 856.016 1243.53 849.357V653.371C1243.53 646.712 1248.78 641.264 1255.44 640.995L1313.14 638.776C1353.03 637.229 1392.91 637.229 1432.73 638.776L1490.43 640.995C1497.09 641.264 1502.34 646.712 1502.34 653.371V849.357C1502.34 856.016 1497.09 861.464 1490.43 861.733Z" fill="#E6E8EA" stroke="#003B2F" stroke-width="3" stroke-linecap="round" stroke-linejoin="round"/><path d="M1299.02 672.808L1321.08 650.546" stroke="white" stroke-width="3" stroke-linecap="round" stroke-linejoin="round"/><path d="M1258.93 713.431L1285.43 686.596" stroke="white" stroke-width="3" stroke-linecap="round" stroke-linejoin="round"/><path d="M1257.25 690.227L1291.62 655.456" stroke="white" stroke-width="3" stroke-linecap="round" stroke-linejoin="round"/><path d="M1243.2 604.542H1235.93C1232.7 604.542 1230.15 601.919 1230.15 598.758V574.209H1254.23L1248.91 599.969C1248.38 602.659 1245.95 604.609 1243.2 604.609V604.542Z" fill="#E6E8EA" stroke="#003B2F" stroke-width="3" stroke-linecap="round" stroke-linejoin="round"/><path d="M1567.04 604.542H1574.3C1577.53 604.542 1580.09 601.919 1580.09 598.758V574.209H1556.01L1561.32 599.969C1561.86 602.659 1564.28 604.609 1567.04 604.609V604.542Z" fill="#E6E8EA" stroke="#003B2F" stroke-width="3" stroke-linecap="round" stroke-linejoin="round"/><path d="M1571.55 579.388L1498.57 582.818C1436.43 585.71 1374.15 585.71 1311.93 582.818L1238.15 579.388C1219.05 578.514 1203.99 562.776 1203.99 543.607V339.819C1203.99 320.718 1218.98 304.913 1238.15 304.038L1311.93 300.608C1374.08 297.716 1436.36 297.716 1498.57 300.608L1571.55 304.038C1590.65 304.913 1605.64 320.651 1605.64 339.819V543.607C1605.64 562.708 1590.65 578.447 1571.55 579.388Z" fill="#003B2F"/><path d="M1559.17 570.241L1501.94 572.999C1437.5 576.092 1373 576.16 1308.57 572.999L1250.53 570.174C1231.43 569.232 1216.43 553.494 1216.43 534.393V349.033C1216.43 329.932 1231.43 314.194 1250.53 313.253L1308.57 310.428C1373 307.334 1437.5 307.334 1501.94 310.428L1559.17 313.185C1578.27 314.127 1593.27 329.865 1593.27 348.966V534.393C1593.27 553.494 1578.27 569.232 1559.17 570.174V570.241Z" fill="#E6E8EA" stroke="#003B2F" stroke-width="3" stroke-linecap="round" stroke-linejoin="round"/><path d="M1467.43 553.629L1421.03 557.193C1394.26 559.211 1339.44 559.211 1312.61 557.193L1266.2 553.629C1245.82 552.082 1230.08 535.066 1230.08 514.62V366.856C1230.08 346.41 1245.82 329.461 1266.2 327.847L1312.61 324.283C1339.38 322.265 1394.19 322.265 1421.03 324.283L1467.43 327.847C1487.81 329.394 1503.55 346.41 1503.55 366.856V514.62C1503.55 535.066 1487.81 552.014 1467.43 553.629Z" fill="#03FC9D" stroke="#003B2F" stroke-width="3" stroke-linecap="round" stroke-linejoin="round"/><path d="M1281.8 399.61L1304.47 376.743" stroke="white" stroke-width="3" stroke-linecap="round" stroke-linejoin="round"/><path d="M1308.98 371.833L1336.21 344.325" stroke="white" stroke-width="3" stroke-linecap="round" stroke-linejoin="round"/><path d="M1257.46 393.288L1299.83 350.378" stroke="white" stroke-width="3" stroke-linecap="round" stroke-linejoin="round"/><path d="M1533.28 336.187H1521.04C1517.21 336.187 1514.11 339.289 1514.11 343.115V443.462C1514.11 447.288 1517.21 450.389 1521.04 450.389H1533.28C1537.1 450.389 1540.2 447.288 1540.2 443.462V343.115C1540.2 339.289 1537.1 336.187 1533.28 336.187Z" fill="#03FC9D" stroke="#003B2F" stroke-width="3" stroke-linecap="round" stroke-linejoin="round"/><path d="M1531.46 437.678C1529.58 441.108 1524.67 441.108 1522.78 437.678C1521.1 434.651 1520.23 431.221 1520.23 427.791V363.762C1520.23 360.265 1521.1 356.902 1522.78 353.876C1524.67 350.446 1529.58 350.446 1531.46 353.876C1533.14 356.902 1534.02 360.332 1534.02 363.762V427.791C1534.02 431.288 1533.14 434.651 1531.46 437.678Z" stroke="#003B2F" stroke-width="3" stroke-linecap="round" stroke-linejoin="round"/><path d="M1520.23 345.132C1521.68 345.132 1522.85 343.958 1522.85 342.509C1522.85 341.061 1521.68 339.886 1520.23 339.886C1518.78 339.886 1517.61 341.061 1517.61 342.509C1517.61 343.958 1518.78 345.132 1520.23 345.132Z" fill="white" stroke="#00261E" stroke-width="3" stroke-linecap="round" stroke-linejoin="round"/><path d="M1522.72 354.414H1531.87" stroke="#003B2F" stroke-width="3" stroke-linecap="round" stroke-linejoin="round"/><path d="M1520.83 359.593H1533.61" stroke="#003B2F" stroke-width="3" stroke-linecap="round" stroke-linejoin="round"/><path d="M1520.57 364.771H1534.02" stroke="#003B2F" stroke-width="3" stroke-linecap="round" stroke-linejoin="round"/><path d="M1520.57 369.95H1534.02" stroke="#003B2F" stroke-width="3" stroke-linecap="round" stroke-linejoin="round"/><path d="M1520.57 375.129H1534.02" stroke="#003B2F" stroke-width="3" stroke-linecap="round" stroke-linejoin="round"/><path d="M1520.57 380.375H1534.02" stroke="#003B2F" stroke-width="3" stroke-linecap="round" stroke-linejoin="round"/><path d="M1520.57 385.554H1534.02" stroke="#003B2F" stroke-width="3" stroke-linecap="round" stroke-linejoin="round"/><path d="M1520.57 390.732H1534.02" stroke="#003B2F" stroke-width="3" stroke-linecap="round" stroke-linejoin="round"/><path d="M1520.57 395.911H1534.02" stroke="#003B2F" stroke-width="3" stroke-linecap="round" stroke-linejoin="round"/><path d="M1520.57 401.09H1534.02" stroke="#003B2F" stroke-width="3" stroke-linecap="round" stroke-linejoin="round"/><path d="M1520.57 406.336H1534.02" stroke="#003B2F" stroke-width="3" stroke-linecap="round" stroke-linejoin="round"/><path d="M1520.57 411.515H1534.02" stroke="#003B2F" stroke-width="3" stroke-linecap="round" stroke-linejoin="round"/><path d="M1520.57 416.694H1534.02" stroke="#003B2F" stroke-width="3" stroke-linecap="round" stroke-linejoin="round"/><path d="M1520.57 421.872H1534.02" stroke="#003B2F" stroke-width="3" stroke-linecap="round" stroke-linejoin="round"/><path d="M1520.57 427.051H1534.02" stroke="#003B2F" stroke-width="3" stroke-linecap="round" stroke-linejoin="round"/><path d="M1520.83 432.23H1533.68" stroke="#003B2F" stroke-width="3" stroke-linecap="round" stroke-linejoin="round"/><path d="M1522.79 437.476H1531.93" stroke="#003B2F" stroke-width="3" stroke-linecap="round" stroke-linejoin="round"/><path d="M1566.03 373.649C1574.65 373.649 1581.63 366.663 1581.63 358.046C1581.63 349.428 1574.65 342.442 1566.03 342.442C1557.41 342.442 1550.43 349.428 1550.43 358.046C1550.43 366.663 1557.41 373.649 1566.03 373.649Z" fill="#03FC9D" stroke="#003B2F" stroke-width="3" stroke-linecap="round" stroke-linejoin="round"/><path d="M1566.03 368.067C1571.57 368.067 1576.05 363.58 1576.05 358.046C1576.05 352.511 1571.57 348.024 1566.03 348.024C1560.5 348.024 1556.01 352.511 1556.01 358.046C1556.01 363.58 1560.5 368.067 1566.03 368.067Z" fill="#003B2F" stroke="#003B2F" stroke-width="3" stroke-linecap="round" stroke-linejoin="round"/><path d="M1575.4 360.116L1559.17 351.396C1558.55 351.062 1557.77 351.296 1557.44 351.917L1556.13 354.347C1555.8 354.969 1556.03 355.743 1556.65 356.077L1572.89 364.797C1573.51 365.131 1574.29 364.898 1574.62 364.276L1575.92 361.846C1576.26 361.225 1576.03 360.45 1575.4 360.116Z" fill="#03FC9D" stroke="#003B2F" stroke-width="3" stroke-linecap="round" stroke-linejoin="round"/><path d="M1566.03 444.135C1574.65 444.135 1581.63 437.149 1581.63 428.531C1581.63 419.913 1574.65 412.927 1566.03 412.927C1557.41 412.927 1550.43 419.913 1550.43 428.531C1550.43 437.149 1557.41 444.135 1566.03 444.135Z" fill="#03FC9D" stroke="#003B2F" stroke-width="3" stroke-linecap="round" stroke-linejoin="round"/><path d="M1566.03 438.552C1571.57 438.552 1576.05 434.066 1576.05 428.531C1576.05 422.996 1571.57 418.51 1566.03 418.51C1560.5 418.51 1556.01 422.996 1556.01 428.531C1556.01 434.066 1560.5 438.552 1566.03 438.552Z" fill="#003B2F" stroke="#003B2F" stroke-width="3" stroke-linecap="round" stroke-linejoin="round"/><path d="M1575.38 430.56L1559.14 421.84C1558.52 421.506 1557.74 421.739 1557.41 422.361L1556.11 424.79C1555.77 425.412 1556 426.187 1556.63 426.521L1572.86 435.24C1573.48 435.574 1574.26 435.341 1574.59 434.719L1575.9 432.29C1576.23 431.668 1576 430.894 1575.38 430.56Z" fill="#03FC9D" stroke="#003B2F" stroke-width="3" stroke-linecap="round" stroke-linejoin="round"/><path d="M1553.39 397.189C1555.54 397.189 1557.29 395.443 1557.29 393.288C1557.29 391.134 1555.54 389.387 1553.39 389.387C1551.23 389.387 1549.49 391.134 1549.49 393.288C1549.49 395.443 1551.23 397.189 1553.39 397.189Z" fill="#003B2F" stroke="#003B2F" stroke-width="3" stroke-linecap="round" stroke-linejoin="round"/><path d="M1566.03 397.189C1568.19 397.189 1569.93 395.443 1569.93 393.288C1569.93 391.134 1568.19 389.387 1566.03 389.387C1563.88 389.387 1562.13 391.134 1562.13 393.288C1562.13 395.443 1563.88 397.189 1566.03 397.189Z" fill="#03FC9D" stroke="#003B2F" stroke-width="3" stroke-linecap="round" stroke-linejoin="round"/><path d="M1578.61 397.189C1580.76 397.189 1582.51 395.443 1582.51 393.288C1582.51 391.134 1580.76 389.387 1578.61 389.387C1576.45 389.387 1574.71 391.134 1574.71 393.288C1574.71 395.443 1576.45 397.189 1578.61 397.189Z" fill="#003B2F" stroke="#003B2F" stroke-width="3" stroke-linecap="round" stroke-linejoin="round"/><path d="M1529.91 467.607H1516.87C1515.34 467.607 1514.11 468.842 1514.11 470.365V478.57C1514.11 480.093 1515.34 481.328 1516.87 481.328H1529.91C1531.44 481.328 1532.67 480.093 1532.67 478.57V470.365C1532.67 468.842 1531.44 467.607 1529.91 467.607Z" fill="#03FC9D"/><path d="M1578.88 467.607H1565.83C1564.31 467.607 1563.07 468.842 1563.07 470.365V478.57C1563.07 480.093 1564.31 481.328 1565.83 481.328H1578.88C1580.4 481.328 1581.64 480.093 1581.64 478.57V470.365C1581.64 468.842 1580.4 467.607 1578.88 467.607Z" fill="#03FC9D"/><path d="M1554.4 487.448H1541.35C1539.82 487.448 1538.59 488.683 1538.59 490.205V498.411C1538.59 499.934 1539.82 501.168 1541.35 501.168H1554.4C1555.92 501.168 1557.15 499.934 1557.15 498.411V490.205C1557.15 488.683 1555.92 487.448 1554.4 487.448Z" fill="#03FC9D"/><path d="M1529.91 507.289H1516.87C1515.34 507.289 1514.11 508.523 1514.11 510.046V518.252C1514.11 519.775 1515.34 521.009 1516.87 521.009H1529.91C1531.44 521.009 1532.67 519.775 1532.67 518.252V510.046C1532.67 508.523 1531.44 507.289 1529.91 507.289Z" fill="#003B2F"/><path d="M1578.88 507.289H1565.83C1564.31 507.289 1563.07 508.523 1563.07 510.046V518.252C1563.07 519.775 1564.31 521.009 1565.83 521.009H1578.88C1580.4 521.009 1581.64 519.775 1581.64 518.252V510.046C1581.64 508.523 1580.4 507.289 1578.88 507.289Z" fill="#03FC9D"/><path d="M1554.4 467.607H1541.35C1539.82 467.607 1538.59 468.842 1538.59 470.365V478.57C1538.59 480.093 1539.82 481.328 1541.35 481.328H1554.4C1555.92 481.328 1557.15 480.093 1557.15 478.57V470.365C1557.15 468.842 1555.92 467.607 1554.4 467.607Z" fill="#003B2F"/><path d="M1529.91 487.448H1516.87C1515.34 487.448 1514.11 488.683 1514.11 490.205V498.411C1514.11 499.934 1515.34 501.168 1516.87 501.168H1529.91C1531.44 501.168 1532.67 499.934 1532.67 498.411V490.205C1532.67 488.683 1531.44 487.448 1529.91 487.448Z" fill="#003B2F"/><path d="M1578.88 487.448H1565.83C1564.31 487.448 1563.07 488.683 1563.07 490.205V498.411C1563.07 499.934 1564.31 501.168 1565.83 501.168H1578.88C1580.4 501.168 1581.64 499.934 1581.64 498.411V490.205C1581.64 488.683 1580.4 487.448 1578.88 487.448Z" fill="#003B2F"/><path d="M1554.4 507.289H1541.35C1539.82 507.289 1538.59 508.523 1538.59 510.046V518.252C1538.59 519.775 1539.82 521.009 1541.35 521.009H1554.4C1555.92 521.009 1557.15 519.775 1557.15 518.252V510.046C1557.15 508.523 1555.92 507.289 1554.4 507.289Z" fill="#003B2F"/><path d="M1529.91 527.129H1516.87C1515.34 527.129 1514.11 528.364 1514.11 529.887V538.092C1514.11 539.615 1515.34 540.85 1516.87 540.85H1529.91C1531.44 540.85 1532.67 539.615 1532.67 538.092V529.887C1532.67 528.364 1531.44 527.129 1529.91 527.129Z" fill="#003B2F"/><path d="M1554.4 527.129H1541.35C1539.82 527.129 1538.59 528.364 1538.59 529.887V538.092C1538.59 539.615 1539.82 540.85 1541.35 540.85H1554.4C1555.92 540.85 1557.15 539.615 1557.15 538.092V529.887C1557.15 528.364 1555.92 527.129 1554.4 527.129Z" fill="#003B2F"/><path d="M1578.88 527.129H1565.83C1564.31 527.129 1563.07 528.364 1563.07 529.887V538.092C1563.07 539.615 1564.31 540.85 1565.83 540.85H1578.88C1580.4 540.85 1581.64 539.615 1581.64 538.092V529.887C1581.64 528.364 1580.4 527.129 1578.88 527.129Z" fill="#003B2F"/><path d="M481.377 516.436V621.625H599.682V608.712H612.797V621.625H652.21V606.896H665.325V621.625H717.92V606.896H731.035V621.625H783.63V606.896H836.225V610.461V621.625H888.82V606.896H901.935V610.461V621.625H1072.83V516.436H481.377Z" fill="#003B2F"/><path d="M494.559 595.328H560.269V582.146H520.857V542.733H560.269V529.618H494.559V595.328Z" fill="white"/><path d="M573.384 595.328H599.681V569.031H612.797V595.328H639.094V569.031H625.979V555.915H639.094V529.618H573.384V595.328ZM599.681 542.733H612.797V555.848H599.681V542.733Z" fill="white"/><path d="M704.871 555.915H678.574V529.618H652.276V555.915H665.391V569.031H678.574V595.328H704.871V569.031H717.986V555.848H731.169V529.618H704.871V555.915Z" fill="white"/><path d="M744.285 595.328H770.582V569.031H809.995V529.618H744.285V595.328ZM770.582 542.733H783.697V555.848H770.582V542.733Z" fill="white"/><path d="M823.177 542.733H849.475V595.328H875.772V542.733H902.07V529.618H823.177V542.733Z" fill="white"/><path d="M915.184 595.328H980.894V582.146H941.482V569.031H967.779V555.915H941.482V542.733H980.894V529.618H915.184V595.328Z" fill="white"/><path d="M1059.79 555.915V529.618H1033.49V555.915H1020.37V529.618H994.076V555.915H1007.19V569.031H994.076V595.328H1020.37V569.031H1033.49V595.328H1059.79V569.031H1046.67V555.915H1059.79Z" fill="white"/><path d="M588.181 607.031H494.559V610.192H588.181V607.031Z" fill="#03FC9D"/><path d="M639.095 607.031H624.837V610.192H639.095V607.031Z" fill="#03FC9D"/><path d="M704.805 607.031H678.575V610.192H704.805V607.031Z" fill="#03FC9D"/><path d="M770.515 607.031H744.285V610.192H770.515V607.031Z" fill="#03FC9D"/><path d="M875.704 607.031H849.474V610.192H875.704V607.031Z" fill="#E6E8EA"/><path d="M1059.79 607.031H915.184V610.192H1059.79V607.031Z" fill="#03FC9D"/><path d="M559.933 456.51L618.715 397.055" stroke="white" stroke-width="3" stroke-linecap="round" stroke-linejoin="round"/><path d="M488.035 529.147L546.28 470.297" stroke="white" stroke-width="3" stroke-linecap="round" stroke-linejoin="round"/><path d="M484.471 478.167L559.933 401.897" stroke="white" stroke-width="3" stroke-linecap="round" stroke-linejoin="round"/><path d="M1366.82 395.171H1350.27V510.584H1366.82V395.171Z" fill="#003B2F"/><path d="M1358.54 379.501V521.278" stroke="#003B2F" stroke-width="3" stroke-linecap="round" stroke-linejoin="round"/><path d="M1280.12 421.805H1263.58V476.351H1280.12V421.805Z" fill="#003B2F"/><path d="M1271.92 415.819V481.193" stroke="#003B2F" stroke-width="3" stroke-linecap="round" stroke-linejoin="round"/><path d="M1300.03 450.726H1283.48V470.163H1300.03V450.726Z" fill="white"/><path d="M1291.82 443.058V479.175" stroke="white" stroke-width="3" stroke-linecap="round" stroke-linejoin="round"/><path d="M1390.15 396.651H1373.61V425.572H1390.15V396.651Z" fill="#003B2F"/><path d="M1381.88 391.54V433.306" stroke="#003B2F" stroke-width="3" stroke-linecap="round" stroke-linejoin="round"/><path d="M1321.01 460.142H1304.47V485.497H1321.01V460.142Z" fill="white"/><path d="M1312.74 450.726V492.156" stroke="white" stroke-width="3" stroke-linecap="round" stroke-linejoin="round"/><path d="M1343.61 434.046H1327.07V487.044H1343.61V434.046Z" fill="#003B2F"/><path d="M1335.41 428.06V507.558" stroke="#003B2F" stroke-width="3" stroke-linecap="round" stroke-linejoin="round"/><path d="M1410.47 414.003H1393.92V468.549H1410.47V414.003Z" fill="white"/><path d="M1402.19 408.018V473.391" stroke="white" stroke-width="3" stroke-linecap="round" stroke-linejoin="round"/><path d="M1430.98 415.819H1414.43V455.097H1430.98V415.819Z" fill="#003B2F"/><path d="M1422.7 408.152V476.149" stroke="#003B2F" stroke-width="3" stroke-linecap="round" stroke-linejoin="round"/><path d="M1451.89 425.303H1435.35V450.658H1451.89V425.303Z" fill="white"/><path d="M1443.69 415.819V457.25" stroke="white" stroke-width="3" stroke-linecap="round" stroke-linejoin="round"/><path d="M1473.55 404.184H1457.01V457.182H1473.55V404.184Z" fill="#003B2F"/><path d="M1465.35 398.198V477.763" stroke="#003B2F" stroke-width="3" stroke-linecap="round" stroke-linejoin="round"/><path d="M1242.19 412.389C1242.19 412.389 1295.39 509.105 1332.78 450.591C1357.67 411.582 1381.41 419.989 1394.46 429.943C1412.82 443.933 1437.84 446.623 1458.96 437.342C1468.24 433.239 1478.6 427.119 1489.83 418.241" stroke="#E6E8EA" stroke-width="3" stroke-linecap="round" stroke-linejoin="round"/><path d="M1480.95 742.957H1265.39C1265.39 742.957 1264.92 743.159 1264.92 743.428V762.327C1264.92 762.327 1265.12 762.798 1265.39 762.798H1480.95C1480.95 762.798 1481.42 762.596 1481.42 762.327V743.428C1481.42 743.428 1481.22 742.957 1480.95 742.957Z" fill="white" stroke="#003B2F" stroke-width="3" stroke-linecap="round" stroke-linejoin="round"/><path d="M1274.47 745.176H1267.88V760.645H1274.47V745.176Z" fill="#003B2F"/><path d="M1284.22 745.176H1277.63V760.645H1284.22V745.176Z" fill="#003B2F"/><path d="M1293.98 745.176H1287.39V760.645H1293.98V745.176Z" fill="#003B2F"/><path d="M1303.73 745.176H1297.14V760.645H1303.73V745.176Z" fill="#003B2F"/><path d="M1313.48 745.176H1306.89V760.645H1313.48V745.176Z" fill="#003B2F"/><path d="M1323.23 745.176H1316.64V760.645H1323.23V745.176Z" fill="#003B2F"/><path d="M1332.98 745.176H1326.39V760.645H1332.98V745.176Z" fill="#003B2F"/><path d="M1342.74 745.176H1336.15V760.645H1342.74V745.176Z" fill="#003B2F"/><path d="M1352.49 745.176H1345.9V760.645H1352.49V745.176Z" fill="#003B2F"/><path d="M1362.24 745.176H1355.65V760.645H1362.24V745.176Z" fill="#003B2F"/><path d="M1371.99 745.176H1365.4V760.645H1371.99V745.176Z" fill="#003B2F"/><path d="M1381.75 745.176H1375.15V760.645H1381.75V745.176Z" fill="#003B2F"/><path d="M1391.57 745.176H1384.98V760.645H1391.57V745.176Z" fill="#003B2F"/><path d="M1401.32 745.176H1394.73V760.645H1401.32V745.176Z" fill="#003B2F"/><path d="M1411.07 745.176H1404.48V760.645H1411.07V745.176Z" fill="#003B2F"/><path d="M1420.82 745.176H1414.23V760.645H1420.82V745.176Z" fill="#003B2F"/><path d="M1430.57 745.176H1423.98V760.645H1430.57V745.176Z" fill="#003B2F"/><path d="M1440.33 745.176H1433.74V760.645H1440.33V745.176Z" fill="#003B2F"/><path d="M1450.08 745.176H1443.49V760.645H1450.08V745.176Z" fill="#003B2F"/><path d="M1459.83 745.176H1453.24V760.645H1459.83V745.176Z" fill="#003B2F"/><path d="M1278.57 734.012C1277.36 734.012 1276.35 733.608 1275.68 732.801C1275.01 731.994 1274.67 730.783 1274.67 729.304C1274.67 727.824 1275.01 726.613 1275.68 725.806C1276.35 724.999 1277.36 724.596 1278.57 724.596C1279.78 724.596 1280.79 724.999 1281.47 725.806C1282.14 726.613 1282.48 727.824 1282.48 729.304C1282.48 730.783 1282.14 731.994 1281.47 732.801C1280.79 733.608 1279.78 734.012 1278.57 734.012ZM1278.57 732.667C1279.31 732.667 1279.92 732.398 1280.32 731.792C1280.73 731.187 1280.93 730.38 1280.93 729.304C1280.93 728.228 1280.73 727.421 1280.32 726.815C1279.92 726.21 1279.31 725.941 1278.57 725.941C1277.83 725.941 1277.23 726.21 1276.83 726.815C1276.42 727.421 1276.22 728.228 1276.22 729.304C1276.22 730.38 1276.42 731.187 1276.83 731.792C1277.23 732.398 1277.83 732.667 1278.57 732.667Z" fill="#003B2F"/><path d="M1287.59 734.012C1286.64 734.012 1285.91 733.81 1285.43 733.339C1284.9 732.868 1284.69 732.263 1284.69 731.456C1284.69 730.514 1285.03 729.775 1285.77 729.236C1286.51 728.698 1287.45 728.497 1288.8 728.497C1289.4 728.497 1289.87 728.497 1290.34 728.564C1290.81 728.564 1291.22 728.698 1291.55 728.833L1291.29 729.909C1290.88 729.775 1290.48 729.707 1290.08 729.707C1289.67 729.707 1289.2 729.707 1288.8 729.707C1287.05 729.707 1286.17 730.245 1286.17 731.389C1286.17 731.86 1286.31 732.196 1286.64 732.398C1286.91 732.667 1287.38 732.734 1287.92 732.734C1288.53 732.734 1289.07 732.599 1289.47 732.398C1289.87 732.196 1290.21 731.927 1290.48 731.59C1290.68 731.254 1290.81 730.918 1290.81 730.514V729.505L1291.42 731.86H1290.68L1290.95 731.59C1290.95 732.061 1290.81 732.532 1290.55 732.868C1290.28 733.205 1289.94 733.474 1289.47 733.675C1289 733.877 1288.46 733.944 1287.86 733.944L1287.59 734.012ZM1290.95 733.944L1290.81 730.918L1290.61 730.514V728.295C1290.61 727.488 1290.41 726.95 1289.94 726.613C1289.47 726.277 1288.8 726.075 1287.79 726.075H1285.7L1285.91 724.663H1287.65C1289.13 724.663 1290.28 725.067 1290.95 725.672C1291.69 726.277 1292.03 727.219 1292.03 728.497V732.532L1293.57 732.667V733.81H1290.88L1290.95 733.944Z" fill="#003B2F"/><path d="M1298.62 734.012C1297.41 734.012 1296.53 733.608 1295.93 732.801C1295.32 731.994 1294.99 730.851 1294.99 729.304C1294.99 727.757 1295.32 726.546 1295.93 725.739C1296.53 724.932 1297.47 724.528 1298.68 724.528C1299.42 724.528 1300.03 724.73 1300.5 725.067C1300.97 725.403 1301.24 725.874 1301.31 726.479H1301.98L1301.44 729.035C1301.44 727.959 1301.24 727.152 1300.84 726.613C1300.43 726.075 1299.83 725.806 1299.02 725.806C1298.21 725.806 1297.61 726.075 1297.2 726.681C1296.8 727.286 1296.6 728.16 1296.6 729.304C1296.6 730.447 1296.8 731.254 1297.2 731.792C1297.61 732.33 1298.21 732.667 1299.09 732.667C1299.96 732.667 1300.5 732.398 1300.9 731.86C1301.31 731.321 1301.51 730.514 1301.51 729.438L1302.11 731.927H1301.37C1301.31 732.532 1301.04 733.003 1300.57 733.406C1300.1 733.743 1299.49 733.944 1298.68 733.944L1298.62 734.012ZM1301.58 733.944L1301.37 731.927V720.897H1302.85V733.81H1301.58V733.944Z" fill="#003B2F"/><path d="M1305.88 733.81V732.465H1309.65V733.81H1305.88ZM1306.42 726.008V724.663H1310.99V726.008H1306.42ZM1310.12 722.982C1310.12 722.982 1309.51 722.847 1309.31 722.645C1309.11 722.444 1308.97 722.174 1308.97 721.838C1308.97 721.502 1309.11 721.233 1309.31 721.031C1309.51 720.829 1309.78 720.695 1310.12 720.695C1310.45 720.695 1310.72 720.829 1310.92 721.031C1311.13 721.233 1311.26 721.502 1311.26 721.838C1311.26 722.174 1311.13 722.444 1310.92 722.645C1310.72 722.847 1310.45 722.982 1310.12 722.982ZM1309.44 733.81V725.201H1310.92V733.81H1309.44ZM1310.72 733.81V732.465H1313.82V733.81H1310.72Z" fill="#003B2F"/><path d="M1316.24 733.81V724.663H1317.58L1317.72 726.613V733.81H1316.24ZM1322.02 733.81V727.891C1322.02 727.286 1321.89 726.748 1321.55 726.412C1321.21 726.075 1320.74 725.874 1320.14 725.874C1318.52 725.874 1317.72 726.815 1317.72 728.698L1317.18 726.344H1317.85C1317.92 725.739 1318.19 725.268 1318.59 724.999C1319 724.73 1319.6 724.528 1320.34 724.528C1321.35 724.528 1322.09 724.798 1322.63 725.403C1323.16 726.008 1323.43 726.815 1323.43 727.891V733.81H1321.95H1322.02Z" fill="#003B2F"/><path d="M1329.56 734.012C1328.35 734.012 1327.47 733.608 1326.87 732.801C1326.26 731.994 1325.92 730.851 1325.92 729.304C1325.92 727.757 1326.26 726.546 1326.87 725.739C1327.47 724.932 1328.41 724.528 1329.62 724.528C1330.36 724.528 1330.97 724.73 1331.44 725.067C1331.91 725.403 1332.18 725.874 1332.31 726.479H1332.99L1332.38 729.035C1332.38 727.959 1332.18 727.152 1331.78 726.613C1331.37 726.075 1330.77 725.806 1329.96 725.806C1329.15 725.806 1328.55 726.075 1328.14 726.681C1327.74 727.286 1327.54 728.16 1327.54 729.304C1327.54 730.447 1327.74 731.254 1328.14 731.792C1328.55 732.33 1329.15 732.667 1330.03 732.667C1330.9 732.667 1331.44 732.398 1331.84 731.86C1332.25 731.321 1332.45 730.514 1332.45 729.438L1333.05 731.927H1332.31C1332.25 732.532 1331.98 733.003 1331.51 733.406C1331.04 733.743 1330.43 733.944 1329.69 733.944L1329.56 734.012ZM1326.66 737.98V736.635L1329.42 736.567C1330.43 736.567 1331.17 736.231 1331.64 735.693C1332.11 735.155 1332.31 734.348 1332.31 733.339V726.748L1332.45 724.73H1333.79V733.07C1333.79 734.684 1333.46 735.895 1332.72 736.635C1331.98 737.442 1330.83 737.845 1329.22 737.845H1326.6L1326.66 737.98Z" fill="#003B2F"/><path d="M1340.52 734.012C1340.52 734.012 1339.91 733.877 1339.71 733.675C1339.51 733.474 1339.38 733.205 1339.38 732.868C1339.38 732.532 1339.51 732.263 1339.71 732.061C1339.91 731.859 1340.18 731.725 1340.52 731.725C1340.85 731.725 1341.12 731.859 1341.33 732.061C1341.53 732.263 1341.66 732.532 1341.66 732.868C1341.66 733.205 1341.53 733.474 1341.33 733.675C1341.12 733.877 1340.85 734.012 1340.52 734.012Z" fill="#003B2F"/><path d="M1350.87 734.012C1350.87 734.012 1350.27 733.877 1350.07 733.675C1349.87 733.474 1349.73 733.205 1349.73 732.868C1349.73 732.532 1349.87 732.263 1350.07 732.061C1350.27 731.859 1350.54 731.725 1350.87 731.725C1351.21 731.725 1351.48 731.859 1351.68 732.061C1351.88 732.263 1352.02 732.532 1352.02 732.868C1352.02 733.205 1351.88 733.474 1351.68 733.675C1351.48 733.877 1351.21 734.012 1350.87 734.012Z" fill="#003B2F"/><path d="M1361.17 734.012C1361.17 734.012 1360.56 733.877 1360.36 733.675C1360.16 733.474 1360.02 733.205 1360.02 732.868C1360.02 732.532 1360.16 732.263 1360.36 732.061C1360.56 731.859 1360.83 731.725 1361.17 731.725C1361.5 731.725 1361.77 731.859 1361.97 732.061C1362.17 732.263 1362.31 732.532 1362.31 732.868C1362.31 733.205 1362.17 733.474 1361.97 733.675C1361.77 733.877 1361.5 734.012 1361.17 734.012Z" fill="#003B2F"/><path d="M1264.45 733.608V721.166H1265.93V733.608H1264.45ZM1264.45 733.608V732.263H1272.52V733.608H1264.45Z" fill="#003B2F"/><path d="M502.631 816.401V816.603C502.093 818.755 500.613 820.235 497.99 821.311C496.376 821.984 494.425 822.455 492.004 822.858C490.524 823.127 488.977 823.329 487.498 823.531C485.884 823.732 484.202 823.8 482.588 823.867C473.441 824.203 464.294 822.724 455.685 819.563C443.915 815.325 427.975 809.81 417.551 807.456C415.735 802.479 412.843 798.04 409.076 794.476C408.135 797.233 407.328 799.789 406.52 802.412C405.512 802.412 404.301 802.412 403.023 802.277C399.122 802.008 394.28 801.336 389.639 800.596C383.653 799.654 378.138 798.578 375.717 798.108C374.91 797.973 374.439 797.839 374.439 797.839C374.439 797.839 374.573 794.341 372.757 788.019L370.807 797.435C364.014 796.359 357.087 796.292 350.294 797.166C349.15 792.323 347.065 787.75 344.173 783.715C342.895 789.028 342.088 794.476 341.887 799.923C338.12 800.192 334.287 800.596 330.386 801.201C325.274 802.008 320.095 803.152 315.051 804.631C313.84 803.219 312.899 801.605 312.226 799.856C311.016 801.201 310.679 803.555 310.814 805.371C305.702 806.515 301.801 808.465 297.833 810.483C296.959 807.927 295.278 804.766 293.125 802.816L291.915 813.577C286.265 816.469 280.817 820.37 276.244 825.212C274.764 824.27 274.226 823.329 274.293 822.387C274.293 822.253 274.293 822.051 274.361 821.916C277.993 809.608 283.642 797.973 290.973 787.481C296.488 779.545 302.878 772.348 310.007 766.026C311.217 764.95 312.428 763.874 313.706 762.865C313.706 762.865 313.706 762.865 313.773 762.865C316.06 760.982 318.414 759.233 320.902 757.552C340.407 744.1 364.014 737.038 387.285 737.845C390.984 737.98 394.683 738.316 398.315 738.854C400.535 739.191 402.821 739.729 405.243 740.468C400.871 740.603 397.374 742.486 397.374 744.773C397.374 747.06 401.14 749.077 405.781 749.077C410.421 749.077 414.188 747.127 414.188 744.773C414.188 744.504 414.188 744.235 414.053 743.966C414.12 743.966 414.255 744.033 414.322 744.1C424.949 749.145 436.652 757.35 448.287 767.371C448.422 767.438 448.489 767.573 448.623 767.64C451.246 769.86 453.802 772.214 456.358 774.635C459.922 777.998 463.42 781.428 466.917 785.06C467.321 785.463 467.657 785.867 468.061 786.27C465.236 787.01 463.285 788.49 463.285 790.171C463.285 792.323 466.446 794.139 470.549 794.408C470.953 794.408 471.356 794.408 471.76 794.408C473.038 794.408 474.248 794.274 475.257 794.005C475.257 794.005 475.459 794.207 475.526 794.274C476.333 795.215 477.14 796.157 477.947 797.031C480.638 800.125 483.799 803.219 487.094 806.044C490.793 809.205 494.56 812.03 497.721 814.047C499.469 815.124 501.084 815.998 502.362 816.536L502.631 816.401ZM427.505 785.665C427.505 783.311 423.738 781.361 419.098 781.361C414.457 781.361 410.69 783.311 410.69 785.665C410.69 788.019 414.457 789.969 419.098 789.969C423.738 789.969 427.505 788.019 427.505 785.665ZM373.228 765.555C373.228 763.201 369.462 761.251 364.821 761.251C360.18 761.251 356.414 763.201 356.414 765.555C356.414 767.909 360.18 769.86 364.821 769.86C369.462 769.86 373.228 767.909 373.228 765.555ZM322.517 788.692C323.996 787.884 324.938 786.876 324.938 785.665C324.938 784.051 323.189 782.638 320.633 781.899C319.423 781.562 318.01 781.361 316.531 781.361C316.127 781.361 315.724 781.361 315.32 781.361C311.217 781.63 308.124 783.446 308.124 785.598C308.124 787.952 311.89 789.902 316.531 789.902C316.934 789.902 317.271 789.902 317.607 789.902C319.49 789.768 321.239 789.297 322.517 788.692Z" fill="#03FC9D" stroke="#003B2F" stroke-width="3" stroke-linecap="round" stroke-linejoin="round"/><path d="M469.339 787.145C469.339 787.145 469.608 787.414 469.675 787.548C471.626 789.633 473.509 791.718 475.392 793.803C474.316 794.072 473.105 794.274 471.895 794.274C471.491 794.274 471.087 794.274 470.684 794.274C466.581 794.005 463.42 792.189 463.42 790.037C463.42 788.355 465.371 786.808 468.195 786.136C468.195 786.136 468.397 786.338 468.532 786.405C468.801 786.674 469.002 786.943 469.272 787.212L469.339 787.145Z" fill="#E6E8EA" stroke="#003B2F" stroke-width="3" stroke-linecap="round" stroke-linejoin="round"/><path d="M426.227 933.496C427.236 927.375 425.958 920.784 423.47 915C420.309 907.467 415.399 900.876 411.094 894.016C407.328 887.963 403.965 881.439 402.822 874.444C398.921 874.444 395.155 872.696 392.532 869.736C392.195 873.704 387.756 876.462 383.923 875.588C380.089 874.713 377.399 870.88 376.928 866.911C374.91 871.619 369.933 874.713 364.889 874.713C363.275 885.004 358.97 894.89 356.213 905.046C355.54 907.602 354.935 910.292 354.531 912.982C354.599 912.982 354.666 912.982 354.733 912.982C354.935 913.05 355.069 913.319 355.069 913.588C354.599 917.489 354.128 921.591 354.262 925.559C354.262 926.165 354.262 926.703 354.33 927.241C354.666 929.46 355.204 931.613 355.944 933.63C355.944 933.63 361.93 942.374 392.666 941.499C423.402 940.625 426.025 933.429 426.025 933.429L426.227 933.496Z" fill="#E6E8EA"/><path d="M419.097 789.97C423.74 789.97 427.504 788.042 427.504 785.665C427.504 783.288 423.74 781.361 419.097 781.361C414.454 781.361 410.69 783.288 410.69 785.665C410.69 788.042 414.454 789.97 419.097 789.97Z" fill="#E6E8EA" stroke="#003B2F" stroke-width="3" stroke-linecap="round" stroke-linejoin="round"/><path d="M414.255 743.764C414.255 743.764 414.39 744.302 414.39 744.571C414.39 746.925 410.623 748.875 405.983 748.875C401.342 748.875 397.575 746.925 397.575 744.571C397.575 742.217 401.073 740.401 405.444 740.267C405.714 740.334 406.05 740.468 406.319 740.536C406.722 740.67 407.193 740.805 407.597 741.006C409.749 741.746 411.968 742.688 414.255 743.764Z" fill="#E6E8EA" stroke="#003B2F" stroke-width="3" stroke-linecap="round" stroke-linejoin="round"/><path d="M406.52 826.557V826.961C405.041 830.324 404.032 833.821 403.359 837.318C401.072 849.425 402.687 862.136 407.865 873.435C406.251 874.108 404.57 874.444 402.888 874.444C398.987 874.444 395.221 872.695 392.598 869.736C392.262 873.704 387.823 876.462 383.989 875.587C380.156 874.713 377.465 870.879 376.994 866.911C374.977 871.619 370 874.713 364.955 874.713C363.745 874.713 362.534 874.511 361.391 874.108C354.531 864.826 368.789 849.761 372.152 835.368C373.026 831.534 373.161 827.768 371.95 824.136C374.64 824.271 377.398 823.665 379.752 821.917C380.626 822.589 381.097 823.127 382.106 823.396C383.115 823.732 384.325 823.665 385.2 822.993C385.536 822.724 385.738 822.387 385.94 822.051L386.141 822.186C387.218 823.665 389.302 824.069 391.051 823.531C391.589 823.329 392.127 823.127 392.665 822.791V822.925C395.087 825.212 398.718 825.616 401.88 824.741C403.494 825.548 405.108 826.086 406.587 826.423L406.52 826.557Z" fill="#E6E8EA" stroke="#003B2F" stroke-width="3" stroke-linecap="round" stroke-linejoin="round"/><path d="M482.588 823.867C473.441 824.203 464.294 822.724 455.685 819.563C443.915 815.325 427.975 809.81 417.55 807.456C415.734 802.479 412.842 798.04 409.076 794.476C408.134 797.233 407.327 799.789 406.52 802.412C405.511 802.412 404.301 802.412 403.023 802.278C399.122 802.008 394.28 801.336 389.639 800.596C383.653 799.655 378.138 798.578 375.717 798.108C374.91 797.973 374.439 797.839 374.439 797.839C374.439 797.839 374.573 794.341 372.757 788.019L370.807 797.435C364.014 796.359 357.086 796.292 350.294 797.166C349.15 792.323 347.065 787.75 344.173 783.715C342.895 789.028 342.088 794.476 341.886 799.923C338.12 800.193 334.286 800.596 330.385 801.201C325.274 802.008 320.095 803.152 315.051 804.632C313.84 803.219 312.899 801.605 312.226 799.856C311.015 801.201 310.679 803.555 310.814 805.371C305.702 806.515 301.801 808.465 297.833 810.483C296.959 807.927 295.277 804.766 293.125 802.816L291.915 813.577C286.265 816.469 280.817 820.37 276.244 825.212C277.656 825.885 283.238 827.432 290.973 829.382C300.053 831.602 312.159 834.359 323.996 836.646C324.063 836.646 324.131 836.646 324.198 836.646C325.947 836.848 327.83 837.117 329.578 837.251C344.442 838.865 359.508 838.663 371.95 835.435C372.825 831.601 372.959 827.835 371.748 824.203C374.439 824.338 377.196 823.732 379.55 821.984C380.425 822.656 380.895 823.194 381.904 823.463C382.913 823.8 384.124 823.732 384.998 823.06C385.334 822.791 385.536 822.455 385.738 822.118L385.94 822.253C387.016 823.732 389.101 824.136 390.849 823.598C391.387 823.396 391.926 823.194 392.396 822.858V822.993C394.818 825.279 398.449 825.683 401.611 824.809C403.225 825.616 404.839 826.154 406.319 826.49V826.894C404.839 830.256 403.897 833.754 403.157 837.251C420.308 847.138 439.409 845.389 455.887 839.202C461.671 836.982 467.186 834.225 472.096 831.265C475.795 828.978 479.225 826.624 482.319 824.203V823.867H482.588Z" fill="#E6E8EA" stroke="#003B2F" stroke-width="3" stroke-linecap="round" stroke-linejoin="round"/><path d="M364.822 769.86C369.465 769.86 373.229 767.933 373.229 765.555C373.229 763.178 369.465 761.251 364.822 761.251C360.179 761.251 356.415 763.178 356.415 765.555C356.415 767.933 360.179 769.86 364.822 769.86Z" fill="#E6E8EA" stroke="#003B2F" stroke-width="3" stroke-linecap="round" stroke-linejoin="round"/><path d="M324.938 785.665C324.938 786.876 323.996 787.885 322.516 788.692C321.238 789.364 319.557 789.835 317.607 789.902C317.27 789.902 316.867 789.902 316.53 789.902C311.89 789.902 308.123 787.952 308.123 785.598C308.123 783.446 311.284 781.63 315.32 781.361C315.723 781.361 316.127 781.361 316.53 781.361C318.01 781.361 319.422 781.562 320.633 781.899C323.189 782.638 324.938 784.051 324.938 785.665Z" fill="#E6E8EA" stroke="#003B2F" stroke-width="3" stroke-linecap="round" stroke-linejoin="round"/><path d="M375.718 801.874C379.081 807.591 380.829 814.115 380.897 820.773C380.897 821.109 380.762 821.378 380.493 821.58C378.408 823.127 375.852 823.934 373.027 823.934C371.413 823.934 369.665 823.665 367.916 823.127C364.822 822.118 361.93 820.504 359.173 818.89C358.5 818.486 357.76 818.083 357.088 817.679C348.008 812.568 338.121 809.205 327.831 807.725" stroke="#003B2F" stroke-width="3" stroke-linecap="round" stroke-linejoin="round"/><path d="M388.966 803.488C389.168 809.138 388.361 814.653 386.545 819.966C386.209 820.908 385.805 821.984 384.931 822.724C384.258 823.262 383.384 823.531 382.51 823.531" stroke="#003B2F" stroke-width="3" stroke-linecap="round" stroke-linejoin="round"/><path d="M402.014 808.936C400.601 813.106 398.247 817.074 395.288 820.302C394.145 821.58 392.531 823.127 390.513 823.732" stroke="#003B2F" stroke-width="3" stroke-linecap="round" stroke-linejoin="round"/><path d="M416.609 815.393L409.951 820.033C407.328 821.849 404.436 823.867 401.14 824.741C400.064 825.01 398.921 825.212 397.845 825.212" stroke="#003B2F" stroke-width="3" stroke-linecap="round" stroke-linejoin="round"/><path d="M429.59 819.966C428.783 820.37 427.909 820.84 427.034 821.311C422.057 824.001 416.542 826.961 410.354 826.961C407.53 826.961 404.503 826.355 401.342 824.809" stroke="#003B2F" stroke-width="3" stroke-linecap="round" stroke-linejoin="round"/><path d="M305.568 824.674C311.621 827.028 317.675 828.844 323.66 830.256C325.544 830.66 327.36 831.063 329.108 831.4C335.363 832.543 341.416 833.081 347.2 833.081C356.146 833.081 364.553 831.736 372.354 829.113" stroke="#003B2F" stroke-width="3" stroke-linecap="round" stroke-linejoin="round"/><path d="M443.848 832.476C437.66 835.906 430.598 837.587 423.671 837.587C416.744 837.587 410.22 835.973 404.436 832.678" stroke="#003B2F" stroke-width="3" stroke-linecap="round" stroke-linejoin="round"/><path d="M456.56 775.375C456.022 775.375 455.619 774.971 455.619 774.433C455.619 773.895 456.022 773.492 456.56 773.492C457.099 773.492 457.502 773.895 457.502 774.433C457.502 774.971 457.099 775.375 456.56 775.375Z" fill="#00261E"/><path d="M356.146 933.765C355.406 931.747 354.868 929.595 354.532 927.375C354.532 926.837 354.464 926.232 354.464 925.694C354.33 921.659 354.801 917.623 355.272 913.722C355.272 913.453 355.137 913.184 354.935 913.117C354.868 913.117 354.801 913.117 354.734 913.117C355.137 910.427 355.675 907.736 356.415 905.181C359.172 895.025 363.477 885.138 365.091 874.848C370.068 874.848 375.112 871.821 377.13 867.046C377.534 871.014 380.291 874.848 384.125 875.722C387.958 876.596 392.397 873.839 392.734 869.871C395.357 872.83 399.123 874.511 403.024 874.579C404.167 881.573 407.53 888.097 411.297 894.15C415.601 901.078 420.511 907.669 423.672 915.135C426.093 920.919 427.438 927.51 426.429 933.63" fill="#E6E8EA"/><path d="M356.146 933.765C355.406 931.747 354.868 929.595 354.532 927.375C354.532 926.837 354.464 926.232 354.464 925.694C354.33 921.659 354.801 917.623 355.272 913.722C355.272 913.453 355.137 913.184 354.935 913.117C354.868 913.117 354.801 913.117 354.734 913.117C355.137 910.427 355.675 907.736 356.415 905.181C359.172 895.025 363.477 885.138 365.091 874.848C370.068 874.848 375.112 871.821 377.13 867.046C377.534 871.014 380.291 874.848 384.125 875.722C387.958 876.596 392.397 873.839 392.734 869.871C395.357 872.83 399.123 874.511 403.024 874.579C404.167 881.573 407.53 888.097 411.297 894.15C415.601 901.078 420.511 907.669 423.672 915.135C426.093 920.919 427.438 927.51 426.429 933.63" stroke="#003B2F" stroke-width="3" stroke-linecap="round" stroke-linejoin="round"/><path d="M514.789 163.772H468.068C482.822 163.772 494.871 152.871 494.871 139.428C494.871 125.986 482.904 115.085 468.068 115.085H333.891C319.137 115.085 307.089 125.986 307.089 139.428H265.942C251.188 139.428 239.139 150.33 239.139 163.772C239.139 177.214 251.106 188.116 265.942 188.116H353.891C353.891 201.558 365.858 212.46 380.693 212.46H514.871C529.624 212.46 541.673 201.558 541.673 188.116C541.673 174.674 529.706 163.772 514.871 163.772H514.789Z" fill="#E6E8EA"/><path d="M1357.39 180.941H1388.58" stroke="#003B2F" stroke-width="3" stroke-linecap="round" stroke-linejoin="round"/><path d="M1226.99 128.415H1452.58" stroke="#03FC9D" stroke-width="3" stroke-linecap="round" stroke-linejoin="round"/><path d="M1428.72 180.826H1554.88" stroke="#003B2F" stroke-width="3" stroke-linecap="round" stroke-linejoin="round"/><path d="M1732.29 511.123C1743.25 511.123 1752.13 502.24 1752.13 491.282C1752.13 480.324 1743.25 471.441 1732.29 471.441C1721.33 471.441 1712.45 480.324 1712.45 491.282C1712.45 502.24 1721.33 511.123 1732.29 511.123Z" stroke="#003B2F" stroke-width="3" stroke-linecap="round" stroke-linejoin="round"/><path d="M266.041 589.409L291.605 604.178" stroke="#003B2F" stroke-width="3" stroke-linecap="round" stroke-linejoin="round"/><path d="M317.271 589.409L302.198 598.067" stroke="#003B2F" stroke-width="3" stroke-linecap="round" stroke-linejoin="round"/><path d="M291.605 604.179V634.021" stroke="#003B2F" stroke-width="3" stroke-linecap="round" stroke-linejoin="round"/><path d="M139.26 432.739H216.788" stroke="#003B2F" stroke-width="3" stroke-linecap="round" stroke-linejoin="round"/><path d="M80.3083 432.739H99.8053" stroke="#003B2F" stroke-width="3" stroke-linecap="round" stroke-linejoin="round"/><path d="M91.8096 383.565H292.857" stroke="#03FC9D" stroke-width="3" stroke-linecap="round" stroke-linejoin="round"/><path d="M911.927 140.021V164.652" stroke="#003B2F" stroke-width="3" stroke-miterlimit="10" stroke-linecap="round" stroke-linejoin="round"/><path d="M911.927 182.659V207.301" stroke="#003B2F" stroke-width="3" stroke-miterlimit="10" stroke-linecap="round" stroke-linejoin="round"/><path d="M878.295 173.655H902.926" stroke="#003B2F" stroke-width="3" stroke-miterlimit="10" stroke-linecap="round" stroke-linejoin="round"/><path d="M920.93 173.655H945.572" stroke="#003B2F" stroke-width="3" stroke-miterlimit="10" stroke-linecap="round" stroke-linejoin="round"/><path d="M1847.67 670.905H1822.92C1830.71 670.905 1837.14 664.556 1837.14 656.679C1837.14 648.802 1830.79 642.452 1822.92 642.452H1751.78C1743.99 642.452 1737.56 648.802 1737.56 656.679H1715.69C1707.9 656.679 1701.47 663.028 1701.47 670.905C1701.47 678.782 1707.82 685.132 1715.69 685.132H1762.31C1762.31 692.929 1768.66 699.359 1776.54 699.359H1847.67C1855.47 699.359 1861.9 693.009 1861.9 685.132C1861.9 677.255 1855.55 670.905 1847.67 670.905Z" fill="#03FC9D"/><path d="M1667.04 729.337H1790.74C1804.36 729.337 1815.41 718.29 1815.41 704.662C1815.41 691.034 1804.36 679.986 1790.74 679.986H1667.04C1653.41 679.986 1642.36 691.034 1642.36 704.662C1642.36 718.29 1653.41 729.337 1667.04 729.337Z" fill="#E6E8EA"/></svg>