<svg width="1676" height="858" viewBox="0 0 1676 858" fill="none" xmlns="http://www.w3.org/2000/svg"><path d="M1470.1 357.481V303.581H1357.7V266.114L1467.47 112.629H1514.14V266.114H1549.96V303.581H1514.14V357.481H1470.1ZM1390.56 282.218L1382.67 266.114H1470.1V147.796L1481.6 151.411L1390.56 282.218Z" fill="#E6E8EA"/><path d="M1229.52 361.425C1210.02 361.425 1192.93 356.167 1178.24 345.649C1163.56 335.132 1152.06 320.343 1143.74 301.28C1135.63 282.218 1131.57 260.088 1131.57 234.891C1131.57 209.474 1135.63 187.344 1143.74 168.501C1151.84 149.658 1163.24 134.978 1177.92 124.461C1192.6 113.943 1209.69 108.685 1229.19 108.685C1249.13 108.685 1266.33 113.943 1280.79 124.461C1295.47 134.978 1306.97 149.767 1315.3 168.83C1323.62 187.673 1327.79 209.693 1327.79 234.891C1327.79 260.088 1323.62 282.218 1315.3 301.28C1307.19 320.123 1295.8 334.913 1281.12 345.649C1266.44 356.167 1249.24 361.425 1229.52 361.425ZM1229.84 320.671C1241.02 320.671 1250.55 317.275 1258.44 310.483C1266.33 303.471 1272.35 293.611 1276.51 280.903C1280.9 267.976 1283.09 252.638 1283.09 234.891C1283.09 217.143 1280.9 201.915 1276.51 189.207C1272.35 176.279 1266.22 166.42 1258.11 159.627C1250.22 152.835 1240.58 149.439 1229.19 149.439C1218.23 149.439 1208.81 152.835 1200.92 159.627C1193.03 166.42 1186.9 176.279 1182.52 189.207C1178.35 201.915 1176.27 217.143 1176.27 234.891C1176.27 252.419 1178.35 267.647 1182.52 280.575C1186.9 293.283 1193.03 303.143 1200.92 310.154C1209.03 317.166 1218.67 320.671 1229.84 320.671Z" fill="#E6E8EA"/><path d="M1022.36 357.481V303.581H909.96V266.114L1019.73 112.629H1066.4V266.114H1102.23V303.581H1066.4V357.481H1022.36ZM942.826 282.218L934.938 266.114H1022.36V147.796L1033.86 151.411L942.826 282.218Z" fill="#E6E8EA"/><path d="M665.474 361.425C647.946 361.425 631.732 358.248 616.833 351.894C602.152 345.54 589.225 336.666 578.051 325.272C567.095 313.879 558.55 300.513 552.415 285.176C546.28 269.838 543.213 253.077 543.213 234.891C543.213 216.705 546.17 199.943 552.086 184.606C558.221 169.049 566.767 155.683 577.722 144.509C588.896 133.115 601.933 124.351 616.833 118.216C631.732 111.862 647.946 108.685 665.474 108.685C683.003 108.685 698.669 111.643 712.473 117.559C726.496 123.475 738.328 131.362 747.968 141.222C757.609 150.863 764.511 161.49 768.674 173.102L728.577 191.836C723.976 179.566 716.198 169.487 705.242 161.599C694.287 153.492 681.031 149.439 665.474 149.439C650.137 149.439 636.552 153.054 624.72 160.285C613.108 167.515 604.015 177.485 597.442 190.193C591.088 202.901 587.91 217.8 587.91 234.891C587.91 251.981 591.088 266.99 597.442 279.917C604.015 292.625 613.108 302.595 624.72 309.825C636.552 317.056 650.137 320.671 665.474 320.671C681.031 320.671 694.287 316.727 705.242 308.839C716.198 300.732 723.976 290.544 728.577 278.274L768.674 297.008C764.511 308.62 757.609 319.357 747.968 329.216C738.328 338.857 726.496 346.635 712.473 352.551C698.669 358.467 683.003 361.425 665.474 361.425Z" fill="#E6E8EA"/><path d="M333.154 357.481V112.629H424.194C440.846 112.629 455.526 115.696 468.234 121.831C481.161 127.747 491.24 136.511 498.471 148.124C505.702 159.518 509.317 173.431 509.317 189.864C509.317 206.735 505.263 221.087 497.156 232.919C489.268 244.751 478.532 253.515 464.948 259.212L521.149 357.481H470.535L410.39 250.009L439.312 267.1H377.852V357.481H333.154ZM377.852 227.66H424.851C432.958 227.66 439.969 226.126 445.885 223.059C451.801 219.772 456.402 215.281 459.689 209.584C462.976 203.887 464.619 197.314 464.619 189.864C464.619 182.195 462.976 175.622 459.689 170.144C456.402 164.448 451.801 160.066 445.885 156.998C439.969 153.711 432.958 152.068 424.851 152.068H377.852V227.66Z" fill="#E6E8EA"/><path d="M137.691 357.481V112.629H300.378V152.068H182.389V214.842H293.805V254.282H182.389V318.042H300.378V357.481H137.691Z" fill="#E6E8EA"/><path d="M1282.88 376.211H1318.4" stroke="#003C2E" stroke-width="3.09759" stroke-linecap="round" stroke-linejoin="round"/><path d="M1122.4 344.099H1379.19" stroke="#00FF94" stroke-width="3.09759" stroke-linecap="round" stroke-linejoin="round"/><path d="M569.215 229.835L586.251 246.872" stroke="#163B2F" stroke-width="3.09759" stroke-linecap="round" stroke-linejoin="round"/><path d="M598.744 259.365L615.677 276.402" stroke="#163B2F" stroke-width="3.09759" stroke-linecap="round" stroke-linejoin="round"/><path d="M569.215 276.402L586.251 259.365" stroke="#163B2F" stroke-width="3.09759" stroke-linecap="round" stroke-linejoin="round"/><path d="M598.744 246.872L615.677 229.835" stroke="#163B2F" stroke-width="3.09759" stroke-linecap="round" stroke-linejoin="round"/><path d="M361.215 510.05C367.146 510.05 371.953 505.242 371.953 499.312C371.953 493.381 367.146 488.573 361.215 488.573C355.284 488.573 350.477 493.381 350.477 499.312C350.477 505.242 355.284 510.05 361.215 510.05Z" stroke="#003C2E" stroke-width="3.09759" stroke-linecap="round" stroke-linejoin="round"/><path d="M1033.4 325.556C1039.33 325.556 1044.14 320.748 1044.14 314.817C1044.14 308.887 1039.33 304.079 1033.4 304.079C1027.47 304.079 1022.66 308.887 1022.66 314.817C1022.66 320.748 1027.47 325.556 1033.4 325.556Z" stroke="#003C2E" stroke-width="3.09759" stroke-linecap="round" stroke-linejoin="round"/><path d="M1122.4 504.474L836.806 669.266L552.447 503.545L840.006 336.068L1122.4 504.474Z" fill="white" stroke="#163B2F" stroke-width="3.09759" stroke-linecap="round" stroke-linejoin="round"/><path d="M836.907 759.509V667.924L1122.61 504.061V590.897L836.907 759.509Z" fill="#00FF94" stroke="#163B2F" stroke-width="3.09759" stroke-linecap="round" stroke-linejoin="round"/><path d="M836.908 759.509V667.924L553.582 502.926V591.723L836.908 759.509Z" fill="#E6E8EA" stroke="#003D2E" stroke-width="3.09759" stroke-linecap="round" stroke-linejoin="round"/><path d="M836.704 510.05C900.686 510.05 952.554 502.607 952.554 493.426C952.554 484.245 900.686 476.802 836.704 476.802C772.722 476.802 720.854 484.245 720.854 493.426C720.854 502.607 772.722 510.05 836.704 510.05Z" fill="#E6E8EA"/><path d="M836.601 401.427L835.155 394.303L720.854 327.292L837.323 263.481L952.554 327.292L836.601 401.427Z" fill="white"/><path d="M720.96 291.359C720.96 291.359 721.063 291.359 721.166 291.359C721.992 290.739 722.818 290.326 723.748 290.017L738.926 283.099L752.246 277.007L767.63 269.986L780.64 264.1L796.128 257.079L809.241 251.09L824.523 244.172L835.777 239.01C835.777 239.01 836.5 238.493 837.016 238.7C837.016 238.7 837.016 238.906 837.12 239.01C837.12 239.423 837.12 239.836 837.12 240.352C837.12 279.588 837.12 318.927 837.12 358.267C837.12 358.886 837.12 359.403 836.81 359.919C833.299 357.854 829.789 355.789 826.278 353.827L736.654 300.858L720.753 291.462V291.256L720.96 291.359Z" fill="#003D2E"/><path d="M836.913 360.023V238.804C836.913 238.804 836.81 237.978 836.913 237.565V101.064C836.913 100.548 836.603 99.9284 837.326 99.5154C839.804 103.646 842.385 107.776 844.863 111.906L952.247 290.224C952.247 290.224 952.66 291.05 952.866 291.463C952.35 291.772 951.937 291.463 951.524 291.153L942.747 287.126L925.401 279.176L908.054 271.328C902.169 268.644 896.387 265.959 890.501 263.378L873.464 255.634L855.808 247.683L838.771 239.939L838.255 239.733C838.255 239.733 837.532 239.63 837.532 240.146V358.267C837.636 358.887 837.532 359.506 837.326 360.023C837.326 360.023 837.326 360.229 837.119 360.126L836.913 360.023Z" fill="#004734"/><path d="M837.117 359.919V240.146C837.117 238.803 837.116 238.803 838.356 239.423L858.387 248.509C862.826 250.471 867.163 252.536 871.603 254.601L890.808 263.274L901.753 268.334L917.551 275.458L928.495 280.518L943.88 287.539L952.347 291.359C952.347 291.359 952.657 291.462 952.76 291.462C952.76 291.979 952.347 291.979 952.037 292.082L893.906 326.465L838.459 359.196C838.459 359.196 837.53 359.816 837.013 359.919H837.117Z" fill="#004734"/><path d="M837.017 395.335L861.281 380.983L929.945 340.404L951.731 327.601C951.731 327.601 952.144 327.188 952.557 327.291C952.557 327.601 952.247 327.807 952.144 328.014C913.94 381.809 875.84 435.5 837.636 489.295C837.43 489.605 837.43 490.121 836.81 490.121C836.604 489.605 836.501 489.089 836.501 488.572V396.987C836.501 396.471 836.397 395.748 837.017 395.438V395.335Z" fill="#004734"/><path d="M837.014 395.336C837.014 395.336 836.807 396.265 836.807 396.678V490.122C835.155 488.16 833.813 485.992 832.264 483.823C819.048 465.238 805.831 446.652 792.615 427.963L753.069 372.31L721.577 327.911L720.854 326.879C721.577 327.292 721.99 327.498 722.403 327.808L790.653 368.18L836.084 395.026C836.084 395.026 836.601 395.232 836.807 395.336" fill="#003D2E"/><path d="M837.225 99.5149C837.225 99.5149 837.122 100.238 837.122 100.651V237.461C837.122 237.461 837.225 238.287 836.915 238.7C836.915 238.7 836.605 238.081 836.605 237.771V101.373C836.605 100.651 836.605 99.8247 836.915 99.1019H837.122V99.5149H837.225Z" fill="#003D2E"/><path d="M836.91 99.2053C836.91 145.566 836.91 192.03 836.91 238.39V238.803C831.438 241.281 826.069 243.76 820.597 246.341C814.814 248.922 809.032 251.607 803.353 254.188L773.513 267.818L752.656 277.317L721.68 291.359C721.68 291.359 721.37 291.359 721.267 291.462C723.022 288.571 724.675 285.68 726.43 282.789L770.725 209.273L827.411 115.313L836.704 99.8248C836.704 99.8248 836.911 99.5151 837.117 99.3086" fill="#003D2E"/><path d="M1485.98 690.846H1436.21C1451.9 690.846 1464.71 678.043 1464.71 662.348C1464.71 646.654 1451.9 633.85 1436.21 633.85H1293.41C1277.71 633.85 1264.91 646.654 1264.91 662.348H1221.13C1205.44 662.348 1192.63 675.152 1192.63 690.846C1192.63 706.54 1205.44 719.344 1221.13 719.344H1314.68C1314.68 735.038 1327.48 747.842 1343.18 747.842H1485.98C1501.67 747.842 1514.47 735.038 1514.47 719.344C1514.47 703.649 1501.67 690.846 1485.98 690.846Z" fill="#E6E8EA"/><path d="M1399.14 670.504H1434.76" stroke="#003C2E" stroke-width="3.09759" stroke-linecap="round" stroke-linejoin="round"/><path d="M1250.04 590.69H1507.97" stroke="#00FF94" stroke-width="3.09759" stroke-linecap="round" stroke-linejoin="round"/><path d="M1480.81 670.298H1552.98" stroke="#003C2E" stroke-width="3.09759" stroke-linecap="round" stroke-linejoin="round"/><path d="M263.125 753.211H298.747" stroke="#003C2E" stroke-width="3.09759" stroke-linecap="round" stroke-linejoin="round"/><path d="M114.027 673.293H371.953" stroke="#00FF94" stroke-width="3.09759" stroke-linecap="round" stroke-linejoin="round"/><path d="M344.799 753.004H489.044" stroke="#003C2E" stroke-width="3.09759" stroke-linecap="round" stroke-linejoin="round"/><path d="M1354.76 376.211H1499.01" stroke="#003C2E" stroke-width="3.09759" stroke-linecap="round" stroke-linejoin="round"/><path d="M497.612 666.065L519.192 653.674" stroke="#003D2E" stroke-width="3.09759" stroke-linecap="round" stroke-linejoin="round"/><path d="M540.67 666.065L528.073 658.837" stroke="#003D2E" stroke-width="3.09759" stroke-linecap="round" stroke-linejoin="round"/><path d="M519.19 653.675V628.481" stroke="#003D2E" stroke-width="3.09759" stroke-linecap="round" stroke-linejoin="round"/><path d="M299.922 205.681L402.715 205.681C414.022 205.681 423.189 196.515 423.189 185.207V185.147C423.189 173.839 414.022 164.673 402.715 164.673H299.922C288.614 164.673 279.448 173.839 279.448 185.147V185.207C279.448 196.515 288.614 205.681 299.922 205.681Z" fill="#03FC9D"/><path d="M263.76 230.092L366.553 230.092C377.86 230.092 387.027 220.926 387.027 209.618V209.558C387.027 198.25 377.86 189.084 366.553 189.084H263.76C252.452 189.084 243.286 198.25 243.286 209.558V209.618C243.286 220.926 252.452 230.092 263.76 230.092Z" fill="#03FC9D"/><path d="M308.518 376.211H372.683" stroke="#003B2F" stroke-width="3" stroke-linecap="round" stroke-linejoin="round"/><path d="M259.811 376.211H275.949" stroke="#003B2F" stroke-width="3" stroke-linecap="round" stroke-linejoin="round"/><path d="M317.851 332.073H484.096" stroke="#03FC9D" stroke-width="3" stroke-linecap="round" stroke-linejoin="round"/><path d="M317.559 515.005H277.407C290.143 515.005 300.448 504.7 300.448 491.964C300.448 479.229 290.143 468.923 277.407 468.923H162.008C149.272 468.923 138.967 479.229 138.967 491.964H103.579C90.8431 491.964 80.5378 502.27 80.5378 515.005C80.5378 527.741 90.8431 538.047 103.579 538.047H179.118C179.118 550.782 189.424 561.087 202.159 561.087H317.559C330.295 561.087 340.6 550.782 340.6 538.047C340.6 525.311 330.295 515.005 317.559 515.005Z" fill="#E6E8EA"/><path d="M1308.37 195.334H1386.4C1395 195.334 1401.97 188.363 1401.97 179.763C1401.97 171.163 1395 164.192 1386.4 164.192H1308.37C1299.77 164.192 1292.8 171.163 1292.8 179.763C1292.8 188.363 1299.77 195.334 1308.37 195.334Z" fill="#03FC9D"/><path d="M1350.76 171.5L1478.47 171.5C1492.57 171.5 1503.99 160.087 1503.99 146.008C1503.99 131.928 1492.57 120.515 1478.47 120.515L1350.76 120.515C1336.66 120.515 1325.24 131.928 1325.24 146.008C1325.24 160.087 1336.66 171.5 1350.76 171.5Z" fill="#03FC9D"/><path d="M1339.75 476.131L1356.68 493.168" stroke="#163B2F" stroke-width="3.09759" stroke-linecap="round" stroke-linejoin="round"/><path d="M1369.07 505.558L1386.01 522.492" stroke="#163B2F" stroke-width="3.09759" stroke-linecap="round" stroke-linejoin="round"/><path d="M1339.75 522.492L1356.68 505.558" stroke="#163B2F" stroke-width="3.09759" stroke-linecap="round" stroke-linejoin="round"/><path d="M1369.07 493.168L1386.01 476.131" stroke="#163B2F" stroke-width="3.09759" stroke-linecap="round" stroke-linejoin="round"/><path d="M68.1398 203.454L91.0836 216.676" stroke="#003B2F" stroke-width="3" stroke-linecap="round" stroke-linejoin="round"/><path d="M114.027 203.454L100.611 211.232" stroke="#003B2F" stroke-width="3" stroke-linecap="round" stroke-linejoin="round"/><path d="M91.0831 216.676V243.508" stroke="#003B2F" stroke-width="3" stroke-linecap="round" stroke-linejoin="round"/></svg>