<svg width="1676" height="857" viewBox="0 0 1676 857" fill="none" xmlns="http://www.w3.org/2000/svg"><path d="M1118.01 169.397L1137.65 180.796" stroke="#003B2F" stroke-width="3" stroke-linecap="round" stroke-linejoin="round"/><path d="M1157.29 169.397L1145.72 176.136" stroke="#003B2F" stroke-width="3" stroke-linecap="round" stroke-linejoin="round"/><path d="M1137.65 180.796V203.761" stroke="#003B2F" stroke-width="3" stroke-linecap="round" stroke-linejoin="round"/><path d="M190.268 676.121H350.19" stroke="#003B2F" stroke-width="3" stroke-linecap="round" stroke-linejoin="round"/><path d="M148.582 676.121H162.394" stroke="#003B2F" stroke-width="3" stroke-linecap="round" stroke-linejoin="round"/><path d="M269.397 632.105H411.763" stroke="#03FC9D" stroke-width="3" stroke-linecap="round" stroke-linejoin="round"/><path d="M377.149 247.943H336.711C349.525 247.943 359.925 238.541 359.925 226.892C359.925 215.243 349.525 205.841 336.711 205.841H220.555C207.742 205.841 197.341 215.243 197.341 226.892H161.729C148.915 226.892 138.514 236.294 138.514 247.943C138.514 259.592 148.915 268.994 161.729 268.994H237.862C237.862 280.643 248.263 290.045 261.077 290.045H377.232C390.046 290.045 400.447 280.643 400.447 268.994C400.447 257.345 390.046 247.943 377.232 247.943H377.149Z" fill="#E6E8EA"/><path d="M1208.79 587.839H1308.47C1319.46 587.839 1328.36 596.742 1328.36 607.726C1328.36 618.709 1319.46 627.612 1308.47 627.612H1208.79C1197.81 627.612 1188.91 618.709 1188.91 607.726C1188.91 596.742 1197.81 587.839 1208.79 587.839Z" fill="#E6E8EA"/><path d="M1338.76 563.959H1503.67C1521.81 563.959 1536.54 578.687 1536.54 596.826C1536.54 614.965 1521.81 629.692 1503.67 629.692H1338.76C1320.54 629.692 1305.89 614.965 1305.89 596.826C1305.89 578.687 1320.62 563.959 1338.76 563.959Z" fill="#E6E8EA"/><path d="M1270.86 593.164H1454.33C1474.55 593.164 1490.94 609.556 1490.94 629.775C1490.94 649.994 1474.55 666.386 1454.33 666.386H1270.86C1250.64 666.386 1234.25 649.994 1234.25 629.775C1234.25 609.556 1250.64 593.164 1270.86 593.164Z" fill="#E6E8EA"/><path d="M1189.99 464.611H1219.03" stroke="#003B2F" stroke-width="3" stroke-linecap="round" stroke-linejoin="round"/><path d="M1295.49 432.827H1437.28" stroke="#03FC9D" stroke-width="3" stroke-linecap="round" stroke-linejoin="round"/><path d="M1256.47 464.445H1373.79" stroke="#003B2F" stroke-width="3" stroke-linecap="round" stroke-linejoin="round"/><path d="M443.63 328.653L451.618 345.627" stroke="#003B2F" stroke-width="3" stroke-linecap="round" stroke-linejoin="round"/><path d="M457.442 358.108L465.429 375.082" stroke="#003B2F" stroke-width="3" stroke-linecap="round" stroke-linejoin="round"/><path d="M431.316 362.767L448.373 354.78" stroke="#003B2F" stroke-width="3" stroke-linecap="round" stroke-linejoin="round"/><path d="M460.771 348.955L477.828 340.968" stroke="#003B2F" stroke-width="3" stroke-linecap="round" stroke-linejoin="round"/><path d="M1300.32 294.122C1346.91 321.996 1407.24 306.77 1435.11 260.174C1462.99 213.579 1447.76 153.255 1401.16 125.381C1354.57 97.5068 1294.25 112.733 1266.37 159.329C1238.5 205.924 1253.72 266.248 1300.32 294.122Z" fill="#03FC9D"/><path d="M1346.75 259.758C1344.59 260.84 1342.34 261.922 1340.18 263.087C1338.34 264.002 1336.51 264.917 1334.6 265.749C1334.43 265.749 1334.27 265.916 1334.1 265.916C1332.44 266.415 1330.77 266.831 1329.11 267.33C1325.86 268.245 1322.54 268.079 1319.29 267.164C1318.96 267.081 1318.62 266.997 1318.29 266.831C1317.46 266.831 1316.71 266.498 1316.05 266.165C1312.88 264.501 1310.14 262.338 1307.81 259.675C1303.31 254.6 1300.15 248.858 1297.82 242.618C1297.16 240.787 1295.91 239.623 1294.41 238.624C1290.92 236.378 1287.84 233.715 1285.59 230.137C1282.1 224.729 1281.85 219.071 1284.26 213.246C1285.43 210.334 1287.17 207.671 1289.34 205.342C1292 202.429 1294.58 199.517 1297.16 196.522C1298.66 194.691 1300.57 193.36 1302.4 191.862C1305.64 189.117 1308.89 186.454 1312.22 183.791C1312.63 183.459 1312.88 183.043 1312.97 182.543C1314.13 178.633 1315.46 174.805 1317.13 171.144C1318.38 168.232 1319.79 165.486 1321.62 162.907C1322.04 162.574 1322.37 162.158 1322.62 161.659C1323.2 161.326 1323.62 160.743 1324.03 160.244C1325.03 159.246 1326.03 158.414 1327.44 157.998C1329.36 157.498 1331.02 157.998 1332.44 159.162C1334.1 160.494 1335.1 162.241 1335.85 164.238C1336.93 167.317 1337.51 170.562 1337.76 173.89C1337.93 175.72 1337.93 177.634 1337.93 179.465C1337.93 179.797 1337.93 180.047 1338.43 180.047C1339.76 180.214 1341.09 180.297 1342.42 180.546C1342.92 180.546 1343 180.38 1343.17 180.047C1344.17 178.383 1345.17 176.636 1346.17 174.972C1346.33 174.722 1346.42 174.389 1346.75 174.306C1346.91 174.805 1346.58 175.138 1346.42 175.471C1345.58 176.885 1344.75 178.217 1344 179.548C1343.59 180.297 1343.59 180.297 1344.42 180.463C1345.08 180.546 1345.67 180.546 1346.33 180.713C1347.08 180.879 1347.5 180.546 1347.75 179.881C1348.5 177.717 1349.33 175.637 1350.16 173.64C1351.16 171.227 1352.32 168.898 1353.65 166.651C1354.9 164.571 1356.23 162.491 1358.23 160.91C1358.65 160.66 1359.06 160.327 1359.48 159.994C1359.65 159.911 1359.81 159.828 1359.98 159.745H1360.06C1360.31 159.745 1360.48 159.745 1360.64 159.662C1361.81 159.162 1362.72 159.745 1363.47 160.494C1363.89 160.91 1364.22 161.492 1364.47 161.991C1365.22 163.489 1365.55 165.153 1365.8 166.817C1366.55 172.226 1366.3 177.551 1365.8 182.959C1365.8 183.625 1365.72 184.374 1365.64 185.039C1365.64 185.455 1365.64 185.622 1366.14 185.705C1367.22 185.955 1368.22 186.288 1369.13 186.787C1369.8 187.203 1370.38 187.785 1370.88 188.368C1373.37 191.862 1375.45 195.607 1376.95 199.684C1377.62 201.348 1378.2 203.095 1378.62 204.842C1379.61 209.169 1380.2 213.496 1380.03 217.989C1379.95 221.567 1379.53 225.062 1378.78 228.556C1378.37 230.387 1377.95 232.134 1377.2 233.798C1376.87 233.715 1376.7 233.382 1376.54 233.049C1375.54 231.136 1373.87 229.887 1371.96 228.889C1366.39 226.06 1360.31 225.145 1354.24 224.645C1347.83 224.229 1341.42 223.73 1335.02 223.564C1333.02 223.564 1331.77 222.316 1330.86 220.652C1329.19 217.573 1327.36 214.661 1325.2 211.915C1323.45 209.668 1321.45 207.588 1318.96 206.091C1316.21 204.426 1313.55 204.593 1310.97 206.59C1308.89 208.171 1307.64 210.334 1306.81 212.747C1305.48 216.824 1305.48 220.901 1305.98 225.145C1306.56 229.804 1308.97 233.382 1311.72 236.877C1314.88 240.954 1318.79 244.282 1322.95 247.277C1326.45 249.774 1330.36 251.687 1334.02 253.768C1337.76 255.931 1341.84 257.345 1345.83 259.01C1346.17 259.176 1346.58 259.176 1346.67 259.592L1346.75 259.758Z" fill="#6B807A"/><path d="M1346.75 259.758C1343.25 258.427 1339.93 256.929 1336.51 255.432C1335.1 254.849 1333.77 254.017 1332.35 253.185C1329.78 251.687 1327.03 250.356 1324.53 248.692C1318.13 244.532 1312.63 239.539 1308.64 232.966C1308.47 232.717 1308.31 232.467 1308.14 232.134C1306.89 230.054 1306.06 227.891 1305.73 225.394C1305.4 222.649 1305.06 219.82 1305.48 217.074C1305.9 214.245 1306.56 211.582 1308.14 209.169C1308.97 207.921 1310.06 206.839 1311.3 206.007C1313.72 204.343 1316.21 204.343 1318.79 205.675C1320.71 206.756 1322.29 208.171 1323.7 209.752C1326.7 212.997 1329.03 216.741 1331.11 220.568C1331.77 221.817 1332.69 222.649 1334.02 223.065C1334.27 223.065 1334.6 223.148 1334.85 223.231C1340.34 223.397 1345.92 223.897 1351.41 224.146C1355.32 224.313 1359.15 224.729 1362.97 225.561C1365.47 226.06 1367.97 226.809 1370.38 227.807C1371.88 228.473 1373.29 229.222 1374.62 230.22C1375.79 231.136 1376.62 232.301 1377.12 233.632C1377.62 236.211 1377.12 238.707 1376.12 241.12C1374.37 245.447 1371.38 248.942 1367.97 252.104C1367.05 252.936 1366.14 253.851 1365.22 254.683C1361.64 257.928 1357.57 260.008 1352.66 260.258C1350.66 260.341 1348.75 260.008 1346.83 259.592L1346.75 259.758Z" fill="white"/><path d="M1321.79 162.99C1319.29 166.651 1317.46 170.728 1315.88 174.805C1314.88 177.468 1313.88 180.213 1313.05 182.959C1312.88 183.459 1312.63 183.708 1312.3 183.958C1308.72 186.953 1305.15 189.949 1301.48 192.861C1299.07 194.775 1296.99 197.104 1294.91 199.434C1293.08 201.514 1291.25 203.594 1289.34 205.674C1286.34 209.086 1284.01 212.997 1283.18 217.49C1282.43 221.567 1283.1 225.394 1285.09 228.972C1286.67 231.718 1288.75 233.965 1291.25 236.045C1293 237.459 1294.91 238.707 1296.74 239.872C1297.07 240.122 1297.32 240.371 1297.41 240.787C1299.07 245.447 1301.15 249.857 1303.9 254.017C1305.73 256.846 1307.89 259.509 1310.39 261.839C1312.72 264.002 1315.38 265.749 1318.37 266.831C1318.29 266.831 1318.21 266.997 1318.04 266.997C1312.63 268.329 1307.39 268.162 1302.23 265.916C1298.74 264.418 1295.83 262.171 1293.25 259.426C1289.09 255.016 1286.17 249.857 1284.01 244.282C1283.76 243.7 1283.51 243.367 1283.01 243.034C1280.02 241.037 1277.6 238.624 1275.94 235.462C1273.78 231.302 1273.61 226.975 1274.86 222.482C1275.61 219.653 1277.02 217.157 1278.6 214.661C1281.68 209.835 1285.43 205.591 1289.42 201.514C1293.58 197.271 1298.07 193.277 1302.73 189.533C1303.06 189.2 1303.4 188.867 1303.56 188.451C1305.98 183.875 1308.56 179.381 1311.39 174.972C1314.05 170.894 1316.88 166.901 1320.37 163.489C1320.87 162.99 1321.37 162.574 1321.87 162.158C1322.2 162.491 1321.87 162.657 1321.62 162.907L1321.79 162.99Z" fill="#00261E"/><path d="M1398.59 203.095C1398.59 203.095 1398.42 203.012 1398.34 202.929C1397.09 202.097 1397.01 201.182 1398.09 200.183C1399.33 199.018 1400.92 198.352 1402.5 197.687C1408.07 195.607 1413.81 194.691 1419.72 194.525C1420.47 194.525 1421.13 194.525 1421.8 194.775C1423.21 195.107 1424.13 196.023 1424.46 197.437C1424.88 198.852 1424.88 200.266 1424.55 201.764C1424.3 202.929 1423.55 203.761 1422.47 204.26C1421.63 204.593 1420.72 204.759 1419.8 204.843C1415.48 205.259 1411.23 205.342 1406.91 204.926C1404.41 204.676 1402 204.427 1399.58 203.511C1399.25 203.345 1398.92 203.178 1398.59 203.095Z" fill="white"/><path d="M1393.26 161.908C1390.93 165.736 1388.93 168.731 1386.44 171.394C1385.52 172.392 1384.52 173.391 1383.36 174.14C1381.53 175.221 1380.45 174.722 1380.2 172.559C1380.03 171.144 1380.2 169.73 1380.45 168.315C1381.03 164.987 1382.11 161.742 1383.44 158.58C1384.44 156.167 1385.6 153.754 1387.02 151.508C1387.35 150.925 1387.77 150.509 1388.27 150.01C1389.35 149.011 1390.6 148.762 1391.93 149.261C1393.26 149.677 1394.42 150.426 1395.42 151.341C1396.34 152.256 1396.59 153.338 1396.42 154.669C1396.26 155.585 1395.92 156.5 1395.42 157.332C1394.51 159.079 1393.68 160.827 1393.09 161.742L1393.26 161.908Z" fill="white"/><path d="M1395.09 181.878C1396.59 179.381 1398.5 177.218 1400.58 175.221C1403.08 172.725 1405.83 170.478 1408.82 168.481C1409.57 167.982 1410.32 167.566 1411.23 167.4C1412.48 167.15 1413.56 167.4 1414.56 168.315C1415.31 168.981 1415.81 169.813 1416.31 170.645C1417.56 172.725 1417.31 174.306 1415.56 176.136C1414.64 177.052 1413.56 177.801 1412.56 178.549C1409.07 181.046 1405.41 183.375 1401.5 185.206C1400 185.872 1398.5 186.454 1396.92 186.787C1396.34 186.953 1395.67 187.036 1395.09 186.953C1394.01 186.787 1393.59 186.204 1393.68 185.206C1393.68 184.54 1394.01 183.875 1394.34 183.292C1394.59 182.793 1394.84 182.377 1395.17 181.961L1395.09 181.878Z" fill="white"/><path d="M1358.23 160.993C1356.4 162.74 1354.9 164.737 1353.65 166.901C1351.99 169.73 1350.66 172.725 1349.41 175.804C1348.74 177.468 1348.16 179.049 1347.58 180.713C1347.41 181.046 1347.33 181.295 1346.83 181.212C1345.58 181.046 1344.25 180.879 1342.84 180.713C1344.09 178.549 1345.33 176.469 1346.58 174.389C1347.83 172.475 1349.08 170.562 1350.41 168.731C1352.41 165.985 1354.57 163.406 1357.15 161.243C1357.4 160.993 1357.73 160.826 1358.06 160.577C1358.23 160.577 1358.31 160.743 1358.06 160.826L1358.23 160.993Z" fill="#00261E"/><path d="M1381.94 181.961C1380.78 183.875 1378.45 184.457 1376.54 183.292C1374.62 182.127 1374.04 179.714 1375.12 177.801C1376.2 175.97 1378.7 175.304 1380.61 176.469C1382.53 177.634 1383.11 179.964 1381.94 181.961Z" fill="white"/><path d="M1388.19 200.516C1389.35 198.602 1391.76 198.02 1393.68 199.184C1395.67 200.432 1396.01 202.845 1395.01 204.593C1393.93 206.507 1391.43 207.089 1389.52 206.007C1387.6 204.842 1387.02 202.513 1388.19 200.599V200.516Z" fill="white"/><path d="M1392.43 191.696C1391.26 193.61 1388.85 194.275 1387.02 193.11C1385.27 192.029 1384.36 189.699 1385.6 187.619C1386.85 185.455 1389.27 185.289 1391.01 186.204C1392.93 187.286 1393.59 189.948 1392.43 191.613V191.696Z" fill="white"/><path d="M1358.23 160.993C1358.23 160.993 1358.23 160.826 1358.23 160.743C1358.56 160.41 1358.9 160.244 1359.31 160.078C1359.4 160.078 1359.48 160.078 1359.48 160.161C1359.15 160.494 1358.81 160.826 1358.31 160.993H1358.23Z" fill="#00261E"/><path d="M1359.39 160.078C1359.39 160.078 1359.31 160.078 1359.23 159.994C1359.39 159.828 1359.56 159.745 1359.73 159.828C1359.73 159.994 1359.56 160.078 1359.39 160.078Z" fill="#03FC9D"/><path d="M1359.81 159.745C1359.81 159.745 1359.81 159.911 1359.73 159.911C1359.73 159.911 1359.73 159.828 1359.81 159.745Z" fill="#03FC9D"/><path d="M1320.62 186.287C1319.46 185.622 1319.21 185.123 1319.54 183.874C1320.54 180.213 1321.54 176.636 1322.95 173.141C1323.53 171.726 1324.28 170.312 1325.2 168.981C1325.61 168.232 1326.28 167.732 1326.95 167.233C1327.69 166.651 1328.61 166.484 1329.53 166.484C1330.52 166.484 1331.27 167.067 1331.77 167.899C1332.35 168.814 1332.69 169.813 1332.94 170.894C1333.35 172.808 1333.35 174.722 1333.52 176.636C1333.69 178.716 1333.77 180.796 1334.02 182.876C1334.18 184.457 1333.35 185.455 1332.02 186.204C1330.69 186.953 1329.28 187.203 1327.78 187.286C1325.7 187.452 1323.62 187.369 1321.62 186.703C1321.45 186.703 1321.29 186.62 1321.2 186.537C1321.04 186.537 1320.87 186.371 1320.71 186.287H1320.62Z" fill="white"/><path d="M1355.15 185.705C1352.82 184.457 1352.57 181.961 1353.49 179.964C1354.15 178.466 1354.99 176.968 1355.73 175.471C1356.65 173.64 1357.56 171.81 1358.48 169.979C1358.9 169.147 1359.48 168.398 1360.06 167.649C1360.98 166.485 1361.89 167.15 1362.39 167.982C1362.81 168.731 1362.97 169.563 1363.06 170.478C1363.14 171.976 1363.14 173.391 1363.06 174.888C1362.89 177.468 1362.56 180.047 1362.56 182.626C1362.56 183.209 1362.47 183.791 1362.31 184.374C1361.81 185.955 1360.56 186.87 1358.98 186.787C1357.65 186.787 1356.4 186.454 1355.23 185.788L1355.15 185.705Z" fill="white"/><path d="M1328.69 201.598C1330.52 199.018 1332.94 197.52 1336.18 197.354C1336.76 197.354 1337.26 197.354 1337.84 197.52C1339.59 198.02 1340.51 199.601 1340.01 201.348C1339.76 202.43 1339.18 203.345 1338.43 204.094C1336.68 205.841 1334.68 206.923 1332.19 207.089C1331.19 207.089 1330.27 207.089 1329.36 206.507C1328.36 205.924 1327.94 205.009 1327.94 203.927C1327.94 203.095 1328.28 202.346 1328.69 201.598Z" fill="white"/><path d="M1366.47 211.166C1365.22 210.5 1364.22 209.585 1363.47 208.42C1361.97 206.257 1362.64 204.426 1365.22 203.761C1369.13 202.679 1372.71 204.842 1373.62 208.67C1373.71 209.252 1373.79 209.752 1373.71 210.334C1373.54 211.499 1373.04 212.081 1371.88 212.414C1371.04 212.664 1370.21 212.581 1369.38 212.414C1368.3 212.164 1367.3 211.832 1366.47 211.249V211.166Z" fill="white"/><path d="M1362.06 219.819C1363.06 220.402 1363.89 221.068 1364.56 221.983C1365.05 222.648 1365.39 223.397 1365.05 224.229C1364.64 225.061 1363.81 225.228 1362.97 225.228C1360.81 225.228 1358.98 224.479 1357.32 223.148C1356.57 222.648 1355.98 221.983 1355.49 221.234C1355.24 220.735 1355.07 220.319 1355.15 219.736C1355.15 219.237 1355.4 219.154 1355.82 219.32C1356.48 219.57 1357.15 219.903 1357.9 219.986C1358.81 220.069 1359.73 220.152 1360.31 219.237C1360.48 218.987 1360.64 219.071 1360.89 219.237C1361.31 219.487 1361.73 219.653 1362.14 219.903L1362.06 219.819Z" fill="#00261E"/><path d="M1341.51 213.579C1342.5 214.162 1343.42 214.827 1344 215.826C1344.42 216.491 1344.83 217.157 1344.42 217.989C1344 218.821 1343.25 218.988 1342.5 218.988C1340.34 218.988 1338.51 218.239 1336.76 216.991C1336.01 216.408 1335.27 215.743 1334.85 214.91C1334.6 214.411 1334.43 213.912 1334.6 213.33C1334.6 213.08 1334.85 212.914 1335.1 213.08C1335.6 213.33 1336.18 213.579 1336.76 213.662C1337.26 213.746 1337.76 213.829 1338.34 213.829C1338.84 213.829 1339.34 213.662 1339.59 213.163C1339.84 212.747 1340.01 212.83 1340.34 212.997C1340.76 213.163 1341.09 213.413 1341.51 213.579Z" fill="#00261E"/><path d="M1368.38 230.054C1369.46 230.636 1370.38 231.302 1371.13 232.134C1372.04 233.132 1372.21 234.214 1371.54 235.545C1370.46 237.459 1369.13 239.04 1367.3 240.371C1366.05 241.287 1364.72 242.035 1363.31 242.701C1361.97 243.367 1360.56 243.2 1359.48 242.119C1357.56 240.288 1355.9 238.208 1354.65 235.878C1354.15 234.88 1353.65 233.881 1353.49 232.8C1353.15 230.553 1354.07 228.972 1356.15 228.14C1356.82 227.89 1357.56 227.724 1358.31 227.641C1360.89 227.474 1363.47 227.724 1365.89 228.806C1366.8 229.222 1367.72 229.555 1368.38 230.054Z" fill="#00261E"/><path d="M282.877 532.091C319.571 522.439 341.371 484.914 331.719 448.22C322.067 411.526 284.541 389.726 247.847 399.378C211.153 409.03 189.353 446.556 199.005 483.249C208.657 519.943 246.183 541.743 282.877 532.091Z" fill="#03FC9D"/><path d="M288.451 492.153C287.952 493.817 287.453 495.398 286.87 497.062C286.454 498.393 286.038 499.808 285.539 501.139C285.539 501.222 285.456 501.388 285.373 501.472C284.79 502.553 284.208 503.552 283.625 504.633C282.46 506.714 280.796 508.295 278.716 509.459C278.55 509.543 278.3 509.709 278.134 509.792C277.801 510.208 277.218 510.458 276.719 510.624C274.389 511.373 271.893 511.706 269.397 511.54C264.738 511.29 260.244 510.042 256.001 508.211C254.753 507.629 253.588 507.712 252.34 507.962C249.511 508.627 246.682 508.794 243.77 508.211C239.36 507.296 236.448 504.717 234.7 500.64C233.868 498.643 233.369 496.479 233.202 494.316C233.036 491.57 232.87 488.824 232.62 486.079C232.454 484.414 232.703 482.834 232.87 481.169C233.119 478.257 233.369 475.262 233.619 472.35C233.619 472.017 233.619 471.684 233.369 471.351C232.038 468.855 230.79 466.359 229.708 463.696C228.876 461.699 228.21 459.619 227.794 457.456C227.794 457.123 227.794 456.707 227.628 456.374C227.711 455.875 227.628 455.459 227.628 454.96C227.628 453.961 227.628 453.046 228.21 452.131C228.876 450.966 229.957 450.383 231.206 450.217C232.703 450.05 234.035 450.383 235.366 450.966C237.446 451.964 239.36 453.212 241.107 454.71C242.106 455.542 243.104 456.457 243.936 457.373C244.102 457.539 244.269 457.622 244.435 457.373C245.184 456.79 245.85 456.208 246.599 455.625C246.848 455.459 246.765 455.209 246.765 455.043C246.432 453.711 246.099 452.38 245.683 451.049C245.683 450.882 245.517 450.633 245.683 450.466C246.016 450.633 246.016 450.966 246.099 451.215C246.432 452.297 246.682 453.379 246.931 454.46C247.098 455.043 247.098 455.043 247.597 454.71C247.93 454.46 248.263 454.127 248.679 453.878C249.095 453.545 249.178 453.212 248.928 452.796C248.18 451.382 247.597 449.967 246.931 448.553C246.183 446.889 245.6 445.141 245.101 443.394C244.685 441.73 244.269 440.066 244.435 438.318C244.435 437.986 244.518 437.653 244.602 437.237C244.602 437.153 244.602 436.987 244.685 436.904C244.685 436.904 244.685 436.904 244.685 436.821C244.768 436.737 244.851 436.571 244.935 436.488C245.267 435.656 246.016 435.489 246.765 435.489C247.181 435.489 247.597 435.573 248.013 435.739C249.178 436.155 250.093 436.737 251.092 437.486C254.17 439.733 256.75 442.479 259.163 445.391C259.496 445.724 259.828 446.14 260.161 446.473C260.328 446.722 260.494 446.722 260.744 446.473C261.409 446.056 261.992 445.724 262.741 445.557C263.323 445.391 263.822 445.391 264.405 445.474C267.4 445.89 270.229 446.722 273.058 447.97C274.223 448.469 275.388 449.052 276.47 449.634C279.132 451.215 281.545 453.129 283.708 455.292C285.456 457.04 287.037 459.037 288.368 461.117C289.034 462.198 289.699 463.28 290.199 464.445C289.949 464.611 289.699 464.445 289.533 464.445C288.035 464.029 286.621 464.195 285.289 464.695C281.129 466.109 277.718 468.689 274.556 471.518C271.228 474.513 267.899 477.508 264.654 480.587C263.656 481.585 262.408 481.585 261.16 481.253C258.83 480.587 256.5 480.088 254.087 479.838C252.09 479.589 250.093 479.588 248.18 480.088C246.016 480.67 244.768 482.085 244.518 484.331C244.269 486.162 244.768 487.826 245.517 489.407C246.848 492.069 248.928 494.066 251.341 495.814C253.921 497.811 256.916 498.31 259.995 498.726C263.573 499.142 267.151 498.809 270.645 498.227C273.641 497.727 276.47 496.646 279.299 495.897C282.211 495.065 284.957 493.734 287.702 492.569C287.952 492.485 288.118 492.236 288.451 492.402V492.153Z" fill="#6B807A"/><path d="M288.452 492.153C286.122 493.234 283.709 494.15 281.296 495.148C280.297 495.564 279.216 495.814 278.134 496.146C276.137 496.729 274.14 497.395 272.06 497.894C266.901 499.059 261.659 499.308 256.417 498.143C256.168 498.143 256.001 498.06 255.752 497.977C254.088 497.561 252.59 496.979 251.259 495.897C249.678 494.732 248.18 493.484 246.932 491.986C245.684 490.405 244.768 488.741 244.269 486.827C244.02 485.829 244.02 484.747 244.269 483.666C244.602 481.669 245.85 480.421 247.764 479.838C249.178 479.422 250.676 479.339 252.257 479.422C255.336 479.505 258.331 480.171 261.243 481.003C262.159 481.253 263.074 481.253 263.906 480.753C264.072 480.67 264.239 480.504 264.405 480.421C267.151 477.758 270.146 475.262 272.975 472.599C274.972 470.769 277.052 469.021 279.299 467.524C280.797 466.525 282.378 465.61 284.042 464.944C285.123 464.528 286.205 464.195 287.287 464.029C288.285 463.946 289.284 464.029 290.282 464.445C291.78 465.443 292.778 466.941 293.527 468.605C294.858 471.601 295.191 474.763 295.025 478.008C295.025 478.923 295.025 479.755 295.025 480.67C294.942 484.082 293.943 487.077 291.697 489.656C290.781 490.738 289.7 491.487 288.535 492.236L288.452 492.153Z" fill="white"/><path d="M227.877 457.372C228.543 460.368 229.625 463.28 230.873 466.109C231.705 467.94 232.62 469.77 233.619 471.517C233.785 471.85 233.785 472.1 233.785 472.35C233.535 475.595 233.286 478.84 232.953 482.085C232.703 484.248 232.953 486.411 233.036 488.575C233.203 490.488 233.286 492.485 233.452 494.399C233.702 497.561 234.534 500.64 236.364 503.302C238.028 505.632 240.275 507.213 243.021 507.962C245.184 508.544 247.348 508.544 249.511 508.378C251.092 508.211 252.59 507.878 254.087 507.546C254.42 507.546 254.586 507.546 254.919 507.629C258.081 509.043 261.326 510.208 264.654 510.874C266.984 511.373 269.314 511.623 271.727 511.456C273.973 511.29 276.137 510.874 278.134 509.875C278.134 509.875 278.134 510.042 278.134 510.125C276.22 513.453 273.557 516.033 269.896 517.53C267.483 518.529 264.904 518.862 262.241 518.862C257.998 518.778 254.004 517.78 250.177 516.033C249.761 515.866 249.428 515.866 249.095 515.949C246.682 516.449 244.269 516.449 241.856 515.783C238.694 514.868 236.448 512.788 234.867 509.959C233.868 508.211 233.286 506.298 232.786 504.301C231.871 500.39 231.622 496.479 231.538 492.485C231.538 488.325 231.622 484.165 232.038 480.004C232.038 479.672 232.038 479.339 231.954 479.089C230.873 475.678 229.874 472.183 229.042 468.605C228.293 465.277 227.711 461.949 227.711 458.454C227.711 457.955 227.711 457.539 227.711 457.04C228.044 457.04 227.961 457.289 227.961 457.539L227.877 457.372Z" fill="#00261E"/><path d="M285.372 438.568C285.372 438.568 285.289 438.568 285.206 438.568C284.208 438.818 283.708 438.402 283.708 437.32C283.708 436.072 284.124 434.99 284.624 433.908C286.288 430.081 288.618 426.753 291.447 423.757C291.779 423.425 292.195 423.092 292.611 422.842C293.443 422.343 294.359 422.26 295.274 422.842C296.189 423.341 296.938 424.007 297.437 424.922C297.853 425.588 297.937 426.42 297.687 427.169C297.437 427.751 297.105 428.334 296.688 428.833C294.775 431.163 292.778 433.326 290.448 435.323C289.117 436.488 287.785 437.57 286.205 438.235C285.955 438.318 285.705 438.402 285.456 438.485L285.372 438.568Z" fill="white"/><path d="M262.243 421.095C262.991 424.173 263.491 426.586 263.657 429.166C263.657 430.164 263.657 431.079 263.491 432.078C263.158 433.492 262.326 433.825 261.161 432.91C260.412 432.244 259.746 431.495 259.164 430.747C257.75 428.833 256.668 426.669 255.753 424.506C255.004 422.842 254.421 421.095 254.005 419.264C253.922 418.848 253.839 418.349 253.922 417.933C253.922 416.934 254.421 416.186 255.337 415.686C256.169 415.27 257.167 415.021 258.082 414.937C258.998 414.937 259.663 415.353 260.246 416.019C260.662 416.602 260.911 417.184 261.078 417.766C261.494 419.098 261.993 420.346 262.159 421.095H262.243Z" fill="white"/><path d="M273.059 429.914C272.56 427.917 272.393 425.921 272.393 423.924C272.393 421.427 272.56 418.931 273.059 416.518C273.142 415.936 273.392 415.27 273.725 414.771C274.224 414.022 274.89 413.606 275.805 413.523C276.471 413.523 277.136 413.606 277.802 413.772C279.466 414.188 280.132 415.104 280.132 416.768C280.132 417.683 279.965 418.598 279.882 419.43C279.466 422.426 278.8 425.338 277.802 428.25C277.386 429.332 276.97 430.33 276.387 431.329C276.138 431.662 275.888 432.078 275.555 432.327C274.973 432.743 274.474 432.743 273.974 432.161C273.642 431.828 273.475 431.329 273.309 430.913C273.225 430.58 273.142 430.247 273.059 429.831V429.914Z" fill="white"/><path d="M244.685 438.152C244.685 439.899 244.935 441.646 245.434 443.311C246.016 445.557 246.848 447.637 247.764 449.717C248.263 450.799 248.762 451.881 249.344 453.046C249.428 453.295 249.511 453.462 249.344 453.628C248.679 454.211 247.93 454.71 247.181 455.375C246.682 453.711 246.266 452.047 245.85 450.466C245.517 448.885 245.184 447.388 244.935 445.807C244.602 443.477 244.269 441.147 244.519 438.734C244.519 438.485 244.519 438.235 244.602 437.985C244.685 437.985 244.768 437.985 244.768 438.069L244.685 438.152Z" fill="#00261E"/><path d="M266.734 436.571C267.15 438.069 266.235 439.483 264.82 439.899C263.323 440.315 261.825 439.4 261.409 437.902C260.993 436.404 261.908 434.907 263.406 434.491C264.903 434.075 266.401 434.99 266.734 436.488V436.571Z" fill="white"/><path d="M279.049 442.479C278.633 440.981 279.549 439.483 281.046 439.067C282.627 438.651 284.042 439.65 284.374 441.064C284.791 442.562 283.875 444.059 282.378 444.476C280.88 444.892 279.382 443.976 278.966 442.479H279.049Z" fill="white"/><path d="M276.719 436.072C277.135 437.57 276.303 439.067 274.806 439.483C273.391 439.816 271.81 439.15 271.394 437.486C270.978 435.822 271.977 434.491 273.308 434.158C274.806 433.742 276.386 434.741 276.719 436.072Z" fill="white"/><path d="M244.685 438.152C244.685 438.152 244.602 438.152 244.519 438.069C244.519 437.736 244.602 437.486 244.685 437.237C244.685 437.237 244.685 437.237 244.852 437.237C244.852 437.569 244.852 437.902 244.685 438.235V438.152Z" fill="#00261E"/><path d="M244.768 437.153C244.768 437.153 244.685 437.153 244.602 437.153C244.602 436.987 244.602 436.904 244.768 436.821C244.768 436.904 244.768 436.987 244.768 437.07V437.153Z" fill="#03FC9D"/><path d="M244.769 436.737C244.769 436.737 244.852 436.737 244.769 436.904C244.769 436.904 244.769 436.821 244.769 436.737Z" fill="#03FC9D"/><path d="M238.945 469.271C238.113 469.52 237.697 469.437 237.198 468.605C235.866 466.359 234.535 464.029 233.537 461.616C233.121 460.617 232.788 459.536 232.538 458.537C232.372 457.955 232.455 457.372 232.538 456.79C232.538 456.124 232.954 455.625 233.453 455.126C233.953 454.627 234.618 454.543 235.201 454.71C235.95 454.876 236.615 455.209 237.281 455.625C238.446 456.291 239.444 457.289 240.443 458.121C241.524 459.037 242.606 460.035 243.771 460.95C244.603 461.616 244.769 462.614 244.437 463.613C244.187 464.611 243.605 465.443 242.939 466.275C242.024 467.357 240.942 468.439 239.611 469.104C239.528 469.104 239.444 469.188 239.361 469.271C239.278 469.271 239.111 469.271 239.028 469.354L238.945 469.271Z" fill="white"/><path d="M255.503 451.798C253.756 452.38 252.424 451.298 251.842 449.801C251.426 448.719 251.093 447.554 250.677 446.472C250.178 445.141 249.762 443.81 249.263 442.395C249.013 441.73 248.93 441.064 248.847 440.482C248.763 439.483 249.429 439.317 250.178 439.483C250.76 439.65 251.259 439.982 251.759 440.398C252.508 441.064 253.256 441.813 254.005 442.562C255.17 443.893 256.335 445.308 257.583 446.556C257.833 446.805 258.082 447.138 258.332 447.554C258.914 448.553 258.748 449.634 257.916 450.466C257.25 451.132 256.501 451.631 255.586 451.881L255.503 451.798Z" fill="white"/><path d="M250.509 472.766C250.093 470.602 250.509 468.688 252.007 466.941C252.257 466.691 252.589 466.442 252.922 466.192C254.087 465.527 255.252 465.859 255.918 466.941C256.334 467.607 256.5 468.356 256.5 469.104C256.5 470.852 256.084 472.349 254.919 473.681C254.503 474.18 253.921 474.596 253.255 474.762C252.506 474.929 251.841 474.762 251.258 474.18C250.842 473.764 250.592 473.265 250.426 472.682L250.509 472.766Z" fill="white"/><path d="M273.724 458.537C272.726 458.787 271.811 458.87 270.895 458.704C269.065 458.371 268.482 457.123 269.398 455.542C270.729 453.046 273.641 452.297 275.971 453.795C276.304 453.961 276.637 454.211 276.803 454.543C277.302 455.209 277.302 455.792 276.969 456.457C276.637 456.956 276.22 457.372 275.721 457.705C275.056 458.121 274.39 458.454 273.724 458.537Z" fill="white"/><path d="M275.971 465.027C276.72 464.861 277.469 464.694 278.218 464.861C278.8 464.944 279.299 465.11 279.549 465.693C279.799 466.275 279.466 466.775 279.05 467.191C278.051 468.272 276.72 468.772 275.222 469.021C274.64 469.104 273.974 469.104 273.392 469.021C273.059 468.938 272.726 468.772 272.476 468.439C272.31 468.189 272.31 468.023 272.643 467.94C273.142 467.69 273.558 467.523 273.974 467.191C274.473 466.775 274.889 466.359 274.723 465.61C274.723 465.443 274.806 465.36 274.973 465.277C275.305 465.194 275.555 465.11 275.888 465.027H275.971Z" fill="#00261E"/><path d="M262.823 472.183C263.572 472.017 264.404 471.85 265.153 472.017C265.652 472.1 266.235 472.266 266.401 472.849C266.651 473.431 266.401 473.93 265.985 474.263C264.987 475.345 263.655 475.927 262.241 476.177C261.575 476.26 260.909 476.343 260.244 476.177C259.828 476.094 259.495 475.844 259.329 475.511C259.245 475.345 259.245 475.179 259.495 475.095C259.911 474.929 260.244 474.763 260.577 474.596C260.909 474.43 261.159 474.18 261.409 473.93C261.658 473.681 261.825 473.348 261.742 473.015C261.742 472.682 261.742 472.599 261.991 472.516C262.241 472.433 262.574 472.35 262.823 472.266V472.183Z" fill="#00261E"/><path d="M284.124 466.858C284.956 466.608 285.705 466.442 286.537 466.525C287.453 466.525 288.118 467.024 288.451 467.94C288.867 469.437 289.034 470.852 288.784 472.349C288.617 473.431 288.368 474.43 288.035 475.428C287.702 476.427 286.953 477.009 285.872 477.092C284.041 477.092 282.211 477.009 280.38 476.51C279.631 476.343 278.882 476.011 278.3 475.594C277.052 474.679 276.636 473.431 277.301 472.017C277.468 471.517 277.801 471.101 278.134 470.685C279.298 469.271 280.713 468.189 282.377 467.523C283.043 467.274 283.625 467.024 284.208 466.858H284.124Z" fill="#00261E"/><path d="M400.446 182.793C421.164 177.301 433.562 156.084 428.071 135.366C422.579 114.647 401.361 102.25 380.643 107.741C359.925 113.233 347.527 134.45 353.019 155.169C358.51 175.887 379.728 188.285 400.446 182.793Z" fill="#03FC9D"/><path d="M403.525 160.161C403.192 161.076 402.943 161.992 402.61 162.907C402.36 163.656 402.111 164.488 401.861 165.237C401.861 165.237 401.861 165.403 401.778 165.403C401.445 165.985 401.112 166.568 400.779 167.15C400.114 168.315 399.198 169.231 398.033 169.896C397.95 169.896 397.784 170.063 397.701 170.063C397.451 170.312 397.201 170.395 396.869 170.479C395.537 170.895 394.123 171.061 392.708 170.978C390.046 170.811 387.549 170.146 385.137 169.064C384.388 168.731 383.805 168.814 383.056 168.981C381.475 169.397 379.811 169.48 378.23 169.147C375.734 168.648 374.07 167.15 373.072 164.821C372.572 163.656 372.323 162.491 372.24 161.243C372.156 159.662 371.99 158.164 371.907 156.583C371.907 155.668 371.907 154.753 371.99 153.837C372.156 152.173 372.24 150.509 372.406 148.845C372.406 148.679 372.406 148.429 372.24 148.263C371.491 146.848 370.742 145.434 370.159 143.936C369.66 142.771 369.327 141.606 369.078 140.358C369.078 140.192 369.078 139.942 369.078 139.776C369.078 139.526 369.078 139.276 369.078 138.944C369.078 138.361 369.078 137.862 369.411 137.363C369.827 136.697 370.409 136.364 371.158 136.281C371.99 136.198 372.739 136.364 373.488 136.697C374.653 137.279 375.734 137.945 376.733 138.777C377.315 139.276 377.814 139.776 378.314 140.275C378.397 140.358 378.48 140.441 378.646 140.275C379.062 139.942 379.479 139.609 379.895 139.276C380.061 139.193 379.978 139.027 379.895 138.944C379.728 138.195 379.479 137.446 379.312 136.697C379.312 136.614 379.229 136.447 379.312 136.364C379.479 136.447 379.479 136.614 379.562 136.78C379.728 137.363 379.895 138.028 380.061 138.611C380.144 138.944 380.144 138.944 380.477 138.777C380.643 138.611 380.893 138.444 381.059 138.278C381.309 138.111 381.309 137.945 381.226 137.695C380.81 136.947 380.477 136.115 380.144 135.282C379.728 134.367 379.395 133.369 379.146 132.37C378.896 131.455 378.646 130.457 378.813 129.541C378.813 129.375 378.813 129.125 378.896 128.959V128.792C378.896 128.792 378.979 128.626 379.062 128.626C379.229 128.127 379.645 128.044 380.061 128.044C380.311 128.044 380.56 128.044 380.81 128.21C381.475 128.46 381.975 128.792 382.557 129.208C384.304 130.457 385.719 132.037 387.133 133.618C387.3 133.868 387.466 134.034 387.716 134.284C387.799 134.45 387.882 134.45 388.049 134.284C388.382 134.034 388.798 133.868 389.214 133.785C389.546 133.702 389.796 133.702 390.129 133.785C391.793 134.034 393.457 134.45 395.038 135.199C395.704 135.449 396.369 135.782 396.952 136.198C398.449 137.113 399.864 138.195 401.029 139.443C402.027 140.441 402.859 141.523 403.691 142.688C404.107 143.27 404.44 143.936 404.773 144.602C404.607 144.602 404.524 144.602 404.357 144.602C403.525 144.352 402.693 144.518 401.944 144.768C399.614 145.6 397.701 147.015 395.87 148.595C393.956 150.26 392.126 152.007 390.212 153.754C389.63 154.337 388.964 154.337 388.215 154.087C386.884 153.671 385.553 153.421 384.221 153.255C383.056 153.172 381.975 153.089 380.893 153.421C379.645 153.754 378.979 154.586 378.813 155.834C378.646 156.833 378.896 157.831 379.395 158.747C380.144 160.244 381.309 161.409 382.64 162.408C384.138 163.489 385.802 163.822 387.549 164.072C389.546 164.321 391.627 164.072 393.624 163.739C395.288 163.406 396.869 162.824 398.533 162.408C400.197 161.908 401.694 161.16 403.275 160.494C403.442 160.494 403.525 160.327 403.691 160.494L403.525 160.161Z" fill="#6B807A"/><path d="M403.525 160.161C402.194 160.827 400.863 161.326 399.448 161.908C398.866 162.158 398.283 162.324 397.701 162.491C396.536 162.824 395.454 163.24 394.289 163.489C391.377 164.155 388.382 164.321 385.469 163.656C385.386 163.656 385.22 163.656 385.137 163.572C384.221 163.323 383.389 162.99 382.557 162.408C381.642 161.742 380.81 161.076 380.144 160.161C379.479 159.246 378.896 158.33 378.647 157.249C378.48 156.666 378.48 156.084 378.647 155.501C378.813 154.337 379.562 153.671 380.643 153.338C381.476 153.088 382.308 153.088 383.14 153.088C384.887 153.088 386.551 153.505 388.215 154.004C388.714 154.17 389.214 154.17 389.713 153.837C389.796 153.837 389.879 153.754 389.963 153.671C391.543 152.173 393.208 150.759 394.788 149.261C395.953 148.179 397.118 147.264 398.366 146.349C399.198 145.766 400.114 145.267 401.029 144.851C401.611 144.601 402.277 144.435 402.859 144.352C403.442 144.352 404.024 144.352 404.524 144.601C405.356 145.184 405.938 146.016 406.354 146.931C407.103 148.595 407.269 150.426 407.186 152.256C407.186 152.756 407.186 153.255 407.186 153.754C407.186 155.668 406.604 157.415 405.272 158.83C404.773 159.412 404.108 159.828 403.442 160.244L403.525 160.161Z" fill="white"/><path d="M369.327 140.441C369.66 142.188 370.326 143.769 371.074 145.35C371.574 146.349 372.073 147.43 372.655 148.429C372.739 148.595 372.739 148.762 372.655 148.928C372.489 150.759 372.406 152.589 372.156 154.42C371.99 155.668 372.156 156.833 372.156 158.081C372.239 159.162 372.323 160.244 372.406 161.409C372.572 163.24 372.988 164.904 374.07 166.401C374.985 167.733 376.233 168.648 377.814 169.064C379.062 169.397 380.227 169.397 381.475 169.314C382.39 169.23 383.223 168.981 384.055 168.814C384.221 168.814 384.387 168.814 384.471 168.814C386.218 169.646 388.048 170.229 389.962 170.645C391.294 170.894 392.625 171.061 393.956 170.978C395.204 170.978 396.452 170.645 397.534 170.062C397.534 170.062 397.534 170.146 397.534 170.229C396.452 172.143 394.955 173.557 392.874 174.389C391.46 174.972 390.045 175.138 388.548 175.138C386.135 175.138 383.888 174.472 381.725 173.557C381.475 173.474 381.309 173.474 381.059 173.557C379.645 173.89 378.313 173.89 376.982 173.474C375.235 172.891 373.903 171.81 372.988 170.229C372.406 169.23 372.073 168.149 371.823 167.067C371.324 164.904 371.158 162.657 371.074 160.411C371.074 158.081 371.074 155.668 371.324 153.338C371.324 153.172 371.324 153.005 371.324 152.839C370.658 150.925 370.159 148.928 369.66 146.931C369.244 145.017 368.911 143.187 368.911 141.19C368.911 140.94 368.911 140.691 368.911 140.358C369.078 140.358 369.078 140.524 369.078 140.608L369.327 140.441Z" fill="#00261E"/><path d="M401.862 129.874C401.862 129.874 401.862 129.874 401.778 129.874C401.196 130.04 400.946 129.791 400.946 129.208C400.946 128.543 401.196 127.877 401.446 127.295C402.361 125.131 403.692 123.301 405.273 121.553C405.439 121.387 405.689 121.137 405.939 121.054C406.438 120.721 406.937 120.721 407.436 121.054C407.936 121.304 408.352 121.72 408.684 122.219C408.934 122.635 409.017 123.051 408.768 123.55C408.601 123.883 408.435 124.216 408.185 124.466C407.104 125.797 405.939 127.045 404.691 128.127C403.942 128.792 403.193 129.375 402.278 129.791C402.111 129.791 402.028 129.874 401.862 129.957V129.874Z" fill="white"/><path d="M388.715 119.972C389.131 121.72 389.464 123.051 389.547 124.549C389.547 125.131 389.547 125.63 389.464 126.213C389.297 127.045 388.798 127.211 388.132 126.629C387.716 126.296 387.383 125.88 387.051 125.381C386.302 124.299 385.636 123.051 385.137 121.803C384.721 120.804 384.388 119.889 384.138 118.808C384.138 118.558 384.138 118.308 384.138 118.059C384.138 117.476 384.471 117.06 384.97 116.811C385.47 116.561 385.969 116.395 386.551 116.395C387.051 116.395 387.467 116.644 387.799 117.06C388.049 117.393 388.216 117.726 388.299 118.059C388.548 118.808 388.798 119.556 388.881 119.972H388.715Z" fill="white"/><path d="M394.872 124.965C394.623 123.883 394.539 122.718 394.539 121.553C394.539 120.139 394.623 118.724 394.955 117.393C394.955 117.06 395.122 116.727 395.288 116.395C395.538 115.979 395.954 115.729 396.453 115.729C396.869 115.729 397.202 115.729 397.618 115.895C398.533 116.145 398.949 116.644 398.949 117.643C398.949 118.142 398.949 118.641 398.783 119.14C398.533 120.805 398.2 122.469 397.618 124.133C397.368 124.715 397.119 125.298 396.786 125.88C396.619 126.047 396.536 126.296 396.287 126.463C395.954 126.712 395.704 126.712 395.371 126.379C395.205 126.13 395.122 125.963 395.039 125.714C395.039 125.547 394.955 125.298 394.872 125.131V124.965Z" fill="white"/><path d="M378.813 129.624C378.813 130.623 378.979 131.621 379.229 132.537C379.562 133.785 380.061 135.033 380.56 136.198C380.81 136.863 381.143 137.446 381.475 138.028C381.475 138.195 381.559 138.278 381.475 138.361C381.059 138.694 380.643 139.027 380.227 139.359C379.978 138.361 379.728 137.446 379.479 136.53C379.312 135.615 379.063 134.783 378.979 133.868C378.73 132.537 378.646 131.205 378.73 129.874C378.73 129.708 378.73 129.624 378.73 129.458H378.813V129.624Z" fill="#00261E"/><path d="M391.294 128.709C391.543 129.541 391.044 130.373 390.212 130.623C389.38 130.872 388.465 130.373 388.298 129.541C388.049 128.709 388.631 127.877 389.463 127.627C390.295 127.378 391.127 127.877 391.377 128.792L391.294 128.709Z" fill="white"/><path d="M398.282 132.037C398.033 131.205 398.532 130.29 399.447 130.124C400.362 129.874 401.111 130.457 401.361 131.205C401.61 132.037 401.111 132.953 400.279 133.119C399.447 133.369 398.615 132.87 398.365 132.037H398.282Z" fill="white"/><path d="M396.951 128.459C397.201 129.292 396.702 130.207 395.87 130.373C395.121 130.54 394.206 130.207 393.956 129.292C393.706 128.376 394.289 127.627 395.038 127.378C395.87 127.128 396.785 127.711 396.951 128.459Z" fill="white"/><path d="M378.812 129.624C378.812 129.624 378.812 129.624 378.729 129.624C378.729 129.458 378.729 129.291 378.812 129.125C378.812 129.291 378.812 129.541 378.812 129.707V129.624Z" fill="#00261E"/><path d="M378.895 129.042C378.895 129.042 378.895 128.875 378.979 128.875C378.979 128.875 378.979 128.959 378.979 129.042H378.895Z" fill="#03FC9D"/><path d="M375.566 147.264C375.067 147.43 374.818 147.264 374.568 146.931C373.819 145.683 373.07 144.352 372.488 143.021C372.238 142.438 372.072 141.856 371.905 141.273C371.905 140.94 371.905 140.608 371.905 140.275C371.905 139.859 372.155 139.609 372.405 139.359C372.654 139.027 373.07 139.027 373.403 139.11C373.819 139.11 374.235 139.359 374.568 139.609C375.234 140.025 375.733 140.524 376.315 141.024C376.981 141.523 377.563 142.105 378.229 142.605C378.728 143.021 378.811 143.52 378.645 144.102C378.479 144.685 378.146 145.184 377.813 145.6C377.314 146.266 376.731 146.848 375.983 147.181C375.983 147.181 375.899 147.181 375.816 147.181C375.816 147.181 375.65 147.181 375.566 147.181V147.264Z" fill="white"/><path d="M384.97 137.363C383.971 137.695 383.222 137.03 382.89 136.281C382.64 135.698 382.474 135.033 382.224 134.367C381.974 133.618 381.725 132.869 381.392 132.037C381.225 131.705 381.225 131.288 381.142 130.956C381.142 130.373 381.475 130.29 381.891 130.373C382.224 130.373 382.474 130.623 382.723 130.872C383.139 131.288 383.555 131.621 383.971 132.121C384.637 132.869 385.303 133.701 386.051 134.367C386.218 134.534 386.384 134.7 386.467 134.95C386.8 135.532 386.717 136.114 386.218 136.614C385.802 136.946 385.386 137.279 384.886 137.363H384.97Z" fill="white"/><path d="M382.141 149.178C381.891 147.93 382.141 146.848 382.973 145.933C383.139 145.766 383.305 145.6 383.472 145.517C384.138 145.184 384.803 145.35 385.136 145.933C385.386 146.265 385.469 146.682 385.469 147.181C385.469 148.179 385.219 149.011 384.637 149.76C384.387 150.093 384.054 150.259 383.721 150.426C383.305 150.509 382.889 150.426 382.557 150.093C382.307 149.843 382.224 149.594 382.141 149.261V149.178Z" fill="white"/><path d="M395.288 141.19C394.706 141.356 394.207 141.356 393.707 141.273C392.709 141.107 392.376 140.441 392.875 139.526C393.624 138.111 395.288 137.695 396.62 138.527C396.786 138.61 396.952 138.777 397.119 138.943C397.368 139.276 397.452 139.609 397.119 140.025C396.952 140.358 396.703 140.524 396.453 140.691C396.12 140.94 395.704 141.107 395.288 141.19Z" fill="white"/><path d="M396.452 144.768C396.868 144.685 397.284 144.601 397.784 144.685C398.116 144.685 398.449 144.851 398.532 145.184C398.616 145.517 398.532 145.766 398.283 146.016C397.7 146.598 396.952 146.931 396.12 147.098C395.787 147.098 395.454 147.098 395.038 147.098C394.871 147.098 394.622 146.931 394.539 146.765C394.455 146.598 394.455 146.515 394.539 146.432C394.788 146.349 395.038 146.182 395.287 146.016C395.537 145.766 395.787 145.517 395.703 145.101C395.703 145.018 395.703 144.934 395.87 144.934C396.036 144.934 396.203 144.851 396.369 144.768H396.452Z" fill="#00261E"/><path d="M389.047 148.845C389.463 148.762 389.962 148.678 390.378 148.762C390.711 148.762 390.96 148.928 391.127 149.261C391.21 149.594 391.127 149.843 390.877 150.093C390.295 150.675 389.546 151.008 388.714 151.175C388.381 151.175 387.965 151.175 387.632 151.175C387.382 151.175 387.216 151.008 387.133 150.842C387.133 150.759 387.133 150.675 387.133 150.592C387.382 150.509 387.549 150.426 387.715 150.259C387.882 150.176 388.048 150.01 388.214 149.843C388.298 149.677 388.464 149.511 388.381 149.344C388.381 149.178 388.381 149.095 388.547 149.095C388.714 149.095 388.88 149.011 389.047 148.928V148.845Z" fill="#00261E"/><path d="M401.112 145.849C401.611 145.683 402.027 145.6 402.443 145.683C402.942 145.683 403.359 145.933 403.525 146.515C403.775 147.347 403.858 148.179 403.691 149.011C403.608 149.594 403.442 150.176 403.275 150.759C403.109 151.341 402.61 151.674 402.027 151.674C400.946 151.674 399.947 151.674 398.949 151.341C398.533 151.258 398.117 151.091 397.784 150.842C397.035 150.343 396.868 149.594 397.201 148.762C397.285 148.512 397.451 148.262 397.701 148.013C398.366 147.264 399.115 146.598 400.114 146.182C400.446 146.016 400.862 145.849 401.195 145.849H401.112Z" fill="#00261E"/><path d="M1027.15 766.899H629.096C624.686 766.899 620.359 766.233 616.199 764.902C547.97 743.185 547.637 665.387 567.191 647.914C587.41 629.858 612.787 647.914 612.787 647.914C634.171 612.468 663.293 625.282 663.293 625.282C663.127 610.471 664.375 591.001 670.116 568.952C674.11 553.725 670.283 536.501 675.358 526.017C731.689 540.662 788.102 547.817 821.052 547.651C875.219 547.318 912.911 538.498 921.232 536.418C942.949 531.176 960.671 524.853 973.568 519.777C979.226 531.842 984.884 546.32 989.461 562.961C996.117 587.174 998.53 608.807 999.113 626.114C999.113 626.114 1033.81 611.303 1051.2 647.498C1051.2 647.498 1080.16 629.026 1095.3 647.498C1111.61 667.301 1110.28 701.416 1098.21 723.715C1077.91 761.241 1032.39 766.316 1027.07 766.815L1027.15 766.899Z" fill="#03FC9D"/><path d="M973.569 519.777C965.498 523.688 954.266 530.427 944.946 541.993C910 585.26 947.11 637.929 918.154 678.035C895.356 709.736 847.595 710.818 826.628 711.317C816.892 711.567 748.664 709.653 723.369 671.628C706.645 646.583 713.468 614.964 718.46 587.174C726.448 542.991 720.79 538.082 720.79 538.082C760.479 544.988 772.211 550.397 841.438 546.32C896.021 543.075 941.036 531.093 973.569 519.694V519.777Z" fill="white"/><path d="M606.465 644.419C606.465 644.419 644.074 674.79 636.835 725.462C629.596 776.135 718.127 766.899 718.127 766.899C718.127 766.899 674.693 766.316 651.063 766.899C640.662 767.148 627.932 768.313 616.2 764.902C597.229 759.41 579.589 746.264 569.771 730.288C539.234 680.448 558.372 624.117 606.465 644.419Z" fill="white"/><path d="M1060.27 643.005C1057.69 644.087 1051.7 646.916 1049.62 648.746C1039.88 657.399 1019.75 686.355 1024.91 724.88C1031.73 775.552 951.02 766.898 951.02 766.898C951.02 766.898 971.821 767.065 994.952 766.898C1016.75 766.732 1030.15 769.145 1051.53 761.324C1069.67 755.25 1085.65 743.767 1094.97 729.289C1120.09 690.099 1106.61 623.951 1060.27 643.005Z" fill="white"/><g opacity="0.6"><path d="M764.828 698.983C770.332 697.696 772.953 688.781 770.683 679.071C768.412 669.361 762.11 662.533 756.606 663.82C751.103 665.107 748.481 674.021 750.752 683.731C753.022 693.441 759.324 700.27 764.828 698.983Z" fill="white"/><path d="M755.652 696.257C752.823 693.178 750.66 688.851 749.495 683.942C748.33 679.033 748.33 674.124 749.495 670.213C750.743 665.97 753.156 663.307 756.235 662.558C759.396 661.809 762.725 663.224 765.72 666.469C768.549 669.548 770.713 673.874 771.877 678.783C773.042 683.693 773.042 688.602 771.877 692.512C770.629 696.756 768.216 699.418 765.138 700.167C763.557 700.5 761.976 700.334 760.395 699.751C758.814 699.086 757.15 697.921 755.652 696.34V696.257ZM769.464 679.283C767.384 670.463 761.643 663.89 756.9 664.971C752.158 666.053 749.911 674.457 751.991 683.36C753.572 690.266 757.483 695.757 761.31 697.338C762.392 697.754 763.474 697.921 764.555 697.671C769.298 696.589 771.545 688.186 769.464 679.283Z" fill="white"/></g><path d="M755.986 693.344C753.657 690.932 751.909 687.52 750.994 683.609C750.079 679.699 750.162 675.871 751.16 672.709C752.242 669.298 754.239 667.135 756.902 666.469C759.481 665.887 762.31 666.968 764.806 669.464C767.136 671.877 768.883 675.289 769.799 679.199C770.714 683.11 770.631 686.938 769.632 690.099C768.55 693.511 766.553 695.674 763.891 696.34C762.56 696.673 761.145 696.506 759.731 696.007C758.399 695.508 757.151 694.593 755.986 693.344ZM757.484 668.965C753.74 669.797 751.992 676.287 753.573 683.027C754.405 686.438 755.903 689.517 757.9 691.514C759.731 693.428 761.644 694.26 763.308 693.844C764.973 693.428 766.387 691.847 767.136 689.351C767.968 686.605 768.051 683.193 767.219 679.782C766.387 676.37 764.889 673.292 762.892 671.295C761.977 670.296 760.979 669.631 760.063 669.215C759.148 668.882 758.316 668.799 757.484 668.965Z" fill="#00261E"/><g opacity="0.1"><path d="M763.533 695.187C768.008 694.14 770.202 687.162 768.433 679.6C766.665 672.038 761.605 666.755 757.13 667.802C752.655 668.848 750.461 675.826 752.229 683.388C753.997 690.951 759.058 696.233 763.533 695.187Z" fill="#00261E"/><path d="M755.986 693.344C753.656 690.932 751.909 687.52 750.994 683.609C750.078 679.699 750.162 675.871 751.16 672.709C752.242 669.298 754.239 667.135 756.901 666.469C759.481 665.887 762.31 666.968 764.806 669.464C767.136 671.877 768.883 675.289 769.798 679.199C770.714 683.11 770.63 686.938 769.632 690.099C768.55 693.511 766.553 695.674 763.891 696.34C762.559 696.673 761.145 696.506 759.73 696.007C758.399 695.508 757.151 694.593 755.986 693.344ZM757.484 668.965C753.739 669.797 751.992 676.287 753.573 683.027C754.405 686.438 755.903 689.517 757.9 691.514C759.73 693.428 761.644 694.26 763.308 693.844C764.972 693.428 766.387 691.847 767.136 689.351C767.968 686.605 768.051 683.193 767.219 679.782C766.387 676.37 764.889 673.292 762.892 671.295C761.977 670.296 760.978 669.631 760.063 669.215C759.148 668.882 758.316 668.799 757.484 668.965Z" fill="#00261E"/></g><path d="M802.58 663.307C801.914 665.055 800.333 666.635 798.42 667.051C798.253 667.051 797.172 667.301 797.005 666.968C796.672 666.386 799.751 665.138 800.5 662.558C801.165 660.229 799.668 657.899 799.501 657.649C797.088 654.071 791.68 654.321 791.763 653.988C791.763 653.655 797.172 652.657 800.5 655.902C802.164 657.566 803.578 660.561 802.58 663.224V663.307Z" fill="#00261E"/><g opacity="0.25"><path d="M787.438 657.4C786.023 660.811 788.353 664.888 792.513 666.635C796.674 668.299 801.167 666.885 802.498 663.474C803.913 660.062 801.583 655.985 797.423 654.238C793.262 652.574 788.769 653.988 787.438 657.4Z" fill="#00261E"/></g><path d="M1023.58 705.659C1023.58 705.659 1031.15 654.654 1057.19 644.17" stroke="#003B2F" stroke-width="3" stroke-linecap="round" stroke-linejoin="round"/><path d="M610.042 646.167C610.042 646.167 631.592 664.722 635.836 698.919" stroke="#003B2F" stroke-width="3" stroke-linecap="round" stroke-linejoin="round"/><path d="M982.222 651.325C982.222 651.325 982.804 626.197 1011.51 623.368" stroke="#003B2F" stroke-width="3" stroke-linecap="round" stroke-linejoin="round"/><path d="M620.361 705.409C624.438 715.81 621.027 726.793 612.789 729.955C604.552 733.117 594.65 727.293 590.656 716.892C586.579 706.491 589.991 695.508 598.228 692.346C606.466 689.184 616.367 695.009 620.361 705.409Z" fill="#003B2F"/><path d="M594.869 685.294C598.673 683.671 600.091 678.45 598.035 673.631C595.98 668.812 591.23 666.221 587.426 667.844C583.622 669.467 582.204 674.688 584.259 679.507C586.315 684.326 591.065 686.916 594.869 685.294Z" fill="#003B2F"/><path d="M616.739 675.258C617.002 670.9 614.426 667.199 610.986 666.992C607.546 666.784 604.544 670.149 604.281 674.506C604.018 678.864 606.594 682.565 610.034 682.772C613.475 682.98 616.477 679.615 616.739 675.258Z" fill="#003B2F"/><path d="M581.587 684.442C584.249 687.853 584.249 692.429 581.503 694.509C578.758 696.59 574.431 695.508 571.768 692.096C569.106 688.685 569.106 684.109 571.851 682.029C574.597 679.948 578.924 681.03 581.587 684.442Z" fill="#003B2F"/><path d="M1071.8 716.411C1076.81 705.816 1074.1 694.028 1065.75 690.082C1057.4 686.136 1046.57 691.527 1041.56 702.122C1036.55 712.717 1039.27 724.504 1047.62 728.45C1055.97 732.396 1066.8 727.006 1071.8 716.411Z" fill="#003B2F"/><path d="M1081.31 677.649C1083.83 672.743 1082.72 667.15 1078.84 665.157C1074.95 663.165 1069.76 665.527 1067.25 670.433C1064.73 675.339 1065.84 680.932 1069.72 682.925C1073.61 684.918 1078.8 682.556 1081.31 677.649Z" fill="#003B2F"/><path d="M1047.62 670.796C1047.62 675.372 1050.45 679.116 1054.11 679.116C1057.69 679.116 1060.69 675.455 1060.77 670.879C1060.77 666.303 1057.94 662.558 1054.28 662.558C1050.7 662.558 1047.71 666.219 1047.62 670.796Z" fill="#003B2F"/><path d="M1083.73 683.027C1080.65 686.438 1080.41 691.181 1083.07 693.594C1085.73 696.007 1090.39 695.175 1093.47 691.763C1096.55 688.352 1096.8 683.609 1094.13 681.196C1091.47 678.783 1086.81 679.615 1083.73 683.027Z" fill="#003B2F"/><g opacity="0.7"><path d="M825.048 601.184C826.339 597.255 820.663 591.859 812.368 589.132C804.074 586.405 796.303 587.379 795.011 591.308C793.72 595.237 799.396 600.633 807.691 603.36C815.985 606.087 823.756 605.112 825.048 601.184Z" fill="white"/></g><path d="M931.384 539.414C1188.41 495.231 1039.47 250.023 1039.47 250.023C1045.04 225.81 1049.95 192.528 1047.87 153.088C1047.37 144.185 1046.62 135.615 1045.54 127.461C1042.13 100.752 1011.93 86.69 989.378 101.501C984.469 104.663 979.56 108.074 974.568 111.818C952.102 128.293 934.712 145.267 921.732 159.662C902.844 151.591 870.81 140.691 829.873 139.775C786.106 138.86 751.825 149.843 732.355 157.748C720.457 143.936 704.065 127.295 682.182 111.319C673.445 104.912 664.792 99.3373 656.555 94.5114C638.083 83.7778 614.702 95.5931 612.622 116.894C611.291 130.456 610.375 144.934 610.126 160.161C609.46 193.942 611.956 223.98 615.617 249.358C604.052 266.415 587.577 295.204 579.672 334.061C573.931 362.434 563.114 415.853 593.901 465.194C622.939 511.706 671.449 526.683 687.008 530.76C725.532 539.58 774.125 547.068 830.372 547.152C868.231 547.152 902.262 543.907 931.467 539.247L931.384 539.414Z" fill="#03FC9D" stroke="#003B2F" stroke-width="3" stroke-linecap="round" stroke-linejoin="round"/><path d="M1078.16 351.867C1065.93 345.793 1027.98 330.151 985.883 335.143C954.098 338.887 930.301 351.867 915.823 362.018C908.834 366.928 899.265 366.262 893.025 360.438C881.709 349.954 861.656 335.892 833.533 333.812C800.167 331.315 775.205 347.041 761.726 358.524C754.986 364.182 745.251 364.598 738.179 359.356C654.39 296.951 576.759 348.539 576.759 348.539C576.759 348.539 550.133 458.121 640.744 510.458C731.356 562.711 891.278 543.823 891.278 543.823C1003.44 533.09 1056.52 498.726 1075.91 434.907C1085.81 402.456 1085.48 373.251 1078.07 351.951L1078.16 351.867Z" fill="white"/><path d="M931.384 539.413C1188.41 495.231 1039.47 250.023 1039.47 250.023C1045.04 225.81 1049.95 192.528 1047.87 153.088C1047.37 144.185 1046.62 135.615 1045.54 127.461C1042.13 100.752 1011.93 86.69 989.378 101.501C984.469 104.663 979.56 108.074 974.568 111.818C952.102 128.293 934.712 145.267 921.732 159.662C902.844 151.591 870.81 140.691 829.873 139.775C786.106 138.86 751.825 149.843 732.355 157.748C720.457 143.936 704.065 127.295 682.182 111.319C673.445 104.912 664.792 99.3373 656.555 94.5114C638.083 83.7778 614.702 95.5931 612.622 116.894C611.291 130.456 610.375 144.934 610.126 160.161C609.46 193.942 611.956 223.98 615.617 249.358C604.052 266.415 587.577 295.204 579.672 334.061C573.931 362.434 563.114 415.853 593.901 465.194C622.939 511.706 671.449 526.683 687.008 530.76C725.532 539.58 774.125 547.068 830.372 547.152C868.231 547.152 902.262 543.907 931.467 539.247L931.384 539.413Z" stroke="#003B2F" stroke-width="3" stroke-linecap="round" stroke-linejoin="round"/><path d="M654.142 208.836C649.898 214.245 641.328 211.998 640.246 205.175C639.165 198.186 638.249 190.781 637.667 182.959C636.003 161.991 636.835 143.021 638.665 126.879C639.331 121.054 645.904 117.976 650.73 121.221C662.213 128.709 681.1 142.937 696.91 163.406C699.905 167.317 698.657 172.891 694.33 175.221C691.501 176.719 688.589 178.383 685.594 180.214C671.865 188.867 661.63 199.185 654.142 208.753V208.836Z" fill="white"/><path d="M1000.36 213.579C1004.44 219.071 1013.17 216.991 1014.34 210.251C1015.59 203.262 1016.67 195.939 1017.42 188.118C1019.5 167.15 1019.17 148.262 1017.67 132.037C1017.17 126.213 1010.68 122.968 1005.69 126.13C994.037 133.369 974.816 147.181 958.508 167.317C955.429 171.144 956.511 176.802 960.838 179.132C963.667 180.713 966.496 182.377 969.408 184.291C982.887 193.277 992.955 203.761 1000.28 213.496L1000.36 213.579Z" fill="white"/><path d="M614.285 251.355C620.193 242.868 632.258 231.718 636.751 228.723" stroke="#003B2F" stroke-width="3" stroke-linecap="round" stroke-linejoin="round"/><path d="M1027.57 237.542C1031.9 240.704 1038.05 248.942 1041.63 253.019" stroke="#003B2F" stroke-width="3" stroke-linecap="round" stroke-linejoin="round"/><path d="M714.549 170.146C718.543 166.484 728.195 160.66 733.936 157.165" stroke="#003B2F" stroke-width="3" stroke-linecap="round" stroke-linejoin="round"/><path d="M902.762 152.672C905.424 153.338 908.004 154.17 910.5 155.169C915.575 157.082 920.485 159.579 925.061 162.408C929.637 165.32 933.964 168.648 937.791 172.392" stroke="#003B2F" stroke-width="3" stroke-linecap="round" stroke-linejoin="round"/><path d="M814.313 361.769C814.147 363.516 821.719 366.678 829.291 366.678C836.779 366.678 844.268 363.516 844.101 361.769C843.852 359.605 831.204 359.522 829.374 359.522C827.793 359.522 814.563 359.522 814.313 361.769Z" fill="white"/><path d="M775.123 293.873C769.382 286.301 761.394 282.058 752.658 281.808C744.004 281.558 735.767 285.386 729.61 292.625C723.702 299.448 720.374 308.6 720.041 318.335C719.791 328.07 722.62 337.39 728.112 344.545C733.853 352.117 741.841 356.361 750.577 356.61C750.827 356.61 751.077 356.61 751.41 356.61C759.813 356.61 767.718 352.783 773.709 345.793C779.616 338.97 782.945 329.818 783.277 320.083C783.527 310.348 780.698 301.029 775.206 293.873H775.123Z" fill="#003B2F"/><path d="M769.706 310.983C769.92 303.449 765.141 297.202 759.032 297.028C752.922 296.854 747.796 302.82 747.582 310.353C747.367 317.886 752.146 324.134 758.256 324.308C764.365 324.482 769.491 318.516 769.706 310.983Z" fill="white"/><path d="M926.142 294.705C919.985 287.466 911.831 283.555 903.094 283.722C894.441 283.888 886.453 288.132 880.628 295.703C875.137 302.859 872.225 312.095 872.391 321.913C872.557 331.732 875.969 340.801 881.793 347.707C887.784 354.78 895.772 358.69 904.176 358.69C904.342 358.69 904.592 358.69 904.758 358.69C913.412 358.524 921.399 354.28 927.224 346.709C932.715 339.553 935.628 330.317 935.461 320.499C935.212 310.764 931.883 301.611 926.059 294.705H926.142Z" fill="#003B2F"/><path d="M897.179 326.165C903.289 326.027 908.105 319.808 907.935 312.273C907.766 304.739 902.675 298.742 896.565 298.88C890.454 299.018 885.639 305.237 885.808 312.771C885.978 320.306 891.069 326.302 897.179 326.165Z" fill="white"/><path d="M859.993 364.182C857.829 353.448 833.2 352.034 830.371 351.867C821.884 351.451 799.419 352.699 797.089 362.851C796.34 366.012 797.671 370.089 800.833 374.167C806.075 380.989 816.726 388.145 828.291 388.478C828.707 388.478 829.123 388.478 829.539 388.478C841.022 388.312 851.589 381.156 856.581 374.666C859.41 370.922 860.658 367.177 860.076 364.099L859.993 364.182Z" fill="#003B2F"/><path d="M815.228 361.353C815.061 362.934 821.801 365.846 828.707 365.929C835.447 365.929 842.27 363.267 842.103 361.769C841.937 359.772 830.538 359.605 828.874 359.605C827.459 359.605 815.561 359.356 815.311 361.436L815.228 361.353Z" fill="white"/><path d="M830.954 386.564L826.212 387.063C825.546 389.476 822.717 398.296 813.814 404.453C804.162 411.027 794.177 409.945 791.848 409.612C791.848 411.692 791.931 414.605 792.68 417.85C795.925 432.327 809.155 448.303 827.127 449.634C838.693 450.466 847.512 444.975 850.341 442.978C865.901 431.911 866.733 411.11 866.733 411.11C866.733 411.11 839.774 416.185 830.954 386.564Z" fill="#00261E"/><path d="M803.745 438.152C803.745 438.152 815.644 424.922 829.872 425.921C844.1 426.919 853.752 438.069 853.752 438.069C853.752 438.069 833.616 464.029 803.829 438.069L803.745 438.152Z" fill="#03FC9D"/><path d="M999.113 626.197C999.113 626.197 1033.81 611.387 1051.2 647.581C1051.2 647.581 1080.16 629.11 1095.3 647.581C1111.61 667.384 1110.28 701.499 1098.21 723.798C1077.91 761.324 1032.4 766.399 1027.07 766.899H629.013C624.603 766.899 620.276 766.233 616.116 764.902C547.887 743.185 547.554 665.387 567.107 647.914C587.327 629.858 612.704 647.914 612.704 647.914C623.854 629.442 636.834 624.117 646.985 623.202" stroke="#003B2F" stroke-width="3" stroke-linecap="round" stroke-linejoin="round"/><path d="M781.954 255.481C782.127 249.371 767.932 244.011 750.247 243.508C732.562 243.004 718.085 247.549 717.911 253.658C717.737 259.768 731.933 265.128 749.618 265.631C767.302 266.135 781.78 261.59 781.954 255.481Z" fill="white"/><path d="M938.677 257.517C938.851 251.407 924.656 246.047 906.971 245.544C889.286 245.04 874.809 249.585 874.635 255.694C874.461 261.804 888.657 267.164 906.341 267.668C924.026 268.171 938.504 263.626 938.677 257.517Z" fill="white"/><path d="M998.698 616.878C1019.83 603.732 1034.81 590.086 1044.63 580.018C1059.44 564.708 1098.3 524.686 1100.38 469.687C1100.88 455.542 1100.38 442.479 1092.3 429.998C1062.52 384.567 968.411 406.201 1028.49 447.97C1026.66 459.12 1022.16 477.841 1009.6 497.478C995.204 520.027 977.231 532.757 967.163 538.831" fill="#03FC9D"/><path d="M984.802 577.938C986.299 580.85 987.631 583.929 988.879 587.007C990.127 590.086 991.292 593.165 992.457 596.326C993.538 599.488 994.62 602.65 995.619 605.812C996.118 607.393 996.617 608.974 997.033 610.638C997.283 611.47 997.532 612.219 997.699 613.051C997.948 613.883 1000.11 623.119 999.03 625.532" stroke="#003B2F" stroke-width="3" stroke-linecap="round" stroke-linejoin="round"/><path d="M1015.01 436.571C1015.59 435.156 1016.42 433.825 1017.34 432.577C1017.84 431.995 1018.25 431.329 1018.83 430.83C1019.08 430.58 1019.33 430.247 1019.67 429.998L1020.5 429.249C1022.83 427.335 1025.57 426.087 1028.32 425.588C1031.07 425.089 1033.81 425.172 1036.39 425.837" stroke="#003B2F" stroke-width="3" stroke-linecap="round" stroke-linejoin="round"/><path d="M1031.31 449.801C1031.31 449.052 1031.48 448.303 1031.65 447.554C1031.9 446.056 1032.31 444.642 1032.9 443.311C1033.39 441.896 1034.14 440.648 1034.98 439.4C1035.39 438.817 1035.81 438.235 1036.31 437.653C1036.56 437.403 1036.81 437.07 1037.06 436.821L1037.89 436.072C1040.05 434.158 1042.55 432.827 1045.13 432.244C1047.71 431.662 1050.29 431.579 1052.78 432.078" stroke="#003B2F" stroke-width="3" stroke-linecap="round" stroke-linejoin="round"/><path d="M1008.35 419.014C1006.35 425.005 1009.6 430.081 1010.1 430.747C1010.1 430.747 1024.66 462.032 1064.85 454.793" stroke="#003B2F" stroke-width="3" stroke-linecap="round" stroke-linejoin="round"/><path d="M830.954 386.564L826.212 387.063C825.546 389.476 822.717 398.296 813.814 404.453C804.162 411.027 794.177 409.945 791.848 409.612C791.848 411.692 791.931 414.605 792.68 417.85C795.925 432.327 809.155 448.303 827.127 449.634C838.693 450.466 847.512 444.975 850.341 442.978C865.901 431.911 866.733 411.11 866.733 411.11C866.733 411.11 839.774 416.185 830.954 386.564Z" stroke="#003B2F" stroke-width="3" stroke-linecap="round" stroke-linejoin="round"/><path d="M795.343 410.028H794.178H793.595H793.263C793.013 410.028 792.68 410.028 792.347 409.945C791.682 409.862 791.016 409.696 790.35 409.446C787.688 408.697 785.108 407.532 782.695 405.868C781.447 405.036 780.282 404.038 779.117 402.873C777.953 401.708 776.871 400.376 775.706 398.879" stroke="#003B2F" stroke-width="3" stroke-linecap="round" stroke-linejoin="round"/><path d="M881.293 401.791C881.293 401.791 880.627 402.456 880.294 402.789C879.961 403.122 879.629 403.455 879.296 403.705L878.381 404.62L877.465 405.452C876.217 406.533 874.969 407.366 873.804 408.114C871.391 409.612 868.895 410.611 866.316 411.276C865.65 411.443 865.068 411.526 864.402 411.609C864.069 411.609 863.736 411.609 863.57 411.609C863.57 411.609 863.57 411.609 863.487 411.609H863.237H862.655H861.49" stroke="#003B2F" stroke-width="3" stroke-linecap="round" stroke-linejoin="round"/><path fill-rule="evenodd" clip-rule="evenodd" d="M1045.21 441.397C1029.48 436.904 1005.02 456.124 989.545 465.776C939.705 496.978 888.7 530.677 841.938 566.955C809.654 592 767.219 623.035 733.853 644.253C700.072 665.803 634.256 706.741 601.722 727.792C592.653 724.796 587.661 724.63 584.166 731.37C581.17 737.194 599.309 766.482 605.799 765.817C613.371 765.068 615.451 761.074 616.699 751.589C649.815 731.453 715.215 689.933 749.33 668.799C782.945 647.914 829.291 623.202 865.901 604.98C918.82 578.603 971.406 547.235 1021.08 515.866C1036.47 506.131 1064.43 492.402 1067.18 476.343C1068.17 470.602 1065.68 462.698 1061.1 455.708C1056.78 448.553 1050.7 442.895 1045.13 441.314L1045.21 441.397Z" fill="#003B2F"/><path d="M1042.3 452.38C1042.3 452.38 878.214 552.81 825.878 594.995C812.232 605.978 700.986 673.541 700.986 673.541L604.384 735.613C604.384 735.613 594.898 731.203 593.4 732.202C591.57 733.45 592.236 737.943 592.568 739.357C590.571 736.029 589.49 732.202 591.57 730.121C593.317 728.457 603.884 733.533 603.884 733.533L698.24 673.541C698.24 673.541 791.181 613.8 820.303 591.833C947.608 495.73 1033.23 449.135 1033.23 449.135C1035.72 447.554 1039.88 449.801 1042.21 452.463L1042.3 452.38Z" fill="#03FC9D"/><path d="M672.614 528.014C668.37 531.592 640.413 556.138 641.578 596.742C642.327 621.288 653.892 638.845 659.134 645.751C659.134 645.751 691.169 689.018 742.507 689.018C745.835 691.015 757.733 697.422 772.294 694.426C785.94 691.68 801.832 680.697 803.58 663.557C805.327 646.666 792.181 634.768 790.6 633.353C790.6 633.353 756.901 604.065 717.378 588.588" fill="#03FC9D"/><path d="M674.777 527.265C670.534 530.843 640.33 555.472 641.578 596.077C642.327 620.622 653.893 638.179 659.135 645.085C659.135 645.085 691.169 688.352 742.507 688.352C745.835 690.349 757.734 696.756 772.295 693.76C785.94 691.015 801.833 680.032 803.58 662.891C805.327 646 792.181 634.102 790.6 632.687C790.6 632.687 756.902 603.399 717.379 587.923" stroke="#003B2F" stroke-width="3" stroke-linecap="round" stroke-linejoin="round"/><path d="M738.596 685.19C731.523 680.281 726.032 673.042 724.284 664.555C723.619 661.227 723.286 654.986 723.951 651.076C727.196 633.02 747.332 622.619 761.477 622.619C769.299 622.619 779.117 625.864 781.364 626.613C785.857 628.111 789.934 629.276 793.262 631.606C804.911 639.926 810.319 656.234 806.409 667.051C800.75 682.611 787.354 691.431 776.704 694.592C769.049 696.839 760.895 696.173 753.49 693.095L738.596 685.107V685.19Z" fill="white"/><path d="M802.331 672.709C801.749 671.295 801 669.88 800.085 668.632C799.586 667.967 799.17 667.384 798.67 666.802C798.421 666.552 798.171 666.219 797.921 665.97L797.089 665.221C794.843 663.224 792.097 661.893 789.435 661.31C786.689 660.728 783.943 660.728 781.364 661.31" stroke="#003B2F" stroke-width="3" stroke-linecap="round" stroke-linejoin="round"/><path d="M786.356 688.435C786.273 686.937 785.94 685.523 785.607 684.025C785.274 682.611 784.692 681.196 783.943 679.948C783.61 679.283 783.194 678.7 782.778 678.118C782.529 677.785 782.362 677.535 782.112 677.202L781.364 676.37C779.45 674.207 777.037 672.709 774.541 671.794C772.045 670.879 769.465 670.629 766.969 670.796" stroke="#003B2F" stroke-width="3" stroke-linecap="round" stroke-linejoin="round"/><path d="M780.698 624.866C785.191 626.364 790.017 629.359 793.262 631.689C804.911 640.009 810.319 656.318 806.408 667.134C800.834 682.361 787.354 690.599 776.704 694.842C768.467 698.17 749.745 693.428 742.423 688.435L731.44 677.785" stroke="#003B2F" stroke-width="3" stroke-linecap="round" stroke-linejoin="round"/><path d="M718.21 584.178C716.629 588.838 714.133 593.58 710.139 597.242L718.21 584.178Z" fill="#03FC9D"/><path d="M718.21 584.178C716.629 588.838 714.133 593.58 710.139 597.242" stroke="#003B2F" stroke-width="3" stroke-linecap="round" stroke-linejoin="round"/><path d="M1016.42 440.815C1016.42 440.815 1048.87 472.932 1097.46 445.641C1097.46 445.641 1079.32 389.726 1014.01 412.025C1013.01 412.608 1009.76 414.771 1008.35 419.098C1006.35 425.089 1016 440.232 1016.42 440.898V440.815Z" fill="white"/><path d="M1015.01 436.571C1015.59 435.156 1016.42 433.825 1017.34 432.577C1017.84 431.995 1018.25 431.329 1018.83 430.83C1019.08 430.58 1019.33 430.247 1019.67 429.998L1020.5 429.249C1022.83 427.335 1025.57 426.087 1028.32 425.588C1031.07 425.089 1033.81 425.172 1036.39 425.837" stroke="#003B2F" stroke-width="3" stroke-linecap="round" stroke-linejoin="round"/><path d="M1031.31 449.801C1031.31 449.052 1031.48 448.303 1031.65 447.554C1031.9 446.056 1032.31 444.642 1032.9 443.311C1033.39 441.896 1034.14 440.648 1034.98 439.4C1035.39 438.817 1035.81 438.235 1036.31 437.653C1036.56 437.403 1036.81 437.07 1037.06 436.821L1037.89 436.072C1040.05 434.158 1042.55 432.827 1045.13 432.244C1047.71 431.662 1050.29 431.579 1052.78 432.078" stroke="#003B2F" stroke-width="3" stroke-linecap="round" stroke-linejoin="round"/><path d="M1008.35 419.014C1006.35 425.005 1009.6 430.081 1010.1 430.747C1010.1 430.747 1024.66 462.032 1064.85 454.793" stroke="#003B2F" stroke-width="3" stroke-linecap="round" stroke-linejoin="round"/><path d="M998.615 616.878C1019.75 603.732 1033.48 590.918 1043.3 580.767C1058.11 565.457 1096.96 525.435 1099.04 470.436C1099.54 456.291 1099.04 443.227 1090.97 430.747C1061.19 385.316 967.08 406.95 1027.15 448.719" stroke="#003B2F" stroke-width="3" stroke-linecap="round" stroke-linejoin="round"/><path d="M1003.19 515.034C1009.01 512.122 1011.93 504.966 1009.6 498.809C1007.02 492.069 999.279 488.991 992.456 492.319C985.633 495.73 983.303 503.968 986.798 510.208C990.043 516.033 997.282 517.946 1003.19 515.034Z" fill="white"/><path d="M1003.02 508.211C1003.02 508.211 1002.94 508.794 1002.86 509.127C1002.86 509.376 1002.86 509.626 1002.77 509.875C1002.77 510.042 1002.61 510.291 1002.52 510.458C1002.36 510.874 1002.11 511.207 1001.86 511.456C1001.86 511.456 1001.86 511.456 1001.78 511.456C1001.78 511.54 1001.61 511.623 1001.53 511.623C1001.11 511.872 1000.78 511.956 1000.28 512.039C999.446 512.205 998.697 512.122 997.865 512.039C997.615 512.039 997.449 512.039 997.199 512.122C996.7 512.372 996.201 512.455 995.702 512.538C994.869 512.538 994.287 512.205 993.871 511.623C993.621 511.29 993.455 510.957 993.372 510.624C993.205 510.125 993.122 509.709 992.956 509.21C992.873 508.96 992.873 508.627 992.789 508.378C992.789 507.878 992.623 507.296 992.623 506.797C992.623 506.797 992.623 506.714 992.623 506.63C992.29 506.214 991.957 505.798 991.624 505.382C991.375 505.049 991.208 504.717 991.042 504.301V504.134C991.042 504.051 991.042 503.968 991.042 503.885C991.042 503.718 991.042 503.552 991.042 503.385C991.042 503.136 991.292 502.969 991.541 502.886C991.791 502.803 992.04 502.886 992.373 502.886C992.789 502.969 993.205 503.136 993.621 503.385C993.871 503.469 994.037 503.635 994.287 503.801C994.287 503.801 994.287 503.801 994.37 503.801C994.453 503.635 994.62 503.552 994.703 503.385C994.703 503.385 994.703 503.385 994.703 503.302C994.62 503.053 994.453 502.803 994.37 502.636C994.37 502.636 994.37 502.637 994.37 502.553C994.37 502.553 994.37 502.553 994.453 502.636C994.537 502.803 994.62 503.053 994.703 503.219C994.703 503.302 994.703 503.302 994.869 503.219C994.869 503.219 994.953 503.053 995.036 503.053C995.036 503.053 995.036 502.886 995.036 502.803C994.869 502.553 994.703 502.304 994.537 502.054C994.37 501.804 994.121 501.472 994.037 501.139C993.871 500.806 993.788 500.556 993.705 500.224C993.705 500.224 993.705 500.057 993.705 499.974C993.705 499.807 993.871 499.724 994.037 499.724C994.037 499.724 994.204 499.724 994.287 499.724C994.537 499.724 994.703 499.807 994.953 499.974C995.618 500.307 996.201 500.723 996.783 501.139C996.783 501.139 996.95 501.222 997.033 501.305C997.033 501.305 997.033 501.305 997.116 501.305C997.199 501.222 997.366 501.139 997.449 501.056C997.532 501.056 997.615 501.056 997.782 501.056C998.364 501.056 998.863 501.056 999.446 501.222C999.695 501.222 999.862 501.305 1000.11 501.388C1000.61 501.555 1001.11 501.804 1001.61 502.137C1001.94 502.387 1002.27 502.72 1002.61 503.053C1002.77 503.219 1002.94 503.385 1003.02 503.552C1003.02 503.552 1003.02 503.552 1002.94 503.552C1002.69 503.552 1002.44 503.552 1002.19 503.801C1001.53 504.217 1000.94 504.8 1000.44 505.466C999.945 506.131 999.446 506.797 998.947 507.462C998.78 507.712 998.614 507.712 998.364 507.712C997.948 507.712 997.449 507.712 997.033 507.712C996.7 507.712 996.284 507.795 995.951 507.962C995.618 508.128 995.452 508.461 995.452 508.877C995.452 509.21 995.618 509.459 995.785 509.709C996.118 510.125 996.534 510.375 997.033 510.624C997.532 510.874 998.115 510.874 998.614 510.791C999.279 510.791 999.862 510.541 1000.44 510.291C1000.94 510.125 1001.44 509.792 1001.86 509.543C1002.36 509.293 1002.77 508.96 1003.19 508.627C1003.19 508.627 1003.19 508.627 1003.27 508.627L1003.02 508.211Z" fill="#6B807A"/><path d="M1003.02 508.211C1003.02 508.211 1002.27 508.71 1001.86 509.043C1001.69 509.126 1001.53 509.21 1001.36 509.293C1001.03 509.459 1000.69 509.626 1000.36 509.792C999.529 510.208 998.613 510.458 997.615 510.458C997.615 510.458 997.615 510.458 997.532 510.458C997.199 510.458 996.949 510.458 996.7 510.291C996.367 510.125 996.034 510.042 995.784 509.792C995.535 509.542 995.285 509.293 995.119 509.043C995.119 508.877 995.036 508.71 995.036 508.544C995.036 508.211 995.202 507.878 995.535 507.712C995.784 507.546 996.034 507.546 996.284 507.462C996.866 507.379 997.365 507.379 997.948 507.462C998.114 507.462 998.281 507.462 998.447 507.296C998.863 506.713 999.279 506.131 999.695 505.549C1000.03 505.133 1000.28 504.717 1000.69 504.384C1000.94 504.134 1001.19 503.884 1001.44 503.718C1001.61 503.635 1001.78 503.468 1002.02 503.468C1002.19 503.468 1002.36 503.468 1002.52 503.468C1002.86 503.635 1003.02 503.801 1003.19 504.051C1003.52 504.55 1003.61 505.049 1003.69 505.632C1003.69 505.798 1003.69 505.965 1003.69 506.131C1003.69 506.713 1003.69 507.296 1003.36 507.795C1003.19 508.045 1003.02 508.211 1002.86 508.378L1003.02 508.211Z" fill="#E6E8EA"/><path d="M991.042 504.467C991.292 504.966 991.624 505.465 991.957 505.965C992.207 506.297 992.457 506.547 992.706 506.797C992.706 506.797 992.706 506.88 992.706 506.963C992.706 507.545 992.873 508.128 992.956 508.71C992.956 509.126 993.122 509.459 993.205 509.792C993.289 510.125 993.372 510.458 993.538 510.79C993.705 511.29 993.954 511.789 994.37 512.205C994.703 512.538 995.202 512.704 995.702 512.704C996.118 512.704 996.45 512.704 996.866 512.538C997.116 512.455 997.366 512.288 997.615 512.205C997.615 512.205 997.698 512.205 997.782 512.205C998.364 512.288 998.947 512.371 999.529 512.371C999.945 512.371 1000.36 512.371 1000.78 512.205C1001.19 512.122 1001.53 511.955 1001.86 511.706C1001.61 512.371 1001.28 512.871 1000.69 513.203C1000.28 513.453 999.862 513.62 999.446 513.703C998.697 513.869 998.031 513.869 997.282 513.703H997.116C996.7 513.869 996.284 513.952 995.868 513.952C995.286 513.952 994.786 513.703 994.453 513.287C994.204 513.037 994.037 512.704 993.871 512.455C993.538 511.872 993.372 511.207 993.205 510.541C993.039 509.792 992.873 509.126 992.789 508.378C992.789 508.378 992.789 508.294 992.789 508.211C992.456 507.629 992.124 507.046 991.874 506.464C991.624 505.881 991.375 505.299 991.208 504.716C991.208 504.633 991.208 504.55 991.208 504.467H991.042Z" fill="#00261E"/><path d="M1000.94 498.726C1000.78 498.726 1000.69 498.726 1000.61 498.559C1000.61 498.31 1000.61 498.06 1000.61 497.894C1000.78 497.062 1001.11 496.396 1001.53 495.647C1001.53 495.564 1001.61 495.481 1001.69 495.397C1001.86 495.231 1002.02 495.231 1002.19 495.314C1002.36 495.314 1002.52 495.481 1002.69 495.647C1002.77 495.73 1002.86 495.897 1002.77 496.063C1002.77 496.229 1002.77 496.313 1002.61 496.396C1002.36 496.895 1002.02 497.394 1001.69 497.894C1001.53 498.143 1001.28 498.393 1001.03 498.642C1001.03 498.642 1001.03 498.642 1000.94 498.642V498.726Z" fill="#03FC9D"/><path d="M996.034 496.23C996.283 496.812 996.45 497.228 996.616 497.727C996.616 497.894 996.616 498.06 996.616 498.31C996.616 498.642 996.45 498.726 996.2 498.559C996.034 498.476 995.867 498.31 995.784 498.226C995.451 497.894 995.201 497.561 994.952 497.145C994.785 496.812 994.536 496.479 994.453 496.146C994.453 496.063 994.453 495.98 994.453 495.897C994.453 495.73 994.453 495.564 994.619 495.397C994.785 495.314 994.952 495.148 995.118 495.148C995.285 495.148 995.451 495.148 995.534 495.314C995.617 495.397 995.701 495.481 995.784 495.647C995.867 495.897 996.034 496.146 996.117 496.313L996.034 496.23Z" fill="#03FC9D"/><path d="M998.446 497.478C998.446 497.478 998.196 496.729 998.113 496.313C998.03 495.814 997.947 495.314 997.947 494.815C997.947 494.649 997.947 494.565 997.947 494.482C997.947 494.316 998.113 494.233 998.28 494.149C998.446 494.149 998.529 494.149 998.696 494.149C999.028 494.149 999.195 494.316 999.278 494.649C999.278 494.815 999.278 494.981 999.278 495.231C999.278 495.814 999.278 496.479 999.195 497.062C999.195 497.311 999.195 497.478 999.028 497.727C999.028 497.727 999.028 497.894 998.945 497.977C998.862 498.06 998.779 498.06 998.612 497.977C998.612 497.977 998.529 497.81 998.446 497.727C998.446 497.727 998.446 497.561 998.363 497.561L998.446 497.478Z" fill="#03FC9D"/><path d="M993.372 500.224C993.372 500.224 993.538 500.889 993.705 501.222C993.871 501.638 994.121 501.971 994.371 502.304C994.537 502.47 994.62 502.637 994.787 502.886C994.787 502.886 994.787 502.886 994.787 502.969C994.703 503.136 994.537 503.219 994.454 503.385C994.287 503.053 994.204 502.803 994.038 502.553C993.871 502.304 993.788 501.971 993.705 501.721C993.538 501.305 993.372 500.889 993.372 500.39C993.372 500.39 993.372 500.307 993.372 500.224Z" fill="#00261E"/><path d="M997.449 499.059C997.449 499.059 997.449 499.641 997.199 499.807C996.95 499.974 996.617 499.807 996.534 499.558C996.45 499.308 996.534 498.975 996.783 498.809C997.033 498.642 997.366 498.809 997.449 499.059Z" fill="#03FC9D"/><path d="M999.944 499.724C999.944 499.724 999.944 499.142 1000.19 498.975C1000.44 498.809 1000.78 498.975 1000.86 499.225C1000.94 499.475 1000.86 499.807 1000.61 499.974C1000.36 500.14 1000.03 499.974 999.944 499.724Z" fill="#03FC9D"/><path d="M999.278 498.559C999.278 498.559 999.278 499.142 999.029 499.308C998.779 499.391 998.446 499.308 998.363 499.058C998.196 498.726 998.363 498.476 998.613 498.31C998.862 498.143 999.195 498.31 999.278 498.559Z" fill="#03FC9D"/><path d="M993.537 506.131C993.537 506.131 993.287 506.131 993.204 506.131C992.871 505.798 992.539 505.382 992.289 505.049C992.206 504.883 992.039 504.717 991.956 504.55C991.956 504.467 991.956 504.384 991.956 504.217C991.956 504.051 991.956 503.968 992.039 503.884C992.039 503.801 992.206 503.718 992.372 503.718C992.539 503.718 992.622 503.718 992.788 503.801C993.038 503.884 993.287 504.051 993.454 504.134C993.703 504.3 993.953 504.384 994.203 504.55C994.369 504.633 994.452 504.8 994.452 504.966C994.452 505.133 994.369 505.299 994.286 505.465C994.119 505.715 994.036 505.965 993.787 506.131H993.537Z" fill="white"/><path d="M995.95 502.304C995.95 502.304 995.368 502.304 995.201 502.054C995.118 501.888 994.952 501.638 994.869 501.472C994.702 501.222 994.619 500.972 994.453 500.723C994.453 500.639 994.369 500.473 994.286 500.39C994.286 500.223 994.286 500.14 994.536 500.14C994.619 500.14 994.785 500.14 994.869 500.223C995.035 500.307 995.201 500.39 995.368 500.556C995.617 500.723 995.867 500.972 996.2 501.139C996.2 501.139 996.283 501.222 996.366 501.305C996.533 501.472 996.533 501.638 996.366 501.888C996.283 502.054 996.117 502.137 995.95 502.22V502.304Z" fill="white"/><path d="M995.784 506.298C995.784 506.298 995.618 505.549 995.784 505.216C995.784 505.216 995.784 505.133 995.951 505.049C996.117 504.883 996.367 504.883 996.533 505.049C996.616 505.133 996.699 505.299 996.699 505.382C996.699 505.715 996.699 505.965 996.616 506.298C996.616 506.381 996.45 506.464 996.367 506.547C996.2 506.547 996.117 506.547 995.951 506.547C995.867 506.547 995.784 506.381 995.784 506.298Z" fill="white"/><path d="M999.446 502.886C999.446 502.886 999.113 503.052 998.947 503.052C998.614 503.052 998.448 502.886 998.531 502.553C998.697 502.054 999.196 501.804 999.696 501.971C999.696 501.971 999.862 501.971 999.862 502.054C999.945 502.137 1000.03 502.22 999.945 502.387C999.945 502.47 999.862 502.553 999.779 502.636C999.696 502.72 999.529 502.803 999.446 502.886Z" fill="white"/><path d="M1000.11 503.968C1000.11 503.968 1000.36 503.885 1000.53 503.885C1000.61 503.885 1000.69 503.885 1000.78 503.968C1000.78 504.051 1000.78 504.134 1000.78 504.217C1000.61 504.467 1000.44 504.633 1000.19 504.717C1000.11 504.717 999.945 504.717 999.862 504.717H999.696C999.696 504.717 999.696 504.717 999.696 504.633C999.696 504.633 999.862 504.55 999.945 504.467C999.945 504.384 1000.11 504.301 1000.03 504.134C1000.03 504.134 1000.11 504.134 1000.19 504.051L1000.11 503.968Z" fill="#00261E"/><path d="M997.949 505.798C997.949 505.798 998.198 505.715 998.365 505.715C998.448 505.715 998.531 505.715 998.614 505.798C998.614 505.881 998.614 505.964 998.614 506.048C998.448 506.297 998.281 506.464 998.032 506.547C997.949 506.547 997.782 506.547 997.699 506.547H997.532C997.532 506.547 997.699 506.547 997.699 506.381C997.699 506.381 997.782 506.297 997.782 506.214C997.782 506.214 997.782 506.131 997.782 506.048C997.782 506.048 997.782 506.048 997.782 505.965C997.782 505.965 997.865 505.965 997.949 505.965V505.798Z" fill="#00261E"/><path d="M1001.61 503.968C1001.61 503.968 1001.86 503.801 1002.03 503.801C1002.19 503.801 1002.36 503.801 1002.44 503.968C1002.52 504.217 1002.61 504.467 1002.61 504.717C1002.61 504.883 1002.61 505.133 1002.61 505.299C1002.61 505.465 1002.44 505.632 1002.27 505.632C1001.94 505.632 1001.61 505.715 1001.28 505.715C1001.11 505.715 1001.03 505.715 1000.86 505.632C1000.61 505.549 1000.53 505.299 1000.61 505.049C1000.61 504.966 1000.61 504.883 1000.69 504.8C1000.86 504.467 1001.11 504.217 1001.36 504.051C1001.44 504.051 1001.61 503.885 1001.69 503.885L1001.61 503.968Z" fill="#00261E"/></svg>