<svg width="1920" height="1081" viewBox="0 0 1920 1081" fill="none" xmlns="http://www.w3.org/2000/svg"><g clip-path="url(#clip0_1375_1554)"><path d="M672.728 740.595C729.472 683.852 729.472 591.853 672.728 535.11C615.985 478.367 523.986 478.367 467.243 535.11C410.5 591.853 410.5 683.852 467.243 740.595C523.986 797.338 615.985 797.338 672.728 740.595Z" fill="#E6E8EA" stroke="#003D2E" stroke-width="3" stroke-linecap="round" stroke-linejoin="round"/><path d="M648.411 716.278C691.724 672.965 691.724 602.74 648.411 559.427C605.098 516.114 534.874 516.114 491.56 559.427C448.247 602.74 448.247 672.965 491.56 716.278C534.874 759.591 605.098 759.591 648.411 716.278Z" fill="white"/><path d="M570.19 770.375C520.42 770.375 472.65 742.245 450.09 694.315C418.96 628.205 447.42 549.085 513.53 517.955C545.55 502.875 581.54 501.165 614.85 513.155C648.16 525.135 674.81 549.375 689.89 581.405C721.02 647.515 692.56 726.635 626.45 757.765C608.26 766.325 589.08 770.385 570.2 770.385L570.19 770.375Z" stroke="#003A2F" stroke-width="4.11" stroke-linecap="round" stroke-linejoin="round"/><path fill-rule="evenodd" clip-rule="evenodd" d="M543.38 573.876C535.02 582.046 529.49 592.376 526.87 603.366L512.01 604.526C511.82 602.856 511.24 601.226 510.21 599.826C507.23 595.786 501.76 595.196 498 598.516C494.26 601.846 493.64 607.826 496.63 611.886C499.62 615.926 505.08 616.516 508.82 613.186C509.85 612.286 510.62 611.166 511.17 609.946L523.86 621.286L491.08 633.496C490.09 631.926 488.71 630.626 487 629.816C482 627.466 476.14 630.016 473.91 635.516C471.68 641.016 473.93 647.386 478.93 649.736C483.92 652.096 489.8 649.536 492.02 644.036C492.63 642.536 492.87 640.966 492.85 639.426L527.41 643.476L519.29 656.396C518.05 655.596 516.61 655.146 515.07 655.186C510.56 655.316 506.94 659.386 506.98 664.316C507.02 669.236 510.7 673.126 515.21 673.006C519.71 672.886 523.33 668.796 523.28 663.876C523.28 662.526 522.97 661.266 522.46 660.136L537.97 656.206C538.15 656.426 538.3 656.676 538.48 656.896C558.08 680.956 592.05 682.796 614.36 661.006C636.67 639.206 638.86 602.026 619.26 577.966C599.66 553.906 565.68 552.066 543.38 573.866V573.876ZM591.44 654.176C588.48 657.066 583.98 656.816 581.38 653.626C578.78 650.436 579.06 645.506 582.03 642.616C584.99 639.716 589.5 639.976 592.1 643.156C594.7 646.336 594.41 651.276 591.45 654.176H591.44ZM610.07 635.976C607.11 638.866 602.61 638.616 600.01 635.426C597.42 632.246 597.7 627.306 600.66 624.416C603.62 621.526 608.13 621.786 610.72 624.966C613.31 628.146 613.04 633.086 610.08 635.976H610.07Z" fill="#003B2F"/><path d="M642.997 923.723C699.741 866.979 699.741 774.981 642.997 718.237C586.254 661.494 494.255 661.494 437.512 718.237C380.769 774.981 380.769 866.979 437.512 923.723C494.255 980.466 586.254 980.466 642.997 923.723Z" fill="#E6E8EA" stroke="#003D2E" stroke-width="3" stroke-linecap="round" stroke-linejoin="round"/><path d="M618.68 899.405C661.993 856.092 661.993 785.868 618.68 742.555C575.367 699.242 505.143 699.242 461.83 742.555C418.516 785.868 418.516 856.092 461.83 899.405C505.143 942.718 575.367 942.718 618.68 899.405Z" fill="white"/><path d="M540.161 691.126C521.301 691.126 502.521 695.286 484.951 703.566C420.201 734.056 392.331 811.536 422.821 876.276C437.591 907.636 463.691 931.376 496.311 943.116C528.931 954.856 564.171 953.176 595.541 938.406C660.291 907.916 688.161 830.436 657.671 765.686C642.901 734.326 616.801 710.586 584.181 698.856C569.831 693.696 554.971 691.126 540.161 691.126Z" stroke="#003A2F" stroke-width="4.11" stroke-linecap="round" stroke-linejoin="round"/><path d="M551.031 719.846L531.761 768.066C526.311 769.836 522.581 773.156 522.621 773.096C524.131 771.126 526.441 769.006 527.601 767.986C527.991 767.646 528.111 767.056 527.871 766.646C524.851 761.436 524.081 756.366 523.901 753.426C523.851 752.516 522.761 752.316 522.251 753.126C519.301 757.906 517.681 764.466 516.951 768.156C516.761 769.126 515.561 769.396 515.221 768.556C513.971 765.476 512.391 760.376 511.551 757.576C511.311 756.786 510.291 756.806 509.891 757.596C504.901 767.606 503.241 779.336 502.711 787.206C502.631 788.446 500.941 788.646 500.891 787.426C500.891 787.366 500.891 787.306 500.891 787.246C500.861 786.346 499.811 786.106 499.281 786.866C494.111 794.276 478.581 819.056 481.371 845.896C481.481 846.926 482.811 846.916 483.131 845.876C484.661 840.946 487.551 832.506 491.161 825.876C491.751 824.796 493.181 825.376 492.781 826.546C489.121 837.226 483.971 857.736 491.831 872.316C500.551 888.466 514.731 898.526 532.891 896.216C552.891 893.666 568.821 880.816 583.741 874.596C584.491 874.286 584.671 873.186 584.031 872.796C581.121 871.016 574.031 867.586 562.311 867.356C561.581 867.346 561.271 866.426 561.781 865.786C563.581 863.506 569.671 860.426 590.101 869.116C590.651 869.346 591.311 868.906 591.421 868.226C592.631 860.376 596.851 821.176 559.961 825.116C555.371 825.606 539.611 831.796 529.641 820.686C529.021 819.996 529.771 818.746 530.661 818.986C534.571 820.076 541.951 820.876 552.651 816.866C558.911 814.526 562.791 814.096 571.451 817.576C578.531 820.426 595.911 803.226 586.071 794.616C577.341 786.966 561.961 784.166 553.301 774.446C551.721 772.676 550.121 771.296 548.511 770.226L554.181 720.276C554.441 717.966 551.911 717.636 551.021 719.866L551.031 719.846ZM547.271 788.846C549.841 792.716 548.941 797.836 545.271 800.286C541.591 802.736 536.521 801.576 533.951 797.716C531.381 793.846 532.271 788.726 535.961 786.276C539.641 783.826 544.711 784.986 547.281 788.846H547.271Z" fill="#003B2F"/><path d="M1405.27 557.06C1405.27 557.06 1374.96 557.06 1393.2 523.91C1343.24 578.85 1141.92 704.84 1141.92 704.84C1130.55 767.36 1184.6 790.64 1184.6 790.64C1278.44 688.88 1440.31 590.22 1440.31 590.22C1440.31 590.22 1385.37 599.69 1405.26 557.07L1405.27 557.06Z" fill="#E6E8EA"/><path d="M1311.06 677.58L1439.55 589.09" stroke="#003A2F" stroke-width="4.11" stroke-linecap="round" stroke-linejoin="round"/><path d="M1394.07 524.96L1313.65 591.27" stroke="#003A2F" stroke-width="4.11" stroke-linecap="round" stroke-linejoin="round"/><path d="M1393.2 523.9C1371.97 550.65 1393.87 558.33 1405.27 557.05C1383.13 598.74 1440.32 590.2 1440.32 590.2C1446.95 533.36 1497.16 510.63 1497.16 510.63V500.21C1466.85 527.68 1393.2 523.89 1393.2 523.89V523.9Z" fill="#03FC9D"/><path d="M1405.27 555.69C1405.72 555.69 1406.15 555.91 1406.4 556.29C1406.68 556.71 1406.72 557.25 1406.48 557.7C1400.97 568.07 1400.07 576.01 1403.81 581.29C1411.11 591.62 1433.96 589.59 1439.09 588.99C1445.73 536.75 1489.3 513.04 1495.79 509.79V503.2C1482.79 513.69 1462.01 520.59 1433.97 523.73C1414.35 525.93 1397.46 525.45 1393.85 525.31C1386.3 535.01 1383.91 543.03 1386.95 548.52C1390.07 554.16 1398.65 556.43 1405.12 555.71C1405.17 555.71 1405.22 555.71 1405.27 555.71V555.69Z" stroke="#003A2F" stroke-width="4.11" stroke-linecap="round" stroke-linejoin="round"/><path d="M1460.79 540.61C1477.2 519.68 1497.16 510.63 1497.16 510.63V500.21C1486.45 509.92 1470.32 515.72 1453.94 519.17C1454.91 527.03 1457.31 534.31 1460.79 540.61Z" fill="#003B2F"/><path d="M1158.81 770.8L1390.87 591.02" stroke="#003A2F" stroke-width="4.11" stroke-linecap="round" stroke-linejoin="round"/><path d="M1378.19 572.86L1142.71 738.5" stroke="#003A2F" stroke-width="4.11" stroke-linecap="round" stroke-linejoin="round"/><path d="M1361.51 396.56C1341.27 295 1430.48 298.09 1440.41 259.68C1495.72 368.74 1397.48 414.33 1361.51 396.56Z" fill="#003B2F"/><path d="M1440.41 259.68C1436.03 276.62 1416.24 285.49 1397.21 298.82C1399.08 300.41 1400.5 302.32 1401.12 304.71C1402.78 311.05 1393.37 334.35 1407.43 334.03C1415.11 333.85 1416.62 321.56 1423.88 319.04C1427.86 317.66 1432.36 319.89 1434.93 323.23C1437.5 326.57 1438.56 330.78 1439.55 334.87C1441.72 343.75 1443.89 352.63 1446.06 361.51C1459.97 338.14 1462.98 304.2 1440.41 259.68Z" fill="#03FC9D"/><path d="M1352.15 377.76C1352.15 377.76 1382.23 380.6 1396.75 405.23C1333.6 471.54 1330.44 604.16 1210.63 713.77C1201.61 572.02 1333.83 476.59 1352.15 377.76Z" fill="#E6E8EA"/><path d="M1349.77 487.47C1349.29 488.65 1301.7 606.12 1267.94 651.15C1267.67 651.51 1267.26 651.7 1266.84 651.7" stroke="#003A2F" stroke-width="4.11" stroke-linecap="round" stroke-linejoin="round"/><path d="M1348.5 486.96C1362.29 454.83 1376.41 426.59 1396.75 405.23C1382.22 380.6 1352.15 377.76 1352.15 377.76C1346.7 407.16 1331.18 436.25 1312.29 466.35C1325.36 470.52 1337.56 477.57 1348.5 486.96Z" fill="#03FC9D"/><path d="M1348.5 488.33C1348.18 488.33 1347.86 488.21 1347.61 488C1336.61 478.56 1324.59 471.72 1311.87 467.66C1311.47 467.53 1311.15 467.22 1311 466.83C1310.86 466.43 1310.9 465.99 1311.13 465.63C1327.51 439.52 1345.04 408.63 1350.8 377.51C1350.93 376.81 1351.58 376.33 1352.27 376.4C1353.53 376.52 1383.21 379.59 1397.92 404.54C1398.23 405.07 1398.15 405.74 1397.73 406.18C1377.98 426.92 1364.26 453.69 1349.75 487.51C1349.58 487.91 1349.23 488.21 1348.8 488.3C1348.7 488.32 1348.59 488.34 1348.49 488.34L1348.5 488.33Z" stroke="#003A2F" stroke-width="4.11" stroke-linecap="round" stroke-linejoin="round"/><path d="M1329.18 461.54C1328.97 461.54 1328.76 461.49 1328.56 461.39C1327.89 461.04 1327.62 460.22 1327.97 459.55L1360.97 395.1C1361.32 394.43 1362.14 394.16 1362.81 394.51C1363.48 394.85 1363.75 395.68 1363.4 396.35L1330.4 460.8C1330.16 461.27 1329.68 461.55 1329.18 461.55V461.54Z" fill="white"/><path d="M1440.7 213.77H1345.7V259.41H1440.7V213.77Z" fill="#03FC9D"/><path d="M1347.07 258.04H1439.33V215.14H1347.07V258.04Z" stroke="#003A2F" stroke-width="4.11" stroke-linecap="round" stroke-linejoin="round"/><path d="M1345.86 213.76V118.76H1300.22V213.76H1345.86Z" fill="#03FC9D"/><path d="M1301.59 212.4H1344.49V120.14H1301.59V212.4Z" stroke="#003A2F" stroke-width="4.11" stroke-linecap="round" stroke-linejoin="round"/><path d="M1205.23 118.76L1300.23 118.76V68.7L1205.23 68.7V118.76Z" fill="#03FC9D"/><path d="M1206.59 117.4H1298.85V70.0698H1206.59V117.39V117.4Z" stroke="#003A2F" stroke-width="4.11" stroke-linecap="round" stroke-linejoin="round"/><path d="M1204.36 118.77H1154.3V168.83H1204.36V118.77Z" fill="#03FC9D"/><path d="M1155.67 167.46H1202.99V120.14H1155.67V167.46Z" stroke="#003A2F" stroke-width="4.11" stroke-linecap="round" stroke-linejoin="round"/><path d="M1154.3 68.71H1104.24V118.77H1154.3V68.71Z" fill="#03FC9D"/><path d="M1105.61 117.4H1152.93V70.0701H1105.61V117.39V117.4Z" stroke="#003A2F" stroke-width="4.11" stroke-linecap="round" stroke-linejoin="round"/><path d="M1104.24 118.77H1054.18V168.83H1104.24V118.77Z" fill="#03FC9D"/><path d="M1055.55 167.46H1102.87V120.14H1055.55V167.46Z" stroke="#003A2F" stroke-width="4.11" stroke-linecap="round" stroke-linejoin="round"/><path d="M1213.78 246.03L577.307 329.598L660.875 966.075L1297.35 882.507L1213.78 246.03Z" fill="#03FC9D"/><path d="M569.53 270.39L510.32 278.17L518.09 337.38L585.07 388.81L644.28 381.04L636.51 321.83L569.53 270.39Z" fill="#03FC9D"/><path d="M1272.99 238.28L1265.22 179.07L1206.01 186.85L1154.57 253.83L1162.35 313.04L1221.56 305.27L1272.99 238.28Z" fill="#03FC9D"/><path d="M895.566 287.824L841.299 246.153L799.629 300.42L853.895 342.09L895.566 287.824Z" fill="#03FC9D"/><path d="M991.49 275.233L937.223 233.563L895.552 287.829L949.819 329.5L991.49 275.233Z" fill="#03FC9D"/><path d="M601.64 973.86L609.41 1033.07L668.62 1025.3L720.06 958.32L712.29 899.11L653.08 906.88L601.64 973.86Z" fill="#03FC9D"/><path d="M1305.1 941.75L1364.31 933.98L1356.54 874.77L1289.56 823.33L1230.35 831.1L1238.12 890.31L1305.1 941.75Z" fill="#03FC9D"/><path d="M979.132 924.317L924.865 882.646L883.195 936.913L937.462 978.584L979.132 924.317Z" fill="#03FC9D"/><path d="M1075.06 911.727L1020.79 870.056L979.119 924.323L1033.39 965.993L1075.06 911.727Z" fill="#03FC9D"/><path d="M644.28 382.41C643.99 382.41 643.7 382.32 643.45 382.13L561.97 319.55C561.37 319.09 561.26 318.23 561.72 317.63C562.18 317.03 563.04 316.92 563.64 317.38L645.12 379.96C645.72 380.42 645.83 381.28 645.37 381.88C645.1 382.23 644.69 382.42 644.28 382.42V382.41Z" stroke="#003A2F" stroke-width="4.11" stroke-linecap="round" stroke-linejoin="round"/><path d="M648.62 979.76L711.2 898.27" stroke="#003A2F" stroke-width="4.11" stroke-linecap="round" stroke-linejoin="round"/><path d="M1231.18 830.02L1312.67 892.6" stroke="#003A2F" stroke-width="4.11" stroke-linecap="round" stroke-linejoin="round"/><path d="M1161.26 312.21L1223.84 230.72" stroke="#003A2F" stroke-width="4.11" stroke-linecap="round" stroke-linejoin="round"/><path d="M848.41 293.04L875.54 313.87C876.14 314.33 876.25 315.19 875.79 315.79L854.96 342.92C854.69 343.27 854.28 343.46 853.87 343.46C853.58 343.46 853.29 343.37 853.04 343.18L798.78 301.51" stroke="#003A2F" stroke-width="4.11" stroke-linecap="round" stroke-linejoin="round"/><path d="M991.12 276.26L949.45 330.52C949.18 330.87 948.77 331.06 948.36 331.06C948.07 331.06 947.78 330.97 947.53 330.78L920.4 309.95C919.8 309.49 919.69 308.63 920.15 308.03L940.98 280.9" stroke="#003A2F" stroke-width="4.11" stroke-linecap="round" stroke-linejoin="round"/><path d="M882.18 936.86L923.85 882.6C924.31 882 925.17 881.89 925.77 882.35L952.9 903.18C953.5 903.64 953.61 904.5 953.15 905.1L932.32 932.23" stroke="#003A2F" stroke-width="4.11" stroke-linecap="round" stroke-linejoin="round"/><path d="M1024.88 920.08L997.75 899.25C997.15 898.79 997.04 897.93 997.5 897.33L1018.33 870.2C1018.79 869.6 1019.65 869.49 1020.25 869.95L1074.51 911.62" stroke="#003A2F" stroke-width="4.11" stroke-linecap="round" stroke-linejoin="round"/><path d="M637.34 320.75L703.48 371.54" stroke="#003A2F" stroke-width="4.11" stroke-linecap="round" stroke-linejoin="round"/><path d="M735.88 307.81L802.02 358.6" stroke="#003A2F" stroke-width="4.11" stroke-linecap="round" stroke-linejoin="round"/><path d="M1075.84 850.41L1141.98 901.2" stroke="#003A2F" stroke-width="4.11" stroke-linecap="round" stroke-linejoin="round"/><path d="M1174.38 837.47L1240.52 888.26" stroke="#003A2F" stroke-width="4.11" stroke-linecap="round" stroke-linejoin="round"/><path d="M720.53 956.52L770.95 890.43" stroke="#003A2F" stroke-width="4.11" stroke-linecap="round" stroke-linejoin="round"/><path d="M818.44 943.67L868.86 877.58" stroke="#003A2F" stroke-width="4.11" stroke-linecap="round" stroke-linejoin="round"/><path d="M1005.16 331.94L1055.58 265.85" stroke="#003A2F" stroke-width="4.11" stroke-linecap="round" stroke-linejoin="round"/><path d="M1103.07 319.09L1153.49 253" stroke="#003A2F" stroke-width="4.11" stroke-linecap="round" stroke-linejoin="round"/><path d="M1169.98 369.31L1220.77 303.17" stroke="#003A2F" stroke-width="4.11" stroke-linecap="round" stroke-linejoin="round"/><path d="M1182.92 467.84L1233.71 401.7C1234.17 401.1 1235.03 400.99 1235.63 401.45" stroke="#003A2F" stroke-width="4.11" stroke-linecap="round" stroke-linejoin="round"/><path d="M640.32 807.81L691.11 741.67" stroke="#003A2F" stroke-width="4.11" stroke-linecap="round" stroke-linejoin="round"/><path d="M653.25 906.35L704.04 840.21" stroke="#003A2F" stroke-width="4.11" stroke-linecap="round" stroke-linejoin="round"/><path d="M587.16 388.03L653.25 438.45" stroke="#003A2F" stroke-width="4.11" stroke-linecap="round" stroke-linejoin="round"/><path d="M600.02 485.93L666.11 536.35" stroke="#003A2F" stroke-width="4.11" stroke-linecap="round" stroke-linejoin="round"/><path d="M1211.75 672.66L1277.84 723.08" stroke="#003A2F" stroke-width="4.11" stroke-linecap="round" stroke-linejoin="round"/><path d="M1224.6 770.56L1290.69 820.98" stroke="#003A2F" stroke-width="4.11" stroke-linecap="round" stroke-linejoin="round"/><path d="M1255.74 565.66L620.46 649.05C620.4 649.05 620.34 649.06 620.28 649.06" stroke="#003A2F" stroke-width="4.11" stroke-linecap="round" stroke-linejoin="round"/><path d="M1162.36 313.015L644.293 381.035L712.314 899.099L1230.38 831.078L1162.36 313.015Z" fill="white"/><path d="M712.28 900.48C711.6 900.48 711.01 899.98 710.92 899.29L642.92 381.23C642.87 380.87 642.97 380.51 643.19 380.22C643.41 379.93 643.74 379.74 644.1 379.7L1162.17 311.7C1162.53 311.65 1162.89 311.75 1163.18 311.97C1163.47 312.19 1163.66 312.52 1163.7 312.88L1231.7 830.94C1231.8 831.69 1231.27 832.38 1230.52 832.48L712.46 900.48C712.4 900.48 712.34 900.49 712.28 900.49V900.48Z" stroke="#003A2F" stroke-width="4.11" stroke-linecap="round" stroke-linejoin="round"/><path d="M685.1 89.8099L685.01 149.4L631.87 133.01L631.97 73.4199L685.1 89.8099Z" fill="#E6E8EA" stroke="#003D2E" stroke-width="3" stroke-linecap="round" stroke-linejoin="round"/><path d="M685.1 89.8098L725.72 66.3198L725.62 125.91L685.01 149.4L685.1 89.8098Z" fill="#E6E8EA" stroke="#003D2E" stroke-width="3" stroke-linecap="round" stroke-linejoin="round"/><path d="M631.97 73.4199L672.58 49.9299L725.72 66.3199L685.1 89.8099L631.97 73.4199Z" fill="#E6E8EA" stroke="#003D2E" stroke-width="3" stroke-linecap="round" stroke-linejoin="round"/><path d="M783.28 217.23L786.63 293.24L716.38 268.06L713.03 192.05L783.28 217.23Z" fill="#E6E8EA" stroke="#003D2E" stroke-width="3" stroke-linecap="round" stroke-linejoin="round"/><path d="M783.28 217.23L839.67 177.68L843.01 253.69L786.63 293.24L783.28 217.23Z" fill="#E6E8EA" stroke="#003D2E" stroke-width="3" stroke-linecap="round" stroke-linejoin="round"/><path d="M713.03 192.05L769.42 152.5L839.67 177.68L783.28 217.23L713.03 192.05Z" fill="#E6E8EA" stroke="#003D2E" stroke-width="3" stroke-linecap="round" stroke-linejoin="round"/><path d="M575.66 301.44L595.37 401.74L483.2 358.31L463.5 258.01L575.66 301.44Z" fill="#E6E8EA" stroke="#003D2E" stroke-width="3" stroke-linecap="round" stroke-linejoin="round"/><path d="M575.66 301.44L659.38 211.26L679.08 311.56L595.37 401.74L575.66 301.44Z" fill="#E6E8EA" stroke="#003D2E" stroke-width="3" stroke-linecap="round" stroke-linejoin="round"/><path d="M463.5 258.01L547.21 167.83L659.38 211.26L575.66 301.44L463.5 258.01Z" fill="#E6E8EA" stroke="#003D2E" stroke-width="3" stroke-linecap="round" stroke-linejoin="round"/><path fill-rule="evenodd" clip-rule="evenodd" d="M944.24 576.59C944.24 576.59 944.18 576.55 944.16 576.54C944.19 576.56 944.24 576.59 944.24 576.59ZM1077.63 546.89C1077.69 546.86 1077.72 546.84 1077.63 546.89V546.89ZM829.7 520.76L840.9 518.25C843.02 517.77 844.26 516.06 843.99 513.99L843.31 508.8C843.09 507.13 841.77 505.7 839.32 506.25L828.12 508.76C825.67 509.31 824.8 511.24 825.01 512.9L825.69 518.09C825.96 520.16 827.57 521.23 829.69 520.76H829.7ZM1047.28 537.37C1051.66 539.9 1056.72 540.55 1062.32 539.29C1070.09 537.55 1075.87 535.46 1080.03 532.92C1081.47 532.02 1082.18 530.62 1081.98 529.07L1081.39 524.61C1081.01 521.69 1078.49 521.33 1076.84 522.14C1072.85 524.07 1067.59 525.75 1060.74 527.29C1058.87 527.71 1057.18 527.41 1055.71 526.38C1054.24 525.34 1053.37 523.9 1053.13 522.09L1050.3 500.49C1050.06 498.68 1050.51 496.94 1051.64 495.33C1052.77 493.72 1054.28 492.69 1056.15 492.27C1062.99 490.73 1068.54 490.01 1072.61 490.1C1074.62 490.16 1076.68 488.68 1076.3 485.79L1075.71 481.32C1075.52 479.85 1074.59 478.85 1072.99 478.52C1068.44 477.93 1062.42 478.5 1054.57 480.26C1048.97 481.52 1044.32 484.38 1040.77 488.77C1037.28 493.07 1035.8 498.2 1036.51 503.57L1039.34 525.17C1040.06 530.63 1042.72 534.73 1047.27 537.36L1047.28 537.37ZM867.36 583.06L874.06 581.56C876.18 581.08 877.42 579.37 877.15 577.3L872.3 540.34C872.07 538.61 872.54 536.85 873.64 535.17C874.76 533.57 876.28 532.54 878.15 532.12L887.15 530.1C888.95 529.7 890.59 530.03 892.07 531.13C893.55 532.17 894.41 533.58 894.64 535.32L899.49 572.28C899.76 574.35 901.38 575.42 903.5 574.95L910.31 573.42C910.65 573.34 910.96 573.19 911.25 572.99C913.16 571.62 913.41 570.17 913.28 569.19L908.43 532.23C908.2 530.49 908.66 528.73 909.77 527.06C910.89 525.46 912.41 524.43 914.28 524.01L923.28 521.99C925.1 521.58 926.75 521.91 928.32 523C929.8 524.04 930.66 525.45 930.89 527.19L935.74 564.15C936.01 566.22 937.62 567.29 939.74 566.82L946.43 565.32C948.55 564.84 949.79 563.13 949.52 561.06L944.67 524.1C943.95 518.6 941.28 514.53 936.76 512.02C932.38 509.48 927.31 508.83 921.71 510.09L912.71 512.11C907.4 513.3 903.03 515.84 899.68 519.67C895.56 517.52 890.83 517.02 885.59 518.2L876.59 520.22C871.04 521.47 866.4 524.28 862.78 528.63C859.29 532.94 857.81 538.06 858.52 543.44L863.37 580.4C863.64 582.47 865.25 583.54 867.37 583.07L867.36 583.06ZM944.42 576.71C945.12 577.22 945.86 577.91 946.65 578.79C947.43 579.67 948.24 580.58 949.08 581.54L978.69 613.9L973.7 575.86C973.38 573.39 973.66 571.42 974.55 569.96C974.57 569.92 974.6 569.89 974.62 569.85L944.25 576.6C944.31 576.64 944.37 576.67 944.43 576.72L944.42 576.71ZM839.98 528.44L833.17 529.97C830.72 530.52 829.84 532.45 830.06 534.12L836.91 586.34C837.18 588.41 838.79 589.48 840.91 589.01L847.72 587.48C849.84 587 851.08 585.29 850.81 583.22L843.96 531C843.74 529.33 842.42 527.89 839.97 528.44H839.98ZM949.69 508.38C950.44 507.83 951.02 507.14 951.47 506.39L967.03 518.71L959.22 522.55C958.86 521.79 958.29 521.14 957.53 520.7C955.3 519.41 952.33 520.3 950.87 522.7C949.42 525.1 950.04 528.09 952.26 529.38C954.48 530.67 957.46 529.77 958.91 527.37C959.31 526.71 959.54 526.01 959.63 525.31L968.33 528.05C968.35 528.21 968.35 528.37 968.37 528.54C970.67 546.09 986.61 557.16 1003.96 553.26C1021.31 549.37 1033.51 531.98 1031.21 514.43C1028.91 496.88 1012.97 485.81 995.62 489.71C989.12 491.17 983.34 494.53 978.77 499.08L971.21 495.19C971.62 494.32 971.83 493.36 971.75 492.37C971.51 489.51 969.04 487.59 966.22 488.08C963.41 488.58 961.32 491.3 961.55 494.16C961.79 497.01 964.26 498.94 967.08 498.44C967.85 498.31 968.56 498 969.19 497.57L971.95 506.88L952.38 502.98C952.37 501.92 952.09 500.88 951.5 499.97C949.78 497.33 946.17 496.81 943.44 498.81C940.71 500.81 939.9 504.57 941.62 507.21C943.34 509.85 946.95 510.37 949.68 508.37L949.69 508.38ZM1008.28 531.39C1010.58 530.87 1012.69 532.35 1013 534.67C1013.31 537 1011.69 539.3 1009.39 539.82C1007.09 540.34 1004.98 538.87 1004.67 536.54C1004.37 534.22 1005.98 531.91 1008.28 531.39ZM993.79 534.64C996.1 534.12 998.21 535.6 998.51 537.92C998.82 540.25 997.2 542.55 994.89 543.07C992.59 543.59 990.48 542.12 990.17 539.79C989.87 537.47 991.48 535.16 993.78 534.64H993.79ZM1029.63 557.6C1029.52 557.61 1029.47 557.61 1029.46 557.62C1029.48 557.62 1029.56 557.62 1029.63 557.6ZM1021.4 569.58L1012.93 571.41L1018.63 614.82L1028.35 612.72C1030.48 612.26 1032.14 611.84 1033.34 611.46C1034.53 611.08 1035.75 610.52 1036.98 609.77C1038.21 609.03 1039.25 608.13 1040.09 607.08C1043.9 602.49 1045.22 595.71 1044.04 586.76C1043.21 580.45 1041.65 575.93 1039.35 573.19C1037.05 570.46 1034.46 568.96 1031.59 568.7C1028.71 568.44 1025.32 568.73 1021.4 569.58ZM888.09 627.91L907.01 623.82L894 599.49L888.09 627.91ZM1111.96 553.83C1111.34 553.91 1111.37 554.36 1111.37 554.36C1111.37 554.41 1111.39 554.47 1111.4 554.52C1111.6 556.06 1111.24 557.57 1110.33 559.04C1109.41 560.51 1108.15 561.42 1106.54 561.77C1105.07 562.09 1103.91 561.96 1103.05 561.38C1102.19 560.8 1101.2 559.77 1100.09 558.27C1098.62 556.11 1096.99 554.52 1095.2 553.52C1093.41 552.52 1090.73 552.4 1087.16 553.17C1083.85 553.89 1081.28 555.2 1079.44 557.1C1077.6 559.01 1076.82 560.99 1077.09 563.06C1077.26 564.34 1077.75 565.37 1078.56 566.15C1079.37 566.93 1080.43 567.53 1081.73 567.93C1083.03 568.34 1084.32 568.6 1085.61 568.71C1086.9 568.82 1089.01 568.93 1091.96 569.04C1095.64 569.11 1099 569.34 1102.02 569.74C1105.05 570.13 1107.67 570.84 1109.89 571.85C1112.11 572.87 1113.94 574.36 1115.36 576.34C1115.44 576.45 1115.51 576.57 1115.59 576.69L1112.64 554.19C1112.64 554.19 1112.5 553.76 1111.97 553.83H1111.96ZM1003.74 563.16C1003.49 563.28 1003.25 563.39 1003.03 563.52L1003.77 563.36L1003.74 563.16ZM1029.73 557.59C1029.73 557.59 1029.68 557.59 1029.66 557.59C1029.7 557.59 1029.73 557.59 1029.73 557.59ZM1108.83 604.34C1105.26 606.91 1100.87 608.75 1095.66 609.88C1089.41 611.23 1084.1 611.15 1079.73 609.64C1076.63 608.55 1073.99 606.76 1071.81 604.29C1069.63 601.81 1068.37 599.22 1068.01 596.52C1067.8 594.95 1068.17 593.49 1069.1 592.13C1070.03 590.78 1071.33 589.92 1073 589.56C1074.35 589.27 1075.55 589.46 1076.61 590.13C1077.66 590.8 1078.63 591.92 1079.52 593.49C1080.59 595.35 1081.69 596.87 1082.8 598.03C1083.92 599.2 1085.38 600.04 1087.2 600.56C1089.01 601.08 1091.3 601.04 1094.07 600.44C1097.87 599.62 1100.84 598.06 1102.98 595.75C1105.12 593.45 1106.02 590.96 1105.66 588.28C1105.38 586.16 1104.51 584.57 1103.06 583.53C1101.6 582.48 1099.82 581.83 1097.7 581.57C1095.58 581.31 1092.77 581.16 1089.27 581.1C1084.58 581.01 1080.61 580.57 1077.35 579.8C1074.09 579.02 1071.4 577.59 1069.28 575.49C1067.15 573.39 1065.85 570.5 1065.36 566.8C1064.9 563.28 1065.44 559.95 1066.98 556.8C1068.52 553.66 1070.99 550.96 1074.4 548.71C1075.35 548.08 1076.37 547.5 1077.44 546.97L1029.73 557.57C1031.5 557.4 1033.16 557.34 1034.68 557.4C1037.9 557.54 1040.92 558.46 1043.75 560.15C1051.09 564.43 1055.53 572.38 1057.05 584.01C1057.55 587.85 1057.68 591.43 1057.44 594.74C1057.19 598.05 1056.55 601.13 1055.5 603.98C1054.45 606.82 1052.98 609.48 1051.08 611.96C1049.58 613.87 1047.89 615.51 1046 616.87C1044.11 618.24 1042.03 619.36 1039.76 620.24C1037.49 621.12 1034.9 621.87 1032 622.5L1015.29 626.11C1012.96 626.61 1011.15 626.64 1009.88 626.18C1008.61 625.72 1007.7 624.89 1007.17 623.67C1006.64 622.45 1006.24 620.81 1005.97 618.75L999.81 571.85C999.44 569.06 999.8 566.9 1000.87 565.38C1001.39 564.64 1002.11 564.02 1003.03 563.5L982.99 567.95C983.04 567.99 983.09 568.02 983.14 568.06C984.37 569.07 985.14 570.81 985.47 573.28L992.07 623.58C992.81 629.19 990.87 632.5 986.27 633.49C985.12 633.74 984.06 633.8 983.1 633.66C982.13 633.52 981.2 633.18 980.3 632.63C979.4 632.08 978.54 631.39 977.72 630.56C976.9 629.74 976.08 628.89 975.25 628.02L946.3 595.96L951.22 633.44C951.54 635.88 951.22 637.85 950.26 639.34C949.3 640.83 947.94 641.77 946.19 642.15C944.38 642.54 942.84 642.22 941.58 641.19C940.32 640.16 939.53 638.44 939.21 636.03L932.73 586.69C932.46 584.6 932.47 582.9 932.77 581.61C933.04 580.59 933.51 579.65 934.19 578.79L898.68 586.68C899.21 587.01 899.69 587.4 900.13 587.86C901.01 588.78 901.78 589.8 902.44 590.93C903.11 592.06 903.96 593.57 905.01 595.47L926.97 633.17C928.68 636.03 929.63 638.17 929.81 639.6C929.99 641.03 929.57 642.58 928.51 644.08C927.45 645.58 926.05 646.52 924.33 646.89C923.32 647.11 922.43 647.11 921.67 646.9C920.9 646.69 920.23 646.33 919.66 645.81C919.09 645.29 918.44 644.44 917.71 643.27C916.98 642.1 916.35 641.06 915.81 640.16L911.73 632.79L885.99 638.35L884.04 647.21C883.28 650.66 882.55 653.04 881.87 654.34C881.18 655.64 879.89 656.5 877.99 656.91C876.38 657.26 874.87 656.97 873.48 656.05C872.09 655.13 871.29 653.91 871.09 652.39C870.98 651.52 871 650.58 871.17 649.59C871.34 648.6 871.64 647.2 872.09 645.4L882.83 600.37C883.13 599.08 883.5 597.53 883.93 595.71C884.36 593.9 884.87 592.36 885.46 591.1C885.74 590.5 886.07 589.95 886.47 589.42L844.95 598.65C845.32 598.71 845.68 598.77 846.04 598.86C848.14 599.27 850.05 600.1 851.78 601.34C853.51 602.58 854.91 604.16 855.98 606.06C857.04 607.97 857.73 610.09 858.04 612.41C858.67 617.18 857.83 621.28 855.55 624.7C853.26 628.13 849.49 631.02 844.23 633.38C846.66 634.11 849.08 635.44 851.46 637.38C853.85 639.32 856.03 641.46 858.01 643.79C859.99 646.13 861.58 648.28 862.77 650.25C863.96 652.22 864.61 653.61 864.72 654.43C864.83 655.27 864.67 656.17 864.25 657.11C863.83 658.05 863.18 658.87 862.33 659.54C861.47 660.22 860.44 660.69 859.23 660.95C857.79 661.26 856.54 661.18 855.47 660.71C854.4 660.24 853.45 659.55 852.6 658.66C851.76 657.77 850.6 656.43 849.12 654.66L842.85 647.13C840.59 644.36 838.63 642.3 836.95 640.96C835.28 639.62 833.65 638.8 832.08 638.51C830.5 638.22 828.58 638.33 826.3 638.82L821.81 639.79L824.51 660.34C824.87 663.04 824.54 665.17 823.52 666.7C822.51 668.24 821.05 669.21 819.15 669.62C817.11 670.06 815.43 669.73 814.14 668.64C812.84 667.55 812.02 665.7 811.68 663.11L805.22 613.9C804.85 611.11 805.21 608.95 806.28 607.43C806.34 607.34 806.41 607.26 806.48 607.18L781.15 612.81C781.79 612.95 782.42 613.13 783.03 613.35C784.65 613.93 786.12 614.78 787.45 615.92C788.78 617.05 789.86 618.39 790.69 619.93C791.51 621.47 792.05 623.17 792.29 625.03C793.13 631.43 790.58 636.8 784.63 641.13C793.3 642.01 798.15 646.31 799.16 654.05C799.63 657.63 799.15 661.04 797.71 664.3C796.27 667.56 794.1 670.2 791.2 672.23C789.38 673.46 787.24 674.52 784.78 675.39C782.32 676.27 779.42 677.06 776.08 677.79L756.73 681.97C753.94 682.57 751.86 682.37 750.5 681.36C750.37 681.26 750.24 681.16 750.12 681.04L750.45 683.57C750.45 683.57 750.75 684 751.24 684.07C767.83 686.17 1058.95 722.96 1058.95 722.96L1118.1 595.75L1117.63 592.15C1117.35 593.18 1117 594.19 1116.56 595.18C1114.99 598.69 1112.42 601.73 1108.85 604.29L1108.83 604.34ZM1117.68 591.93C1117.66 592 1117.64 592.07 1117.62 592.15C1117.63 592.1 1117.65 592.02 1117.68 591.93ZM1126.88 469.34C1122.49 466.8 1117.43 466.15 1111.83 467.41C1104.82 468.98 1099.59 470.62 1096.22 472.3C1093.82 473.59 1093.8 475.51 1093.9 476.28L1094.51 480.95C1094.63 481.86 1094.97 482.57 1095.51 483.08C1096.2 483.72 1097.14 483.94 1098.16 483.72C1098.33 483.68 1098.73 483.56 1098.89 483.48C1101.52 482.29 1106.4 480.89 1113.4 479.32C1115.2 478.92 1116.84 479.25 1118.32 480.35C1119.8 481.39 1120.66 482.8 1120.89 484.54L1121.3 487.63L1105.69 491.13C1100.08 492.39 1095.44 495.25 1091.89 499.64C1088.35 504.01 1086.91 508.96 1087.62 514.34C1088.34 519.79 1091 523.9 1095.55 526.54C1099.93 529.07 1104.99 529.72 1110.6 528.46L1136.57 522.63C1138.59 522.18 1139.82 520.43 1139.55 518.4L1134.7 481.44C1133.99 476.07 1131.3 471.88 1126.91 469.34H1126.88ZM1124.61 512.95L1109 516.45C1107.13 516.87 1105.44 516.57 1103.97 515.53C1102.49 514.49 1101.63 513.05 1101.39 511.24C1101.16 509.5 1101.62 507.78 1102.74 506.17C1103.86 504.57 1105.37 503.54 1107.25 503.12L1122.86 499.62L1124.61 512.95ZM820.56 630.52L832.05 628.04C835.13 627.37 837.69 626.55 839.72 625.55C841.75 624.56 843.24 623.3 844.17 621.76C845.11 620.23 845.43 618.32 845.13 616.06C844.9 614.29 844.24 612.82 843.18 611.66C842.11 610.5 840.74 609.76 839.07 609.43C837.49 609.11 834.5 609.43 830.09 610.38L818.26 612.94L820.57 630.52H820.56ZM781.72 649.64C779.28 648.67 775.83 648.67 771.37 649.64L758.03 652.52L760.48 671.19L774.26 668.21C782.93 666.34 786.85 662.25 786.02 655.93C785.6 652.7 784.17 650.6 781.73 649.63L781.72 649.64ZM778.44 603.01L785.14 601.51C787.26 601.03 788.5 599.32 788.23 597.25L783.38 560.29C783.15 558.56 783.62 556.8 784.72 555.12C785.84 553.52 787.35 552.49 789.23 552.07L798.24 550.05C800.04 549.65 801.68 549.98 803.16 551.08C804.64 552.12 805.5 553.53 805.73 555.27L810.58 592.23C810.85 594.3 812.46 595.37 814.58 594.9L821.39 593.37C823.41 592.92 824.63 591.17 824.37 589.14L819.52 552.18C818.8 546.68 816.12 542.61 811.61 540.1C807.23 537.56 802.2 536.9 796.68 538.14L787.67 540.16C782.12 541.41 777.48 544.22 773.86 548.57C770.37 552.88 768.89 558 769.6 563.38L774.45 600.34C774.72 602.41 776.33 603.48 778.45 603.01H778.44ZM781.12 612.84C781.12 612.84 781.08 612.84 781.05 612.83C781.09 612.83 781.12 612.84 781.12 612.84ZM756.8 643.22L768.55 640.68C771.75 639.99 774.17 639.15 775.84 638.16C777.5 637.17 778.68 635.72 779.38 633.81C779.94 632.43 780.12 630.99 779.92 629.48C779.5 626.25 778.08 624.35 775.66 623.78C773.25 623.21 769.71 623.43 765.04 624.44L754.63 626.69L756.8 643.22ZM761.79 603.18L756.94 566.22C756.23 560.85 753.54 556.66 749.14 554.12C744.75 551.58 739.69 550.93 734.09 552.19C727.08 553.76 721.85 555.4 718.47 557.08C716.08 558.37 716.05 560.29 716.15 561.05L716.76 565.72C716.88 566.63 717.22 567.34 717.76 567.85C718.45 568.49 719.39 568.71 720.41 568.48C720.58 568.44 720.98 568.32 721.14 568.24C723.77 567.05 728.65 565.65 735.65 564.08C737.45 563.68 739.09 564.01 740.58 565.11C742.06 566.15 742.92 567.56 743.15 569.3L743.56 572.39L727.95 575.89C722.34 577.15 717.7 580.01 714.15 584.4C710.6 588.78 709.16 593.72 709.87 599.1C710.59 604.55 713.25 608.66 717.8 611.29C722.18 613.82 727.24 614.47 732.85 613.21L758.82 607.38C760.84 606.93 762.07 605.18 761.8 603.15L761.79 603.18ZM746.88 597.73L731.27 601.23C729.4 601.65 727.71 601.35 726.24 600.31C724.76 599.27 723.9 597.83 723.66 596.02C723.43 594.28 723.88 592.57 725.01 590.95C726.13 589.35 727.64 588.32 729.52 587.9L745.13 584.4L746.88 597.73Z" fill="#003B2F"/><path d="M1519.18 748.471H1694.68C1706.84 748.471 1716.71 758.336 1716.71 770.495C1716.71 782.655 1706.84 792.519 1694.68 792.519H1519.18C1507.02 792.519 1497.16 782.655 1497.16 770.495C1497.16 758.326 1507.02 748.471 1519.18 748.471Z" fill="#03FC9D"/><path d="M1579.9 780.322H1792.59C1811.94 780.322 1827.63 796.007 1827.63 815.366C1827.63 834.716 1811.95 850.41 1792.59 850.41H1579.9C1560.55 850.41 1544.85 834.725 1544.85 815.366C1544.86 796.007 1560.55 780.322 1579.9 780.322Z" fill="#03FC9D"/><path d="M323.127 260.255H272.597C288.388 260.255 301.02 247.622 301.02 231.831C301.02 216.041 288.388 203.408 272.597 203.408H128.376C112.585 203.408 99.9524 216.041 99.9524 231.831H55.7386C39.9479 231.831 27.3154 244.464 27.3154 260.255C27.3154 276.045 39.9479 288.678 55.7386 288.678H150.482C150.482 304.468 163.115 317.101 178.906 317.101H323.127C338.918 317.101 351.55 304.468 351.55 288.678C351.55 272.887 338.918 260.255 323.127 260.255Z" fill="#E6E8EA"/><path d="M-50.5846 267.622H199.96C227.331 267.622 250.49 289.729 250.49 318.152C250.49 345.522 228.384 368.682 199.96 368.682H-50.5846C-77.9551 368.682 -101.115 346.575 -101.115 318.152C-101.115 289.729 -79.0078 267.622 -50.5846 267.622Z" fill="#03FC9D"/><path d="M1607.63 306.5H1650.75" stroke="#003B2F" stroke-width="2.77614" stroke-miterlimit="10" stroke-linecap="round" stroke-linejoin="round"/><path d="M1533.8 272.058H1767.7" stroke="#03FC9D" stroke-width="2.77614" stroke-miterlimit="10" stroke-linecap="round" stroke-linejoin="round"/><path d="M1688.68 306.333H1819.05" stroke="#003B2F" stroke-width="2.77614" stroke-miterlimit="10" stroke-linecap="round" stroke-linejoin="round"/><path d="M903.933 90.7507L919.099 105.917" stroke="#003B2F" stroke-width="3" stroke-linecap="round" stroke-linejoin="round"/><path d="M930.182 117L945.348 132.069" stroke="#003B2F" stroke-width="3" stroke-linecap="round" stroke-linejoin="round"/><path d="M903.933 132.069L919.099 117" stroke="#003B2F" stroke-width="3" stroke-linecap="round" stroke-linejoin="round"/><path d="M930.182 105.917L945.348 90.7507" stroke="#003B2F" stroke-width="3" stroke-linecap="round" stroke-linejoin="round"/><path d="M301.083 652.037V676.249" stroke="#003B2F" stroke-width="3.15813" stroke-miterlimit="10" stroke-linecap="round" stroke-linejoin="round"/><path d="M301.083 694.145V718.357" stroke="#003B2F" stroke-width="3.15813" stroke-miterlimit="10" stroke-linecap="round" stroke-linejoin="round"/><path d="M268.449 684.672H292.661" stroke="#003B2F" stroke-width="3.15813" stroke-miterlimit="10" stroke-linecap="round" stroke-linejoin="round"/><path d="M310.557 684.672H334.77" stroke="#003B2F" stroke-width="3.15813" stroke-miterlimit="10" stroke-linecap="round" stroke-linejoin="round"/><path d="M1673.08 580.446L1650.75 558.115L1628.41 580.446L1650.75 602.777L1673.08 580.446Z" stroke="#003B2F" stroke-width="3.15813" stroke-miterlimit="10" stroke-linecap="round" stroke-linejoin="round"/><path d="M122.648 950.847H312.136" stroke="#03FC9D" stroke-width="3.15813" stroke-miterlimit="10" stroke-linecap="round" stroke-linejoin="round"/><path d="M268.976 987.692H414.25" stroke="#003B2F" stroke-width="3.15813" stroke-miterlimit="10" stroke-linecap="round" stroke-linejoin="round"/><path d="M148.524 505.257H191.647" stroke="#003B2F" stroke-width="2.77614" stroke-miterlimit="10" stroke-linecap="round" stroke-linejoin="round"/><path d="M74.6877 574.135H308.605" stroke="#03FC9D" stroke-width="2.77614" stroke-miterlimit="10" stroke-linecap="round" stroke-linejoin="round"/><path d="M229.578 505.425H324.235" stroke="#003B2F" stroke-width="2.77614" stroke-miterlimit="10" stroke-linecap="round" stroke-linejoin="round"/></g><defs><clipPath id="clip0_1375_1554"><rect width="1920" height="1080" fill="white" transform="translate(0 0.75)"/></clipPath></defs></svg>