<svg width="1920" height="1081" viewBox="0 0 1920 1081" fill="none" xmlns="http://www.w3.org/2000/svg"><path d="M952.809 932.619C1253.47 932.619 1497.21 924.191 1497.21 913.795C1497.21 903.399 1253.47 894.972 952.809 894.972C652.147 894.972 408.412 903.399 408.412 913.795C408.412 924.191 652.147 932.619 952.809 932.619Z" fill="#E6E8EA"/><path d="M798.223 800.124H768.315C752.202 800.124 739.139 813.186 739.139 829.3V884.619C739.139 900.733 752.202 913.795 768.315 913.795H798.223C814.337 913.795 827.399 900.733 827.399 884.619V829.3C827.399 813.186 814.337 800.124 798.223 800.124Z" fill="#E6E8EA" stroke="#003B2F" stroke-width="3" stroke-linecap="round" stroke-linejoin="round"/><path d="M1103.58 800.124H1073.67C1057.56 800.124 1044.49 813.186 1044.49 829.3V884.619C1044.49 900.733 1057.56 913.795 1073.67 913.795H1103.58C1119.69 913.795 1132.75 900.733 1132.75 884.619V829.3C1132.75 813.186 1119.69 800.124 1103.58 800.124Z" fill="#E6E8EA" stroke="#003B2F" stroke-width="3" stroke-linecap="round" stroke-linejoin="round"/><path d="M1175.53 199.033H696.369C640.232 199.033 594.723 244.542 594.723 300.679V735.497C594.723 791.634 640.232 837.143 696.369 837.143H1175.53C1231.66 837.143 1277.17 791.634 1277.17 735.497V300.679C1277.17 244.542 1231.66 199.033 1175.53 199.033Z" fill="#E6E8EA" stroke="#003B2F" stroke-width="3" stroke-linecap="round" stroke-linejoin="round"/><path d="M1112.78 282.692H759.217C717.749 282.692 684.133 316.309 684.133 357.776V678.609C684.133 720.077 717.749 753.693 759.217 753.693H1112.78C1154.25 753.693 1187.87 720.077 1187.87 678.609V357.776C1187.87 316.309 1154.25 282.692 1112.78 282.692Z" fill="#003B2F" stroke="#003B2F" stroke-width="3" stroke-linecap="round" stroke-linejoin="round"/><path d="M1097.62 708.726H916.288C915.711 708.726 915.242 709.194 915.242 709.772V749.928C915.242 750.506 915.711 750.974 916.288 750.974H1097.62C1098.2 750.974 1098.66 750.506 1098.66 749.928V709.772C1098.66 709.194 1098.2 708.726 1097.62 708.726Z" fill="#03FC9D"/><path d="M1061.96 750.974H1075.45V708.726H1061.96V750.974Z" fill="white"/><path d="M1097.62 708.726H916.288C915.711 708.726 915.242 709.194 915.242 709.772V749.928C915.242 750.506 915.711 750.974 916.288 750.974H1097.62C1098.2 750.974 1098.66 750.506 1098.66 749.928V709.772C1098.66 709.194 1098.2 708.726 1097.62 708.726Z" stroke="#003B2F" stroke-width="3" stroke-linecap="round" stroke-linejoin="round"/><path d="M1108.88 666.846H927.551C926.974 666.846 926.506 667.314 926.506 667.891V708.048C926.506 708.625 926.974 709.094 927.551 709.094H1108.88C1109.46 709.094 1109.93 708.625 1109.93 708.048V667.891C1109.93 667.314 1109.46 666.846 1108.88 666.846Z" fill="#03FC9D"/><path d="M1073.12 709.094H1086.61V666.846H1073.12V709.094Z" fill="white"/><path d="M1108.88 666.846H927.551C926.974 666.846 926.506 667.314 926.506 667.891V708.048C926.506 708.625 926.974 709.094 927.551 709.094H1108.88C1109.46 709.094 1109.93 708.625 1109.93 708.048V667.891C1109.93 667.314 1109.46 666.846 1108.88 666.846Z" stroke="#003B2F" stroke-width="3" stroke-linecap="round" stroke-linejoin="round"/><path d="M1081.3 582.998H899.974C899.396 582.998 898.928 583.466 898.928 584.044V624.2C898.928 624.777 899.396 625.246 899.974 625.246H1081.3C1081.88 625.246 1082.35 624.777 1082.35 624.2V584.044C1082.35 583.466 1081.88 582.998 1081.3 582.998Z" fill="#03FC9D"/><path d="M1045.54 625.246H1059.03V582.998H1045.54V625.246Z" fill="white"/><path d="M1081.3 582.998H899.974C899.396 582.998 898.928 583.466 898.928 584.044V624.2C898.928 624.777 899.396 625.246 899.974 625.246H1081.3C1081.88 625.246 1082.35 624.777 1082.35 624.2V584.044C1082.35 583.466 1081.88 582.998 1081.3 582.998Z" stroke="#003B2F" stroke-width="3" stroke-linecap="round" stroke-linejoin="round"/><path d="M1072.55 624.598H891.219C890.642 624.598 890.173 625.066 890.173 625.644V665.8C890.173 666.378 890.642 666.846 891.219 666.846H1072.55C1073.13 666.846 1073.6 666.378 1073.6 665.8V625.644C1073.6 625.066 1073.13 624.598 1072.55 624.598Z" fill="#03FC9D"/><path d="M1036.79 666.846H1050.28V624.598H1036.79V666.846Z" fill="white"/><path d="M1072.55 624.598H891.219C890.642 624.598 890.173 625.066 890.173 625.644V665.8C890.173 666.378 890.642 666.846 891.219 666.846H1072.55C1073.13 666.846 1073.6 666.378 1073.6 665.8V625.644C1073.6 625.066 1073.13 624.598 1072.55 624.598Z" stroke="#003B2F" stroke-width="3" stroke-linecap="round" stroke-linejoin="round"/><path d="M1122.87 754.157L1187.27 584.644C1187.47 584.104 1187.2 583.5 1186.66 583.295L1149.12 569.035C1148.58 568.83 1147.98 569.101 1147.77 569.641L1083.38 739.154C1083.17 739.694 1083.45 740.298 1083.99 740.503L1121.53 754.763C1122.06 754.968 1122.67 754.697 1122.87 754.157Z" fill="#03FC9D"/><path d="M1096.14 705.819L1091.35 718.43L1130.84 733.433L1135.63 720.822L1096.14 705.819Z" fill="white"/><path d="M1122.87 754.157L1187.27 584.644C1187.47 584.104 1187.2 583.5 1186.66 583.295L1149.12 569.035C1148.58 568.83 1147.98 569.101 1147.77 569.641L1083.38 739.154C1083.17 739.694 1083.45 740.298 1083.99 740.503L1121.53 754.763C1122.06 754.968 1122.67 754.697 1122.87 754.157Z" stroke="#003B2F" stroke-width="3" stroke-linecap="round" stroke-linejoin="round"/><path d="M918.483 296.39V738.842C918.483 766.868 890.039 788.306 857.621 786.528C855.112 786.423 852.706 786.109 850.197 785.691L701.806 761.221C675.035 756.829 655.689 737.169 655.689 714.267V321.697C655.689 299.004 674.826 279.345 701.493 274.848L737.466 268.678L849.883 249.541C885.333 243.476 918.588 266.168 918.588 296.39H918.483Z" fill="#03FC9D" stroke="#003B2F" stroke-width="3" stroke-linecap="round" stroke-linejoin="round"/><path d="M781.701 604.048C818.491 604.048 848.315 564.345 848.315 515.369C848.315 466.393 818.491 426.691 781.701 426.691C744.912 426.691 715.088 466.393 715.088 515.369C715.088 564.345 744.912 604.048 781.701 604.048Z" fill="#003B2F" stroke="#003B2F" stroke-width="3" stroke-linecap="round" stroke-linejoin="round"/><path d="M675.14 378.062C675.14 367.724 666.783 359.343 656.474 359.343C646.165 359.343 637.808 367.724 637.808 378.062V420.728C637.808 431.066 646.165 439.447 656.474 439.447C666.783 439.447 675.14 431.066 675.14 420.728V378.062Z" fill="white" stroke="#003B2F" stroke-width="3" stroke-linecap="round" stroke-linejoin="round"/><path d="M675.14 607.289C675.14 596.951 666.783 588.571 656.474 588.571C646.165 588.571 637.808 596.951 637.808 607.289V649.955C637.808 660.293 646.165 668.674 656.474 668.674C666.783 668.674 675.14 660.293 675.14 649.955V607.289Z" fill="white" stroke="#003B2F" stroke-width="3" stroke-linecap="round" stroke-linejoin="round"/><path d="M946.928 273.698H981.124C1004.34 273.698 1023.16 292.521 1023.16 315.736V715.941C1023.16 736.751 1006.22 753.692 985.412 753.692H946.824V273.698H946.928Z" fill="#E6E8EA" stroke="#003B2F" stroke-width="3" stroke-linecap="round" stroke-linejoin="round"/><path d="M808.472 514.427C808.472 543.081 791.636 566.401 770.93 566.401H733.388C740.185 566.401 746.669 563.891 752.211 559.499C763.401 550.505 771.035 533.774 771.035 514.532C771.035 495.29 763.505 478.559 752.211 469.565C746.669 465.173 740.29 462.663 733.388 462.663H770.93C791.636 462.663 808.472 485.879 808.472 514.637V514.427Z" fill="#E6E8EA" stroke="#003B2F" stroke-width="3" stroke-linecap="round" stroke-linejoin="round"/><path d="M770.93 514.427C770.93 533.669 763.401 550.401 752.107 559.394C746.565 563.786 740.186 566.296 733.284 566.296C712.578 566.296 695.742 543.08 695.742 514.323C695.742 485.565 712.578 462.349 733.284 462.349C740.081 462.349 746.565 464.859 752.107 469.251C763.297 478.245 770.93 494.976 770.93 514.218V514.427Z" fill="#03FC9D" stroke="#003B2F" stroke-width="3" stroke-linecap="round" stroke-linejoin="round"/><path d="M961.255 290.534V744.071C961.255 774.92 927.477 798.136 891.19 792.175L857.622 786.633C890.04 788.411 918.484 766.868 918.484 738.947V296.391C918.484 266.169 885.23 243.476 849.779 249.542L890.877 242.535C927.268 236.365 961.255 259.581 961.255 290.534Z" fill="#E6E8EA" stroke="#003B2F" stroke-width="3" stroke-linecap="round" stroke-linejoin="round"/><path d="M1001.41 465.173H998.691C990.433 465.173 983.737 471.868 983.737 480.127V579.263C983.737 587.522 990.433 594.217 998.691 594.217H1001.41C1009.67 594.217 1016.36 587.522 1016.36 579.263V480.127C1016.36 471.868 1009.67 465.173 1001.41 465.173Z" fill="#003B2F" stroke="#003B2F" stroke-width="3" stroke-linecap="round" stroke-linejoin="round"/><path d="M1016.47 465.173H1013.75C1005.49 465.173 998.797 471.868 998.797 480.127V579.263C998.797 587.522 1005.49 594.217 1013.75 594.217H1016.47C1024.73 594.217 1031.42 587.522 1031.42 579.263V480.127C1031.42 471.868 1024.73 465.173 1016.47 465.173Z" fill="#E6E8EA" stroke="#003B2F" stroke-width="3" stroke-linecap="round" stroke-linejoin="round"/><path d="M1382.69 871.025H1201.36C1200.78 871.025 1200.31 871.493 1200.31 872.071V912.227C1200.31 912.804 1200.78 913.273 1201.36 913.273H1382.69C1383.27 913.273 1383.73 912.804 1383.73 912.227V872.071C1383.73 871.493 1383.27 871.025 1382.69 871.025Z" fill="#03FC9D"/><path d="M1344.83 913.378H1358.32V871.13H1344.83V913.378Z" fill="white"/><path d="M1382.69 871.025H1201.36C1200.78 871.025 1200.31 871.493 1200.31 872.071V912.227C1200.31 912.804 1200.78 913.273 1201.36 913.273H1382.69C1383.27 913.273 1383.73 912.804 1383.73 912.227V872.071C1383.73 871.493 1383.27 871.025 1382.69 871.025Z" stroke="#003B2F" stroke-width="3" stroke-linecap="round" stroke-linejoin="round"/><path d="M1391.89 828.463H1210.56C1209.98 828.463 1209.51 828.931 1209.51 829.508V869.665C1209.51 870.242 1209.98 870.71 1210.56 870.71H1391.89C1392.47 870.71 1392.94 870.242 1392.94 869.665V829.508C1392.94 828.931 1392.47 828.463 1391.89 828.463Z" fill="#03FC9D"/><path d="M1351.52 871.025H1365.01V828.777H1351.52V871.025Z" fill="white"/><path d="M1391.89 828.672H1210.56C1209.98 828.672 1209.51 829.14 1209.51 829.718V869.874C1209.51 870.452 1209.98 870.92 1210.56 870.92H1391.89C1392.47 870.92 1392.94 870.452 1392.94 869.874V829.718C1392.94 829.14 1392.47 828.672 1391.89 828.672Z" stroke="#003B2F" stroke-width="3" stroke-linecap="round" stroke-linejoin="round"/><path d="M1370.56 786.005H1189.23C1188.65 786.005 1188.18 786.473 1188.18 787.051V827.207C1188.18 827.785 1188.65 828.253 1189.23 828.253H1370.56C1371.13 828.253 1371.6 827.785 1371.6 827.207V787.051C1371.6 786.473 1371.13 786.005 1370.56 786.005Z" fill="#03FC9D"/><path d="M1334.79 828.253H1348.28V786.005H1334.79V828.253Z" fill="white"/><path d="M1370.56 786.005H1189.23C1188.65 786.005 1188.18 786.473 1188.18 787.051V827.207C1188.18 827.785 1188.65 828.253 1189.23 828.253H1370.56C1371.13 828.253 1371.6 827.785 1371.6 827.207V787.051C1371.6 786.473 1371.13 786.005 1370.56 786.005Z" stroke="#003B2F" stroke-width="3" stroke-linecap="round" stroke-linejoin="round"/><path d="M685.389 875.625H504.058C503.48 875.625 503.012 876.094 503.012 876.671V916.828C503.012 917.405 503.48 917.873 504.058 917.873H685.389C685.966 917.873 686.434 917.405 686.434 916.828V876.671C686.434 876.094 685.966 875.625 685.389 875.625Z" fill="#03FC9D"/><path d="M649.625 917.874H663.115V875.626H649.625V917.874Z" fill="white"/><path d="M685.389 875.625H504.058C503.48 875.625 503.012 876.094 503.012 876.671V916.828C503.012 917.405 503.48 917.873 504.058 917.873H685.389C685.966 917.873 686.434 917.405 686.434 916.828V876.671C686.434 876.094 685.966 875.625 685.389 875.625Z" stroke="#003B2F" stroke-width="3" stroke-linecap="round" stroke-linejoin="round"/><path d="M813.227 883.559L646.91 811.311C646.38 811.081 645.764 811.324 645.534 811.854L629.535 848.685C629.304 849.215 629.547 849.831 630.077 850.061L796.394 922.309C796.924 922.539 797.539 922.296 797.77 921.766L813.769 884.935C813.999 884.405 813.756 883.789 813.227 883.559Z" fill="#03FC9D"/><path d="M763.772 908.105L776.145 913.48L792.977 874.73L780.604 869.355L763.772 908.105Z" fill="white"/><path d="M813.227 883.559L646.91 811.311C646.38 811.081 645.764 811.324 645.534 811.854L629.535 848.685C629.304 849.215 629.547 849.831 630.077 850.061L796.394 922.309C796.924 922.539 797.539 922.296 797.77 921.766L813.769 884.935C813.999 884.405 813.756 883.789 813.227 883.559Z" stroke="#003B2F" stroke-width="3" stroke-linecap="round" stroke-linejoin="round"/><path d="M1357.07 831.6L1352.99 842.79" stroke="#003B2F" stroke-width="3" stroke-linecap="round" stroke-linejoin="round"/><path d="M1350.06 851.052L1345.98 862.241" stroke="#003B2F" stroke-width="3" stroke-linecap="round" stroke-linejoin="round"/><path d="M1336.26 841.325L1347.45 845.403" stroke="#003B2F" stroke-width="3" stroke-linecap="round" stroke-linejoin="round"/><path d="M1355.6 848.438L1366.79 852.412" stroke="#003B2F" stroke-width="3" stroke-linecap="round" stroke-linejoin="round"/><path d="M1091.97 599.656L1087.89 610.846" stroke="white" stroke-width="3" stroke-linecap="round" stroke-linejoin="round"/><path d="M1084.97 619.003L1080.89 630.193" stroke="white" stroke-width="3" stroke-linecap="round" stroke-linejoin="round"/><path d="M1071.16 609.381L1082.35 613.459" stroke="white" stroke-width="3" stroke-linecap="round" stroke-linejoin="round"/><path d="M1090.51 616.389L1101.7 620.467" stroke="white" stroke-width="3" stroke-linecap="round" stroke-linejoin="round"/><path d="M1166.74 739.053C1140.08 745.432 1114.35 772.935 1103.16 810.686C1091.97 848.437 1098.56 885.456 1117.38 905.43L1115.5 911.704L1138.19 918.397C1171.87 928.436 1210.04 896.959 1224.89 846.764C1239.74 796.568 1224.99 749.51 1191.32 739.471L1168.62 732.778L1166.74 739.053Z" fill="#03FC9D"/><path d="M1217.25 758.817L1208.05 748.359L1171.76 737.274L1177.2 748.673L1217.25 758.817Z" fill="white"/><path d="M1166.74 739.053C1140.08 745.432 1114.35 772.935 1103.16 810.686C1091.97 848.437 1098.56 885.456 1117.38 905.43L1115.5 911.704L1138.19 918.397C1171.87 928.436 1210.04 896.959 1224.89 846.764C1239.74 796.568 1224.99 749.51 1191.32 739.471L1168.62 732.778L1166.74 739.053Z" stroke="#003B2F" stroke-width="3" stroke-linecap="round" stroke-linejoin="round"/><path d="M1202.19 840.07C1187.34 890.265 1149.17 921.637 1115.5 911.703C1081.51 901.664 1065.83 853.246 1080.47 803.992C1095.11 754.633 1134.64 722.738 1168.62 732.777C1202.3 742.816 1217.04 789.874 1202.19 840.07Z" fill="#E6E8EA" stroke="#003B2F" stroke-width="3" stroke-linecap="round" stroke-linejoin="round"/><path d="M1089.04 806.397C1076.39 848.854 1089.99 890.579 1119.27 899.259C1148.13 907.834 1180.86 880.645 1193.62 837.456C1206.48 794.267 1193.93 753.692 1164.96 745.117C1135.68 736.437 1101.59 763.94 1088.94 806.397H1089.04Z" fill="#003B2F" stroke="#003B2F" stroke-width="3" stroke-linecap="round" stroke-linejoin="round"/><path d="M1091.03 807.234C1078.69 848.645 1091.97 889.324 1120.52 897.795C1148.65 906.16 1180.55 879.703 1193.09 837.56C1205.64 795.417 1193.3 755.783 1165.17 747.417C1136.62 738.947 1103.37 765.718 1091.03 807.234Z" fill="#E6E8EA" stroke="#003B2F" stroke-width="3" stroke-linecap="round" stroke-linejoin="round"/><path d="M1374.01 756.936V733.616" stroke="#003B2F" stroke-width="3" stroke-linecap="round" stroke-linejoin="round"/><path d="M1390.32 773.983H1416.99" stroke="#003B2F" stroke-width="3" stroke-linecap="round" stroke-linejoin="round"/><path d="M1386.35 760.596L1413.43 733.616" stroke="#003B2F" stroke-width="3" stroke-linecap="round" stroke-linejoin="round"/><path d="M1051.29 896.749L1065.1 888.802" stroke="#003B2F" stroke-width="3" stroke-linecap="round" stroke-linejoin="round"/><path d="M1078.8 896.75L1070.74 892.044" stroke="#003B2F" stroke-width="3" stroke-linecap="round" stroke-linejoin="round"/><path d="M1065.1 888.802V872.802" stroke="#003B2F" stroke-width="3" stroke-linecap="round" stroke-linejoin="round"/><path d="M1170.82 788.83L1173.43 779.941C1173.43 779.941 1173.43 778.896 1173.02 778.791L1167.06 777.013C1167.06 777.013 1166.22 777.222 1166.11 777.85L1163.92 785.484C1163.92 785.484 1163.5 786.216 1163.08 786.216C1156.39 786.529 1149.59 792.595 1146.35 802.111C1141.02 817.588 1149.38 825.745 1153.36 829.718C1160.05 836.307 1161.62 840.803 1159.32 847.391C1157.02 854.084 1151.58 857.849 1146.87 855.966C1142.06 853.98 1140.29 848.96 1141.96 841.849C1142.06 841.326 1141.96 840.803 1141.54 840.699L1135.58 838.921C1135.58 838.921 1134.74 839.235 1134.64 839.757C1131.92 850.738 1134.12 860.045 1140.29 864.542C1140.49 864.751 1140.6 865.169 1140.49 865.587L1138.19 873.535C1138.19 873.535 1138.19 874.581 1138.61 874.685L1144.57 876.463C1144.57 876.463 1145.41 876.254 1145.51 875.626L1147.81 867.888C1147.81 867.888 1148.23 867.156 1148.55 867.051C1152.1 866.842 1155.76 865.064 1158.9 862.032C1162.14 858.999 1164.65 854.816 1166.32 850.11C1171.97 833.483 1163.08 824.699 1158.69 820.411C1152.73 814.555 1151.37 810.581 1153.36 804.83C1155.34 798.974 1160.15 795.627 1164.23 797.301C1168.42 798.974 1169.88 803.366 1168.52 809.536C1168.42 810.059 1168.52 810.477 1168.94 810.581L1174.9 812.359C1174.9 812.359 1175.74 812.045 1175.84 811.523C1178.25 801.483 1176.26 793.013 1170.82 788.725V788.83Z" fill="#003B2F"/><path fill-rule="evenodd" clip-rule="evenodd" d="M1124.7 825.012L1110.9 821.038C1110.9 821.038 1110.27 821.143 1110.06 821.456L1104.83 829.613C1104.83 829.613 1104.31 830.136 1104 830.032L1098.25 828.358C1098.25 828.358 1097.62 827.417 1098.04 826.79L1130.77 775.653C1131.29 774.921 1132.02 775.13 1132.02 775.967L1132.23 836.724C1132.23 837.352 1131.71 837.979 1131.19 837.875L1125.44 836.201C1125.44 836.201 1125.02 835.783 1125.02 835.365V825.744C1125.02 825.744 1125.02 825.43 1124.91 825.221C1124.91 825.117 1124.7 825.012 1124.6 824.907L1124.7 825.012ZM1116.86 810.894L1123.87 800.019C1124.39 799.287 1125.12 799.496 1125.12 800.333V813.195C1125.12 813.823 1124.6 814.45 1124.18 814.345L1117.17 812.359C1117.17 812.359 1116.55 811.417 1116.96 810.79L1116.86 810.894Z" fill="#003B2F"/><path d="M145.821 763.943H288.355C304.065 763.943 316.8 751.208 316.8 735.498C316.8 719.788 304.065 707.053 288.355 707.053H145.821C130.111 707.053 117.376 719.788 117.376 735.498C117.376 751.208 130.111 763.943 145.821 763.943Z" fill="#03FC9D"/><path d="M209.742 720.403H375.466C393.755 720.403 408.581 705.593 408.581 687.324C408.581 669.055 393.755 654.244 375.466 654.244H209.742C191.453 654.244 176.627 669.055 176.627 687.324C176.627 705.593 191.453 720.403 209.742 720.403Z" fill="#03FC9D"/><path d="M1700.9 439.447H1645.52C1663.09 439.447 1677.3 425.234 1677.3 407.669C1677.3 390.104 1663.09 375.892 1645.52 375.892H1486.37C1468.8 375.892 1454.59 390.104 1454.59 407.669H1405.79C1388.22 407.669 1374.01 421.882 1374.01 439.447C1374.01 457.011 1388.22 471.224 1405.79 471.224H1509.97C1509.97 488.789 1524.18 503.001 1541.74 503.001H1700.9C1718.46 503.001 1732.68 488.789 1732.68 471.224C1732.68 453.659 1718.46 439.447 1700.9 439.447Z" fill="#E6E8EA"/><path d="M1396.58 199.033H1574.3" stroke="#03FC9D" stroke-width="3" stroke-linecap="round" stroke-linejoin="round"/><path d="M1350.06 157.289H1487.24" stroke="#003B2F" stroke-width="3" stroke-linecap="round" stroke-linejoin="round"/><path d="M1448.53 459.925L1471.47 473.146" stroke="#003B2F" stroke-width="3" stroke-linecap="round" stroke-linejoin="round"/><path d="M1494.42 459.925L1481 467.702" stroke="#003B2F" stroke-width="3" stroke-linecap="round" stroke-linejoin="round"/><path d="M1471.47 473.146V499.979" stroke="#003B2F" stroke-width="3" stroke-linecap="round" stroke-linejoin="round"/><path d="M478.723 198.739L473.468 220.973" stroke="#003B2F" stroke-width="3" stroke-linecap="round" stroke-linejoin="round"/><path d="M469.622 237.246L464.345 259.575" stroke="#003B2F" stroke-width="3" stroke-linecap="round" stroke-linejoin="round"/><path d="M441.079 221.909L463.408 227.186" stroke="#003B2F" stroke-width="3" stroke-linecap="round" stroke-linejoin="round"/><path d="M479.682 231.032L501.916 236.287" stroke="#003B2F" stroke-width="3" stroke-linecap="round" stroke-linejoin="round"/><path d="M271.797 398.593H328.857" stroke="#003B2F" stroke-width="3" stroke-linecap="round" stroke-linejoin="round"/><path d="M228.484 398.593H242.835" stroke="#003B2F" stroke-width="3" stroke-linecap="round" stroke-linejoin="round"/><path d="M280.097 359.343H427.934" stroke="#03FC9D" stroke-width="3" stroke-linecap="round" stroke-linejoin="round"/><path d="M813.941 668.674V684.01" stroke="#003B2F" stroke-width="3" stroke-linecap="round" stroke-linejoin="round"/><path d="M813.941 695.265V710.601" stroke="#003B2F" stroke-width="3" stroke-linecap="round" stroke-linejoin="round"/><path d="M792.977 689.638H808.314" stroke="#003B2F" stroke-width="3" stroke-linecap="round" stroke-linejoin="round"/><path d="M819.506 689.638H834.904" stroke="#003B2F" stroke-width="3" stroke-linecap="round" stroke-linejoin="round"/><path d="M1743.15 273.698C1749.97 273.698 1755.49 268.174 1755.49 261.36C1755.49 254.546 1749.97 249.022 1743.15 249.022C1736.34 249.022 1730.82 254.546 1730.82 261.36C1730.82 268.174 1736.34 273.698 1743.15 273.698Z" stroke="#003B2F" stroke-width="3" stroke-linecap="round" stroke-linejoin="round"/><path d="M1504.59 763.655H1540.27" stroke="#003B2F" stroke-width="3" stroke-linecap="round" stroke-linejoin="round"/><path d="M1586.35 708.726H1844.76" stroke="#03FC9D" stroke-width="3" stroke-linecap="round" stroke-linejoin="round"/><path d="M1586.35 763.461H1730.82" stroke="#003B2F" stroke-width="3" stroke-linecap="round" stroke-linejoin="round"/><path d="M456.471 753.692L471.638 768.858" stroke="#003B2F" stroke-width="3" stroke-linecap="round" stroke-linejoin="round"/><path d="M482.721 779.941L497.887 795.01" stroke="#003B2F" stroke-width="3" stroke-linecap="round" stroke-linejoin="round"/><path d="M456.471 795.01L471.638 779.941" stroke="#003B2F" stroke-width="3" stroke-linecap="round" stroke-linejoin="round"/><path d="M482.721 768.858L497.887 753.692" stroke="#003B2F" stroke-width="3" stroke-linecap="round" stroke-linejoin="round"/></svg>