<svg width="1920" height="1081" viewBox="0 0 1920 1081" fill="none" xmlns="http://www.w3.org/2000/svg"><path d="M431.49 542.29L431.178 280.091H1358.56L1359.18 874.984C1359.18 888.417 1349.29 898.205 1335.54 898.205H857.485" stroke="#003D2E" stroke-width="3" stroke-linecap="round" stroke-linejoin="round"/><path d="M1358.56 280.094H431.178V235.735C431.178 222.302 440.966 212.514 454.711 212.514H1323.26C1341.48 212.514 1358.45 229.174 1358.45 246.981V279.99L1358.56 280.094Z" fill="#00FF94" stroke="#003D2E" stroke-width="3" stroke-linecap="round" stroke-linejoin="round"/><path d="M1508.29 838.851H1066.05C1047.83 838.851 1030.86 822.19 1030.86 804.384L1030.44 451.28H1531.62L1532.03 815.734C1532.03 829.167 1522.14 838.955 1508.4 838.955L1508.29 838.851Z" fill="#003D2E"/><path d="M1053.25 509.075H866.856C854.722 509.075 844.885 518.912 844.885 531.047V630.49C844.885 642.625 854.722 652.462 866.856 652.462H1053.25C1065.38 652.462 1075.22 642.625 1075.22 630.49V531.047C1075.22 518.912 1065.38 509.075 1053.25 509.075Z" fill="#00FF94"/><path d="M879.454 573.637L927.874 554.373V567.805L892.054 580.821L927.874 593.525V606.958L879.454 587.694V573.741V573.637Z" fill="#003D2E"/><path d="M967.131 542.917H980.564L955.156 618.723H941.724L967.131 542.917Z" fill="#003D2E"/><path d="M992.228 593.525L1028.05 580.821L992.228 567.805V554.373L1040.65 573.637V587.59L992.228 606.854V593.421V593.525Z" fill="#003D2E"/><path d="M1267.96 246.355C1267.96 254.06 1262.03 260.412 1254.74 260.412C1247.45 260.412 1241.51 254.165 1241.51 246.355C1241.51 238.649 1247.45 232.297 1254.74 232.297C1262.03 232.297 1267.96 238.545 1267.96 246.355Z" fill="white"/><path d="M1318.26 246.355C1318.26 254.06 1312.32 260.412 1305.03 260.412C1297.74 260.412 1291.81 254.165 1291.81 246.355C1291.81 238.649 1297.74 232.297 1305.03 232.297C1312.32 232.297 1318.26 238.545 1318.26 246.355Z" fill="white"/><path d="M1150.2 523.758C1150.2 530.318 1145.2 535.629 1138.95 535.629C1132.7 535.629 1127.7 530.318 1127.7 523.758C1127.7 517.198 1132.7 511.887 1138.95 511.887C1145.2 511.887 1150.2 517.198 1150.2 523.758Z" fill="#00FF94"/><path d="M1307.12 518.97H1203.1" stroke="white" stroke-width="3" stroke-linecap="round" stroke-linejoin="round"/><path d="M1150.2 568.847C1150.2 575.407 1145.2 580.718 1138.95 580.718C1132.7 580.718 1127.7 575.407 1127.7 568.847C1127.7 562.287 1132.7 556.976 1138.95 556.976C1145.2 556.976 1150.2 562.287 1150.2 568.847Z" fill="#00FF94"/><path d="M1150.3 613.936C1150.3 620.496 1145.3 625.807 1139.05 625.807C1132.8 625.807 1127.8 620.496 1127.8 613.936C1127.8 607.376 1132.8 602.065 1139.05 602.065C1145.3 602.065 1150.3 607.376 1150.3 613.936Z" fill="#00FF94"/><path d="M1307.22 609.25H1203.2" stroke="white" stroke-width="3" stroke-linecap="round" stroke-linejoin="round"/><path d="M1150.3 659.127C1150.3 665.687 1145.3 670.997 1139.05 670.997C1132.8 670.997 1127.8 665.687 1127.8 659.127C1127.8 652.566 1132.8 647.256 1139.05 647.256C1145.3 647.256 1150.3 652.566 1150.3 659.127Z" fill="#00FF94"/><path d="M1349.81 654.338H1245.78" stroke="white" stroke-width="3" stroke-linecap="round" stroke-linejoin="round"/><path d="M1150.4 704.216C1150.4 710.776 1145.4 716.086 1139.16 716.086C1132.91 716.086 1127.91 710.776 1127.91 704.216C1127.91 697.655 1132.91 692.345 1139.16 692.345C1145.4 692.345 1150.4 697.655 1150.4 704.216Z" fill="#00FF94"/><path d="M1349.81 699.422H1245.78" stroke="white" stroke-width="3" stroke-linecap="round" stroke-linejoin="round"/><path d="M1150.4 749.304C1150.4 755.865 1145.4 761.175 1139.16 761.175C1132.91 761.175 1127.91 755.865 1127.91 749.304C1127.91 742.744 1132.91 737.434 1139.16 737.434C1145.4 737.434 1150.4 742.744 1150.4 749.304Z" fill="#00FF94"/><path d="M1349.81 744.511H1245.78" stroke="white" stroke-width="3" stroke-linecap="round" stroke-linejoin="round"/><path d="M1349.71 564.054H1245.68" stroke="white" stroke-width="3" stroke-linecap="round" stroke-linejoin="round"/><path d="M1433.74 564.054H1381.78" stroke="white" stroke-width="3" stroke-linecap="round" stroke-linejoin="round"/><path d="M1433.85 654.338H1381.88" stroke="white" stroke-width="3" stroke-linecap="round" stroke-linejoin="round"/><path d="M1433.95 699.422H1381.99" stroke="white" stroke-width="3" stroke-linecap="round" stroke-linejoin="round"/><path d="M1418.12 744.511H1381.99" stroke="white" stroke-width="3" stroke-linecap="round" stroke-linejoin="round"/><path d="M1531.52 451.176H1030.34V425.456C1030.34 412.024 1040.23 402.235 1053.98 402.235H1496.22C1514.44 402.235 1531.41 418.896 1531.41 436.702V451.176H1531.52Z" fill="#00FF94" stroke="#003D2E" stroke-width="3" stroke-linecap="round" stroke-linejoin="round"/><path d="M1500.07 426.705C1500.07 433.265 1495.07 438.576 1488.83 438.576C1482.58 438.576 1477.58 433.265 1477.58 426.705C1477.58 420.145 1482.58 414.834 1488.83 414.834C1495.07 414.834 1500.07 420.145 1500.07 426.705Z" fill="white"/><path d="M1456.54 426.705C1456.54 433.265 1451.54 438.576 1445.3 438.576C1439.05 438.576 1434.05 433.265 1434.05 426.705C1434.05 420.145 1439.05 414.834 1445.3 414.834C1451.54 414.834 1456.54 420.145 1456.54 426.705Z" fill="white"/><path d="M962.65 412.858H716.696C698.473 412.858 681.5 396.197 681.5 378.391L681.292 177.212H986.08L986.288 389.741C986.288 403.174 976.396 412.962 962.65 412.962V412.858Z" fill="white" stroke="#003D2E" stroke-width="3" stroke-linecap="round" stroke-linejoin="round"/><path d="M985.978 177.107H681.19V162.217C681.19 153.574 687.542 147.326 696.393 147.326H963.278C974.94 147.326 985.874 158.052 985.978 169.506V177.107Z" fill="#00FF94" stroke="#003D2E" stroke-width="3" stroke-linecap="round" stroke-linejoin="round"/><path d="M966.82 162.216C966.82 166.173 963.8 169.505 960.051 169.505C956.303 169.505 953.179 166.277 953.179 162.216C953.179 158.259 956.198 154.927 959.947 154.927C963.696 154.927 966.82 158.155 966.82 162.216Z" fill="white"/><path d="M940.37 162.216C940.37 166.173 937.351 169.505 933.602 169.505C929.853 169.505 926.729 166.277 926.729 162.216C926.729 158.259 929.749 154.927 933.498 154.927C937.247 154.927 940.37 158.155 940.37 162.216Z" fill="white"/><path d="M718.363 366.521C718.363 366.521 723.674 346.632 740.855 344.446C758.037 342.259 769.907 329.138 785.735 324.557C801.563 320.079 818.328 324.557 827.908 320.183C837.488 315.81 840.924 298.733 859.771 294.672C878.619 290.715 887.366 298.108 901.215 291.235C915.064 284.363 943.283 253.332 943.283 253.332V366.417H718.363V366.521Z" fill="#00FF94"/><path d="M718.363 366.52V223.445" stroke="#163B2F" stroke-width="3" stroke-linecap="round" stroke-linejoin="round"/><path d="M775.944 270.202V366.522" stroke="#163B2F" stroke-width="3" stroke-linecap="round" stroke-linejoin="round"/><path d="M830.094 366.521V253.332" stroke="#163B2F" stroke-width="3" stroke-linecap="round" stroke-linejoin="round"/><path d="M886.847 237.814V366.518" stroke="#163B2F" stroke-width="3" stroke-linecap="round" stroke-linejoin="round"/><path d="M942.659 366.52V223.445" stroke="#163B2F" stroke-width="3" stroke-linecap="round" stroke-linejoin="round"/><path d="M957.237 366.522H718.363" stroke="#163B2F" stroke-width="3" stroke-linecap="round" stroke-linejoin="round"/><path d="M922.772 241.77L876.642 277.382L854.567 260.305L802.294 299.874L768.764 284.359L733.464 318.93" stroke="#163B2F" stroke-width="3" stroke-linecap="round" stroke-linejoin="round"/><path d="M920.894 240.94L917.771 237.608L927.871 236.879L926.205 246.771L923.081 243.439L920.894 240.94Z" fill="#003D2E"/><path d="M490.843 594.357H463.769C424.304 594.357 388.483 608.414 388.483 647.88" stroke="#003D2E" stroke-width="3" stroke-linecap="round" stroke-linejoin="round"/><path d="M794.382 594.357H690.877" stroke="#003D2E" stroke-width="3" stroke-linecap="round" stroke-linejoin="round"/><path d="M482.615 610.083H465.33C425.865 610.083 390.044 624.141 390.044 663.606" stroke="#003D2E" stroke-width="3" stroke-linecap="round" stroke-linejoin="round"/><path d="M796.048 610.083H698.895" stroke="#003D2E" stroke-width="3" stroke-linecap="round" stroke-linejoin="round"/><path d="M599.661 767.317C662.173 767.317 712.85 716.641 712.85 654.128C712.85 591.616 662.173 540.939 599.661 540.939C537.148 540.939 486.472 591.616 486.472 654.128C486.472 716.641 537.148 767.317 599.661 767.317Z" fill="#00FF94"/><path d="M586.954 767.317C649.466 767.317 700.143 716.641 700.143 654.128C700.143 591.616 649.466 540.939 586.954 540.939C524.441 540.939 473.765 591.616 473.765 654.128C473.765 716.641 524.441 767.317 586.954 767.317Z" stroke="#003C2E" stroke-width="3" stroke-linecap="round" stroke-linejoin="round"/><path d="M634.855 627.889C633.606 614.04 620.902 609.666 604.762 608.729L605.074 589.465L592.579 589.778L592.266 608.521C588.934 608.521 585.602 608.729 582.27 608.833L582.582 589.986L570.087 590.298L569.774 609.562C567.067 609.667 564.36 609.771 561.756 609.875L544.471 610.187L544.263 622.683C544.263 622.683 553.53 622.266 553.322 622.474C558.424 622.37 559.986 625.078 560.507 627.473L560.194 649.34C560.194 649.34 561.028 649.34 561.548 649.34C561.132 649.34 560.715 649.34 560.194 649.34L559.778 680.058C559.57 681.516 558.528 683.911 554.988 684.015C555.092 684.119 545.825 684.223 545.825 684.223L543.117 698.281L559.466 697.968C562.485 697.968 565.505 697.968 568.421 697.864L568.108 717.337L580.604 717.024L580.916 697.76C584.353 697.76 587.685 697.76 590.913 697.656L590.6 716.816L603.096 716.504L603.408 697.135C624.547 695.574 639.333 690.263 641.416 671.728C643.082 656.837 635.689 650.381 623.818 647.882C631.107 644.238 635.793 638.094 634.855 627.993V627.889ZM616.737 669.853C616.529 684.432 589.871 683.286 581.437 683.494L581.853 657.774C590.392 657.566 617.049 654.755 616.841 669.853H616.737ZM611.426 633.616C611.218 646.841 589.038 645.799 581.958 645.904L582.27 622.579C589.351 622.474 611.635 619.871 611.426 633.616Z" fill="#003C2E"/><path d="M388.483 644.654C388.483 672.457 421.076 694.949 461.27 694.949H798.13V933.927H448.566C415.349 933.927 388.483 907.061 388.483 873.844V644.55V644.654Z" fill="#E6E8EA"/><path d="M732.63 933.925H462.934C414.93 933.925 390.147 911.433 390.147 883.631L388.585 647.881" stroke="#003D2E" stroke-width="3" stroke-linecap="round" stroke-linejoin="round"/><path d="M388.585 645.278C388.585 673.08 422.74 694.948 462.934 694.948H799.793V933.925" stroke="#003D2E" stroke-width="3" stroke-linecap="round" stroke-linejoin="round"/><path d="M461.27 594.357C421.076 594.357 388.483 616.849 388.483 644.652C388.483 672.454 421.076 694.946 461.27 694.946H798.13V933.924" stroke="#003D2E" stroke-width="3" stroke-linecap="round" stroke-linejoin="round"/><path fill-rule="evenodd" clip-rule="evenodd" d="M653.287 785.017L656.827 776.479C656.827 776.479 652.349 771.689 646.935 766.274C641.52 760.859 630.066 764.087 630.066 764.087L617.049 749.301H571.232L558.216 764.087C558.216 764.087 546.762 760.859 541.347 766.274C535.932 771.689 531.455 776.479 531.455 776.479L534.995 785.017L530.518 797.721C530.518 797.721 543.638 847.287 545.096 853.326C548.115 865.197 550.198 869.883 558.737 875.923C567.275 881.962 582.895 892.479 585.394 894.041C587.893 895.603 591.121 898.31 593.933 898.31C596.744 898.31 599.972 895.603 602.471 894.041C604.97 892.479 620.59 881.962 629.128 875.923C637.667 869.883 639.75 865.301 642.769 853.326C644.331 847.287 657.348 797.721 657.348 797.721L652.87 785.017H653.287Z" fill="#003D2E"/><path fill-rule="evenodd" clip-rule="evenodd" d="M610.384 776.165C612.258 776.165 626.42 773.458 626.42 773.458C626.42 773.458 643.185 793.659 643.185 798.033C643.185 801.573 641.727 803.031 640.061 804.697C639.748 805.009 639.332 805.426 639.019 805.738L626.42 819.067C626.42 819.067 626.107 819.379 626.003 819.483C624.754 820.733 622.879 822.607 624.233 825.731L624.545 826.356C626.003 829.688 627.773 833.853 625.483 838.018C623.088 842.496 619.027 845.412 616.423 844.891C613.82 844.37 607.676 841.142 605.386 839.684C603.095 838.227 595.91 832.291 595.91 830C595.91 828.126 601.116 825.002 603.615 823.44C604.136 823.128 604.553 822.92 604.761 822.711C604.969 822.503 605.49 822.295 606.01 821.982C608.301 820.525 612.466 818.025 612.571 816.88C612.675 815.526 612.571 815.11 610.8 811.569C610.384 810.84 609.967 810.007 609.447 809.279C607.676 806.259 605.698 802.927 606.114 800.428C606.635 797.72 610.904 796.158 614.549 794.805C614.966 794.596 615.486 794.492 615.903 794.284L619.651 792.826C623.296 791.472 627.357 789.91 627.982 789.702C628.919 789.286 628.711 788.869 625.899 788.661C625.483 788.661 624.962 788.661 624.545 788.557C621.109 788.14 614.757 787.515 611.633 788.348C611.009 788.557 610.384 788.661 609.655 788.869C606.219 789.806 601.949 790.952 601.533 791.577C601.533 791.681 601.429 791.785 601.325 791.889C600.908 792.41 600.7 792.826 601.116 795.117C601.22 795.846 601.533 797.2 601.845 798.866C602.782 803.864 604.344 811.674 604.448 813.444C604.448 813.652 604.448 813.964 604.448 814.173C604.657 816.151 604.865 817.401 602.574 817.921H601.949C599.346 818.65 595.597 819.483 594.244 819.483C592.89 819.483 589.141 818.65 586.538 818.025H585.913C583.622 817.401 583.831 816.047 584.039 814.069C584.039 813.86 584.039 813.652 584.039 813.34C584.247 811.569 585.705 803.76 586.642 798.761C586.955 797.095 587.267 795.638 587.371 795.013C587.788 792.618 587.579 792.305 587.163 791.785C587.163 791.785 587.059 791.576 586.955 791.472C586.538 790.848 582.269 789.702 578.833 788.765C578.104 788.557 577.479 788.348 576.854 788.244C573.73 787.411 567.378 788.036 563.942 788.453C563.421 788.453 563.005 788.557 562.588 788.557C559.777 788.869 559.569 789.182 560.506 789.598C561.13 789.91 565.192 791.368 568.836 792.722C570.19 793.243 571.543 793.763 572.585 794.18C573.001 794.388 573.418 794.492 573.938 794.7C577.583 796.054 581.852 797.616 582.373 800.323C582.789 802.718 580.811 806.155 579.041 809.174C578.52 810.007 578.104 810.736 577.687 811.465C575.813 814.902 575.813 815.318 575.917 816.776C575.917 817.921 580.186 820.525 582.477 821.878C582.998 822.191 583.414 822.503 583.727 822.607C583.935 822.711 584.351 823.024 584.872 823.336C587.371 824.898 592.578 828.022 592.578 829.896C592.578 832.187 585.393 838.122 583.102 839.58C580.811 841.038 574.667 844.266 572.064 844.787C569.461 845.307 565.4 842.288 563.005 837.914C560.714 833.749 562.484 829.584 563.942 826.252L564.254 825.627C565.608 822.503 563.734 820.733 562.484 819.379C562.38 819.275 562.172 819.067 562.068 818.963L549.468 805.634C549.468 805.634 548.739 804.905 548.427 804.593C546.761 802.927 545.303 801.573 545.303 797.928C545.303 793.555 562.068 773.354 562.068 773.354C562.068 773.354 576.229 776.061 578.104 776.061C579.666 776.061 582.581 775.02 585.601 773.979C586.33 773.666 587.163 773.458 587.892 773.146C591.745 771.896 594.244 771.896 594.244 771.896C594.244 771.896 596.743 771.896 600.596 773.146C601.325 773.354 602.158 773.666 602.886 773.979C605.906 775.02 608.926 776.061 610.384 776.061V776.165ZM607.989 847.807C611.009 849.368 613.091 850.41 613.924 850.93C614.966 851.555 614.341 852.805 613.404 853.43C612.466 854.054 599.763 863.947 598.513 864.988L597.992 865.404C596.847 866.446 595.285 867.799 594.244 867.799C593.202 867.799 591.64 866.446 590.495 865.404L589.974 864.988C588.725 863.947 576.021 854.054 575.084 853.43C574.147 852.805 573.522 851.555 574.563 850.93C575.396 850.41 577.479 849.368 580.499 847.807L583.31 846.349C587.788 844.058 593.411 842.079 594.244 842.079C595.077 842.079 600.7 844.058 605.177 846.349C606.219 846.869 607.156 847.39 607.989 847.807Z" fill="white"/><path fill-rule="evenodd" clip-rule="evenodd" d="M630.066 764.087L617.05 749.301H571.233L558.217 764.087C558.217 764.087 546.762 760.859 541.348 766.274C541.348 766.274 556.655 764.92 561.861 773.459C561.861 773.459 576.023 776.166 577.897 776.166C579.772 776.166 583.937 774.604 587.79 773.355C591.642 772.105 594.141 772.105 594.141 772.105C594.141 772.105 596.641 772.105 600.493 773.355C604.346 774.604 608.407 776.166 610.386 776.166C612.364 776.166 626.422 773.459 626.422 773.459C631.628 764.92 646.935 766.274 646.935 766.274C641.52 760.859 630.066 764.087 630.066 764.087Z" fill="#003D2E"/><path d="M1441.76 154.859L1560.09 154.859C1573.15 154.859 1583.73 144.275 1583.73 131.219C1583.73 118.162 1573.15 107.578 1560.09 107.578L1441.76 107.578C1428.7 107.578 1418.12 118.162 1418.12 131.219C1418.12 144.275 1428.7 154.859 1441.76 154.859Z" fill="#E6E8EA"/><path d="M1502.63 216.856L1691 216.856C1711.77 216.856 1728.6 200.022 1728.6 179.257C1728.6 158.492 1711.77 141.658 1691 141.658L1502.63 141.658C1481.86 141.658 1465.03 158.492 1465.03 179.257C1465.03 200.022 1481.86 216.856 1502.63 216.856Z" fill="#03FC9D"/><path d="M1568.9 120.659L1582.48 134.365" stroke="#003B2F" stroke-width="3" stroke-linecap="round" stroke-linejoin="round"/><path d="M1592.54 144.298L1606.12 157.879" stroke="#003B2F" stroke-width="3" stroke-linecap="round" stroke-linejoin="round"/><path d="M1568.9 157.879L1582.48 144.298" stroke="#003B2F" stroke-width="3" stroke-linecap="round" stroke-linejoin="round"/><path d="M1592.54 134.365L1606.12 120.659" stroke="#003B2F" stroke-width="3" stroke-linecap="round" stroke-linejoin="round"/><path d="M239.267 453.885H138.668C127.556 453.885 118.548 462.865 118.548 473.942C118.548 485.019 127.556 493.999 138.668 493.999H239.267C250.379 493.999 259.387 485.019 259.387 473.942C259.387 462.865 250.379 453.885 239.267 453.885Z" fill="#E6E8EA"/><path d="M274.229 494.127H173.63C162.518 494.127 153.51 503.107 153.51 514.184C153.51 525.262 162.518 534.241 173.63 534.241H274.229C285.341 534.241 294.349 525.262 294.349 514.184C294.349 503.107 285.341 494.127 274.229 494.127Z" fill="#E6E8EA"/><path d="M188.218 474.007H87.6188C76.507 474.007 67.499 482.987 67.499 494.064C67.499 505.141 76.507 514.121 87.6188 514.121H188.218C199.33 514.121 208.338 505.141 208.338 494.064C208.338 482.987 199.33 474.007 188.218 474.007Z" fill="#E6E8EA"/><path d="M136.035 542.917C146.175 542.917 154.394 534.697 154.394 524.558C154.394 514.418 146.175 506.198 136.035 506.198C125.896 506.198 117.676 514.418 117.676 524.558C117.676 534.697 125.896 542.917 136.035 542.917Z" stroke="#003B2F" stroke-width="3" stroke-linecap="round" stroke-linejoin="round"/><path d="M1318.26 978.153L1511.03 978.153" stroke="#03FC9D" stroke-width="3" stroke-linecap="round" stroke-linejoin="round"/><path d="M1545.61 978.153H1604.26" stroke="#03FC9D" stroke-width="3" stroke-linecap="round" stroke-linejoin="round"/><path d="M1492.15 933.927L1722.75 933.927" stroke="#03FC9D" stroke-width="3" stroke-linecap="round" stroke-linejoin="round"/><path d="M568.379 387.146L581.991 416.071" stroke="#003B2F" stroke-width="3" stroke-linecap="round" stroke-linejoin="round"/><path d="M591.914 437.339L605.526 466.264" stroke="#003B2F" stroke-width="3" stroke-linecap="round" stroke-linejoin="round"/><path d="M547.394 445.28L576.318 431.668" stroke="#003B2F" stroke-width="3" stroke-linecap="round" stroke-linejoin="round"/><path d="M597.588 421.743L626.513 408.131" stroke="#003B2F" stroke-width="3" stroke-linecap="round" stroke-linejoin="round"/><path d="M238.657 875.159L259.387 863.188" stroke="#003B2F" stroke-width="3" stroke-linecap="round" stroke-linejoin="round"/><path d="M280.116 875.159L267.927 868.079" stroke="#003B2F" stroke-width="3" stroke-linecap="round" stroke-linejoin="round"/><path d="M259.387 863.188V838.955" stroke="#003B2F" stroke-width="3" stroke-linecap="round" stroke-linejoin="round"/><path d="M228.939 114.511H473.764" stroke="#03FC9D" stroke-width="3" stroke-linecap="round" stroke-linejoin="round"/><path d="M200.032 147.326H336.949" stroke="#003B2F" stroke-width="3" stroke-linecap="round" stroke-linejoin="round"/><path d="M1645.72 570.334H1708.16" stroke="#003B2F" stroke-width="3" stroke-miterlimit="10" stroke-linecap="round" stroke-linejoin="round"/><path d="M1598.28 570.334H1614.01" stroke="#003B2F" stroke-width="3" stroke-miterlimit="10" stroke-linecap="round" stroke-linejoin="round"/><path d="M1685.85 613.936H1847.66" stroke="#03FC9D" stroke-width="3" stroke-miterlimit="10" stroke-linecap="round" stroke-linejoin="round"/></svg>