<svg width="1921" height="1080" viewBox="0 0 1921 1080" fill="none" xmlns="http://www.w3.org/2000/svg"><path d="M731.783 224.645C761.055 285.128 790.425 345.514 819.697 405.997C869.808 407.451 917.594 403.768 954.136 364.609C981.857 334.949 999.207 288.618 1048.16 311.977C1045.73 267.1 1032.26 223.87 1006.19 200.123C974.297 170.947 936.786 164.162 958.013 103.001C908.095 103.001 878.144 114.245 843.832 150.883C805.836 191.496 791.006 215.825 731.783 224.645Z" fill="#E6E8EA"/><path d="M731.783 224.645C761.055 285.128 790.425 345.514 819.697 405.997C869.808 407.451 917.594 403.768 954.136 364.609C981.857 334.949 999.207 288.618 1048.16 311.977C1045.73 267.1 1032.26 223.87 1006.19 200.123C974.297 170.947 936.786 164.162 958.013 103.001C908.095 103.001 878.144 114.245 843.832 150.883C805.836 191.496 791.006 215.825 731.783 224.645Z" fill="#E6E8EA"/><path d="M731.783 224.645C761.055 285.128 790.425 345.514 819.697 405.997C869.808 407.451 917.594 403.768 954.136 364.609C981.857 334.949 999.207 288.618 1048.16 311.977C1045.73 267.1 1032.26 223.87 1006.19 200.123C974.297 170.947 936.786 164.162 958.013 103.001C908.095 103.001 878.144 114.245 843.832 150.883C805.836 191.496 791.006 215.825 731.783 224.645Z" fill="#E6E8EA"/><path d="M1004.25 198.28C996.299 191.301 988.157 185.68 980.694 180.058C945.412 167.651 907.513 229.394 890.357 249.264C855.657 289.392 823.089 298.504 770.36 304.125C772.88 309.457 774.819 313.334 777.242 318.277C777.727 319.149 778.115 320.119 778.599 320.991C834.333 316.726 862.926 308.487 899.274 267.196C921.955 241.413 961.114 178.895 1004.34 198.28H1004.25Z" fill="#03FC9D"/><path d="M852.846 169.881C876.303 140.706 912.747 107.072 953.651 118.413C954.62 113.663 956.074 108.623 958.013 103.001C908.095 103.001 878.144 114.245 843.832 150.883C805.836 191.496 791.006 215.825 731.783 224.645C734.303 229.88 736.92 235.114 739.441 240.348C798.082 232.206 817.661 213.596 852.846 169.784V169.881Z" fill="#03FC9D"/><path d="M952.004 129.752C914.299 113.08 879.502 159.509 859.922 184.71C826.482 227.552 799.73 243.157 744.481 250.718C746.905 255.758 749.425 260.798 751.848 265.839C803.51 258.181 836.951 245.096 869.034 203.902C884.058 184.613 920.502 126.844 952.682 143.225C951.907 139.154 951.713 134.695 952.101 129.752H952.004Z" fill="#03FC9D"/><path d="M969.157 170.753C964.117 166.197 959.852 161.351 956.847 155.632C926.896 145.939 889.482 201.673 875.718 218.053C842.666 257.697 809.323 270.298 758.145 279.021C759.211 281.153 760.181 283.286 761.247 285.418C762.41 287.841 763.476 290.071 765.027 293.173C816.496 285.903 850.033 275.047 884.054 235.791C898.787 218.732 937.558 157.958 969.157 170.753Z" fill="#03FC9D"/><path d="M943.861 345.708C904.896 385.74 865.35 390.683 811.555 388.938C814.656 395.432 816.304 398.631 819.794 405.997C869.905 407.451 917.691 403.768 954.232 364.609C981.954 334.949 999.304 288.618 1048.25 311.977C1047.77 303.06 1046.8 294.143 1045.44 285.516C996.784 267.585 972.552 316.242 943.861 345.805V345.708Z" fill="#03FC9D"/><path d="M1029.26 231.914C1025.48 224.16 1021.11 217.084 1016.07 210.784C972.263 193.725 930.874 254.498 907.03 280.96C868.744 323.317 842.476 330.878 784.223 332.816C785.967 336.306 787.034 338.632 788.391 341.443C789.263 343.284 790.135 345.126 791.105 346.968C846.063 348.422 871.845 345.126 909.55 305.967C937.756 276.598 979.726 206.81 1029.35 232.011L1029.26 231.914Z" fill="#03FC9D"/><path d="M1041.76 267.196C1040.02 259.926 1037.88 252.947 1035.46 246.259C985.834 225.711 945.609 289.974 916.725 319.731C878.244 359.374 853.528 362.282 797.503 360.053C800.993 367.128 802.544 370.327 805.645 376.821C863.802 378.857 894.431 372.944 934.947 330.877C963.25 301.508 994.267 251.3 1041.76 267.196Z" fill="#03FC9D"/><path d="M840.245 349.876C840.245 349.876 903.635 375.756 828.419 391.264C814.268 394.172 822.022 408.323 822.022 408.323L791.781 357.049L840.245 349.876Z" fill="#E6E8EA"/><path d="M801.084 372.847C801.084 372.847 800.308 356.951 823.28 356.466L791.875 357.145L801.181 372.847H801.084Z" fill="#03FC9D"/><path d="M828.517 391.265C882.021 380.118 865.349 363.834 851.295 355.401C854.396 362.477 850.422 377.695 829.874 375.272C806.805 372.558 809.131 386.321 809.131 386.321L822.119 408.324C822.119 408.324 814.365 394.172 828.517 391.265Z" fill="#03FC9D"/><path d="M579.604 172.692C579.604 172.692 619.442 343.576 644.74 446.126C644.74 446.126 700.861 466.48 736.434 413.364C762.12 374.98 824.929 336.209 864.766 367.42C864.766 367.42 738.372 244.516 695.821 160.576C695.821 160.576 673.528 113.954 635.532 177.151C600.347 235.695 579.798 172.595 579.798 172.595L579.604 172.692Z" fill="#E6E8EA"/><path d="M695.629 160.576C695.629 160.576 673.336 113.954 635.34 177.151C608.394 222.125 589.978 195.373 582.902 180.543C582.418 180.543 582.03 180.64 581.545 180.737C586.586 202.061 600.64 262.447 615.955 326.613C653.757 356.273 672.948 305.095 696.308 279.7C716.372 257.989 733.722 249.459 755.919 248.296C731.88 218.539 709.393 187.522 695.726 160.479L695.629 160.576Z" fill="#003B2F"/><path d="M633.885 401.83C635.339 408.033 636.89 414.14 638.344 420.052C654.143 421.7 695.919 420.052 726.257 368.875C760.376 311.396 802.637 313.432 815.625 316.824C811.457 312.366 807.192 307.713 802.83 302.867C790.036 300.54 753.01 292.495 715.498 353.754C681.865 408.712 650.945 405.416 633.885 401.733V401.83Z" fill="#03FC9D"/><path d="M838.212 340.668C828.519 337.373 774.627 336.694 734.499 391.362C686.907 456.206 641.545 432.944 641.448 432.944C641.642 433.913 641.933 434.882 642.127 435.851C642.999 439.341 643.871 442.83 644.647 446.126C644.647 446.126 700.768 466.481 736.341 413.364C762.026 374.981 824.836 336.21 864.673 367.42C864.673 367.42 854.205 357.146 838.212 340.668Z" fill="#03FC9D"/><path d="M703.287 174.532C701.736 171.915 700.282 169.395 698.925 166.778C698.731 167.747 698.537 168.619 698.343 169.783C696.308 171.527 695.242 172.4 693.206 174.144C695.145 174.338 696.114 174.532 697.956 174.726C698.149 176.761 698.246 177.828 698.44 179.863C699.991 177.828 700.863 176.761 702.414 174.629C702.705 174.629 702.996 174.532 703.19 174.435L703.287 174.532Z" fill="white"/><path d="M614.89 296.662C616.344 298.213 617.022 298.892 618.476 300.346C620.318 300.443 621.287 300.443 623.032 300.346C622.257 301.703 621.869 302.284 621.19 303.447C622.16 304.901 622.644 305.677 623.614 307.034C621.772 306.549 620.803 306.258 618.961 305.677C617.798 306.452 617.119 306.84 615.956 307.518C615.569 306.064 615.278 305.386 614.89 303.835C613.145 302.769 612.176 302.187 610.334 301.024C611.982 300.83 612.855 300.733 614.502 300.443C614.599 298.989 614.696 298.213 614.89 296.565V296.662Z" fill="white"/><path d="M627.392 320.895C628.749 321.573 629.331 321.961 630.591 322.542C632.336 322.252 633.111 322.058 634.856 321.67C634.177 322.736 633.789 323.221 633.111 324.19C633.983 324.966 634.468 325.353 635.34 326.226C633.596 326.226 632.723 326.226 631.076 326.226C629.912 327.001 629.331 327.389 628.265 328.164C627.877 327.195 627.78 326.71 627.392 325.644C625.744 325.159 624.969 324.966 623.321 324.384C624.872 324.093 625.551 323.899 627.101 323.415C627.295 322.445 627.295 321.961 627.489 320.895H627.392Z" fill="white"/><path d="M609.168 214.759C610.428 216.407 611.01 217.279 612.27 218.927C613.724 218.733 614.402 218.733 615.759 218.442C615.371 220.284 615.178 221.156 614.887 222.998C615.953 224.936 616.438 226.003 617.504 227.941C615.953 227.457 615.178 227.166 613.627 226.584C612.851 228.038 612.464 228.717 611.688 230.074C611.107 227.844 610.816 226.778 610.234 224.646C608.683 223.483 608.005 222.901 606.454 221.641C607.617 220.962 608.296 220.575 609.459 219.896C609.362 217.861 609.265 216.795 609.265 214.759H609.168Z" fill="white"/><path d="M625.553 252.948C627.104 254.499 627.88 255.274 629.43 256.825C630.981 256.34 631.757 256.147 633.211 255.565C632.92 257.601 632.823 258.57 632.532 260.508C633.792 262.35 634.374 263.222 635.634 264.87C633.889 264.87 633.114 264.773 631.369 264.482C630.594 266.13 630.206 266.906 629.334 268.456C628.558 266.324 628.17 265.258 627.395 263.125C625.65 262.156 624.778 261.672 623.033 260.605C624.293 259.733 624.972 259.248 626.232 258.376C625.941 256.244 625.747 255.08 625.456 252.948H625.553Z" fill="white"/><path d="M642.997 286.484C644.354 287.356 645.13 287.744 646.487 288.422C648.134 287.356 648.91 286.775 650.558 285.612C650.073 287.55 649.782 288.519 649.201 290.458C650.17 291.524 650.655 292.106 651.624 293.172C649.879 293.85 649.007 294.141 647.359 294.626C646.293 296.371 645.711 297.243 644.548 298.794C644.16 297.437 644.063 296.661 643.579 295.014C641.931 294.82 641.156 294.723 639.508 294.335C640.962 293.172 641.737 292.493 643.094 291.136C643.094 289.295 643.094 288.326 643.094 286.484H642.997Z" fill="white"/><path d="M654.918 306.937C656.178 307.131 656.857 307.228 658.117 307.325C659.765 306.162 660.637 305.483 662.285 304.126C661.509 305.774 661.122 306.549 660.443 308.1C661.315 308.682 661.703 308.973 662.575 309.651C660.928 310.427 660.055 310.814 658.311 311.59C657.147 313.141 656.566 313.916 655.403 315.37C655.112 314.304 654.918 313.819 654.627 312.753C653.077 313.044 652.301 313.141 650.653 313.334C652.204 312.074 652.883 311.493 654.434 310.136C654.627 308.876 654.724 308.197 654.821 306.84L654.918 306.937Z" fill="white"/><path d="M632.725 205.26C634.082 206.52 634.76 207.102 636.214 208.265C637.959 207.78 638.831 207.49 640.576 206.811C639.897 208.556 639.606 209.428 639.025 211.27C640.188 212.821 640.77 213.596 641.933 215.05C640.091 215.05 639.122 215.05 637.28 215.05C636.311 216.601 635.826 217.376 634.857 219.024C634.178 217.085 633.888 216.116 633.306 214.178C631.561 213.402 630.786 213.111 629.138 212.336C630.495 211.367 631.174 210.882 632.531 209.913C632.531 207.974 632.531 207.102 632.531 205.26H632.725Z" fill="white"/><path d="M649.882 236.373C651.529 237.245 652.402 237.73 654.05 238.505C655.697 237.439 656.57 236.955 658.314 235.792C657.927 237.73 657.733 238.699 657.345 240.735C658.702 241.995 659.284 242.576 660.641 243.74C658.799 244.321 657.83 244.612 655.988 245.097C655.116 246.938 654.728 247.907 653.856 249.846C653.08 248.101 652.693 247.229 651.82 245.484C649.979 245.29 649.106 245.194 647.265 244.903C648.622 243.449 649.203 242.77 650.56 241.219C650.269 239.184 650.076 238.215 649.882 236.276V236.373Z" fill="white"/><path d="M668.588 261.381C670.139 261.672 670.817 261.866 672.368 262.06C674.016 260.606 674.791 259.831 676.536 258.377C676.051 260.315 675.761 261.285 675.276 263.126C676.439 263.805 676.924 264.192 677.99 264.871C676.245 265.937 675.373 266.519 673.628 267.488C672.659 269.523 672.174 270.493 671.205 272.528C670.624 271.171 670.333 270.493 669.751 269.136C668.103 269.62 667.231 269.814 665.486 270.202C666.843 268.36 667.522 267.488 668.879 265.646C668.782 263.902 668.685 263.029 668.491 261.285L668.588 261.381Z" fill="white"/><path d="M682.544 279.507C683.804 279.507 684.385 279.507 685.645 279.41C687.293 277.762 688.165 276.89 689.813 275.242C689.038 277.084 688.65 278.053 687.972 279.991C688.844 280.573 689.232 280.864 690.104 281.542C688.456 282.705 687.584 283.287 685.839 284.45C684.676 286.486 684.094 287.455 682.931 289.49C682.641 288.23 682.447 287.649 682.156 286.486C680.605 287.164 679.83 287.455 678.279 288.133C679.83 286.292 680.605 285.322 682.059 283.481C682.253 281.93 682.35 281.348 682.544 279.604V279.507Z" fill="white"/><path d="M663.548 188.683C665.002 189.653 665.777 190.137 667.231 191.01C669.267 189.943 670.333 189.459 672.465 188.393C671.496 190.525 671.011 191.494 670.042 193.53C671.108 194.887 671.593 195.468 672.659 196.728C670.527 197.116 669.557 197.31 667.425 197.698C666.068 199.442 665.389 200.121 664.129 201.866C663.645 200.218 663.451 199.539 662.966 197.892C661.028 197.698 660.155 197.601 658.217 197.31C659.961 195.953 660.931 195.274 662.772 193.821C662.966 191.882 663.16 190.816 663.451 188.78L663.548 188.683Z" fill="white"/><path d="M678.472 214.855C680.119 215.534 680.895 215.824 682.543 216.406C684.384 215.34 685.353 214.855 687.292 213.886C686.614 215.63 686.323 216.503 685.741 218.248C687.001 219.314 687.583 219.798 688.843 220.768C686.904 221.252 685.838 221.543 683.9 222.125C682.833 223.772 682.252 224.645 681.186 226.389C680.507 224.936 680.216 224.257 679.538 222.803C677.599 222.803 676.63 222.803 674.691 222.803C676.242 221.349 677.018 220.671 678.665 219.217C678.665 217.472 678.569 216.6 678.472 214.855Z" fill="white"/><path d="M695.434 235.598C696.985 235.889 697.663 235.986 699.117 236.276C700.862 235.113 701.734 234.629 703.382 233.659C702.801 235.113 702.51 235.889 701.928 237.343C702.994 238.021 703.576 238.312 704.545 238.99C702.8 239.669 701.928 240.057 700.087 240.832C699.02 242.383 698.536 243.158 697.566 244.806C696.985 243.74 696.791 243.158 696.209 242.092C694.465 242.48 693.592 242.674 691.848 243.061C693.302 241.511 693.98 240.735 695.531 239.281C695.531 237.827 695.531 237.149 695.337 235.695L695.434 235.598Z" fill="white"/><path d="M709.396 250.913C710.656 251.107 711.334 251.204 712.595 251.398C714.242 250.235 715.018 249.75 716.762 248.781C716.084 250.235 715.696 250.913 715.018 252.464C716.084 253.143 716.569 253.53 717.538 254.306C715.793 254.887 714.727 255.178 713.079 255.953C712.013 257.601 711.431 258.474 710.365 260.218C709.977 258.958 709.881 258.377 709.493 257.31C707.942 257.698 707.167 257.892 705.616 258.377C707.07 256.729 707.748 255.953 709.202 254.403C709.299 253.046 709.396 252.367 709.493 251.01L709.396 250.913Z" fill="white"/><path d="M709.878 195.953C711.332 196.825 712.01 197.31 713.464 198.279C715.306 197.601 716.275 197.31 718.117 196.729C717.341 198.473 716.954 199.249 716.178 200.896C717.147 202.253 717.632 202.835 718.698 204.192C716.857 204.192 715.887 204.192 714.046 204.192C712.883 205.549 712.204 206.227 711.041 207.681C710.556 206.227 710.363 205.452 709.878 203.998C708.036 203.707 707.164 203.513 705.322 203.223C706.97 202.06 707.842 201.478 709.49 200.315C709.587 198.57 709.684 197.698 709.878 195.953Z" fill="white"/><path d="M723.159 219.702C724.613 220.381 725.291 220.769 726.648 221.447C728.393 221.059 729.265 220.962 730.913 220.672C730.234 221.738 729.944 222.223 729.265 223.289C730.234 224.258 730.719 224.743 731.688 225.712C729.944 225.518 729.071 225.518 727.327 225.518C726.26 226.39 725.679 226.875 724.613 227.747C724.128 226.681 723.934 226.197 723.449 225.13C721.802 224.84 720.832 224.84 719.185 224.549C720.638 223.773 721.414 223.386 722.965 222.61C722.965 221.447 722.965 220.866 723.062 219.605L723.159 219.702Z" fill="white"/><path d="M735.466 238.021C736.63 238.893 737.114 239.378 738.18 240.25C739.634 240.25 740.313 240.25 741.767 240.347C741.088 241.219 740.797 241.704 740.119 242.576C740.797 243.739 741.088 244.321 741.767 245.581C740.41 245.096 739.731 244.806 738.277 244.418C737.308 245.096 736.823 245.484 735.854 246.26C735.563 245 735.466 244.418 735.176 243.255C733.819 242.673 733.14 242.383 731.783 241.898C733.14 241.413 733.722 241.122 735.079 240.735C735.273 239.669 735.273 239.087 735.466 238.021Z" fill="white"/><path d="M653.367 153.209C654.627 154.566 655.306 155.244 656.663 156.601C658.698 155.632 659.764 155.051 661.897 153.984C660.831 156.408 660.249 157.668 659.183 160.091C660.055 161.932 660.54 162.805 661.412 164.55C659.377 164.84 658.311 164.937 656.372 165.228C654.821 167.36 654.143 168.427 652.592 170.462C652.398 168.233 652.301 167.07 652.107 164.84C650.362 164.259 649.49 163.968 647.842 163.289C649.587 161.836 650.556 161.06 652.398 159.509C652.786 156.989 652.979 155.729 653.464 153.306L653.367 153.209Z" fill="white"/><path d="M592.789 199.832C593.856 201.48 594.34 202.352 595.503 204C596.86 204 597.636 204 598.993 204C598.411 205.647 598.217 206.423 597.636 208.071C598.411 210.009 598.896 211.075 599.768 213.014C598.314 212.335 597.539 211.948 596.085 211.269C595.116 212.529 594.728 213.111 593.759 214.371C593.371 212.239 593.177 211.172 592.886 209.137C591.529 207.877 590.754 207.295 589.397 206.035C590.657 205.454 591.336 205.163 592.596 204.581C592.693 202.643 592.789 201.673 592.886 199.735L592.789 199.832Z" fill="white"/><path d="M614.986 194.209C616.052 195.663 616.537 196.438 617.7 197.892C619.154 197.698 619.833 197.601 621.383 197.408C620.705 198.958 620.414 199.831 619.833 201.382C620.705 203.126 621.093 203.999 621.965 205.743C620.414 205.356 619.639 205.162 618.185 204.677C617.312 206.034 616.828 206.713 616.052 207.973C615.568 205.937 615.374 204.968 614.986 203.029C613.629 201.963 612.951 201.479 611.594 200.412C612.757 199.734 613.435 199.443 614.695 198.668C614.695 196.826 614.792 195.954 614.986 194.112V194.209Z" fill="white"/><path d="M642.028 182.772C643.288 184.129 643.966 184.711 645.226 185.971C647.068 185.196 648.037 184.808 650.073 183.936C649.104 186.068 648.619 187.134 647.747 189.17C648.619 190.817 649.104 191.593 650.073 193.047C648.134 193.241 647.165 193.241 645.226 193.338C643.869 194.985 643.288 195.858 642.028 197.409C641.64 195.567 641.543 194.695 641.252 192.756C639.605 192.174 638.732 191.884 637.084 191.108C638.732 190.042 639.508 189.46 641.155 188.2C641.446 186.068 641.64 185.002 641.931 182.772H642.028Z" fill="white"/><path d="M676.051 160.284C677.505 161.35 678.28 161.932 679.734 162.998C681.963 161.738 683.127 161.059 685.356 159.799C684.193 162.319 683.611 163.58 682.448 166.003C683.417 167.65 683.805 168.426 684.774 170.074C682.642 170.558 681.479 170.752 679.346 171.237C677.699 173.466 676.923 174.532 675.372 176.665C675.178 174.629 674.985 173.563 674.791 171.431C672.852 171.14 671.883 171.043 669.944 170.752C671.98 169.007 672.949 168.135 674.985 166.39C675.469 163.967 675.663 162.707 676.051 160.284Z" fill="white"/><path d="M605.1 237.924C606.554 239.765 607.232 240.735 608.686 242.479C610.237 242.479 611.013 242.479 612.563 242.285C612.176 244.127 611.982 244.999 611.594 246.841C612.757 248.973 613.339 250.04 614.599 252.075C612.854 251.397 611.982 251.106 610.237 250.33C609.365 251.687 608.88 252.269 608.008 253.626C607.329 251.397 607.039 250.233 606.36 248.004C604.615 246.647 603.84 245.969 602.095 244.612C603.452 244.03 604.131 243.739 605.488 243.158C605.294 241.025 605.294 239.959 605.1 237.827V237.924Z" fill="white"/><path d="M628.268 228.813C629.722 230.267 630.4 230.946 631.951 232.303C633.502 231.818 634.277 231.527 635.925 230.849C635.634 232.787 635.441 233.757 635.15 235.792C636.41 237.537 637.088 238.409 638.348 240.057C636.604 240.057 635.731 240.057 633.987 239.96C633.211 241.705 632.92 242.48 632.145 244.225C631.37 242.092 630.982 241.026 630.206 238.991C628.559 238.215 627.686 237.731 626.039 236.858C627.202 235.889 627.783 235.307 628.946 234.241C628.656 232.109 628.559 231.043 628.268 228.91V228.813Z" fill="white"/><path d="M654.919 212.53C656.567 213.402 657.342 213.887 658.99 214.662C660.832 213.693 661.801 213.208 663.74 212.239C663.158 214.08 662.867 215.05 662.286 216.988C663.546 218.248 664.224 218.83 665.484 220.09C663.449 220.478 662.479 220.768 660.541 221.156C659.475 222.901 658.99 223.773 658.021 225.615C657.245 223.967 656.955 223.095 656.179 221.35C654.241 221.156 653.271 220.962 651.43 220.671C652.884 219.315 653.659 218.636 655.21 217.279C655.113 215.34 655.016 214.468 655.016 212.53H654.919Z" fill="white"/><path d="M687.196 192.465C688.746 193.24 689.522 193.628 690.976 194.5C693.011 193.531 694.077 193.046 696.113 192.077C695.144 194.016 694.756 194.985 693.884 196.73C694.95 197.893 695.531 198.474 696.598 199.734C694.562 200.025 693.496 200.219 691.46 200.607C690.2 202.255 689.522 203.127 688.262 204.775C687.68 203.224 687.486 202.448 687.002 200.898C685.063 200.801 684.094 200.704 682.155 200.607C683.9 199.25 684.869 198.571 686.614 197.214C686.808 195.47 686.905 194.5 687.099 192.562L687.196 192.465Z" fill="white"/><path d="M622.158 276.986C623.709 278.634 624.485 279.409 626.035 280.96C627.78 280.766 628.556 280.572 630.203 280.185C629.719 282.026 629.525 282.899 628.943 284.643C630.106 286.388 630.591 287.26 631.657 289.005C629.913 288.714 628.943 288.52 627.102 288.133C626.035 289.49 625.551 290.071 624.388 291.331C623.903 289.393 623.612 288.424 623.031 286.485C621.189 285.419 620.317 284.837 618.475 283.674C620.026 283.093 620.801 282.705 622.255 282.026C622.255 279.991 622.061 279.022 621.965 276.986H622.158Z" fill="white"/><path d="M647.168 261.963C648.718 262.836 649.494 263.223 651.045 263.999C652.596 262.836 653.468 262.254 655.019 260.994C654.631 263.029 654.534 263.999 654.146 266.034C655.406 267.197 655.988 267.779 657.151 268.845C655.406 269.524 654.534 269.911 652.789 270.493C651.917 272.431 651.529 273.401 650.657 275.339C649.979 273.691 649.591 272.819 648.912 271.074C647.168 271.074 646.392 270.881 644.647 270.687C645.908 269.233 646.586 268.457 647.846 267.003C647.555 265.065 647.458 263.999 647.168 261.963Z" fill="white"/><path d="M673.141 237.924C674.789 238.409 675.564 238.603 677.212 238.99C678.956 237.73 679.829 237.149 681.573 235.889C681.089 237.633 680.798 238.603 680.313 240.347C681.573 241.22 682.155 241.607 683.318 242.383C681.477 243.158 680.507 243.643 678.666 244.418C677.696 246.26 677.212 247.229 676.339 249.071C675.661 247.714 675.273 247.035 674.595 245.678C672.753 245.969 671.881 246.066 670.039 246.26C671.396 244.612 672.171 243.837 673.625 242.189C673.432 240.444 673.335 239.572 673.141 237.924Z" fill="white"/><path d="M702.026 216.6C703.577 217.181 704.353 217.472 705.806 218.054C707.648 217.278 708.52 216.891 710.265 216.212C709.587 217.666 709.296 218.345 708.617 219.798C709.684 220.768 710.265 221.155 711.331 222.028C709.49 222.319 708.617 222.512 706.679 222.803C705.613 224.16 705.031 224.839 703.965 226.196C703.383 225.033 703.189 224.451 702.608 223.191C700.766 223.191 699.894 223.191 698.052 223.191C699.603 221.931 700.379 221.349 701.929 220.089C701.929 218.635 701.929 217.86 701.929 216.406L702.026 216.6Z" fill="white"/><path d="M635.533 307.226C636.89 307.905 637.471 308.292 638.732 308.777C640.476 308.098 641.252 307.711 642.996 306.935C642.318 308.292 641.93 308.971 641.155 310.328C642.027 311.103 642.512 311.491 643.384 312.169C641.639 312.557 640.767 312.751 639.022 313.042C637.859 314.205 637.278 314.69 636.211 315.756C635.824 314.69 635.727 314.205 635.339 313.139C633.691 312.945 632.916 312.751 631.268 312.46C632.819 311.782 633.594 311.394 635.048 310.522C635.145 309.262 635.242 308.583 635.436 307.226H635.533Z" fill="white"/><path d="M663.159 286.096C664.516 286.386 665.194 286.483 666.454 286.677C668.102 285.126 668.975 284.254 670.622 282.703C669.944 284.739 669.653 285.708 668.975 287.743C669.847 288.422 670.332 288.616 671.204 289.1C669.459 290.263 668.587 290.748 666.939 291.814C665.776 293.656 665.194 294.528 664.031 296.273C663.74 295.207 663.547 294.625 663.256 293.559C661.705 294.044 660.833 294.334 659.282 294.722C660.833 293.171 661.608 292.299 663.062 290.457C663.159 288.713 663.256 287.84 663.256 286.096H663.159Z" fill="white"/><path d="M689.62 256.435C690.977 256.435 691.753 256.435 693.11 256.532C694.757 255.078 695.63 254.303 697.278 252.946C696.696 254.594 696.405 255.466 695.727 257.211C696.696 257.792 697.181 258.083 698.15 258.568C696.405 259.634 695.63 260.118 693.885 261.282C692.819 263.22 692.334 264.189 691.268 266.128C690.88 264.965 690.686 264.383 690.202 263.22C688.554 263.899 687.779 264.189 686.131 264.771C687.585 262.929 688.263 261.96 689.717 260.215C689.717 258.665 689.717 257.889 689.717 256.435H689.62Z" fill="white"/><path d="M716.275 234.336C717.632 234.724 718.311 234.918 719.668 235.305C721.412 234.627 722.285 234.336 723.932 233.851C723.351 234.918 722.963 235.499 722.382 236.565C723.351 237.341 723.835 237.728 724.805 238.504C723.157 238.601 722.285 238.698 720.443 238.988C719.377 240.055 718.795 240.636 717.729 241.896C717.244 240.927 717.05 240.442 716.566 239.473C715.015 239.473 714.24 239.667 712.592 239.861C714.046 238.698 714.724 238.116 716.178 237.147C716.178 235.984 716.178 235.402 716.275 234.239V234.336Z" fill="white"/><path d="M742.83 231.816C743.12 232.979 743.217 233.561 743.508 234.627C743.896 234.336 744.284 234.239 744.574 234.045C743.993 233.27 743.411 232.591 742.83 231.816Z" fill="white"/><path d="M741.183 229.684C740.601 229.781 739.923 229.975 739.147 230.168C740.698 230.75 741.377 231.138 742.831 231.816C742.249 231.138 741.765 230.362 741.183 229.684Z" fill="white"/><path d="M785.576 283.48C780.148 277.277 774.623 270.783 769.098 264.288C757.37 261.865 719.762 259.345 694.076 314.885C663.35 381.377 635.822 353.365 622.446 353.947C622.446 354.14 622.543 354.334 622.64 354.625L625.839 367.807C626.711 371.491 627.583 375.077 628.456 378.663C628.65 378.663 672.655 394.462 708.131 322.154C733.429 270.589 768.904 279.603 785.673 283.577L785.576 283.48Z" fill="#03FC9D"/><path d="M765.223 855.063L578.152 154.857C578.152 154.857 572.821 148.847 568.847 156.601L751.168 853.512L765.223 855.063Z" fill="#003B2F"/><path d="M1278.26 730.804C1300.45 599.176 1211.77 474.43 1080.04 452.233C948.413 430.037 823.667 518.726 801.47 650.451C779.274 782.079 867.963 906.825 999.688 929.021C1131.32 951.218 1256.06 862.529 1278.26 730.804Z" fill="#003B2F"/><mask id="mask0_1811_2" style="mask-type:luminance" maskUnits="userSpaceOnUse" x="798" y="448" width="484" height="485"><path d="M1278.26 730.804C1300.45 599.176 1211.77 474.43 1080.04 452.233C948.413 430.037 823.667 518.726 801.47 650.451C779.274 782.079 867.963 906.825 999.688 929.021C1131.32 951.218 1256.06 862.529 1278.26 730.804Z" fill="white"/></mask><g mask="url(#mask0_1811_2)"><path d="M1300.45 430.038H779.272V951.219H1300.45V430.038Z" fill="#003B2F"/></g><path d="M1252.57 730.804C1274.77 599.176 1186.08 474.43 1054.36 452.233C922.728 430.037 797.982 518.726 775.785 650.451C753.589 782.079 842.278 906.825 974.003 929.021C1105.63 951.218 1230.38 862.529 1252.57 730.804Z" fill="#03FC9D" stroke="#003B2F" stroke-width="3" stroke-linecap="round" stroke-linejoin="round"/><path d="M1222.44 725.725C1241.83 610.735 1164.35 501.757 1049.28 482.367C934.287 462.976 825.31 540.454 805.919 655.529C786.528 770.519 864.006 879.497 979.081 898.887C1094.07 918.278 1203.05 840.8 1222.44 725.725Z" fill="#03FC9D" stroke="#003B2F" stroke-width="3" stroke-linecap="round" stroke-linejoin="round"/><path d="M1144.94 731.25V648.675H1176.64C1182.33 648.675 1187.36 649.672 1191.72 651.667C1196.15 653.662 1199.62 656.618 1202.13 660.534C1204.65 664.451 1205.9 669.291 1205.9 675.054C1205.9 680.67 1204.61 685.436 1202.02 689.352C1199.51 693.269 1196.04 696.261 1191.6 698.33C1187.24 700.326 1182.26 701.323 1176.64 701.323H1162.12V731.25H1144.94ZM1162.12 686.36H1176.75C1179.19 686.36 1181.3 685.88 1183.07 684.919C1184.84 683.958 1186.21 682.628 1187.17 680.929C1188.21 679.229 1188.72 677.271 1188.72 675.054C1188.72 672.764 1188.21 670.768 1187.17 669.069C1186.21 667.369 1184.84 666.039 1183.07 665.079C1181.3 664.118 1179.19 663.638 1176.75 663.638H1162.12V686.36Z" fill="#003B2F"/><path d="M1043.84 731.25V648.675H1060.47L1091.39 689.685H1083.63L1113.67 648.675H1130.3V731.25H1113.12V667.628L1119.99 669.18L1088.18 710.19H1085.96L1055.26 669.18L1061.02 667.628V731.25H1043.84Z" fill="#003B2F"/><path d="M996.446 732.58C989.943 732.58 984.142 731.213 979.044 728.479C973.945 725.745 969.918 722.013 966.962 717.284C964.081 712.481 962.64 707.05 962.64 700.991V648.675H979.82V699.882C979.82 703.133 980.522 706.089 981.926 708.749C983.403 711.336 985.399 713.368 987.911 714.845C990.423 716.323 993.268 717.062 996.446 717.062C999.697 717.062 1002.54 716.323 1004.98 714.845C1007.49 713.368 1009.45 711.336 1010.85 708.749C1012.33 706.089 1013.07 703.133 1013.07 699.882V648.675H1030.25V700.991C1030.25 707.05 1028.77 712.481 1025.82 717.284C1022.94 722.013 1018.95 725.745 1013.85 728.479C1008.75 731.213 1002.95 732.58 996.446 732.58Z" fill="#003B2F"/><path d="M889.708 731.25V648.675H921.297C926.987 648.675 932.012 649.672 936.371 651.667C940.805 653.662 944.278 656.618 946.79 660.534C949.302 664.451 950.559 669.291 950.559 675.054C950.559 680.67 949.266 685.473 946.679 689.463C944.093 693.38 940.62 696.335 936.26 698.33L955.103 731.25H935.817L915.423 694.784L926.507 701.323H906.888V731.25H889.708ZM906.888 686.36H921.408C923.846 686.36 925.952 685.88 927.726 684.919C929.499 683.958 930.866 682.628 931.827 680.929C932.861 679.229 933.379 677.271 933.379 675.054C933.379 672.764 932.861 670.768 931.827 669.069C930.866 667.369 929.499 666.039 927.726 665.079C925.952 664.118 923.846 663.638 921.408 663.638H906.888V686.36Z" fill="#003B2F"/><path d="M843.405 731.25V663.638H822.456V648.675H881.201V663.638H860.585V731.25H843.405Z" fill="#003B2F"/><path d="M1153.8 954.901H1365.59C1370.62 954.901 1374.7 950.822 1374.7 945.79V914.773C1374.7 909.741 1370.62 905.662 1365.59 905.662H1153.8C1148.77 905.662 1144.69 909.741 1144.69 914.773V945.79C1144.69 950.822 1148.77 954.901 1153.8 954.901Z" fill="#03FC9D"/><path d="M1206.63 905.758H1174.45V954.997H1206.63V905.758Z" fill="#A9FEDE"/><path d="M1153.8 954.901H1365.59C1370.62 954.901 1374.7 950.822 1374.7 945.79V914.773C1374.7 909.741 1370.62 905.662 1365.59 905.662H1153.8C1148.77 905.662 1144.69 909.741 1144.69 914.773V945.79C1144.69 950.822 1148.77 954.901 1153.8 954.901Z" stroke="#003B2F" stroke-width="3" stroke-linecap="round" stroke-linejoin="round"/><path d="M1259.84 945.402V915.936" stroke="#003B2F" stroke-width="3" stroke-linecap="round" stroke-linejoin="round"/><path d="M1276.71 945.402V915.936" stroke="#003B2F" stroke-width="3" stroke-linecap="round" stroke-linejoin="round"/><path d="M1293.67 945.402V915.936" stroke="#003B2F" stroke-width="3" stroke-linecap="round" stroke-linejoin="round"/><path d="M1310.53 945.402V915.936" stroke="#003B2F" stroke-width="3" stroke-linecap="round" stroke-linejoin="round"/><path d="M1327.4 945.402V915.936" stroke="#003B2F" stroke-width="3" stroke-linecap="round" stroke-linejoin="round"/><path d="M1175.81 905.566H1387.59C1392.62 905.566 1396.7 901.487 1396.7 896.455V865.438C1396.7 860.406 1392.62 856.327 1387.59 856.327H1175.81C1170.77 856.327 1166.69 860.406 1166.69 865.438V896.455C1166.69 901.487 1170.77 905.566 1175.81 905.566Z" fill="#03FC9D"/><path d="M1228.63 856.326H1196.45V905.566H1228.63V856.326Z" fill="#A9FEDE"/><path d="M1175.81 905.566H1387.59C1392.62 905.566 1396.7 901.487 1396.7 896.455V865.438C1396.7 860.406 1392.62 856.327 1387.59 856.327H1175.81C1170.77 856.327 1166.69 860.406 1166.69 865.438V896.455C1166.69 901.487 1170.77 905.566 1175.81 905.566Z" stroke="#003B2F" stroke-width="3" stroke-linecap="round" stroke-linejoin="round"/><path d="M1281.84 896.067V866.601" stroke="#003B2F" stroke-width="3" stroke-linecap="round" stroke-linejoin="round"/><path d="M1298.71 896.067V866.601" stroke="#003B2F" stroke-width="3" stroke-linecap="round" stroke-linejoin="round"/><path d="M1315.67 896.067V866.601" stroke="#003B2F" stroke-width="3" stroke-linecap="round" stroke-linejoin="round"/><path d="M1332.54 896.067V866.601" stroke="#003B2F" stroke-width="3" stroke-linecap="round" stroke-linejoin="round"/><path d="M1349.41 896.067V866.601" stroke="#003B2F" stroke-width="3" stroke-linecap="round" stroke-linejoin="round"/><path d="M1213.51 857.588H1425.3C1430.33 857.588 1434.41 853.508 1434.41 848.476V817.459C1434.41 812.427 1430.33 808.348 1425.3 808.348H1213.51C1208.48 808.348 1204.4 812.427 1204.4 817.459V848.476C1204.4 853.508 1208.48 857.588 1213.51 857.588Z" fill="#03FC9D"/><path d="M1266.44 808.347H1234.26V857.587H1266.44V808.347Z" fill="#A9FEDE"/><path d="M1213.51 857.588H1425.3C1430.33 857.588 1434.41 853.508 1434.41 848.476V817.459C1434.41 812.427 1430.33 808.348 1425.3 808.348H1213.51C1208.48 808.348 1204.4 812.427 1204.4 817.459V848.476C1204.4 853.508 1208.48 857.588 1213.51 857.588Z" stroke="#003B2F" stroke-width="3" stroke-linecap="round" stroke-linejoin="round"/><path d="M1319.55 848.088V818.622" stroke="#003B2F" stroke-width="3" stroke-linecap="round" stroke-linejoin="round"/><path d="M1336.42 848.088V818.622" stroke="#003B2F" stroke-width="3" stroke-linecap="round" stroke-linejoin="round"/><path d="M1353.38 848.088V818.622" stroke="#003B2F" stroke-width="3" stroke-linecap="round" stroke-linejoin="round"/><path d="M1370.24 848.088V818.622" stroke="#003B2F" stroke-width="3" stroke-linecap="round" stroke-linejoin="round"/><path d="M1387.11 848.088V818.622" stroke="#003B2F" stroke-width="3" stroke-linecap="round" stroke-linejoin="round"/><path d="M1195.87 810.674H1407.66C1412.69 810.674 1416.77 806.595 1416.77 801.563V770.546C1416.77 765.514 1412.69 761.435 1407.66 761.435H1195.87C1190.84 761.435 1186.76 765.514 1186.76 770.546V801.563C1186.76 806.595 1190.84 810.674 1195.87 810.674Z" fill="#03FC9D"/><path d="M1248.69 761.531H1216.51V810.77H1248.69V761.531Z" fill="#A9FEDE"/><path d="M1195.87 810.674H1407.66C1412.69 810.674 1416.77 806.595 1416.77 801.563V770.546C1416.77 765.514 1412.69 761.435 1407.66 761.435H1195.87C1190.84 761.435 1186.76 765.514 1186.76 770.546V801.563C1186.76 806.595 1190.84 810.674 1195.87 810.674Z" stroke="#003B2F" stroke-width="3" stroke-linecap="round" stroke-linejoin="round"/><path d="M1301.91 801.272V771.708" stroke="#003B2F" stroke-width="3" stroke-linecap="round" stroke-linejoin="round"/><path d="M1318.77 801.272V771.708" stroke="#003B2F" stroke-width="3" stroke-linecap="round" stroke-linejoin="round"/><path d="M1335.74 801.272V771.708" stroke="#003B2F" stroke-width="3" stroke-linecap="round" stroke-linejoin="round"/><path d="M1352.6 801.272V771.708" stroke="#003B2F" stroke-width="3" stroke-linecap="round" stroke-linejoin="round"/><path d="M1369.47 801.272V771.708" stroke="#003B2F" stroke-width="3" stroke-linecap="round" stroke-linejoin="round"/><path d="M537.829 959.068H749.616C754.648 959.068 758.728 954.989 758.728 949.957V918.94C758.728 913.908 754.648 909.829 749.616 909.829H537.829C532.797 909.829 528.718 913.908 528.718 918.94V949.957C528.718 954.989 532.797 959.068 537.829 959.068Z" fill="#03FC9D"/><path d="M590.752 909.828H558.572V959.067H590.752V909.828Z" fill="#A9FEDE"/><path d="M537.829 959.068H749.616C754.648 959.068 758.728 954.989 758.728 949.957V918.94C758.728 913.908 754.648 909.829 749.616 909.829H537.829C532.797 909.829 528.718 913.908 528.718 918.94V949.957C528.718 954.989 532.797 959.068 537.829 959.068Z" stroke="#003B2F" stroke-width="3" stroke-linecap="round" stroke-linejoin="round"/><path d="M643.967 949.569V920.103" stroke="#003B2F" stroke-width="3" stroke-linecap="round" stroke-linejoin="round"/><path d="M660.834 949.569V920.103" stroke="#003B2F" stroke-width="3" stroke-linecap="round" stroke-linejoin="round"/><path d="M677.698 949.569V920.103" stroke="#003B2F" stroke-width="3" stroke-linecap="round" stroke-linejoin="round"/><path d="M694.66 949.569V920.103" stroke="#003B2F" stroke-width="3" stroke-linecap="round" stroke-linejoin="round"/><path d="M711.528 949.569V920.103" stroke="#003B2F" stroke-width="3" stroke-linecap="round" stroke-linejoin="round"/><path d="M560.414 907.504H772.201C777.233 907.504 781.312 903.425 781.312 898.393V867.376C781.312 862.344 777.233 858.265 772.201 858.265H560.414C555.382 858.265 551.303 862.344 551.303 867.376V898.393C551.303 903.425 555.382 907.504 560.414 907.504Z" fill="#03FC9D"/><path d="M613.338 858.167H581.158V907.406H613.338V858.167Z" fill="#A9FEDE"/><path d="M560.414 907.504H772.201C777.233 907.504 781.312 903.425 781.312 898.393V867.376C781.312 862.344 777.233 858.265 772.201 858.265H560.414C555.382 858.265 551.303 862.344 551.303 867.376V898.393C551.303 903.425 555.382 907.504 560.414 907.504Z" stroke="#003B2F" stroke-width="3" stroke-linecap="round" stroke-linejoin="round"/><path d="M666.452 897.908V868.442" stroke="#003B2F" stroke-width="3" stroke-linecap="round" stroke-linejoin="round"/><path d="M683.414 897.908V868.442" stroke="#003B2F" stroke-width="3" stroke-linecap="round" stroke-linejoin="round"/><path d="M700.282 897.908V868.442" stroke="#003B2F" stroke-width="3" stroke-linecap="round" stroke-linejoin="round"/><path d="M717.245 897.908V868.442" stroke="#003B2F" stroke-width="3" stroke-linecap="round" stroke-linejoin="round"/><path d="M734.107 897.908V868.442" stroke="#003B2F" stroke-width="3" stroke-linecap="round" stroke-linejoin="round"/><path d="M516.408 861.657H728.195C733.227 861.657 737.307 857.578 737.307 852.546V821.529C737.307 816.497 733.227 812.418 728.195 812.418H516.408C511.376 812.418 507.297 816.497 507.297 821.529V852.546C507.297 857.578 511.376 861.657 516.408 861.657Z" fill="#03FC9D"/><path d="M569.331 812.514H537.151V861.754H569.331V812.514Z" fill="#A9FEDE"/><path d="M516.408 861.657H728.195C733.227 861.657 737.307 857.578 737.307 852.546V821.529C737.307 816.497 733.227 812.418 728.195 812.418H516.408C511.376 812.418 507.297 816.497 507.297 821.529V852.546C507.297 857.578 511.376 861.657 516.408 861.657Z" stroke="#003B2F" stroke-width="3" stroke-linecap="round" stroke-linejoin="round"/><path d="M622.546 852.158V822.692" stroke="#003B2F" stroke-width="3" stroke-linecap="round" stroke-linejoin="round"/><path d="M639.414 852.158V822.692" stroke="#003B2F" stroke-width="3" stroke-linecap="round" stroke-linejoin="round"/><path d="M656.276 852.158V822.692" stroke="#003B2F" stroke-width="3" stroke-linecap="round" stroke-linejoin="round"/><path d="M673.239 852.158V822.692" stroke="#003B2F" stroke-width="3" stroke-linecap="round" stroke-linejoin="round"/><path d="M690.106 852.158V822.692" stroke="#003B2F" stroke-width="3" stroke-linecap="round" stroke-linejoin="round"/><path d="M545.193 812.029H756.98C762.012 812.029 766.091 807.95 766.091 802.918V771.901C766.091 766.869 762.012 762.79 756.98 762.79H545.193C540.161 762.79 536.082 766.869 536.082 771.901V802.918C536.082 807.95 540.161 812.029 545.193 812.029Z" fill="#03FC9D"/><path d="M598.017 762.886H565.837V812.126H598.017V762.886Z" fill="#A9FEDE"/><path d="M545.193 812.029H756.98C762.012 812.029 766.091 807.95 766.091 802.918V771.901C766.091 766.869 762.012 762.79 756.98 762.79H545.193C540.161 762.79 536.082 766.869 536.082 771.901V802.918C536.082 807.95 540.161 812.029 545.193 812.029Z" stroke="#003B2F" stroke-width="3" stroke-linecap="round" stroke-linejoin="round"/><path d="M651.231 802.53V773.064" stroke="#003B2F" stroke-width="3" stroke-linecap="round" stroke-linejoin="round"/><path d="M668.099 802.53V773.064" stroke="#003B2F" stroke-width="3" stroke-linecap="round" stroke-linejoin="round"/><path d="M685.061 802.53V773.064" stroke="#003B2F" stroke-width="3" stroke-linecap="round" stroke-linejoin="round"/><path d="M701.924 802.53V773.064" stroke="#003B2F" stroke-width="3" stroke-linecap="round" stroke-linejoin="round"/><path d="M718.792 802.53V773.064" stroke="#003B2F" stroke-width="3" stroke-linecap="round" stroke-linejoin="round"/><path d="M496.053 764.342H707.84C712.872 764.342 716.951 760.262 716.951 755.23V724.213C716.951 719.181 712.872 715.102 707.84 715.102H496.053C491.021 715.102 486.941 719.181 486.941 724.213V755.23C486.941 760.262 491.021 764.342 496.053 764.342Z" fill="#03FC9D"/><path d="M548.877 715.102H516.697V764.341H548.877V715.102Z" fill="#A9FEDE"/><path d="M496.053 764.342H707.84C712.872 764.342 716.951 760.262 716.951 755.23V724.213C716.951 719.181 712.872 715.102 707.84 715.102H496.053C491.021 715.102 486.941 719.181 486.941 724.213V755.23C486.941 760.262 491.021 764.342 496.053 764.342Z" stroke="#003B2F" stroke-width="3" stroke-linecap="round" stroke-linejoin="round"/><path d="M602.091 754.842V725.376" stroke="#003B2F" stroke-width="3" stroke-linecap="round" stroke-linejoin="round"/><path d="M618.958 754.842V725.376" stroke="#003B2F" stroke-width="3" stroke-linecap="round" stroke-linejoin="round"/><path d="M635.92 754.842V725.376" stroke="#003B2F" stroke-width="3" stroke-linecap="round" stroke-linejoin="round"/><path d="M652.784 754.842V725.376" stroke="#003B2F" stroke-width="3" stroke-linecap="round" stroke-linejoin="round"/><path d="M669.651 754.842V725.376" stroke="#003B2F" stroke-width="3" stroke-linecap="round" stroke-linejoin="round"/><path d="M537.152 713.843H748.94C753.972 713.843 758.051 709.764 758.051 704.732V673.715C758.051 668.683 753.972 664.603 748.94 664.603H537.152C532.12 664.603 528.041 668.683 528.041 673.715V704.732C528.041 709.764 532.12 713.843 537.152 713.843Z" fill="#03FC9D"/><path d="M589.976 664.603H557.796V713.842H589.976V664.603Z" fill="#A9FEDE"/><path d="M537.152 713.843H748.94C753.972 713.843 758.051 709.764 758.051 704.732V673.715C758.051 668.683 753.972 664.603 748.94 664.603H537.152C532.12 664.603 528.041 668.683 528.041 673.715V704.732C528.041 709.764 532.12 713.843 537.152 713.843Z" stroke="#003B2F" stroke-width="3" stroke-linecap="round" stroke-linejoin="round"/><path d="M643.19 704.344V674.878" stroke="#003B2F" stroke-width="3" stroke-linecap="round" stroke-linejoin="round"/><path d="M660.058 704.344V674.878" stroke="#003B2F" stroke-width="3" stroke-linecap="round" stroke-linejoin="round"/><path d="M677.02 704.344V674.878" stroke="#003B2F" stroke-width="3" stroke-linecap="round" stroke-linejoin="round"/><path d="M693.883 704.344V674.878" stroke="#003B2F" stroke-width="3" stroke-linecap="round" stroke-linejoin="round"/><path d="M710.751 704.344V674.878" stroke="#003B2F" stroke-width="3" stroke-linecap="round" stroke-linejoin="round"/><path d="M519.508 666.929H731.296C736.328 666.929 740.407 662.849 740.407 657.818V626.801C740.407 621.769 736.328 617.689 731.296 617.689H519.508C514.476 617.689 510.397 621.769 510.397 626.801V657.818C510.397 662.849 514.476 666.929 519.508 666.929Z" fill="#03FC9D"/><path d="M572.332 617.786H540.152V667.025H572.332V617.786Z" fill="#A9FEDE"/><path d="M519.508 666.929H731.296C736.328 666.929 740.407 662.849 740.407 657.818V626.801C740.407 621.769 736.328 617.689 731.296 617.689H519.508C514.476 617.689 510.397 621.769 510.397 626.801V657.818C510.397 662.849 514.476 666.929 519.508 666.929Z" stroke="#003B2F" stroke-width="3" stroke-linecap="round" stroke-linejoin="round"/><path d="M625.546 657.527V628.061" stroke="#003B2F" stroke-width="3" stroke-linecap="round" stroke-linejoin="round"/><path d="M642.414 657.527V628.061" stroke="#003B2F" stroke-width="3" stroke-linecap="round" stroke-linejoin="round"/><path d="M659.277 657.527V628.061" stroke="#003B2F" stroke-width="3" stroke-linecap="round" stroke-linejoin="round"/><path d="M676.239 657.527V628.061" stroke="#003B2F" stroke-width="3" stroke-linecap="round" stroke-linejoin="round"/><path d="M693.107 657.527V628.061" stroke="#003B2F" stroke-width="3" stroke-linecap="round" stroke-linejoin="round"/><path d="M719.569 959.359H931.356C936.388 959.359 940.467 955.28 940.467 950.248V919.231C940.467 914.199 936.388 910.12 931.356 910.12H719.569C714.537 910.12 710.458 914.199 710.458 919.231V950.248C710.458 955.28 714.537 959.359 719.569 959.359Z" fill="#03FC9D"/><path d="M772.493 910.216H740.312V959.455H772.493V910.216Z" fill="#A9FEDE"/><path d="M719.569 959.359H931.356C936.388 959.359 940.467 955.28 940.467 950.248V919.231C940.467 914.199 936.388 910.12 931.356 910.12H719.569C714.537 910.12 710.458 914.199 710.458 919.231V950.248C710.458 955.28 714.537 959.359 719.569 959.359Z" stroke="#003B2F" stroke-width="3" stroke-linecap="round" stroke-linejoin="round"/><path d="M825.607 949.957V920.491" stroke="#003B2F" stroke-width="3" stroke-linecap="round" stroke-linejoin="round"/><path d="M842.569 949.957V920.491" stroke="#003B2F" stroke-width="3" stroke-linecap="round" stroke-linejoin="round"/><path d="M859.437 949.957V920.491" stroke="#003B2F" stroke-width="3" stroke-linecap="round" stroke-linejoin="round"/><path d="M876.3 949.957V920.491" stroke="#003B2F" stroke-width="3" stroke-linecap="round" stroke-linejoin="round"/><path d="M893.262 949.957V920.491" stroke="#003B2F" stroke-width="3" stroke-linecap="round" stroke-linejoin="round"/><path d="M753.105 910.701H964.892C969.924 910.701 974.003 906.622 974.003 901.59V870.573C974.003 865.541 969.924 861.462 964.892 861.462H753.105C748.073 861.462 743.994 865.541 743.994 870.573V901.59C743.994 906.622 748.073 910.701 753.105 910.701Z" fill="#03FC9D"/><path d="M806.029 861.461H773.849V910.701H806.029V861.461Z" fill="#A9FEDE"/><path d="M753.105 910.701H964.892C969.924 910.701 974.003 906.622 974.003 901.59V870.573C974.003 865.541 969.924 861.462 964.892 861.462H753.105C748.073 861.462 743.994 865.541 743.994 870.573V901.59C743.994 906.622 748.073 910.701 753.105 910.701Z" stroke="#003B2F" stroke-width="3" stroke-linecap="round" stroke-linejoin="round"/><path d="M859.143 901.202V871.736" stroke="#003B2F" stroke-width="3" stroke-linecap="round" stroke-linejoin="round"/><path d="M876.011 901.202V871.736" stroke="#003B2F" stroke-width="3" stroke-linecap="round" stroke-linejoin="round"/><path d="M892.973 901.202V871.736" stroke="#003B2F" stroke-width="3" stroke-linecap="round" stroke-linejoin="round"/><path d="M909.836 901.202V871.736" stroke="#003B2F" stroke-width="3" stroke-linecap="round" stroke-linejoin="round"/><path d="M926.704 901.202V871.736" stroke="#003B2F" stroke-width="3" stroke-linecap="round" stroke-linejoin="round"/><path d="M714.916 862.043H926.703C931.735 862.043 935.814 857.964 935.814 852.932V821.915C935.814 816.883 931.735 812.804 926.703 812.804H714.916C709.884 812.804 705.805 816.883 705.805 821.915V852.932C705.805 857.964 709.884 862.043 714.916 862.043Z" fill="#03FC9D"/><path d="M767.84 812.9H735.66V862.14H767.84V812.9Z" fill="#A9FEDE"/><path d="M714.916 862.043H926.703C931.735 862.043 935.814 857.964 935.814 852.932V821.915C935.814 816.883 931.735 812.804 926.703 812.804H714.916C709.884 812.804 705.805 816.883 705.805 821.915V852.932C705.805 857.964 709.884 862.043 714.916 862.043Z" stroke="#003B2F" stroke-width="3" stroke-linecap="round" stroke-linejoin="round"/><path d="M820.954 852.544V823.078" stroke="#003B2F" stroke-width="3" stroke-linecap="round" stroke-linejoin="round"/><path d="M837.917 852.544V823.078" stroke="#003B2F" stroke-width="3" stroke-linecap="round" stroke-linejoin="round"/><path d="M854.784 852.544V823.078" stroke="#003B2F" stroke-width="3" stroke-linecap="round" stroke-linejoin="round"/><path d="M871.647 852.544V823.078" stroke="#003B2F" stroke-width="3" stroke-linecap="round" stroke-linejoin="round"/><path d="M888.609 852.544V823.078" stroke="#003B2F" stroke-width="3" stroke-linecap="round" stroke-linejoin="round"/><path d="M728.774 812.515H940.561C945.593 812.515 949.672 808.435 949.672 803.403V772.387C949.672 767.355 945.593 763.275 940.561 763.275H728.774C723.742 763.275 719.663 767.355 719.663 772.387V803.403C719.663 808.435 723.742 812.515 728.774 812.515Z" fill="#03FC9D"/><path d="M781.598 763.177H749.418V812.417H781.598V763.177Z" fill="#A9FEDE"/><path d="M728.774 812.515H940.561C945.593 812.515 949.672 808.435 949.672 803.403V772.387C949.672 767.355 945.593 763.275 940.561 763.275H728.774C723.742 763.275 719.663 767.355 719.663 772.387V803.403C719.663 808.435 723.742 812.515 728.774 812.515Z" stroke="#003B2F" stroke-width="3" stroke-linecap="round" stroke-linejoin="round"/><path d="M834.812 802.918V773.452" stroke="#003B2F" stroke-width="3" stroke-linecap="round" stroke-linejoin="round"/><path d="M851.679 802.918V773.452" stroke="#003B2F" stroke-width="3" stroke-linecap="round" stroke-linejoin="round"/><path d="M868.642 802.918V773.452" stroke="#003B2F" stroke-width="3" stroke-linecap="round" stroke-linejoin="round"/><path d="M885.505 802.918V773.452" stroke="#003B2F" stroke-width="3" stroke-linecap="round" stroke-linejoin="round"/><path d="M902.373 802.918V773.452" stroke="#003B2F" stroke-width="3" stroke-linecap="round" stroke-linejoin="round"/><path d="M680.698 763.08H892.485C897.517 763.08 901.597 759.001 901.597 753.969V722.952C901.597 717.92 897.517 713.841 892.485 713.841H680.698C675.666 713.841 671.587 717.92 671.587 722.952V753.969C671.587 759.001 675.666 763.08 680.698 763.08Z" fill="#03FC9D"/><path d="M733.717 713.938H701.537V763.177H733.717V713.938Z" fill="#A9FEDE"/><path d="M680.698 763.08H892.485C897.517 763.08 901.597 759.001 901.597 753.969V722.952C901.597 717.92 897.517 713.841 892.485 713.841H680.698C675.666 713.841 671.587 717.92 671.587 722.952V753.969C671.587 759.001 675.666 763.08 680.698 763.08Z" stroke="#003B2F" stroke-width="3" stroke-linecap="round" stroke-linejoin="round"/><path d="M786.836 753.678V724.212" stroke="#003B2F" stroke-width="3" stroke-linecap="round" stroke-linejoin="round"/><path d="M803.798 753.678V724.212" stroke="#003B2F" stroke-width="3" stroke-linecap="round" stroke-linejoin="round"/><path d="M820.666 753.678V724.212" stroke="#003B2F" stroke-width="3" stroke-linecap="round" stroke-linejoin="round"/><path d="M837.529 753.678V724.212" stroke="#003B2F" stroke-width="3" stroke-linecap="round" stroke-linejoin="round"/><path d="M854.491 753.678V724.212" stroke="#003B2F" stroke-width="3" stroke-linecap="round" stroke-linejoin="round"/><path d="M1021.86 973.706L1202.4 862.985C1206.69 860.354 1208.03 854.744 1205.4 850.455L1189.19 824.014C1186.56 819.724 1180.95 818.38 1176.66 821.01L996.117 931.732C991.827 934.363 990.482 939.973 993.113 944.262L1009.33 970.703C1011.96 974.992 1017.57 976.337 1021.86 973.706Z" fill="#03FC9D"/><path d="M1041.14 904.103L1013.71 920.927L1039.45 962.901L1066.88 946.077L1041.14 904.103Z" fill="#A9FEDE"/><path d="M1021.86 973.706L1202.4 862.985C1206.69 860.354 1208.03 854.744 1205.4 850.455L1189.19 824.014C1186.56 819.724 1180.95 818.38 1176.66 821.01L996.117 931.732C991.827 934.363 990.482 939.973 993.113 944.262L1009.33 970.703C1011.96 974.992 1017.57 976.337 1021.86 973.706Z" stroke="#003B2F" stroke-width="3" stroke-linecap="round" stroke-linejoin="round"/><path d="M1107.28 910.118L1091.87 885.014" stroke="#003B2F" stroke-width="3" stroke-linecap="round" stroke-linejoin="round"/><path d="M1121.73 901.299L1106.31 876.194" stroke="#003B2F" stroke-width="3" stroke-linecap="round" stroke-linejoin="round"/><path d="M1136.07 892.479L1120.66 867.375" stroke="#003B2F" stroke-width="3" stroke-linecap="round" stroke-linejoin="round"/><path d="M1150.51 883.657L1135.1 858.456" stroke="#003B2F" stroke-width="3" stroke-linecap="round" stroke-linejoin="round"/><path d="M1164.96 874.741L1149.54 849.636" stroke="#003B2F" stroke-width="3" stroke-linecap="round" stroke-linejoin="round"/><path d="M1498.07 710.59L1513.24 725.757" stroke="#003B2F" stroke-width="3" stroke-linecap="round" stroke-linejoin="round"/><path d="M1524.32 736.84L1539.49 751.909" stroke="#003B2F" stroke-width="3" stroke-linecap="round" stroke-linejoin="round"/><path d="M1498.07 751.909L1513.24 736.84" stroke="#003B2F" stroke-width="3" stroke-linecap="round" stroke-linejoin="round"/><path d="M1524.32 725.757L1539.49 710.59" stroke="#003B2F" stroke-width="3" stroke-linecap="round" stroke-linejoin="round"/><path d="M1221.2 358.253H1345.21C1358.88 358.253 1369.96 347.173 1369.96 333.505C1369.96 319.836 1358.88 308.756 1345.21 308.756H1221.2C1207.53 308.756 1196.45 319.836 1196.45 333.505C1196.45 347.173 1207.53 358.253 1221.2 358.253Z" fill="#03FC9D"/><path d="M1288.56 320.37L1491.56 320.37C1513.96 320.37 1532.12 302.23 1532.12 279.852C1532.12 257.475 1513.96 239.334 1491.56 239.334L1288.56 239.334C1266.16 239.334 1248 257.475 1248 279.852C1248 302.23 1266.16 320.37 1288.56 320.37Z" fill="#03FC9D"/><path d="M157.259 255.913H420.314" stroke="#003B2F" stroke-width="3" stroke-linecap="round" stroke-linejoin="round"/><path d="M266.734 217.125L360.443 217.125" stroke="#03FC9D" stroke-width="3" stroke-linecap="round" stroke-linejoin="round"/><path d="M80.5039 217.125L234.014 217.125" stroke="#03FC9D" stroke-width="3" stroke-linecap="round" stroke-linejoin="round"/><path d="M1361.26 484.719H1423.7" stroke="#003B2F" stroke-width="3" stroke-miterlimit="10" stroke-linecap="round" stroke-linejoin="round"/><path d="M1313.81 484.719H1329.55" stroke="#003B2F" stroke-width="3" stroke-miterlimit="10" stroke-linecap="round" stroke-linejoin="round"/><path d="M1370.31 439.751H1532.12" stroke="#03FC9D" stroke-width="3" stroke-miterlimit="10" stroke-linecap="round" stroke-linejoin="round"/><path d="M1755.8 596.227H1715.65C1728.38 596.227 1738.69 585.922 1738.69 573.186C1738.69 560.45 1728.38 550.145 1715.65 550.145H1600.25C1587.51 550.145 1577.21 560.45 1577.21 573.186H1541.82C1529.08 573.186 1518.78 583.491 1518.78 596.227C1518.78 608.963 1529.08 619.268 1541.82 619.268H1617.36C1617.36 632.004 1627.67 642.309 1640.4 642.309H1755.8C1768.54 642.309 1778.84 632.004 1778.84 619.268C1778.84 606.532 1768.54 596.227 1755.8 596.227Z" fill="#E6E8EA"/><path d="M502.989 429.93L525.933 443.152" stroke="#003B2F" stroke-width="3" stroke-linecap="round" stroke-linejoin="round"/><path d="M548.877 429.93L535.461 437.708" stroke="#003B2F" stroke-width="3" stroke-linecap="round" stroke-linejoin="round"/><path d="M525.933 443.152V469.985" stroke="#003B2F" stroke-width="3" stroke-linecap="round" stroke-linejoin="round"/><path d="M250.569 584.138H314.734" stroke="#003B2F" stroke-width="3" stroke-linecap="round" stroke-linejoin="round"/><path d="M201.862 584.138H218.001" stroke="#003B2F" stroke-width="3" stroke-linecap="round" stroke-linejoin="round"/><path d="M259.902 540H426.148" stroke="#03FC9D" stroke-width="3" stroke-linecap="round" stroke-linejoin="round"/><path d="M1599.73 124.237H1777.45" stroke="#03FC9D" stroke-width="3" stroke-linecap="round" stroke-linejoin="round"/><path d="M1710.07 153.209H1847.25" stroke="#003B2F" stroke-width="3" stroke-linecap="round" stroke-linejoin="round"/><path d="M347.666 786.045H215.005C200.374 786.045 188.513 797.906 188.513 812.536C188.513 827.167 200.374 839.028 215.005 839.028H347.666C362.297 839.028 374.158 827.167 374.158 812.536C374.158 797.906 362.297 786.045 347.666 786.045Z" fill="#E6E8EA"/><path d="M393.823 838.926H261.161C246.531 838.926 234.67 850.786 234.67 865.417C234.67 880.048 246.531 891.909 261.161 891.909H393.823C408.454 891.909 420.315 880.048 420.315 865.417C420.315 850.786 408.454 838.926 393.823 838.926Z" fill="#E6E8EA"/><path d="M280.419 812.434H147.757C133.126 812.434 121.266 824.295 121.266 838.926C121.266 853.557 133.126 865.417 147.757 865.417H280.419C295.05 865.417 306.91 853.557 306.91 838.926C306.91 824.295 295.05 812.434 280.419 812.434Z" fill="#E6E8EA"/><path d="M135.331 876.639H296.192C313.922 876.639 328.295 862.266 328.295 844.537C328.295 826.807 313.922 812.434 296.192 812.434H135.331C117.601 812.434 103.228 826.807 103.228 844.537C103.228 862.266 117.601 876.639 135.331 876.639Z" fill="#03FC9D"/><path d="M1209 127.125L1231.94 140.347" stroke="#003B2F" stroke-width="3" stroke-linecap="round" stroke-linejoin="round"/><path d="M1254.89 127.125L1241.47 134.903" stroke="#003B2F" stroke-width="3" stroke-linecap="round" stroke-linejoin="round"/><path d="M1231.94 140.347V167.179" stroke="#003B2F" stroke-width="3" stroke-linecap="round" stroke-linejoin="round"/></svg>