<svg width="1676" height="858" viewBox="0 0 1676 858" fill="none" xmlns="http://www.w3.org/2000/svg"><path d="M609.849 151.46L569.121 174.941L609.849 198.421L650.64 174.941L609.849 151.46Z" fill="#03FC9E"/><path d="M609.85 198.421V245.445L650.641 221.965V174.941L609.85 198.421Z" fill="#03FC9E"/><path d="M609.849 198.421V245.445L569.121 221.965V174.941L609.849 198.421Z" fill="#03FC9E"/><path d="M658.131 198.421V170.597" stroke="#003D2E" stroke-width="3" stroke-linecap="round" stroke-linejoin="round"/><path d="M561.63 170.597V226.308L609.849 254.133L637.988 237.891" stroke="#003D2E" stroke-width="3" stroke-linecap="round" stroke-linejoin="round"/><path d="M609.849 198.421L658.131 170.597L609.849 142.647L561.63 170.597L609.849 198.421Z" stroke="#003D2E" stroke-width="3" stroke-linecap="round" stroke-linejoin="round"/><path d="M609.85 198.421V254.133" stroke="#003D2E" stroke-width="3" stroke-linecap="round" stroke-linejoin="round"/><path d="M658.131 170.597V226.308L609.849 254.133L581.774 237.891" stroke="#003D2E" stroke-width="3" stroke-linecap="round" stroke-linejoin="round"/><path d="M839.55 62.7629L798.822 86.2434L839.55 109.787L880.278 86.2434L839.55 62.7629Z" fill="#03FC9E"/><path d="M839.551 109.787V156.748L880.279 133.267V86.2433L839.551 109.787Z" fill="#03FC9E"/><path d="M839.55 109.787V156.748L798.822 133.267V86.2433L839.55 109.787Z" fill="#03FC9E"/><path d="M887.832 109.787V81.8997" stroke="#003D2E" stroke-width="3" stroke-linecap="round" stroke-linejoin="round"/><path d="M791.331 81.8997V137.611L839.55 165.435L867.689 149.194" stroke="#003D2E" stroke-width="3" stroke-linecap="round" stroke-linejoin="round"/><path d="M839.55 109.787L887.832 81.8997L839.55 54.0126L791.331 81.8997L839.55 109.787Z" stroke="#003D2E" stroke-width="3" stroke-linecap="round" stroke-linejoin="round"/><path d="M839.551 109.787V165.435" stroke="#003D2E" stroke-width="3" stroke-linecap="round" stroke-linejoin="round"/><path d="M887.832 81.8997V137.611L839.55 165.435L811.475 149.194" stroke="#003D2E" stroke-width="3" stroke-linecap="round" stroke-linejoin="round"/><path d="M1063.08 154.922L1022.35 178.403L1063.08 201.883L1103.81 178.403L1063.08 154.922Z" fill="#03FC9E"/><path d="M1063.08 201.884V248.908L1103.81 225.427V178.403L1063.08 201.884Z" fill="#03FC9E"/><path d="M1063.08 201.884V248.908L1022.35 225.427V178.403L1063.08 201.884Z" fill="#03FC9E"/><path d="M1111.36 201.883V174.059" stroke="#003D2E" stroke-width="3" stroke-linecap="round" stroke-linejoin="round"/><path d="M1014.8 174.059V229.771L1063.08 257.595L1091.22 241.353" stroke="#003D2E" stroke-width="3" stroke-linecap="round" stroke-linejoin="round"/><path d="M1063.08 201.883L1111.36 174.059L1063.08 146.109L1014.8 174.059L1063.08 201.883Z" stroke="#003D2E" stroke-width="3" stroke-linecap="round" stroke-linejoin="round"/><path d="M1063.08 201.883V257.595" stroke="#003D2E" stroke-width="3" stroke-linecap="round" stroke-linejoin="round"/><path d="M1111.36 174.059V229.771L1063.08 257.595L1034.94 241.353" stroke="#003D2E" stroke-width="3" stroke-linecap="round" stroke-linejoin="round"/><path d="M1157.44 384.881L1116.71 408.361L1157.44 431.905L1198.23 408.361L1157.44 384.881Z" fill="#03FC9E"/><path d="M1157.44 431.905V478.929L1198.23 455.385V408.361L1157.44 431.905Z" fill="#03FC9E"/><path d="M1157.44 431.905V478.929L1116.71 455.385V408.361L1157.44 431.905Z" fill="#03FC9E"/><path d="M1205.72 431.905V404.081" stroke="#003D2E" stroke-width="3" stroke-linecap="round" stroke-linejoin="round"/><path d="M1109.22 404.081V459.729L1157.44 487.553L1185.58 471.375" stroke="#003D2E" stroke-width="3" stroke-linecap="round" stroke-linejoin="round"/><path d="M1157.44 431.905L1205.72 404.081L1157.44 376.131L1109.22 404.081L1157.44 431.905Z" stroke="#003D2E" stroke-width="3" stroke-linecap="round" stroke-linejoin="round"/><path d="M1157.44 431.905V487.553" stroke="#003D2E" stroke-width="3" stroke-linecap="round" stroke-linejoin="round"/><path d="M1205.72 404.081V459.729L1157.44 487.553L1129.37 471.375" stroke="#003D2E" stroke-width="3" stroke-linecap="round" stroke-linejoin="round"/><path d="M1064.72 607.096L1023.93 630.577L1064.72 654.12L1105.45 630.577L1064.72 607.096Z" fill="#03FC9E"/><path d="M1064.72 654.12V701.081L1105.45 677.601V630.577L1064.72 654.12Z" fill="#03FC9E"/><path d="M1064.72 654.12V701.081L1023.93 677.601V630.577L1064.72 654.12Z" fill="#03FC9E"/><path d="M1112.94 654.12V626.233" stroke="#003D2E" stroke-width="3" stroke-linecap="round" stroke-linejoin="round"/><path d="M1016.44 626.233V681.944L1064.72 709.768L1092.79 693.527" stroke="#003D2E" stroke-width="3" stroke-linecap="round" stroke-linejoin="round"/><path d="M1064.72 654.12L1112.94 626.233L1064.72 598.283L1016.44 626.233L1064.72 654.12Z" stroke="#003D2E" stroke-width="3" stroke-linecap="round" stroke-linejoin="round"/><path d="M1064.72 654.12V709.768" stroke="#003D2E" stroke-width="3" stroke-linecap="round" stroke-linejoin="round"/><path d="M1112.94 626.233V681.944L1064.72 709.768L1036.58 693.527" stroke="#003D2E" stroke-width="3" stroke-linecap="round" stroke-linejoin="round"/><path d="M839.55 701.207L798.822 724.688L839.55 748.231L880.278 724.688L839.55 701.207Z" fill="#03FC9E"/><path d="M839.551 748.231V795.255L880.279 771.712V724.688L839.551 748.231Z" fill="#03FC9E"/><path d="M839.55 748.231V795.255L798.822 771.712V724.688L839.55 748.231Z" fill="#03FC9E"/><path d="M887.832 748.231V720.407" stroke="#003D2E" stroke-width="3" stroke-linecap="round" stroke-linejoin="round"/><path d="M791.331 720.407V776.055L839.55 803.88L867.689 787.701" stroke="#003D2E" stroke-width="3" stroke-linecap="round" stroke-linejoin="round"/><path d="M839.55 748.231L887.832 720.407L839.55 692.457L791.331 720.407L839.55 748.231Z" stroke="#003D2E" stroke-width="3" stroke-linecap="round" stroke-linejoin="round"/><path d="M839.551 748.231V803.879" stroke="#003D2E" stroke-width="3" stroke-linecap="round" stroke-linejoin="round"/><path d="M887.832 720.407V776.055L839.55 803.88L811.475 787.701" stroke="#003D2E" stroke-width="3" stroke-linecap="round" stroke-linejoin="round"/><path d="M611.8 607.096L571.072 630.577L611.8 654.12L652.528 630.577L611.8 607.096Z" fill="#03FC9E"/><path d="M611.801 654.12V701.081L652.529 677.601V630.577L611.801 654.12Z" fill="#03FC9E"/><path d="M611.8 654.12V701.081L571.072 677.601V630.577L611.8 654.12Z" fill="#03FC9E"/><path d="M660.019 654.12V626.233" stroke="#003D2E" stroke-width="3" stroke-linecap="round" stroke-linejoin="round"/><path d="M563.519 626.233V681.944L611.8 709.768L639.876 693.527" stroke="#003D2E" stroke-width="3" stroke-linecap="round" stroke-linejoin="round"/><path d="M611.8 654.12L660.019 626.233L611.8 598.283L563.519 626.233L611.8 654.12Z" stroke="#003D2E" stroke-width="3" stroke-linecap="round" stroke-linejoin="round"/><path d="M611.801 654.12V709.768" stroke="#003D2E" stroke-width="3" stroke-linecap="round" stroke-linejoin="round"/><path d="M660.019 626.233V681.944L611.8 709.768L583.662 693.527" stroke="#003D2E" stroke-width="3" stroke-linecap="round" stroke-linejoin="round"/><path d="M519.013 384.881L478.285 408.361L519.013 431.905L559.741 408.361L519.013 384.881Z" fill="#03FC9E"/><path d="M519.014 431.905V478.929L559.742 455.385V408.361L519.014 431.905Z" fill="#03FC9E"/><path d="M519.013 431.905V478.929L478.285 455.385V408.361L519.013 431.905Z" fill="#03FC9E"/><path d="M567.295 431.905V404.081" stroke="#003D2E" stroke-width="3" stroke-linecap="round" stroke-linejoin="round"/><path d="M470.795 404.081V459.729L519.014 487.553L547.152 471.375" stroke="#003D2E" stroke-width="3" stroke-linecap="round" stroke-linejoin="round"/><path d="M519.014 431.905L567.296 404.081L519.014 376.131L470.795 404.081L519.014 431.905Z" stroke="#003D2E" stroke-width="3" stroke-linecap="round" stroke-linejoin="round"/><path d="M519.014 431.905V487.553" stroke="#003D2E" stroke-width="3" stroke-linecap="round" stroke-linejoin="round"/><path d="M567.295 404.081V459.729L519.013 487.553L490.938 471.375" stroke="#003D2E" stroke-width="3" stroke-linecap="round" stroke-linejoin="round"/><path d="M625.901 294.61C611.612 318.531 601.477 344.529 595.875 371.787" stroke="#003C2E" stroke-width="3" stroke-linecap="round" stroke-linejoin="round"/><path d="M599.211 486.42C605.884 511.348 616.333 535.081 630.434 556.862" stroke="#003C2E" stroke-width="3" stroke-linecap="round" stroke-linejoin="round"/><path d="M713.148 636.431C734.74 649.21 758.031 658.59 782.329 664.255C782.77 664.381 783.274 664.444 783.714 664.444" stroke="#003C2E" stroke-width="3" stroke-linecap="round" stroke-linejoin="round"/><path d="M895.512 664.444C895.953 664.444 896.394 664.444 896.897 664.255C921.636 658.464 945.242 648.832 967.086 635.802" stroke="#003C2E" stroke-width="3" stroke-linecap="round" stroke-linejoin="round"/><path d="M1049.36 555.98C1063.15 534.451 1073.47 511.034 1080.02 486.42" stroke="#003C2E" stroke-width="3" stroke-linecap="round" stroke-linejoin="round"/><path d="M1083.29 371.787C1077.75 344.97 1067.93 319.349 1053.95 295.743" stroke="#003C2E" stroke-width="3" stroke-linecap="round" stroke-linejoin="round"/><path d="M974.324 212.963C950.467 197.54 924.406 186.461 896.897 179.977" stroke="#003C2E" stroke-width="3" stroke-linecap="round" stroke-linejoin="round"/><path d="M782.33 179.977C755.136 186.335 729.39 197.288 705.784 212.396" stroke="#003C2E" stroke-width="3" stroke-linecap="round" stroke-linejoin="round"/><path d="M579.256 431.716H654.606" stroke="#003C2E" stroke-width="3" stroke-linecap="round" stroke-linejoin="round"/><path d="M657.942 610.432L711.197 557.176" stroke="#003C2E" stroke-width="3" stroke-linecap="round" stroke-linejoin="round"/><path d="M1019.84 610.37L966.581 557.113" stroke="#003C2E" stroke-width="3" stroke-linecap="round" stroke-linejoin="round"/><path d="M839.551 176.011V251.3" stroke="#003C2E" stroke-width="3" stroke-linecap="round" stroke-linejoin="round"/><path d="M839.551 606.593V681.944" stroke="#003C2E" stroke-width="3" stroke-linecap="round" stroke-linejoin="round"/><path d="M1022.35 431.716H1097.7" stroke="#003C2E" stroke-width="3" stroke-linecap="round" stroke-linejoin="round"/><path d="M969.099 299.961L1022.35 246.704" stroke="#003C2E" stroke-width="3" stroke-linecap="round" stroke-linejoin="round"/><path d="M705.846 296.435L652.592 243.116" stroke="#003C2E" stroke-width="3" stroke-linecap="round" stroke-linejoin="round"/><path d="M742.861 499.325C732.475 489.567 725.865 469.675 725.928 458.848C726.117 461.869 726.683 464.891 727.628 467.85C729.768 474.459 733.985 481.006 740.406 487.238C740.595 487.49 740.847 487.679 741.099 487.931C771.44 516.51 837.033 526.205 887.581 509.586C888.336 509.334 889.029 509.082 889.784 508.83C890.225 508.641 890.728 508.453 891.232 508.327C891.295 508.327 891.358 508.327 891.421 508.264C922.014 497.184 939.136 478.551 939.451 459.225C939.451 456.959 939.325 454.693 938.884 452.427C946.69 476.348 928.687 508.138 889.344 521.043C838.796 537.662 773.203 527.967 742.861 499.388V499.325Z" fill="#03FC9E"/><path d="M741.099 487.868C741.099 487.868 740.658 487.427 740.406 487.175C733.986 481.006 729.768 474.459 727.628 467.787C726.684 464.828 726.054 461.806 725.928 458.785C725.928 458.659 725.928 458.47 725.928 458.281C725.047 437.507 743.617 417.111 777.735 405.906C828.283 389.287 893.876 398.982 924.281 427.561C932.59 435.367 937.374 443.802 938.948 452.238C939.388 454.504 939.577 456.77 939.514 459.036C939.2 478.362 922.077 496.996 891.484 508.075C891.421 508.075 891.358 508.138 891.295 508.138C890.855 508.327 890.351 508.516 889.847 508.641C889.092 508.893 888.4 509.145 887.644 509.397C837.096 526.016 771.503 516.321 741.162 487.742L741.099 487.868Z" fill="#E6E8EA"/><path d="M742.043 499.136C731.656 489.379 725.047 469.486 725.11 458.659C725.298 461.68 725.865 464.702 726.809 467.661C728.949 474.271 733.167 480.817 739.588 487.049C739.777 487.301 740.028 487.49 740.28 487.742C770.622 516.321 836.215 526.016 886.763 509.397C887.518 509.145 888.21 508.893 888.966 508.641C889.407 508.453 889.91 508.264 890.414 508.138C890.477 508.138 890.54 508.138 890.603 508.075C921.196 496.996 938.318 478.362 938.633 459.036C938.633 456.77 938.507 454.504 938.066 452.238C945.872 476.159 927.868 507.949 888.525 520.854C837.977 537.473 772.384 527.778 742.043 499.199V499.136Z" stroke="#003C2E" stroke-width="3" stroke-linecap="round" stroke-linejoin="round"/><path d="M740.281 487.679C740.281 487.679 739.84 487.238 739.588 486.987C733.167 480.817 728.95 474.27 726.809 467.598C725.865 464.639 725.236 461.617 725.11 458.596C725.11 458.47 725.11 458.281 725.11 458.092C724.229 437.319 742.798 416.923 776.917 405.717C827.465 389.098 893.058 398.793 923.462 427.372C931.771 435.178 936.556 443.614 938.129 452.049C938.57 454.315 938.759 456.581 938.696 458.848C938.381 478.173 921.259 496.807 890.666 507.886C890.603 507.886 890.54 507.949 890.477 507.949C890.036 508.138 889.533 508.327 889.029 508.453C888.274 508.704 887.581 508.956 886.826 509.208C836.278 525.827 770.685 516.133 740.343 487.553L740.281 487.679Z" stroke="#003C2E" stroke-width="3" stroke-linecap="round" stroke-linejoin="round"/><path d="M837.159 429.701C837.347 429.89 837.473 430.079 837.599 430.331L839.74 433.982L841.628 437.192L843.831 440.907L845.657 444.054L847.86 447.768L849.748 450.916L851.889 454.567L853.462 457.274C853.462 457.274 853.651 457.463 853.525 457.588C853.525 457.588 853.462 457.588 853.399 457.588C853.274 457.588 853.085 457.588 852.959 457.588C838.984 457.274 825.009 456.959 811.035 456.644C810.846 456.644 810.594 456.644 810.405 456.581C811.224 455.763 811.979 454.945 812.797 454.126L833.382 433.352L837.033 429.701H837.096H837.159Z" fill="#003D2E"/><path d="M810.531 456.581L853.337 457.526H853.651C853.651 457.526 853.966 457.526 854.092 457.526C870.27 457.903 886.448 458.218 902.563 458.596C902.752 458.596 902.941 458.596 903.129 458.722C901.619 459.288 900.108 459.855 898.597 460.421L833.193 484.405C833.193 484.405 832.878 484.531 832.752 484.531C832.689 484.406 832.752 484.28 832.878 484.217L834.452 482.139L837.599 478.11L840.747 474.082C841.817 472.697 842.887 471.375 843.957 469.99L847.042 466.024L850.252 461.932L853.337 457.966V457.84C853.337 457.84 853.463 457.652 853.337 457.652H852.959C839.11 457.337 825.261 457.022 811.35 456.707C811.161 456.707 810.909 456.707 810.72 456.644L810.531 456.581Z" fill="#004734"/><path d="M810.531 456.644C813.994 456.707 817.393 456.77 820.855 456.896C831.619 457.148 842.384 457.4 853.148 457.588C853.589 457.588 853.588 457.588 853.4 457.903L849.812 462.562C848.993 463.569 848.175 464.639 847.419 465.646L843.957 470.116L841.943 472.697L839.11 476.348L837.096 478.929L834.326 482.517L832.815 484.468C832.815 484.468 832.815 484.531 832.815 484.594C832.626 484.594 832.626 484.468 832.564 484.405L821.484 470.367L810.909 457.022C810.909 457.022 810.72 456.77 810.657 456.644H810.531Z" fill="#004734"/><path d="M797.942 456.392L802.6 462.247L815.694 478.803L819.848 484.028C819.848 484.028 819.974 484.154 819.974 484.217C819.848 484.217 819.785 484.154 819.722 484.091C801.341 474.648 783.023 465.206 764.642 455.7C764.516 455.7 764.327 455.637 764.39 455.511C764.579 455.511 764.768 455.511 764.957 455.511C775.784 455.763 786.674 456.015 797.501 456.267C797.69 456.267 797.942 456.267 798.068 456.392H797.942Z" fill="#004734"/><path d="M797.942 456.392C797.942 456.392 797.627 456.392 797.438 456.392C786.548 456.141 775.595 455.889 764.705 455.637H764.264C765.019 455.259 765.775 454.945 766.593 454.63C773.454 451.671 780.316 448.65 787.177 445.691L807.699 436.815L824.065 429.701L824.443 429.576C824.443 429.576 824.191 429.827 824.128 429.953L808.454 445.817L798.068 456.33C798.068 456.33 798.005 456.455 797.942 456.518V456.392Z" fill="#003D2E"/><path d="M903.066 458.722C903.066 458.722 902.814 458.722 902.689 458.722C886.511 458.344 870.27 458.029 854.092 457.652C853.966 457.652 853.777 457.652 853.651 457.652C853.651 457.652 853.84 457.589 853.966 457.652H854.344C870.396 458.029 886.385 458.344 902.437 458.722C902.689 458.722 903.003 458.722 903.255 458.785L903.129 458.848L903.066 458.722Z" fill="#003D2E"/><path d="M903.192 458.659C886.7 458.281 870.207 457.903 853.714 457.589H853.588C852.833 456.267 852.015 454.945 851.259 453.686C850.441 452.301 849.623 450.916 848.804 449.531L844.524 442.354L841.565 437.318L837.159 429.89C837.159 429.89 837.159 429.827 837.159 429.764C838.166 430.205 839.173 430.646 840.18 431.086L865.423 442.166L897.716 456.33L903.066 458.659C903.066 458.659 903.192 458.659 903.255 458.722L903.192 458.659Z" fill="#003D2E"/><path d="M759.794 478.866C749.407 469.109 742.798 449.216 742.861 438.389C743.05 441.41 743.616 444.432 744.56 447.391C746.701 454 750.918 460.547 757.339 466.779C757.528 467.031 757.78 467.22 758.032 467.472C788.373 496.051 853.966 505.746 904.514 489.127C905.269 488.875 905.962 488.623 906.717 488.371C907.158 488.183 907.661 487.994 908.165 487.868C908.228 487.868 908.291 487.868 908.354 487.805C938.947 476.726 956.069 458.092 956.384 438.766C956.384 436.5 956.258 434.234 955.817 431.968C963.623 455.889 945.62 487.679 906.276 500.584C855.728 517.203 790.136 507.508 759.794 478.929V478.866Z" fill="#03FC9E"/><path d="M758.032 467.409C758.032 467.409 757.591 466.968 757.339 466.716C750.919 460.547 746.701 454 744.561 447.328C743.616 444.369 742.987 441.347 742.861 438.326C742.861 438.2 742.861 438.011 742.861 437.822C741.98 417.048 760.55 396.652 794.668 385.447C845.216 368.828 910.809 378.523 941.213 407.102C949.523 414.908 954.307 423.343 955.881 431.779C956.321 434.045 956.51 436.311 956.447 438.578C956.132 457.903 939.01 476.537 908.417 487.616C908.354 487.616 908.291 487.679 908.228 487.679C907.788 487.868 907.284 488.057 906.78 488.183C906.025 488.434 905.332 488.686 904.577 488.938C854.029 505.557 788.436 495.862 758.095 467.283L758.032 467.409Z" fill="#E6E8EA"/><path d="M759.039 478.677C748.652 468.92 742.042 449.027 742.105 438.2C742.294 441.221 742.861 444.243 743.805 447.202C745.945 453.812 750.163 460.358 756.584 466.591C756.773 466.842 757.024 467.031 757.276 467.283C787.618 495.863 853.21 505.557 903.759 488.938C904.514 488.686 905.206 488.434 905.962 488.183C906.402 487.994 906.906 487.805 907.41 487.679C907.473 487.679 907.536 487.679 907.598 487.616C938.192 476.537 955.314 457.903 955.629 438.578C955.629 436.311 955.503 434.045 955.062 431.779C962.868 455.7 944.864 487.49 905.521 500.395C854.973 517.014 789.38 507.32 759.039 478.74V478.677Z" stroke="#003C2E" stroke-width="3" stroke-linecap="round" stroke-linejoin="round"/><path d="M757.213 467.22C757.213 467.22 756.773 466.779 756.521 466.528C750.1 460.358 745.883 453.812 743.742 447.139C742.798 444.18 742.169 441.159 742.043 438.137C742.043 438.011 742.043 437.822 742.043 437.633C741.161 416.86 759.731 396.464 793.85 385.258C844.398 368.639 909.991 378.334 940.395 406.913C948.704 414.719 953.488 423.155 955.062 431.59C955.503 433.856 955.692 436.122 955.629 438.389C955.314 457.715 938.192 476.348 907.599 487.427C907.536 487.427 907.473 487.49 907.41 487.49C906.969 487.679 906.466 487.868 905.962 487.994C905.207 488.246 904.514 488.497 903.759 488.749C853.211 505.368 787.618 495.674 757.276 467.094L757.213 467.22Z" stroke="#003C2E" stroke-width="3" stroke-linecap="round" stroke-linejoin="round"/><path d="M854.091 409.242C854.28 409.431 854.406 409.62 854.532 409.872L856.672 413.523L858.561 416.734L860.764 420.448L862.59 423.595L864.793 427.309L866.681 430.457L868.822 434.108L870.395 436.815C870.395 436.815 870.584 437.004 870.458 437.13C870.458 437.13 870.395 437.13 870.332 437.13C870.206 437.13 870.018 437.13 869.892 437.13C855.917 436.815 841.942 436.5 827.968 436.185C827.779 436.185 827.527 436.185 827.338 436.122C828.156 435.304 828.912 434.486 829.73 433.667L850.315 412.894L853.966 409.242H854.029H854.091Z" fill="#003D2E"/><path d="M827.464 436.122L870.27 437.067H870.584C870.584 437.067 870.899 437.067 871.025 437.067C887.203 437.444 903.381 437.759 919.496 438.137C919.685 438.137 919.873 438.137 920.062 438.263C918.551 438.829 917.041 439.396 915.53 439.962L850.126 463.946C850.126 463.946 849.811 464.072 849.685 464.072C849.622 463.946 849.685 463.821 849.811 463.758L851.385 461.68L854.532 457.651L857.68 453.623C858.75 452.238 859.82 450.916 860.89 449.531L863.975 445.565L867.185 441.473L870.27 437.507V437.381C870.27 437.381 870.395 437.192 870.27 437.192H869.892C856.043 436.878 842.194 436.563 828.283 436.248C828.094 436.248 827.842 436.248 827.653 436.185L827.464 436.122Z" fill="#004734"/><path d="M827.527 436.185C830.989 436.248 834.389 436.311 837.851 436.437C848.615 436.689 859.379 436.941 870.144 437.13C870.584 437.13 870.584 437.13 870.396 437.444L866.807 442.103C865.989 443.11 865.171 444.18 864.415 445.187L860.953 449.657L858.939 452.238L856.106 455.889L854.092 458.47L851.322 462.058L849.811 464.009C849.811 464.009 849.811 464.072 849.811 464.135C849.622 464.135 849.622 464.009 849.559 463.946L838.48 449.909L827.905 436.563C827.905 436.563 827.716 436.311 827.653 436.185H827.527Z" fill="#004734"/><path d="M814.938 435.871L819.596 441.725L832.69 458.281L836.844 463.506C836.844 463.506 836.97 463.632 836.97 463.695C836.844 463.695 836.781 463.632 836.718 463.569C818.337 454.126 800.019 444.684 781.638 435.178C781.512 435.178 781.323 435.115 781.386 434.989C781.575 434.989 781.764 434.989 781.953 434.989C792.78 435.241 803.67 435.493 814.497 435.745C814.686 435.745 814.938 435.745 815.064 435.871H814.938Z" fill="#004734"/><path d="M814.937 435.871C814.937 435.871 814.623 435.871 814.434 435.871C803.544 435.619 792.591 435.367 781.7 435.115H781.26C782.015 434.737 782.771 434.423 783.589 434.108C790.45 431.149 797.312 428.128 804.173 425.169L824.695 416.293L841.061 409.18L841.439 409.054C841.439 409.054 841.187 409.305 841.124 409.431L825.45 425.295L815.063 435.808C815.063 435.808 815 435.934 814.937 435.996V435.871Z" fill="#003D2E"/><path d="M919.999 438.263C919.999 438.263 919.747 438.263 919.621 438.263C903.444 437.885 887.203 437.57 871.025 437.192C870.899 437.192 870.71 437.192 870.584 437.192C870.584 437.192 870.773 437.13 870.899 437.192H871.277C887.329 437.57 903.318 437.885 919.37 438.263C919.621 438.263 919.936 438.263 920.188 438.326L920.062 438.389L919.999 438.263Z" fill="#003D2E"/><path d="M920.188 438.2C903.695 437.822 887.203 437.444 870.71 437.13H870.584C869.829 435.808 869.01 434.486 868.255 433.227C867.437 431.842 866.618 430.457 865.8 429.072L861.52 421.896L858.561 416.86L854.155 409.431C854.155 409.431 854.155 409.368 854.155 409.305C855.162 409.746 856.169 410.187 857.176 410.627L882.419 421.707L914.711 435.871L920.062 438.2C920.062 438.2 920.188 438.2 920.251 438.263L920.188 438.2Z" fill="#003D2E"/><path d="M736.188 456.644C725.801 446.887 719.192 426.995 719.255 416.167C719.443 419.189 720.01 422.21 720.954 425.169C723.094 431.779 727.312 438.326 733.733 444.558C733.922 444.81 734.174 444.999 734.425 445.25C764.767 473.83 830.36 483.524 880.908 466.905C881.663 466.653 882.355 466.402 883.111 466.15C883.552 465.961 884.055 465.772 884.559 465.646C884.622 465.646 884.685 465.646 884.748 465.583C915.341 454.504 932.463 435.871 932.778 416.545C932.778 414.279 932.652 412.012 932.211 409.746C940.017 433.667 922.013 465.457 882.67 478.362C832.122 494.981 766.529 485.287 736.188 456.707V456.644Z" fill="#03FC9E"/><path d="M734.426 445.187C734.426 445.187 733.985 444.747 733.733 444.495C727.313 438.326 723.095 431.779 720.955 425.106C720.01 422.147 719.381 419.126 719.255 416.104C719.255 415.978 719.255 415.789 719.255 415.601C718.374 394.827 736.944 374.431 771.062 363.226C821.61 346.607 887.203 356.301 917.607 384.881C925.917 392.687 930.701 401.122 932.275 409.557C932.715 411.824 932.904 414.09 932.841 416.356C932.526 435.682 915.404 454.315 884.811 465.394C884.748 465.394 884.685 465.457 884.622 465.457C884.182 465.646 883.678 465.835 883.174 465.961C882.419 466.213 881.727 466.465 880.971 466.716C830.423 483.335 764.83 473.641 734.489 445.061L734.426 445.187Z" fill="#E6E8EA"/><path d="M735.37 456.455C724.983 446.698 718.374 426.806 718.436 415.978C718.625 419 719.192 422.022 720.136 424.98C722.276 431.59 726.494 438.137 732.915 444.369C733.104 444.621 733.355 444.81 733.607 445.061C763.949 473.641 829.542 483.335 880.09 466.716C880.845 466.465 881.537 466.213 882.293 465.961C882.733 465.772 883.237 465.583 883.741 465.457C883.804 465.457 883.867 465.457 883.929 465.394C914.523 454.315 931.645 435.682 931.96 416.356C931.96 414.09 931.834 411.824 931.393 409.557C939.199 433.479 921.195 465.269 881.852 478.173C831.304 494.792 765.711 485.098 735.37 456.518V456.455Z" stroke="#003C2E" stroke-width="3" stroke-linecap="round" stroke-linejoin="round"/><path d="M733.607 444.999C733.607 444.999 733.167 444.558 732.915 444.306C726.494 438.137 722.277 431.59 720.136 424.917C719.192 421.959 718.563 418.937 718.437 415.915C718.437 415.789 718.437 415.601 718.437 415.412C717.555 394.638 736.125 374.242 770.244 363.037C820.792 346.418 886.385 356.112 916.789 384.692C925.098 392.498 929.882 400.933 931.456 409.368C931.897 411.635 932.086 413.901 932.023 416.167C931.708 435.493 914.586 454.126 883.993 465.206C883.93 465.206 883.867 465.269 883.804 465.269C883.363 465.457 882.86 465.646 882.356 465.772C881.601 466.024 880.908 466.276 880.153 466.528C829.605 483.147 764.012 473.452 733.67 444.873L733.607 444.999Z" stroke="#003C2E" stroke-width="3" stroke-linecap="round" stroke-linejoin="round"/><path d="M830.486 387.021C830.674 387.21 830.8 387.399 830.926 387.65L833.067 391.302L834.955 394.512L837.158 398.226L838.984 401.374L841.187 405.088L843.075 408.235L845.216 411.886L846.789 414.593C846.789 414.593 846.978 414.782 846.852 414.908C846.852 414.908 846.789 414.908 846.726 414.908C846.601 414.908 846.412 414.908 846.286 414.908C832.311 414.593 818.336 414.278 804.362 413.964C804.173 413.964 803.921 413.964 803.732 413.901C804.551 413.082 805.306 412.264 806.124 411.446L826.709 390.672L830.36 387.021H830.423H830.486Z" fill="#003D2E"/><path d="M803.858 413.964L846.664 414.908H846.978C846.978 414.908 847.293 414.908 847.419 414.908C863.597 415.286 879.775 415.6 895.89 415.978C896.079 415.978 896.268 415.978 896.456 416.104C894.946 416.671 893.435 417.237 891.924 417.804L826.52 441.788C826.52 441.788 826.205 441.914 826.079 441.914C826.016 441.788 826.079 441.662 826.205 441.599L827.779 439.522L830.926 435.493L834.074 431.464C835.144 430.079 836.214 428.757 837.284 427.372L840.369 423.406L843.579 419.315L846.664 415.349V415.223C846.664 415.223 846.79 415.034 846.664 415.034H846.286C832.437 414.719 818.588 414.404 804.677 414.09C804.488 414.09 804.236 414.09 804.047 414.027L803.858 413.964Z" fill="#004734"/><path d="M803.921 413.964C807.384 414.027 810.783 414.09 814.245 414.216C825.009 414.467 835.774 414.719 846.538 414.908C846.979 414.908 846.979 414.908 846.79 415.223L843.202 419.881C842.383 420.888 841.565 421.958 840.81 422.966L837.347 427.435L835.333 430.016L832.5 433.667L830.486 436.248L827.716 439.836L826.205 441.788C826.205 441.788 826.205 441.851 826.205 441.914C826.017 441.914 826.016 441.788 825.954 441.725L814.875 427.687L804.299 414.341C804.299 414.341 804.11 414.09 804.047 413.964H803.921Z" fill="#004734"/><path d="M791.332 413.712L795.99 419.566L809.084 436.122L813.238 441.347C813.238 441.347 813.364 441.473 813.364 441.536C813.238 441.536 813.175 441.473 813.112 441.41C794.731 431.968 776.413 422.525 758.032 413.02C757.906 413.02 757.717 412.957 757.78 412.831C757.969 412.831 758.158 412.831 758.347 412.831C769.174 413.082 780.064 413.334 790.891 413.586C791.08 413.586 791.332 413.586 791.458 413.712H791.332Z" fill="#004734"/><path d="M791.332 413.712C791.332 413.712 791.017 413.712 790.828 413.712C779.938 413.46 768.985 413.208 758.095 412.957H757.654C758.409 412.579 759.165 412.264 759.983 411.949C766.844 408.991 773.706 405.969 780.567 403.01L801.089 394.134L817.456 387.021L817.833 386.895C817.833 386.895 817.581 387.147 817.518 387.273L801.844 403.136L791.458 413.649C791.458 413.649 791.395 413.775 791.332 413.838V413.712Z" fill="#003D2E"/><path d="M896.393 416.104C896.393 416.104 896.141 416.104 896.016 416.104C879.838 415.726 863.597 415.412 847.419 415.034C847.293 415.034 847.104 415.034 846.978 415.034C846.978 415.034 847.167 414.971 847.293 415.034H847.671C863.723 415.412 879.712 415.726 895.764 416.104C896.016 416.104 896.33 416.104 896.582 416.167L896.456 416.23L896.393 416.104Z" fill="#003D2E"/><path d="M896.519 415.978C880.026 415.601 863.534 415.223 847.041 414.908H846.915C846.16 413.586 845.342 412.264 844.586 411.005C843.768 409.62 842.95 408.235 842.131 406.85L837.851 399.674L834.892 394.638L830.486 387.21C830.486 387.21 830.486 387.147 830.486 387.084C831.493 387.525 832.5 387.965 833.507 388.406L858.75 399.485L891.043 413.649L896.393 415.978C896.393 415.978 896.519 415.978 896.582 416.041L896.519 415.978Z" fill="#003D2E"/><path d="M763.508 438.2C753.121 428.443 746.512 408.55 746.575 397.723C746.764 400.744 747.33 403.766 748.274 406.725C750.415 413.334 754.632 419.881 761.053 426.113C761.242 426.365 761.494 426.554 761.745 426.806C792.087 455.385 857.68 465.08 908.228 448.461C908.983 448.209 909.676 447.957 910.431 447.705C910.872 447.517 911.375 447.328 911.879 447.202C911.942 447.202 912.005 447.202 912.068 447.139C942.661 436.06 959.783 417.426 960.098 398.1C960.098 395.834 959.972 393.568 959.531 391.302C967.337 415.223 949.333 447.013 909.99 459.918C859.442 476.537 793.849 466.842 763.508 438.263V438.2Z" fill="#03FC9E"/><path d="M761.746 426.743C761.746 426.743 761.305 426.302 761.053 426.05C754.632 419.881 750.415 413.334 748.275 406.662C747.33 403.703 746.701 400.681 746.575 397.66C746.575 397.534 746.575 397.345 746.575 397.156C745.694 376.382 764.264 355.986 798.382 344.781C848.93 328.162 914.523 337.857 944.927 366.436C953.237 374.242 958.021 382.678 959.594 391.113C960.035 393.379 960.224 395.645 960.161 397.912C959.846 417.237 942.724 435.871 912.131 446.95C912.068 446.95 912.005 447.013 911.942 447.013C911.501 447.202 910.998 447.391 910.494 447.517C909.739 447.768 909.046 448.02 908.291 448.272C857.743 464.891 792.15 455.197 761.809 426.617L761.746 426.743Z" fill="#E6E8EA"/><path d="M762.69 438.011C752.303 428.254 745.693 408.361 745.756 397.534C745.945 400.556 746.512 403.577 747.456 406.536C749.596 413.146 753.814 419.692 760.235 425.925C760.423 426.176 760.675 426.365 760.927 426.617C791.268 455.197 856.861 464.891 907.409 448.272C908.165 448.02 908.857 447.768 909.613 447.517C910.053 447.328 910.557 447.139 911.06 447.013C911.123 447.013 911.186 447.013 911.249 446.95C941.843 435.871 958.965 417.237 959.279 397.912C959.279 395.645 959.154 393.379 958.713 391.113C966.519 415.034 948.515 446.824 909.172 459.729C858.624 476.348 793.031 466.654 762.69 438.074V438.011Z" stroke="#003C2E" stroke-width="3" stroke-linecap="round" stroke-linejoin="round"/><path d="M760.927 426.554C760.927 426.554 760.487 426.113 760.235 425.862C753.814 419.692 749.596 413.146 747.456 406.473C746.512 403.514 745.882 400.493 745.757 397.471C745.757 397.345 745.757 397.156 745.757 396.967C744.875 376.194 763.445 355.798 797.564 344.592C848.112 327.973 913.705 337.668 944.109 366.247C952.418 374.053 957.202 382.489 958.776 390.924C959.217 393.19 959.406 395.456 959.343 397.723C959.028 417.049 941.906 435.682 911.312 446.761C911.25 446.761 911.187 446.824 911.124 446.824C910.683 447.013 910.179 447.202 909.676 447.328C908.92 447.58 908.228 447.831 907.473 448.083C856.925 464.702 791.332 455.008 760.99 426.428L760.927 426.554Z" stroke="#003C2E" stroke-width="3" stroke-linecap="round" stroke-linejoin="round"/><path d="M857.805 368.577C857.994 368.766 858.12 368.954 858.246 369.206L860.386 372.857L862.275 376.068L864.478 379.782L866.303 382.929L868.507 386.644L870.395 389.791L872.535 393.442L874.109 396.149C874.109 396.149 874.298 396.338 874.172 396.464C874.172 396.464 874.109 396.464 874.046 396.464C873.92 396.464 873.731 396.464 873.606 396.464C859.631 396.149 845.656 395.834 831.681 395.52C831.493 395.52 831.241 395.52 831.052 395.457C831.87 394.638 832.626 393.82 833.444 393.002L854.028 372.228L857.679 368.577H857.742H857.805Z" fill="#003D2E"/><path d="M831.178 395.457L873.983 396.401H874.298C874.298 396.401 874.613 396.401 874.739 396.401C890.917 396.779 907.094 397.093 923.209 397.471C923.398 397.471 923.587 397.471 923.776 397.597C922.265 398.163 920.754 398.73 919.244 399.297L853.84 423.281C853.84 423.281 853.525 423.407 853.399 423.407C853.336 423.281 853.399 423.155 853.525 423.092L855.099 421.014L858.246 416.986L861.394 412.957C862.464 411.572 863.534 410.25 864.604 408.865L867.688 404.899L870.899 400.807L873.983 396.841V396.716C873.983 396.716 874.109 396.527 873.983 396.527H873.606C859.757 396.212 845.908 395.897 831.996 395.582C831.807 395.582 831.556 395.582 831.367 395.52L831.178 395.457Z" fill="#004734"/><path d="M831.178 395.52C834.64 395.583 838.039 395.645 841.502 395.771C852.266 396.023 863.03 396.275 873.794 396.464C874.235 396.464 874.235 396.464 874.046 396.779L870.458 401.437C869.64 402.444 868.822 403.514 868.066 404.521L864.604 408.991L862.59 411.572L859.757 415.223L857.742 417.804L854.973 421.392L853.462 423.344C853.462 423.344 853.462 423.407 853.462 423.47C853.273 423.47 853.273 423.344 853.21 423.281L842.131 409.243L831.556 395.897C831.556 395.897 831.367 395.645 831.304 395.52H831.178Z" fill="#004734"/><path d="M818.589 395.205L823.247 401.059L836.34 417.615L840.495 422.84C840.495 422.84 840.621 422.966 840.621 423.029C840.495 423.029 840.432 422.966 840.369 422.903C821.988 413.46 803.67 404.018 785.289 394.512C785.163 394.512 784.974 394.449 785.037 394.323C785.226 394.323 785.415 394.323 785.603 394.323C796.431 394.575 807.321 394.827 818.148 395.079C818.337 395.079 818.589 395.079 818.715 395.205H818.589Z" fill="#004734"/><path d="M818.588 395.205C818.588 395.205 818.274 395.205 818.085 395.205C807.195 394.953 796.241 394.701 785.351 394.449H784.911C785.666 394.072 786.421 393.757 787.24 393.442C794.101 390.484 800.963 387.462 807.824 384.503L828.345 375.627L844.712 368.514L845.09 368.388C845.09 368.388 844.838 368.64 844.775 368.766L829.101 384.629L818.714 395.142C818.714 395.142 818.651 395.268 818.588 395.331V395.205Z" fill="#003D2E"/><path d="M923.713 397.597C923.713 397.597 923.461 397.597 923.335 397.597C907.157 397.219 890.917 396.904 874.739 396.527C874.613 396.527 874.424 396.527 874.298 396.527C874.298 396.527 874.487 396.464 874.613 396.527H874.99C891.042 396.904 907.031 397.219 923.083 397.597C923.335 397.597 923.65 397.597 923.902 397.66L923.776 397.723L923.713 397.597Z" fill="#003D2E"/><path d="M923.839 397.534C907.346 397.156 890.854 396.779 874.361 396.464H874.235C873.48 395.142 872.661 393.82 871.906 392.561C871.088 391.176 870.269 389.791 869.451 388.406L865.17 381.23L862.212 376.194L857.805 368.766C857.805 368.766 857.805 368.703 857.805 368.64C858.812 369.08 859.82 369.521 860.827 369.962L886.069 381.041L918.362 395.205L923.713 397.534C923.713 397.534 923.839 397.534 923.902 397.597L923.839 397.534Z" fill="#003D2E"/><path d="M750.541 421.203C740.154 411.446 733.544 391.553 733.607 380.726C733.796 383.748 734.363 386.769 735.307 389.728C737.447 396.338 741.665 402.885 748.086 409.117C748.274 409.368 748.526 409.557 748.778 409.809C779.12 438.389 844.712 448.083 895.26 431.464C896.016 431.212 896.708 430.961 897.464 430.709C897.904 430.52 898.408 430.331 898.912 430.205C898.974 430.205 899.037 430.205 899.1 430.142C929.694 419.063 946.816 400.429 947.131 381.104C947.131 378.837 947.005 376.571 946.564 374.305C954.37 398.226 936.366 430.016 897.023 442.921C846.475 459.54 780.882 449.846 750.541 421.266V421.203Z" fill="#03FC9E"/><path d="M748.778 409.746C748.778 409.746 748.338 409.306 748.086 409.054C741.665 402.885 737.448 396.338 735.307 389.665C734.363 386.706 733.734 383.685 733.608 380.663C733.608 380.537 733.608 380.348 733.608 380.159C732.726 359.386 751.296 338.99 785.415 327.785C835.963 311.166 901.556 320.86 931.96 349.44C940.269 357.245 945.053 365.681 946.627 374.116C947.068 376.382 947.257 378.649 947.194 380.915C946.879 400.241 929.757 418.874 899.164 429.953C899.101 429.953 899.038 430.016 898.975 430.016C898.534 430.205 898.03 430.394 897.527 430.52C896.771 430.772 896.079 431.023 895.324 431.275C844.776 447.894 779.183 438.2 748.841 409.62L748.778 409.746Z" fill="#E6E8EA"/><path d="M749.785 421.014C739.399 411.257 732.789 391.365 732.852 380.537C733.041 383.559 733.607 386.58 734.552 389.539C736.692 396.149 740.909 402.696 747.33 408.928C747.519 409.18 747.771 409.369 748.023 409.62C778.364 438.2 843.957 447.894 894.505 431.275C895.261 431.023 895.953 430.772 896.708 430.52C897.149 430.331 897.653 430.142 898.156 430.016C898.219 430.016 898.282 430.016 898.345 429.953C928.938 418.874 946.06 400.241 946.375 380.915C946.375 378.649 946.249 376.382 945.809 374.116C953.614 398.037 935.611 429.827 896.268 442.732C845.72 459.351 780.127 449.657 749.785 421.077V421.014Z" stroke="#003C2E" stroke-width="3" stroke-linecap="round" stroke-linejoin="round"/><path d="M747.96 409.557C747.96 409.557 747.519 409.117 747.268 408.865C740.847 402.696 736.629 396.149 734.489 389.476C733.545 386.517 732.915 383.496 732.789 380.474C732.789 380.348 732.789 380.159 732.789 379.971C731.908 359.197 750.478 338.801 784.596 327.596C835.144 310.977 900.737 320.671 931.142 349.251C939.451 357.057 944.235 365.492 945.809 373.927C946.249 376.194 946.438 378.46 946.375 380.726C946.061 400.052 928.938 418.685 898.345 429.764C898.282 429.764 898.219 429.827 898.156 429.827C897.716 430.016 897.212 430.205 896.709 430.331C895.953 430.583 895.261 430.835 894.505 431.086C843.957 447.705 778.364 438.011 748.023 409.431L747.96 409.557Z" stroke="#003C2E" stroke-width="3" stroke-linecap="round" stroke-linejoin="round"/><path d="M903.066 370.591V387.399H873.543C842.635 387.399 817.456 371.032 817.456 350.887V344.215H843.328V350.887C843.328 361.715 856.862 370.528 873.543 370.528H903.066V370.591Z" fill="#003B2F"/><path d="M843.328 403.892V410.565H817.456V403.892C817.456 393.064 803.922 384.251 787.24 384.251V367.443C818.148 367.443 843.328 383.811 843.328 403.955V403.892Z" fill="#003B2F"/><path d="M420.255 186.799H384.683C395.886 186.799 405.126 177.675 405.126 166.357C405.126 155.038 396.002 145.914 384.683 145.914H282.471C271.268 145.914 262.028 155.038 262.028 166.357H230.614C219.411 166.357 210.171 175.481 210.171 186.799C210.171 198.117 219.295 207.242 230.614 207.242H297.6C297.6 218.445 306.724 227.684 318.043 227.684H420.255C431.458 227.684 440.698 218.56 440.698 207.242C440.698 195.923 431.574 186.799 420.255 186.799Z" fill="#03FC9D"/><path d="M138.334 255.402L316.08 255.402C335.662 255.402 351.537 239.528 351.537 219.946C351.537 200.363 335.662 184.489 316.08 184.489L138.334 184.489C118.752 184.489 102.877 200.363 102.877 219.946C102.877 239.528 118.752 255.402 138.334 255.402Z" fill="#E6E8EA"/><path d="M1356.06 504.407H1443.6C1453.22 504.407 1461.02 496.606 1461.02 486.983V486.923C1461.02 477.3 1453.22 469.499 1443.6 469.499H1356.06C1346.44 469.499 1338.63 477.3 1338.63 486.923V486.983C1338.63 496.606 1346.44 504.407 1356.06 504.407Z" fill="#E6E8EA"/><path d="M1403.53 477.618H1546.84C1562.62 477.618 1575.4 464.829 1575.4 449.052C1575.4 433.275 1562.62 420.485 1546.84 420.485H1403.53C1387.75 420.485 1374.96 433.275 1374.96 449.052C1374.96 464.829 1387.75 477.618 1403.53 477.618Z" fill="#E6E8EA"/><path d="M1375.5 200.658H1433.73" stroke="#003B2F" stroke-width="3" stroke-linecap="round" stroke-linejoin="round"/><path d="M1331.29 200.658H1345.97" stroke="#003B2F" stroke-width="3" stroke-linecap="round" stroke-linejoin="round"/><path d="M1245.36 147.242L1259.13 161.011" stroke="#003B2F" stroke-width="3" stroke-linecap="round" stroke-linejoin="round"/><path d="M1269.17 171.047L1282.94 184.816" stroke="#003B2F" stroke-width="3" stroke-linecap="round" stroke-linejoin="round"/><path d="M1245.36 184.816L1259.13 171.047" stroke="#003B2F" stroke-width="3" stroke-linecap="round" stroke-linejoin="round"/><path d="M1269.17 161.011L1282.94 147.242" stroke="#003B2F" stroke-width="3" stroke-linecap="round" stroke-linejoin="round"/><path d="M506.572 291.221L488.683 273.332L470.795 291.221L488.683 309.109L506.572 291.221Z" stroke="#003B2F" stroke-width="3" stroke-linecap="round" stroke-linejoin="round"/><path d="M1199.33 641.612L1220.15 653.639" stroke="#003B2F" stroke-width="3" stroke-linecap="round" stroke-linejoin="round"/><path d="M1241.05 641.612L1228.77 648.662" stroke="#003B2F" stroke-width="3" stroke-linecap="round" stroke-linejoin="round"/><path d="M1220.15 653.639V677.942" stroke="#003B2F" stroke-width="3" stroke-linecap="round" stroke-linejoin="round"/><path d="M1199.33 710.953H1350.2" stroke="#03FC9D" stroke-width="3" stroke-linecap="round" stroke-linejoin="round"/><path d="M1317.36 744.214H1433.73" stroke="#003B2F" stroke-width="3" stroke-linecap="round" stroke-linejoin="round"/><path d="M395.043 539.267H453.27" stroke="#003B2F" stroke-width="3" stroke-linecap="round" stroke-linejoin="round"/><path d="M350.834 539.267H365.515" stroke="#003B2F" stroke-width="3" stroke-linecap="round" stroke-linejoin="round"/><path d="M250.056 684.254H278.838" stroke="#003B2F" stroke-width="3" stroke-linecap="round" stroke-linejoin="round"/><path d="M129.703 619.805H337.894" stroke="#03FC9D" stroke-width="3" stroke-linecap="round" stroke-linejoin="round"/><path d="M315.997 684.171H432.368" stroke="#003B2F" stroke-width="3" stroke-linecap="round" stroke-linejoin="round"/><path d="M264.903 485.851L278.672 499.62" stroke="#003B2F" stroke-width="3" stroke-linecap="round" stroke-linejoin="round"/><path d="M288.708 509.656L302.477 523.425" stroke="#003B2F" stroke-width="3" stroke-linecap="round" stroke-linejoin="round"/><path d="M264.903 523.425L278.672 509.656" stroke="#003B2F" stroke-width="3" stroke-linecap="round" stroke-linejoin="round"/><path d="M288.708 499.62L302.477 485.851" stroke="#003B2F" stroke-width="3" stroke-linecap="round" stroke-linejoin="round"/></svg>