<svg width="1920" height="1080" viewBox="0 0 1920 1080" fill="none" xmlns="http://www.w3.org/2000/svg"><path d="M777.665 217.638C777.665 217.638 782.49 226.344 816.445 206.392C827.11 200.116 856.966 184.445 856.313 175.484C856.313 175.484 811.765 135.435 777.629 217.638H777.665Z" fill="#9FB4AD" stroke="#003A2F" stroke-width="3" stroke-miterlimit="10"/><path d="M930.827 329.588C930.827 329.588 949.292 418.357 946.862 446.616C946.862 446.616 944.068 463.993 926.801 448.321C926.801 448.321 903.946 455.976 899.412 422.782C899.412 422.782 884.901 430.509 878.009 404.354C878.009 404.354 869.81 385.164 873.583 375.369C873.583 375.369 862.7 362.817 862.881 347.617C862.881 347.617 896.038 304.992 930.791 329.624L930.827 329.588Z" fill="white" stroke="#003D2E" stroke-width="3" stroke-linecap="round" stroke-linejoin="round"/><path d="M909.023 343.445C909.023 343.445 904.343 357.811 909.24 371.27C909.24 371.27 909.966 395.648 918.092 402.286C918.092 402.286 916.278 436.676 926.798 448.321" stroke="#003D2E" stroke-width="3" stroke-linecap="round" stroke-linejoin="round"/><path d="M887.184 348.669C887.184 348.669 888.309 361.366 893.424 369.492C893.424 369.492 891.827 391.403 896.87 402.54C896.87 402.54 897.922 415.092 899.446 422.782C899.446 422.782 890.522 411.464 890.957 403.084C890.957 403.084 886.858 385.599 888.164 372.975C888.164 372.975 881.38 359.625 887.184 348.705V348.669Z" fill="#A56545"/><path d="M887.778 372.851L873.422 393.577L875.957 395.332L890.313 374.607L887.778 372.851Z" fill="#80A0CC"/><path d="M834.039 146.789C834.039 146.789 862.262 219.343 886.35 241.871C886.35 241.871 950.596 310.216 976.969 333.905C976.969 333.905 991.189 343.228 986.328 373.954C986.328 373.954 982.193 424.451 975.88 426.519C975.88 426.519 951.43 429.167 961.08 388.428C961.08 388.428 954.622 377.219 959.882 359.081C959.882 359.081 942.978 349.975 936.049 333.506C936.049 333.506 883.266 356.759 862.842 347.581C862.842 347.581 819.963 289.393 817.605 239.875C817.605 239.875 775.089 184.299 759.055 167.939C759.055 167.939 793.155 125.821 833.966 146.789H834.039Z" fill="white" stroke="#003D2E" stroke-width="3" stroke-linecap="round" stroke-linejoin="round"/><path d="M960.236 431.417C967.744 405.891 953.138 379.113 927.613 371.605C902.087 364.097 875.309 378.704 867.801 404.229C860.293 429.754 874.899 456.533 900.425 464.041C925.95 471.548 952.729 456.942 960.236 431.417Z" fill="#00FF94"/><path d="M909.641 311.159C909.641 311.159 887.367 304.702 885.553 317.072C885.553 317.072 885.662 349.649 893.425 369.528C893.425 369.528 899.629 394.559 879.531 399.275C879.531 399.275 864.404 399.928 859.978 365.756C859.978 365.756 857.947 351.317 835.636 310.542C835.636 310.542 806.615 275.898 808.284 240.855C808.284 240.855 775.925 189.922 759.129 167.939C759.129 167.939 785.865 154.226 807.957 152.303" fill="white"/><path d="M909.641 311.159C909.641 311.159 887.367 304.702 885.553 317.072C885.553 317.072 885.662 349.649 893.425 369.528C893.425 369.528 899.629 394.559 879.531 399.275C879.531 399.275 864.404 399.928 859.978 365.756C859.978 365.756 857.947 351.317 835.636 310.542C835.636 310.542 806.615 275.898 808.284 240.855C808.284 240.855 775.925 189.922 759.129 167.939C759.129 167.939 785.865 154.226 807.957 152.303" stroke="#003D2E" stroke-width="3" stroke-linecap="round" stroke-linejoin="round"/><path d="M873.292 373.228C873.292 373.228 864.803 377.691 874.96 399.203C874.96 399.203 885.553 406.458 890.306 394.632C890.306 394.632 887.911 365.211 873.328 373.228H873.292Z" fill="#E6E8EA"/><path d="M856.314 175.521C856.314 175.521 853.992 174.323 850.328 175.775C850.328 175.775 803.821 183.792 779.48 215.207C778.573 216.404 776.795 216.368 775.961 215.135C766.456 200.842 718.644 129.014 676.925 65.711C675.982 64.2599 677.034 62.3373 678.775 62.3373H704.423C714.98 62.3373 725.536 62.9177 736.056 64.1148L755.972 66.364C768.089 67.7062 780.314 67.3435 792.321 65.2757L803.386 63.353C806.651 62.7726 809.843 64.5139 811.113 67.5611C832.734 119.038 855.987 174.65 856.277 175.593L856.314 175.521Z" fill="#E3E7E3"/><path d="M811.15 67.4885C833.351 120.307 856.024 174.541 856.314 175.52C856.314 175.52 853.993 174.323 850.329 175.774C850.329 175.774 801.391 184.227 777.666 217.674C777.666 217.674 724.884 138.482 677.833 67.0169" stroke="#003D2E" stroke-width="3" stroke-linecap="round" stroke-linejoin="round"/><path d="M899.445 431.271C896.543 431.38 894.185 430.763 892.299 429.494C890.449 428.188 889.469 426.229 889.36 423.689C889.36 423.145 889.36 422.492 889.469 421.73C889.723 419.989 890.086 417.849 890.594 415.382C892.009 408.671 896.144 405.188 903 404.934C904.851 404.862 906.556 405.116 908.043 405.696C909.458 406.204 910.727 407.111 911.634 408.344C912.541 409.541 913.013 410.956 913.049 412.661C913.049 413.314 913.049 413.967 912.94 414.584C912.65 416.724 912.287 418.828 911.852 420.932C911.126 424.27 909.748 426.809 907.716 428.55C905.685 430.255 902.928 431.162 899.445 431.271ZM899.772 426.011C901.114 425.975 902.275 425.54 903.182 424.705C904.125 423.871 904.778 422.637 905.141 420.969C905.612 418.683 905.975 416.652 906.229 414.947C906.302 414.439 906.338 413.895 906.338 413.387C906.265 411.174 905.068 410.122 902.783 410.194C901.44 410.231 900.28 410.666 899.336 411.5C898.43 412.335 897.777 413.568 897.414 415.237C896.978 417.232 896.579 419.227 896.289 421.259C896.217 421.767 896.18 422.275 896.18 422.782C896.253 425.032 897.45 426.084 899.772 426.011ZM915.371 430.364C915.153 430.364 914.899 430.292 914.754 430.147C914.609 429.965 914.573 429.711 914.609 429.494L918.817 405.696C918.817 405.442 918.998 405.188 919.18 405.043C919.361 404.862 919.615 404.789 919.869 404.753L929.555 404.426C932.239 404.318 934.416 404.826 936.085 405.878C937.753 406.93 938.66 408.526 938.733 410.63C938.733 411.246 938.733 411.863 938.588 412.516C938.08 415.309 936.919 417.414 935.142 418.828C933.364 420.243 930.897 420.969 927.705 421.077L922.807 421.259L921.393 429.276C921.393 429.53 921.211 429.784 921.03 429.929C920.849 430.11 920.595 430.183 920.341 430.219L915.407 430.401L915.371 430.364ZM927.777 416.035C928.793 416.035 929.664 415.672 930.389 415.092C931.151 414.511 931.623 413.677 931.84 412.625C931.913 412.226 931.913 411.827 931.913 411.537C931.913 410.847 931.659 410.303 931.224 409.941C930.788 409.578 930.099 409.396 929.083 409.433L924.73 409.578L923.569 416.144L927.741 415.999L927.777 416.035Z" fill="#003D2E"/><path d="M1073.72 450.317C1073.72 450.317 1090.66 484.49 1110.18 485.215C1110.18 485.215 1123.82 487.573 1120.92 472.155C1120.92 472.155 1119.9 464.973 1117.29 462.615C1117.29 462.615 1125.2 467.548 1135.97 468.31C1135.97 468.31 1149.58 470.233 1146.46 456.194C1146.46 456.194 1145.44 448.83 1140.11 443.388C1140.11 443.388 1125.16 431.779 1124.29 428.079C1124.29 428.079 1119.21 413.569 1130.86 412.335C1130.86 412.335 1164.05 368.114 1134.63 370.69C1134.63 370.69 1094.95 354.147 1068.79 382.153C1068.79 382.153 1041.91 407.692 1057.54 432.686C1057.54 432.686 1070.1 442.554 1073.72 450.353V450.317Z" fill="white" stroke="#003D2E" stroke-width="3" stroke-linecap="round" stroke-linejoin="round"/><path d="M1112.18 456.629C1112.18 456.629 1087.47 425.939 1081.67 425.213C1081.67 425.213 1087.51 417.922 1090.88 409.469" fill="white"/><path d="M1112.18 456.629C1112.18 456.629 1087.47 425.939 1081.67 425.213C1081.67 425.213 1087.51 417.922 1090.88 409.469" stroke="#003D2E" stroke-width="3" stroke-linecap="round" stroke-linejoin="round"/><path d="M1081.67 425.213C1081.67 425.213 1080.58 424.415 1069.44 426.338" stroke="#003D2E" stroke-width="3" stroke-linecap="round" stroke-linejoin="round"/><path d="M1097.19 421.985C1097.19 421.985 1107.17 414.294 1116.46 418.212" stroke="#003D2E" stroke-width="3" stroke-linecap="round" stroke-linejoin="round"/><path d="M1130.86 412.299C1130.86 412.299 1104.27 404.572 1093.53 395.793C1093.53 395.793 1082.87 409.469 1063.93 412.843C1063.93 412.843 1076.52 445.238 1077.32 458.116C1077.32 458.116 1084.28 479.665 1067.3 479.338C1067.3 479.338 1057.15 473.534 1047.1 455.903C1047.1 455.903 1032.15 427.898 1032.19 406.204C1032.19 406.204 1033.57 394.197 1053.26 378.525C1053.26 378.525 1082.97 350.012 1087.22 344.861C1087.22 344.861 1103.22 331.22 1121.79 336.227C1121.79 336.227 1169.82 347.799 1179.65 349.867C1179.65 349.867 1197.94 352.66 1216.73 345.477C1216.73 345.477 1277.35 314.969 1283.29 311.087C1283.29 311.087 1298.28 319.431 1311.48 351.535C1311.48 351.535 1323.82 383.278 1318.52 398.332C1318.52 398.332 1247.05 411.174 1221.41 421.84C1221.41 421.84 1153.61 449.773 1130.9 412.226L1130.86 412.299Z" fill="white" stroke="#003D2E" stroke-width="3" stroke-linecap="round" stroke-linejoin="round"/><path d="M1052.36 464.138C1052.36 464.138 1056.31 455.976 1065.52 466.641C1065.52 466.641 1072.53 474.405 1067.3 479.338C1067.3 479.338 1059.61 476.327 1052.36 464.138Z" fill="#F8B197"/><path d="M1067.56 553.887C1094.16 553.887 1115.73 532.318 1115.73 505.711C1115.73 479.105 1094.16 457.536 1067.56 457.536C1040.95 457.536 1019.38 479.105 1019.38 505.711C1019.38 532.318 1040.95 553.887 1067.56 553.887Z" fill="#00FF94"/><path d="M1312.46 408.708C1312.75 408.708 1317.83 404.391 1318.05 404.318C1327.01 401.525 1317.76 382.951 1316.92 375.986C1315.43 363.761 1308.11 352.116 1303.97 340.507C1299.18 327.085 1295.92 319.938 1289.86 306.153C1286.27 297.955 1274.15 306.044 1262.76 313.118C1253.62 318.814 1228.37 320.7 1233.63 332.345C1235.99 337.569 1242.26 344.171 1244.88 349.214C1247.78 354.837 1250.54 363.761 1253.07 369.565C1256.3 376.929 1260 386.288 1261.74 393.181C1263.6 400.509 1263.2 411.283 1263.23 415.382C1263.38 426.12 1291.82 405.842 1299.29 408.272C1299.29 408.272 1308.54 408.272 1312.46 408.708Z" fill="#003D2E"/><path d="M1438.85 229.319V237.735C1438.85 253.334 1437.03 268.933 1433.44 284.133C1427.93 307.495 1428.47 331.873 1435.04 354.982L1436.89 361.475C1437.98 365.321 1435.95 369.384 1432.17 370.798C1402.64 381.972 1376.78 392.31 1356.97 399.892C1347.47 403.52 1333.43 412.117 1311.84 414.076C1305.46 414.657 1300.74 411.972 1300.27 408.272C1300.2 407.583 1300.16 406.894 1300.13 406.277C1300.09 405.007 1300.16 403.955 1300.16 403.23C1300.16 402.504 1300.16 401.779 1300.09 401.053C1299.91 398.877 1299.47 396.664 1298.96 394.487C1298.57 392.782 1298.09 391.077 1297.66 389.445C1295.26 380.412 1291.49 371.778 1289.13 362.709C1285.61 349.177 1281.01 337.097 1276.22 324.618C1275.75 323.348 1275.17 322.115 1274.55 320.918C1273.28 318.379 1271.83 315.948 1270.67 313.59C1269.94 312.139 1269.29 310.688 1268.85 309.309C1268.85 309.237 1268.82 309.164 1268.78 309.092C1267.19 303.723 1273.17 280.397 1332.48 260.699C1332.56 260.699 1384.98 241.182 1430.98 223.805C1434.78 222.354 1438.85 225.184 1438.85 229.247V229.319Z" fill="#003D2E"/><path d="M1126.98 409.034C1126.98 409.034 1110.11 435.371 1097.12 443.279C1097.12 443.279 1068.06 461.127 1067.19 474.477C1067.19 474.477 1064.8 492.688 1083.99 491.164C1083.99 491.164 1096.83 487.863 1111.99 476.218C1111.99 476.218 1134.45 462.433 1146.75 460.728C1146.75 460.728 1177.69 458.697 1194.3 444.222C1194.3 444.222 1217.81 432.578 1224.63 416.035" fill="white"/><path d="M1126.98 409.034C1126.98 409.034 1110.11 435.371 1097.12 443.279C1097.12 443.279 1068.06 461.127 1067.19 474.477C1067.19 474.477 1064.8 492.688 1083.99 491.164C1083.99 491.164 1096.83 487.863 1111.99 476.218C1111.99 476.218 1134.45 462.433 1146.75 460.728C1146.75 460.728 1177.69 458.697 1194.3 444.222C1194.3 444.222 1217.81 432.578 1224.63 416.035" stroke="#003D2E" stroke-width="3" stroke-linecap="round" stroke-linejoin="round"/><path d="M1085.7 464.211C1085.7 464.211 1097.7 468.02 1097.09 479.157C1097.09 479.157 1087.98 487.355 1080.8 489.822C1080.8 489.822 1070.21 488.625 1070.31 477.307C1070.31 477.307 1077.53 467.403 1085.73 464.211H1085.7Z" fill="#E6E8EA"/><path d="M1293.63 392.673C1293.63 392.673 1295.63 331.801 1269.65 310.579" stroke="#00261E" stroke-width="3" stroke-linecap="round" stroke-linejoin="round"/><path d="M1048.08 512.64C1045.5 511.334 1043.69 509.666 1042.67 507.634C1041.66 505.566 1041.76 503.426 1042.89 501.141C1043.14 500.669 1043.47 500.125 1043.94 499.472C1044.99 498.057 1046.37 496.388 1047.97 494.466C1052.47 489.242 1057.76 488.19 1063.89 491.31C1065.56 492.144 1066.9 493.196 1067.96 494.429C1068.97 495.554 1069.62 496.969 1069.84 498.456C1070.06 499.907 1069.77 501.394 1069.01 502.918C1068.72 503.499 1068.36 504.043 1067.99 504.551C1066.72 506.292 1065.38 507.961 1063.97 509.557C1061.72 512.132 1059.29 513.692 1056.67 514.236C1054.06 514.744 1051.23 514.236 1048.11 512.64M1050.94 508.178C1052.14 508.795 1053.37 508.94 1054.57 508.65C1055.8 508.36 1056.96 507.598 1058.09 506.292C1059.61 504.514 1060.88 502.918 1061.93 501.54C1062.26 501.141 1062.51 500.669 1062.77 500.197C1063.75 498.238 1063.24 496.715 1061.17 495.699C1059.98 495.082 1058.74 494.901 1057.51 495.191C1056.31 495.481 1055.15 496.279 1054.03 497.549C1052.68 499.073 1051.38 500.669 1050.14 502.265C1049.82 502.664 1049.56 503.099 1049.31 503.571C1048.29 505.566 1048.84 507.09 1050.91 508.142L1050.94 508.178ZM1062.51 519.497C1062.3 519.388 1062.15 519.206 1062.08 518.989C1062.08 518.771 1062.12 518.517 1062.26 518.372L1077.42 499.544C1077.57 499.327 1077.82 499.182 1078.08 499.145C1078.33 499.073 1078.59 499.145 1078.8 499.218L1087.44 503.607C1089.83 504.841 1091.5 506.292 1092.44 508.033C1093.42 509.774 1093.42 511.588 1092.44 513.475C1092.15 514.019 1091.83 514.527 1091.39 515.071C1089.58 517.284 1087.58 518.553 1085.33 518.916C1083.12 519.279 1080.58 518.771 1077.75 517.32L1073.36 515.107L1068.28 521.455C1068.14 521.673 1067.88 521.818 1067.63 521.855C1067.38 521.927 1067.12 521.855 1066.9 521.782L1062.48 519.533L1062.51 519.497ZM1080.29 512.93C1081.2 513.402 1082.1 513.547 1083.05 513.366C1083.99 513.221 1084.79 512.749 1085.48 511.915C1085.73 511.588 1085.91 511.262 1086.06 510.972C1086.38 510.355 1086.42 509.774 1086.24 509.267C1086.06 508.722 1085.51 508.251 1084.61 507.779L1080.73 505.82L1076.55 511.008L1080.29 512.894V512.93Z" fill="#003D2E"/><path d="M695.111 402.874C695.111 402.874 804.231 373.055 806.553 373.345C806.553 373.345 814.497 375.449 810.942 381.181C810.942 381.181 804.956 395.546 758.268 410.021L711.471 427.905C711.471 427.905 695.147 419.888 695.074 402.911L695.111 402.874Z" fill="white" stroke="#003D2E" stroke-width="3" stroke-linecap="round" stroke-linejoin="round"/><path d="M727.431 401.641C727.431 401.641 838.619 406.03 840.578 407.228C840.578 407.228 845.221 412.742 840.396 418.328C840.396 418.328 826.139 434 781.41 428.776L734.867 429.429C734.867 429.429 720.538 416.913 727.431 401.641Z" fill="white" stroke="#003D2E" stroke-width="3" stroke-linecap="round" stroke-linejoin="round"/><path d="M840.325 409.876C839.709 411.073 838.548 412.56 836.589 412.56C836.589 412.56 827.157 412.161 824.799 408.098C824.799 408.098 828.027 405.958 839.491 408.171C840.289 408.316 840.688 409.186 840.325 409.912V409.876Z" fill="#E6E8EA"/><path d="M780.325 493.856C780.325 493.856 780.143 493.747 780.035 493.711C777.64 492.405 775.21 491.389 773.106 490.664C771.691 490.156 770.421 489.757 769.478 489.467C768.353 489.14 767.701 488.995 767.701 488.995C767.229 488.886 766.068 488.451 764.363 487.834C754.822 484.316 729.429 474.267 729.429 474.267C726.925 470.458 744.048 456.382 744.048 456.382C760.627 446.37 768.898 460.736 768.898 460.736C770.82 463.42 773.142 466.794 775.681 470.53C779.817 468.317 784.352 466.612 789.213 465.669C794.146 464.69 799.08 464.545 803.832 465.053C800.313 457.652 797.52 452.066 797.52 452.066C804.957 456.564 824.22 465.452 824.22 465.452C839.601 473.759 843.41 459.103 843.41 459.103C842.83 452.646 786.202 413.54 786.202 413.54C779.055 408.606 754.024 405.196 754.024 405.196C702.366 393.297 649.62 413.467 649.62 413.467C627.128 421.666 616.862 411.145 616.862 411.145C608.845 406.03 580.513 378.605 558.311 356.694L456.41 412.016C527.295 447.495 636.923 501.474 636.923 501.474C684.119 522.515 707.046 515.985 707.046 515.985C719.815 512.902 738.316 512.575 748.583 512.684C749.49 512.684 750.36 512.684 751.122 512.684C754.242 512.756 756.128 512.829 756.128 512.829C759.103 513.264 761.787 513.591 764.29 513.845C770.349 514.425 774.956 514.425 778.511 514.135C780.579 513.954 782.247 513.7 783.626 513.373C788.814 512.14 789.684 510.181 789.684 510.181C790.192 508.73 790.373 507.315 790.337 506.009C790.083 500.604 785.404 496.613 780.397 493.856H780.325Z" fill="white" stroke="#003D2E" stroke-width="3" stroke-linecap="round" stroke-linejoin="round"/><path d="M842.73 522.823C850.237 497.298 835.631 470.519 810.106 463.011C784.58 455.504 757.802 470.11 750.294 495.635C742.786 521.161 757.393 547.939 782.918 555.447C808.443 562.954 835.222 548.348 842.73 522.823Z" fill="#00FF94"/><path d="M793.307 528.682C790.949 530.351 788.627 531.149 786.342 531.076C784.057 530.967 782.17 529.879 780.719 527.811C780.429 527.376 780.102 526.796 779.74 526.106C779.014 524.51 778.18 522.515 777.237 520.193C774.77 513.772 776.366 508.621 781.989 504.667C783.512 503.615 785.072 502.889 786.632 502.563C788.12 502.2 789.643 502.309 791.094 502.817C792.473 503.324 793.67 504.268 794.649 505.682C795.012 506.227 795.339 506.771 795.593 507.351C796.5 509.274 797.37 511.269 798.132 513.264C799.329 516.493 799.547 519.359 798.785 521.898C798.023 524.438 796.173 526.687 793.307 528.682ZM790.732 524.111C791.856 523.349 792.545 522.333 792.872 521.136C793.198 519.939 793.09 518.524 792.473 516.928C791.638 514.752 790.84 512.865 790.115 511.305C789.897 510.834 789.643 510.362 789.353 509.927C788.083 508.113 786.523 507.859 784.637 509.201C783.512 509.963 782.787 510.979 782.46 512.176C782.134 513.373 782.279 514.788 782.896 516.348C783.585 518.27 784.383 520.157 785.217 522.007C785.435 522.479 785.689 522.914 785.979 523.349C787.249 525.163 788.845 525.417 790.768 524.111H790.732ZM806.185 519.286C806.004 519.431 805.75 519.468 805.532 519.431C805.315 519.359 805.17 519.177 805.061 518.96L795.629 496.686C795.52 496.432 795.484 496.178 795.593 495.924C795.665 495.67 795.81 495.452 796.028 495.307L803.973 489.757C806.185 488.233 808.253 487.435 810.248 487.435C812.244 487.435 813.84 488.27 815.037 489.975C815.4 490.483 815.69 491.027 815.944 491.643C817.032 494.292 817.214 496.686 816.488 498.826C815.762 500.966 814.094 502.925 811.482 504.776L807.455 507.605L810.647 515.078C810.756 515.332 810.793 515.586 810.684 515.84C810.611 516.094 810.466 516.312 810.248 516.457L806.185 519.286ZM808.797 500.531C809.632 499.951 810.212 499.225 810.502 498.318C810.829 497.411 810.793 496.468 810.394 495.489C810.212 495.09 810.031 494.799 809.849 494.545C809.45 493.965 808.979 493.639 808.435 493.602C807.89 493.53 807.201 493.747 806.367 494.328L802.775 496.831L805.387 502.962L808.834 500.567L808.797 500.531Z" fill="#003D2E"/><path d="M722.86 421.303C722.86 421.303 757.686 409.549 775.063 419.67C775.063 419.67 784.095 424.713 798.461 453.988" stroke="#003D2E" stroke-width="3" stroke-linecap="round" stroke-linejoin="round"/><path d="M841.414 460.518C839.6 461.316 837.024 462.005 835.174 460.627C835.174 460.627 826.323 453.48 828.209 447.458C828.209 447.458 833.433 447.458 842.103 457.398C842.974 458.414 842.647 459.974 841.414 460.518Z" fill="#E6E8EA"/><path d="M808.148 376.61C807.785 377.807 806.987 379.186 805.318 379.621C805.318 379.621 795.959 381.689 792.585 378.315C792.585 378.315 795.124 375.449 806.515 374.579C807.64 374.506 808.474 375.558 808.148 376.61Z" fill="#E6E8EA"/><path d="M574.127 359.778C537.27 378.279 512.601 450.76 512.601 450.76C509.373 455.729 487.425 445.245 462.322 427.107C461.596 426.599 460.726 426.019 459.674 425.33C457.025 423.661 455.103 421.049 454.305 418.038L450.314 402.838C445.453 384.337 445.743 364.856 451.112 346.464L453.434 338.592C457.243 325.641 458.73 312.11 457.787 298.615L456.046 273.004C455.865 270.501 458.839 269.086 460.726 270.791C501.936 308.301 548.153 333.658 548.153 333.658C576.34 350.962 574.127 359.741 574.127 359.741V359.778Z" fill="#00FF94"/><path d="M598.758 395.039C598.758 395.039 559.942 420.868 554.029 461.098C554.029 461.098 550.655 469.37 512.093 451.558C512.093 451.558 525.878 383.611 574.162 359.778C574.162 359.778 603.945 390.649 598.758 395.039Z" fill="#00FF94"/><path d="M550.111 377.481C550.111 377.481 517.97 402.294 512.093 451.558" stroke="#003D2E" stroke-width="3" stroke-linecap="round" stroke-linejoin="round"/><path d="M636.887 501.474C684.083 522.515 707.01 515.985 707.01 515.985C719.779 512.902 738.28 512.575 748.546 512.684C749.453 512.684 750.324 512.684 751.086 512.684C754.206 512.756 756.092 512.829 756.092 512.829C759.067 513.264 761.751 513.591 764.254 513.845C770.312 514.425 774.92 514.425 778.475 514.135C780.542 513.954 782.211 513.7 783.59 513.373C788.777 512.14 789.648 510.181 789.648 510.181C790.156 508.73 790.337 507.315 790.301 506.009C790.047 500.604 785.367 496.613 780.361 493.856C780.288 493.82 780.18 493.747 780.071 493.711C777.677 492.405 775.246 491.389 773.142 490.664C771.727 490.156 770.458 489.757 769.514 489.467C768.39 489.14 767.737 488.995 767.737 488.995C767.265 488.886 766.104 488.451 764.399 487.834C754.859 484.316 729.465 474.267 729.465 474.267" fill="white"/><path d="M636.887 501.474C684.083 522.515 707.01 515.985 707.01 515.985C719.779 512.902 738.28 512.575 748.546 512.684C749.453 512.684 750.324 512.684 751.086 512.684C754.206 512.756 756.092 512.829 756.092 512.829C759.067 513.264 761.751 513.591 764.254 513.845C770.312 514.425 774.92 514.425 778.475 514.135C780.542 513.954 782.211 513.7 783.59 513.373C788.777 512.14 789.648 510.181 789.648 510.181C790.156 508.73 790.337 507.315 790.301 506.009C790.047 500.604 785.367 496.613 780.361 493.856C780.288 493.82 780.18 493.747 780.071 493.711C777.677 492.405 775.246 491.389 773.142 490.664C771.727 490.156 770.458 489.757 769.514 489.467C768.39 489.14 767.737 488.995 767.737 488.995C767.265 488.886 766.104 488.451 764.399 487.834C754.859 484.316 729.465 474.267 729.465 474.267" stroke="#003D2E" stroke-width="3" stroke-linecap="round" stroke-linejoin="round"/><path d="M763.635 509.419C763.635 509.419 762.51 498.899 780.757 501.801C780.757 501.801 790.371 503.47 787.577 509.564C787.577 509.564 785.836 513.301 776.767 513.446C776.767 513.446 763.018 514.57 763.671 509.419H763.635Z" fill="#E6E8EA"/><path d="M729.971 474.484C729.971 474.484 712.485 467.592 701.675 466.866" stroke="#003D2E" stroke-width="3" stroke-linecap="round" stroke-linejoin="round"/><path d="M962.194 650.238C988.801 650.238 1010.37 628.669 1010.37 602.062C1010.37 575.456 988.801 553.887 962.194 553.887C935.587 553.887 914.019 575.456 914.019 602.062C914.019 628.669 935.587 650.238 962.194 650.238Z" fill="#00FF94"/><path d="M942.714 608.991C940.138 607.685 938.325 606.016 937.309 603.985C936.293 601.917 936.402 599.777 937.526 597.491C937.78 597.02 938.107 596.476 938.579 595.823C939.631 594.408 941.009 592.739 942.605 590.817C947.104 585.593 952.4 584.541 958.531 587.66C960.199 588.495 961.542 589.547 962.594 590.78C963.609 591.905 964.262 593.32 964.48 594.807C964.698 596.258 964.408 597.745 963.646 599.269C963.356 599.849 962.993 600.394 962.63 600.901C961.36 602.643 960.018 604.311 958.603 605.908C956.354 608.483 953.924 610.043 951.312 610.587C948.7 611.095 945.87 610.587 942.75 608.991M945.58 604.529C946.777 605.146 948.01 605.291 949.208 605.001C950.441 604.71 951.602 603.949 952.726 602.643C954.25 600.865 955.52 599.269 956.572 597.89C956.898 597.491 957.152 597.02 957.406 596.548C958.386 594.589 957.878 593.066 955.81 592.05C954.613 591.433 953.379 591.252 952.146 591.542C950.949 591.832 949.788 592.63 948.663 593.9C947.321 595.424 946.015 597.02 944.782 598.616C944.455 599.015 944.201 599.45 943.947 599.922C942.932 601.917 943.476 603.441 945.544 604.493L945.58 604.529ZM957.152 615.847C956.935 615.739 956.789 615.557 956.717 615.34C956.717 615.122 956.753 614.868 956.898 614.723L972.062 595.895C972.207 595.678 972.461 595.532 972.715 595.496C972.969 595.424 973.223 595.496 973.44 595.569L982.074 599.958C984.469 601.192 986.137 602.643 987.08 604.384C988.06 606.125 988.06 607.939 987.08 609.825C986.79 610.37 986.464 610.877 986.028 611.422C984.215 613.635 982.219 614.904 979.97 615.267C977.757 615.63 975.218 615.122 972.388 613.671L967.999 611.458L962.92 617.806C962.775 618.024 962.521 618.169 962.267 618.205C962.013 618.278 961.759 618.205 961.542 618.133L957.116 615.884L957.152 615.847ZM974.928 609.281C975.835 609.753 976.742 609.898 977.685 609.717C978.628 609.572 979.426 609.1 980.115 608.266C980.369 607.939 980.551 607.613 980.696 607.322C981.022 606.706 981.059 606.125 980.877 605.617C980.696 605.073 980.152 604.602 979.245 604.13L975.363 602.171L971.191 607.359L974.928 609.245V609.281Z" fill="#003D2E"/><path d="M1032.53 911.889C1059.14 911.889 1080.71 890.321 1080.71 863.714C1080.71 837.107 1059.14 815.539 1032.53 815.539C1005.92 815.539 984.355 837.107 984.355 863.714C984.355 890.321 1005.92 911.889 1032.53 911.889Z" fill="#00FF94"/><path d="M937.667 919.907C964.273 919.907 985.842 898.338 985.842 871.731C985.842 845.125 964.273 823.556 937.667 823.556C911.06 823.556 889.491 845.125 889.491 871.731C889.491 898.338 911.06 919.907 937.667 919.907Z" fill="#00FF94"/><path d="M992.482 999.062C1019.09 999.062 1040.66 977.493 1040.66 950.887C1040.66 924.28 1019.09 902.711 992.482 902.711C965.876 902.711 944.307 924.28 944.307 950.887C944.307 977.493 965.876 999.062 992.482 999.062Z" fill="#00FF94"/><path d="M930.621 966.625C939.371 941.499 926.095 914.036 900.969 905.286C875.842 896.536 848.379 909.812 839.629 934.939C830.879 960.065 844.155 987.528 869.282 996.278C894.409 1005.03 921.871 991.752 930.621 966.625Z" fill="#00FF94"/><path d="M1002.42 950.089C1002.78 953.97 1000.93 957.163 997.451 957.924C993.642 958.723 990.921 956.836 988.926 952.447" stroke="#F9F7F9" stroke-width="3" stroke-linecap="round" stroke-linejoin="round"/><path d="M987.041 939.424C987.44 939.569 987.44 940.149 987.041 940.33L982.434 942.072C982.434 942.072 982.18 942.18 982.035 942.217C980.801 942.652 979.858 943.595 979.423 944.792C979.423 944.792 979.423 944.792 979.423 944.829L977.645 949.69C977.5 950.125 976.884 950.125 976.738 949.69L974.961 944.829C974.961 944.829 974.961 944.756 974.925 944.72C974.489 943.523 973.546 942.579 972.385 942.18C972.349 942.18 972.313 942.181 972.276 942.144L967.415 940.367C966.98 940.222 966.98 939.605 967.415 939.46L972.276 937.682C972.276 937.682 972.276 937.682 972.313 937.682C973.51 937.247 974.453 936.267 974.888 935.07C974.925 934.925 974.997 934.816 975.033 934.671L976.775 930.064C976.92 929.665 977.5 929.665 977.682 930.064L979.423 934.671C979.423 934.671 979.532 934.925 979.568 935.07C979.967 936.267 980.947 937.211 982.144 937.646C982.289 937.682 982.398 937.755 982.543 937.791L987.15 939.532L987.041 939.424Z" fill="white"/><path d="M1017.66 932.821C1018.06 932.966 1018.06 933.547 1017.66 933.728L1013.05 935.469C1013.05 935.469 1012.8 935.578 1012.65 935.614C1011.42 936.05 1010.47 936.993 1010.04 938.19C1010.04 938.19 1010.04 938.19 1010.04 938.226L1008.26 943.087C1008.12 943.523 1007.5 943.523 1007.35 943.087L1005.58 938.226C1005.58 938.226 1005.58 938.154 1005.54 938.118C1005.1 936.92 1004.16 935.977 1003 935.578C1002.96 935.578 1002.93 935.578 1002.89 935.542L998.031 933.764C997.595 933.619 997.595 933.003 998.031 932.857L1002.89 931.08C1002.89 931.08 1002.89 931.08 1002.93 931.08C1004.13 930.645 1005.07 929.665 1005.5 928.468C1005.54 928.323 1005.61 928.214 1005.65 928.069L1007.39 923.462C1007.54 923.063 1008.12 923.063 1008.3 923.462L1010.04 928.069C1010.04 928.069 1010.15 928.323 1010.18 928.468C1010.58 929.665 1011.56 930.608 1012.76 931.044C1012.9 931.08 1013.01 931.152 1013.16 931.189L1017.77 932.93L1017.66 932.821Z" fill="white"/><path d="M1017.48 876.81C1014.57 876.81 1012.22 876.121 1010.37 874.778C1008.55 873.4 1007.64 871.441 1007.64 868.865C1007.64 868.321 1007.72 867.668 1007.83 866.906C1008.15 865.165 1008.59 863.061 1009.17 860.63C1010.8 853.956 1015.08 850.618 1021.94 850.618C1023.79 850.618 1025.49 850.945 1026.94 851.561C1028.36 852.105 1029.59 853.085 1030.43 854.318C1031.26 855.515 1031.7 857.003 1031.7 858.672C1031.7 859.325 1031.62 859.977 1031.51 860.594C1031.15 862.698 1030.72 864.802 1030.21 866.87C1029.37 870.208 1027.89 872.674 1025.82 874.343C1023.75 875.976 1020.96 876.774 1017.44 876.774M1017.95 871.55C1019.29 871.55 1020.45 871.151 1021.39 870.353C1022.37 869.555 1023.06 868.321 1023.46 866.689C1024.01 864.403 1024.44 862.408 1024.73 860.739C1024.84 860.231 1024.88 859.724 1024.88 859.179C1024.88 856.967 1023.72 855.878 1021.43 855.878C1020.09 855.878 1018.93 856.277 1017.95 857.075C1017 857.873 1016.31 859.107 1015.92 860.739C1015.41 862.698 1014.97 864.693 1014.61 866.689C1014.5 867.197 1014.46 867.704 1014.46 868.212C1014.46 870.461 1015.63 871.55 1017.95 871.55ZM1033.36 876.411C1033.15 876.411 1032.89 876.338 1032.75 876.157C1032.64 875.976 1032.6 875.722 1032.64 875.504L1037.65 851.851C1037.68 851.598 1037.83 851.344 1038.04 851.199C1038.23 851.053 1038.48 850.945 1038.73 850.945H1048.42C1051.1 850.945 1053.28 851.489 1054.91 852.613C1056.55 853.738 1057.38 855.334 1057.38 857.438C1057.38 858.055 1057.31 858.672 1057.16 859.324C1056.55 862.118 1055.31 864.186 1053.5 865.528C1051.68 866.87 1049.18 867.523 1045.99 867.523H1041.09L1039.42 875.504C1039.39 875.758 1039.24 876.012 1039.02 876.157C1038.84 876.338 1038.59 876.411 1038.33 876.411H1033.4H1033.36ZM1046.24 862.517C1047.26 862.517 1048.13 862.227 1048.89 861.683C1049.65 861.138 1050.16 860.34 1050.41 859.288C1050.49 858.889 1050.52 858.526 1050.52 858.2C1050.52 857.511 1050.31 856.967 1049.91 856.604C1049.51 856.205 1048.78 856.023 1047.8 856.023H1043.45L1042.07 862.553H1046.24V862.517Z" fill="#003D2E"/><path d="M934.474 888.491C932.116 890.16 929.794 890.958 927.509 890.885C925.224 890.776 923.337 889.688 921.886 887.62C921.596 887.185 921.269 886.605 920.907 885.915C920.181 884.319 919.347 882.324 918.404 880.002C915.937 873.581 917.533 868.43 923.156 864.476C924.679 863.424 926.239 862.698 927.799 862.372C929.287 862.009 930.81 862.118 932.261 862.626C933.64 863.134 934.837 864.077 935.816 865.492C936.179 866.036 936.506 866.58 936.76 867.16C937.667 869.083 938.537 871.078 939.299 873.073C940.496 876.302 940.714 879.168 939.952 881.707C939.19 884.247 937.34 886.496 934.474 888.491ZM931.899 883.92C933.023 883.158 933.712 882.143 934.039 880.945C934.365 879.748 934.257 878.333 933.64 876.737C932.805 874.561 932.007 872.674 931.282 871.114C931.064 870.643 930.81 870.171 930.52 869.736C929.25 867.922 927.69 867.668 925.804 869.01C924.679 869.772 923.954 870.788 923.627 871.985C923.301 873.182 923.446 874.597 924.063 876.157C924.752 878.08 925.55 879.966 926.384 881.816C926.602 882.288 926.856 882.723 927.146 883.158C928.416 884.972 930.012 885.226 931.935 883.92H931.899ZM947.352 879.095C947.171 879.24 946.917 879.277 946.699 879.24C946.482 879.168 946.337 878.986 946.228 878.769L936.796 856.495C936.687 856.241 936.651 855.987 936.76 855.733C936.832 855.479 936.977 855.262 937.195 855.116L945.14 849.566C947.352 848.042 949.42 847.244 951.415 847.244C953.411 847.244 955.007 848.079 956.204 849.784C956.567 850.292 956.857 850.836 957.111 851.452C958.199 854.101 958.381 856.495 957.655 858.635C956.929 860.776 955.261 862.735 952.649 864.585L948.622 867.414L951.814 874.887C951.923 875.141 951.96 875.395 951.851 875.649C951.778 875.903 951.633 876.121 951.415 876.266L947.352 879.095ZM949.964 860.34C950.799 859.76 951.379 859.034 951.669 858.127C951.996 857.22 951.96 856.277 951.561 855.298C951.379 854.899 951.198 854.609 951.016 854.355C950.617 853.774 950.146 853.448 949.602 853.411C949.057 853.339 948.368 853.557 947.534 854.137L943.942 856.64L946.554 862.771L950.001 860.377L949.964 860.34Z" fill="#003D2E"/><path d="M865.075 954.66C862.79 952.882 861.375 950.887 860.758 948.674C860.178 946.461 860.686 944.357 862.246 942.362C862.572 941.927 863.044 941.455 863.588 940.947C864.93 939.786 866.563 938.408 868.521 936.848C873.927 932.64 879.368 932.64 884.737 936.848C886.188 938.009 887.313 939.278 888.111 940.693C888.873 941.999 889.235 943.523 889.163 945.01C889.09 946.497 888.51 947.912 887.458 949.218C887.059 949.726 886.587 950.198 886.116 950.633C884.52 952.084 882.887 953.463 881.182 954.768C878.461 956.873 875.777 957.888 873.092 957.925C870.444 957.925 867.76 956.836 865.003 954.66M868.63 950.851C869.682 951.685 870.843 952.084 872.077 952.048C873.346 952.048 874.616 951.467 875.958 950.452C877.808 949 879.368 947.695 880.638 946.534C881.037 946.207 881.4 945.808 881.726 945.409C883.105 943.668 882.851 942.108 881.037 940.657C879.985 939.823 878.824 939.424 877.554 939.424C876.321 939.46 875.015 940.004 873.673 941.056C872.04 942.289 870.48 943.595 868.957 944.938C868.558 945.264 868.195 945.627 867.905 946.062C866.526 947.803 866.744 949.4 868.594 950.851H868.63ZM877.736 964.2C877.554 964.055 877.409 963.838 877.409 963.62C877.409 963.402 877.554 963.185 877.736 963.04L896.309 947.549C896.491 947.368 896.745 947.259 897.035 947.295C897.289 947.295 897.543 947.368 897.724 947.513L905.342 953.499C907.446 955.168 908.825 956.945 909.405 958.831C910.022 960.718 909.659 962.495 908.353 964.164C907.991 964.636 907.519 965.071 907.011 965.506C904.798 967.32 902.585 968.191 900.3 968.082C898.051 968.01 895.656 966.994 893.153 965.035L889.308 961.988L883.068 967.211C882.887 967.393 882.597 967.502 882.343 967.465C882.089 967.465 881.835 967.393 881.654 967.248L877.772 964.2H877.736ZM896.455 961.226C897.253 961.842 898.123 962.169 899.066 962.205C900.01 962.242 900.917 961.951 901.751 961.262C902.077 960.972 902.331 960.718 902.513 960.464C902.948 959.92 903.129 959.376 903.021 958.831C902.948 958.287 902.513 957.671 901.715 957.054L898.268 954.369L893.153 958.65L896.455 961.226Z" fill="#003D2E"/><path opacity="0.41" d="M1079.58 657.953V676.708C1079.58 678.267 1080.85 679.501 1082.37 679.501H1088.14C1089.7 679.501 1090.94 680.771 1090.94 682.294V966.631C1090.94 992.315 1070.11 1013.17 1044.39 1013.17H847.446C821.762 1013.17 800.903 992.351 800.903 966.631V682.294C800.903 680.734 802.173 679.501 803.697 679.501H809.501C811.061 679.501 812.294 678.231 812.294 676.708V657.953C812.294 656.393 811.025 655.159 809.501 655.159C805.293 655.159 802.354 651.024 803.733 647.033L804.458 644.965C806.562 638.835 806.635 632.196 804.604 626.029L803.552 622.837C802.246 618.883 805.184 614.82 809.356 614.82H1082.34C1086.55 614.82 1089.48 618.955 1088.11 622.946L1087.38 625.086C1085.28 631.217 1085.2 637.855 1087.24 644.022L1088.25 647.142C1089.56 651.096 1086.62 655.159 1082.45 655.159H1082.3C1080.74 655.159 1079.51 656.429 1079.51 657.953H1079.58Z" fill="#E6E8EA"/><path d="M1080.74 667.348C1080.74 667.348 896.383 659.694 810.879 656.356L1080.74 656.211" stroke="#003D2E" stroke-width="3" stroke-linecap="round" stroke-linejoin="round"/><path d="M810.192 679.537L1082.3 678.884C1082.3 678.884 893.266 671.665 811.244 667.348" stroke="#003D2E" stroke-width="3" stroke-linecap="round" stroke-linejoin="round"/><path d="M835.15 891.393C830.144 891.393 826.081 887.33 826.081 882.324V715.778C826.081 710.771 830.144 706.708 835.15 706.708C840.156 706.708 844.219 710.771 844.219 715.778V882.324C844.219 887.33 840.156 891.393 835.15 891.393Z" fill="white"/><path d="M835.15 939.278C830.144 939.278 826.081 935.215 826.081 930.209V918.093C826.081 913.087 830.144 909.024 835.15 909.024C840.156 909.024 844.219 913.087 844.219 918.093V930.209C844.219 935.215 840.156 939.278 835.15 939.278Z" fill="white"/><path d="M944.64 777.214C960.761 756.047 956.672 725.82 935.505 709.698C914.339 693.577 884.112 697.667 867.99 718.833C851.869 739.999 855.958 770.227 877.125 786.348C898.291 802.469 928.519 798.38 944.64 777.214Z" fill="#00FF94"/><path d="M900.024 767.718C897.425 768.976 894.998 769.408 892.767 768.985C890.506 768.54 888.869 767.157 887.733 764.877C887.511 764.39 887.276 763.8 887.043 763.029C886.555 761.335 886.062 759.227 885.5 756.793C884.07 750.049 886.442 745.198 892.639 742.211C894.314 741.389 895.964 740.959 897.582 740.869C899.093 740.743 900.614 741.08 901.929 741.808C903.215 742.514 904.223 743.647 904.973 745.176C905.259 745.758 905.472 746.377 905.656 746.973C906.272 749.038 906.786 751.117 907.199 753.21C907.885 756.56 907.653 759.438 906.504 761.846C905.325 764.231 903.206 766.175 900.046 767.689M898.211 762.735C899.427 762.156 900.29 761.263 900.784 760.135C901.301 758.978 901.398 757.593 901.041 755.907C900.55 753.617 900.049 751.64 899.59 749.968C899.47 749.467 899.249 748.979 899.028 748.491C898.063 746.525 896.543 746.006 894.482 747.035C893.266 747.614 892.375 748.485 891.858 749.642C891.364 750.77 891.295 752.177 891.624 753.841C892.023 755.832 892.501 757.839 893.024 759.787C893.143 760.288 893.336 760.754 893.557 761.242C894.529 763.259 896.071 763.749 898.16 762.742L898.211 762.735ZM914.227 760.387C914.009 760.494 913.776 760.5 913.559 760.425C913.386 760.293 913.206 760.111 913.179 759.907L907.389 736.436C907.303 736.189 907.342 735.899 907.467 735.675C907.563 735.429 907.775 735.271 907.964 735.142L916.688 730.933C919.119 729.776 921.285 729.327 923.242 729.632C925.22 729.908 926.663 731.007 927.57 732.929C927.828 733.49 928.034 734.057 928.203 734.733C928.864 737.517 928.665 739.874 927.591 741.883C926.539 743.863 924.596 745.575 921.727 746.947L917.307 749.098L919.28 756.985C919.366 757.232 919.327 757.522 919.202 757.746C919.106 757.992 918.894 758.15 918.705 758.28L914.234 760.438L914.227 760.387ZM919.774 742.267C920.699 741.832 921.364 741.198 921.791 740.338C922.247 739.5 922.355 738.579 922.109 737.525C922.003 737.125 921.854 736.783 921.711 736.492C921.418 735.858 920.978 735.478 920.464 735.314C919.921 735.129 919.216 735.276 918.292 735.712L914.381 737.613L915.981 744.075L919.745 742.245L919.774 742.267Z" fill="#003D2E"/><path d="M1610.9 100.136H1757.29C1773.41 100.136 1786.48 113.198 1786.48 129.324C1786.48 145.449 1773.41 158.511 1757.29 158.511H1610.9C1594.78 158.511 1581.71 145.449 1581.71 129.324C1581.71 113.198 1594.78 100.136 1610.9 100.136Z" fill="#E6E8EA"/><path d="M1538.53 134.544H1701.4C1719.33 134.544 1733.92 149.048 1733.92 167.065C1733.92 185.082 1719.42 199.585 1701.4 199.585H1538.53C1520.6 199.585 1506.01 185.082 1506.01 167.065C1506.01 149.138 1520.6 134.544 1538.53 134.544Z" fill="#E6E8EA"/><path d="M217.179 149.861H368.055" stroke="#03FC9D" stroke-width="3" stroke-linecap="round" stroke-linejoin="round"/><path d="M335.209 183.121H451.58" stroke="#003B2F" stroke-width="3" stroke-linecap="round" stroke-linejoin="round"/><path d="M1150.92 227.074C1158.51 227.074 1164.67 220.92 1164.67 213.33C1164.67 205.739 1158.51 199.585 1150.92 199.585C1143.33 199.585 1137.18 205.739 1137.18 213.33C1137.18 220.92 1143.33 227.074 1150.92 227.074Z" stroke="#003B2F" stroke-width="3" stroke-linecap="round" stroke-linejoin="round"/><path d="M206.77 348.585L227.589 360.612" stroke="#003B2F" stroke-width="3" stroke-linecap="round" stroke-linejoin="round"/><path d="M248.492 348.585L236.216 355.635" stroke="#003B2F" stroke-width="3" stroke-linecap="round" stroke-linejoin="round"/><path d="M227.589 360.613V384.915" stroke="#003B2F" stroke-width="3" stroke-linecap="round" stroke-linejoin="round"/><path d="M1661.8 462.373H1837.57" stroke="#03FC9D" stroke-width="3" stroke-linecap="round" stroke-linejoin="round"/><path d="M918.438 479.705L924.086 491.705" stroke="#003B2F" stroke-width="3" stroke-linecap="round" stroke-linejoin="round"/><path d="M928.203 500.529L933.85 512.529" stroke="#003B2F" stroke-width="3" stroke-linecap="round" stroke-linejoin="round"/><path d="M909.732 503.823L921.733 498.176" stroke="#003B2F" stroke-width="3" stroke-linecap="round" stroke-linejoin="round"/><path d="M930.557 494.058L942.557 488.411" stroke="#003B2F" stroke-width="3" stroke-linecap="round" stroke-linejoin="round"/><path d="M1600.44 509.038H1617.5" stroke="#003B2F" stroke-width="3" stroke-linecap="round" stroke-linejoin="round"/><path d="M1651.93 509.038H1719.77" stroke="#003B2F" stroke-width="3" stroke-linecap="round" stroke-linejoin="round"/><path d="M155.004 616.577H430.099" stroke="#03FC9D" stroke-width="3" stroke-linecap="round" stroke-linejoin="round"/><path d="M122.522 653.449H276.368" stroke="#003B2F" stroke-width="3" stroke-linecap="round" stroke-linejoin="round"/><path d="M1408.01 672.315H1561.51" stroke="#03FC9D" stroke-width="3" stroke-linecap="round" stroke-linejoin="round"/><path d="M722.852 680.257L738.94 698.784" stroke="#003B2F" stroke-width="3" stroke-linecap="round" stroke-linejoin="round"/><path d="M763.037 694.154L748.848 696.873" stroke="#003B2F" stroke-width="3" stroke-linecap="round" stroke-linejoin="round"/><path d="M738.94 698.785L730.814 722.283" stroke="#003B2F" stroke-width="3" stroke-linecap="round" stroke-linejoin="round"/><path d="M1365.76 706.637H1492.87" stroke="#003B2F" stroke-width="3" stroke-linecap="round" stroke-linejoin="round"/><path d="M1293.87 706.727H1325.22" stroke="#003B2F" stroke-width="3" stroke-linecap="round" stroke-linejoin="round"/><path d="M615.331 842.022H579.759C590.962 842.022 600.202 832.898 600.202 821.58C600.202 810.261 591.077 801.137 579.759 801.137H477.547C466.344 801.137 457.104 810.261 457.104 821.58H425.69C414.487 821.58 405.247 830.704 405.247 842.022C405.247 853.341 414.371 862.465 425.69 862.465H492.676C492.676 873.668 501.8 882.907 513.119 882.907H615.331C626.534 882.907 635.774 873.783 635.774 862.465C635.774 851.146 626.65 842.022 615.331 842.022Z" fill="#03FC9D"/><path d="M355.774 925.984H533.52C553.102 925.984 568.977 910.109 568.977 890.527C568.977 870.945 553.102 855.07 533.52 855.07H355.774C336.192 855.07 320.317 870.945 320.317 890.527C320.317 910.109 336.192 925.984 355.774 925.984Z" fill="#E6E8EA"/><path d="M1236.48 891.002L1245.13 909.379" stroke="#003B2F" stroke-width="3" stroke-linecap="round" stroke-linejoin="round"/><path d="M1251.44 922.892L1260.08 941.269" stroke="#003B2F" stroke-width="3" stroke-linecap="round" stroke-linejoin="round"/><path d="M1223.15 927.937L1241.53 919.289" stroke="#003B2F" stroke-width="3" stroke-linecap="round" stroke-linejoin="round"/><path d="M1255.04 912.983L1273.42 904.334" stroke="#003B2F" stroke-width="3" stroke-linecap="round" stroke-linejoin="round"/></svg>