<?xml version="1.0" encoding="UTF-8"?><svg id="Layer_1" data-name="Layer 1" xmlns="http://www.w3.org/2000/svg" xmlns:xlink="http://www.w3.org/1999/xlink" viewBox="0 0 192 108"><defs><style>.cls-1, .cls-2, .cls-3, .cls-4, .cls-5, .cls-6, .cls-7, .cls-8 {
        fill: none;
      }

      .cls-9 {
        clip-path: url(#clippath);
      }

      .cls-2 {
        stroke-width: .33px;
      }

      .cls-2, .cls-3, .cls-4, .cls-5, .cls-6, .cls-7 {
        stroke-linecap: round;
        stroke-linejoin: round;
      }

      .cls-2, .cls-6 {
        stroke: #003c2e;
      }

      .cls-3, .cls-7, .cls-8, .cls-10, .cls-11 {
        stroke: #003d2e;
      }

      .cls-3, .cls-8, .cls-10, .cls-11 {
        stroke-width: .33px;
      }

      .cls-4 {
        stroke: #163b2f;
      }

      .cls-4, .cls-5, .cls-6, .cls-7 {
        stroke-width: .32px;
      }

      .cls-12 {
        fill: #00ff94;
      }

      .cls-13, .cls-10 {
        fill: #e3e7e3;
      }

      .cls-5 {
        stroke: #00ff94;
      }

      .cls-8, .cls-10, .cls-11 {
        stroke-miterlimit: 10;
      }

      .cls-14 {
        fill: #003d2e;
        fill-rule: evenodd;
      }

      .cls-11 {
        fill: #fff;
      }</style><clipPath id="clippath"><rect class="cls-1" x="-1.86" y="24.44" width="195.71" height="83.78"/></clipPath></defs><rect class="cls-12" x="165.17" y="14.15" width="20.89" height="5.96" rx="2.96" ry="2.96"/><rect class="cls-12" x="156.89" y="7.54" width="24.52" height="6.99" rx="3.28" ry="3.28"/><line class="cls-6" x1="138.99" y1="28.03" x2="143.59" y2="28.03"/><line class="cls-6" x1="135.5" y1="28.03" x2="136.65" y2="28.03"/><line class="cls-5" x1="124.86" y1="33.63" x2="141.33" y2="33.63"/><circle class="cls-6" cx="131.68" cy="66.64" r="1.68"/><g><line class="cls-7" x1="145.71" y1="38.24" x2="148.28" y2="36.76"/><line class="cls-7" x1="150.85" y1="38.24" x2="149.71" y2="37.59"/><line class="cls-7" x1="148.28" y1="36.76" x2="148.28" y2="33.76"/></g><line class="cls-6" x1="142.52" y1="63.95" x2="145.85" y2="63.95"/><line class="cls-5" x1="128.59" y1="59.02" x2="152.69" y2="59.02"/><line class="cls-6" x1="150.15" y1="63.93" x2="163.62" y2="63.93"/><rect class="cls-7" x="44.59" y="36.2" width="3.56" height="3.56" transform="translate(40.44 -21.66) rotate(45)"/><rect class="cls-13" x="48.97" y="7.92" width="20.48" height="5.84" rx="2.92" ry="2.92"/><rect class="cls-13" x="54.14" y="12.79" width="29.45" height="8.4" rx="3.72" ry="3.72"/><line class="cls-6" x1="26.71" y1="33.81" x2="31.31" y2="33.81"/><line class="cls-6" x1="23.21" y1="33.81" x2="24.37" y2="33.81"/><line class="cls-5" x1="12.58" y1="39.41" x2="29.04" y2="39.41"/><g><line class="cls-7" x1="8.03" y1="41.42" x2="9.58" y2="43.95"/><line class="cls-7" x1="8.17" y1="46.56" x2="8.79" y2="45.41"/><line class="cls-7" x1="9.58" y1="43.95" x2="12.58" y2="43.87"/></g><line class="cls-4" x1="87.75" y1="9.67" x2="89.34" y2="11.27"/><line class="cls-4" x1="90.51" y1="12.43" x2="92.1" y2="14.02"/><line class="cls-4" x1="87.75" y1="14.02" x2="89.34" y2="12.43"/><line class="cls-4" x1="90.51" y1="11.27" x2="92.1" y2="9.67"/><g class="cls-9"><path class="cls-10" d="M-4.26,64.07c3.32,1.19,7.35-1,10.4,.78,1.93,1.13,2.74,3.46,3.34,5.61,2.64,9.34,4.39,18.95,4.8,28.64,.17,3.96,.08,8.1-1.71,11.64s-5.75,6.27-9.63,5.45c-2.03-.43-3.77-1.75-5.2-3.26-5.91-6.24-7.2-15.59-6.49-24.15,.71-8.56,3.11-16.95,3.38-25.53,.34,.41,.67,.82,1.01,1.23"/><path class="cls-10" d="M194.29,64.07c-3.32,1.19-7.35-1-10.4,.78-1.93,1.13-2.74,3.46-3.34,5.61-2.64,9.34-4.39,18.95-4.8,28.64-.17,3.96-.08,8.1,1.71,11.64,1.79,3.54,5.75,6.27,9.63,5.45,2.03-.43,3.77-1.75,5.2-3.26,5.91-6.24,7.2-15.59,6.49-24.15-.71-8.56-3.11-16.95-3.38-25.53-.34,.41-.67,.82-1.01,1.23"/><path class="cls-11" d="M12.22,94.13c4.59-4.04,11.59-3.59,17.45-1.84s11.57,4.57,17.68,4.54c7.65-.04,14.58-4.52,22.14-5.66,13.07-1.96,26.03,6.23,39.13,4.48,7.42-.99,14.15-5.11,21.58-6.06,10.35-1.33,20.71,3.64,31.08,2.44,3.75-.43,7.4-1.68,10.63-3.62,.78-.47,1.69-1.01,2.55-.7,1.01,.36,1.3,1.64,1.41,2.71,.5,4.64,.75,9.31,.73,13.98,0,1.88-.08,3.83-.96,5.49-1.15,2.16-3.46,3.42-5.68,4.46-25.41,11.92-54.54,11.63-82.53,13.6-9.62,.68-19.37,1.64-28.82-.25-6.34-1.27-12.36-3.79-18.16-6.63-8.9-4.35-21.48-2.74-27.87-10.32-2.34-2.78-.56-13.14,.07-16.71"/><g><path class="cls-12" d="M78.61,74.98c-.07-.05-.14-.1-.21-.15-1.99-1.4-3.65-3.09-4.97-4.98-.59-.85-1.12-1.74-1.58-2.66-.02-.04-.05-.1-.07-.15-3.1-6.41-2.78-14.25,1.55-20.54,6.41-9.32,19.16-11.68,28.48-5.27,2.55,1.75,4.58,3.98,6.05,6.48,.4,.67,.75,1.36,1.06,2.06,2.69,6.05,2.37,13.25-1.37,19.2,0,.02-.01,.03-.02,.04-.06,.09-.12,.19-.17,.28-.09,.14-.18,.28-.27,.42-6.41,9.32-19.16,11.68-28.48,5.27Z"/><path class="cls-2" d="M79.07,74.78c-.07-.05-.14-.1-.21-.15-1.99-1.4-3.65-3.09-4.97-4.98-.59-.85-1.12-1.74-1.58-2.66-.02-.04-.05-.1-.07-.15-3.1-6.41-2.78-14.25,1.55-20.54,6.41-9.32,19.16-11.68,28.48-5.27,2.55,1.75,4.58,3.98,6.05,6.48,.4,.67,.75,1.36,1.06,2.06,2.69,6.05,2.37,13.25-1.37,19.2,0,.02-.01,.03-.02,.04-.06,.09-.12,.19-.17,.28-.09,.14-.18,.28-.27,.42-6.41,9.32-19.16,11.68-28.48,5.27Z"/><path class="cls-14" d="M93.56,57.22l1.86-2.04,5.54,5.05,2.75-3.02-14.1-12.85-2.75,3.02,5.54,5.05-1.86,2.04c-4.44-3.75-8.45-5.9-9.36-4.9s1.6,4.8,5.75,8.87l-6.45,7.08,3.02,2.75,6.45-7.08c4.44,3.75,8.45,5.9,9.36,4.9s-1.6-4.8-5.75-8.87Zm-2.72,2.98c-.49-.44-1-.89-1.52-1.36s-1.02-.94-1.5-1.39c-4.12-3.91-6.59-6.92-6.14-7.42s4.05,1.28,8.4,4.94l-1.81,1.98,3.02,2.75,1.81-1.98c4.05,3.99,6.15,7.41,5.7,7.9s-3.69-1.68-7.96-5.42Z"/></g><g><path class="cls-12" d="M34.13,55.74c.04-.05,.07-.1,.11-.15,.99-1.4,2.18-2.58,3.51-3.5,.6-.42,1.22-.79,1.87-1.11,.03-.02,.07-.03,.11-.05,4.51-2.19,10.05-1.96,14.48,1.09,6.57,4.52,8.23,13.51,3.72,20.08-1.24,1.8-2.81,3.23-4.57,4.26-.47,.28-.96,.53-1.46,.75-4.26,1.9-9.34,1.67-13.53-.97-.01,0-.02,0-.03-.02-.06-.04-.13-.08-.2-.12-.1-.06-.2-.13-.3-.19-6.57-4.52-8.23-13.51-3.72-20.07Z"/><path class="cls-2" d="M34.27,56.06c.04-.05,.07-.1,.11-.15,.99-1.4,2.18-2.58,3.51-3.5,.6-.42,1.22-.79,1.87-1.11,.03-.02,.07-.03,.11-.05,4.51-2.19,10.05-1.96,14.48,1.09,6.57,4.52,8.23,13.51,3.72,20.08-1.24,1.8-2.81,3.23-4.57,4.26-.47,.28-.96,.53-1.46,.75-4.26,1.9-9.34,1.67-13.53-.97-.01,0-.02,0-.03-.02-.06-.04-.13-.08-.2-.12-.1-.06-.2-.13-.3-.19-6.57-4.52-8.23-13.51-3.72-20.07Z"/><path class="cls-14" d="M46.65,66.28l1.44,1.31-3.56,3.91,2.13,1.94,9.05-9.94-2.13-1.94-3.56,3.91-1.44-1.31c2.64-3.13,4.16-5.96,3.45-6.6s-3.38,1.13-6.25,4.05l-4.99-4.55-1.94,2.13,4.99,4.55c-2.64,3.13-4.16,5.96-3.45,6.6s3.38-1.13,6.25-4.05Zm-2.1-1.91c.31-.35,.62-.7,.96-1.07s.66-.72,.98-1.06c2.75-2.91,4.88-4.65,5.23-4.33s-.91,2.86-3.48,5.92l-1.4-1.27-1.94,2.13,1.4,1.27c-2.81,2.85-5.22,4.34-5.57,4.02s1.19-2.6,3.82-5.61Z"/></g><line class="cls-8" x1="13.75" y1="78.59" x2="175.07" y2="78.59"/><rect class="cls-10" x="10.04" y="71.18" width="7.85" height="37.03"/><rect class="cls-10" x="171.14" y="71.18" width="7.85" height="37.03"/><path class="cls-3" d="M17.94,78.64c-.73-.03-1.37,.37-2.01,.68-1.93,.93-4.31,.82-5.98-.61"/><path class="cls-3" d="M17.94,78.64c-.8,2.63-4,4.93-6.78,4.06-.28-.09-.55-.22-.76-.43-.23-.23-.36-.55-.33-.88"/><path class="cls-3" d="M17.94,78.64c-1.75,3.64-2.26,7.84-1.55,11.8"/><path class="cls-3" d="M171.08,78.64c.73-.03,1.37,.37,2.01,.68,1.93,.93,4.31,.82,5.98-.61"/><path class="cls-3" d="M171.08,78.64c.8,2.63,4,4.93,6.78,4.06,.28-.09,.55-.22,.76-.43,.23-.23,.36-.55,.33-.88"/><path class="cls-3" d="M171.08,78.64c1.75,3.64,2.26,7.84,1.55,11.8"/></g></svg>