<?xml version="1.0" encoding="UTF-8"?><svg id="Layer_1" data-name="Layer 1" xmlns="http://www.w3.org/2000/svg" viewBox="0 0 192 108"><defs><style>.cls-1, .cls-2, .cls-3, .cls-4, .cls-5, .cls-6, .cls-7, .cls-8 {
        stroke-width: .31px;
      }

      .cls-1, .cls-2, .cls-3, .cls-6, .cls-8 {
        stroke: #003d2e;
      }

      .cls-1, .cls-2, .cls-3, .cls-8 {
        stroke-miterlimit: 10;
      }

      .cls-1, .cls-9 {
        fill: #e3e7e3;
      }

      .cls-2 {
        fill: #fff;
      }

      .cls-3, .cls-10 {
        fill: #00ff94;
      }

      .cls-4 {
        stroke: #00ff94;
      }

      .cls-4, .cls-5, .cls-6, .cls-7 {
        stroke-linecap: round;
        stroke-linejoin: round;
      }

      .cls-4, .cls-5, .cls-6, .cls-7, .cls-8 {
        fill: none;
      }

      .cls-5 {
        stroke: #003c2e;
      }

      .cls-7 {
        stroke: #163b2f;
      }</style></defs><line class="cls-5" x1="174.51" y1="13.49" x2="177.1" y2="13.49"/><line class="cls-4" x1="163.65" y1="9.12" x2="182.43" y2="9.12"/><line class="cls-5" x1="180.45" y1="13.48" x2="190.95" y2="13.48"/><rect class="cls-6" x="120.65" y="78.37" width="2.81" height="2.81" transform="translate(92.16 -62.94) rotate(45)"/><path class="cls-9" d="M108.67,86.39h-4.45c1.41,0,2.55-1.04,2.55-2.32s-1.14-2.32-2.55-2.32h-12.79c-1.41,0-2.55,1.04-2.55,2.32h-3.93c-1.41,0-2.55,1.04-2.55,2.32s1.14,2.32,2.55,2.32h8.38c0,1.28,1.14,2.32,2.55,2.32h12.79c1.41,0,2.55-1.04,2.55-2.32s-1.14-2.32-2.55-2.32Z"/><line class="cls-5" x1="100.9" y1="84.74" x2="104.09" y2="84.74"/><line class="cls-4" x1="96.29" y1="76.25" x2="119.39" y2="76.25"/><line class="cls-5" x1="108.21" y1="84.72" x2="121.13" y2="84.72"/><g><line class="cls-6" x1="108.29" y1="7.9" x2="110.61" y2="9.23"/><line class="cls-6" x1="112.92" y1="7.9" x2="111.56" y2="8.68"/><line class="cls-6" x1="110.61" y1="9.23" x2="110.61" y2="11.93"/></g><line class="cls-5" x1="93.45" y1="20.25" x2="99.91" y2="20.25"/><line class="cls-5" x1="88.54" y1="20.25" x2="90.17" y2="20.25"/><line class="cls-4" x1="94.39" y1="15.6" x2="111.12" y2="15.6"/><g><line class="cls-7" x1="79.01" y1="14.33" x2="80.53" y2="15.85"/><line class="cls-7" x1="81.65" y1="16.97" x2="83.17" y2="18.49"/><line class="cls-7" x1="79.01" y1="18.49" x2="80.53" y2="16.97"/><line class="cls-7" x1="81.65" y1="15.85" x2="83.17" y2="14.33"/></g><circle class="cls-5" cx="9.16" cy="14.07" r="1.94"/><rect class="cls-10" x="7.98" y="18.51" width="19.01" height="5.42" rx="1.73" ry="1.73" transform="translate(34.96 42.44) rotate(-180)"/><rect class="cls-10" x="13.61" y="10.9" width="31.12" height="8.88" rx="2.84" ry="2.84" transform="translate(58.35 30.68) rotate(-180)"/><path class="cls-9" d="M35.49,81.79h-4.45c1.41,0,2.55-1.14,2.55-2.55s-1.14-2.55-2.55-2.55h-12.79c-1.41,0-2.55,1.14-2.55,2.55h-3.93c-1.41,0-2.55,1.14-2.55,2.55s1.14,2.55,2.55,2.55h8.38c0,1.41,1.14,2.55,2.55,2.55h12.79c1.41,0,2.55-1.14,2.55-2.55s-1.14-2.55-2.55-2.55Z"/><g><line class="cls-7" x1="21.43" y1="90.76" x2="21.43" y2="92.92"/><line class="cls-7" x1="21.43" y1="94.5" x2="21.43" y2="96.65"/><line class="cls-7" x1="18.48" y1="93.71" x2="20.64" y2="93.71"/><line class="cls-7" x1="22.21" y1="93.71" x2="24.37" y2="93.71"/></g><path class="cls-10" d="M16.7,79.16H.09c.06,3.01,0,5.93-.05,8.88H16.7c2.45,0,4.44-1.99,4.44-4.44s-1.99-4.44-4.44-4.44Z"/><path class="cls-2" d="M-2.38,37.4c6.38-.13,68.32-.44,74.55-.64,16.61-.52,33.22-.96,49.82-1.75,2.94-.14,5.9-1.59,8.71-2.76,4.17-1.74,8.05-4.29,12.34-5.56,6.5-1.92,12.44-4.42,17.12-9.53,.77-.85,2.6-1.56,3.53-1.22,1.02,.38,2.04,1.91,2.15,3.12,.35,3.84-2.09,7.62-4.17,10.78-1.48,2.26-4.24,3.68-6.86,5.58-.38,.28-.36,.86,.04,1.13,3.56,2.43,7.54,1.41,11.38,1.04,9.2-.88,18.4-1.83,27.6-2.73,.87-.08,1.86-.04,2.58,.05,2.38,.31,4.99,.5,4.77,3.87-.44,2.02-2.41,3.6-3.97,4-7.94,2.01-15.99,3.54-24.01,5.24-.8,.17-2.75,1.04-2.45,1.01,5.61,.93,11.26,1.66,16.81,2.85,5.12,1.1,10.25,2.35,15.11,4.23,1.74,.67,4.48,2.85,4,5.15,.05,2.15-3.65,2.99-5.4,2.91-5.91-.28-11.78-1.29-17.66-2.02-1.34-.17-16.09-2.26-17.71-1.72-.27,.09-.3,.45-.05,.57,4.3,2.07,22,6.08,26.3,8.14,1.57,.76,3.51,1.15,4.65,2.32,1.26,1.3,3.25,1.83,2.65,4.99-.36,1.8-3.67,2.55-5.18,2.23-5.79-1.22-11.41-3.2-17.14-4.69-3.97-1.05-8.3-3.12-14.16-3.14-.59,0,1.29,2.01,1.75,2.37,3.02,2.36,6.03,4.74,9.06,7.09,2.76,2.13,7.17,4,8.22,7.64,.37,1.3,.2,2.77-.6,3.89-.27,.38-.62,.72-1.05,.91-.73,.31-1.58,.12-2.3-.22-10-4.65-18.88-10.94-29.92-13.11-6.83-1.34-13.45-5.01-19.52-8.68-6.18-3.74-11.65-1.41-18.48-1.68-13.78-.55-42.2,.37-54.07,1.57-12.74,1.29-25.51,2.33-38.3,3.04-6.66,.37-13.32,.65-19.98,.83-5.75,.16-12.36-.73-17.95,.69L-2.38,37.4Z"/><rect class="cls-9" x="40.41" y="40.71" width="62.88" height="24.28" rx="4.09" ry="4.09"/><path class="cls-3" d="M62.83,44.95c-.51,0-.93,.32-1.09,.78h-10.23c-.16-.45-.59-.78-1.09-.78-.64,0-1.16,.52-1.16,1.16s.52,1.16,1.16,1.16c.03,0,.06,0,.09,0l2.22,4.98c-.22,.21-.37,.51-.37,.84,0,.64,.52,1.16,1.16,1.16,.03,0,.06,0,.09,0l2.22,4.99c-.22,.21-.37,.51-.37,.84,0,.64,.52,1.16,1.16,1.16s1.16-.52,1.16-1.16c0-.33-.14-.63-.37-.84l2.22-4.99s.06,0,.09,0c.64,0,1.16-.52,1.16-1.16,0-.33-.14-.63-.36-.84l2.22-4.99s.06,0,.09,0c.64,0,1.16-.52,1.16-1.16s-.52-1.16-1.16-1.16Zm-1.22,1.59l-4.99,3.74-4.99-3.74h9.97Zm-10.23,.77l4.6,3.45-1.81,1.36c-.18-.12-.41-.2-.64-.2-.03,0-.06,0-.09,0l-2.05-4.62Zm5.34,11.61s-.06,0-.09,0-.06,0-.09,0l-2.22-4.99c.22-.21,.36-.51,.36-.84,0-.12-.02-.23-.06-.34l2-1.5,2,1.5c-.03,.11-.06,.22-.06,.34,0,.33,.14,.63,.37,.84l-2.22,4.99Zm3.01-6.99c-.24,0-.46,.07-.64,.2l-1.81-1.36,4.6-3.45-2.05,4.62s-.06,0-.09,0Z"/><path class="cls-6" d="M96.54,46.41c-.97,0-.97-.74-1.94-.73s-.96,.75-1.92,.76-.97-.74-1.94-.73-.96,.75-1.93,.76-.97-.74-1.94-.73-.96,.75-1.94,.76-.97-.74-1.94-.73-.96,.75-1.93,.76-.98-.74-1.95-.73-.96,.75-1.93,.76-.98-.74-1.95-.73-.97,.75-1.94,.76-.98-.74-1.95-.73"/><path class="cls-6" d="M96.54,50.12c-.97,0-.97-.74-1.94-.73s-.96,.75-1.92,.76-.97-.74-1.94-.73-.96,.75-1.93,.76-.97-.74-1.94-.73-.96,.75-1.94,.76-.97-.74-1.94-.73-.96,.75-1.93,.76-.98-.74-1.95-.73-.96,.75-1.93,.76-.98-.74-1.95-.73-.97,.75-1.94,.76-.98-.74-1.95-.73"/><path class="cls-6" d="M96.54,53.83c-.97,0-.97-.74-1.94-.73s-.96,.75-1.92,.76-.97-.74-1.94-.73-.96,.75-1.93,.76-.97-.74-1.94-.73-.96,.75-1.94,.76-.97-.74-1.94-.73-.96,.75-1.93,.76-.98-.74-1.95-.73-.96,.75-1.93,.76-.98-.74-1.95-.73-.97,.75-1.94,.76-.98-.74-1.95-.73"/><path class="cls-6" d="M96.54,57.54c-.97,0-.97-.74-1.94-.73s-.96,.75-1.92,.76-.97-.74-1.94-.73-.96,.75-1.93,.76-.97-.74-1.94-.73-.96,.75-1.94,.76-.97-.74-1.94-.73-.96,.75-1.93,.76-.98-.74-1.95-.73-.96,.75-1.93,.76-.98-.74-1.95-.73-.97,.75-1.94,.76-.98-.74-1.95-.73"/><path class="cls-6" d="M96.54,61.25c-.97,0-.97-.74-1.94-.73s-.96,.75-1.92,.76-.97-.74-1.94-.73-.96,.75-1.93,.76-.97-.74-1.94-.73-.96,.75-1.94,.76-.97-.74-1.94-.73-.96,.75-1.93,.76-.98-.74-1.95-.73-.96,.75-1.93,.76-.98-.74-1.95-.73-.97,.75-1.94,.76-.98-.74-1.95-.73"/><polygon class="cls-1" points="116.76 68.76 123.57 68.76 123.57 34.82 116.76 35.26 116.76 68.76"/><polyline class="cls-8" points="104.74 44.12 116.76 52.13 105.49 61.24"/></svg>