<svg width="1920" height="1081" viewBox="0 0 1920 1081" fill="none" xmlns="http://www.w3.org/2000/svg"><path d="M1181.75 737.796C1181.75 762.658 1127.29 782.787 1060.05 782.787C992.806 782.787 938.35 762.658 938.35 737.796V699.715H1181.75V737.796Z" fill="#03FC9E" stroke="#003D2E" stroke-width="1.63207" stroke-linecap="round" stroke-linejoin="round"/><path d="M1097.48 780.611C1111.29 778.979 1124.08 776.422 1135.23 773.158V712.934H1097.48V780.611Z" fill="#A9FEDE"/><path d="M1139.86 771.743C1145.84 769.839 1151.28 767.718 1156.12 765.378V706.134H1139.86V771.689V771.743Z" fill="#A9FEDE"/><path d="M1060.1 745.304C1127.31 745.304 1181.8 725.161 1181.8 700.313C1181.8 675.465 1127.31 655.322 1060.1 655.322C992.889 655.322 938.402 675.465 938.402 700.313C938.402 725.161 992.889 745.304 1060.1 745.304Z" fill="#E6E8EA" stroke="#003D2E" stroke-width="1.63207" stroke-linecap="round" stroke-linejoin="round"/><path d="M1060.1 729.962C1117.82 729.962 1164.61 714.934 1164.61 696.396C1164.61 677.858 1117.82 662.83 1060.1 662.83C1002.38 662.83 955.595 677.858 955.595 696.396C955.595 714.934 1002.38 729.962 1060.1 729.962Z" fill="#A9FEDE"/><path d="M1084.53 693.567C1079.69 692.479 1073.54 691.609 1066.09 690.847L1061.46 690.357C1058.63 690.031 1056.4 689.759 1054.72 689.487C1053.03 689.215 1051.83 688.889 1051.02 688.562C1050.2 688.236 1049.82 687.855 1049.82 687.42C1049.82 686.821 1050.42 686.332 1051.56 685.842C1052.7 685.407 1054.34 685.026 1056.4 684.754C1058.47 684.482 1060.76 684.373 1063.26 684.373C1066.9 684.373 1070.49 684.645 1073.98 685.135C1077.46 685.679 1080.94 686.44 1084.53 687.528L1098.95 680.565C1093.72 678.987 1088.07 677.79 1081.97 676.974C1077.89 676.43 1073.76 676.05 1069.57 675.886V671.317H1052.49V676.158C1049.33 676.43 1046.39 676.811 1043.57 677.301C1037.69 678.334 1033.12 679.749 1029.75 681.544C1026.37 683.339 1024.69 685.352 1024.69 687.528C1024.69 690.303 1027.3 692.642 1032.52 694.546C1037.74 696.45 1045.31 697.865 1055.26 698.79L1059.94 699.225C1063.59 699.551 1066.47 699.878 1068.48 700.204C1070.49 700.531 1071.96 700.911 1072.78 701.292C1073.6 701.673 1074.03 702.163 1074.03 702.761C1074.03 703.414 1073.49 704.012 1072.4 704.502C1071.31 704.992 1069.73 705.372 1067.72 705.645C1065.71 705.917 1063.26 706.025 1060.38 706.025C1056.08 706.025 1051.83 705.699 1047.7 705.1C1043.57 704.502 1039.65 703.632 1036 702.435L1021.15 709.344C1026.65 711.03 1032.85 712.39 1039.76 713.315C1044 713.914 1048.3 714.294 1052.49 714.512V719.136H1069.57V714.458C1073.43 714.186 1077.02 713.805 1080.34 713.206C1086.16 712.173 1090.73 710.704 1094.05 708.854C1097.37 707.005 1099 704.937 1099 702.598C1099 700.639 1097.8 698.953 1095.41 697.484C1093.02 696.015 1089.37 694.764 1084.53 693.676V693.567Z" fill="#E6E8EA" stroke="#003D2E" stroke-width="1.63207" stroke-linecap="round" stroke-linejoin="round"/><path d="M1084.53 693.567C1079.69 692.479 1073.54 691.609 1066.09 690.847L1061.46 690.357C1058.63 690.031 1056.4 689.759 1054.72 689.487C1053.03 689.215 1051.83 688.889 1051.02 688.562C1050.2 688.236 1049.82 687.855 1049.82 687.42C1049.82 686.821 1050.42 686.332 1051.56 685.842C1052.7 685.407 1054.34 685.026 1056.4 684.754C1058.47 684.482 1060.76 684.373 1063.26 684.373C1066.9 684.373 1070.49 684.645 1073.98 685.135C1077.46 685.679 1080.94 686.44 1084.53 687.528L1098.95 680.565C1093.72 678.987 1088.07 677.79 1081.97 676.974C1077.89 676.43 1073.76 676.05 1069.57 675.886V671.317H1052.49V676.158C1049.33 676.43 1046.39 676.811 1043.57 677.301C1037.69 678.334 1033.12 679.749 1029.75 681.544C1026.37 683.339 1024.69 685.352 1024.69 687.528C1024.69 690.303 1027.3 692.642 1032.52 694.546C1037.74 696.45 1045.31 697.865 1055.26 698.79L1059.94 699.225C1063.59 699.551 1066.47 699.878 1068.48 700.204C1070.49 700.531 1071.96 700.911 1072.78 701.292C1073.6 701.673 1074.03 702.163 1074.03 702.761C1074.03 703.414 1073.49 704.012 1072.4 704.502C1071.31 704.992 1069.73 705.372 1067.72 705.645C1065.71 705.917 1063.26 706.025 1060.38 706.025C1056.08 706.025 1051.83 705.699 1047.7 705.1C1043.57 704.502 1039.65 703.632 1036 702.435L1021.15 709.344C1026.65 711.03 1032.85 712.39 1039.76 713.315C1044 713.914 1048.3 714.294 1052.49 714.512V719.136H1069.57V714.458C1073.43 714.186 1077.02 713.805 1080.34 713.206C1086.16 712.173 1090.73 710.704 1094.05 708.854C1097.37 707.005 1099 704.937 1099 702.598C1099 700.639 1097.8 698.953 1095.41 697.484C1093.02 696.015 1089.37 694.764 1084.53 693.676V693.567Z" fill="#E6E8EA" stroke="#003D2E" stroke-width="1.63207" stroke-linecap="round" stroke-linejoin="round"/><g style="mix-blend-mode:multiply"><path d="M1045.68 739.646C1112.87 739.646 1167.38 717.722 1167.38 690.684C1167.38 685.407 1165.32 680.347 1161.51 675.614C1158.41 673.873 1154.98 672.241 1151.28 670.664C1151.17 670.664 1151.06 670.555 1150.95 670.555C1144.04 667.672 1136.16 665.169 1127.51 662.993C1126.69 662.775 1125.82 662.612 1125 662.395C1122.99 661.905 1120.92 661.47 1118.86 661.034C1117.93 660.817 1116.95 660.654 1115.97 660.49C1115.21 660.327 1114.45 660.218 1113.69 660.055C1113.14 659.946 1112.54 659.838 1112 659.729C1109.06 659.239 1106.02 658.75 1102.97 658.314C1101.34 658.097 1099.71 657.879 1098.07 657.662C1096.93 657.498 1095.73 657.389 1094.54 657.281C1092.85 657.117 1091.16 656.9 1089.42 656.791C1088.23 656.682 1087.03 656.573 1085.78 656.465C1084.96 656.41 1084.15 656.356 1083.33 656.301C1083.17 656.301 1083.06 656.301 1082.9 656.301C1081.05 656.193 1079.2 656.084 1077.35 655.975C1076.69 655.975 1076.04 655.921 1075.39 655.866C1070.38 655.649 1065.27 655.54 1060.1 655.54C993.458 655.54 939.327 675.342 938.402 699.932V700.531V713.805C958.912 729.201 999.279 739.646 1045.68 739.646Z" fill="#003D2E"/></g><path d="M1169.18 690.466C1169.18 715.328 1114.72 735.457 1047.48 735.457C980.294 735.457 925.782 715.328 925.782 690.466V652.385H1169.18V690.466Z" fill="#03FC9E"/><path d="M1084.91 733.281C1098.73 731.649 1111.51 729.092 1122.66 725.828V665.604H1084.91V733.281Z" fill="#A9FEDE"/><path d="M1127.29 724.468C1133.27 722.564 1138.71 720.442 1143.56 718.103V658.858H1127.29V724.413V724.468Z" fill="#A9FEDE"/><path d="M1169.18 690.466C1169.18 715.328 1114.72 735.457 1047.48 735.457C980.294 735.457 925.782 715.328 925.782 690.466V652.385H1169.18V690.466Z" stroke="#003D2E" stroke-width="1.63207" stroke-linecap="round" stroke-linejoin="round"/><path d="M1047.48 697.974C1114.69 697.974 1169.18 677.831 1169.18 652.983C1169.18 628.135 1114.69 607.992 1047.48 607.992C980.268 607.992 925.782 628.135 925.782 652.983C925.782 677.831 980.268 697.974 1047.48 697.974Z" fill="#E6E8EA" stroke="#003D2E" stroke-width="1.63207" stroke-linecap="round" stroke-linejoin="round"/><path d="M1047.48 682.687C1105.2 682.687 1151.99 667.658 1151.99 649.12C1151.99 630.582 1105.2 615.554 1047.48 615.554C989.764 615.554 942.975 630.582 942.975 649.12C942.975 667.658 989.764 682.687 1047.48 682.687Z" fill="#A9FEDE"/><path d="M1071.91 646.237C1067.07 645.149 1060.92 644.279 1053.46 643.517L1048.84 643.027C1046.01 642.701 1043.78 642.429 1042.09 642.157C1040.41 641.885 1039.21 641.558 1038.4 641.232C1037.58 640.906 1037.2 640.525 1037.2 640.09C1037.2 639.491 1037.8 639.002 1038.94 638.512C1040.08 638.077 1041.71 637.696 1043.78 637.424C1045.85 637.152 1048.13 637.043 1050.64 637.043C1054.28 637.043 1057.87 637.315 1061.35 637.805C1064.83 638.349 1068.32 639.11 1071.91 640.198L1086.32 633.235C1081.1 631.657 1075.44 630.46 1069.35 629.644C1065.27 629.1 1061.14 628.719 1056.95 628.556V623.986H1039.86V628.828C1036.71 629.1 1033.77 629.481 1030.94 629.971C1025.07 631.004 1020.5 632.419 1017.12 634.214C1013.75 636.009 1012.06 638.022 1012.06 640.198C1012.06 642.973 1014.68 645.312 1019.9 647.216C1025.12 649.12 1032.68 650.535 1042.64 651.46L1047.32 651.895C1050.96 652.221 1053.85 652.548 1055.86 652.874C1057.87 653.201 1059.34 653.581 1060.16 653.962C1060.97 654.343 1061.41 654.833 1061.41 655.431C1061.41 656.084 1060.86 656.682 1059.78 657.172C1058.69 657.662 1057.11 658.042 1055.1 658.314C1053.08 658.586 1050.64 658.695 1047.75 658.695C1043.45 658.695 1039.21 658.369 1035.08 657.77C1030.94 657.172 1027.03 656.302 1023.38 655.105L1008.53 662.014C1014.02 663.7 1020.22 665.06 1027.13 665.985C1031.38 666.584 1035.68 666.964 1039.86 667.182V671.806H1056.95V667.128C1060.81 666.856 1064.4 666.475 1067.72 665.876C1073.54 664.843 1078.11 663.374 1081.43 661.524C1084.75 659.674 1086.38 657.607 1086.38 655.268C1086.38 653.309 1085.18 651.623 1082.79 650.154C1080.39 648.685 1076.75 647.434 1071.91 646.346V646.237Z" fill="#E6E8EA" stroke="#003D2E" stroke-width="1.63207" stroke-linecap="round" stroke-linejoin="round"/><path d="M1071.91 646.237C1067.07 645.149 1060.92 644.279 1053.46 643.517L1048.84 643.027C1046.01 642.701 1043.78 642.429 1042.09 642.157C1040.41 641.885 1039.21 641.558 1038.4 641.232C1037.58 640.906 1037.2 640.525 1037.2 640.09C1037.2 639.491 1037.8 639.002 1038.94 638.512C1040.08 638.077 1041.71 637.696 1043.78 637.424C1045.85 637.152 1048.13 637.043 1050.64 637.043C1054.28 637.043 1057.87 637.315 1061.35 637.805C1064.83 638.349 1068.32 639.11 1071.91 640.198L1086.32 633.235C1081.1 631.657 1075.44 630.46 1069.35 629.644C1065.27 629.1 1061.14 628.719 1056.95 628.556V623.986H1039.86V628.828C1036.71 629.1 1033.77 629.481 1030.94 629.971C1025.07 631.004 1020.5 632.419 1017.12 634.214C1013.75 636.009 1012.06 638.022 1012.06 640.198C1012.06 642.973 1014.68 645.312 1019.9 647.216C1025.12 649.12 1032.68 650.535 1042.64 651.46L1047.32 651.895C1050.96 652.221 1053.85 652.548 1055.86 652.874C1057.87 653.201 1059.34 653.581 1060.16 653.962C1060.97 654.343 1061.41 654.833 1061.41 655.431C1061.41 656.084 1060.86 656.682 1059.78 657.172C1058.69 657.662 1057.11 658.042 1055.1 658.314C1053.08 658.586 1050.64 658.695 1047.75 658.695C1043.45 658.695 1039.21 658.369 1035.08 657.77C1030.94 657.172 1027.03 656.302 1023.38 655.105L1008.53 662.014C1014.02 663.7 1020.22 665.06 1027.13 665.985C1031.38 666.584 1035.68 666.964 1039.86 667.182V671.806H1056.95V667.128C1060.81 666.856 1064.4 666.475 1067.72 665.876C1073.54 664.843 1078.11 663.374 1081.43 661.524C1084.75 659.674 1086.38 657.607 1086.38 655.268C1086.38 653.309 1085.18 651.623 1082.79 650.154C1080.39 648.685 1076.75 647.434 1071.91 646.346V646.237Z" fill="#E6E8EA" stroke="#003D2E" stroke-width="1.63207" stroke-linecap="round" stroke-linejoin="round"/><g style="mix-blend-mode:multiply"><path d="M1156.12 632.636C1156.12 632.636 1155.9 632.473 1155.74 632.364C1154.76 631.657 1153.78 631.004 1152.75 630.351C1152.53 630.188 1152.26 630.025 1152.04 629.916C1149.97 628.611 1147.69 627.359 1145.3 626.162C1144.59 625.782 1143.83 625.455 1143.12 625.129C1142.14 624.639 1141.11 624.204 1140.07 623.769C1139.69 623.606 1139.37 623.442 1138.99 623.279C1137.46 622.626 1135.83 621.973 1134.2 621.375C1133.76 621.212 1133.33 621.049 1132.89 620.885C1131.97 620.559 1130.99 620.233 1130.01 619.852C1129.52 619.689 1129.03 619.525 1128.59 619.362C1128.38 619.308 1128.1 619.199 1127.89 619.145C1127.45 618.981 1127.02 618.873 1126.58 618.709C1126.25 618.601 1125.87 618.492 1125.49 618.383C1124.68 618.111 1123.81 617.893 1122.94 617.621C1122.66 617.567 1122.39 617.458 1122.12 617.404C1120.81 617.023 1119.56 616.696 1118.2 616.316C1112.06 614.684 1105.42 613.269 1098.46 612.072C1097.75 611.963 1097.1 611.855 1096.39 611.746C1093.02 611.202 1089.64 610.712 1086.11 610.277C1084.91 610.114 1083.71 610.005 1082.52 609.842C1071.42 608.59 1059.61 607.938 1047.43 607.938C1025.39 607.938 1004.67 610.114 986.876 613.922C985.625 614.194 984.319 614.466 983.122 614.738C965.224 618.873 950.481 624.639 940.416 631.548C938.131 635.302 936.88 639.273 936.88 643.299C936.88 670.337 991.337 692.261 1058.58 692.261C1107.65 692.261 1149.92 680.565 1169.18 663.755V652.983V652.384C1168.91 645.312 1164.23 638.621 1156.12 632.691V632.636Z" fill="#003D2E"/></g><path d="M1181.75 642.483C1181.75 667.345 1127.29 687.474 1060.05 687.474C992.861 687.474 938.35 667.345 938.35 642.483V604.401H1181.75V642.483Z" fill="#03FC9E"/><path d="M1097.48 685.352C1111.29 683.72 1124.08 681.163 1135.23 677.899V617.676H1097.48V685.352Z" fill="#A9FEDE"/><path d="M1139.86 676.485C1145.84 674.581 1151.28 672.459 1156.12 670.12V610.875H1139.86V676.43V676.485Z" fill="#A9FEDE"/><path d="M1060.1 650.045C1127.31 650.045 1181.8 629.902 1181.8 605.054C1181.8 580.207 1127.31 560.063 1060.1 560.063C992.889 560.063 938.402 580.207 938.402 605.054C938.402 629.902 992.889 650.045 1060.1 650.045Z" fill="#E6E8EA" stroke="#003D2E" stroke-width="1.63207" stroke-linecap="round" stroke-linejoin="round"/><path d="M1060.1 634.704C1117.82 634.704 1164.61 619.676 1164.61 601.137C1164.61 582.599 1117.82 567.571 1060.1 567.571C1002.38 567.571 955.595 582.599 955.595 601.137C955.595 619.676 1002.38 634.704 1060.1 634.704Z" fill="#A9FEDE"/><path d="M1181.75 642.483C1181.75 667.345 1127.29 687.474 1060.05 687.474C992.861 687.474 938.35 667.345 938.35 642.483V604.401H1181.75V642.483Z" stroke="#003D2E" stroke-width="1.63207" stroke-linecap="round" stroke-linejoin="round"/><path d="M1084.53 598.254C1079.69 597.166 1073.54 596.296 1066.09 595.534L1061.46 595.044C1058.63 594.718 1056.4 594.446 1054.72 594.174C1053.03 593.902 1051.83 593.575 1051.02 593.249C1050.2 592.923 1049.82 592.542 1049.82 592.107C1049.82 591.508 1050.42 591.019 1051.56 590.529C1052.7 590.094 1054.34 589.713 1056.4 589.441C1058.47 589.169 1060.76 589.06 1063.26 589.06C1066.9 589.06 1070.49 589.332 1073.98 589.822C1077.46 590.366 1080.94 591.127 1084.53 592.215L1098.95 585.252C1093.72 583.674 1088.07 582.477 1081.97 581.661C1077.89 581.117 1073.76 580.736 1069.57 580.573V576.003H1052.49V580.845C1049.33 581.117 1046.39 581.498 1043.57 581.988C1037.69 583.021 1033.12 584.436 1029.75 586.231C1026.37 588.026 1024.69 590.039 1024.69 592.215C1024.69 594.99 1027.3 597.329 1032.52 599.233C1037.74 601.137 1045.31 602.552 1055.26 603.477L1059.94 603.912C1063.59 604.238 1066.47 604.565 1068.48 604.891C1070.49 605.218 1071.96 605.598 1072.78 605.979C1073.6 606.36 1074.03 606.85 1074.03 607.448C1074.03 608.101 1073.49 608.699 1072.4 609.189C1071.31 609.679 1069.73 610.059 1067.72 610.331C1065.71 610.603 1063.26 610.712 1060.38 610.712C1056.08 610.712 1051.83 610.386 1047.7 609.787C1043.57 609.189 1039.65 608.319 1036 607.122L1021.15 614.031C1026.65 615.717 1032.85 617.077 1039.76 618.002C1044 618.601 1048.3 618.981 1052.49 619.199V623.823H1069.57V619.145C1073.43 618.873 1077.02 618.492 1080.34 617.893C1086.16 616.86 1090.73 615.391 1094.05 613.541C1097.37 611.691 1099 609.624 1099 607.285C1099 605.326 1097.8 603.64 1095.41 602.171C1093.02 600.702 1089.37 599.451 1084.53 598.363V598.254Z" fill="#E6E8EA" stroke="#003D2E" stroke-width="1.63207" stroke-linecap="round" stroke-linejoin="round"/><path d="M1084.53 598.254C1079.69 597.166 1073.54 596.296 1066.09 595.534L1061.46 595.044C1058.63 594.718 1056.4 594.446 1054.72 594.174C1053.03 593.902 1051.83 593.575 1051.02 593.249C1050.2 592.923 1049.82 592.542 1049.82 592.107C1049.82 591.508 1050.42 591.019 1051.56 590.529C1052.7 590.094 1054.34 589.713 1056.4 589.441C1058.47 589.169 1060.76 589.06 1063.26 589.06C1066.9 589.06 1070.49 589.332 1073.98 589.822C1077.46 590.366 1080.94 591.127 1084.53 592.215L1098.95 585.252C1093.72 583.674 1088.07 582.477 1081.97 581.661C1077.89 581.117 1073.76 580.736 1069.57 580.573V576.003H1052.49V580.845C1049.33 581.117 1046.39 581.498 1043.57 581.988C1037.69 583.021 1033.12 584.436 1029.75 586.231C1026.37 588.026 1024.69 590.039 1024.69 592.215C1024.69 594.99 1027.3 597.329 1032.52 599.233C1037.74 601.137 1045.31 602.552 1055.26 603.477L1059.94 603.912C1063.59 604.238 1066.47 604.565 1068.48 604.891C1070.49 605.218 1071.96 605.598 1072.78 605.979C1073.6 606.36 1074.03 606.85 1074.03 607.448C1074.03 608.101 1073.49 608.699 1072.4 609.189C1071.31 609.679 1069.73 610.059 1067.72 610.331C1065.71 610.603 1063.26 610.712 1060.38 610.712C1056.08 610.712 1051.83 610.386 1047.7 609.787C1043.57 609.189 1039.65 608.319 1036 607.122L1021.15 614.031C1026.65 615.717 1032.85 617.077 1039.76 618.002C1044 618.601 1048.3 618.981 1052.49 619.199V623.823H1069.57V619.145C1073.43 618.873 1077.02 618.492 1080.34 617.893C1086.16 616.86 1090.73 615.391 1094.05 613.541C1097.37 611.691 1099 609.624 1099 607.285C1099 605.326 1097.8 603.64 1095.41 602.171C1093.02 600.702 1089.37 599.451 1084.53 598.363V598.254Z" fill="#E6E8EA" stroke="#003D2E" stroke-width="1.63207" stroke-linecap="round" stroke-linejoin="round"/><g style="mix-blend-mode:multiply"><path d="M1045.68 644.17C1112.87 644.17 1167.38 622.246 1167.38 595.207C1167.38 589.93 1165.32 584.871 1161.51 580.138C1158.41 578.397 1154.98 576.765 1151.28 575.187C1151.17 575.187 1151.06 575.079 1150.95 575.079C1144.04 572.195 1136.16 569.693 1127.51 567.517C1126.69 567.299 1125.82 567.136 1125 566.918C1122.99 566.429 1120.92 565.993 1118.86 565.558C1117.93 565.341 1116.95 565.177 1115.97 565.014C1115.21 564.851 1114.45 564.742 1113.69 564.579C1113.14 564.47 1112.54 564.361 1112 564.252C1109.06 563.763 1106.02 563.273 1102.97 562.838C1101.34 562.62 1099.71 562.403 1098.07 562.185C1096.93 562.022 1095.73 561.913 1094.54 561.804C1092.85 561.641 1091.16 561.424 1089.42 561.315C1088.23 561.206 1087.03 561.097 1085.78 560.988C1084.96 560.934 1084.15 560.88 1083.33 560.825C1083.17 560.825 1083.06 560.825 1082.9 560.825C1081.05 560.716 1079.2 560.608 1077.35 560.499C1076.69 560.499 1076.04 560.444 1075.39 560.39C1070.38 560.172 1065.27 560.063 1060.1 560.063C993.458 560.063 939.327 579.866 938.402 604.456V605.054V618.329C958.912 633.724 999.279 644.17 1045.68 644.17Z" fill="#003D2E"/></g><path d="M1167.38 594.663C1167.38 619.525 1112.93 639.654 1045.68 639.654C978.443 639.654 923.986 619.525 923.986 594.663V556.582H1167.38V594.663Z" fill="#03FC9E" stroke="#003D2E" stroke-width="1.63207" stroke-linecap="round" stroke-linejoin="round"/><path d="M1083.11 637.533C1096.93 635.9 1109.72 633.344 1120.87 630.079V569.856H1083.11V637.533Z" fill="#A9FEDE"/><path d="M1125.44 628.665C1131.42 626.761 1136.86 624.639 1141.7 622.3V563.056H1125.44V628.611V628.665Z" fill="#A9FEDE"/><path d="M1045.68 602.171C1112.9 602.171 1167.38 582.028 1167.38 557.18C1167.38 532.332 1112.9 512.189 1045.68 512.189C978.473 512.189 923.986 532.332 923.986 557.18C923.986 582.028 978.473 602.171 1045.68 602.171Z" fill="#E6E8EA" stroke="#003D2E" stroke-width="1.63207" stroke-linecap="round" stroke-linejoin="round"/><path d="M1045.68 586.884C1103.4 586.884 1150.19 571.856 1150.19 553.317C1150.19 534.779 1103.4 519.751 1045.68 519.751C987.967 519.751 941.178 534.779 941.178 553.317C941.178 571.856 987.967 586.884 1045.68 586.884Z" fill="#A9FEDE"/><path d="M1070.11 550.434C1065.27 549.346 1059.12 548.476 1051.67 547.714L1047.04 547.224C1044.22 546.898 1041.99 546.626 1040.3 546.354C1038.61 546.082 1037.42 545.756 1036.6 545.429C1035.78 545.103 1035.4 544.722 1035.4 544.287C1035.4 543.688 1036 543.199 1037.14 542.709C1038.29 542.274 1039.92 541.893 1041.99 541.621C1044.05 541.349 1046.34 541.24 1048.84 541.24C1052.48 541.24 1056.08 541.512 1059.56 542.002C1063.04 542.546 1066.52 543.307 1070.11 544.396L1084.53 537.432C1079.31 535.854 1073.65 534.657 1067.55 533.841C1063.47 533.297 1059.34 532.917 1055.15 532.753V528.184H1038.07V533.025C1034.91 533.297 1031.98 533.678 1029.15 534.168C1023.27 535.202 1018.7 536.616 1015.33 538.411C1011.96 540.207 1010.27 542.219 1010.27 544.396C1010.27 547.17 1012.88 549.509 1018.1 551.413C1023.33 553.318 1030.89 554.732 1040.84 555.657L1045.52 556.092C1049.17 556.418 1052.05 556.745 1054.06 557.071C1056.08 557.398 1057.54 557.779 1058.36 558.159C1059.18 558.54 1059.61 559.03 1059.61 559.628C1059.61 560.281 1059.07 560.879 1057.98 561.369C1056.89 561.859 1055.31 562.24 1053.3 562.512C1051.29 562.784 1048.84 562.892 1045.96 562.892C1041.66 562.892 1037.42 562.566 1033.28 561.968C1029.15 561.369 1025.23 560.499 1021.58 559.302L1006.73 566.211C1012.23 567.897 1018.43 569.257 1025.34 570.182C1029.58 570.781 1033.88 571.162 1038.07 571.379V576.003H1055.15V571.325C1059.01 571.053 1062.6 570.672 1065.92 570.074C1071.74 569.04 1076.31 567.571 1079.63 565.721C1082.95 563.872 1084.58 561.804 1084.58 559.465C1084.58 557.507 1083.39 555.82 1080.99 554.351C1078.6 552.882 1074.95 551.631 1070.11 550.543V550.434Z" fill="#E6E8EA" stroke="#003D2E" stroke-width="1.63207" stroke-linecap="round" stroke-linejoin="round"/><path d="M1070.11 550.434C1065.27 549.346 1059.12 548.476 1051.67 547.714L1047.04 547.224C1044.22 546.898 1041.99 546.626 1040.3 546.354C1038.61 546.082 1037.42 545.756 1036.6 545.429C1035.78 545.103 1035.4 544.722 1035.4 544.287C1035.4 543.688 1036 543.199 1037.14 542.709C1038.29 542.274 1039.92 541.893 1041.99 541.621C1044.05 541.349 1046.34 541.24 1048.84 541.24C1052.48 541.24 1056.08 541.512 1059.56 542.002C1063.04 542.546 1066.52 543.307 1070.11 544.396L1084.53 537.432C1079.31 535.854 1073.65 534.657 1067.55 533.841C1063.47 533.297 1059.34 532.917 1055.15 532.753V528.184H1038.07V533.025C1034.91 533.297 1031.98 533.678 1029.15 534.168C1023.27 535.202 1018.7 536.616 1015.33 538.411C1011.96 540.207 1010.27 542.219 1010.27 544.396C1010.27 547.17 1012.88 549.509 1018.1 551.413C1023.33 553.318 1030.89 554.732 1040.84 555.657L1045.52 556.092C1049.17 556.418 1052.05 556.745 1054.06 557.071C1056.08 557.398 1057.54 557.779 1058.36 558.159C1059.18 558.54 1059.61 559.03 1059.61 559.628C1059.61 560.281 1059.07 560.879 1057.98 561.369C1056.89 561.859 1055.31 562.24 1053.3 562.512C1051.29 562.784 1048.84 562.892 1045.96 562.892C1041.66 562.892 1037.42 562.566 1033.28 561.968C1029.15 561.369 1025.23 560.499 1021.58 559.302L1006.73 566.211C1012.23 567.897 1018.43 569.257 1025.34 570.182C1029.58 570.781 1033.88 571.162 1038.07 571.379V576.003H1055.15V571.325C1059.01 571.053 1062.6 570.672 1065.92 570.074C1071.74 569.04 1076.31 567.571 1079.63 565.721C1082.95 563.872 1084.58 561.804 1084.58 559.465C1084.58 557.507 1083.39 555.82 1080.99 554.351C1078.6 552.882 1074.95 551.631 1070.11 550.543V550.434Z" fill="#E6E8EA" stroke="#003D2E" stroke-width="1.63207" stroke-linecap="round" stroke-linejoin="round"/><g style="mix-blend-mode:multiply"><path d="M1154.33 536.888C1154.33 536.888 1154.11 536.725 1153.95 536.616C1152.97 535.909 1151.99 535.256 1150.95 534.603C1150.74 534.44 1150.46 534.277 1150.25 534.168C1148.18 532.862 1145.89 531.611 1143.5 530.414C1142.79 530.033 1142.03 529.707 1141.32 529.38C1140.34 528.891 1139.31 528.456 1138.28 528.02C1137.9 527.857 1137.57 527.694 1137.19 527.531C1135.67 526.878 1134.03 526.225 1132.4 525.627C1131.97 525.463 1131.53 525.3 1131.1 525.137C1130.17 524.811 1129.19 524.484 1128.21 524.103C1127.72 523.94 1127.23 523.777 1126.8 523.614C1126.58 523.559 1126.31 523.451 1126.09 523.396C1125.66 523.233 1125.22 523.124 1124.79 522.961C1124.46 522.852 1124.08 522.743 1123.7 522.634C1122.88 522.362 1122.01 522.145 1121.14 521.873C1120.87 521.818 1120.6 521.71 1120.32 521.655C1119.02 521.274 1117.77 520.948 1116.41 520.567C1110.26 518.935 1103.62 517.521 1096.66 516.324C1095.95 516.215 1095.3 516.106 1094.59 515.997C1091.22 515.453 1087.85 514.964 1084.31 514.529C1083.11 514.365 1081.92 514.257 1080.72 514.093C1069.62 512.842 1057.82 512.189 1045.63 512.189C1023.6 512.189 1002.87 514.365 985.08 518.173C983.829 518.445 982.523 518.718 981.326 518.99C963.428 523.124 948.685 528.891 938.62 535.8C936.335 539.554 935.084 543.525 935.084 547.551C935.084 574.589 989.541 596.513 1056.78 596.513C1105.85 596.513 1148.12 584.817 1167.38 568.006V557.234V556.636C1167.11 549.564 1162.43 542.872 1154.33 536.942V536.888Z" fill="#003D2E"/></g><path d="M1181.75 546.952C1181.75 571.814 1127.29 591.943 1060.05 591.943C992.861 591.943 938.35 571.814 938.35 546.952V508.871H1181.75V546.952Z" fill="#03FC9E"/><path d="M1097.48 589.767C1111.29 588.135 1124.08 585.578 1135.23 582.314V522.091H1097.48V589.767Z" fill="#A9FEDE"/><path d="M1139.86 580.9C1145.84 578.996 1151.28 576.874 1156.12 574.535V515.29H1139.86V580.845V580.9Z" fill="#A9FEDE"/><path d="M1181.75 546.952C1181.75 571.814 1127.29 591.943 1060.05 591.943C992.861 591.943 938.35 571.814 938.35 546.952V508.871H1181.75V546.952Z" stroke="#003D2E" stroke-width="1.63207" stroke-linecap="round" stroke-linejoin="round"/><path d="M1060.1 554.46C1127.31 554.46 1181.8 534.317 1181.8 509.469C1181.8 484.621 1127.31 464.478 1060.1 464.478C992.889 464.478 938.402 484.621 938.402 509.469C938.402 534.317 992.889 554.46 1060.1 554.46Z" fill="#E6E8EA" stroke="#003D2E" stroke-width="1.63207" stroke-linecap="round" stroke-linejoin="round"/><path d="M1060.1 539.119C1117.82 539.119 1164.61 524.09 1164.61 505.552C1164.61 487.014 1117.82 471.986 1060.1 471.986C1002.38 471.986 955.595 487.014 955.595 505.552C955.595 524.09 1002.38 539.119 1060.1 539.119Z" fill="#A9FEDE"/><path d="M1084.53 502.723C1079.69 501.635 1073.54 500.765 1066.09 500.003L1061.46 499.514C1058.63 499.187 1056.4 498.915 1054.72 498.643C1053.03 498.371 1051.83 498.045 1051.02 497.718C1050.2 497.392 1049.82 497.011 1049.82 496.576C1049.82 495.977 1050.42 495.488 1051.56 494.998C1052.7 494.563 1054.34 494.182 1056.4 493.91C1058.47 493.638 1060.76 493.529 1063.26 493.529C1066.9 493.529 1070.49 493.801 1073.98 494.291C1077.46 494.835 1080.94 495.597 1084.53 496.685L1098.95 489.721C1093.72 488.143 1088.07 486.947 1081.97 486.131C1077.89 485.586 1073.76 485.206 1069.57 485.042V480.473H1052.49V485.314C1049.33 485.586 1046.39 485.967 1043.57 486.457C1037.69 487.491 1033.12 488.905 1029.75 490.7C1026.37 492.496 1024.69 494.508 1024.69 496.685C1024.69 499.459 1027.3 501.798 1032.52 503.703C1037.74 505.607 1045.31 507.021 1055.26 507.946L1059.94 508.381C1063.59 508.708 1066.47 509.034 1068.48 509.36C1070.49 509.687 1071.96 510.068 1072.78 510.448C1073.6 510.829 1074.03 511.319 1074.03 511.917C1074.03 512.57 1073.49 513.169 1072.4 513.658C1071.31 514.148 1069.73 514.529 1067.72 514.801C1065.71 515.073 1063.26 515.181 1060.38 515.181C1056.08 515.181 1051.83 514.855 1047.7 514.257C1043.57 513.658 1039.65 512.788 1036 511.591L1021.15 518.5C1026.65 520.186 1032.85 521.547 1039.76 522.471C1044 523.07 1048.3 523.451 1052.49 523.668V528.292H1069.57V523.614C1073.43 523.342 1077.02 522.961 1080.34 522.363C1086.16 521.329 1090.73 519.86 1094.05 518.01C1097.37 516.161 1099 514.093 1099 511.754C1099 509.796 1097.8 508.109 1095.41 506.64C1093.02 505.171 1089.37 503.92 1084.53 502.832V502.723Z" fill="#E6E8EA" stroke="#003D2E" stroke-width="1.63207" stroke-linecap="round" stroke-linejoin="round"/><path d="M1084.53 502.723C1079.69 501.635 1073.54 500.765 1066.09 500.003L1061.46 499.514C1058.63 499.187 1056.4 498.915 1054.72 498.643C1053.03 498.371 1051.83 498.045 1051.02 497.718C1050.2 497.392 1049.82 497.011 1049.82 496.576C1049.82 495.977 1050.42 495.488 1051.56 494.998C1052.7 494.563 1054.34 494.182 1056.4 493.91C1058.47 493.638 1060.76 493.529 1063.26 493.529C1066.9 493.529 1070.49 493.801 1073.98 494.291C1077.46 494.835 1080.94 495.597 1084.53 496.685L1098.95 489.721C1093.72 488.143 1088.07 486.947 1081.97 486.131C1077.89 485.586 1073.76 485.206 1069.57 485.042V480.473H1052.49V485.314C1049.33 485.586 1046.39 485.967 1043.57 486.457C1037.69 487.491 1033.12 488.905 1029.75 490.7C1026.37 492.496 1024.69 494.508 1024.69 496.685C1024.69 499.459 1027.3 501.798 1032.52 503.703C1037.74 505.607 1045.31 507.021 1055.26 507.946L1059.94 508.381C1063.59 508.708 1066.47 509.034 1068.48 509.36C1070.49 509.687 1071.96 510.068 1072.78 510.448C1073.6 510.829 1074.03 511.319 1074.03 511.917C1074.03 512.57 1073.49 513.169 1072.4 513.658C1071.31 514.148 1069.73 514.529 1067.72 514.801C1065.71 515.073 1063.26 515.181 1060.38 515.181C1056.08 515.181 1051.83 514.855 1047.7 514.257C1043.57 513.658 1039.65 512.788 1036 511.591L1021.15 518.5C1026.65 520.186 1032.85 521.547 1039.76 522.471C1044 523.07 1048.3 523.451 1052.49 523.668V528.292H1069.57V523.614C1073.43 523.342 1077.02 522.961 1080.34 522.363C1086.16 521.329 1090.73 519.86 1094.05 518.01C1097.37 516.161 1099 514.093 1099 511.754C1099 509.796 1097.8 508.109 1095.41 506.64C1093.02 505.171 1089.37 503.92 1084.53 502.832V502.723Z" fill="#E6E8EA" stroke="#003D2E" stroke-width="1.63207" stroke-linecap="round" stroke-linejoin="round"/><path d="M1060.1 548.639C1127.28 548.639 1181.75 527.984 1181.75 502.506C1181.75 477.027 1127.28 456.372 1060.1 456.372C992.92 456.372 938.458 477.027 938.458 502.506C938.458 527.984 992.92 548.639 1060.1 548.639Z" fill="#003D2E"/><path d="M1181.75 499.677C1181.75 524.539 1127.29 544.667 1060.05 544.667C992.806 544.667 938.35 524.539 938.35 499.677V461.595H1181.75V499.677Z" fill="#03FC9E"/><path d="M1097.48 542.546C1111.29 540.914 1124.08 538.357 1135.23 535.093V474.869H1097.48V542.546Z" fill="#A9FEDE"/><path d="M1139.86 533.678C1145.84 531.774 1151.28 529.652 1156.12 527.313V468.069H1139.86V533.624V533.678Z" fill="#A9FEDE"/><path d="M1181.75 499.677C1181.75 524.539 1127.29 544.667 1060.05 544.667C992.806 544.667 938.35 524.539 938.35 499.677V461.595H1181.75V499.677Z" stroke="#003D2E" stroke-width="1.63207" stroke-linecap="round" stroke-linejoin="round"/><path d="M1060.1 507.239C1127.31 507.239 1181.8 487.095 1181.8 462.248C1181.8 437.4 1127.31 417.257 1060.1 417.257C992.889 417.257 938.402 437.4 938.402 462.248C938.402 487.095 992.889 507.239 1060.1 507.239Z" fill="#E6E8EA" stroke="#003D2E" stroke-width="1.63207" stroke-linecap="round" stroke-linejoin="round"/><path d="M1060.1 491.897C1117.82 491.897 1164.61 476.869 1164.61 458.331C1164.61 439.793 1117.82 424.764 1060.1 424.764C1002.38 424.764 955.595 439.793 955.595 458.331C955.595 476.869 1002.38 491.897 1060.1 491.897Z" fill="#A9FEDE"/><path d="M1084.53 455.447C1079.69 454.359 1073.54 453.489 1066.09 452.727L1061.46 452.238C1058.63 451.911 1056.4 451.639 1054.72 451.367C1053.03 451.095 1051.83 450.769 1051.02 450.442C1050.2 450.116 1049.82 449.735 1049.82 449.3C1049.82 448.701 1050.42 448.212 1051.56 447.722C1052.7 447.287 1054.34 446.906 1056.4 446.634C1058.47 446.362 1060.76 446.253 1063.26 446.253C1066.9 446.253 1070.49 446.525 1073.98 447.015C1077.46 447.559 1080.94 448.321 1084.53 449.409L1098.95 442.445C1093.72 440.868 1088.07 439.671 1081.97 438.855C1077.89 438.311 1073.76 437.93 1069.57 437.767V433.197H1052.49V438.039C1049.33 438.311 1046.39 438.691 1043.57 439.181C1037.69 440.215 1033.12 441.629 1029.75 443.424C1026.37 445.22 1024.69 447.233 1024.69 449.409C1024.69 452.183 1027.3 454.523 1032.52 456.427C1037.74 458.331 1045.31 459.745 1055.26 460.67L1059.94 461.105C1063.59 461.432 1066.47 461.758 1068.48 462.084C1070.49 462.411 1071.96 462.792 1072.78 463.173C1073.6 463.553 1074.03 464.043 1074.03 464.641C1074.03 465.294 1073.49 465.893 1072.4 466.382C1071.31 466.872 1069.73 467.253 1067.72 467.525C1065.71 467.797 1063.26 467.906 1060.38 467.906C1056.08 467.906 1051.83 467.579 1047.7 466.981C1043.57 466.382 1039.65 465.512 1036 464.315L1021.15 471.224C1026.65 472.911 1032.85 474.271 1039.76 475.195C1044 475.74 1048.3 476.175 1052.49 476.392V481.017H1069.57V476.338C1073.43 476.066 1077.02 475.685 1080.34 475.087C1086.16 474.053 1090.73 472.584 1094.05 470.734C1097.37 468.885 1099 466.818 1099 464.478C1099 462.52 1097.8 460.833 1095.41 459.364C1093.02 457.896 1089.37 456.644 1084.53 455.556V455.447Z" fill="#E6E8EA" stroke="#003D2E" stroke-width="1.63207" stroke-linecap="round" stroke-linejoin="round"/><path d="M1084.53 455.447C1079.69 454.359 1073.54 453.489 1066.09 452.727L1061.46 452.238C1058.63 451.911 1056.4 451.639 1054.72 451.367C1053.03 451.095 1051.83 450.769 1051.02 450.442C1050.2 450.116 1049.82 449.735 1049.82 449.3C1049.82 448.701 1050.42 448.212 1051.56 447.722C1052.7 447.287 1054.34 446.906 1056.4 446.634C1058.47 446.362 1060.76 446.253 1063.26 446.253C1066.9 446.253 1070.49 446.525 1073.98 447.015C1077.46 447.559 1080.94 448.321 1084.53 449.409L1098.95 442.445C1093.72 440.868 1088.07 439.671 1081.97 438.855C1077.89 438.311 1073.76 437.93 1069.57 437.767V433.197H1052.49V438.039C1049.33 438.311 1046.39 438.691 1043.57 439.181C1037.69 440.215 1033.12 441.629 1029.75 443.424C1026.37 445.22 1024.69 447.233 1024.69 449.409C1024.69 452.183 1027.3 454.523 1032.52 456.427C1037.74 458.331 1045.31 459.745 1055.26 460.67L1059.94 461.105C1063.59 461.432 1066.47 461.758 1068.48 462.084C1070.49 462.411 1071.96 462.792 1072.78 463.173C1073.6 463.553 1074.03 464.043 1074.03 464.641C1074.03 465.294 1073.49 465.893 1072.4 466.382C1071.31 466.872 1069.73 467.253 1067.72 467.525C1065.71 467.797 1063.26 467.906 1060.38 467.906C1056.08 467.906 1051.83 467.579 1047.7 466.981C1043.57 466.382 1039.65 465.512 1036 464.315L1021.15 471.224C1026.65 472.911 1032.85 474.271 1039.76 475.195C1044 475.74 1048.3 476.175 1052.49 476.392V481.017H1069.57V476.338C1073.43 476.066 1077.02 475.685 1080.34 475.087C1086.16 474.053 1090.73 472.584 1094.05 470.734C1097.37 468.885 1099 466.818 1099 464.478C1099 462.52 1097.8 460.833 1095.41 459.364C1093.02 457.896 1089.37 456.644 1084.53 455.556V455.447Z" fill="#E6E8EA" stroke="#003D2E" stroke-width="1.63207" stroke-linecap="round" stroke-linejoin="round"/><g style="mix-blend-mode:multiply"><path d="M1045.68 499.949C1112.87 499.949 1167.38 478.024 1167.38 450.986C1167.38 445.709 1165.32 440.65 1161.51 435.917C1158.41 434.176 1154.98 432.544 1151.28 430.966C1151.17 430.966 1151.06 430.857 1150.95 430.857C1144.04 427.974 1136.16 425.472 1127.51 423.296C1126.69 423.078 1125.82 422.915 1125 422.697C1122.99 422.207 1120.92 421.772 1118.86 421.337C1117.93 421.119 1116.95 420.956 1115.97 420.793C1115.21 420.63 1114.45 420.521 1113.69 420.358C1113.14 420.249 1112.54 420.14 1112 420.031C1109.06 419.542 1106.02 419.052 1102.97 418.617C1101.34 418.399 1099.71 418.182 1098.07 417.964C1096.93 417.801 1095.73 417.692 1094.54 417.583C1092.85 417.42 1091.16 417.202 1089.42 417.094C1088.23 416.985 1087.03 416.876 1085.78 416.767C1084.96 416.713 1084.15 416.658 1083.33 416.604C1083.17 416.604 1083.06 416.604 1082.9 416.604C1081.05 416.495 1079.2 416.386 1077.35 416.278C1076.69 416.278 1076.04 416.223 1075.39 416.169C1070.38 415.951 1065.27 415.842 1060.1 415.842C993.458 415.842 939.327 435.645 938.402 460.235V460.833V474.107C958.912 489.503 999.279 499.949 1045.68 499.949Z" fill="#003D2E"/></g><path d="M1167.38 450.442C1167.38 475.304 1112.93 495.433 1045.68 495.433C978.443 495.433 923.986 475.304 923.986 450.442V412.361H1167.38V450.442Z" fill="#03FC9E"/><path d="M1083.11 493.312C1096.93 491.68 1109.72 489.123 1120.87 485.858V425.635H1083.11V493.312Z" fill="#A9FEDE"/><path d="M1125.44 484.444C1131.42 482.54 1136.86 480.418 1141.7 478.079V418.835H1125.44V484.39V484.444Z" fill="#A9FEDE"/><path d="M1167.38 450.442C1167.38 475.304 1112.93 495.433 1045.68 495.433C978.443 495.433 923.986 475.304 923.986 450.442V412.361H1167.38V450.442Z" stroke="#003D2E" stroke-width="1.63207" stroke-linecap="round" stroke-linejoin="round"/><path d="M1045.68 457.95C1112.9 457.95 1167.38 437.807 1167.38 412.959C1167.38 388.111 1112.9 367.968 1045.68 367.968C978.473 367.968 923.986 388.111 923.986 412.959C923.986 437.807 978.473 457.95 1045.68 457.95Z" fill="#E6E8EA" stroke="#003D2E" stroke-width="1.63207" stroke-linecap="round" stroke-linejoin="round"/><path d="M1045.68 442.663C1103.4 442.663 1150.19 427.635 1150.19 409.096C1150.19 390.558 1103.4 375.53 1045.68 375.53C987.967 375.53 941.178 390.558 941.178 409.096C941.178 427.635 987.967 442.663 1045.68 442.663Z" fill="#A9FEDE" stroke="#003D2E" stroke-width="1.63207" stroke-miterlimit="10"/><path d="M682.003 854.979C682.003 879.841 627.546 899.97 560.305 899.97C493.063 899.97 438.606 879.841 438.606 854.979V816.897H682.003V854.979Z" fill="#03FC9E"/><path d="M597.733 897.848C611.552 896.216 624.336 893.659 635.489 890.395V830.172H597.733V897.848Z" fill="#A9FEDE"/><path d="M640.058 888.981C646.042 887.077 651.482 884.955 656.324 882.616V823.371H640.058V888.926V888.981Z" fill="#A9FEDE"/><path d="M682.003 854.979C682.003 879.841 627.546 899.97 560.305 899.97C493.063 899.97 438.606 879.841 438.606 854.979V816.897H682.003V854.979Z" stroke="#003D2E" stroke-width="1.63207" stroke-linecap="round" stroke-linejoin="round"/><path d="M560.305 862.487C627.517 862.487 682.003 842.344 682.003 817.496C682.003 792.648 627.517 772.505 560.305 772.505C493.093 772.505 438.606 792.648 438.606 817.496C438.606 842.344 493.093 862.487 560.305 862.487Z" fill="#E6E8EA" stroke="#003D2E" stroke-width="1.63207" stroke-linecap="round" stroke-linejoin="round"/><path d="M560.306 847.2C618.024 847.2 664.813 832.172 664.813 813.633C664.813 795.095 618.024 780.067 560.306 780.067C502.588 780.067 455.799 795.095 455.799 813.633C455.799 832.172 502.588 847.2 560.306 847.2Z" fill="#A9FEDE" stroke="#003D2E" stroke-width="1.63207" stroke-miterlimit="10"/><path d="M1353.39 820.107C1353.39 844.969 1298.93 865.098 1231.69 865.098C1164.45 865.098 1109.99 844.969 1109.99 820.107V782.026H1353.39V820.107Z" fill="#03FC9E"/><path d="M1269.12 862.976C1282.93 861.344 1295.72 858.787 1306.87 855.523V795.3H1269.12V862.976Z" fill="#A9FEDE"/><path d="M1311.44 854.109C1317.42 852.205 1322.86 850.083 1327.71 847.744V788.499H1311.44V854.054V854.109Z" fill="#A9FEDE"/><path d="M1353.39 820.107C1353.39 844.969 1298.93 865.098 1231.69 865.098C1164.45 865.098 1109.99 844.969 1109.99 820.107V782.026H1353.39V820.107Z" stroke="#003D2E" stroke-width="1.63207" stroke-linecap="round" stroke-linejoin="round"/><path d="M1231.69 827.615C1298.9 827.615 1353.39 807.472 1353.39 782.624C1353.39 757.776 1298.9 737.633 1231.69 737.633C1164.47 737.633 1109.99 757.776 1109.99 782.624C1109.99 807.472 1164.47 827.615 1231.69 827.615Z" fill="#E6E8EA" stroke="#003D2E" stroke-width="1.63207" stroke-linecap="round" stroke-linejoin="round"/><path d="M1231.69 812.328C1289.41 812.328 1336.2 797.3 1336.2 778.761C1336.2 760.223 1289.41 745.195 1231.69 745.195C1173.97 745.195 1127.18 760.223 1127.18 778.761C1127.18 797.3 1173.97 812.328 1231.69 812.328Z" fill="#A9FEDE"/><path d="M1256.11 775.878C1251.27 774.79 1245.12 773.92 1237.67 773.158L1233.05 772.668C1230.22 772.342 1227.99 772.07 1226.3 771.798C1224.61 771.526 1223.42 771.199 1222.6 770.873C1221.79 770.547 1221.4 770.166 1221.4 769.731C1221.4 769.132 1222 768.643 1223.15 768.153C1224.29 767.718 1225.92 767.337 1227.99 767.065C1230.05 766.793 1232.34 766.684 1234.84 766.684C1238.49 766.684 1242.08 766.956 1245.56 767.446C1249.04 767.99 1252.52 768.751 1256.11 769.839L1270.53 762.876C1265.31 761.298 1259.65 760.101 1253.56 759.285C1249.48 758.741 1245.34 758.36 1241.15 758.197V753.627H1224.07V758.469C1220.91 758.741 1217.98 759.122 1215.15 759.612C1209.27 760.645 1204.7 762.06 1201.33 763.855C1197.96 765.65 1196.27 767.663 1196.27 769.839C1196.27 772.614 1198.88 774.953 1204.1 776.857C1209.33 778.761 1216.89 780.176 1226.84 781.101L1231.52 781.536C1235.17 781.862 1238.05 782.189 1240.06 782.515C1242.08 782.842 1243.55 783.222 1244.36 783.603C1245.18 783.984 1245.61 784.474 1245.61 785.072C1245.61 785.725 1245.07 786.323 1243.98 786.813C1242.89 787.303 1241.32 787.683 1239.3 787.955C1237.29 788.227 1234.84 788.336 1231.96 788.336C1227.66 788.336 1223.42 788.01 1219.28 787.411C1215.15 786.813 1211.23 785.943 1207.59 784.746L1192.73 791.655C1198.23 793.341 1204.43 794.701 1211.34 795.626C1215.58 796.225 1219.88 796.605 1224.07 796.823V801.447H1241.15V796.769C1245.02 796.497 1248.61 796.116 1251.92 795.517C1257.75 794.484 1262.32 793.015 1265.63 791.165C1268.95 789.315 1270.58 787.248 1270.58 784.909C1270.58 782.95 1269.39 781.264 1266.99 779.795C1264.6 778.326 1260.96 777.075 1256.11 775.987V775.878Z" fill="#E6E8EA" stroke="#003D2E" stroke-width="1.63207" stroke-linecap="round" stroke-linejoin="round"/><path d="M1256.11 775.878C1251.27 774.79 1245.12 773.92 1237.67 773.158L1233.05 772.668C1230.22 772.342 1227.99 772.07 1226.3 771.798C1224.61 771.526 1223.42 771.199 1222.6 770.873C1221.79 770.547 1221.4 770.166 1221.4 769.731C1221.4 769.132 1222 768.643 1223.15 768.153C1224.29 767.718 1225.92 767.337 1227.99 767.065C1230.05 766.793 1232.34 766.684 1234.84 766.684C1238.49 766.684 1242.08 766.956 1245.56 767.446C1249.04 767.99 1252.52 768.751 1256.11 769.839L1270.53 762.876C1265.31 761.298 1259.65 760.101 1253.56 759.285C1249.48 758.741 1245.34 758.36 1241.15 758.197V753.627H1224.07V758.469C1220.91 758.741 1217.98 759.122 1215.15 759.612C1209.27 760.645 1204.7 762.06 1201.33 763.855C1197.96 765.65 1196.27 767.663 1196.27 769.839C1196.27 772.614 1198.88 774.953 1204.1 776.857C1209.33 778.761 1216.89 780.176 1226.84 781.101L1231.52 781.536C1235.17 781.862 1238.05 782.189 1240.06 782.515C1242.08 782.842 1243.55 783.222 1244.36 783.603C1245.18 783.984 1245.61 784.474 1245.61 785.072C1245.61 785.725 1245.07 786.323 1243.98 786.813C1242.89 787.303 1241.32 787.683 1239.3 787.955C1237.29 788.227 1234.84 788.336 1231.96 788.336C1227.66 788.336 1223.42 788.01 1219.28 787.411C1215.15 786.813 1211.23 785.943 1207.59 784.746L1192.73 791.655C1198.23 793.341 1204.43 794.701 1211.34 795.626C1215.58 796.225 1219.88 796.605 1224.07 796.823V801.447H1241.15V796.769C1245.02 796.497 1248.61 796.116 1251.92 795.517C1257.75 794.484 1262.32 793.015 1265.63 791.165C1268.95 789.315 1270.58 787.248 1270.58 784.909C1270.58 782.95 1269.39 781.264 1266.99 779.795C1264.6 778.326 1260.96 777.075 1256.11 775.987V775.878Z" fill="#E6E8EA" stroke="#003D2E" stroke-width="1.63207" stroke-linecap="round" stroke-linejoin="round"/><g style="mix-blend-mode:multiply"><path d="M1231.69 821.631C1298.9 821.631 1353.39 799.831 1353.39 772.94C1353.39 746.049 1298.9 724.25 1231.69 724.25C1164.47 724.25 1109.99 746.049 1109.99 772.94C1109.99 799.831 1164.47 821.631 1231.69 821.631Z" fill="#003D2E"/></g><path d="M943.079 823.916C943.079 848.778 888.622 868.906 821.381 868.906C754.14 868.906 699.683 848.778 699.683 823.916V785.834H943.079V823.916Z" fill="#03FC9E" stroke="#003D2E" stroke-width="1.63207" stroke-linecap="round" stroke-linejoin="round"/><path d="M858.81 866.73C872.628 865.098 885.412 862.541 896.565 859.277V799.054H858.81V866.73Z" fill="#A9FEDE"/><path d="M901.134 857.917C907.118 856.013 912.558 853.891 917.4 851.552V792.308H901.134V857.863V857.917Z" fill="#A9FEDE"/><path d="M821.381 831.423C888.593 831.423 943.079 811.28 943.079 786.432C943.079 761.584 888.593 741.441 821.381 741.441C754.169 741.441 699.683 761.584 699.683 786.432C699.683 811.28 754.169 831.423 821.381 831.423Z" fill="#E6E8EA" stroke="#003D2E" stroke-width="1.63207" stroke-linecap="round" stroke-linejoin="round"/><path d="M821.382 816.136C879.1 816.136 925.889 801.108 925.889 782.57C925.889 764.031 879.1 749.003 821.382 749.003C763.664 749.003 716.875 764.031 716.875 782.57C716.875 801.108 763.664 816.136 821.382 816.136Z" fill="#A9FEDE"/><path d="M845.808 779.686C840.966 778.598 834.818 777.728 827.365 776.966L822.741 776.477C819.912 776.15 817.682 775.878 815.995 775.606C814.309 775.334 813.112 775.008 812.296 774.681C811.48 774.355 811.099 773.974 811.099 773.539C811.099 772.94 811.697 772.451 812.84 771.961C813.982 771.526 815.614 771.145 817.682 770.873C819.749 770.601 822.034 770.492 824.536 770.492C828.181 770.492 831.772 770.764 835.254 771.254C838.735 771.798 842.217 772.56 845.808 773.648L860.224 766.684C855.002 765.106 849.344 763.91 843.251 763.094C839.171 762.55 835.036 762.169 830.847 762.005V757.436H813.765V762.277C810.609 762.549 807.671 762.93 804.843 763.42C798.967 764.454 794.397 765.868 791.024 767.663C787.651 769.459 785.965 771.472 785.965 773.648C785.965 776.422 788.576 778.761 793.799 780.666C799.021 782.57 806.583 783.984 816.539 784.909L821.218 785.344C824.863 785.671 827.746 785.997 829.759 786.323C831.772 786.65 833.241 787.031 834.057 787.411C834.873 787.792 835.308 788.282 835.308 788.88C835.308 789.533 834.764 790.132 833.676 790.621C832.588 791.111 831.01 791.492 828.997 791.764C826.984 792.036 824.536 792.144 821.653 792.144C817.355 792.144 813.112 791.818 808.977 791.22C804.843 790.621 800.926 789.751 797.281 788.554L782.429 795.463C787.923 797.15 794.125 798.51 801.034 799.434C805.278 800.033 809.576 800.414 813.765 800.631V805.255H830.847V800.577C834.71 800.305 838.3 799.924 841.619 799.326C847.44 798.292 852.009 796.823 855.328 794.973C858.647 793.124 860.279 791.056 860.279 788.717C860.279 786.759 859.082 785.072 856.688 783.603C854.294 782.134 850.649 780.883 845.808 779.795V779.686Z" fill="#E6E8EA" stroke="#003D2E" stroke-width="1.63207" stroke-linecap="round" stroke-linejoin="round"/><path d="M845.808 779.686C840.966 778.598 834.818 777.728 827.365 776.966L822.741 776.477C819.912 776.15 817.682 775.878 815.995 775.606C814.309 775.334 813.112 775.008 812.296 774.681C811.48 774.355 811.099 773.974 811.099 773.539C811.099 772.94 811.697 772.451 812.84 771.961C813.982 771.526 815.614 771.145 817.682 770.873C819.749 770.601 822.034 770.492 824.536 770.492C828.181 770.492 831.772 770.764 835.254 771.254C838.735 771.798 842.217 772.56 845.808 773.648L860.224 766.684C855.002 765.106 849.344 763.91 843.251 763.094C839.171 762.55 835.036 762.169 830.847 762.005V757.436H813.765V762.277C810.609 762.549 807.671 762.93 804.843 763.42C798.967 764.454 794.397 765.868 791.024 767.663C787.651 769.459 785.965 771.472 785.965 773.648C785.965 776.422 788.576 778.761 793.799 780.666C799.021 782.57 806.583 783.984 816.539 784.909L821.218 785.344C824.863 785.671 827.746 785.997 829.759 786.323C831.772 786.65 833.241 787.031 834.057 787.411C834.873 787.792 835.308 788.282 835.308 788.88C835.308 789.533 834.764 790.132 833.676 790.621C832.588 791.111 831.01 791.492 828.997 791.764C826.984 792.036 824.536 792.144 821.653 792.144C817.355 792.144 813.112 791.818 808.977 791.22C804.843 790.621 800.926 789.751 797.281 788.554L782.429 795.463C787.923 797.15 794.125 798.51 801.034 799.434C805.278 800.033 809.576 800.414 813.765 800.631V805.255H830.847V800.577C834.71 800.305 838.3 799.924 841.619 799.326C847.44 798.292 852.009 796.823 855.328 794.973C858.647 793.124 860.279 791.056 860.279 788.717C860.279 786.759 859.082 785.072 856.688 783.603C854.294 782.134 850.649 780.883 845.808 779.795V779.686Z" fill="#E6E8EA" stroke="#003D2E" stroke-width="1.63207" stroke-linecap="round" stroke-linejoin="round"/><g style="mix-blend-mode:multiply"><path d="M807.02 825.765C874.207 825.765 928.718 803.841 928.718 776.803C928.718 771.526 926.651 766.466 922.843 761.733C919.742 759.993 916.315 758.361 912.615 756.783C912.506 756.783 912.398 756.674 912.289 756.674C905.38 753.791 897.491 751.288 888.841 749.112C888.025 748.894 887.155 748.731 886.339 748.514C884.326 748.024 882.259 747.589 880.191 747.154C879.266 746.936 878.287 746.773 877.308 746.61C876.546 746.446 875.785 746.338 875.023 746.174C874.479 746.066 873.881 745.957 873.337 745.848C870.399 745.358 867.352 744.869 864.306 744.433C862.674 744.216 861.042 743.998 859.41 743.781C858.267 743.617 857.07 743.509 855.873 743.4C854.187 743.237 852.5 743.019 850.76 742.91C849.563 742.801 848.366 742.693 847.115 742.584C846.299 742.529 845.483 742.475 844.667 742.421C844.503 742.421 844.394 742.421 844.231 742.421C842.382 742.312 840.532 742.203 838.682 742.094C838.029 742.094 837.377 742.04 836.724 741.985C831.719 741.768 826.605 741.659 821.437 741.659C754.794 741.659 700.663 761.461 699.738 786.051V786.65V799.924C720.248 815.32 760.615 825.765 807.02 825.765Z" fill="#003D2E"/></g><path d="M930.512 776.585C930.512 801.447 876.055 821.576 808.814 821.576C741.626 821.576 687.115 801.447 687.115 776.585V738.504H930.512V776.585Z" fill="#03FC9E" stroke="#003D2E" stroke-width="1.63207" stroke-linecap="round" stroke-linejoin="round"/><path d="M846.189 819.455C860.008 817.822 872.792 815.266 883.945 812.001V751.778H846.189V819.455Z" fill="#A9FEDE"/><path d="M888.569 810.587C894.554 808.683 899.994 806.561 904.836 804.222V744.978H888.569V810.533V810.587Z" fill="#A9FEDE"/><path d="M808.814 784.093C876.026 784.093 930.512 763.95 930.512 739.102C930.512 714.254 876.026 694.111 808.814 694.111C741.601 694.111 687.115 714.254 687.115 739.102C687.115 763.95 741.601 784.093 808.814 784.093Z" fill="#E6E8EA" stroke="#003D2E" stroke-width="1.63207" stroke-linecap="round" stroke-linejoin="round"/><path d="M808.815 768.806C866.532 768.806 913.322 753.778 913.322 735.24C913.322 716.701 866.532 701.673 808.815 701.673C751.097 701.673 704.308 716.701 704.308 735.24C704.308 753.778 751.097 768.806 808.815 768.806Z" fill="#A9FEDE"/><path d="M833.24 732.356C828.398 731.268 822.251 730.398 814.798 729.636L810.174 729.146C807.345 728.82 805.114 728.548 803.428 728.276C801.741 728.004 800.544 727.678 799.728 727.351C798.912 727.025 798.531 726.644 798.531 726.209C798.531 725.61 799.13 725.121 800.272 724.631C801.415 724.196 803.047 723.815 805.114 723.543C807.181 723.271 809.466 723.162 811.969 723.162C815.614 723.162 819.204 723.434 822.686 723.924C826.168 724.468 829.65 725.229 833.24 726.318L847.657 719.354C842.434 717.776 836.776 716.579 830.683 715.763C826.603 715.219 822.469 714.839 818.28 714.675V710.106H801.197V714.947C798.042 715.219 795.104 715.6 792.275 716.09C786.4 717.124 781.83 718.538 778.457 720.333C775.084 722.129 773.397 724.141 773.397 726.318C773.397 729.092 776.009 731.431 781.231 733.335C786.454 735.24 794.016 736.654 803.972 737.579L808.65 738.014C812.295 738.34 815.179 738.667 817.191 738.993C819.204 739.32 820.673 739.701 821.489 740.081C822.305 740.462 822.741 740.952 822.741 741.55C822.741 742.203 822.197 742.801 821.108 743.291C820.02 743.781 818.443 744.162 816.43 744.434C814.417 744.706 811.969 744.814 809.086 744.814C804.788 744.814 800.544 744.488 796.41 743.89C792.275 743.291 788.358 742.421 784.713 741.224L769.861 748.133C775.356 749.819 781.558 751.179 788.467 752.104C792.71 752.703 797.008 753.084 801.197 753.301V757.925H818.28V753.247C822.142 752.975 825.733 752.594 829.051 751.995C834.872 750.962 839.442 749.493 842.761 747.643C846.079 745.794 847.711 743.726 847.711 741.387C847.711 739.429 846.514 737.742 844.121 736.273C841.727 734.804 838.082 733.553 833.24 732.465V732.356Z" fill="#E6E8EA" stroke="#003D2E" stroke-width="1.63207" stroke-linecap="round" stroke-linejoin="round"/><path d="M833.24 732.356C828.398 731.268 822.251 730.398 814.798 729.636L810.174 729.146C807.345 728.82 805.114 728.548 803.428 728.276C801.741 728.004 800.544 727.678 799.728 727.351C798.912 727.025 798.531 726.644 798.531 726.209C798.531 725.61 799.13 725.121 800.272 724.631C801.415 724.196 803.047 723.815 805.114 723.543C807.181 723.271 809.466 723.162 811.969 723.162C815.614 723.162 819.204 723.434 822.686 723.924C826.168 724.468 829.65 725.229 833.24 726.318L847.657 719.354C842.434 717.776 836.776 716.579 830.683 715.763C826.603 715.219 822.469 714.839 818.28 714.675V710.106H801.197V714.947C798.042 715.219 795.104 715.6 792.275 716.09C786.4 717.124 781.83 718.538 778.457 720.333C775.084 722.129 773.397 724.141 773.397 726.318C773.397 729.092 776.009 731.431 781.231 733.335C786.454 735.24 794.016 736.654 803.972 737.579L808.65 738.014C812.295 738.34 815.179 738.667 817.191 738.993C819.204 739.32 820.673 739.701 821.489 740.081C822.305 740.462 822.741 740.952 822.741 741.55C822.741 742.203 822.197 742.801 821.108 743.291C820.02 743.781 818.443 744.162 816.43 744.434C814.417 744.706 811.969 744.814 809.086 744.814C804.788 744.814 800.544 744.488 796.41 743.89C792.275 743.291 788.358 742.421 784.713 741.224L769.861 748.133C775.356 749.819 781.558 751.179 788.467 752.104C792.71 752.703 797.008 753.084 801.197 753.301V757.925H818.28V753.247C822.142 752.975 825.733 752.594 829.051 751.995C834.872 750.962 839.442 749.493 842.761 747.643C846.079 745.794 847.711 743.726 847.711 741.387C847.711 739.429 846.514 737.742 844.121 736.273C841.727 734.804 838.082 733.553 833.24 732.465V732.356Z" fill="#E6E8EA" stroke="#003D2E" stroke-width="1.63207" stroke-linecap="round" stroke-linejoin="round"/><g style="mix-blend-mode:multiply"><path d="M917.402 718.81C917.402 718.81 917.185 718.647 917.021 718.538C916.042 717.831 915.063 717.178 914.029 716.525C913.812 716.362 913.54 716.199 913.322 716.09C911.255 714.784 908.97 713.533 906.576 712.336C905.869 711.955 905.107 711.629 904.4 711.302C903.421 710.813 902.387 710.378 901.353 709.942C900.973 709.779 900.646 709.616 900.265 709.453C898.742 708.8 897.11 708.147 895.478 707.549C895.043 707.385 894.608 707.222 894.172 707.059C893.247 706.733 892.268 706.406 891.289 706.025C890.799 705.862 890.31 705.699 889.874 705.536C889.657 705.481 889.385 705.373 889.167 705.318C888.732 705.155 888.297 705.046 887.862 704.883C887.535 704.774 887.154 704.665 886.774 704.556C885.958 704.284 885.087 704.067 884.217 703.795C883.945 703.74 883.673 703.632 883.401 703.577C882.095 703.196 880.844 702.87 879.484 702.489C873.336 700.857 866.699 699.443 859.736 698.246C859.028 698.137 858.375 698.028 857.668 697.919C854.295 697.375 850.922 696.886 847.386 696.451C846.189 696.287 844.992 696.179 843.796 696.015C832.697 694.764 820.892 694.111 808.706 694.111C786.673 694.111 765.946 696.287 748.156 700.095C746.905 700.368 745.599 700.64 744.402 700.912C726.504 705.046 711.761 710.813 701.696 717.722C699.411 721.476 698.16 725.447 698.16 729.473C698.16 756.511 752.617 778.435 819.859 778.435C868.93 778.435 911.2 766.739 930.459 749.928V739.156V738.558C930.187 731.486 925.508 724.794 917.402 718.864V718.81Z" fill="#003D2E"/></g><path d="M943.079 728.657C943.079 753.519 888.622 773.648 821.381 773.648C754.194 773.648 699.683 753.519 699.683 728.657V690.575H943.079V728.657Z" fill="#03FC9E" stroke="#003D2E" stroke-width="1.63207" stroke-linecap="round" stroke-linejoin="round"/><path d="M858.81 771.471C872.628 769.839 885.412 767.282 896.565 764.018V703.795H858.81V771.471Z" fill="#A9FEDE"/><path d="M901.134 762.604C907.118 760.7 912.558 758.578 917.4 756.239V696.995H901.134V762.549V762.604Z" fill="#A9FEDE"/><path d="M821.381 736.164C888.593 736.164 943.079 716.021 943.079 691.173C943.079 666.326 888.593 646.183 821.381 646.183C754.169 646.183 699.683 666.326 699.683 691.173C699.683 716.021 754.169 736.164 821.381 736.164Z" fill="#E6E8EA" stroke="#003D2E" stroke-width="1.63207" stroke-linecap="round" stroke-linejoin="round"/><path d="M821.382 720.823C879.1 720.823 925.889 705.795 925.889 687.257C925.889 668.718 879.1 653.69 821.382 653.69C763.664 653.69 716.875 668.718 716.875 687.257C716.875 705.795 763.664 720.823 821.382 720.823Z" fill="#A9FEDE"/><path d="M845.808 684.427C840.966 683.339 834.818 682.469 827.365 681.707L822.741 681.218C819.912 680.891 817.682 680.619 815.995 680.347C814.309 680.075 813.112 679.749 812.296 679.422C811.48 679.096 811.099 678.715 811.099 678.28C811.099 677.682 811.697 677.192 812.84 676.702C813.982 676.267 815.614 675.886 817.682 675.614C819.749 675.342 822.034 675.233 824.536 675.233C828.181 675.233 831.772 675.505 835.254 675.995C838.735 676.539 842.217 677.301 845.808 678.389L860.224 671.425C855.002 669.848 849.344 668.651 843.251 667.835C839.171 667.291 835.036 666.91 830.847 666.747V662.177H813.765V667.019C810.609 667.291 807.671 667.672 804.843 668.161C798.967 669.195 794.397 670.609 791.024 672.405C787.651 674.2 785.965 676.213 785.965 678.389C785.965 681.163 788.576 683.503 793.799 685.407C799.021 687.311 806.583 688.725 816.539 689.65L821.218 690.085C824.863 690.412 827.746 690.738 829.759 691.065C831.772 691.391 833.241 691.772 834.057 692.153C834.873 692.533 835.308 693.023 835.308 693.622C835.308 694.274 834.764 694.873 833.676 695.362C832.588 695.852 831.01 696.233 828.997 696.505C826.984 696.777 824.536 696.886 821.653 696.886C817.355 696.886 813.112 696.559 808.977 695.961C804.843 695.362 800.926 694.492 797.281 693.295L782.429 700.204C787.923 701.891 794.125 703.251 801.034 704.176C805.278 704.774 809.576 705.155 813.765 705.372V709.997H830.847V705.318C834.71 705.046 838.3 704.665 841.619 704.067C847.44 703.033 852.009 701.564 855.328 699.715C858.647 697.865 860.279 695.798 860.279 693.458C860.279 691.5 859.082 689.813 856.688 688.344C854.294 686.876 850.649 685.624 845.808 684.536V684.427Z" fill="#E6E8EA" stroke="#003D2E" stroke-width="1.63207" stroke-linecap="round" stroke-linejoin="round"/><path d="M845.808 684.427C840.966 683.339 834.818 682.469 827.365 681.707L822.741 681.218C819.912 680.891 817.682 680.619 815.995 680.347C814.309 680.075 813.112 679.749 812.296 679.422C811.48 679.096 811.099 678.715 811.099 678.28C811.099 677.682 811.697 677.192 812.84 676.702C813.982 676.267 815.614 675.886 817.682 675.614C819.749 675.342 822.034 675.233 824.536 675.233C828.181 675.233 831.772 675.505 835.254 675.995C838.735 676.539 842.217 677.301 845.808 678.389L860.224 671.425C855.002 669.848 849.344 668.651 843.251 667.835C839.171 667.291 835.036 666.91 830.847 666.747V662.177H813.765V667.019C810.609 667.291 807.671 667.672 804.843 668.161C798.967 669.195 794.397 670.609 791.024 672.405C787.651 674.2 785.965 676.213 785.965 678.389C785.965 681.163 788.576 683.503 793.799 685.407C799.021 687.311 806.583 688.725 816.539 689.65L821.218 690.085C824.863 690.412 827.746 690.738 829.759 691.065C831.772 691.391 833.241 691.772 834.057 692.153C834.873 692.533 835.308 693.023 835.308 693.622C835.308 694.274 834.764 694.873 833.676 695.362C832.588 695.852 831.01 696.233 828.997 696.505C826.984 696.777 824.536 696.886 821.653 696.886C817.355 696.886 813.112 696.559 808.977 695.961C804.843 695.362 800.926 694.492 797.281 693.295L782.429 700.204C787.923 701.891 794.125 703.251 801.034 704.176C805.278 704.774 809.576 705.155 813.765 705.372V709.997H830.847V705.318C834.71 705.046 838.3 704.665 841.619 704.067C847.44 703.033 852.009 701.564 855.328 699.715C858.647 697.865 860.279 695.798 860.279 693.458C860.279 691.5 859.082 689.813 856.688 688.344C854.294 686.876 850.649 685.624 845.808 684.536V684.427Z" fill="#E6E8EA" stroke="#003D2E" stroke-width="1.63207" stroke-linecap="round" stroke-linejoin="round"/><g style="mix-blend-mode:multiply"><path d="M807.02 730.289C874.207 730.289 928.718 708.365 928.718 681.327C928.718 676.05 926.651 670.99 922.843 666.257C919.742 664.516 916.315 662.884 912.615 661.307C912.506 661.307 912.398 661.198 912.289 661.198C905.38 658.314 897.491 655.812 888.841 653.636C888.025 653.418 887.155 653.255 886.339 653.037C884.326 652.548 882.259 652.112 880.191 651.677C879.266 651.46 878.287 651.296 877.308 651.133C876.546 650.97 875.785 650.861 875.023 650.698C874.479 650.589 873.881 650.48 873.337 650.372C870.399 649.882 867.352 649.392 864.306 648.957C862.674 648.74 861.042 648.522 859.41 648.304C858.267 648.141 857.07 648.032 855.873 647.923C854.187 647.76 852.5 647.543 850.76 647.434C849.563 647.325 848.366 647.216 847.115 647.107C846.299 647.053 845.483 646.999 844.667 646.944C844.503 646.944 844.394 646.944 844.231 646.944C842.382 646.835 840.532 646.727 838.682 646.618C838.029 646.618 837.377 646.563 836.724 646.509C831.719 646.291 826.605 646.183 821.437 646.183C754.794 646.183 700.663 665.985 699.738 690.575V691.173V704.448C720.248 719.844 760.615 730.289 807.02 730.289Z" fill="#003D2E"/></g><path d="M928.663 680.783C928.663 705.645 874.206 725.774 806.965 725.774C739.723 725.774 685.267 705.645 685.267 680.783V642.701H928.663V680.783Z" fill="#03FC9E" stroke="#003D2E" stroke-width="1.63207" stroke-linecap="round" stroke-linejoin="round"/><path d="M844.394 723.652C858.212 722.02 870.996 719.463 882.149 716.199V655.975H844.394V723.652Z" fill="#A9FEDE"/><path d="M886.773 714.784C892.758 712.88 898.198 710.758 903.04 708.419V649.175H886.773V714.73V714.784Z" fill="#A9FEDE"/><path d="M807.018 688.29C874.23 688.29 928.716 668.147 928.716 643.299C928.716 618.452 874.23 598.308 807.018 598.308C739.806 598.308 685.319 618.452 685.319 643.299C685.319 668.147 739.806 688.29 807.018 688.29Z" fill="#E6E8EA" stroke="#003D2E" stroke-width="1.63207" stroke-linecap="round" stroke-linejoin="round"/><path d="M807.019 673.003C864.737 673.003 911.526 657.975 911.526 639.437C911.526 620.899 864.737 605.87 807.019 605.87C749.301 605.87 702.512 620.899 702.512 639.437C702.512 657.975 749.301 673.003 807.019 673.003Z" fill="#A9FEDE"/><path d="M831.447 636.553C826.605 635.465 820.458 634.595 813.005 633.833L808.381 633.344C805.552 633.017 803.321 632.745 801.635 632.473C799.948 632.201 798.751 631.875 797.935 631.548C797.119 631.222 796.738 630.841 796.738 630.406C796.738 629.808 797.337 629.318 798.479 628.828C799.622 628.393 801.254 628.012 803.321 627.74C805.388 627.468 807.673 627.359 810.176 627.359C813.821 627.359 817.411 627.631 820.893 628.121C824.375 628.665 827.857 629.427 831.447 630.515L845.864 623.551C840.641 621.974 834.983 620.777 828.89 619.961C824.81 619.417 820.676 619.036 816.487 618.873V614.303H799.404V619.145C796.249 619.417 793.311 619.797 790.482 620.287C784.607 621.321 780.037 622.735 776.664 624.531C773.291 626.326 771.605 628.339 771.605 630.515C771.605 633.289 774.216 635.629 779.438 637.533C784.661 639.437 792.223 640.851 802.179 641.776L806.857 642.211C810.502 642.538 813.386 642.864 815.399 643.191C817.411 643.517 818.88 643.898 819.696 644.279C820.512 644.659 820.948 645.149 820.948 645.747C820.948 646.4 820.404 646.999 819.315 647.488C818.227 647.978 816.65 648.359 814.637 648.631C812.624 648.903 810.176 649.012 807.293 649.012C802.995 649.012 798.751 648.685 794.617 648.087C790.482 647.488 786.565 646.618 782.92 645.421L768.068 652.33C773.563 654.017 779.765 655.377 786.674 656.302C790.917 656.9 795.215 657.281 799.404 657.498V662.123H816.487V657.444C820.349 657.172 823.94 656.791 827.258 656.193C833.079 655.159 837.649 653.69 840.968 651.841C844.286 649.991 845.918 647.924 845.918 645.584C845.918 643.626 844.721 641.939 842.328 640.47C839.934 639.002 836.289 637.75 831.447 636.662V636.553Z" fill="#E6E8EA" stroke="#003D2E" stroke-width="1.63207" stroke-linecap="round" stroke-linejoin="round"/><path d="M831.447 636.553C826.605 635.465 820.458 634.595 813.005 633.833L808.381 633.344C805.552 633.017 803.321 632.745 801.635 632.473C799.948 632.201 798.751 631.875 797.935 631.548C797.119 631.222 796.738 630.841 796.738 630.406C796.738 629.808 797.337 629.318 798.479 628.828C799.622 628.393 801.254 628.012 803.321 627.74C805.388 627.468 807.673 627.359 810.176 627.359C813.821 627.359 817.411 627.631 820.893 628.121C824.375 628.665 827.857 629.427 831.447 630.515L845.864 623.551C840.641 621.974 834.983 620.777 828.89 619.961C824.81 619.417 820.676 619.036 816.487 618.873V614.303H799.404V619.145C796.249 619.417 793.311 619.797 790.482 620.287C784.607 621.321 780.037 622.735 776.664 624.531C773.291 626.326 771.605 628.339 771.605 630.515C771.605 633.289 774.216 635.629 779.438 637.533C784.661 639.437 792.223 640.851 802.179 641.776L806.857 642.211C810.502 642.538 813.386 642.864 815.399 643.191C817.411 643.517 818.88 643.898 819.696 644.279C820.512 644.659 820.948 645.149 820.948 645.747C820.948 646.4 820.404 646.999 819.315 647.488C818.227 647.978 816.65 648.359 814.637 648.631C812.624 648.903 810.176 649.012 807.293 649.012C802.995 649.012 798.751 648.685 794.617 648.087C790.482 647.488 786.565 646.618 782.92 645.421L768.068 652.33C773.563 654.017 779.765 655.377 786.674 656.302C790.917 656.9 795.215 657.281 799.404 657.498V662.123H816.487V657.444C820.349 657.172 823.94 656.791 827.258 656.193C833.079 655.159 837.649 653.69 840.968 651.841C844.286 649.991 845.918 647.924 845.918 645.584C845.918 643.626 844.721 641.939 842.328 640.47C839.934 639.002 836.289 637.75 831.447 636.662V636.553Z" fill="#E6E8EA" stroke="#003D2E" stroke-width="1.63207" stroke-linecap="round" stroke-linejoin="round"/><g style="mix-blend-mode:multiply"><path d="M915.607 623.007C915.607 623.007 915.39 622.844 915.226 622.735C914.247 622.028 913.268 621.375 912.234 620.722C912.017 620.559 911.745 620.396 911.527 620.287C909.46 618.981 907.175 617.73 904.781 616.533C904.074 616.152 903.312 615.826 902.605 615.5C901.626 615.01 900.592 614.575 899.559 614.14C899.178 613.976 898.851 613.813 898.47 613.65C896.947 612.997 895.315 612.344 893.683 611.746C893.248 611.583 892.813 611.419 892.377 611.256C891.453 610.93 890.473 610.603 889.494 610.223C889.004 610.059 888.515 609.896 888.08 609.733C887.862 609.679 887.59 609.57 887.372 609.515C886.937 609.352 886.502 609.243 886.067 609.08C885.74 608.971 885.359 608.863 884.979 608.754C884.163 608.482 883.292 608.264 882.422 607.992C882.15 607.938 881.878 607.829 881.606 607.774C880.3 607.394 879.049 607.067 877.689 606.686C871.541 605.054 864.904 603.64 857.941 602.443C857.233 602.334 856.581 602.225 855.873 602.117C852.5 601.573 849.127 601.083 845.591 600.648C844.394 600.485 843.198 600.376 842.001 600.213C830.903 598.961 819.097 598.308 806.911 598.308C784.878 598.308 764.151 600.485 746.361 604.293C745.11 604.565 743.804 604.837 742.607 605.109C724.709 609.243 709.966 615.01 699.901 621.919C697.616 625.673 696.365 629.644 696.365 633.67C696.365 660.708 750.822 682.632 818.064 682.632C867.135 682.632 909.405 670.936 928.664 654.125V643.354V642.755C928.392 635.683 923.713 628.991 915.607 623.062V623.007Z" fill="#003D2E"/></g><path d="M943.079 633.072C943.079 657.934 888.622 678.062 821.381 678.062C754.194 678.062 699.683 657.934 699.683 633.072V594.99H943.079V633.072Z" fill="#03FC9E"/><path d="M858.81 675.886C872.628 674.254 885.412 671.697 896.565 668.433V608.21H858.81V675.886Z" fill="#A9FEDE"/><path d="M901.134 667.073C907.118 665.169 912.558 663.047 917.4 660.708V601.464H901.134V667.019V667.073Z" fill="#A9FEDE"/><path d="M943.079 633.072C943.079 657.934 888.622 678.062 821.381 678.062C754.194 678.062 699.683 657.934 699.683 633.072V594.99H943.079V633.072Z" stroke="#003D2E" stroke-width="1.63207" stroke-linecap="round" stroke-linejoin="round"/><path d="M821.381 640.579C888.593 640.579 943.079 620.436 943.079 595.588C943.079 570.741 888.593 550.597 821.381 550.597C754.169 550.597 699.683 570.741 699.683 595.588C699.683 620.436 754.169 640.579 821.381 640.579Z" fill="#E6E8EA" stroke="#003D2E" stroke-width="1.63207" stroke-linecap="round" stroke-linejoin="round"/><path d="M821.382 625.292C879.1 625.292 925.889 610.264 925.889 591.726C925.889 573.187 879.1 558.159 821.382 558.159C763.664 558.159 716.875 573.187 716.875 591.726C716.875 610.264 763.664 625.292 821.382 625.292Z" fill="#A9FEDE" stroke="#003D2E" stroke-width="1.63207" stroke-miterlimit="10"/><path d="M1353.39 772.179C1353.39 797.041 1298.93 817.17 1231.69 817.17C1164.45 817.17 1109.99 797.041 1109.99 772.179V734.097H1353.39V772.179Z" fill="#03FC9E"/><path d="M1269.12 814.994C1282.93 813.362 1295.72 810.805 1306.87 807.54V747.317H1269.12V814.994Z" fill="#A9FEDE"/><path d="M1311.44 806.18C1317.42 804.276 1322.86 802.155 1327.71 799.815V740.571H1311.44V806.126V806.18Z" fill="#A9FEDE"/><path d="M1353.39 772.179C1353.39 797.041 1298.93 817.17 1231.69 817.17C1164.45 817.17 1109.99 797.041 1109.99 772.179V734.097H1353.39V772.179Z" stroke="#003D2E" stroke-width="1.63207" stroke-linecap="round" stroke-linejoin="round"/><path d="M1231.69 779.686C1298.9 779.686 1353.39 759.543 1353.39 734.695C1353.39 709.848 1298.9 689.705 1231.69 689.705C1164.47 689.705 1109.99 709.848 1109.99 734.695C1109.99 759.543 1164.47 779.686 1231.69 779.686Z" fill="#E6E8EA" stroke="#003D2E" stroke-width="1.63207" stroke-linecap="round" stroke-linejoin="round"/><path d="M1231.69 764.399C1289.41 764.399 1336.2 749.371 1336.2 730.833C1336.2 712.295 1289.41 697.266 1231.69 697.266C1173.97 697.266 1127.18 712.295 1127.18 730.833C1127.18 749.371 1173.97 764.399 1231.69 764.399Z" fill="#A9FEDE" stroke="#003D2E" stroke-width="1.63207" stroke-miterlimit="10"/><path d="M1160.2 877.665C1160.2 902.527 1105.74 922.656 1038.5 922.656C971.262 922.656 916.805 902.527 916.805 877.665V839.583H1160.2V877.665Z" fill="#03FC9E"/><path d="M1075.93 920.534C1089.75 918.902 1102.53 916.345 1113.69 913.081V852.858H1075.93V920.534Z" fill="#A9FEDE"/><path d="M1118.26 911.667C1124.24 909.763 1129.68 907.641 1134.52 905.302V846.057H1118.26V911.612V911.667Z" fill="#A9FEDE"/><path d="M1160.2 877.665C1160.2 902.527 1105.74 922.656 1038.5 922.656C971.262 922.656 916.805 902.527 916.805 877.665V839.583H1160.2V877.665Z" stroke="#003D2E" stroke-width="1.63207" stroke-linecap="round" stroke-linejoin="round"/><path d="M1038.5 885.173C1105.72 885.173 1160.2 865.03 1160.2 840.182C1160.2 815.334 1105.72 795.191 1038.5 795.191C971.291 795.191 916.805 815.334 916.805 840.182C916.805 865.03 971.291 885.173 1038.5 885.173Z" fill="#E6E8EA" stroke="#003D2E" stroke-width="1.63207" stroke-linecap="round" stroke-linejoin="round"/><path d="M1038.5 869.886C1096.22 869.886 1143.01 854.857 1143.01 836.319C1143.01 817.781 1096.22 802.753 1038.5 802.753C980.787 802.753 933.997 817.781 933.997 836.319C933.997 854.857 980.787 869.886 1038.5 869.886Z" fill="#A9FEDE"/><path d="M1062.93 833.436C1058.09 832.348 1051.94 831.477 1044.49 830.716L1039.86 830.226C1037.03 829.9 1034.8 829.628 1033.12 829.356C1031.43 829.084 1030.23 828.757 1029.42 828.431C1028.6 828.104 1028.22 827.724 1028.22 827.288C1028.22 826.69 1028.82 826.2 1029.96 825.711C1031.1 825.276 1032.74 824.895 1034.8 824.623C1036.87 824.351 1039.16 824.242 1041.66 824.242C1045.3 824.242 1048.89 824.514 1052.38 825.004C1055.86 825.548 1059.34 826.309 1062.93 827.397L1077.35 820.434C1072.12 818.856 1066.47 817.659 1060.37 816.843C1056.29 816.299 1052.16 815.918 1047.97 815.755V811.185H1030.89V816.027C1027.73 816.299 1024.79 816.68 1021.96 817.17C1016.09 818.203 1011.52 819.618 1008.15 821.413C1004.77 823.208 1003.09 825.221 1003.09 827.397C1003.09 830.172 1005.7 832.511 1010.92 834.415C1016.14 836.319 1023.71 837.734 1033.66 838.659L1038.34 839.094C1041.98 839.42 1044.87 839.747 1046.88 840.073C1048.89 840.399 1050.36 840.78 1051.18 841.161C1051.99 841.542 1052.43 842.032 1052.43 842.63C1052.43 843.283 1051.89 843.881 1050.8 844.371C1049.71 844.86 1048.13 845.241 1046.12 845.513C1044.11 845.785 1041.66 845.894 1038.77 845.894C1034.48 845.894 1030.23 845.568 1026.1 844.969C1021.96 844.371 1018.05 843.5 1014.4 842.303L999.551 849.213C1005.05 850.899 1011.25 852.259 1018.16 853.184C1022.4 853.728 1026.7 854.163 1030.89 854.381V859.005H1047.97V854.326C1051.83 854.054 1055.42 853.674 1058.74 853.075C1064.56 852.042 1069.13 850.573 1072.45 848.723C1075.77 846.873 1077.4 844.806 1077.4 842.467C1077.4 840.508 1076.2 838.822 1073.81 837.353C1071.42 835.884 1067.77 834.633 1062.93 833.545V833.436Z" fill="#E6E8EA" stroke="#003D2E" stroke-width="1.63207" stroke-linecap="round" stroke-linejoin="round"/><path d="M1062.93 833.436C1058.09 832.348 1051.94 831.477 1044.49 830.716L1039.86 830.226C1037.03 829.9 1034.8 829.628 1033.12 829.356C1031.43 829.084 1030.23 828.757 1029.42 828.431C1028.6 828.104 1028.22 827.724 1028.22 827.288C1028.22 826.69 1028.82 826.2 1029.96 825.711C1031.1 825.276 1032.74 824.895 1034.8 824.623C1036.87 824.351 1039.16 824.242 1041.66 824.242C1045.3 824.242 1048.89 824.514 1052.38 825.004C1055.86 825.548 1059.34 826.309 1062.93 827.397L1077.35 820.434C1072.12 818.856 1066.47 817.659 1060.37 816.843C1056.29 816.299 1052.16 815.918 1047.97 815.755V811.185H1030.89V816.027C1027.73 816.299 1024.79 816.68 1021.96 817.17C1016.09 818.203 1011.52 819.618 1008.15 821.413C1004.77 823.208 1003.09 825.221 1003.09 827.397C1003.09 830.172 1005.7 832.511 1010.92 834.415C1016.14 836.319 1023.71 837.734 1033.66 838.659L1038.34 839.094C1041.98 839.42 1044.87 839.747 1046.88 840.073C1048.89 840.399 1050.36 840.78 1051.18 841.161C1051.99 841.542 1052.43 842.032 1052.43 842.63C1052.43 843.283 1051.89 843.881 1050.8 844.371C1049.71 844.86 1048.13 845.241 1046.12 845.513C1044.11 845.785 1041.66 845.894 1038.77 845.894C1034.48 845.894 1030.23 845.568 1026.1 844.969C1021.96 844.371 1018.05 843.5 1014.4 842.303L999.551 849.213C1005.05 850.899 1011.25 852.259 1018.16 853.184C1022.4 853.728 1026.7 854.163 1030.89 854.381V859.005H1047.97V854.326C1051.83 854.054 1055.42 853.674 1058.74 853.075C1064.56 852.042 1069.13 850.573 1072.45 848.723C1075.77 846.873 1077.4 844.806 1077.4 842.467C1077.4 840.508 1076.2 838.822 1073.81 837.353C1071.42 835.884 1067.77 834.633 1062.93 833.545V833.436Z" fill="#E6E8EA" stroke="#003D2E" stroke-width="1.63207" stroke-linecap="round" stroke-linejoin="round"/><g style="mix-blend-mode:multiply"><path d="M1006.41 879.352C1073.62 879.352 1128.1 857.431 1128.1 830.389C1128.1 803.348 1073.62 781.427 1006.41 781.427C939.193 781.427 884.707 803.348 884.707 830.389C884.707 857.431 939.193 879.352 1006.41 879.352Z" fill="#003D2E"/></g><path d="M1128.1 829.845C1128.1 854.707 1073.65 874.836 1006.41 874.836C939.164 874.836 884.707 854.707 884.707 829.845V791.764H1128.1V829.845Z" fill="#03FC9E"/><path d="M1043.83 872.66C1057.65 871.028 1070.44 868.471 1081.59 865.207V804.983H1043.83V872.66Z" fill="#A9FEDE"/><path d="M1086.21 863.847C1092.2 861.943 1097.64 859.821 1102.48 857.482V798.238H1086.21V863.793V863.847Z" fill="#A9FEDE"/><path d="M1128.1 829.845C1128.1 854.707 1073.65 874.836 1006.41 874.836C939.164 874.836 884.707 854.707 884.707 829.845V791.764H1128.1V829.845Z" stroke="#003D2E" stroke-width="1.63207" stroke-linecap="round" stroke-linejoin="round"/><path d="M1006.41 837.353C1073.62 837.353 1128.1 817.21 1128.1 792.362C1128.1 767.514 1073.62 747.371 1006.41 747.371C939.193 747.371 884.707 767.514 884.707 792.362C884.707 817.21 939.193 837.353 1006.41 837.353Z" fill="#E6E8EA" stroke="#003D2E" stroke-width="1.63207" stroke-linecap="round" stroke-linejoin="round"/><path d="M1006.41 822.066C1064.12 822.066 1110.91 807.038 1110.91 788.5C1110.91 769.961 1064.12 754.933 1006.41 754.933C948.688 754.933 901.898 769.961 901.898 788.5C901.898 807.038 948.688 822.066 1006.41 822.066Z" fill="#A9FEDE" stroke="#003D2E" stroke-width="1.63207" stroke-miterlimit="10"/><g style="mix-blend-mode:multiply" opacity="0.6"><path d="M957.77 911.34C958.477 911.558 959.239 911.83 960 912.048C960.979 912.374 962.013 912.646 963.047 912.972C963.536 913.136 964.026 913.244 964.516 913.408C964.896 913.516 965.277 913.625 965.658 913.734C966.42 913.952 967.236 914.169 967.997 914.387C968.541 914.55 969.031 914.659 969.575 914.768C983.339 859.168 982.36 802.209 982.36 802.209L916.805 876.523V877.665C916.805 883.649 919.96 889.416 925.781 894.639C925.781 894.639 925.835 894.693 925.89 894.748C927.141 895.836 928.447 896.924 929.916 898.012C930.024 898.121 930.133 898.175 930.296 898.284C931.276 898.991 932.255 899.644 933.289 900.297C933.506 900.46 933.778 900.623 933.996 900.732C936.281 902.146 938.783 903.506 941.449 904.812C941.775 904.975 942.047 905.084 942.374 905.247C946.4 907.151 950.861 908.947 955.648 910.633C956.355 910.905 957.062 911.123 957.824 911.34H957.77Z" fill="#C18C2F"/></g><path d="M799.132 911.993C835.908 945.777 901.953 933.7 946.672 885.01C991.391 836.319 997.865 769.459 961.089 735.675L939.763 716.09L777.807 892.354L799.132 911.939V911.993Z" fill="#03FC9E"/><path d="M981.327 822.556L952.058 795.681L938.24 810.75L974.037 843.609C977.138 836.646 979.586 829.573 981.327 822.556Z" fill="#A9FEDE"/><path d="M799.132 911.993C835.908 945.777 901.953 933.7 946.672 885.01C991.391 836.319 997.865 769.459 961.089 735.675L939.763 716.09L777.807 892.354L799.132 911.939V911.993Z" stroke="#003D2E" stroke-width="1.63207" stroke-linecap="round" stroke-linejoin="round"/><path d="M922.708 862.947C967.433 814.275 974.725 748.203 938.995 715.371C903.265 682.539 838.044 695.38 793.319 744.052C748.595 792.724 741.303 858.796 777.032 891.628C812.762 924.46 877.983 911.619 922.708 862.947Z" fill="#E6E8EA" stroke="#003D2E" stroke-width="1.63207" stroke-linecap="round" stroke-linejoin="round"/><path d="M907.151 848.615C944.394 808.084 951.666 754.166 923.392 728.185C895.118 702.204 842.005 713.998 804.762 754.529C767.518 795.059 760.247 848.978 788.521 874.959C816.795 900.94 869.907 889.145 907.151 848.615Z" fill="#A9FEDE" stroke="#003D2E" stroke-width="1.63207" stroke-miterlimit="10"/><path d="M1465.89 916.345C1465.89 941.207 1411.43 961.336 1344.19 961.336C1276.95 961.336 1222.49 941.207 1222.49 916.345V878.263H1465.89V916.345Z" fill="#03FC9E"/><path d="M1381.62 959.214C1395.44 957.582 1408.22 955.025 1419.37 951.761V891.538H1381.62V959.214Z" fill="#A9FEDE"/><path d="M1423.94 950.347C1429.93 948.443 1435.37 946.321 1440.21 943.982V884.737H1423.94V950.292V950.347Z" fill="#A9FEDE"/><path d="M1465.89 916.345C1465.89 941.207 1411.43 961.336 1344.19 961.336C1276.95 961.336 1222.49 941.207 1222.49 916.345V878.263H1465.89V916.345Z" stroke="#003D2E" stroke-width="1.63207" stroke-linecap="round" stroke-linejoin="round"/><path d="M1344.19 923.853C1411.4 923.853 1465.89 903.71 1465.89 878.862C1465.89 854.014 1411.4 833.871 1344.19 833.871C1276.98 833.871 1222.49 854.014 1222.49 878.862C1222.49 903.71 1276.98 923.853 1344.19 923.853Z" fill="#E6E8EA" stroke="#003D2E" stroke-width="1.63207" stroke-linecap="round" stroke-linejoin="round"/><path d="M1344.19 908.566C1401.91 908.566 1448.7 893.538 1448.7 874.999C1448.7 856.461 1401.91 841.433 1344.19 841.433C1286.47 841.433 1239.68 856.461 1239.68 874.999C1239.68 893.538 1286.47 908.566 1344.19 908.566Z" fill="#A9FEDE" stroke="#003D2E" stroke-width="1.63207" stroke-miterlimit="10"/><path d="M1703.19 389.892H1664.41C1676.62 389.892 1686.7 379.947 1686.7 367.609C1686.7 355.272 1676.75 345.327 1664.41 345.327H1553C1540.79 345.327 1530.72 355.272 1530.72 367.609H1496.48C1484.26 367.609 1474.19 377.555 1474.19 389.892C1474.19 402.229 1484.14 412.174 1496.48 412.174H1569.49C1569.49 424.386 1579.44 434.457 1591.77 434.457H1703.19C1715.4 434.457 1725.47 424.512 1725.47 412.174C1725.47 399.837 1715.52 389.892 1703.19 389.892Z" fill="#03FC9D"/><path d="M1420.27 481.411L1614.01 481.411C1635.36 481.411 1652.66 464.107 1652.66 442.763C1652.66 421.418 1635.36 404.114 1614.01 404.114H1420.27C1398.92 404.114 1381.62 421.418 1381.62 442.763C1381.62 464.107 1398.92 481.411 1420.27 481.411Z" fill="#E6E8EA"/><path d="M146.158 519.6H287.925C303.518 519.6 316.159 506.959 316.159 491.366V491.267C316.159 475.673 303.518 463.032 287.925 463.032H146.158C130.565 463.032 117.924 475.673 117.924 491.267V491.366C117.924 506.959 130.565 519.6 146.158 519.6Z" fill="#03FC9D"/><path d="M223.133 476.208L455.151 476.208C480.703 476.208 501.416 455.495 501.416 429.943C501.416 404.392 480.703 383.678 455.151 383.678H223.133C197.582 383.678 176.869 404.392 176.869 429.943C176.869 455.495 197.582 476.208 223.133 476.208Z" fill="#03FC9D"/><path d="M1558.12 725.956H1802.08" stroke="#03FC9D" stroke-width="3" stroke-linecap="round" stroke-linejoin="round"/><path d="M1529.31 758.655H1665.74" stroke="#003B2F" stroke-width="3" stroke-linecap="round" stroke-linejoin="round"/><path d="M1281.61 229.109L1300.59 248.089L1319.57 229.109L1300.59 210.129L1281.61 229.109Z" stroke="#003B2F" stroke-width="3" stroke-miterlimit="10" stroke-linecap="round" stroke-linejoin="round"/><path d="M674.123 383.678L699.688 398.447" stroke="#003B2F" stroke-width="3" stroke-linecap="round" stroke-linejoin="round"/><path d="M725.354 383.678L710.28 392.336" stroke="#003B2F" stroke-width="3" stroke-linecap="round" stroke-linejoin="round"/><path d="M699.688 398.448V428.29" stroke="#003B2F" stroke-width="3" stroke-linecap="round" stroke-linejoin="round"/><path d="M268.836 751.778H346.365" stroke="#003B2F" stroke-width="3" stroke-linecap="round" stroke-linejoin="round"/><path d="M209.885 751.778H229.382" stroke="#003B2F" stroke-width="3" stroke-linecap="round" stroke-linejoin="round"/><path d="M221.386 702.604H422.434" stroke="#03FC9D" stroke-width="3" stroke-linecap="round" stroke-linejoin="round"/><path d="M750.437 169.589H994.395" stroke="#03FC9D" stroke-width="3.16306" stroke-linecap="round" stroke-linejoin="round"/><path d="M721.633 202.288H858.065" stroke="#003B2F" stroke-width="3.16306" stroke-linecap="round" stroke-linejoin="round"/><path d="M379.372 144.22V168.308" stroke="#003B2F" stroke-width="3" stroke-linecap="round" stroke-linejoin="round"/><path d="M379.372 185.939V210.129" stroke="#003B2F" stroke-width="3" stroke-linecap="round" stroke-linejoin="round"/><path d="M346.365 177.123H370.556" stroke="#003B2F" stroke-width="3" stroke-linecap="round" stroke-linejoin="round"/><path d="M388.188 177.123H412.276" stroke="#003B2F" stroke-width="3" stroke-linecap="round" stroke-linejoin="round"/></svg>