<svg width="1920" height="1080" viewBox="0 0 1920 1080" fill="none" xmlns="http://www.w3.org/2000/svg"><path d="M251.436 615.271L230.506 594.341L209.576 615.271L230.506 636.202L251.436 615.271Z" stroke="#003B2F" stroke-width="3" stroke-linecap="round" stroke-linejoin="round"/><path d="M1362.5 388.2C1373.77 388.2 1382.9 379.067 1382.9 367.8C1382.9 356.534 1373.77 347.4 1362.5 347.4C1351.23 347.4 1342.1 356.534 1342.1 367.8C1342.1 379.067 1351.23 388.2 1362.5 388.2Z" stroke="#003B2F" stroke-width="3" stroke-linecap="round" stroke-linejoin="round"/><path d="M348.7 883.4H301.8C316.6 883.4 328.7 872.5 328.7 859C328.7 845.5 316.7 834.6 301.8 834.6H167.2C152.4 834.6 140.3 845.5 140.3 859H98.9996C84.1996 859 72.0996 869.9 72.0996 883.4C72.0996 896.9 84.0996 907.8 98.9996 907.8H187.2C187.2 921.3 199.2 932.2 214.1 932.2H348.7C363.5 932.2 375.6 921.3 375.6 907.8C375.6 894.3 363.6 883.4 348.7 883.4Z" fill="#E6E8EA"/><path d="M116.199 97.2002L140.499 111.2" stroke="#003B2F" stroke-width="3" stroke-linecap="round" stroke-linejoin="round"/><path d="M164.8 97.2002L150.5 105.4" stroke="#003B2F" stroke-width="3" stroke-linecap="round" stroke-linejoin="round"/><path d="M140.5 111.2V139.6" stroke="#003B2F" stroke-width="3" stroke-linecap="round" stroke-linejoin="round"/><path d="M266.9 866H300.5" stroke="#003B2F" stroke-width="3" stroke-linecap="round" stroke-linejoin="round"/><path d="M344.799 787H587.999" stroke="#03FC9D" stroke-width="3" stroke-linecap="round" stroke-linejoin="round"/><path d="M343.9 865.8H479.8" stroke="#003B2F" stroke-width="3" stroke-linecap="round" stroke-linejoin="round"/><path d="M116.199 178.2H292.399" stroke="#03FC9D" stroke-width="3" stroke-linecap="round" stroke-linejoin="round"/><path d="M254 216.3H390" stroke="#003B2F" stroke-width="3" stroke-linecap="round" stroke-linejoin="round"/><path d="M1609.4 140.7L1625.5 156.8" stroke="#003B2F" stroke-width="3" stroke-linecap="round" stroke-linejoin="round"/><path d="M1637.2 168.5L1653.2 184.6" stroke="#003B2F" stroke-width="3" stroke-linecap="round" stroke-linejoin="round"/><path d="M1609.4 184.6L1625.5 168.5" stroke="#003B2F" stroke-width="3" stroke-linecap="round" stroke-linejoin="round"/><path d="M1637.2 156.8L1653.2 140.7" stroke="#003B2F" stroke-width="3" stroke-linecap="round" stroke-linejoin="round"/><path d="M1378.4 471.6H1521.5C1537.24 471.6 1550 458.84 1550 443.1V443C1550 427.26 1537.24 414.5 1521.5 414.5H1378.4C1362.66 414.5 1349.9 427.26 1349.9 443V443.1C1349.9 458.84 1362.66 471.6 1378.4 471.6Z" fill="#03FC9D"/><path d="M1456.1 427.9L1690.3 427.9C1716.09 427.9 1737 406.992 1737 381.2C1737 355.408 1716.09 334.5 1690.3 334.5H1456.1C1430.31 334.5 1409.4 355.408 1409.4 381.2C1409.4 406.992 1430.31 427.9 1456.1 427.9Z" fill="#03FC9D"/><path d="M1514.4 748.4H1582" stroke="#003B2F" stroke-width="3" stroke-linecap="round" stroke-linejoin="round"/><path d="M1463 748.4H1480" stroke="#003B2F" stroke-width="3" stroke-linecap="round" stroke-linejoin="round"/><path d="M1524.2 699.6H1699.5" stroke="#03FC9D" stroke-width="3" stroke-linecap="round" stroke-linejoin="round"/><path opacity="0.19" d="M1441.4 983.9C1401.3 925 1040.6 395.9 1040 394.7C1034.4 383.7 1020.9 377.6 1001.9 376C991.4 375.2 979.1 375.7 965.7 377.7C931.2 382.7 888.6 396.6 845.2 418.6C801.7 440.6 765.3 466.7 740.9 491.5C731.4 501.2 723.7 510.7 718.1 519.7C710 532.8 706.5 544.7 708.3 554.7L853.9 989.3C853.9 1008.2 986.2 1023.6 1149.5 1023.6C1312.8 1023.6 1445.1 1008.3 1445.1 989.3C1445.1 987.5 1443.8 985.7 1441.4 983.9Z" fill="#03FC9D"/><path d="M859.599 417.5C858.199 418.2 856.899 419 855.499 419.7C854.699 420.1 853.999 420.5 853.199 420.9C730.999 485.2 379.499 634 413.599 547.2C458.699 432.4 492.899 350.6 524.599 299.8C525.799 297.9 526.999 295.9 528.199 294.1C529.799 291.6 531.399 289.3 532.999 287C564.699 241 608.499 187.4 662.499 154C662.499 154 662.599 154 662.699 153.9C663.299 153.5 663.899 153.2 664.499 152.8C669.599 149.7 674.899 146.7 680.299 143.8C698.199 134.3 731.199 119.3 761.199 110.2C769.999 107.5 778.499 105.3 786.299 103.9C904.999 82.3999 1056.1 105.7 1157.9 125.9C1160.4 126.4 1162.8 126.9 1165.2 127.4C1183.7 131.1 1199.8 135.1 1212.8 139.2C1306.2 168.7 982.899 352.1 859.599 417.7V417.5Z" stroke="#003B2F" stroke-width="3" stroke-linecap="round" stroke-linejoin="round"/><path d="M1239.4 148.9C1238.3 144.5 1236.7 140.3 1234.6 136.2C1207.3 82.2999 1104.8 74.5999 972.899 107.5C914.999 121.9 851.399 144.2 785.999 173.8C768.699 181.6 751.399 189.9 733.899 198.8C652.999 239.7 581.499 286.1 524.299 332.8C416.099 421.1 359.199 510.2 386.899 565.1C388.899 569.1 391.399 572.9 394.299 576.4C443.899 637.3 613.799 621.3 804.699 540.8C831.999 529.3 859.699 516.5 887.499 502.4C1110.3 389.7 1261.8 235.7 1239.2 148.8L1239.4 148.9Z" fill="#03FC9D"/><path d="M1178.8 218.9C1209.8 280.1 1079.9 408.1 888.8 504.8C697.7 601.5 517.7 630.3 486.7 569.1C476 548 484.5 518.8 508.1 485.8C552.8 423.2 651.6 346.5 776.7 283.2C818 262.3 858.8 244.6 897.7 230.2C1038.7 178.2 1154.6 170.9 1178.8 218.9Z" fill="#003B2F" stroke="#003B2F" stroke-width="3" stroke-linecap="round" stroke-linejoin="round"/><path d="M482.898 549.3L699.198 533.3" stroke="#03FC9D" stroke-width="3" stroke-linecap="round" stroke-linejoin="round"/><path d="M632.799 372.6L771.399 457.4" stroke="#03FC9D" stroke-width="3" stroke-linecap="round" stroke-linejoin="round"/><path d="M1165.4 204.6L1026 367.9" stroke="#03FC9D" stroke-width="3" stroke-linecap="round" stroke-linejoin="round"/><path d="M935.199 219.6L925.799 381.1" stroke="#03FC9D" stroke-width="3" stroke-linecap="round" stroke-linejoin="round"/><path d="M889.6 506.9C950.9 475.9 1003.1 442.4 1048.4 408C1037.4 392.8 1033.3 382.6 1033.2 382.5C1028.8 373.8 1016.4 369.9 998.4 370.2C988.4 370.4 976.7 371.9 963.7 374.6C930.3 381.6 888.4 396.8 845 418.8C801.6 440.8 764.5 465.5 739.1 488.2C729.2 497.1 721 505.6 714.9 513.6C706.1 525.1 701.7 535.4 702.6 543.5L715.7 576.4C811 553.2 828 538 889.5 506.9H889.6Z" fill="#426159"/><path d="M1033.2 381.2C1046 406.5 982.7 464.4 891.7 510.4C800.7 556.4 716.6 573.2 703.8 547.9C699.5 539.4 703.8 527.2 714.8 513.1C720.9 505.2 729.1 496.7 739.1 487.9C764.7 465.3 801.8 440.6 845.3 418.6C888.8 396.6 930.7 381.3 964 374.1C977 371.3 988.7 369.7 998.7 369.4C1016.6 368.9 1029 372.7 1033.3 381.2H1033.2Z" fill="#426159"/><path d="M998.599 369.4C977.599 399 929.799 435.8 869.399 466.4C808.999 497 750.999 513.6 714.699 513.1C720.799 505.2 728.999 496.7 738.999 487.9C764.599 465.3 801.699 440.6 845.199 418.6C888.699 396.6 930.599 381.3 963.899 374.1C976.899 371.3 988.599 369.7 998.599 369.4Z" fill="#03FC9D"/><path d="M963.9 374.1C938.8 397.5 901.9 422.8 858.4 444.8C814.9 466.8 772.7 481.6 739 487.9C764.6 465.3 801.7 440.6 845.2 418.6C888.7 396.6 930.6 381.3 963.9 374.1Z" fill="#E6E8EA"/><path d="M631.684 346.533C647.739 335.279 656.231 319.703 650.651 311.744C645.072 303.784 627.534 306.455 611.479 317.709C595.425 328.963 586.933 344.539 592.513 352.498C598.092 360.457 615.63 357.787 631.684 346.533Z" fill="white"/><path d="M467.834 520.777C477.38 506.167 478.522 490.013 470.385 484.696C462.248 479.379 447.913 486.913 438.367 501.523C428.821 516.133 427.679 532.287 435.816 537.604C443.953 542.92 458.288 535.387 467.834 520.777Z" fill="white"/><path d="M913.291 204.065C932.286 197.654 945.165 184.991 942.057 175.781C938.948 166.571 921.03 164.302 902.034 170.714C883.039 177.125 870.16 189.788 873.269 198.998C876.377 208.207 894.296 210.476 913.291 204.065Z" fill="white"/><path d="M1182.24 159.807C1182.78 150.101 1169.09 141.453 1151.66 140.491C1134.23 139.529 1119.67 146.617 1119.14 156.323C1118.6 166.028 1132.29 174.676 1149.72 175.638C1167.15 176.6 1181.71 169.512 1182.24 159.807Z" fill="white"/><path d="M566 254.1C624.1 204 717.5 141.1 849.6 103.3" stroke="#003B2F" stroke-width="3" stroke-linecap="round" stroke-linejoin="round"/><path d="M774.498 163C778.696 163 782.098 159.597 782.098 155.4C782.098 151.202 778.696 147.8 774.498 147.8C770.301 147.8 766.898 151.202 766.898 155.4C766.898 159.597 770.301 163 774.498 163Z" fill="#003B2F"/><path d="M566.998 283.1C571.196 283.1 574.598 279.697 574.598 275.5C574.598 271.303 571.196 267.9 566.998 267.9C562.801 267.9 559.398 271.303 559.398 275.5C559.398 279.697 562.801 283.1 566.998 283.1Z" fill="#03FC9D"/><path d="M619.899 247.1C624.096 247.1 627.499 243.697 627.499 239.5C627.499 235.303 624.096 231.9 619.899 231.9C615.701 231.9 612.299 235.303 612.299 239.5C612.299 243.697 615.701 247.1 619.899 247.1Z" fill="#03FC9D"/><path d="M774.799 163.8C778.997 163.8 782.399 160.397 782.399 156.2C782.399 152.002 778.997 148.6 774.799 148.6C770.602 148.6 767.199 152.002 767.199 156.2C767.199 160.397 770.602 163.8 774.799 163.8Z" fill="#03FC9D"/><path d="M827.998 142.5C832.196 142.5 835.598 139.097 835.598 134.9C835.598 130.702 832.196 127.3 827.998 127.3C823.801 127.3 820.398 130.702 820.398 134.9C820.398 139.097 823.801 142.5 827.998 142.5Z" fill="#03FC9D"/><path d="M883.399 126C887.596 126 890.999 122.597 890.999 118.4C890.999 114.202 887.596 110.8 883.399 110.8C879.201 110.8 875.799 114.202 875.799 118.4C875.799 122.597 879.201 126 883.399 126Z" fill="#03FC9D"/><path d="M1062.5 999.5C1104.8 999.5 1139.1 993.366 1139.1 985.8C1139.1 978.234 1104.8 972.1 1062.5 972.1C1020.19 972.1 985.898 978.234 985.898 985.8C985.898 993.366 1020.19 999.5 1062.5 999.5Z" fill="#E6E8EA"/><mask id="mask0_16_7956" style="mask-type:luminance" maskUnits="userSpaceOnUse" x="883" y="613" width="273" height="273"><path d="M1155.3 613.5H883V885.8H1155.3V613.5Z" fill="white"/></mask><g mask="url(#mask0_16_7956)"><path d="M1019.1 885.8C1094.3 885.8 1155.2 824.9 1155.2 749.7C1155.2 674.5 1094.3 613.6 1019.1 613.6C943.9 613.6 883 674.5 883 749.7C883 824.9 943.9 885.8 1019.1 885.8Z" fill="#03FC9D"/><path fill-rule="evenodd" clip-rule="evenodd" d="M985.701 685.7C993.901 677.6 1007.1 677.6 1015.4 685.7L1037.7 707.5L1041.4 703.9C1049.6 695.8 1062.8 695.8 1071.1 703.9L1093.1 725.4C1095.1 727.4 1096.7 729.7 1097.8 732.3C1098.9 734.9 1099.5 737.7 1099.5 740.5C1099.5 743.3 1098.9 746.1 1097.8 748.7C1096.7 751.3 1095.1 753.7 1093.1 755.6L1034 813.5C1025.7 821.6 1012.6 821.6 1004.3 813.5L945.201 755.6C943.201 753.6 941.601 751.3 940.501 748.7C939.401 746.1 938.801 743.3 938.801 740.5C938.801 737.7 939.401 734.9 940.501 732.3C941.601 729.7 943.201 727.3 945.201 725.4L985.701 685.7ZM1022.5 722.4L1000.5 700.9L960.001 740.6L982.001 762.1L1022.5 722.4ZM997.101 777L1019.1 798.5L1041.1 777L1019.1 755.5L997.101 777ZM1034.2 740.6L1056.2 762.1L1078.2 740.6L1056.2 719.1L1034.2 740.6Z" fill="#003B2F"/></g><path d="M726.1 668L750.3 682" stroke="#003B2F" stroke-width="3" stroke-linecap="round" stroke-linejoin="round"/><path d="M774.499 668L760.199 676.2" stroke="#003B2F" stroke-width="3" stroke-linecap="round" stroke-linejoin="round"/><path d="M750.299 682V710.2" stroke="#003B2F" stroke-width="3" stroke-linecap="round" stroke-linejoin="round"/><path d="M1207.8 827.5L1223.8 843.5" stroke="#003B2F" stroke-width="3" stroke-linecap="round" stroke-linejoin="round"/><path d="M1235.5 855.2L1251.4 871.2" stroke="#003B2F" stroke-width="3" stroke-linecap="round" stroke-linejoin="round"/><path d="M1207.8 871.2L1223.8 855.2" stroke="#003B2F" stroke-width="3" stroke-linecap="round" stroke-linejoin="round"/><path d="M1235.5 843.5L1251.4 827.5" stroke="#003B2F" stroke-width="3" stroke-linecap="round" stroke-linejoin="round"/></svg>