<svg width="900" height="451" viewBox="0 0 900 451" fill="none" xmlns="http://www.w3.org/2000/svg"><rect width="900" height="450" transform="translate(0 0.522949)" fill="#F2F2F2"/><path d="M383.563 355.815C383.563 355.815 379.829 317.51 388.64 306.014C397.45 294.518 408.065 287.638 415.239 273.163C422.372 258.647 428.329 224.202 428.329 224.202C428.329 224.202 429.756 218.412 426.609 216.944C423.421 215.517 417.715 221.475 415.869 227.768C414.023 234.061 411.715 250.885 409.282 251.934C406.848 252.983 405.632 251.934 405.128 245.263C404.625 238.592 404.163 211.364 407.268 193.155C410.373 174.989 410.498 162.276 409.366 158.332C408.191 154.347 404.709 154.556 404.709 154.556C404.709 154.556 399.968 154.095 398.415 161.982C396.863 169.912 390.696 206.623 390.696 206.623C390.696 206.623 392.835 164.08 392.416 155.186C392.038 146.291 387.004 141.634 383.312 142.809C379.619 143.984 379.074 147.844 379.074 147.844C379.074 147.844 372.487 149.186 370.767 153.633C369.047 158.081 365.355 180.904 365.355 180.904C365.355 180.904 356.712 195.337 354.866 204.231C353.02 213.126 352.852 256.927 351.3 271.611C349.747 286.295 336.993 338.278 336.993 338.278C336.993 338.278 339.007 357.325 363.593 361.94C388.136 366.597 383.605 355.773 383.605 355.773L383.563 355.815Z" fill="white" stroke="#003B2F" stroke-width="1.46843" stroke-linecap="round" stroke-linejoin="round"/><path d="M365.732 228.607C365.732 228.607 364.767 208.762 368.669 198.651C370.64 193.575 370.976 187.239 370.095 183.296C369.843 182.163 369.466 181.24 369.046 180.652C368.71 180.191 368.291 179.939 367.871 179.981C367.326 180.023 366.655 180.485 365.899 181.366" stroke="#003B2F" stroke-width="1.46843" stroke-linecap="round" stroke-linejoin="round"/><path d="M374.879 216.901C374.879 216.901 375.55 199.364 378.151 184.135C379.452 176.667 380.081 169.996 380.123 164.038C380.123 157.955 379.578 152.626 378.403 148.011" stroke="#003B2F" stroke-width="1.46843" stroke-linecap="round" stroke-linejoin="round"/><path d="M395.731 257.808C382.347 268.171 387.256 289.148 387.298 289.19" stroke="#003B2F" stroke-width="1.46843" stroke-linecap="round" stroke-linejoin="round"/><path d="M372.278 283.274C380.459 264.017 370.39 242.536 370.348 242.452" stroke="#003B2F" stroke-width="1.46843" stroke-linecap="round" stroke-linejoin="round"/><path d="M367.915 390.092L252.245 304.378C252.245 304.378 242.008 295.105 235.211 288.728C228.456 282.351 195.438 248.493 195.438 248.493C195.438 248.493 185.075 237.963 188.557 230.243C192.039 222.523 200.347 221.936 208.444 228.019C216.583 234.103 252.79 265.821 252.79 265.821C252.79 265.821 265.251 232.089 259.251 203.308C253.252 174.485 236.931 144.235 237.141 129.383C237.351 114.489 242.931 107.524 249.14 105.595C249.14 105.595 250.315 98.1266 256.608 97.1616C262.901 96.1966 263.405 101.231 263.489 103.287C263.531 105.343 264.999 115.58 264.999 115.58C264.999 115.58 268.188 109.203 273.055 109.79C277.921 110.377 287.403 139.159 287.403 139.159C287.403 139.159 290.802 139.62 293.99 144.948C297.179 150.277 305.15 165.674 312.199 175.618C319.247 185.561 328.393 208.426 332.715 227.264C337.078 246.102 341.483 285.204 347.357 295.063C353.231 304.923 393.13 333.494 393.13 333.494C400.472 347.381 395.395 394.539 367.873 390.134L367.915 390.092Z" fill="white"/><path d="M367.915 390.092L252.245 304.378C252.245 304.378 242.008 295.105 235.211 288.728C228.456 282.351 195.438 248.493 195.438 248.493C195.438 248.493 185.075 237.963 188.557 230.243C192.039 222.523 200.347 221.936 208.444 228.019C216.583 234.103 252.79 265.821 252.79 265.821C252.79 265.821 265.251 232.089 259.251 203.308C253.252 174.485 236.931 144.235 237.141 129.383C237.351 114.489 242.931 107.524 249.14 105.595C249.14 105.595 250.315 98.1266 256.608 97.1616C262.901 96.1966 263.405 101.231 263.489 103.287C263.531 105.343 264.999 115.58 264.999 115.58C264.999 115.58 268.188 109.203 273.055 109.79C277.921 110.377 287.403 139.159 287.403 139.159C287.403 139.159 290.802 139.62 293.99 144.948C297.179 150.277 305.15 165.674 312.199 175.618C319.247 185.561 328.393 208.426 332.715 227.264C337.078 246.102 341.483 285.204 347.357 295.063C353.231 304.923 393.13 333.494 393.13 333.494" stroke="#003B2F" stroke-width="1.25865" stroke-linecap="round" stroke-linejoin="round"/><path d="M246.789 283.358L252.873 265.359" stroke="#003B2F" stroke-width="1.46843" stroke-linecap="round" stroke-linejoin="round"/><path d="M301.163 279.834C301.163 279.834 294.157 313.146 310.519 335.928" stroke="#003B2F" stroke-width="1.46843" stroke-linecap="round" stroke-linejoin="round"/><path d="M307.246 226.048C307.246 226.048 303.722 202.721 296.548 189.673C292.604 182.498 288.408 173.897 285.304 166.22C282.702 159.717 280.898 153.885 280.647 150.025C280.479 147.508 280.647 145.452 281.108 143.858C281.528 142.263 282.199 141.047 282.996 140.25C283.835 139.41 284.884 138.949 285.975 138.907C286.52 138.907 287.066 138.907 287.611 139.075" stroke="#003B2F" stroke-width="1.25865" stroke-linecap="round" stroke-linejoin="round"/><path d="M294.072 221.181C294.072 221.181 290.38 199.28 280.856 179.352C275.654 168.527 270.619 154.85 267.557 142.347C264.956 131.649 263.781 121.831 265.207 115.328" stroke="#003B2F" stroke-width="1.25865" stroke-linecap="round" stroke-linejoin="round"/><path d="M278.969 217.531C278.969 217.531 277.584 197.56 269.739 184.05C265.585 176.876 261.18 167.436 257.53 157.619C254.216 148.682 251.488 139.368 250.104 131.145C247.167 113.818 249.349 105.385 249.349 105.343" stroke="#003B2F" stroke-width="1.25865" stroke-linecap="round" stroke-linejoin="round"/><path d="M429.421 180.862C429.421 180.862 442.763 235.781 431.351 252.185C397.494 300.937 429.17 335.802 459.881 323.047C459.881 323.047 455.727 333.201 467.307 343.228C478.886 353.297 504.017 344.57 516.604 321.579C529.148 298.588 548.28 253.36 548.28 253.36L429.421 180.862Z" fill="#003B2F"/><path d="M481.402 258.185C481.402 258.185 491.639 291.414 490.506 304C489.332 316.587 476.997 358.709 476.997 358.709C476.997 358.709 474.27 371.674 487.234 365.296C500.198 358.919 604.582 255.122 604.582 255.122L573.284 189.421L481.486 258.227L481.402 258.185Z" fill="white"/><path d="M604.54 255.081L573.242 189.379L481.444 258.185C481.444 258.185 491.681 291.414 490.549 304C489.374 316.587 477.039 358.709 477.039 358.709" stroke="#003B2F" stroke-width="1.46843" stroke-linecap="round" stroke-linejoin="round"/><path d="M420.693 184.134C420.693 184.134 428.245 225.88 439.07 252.563C449.894 279.246 470.578 278.659 492.436 274.212C514.295 269.765 583.101 227.222 583.101 227.222L574.417 165.548L550.083 137.732L509.89 111.426L420.777 184.092L420.693 184.134Z" fill="white" stroke="#003B2F" stroke-width="1.46843" stroke-linecap="round" stroke-linejoin="round"/><path d="M440.832 232.886C440.832 232.886 443.433 230.285 447.839 231.753C449.727 232.383 451.195 232.634 452.496 232.383C453.796 232.131 454.971 231.418 456.397 230.117C458.831 227.893 463.026 227.516 469.194 226.97C471.291 226.803 473.641 226.593 476.2 226.299C486.102 225.124 491.22 223.236 491.22 223.236" stroke="#003B2F" stroke-width="1.25865" stroke-linecap="round" stroke-linejoin="round"/><path d="M440.623 229.236C440.623 229.236 442.301 211.615 486.06 220.677" stroke="#003B2F" stroke-width="1.25865" stroke-linecap="round" stroke-linejoin="round"/><path d="M488.66 227.18C488.66 227.18 480.017 239.557 467.85 242.242C455.641 244.927 447.502 238.676 447.502 238.634" stroke="#003B2F" stroke-width="1.25865" stroke-linecap="round" stroke-linejoin="round"/><path d="M415.995 146.207L506.828 134.208L538 172.974L553.775 203.895L549.286 218.202C549.286 218.202 533.217 228.187 537.581 248.074C541.944 267.961 569.299 279.96 588.43 274.548C588.43 274.548 586.123 312.433 635.42 305.091C684.717 297.749 674.27 256.381 674.27 256.381C694.451 233.348 675.403 203.476 651.74 186.652C618.218 162.779 610.708 184.176 590.067 130.432C580.795 106.266 553.817 72.7438 506.66 74.6737C459.502 76.6037 422.288 102.993 416.876 133.746L415.995 146.207Z" fill="#003B2F"/><path d="M330.196 131.817L215.827 150.78C210.876 126.279 205.883 101.777 200.891 77.2751C239.196 70.5623 277.459 63.8075 315.722 57.0947C320.798 81.9741 325.833 106.811 330.867 131.691L330.154 131.817H330.196Z" stroke="#003B2F" stroke-width="1.25865" stroke-linecap="round" stroke-linejoin="round"/><path d="M212.89 90.7425L247.251 84.7009" stroke="#003B2F" stroke-width="1.25865" stroke-linecap="round" stroke-linejoin="round"/><path d="M214.401 98.1265L306.744 81.8899" stroke="#003B2F" stroke-width="1.25865" stroke-linecap="round" stroke-linejoin="round"/><path d="M215.868 105.469L308.211 89.2322" stroke="#003B2F" stroke-width="1.25865" stroke-linecap="round" stroke-linejoin="round"/><path d="M217.38 112.811L309.723 96.5742" stroke="#003B2F" stroke-width="1.25865" stroke-linecap="round" stroke-linejoin="round"/><path d="M218.89 120.153L311.233 103.917" stroke="#003B2F" stroke-width="1.25865" stroke-linecap="round" stroke-linejoin="round"/><path d="M220.358 127.495L312.701 111.259" stroke="#003B2F" stroke-width="1.25865" stroke-linecap="round" stroke-linejoin="round"/><path d="M281.234 124.432L314.211 118.643" stroke="#003B2F" stroke-width="1.25865" stroke-linecap="round" stroke-linejoin="round"/><path d="M533.176 174.778L557.132 194.077L569.383 175.366L537.036 148.095L533.176 174.778Z" fill="white" stroke="#003B2F" stroke-width="1.46843" stroke-linecap="round" stroke-linejoin="round"/><path d="M511.734 187.071L521.888 188.246C521.888 188.246 524.321 188.036 527.509 186.106C530.698 184.176 537.453 179.142 537.956 174.988L538.837 147.172C538.837 147.172 537.579 141.298 534.977 139.452C532.376 137.606 520.671 135.089 520.671 135.089L511.776 187.071H511.734Z" fill="white" stroke="#003B2F" stroke-width="1.46843" stroke-linecap="round" stroke-linejoin="round"/><path d="M389.729 203.182L410.917 209.349C410.917 209.349 417.126 210.398 419.601 209.433C422.119 208.468 431.475 205.28 431.475 205.28C431.475 205.28 425.559 199.574 431.391 196.469C437.223 193.365 446.956 193.7 453.921 195.756C460.885 197.812 478.716 198.735 488.953 196.805C499.19 194.875 517.483 189.253 517.483 189.253C517.483 189.253 526.713 184.093 527.3 178.471L527.426 140.543C527.426 140.543 527.636 136.096 524.447 132.698C521.259 129.299 492.352 110.755 492.352 110.755L389.771 203.098L389.729 203.182Z" fill="#E6E8EA" stroke="#003B2F" stroke-width="1.46843" stroke-linecap="round" stroke-linejoin="round"/><path d="M379.408 202.888C379.408 202.888 393.799 207.671 399.295 206.916L477.877 188.833C477.877 188.833 498.309 182.792 501.204 173.142C504.099 163.493 502.882 138.781 502.882 138.781C502.882 138.781 502.504 131.229 498.435 130.18C494.365 129.131 400.47 155.102 400.47 155.102L379.408 202.888Z" fill="#E6E8EA" stroke="#003B2F" stroke-width="1.46843" stroke-linecap="round" stroke-linejoin="round"/><path d="M366.278 188.917C366.278 188.917 370.138 206.622 387.046 202.553L480.06 180.484C480.06 180.484 484.214 178.345 484.214 171.59C484.214 164.835 484.927 148.808 488.619 141.382C492.311 133.956 502.548 131.229 502.548 131.229C502.548 131.229 503.597 130.558 503.723 127.957C503.807 125.355 500.786 117.971 496.171 113.356C491.556 108.741 476.662 109.622 476.662 109.622L372.278 135.928C372.278 135.928 365.187 138.445 365.02 148.598L366.32 188.959L366.278 188.917Z" fill="#03FC9D" stroke="#003B2F" stroke-width="1.25865" stroke-linecap="round" stroke-linejoin="round"/><path d="M366.278 188.917C366.278 188.917 370.138 206.622 387.046 202.553L471.292 182.54C475.949 178.261 476.284 173.352 476.284 173.352L479.137 124.894L477.291 117.636C475.571 111.846 468.732 112.643 468.732 112.643L460.006 113.734L372.194 135.844C372.194 135.844 365.103 138.362 364.936 148.515L366.236 188.875L366.278 188.917Z" fill="#E6E8EA" stroke="#003B2F" stroke-width="1.46843" stroke-linecap="round" stroke-linejoin="round"/><path d="M436.721 203.392L445.028 207.629" stroke="#003B2F" stroke-width="1.46843" stroke-linecap="round" stroke-linejoin="round"/><path d="M451.068 201.756C451.824 201.756 458.662 205.993 458.704 206.035" stroke="#003B2F" stroke-width="1.46843" stroke-linecap="round" stroke-linejoin="round"/><path d="M547.565 218.664C553.733 223.488 571.144 212.748 576.179 199.7C581.213 186.652 581.045 179.268 571.396 175.786C561.746 172.303 549.369 190.344 547.271 203.098" fill="white"/><path d="M547.565 218.664C553.733 223.488 571.144 212.748 576.179 199.7C581.213 186.652 581.045 179.268 571.396 175.786C561.746 172.303 549.369 190.344 547.271 203.098" stroke="#003B2F" stroke-width="1.46843" stroke-linecap="round" stroke-linejoin="round"/><path d="M549.369 201.462C549.369 201.462 554.823 206.413 557.55 199.49C558.138 198.022 558.641 196.595 559.145 195.211C561.494 188.666 563.466 183.002 568.878 183.883C570.64 184.176 571.857 185.141 572.612 186.4C573.242 187.449 573.535 188.75 573.577 190.008C573.619 191.267 573.409 192.567 572.99 193.658C572.402 195.169 571.396 196.343 570.095 196.721C566.067 197.896 562.123 194.455 562.123 194.455" stroke="#003B2F" stroke-width="1.46843" stroke-linecap="round" stroke-linejoin="round"/><path d="M546.979 210.566C546.979 210.566 549.706 206.538 555.244 208.972C555.537 209.097 555.831 209.181 556.125 209.223C558.139 209.559 560.572 208.258 562.67 206.496C564.809 204.692 566.613 202.427 567.285 200.874C567.411 200.581 567.495 200.287 567.536 200.077" stroke="#003B2F" stroke-width="1.46843" stroke-linecap="round" stroke-linejoin="round"/><path d="M560.739 196.427C560.739 196.427 565.438 197.602 566.739 201.714" stroke="#003B2F" stroke-width="1.46843" stroke-linecap="round" stroke-linejoin="round"/><path d="M382.472 169.157L384.444 159.969L387.087 159.465L389.142 170.583L387.422 170.919L385.702 161.521L383.52 171.716L382.262 171.926L376.682 163.241L378.402 172.597L376.724 172.891L374.668 161.773L377.437 161.269L382.514 169.157H382.472Z" fill="#003B2F"/><path d="M398.288 167.059C398.078 167.898 397.197 169.325 395.435 169.66C393.044 170.122 391.072 168.569 390.568 166.052L389.52 160.43L391.324 160.095L392.289 165.381C392.624 167.227 393.883 168.234 395.519 167.94C397.155 167.646 398.078 166.178 397.743 164.374L396.778 159.088L398.54 158.752L400.344 168.527L398.582 168.863L398.246 167.059H398.288Z" fill="#003B2F"/><path d="M413.392 166.136L411.084 166.555C408.819 166.975 407.518 166.094 407.099 163.912L406.218 159.045L404.078 159.423L403.784 157.787L405.924 157.409L405.462 154.934L407.224 154.598L407.686 157.073L411.588 156.36L411.882 157.997L407.98 158.71L408.819 163.199C409.071 164.625 409.658 165.129 411.168 164.835L413.056 164.5L413.35 166.178L413.392 166.136Z" fill="#003B2F"/><path d="M423.714 164.458L422.287 164.709L415.91 155.605L417.924 155.228L422.623 162.15L424.553 154.011L426.399 153.675L423.756 164.458H423.714Z" fill="#003B2F"/><path d="M437.138 156.948L429.124 158.416C429.544 160.22 431.096 161.395 432.984 161.059C434.872 160.724 435.501 159.507 435.585 159.171L437.347 158.836C437.347 159.717 436.508 162.108 433.278 162.696C430.299 163.241 427.782 161.353 427.236 158.5C426.691 155.647 428.369 153.004 431.18 152.458C433.991 151.913 436.508 153.675 437.096 156.906L437.138 156.948ZM428.956 156.906L434.914 155.815C434.201 154.43 433.026 153.801 431.558 154.053C430.005 154.346 429.082 155.395 428.998 156.906H428.956Z" fill="#003B2F"/><path d="M441.503 160.975L439.741 161.311L437.937 151.536L439.699 151.2L440.034 153.004C440.16 152.249 440.789 150.906 443.055 150.529L444.104 150.319L444.44 152.123L443.349 152.333C440.873 152.794 440.16 153.717 440.496 155.479L441.503 161.017V160.975Z" fill="#003B2F"/><path d="M449.013 155.186C447.125 155.312 445.657 154.64 445.321 152.878C444.986 151.116 446.412 149.732 448.761 149.312C452.034 148.725 453.377 150.235 453.88 151.158L451.992 151.494C451.74 151.284 450.859 150.529 449.055 150.864C447.587 151.116 446.957 151.787 447.083 152.501C447.209 153.214 447.797 153.55 448.971 153.466C449.768 153.466 450.23 153.382 451.069 153.34C453.418 153.214 454.551 154.011 454.887 155.815C455.181 157.451 453.964 159.046 451.195 159.549C447.797 160.178 446.202 158.29 445.825 157.409L447.713 157.074C447.88 157.367 448.845 158.332 450.901 157.955C452.537 157.661 453.251 156.906 453.083 156.151C452.915 155.396 452.454 155.018 451.111 155.102L449.013 155.228V155.186Z" fill="#003B2F"/><path d="M412.051 151.452L413.897 151.116L414.4 153.927L412.554 154.263L412.051 151.452ZM412.974 156.151L414.736 155.815L416.54 165.591L414.778 165.926L412.974 156.151Z" fill="#003B2F"/><path d="M400.302 155.354L402.064 155.018L404.413 167.772L402.651 168.108L400.302 155.354Z" fill="#003B2F"/><path d="M460.97 148.599L464.871 145.494L463.906 144.235L460.256 146.585C460.256 146.585 460.047 146.669 459.921 146.627L455.683 145.746L455.222 147.298L459.963 148.808L456.061 151.913L457.026 153.172L460.676 150.822C460.676 150.822 460.886 150.738 461.011 150.78L465.249 151.661L465.71 150.109L460.97 148.599Z" fill="#003B2F"/><path d="M748.444 117.671H731.716C737.004 117.671 741.29 113.765 741.29 108.961C741.29 104.158 737.004 100.252 731.716 100.252H683.678C678.39 100.252 674.104 104.158 674.104 108.961H659.382C654.094 108.961 649.809 112.867 649.809 117.671C649.809 122.474 654.094 126.38 659.382 126.38H690.832C690.832 131.184 695.117 135.089 700.405 135.089H748.444C753.731 135.089 758.017 131.184 758.017 126.38C758.017 121.576 753.731 117.671 748.444 117.671Z" fill="#E6E8EA"/><path d="M789.297 75.9626C793.324 75.9626 796.589 72.6978 796.589 68.6704C796.589 64.643 793.324 61.3782 789.297 61.3782C785.27 61.3782 782.005 64.643 782.005 68.6704C782.005 72.6978 785.27 75.9626 789.297 75.9626Z" stroke="#003B2F" stroke-width="1.25" stroke-linecap="round" stroke-linejoin="round"/><path d="M91.2686 186.722H103.261" stroke="#003B2F" stroke-width="1.25" stroke-linecap="round" stroke-linejoin="round"/><path d="M61.4541 167.323H148.2" stroke="#03FC9D" stroke-width="1.25" stroke-linecap="round" stroke-linejoin="round"/><path d="M118.71 186.652H167.233" stroke="#003B2F" stroke-width="1.25" stroke-linecap="round" stroke-linejoin="round"/><path d="M106.176 81.0304L98.7227 73.5769L91.2691 81.0304L98.7226 88.484L106.176 81.0304Z" stroke="#003B2F" stroke-width="1.25" stroke-linecap="round" stroke-linejoin="round"/><path d="M798.229 292.743L806.903 297.754" stroke="#003B2F" stroke-width="1.25" stroke-linecap="round" stroke-linejoin="round"/><path d="M815.612 292.743L810.497 295.681" stroke="#003B2F" stroke-width="1.25" stroke-linecap="round" stroke-linejoin="round"/><path d="M806.903 297.755V307.881" stroke="#003B2F" stroke-width="1.25" stroke-linecap="round" stroke-linejoin="round"/><path d="M347.33 47.5195H410.195" stroke="#03FC9D" stroke-width="1.25" stroke-linecap="round" stroke-linejoin="round"/><path d="M396.51 61.3782H444.998" stroke="#003B2F" stroke-width="1.25" stroke-linecap="round" stroke-linejoin="round"/><path d="M199.799 348.8H189.154C192.507 348.8 195.271 346.069 195.271 342.683C195.271 339.296 192.541 336.565 189.154 336.565H158.568C155.216 336.565 152.451 339.296 152.451 342.683H143.051C139.698 342.683 136.934 345.413 136.934 348.8C136.934 352.187 139.664 354.917 143.051 354.917H163.096C163.096 358.269 165.826 361.034 169.213 361.034H199.799C203.151 361.034 205.916 358.304 205.916 354.917C205.916 351.53 203.186 348.8 199.799 348.8Z" fill="#E6E8EA"/><path d="M115.437 369.329H168.625C174.485 369.329 179.235 364.578 179.235 358.719C179.235 352.859 174.485 348.109 168.625 348.109H115.437C109.577 348.109 104.827 352.859 104.827 358.719C104.827 364.578 109.577 369.329 115.437 369.329Z" fill="#03FC9D"/><path d="M130.522 365.198L136.259 370.935" stroke="#003B2F" stroke-width="1.25" stroke-linecap="round" stroke-linejoin="round"/><path d="M140.441 375.117L146.178 380.854" stroke="#003B2F" stroke-width="1.25" stroke-linecap="round" stroke-linejoin="round"/><path d="M130.522 380.854L136.259 375.117" stroke="#003B2F" stroke-width="1.25" stroke-linecap="round" stroke-linejoin="round"/><path d="M140.441 370.935L146.178 365.198" stroke="#003B2F" stroke-width="1.25" stroke-linecap="round" stroke-linejoin="round"/><path d="M782.005 175.348H806.266" stroke="#003B2F" stroke-width="1.25" stroke-linecap="round" stroke-linejoin="round"/><path d="M763.584 175.348H769.701" stroke="#003B2F" stroke-width="1.25" stroke-linecap="round" stroke-linejoin="round"/><path d="M768.646 188.82H855.392" stroke="#03FC9D" stroke-width="1.25" stroke-linecap="round" stroke-linejoin="round"/><path d="M83.1152 257.808V265.895" stroke="#003B2F" stroke-width="1.25" stroke-linecap="round" stroke-linejoin="round"/><path d="M83.1152 271.839V279.926" stroke="#003B2F" stroke-width="1.25" stroke-linecap="round" stroke-linejoin="round"/><path d="M72.0557 268.867H80.1773" stroke="#003B2F" stroke-width="1.25" stroke-linecap="round" stroke-linejoin="round"/><path d="M86.0869 268.867H94.174" stroke="#003B2F" stroke-width="1.25" stroke-linecap="round" stroke-linejoin="round"/><path d="M681.789 378.624H693.781" stroke="#003B2F" stroke-width="1.25" stroke-linecap="round" stroke-linejoin="round"/><path d="M631.643 351.771H718.389" stroke="#03FC9D" stroke-width="1.25" stroke-linecap="round" stroke-linejoin="round"/><path d="M709.265 378.59H757.753" stroke="#003B2F" stroke-width="1.25" stroke-linecap="round" stroke-linejoin="round"/></svg>