<svg width="1676" height="858" viewBox="0 0 1676 858" fill="none" xmlns="http://www.w3.org/2000/svg"><g clip-path="url(#clip0_674_2)"><path d="M704.848 752.948C704.848 752.948 704.113 762.412 703.216 771.467C703.216 772.201 703.134 772.936 702.971 773.751C702.89 773.425 702.727 773.017 702.727 772.691L702.89 771.467L704.766 753.193V752.948H704.848Z" fill="#003B2F"/><path d="M837.742 773.996L836.355 781.339L834.642 789.823H834.56L836.274 781.339L837.742 773.915V773.996Z" fill="#003B2F"/><path d="M1031.58 766.98L1030.68 754.661L1030.85 754.743L1031.58 766.98Z" fill="#003B2F"/><path d="M1260.01 593.374L1252.1 635.633L1241.98 637.02L1233.41 681.319L1232.84 681.89L1225.01 690.538C1225.01 690.538 1217.02 699.267 1197.6 711.26C1197.36 711.423 1197.03 711.586 1196.78 711.749L1197.03 711.097L1184.79 709.383L1184.22 714.278L1183.65 719.255C1171.82 725.7 1157.05 732.634 1139.11 739.406C1136.9 740.221 1134.62 741.119 1132.25 741.935C1124.5 744.708 1116.18 747.482 1107.21 750.174C1106.47 750.419 1105.74 750.582 1105.09 750.827C1104.52 750.99 1104.03 751.153 1103.54 751.316C1097.83 753.03 1091.87 754.661 1085.75 756.293C1073.43 759.475 1060.13 762.575 1045.78 765.349L1030.93 754.824L1031.66 767.062V768.041C1030.93 768.122 1030.03 768.286 1029.22 768.449C1005.72 772.446 979.695 775.791 950.978 778.075C950.407 778.075 949.754 778.157 949.183 778.238C945.757 778.483 942.412 778.81 938.986 778.973C935.314 779.217 931.643 779.462 927.891 779.707C915.408 780.441 902.437 781.012 888.976 781.257C888.16 781.257 887.344 781.257 886.61 781.257C875.107 781.502 863.278 781.583 851.122 781.502C848.919 781.502 846.717 781.502 844.432 781.502L837.906 774.078L836.519 781.42C828.361 781.339 819.958 781.094 811.473 780.768C787.815 779.952 765.624 778.483 744.739 776.444C733.807 775.383 723.283 774.159 713.086 772.854C709.822 772.446 706.641 771.957 703.377 771.467C703.296 771.467 703.133 771.467 703.051 771.467L704.927 753.193L693.424 769.999C687.143 769.02 681.106 767.959 675.15 766.899C673.111 766.491 671.153 766.164 669.113 765.757C667.645 765.512 666.258 765.185 664.789 764.941C663.321 764.696 661.934 764.37 660.547 764.125C649.452 761.922 638.928 759.475 628.893 756.946C628.648 756.946 628.404 756.864 628.159 756.783C627.425 756.619 626.772 756.456 626.038 756.211C620.082 754.661 614.372 753.111 608.742 751.398C607.764 751.153 606.866 750.827 605.969 750.582C600.666 749.032 595.445 747.401 590.468 745.687C588.592 745.035 586.715 744.382 584.839 743.811C580.026 742.179 575.376 740.466 570.889 738.753C566.565 737.04 562.322 735.408 558.243 733.695C558.08 733.613 557.917 733.532 557.754 733.45L556.693 728.066C556.53 727.495 556.367 726.924 556.285 726.352C555.959 725.21 555.633 723.823 555.306 722.437C555.143 721.784 554.98 721.131 554.817 720.397C554.817 720.234 554.817 720.071 554.735 719.989C554.491 718.929 554.327 717.868 554.083 716.726C554.001 716.155 553.838 715.665 553.756 715.094C553.512 714.034 553.348 712.891 553.104 711.749C553.022 711.178 552.859 710.607 552.777 710.036L530.179 719.581L529.282 719.908H529.037C523.979 717.378 519.084 714.768 514.515 712.076C511.579 710.362 508.723 708.649 505.949 707.018C505.378 706.691 504.889 706.365 504.399 706.039C504.155 705.957 503.991 705.794 503.828 705.631C503.828 705.631 503.747 705.631 503.665 705.549C500.565 703.591 497.628 701.633 494.773 699.675C492.652 698.207 490.694 696.82 488.736 695.351C485.717 693.149 482.78 690.946 480.088 688.743C470.869 681.401 463.364 674.385 457.327 668.021C457.327 668.021 457.327 668.022 457.245 667.94C440.929 650.645 435.789 638.326 435.789 638.326L439.787 581.218L443.295 574.937L453.819 556.254L453.166 552.991L449.821 536.512L516.963 523.214L520.471 507.55L520.879 505.511L544.048 502.166L664.3 474.102L664.871 469.125L665.279 465.128L679.392 464.23L712.351 462.109L730.626 458.111L732.176 457.785L789.446 457.133L791.159 454.685L793.117 451.911L882.042 449.545L883.918 450.524L886.61 451.993L945.594 451.34C945.594 451.34 946.165 452.727 946.246 453.706C946.246 453.706 946.246 454.359 946.083 454.522C946.083 454.93 1012.74 458.927 1015.84 459.09H1015.92V461.13L1015.84 464.067L1099.54 478.67L1119.61 482.178L1145.14 486.665L1143.76 491.805L1143.35 493.436L1143.1 494.252L1159.99 500.452L1189.03 511.058L1187.97 513.424L1184.22 521.337L1194.17 530.801L1202.74 538.959L1206.33 542.386L1230.31 565.228L1239.37 573.794L1253.57 587.256L1260.25 593.619L1260.01 593.374Z" fill="#03FC9D" stroke="#003B2F" stroke-width="3" stroke-linecap="round" stroke-linejoin="round"/><path d="M557.916 733.613C557.916 733.613 557.589 733.45 557.426 733.368L556.365 727.984C556.937 730.187 557.508 732.063 557.916 733.532V733.613Z" fill="#003B2F"/><path d="M679.963 618.338L665.523 625.273L642.191 636.531L632.075 641.426L623.019 645.75L548.78 681.482C548.943 682.951 549.106 684.338 549.187 685.725C550.248 695.188 551.39 703.265 552.532 710.036L529.934 719.581L529.037 719.907H528.792V719.5L528.955 714.686L529.2 709.383L530.016 684.583L530.668 666.39L531.158 666.145L545.598 659.211L562.241 651.297L578.394 643.629L635.827 616.299L638.601 614.993L639.009 614.83L649.207 609.935L661.526 604.061L661.933 603.817L662.505 603.49L663.891 602.838L672.458 598.759L676.7 596.719H676.863C676.863 596.719 677.108 596.474 677.189 596.474V597.045L677.516 600.064V600.635L678.087 604.959L678.903 611.567L679.31 615.156L679.637 618.175L679.963 618.338Z" fill="#003B2F"/><path d="M607.765 569.226L606.297 572L603.034 578.118L602.544 579.016L601.891 580.239L601.647 580.647L598.628 586.358L596.507 586.929L587.207 589.295L582.883 590.437L579.946 591.171L462.305 620.786L457.573 621.928L456.921 668.266V669.082V668.103L451.373 613.443L455.207 612.383L475.929 606.509L588.023 574.937L601.728 571.102L607.521 569.471H607.684L607.765 569.226Z" fill="#003B2F"/><path d="M1031.66 767.959L1031.91 771.712L1029.21 768.367L1005.72 739.161L1004.58 737.692L997.478 728.882L978.47 705.304L960.195 682.543L950.813 670.877L941.676 659.537L942.411 648.605V648.034L942.492 647.137L942.9 640.121L943.145 637.184L944.205 620.541L944.45 617.441C944.45 617.441 945.674 618.338 947.469 619.807C947.632 619.888 947.795 620.051 947.958 620.215C949.019 621.03 950.324 622.091 951.874 623.233C952.527 623.804 953.261 624.375 954.077 624.946C960.277 629.841 968.925 636.776 978.388 644.771C979.204 645.505 980.02 646.158 980.917 646.892C980.917 646.892 981.162 647.137 981.243 647.218C992.91 657.253 1005.47 668.756 1016.16 680.014C1017.3 681.238 1018.44 682.462 1019.59 683.685C1033.46 699.023 1043 713.544 1040.63 722.681C1039.57 726.679 1039.08 730.676 1038.92 734.429C1038.92 735.082 1038.92 735.734 1038.92 736.387C1038.92 748.461 1042.67 758.822 1046.02 765.512L1031.17 754.988L1031.91 767.225V768.204L1031.66 767.959Z" fill="#003B2F"/><path d="M1215.3 664.106L1197.11 711.097L1184.87 709.383L1184.3 714.278L1188.38 678.138L1188.63 676.016L1188.71 675.282L1188.87 673.977V673.569L1186.67 672.59L1150.12 657.008L1092.36 632.289L1089.75 631.146L1089.18 630.902L1084.85 629.107L1068.13 621.928L1054.26 615.972L1050.67 614.422L1047.98 613.28L1040.47 610.098L1038.68 609.283L1038.35 604.877L1038.19 602.43V601.777L1037.95 598.269L1042.76 600.064L1046.51 601.451L1052.22 603.572L1066.66 608.956L1082 614.585L1104.84 623.07L1132.74 633.431L1140.49 636.286L1158.28 642.894L1213.51 663.371L1215.3 664.106Z" fill="#003B2F"/><path d="M1263.03 588.234C1262.87 590.519 1261.89 592.232 1260.01 593.374L1252.1 635.633L1242.06 636.939L1244.51 624.13L1243.61 623.886L1107.62 589.213L1099.87 587.256L1095.38 574.447L1092.69 566.697L1111.86 569.144L1253.4 586.929L1263.11 588.153L1263.03 588.234Z" fill="#003B2F"/><path d="M764.726 613.28L764.318 619.072L763.747 627.883L762.524 646.239V647.055L762.197 652.439C762.197 652.439 759.505 659.048 755.344 669.245C755.1 669.898 754.773 670.551 754.529 671.285C754.365 671.693 754.202 672.101 754.039 672.427C754.039 672.59 753.958 672.672 753.876 672.835C751.51 678.546 748.818 685.235 745.881 692.415C745.881 692.496 745.799 692.659 745.718 692.741C745.718 692.741 745.473 693.312 745.391 693.557C745.31 693.801 745.228 693.965 745.065 694.209C741.312 703.428 737.233 713.381 733.236 723.089C732.012 726.108 730.788 729.126 729.565 732.063C729.401 732.471 729.238 732.879 729.075 733.205C728.341 735 727.607 736.795 726.872 738.59C726.138 740.303 725.486 742.098 724.751 743.729C719.856 755.64 715.696 765.92 712.922 772.609C711.046 777.178 709.903 779.952 709.659 780.36C706.151 778.402 703.785 776.117 702.969 773.507C702.887 773.18 702.724 772.773 702.724 772.446L702.887 771.223L704.764 752.948L693.261 769.754C693.587 766.98 694.158 761.27 694.566 754.172C695.382 740.629 695.627 721.947 692.282 709.139L693.505 707.507L695.463 704.897L702.479 695.678L706.722 690.049L716.022 677.73L719.856 672.672L731.278 657.579L736.091 651.134L742.047 643.302L760.729 618.583L762.36 616.462L764.726 613.362V613.28Z" fill="#003B2F"/><path d="M1031.99 773.507C1031.99 773.507 996.829 777.83 949.43 782.073C948.696 782.073 947.88 782.236 947.146 782.317C944.127 782.562 941.109 782.889 938.008 783.133C934.011 783.46 930.013 783.786 925.934 784.112C912.963 785.173 899.502 786.233 885.796 787.131C885.225 787.131 884.654 787.212 884.083 787.212C873.151 787.947 862.056 788.599 851.042 789.089L844.271 781.42L837.744 773.996L836.358 781.338L834.644 789.905C803.48 791.047 774.029 791.128 750.86 789.334C732.259 787.865 717.738 785.091 709.661 780.604C706.153 778.646 703.787 776.362 702.971 773.67C702.89 773.344 702.727 772.936 702.727 772.609L702.89 771.386L704.766 753.111L706.642 734.184L707.05 730.105L707.458 725.781L707.703 723.497L707.785 722.6H708.193H710.232H711.701L733.157 723.089L793.282 724.394H797.117H797.361H797.851L804.704 724.558H807.478L818.817 724.884L830.239 725.129L849.737 725.537L945.922 727.576H950.246L974.639 728.229L997.318 728.718L1025.95 729.371H1029.38L1029.79 737.447L1030.77 754.743L1031.5 766.98V767.959L1031.75 771.712V773.507H1031.99Z" fill="#03FC9D" stroke="#003B2F" stroke-width="3" stroke-linecap="round" stroke-linejoin="round"/><path d="M718.633 589.54L729.075 622.336L728.994 592.558L823.221 553.236L827.218 518.156L718.633 589.54Z" fill="#003B2F"/><path d="M839.211 532.025L845.248 569.226L949.591 601.124C949.591 601.124 952.447 632.37 952.447 631.391C952.447 630.412 960.441 596.311 960.441 596.311L839.129 532.106L839.211 532.025Z" fill="#003B2F"/><path d="M614.78 543.201L607.927 526.396L684.941 504.124L676.619 489.276L798.176 476.06L801.766 468.554L875.761 464.72C875.761 464.72 877.392 475.081 878.371 478.099C879.35 481.118 1016.65 477.365 1016.65 477.365L1020.65 491.152L1081.92 510.569L1081.75 531.209L837.254 553.236L614.78 543.201Z" fill="#003B2F"/><path d="M704.029 492.05V474.999L750.612 467.33L750.123 488.052L799.235 480.057L801.846 461.62L874.861 459.335L875.432 468.065L987.689 474.102L990.055 468.88L1069.84 480.057L1074 491.886L1070.82 505.103L1014.69 491.315L1015.59 485.36L1017.96 477.202L982.631 483.402L968.68 479.976L872.822 482.341L877.227 464.23L802.335 467.983V483.728C802.335 483.728 722.14 498.005 721.161 497.026C720.182 496.047 704.111 492.05 704.111 492.05H704.029Z" fill="#03FC9D" stroke="#003B2F" stroke-width="3" stroke-linecap="round" stroke-linejoin="round"/><path d="M839.54 500.534L841.253 514.158L906.437 522.153L908.395 513.098L839.54 500.534Z" fill="#003B2F"/><path d="M890.771 485.36L889.384 494.089L864.991 497.026L842.311 500.126L841.496 496.373L890.771 485.36Z" fill="#003B2F"/><path d="M777.126 490.092L780.145 497.108L816.612 498.413L819.222 500.452L819.712 509.753C819.712 509.753 827.625 505.755 827.462 504.939C827.217 504.124 827.054 496.618 827.054 496.618L777.126 490.092Z" fill="#003B2F"/><path d="M723.936 606.917L718.634 589.54L606.867 532.025C606.867 532.025 599.85 554.133 618.859 582.197C637.868 610.262 723.936 606.835 723.936 606.835V606.917Z" fill="#03FC9D" stroke="#003B2F" stroke-width="3" stroke-linecap="round" stroke-linejoin="round"/><path d="M960.278 597.045L954.893 625.028L1036.72 604.306L1037.94 598.269C1037.94 598.269 1063.81 593.292 1078.82 582.279C1093.83 571.265 1090.73 530.556 1090.73 530.556L960.359 597.045H960.278Z" fill="#03FC9D" stroke="#003B2F" stroke-width="3" stroke-linecap="round" stroke-linejoin="round"/><path d="M729.402 616.462L728.994 592.558L949.591 601.124L950.815 620.214L944.288 619.236L941.514 655.458L764.156 645.831L763.503 616.462H729.402Z" fill="#03FC9D" stroke="#003B2F" stroke-width="3" stroke-linecap="round" stroke-linejoin="round"/><path d="M1099.78 587.256L1107.53 589.214C1103.05 598.188 1094.81 606.754 1082 614.586L1030.68 614.259C1086.32 592.64 1101.01 546.057 1080.77 517.993C1098.56 533.33 1110.88 551.36 1111.86 569.063L1092.69 566.615L1095.38 574.366L1099.86 587.174L1099.78 587.256Z" fill="#003B2F"/><path d="M724.181 608.385L673.927 599.003C655.163 590.519 605.969 596.882 596.669 586.848L598.79 586.277L607.846 569.226L588.184 574.774C580.842 560.089 590.713 546.057 606.459 531.535C606.132 572.245 671.479 590.274 724.263 608.385H724.181Z" fill="#003B2F"/><path d="M607.927 526.314C611.517 520.195 618.615 514.158 629.384 508.366C640.397 502.41 655 496.944 671.317 492.131C685.185 494.742 713.005 500.534 711.21 504.287C709.497 507.876 652.308 518.482 607.927 526.314Z" fill="#E6E8EA" stroke="#003B2F" stroke-width="3" stroke-linecap="round" stroke-linejoin="round"/><path d="M669.931 578.282C669.931 578.282 669.931 578.281 669.931 578.445C669.441 579.424 666.912 584.237 666.015 584.237C665.036 584.237 655.654 574.529 655.654 574.529C655.654 574.529 655.817 574.529 656.062 574.366C658.265 573.55 669.605 569.389 674.092 571.265C679.068 573.305 670.094 578.282 670.094 578.282H669.931Z" fill="#003B2F"/><path d="M828.607 503.716C829.097 501.921 828.77 500.697 827.465 500.616C826.241 500.616 822.162 500.534 816.615 500.616C817.512 500.616 818.491 500.534 819.307 500.452C772.234 502.084 730.138 503.797 730.138 503.797C730.138 503.797 690.571 514.648 606.786 533.167C600.015 548.994 617.637 562.373 655.898 574.365C658.101 573.55 669.441 569.389 673.928 571.265C678.904 573.305 669.93 578.281 669.93 578.281C669.93 578.281 669.93 578.281 669.93 578.445C684.044 582.279 700.36 585.95 718.716 589.54C762.526 569.144 813.025 544.751 821.102 536.104C825.996 530.882 827.22 521.827 828.199 509.1C828.036 509.345 828.933 503.471 828.689 503.634L828.607 503.716Z" fill="#E6E8EA" stroke="#003B2F" stroke-width="3" stroke-linecap="round" stroke-linejoin="round"/><path d="M877.067 464.312C862.871 468.391 837.663 475.407 833.42 475.57C829.423 475.733 814.738 471.001 802.175 467.983C816.37 466.596 824.61 465.454 839.05 464.883C851.532 464.393 864.258 464.148 877.067 464.23V464.312Z" fill="#E6E8EA" stroke="#003B2F" stroke-width="3" stroke-linecap="round" stroke-linejoin="round"/><path d="M1061.2 491.642C1070.01 497.352 1077.19 503.716 1081.92 510.487C1028.65 505.429 969.175 499.147 965.504 495.068C961.425 490.499 1006.21 482.096 1027.18 478.996C1041.7 482.504 1053.69 486.747 1061.2 491.56V491.642Z" fill="#E6E8EA" stroke="#003B2F" stroke-width="3" stroke-linecap="round" stroke-linejoin="round"/><path d="M949.593 601.124C940.619 602.185 931.319 603.001 921.855 603.735C921.855 603.735 918.429 597.372 915.737 603.735L916.063 604.143C901.623 605.04 886.694 605.448 871.275 605.367C853 605.367 834.971 604.632 817.349 603.49C814.657 601.288 803.725 593.537 794.18 601.369C794.18 601.369 794.18 601.451 794.18 601.614C771.174 599.493 749.31 596.393 729.078 592.64C770.521 571.021 816.452 548.83 836.358 547.851C856.508 546.872 903.255 572.897 949.675 601.206L949.593 601.124Z" fill="#E6E8EA" stroke="#003B2F" stroke-width="3" stroke-linecap="round" stroke-linejoin="round"/><path d="M829.669 478.262C829.669 478.262 821.837 473.857 792.63 468.309C752.411 472.388 709.906 479.812 676.703 489.276C706.888 498.413 734.299 500.452 734.299 500.452C734.299 500.452 766.198 499.8 810.497 498.576C809.518 498.576 814.739 498.413 813.76 498.413C822.408 498.168 829.179 497.597 829.587 496.944C829.669 496.781 829.587 496.455 829.505 496.128C829.505 496.128 829.587 496.292 829.669 496.292C830.076 485.931 829.669 478.262 829.669 478.262Z" fill="#E6E8EA" stroke="#003B2F" stroke-width="3" stroke-linecap="round" stroke-linejoin="round"/><path d="M1018.04 476.957C980.595 469.125 928.22 464.801 881.718 464.312C849.004 472.715 840.111 477.936 840.111 477.936C840.111 477.936 839.214 482.912 838.316 490.01C838.316 490.499 838.235 490.907 838.153 491.478V493.028C838.153 494.986 838.398 496.455 838.316 497.352C845.496 497.352 852.43 497.189 866.544 496.536C901.216 495.476 931.728 494.66 941.191 493.681C961.26 491.56 1001.81 481.199 1017.96 476.957H1018.04Z" fill="#E6E8EA" stroke="#003B2F" stroke-width="3" stroke-linecap="round" stroke-linejoin="round"/><path d="M1085.75 516.116C1038.6 510.161 966.643 498.331 944.126 497.516C933.602 497.108 904.722 497.76 871.6 498.739C858.628 498.495 845.82 499.474 839.457 500.779C838.804 500.942 837.58 502.9 837.172 505.429C837.091 505.347 837.172 506.408 837.091 506.326C836.438 518.645 836.764 531.372 840.762 536.185C848.594 545.567 911.004 574.774 960.116 597.045C968.356 595.822 976.269 594.516 983.612 593.129C983.612 593.048 983.612 592.966 983.612 592.966C986.141 586.032 995.767 589.54 997.644 590.274C1029.95 583.176 1052.87 574.284 1067.97 564.413C1067.97 563.678 1067.8 563.189 1067.64 563.189C1066.66 563.189 1056.63 560.17 1062.66 556.173C1068.7 552.175 1084.53 548.912 1084.53 548.912C1084.53 548.912 1084.53 549.238 1084.37 549.728C1092.52 538.633 1092.44 527.048 1085.75 516.035V516.116Z" fill="#E6E8EA" stroke="#003B2F" stroke-width="3" stroke-linecap="round" stroke-linejoin="round"/><path d="M697.827 476.875C691.056 478.344 684.447 479.975 678.002 481.689C651.57 488.542 627.993 496.863 611.35 506.326L520.55 505.511C559.464 489.928 612.9 477.446 661.604 468.472L664.541 469.125L678.655 472.388L697.908 476.875H697.827Z" fill="#E6E8EA" stroke="#003B2F" stroke-width="3" stroke-linecap="round" stroke-linejoin="round"/><path d="M750.61 467.33C733.151 469.859 720.343 471.491 703.945 475.081L678.736 468.636L664.867 465.128C669.844 464.23 674.576 463.414 679.144 462.599C694.726 459.988 708.595 458.193 725.972 456.072L730.214 458.03L750.528 467.412L750.61 467.33Z" fill="#E6E8EA" stroke="#003B2F" stroke-width="3" stroke-linecap="round" stroke-linejoin="round"/><path d="M797.437 461.946C782.345 463.251 767.171 464.964 752.404 467.085L731.846 457.622C750.773 455.338 769.781 453.461 788.545 452.074L790.748 454.522L797.356 461.864L797.437 461.946Z" fill="#E6E8EA" stroke="#003B2F" stroke-width="3" stroke-linecap="round" stroke-linejoin="round"/><path d="M881.793 449.464L874.858 459.254C865.558 459.09 856.258 459.09 847.039 459.254C831.946 459.58 816.772 460.314 801.843 461.538L792.869 451.748C809.756 450.606 826.644 449.79 843.531 449.464C856.176 449.219 869.066 449.219 881.874 449.464H881.793Z" fill="#E6E8EA" stroke="#003B2F" stroke-width="3" stroke-linecap="round" stroke-linejoin="round"/><path d="M945.345 451.34L926.337 461.619C909.939 460.396 893.214 459.58 876.653 459.335L883.669 450.524L885.056 448.811C904.962 449.137 925.194 450.035 945.264 451.34H945.345Z" fill="#E6E8EA" stroke="#003B2F" stroke-width="3" stroke-linecap="round" stroke-linejoin="round"/><path d="M1015.75 459.09L984.508 468.064C967.294 465.535 949.101 463.496 930.745 462.027L946.001 453.706L948.285 452.401C970.883 454.032 993.645 456.235 1015.59 459.009H1015.67L1015.75 459.09Z" fill="#E6E8EA" stroke="#003B2F" stroke-width="3" stroke-linecap="round" stroke-linejoin="round"/><path d="M1144.98 486.584L1092.68 490.5L1073.92 491.886C1073.92 491.886 1073.51 491.642 1073.27 491.479C1055.65 480.628 1027.75 474.836 990.626 468.962C990.381 468.962 990.218 468.962 989.973 468.88C989.647 468.88 989.402 468.799 989.075 468.717L1015.75 461.048L1020.57 459.662C1054.1 464.149 1084.36 468.799 1110.55 475.488C1116.83 477.12 1122.87 478.752 1128.58 480.628C1134.29 482.423 1139.84 484.462 1145.06 486.584H1144.98Z" fill="#E6E8EA" stroke="#003B2F" stroke-width="3" stroke-linecap="round" stroke-linejoin="round"/><path d="M600.664 508.937C600.664 508.937 600.582 509.019 600.501 509.1C591.934 515.382 586.632 521.909 584.51 528.354L449.493 536.43C446.474 530.148 470.133 520.766 484.328 513.424C491.915 509.427 492.486 510.65 501.297 507.061L520.061 507.387L600.501 508.855C601.153 508.448 601.887 508.04 600.664 508.855V508.937Z" fill="#E6E8EA" stroke="#003B2F" stroke-width="3" stroke-linecap="round" stroke-linejoin="round"/><path d="M607.762 569.226C607.762 569.226 607.762 569.226 607.599 569.226C606.946 569.471 604.825 570.205 601.317 571.347C579.534 578.689 508.15 602.348 471.765 610.588C464.259 612.301 458.222 613.362 454.47 613.443C453.164 613.443 452.104 613.443 451.369 613.198C444.272 611.322 440.356 600.635 440.927 587.419C441.09 583.584 441.661 579.505 442.722 575.344C442.722 575.181 442.803 575.018 442.803 574.855C444.598 567.431 447.861 559.844 452.675 552.909C455.367 548.912 458.549 545.241 462.301 541.896L585.082 532.84C583.45 538.714 582.961 543.772 584.756 548.667C585.408 550.625 586.469 552.502 588.019 554.378C588.1 554.541 588.264 554.704 588.427 554.949C591.69 558.947 596.993 563.107 604.825 567.594C605.722 568.165 606.701 568.655 607.68 569.226H607.762Z" fill="#E6E8EA" stroke="#003B2F" stroke-width="3" stroke-linecap="round" stroke-linejoin="round"/><path d="M1026.28 729.779C1000.74 745.28 966.233 736.958 931.316 737.937C855.445 740.058 758.525 757.109 707.781 722.6C707.781 722.6 763.257 625.925 800.132 622.254C837.007 618.583 856.424 625.762 896.235 624.783C909.207 624.457 907.983 624.049 921.281 624.049C934.579 624.049 1026.28 729.779 1026.28 729.779Z" fill="#E6E8EA" stroke="#003B2F" stroke-width="3" stroke-linecap="round" stroke-linejoin="round"/><path d="M1188.87 673.569C1189.11 675.282 1183.24 678.709 1173.7 683.114C1172.72 683.522 1171.66 684.011 1170.6 684.501C1156.97 690.456 1137.31 697.88 1117.32 704.488C1083.79 715.665 1049.36 724.965 1040.39 722.518C1033.62 720.723 1019.1 706.365 1003.35 688.906C1001.72 687.112 1000.01 685.235 998.376 683.277C987.525 670.958 976.512 657.66 967.212 646.239C965.172 643.792 963.214 641.344 961.419 639.06C951.14 626.333 944.206 617.277 944.206 617.277C956.524 616.054 968.272 614.504 979.286 612.709C982.386 612.219 985.486 611.648 988.504 611.077C998.947 609.119 1008.74 606.917 1017.87 604.388C1023.01 603.001 1027.91 601.532 1032.64 599.982C1032.64 599.982 1037.45 602.022 1045.45 605.448C1047.98 606.509 1050.83 607.732 1053.93 609.038C1055.97 609.935 1058.18 610.833 1060.38 611.812C1070.58 616.217 1082.65 621.52 1095.38 627.149C1097.58 628.128 1099.7 629.025 1101.9 630.004C1114.22 635.47 1126.95 641.181 1138.62 646.565C1166.19 659.292 1188.38 670.469 1188.79 673.406L1188.87 673.569Z" fill="#E6E8EA" stroke="#003B2F" stroke-width="3" stroke-linecap="round" stroke-linejoin="round"/><path d="M1245.65 614.993C1243.36 632.125 1226.56 663.208 1213.02 663.453C1206.98 663.535 1183.81 655.703 1156.23 645.342C1139.02 638.897 1120.01 631.473 1102.47 624.457C1088.77 618.991 1075.88 613.77 1065.27 609.527C1056.79 606.101 1049.85 603.246 1045.04 601.206C1040.47 599.33 1037.94 598.269 1037.94 598.269C1056.95 591.579 1070 586.603 1080.12 579.587C1082.89 577.629 1085.42 575.589 1087.79 573.305C1087.79 573.305 1167.25 586.358 1212.93 596.23C1224.84 598.84 1234.47 601.124 1239.77 603.001C1241.73 603.653 1243.12 604.306 1243.77 604.877C1245.81 606.509 1246.3 610.262 1245.73 615.075L1245.65 614.993Z" fill="#E6E8EA" stroke="#003B2F" stroke-width="3" stroke-linecap="round" stroke-linejoin="round"/><path d="M1263.03 588.235C1262.87 590.437 1261.97 592.232 1260.01 593.374C1255.52 596.066 1238.23 594.68 1216.45 591.498C1210.49 590.6 1204.21 589.621 1197.76 588.479C1174.68 584.482 1149.47 579.342 1129.48 575.018C1116.34 572.163 1105.49 569.797 1099.05 568.329C1095.46 567.513 1093.26 567.023 1092.77 566.86C1092.69 566.86 1092.69 566.86 1092.69 566.86C1098.8 558.865 1102.07 551.196 1103.21 543.772C1103.86 539.53 1103.86 535.451 1103.21 531.372C1102.72 528.272 1101.9 525.172 1100.84 522.153C1100.11 520.114 1099.29 518.156 1098.32 516.116C1098.23 515.872 1098.07 515.545 1097.91 515.3H1101.09L1129.23 514.648L1187.81 513.424L1197.84 513.179C1200.21 514.893 1202.66 516.769 1205.19 518.727C1210.16 522.643 1215.3 526.967 1220.28 531.454C1222.07 533.085 1223.87 534.717 1225.66 536.43C1233.9 544.18 1241.65 552.339 1247.94 560.007C1249.81 562.292 1251.53 564.494 1253.08 566.615C1259.52 575.426 1263.44 583.177 1263.11 588.398L1263.03 588.235Z" fill="#E6E8EA" stroke="#003B2F" stroke-width="3" stroke-linecap="round" stroke-linejoin="round"/><path d="M1188.79 510.895L1096.03 510.161C1093.26 506.408 1089.83 502.818 1086.08 499.392C1084.85 498.331 1083.47 497.271 1082 496.21L1143.59 491.641L1154.2 490.826C1160.81 493.599 1166.68 496.536 1171.82 499.718C1177.78 503.308 1183.4 507.06 1188.87 510.895H1188.79Z" fill="#E6E8EA" stroke="#003B2F" stroke-width="3" stroke-linecap="round" stroke-linejoin="round"/><path d="M666.665 601.206C661.688 603.654 667.318 601.696 662.341 604.388C659.078 606.101 655.815 607.896 652.551 609.772C633.543 620.459 614.453 632.044 595.444 642.16C582.309 649.095 569.175 655.295 556.122 659.863C547.556 662.882 538.989 665.166 530.505 666.471C508.315 657.171 492.406 649.421 479.843 640.936C478.211 639.794 476.661 638.734 475.111 637.592C469.319 633.268 464.179 628.781 459.366 623.723C458.795 623.07 458.142 622.417 457.571 621.765L462.466 620.378L587.612 584.319L604.908 579.342L611.108 577.547L618.776 575.345C623.59 577.792 628.811 580.24 634.522 582.605C639.58 584.727 644.964 586.684 650.675 588.724C652.959 589.54 655.325 590.274 657.691 591.008C663.81 592.966 659.649 599.411 666.502 601.206H666.665Z" fill="#E6E8EA" stroke="#003B2F" stroke-width="3" stroke-linecap="round" stroke-linejoin="round"/><path d="M764.727 613.28C764.727 613.28 714.065 705.468 682.982 712.484C651.899 719.5 550.656 691.028 548.698 681.401C546.74 671.774 682.003 597.78 682.003 597.78C706.478 604.143 734.46 609.364 764.727 613.199V613.28Z" fill="#E6E8EA" stroke="#003B2F" stroke-width="3" stroke-linecap="round" stroke-linejoin="round"/><path d="M850.305 744.627C850.305 744.627 844.513 745.198 835.539 745.769C809.433 747.645 756.486 750.582 740.088 744.627C718.061 736.632 707.782 724.558 707.782 724.558L728.34 690.13C728.34 690.13 761.218 693.638 786.1 699.43C797.277 702.041 806.822 705.059 811.146 708.486C825.178 719.499 850.224 744.545 850.224 744.545L850.305 744.627Z" fill="#003B2F"/><path d="M851.04 789.089L844.269 781.42L837.743 773.996L842.311 750.827L835.621 745.769L832.521 743.403L807.557 724.721L787.243 709.547L786.591 703.102L786.428 701.144L786.264 699.43C786.999 699.594 787.651 699.757 788.386 699.92C788.712 699.92 789.038 700.002 789.365 700.165C790.425 700.409 791.404 700.736 792.383 700.98C800.868 703.183 807.802 705.712 811.31 708.486C811.963 709.057 812.697 709.547 813.431 710.199C815.552 711.912 817.755 713.789 820.121 715.91C820.692 716.399 821.181 716.889 821.753 717.297C824.608 719.826 827.545 722.518 830.319 725.129C834.153 728.718 837.906 732.226 841.087 735.326C841.74 735.979 842.393 736.632 842.964 737.203C843.453 737.692 843.943 738.1 844.351 738.59C845.003 739.242 845.656 739.895 846.227 740.466C846.88 741.119 847.451 741.69 847.94 742.179C848.103 742.342 848.267 742.506 848.43 742.669C848.43 742.669 848.593 742.832 848.674 742.914L849.246 743.485C849.246 743.485 849.898 744.056 850.061 744.3L850.225 744.464L850.306 744.545L850.959 781.42V789.089H851.04Z" fill="#003B2F"/><path d="M752.083 658.395C753.062 681.483 793.201 702.449 793.201 702.449L727.038 690.13L752.165 658.395H752.083Z" fill="#003B2F"/><path d="M744.087 669.408C729.484 676.669 734.052 690.456 734.052 690.456C734.052 690.456 763.095 696.493 769.132 695.433C775.169 694.454 752.082 665.411 744.087 669.408Z" fill="#E6E8EA" stroke="#003B2F" stroke-width="3" stroke-linecap="round" stroke-linejoin="round"/><path d="M587.693 584.318C576.68 595.332 574.722 613.362 574.722 613.362C574.722 613.362 597.809 611.322 602.786 611.322C607.762 611.322 640.885 617.359 640.885 617.359L671.722 598.432C671.722 598.432 619.836 576.242 618.857 576.242C617.878 576.242 587.775 584.318 587.775 584.318H587.693Z" fill="#003B2F"/><path d="M592.754 580.647C582.72 595.25 579.701 604.306 581.741 608.304C583.78 612.301 616.494 608.548 617.147 607.977C617.8 607.325 654.919 589.295 653.859 589.295C652.798 589.295 618.779 574.284 618.779 574.284L592.754 580.729V580.647Z" fill="#E6E8EA" stroke="#003B2F" stroke-width="3" stroke-linecap="round" stroke-linejoin="round"/><path d="M642.029 615.972L618.779 610.343L631.832 602.348H655.898C656.877 602.348 663.73 605.122 663.73 605.122L642.029 616.054V615.972Z" fill="#E6E8EA" stroke="#003B2F" stroke-width="3" stroke-linecap="round" stroke-linejoin="round"/><path d="M638.847 598.269L637.868 601.288L654.918 599.33L662.75 591.416L656.55 589.54L638.847 598.269Z" fill="#E6E8EA" stroke="#003B2F" stroke-width="3" stroke-linecap="round" stroke-linejoin="round"/><path d="M664.463 603.653C663.484 603.735 659.486 600.716 659.486 600.716L663.402 592.885C663.402 592.885 678.331 595.087 676.129 597.861C673.926 600.635 664.463 603.653 664.463 603.653Z" fill="#E6E8EA" stroke="#003B2F" stroke-width="3" stroke-linecap="round" stroke-linejoin="round"/><path d="M1099.54 629.107L1060.3 635.96L1022.69 627.394L999.194 638.326L1033.7 654.397L1060.71 649.421L1108.84 713.544L1191.97 674.466L1180.96 663.453L1099.54 629.107Z" fill="#003B2F"/><path d="M996.585 637.347L1017.63 624.294L1059.73 638.326L1060.71 644.363C1060.71 644.363 1035.66 650.4 1030.69 649.339C1025.71 648.36 996.585 637.347 996.585 637.347Z" fill="#E6E8EA" stroke="#003B2F" stroke-width="3" stroke-linecap="round" stroke-linejoin="round"/><path d="M1062.74 639.386C1062.74 639.386 1061.77 647.381 1063.72 649.421C1065.76 651.46 1111.86 709.547 1111.86 709.547C1111.86 709.547 1189.03 686.459 1189.03 676.506C1189.03 666.553 1111.45 631.31 1103.62 630.82C1095.78 630.412 1062.74 639.386 1062.74 639.386Z" fill="#E6E8EA" stroke="#003B2F" stroke-width="3" stroke-linecap="round" stroke-linejoin="round"/><path d="M1104.27 708.568L1103.54 751.806C1103.54 751.806 1103.86 752.622 1104.84 751.561C1105.82 750.582 1111.45 708.241 1111.45 708.241L1072.05 660.434L1104.27 708.568Z" fill="#003B2F"/><path d="M1096.03 510.161L1094.4 531.535L1097.83 515.137L1187.73 513.261L1188.79 510.895L1096.03 510.161Z" fill="#003B2F"/><path d="M600.502 508.937L600.013 538.714L611.271 506.245L520.47 505.429L600.502 508.937Z" fill="#003B2F"/><path d="M818 603.98C818 603.98 810.249 609.364 801.194 608.385C793.28 607.488 793.852 602.756 794.096 601.614C794.096 601.451 794.096 601.369 794.096 601.369C803.641 593.537 814.573 601.288 817.265 603.49C817.673 603.817 817.918 604.061 817.918 604.061L818 603.98Z" fill="#003B2F"/><path d="M921.852 603.653L918.426 607.243L915.978 603.98L915.652 603.572C918.344 597.208 921.771 603.572 921.771 603.572L921.852 603.653Z" fill="#003B2F"/><path d="M998.132 590.356C998.132 590.356 994.624 598.269 989.566 598.269C985.079 598.269 983.937 593.945 983.774 593.048C983.774 592.966 983.774 592.885 983.774 592.885C986.303 585.95 995.93 589.458 997.806 590.192C998.051 590.192 998.132 590.356 998.132 590.356Z" fill="#003B2F"/><path d="M1084.61 548.912C1084.61 548.912 1084.61 549.238 1084.45 549.728C1083.63 553.399 1079.88 567.594 1073.84 570.205C1068.38 572.571 1068.38 566.941 1068.21 564.412C1068.21 563.678 1068.05 563.189 1067.89 563.189C1066.91 563.189 1056.87 560.17 1062.91 556.173C1068.95 552.175 1084.77 548.912 1084.77 548.912H1084.61Z" fill="#003B2F"/><path d="M556.366 727.984C556.202 727.413 556.039 726.842 555.958 726.271C555.631 725.129 555.305 723.742 554.979 722.355C554.816 721.702 554.652 721.05 554.489 720.316C554.489 720.152 554.489 719.989 554.408 719.908C554.163 718.847 554 717.786 553.755 716.644C553.673 716.073 553.51 715.584 553.429 715.013C553.184 713.952 553.021 712.81 552.776 711.668C552.694 711.097 552.531 710.526 552.45 709.955H552.694L554.081 716.807L556.366 727.984Z" fill="#003B2F"/><path d="M1183.65 719.336L1184.3 714.278L1183.73 719.255L1183.65 719.336Z" fill="#003B2F"/><path d="M1197.68 711.178C1197.68 711.178 1197.11 711.586 1196.87 711.749L1197.11 711.097H1197.68V711.178Z" fill="#003B2F"/><path d="M727.037 691.68C727.037 691.68 792.057 699.675 805.355 711.668C818.653 723.66 842.312 750.908 842.312 750.908C842.312 750.908 759.017 759.638 738.132 750.908C717.247 742.179 705.01 728.066 705.01 728.066L727.118 691.762L727.037 691.68Z" fill="#E6E8EA" stroke="#003B2F" stroke-width="3" stroke-linecap="round" stroke-linejoin="round"/><path d="M849.817 711.668C849.817 711.668 850.633 711.913 851.122 711.913C851.612 711.913 852.183 711.831 852.672 711.505L884.816 694.617C885.631 694.209 886.121 693.394 886.121 692.578C886.121 691.762 885.55 691.028 884.652 690.62L858.057 679.117L885.55 664.595C886.366 664.187 886.855 663.453 886.855 662.637C886.855 661.821 886.284 661.087 885.468 660.679L852.183 645.016C851.286 644.608 850.225 644.608 849.328 645.016C848.43 645.423 847.941 646.158 847.941 646.974V709.384C847.941 710.444 848.757 711.26 849.899 711.586L849.817 711.668ZM853.488 651.053L878.615 662.882L853.488 676.098V651.053ZM853.488 682.38L877.718 692.822L853.488 705.549V682.38Z" fill="#003B2F"/><path d="M840.548 452.422C840.548 452.422 840.3 452.422 840.176 452.422C840.052 452.422 839.866 452.422 839.742 452.422L830.814 453.848L830.442 453.972C830.442 453.972 830.628 454.096 830.876 454.096L838.316 454.716L830.69 455.956C830.69 455.956 830.318 456.018 830.318 456.08C830.318 456.08 830.504 456.204 830.69 456.204L839.99 457.072C839.99 457.072 840.548 457.072 840.796 457.072C841.044 457.072 841.168 457.01 841.168 456.948L841.044 452.608C841.044 452.608 840.796 452.484 840.486 452.484L840.548 452.422ZM839.618 456.638L832.612 456.018L839.618 454.902V456.638ZM839.618 454.468L832.86 453.91L839.618 452.856V454.468Z" fill="#003B2F"/><path d="M483.431 551.196C483.431 552.746 484.573 554.052 486.205 554.133L516.798 555.112L483.839 581.953C483.186 582.524 482.86 583.258 482.778 584.074C482.778 584.726 482.941 585.379 483.431 585.95C484.41 587.174 486.205 587.337 487.428 586.358L524.303 556.336C524.303 556.336 524.875 555.765 525.038 555.439L545.841 556.091L514.514 579.097C513.779 579.668 513.371 580.484 513.371 581.3C513.371 581.871 513.535 582.524 513.943 583.095C514.84 584.319 516.635 584.645 517.858 583.666L553.591 557.397C553.591 557.397 554.244 556.744 554.407 556.418L563.136 556.662C564.686 556.662 565.992 555.52 566.073 553.889C566.155 552.257 564.931 551.033 563.3 550.952L486.286 548.504C484.736 548.504 483.431 549.646 483.349 551.278L483.431 551.196Z" fill="#003B2F"/><path d="M1179.73 561.312C1180.39 560.823 1180.55 560.089 1180.22 559.354L1167.74 533.085L1211.23 541.814C1212.78 542.141 1214.16 541.488 1214.41 540.346C1214.65 539.204 1213.59 538.062 1212.04 537.817L1163.91 528.109C1162.93 527.946 1161.95 528.109 1161.3 528.598C1160.64 529.088 1160.48 529.822 1160.81 530.556L1173.29 556.825L1129.81 548.096C1128.26 547.77 1126.87 548.423 1126.62 549.565C1126.38 550.707 1127.44 551.849 1128.99 552.094L1177.12 561.802C1178.1 561.965 1179.08 561.802 1179.73 561.312Z" fill="#003B2F"/><path opacity="0.19" d="M464.343 66.4373L606.377 544.996C606.377 544.996 608.09 565.31 702.725 586.276C797.36 607.243 886.039 614.096 973.25 595.414C973.25 595.414 1044.8 581.3 1064.3 566.778C1083.79 552.257 1088.93 546.872 1089.83 538.714C1090.73 530.556 1245.9 66.4373 1245.9 66.4373H464.343Z" fill="url(#paint0_linear_674_2)"/><mask id="mask0_674_2" style="mask-type:luminance" maskUnits="userSpaceOnUse" x="543" y="66" width="125" height="125"><path d="M621.142 66.4373L543.507 113.214L590.284 190.848L667.918 144.072L621.142 66.4373Z" fill="white"/></mask><g mask="url(#mask0_674_2)"><path d="M629.139 167.424C650.596 154.535 657.53 126.634 644.558 105.178C631.587 83.7215 603.768 76.7871 582.312 89.7586C560.856 102.648 553.921 130.549 566.893 152.005C579.864 173.461 607.683 180.396 629.139 167.424Z" fill="#03FC9D"/><path d="M620.246 113.254C617.962 107.706 612.496 107.38 606.051 108.685L603.603 100.772L598.79 102.24L601.238 110.154L597.403 111.378L594.874 103.383L590.061 104.933L592.508 112.846L589.408 113.825L582.8 115.865L584.35 121.004C584.35 121.004 587.858 119.862 587.858 119.944C588.184 119.781 588.511 119.699 588.919 119.699C589.245 119.699 589.653 119.699 589.979 119.862C590.306 120.025 590.632 120.188 590.877 120.433C591.121 120.678 591.366 121.004 591.448 121.331L594.14 130.305L597.974 142.95C597.974 142.95 598.056 143.439 597.974 143.684C597.974 143.929 597.893 144.173 597.73 144.337C597.648 144.5 597.485 144.745 597.24 144.826C597.077 144.989 596.832 145.071 596.587 145.071L593.079 146.131L593.895 152.169L600.177 150.292L603.603 149.232L606.132 157.227L610.946 155.677L608.58 147.926L612.414 146.784L614.862 154.698L619.675 153.229L617.228 145.234C625.223 142.297 630.199 138.544 628.567 130.631C628.486 129.407 628.16 128.265 627.588 127.204C627.017 126.144 626.283 125.247 625.304 124.512C624.325 123.778 623.265 123.207 622.122 122.962C620.98 122.636 619.757 122.636 618.614 122.799C619.92 121.657 620.736 120.107 621.062 118.394C621.388 116.68 621.062 114.967 620.246 113.417V113.254ZM618.696 132.507C620.572 138.544 610.048 140.992 606.867 141.971L603.603 131.365C606.867 130.386 616.901 126.225 618.778 132.507H618.696ZM611.843 118.23C613.475 123.696 604.746 125.654 602.053 126.552L599.116 116.762C601.89 116.109 610.212 112.52 611.925 118.23H611.843Z" fill="#003B2F"/></g><mask id="mask1_674_2" style="mask-type:luminance" maskUnits="userSpaceOnUse" x="694" y="146" width="275" height="275"><path d="M731.774 146.126L694.473 382.976L931.322 420.277L968.624 183.428L731.774 146.126Z" fill="white"/></mask><g mask="url(#mask1_674_2)"><path d="M812.941 401.657C878.369 411.936 939.719 367.311 949.998 301.882C960.278 236.454 915.652 175.104 850.224 164.825C784.795 154.546 723.446 199.171 713.166 264.599C702.887 330.028 747.512 391.378 812.941 401.657Z" fill="#03FC9D"/><path d="M887.097 276.918C891.91 261.744 881.386 251.71 866.13 243.551L874.696 223.319L862.378 218.098L853.975 238.249L844.022 234.251L852.588 213.774L840.269 208.798L831.784 228.948L823.789 225.767L806.902 218.751L801.354 231.722C801.354 231.722 810.492 235.312 810.247 235.393C811.144 235.638 812.042 236.046 812.776 236.617C813.51 237.188 814.163 237.922 814.571 238.738C814.979 239.554 815.305 240.451 815.386 241.43C815.468 242.409 815.386 243.307 815.06 244.204L805.27 266.965L791.565 299.19C791.32 299.761 790.912 300.251 790.504 300.659C790.015 301.067 789.525 301.393 788.872 301.638C788.301 301.801 787.649 301.882 786.996 301.882C786.343 301.882 785.772 301.638 785.201 301.393L776.227 297.559L767.661 311.101L783.57 317.872L792.299 321.707L783.733 342.184L796.052 347.242L804.455 327.581L814.244 331.823L805.678 352.055L817.997 357.276L826.645 336.881C847.774 344.468 864.417 345.366 874.452 326.683C876.328 324.073 877.552 321.217 878.204 318.117C878.857 315.017 878.857 311.835 878.204 308.735C877.552 305.635 876.246 302.698 874.452 300.169C872.575 297.64 870.209 295.437 867.517 293.806C872.086 293.643 876.491 291.929 879.918 288.993C883.426 286.056 885.792 282.058 886.771 277.571V277L887.097 276.918ZM851.119 313.222C844.674 328.56 819.302 315.751 810.981 312.243L822.403 285.158C830.724 288.666 858.135 297.314 851.119 313.222ZM861.643 272.676C855.688 286.545 834.558 275.695 827.624 272.758L838.311 247.875C845.164 251.302 868.007 258.236 861.807 272.676H861.562H861.643Z" fill="#003B2F"/></g><mask id="mask2_674_2" style="mask-type:luminance" maskUnits="userSpaceOnUse" x="1019" y="283" width="104" height="103"><path d="M1083.87 283.165L1019.93 321.689L1058.46 385.628L1122.39 347.103L1083.87 283.165Z" fill="white"/></mask><g mask="url(#mask2_674_2)"><path d="M1090.48 366.414C1108.1 355.808 1113.81 332.802 1103.21 315.18C1092.6 297.558 1069.59 291.848 1051.97 302.453C1034.35 313.059 1028.64 336.065 1039.25 353.687C1049.85 371.308 1072.86 377.019 1090.48 366.414Z" fill="#03FC9D"/><path d="M1083.22 321.788C1081.34 317.22 1076.77 316.975 1071.55 318.036L1069.51 311.509L1065.52 312.733L1067.56 319.259L1064.37 320.32L1062.33 313.712L1058.42 315.017L1060.46 321.544L1057.93 322.359L1052.54 324.073L1053.85 328.315C1053.85 328.315 1056.79 327.336 1056.7 327.417C1056.95 327.254 1057.28 327.254 1057.52 327.254C1057.85 327.254 1058.09 327.254 1058.42 327.417C1058.66 327.499 1058.91 327.662 1059.15 327.907C1059.4 328.152 1059.56 328.396 1059.64 328.641L1061.84 335.984L1065.03 346.426C1065.03 346.426 1065.03 346.834 1065.03 346.997C1065.03 347.16 1064.94 347.405 1064.86 347.568C1064.78 347.731 1064.62 347.894 1064.46 347.976C1064.29 348.058 1064.13 348.139 1063.97 348.221L1061.03 349.118L1061.68 354.095L1066.82 352.545L1069.68 351.729L1071.72 358.337L1075.63 357.113L1073.67 350.75L1076.86 349.771L1078.9 356.297L1082.89 355.074L1080.85 348.466C1087.38 346.018 1091.54 342.918 1090.24 336.473C1090.24 335.494 1089.91 334.515 1089.42 333.699C1088.93 332.802 1088.28 332.068 1087.54 331.497C1086.73 330.926 1085.91 330.436 1084.93 330.191C1083.95 329.947 1082.97 329.947 1082 330.11C1083.06 329.131 1083.71 327.907 1083.95 326.439C1084.2 324.97 1083.95 323.583 1083.3 322.359V322.196L1083.22 321.788ZM1081.91 337.615C1083.46 342.592 1074.82 344.55 1072.12 345.447L1069.43 336.718C1072.12 335.902 1080.36 332.476 1081.91 337.697V337.615ZM1076.28 325.867C1077.67 330.354 1070.41 331.986 1068.21 332.72L1065.76 324.644C1068.04 324.073 1074.9 321.217 1076.37 325.867H1076.28Z" fill="#003B2F"/></g><path d="M987.036 399.291C987.444 399.454 987.934 399.373 988.26 399.291C988.586 399.209 988.913 398.801 989.076 398.394C989.402 397.578 988.913 396.599 988.097 396.272L962.48 387.217L969.415 357.603C969.659 356.705 969.088 355.808 968.191 355.645C967.294 355.4 966.396 355.971 966.233 356.868L958.972 387.87C958.809 388.685 959.217 389.501 960.033 389.746L987.036 399.291Z" fill="#003B2F"/><path d="M707.906 121.384L719.347 123.865L725.587 144.987C725.827 145.867 726.708 146.347 727.588 146.027C728.468 145.707 728.948 144.907 728.628 144.027L722.867 124.585L731.428 126.425C731.428 126.425 731.988 126.425 732.228 126.425C732.788 126.265 733.188 125.785 733.348 125.225C733.508 124.345 732.948 123.545 732.148 123.305L721.907 121.144L716.307 102.183C716.066 101.302 715.186 100.822 714.306 101.142C713.426 101.462 712.946 102.263 713.266 103.143L718.387 120.424L708.626 118.344C707.746 118.184 706.946 118.744 706.706 119.544C706.546 120.424 707.106 121.224 707.906 121.464V121.384Z" fill="#003B2F"/><path d="M624.445 305.391C624.445 305.391 624.906 305.391 625.136 305.237C625.367 305.16 625.674 304.93 625.827 304.7L637.58 287.416C637.887 286.955 637.964 286.418 637.734 285.88C637.503 285.419 637.042 285.035 636.505 285.035L620.143 283.499L630.206 268.75C630.513 268.29 630.59 267.752 630.36 267.291C630.129 266.83 629.668 266.446 629.13 266.369L608.391 263.681C607.853 263.681 607.315 263.834 607.008 264.295C606.701 264.756 606.624 265.294 606.778 265.831L622.985 304.469C623.216 305.084 623.907 305.468 624.522 305.391H624.445ZM610.541 267.06L626.212 269.134L617.071 282.654L610.541 267.137V267.06ZM618.684 286.495L633.586 287.877L624.752 300.859L618.761 286.495H618.684Z" fill="#003B2F"/><path d="M685.184 392.764L671.478 435.105C671.234 436.003 671.642 436.9 672.539 437.145C673.436 437.39 674.334 436.982 674.578 436.084L688.284 393.743C688.529 392.846 688.121 391.949 687.224 391.704C686.326 391.459 685.429 391.867 685.184 392.764Z" fill="#003B2F"/><path d="M1055.24 154.056C1055.24 154.056 1055.89 154.138 1056.14 154.056C1056.63 153.893 1057.12 153.567 1057.28 152.996L1062.83 136.679L1076.12 148.346C1076.78 148.917 1077.84 148.835 1078.41 148.182C1078.98 147.53 1078.9 146.469 1078.24 145.898L1063.97 133.416L1070.58 116.855C1070.82 116.202 1070.58 115.468 1070.09 114.979L1055.57 102.741C1055.16 102.415 1054.59 102.252 1054.1 102.415C1053.61 102.578 1053.2 102.904 1052.95 103.476L1046.75 120.934C1046.51 121.587 1046.75 122.239 1047.16 122.729L1060.13 134.477L1054.1 152.098C1053.77 152.914 1054.26 153.893 1055.08 154.138L1055.24 154.056ZM1055.32 106.739L1067.15 116.773L1061.44 131.132L1050.26 121.016L1055.32 106.82V106.739Z" fill="#003B2F"/><path d="M296.468 112.19L312.557 130.717" stroke="#003D2E" stroke-width="2.70255" stroke-linecap="round" stroke-linejoin="round"/><path d="M336.654 126.087L322.464 128.805" stroke="#003D2E" stroke-width="2.70255" stroke-linecap="round" stroke-linejoin="round"/><path d="M312.557 130.717L304.431 154.215" stroke="#003D2E" stroke-width="2.70255" stroke-linecap="round" stroke-linejoin="round"/><path d="M1428.82 94.2351H1575.21C1591.34 94.2351 1604.4 107.297 1604.4 123.423C1604.4 139.548 1591.34 152.61 1575.21 152.61H1428.82C1412.7 152.61 1399.64 139.548 1399.64 123.423C1399.64 107.297 1412.7 94.2351 1428.82 94.2351Z" fill="#E6E8EA"/><path d="M1356.45 128.643H1519.32C1537.25 128.643 1551.84 143.147 1551.84 161.164C1551.84 179.181 1537.34 193.684 1519.32 193.684H1356.45C1338.52 193.684 1323.93 179.181 1323.93 161.164C1323.93 143.237 1338.52 128.643 1356.45 128.643Z" fill="#E6E8EA"/><path d="M1265.82 377.487H1297.17" stroke="#003C2E" stroke-width="2.70255" stroke-linecap="round" stroke-linejoin="round"/><path d="M1379.95 343.074H1533.46" stroke="#00FF94" stroke-width="2.70255" stroke-linecap="round" stroke-linejoin="round"/><path d="M1337.7 377.396H1464.81" stroke="#003C2E" stroke-width="2.70255" stroke-linecap="round" stroke-linejoin="round"/><path d="M376.408 310.005H332.627C346.5 310.005 357.761 299.825 357.761 287.213C357.761 274.601 346.5 264.422 332.627 264.422H206.868C192.995 264.422 181.735 274.601 181.735 287.213H143.088C129.215 287.213 117.955 297.393 117.955 310.005C117.955 322.617 129.215 332.796 143.088 332.796H225.516C225.516 345.408 236.777 355.588 250.65 355.588H376.408C390.282 355.588 401.542 345.408 401.542 332.796C401.542 320.184 390.282 310.005 376.408 310.005Z" fill="#00FF94"/><path d="M1351.04 480.295L1359.68 498.673" stroke="#163B2F" stroke-width="2.70255" stroke-linecap="round" stroke-linejoin="round"/><path d="M1365.99 512.185L1374.64 530.563" stroke="#163B2F" stroke-width="2.70255" stroke-linecap="round" stroke-linejoin="round"/><path d="M1337.7 517.23L1356.08 508.582" stroke="#163B2F" stroke-width="2.70255" stroke-linecap="round" stroke-linejoin="round"/><path d="M1369.59 502.276L1387.97 493.628" stroke="#163B2F" stroke-width="2.70255" stroke-linecap="round" stroke-linejoin="round"/><path d="M309.166 480.83C316.757 480.83 322.91 474.676 322.91 467.085C322.91 459.495 316.757 453.341 309.166 453.341C301.575 453.341 295.421 459.495 295.421 467.085C295.421 474.676 301.575 480.83 309.166 480.83Z" stroke="#003B2F" stroke-width="3" stroke-linecap="round" stroke-linejoin="round"/><path d="M88.5083 616.548L109.327 628.575" stroke="#003B2F" stroke-width="3" stroke-linecap="round" stroke-linejoin="round"/><path d="M130.23 616.548L117.955 623.599" stroke="#003B2F" stroke-width="3" stroke-linecap="round" stroke-linejoin="round"/><path d="M109.328 628.576V652.879" stroke="#003B2F" stroke-width="3" stroke-linecap="round" stroke-linejoin="round"/><path d="M88.5083 685.89H239.385" stroke="#03FC9D" stroke-width="3" stroke-linecap="round" stroke-linejoin="round"/><path d="M206.539 719.151H322.91" stroke="#003B2F" stroke-width="3" stroke-linecap="round" stroke-linejoin="round"/><path d="M1696.27 610.615H1660.7C1671.9 610.615 1681.14 601.491 1681.14 590.172C1681.14 578.854 1672.02 569.73 1660.7 569.73H1558.49C1547.28 569.73 1538.04 578.854 1538.04 590.172H1506.63C1495.43 590.172 1486.19 599.296 1486.19 610.615C1486.19 621.933 1495.31 631.057 1506.63 631.057H1573.62C1573.62 642.26 1582.74 651.5 1594.06 651.5H1696.27C1707.47 651.5 1716.71 642.376 1716.71 631.057C1716.71 619.739 1707.59 610.615 1696.27 610.615Z" fill="#03FC9D"/><path d="M1436.71 694.576H1614.46C1634.04 694.576 1649.92 678.702 1649.92 659.12C1649.92 639.537 1634.04 623.663 1614.46 623.663H1436.71C1417.13 623.663 1401.26 639.537 1401.26 659.12C1401.26 678.702 1417.13 694.576 1436.71 694.576Z" fill="#E6E8EA"/></g><defs><linearGradient id="paint0_linear_674_2" x1="855.12" y1="66.4373" x2="855.12" y2="606.307" gradientUnits="userSpaceOnUse"><stop stop-color="#03FC9E" stop-opacity="0"/><stop offset="1" stop-color="#03FC9E"/></linearGradient><clipPath id="clip0_674_2"><rect width="1675.05" height="857" fill="white" transform="translate(0.645996 0.446045)"/></clipPath></defs></svg>