<svg width="1676" height="858" viewBox="0 0 1676 858" fill="none" xmlns="http://www.w3.org/2000/svg"><path d="M1353.67 620.817H1454.97C1466.14 620.817 1475.2 611.775 1475.2 600.622C1475.2 589.468 1466.14 580.426 1454.97 580.426H1353.67C1342.49 580.426 1333.44 589.468 1333.44 600.622C1333.44 611.775 1342.49 620.817 1353.67 620.817Z" fill="#E6E8EA"/><path d="M1405.86 673.878H1566.99C1584.77 673.878 1599.18 659.486 1599.18 641.732C1599.18 623.978 1584.77 609.585 1566.99 609.585H1405.86C1388.09 609.585 1373.68 623.978 1373.68 641.732C1373.68 659.486 1388.09 673.878 1405.86 673.878Z" fill="#03FC9D"/><path d="M420.597 119.368H597.21" stroke="#003B2F" stroke-width="3" stroke-linecap="round" stroke-linejoin="round"/><path d="M374.468 119.368H389.814" stroke="#003B2F" stroke-width="3" stroke-linecap="round" stroke-linejoin="round"/><path d="M507.984 70.7588H665.116" stroke="#03FC9D" stroke-width="3" stroke-linecap="round" stroke-linejoin="round"/><path d="M1467.32 374.639L1489 387.136" stroke="#003B2F" stroke-width="3" stroke-linecap="round" stroke-linejoin="round"/><path d="M1510.69 374.639L1497.92 381.99" stroke="#003B2F" stroke-width="3" stroke-linecap="round" stroke-linejoin="round"/><path d="M1489 387.136V412.498" stroke="#003B2F" stroke-width="3" stroke-linecap="round" stroke-linejoin="round"/><path d="M1105.73 792.647H1167.94" stroke="#003B2F" stroke-width="3" stroke-linecap="round" stroke-linejoin="round"/><path d="M1058.5 792.647H1074.21" stroke="#003B2F" stroke-width="3" stroke-linecap="round" stroke-linejoin="round"/><path d="M1114.73 747.896H1275.82" stroke="#03FC9D" stroke-width="3" stroke-linecap="round" stroke-linejoin="round"/><path d="M298.292 165.589H262.271C273.666 165.589 282.855 157.227 282.855 146.844C282.855 136.46 273.666 128.098 262.271 128.098H158.895C147.501 128.098 138.312 136.46 138.312 146.844H106.61C95.2154 146.844 86.0264 155.206 86.0264 165.589C86.0264 175.973 95.2154 184.335 106.61 184.335H174.333C174.333 194.626 183.522 203.08 194.916 203.08H298.292C309.687 203.08 318.876 194.718 318.876 184.335C318.876 173.951 309.687 165.589 298.292 165.589Z" fill="#E6E8EA"/><path d="M194.853 403.266L175.75 384.163L156.647 403.266L175.75 422.369L194.853 403.266Z" stroke="#003B2F" stroke-width="3" stroke-linecap="round" stroke-linejoin="round"/><path d="M983.515 87.7583L998.218 102.461" stroke="#003B2F" stroke-width="3" stroke-linecap="round" stroke-linejoin="round"/><path d="M1008.97 113.12L1023.58 127.822" stroke="#003B2F" stroke-width="3" stroke-linecap="round" stroke-linejoin="round"/><path d="M983.515 127.822L998.218 113.12" stroke="#003B2F" stroke-width="3" stroke-linecap="round" stroke-linejoin="round"/><path d="M1008.97 102.461L1023.58 87.7582" stroke="#003B2F" stroke-width="3" stroke-linecap="round" stroke-linejoin="round"/><path d="M831.07 751.204C1000.88 751.204 1138.53 613.548 1138.53 443.74C1138.53 273.933 1000.88 136.276 831.07 136.276C661.263 136.276 523.606 273.933 523.606 443.74C523.606 613.548 661.263 751.204 831.07 751.204Z" fill="#03FC9D"/><path d="M755.721 552.998L781.45 480.772L739.18 362.05H640.95L708.949 552.722C712.349 562.095 721.721 568.435 732.289 568.711C742.856 568.527 752.229 562.279 755.721 552.906V552.998Z" fill="#003B2F"/><path d="M877.842 364.256C874.902 356.261 867.551 349.094 858.637 348.91C849.265 348.726 841.362 356.169 838.33 364.623L837.503 366.829L802.125 467.908L770.055 557.868C768.585 561.819 766.38 565.587 763.715 568.895H846.508C857.075 568.711 866.54 562.279 870.032 552.906L870.859 550.609L906.236 449.621L907.247 446.681L877.842 364.256Z" fill="#003B2F"/><path d="M927.371 458.167H1025.51L992.062 364.44C988.662 355.067 979.197 348.635 968.538 348.451H885.745C888.41 351.667 890.615 355.434 892.086 359.386L927.279 458.167H927.371Z" fill="#003B2F"/><path d="M1466.31 171.693L1521.99 200.914L1447.19 216.995L1466.31 171.693Z" fill="#E6E8EA" stroke="#003B2F" stroke-width="3" stroke-linecap="round" stroke-linejoin="round"/><path d="M1466.31 171.693L1418.89 284.258L1362.56 184.374L1466.31 171.693Z" fill="#E6E8EA" stroke="#003B2F" stroke-width="3" stroke-linecap="round" stroke-linejoin="round"/><path d="M1418.89 284.258L1298.88 71.6246L1277.56 210.287L1319.65 330.387L1418.89 284.258Z" fill="#E6E8EA" stroke="#003B2F" stroke-width="3" stroke-linecap="round" stroke-linejoin="round"/><path d="M1298.88 71.6246L1122.91 110.035L1277.56 210.287L1298.88 71.6246Z" fill="#E6E8EA" stroke="#003B2F" stroke-width="3" stroke-linecap="round" stroke-linejoin="round"/><path d="M1289.33 244.01L1217.28 359.7L1307.15 422.369L1319.65 330.387L1289.33 244.01Z" fill="#E6E8EA" stroke="#003B2F" stroke-width="3" stroke-linecap="round" stroke-linejoin="round"/><path d="M226.989 551.389L260.345 580.426L223.13 577.118L226.989 551.389Z" fill="#E6E8EA" stroke="#003B2F" stroke-width="3" stroke-linecap="round" stroke-linejoin="round"/><path d="M226.989 551.389L195.838 559.292L131.056 676.543L211.092 656.328L226.989 551.389Z" fill="#E6E8EA" stroke="#003B2F" stroke-width="3" stroke-linecap="round" stroke-linejoin="round"/><path d="M145.575 650.355L52.9496 607.626L58.9224 631.333L131.056 676.543L145.575 650.355Z" fill="#E6E8EA" stroke="#003B2F" stroke-width="3" stroke-linecap="round" stroke-linejoin="round"/><path d="M181.779 584.837L118.467 525.017L104.132 620.858L145.574 650.355L181.779 584.837Z" fill="#E6E8EA" stroke="#003B2F" stroke-width="3" stroke-linecap="round" stroke-linejoin="round"/><path d="M215.87 626.371L97.6997 600.091L68.7544 718.629L215.87 626.371Z" fill="#E6E8EA" stroke="#003B2F" stroke-width="3" stroke-linecap="round" stroke-linejoin="round"/><path d="M549.151 315.002L595.464 337.148L542.259 347.347L549.151 315.002Z" fill="#E6E8EA" stroke="#003B2F" stroke-width="3" stroke-linecap="round" stroke-linejoin="round"/><path d="M549.151 315.002L490.525 347.347L532.243 394.854L549.151 315.002Z" fill="#E6E8EA" stroke="#003B2F" stroke-width="3" stroke-linecap="round" stroke-linejoin="round"/><path d="M532.243 394.855L449.634 300.759L398.359 396.325L532.243 394.855Z" fill="#E6E8EA" stroke="#003B2F" stroke-width="3" stroke-linecap="round" stroke-linejoin="round"/><path d="M449.634 300.759L328.799 295.062L398.36 396.325L449.634 300.759Z" fill="#E6E8EA" stroke="#003B2F" stroke-width="3" stroke-linecap="round" stroke-linejoin="round"/><path d="M342.583 315.186L317.313 319.964L398.36 396.325L342.583 315.186Z" fill="#E6E8EA" stroke="#003B2F" stroke-width="3" stroke-linecap="round" stroke-linejoin="round"/><path d="M532.243 394.854L416.002 438.043L398.359 396.325L532.243 394.854Z" fill="#E6E8EA" stroke="#003B2F" stroke-width="3" stroke-linecap="round" stroke-linejoin="round"/><path d="M398.36 396.325L374.56 492.074L416.002 438.043L398.36 396.325Z" fill="#E6E8EA" stroke="#003B2F" stroke-width="3" stroke-linecap="round" stroke-linejoin="round"/><path d="M505.043 621.823L543.361 655.546L509.454 662.346L505.043 621.823Z" fill="#E6E8EA" stroke="#003B2F" stroke-width="3" stroke-linecap="round" stroke-linejoin="round"/><path d="M505.044 621.823L373.365 704.156L364.176 736.685L490.066 718.675L509.454 662.346L505.044 621.823Z" fill="#E6E8EA" stroke="#003B2F" stroke-width="3" stroke-linecap="round" stroke-linejoin="round"/><path d="M373.365 704.156L364.176 736.685L320.529 692.67V679.254L373.365 704.156Z" fill="#E6E8EA" stroke="#003B2F" stroke-width="3" stroke-linecap="round" stroke-linejoin="round"/><path d="M489.423 666.665L436.77 698.367L524.157 776.75L489.423 666.665Z" fill="#E6E8EA" stroke="#003B2F" stroke-width="3" stroke-linecap="round" stroke-linejoin="round"/><path d="M1204.7 530.944L1242.74 549.138L1199 557.5L1204.7 530.944Z" fill="#E6E8EA" stroke="#003B2F" stroke-width="3" stroke-linecap="round" stroke-linejoin="round"/><path d="M1204.7 530.944L1156.45 557.5L1190.73 596.461L1204.7 530.944Z" fill="#E6E8EA" stroke="#003B2F" stroke-width="3" stroke-linecap="round" stroke-linejoin="round"/><path d="M1190.73 596.461L1122.91 519.274L1080.83 597.748L1190.73 596.461Z" fill="#E6E8EA" stroke="#003B2F" stroke-width="3" stroke-linecap="round" stroke-linejoin="round"/><path d="M1122.91 519.274L1023.58 514.495L1080.83 597.748L1122.91 519.274Z" fill="#E6E8EA" stroke="#003B2F" stroke-width="3" stroke-linecap="round" stroke-linejoin="round"/><path d="M1034.97 531.036L1014.21 534.987L1080.83 597.748L1034.97 531.036Z" fill="#E6E8EA" stroke="#003B2F" stroke-width="3" stroke-linecap="round" stroke-linejoin="round"/><path d="M1190.73 596.461L1095.25 632.023L1080.83 597.748L1190.73 596.461Z" fill="#E6E8EA" stroke="#003B2F" stroke-width="3" stroke-linecap="round" stroke-linejoin="round"/><path d="M1080.83 597.748L1061.25 676.406L1095.25 632.023L1080.83 597.748Z" fill="#E6E8EA" stroke="#003B2F" stroke-width="3" stroke-linecap="round" stroke-linejoin="round"/></svg>