<?xml version="1.0" encoding="UTF-8"?><svg id="Layer_1" data-name="Layer 1" xmlns="http://www.w3.org/2000/svg" viewBox="0 0 192 108"><defs><style>.cls-1, .cls-2 {
        fill: #e3e7e3;
      }

      .cls-1, .cls-3, .cls-4, .cls-5, .cls-6 {
        stroke-linecap: round;
        stroke-linejoin: round;
        stroke-width: .3px;
      }

      .cls-1, .cls-5 {
        stroke: #003d2e;
      }

      .cls-7 {
        fill: #00ff94;
      }

      .cls-8 {
        fill: #004734;
      }

      .cls-9 {
        fill: #003d2e;
      }

      .cls-10 {
        fill: #003c2e;
      }

      .cls-11 {
        fill: rgba(0, 61, 46, .8);
      }

      .cls-3 {
        stroke: #00ff94;
      }

      .cls-3, .cls-4, .cls-5, .cls-6 {
        fill: none;
      }

      .cls-4 {
        stroke: #003c2e;
      }

      .cls-6 {
        stroke: #163b2f;
      }</style></defs><line class="cls-4" x1="161.08" y1="65.78" x2="175.11" y2="65.78"/><g><line class="cls-5" x1="180.9" y1="69.04" x2="183" y2="67.83"/><line class="cls-5" x1="185.09" y1="69.04" x2="183.86" y2="68.33"/><line class="cls-5" x1="183" y1="67.83" x2="183" y2="65.38"/></g><path class="cls-2" d="M38.74,14.11h-4.84c1.53,0,2.77-1.24,2.77-2.77s-1.24-2.77-2.77-2.77h-13.9c-1.53,0-2.77,1.24-2.77,2.77h-4.26c-1.53,0-2.77,1.24-2.77,2.77s1.24,2.77,2.77,2.77h9.1c0,1.53,1.24,2.77,2.77,2.77h13.9c1.53,0,2.77-1.24,2.77-2.77s-1.24-2.77-2.77-2.77Z"/><g><line class="cls-6" x1="42.62" y1="6.84" x2="42.62" y2="9.18"/><line class="cls-6" x1="42.62" y1="10.9" x2="42.62" y2="13.24"/><line class="cls-6" x1="39.42" y1="10.04" x2="41.76" y2="10.04"/><line class="cls-6" x1="43.47" y1="10.04" x2="45.82" y2="10.04"/></g><path class="cls-7" d="M18.32,11.26H.27c.06,3.27,0,6.45-.05,9.64H18.32c2.66,0,4.82-2.16,4.82-4.82s-2.16-4.82-4.82-4.82Z"/><g><path class="cls-1" d="M88.04,12.92c-.05-1.76-.9-2.65-1.78-3.46,.84,.8,1.72,1.82,1.78,3.46Z"/><line class="cls-5" x1="85.59" y1="8.9" x2="86.57" y2="9.29"/><g><path class="cls-1" d="M51.21,71.01s0,0,.01,0c0,0,.02,0,.03,0,.07-.01,.22-.09,.42-.21,.05-.03,.11-.07,.17-.11,.04-.03,.08-.05,.12-.08,.06-.04,.14-.09,.21-.14,.01,0,.03-.02,.05-.03,.08-.06,.18-.12,.27-.18,.11-.08,.23-.16,.36-.25,.14-.1,.28-.2,.43-.31,.04-.02,.07-.05,.11-.08,.13-.09,.26-.19,.4-.29,.05-.03,.09-.07,.14-.1,.09-.07,.18-.13,.28-.2,.36-.27,.74-.54,1.12-.83,.12-.09,.24-.18,.36-.27,.12-.09,.24-.18,.36-.27,.11-.08,.22-.17,.33-.25,.09-.06,.17-.13,.26-.19,1.72-1.3,3.27-2.49,3.59-2.74l1.51-1.37c.55-.49,.96-.87,1.4-1.26,0,0,0,0,0,0,.05-.05,.09-.09,.13-.14,.01,0,.02-.02,.03-.03,0,0,0,0,0,0h0c.43-.46,.76-.84,.76-.84,.47-.57,.64-.74,1.04-1.61,.52-1.14,.58-2.13,.62-2.93,.06-1.18-.09-2.16-.28-3.31-.17-1.06-.22-.95-.25-1.43-.02-.34-.05-1.25,.69-3.38,.25-.71,.63-1.62,1.12-2.68,.59-1.3,2.69-4.58,2.69-4.58l4.15-6.5,5.67-7.8s5.44-7.13,6.21-8.11c.77-.97,2.32-3.22,2.33-5.4,0-.06,0-.13,0-.19-.05-1.76-.9-2.65-1.78-3.46,0,0-.02-.01-.02-.02-.13-.12-.25-.23-.37-.34,0,0-.01,0-.02-.01-1.03-.97-2.11,1.2-2.11,1.2l-3.58,8.63s-3.96,7.69-3.93,7.84c.04,.15-10.25,17.93-10.25,17.93-.67,1.2-1.08,1.93-1.32,2.65s-.3,.91-.5,1.6c-.07,.26-.2,.7-.37,.87-.31,.3-.44,0-.84,.16-.37,.14-.58,.46-1,1.09-.26,.38-.59,.94-.88,1.68,0,0-.79,1.81-2.23,3.5l-9.41,8.87c-.22,.2-1.09,.83-.78,1.05h0c.21,.13,3.07-2.13,5.45-4.05,1.62-1.31,3.06-2.48,3.37-2.74l2.05-1.91c.08-.07,.21-.07,.27,.02l.13,.18c.06,.07,.05,.18-.02,.25l-5.74,5.42s0,0,0,0l-3.7,3.49c-.22,.2-1.09,.83-.78,1.05,0,0,0,0,0,0s0,0,0,0c.01,0,.03,0,.06-.01,.49-.17,3.11-2.23,5.36-4.03,1.49-1.2,2.71-2.39,3.16-2.77,.07-.06,.13-.11,.2-.17l2.27-2.12,.25,.27c.06,.07,.05,.18-.02,.24l-7.43,7.04-2.14,2.03c-.22,.2-1.09,.84-.78,1.05,0,0,0,0,0,0,.21,.09,3.03-2.13,5.43-4.06,1.62-1.31,3.06-2.49,3.36-2.75l2.34-2.2c.08-.07,.21-.06,.27,.02l.2,.26c.06,.08,.05,.19-.02,.25l-8.32,7.38s-.01,0-.02,.01l-1.86,1.65c-.23,.19-1.11,.8-.81,1.03,0,0,0,0,0,0Zm10.73-8.08l1.19-1.08h0s-1.19,1.08-1.19,1.08Z"/><path class="cls-1" d="M52.26,71.43c.37,.15,8.23-5.91,9.01-6.52l1.48-1.35,1.42-1.29h0s-1.42,1.29-1.42,1.29c.57-.5,.97-.88,1.43-1.28h0s.08-.09,.12-.13l.04-.04s0,0,0,0h0c.43-.46,.76-.84,.76-.84,.47-.57,.64-.74,1.04-1.61,.52-1.14,.58-2.13,.62-2.93,.06-1.18-.09-2.16-.28-3.31-.17-1.06-.22-.95-.25-1.43-.02-.34-.05-1.25,.69-3.38,.25-.71,.63-1.62,1.12-2.68,.59-1.3,2.69-4.58,2.69-4.58l4.15-6.5,5.67-7.8s5.44-7.13,6.21-8.11c.77-.97,2.32-3.22,2.33-5.4,0-2.18-1.17-3.06-2.2-4.02-.11-.1-.22-.17-.33-.21-.05-.02-.13-.05-.22-.09-.17-.07-.38-.14-.49-.11,.12,.11,.24,.23,.37,.34,0,0,.02,.02,.02,.02,.88,.81,1.73,1.69,1.78,3.46,0,.06,0,.12,0,.19,0,2.18-1.56,4.43-2.33,5.4-.77,.97-6.21,8.11-6.21,8.11l-5.67,7.8-4.15,6.5s-2.1,3.28-2.69,4.58c-.48,1.07-.87,1.98-1.12,2.68-.74,2.14-.71,3.04-.69,3.38,.03,.48,.08,.37,.25,1.43,.18,1.15,.34,2.13,.28,3.31-.04,.8-.1,1.79-.62,2.93-.4,.87-.57,1.04-1.04,1.61,0,0-.33,.38-.76,.83h0s0,.01,0,.02c0,.01-.02,.02-.03,.03-.04,.04-.08,.09-.13,.14,0,0,0,0,0,0-.44,.39-.85,.77-1.4,1.26l-1.51,1.37c-.33,.25-1.87,1.45-3.59,2.74-.08,.06-.17,.13-.26,.19-.11,.08-.22,.17-.33,.25-.12,.09-.24,.18-.36,.27-.12,.09-.24,.18-.36,.27-.38,.28-.76,.56-1.12,.83-.09,.07-.19,.14-.28,.2-.04,.04-.09,.07-.14,.1-.14,.1-.27,.19-.4,.29-.04,.03-.07,.05-.11,.08-.15,.11-.29,.21-.43,.31-.12,.09-.24,.17-.36,.25-.09,.06-.18,.12-.27,.18-.02,.01-.03,.02-.05,.03-.07,.05-.14,.1-.21,.14-.04,.03-.09,.05-.12,.08-.06,.04-.12,.08-.17,.11-.2,.12-.35,.2-.42,.21,0,0,0,0-.01,0,0,0,0,0,0,0l1.02,.41Z"/><polygon class="cls-1" points="63.13 61.84 61.94 62.93 63.13 61.85 63.13 61.84"/><path class="cls-1" d="M50.73,68.29c.14,.05,1.34-.82,2.81-1.97l7.43-7.04c.07-.07,.08-.17,.02-.24l-.25-.27-2.27,2.12c-.06,.06-.13,.12-.2,.17-.45,.37-1.67,1.57-3.16,2.77-2.25,1.81-4.93,3.87-5.42,4.04l1.04,.42Z"/><path class="cls-1" d="M50.63,69.41l1.05,.42c.12,.05,1.02-.6,2.2-1.5,0,0,.01,0,.02-.01l8.32-7.38c.07-.06,.08-.17,.02-.25l-.2-.26c-.07-.09-.19-.1-.27-.02l-2.34,2.2c-.31,.26-1.74,1.44-3.36,2.75-2.4,1.94-5.22,4.15-5.43,4.06Z"/><path class="cls-1" d="M49.71,66.58c.19,.07,2.32-1.57,4.45-3.26,0,0,0,0,0,0l5.74-5.42c.07-.06,.08-.17,.02-.25l-.13-.17c-.07-.09-.19-.1-.27-.02l-2.05,1.91c-.31,.26-1.74,1.43-3.37,2.74-2.38,1.91-5.17,4.1-5.44,4.05l1.03,.41s0,0,0,0Z"/></g></g><g><path class="cls-1" d="M94.84,13.04c.05-1.76,.9-2.65,1.78-3.46-.84,.8-1.72,1.82-1.78,3.46Z"/><line class="cls-5" x1="97.29" y1="9.02" x2="96.31" y2="9.42"/><g><path class="cls-1" d="M131.68,71.13c.3-.23-.59-.83-.81-1.03l-1.86-1.65s-.01,0-.02-.01l-8.32-7.38c-.07-.06-.08-.17-.02-.25l.2-.26c.07-.09,.19-.1,.27-.02l2.34,2.2c.31,.26,1.74,1.44,3.36,2.75,2.4,1.94,5.22,4.15,5.43,4.06,0,0,0,0,0,0,.31-.22-.56-.85-.78-1.05l-2.14-2.03-7.43-7.04c-.07-.07-.08-.17-.02-.24l.25-.27,2.27,2.12c.06,.06,.13,.12,.2,.17,.45,.37,1.67,1.57,3.16,2.77,2.25,1.81,4.87,3.86,5.36,4.03,.03,.01,.05,.02,.06,.01,0,0,0,0,0,0s0,0,0,0c.3-.22-.56-.85-.78-1.05l-3.7-3.49s0,0,0,0l-5.74-5.42c-.07-.06-.08-.17-.02-.25l.13-.18c.07-.09,.19-.1,.27-.02l2.05,1.91c.31,.26,1.74,1.43,3.37,2.74,2.38,1.91,5.24,4.17,5.45,4.05h0c.3-.22-.57-.85-.78-1.05l-9.41-8.87c-1.45-1.69-2.23-3.5-2.23-3.5-.29-.74-.63-1.29-.88-1.68-.42-.63-.63-.95-1-1.09-.4-.15-.52,.15-.84-.16-.17-.16-.29-.61-.37-.87-.2-.69-.26-.9-.5-1.6-.24-.72-.65-1.45-1.32-2.65,0,0-10.29-17.78-10.25-17.93,.04-.15-3.93-7.84-3.93-7.84l-3.58-8.63s-1.07-2.17-2.11-1.2c0,0-.01,0-.02,.01-.12,.11-.24,.23-.37,.34,0,0-.02,.02-.02,.02-.88,.81-1.73,1.69-1.78,3.46,0,.06,0,.12,0,.19,0,2.18,1.56,4.43,2.33,5.4,.77,.97,6.21,8.11,6.21,8.11l5.67,7.8,4.15,6.5s2.1,3.28,2.69,4.58c.48,1.07,.87,1.98,1.12,2.68,.74,2.14,.71,3.04,.69,3.38-.03,.48-.08,.37-.25,1.43-.18,1.15-.34,2.13-.28,3.31,.04,.8,.1,1.79,.62,2.93,.4,.87,.57,1.04,1.04,1.61,0,0,.33,.38,.76,.83h0s0,.01,0,.02c0,.01,.02,.02,.03,.03,.04,.04,.08,.09,.13,.14,0,0,0,0,0,0,.44,.39,.85,.77,1.4,1.26l1.51,1.37c.33,.25,1.87,1.45,3.59,2.74,.08,.06,.17,.13,.26,.19,.11,.08,.22,.17,.33,.25,.12,.09,.24,.18,.36,.27,.12,.09,.24,.18,.36,.27,.38,.28,.76,.56,1.12,.83,.09,.07,.19,.14,.28,.2,.04,.04,.09,.07,.14,.1,.14,.1,.27,.19,.4,.29,.04,.03,.07,.05,.11,.08,.15,.11,.3,.21,.43,.31,.12,.09,.24,.17,.36,.25,.09,.06,.18,.12,.27,.18,.02,.01,.03,.02,.05,.03,.07,.05,.14,.1,.21,.14,.04,.03,.09,.05,.12,.08,.06,.04,.12,.08,.17,.11,.2,.12,.35,.2,.42,.21,.01,0,.02,0,.03,0,0,0,0,0,.01,0s0,0,0,0Zm-11.93-9.15h0s1.19,1.08,1.19,1.08l-1.19-1.08Z"/><path class="cls-1" d="M130.62,71.55c-.37,.15-8.23-5.91-9.01-6.52l-1.48-1.35-1.42-1.29h0s1.42,1.29,1.42,1.29c-.57-.5-.97-.88-1.43-1.28h0s-.08-.09-.12-.13l-.04-.04s0,0,0,0h0c-.43-.46-.76-.84-.76-.84-.47-.57-.64-.74-1.04-1.61-.52-1.14-.58-2.13-.62-2.93-.06-1.18,.09-2.16,.28-3.31,.17-1.06,.22-.95,.25-1.43,.02-.34,.05-1.25-.69-3.38-.25-.71-.63-1.62-1.12-2.68-.59-1.3-2.69-4.58-2.69-4.58l-4.15-6.5-5.67-7.8s-5.44-7.13-6.21-8.11c-.77-.97-2.32-3.22-2.33-5.4,0-2.18,1.17-3.06,2.2-4.02,.11-.1,.22-.17,.33-.21,.05-.02,.13-.05,.22-.09,.17-.07,.38-.14,.49-.11-.12,.11-.24,.23-.37,.34,0,0-.02,.02-.02,.02-.88,.81-1.73,1.69-1.78,3.46,0,.06,0,.12,0,.19,0,2.18,1.56,4.43,2.33,5.4,.77,.97,6.21,8.11,6.21,8.11l5.67,7.8,4.15,6.5s2.1,3.28,2.69,4.58c.48,1.07,.87,1.98,1.12,2.68,.74,2.14,.71,3.04,.69,3.38-.03,.48-.08,.37-.25,1.43-.18,1.15-.34,2.13-.28,3.31,.04,.8,.1,1.79,.62,2.93,.4,.87,.57,1.04,1.04,1.61,0,0,.33,.38,.76,.83h0s0,.01,0,.02c0,.01,.02,.02,.03,.03,.04,.04,.08,.09,.13,.14,0,0,0,0,0,0,.44,.39,.85,.77,1.4,1.26l1.51,1.37c.33,.25,1.87,1.45,3.59,2.74,.08,.06,.17,.13,.26,.19,.11,.08,.22,.17,.33,.25,.12,.09,.24,.18,.36,.27,.12,.09,.24,.18,.36,.27,.38,.28,.76,.56,1.12,.83,.09,.07,.19,.14,.28,.2,.04,.04,.09,.07,.14,.1,.14,.1,.27,.19,.4,.29,.04,.03,.07,.05,.11,.08,.15,.11,.29,.21,.43,.31,.12,.09,.24,.17,.36,.25,.09,.06,.18,.12,.27,.18,.02,.01,.03,.02,.05,.03,.07,.05,.14,.1,.21,.14,.04,.03,.09,.05,.12,.08,.06,.04,.12,.08,.17,.11,.2,.12,.35,.2,.42,.21,0,0,0,0,.01,0,0,0,0,0,0,0l-1.02,.41Z"/><polygon class="cls-1" points="119.75 61.97 120.94 63.05 119.75 61.97 119.75 61.97"/><path class="cls-1" d="M132.15,68.42c-.14,.05-1.34-.82-2.81-1.97l-7.43-7.04c-.07-.07-.08-.17-.02-.24l.25-.27,2.27,2.12c.06,.06,.13,.12,.2,.17,.45,.37,1.67,1.57,3.16,2.77,2.25,1.81,4.93,3.87,5.42,4.04l-1.04,.42Z"/><path class="cls-1" d="M132.26,69.54l-1.05,.42c-.12,.05-1.02-.6-2.2-1.5,0,0-.01,0-.02-.01l-8.32-7.38c-.07-.06-.08-.17-.02-.25l.2-.26c.07-.09,.19-.1,.27-.02l2.34,2.2c.31,.26,1.74,1.44,3.36,2.75,2.4,1.94,5.22,4.15,5.43,4.06Z"/><path class="cls-1" d="M133.17,66.7c-.19,.07-2.32-1.57-4.45-3.26,0,0,0,0,0,0l-5.74-5.42c-.07-.06-.08-.17-.02-.25l.13-.17c.07-.09,.19-.1,.27-.02l2.05,1.91c.31,.26,1.74,1.43,3.37,2.74,2.38,1.91,5.17,4.1,5.44,4.05l-1.03,.41s0,0,0,0Z"/></g></g><line class="cls-4" x1="88.23" y1="48.51" x2="91.09" y2="48.51"/><line class="cls-3" x1="77.48" y1="44.64" x2="98.12" y2="44.64"/><line class="cls-4" x1="94.77" y1="48.49" x2="106.31" y2="48.49"/><rect class="cls-5" x="153.68" y="9.33" width="2.41" height="2.41" transform="translate(52.82 -106.43) rotate(45)"/><path class="cls-2" d="M174.49,17.85h-3.83c1.21,0,2.19-.89,2.19-1.99s-.98-1.99-2.19-1.99h-10.99c-1.21,0-2.19,.89-2.19,1.99h-3.37c-1.21,0-2.19,.89-2.19,1.99s.98,1.99,2.19,1.99h7.2c0,1.1,.98,1.99,2.19,1.99h10.99c1.21,0,2.19-.89,2.19-1.99s-.98-1.99-2.19-1.99Z"/><line class="cls-4" x1="167.81" y1="16.43" x2="170.55" y2="16.43"/><line class="cls-3" x1="163.84" y1="9.14" x2="183.71" y2="9.14"/><line class="cls-4" x1="174.09" y1="16.42" x2="185.2" y2="16.42"/><line class="cls-5" x1="17.87" y1="83.56" x2="20.38" y2="85.01"/><line class="cls-5" x1="22.9" y1="83.56" x2="21.42" y2="84.41"/><line class="cls-5" x1="20.38" y1="85.01" x2="20.38" y2="87.94"/><line class="cls-3" x1="17.87" y1="91.92" x2="36.06" y2="91.92"/><line class="cls-4" x1="27.19" y1="95.91" x2="41.22" y2="95.91"/><line class="cls-4" x1="59.01" y1="69.03" x2="71.44" y2="76.41"/><line class="cls-4" x1="117.98" y1="69.53" x2="105.56" y2="76.9"/><circle class="cls-4" cx="149.8" cy="91.84" r="2.11"/><rect class="cls-7" x="152.02" y="93.95" width="20.65" height="5.89" rx="2.94" ry="2.94" transform="translate(324.68 193.78) rotate(-180)"/><rect class="cls-7" x="154.64" y="88.39" width="33.82" height="9.64" rx="4.82" ry="4.82" transform="translate(343.09 186.43) rotate(-180)"/><g><polygon class="cls-7" points="88.64 69.03 76.19 76.21 88.64 83.4 101.1 76.21 88.64 69.03"/><polygon class="cls-7" points="88.64 83.4 88.64 97.77 101.1 90.58 101.1 76.21 88.64 83.4"/><polygon class="cls-7" points="88.64 83.4 88.64 97.77 76.19 90.58 76.19 76.21 88.64 83.4"/><line class="cls-5" x1="77.72" y1="94.12" x2="88.64" y2="100.42"/><polyline class="cls-5" points="81.99 70.22 73.89 74.89 73.89 86.92"/><line class="cls-5" x1="103.39" y1="74.89" x2="95.88" y2="70.55"/><polyline class="cls-5" points="99.25 94.29 88.64 100.42 88.64 83.4"/><polyline class="cls-5" points="88.64 83.4 103.39 74.89 103.39 86.92"/><line class="cls-5" x1="88.64" y1="83.4" x2="73.89" y2="74.89"/></g><g><path class="cls-10" d="M89.07,67.21l-6.4-.55,6.4-3.62v4.17h0Zm0,4.25v6.61c-2.23-3.46-4.68-7.28-6.66-10.36,2.33,1.31,4.77,2.69,6.66,3.76h0Zm0-9.59l-6.66,3.71,6.66-10.33v6.61Z"/><path class="cls-11" d="M95.47,66.66l-6.4,.55v-4.17l6.4,3.62h0Zm-6.4,4.8c1.89-1.07,4.32-2.44,6.66-3.76-1.98,3.09-4.43,6.9-6.66,10.36v-6.61Zm0-9.59v-6.61l6.66,10.33-6.66-3.71Z"/><path class="cls-11" d="M89.07,67.21l6.4-.55-6.4,3.6v-3.05Z"/><path class="cls-10" d="M89.07,67.21l-6.4-.55,6.4,3.6v-3.05Z"/></g><g><g><polygon class="cls-7" points="39.38 34.96 26.93 42.15 39.38 49.33 51.83 42.15 39.38 34.96"/><polygon class="cls-7" points="39.38 49.33 39.38 63.7 51.83 56.52 51.83 42.15 39.38 49.33"/><polygon class="cls-7" points="39.38 49.33 39.38 63.7 26.93 56.52 26.93 42.15 39.38 49.33"/><line class="cls-5" x1="28.46" y1="60.05" x2="39.38" y2="66.35"/><polyline class="cls-5" points="32.73 36.15 24.63 40.82 24.63 52.85"/><line class="cls-5" x1="54.13" y1="40.82" x2="46.62" y2="36.49"/><polyline class="cls-5" points="49.99 60.23 39.38 66.35 39.38 49.33"/><polyline class="cls-5" points="39.38 49.33 54.13 40.82 54.13 52.85"/><line class="cls-5" x1="39.38" y1="49.33" x2="24.63" y2="40.82"/></g><g><path class="cls-10" d="M39.81,33.15l-6.4-.55,6.4-3.62v4.17h0Zm0,4.25v6.61c-2.23-3.46-4.68-7.28-6.66-10.36,2.33,1.31,4.77,2.69,6.66,3.76h0Zm0-9.59l-6.66,3.71,6.66-10.33v6.61Z"/><path class="cls-11" d="M46.21,32.6l-6.4,.55v-4.17l6.4,3.62h0Zm-6.4,4.8c1.89-1.07,4.32-2.44,6.66-3.76-1.98,3.09-4.43,6.9-6.66,10.36v-6.61Zm0-9.59v-6.61l6.66,10.33-6.66-3.71Z"/><path class="cls-11" d="M39.81,33.15l6.4-.55-6.4,3.6v-3.05Z"/><path class="cls-10" d="M39.81,33.15l-6.4-.55,6.4,3.6v-3.05Z"/></g></g><g><polygon class="cls-7" points="144.41 34.96 131.95 42.15 144.41 49.33 156.86 42.15 144.41 34.96"/><polygon class="cls-7" points="144.41 49.33 144.41 63.7 156.86 56.52 156.86 42.15 144.41 49.33"/><polygon class="cls-7" points="144.41 49.33 144.41 63.7 131.95 56.52 131.95 42.15 144.41 49.33"/><line class="cls-5" x1="133.48" y1="60.05" x2="144.41" y2="66.35"/><polyline class="cls-5" points="137.75 36.15 129.65 40.82 129.65 52.85"/><line class="cls-5" x1="159.16" y1="40.82" x2="151.64" y2="36.49"/><polyline class="cls-5" points="155.01 60.23 144.41 66.35 144.41 49.33"/><polyline class="cls-5" points="144.41 49.33 159.16 40.82 159.16 52.85"/><line class="cls-5" x1="144.41" y1="49.33" x2="129.65" y2="40.82"/></g><g><path id="Path_14" data-name="Path 14" class="cls-9" d="M137.81,31.33s0,0,0,0c.05-.03,.1-.06,.15-.08l.86-.39,.76-.35,.87-.4,.74-.34,.88-.4,.75-.34,.87-.4,.64-.29s.04-.03,.07-.02c0,0,0,.01,0,.02,0,.02,0,.05,0,.07,0,2.24,0,4.47,0,6.71,0,.03,0,.07-.01,.1-.2-.12-.4-.23-.6-.35l-5.1-3.02-.9-.53h0Z"/><path id="Path_15" data-name="Path 15" class="cls-8" d="M144.41,35.24v-6.86s0-.03,0-.05c0-.02,0-.05,0-.07,0-2.59,0-5.18,0-7.77,0-.03-.02-.06,.02-.09,.14,.23,.29,.47,.43,.7l6.11,10.15s.03,.05,.04,.07c-.03,.01-.05,0-.08-.01l-.5-.23-.99-.45-.98-.45c-.33-.15-.67-.3-1-.45l-.97-.44-1-.45-.97-.44h-.03s-.04-.02-.04,.01v.06c0,2.22,0,4.44,0,6.66,0,.03,0,.07-.01,.1,0,0,0,.01-.01,0h0Z"/><path id="Path_16" data-name="Path 16" class="cls-8" d="M144.42,35.23v-1.65c0-1.72,0-3.45,0-5.17,0-.07,0-.07,.07-.04l1.14,.52c.25,.11,.5,.23,.75,.34l1.09,.49,.62,.29,.9,.41,.62,.29,.88,.4,.48,.22s.02,0,.02,0c0,.03-.03,.03-.04,.04l-3.31,1.96-3.15,1.86s-.05,.03-.08,.04h0Z"/><path id="Path_17" data-name="Path 17" class="cls-8" d="M144.42,37.25l1.38-.82,3.91-2.31,1.24-.73s.03-.02,.05-.02c0,.02-.02,.03-.03,.04-2.17,3.06-4.35,6.12-6.52,9.18-.01,.02-.01,.05-.05,.04-.01-.03-.02-.06-.02-.09,0-1.74,0-3.48,0-5.22,0-.03,0-.07,.03-.09h0Z"/><path id="Path_18" data-name="Path 18" class="cls-9" d="M144.42,37.25s-.01,.05,0,.08c0,1.75,0,3.5,0,5.24v.07c-.09-.11-.17-.24-.26-.36-.75-1.06-1.5-2.12-2.26-3.18l-2.25-3.17-1.79-2.53-.04-.06s.06,.03,.09,.05l3.89,2.3,2.59,1.53s.03,.01,.04,.02h0Z"/><path id="Path_19" data-name="Path 19" class="cls-9" d="M144.43,20.41s0,.04,0,.06c0,2.6,0,5.19,0,7.79,0,.02,0,.05,0,.07h0s-.02-.03-.02-.05v-.06c0-2.57,0-5.13,0-7.7,0-.04,0-.09,.02-.13h.01s0,.02,0,.02h0Z"/><path id="Path_20" data-name="Path 20" class="cls-9" d="M144.41,20.39c0,2.64,0,5.28,0,7.92v.02c-.31,.14-.62,.28-.93,.43-.33,.15-.66,.3-.98,.45l-1.7,.77-1.19,.54-1.76,.8s-.02,0-.03,0c.1-.17,.19-.33,.29-.5l2.52-4.19,3.23-5.35,.53-.88s.01-.02,.02-.03h0Z"/></g></svg>