<svg width="1920" height="1080" viewBox="0 0 1920 1080" fill="none" xmlns="http://www.w3.org/2000/svg"><path d="M1511.5 242.3L1623.7 242.3C1636.07 242.3 1646.1 232.271 1646.1 219.9C1646.1 207.529 1636.07 197.5 1623.7 197.5H1511.5C1499.13 197.5 1489.1 207.529 1489.1 219.9C1489.1 232.271 1499.13 242.3 1511.5 242.3Z" fill="#E6E8EA"/><path d="M1569.2 301.1H1747.8C1767.46 301.1 1783.4 285.161 1783.4 265.5C1783.4 245.839 1767.46 229.9 1747.8 229.9L1569.2 229.9C1549.54 229.9 1533.6 245.839 1533.6 265.5C1533.6 285.161 1549.54 301.1 1569.2 301.1Z" fill="#03FC9D"/><path d="M1632 209.9L1644.9 222.8" stroke="#003B2F" stroke-width="3" stroke-linecap="round" stroke-linejoin="round"/><path d="M1654.4 232.2L1667.3 245.1" stroke="#003B2F" stroke-width="3" stroke-linecap="round" stroke-linejoin="round"/><path d="M1632 245.1L1644.9 232.2" stroke="#003B2F" stroke-width="3" stroke-linecap="round" stroke-linejoin="round"/><path d="M1654.4 222.8L1667.3 209.9" stroke="#003B2F" stroke-width="3" stroke-linecap="round" stroke-linejoin="round"/><path d="M1715.8 841.8L1739.4 855.4" stroke="#003B2F" stroke-width="3" stroke-linecap="round" stroke-linejoin="round"/><path d="M1763 841.8L1749.1 849.8" stroke="#003B2F" stroke-width="3" stroke-linecap="round" stroke-linejoin="round"/><path d="M1739.4 855.4V883" stroke="#003B2F" stroke-width="3" stroke-linecap="round" stroke-linejoin="round"/><path d="M1564.1 968H1630.1" stroke="#003B2F" stroke-width="3" stroke-linecap="round" stroke-linejoin="round"/><path d="M1514 968H1530.6" stroke="#003B2F" stroke-width="3" stroke-linecap="round" stroke-linejoin="round"/><path d="M1573.7 920.5H1744.7" stroke="#03FC9D" stroke-width="3" stroke-linecap="round" stroke-linejoin="round"/><path d="M708.9 151.6L724.4 167.2" stroke="#003B2F" stroke-width="3" stroke-linecap="round" stroke-linejoin="round"/><path d="M735.8 178.6L751.4 194.2" stroke="#003B2F" stroke-width="3" stroke-linecap="round" stroke-linejoin="round"/><path d="M708.9 194.2L724.4 178.6" stroke="#003B2F" stroke-width="3" stroke-linecap="round" stroke-linejoin="round"/><path d="M735.8 167.2L751.4 151.6" stroke="#003B2F" stroke-width="3" stroke-linecap="round" stroke-linejoin="round"/><path d="M334.8 968H394.7" stroke="#003B2F" stroke-width="3" stroke-linecap="round" stroke-linejoin="round"/><path d="M289.3 968H304.4" stroke="#003B2F" stroke-width="3" stroke-linecap="round" stroke-linejoin="round"/><path d="M154.5 904.9H184.1" stroke="#003B2F" stroke-width="3" stroke-linecap="round" stroke-linejoin="round"/><path d="M84.3999 944.6H244.8" stroke="#03FC9D" stroke-width="3" stroke-linecap="round" stroke-linejoin="round"/><path d="M222.3 905H342" stroke="#003B2F" stroke-width="3" stroke-linecap="round" stroke-linejoin="round"/><path d="M409.3 575.3H267.8C252.2 575.3 239.6 562.7 239.6 547.1C239.6 531.5 252.2 518.9 267.8 518.9H409.3C424.9 518.9 437.5 531.5 437.5 547.1C437.5 562.7 424.9 575.3 409.3 575.3Z" fill="#03FC9D"/><path d="M371 530.9H145.8C121 530.9 100.9 510.8 100.9 486C100.9 461.2 121 441.1 145.8 441.1H370.9C395.7 441.1 415.8 461.2 415.8 486C415.8 510.8 395.7 530.9 370.9 530.9" fill="#03FC9D"/><path d="M265.9 283H300.5" stroke="#003B2F" stroke-width="3" stroke-linecap="round" stroke-linejoin="round"/><path d="M158.1 215.5H408.3" stroke="#03FC9D" stroke-width="3" stroke-linecap="round" stroke-linejoin="round"/><path d="M345.1 282.8H485" stroke="#003B2F" stroke-width="3" stroke-linecap="round" stroke-linejoin="round"/><path d="M1610.5 533.3L1624.8 547.7" stroke="#003B2F" stroke-width="3" stroke-linecap="round" stroke-linejoin="round"/><path d="M1635.3 558.2L1649.7 572.5" stroke="#003B2F" stroke-width="3" stroke-linecap="round" stroke-linejoin="round"/><path d="M1610.5 572.5L1624.8 558.2" stroke="#003B2F" stroke-width="3" stroke-linecap="round" stroke-linejoin="round"/><path d="M1635.3 547.7L1649.7 533.3" stroke="#003B2F" stroke-width="3" stroke-linecap="round" stroke-linejoin="round"/><path d="M1537.6 461.8V840.7C1537.6 869.1 1514.6 892.1 1486.2 892.1H433.8C425.2 892.1 417 890 409.9 886.2C400.7 881.4 393.2 873.8 388.4 864.7C384.6 857.5 382.5 849.4 382.5 840.8V461.9H1537.7L1537.6 461.8Z" fill="#E6E8EA" stroke="#003B2F" stroke-width="3" stroke-linecap="round" stroke-linejoin="round"/><path d="M1537.6 417.3V796.2C1537.6 824.6 1514.6 847.6 1486.2 847.6H433.8C411.1 847.6 391.8 832.9 385 812.5C383.3 807.4 382.4 801.9 382.4 796.2V417.3C382.4 388.9 405.4 365.9 433.8 365.9H1486.2C1492.8 365.9 1499.1 367.1 1504.9 369.4C1518.2 374.6 1528.9 385.2 1534.1 398.6C1536.4 404.4 1537.6 410.7 1537.6 417.3Z" fill="white" stroke="#003B2F" stroke-width="3" stroke-linecap="round" stroke-linejoin="round"/><path d="M1473.4 606.7C1473.4 614.4 1472.9 621.9 1471.9 629.3C1470 643.4 1466.3 657 1461.1 669.7C1455.3 683.8 1447.7 696.9 1438.5 708.8C1429.9 719.9 1420 729.8 1408.9 738.4C1397.1 747.6 1383.9 755.2 1369.8 761C1357 766.2 1343.5 769.9 1329.4 771.8C1322 772.8 1314.5 773.3 1306.8 773.3C1299.1 773.3 1291.6 772.8 1284.2 771.8C1270.1 769.9 1256.6 766.2 1243.8 761C1229.7 755.2 1216.6 747.6 1204.7 738.4C1193.6 729.8 1183.7 719.9 1175.1 708.8C1165.9 696.9 1158.3 683.8 1152.5 669.7C1147.3 656.9 1143.6 643.4 1141.7 629.3C1140.7 621.9 1140.2 614.4 1140.2 606.7C1140.2 599 1140.7 591.5 1141.7 584.1C1143.6 570 1147.3 556.4 1152.5 543.7C1158.3 529.6 1165.9 516.5 1175.1 504.6C1183.7 493.5 1193.6 483.6 1204.7 475C1216.5 465.8 1229.7 458.2 1243.8 452.4C1256.6 447.2 1270.1 443.5 1284.2 441.6C1291.6 440.6 1299.1 440.1 1306.8 440.1C1314.5 440.1 1322 440.6 1329.4 441.6C1343.5 443.5 1357 447.2 1369.8 452.4C1383.9 458.2 1397 465.8 1408.9 475C1420 483.6 1429.9 493.5 1438.5 504.6C1447.7 516.5 1455.3 529.6 1461.1 543.7C1466.3 556.5 1470 570 1471.9 584.1C1472.9 591.5 1473.4 599 1473.4 606.7Z" fill="#E6E8EA"/><path d="M1396.35 692.027C1449.23 639.15 1449.23 553.42 1396.35 500.543C1343.48 447.666 1257.75 447.666 1204.87 500.543C1151.99 553.42 1151.99 639.15 1204.87 692.027C1257.75 744.904 1343.48 744.904 1396.35 692.027Z" fill="#03FC9D"/><path d="M779.6 607.5C779.6 615.2 779.1 622.7 778.1 630.1C776.2 644.2 772.5 657.8 767.3 670.5C761.5 684.6 753.9 697.7 744.7 709.6C736.1 720.7 726.2 730.6 715.1 739.2C703.3 748.4 690.1 756 676 761.8C663.2 767 649.7 770.7 635.6 772.6C628.2 773.6 620.7 774.1 613 774.1C605.3 774.1 597.8 773.6 590.4 772.6C576.3 770.7 562.8 767 550 761.8C535.9 756 522.8 748.4 510.9 739.2C499.8 730.6 489.9 720.7 481.3 709.6C472.1 697.7 464.5 684.6 458.7 670.5C453.5 657.7 449.8 644.2 447.9 630.1C446.9 622.7 446.4 615.2 446.4 607.5C446.4 599.8 446.9 592.3 447.9 584.9C449.8 570.8 453.5 557.2 458.7 544.5C464.5 530.4 472.1 517.3 481.3 505.4C489.9 494.3 499.8 484.4 510.9 475.8C522.7 466.6 535.9 459 550 453.2C562.8 448 576.3 444.3 590.4 442.4C597.8 441.4 605.3 440.9 613 440.9C620.7 440.9 628.2 441.4 635.6 442.4C649.7 444.3 663.2 448 676 453.2C690.1 459 703.2 466.6 715.1 475.8C726.2 484.4 736.1 494.3 744.7 505.4C753.9 517.3 761.5 530.4 767.3 544.5C772.5 557.3 776.2 570.8 778.1 584.9C779.1 592.3 779.6 599.8 779.6 607.5Z" fill="#E6E8EA"/><path d="M702.528 692.883C755.405 640.006 755.405 554.276 702.528 501.399C649.651 448.522 563.921 448.522 511.044 501.399C458.167 554.276 458.167 640.006 511.044 692.883C563.921 745.76 649.651 745.76 702.528 692.883Z" fill="#03FC9D"/><path d="M1232.9 611.5L1300.3 497.7C1300.6 497.1 1301.1 496.7 1301.6 496.4C1302.2 496.1 1302.8 495.9 1303.4 495.9C1304 495.9 1304.7 496.1 1305.2 496.4C1305.8 496.7 1306.2 497.2 1306.5 497.7L1401.6 657.7C1401.9 658.3 1402.1 658.9 1402.1 659.6C1402.1 660.3 1401.9 660.9 1401.6 661.5C1401.3 662.1 1400.8 662.5 1400.2 662.9C1399.6 663.2 1399 663.4 1398.3 663.4H1268.3C1267.6 663.4 1267 663.2 1266.4 662.9C1265.8 662.6 1265.4 662.1 1265 661.5C1264.7 660.9 1264.5 660.3 1264.5 659.6C1264.5 658.9 1264.7 658.3 1265.1 657.7L1283.6 628.1C1283.9 627.6 1284.4 627.1 1284.9 626.8C1285.4 626.5 1286.1 626.3 1286.7 626.3H1328.7C1329.4 626.3 1330 626.1 1330.6 625.8C1331.2 625.5 1331.6 625 1332 624.4C1332.3 623.8 1332.5 623.2 1332.5 622.5C1332.5 621.8 1332.3 621.2 1331.9 620.6L1303.2 575.5L1276.6 615.4C1276.3 615.9 1275.8 616.3 1275.3 616.6C1274.8 616.9 1274.2 617 1273.6 617H1235.9C1235.2 617 1234.6 616.8 1234 616.5C1233.4 616.2 1233 615.7 1232.6 615.1C1232.3 614.5 1232.1 613.9 1232.1 613.2C1232.1 612.5 1232.3 611.9 1232.6 611.3L1232.9 611.5Z" fill="#003B2F"/><path d="M1194.6 604.4C1194.9 574.7 1206.7 546.8 1227.9 525.9C1249.1 505 1277.1 493.4 1306.9 493.4" stroke="white" stroke-width="3" stroke-linecap="round" stroke-linejoin="round"/><path d="M1419.1 605.6C1419.1 667.5 1368.7 717.9 1306.9 717.9" stroke="white" stroke-width="3" stroke-linecap="round" stroke-linejoin="round"/><path d="M1213.2 604.4C1213.9 553.4 1255.9 512 1306.9 512" stroke="white" stroke-width="3" stroke-linecap="round" stroke-linejoin="round"/><path d="M1400.6 605.6C1400.6 657.2 1358.6 699.3 1306.9 699.3" stroke="white" stroke-width="3" stroke-linecap="round" stroke-linejoin="round"/><path d="M1228.6 604.3C1228.6 561.8 1263.1 527.3 1305.6 527.3C1306 527.3 1306.4 527.3 1306.7 527.3" stroke="white" stroke-width="3" stroke-linecap="round" stroke-linejoin="round"/><path d="M1382.6 605.5C1382.3 625.6 1374.3 644.5 1360.1 658.7C1345.9 672.9 1327 680.9 1306.9 681.2" stroke="white" stroke-width="3" stroke-linecap="round" stroke-linejoin="round"/><path d="M1245.7 604.3C1245.7 571.3 1272.6 544.5 1305.6 544.5C1306 544.5 1306.4 544.5 1306.7 544.5" stroke="white" stroke-width="3" stroke-linecap="round" stroke-linejoin="round"/><path d="M1365.4 605.5C1364.8 637.8 1339 663.5 1306.8 664.1" stroke="white" stroke-width="3" stroke-linecap="round" stroke-linejoin="round"/><path d="M1263.5 604.3C1263.5 581.1 1282.4 562.2 1305.6 562.2C1306 562.2 1306.4 562.2 1306.7 562.2" stroke="white" stroke-width="3" stroke-linecap="round" stroke-linejoin="round"/><path d="M1347.7 605.5C1347.1 627.8 1329.1 645.8 1306.8 646.4" stroke="white" stroke-width="3" stroke-linecap="round" stroke-linejoin="round"/><path d="M913.8 792.2C900.9 792.2 890.5 781.8 890.5 768.9V674.2C890.5 661.3 900.9 650.9 913.8 650.9C926.7 650.9 937.1 661.3 937.1 674.2V768.9C937.1 781.8 926.7 792.2 913.8 792.2Z" fill="white" stroke="#003B2F" stroke-width="3" stroke-linecap="round" stroke-linejoin="round"/><path d="M1006.2 792.2C993.3 792.2 982.9 781.8 982.9 768.9V674.2C982.9 661.3 993.3 650.9 1006.2 650.9C1019.1 650.9 1029.5 661.3 1029.5 674.2V768.9C1029.5 781.8 1019.1 792.2 1006.2 792.2Z" fill="white" stroke="#003B2F" stroke-width="3" stroke-linecap="round" stroke-linejoin="round"/><path d="M1104.1 751.6H1084.9C1077.33 751.6 1071.2 757.734 1071.2 765.3V778.5C1071.2 786.066 1077.33 792.2 1084.9 792.2H1104.1C1111.67 792.2 1117.8 786.066 1117.8 778.5V765.3C1117.8 757.734 1111.67 751.6 1104.1 751.6Z" fill="white" stroke="#003B2F" stroke-width="3" stroke-linecap="round" stroke-linejoin="round"/><path d="M1084.9 764.7H1104.1C1111.7 764.7 1117.8 770.8 1117.8 778.4V778.6C1117.8 786.2 1111.7 792.3 1104.1 792.3H1084.9C1077.3 792.3 1071.2 786.2 1071.2 778.6V778.4C1071.2 770.8 1077.3 764.7 1084.9 764.7Z" fill="#003B2F"/><path d="M996.6 713.2H1015.8C1023.4 713.2 1029.5 719.3 1029.5 726.9V727.1C1029.5 734.7 1023.4 740.8 1015.8 740.8H996.6C989 740.8 982.9 734.7 982.9 727.1V726.9C982.9 719.3 989 713.2 996.6 713.2Z" fill="#003B2F"/><path d="M904.2 740.7H923.4C931 740.7 937.1 746.8 937.1 754.4V754.6C937.1 762.2 931 768.3 923.4 768.3H904.2C896.6 768.3 890.5 762.2 890.5 754.6V754.4C890.5 746.8 896.6 740.7 904.2 740.7Z" fill="#003B2F"/><path d="M815.9 751.6H835.1C842.7 751.6 848.8 757.7 848.8 765.3V778.5C848.8 786.1 842.7 792.2 835.1 792.2H815.9C808.3 792.2 802.2 786.1 802.2 778.5V765.3C802.2 757.7 808.3 751.6 815.9 751.6Z" fill="white" stroke="#003B2F" stroke-width="3" stroke-linecap="round" stroke-linejoin="round"/><path d="M815.9 764.7H835.1C842.7 764.7 848.8 770.8 848.8 778.4V778.6C848.8 786.2 842.7 792.3 835.1 792.3H815.9C808.3 792.3 802.2 786.2 802.2 778.6V778.4C802.2 770.8 808.3 764.7 815.9 764.7Z" fill="#003B2F"/><path d="M846.6 433.2H1073.4V551.1C1073.4 569.9 1058.1 585.2 1039.3 585.2H880.6C861.8 585.2 846.5 569.9 846.5 551.1V433.2H846.6Z" fill="#E6E8EA"/><path d="M1139.4 366C1133.4 404.1 1100.5 433.3 1060.7 433.3H859.4C833.5 433.3 810.5 420.9 795.9 401.8C788.1 391.5 782.7 379.3 780.6 366H1139.4Z" fill="#E6E8EA" stroke="#003B2F" stroke-width="3" stroke-linecap="round" stroke-linejoin="round"/><path d="M1293.8 870.8C1293.8 874.2 1288.5 876.9 1281.9 876.9C1275.3 876.9 1270 874.2 1270 870.8C1270 867.4 1275.3 864.7 1281.9 864.7C1288.5 864.7 1293.8 867.4 1293.8 870.8Z" fill="#003B2F"/><path d="M1352 870.8C1352 874.2 1346.7 876.9 1340.1 876.9C1333.5 876.9 1328.2 874.2 1328.2 870.8C1328.2 867.4 1333.5 864.7 1340.1 864.7C1346.7 864.7 1352 867.4 1352 870.8Z" fill="#003B2F"/><path d="M1410.2 870.8C1410.2 874.2 1404.9 876.9 1398.3 876.9C1391.7 876.9 1386.4 874.2 1386.4 870.8C1386.4 867.4 1391.7 864.7 1398.3 864.7C1404.9 864.7 1410.2 867.4 1410.2 870.8Z" fill="#003B2F"/><path d="M1050.1 456.2H870V562.1H1050.1V456.2Z" fill="#03FC9D"/><path d="M891.9 503.7H883.1V562.1H891.9V503.7Z" fill="#003B2F"/><path d="M905.1 486.5H896.3V562.1H905.1V486.5Z" fill="#003B2F"/><path d="M918.2 476.6H909.4V562.1H918.2V476.6Z" fill="#003B2F"/><path d="M931.4 500.5H922.6V562H931.4V500.5Z" fill="#003B2F"/><path d="M944.6 530.9H935.8V562H944.6V530.9Z" fill="#003B2F"/><path d="M957.8 549.2H949V562.1H957.8V549.2Z" fill="#003B2F"/><path d="M957.8 526.4H949V542.7H957.8V526.4Z" fill="#003B2F"/><path d="M971 534.5H962.2V562.1H971V534.5Z" fill="#003B2F"/><path d="M984.2 523.2H975.4V562.1H984.2V523.2Z" fill="#003B2F"/><path d="M984.2 497.1H975.4V519.4H984.2V497.1Z" fill="#003B2F"/><path d="M997.4 510.4H988.6V562.1H997.4V510.4Z" fill="#003B2F"/><path d="M997.4 503.7H988.6V508.2H997.4V503.7Z" fill="#003B2F"/><path d="M1010.6 532.9H1001.8V562.1H1010.6V532.9Z" fill="#003B2F"/><path d="M1010.6 525.5H1001.8V529.7H1010.6V525.5Z" fill="#003B2F"/><path d="M1023.8 545.2H1015V562.1H1023.8V545.2Z" fill="#003B2F"/><path d="M1023.8 539.1H1015V543H1023.8V539.1Z" fill="#003B2F"/><path d="M1037 527.6H1028.2V562H1037V527.6Z" fill="#003B2F"/><path d="M1415.1 566.5L1445.8 532.3C1446.3 531.7 1446.6 531 1446.6 530.3V431.7" stroke="#003B2F" stroke-width="3" stroke-linecap="round" stroke-linejoin="round"/><path d="M1421 572.3L1401.5 594L1388.9 582.7L1408.4 561L1414.7 566.6L1421 572.3Z" stroke="#003B2F" stroke-width="3" stroke-linecap="round" stroke-linejoin="round"/><path d="M1446.6 431.7C1453.78 431.7 1459.6 425.88 1459.6 418.7C1459.6 411.52 1453.78 405.7 1446.6 405.7C1439.42 405.7 1433.6 411.52 1433.6 418.7C1433.6 425.88 1439.42 431.7 1446.6 431.7Z" fill="#03FC9D" stroke="#003B2F" stroke-width="3" stroke-linecap="round" stroke-linejoin="round"/><path d="M1335.7 599.4C1335.7 599.4 1335.7 599.4 1335.7 599.3V599.1C1332.9 588.9 1324.9 580.9 1314.7 578.1H1314.5H1314.3C1309.5 576.9 1304.5 576.9 1299.6 578.1H1299.5H1299.4C1289.2 580.9 1281.2 588.9 1278.4 599.1V599.3C1278.4 599.3 1278.4 599.3 1278.4 599.4C1277.2 604.2 1277.2 609.2 1278.4 614.1C1278.4 614.1 1278.4 614.2 1278.4 614.3C1281.2 624.6 1289.2 632.6 1299.4 635.4H1299.7C1304.5 636.7 1309.5 636.7 1314.4 635.4H1314.6L1314.8 635.3C1325 632.5 1333 624.5 1335.8 614.3C1335.8 614.3 1335.8 614.2 1335.8 614.1C1335.8 614 1335.8 613.9 1335.8 613.9C1337 609.1 1337 604 1335.8 599.2L1335.7 599.4ZM1318.5 618.4C1312.1 624.8 1301.6 624.8 1295.2 618.4C1288.8 612 1288.8 601.5 1295.2 595.1C1301.6 588.7 1312.1 588.7 1318.5 595.1C1324.6 601.5 1324.3 611.8 1318.5 618.4Z" stroke="white" stroke-width="3" stroke-linecap="round" stroke-linejoin="round"/><path d="M1314.3 614.1C1310.2 618.2 1303.6 618.2 1299.5 614.1C1295.4 610 1295.4 603.4 1299.5 599.3C1303.6 595.2 1310.2 595.2 1314.3 599.3C1318.4 603.4 1318.4 610 1314.3 614.1Z" fill="white"/><path d="M1402.58 701.348C1455.46 648.471 1455.46 562.741 1402.58 509.864C1349.71 456.987 1263.98 456.987 1211.1 509.864C1158.22 562.741 1158.22 648.471 1211.1 701.348C1263.98 754.225 1349.71 754.225 1402.58 701.348Z" stroke="#003B2F" stroke-width="3" stroke-linecap="round" stroke-linejoin="round"/><path d="M620.5 614.9C616.4 619 609.8 619 605.7 614.9C601.6 610.8 601.6 604.2 605.7 600.1C609.8 596 616.4 596 620.5 600.1C624.6 604.2 624.6 610.8 620.5 614.9Z" fill="white"/><path d="M708.859 702.105C761.736 649.228 761.736 563.497 708.859 510.62C655.982 457.743 570.251 457.743 517.374 510.62C464.497 563.497 464.497 649.228 517.374 702.105C570.251 754.982 655.982 754.982 708.859 702.105Z" stroke="#003B2F" stroke-width="3" stroke-linecap="round" stroke-linejoin="round"/><path d="M635.8 681.2L513.5 630.9C512.9 630.7 512.4 630.3 512 629.8C511.6 629.3 511.3 628.7 511.3 628.1C511.3 627.5 511.3 626.8 511.5 626.2C511.7 625.6 512.1 625.1 512.6 624.7L657.2 507.5C657.7 507.1 658.3 506.8 659 506.7C659.6 506.7 660.3 506.7 660.9 506.9C661.5 507.1 662 507.5 662.4 508C662.8 508.5 663.1 509.1 663.2 509.8L681.9 638.5C681.9 639.2 681.9 639.8 681.7 640.4C681.5 641 681 641.5 680.5 641.9C680 642.3 679.4 642.6 678.7 642.6C678 642.6 677.4 642.6 676.8 642.3L644.9 628.3C644.3 628 643.8 627.7 643.4 627.2C643 626.7 642.8 626.1 642.7 625.5L636.6 583.9C636.6 583.2 636.2 582.6 635.8 582.1C635.4 581.6 634.8 581.2 634.2 581C633.6 580.8 632.9 580.7 632.3 580.8C631.7 580.9 631 581.2 630.5 581.6L590 616.5L633.4 637.1C633.9 637.4 634.4 637.8 634.8 638.2C635.2 638.6 635.4 639.3 635.5 639.9L640.9 677.2C640.9 677.8 640.9 678.5 640.7 679.1C640.5 679.7 640.1 680.2 639.5 680.6C639 681 638.4 681.3 637.7 681.3C637.1 681.3 636.4 681.3 635.8 681.1V681.2Z" fill="#003B2F"/><path d="M500.8 605.1C501.1 575.4 512.9 547.5 534.1 526.6C555.3 505.7 583.3 494.1 613.1 494.1" stroke="white" stroke-width="3" stroke-linecap="round" stroke-linejoin="round"/><path d="M725.3 606.4C725.3 668.3 674.9 718.7 613.1 718.7" stroke="white" stroke-width="3" stroke-linecap="round" stroke-linejoin="round"/><path d="M519.4 605.1C520.1 554.1 562.1 512.7 613.1 512.7" stroke="white" stroke-width="3" stroke-linecap="round" stroke-linejoin="round"/><path d="M706.7 606.4C706.7 658 664.7 700.1 613 700.1" stroke="white" stroke-width="3" stroke-linecap="round" stroke-linejoin="round"/><path d="M534.8 605.1C534.8 562.6 569.3 528.1 611.8 528.1C612.2 528.1 612.6 528.1 612.9 528.1" stroke="white" stroke-width="3" stroke-linecap="round" stroke-linejoin="round"/><path d="M688.8 606.3C688.5 626.4 680.5 645.3 666.3 659.5C652.1 673.7 633.2 681.7 613.1 682" stroke="white" stroke-width="3" stroke-linecap="round" stroke-linejoin="round"/><path d="M551.9 605.1C551.9 572.1 578.8 545.3 611.8 545.3C612.2 545.3 612.6 545.3 612.9 545.3" stroke="white" stroke-width="3" stroke-linecap="round" stroke-linejoin="round"/><path d="M671.6 606.3C671 638.6 645.2 664.3 613 664.9" stroke="white" stroke-width="3" stroke-linecap="round" stroke-linejoin="round"/><path d="M569.7 605.1C569.7 581.9 588.6 563 611.8 563C612.2 563 612.6 563 612.9 563" stroke="white" stroke-width="3" stroke-linecap="round" stroke-linejoin="round"/><path d="M653.9 606.2C653.3 628.5 635.3 646.5 613 647.1" stroke="white" stroke-width="3" stroke-linecap="round" stroke-linejoin="round"/><path d="M478.2 430.9L524.6 518C525 518.7 525.5 519.2 526.2 519.4L569.3 535.1" stroke="#003B2F" stroke-width="3" stroke-linecap="round" stroke-linejoin="round"/><path d="M569.8 535L572.7 527L600.1 537L594.3 552.9L566.9 542.9L569.8 535Z" stroke="#003B2F" stroke-width="3" stroke-linecap="round" stroke-linejoin="round"/><path d="M472.1 432.4C479.28 432.4 485.1 426.58 485.1 419.4C485.1 412.22 479.28 406.4 472.1 406.4C464.92 406.4 459.1 412.22 459.1 419.4C459.1 426.58 464.92 432.4 472.1 432.4Z" fill="#03FC9D" stroke="#003B2F" stroke-width="3" stroke-linecap="round" stroke-linejoin="round"/><path d="M641.9 600.1C641.9 600.1 641.9 600.1 641.9 600V599.8C639.1 589.6 631.1 581.6 620.9 578.8H620.7H620.5C615.7 577.6 610.7 577.6 605.8 578.8H605.7H605.6C595.4 581.6 587.4 589.6 584.6 599.8V600C584.6 600 584.6 600 584.6 600.1C583.4 604.9 583.4 609.9 584.6 614.8C584.6 614.8 584.6 614.9 584.6 615C587.4 625.3 595.4 633.3 605.6 636.1H605.9C610.7 637.4 615.7 637.4 620.6 636.1H620.8L621 636C631.2 633.2 639.2 625.2 642 615C642 615 642 614.9 642 614.8C642 614.7 642 614.6 642 614.6C643.2 609.8 643.2 604.7 642 599.9L641.9 600.1ZM624.7 619.1C618.3 625.5 607.8 625.5 601.4 619.1C595 612.7 595 602.2 601.4 595.8C607.8 589.4 618.3 589.4 624.7 595.8C630.8 602.2 630.5 612.5 624.7 619.1Z" stroke="white" stroke-width="3" stroke-linecap="round" stroke-linejoin="round"/><path fill-rule="evenodd" clip-rule="evenodd" d="M974.5 262.5L966.8 209.8C966.5 207.7 967.9 205.8 970 205.5C972 205.2 973.8 206.5 974.2 208.4C978.3 216.5 989.8 220.9 996.7 227.1C1006.3 235.9 1007 246.9 1004.1 259C1003.7 260.7 1002 261.8 1000.3 261.4C998.6 261 997.5 259.3 997.9 257.6C1001.8 241.4 994.1 236.5 978.9 234.3C978.6 234.3 978.3 234.2 978 234.1L983.1 270.1C984.2 277.8 977.7 286 972.1 289.4C962.7 295 952 294.2 948.2 287.7C944.4 281.2 948.8 271.5 958.2 265.9C963.7 262.6 969.7 261.5 974.5 262.5Z" fill="#003B2F"/><path fill-rule="evenodd" clip-rule="evenodd" d="M877.2 230.3L867.2 208.4C866.9 207.6 867 206.8 867.5 206.2L883.1 188.6C884.1 187.5 885.9 187.8 886.5 189.1L898.4 215.2C899.8 218.1 898.3 221.6 896.2 223.8C894.1 226.1 890.2 228 887.2 226.3C886.9 226.1 886.6 225.9 886.4 225.7C886.1 225.5 885.9 225.2 885.7 224.9C883.8 222 885.4 218 887.5 215.7C888.8 214.3 890.7 213.1 892.6 212.7L886.2 198.6L873.6 212.8L882.7 232.8C884.1 235.7 882.6 239.2 880.5 241.4C878.4 243.7 874.5 245.6 871.5 243.9C871.2 243.7 870.9 243.5 870.7 243.3C870.4 243.1 870.2 242.8 870 242.5C868.1 239.6 869.7 235.6 871.8 233.3C873.1 231.9 875 230.7 876.9 230.3H877.2Z" fill="#003B2F"/><path fill-rule="evenodd" clip-rule="evenodd" d="M1055.2 322.9L1061.4 294.6C1061.6 293.5 1062.7 292.8 1063.8 293C1064.9 293.2 1065.5 294.2 1065.4 295.3C1065.9 300.2 1071 304.6 1073.2 309.1C1076.4 315.4 1074.6 321.1 1070.8 326.7C1070.3 327.5 1069.2 327.7 1068.4 327.2C1067.6 326.7 1067.4 325.6 1067.9 324.8C1073 317.3 1070 313.3 1062.7 309.3C1062.6 309.3 1062.4 309.1 1062.3 309L1058 328.3C1057.1 332.4 1052.2 335.4 1048.7 336C1042.9 337 1037.6 334.6 1036.9 330.6C1036.2 326.6 1040.3 322.5 1046.2 321.4C1049.6 320.8 1052.9 321.4 1055.1 322.8L1055.2 322.9Z" fill="#003B2F"/><path d="M996.7 213C997 209.3 997.5 205.6 998.4 202C999.3 198.6 1000.4 195.2 1001.9 192.1" stroke="#003B2F" stroke-width="3" stroke-linecap="round" stroke-linejoin="round"/><path d="M1008 216.6C1010.3 213.7 1012.8 210.9 1015.5 208.4C1018.1 206 1020.9 203.9 1023.9 202" stroke="#003B2F" stroke-width="3" stroke-linecap="round" stroke-linejoin="round"/><path d="M1013.1 227.7C1016.4 226 1019.9 224.6 1023.4 223.5C1026.8 222.5 1030.2 221.8 1033.7 221.4" stroke="#003B2F" stroke-width="3" stroke-linecap="round" stroke-linejoin="round"/></svg>