<svg viewBox="0 0 148 109" fill="none" xmlns="http://www.w3.org/2000/svg"><g clip-path="url(#clip0_27_3339)"><path d="M125.981 93.0786H32.1372C24.9215 93.0786 19.0784 87.2355 19.0784 80.0198V13.0588C19.0784 5.84315 24.9215 0 32.1372 0H125.981C133.196 0 139.039 5.84315 139.039 13.0588V80.0198C139.039 87.2355 133.196 93.0786 125.981 93.0786Z" fill="#E3E8E3"/><path d="M59.8039 77.9609H47.9804M44.9019 77.9609H41M85.7452 81.9021H41M55.2353 70.0786H41M73.3726 70.0786H63.5686M51.0588 74.0198H73.2157M64.6275 77.9609H62.5098M60.8235 70.0786H58.7059M33.0784 74.0198H35.196M41 74.0198H47.8431M63.5883 66.1374H85.7452M41 66.1374H55.2353M51.2157 62.1962H73.3726M57.9804 66.1374H60.098M41 62.1962H47.9804M15.7254 17.353H135.451M15.7058 62.1962V16.451C15.7058 9.25494 21.5293 3.4314 28.745 3.4314H122.392C129.588 3.4314 135.432 9.25494 135.432 16.451V83.2551C135.432 90.4512 129.588 96.2747 122.392 96.2747H34.1176M38.9411 11.6863C38.9411 12.5883 38.2157 13.3138 37.3137 13.3138C36.4117 13.3138 35.6862 12.5883 35.6862 11.6863C35.6862 10.7844 36.4117 10.0589 37.3137 10.0589C38.2157 10.0589 38.9411 10.7844 38.9411 11.6863ZM33.4509 11.5687C33.4509 12.4706 32.7254 13.1961 31.8235 13.1961C30.9215 13.1961 30.196 12.4706 30.196 11.5687C30.196 10.6667 30.9215 9.94121 31.8235 9.94121C32.7254 9.94121 33.4509 10.6667 33.4509 11.5687ZM28.0196 11.6863C28.0196 12.5883 27.2941 13.3138 26.3921 13.3138C25.4901 13.3138 24.7647 12.5883 24.7647 11.6863C24.7647 10.7844 25.4901 10.0589 26.3921 10.0589C27.2941 10.0589 28.0196 10.7844 28.0196 11.6863Z" stroke="#023C30" stroke-width="0.705884" stroke-linecap="round" stroke-linejoin="round"/><path d="M46.7059 50.9019C46.3137 49.1568 44.4314 48.8039 41.3726 47.2745C41.3726 47.2745 41.451 46.8431 41.6667 46.5293C41.8824 46.2156 43.1177 45.2548 43.2941 42.9411C43.4902 40.3529 41.5882 39.0195 39.8235 39.0195C38.0588 39.0195 36.1569 40.3529 36.3529 42.9411C36.5294 45.2548 37.7647 46.2156 37.9804 46.5293C38.1961 46.8235 38.2745 47.2745 38.2745 47.2745C35.2157 48.7843 33.3333 49.1568 32.9412 50.9019" fill="#03FC9E"/><path d="M46.6274 50.8236C46.2352 49.0981 44.3725 48.7451 41.3529 47.2549C41.3529 47.2549 41.4313 46.8236 41.647 46.5295C41.8627 46.2353 43.0784 45.2745 43.2548 43C43.4509 40.4314 41.5686 39.1177 39.8235 39.1177C38.0784 39.1177 36.196 40.4314 36.3921 43C36.5686 45.2942 37.7842 46.2353 37.9999 46.5295C38.2156 46.8236 38.2941 47.2549 38.2941 47.2549C35.2744 48.7451 33.3921 49.1177 33.0195 50.8236" stroke="#023C30" stroke-width="0.470589" stroke-linecap="round" stroke-linejoin="round"/><path d="M57.2746 33.9608C57.2746 31.4314 55.2158 29.3726 52.6864 29.3726C50.157 29.3726 48.0981 31.4314 48.0981 33.9608C48.0981 36.4902 50.157 38.549 52.6864 38.549C55.2158 38.549 57.2746 36.4902 57.2746 33.9608Z" fill="#03FC9E"/><path d="M57.8235 35.9021C56.9216 38.3335 54.3725 39.8433 51.7255 39.3923C48.7451 38.8629 46.7451 36.0197 47.2549 33.0393C47.7843 30.0589 50.6274 28.0589 53.6078 28.5687M50.5098 32.608L52.7647 35.4119L58.902 28.4707" stroke="#023C30" stroke-width="0.470589" stroke-linecap="round" stroke-linejoin="round"/><path d="M35.8039 70.824V78.5495C35.8039 89.9809 29.0784 99.9613 19.098 105.295C9.11759 99.9613 2.39209 89.9809 2.39209 78.5495V70.824C2.39209 70.824 5.43131 70.6475 10.3529 68.9612C15.2745 67.2945 19.098 65.3926 19.098 65.3926C19.098 65.3926 22.9215 67.2749 27.8431 68.9612C32.7647 70.6279 35.8039 70.8044 35.8039 70.8044V70.824Z" fill="#03FC9E"/><path d="M21.8235 87.3335L23.0196 94.1963L19.098 91.9806L15.196 94.1963L16.3725 87.3923" stroke="#023C30" stroke-width="0.705884" stroke-linecap="round" stroke-linejoin="round"/><path d="M25.6471 78.7258C25.4902 79.0591 25.4902 79.5885 25.6471 79.9218L26.2942 81.1571C26.4706 81.4905 26.3334 81.8826 26.0196 82.0591L24.7843 82.7061C24.451 82.8826 24.1373 83.314 24.0981 83.6669L23.8824 85.0395C23.8236 85.3924 23.4902 85.6473 23.1177 85.6081L21.7451 85.3924C21.3726 85.3336 20.8824 85.5101 20.6079 85.765L19.6275 86.7454C19.3726 87.0003 18.9412 87.0199 18.6863 86.7454L17.6863 85.765C17.4314 85.5101 16.9216 85.3532 16.549 85.412L15.1765 85.6473C14.8235 85.7062 14.4706 85.4513 14.4118 85.0983L14.1765 83.7258C14.1177 83.3532 13.8039 82.9414 13.4706 82.765L12.2353 82.1375C11.902 81.9807 11.7647 81.5689 11.9412 81.2356L12.5686 80.0003C12.7255 79.6669 12.7255 79.1375 12.5686 78.8042L11.9216 77.5689C11.7451 77.2356 11.8824 76.8434 12.1961 76.6669L13.4314 76.0199C13.7647 75.8434 14.0784 75.412 14.1177 75.0591L14.3333 73.6865C14.3922 73.314 14.7255 73.0591 15.0981 73.1179L16.4706 73.314C16.8432 73.3728 17.3333 73.1963 17.6079 72.9414L18.5883 71.9414C18.8432 71.6865 19.2745 71.6865 19.5294 71.9414L20.5294 72.9218C20.7843 73.1767 21.2941 73.3336 21.6667 73.2748L23.0392 73.0395C23.4118 72.9806 23.7451 73.2159 23.804 73.5885L24.0392 74.961C24.0981 75.3336 24.4118 75.765 24.7451 75.9218L25.9804 76.5493C26.3138 76.7061 26.451 77.1179 26.2745 77.4512L25.6471 78.6865V78.7258Z" fill="white"/><path d="M0.353027 77.7061V69.0199C0.353027 69.0199 3.74519 68.8042 9.27461 66.9414C14.804 65.0591 19.0982 62.9414 19.0982 62.9414C19.0982 62.9414 23.3923 65.0591 28.9217 66.9414C34.4511 68.8238 37.8433 69.0199 37.8433 69.0199V77.7061C37.8433 90.5493 30.3139 101.765 19.0982 107.745M19.1178 81.2356L20.9217 82.1963L20.5688 80.1767L22.0393 78.7454L20.0197 78.4512L19.1178 76.6081L18.2158 78.4512L16.1962 78.7454L17.6668 80.1767L17.3138 82.1963L19.1374 81.2356H19.1178Z" stroke="#023C30" stroke-width="0.705884" stroke-linecap="round" stroke-linejoin="round"/><path d="M143.883 48.3923H126.177C124.138 48.3923 122.49 46.7453 122.49 44.706V28.2158C122.49 26.1766 124.138 24.5295 126.177 24.5295H143.883C145.922 24.5295 147.569 26.1766 147.569 28.2158V44.7257C147.569 46.7649 145.922 48.4119 143.883 48.4119" fill="white"/><path d="M126.157 24.5295H143.863C145.902 24.5295 147.549 26.1766 147.549 28.2158V44.7257C147.549 46.7649 145.902 48.4119 143.863 48.4119H126.157C124.118 48.4119 122.471 46.7649 122.471 44.7257V28.2158C122.471 26.1766 124.118 24.5295 126.157 24.5295Z" stroke="#023C30" stroke-width="0.705884" stroke-linecap="round" stroke-linejoin="round"/><path d="M133.275 44.5884H129.922M129.059 44.5884H125.706M140.608 45.706H125.706M131.981 42.3727H125.706M137.098 42.3727H134.334M130.785 43.4903H137.059M134.628 44.608H134.02M133.549 42.3923H132.941M125.687 43.5099H126.275M127.471 43.5099H129.843M134.294 41.2746H140.569M125.667 41.2746H131.941M130.804 40.157H137.079M132.726 41.2746H133.334M125.726 40.157H126.334M127.549 40.157H129.922M122.49 28.5099H147.569M129.059 26.9021C129.059 27.157 128.843 27.3727 128.589 27.3727C128.334 27.3727 128.118 27.1766 128.118 26.9021C128.118 26.6276 128.314 26.4315 128.589 26.4315C128.863 26.4315 129.059 26.6276 129.059 26.9021ZM127.51 26.8628C127.51 27.1177 127.294 27.3334 127.04 27.3334C126.785 27.3334 126.569 27.1374 126.569 26.8628C126.569 26.5883 126.785 26.4119 127.04 26.4119C127.294 26.4119 127.51 26.6079 127.51 26.8628ZM125.961 26.9021C125.961 27.157 125.745 27.3727 125.49 27.3727C125.236 27.3727 125.02 27.1766 125.02 26.9021C125.02 26.6276 125.236 26.4315 125.49 26.4315C125.745 26.4315 125.961 26.6276 125.961 26.9021Z" stroke="#023C30" stroke-width="0.705884" stroke-linecap="round" stroke-linejoin="round"/><path d="M131.844 37.8431C131.647 37.0196 130.746 36.8431 129.295 36.1176C129.295 36.1176 129.334 35.9215 129.432 35.7647C129.53 35.6274 130.118 35.1568 130.216 34.0588C130.314 32.8235 129.393 32.196 128.569 32.196C127.745 32.196 126.824 32.8431 126.922 34.0588C127 35.1568 127.589 35.6274 127.687 35.7647C127.785 35.9019 127.824 36.1176 127.824 36.1176C126.373 36.8431 125.471 37.0196 125.275 37.8431" fill="#03FC9E"/><path d="M131.765 37.7842C131.588 36.9803 130.706 36.8038 129.275 36.098C129.275 36.098 129.314 35.9019 129.412 35.7646C129.51 35.6274 130.079 35.1764 130.177 34.0979C130.275 32.9019 129.392 32.2744 128.569 32.2744C127.745 32.2744 126.863 32.9019 126.961 34.0979C127.039 35.1764 127.608 35.6274 127.726 35.7646C127.824 35.9019 127.863 36.098 127.863 36.098C126.451 36.8038 125.569 36.9607 125.373 37.7842" stroke="#023C30" stroke-width="0.470589" stroke-linecap="round" stroke-linejoin="round"/><path d="M143.883 74.7647H126.177C124.138 74.7647 122.49 73.1177 122.49 71.0784V54.5686C122.49 52.5294 124.138 50.8823 126.177 50.8823H143.883C145.922 50.8823 147.569 52.5294 147.569 54.5686V71.0784C147.569 73.1177 145.922 74.7647 143.883 74.7647Z" fill="white"/><path d="M126.157 50.8823H143.863C145.902 50.8823 147.549 52.5294 147.549 54.5686V71.0784C147.549 73.1177 145.902 74.7647 143.863 74.7647H126.157C124.118 74.7647 122.471 73.1177 122.471 71.0784V54.5686C122.471 52.5294 124.118 50.8823 126.157 50.8823Z" stroke="#023C30" stroke-width="0.705884" stroke-linecap="round" stroke-linejoin="round"/><path d="M133.275 70.9412H129.922M129.059 70.9412H125.706M140.608 72.0588H125.706M131.981 68.7255H125.706M137.098 68.7255H134.334M130.785 69.8431H137.059M134.628 70.9608H134.02M133.549 68.7451H132.941M125.687 69.8627H126.275M127.471 69.8627H129.843M134.294 67.6274H140.569M125.667 67.6274H131.941M130.804 66.5098H137.079M132.726 67.6274H133.334M125.726 66.5098H126.334M127.549 66.5098H129.922M122.49 54.8627H147.569M129.059 53.2548C129.059 53.5097 128.843 53.7254 128.589 53.7254C128.334 53.7254 128.118 53.5294 128.118 53.2548C128.118 52.9803 128.314 52.7843 128.589 52.7843C128.863 52.7843 129.059 52.9999 129.059 53.2548ZM127.51 53.2156C127.51 53.4705 127.294 53.6862 127.04 53.6862C126.785 53.6862 126.569 53.4901 126.569 53.2156C126.569 52.9411 126.785 52.7646 127.04 52.7646C127.294 52.7646 127.51 52.9607 127.51 53.2156ZM125.961 53.2548C125.961 53.5097 125.745 53.7254 125.49 53.7254C125.236 53.7254 125.02 53.5294 125.02 53.2548C125.02 52.9803 125.236 52.7843 125.49 52.7843C125.745 52.7843 125.961 52.9999 125.961 53.2548Z" stroke="#023C30" stroke-width="0.705884" stroke-linecap="round" stroke-linejoin="round"/><path d="M131.844 64.2162C131.647 63.3926 130.746 63.2162 129.295 62.4907C129.295 62.4907 129.334 62.2946 129.432 62.1377C129.53 62.0005 130.118 61.5299 130.216 60.4318C130.314 59.1965 129.393 58.5691 128.569 58.5691C127.745 58.5691 126.824 59.2161 126.922 60.4318C127 61.5299 127.589 62.0005 127.687 62.1377C127.785 62.275 127.824 62.4907 127.824 62.4907C126.373 63.2162 125.471 63.3926 125.275 64.2162" fill="#03FC9E"/><path d="M131.765 64.1373C131.588 63.3333 130.706 63.1569 129.275 62.451C129.275 62.451 129.314 62.2549 129.412 62.1176C129.51 61.9804 130.079 61.5294 130.177 60.451C130.275 59.2549 129.392 58.6274 128.569 58.6274C127.745 58.6274 126.863 59.2549 126.961 60.451C127.039 61.5294 127.608 61.9608 127.726 62.1176C127.824 62.2549 127.863 62.451 127.863 62.451C126.451 63.1569 125.569 63.3137 125.373 64.1373" stroke="#023C30" stroke-width="0.470589" stroke-linecap="round" stroke-linejoin="round"/><path d="M143.883 101.137H126.177C124.138 101.137 122.49 99.4902 122.49 97.451V80.9412C122.49 78.9019 124.138 77.2549 126.177 77.2549H143.883C145.922 77.2549 147.569 78.9019 147.569 80.9412V97.451C147.569 99.4902 145.922 101.137 143.883 101.137Z" fill="white"/><path d="M126.157 77.2549H143.863C145.902 77.2549 147.549 78.9019 147.549 80.9412V97.451C147.549 99.4902 145.902 101.137 143.863 101.137H126.157C124.118 101.137 122.471 99.4902 122.471 97.451V80.9412C122.471 78.9019 124.118 77.2549 126.157 77.2549Z" stroke="#023C30" stroke-width="0.705884" stroke-linecap="round" stroke-linejoin="round"/><path d="M133.275 97.3141H129.922M129.059 97.3141H125.706M140.608 98.4318H125.706M131.981 95.0984H125.706M137.098 95.0984H134.334M130.785 96.2161H137.059M134.628 97.3337H134.02M133.549 95.118H132.941M125.687 96.2357H126.275M127.471 96.2357H129.843M134.294 94.02H140.569M125.667 94.02H131.941M130.804 92.9024H137.079M132.726 94.02H133.334M125.726 92.9024H126.334M127.549 92.9024H129.922M122.49 81.2553H147.569M129.059 79.6474C129.059 79.9023 128.843 80.118 128.589 80.118C128.334 80.118 128.118 79.9023 128.118 79.6474C128.118 79.3925 128.314 79.1768 128.589 79.1768C128.863 79.1768 129.059 79.3925 129.059 79.6474ZM127.51 79.6082C127.51 79.8631 127.294 80.0592 127.04 80.0592C126.785 80.0592 126.569 79.8631 126.569 79.6082C126.569 79.3533 126.785 79.1572 127.04 79.1572C127.294 79.1572 127.51 79.3533 127.51 79.6082ZM125.961 79.6474C125.961 79.9023 125.745 80.118 125.49 80.118C125.236 80.118 125.02 79.9023 125.02 79.6474C125.02 79.3925 125.236 79.1768 125.49 79.1768C125.745 79.1768 125.961 79.3925 125.961 79.6474Z" stroke="#023C30" stroke-width="0.705884" stroke-linecap="round" stroke-linejoin="round"/><path d="M131.844 90.5885C131.647 89.7649 130.746 89.5885 129.295 88.863C129.295 88.863 129.334 88.6473 129.432 88.51C129.53 88.3728 130.118 87.9022 130.216 86.8042C130.314 85.5689 129.393 84.9414 128.569 84.9414C127.745 84.9414 126.824 85.5689 126.922 86.8042C127 87.9022 127.589 88.3728 127.687 88.51C127.785 88.6473 127.824 88.863 127.824 88.863C126.373 89.5885 125.471 89.7649 125.275 90.5885" fill="#03FC9E"/><path d="M131.765 90.5103C131.588 89.7064 130.706 89.5299 129.275 88.824C129.275 88.824 129.314 88.628 129.412 88.4907C129.51 88.3534 130.079 87.9025 130.177 86.824C130.275 85.6279 129.392 85.0005 128.569 85.0005C127.745 85.0005 126.863 85.6279 126.961 86.824C127.039 87.9025 127.608 88.3534 127.726 88.4907C127.824 88.628 127.863 88.824 127.863 88.824C126.451 89.5299 125.569 89.7064 125.373 90.5103" stroke="#023C30" stroke-width="0.470589" stroke-linecap="round" stroke-linejoin="round"/></g><defs><clipPath id="clip0_27_3339"><rect width="147.922" height="108.118" fill="white"/></clipPath></defs></svg>