<svg viewBox="0 0 124 97" fill="none" xmlns="http://www.w3.org/2000/svg"><g clip-path="url(#clip0_27_3390)"><path d="M110.628 93.0786H16.804C9.58826 93.0786 3.74512 87.2355 3.74512 80.0198V13.0588C3.74512 5.84315 9.58826 0 16.804 0H110.628C117.843 0 123.687 5.84315 123.687 13.0588V80.0394C123.687 87.2551 117.843 93.0982 110.628 93.0982" fill="#E3E8E3"/><path d="M44.4708 77.9609H32.6472M29.5688 77.9609H17.7452M70.412 81.9021H17.7256M39.8825 70.0786H17.7256M58.0198 70.0786H48.2159M35.706 74.0198H57.8629M49.2747 77.9609H47.157M45.4708 70.0786H43.3531M17.706 74.0198H19.8237M24.0786 74.0198H32.4707M48.2159 66.1374H70.3728M17.706 66.1374H39.8629M35.8433 62.1962H58.0002M42.608 66.1374H44.7257M17.8629 62.1962H19.9805M24.2354 62.1962H32.6276M0.353027 17.353H120.079M23.5884 11.6863C23.5884 12.5883 22.8629 13.3138 21.9609 13.3138C21.0589 13.3138 20.3335 12.5883 20.3335 11.6863C20.3335 10.7844 21.0589 10.0589 21.9609 10.0589C22.8629 10.0589 23.5884 10.7844 23.5884 11.6863ZM18.0982 11.5687C18.0982 12.4706 17.3727 13.1961 16.4707 13.1961C15.5687 13.1961 14.8433 12.4706 14.8433 11.5687C14.8433 10.6667 15.5687 9.94121 16.4707 9.94121C17.3727 9.94121 18.0982 10.6667 18.0982 11.5687ZM12.6668 11.6863C12.6668 12.5883 11.9413 13.3138 11.0393 13.3138C10.1374 13.3138 9.41187 12.5883 9.41187 11.6863C9.41187 10.7844 10.1374 10.0589 11.0393 10.0589C11.9413 10.0589 12.6668 10.7844 12.6668 11.6863ZM107.04 96.2943H13.3923C6.19618 96.2943 0.353027 90.4708 0.353027 83.2747V16.451C0.353027 9.25494 6.19618 3.4314 13.3923 3.4314H107.04C114.236 3.4314 120.079 9.25494 120.079 16.451V83.2747C120.079 90.4708 114.236 96.2943 107.04 96.2943Z" stroke="#023C30" stroke-width="0.705884" stroke-linecap="round" stroke-linejoin="round"/><path d="M31.3726 50.9019C30.9805 49.1568 29.0981 48.8039 26.0393 47.2745C26.0393 47.2745 26.1177 46.8431 26.3334 46.5293C26.5491 46.2156 27.7844 45.2548 27.9609 42.9411C28.157 40.3529 26.255 39.0195 24.4903 39.0195C22.7256 39.0195 20.8236 40.3529 21.0197 42.9411C21.1962 45.2548 22.4314 46.2156 22.6471 46.5293C22.8628 46.8235 22.9413 47.2745 22.9413 47.2745C19.8824 48.7843 18.0001 49.1568 17.6079 50.9019" fill="#03FC9E"/><path d="M31.2941 50.8236C30.902 49.0981 29.0392 48.7451 26.0196 47.2549C26.0196 47.2549 26.0981 46.8236 26.3137 46.5295C26.5294 46.2353 27.7451 45.2745 27.9216 43C28.1177 40.4314 26.2353 39.1177 24.4902 39.1177C22.7451 39.1177 20.8628 40.4314 21.0588 43C21.2353 45.2942 22.451 46.2353 22.6667 46.5295C22.8824 46.8236 22.9608 47.2549 22.9608 47.2549C19.9412 48.7451 18.0588 49.1177 17.6863 50.8236" stroke="#023C30" stroke-width="0.470589" stroke-linecap="round" stroke-linejoin="round"/><path d="M41.9216 33.9608C41.9216 31.4314 39.8628 29.3726 37.3334 29.3726C34.8039 29.3726 32.7451 31.4314 32.7451 33.9608C32.7451 36.4902 34.8039 38.549 37.3334 38.549C39.8628 38.549 41.9216 36.4902 41.9216 33.9608Z" fill="#03FC9E"/><path d="M42.4706 35.9021C41.5686 38.3335 39.0196 39.8433 36.3726 39.3923C33.3922 38.8629 31.3726 36.0197 31.902 33.0393C32.4314 30.0589 35.2745 28.0589 38.2549 28.5687M35.1569 32.608L37.4118 35.4119L43.549 28.4707" stroke="#023C30" stroke-width="0.470589" stroke-linecap="round" stroke-linejoin="round"/></g><defs><clipPath id="clip0_27_3390"><rect width="123.687" height="96.6472" fill="white"/></clipPath></defs></svg>