<svg id="common_sense_media_2x.svg" data-name="common_sense_media@2x.svg" xmlns="http://www.w3.org/2000/svg" width="46" height="40" viewBox="0 0 46 40">
  <metadata><?xpacket begin="﻿" id="W5M0MpCehiHzreSzNTczkc9d"?>
<x:xmpmeta xmlns:x="adobe:ns:meta/" x:xmptk="Adobe XMP Core 5.6-c138 79.159824, 2016/09/14-01:09:01        ">
   <rdf:RDF xmlns:rdf="http://www.w3.org/1999/02/22-rdf-syntax-ns#">
      <rdf:Description rdf:about=""/>
   </rdf:RDF>
</x:xmpmeta>
<?xpacket end="w"?></metadata>
  <path id="circle" class="cls-1" fill="#33a544" fill-rule="evenodd" d="M35.31,21.941a15.364,15.364,0,1,1-3.319-11.681l2.923-3.569c-0.25-.279-0.486-0.566-0.753-0.834A20,20,0,1,0,5.863,34.14,19.986,19.986,0,0,0,39.73,16.758Z"/>
  <path id="check" class="cls-2" fill="#2f302f" fill-rule="evenodd" d="M22.128,28.014H22.1a8.732,8.732,0,0,1-6-2.382l-5.513-5.617a2.058,2.058,0,0,1,.073-2.966,2.175,2.175,0,0,1,3.051.1l5.577,5.821h0a4.338,4.338,0,0,0,2.863,1.239c1.321-.011,2.716-0.794,4.143-2.341l15.892-19.1a2.176,2.176,0,0,1,3.038-.283A2.126,2.126,0,0,1,45.514,5.5L29.521,24.467A9.734,9.734,0,0,1,22.128,28.014Z"/>
</svg>
