<?xml version="1.0" encoding="utf-8"?>
<!-- Generator: Adobe Illustrator 22.0.1, SVG Export Plug-In . SVG Version: 6.00 Build 0)  -->
<svg version="1.1" id="Layer_1" xmlns="http://www.w3.org/2000/svg" xmlns:xlink="http://www.w3.org/1999/xlink" x="0px" y="0px"
	 viewBox="0 0 262 262" style="enable-background:new 0 0 262 262;" xml:space="preserve">
<style type="text/css">
	.st0{fill:#E5E5EA;}
	.st1{fill:#C7C7CC;}
</style>
<g>
	<path class="st0" d="M9.9,0h242.1c5.5,0,9.9,4.5,9.9,9.9v242.1c0,5.5-4.5,9.9-9.9,9.9H9.9c-5.5,0-9.9-4.5-9.9-9.9V9.9l0,0
		C0,4.5,4.5,0,9.9,0L9.9,0z M130.3,21.6H28.2l0,0c-3.7,0-6.6,3-6.6,6.6v205.6l0,0c0,3.7,3,6.6,6.6,6.6h205.5v0c3.7,0,6.6-3,6.6-6.6
		l0.1-98.2c0-4.1,0-8.3-0.2-12.4c-0.2-9-0.7-18.1-2.3-27.1c-1.6-9.1-4.3-17.6-8.4-25.8c-4.1-8.1-9.4-15.4-15.8-21.9
		c-6.4-6.5-13.7-11.8-21.7-16c-8.2-4.1-16.6-6.8-25.6-8.4c-8.9-1.6-18-2.2-26.9-2.3c-2.7-0.1-5.4-0.2-8.2-0.2
		C131,21.6,130.7,21.6,130.3,21.6z"/>
	<g transform="translate(135.429 7.524)">
		<rect x="90.1" y="14" class="st1" width="23.2" height="6.6"/>
		<polygon class="st1" points="105,5.7 105,29 98.4,29 98.4,5.7 		"/>
	</g>
</g>
</svg>
