<svg xmlns="http://www.w3.org/2000/svg" width="158" height="158" viewBox="0 0 158 158">
  <g fill="none" fill-rule="evenodd">
    <path fill="#E5E5EA" d="M6,0 L152,0 C155.313708,-6.08718376e-16 158,2.6862915 158,6 L158,152 C158,155.313708 155.313708,158 152,158 L6,158 C2.6862915,158 4.05812251e-16,155.313708 0,152 L0,6 L0,6 C-4.05812251e-16,2.6862915 2.6862915,6.08718376e-16 6,0 L6,0 Z M78.5699061,13 L17,13 L17,13 C14.790861,13 13,14.790861 13,17 L13,141 L13,141 C13,143.209139 14.790861,145 17,145 L140.951965,145 L140.951965,144.996959 C143.159917,144.996959 144.950286,143.20795 144.951964,140.999999 L145,81.7888314 C145,79.301185 145,76.8135386 144.892681,74.3258922 C144.785361,68.9179652 144.463404,63.4018796 143.49753,57.9939526 C142.531657,52.4778671 140.921867,47.3944157 138.453524,42.4191229 C135.985181,37.5519886 132.765602,33.1174884 128.902109,29.223781 C125.038615,25.3300736 120.638524,22.0853174 115.809157,19.5976709 C110.87247,17.1100245 105.828464,15.4876464 100.355181,14.5142196 C94.9892171,13.5407927 89.515934,13.2163171 84.1499702,13.1081585 C82.5096618,13.0362831 80.8693534,13.0121716 79.229045,13.0040831 C79.0095964,13.0013634 78.7898835,13 78.5699061,13 Z"/>
    <g fill="#C7C7CC" transform="translate(135.429 7.524)">
      <rect width="14" height="4" x=".571" y="5.476"/>
      <polygon points=".571 5.476 14.571 5.476 14.571 9.476 .571 9.476" transform="rotate(90 7.571 7.476)"/>
    </g>
  </g>
</svg>
