<svg xmlns="http://www.w3.org/2000/svg" width="158" height="158"><g fill="none" fill-rule="evenodd"><path fill="#E5E5EA" d="M6 0h146c3.3 0 6 2.7 6 6v146c0 3.3-2.7 6-6 6H6c-3.3 0-6-2.7-6-6V6c0-3.3 2.7-6 6-6zm72.57 13H17c-2.2 0-4 1.8-4 4v124c0 2.2 1.8 4 4 4h123.95c2.2 0 4-1.8 4-4l.05-59.2c0-2.5 0-5-.1-7.47-.1-5.4-.44-10.93-1.4-16.34-.97-5.54-2.58-10.6-5.05-15.6-2.46-4.87-5.68-9.3-9.55-13.2-3.86-3.9-8.26-7.13-13.1-9.6-4.93-2.5-9.97-4.1-15.44-5.1-5.37-.98-10.84-1.3-16.2-1.4-1.65-.08-3.3-.1-4.93-.1h-.66z"/><g fill="#C7C7CC"><path d="M136 13h14v4h-14z"/><path d="M145 8v14h-4V8"/></g></g></svg>