<svg height="14" viewBox="0 0 14 14" width="14" xmlns="http://www.w3.org/2000/svg">
  <path
    d="m7 0c3.8659932 0 7 3.13400675 7 7 0 3.8659932-3.1340068 7-7 7-3.86599325 0-7-3.1340068-7-7 0-3.86599325 3.13400675-7 7-7zm3.2615892 3.73841079c-.31788105-.31788105-.83326807-.31788105-1.15114912 0l-2.11044008 2.11058921-2.11044008-2.11058921c-.31788105-.31788105-.83326807-.31788105-1.15114913 0-.31788105.31788106-.31788105.83326808 0 1.15114913l2.11058921 2.11044008-2.11058921 2.11044008-.07284774.08335637c-.24282581.31905095-.21854323.77640179.07284774 1.06779275l.08335638.0728478c.31905094.2428258.77640179.2185432 1.06779275-.0728478l2.11044008-2.1105892 2.11044008 2.1105892c.31788105.3178811.83326807.3178811 1.15114912 0 .3178811-.31788105.3178811-.83326807 0-1.15114912l-2.1105892-2.11044008 2.1105892-2.11044008.0728478-.08335637c.2428258-.31905095.2185432-.77640179-.0728478-1.06779276z"
    fill-opacity=".5" fill-rule="evenodd" />
</svg>
