<svg viewBox="0 0 616 597" fill="none" xmlns="http://www.w3.org/2000/svg"><rect x="101.196" y="73.51" width="465.883" height="460.155" rx="34.055" fill="#fff"/><path d="M96.924 242.488H34.617C15.499 242.488 0 257.986 0 277.104v62.308c0 19.118 15.498 34.616 34.617 34.616h62.307c19.118 0 34.616-15.498 34.616-34.616v-62.308c0-19.118-15.498-34.616-34.616-34.616Zm484.012-10.978h-62.307c-19.118 0-34.617 15.498-34.617 34.617v62.307c0 19.118 15.499 34.617 34.617 34.617h62.307c19.118 0 34.617-15.499 34.617-34.617v-62.307c0-19.119-15.499-34.617-34.617-34.617Z" fill="#fff"/><path d="M580.459 194.755h-62.307c-19.118 0-34.617 15.499-34.617 34.617v62.307c0 19.118 15.499 34.617 34.617 34.617h62.307c19.118 0 34.617-15.499 34.617-34.617v-62.307c0-19.118-15.499-34.617-34.617-34.617ZM343.231 0h-62.308c-19.118 0-34.616 15.498-34.616 34.616v62.308c0 19.118 15.498 34.616 34.616 34.616h62.308c19.118 0 34.616-15.498 34.616-34.616V34.616C377.847 15.498 362.349 0 343.231 0Z" fill="#fff"/><path d="M286.905 0h-62.307c-19.118 0-34.617 15.498-34.617 34.616v62.308c0 19.118 15.499 34.616 34.617 34.616h62.307c19.118 0 34.617-15.498 34.617-34.616V34.616C321.522 15.498 306.023 0 286.905 0Zm165.628 40.098h-62.307c-19.118 0-34.617 15.498-34.617 34.616v62.308c0 19.118 15.499 34.616 34.617 34.616h62.307c19.118 0 34.617-15.498 34.617-34.616V74.714c0-19.118-15.499-34.616-34.617-34.616Z" fill="#fff"/><path d="M472.581 414.808h-62.307c-19.118 0-34.617 15.499-34.617 34.617v62.307c0 19.118 15.499 34.617 34.617 34.617h62.307c19.118 0 34.617-15.499 34.617-34.617v-62.307c0-19.118-15.499-34.617-34.617-34.617Z" fill="#F2F2F2"/><path d="M428.513 311.35h-154.42c-47.381 0-85.79 33.579-85.79 75.001V521.35c0 41.421 38.409 75 85.79 75h154.42c47.38 0 85.79-33.579 85.79-75V386.351c0-41.422-38.41-75.001-85.79-75.001Zm-293.879-6.808H72.327c-19.118 0-34.617 15.498-34.617 34.616v62.308c0 19.118 15.499 34.616 34.617 34.616h62.307c19.118 0 34.617-15.498 34.617-34.616v-62.308c0-19.118-15.499-34.616-34.617-34.616Zm7.763-170.887H61.905c-24.699 0-44.72 20.021-44.72 44.72v80.492c0 24.698 20.021 44.72 44.72 44.72h80.492c24.698 0 44.72-20.022 44.72-44.72v-80.492c0-24.699-20.022-44.72-44.72-44.72Z" fill="#fff"/><path d="m259.074 71.937-8.19-25.703a1.387 1.387 0 0 0-1.108-.952 1.385 1.385 0 0 0-1.349.566l-27.222 38.086m122.111 10.912-22.03-41.253a1.378 1.378 0 0 0-1.229-.735h-7.961L296.799 28.48a1.39 1.39 0 0 0-1.289-.65 1.406 1.406 0 0 0-1.168.855l-12.165 29.557a1.36 1.36 0 0 0 .241 1.434l8.094 9.31-5.179 11.202m3.672-50.13-9.575-8.179a1.39 1.39 0 0 0-1.048-.325c-.386.036-.723.24-.952.542l-20.777 27.498m-43.42 43.903h58.092m59.066 10.033h23.367m-56.032 0h10.816m-73.473-82.65 6.324 4.938c.253.192.554.289.855.289.301 0 .626-.109.879-.313l6.035-4.939m2.783 9.299 3.77 2.939c.253.193.554.29.856.29.301 0 .626-.11.879-.314l3.601-2.939m-.759-19.127 3.77 2.939c.253.192.554.289.855.289.301 0 .626-.109.879-.313l3.601-2.94" stroke="#003B2F" stroke-width="1.077" stroke-linecap="round" stroke-linejoin="round"/><path d="M229.481 128.415h7.094a1.41 1.41 0 0 0 1.216-.711 1.433 1.433 0 0 0-.024-1.409l-6.082-9.889h1.975c.518 0 .988-.277 1.229-.734.241-.458.217-1-.073-1.422l-8.226-12.285a1.375 1.375 0 0 0-1.156-.615c-.47 0-.892.229-1.157.615l-8.226 12.285a1.373 1.373 0 0 0-.072 1.422c.24.457.71.734 1.228.734h1.975l-6.082 9.889a1.375 1.375 0 0 0-.024 1.409c.241.434.71.711 1.216.711h6.661" fill="#03FC9D"/><path d="M229.481 128.415h7.094a1.41 1.41 0 0 0 1.216-.711 1.433 1.433 0 0 0-.024-1.409l-6.082-9.889h1.975c.518 0 .988-.277 1.229-.734.241-.458.217-1-.073-1.422l-8.226-12.285a1.375 1.375 0 0 0-1.156-.615c-.47 0-.892.229-1.157.615l-8.226 12.285a1.373 1.373 0 0 0-.072 1.422c.24.457.71.734 1.228.734h1.975l-6.082 9.889a1.375 1.375 0 0 0-.024 1.409c.241.434.71.711 1.216.711h6.661" stroke="#003B2F" stroke-width="1.077" stroke-linecap="round" stroke-linejoin="round"/><path d="M273.721 131.619h6.745a1.41 1.41 0 0 0 1.216-.711 1.433 1.433 0 0 0-.024-1.409l-6.082-9.889h1.975c.518 0 .988-.277 1.229-.735a1.37 1.37 0 0 0-.073-1.421l-8.226-12.285a1.375 1.375 0 0 0-1.156-.615c-.47 0-.892.229-1.157.615l-8.226 12.285a1.372 1.372 0 0 0-.072 1.421c.24.458.71.735 1.228.735h1.975l-6.082 9.889a1.375 1.375 0 0 0-.024 1.409c.241.434.71.711 1.216.711h7.456" fill="#03FC9D"/><path d="M273.721 131.619h6.745a1.41 1.41 0 0 0 1.216-.711 1.433 1.433 0 0 0-.024-1.409l-6.082-9.889h1.975c.518 0 .988-.277 1.229-.735a1.37 1.37 0 0 0-.073-1.421l-8.226-12.285a1.375 1.375 0 0 0-1.156-.615c-.47 0-.892.229-1.157.615l-8.226 12.285a1.372 1.372 0 0 0-.072 1.421c.24.458.71.735 1.228.735h1.975l-6.082 9.889a1.375 1.375 0 0 0-.024 1.409c.241.434.71.711 1.216.711h7.456m56.78-7.637h5.829c.506 0 .964-.277 1.217-.71a1.435 1.435 0 0 0-.024-1.41l-5.095-8.274h1.373c.518 0 .987-.277 1.228-.735.241-.458.217-1-.072-1.421l-7.118-10.624a1.377 1.377 0 0 0-1.157-.614c-.469 0-.891.229-1.156.614l-7.118 10.624a1.371 1.371 0 0 0-.073 1.421c.241.458.711.735 1.229.735h1.373l-5.095 8.274a1.377 1.377 0 0 0-.024 1.41c.241.433.711.71 1.217.71h6.455m-73.57-.831h10.889c.505 0 .963-.277 1.216-.71a1.435 1.435 0 0 0-.024-1.41l-6.083-9.888h1.976c.518 0 .987-.277 1.228-.735.241-.458.217-1-.072-1.421l-8.226-12.286a1.376 1.376 0 0 0-1.157-.614c-.47 0-.891.229-1.156.614l-6.179 9.214m49.685 13.322h9.13c.505 0 .963-.277 1.216-.711a1.433 1.433 0 0 0-.024-1.409l-4.902-7.95h1.264c.518 0 .988-.277 1.229-.734.241-.458.217-1-.072-1.422l-6.902-10.31a1.375 1.375 0 0 0-1.156-.614c-.47 0-.891.229-1.156.614l-5.18 7.733" stroke="#003B2F" stroke-width="1.077" stroke-linecap="round" stroke-linejoin="round"/><path d="M384.899 365.697c11.838-3.246 21.48 1.353 24.822 4.057.238-1.352 1.909-4.964 6.683-8.592 4.773-3.627 11.217-3.102 13.842-2.386 1.989.716 5.203 2.291 2.148 2.864-3.055.572-6.523 3.102-7.876 4.296-.795.795-2.148 2.482-1.193 2.864 10.024-.955 11.456 1.67 13.365 2.386 1.91.716 2.864 2.626 1.194 3.581-6.874-.764-10.024 1.113-10.74 2.148 0 0 4.534 5.012 6.205 8.592 1.337 2.864-.239 3.261-1.193 3.102-1.751-1.193-6.588-3.723-11.934-4.296-6.682-.716-5.012 1.194-8.353 2.387-2.673.955-6.206 7.24-7.638 10.263-.636 2.068-2.195 5.298-3.341 1.67-1.432-4.534 0-12.649.955-14.32.954-1.67.954-1.193-.955-1.193-4.773.955-10.422 5.808-12.649 8.115-.796 1.193-2.578 3.58-3.342 3.58-2.148-.239-.477-3.58.955-6.683 2.1-8.401 8.353-13.047 11.217-14.32l-1.67-1.194c-2.387-1.352-7.829-4.057-10.502-4.057-3.341 0-3.58-1.432 0-2.864Z" fill="#03FC9D"/><path d="m419.947 386.644-2.384.939a1.12 1.12 0 0 0-.603 1.506c.795 1.722 1.819 4.276 2.361 5.649m5.698.795-3.734 1.385a1.105 1.105 0 0 0-.662 1.397 107.738 107.738 0 0 1 1.891 6.288m6.769.698-5.107 1.554a1.111 1.111 0 0 0-.759 1.325c.65 2.758 1.192 5.926 1.626 8.479l.108.627m7.842.481-6.42 1.927a1.11 1.11 0 0 0-.783 1.217c.506 3.686.771 6.817.915 8.805m13.647-1.542c-2.818-22.042-11.105-35.64-15.549-42.951l-.205-.338m-3.037-2.673c4.445.445 7.601 1.216 14.514 4.673.157.084.325.12.494.12a1.11 1.11 0 0 0 1.096-1.3c-.036-.241-1.012-5.661-6.914-10.853 2.313-2.035 7.095-2.36 10.768-1.963.47.048.916-.205 1.121-.626.204-.422.12-.928-.217-1.265-.084-.084-8.54-8.431-20.151-2.313m4.975-3.24c2.252-2.794 5.023-4.517 9.01-5.577.445-.12.77-.506.819-.963a1.111 1.111 0 0 0-.603-1.108c-.229-.109-5.528-2.722-11.791-.651-4.505 1.494-8.263 4.999-11.214 10.419-13.346-8.588-26.125-3.349-26.667-3.12a1.123 1.123 0 0 0-.65 1.289c.132.53.626.891 1.168.843 3.216-.241 8.768 2.289 11.719 4.047.181.109.374.157.566.157m3.591.47c-9.841 2.324-13.611 14.02-15.634 20.307-.169.53.072 1.096.566 1.337a1.113 1.113 0 0 0 1.409-.361c.072-.097 6.709-9.419 17.308-11.768-2.77 4.095-3.541 10.069-2.108 16.935.097.482.506.843 1 .879h.096c.458 0 .868-.277 1.036-.699.036-.096 3.951-9.816 8.913-13.201m36.628 44.687c1.409-7.805 5.143-15.201 10.25-20.296m-4.54-4.119c-4.685 2.602-11.334 11.045-14.851 23.463m12.225-36.917c-6.998-1.819-11.395.987-11.575 1.108a1.115 1.115 0 0 0 .433 2.035c4.999.783 6.541 1.663 8.179 2.927-4.565 3.59-7.348 9.72-7.468 9.997-.217.494-.06 1.06.373 1.374a1.123 1.123 0 0 0 1.422-.109c5.239-5.131 10.177-5.601 13.442-5.516m12.851.735c6.432 1.288 10.153 3.926 10.19 3.95.192.145.421.217.65.217.217 0 .422-.06.614-.181.386-.253.578-.722.482-1.168-2.072-9.503-10.515-10.72-14.959-10.636-2.205-10.286-14.936-13.092-15.49-13.213a1.11 1.11 0 0 0-1.18.518c-.241.41-.205.916.096 1.289 3.18 3.842 5.252 7.54 6.179 10.973m2.914 17.055c.699 4.999.024 8.395.012 8.419a1.102 1.102 0 0 0 1.084 1.337c.301 0 .615-.132.831-.361 2.361-2.614 4.939-8.877 4.638-13.948 4.372 3.18 6.781 7.528 6.805 7.576.205.374.602.603 1.024.579a1.11 1.11 0 0 0 .975-.663c1.446-3.3 1.494-6.119.157-8.624m-3.203 30.666c-23.017-10.154-54.574-6.215-69.63-.169" stroke="#003B2F" stroke-width="1.077" stroke-linecap="round" stroke-linejoin="round"/><path d="m250.303 518.85 10.601-20.086a187.998 187.998 0 0 1 79.469-79.015l33.43-17.399-153.5-41.5c98.479-33.175 82.936-102.486 82.936-102.486l179.748 57.759s3.825-38.188-16.254-69.454c-20.078-31.266-54.498-61.339-54.498-61.339s-33.463 1.671-65.254-10.024c-31.79-11.695-43.742-35.562-43.742-35.562" stroke="#B2B4B5" stroke-width="2.146" stroke-linecap="round" stroke-dasharray="4.29 4.29"/><path d="M303.865 269.193a8.323 8.323 0 1 0-.07-16.646 8.323 8.323 0 0 0 .07 16.646Z" fill="#fff" stroke="#003B2F" stroke-width="2.146"/><path d="M301.003 146.039a8.323 8.323 0 1 0-8.358-8.288 8.322 8.322 0 0 0 8.358 8.288Z" fill="#003B2F" stroke="#003B2F" stroke-width="2.146"/><path d="M247.79 528.9a8.322 8.322 0 1 0-.07-16.645 8.323 8.323 0 1 0 .07 16.645Zm124.905-117.869a8.323 8.323 0 1 0-.07-16.646 8.323 8.323 0 0 0 .07 16.646Zm110.65-86.467a8.323 8.323 0 1 0-.07-16.646 8.323 8.323 0 0 0 .07 16.646Zm-72.078-129.836a8.323 8.323 0 1 0-.07-16.646 8.323 8.323 0 0 0 .07 16.646ZM220.695 370.031a8.324 8.324 0 0 0-.069-16.646 8.322 8.322 0 0 0-8.288 8.358 8.323 8.323 0 0 0 8.357 8.288Z" fill="#fff" stroke="#003B2F" stroke-width="2.146"/><path d="M299.819 138.119a2.74 2.74 0 0 1-2.731-2.732V86.731A2.739 2.739 0 0 1 299.819 84a2.74 2.74 0 0 1 2.732 2.731v48.656a2.74 2.74 0 0 1-2.732 2.732Z" fill="#03FC9D"/><path d="m272 101.734 14.236-8.22 14.237-8.219v32.877l-14.237-8.219L272 101.734Z" fill="#03FC9D"/><path d="M295.173 104.136c0-1.148-.672-2.074-1.744-2.445.819-.374 1.389-1.15 1.389-2.15 0-1.565-1.313-2.653-3.177-2.653h-5.321v1.328a1.513 1.513 0 1 1 0 3.028v1.195a1.513 1.513 0 1 1 0 3.027v1.446h5.556c1.909 0 3.297-1.132 3.297-2.774m-5.995-5.804h2.191c.897 0 1.537.583 1.537 1.401 0 .819-.64 1.389-1.537 1.389h-2.191v-2.79Zm0 7.13v-3.028h2.387c.983 0 1.655.612 1.655 1.506s-.672 1.522-1.655 1.522h-2.387Z" fill="#003B2F"/><path fill="#03FC9D" d="M338.92 501.022h25.299v8.592H338.92zm1.193 22.913h23.39l1.193 12.888H338.92l1.193-12.888Z"/><path d="M342.463 523.971h18.705m-15.332-27.775h11.96m0 4.685h-11.96m-1.675 8.733h7.829m4.927 0h2.565m4.794 40.651h-3.505m-19.898-12.78h21.885m-19.922 12.78h-3.468m29.244 0h-2.192l-4.794-40.639h2.289c.59 0 1.072-.482 1.072-1.072v-6.601c0-.59-.482-1.072-1.072-1.072h-3.975v-4.685h3.975a1.07 1.07 0 0 0 .614-1.951l-12.009-10.624a1.068 1.068 0 0 0-1.421 0l-12.093 10.696a1.06 1.06 0 0 0-.289 1.18c.157.422.554.687 1 .687h3.975v4.685h-3.975c-.59 0-1.072.482-1.072 1.072v6.601c0 .59.482 1.072 1.072 1.072h2.288l-4.794 40.638h-2.192c-.59 0-1.072.482-1.072 1.072v8.456c0 .59.482 1.072 1.072 1.072h33.605c.59 0 1.072-.482 1.072-1.072v-8.456c0-.59-.482-1.072-1.072-1.072l-.012.013Zm-14.032 8.455h-5.517v-7.48a2.486 2.486 0 0 1 2.482-2.481h.542a2.485 2.485 0 0 1 2.481 2.481v7.48h.012Z" stroke="#003B2F" stroke-width="1.077" stroke-linecap="round" stroke-linejoin="round"/><path d="M349.225 516.9a.695.695 0 0 1-.692.693.695.695 0 0 1-.693-.693v-2.348c0-.381.312-.693.693-.693.38 0 .692.312.692.693v2.348Zm6.661 11.323c0-.381.312-.693.693-.693.381 0 .693.312.693.693v2.337c0 .38-.312.692-.693.692a.695.695 0 0 1-.693-.692v-2.337Z" fill="#003B2F" stroke="#003B2F" stroke-width=".758"/><path d="M332.935 541.339a7.367 7.367 0 0 1-6.841-4.577 1.077 1.077 0 0 0-.988-.662c-.433 0-.819.265-.987.662a7.394 7.394 0 0 1-6.842 4.577 7.38 7.38 0 0 1-6.841-4.577 1.077 1.077 0 0 0-.988-.662c-.434 0-.819.265-.988.662a7.391 7.391 0 0 1-6.841 4.577 7.38 7.38 0 0 1-6.841-4.577 1.077 1.077 0 0 0-.988-.662c-.434 0-.819.265-.988.662a7.391 7.391 0 0 1-6.841 4.577 7.382 7.382 0 0 1-6.842-4.577 1.076 1.076 0 0 0-.987-.662c-.434 0-.819.265-.988.662a7.391 7.391 0 0 1-6.841 4.577m54.803 12.696a7.368 7.368 0 0 1-6.841-4.578 1.077 1.077 0 0 0-.988-.662c-.434 0-.819.265-.988.662a7.392 7.392 0 0 1-6.841 4.578 7.38 7.38 0 0 1-6.841-4.578 1.077 1.077 0 0 0-.988-.662c-.434 0-.819.265-.988.662a7.392 7.392 0 0 1-6.841 4.578 7.382 7.382 0 0 1-6.842-4.578 1.076 1.076 0 0 0-.987-.662c-.434 0-.819.265-.988.662a7.392 7.392 0 0 1-6.841 4.578m9.781-60.598a9.03 9.03 0 0 1 6.66 5.312c.169.386.554.651.988.651.434 0 .807-.253.988-.651a9.083 9.083 0 0 1 7.13-5.384m-2.698 18.573a8.047 8.047 0 0 1 5.938 4.734c.169.385.554.65.988.65.433 0 .807-.253.987-.65a8.126 8.126 0 0 1 6.348-4.806" stroke="#003B2F" stroke-width="1.077" stroke-linecap="round" stroke-linejoin="round"/><path d="M86.303 403.887h85.1v-6.607c0-18.382-14.922-33.303-33.304-33.303h-18.492c-16.038 0-29.442 11.358-32.6 26.463" stroke="#003B2F" stroke-width="1.078" stroke-linecap="round" stroke-linejoin="round"/><path d="M165.241 377.968h23.595c9.198 0 16.65 7.456 16.65 16.649v9.27h-34.078m-31.514-19.953h-22.077v19.958h22.077v-19.958Zm-11.041 0v19.958m-34.688-28.101h69.295m6.11 10.563h33.605" stroke="#003B2F" stroke-width="1.078" stroke-linecap="round" stroke-linejoin="round"/><path d="M197.036 386.354v12.483h-17.365v-12.483m-70.934 1.475H91.372v7.337h17.365v-7.337Z" stroke="#003B2F" stroke-width="1.078" stroke-linecap="round" stroke-linejoin="round"/><path d="M192.792 366.965c-5.098 5.098-13.365 5.098-18.463 0-5.098-5.098-5.098-13.366 0-18.464l18.463 18.464Z" fill="#03FC9D" stroke="#003B2F" stroke-width="1.078" stroke-linecap="round" stroke-linejoin="round"/><path d="m186.477 360.645 1.771-3.814c1.145-2.463-1.404-5.017-3.871-3.871l-3.814 1.771m8.135-17.051c3.728.349 7.236 1.862 9.952 4.578s4.229 6.224 4.578 9.952m-15.652-9.78c2.797.262 5.427 1.398 7.465 3.437 2.038 2.038 3.174 4.668 3.432 7.46m-12.014-6.148c1.861.172 3.618.931 4.974 2.291 1.355 1.361 2.114 3.112 2.291 4.974m-18.158 21.437v-7.637m-42.484-11.933v5.728m-8.592 0v-6.206" stroke="#003B2F" stroke-width="1.078" stroke-linecap="round" stroke-linejoin="round"/><path d="M143.546 355.585h-33.075l9.547-19.07h33.075l-9.547 19.07Z" fill="#03FC9D" stroke="#003B2F" stroke-width="1.078" stroke-linecap="round" stroke-linejoin="round"/><path d="m131.045 336.515-9.547 19.07m20.572-19.07-9.547 19.07m-17.279-9.532h33.075m38.63-25.528-2.043 2.047m7.169-7.169v-.005l2.053-2.048m-7.179 2.048-2.043-2.048m7.169 7.17v.005l2.053 2.047m-88.708.979v2.892m.004-10.138-.004-.005.004-2.898m-3.632 6.526h-2.893m10.144-.005.004.005 2.898-.005m414.084-76.336v-12.555h26.731v38.187m-15.99-38.132v-4.828m10.271 4.828v-4.829" stroke="#003B2F" stroke-width="1.078" stroke-linecap="round" stroke-linejoin="round"/><path d="m509.799 309.793.279-53.999 17.383-6.623v60.622" fill="#03FC9D"/><path d="m509.799 309.793.279-53.999 17.383-6.623v60.622m30.384-58.235 14.781-.007c3.527 0 6.388-2.842 6.388-6.351 0-3.508-2.857-6.353-6.388-6.353-.336 0-.67.028-.996.076-.568-4.453-4.389-7.891-9.017-7.891a9.098 9.098 0 0 0-5.557 1.883m-52.75 27.235h-4.587c-2.869 0-5.195-2.319-5.195-5.172 0-2.853 2.326-5.172 5.195-5.172.275 0 .547.021.811.063.463-3.626 3.572-6.426 7.337-6.426a7.399 7.399 0 0 1 6.228 3.387" stroke="#003B2F" stroke-width="1.078" stroke-linecap="round" stroke-linejoin="round"/><path d="M559.443 309.793v-33.994l-13.843-3.238v37.232" fill="#03FC9D"/><path d="M559.443 309.793v-33.994l-13.843-3.238v37.232m-2.387-72.078v29.117m9.547 13.843v29.118m-34.368-51.075v51.075m16.706-72.078v72.078" stroke="#003B2F" stroke-width="1.078" stroke-linecap="round" stroke-linejoin="round"/><path d="m286.272 251.977-5.633-4.993c-.698.202-1.431.381-2.199.53h-.028c2.237-.464 4.175-1.195 5.527-2.08.217-.142.229-.407.036-.579l-6.071-5.385c-.252.077-.509.147-.773.212 1.08-.308 2.03-.72 2.788-1.214.218-.14.228-.408.034-.58l-7.1-6.297a.542.542 0 0 0-.702 0l-7.105 6.297c-.194.172-.184.438.034.579.736.479 1.648.88 2.683 1.184a18.68 18.68 0 0 1-.659-.185l-6.078 5.388c-.193.171-.182.438.034.58 1.406.924 3.433 1.669 5.793 2.13a25.58 25.58 0 0 1-2.496-.576l-5.629 4.99c-.194.172-.177.429.046.563 2.906 1.742 8.121 2.839 13.728 2.839 5.607 0 10.819-1.097 13.723-2.839.222-.134.239-.391.047-.563v-.001Z" fill="#03FC9D"/><path d="M196.852 225.033c-.732.049-1.473.095-2.225.139v-2.781c.579.03 1.164.049 1.767.049.155 0 .304-.006.458-.007v2.6Z" fill="#003B2F"/><path d="M195.805 182.343c2.889 0 9.962 14.337 9.962 26.861 0 4.038-.758 7.219-2.254 9.454-1.656 2.478-4.25 3.733-7.708 3.733-.744 0-1.448-.059-2.113-.171 2.032-.701 3.748-1.561 5.009-2.556.355-.28.566-.696.579-1.14a1.553 1.553 0 0 0-.525-1.205l-7.001-6.274c1.694-.674 3.12-1.492 4.184-2.419.334-.291.527-.708.53-1.147a1.586 1.586 0 0 0-.534-1.194l-7.558-6.776c.966-.358 1.072-.28 1.897-.684.394-.192.512-.712.512-1.149a1.63 1.63 0 0 0-.537-1.194l-2.28-2.044c2.451-6.834 6.334-12.095 7.837-12.095Z" fill="#03FC9D"/><path d="M259.105 241.94c-10.554-.053-13.434 2.452-13.982 4.572-.502 1.941.866 4.052 3.569 5.513 3.839 2.072 5.885 4.707 5.341 6.877-.397 1.581-3.438 6.75-25.923 6.872-23.7.128-38.543-4.631-46.806-8.644-9.65-4.686-15.475-10.878-15.584-16.562-.125-6.522 7.438-10.824 19.739-11.228 18.447-.606 28.283-3.408 37.795-6.12 9.554-2.723 18.579-5.295 35.76-5.801 15.762-.462 22.905 3.822 24.335 7.986.92 2.687-.388 5.635-3.591 8.16" stroke="#003B2F" stroke-width="1.053" stroke-linecap="round" stroke-linejoin="round"/><path d="M272.484 258.161c-.615 0-1.113-.206-1.113-.46v-2.319c.307 0 .615.004.922.004.438 0 .869-.005 1.303-.006v2.321c0 .254-.498.46-1.112.46Z" fill="#003B2F"/><path d="M268.916 239.801c-1.486-.318-2.779-.826-3.761-1.472-.215-.142-.225-.409-.033-.582l7.041-6.327a.533.533 0 0 1 .695 0l7.037 6.327c.192.173.182.44-.034.583-.943.623-2.184 1.119-3.605 1.438m2.139 7.651c.761-.15 1.487-.33 2.18-.533l5.581 5.017c.192.172.176.432-.046.565-2.878 1.75-8.046 2.852-13.6 2.852-5.553 0-10.726-1.1-13.604-2.852-.22-.135-.237-.393-.046-.565l5.579-5.014c.918.268 1.904.492 2.945.664" stroke="#003B2F" stroke-width="1.053" stroke-linecap="round" stroke-linejoin="round"/><path d="M267.662 247.608c-2.658-.444-4.949-1.252-6.489-2.278-.215-.143-.226-.409-.034-.583l6.024-5.413c.455.141.929.265 1.418.37m8.032-.036c.43-.096.848-.206 1.25-.331l6.016 5.41c.192.173.181.439-.035.582-1.399.929-3.433 1.689-5.776 2.152" stroke="#003B2F" stroke-width="1.053" stroke-linecap="round" stroke-linejoin="round"/><path d="M232.452 217.941c-.614 0-1.113-.205-1.113-.459v-2.319c.307 0 .615.004.922.004.438 0 .869-.005 1.303-.007v2.322c0 .254-.498.459-1.112.459Z" fill="#003B2F"/><path d="M228.812 199.639c-1.486-.318-2.78-.826-3.761-1.472-.216-.141-.225-.409-.033-.582l7.041-6.327a.533.533 0 0 1 .695 0l7.037 6.327c.192.173.182.441-.034.584-.943.622-2.184 1.118-3.605 1.438m2.139 7.65a24.72 24.72 0 0 0 2.179-.532l5.582 5.016c.192.173.175.432-.046.565-2.878 1.751-8.046 2.853-13.6 2.853s-10.726-1.101-13.604-2.853c-.22-.134-.237-.392-.046-.565l5.579-5.013c.918.267 1.903.492 2.945.664" stroke="#003B2F" stroke-width="1.053" stroke-linecap="round" stroke-linejoin="round"/><path d="M227.555 207.446c-2.658-.444-4.949-1.251-6.489-2.277-.215-.143-.226-.41-.034-.583l6.024-5.414c.455.142.929.265 1.418.37m8.032-.036c.43-.095.848-.206 1.25-.331l6.016 5.411c.192.172.181.438-.035.581-1.399.93-3.433 1.689-5.776 2.152" stroke="#003B2F" stroke-width="1.053" stroke-linecap="round" stroke-linejoin="round"/><path d="M175.439 227.397c-.768 0-1.392-.288-1.392-.644v-3.247c.384 0 .766.007 1.153.007.546 0 1.086-.007 1.628-.009v3.249c0 .356-.623.644-1.392.644h.003Z" fill="#003B2F"/><path d="M169.911 200.824c-2.155-.461-4.031-1.197-5.453-2.133-.312-.206-.326-.595-.049-.844l10.212-9.176a.773.773 0 0 1 1.008 0l10.204 9.176c.279.249.265.639-.047.845-1.368.901-3.168 1.622-5.23 2.084m3.1 11.095a35.741 35.741 0 0 0 3.161-.772l8.096 7.276c.277.251.253.625-.066.82-4.175 2.538-11.669 4.136-19.723 4.136-8.054 0-15.555-1.596-19.73-4.136-.319-.195-.344-.569-.065-.819l8.089-7.27c1.332.389 2.761.712 4.27.962" stroke="#003B2F" stroke-width="1.053" stroke-linecap="round" stroke-linejoin="round"/><path d="M168.089 212.146c-3.855-.645-7.175-1.816-9.41-3.304-.311-.208-.328-.595-.049-.845l8.736-7.851c.662.204 1.347.384 2.058.535m11.646-.052c.624-.139 1.23-.3 1.814-.481l8.726 7.847c.278.25.261.638-.05.844-2.03 1.347-4.978 2.45-8.379 3.122m14.798 27.673h-6.674m-5.562 7.231h-6.675m46.723-2.225h-7.231m22.804-13.905h-6.674m-19.467 25.586h-6.675" stroke="#003B2F" stroke-width="1.053" stroke-linecap="round" stroke-linejoin="round"/><path d="M187.968 194.438c2.45-6.834 6.333-12.095 7.836-12.095 2.89 0 9.963 14.337 9.963 26.861 0 4.038-.758 7.219-2.254 9.454-1.656 2.478-4.25 3.733-7.709 3.733-.744 0-1.448-.059-2.113-.171m271.64-37.817c2.372-.811 14.572-5.043 26.784-10.327 18.687-8.086 28.109-14.434 28.807-19.407.569-4.056-4.148-7.52-7.937-10.302-1.839-1.351-4.62-3.393-4.432-4.187.021-.089.315-.883 4.151-1.535a942.86 942.86 0 0 1 2.45-.414m.522-9.795c-7.642.612-14.018 1.191-18.95 1.721-5.206.557-8.554 2.5-9.43 5.469-.803 2.721.699 5.868 4.121 8.634.377.306.81.753.73 1.152-.242 1.203-3.288 2.663-9.053 4.342-10.528 3.065-18.657 4.887-26.52 6.648-6.016 1.349-12.232 2.741-19.572 4.695" stroke="#003B2F" stroke-width="1.053" stroke-linecap="round" stroke-linejoin="round"/><path d="M525.869 150.839h-.636c-.351 0-.636-.191-.636-.427v-2.885c.088 0 .168.008.256.008h.18c.504 0 .992-.014 1.474-.037v2.914c0 .236-.285.427-.636.427h-.002Z" fill="#003B2F"/><path d="M531.919 144.57c-1.359 1.855-3.503 2.795-6.372 2.795h-.109c-5.556-.046-8.36-3.444-8.334-10.1.039-9.462 5.998-20.78 8.326-20.78 2.329 0 8.327 11.434 8.327 20.994 0 3.039-.619 5.424-1.838 7.091Z" fill="#03FC9D" stroke="#003B2F" stroke-width="1.053" stroke-linecap="round" stroke-linejoin="round"/><path d="M463.497 148.332c-.628.043-1.264.082-1.91.12v-2.386c.497.025.999.042 1.516.042.134 0 .262-.006.394-.007v2.231Z" fill="#003B2F"/><path d="M462.912 108.833c2.683 0 9.249 13.34 9.249 24.992 0 3.758-.704 6.718-2.092 8.797-1.538 2.306-3.946 3.474-7.157 3.474-.69 0-1.344-.055-1.961-.159 1.887-.653 3.479-1.452 4.651-2.379.329-.26.525-.647.537-1.06a1.445 1.445 0 0 0-.488-1.121l-6.499-5.838c1.573-.628 2.896-1.388 3.885-2.251.309-.27.488-.659.491-1.068a1.481 1.481 0 0 0-.495-1.111l-7.017-6.304c.897-.333.995-.26 1.761-.637.366-.179.476-.662.476-1.069 0-.406-.182-.826-.499-1.111l-2.117-1.901c2.276-6.36 5.88-11.254 7.275-11.254Z" fill="#03FC9D"/><path d="M443.451 150.839c-.792 0-1.434-.283-1.434-.632v-3.184c.396 0 .789.006 1.188.006.562 0 1.118-.006 1.676-.009v3.187c0 .349-.642.632-1.433.632h.003Z" fill="#003B2F"/><path d="M438.612 126.067c-2.009-.43-3.76-1.116-5.086-1.989-.291-.193-.304-.555-.045-.787l9.524-8.555a.72.72 0 0 1 .94 0l9.517 8.555c.26.232.247.596-.044.788-1.276.84-2.955 1.512-4.878 1.943m2.893 10.344a33.021 33.021 0 0 0 2.948-.72l7.55 6.785c.259.234.236.582-.062.764-3.893 2.367-10.882 3.857-18.394 3.857-7.512 0-14.508-1.489-18.401-3.857-.298-.182-.322-.53-.061-.763l7.544-6.779c1.242.363 2.576.664 3.982.898" stroke="#003B2F" stroke-width="1.053" stroke-linecap="round" stroke-linejoin="round"/><path d="M436.913 136.623c-3.595-.602-6.692-1.693-8.776-3.081-.29-.193-.306-.554-.046-.788l8.148-7.32c.617.191 1.256.358 1.919.499m10.863-.048c.582-.13 1.147-.28 1.692-.448l8.138 7.316c.259.232.243.594-.047.786-1.893 1.256-4.643 2.285-7.814 2.911" stroke="#003B2F" stroke-width="1.053" stroke-linecap="round" stroke-linejoin="round"/><path d="M455.637 120.087c2.275-6.36 5.879-11.254 7.274-11.254 2.683 0 9.248 13.34 9.248 24.992 0 3.758-.703 6.718-2.092 8.797-1.537 2.306-3.945 3.474-7.156 3.474-.69 0-1.344-.055-1.961-.159" stroke="#003B2F" stroke-width="1.053" stroke-linecap="round" stroke-linejoin="round"/><path d="M445.835 174.228c5.251-1.432 49.25-17.615 50.837-18.377 5.967-2.864 16.23-4.057 1.909-15.752-5.489-4.483 11.934-5.728 16.469-6.444" stroke="#003B2F" stroke-width="1.053" stroke-linecap="round" stroke-dasharray="1.4 5.27"/></svg>