<svg viewBox="0 0 446 309" fill="none" xmlns="http://www.w3.org/2000/svg"><path d="M307.054 181.378c-2.048.054-3.661.087-6.32.119h-.773c-4.555.044-9.753.022-15.027-.109-.273 0-.545-.021-.828-.021-4.948-.142-9.938-.393-14.493-.828a20.847 20.847 0 0 1-1.166-.109c-4.054-.415-6.526-.264-9.435-1.005-.997-1.329-.665-2.658-1.625-2.003-.12-.37.96 0-.371-1.101-.523-1.514-.226-3.089-.662-4.538 1.623.371 2.569.801 4.356 1.095.567.087 1.122.163 1.7.251 4.097.599 8.5 1.002 12.935 1.231.751.065 1.492.109 2.244.12 4.403.207 8.772.294 12.869.294.85 0 1.69 0 2.518-.022 6.407-.043 10.373-.174 13.85-.348" fill="#E6E8EA"/><path d="M359.894 55.422c.436 1.21-6.887 20.149-5.078 23.418 1.112 2.005 5.896 3.062 9.524 3.585.305-.196.621-.393.916-.6 22.142-15.222 6.461-46.213 3.094-45.429-13.741.621-13.806-1.689-45.298-16.05l-20.65 43.325-1.438 2.997s22.001 10.984 41.267 15.953c5.252-13.632 17.358-28.027 17.663-27.199Z" fill="#03FC9D"/><path d="M294.48 64.4c-.175-.01-9.818-2.69-34.118 12.717-3.291 2.093-.066 5.024 8.227 10.625 6.375-8.01 14.264-11.028 19.93-12.51 9.437-2.462 17.424 6.331 18.144 7.247 0 0-2.845-12.597-4.98-15.049 0 0-2.212-2.354-7.214-3.04l.011.01Z" fill="#003B2F"/><path d="M306.662 82.478c-.719-.904-8.707-9.709-18.143-7.246-10.734 2.8-29.4 11.104-30.73 48.284m42.685 11.07-4.246 20.25s-36.99-5.762-40.205-9.303c-2.495-2.724-1.381-7.231 2.782-12.549" stroke="#003B2F" stroke-width="1.654" stroke-linecap="round" stroke-linejoin="round"/><path d="M306.489 120.388s-.937 13.709-3.367 14.112c-2.43.403-48.938-.763-49.439-2.888-.501-2.125 8.597-14.057 8.597-14.057 19.015-9.11 44.209 2.833 44.209 2.833Zm3.345 91.022c-12.978 1.242-31.231 1.939-36.123-1.995-.807-.642-1.689-1.645-2.616-2.887-4.217-5.699-9.393-16.945-13.239-27.798-.828-2.332-1.602-4.631-2.267-6.865-2.659-8.75-4.01-16.324-2.659-19.189 3.64-7.792 24.595 3.051 54.942 2.538" stroke="#003B2F" stroke-width="1.654" stroke-linecap="round" stroke-linejoin="round"/><path d="m307.24 175.188-6.897 5.274-7.356-5.721c-.828.022-1.667.022-2.517.022l-5.95 5.59-6.919-5.884a51.134 51.134 0 0 1-2.245-.12l-6.255 5.263-6.668-6.483c-.578-.087-1.145-.164-1.7-.251l-3.705 3.454c.109.349.25.731.37 1.101l4.032-3.803 7.029 6.821c.37.044.773.088 1.165.109l6.8-5.72 7.693 6.549c.295 0 .567.021.828.021l6.735-6.342 8.292 6.44h.774l6.505-4.99v-1.319l-.011-.011Zm-54.026 1.219-7.824-.338 1.907 7.334 6.81-3.585-.893-3.411Z" fill="#003B2F"/><path d="M253.65 176.495c-.338-1.144 3.193-2.169 3.563-.763l.741 2.866c.316 1.09-3.203 2.19-3.552.817-.033-.033-.752-2.931-.752-2.931v.011Z" fill="#003B2F"/><path d="M315.294 210.669c-1.874.12-4.685.632-5.459.741-1.885-11.529-5.438-38.64 0-71.723 1.852-11.267 1.874-22.349 1.002-32.309l-.109-1.188c-.087-.85-.163-1.667-.25-2.495-1.972-17.708-6.571-31.35-8.195-35.219-2.593-6.233-19.2-7.203-42.922 9.807.708-.523 18.895-22.905 39.806-18.121" stroke="#003B2F" stroke-width="1.654" stroke-linecap="round" stroke-linejoin="round"/><path d="M338.733 108.412c-13.49-.762-27.895-1.024-27.895-1.024l-.109-1.188-.251-2.495s15.495-.61 30.784.36" stroke="#003B2F" stroke-width="1.654" stroke-linecap="round" stroke-linejoin="round"/><path d="m342.231 82.62-11.115-3.366 3.138 24.55 7.399.512 1.842-2.669-.109-1.602-1.21-.523a2.94 2.94 0 0 1-1.678-1.896c-.599-2.169-1.406-6.571.381-10.952l1.352-4.053ZM337.239 0c-8.314 8.532-10.254 22.785-5.557 24.986-2.256-.817 9.295 4.337 9.295 4.337s-8.456-6.668 5.437-21.14c-.74-.283-9.164-8.172-9.164-8.172L337.239 0Zm-34.63 25.335c-19.233 13.283-9.84 44.296 4.108 42.52 23.211-2.953 37.409-28.005 22.709-43.697-11.06-9.426-21.292-2.637-26.817 1.177Z" fill="#003B2F"/><path d="M303.721 63.79a.702.702 0 0 1-.491-.196c-9.229-9.077-8.488-23.166-2.43-31.546 4.294-5.96 12.543-10.45 22.775-5.198 6.135 3.15 8.194 8.521 5.797 15.125-3.389 9.317-14.591 17.838-21.434 16.28-3.149-.709-6.68-3.694-5.688-13.828.752-7.672 5.895-11.845 10.057-13.076 3.182-.949 6.124-.328 7.683 1.601 1.122 1.395 2.462 4.73-1.188 11.3-2.136 3.847-4.381 5.972-6.331 6.005-.992-.022-1.755-.47-2.278-1.352-1.133-1.918-1.013-6.102 1.82-11.136a.687.687 0 0 1 .948-.262.687.687 0 0 1 .262.948c-2.55 4.522-2.735 8.216-1.831 9.731.273.458.643.708 1.046.665.523 0 2.43-.414 5.133-5.285 2.408-4.337 2.876-7.802 1.318-9.742-1.188-1.482-3.563-1.918-6.189-1.144-3.749 1.122-8.38 4.893-9.066 11.877-.709 7.214.882 11.486 4.598 12.325 6.146 1.395 16.683-6.81 19.8-15.398 1.503-4.14 1.841-9.828-5.122-13.403-8.02-4.108-15.866-2.331-20.998 4.773-5.71 7.9-6.418 21.184 2.277 29.727a.693.693 0 0 1 0 .991.69.69 0 0 1-.501.207l.033.011Z" fill="#03FC9D"/><path d="M387.823 143.261c7.879-2.713 26.72-2.474 33.432-4.054 5.993-1.405 16.171-10.973 19.767-3.247 5.067 10.919-32.364 33.9-47.271 29.912" stroke="#003B2F" stroke-width="1.654" stroke-linecap="round" stroke-linejoin="round"/><path d="M431.291 137.572c-.37-.577-.959-2.549-.959-2.549 1.537-3.422 5.351-5.449 8.642-3.248 3.966 2.648 4.293 6.647 1.907 10.919-3.019-.24-7.53-1.94-9.59-5.111v-.011Z" fill="#003B2F"/><path d="M328.424 239.447c2.168 35.371 7.769 68.966 26.654 58.037-3.531-11.279 1.841-21.14 2.637-37.453" stroke="#003B2F" stroke-width="1.654" stroke-linecap="round" stroke-linejoin="round"/><path d="M336.967 289.661c4.01 8.979 9.774 12.912 18.165 8.063-.643-2.059-.97-4.304-1.079-6.701-5.089.719-12.575.316-17.097-1.362h.011Z" fill="#003B2F"/><path d="M367.892 258.19c24.115 22.382 45.265 35.251 57.481 19.57-11.05-5.72-26.937-17.609-31.329-29.247" stroke="#003B2F" stroke-width="1.654" stroke-linecap="round" stroke-linejoin="round"/><path d="M425.373 277.761c-1.809-.796-4.827-2.343-7.181-4.098-3.857 4-9.131 7.454-14.46 9.415 7.573 3.106 17.01 1.057 21.63-5.317h.011Z" fill="#003B2F"/><path d="M317.245 223.069c.098 1.537-.12 6.68-6.767 9.775-6.647 3.094-12.967 3.726-13.763 4.108-.795.381 3.291 2.669 11.594 1.623 10.44-1.318 11.595-4.293 11.769-5.099m66.044-150.671c2.539-.752 6.19-2.42 7.519-4.457 2.931-4.5-.599-16.814.687-16.64 1.111.153 10.45 18.264 9.774 25.793" stroke="#003B2F" stroke-width="1.654" stroke-linecap="round" stroke-linejoin="round"/><path d="M357.715 260.032c2.735-.229 6.2-.872 9.24-1.613 12.227-2.975 35.263-9.557 42.956-25.281 7.322-14.961 1.079-35.098-9.731-54.44a166.586 166.586 0 0 0-2.583-4.457c-8.968-16.825-11.223-36.33-11.648-48.557 1.645-1.1 3.792-2.397 7.159-3.606 7.235-2.583 12.226-.774 12.226-.774s3.988-26.61 2.746-33.66c-18.601 0-23.842-7.748-34.521-9.22-2.844-.392-6.811 1.679-10.363 3.836" stroke="#003B2F" stroke-width="1.654" stroke-linecap="round" stroke-linejoin="round"/><path d="M358.75 261.808s-.436 12.51-2.005 14.536c-1.569 2.016-26.022-1.939-26.022-1.939l-14.227-50.122c-.257-.898-1.983.332-2.326-1.994.332-2.658 3.394-1.872 5.981-.664 23.591 9.635 92.371-7.643 92.371-7.643 1.853-.741 3.322-.664 3.322.997 0 1.662-1.374 2.034-1.329 2.991.333 6.978-.856 23.537-18.531 31.732 0 0 6.146 10.657 7.759 10.33 0 0-23.254 10.232-25.194 9.48-1.939-.752-11.191-9.48-11.191-9.48l-8.597 1.776h-.011Z" fill="#03FC9D" stroke="#003B2F" stroke-width="1.654" stroke-linecap="round" stroke-linejoin="round"/><path d="M316.496 220.627c-1.122-8.118-2.042-20.67-1.399-32.482 1.122-20.704 11.682-63.169 28.397-86.499-.272-1.308-.109-1.602-.109-1.602" stroke="#003B2F" stroke-width="1.654" stroke-linecap="round" stroke-linejoin="round"/><path d="M406.99 88.406s-8.608 6.374-8.957 8.347c-.349 1.983 3.879 24.714 8.521 26.523 4.653 1.808 21.87-7.487 22.306-11.191.436-3.705-9.382-24.802-12.662-26.523-3.269-1.722-9.208 2.844-9.208 2.844Z" fill="#DCDEDF"/><path d="M413.92 95.031c-.643-1.416-2.212-1.394-3.465-.893-2.114.839-4.664 3.105-4.304 5.612a.685.685 0 0 0 .174.381c-.033.578.207 1.101.839 1.515.992.632 2.506.174 3.476-.283a6.248 6.248 0 0 0 2.779-2.583c.599-1.079 1.035-2.56.512-3.749h-.011Z" fill="#003B2F"/><path d="M406.873 107.617c1.994 4.358 7.31 4.69 12.294 3.694 0 0 5.16-1.296 8.679-3.694" stroke="#003B2F" stroke-width="1.654" stroke-linecap="round" stroke-linejoin="round"/><path d="M383.802 91.48c-.981 0-1.679.719-1.864 1.645-.12.588-.196 1.297-.098 1.95-.12.992.055 1.984.828 2.605.741.6 1.842.468 2.517-.164.643-.599.807-1.514.905-2.353.174-1.504-.425-3.65-2.288-3.662v-.022Z" fill="#003B2F"/><path d="M357.312 102.953c-.207.392-3.793 18.339 0 22.044 3.792 3.182 11.365-22.098 11.365-24.354" stroke="#003B2F" stroke-width="1.654" stroke-linecap="round" stroke-linejoin="round"/><path d="M296.103 239.96s4.021-4.915 2.3-9.132c-1.722-4.217-18.895-11.082-22.927-8.586 4.195 4.99 6.636 6.559 6.636 6.559s-5.176-1.285-5.383-.512c2.648 4.141 7.955 6.691 7.955 6.691s-5.503-.567-4.893.534c5.601 6.048 12.804 9.698 16.312 4.446Zm82.098 16.029s-8.445 3.541-11.257 4.13Z" fill="#03FC9D"/><path d="M378.201 255.989s-8.445 3.541-11.257 4.13m-31.077 42.247c.043-.066 4.108-6.015 11.387-3.76 4.283 1.33 6.582-.228 8.609-1.602 2.299-1.569 4.293-2.92 9.785-.446 5.971 2.691 9.524 1.972 12.379 1.405 2.833-.566 4.871-.98 8.772 1.886m-77.031-.35c.36 0 .709-.142.959-.425.131-.142 3.182-3.443 8.707-.567a1.29 1.29 0 0 0 1.34-.098c1.362-.98 5.765-3.432 7.955-1.972" stroke="#003B2F" stroke-width="1.654" stroke-linecap="round" stroke-linejoin="round"/><path d="M352.964 204.131c.676-.142 2.724.022 2.724.022 2.648 2.659 3.182 6.941-.043 9.23-3.89 2.756-7.748 1.645-10.875-2.114 1.307-2.725 4.5-6.353 8.205-7.138h-.011Z" fill="#003B2F"/><path d="M321.81 168.967c-.359 15.43 29.356 57.71 33.693 41.342 1.417-5.328-7.671-23.602-7.682-29.759-.033-11.703 1.547-17.315-2.735-26.011" stroke="#003B2F" stroke-width="1.654" stroke-linecap="round" stroke-linejoin="round"/><path d="M366.335 56.819c0-17.61-8.639-20.933-8.639-20.933s-10.419-7.037-20.771-9.304c5.067 2.202 17.239 25.216 6.179 42.019-2.594 3.933-6.462 7.53-11.976 10.417-.349.643 6.298 2.746 10.94 3.847 4.663-5.113 17.229.945 19.616-1.126 0 0 4.651-7.31 4.651-24.92Z" fill="#003B2F"/><path d="M359.416 57.628c-1.068 3.77-3.509 10.984-4.468 16.007a25.3 25.3 0 0 0 .741-1.318c2.605-4.914 3.629-9.938 3.727-14.678v-.01Z" fill="#003B2F"/><path d="M368.59 82.893c-.338-.033-11.965-.774-13.774-4.043-1.809-3.269 5.514-22.219 5.078-23.417-.436-1.21-25.575 29.443-18.938 43.565 4.391 3.182 19.712 1.036 22.131-.436 2.408-1.46 8.968-15.331 5.514-15.67h-.011Z" fill="#fff" stroke="#003B2F" stroke-width="1.654" stroke-linecap="round" stroke-linejoin="round"/><path d="m258.455 149.864.055-2.364" stroke="#003B2F" stroke-width="1.654" stroke-linecap="round" stroke-linejoin="round"/><path d="M321.2 107.912s25.847 49.058 26.25 55.138c.403 6.081.469 7.704.469 7.704s7.889-6.745 3.835-19.309c-4.053-12.564-19.254-43.043-19.254-43.043l-11.3-.501v.011Zm-5.906 102.191 12.521-21.837-3.193-6.756-13.992 29.41 4.664-.817Z" fill="#003B2F"/><path d="M440.674 135.633c2.772-4.8 2.323-10.248-1.002-12.168-3.326-1.919-8.268.416-11.039 5.216-2.772 4.8-2.323 10.247 1.003 12.167 3.325 1.92 8.267-.415 11.038-5.215Z" fill="#03FC9D"/><path d="M438.335 134.631c2.51-4.346 2.41-9.102-.222-10.622-2.632-1.519-6.8.773-9.309 5.119-2.51 4.347-2.411 9.103.221 10.622 2.632 1.52 6.8-.772 9.31-5.119Z" fill="#E6E8EA"/><path d="m436.411 126.12-.959 5.873-6.059 4.184 1.482-6.516 5.536-3.541Z" fill="#03FC9D"/><path d="m436.411 126.12-.959 5.873-4.576-2.332 5.535-3.541Zm-46.816 16.092-1.329.664c0 3.19 3.323 16.614 6.313 23.259h1.994s-4.984-14.287-6.978-23.923Z" fill="#003B2F"/><path d="m46.937 135.304-2.451 3.853c2.335 24.169 7.005 73.418 7.005 77.061 0 4.553 5.955 5.954 9.107 5.954 3.153 0 10.158-4.553 12.96-6.655 2.803-2.101 9.108-9.107 10.509-13.661 1.4-4.553-1.401-62.699-3.153-66.552-1.751-3.853-4.553-3.503-7.356-4.904-2.241-1.121-20.666 2.685-26.62 4.904Zm77.561-3.155s15.254-9.82 28.924-16.18c5.536-2.576 14.666-6.027 18.565-6.585 3.387-.485 17.163 7.005-34.678 42.384" fill="#fff"/><path d="M124.498 132.149s15.254-9.82 28.924-16.18c5.536-2.576 14.666-6.027 18.565-6.585 3.387-.485 17.163 7.005-34.678 42.384" stroke="#003B2F" stroke-width="1.654" stroke-linecap="round" stroke-linejoin="round"/><path d="m160.896 152.582.032.534s12.278-4.424 23.328-8.314l.021-.021c8.913-3.142 17.045-5.974 17.27-5.867.534 0 2.287-23.307 2.287-23.307s.342-.427.962-1.208c3.43-4.221 15.132-18.658 23.67-27.977 2.426-2.65 4.585-4.873 6.22-6.358-2.063-2.223-17.654-5.685-32.658-8.603 0 0-.043 0-.107-.021-14.758-2.832-28.907-5.14-28.907-5.14l-15.111 42.468.342 4.99.994 14.512.086.834 15.719-8.934s1.561-2.522 5.825-1.485c4.263 1.036 4.595 3.708 4.595 3.708s1.763 2.693-8.678 14.234c-10.44 11.542-16.104 15.367-16.104 15.367l.224.588h-.01Z" fill="#E6E8EA"/><path d="m203.835 115.607-1.059-.16m-1.101-.16-42.169-6.273m-.554-.086-1.059-.16" stroke="#003B2F" stroke-width="1.654" stroke-miterlimit="10"/><path d="m183.06 112.509-1.015 2.222.331 4.307c-2.255-.759-4.264-.716-6.07 0s-3.302 2.33-5.674 3.762c-4.478 2.725-7.278-.492-5.504-7.598.385-1.507 1.753-3.324 3.163-4.873 1.817-1.999 3.708-3.591 3.708-3.591-6.625-3.388-10.291-12.738 3.613-16.126 13.881-3.409 2.511-10.195 13.881-14.266 3.89-1.39 7.182-.962 10.174.245l-16.596 35.928-.011-.01Z" fill="#003B2F"/><path d="M43.195 136.436c1.047-.481 1.966-.855 2.682-1.069.225-.053.438-.075.673 0 8.56-2.939 20.412-5.471 23.308-4.403.267-1.389.416-2.789.47-4.168-1.069-2.885-1.058-4.071-1.464-6.187-.364-1.934-.61-3.697-.663-5.888-2.596-6.273-7.299-10.847-12.631-11.499-9.607-1.165-14.534 6.102-15.955 6.22C4.98 103.094 3.409 128.271 5.75 128.944l.513-.203S4.328 114.24 20.882 112.37c16.318-1.849 23.692 16.767 22.313 24.055v.011Z" fill="#03FC9D"/><path d="m15.998 96.211-1.656 2.981s16.457-9.916 25.263 10.238c14.982 0 15.72 20.198 15.239 23.916l7.555-1.357s-4.307-25.188-19.3-23.2C36.228 95.035 29.346 91.402 15.977 96.2l.021.011Z" fill="#003B2F"/><path d="M30.447 147.56c1.047-2.159 2.672-4.189 4.627-5.963 0 0 .022-.022.032-.054a21.675 21.675 0 0 1 2.907-2.201c.022-.021.032-.032.054-.032.203-.15.406-.257.598-.385a38.028 38.028 0 0 1 2.159-1.282c.053-.022.107-.054.15-.075a33.034 33.034 0 0 1 2.735-1.379c-.246-4.883-2.062-20.304-15.228-23.574-7.77-1.923-25.07 7.887-14.961 26.139 5.567 10.056 12.642 10.067 16.895 8.838 0-.011 0-.021.01-.043l.022.011Zm198.009-61.137c-8.538 9.319-20.24 23.756-23.67 27.977-3.366-2.041-8.71-3.323-15.837.962-2.202 1.304-4.425 2.565-6.583 3.665l-.332-4.306 17.612-38.151c5.792 2.362 10.462 7.684 16.168 8.581 8.667 1.368 12.642 1.261 12.642 1.261v.01Z" fill="#003B2F"/><path d="m183.253 79.145-.898-.3a4.67 4.67 0 0 0-1.988-5.226c-.074-.053-.16-.074-.235-.117l.727-1.57a.513.513 0 0 0-.246-.674.516.516 0 0 0-.673.246l-.737 1.603c-1.967-.599-4.179.128-5.344 1.945a4.34 4.34 0 0 0-.395.77l-1.272-.44a.506.506 0 0 0-.641.322.514.514 0 0 0 .321.651l1.325.45a4.826 4.826 0 0 0 .043 1.794 4.669 4.669 0 0 0 2.062 2.96l-.866 1.882a.514.514 0 0 0 .246.673.48.48 0 0 0 .214.042.497.497 0 0 0 .459-.299l.877-1.891c.523.192 1.058.32 1.603.32a4.71 4.71 0 0 0 3.975-2.169c.075-.107.118-.224.171-.342l.951.32a.43.43 0 0 0 .16.033.502.502 0 0 0 .481-.342.512.512 0 0 0-.32-.652v.01Zm-3.431-4.67a3.634 3.634 0 0 1 1.614 2.319 3.742 3.742 0 0 1-.043 1.72l-3.088-1.047 1.4-3.035s.075.032.117.053v-.01Zm-5.108 1.122a3.7 3.7 0 0 1 3.121-1.7c.31 0 .62.054.929.129l-1.432 3.11-2.896-.984c.086-.192.171-.374.278-.555Zm-.502 2.778a3.48 3.48 0 0 1-.043-1.24l2.725.93-1.175 2.544a3.66 3.66 0 0 1-1.507-2.234Zm6.722 1.197c-.93 1.464-2.725 2.03-4.307 1.496l1.24-2.682 3.131 1.069s-.043.085-.064.117Z" fill="#03FC9D"/><path d="M129.958 140.293c-4.52-7.737-6.957-8.624-8.1-10.826l4.039 1.251s3.986 1.282 8.87 8.795l-4.798.78h-.011Z" fill="#003B2F"/><path d="M28.608 141.009a6.284 6.284 0 0 1-2.18-.396c-3.698-1.357-5.931-5.728-6.444-9.222-.45-3.099.33-5.664 2.148-7.021 3.868-2.907 7.149-1.411 8.784.759 2.073 2.735 2.137 7.33-1.347 9.981a.754.754 0 0 1-1.068-.15.765.765 0 0 1 .139-1.069c2.778-2.115 2.714-5.653 1.058-7.843-1.272-1.678-3.687-2.683-6.647-.46-1.358 1.015-1.924 3.056-1.55 5.578.46 3.153 2.48 6.915 5.46 8.005 1.914.705 3.901.171 5.91-1.582 4.328-3.794 3.612-11.242.257-15.549-3.388-4.36-8.539-4.809-13.775-1.197-2.426 1.667-3.858 4.275-4.029 7.321-.213 3.857 1.646 7.886 4.98 10.771a.764.764 0 1 1-1.005 1.155c-3.686-3.196-5.749-7.684-5.503-12.012.193-3.527 1.86-6.551 4.692-8.496 7.042-4.851 12.802-2.393 15.848 1.518 3.847 4.948 4.584 13.208-.45 17.632-1.966 1.721-3.761 2.255-5.257 2.255l-.021.022Z" fill="#03FC9D"/><path d="M54.159 221.392c-1.517 2.052-3.815 3.89-7.299 4.627-2.736.588-6.155.513-10.505-.652-20.026-5.343-24.707.203-32.316 7.256L0 228.317s8.955-11.499 30.745-6.914c7.812 1.656 12.888.897 16.211-.759a12.004 12.004 0 0 0 1.902-1.165m11.926 2.791c-.331 4.477-1.464 11.968-4.99 17.59-2.287 3.644-5.568 6.892-10.291 8.869-17.088 7.117-19.856 5.664-19.856 5.664l-5.343-5.664s0-.94 16.062-2.019c8.517-.556 13.828-6.423 16.906-13.455 1.602-3.655 2.596-7.63 3.141-11.349" fill="#003B2F"/><path d="M70.467 131.412c-1.026-2.031-14.459.716-23.906 3.954m6.22 85.364a71.182 71.182 0 0 0 6.797 1.742c.256.032.384.032.384.032s18.413-4.702 20.347-18.787" stroke="#003B2F" stroke-width="1.654" stroke-linecap="round" stroke-linejoin="round"/><path d="M59.792 222.482h-.022v.022s-.021 0-.053-.022c-.032 0-.075 0-.15-.021-1.432-.288-10.12-2.084-15.324-5.471-2.03-1.315-3.548-2.875-3.9-4.67-1.08-5.707 4.114-7.107 3.13-37.51 0 0-16.018-21.02-13.037-27.261 1.047-2.159 2.672-4.189 4.627-5.963 0 0 .022-.021.032-.053a21.582 21.582 0 0 1 2.907-2.202c.021-.021.032-.032.053-.032.203-.15.407-.256.61-.385a37.992 37.992 0 0 1 2.158-1.282c.054-.021.107-.053.15-.075 1.998-1.122 3.697-1.827 4.884-2.201.224-.054.438-.075.673 0 3.986.876 12.022 17.13 18.36 37.231 6.7 21.309-4.724 48.912-5.13 49.885l.032.01Z" fill="#fff" stroke="#003B2F" stroke-width="1.654" stroke-linecap="round" stroke-linejoin="round"/><path d="M38.846 139.406a25.757 25.757 0 0 0-2.202 1.507c-1.068.823-1.4 1.218-1.4 1.218.043 9.522 12.717 22.933 15.026 28.768 4.98 12.621-3.12 35.212-4.692 39.23.31 0 2.32 1.4 2.32 1.4s14.19-29.398 2.906-46.743c-11.627-17.878-11.125-19.417-11.958-25.294v-.086Z" fill="#03FC9D"/><path d="M96.736 99.385s-.567-5.333 5.909-3.633c6.476 1.699 14.972 4.2 14.288 13.7-.684 9.5-10.601 10.398-15.944 7.042-5.343-3.355-4.253-17.109-4.253-17.109Z" fill="#DCDEDF"/><path d="M142.815 163.043c11.862 26.952 22.185 61.458 22.741 64.44.855 4.531 36.569 5.952 36.569 5.952s.855-5.674 5.674-1.571c4.82 4.093-4.819 25.103-4.819 25.103-40.545 9.073-59.257 3.964-59.257 3.964-5.108 3.965-19.845 7.374-19.845 7.374-7.085 15.88-30.178 33.972-30.178 33.972 3.965 2.832.128 5.162.128 5.162-31.75-9.073-22.399-19.428-22.399-19.428 3.399-5.824 8.507-31.504 8.507-31.504 3.815-12.129.566-53.827-1.85-79.176l-6.283-43.686c-8.698-33.171-1.507-35.725-1.507-35.725-5.353.353-6.337-2.48-6.09-5.194.298-3.259 2.478-6.102 5.599-7.095 5.888-1.892 7.577 5.108 7.577 5.108 10.301-8.036 19.748-7.117 19.748-7.117-1.036-2.928 2.437-11.617 10.206-6.113 6.807 4.82-1.603 10.206-1.603 10.206 21.832 11.06 11.338 29.772 11.338 29.772 0 4.82 7.085 15.025 7.085 15.025 1.913 1.646 4.692 4.873 6.669 7.684" fill="#fff"/><path d="M142.815 163.043c11.862 26.952 22.185 61.458 22.741 64.44.855 4.531 36.569 5.952 36.569 5.952s.855-5.674 5.674-1.571c4.82 4.093-4.819 25.103-4.819 25.103-40.545 9.073-59.257 3.964-59.257 3.964-5.108 3.965-19.845 7.374-19.845 7.374-7.085 15.88-30.178 33.972-30.178 33.972 3.965 2.832.128 5.162.128 5.162-31.75-9.073-22.399-19.428-22.399-19.428 3.399-5.824 8.507-31.504 8.507-31.504 3.815-12.129.566-53.827-1.85-79.176l-6.283-43.686c-8.698-33.171-1.507-35.725-1.507-35.725-5.353.353-6.337-2.48-6.09-5.194.298-3.259 2.478-6.102 5.599-7.095 5.888-1.892 7.577 5.108 7.577 5.108 10.301-8.036 19.748-7.117 19.748-7.117-1.036-2.928 2.437-11.617 10.206-6.113 6.807 4.82-1.603 10.206-1.603 10.206 21.832 11.06 11.338 29.772 11.338 29.772 0 4.82 7.085 15.025 7.085 15.025 1.913 1.646 4.692 4.873 6.669 7.684" stroke="#003B2F" stroke-width="1.654" stroke-linecap="round" stroke-linejoin="round"/><path d="M79.764 225.827s72.85-19.139 76.815-26.631c0 0 4.178-.619 2.009 2.683 0 0 8.132 22.025 7.747 25.049 0 0-1.036 1.507 12.568 3.964 0 0 3.815 29.987-1.101 31.75 0 0-23.745 2.896-34.111 0 0 0-16.415 7.684-19.193 6.679 0 0-8.015 14.309-11.339 16.126 0 0-32.893-5.044-38.813-12.973 0 0 4.136-13.733 5.675-25.199 0 0 .758-16.511.256-18.648 0 0-2.896-.417-.502-2.789l-.01-.011Z" fill="#03FC9D"/><path d="M88.655 99.493c1.005 1.539 2.447 2.191 3.43 1.549.984-.641.962-2.222-.042-3.761-1.005-1.54-2.448-2.19-3.43-1.55-.984.641-.962 2.223.042 3.762Zm17.199-4.749c.896-.664.775-2.344-.269-3.752s-2.617-2.01-3.513-1.346c-.896.665-.776 2.345.269 3.753 1.044 1.408 2.617 2.01 3.513 1.345Z" fill="#003B2F"/><path d="m105.872 105.272 2.351 4.371s2.105 1.026 2.874-1.549" stroke="#003B2F" stroke-width="1.654" stroke-miterlimit="10" stroke-linecap="round"/><path d="m105.978 105.209 2.351 4.37s-.31 2.319-2.874 1.55" stroke="#003B2F" stroke-width="1.654" stroke-miterlimit="10" stroke-linecap="round"/><path d="M103.104 101.169c-3.014 1.625-4.2 3.719-3.185 5.6 1.282 2.394 5.867 1.282 6.764 1.037.054-.011.097-.032.15-.054.075-.032.15-.075.225-.107 1.399-.748 3.195-2.864 3.558-4.68.214-1.09-.139-1.796-.47-2.191-1.849-2.234-6.198-.054-7.042.406v-.011Z" fill="#003B2F"/><path d="M88.62 222.874s63.994-16.186 67.959-23.678c0 0 4.178-.619 2.009 2.683 0 0 8.132 22.025 7.747 25.049 0 0-1.036 1.507 12.568 3.964 0 0 3.815 29.987-1.101 31.75 0 0-23.745 2.896-34.111 0 0 0-16.415 7.684-19.193 6.679 0 0-8.015 14.309-11.339 16.126 0 0-32.893-5.044-38.813-12.974 0 0 4.136-13.732 5.675-25.198 0 0 .758-16.511.256-18.648 0 0-3.916-1.699-.502-2.789l8.845-2.964Z" stroke="#003B2F" stroke-width="1.654" stroke-miterlimit="10" stroke-linecap="round"/><path d="M120.213 262.834s3.462 2.202 4.285 6.487Z" fill="#03FC9D"/><path d="M120.213 262.834s3.462 2.202 4.285 6.487" stroke="#003B2F" stroke-width="1.654" stroke-miterlimit="10" stroke-linecap="round"/><path d="M156.321 246.388s-2.832 9.072-12.62 16.254Z" fill="#03FC9D"/><path d="M156.321 246.388s-2.832 9.072-12.62 16.254" stroke="#003B2F" stroke-width="1.654" stroke-miterlimit="10" stroke-linecap="round"/><path d="M106.661 304.8a1.26 1.26 0 0 0 .973-.353c.139-.128 3.366-3.142 8.56.086.406.245.908.256 1.314 0 1.411-.855 5.888-2.939 7.919-1.347m-45.663-.93c-3.836-1.164-6.39-2.661-11.915-2.062-2.437.267-5.996 3.195-11.702 1.368" stroke="#003B2F" stroke-width="1.654" stroke-linecap="round" stroke-linejoin="round"/><path d="M111.77 302.994c-2.052-.545-5.375-3.184-8.731-1.988-1.528.545-4.36 3.249-9.34 1.272" stroke="#003B2F" stroke-width="1.654" stroke-linecap="round" stroke-linejoin="round"/><path d="m107.785 140.988-2.33-1.785c-11.723-8.816-43.195-7.438-43.195-7.438l-3.248-.096-4.157 1.688s31.31.577 43.686 7.545l9.233.086h.011ZM65.38 220.377s43.185-12.525 51.584-49.639l-6.636.588s-7.053 26.962-35.981 43.515l-8.966 5.536Z" fill="#003B2F"/><path d="M234.675 80.063c-.855 0-.342 1.528-10.355 1.368-10.035-.182-29.238 1.689-29.238 1.689s-22.239 26.139-20.71 34.314a153.304 153.304 0 0 0-.065 3.056c.407-.288.674-.502.727-.609 0 0 2.96-3.227 8.752 0 5.792 3.227-5.215 14.48-5.215 14.48-.769 1.111-1.966 2.629-3.526 4.392 1.507 15.464 4.745 23.884 4.745 23.884l28.543-13.09-1.688-33.641s28.543-33.129 28.03-35.843Z" fill="#03FC9D"/><path d="M106.576 171.412c39.102.085 66.374-28.961 71.995-37.05 0 0 11.007-11.253 5.215-14.48-5.792-3.228-8.752 0-8.752 0-1.603 1.464-28.832 16.574-28.832 16.574-5.055 1.71-10.259 2.992-15.549 3.73l-7.897 1.101c-25.156-.139-31.803-2.49-36.58 5.407-.556.919-.855 1.977-.94 3.142" fill="#fff"/><path d="M106.576 171.412c39.102.085 66.374-28.961 71.995-37.05 0 0 11.007-11.253 5.215-14.48-5.792-3.228-8.752 0-8.752 0-1.603 1.464-28.832 16.574-28.832 16.574-5.055 1.71-10.259 2.992-15.549 3.73l-7.897 1.101c-25.156-.139-31.803-2.49-36.58 5.407-.556.919-.855 1.977-.94 3.142" stroke="#003B2F" stroke-width="1.654" stroke-linecap="round" stroke-linejoin="round"/><path d="m206.646 115.907-1.069-.075m-3.1-.234-24.333-1.827m-1.548-.12-1.07-.075" stroke="#003B2F" stroke-width="1.654" stroke-miterlimit="10"/></svg>