<svg width="47" height="82" viewBox="0 0 47 82" fill="none" xmlns="http://www.w3.org/2000/svg"><path d="M42.077 81.856a4.143 4.143 0 0 1-4.131-4.13V4.13A4.143 4.143 0 0 1 42.076 0a4.143 4.143 0 0 1 4.132 4.131v73.594a4.143 4.143 0 0 1-4.131 4.131Z" fill="#03FC9D"/><path d="M0 26.823 21.533 14.39 43.065 1.959v49.727L21.533 39.254 0 26.823Z" fill="#03FC9D"/><path d="M35.05 30.456c0-1.736-1.017-3.136-2.638-3.698 1.238-.566 2.1-1.74 2.1-3.25 0-2.37-1.985-4.014-4.805-4.014h-8.048v2.008a2.289 2.289 0 0 1 2.29 2.29 2.289 2.289 0 0 1-2.29 2.29v1.807a2.289 2.289 0 0 1 2.29 2.29 2.289 2.289 0 0 1-2.29 2.29v2.186h8.404c2.887 0 4.987-1.712 4.987-4.196m-9.068-8.779h3.314c1.356 0 2.325.882 2.325 2.12s-.969 2.1-2.325 2.1h-3.314v-4.22Zm0 10.785v-4.58h3.61c1.487 0 2.504.925 2.504 2.278 0 1.352-1.017 2.302-2.504 2.302h-3.61Z" fill="#003B2F"/></svg>