<svg viewBox="0 0 932 902" fill="none" xmlns="http://www.w3.org/2000/svg"><path fill-rule="evenodd" clip-rule="evenodd" d="M434.888 0h85.194c28.917 0 52.359 23.442 52.359 52.359v11.738a52.233 52.233 0 0 1 18.724-3.448h94.242c28.307 0 51.368 22.464 52.327 50.538h86.872c18.808 0 34.054 15.246 34.054 34.054v149.333h20.239c28.917 0 52.359 23.442 52.359 52.359v46.881a52.67 52.67 0 0 1 .721 8.712v94.242c0 28.917-23.441 52.358-52.358 52.358H858.66v224.005c0 18.808-15.247 34.055-34.054 34.055h-47.512C766.931 860.976 713.483 902 649.075 902H415.51c-64.408 0-117.856-41.024-128.02-94.814h-99.438c-18.808 0-34.055-15.247-34.055-34.055V659.589h-43.665c-28.917 0-52.36-23.442-52.36-52.359v-41.5h-4.678c-28.917 0-52.36-23.441-52.36-52.358V419.13c0-19.303 10.446-36.166 25.993-45.245V269.798c0-37.357 30.284-67.641 67.64-67.641h59.43v-56.916c0-18.808 15.247-34.054 34.055-34.054h100.236V52.359C288.288 23.442 311.73 0 340.647 0h94.241Z" fill="#00261E"/><path d="M392.795 108.808 380.406 69.93a2.092 2.092 0 0 0-1.676-1.439 2.095 2.095 0 0 0-2.04.856l-41.173 57.606m184.696 16.505-33.321-62.397a2.081 2.081 0 0 0-1.858-1.11h-12.042l-23.137-36.874a2.103 2.103 0 0 0-1.949-.984 2.126 2.126 0 0 0-1.767 1.293l-18.401 44.708a2.062 2.062 0 0 0 .365 2.168l12.242 14.082-7.833 16.943m5.555-75.824-14.483-12.37a2.101 2.101 0 0 0-1.585-.492 2.051 2.051 0 0 0-1.439.82l-31.426 41.592m-65.675 66.405h87.866m89.34 15.175h35.343m-84.75 0h16.36M356.487 31.581l9.565 7.47a2.13 2.13 0 0 0 1.293.437 2.16 2.16 0 0 0 1.33-.474l9.127-7.47m4.21 14.066 5.703 4.444a2.13 2.13 0 0 0 1.293.438c.456 0 .948-.164 1.33-.474l5.447-4.445m-1.149-28.931 5.703 4.446a2.13 2.13 0 0 0 1.293.437c.456 0 .948-.164 1.33-.474l5.447-4.445" stroke="#fff" stroke-width="1.3" stroke-linecap="round" stroke-linejoin="round"/><path d="M348.034 194.232h10.73c.766 0 1.458-.419 1.84-1.075a2.167 2.167 0 0 0-.036-2.132l-9.2-14.957h2.988c.783 0 1.493-.419 1.858-1.111a2.075 2.075 0 0 0-.109-2.15l-12.443-18.582a2.082 2.082 0 0 0-1.749-.929c-.711 0-1.348.346-1.749.929l-12.443 18.582a2.075 2.075 0 0 0-.109 2.15 2.082 2.082 0 0 0 1.858 1.111h2.988l-9.201 14.957a2.082 2.082 0 0 0-.036 2.132 2.113 2.113 0 0 0 1.84 1.075h10.075" fill="#03FC9D"/><path d="M348.034 194.232h10.73c.766 0 1.458-.419 1.84-1.075a2.167 2.167 0 0 0-.036-2.132l-9.2-14.957h2.988c.783 0 1.493-.419 1.858-1.111a2.075 2.075 0 0 0-.109-2.15l-12.443-18.582a2.082 2.082 0 0 0-1.749-.929c-.711 0-1.348.346-1.749.929l-12.443 18.582a2.075 2.075 0 0 0-.109 2.15 2.082 2.082 0 0 0 1.858 1.111h2.988l-9.201 14.957a2.082 2.082 0 0 0-.036 2.132 2.113 2.113 0 0 0 1.84 1.075h10.075" stroke="#fff" stroke-width="1.3" stroke-linecap="round" stroke-linejoin="round"/><path d="M414.948 199.078h10.203c.765 0 1.457-.419 1.84-1.075a2.167 2.167 0 0 0-.037-2.131l-9.2-14.957h2.988c.783 0 1.494-.419 1.858-1.112a2.073 2.073 0 0 0-.109-2.149l-12.443-18.583a2.082 2.082 0 0 0-1.749-.929c-.711 0-1.348.346-1.749.929l-12.443 18.583a2.073 2.073 0 0 0-.109 2.149 2.08 2.08 0 0 0 1.858 1.112h2.988l-9.2 14.957a2.08 2.08 0 0 0-.037 2.131 2.113 2.113 0 0 0 1.84 1.075h11.277" fill="#03FC9D"/><path d="M414.948 199.078h10.203c.765 0 1.457-.419 1.839-1.075a2.165 2.165 0 0 0-.036-2.131l-9.2-14.957h2.988c.783 0 1.494-.419 1.858-1.112a2.073 2.073 0 0 0-.109-2.149l-12.443-18.583a2.082 2.082 0 0 0-1.749-.929c-.711 0-1.348.346-1.749.929l-12.443 18.583a2.073 2.073 0 0 0-.109 2.149 2.08 2.08 0 0 0 1.858 1.112h2.988l-9.2 14.957a2.08 2.08 0 0 0-.037 2.131 2.113 2.113 0 0 0 1.84 1.075h11.277m85.882-11.55h8.817c.765 0 1.458-.42 1.84-1.075a2.17 2.17 0 0 0-.036-2.132l-7.706-12.516h2.076c.784 0 1.494-.419 1.859-1.111a2.073 2.073 0 0 0-.11-2.15l-10.767-16.068a2.079 2.079 0 0 0-1.748-.929c-.711 0-1.349.346-1.749.929l-10.767 16.068a2.075 2.075 0 0 0-.11 2.15 2.084 2.084 0 0 0 1.859 1.111h2.077l-7.707 12.516a2.08 2.08 0 0 0-.036 2.132 2.115 2.115 0 0 0 1.84 1.075h9.765m-111.278-1.257h16.469c.766 0 1.458-.419 1.84-1.075a2.167 2.167 0 0 0-.036-2.132l-9.2-14.957h2.988c.783 0 1.494-.419 1.858-1.111a2.075 2.075 0 0 0-.109-2.15l-12.443-18.582a2.082 2.082 0 0 0-1.749-.929c-.711 0-1.348.346-1.749.929l-9.346 13.937m75.149 20.149h13.809c.765 0 1.458-.419 1.84-1.075a2.17 2.17 0 0 0-.036-2.132l-7.415-12.024h1.913c.783 0 1.494-.419 1.858-1.111a2.073 2.073 0 0 0-.109-2.15l-10.439-15.594a2.08 2.08 0 0 0-1.749-.929c-.71 0-1.348.346-1.749.929l-7.834 11.696" stroke="#fff" stroke-width="1.3" stroke-linecap="round" stroke-linejoin="round"/><path d="M583.108 553.129c17.906-4.909 32.49 2.046 37.544 6.137.361-2.046 2.888-7.509 10.108-12.996 7.22-5.487 16.967-4.693 20.938-3.61 3.008 1.083 7.869 3.466 3.249 4.332-4.621.867-9.868 4.693-11.913 6.498-1.204 1.203-3.249 3.755-1.805 4.332 15.161-1.444 17.327 2.527 20.215 3.61 2.888 1.083 4.332 3.971 1.805 5.415-10.396-1.155-15.161 1.685-16.244 3.249 0 0 6.859 7.581 9.385 12.996 2.022 4.332-.361 4.933-1.804 4.693-2.648-1.805-9.964-5.632-18.05-6.498-10.108-1.083-7.581 1.805-12.635 3.61-4.043 1.444-9.386 10.95-11.552 15.523-.963 3.128-3.321 8.014-5.054 2.527-2.166-6.859 0-19.133 1.444-21.66 1.444-2.527 1.444-1.805-1.444-1.805-7.22 1.444-15.763 8.784-19.133 12.274-1.203 1.805-3.898 5.415-5.054 5.415-3.249-.361-.722-5.415 1.444-10.108 3.177-12.707 12.635-19.735 16.967-21.66l-2.527-1.805c-3.61-2.046-11.841-6.137-15.884-6.137-5.054 0-5.415-2.166 0-4.332Z" fill="#03FC9D"/><path d="m636.12 584.812-3.607 1.421c-.437.164-.765.51-.947.947-.164.437-.164.911.036 1.33 1.203 2.605 2.751 6.467 3.571 8.544m8.617 1.203-5.647 2.095a1.672 1.672 0 0 0-1.002 2.113 162.271 162.271 0 0 1 2.86 9.51m10.238 1.057-7.724 2.35a1.68 1.68 0 0 0-1.148 2.004c.984 4.172 1.803 8.963 2.459 12.825l.164.948m11.861.728-9.71 2.915a1.679 1.679 0 0 0-1.185 1.84 210.172 210.172 0 0 1 1.385 13.318m20.642-2.332c-4.263-33.339-16.797-53.908-23.519-64.966l-.31-.51m-4.593-4.044c6.723.674 11.496 1.84 21.953 7.069.237.127.492.182.747.182a1.679 1.679 0 0 0 1.658-1.968c-.055-.364-1.53-8.562-10.457-16.414 3.498-3.079 10.73-3.571 16.287-2.97a1.692 1.692 0 0 0 1.694-.947 1.669 1.669 0 0 0-.328-1.913c-.128-.127-12.917-12.753-30.479-3.498m7.525-4.901c3.407-4.227 7.597-6.832 13.627-8.435a1.695 1.695 0 0 0 1.239-1.457 1.681 1.681 0 0 0-.911-1.676c-.346-.164-8.362-4.118-17.835-.984-6.814 2.259-12.498 7.56-16.961 15.758-20.186-12.989-39.515-5.064-40.335-4.718a1.7 1.7 0 0 0-.984 1.949c.2.802.947 1.348 1.767 1.275 4.864-.364 13.263 3.462 17.726 6.122.274.164.565.237.857.237m5.429.71c-14.884 3.516-20.586 21.206-23.647 30.716-.255.801.11 1.658.856 2.022a1.685 1.685 0 0 0 2.132-.546c.109-.146 10.147-14.247 26.179-17.799-4.19 6.194-5.356 15.23-3.188 25.614a1.666 1.666 0 0 0 1.512 1.33h.146c.692 0 1.312-.419 1.567-1.057.054-.145 5.975-14.847 13.481-19.967m55.4 67.589c2.132-11.805 7.779-22.991 15.504-30.697m-6.866-6.23c-7.087 3.935-17.143 16.705-22.463 35.488m18.49-55.838c-10.585-2.751-17.234 1.494-17.508 1.676a1.685 1.685 0 0 0 .656 3.079c7.561 1.184 9.893 2.514 12.37 4.427-6.904 5.429-11.113 14.702-11.295 15.121a1.704 1.704 0 0 0 .565 2.077 1.69 1.69 0 0 0 2.15-.164c7.925-7.761 15.394-8.472 20.331-8.344m19.438 1.111c9.728 1.949 15.358 5.939 15.412 5.976.292.218.638.327.984.327.328 0 .638-.091.929-.273a1.698 1.698 0 0 0 .729-1.767c-3.134-14.374-15.904-16.214-22.627-16.087-3.334-15.558-22.59-19.803-23.428-19.985a1.68 1.68 0 0 0-1.786.784 1.705 1.705 0 0 0 .146 1.949c4.81 5.812 7.943 11.404 9.346 16.597m4.408 25.797c1.057 7.56.036 12.697.018 12.734a1.664 1.664 0 0 0 .875 1.84c.236.127.51.182.765.182.455 0 .929-.2 1.257-.546 3.571-3.954 7.469-13.427 7.014-21.097 6.613 4.81 10.257 11.386 10.293 11.459.31.565.911.911 1.549.875a1.684 1.684 0 0 0 1.475-1.002c2.186-4.992 2.259-9.255.237-13.044m-4.844 46.383c-34.814-15.358-82.546-9.401-105.318-.255" stroke="#fff" stroke-width="1.3" stroke-linecap="round" stroke-linejoin="round"/><path d="m379.526 784.778 30.078-56.988a187.993 187.993 0 0 1 79.469-79.015l77.251-40.207-232.174-62.77c148.953-50.179 125.445-155.014 125.445-155.014l271.875 87.362s5.784-57.76-24.585-105.051c-30.369-47.291-82.43-92.777-82.43-92.777s-50.615 2.527-98.699-15.162c-48.084-17.689-66.161-53.789-66.161-53.789" stroke="#B2B4B5" stroke-width="2.59" stroke-linecap="round" stroke-dasharray="4.29 4.29"/><path fill="#03FC9D" d="M513.563 757.813h38.266v12.996h-38.266zm1.805 34.656h35.378l1.805 19.494h-38.988l1.805-19.494Z"/><path d="M518.922 792.524h28.293m-23.192-42.011h18.091m0 7.087h-18.091m-2.532 13.208h11.842m7.451 0h3.88m7.251 61.486h-5.301m-30.097-19.33h33.103m-30.133 19.33h-5.247m44.234 0h-3.316l-7.251-61.468h3.461c.893 0 1.622-.729 1.622-1.621v-9.984c0-.892-.729-1.621-1.622-1.621h-6.011v-7.087h6.011a1.621 1.621 0 0 0 .93-2.951l-18.164-16.069a1.616 1.616 0 0 0-2.15 0l-18.29 16.178c-.511.437-.675 1.148-.438 1.785a1.596 1.596 0 0 0 1.512 1.039h6.012v7.087h-6.012c-.892 0-1.621.728-1.621 1.621v9.983c0 .893.729 1.622 1.621 1.622h3.462l-7.251 61.468h-3.316c-.892 0-1.621.728-1.621 1.621v12.789c0 .893.729 1.621 1.621 1.621h50.829c.892 0 1.621-.728 1.621-1.621v-12.789c0-.893-.729-1.621-1.621-1.621l-.018.018Zm-21.225 12.789h-8.343v-11.314a3.759 3.759 0 0 1 3.753-3.752h.819a3.759 3.759 0 0 1 3.753 3.752v11.314h.018Z" stroke="#fff" stroke-width="1.3" stroke-linecap="round" stroke-linejoin="round"/><path d="M529.074 781.83a.975.975 0 0 1-.972.971.975.975 0 0 1-.971-.971v-3.553c0-.534.438-.971.971-.971.534 0 .972.437.972.971v3.553Z" fill="#fff" stroke="#fff" stroke-width="1.3"/><path d="M539.302 798.955c0-.534.438-.971.971-.971.534 0 .972.437.972.971v3.534a.976.976 0 0 1-.972.972.975.975 0 0 1-.971-.972v-3.534Z" fill="#00261E" stroke="#00261E" stroke-width="1.3"/><path d="M504.511 818.794a11.144 11.144 0 0 1-10.348-6.923 1.628 1.628 0 0 0-1.494-1.002c-.656 0-1.239.401-1.494 1.002a11.181 11.181 0 0 1-10.348 6.923 11.161 11.161 0 0 1-10.347-6.923 1.628 1.628 0 0 0-1.494-1.002c-.656 0-1.239.401-1.494 1.002a11.182 11.182 0 0 1-10.348 6.923 11.164 11.164 0 0 1-10.348-6.923 1.628 1.628 0 0 0-1.494-1.002c-.656 0-1.239.401-1.494 1.002a11.18 11.18 0 0 1-10.347 6.923 11.162 11.162 0 0 1-10.348-6.923 1.628 1.628 0 0 0-1.494-1.002c-.656 0-1.239.401-1.494 1.002a11.182 11.182 0 0 1-10.348 6.923m82.892 19.202a11.145 11.145 0 0 1-10.348-6.923 1.628 1.628 0 0 0-1.493-1.002c-.656 0-1.239.401-1.494 1.002a11.182 11.182 0 0 1-10.348 6.923 11.164 11.164 0 0 1-10.348-6.923 1.628 1.628 0 0 0-1.494-1.002c-.656 0-1.239.401-1.494 1.002a11.181 11.181 0 0 1-10.348 6.923 11.161 11.161 0 0 1-10.347-6.923 1.63 1.63 0 0 0-1.494-1.002c-.656 0-1.239.401-1.494 1.002a11.182 11.182 0 0 1-10.348 6.923m14.794-91.655a13.656 13.656 0 0 1 10.074 8.034 1.64 1.64 0 0 0 1.494.984c.656 0 1.221-.383 1.494-.984 1.913-4.409 6.03-7.524 10.785-8.143m-4.081 28.092c3.99.729 7.36 3.407 8.981 7.16a1.64 1.64 0 0 0 1.494.984c.656 0 1.221-.383 1.494-.984a12.293 12.293 0 0 1 9.601-7.269M131.471 610.893h128.716V600.9c0-27.804-22.569-50.373-50.373-50.373h-27.97c-24.258 0-44.532 17.18-49.308 40.027" stroke="#fff" stroke-width="1.3" stroke-linecap="round" stroke-linejoin="round"/><path d="M250.868 571.689h35.688c13.913 0 25.183 11.277 25.183 25.183v14.021h-51.543m-47.667-30.179h-33.392V610.9h33.392v-30.186Zm-16.699 0V610.9m-52.467-42.504h104.811m9.241 15.978h50.828" stroke="#fff" stroke-width="1.3" stroke-linecap="round" stroke-linejoin="round"/><path d="M298.96 584.374v18.88h-26.266v-18.88m-107.29 2.231h-26.266v11.097h26.266v-11.097Z" stroke="#fff" stroke-width="1.3" stroke-linecap="round" stroke-linejoin="round"/><path d="M292.54 555.047c-7.711 7.71-20.216 7.71-27.926 0-7.711-7.711-7.711-20.216 0-27.927l27.926 27.927Z" fill="#03FC9D" stroke="#fff" stroke-width="1.3" stroke-linecap="round" stroke-linejoin="round"/><path d="m282.988 545.488 2.678-5.769c1.733-3.726-2.122-7.588-5.855-5.856l-5.769 2.679m12.305-25.79c5.639.527 10.945 2.816 15.053 6.924 4.109 4.108 6.397 9.415 6.924 15.054m-23.674-14.794c4.231.397 8.209 2.116 11.292 5.199 3.082 3.083 4.801 7.061 5.191 11.284m-18.173-9.299c2.816.26 5.473 1.408 7.524 3.465 2.05 2.058 3.198 4.708 3.465 7.524m-27.465 32.425v-11.552m-64.258-18.05v8.664m-12.996 0v-9.386" stroke="#fff" stroke-width="1.3" stroke-linecap="round" stroke-linejoin="round"/><path d="M218.053 537.834h-50.027l14.44-28.843h50.027l-14.44 28.843Z" fill="#03FC9D" stroke="#fff" stroke-width="1.3" stroke-linecap="round" stroke-linejoin="round"/><path d="m199.144 508.991-14.44 28.843m31.117-28.843-14.44 28.843m-26.136-14.418h50.027m58.43-38.612-3.09 3.098m10.844-10.845v-.007l3.104-3.097m-10.858 3.097-3.09-3.097m10.844 10.844v.007l3.104 3.098m-134.174 1.479v4.375m.007-15.335-.007-.007.007-4.382m-5.494 9.869h-4.376m15.342-.007.008.007 4.382-.007m626.317-115.46v-18.99h40.432v57.759m-24.186-57.676v-7.303m15.535 7.303v-7.303" stroke="#fff" stroke-width="1.3" stroke-linecap="round" stroke-linejoin="round"/><path d="m772.024 468.572.421-81.676 26.292-10.017v91.693" fill="#03FC9D"/><path d="m772.024 468.572.421-81.676 26.292-10.017v91.693m45.958-88.083 22.356-.01c5.335 0 9.662-4.299 9.662-9.605s-4.322-9.61-9.662-9.61c-.509 0-1.012.042-1.506.116-.859-6.736-6.639-11.936-13.638-11.936a13.76 13.76 0 0 0-8.405 2.848m-79.787 41.193h-6.938c-4.34 0-7.857-3.507-7.857-7.823 0-4.315 3.517-7.822 7.857-7.822.416 0 .827.032 1.227.095.7-5.484 5.402-9.72 11.097-9.72 3.955 0 7.43 2.041 9.421 5.123" stroke="#fff" stroke-width="1.3" stroke-linecap="round" stroke-linejoin="round"/><path d="M847.111 468.572v-51.417l-20.938-4.898v56.315" fill="#03FC9D"/><path d="M847.111 468.572v-51.417l-20.938-4.898v56.315m-3.61-109.02v44.041" stroke="#fff" stroke-width="1.3" stroke-linecap="round" stroke-linejoin="round"/><path d="M837.003 424.531v44.041m-51.982-77.253v77.253" stroke="#00261E" stroke-width="1.3" stroke-linecap="round" stroke-linejoin="round"/><path d="M810.289 359.552v109.02" stroke="#fff" stroke-width="1.3" stroke-linecap="round" stroke-linejoin="round"/><path d="m433.93 381.124-8.519-7.552a38.14 38.14 0 0 1-3.327.802h-.042c3.384-.703 6.315-1.809 8.36-3.147.328-.215.347-.616.054-.875l-9.183-8.145c-.38.116-.77.221-1.168.32 1.633-.466 3.07-1.088 4.217-1.835.33-.213.345-.619.052-.878l-10.74-9.525a.82.82 0 0 0-1.062 0l-10.746 9.525c-.293.259-.278.662.051.876 1.113.723 2.493 1.331 4.059 1.791-.338-.089-.67-.181-.997-.281l-9.193 8.15c-.293.259-.276.662.051.877 2.127 1.397 5.192 2.524 8.761 3.223a38.904 38.904 0 0 1-3.774-.872l-8.515 7.548c-.293.259-.267.648.071.85 4.394 2.636 12.282 4.294 20.763 4.294 8.481 0 16.365-1.658 20.757-4.294.336-.202.361-.591.07-.85v-.002Z" fill="#03FC9D"/><path d="M298.68 340.37c-1.108.074-2.228.144-3.366.211v-4.207c.875.045 1.76.075 2.672.075.236 0 .461-.01.694-.012v3.933Z" fill="#fff"/><path d="M297.096 275.801c4.37 0 15.068 21.684 15.068 40.626 0 6.108-1.146 10.92-3.409 14.3-2.505 3.748-6.428 5.647-11.659 5.647-1.125 0-2.19-.089-3.196-.259 3.074-1.06 5.669-2.36 7.577-3.866a2.28 2.28 0 0 0 .876-1.723 2.347 2.347 0 0 0-.795-1.823l-10.588-9.49c2.562-1.02 4.718-2.257 6.328-3.659.505-.439.797-1.07.801-1.735a2.406 2.406 0 0 0-.807-1.806l-11.432-10.249c1.461-.542 1.621-.423 2.869-1.034.596-.292.775-1.078.775-1.738 0-.661-.296-1.343-.814-1.806l-3.448-3.091c3.708-10.338 9.581-18.294 11.854-18.294Z" fill="#03FC9D"/><path d="M392.839 365.943c-15.963-.081-20.319 3.709-21.148 6.915-.76 2.936 1.309 6.129 5.399 8.338 5.805 3.135 8.9 7.12 8.077 10.402-.6 2.391-5.2 10.21-39.209 10.394-35.847.194-58.298-7.004-70.795-13.074-14.596-7.088-23.407-16.453-23.572-25.051-.189-9.864 11.251-16.371 29.856-16.982 27.903-.916 42.78-5.155 57.166-9.257 14.452-4.119 28.102-8.009 54.088-8.774 23.841-.699 34.646 5.781 36.808 12.079 1.392 4.064-.586 8.523-5.431 12.341" stroke="#fff" stroke-width="1.3" stroke-linecap="round" stroke-linejoin="round"/><path d="M413.076 390.477c-.929 0-1.683-.311-1.683-.696v-3.506c.465 0 .929.006 1.394.006.663 0 1.314-.009 1.971-.011v3.511c0 .385-.753.696-1.682.696Z" fill="#fff"/><path d="M407.68 362.707c-2.248-.481-4.205-1.249-5.689-2.226-.326-.214-.341-.619-.051-.88l10.65-9.57a.805.805 0 0 1 1.052 0l10.643 9.57c.291.261.276.666-.051.882-1.427.941-3.303 1.692-5.453 2.175m3.235 11.572a37.503 37.503 0 0 0 3.297-.806l8.443 7.588c.29.261.265.653-.07.854-4.353 2.648-12.17 4.315-20.57 4.315-8.401 0-16.224-1.665-20.577-4.315-.333-.203-.358-.593-.07-.854l8.438-7.584c1.389.405 2.88.744 4.455 1.005" stroke="#fff" stroke-width="1.3" stroke-linecap="round" stroke-linejoin="round"/><path d="M405.782 374.516c-4.02-.672-7.485-1.894-9.815-3.446-.324-.216-.341-.619-.05-.882l9.11-8.187c.689.214 1.406.4 2.146.559m12.148-.055a23.408 23.408 0 0 0 1.891-.5l9.1 8.184c.29.26.273.663-.053.88-2.116 1.405-5.192 2.554-8.737 3.254" stroke="#fff" stroke-width="1.3" stroke-linecap="round" stroke-linejoin="round"/><path d="M352.526 329.644c-.929 0-1.683-.311-1.683-.696v-3.506c.465 0 .929.006 1.394.006.663 0 1.314-.009 1.971-.011v3.511c0 .385-.753.696-1.682.696Z" fill="#fff"/><path d="M347.02 301.961c-2.247-.481-4.204-1.249-5.688-2.226-.327-.214-.341-.619-.051-.88l10.65-9.57a.803.803 0 0 1 1.051 0l10.644 9.57c.29.261.275.666-.051.882-1.427.941-3.303 1.692-5.453 2.175m3.235 11.572a37.066 37.066 0 0 0 3.297-.806l8.443 7.588c.29.261.265.653-.07.855-4.353 2.648-12.17 4.314-20.57 4.314s-16.224-1.664-20.577-4.314c-.332-.204-.358-.594-.07-.855l8.439-7.583c1.389.405 2.879.744 4.454 1.005" stroke="#fff" stroke-width="1.3" stroke-linecap="round" stroke-linejoin="round"/><path d="M345.118 313.77c-4.02-.672-7.484-1.893-9.814-3.445-.325-.216-.342-.619-.051-.882l9.11-8.188c.689.214 1.406.401 2.146.56m12.148-.055a23.408 23.408 0 0 0 1.891-.501l9.1 8.184c.291.261.274.664-.053.88-2.116 1.406-5.192 2.555-8.737 3.254" stroke="#fff" stroke-width="1.3" stroke-linecap="round" stroke-linejoin="round"/><path d="M266.292 343.946c-1.163 0-2.105-.436-2.105-.974v-4.911c.581 0 1.157.01 1.744.01.825 0 1.641-.01 2.462-.014v4.915c0 .538-.943.974-2.106.974h.005Z" fill="#fff"/><path d="M257.929 303.753c-3.258-.697-6.097-1.811-8.247-3.227-.473-.311-.494-.899-.074-1.276l15.445-13.878a1.167 1.167 0 0 1 1.525 0l15.435 13.878c.422.377.4.967-.072 1.278-2.07 1.364-4.792 2.453-7.911 3.153m4.691 16.781a54.46 54.46 0 0 0 4.781-1.168l12.244 11.005c.42.38.384.946-.1 1.24-6.314 3.84-17.648 6.257-29.831 6.257-12.182 0-23.528-2.415-29.841-6.257-.484-.294-.522-.86-.1-1.238l12.236-10.997a55.39 55.39 0 0 0 6.458 1.457" stroke="#fff" stroke-width="1.3" stroke-linecap="round" stroke-linejoin="round"/><path d="M255.174 320.877c-5.83-.975-10.853-2.745-14.233-4.997-.47-.314-.496-.899-.074-1.278l13.213-11.875a35.56 35.56 0 0 0 3.113.81m17.616-.078c.944-.21 1.86-.454 2.744-.728l13.198 11.869c.42.377.394.964-.076 1.276-3.07 2.038-7.529 3.706-12.673 4.722m22.383 41.857h-10.096m-8.412 10.937h-10.096m70.67-3.365h-10.937m34.492-21.033H355.91m-29.444 38.7H316.37" stroke="#fff" stroke-width="1.3" stroke-linecap="round" stroke-linejoin="round"/><path d="M285.242 294.095c3.706-10.338 9.579-18.294 11.852-18.294 4.372 0 15.07 21.684 15.07 40.626 0 6.108-1.147 10.92-3.409 14.3-2.505 3.748-6.429 5.647-11.661 5.647a19.15 19.15 0 0 1-3.195-.259m410.865-57.199c3.587-1.227 22.04-7.628 40.511-15.62 28.265-12.23 42.516-21.832 43.572-29.353.86-6.136-6.274-11.374-12.005-15.583-2.782-2.044-6.988-5.132-6.703-6.334.031-.134.476-1.334 6.278-2.32 1.279-.218 2.505-.425 3.706-.627m.788-14.816c-11.558.927-21.201 1.803-28.662 2.604-7.874.842-12.938 3.781-14.263 8.272-1.214 4.116 1.058 8.876 6.233 13.059.571.462 1.226 1.138 1.105 1.743-.366 1.819-4.973 4.027-13.693 6.567-15.925 4.636-28.22 7.391-40.112 10.056-9.1 2.04-18.503 4.145-29.604 7.1" stroke="#fff" stroke-width="1.3" stroke-linecap="round" stroke-linejoin="round"/><path d="M796.33 228.149h-.962c-.531 0-.962-.289-.962-.646v-4.363c.133 0 .254.011.387.011h.272c.762 0 1.501-.021 2.229-.056v4.408c0 .357-.43.646-.961.646h-.003Z" fill="#fff"/><path d="M805.48 218.666c-2.055 2.807-5.298 4.229-9.638 4.229h-.164c-8.404-.07-12.646-5.209-12.606-15.277.059-14.312 9.072-31.43 12.594-31.43 3.522 0 12.594 17.294 12.594 31.754 0 4.596-.935 8.204-2.78 10.724Z" fill="#03FC9D" stroke="#fff" stroke-width="1.3" stroke-linecap="round" stroke-linejoin="round"/><path d="M701.99 224.358c-.951.063-1.912.123-2.888.181v-3.61c.75.038 1.51.064 2.293.064.202 0 .395-.008.595-.01v3.375Z" fill="#fff"/><path d="M701.105 164.614c4.058 0 13.989 20.176 13.989 37.801 0 5.683-1.064 10.161-3.164 13.306-2.326 3.487-5.968 5.254-10.825 5.254a17.76 17.76 0 0 1-2.966-.241c2.854-.986 5.262-2.196 7.034-3.598a2.12 2.12 0 0 0 .813-1.603 2.187 2.187 0 0 0-.738-1.696l-9.83-8.83c2.379-.949 4.38-2.099 5.875-3.404.469-.409.74-.996.744-1.615a2.235 2.235 0 0 0-.75-1.68l-10.612-9.536c1.356-.504 1.504-.394 2.663-.963.554-.271.72-1.002.72-1.617a2.3 2.3 0 0 0-.755-1.68l-3.202-2.876c3.443-9.619 8.895-17.022 11.004-17.022Z" fill="#03FC9D"/><path d="M671.67 228.149c-1.197 0-2.168-.427-2.168-.955v-4.817c.598 0 1.192.01 1.796.01.85 0 1.69-.01 2.536-.014v4.821c0 .528-.971.955-2.169.955h.005Z" fill="#fff"/><path d="M664.351 190.68c-3.04-.65-5.687-1.688-7.692-3.009-.441-.29-.461-.838-.07-1.19l14.406-12.94a1.092 1.092 0 0 1 1.422 0l14.395 12.94c.394.352.374.902-.067 1.192-1.93 1.271-4.469 2.287-7.378 2.94m4.376 15.646a50.851 50.851 0 0 0 4.459-1.089l11.419 10.261c.392.354.358.882-.093 1.156-5.888 3.58-16.46 5.834-27.822 5.834-11.362 0-21.943-2.252-27.832-5.834-.451-.274-.486-.802-.093-1.154l11.412-10.253a51.835 51.835 0 0 0 6.023 1.358" stroke="#fff" stroke-width="1.3" stroke-linecap="round" stroke-linejoin="round"/><path d="M661.781 206.646c-5.438-.909-10.122-2.56-13.274-4.659-.439-.293-.463-.838-.069-1.192l12.323-11.072c.933.289 1.9.542 2.903.755m16.431-.073c.88-.196 1.734-.423 2.559-.678l12.309 11.066c.392.352.368.899-.071 1.19-2.863 1.9-7.022 3.455-11.819 4.402" stroke="#fff" stroke-width="1.3" stroke-linecap="round" stroke-linejoin="round"/><path d="M690.101 181.636c3.441-9.619 8.893-17.022 11.002-17.022 4.058 0 13.989 20.176 13.989 37.801 0 5.683-1.064 10.161-3.164 13.306-2.326 3.487-5.968 5.254-10.825 5.254a17.76 17.76 0 0 1-2.966-.241" stroke="#fff" stroke-width="1.3" stroke-linecap="round" stroke-linejoin="round"/><path d="M675.277 263.526c7.942-2.166 74.491-26.644 76.892-27.796 9.025-4.332 24.547-6.137 2.888-23.826-8.303-6.781 18.049-8.664 24.908-9.747" stroke="#fff" stroke-width="1.3" stroke-linecap="round" stroke-dasharray="1.4 5.27"/></svg>