<svg xmlns="http://www.w3.org/2000/svg" width="16" height="16"><g fill="#6ab9ff"><path d="M0 16h7.273V8.727H0zm1.454-5.818h4.364v4.352H1.454z"/><path d="M2.909 11.636h1.455v1.455H2.909zm8.727 2.909h1.455V16h-1.455zm2.909 0H16V16h-1.455z"/><path d="M14.545 10.182h-1.454V8.727H8.727V16h1.455v-4.364h1.454v1.455H16V8.727h-1.455zM0 7.273h7.273V0H0zm1.454-5.819h4.364v4.364H1.454z"/><path d="M2.909 2.909h1.455v1.455H2.909zM8.727 0v7.273H16V0zm5.818 5.818h-4.363V1.454h4.363z"/><path d="M11.636 2.909h1.455v1.455h-1.455z"/></g></svg>