<svg xmlns="http://www.w3.org/2000/svg" width="91" height="37" fill="none" viewBox="0 0 91 37"><g fill="#fff" clip-path="url(#a)"><path d="M16.573 4.79c-1.621 1.953-4.444 2.283-4.444 2.283s-.194-2.835 1.427-4.79C15.177.33 18 0 18 0s.193 2.836-1.427 4.79m3.688 11.523c0-2.455 1.279-4.545 3.065-5.322-.644-1.031-1.463-1.85-2.436-2.398-3.73-2.097-5.386.412-8.263.412s-4.533-2.512-8.263-.412c-2.576 1.45-4.08 4.815-4.08 8.897 0 4.85 2.792 10.14 6.557 12.024 1.643.822 3.794-.682 5.786-.84 1.992.158 4.145 1.662 5.785.84 2.627-1.316 4.777-4.285 5.837-7.609-2.252-.368-3.99-2.731-3.99-5.595zm16.104 3.001v10.26h-3.534V2.428h8.289q4.839 0 7.498 2.118 2.66 2.12 2.661 5.983t-2.956 6.321q-2.954 2.461-7.984 2.462h-3.974zm0-14.007v11.127h3.702q3.658 0 5.585-1.504t1.926-4.25q-.001-5.376-7.067-5.377h-4.143zM90.42 9.909l-9.414 21.369q-2.518 5.72-7.076 5.719-1.281-.001-2.138-.235v-2.645q1.059.323 1.938.323 2.48-.001 3.717-2.66l1.64-3.49-7.993-18.384h3.638l5.535 14.175q.1.27.419 1.402h.12c.067-.289.2-.742.4-1.367l5.817-14.21h3.397zm-28.632-.121c-1.675 0-4.812-.209-7.178 2.643-.61.732-1.072 1.706-1.19 3.007h3.765s.403-2.183 3.236-2.868h.006q.485-.042.98-.041c2.864 0 4.298 2.22 4.298 5.408l-5.29.136c-.993.026-1.983.146-2.944.4q-4.9 1.307-4.9 5.744 0 2.455 1.76 3.94 1.759 1.484 4.875 1.484 4.234-.002 6.413-3.371h.083v2.93h3.34V16.995c0-4.666-1.814-7.21-7.254-7.21zm3.917 11.79q0 2.403-1.618 3.968-1.617 1.566-4.1 1.567-1.815-.001-2.903-.869-1.09-.87-1.091-2.245-.001-1.889 1.183-2.63.675-.424 1.722-.701a10.5 10.5 0 0 1 2.703-.333h4.104z"/></g><defs><clipPath id="a"><path fill="#fff" d="M.285 0H90.42v37H.285z"/></clipPath></defs></svg>