<svg xmlns="http://www.w3.org/2000/svg" width="93" height="35" fill="none" viewBox="0 0 93 35"><g clip-path="url(#a)"><path fill="#fff" d="M38.686 17.176v10.245h-3.528V.316h8.275q4.83 0 7.486 2.116c1.77 1.412 2.657 3.4 2.657 5.972q-.001 3.857-2.951 6.312t-7.971 2.457h-3.968zm0-13.984v11.112h3.695q3.654 0 5.577-1.501t1.922-4.244q0-5.367-7.055-5.367zm53.972 4.595-9.4 21.335q-2.512 5.71-7.065 5.71-1.278-.001-2.134-.235v-2.641q1.058.323 1.935.323 2.476-.001 3.711-2.657l1.638-3.484-7.98-18.354h3.632l5.526 14.152q.1.27.418 1.4h.12q.1-.43.4-1.365l5.807-14.187h3.392zm-28.59-.121c-1.672 0-4.804-.209-7.167 2.638-.608.732-1.07 1.704-1.187 3.002h3.759s.402-2.178 3.23-2.862h.006q.485-.043.979-.042c2.86 0 4.29 2.217 4.29 5.4l-5.281.136a12.8 12.8 0 0 0-2.94.4q-4.892 1.304-4.892 5.734 0 2.451 1.758 3.933 1.756 1.482 4.867 1.482 4.227-.002 6.403-3.366h.083v2.926h3.334V14.861c0-4.658-1.811-7.198-7.242-7.198zm3.91 11.771q0 2.4-1.614 3.962-1.615 1.564-4.095 1.564-1.81 0-2.898-.867-1.088-.87-1.089-2.242 0-1.886 1.181-2.626.675-.423 1.72-.7a10.5 10.5 0 0 1 2.698-.332h4.098z"/><path fill="#4285F4" d="M28.856 15.017c0 4.281-1.865 8.129-4.83 10.773l-4.43-3.445a8.98 8.98 0 0 0 3.373-4.595h-8.503v-5.542h14.111c.18.909.276 1.85.276 2.812z"/><path fill="#34A853" d="M24.027 25.79a14.37 14.37 0 0 1-9.6 3.655c-5.57 0-10.405-3.158-12.809-7.781l4.36-3.636a8.97 8.97 0 0 0 13.618 4.313l4.43 3.446z"/><path fill="#E94235" d="M23.989 4.211 20.09 8.065a8.93 8.93 0 0 0-5.659-2.014 8.97 8.97 0 0 0-8.338 5.663L1.726 8.167C4.167 3.654 8.94.589 14.428.589c3.667 0 7.014 1.368 9.56 3.62z"/><path fill="#FABB05" d="M5.463 15.017c0 1.057.183 2.07.52 3.011L1.62 21.664A14.34 14.34 0 0 1 0 15.016c0-2.4.624-4.813 1.726-6.852L6.09 11.71a9 9 0 0 0-.627 3.303z"/></g><defs><clipPath id="a"><path fill="#fff" d="M0 .316h92.657v34.518H0z"/></clipPath></defs></svg>