<svg xmlns="http://www.w3.org/2000/svg" width="131.39" height="86.9"><path d="M74.773 4.693h46.287v83.2H74.773z" style="fill:#7673c0" transform="translate(-9.467 7.924) scale(.76758)"/><path d="M77.702 46.293a52.73 52.73 0 0 1 20.214-41.6C74.933-13.364 41.695-9.369 23.638 13.588 5.581 36.572 9.576 69.81 32.533 87.867c19.176 15.074 46.208 15.074 65.383 0-12.783-9.988-20.214-25.328-20.214-41.574" style="fill:#eb001b" transform="translate(-9.467 7.924) scale(.76758)"/><path d="M178.454 79.078v-1.651h.692v-.347h-1.758v.347h.693v1.704zm3.409 0v-2.051h-.533l-.613 1.465-.612-1.465h-.533v2.051h.373v-1.545l.586 1.332h.399l.586-1.332v1.545zm1.651-32.785c0 29.216-23.703 52.892-52.919 52.892a53.04 53.04 0 0 1-32.679-11.292c22.984-18.057 26.953-51.321 8.896-74.278-2.61-3.303-5.593-6.312-8.896-8.896 22.958-18.056 56.222-14.088 74.279 8.896a52.84 52.84 0 0 1 11.319 32.678" style="fill:#00a1df" transform="translate(-9.467 7.924) scale(.76758)"/></svg>