<svg xmlns="http://www.w3.org/2000/svg" width="131.39" height="86.9"><path d="M48.37 15.14h34.66v56.61H48.37z" style="fill:#ff5f00" transform="translate(-8.383 -5.558) scale(1.12779)"/><path d="M51.94 43.45a35.94 35.94 0 0 1 13.75-28.3C43.901-1.974 11.745 10.911 7.81 38.343S31.111 87.18 56.836 76.872a36 36 0 0 0 8.854-5.112 35.94 35.94 0 0 1-13.75-28.31" style="fill:#eb001b" transform="translate(-8.383 -5.558) scale(1.12779)"/><path d="M120.5 65.76V64.6h.5v-.24h-1.19v.24h.47v1.16zm2.31 0v-1.4h-.36l-.42 1-.42-1h-.36v1.4h.26V64.7l.39.91h.27l.39-.91v1.06zm1.13-22.31c-.001 27.713-30.001 45.033-54.001 31.176a36 36 0 0 1-4.249-2.876c18.34-14.414 18.34-42.196 0-56.61 21.786-17.128 53.944-4.249 57.884 23.182.244 1.695.366 3.406.366 5.118z" style="fill:#f79e1b" transform="translate(-8.383 -5.558) scale(1.12779)"/></svg>