<svg width="1920" height="1080" viewBox="0 0 1920 1080" fill="none" xmlns="http://www.w3.org/2000/svg"><g clip-path="url(#clip0_1021_2)"><path d="M996.546 -60.6603L888.974 574.44L965.959 587.073L930.922 1144.16L941.409 1140.66L1048.98 505.56L971.997 492.928L1007.11 -64.156L996.625 -60.6603H996.546Z" fill="#03FC9D"/><path d="M1608.32 543.194H1238.59V808.937H1608.32V543.194Z" fill="#E6E8EA" stroke="#003B2F" stroke-width="3" stroke-linecap="round" stroke-linejoin="round"/><path d="M1654.34 849.292H1187.96V808.203H1654.34V849.292ZM1189.56 847.691H1652.81V809.737H1189.56V847.691Z" fill="#A9FEDE"/><path d="M1169.82 497.77H1672.55C1674.96 497.77 1675.96 494.768 1674.09 493.301L1422.69 296.395C1420.95 294.994 1418.42 294.994 1416.68 296.395L1168.28 493.234C1166.42 494.702 1167.48 497.703 1169.82 497.703V497.77Z" fill="white" stroke="#003B2F" stroke-width="3" stroke-linecap="round" stroke-linejoin="round"/><path d="M1225.71 478.893H1616.52C1618.39 478.893 1619.19 476.559 1617.73 475.425L1422.29 322.409C1420.89 321.342 1418.95 321.342 1417.62 322.409L1224.51 475.425C1223.05 476.559 1223.85 478.893 1225.71 478.893Z" fill="#E6E8EA"/><path d="M1426.22 461.95C1455.03 461.95 1478.38 438.596 1478.38 409.789C1478.38 380.981 1455.03 357.627 1426.22 357.627C1397.41 357.627 1374.06 380.981 1374.06 409.789C1374.06 438.596 1397.41 461.95 1426.22 461.95Z" fill="#A9FEDE"/><path d="M1426.22 461.95C1455.03 461.95 1478.38 438.596 1478.38 409.789C1478.38 380.981 1455.03 357.627 1426.22 357.627C1397.41 357.627 1374.06 380.981 1374.06 409.789C1374.06 438.596 1397.41 461.95 1426.22 461.95Z" fill="#03FC9D" stroke="#003B2F" stroke-width="3" stroke-linecap="round" stroke-linejoin="round"/><path d="M1426.22 452.278C1449.69 452.278 1468.71 433.255 1468.71 409.789C1468.71 386.322 1449.69 367.299 1426.22 367.299C1402.76 367.299 1383.73 386.322 1383.73 409.789C1383.73 433.255 1402.76 452.278 1426.22 452.278Z" fill="#E6E8EA"/><path d="M1435.29 419.794C1435.29 417.793 1434.63 416.125 1433.36 414.858C1432.03 413.59 1429.76 412.323 1426.42 411.189C1422.62 409.988 1419.82 408.521 1418.02 406.853C1416.22 405.186 1415.28 402.785 1415.28 399.716C1415.28 396.648 1416.22 394.38 1418.02 392.512C1419.82 390.645 1422.29 389.577 1425.42 389.377V383.908H1428.22V389.377C1431.42 389.644 1433.83 390.845 1435.63 392.913C1437.36 394.98 1438.23 397.849 1438.16 401.384V401.517H1435.03C1435.03 398.782 1434.29 396.514 1432.83 394.78C1431.36 393.046 1429.36 392.179 1426.76 392.179C1424.15 392.179 1422.02 392.913 1420.62 394.313C1419.22 395.714 1418.55 397.515 1418.55 399.65C1418.55 401.784 1419.15 403.385 1420.42 404.652C1421.69 405.92 1424.02 407.12 1427.56 408.254C1431.29 409.521 1434.09 410.989 1435.89 412.656C1437.69 414.324 1438.63 416.659 1438.63 419.727C1438.63 422.795 1437.69 425.13 1435.83 426.931C1433.96 428.732 1431.42 429.799 1428.22 429.999V435.202H1425.49V430.066C1422.22 429.866 1419.49 428.799 1417.28 426.931C1415.08 425.063 1414.08 422.195 1414.15 418.326V418.193H1417.28C1417.28 421.395 1418.22 423.729 1420.02 425.197C1421.82 426.597 1424.09 427.331 1426.69 427.331C1429.29 427.331 1431.49 426.597 1433.09 425.197C1434.69 423.796 1435.43 421.995 1435.43 419.86L1435.29 419.794Z" fill="#003B2F"/><path d="M1268.47 549.531H1216.51V807.469H1268.47V549.531Z" fill="white" stroke="#003B2F" stroke-width="3" stroke-linecap="round" stroke-linejoin="round"/><path d="M1276.07 549.531H1208.84V581.348H1276.07V549.531Z" fill="white" stroke="#003B2F" stroke-width="3" stroke-linecap="round" stroke-linejoin="round"/><path d="M1276.07 775.319H1208.84V809.404H1276.07V775.319Z" fill="white" stroke="#003B2F" stroke-width="3" stroke-linecap="round" stroke-linejoin="round"/><path d="M1384.07 549.531H1332.1V807.469H1384.07V549.531Z" fill="white" stroke="#003B2F" stroke-width="3" stroke-linecap="round" stroke-linejoin="round"/><path d="M1391.67 549.531H1324.43V581.348H1391.67V549.531Z" fill="white" stroke="#003B2F" stroke-width="3" stroke-linecap="round" stroke-linejoin="round"/><path d="M1391.67 775.319H1324.43V809.404H1391.67V775.319Z" fill="white" stroke="#003B2F" stroke-width="3" stroke-linecap="round" stroke-linejoin="round"/><path d="M1499.59 549.531H1447.63V807.469H1499.59V549.531Z" fill="white" stroke="#003B2F" stroke-width="3" stroke-linecap="round" stroke-linejoin="round"/><path d="M1507.27 549.531H1440.03V581.348H1507.27V549.531Z" fill="white" stroke="#003B2F" stroke-width="3" stroke-linecap="round" stroke-linejoin="round"/><path d="M1507.27 775.319H1440.03V809.404H1507.27V775.319Z" fill="white" stroke="#003B2F" stroke-width="3" stroke-linecap="round" stroke-linejoin="round"/><path d="M1625.26 549.531H1573.3V807.469H1625.26V549.531Z" fill="white" stroke="#003B2F" stroke-width="3" stroke-linecap="round" stroke-linejoin="round"/><path d="M1632.87 549.531H1565.63V581.348H1632.87V549.531Z" fill="white" stroke="#003B2F" stroke-width="3" stroke-linecap="round" stroke-linejoin="round"/><path d="M1632.87 775.319H1565.63V809.404H1632.87V775.319Z" fill="white" stroke="#003B2F" stroke-width="3" stroke-linecap="round" stroke-linejoin="round"/><path d="M1642.67 497.769H1199.63V551.532H1642.67V497.769Z" fill="white" stroke="#003B2F" stroke-width="3" stroke-linecap="round" stroke-linejoin="round"/><path d="M1653.54 809.003H1188.76V848.491H1653.54V809.003Z" fill="white" stroke="#003B2F" stroke-width="3" stroke-linecap="round" stroke-linejoin="round"/><path d="M1685.29 847.691H1157.08V887.179H1685.29V847.691Z" fill="white" stroke="#003B2F" stroke-width="3" stroke-linecap="round" stroke-linejoin="round"/><path d="M1342.18 749.038V604.627" stroke="#003B2F" stroke-width="3" stroke-linecap="round" stroke-linejoin="round"/><path d="M1459.44 749.038V604.627" stroke="#003B2F" stroke-width="3" stroke-linecap="round" stroke-linejoin="round"/><path d="M1782.85 858.539H1628.1C1624.41 858.539 1621.43 861.525 1621.43 865.209V887.821C1621.43 891.505 1624.41 894.492 1628.1 894.492H1782.85C1786.53 894.492 1789.52 891.505 1789.52 887.821V865.209C1789.52 861.525 1786.53 858.539 1782.85 858.539Z" fill="#03FC9D"/><path d="M1767.71 858.539H1744.16V894.492H1767.71V858.539Z" fill="#A9FEDE"/><path d="M1782.85 858.539H1628.1C1624.41 858.539 1621.43 861.525 1621.43 865.209V887.821C1621.43 891.505 1624.41 894.492 1628.1 894.492H1782.85C1786.53 894.492 1789.52 891.505 1789.52 887.821V865.209C1789.52 861.525 1786.53 858.539 1782.85 858.539Z" stroke="#003B2F" stroke-width="3" stroke-linecap="round" stroke-linejoin="round"/><path d="M1705.34 887.555V866.01" stroke="#003B2F" stroke-width="3" stroke-linecap="round" stroke-linejoin="round"/><path d="M1693 887.555V866.01" stroke="#003B2F" stroke-width="3" stroke-linecap="round" stroke-linejoin="round"/><path d="M1680.66 887.555V866.01" stroke="#003B2F" stroke-width="3" stroke-linecap="round" stroke-linejoin="round"/><path d="M1668.25 887.555V866.01" stroke="#003B2F" stroke-width="3" stroke-linecap="round" stroke-linejoin="round"/><path d="M1655.91 887.555V866.01" stroke="#003B2F" stroke-width="3" stroke-linecap="round" stroke-linejoin="round"/><path d="M1766.37 822.518H1611.62C1607.94 822.518 1604.95 825.505 1604.95 829.189V851.801C1604.95 855.485 1607.94 858.471 1611.62 858.471H1766.37C1770.06 858.471 1773.04 855.485 1773.04 851.801V829.189C1773.04 825.505 1770.06 822.518 1766.37 822.518Z" fill="#03FC9D"/><path d="M1751.23 822.519H1727.68V858.471H1751.23V822.519Z" fill="#A9FEDE"/><path d="M1766.37 822.518H1611.62C1607.94 822.518 1604.95 825.505 1604.95 829.189V851.801C1604.95 855.485 1607.94 858.471 1611.62 858.471H1766.37C1770.06 858.471 1773.04 855.485 1773.04 851.801V829.189C1773.04 825.505 1770.06 822.518 1766.37 822.518Z" stroke="#003B2F" stroke-width="3" stroke-linecap="round" stroke-linejoin="round"/><path d="M1688.86 851.533V829.989" stroke="#003B2F" stroke-width="3" stroke-linecap="round" stroke-linejoin="round"/><path d="M1676.52 851.533V829.989" stroke="#003B2F" stroke-width="3" stroke-linecap="round" stroke-linejoin="round"/><path d="M1664.12 851.533V829.989" stroke="#003B2F" stroke-width="3" stroke-linecap="round" stroke-linejoin="round"/><path d="M1651.78 851.533V829.989" stroke="#003B2F" stroke-width="3" stroke-linecap="round" stroke-linejoin="round"/><path d="M1639.44 851.533V829.989" stroke="#003B2F" stroke-width="3" stroke-linecap="round" stroke-linejoin="round"/><path d="M1798.52 789.1H1643.77C1640.09 789.1 1637.1 792.087 1637.1 795.771V818.383C1637.1 822.067 1640.09 825.053 1643.77 825.053H1798.52C1802.21 825.053 1805.19 822.067 1805.19 818.383V795.771C1805.19 792.087 1802.21 789.1 1798.52 789.1Z" fill="#03FC9D"/><path d="M1783.38 789.1H1759.83V825.053H1783.38V789.1Z" fill="#A9FEDE"/><path d="M1798.52 789.1H1643.77C1640.09 789.1 1637.1 792.087 1637.1 795.771V818.383C1637.1 822.067 1640.09 825.053 1643.77 825.053H1798.52C1802.21 825.053 1805.19 822.067 1805.19 818.383V795.771C1805.19 792.087 1802.21 789.1 1798.52 789.1Z" stroke="#003B2F" stroke-width="3" stroke-linecap="round" stroke-linejoin="round"/><path d="M1721.01 818.117V796.572" stroke="#003B2F" stroke-width="3" stroke-linecap="round" stroke-linejoin="round"/><path d="M1708.67 818.117V796.572" stroke="#003B2F" stroke-width="3" stroke-linecap="round" stroke-linejoin="round"/><path d="M1696.27 818.117V796.572" stroke="#003B2F" stroke-width="3" stroke-linecap="round" stroke-linejoin="round"/><path d="M1683.93 818.117V796.572" stroke="#003B2F" stroke-width="3" stroke-linecap="round" stroke-linejoin="round"/><path d="M1671.59 818.117V796.572" stroke="#003B2F" stroke-width="3" stroke-linecap="round" stroke-linejoin="round"/><path d="M1777.51 752.815H1622.76C1619.08 752.815 1616.09 755.801 1616.09 759.485V782.097C1616.09 785.781 1619.08 788.767 1622.76 788.767H1777.51C1781.19 788.767 1784.18 785.781 1784.18 782.097V759.485C1784.18 755.801 1781.19 752.815 1777.51 752.815Z" fill="#03FC9D"/><path d="M1762.37 752.815H1738.82V788.767H1762.37V752.815Z" fill="#A9FEDE"/><path d="M1777.51 752.815H1622.76C1619.08 752.815 1616.09 755.801 1616.09 759.485V782.097C1616.09 785.781 1619.08 788.767 1622.76 788.767H1777.51C1781.19 788.767 1784.18 785.781 1784.18 782.097V759.485C1784.18 755.801 1781.19 752.815 1777.51 752.815Z" stroke="#003B2F" stroke-width="3" stroke-linecap="round" stroke-linejoin="round"/><path d="M1700 781.831V760.286" stroke="#003B2F" stroke-width="3" stroke-linecap="round" stroke-linejoin="round"/><path d="M1687.66 781.831V760.286" stroke="#003B2F" stroke-width="3" stroke-linecap="round" stroke-linejoin="round"/><path d="M1675.32 781.831V760.286" stroke="#003B2F" stroke-width="3" stroke-linecap="round" stroke-linejoin="round"/><path d="M1662.98 781.831V760.286" stroke="#003B2F" stroke-width="3" stroke-linecap="round" stroke-linejoin="round"/><path d="M1650.58 781.831V760.286" stroke="#003B2F" stroke-width="3" stroke-linecap="round" stroke-linejoin="round"/><path d="M1650.04 858.806H1495.29C1491.61 858.806 1488.62 861.792 1488.62 865.476V888.088C1488.62 891.772 1491.61 894.759 1495.29 894.759H1650.04C1653.73 894.759 1656.71 891.772 1656.71 888.088V865.476C1656.71 861.792 1653.73 858.806 1650.04 858.806Z" fill="#03FC9D"/><path d="M1634.9 858.806H1611.36V894.759H1634.9V858.806Z" fill="#A9FEDE"/><path d="M1650.04 858.806H1495.29C1491.61 858.806 1488.62 861.792 1488.62 865.476V888.088C1488.62 891.772 1491.61 894.759 1495.29 894.759H1650.04C1653.73 894.759 1656.71 891.772 1656.71 888.088V865.476C1656.71 861.792 1653.73 858.806 1650.04 858.806Z" stroke="#003B2F" stroke-width="3" stroke-linecap="round" stroke-linejoin="round"/><path d="M1572.53 887.822V866.277" stroke="#003B2F" stroke-width="3" stroke-linecap="round" stroke-linejoin="round"/><path d="M1560.19 887.822V866.277" stroke="#003B2F" stroke-width="3" stroke-linecap="round" stroke-linejoin="round"/><path d="M1547.85 887.822V866.277" stroke="#003B2F" stroke-width="3" stroke-linecap="round" stroke-linejoin="round"/><path d="M1535.51 887.822V866.277" stroke="#003B2F" stroke-width="3" stroke-linecap="round" stroke-linejoin="round"/><path d="M1523.17 887.822V866.277" stroke="#003B2F" stroke-width="3" stroke-linecap="round" stroke-linejoin="round"/><path d="M1621.96 822.518H1467.21C1463.53 822.518 1460.54 825.505 1460.54 829.189V851.801C1460.54 855.485 1463.53 858.471 1467.21 858.471H1621.96C1625.64 858.471 1628.63 855.485 1628.63 851.801V829.189C1628.63 825.505 1625.64 822.518 1621.96 822.518Z" fill="#03FC9D"/><path d="M1606.82 822.519H1583.27V858.471H1606.82V822.519Z" fill="#A9FEDE"/><path d="M1621.96 822.518H1467.21C1463.53 822.518 1460.54 825.505 1460.54 829.189V851.801C1460.54 855.485 1463.53 858.471 1467.21 858.471H1621.96C1625.64 858.471 1628.63 855.485 1628.63 851.801V829.189C1628.63 825.505 1625.64 822.518 1621.96 822.518Z" stroke="#003B2F" stroke-width="3" stroke-linecap="round" stroke-linejoin="round"/><path d="M1544.45 851.533V829.989" stroke="#003B2F" stroke-width="3" stroke-linecap="round" stroke-linejoin="round"/><path d="M1532.05 851.533V829.989" stroke="#003B2F" stroke-width="3" stroke-linecap="round" stroke-linejoin="round"/><path d="M1519.71 851.533V829.989" stroke="#003B2F" stroke-width="3" stroke-linecap="round" stroke-linejoin="round"/><path d="M1507.37 851.533V829.989" stroke="#003B2F" stroke-width="3" stroke-linecap="round" stroke-linejoin="round"/><path d="M1495.03 851.533V829.989" stroke="#003B2F" stroke-width="3" stroke-linecap="round" stroke-linejoin="round"/><path d="M1616.59 478.893C1618.46 478.893 1619.26 476.559 1617.79 475.425L1422.35 322.409C1420.95 321.342 1419.02 321.342 1417.68 322.409" stroke="#003B2F" stroke-width="3" stroke-linecap="round" stroke-linejoin="round"/><path d="M677.332 705.351C694.579 603.071 625.665 506.138 523.309 488.891C421.029 471.643 324.097 540.558 306.849 642.913C289.602 745.193 358.517 842.126 460.872 859.373C563.152 876.621 660.084 807.706 677.332 705.351Z" fill="#003B2F"/><mask id="mask0_1021_2" style="mask-type:luminance" maskUnits="userSpaceOnUse" x="304" y="486" width="376" height="377"><path d="M677.332 705.351C694.579 603.071 625.665 506.138 523.309 488.891C421.029 471.643 324.097 540.558 306.849 642.913C289.602 745.193 358.517 842.126 460.872 859.373C563.152 876.621 660.084 807.706 677.332 705.351Z" fill="white"/></mask><g mask="url(#mask0_1021_2)"><path d="M694.579 471.644H289.602V876.622H694.579V471.644Z" fill="#003B2F"/></g><path d="M657.448 705.351C674.696 603.071 605.781 506.138 503.426 488.891C401.146 471.643 304.213 540.558 286.966 642.913C269.718 745.193 338.633 842.126 440.988 859.373C543.268 876.621 640.201 807.706 657.448 705.351Z" fill="#03FC9D" stroke="#003B2F" stroke-width="3" stroke-linecap="round" stroke-linejoin="round"/><path d="M622.125 699.175C636.134 616.327 580.249 537.772 497.401 523.838C414.552 509.829 335.997 565.714 322.064 648.563C308.055 731.411 363.94 809.966 446.788 823.9C529.636 837.908 608.191 782.024 622.125 699.175Z" fill="#03FC9D" stroke="#003B2F" stroke-width="3" stroke-linecap="round" stroke-linejoin="round"/><path d="M559.16 648.712C562.474 624.084 543.419 611.506 517.736 602.92L525.343 569.404L505.007 564.734L497.551 598.099L481.132 594.635L488.739 560.742L468.403 556.449L460.796 589.814L447.616 587.028L419.749 580.776L414.703 602.242C414.703 602.242 429.766 605.33 429.389 605.556C430.896 605.706 432.327 606.083 433.607 606.836C434.887 607.514 436.017 608.493 436.996 609.623C437.9 610.753 438.578 612.108 438.955 613.539C439.331 614.97 439.406 616.477 439.256 617.908L430.368 655.641L418.017 708.965C417.791 709.944 417.339 710.773 416.736 711.601C416.134 712.355 415.38 713.032 414.552 713.484C413.724 713.936 412.744 714.238 411.765 714.313C410.786 714.388 409.807 714.313 408.903 714.012L393.991 710.547L384.501 733.82L410.861 739.92L425.398 743.385L417.791 777.278L438.126 781.797L445.733 749.184L461.926 753.026L454.319 786.541L474.655 791.211L482.488 757.469C517.133 763.419 542.967 760.256 553.436 728.774C555.545 724.33 556.75 719.434 556.9 714.539C557.051 709.568 556.147 704.672 554.34 700.078C552.457 695.484 549.67 691.341 546.13 687.877C542.59 684.412 538.372 681.776 533.703 680.044C540.707 678.537 546.959 674.696 551.553 669.198C556.147 663.7 558.783 656.846 559.009 649.691V648.787L559.16 648.712ZM513.669 714.463C507.945 739.92 465.315 727.041 451.532 723.878L461.776 678.989C475.558 682.077 520.146 688.027 513.669 714.388V714.463ZM518.79 649.089C513.367 672.06 477.893 661.139 466.445 658.503L476.161 617.23C487.684 620.544 524.74 625.138 519.167 649.089H518.79Z" fill="#003B2F"/><path d="M606.158 578.819C630.56 613.088 641.858 656.696 634.326 701.434C626.795 746.172 601.789 783.68 567.52 808.083C533.251 832.485 489.643 843.783 444.905 836.251C400.167 828.719 362.659 803.714 338.257 769.445C313.854 735.176 302.556 691.568 310.088 646.83C317.62 602.092 342.625 564.584 376.894 540.181C411.163 515.779 454.771 504.481 499.509 512.013C544.248 519.545 581.755 544.55 606.158 578.819ZM619.263 698.949C626.117 658.353 615.874 618.737 593.731 587.706C571.587 556.6 537.62 533.93 497.024 527.076C456.428 520.222 416.812 530.466 385.781 552.609C354.676 574.752 332.005 608.72 325.151 649.315C318.298 689.911 328.541 729.527 350.684 760.558C372.827 791.664 406.795 814.334 447.39 821.188C487.986 828.042 527.603 817.798 558.633 795.655C589.739 773.512 612.409 739.545 619.263 698.949Z" fill="#A9FEDE"/><mask id="mask1_1021_2" style="mask-type:luminance" maskUnits="userSpaceOnUse" x="307" y="509" width="330" height="330"><path d="M606.158 578.819C630.56 613.088 641.858 656.696 634.326 701.434C626.795 746.172 601.789 783.68 567.52 808.083C533.251 832.485 489.643 843.783 444.905 836.251C400.167 828.719 362.659 803.714 338.257 769.445C313.854 735.176 302.556 691.568 310.088 646.83C317.62 602.092 342.625 564.584 376.894 540.181C411.163 515.779 454.771 504.481 499.509 512.013C544.248 519.545 581.755 544.55 606.158 578.819ZM619.263 698.949C626.117 658.353 615.874 618.737 593.731 587.706C571.587 556.6 537.62 533.93 497.024 527.076C456.428 520.222 416.812 530.466 385.781 552.609C354.676 574.752 332.005 608.72 325.151 649.315C318.298 689.911 328.541 729.527 350.684 760.558C372.827 791.664 406.795 814.334 447.39 821.188C487.986 828.042 527.603 817.798 558.633 795.655C589.739 773.512 612.409 739.545 619.263 698.949Z" fill="white"/></mask><g mask="url(#mask1_1021_2)"><path d="M641.858 504.482H302.557V843.783H641.858V504.482Z" fill="#A9FEDE"/></g><path d="M145.672 880.313H295.326C298.861 880.313 301.728 877.446 301.728 873.911V851.994C301.728 848.458 298.861 845.592 295.326 845.592H145.672C142.136 845.592 139.27 848.458 139.27 851.994V873.911C139.27 877.446 142.136 880.313 145.672 880.313Z" fill="#03FC9D"/><path d="M183.104 845.666H160.358V880.387H183.104V845.666Z" fill="#A9FEDE"/><path d="M145.672 880.313H295.326C298.861 880.313 301.728 877.446 301.728 873.911V851.994C301.728 848.458 298.861 845.592 295.326 845.592H145.672C142.136 845.592 139.27 848.458 139.27 851.994V873.911C139.27 877.446 142.136 880.313 145.672 880.313Z" stroke="#003B2F" stroke-width="3" stroke-linecap="round" stroke-linejoin="round"/><path d="M220.612 873.684V852.896" stroke="#003B2F" stroke-width="3" stroke-linecap="round" stroke-linejoin="round"/><path d="M232.587 873.684V852.896" stroke="#003B2F" stroke-width="3" stroke-linecap="round" stroke-linejoin="round"/><path d="M244.487 873.684V852.896" stroke="#003B2F" stroke-width="3" stroke-linecap="round" stroke-linejoin="round"/><path d="M256.462 873.684V852.896" stroke="#003B2F" stroke-width="3" stroke-linecap="round" stroke-linejoin="round"/><path d="M268.363 873.684V852.896" stroke="#003B2F" stroke-width="3" stroke-linecap="round" stroke-linejoin="round"/><path d="M161.564 843.934H311.218C314.754 843.934 317.62 841.068 317.62 837.532V815.615C317.62 812.079 314.754 809.213 311.218 809.213H161.564C158.028 809.213 155.162 812.079 155.162 815.615V837.532C155.162 841.068 158.028 843.934 161.564 843.934Z" fill="#03FC9D"/><path d="M199.071 809.212H176.326V843.933H199.071V809.212Z" fill="#A9FEDE"/><path d="M161.564 843.934H311.218C314.754 843.934 317.62 841.068 317.62 837.532V815.615C317.62 812.079 314.754 809.213 311.218 809.213H161.564C158.028 809.213 155.162 812.079 155.162 815.615V837.532C155.162 841.068 158.028 843.934 161.564 843.934Z" stroke="#003B2F" stroke-width="3" stroke-linecap="round" stroke-linejoin="round"/><path d="M236.579 837.23V816.443" stroke="#003B2F" stroke-width="3" stroke-linecap="round" stroke-linejoin="round"/><path d="M248.479 837.23V816.443" stroke="#003B2F" stroke-width="3" stroke-linecap="round" stroke-linejoin="round"/><path d="M260.454 837.23V816.443" stroke="#003B2F" stroke-width="3" stroke-linecap="round" stroke-linejoin="round"/><path d="M272.355 837.23V816.443" stroke="#003B2F" stroke-width="3" stroke-linecap="round" stroke-linejoin="round"/><path d="M284.33 837.23V816.443" stroke="#003B2F" stroke-width="3" stroke-linecap="round" stroke-linejoin="round"/><path d="M130.534 811.623H280.188C283.723 811.623 286.59 808.756 286.59 805.221V783.304C286.59 779.768 283.723 776.902 280.188 776.902H130.534C126.998 776.902 124.132 779.768 124.132 783.304V805.221C124.132 808.756 126.998 811.623 130.534 811.623Z" fill="#03FC9D"/><path d="M167.966 776.901H145.22V811.622H167.966V776.901Z" fill="#A9FEDE"/><path d="M130.534 811.623H280.188C283.723 811.623 286.59 808.756 286.59 805.221V783.304C286.59 779.768 283.723 776.902 280.188 776.902H130.534C126.998 776.902 124.132 779.768 124.132 783.304V805.221C124.132 808.756 126.998 811.623 130.534 811.623Z" stroke="#003B2F" stroke-width="3" stroke-linecap="round" stroke-linejoin="round"/><path d="M205.473 804.919V784.131" stroke="#003B2F" stroke-width="3" stroke-linecap="round" stroke-linejoin="round"/><path d="M217.449 804.919V784.131" stroke="#003B2F" stroke-width="3" stroke-linecap="round" stroke-linejoin="round"/><path d="M229.349 804.919V784.131" stroke="#003B2F" stroke-width="3" stroke-linecap="round" stroke-linejoin="round"/><path d="M241.324 804.919V784.131" stroke="#003B2F" stroke-width="3" stroke-linecap="round" stroke-linejoin="round"/><path d="M253.224 804.919V784.131" stroke="#003B2F" stroke-width="3" stroke-linecap="round" stroke-linejoin="round"/><path d="M150.869 776.601H300.523C304.058 776.601 306.925 773.735 306.925 770.199V748.282C306.925 744.747 304.058 741.88 300.523 741.88H150.869C147.333 741.88 144.467 744.747 144.467 748.282V770.199C144.467 773.735 147.333 776.601 150.869 776.601Z" fill="#03FC9D"/><path d="M188.225 741.804H165.48V776.525H188.225V741.804Z" fill="#A9FEDE"/><path d="M150.869 776.601H300.523C304.058 776.601 306.925 773.735 306.925 770.199V748.282C306.925 744.747 304.058 741.88 300.523 741.88H150.869C147.333 741.88 144.467 744.747 144.467 748.282V770.199C144.467 773.735 147.333 776.601 150.869 776.601Z" stroke="#003B2F" stroke-width="3" stroke-linecap="round" stroke-linejoin="round"/><path d="M225.808 769.897V749.034" stroke="#003B2F" stroke-width="3" stroke-linecap="round" stroke-linejoin="round"/><path d="M237.709 769.897V749.034" stroke="#003B2F" stroke-width="3" stroke-linecap="round" stroke-linejoin="round"/><path d="M249.684 769.897V749.034" stroke="#003B2F" stroke-width="3" stroke-linecap="round" stroke-linejoin="round"/><path d="M261.584 769.897V749.034" stroke="#003B2F" stroke-width="3" stroke-linecap="round" stroke-linejoin="round"/><path d="M273.484 769.897V749.034" stroke="#003B2F" stroke-width="3" stroke-linecap="round" stroke-linejoin="round"/><path d="M116.072 742.86H265.727C269.262 742.86 272.128 739.993 272.128 736.458V714.541C272.128 711.005 269.262 708.139 265.727 708.139H116.072C112.537 708.139 109.67 711.005 109.67 714.541V736.458C109.67 739.993 112.537 742.86 116.072 742.86Z" fill="#03FC9D"/><path d="M153.58 708.138H130.834V742.859H153.58V708.138Z" fill="#A9FEDE"/><path d="M116.072 742.86H265.727C269.262 742.86 272.128 739.993 272.128 736.458V714.541C272.128 711.005 269.262 708.139 265.727 708.139H116.072C112.537 708.139 109.67 711.005 109.67 714.541V736.458C109.67 739.993 112.537 742.86 116.072 742.86Z" stroke="#003B2F" stroke-width="3" stroke-linecap="round" stroke-linejoin="round"/><path d="M191.088 736.155V715.368" stroke="#003B2F" stroke-width="3" stroke-linecap="round" stroke-linejoin="round"/><path d="M202.988 736.156V715.368" stroke="#003B2F" stroke-width="3" stroke-linecap="round" stroke-linejoin="round"/><path d="M214.963 736.156V715.368" stroke="#003B2F" stroke-width="3" stroke-linecap="round" stroke-linejoin="round"/><path d="M226.863 736.156V715.368" stroke="#003B2F" stroke-width="3" stroke-linecap="round" stroke-linejoin="round"/><path d="M238.839 736.156V715.368" stroke="#003B2F" stroke-width="3" stroke-linecap="round" stroke-linejoin="round"/><path d="M145.145 707.235H294.799C298.335 707.235 301.201 704.369 301.201 700.833V678.916C301.201 675.38 298.335 672.514 294.799 672.514H145.145C141.609 672.514 138.743 675.38 138.743 678.916V700.833C138.743 704.369 141.609 707.235 145.145 707.235Z" fill="#03FC9D"/><path d="M182.577 672.513H159.832V707.234H182.577V672.513Z" fill="#A9FEDE"/><path d="M145.145 707.235H294.799C298.335 707.235 301.201 704.369 301.201 700.833V678.916C301.201 675.38 298.335 672.514 294.799 672.514H145.145C141.609 672.514 138.743 675.38 138.743 678.916V700.833C138.743 704.369 141.609 707.235 145.145 707.235Z" stroke="#003B2F" stroke-width="3" stroke-linecap="round" stroke-linejoin="round"/><path d="M220.085 700.531V679.743" stroke="#003B2F" stroke-width="3" stroke-linecap="round" stroke-linejoin="round"/><path d="M232.06 700.531V679.743" stroke="#003B2F" stroke-width="3" stroke-linecap="round" stroke-linejoin="round"/><path d="M243.96 700.531V679.743" stroke="#003B2F" stroke-width="3" stroke-linecap="round" stroke-linejoin="round"/><path d="M255.936 700.531V679.743" stroke="#003B2F" stroke-width="3" stroke-linecap="round" stroke-linejoin="round"/><path d="M267.836 700.531V679.743" stroke="#003B2F" stroke-width="3" stroke-linecap="round" stroke-linejoin="round"/><path d="M132.718 674.17H282.372C285.907 674.17 288.774 671.304 288.774 667.768V645.851C288.774 642.315 285.907 639.449 282.372 639.449H132.718C129.182 639.449 126.316 642.315 126.316 645.851V667.768C126.316 671.304 129.182 674.17 132.718 674.17Z" fill="#03FC9D"/><path d="M170.074 639.373H147.329V674.094H170.074V639.373Z" fill="#A9FEDE"/><path d="M132.718 674.17H282.372C285.907 674.17 288.774 671.304 288.774 667.768V645.851C288.774 642.315 285.907 639.449 282.372 639.449H132.718C129.182 639.449 126.316 642.315 126.316 645.851V667.768C126.316 671.304 129.182 674.17 132.718 674.17Z" stroke="#003B2F" stroke-width="3" stroke-linecap="round" stroke-linejoin="round"/><path d="M207.657 667.466V646.603" stroke="#003B2F" stroke-width="3" stroke-linecap="round" stroke-linejoin="round"/><path d="M219.558 667.466V646.603" stroke="#003B2F" stroke-width="3" stroke-linecap="round" stroke-linejoin="round"/><path d="M231.533 667.466V646.603" stroke="#003B2F" stroke-width="3" stroke-linecap="round" stroke-linejoin="round"/><path d="M243.433 667.466V646.603" stroke="#003B2F" stroke-width="3" stroke-linecap="round" stroke-linejoin="round"/><path d="M255.333 667.466V646.603" stroke="#003B2F" stroke-width="3" stroke-linecap="round" stroke-linejoin="round"/><path d="M273.936 880.689H423.59C427.126 880.689 429.992 877.823 429.992 874.287V852.37C429.992 848.835 427.126 845.968 423.59 845.968H273.936C270.4 845.968 267.534 848.835 267.534 852.37V874.287C267.534 877.823 270.4 880.689 273.936 880.689Z" fill="#03FC9D"/><path d="M311.444 845.892H288.698V880.613H311.444V845.892Z" fill="#A9FEDE"/><path d="M273.936 880.689H423.59C427.126 880.689 429.992 877.823 429.992 874.287V852.37C429.992 848.835 427.126 845.968 423.59 845.968H273.936C270.4 845.968 267.534 848.835 267.534 852.37V874.287C267.534 877.823 270.4 880.689 273.936 880.689Z" stroke="#003B2F" stroke-width="3" stroke-linecap="round" stroke-linejoin="round"/><path d="M348.951 873.985V853.122" stroke="#003B2F" stroke-width="3" stroke-linecap="round" stroke-linejoin="round"/><path d="M360.852 873.985V853.122" stroke="#003B2F" stroke-width="3" stroke-linecap="round" stroke-linejoin="round"/><path d="M372.827 873.985V853.122" stroke="#003B2F" stroke-width="3" stroke-linecap="round" stroke-linejoin="round"/><path d="M384.727 873.985V853.122" stroke="#003B2F" stroke-width="3" stroke-linecap="round" stroke-linejoin="round"/><path d="M396.702 873.985V853.122" stroke="#003B2F" stroke-width="3" stroke-linecap="round" stroke-linejoin="round"/><path d="M297.661 846.269H447.315C450.851 846.269 453.717 843.403 453.717 839.867V817.95C453.717 814.415 450.851 811.548 447.315 811.548H297.661C294.125 811.548 291.259 814.415 291.259 817.95V839.867C291.259 843.403 294.125 846.269 297.661 846.269Z" fill="#03FC9D"/><path d="M335.093 811.472H312.348V846.193H335.093V811.472Z" fill="#A9FEDE"/><path d="M297.661 846.269H447.315C450.851 846.269 453.717 843.403 453.717 839.867V817.95C453.717 814.415 450.851 811.548 447.315 811.548H297.661C294.125 811.548 291.259 814.415 291.259 817.95V839.867C291.259 843.403 294.125 846.269 297.661 846.269Z" stroke="#003B2F" stroke-width="3" stroke-linecap="round" stroke-linejoin="round"/><path d="M372.601 839.565V818.702" stroke="#003B2F" stroke-width="3" stroke-linecap="round" stroke-linejoin="round"/><path d="M384.577 839.565V818.702" stroke="#003B2F" stroke-width="3" stroke-linecap="round" stroke-linejoin="round"/><path d="M396.476 839.565V818.702" stroke="#003B2F" stroke-width="3" stroke-linecap="round" stroke-linejoin="round"/><path d="M408.452 839.565V818.702" stroke="#003B2F" stroke-width="3" stroke-linecap="round" stroke-linejoin="round"/><path d="M420.352 839.565V818.702" stroke="#003B2F" stroke-width="3" stroke-linecap="round" stroke-linejoin="round"/><path d="M270.698 811.925H420.352C423.887 811.925 426.754 809.058 426.754 805.523V783.605C426.754 780.07 423.887 777.204 420.352 777.204H270.698C267.162 777.204 264.296 780.07 264.296 783.605V805.523C264.296 809.058 267.162 811.925 270.698 811.925Z" fill="#03FC9D"/><path d="M308.13 777.127H285.384V811.848H308.13V777.127Z" fill="#A9FEDE"/><path d="M270.698 811.925H420.352C423.887 811.925 426.754 809.058 426.754 805.523V783.605C426.754 780.07 423.887 777.204 420.352 777.204H270.698C267.162 777.204 264.296 780.07 264.296 783.605V805.523C264.296 809.058 267.162 811.925 270.698 811.925Z" stroke="#003B2F" stroke-width="3" stroke-linecap="round" stroke-linejoin="round"/><path d="M345.638 805.22V784.358" stroke="#003B2F" stroke-width="3" stroke-linecap="round" stroke-linejoin="round"/><path d="M357.613 805.22V784.358" stroke="#003B2F" stroke-width="3" stroke-linecap="round" stroke-linejoin="round"/><path d="M369.513 805.22V784.358" stroke="#003B2F" stroke-width="3" stroke-linecap="round" stroke-linejoin="round"/><path d="M381.413 805.22V784.358" stroke="#003B2F" stroke-width="3" stroke-linecap="round" stroke-linejoin="round"/><path d="M393.388 805.22V784.358" stroke="#003B2F" stroke-width="3" stroke-linecap="round" stroke-linejoin="round"/><path d="M280.413 776.828H430.067C433.603 776.828 436.469 773.961 436.469 770.426V748.509C436.469 744.973 433.603 742.107 430.067 742.107H280.413C276.878 742.107 274.011 744.973 274.011 748.509V770.426C274.011 773.961 276.878 776.828 280.413 776.828Z" fill="#03FC9D"/><path d="M317.921 742.106H295.175V776.827H317.921V742.106Z" fill="#A9FEDE"/><path d="M280.413 776.828H430.067C433.603 776.828 436.469 773.961 436.469 770.426V748.509C436.469 744.973 433.603 742.107 430.067 742.107H280.413C276.878 742.107 274.011 744.973 274.011 748.509V770.426C274.011 773.961 276.878 776.828 280.413 776.828Z" stroke="#003B2F" stroke-width="3" stroke-linecap="round" stroke-linejoin="round"/><path d="M355.429 770.123V749.336" stroke="#003B2F" stroke-width="3" stroke-linecap="round" stroke-linejoin="round"/><path d="M367.329 770.123V749.336" stroke="#003B2F" stroke-width="3" stroke-linecap="round" stroke-linejoin="round"/><path d="M379.304 770.123V749.336" stroke="#003B2F" stroke-width="3" stroke-linecap="round" stroke-linejoin="round"/><path d="M391.204 770.123V749.336" stroke="#003B2F" stroke-width="3" stroke-linecap="round" stroke-linejoin="round"/><path d="M403.18 770.123V749.336" stroke="#003B2F" stroke-width="3" stroke-linecap="round" stroke-linejoin="round"/><path d="M246.596 742.031H396.25C399.786 742.031 402.652 739.164 402.652 735.629V713.712C402.652 710.176 399.786 707.31 396.25 707.31H246.596C243.061 707.31 240.194 710.176 240.194 713.712V735.629C240.194 739.164 243.061 742.031 246.596 742.031Z" fill="#03FC9D"/><path d="M284.028 707.309H261.283V742.03H284.028V707.309Z" fill="#A9FEDE"/><path d="M246.596 742.031H396.25C399.786 742.031 402.652 739.164 402.652 735.629V713.712C402.652 710.176 399.786 707.31 396.25 707.31H246.596C243.061 707.31 240.194 710.176 240.194 713.712V735.629C240.194 739.164 243.061 742.031 246.596 742.031Z" stroke="#003B2F" stroke-width="3" stroke-linecap="round" stroke-linejoin="round"/><path d="M321.536 735.326V714.539" stroke="#003B2F" stroke-width="3" stroke-linecap="round" stroke-linejoin="round"/><path d="M333.512 735.326V714.539" stroke="#003B2F" stroke-width="3" stroke-linecap="round" stroke-linejoin="round"/><path d="M345.411 735.326V714.539" stroke="#003B2F" stroke-width="3" stroke-linecap="round" stroke-linejoin="round"/><path d="M357.387 735.326V714.539" stroke="#003B2F" stroke-width="3" stroke-linecap="round" stroke-linejoin="round"/><path d="M369.287 735.326V714.539" stroke="#003B2F" stroke-width="3" stroke-linecap="round" stroke-linejoin="round"/><path d="M628.602 808.083H585.822V839.49H628.602V808.083Z" fill="#03FC9D"/><path d="M585.822 808.083H542.515V839.49H585.822V808.083Z" fill="#03FC9D"/><path d="M628.451 842.502H585.672V873.909H628.451V842.502Z" fill="#03FC9D"/><path d="M585.671 842.502H542.364V873.909H585.671V842.502Z" fill="#03FC9D"/><path d="M628.451 773.738H585.672V805.145H628.451V773.738Z" fill="#03FC9D"/><path fill-rule="evenodd" clip-rule="evenodd" d="M518.941 796.408C519.544 795.881 522.481 795.052 522.556 795.052C525.192 801.002 570.759 840.694 574.073 842.351L620.995 819.605L624.158 816.442C624.836 815.689 625.966 814.032 626.418 813.279C632.97 803.186 655.339 770.424 657.524 764.624C649.389 763.118 620.091 760.105 613.087 758.147C613.087 758.147 608.342 751.594 607.438 751.293C597.27 748.13 584.316 745.494 578.968 744.515C575.353 749.486 567.52 772.758 562.625 775.319C555.47 779.01 547.637 781.721 540.03 785.11L523.083 792.341C518.263 794.826 520.824 791.512 518.866 796.408" fill="#426159"/><path fill-rule="evenodd" clip-rule="evenodd" d="M574.073 842.353L565.788 855.232C558.859 865.776 534.08 870.22 530.841 880.689H661.139C689.232 880.689 677.558 882.044 697.517 862.839C701.885 858.621 707.459 853.801 710.999 849.432L700.228 829.172C695.408 828.193 693.299 830.603 689.081 833.013C679.14 838.662 666.562 847.399 657.147 846.872C645.172 846.194 639.975 847.248 634.477 838.06C631.615 833.239 625.213 821.64 620.995 819.607L574.073 842.353Z" fill="#00261E"/><path fill-rule="evenodd" clip-rule="evenodd" d="M620.995 819.607C625.288 821.64 631.615 833.239 634.477 838.059C639.975 847.248 645.172 846.193 657.147 846.871C666.486 847.398 679.139 838.662 689.081 833.013C693.299 830.603 695.483 828.193 700.228 829.172C699.174 819.832 701.885 808.912 701.057 802.058C700.454 797.313 691.717 791.89 687.951 788.802C682.453 784.208 662.193 766.734 657.524 764.701C652.703 768.467 632.97 803.263 626.418 813.355C625.966 814.108 624.836 815.765 624.158 816.519L620.995 819.682V819.607Z" fill="#426159"/><path fill-rule="evenodd" clip-rule="evenodd" d="M741.125 880.461C744.514 878.277 747.15 872.93 749.711 869.239C752.347 865.473 757.695 859.523 755.435 854.703C755.134 854.477 754.682 853.649 754.607 853.875L752.95 852.218C752.95 852.218 752.422 851.69 752.197 851.389C751.293 850.41 750.54 849.356 749.711 848.226C747.828 845.816 746.247 843.782 744.213 841.221C739.995 835.874 738.715 831.656 731.635 829.171C724.329 826.61 699.701 816.819 692.696 816.216C688.705 825.782 679.139 842.954 673.867 852.142C669.499 859.674 660.762 880.461 654.134 880.311H741.125V880.461Z" fill="#00261E"/><path fill-rule="evenodd" clip-rule="evenodd" d="M518.941 796.409L494.237 835.875C501.995 841.072 522.707 877.149 530.841 880.613C534.155 870.144 558.859 865.701 565.788 855.156L574.073 842.277C570.759 840.62 525.117 800.928 522.556 794.978C522.481 794.978 519.543 795.807 518.941 796.334" fill="#003B2F"/><path fill-rule="evenodd" clip-rule="evenodd" d="M657.674 878.277C664.076 878.428 672.512 858.394 676.729 851.088C681.851 842.201 690.437 829.02 694.278 819.756C701.057 820.284 725.459 827.665 732.464 830.15C739.242 832.56 740.523 836.627 744.59 841.749C746.548 844.234 748.054 846.192 749.862 848.527C750.69 849.582 751.444 850.561 752.272 851.54C752.498 851.766 752.799 852.067 752.95 852.293L754.531 853.875C754.531 853.875 755.059 854.402 755.36 854.703L742.18 821.187C738.866 817.572 731.861 818.853 730.129 817.045C728.02 811.622 726.589 803.337 724.028 797.387C722.296 793.32 713.785 787.144 710.095 787.747C707.534 788.123 695.483 793.772 691.943 795.052C684.788 797.613 681.474 798.592 678.838 807.254C675.223 819.229 680.495 817.497 672.361 826.384C658.352 841.749 649.615 856.963 655.942 880.386C657.674 880.085 657.75 880.462 657.674 878.353" fill="#426159"/><path fill-rule="evenodd" clip-rule="evenodd" d="M622.727 729C617.455 727.042 617.681 724.331 612.785 723.653C610.902 725.762 605.63 732.54 604.501 736.08C607.664 739.244 608.417 739.093 611.731 741.804C605.329 750.767 590.04 789.856 596.592 812.602C600.584 796.183 610.451 758.299 624.685 757.922C634.401 758.751 643.816 762.064 655.942 770.5C683.809 789.63 804.843 872.328 827.212 886.412L833.011 878.73L663.925 759.504C653.306 751.897 637.565 740.9 639.146 730.13C641.556 714.088 668.444 693.828 677.558 689.007C657.298 689.986 632.669 713.561 622.652 729" fill="#00261E"/><mask id="mask2_1021_2" style="mask-type:luminance" maskUnits="userSpaceOnUse" x="594" y="689" width="240" height="198"><path d="M622.727 729C617.455 727.042 617.681 724.331 612.785 723.653C610.902 725.762 605.63 732.54 604.501 736.08C607.664 739.244 608.417 739.093 611.731 741.804C605.329 750.767 590.04 789.856 596.592 812.602C600.584 796.183 610.451 758.299 624.685 757.922C634.401 758.751 643.816 762.064 655.942 770.5C683.809 789.63 804.843 872.328 827.212 886.412L833.011 878.73L663.925 759.504C653.306 751.897 637.565 740.9 639.146 730.13C641.556 714.088 668.444 693.828 677.558 689.007C657.298 689.986 632.669 713.561 622.652 729" fill="white"/></mask><g mask="url(#mask2_1021_2)"><path d="M760.386 656.342L566.224 719.767L640.593 947.435L834.756 884.01L760.386 656.342Z" fill="#00261E"/></g><path fill-rule="evenodd" clip-rule="evenodd" d="M434.737 862.687C435.038 865.85 441.214 876.394 443.926 880.01C450.026 885.658 505.761 881.064 532.875 880.16C535.661 877.223 542.591 852.444 543.72 846.795C532.95 836.853 505.685 811.019 497.852 806.952L503.275 826.761C494.765 831.204 481.433 841.975 472.546 848.301C458.989 857.866 458.01 862.461 434.813 862.762" fill="#00261E"/><path fill-rule="evenodd" clip-rule="evenodd" d="M434.737 862.687C457.859 862.385 458.914 857.791 472.471 848.226C481.433 841.899 494.765 831.204 503.2 826.685L499.434 809.814C498.003 806.576 497.476 806.35 496.422 806.877C462.529 823.899 463.885 816.894 450.026 838.284C444.453 846.343 438.126 853.122 434.737 862.611" fill="#426159"/><path fill-rule="evenodd" clip-rule="evenodd" d="M446.411 874.362C446.336 875.643 444.604 878.203 443.625 879.634C439.783 884.756 418.544 881.593 407.925 881.216C406.795 880.086 404.083 870.37 403.707 868.111C408.527 864.646 418.017 855.232 421.03 853.65L419.599 860.278C422.913 862.01 428.185 866.228 431.649 868.713C436.997 872.479 437.373 874.287 446.487 874.362" fill="#00261E"/><path fill-rule="evenodd" clip-rule="evenodd" d="M446.411 874.361C437.298 874.21 436.921 872.478 431.574 868.712C428.034 866.227 422.837 862.009 419.523 860.277L420.954 853.649C421.557 852.369 419.975 853.047 422.159 852.519C439.934 863.666 426.226 844.31 440.386 864.871C442.57 868.035 445.056 870.746 446.411 874.436" fill="#426159"/><path d="M753.123 535.333L777.314 549.274" stroke="#003B2F" stroke-width="3.16306" stroke-linecap="round" stroke-linejoin="round"/><path d="M801.505 535.334L787.359 543.534" stroke="#003B2F" stroke-width="3.16306" stroke-linecap="round" stroke-linejoin="round"/><path d="M777.313 549.274V577.565" stroke="#003B2F" stroke-width="3.16306" stroke-linecap="round" stroke-linejoin="round"/><path d="M198.683 418.31H266.336" stroke="#003B2F" stroke-width="3.16306" stroke-linecap="round" stroke-linejoin="round"/><path d="M147.329 418.31H164.344" stroke="#003B2F" stroke-width="3.16306" stroke-linecap="round" stroke-linejoin="round"/><path d="M208.523 371.774H383.805" stroke="#03FC9D" stroke-width="3.16306" stroke-linecap="round" stroke-linejoin="round"/><path d="M780.309 232.24H743.426C755.041 232.24 764.622 222.779 764.622 211.044C764.622 199.308 755.161 189.848 743.426 189.848H637.446C625.83 189.848 616.25 199.308 616.25 211.044H583.678C572.062 211.044 562.482 220.504 562.482 232.24C562.482 243.975 571.942 253.436 583.678 253.436H653.133C653.133 265.052 662.594 274.632 674.329 274.632H780.309C791.925 274.632 801.505 265.171 801.505 253.436C801.505 241.7 792.045 232.24 780.309 232.24Z" fill="#03FC9D"/><path d="M511.185 319.296H695.482C715.786 319.296 732.246 302.837 732.246 282.533C732.246 262.229 715.786 245.769 695.482 245.769L511.185 245.769C490.881 245.769 474.422 262.229 474.422 282.533C474.422 302.837 490.881 319.296 511.185 319.296Z" fill="#E6E8EA"/><path d="M372.827 249.561C382.393 249.561 390.147 241.806 390.147 232.24C390.147 222.674 382.393 214.919 372.827 214.919C363.261 214.919 355.506 222.674 355.506 232.24C355.506 241.806 363.261 249.561 372.827 249.561Z" stroke="#003B2F" stroke-width="3" stroke-linecap="round" stroke-linejoin="round"/><path d="M156.593 560.534L135.779 539.72L114.965 560.534L135.779 581.348L156.593 560.534Z" stroke="#003B2F" stroke-width="3" stroke-linecap="round" stroke-linejoin="round"/><path d="M1744.86 273.939H1716.4C1725.41 273.939 1732.69 267.491 1732.69 259.542C1732.69 251.594 1725.41 245.146 1716.4 245.146H1634.63C1625.63 245.146 1618.35 251.594 1618.35 259.542H1593.22C1584.22 259.542 1576.94 265.99 1576.94 273.939C1576.94 281.888 1584.22 288.336 1593.22 288.336H1646.81C1646.81 296.285 1654.09 302.733 1663.09 302.733H1744.86C1753.87 302.733 1761.15 296.285 1761.15 288.336C1761.15 280.387 1753.87 273.939 1744.86 273.939Z" fill="#E6E8EA"/><path d="M1645.92 263.656H1666.32" stroke="#003B2F" stroke-width="3.16306" stroke-linecap="round" stroke-linejoin="round"/><path d="M1692.67 232.25H1840.41" stroke="#03FC9D" stroke-width="3.16306" stroke-linecap="round" stroke-linejoin="round"/><path d="M1692.67 263.545H1775.27" stroke="#003B2F" stroke-width="3.16306" stroke-linecap="round" stroke-linejoin="round"/><path d="M1139.58 310.552L1163.77 324.492" stroke="#003B2F" stroke-width="3.16306" stroke-linecap="round" stroke-linejoin="round"/><path d="M1187.96 310.552L1173.82 318.752" stroke="#003B2F" stroke-width="3.16306" stroke-linecap="round" stroke-linejoin="round"/><path d="M1163.77 324.492V352.783" stroke="#003B2F" stroke-width="3.16306" stroke-linecap="round" stroke-linejoin="round"/><path d="M1756.61 591.125V615.213" stroke="#003B2F" stroke-width="3.16306" stroke-linecap="round" stroke-linejoin="round"/><path d="M1756.61 632.844V657.034" stroke="#003B2F" stroke-width="3.16306" stroke-linecap="round" stroke-linejoin="round"/><path d="M1723.61 624.028H1747.8" stroke="#003B2F" stroke-width="3.16306" stroke-linecap="round" stroke-linejoin="round"/><path d="M1765.43 624.028H1789.52" stroke="#003B2F" stroke-width="3.16306" stroke-linecap="round" stroke-linejoin="round"/><path d="M1151.67 236.179L1270.68 236.179" stroke="#003B2F" stroke-width="3.16306" stroke-linecap="round" stroke-linejoin="round"/><path d="M1212.87 189.643H1388.15" stroke="#03FC9D" stroke-width="3.16306" stroke-linecap="round" stroke-linejoin="round"/></g><defs><clipPath id="clip0_1021_2"><rect width="1920" height="1080" fill="white"/></clipPath></defs></svg>