<svg width="1920" height="1080" viewBox="0 0 1920 1080" fill="none" xmlns="http://www.w3.org/2000/svg"><path d="M1174.17 421.244L1389.09 282.98C1414.88 266.335 1444.55 256.56 1475.19 254.446C1511.2 251.98 1547.21 260.347 1578.47 278.4L1834.68 426.264" stroke="#8F9F99" stroke-width="3" stroke-linecap="round" stroke-linejoin="round" stroke-dasharray="20 20"/><path d="M818.028 427.849L561.73 279.985C530.474 261.932 494.552 253.742 458.63 256.472C429.223 258.673 400.785 268.096 375.868 283.948L85.3208 468.272" stroke="#8F9F99" stroke-width="3" stroke-linecap="round" stroke-linejoin="round" stroke-dasharray="20 20"/><path d="M1654.01 540.134H1611.57C1624.96 540.134 1635.87 529.214 1635.87 515.828C1635.87 502.442 1624.96 491.521 1611.57 491.521H1489.81C1476.43 491.521 1465.51 502.442 1465.51 515.828H1428.18C1414.79 515.828 1403.88 526.748 1403.88 540.134C1403.88 553.52 1414.79 564.441 1428.18 564.441H1507.95C1507.95 577.827 1518.86 588.747 1532.25 588.747H1654.01C1667.39 588.747 1678.31 577.827 1678.31 564.441C1678.31 551.054 1667.39 540.134 1654.01 540.134Z" fill="#E6E8EA"/><path d="M1579.97 522.873H1610.43" stroke="#003B2F" stroke-width="3" stroke-linecap="round" stroke-linejoin="round"/><path d="M1452.83 454.709H1672.85" stroke="#03FC9D" stroke-width="3" stroke-linecap="round" stroke-linejoin="round"/><path d="M1649.61 522.696H1711.15" stroke="#003B2F" stroke-width="3" stroke-linecap="round" stroke-linejoin="round"/><path d="M623.273 606.8H684.728" stroke="#003B2F" stroke-width="3" stroke-linecap="round" stroke-linejoin="round"/><path d="M576.521 606.8H592.017" stroke="#003B2F" stroke-width="3" stroke-linecap="round" stroke-linejoin="round"/><path d="M1313.37 162.262H1452.83" stroke="#003B2F" stroke-width="3" stroke-linecap="round" stroke-linejoin="round"/><path d="M1108.31 134.874H1327.28" stroke="#03FC9D" stroke-width="3" stroke-linecap="round" stroke-linejoin="round"/><path d="M938.737 860.784H969.113" stroke="#003B2F" stroke-width="3" stroke-linecap="round" stroke-linejoin="round"/><path d="M811.601 792.62H1031.54" stroke="#03FC9D" stroke-width="3" stroke-linecap="round" stroke-linejoin="round"/><path d="M1008.38 860.607H1131.38" stroke="#003B2F" stroke-width="3" stroke-linecap="round" stroke-linejoin="round"/><path d="M164.737 228.202H287.207" stroke="#003B2F" stroke-width="3" stroke-linecap="round" stroke-linejoin="round"/><path d="M603.375 112.659L617.902 127.19" stroke="#003B2F" stroke-width="3" stroke-linecap="round" stroke-linejoin="round"/><path d="M628.556 137.846L643.083 152.289" stroke="#003B2F" stroke-width="3" stroke-linecap="round" stroke-linejoin="round"/><path d="M603.375 152.289L617.902 137.846" stroke="#003B2F" stroke-width="3" stroke-linecap="round" stroke-linejoin="round"/><path d="M628.556 127.19L643.083 112.659" stroke="#003B2F" stroke-width="3" stroke-linecap="round" stroke-linejoin="round"/><path d="M1308.96 434.982L1323.4 449.425" stroke="#003B2F" stroke-width="3" stroke-linecap="round" stroke-linejoin="round"/><path d="M1333.97 459.993L1348.5 474.436" stroke="#003B2F" stroke-width="3" stroke-linecap="round" stroke-linejoin="round"/><path d="M1308.96 474.436L1323.4 459.993" stroke="#003B2F" stroke-width="3" stroke-linecap="round" stroke-linejoin="round"/><path d="M1333.97 449.425L1348.5 434.982" stroke="#003B2F" stroke-width="3" stroke-linecap="round" stroke-linejoin="round"/><path d="M1138.69 786.545L1157.09 775.889" stroke="#003B2F" stroke-width="3" stroke-linecap="round" stroke-linejoin="round"/><path d="M1175.4 786.545L1164.66 780.292" stroke="#003B2F" stroke-width="3" stroke-linecap="round" stroke-linejoin="round"/><path d="M1157.09 775.888V754.488" stroke="#003B2F" stroke-width="3" stroke-linecap="round" stroke-linejoin="round"/><path d="M265.284 603.189H394.005C408.204 603.189 419.714 591.696 419.714 577.518C419.714 563.34 408.204 551.846 394.005 551.846H265.284C251.085 551.846 239.575 563.34 239.575 577.518C239.575 591.696 251.085 603.189 265.284 603.189Z" fill="#03FC9D"/><path d="M335.191 563.824H545.97C569.213 563.824 588.055 544.997 588.055 521.772C588.055 498.547 569.213 479.72 545.97 479.72H335.191C311.948 479.72 293.106 498.547 293.106 521.772C293.106 544.997 311.948 563.824 335.191 563.824Z" fill="#03FC9D"/><path d="M295.659 558.54C305.822 558.54 314.06 550.299 314.06 540.134C314.06 529.968 305.822 521.728 295.659 521.728C285.496 521.728 277.258 529.968 277.258 540.134C277.258 550.299 285.496 558.54 295.659 558.54Z" stroke="#003B2F" stroke-width="3" stroke-linecap="round" stroke-linejoin="round"/><path d="M847.963 702.264C853.02 702.264 857.119 698.164 857.119 693.105C857.119 688.047 853.02 683.947 847.963 683.947C842.906 683.947 838.806 688.047 838.806 693.105C838.806 698.164 842.906 702.264 847.963 702.264Z" stroke="#003B2F" stroke-width="3" stroke-linecap="round" stroke-linejoin="round"/><path d="M1178.75 354.314C1183.8 354.314 1187.9 350.213 1187.9 345.155C1187.9 340.096 1183.8 335.996 1178.75 335.996C1173.69 335.996 1169.59 340.096 1169.59 345.155C1169.59 350.213 1173.69 354.314 1178.75 354.314Z" stroke="#003B2F" stroke-width="3" stroke-linecap="round" stroke-linejoin="round"/><path d="M1286.07 528.773V540.662L992.796 711.159L992.884 699.182L1286.07 528.773Z" fill="#E6E8EA" stroke="#003B2F" stroke-width="3" stroke-linecap="round" stroke-linejoin="round"/><path d="M992.884 699.182L992.796 711.159L705.683 545.33L705.771 533.353L992.884 699.182Z" fill="#E6E8EA" stroke="#003B2F" stroke-width="3" stroke-linecap="round" stroke-linejoin="round"/><path d="M1286.07 528.773L992.884 699.181L705.771 533.352L998.959 362.943L1286.07 528.773Z" fill="white" stroke="#003B2F" stroke-width="3" stroke-linecap="round" stroke-linejoin="round"/><path d="M1263.53 517.677L1263.45 529.566L992.709 686.941L992.797 675.052L1263.53 517.677Z" fill="#E6E8EA" stroke="#003B2F" stroke-width="3" stroke-linecap="round" stroke-linejoin="round"/><path d="M992.796 675.052L992.708 686.941L728.31 534.234L728.398 522.257L992.796 675.052Z" fill="#E6E8EA" stroke="#003B2F" stroke-width="3" stroke-linecap="round" stroke-linejoin="round"/><path d="M1263.53 517.677L992.796 675.052L728.398 522.257L999.048 364.882L1263.53 517.677Z" fill="white" stroke="#003B2F" stroke-width="3" stroke-linecap="round" stroke-linejoin="round"/><path d="M1156.3 368.844V515.035L992.62 610.411L993.061 464.22L1156.3 368.844Z" fill="#E6E8EA" stroke="#003B2F" stroke-width="3" stroke-linecap="round" stroke-linejoin="round"/><path d="M1048.88 555.898L1080.14 537.668L1080.84 470.121L1048.44 488.263L1048.88 555.898Z" fill="#003B2F"/><path d="M1048.88 555.898L1080.14 537.668L1100.03 549.293L1049.06 579.236L1048.88 555.898Z" fill="#E6E8EA" stroke="#003B2F" stroke-width="3" stroke-linecap="round" stroke-linejoin="round"/><path d="M993.061 464.221L992.62 610.411L824.807 513.274L825.248 367.083L993.061 464.221Z" fill="#E6E8EA" stroke="#003B2F" stroke-width="3" stroke-linecap="round" stroke-linejoin="round"/><path d="M1156.3 368.844L993.061 464.22L825.248 367.083L988.57 271.795L1156.3 368.844Z" fill="#E6E8EA"/><path d="M1102.32 459.289L1098.63 457.087L1079.52 470.297L1080.14 537.668L1102.59 550.79L1102.32 459.289Z" fill="#E6E8EA" stroke="#003B2F" stroke-width="3" stroke-linecap="round" stroke-linejoin="round"/><path d="M1043.16 585.224L1039.37 583.111L1039.2 484.917L1042.89 487.118L1043.16 585.224Z" fill="#E6E8EA"/><path d="M1108.66 448.985L1108.84 547.179L1102.59 550.79L1102.32 459.288L1049.23 490.112L1049.41 581.613L1043.16 585.224L1042.89 487.117L1108.66 448.985Z" fill="#E6E8EA" stroke="#003B2F" stroke-width="3" stroke-linecap="round" stroke-linejoin="round"/><path d="M1217.22 364.441V363.737C1217.22 363.737 1217.22 364.001 1217.22 364.089C1217.05 361.359 1215.46 358.717 1212.38 356.956C1205.86 353.169 1195.39 353.169 1188.96 356.956C1185.88 358.717 1184.29 361.359 1184.21 364.089C1184.21 364.001 1184.21 363.825 1184.21 363.737L1183.77 513.45C1183.77 515.916 1185.35 518.381 1188.61 520.319C1195.12 524.106 1205.6 524.106 1212.03 520.319C1215.2 518.469 1216.87 516.004 1216.87 513.626L1217.31 364.705C1217.31 364.705 1217.31 364.705 1217.31 364.617L1217.22 364.441Z" fill="#03FC9D" stroke="#003B2F" stroke-width="3" stroke-linecap="round" stroke-linejoin="round"/><path d="M804.909 366.466C805.173 363.56 803.589 360.566 800.155 358.628C793.64 354.841 783.162 354.841 776.735 358.628C773.125 360.742 771.452 363.912 771.893 366.995L771.452 515.122C771.452 517.588 773.037 520.054 776.295 521.992C782.81 525.778 793.287 525.778 799.715 521.992C802.884 520.142 804.557 517.676 804.557 515.299L804.997 365.585C804.997 365.585 804.997 366.29 804.909 366.642V366.466Z" fill="#03FC9D" stroke="#003B2F" stroke-width="3" stroke-linecap="round" stroke-linejoin="round"/><path d="M902.991 424.326V423.974C902.991 423.974 902.991 424.062 902.991 424.15C902.991 421.508 901.318 418.954 898.149 417.105C891.633 413.318 881.156 413.318 874.729 417.105C871.647 418.954 869.974 421.508 869.886 424.062V423.886L869.446 573.599C869.446 576.065 871.031 578.53 874.289 580.468C880.804 584.255 891.281 584.255 897.708 580.468C900.878 578.619 902.551 576.153 902.551 573.775L902.991 424.502V424.326Z" fill="#03FC9D" stroke="#003B2F" stroke-width="3" stroke-linecap="round" stroke-linejoin="round"/><path d="M1006 627.231C998.608 623.004 986.721 623.004 979.414 627.231C972.106 631.459 972.106 638.416 979.414 642.643C986.81 646.87 998.696 646.87 1006 642.643C1013.31 638.416 1013.31 631.459 1005.92 627.231H1006Z" fill="#E6E8EA"/><path d="M1009.7 483.947V483.419C1009.7 483.419 1009.7 483.595 1009.7 483.683C1009.61 481.041 1007.94 478.399 1004.86 476.638C998.343 472.851 987.866 472.851 981.438 476.638C978.357 478.399 976.772 481.041 976.684 483.683C976.684 483.595 976.684 483.507 976.684 483.419L976.244 633.132C976.244 635.598 977.829 638.064 981.086 640.001C987.601 643.788 998.079 643.788 1004.51 640.001C1007.68 638.152 1009.35 635.686 1009.35 633.308L1009.79 484.211L1009.7 483.947Z" fill="#03FC9D" stroke="#003B2F" stroke-width="3" stroke-linecap="round" stroke-linejoin="round"/><path d="M1071.42 447.576V447.223V447.399C1071.33 444.758 1069.66 442.204 1066.58 440.354C1060.06 436.567 1049.58 436.567 1043.16 440.354C1040.08 442.204 1038.49 444.758 1038.32 447.311C1038.32 447.311 1038.32 447.135 1038.32 447.047L1037.88 596.76C1037.88 599.226 1039.46 601.692 1042.72 603.629C1049.23 607.416 1059.71 607.416 1066.14 603.629C1069.31 601.78 1070.98 599.314 1070.98 596.936L1071.42 447.664V447.576Z" fill="#03FC9D" stroke="#003B2F" stroke-width="3" stroke-linecap="round" stroke-linejoin="round"/><path d="M1148.02 403.983V403.455C1148.02 403.455 1148.02 403.631 1148.02 403.719C1147.93 401.077 1146.26 398.435 1143.18 396.585C1136.66 392.799 1126.18 392.799 1119.76 396.585C1116.68 398.347 1115.09 400.989 1115 403.631C1115 403.543 1115 403.455 1115 403.278L1114.56 552.992C1114.56 555.457 1116.15 557.923 1119.4 559.861C1125.92 563.648 1136.4 563.648 1142.82 559.861C1145.99 558.011 1147.67 555.545 1147.67 553.168L1148.11 404.159C1148.11 404.159 1148.11 404.159 1148.11 404.071L1148.02 403.983Z" fill="#03FC9D" stroke="#003B2F" stroke-width="3" stroke-linecap="round" stroke-linejoin="round"/><path d="M1229.81 350.527V361.007L992.709 498.743V488.351L1229.81 350.527Z" fill="#E6E8EA" stroke="#003B2F" stroke-width="3" stroke-linecap="round" stroke-linejoin="round"/><path d="M992.708 488.351V498.743L754.107 361.007V350.527L992.708 488.351Z" fill="#E6E8EA" stroke="#003B2F" stroke-width="3" stroke-linecap="round" stroke-linejoin="round"/><path d="M991.211 212.703L754.107 350.527L992.708 488.351L1229.81 350.527L991.211 212.703Z" fill="white" stroke="#003B2F" stroke-width="3" stroke-linecap="round" stroke-linejoin="round"/><path d="M1217.66 307.99V349.646L992.709 480.424V438.769L1217.66 307.99Z" fill="#E6E8EA" stroke="#003B2F" stroke-width="3" stroke-linecap="round" stroke-linejoin="round"/><path d="M1217.66 307.99V319.791L992.709 450.57V438.769L1217.66 307.99Z" fill="#003B2F"/><path d="M992.708 438.769V480.424L766.258 349.646V307.99L992.708 438.769Z" fill="#E6E8EA" stroke="#003B2F" stroke-width="3" stroke-linecap="round" stroke-linejoin="round"/><path d="M992.708 438.769V450.57L766.258 319.791V307.99L992.708 438.769Z" fill="#003B2F"/><path d="M992.708 432.869V443.26L754.107 305.524V295.045L992.708 432.869Z" fill="#E6E8EA" stroke="#003B2F" stroke-width="3" stroke-linecap="round" stroke-linejoin="round"/><path d="M1027.57 403.543L789.678 265.191L958.195 167.877L1196.09 306.23L1027.57 403.543Z" fill="#003B2F"/><path d="M1185 300.857L1017.45 397.642L1027.57 403.543L1196.09 306.229L1185 300.857Z" fill="#E6E8EA"/><path d="M1111.74 298.215L873.232 160.479L990.683 156.781L1229.81 295.045L1111.74 298.215Z" fill="#03FC9D" stroke="#003B2F" stroke-width="3" stroke-linecap="round" stroke-linejoin="round"/><path d="M992.708 432.868L754.107 295.044L873.232 160.479L1111.74 298.215L992.708 432.868Z" fill="#03FC9D" stroke="#003B2F" stroke-width="3" stroke-linecap="round" stroke-linejoin="round"/><path d="M1111.74 298.215L992.796 432.869V443.349L1229.81 305.524V295.045L1111.74 298.215ZM1111.74 308.431L1196.09 306.229L1027.57 403.542L1111.74 308.431Z" fill="white" stroke="#003B2F" stroke-width="3" stroke-linecap="round" stroke-linejoin="round"/><path d="M847.963 1000.02L673.899 894.426C623.625 863.955 606.456 799.138 634.983 747.795C644.58 730.446 658.755 716.003 676.012 706.139L848.051 606.888" stroke="#8F9F99" stroke-width="3" stroke-linecap="round" stroke-linejoin="round" stroke-dasharray="20 20"/><path d="M1139.48 609.618L1549.15 862.457" stroke="#8F9F99" stroke-width="3" stroke-linecap="round" stroke-linejoin="round" stroke-dasharray="20 20"/><path d="M1086.3 420.187C1085.24 420.803 1084.19 421.068 1083.22 421.068C1082.25 421.068 1081.37 420.803 1080.66 420.275C1079.87 419.747 1079.26 418.954 1078.82 417.897C1078.38 416.84 1078.02 415.608 1077.94 414.11C1077.85 412.613 1077.94 411.116 1078.2 409.707C1078.46 408.21 1078.99 406.801 1079.61 405.48C1080.22 404.159 1081.02 403.014 1081.9 401.957C1082.78 400.9 1083.83 400.108 1084.98 399.403C1086.12 398.787 1087.09 398.435 1088.06 398.435C1089.03 398.435 1089.82 398.611 1090.44 399.139C1091.14 399.579 1091.58 400.284 1091.93 401.077L1089.21 404.423C1088.85 403.63 1088.41 403.014 1087.71 402.75C1087 402.486 1086.21 402.574 1085.24 403.102C1084.36 403.631 1083.57 404.335 1082.87 405.304C1082.25 406.273 1081.72 407.329 1081.37 408.474C1081.02 409.619 1080.93 410.94 1081.02 412.173C1081.02 413.494 1081.37 414.551 1081.81 415.255C1082.25 416.048 1082.87 416.488 1083.57 416.664C1084.27 416.84 1085.07 416.664 1086.04 416.136C1087 415.608 1087.71 414.903 1088.32 413.846C1088.94 412.877 1089.38 411.821 1089.56 410.676L1092.46 410.852C1092.29 411.997 1091.85 413.142 1091.32 414.287C1090.7 415.431 1090 416.488 1089.21 417.457C1088.32 418.426 1087.36 419.218 1086.21 419.835L1086.3 420.187Z" fill="#003B2F"/><path d="M1094.93 415.08L1093.78 394.913L1100.39 391.214C1101.44 390.597 1102.41 390.333 1103.2 390.333C1104 390.333 1104.61 390.685 1105.05 391.39C1105.49 392.006 1105.76 392.975 1105.85 394.296C1105.85 395.177 1105.76 396.146 1105.41 397.202C1105.32 397.555 1105.14 397.995 1104.97 398.347C1105.14 398.347 1105.41 398.523 1105.58 398.611C1106.02 398.964 1106.37 399.404 1106.64 400.02C1106.81 400.637 1106.99 401.253 1106.99 402.046C1107.08 404.071 1106.64 405.833 1105.67 407.506C1104.7 409.179 1103.29 410.5 1101.53 411.469L1095.02 415.08H1094.93ZM1097.48 400.725L1101.09 398.699C1101.62 398.435 1101.97 397.995 1102.24 397.467C1102.5 396.938 1102.68 396.322 1102.59 395.705C1102.5 395.089 1102.41 394.648 1102.06 394.472C1101.71 394.296 1101.36 394.296 1100.83 394.56L1097.22 396.586L1097.48 400.637V400.725ZM1098.01 409.62L1101.71 407.594C1102.32 407.242 1102.85 406.713 1103.2 406.009C1103.56 405.304 1103.73 404.6 1103.73 403.807C1103.73 403.015 1103.47 402.486 1103.03 402.222C1102.59 401.958 1102.06 401.958 1101.44 402.398L1097.75 404.512L1098.01 409.796V409.62Z" fill="#003B2F"/><path d="M1109.37 407.065L1108.31 386.722L1113.51 383.816C1115.27 382.847 1116.76 382.406 1118.08 382.583C1119.4 382.759 1120.46 383.463 1121.25 384.608C1122.05 385.753 1122.49 387.338 1122.57 389.364C1122.57 391.389 1122.4 393.327 1121.78 395.264C1121.17 397.202 1120.2 398.963 1118.96 400.548C1117.73 402.133 1116.23 403.366 1114.56 404.335L1109.46 407.153L1109.37 407.065ZM1112.45 401.605L1114.39 400.548C1115.44 399.932 1116.32 399.227 1117.03 398.258C1117.73 397.29 1118.35 396.233 1118.7 395C1119.05 393.767 1119.23 392.534 1119.14 391.213C1119.14 389.892 1118.79 388.835 1118.35 388.131C1117.91 387.426 1117.29 386.986 1116.5 386.81C1115.71 386.634 1114.83 386.898 1113.77 387.514L1111.83 388.659L1112.45 401.693V401.605Z" fill="#003B2F"/><path d="M1132.61 394.56C1131.47 395.176 1130.41 395.529 1129.35 395.529C1128.39 395.529 1127.5 395.264 1126.71 394.736C1125.92 394.208 1125.3 393.415 1124.86 392.358C1124.42 391.301 1124.16 389.98 1124.07 388.483C1124.07 386.986 1124.07 385.401 1124.51 383.904C1124.86 382.407 1125.39 380.909 1126.1 379.588C1126.8 378.179 1127.59 376.947 1128.56 375.89C1129.53 374.833 1130.59 373.952 1131.82 373.248C1132.96 372.543 1134.02 372.279 1134.99 372.191C1135.96 372.191 1136.75 372.367 1137.45 372.895C1138.16 373.336 1138.6 374.04 1138.95 374.921L1136.04 378.444C1135.69 377.563 1135.25 377.035 1134.55 376.77C1133.84 376.506 1132.96 376.594 1131.99 377.211C1131.03 377.739 1130.23 378.532 1129.53 379.5C1128.83 380.469 1128.3 381.614 1127.94 382.847C1127.59 384.08 1127.42 385.401 1127.5 386.722C1127.5 388.043 1127.77 389.188 1128.21 389.98C1128.65 390.773 1129.27 391.213 1129.97 391.389C1130.67 391.566 1131.55 391.389 1132.52 390.861C1133.49 390.333 1134.28 389.54 1134.99 388.483C1135.69 387.426 1136.13 386.37 1136.31 385.225L1139.39 385.401C1139.13 386.546 1138.69 387.779 1138.07 388.924C1137.45 390.156 1136.66 391.213 1135.78 392.27C1134.9 393.239 1133.84 394.119 1132.7 394.736L1132.61 394.56Z" fill="#003B2F"/><path d="M256.349 842.467H168.435C158.779 842.467 150.919 850.326 150.919 859.982C150.919 869.638 158.779 877.497 168.435 877.497H256.349C266.005 877.497 273.865 869.638 273.865 859.982C273.865 850.326 266.005 842.467 256.349 842.467Z" fill="#03FC9D"/><path d="M435.771 775.888H228.279C205.374 775.888 186.848 794.414 186.848 817.318C186.848 840.222 205.374 858.747 228.279 858.747H435.771C458.676 858.747 477.202 840.222 477.202 817.318C477.202 794.414 458.676 775.888 435.771 775.888Z" fill="#E6E8EA"/></svg>