<svg width="1920" height="1081" viewBox="0 0 1920 1081" fill="none" xmlns="http://www.w3.org/2000/svg"><path fill-rule="evenodd" clip-rule="evenodd" d="M1371.54 269.251C1362.32 261.476 1351.02 256.5 1339.2 254.738C1336.19 254.324 1333.19 254.116 1330.08 254.116H531.666C496.214 254.116 467.395 282.934 467.395 318.491V772.119C467.395 790.779 475.377 807.572 488.024 819.286C495.695 826.439 505.129 831.725 515.598 834.421C520.678 835.768 526.068 836.39 531.563 836.39H1329.97C1330.7 836.39 1331.32 836.39 1331.94 836.39C1333.91 836.39 1335.88 836.183 1337.75 835.976C1340.96 835.561 1344.18 834.939 1347.18 834.11C1349.05 833.591 1350.81 832.969 1352.57 832.347C1354.96 831.414 1357.24 830.378 1359.41 829.237C1360.66 828.615 1361.8 827.993 1362.94 827.268C1366.46 825.195 1369.68 822.707 1372.68 820.011C1381.08 812.444 1387.51 802.7 1391.03 791.711C1391.76 789.535 1392.27 787.358 1392.79 785.077C1393.21 783.211 1393.52 781.345 1393.73 779.376C1394.04 776.991 1394.14 774.503 1394.14 772.119V318.387C1394.14 299.417 1385.85 281.483 1371.23 269.147L1371.54 269.251Z" fill="white"/><path fill-rule="evenodd" clip-rule="evenodd" d="M1366.67 318.388V772.016C1366.67 792.127 1350.29 808.505 1330.18 808.505H531.663C511.553 808.505 495.174 792.127 495.174 772.016V318.388C495.174 298.277 511.553 281.898 531.663 281.898H1330.07C1338.68 281.898 1347.07 284.905 1353.61 290.502C1361.9 297.448 1366.56 307.71 1366.56 318.388H1366.67Z" fill="white"/><path fill-rule="evenodd" clip-rule="evenodd" d="M1037.23 836.391L1048.32 885.319L1062.01 945.444H799.946L813.526 885.319L824.618 836.391" fill="white"/><path d="M1037.23 836.391L1048.32 885.319L1062.01 945.444H799.946L813.526 885.319L824.618 836.391" stroke="#003B2F" stroke-width="3" stroke-linecap="round" stroke-linejoin="round"/><path d="M887.022 254.116H531.666C496.214 254.116 467.395 282.934 467.395 318.491V772.119C467.395 790.779 475.377 807.572 488.024 819.286C495.695 826.439 505.129 831.725 515.598 834.421C520.678 835.768 526.068 836.39 531.563 836.39H1329.97C1330.7 836.39 1331.32 836.39 1331.94 836.39C1333.91 836.39 1335.88 836.183 1337.75 835.976C1340.96 835.561 1344.18 834.939 1347.18 834.11C1349.05 833.591 1350.81 832.969 1352.57 832.347C1354.96 831.414 1357.24 830.378 1359.41 829.237C1360.66 828.615 1361.8 827.993 1362.94 827.268C1366.46 825.195 1369.68 822.707 1372.68 820.011M1138.3 745.893H495.281V318.387C495.281 298.277 511.659 281.898 531.77 281.898H890.443" stroke="#003B2F" stroke-width="3" stroke-linecap="round" stroke-linejoin="round"/><path fill-rule="evenodd" clip-rule="evenodd" d="M1103.99 958.298H757.755C753.816 958.298 750.499 955.084 750.499 951.042C750.499 946.999 753.713 943.785 757.755 943.785H1103.99C1107.93 943.785 1111.25 946.999 1111.25 951.042C1111.25 952.286 1110.93 953.426 1110.42 954.359C1109.17 956.639 1106.79 958.194 1103.99 958.194V958.298Z" fill="white" stroke="#003B2F" stroke-width="3" stroke-linecap="round" stroke-linejoin="round"/><path d="M747.595 488.809H551.879" stroke="#003B2F" stroke-width="3" stroke-linecap="round" stroke-linejoin="round"/><path d="M747.595 465.9H551.879" stroke="#003B2F" stroke-width="3" stroke-linecap="round" stroke-linejoin="round"/><path d="M747.595 419.978H551.879" stroke="#003B2F" stroke-width="3" stroke-linecap="round" stroke-linejoin="round"/><path d="M842.239 488.809H759.62" stroke="#003B2F" stroke-width="3" stroke-linecap="round" stroke-linejoin="round"/><path d="M842.859 465.9H760.136" stroke="#003B2F" stroke-width="3" stroke-linecap="round" stroke-linejoin="round"/><path d="M843.381 419.978H760.658" stroke="#003B2F" stroke-width="3" stroke-linecap="round" stroke-linejoin="round"/><path d="M634.499 441.851H551.879" stroke="#003B2F" stroke-width="3" stroke-linecap="round" stroke-linejoin="round"/><path d="M706.544 441.851H650.774" stroke="#003B2F" stroke-width="3" stroke-linecap="round" stroke-linejoin="round"/><path d="M634.499 396.031H551.879" stroke="#003B2F" stroke-width="3" stroke-linecap="round" stroke-linejoin="round"/><path d="M706.544 396.031H650.774" stroke="#003B2F" stroke-width="3" stroke-linecap="round" stroke-linejoin="round"/><path d="M747.595 583.868H551.879" stroke="#003B2F" stroke-width="3" stroke-linecap="round" stroke-linejoin="round"/><path d="M843.379 560.959H551.879" stroke="#003B2F" stroke-width="3" stroke-linecap="round" stroke-linejoin="round"/><path d="M842.239 515.036H551.879" stroke="#003B2F" stroke-width="3" stroke-linecap="round" stroke-linejoin="round"/><path d="M842.239 583.868H759.62" stroke="#003B2F" stroke-width="3" stroke-linecap="round" stroke-linejoin="round"/><path d="M634.499 536.909H551.879" stroke="#003B2F" stroke-width="3" stroke-linecap="round" stroke-linejoin="round"/><path d="M706.544 536.909H650.774" stroke="#003B2F" stroke-width="3" stroke-linecap="round" stroke-linejoin="round"/><path d="M1578.87 538.672H1186.81V795.03H1578.87V538.672Z" fill="#E6E8EA"/><path d="M1568.4 527.786H1176.35V784.144H1568.4V527.786Z" stroke="#003B2F" stroke-width="3" stroke-linecap="round" stroke-linejoin="round"/><path d="M1414.67 610.094H1351.12V776.369H1414.67V610.094Z" fill="#03FC9D"/><path d="M1286.64 610.094H1223.1V776.369H1286.64V610.094Z" fill="#03FC9D"/><path d="M1541.86 610.094H1478.31V776.369H1541.86V610.094Z" fill="#03FC9D"/><path d="M1223.41 584.593H1303.64" stroke="#003B2F" stroke-width="3" stroke-linecap="round" stroke-linejoin="round"/><path d="M1223.41 596.619H1266.64" stroke="#003B2F" stroke-width="3" stroke-linecap="round" stroke-linejoin="round"/><path d="M1275.24 596.619H1295.35" stroke="#003B2F" stroke-width="3" stroke-linecap="round" stroke-linejoin="round"/><path d="M1223.41 755.948H1542.28" stroke="#003B2F" stroke-width="3" stroke-linecap="round" stroke-linejoin="round"/><path d="M1223.41 763.205V755.948" stroke="#003B2F" stroke-width="3" stroke-linecap="round" stroke-linejoin="round"/><path d="M1287.16 763.205V755.948" stroke="#003B2F" stroke-width="3" stroke-linecap="round" stroke-linejoin="round"/><path d="M1351.02 763.205V755.948" stroke="#003B2F" stroke-width="3" stroke-linecap="round" stroke-linejoin="round"/><path d="M1414.77 763.205V755.948" stroke="#003B2F" stroke-width="3" stroke-linecap="round" stroke-linejoin="round"/><path d="M1478.52 763.205V755.948" stroke="#003B2F" stroke-width="3" stroke-linecap="round" stroke-linejoin="round"/><path d="M1542.38 763.205V755.948" stroke="#003B2F" stroke-width="3" stroke-linecap="round" stroke-linejoin="round"/><path d="M1228.39 720.288C1228.39 722.983 1226.21 725.16 1223.51 725.16C1220.82 725.16 1218.64 722.983 1218.64 720.288C1218.64 717.593 1220.82 715.416 1223.51 715.416C1226.21 715.416 1228.39 717.593 1228.39 720.288Z" fill="#003B2F"/><path d="M1356.41 708.263C1356.41 710.958 1354.23 713.135 1351.54 713.135C1348.84 713.135 1346.67 710.958 1346.67 708.263C1346.67 705.568 1348.84 703.391 1351.54 703.391C1354.23 703.391 1356.41 705.568 1356.41 708.263Z" fill="#003B2F"/><path d="M1482.78 675.402C1482.78 678.098 1480.6 680.275 1477.9 680.275C1475.21 680.275 1473.03 678.098 1473.03 675.402C1473.03 672.707 1475.21 670.53 1477.9 670.53C1480.6 670.53 1482.78 672.707 1482.78 675.402Z" fill="#003B2F"/><path d="M1545.18 612.582C1545.18 615.277 1543 617.454 1540.31 617.454C1537.61 617.454 1535.44 615.277 1535.44 612.582C1535.44 609.887 1537.61 607.71 1540.31 607.71C1543 607.71 1545.18 609.887 1545.18 612.582Z" fill="#003B2F"/><path d="M1223.93 720.289C1223.93 720.289 1269.23 628.962 1351.54 708.368C1433.84 787.67 1481.84 668.872 1481.84 668.872C1481.84 668.872 1506.1 613.723 1540.51 612.583" stroke="#003B2F" stroke-width="3" stroke-linecap="round" stroke-linejoin="round"/><path d="M1475 137.599H930.562V493.577H1475V137.599Z" fill="#E6E8EA"/><path d="M1460.38 122.465H915.944V478.443H1460.38V122.465Z" stroke="#003B2F" stroke-width="3" stroke-linecap="round" stroke-linejoin="round"/><path d="M733.599 792.956H732.873C726.032 793.889 719.397 793.681 712.97 792.334C710.171 791.712 707.269 790.986 704.573 790.053H704.055C685.292 782.797 670.676 766.003 667.255 744.545C662.279 712.928 683.841 683.28 715.562 678.305C724.269 676.957 732.77 677.579 740.544 679.86C742.721 680.482 744.795 681.207 746.764 682.036C763.972 689.189 777.345 704.739 781.18 724.124V725.16C781.18 725.16 781.491 726.093 781.595 726.508C786.571 758.125 765.009 787.773 733.288 792.748H733.495L733.599 792.956Z" fill="#03FC9D"/><path d="M702.915 708.16L712.349 717.904C713.904 719.459 715.458 721.118 717.117 722.672C721.367 727.13 728.313 727.441 732.77 723.294C732.978 723.191 733.081 722.983 733.289 722.88C737.953 718.215 742.722 713.55 747.387 708.885L747.698 708.574H756.716C756.716 708.574 756.509 708.885 756.405 708.989C750.186 715.209 743.966 721.221 737.746 727.441C734.325 730.965 729.557 732.831 724.684 732.728C720.331 732.728 716.184 730.862 713.074 727.752C706.751 721.429 700.531 714.898 694.104 708.367L693.793 708.056H702.812L702.915 708.16Z" fill="#003B2F"/><path d="M693.274 761.339C694.207 760.406 695.243 759.473 696.176 758.54C701.463 753.253 706.854 747.966 712.14 742.576C715.561 739.051 720.33 737.185 725.306 737.289C729.66 737.289 733.702 739.155 736.812 742.057C743.343 748.588 749.666 755.119 756.094 761.753L755.575 762.064H747.49C747.49 762.064 746.868 761.961 746.557 761.65C741.892 756.881 737.123 752.009 732.458 747.24C728.105 742.887 721.159 742.783 716.805 747.24C712.037 751.905 707.372 756.674 702.5 761.546C702.189 761.857 701.774 761.961 701.36 761.961H692.963L693.17 761.339H693.274Z" fill="#003B2F"/><path d="M1624.27 415.416H1623.65C1617.74 415.209 1612.04 414.172 1606.85 412.203C1604.57 411.27 1602.19 410.233 1600.01 409.093H1599.6C1584.57 400.385 1574.41 384.214 1574.3 365.554C1574.3 337.98 1596.49 315.693 1624.06 315.589C1631.63 315.589 1638.78 317.247 1645.11 320.254C1646.87 321.083 1648.53 322.016 1650.08 322.949C1663.77 331.242 1673.1 346.273 1673.82 363.274V364.207C1673.82 364.207 1673.82 365.036 1673.82 365.451C1673.82 393.025 1651.64 415.312 1624.06 415.416H1624.17H1624.27Z" fill="#03FC9D"/><path fill-rule="evenodd" clip-rule="evenodd" d="M1609.34 371.774L1605.51 372.81L1608.41 365.554L1612.25 364.517L1620.95 342.333L1633.7 344.303L1627.28 360.578L1631.11 359.541L1628.21 366.798L1624.38 367.834L1620.75 376.957L1640.03 379.963L1636.3 389.396L1604.26 384.42L1609.24 371.774H1609.34Z" fill="#003B2F"/><path d="M989.13 696.653L988.405 696.342C981.252 694.58 974.618 691.366 968.813 687.634C966.221 685.768 963.629 683.902 961.349 681.726L960.83 681.518C945.074 666.383 937.506 643.578 943.104 620.875C951.294 587.392 985.088 566.763 1018.88 574.849C1028.11 577.13 1036.19 581.276 1043.24 586.77C1045.11 588.325 1046.87 589.88 1048.53 591.539C1062.83 605.844 1069.78 626.784 1065.53 647.828L1065.12 648.864C1065.12 648.864 1065.12 649.901 1065.12 650.419C1056.93 683.902 1023.13 704.531 989.338 696.446H989.13V696.653Z" fill="#03FC9D"/><path d="M1041.07 631.241C1043.76 621.912 1036.61 615.692 1026.35 610.82L1031.53 598.277L1023.24 595.27L1018.16 607.399C1015.98 606.466 1013.7 605.74 1011.63 605.015L1016.81 592.679L1008.52 589.673L1003.33 602.216C1001.67 601.49 999.704 600.868 997.942 600.35L986.435 595.996L983.014 604.082C983.014 604.082 989.234 606.259 989.027 606.362C992.448 607.814 992.759 609.887 992.448 611.546L986.539 625.747L978.246 645.651C977.831 646.687 976.484 647.931 974.099 647.102L968.087 644.821L962.593 653.218L973.374 657.365C975.447 658.194 977.313 659.023 979.179 659.645L973.892 672.292L982.185 675.298L987.368 662.755C989.545 663.688 991.722 664.621 993.899 665.243L988.716 677.786L997.009 680.792L1002.3 668.145C1016.5 672.707 1027.69 673.018 1033.81 661.511C1038.89 652.181 1035.68 646.065 1028.52 641.297C1034.22 640.882 1038.89 637.876 1040.86 631.138H1041.07V631.241ZM1018.26 654.047C1014.32 663.481 997.009 655.913 991.515 653.84L998.46 637.15C1004.06 639.327 1022.3 644.303 1018.16 654.151L1018.26 654.047ZM1024.17 628.961C1020.54 637.565 1006.23 631.034 1001.57 629.272L1007.89 614.033C1012.56 615.796 1027.8 619.942 1024.06 628.961H1024.17Z" fill="#003B2F"/><path d="M390.994 422.983C390.994 422.983 390.683 422.983 390.579 423.087C386.64 424.124 382.597 424.538 378.658 424.227C376.896 424.124 375.133 423.813 373.475 423.398C373.475 423.398 373.268 423.398 373.164 423.398C361.45 420.495 351.498 411.58 347.974 399.141C342.687 380.689 353.468 361.408 371.92 356.121C376.999 354.67 382.079 354.462 386.951 355.188C388.299 355.395 389.543 355.706 390.787 356.017C401.567 359.023 410.69 367.316 414.422 378.616C414.422 378.823 414.525 378.927 414.629 379.134C414.629 379.445 414.836 379.652 414.836 379.963C420.123 398.415 409.342 417.696 390.89 422.88L390.994 422.983Z" fill="#03FC9D"/><path fill-rule="evenodd" clip-rule="evenodd" d="M364.35 376.647L394.93 372.915L395.76 379.445L365.179 383.177L364.35 376.647ZM385.186 392.403L387.259 409.3L380.729 410.13L378.655 393.233L385.186 392.403Z" fill="#003B2F"/><path fill-rule="evenodd" clip-rule="evenodd" d="M381.04 385.665C370.156 387.013 361.552 390.019 361.863 392.404C362.174 394.788 371.192 395.721 382.077 394.373C392.962 393.026 401.566 390.019 401.255 387.635C400.944 385.251 391.925 384.318 381.04 385.665ZM381.87 392.196C370.985 393.544 363.107 393.44 363.003 392.196C362.899 390.952 370.363 387.946 381.248 386.598C392.132 385.251 400.114 386.391 400.218 387.635C400.322 388.879 392.754 390.745 381.87 392.093V392.196Z" fill="#003B2F"/><path fill-rule="evenodd" clip-rule="evenodd" d="M383.737 380.897L384.981 390.745L378.451 391.574L377.207 381.726L383.737 380.897Z" fill="#003B2F"/><path d="M336.776 751.49H336.154C331.075 751.076 326.203 749.935 321.642 747.966C319.672 747.136 317.702 746.1 315.836 744.959H315.525C302.775 736.77 294.586 722.361 295.311 706.293C296.348 682.451 316.458 663.895 340.301 665.035C346.832 665.243 352.948 667.005 358.338 669.908C359.789 670.633 361.137 671.463 362.485 672.396C374.095 680.17 381.559 693.439 381.559 708.263L381.351 709.092C381.351 709.092 381.351 709.818 381.455 710.232C380.418 734.075 360.308 752.631 336.465 751.49H336.569H336.776Z" fill="#03FC9D"/><path d="M325.58 734.179C325.372 735.215 324.647 735.423 323.61 735.215C312 728.684 305.573 715.519 308.268 702.147C310.963 688.774 321.952 679.134 335.117 677.579C336.153 677.475 336.775 678.201 336.568 679.237L336.05 681.622C335.946 682.347 335.428 682.865 334.702 683.073C324.232 684.835 315.732 692.506 313.555 703.183C311.378 713.861 316.561 724.642 325.269 729.928C325.891 730.447 326.098 731.172 325.891 731.794L325.372 734.179H325.58Z" fill="#003B2F"/><path d="M337.398 727.855C337.295 728.477 336.465 729.099 335.74 728.892L333.044 728.374C332.422 728.27 331.8 727.441 332.008 726.715L332.837 722.672C327.654 720.91 325.581 717.385 325.373 712.824C325.477 712.202 325.995 711.58 326.617 711.684L329.623 712.306C330.245 712.41 330.556 712.824 330.764 713.55C330.971 716.038 331.904 718.318 336.258 719.148C339.575 719.77 342.27 718.629 342.789 715.934C343.307 713.239 342.167 711.995 337.606 710.336C330.764 707.952 327.861 705.257 329.001 699.555C329.831 695.202 333.874 692.506 338.746 692.817L339.575 688.774C339.679 688.152 340.508 687.53 341.234 687.738L343.929 688.256C344.551 688.36 345.173 689.189 344.966 689.915L344.136 693.958C347.972 695.409 350.252 698.311 350.149 702.147C350.045 702.769 349.527 703.391 348.905 703.287L346.21 702.769C345.588 702.665 345.277 702.251 345.069 701.525C344.862 699.037 343.411 697.689 340.404 697.067C337.087 696.446 335.014 697.689 334.599 700.074C334.185 702.458 334.91 703.909 339.782 705.671C346.624 708.056 349.527 710.751 348.386 716.452C347.557 720.806 343.411 723.812 338.227 723.812L337.398 727.855Z" fill="#003B2F"/><path d="M341.751 738.844C340.714 738.947 340.092 738.222 340.299 737.185L340.818 734.801C340.921 734.179 341.44 733.557 342.165 733.349C352.635 731.587 361.136 723.916 363.313 713.239C365.49 702.562 360.306 691.781 351.599 686.494C351.08 686.079 350.769 685.354 350.977 684.628L351.495 682.244C351.702 681.207 352.428 681 353.465 681.207C364.764 687.634 371.502 700.903 368.807 714.275C366.112 727.648 355.123 737.289 341.958 738.844H341.751Z" fill="#003B2F"/><path d="M1176.56 385.538C1201.36 348.332 1213.47 329.917 1225.6 312.597C1230.69 305.334 1245.46 284.925 1247.84 286.595C1250.07 288.149 1236.63 310.246 1232.24 317.827C1228.01 325.141 1191.65 392.448 1187.51 394.563C1183.37 396.646 1176.53 385.534 1176.53 385.534L1176.56 385.538Z" fill="#03FC9D"/><path d="M1341.36 243.884C1303 206.745 1251.42 183.537 1194.42 182.357C1193.66 182.357 1192.89 182.357 1192.13 182.325C1190.34 182.325 1188.56 182.325 1186.77 182.325C1159.45 182.708 1132.99 188.159 1108.41 197.787C1082.53 207.956 1058.75 222.748 1038.28 241.175L1088.39 304.327C1088.39 304.327 1088.39 304.327 1088.42 304.296C1110.58 279.589 1142.87 262.247 1188.4 261.545C1189.64 261.545 1190.89 261.545 1192.16 261.545C1192.67 261.545 1193.18 261.545 1193.66 261.545C1238.58 262.151 1269.95 280.035 1291.18 304.519C1291.72 305.124 1292.23 305.762 1292.77 306.368L1341.67 244.139C1341.67 244.139 1341.51 243.98 1341.42 243.884H1341.36Z" fill="#003B2F"/><path d="M1177.03 388.753C1201.83 351.548 1213.94 333.132 1226.07 315.812C1231.16 308.549 1245.93 288.14 1248.31 289.81C1250.54 291.364 1237.1 313.461 1232.71 321.042C1228.48 328.356 1192.12 395.663 1187.98 397.778C1183.84 399.861 1177 388.749 1177 388.749L1177.03 388.753Z" stroke="#003B2F" stroke-width="3" stroke-miterlimit="10"/><path d="M1409.84 408.318C1409.81 411.761 1409.68 415.172 1409.52 418.583L1330.46 417.754C1330.56 417.308 1330.59 416.861 1330.59 416.415C1330.94 386.321 1321.38 340.415 1292.91 306.399C1292.4 305.762 1291.86 305.156 1291.31 304.55L1341.52 243.916C1341.52 243.916 1341.72 244.075 1341.78 244.171C1384.28 285.455 1410.48 343.826 1409.84 408.318Z" fill="#03FC9D"/><path d="M1088.53 304.327C1088.53 304.327 1088.53 304.327 1088.5 304.359C1060.57 335.505 1048.43 379.021 1046.7 414.853L963.913 413.992C963.786 410.581 963.754 407.17 963.786 403.727C964.455 339.331 993.529 281.566 1038.42 241.206L1088.56 304.327H1088.53Z" fill="white"/><path d="M1220.88 298.617C1215.88 295.599 1210.66 294.964 1204.98 296.583" stroke="#003B2F" stroke-width="3" stroke-linecap="round" stroke-linejoin="round"/><path d="M1226.86 297.712C1222.18 293.709 1217.83 292.097 1211.88 292.135" stroke="#003B2F" stroke-width="3" stroke-linecap="round" stroke-linejoin="round"/><circle cx="1184.57" cy="387.733" r="20.268" fill="#003B2F"/><path d="M120.333 193.331L236.216 193.331C249.004 193.331 259.371 182.965 259.371 170.179C259.371 157.393 249.004 147.028 236.216 147.028H120.333C107.545 147.028 97.1779 157.393 97.1779 170.179C97.1779 182.965 107.545 193.331 120.333 193.331Z" fill="#E6E8EA"/><path d="M179.965 254.116L364.468 254.116C384.789 254.116 401.263 237.645 401.263 217.328C401.263 197.01 384.789 180.539 364.468 180.539L179.965 180.539C159.644 180.539 143.17 197.01 143.17 217.328C143.17 237.645 159.644 254.116 179.965 254.116Z" fill="#03FC9D"/><path d="M220.25 478.443L234.206 492.397" stroke="#003B2F" stroke-width="3" stroke-linecap="round" stroke-linejoin="round"/><path d="M244.463 502.544L258.42 516.604" stroke="#003B2F" stroke-width="3" stroke-linecap="round" stroke-linejoin="round"/><path d="M220.25 516.604L234.206 502.544" stroke="#003B2F" stroke-width="3" stroke-linecap="round" stroke-linejoin="round"/><path d="M244.463 492.398L258.42 478.443" stroke="#003B2F" stroke-width="3" stroke-linecap="round" stroke-linejoin="round"/><path d="M610.844 121.743L637.489 137.177" stroke="#003B2F" stroke-width="3" stroke-linecap="round" stroke-linejoin="round"/><path d="M664.128 121.743L648.48 130.834" stroke="#003B2F" stroke-width="3" stroke-linecap="round" stroke-linejoin="round"/><path d="M637.483 137.176V168.256" stroke="#003B2F" stroke-width="3" stroke-linecap="round" stroke-linejoin="round"/><path d="M121.762 871.147H315.041" stroke="#03FC9D" stroke-width="3" stroke-linecap="round" stroke-linejoin="round"/><path d="M247.897 910.687H396.98" stroke="#003B2F" stroke-width="3" stroke-linecap="round" stroke-linejoin="round"/><path d="M1434.96 871.148L1409.54 896.563L1434.96 921.978L1460.38 896.563L1434.96 871.148Z" stroke="#003B2F" stroke-width="3" stroke-linecap="round" stroke-linejoin="round"/><path d="M1694.97 527.786L1708.92 541.741" stroke="#003B2F" stroke-width="3" stroke-linecap="round" stroke-linejoin="round"/><path d="M1719.08 551.995L1733.14 565.95" stroke="#003B2F" stroke-width="3" stroke-linecap="round" stroke-linejoin="round"/><path d="M1694.97 565.95L1708.92 551.995" stroke="#003B2F" stroke-width="3" stroke-linecap="round" stroke-linejoin="round"/><path d="M1719.08 541.741L1733.14 527.786" stroke="#003B2F" stroke-width="3" stroke-linecap="round" stroke-linejoin="round"/><path d="M1681.62 864.012H1803.32C1816.69 864.012 1827.53 853.173 1827.53 839.803V839.698C1827.53 826.328 1816.69 815.489 1803.32 815.489H1681.62C1668.25 815.489 1657.41 826.328 1657.41 839.698V839.803C1657.41 853.173 1668.25 864.012 1681.62 864.012Z" fill="#E6E8EA"/><path d="M1612.9 926.806H1743.58C1764.9 926.806 1782.17 909.53 1782.17 888.22C1782.17 866.91 1764.9 849.634 1743.58 849.634H1612.9C1591.58 849.634 1574.3 866.91 1574.3 888.22C1574.3 909.53 1591.58 926.806 1612.9 926.806Z" fill="#E6E8EA"/><path d="M1689.93 170.179H1575.64" stroke="#003B2F" stroke-width="3" stroke-linecap="round" stroke-linejoin="round"/><path d="M1776.85 170.179H1748.09" stroke="#003B2F" stroke-width="3" stroke-linecap="round" stroke-linejoin="round"/><path d="M1834.29 227.156H1631.99" stroke="#03FC9D" stroke-width="3" stroke-linecap="round" stroke-linejoin="round"/></svg>