<svg width="1920" height="1081" viewBox="0 0 1920 1081" fill="none" xmlns="http://www.w3.org/2000/svg"><g clip-path="url(#clip0_885_2391)"><path d="M1017.09 177.651H991.518L956.595 197.793L1013.3 230.492L1070 197.793L1039.45 180.136L1017.09 177.651Z" fill="#03FC9D"/><path d="M1013.29 230.493V295.891L1069.99 263.192V197.794L1013.29 230.493Z" fill="#03FC9D"/><path d="M1013.3 230.493V295.891L956.595 263.192V197.794L1013.3 230.493Z" fill="#03FC9D"/><path d="M1080.46 230.493V191.777" stroke="#003B2F" stroke-width="3.64767" stroke-linecap="round" stroke-linejoin="round"/><path d="M946.198 191.777V269.208L1013.3 307.989L1052.4 285.427" stroke="#003B2F" stroke-width="3.64767" stroke-linecap="round" stroke-linejoin="round"/><path d="M977.328 173.727L946.198 191.777L1013.3 230.492" stroke="#003B2F" stroke-width="3.64767" stroke-linecap="round" stroke-linejoin="round"/><path d="M1013.29 230.493L1080.46 191.777L1061.1 180.594" stroke="#003B2F" stroke-width="3.64767" stroke-linecap="round" stroke-linejoin="round"/><path d="M1013.29 230.493V307.99" stroke="#003B2F" stroke-width="3.64767" stroke-linecap="round" stroke-linejoin="round"/><path d="M1080.46 191.777V269.208L1013.29 307.989L974.187 285.427" stroke="#003B2F" stroke-width="3.64767" stroke-linecap="round" stroke-linejoin="round"/><path d="M841.172 821.559L784.472 854.324L841.172 887.023L897.872 854.324L841.172 821.559Z" fill="#03FC9D"/><path d="M841.171 887.023V952.421L897.871 919.722V854.324L841.171 887.023Z" fill="#03FC9D"/><path d="M841.172 887.023V952.421L784.472 919.722V854.324L841.172 887.023Z" fill="#03FC9D"/><path d="M908.269 887.023V848.242" stroke="#003B2F" stroke-width="3.64767" stroke-linecap="round" stroke-linejoin="round"/><path d="M774.008 848.242V925.739L841.172 964.454L880.28 941.892" stroke="#003B2F" stroke-width="3.64767" stroke-linecap="round" stroke-linejoin="round"/><path d="M841.172 887.023L908.27 848.242L841.172 809.395L774.008 848.242L841.172 887.023Z" stroke="#003B2F" stroke-width="3.64767" stroke-linecap="round" stroke-linejoin="round"/><path d="M841.171 887.023V964.454" stroke="#003B2F" stroke-width="3.64767" stroke-linecap="round" stroke-linejoin="round"/><path d="M908.27 848.242V925.739L841.172 964.454L802.064 941.892" stroke="#003B2F" stroke-width="3.64767" stroke-linecap="round" stroke-linejoin="round"/><path d="M586.249 233.435L544.46 233.304L510.126 253.12L584.091 295.76L657.991 253.12L623.657 233.304L586.249 233.435Z" fill="#E6E8EA"/><path d="M584.092 295.759V381.103L657.991 338.464V253.12L584.092 295.759Z" fill="#E6E8EA"/><path d="M584.091 295.759V381.103L510.126 338.464V253.12L584.091 295.759Z" fill="#E6E8EA"/><path d="M523.73 229.511L496.459 245.206" stroke="#003B2F" stroke-width="3.64767" stroke-linecap="round" stroke-linejoin="round"/><path d="M671.662 245.206L643.41 228.922" stroke="#003B2F" stroke-width="3.64767" stroke-linecap="round" stroke-linejoin="round"/><path d="M584.092 295.759L671.659 245.207V295.759" stroke="#003B2F" stroke-width="3.64767" stroke-linecap="round" stroke-linejoin="round"/><path d="M584.092 295.759V396.864" stroke="#003B2F" stroke-width="3.64767" stroke-linecap="round" stroke-linejoin="round"/><path d="M584.093 295.759L496.459 245.207" stroke="#003B2F" stroke-width="3.64767" stroke-linecap="round" stroke-linejoin="round"/><path d="M496.459 317.079V245.207" stroke="#003B2F" stroke-width="3.64767" stroke-linecap="round" stroke-linejoin="round"/><path d="M584.094 396.864L519.023 359.326" stroke="#003B2F" stroke-width="3.64767" stroke-linecap="round" stroke-linejoin="round"/><path d="M584.092 396.864L649.097 359.326" stroke="#003B2F" stroke-width="3.64767" stroke-linecap="round" stroke-linejoin="round"/><path d="M1360.49 222.448C1354.22 229.576 1346.63 235.658 1337.93 240.302C1328.65 235.331 1320.54 228.726 1314.06 220.878L1262.01 250.896L1335.97 293.536L1409.94 250.896L1360.56 222.383L1360.49 222.448Z" fill="#E6E8EA"/><path d="M1335.97 293.601V378.945L1409.87 336.306V250.961L1335.97 293.601Z" fill="#E6E8EA"/><path d="M1335.97 293.601V378.945L1262.01 336.306V250.961L1335.97 293.601Z" fill="#E6E8EA"/><path d="M1299.87 213.358L1248.34 243.114" stroke="#003B2F" stroke-width="3.64767" stroke-linecap="round" stroke-linejoin="round"/><path d="M1423.54 243.114L1376.58 215.974" stroke="#003B2F" stroke-width="3.64767" stroke-linecap="round" stroke-linejoin="round"/><path d="M1423.54 314.921V243.114" stroke="#003B2F" stroke-width="3.64767" stroke-linecap="round" stroke-linejoin="round"/><path d="M1335.97 394.706L1400.98 357.167" stroke="#003B2F" stroke-width="3.64767" stroke-linecap="round" stroke-linejoin="round"/><path d="M1423.54 243.114L1335.97 293.601" stroke="#003B2F" stroke-width="3.64767" stroke-linecap="round" stroke-linejoin="round"/><path d="M1335.97 293.601V394.706" stroke="#003B2F" stroke-width="3.64767" stroke-linecap="round" stroke-linejoin="round"/><path d="M1335.97 293.601L1248.34 243.114V309.297" stroke="#003B2F" stroke-width="3.64767" stroke-linecap="round" stroke-linejoin="round"/><path d="M1335.97 394.379L1276 359.718" stroke="#003B2F" stroke-width="3.64767" stroke-linecap="round" stroke-linejoin="round"/><path d="M1298.96 321.068L1110.09 442.577" stroke="#003B2F" stroke-width="3.64767" stroke-linecap="round" stroke-linejoin="round"/><path d="M619.601 317.079L845.551 447.482" stroke="#003B2F" stroke-width="3.64767" stroke-linecap="round" stroke-linejoin="round"/><path d="M1063.79 165.029L1103.22 139.916C1120.29 130.695 1140.96 131.022 1157.76 140.701L1282.54 212.704" stroke="#003B2F" stroke-width="3.64767" stroke-linecap="round" stroke-linejoin="round"/><path d="M671.657 317.079V245.206" stroke="#003B2F" stroke-width="3.64767" stroke-linecap="round" stroke-linejoin="round"/><path d="M965.426 498.559C1005.95 498.559 1038.8 493.844 1038.8 488.029C1038.8 482.214 1005.95 477.5 965.426 477.5C924.902 477.5 892.05 482.214 892.05 488.029C892.05 493.844 924.902 498.559 965.426 498.559Z" fill="#E6E8EA"/><path d="M1300.79 633.082L1226.82 675.722L1300.79 718.427L1374.69 675.722L1300.79 633.082Z" fill="#E6E8EA"/><path d="M1300.79 718.427V803.706L1374.69 761.066V675.722L1300.79 718.427Z" fill="#E6E8EA"/><path d="M1300.79 718.427V803.706L1226.82 761.066V675.722L1300.79 718.427Z" fill="#E6E8EA"/><path d="M1256.97 794.223L1300.79 819.467" stroke="#003B2F" stroke-width="3.64767" stroke-linecap="round" stroke-linejoin="round"/><path d="M1246.83 648.451L1213.15 667.874V718.427" stroke="#003B2F" stroke-width="3.64767" stroke-linecap="round" stroke-linejoin="round"/><path d="M1388.36 667.874L1361.48 652.374" stroke="#003B2F" stroke-width="3.64767" stroke-linecap="round" stroke-linejoin="round"/><path d="M1300.79 718.426L1388.36 667.874V768.914L1300.79 819.466V718.426Z" stroke="#003B2F" stroke-width="3.64767" stroke-linecap="round" stroke-linejoin="round"/><path d="M1300.79 718.426L1213.15 667.874" stroke="#003B2F" stroke-width="3.64767" stroke-linecap="round" stroke-linejoin="round"/><path d="M632.942 644.462L558.977 687.166L632.942 729.806L706.907 687.166L632.942 644.462Z" fill="#03FC9D"/><path d="M632.942 729.806V815.151L706.908 772.511V687.167L632.942 729.806Z" fill="#03FC9D"/><path d="M632.942 729.806V815.151L558.977 772.511V687.167L632.942 729.806Z" fill="#03FC9D"/><path d="M720.511 729.806V679.319" stroke="#003B2F" stroke-width="3.64767" stroke-linecap="round" stroke-linejoin="round"/><path d="M545.31 679.319V780.359L632.943 830.911L683.953 801.417" stroke="#003B2F" stroke-width="3.64767" stroke-linecap="round" stroke-linejoin="round"/><path d="M577.943 660.419L545.31 679.319L632.943 729.806" stroke="#003B2F" stroke-width="3.64767" stroke-linecap="round" stroke-linejoin="round"/><path d="M632.942 729.806L720.51 679.319L687.811 660.354" stroke="#003B2F" stroke-width="3.64767" stroke-linecap="round" stroke-linejoin="round"/><path d="M632.942 729.806V830.912" stroke="#003B2F" stroke-width="3.64767" stroke-linecap="round" stroke-linejoin="round"/><path d="M671.657 753.415L789.112 824.633" stroke="#003B2F" stroke-width="3.64767" stroke-linecap="round" stroke-linejoin="round"/><path d="M969.678 455.788L946.658 426.686L848.037 483.582L978.376 558.79L1108.71 483.582L1021.54 433.291L969.678 455.788Z" fill="#03FC9D"/><path d="M978.377 558.789V709.139L1108.72 633.932V483.582L978.377 558.789Z" fill="#03FC9D"/><path d="M978.376 558.789V709.139L848.037 633.932V483.582L978.376 558.789Z" fill="#03FC9D"/><path d="M1132.72 558.79V469.718" stroke="#003B2F" stroke-width="3.64767" stroke-linecap="round" stroke-linejoin="round"/><path d="M824.036 469.718V647.796L978.375 736.868L1068.3 685.008" stroke="#003B2F" stroke-width="3.64767" stroke-linecap="round" stroke-linejoin="round"/><path d="M905.326 422.631L824.036 469.718L978.375 558.79" stroke="#003B2F" stroke-width="3.64767" stroke-linecap="round" stroke-linejoin="round"/><path d="M978.377 558.79L1132.72 469.718L1056.99 425.901" stroke="#003B2F" stroke-width="3.64767" stroke-linecap="round" stroke-linejoin="round"/><path d="M978.377 558.789V736.868" stroke="#003B2F" stroke-width="3.64767" stroke-linecap="round" stroke-linejoin="round"/><path d="M1132.72 469.718V647.796L978.377 736.868L888.455 685.008" stroke="#003B2F" stroke-width="3.64767" stroke-linecap="round" stroke-linejoin="round"/><path d="M867.787 580.371L720.511 665.323" stroke="#003B2F" stroke-width="3.64767" stroke-linecap="round" stroke-linejoin="round"/><path d="M1065.68 575.009L1207.07 656.56" stroke="#003B2F" stroke-width="3.64767" stroke-linecap="round" stroke-linejoin="round"/><path d="M1028.73 374.825C1027.29 358.41 1012.12 353.178 992.961 352.067L993.288 329.243L978.377 329.57L978.05 351.805C974.126 351.87 970.137 352.067 966.147 352.197L966.474 329.831L951.564 330.158L951.237 352.982C948.032 353.113 944.828 353.244 941.754 353.309L921.219 353.702L921.023 368.547C921.023 368.547 932.01 368.089 931.813 368.285C937.83 368.154 939.792 371.359 940.315 374.171L939.923 400.2C940.315 400.2 940.904 400.2 941.492 400.2C940.969 400.2 940.446 400.2 939.923 400.2L939.4 436.626C939.138 438.392 937.961 441.269 933.71 441.335C933.906 441.466 922.854 441.531 922.854 441.531L919.649 458.208L939.007 457.815C942.604 457.75 946.136 457.75 949.667 457.684L949.34 480.77L964.185 480.443L964.512 457.554C968.567 457.554 972.556 457.554 976.415 457.423L976.088 480.181L990.999 479.854L991.326 456.769C1016.37 454.872 1033.97 448.594 1036.52 426.62C1038.54 408.897 1029.78 401.246 1015.59 398.368C1024.29 394.052 1029.78 386.728 1028.73 374.694V374.825ZM1007.15 424.658C1006.89 441.923 975.303 440.615 965.166 440.877L965.624 410.271C975.696 410.075 1007.41 406.674 1007.15 424.658ZM1000.87 381.626C1000.61 397.322 974.257 396.079 965.82 396.276L966.213 368.547C974.649 368.351 1001.07 365.277 1000.81 381.692L1000.87 381.626Z" fill="#003B2F"/><path d="M1348.53 602.541H1272.6C1269.39 602.541 1266.71 605.157 1266.71 608.427L1267.04 627.72L1267.3 628.177C1259.39 630.466 1253.57 637.66 1253.57 646.293C1253.57 656.691 1262.07 665.193 1272.47 665.193C1278.09 665.193 1283.13 662.642 1286.59 658.718L1286.92 659.241H1348.46C1351.67 659.241 1354.35 656.626 1354.35 653.356V608.427C1354.35 605.223 1351.73 602.541 1348.46 602.541H1348.53Z" fill="#E6E8EA"/><path d="M1343.75 602.149L1337.21 583.576C1336.43 581.353 1332.31 580.764 1330.15 581.549L1270.38 602.149H1343.75Z" fill="#03FC9D"/><path d="M1266.58 607.838C1266.58 606.138 1269.26 603.195 1270.38 602.149L1258.02 606.4C1255.79 607.184 1253.96 610.193 1254.75 612.351L1261.61 630.858L1266.52 628.308C1267.96 627.523 1267.11 627 1267.11 625.365L1266.58 607.838Z" fill="#03FC9D"/><path d="M1324.33 602.149L1341.46 595.936L1338.58 587.565L1296.8 602.149H1324.26H1324.33Z" fill="#003B2F"/><path d="M1266.78 611.828L1256.31 615.948L1259.19 624.319L1266.84 621.18V611.828H1266.78Z" fill="#003B2F"/><path d="M1339.24 615.228H1330.48C1329.17 615.228 1328.06 616.34 1328.06 617.648V622.553C1328.06 623.861 1329.17 624.972 1330.48 624.972H1339.24C1340.55 624.972 1341.66 623.861 1341.66 622.553V617.648C1341.66 616.34 1340.55 615.228 1339.24 615.228Z" fill="#003B2F"/><path d="M1296.47 646.227H1305.95C1307.26 646.227 1308.31 645.181 1308.31 643.873C1308.31 642.565 1307.26 641.518 1305.95 641.518H1296.47C1295.16 641.518 1294.12 642.565 1294.12 643.873C1294.12 645.181 1295.16 646.227 1296.47 646.227Z" fill="#003B2F"/><path d="M1324.72 646.227C1326.03 646.227 1327.08 645.181 1327.08 643.873C1327.08 642.565 1326.03 641.518 1324.72 641.518H1315.24C1313.93 641.518 1312.88 642.565 1312.88 643.873C1312.88 645.181 1313.93 646.227 1315.24 646.227H1324.72Z" fill="#003B2F"/><path d="M1343.43 641.518H1333.94C1332.64 641.518 1331.59 642.565 1331.59 643.873C1331.59 645.181 1332.64 646.227 1333.94 646.227H1343.43C1344.74 646.227 1345.78 645.181 1345.78 643.873C1345.78 642.565 1344.74 641.518 1343.43 641.518Z" fill="#003B2F"/><path d="M1287.05 659.176H1348.59C1351.8 659.176 1354.48 656.56 1354.48 653.29V608.362C1354.48 605.157 1351.86 602.476 1348.59 602.476H1272.67C1269.46 602.476 1266.78 605.092 1266.78 608.362L1267.11 627.654" stroke="#003B2F" stroke-width="3.64767" stroke-linecap="round" stroke-linejoin="round"/><path d="M1343.88 602.541L1337.87 584.949C1337.34 583.445 1336.3 582.268 1334.92 581.614C1333.55 580.895 1331.92 580.829 1330.48 581.352L1258.6 605.811C1255.53 606.858 1253.9 610.193 1254.94 613.267L1261.35 631.186" stroke="#003B2F" stroke-width="3.64767" stroke-linecap="round" stroke-linejoin="round"/><path d="M1272.53 665.127C1262.13 665.127 1253.63 656.626 1253.63 646.227C1253.63 635.829 1262.13 627.327 1272.53 627.327C1282.93 627.327 1291.43 635.829 1291.43 646.227C1291.43 656.626 1282.93 665.127 1272.53 665.127Z" fill="#03FC9D"/><path d="M1272.53 665.127C1262.13 665.127 1253.63 656.626 1253.63 646.227C1253.63 635.829 1262.13 627.327 1272.53 627.327C1282.93 627.327 1291.43 635.829 1291.43 646.227C1291.43 656.626 1282.93 665.127 1272.53 665.127Z" stroke="#003B2F" stroke-width="3.64767" stroke-linecap="round" stroke-linejoin="round"/><path d="M1284.57 642.957C1284.24 642.042 1283.52 641.388 1282.54 641.257L1277.18 640.472L1274.76 635.633C1274.37 634.782 1273.52 634.259 1272.53 634.259C1271.55 634.259 1270.7 634.782 1270.31 635.633L1267.89 640.472L1262.53 641.257C1261.61 641.388 1260.83 642.042 1260.5 642.957C1260.17 643.873 1260.5 644.854 1261.15 645.508L1265.08 649.301L1264.16 654.663C1264.03 655.579 1264.36 656.56 1265.14 657.083C1265.93 657.672 1266.91 657.737 1267.76 657.279L1272.6 654.729L1277.44 657.279C1277.83 657.476 1278.22 657.541 1278.62 657.541C1279.14 657.541 1279.66 657.41 1280.05 657.083C1280.84 656.495 1281.23 655.579 1281.04 654.663L1280.12 649.301L1284.04 645.508C1284.7 644.854 1284.96 643.873 1284.7 642.957H1284.57Z" fill="#003B2F"/><path d="M1374.03 160.32V176.996C1374.03 201.651 1359.52 223.233 1338 234.743C1316.42 223.233 1301.97 201.651 1301.97 176.996V160.254C1301.97 160.254 1308.51 159.862 1319.1 156.265C1329.69 152.668 1338 148.613 1338 148.613C1338 148.613 1346.24 152.668 1356.9 156.265C1367.49 159.862 1374.03 160.254 1374.03 160.254V160.32Z" fill="#03FC9D"/><path d="M1297.26 175.1V156.2C1297.26 156.2 1304.65 155.807 1316.61 151.687C1328.58 147.633 1337.93 142.989 1337.93 142.989C1337.93 142.989 1347.28 147.567 1359.25 151.687C1371.22 155.742 1378.61 156.2 1378.61 156.2V175.1C1378.61 202.959 1362.26 227.287 1337.87 240.302" stroke="#003B2F" stroke-width="3.64767" stroke-linecap="round" stroke-linejoin="round"/><path d="M1340.75 194.327L1354.61 177.978C1355.2 177.258 1355.26 176.277 1354.68 175.558C1354.02 174.642 1352.71 174.512 1351.8 175.231L1338.52 186.479C1338.52 186.479 1337.87 186.741 1337.67 186.479L1331.2 182.425C1330.28 181.836 1329.04 181.967 1328.25 182.752C1327.34 183.667 1327.34 185.106 1328.19 186.022L1335.58 194.393C1336.95 195.962 1339.37 195.897 1340.75 194.393V194.327Z" fill="white"/><path d="M1346.04 174.446C1343.56 172.811 1340.62 171.896 1337.48 171.896C1328.85 171.896 1321.85 178.893 1321.85 187.526C1321.85 196.158 1328.85 203.156 1337.48 203.156C1346.11 203.156 1353.17 196.158 1353.17 187.526C1353.17 187.068 1353.17 186.61 1353.17 186.218" stroke="#003B2F" stroke-width="3.64767" stroke-linecap="round" stroke-linejoin="round"/><path d="M1012.58 151.295V166.533M998.846 151.295V166.533M1027.56 140.635L1017.75 116.045M1006.11 116.045L999.173 135.142M1017.75 140.635H980.011L987.532 177.65H1009.31M1042.86 149.725L1044.69 140.57H1035.73" stroke="#003B2F" stroke-width="3.64767" stroke-linecap="round" stroke-linejoin="round"/><path d="M1057.18 174.25C1057.18 162.478 1047.63 152.995 1035.93 152.995C1024.22 152.995 1014.67 162.543 1014.67 174.25C1014.67 185.956 1024.22 195.504 1035.93 195.504C1047.63 195.504 1057.18 185.956 1057.18 174.25Z" fill="#03FC9D" stroke="#003B2F" stroke-width="3.64767" stroke-linecap="round" stroke-linejoin="round"/><path d="M1038.08 187.591V178.174M1032.92 187.591V178.174M1038.08 169.934V160.516M1032.92 169.934V160.516M1042.07 180.593C1038.48 184.19 1032.66 184.19 1029.06 180.593C1025.46 176.997 1025.46 171.176 1029.06 167.579C1032.66 163.982 1038.48 163.982 1042.07 167.579" stroke="#003B2F" stroke-width="3.64767" stroke-linecap="round" stroke-linejoin="round"/><path d="M625.358 143.317H542.76C540.275 143.317 537.986 144.363 536.351 145.998C534.716 147.633 533.67 149.922 533.67 152.407V224.214C533.67 226.699 534.716 228.988 536.351 230.623C537.986 232.258 540.275 233.304 542.76 233.304H625.358C627.843 233.304 630.132 232.258 631.767 230.623C633.402 228.988 634.448 226.699 634.448 224.214V152.407C634.448 149.922 633.402 147.633 631.767 145.998C630.132 144.363 627.843 143.317 625.358 143.317Z" stroke="#003B2F" stroke-width="3.64767" stroke-linecap="round" stroke-linejoin="round"/><path d="M621.369 222.056C622.415 222.056 623.265 221.205 623.265 220.159V218.524C623.265 216.758 623.265 216.431 622.48 215.516L597.237 184.256C596.714 183.602 595.863 183.144 595.013 183.144C594.163 183.144 593.313 183.471 592.724 184.125L577.487 200.343L570.62 194.523L570.424 194.392C569.9 193.934 569.181 193.738 568.462 193.804C567.742 193.804 567.088 194.131 566.565 194.588L566.434 194.719L545.311 216.758C544.853 217.216 544.853 217.151 544.853 217.936V220.224C544.853 221.271 545.703 222.121 546.75 222.121H621.303L621.369 222.056Z" fill="#003B2F"/><path d="M569.377 160.908C567.48 159.012 564.864 157.835 561.921 157.835C558.979 157.835 556.428 159.012 554.466 160.908C552.504 162.805 551.392 165.421 551.392 168.364C551.392 171.307 552.57 173.923 554.466 175.819C556.363 177.716 558.979 178.893 561.921 178.893C564.864 178.893 567.48 177.716 569.377 175.819C571.273 173.923 572.451 171.307 572.451 168.364C572.451 165.421 571.273 162.805 569.377 160.908Z" fill="#03FC9D" stroke="#003B2F" stroke-width="3.64767" stroke-linecap="round" stroke-linejoin="round"/><path d="M682.384 621.442C681.992 610.913 673.228 601.495 663.55 600.776C653.347 600.122 643.145 599.795 632.943 599.795C622.741 599.795 612.539 600.122 602.337 600.776C592.593 601.495 583.895 610.913 583.502 621.442C583.372 625.562 583.306 629.682 583.306 633.802C583.306 637.922 583.372 642.042 583.502 646.162C583.895 656.691 592.658 666.109 602.337 666.828C612.539 667.482 622.741 667.809 632.943 667.809C643.145 667.809 653.347 667.482 663.55 666.828C673.294 666.109 681.992 656.691 682.384 646.162C682.515 642.042 682.58 637.922 682.58 633.802C682.58 629.682 682.515 625.562 682.384 621.442Z" fill="#E6E8EA" stroke="#003B2F" stroke-width="3.64767" stroke-linecap="round" stroke-linejoin="round"/><path d="M646.482 635.829L625.751 647.796C624.247 648.647 622.351 647.6 622.351 645.835V621.833C622.351 620.068 624.247 619.021 625.751 619.872L646.482 631.839C647.987 632.69 647.987 634.848 646.482 635.763V635.829Z" fill="#03FC9D" stroke="#003B2F" stroke-width="3.64767" stroke-linecap="round" stroke-linejoin="round"/><path d="M437.161 496.066H376.319C395.48 496.066 411.283 480.461 411.283 461.102C411.283 441.743 395.678 426.138 376.319 426.138H201.498C182.337 426.138 166.534 441.743 166.534 461.102H112.803C93.6422 461.102 77.8391 476.708 77.8391 496.066C77.8391 515.425 93.4446 531.031 112.803 531.031H227.375C227.375 550.192 242.981 565.995 262.34 565.995H437.161C456.322 565.995 472.125 550.389 472.125 531.031C472.125 511.672 456.52 496.066 437.161 496.066Z" fill="#03FC9D"/><path d="M-45.0288 613.404H258.982C292.475 613.404 319.626 586.252 319.626 552.759C319.626 519.267 292.475 492.115 258.982 492.115L-45.0288 492.115C-78.5217 492.115 -105.673 519.267 -105.673 552.759C-105.673 586.252 -78.5217 613.404 -45.0288 613.404Z" fill="#E6E8EA"/><path d="M305.381 867.422H404.421" stroke="#003B2F" stroke-width="3.64767" stroke-linecap="round" stroke-linejoin="round"/><path d="M230.184 867.422H255.156" stroke="#003B2F" stroke-width="3.64767" stroke-linecap="round" stroke-linejoin="round"/><path d="M248.908 468.614H287.989" stroke="#003B2F" stroke-width="3.64767" stroke-linecap="round" stroke-linejoin="round"/><path d="M154.226 168.364H193.307" stroke="#003B2F" stroke-width="3.64767" stroke-linecap="round" stroke-linejoin="round"/><path d="M85.4883 381.103H368.179" stroke="#03FC9D" stroke-width="3.64767" stroke-linecap="round" stroke-linejoin="round"/><path d="M278.038 146.282H456.536" stroke="#03FC9D" stroke-width="3.64767" stroke-linecap="round" stroke-linejoin="round"/><path d="M338.446 468.501H496.459" stroke="#003B2F" stroke-width="3.64767" stroke-linecap="round" stroke-linejoin="round"/><path d="M243.764 168.251H401.778" stroke="#003B2F" stroke-width="3.64767" stroke-linecap="round" stroke-linejoin="round"/><path d="M750.333 129.332L774.996 136.643" stroke="#003B2F" stroke-width="3.64767" stroke-linecap="round" stroke-linejoin="round"/><path d="M792.972 141.973L817.635 149.285" stroke="#003B2F" stroke-width="3.64767" stroke-linecap="round" stroke-linejoin="round"/><path d="M774.008 172.959L781.319 148.297" stroke="#003B2F" stroke-width="3.64767" stroke-linecap="round" stroke-linejoin="round"/><path d="M786.649 130.32L793.961 105.658" stroke="#003B2F" stroke-width="3.64767" stroke-linecap="round" stroke-linejoin="round"/><path d="M371.613 746.518C380.842 746.518 388.324 739.036 388.324 729.806C388.324 720.576 380.842 713.094 371.613 713.094C362.383 713.094 354.901 720.576 354.901 729.806C354.901 739.036 362.383 746.518 371.613 746.518Z" stroke="#003B2F" stroke-width="3.64767" stroke-linecap="round" stroke-linejoin="round"/><path d="M1531.88 333.814H1642.95C1655.16 333.814 1665.06 323.916 1665.06 311.707V311.631C1665.06 299.422 1655.16 289.524 1642.95 289.524H1531.88C1519.68 289.524 1509.78 299.422 1509.78 311.631V311.707C1509.78 323.916 1519.68 333.814 1531.88 333.814Z" fill="#E6E8EA"/><path d="M1592.12 299.826H1773.94C1793.95 299.826 1810.18 283.599 1810.18 263.582C1810.18 243.565 1793.95 227.338 1773.94 227.338L1592.12 227.338C1572.1 227.338 1555.87 243.565 1555.87 263.582C1555.87 283.599 1572.1 299.826 1592.12 299.826Z" fill="#E6E8EA"/><path d="M1661.25 447.632H1760.28" stroke="#003B2F" stroke-width="3.64767" stroke-linecap="round" stroke-linejoin="round"/><path d="M1586.05 447.632H1611.02" stroke="#003B2F" stroke-width="3.64767" stroke-linecap="round" stroke-linejoin="round"/><path d="M1757.98 211.527L1781.4 234.947" stroke="#003B2F" stroke-width="3.64767" stroke-linecap="round" stroke-linejoin="round"/><path d="M1798.47 252.018L1821.89 275.438" stroke="#003B2F" stroke-width="3.64767" stroke-linecap="round" stroke-linejoin="round"/><path d="M1757.98 275.438L1781.4 252.018" stroke="#003B2F" stroke-width="3.64767" stroke-linecap="round" stroke-linejoin="round"/><path d="M1798.47 234.947L1821.89 211.528" stroke="#003B2F" stroke-width="3.64767" stroke-linecap="round" stroke-linejoin="round"/><path d="M1502.04 587.565L1537.45 608.022" stroke="#003B2F" stroke-width="3.64767" stroke-linecap="round" stroke-linejoin="round"/><path d="M1573 587.565L1552.12 599.557" stroke="#003B2F" stroke-width="3.64767" stroke-linecap="round" stroke-linejoin="round"/><path d="M1537.45 608.023V649.36" stroke="#003B2F" stroke-width="3.64767" stroke-linecap="round" stroke-linejoin="round"/><path d="M1537.52 821.559H1794.15" stroke="#03FC9D" stroke-width="3.64767" stroke-linecap="round" stroke-linejoin="round"/><path d="M1665.83 864.949H1863.77" stroke="#003B2F" stroke-width="3.64767" stroke-linecap="round" stroke-linejoin="round"/></g><defs><clipPath id="clip0_885_2391"><rect width="1920" height="1080" fill="white" transform="translate(0 0.25)"/></clipPath></defs></svg>