<svg width="1920" height="1080" viewBox="0 0 1920 1080" fill="none" xmlns="http://www.w3.org/2000/svg"><g clip-path="url(#clip0_775_2)"><path d="M121.433 240.015L287.846 240.015C309.445 240.015 326.954 222.506 326.954 200.907V200.791C326.954 179.192 309.445 161.682 287.846 161.682L121.433 161.682C99.8337 161.682 82.3243 179.192 82.3243 200.791V200.907C82.3243 222.506 99.8337 240.015 121.433 240.015Z" fill="#03FC9D"/><path d="M194.081 198.817L339.605 198.817C357.166 198.817 371.402 184.607 371.402 167.078C371.402 149.549 357.166 135.339 339.605 135.339L194.081 135.339C176.519 135.339 162.283 149.549 162.283 167.078C162.283 184.607 176.519 198.817 194.081 198.817Z" fill="#03FC9D"/><path d="M249.907 239.667L391.253 239.667C406.828 239.667 419.453 227.041 419.453 211.467C419.453 195.892 406.828 183.267 391.253 183.267L249.907 183.267C234.332 183.267 221.707 195.892 221.707 211.467C221.707 227.041 234.332 239.667 249.907 239.667Z" fill="#03FC9D"/><path d="M-13.8613 463.466H248.64" stroke="#03FC9D" stroke-width="3.48145" stroke-linecap="round" stroke-linejoin="round"/><path d="M147.551 514.179H294.352" stroke="#003B2F" stroke-width="3.48145" stroke-linecap="round" stroke-linejoin="round"/><path d="M957.098 967.232H920.774" stroke="#003B2F" stroke-width="3.48145" stroke-linecap="round" stroke-linejoin="round"/><path d="M957.096 1017.95H846.386" stroke="#03FC9D" stroke-width="3.48145" stroke-linecap="round" stroke-linejoin="round"/><path d="M874.01 967.348H727.209" stroke="#003B2F" stroke-width="3.48145" stroke-linecap="round" stroke-linejoin="round"/><path d="M556.898 543.754V556.984" stroke="#003B2F" stroke-width="3.48145" stroke-linecap="round" stroke-linejoin="round"/><path d="M556.898 566.615V579.729" stroke="#003B2F" stroke-width="3.48145" stroke-linecap="round" stroke-linejoin="round"/><path d="M539.026 561.742H552.14" stroke="#003B2F" stroke-width="3.48145" stroke-linecap="round" stroke-linejoin="round"/><path d="M561.771 561.742H574.884" stroke="#003B2F" stroke-width="3.48145" stroke-linecap="round" stroke-linejoin="round"/><path d="M1562.41 697.304H1689.6C1703.64 697.304 1715.01 685.925 1715.01 671.889C1715.01 657.853 1703.64 646.474 1689.6 646.474H1562.41C1548.37 646.474 1537 657.853 1537 671.889C1537 685.925 1548.37 697.304 1562.41 697.304Z" fill="#E6E8EA"/><path d="M1627.86 764.148H1830.36C1852.67 764.148 1870.75 746.067 1870.75 723.763C1870.75 701.459 1852.67 683.378 1830.36 683.378H1627.86C1605.56 683.378 1587.48 701.459 1587.48 723.763C1587.48 746.067 1605.56 764.148 1627.86 764.148Z" fill="#03FC9D"/><path d="M184.103 864.877H317.675C332.352 864.877 344.25 852.979 344.25 838.302V838.186C344.25 823.509 332.352 811.611 317.675 811.611H184.103C169.426 811.611 157.528 823.509 157.528 838.186V838.302C157.528 852.979 169.426 864.877 184.103 864.877Z" fill="#E6E8EA"/><path d="M108.558 933.926H251.994C275.387 933.926 294.352 914.962 294.352 891.569C294.352 868.175 275.387 849.211 251.994 849.211H108.558C85.1648 849.211 66.2006 868.175 66.2006 891.569C66.2006 914.962 85.1648 933.926 108.558 933.926Z" fill="#E6E8EA"/><path d="M1528.17 865.341L1543.49 880.66" stroke="#003B2F" stroke-width="3.48145" stroke-linecap="round" stroke-linejoin="round"/><path d="M1554.75 891.917L1570.06 907.235" stroke="#003B2F" stroke-width="3.48145" stroke-linecap="round" stroke-linejoin="round"/><path d="M1528.17 907.235L1543.49 891.917" stroke="#003B2F" stroke-width="3.48145" stroke-linecap="round" stroke-linejoin="round"/><path d="M1554.75 880.66L1570.06 865.342" stroke="#003B2F" stroke-width="3.48145" stroke-linecap="round" stroke-linejoin="round"/><path d="M1359.09 386.91L1386.01 402.113" stroke="#003B2F" stroke-width="3.48145" stroke-linecap="round" stroke-linejoin="round"/><path d="M1412.81 386.91L1397.03 395.846" stroke="#003B2F" stroke-width="3.48145" stroke-linecap="round" stroke-linejoin="round"/><path d="M1386.01 402.113V432.866" stroke="#003B2F" stroke-width="3.48145" stroke-linecap="round" stroke-linejoin="round"/><path d="M675.218 172.475L702.025 187.677" stroke="#003B2F" stroke-width="3.48145" stroke-linecap="round" stroke-linejoin="round"/><path d="M728.943 172.475L713.16 181.41" stroke="#003B2F" stroke-width="3.48145" stroke-linecap="round" stroke-linejoin="round"/><path d="M702.021 187.678V218.43" stroke="#003B2F" stroke-width="3.48145" stroke-linecap="round" stroke-linejoin="round"/><path d="M1552.32 247.733H1426.75" stroke="#003B2F" stroke-width="3.48145" stroke-linecap="round" stroke-linejoin="round"/><path d="M1647.7 247.733H1616.02" stroke="#003B2F" stroke-width="3.48145" stroke-linecap="round" stroke-linejoin="round"/><path d="M1816.21 364.709H1754.12" stroke="#003B2F" stroke-width="3.48145" stroke-linecap="round" stroke-linejoin="round"/><path d="M1825.02 310.283H1488.6" stroke="#03FC9D" stroke-width="3.48145" stroke-linecap="round" stroke-linejoin="round"/><path d="M696.691 877.527L1392.17 719.121L1416.19 713.667C1422.81 712.159 1426.98 705.544 1425.47 698.929L1387.18 531.007C1385.67 524.392 1379.05 520.215 1372.44 521.723L1348.42 527.178L652.941 685.583C639.711 688.601 631.472 701.83 634.373 715.06L667.099 858.96C670.116 872.189 683.345 880.429 696.575 877.527H696.691Z" fill="#03FC9D"/><path d="M1206.25 747.089L1254.18 736.18C1260.79 734.672 1267.41 738.85 1268.92 745.464C1270.43 752.079 1266.25 758.694 1259.63 760.202L1211.71 771.111C1205.09 772.62 1198.48 768.442 1196.97 761.827C1195.46 755.212 1199.64 748.598 1206.25 747.089Z" fill="#03FC9D"/><path d="M1086.38 774.36L1134.31 763.452C1140.93 761.943 1147.54 766.121 1149.05 772.735C1150.56 779.35 1146.38 785.965 1139.77 787.474L1091.84 798.382C1085.22 799.891 1078.61 795.713 1077.1 789.098C1075.59 782.483 1079.77 775.869 1086.38 774.36Z" fill="#03FC9D"/><path d="M1248.96 737.341C1250.47 743.956 1246.29 750.571 1239.67 752.079L1191.75 762.988C1185.13 764.496 1178.52 760.319 1177.01 753.704" stroke="#003B2F" stroke-width="3.48145" stroke-linecap="round" stroke-linejoin="round"/><path d="M1129.08 764.612C1130.59 771.227 1126.41 777.842 1119.8 779.35L1071.87 790.259C1065.25 791.768 1058.64 787.59 1057.13 780.975" stroke="#003B2F" stroke-width="3.48145" stroke-linecap="round" stroke-linejoin="round"/><path d="M644.003 849.908L611.278 706.008C608.26 692.778 616.616 679.549 629.845 676.532L1325.32 518.126C1318.71 519.634 1314.53 526.249 1316.04 532.864L1354.33 700.786C1355.84 707.4 1362.46 711.578 1369.07 710.07L673.596 868.475C660.366 871.493 647.137 863.137 644.119 849.908H644.003Z" stroke="#003B2F" stroke-width="3.48145" stroke-linecap="round" stroke-linejoin="round"/><path d="M669.998 684.423L868.905 163.714L1075.7 242.743C1063.05 237.869 1048.32 245.644 1042.86 259.802L853.819 754.632C832.001 811.844 773.165 842.48 722.336 822.984C671.507 803.604 648.065 741.518 669.998 684.423Z" fill="white" stroke="#003B2F" stroke-width="3.71355" stroke-linecap="round" stroke-linejoin="round"/><path d="M1276.16 579.729L964.428 650.724L986.28 746.676L1298.01 675.681L1276.16 579.729Z" fill="#83FCD0" stroke="#003B2F" stroke-width="3.48145" stroke-linecap="round" stroke-linejoin="round"/><path d="M1354.21 700.669L1315.92 532.748C1314.41 526.133 1318.59 519.518 1325.2 518.009L1349.22 512.555C1355.84 511.047 1362.45 515.224 1363.96 521.839L1402.26 689.761C1403.77 696.376 1399.59 702.99 1392.97 704.499L1368.95 709.953C1362.34 711.462 1355.72 707.284 1354.21 700.669Z" stroke="#003B2F" stroke-width="3.48145" stroke-linecap="round" stroke-linejoin="round"/><path d="M757.497 780.279C784.672 780.279 806.702 758.249 806.702 731.074C806.702 703.899 784.672 681.87 757.497 681.87C730.323 681.87 708.293 703.899 708.293 731.074C708.293 758.249 730.323 780.279 757.497 780.279Z" fill="white" stroke="#003B2F" stroke-width="3.48145" stroke-linecap="round" stroke-linejoin="round"/><path d="M965.453 600.055L1089.16 276.28C1094.38 262.586 1088.35 247.5 1075.7 242.742C1063.05 237.984 1048.43 245.179 1043.21 258.757L907.661 613.633L965.453 600.171V600.055Z" fill="#E6E8EA" stroke="#003B2F" stroke-width="3.71355" stroke-linecap="round" stroke-linejoin="round"/><path d="M1261.85 642.529L1240.03 647.519" stroke="#003B2F" stroke-width="3.48145" stroke-linecap="round" stroke-linejoin="round"/><path d="M1224.13 651.117L1202.31 656.107" stroke="#003B2F" stroke-width="3.48145" stroke-linecap="round" stroke-linejoin="round"/><path d="M1186.41 659.704L1165.18 664.578" stroke="#003B2F" stroke-width="3.48145" stroke-linecap="round" stroke-linejoin="round"/><path d="M1148.7 668.292L1125.38 673.63" stroke="#003B2F" stroke-width="3.48145" stroke-linecap="round" stroke-linejoin="round"/><path d="M1110.98 676.879L1089.28 681.869" stroke="#003B2F" stroke-width="3.48145" stroke-linecap="round" stroke-linejoin="round"/><path d="M1073.27 685.467L1051.57 690.457" stroke="#003B2F" stroke-width="3.48145" stroke-linecap="round" stroke-linejoin="round"/><path d="M1035.66 694.054L1014.43 698.928" stroke="#003B2F" stroke-width="3.48145" stroke-linecap="round" stroke-linejoin="round"/><path d="M1216.47 617.695L1046.34 656.455" stroke="#003B2F" stroke-width="3.48145" stroke-linecap="round" stroke-linejoin="round"/><path d="M927.045 370.86L931.687 372.601L943.756 341.035L922.983 333.144L921.243 337.786L937.373 343.937L927.045 370.976V370.86ZM858.461 344.633L863.102 346.374L873.431 319.334L889.561 325.485L891.302 320.843L870.53 312.952L858.461 344.517V344.633ZM887.821 374.573L877.144 370.512L879.929 363.317C881.322 359.835 882.947 359.023 886.08 360.183L887.937 360.88C891.186 362.156 891.882 363.781 890.49 367.378L887.705 374.573H887.821ZM894.087 363.781C894.436 360.183 892.347 356.702 888.633 355.309C886.312 354.381 883.875 354.497 881.554 355.658C878.653 357.05 876.564 359.487 875.055 363.317L871.226 373.529L902.791 385.598L904.532 381.072L891.882 376.314L894.435 369.583C895.712 366.102 897.801 365.29 901.398 366.682L908.942 369.583L910.682 364.941L903.835 362.388C898.845 360.532 896.524 360.996 894.552 364.361L893.971 364.129L894.087 363.781ZM880.626 402.193L885.964 388.267L881.786 386.642L876.448 400.568L866.932 396.971L872.734 381.652L868.557 380.028L861.014 399.872L892.579 411.941L900.47 391.4L896.292 389.776L890.258 405.674L880.626 401.961V402.193ZM876.564 417.975L878.769 418.788C883.295 420.529 884.223 422.733 882.599 426.911L882.25 427.956C880.626 432.133 878.537 433.642 872.27 431.321L863.799 428.072C857.532 425.635 856.952 423.082 858.577 418.788L858.925 417.859C860.549 413.798 862.522 412.985 866.816 414.61L868.673 409.62C862.29 407.647 856.72 410.316 854.399 416.583C853.238 419.6 853.238 422.501 854.399 425.054C856.024 428.884 859.853 432.249 866.236 434.686C872.618 437.123 877.376 437.356 881.206 435.615C883.759 434.454 885.732 432.133 886.776 429.58C887.821 426.911 887.705 424.01 885.848 421.805L886.08 421.225L889.097 422.385L890.722 418.208L874.475 411.941L869.833 424.126L874.011 425.751L877.028 417.859L876.564 417.975ZM846.043 451.978L847.9 447.104C849.641 442.462 851.846 440.373 858.112 442.81L866.468 445.943C872.735 448.38 872.967 451.281 871.226 456.039L869.369 460.913L846.043 451.978ZM875.52 457.084C878.769 448.496 873.547 442.81 864.263 439.212C854.979 435.615 847.204 436.659 843.954 445.131L840.241 454.879L871.806 466.948L875.52 457.084ZM849.641 483.427L854.979 469.501L850.801 467.876L845.463 481.802L835.947 478.205L841.75 462.886L837.572 461.261L830.029 481.106L861.594 493.175L869.485 472.634L865.307 471.01L859.273 486.908L849.641 483.195V483.427ZM821.673 503.271L819.933 507.913L851.498 519.982L859.389 499.209L855.211 497.585L849.061 513.715L821.557 503.271H821.673ZM839.429 551.547L860.201 559.438L872.27 527.873L867.628 526.132L857.3 553.172L841.169 547.021L839.429 551.663V551.547ZM787.091 531.587L807.863 539.478L809.604 534.836L793.474 528.686L803.802 501.646L799.16 499.906L787.091 531.471V531.587Z" fill="#003B2F"/><path d="M1226.66 437.3C1246.09 409.035 1238.93 370.367 1210.67 350.934C1182.4 331.501 1143.74 338.66 1124.3 366.925C1104.87 395.191 1112.03 433.858 1140.29 453.291C1168.56 472.724 1207.23 465.565 1226.66 437.3Z" fill="#8F9F99" stroke="#003B2F" stroke-width="1.94593" stroke-miterlimit="10"/><path d="M1180.38 462.177C1214.68 462.177 1242.48 434.37 1242.48 400.069C1242.48 365.768 1214.68 337.962 1180.38 337.962C1146.08 337.962 1118.27 365.768 1118.27 400.069C1118.27 434.37 1146.08 462.177 1180.38 462.177Z" fill="#E6E8EA" stroke="#003B2F" stroke-width="1.94593" stroke-linecap="round" stroke-linejoin="round"/><path d="M1160.44 453.418C1146.33 448.067 1135.14 437.364 1129.14 423.581C1122.98 409.797 1122.66 394.392 1128.01 380.284C1133.36 366.176 1144.06 354.987 1157.85 348.987C1171.63 342.824 1187.03 342.5 1201.14 347.851C1215.25 353.203 1226.44 363.905 1232.44 377.689C1238.6 391.473 1238.93 406.878 1233.57 420.986C1228.22 435.094 1217.52 446.283 1203.74 452.283C1189.95 458.445 1174.55 458.77 1160.44 453.418Z" stroke="#003B2F" stroke-width="1.94593" stroke-linecap="round" stroke-linejoin="round"/><path d="M1207.95 389.529C1208.27 381.258 1201.14 377.691 1191.73 375.745L1193.51 364.394L1186.06 363.583L1184.27 374.61C1182.33 374.285 1180.22 374.123 1178.43 373.961L1180.22 362.772L1172.76 361.961L1170.97 373.312C1169.51 373.15 1167.73 372.988 1166.11 372.826L1155.73 371.529L1154.6 378.826C1154.6 378.826 1160.11 379.312 1159.95 379.475C1163.03 379.961 1163.68 381.583 1163.84 383.042L1161.89 395.853L1159.14 414.015C1159.14 414.988 1158.16 416.285 1156.06 415.961L1150.7 415.312L1147.95 423.42L1157.68 424.555C1159.46 424.88 1161.24 425.042 1162.87 425.204L1161.08 436.717L1168.54 437.528L1170.33 426.177C1172.27 426.501 1174.38 426.826 1176.16 426.988L1174.38 438.339L1181.84 439.15L1183.62 427.636C1196.27 428.447 1205.51 426.501 1208.27 415.799C1210.54 407.042 1206.65 402.664 1199.84 400.231C1204.54 398.772 1207.62 395.366 1207.95 389.366V389.529ZM1193.84 412.88C1192.54 421.474 1176.81 418.718 1171.78 418.069L1174.22 402.826C1179.24 403.474 1195.3 403.961 1193.84 412.88ZM1193.68 390.988C1192.38 398.772 1179.41 396.339 1175.19 395.853L1177.3 382.069C1181.51 382.556 1194.97 382.88 1193.68 390.988Z" fill="#003B2F"/><path d="M367.546 694.432C385.38 668.493 378.81 633.009 352.871 615.175C326.932 597.341 291.448 603.911 273.614 629.85C255.78 655.789 262.351 691.273 288.289 709.107C314.228 726.941 349.712 720.371 367.546 694.432Z" fill="#8F9F99" stroke="#003B2F" stroke-width="1.78577" stroke-miterlimit="10"/><path d="M325.131 717.254C356.609 717.254 382.127 691.737 382.127 660.259C382.127 628.781 356.609 603.263 325.131 603.263C293.654 603.263 268.136 628.781 268.136 660.259C268.136 691.737 293.654 717.254 325.131 717.254Z" fill="#E6E8EA" stroke="#003B2F" stroke-width="1.78577" stroke-linecap="round" stroke-linejoin="round"/><path d="M306.821 709.219C293.874 704.308 283.606 694.486 278.1 681.837C272.445 669.188 272.147 655.05 277.058 642.104C281.969 629.157 291.79 618.889 304.44 613.382C317.089 607.728 331.226 607.43 344.173 612.341C357.12 617.252 367.388 627.073 372.894 639.723C378.549 652.372 378.847 666.509 373.936 679.456C369.025 692.403 359.203 702.671 346.554 708.177C333.905 713.832 319.767 714.129 306.821 709.219Z" stroke="#003B2F" stroke-width="1.78577" stroke-linecap="round" stroke-linejoin="round"/><path d="M350.432 650.734C350.73 643.145 344.182 639.871 335.551 638.085L337.188 627.668L330.342 626.924L328.705 637.044C326.92 636.746 324.985 636.597 323.348 636.448L324.985 626.18L318.14 625.436L316.503 635.853C315.163 635.704 313.526 635.555 312.038 635.407L302.514 634.216L301.472 640.913C301.472 640.913 306.532 641.359 306.383 641.508C309.211 641.954 309.806 643.443 309.955 644.782L308.169 656.538L305.639 673.205C305.639 674.098 304.746 675.289 302.812 674.991L297.901 674.396L295.371 681.837L304.3 682.878C305.937 683.176 307.574 683.325 309.062 683.473L307.425 694.039L314.27 694.783L315.907 684.366C317.693 684.664 319.628 684.962 321.265 685.11L319.628 695.527L326.473 696.271L328.11 685.706C339.718 686.45 348.2 684.664 350.73 674.842C352.813 666.806 349.242 662.788 342.992 660.556C347.307 659.217 350.135 656.092 350.432 650.586V650.734ZM337.485 672.164C336.295 680.051 321.86 677.521 317.247 676.926L319.479 662.937C324.092 663.532 338.825 663.979 337.485 672.164ZM337.337 652.074C336.146 659.217 324.241 656.985 320.372 656.538L322.306 643.889C326.176 644.335 338.527 644.633 337.337 652.074Z" fill="#003B2F"/><path d="M1307.99 220.743C1297.29 229.824 1269.07 214.095 1244.91 185.717C1220.91 157.176 1210.05 126.852 1220.75 117.771L1234.05 106.906C1231.78 108.852 1230.48 111.771 1229.99 115.177C1228.21 128.636 1239.07 152.474 1258.05 175.176C1276.86 197.392 1298.1 211.825 1311.72 212.96C1315.61 213.284 1318.86 212.473 1321.29 210.365L1307.67 220.743H1307.99Z" fill="#8F9F99"/><path d="M1321.45 210.365C1319.02 212.473 1315.77 213.284 1311.88 212.96C1298.26 211.987 1276.85 197.392 1258.21 175.176C1239.07 152.636 1228.37 128.636 1230.15 115.177C1230.48 111.609 1231.77 108.852 1234.21 106.906C1245.07 97.6633 1273.45 113.555 1297.61 142.095C1321.77 170.636 1332.64 201.122 1321.77 210.365H1321.45Z" fill="#E6E8EA"/><path d="M1321.45 210.365L1307.83 220.743C1297.13 229.824 1268.91 214.095 1244.75 185.717C1220.75 157.176 1209.89 126.852 1220.59 117.771L1233.89 106.906" stroke="#003B2F" stroke-width="1.94593" stroke-linecap="round" stroke-linejoin="round"/><path d="M1321.45 210.365C1319.02 212.473 1315.77 213.284 1311.88 212.96C1298.26 211.987 1276.85 197.392 1258.21 175.176C1239.07 152.636 1228.37 128.636 1230.15 115.177C1230.48 111.609 1231.77 108.852 1234.21 106.906C1245.07 97.6633 1273.45 113.555 1297.61 142.095C1321.77 170.636 1332.64 201.122 1321.77 210.365H1321.45Z" stroke="#003B2F" stroke-width="1.94593" stroke-linecap="round" stroke-linejoin="round"/><path d="M1311.88 212.797C1298.26 211.824 1277.02 197.23 1258.21 175.014C1239.07 152.474 1228.37 128.474 1230.15 115.014C1230.64 111.447 1231.94 108.69 1234.21 106.744C1245.07 97.501 1273.29 113.393 1297.61 141.933C1321.77 170.473 1332.64 201.122 1321.77 210.203C1319.34 212.311 1316.1 213.122 1312.21 212.797H1311.88Z" stroke="#003B2F" stroke-width="1.94593" stroke-linecap="round" stroke-linejoin="round"/><path d="M1235.18 120.852C1235.02 119.068 1235.02 117.284 1235.18 115.825C1235.51 113.392 1236.16 111.771 1237.45 110.798C1240.86 108.041 1248.8 109.5 1258.37 114.852C1269.72 121.176 1282.37 132.041 1293.56 145.5C1308.8 163.5 1319.18 182.959 1320.48 196.419C1320.8 199.175 1320.8 204.365 1318.21 206.473C1316.91 207.608 1314.97 207.932 1312.37 207.77C1299.88 206.797 1279.29 192.04 1262.1 171.932C1246.86 153.933 1236.64 134.473 1235.18 121.014V120.852Z" stroke="#003B2F" stroke-width="1.94593" stroke-linecap="round" stroke-linejoin="round"/><path fill-rule="evenodd" clip-rule="evenodd" d="M1277.83 172.743L1277.5 176.311L1271.02 166.257L1271.34 162.689L1251.72 131.878L1258.69 126.365L1273.12 149.068L1273.45 145.5L1279.94 155.554L1279.61 159.122L1287.72 171.77L1298.26 163.5L1306.53 176.635L1289.02 190.419L1277.83 172.905V172.743Z" fill="#003B2F"/><path d="M1608.4 478.777C1585.65 502.847 1560.26 517.19 1546.24 514.717C1543.61 514.388 1541.46 513.233 1539.81 511.585C1528.77 501.199 1541.46 469.545 1568.17 441.024C1595.04 412.502 1625.71 397.665 1636.92 408.216L1638.24 409.7C1639.56 411.513 1640.55 413.821 1640.88 416.624C1642.69 430.967 1630.16 455.861 1608.73 478.777H1608.4Z" fill="#E6E8EA"/><path d="M1638.07 409.535L1647.13 419.592C1658.18 429.978 1645.49 461.632 1618.78 490.153C1592.07 518.674 1561.24 533.347 1550.03 522.961L1548.71 521.642L1539.64 511.585C1541.29 513.234 1543.6 514.223 1546.07 514.718C1560.09 517.191 1585.64 503.012 1608.23 478.778C1629.82 455.697 1642.19 430.803 1640.37 416.624C1640.04 413.822 1639.22 411.514 1637.74 409.7L1638.07 409.535Z" fill="#8F9F99"/><path d="M1638.07 409.535L1647.13 419.592C1658.18 429.978 1645.49 461.632 1618.78 490.153C1592.07 518.674 1561.24 533.347 1550.03 522.961L1548.71 521.642L1539.64 511.585" stroke="#003B2F" stroke-width="1.97835" stroke-linecap="round" stroke-linejoin="round"/><path d="M1638.07 409.535C1639.39 411.349 1640.38 413.657 1640.71 416.46C1642.53 430.803 1630 455.697 1608.56 478.613C1585.81 502.683 1560.42 517.026 1546.41 514.553C1543.77 514.223 1541.63 513.069 1539.98 511.42" stroke="#003B2F" stroke-width="1.97835" stroke-linecap="round" stroke-linejoin="round"/><path d="M1546.24 514.718C1543.61 514.388 1541.46 513.399 1539.81 511.75C1528.77 501.364 1541.46 469.71 1568.17 441.024C1595.04 412.503 1625.71 397.83 1636.92 408.216L1638.24 409.7C1639.72 411.514 1640.55 413.987 1640.88 416.789C1642.69 430.967 1630.16 456.027 1608.73 478.942C1585.98 503.177 1560.59 517.355 1546.57 514.883L1546.24 514.718Z" stroke="#003B2F" stroke-width="1.97835" stroke-linecap="round" stroke-linejoin="round"/><path d="M1541.63 504.991C1538.33 494.934 1547.89 470.534 1571.96 444.816C1584.49 431.462 1598.17 420.911 1610.54 414.976C1620.93 410.03 1629.5 409.041 1632.96 412.173L1633.95 413.162C1633.95 413.162 1634.44 414.151 1634.77 414.811C1634.94 415.47 1635.1 416.295 1635.27 417.119C1636.59 427.835 1627.52 450.421 1604.44 474.986C1581.19 499.715 1557.62 511.091 1547.07 509.277C1545.42 509.112 1544.26 508.453 1543.44 507.628C1542.62 506.804 1542.12 505.98 1541.63 504.826V504.991Z" stroke="#003B2F" stroke-width="1.97835" stroke-linecap="round" stroke-linejoin="round"/><path d="M1603.78 428.99L1598.01 440.695C1597.18 442.508 1596.03 444.487 1595.2 446.465C1592.57 451.741 1594.22 454.049 1599.16 451.246C1599.33 451.246 1599.49 451.081 1599.66 450.916C1605.1 447.949 1610.54 444.816 1615.81 441.849H1616.14L1618.78 444.157C1618.78 444.157 1618.45 444.322 1618.29 444.487C1611.03 448.608 1603.94 452.4 1596.85 456.522C1592.73 458.83 1589.76 459.324 1588.45 457.841C1587.13 456.687 1587.62 453.719 1589.43 450.092C1593.06 442.508 1597.02 434.76 1600.81 427.011V426.682L1603.61 429.155L1603.78 428.99Z" fill="#003B2F"/><path d="M1554.82 475.646C1555.97 474.987 1556.96 474.492 1558.12 473.833C1564.22 470.371 1570.48 466.909 1576.58 463.447C1580.7 461.139 1583.67 460.644 1584.99 462.128C1586.31 463.282 1585.81 466.084 1584.17 469.711C1580.37 477.46 1576.58 485.373 1572.62 493.287H1572.3C1572.3 493.287 1570.65 491.968 1569.99 491.308C1569.99 491.308 1569.99 490.979 1569.99 490.649C1572.79 484.879 1575.59 479.109 1578.4 473.503C1580.87 468.228 1579.05 466.249 1573.78 469.217C1568.34 472.184 1562.73 475.317 1557.29 478.614C1556.96 478.779 1556.63 478.779 1556.63 478.614L1554.49 476.471H1554.33L1554.98 475.646H1554.82Z" fill="#003B2F"/><path d="M623.693 391.768C597.001 408.826 569.994 416.091 557.516 410.563C555.305 409.615 553.41 408.036 552.146 406.141C544.249 393.821 563.518 367.445 595.106 347.229C626.694 327.013 658.756 320.537 666.653 332.698L667.443 334.278C668.233 336.331 668.548 338.7 668.233 341.385C666.495 355.126 649.122 375.184 623.693 391.61V391.768Z" fill="#E6E8EA"/><path d="M667.446 334.436L673.448 345.966C681.345 358.285 662.076 384.662 630.488 404.878C598.9 425.094 566.838 431.57 558.941 419.408L558.151 417.829L552.149 406.299C553.413 408.195 555.15 409.774 557.519 410.722C569.997 416.25 597.005 408.984 623.696 391.927C649.125 375.501 666.498 355.443 668.236 341.702C668.552 339.017 668.236 336.648 667.446 334.594V334.436Z" fill="#8F9F99"/><path d="M667.446 334.436L673.448 345.966C681.345 358.285 662.076 384.662 630.488 404.878C598.9 425.094 566.838 431.57 558.941 419.408L558.151 417.829L552.149 406.299" stroke="#003B2F" stroke-width="1.89529" stroke-linecap="round" stroke-linejoin="round"/><path d="M667.446 334.436C668.236 336.49 668.552 338.859 668.236 341.544C666.498 355.285 649.125 375.343 623.696 391.769C597.005 408.826 569.997 416.092 557.519 410.564C555.308 409.616 553.413 408.037 552.149 406.141" stroke="#003B2F" stroke-width="1.89529" stroke-linecap="round" stroke-linejoin="round"/><path d="M557.516 410.563C555.305 409.615 553.41 408.193 552.146 406.298C544.249 393.979 563.518 367.603 595.106 347.228C626.694 327.012 658.756 320.536 666.653 332.856L667.443 334.435C668.233 336.488 668.548 338.857 668.233 341.542C666.495 355.125 649.122 375.342 623.693 391.768C597.001 408.983 569.994 416.09 557.516 410.563Z" stroke="#003B2F" stroke-width="1.89529" stroke-linecap="round" stroke-linejoin="round"/><path d="M555.624 400.455C554.992 390.346 569.523 369.814 597.952 351.651C612.641 342.175 627.961 335.541 640.754 333.014C651.494 330.803 659.707 331.908 662.234 335.699L662.866 336.962C662.866 336.962 663.182 337.91 663.182 338.7C663.182 339.332 663.182 340.121 663.182 340.911C661.918 351.177 648.178 370.13 621.012 387.503C593.688 405.035 569.049 410.089 559.731 405.983C558.309 405.351 557.362 404.561 556.73 403.613C556.098 402.666 555.94 401.718 555.782 400.455H555.624Z" stroke="#003B2F" stroke-width="1.89529" stroke-linecap="round" stroke-linejoin="round"/><path d="M641.536 346.754L616.897 362.232L603.314 353.072L641.536 346.754ZM616.897 362.232L595.417 375.657L603.314 352.914L616.897 362.075V362.232ZM591.626 378.027L574.885 388.451L599.524 355.283L591.626 377.869V378.027ZM641.694 346.754L617.055 362.232L612.001 383.081L641.852 346.754H641.694ZM617.055 362.232L595.575 375.657L611.843 383.081L616.897 362.232H617.055ZM591.784 378.027L575.043 388.451L608.052 385.45L591.784 378.027Z" fill="#003B2F"/></g><defs><clipPath id="clip0_775_2"><rect width="1920" height="1080" fill="white"/></clipPath></defs></svg>