<?xml version="1.0" encoding="utf-8"?><!--Generator: Adobe Illustrator 27.7.0, SVG Export Plug-In . SVG Version: 6.00 Build 0)--><svg version="1.1" id="Layer_1" xmlns="http://www.w3.org/2000/svg" xmlns:xlink="http://www.w3.org/1999/xlink" x="0px" y="0px" viewBox="0 0 192 108" style="enable-background:new 0 0 192 108;" xml:space="preserve"><style type="text/css">.st0{fill:#E3E7E3;}
	.st1{fill:#00FF94;}
	.st2{fill:none;stroke:#003D2E;stroke-width:0.4199;stroke-miterlimit:10;}
	.st3{fill:none;stroke:#003D2E;stroke-width:0.4199;stroke-linecap:round;stroke-linejoin:round;stroke-miterlimit:10;}
	.st4{fill:#003C2E;}
	.st5{fill:none;stroke:#003C2E;stroke-width:0.4199;stroke-linecap:round;stroke-linejoin:round;stroke-miterlimit:10;}
	.st6{fill:none;stroke:#00FF94;stroke-width:0.4199;stroke-miterlimit:10;}</style><path class="st0" d="M105.3,92.9V82.3v-0.9c0-4.9-4-8.9-8.9-8.9s-8.9,4-8.9,8.9v11.5"/><path class="st1" d="M99.2,51.5c0-1.5-1.2-2.8-2.8-2.8s-2.8,1.2-2.8,2.8v3.3h5.5v-3L99.2,51.5L99.2,51.5z"/><path class="st1" d="M70.7,69.8c0-1.5-1.2-2.8-2.8-2.8s-2.8,1.2-2.8,2.8v3.3h5.5V70L70.7,69.8L70.7,69.8z"/><path class="st1" d="M127.7,69.8c0-1.5-1.2-2.8-2.8-2.8s-2.8,1.2-2.8,2.8v3.3h5.5V70L127.7,69.8L127.7,69.8z"/><polygon class="st1" points="68.2,36.7 61.1,53.9 75.3,53.9 "/><polygon class="st1" points="125.2,36.7 118.1,53.9 132.2,53.9 "/><polygon class="st1" points="96.7,22.7 87.4,43.8 105.9,43.8 "/><polygon class="st2" points="67.1,37.3 60,54.6 74.1,54.6 "/><polygon class="st2" points="124,37.3 116.9,54.6 131.1,54.6 "/><polygon class="st2" points="95.5,23.4 86.3,44.4 104.8,44.4 "/><g><polygon class="st0" points="106.1,18.4 107.8,16.7 96.7,16.7 96.7,20 107.8,20 	"/><path class="st2" d="M98.3,50.6c0-1.5-1.2-2.8-2.8-2.8s-2.8,1.2-2.8,2.8v3.3h5.5v-3L98.3,50.6L98.3,50.6z"/><path class="st2" d="M104.4,93.2v-10v-0.9c0-4.9-4-8.9-8.9-8.9s-8.9,4-8.9,8.9v10.9"/><g><g><path class="st2" d="M69.8,68.9c0-1.5-1.2-2.8-2.8-2.8s-2.8,1.2-2.8,2.8v3.3h5.5v-3.1L69.8,68.9L69.8,68.9z"/><polyline class="st2" points="74.3,93.2 74.3,62.4 75.9,62.4 75.9,58.4 71.9,58.4 71.9,61.8 69,61.8 69,58.4 65.1,58.4 
				65.1,61.8 62.2,61.8 62.2,58.4 58.2,58.4 58.2,62.4 59.8,62.4 59.8,93.2 			"/><g><line class="st2" x1="61.1" y1="58.1" x2="61.1" y2="54.5"/><line class="st2" x1="73" y1="58.1" x2="73" y2="54.5"/></g><polygon class="st2" points="67.1,37.3 60,54.6 74.1,54.6 			"/></g><g><path class="st2" d="M126.8,68.9c0-1.5-1.2-2.8-2.8-2.8s-2.8,1.2-2.8,2.8v3.3h5.5v-3.1L126.8,68.9L126.8,68.9z"/><polyline class="st2" points="131.3,93.2 131.3,62.4 132.9,62.4 132.9,58.4 128.9,58.4 128.9,61.8 126,61.8 126,58.4 122,58.4 
				122,61.8 119.1,61.8 119.1,58.4 115.2,58.4 115.2,62.4 116.7,62.4 116.7,93.2 			"/><g><line class="st2" x1="118.1" y1="58.1" x2="118.1" y2="54.5"/><line class="st2" x1="129.9" y1="58.1" x2="129.9" y2="54.5"/></g><polygon class="st2" points="124,37.3 116.9,54.6 131.1,54.6 			"/></g></g><polygon class="st2" points="95.5,23.4 86.3,44.4 104.8,44.4 	"/><g><polyline class="st3" points="74.3,66.5 77.6,66.5 77.6,69.9 80.4,69.9 80.4,66.5 84.4,66.5 84.4,69.9 87.3,69.9 87.3,66.5 
			91.3,66.5 91.3,69.9 93,69.9 		"/><polyline class="st3" points="98.1,69.9 99.8,69.9 99.8,66.5 103.7,66.5 103.7,69.9 106.6,69.9 106.6,66.5 110.6,66.5 110.6,69.9 
			113.5,69.9 113.5,66.5 116.7,66.5 		"/><path class="st3" d="M93,69.9c-0.3-0.5-0.5-1.1-0.5-1.7c0-1.7,1.4-3.1,3.1-3.1s3.1,1.4,3.1,3.1c0,0.6-0.2,1.2-0.5,1.7"/></g><g><line class="st2" x1="88.4" y1="66.5" x2="88.4" y2="44.6"/><line class="st2" x1="102.7" y1="66.5" x2="102.7" y2="44.6"/></g><line class="st2" x1="95.5" y1="73.4" x2="95.5" y2="76.5"/><line class="st2" x1="95.5" y1="89.9" x2="95.5" y2="93.2"/><polygon class="st2" points="105,17.5 106.7,15.8 95.5,15.8 95.5,19.2 106.7,19.2 	"/><line class="st2" x1="95.5" y1="14.5" x2="95.5" y2="23.9"/></g><g><path class="st4" d="M98.7,81.5c-0.1-0.9-1-1.2-2.1-1.3V79l-0.9,0v1.3c-0.2,0-0.5,0-0.7,0V79l-0.9,0v1.3c-0.2,0-0.4,0-0.6,0l0,0
		l-1.2,0.1v0.9c0,0,0.6,0,0.6,0c0.3,0,0.5,0.2,0.5,0.3v1.5c0,0,0.1,0,0.1,0c0,0-0.1,0-0.1,0l0,2.1c0,0.1-0.1,0.3-0.3,0.3
		c0,0-0.6,0-0.6,0l-0.2,1l1.1,0c0.2,0,0.4,0,0.6,0v1.3l0.9,0v-1.3c0.2,0,0.5,0,0.7,0v1.3l0.9,0v-1.3c1.4-0.1,2.4-0.5,2.6-1.8
		c0.1-1-0.4-1.5-1.2-1.6C98.4,82.7,98.8,82.2,98.7,81.5z M97.5,84.4c0,1-1.8,0.9-2.4,1v-1.8C95.7,83.6,97.5,83.4,97.5,84.4z
		 M97.1,82c0,0.9-1.5,0.9-2,0.9v-1.6C95.6,81.2,97.1,81,97.1,82z"/></g><path class="st5" d="M139.5,43.9c14.2,11.7,23.6,29.2,24.6,48.8"/><line class="st5" x1="21.3" y1="97.4" x2="13.1" y2="97.4"/><line class="st5" x1="171.3" y1="97.4" x2="24.1" y2="97.4"/><line class="st5" x1="182.2" y1="97.4" x2="174" y2="97.4"/><path class="st5" d="M33.5,56.4c11.8-16.5,30.4-27.9,51.7-29.9"/><path class="st1" d="M167.9,28h-5.7c1.8,0,3.3-1.5,3.3-3.3c0-1.8-1.5-3.3-3.3-3.3h-16.3c-1.8,0-3.3,1.5-3.3,3.3h-5
	c-1.8,0-3.3,1.5-3.3,3.3s1.5,3.3,3.3,3.3h10.7c0,1.8,1.5,3.3,3.3,3.3h16.3c1.8,0,3.3-1.5,3.3-3.3C171.1,29.5,169.7,28,167.9,28z"/><line class="st3" x1="161.7" y1="53" x2="164.2" y2="54.4"/><line class="st3" x1="166.7" y1="53" x2="165.2" y2="53.8"/><line class="st3" x1="164.2" y1="54.4" x2="164.2" y2="57.2"/><line class="st3" x1="36" y1="30.2" x2="38.5" y2="31.6"/><line class="st3" x1="41" y1="30.2" x2="39.5" y2="31"/><line class="st3" x1="38.5" y1="31.6" x2="38.5" y2="34.4"/><line class="st5" x1="28.7" y1="69.9" x2="17" y2="69.9"/><line class="st5" x1="37.5" y1="69.9" x2="34.6" y2="69.9"/><line class="st5" x1="40.3" y1="83.5" x2="34.6" y2="83.5"/><line class="st6" x1="48.1" y1="75.7" x2="22.8" y2="75.7"/><line class="st5" x1="27.1" y1="83.4" x2="19" y2="83.4"/><line class="st6" x1="35" y1="20.6" x2="28.8" y2="20.6"/><line class="st6" x1="55.1" y1="15.8" x2="33.9" y2="15.8"/><line class="st6" x1="177.4" y1="68.4" x2="182.8" y2="68.4"/><line class="st5" x1="185.9" y1="76.1" x2="170.6" y2="76.1"/><circle class="st5" cx="142.3" cy="22.8" r="3.8"/><path class="st4" d="M96.5,67.6c0-0.3-0.3-0.4-0.7-0.4v-0.4l-0.3,0v0.4c-0.1,0-0.2,0-0.2,0v-0.4l-0.3,0v0.4c-0.1,0-0.1,0-0.2,0l0,0
	l-0.4,0v0.3c0,0,0.2,0,0.2,0c0.1,0,0.2,0.1,0.2,0.1v0.5c0,0,0,0,0,0c0,0,0,0,0,0v0.7c0,0,0,0.1-0.1,0.1l-0.2,0l-0.1,0.3l0.4,0
	c0.1,0,0.1,0,0.2,0v0.5l0.3,0v-0.4c0.1,0,0.2,0,0.2,0v0.4l0.3,0v-0.5c0.5-0.1,0.8-0.2,0.9-0.6c0-0.3-0.1-0.5-0.4-0.6
	C96.4,67.9,96.5,67.8,96.5,67.6z M96.1,68.6c0,0.3-0.6,0.3-0.8,0.3v-0.6C95.5,68.3,96.1,68.2,96.1,68.6z M96,67.7
	c0,0.3-0.5,0.3-0.7,0.3v-0.6C95.4,67.5,96,67.4,96,67.7z"/></svg>