<svg width="1920" height="1080" viewBox="0 0 1920 1080" fill="none" xmlns="http://www.w3.org/2000/svg"><g clip-path="url(#clip0_172_313)"><path d="M1541.77 121.077L1525.46 104.768L1509.15 121.077L1525.46 137.386L1541.77 121.077Z" stroke="#003B2F" stroke-width="3.04557" stroke-miterlimit="10" stroke-linecap="round" stroke-linejoin="round"/><path d="M1712.66 190.93H1676.1C1687.66 190.93 1697.04 182.413 1697.04 171.915C1697.04 161.418 1687.66 152.901 1676.1 152.901H1571.12C1559.56 152.901 1550.18 161.418 1550.18 171.915H1517.95C1506.39 171.915 1497.01 180.433 1497.01 190.93C1497.01 201.427 1506.39 209.944 1517.95 209.944H1586.73C1586.73 220.442 1596.11 228.959 1607.68 228.959H1712.66C1724.22 228.959 1733.6 220.442 1733.6 209.944C1733.6 199.447 1724.23 190.93 1712.66 190.93Z" fill="#E6E8EA"/><path d="M1648.85 177.367H1675.06" stroke="#003B2F" stroke-width="3.04557" stroke-miterlimit="10" stroke-linecap="round" stroke-linejoin="round"/><path d="M1611.02 107.695H1800.69" stroke="#03FC9D" stroke-width="3.04557" stroke-miterlimit="10" stroke-linecap="round" stroke-linejoin="round"/><path d="M1708.89 177.236H1814.93" stroke="#003B2F" stroke-width="3.04557" stroke-miterlimit="10" stroke-linecap="round" stroke-linejoin="round"/><path d="M1564.05 750.828V761.914" stroke="#003B2F" stroke-width="3.04557" stroke-miterlimit="10" stroke-linecap="round" stroke-linejoin="round"/><path d="M1564.05 770.025V781.121" stroke="#003B2F" stroke-width="3.04557" stroke-miterlimit="10" stroke-linecap="round" stroke-linejoin="round"/><path d="M1548.92 765.975H1560.01" stroke="#003B2F" stroke-width="3.04557" stroke-miterlimit="10" stroke-linecap="round" stroke-linejoin="round"/><path d="M1568.11 765.975H1579.2" stroke="#003B2F" stroke-width="3.04557" stroke-miterlimit="10" stroke-linecap="round" stroke-linejoin="round"/><path d="M1639.39 765.802H1683.39" stroke="#003B2F" stroke-width="3.04557" stroke-miterlimit="10" stroke-linecap="round" stroke-linejoin="round"/><path d="M1564.05 836.083H1802.73" stroke="#03FC9D" stroke-width="3.04557" stroke-miterlimit="10" stroke-linecap="round" stroke-linejoin="round"/><path d="M1740.22 765.974H1918.31" stroke="#003B2F" stroke-width="3.04557" stroke-miterlimit="10" stroke-linecap="round" stroke-linejoin="round"/><path d="M172.744 443.408L193.464 455.357" stroke="#003B2F" stroke-width="3.04557" stroke-miterlimit="10" stroke-linecap="round" stroke-linejoin="round"/><path d="M214.182 443.408L202.01 450.433" stroke="#003B2F" stroke-width="3.04557" stroke-miterlimit="10" stroke-linecap="round" stroke-linejoin="round"/><path d="M193.463 455.357V479.549" stroke="#003B2F" stroke-width="3.04557" stroke-miterlimit="10" stroke-linecap="round" stroke-linejoin="round"/><path d="M172.744 512.411H322.769" stroke="#03FC9D" stroke-width="3.04557" stroke-miterlimit="10" stroke-linecap="round" stroke-linejoin="round"/><path d="M268.334 555.596H384.116" stroke="#003B2F" stroke-width="3.04557" stroke-miterlimit="10" stroke-linecap="round" stroke-linejoin="round"/><path d="M366.562 509.07H482.345" stroke="#003B2F" stroke-width="3.04557" stroke-miterlimit="10" stroke-linecap="round" stroke-linejoin="round"/><path d="M347.591 897.797H234.59C222.144 897.797 212.043 887.706 212.043 875.25C212.043 862.804 222.134 852.702 234.59 852.702H347.591C360.037 852.702 370.138 862.793 370.138 875.25C370.138 887.696 360.047 897.797 347.591 897.797Z" fill="#03FC9D"/><path d="M289.428 865.189H109.628C89.822 865.189 73.7617 849.128 73.7617 829.322C73.7617 809.516 89.822 793.455 109.628 793.455H289.428C309.235 793.455 325.295 809.516 325.295 829.322C325.295 849.128 309.235 865.189 289.428 865.189Z" fill="#03FC9D"/><path d="M358.761 823.018C365.04 823.018 370.131 817.927 370.131 811.647C370.131 805.368 365.04 800.277 358.761 800.277C352.481 800.277 347.391 805.368 347.391 811.647C347.391 817.927 352.481 823.018 358.761 823.018Z" stroke="#003B2F" stroke-width="3.04557" stroke-miterlimit="10" stroke-linecap="round" stroke-linejoin="round"/><path d="M112.785 834.763L137.911 849.26" stroke="#003B2F" stroke-width="3.04557" stroke-miterlimit="10" stroke-linecap="round" stroke-linejoin="round"/><path d="M163.048 834.763L148.277 843.281" stroke="#003B2F" stroke-width="3.04557" stroke-miterlimit="10" stroke-linecap="round" stroke-linejoin="round"/><path d="M137.906 849.26V878.609" stroke="#003B2F" stroke-width="3.04557" stroke-miterlimit="10" stroke-linecap="round" stroke-linejoin="round"/><path d="M1518.23 531.435V512.989" stroke="#003B2F" stroke-width="3.04557" stroke-miterlimit="10" stroke-linecap="round" stroke-linejoin="round"/><path d="M1518.23 499.508V481.052" stroke="#003B2F" stroke-width="3.04557" stroke-miterlimit="10" stroke-linecap="round" stroke-linejoin="round"/><path d="M1543.42 506.249H1524.97" stroke="#003B2F" stroke-width="3.04557" stroke-miterlimit="10" stroke-linecap="round" stroke-linejoin="round"/><path d="M1511.48 506.249H1493.03" stroke="#003B2F" stroke-width="3.04557" stroke-miterlimit="10" stroke-linecap="round" stroke-linejoin="round"/><path d="M1361.69 523.943H1463.71" stroke="#003B2F" stroke-width="3.04557" stroke-miterlimit="10" stroke-linecap="round" stroke-linejoin="round"/><path d="M1293.67 526.816H1313.56" stroke="#003B2F" stroke-width="3.04557" stroke-miterlimit="10" stroke-linecap="round" stroke-linejoin="round"/><path d="M1288.32 490.889H1465.41" stroke="#03FC9D" stroke-width="3.04557" stroke-miterlimit="10" stroke-linecap="round" stroke-linejoin="round"/><path d="M1204.45 439.266L1233.01 422.79" stroke="#003B2F" stroke-width="3.04557" stroke-miterlimit="10" stroke-linecap="round" stroke-linejoin="round"/><path d="M1261.58 439.266L1248.98 431.997" stroke="#003B2F" stroke-width="3.04557" stroke-miterlimit="10" stroke-linecap="round" stroke-linejoin="round"/><path d="M1233 422.79V389.421" stroke="#003B2F" stroke-width="3.04557" stroke-miterlimit="10" stroke-linecap="round" stroke-linejoin="round"/><path d="M140.168 238.136H274.721" stroke="#003B2F" stroke-width="3.04557" stroke-miterlimit="10" stroke-linecap="round" stroke-linejoin="round"/><path d="M238.121 159.369V136.892" stroke="#003B2F" stroke-width="3.04557" stroke-miterlimit="10" stroke-linecap="round" stroke-linejoin="round"/><path d="M238.121 120.466V98" stroke="#003B2F" stroke-width="3.04557" stroke-miterlimit="10" stroke-linecap="round" stroke-linejoin="round"/><path d="M207.445 128.679H229.911" stroke="#003B2F" stroke-width="3.04557" stroke-miterlimit="10" stroke-linecap="round" stroke-linejoin="round"/><path d="M246.328 128.679H268.804" stroke="#003B2F" stroke-width="3.04557" stroke-miterlimit="10" stroke-linecap="round" stroke-linejoin="round"/><path d="M124.387 192.26H-48.642C-48.0228 160.921 -48.5608 130.456 -49.1699 99.7969H124.387C149.919 99.7969 170.619 120.497 170.619 146.029C170.619 171.561 149.919 192.26 124.387 192.26Z" fill="#03FC9D"/><path d="M80.4032 288.642C89.8842 288.642 97.57 280.956 97.57 271.475C97.57 261.994 89.8842 254.308 80.4032 254.308C70.9222 254.308 63.2363 261.994 63.2363 271.475C63.2363 280.956 70.9222 288.642 80.4032 288.642Z" stroke="#003B2F" stroke-width="3.04557" stroke-miterlimit="10" stroke-linecap="round" stroke-linejoin="round"/><path d="M797.503 169.712C781.148 170.261 767.23 181.458 755.677 193.062C744.621 204.168 734.145 216.787 730.399 232.004C728.287 240.613 728.439 249.577 728.054 258.43C727.059 280.866 722.44 302.956 718.054 324.772C718.46 343.685 720.541 362.568 724.257 381.126C724.48 382.252 724.703 383.481 724.196 384.516C723.8 385.339 722.998 385.887 722.165 386.273C714.724 389.694 706.552 381.278 698.451 382.486C694.441 383.085 691.07 386.08 689.202 389.673C687.334 393.267 686.776 397.409 686.695 401.46C686.329 419.886 694.999 437.154 703.76 453.366C707.709 460.676 711.719 467.955 715.79 475.193C720.196 483.02 725.302 491.365 733.698 494.532C736.987 495.781 740.581 496.116 745.18 494.928C750.814 524.186 757.271 555.129 777.656 576.854C782.244 581.747 787.523 586.143 790.873 591.96C793.787 597.026 795.046 602.863 796.264 608.579C799.848 625.411 803.431 642.242 807.015 659.074C810.03 673.226 812.984 688.302 807.858 701.834C806.01 706.717 803.178 711.164 801.005 715.915C796.579 725.579 794.985 736.513 796.447 747.04C797.35 753.548 800.457 760.918 807.259 761.365C820.182 781.74 845.389 791.79 869.51 792.064C893.631 792.338 917.021 784.217 939.325 775.029C965.1 764.4 990.206 752.208 1015.23 739.924C1037.26 729.112 1059.26 718.209 1080.47 705.864C1099.14 694.992 1117.94 682.149 1126.27 660.323C1108.63 653.673 1092.06 644.415 1076.3 634.05C1064.43 626.233 1052.59 617.35 1045.8 604.853C1039.01 592.346 1037.99 577.585 1037.85 563.362C1037.54 535.008 1040.08 506.623 1045.47 479.274C1047.25 474.635 1053.15 473.579 1057.92 472.158C1068.19 469.092 1076.54 461.407 1082.78 452.696C1084.38 450.453 1085.88 448.128 1087.37 445.803C1090.67 440.666 1093.97 435.53 1097.98 430.535C1107.57 410.566 1111.58 387.948 1109.44 365.888C1109.19 363.279 1108.83 360.629 1107.73 358.253C1105.21 352.812 1098.51 349.685 1092.72 351.249C1088.7 352.335 1085.48 355.269 1081.9 357.411C1078.32 359.553 1073.6 360.862 1066.31 355.695C1052.7 330.62 1052.68 300.723 1051.54 272.216C1051.01 258.633 1050.09 244.887 1045.79 231.994C1039.04 211.762 1024.45 195.173 1009.25 180.199C1003.35 174.392 997.282 168.707 990.449 164.038C973.08 152.17 950.979 147.439 930.279 151.165C914.96 153.926 900.808 160.992 886.037 165.885C857.389 175.337 826.029 176.474 797.503 169.712Z" fill="#E6E8EA" stroke="#003B2F" stroke-width="3.04557" stroke-miterlimit="10" stroke-linecap="round" stroke-linejoin="round"/><path d="M1059.11 403.684C1065.16 399.745 1067.76 392.385 1071.22 386.04C1075.43 378.344 1081.39 371.624 1088.55 366.548C1090.8 364.954 1093.22 363.492 1095.93 363.025C1098.64 362.558 1101.7 363.249 1103.45 365.36C1104.66 366.812 1105.13 368.731 1105.52 370.578C1106.82 376.812 1107.58 383.156 1107.8 389.512" stroke="#003B2F" stroke-width="3.04557" stroke-miterlimit="10" stroke-linecap="round" stroke-linejoin="round"/><path d="M1095.19 388.903C1097.57 404.506 1096.2 420.658 1091.22 435.632C1089.94 439.459 1088.35 443.337 1085.41 446.109C1082.54 448.819 1078.68 450.169 1074.95 451.459" stroke="#003B2F" stroke-width="3.04557" stroke-miterlimit="10" stroke-linecap="round" stroke-linejoin="round"/><path d="M1060.59 402.404C1059.19 403.308 1058.97 405.348 1059.55 406.902C1060.13 408.465 1061.31 409.714 1062.24 411.094C1064.02 413.683 1065 416.81 1065.02 419.947C1065.03 421.388 1064.84 422.86 1064.17 424.129C1063.58 425.236 1062.68 426.119 1061.83 427.043C1059.48 429.591 1057.57 432.545 1056.2 435.713C1055.25 437.905 1054.69 440.799 1056.46 442.413C1057.89 443.733 1060.19 443.469 1061.95 442.616C1063.69 441.763 1065.2 440.433 1067 439.712C1068.81 438.992 1071.21 439.093 1072.32 440.687" stroke="#003B2F" stroke-width="3.04557" stroke-miterlimit="10" stroke-linecap="round" stroke-linejoin="round"/><path d="M697.205 436.139C693.693 425.906 691.469 415.226 690.606 404.435C690.434 402.242 690.332 399.947 691.256 397.948C693.083 393.978 699.195 392.932 702.251 396.049C703.174 396.993 703.804 398.191 704.758 399.095C706.981 401.237 710.443 401.409 713.093 402.983C716.057 404.739 717.722 408.069 718.778 411.348C719.834 414.627 720.463 418.089 722.108 421.114C723.752 424.139 726.747 426.769 730.189 426.708" stroke="#003B2F" stroke-width="3.04557" stroke-miterlimit="10" stroke-linecap="round" stroke-linejoin="round"/><path d="M730.985 433.429C728.518 437.094 727.919 441.967 729.442 446.119C730.508 449.012 732.477 451.469 733.919 454.189C735.361 456.91 736.254 460.24 734.985 463.052C733.564 462.494 733.493 460.281 732.142 459.58C730.701 458.839 729.148 460.291 728.082 461.509C726.478 463.346 724.65 465.001 722.65 466.402" stroke="#003B2F" stroke-width="3.04557" stroke-miterlimit="10" stroke-linecap="round" stroke-linejoin="round"/><path d="M705.906 414.363C703.683 429.134 705.176 444.453 710.221 458.524C711.378 461.742 713.145 465.295 716.464 466.117" stroke="#003B2F" stroke-width="3.04557" stroke-miterlimit="10" stroke-linecap="round" stroke-linejoin="round"/><path d="M841.858 429.074C839.046 433.592 837.188 438.688 836.447 443.957C836.041 446.83 836 449.936 837.503 452.413C839.198 455.235 842.873 456.697 846.04 455.824" stroke="#003B2F" stroke-width="3.04557" stroke-miterlimit="10" stroke-linecap="round" stroke-linejoin="round"/><path d="M911.636 419.46C911.505 424.648 914.946 429.125 917.301 433.744C918.489 436.058 919.423 438.505 920.083 441.023C920.753 443.54 921.149 446.22 920.509 448.748C919.87 451.276 918.002 453.631 915.464 454.21" stroke="#003B2F" stroke-width="3.04557" stroke-miterlimit="10" stroke-linecap="round" stroke-linejoin="round"/><path d="M893.553 451.712C890.233 451.052 886.914 450.393 883.594 449.723C883.066 449.621 882.528 449.509 882.081 449.205C881.127 448.565 880.883 447.205 881.279 446.129C881.675 445.053 882.579 444.251 883.553 443.642C887.553 441.154 892.639 441.581 897.33 442.088C900.203 442.403 903.258 442.789 905.471 444.647C906.517 445.52 907.339 446.941 906.852 448.21C906.314 449.631 904.537 450.058 903.025 450.261C899.624 450.728 896.203 451.073 893.553 451.712Z" fill="#003B2F"/><path d="M866.583 451.103C866.411 448.301 865.741 444.94 863.101 443.956C862.066 443.57 860.929 443.651 859.832 443.783C855.406 444.341 851.081 445.732 847.163 447.884C846.584 448.199 845.985 448.575 845.701 449.164C845.285 450.047 845.741 451.143 846.493 451.762C847.244 452.382 848.229 452.635 849.173 452.869C851.477 453.448 853.893 454.026 856.208 453.488C857.507 453.184 858.695 452.544 859.954 452.108C862.025 451.397 864.279 451.214 866.583 451.103Z" fill="#003B2F"/><path d="M887.795 320.571C888.75 326.114 890.354 332.519 895.511 334.753C899.673 336.56 904.475 334.804 908.525 332.773C916.535 328.753 923.987 323.576 932.382 320.469C952.575 312.997 974.909 318.459 996.167 321.931C999.141 322.418 1002.51 322.763 1004.88 320.885C996.421 309.749 986.705 297.82 972.97 295.201C966.655 294.003 960.138 294.957 953.823 296.155C934.098 299.901 914.891 305.982 895.886 312.459C893.531 313.261 891.084 314.124 889.348 315.901C887.613 317.677 886.79 320.642 887.795 320.571Z" fill="#003B2F"/><path d="M851.952 332.824C839.892 331.758 827.821 330.692 815.761 329.626C810.634 329.169 805.507 328.723 800.36 328.814C794.533 328.915 788.747 329.728 782.97 330.53C778.168 331.2 773.316 331.88 768.818 333.697C762.291 336.336 755.763 341.412 749.002 339.433C749.865 335.88 752.342 332.966 754.87 330.316C761.194 323.677 768.311 317.789 776.006 312.794C778.706 311.038 781.549 309.373 784.686 308.652C788.29 307.83 792.056 308.297 795.731 308.784C811 310.774 826.268 312.764 841.536 314.754C843.384 314.997 845.262 315.241 846.988 315.931C853.333 318.439 855.983 327.423 851.952 332.824Z" fill="#003B2F"/><path d="M832.812 510.695C838.893 500.472 848.242 492.239 859.135 487.467C861.247 486.544 863.45 485.742 865.754 485.61C868.272 485.467 870.749 486.127 873.247 486.432C878.932 487.132 884.678 486.016 890.413 485.995C908.413 485.934 924.514 496.492 939.376 506.644C926.107 520.451 907.712 530.187 888.566 529.77C880.16 529.588 871.896 527.496 863.491 527.171C858.871 526.989 854.232 527.344 849.623 526.897C845.014 526.451 840.324 525.111 836.882 522.014C833.441 518.918 831.106 513.568 832.812 510.695Z" fill="#03FC9D" stroke="#003B2F" stroke-width="3.04557" stroke-miterlimit="10" stroke-linecap="round" stroke-linejoin="round"/><path d="M829.584 514.491C831.259 510.907 836.294 511.192 840.233 510.745C844.934 510.217 849.248 507.882 853.888 506.968C859.684 505.821 865.654 506.928 871.532 507.557C878.283 508.288 885.094 508.38 891.856 507.841C896.576 507.466 901.317 506.786 906.038 507.151C910.931 507.537 915.713 509.039 920.626 509.151C925.164 509.253 929.641 508.156 934.159 507.801C938.686 507.446 943.569 507.943 947.112 510.775" stroke="#003B2F" stroke-width="3.04557" stroke-miterlimit="10" stroke-linecap="round" stroke-linejoin="round"/><path d="M1040.95 507.689C1030.7 538.389 1000.78 574.316 972.355 589.808C943.929 605.3 911.261 611.777 878.906 612.619C848.207 613.431 816.31 608.944 790.402 592.458" stroke="#003B2F" stroke-width="3.04557" stroke-miterlimit="10" stroke-linecap="round" stroke-linejoin="round"/><path d="M899.419 342.559C893.997 343.432 890.272 348.914 889.663 354.366C889.054 359.817 890.871 365.228 892.82 370.355C896.068 378.923 899.794 387.379 904.951 394.953C906.941 397.887 909.205 400.719 912.179 402.648C914.819 404.353 917.905 405.247 920.991 405.825C927.6 407.074 934.372 407.013 941.092 406.861C956.624 406.516 972.654 405.643 986.603 398.81C989.202 397.542 991.77 396.009 993.537 393.724C994.877 391.999 995.689 389.928 996.43 387.877C998.765 381.41 1000.54 374.74 1002.21 367.766C1003.31 360.558 1003.59 353.228 1003.04 345.96C1002.74 342.122 1002.09 338.021 999.445 335.239C996.938 332.61 993.141 331.696 989.527 331.28C982.695 330.478 975.781 330.965 968.918 331.483C959.102 332.214 949.285 332.986 939.468 333.798C924.839 335.016 911.337 340.65 899.419 342.559Z" stroke="#003B2F" stroke-width="3.04557" stroke-miterlimit="10" stroke-linecap="round" stroke-linejoin="round"/><path d="M802.714 345.594C789.517 343.868 776.258 347.401 763.416 350.904C757.183 352.599 750.188 354.934 747.569 360.832C745.64 365.167 746.716 370.182 747.813 374.801C749.752 382.953 751.701 391.136 754.736 398.942C756.066 402.374 757.65 405.785 760.117 408.505C765.355 414.282 773.629 416.058 781.375 416.921C798.39 418.82 815.729 417.805 832.398 413.927C835.982 413.094 839.616 412.089 842.642 409.988C848.946 405.602 851.25 397.491 853.118 390.039C854.458 384.709 855.788 379.37 857.128 374.04C858.174 369.867 859.23 365.624 859.128 361.319C859.027 357.015 857.616 352.569 854.418 349.675C850.134 345.797 843.799 345.533 838.022 345.462C825.383 345.351 812.724 345.208 802.714 345.594Z" stroke="#003B2F" stroke-width="3.04557" stroke-miterlimit="10" stroke-linecap="round" stroke-linejoin="round"/><path d="M896.27 364.68C897.824 361.076 895.093 356.923 891.702 354.944C886.169 351.726 879.317 352.213 872.931 352.802C868.698 353.188 864.454 353.584 860.272 354.386C858.942 354.639 857.592 354.944 856.434 355.644C853.886 357.177 852.719 360.67 853.846 363.431" stroke="#003B2F" stroke-width="3.04557" stroke-miterlimit="10" stroke-linecap="round" stroke-linejoin="round"/><path d="M997.883 354.457C1015.51 354.558 1033.13 354.67 1050.75 354.771C1056.65 354.802 1063.77 355.563 1066.36 360.863" stroke="#003B2F" stroke-width="3.04557" stroke-miterlimit="10" stroke-linecap="round" stroke-linejoin="round"/><path d="M754 376.305C744.884 376.66 735.808 377.756 726.864 379.563C724.661 380.01 722.245 380.639 720.986 382.507" stroke="#003B2F" stroke-width="3.04557" stroke-miterlimit="10" stroke-linecap="round" stroke-linejoin="round"/><path d="M807.873 701.825C804.878 710.515 799.203 719.824 799.031 731.265C798.848 742.696 803.924 754.117 812.523 761.65C826.218 773.639 846.207 774.797 864.338 773.223C911.95 769.101 957.207 750.595 999.439 728.21C1041.67 705.825 1081.66 679.379 1123.03 655.38C1142.59 664.08 1161.99 673.146 1181.23 682.546C1231.74 707.256 1281.37 734.555 1325.28 769.68C1337.51 779.456 1349.38 789.933 1358.56 802.623C1368.18 815.902 1374.56 831.211 1380.5 846.489C1405.43 910.649 1423.95 977.093 1442.42 1043.42C1447.38 1061.24 1452.35 1079.06 1440.93 1096.95C1156.15 1127.09 870.023 1144.49 584.4 1148C570.207 1123.3 572.684 1092.82 575.588 1064.49C580.867 1012.96 586.136 961.439 591.414 909.908C593.11 893.35 594.866 876.519 601.201 861.128C616.896 822.967 656.519 801.496 692.182 780.735C733.866 756.462 768.25 729.732 807.873 701.825Z" fill="#03FC9D" stroke="#003B2F" stroke-width="3.04557" stroke-miterlimit="10" stroke-linecap="round" stroke-linejoin="round"/><path d="M788.419 715.691C778.511 735.883 781.547 771.933 798.226 787.018C814.906 802.104 838.692 807.444 861.127 805.779C883.553 804.114 905.004 796.135 925.714 787.353C998.239 756.593 1075.38 705.448 1142.49 664.201" stroke="#003B2F" stroke-width="3.04557" stroke-miterlimit="10" stroke-linecap="round" stroke-linejoin="round"/><path d="M1003.26 200.819C1015.07 208.808 1025.72 216.016 1038.84 219.59C1029.02 210.24 1017.08 202.159 1003.26 200.819Z" fill="#003B2F"/><path d="M999.885 198.291C1010.06 202.433 1020.56 205.377 1031.26 207.722C1022.75 200.311 1011.05 197.001 999.885 198.291Z" fill="#003B2F"/><path d="M832.576 188.179C846.098 193.58 860.788 197.153 873.224 204.777C872.016 202.646 870.483 200.798 868.818 199.082C869.103 199.184 869.356 199.285 869.641 199.387C860.392 189.194 847.266 183.773 833.845 181.865C837.063 184.21 840.17 186.179 843.225 187.935C839.622 187.631 836.008 187.692 832.576 188.179Z" fill="#003B2F"/><path d="M878.424 200.91C876.394 196.798 873.572 193.296 870.303 190.281C864.577 181.895 856.344 175.459 846.902 171.754C850.141 175.622 853.765 179.104 857.684 182.22C852.912 180.21 847.816 178.931 842.689 178.494C854.395 186.322 866.932 192.788 878.424 200.91Z" fill="#003B2F"/><path d="M851.969 171.744C859.786 180.16 870.039 185.246 880.435 189.713C873.318 180.667 862.659 175.358 851.969 171.744Z" fill="#003B2F"/><path d="M860.396 167.114C869.137 177.144 880.802 183.225 892.395 189.204C884.984 178.23 872.548 171.601 860.396 167.114Z" fill="#003B2F"/><path d="M864.6 165.419C873.543 173.581 883.939 178.829 894.507 182.789C886.802 173.916 875.919 168.221 864.6 165.419Z" fill="#003B2F"/><path d="M912.64 184.728C912.315 183.195 911.777 181.825 911.209 180.464C911.473 180.637 911.726 180.83 911.99 181.002C911.493 180.109 910.833 179.337 910.275 178.495C908.549 175.236 906.153 172.515 903.31 170.211C899.016 166.262 894.042 163.034 888.611 160.79C889.301 161.643 890.052 162.414 890.783 163.216C887.271 161.866 883.646 160.8 880.174 159.947C881.311 161.034 882.519 162.039 883.748 163.013C881.657 162.607 879.565 162.252 877.646 162.059C884.012 165.511 890.052 169.632 896.763 172.383C897.534 172.729 898.346 173.053 899.138 173.388C904.113 176.627 908.853 180.109 912.64 184.728Z" fill="#003B2F"/><path d="M910.446 167.601C906.781 162.657 902.263 158.373 896.639 155.734C897.604 157.043 898.639 158.394 899.685 159.734C896.568 157.957 893.38 156.363 890.314 154.891C897.289 164.718 908.233 169.815 917.085 177.449C915.654 173.601 913.288 170.393 910.446 167.601Z" fill="#003B2F"/><path d="M874.295 162.891C883.208 172.768 894.091 180.332 905.218 187.478C898.68 175.57 886.944 167.317 874.295 162.891Z" fill="#003B2F"/><path d="M905.049 154.465C912.622 163.277 917.566 173.977 924.246 183.449C922.987 171.449 916.845 159.033 905.049 154.465Z" fill="#003B2F"/><path d="M916.432 151.52C917.619 160.434 920.746 168.972 925.568 176.565C924.939 167.52 921.782 158.83 916.432 151.52Z" fill="#003B2F"/><path d="M733.348 275.323C735.47 272.186 737.348 268.907 738.607 265.303C729.836 273.201 721.531 281.647 716.09 292.287C719.562 289.911 722.81 287.13 725.876 284.155C723.074 287.84 720.435 291.647 718.171 295.708C729.084 288.764 737.825 278.734 742.404 266.562C739.216 269.313 736.231 272.267 733.348 275.323Z" fill="#003B2F"/><path d="M748.709 272.461C736.263 279.516 726.7 290.531 719.756 302.917C722.294 301.313 724.639 299.505 726.943 297.638C724.294 300.876 721.918 304.328 720.162 308.094C729.491 301.292 737.4 292.815 744.07 284.267C741.501 285.374 739.075 286.755 736.781 288.328C741.217 283.425 745.196 278.095 748.709 272.461Z" fill="#003B2F"/><path d="M717.555 322.895C728.509 314.489 737.625 304.266 744.498 292.266C732.772 299.474 723.128 310.306 717.555 322.895Z" fill="#003B2F"/><path d="M716.744 338.62C724.734 327.189 733.657 316.499 739.444 303.646C728.246 311.981 718.287 324.356 716.744 338.62Z" fill="#003B2F"/><path d="M715.314 359.929C719.547 351.127 724.339 343.229 727.232 334.833C720.197 341.138 714.765 350.244 715.314 359.929Z" fill="#003B2F"/><path d="M716.146 366.548C720.877 358.011 723.892 351.239 726.786 342.001C720.217 348.407 716.268 357.341 716.146 366.548Z" fill="#003B2F"/><path d="M718.605 374.903C722.838 366.568 726.097 359.594 728.066 350C722.635 356.498 718.798 364.558 717.945 373.025C717.925 372.964 717.904 372.913 717.884 372.852C717.853 373.106 717.894 373.39 717.884 373.654C717.793 374.751 717.559 375.827 717.579 376.933C717.721 376.659 717.833 376.426 717.965 376.152C718.32 378.984 719.356 381.898 720.686 383.491C720.452 380.547 719.64 377.685 718.605 374.903Z" fill="#003B2F"/><path d="M722.928 380.852C725.598 374.892 727.679 368.649 729.334 361.38C724.644 366.68 722.38 373.816 722.928 380.852Z" fill="#003B2F"/><path d="M1050.76 343.869C1052.72 353.229 1057.73 361.908 1064.8 368.335C1061.82 359.655 1056.81 350.894 1050.76 343.869Z" fill="#003B2F"/><path d="M739.322 249.913C738.195 250.837 737.19 251.944 736.124 252.959C738.946 249.578 741.606 246.056 744.043 242.381C734.439 247.446 726.541 256.746 722.419 266.156C725.272 264.055 727.871 261.69 730.368 259.223C725.597 265.172 721.769 271.933 719.82 279.171C720.724 278.227 721.536 277.232 722.409 276.268C720.916 278.714 719.546 281.232 718.389 283.851C728.277 276.217 736.398 266.715 741.687 255.324C738.083 257.994 734.794 261.08 731.698 264.349C734.652 259.822 737.261 255.05 739.322 249.913Z" fill="#003B2F"/><path d="M740.841 230.635C744.08 227.884 747.328 225.143 750.851 222.818C739.45 223.691 730.212 233.711 724.7 242.543C728.466 240.563 731.816 238.025 735.085 235.366C729.877 240.36 725.685 246.533 722.649 252.928C724.832 251.355 726.852 249.639 728.842 247.883C725.461 251.802 722.619 256.208 720.629 261.02C729.573 253.822 737.176 245.254 744.242 236.239C740.943 237.67 737.978 239.629 735.187 241.812C740.029 236.838 744.557 231.549 749.196 226.341C746.212 227.417 743.43 228.879 740.841 230.635Z" fill="#003B2F"/><path d="M769.227 181.611C778.962 185.448 787.977 191.671 798.423 193.844C790.454 186.93 780.231 180.24 769.227 181.611Z" fill="#003B2F"/><path d="M776.285 177.834C782.518 179.256 787.056 184.423 792.721 187.113C795.513 188.423 803.949 192.595 804.223 191.397C796.569 185.113 787.797 176.098 776.285 177.834Z" fill="#003B2F"/><path d="M810.714 186.697C814.582 189.316 818.784 191.022 823.109 190.605C814.551 186.423 807.983 178.768 798.917 175.256C801.313 178.261 804.257 181.53 807.536 184.301C802.359 180.413 796.897 176.971 790.44 175.256C791.334 176.108 792.288 176.992 793.293 177.885C790.643 176.789 787.882 175.895 785.029 175.256C792.938 182.098 804.815 190.504 814.115 192.89C812.957 191.61 811.658 190.484 810.409 189.306C812.145 189.956 813.861 190.453 815.485 190.575C813.901 189.265 812.307 187.976 810.714 186.697Z" fill="#003B2F"/><path d="M826.116 191.61C826.634 191.945 827.152 192.199 827.669 192.473C836.583 197.397 846.552 200.128 856.734 200.625C848.826 195.803 839.963 192.798 831.131 191.265C830.461 190.727 829.801 190.159 829.172 189.56C829.476 189.661 829.811 189.813 830.096 189.874C824.908 183.306 818.258 177.57 809.985 175.479C811.03 176.423 812.218 177.489 813.457 178.585C813 178.352 812.563 178.057 812.106 177.834C812.665 178.514 813.294 179.266 813.934 180.027C810.015 177.621 805.812 175.479 801.508 173.834C805.234 178.697 813.903 184.555 819.791 186.443C821.263 187.885 822.807 189.194 824.39 190.382C824.177 190.362 823.954 190.311 823.74 190.291C824.502 190.788 825.334 191.143 826.116 191.61Z" fill="#003B2F"/><path d="M781.147 190.931C779.472 190.352 777.716 190.098 776 189.682C777.858 189.063 779.564 188.363 781.015 187.581C777.127 187.256 773.188 187.55 769.351 188.363C766.336 188.017 763.311 187.804 760.265 187.967C761.666 188.647 763.178 189.195 764.711 189.682C762.285 190.494 759.899 191.449 757.666 192.677C761.737 192.667 766.387 192.078 770.742 191.093C774.356 191.591 777.96 191.571 781.147 190.931Z" fill="#003B2F"/><path d="M758.552 202.321C764.724 199.691 770.825 196.869 777.475 196.209C776.764 195.905 776.023 195.803 775.292 195.6C775.394 195.58 775.485 195.529 775.587 195.509C775.008 195.336 774.419 195.295 773.83 195.194C773.353 195.103 772.886 194.991 772.399 194.94C772.348 194.94 772.297 194.94 772.257 194.94C771.526 194.859 770.775 194.92 770.033 194.92C770.47 194.727 770.917 194.534 771.343 194.331C769.851 194.219 768.257 194.361 766.643 194.646C768.907 193.742 771.17 192.828 773.465 191.976C763.282 190.544 753.212 195.153 745.669 201.752C749.273 200.97 752.765 199.843 756.217 198.615C751.395 201.041 747.07 204.239 743.953 207.001C746.755 206.594 749.456 205.823 752.115 204.879C748.725 206.716 745.618 209.143 743.019 211.955C744.065 211.609 745.07 211.183 746.105 210.797C744.39 211.965 742.766 213.254 741.344 214.645C735.872 217.031 730.928 220.898 727.111 225.304C736.999 221.741 745.963 216.026 755.801 212.462C753.821 212.158 751.862 212.198 749.933 212.381C755.029 209.975 760.085 207.468 765.222 205.163C762.998 204.97 760.765 205.112 758.562 205.508C761.547 204.158 764.531 202.818 767.577 201.63C764.501 201.244 761.475 201.559 758.552 202.321Z" fill="#003B2F"/><path d="M735.126 228.543C741.837 224.98 747.877 220.411 753.907 215.752C750.334 216.32 747.024 217.731 743.877 219.478C744.476 218.868 745.065 218.239 745.664 217.64C736.974 220.097 729.756 227.152 725.34 234.807C715.259 240.228 708.813 250.41 705.493 261.141C706.965 259.72 708.305 258.177 709.645 256.654C707.351 260.511 705.351 264.481 703.99 268.308C704.823 267.608 705.503 266.785 706.285 266.034C704.285 269.861 702.61 273.861 701.422 277.963C702.031 277.353 702.518 276.663 703.097 276.024C700.732 281.698 699.229 287.505 699.057 292.764C707.158 280.714 713.472 267.912 718.112 254.156C717.249 254.938 716.427 255.821 715.594 256.684C716.447 254.908 717.3 253.131 718.112 251.324C717.736 251.608 717.462 251.984 717.107 252.278C719.3 248.624 721.31 244.847 723.056 240.959C721.574 242.076 720.244 243.456 718.883 244.786C720.497 242.492 722.122 240.198 723.726 237.883C723.431 238.512 723.106 239.132 722.853 239.751C727.289 236.37 731.269 232.523 735.126 228.543Z" fill="#003B2F"/><path d="M713.293 276.105C714.207 273.09 714.979 270.014 715.527 266.867C709.72 273.953 704.339 285.018 702.685 293.932C699.944 300.876 698.553 308.276 699.365 315.616C700.502 312.865 701.68 310.155 702.847 307.434C702.4 309.698 702.187 311.982 702.177 314.276C701.172 319.169 701.284 324.073 703.619 328.621C703.801 318.469 709.882 308.388 710.867 296.977C712.258 292.5 713.395 287.942 713.649 283.11C712.42 285.1 711.192 287.191 710.004 289.323C711.578 284.775 712.979 280.156 713.882 275.344C713.679 275.587 713.496 275.861 713.293 276.105Z" fill="#003B2F"/><path d="M713.275 367.32C713.62 362.619 713.457 357.929 713.254 353.229C719.345 344.783 724.34 335.554 728.066 326.397C720.229 332.783 714.99 342.082 713.204 352.021C713.072 348.996 712.94 345.97 712.94 342.945C712.594 343.666 712.3 344.508 711.975 345.31C712.27 340.773 712.402 336.224 712.462 331.636C711.569 333.199 711.011 334.925 710.381 336.61C710.919 332.621 711.275 328.611 711.254 324.54C712.097 320.702 712.929 316.855 713.884 313.027C712.178 314.865 710.848 316.966 709.671 319.149C710.848 315.037 711.782 310.56 711.995 304.784C707.041 313.2 701.712 326.154 704.899 334.945C705.173 333.778 705.468 332.681 705.772 331.595C705.133 336.072 704.97 340.62 705.59 344.955C705.823 344.356 705.975 343.737 706.189 343.138C706.168 346.417 706.422 349.676 707.315 352.792C707.468 352.112 707.61 351.432 707.762 350.762C707.711 354.051 708.016 357.3 708.534 360.477C707.935 368.304 709.143 376.172 713.843 380.852C711.529 376.944 713.356 371.695 713.275 367.32Z" fill="#003B2F"/><path d="M714.587 364.618C712.78 371.694 714.627 379.877 719.582 385.298C717.947 378.384 716.404 371.481 714.587 364.618Z" fill="#003B2F"/><path d="M732.72 216.939C729.36 218.898 726.244 221.284 723.299 223.873C717.391 228.563 712.914 234.258 710.143 241.283C709.594 242.481 708.884 243.598 708.427 244.846C708.64 244.654 708.843 244.451 709.056 244.268C708.833 244.989 708.478 245.608 708.295 246.369C710.427 243.933 712.559 241.507 714.66 239.07C721.513 232.4 727.736 225.182 732.72 216.939Z" fill="#003B2F"/><path d="M888.149 144.303C889.845 145.735 891.479 147.156 893.245 148.598C887.52 134.162 873.063 120.477 860.881 114.102C862.171 116.254 863.643 118.172 865.064 120.162C864.373 119.715 863.754 119.177 863.033 118.761C864.302 120.832 865.693 122.812 867.104 124.781C860.252 120.355 852.547 117.37 844.445 116.802C848.922 119.685 853.298 122.7 857.663 125.725C852.333 123.634 846.689 122.274 841.237 121.563C842.567 122.558 843.999 123.35 845.379 124.233C839.095 123.35 832.71 123.279 826.517 124.152C830.05 125.492 833.664 126.507 837.238 127.654C829.634 126.771 821.979 127.055 814.629 128.852C817.766 129.705 820.893 130.548 824.02 131.38C815.492 130.923 807.188 131.705 799.828 134.537C804.508 135.349 809.188 136.233 813.868 137.075C808.437 137.563 803.158 138.466 798.295 139.969C799.645 140.283 801.026 140.446 802.386 140.73C797.594 141.106 792.833 141.806 788.153 142.963C791.798 143.918 795.462 144.75 799.148 145.501C800.122 146.121 801.066 146.801 802.051 147.379C801.696 147.359 801.361 147.268 801.005 147.258C796.803 147.359 777.25 149.217 780.275 150.73C780.905 150.892 781.554 150.993 782.194 151.136C776.478 152.364 770.925 154.283 765.849 156.932C768.499 157.014 771.159 156.973 773.819 156.983C765.646 161.47 749.982 172.495 755.271 171.257C752.144 173.054 749.129 175.013 746.388 177.327C750.814 176.454 755.251 175.591 759.697 174.739C758.205 175.723 756.692 176.698 755.312 177.764C745.038 181.51 734.917 191.033 733.028 196.048C734.074 195.611 735.109 195.073 736.145 194.555C734.571 196.383 733.069 198.251 731.749 200.2C733.506 199.316 735.17 198.291 736.866 197.317C728.531 202.728 721.242 210.057 718.075 217.935C719.171 217.123 720.217 216.351 721.293 215.549C720.085 217.651 719.039 219.803 718.339 221.976C719.293 221.153 720.217 220.26 721.171 219.407C719.983 221.407 718.846 223.437 718.014 225.61C727.942 217.184 738.226 208.402 746.855 197.367C744.266 198.464 741.749 199.814 739.292 201.306C742.845 198.139 746.378 194.779 749.911 190.779C747.363 191.672 744.784 192.87 742.236 194.2C750.764 188.84 758.875 182.84 767.677 177.906C779.595 174.302 791.473 170.505 803.614 167.998C805.462 167.815 807.31 167.551 809.157 167.399C808.924 167.297 808.68 167.247 808.447 167.145C810.254 166.83 812.041 166.435 813.858 166.191C807.492 163.663 800.681 162.871 793.848 163.196C789.27 162.617 784.641 162.688 780.042 163.186C790.681 159.866 801.483 157.47 812.711 159.044C811.34 158.12 809.756 157.562 808.264 156.851C812.954 156.973 817.634 157.237 822.284 157.734C824.294 158.425 826.284 159.237 828.233 160.232C826.223 157.541 823.705 155.42 821.005 153.572C817.827 150.943 814.152 148.963 810.284 147.41C823.055 149.115 835.958 149.176 848.831 146.567C844.506 145.258 840.09 144.141 835.623 143.197C841.075 142.821 846.516 142.151 851.907 140.831C855.176 140.71 858.455 140.476 861.744 139.989C860.78 139.623 859.754 139.299 858.77 138.943C863.45 139.603 868.16 140.101 872.942 140.314C869.135 137.979 865.064 135.918 860.841 134.111C862.8 134.558 864.719 135.116 866.688 135.522C870.363 137.278 874.018 139.065 877.561 141.045C876.688 139.654 875.693 138.365 874.637 137.146C878.393 139.542 882.221 141.857 886.17 143.979C885.764 143.339 885.276 142.74 884.85 142.111C885.987 142.852 887.032 143.694 888.23 144.354C888.19 144.364 888.17 144.334 888.149 144.303Z" fill="#003B2F"/><path d="M1081.99 325.595C1081.16 320.316 1079.86 315.189 1078.31 310.144C1078.71 310.783 1079.02 311.403 1079.44 312.042C1078.93 306.164 1077.48 300.479 1075.23 295.17C1076.69 297.139 1078.16 299.099 1079.64 300.956C1078.89 296.713 1077.4 292.693 1075.61 288.794C1076.48 289.728 1077.27 290.805 1078.18 291.667C1076.96 287.576 1075.44 283.485 1073.63 279.516C1075.04 281.14 1076.51 282.683 1078.14 283.972C1077.18 281.526 1076.12 278.805 1074.92 276.054L1074.91 276.044C1073.51 272.815 1071.9 269.557 1069.98 266.572C1069.37 265.252 1068.82 263.902 1068.09 262.653C1070.77 265.506 1073.55 268.298 1076.44 271.079C1076.35 270.805 1076.22 270.562 1076.12 270.288C1076.8 270.907 1077.46 271.628 1078.14 272.216C1075.29 264.227 1070.95 256.877 1065.24 250.877C1069.05 253.892 1072.91 256.857 1076.74 260.004C1074.71 255.374 1072.14 251.436 1069.27 247.913C1071.6 249.466 1073.9 251.08 1076.49 252.339C1072.5 246.867 1068.07 241.101 1063.01 235.7C1065.47 237.517 1067.79 239.04 1069.75 239.954C1068.02 236.573 1065.94 233.355 1063.59 230.33C1065.56 231.487 1067.5 232.705 1069.52 233.771C1065.91 228.208 1061.15 223.294 1055.97 218.767C1060.39 221.112 1064.6 222.726 1067.88 222.899C1063.41 218.807 1058.84 215.143 1053.97 211.914C1058.43 213.518 1063.03 214.787 1067.93 215.488C1057.62 207.793 1045.78 202.798 1033.25 200.108C1035.19 201.732 1037.19 203.072 1039.19 204.432C1037.43 203.772 1035.76 203.021 1033.88 202.473C1034.53 203.123 1035.29 203.803 1036.02 204.473C1035.46 204.138 1034.9 203.752 1034.34 203.417C1035.98 206.128 1037.93 208.544 1039.9 210.929C1038.56 210.229 1037.29 209.376 1035.92 208.767C1039.55 213.457 1044.51 218.949 1049.69 224.086C1047.28 222.411 1044.78 220.828 1042.09 219.488C1045.1 223.782 1048.41 228.046 1051.92 232.188C1048.81 229.863 1045.69 227.589 1042.68 225.223C1045.13 230.462 1048.27 234.797 1051.76 238.695C1051.71 238.654 1051.67 238.614 1051.62 238.573C1052.03 239.649 1052.64 240.553 1053.1 241.578C1051.75 240.857 1050.4 240.147 1048.96 239.558C1051.68 242.827 1054.48 246.289 1057.31 249.72C1055.45 248.055 1053.51 246.471 1051.48 244.999C1053.55 248.563 1055.63 252.349 1057.85 256.075C1056.73 255.689 1055.62 255.283 1054.39 255.131C1055.71 256.014 1056.93 257.161 1058.11 258.41C1056.68 257.253 1055.16 256.176 1053.56 255.202C1049.12 248.299 1043.92 241.943 1037.75 236.624C1042.7 239.497 1047.75 242.187 1053.01 244.492C1049.02 239.365 1044.38 234.888 1039.48 230.726C1040.71 231.233 1041.92 231.842 1043.16 232.299C1032.71 220.229 1018.44 211.65 1002.78 208.412C1004.79 210.127 1006.98 211.752 1009.15 213.386C1008.13 213.031 1007.18 212.523 1006.15 212.209C1010.96 217.102 1016.19 221.518 1021.6 225.69C1018.64 224.127 1015.62 222.685 1012.48 221.477C1014.27 223.569 1016.1 225.396 1017.91 227.345C1014.05 225.376 1010.15 223.497 1006.15 221.904C1012.18 229.152 1019.08 235.416 1026.31 241.263C1035.8 250.806 1045.08 260.653 1055.45 269.262C1054.08 265.699 1052.31 262.227 1050.35 258.857C1053.24 261.039 1056.06 263.273 1058.94 265.445C1059.73 266.755 1060.55 268.024 1061.34 269.313C1060.59 268.602 1059.92 267.8 1059.13 267.13C1061.08 272.298 1063.6 277.12 1066.31 281.759C1065.33 280.724 1064.51 279.577 1063.42 278.632C1064.3 280.906 1065.15 283.069 1066.02 285.231C1065.38 284.348 1064.88 283.394 1064.19 282.531C1064.53 284.46 1065.04 286.419 1065.51 288.368C1065.24 287.982 1064.99 287.586 1064.71 287.211C1064.89 288.368 1065.12 289.576 1065.33 290.764C1055.68 274.44 1042.11 260.714 1026.14 250.491C1022.16 246.837 1018.05 243.314 1013.72 240.025C1014.42 241.558 1015.21 243.04 1015.96 244.542C1015.78 244.451 1015.6 244.329 1015.42 244.238C1015.78 244.756 1016.19 245.233 1016.56 245.74C1017.21 247.03 1018.06 248.197 1018.75 249.466C1018.47 249.273 1018.24 249.06 1017.96 248.867C1022.82 257.933 1028.8 266.623 1035.68 274.511C1036.33 275.292 1036.87 276.155 1037.53 276.927C1031.92 271.902 1025.75 267.455 1019.22 263.608C1023.46 270.633 1028.53 277.028 1033.96 283.099C1031.19 281.932 1028.38 280.906 1025.54 280.044C1031.24 284.947 1039.44 293.566 1045.7 299.423C1042.85 296.997 1039.84 294.754 1036.55 292.855C1039.97 298.459 1043.59 303.951 1047.38 309.301C1044.7 307.18 1041.73 305.423 1038.43 304.195C1042.38 308.743 1045.93 313.667 1049.55 318.539C1050.93 322.763 1052.54 326.905 1054.33 330.955C1051.02 326.123 1047.39 321.524 1043.17 317.423C1045.21 323.94 1048.03 330.123 1051.37 336.001C1053.34 344.589 1057.29 352.711 1062.96 359.462C1062.2 355.685 1061.06 352.041 1059.75 348.457C1061.81 351.046 1063.96 353.584 1066.28 355.98C1065.37 352.751 1064.19 349.614 1062.9 346.528C1064.22 348.467 1065.51 350.427 1066.99 352.264C1065.57 344.427 1062.79 336.874 1058.89 329.96C1060.18 331.361 1061.58 332.651 1062.98 333.96C1065.6 343.412 1069.26 352.599 1074.44 360.02C1073.81 351.137 1071.93 342.244 1068.91 333.767C1068.83 333.361 1068.78 332.955 1068.7 332.549C1068.76 332.6 1068.82 332.661 1068.88 332.712C1070.85 339.534 1073.26 346.224 1076.27 352.447C1075.61 343.929 1076.11 335.158 1074.33 326.752C1075.43 330.103 1076.53 333.311 1077.67 336.112C1078.57 330.712 1078.59 325.321 1078.01 320.022C1079.28 321.971 1080.59 323.839 1081.99 325.595ZM1067.88 309.179C1066.72 306.581 1065.56 303.941 1064.49 300.967C1064.44 302.418 1064.65 303.89 1064.67 305.352C1060.99 301.159 1057.03 297.2 1052.54 293.84C1051.09 291.739 1049.45 289.81 1047.85 287.85C1052.91 292.744 1058.27 297.332 1063.9 301.555C1063.11 299.86 1062.22 298.236 1061.38 296.571C1062.87 297.495 1064.34 298.459 1065.88 299.302C1065.06 298.053 1064.21 296.977 1063.4 295.769C1064.56 296.764 1065.73 297.738 1066.91 298.713C1067.81 302.997 1068.84 307.362 1069.95 311.667C1069.33 310.794 1068.53 310.032 1067.88 309.179Z" fill="#003B2F"/><path d="M914.261 110.467C913.56 113.918 913.235 117.502 913.113 121.136C912.423 119.076 911.712 117.025 910.789 115.279C910.494 120.101 910.636 124.547 911.042 128.913C908.586 122.862 904.972 117.218 900.677 112.233C901.743 117.269 903.337 122.131 905.093 126.943C900.769 120.923 895.277 115.918 889.703 113.33C894.891 119.776 898.089 127.583 903.134 134.141C906.586 139.146 911.073 143.582 913.519 149.196C913.499 148.648 913.367 148.09 913.316 147.542C913.59 148.222 913.885 148.902 914.159 149.582C914.321 148.151 914.352 146.739 914.352 145.328C914.788 146.739 915.134 148.12 915.651 149.572C916.027 147.075 916.169 144.415 916.21 141.724C916.849 143.562 917.387 145.44 918.25 147.206C918.758 133.867 918.078 122.507 914.261 110.467Z" fill="#003B2F"/><path d="M905.573 147.826C906.802 149.45 908.01 151.084 909.116 152.8C906.335 136.364 895.147 119.685 880.214 112.081C881.899 113.827 883.249 115.817 884.508 117.867C880.64 114.994 876.681 112.528 872.996 110.629C875.686 115.035 878.894 119.015 882.265 122.852C877.808 118.862 872.742 115.664 867.098 113.786C877.717 125.309 886.934 138.08 899.472 147.816C897.025 142.019 893.726 136.222 889.706 130.994C895.543 137.085 901.381 143.034 905.949 149.694C905.888 149.044 905.665 148.445 905.573 147.826Z" fill="#003B2F"/><path d="M1018.63 189.053C1034.09 197.235 1051.6 204.778 1062.86 210.362C1058.29 203.204 1052.01 197.722 1044.86 193.591C1050.13 194.839 1055.27 195.875 1059.93 196.22C1054.7 192.443 1048.92 189.175 1042.84 186.637C1045.14 186.758 1047.48 186.931 1049.71 186.829C1044.32 184.017 1038.49 181.703 1032.5 180.281C1037.84 180.2 1043.05 180.231 1047.74 180.596C1040.61 175.815 1032.35 174.058 1024.05 174.434C1029.45 174.17 1034.53 173.449 1038.74 172.292C1032.95 170.505 1027.02 169.683 1021.04 169.287C1025.37 168.972 1029.51 168.373 1033.06 167.439C1031.44 166.942 1029.75 166.708 1028.1 166.343C1029.62 166.079 1031.15 165.815 1032.6 165.439C1028.15 164.181 1023.62 163.511 1019.06 163.084C1025.18 162.171 1030.5 160.83 1033.34 158.942C1027.63 158.018 1021.85 157.897 1016.13 158.262C1018.66 157.562 1021.14 156.82 1023.43 156.049C1018.21 155.034 1013.11 155.521 1008.17 156.719C1011.67 155.704 1015.02 154.638 1017.8 153.592C1016.46 153.338 1015.12 153.409 1013.78 153.328C1016.93 152.09 1019.95 150.78 1022.62 149.298C1017.05 149.105 1011.55 149.724 1006.13 150.739C1008.26 149.806 1010.32 148.861 1012.19 147.948C1009.36 147.714 1006.56 147.836 1003.78 148.161C1006.53 146.608 1009.16 144.983 1011.5 143.237C1004.18 144.039 997.02 146.009 990.462 149.176C989.853 149.369 989.234 149.511 988.625 149.714C994.766 146.07 1000.49 142.171 1004.44 138.709C1001.67 139.126 999.03 139.918 996.421 140.791C999.081 138.628 1001.63 136.486 1003.9 134.476C999.274 135.4 994.97 137.024 990.919 139.105C992.127 137.715 993.213 136.364 994.137 135.075C989.061 137.075 984.503 139.907 980.452 143.318C981.61 141.725 982.757 140.131 983.61 138.385C983.061 138.75 982.523 139.166 981.975 139.542C983.813 136.71 985.396 133.816 986.269 130.943C984.361 132.588 982.584 134.243 980.818 135.897C981.64 134.263 982.3 132.649 982.574 131.136C978.513 134.75 974.412 138.517 970.696 142.588C971.072 141.999 971.549 141.481 971.915 140.892C975.265 136.923 978.219 132.811 980.016 128.679C979.082 129.339 978.158 130.131 977.224 130.842C977.569 130.091 978.046 129.36 978.371 128.619C976.016 130.415 973.894 132.415 971.894 134.537C973.356 132.162 974.585 129.867 975.143 127.867C971.783 130.334 968.707 133.278 965.894 136.456C966.828 132.578 967.468 128.629 967.57 124.669C965.844 127.888 964.179 131.146 962.534 134.405C963.539 129.563 964.148 124.73 963.905 120.314C962.534 122.933 961.407 125.492 960.26 128.05C960.595 125.289 960.707 122.507 960.555 119.746C958.839 123.319 957.306 126.761 955.834 130.172C956.697 126.009 956.92 122.253 956.067 119.756C955.905 120.121 955.732 120.527 955.57 120.903C955.397 119.126 955.022 117.401 954.007 115.888C954.2 118.04 953.702 120.111 953.032 122.152C953.022 120.903 952.849 119.786 952.423 118.883C951.266 121.37 950.017 123.827 948.778 126.284C949.103 122.02 948.91 117.726 948.007 113.462C947.225 116.071 946.484 118.639 945.743 121.208C945.773 120.213 945.956 119.167 945.895 118.203C944.098 121.604 942.596 125.147 941.286 128.75C941.763 123.766 941.926 118.791 941.114 113.908C940.2 116.507 939.347 119.137 938.596 121.776C938.545 118.934 938.271 116.101 937.682 113.309C936.007 118.822 934.637 124.395 933.652 130.019C933.53 127.187 933.246 124.395 932.586 121.695C932.231 122.873 931.987 124.06 931.683 125.248C931.612 122.416 931.439 119.675 931.043 117.127C930.028 119.685 929.277 122.294 928.739 124.933C928.302 121.208 927.531 117.594 926.221 114.223C925.683 117.949 925.236 121.695 924.881 125.451C924.292 120.639 923.236 116.162 921.764 112.629C921.226 115.523 920.901 118.426 920.739 121.34C920.292 119.776 919.927 118.152 919.277 116.781C918.018 127.593 917.815 138.638 921.145 149.125C921.307 148.323 921.368 147.41 921.51 146.577C922.688 156.932 925.449 167.043 930.018 176.414C930.363 178.424 930.678 180.434 931.195 182.424C933.825 171.713 933.886 160.556 931.459 149.816C931.723 148.729 931.896 147.623 932.129 146.526C932.129 146.922 932.079 147.298 932.079 147.694C933.723 144.689 935.002 141.471 936.058 138.171C936.058 142.232 936.556 146.313 937.896 150.384C937.997 149.775 938.119 149.135 938.231 148.516C938.251 148.78 938.2 149.034 938.231 149.298C938.87 147.755 939.5 146.08 940.139 144.435C939.764 146.648 939.52 148.872 939.276 151.095C938.302 154.191 937.51 157.369 937.175 160.607C937.134 160.343 937.063 160.079 937.022 159.815C937.489 155.937 937.55 152.019 937.083 148.11C936.444 149.714 935.926 151.349 935.52 153.014C935.216 151.937 934.941 150.851 934.556 149.795C933.063 159.48 933.733 169.277 935.743 178.82C935.215 179.551 934.637 180.241 934.139 180.982C934.779 180.657 935.317 180.2 935.946 179.855C935.997 180.068 936.018 180.281 936.068 180.495C936.139 180.231 936.149 179.957 936.221 179.683C937.53 178.931 938.708 178.007 939.936 177.155C939.936 177.236 939.936 177.307 939.936 177.388C939.987 177.287 940.017 177.175 940.058 177.063C942.494 175.368 944.718 173.439 946.87 171.449C946.596 172.211 946.22 172.932 945.976 173.693C949.113 170.698 951.854 167.378 954.433 163.937C953.976 165.186 953.529 166.434 953.174 167.724C949.855 171.307 947.154 175.439 945.52 180.129C949.936 176.129 953.793 172.282 957.397 168.272C957.265 169.125 957.204 169.977 957.123 170.84C955.692 173.784 954.585 176.881 953.946 180.129C956.372 177.216 958.534 174.109 960.412 170.85C960.291 171.531 960.108 172.19 960.027 172.881C960.666 171.977 961.214 171.013 961.793 170.069C961.377 171.957 961.083 173.865 961.062 175.825C963.022 172.363 964.94 168.85 966.483 165.206C965.194 168.404 964.027 171.652 963.052 174.942C963.671 174.312 964.169 173.602 964.717 172.932C964.615 173.53 964.453 174.109 964.372 174.708C965.032 173.805 965.57 172.83 966.158 171.886C964.544 175.906 963.011 179.977 961.834 184.17C966.301 179.601 969.894 174.302 972.605 168.576C970.321 173.145 968.24 177.723 966.666 182.515C969.001 180.342 971.174 177.916 973.133 175.327C972.27 177.825 971.519 180.363 970.869 182.931C972.757 180.87 974.432 178.657 975.945 176.343C975.62 177.886 975.326 179.449 975.295 181.043C978.787 174.891 982.33 168.637 983.752 161.643C984.452 161.511 985.143 161.369 985.853 161.226C983.275 165.663 981.214 170.353 979.863 175.297C978.046 178.525 976.117 181.682 973.914 184.677C975.549 183.906 977.021 182.941 978.412 181.896C978.391 181.997 978.371 182.089 978.351 182.19C978.483 182.028 978.564 181.835 978.696 181.672C981.599 179.439 984.046 176.718 985.944 173.622C988.218 170.81 990.097 167.713 991.741 164.475C992.432 164.505 993.193 164.516 993.924 164.536L993.954 164.546C988.767 172.363 983.163 179.906 978.513 188.068C981.072 186.505 983.508 184.677 985.762 182.647C983.234 185.256 980.869 188.027 978.818 191.093C987.65 186.444 995.914 180.444 1002.33 172.779C1008.73 174.129 1015.63 174.667 1022.2 174.485C1019.25 174.728 1016.31 175.246 1013.43 175.987C1013.64 175.784 1013.87 175.612 1014.09 175.409C1001.83 179.033 990.797 185.713 981.762 193.621C990.787 191.601 999.081 187.469 1006.4 181.946C1007.53 182.058 1008.68 182.261 1009.82 182.403C1008.66 182.616 1007.52 182.738 1006.37 183.043C1007.28 183.256 1008.27 183.55 1009.21 183.784C1010.32 184.434 1011.49 185.083 1012.63 185.733C1005.61 186.058 998.695 187.631 992.3 190.667C994.381 190.779 996.462 190.738 998.533 190.636C997.294 191.053 996.035 191.428 994.827 191.936C996.492 192.108 998.157 192.108 999.822 192.119C1010.17 194.555 1020.3 198.027 1030.91 199.174C1025.16 195.174 1018.61 192.098 1011.79 190.9C1014.11 190.464 1016.37 189.753 1018.63 189.053ZM928.901 162.678C927.368 156.942 924.962 151.46 921.531 146.516C921.805 144.821 922.099 143.136 922.262 141.359C922.749 143.826 923.277 146.283 923.957 148.709C924.323 147.176 924.607 145.562 924.83 143.907C925.165 146.872 925.663 149.836 926.475 152.79C927.327 149.227 928.018 145.461 928.505 141.643C928.799 143.461 929.104 145.288 929.622 147.085C929.723 148.465 929.764 149.846 929.977 151.227C929.368 155.034 928.962 158.851 928.901 162.678ZM1001.87 169.815C999.436 170.089 997 170.333 994.584 170.729C995.924 171.206 997.355 171.602 998.787 171.987C994.502 174.992 990.33 178.15 986.645 181.835C990.858 177.845 994.015 172.982 996.035 167.642C998.33 168.16 1000.59 168.698 1003.02 169.003C1002.62 169.257 1002.26 169.551 1001.87 169.815Z" fill="#003B2F"/><path d="M756.623 203.864C754.095 207.945 749.557 210.311 746.288 213.833C742.136 218.29 740.228 224.341 738.471 230.168C733.466 246.786 728.654 263.73 728.594 281.09C728.594 281.821 728.604 282.592 728.969 283.232C729.335 283.881 730.015 284.287 730.543 284.815C733.131 287.374 731.903 291.709 730.502 295.069C729.213 298.165 727.913 301.272 726.624 304.368C727.72 303.789 728.817 303.2 729.913 302.622C729.375 306.743 728.055 310.753 726.025 314.378C726.888 313.352 727.761 312.337 728.624 311.312C728.106 318.773 725.142 326.052 720.299 331.748C719.893 331.189 721.061 330.631 721.497 331.159C721.934 331.687 721.731 332.479 721.497 333.128C720.706 335.372 719.914 337.615 719.112 339.859C719.437 338.093 720.34 336.428 721.66 335.199C721.183 338.164 720.543 341.097 719.741 343.991C720.076 342.762 720.716 341.605 721.579 340.671C721.67 344.813 721.173 348.965 720.096 352.975C720.046 351.899 720.543 350.813 721.386 350.133C721.639 353.046 721.903 355.96 722.157 358.873C722.37 357.757 723.01 356.731 723.924 356.051C723.822 357.665 723.721 359.279 723.619 360.894C723.497 360.295 724.421 359.939 724.919 360.285C725.426 360.64 725.558 361.31 725.639 361.919C726.36 367.178 725.964 372.589 725.365 378.142C723.67 380.436 721.416 382.324 718.858 383.583C718.888 378.264 715.508 373.614 713.67 368.619C711.183 361.848 711.538 354.417 710.97 347.219C709.599 330.012 702.696 313.109 704.96 295.993C705.366 292.927 706.066 289.901 706.198 286.815C706.31 284.287 706.036 281.75 705.995 279.212C705.884 272.785 707.264 266.339 709.995 260.512C712.127 255.964 715.152 251.345 714.442 246.37C713.833 247.385 713.234 248.39 712.625 249.406C711.975 248.624 712.706 247.507 713.041 246.543C713.376 245.578 712.31 244.106 711.67 244.898C716.229 228.818 724.279 213.742 734.492 200.331C744.024 188.403 755.811 178.281 769.049 170.657C767.729 170.393 767.181 168.637 767.678 167.388C768.176 166.14 769.343 165.287 770.45 164.515C773.353 162.495 776.247 160.475 779.15 158.445C779.911 157.917 780.683 157.379 781.546 157.034C782.49 156.658 783.515 156.516 784.5 156.303C786.307 155.907 788.043 155.247 789.769 154.587C797.23 151.734 804.844 148.8 811.047 143.755C812.54 142.537 813.961 141.197 815.676 140.313C818.529 138.831 821.889 138.77 824.976 137.897C830.813 136.242 836.376 131.634 842.031 133.075C848.355 135.197 855.563 134.527 861.39 131.268C866.233 135.674 873.786 134.07 880.192 132.71C887.724 131.106 895.714 130.233 903.023 132.659C904.881 133.278 907.074 134.07 908.668 132.913C909.602 132.232 910.15 130.953 911.277 130.679C912.668 130.354 913.774 131.725 914.871 132.639C918.2 135.42 924.19 133.491 925.276 129.288C926.434 131.948 928.555 135.116 931.357 134.395C933.662 133.806 935.073 130.669 937.428 131.024C940.149 131.441 939.946 135.623 941.915 137.552C945.397 140.963 951.296 134.842 955.833 136.638C958.889 137.846 959.529 141.867 961.732 144.303C963.305 146.029 965.61 146.861 967.813 147.643C977.711 151.105 987.609 154.577 997.507 158.039C1001.6 159.47 1005.72 160.922 1009.5 163.043C1014.44 165.835 1018.66 169.713 1022.75 173.642C1032.63 183.134 1042.02 193.134 1050.88 203.58C1052.07 204.991 1053.3 206.504 1053.62 208.331C1053.93 210.209 1053.23 212.087 1052.99 213.976C1052.42 218.452 1054.46 222.777 1055.98 227.021C1060.99 240.98 1060.67 256.289 1064.5 270.613C1067.54 282.054 1073.24 292.886 1074.3 304.683C1074.84 310.794 1074.11 316.946 1073.39 323.037C1072.02 334.6 1070.64 346.153 1069.27 357.716C1065.7 359.757 1060.8 359.097 1057.89 356.193C1054.98 353.29 1054.32 348.387 1057.11 342.143C1054.2 338.631 1056.12 333.433 1057.47 329.078C1058.34 326.276 1058.91 323.342 1058.74 320.408C1058.09 308.723 1046.56 300.388 1043.89 288.998C1042.57 283.384 1043.36 276.958 1039.86 272.389C1037.58 269.415 1033.51 267.182 1033.55 263.425C1035.65 264.958 1037.75 266.501 1039.85 268.034C1036.76 264.309 1033.67 260.593 1030.58 256.867C1032.03 257.73 1033.49 258.583 1034.95 259.446C1029.89 254.441 1026 248.279 1023.65 241.568C1026.9 243.934 1029.73 246.878 1031.95 250.218C1029.88 246.38 1027.82 242.543 1025.75 238.706C1026.75 239.01 1027.76 239.315 1028.76 239.629C1026.34 231.762 1023.53 224.026 1020.33 216.442C1021.27 217.234 1022.22 218.016 1023.16 218.808C1020.29 216.158 1017.78 213.102 1015.74 209.773C1017.33 211.935 1019.21 213.884 1021.32 215.559C1017.81 210.91 1014.9 205.813 1012.67 200.433C1013.39 201.194 1014.71 201.286 1015.54 200.636C1012.4 199.671 1011.07 196.078 1009.77 193.063C1008.48 190.037 1005.92 186.728 1002.69 187.357C1004.31 187.367 1005.87 186.362 1006.55 184.9C1002.67 187.103 997.507 186.768 993.954 184.078C993.913 182.048 994.36 180.017 995.243 178.19C994.319 180.068 992.766 181.642 990.888 182.566C991.335 180.748 991.791 178.921 992.238 177.104C990.431 178.911 988.33 180.424 986.035 181.55C986.939 179.063 987.832 176.576 988.736 174.089C986.482 175.043 984.228 175.987 981.975 176.941C982.523 173.297 983.071 169.652 983.619 166.008C982.107 166.993 980.584 167.977 979.071 168.952C978.929 167.937 978.797 166.922 978.655 165.896C973.559 162.708 968.462 159.521 963.356 156.333C963.224 152.932 958.29 152.394 955.072 153.531C951.864 154.668 947.783 156.181 945.479 153.673C945.083 156.485 944.687 159.297 944.291 162.099C944.585 160.15 944.027 158.079 942.778 156.546C941.357 159.785 939.925 163.023 938.504 166.251C937.773 163.754 937.052 161.257 936.321 158.759C934.636 160.759 933.56 163.257 933.286 165.856C931.246 164.059 929.692 161.724 928.829 159.155C929.459 162.708 930.718 166.15 932.525 169.277C931.388 166.262 929.611 163.49 927.337 161.196C928.22 163.774 928.779 166.465 928.992 169.175C927.936 166.241 925.408 163.886 922.413 163.023C921.987 165.277 921.571 167.541 921.144 169.794C919.855 167.378 918.566 164.962 917.277 162.546C916.566 164.241 915.845 165.937 915.135 167.622C912.525 166.109 909.906 164.607 907.297 163.094C907.287 165.784 903.186 165.653 900.719 164.576C901.46 166.089 902.719 167.348 904.242 168.069C901.744 167.348 899.257 166.637 896.76 165.916C899.998 167.338 902.922 169.49 905.247 172.15C900.699 171.398 896.394 169.287 893.003 166.16C893.521 168.19 893.389 170.637 891.805 172.008C890.222 173.378 887.044 172.495 887.085 170.393C887.897 171.439 888.709 172.485 889.521 173.53C888.415 173.297 887.308 173.074 886.202 172.84C888.323 174.495 890.455 176.15 892.577 177.804C888.506 175.987 884.425 174.16 880.354 172.343C882.1 174.596 883.846 176.85 885.582 179.104C882.75 178.302 879.918 177.5 875.431 176.87C876.679 178.779 877.918 180.687 879.166 182.596C875.309 181.51 871.705 179.55 868.69 176.921C872.192 178.627 875.471 180.819 878.385 183.398C873.644 181.642 868.913 179.885 864.172 178.119C867.502 180.88 870.822 183.632 874.151 186.393C870.141 186.383 866.131 185.408 862.568 183.55C865.339 184.84 867.715 186.961 869.319 189.56C865.756 188.657 862.192 187.753 858.629 186.85C860.558 188.484 862.02 190.657 862.812 193.063C857.868 192.058 852.934 191.063 847.99 190.058C849.472 190.718 850.944 191.367 852.426 192.027C846.66 194.971 839.726 192.728 833.666 190.443C825.199 187.256 816.742 184.058 808.276 180.87C810.154 182.078 812.032 183.276 813.91 184.484C809.413 182.85 804.763 181.621 800.043 180.83C800.702 182.698 802.723 183.997 804.702 183.814C801.474 181.855 797.647 180.901 793.88 181.114C795.566 182.261 797.241 183.408 798.926 184.555C796.946 182.992 794.469 182.048 791.952 181.916C793.241 182.87 794.52 183.824 795.809 184.779C794.083 183.662 792.012 183.093 789.952 183.154C790.104 184.241 790.875 185.215 791.901 185.611C789.728 184.322 787.302 183.469 784.805 183.104C785.221 184.819 786.48 186.301 788.104 186.992C782.947 185.774 777.343 186.515 772.683 189.032C774.348 189.114 776.023 189.195 777.688 189.266C772.734 190.271 767.82 191.489 762.968 192.91C763.607 194.159 765.191 194.829 766.531 194.433C764.348 195.063 762.166 195.702 759.983 196.332C761.394 199.499 759.252 203.722 756.623 203.864Z" fill="#003B2F"/></g><defs><clipPath id="clip0_172_313"><rect width="1920" height="1080" fill="white"/></clipPath></defs></svg>