<svg width="1921" height="1080" viewBox="0 0 1921 1080" fill="none" xmlns="http://www.w3.org/2000/svg"><g clip-path="url(#clip0_1713_2)"><path d="M812.985 727.007L772.617 746.24C772.617 746.24 640.077 875.396 954.768 934.103C954.768 934.103 1144.96 942.142 1208.32 838.479C1271.68 734.816 1227.89 719.795 1227.89 719.795L1173.73 705.938L1155.32 650.616C1155.32 650.616 1188.75 592.967 1183.04 529.605C1183.04 529.605 1176.27 433.135 1179.76 422.769L1169.92 268.332C1169.92 268.332 1124.44 154.831 1028.18 144.465C931.92 134.099 760.77 214.173 766.482 351.368C772.194 488.563 771.242 499.353 772.829 524.316C775.368 563.031 835.027 720.853 835.027 720.853L822.827 724.173L812.985 727.007Z" fill="#E3E7E3" stroke="#003D2E" stroke-width="3" stroke-miterlimit="10"/><path d="M861.682 688.379C861.682 688.379 983.328 810.554 1096.83 701.073" stroke="#003D2E" stroke-width="3" stroke-linecap="round" stroke-linejoin="round"/><path d="M1102.65 718.949C1102.65 718.949 1144.85 678.965 1155.32 650.51" stroke="#003D2E" stroke-width="3" stroke-linecap="round" stroke-linejoin="round"/><path d="M829.102 352.955C828.15 352.955 827.093 352.849 826.67 352.109C826.141 351.051 827.41 348.935 827.939 348.301C828.256 348.089 868.029 314.663 905.263 314.663C942.92 315.086 943.449 336.559 943.449 336.771C943.449 339.521 942.391 341.425 940.064 342.694C938.055 343.752 935.199 344.387 931.602 344.387C920.707 344.387 906.321 339.521 906.109 339.415C900.186 337.934 894.791 337.194 889.185 337.194C877.232 337.194 863.375 340.579 846.873 347.56C838.305 351.157 832.276 352.955 828.997 352.955H829.102Z" fill="#003D2E"/><path d="M905.263 315.192H905.898C942.391 315.615 942.92 335.925 942.92 336.771C942.92 338.463 942.92 343.752 931.602 343.752C920.284 343.752 906.427 338.886 906.215 338.781C900.292 337.3 894.897 336.559 889.185 336.559C877.126 336.559 863.269 339.944 846.768 346.926C838.305 350.522 832.382 352.32 829.102 352.32C828.045 352.32 827.304 352.109 827.198 351.791C826.881 351.157 827.727 349.464 828.256 348.724C828.679 348.406 868.346 315.192 905.369 315.192M905.263 314.134C867.394 314.134 827.516 347.983 827.516 347.983C827.516 347.983 823.285 353.484 829.102 353.484C831.958 353.484 837.459 352.109 847.191 347.983C865.49 340.261 878.607 337.723 889.185 337.723C895.531 337.723 900.926 338.675 905.898 339.944C905.898 339.944 920.389 344.916 931.496 344.916C938.372 344.916 943.872 343.012 943.872 336.877C943.872 336.877 943.872 314.557 905.792 314.24C905.58 314.24 905.369 314.24 905.157 314.24L905.263 314.134Z" fill="#003D2E"/><path d="M1058.85 346.714C1055.47 346.714 1051.98 346.291 1048.49 345.55C1041.93 344.07 1037.06 338.357 1036.96 331.905C1036.85 323.972 1042.04 319 1052.51 316.884C1052.72 316.884 1058.96 314.346 1071.34 314.346C1082.55 314.346 1101.27 316.461 1126.76 326.51C1126.76 326.51 1141.89 336.877 1147.07 343.329C1147.07 343.329 1145.91 343.646 1144.54 343.646C1142.84 343.646 1139.67 343.118 1134.91 340.579C1129.51 337.723 1120.63 336.03 1110.37 336.03C1100.11 336.03 1089.85 337.617 1080.33 340.579C1080.12 340.685 1072.18 346.82 1058.96 346.82L1058.85 346.714Z" fill="#003D2E"/><path d="M1071.23 314.98C1082.44 314.98 1101.06 317.096 1126.24 326.933C1126.34 326.933 1140.3 336.559 1145.91 343.012C1145.49 343.012 1145.06 343.223 1144.32 343.223C1142.63 343.223 1139.67 342.694 1135.01 340.156C1129.62 337.194 1120.52 335.501 1110.16 335.501C1099.79 335.501 1089.53 337.088 1080.01 340.05C1079.9 340.05 1079.8 340.05 1079.69 340.261C1079.69 340.261 1071.76 346.291 1058.75 346.291C1055.36 346.291 1051.98 345.868 1048.49 345.127C1042.14 343.646 1037.49 338.146 1037.38 332.011C1037.28 324.395 1042.35 319.529 1052.72 317.519C1052.72 317.519 1058.96 315.086 1071.23 315.086M1071.23 313.923C1058.64 313.923 1052.3 316.461 1052.3 316.461C1039.29 319 1036.22 325.77 1036.32 331.905C1036.43 338.675 1041.72 344.493 1048.28 345.974C1052.08 346.82 1055.58 347.137 1058.75 347.137C1072.29 347.137 1080.33 340.896 1080.33 340.896C1090.38 337.829 1100.85 336.453 1110.16 336.453C1120.42 336.453 1129.2 338.146 1134.49 340.896C1139.14 343.435 1142.31 344.07 1144.32 344.07C1146.65 344.07 1147.5 343.223 1147.5 343.223C1142.53 336.665 1126.76 325.981 1126.76 325.981C1102.01 316.25 1083.5 313.817 1071.12 313.817L1071.23 313.923Z" fill="#003D2E"/><path d="M930.016 593.813C930.016 593.813 954.556 619.411 990.733 620.575C990.733 620.575 1021.83 624.066 1054.52 595.611C1054.52 595.611 1017.81 569.272 1000.68 572.551C987.771 575.09 984.174 572.128 984.174 572.128C984.174 572.128 974.549 565.676 956.143 579.85L930.016 592.544V593.813Z" fill="#00FF94" stroke="#003D2E" stroke-width="3" stroke-linecap="round" stroke-linejoin="round"/><path d="M926.525 593.073C926.525 593.073 973.808 589.899 986.501 594.13C986.501 594.13 1001.84 596.457 1005.75 594.13C1005.75 594.13 1032.41 590.745 1056.95 595.717" stroke="#003D2E" stroke-width="3" stroke-linecap="round" stroke-linejoin="round"/><path d="M941.017 485.39C941.017 485.39 924.304 516.806 948.21 526.326" stroke="#003D2E" stroke-width="3" stroke-linecap="round" stroke-linejoin="round"/><path d="M1041.82 485.39C1041.82 485.39 1063.61 512.469 1036.32 525.163" stroke="#003D2E" stroke-width="3" stroke-linecap="round" stroke-linejoin="round"/><path d="M969.471 505.805C969.471 505.805 958.259 499.458 948.104 508.661C948.104 508.661 946.941 521.672 965.663 517.547C965.663 517.547 974.337 513.527 974.549 509.719L969.366 505.699L969.471 505.805Z" fill="#003D2E"/><path d="M1004.17 515.96C1004.17 515.96 1012.21 521.143 1019.93 518.393C1019.93 518.393 1037.8 512.152 1029.45 503.69C1029.45 503.69 1024.26 497.872 1004.17 515.96Z" fill="#003D2E"/><path d="M974.337 510.142C974.337 510.142 977.934 521.037 990.521 520.403C1003.11 519.768 1009.67 512.363 1009.67 512.363" stroke="#003D2E" stroke-width="3" stroke-linecap="round" stroke-linejoin="round"/><path d="M965.769 408.912V387.862C965.769 387.862 967.25 373.476 943.979 370.832C920.707 368.187 850.153 368.504 850.153 368.504C850.153 368.504 832.911 368.504 831.43 388.708C829.949 408.912 831.113 437.155 850.47 442.867C850.47 442.867 867.712 455.243 926.314 454.079C926.314 454.079 953.393 454.608 959.74 432.712C959.74 432.712 965.769 416.528 965.769 408.806V408.912Z" stroke="#003D2E" stroke-width="3" stroke-linecap="round" stroke-linejoin="round"/><path d="M989.252 386.381C986.29 386.275 983.328 386.381 980.472 387.121C975.712 388.179 968.837 390.083 965.769 392.622V398.969C965.769 398.969 978.886 391.458 992.637 392.41C992.637 392.41 1007.45 392.833 1016.86 400.238V393.045C1016.86 393.045 1004.59 387.333 995.493 386.593L989.252 386.275V386.381Z" fill="#003D2E"/><path d="M1155.43 423.721C1155.43 423.721 1160.08 398.334 1158.6 388.285C1158.6 388.285 1156.59 371.043 1134.7 371.255C1134.7 371.255 1091.22 366.389 1041.08 373.582C1041.08 373.582 1018.87 375.909 1016.86 393.151C1016.86 393.151 1014.53 430.068 1022.89 438.424C1022.89 438.424 1032.3 451.964 1054.52 454.291C1054.52 454.291 1112.48 461.801 1132.9 449.742C1132.9 449.742 1152.68 442.973 1155.43 423.827V423.721Z" stroke="#003D2E" stroke-width="3" stroke-linecap="round" stroke-linejoin="round"/><path d="M832.805 381.621L768.597 404.363V415.893L831.007 411.345L831.113 393.362L832.805 381.621Z" fill="#003D2E"/><path d="M1179.12 413.037L1157.65 409.335L1158.6 388.285L1177.96 395.69L1179.12 413.037Z" fill="#003D2E"/><path d="M744.903 441.068C744.903 441.068 710.842 424.567 726.18 292.026C726.18 292.026 741.941 188.998 846.873 134.839C846.873 134.839 990.203 50.6394 1114.28 133.253C1114.28 133.253 1157.33 157.476 1144.22 207.827C1144.22 207.827 1168.44 206.24 1191.08 242.839C1191.08 242.839 1223.55 289.276 1208.64 385.112L1200.91 425.096L1178.07 444.453C1178.07 444.453 1179.12 371.678 1172.99 355.917C1166.85 340.156 1139.56 250.244 1138.82 241.464C1138.82 241.464 1128.88 205.711 1083.08 187.623C1083.08 187.623 985.443 145.311 929.381 191.113C873.318 236.916 891.724 213.01 891.724 213.01L903.677 201.057C903.677 201.057 867.923 221.472 854.066 243.685C840.209 265.899 840.632 246.753 846.344 241.041C852.057 235.329 808.264 255.85 782.983 369.668L772.194 451.646L744.903 441.174V441.068Z" fill="#003D2E"/><path d="M811.793 726.112C811.793 726.112 469.561 860.693 466.916 909.986L374.466 1105.46L1546.81 1101.97C1546.81 1101.97 1556.33 877.194 1450.02 823.564L1242.7 724.132L1194.57 711.227C1194.57 711.227 1257.4 743.173 1193.72 793.312C1193.72 793.312 1097.46 877.194 960.691 895.282C960.691 895.282 876.703 915.169 799.696 810.554C799.696 810.554 768.35 752.763 819.547 725.366L811.793 726.112Z" fill="#003D2E"/><path d="M778.858 750.048C778.858 750.048 715.92 800.187 807.63 869.366C807.63 869.366 924.092 956.422 1047.96 908.293C1047.96 908.293 1159.24 857.308 1217.42 795.639C1217.42 795.639 1242.17 768.559 1245.13 732.277" stroke="white" stroke-width="3" stroke-linecap="round" stroke-linejoin="round"/><path d="M504.468 1091.92C504.468 1091.92 458.983 963.933 472.735 915.592" stroke="white" stroke-width="3" stroke-linecap="round" stroke-linejoin="round"/><path d="M1444.73 1091.92C1444.73 1091.92 1466.63 883.224 1485.67 852.125" stroke="white" stroke-width="3" stroke-linecap="round" stroke-linejoin="round"/><path d="M781.503 551.819C781.503 551.819 772.617 565.887 760.029 561.868C747.442 557.848 749.134 523.153 749.134 523.153C749.134 523.153 748.817 498.612 735.066 474.495C721.314 450.377 739.403 423.509 753.789 430.385C768.174 437.261 773.675 451.435 773.675 451.435" fill="#E3E7E3"/><path d="M781.503 551.819C781.503 551.819 772.617 565.887 760.029 561.868C747.442 557.848 749.134 523.153 749.134 523.153C749.134 523.153 748.817 498.612 735.066 474.495C721.314 450.377 739.403 423.509 753.789 430.385C768.174 437.261 773.675 451.435 773.675 451.435" stroke="#003D2E" stroke-width="3" stroke-linecap="round" stroke-linejoin="round"/><path d="M768.597 453.233C768.597 453.233 752.625 432.183 739.614 454.185C739.614 454.185 735.594 474.283 747.124 489.198" stroke="#003D2E" stroke-width="3" stroke-linecap="round" stroke-linejoin="round"/><path d="M768.597 527.913C768.597 527.913 756.115 536.481 753.788 520.508" stroke="#003D2E" stroke-width="3" stroke-linecap="round" stroke-linejoin="round"/><path d="M755.798 511.094C755.798 511.094 763.097 499.987 761.193 489.304" stroke="#003D2E" stroke-width="3" stroke-linecap="round" stroke-linejoin="round"/><path d="M1179.4 551.974C1179.4 551.974 1200.17 564.724 1199.01 526.22C1199.01 526.22 1197.11 503.161 1205.57 472.802C1205.57 472.802 1215.19 400.132 1191.71 421.711C1191.71 421.711 1176.62 427.793 1175.25 449.372" fill="#E3E7E3"/><path d="M1179.4 551.974C1179.4 551.974 1200.17 564.724 1199.01 526.22C1199.01 526.22 1197.11 503.161 1205.57 472.802C1205.57 472.802 1215.19 400.132 1191.71 421.711C1191.71 421.711 1176.62 427.793 1175.25 449.372" stroke="#003D2E" stroke-width="3" stroke-linecap="round" stroke-linejoin="round"/><path d="M1184.73 508.45C1184.73 508.45 1196.47 508.978 1192.56 480.947C1192.56 480.947 1189.81 469.417 1190.87 466.773" stroke="#003D2E" stroke-width="3" stroke-linecap="round" stroke-linejoin="round"/><path d="M1199.75 429.327C1199.75 429.327 1185.15 439.059 1187.06 456.512" stroke="#003D2E" stroke-width="3" stroke-linecap="round" stroke-linejoin="round"/><path d="M483.353 239.52H439.22C453.119 239.52 464.582 228.2 464.582 214.158C464.582 200.116 453.262 188.796 439.22 188.796H312.408C298.509 188.796 287.046 200.116 287.046 214.158H248.071C234.172 214.158 222.709 225.478 222.709 239.52C222.709 253.562 234.029 264.882 248.071 264.882H331.179C331.179 278.781 342.499 290.245 356.542 290.245H483.353C497.252 290.245 508.715 278.925 508.715 264.882C508.715 250.84 497.395 239.52 483.353 239.52Z" fill="#03FC9D"/><path d="M133.584 324.634L354.106 324.634C378.401 324.634 398.096 304.939 398.096 280.644C398.096 256.349 378.401 236.654 354.106 236.654L133.584 236.654C109.289 236.654 89.5938 256.349 89.5938 280.644C89.5938 304.939 109.289 324.634 133.584 324.634Z" fill="#E6E8EA"/><path d="M1533.3 599.339H1655.76C1669.22 599.339 1680.14 588.426 1680.14 574.964V574.881C1680.14 561.419 1669.22 550.506 1655.76 550.506H1533.3C1519.84 550.506 1508.93 561.419 1508.93 574.881V574.964C1508.93 588.426 1519.84 599.339 1533.3 599.339Z" fill="#E6E8EA"/><path d="M1599.71 561.865H1800.19C1822.26 561.865 1840.15 543.973 1840.15 521.902C1840.15 499.832 1822.26 481.94 1800.19 481.94H1599.71C1577.64 481.94 1559.75 499.832 1559.75 521.902C1559.75 543.973 1577.64 561.865 1599.71 561.865Z" fill="#E6E8EA"/><path d="M1535.97 226.158H1617.43" stroke="#003B2F" stroke-width="3" stroke-linecap="round" stroke-linejoin="round"/><path d="M1474.13 226.158H1494.66" stroke="#003B2F" stroke-width="3" stroke-linecap="round" stroke-linejoin="round"/><path d="M1353.92 151.434L1373.18 170.695" stroke="#003B2F" stroke-width="3" stroke-linecap="round" stroke-linejoin="round"/><path d="M1387.22 184.735L1406.48 203.996" stroke="#003B2F" stroke-width="3" stroke-linecap="round" stroke-linejoin="round"/><path d="M1353.92 203.996L1373.18 184.735" stroke="#003B2F" stroke-width="3" stroke-linecap="round" stroke-linejoin="round"/><path d="M1387.22 170.695L1406.48 151.434" stroke="#003B2F" stroke-width="3" stroke-linecap="round" stroke-linejoin="round"/><path d="M1774.57 664.037L1803.69 680.862" stroke="#003B2F" stroke-width="3" stroke-linecap="round" stroke-linejoin="round"/><path d="M1832.94 664.037L1815.76 673.9" stroke="#003B2F" stroke-width="3" stroke-linecap="round" stroke-linejoin="round"/><path d="M1803.69 680.863V714.86" stroke="#003B2F" stroke-width="3" stroke-linecap="round" stroke-linejoin="round"/><path d="M1592.69 800.492H1803.75" stroke="#03FC9D" stroke-width="3" stroke-linecap="round" stroke-linejoin="round"/><path d="M1698.22 836.177H1861.01" stroke="#003B2F" stroke-width="3" stroke-linecap="round" stroke-linejoin="round"/><path d="M258.26 831.736H339.715" stroke="#003B2F" stroke-width="3" stroke-linecap="round" stroke-linejoin="round"/><path d="M196.415 831.736H216.953" stroke="#003B2F" stroke-width="3" stroke-linecap="round" stroke-linejoin="round"/><path d="M288.446 610.88H320.588" stroke="#003B2F" stroke-width="3" stroke-linecap="round" stroke-linejoin="round"/><path d="M154.042 538.908H386.539" stroke="#03FC9D" stroke-width="3" stroke-linecap="round" stroke-linejoin="round"/><path d="M362.086 610.788H492.043" stroke="#003B2F" stroke-width="3" stroke-linecap="round" stroke-linejoin="round"/><path d="M632.064 642.687L651.325 661.949" stroke="#003B2F" stroke-width="3" stroke-linecap="round" stroke-linejoin="round"/><path d="M665.365 675.989L684.626 695.25" stroke="#003B2F" stroke-width="3" stroke-linecap="round" stroke-linejoin="round"/><path d="M632.064 695.25L651.325 675.989" stroke="#003B2F" stroke-width="3" stroke-linecap="round" stroke-linejoin="round"/><path d="M665.365 661.949L684.626 642.687" stroke="#003B2F" stroke-width="3" stroke-linecap="round" stroke-linejoin="round"/><path d="M1471.87 403.224C1496 368.127 1487.11 320.114 1452.01 295.983C1416.92 271.853 1368.9 280.743 1344.77 315.84C1320.64 350.937 1329.53 398.95 1364.63 423.081C1399.73 447.211 1447.74 438.321 1471.87 403.224Z" fill="#03FC9D" stroke="#003B2F" stroke-width="2.2761" stroke-miterlimit="10"/><path d="M1414.53 433.97C1457.12 433.97 1491.65 399.442 1491.65 356.85C1491.65 314.258 1457.12 279.73 1414.53 279.73C1371.94 279.73 1337.41 314.258 1337.41 356.85C1337.41 399.442 1371.94 433.97 1414.53 433.97Z" fill="#E3E7E3" stroke="#003B2F" stroke-width="2.2761" stroke-linecap="round" stroke-linejoin="round"/><path d="M1389.63 423.259C1372.09 416.564 1358.3 403.31 1350.66 386.172C1343.03 369.034 1342.5 349.888 1349.33 332.483C1356.02 314.943 1369.28 301.153 1386.41 293.521C1403.55 285.889 1422.7 285.354 1440.1 292.182C1457.64 298.877 1471.43 312.132 1479.06 329.269C1486.7 346.407 1487.23 365.553 1480.4 382.959C1473.71 400.498 1460.45 414.288 1443.32 421.92C1426.18 429.552 1407.03 430.087 1389.63 423.259Z" fill="#A9FEDE" stroke="#003B2F" stroke-width="2.2761" stroke-linecap="round" stroke-linejoin="round"/><path d="M1408.77 382.423L1415.2 358.323L1430.33 352.834L1434.08 338.642V338.24L1419.08 343.729L1429.79 303.429H1399.4L1385.34 356.047L1373.69 360.332L1369.81 374.925L1381.46 370.641L1373.16 401.703H1454.03L1459.25 382.423H1408.77Z" fill="#003B2F"/><path d="M1549.9 676.01C1515.75 697.834 1481.48 707.072 1465.55 699.976C1462.6 698.771 1460.32 696.897 1458.72 694.353C1448.68 678.688 1473.18 645.082 1513.48 619.241C1553.78 593.401 1594.61 585.1 1604.66 600.765L1605.73 602.907C1606.8 605.451 1607.2 608.53 1606.66 611.878C1604.52 629.417 1582.3 655.124 1549.9 676.01Z" fill="#E3E7E3"/><path d="M1605.59 602.907L1613.36 617.501C1623.4 633.166 1598.9 666.772 1558.6 692.612C1518.3 718.453 1477.46 726.62 1467.42 711.089L1466.35 709.081L1458.58 694.487C1460.19 696.897 1462.47 698.771 1465.41 700.11C1481.34 707.206 1515.75 697.968 1549.76 676.144C1582.16 655.257 1604.25 629.551 1606.53 612.012C1607.07 608.664 1606.66 605.585 1605.59 603.041V602.907Z" fill="#03FC9D"/><path d="M1605.59 602.907L1613.36 617.501C1623.4 633.166 1598.9 666.772 1558.6 692.612C1518.3 718.453 1477.46 726.62 1467.42 711.089L1466.35 709.081L1458.58 694.487" stroke="#003B2F" stroke-width="2.2761" stroke-linecap="round" stroke-linejoin="round"/><path d="M1605.59 602.907C1606.66 605.451 1607.07 608.53 1606.53 611.878C1604.39 629.417 1582.16 655.124 1549.76 676.01C1515.62 697.834 1481.34 707.072 1465.41 699.976C1462.47 698.771 1460.19 696.897 1458.58 694.353" stroke="#003B2F" stroke-width="2.2761" stroke-linecap="round" stroke-linejoin="round"/><path d="M1465.41 699.976C1462.47 698.771 1460.19 696.897 1458.58 694.487C1448.54 678.822 1473.04 645.082 1513.34 619.241C1553.64 593.401 1594.48 585.234 1604.52 600.899L1605.59 602.907C1606.66 605.585 1607.07 608.664 1606.53 612.011C1604.39 629.417 1582.16 655.257 1549.76 676.01C1515.62 697.834 1481.34 707.072 1465.41 699.976Z" stroke="#003B2F" stroke-width="2.2761" stroke-linecap="round" stroke-linejoin="round"/><path d="M1463 687.123C1462.06 674.27 1480.68 648.162 1516.96 624.865C1535.7 612.815 1555.12 604.38 1571.59 601.033C1585.38 598.221 1595.82 599.56 1599.03 604.514L1599.84 605.987C1599.84 605.987 1600.24 607.326 1600.24 608.263C1600.24 609.066 1600.24 610.137 1600.1 611.074C1598.5 624.195 1580.96 648.295 1546.28 670.521C1511.47 692.88 1480.01 699.307 1468.09 694.085C1466.22 693.282 1465.01 692.345 1464.21 691.006C1463.4 689.935 1463.14 688.596 1463 687.123Z" fill="#A9FEDE" stroke="#003B2F" stroke-width="2.2761" stroke-linecap="round" stroke-linejoin="round"/><path d="M1509.06 658.069L1530.62 647.091L1538.38 648.831L1551.1 642.404L1551.37 642.137L1543.74 640.396L1579.89 622.053L1573.73 612.413L1526.6 636.379L1520.57 635.041L1507.59 641.735L1513.61 643.074L1485.76 657.266L1502.1 682.839L1519.37 674.002L1509.19 658.069H1509.06Z" fill="#003B2F"/><path d="M576.353 504.762C561.999 514.788 528.962 491.933 502.609 453.805C476.257 415.677 466.659 376.756 481.058 366.856L498.769 355.079C495.716 357.29 493.738 360.542 492.838 364.834C489.012 381.372 499.445 412.191 520.328 442.451C540.907 472.251 565.434 492.71 582.21 495.6C587.007 496.323 591.107 495.872 594.413 493.572L576.397 504.888L576.353 504.762Z" fill="#03FC9D"/><path d="M594.413 493.572C591.233 495.828 587.052 496.45 582.21 495.601C565.434 492.71 540.862 472.125 520.328 442.452C499.445 412.191 489.012 381.372 492.838 364.835C493.739 360.543 495.671 357.164 498.769 355.079C513.249 345.009 546.376 368.116 572.899 406.326C599.296 444.58 609.064 483.583 594.584 493.654L594.413 493.572Z" fill="#E3E7E3"/><path d="M594.413 493.572L576.397 504.888C562.043 514.914 529.006 492.059 502.654 453.931C476.301 415.803 466.659 376.756 480.931 366.9L498.643 355.123" stroke="#003B2F" stroke-width="2.2761" stroke-linecap="round" stroke-linejoin="round"/><path d="M594.413 493.572C591.233 495.828 587.052 496.45 582.21 495.601C565.434 492.71 540.862 472.125 520.328 442.452C499.445 412.191 489.012 381.372 492.838 364.835C493.739 360.543 495.671 357.164 498.769 355.079C513.249 345.009 546.376 368.116 572.899 406.326C599.296 444.58 609.064 483.583 594.584 493.654L594.413 493.572Z" stroke="#003B2F" stroke-width="2.2761" stroke-linecap="round" stroke-linejoin="round"/><path d="M582.165 495.474C565.39 492.584 540.862 472.125 520.284 442.325C499.4 412.065 488.967 381.246 492.793 364.708C493.694 360.416 495.627 357.038 498.725 354.953C513.205 344.882 546.287 367.863 572.81 406.073C599.207 444.327 608.893 483.501 594.495 493.401C591.315 495.657 587.134 496.279 582.292 495.43L582.165 495.474Z" stroke="#003B2F" stroke-width="2.2761" stroke-linecap="round" stroke-linejoin="round"/><path d="M498.389 372.531C498.434 370.244 498.525 368.083 499.001 366.212C499.545 363.323 500.697 361.355 502.413 360.183C506.893 357.185 516.554 360.027 527.653 367.756C540.979 376.973 555.208 391.975 567.58 409.761C584.166 433.87 594.676 459.267 594.749 475.993C594.725 479.55 594.239 485.825 590.807 488.17C589.09 489.343 586.639 489.639 583.454 489.058C568.163 486.354 544.393 465.628 525.766 438.548C509.225 414.565 498.714 389.168 498.597 372.316L498.389 372.531Z" fill="#A9FEDE" stroke="#003B2F" stroke-width="2.2761" stroke-linecap="round" stroke-linejoin="round"/><path d="M556.814 440.274L546.686 422.408L548.472 415.39L542.536 404.99L542.447 404.737L540.661 411.754L523.721 381.808L514.687 388.398L536.821 427.445L535.473 432.888L541.543 443.668L542.89 438.225L555.942 461.165L579.865 443.651L571.703 429.35L556.814 440.274Z" fill="#003B2F"/><path d="M1173.15 703.945C1174.15 711.84 1180.3 730.655 1190.79 736.702" stroke="#003B2F" stroke-width="3" stroke-linecap="round"/></g><defs><clipPath id="clip0_1713_2"><rect width="1920" height="1080" fill="white" transform="translate(0.744141)"/></clipPath></defs></svg>