<svg width="1920" height="1080" viewBox="0 0 1920 1080" fill="none" xmlns="http://www.w3.org/2000/svg"><g clip-path="url(#clip0_117_195)"><path d="M70.4543 916.436L96.0043 931.176" stroke="#003B2F" stroke-width="3" stroke-miterlimit="10" stroke-linecap="round" stroke-linejoin="round"/><path d="M121.564 916.436L106.534 925.106" stroke="#003B2F" stroke-width="3" stroke-miterlimit="10" stroke-linecap="round" stroke-linejoin="round"/><path d="M96.0044 931.177V961.027" stroke="#003B2F" stroke-width="3" stroke-miterlimit="10" stroke-linecap="round" stroke-linejoin="round"/><path d="M70.4543 1001.56H255.504" stroke="#03FC9D" stroke-width="3" stroke-miterlimit="10" stroke-linecap="round" stroke-linejoin="round"/><path d="M1738.88 929.345C1750.73 929.345 1760.33 919.742 1760.33 907.895C1760.33 896.049 1750.73 886.445 1738.88 886.445C1727.04 886.445 1717.43 896.049 1717.43 907.895C1717.43 919.742 1727.04 929.345 1738.88 929.345Z" stroke="#003B2F" stroke-width="3" stroke-miterlimit="10" stroke-linecap="round" stroke-linejoin="round"/><path d="M1522.76 814.839L1544.09 802.529" stroke="#003B2F" stroke-width="3" stroke-miterlimit="10" stroke-linecap="round" stroke-linejoin="round"/><path d="M1565.42 814.838L1552.88 807.598" stroke="#003B2F" stroke-width="3" stroke-miterlimit="10" stroke-linecap="round" stroke-linejoin="round"/><path d="M1544.09 802.527V777.617" stroke="#003B2F" stroke-width="3" stroke-miterlimit="10" stroke-linecap="round" stroke-linejoin="round"/><path d="M1724.26 945H1574.05C1557.5 945 1544.09 958.42 1544.09 974.96C1544.09 991.51 1557.51 1004.92 1574.05 1004.92H1724.26C1740.81 1004.92 1754.22 991.5 1754.22 974.96C1754.23 958.42 1740.81 945 1724.26 945Z" fill="#03FC9D"/><path d="M1642.8 860.859H1396.8C1369.7 860.859 1347.73 882.829 1347.73 909.929C1347.73 937.029 1369.7 958.999 1396.8 958.999H1642.8C1669.9 958.999 1691.87 937.029 1691.87 909.929C1691.87 882.829 1669.9 860.859 1642.8 860.859Z" fill="#03FC9D"/><path d="M1085.53 215.476H1034.52C1050.66 215.476 1063.75 203.936 1063.75 189.696C1063.75 175.456 1050.66 163.916 1034.52 163.916H888.014C871.874 163.916 858.784 175.456 858.784 189.696H813.824C797.684 189.696 784.594 201.236 784.594 215.476C784.594 229.716 797.674 241.256 813.824 241.256H909.804C909.804 255.496 922.884 267.036 939.034 267.036H1085.54C1101.68 267.036 1114.77 255.496 1114.77 241.256C1114.75 227.026 1101.67 215.476 1085.53 215.476Z" fill="#E6E8EA"/><path d="M996.494 197.09H1033.05" stroke="#003B2F" stroke-width="3" stroke-miterlimit="10" stroke-linecap="round" stroke-linejoin="round"/><path d="M943.684 102.637H1208.36" stroke="#03FC9D" stroke-width="3" stroke-miterlimit="10" stroke-linecap="round" stroke-linejoin="round"/><path d="M1080.26 196.909H1228.23" stroke="#003B2F" stroke-width="3" stroke-miterlimit="10" stroke-linecap="round" stroke-linejoin="round"/><path d="M81.4243 95.6055L107.904 110.875" stroke="#003B2F" stroke-width="3" stroke-miterlimit="10" stroke-linecap="round" stroke-linejoin="round"/><path d="M134.384 95.6055L118.814 104.585" stroke="#003B2F" stroke-width="3" stroke-miterlimit="10" stroke-linecap="round" stroke-linejoin="round"/><path d="M107.904 110.874V141.794" stroke="#003B2F" stroke-width="3" stroke-miterlimit="10" stroke-linecap="round" stroke-linejoin="round"/><path d="M81.4243 183.799H273.164" stroke="#03FC9D" stroke-width="3" stroke-miterlimit="10" stroke-linecap="round" stroke-linejoin="round"/><path d="M237.534 216.689H385.504" stroke="#003B2F" stroke-width="3" stroke-miterlimit="10" stroke-linecap="round" stroke-linejoin="round"/><path d="M805.584 963.228H879.574" stroke="#003B2F" stroke-width="3" stroke-miterlimit="10" stroke-linecap="round" stroke-linejoin="round"/><path d="M749.364 963.237H768.004" stroke="#003B2F" stroke-width="3" stroke-miterlimit="10" stroke-linecap="round" stroke-linejoin="round"/><path d="M724.924 1026.67H989.604" stroke="#03FC9D" stroke-width="3" stroke-miterlimit="10" stroke-linecap="round" stroke-linejoin="round"/><path d="M640.124 895.376L657.604 912.856" stroke="#003B2F" stroke-width="3" stroke-miterlimit="10" stroke-linecap="round" stroke-linejoin="round"/><path d="M670.374 925.625L687.854 943.095" stroke="#003B2F" stroke-width="3" stroke-miterlimit="10" stroke-linecap="round" stroke-linejoin="round"/><path d="M640.124 943.095L657.604 925.625" stroke="#003B2F" stroke-width="3" stroke-miterlimit="10" stroke-linecap="round" stroke-linejoin="round"/><path d="M670.374 912.856L687.854 895.376" stroke="#003B2F" stroke-width="3" stroke-miterlimit="10" stroke-linecap="round" stroke-linejoin="round"/><path d="M1693.55 189.068H1824.38C1835.66 189.068 1844.81 179.928 1844.81 168.638C1844.81 157.358 1835.67 148.208 1824.38 148.208H1693.55C1682.27 148.208 1673.12 157.348 1673.12 168.638C1673.12 179.928 1682.27 189.068 1693.55 189.068Z" fill="#03FC9D"/><path d="M1754.3 159.526H1899.04C1916.99 159.526 1931.54 144.976 1931.54 127.026C1931.54 109.076 1916.99 94.5264 1899.04 94.5264H1754.3C1736.35 94.5264 1721.8 109.076 1721.8 127.026C1721.8 144.976 1736.35 159.526 1754.3 159.526Z" fill="#03FC9D"/><path d="M1829.48 177.707L1843.58 165.947" stroke="#003B2F" stroke-width="3" stroke-miterlimit="10" stroke-linecap="round" stroke-linejoin="round"/><path d="M1853.89 157.346L1867.99 145.586" stroke="#003B2F" stroke-width="3" stroke-miterlimit="10" stroke-linecap="round" stroke-linejoin="round"/><path d="M1829.48 145.586L1843.58 157.346" stroke="#003B2F" stroke-width="3" stroke-miterlimit="10" stroke-linecap="round" stroke-linejoin="round"/><path d="M1853.89 165.947L1867.99 177.707" stroke="#003B2F" stroke-width="3" stroke-miterlimit="10" stroke-linecap="round" stroke-linejoin="round"/><path d="M1638.89 366.858C1636.96 456.348 1596.55 539.108 1552.28 571.828C1508.45 604.218 1411.78 683.798 1374.39 700.298C1419.45 664.228 1434.89 611.278 1434.89 611.278C1434.89 611.278 1472.42 518.898 1434.89 370.708C1397.36 222.518 1235.98 -5.2023 1235.98 -5.2023L1561.23 -13.8623C1561.23 -13.8623 1586.93 71.4477 1597.51 103.198C1608.1 134.958 1640.81 277.368 1638.89 366.858Z" fill="#03FC9D" stroke="#003B2F" stroke-width="3" stroke-miterlimit="10" stroke-linecap="round" stroke-linejoin="round"/><path d="M692.224 1096.75L370.804 1105.98L367.114 1082.51C337.284 1045.98 312.704 1004.47 290.874 962.808C234.544 855.328 192.604 728.808 192.074 606.298C191.874 559.738 204.764 510.958 228.074 470.608C250.224 432.278 283.774 399.118 314.394 367.438C351.104 329.448 393.664 293.248 441.214 269.658L441.194 269.678C396.874 296.558 366.444 342.368 358.294 394.588C357.534 399.388 356.974 404.238 356.604 409.138C347.754 527.038 402.134 645.178 402.134 645.178C452.884 817.738 686.344 1082.51 686.344 1082.51L692.224 1096.75Z" fill="#03FC9D" stroke="#003B2F" stroke-width="3" stroke-miterlimit="10" stroke-linecap="round" stroke-linejoin="round"/><path d="M1434.89 611.28C1434.89 611.28 1419.45 664.23 1374.39 700.3C1361.26 710.8 1345.62 719.88 1327.12 725.79L1265.12 707.01L736.294 546.81C736.294 546.81 600.614 401.5 540.954 379.37C481.294 357.24 451.244 336.83 400.614 365.08L358.294 394.59C366.444 342.37 396.874 296.56 441.194 269.68C452.444 262.85 464.604 257.25 477.514 253.07C518.624 239.77 572.254 236.7 638.494 261.15C638.494 261.15 820.004 341.84 868.124 385.15C868.124 385.15 1040.36 574.71 1203.95 627.64C1203.95 627.64 1332.89 654.58 1434.89 611.28Z" fill="#E6E8EA" stroke="#003B2F" stroke-width="3" stroke-miterlimit="10" stroke-linecap="round" stroke-linejoin="round"/><path d="M398.551 991.987L397.221 989.803L399.957 975.831C400.28 974.194 400.516 972.797 400.666 971.641C400.811 970.477 400.824 969.461 400.705 968.591C400.589 967.708 400.3 966.887 399.837 966.126C399.305 965.253 398.634 964.624 397.824 964.241C397.023 963.853 396.156 963.705 395.225 963.795C394.293 963.886 393.378 964.204 392.48 964.751C391.526 965.332 390.813 966.037 390.343 966.867C389.875 967.683 389.662 968.562 389.702 969.502C389.75 970.437 390.062 971.378 390.638 972.324L387.775 974.068C386.889 972.611 386.446 971.129 386.448 969.62C386.45 968.111 386.842 966.698 387.624 965.379C388.415 964.055 389.534 962.952 390.982 962.071C392.438 961.184 393.915 960.706 395.414 960.637C396.912 960.567 398.299 960.859 399.573 961.514C400.847 962.168 401.874 963.134 402.652 964.413C403.208 965.327 403.586 966.321 403.787 967.397C403.99 968.459 404.012 969.771 403.853 971.331C403.697 972.878 403.373 974.849 402.88 977.245L400.933 986.612L401.051 986.806L412.602 979.775L414.227 982.444L398.551 991.987ZM427.55 974.799C425.722 975.912 423.862 976.362 421.97 976.15C420.074 975.93 418.207 975.077 416.37 973.589C414.529 972.094 412.785 969.995 411.141 967.294C409.506 964.608 408.45 962.108 407.972 959.794C407.497 957.466 407.598 955.409 408.273 953.623C408.952 951.824 410.197 950.373 412.009 949.27C413.821 948.167 415.678 947.73 417.58 947.958C419.485 948.173 421.358 949.028 423.199 950.524C425.044 952.006 426.784 954.09 428.419 956.775C430.064 959.477 431.127 961.989 431.61 964.312C432.088 966.627 431.989 968.677 431.313 970.463C430.633 972.241 429.378 973.686 427.55 974.799ZM425.925 972.13C427.737 971.027 428.613 969.296 428.552 966.938C428.492 964.581 427.476 961.784 425.507 958.548C424.197 956.397 422.851 954.705 421.469 953.473C420.095 952.236 418.738 951.482 417.398 951.211C416.066 950.936 414.802 951.162 413.605 951.891C411.809 952.984 410.945 954.724 411.012 957.111C411.074 959.49 412.088 962.293 414.053 965.521C415.363 967.673 416.702 969.363 418.071 970.592C419.44 971.82 420.788 972.569 422.115 972.836C423.45 973.099 424.72 972.863 425.925 972.13ZM448.905 961.799C447.077 962.912 445.217 963.362 443.325 963.15C441.429 962.93 439.562 962.077 437.725 960.589C435.884 959.094 434.14 956.995 432.496 954.294C430.861 951.608 429.805 949.108 429.327 946.794C428.852 944.466 428.953 942.409 429.628 940.623C430.307 938.824 431.552 937.373 433.364 936.27C435.176 935.167 437.033 934.73 438.935 934.958C440.84 935.173 442.713 936.028 444.554 937.524C446.399 939.006 448.139 941.09 449.774 943.775C451.419 946.477 452.482 948.989 452.965 951.312C453.443 953.627 453.344 955.677 452.668 957.463C451.988 959.241 450.733 960.686 448.905 961.799ZM447.28 959.13C449.092 958.027 449.968 956.296 449.907 953.938C449.847 951.581 448.831 948.784 446.862 945.548C445.552 943.397 444.206 941.705 442.824 940.473C441.45 939.236 440.093 938.482 438.753 938.211C437.421 937.936 436.157 938.162 434.96 938.891C433.164 939.984 432.3 941.724 432.367 944.111C432.429 946.49 433.443 949.293 435.408 952.521C436.718 954.673 438.057 956.363 439.426 957.592C440.795 958.82 442.143 959.569 443.47 959.836C444.805 960.099 446.075 959.863 447.28 959.13ZM470.115 948.888C468.448 949.902 466.796 950.503 465.159 950.691C463.524 950.865 462.034 950.647 460.687 950.037C459.335 949.419 458.254 948.436 457.445 947.088C456.796 946.042 456.412 944.945 456.291 943.799C456.165 942.646 456.284 941.548 456.647 940.506C457.014 939.451 457.601 938.567 458.409 937.854L458.32 937.708C456.944 938.125 455.591 938.033 454.262 937.435C452.928 936.828 451.864 935.862 451.069 934.539C450.293 933.282 449.925 931.959 449.967 930.57C450.008 929.181 450.42 927.855 451.203 926.591C451.994 925.323 453.118 924.245 454.574 923.359C456.014 922.482 457.475 921.986 458.957 921.871C460.439 921.756 461.806 921.999 463.059 922.6C464.32 923.196 465.338 924.123 466.115 925.38C466.909 926.703 467.266 928.099 467.184 929.568C467.106 931.024 466.578 932.26 465.6 933.276L465.689 933.422C466.685 933.037 467.728 932.929 468.817 933.097C469.901 933.258 470.931 933.656 471.907 934.293C472.877 934.922 473.686 935.76 474.335 936.806C475.144 938.154 475.509 939.573 475.429 941.063C475.352 942.54 474.861 943.964 473.956 945.335C473.053 946.694 471.773 947.878 470.115 948.888ZM468.49 946.218C469.614 945.534 470.474 944.761 471.069 943.9C471.665 943.038 471.983 942.14 472.024 941.206C472.065 940.272 471.819 939.358 471.285 938.463C470.706 937.53 469.959 936.848 469.043 936.419C468.128 935.989 467.132 935.82 466.056 935.909C464.987 935.994 463.928 936.357 462.876 936.997C461.816 937.642 460.995 938.424 460.413 939.344C459.839 940.259 459.533 941.222 459.494 942.232C459.463 943.237 459.737 944.207 460.317 945.14C460.85 946.035 461.537 946.681 462.378 947.079C463.227 947.471 464.174 947.598 465.221 947.46C466.268 947.322 467.357 946.908 468.49 946.218ZM461.31 934.425C462.2 933.883 462.88 933.225 463.351 932.45C463.83 931.671 464.073 930.841 464.081 929.961C464.088 929.08 463.835 928.209 463.321 927.347C462.801 926.51 462.157 925.899 461.389 925.512C460.617 925.118 459.784 924.96 458.889 925.039C457.99 925.11 457.083 925.423 456.169 925.98C455.239 926.546 454.532 927.215 454.048 927.986C453.559 928.749 453.317 929.562 453.321 930.424C453.32 931.279 453.579 932.124 454.099 932.96C454.613 933.823 455.259 934.455 456.036 934.858C456.821 935.256 457.67 935.421 458.583 935.353C459.495 935.286 460.404 934.976 461.31 934.425Z" fill="#003B2F"/><path d="M328.541 869.215L327.364 867.091L330.5 853.934C330.869 852.392 331.147 851.075 331.334 849.984C331.517 848.885 331.568 847.92 331.489 847.09C331.413 846.248 331.169 845.457 330.759 844.717C330.288 843.867 329.676 843.245 328.922 842.85C328.176 842.451 327.359 842.277 326.472 842.327C325.584 842.377 324.703 842.644 323.83 843.128C322.901 843.643 322.198 844.285 321.719 845.054C321.244 845.811 321.007 846.637 321.009 847.531C321.019 848.42 321.279 849.325 321.789 850.246L319.004 851.79C318.219 850.374 317.856 848.95 317.916 847.518C317.976 846.085 318.402 844.758 319.196 843.537C319.997 842.311 321.102 841.307 322.511 840.526C323.927 839.741 325.348 839.344 326.773 839.336C328.198 839.327 329.503 839.658 330.687 840.329C331.872 840.999 332.808 841.956 333.498 843.199C333.99 844.088 334.311 845.047 334.46 846.076C334.612 847.092 334.582 848.338 334.371 849.812C334.164 851.275 333.78 853.134 333.22 855.389L331.01 864.205L331.115 864.394L342.35 858.165L343.79 860.761L328.541 869.215ZM356.731 854.018C354.953 855.004 353.17 855.36 351.383 855.086C349.591 854.804 347.852 853.921 346.166 852.439C344.475 850.948 342.901 848.889 341.444 846.261C339.996 843.649 339.09 841.235 338.726 839.02C338.365 836.792 338.54 834.844 339.25 833.174C339.963 831.493 341.201 830.164 342.964 829.186C344.726 828.209 346.506 827.866 348.302 828.156C350.102 828.433 351.847 829.317 353.537 830.808C355.231 832.286 356.802 834.331 358.251 836.943C359.708 839.571 360.62 841.997 360.989 844.22C361.353 846.436 361.18 848.378 360.47 850.047C359.756 851.709 358.509 853.032 356.731 854.018ZM355.292 851.422C357.054 850.445 357.952 848.836 357.985 846.595C358.019 844.355 357.163 841.661 355.418 838.514C354.258 836.421 353.045 834.763 351.781 833.54C350.525 832.313 349.266 831.546 348.004 831.237C346.751 830.924 345.542 831.09 344.377 831.736C342.631 832.704 341.743 834.323 341.715 836.591C341.682 838.852 342.536 841.551 344.277 844.691C345.437 846.784 346.643 848.44 347.895 849.659C349.147 850.878 350.398 851.64 351.647 851.945C352.905 852.246 354.119 852.072 355.292 851.422ZM377.503 842.502C375.725 843.488 373.942 843.844 372.154 843.569C370.362 843.287 368.623 842.405 366.937 840.922C365.247 839.432 363.673 837.373 362.216 834.745C360.768 832.133 359.862 829.719 359.497 827.503C359.137 825.276 359.311 823.327 360.022 821.658C360.735 819.977 361.973 818.647 363.736 817.67C365.498 816.693 367.277 816.349 369.074 816.639C370.874 816.917 372.619 817.801 374.309 819.291C376.003 820.77 377.574 822.815 379.022 825.427C380.479 828.055 381.392 830.481 381.761 832.704C382.125 834.919 381.952 836.862 381.242 838.531C380.527 840.192 379.281 841.516 377.503 842.502ZM376.063 839.905C377.826 838.928 378.724 837.319 378.757 835.079C378.791 832.839 377.935 830.145 376.19 826.997C375.03 824.905 373.817 823.247 372.553 822.024C371.297 820.797 370.038 820.029 368.776 819.721C367.523 819.407 366.313 819.574 365.149 820.219C363.402 821.188 362.515 822.806 362.487 825.075C362.454 827.335 363.308 830.035 365.049 833.174C366.209 835.267 367.415 836.923 368.667 838.143C369.919 839.362 371.17 840.124 372.419 840.429C373.676 840.73 374.891 840.555 376.063 839.905ZM384.319 806.258C385.314 805.717 386.41 805.356 387.607 805.176C388.803 804.996 390.048 805.108 391.342 805.512C392.631 805.908 393.932 806.705 395.243 807.901C396.555 809.098 397.825 810.805 399.056 813.024C400.247 815.172 401.1 817.193 401.615 819.088C402.135 820.971 402.329 822.694 402.198 824.258C402.075 825.818 401.635 827.194 400.876 828.386C400.125 829.574 399.069 830.545 397.708 831.3C396.355 832.05 394.999 832.452 393.64 832.506C392.285 832.547 391.003 832.276 389.794 831.691C388.588 831.094 387.538 830.211 386.642 829.041L389.522 827.444C390.397 828.41 391.42 829.041 392.593 829.337C393.769 829.621 394.994 829.41 396.269 828.703C398.133 827.669 399.153 826.039 399.328 823.813C399.511 821.582 398.778 818.98 397.129 816.006L396.94 816.11C396.866 817.015 396.659 817.876 396.319 818.692C395.979 819.508 395.512 820.25 394.916 820.92C394.32 821.59 393.606 822.156 392.772 822.618C391.387 823.386 389.926 823.748 388.39 823.705C386.858 823.65 385.411 823.212 384.052 822.392C382.695 821.56 381.585 820.365 380.722 818.807C379.901 817.328 379.482 815.791 379.462 814.197C379.446 812.591 379.837 811.088 380.635 809.689C381.441 808.286 382.669 807.142 384.319 806.258ZM385.758 808.855C384.767 809.405 384.011 810.148 383.491 811.084C382.975 812.008 382.716 813.016 382.714 814.107C382.716 815.186 382.996 816.229 383.554 817.236C384.112 818.243 384.841 819.038 385.74 819.62C386.642 820.189 387.614 820.504 388.655 820.565C389.7 820.613 390.718 820.362 391.71 819.812C392.457 819.398 393.073 818.866 393.557 818.218C394.036 817.561 394.374 816.844 394.57 816.066C394.77 815.276 394.827 814.479 394.74 813.673C394.649 812.859 394.405 812.095 394.008 811.379C393.485 810.434 392.766 809.676 391.851 809.103C390.945 808.525 389.953 808.201 388.874 808.13C387.804 808.055 386.765 808.297 385.758 808.855Z" fill="#003B2F"/><path d="M1401.67 113.084L1400.77 110.689L1406.09 97.4832C1406.72 95.9358 1407.21 94.6087 1407.58 93.502C1407.94 92.3864 1408.14 91.3903 1408.19 90.5137C1408.24 89.6249 1408.11 88.7636 1407.8 87.9297C1407.44 86.9716 1406.9 86.2283 1406.18 85.6997C1405.47 85.1678 1404.64 84.8585 1403.71 84.7719C1402.78 84.6852 1401.82 84.8257 1400.84 85.1934C1399.79 85.5843 1398.96 86.1428 1398.34 86.869C1397.72 87.583 1397.35 88.4054 1397.21 89.3362C1397.08 90.2637 1397.21 91.2464 1397.6 92.2844L1394.46 93.457C1393.86 91.8602 1393.71 90.321 1393.99 88.8396C1394.28 87.3582 1394.93 86.0435 1395.95 84.8956C1396.97 83.7444 1398.28 82.8723 1399.87 82.2794C1401.47 81.6832 1403.01 81.4919 1404.49 81.7057C1405.98 81.9195 1407.28 82.4677 1408.41 83.3504C1409.54 84.2331 1410.36 85.3753 1410.89 86.7769C1411.26 87.7794 1411.45 88.8276 1411.44 89.9215C1411.44 91.0032 1411.21 92.2952 1410.77 93.7974C1410.32 95.2875 1409.63 97.1623 1408.7 99.422L1405.02 108.255L1405.1 108.467L1417.77 103.737L1418.86 106.665L1401.67 113.084ZM1433.38 101.666C1431.38 102.415 1429.47 102.507 1427.65 101.942C1425.83 101.369 1424.16 100.179 1422.63 98.3726C1421.11 96.5572 1419.79 94.1681 1418.68 91.2051C1417.58 88.2598 1417.02 85.6057 1416.98 83.2428C1416.95 80.8676 1417.44 78.8666 1418.44 77.2399C1419.45 75.601 1420.94 74.4106 1422.93 73.6686C1424.92 72.9266 1426.82 72.8467 1428.65 73.4289C1430.48 73.9989 1432.16 75.1916 1433.68 77.007C1435.22 78.8101 1436.53 81.1843 1437.63 84.1296C1438.74 87.0926 1439.31 89.76 1439.35 92.1319C1439.38 94.4948 1438.9 96.4897 1437.9 98.1164C1436.89 99.7343 1435.39 100.917 1433.38 101.666ZM1432.29 98.7386C1434.28 97.9966 1435.46 96.4621 1435.85 94.1352C1436.23 91.8083 1435.76 88.8706 1434.44 85.3221C1433.56 82.9623 1432.55 81.0474 1431.43 79.5773C1430.31 78.1039 1429.12 77.1081 1427.86 76.5898C1426.6 76.0682 1425.32 76.0526 1424 76.5428C1422.03 77.2782 1420.86 78.8243 1420.47 81.1812C1420.09 83.5292 1420.55 86.473 1421.88 90.0126C1422.76 92.3723 1423.75 94.2845 1424.87 95.749C1425.98 97.2136 1427.16 98.2022 1428.42 98.7149C1429.68 99.2243 1430.97 99.2322 1432.29 98.7386ZM1447.78 95.8676L1446.88 93.4724L1452.2 80.2665C1452.82 78.7191 1453.32 77.392 1453.68 76.2853C1454.05 75.1697 1454.25 74.1736 1454.3 73.297C1454.35 72.4082 1454.22 71.5469 1453.91 70.713C1453.55 69.7549 1453.01 69.0115 1452.29 68.483C1451.57 67.9511 1450.75 67.6418 1449.82 67.5552C1448.89 67.4685 1447.93 67.609 1446.94 67.9767C1445.9 68.3676 1445.06 68.9261 1444.45 69.6523C1443.83 70.3663 1443.46 71.1887 1443.32 72.1195C1443.19 73.047 1443.32 74.0297 1443.71 75.0676L1440.57 76.2403C1439.97 74.6434 1439.82 73.1043 1440.1 71.6229C1440.39 70.1415 1441.04 68.8268 1442.06 67.6789C1443.08 66.5277 1444.39 65.6556 1445.98 65.0627C1447.57 64.4664 1449.11 64.2752 1450.6 64.489C1452.08 64.7028 1453.39 65.251 1454.52 66.1337C1455.65 67.0164 1456.47 68.1586 1457 69.5602C1457.37 70.5627 1457.55 71.6108 1457.55 72.7047C1457.55 73.7865 1457.32 75.0784 1456.87 76.5807C1456.43 78.0708 1455.74 79.9456 1454.8 82.2053L1451.13 91.0379L1451.21 91.2508L1463.87 86.5205L1464.97 89.448L1447.78 95.8676ZM1479.81 84.3301C1478.05 84.986 1476.38 85.2691 1474.78 85.1793C1473.18 85.0861 1471.78 84.6536 1470.58 83.8816C1469.37 83.0974 1468.47 82.0045 1467.87 80.6027L1471.22 79.3506C1471.62 80.2023 1472.2 80.8482 1472.97 81.2882C1473.74 81.7193 1474.62 81.9472 1475.61 81.9718C1476.6 81.9965 1477.62 81.8134 1478.66 81.4225C1479.84 80.9853 1480.8 80.3937 1481.55 79.6477C1482.3 78.9018 1482.8 78.069 1483.04 77.1494C1483.29 76.2299 1483.23 75.2911 1482.87 74.333C1482.5 73.3305 1481.92 72.5406 1481.14 71.9632C1480.35 71.3769 1479.4 71.0452 1478.28 70.9683C1477.16 70.8914 1475.91 71.1113 1474.52 71.628L1472.34 72.4429L1471.25 69.5154L1473.43 68.7005C1474.51 68.2964 1475.39 67.7468 1476.06 67.0517C1476.74 66.3533 1477.18 65.5631 1477.37 64.6812C1477.58 63.7959 1477.5 62.8743 1477.14 61.9162C1476.8 60.9936 1476.29 60.2669 1475.63 59.7362C1474.97 59.2055 1474.19 58.8885 1473.31 58.7853C1472.43 58.6788 1471.49 58.8127 1470.48 59.187C1469.54 59.5381 1468.72 60.0424 1468.02 60.6997C1467.32 61.3449 1466.83 62.089 1466.54 62.932C1466.26 63.7662 1466.26 64.644 1466.56 65.5654L1463.36 66.7579C1462.88 65.3098 1462.85 63.8983 1463.25 62.5234C1463.66 61.1397 1464.4 59.9027 1465.48 58.8126C1466.56 57.7191 1467.89 56.8792 1469.46 56.2929C1471.15 55.6635 1472.72 55.4651 1474.18 55.6977C1475.64 55.9214 1476.9 56.4668 1477.96 57.3339C1479.03 58.201 1479.8 59.2777 1480.28 60.564C1480.85 62.0987 1480.93 63.5579 1480.53 64.9417C1480.14 66.3221 1479.33 67.4775 1478.11 68.4079L1478.19 68.6208C1480.02 68.262 1481.63 68.492 1483.04 69.3109C1484.45 70.1208 1485.47 71.3907 1486.12 73.1206C1486.67 74.6021 1486.76 76.0835 1486.4 77.5648C1486.04 79.0339 1485.29 80.364 1484.16 81.5549C1483.03 82.7459 1481.58 83.671 1479.81 84.3301Z" fill="#003B2F"/><path d="M1322.33 126.166L1365.51 109.556" stroke="#003B2F" stroke-width="3" stroke-miterlimit="10" stroke-linecap="round" stroke-linejoin="round"/><path d="M1456.89 217.265L1456.13 215.229L1460.65 204.004C1461.18 202.689 1461.6 201.561 1461.91 200.62C1462.22 199.672 1462.39 198.825 1462.43 198.08C1462.48 197.325 1462.37 196.592 1462.1 195.884C1461.8 195.069 1461.34 194.437 1460.72 193.988C1460.12 193.536 1459.42 193.273 1458.63 193.2C1457.83 193.126 1457.02 193.245 1456.18 193.558C1455.29 193.89 1454.58 194.365 1454.06 194.982C1453.54 195.589 1453.22 196.288 1453.1 197.079C1452.99 197.868 1453.1 198.703 1453.43 199.585L1450.76 200.582C1450.26 199.225 1450.12 197.916 1450.37 196.657C1450.61 195.398 1451.16 194.28 1452.03 193.305C1452.9 192.326 1454.01 191.585 1455.36 191.081C1456.72 190.574 1458.03 190.412 1459.29 190.593C1460.55 190.775 1461.66 191.241 1462.62 191.991C1463.58 192.742 1464.28 193.712 1464.73 194.904C1465.04 195.756 1465.2 196.647 1465.2 197.577C1465.2 198.496 1465 199.594 1464.62 200.871C1464.24 202.138 1463.66 203.731 1462.86 205.652L1459.74 213.16L1459.8 213.341L1470.57 209.32L1471.5 211.808L1456.89 217.265ZM1483.85 207.56C1482.14 208.196 1480.52 208.274 1478.97 207.794C1477.42 207.307 1476 206.296 1474.71 204.76C1473.41 203.217 1472.29 201.186 1471.35 198.668C1470.42 196.164 1469.93 193.908 1469.91 191.9C1469.88 189.881 1470.3 188.18 1471.15 186.797C1472 185.404 1473.27 184.392 1474.96 183.762C1476.65 183.131 1478.27 183.063 1479.82 183.558C1481.38 184.042 1482.8 185.056 1484.1 186.599C1485.4 188.132 1486.52 190.15 1487.46 192.654C1488.4 195.172 1488.88 197.439 1488.91 199.455C1488.94 201.464 1488.53 203.16 1487.68 204.542C1486.83 205.918 1485.55 206.923 1483.85 207.56ZM1482.92 205.071C1484.61 204.441 1485.62 203.136 1485.94 201.158C1486.27 199.18 1485.87 196.683 1484.74 193.667C1483.99 191.661 1483.14 190.034 1482.18 188.784C1481.24 187.532 1480.22 186.685 1479.15 186.245C1478.08 185.801 1476.99 185.788 1475.87 186.205C1474.2 186.83 1473.2 188.144 1472.87 190.147C1472.54 192.143 1472.94 194.645 1474.07 197.654C1474.81 199.66 1475.66 201.285 1476.61 202.53C1477.55 203.775 1478.56 204.615 1479.62 205.051C1480.7 205.484 1481.79 205.491 1482.92 205.071ZM1496.08 202.631L1495.32 200.595L1499.84 189.37C1500.37 188.055 1500.79 186.927 1501.1 185.986C1501.41 185.038 1501.58 184.191 1501.62 183.446C1501.67 182.69 1501.56 181.958 1501.29 181.249C1500.99 180.435 1500.53 179.803 1499.92 179.354C1499.31 178.902 1498.61 178.639 1497.82 178.565C1497.02 178.492 1496.21 178.611 1495.37 178.924C1494.48 179.256 1493.78 179.731 1493.25 180.348C1492.73 180.955 1492.41 181.654 1492.29 182.445C1492.18 183.233 1492.29 184.069 1492.62 184.951L1489.95 185.948C1489.45 184.59 1489.32 183.282 1489.56 182.023C1489.8 180.764 1490.35 179.646 1491.22 178.67C1492.09 177.692 1493.2 176.951 1494.55 176.447C1495.91 175.94 1497.22 175.777 1498.48 175.959C1499.74 176.141 1500.85 176.607 1501.81 177.357C1502.77 178.107 1503.47 179.078 1503.92 180.27C1504.24 181.122 1504.39 182.013 1504.39 182.942C1504.39 183.862 1504.2 184.96 1503.81 186.237C1503.44 187.504 1502.85 189.097 1502.05 191.018L1498.93 198.526L1499 198.707L1509.76 194.686L1510.69 197.174L1496.08 202.631ZM1515.37 195.43L1514.61 193.394L1519.13 182.169C1519.66 180.854 1520.08 179.726 1520.39 178.785C1520.7 177.837 1520.87 176.99 1520.91 176.245C1520.95 175.489 1520.84 174.757 1520.58 174.048C1520.27 173.234 1519.82 172.602 1519.2 172.153C1518.59 171.701 1517.89 171.438 1517.1 171.364C1516.31 171.291 1515.5 171.41 1514.66 171.723C1513.77 172.055 1513.06 172.53 1512.53 173.147C1512.01 173.754 1511.7 174.453 1511.58 175.244C1511.47 176.032 1511.58 176.868 1511.91 177.75L1509.24 178.747C1508.73 177.389 1508.6 176.081 1508.84 174.822C1509.09 173.563 1509.64 172.445 1510.5 171.47C1511.38 170.491 1512.49 169.75 1513.84 169.246C1515.19 168.739 1516.5 168.576 1517.77 168.758C1519.03 168.94 1520.14 169.406 1521.1 170.156C1522.06 170.906 1522.76 171.877 1523.2 173.069C1523.52 173.921 1523.68 174.812 1523.67 175.741C1523.67 176.661 1523.48 177.759 1523.1 179.036C1522.72 180.303 1522.13 181.896 1521.34 183.817L1518.21 191.325L1518.28 191.506L1529.05 187.485L1529.98 189.973L1515.37 195.43Z" fill="#003B2F"/><path d="M1377.97 230.199L1421.16 213.589" stroke="#003B2F" stroke-width="3" stroke-miterlimit="10" stroke-linecap="round" stroke-linejoin="round"/><path d="M1504.11 332.083L1503.46 330.346L1507.31 320.772C1507.77 319.65 1508.13 318.688 1508.39 317.886C1508.65 317.077 1508.8 316.355 1508.84 315.719C1508.87 315.075 1508.78 314.45 1508.55 313.846C1508.29 313.151 1507.9 312.612 1507.38 312.229C1506.86 311.843 1506.26 311.619 1505.59 311.556C1504.91 311.494 1504.22 311.595 1503.5 311.862C1502.74 312.145 1502.14 312.55 1501.69 313.077C1501.25 313.594 1500.98 314.191 1500.88 314.866C1500.78 315.538 1500.88 316.25 1501.16 317.003L1498.88 317.853C1498.45 316.695 1498.34 315.58 1498.54 314.505C1498.75 313.431 1499.22 312.478 1499.96 311.646C1500.7 310.811 1501.65 310.179 1502.8 309.749C1503.96 309.317 1505.08 309.178 1506.15 309.333C1507.23 309.488 1508.18 309.886 1509 310.526C1509.81 311.166 1510.41 311.994 1510.79 313.01C1511.06 313.737 1511.2 314.497 1511.19 315.29C1511.19 316.074 1511.03 317.011 1510.7 318.1C1510.38 319.18 1509.88 320.539 1509.2 322.178L1506.54 328.581L1506.59 328.736L1515.78 325.306L1516.57 327.429L1504.11 332.083ZM1527.1 323.805C1525.65 324.347 1524.26 324.414 1522.94 324.005C1521.62 323.589 1520.41 322.727 1519.31 321.417C1518.2 320.101 1517.24 318.369 1516.44 316.22C1515.65 314.085 1515.23 312.161 1515.21 310.448C1515.19 308.726 1515.54 307.275 1516.27 306.096C1517 304.907 1518.08 304.044 1519.52 303.506C1520.96 302.969 1522.34 302.911 1523.67 303.333C1524.99 303.746 1526.21 304.611 1527.32 305.927C1528.43 307.234 1529.38 308.955 1530.18 311.091C1530.98 313.239 1531.4 315.173 1531.42 316.892C1531.45 318.606 1531.1 320.052 1530.37 321.231C1529.65 322.404 1528.55 323.262 1527.1 323.805ZM1526.31 321.682C1527.75 321.144 1528.61 320.032 1528.89 318.345C1529.17 316.658 1528.83 314.528 1527.87 311.955C1527.23 310.244 1526.5 308.856 1525.68 307.79C1524.87 306.722 1524.01 306 1523.09 305.624C1522.18 305.246 1521.25 305.235 1520.3 305.59C1518.87 306.123 1518.02 307.244 1517.74 308.953C1517.46 310.655 1517.8 312.79 1518.76 315.356C1519.4 317.067 1520.12 318.453 1520.93 319.515C1521.73 320.577 1522.59 321.293 1523.5 321.665C1524.41 322.034 1525.35 322.04 1526.31 321.682ZM1537.54 319.601L1536.89 317.864L1540.74 308.29C1541.2 307.168 1541.55 306.206 1541.82 305.404C1542.08 304.595 1542.23 303.873 1542.26 303.237C1542.3 302.593 1542.21 301.968 1541.98 301.364C1541.72 300.669 1541.33 300.13 1540.81 299.747C1540.29 299.361 1539.69 299.137 1539.02 299.074C1538.34 299.011 1537.65 299.113 1536.93 299.38C1536.17 299.663 1535.57 300.068 1535.12 300.595C1534.68 301.112 1534.4 301.709 1534.31 302.383C1534.21 303.056 1534.31 303.768 1534.59 304.521L1532.31 305.371C1531.88 304.213 1531.76 303.097 1531.97 302.023C1532.18 300.949 1532.65 299.996 1533.39 299.164C1534.13 298.329 1535.08 297.697 1536.23 297.267C1537.39 296.835 1538.51 296.696 1539.58 296.851C1540.66 297.006 1541.61 297.404 1542.42 298.044C1543.24 298.684 1543.84 299.512 1544.22 300.528C1544.49 301.255 1544.63 302.015 1544.62 302.808C1544.62 303.592 1544.46 304.529 1544.13 305.618C1543.81 306.698 1543.31 308.057 1542.63 309.696L1539.97 316.099L1540.02 316.254L1549.21 312.824L1550 314.947L1537.54 319.601ZM1553.55 291.107L1560.93 310.865L1558.54 311.758L1552.1 294.509L1551.98 294.552L1548.35 299.556L1547.45 297.125L1551.16 292.001L1553.55 291.107Z" fill="#003B2F"/><path d="M1429.52 352.479L1472.7 335.869" stroke="#003B2F" stroke-width="3" stroke-miterlimit="10" stroke-linecap="round" stroke-linejoin="round"/><path d="M1525.42 453.47L1524.86 451.973L1528.19 443.72C1528.58 442.752 1528.89 441.923 1529.11 441.231C1529.34 440.534 1529.47 439.912 1529.5 439.364C1529.53 438.808 1529.45 438.27 1529.25 437.749C1529.03 437.15 1528.69 436.685 1528.24 436.355C1527.79 436.022 1527.28 435.829 1526.7 435.775C1526.11 435.721 1525.52 435.809 1524.9 436.039C1524.25 436.283 1523.73 436.632 1523.34 437.086C1522.96 437.532 1522.72 438.046 1522.64 438.628C1522.56 439.207 1522.64 439.822 1522.88 440.47L1520.92 441.203C1520.54 440.205 1520.45 439.243 1520.62 438.317C1520.8 437.391 1521.21 436.57 1521.85 435.852C1522.49 435.133 1523.3 434.588 1524.3 434.217C1525.29 433.845 1526.26 433.725 1527.19 433.859C1528.11 433.992 1528.93 434.335 1529.63 434.887C1530.34 435.438 1530.86 436.152 1531.18 437.028C1531.42 437.655 1531.53 438.31 1531.53 438.994C1531.53 439.67 1531.39 440.477 1531.11 441.416C1530.83 442.347 1530.4 443.519 1529.81 444.931L1527.52 450.452L1527.56 450.585L1535.48 447.628L1536.17 449.458L1525.42 453.47ZM1545.24 446.334C1543.99 446.802 1542.8 446.859 1541.66 446.507C1540.52 446.148 1539.48 445.405 1538.52 444.275C1537.57 443.141 1536.75 441.648 1536.05 439.796C1535.37 437.955 1535.01 436.296 1534.99 434.819C1534.98 433.335 1535.28 432.084 1535.9 431.068C1536.53 430.043 1537.47 429.299 1538.71 428.835C1539.95 428.372 1541.14 428.322 1542.28 428.686C1543.43 429.042 1544.48 429.787 1545.43 430.922C1546.39 432.049 1547.21 433.533 1547.9 435.374C1548.59 437.225 1548.95 438.893 1548.97 440.375C1548.99 441.852 1548.69 443.099 1548.06 444.115C1547.44 445.127 1546.5 445.866 1545.24 446.334ZM1544.56 444.504C1545.8 444.041 1546.54 443.081 1546.78 441.627C1547.02 440.173 1546.73 438.337 1545.9 436.119C1545.35 434.644 1544.72 433.447 1544.02 432.528C1543.32 431.608 1542.58 430.985 1541.79 430.661C1541 430.335 1540.2 430.325 1539.38 430.632C1538.15 431.092 1537.41 432.058 1537.17 433.531C1536.93 434.998 1537.22 436.838 1538.05 439.05C1538.6 440.525 1539.22 441.72 1539.92 442.636C1540.62 443.551 1541.35 444.169 1542.14 444.489C1542.93 444.808 1543.73 444.813 1544.56 444.504ZM1554.24 442.71L1553.68 441.213L1557 432.959C1557.39 431.992 1557.7 431.163 1557.93 430.471C1558.16 429.774 1558.29 429.151 1558.31 428.603C1558.35 428.048 1558.27 427.509 1558.07 426.988C1557.85 426.389 1557.51 425.925 1557.06 425.594C1556.61 425.262 1556.1 425.069 1555.51 425.015C1554.93 424.96 1554.33 425.048 1553.72 425.278C1553.06 425.522 1552.54 425.871 1552.16 426.325C1551.77 426.772 1551.54 427.286 1551.45 427.867C1551.37 428.447 1551.45 429.061 1551.7 429.71L1549.73 430.443C1549.36 429.445 1549.26 428.483 1549.44 427.557C1549.62 426.631 1550.03 425.809 1550.66 425.092C1551.3 424.372 1552.12 423.827 1553.11 423.457C1554.11 423.084 1555.07 422.965 1556 423.098C1556.93 423.232 1557.75 423.574 1558.45 424.126C1559.16 424.678 1559.67 425.392 1560 426.268C1560.23 426.894 1560.35 427.549 1560.35 428.233C1560.35 428.909 1560.21 429.717 1559.92 430.656C1559.65 431.587 1559.22 432.759 1558.63 434.171L1556.33 439.691L1556.38 439.824L1564.3 436.868L1564.98 438.698L1554.24 442.71ZM1574.06 435.573C1572.81 436.041 1571.61 436.099 1570.48 435.746C1569.34 435.388 1568.29 434.644 1567.34 433.515C1566.39 432.38 1565.56 430.887 1564.87 429.035C1564.18 427.195 1563.83 425.536 1563.81 424.059C1563.79 422.574 1564.1 421.324 1564.72 420.307C1565.35 419.283 1566.28 418.539 1567.53 418.075C1568.77 417.611 1569.96 417.561 1571.1 417.925C1572.24 418.281 1573.29 419.027 1574.25 420.162C1575.21 421.289 1576.03 422.772 1576.72 424.613C1577.41 426.465 1577.76 428.132 1577.79 429.615C1577.81 431.091 1577.51 432.338 1576.88 433.355C1576.25 434.366 1575.31 435.106 1574.06 435.573ZM1573.38 433.744C1574.62 433.28 1575.36 432.321 1575.6 430.867C1575.84 429.412 1575.55 427.576 1574.72 425.358C1574.17 423.884 1573.54 422.687 1572.84 421.768C1572.14 420.847 1571.4 420.225 1570.61 419.901C1569.82 419.575 1569.02 419.565 1568.2 419.871C1566.97 420.331 1566.23 421.297 1565.99 422.77C1565.75 424.238 1566.04 426.078 1566.87 428.29C1567.42 429.765 1568.04 430.96 1568.74 431.875C1569.43 432.791 1570.17 433.409 1570.96 433.729C1571.74 434.047 1572.55 434.052 1573.38 433.744Z" fill="#003B2F"/><path d="M1451.11 473.749L1494.3 457.139" stroke="#003B2F" stroke-width="3" stroke-miterlimit="10" stroke-linecap="round" stroke-linejoin="round"/><path d="M1519.53 551.847L1519.13 550.77L1521.52 544.827C1521.81 544.13 1522.03 543.533 1522.19 543.035C1522.36 542.533 1522.45 542.085 1522.47 541.691C1522.49 541.291 1522.43 540.903 1522.29 540.528C1522.13 540.097 1521.89 539.762 1521.56 539.524C1521.24 539.285 1520.87 539.146 1520.45 539.107C1520.03 539.068 1519.6 539.131 1519.16 539.296C1518.69 539.472 1518.31 539.724 1518.04 540.05C1517.76 540.372 1517.59 540.742 1517.53 541.161C1517.47 541.578 1517.53 542.02 1517.7 542.487L1516.29 543.015C1516.02 542.296 1515.95 541.604 1516.08 540.937C1516.21 540.271 1516.5 539.679 1516.96 539.162C1517.42 538.644 1518.01 538.252 1518.72 537.985C1519.44 537.717 1520.14 537.631 1520.8 537.727C1521.47 537.823 1522.06 538.07 1522.57 538.467C1523.08 538.864 1523.45 539.378 1523.68 540.009C1523.85 540.46 1523.93 540.932 1523.93 541.424C1523.93 541.911 1523.83 542.492 1523.63 543.168C1523.43 543.839 1523.12 544.682 1522.7 545.699L1521.04 549.674L1521.08 549.77L1526.78 547.641L1527.27 548.959L1519.53 551.847ZM1533.81 546.709C1532.9 547.046 1532.04 547.087 1531.23 546.833C1530.41 546.575 1529.65 546.04 1528.97 545.227C1528.28 544.41 1527.69 543.335 1527.19 542.002C1526.7 540.676 1526.44 539.482 1526.43 538.419C1526.41 537.35 1526.63 536.449 1527.08 535.717C1527.53 534.98 1528.21 534.444 1529.1 534.11C1530 533.776 1530.85 533.74 1531.67 534.002C1532.5 534.259 1533.25 534.796 1533.94 535.613C1534.63 536.424 1535.22 537.492 1535.72 538.818C1536.22 540.151 1536.47 541.351 1536.49 542.419C1536.5 543.482 1536.29 544.38 1535.84 545.112C1535.38 545.84 1534.71 546.372 1533.81 546.709ZM1533.31 545.392C1534.21 545.058 1534.74 544.367 1534.91 543.32C1535.09 542.273 1534.88 540.951 1534.28 539.354C1533.88 538.292 1533.43 537.431 1532.93 536.769C1532.42 536.106 1531.89 535.658 1531.32 535.425C1530.75 535.19 1530.18 535.183 1529.58 535.404C1528.7 535.735 1528.17 536.43 1528 537.491C1527.82 538.548 1528.03 539.872 1528.63 541.465C1529.02 542.527 1529.47 543.387 1529.97 544.046C1530.47 544.706 1531.01 545.15 1531.57 545.381C1532.14 545.61 1532.72 545.614 1533.31 545.392ZM1540.01 530.226L1544.59 542.49L1543.11 543.044L1539.11 532.338L1539.04 532.365L1536.79 535.471L1536.22 533.962L1538.53 530.781L1540.01 530.226ZM1547.38 527.284C1547.89 527.1 1548.43 527.008 1549 527.008C1549.57 527.008 1550.15 527.148 1550.73 527.428C1551.3 527.704 1551.85 528.168 1552.39 528.821C1552.92 529.473 1553.39 530.363 1553.81 531.488C1554.22 532.578 1554.48 533.585 1554.58 534.509C1554.69 535.427 1554.66 536.248 1554.49 536.972C1554.33 537.694 1554.02 538.307 1553.58 538.812C1553.15 539.316 1552.59 539.697 1551.9 539.954C1551.21 540.211 1550.55 540.304 1549.91 540.234C1549.27 540.158 1548.69 539.941 1548.16 539.582C1547.64 539.217 1547.21 538.73 1546.87 538.119L1548.33 537.573C1548.67 538.087 1549.11 538.454 1549.64 538.676C1550.17 538.891 1550.76 538.878 1551.4 538.637C1552.35 538.284 1552.94 537.592 1553.18 536.561C1553.42 535.529 1553.26 534.259 1552.7 532.75L1552.6 532.785C1552.5 533.204 1552.35 533.593 1552.13 533.951C1551.91 534.309 1551.64 534.624 1551.32 534.896C1550.99 535.168 1550.62 535.383 1550.19 535.541C1549.49 535.803 1548.78 535.871 1548.06 535.742C1547.35 535.609 1546.7 535.302 1546.12 534.822C1545.55 534.337 1545.11 533.7 1544.82 532.909C1544.54 532.159 1544.45 531.409 1544.55 530.661C1544.66 529.908 1544.94 529.232 1545.42 528.632C1545.89 528.031 1546.55 527.582 1547.38 527.284ZM1547.88 528.601C1547.37 528.789 1546.97 529.084 1546.66 529.486C1546.35 529.883 1546.16 530.337 1546.08 530.848C1546.01 531.353 1546.06 531.862 1546.25 532.373C1546.44 532.884 1546.73 533.307 1547.11 533.643C1547.49 533.973 1547.93 534.189 1548.41 534.29C1548.9 534.386 1549.39 534.34 1549.89 534.152C1550.27 534.011 1550.6 533.805 1550.87 533.535C1551.14 533.261 1551.35 532.949 1551.5 532.598C1551.65 532.242 1551.73 531.873 1551.74 531.489C1551.76 531.102 1551.7 530.726 1551.56 530.363C1551.38 529.884 1551.1 529.478 1550.71 529.145C1550.33 528.811 1549.89 528.59 1549.39 528.481C1548.89 528.37 1548.39 528.411 1547.88 528.601Z" fill="#003B2F"/><path d="M1445.38 571.009L1488.56 554.409" stroke="#003B2F" stroke-width="3" stroke-miterlimit="10" stroke-linecap="round" stroke-linejoin="round"/><path d="M1423.78 636.688L1466.97 620.078" stroke="#003B2F" stroke-width="3" stroke-miterlimit="10" stroke-linecap="round" stroke-linejoin="round"/><path d="M261.224 897.878L300.504 873.428" stroke="#003B2F" stroke-width="3" stroke-miterlimit="10" stroke-linecap="round" stroke-linejoin="round"/><path d="M288.057 755.71L287.013 753.66L290.42 741.307C290.821 739.859 291.128 738.622 291.341 737.595C291.551 736.561 291.632 735.649 291.584 734.86C291.54 734.06 291.336 733.303 290.972 732.589C290.554 731.769 289.995 731.16 289.295 730.761C288.602 730.358 287.834 730.166 286.992 730.183C286.15 730.201 285.307 730.425 284.464 730.854C283.568 731.311 282.88 731.895 282.402 732.608C281.927 733.309 281.675 734.082 281.647 734.929C281.627 735.771 281.843 736.637 282.295 737.526L279.607 738.895C278.911 737.528 278.615 736.167 278.719 734.814C278.823 733.46 279.271 732.217 280.063 731.087C280.863 729.953 281.942 729.039 283.302 728.347C284.669 727.651 286.027 727.322 287.377 727.362C288.727 727.401 289.951 727.758 291.05 728.432C292.149 729.106 293.004 730.043 293.615 731.243C294.052 732.101 294.324 733.02 294.431 733.999C294.541 734.966 294.471 736.144 294.223 737.534C293.977 738.912 293.552 740.659 292.947 742.775L290.561 751.049L290.654 751.231L301.499 745.707L302.776 748.213L288.057 755.71ZM315.253 742.259C313.537 743.134 311.837 743.411 310.153 743.092C308.466 742.766 306.849 741.872 305.302 740.413C303.751 738.945 302.329 736.943 301.037 734.407C299.753 731.885 298.975 729.57 298.704 727.46C298.437 725.339 298.667 723.5 299.395 721.943C300.126 720.375 301.343 719.157 303.044 718.291C304.745 717.424 306.441 717.158 308.132 717.492C309.827 717.815 311.45 718.71 313.001 720.178C314.556 721.634 315.975 723.622 317.26 726.144C318.552 728.68 319.335 731.007 319.61 733.124C319.881 735.234 319.653 737.067 318.925 738.624C318.193 740.173 316.969 741.385 315.253 742.259ZM313.976 739.753C315.678 738.887 316.581 737.393 316.687 735.273C316.793 733.153 316.073 730.574 314.525 727.536C313.496 725.516 312.404 723.906 311.247 722.707C310.099 721.503 308.932 720.734 307.748 720.4C306.572 720.062 305.421 720.179 304.297 720.752C302.611 721.61 301.717 723.113 301.615 725.26C301.509 727.399 302.228 729.984 303.771 733.014C304.8 735.034 305.887 736.642 307.032 737.838C308.177 739.034 309.336 739.797 310.509 740.128C311.689 740.455 312.845 740.33 313.976 739.753ZM323.849 708.095L335.733 731.426L332.907 732.865L322.532 712.496L322.395 712.566L318.626 719.249L317.164 716.379L321.023 709.534L323.849 708.095ZM338.761 700.5L350.645 723.83L347.819 725.269L337.444 704.901L337.307 704.97L333.538 711.654L332.076 708.783L335.935 701.939L338.761 700.5Z" fill="#003B2F"/><path d="M220.584 784.04L259.864 759.6" stroke="#003B2F" stroke-width="3" stroke-miterlimit="10" stroke-linecap="round" stroke-linejoin="round"/><path d="M265.641 647.75L264.702 646.005L267.393 635.305C267.71 634.051 267.95 632.98 268.114 632.092C268.274 631.197 268.326 630.411 268.269 629.733C268.216 629.045 268.025 628.397 267.698 627.79C267.323 627.092 266.829 626.578 266.218 626.249C265.614 625.916 264.949 625.765 264.225 625.797C263.5 625.828 262.779 626.037 262.062 626.423C261.299 626.834 260.719 627.351 260.321 627.973C259.926 628.586 259.724 629.257 259.717 629.986C259.716 630.712 259.919 631.453 260.326 632.209L258.038 633.44C257.412 632.277 257.13 631.112 257.194 629.944C257.257 628.777 257.618 627.699 258.278 626.71C258.944 625.718 259.856 624.911 261.012 624.288C262.175 623.662 263.338 623.352 264.501 623.36C265.663 623.368 266.724 623.651 267.684 624.21C268.643 624.768 269.397 625.558 269.947 626.579C270.34 627.309 270.592 628.095 270.703 628.935C270.816 629.766 270.78 630.782 270.593 631.983C270.409 633.173 270.077 634.686 269.597 636.519L267.706 643.688L267.789 643.844L277.017 638.876L278.165 641.008L265.641 647.75ZM288.789 635.639C287.329 636.425 285.871 636.698 284.415 636.456C282.957 636.208 281.547 635.47 280.187 634.244C278.823 633.011 277.56 631.316 276.398 629.157C275.243 627.012 274.528 625.034 274.254 623.223C273.982 621.402 274.144 619.815 274.74 618.46C275.339 617.096 276.363 616.024 277.81 615.245C279.258 614.466 280.713 614.204 282.175 614.458C283.64 614.703 285.055 615.442 286.418 616.674C287.785 617.897 289.046 619.582 290.201 621.727C291.363 623.885 292.083 625.873 292.361 627.69C292.636 629.501 292.475 631.084 291.879 632.438C291.279 633.786 290.249 634.853 288.789 635.639ZM287.641 633.507C289.088 632.727 289.837 631.424 289.887 629.597C289.937 627.77 289.266 625.564 287.875 622.979C286.949 621.26 285.977 619.896 284.958 618.886C283.946 617.872 282.927 617.233 281.901 616.969C280.882 616.701 279.894 616.824 278.937 617.339C277.503 618.111 276.763 619.422 276.717 621.272C276.667 623.116 277.337 625.327 278.724 627.905C279.65 629.624 280.617 630.987 281.626 631.994C282.635 633.001 283.647 633.636 284.663 633.897C285.686 634.155 286.678 634.025 287.641 633.507ZM295.52 606.061L306.207 625.913L303.803 627.207L294.473 609.876L294.357 609.938L291.242 615.765L289.927 613.323L293.116 607.355L295.52 606.061ZM318.769 619.5C317.49 620.189 316.231 620.583 314.993 620.683C313.761 620.779 312.641 620.594 311.632 620.129C310.626 619.654 309.817 618.91 309.205 617.897L311.648 616.582C312.044 617.194 312.561 617.629 313.199 617.885C313.834 618.135 314.533 618.217 315.295 618.132C316.058 618.047 316.82 617.799 317.583 617.388C318.436 616.929 319.112 616.373 319.611 615.721C320.11 615.069 320.404 614.377 320.494 613.646C320.583 612.914 320.44 612.199 320.065 611.501C319.671 610.771 319.144 610.226 318.483 609.865C317.819 609.497 317.052 609.343 316.184 609.402C315.316 609.461 314.377 609.762 313.369 610.305L311.78 611.161L310.632 609.028L312.221 608.172C313.01 607.748 313.625 607.234 314.066 606.629C314.514 606.021 314.767 605.368 314.825 604.671C314.889 603.969 314.733 603.27 314.357 602.572C313.996 601.9 313.532 601.395 312.967 601.057C312.402 600.72 311.773 600.558 311.081 600.573C310.395 600.583 309.687 600.785 308.957 601.179C308.272 601.547 307.693 602.021 307.221 602.6C306.753 603.169 306.455 603.792 306.327 604.469C306.197 605.14 306.292 605.813 306.615 606.49L304.289 607.742C303.767 606.681 303.59 605.601 303.757 604.503C303.921 603.398 304.359 602.37 305.073 601.419C305.793 600.465 306.724 599.68 307.868 599.064C309.096 598.403 310.283 598.085 311.43 598.109C312.573 598.127 313.598 598.413 314.505 598.967C315.411 599.521 316.117 600.266 316.621 601.203C317.223 602.321 317.442 603.433 317.278 604.537C317.121 605.639 316.623 606.611 315.785 607.454L315.869 607.609C317.234 607.141 318.5 607.147 319.667 607.627C320.83 608.101 321.751 608.968 322.43 610.228C323.011 611.307 323.238 612.435 323.113 613.611C322.991 614.777 322.558 615.877 321.814 616.911C321.07 617.944 320.055 618.808 318.769 619.5Z" fill="#003B2F"/><path d="M198.664 676.046L237.954 651.606" stroke="#003B2F" stroke-width="3" stroke-miterlimit="10" stroke-linecap="round" stroke-linejoin="round"/><path d="M254.911 544.239L254.063 542.663L256.494 532.999C256.78 531.866 256.997 530.898 257.145 530.096C257.289 529.288 257.336 528.578 257.285 527.965C257.236 527.344 257.065 526.759 256.769 526.21C256.43 525.58 255.984 525.116 255.433 524.818C254.887 524.518 254.286 524.381 253.632 524.41C252.977 524.439 252.326 524.628 251.678 524.976C250.989 525.347 250.465 525.814 250.106 526.376C249.749 526.93 249.567 527.536 249.56 528.194C249.559 528.85 249.742 529.519 250.11 530.202L248.044 531.314C247.478 530.264 247.224 529.211 247.281 528.156C247.338 527.102 247.665 526.128 248.261 525.235C248.862 524.339 249.685 523.61 250.73 523.047C251.781 522.482 252.831 522.203 253.881 522.209C254.931 522.216 255.89 522.472 256.756 522.977C257.622 523.481 258.304 524.195 258.8 525.117C259.155 525.777 259.383 526.486 259.483 527.245C259.586 527.995 259.553 528.913 259.384 529.997C259.217 531.073 258.918 532.439 258.484 534.095L256.776 540.571L256.851 540.711L265.186 536.224L266.223 538.15L254.911 544.239ZM275.819 533.3C274.5 534.01 273.183 534.256 271.869 534.038C270.551 533.814 269.278 533.148 268.049 532.04C266.817 530.927 265.677 529.395 264.627 527.446C263.584 525.508 262.938 523.721 262.69 522.086C262.445 520.441 262.591 519.007 263.13 517.784C263.671 516.552 264.595 515.584 265.903 514.88C267.21 514.176 268.524 513.939 269.845 514.169C271.168 514.39 272.446 515.057 273.678 516.171C274.912 517.275 276.051 518.797 277.094 520.734C278.144 522.684 278.794 524.479 279.045 526.121C279.293 527.756 279.148 529.185 278.61 530.409C278.068 531.626 277.138 532.59 275.819 533.3ZM274.782 531.374C276.089 530.67 276.766 529.493 276.811 527.843C276.856 526.193 276.25 524.2 274.993 521.865C274.157 520.313 273.279 519.08 272.359 518.168C271.445 517.253 270.524 516.675 269.598 516.436C268.677 516.194 267.784 516.306 266.921 516.771C265.625 517.468 264.956 518.653 264.915 520.324C264.87 521.989 265.475 523.986 266.728 526.315C267.564 527.867 268.438 529.098 269.349 530.008C270.26 530.918 271.175 531.49 272.092 531.727C273.016 531.96 273.912 531.842 274.782 531.374ZM281.899 506.585L291.551 524.515L289.38 525.684L280.953 510.03L280.848 510.086L278.035 515.35L276.847 513.143L279.727 507.754L281.899 506.585ZM302.443 518.968C301.416 519.521 300.38 519.814 299.338 519.849C298.295 519.883 297.333 519.678 296.454 519.233C295.575 518.788 294.866 518.123 294.33 517.238L296.431 516.106C296.949 516.874 297.678 517.347 298.618 517.526C299.56 517.696 300.49 517.535 301.406 517.042C302.141 516.646 302.702 516.122 303.089 515.469C303.481 514.814 303.679 514.098 303.682 513.321C303.688 512.534 303.485 511.759 303.074 510.995C302.653 510.212 302.105 509.608 301.431 509.18C300.759 508.744 300.03 508.508 299.243 508.472C298.456 508.437 297.679 508.622 296.911 509.027C296.359 509.317 295.841 509.705 295.358 510.191C294.871 510.671 294.513 511.146 294.284 511.616L292.121 512.464L288.456 503.055L297.771 498.04L298.808 499.966L291.314 504L293.53 509.628L293.635 509.571C293.846 509.081 294.177 508.591 294.627 508.1C295.078 507.609 295.604 507.201 296.205 506.878C297.303 506.287 298.422 506.024 299.562 506.087C300.706 506.141 301.766 506.489 302.744 507.13C303.727 507.767 304.531 508.667 305.156 509.828C305.772 510.972 306.065 512.132 306.035 513.307C306.008 514.474 305.688 515.557 305.075 516.557C304.458 517.552 303.581 518.355 302.443 518.968Z" fill="#003B2F"/><path d="M195.724 567.135L235.004 542.695" stroke="#003B2F" stroke-width="3" stroke-miterlimit="10" stroke-linecap="round" stroke-linejoin="round"/><path d="M1075.33 856.786V944.076L729.204 884.696V797.236L1075.33 856.786Z" fill="#003B2F" stroke="#003B2F" stroke-width="3" stroke-miterlimit="10" stroke-linecap="round" stroke-linejoin="round"/><path d="M1328.25 690.985L1299.66 709.765L1075.33 856.785L729.204 797.235L666.774 641.595L638.864 571.885L893.474 409.985L1235.2 468.525L1328.25 690.985Z" fill="#E6E8EA" stroke="#003B2F" stroke-width="3" stroke-miterlimit="10" stroke-linecap="round" stroke-linejoin="round"/><path d="M729.204 797.235V884.695L638.864 659.355V571.885L666.774 641.595L729.204 797.235Z" fill="#003B2F" stroke="#003B2F" stroke-width="3" stroke-miterlimit="10" stroke-linecap="round" stroke-linejoin="round"/><path d="M1328.25 690.986V778.286L1075.33 944.076V856.786L1299.66 709.766L1328.25 690.986Z" fill="#003B2F" stroke="#003B2F" stroke-width="3" stroke-miterlimit="10" stroke-linecap="round" stroke-linejoin="round"/><path d="M1328.25 690.985L1299.66 709.765L1075.33 856.785L729.204 797.235L666.774 641.595L638.864 571.885L893.474 409.985L1235.2 468.525L1328.25 690.985Z" fill="white" stroke="#003B2F" stroke-width="3" stroke-miterlimit="10" stroke-linecap="round" stroke-linejoin="round"/><path d="M748.704 773.117L672.344 582.677L899.194 438.438L1215.98 492.707L1294.62 680.697L1069.42 828.298L748.704 773.117Z" stroke="#03FC9D" stroke-width="3" stroke-miterlimit="10" stroke-linecap="round" stroke-linejoin="round"/><path d="M911.354 580.411C907.514 564.711 912.914 538.311 919.114 525.381C917.544 529.041 916.364 532.881 915.534 536.831C913.694 545.601 913.794 555.081 916.074 564.961C916.134 565.321 916.214 565.661 916.304 566.021C927.494 612.001 981.504 649.021 1036.91 648.681C1037.72 648.671 1038.53 648.641 1039.34 648.611C1039.86 648.591 1040.41 648.561 1040.93 648.541C1041.02 648.551 1041.07 648.531 1041.16 648.521C1075.28 647.141 1101.46 631.451 1112.81 608.421C1114.14 605.751 1115.26 602.951 1116.16 600.071C1109.6 631.731 1075.01 662.831 1031.96 663.081C976.554 663.401 922.544 626.381 911.354 580.411Z" fill="#03FC9D"/><path d="M916.294 566.01C916.204 565.65 916.124 565.31 916.064 564.95C913.784 555.07 913.684 545.58 915.524 536.82C916.344 532.87 917.534 529.03 919.104 525.37C919.174 525.19 919.274 524.99 919.374 524.79C930.494 499.55 958.944 482.37 996.344 482.15C1051.76 481.84 1105.76 518.83 1116.98 564.81C1120.05 577.4 1119.59 589.34 1116.16 600.05C1115.25 602.93 1114.14 605.72 1112.81 608.4C1101.46 631.44 1075.28 647.12 1041.16 648.5C1041.07 648.51 1041.02 648.53 1040.93 648.52C1040.41 648.54 1039.86 648.57 1039.34 648.59C1038.53 648.62 1037.72 648.65 1036.91 648.66C981.494 649 927.494 611.99 916.294 566.01Z" fill="#E6E8EA"/><path d="M910.754 579.879C906.914 564.179 912.314 537.779 918.514 524.849C916.944 528.509 915.764 532.349 914.934 536.299C913.094 545.069 913.194 554.549 915.474 564.429C915.534 564.789 915.614 565.129 915.704 565.489C926.894 611.469 980.904 648.489 1036.31 648.149C1037.12 648.139 1037.93 648.109 1038.74 648.079C1039.26 648.059 1039.81 648.029 1040.33 648.009C1040.42 648.019 1040.47 647.999 1040.56 647.989C1074.68 646.609 1100.86 630.919 1112.21 607.889C1113.54 605.219 1114.66 602.419 1115.56 599.539C1109 631.199 1074.41 662.299 1031.36 662.549C975.954 662.879 921.944 625.859 910.754 579.879Z" stroke="#003B2F" stroke-width="3" stroke-miterlimit="10" stroke-linecap="round" stroke-linejoin="round"/><path d="M915.694 565.478C915.604 565.118 915.524 564.778 915.464 564.418C913.184 554.538 913.084 545.048 914.924 536.288C915.744 532.338 916.934 528.498 918.504 524.838C918.574 524.658 918.674 524.458 918.774 524.258C929.894 499.018 958.344 481.838 995.744 481.618C1051.16 481.308 1105.16 518.298 1116.38 564.278C1119.45 576.868 1118.99 588.808 1115.56 599.518C1114.65 602.398 1113.54 605.188 1112.21 607.868C1100.86 630.908 1074.68 646.588 1040.56 647.968C1040.47 647.978 1040.42 647.998 1040.33 647.988C1039.81 648.008 1039.26 648.038 1038.74 648.058C1037.93 648.088 1037.12 648.118 1036.31 648.128C980.894 648.478 926.884 611.458 915.694 565.478Z" stroke="#003B2F" stroke-width="3" stroke-miterlimit="10" stroke-linecap="round" stroke-linejoin="round"/><path fill-rule="evenodd" clip-rule="evenodd" d="M1048.54 603.347L1073.96 613.157L1084.89 562.257L1059.42 552.457L1055.15 572.457L1037.95 565.807C1039.9 549.827 1035.51 535.357 1027.08 532.097C1018.65 528.837 1009.15 537.967 1004.5 552.947L944.904 529.927L942.564 540.827L1002.15 563.787C1000.2 579.767 1004.6 594.307 1013.02 597.497C1021.4 600.757 1030.96 591.687 1035.67 576.767L1052.81 583.367L1048.54 603.347ZM1013.43 595.687C1009.24 594.057 1007.97 582.457 1010.52 567.037C1010.78 565.257 1011.14 563.397 1011.55 561.537C1011.96 559.677 1012.38 557.877 1012.86 556.137C1016.73 541.247 1022.47 532.317 1026.65 533.887C1030.84 535.517 1035.53 548.457 1033.7 564.167L1016.99 557.707L1014.65 568.607L1031.36 575.067C1026.77 589.667 1017.62 597.317 1013.43 595.687Z" fill="#003B2F"/><path d="M630.804 502.628C634.704 484.618 653.414 460.238 666.204 450.068C662.764 453.038 659.644 456.378 656.824 460.018C650.564 468.088 645.934 477.868 643.344 489.138C643.224 489.538 643.144 489.918 643.054 490.338C631.594 543.068 668.504 607.958 725.494 635.258C726.334 635.658 727.174 636.028 728.024 636.398C728.564 636.638 729.144 636.878 729.694 637.128C729.784 637.178 729.844 637.188 729.944 637.218C765.614 652.818 800.284 649.798 823.414 631.838C826.114 629.758 828.654 627.458 831.014 624.948C808.494 654.138 757.524 668.768 713.244 647.558C656.254 620.258 619.344 555.358 630.804 502.628Z" fill="#03FC9D"/><path d="M643.054 490.336C643.144 489.926 643.224 489.536 643.344 489.136C645.934 477.866 650.564 468.086 656.824 460.016C659.634 456.376 662.764 453.026 666.204 450.066C666.364 449.916 666.574 449.766 666.774 449.606C690.774 429.276 728.504 425.846 766.964 444.276C823.944 471.596 860.864 536.466 849.434 589.216C846.304 603.656 839.874 615.666 831.014 624.936C828.644 627.436 826.104 629.746 823.414 631.826C800.284 649.786 765.614 652.806 729.944 637.206C729.844 637.176 729.784 637.166 729.694 637.116C729.154 636.876 728.574 636.636 728.024 636.386C727.174 636.016 726.334 635.646 725.494 635.246C668.504 607.956 631.594 543.056 643.054 490.336Z" fill="#E6E8EA"/><path d="M630.444 501.789C634.344 483.779 653.054 459.399 665.844 449.229C662.404 452.199 659.284 455.539 656.464 459.179C650.204 467.249 645.574 477.029 642.984 488.299C642.864 488.699 642.784 489.079 642.694 489.499C631.234 542.229 668.144 607.119 725.134 634.419C725.974 634.819 726.814 635.189 727.664 635.559C728.204 635.799 728.784 636.039 729.334 636.289C729.424 636.339 729.484 636.349 729.584 636.379C765.254 651.979 799.924 648.959 823.054 630.999C825.754 628.919 828.294 626.619 830.654 624.109C808.134 653.299 757.164 667.929 712.884 646.719C655.894 619.419 618.984 554.519 630.444 501.789Z" stroke="#003B2F" stroke-width="3" stroke-miterlimit="10" stroke-linecap="round" stroke-linejoin="round"/><path d="M642.694 489.497C642.784 489.087 642.864 488.697 642.984 488.297C645.574 477.027 650.204 467.247 656.464 459.177C659.274 455.537 662.404 452.187 665.844 449.227C666.004 449.077 666.214 448.927 666.414 448.767C690.414 428.437 728.144 425.007 766.604 443.437C823.584 470.757 860.504 535.627 849.074 588.377C845.944 602.817 839.514 614.827 830.654 624.097C828.284 626.597 825.744 628.907 823.054 630.987C799.924 648.947 765.254 651.967 729.584 636.367C729.484 636.337 729.424 636.327 729.334 636.277C728.794 636.037 728.214 635.797 727.664 635.547C726.814 635.177 725.974 634.807 725.134 634.407C668.154 607.117 631.234 542.217 642.694 489.497Z" stroke="#003B2F" stroke-width="3" stroke-miterlimit="10" stroke-linecap="round" stroke-linejoin="round"/><path d="M710.434 478.547C708.684 476.937 709.034 475.407 710.414 473.927C734.454 462.077 766.234 467.477 789.524 488.957C812.814 510.437 820.624 541.547 810.554 566.287C809.754 568.307 807.664 568.227 805.924 566.617L801.854 562.857C800.614 561.747 800.014 560.127 800.324 558.687C807.284 538.437 800.784 514.047 782.154 496.867C763.524 479.677 737.544 475.027 718.804 483.507C717.304 483.957 715.674 483.377 714.514 482.307L710.434 478.547Z" fill="#003B2F"/><path d="M711.174 506.808C710.004 505.728 709.764 503.668 710.684 502.678L714.364 498.728C715.284 497.738 717.374 497.828 718.544 498.898L725.534 505.338C734.074 498.498 742.994 499.378 751.954 504.878C753.114 505.948 753.814 507.518 752.894 508.508L748.744 512.958C747.824 513.948 746.784 513.908 745.154 513.328C740.164 510.558 734.824 509.318 728.834 515.738C724.224 520.678 723.904 526.828 728.564 531.128C733.224 535.428 736.814 535.058 744.424 529.208C755.854 520.438 763.954 518.708 773.854 527.838C781.424 534.818 782.634 545.138 777.344 553.128L784.334 559.568C785.504 560.648 785.744 562.708 784.824 563.698L781.144 567.648C780.224 568.638 778.134 568.548 776.964 567.478L769.974 561.038C763.284 565.898 755.514 566.088 748.194 561.178C747.024 560.098 746.324 558.538 747.244 557.548L750.934 553.588C751.854 552.598 752.904 552.648 754.524 553.218C759.524 555.988 763.574 555.128 767.724 550.678C772.334 545.728 771.724 540.578 767.654 536.818C763.574 533.058 759.864 532.388 751.784 538.738C740.354 547.508 732.254 549.228 722.364 540.108C714.794 533.128 712.994 522.278 718.164 513.248L711.174 506.808Z" fill="#003B2F"/><path d="M685.524 500.629C686.324 498.609 688.414 498.689 690.154 500.299L694.234 504.059C695.394 505.129 696.094 506.699 695.764 508.229C688.804 528.479 695.304 552.869 713.934 570.049C732.564 587.229 758.544 591.889 777.274 583.409C778.694 582.999 780.364 583.459 781.574 584.609L785.644 588.369C787.394 589.979 787.044 591.509 785.664 592.989C762.084 604.349 729.844 599.439 706.554 577.959C683.274 556.479 675.464 525.369 685.524 500.629Z" fill="#003B2F"/><path d="M1027.02 529.885C1016 515.195 1009.85 485.175 1010.55 468.895C1010.54 473.425 1011.02 477.965 1011.92 482.455C1013.91 492.445 1018.25 502.315 1025.05 511.625C1025.27 511.975 1025.51 512.285 1025.76 512.625C1057.99 555.685 1130.97 570.265 1188.74 545.155C1189.59 544.785 1190.42 544.385 1191.25 543.995C1191.79 543.745 1192.35 543.465 1192.88 543.215C1192.98 543.185 1193.03 543.145 1193.11 543.085C1228.15 526.405 1248.51 498.325 1250.09 469.175C1250.29 465.785 1250.21 462.365 1249.87 458.945C1257.15 494.965 1234.89 542.915 1190 562.405C1132.23 587.515 1059.25 572.945 1027.02 529.885Z" fill="#03FC9D"/><path d="M1025.76 512.626C1025.51 512.286 1025.27 511.976 1025.05 511.626C1018.25 502.316 1013.91 492.446 1011.92 482.456C1011.02 477.966 1010.54 473.416 1010.55 468.896C1010.55 468.676 1010.56 468.416 1010.58 468.166C1010.93 436.816 1032.99 406.156 1071.99 389.226C1129.78 364.146 1202.74 378.696 1235 421.746C1243.83 433.536 1248.68 446.216 1249.88 458.946C1250.22 462.366 1250.3 465.786 1250.1 469.176C1248.52 498.326 1228.16 526.406 1193.12 543.086C1193.04 543.136 1192.99 543.186 1192.89 543.216C1192.35 543.466 1191.79 543.746 1191.26 543.996C1190.43 544.396 1189.59 544.786 1188.75 545.156C1130.97 570.266 1057.99 555.686 1025.76 512.626Z" fill="#E6E8EA"/><path d="M1026.16 529.607C1015.14 514.917 1008.99 484.897 1009.69 468.617C1009.68 473.147 1010.16 477.687 1011.06 482.177C1013.05 492.167 1017.39 502.037 1024.19 511.347C1024.41 511.697 1024.65 512.007 1024.9 512.347C1057.13 555.407 1130.11 569.987 1187.88 544.877C1188.73 544.507 1189.56 544.107 1190.39 543.717C1190.93 543.467 1191.49 543.187 1192.02 542.937C1192.12 542.907 1192.17 542.867 1192.25 542.807C1227.29 526.127 1247.65 498.047 1249.23 468.897C1249.43 465.507 1249.35 462.087 1249.01 458.667C1256.29 494.687 1234.03 542.637 1189.14 562.127C1131.37 587.237 1058.39 572.667 1026.16 529.607Z" stroke="#003B2F" stroke-width="3" stroke-miterlimit="10" stroke-linecap="round" stroke-linejoin="round"/><path d="M1024.9 512.347C1024.65 512.007 1024.41 511.697 1024.19 511.347C1017.39 502.037 1013.05 492.167 1011.06 482.177C1010.16 477.687 1009.68 473.137 1009.69 468.617C1009.69 468.397 1009.7 468.137 1009.72 467.887C1010.07 436.537 1032.13 405.877 1071.13 388.947C1128.92 363.867 1201.88 378.417 1234.14 421.467C1242.97 433.257 1247.82 445.937 1249.02 458.667C1249.36 462.087 1249.44 465.507 1249.24 468.897C1247.66 498.047 1227.3 526.127 1192.26 542.807C1192.18 542.857 1192.13 542.907 1192.03 542.937C1191.49 543.187 1190.93 543.467 1190.4 543.717C1189.57 544.117 1188.73 544.507 1187.89 544.877C1130.11 569.977 1057.13 555.407 1024.9 512.347Z" stroke="#003B2F" stroke-width="3" stroke-miterlimit="10" stroke-linecap="round" stroke-linejoin="round"/><path d="M1027.02 529.885C1016 515.195 1009.85 485.175 1010.55 468.895C1010.54 473.425 1011.02 477.965 1011.92 482.455C1013.91 492.445 1018.25 502.315 1025.05 511.625C1025.27 511.975 1025.51 512.285 1025.76 512.625C1057.99 555.685 1130.97 570.265 1188.74 545.155C1189.59 544.785 1190.42 544.385 1191.25 543.995C1191.79 543.745 1192.35 543.465 1192.88 543.215C1192.98 543.185 1193.03 543.145 1193.11 543.085C1228.15 526.405 1248.51 498.325 1250.09 469.175C1250.29 465.785 1250.21 462.365 1249.87 458.945C1257.15 494.965 1234.89 542.915 1190 562.405C1132.23 587.515 1059.25 572.945 1027.02 529.885Z" fill="#03FC9D"/><path d="M1025.76 512.626C1025.51 512.286 1025.27 511.976 1025.05 511.626C1018.25 502.316 1013.91 492.446 1011.92 482.456C1011.02 477.966 1010.54 473.416 1010.55 468.896C1010.55 468.676 1010.56 468.416 1010.58 468.166C1010.93 436.816 1032.99 406.156 1071.99 389.226C1129.78 364.146 1202.74 378.696 1235 421.746C1243.83 433.536 1248.68 446.216 1249.88 458.946C1250.22 462.366 1250.3 465.786 1250.1 469.176C1248.52 498.326 1228.16 526.406 1193.12 543.086C1193.04 543.136 1192.99 543.186 1192.89 543.216C1192.35 543.466 1191.79 543.746 1191.26 543.996C1190.43 544.396 1189.59 544.786 1188.75 545.156C1130.97 570.266 1057.99 555.686 1025.76 512.626Z" fill="#E6E8EA"/><path d="M1026.16 529.607C1015.14 514.917 1008.99 484.897 1009.69 468.617C1009.68 473.147 1010.16 477.687 1011.06 482.177C1013.05 492.167 1017.39 502.037 1024.19 511.347C1024.41 511.697 1024.65 512.007 1024.9 512.347C1057.13 555.407 1130.11 569.987 1187.88 544.877C1188.73 544.507 1189.56 544.107 1190.39 543.717C1190.93 543.467 1191.49 543.187 1192.02 542.937C1192.12 542.907 1192.17 542.867 1192.25 542.807C1227.29 526.127 1247.65 498.047 1249.23 468.897C1249.43 465.507 1249.35 462.087 1249.01 458.667C1256.29 494.687 1234.03 542.637 1189.14 562.127C1131.37 587.237 1058.39 572.667 1026.16 529.607Z" stroke="#003B2F" stroke-width="3" stroke-miterlimit="10" stroke-linecap="round" stroke-linejoin="round"/><path d="M1024.9 512.347C1024.65 512.007 1024.41 511.697 1024.19 511.347C1017.39 502.037 1013.05 492.167 1011.06 482.177C1010.16 477.687 1009.68 473.137 1009.69 468.617C1009.69 468.397 1009.7 468.137 1009.72 467.887C1010.07 436.537 1032.13 405.877 1071.13 388.947C1128.92 363.867 1201.88 378.417 1234.14 421.467C1242.97 433.257 1247.82 445.937 1249.02 458.667C1249.36 462.087 1249.44 465.507 1249.24 468.897C1247.66 498.047 1227.3 526.127 1192.26 542.807C1192.18 542.857 1192.13 542.907 1192.03 542.937C1191.49 543.187 1190.93 543.467 1190.4 543.717C1189.57 544.117 1188.73 544.507 1187.89 544.877C1130.11 569.977 1057.13 555.407 1024.9 512.347Z" stroke="#003B2F" stroke-width="3" stroke-miterlimit="10" stroke-linecap="round" stroke-linejoin="round"/><path d="M1137.22 424.967C1137.21 424.987 1137.21 425.007 1137.21 425.027C1137.42 425.317 1137.56 425.637 1137.65 425.977L1139.84 431.477L1141.77 436.307L1143.99 441.867L1145.87 446.577L1148.1 452.167L1149.99 456.907L1152.19 462.437L1153.82 466.507C1153.88 466.647 1154.02 466.787 1153.89 466.967C1153.85 466.987 1153.81 466.997 1153.76 467.007C1153.59 467.017 1153.42 467.007 1153.25 466.987C1137.61 466.527 1121.96 466.067 1106.3 465.607C1106.07 465.637 1105.83 465.597 1105.63 465.497C1106.57 464.277 1107.51 463.047 1108.45 461.827L1132.83 430.477L1137.13 424.927L1137.22 424.967Z" fill="#003B2F"/><path d="M1105.63 465.503L1153.58 466.913C1153.69 466.913 1153.8 466.923 1153.91 466.923C1154.07 466.893 1154.23 466.893 1154.39 466.903C1172.5 467.433 1190.61 467.973 1208.73 468.503C1208.94 468.513 1209.19 468.413 1209.33 468.663C1207.6 469.503 1205.87 470.353 1204.13 471.193L1129.21 507.413C1129.04 507.493 1128.88 507.563 1128.71 507.633C1128.63 507.443 1128.77 507.293 1128.86 507.143L1130.78 504.043L1134.58 497.933L1138.35 491.853C1139.63 489.803 1140.9 487.743 1142.17 485.683L1145.88 479.693L1149.71 473.493L1153.43 467.503L1153.54 467.323C1153.65 467.153 1153.62 467.053 1153.38 467.043C1153.24 467.043 1153.11 467.033 1152.97 467.033C1137.44 466.573 1121.9 466.123 1106.37 465.663C1106.12 465.703 1105.88 465.663 1105.67 465.553C1105.63 465.563 1105.59 465.563 1105.63 465.503Z" fill="#003B2F"/><path d="M1105.68 465.576C1109.53 465.686 1113.37 465.806 1117.21 465.916C1129.26 466.266 1141.31 466.626 1153.37 466.976C1153.89 466.996 1153.89 466.996 1153.62 467.426L1149.28 474.466C1148.32 476.016 1147.35 477.566 1146.39 479.116L1142.23 485.866L1139.83 489.716L1136.41 495.256L1134.01 499.106L1130.66 504.526L1128.82 507.496C1128.79 507.546 1128.77 507.596 1128.75 507.646C1128.55 507.636 1128.56 507.476 1128.51 507.376L1116.95 486.236L1105.95 466.096C1105.82 465.946 1105.74 465.756 1105.72 465.566L1105.68 465.576Z" fill="#003B2F"/><path d="M1091.56 465.144L1096.38 473.964L1110.01 498.944L1114.32 506.854C1114.37 506.944 1114.47 507.024 1114.42 507.154C1114.28 507.154 1114.22 507.044 1114.13 506.984C1094.12 492.744 1074.12 478.504 1054.12 464.254C1054.01 464.174 1053.8 464.154 1053.84 463.954C1054.04 463.884 1054.25 463.864 1054.46 463.874C1066.62 464.234 1078.78 464.594 1090.94 464.944C1091.17 464.964 1091.42 464.924 1091.56 465.144Z" fill="#003B2F"/><path d="M1091.56 465.145C1091.4 465.075 1091.21 465.055 1091.02 465.075C1078.8 464.715 1066.57 464.355 1054.35 463.995C1054.18 463.985 1054.01 463.985 1053.84 463.975C1054.7 463.415 1055.61 462.945 1056.5 462.435C1064.39 457.945 1072.28 453.445 1080.18 448.945L1103.8 435.515L1122.63 424.805L1123.05 424.575C1122.88 424.815 1122.76 424.975 1122.64 425.135L1104.07 449.015L1091.72 464.895C1091.66 464.965 1091.61 465.055 1091.56 465.145Z" fill="#003B2F"/><path d="M1209.33 468.687C1209.2 468.577 1209.03 468.627 1208.88 468.617C1190.72 468.087 1172.56 467.547 1154.4 467.017C1154.23 467.017 1154.05 467.057 1153.91 466.947C1154.02 466.867 1154.16 466.837 1154.3 466.857C1154.45 466.857 1154.59 466.867 1154.75 466.867C1172.7 467.397 1190.65 467.927 1208.6 468.457C1208.91 468.437 1209.21 468.487 1209.49 468.597L1209.48 468.657L1209.32 468.707L1209.33 468.687Z" fill="#003B2F"/><path d="M1209.49 468.574C1191.02 468.034 1172.54 467.484 1154.07 466.944C1154.02 466.944 1153.97 466.944 1153.92 466.944C1153.13 464.974 1152.33 463.004 1151.54 461.034C1150.7 458.954 1149.88 456.864 1149.05 454.774L1144.73 443.964L1141.71 436.404L1137.24 425.204C1137.22 425.154 1137.21 425.094 1137.21 425.044C1138.3 425.694 1139.4 426.324 1140.49 426.994L1168.15 443.664L1203.47 464.974L1209.29 468.484C1209.35 468.524 1209.42 468.574 1209.47 468.624L1209.49 468.574Z" fill="#003B2F"/><path d="M835.514 506.025C826.444 492.165 822.634 464.805 824.194 450.195C823.924 454.265 824.094 458.385 824.654 462.475C825.874 471.575 829.214 480.705 834.794 489.475C834.974 489.805 835.164 490.095 835.374 490.415C861.904 531.025 926.754 548.335 980.184 529.055C980.964 528.765 981.734 528.465 982.514 528.155C983.014 527.965 983.534 527.735 984.024 527.545C984.114 527.525 984.164 527.485 984.234 527.445C1016.73 514.445 1036.66 490.345 1039.76 464.195C1040.13 461.155 1040.26 458.075 1040.15 454.975C1044.63 487.805 1021.84 529.685 980.324 544.655C926.894 563.935 862.054 546.625 835.514 506.025Z" fill="#03FC9D"/><path d="M835.374 490.417C835.164 490.097 834.974 489.797 834.794 489.477C829.214 480.707 825.874 471.577 824.654 462.477C824.104 458.377 823.934 454.267 824.194 450.197C824.204 449.997 824.234 449.767 824.264 449.537C826.384 421.347 847.994 395.017 884.064 382.017C937.514 362.767 1002.34 380.057 1028.9 420.657C1036.17 431.777 1039.81 443.467 1040.15 454.987C1040.26 458.087 1040.13 461.167 1039.76 464.207C1036.66 490.347 1016.73 514.457 984.234 527.457C984.154 527.497 984.104 527.537 984.024 527.557C983.524 527.747 983.004 527.977 982.514 528.167C981.744 528.477 980.974 528.787 980.184 529.067C926.754 548.337 861.904 531.027 835.374 490.417Z" fill="#E6E8EA"/><path d="M834.754 505.718C825.684 491.858 821.874 464.498 823.434 449.888C823.164 453.958 823.334 458.078 823.894 462.168C825.114 471.268 828.454 480.398 834.034 489.168C834.214 489.498 834.404 489.788 834.614 490.108C861.144 530.718 925.994 548.028 979.424 528.748C980.204 528.458 980.974 528.158 981.754 527.848C982.254 527.658 982.774 527.428 983.264 527.238C983.354 527.218 983.404 527.178 983.474 527.138C1015.97 514.138 1035.9 490.038 1039 463.888C1039.37 460.848 1039.5 457.768 1039.39 454.668C1043.87 487.498 1021.08 529.378 979.564 544.348C926.134 563.638 861.294 546.328 834.754 505.718Z" stroke="#003B2F" stroke-width="3" stroke-miterlimit="10" stroke-linecap="round" stroke-linejoin="round"/><path d="M834.614 490.119C834.404 489.799 834.214 489.499 834.034 489.179C828.454 480.409 825.114 471.279 823.894 462.179C823.344 458.079 823.174 453.969 823.434 449.899C823.444 449.699 823.474 449.469 823.504 449.239C825.624 421.049 847.234 394.719 883.304 381.719C936.754 362.469 1001.58 379.759 1028.14 420.359C1035.41 431.479 1039.05 443.169 1039.39 454.689C1039.5 457.789 1039.37 460.869 1039 463.909C1035.9 490.049 1015.97 514.159 983.474 527.159C983.394 527.199 983.344 527.239 983.264 527.259C982.764 527.449 982.244 527.679 981.754 527.869C980.984 528.179 980.214 528.489 979.424 528.769C925.984 548.029 861.144 530.719 834.614 490.119Z" stroke="#003B2F" stroke-width="3" stroke-miterlimit="10" stroke-linecap="round" stroke-linejoin="round"/><path d="M980.224 441.517C985.684 429.447 978.144 422.707 966.484 418.047L975.554 401.737L966.044 398.997L957.214 414.877C954.714 414.157 952.124 413.477 949.564 412.797L958.454 396.807L948.944 394.077L939.874 410.387C937.784 409.837 935.744 409.297 933.774 408.727L933.804 408.677L920.684 404.897L914.784 415.507C914.784 415.507 921.894 417.387 921.694 417.487C925.554 418.597 925.504 421.297 924.754 423.417L914.404 441.997C914.674 442.077 915.014 442.187 915.374 442.357C915.054 442.267 914.714 442.167 914.364 442.067L899.884 468.107C899.014 469.327 897.174 471.137 894.484 470.367C894.544 470.517 887.564 468.377 887.564 468.377L879.074 479.697L891.454 483.257C893.754 483.927 896.004 484.617 898.224 485.267L889.054 501.767L898.554 504.497L907.634 488.167C910.214 488.977 912.724 489.717 915.194 490.437L906.154 506.687L915.674 509.417L924.834 492.947C941.364 496.587 954.904 495.597 965.004 480.327C973.144 468.027 970.584 460.757 962.774 455.867C969.924 454.527 976.244 450.357 980.224 441.517ZM947.294 472.967C940.444 485.297 920.994 478.087 914.534 476.237L926.694 454.377C933.144 456.227 954.444 460.107 947.294 472.967ZM960.014 440.847C953.774 452.067 937.624 445.907 932.254 444.357L943.284 424.527C948.654 426.077 966.524 429.147 960.014 440.847Z" fill="#003B2F"/><path d="M869.724 659.7C856.334 660.55 835.544 652.28 825.884 645.34C828.644 647.16 831.614 648.68 834.714 649.93C841.604 652.71 849.374 654.01 857.784 653.59C858.084 653.6 858.374 653.58 858.684 653.56C897.884 651.12 936.014 612.39 943.824 567.05C943.934 566.39 944.024 565.72 944.124 565.05C944.184 564.62 944.234 564.17 944.304 563.74C944.324 563.67 944.314 563.62 944.324 563.55C948.164 535.47 939.174 511.79 922.004 499.15C920.014 497.67 917.894 496.35 915.674 495.19C940.584 505.17 960.954 537.96 954.884 573.19C947.054 618.52 908.924 657.26 869.724 659.7Z" fill="#03FC9D"/><path d="M858.674 653.56C858.364 653.58 858.074 653.6 857.774 653.59C849.364 654.01 841.604 652.71 834.704 649.93C831.594 648.68 828.634 647.16 825.874 645.34C825.734 645.25 825.584 645.14 825.444 645.03C806.444 632.26 796.554 606.51 801.824 575.92C809.644 530.59 847.754 491.85 886.964 489.39C897.704 488.72 907.384 490.83 915.644 495.2C917.864 496.36 919.984 497.68 921.974 499.16C939.144 511.8 948.144 535.48 944.294 563.56C944.294 563.63 944.304 563.68 944.274 563.75C944.214 564.18 944.164 564.63 944.094 565.06C944.004 565.73 943.914 566.39 943.794 567.06C936.004 612.38 897.884 651.12 858.674 653.56Z" fill="#E6E8EA"/><path d="M869.204 660.111C855.814 660.961 835.024 652.691 825.364 645.751C828.124 647.571 831.094 649.091 834.194 650.341C841.084 653.121 848.854 654.421 857.264 654.001C857.564 654.011 857.854 653.991 858.164 653.971C897.364 651.531 935.494 612.801 943.304 567.461C943.414 566.801 943.504 566.131 943.604 565.461C943.664 565.031 943.714 564.581 943.784 564.151C943.804 564.081 943.794 564.031 943.804 563.961C947.644 535.881 938.654 512.201 921.484 499.561C919.494 498.081 917.374 496.761 915.154 495.601C940.064 505.581 960.434 538.371 954.364 573.601C946.534 618.941 908.404 657.671 869.204 660.111Z" stroke="#003B2F" stroke-width="3" stroke-miterlimit="10" stroke-linecap="round" stroke-linejoin="round"/><path d="M858.164 653.97C857.854 653.99 857.564 654.01 857.264 654C848.854 654.42 841.094 653.12 834.194 650.34C831.084 649.09 828.124 647.57 825.364 645.75C825.224 645.66 825.074 645.55 824.934 645.44C805.934 632.67 796.044 606.92 801.314 576.33C809.134 531 847.244 492.26 886.454 489.8C897.194 489.13 906.874 491.24 915.134 495.61C917.354 496.77 919.474 498.09 921.464 499.57C938.634 512.21 947.634 535.89 943.784 563.97C943.784 564.04 943.794 564.09 943.764 564.16C943.704 564.59 943.654 565.04 943.584 565.47C943.494 566.14 943.404 566.8 943.284 567.47C935.494 612.8 897.364 651.53 858.164 653.97Z" stroke="#003B2F" stroke-width="3" stroke-miterlimit="10" stroke-linecap="round" stroke-linejoin="round"/><path d="M881.624 521.899L872.234 527.069L846.644 541.229L837.254 546.399L826.744 596.379L833.914 601.759L853.644 616.489L860.814 621.869L870.194 616.699L895.584 602.539L904.974 597.369L915.484 547.399L908.314 542.019L888.794 527.299L881.624 521.899ZM844.714 586.239L853.594 556.649L879.984 542.289L897.494 557.519L888.614 587.109L862.224 601.469L844.714 586.239Z" fill="#003B2F"/><path d="M975.214 736.48C971.374 720.78 976.774 694.38 982.974 681.45C981.404 685.11 980.224 688.95 979.394 692.9C977.554 701.67 977.654 711.15 979.934 721.03C979.994 721.39 980.074 721.73 980.164 722.09C991.354 768.07 1045.36 805.09 1100.77 804.75C1101.58 804.74 1102.39 804.71 1103.2 804.68C1103.72 804.66 1104.27 804.63 1104.79 804.61C1104.88 804.62 1104.93 804.6 1105.02 804.59C1139.14 803.21 1165.32 787.52 1176.67 764.49C1178 761.82 1179.12 759.02 1180.02 756.14C1173.46 787.8 1138.87 818.9 1095.82 819.15C1040.41 819.47 986.404 782.45 975.214 736.48Z" fill="#03FC9D"/><path d="M980.164 722.079C980.074 721.719 979.994 721.379 979.934 721.019C977.654 711.139 977.554 701.649 979.394 692.889C980.214 688.939 981.404 685.099 982.974 681.439C983.044 681.259 983.144 681.059 983.244 680.859C994.364 655.619 1022.81 638.439 1060.21 638.219C1115.63 637.909 1169.63 674.899 1180.85 720.879C1183.92 733.469 1183.46 745.409 1180.03 756.119C1179.12 758.999 1178.01 761.789 1176.68 764.469C1165.33 787.509 1139.15 803.189 1105.03 804.569C1104.94 804.579 1104.89 804.599 1104.8 804.589C1104.28 804.609 1103.73 804.64 1103.21 804.66C1102.4 804.689 1101.59 804.719 1100.78 804.729C1045.35 805.079 991.354 768.059 980.164 722.079Z" fill="#E6E8EA"/><path d="M974.614 735.948C970.774 720.248 976.174 693.848 982.374 680.918C980.804 684.578 979.624 688.418 978.794 692.368C976.954 701.138 977.054 710.618 979.334 720.498C979.394 720.858 979.474 721.198 979.564 721.558C990.754 767.538 1044.76 804.558 1100.17 804.218C1100.98 804.208 1101.79 804.178 1102.6 804.148C1103.12 804.128 1103.67 804.098 1104.19 804.078C1104.28 804.088 1104.33 804.068 1104.42 804.058C1138.54 802.678 1164.72 786.988 1176.07 763.958C1177.4 761.288 1178.52 758.488 1179.42 755.608C1172.86 787.268 1138.27 818.368 1095.22 818.618C1039.81 818.948 985.804 781.928 974.614 735.948Z" stroke="#003B2F" stroke-width="3" stroke-miterlimit="10" stroke-linecap="round" stroke-linejoin="round"/><path d="M979.564 721.547C979.474 721.187 979.394 720.848 979.334 720.488C977.054 710.608 976.954 701.117 978.794 692.357C979.614 688.407 980.804 684.568 982.374 680.908C982.444 680.728 982.544 680.527 982.644 680.327C993.764 655.087 1022.21 637.907 1059.61 637.687C1115.03 637.377 1169.03 674.368 1180.25 720.348C1183.32 732.938 1182.86 744.877 1179.43 755.587C1178.52 758.467 1177.41 761.257 1176.08 763.937C1164.73 786.977 1138.55 802.657 1104.43 804.037C1104.34 804.047 1104.29 804.067 1104.2 804.057C1103.68 804.077 1103.13 804.107 1102.61 804.127C1101.8 804.157 1100.99 804.187 1100.18 804.197C1044.75 804.547 990.754 767.527 979.564 721.547Z" stroke="#003B2F" stroke-width="3" stroke-miterlimit="10" stroke-linecap="round" stroke-linejoin="round"/><path fill-rule="evenodd" clip-rule="evenodd" d="M1112.4 759.416L1137.82 769.226L1148.75 718.326L1123.28 708.526L1119.01 728.526L1101.81 721.876C1103.76 705.896 1099.37 691.426 1090.94 688.166C1082.5 684.916 1073.01 694.036 1068.36 709.016L1008.76 685.996L1006.42 696.896L1066.01 719.856C1064.06 735.836 1068.46 750.376 1076.88 753.566C1085.26 756.826 1094.82 747.756 1099.53 732.836L1116.67 739.436L1112.4 759.416ZM1077.3 751.756C1073.11 750.126 1071.84 738.526 1074.39 723.106C1074.65 721.326 1075.01 719.466 1075.42 717.606C1075.83 715.746 1076.25 713.946 1076.73 712.206C1080.6 697.316 1086.34 688.386 1090.52 689.956C1094.71 691.586 1099.4 704.526 1097.57 720.236L1080.86 713.776L1078.52 724.676L1095.23 731.136C1090.63 745.746 1081.49 753.386 1077.3 751.756Z" fill="#003B2F"/><path d="M694.664 658.698C698.564 640.688 717.274 616.308 730.064 606.138C726.624 609.108 723.504 612.448 720.684 616.088C714.424 624.158 709.794 633.938 707.204 645.208C707.084 645.608 707.004 645.988 706.914 646.408C695.454 699.138 732.364 764.028 789.354 791.328C790.194 791.728 791.034 792.098 791.884 792.468C792.424 792.708 793.004 792.948 793.554 793.198C793.644 793.248 793.704 793.258 793.804 793.288C829.474 808.888 864.144 805.868 887.274 787.908C889.974 785.828 892.514 783.528 894.874 781.018C872.354 810.208 821.384 824.838 777.104 803.628C720.114 776.328 683.204 711.428 694.664 658.698Z" fill="#03FC9D"/><path d="M706.914 646.406C707.004 645.996 707.084 645.606 707.204 645.206C709.794 633.936 714.424 624.156 720.684 616.086C723.494 612.446 726.624 609.096 730.064 606.136C730.224 605.986 730.434 605.836 730.634 605.676C754.634 585.346 792.364 581.916 830.824 600.346C887.804 627.666 924.724 692.536 913.294 745.286C910.164 759.726 903.734 771.736 894.874 781.006C892.504 783.506 889.964 785.816 887.274 787.896C864.144 805.856 829.474 808.876 793.804 793.276C793.704 793.246 793.644 793.236 793.554 793.186C793.014 792.946 792.434 792.706 791.884 792.456C791.034 792.086 790.194 791.716 789.354 791.316C732.364 764.026 695.454 699.126 706.914 646.406Z" fill="#E6E8EA"/><path d="M694.314 657.858C698.214 639.848 716.924 615.468 729.714 605.298C726.274 608.268 723.154 611.608 720.334 615.248C714.074 623.318 709.444 633.098 706.854 644.368C706.734 644.768 706.654 645.148 706.564 645.568C695.104 698.298 732.014 763.188 789.004 790.488C789.844 790.888 790.684 791.258 791.534 791.628C792.074 791.868 792.654 792.108 793.204 792.358C793.294 792.408 793.354 792.418 793.454 792.448C829.124 808.048 863.794 805.028 886.924 787.068C889.624 784.988 892.164 782.688 894.524 780.178C872.004 809.368 821.034 823.998 776.754 802.788C719.764 775.488 682.854 710.588 694.314 657.858Z" stroke="#003B2F" stroke-width="3" stroke-miterlimit="10" stroke-linecap="round" stroke-linejoin="round"/><path d="M706.564 645.566C706.654 645.156 706.734 644.766 706.854 644.366C709.444 633.096 714.074 623.316 720.334 615.246C723.144 611.606 726.274 608.256 729.714 605.296C729.874 605.146 730.084 604.996 730.284 604.836C754.284 584.506 792.014 581.076 830.474 599.506C887.454 626.826 924.374 691.696 912.944 744.446C909.814 758.886 903.384 770.896 894.524 780.166C892.154 782.666 889.614 784.976 886.924 787.056C863.794 805.016 829.124 808.036 793.454 792.436C793.354 792.406 793.294 792.396 793.204 792.346C792.664 792.106 792.084 791.866 791.534 791.616C790.684 791.246 789.844 790.876 789.004 790.476C732.014 763.186 695.104 698.286 706.564 645.566Z" stroke="#003B2F" stroke-width="3" stroke-miterlimit="10" stroke-linecap="round" stroke-linejoin="round"/><path d="M774.304 634.617C772.554 633.007 772.904 631.477 774.284 629.997C798.324 618.147 830.104 623.547 853.394 645.027C876.684 666.507 884.494 697.617 874.424 722.357C873.624 724.377 871.534 724.297 869.794 722.687L865.724 718.927C864.484 717.817 863.884 716.197 864.194 714.757C871.154 694.507 864.654 670.117 846.024 652.937C827.394 635.747 801.414 631.097 782.674 639.577C781.174 640.027 779.544 639.447 778.384 638.377L774.304 634.617Z" fill="#003B2F"/><path d="M775.034 662.877C773.864 661.797 773.624 659.737 774.544 658.747L778.224 654.797C779.144 653.807 781.234 653.897 782.404 654.967L789.394 661.407C797.924 654.567 806.854 655.447 815.814 660.947C816.974 662.017 817.674 663.587 816.754 664.577L812.604 669.027C811.684 670.017 810.644 669.977 809.014 669.397C804.024 666.627 798.684 665.387 792.694 671.807C788.084 676.747 787.764 682.897 792.424 687.197C797.084 691.497 800.674 691.127 808.284 685.277C819.714 676.507 827.814 674.777 837.714 683.907C845.284 690.887 846.494 701.207 841.204 709.197L848.194 715.637C849.364 716.717 849.604 718.777 848.684 719.767L845.004 723.717C844.084 724.707 841.994 724.617 840.824 723.547L833.834 717.107C827.144 721.967 819.374 722.157 812.054 717.247C810.884 716.167 810.184 714.607 811.104 713.617L814.794 709.657C815.714 708.667 816.764 708.717 818.384 709.287C823.384 712.057 827.434 711.197 831.584 706.747C836.194 701.797 835.584 696.647 831.514 692.887C827.434 689.127 823.724 688.457 815.644 694.807C804.214 703.577 796.114 705.297 786.224 696.177C778.654 689.197 776.854 678.347 782.024 669.317L775.034 662.877Z" fill="#003B2F"/><path d="M749.394 656.699C750.194 654.679 752.284 654.759 754.024 656.369L758.104 660.129C759.264 661.199 759.964 662.769 759.634 664.299C752.674 684.549 759.174 708.939 777.804 726.119C796.434 743.299 822.414 747.959 841.144 739.479C842.564 739.069 844.234 739.529 845.444 740.679L849.514 744.439C851.264 746.049 850.914 747.579 849.534 749.059C825.954 760.419 793.714 755.509 770.424 734.029C747.134 712.549 739.324 681.439 749.394 656.699Z" fill="#003B2F"/><path d="M1090.89 685.954C1079.87 671.264 1073.72 641.244 1074.42 624.964C1074.41 629.494 1074.89 634.034 1075.79 638.524C1077.78 648.514 1082.12 658.384 1088.92 667.694C1089.14 668.044 1089.38 668.354 1089.63 668.694C1121.86 711.754 1194.84 726.334 1252.61 701.224C1253.46 700.854 1254.29 700.454 1255.12 700.064C1255.66 699.814 1256.22 699.534 1256.75 699.284C1256.85 699.254 1256.9 699.214 1256.98 699.154C1292.02 682.474 1312.38 654.394 1313.96 625.244C1314.16 621.854 1314.08 618.434 1313.74 615.014C1321.02 651.034 1298.76 698.984 1253.87 718.474C1196.1 743.584 1123.12 729.014 1090.89 685.954Z" fill="#03FC9D"/><path d="M1089.63 668.695C1089.38 668.355 1089.14 668.045 1088.92 667.695C1082.12 658.385 1077.78 648.515 1075.79 638.525C1074.89 634.035 1074.41 629.485 1074.42 624.965C1074.42 624.745 1074.43 624.485 1074.45 624.235C1074.8 592.885 1096.86 562.225 1135.86 545.295C1193.65 520.215 1266.61 534.765 1298.87 577.815C1307.7 589.605 1312.55 602.285 1313.75 615.015C1314.09 618.435 1314.17 621.855 1313.97 625.245C1312.39 654.395 1292.03 682.475 1256.99 699.155C1256.91 699.205 1256.86 699.255 1256.76 699.285C1256.22 699.535 1255.66 699.815 1255.13 700.065C1254.3 700.465 1253.46 700.855 1252.62 701.225C1194.83 726.335 1121.85 711.755 1089.63 668.695Z" fill="#E6E8EA"/><path d="M1090.02 685.676C1079 670.986 1072.85 640.966 1073.55 624.686C1073.54 629.216 1074.02 633.756 1074.92 638.246C1076.91 648.236 1081.25 658.106 1088.05 667.416C1088.27 667.766 1088.51 668.076 1088.76 668.416C1120.99 711.476 1193.97 726.056 1251.74 700.946C1252.59 700.576 1253.42 700.176 1254.25 699.786C1254.79 699.536 1255.35 699.256 1255.88 699.006C1255.98 698.976 1256.03 698.936 1256.11 698.876C1291.15 682.196 1311.51 654.116 1313.09 624.966C1313.29 621.576 1313.21 618.156 1312.87 614.736C1320.15 650.756 1297.89 698.706 1253 718.196C1195.23 743.306 1122.25 728.736 1090.02 685.676Z" stroke="#003B2F" stroke-width="3" stroke-miterlimit="10" stroke-linecap="round" stroke-linejoin="round"/><path d="M1088.76 668.417C1088.51 668.077 1088.27 667.767 1088.05 667.417C1081.25 658.107 1076.91 648.237 1074.92 638.247C1074.02 633.757 1073.54 629.207 1073.55 624.687C1073.55 624.467 1073.56 624.207 1073.58 623.957C1073.93 592.607 1095.99 561.947 1134.99 545.017C1192.78 519.937 1265.74 534.487 1298 577.537C1306.83 589.327 1311.68 602.007 1312.88 614.737C1313.22 618.157 1313.3 621.577 1313.1 624.967C1311.52 654.117 1291.16 682.197 1256.12 698.877C1256.04 698.927 1255.99 698.977 1255.89 699.007C1255.35 699.257 1254.79 699.537 1254.26 699.787C1253.43 700.187 1252.59 700.577 1251.75 700.947C1193.97 726.057 1120.99 711.477 1088.76 668.417Z" stroke="#003B2F" stroke-width="3" stroke-miterlimit="10" stroke-linecap="round" stroke-linejoin="round"/><path d="M1090.89 685.954C1079.87 671.264 1073.72 641.244 1074.42 624.964C1074.41 629.494 1074.89 634.034 1075.79 638.524C1077.78 648.514 1082.12 658.384 1088.92 667.694C1089.14 668.044 1089.38 668.354 1089.63 668.694C1121.86 711.754 1194.84 726.334 1252.61 701.224C1253.46 700.854 1254.29 700.454 1255.12 700.064C1255.66 699.814 1256.22 699.534 1256.75 699.284C1256.85 699.254 1256.9 699.214 1256.98 699.154C1292.02 682.474 1312.38 654.394 1313.96 625.244C1314.16 621.854 1314.08 618.434 1313.74 615.014C1321.02 651.034 1298.76 698.984 1253.87 718.474C1196.1 743.584 1123.12 729.014 1090.89 685.954Z" fill="#03FC9D"/><path d="M1089.63 668.695C1089.38 668.355 1089.14 668.045 1088.92 667.695C1082.12 658.385 1077.78 648.515 1075.79 638.525C1074.89 634.035 1074.41 629.485 1074.42 624.965C1074.42 624.745 1074.43 624.485 1074.45 624.235C1074.8 592.885 1096.86 562.225 1135.86 545.295C1193.65 520.215 1266.61 534.765 1298.87 577.815C1307.7 589.605 1312.55 602.285 1313.75 615.015C1314.09 618.435 1314.17 621.855 1313.97 625.245C1312.39 654.395 1292.03 682.475 1256.99 699.155C1256.91 699.205 1256.86 699.255 1256.76 699.285C1256.22 699.535 1255.66 699.815 1255.13 700.065C1254.3 700.465 1253.46 700.855 1252.62 701.225C1194.83 726.335 1121.85 711.755 1089.63 668.695Z" fill="#E6E8EA"/><path d="M1090.02 685.676C1079 670.986 1072.85 640.966 1073.55 624.686C1073.54 629.216 1074.02 633.756 1074.92 638.246C1076.91 648.236 1081.25 658.106 1088.05 667.416C1088.27 667.766 1088.51 668.076 1088.76 668.416C1120.99 711.476 1193.97 726.056 1251.74 700.946C1252.59 700.576 1253.42 700.176 1254.25 699.786C1254.79 699.536 1255.35 699.256 1255.88 699.006C1255.98 698.976 1256.03 698.936 1256.11 698.876C1291.15 682.196 1311.51 654.116 1313.09 624.966C1313.29 621.576 1313.21 618.156 1312.87 614.736C1320.15 650.756 1297.89 698.706 1253 718.196C1195.23 743.306 1122.25 728.736 1090.02 685.676Z" stroke="#003B2F" stroke-width="3" stroke-miterlimit="10" stroke-linecap="round" stroke-linejoin="round"/><path d="M1088.76 668.417C1088.51 668.077 1088.27 667.767 1088.05 667.417C1081.25 658.107 1076.91 648.237 1074.92 638.247C1074.02 633.757 1073.54 629.207 1073.55 624.687C1073.55 624.467 1073.56 624.207 1073.58 623.957C1073.93 592.607 1095.99 561.947 1134.99 545.017C1192.78 519.937 1265.74 534.487 1298 577.537C1306.83 589.327 1311.68 602.007 1312.88 614.737C1313.22 618.157 1313.3 621.577 1313.1 624.967C1311.52 654.117 1291.16 682.197 1256.12 698.877C1256.04 698.927 1255.99 698.977 1255.89 699.007C1255.35 699.257 1254.79 699.537 1254.26 699.787C1253.43 700.187 1252.59 700.577 1251.75 700.947C1193.97 726.057 1120.99 711.477 1088.76 668.417Z" stroke="#003B2F" stroke-width="3" stroke-miterlimit="10" stroke-linecap="round" stroke-linejoin="round"/><path d="M1201.08 581.036C1201.07 581.056 1201.07 581.076 1201.07 581.096C1201.28 581.386 1201.42 581.706 1201.51 582.046L1203.7 587.546L1205.63 592.376L1207.85 597.936L1209.73 602.646L1211.96 608.236L1213.85 612.976L1216.05 618.506L1217.68 622.576C1217.74 622.716 1217.88 622.856 1217.75 623.036C1217.71 623.056 1217.67 623.066 1217.62 623.076C1217.45 623.086 1217.28 623.076 1217.11 623.056C1201.47 622.596 1185.82 622.136 1170.16 621.676C1169.93 621.706 1169.69 621.666 1169.49 621.566C1170.43 620.346 1171.37 619.116 1172.31 617.896L1196.69 586.546L1200.99 580.996L1201.08 581.036Z" fill="#003B2F"/><path d="M1169.49 621.572L1217.44 622.992C1217.55 622.992 1217.66 623.002 1217.77 623.002C1217.93 622.972 1218.09 622.962 1218.25 622.982C1236.36 623.512 1254.47 624.052 1272.59 624.582C1272.8 624.592 1273.05 624.492 1273.19 624.742C1271.46 625.582 1269.73 626.432 1267.99 627.272L1193.07 663.492C1192.9 663.572 1192.74 663.642 1192.57 663.712C1192.49 663.522 1192.63 663.372 1192.72 663.222L1194.64 660.122L1198.44 654.012L1202.21 647.932C1203.49 645.882 1204.76 643.822 1206.03 641.762L1209.74 635.772L1213.57 629.572L1217.29 623.582L1217.4 623.402C1217.51 623.232 1217.48 623.132 1217.24 623.122C1217.1 623.122 1216.97 623.112 1216.83 623.112C1201.3 622.652 1185.76 622.202 1170.23 621.742C1169.98 621.782 1169.74 621.742 1169.53 621.632C1169.49 621.642 1169.46 621.632 1169.49 621.572Z" fill="#003B2F"/><path d="M1169.54 621.646C1173.39 621.756 1177.23 621.876 1181.07 621.986C1193.12 622.336 1205.17 622.696 1217.23 623.046C1217.75 623.066 1217.75 623.066 1217.48 623.496L1213.14 630.536C1212.18 632.086 1211.21 633.636 1210.25 635.186L1206.09 641.936L1203.69 645.786L1200.27 651.326L1197.87 655.176L1194.52 660.596L1192.68 663.566C1192.65 663.616 1192.63 663.666 1192.61 663.716C1192.41 663.706 1192.42 663.546 1192.37 663.446L1180.81 642.306L1169.81 622.166C1169.68 622.016 1169.6 621.826 1169.58 621.636L1169.54 621.646Z" fill="#003B2F"/><path d="M1155.43 621.214L1160.25 630.034L1173.88 655.014L1178.19 662.924C1178.24 663.014 1178.34 663.094 1178.29 663.224C1178.15 663.224 1178.09 663.114 1178 663.054C1157.99 648.814 1137.99 634.574 1117.99 620.324C1117.88 620.244 1117.67 620.224 1117.71 620.024C1117.91 619.954 1118.12 619.934 1118.33 619.944C1130.49 620.304 1142.65 620.664 1154.81 621.014C1155.03 621.034 1155.29 620.994 1155.43 621.214Z" fill="#003B2F"/><path d="M1155.43 621.215C1155.27 621.145 1155.08 621.125 1154.89 621.145C1142.67 620.785 1130.44 620.425 1118.22 620.065C1118.05 620.055 1117.88 620.055 1117.71 620.045C1118.57 619.485 1119.48 619.015 1120.37 618.505C1128.26 614.015 1136.15 609.515 1144.05 605.015L1167.67 591.585L1186.5 580.875L1186.92 580.645C1186.75 580.885 1186.63 581.045 1186.51 581.205L1167.94 605.085L1155.59 620.965C1155.53 621.035 1155.47 621.125 1155.43 621.215Z" fill="#003B2F"/><path d="M1273.19 624.756C1273.06 624.646 1272.89 624.696 1272.74 624.686C1254.58 624.156 1236.42 623.616 1218.26 623.086C1218.09 623.086 1217.91 623.126 1217.77 623.016C1217.88 622.936 1218.02 622.906 1218.16 622.926C1218.31 622.926 1218.45 622.936 1218.61 622.936C1236.56 623.466 1254.51 623.996 1272.46 624.526C1272.77 624.506 1273.07 624.556 1273.35 624.666L1273.34 624.726L1273.18 624.776L1273.19 624.756Z" fill="#003B2F"/><path d="M1273.35 624.643C1254.88 624.103 1236.4 623.553 1217.93 623.013C1217.88 623.013 1217.83 623.013 1217.78 623.013C1216.99 621.043 1216.19 619.073 1215.4 617.103C1214.56 615.023 1213.74 612.933 1212.91 610.843L1208.59 600.033L1205.57 592.473L1201.1 581.273C1201.08 581.223 1201.07 581.163 1201.07 581.113C1202.16 581.763 1203.26 582.393 1204.35 583.063L1232.01 599.733L1267.33 621.043L1273.15 624.553C1273.21 624.593 1273.28 624.643 1273.33 624.693L1273.35 624.643Z" fill="#003B2F"/><path d="M899.384 662.095C890.314 648.235 886.504 620.875 888.064 606.265C887.794 610.335 887.964 614.455 888.524 618.545C889.744 627.645 893.084 636.775 898.664 645.545C898.844 645.875 899.034 646.165 899.244 646.485C925.774 687.095 990.624 704.405 1044.05 685.125C1044.83 684.835 1045.6 684.535 1046.38 684.225C1046.88 684.035 1047.4 683.805 1047.89 683.615C1047.98 683.595 1048.03 683.555 1048.1 683.515C1080.6 670.515 1100.53 646.415 1103.63 620.265C1104 617.225 1104.13 614.145 1104.02 611.045C1108.5 643.875 1085.71 685.755 1044.19 700.725C990.754 720.005 925.914 702.695 899.384 662.095Z" fill="#03FC9D"/><path d="M899.234 646.487C899.024 646.167 898.834 645.867 898.654 645.547C893.074 636.777 889.734 627.647 888.514 618.547C887.964 614.447 887.794 610.337 888.054 606.267C888.064 606.067 888.094 605.837 888.124 605.607C890.244 577.417 911.854 551.087 947.924 538.087C1001.37 518.837 1066.2 536.127 1092.76 576.727C1100.03 587.847 1103.67 599.537 1104.01 611.057C1104.12 614.157 1103.99 617.237 1103.62 620.277C1100.52 646.417 1080.59 670.527 1048.09 683.527C1048.01 683.567 1047.96 683.607 1047.88 683.627C1047.38 683.817 1046.86 684.047 1046.37 684.237C1045.6 684.547 1044.83 684.857 1044.04 685.137C990.614 704.407 925.774 687.097 899.234 646.487Z" fill="#E6E8EA"/><path d="M898.624 661.787C889.554 647.927 885.744 620.567 887.304 605.957C887.034 610.027 887.204 614.147 887.764 618.237C888.984 627.337 892.324 636.467 897.904 645.237C898.084 645.567 898.274 645.857 898.484 646.177C925.014 686.787 989.864 704.097 1043.29 684.817C1044.07 684.527 1044.84 684.227 1045.62 683.917C1046.12 683.727 1046.64 683.497 1047.13 683.307C1047.22 683.287 1047.27 683.247 1047.34 683.207C1079.84 670.207 1099.77 646.107 1102.87 619.957C1103.24 616.917 1103.37 613.837 1103.26 610.737C1107.74 643.567 1084.95 685.447 1043.43 700.417C989.994 719.707 925.154 702.397 898.624 661.787Z" stroke="#003B2F" stroke-width="3" stroke-miterlimit="10" stroke-linecap="round" stroke-linejoin="round"/><path d="M898.474 646.189C898.264 645.869 898.074 645.569 897.894 645.249C892.314 636.479 888.974 627.349 887.754 618.249C887.204 614.149 887.034 610.039 887.294 605.969C887.304 605.769 887.334 605.539 887.364 605.309C889.484 577.119 911.094 550.789 947.164 537.789C1000.61 518.539 1065.44 535.829 1092 576.429C1099.27 587.549 1102.91 599.239 1103.25 610.759C1103.36 613.859 1103.23 616.939 1102.86 619.979C1099.76 646.119 1079.83 670.229 1047.33 683.229C1047.25 683.269 1047.2 683.309 1047.12 683.329C1046.62 683.519 1046.1 683.749 1045.61 683.939C1044.84 684.249 1044.07 684.559 1043.28 684.839C989.854 704.099 925.014 686.789 898.474 646.189Z" stroke="#003B2F" stroke-width="3" stroke-miterlimit="10" stroke-linecap="round" stroke-linejoin="round"/><path d="M1044.08 597.591C1049.54 585.521 1042 578.781 1030.34 574.121L1039.41 557.811L1029.89 555.081L1021.06 570.961C1018.56 570.241 1015.97 569.561 1013.41 568.881L1022.3 552.891L1012.79 550.161L1003.72 566.471C1001.63 565.921 999.594 565.381 997.624 564.811L997.654 564.761L984.534 560.981L978.634 571.591C978.634 571.591 985.744 573.471 985.544 573.571C989.404 574.681 989.354 577.381 988.604 579.501L978.264 598.091C978.534 598.171 978.874 598.281 979.234 598.451C978.914 598.361 978.574 598.261 978.224 598.161L963.744 624.201C962.874 625.421 961.034 627.231 958.344 626.461C958.404 626.611 951.424 624.471 951.424 624.471L942.934 635.791L955.314 639.351C957.614 640.021 959.864 640.711 962.084 641.361L952.914 657.861L962.414 660.591L971.494 644.261C974.074 645.071 976.584 645.811 979.054 646.531L970.014 662.781L979.534 665.511L988.694 649.041C1005.22 652.681 1018.76 651.691 1028.86 636.421C1037 624.121 1034.44 616.851 1026.63 611.961C1033.78 610.601 1040.1 606.431 1044.08 597.591ZM1011.15 629.041C1004.3 641.371 984.854 634.161 978.394 632.311L990.554 610.451C997.004 612.301 1018.3 616.181 1011.15 629.041ZM1023.88 596.921C1017.64 608.141 1001.49 601.981 996.124 600.431L1007.15 580.601C1012.52 582.151 1030.38 585.221 1023.88 596.921Z" fill="#003B2F"/><path d="M933.584 815.77C920.194 816.62 899.404 808.35 889.744 801.41C892.504 803.23 895.474 804.75 898.574 806C905.474 808.78 913.234 810.08 921.644 809.66C921.944 809.67 922.234 809.65 922.544 809.63C961.744 807.19 999.874 768.46 1007.68 723.12C1007.79 722.46 1007.88 721.79 1007.98 721.12C1008.04 720.69 1008.09 720.24 1008.16 719.81C1008.18 719.74 1008.17 719.69 1008.18 719.62C1012.02 691.54 1003.03 667.86 985.864 655.22C983.874 653.74 981.754 652.42 979.534 651.26C1004.44 661.24 1024.81 694.03 1018.74 729.26C1010.91 774.59 972.794 813.33 933.584 815.77Z" fill="#03FC9D"/><path d="M922.544 809.629C922.234 809.649 921.944 809.669 921.644 809.659C913.234 810.079 905.474 808.779 898.574 805.999C895.464 804.749 892.504 803.229 889.744 801.409C889.604 801.319 889.454 801.209 889.314 801.099C870.314 788.329 860.424 762.579 865.694 731.989C873.514 686.659 911.624 647.919 950.834 645.459C961.574 644.789 971.254 646.899 979.514 651.269C981.734 652.429 983.854 653.749 985.844 655.229C1003.01 667.869 1012.01 691.549 1008.16 719.629C1008.16 719.699 1008.17 719.749 1008.14 719.819C1008.08 720.249 1008.03 720.699 1007.96 721.129C1007.87 721.799 1007.78 722.459 1007.66 723.129C999.874 768.449 961.744 807.189 922.544 809.629Z" fill="#E6E8EA"/><path d="M933.064 816.18C919.674 817.03 898.884 808.76 889.224 801.82C891.984 803.64 894.954 805.16 898.054 806.41C904.944 809.19 912.714 810.49 921.124 810.07C921.424 810.08 921.714 810.06 922.024 810.04C961.224 807.6 999.354 768.87 1007.16 723.53C1007.27 722.87 1007.36 722.2 1007.46 721.53C1007.52 721.1 1007.57 720.65 1007.64 720.22C1007.66 720.15 1007.65 720.1 1007.66 720.03C1011.5 691.95 1002.51 668.27 985.344 655.63C983.354 654.15 981.234 652.83 979.014 651.67C1003.92 661.65 1024.29 694.44 1018.22 729.67C1010.39 775.01 972.274 813.74 933.064 816.18Z" stroke="#003B2F" stroke-width="3" stroke-miterlimit="10" stroke-linecap="round" stroke-linejoin="round"/><path d="M922.024 810.039C921.714 810.059 921.424 810.079 921.124 810.069C912.714 810.489 904.954 809.189 898.054 806.409C894.944 805.159 891.984 803.639 889.224 801.819C889.084 801.729 888.934 801.619 888.794 801.509C869.794 788.739 859.904 762.989 865.174 732.399C872.994 687.069 911.104 648.329 950.314 645.869C961.054 645.199 970.734 647.309 978.994 651.679C981.214 652.839 983.334 654.159 985.324 655.639C1002.49 668.279 1011.49 691.959 1007.64 720.039C1007.64 720.109 1007.65 720.159 1007.62 720.229C1007.56 720.659 1007.51 721.109 1007.44 721.539C1007.35 722.209 1007.26 722.869 1007.14 723.539C999.354 768.869 961.224 807.599 922.024 810.039Z" stroke="#003B2F" stroke-width="3" stroke-miterlimit="10" stroke-linecap="round" stroke-linejoin="round"/><path d="M945.484 677.969L936.094 683.139L910.504 697.299L901.114 702.469L890.604 752.449L897.774 757.829L917.504 772.559L924.674 777.939L934.054 772.769L959.444 758.609L968.834 753.439L979.344 703.469L972.174 698.089L952.654 683.369L945.484 677.969ZM908.584 742.309L917.464 712.719L943.854 698.359L961.364 713.589L952.484 743.179L926.094 757.539L908.584 742.309Z" fill="#003B2F"/></g><defs><clipPath id="clip0_117_195"><rect width="1920" height="1080" fill="white"/></clipPath></defs></svg>