<svg width="192" height="108" viewBox="0 0 192 108" fill="none" xmlns="http://www.w3.org/2000/svg"><g clip-path="url(#clip0_13_1030)"><path d="M138.33 82.57C138.33 82.57 137.93 84.89 136.73 86C136.73 86 136.94 86.84 137.7 87.59C138.46 88.34 139.49 89.39 139.83 88.25C140.17 87.11 140.65 85.24 140.65 85.24C140.65 85.24 140.1 82.77 139.49 82.57C138.88 82.37 138.52 82.34 138.52 82.34L138.33 82.57Z" fill="#E6E8EA"/><path d="M119.01 88.49L116.05 88.64C116.05 88.64 114.77 89.1 114.45 89.56C114.13 90.02 112.73 91.03 113.09 91.78C113.09 91.78 113.63 92.27 115.37 92.11C117.11 91.95 117.82 92.26 117.82 92.26C117.82 92.26 119.74 92.76 119.77 91.3C119.77 91.3 118.98 90.13 119.11 89.77C119.24 89.41 119.71 88.96 119.71 88.96L119.02 88.48L119.01 88.49Z" fill="#E6E8EA"/><path d="M54.1799 77.82C54.1799 77.82 54.1799 79.78 54.0899 80C53.9999 80.22 54.3299 81.74 54.6799 81.62C55.0299 81.5 56.6299 80.93 57.0099 80.32C57.3899 79.71 58.3199 77.57 57.7699 76.69C57.7699 76.69 57.53 76.17 56.74 76.06L56.33 76.33C56.33 76.33 55.6799 77.22 54.9399 77.49C54.1999 77.76 54.1799 77.83 54.1799 77.83V77.82Z" fill="#E6E8EA"/><path fill-rule="evenodd" clip-rule="evenodd" d="M60.91 88.64C60.91 88.64 59.58 90.22 59.63 90.41C59.63 90.41 59.56 90.97 60.99 90.91C62.42 90.85 62.71 91.35 63.77 91.17C64.83 90.99 64.76 90.68 64.76 90.36C64.76 90.04 64.66 89.3 64.59 89.26C64.52 89.22 64.64 88.58 64.24 88.64C63.84 88.7 61.65 88.74 61.01 88.49L60.91 88.64Z" fill="#E6E8EA"/><path d="M70.0699 22.36C69.7399 22.2 69.7299 22.19 69.8999 22.22C70.2299 22.27 70.9499 22.56 71.4199 22.84C72.5199 23.49 73.3799 24.54 74.1499 26.18L74.3499 26.61L74.8099 26.68C76.7499 26.95 78.5599 27.77 79.9099 28.98C80.2799 29.31 80.8399 29.92 80.8999 30.05C80.9199 30.09 80.8999 30.31 80.8699 30.55C80.7499 31.36 80.5099 31.93 80.1399 32.3C79.9399 32.5 79.9099 32.57 79.9299 32.81C79.9599 33.01 80.0999 33.17 80.2999 33.23C80.6899 33.35 81.3099 32.85 81.7699 32.04L81.9599 31.71L82.0599 31.93C82.6099 33.14 82.8699 34.64 82.6999 35.59L82.6599 35.84L82.5899 35.58C82.4899 35.18 82.2999 34.81 82.0399 34.5C81.5899 33.95 81.0299 33.64 79.4699 33.07C78.0599 32.56 77.2899 32.18 76.5699 31.68C75.3399 30.82 74.8399 30.02 73.8599 27.41C73.4299 26.25 73.1499 25.59 72.8299 25.04C72.1199 23.78 71.2799 22.98 70.0799 22.39L70.0699 22.36Z" fill="#03FC9D"/><path d="M81.79 28.26C82.02 27.64 82.23 27.25 82.52 26.93C82.59 26.85 82.66 26.77 82.75 26.7C82.75 26.7 82.7 26.8 82.61 26.93C82.37 27.26 82.19 27.76 82.1 28.37C81.98 29.15 82.01 29.27 82.55 30.32C82.81 30.81 83.09 31.42 83.18 31.67L83.35 32.13L83.15 31.78C82.9 31.35 82.3 30.47 82.15 30.33C82.05 30.23 82.03 30.23 81.94 30.28C81.85 30.33 81.81 30.42 81.65 30.89C81.41 31.62 81.16 32.06 80.77 32.46C80.56 32.68 80.56 32.62 80.77 32.36C80.92 32.17 80.96 32.08 81.18 31.37C81.62 29.94 81.55 29.54 80.73 28.64C80.48 28.37 80.22 28.12 79.95 27.87C79.81 27.76 79.68 27.64 79.56 27.51C79.6 27.49 80.49 28.08 80.83 28.35C81.35 28.76 81.44 28.81 81.52 28.81C81.57 28.81 81.64 28.67 81.79 28.28V28.26ZM69.34 27.11C68.93 25.93 68.95 24.32 69.39 23.24L69.52 22.91L69.67 22.99C69.96 23.14 70.42 23.49 70.61 23.71C71.15 24.32 71.28 24.94 71.15 26.39C71.11 26.82 71.09 27.3 71.09 27.47C71.09 27.74 71.24 28.41 71.38 28.87C71.48 29.2 71.32 29.29 70.92 29.12C70.31 28.87 69.64 28.03 69.33 27.11H69.34ZM77.97 37.63C75.08 35.3 74.27 33.8 74.87 31.87C74.96 31.59 75.04 31.36 75.05 31.36C75.06 31.36 75.16 31.49 75.27 31.66C75.77 32.4 76.45 32.86 78.43 33.79C79.59 34.34 80.23 34.7 80.8 35.1C82.61 36.38 83.44 38.11 83.17 40.04C83.09 40.6 82.74 41.58 82.43 42.06C82.19 42.44 81.62 43.09 81.53 43.09C81.5 43.09 81.51 42.99 81.54 42.86C81.72 42.16 81.57 41.38 81.14 40.7C80.65 39.92 79.89 39.19 77.97 37.64V37.63ZM75.49 37.47C75.52 37.22 75.54 36.98 75.54 36.73V36.45L75.63 36.67C75.77 36.98 75.85 37.34 75.87 37.79C75.88 38.14 75.87 38.23 75.71 38.74C75.55 39.25 75.51 39.34 75.32 39.59C75.05 39.96 74.7 40.27 74.29 40.48C73.5 40.9 72.62 41 71.46 40.8C71.26 40.76 70.68 40.63 70.18 40.5C68.91 40.18 68.04 40.06 67.22 40.09C67.14 40.09 67.07 40.09 66.99 40.07C66.97 40.03 67.57 39.89 68.04 39.82C68.71 39.72 69.35 39.75 70.72 39.93C71.4 40.02 72.11 40.1 72.3 40.1C74.05 40.1 75.27 39.1 75.48 37.46L75.49 37.47Z" fill="#03FC9D"/><path d="M76.18 40.6C76.03 39.53 76.21 38.6 76.71 37.83C76.76 37.75 76.83 37.69 76.85 37.69C76.87 37.69 76.96 37.79 77.04 37.88C77.2 38.08 77.53 38.43 78.43 39.34C79.55 40.48 80.14 41.28 80.47 42.09C80.75 42.79 80.84 43.53 80.73 44.35C80.67 44.82 80.3 45.87 80.04 46.29C79.24 47.59 78.06 48.44 76.66 48.72C76.46 48.76 76.27 48.79 76.26 48.78C76.24 48.78 76.36 48.63 76.51 48.47C77.17 47.76 77.47 46.96 77.44 45.96C77.42 45.35 77.25 44.55 76.84 43.17C76.36 41.57 76.25 41.14 76.17 40.6H76.18ZM62.25 41.84C63.79 41.19 65.53 40.93 66.99 41.13C67.73 41.26 68.45 41.51 69.11 41.87C69.93 42.37 70.57 43.12 70.79 43.85C71.01 44.56 71.03 45.13 70.86 46.33C70.79 46.8 70.73 47.28 70.72 47.39C70.67 48.02 70.79 48.58 71.04 48.91C71.44 49.45 72.33 49.75 73.31 49.68C73.41 49.67 73.52 49.67 73.62 49.68C73.64 49.72 73.11 49.88 72.75 49.94C72.32 50.02 71.88 49.99 71.46 49.86C70.66 49.61 70.12 49 69.81 48C69.71 47.59 69.64 47.17 69.6 46.75C69.42 45.24 69.26 44.74 68.71 44.09C68.23 43.52 67.49 43.21 66.83 43.32C65.96 43.46 65.45 44.35 65.81 45.13C65.98 45.47 66.26 45.74 66.6 45.91C67.13 46.16 67.75 45.93 68 45.4C68.02 45.35 68.04 45.31 68.05 45.26C68.17 44.86 68.09 44.58 67.75 44.29C67.29 43.89 66.63 43.99 66.48 44.49C66.41 44.7 66.47 44.86 66.65 45.03C66.77 45.13 66.77 45.14 66.66 45.08C66.2 44.83 66.27 44.21 66.78 43.94C67.4 43.62 68.31 44.13 68.45 44.87C68.51 45.18 68.36 45.72 68.14 46C67.64 46.63 66.73 46.77 65.98 46.31C65.47 46 65.29 45.78 64.84 44.89C64.05 43.35 63.67 42.98 62.08 42.21L61.77 42.06L62.23 41.87L62.25 41.84Z" fill="#03FC9D"/><path fill-rule="evenodd" clip-rule="evenodd" d="M63.35 18.94C65.78 24.8 67.85 27.54 68.02 28.04C68.16 28.45 67.97 28.73 67.48 28.83C67.14 28.89 66.79 28.88 66.45 28.8C66.18 28.72 66.12 28.58 66.12 28.58C66.01 28.38 65.91 28.38 65.54 26.71C65.18 25.43 64.82 24.15 64.44 22.88C64.4134 22.8333 64.7067 24.22 65.32 27.04C65.42 27.89 65.07 28.09 65.04 28.19C64.97 28.41 64.88 28.5 64.51 28.72C63.91 29.08 63.53 29.58 63.03 30.7C62.47 31.95 61.73 32.73 59.97 33.91C58.94 34.6 58.77 34.73 58.47 35.05C58.09 35.44 57.94 35.69 57.74 36.27C57.52 36.89 57.45 37.31 57.46 37.96C57.46 38.54 57.54 38.93 57.77 39.76C57.97 40.48 58.06 40.99 58.01 41.16C57.97 41.3 57.99 41.3 58.64 41.36C60.17 41.48 61.51 41.27 62.38 40.78C62.92 40.47 63.09 40.27 63.27 39.68C63.39 39.3 63.4 39.21 63.37 38.96C63.31 38.55 63.09 38.15 62.55 37.48C61.84 36.59 61.61 35.99 61.71 35.28C61.79 34.7 62.01 34.34 62.83 33.46C63.67 32.55 63.94 32.13 64.36 31.08C64.63 30.4 64.79 30.15 65.06 29.99C65.34 29.83 65.55 29.81 66.1 29.9C66.98 30.04 67.59 29.99 68.16 29.72C68.61 29.53 68.96 29.16 69.1 28.69L69.24 28.31L69.1 28C68.6 26.86 63.07 18.07 63.03 18.06C63.03 18.06 63.18 18.46 63.38 18.94H63.35ZM59.57 37.62C59.84 37.36 59.87 36.94 59.64 36.65C59.42 36.38 58.96 36.34 58.89 36.57C58.87 36.64 58.89 36.71 58.97 36.78C59.1 36.91 59.08 37 58.91 37.14C58.73 37.28 58.69 37.45 58.8 37.6C58.97 37.85 59.32 37.85 59.59 37.6L59.57 37.62ZM68.97 31.01C68.54 31.01 68.02 31.31 67.76 31.71C67.61 31.96 67.5 32.44 67.57 32.62C67.68 32.91 67.83 33.02 68.29 33.16C69.2 33.43 70.1 33.29 70.34 32.83C70.54 32.46 70.36 31.8 69.96 31.42C69.68 31.19 69.33 31.05 68.97 31.01ZM69.78 32.16C69.98 32.01 69.98 31.77 69.78 31.56C69.41 31.15 68.66 31.16 68.53 31.59C68.46 31.8 68.75 32.14 69.08 32.24C69.3 32.31 69.64 32.27 69.78 32.16Z" fill="#03FC9D"/><path d="M120.63 54C120.63 54 117.54 50.17 115.33 49.59C115.33 49.59 117.9 47.54 122.92 48.65C122.92 48.65 126.06 49.65 126.31 51.21C126.31 51.21 128.92 52.07 131.76 55.28C131.88 55.41 131.96 55.59 132.09 55.71C132.93 56.52 135.78 60.22 144.65 61.57C144.65 61.57 146.48 61.42 147.16 61.08C147.16 61.08 146.39 62.44 142.59 62.62C142.59 62.62 139.9 62.89 139.03 62.62C139.03 62.62 142.29 63.94 146.74 62.84C146.74 62.84 148.81 62.26 149.52 61.84C149.52 61.84 148.67 63.47 146.41 64.24C146.41 64.24 143.4 65.65 139.48 65.41C139.48 65.41 144.71 66.48 149.53 64.28C149.53 64.28 151.85 63.32 153.08 61.29C153.08 61.29 152.89 65.84 145.39 67.26C137.89 68.68 131.13 61.73 131.13 61.73C131.13 61.73 132.11 63.67 135.05 65.56C137.99 67.45 141.29 68.43 144.86 68.31C144.86 68.31 141.22 70.36 133.6 66.9C133.6 66.9 130.88 65.76 128.39 60.93C128.39 60.93 126.15 55.86 121.16 54.48L120.65 54H120.63Z" fill="#03FC9D"/><path d="M69.96 22.13C70.29 22.18 71.01 22.47 71.49 22.75C72.6 23.4 73.46 24.46 74.23 26.1L74.43 26.54L74.89 26.61C76.84 26.89 78.66 27.71 80.01 28.92C80.38 29.25 80.95 29.86 81 29.99" stroke="#003B2F" stroke-width="0.3" stroke-linecap="round" stroke-linejoin="round"/><path d="M82.05 31.66L82.15 31.88C82.7 33.1 82.97 34.6 82.79 35.56L82.75 35.81L82.68 35.55C82.58 35.15 82.39 34.78 82.13 34.46" stroke="#003B2F" stroke-width="0.3" stroke-linecap="round" stroke-linejoin="round"/><path d="M69.4 27.05C68.99 25.86 69.01 24.24 69.45 23.16L69.58 22.83L69.73 22.91C70.02 23.06 70.48 23.41 70.68 23.64C71.22 24.25 71.35 24.87 71.22 26.33C71.18 26.76 71.16 27.25 71.16 27.42C71.16 27.69 71.31 28.37 71.45 28.82C71.55 29.15 71.39 29.24 70.99 29.07C70.38 28.82 69.71 27.97 69.39 27.05H69.4Z" fill="#003B2F"/><path d="M75.13 31.32C75.13 31.32 75.24 31.46 75.35 31.62C75.86 32.36 76.54 32.82 78.53 33.77C79.7 34.33 80.34 34.68 80.91 35.09C82.73 36.38 83.56 38.12 83.29 40.05C83.21 40.61 82.85 41.6 82.55 42.08C82.31 42.46 81.74 43.11 81.64 43.11C81.61 43.11 81.62 43.01 81.65 42.88C81.83 42.18 81.69 41.4 81.25 40.71C80.76 39.93 79.99 39.19 78.06 37.63" stroke="#003B2F" stroke-width="0.3" stroke-linecap="round" stroke-linejoin="round"/><path d="M75.62 36.44L75.72 36.66C75.86 36.97 75.94 37.33 75.96 37.79C75.97 38.14 75.96 38.24 75.8 38.75C75.64 39.26 75.6 39.35 75.41 39.6C75.14 39.97 74.78 40.28 74.37 40.49C73.58 40.92 72.69 41.01 71.53 40.81C71.33 40.77 70.75 40.64 70.24 40.51C68.96 40.19 68.09 40.07 67.27 40.1C67.19 40.1 67.12 40.1 67.04 40.08" stroke="#003B2F" stroke-width="0.3" stroke-linecap="round" stroke-linejoin="round"/><path d="M76.9301 37.69C76.9301 37.69 77.0401 37.79 77.1201 37.89C77.2801 38.09 77.6201 38.44 78.5201 39.36C79.6401 40.51 80.2401 41.31 80.5601 42.12C80.8401 42.83 80.9301 43.56 80.8201 44.39C80.7601 44.86 80.3801 45.92 80.1301 46.33C79.3301 47.63 78.1401 48.49 76.7401 48.76C76.5301 48.8 76.3501 48.83 76.3301 48.82C76.3101 48.82 76.4301 48.67 76.5801 48.5C77.2501 47.78 77.5501 46.98 77.5201 45.97" stroke="#003B2F" stroke-width="0.3" stroke-linecap="round" stroke-linejoin="round"/><path d="M71.52 49.89C70.71 49.64 70.17 49.03 69.87 48.02C69.77 47.6 69.7 47.18 69.66 46.76C69.48 45.24 69.32 44.74 68.77 44.09" stroke="#003B2F" stroke-width="0.3" stroke-linecap="round" stroke-linejoin="round"/><path d="M66.7201 45.07C66.2601 44.82 66.33 44.19 66.84 43.93C67.46 43.61 68.3801 44.12 68.5101 44.86C68.5701 45.17 68.42 45.71 68.2 46C67.7 46.64 66.78 46.77 66.03 46.31C65.52 46 65.34 45.78 64.88 44.88C64.08 43.33 63.7101 42.96 62.1101 42.18L61.8 42.03" stroke="#003B2F" stroke-width="0.3" stroke-linecap="round" stroke-linejoin="round"/><path d="M69.13 27.94C68.63 26.79 63.08 17.96 63.03 17.95C63.03 17.95 63.85 20.64 64.05 21.13" stroke="#003B2F" stroke-width="0.3" stroke-linecap="round" stroke-linejoin="round"/><path d="M64.4801 22.81C64.4534 22.7633 64.7467 24.1567 65.3601 26.99C65.4601 27.85 65.1101 28.04 65.0701 28.15C65.0001 28.37 64.9101 28.46 64.5401 28.68C63.9301 29.04 63.5601 29.54 63.0501 30.66C62.4801 31.92 61.7401 32.7 59.9701 33.89C58.9401 34.59 58.7601 34.72 58.4601 35.03C58.0801 35.43 57.9301 35.67 57.7201 36.25C57.5001 36.87 57.4301 37.29 57.4301 37.95C57.4301 38.53 57.5101 38.93 57.7401 39.76C57.9401 40.48 58.0301 40.99 57.9801 41.17C57.9401 41.31 57.9601 41.32 58.6101 41.37C60.1501 41.49 61.4901 41.29 62.3701 40.79C62.9101 40.48 63.0801 40.28 63.2701 39.68" stroke="#003B2F" stroke-width="0.3" stroke-linecap="round" stroke-linejoin="round"/><path fill-rule="evenodd" clip-rule="evenodd" d="M59.57 37.6C59.84 37.34 59.87 36.92 59.64 36.63C59.42 36.36 58.96 36.31 58.88 36.55C58.86 36.62 58.88 36.69 58.96 36.77C59.09 36.9 59.07 36.99 58.9 37.14C58.72 37.29 58.68 37.45 58.79 37.6C58.96 37.85 59.32 37.85 59.58 37.6H59.57Z" fill="#003B2F"/><path fill-rule="evenodd" clip-rule="evenodd" d="M70.02 31.39C69.74 31.16 69.39 31.01 69.02 30.98C68.58 30.98 68.07 31.28 67.81 31.68C67.65 31.93 67.55 32.41 67.62 32.59C67.73 32.88 67.88 32.99 68.34 33.14C69.25 33.41 70.16 33.27 70.4 32.81C70.6 32.44 70.42 31.78 70.02 31.39ZM69.83 32.13C69.69 32.24 69.35 32.27 69.13 32.21C68.8 32.11 68.52 31.77 68.58 31.55C68.71 31.12 69.47 31.11 69.84 31.52C70.03 31.74 70.03 31.97 69.83 32.13Z" fill="#003B2F"/><path d="M132.09 62.78C135.03 66.15 138.68 68.6 145.18 68.29C142.56 69.29 139.02 68.87 136.6 68.16C134.07 67.42 132 66.13 130.54 64.36C129.78 63.44 129.25 62.37 128.62 61.33C128 60.31 127.47 59.2 126.7 58.34C125.1 56.55 123.4 55.12 120.81 54.37C121.15 55.14 121.46 55.93 121.76 56.75C121.99 57.39 122.22 58.05 122.43 58.72C123.44 61.89 123.9 64.99 125.42 67.86C126.12 69.18 127.05 70.5 128.49 70.85C128.76 70.91 129.18 70.86 129.43 70.89C130.42 71 131.46 71.64 131.91 72.34C132.91 73.9 133.44 75.66 134.26 77.25C134.93 78.55 135.53 79.52 136.69 80.24C137.01 80.43 137.53 80.61 137.8 80.92C137.87 81 137.84 81.19 137.97 81.35C138.25 81.7 138.93 81.68 138.53 82.33C139.43 82.37 139.77 82.6 140.11 83.44C140.36 84.07 140.8 84.76 140.62 85.66C140.53 86.15 140.28 86.58 140.11 87.33C139.99 87.83 139.76 88.71 139.43 88.78C138.92 88.89 138.27 88.12 137.94 87.8C137.72 87.59 136.89 86.78 136.79 86.48C136.69 86.17 136.8 85.84 136.75 85.5C135.74 85.55 134.86 85.15 134.44 84.43C134.2 84.01 134.1 83.48 133.93 83.02C133.75 82.56 133.62 82.1 133.38 81.7C132.86 80.86 132.05 80.14 131.37 79.35C129.34 77.01 126.4 75.78 124.67 73.07C121.21 71.61 117.92 69.97 115.45 67.52C115.51 68 115.68 68.42 115.79 68.89C115.9 69.33 115.87 69.86 116.05 70.3C116.14 70.53 116.6 70.85 116.82 71.07C117.1 71.34 117.37 71.59 117.59 71.84C118.06 72.36 118.38 73.19 118.83 73.63C119.03 73.83 119.48 74.14 119.73 74.19C120.43 74.33 120.94 74.04 121.44 74.36C121.66 74.5 122.31 75.79 122.38 76.15C122.52 76.91 122.13 77.87 122 78.71C121.86 79.59 121.73 80.4 121.62 81.23C121.39 82.93 120.8 84.79 121.02 86.48C121.1 87.09 121.79 87.97 121.15 88.62C120.89 88.88 120.29 88.81 119.83 88.88C119.61 89.24 119.28 89.5 119.06 89.86C119.3 90.58 120.12 91.09 119.74 91.87C119.36 92.66 117.91 92.27 117.05 92.13C116.28 92 113.23 92.4 113.08 91.66C112.95 91.05 113.81 90.25 114.15 89.91C114.92 89.12 115.6 88.73 116.8 88.5C116.16 88.34 116.8 87.3 116.71 86.83C116.89 86.21 117.16 85.7 117.39 85.12C117.61 84.58 117.99 83.99 118.07 83.41C118.14 82.98 118.11 82.46 118.11 82.04C118.11 80.3 117.54 78.38 116.49 77.64C115.81 77.16 114.93 76.91 114.14 76.49C113.44 76.12 112.69 75.6 112.09 75.08C111.8 74.83 111.6 74.46 111.32 74.23C110.2 73.27 108.86 72.93 107.65 72.31C106.53 71.73 105.46 70.65 104.83 69.58C104.36 68.78 104.33 68.01 103.76 67.19C100.53 68.28 96.7 69.27 92.7 69.71C90.54 69.95 88.32 69.66 86.29 69.5C84.28 69.34 82.53 68.67 81.17 67.88C80.93 68.76 79.93 69 79.42 69.67C79.17 70 79.03 70.39 78.78 70.7C78.07 71.55 77.18 72.35 76.47 73.26C75.51 74.49 74.84 75.91 73.69 77.02C74.07 78.53 72.62 79.96 71.38 80.14C70.72 80.74 70.22 81.67 69.67 82.62C69.16 83.5 68.54 84.4 68.26 85.4C68.2 85.6 68.24 85.82 68.17 86C68.05 86.31 67.63 86.51 67.36 86.77C67.17 86.95 67.01 87.44 66.72 87.37" stroke="#003B2F" stroke-width="0.3" stroke-linecap="round" stroke-linejoin="round"/><path d="M115.54 49.67C117.39 50.73 119.07 51.94 120.32 53.6" stroke="#003B2F" stroke-width="0.3" stroke-linecap="round" stroke-linejoin="round"/><path d="M83.34 39.71C83.63 40 84.26 40.57 84.54 40.88C86.1 42.59 87.76 44.44 88.81 46.65C88.93 46.91 88.96 47.22 89.11 47.46C89.44 48 90.61 48.51 91.29 48.7C93.27 49.26 95.87 49.12 97.91 48.91C100.01 48.69 101.63 47.94 103.68 47.63C105.86 47.3 108.26 47.27 110.21 47.67C112.22 48.08 113.64 48.82 115.33 49.59C118.29 47.59 124.93 47.9 126.31 51.04" stroke="#003B2F" stroke-width="0.3" stroke-linecap="round" stroke-linejoin="round"/><path d="M67.41 60.6C66.91 60.19 66.82 59.19 66.86 58.47C66.94 56.92 67.82 55.73 68.31 54.67C68.27 53.21 69.28 50.35 69.56 48.93" stroke="#003B2F" stroke-width="0.3" stroke-linecap="round" stroke-linejoin="round"/><path d="M119.17 50.87C119.42 50.67 119.87 50.64 120.2 50.61C123.48 50.37 126.46 50.9 128.36 52.19C130.19 53.44 131.75 55.39 133.36 56.93C134.94 58.45 137.17 59.56 139.64 60.39C141.76 61.1 144.78 62.29 147.17 61.07C147.17 61.07 147.23 62.17 142.77 62.61" stroke="#003B2F" stroke-width="0.3" stroke-linecap="round" stroke-linejoin="round"/><path d="M131.85 58.89C132.41 59.21 133.14 59.61 133.86 59.96C135.87 60.93 138.12 62.58 140.46 63.03C143.53 63.63 147.46 63.01 149.66 61.75C149.66 61.75 148.07 63.79 146.39 64.23" stroke="#003B2F" stroke-width="0.3" stroke-linecap="round" stroke-linejoin="round"/><path d="M134.24 62.61C137.7 67.06 148.1 66.3 151.88 62.74C152.36 62.29 152.79 61.67 153.2 61.07C152.72 63.04 151.47 64.75 149.69 65.74C147.75 66.82 145.27 67.53 142.56 67.43C138.21 67.27 132.88 64.16 130.98 61.56" stroke="#003B2F" stroke-width="0.3" stroke-linecap="round" stroke-linejoin="round"/><path d="M56.99 75.08C56.99 75.5 56.71 75.65 56.61 75.98C57 76.21 57.43 76.24 57.68 76.53C58.37 77.37 57.62 79.56 57.08 80.25C56.95 80.42 56.7 80.64 56.53 80.76C55.95 81.16 55.15 81.53 54.57 81.61C53.74 80.76 54.31 79.26 54.14 78.11C54.11 77.92 53.94 77.73 53.93 77.55C53.87 76.63 54.7 76.33 54.58 75.44C54.53 75.1 54.43 74.59 54.28 74.22C54.06 73.7 53.83 73.03 53.9 72.21C54.04 70.38 55.58 69.51 56.42 68.24C57.42 66.72 56.88 65.75 57.98 64.27C57.98 64.27 58.06 64.07 58.25 64.05C58.59 63.33 59.19 62.86 60.43 62.85C61.09 62.85 61.67 62.93 62.35 62.89C63.44 62.84 64.37 62.61 65.21 62.25C66.06 61.88 66.74 61.3 67.6 61.14" stroke="#003B2F" stroke-width="0.3" stroke-linecap="round" stroke-linejoin="round"/><path d="M57.16 74.4C57.34 74.21 57.7 74.01 57.71 73.76C57.72 73.53 57.37 73.21 57.33 73.03C57.31 72.93 57.29 72.78 57.29 72.69C57.27 71.13 58.5 69.77 59.21 68.59C60.55 68.73 60.79 67.77 61.39 67.27C61.62 67.08 62.02 66.96 62.46 66.93C62.46 66.93 65.92 68.75 70.45 67.61C71.07 67.46 71.21 67.89 71.77 67.99C71.43 69.55 71.89 72.26 71.09 73.37C70.87 73.68 70.49 73.84 70.24 74.1C69.76 74.59 69.31 75.39 69.26 76.19C69.24 76.46 69.35 76.72 69.35 76.92C69.34 77.44 69.09 78.08 68.92 78.59C68.75 79.11 68.28 79.85 68.05 80.33C67.56 81.33 66.98 81.99 66.22 82.44C65.5 82.87 65.07 83.45 64.87 84.13C64.87 84.13 63.61 86 62.61 86.14C62.09 86.21 60.44 87.27 61.5 87.72C61.34 87.92 61.14 88.07 61.2 88.49C60.97 88.58 60.8 88.74 60.64 88.92C60.4 89.19 59.63 90.04 59.66 90.41C59.7 91.06 60.82 90.87 61.41 90.92C62.43 91.02 64.17 91.53 64.78 90.71C64.81 90.17 64.77 89.7 64.61 89.34C65.01 89.18 65.48 89.1 65.81 88.87C65.87 88.7 65.87 88.36 65.81 88.19" stroke="#003B2F" stroke-width="0.3" stroke-linecap="round" stroke-linejoin="round"/><path d="M54.01 77.82C54.01 77.82 55.6 77.56 56.44 76.22" stroke="#003B2F" stroke-width="0.3" stroke-linecap="round" stroke-linejoin="round"/><path d="M115.76 67.85C115.76 67.85 112.94 65.45 111.33 63.94" stroke="#003B2F" stroke-width="0.3" stroke-linecap="round" stroke-linejoin="round"/><path d="M103.16 67.36C103.16 67.36 105.72 66.17 107.71 66.17" stroke="#003B2F" stroke-width="0.3" stroke-linecap="round" stroke-linejoin="round"/><path d="M80.74 68.49C80.74 68.49 81.84 67.04 82.05 65.34" stroke="#003B2F" stroke-width="0.3" stroke-linecap="round" stroke-linejoin="round"/><path d="M71.7701 67.99C71.7701 67.99 68.7501 65.09 69.2401 59.77" stroke="#003B2F" stroke-width="0.3" stroke-linecap="round" stroke-linejoin="round"/><path d="M136.74 85.74C136.74 85.74 138.13 84.49 138.22 83.05" stroke="#003B2F" stroke-width="0.3" stroke-linecap="round" stroke-linejoin="round"/><path d="M61.17 88.49C61.17 88.49 63.89 89.17 65.13 88.49" stroke="#003B2F" stroke-width="0.3" stroke-linecap="round" stroke-linejoin="round"/><path d="M116.45 88.49C116.45 88.49 118.08 88.82 119.18 88.49" stroke="#003B2F" stroke-width="0.3" stroke-linecap="round" stroke-linejoin="round"/><path d="M168.45 28.99H170.21" stroke="#003B2F" stroke-width="0.3" stroke-linecap="round" stroke-linejoin="round"/><path d="M161.07 24.51H173.83" stroke="#03FC9D" stroke-width="0.3" stroke-linecap="round" stroke-linejoin="round"/><path d="M172.49 28.98H179.62" stroke="#003B2F" stroke-width="0.3" stroke-linecap="round" stroke-linejoin="round"/><path d="M159.07 78.86H170.29C171.527 78.86 172.53 77.8571 172.53 76.62C172.53 75.3829 171.527 74.38 170.29 74.38H159.07C157.833 74.38 156.83 75.3829 156.83 76.62C156.83 77.8571 157.833 78.86 159.07 78.86Z" fill="#E6E8EA"/><path d="M164.84 84.74H182.7C184.666 84.74 186.26 83.1461 186.26 81.18C186.26 79.2139 184.666 77.62 182.7 77.62H164.84C162.874 77.62 161.28 79.2139 161.28 81.18C161.28 83.1461 162.874 84.74 164.84 84.74Z" fill="#03FC9D"/><path d="M171.13 75.62L172.42 76.91" stroke="#003B2F" stroke-width="0.3" stroke-linecap="round" stroke-linejoin="round"/><path d="M173.36 77.85L174.65 79.14" stroke="#003B2F" stroke-width="0.3" stroke-linecap="round" stroke-linejoin="round"/><path d="M171.13 79.14L172.42 77.85" stroke="#003B2F" stroke-width="0.3" stroke-linecap="round" stroke-linejoin="round"/><path d="M173.36 76.91L174.65 75.62" stroke="#003B2F" stroke-width="0.3" stroke-linecap="round" stroke-linejoin="round"/><path d="M47.5 50.76L49.86 52.12" stroke="#003B2F" stroke-width="0.3" stroke-linecap="round" stroke-linejoin="round"/><path d="M52.22 50.76L50.84 51.56" stroke="#003B2F" stroke-width="0.3" stroke-linecap="round" stroke-linejoin="round"/><path d="M49.86 52.12V54.88" stroke="#003B2F" stroke-width="0.3" stroke-linecap="round" stroke-linejoin="round"/><path d="M25.89 87.92H32.49" stroke="#003B2F" stroke-width="0.3" stroke-linecap="round" stroke-linejoin="round"/><path d="M48.23 90.71H59.77" stroke="#003B2F" stroke-width="0.3" stroke-linecap="round" stroke-linejoin="round"/><path d="M64.76 90.71H113.31" stroke="#003B2F" stroke-width="0.3" stroke-linecap="round" stroke-linejoin="round"/><path d="M119.56 90.71H144.46" stroke="#003B2F" stroke-width="0.3" stroke-linecap="round" stroke-linejoin="round"/><path d="M20.88 87.92H22.54" stroke="#003B2F" stroke-width="0.3" stroke-linecap="round" stroke-linejoin="round"/><path d="M26.85 83.17H43.95" stroke="#03FC9D" stroke-width="0.3" stroke-linecap="round" stroke-linejoin="round"/><path d="M166.87 42.42L168.43 43.98" stroke="#003B2F" stroke-width="0.3" stroke-linecap="round" stroke-linejoin="round"/><path d="M169.57 45.12L171.13 46.68" stroke="#003B2F" stroke-width="0.3" stroke-linecap="round" stroke-linejoin="round"/><path d="M166.87 46.68L168.43 45.12" stroke="#003B2F" stroke-width="0.3" stroke-linecap="round" stroke-linejoin="round"/><path d="M169.57 43.98L171.13 42.42" stroke="#003B2F" stroke-width="0.3" stroke-linecap="round" stroke-linejoin="round"/><path d="M34.93 46.47H30.07C31.61 46.47 32.86 45.22 32.86 43.68C32.86 42.14 31.61 40.89 30.07 40.89H16.1C14.56 40.89 13.31 42.14 13.31 43.68H9.01998C7.47998 43.68 6.22998 44.93 6.22998 46.47C6.22998 48.01 7.47998 49.26 9.01998 49.26H18.17C18.17 50.8 19.42 52.05 20.96 52.05H34.93C36.47 52.05 37.72 50.8 37.72 49.26C37.72 47.72 36.47 46.47 34.93 46.47Z" fill="#E6E8EA"/><path d="M12.87 16.6L15.4 18.06" stroke="#003B2F" stroke-width="0.3" stroke-linecap="round" stroke-linejoin="round"/><path d="M17.9199 16.6L16.4399 17.46" stroke="#003B2F" stroke-width="0.3" stroke-linecap="round" stroke-linejoin="round"/><path d="M15.4 18.06V21.01" stroke="#003B2F" stroke-width="0.3" stroke-linecap="round" stroke-linejoin="round"/><path d="M12.87 25.01H31.15" stroke="#03FC9D" stroke-width="0.3" stroke-linecap="round" stroke-linejoin="round"/><path d="M24.8 28.74H38.91" stroke="#003B2F" stroke-width="0.3" stroke-linecap="round" stroke-linejoin="round"/><path d="M97.1799 18.49V20.85" stroke="#003B2F" stroke-width="0.3" stroke-linecap="round" stroke-linejoin="round"/><path d="M97.1799 22.57V24.93" stroke="#003B2F" stroke-width="0.3" stroke-linecap="round" stroke-linejoin="round"/><path d="M93.96 21.71H96.32" stroke="#003B2F" stroke-width="0.3" stroke-linecap="round" stroke-linejoin="round"/><path d="M98.0399 21.71H100.39" stroke="#003B2F" stroke-width="0.3" stroke-linecap="round" stroke-linejoin="round"/><path d="M-7.17003 55.82L17.12 55.82C19.7986 55.82 21.97 53.6508 21.97 50.975C21.97 48.2992 19.7986 46.13 17.12 46.13H-7.17003C-9.84861 46.13 -12.02 48.2992 -12.02 50.975C-12.02 53.6508 -9.84861 55.82 -7.17003 55.82Z" fill="#03FC9D"/><path d="M144.12 23.34C146.937 23.34 149.22 21.0567 149.22 18.24C149.22 15.4233 146.937 13.14 144.12 13.14C141.303 13.14 139.02 15.4233 139.02 18.24C139.02 21.0567 141.303 23.34 144.12 23.34Z" fill="#03FC9D"/><path d="M147.57 20.7C148.15 19.74 148.42 18.57 148.26 17.37C147.88 14.58 145.31 12.63 142.52 13.02C139.73 13.4 137.78 15.97 138.17 18.76C138.56 21.55 141.12 23.5 143.91 23.11" stroke="#003B2F" stroke-width="0.3" stroke-linecap="round" stroke-linejoin="round"/><path d="M141.06 15.44L141.98 16.39C142.13 16.55 142.29 16.71 142.44 16.86C142.85 17.3 143.53 17.33 143.97 16.92C143.99 16.9 144 16.89 144.02 16.87C144.48 16.41 144.94 15.96 145.4 15.5C145.4 15.5 145.42 15.48 145.43 15.47H146.31C146.31 15.47 146.29 15.51 146.28 15.52C145.68 16.12 145.07 16.72 144.47 17.32C144.14 17.67 143.67 17.85 143.19 17.83C142.76 17.83 142.35 17.65 142.05 17.35C141.43 16.72 140.82 16.09 140.21 15.46C140.21 15.45 140.19 15.44 140.19 15.43H141.07L141.06 15.44Z" fill="#003B2F"/><path d="M140.12 20.63C140.22 20.54 140.32 20.45 140.41 20.35C140.93 19.83 141.45 19.31 141.97 18.79C142.3 18.44 142.77 18.25 143.26 18.27C143.68 18.27 144.08 18.44 144.38 18.74C145.01 19.37 145.63 20.02 146.25 20.66C146.25 20.66 146.26 20.67 146.26 20.68C146.24 20.68 146.23 20.68 146.21 20.68C145.95 20.68 145.69 20.68 145.43 20.68C145.4 20.68 145.37 20.66 145.34 20.64C144.88 20.17 144.42 19.7 143.96 19.23C143.54 18.8 142.85 18.8 142.43 19.22C141.96 19.68 141.5 20.14 141.04 20.61C141.01 20.64 140.97 20.66 140.93 20.66C140.68 20.66 140.43 20.66 140.18 20.66H140.12L140.11 20.64L140.12 20.63Z" fill="#003B2F"/><path d="M143.19 42.63H153.01C154.092 42.63 154.97 41.7525 154.97 40.67C154.97 39.5875 154.092 38.71 153.01 38.71H143.19C142.107 38.71 141.23 39.5875 141.23 40.67C141.23 41.7525 142.107 42.63 143.19 42.63Z" fill="#03FC9D"/><path d="M147.36 40.31H155.3C156.173 40.31 156.88 39.6026 156.88 38.73V38.72C156.88 37.8474 156.173 37.14 155.3 37.14H147.36C146.487 37.14 145.78 37.8474 145.78 38.72V38.73C145.78 39.6026 146.487 40.31 147.36 40.31Z" fill="#03FC9D"/><path d="M149.08 44.32H157.02C157.893 44.32 158.6 43.6126 158.6 42.74V42.73C158.6 41.8574 157.893 41.15 157.02 41.15H149.08C148.207 41.15 147.5 41.8574 147.5 42.73V42.74C147.5 43.6126 148.207 44.32 149.08 44.32Z" fill="#03FC9D"/><path d="M43.79 14.61C43.84 17.82 46.49 20.39 49.71 20.33C52.92 20.28 55.49 17.63 55.43 14.41C55.38 11.2 52.73 8.63 49.51 8.69C46.3 8.74 43.73 11.39 43.79 14.61Z" fill="#03FC9D"/><path d="M44.61 10.57C43.68 11.62 43.12 13.01 43.15 14.53C43.2 17.74 45.8499 20.31 49.0699 20.25C52.2799 20.2 54.85 17.55 54.79 14.33C54.74 11.12 52.0899 8.55 48.8699 8.61" stroke="#003B2F" stroke-width="0.3" stroke-linecap="round" stroke-linejoin="round"/><path d="M47.61 14.05C47.62 14.05 47.63 14.04 47.65 14.04L47.86 13.97L48.05 13.91L48.27 13.84L48.45 13.78L48.67 13.71L48.85 13.65L49.06 13.58L49.22 13.53C49.22 13.53 49.23 13.53 49.24 13.53C49.24 13.53 49.24 13.54 49.24 13.55L49.05 15.12V15.14C49.01 15.11 48.96 15.07 48.92 15.04L47.81 14.19L47.61 14.04V14.05Z" fill="#003B2F"/><path d="M49.0399 15.15L49.2299 13.54C49.2299 13.54 49.2299 13.53 49.2299 13.52L49.4499 11.71V11.69C49.4799 11.75 49.4999 11.81 49.5299 11.87L50.6699 14.41C50.6699 14.41 50.6699 14.42 50.6699 14.43C50.6699 14.43 50.6599 14.43 50.6499 14.43L50.5399 14.36L50.3199 14.23L50.0999 14.1C50.0299 14.06 49.9499 14.01 49.8799 13.97L49.6699 13.84L49.4499 13.71L49.2399 13.58H49.2299L49.0399 15.15V15.17V15.15Z" fill="#003B2F"/><path d="M49.0399 15.15L49.2299 13.56C49.2299 13.56 49.2299 13.54 49.2499 13.56L49.4999 13.71C49.5599 13.74 49.6099 13.78 49.6699 13.81L49.9099 13.96L50.0499 14.04L50.2499 14.16L50.3899 14.24L50.5799 14.36L50.6899 14.42C50.6899 14.42 50.6899 14.42 50.6799 14.42L49.8499 14.78L49.0599 15.13C49.0599 15.13 49.0499 15.13 49.0399 15.13" fill="#003B2F"/><path d="M48.98 15.62L49.33 15.47L50.31 15.04L50.62 14.9C50.62 14.9 50.62 14.9 50.63 14.9C50.04 15.55 49.45 16.21 48.85 16.86C48.85 16.86 48.85 16.87 48.84 16.86C48.84 16.86 48.84 16.85 48.84 16.84L48.99 15.62V15.6" fill="#003B2F"/><path d="M48.9799 15.62C48.9799 15.62 48.9799 15.63 48.9799 15.64L48.8299 16.88C48.8299 16.88 48.7999 16.82 48.7799 16.79C48.6299 16.52 48.4899 16.25 48.3399 15.99L47.8999 15.19L47.5499 14.55C47.5499 14.55 47.5599 14.55 47.5699 14.55L48.4099 15.19L48.9699 15.62" fill="#003B2F"/><path d="M49.46 11.69C49.46 11.69 49.46 11.7 49.46 11.71L49.24 13.53C49.24 13.53 49.24 13.54 49.24 13.55C49.24 13.55 49.24 13.55 49.24 13.54L49.46 11.73C49.46 11.73 49.46 11.71 49.46 11.7" fill="white"/><path d="M49.4499 11.68L49.2299 13.53C49.1499 13.55 49.0799 13.58 48.9999 13.6C48.9199 13.63 48.8399 13.65 48.7599 13.68L48.3399 13.81L48.0499 13.9L47.6199 14.04C47.6499 14 47.6699 13.97 47.6999 13.93L48.4099 13.02L49.3099 11.86L49.4599 11.67" fill="#003B2F"/><path d="M31.0099 68.03C29.3099 66.59 29.1599 64.13 30.6799 62.52C32.1999 60.91 34.8099 60.77 36.5199 62.21C38.2199 63.65 38.3699 66.11 36.8499 67.72C35.3299 69.33 32.7199 69.47 31.0099 68.03Z" fill="#03FC9D"/><path d="M30.6399 68.46C28.9399 67.02 28.7899 64.56 30.3099 62.95C31.8299 61.34 34.4399 61.2 36.1499 62.64C37.8499 64.08 37.9999 66.54 36.4799 68.15C35.6599 69.01 34.5299 69.45 33.3999 69.45" stroke="#003B2F" stroke-width="0.3" stroke-linecap="round" stroke-linejoin="round"/><path d="M32.4699 68.11L32.7299 66.8L32.9799 65.51L33.2299 64.21L33.2699 64L33.3899 64.15L33.8599 64.8L33.7699 65.24L33.5199 66.54L33.2699 67.84L34.0599 67.57L34.3099 66.27L34.4399 65.6L34.8099 66.1L35.5299 67.08L36.2399 66.84L35.5199 65.86L34.8099 64.89L34.6199 64.64L34.8099 63.67L34.0999 63.91L34.0399 63.84L33.4599 63.04L33.3799 62.94L32.6999 63.17L32.6899 63.2L32.4399 64.47L32.1899 65.77L31.9399 67.07L31.6799 68.37L32.4699 68.11Z" fill="#003B2F"/><path d="M111.69 35.51C111.57 35.38 111.46 35.24 111.35 35.11C110.48 34.06 109.79 32.99 109.47 32.19" stroke="#003B2F" stroke-width="0.3" stroke-linecap="round" stroke-linejoin="round"/><path d="M114.09 37.61C113.79 37.45 113.45 37.21 113.08 36.88C112.97 36.79 112.86 36.69 112.75 36.59" stroke="#003B2F" stroke-width="0.3" stroke-linecap="round" stroke-linejoin="round"/><path d="M117.47 35.76L111.85 28.93L110.29 30.46C109.85 30.83 110.71 32.59 112.21 34.39C112.43 34.66 112.65 34.91 112.87 35.14C113.23 35.53 113.59 35.87 113.92 36.15C114.76 36.87 115.45 37.21 115.72 36.99L117.46 35.76H117.47Z" fill="#03FC9D"/><path d="M115.58 34.78L113.98 36.21C113.61 35.92 113.22 35.54 112.87 35.15L114.65 33.67L115.58 34.79V34.78Z" fill="white"/><path d="M113.69 33.22C112.98 32.37 112.43 31.45 112.15 30.62C111.84 29.73 111.93 29.25 112.01 29.06C112.22 29.02 112.7 29.02 113.52 29.48C114.28 29.91 115.08 30.62 115.79 31.47C116.5 32.32 117.05 33.24 117.33 34.07C117.64 34.96 117.55 35.44 117.47 35.63C117.26 35.67 116.78 35.67 115.96 35.21C115.2 34.78 114.4 34.07 113.69 33.22Z" fill="#E6E8EA"/><path d="M115.75 31.44C114.25 29.64 112.56 28.56 111.98 29.04C111.4 29.52 112.15 31.37 113.65 33.18C115.15 34.98 116.84 36.06 117.42 35.58C118 35.1 117.25 33.25 115.75 31.44Z" stroke="#003B2F" stroke-width="0.3" stroke-linecap="round" stroke-linejoin="round"/><path fill-rule="evenodd" clip-rule="evenodd" d="M115.46 32.3C115.46 32.3 115.45 32.3 115.44 32.29C115.42 32.29 115.41 32.29 115.4 32.29L114.49 32.96C114.49 32.96 114.48 33.06 114.53 33.14C114.58 33.22 114.66 33.26 114.69 33.24L114.77 33.18L114.9 33.41L115.03 33.64L115.08 33.73C115.08 33.73 115.14 33.81 115.17 33.84C115.2 33.86 115.22 33.88 115.24 33.88C115.26 33.88 115.27 33.88 115.28 33.86C115.28 33.85 115.28 33.83 115.28 33.81C115.28 33.79 115.27 33.77 115.25 33.74L115.2 33.65V33.62L115.07 33.41L114.89 33.08L115.41 32.7C115.51 32.8 115.6 32.89 115.68 32.97L115.82 33.11L115.84 33.13L115.86 33.16L115.9 33.2L115.93 33.23C115.99 33.29 116.05 33.31 116.07 33.26C116.07 33.25 116.07 33.23 116.07 33.21C116.07 33.21 116.06 33.17 116.04 33.15C116.03 33.13 116.02 33.11 116 33.1C116 33.1 115.99 33.08 115.98 33.07L115.91 33L115.72 32.81L115.53 32.62L115.61 32.56C115.61 32.56 115.62 32.54 115.62 32.53C115.62 32.53 115.62 32.53 115.62 32.52C115.62 32.48 115.6 32.43 115.56 32.38C115.53 32.34 115.5 32.31 115.47 32.29L115.46 32.3ZM115.09 31.78C115.09 31.78 115.01 31.73 114.99 31.74L114.8 31.88C114.51 31.58 114.26 31.33 114.22 31.29C114.14 31.21 114.07 31.15 113.99 31.11C113.91 31.07 113.86 31.08 113.83 31.11C113.8 31.14 113.77 31.19 113.78 31.27C113.79 31.35 113.83 31.44 113.88 31.54C114.01 31.78 114.14 32.03 114.27 32.27L114.08 32.41C114.08 32.41 114.07 32.51 114.12 32.59C114.17 32.67 114.25 32.71 114.28 32.69L115.19 32.02C115.19 32.02 115.2 32 115.2 31.98C115.2 31.94 115.18 31.89 115.14 31.84C115.12 31.82 115.1 31.8 115.08 31.78H115.09ZM114.39 32.19C114.22 31.87 114.08 31.61 114.05 31.55C114.02 31.5 114.01 31.46 114.01 31.45C114.01 31.43 114.01 31.41 114.03 31.4C114.05 31.39 114.07 31.39 114.09 31.4C114.11 31.4 114.13 31.43 114.18 31.47C114.22 31.51 114.43 31.72 114.68 31.98L114.4 32.19H114.39Z" fill="#003B2F"/><path d="M113.81 56.7754C113.961 56.3135 113.641 55.7942 113.095 55.6156C112.549 55.437 111.984 55.6666 111.833 56.1285C111.682 56.5904 112.002 57.1097 112.548 57.2883C113.094 57.467 113.659 57.2373 113.81 56.7754Z" fill="#E6E8EA"/><path d="M108.918 52.8431C109.145 52.2855 108.649 51.5567 107.81 51.2152C106.971 50.8737 106.107 51.0489 105.88 51.6064C105.653 52.164 106.15 52.8928 106.988 53.2343C107.827 53.5758 108.691 53.4007 108.918 52.8431Z" fill="#E6E8EA"/><path d="M114.574 52.886C114.859 52.2999 114.478 51.5272 113.723 51.1601C112.968 50.7931 112.125 50.9706 111.84 51.5567C111.555 52.1428 111.936 52.9155 112.691 53.2826C113.446 53.6496 114.289 53.4721 114.574 52.886Z" fill="#E6E8EA"/></g><defs><clipPath id="clip0_13_1030"><rect width="192" height="108" fill="white"/></clipPath></defs></svg>