<svg width="1920" height="1081" viewBox="0 0 1920 1081" fill="none" xmlns="http://www.w3.org/2000/svg"><g style="mix-blend-mode:multiply"><path d="M1553.37 384.262L1358.24 271.017L391.907 830.073L587.036 943.318L1553.37 384.262Z" fill="#E6E8EA"/></g><path d="M1198.86 548.029L1047.94 460.258L944.967 401.602L1095.89 489.265L1198.86 548.029Z" fill="#E6E8EA"/><path d="M833.651 584.102L935.979 406.955C937.263 404.814 938.869 403.102 940.581 402.138C942.187 401.175 943.9 400.961 945.184 401.71L1096.11 489.374C1094.82 488.624 1093.22 488.838 1091.5 489.802C1089.79 490.765 1088.19 492.478 1086.9 494.618L984.574 671.765C981.791 676.475 982.326 680.863 984.574 682.255L833.651 594.591C831.296 593.2 830.868 588.811 833.651 584.102Z" fill="#03FC9D" stroke="#003B2F" stroke-width="3.21112" stroke-linecap="round" stroke-linejoin="round"/><path d="M1091.4 489.801C1089.79 490.764 1088.08 492.477 1086.79 494.618L984.467 671.764C980.399 678.722 983.289 685.144 989.069 681.826L1194.26 563.336C1200.04 560.017 1202.82 550.384 1198.76 548.029L1095.79 489.373C1094.5 488.624 1092.9 488.838 1091.18 489.801H1091.4Z" fill="#003B2F" stroke="#003B2F" stroke-width="3.21112" stroke-miterlimit="10"/><path d="M497.446 611.61L1072.02 467.538L1075.34 466.682L1554.33 346.586L1551.01 361.785L1072.02 481.988L1068.7 482.737L494.235 626.809L497.446 611.61Z" fill="#003B2F" stroke="#003B2F" stroke-width="3.21112" stroke-miterlimit="10"/><path d="M355.729 529.297L497.447 611.608L494.236 626.808L355.729 543.747V529.297Z" fill="#03FC9D" stroke="#003B2F" stroke-width="3.21112" stroke-linecap="round" stroke-linejoin="round"/><path d="M355.839 529.297L497.45 611.608L1554.34 346.584L1412.62 264.272L355.839 529.297Z" fill="white" stroke="#003B2F" stroke-width="3.21112" stroke-linecap="round" stroke-linejoin="round"/><path d="M1304.83 401.388L1500.28 351.83L1498.57 236.23L1333.51 277.011L1304.83 401.388Z" fill="#03FC9D" stroke="#003B2F" stroke-width="3.21112" stroke-linecap="round" stroke-linejoin="round"/><path d="M1333.51 277.01L1498.56 236.229L1445.37 181.319L1280.32 221.993L1333.51 277.01Z" fill="#E6E8EA"/><path d="M1280.32 221.993L1223.06 316.935L1304.83 401.388L1333.52 277.01L1280.32 221.993Z" fill="#03FC9D" stroke="#003B2F" stroke-width="3.21112" stroke-linecap="round" stroke-linejoin="round"/><path d="M1333.51 277.01L1498.56 236.229L1445.37 181.319L1280.32 221.993L1333.51 277.01Z" fill="#03FC9D"/><path d="M1333.51 277.01L1498.56 236.229L1445.37 181.319L1280.32 221.993L1333.51 277.01Z" stroke="#003B2F" stroke-width="3.21112" stroke-linecap="round" stroke-linejoin="round"/><path d="M1419.47 194.7L1391 202.406C1377.72 205.832 1363.7 219.104 1359.96 232.27C1359.96 232.27 1359.85 232.27 1359.74 232.27C1358.78 235.802 1357.39 240.512 1356.42 244.151C1358.35 243.616 1359.63 242.545 1360.17 241.261C1361.24 237.194 1362.42 233.233 1363.49 229.166C1364.02 227.453 1364.56 226.276 1364.56 226.276C1364.99 225.419 1365.52 224.242 1365.95 223.493C1366.16 223.065 1366.59 222.422 1366.91 221.994C1367.23 221.566 1367.55 220.924 1367.88 220.496C1368.2 220.068 1368.63 219.425 1368.95 218.997C1369.27 218.569 1369.8 218.034 1370.12 217.606C1370.12 217.606 1371.19 216.321 1372.69 214.823C1374.3 213.324 1375.58 212.254 1375.58 212.254C1376.44 211.612 1377.62 210.648 1378.58 210.006C1379.01 209.685 1379.65 209.257 1380.19 209.043C1381.79 208.079 1383.29 207.437 1383.29 207.437C1383.82 207.223 1384.47 206.902 1385 206.688C1385.75 206.367 1386.82 206.046 1387.57 205.832L1390.46 205.082L1393.35 204.333L1396.24 203.584L1399.13 202.835L1402.02 202.085L1404.91 201.336L1407.8 200.587L1410.69 199.838L1413.58 199.088L1416.47 198.339C1416.47 198.339 1417.54 198.125 1417.97 198.018C1418.29 198.018 1418.61 198.018 1418.93 197.911C1419.25 197.911 1419.79 197.911 1420.11 197.911C1420.32 197.911 1420.54 197.911 1420.75 197.911C1420.97 197.911 1421.29 197.911 1421.61 198.018C1421.82 198.018 1422.04 198.125 1422.25 198.232C1422.25 198.232 1422.25 198.339 1422.36 198.446C1422.57 199.088 1422.57 199.73 1422.57 200.052C1422.57 200.801 1422.46 201.764 1422.46 201.871C1422.46 202.513 1422.14 203.263 1422.04 203.905C1420.97 207.758 1419.9 211.719 1418.83 215.572C1418.83 216.749 1419.25 218.141 1420.32 219.425C1420.54 219.639 1420.65 219.853 1420.86 220.068C1421.07 220.282 1421.29 220.496 1421.61 220.71C1424.71 223.386 1429.53 224.884 1433.7 224.563L1437.02 212.468C1440.66 199.302 1432.63 191.275 1419.36 194.7H1419.47Z" fill="#003B2F" stroke="#003B2F" stroke-width="3.21112" stroke-miterlimit="10"/><path d="M1443.55 208.936C1443.76 207.972 1444.08 206.795 1444.3 205.831C1444.51 204.761 1444.73 203.37 1444.83 202.299C1444.83 201.015 1444.94 199.409 1444.83 198.125C1444.83 197.054 1444.62 195.663 1444.4 194.7C1444.19 193.522 1443.87 192.345 1443.44 191.167C1443.12 190.204 1442.48 189.027 1442.05 188.063C1441.73 187.528 1441.41 186.886 1440.98 186.351C1440.34 185.601 1439.59 184.531 1438.84 183.782C1434.45 179.179 1426.96 177.574 1417.54 179.928L1388.21 187.421C1369.48 192.131 1350.1 211.076 1344.97 229.594L1341.86 240.726C1344.97 243.402 1349.89 244.9 1353.96 244.579C1354.71 244.579 1355.35 244.472 1355.99 244.258C1356.1 244.258 1356.21 244.258 1356.31 244.258C1356.63 242.973 1358.13 237.622 1359.63 232.27C1363.27 219.104 1377.08 205.617 1390.46 202.192C1400.2 199.73 1410.05 197.269 1419.79 194.7C1433.17 191.274 1440.98 199.302 1437.23 212.468C1435.63 218.248 1434.02 223.921 1433.81 224.563C1434.34 224.456 1435.73 223.707 1436.27 223.814H1435.84C1435.84 223.814 1436.06 223.814 1436.16 223.814C1437.98 223.279 1439.27 222.422 1439.91 221.245C1441.09 217.07 1442.37 212.896 1443.55 208.614V208.936Z" fill="#03FC9D" stroke="#003B2F" stroke-width="3.21112" stroke-linecap="round" stroke-linejoin="round"/><path d="M462.015 520.949C452.809 512.279 447.029 494.725 447.029 485.198C447.136 487.874 447.672 490.55 448.528 493.119C450.454 499.006 454.201 504.786 459.874 510.245C460.088 510.459 460.302 510.673 460.516 510.78C487.382 536.041 545.397 544.604 590.138 529.94C590.78 529.726 591.423 529.512 592.065 529.298C592.493 529.191 592.921 528.977 593.349 528.87C593.349 528.87 593.456 528.87 593.563 528.87C620.644 519.129 635.736 502.645 636.057 485.519C636.057 483.486 635.95 481.559 635.522 479.525C642.479 500.719 626.424 528.763 591.744 540.215C547.002 554.88 488.988 546.317 462.122 521.056L462.015 520.949Z" fill="#03FC9D"/><path d="M460.515 510.78C460.515 510.78 460.087 510.352 459.873 510.245C454.2 504.786 450.453 499.006 448.527 493.119C447.67 490.443 447.135 487.767 447.028 485.198C447.028 485.091 447.028 484.877 447.028 484.77C446.279 466.36 462.655 448.378 492.84 438.423C537.582 423.759 595.596 432.322 622.462 457.583C629.848 464.54 634.022 471.926 635.414 479.418C635.842 481.452 635.949 483.379 635.949 485.413C635.628 502.538 620.535 519.022 593.455 528.763C593.455 528.763 593.455 528.763 593.241 528.763C592.813 528.87 592.385 529.084 591.956 529.191C591.314 529.405 590.672 529.619 590.03 529.833C545.288 544.497 487.274 535.934 460.408 510.673L460.515 510.78Z" fill="#E6E8EA"/><path d="M461.372 520.734C452.167 512.064 446.387 494.51 446.387 484.984C446.494 487.66 447.029 490.336 447.885 492.905C449.812 498.792 453.558 504.572 459.231 510.03C459.445 510.245 459.659 510.459 459.873 510.566C486.74 535.826 544.754 544.389 589.496 529.725C590.138 529.511 590.78 529.297 591.422 529.083C591.85 528.976 592.278 528.762 592.707 528.655C592.707 528.655 592.814 528.655 592.921 528.655C620.001 518.915 635.093 502.431 635.414 485.305C635.414 483.271 635.307 481.344 634.879 479.311C641.837 500.504 625.781 528.548 591.101 540.001C546.359 554.665 488.345 546.102 461.479 520.841L461.372 520.734Z" stroke="#003B2F" stroke-width="2.67593" stroke-linecap="round" stroke-linejoin="round"/><path d="M459.768 510.566C459.768 510.566 459.34 510.138 459.125 510.031C453.452 504.572 449.706 498.792 447.779 492.905C446.923 490.229 446.388 487.553 446.281 484.984C446.281 484.877 446.281 484.663 446.281 484.556C445.532 466.146 461.908 448.164 492.093 438.209C536.834 423.545 594.849 432.108 621.715 457.369C629.101 464.326 633.275 471.712 634.666 479.204C635.095 481.238 635.202 483.165 635.202 485.198C634.881 502.324 619.788 518.808 592.708 528.548C592.708 528.548 592.708 528.548 592.494 528.548C592.066 528.656 591.638 528.87 591.209 528.977C590.567 529.191 589.925 529.405 589.283 529.619C544.541 544.283 486.527 535.72 459.661 510.459L459.768 510.566Z" stroke="#003B2F" stroke-width="2.67593" stroke-linecap="round" stroke-linejoin="round"/><path d="M545.504 459.403C545.718 459.617 545.825 459.724 545.932 459.938L547.859 463.15L549.572 465.933L551.498 469.251L553.104 472.034L555.031 475.352L556.636 478.135L558.563 481.346L559.954 483.701C559.954 483.701 560.168 483.915 559.954 484.022C559.847 484.022 559.633 484.022 559.526 484.022C547.217 483.701 534.801 483.487 522.491 483.166C522.277 483.166 522.17 483.166 521.956 483.166C522.705 482.416 523.348 481.774 524.097 481.025L542.293 462.614L545.504 459.403Z" fill="#003B2F"/><path d="M521.846 483.165L559.737 484.022H559.951C559.951 484.022 560.165 484.022 560.379 484.022C574.722 484.343 588.958 484.664 603.301 484.985C603.515 484.985 603.622 484.985 603.729 484.985C602.338 485.52 601.053 485.948 599.769 486.483L541.862 507.677C541.862 507.677 541.648 507.677 541.434 507.784C541.434 507.677 541.434 507.57 541.434 507.463L542.825 505.643L545.608 502.111L548.391 498.579C549.354 497.401 550.318 496.117 551.174 494.939L553.85 491.407L556.633 487.768L559.416 484.236C559.416 484.236 559.416 484.022 559.309 484.022H558.988C546.679 483.7 534.476 483.486 522.167 483.165C521.953 483.165 521.739 483.165 521.632 483.165H521.846Z" fill="#003B2F"/><path d="M521.956 483.165C524.953 483.165 528.057 483.272 531.054 483.379C540.581 483.594 550.107 483.808 559.633 484.022C560.061 484.022 560.061 484.022 559.847 484.236L556.636 488.41C555.887 489.374 555.245 490.23 554.495 491.086L551.391 495.047L549.679 497.294L547.11 500.505L545.397 502.753L542.935 505.964L541.544 507.677C541.437 507.677 541.437 507.677 541.33 507.57L531.482 495.154L522.17 483.379C522.17 483.379 521.956 483.165 521.956 483.058V483.165Z" fill="#003B2F"/><path d="M510.823 482.951L514.891 488.088L526.451 502.752L530.09 507.355C530.09 507.355 530.197 507.355 530.09 507.569H529.876C513.606 499.22 497.444 490.871 481.174 482.522C481.174 482.522 480.96 482.522 480.96 482.308C481.067 482.308 481.281 482.308 481.495 482.308C491.128 482.522 500.655 482.736 510.288 482.951C510.502 482.951 510.716 482.951 510.823 483.058V482.951Z" fill="#003B2F"/><path d="M510.82 482.951C510.82 482.951 510.499 482.951 510.392 482.951C500.759 482.737 491.125 482.523 481.492 482.309H481.064C481.706 481.988 482.455 481.667 483.098 481.346C489.199 478.67 495.193 476.101 501.294 473.425L519.49 465.504L533.94 459.189H534.261C534.261 459.189 534.047 459.189 533.94 459.403L520.133 473.425L510.927 482.737C510.927 482.737 510.927 482.737 510.82 482.844V482.951Z" fill="#003B2F"/><path d="M603.73 484.986C603.73 484.986 603.516 484.986 603.409 484.986C589.066 484.665 574.723 484.344 560.38 484.022C560.273 484.022 560.059 484.022 559.952 484.022C559.952 484.022 560.166 484.022 560.273 484.022H560.594C574.723 484.344 588.959 484.665 603.088 484.986C603.302 484.986 603.623 484.986 603.837 484.986H603.73Z" fill="#003B2F"/><path d="M603.836 484.986C589.279 484.665 574.722 484.344 560.058 484.023H559.951C559.308 482.845 558.559 481.668 557.917 480.597C557.168 479.42 556.418 478.136 555.776 476.958L552.03 470.643L549.354 466.254L545.5 459.725C546.357 460.153 547.32 460.474 548.176 460.903L570.547 470.643L599.126 483.166L603.836 485.2C603.836 485.2 603.836 485.2 603.943 485.2L603.836 484.986Z" fill="#003B2F"/><path d="M480.318 492.156C471.113 483.486 465.333 465.932 465.333 456.406C465.44 459.082 465.975 461.758 466.832 464.326C468.758 470.213 472.505 475.993 478.177 481.452C478.392 481.666 478.606 481.881 478.82 481.988C505.686 507.248 563.7 515.811 608.442 501.147C609.084 500.933 609.726 500.719 610.368 500.505C610.797 500.398 611.225 500.184 611.653 500.077C611.653 500.077 611.76 500.077 611.867 500.077C638.947 490.336 654.04 473.853 654.361 456.727C654.361 454.693 654.254 452.766 653.826 450.733C660.783 471.926 644.727 499.97 610.047 511.423C565.306 526.087 507.292 517.524 480.425 492.263L480.318 492.156Z" fill="#03FC9D"/><path d="M478.713 482.095C478.713 482.095 478.285 481.667 478.071 481.56C472.398 476.101 468.651 470.321 466.725 464.434C465.869 461.758 465.333 459.082 465.226 456.513C465.226 456.406 465.226 456.192 465.226 456.085C464.477 437.675 480.854 419.692 511.038 409.738C555.78 395.074 613.794 403.637 640.66 428.898C648.046 435.855 652.22 443.241 653.612 450.733C654.04 452.767 654.147 454.694 654.147 456.727C653.826 473.853 638.734 490.337 611.653 500.077C611.653 500.077 611.653 500.077 611.439 500.077C611.011 500.184 610.583 500.398 610.155 500.505C609.512 500.72 608.87 500.934 608.228 501.148C563.486 515.812 505.472 507.249 478.606 481.988L478.713 482.095Z" fill="#E6E8EA"/><path d="M479.571 492.049C470.365 483.379 464.585 465.825 464.585 456.299C464.692 458.975 465.228 461.651 466.084 464.219C468.011 470.106 471.757 475.887 477.43 481.345C477.644 481.559 477.858 481.774 478.072 481.881C504.938 507.141 562.953 515.704 607.694 501.04C608.336 500.826 608.979 500.612 609.621 500.398C610.049 500.291 610.477 500.077 610.905 499.97C610.905 499.97 611.012 499.97 611.119 499.97C638.2 490.229 653.292 473.746 653.613 456.62C653.613 454.586 653.506 452.659 653.078 450.626C660.035 471.819 643.98 499.863 609.3 511.316C564.558 525.98 506.544 517.417 479.678 492.156L479.571 492.049Z" stroke="#003B2F" stroke-width="2.67593" stroke-linecap="round" stroke-linejoin="round"/><path d="M478.07 481.881C478.07 481.881 477.642 481.453 477.428 481.345C471.755 475.887 468.009 470.107 466.082 464.22C465.226 461.544 464.691 458.868 464.584 456.299C464.584 456.192 464.584 455.978 464.584 455.871C463.834 437.46 480.211 419.478 510.396 409.524C555.137 394.859 613.151 403.422 640.018 428.683C647.403 435.641 651.578 443.026 652.969 450.519C653.397 452.552 653.504 454.479 653.504 456.513C653.183 473.639 638.091 490.123 611.011 499.863C611.011 499.863 611.011 499.863 610.797 499.863C610.368 499.97 609.94 500.184 609.512 500.291C608.87 500.505 608.228 500.719 607.585 500.933C562.844 515.597 504.83 507.034 477.963 481.774L478.07 481.881Z" stroke="#003B2F" stroke-width="2.67593" stroke-linecap="round" stroke-linejoin="round"/><path d="M563.702 430.611C563.917 430.825 564.024 430.932 564.131 431.146L566.057 434.357L567.77 437.14L569.697 440.459L571.302 443.241L573.229 446.56L574.834 449.343L576.761 452.554L578.153 454.909C578.153 454.909 578.367 455.123 578.153 455.23C578.045 455.23 577.831 455.23 577.724 455.23C565.415 454.909 552.999 454.694 540.689 454.373C540.475 454.373 540.368 454.373 540.154 454.373C540.904 453.624 541.546 452.982 542.295 452.233L560.491 433.822L563.702 430.611Z" fill="#003B2F"/><path d="M540.154 454.373L578.046 455.229H578.26C578.26 455.229 578.474 455.229 578.688 455.229C593.031 455.55 607.267 455.872 621.61 456.193C621.824 456.193 621.931 456.193 622.038 456.193C620.647 456.728 619.362 457.156 618.078 457.691L560.17 478.885C560.17 478.885 559.956 478.885 559.742 478.992C559.742 478.885 559.742 478.778 559.742 478.671L561.134 476.851L563.917 473.319L566.7 469.786C567.663 468.609 568.626 467.325 569.483 466.147L572.159 462.615L574.942 458.976L577.725 455.443C577.725 455.443 577.725 455.229 577.618 455.229H577.296C564.987 454.908 552.785 454.694 540.476 454.373C540.262 454.373 540.047 454.373 539.94 454.373H540.154Z" fill="#003B2F"/><path d="M540.154 454.48L549.252 454.694C558.779 454.908 568.305 455.122 577.831 455.336C578.26 455.336 578.26 455.336 578.045 455.55L574.834 459.725C574.085 460.688 573.443 461.545 572.694 462.401L569.59 466.361L567.877 468.609L565.308 471.82L563.595 474.068L561.134 477.279L559.742 478.992C559.635 478.992 559.635 478.992 559.528 478.885L549.681 466.468L540.368 454.694C540.368 454.694 540.154 454.48 540.154 454.373V454.48Z" fill="#003B2F"/><path d="M529.022 454.158L533.089 459.296L544.649 473.96L548.288 478.563C548.288 478.563 548.395 478.563 548.288 478.777H548.074C531.805 470.428 515.642 462.079 499.372 453.73C499.372 453.73 499.158 453.73 499.158 453.516C499.265 453.516 499.479 453.516 499.693 453.516C509.327 453.73 518.853 453.944 528.486 454.158C528.7 454.158 528.915 454.158 529.022 454.265V454.158Z" fill="#003B2F"/><path d="M529.02 454.159C529.02 454.159 528.698 454.159 528.591 454.159C518.958 453.945 509.325 453.731 499.691 453.517H499.263C499.905 453.196 500.655 452.875 501.297 452.553C507.398 449.878 513.392 447.309 519.493 444.633L537.69 436.712L552.14 430.397H552.461C552.461 430.397 552.247 430.397 552.14 430.611L538.332 444.633L529.127 453.945C529.127 453.945 529.127 453.945 529.02 454.052V454.159Z" fill="#003B2F"/><path d="M622.038 456.301C622.038 456.301 621.824 456.301 621.717 456.301C607.374 455.98 593.031 455.659 578.688 455.337C578.581 455.337 578.367 455.337 578.26 455.337C578.26 455.337 578.474 455.337 578.581 455.337H578.902C593.031 455.659 607.267 455.98 621.396 456.301C621.61 456.301 621.931 456.301 622.146 456.301H622.038Z" fill="#003B2F"/><path d="M622.144 456.301C607.587 455.979 593.03 455.658 578.366 455.337H578.259C577.617 454.16 576.868 452.982 576.225 451.912C575.476 450.735 574.727 449.45 574.085 448.273L570.338 441.958L567.662 437.569L563.809 431.04C564.665 431.468 565.629 431.789 566.485 432.217L588.856 441.958L617.435 454.481L622.144 456.515C622.144 456.515 622.144 456.515 622.251 456.515L622.144 456.301Z" fill="#003B2F"/><path d="M451.097 459.188C441.892 450.518 436.112 432.964 436.112 423.438C436.219 426.114 436.754 428.789 437.61 431.358C439.537 437.245 443.283 443.025 448.956 448.484C449.17 448.698 449.384 448.912 449.599 449.02C476.465 474.28 534.479 482.843 579.221 468.179C579.863 467.965 580.505 467.751 581.147 467.537C581.575 467.43 582.004 467.216 582.432 467.109C582.432 467.109 582.539 467.109 582.646 467.109C609.726 457.368 624.818 440.885 625.14 423.759C625.14 421.725 625.033 419.798 624.604 417.765C631.562 438.958 615.506 467.002 580.826 478.455C536.085 493.119 478.07 484.556 451.204 459.295L451.097 459.188Z" fill="#03FC9D"/><path d="M449.493 449.02C449.493 449.02 449.065 448.591 448.851 448.484C443.178 443.026 439.431 437.246 437.505 431.358C436.648 428.683 436.113 426.007 436.006 423.438C436.006 423.331 436.006 423.117 436.006 423.01C435.257 404.599 451.634 386.617 481.818 376.662C526.56 361.998 584.574 370.561 611.44 395.822C618.826 402.78 623 410.165 624.392 417.658C624.82 419.691 624.927 421.618 624.927 423.652C624.606 440.778 609.513 457.261 582.433 467.002C582.433 467.002 582.433 467.002 582.219 467.002C581.791 467.109 581.363 467.323 580.934 467.43C580.292 467.644 579.65 467.858 579.008 468.072C534.266 482.736 476.252 474.173 449.386 448.913L449.493 449.02Z" fill="#E6E8EA"/><path d="M450.349 458.974C441.144 450.304 435.364 432.75 435.364 423.223C435.471 425.899 436.006 428.575 436.863 431.144C438.789 437.031 442.536 442.811 448.209 448.27C448.423 448.484 448.637 448.698 448.851 448.805C475.717 474.066 533.731 482.629 578.473 467.965C579.115 467.751 579.757 467.537 580.4 467.323C580.828 467.216 581.256 467.001 581.684 466.894C581.684 466.894 581.791 466.894 581.898 466.894C608.979 457.154 624.071 440.67 624.392 423.544C624.392 421.511 624.285 419.584 623.857 417.55C630.814 438.744 614.759 466.787 580.079 478.24C535.337 492.905 477.323 484.342 450.457 459.081L450.349 458.974Z" stroke="#003B2F" stroke-width="2.67593" stroke-linecap="round" stroke-linejoin="round"/><path d="M448.849 448.912C448.849 448.912 448.421 448.484 448.207 448.377C442.534 442.918 438.788 437.138 436.861 431.251C436.005 428.575 435.47 425.899 435.363 423.331C435.363 423.223 435.363 423.009 435.363 422.902C434.613 404.492 450.99 386.51 481.174 376.555C525.916 361.891 583.93 370.454 610.797 395.715C618.182 402.672 622.357 410.058 623.748 417.551C624.176 419.584 624.283 421.511 624.283 423.545C623.962 440.671 608.87 457.154 581.789 466.895C581.789 466.895 581.789 466.895 581.575 466.895C581.147 467.002 580.719 467.216 580.291 467.323C579.649 467.537 579.006 467.751 578.364 467.965C533.623 482.629 475.609 474.066 448.742 448.805L448.849 448.912Z" stroke="#003B2F" stroke-width="2.67593" stroke-linecap="round" stroke-linejoin="round"/><path d="M534.482 397.643C534.696 397.857 534.803 397.964 534.91 398.178L536.837 401.389L538.549 404.172L540.476 407.49L542.081 410.273L544.008 413.591L545.614 416.374L547.54 419.585L548.932 421.94C548.932 421.94 549.146 422.154 548.932 422.261C548.825 422.261 548.611 422.261 548.504 422.261C536.194 421.94 523.778 421.726 511.469 421.405C511.255 421.405 511.148 421.405 510.934 421.405C511.683 420.656 512.325 420.014 513.074 419.264L531.271 400.854L534.482 397.643Z" fill="#003B2F"/><path d="M510.933 421.405L548.824 422.261H549.038C549.038 422.261 549.252 422.261 549.466 422.261C563.809 422.582 578.045 422.903 592.388 423.224C592.602 423.224 592.709 423.224 592.816 423.224C591.425 423.76 590.14 424.188 588.856 424.723L530.949 445.916C530.949 445.916 530.735 445.916 530.521 446.023C530.521 445.916 530.521 445.809 530.521 445.702L531.912 443.883L534.695 440.35L537.478 436.818C538.441 435.641 539.405 434.356 540.261 433.179L542.937 429.647L545.72 426.007L548.503 422.475C548.503 422.475 548.503 422.261 548.396 422.261H548.075C535.765 421.94 523.563 421.726 511.254 421.405C511.04 421.405 510.826 421.405 510.719 421.405H510.933Z" fill="#003B2F"/><path d="M510.934 421.405L520.032 421.619C529.558 421.833 539.084 422.047 548.611 422.261C549.039 422.261 549.039 422.261 548.825 422.475L545.614 426.65C544.864 427.613 544.222 428.469 543.473 429.326L540.369 433.286L538.656 435.534L536.087 438.745L534.375 440.993L531.913 444.204L530.521 445.916C530.414 445.916 530.414 445.916 530.307 445.809L520.46 433.393L511.148 421.619C511.148 421.619 510.934 421.405 510.934 421.298V421.405Z" fill="#003B2F"/><path d="M499.801 421.19L503.868 426.328L515.428 440.992L519.068 445.594C519.068 445.594 519.175 445.594 519.068 445.808H518.854C502.584 437.459 486.421 429.111 470.152 420.762C470.152 420.762 469.938 420.762 469.938 420.548C470.045 420.548 470.259 420.548 470.473 420.548C480.106 420.762 489.632 420.976 499.266 421.19C499.48 421.19 499.694 421.19 499.801 421.297V421.19Z" fill="#003B2F"/><path d="M499.798 421.191C499.798 421.191 499.477 421.191 499.37 421.191C489.736 420.977 480.103 420.763 470.47 420.549H470.042C470.684 420.227 471.433 419.906 472.075 419.585C478.176 416.909 484.17 414.34 490.272 411.664L508.468 403.744L522.918 397.428H523.239C523.239 397.428 523.025 397.428 522.918 397.643L509.11 411.664L499.905 420.977C499.905 420.977 499.905 420.977 499.798 421.084V421.191Z" fill="#003B2F"/><path d="M592.818 423.332C592.818 423.332 592.604 423.332 592.497 423.332C578.154 423.011 563.811 422.69 549.468 422.369C549.361 422.369 549.147 422.369 549.04 422.369C549.04 422.369 549.254 422.369 549.361 422.369H549.682C563.811 422.69 578.047 423.011 592.176 423.332C592.39 423.332 592.711 423.332 592.925 423.332H592.818Z" fill="#003B2F"/><path d="M592.923 423.225C578.366 422.904 563.809 422.583 549.145 422.262H549.038C548.396 421.084 547.646 419.907 547.004 418.837C546.255 417.659 545.506 416.375 544.863 415.197L541.117 408.882L538.441 404.494L534.588 397.964C535.444 398.393 536.408 398.714 537.264 399.142L559.635 408.882L588.214 421.405L592.923 423.439C592.923 423.439 592.923 423.439 593.03 423.439L592.923 423.225Z" fill="#003B2F"/><path d="M484.065 442.706C474.86 434.036 469.08 416.482 469.08 406.956C469.187 409.632 469.722 412.308 470.579 414.877C472.505 420.764 476.252 426.544 481.925 432.003C482.139 432.217 482.353 432.431 482.567 432.538C509.433 457.799 567.447 466.362 612.189 451.697C612.831 451.483 613.473 451.269 614.116 451.055C614.544 450.948 614.972 450.734 615.4 450.627C615.4 450.627 615.507 450.627 615.614 450.627C642.694 440.887 657.787 424.403 658.108 407.277C658.108 405.243 658.001 403.317 657.573 401.283C664.53 422.476 648.475 450.52 613.794 461.973C569.053 476.637 511.039 468.074 484.172 442.813L484.065 442.706Z" fill="#03FC9D"/><path d="M482.461 432.538C482.461 432.538 482.032 432.11 481.818 432.003C476.145 426.544 472.399 420.764 470.472 414.877C469.616 412.201 469.081 409.525 468.974 406.956C468.974 406.849 468.974 406.635 468.974 406.528C468.225 388.118 484.601 370.135 514.786 360.181C559.527 345.517 617.542 354.08 644.408 379.341C651.793 386.298 655.968 393.684 657.359 401.176C657.788 403.21 657.895 405.137 657.895 407.17C657.573 424.296 642.481 440.78 615.401 450.52C615.401 450.52 615.401 450.52 615.187 450.52C614.759 450.627 614.33 450.842 613.902 450.949C613.26 451.163 612.618 451.377 611.976 451.591C567.234 466.255 509.22 457.692 482.353 432.431L482.461 432.538Z" fill="#E6E8EA"/><path d="M483.318 442.492C474.113 433.822 468.333 416.268 468.333 406.742C468.44 409.418 468.975 412.093 469.831 414.662C471.758 420.549 475.504 426.329 481.177 431.788C481.391 432.002 481.605 432.216 481.819 432.323C508.686 457.584 566.7 466.147 611.441 451.483C612.084 451.269 612.726 451.055 613.368 450.841C613.796 450.734 614.224 450.52 614.652 450.413C614.652 450.413 614.759 450.413 614.867 450.413C641.947 440.672 657.039 424.189 657.36 407.063C657.36 405.029 657.253 403.102 656.825 401.069C663.783 422.262 647.727 450.306 613.047 461.759C568.305 476.423 510.291 467.86 483.425 442.599L483.318 442.492Z" stroke="#003B2F" stroke-width="2.67593" stroke-linecap="round" stroke-linejoin="round"/><path d="M481.817 432.324C481.817 432.324 481.389 431.896 481.175 431.789C475.502 426.33 471.756 420.55 469.829 414.663C468.973 411.987 468.438 409.311 468.331 406.742C468.331 406.635 468.331 406.421 468.331 406.314C467.582 387.903 483.958 369.921 514.143 359.967C558.884 345.303 616.898 353.866 643.765 379.126C651.15 386.084 655.325 393.469 656.716 400.962C657.144 402.996 657.251 404.922 657.251 406.956C656.93 424.082 641.838 440.566 614.758 450.306C614.758 450.306 614.758 450.306 614.544 450.306C614.115 450.413 613.687 450.627 613.259 450.734C612.617 450.948 611.975 451.162 611.333 451.376C566.591 466.041 508.577 457.478 481.71 432.217L481.817 432.324Z" stroke="#003B2F" stroke-width="2.67593" stroke-linecap="round" stroke-linejoin="round"/><path d="M567.45 381.161C567.664 381.375 567.771 381.482 567.878 381.696L569.804 384.907L571.517 387.69L573.444 391.009L575.049 393.792L576.976 397.11L578.581 399.893L580.508 403.104L581.9 405.459C581.9 405.459 582.114 405.673 581.9 405.78C581.793 405.78 581.578 405.78 581.471 405.78C569.162 405.459 556.746 405.245 544.437 404.923C544.222 404.923 544.115 404.923 543.901 404.923C544.651 404.174 545.293 403.532 546.042 402.783L564.238 384.372L567.45 381.161Z" fill="#003B2F"/><path d="M543.902 404.923L581.793 405.779H582.007C582.007 405.779 582.221 405.779 582.435 405.779C596.778 406.101 611.014 406.422 625.357 406.743C625.571 406.743 625.678 406.743 625.785 406.743C624.394 407.278 623.109 407.706 621.825 408.241L563.918 429.435C563.918 429.435 563.703 429.435 563.489 429.542C563.489 429.435 563.489 429.328 563.489 429.221L564.881 427.401L567.664 423.869L570.447 420.336C571.41 419.159 572.373 417.875 573.23 416.697L575.906 413.165L578.689 409.526L581.472 405.993C581.472 405.993 581.472 405.779 581.365 405.779H581.044C568.734 405.458 556.532 405.244 544.223 404.923C544.009 404.923 543.795 404.923 543.688 404.923H543.902Z" fill="#003B2F"/><path d="M543.901 404.923L553 405.137C562.526 405.351 572.052 405.565 581.578 405.779C582.007 405.779 582.007 405.78 581.793 405.994L578.581 410.168C577.832 411.131 577.19 411.988 576.441 412.844L573.337 416.804L571.624 419.052L569.055 422.263L567.343 424.511L564.881 427.722L563.489 429.435C563.382 429.435 563.382 429.435 563.275 429.328L553.428 416.911L544.115 405.137C544.115 405.137 543.901 404.923 543.901 404.816V404.923Z" fill="#003B2F"/><path d="M532.769 404.708L536.836 409.846L548.396 424.51L552.035 429.113C552.035 429.113 552.142 429.113 552.035 429.327H551.821C535.552 420.978 519.389 412.629 503.119 404.28C503.119 404.28 502.905 404.28 502.905 404.066C503.012 404.066 503.226 404.066 503.44 404.066C513.074 404.28 522.6 404.494 532.233 404.708C532.448 404.708 532.662 404.708 532.769 404.815V404.708Z" fill="#003B2F"/><path d="M532.766 404.709C532.766 404.709 532.445 404.709 532.338 404.709C522.705 404.495 513.071 404.281 503.438 404.067H503.01C503.652 403.746 504.401 403.425 505.043 403.104C511.145 400.428 517.139 397.859 523.24 395.183L541.436 387.262L555.886 380.947H556.207C556.207 380.947 555.993 380.947 555.886 381.161L542.078 395.183L532.873 404.495C532.873 404.495 532.873 404.495 532.766 404.602V404.709Z" fill="#003B2F"/><path d="M625.784 406.851C625.784 406.851 625.57 406.851 625.463 406.851C611.12 406.53 596.777 406.209 582.434 405.888C582.327 405.888 582.113 405.888 582.006 405.888C582.006 405.888 582.22 405.888 582.327 405.888H582.648C596.777 406.209 611.013 406.53 625.142 406.851C625.356 406.851 625.677 406.851 625.891 406.851H625.784Z" fill="#003B2F"/><path d="M625.892 406.744C611.335 406.423 596.778 406.101 582.114 405.78H582.007C581.364 404.603 580.615 403.426 579.973 402.355C579.224 401.178 578.474 399.893 577.832 398.716L574.086 392.401L571.41 388.012L567.557 381.483C568.413 381.911 569.376 382.232 570.233 382.66L592.603 392.401L621.182 404.924L625.892 406.958C625.892 406.958 625.892 406.958 625.999 406.958L625.892 406.744Z" fill="#003B2F"/><path d="M454.844 409.631C445.639 400.961 439.859 383.407 439.859 373.881C439.966 376.557 440.501 379.233 441.357 381.801C443.284 387.689 447.03 393.469 452.703 398.927C452.917 399.142 453.132 399.356 453.346 399.463C480.212 424.723 538.226 433.286 582.968 418.622C583.61 418.408 584.252 418.194 584.894 417.98C585.322 417.873 585.751 417.659 586.179 417.552C586.179 417.552 586.286 417.552 586.393 417.552C613.473 407.812 628.566 391.328 628.887 374.202C628.887 372.168 628.78 370.241 628.351 368.208C635.309 389.401 619.253 417.445 584.573 428.898C539.832 443.562 481.817 434.999 454.951 409.738L454.844 409.631Z" fill="#03FC9D"/><path d="M453.24 399.57C453.24 399.57 452.812 399.141 452.598 399.034C446.925 393.576 443.178 387.796 441.252 381.909C440.395 379.233 439.86 376.557 439.753 373.988C439.753 373.881 439.753 373.667 439.753 373.56C439.004 355.149 455.381 337.167 485.565 327.212C530.307 312.548 588.321 321.111 615.187 346.372C622.573 353.33 626.747 360.715 628.139 368.208C628.567 370.241 628.674 372.168 628.674 374.202C628.353 391.328 613.26 407.812 586.18 417.552C586.18 417.552 586.18 417.552 585.966 417.552C585.538 417.659 585.11 417.873 584.682 417.98C584.039 418.194 583.397 418.408 582.755 418.622C538.013 433.286 479.999 424.723 453.133 399.463L453.24 399.57Z" fill="#E6E8EA"/><path d="M454.097 409.524C444.891 400.854 439.111 383.3 439.111 373.774C439.218 376.449 439.754 379.125 440.61 381.694C442.537 387.581 446.283 393.361 451.956 398.82C452.17 399.034 452.384 399.248 452.598 399.355C479.464 424.616 537.479 433.179 582.22 418.515C582.862 418.301 583.505 418.087 584.147 417.873C584.575 417.766 585.003 417.552 585.431 417.445C585.431 417.445 585.538 417.445 585.645 417.445C612.726 407.704 627.818 391.221 628.139 374.095C628.139 372.061 628.032 370.134 627.604 368.101C634.561 389.294 618.506 417.338 583.826 428.791C539.084 443.455 481.07 434.892 454.204 409.631L454.097 409.524Z" stroke="#003B2F" stroke-width="2.67593" stroke-linecap="round" stroke-linejoin="round"/><path d="M452.597 399.356C452.597 399.356 452.169 398.927 451.955 398.82C446.282 393.361 442.535 387.581 440.609 381.694C439.752 379.018 439.217 376.343 439.11 373.774C439.11 373.667 439.11 373.453 439.11 373.345C438.361 354.935 454.738 336.953 484.922 326.998C529.664 312.334 587.678 320.897 614.544 346.158C621.93 353.115 626.104 360.501 627.496 367.994C627.924 370.027 628.031 371.954 628.031 373.988C627.71 391.114 612.617 407.597 585.537 417.338C585.537 417.338 585.537 417.338 585.323 417.338C584.895 417.445 584.467 417.659 584.038 417.766C583.396 417.98 582.754 418.194 582.112 418.408C537.37 433.072 479.356 424.509 452.49 399.249L452.597 399.356Z" stroke="#003B2F" stroke-width="2.67593" stroke-linecap="round" stroke-linejoin="round"/><path d="M587.14 379.019C589.067 379.019 589.709 379.875 589.816 381.052C582.858 396.573 561.772 407.598 536.297 407.812C510.822 408.026 488.666 397.322 480.424 382.016C479.674 380.731 480.959 379.875 482.886 379.875H487.381C488.773 379.875 489.95 380.303 490.592 381.052C498.192 393.147 515.746 401.282 536.083 401.175C556.42 400.961 573.867 392.077 579.754 380.303C580.396 379.447 581.574 379.019 582.858 379.019H587.354H587.14Z" fill="#003B2F"/><path d="M570.656 366.601C571.941 366.601 573.225 367.457 573.332 368.206V371.524C573.546 372.381 572.262 373.237 570.977 373.237H563.378C562.414 379.98 556.849 383.406 548.607 384.69C547.322 384.69 546.038 384.262 546.038 383.513L545.824 379.766C545.824 378.91 546.359 378.482 547.643 378.054C552.032 377.197 555.778 375.485 555.564 370.026C555.35 365.852 552.032 362.962 547.001 362.962C541.863 362.962 540.044 364.674 539.08 370.561C537.582 379.338 533.943 383.513 523.132 383.62C514.89 383.62 508.254 379.552 506.755 373.772H499.155C497.871 373.772 496.587 373.023 496.48 372.167V368.849C496.265 367.992 497.55 367.136 498.834 367.136H506.434C507.504 361.998 511.786 358.68 518.743 357.824C520.028 357.824 521.312 358.252 521.312 359.001V362.319C521.526 363.176 520.884 363.604 519.6 364.032C515.211 364.888 513.391 367.029 513.498 370.775C513.713 374.95 516.924 376.983 521.419 376.983C525.915 376.983 528.377 375.699 529.34 369.384C530.839 360.607 534.478 356.432 545.289 356.325C553.53 356.325 560.702 360.393 562.95 366.601H570.549H570.656Z" fill="#003B2F"/><path d="M588.747 358.467C589.389 359.751 588.212 360.608 586.285 360.608H581.789C580.505 360.608 579.22 360.286 578.578 359.43C570.979 347.335 553.424 339.2 533.087 339.307C512.75 339.521 495.303 348.405 489.416 360.179C488.881 360.929 487.597 361.464 486.312 361.464H481.817C479.89 361.464 479.248 360.715 479.141 359.43C486.098 344.338 507.184 332.885 532.659 332.671C558.134 332.457 580.291 343.161 588.533 358.467H588.747Z" fill="#003B2F"/><path d="M599.662 545.354C592.919 539.039 588.744 526.194 588.744 519.237C588.744 521.163 589.279 523.09 589.815 525.017C591.206 529.298 593.989 533.58 598.056 537.54C598.163 537.647 598.377 537.861 598.485 537.968C618.072 556.379 660.459 562.694 693.105 551.99C693.534 551.883 694.069 551.669 694.497 551.455C694.818 551.455 695.139 551.241 695.46 551.134C695.46 551.134 695.46 551.134 695.567 551.134C715.369 543.962 726.394 531.974 726.608 519.451C726.608 517.952 726.608 516.561 726.287 515.062C731.318 530.476 719.651 551.027 694.283 559.376C661.637 570.079 619.25 563.871 599.662 545.354Z" fill="#03FC9D"/><path d="M598.486 537.968C598.486 537.968 598.165 537.647 598.058 537.54C593.883 533.579 591.208 529.298 589.816 525.016C589.174 523.09 588.853 521.163 588.746 519.236C588.746 519.236 588.746 519.022 588.746 518.915C588.211 505.429 600.199 492.37 622.248 485.092C654.895 474.388 697.281 480.596 716.869 499.113C722.221 504.144 725.325 509.603 726.289 515.062C726.61 516.56 726.717 517.952 726.61 519.451C726.396 531.974 715.371 543.962 695.569 551.134C695.569 551.134 695.569 551.134 695.462 551.134C695.141 551.134 694.82 551.348 694.498 551.455C694.07 551.669 693.535 551.776 693.107 551.99C660.461 562.694 618.074 556.485 598.486 537.968Z" fill="#E6E8EA"/><path d="M599.129 545.247C592.385 538.932 588.211 526.087 588.211 519.13C588.211 521.056 588.746 522.983 589.281 524.91C590.673 529.191 593.456 533.473 597.523 537.433C597.63 537.54 597.844 537.754 597.951 537.861C617.539 556.272 659.926 562.587 692.572 551.883C693 551.776 693.536 551.562 693.964 551.348C694.285 551.348 694.606 551.134 694.927 551.027C694.927 551.027 694.927 551.027 695.034 551.027C714.836 543.855 725.861 531.867 726.075 519.344C726.075 517.845 726.075 516.454 725.754 514.955C730.785 530.369 719.117 550.92 693.75 559.269C661.103 569.972 618.717 563.764 599.129 545.247Z" stroke="#003B2F" stroke-width="2.67593" stroke-linecap="round" stroke-linejoin="round"/><path d="M597.953 537.861C597.953 537.861 597.632 537.54 597.525 537.433C593.35 533.473 590.674 529.191 589.283 524.91C588.641 522.983 588.32 521.056 588.212 519.13C588.212 519.13 588.212 518.915 588.212 518.808C587.677 505.322 599.665 492.263 621.715 484.985C654.361 474.281 696.748 480.489 716.336 499.007C721.688 504.037 724.792 509.496 725.755 514.955C726.076 516.454 726.183 517.845 726.076 519.344C725.862 531.867 714.838 543.855 695.036 551.027C695.036 551.027 695.036 551.027 694.929 551.027C694.607 551.027 694.286 551.241 693.965 551.348C693.537 551.562 693.002 551.669 692.574 551.883C659.927 562.587 617.541 556.378 597.953 537.861Z" stroke="#003B2F" stroke-width="2.67593" stroke-linecap="round" stroke-linejoin="round"/><path d="M660.57 500.397C660.677 500.504 660.784 500.611 660.891 500.825L662.283 503.18L663.46 505.214L664.852 507.569L666.029 509.602L667.42 511.957L668.598 513.991L669.989 516.346L671.06 518.058C671.06 518.058 671.167 518.165 671.06 518.272C671.06 518.272 670.846 518.272 670.739 518.272C661.747 518.058 652.649 517.844 643.658 517.63C643.551 517.63 643.337 517.63 643.23 517.63C643.765 517.095 644.3 516.56 644.728 516.025L658.001 502.645L660.356 500.29L660.57 500.397Z" fill="#003B2F"/><path d="M643.334 517.736L670.95 518.378H671.164C671.164 518.378 671.378 518.378 671.485 518.378C681.975 518.592 692.358 518.806 702.847 519.127C702.954 519.127 703.061 519.127 703.168 519.127C702.205 519.448 701.242 519.876 700.278 520.197L657.999 535.718C657.999 535.718 657.785 535.718 657.677 535.718C657.677 535.718 657.677 535.611 657.677 535.504L658.748 534.219L660.782 531.65L662.815 529.082C663.457 528.225 664.207 527.369 664.849 526.406L666.883 523.837L668.916 521.161L670.95 518.592V518.378H670.736C661.745 518.164 652.861 517.95 643.87 517.736C643.763 517.736 643.549 517.736 643.442 517.736H643.334Z" fill="#003B2F"/><path d="M643.334 517.843H649.971C656.928 518.164 663.886 518.271 670.843 518.485C671.164 518.485 671.164 518.485 670.95 518.699L668.595 521.696C668.06 522.338 667.525 522.98 666.99 523.73L664.742 526.62L663.457 528.225L661.638 530.58L660.353 532.186L658.534 534.54L657.57 535.825C657.463 535.825 657.463 535.825 657.463 535.718L650.292 526.62L643.442 517.95C643.442 517.95 643.334 517.843 643.334 517.736V517.843Z" fill="#003B2F"/><path d="M635.202 517.631L638.199 521.377L646.655 532.081L649.331 535.506C649.331 535.506 649.331 535.506 649.331 535.613C649.331 535.613 649.224 535.613 649.117 535.613C637.236 529.512 625.354 523.411 613.58 517.31C613.58 517.31 613.366 517.31 613.366 517.203C613.473 517.203 613.58 517.203 613.687 517.203L634.667 517.631H634.988H635.202Z" fill="#003B2F"/><path d="M635.202 517.63C635.202 517.63 634.988 517.63 634.881 517.63C627.816 517.523 620.752 517.309 613.687 517.202H613.366C613.366 517.202 614.33 516.774 614.865 516.56C619.253 514.633 623.749 512.706 628.137 510.78L641.41 505L652.007 500.397H652.221C652.221 500.397 652.114 500.397 652.007 500.504L641.838 510.78L635.095 517.63C635.095 517.63 635.095 517.63 635.095 517.737L635.202 517.63Z" fill="#003B2F"/><path d="M703.172 519.128H702.958C692.468 518.914 681.979 518.7 671.596 518.379C671.596 518.379 671.382 518.379 671.275 518.379C671.275 518.379 671.382 518.379 671.489 518.379H671.703C682.086 518.593 692.361 518.807 702.744 519.128C702.958 519.128 703.065 519.128 703.279 519.128H703.172Z" fill="#003B2F"/><path d="M703.279 519.129C692.575 518.915 681.978 518.7 671.275 518.379C670.739 517.523 670.311 516.667 669.776 515.81C669.241 514.954 668.706 513.991 668.17 513.135L665.387 508.532L663.461 505.321L660.571 500.504C661.213 500.825 661.855 501.039 662.497 501.36L678.874 508.532L699.746 517.63L703.172 519.129C703.172 519.129 703.172 519.129 703.279 519.129Z" fill="#003B2F"/><path d="M610.58 532.081C603.837 525.766 599.663 512.922 599.663 505.964C599.663 507.891 600.198 509.818 600.733 511.744C602.124 516.026 604.907 520.307 608.975 524.268C609.082 524.375 609.296 524.589 609.403 524.696C628.991 543.106 671.378 549.421 704.024 538.718C704.452 538.611 704.987 538.397 705.415 538.182C705.736 538.182 706.058 537.968 706.379 537.861C706.379 537.861 706.379 537.861 706.486 537.861C726.288 530.69 737.312 518.702 737.527 506.178C737.527 504.68 737.527 503.288 737.205 501.79C742.236 517.203 730.569 537.754 705.201 546.103C672.555 556.807 630.168 550.599 610.58 532.081Z" fill="#03FC9D"/><path d="M609.404 524.695C609.404 524.695 609.083 524.374 608.976 524.267C604.801 520.307 602.126 516.025 600.734 511.744C600.092 509.817 599.771 507.891 599.664 505.964C599.664 505.964 599.664 505.75 599.664 505.643C599.128 492.156 611.117 479.098 633.166 471.819C665.813 461.115 708.199 467.324 727.787 485.841C733.139 490.872 736.243 496.331 737.207 501.79C737.528 503.288 737.635 504.68 737.528 506.178C737.314 518.701 726.289 530.69 706.487 537.861C706.487 537.861 706.487 537.861 706.38 537.861C706.059 537.861 705.738 538.075 705.416 538.182C704.988 538.396 704.453 538.503 704.025 538.717C671.379 549.421 628.992 543.213 609.404 524.695Z" fill="#E6E8EA"/><path d="M610.047 531.974C603.304 525.659 599.129 512.815 599.129 505.857C599.129 507.784 599.665 509.71 600.2 511.637C601.591 515.919 604.374 520.2 608.442 524.16C608.549 524.267 608.763 524.482 608.87 524.589C628.458 542.999 670.844 549.314 703.491 538.61C703.919 538.503 704.454 538.289 704.882 538.075C705.203 538.075 705.524 537.861 705.846 537.754C705.846 537.754 705.846 537.754 705.953 537.754C725.754 530.583 736.779 518.594 736.993 506.071C736.993 504.573 736.993 503.181 736.672 501.683C741.703 517.096 730.036 537.647 704.668 545.996C672.022 556.7 629.635 550.492 610.047 531.974Z" stroke="#003B2F" stroke-width="2.67593" stroke-linecap="round" stroke-linejoin="round"/><path d="M608.976 524.588C608.976 524.588 608.655 524.267 608.548 524.16C604.373 520.2 601.697 515.918 600.306 511.637C599.664 509.71 599.342 507.783 599.235 505.857C599.235 505.857 599.235 505.643 599.235 505.536C598.7 492.049 610.688 478.99 632.738 471.712C665.384 461.008 707.771 467.216 727.359 485.734C732.711 490.765 735.815 496.223 736.778 501.682C737.099 503.181 737.206 504.572 737.099 506.071C736.885 518.594 725.86 530.582 706.059 537.754C706.059 537.754 706.059 537.754 705.952 537.754C705.63 537.754 705.309 537.968 704.988 538.075C704.56 538.289 704.025 538.396 703.597 538.61C670.95 549.314 628.564 543.106 608.976 524.588Z" stroke="#003B2F" stroke-width="2.67593" stroke-linecap="round" stroke-linejoin="round"/><path d="M671.483 487.232C671.59 487.339 671.697 487.446 671.804 487.66L673.195 490.015L674.373 492.048L675.764 494.403L676.941 496.437L678.333 498.792L679.51 500.825L680.902 503.18L681.972 504.893C681.972 504.893 682.079 505 681.972 505.107C681.972 505.107 681.758 505.107 681.651 505.107C672.66 504.893 663.562 504.679 654.571 504.465C654.464 504.465 654.25 504.465 654.143 504.465C654.678 503.929 655.213 503.394 655.641 502.859L668.914 489.479L671.269 487.125L671.483 487.232Z" fill="#003B2F"/><path d="M654.252 504.57L681.868 505.213H682.082C682.082 505.213 682.296 505.213 682.403 505.213C692.892 505.427 703.275 505.641 713.765 505.962C713.872 505.962 713.979 505.962 714.086 505.962C713.122 506.283 712.159 506.711 711.196 507.032L668.916 522.553C668.916 522.553 668.702 522.553 668.595 522.553C668.595 522.553 668.595 522.446 668.595 522.339L669.665 521.054L671.699 518.485L673.733 515.916C674.375 515.06 675.124 514.204 675.766 513.24L677.8 510.671L679.834 507.996L681.868 505.427V505.213H681.653C672.662 504.998 663.778 504.784 654.787 504.57C654.68 504.57 654.466 504.57 654.359 504.57H654.252Z" fill="#003B2F"/><path d="M654.357 504.573C656.605 504.573 658.745 504.573 660.993 504.68C667.951 504.787 674.908 505.001 681.866 505.108C682.187 505.108 682.187 505.108 681.973 505.322L679.618 508.319C679.083 508.961 678.547 509.603 678.012 510.353L675.764 513.243L674.48 514.848L672.66 517.203L671.376 518.809L669.556 521.164L668.593 522.448C668.486 522.448 668.486 522.448 668.486 522.341L661.314 513.243L654.464 504.573C654.464 504.573 654.357 504.466 654.357 504.359V504.573Z" fill="#003B2F"/><path d="M646.224 504.358L649.221 508.104L657.677 518.808L660.353 522.233C660.353 522.233 660.353 522.233 660.353 522.34C660.353 522.34 660.246 522.34 660.139 522.34C648.257 516.239 636.376 510.138 624.602 504.037C624.602 504.037 624.388 504.037 624.388 503.93C624.495 503.93 624.602 503.93 624.709 503.93C631.667 504.037 638.731 504.251 645.689 504.358C645.796 504.358 646.01 504.358 646.01 504.358H646.224Z" fill="#003B2F"/><path d="M646.224 504.357C646.224 504.357 646.01 504.357 645.903 504.357C638.838 504.25 631.774 504.036 624.709 503.929H624.388C624.388 503.929 625.352 503.501 625.887 503.287C630.275 501.36 634.771 499.434 639.159 497.507L652.432 491.727L663.029 487.125H663.243C663.243 487.125 663.136 487.124 663.029 487.232L652.86 497.507L646.117 504.357C646.117 504.357 646.117 504.357 646.117 504.465L646.224 504.357Z" fill="#003B2F"/><path d="M714.085 505.962H713.871C703.381 505.748 692.892 505.534 682.509 505.213C682.509 505.213 682.295 505.213 682.188 505.213C682.188 505.213 682.295 505.213 682.402 505.213H682.616C692.999 505.427 703.274 505.641 713.657 505.962C713.871 505.962 713.978 505.962 714.192 505.962H714.085Z" fill="#003B2F"/><path d="M714.192 505.856C703.488 505.642 692.891 505.428 682.188 505.107C681.652 504.251 681.224 503.394 680.689 502.538C680.154 501.682 679.619 500.718 679.084 499.862L676.301 495.259L674.374 492.048L671.484 487.232C672.126 487.553 672.768 487.767 673.411 488.088L689.787 495.259L710.66 504.358L714.085 505.856C714.085 505.856 714.085 505.856 714.192 505.856Z" fill="#003B2F"/><path d="M595.382 517.74C588.638 511.425 584.464 498.58 584.464 491.623C584.464 493.55 584.999 495.476 585.534 497.403C586.926 501.684 589.709 505.966 593.776 509.926C593.883 510.033 594.097 510.247 594.204 510.354C613.792 528.765 656.179 535.08 688.825 524.376C689.253 524.269 689.788 524.055 690.217 523.841C690.538 523.841 690.859 523.627 691.18 523.52C691.18 523.52 691.18 523.52 691.287 523.52C711.089 516.349 722.114 504.36 722.328 491.837C722.328 490.338 722.328 488.947 722.007 487.448C727.037 502.862 715.37 523.413 690.003 531.762C657.356 542.466 614.969 536.257 595.382 517.74Z" fill="#03FC9D"/><path d="M594.206 510.354C594.206 510.354 593.885 510.033 593.778 509.926C589.603 505.966 586.927 501.684 585.536 497.403C584.894 495.476 584.572 493.549 584.465 491.623C584.465 491.623 584.465 491.409 584.465 491.302C583.93 477.815 595.918 464.756 617.968 457.478C650.614 446.774 693.001 452.982 712.589 471.5C717.941 476.53 721.045 481.989 722.008 487.448C722.329 488.947 722.436 490.338 722.329 491.837C722.115 504.36 711.09 516.348 691.289 523.52C691.289 523.52 691.289 523.52 691.182 523.52C690.86 523.52 690.539 523.734 690.218 523.841C689.79 524.055 689.255 524.162 688.827 524.376C656.18 535.08 613.794 528.872 594.206 510.354Z" fill="#E6E8EA"/><path d="M594.848 517.633C588.105 511.318 583.931 498.473 583.931 491.516C583.931 493.443 584.466 495.369 585.001 497.296C586.393 501.578 589.175 505.859 593.243 509.819C593.35 509.926 593.564 510.14 593.671 510.248C613.259 528.658 655.646 534.973 688.292 524.269C688.72 524.162 689.255 523.948 689.683 523.734C690.005 523.734 690.326 523.52 690.647 523.413C690.647 523.413 690.647 523.413 690.754 523.413C710.556 516.242 721.581 504.253 721.795 491.73C721.795 490.232 721.795 488.84 721.474 487.342C726.504 502.755 714.837 523.306 689.469 531.655C656.823 542.359 614.436 536.151 594.848 517.633Z" stroke="#003B2F" stroke-width="2.67593" stroke-linecap="round" stroke-linejoin="round"/><path d="M593.673 510.247C593.673 510.247 593.352 509.926 593.244 509.819C589.07 505.858 586.394 501.577 585.003 497.295C584.36 495.369 584.039 493.442 583.932 491.515C583.932 491.515 583.932 491.301 583.932 491.194C583.397 477.708 595.385 464.649 617.435 457.371C650.081 446.667 692.468 452.875 712.056 471.392C717.408 476.423 720.512 481.882 721.475 487.341C721.796 488.84 721.903 490.231 721.796 491.73C721.582 504.253 710.557 516.241 690.755 523.413C690.755 523.413 690.755 523.413 690.648 523.413C690.327 523.413 690.006 523.627 689.685 523.734C689.257 523.948 688.722 524.055 688.294 524.269C655.647 534.973 613.26 528.764 593.673 510.247Z" stroke="#003B2F" stroke-width="2.67593" stroke-linecap="round" stroke-linejoin="round"/><path d="M656.289 472.783C656.396 472.89 656.503 472.997 656.61 473.211L658.002 475.566L659.179 477.6L660.571 479.955L661.748 481.988L663.14 484.343L664.317 486.377L665.709 488.732L666.779 490.444C666.779 490.444 666.886 490.551 666.779 490.659C666.779 490.659 666.565 490.659 666.458 490.659C657.467 490.444 648.368 490.23 639.377 490.016C639.27 490.016 639.056 490.016 638.949 490.016C639.484 489.481 640.02 488.946 640.448 488.411L653.72 475.031L656.075 472.676L656.289 472.783Z" fill="#003B2F"/><path d="M639.054 490.229L666.669 490.871H666.883C666.883 490.871 667.097 490.871 667.204 490.871C677.694 491.085 688.077 491.299 698.566 491.62C698.673 491.62 698.78 491.62 698.888 491.62C697.924 491.942 696.961 492.37 695.998 492.691L653.718 508.211C653.718 508.211 653.504 508.211 653.397 508.211C653.397 508.211 653.397 508.104 653.397 507.997L654.467 506.713L656.501 504.144L658.534 501.575C659.177 500.719 659.926 499.862 660.568 498.899L662.602 496.33L664.636 493.654L666.669 491.085V490.871H666.455C657.464 490.657 648.58 490.443 639.589 490.229C639.482 490.229 639.268 490.229 639.161 490.229H639.054Z" fill="#003B2F"/><path d="M639.054 490.229H645.69C652.647 490.55 659.605 490.657 666.562 490.871C666.883 490.871 666.883 490.871 666.669 491.085L664.314 494.082C663.779 494.724 663.244 495.367 662.709 496.116L660.461 499.006L659.177 500.611L657.357 502.966L656.073 504.572L654.253 506.927L653.29 508.211C653.183 508.211 653.183 508.211 653.183 508.104L646.011 499.006L639.161 490.336C639.161 490.336 639.054 490.229 639.054 490.122V490.229Z" fill="#003B2F"/><path d="M630.922 490.017L633.919 493.763L642.375 504.467L645.05 507.892C645.05 507.892 645.05 507.892 645.05 507.999C645.05 507.999 644.943 507.999 644.836 507.999C632.955 501.898 621.074 495.797 609.3 489.696C609.3 489.696 609.086 489.696 609.086 489.589C609.193 489.589 609.3 489.589 609.407 489.589C616.364 489.696 623.429 489.91 630.386 490.017C630.493 490.017 630.707 490.017 630.707 490.017H630.922Z" fill="#003B2F"/><path d="M630.922 490.016C630.922 490.016 630.707 490.016 630.6 490.016C623.536 489.909 616.472 489.695 609.407 489.588H609.086C609.086 489.588 610.049 489.16 610.584 488.946C614.973 487.019 619.469 485.092 623.857 483.166L637.13 477.386L647.726 472.783H647.94C647.94 472.783 647.833 472.783 647.726 472.89L637.558 483.166L630.815 490.016C630.815 490.016 630.815 490.016 630.815 490.123L630.922 490.016Z" fill="#003B2F"/><path d="M698.891 491.621H698.677L667.315 490.872C667.315 490.872 667.101 490.872 666.994 490.872C666.994 490.872 667.101 490.872 667.208 490.872H667.422C677.805 491.086 688.08 491.3 698.463 491.621C698.677 491.621 698.784 491.621 698.998 491.621H698.891Z" fill="#003B2F"/><path d="M698.889 491.515C688.185 491.301 677.588 491.087 666.884 490.766C666.349 489.909 665.921 489.053 665.386 488.197C664.851 487.34 664.316 486.377 663.78 485.521L660.997 480.918L659.071 477.707L656.181 472.89C656.823 473.211 657.465 473.426 658.107 473.747L674.484 480.918L695.356 490.016L698.781 491.515C698.781 491.515 698.781 491.515 698.889 491.515Z" fill="#003B2F"/><path d="M612.937 505.858C606.194 499.543 602.02 486.698 602.02 479.741C602.02 481.668 602.555 483.594 603.09 485.521C604.481 489.802 607.264 494.084 611.332 498.044C611.439 498.151 611.653 498.365 611.76 498.472C631.348 516.883 673.734 523.198 706.381 512.494C706.809 512.387 707.344 512.173 707.772 511.959C708.093 511.959 708.415 511.745 708.736 511.638C708.736 511.638 708.736 511.638 708.843 511.638C728.645 504.466 739.669 492.478 739.883 479.955C739.883 478.456 739.883 477.065 739.562 475.566C744.593 490.98 732.926 511.531 707.558 519.88C674.912 530.584 632.525 524.375 612.937 505.858Z" fill="#03FC9D"/><path d="M611.866 498.472C611.866 498.472 611.545 498.151 611.438 498.044C607.263 494.083 604.587 489.802 603.196 485.52C602.554 483.594 602.233 481.667 602.126 479.74C602.126 479.74 602.126 479.526 602.126 479.419C601.59 465.933 613.579 452.874 635.628 445.595C668.275 434.892 710.661 441.1 730.249 459.617C735.601 464.648 738.705 470.107 739.668 475.566C739.99 477.064 740.097 478.456 739.99 479.954C739.775 492.478 728.751 504.466 708.949 511.637C708.949 511.637 708.949 511.637 708.842 511.637C708.521 511.637 708.199 511.852 707.878 511.959C707.45 512.173 706.915 512.28 706.487 512.494C673.84 523.197 631.454 516.989 611.866 498.472Z" fill="#E6E8EA"/><path d="M612.509 505.751C605.765 499.435 601.591 486.591 601.591 479.633C601.591 481.56 602.126 483.487 602.661 485.413C604.053 489.695 606.836 493.976 610.903 497.937C611.01 498.044 611.224 498.258 611.331 498.365C630.919 516.775 673.306 523.091 705.952 512.387C706.38 512.28 706.915 512.066 707.344 511.852C707.665 511.852 707.986 511.638 708.307 511.531C708.307 511.531 708.307 511.531 708.414 511.531C728.216 504.359 739.241 492.371 739.455 479.848C739.455 478.349 739.455 476.958 739.134 475.459C744.164 490.872 732.497 511.423 707.13 519.772C674.483 530.476 632.096 524.268 612.509 505.751Z" stroke="#003B2F" stroke-width="2.67593" stroke-linecap="round" stroke-linejoin="round"/><path d="M611.333 498.365C611.333 498.365 611.012 498.044 610.905 497.937C606.73 493.976 604.054 489.695 602.663 485.413C602.021 483.487 601.699 481.56 601.592 479.633C601.592 479.633 601.592 479.419 601.592 479.312C601.057 465.825 613.045 452.767 635.095 445.488C667.741 434.785 710.128 440.993 729.716 459.51C735.068 464.541 738.172 470 739.135 475.459C739.456 476.957 739.563 478.349 739.456 479.847C739.242 492.371 728.217 504.359 708.416 511.53C708.416 511.53 708.416 511.53 708.308 511.53C707.987 511.53 707.666 511.744 707.345 511.851C706.917 512.065 706.382 512.172 705.954 512.387C673.307 523.09 630.921 516.882 611.333 498.365Z" stroke="#003B2F" stroke-width="2.67593" stroke-linecap="round" stroke-linejoin="round"/><path d="M673.95 460.901C674.057 461.008 674.164 461.115 674.271 461.329L675.662 463.684L676.84 465.717L678.231 468.072L679.409 470.106L680.8 472.461L681.978 474.494L683.369 476.849L684.44 478.562C684.44 478.562 684.547 478.669 684.44 478.776C684.44 478.776 684.225 478.776 684.118 478.776C675.127 478.562 666.029 478.348 657.038 478.134C656.931 478.134 656.717 478.134 656.61 478.134C657.145 477.599 657.68 477.063 658.108 476.528L671.381 463.149L673.736 460.794L673.95 460.901Z" fill="#003B2F"/><path d="M656.714 478.24L684.329 478.882H684.544C684.544 478.882 684.758 478.882 684.865 478.882L716.227 479.631C716.227 479.631 716.441 479.631 716.548 479.631C715.584 479.952 714.621 480.38 713.658 480.701L671.378 496.222C671.378 496.222 671.164 496.222 671.057 496.222C671.057 496.222 671.057 496.115 671.057 496.008L672.127 494.723L674.161 492.154L676.195 489.585C676.837 488.729 677.586 487.873 678.228 486.91L680.262 484.341L682.296 481.665L684.329 479.096V478.882H684.115C675.124 478.668 666.24 478.454 657.249 478.24C657.142 478.24 656.928 478.24 656.821 478.24H656.714Z" fill="#003B2F"/><path d="M656.714 478.347H663.35C670.308 478.668 677.265 478.775 684.222 478.989C684.544 478.989 684.544 478.989 684.329 479.203L681.975 482.2C681.439 482.842 680.904 483.484 680.369 484.234L678.121 487.124L676.837 488.729L675.017 491.084L673.733 492.69L671.913 495.044L670.95 496.329C670.843 496.329 670.843 496.329 670.843 496.222L663.671 487.124L656.821 478.454C656.821 478.454 656.714 478.347 656.714 478.24V478.347Z" fill="#003B2F"/><path d="M648.581 478.135L651.578 481.881L660.034 492.585L662.71 496.01C662.71 496.01 662.71 496.01 662.71 496.117C662.71 496.117 662.603 496.117 662.496 496.117C650.615 490.016 638.734 483.915 626.96 477.814C626.96 477.814 626.746 477.814 626.746 477.707C626.853 477.707 626.96 477.707 627.067 477.707C634.024 477.814 641.089 478.028 648.046 478.135C648.153 478.135 648.367 478.135 648.367 478.135H648.581Z" fill="#003B2F"/><path d="M648.581 478.134C648.581 478.134 648.367 478.134 648.26 478.134C641.196 478.027 634.131 477.813 627.067 477.706H626.746C626.746 477.706 627.709 477.278 628.244 477.064C632.633 475.137 637.128 473.21 641.517 471.283L654.789 465.503L665.386 460.901H665.6C665.6 460.901 665.493 460.901 665.386 461.008L655.218 471.283L648.474 478.134C648.474 478.134 648.474 478.134 648.474 478.241L648.581 478.134Z" fill="#003B2F"/><path d="M716.442 479.632H716.228C705.738 479.418 695.249 479.203 684.866 478.882C684.866 478.882 684.652 478.882 684.545 478.882C684.545 478.882 684.652 478.882 684.759 478.882H684.973C695.356 479.096 705.631 479.31 716.014 479.632C716.228 479.632 716.335 479.632 716.549 479.632H716.442Z" fill="#003B2F"/><path d="M716.549 479.633C705.845 479.418 695.248 479.204 684.545 478.883C684.009 478.027 683.581 477.171 683.046 476.314C682.511 475.458 681.976 474.495 681.44 473.638L678.657 469.036L676.731 465.825L673.841 461.008C674.483 461.329 675.125 461.543 675.767 461.864L692.144 469.036L713.016 478.134L716.442 479.633C716.442 479.633 716.442 479.633 716.549 479.633Z" fill="#003B2F"/><path d="M604.59 494.94C597.847 488.625 593.672 475.78 593.672 468.823C593.672 470.749 594.208 472.676 594.743 474.603C596.134 478.884 598.917 483.166 602.985 487.126C603.092 487.233 603.306 487.447 603.413 487.554C623.001 505.965 665.387 512.28 698.034 501.576C698.462 501.469 698.997 501.255 699.425 501.041C699.746 501.041 700.067 500.827 700.388 500.72C700.388 500.72 700.389 500.72 700.496 500.72C720.297 493.548 731.322 481.56 731.536 469.037C731.536 467.538 731.536 466.147 731.215 464.648C736.246 480.062 724.579 500.613 699.211 508.962C666.565 519.665 624.178 513.457 604.59 494.94Z" fill="#03FC9D"/><path d="M603.519 487.447C603.519 487.447 603.198 487.126 603.091 487.019C598.917 483.058 596.241 478.777 594.849 474.495C594.207 472.569 593.886 470.642 593.779 468.715C593.779 468.715 593.779 468.501 593.779 468.394C593.244 454.907 605.232 441.849 627.282 434.57C659.928 423.867 702.315 430.075 721.902 448.592C727.254 453.623 730.358 459.082 731.322 464.541C731.643 466.039 731.75 467.431 731.643 468.929C731.429 481.453 720.404 493.441 700.602 500.612C700.602 500.612 700.602 500.612 700.495 500.612C700.174 500.612 699.853 500.826 699.532 500.933C699.104 501.147 698.568 501.255 698.14 501.469C665.494 512.172 623.107 505.964 603.519 487.447Z" fill="#E6E8EA"/><path d="M604.162 494.726C597.419 488.41 593.244 475.566 593.244 468.609C593.244 470.535 593.779 472.462 594.315 474.389C595.706 478.67 598.489 482.952 602.556 486.912C602.663 487.019 602.877 487.233 602.985 487.34C622.572 505.75 664.959 512.066 697.605 501.362C698.034 501.255 698.569 501.041 698.997 500.827C699.318 500.827 699.639 500.613 699.96 500.506C699.96 500.506 699.96 500.506 700.067 500.506C719.869 493.334 730.894 481.346 731.108 468.823C731.108 467.324 731.108 465.933 730.787 464.434C735.818 479.847 724.151 500.399 698.783 508.747C666.137 519.451 623.75 513.243 604.162 494.726Z" stroke="#003B2F" stroke-width="2.67593" stroke-linecap="round" stroke-linejoin="round"/><path d="M602.987 487.34C602.987 487.34 602.665 487.019 602.558 486.912C598.384 482.951 595.708 478.67 594.317 474.388C593.674 472.462 593.353 470.535 593.246 468.608C593.246 468.608 593.246 468.394 593.246 468.287C592.711 454.8 604.699 441.742 626.749 434.463C659.395 423.76 701.782 429.968 721.37 448.485C726.722 453.516 729.826 458.975 730.789 464.434C731.11 465.932 731.217 467.324 731.11 468.822C730.896 481.346 719.871 493.334 700.069 500.505C700.069 500.505 700.069 500.505 699.962 500.505C699.641 500.505 699.32 500.719 698.999 500.826C698.571 501.041 698.036 501.148 697.607 501.362C664.961 512.065 622.574 505.857 602.987 487.34Z" stroke="#003B2F" stroke-width="2.67593" stroke-linecap="round" stroke-linejoin="round"/><path fill-rule="evenodd" clip-rule="evenodd" d="M627.284 486.485L629.424 444.741L644.517 445.49L642.376 487.234L627.284 486.485ZM643.66 461.867L708.953 465.185L708.525 474.176L643.232 470.858L643.66 461.867Z" fill="#003B2F"/><path d="M673.522 467.86C674.272 453.089 670.418 440.779 664.852 440.565C659.286 440.351 654.149 452.018 653.399 466.896C652.65 481.667 656.503 493.977 662.069 494.191C667.635 494.405 672.773 482.738 673.522 467.86Z" fill="#003B2F"/><path fill-rule="evenodd" clip-rule="evenodd" d="M668.495 467.645C669.244 452.874 667.531 442.17 664.748 442.063C661.965 441.956 656.721 452.232 655.971 467.003C655.222 481.774 659.397 492.585 662.179 492.692C664.962 492.799 667.745 482.416 668.495 467.645Z" fill="#E6E8EA"/><path fill-rule="evenodd" clip-rule="evenodd" d="M643.663 461.865L666.248 463.043L665.82 472.034L643.235 470.856L643.663 461.865Z" fill="#003B2F"/><path d="M427.876 557.235C421.989 551.669 418.243 540.43 418.243 534.329C418.243 536.041 418.671 537.754 419.206 539.467C420.383 543.213 422.845 546.959 426.485 550.384C426.592 550.492 426.699 550.599 426.913 550.813C444.039 566.975 481.288 572.541 509.867 563.122C510.295 563.015 510.723 562.801 511.151 562.694C511.365 562.694 511.686 562.48 512.007 562.373C512.007 562.373 512.007 562.373 512.114 562.373C529.454 556.057 539.088 545.568 539.302 534.65C539.302 533.366 539.302 532.081 538.981 530.797C543.369 544.283 533.201 562.373 510.937 569.651C482.251 579.07 445.109 573.612 427.983 557.342L427.876 557.235Z" fill="#03FC9D"/><path d="M426.911 550.705C426.911 550.705 426.697 550.491 426.483 550.277C422.844 546.745 420.489 543.106 419.205 539.359C418.669 537.647 418.348 535.934 418.241 534.221C418.241 534.221 418.241 534.007 418.241 533.9C417.706 522.126 428.196 510.566 447.569 504.251C476.255 494.832 513.397 500.291 530.523 516.453C535.233 520.842 537.909 525.658 538.765 530.475C538.979 531.76 539.086 533.044 539.086 534.329C538.872 545.246 529.239 555.843 511.899 562.051C511.899 562.051 511.899 562.051 511.792 562.051C511.578 562.051 511.257 562.265 510.935 562.372C510.507 562.479 510.079 562.693 509.651 562.8C480.965 572.22 443.823 566.761 426.697 550.491L426.911 550.705Z" fill="#E6E8EA"/><path d="M427.447 557.127C421.56 551.561 417.813 540.323 417.813 534.221C417.813 535.934 418.242 537.647 418.777 539.359C419.954 543.106 422.416 546.852 426.055 550.277C426.162 550.384 426.269 550.491 426.483 550.705C443.609 566.868 480.858 572.434 509.437 563.014C509.866 562.907 510.294 562.693 510.722 562.586C510.936 562.586 511.257 562.372 511.578 562.265C511.578 562.265 511.578 562.265 511.685 562.265C529.025 555.95 538.659 545.46 538.873 534.543C538.873 533.258 538.873 531.974 538.551 530.689C542.94 544.176 532.771 562.265 510.508 569.544C481.822 578.963 444.68 573.504 427.554 557.234L427.447 557.127Z" stroke="#003B2F" stroke-width="2.67593" stroke-linecap="round" stroke-linejoin="round"/><path d="M426.483 550.598C426.483 550.598 426.268 550.384 426.054 550.17C422.415 546.638 420.06 542.999 418.776 539.252C418.241 537.54 417.92 535.827 417.812 534.115C417.812 534.115 417.812 533.9 417.812 533.793C417.277 522.019 427.767 510.459 447.141 504.144C475.827 494.725 512.969 500.184 530.095 516.346C534.804 520.735 537.48 525.552 538.336 530.368C538.55 531.653 538.658 532.937 538.658 534.222C538.443 545.139 528.81 555.736 511.47 561.944C511.47 561.944 511.47 561.944 511.363 561.944C511.149 561.944 510.828 562.158 510.507 562.265C510.079 562.372 509.65 562.586 509.222 562.693C480.536 572.113 443.394 566.654 426.268 550.384L426.483 550.598Z" stroke="#003B2F" stroke-width="2.67593" stroke-linecap="round" stroke-linejoin="round"/><path d="M481.287 517.738C481.394 517.845 481.501 517.952 481.501 518.059L482.679 520.093L483.749 521.913L485.033 524.053L486.104 525.873L487.388 528.014L488.459 529.833L489.636 531.867L490.492 533.366C490.492 533.366 490.492 533.366 490.492 533.58H490.278C482.357 533.366 474.437 533.259 466.516 533.045C466.409 533.045 466.302 533.045 466.195 533.045C466.623 532.616 467.051 532.081 467.586 531.653L479.253 519.879L481.287 517.845V517.738Z" fill="#003B2F"/><path d="M466.195 533.044L490.385 533.579H490.599C490.599 533.579 490.706 533.579 490.813 533.579C500.019 533.793 509.117 534.007 518.322 534.221C518.322 534.221 518.536 534.221 518.643 534.221C517.787 534.542 516.93 534.863 516.074 535.185L479.039 548.778H478.825C478.825 548.778 478.825 548.671 478.825 548.564L479.682 547.387L481.501 545.139L483.321 542.891C483.963 542.142 484.498 541.393 485.14 540.536L486.853 538.289L488.673 535.934L490.385 533.686V533.472H490.171C482.357 533.258 474.437 533.151 466.623 532.937C466.516 532.937 466.409 532.937 466.302 532.937L466.195 533.044Z" fill="#003B2F"/><path d="M466.302 533.044H472.082C478.183 533.258 484.284 533.472 490.385 533.579C490.599 533.579 490.599 533.579 490.492 533.793L488.459 536.469C488.03 537.004 487.495 537.647 487.067 538.182L485.14 540.751L483.963 542.249L482.357 544.283L481.18 545.781L479.574 547.815L478.718 548.885C478.718 548.885 478.718 548.885 478.611 548.885L472.296 540.965L466.302 533.365C466.302 533.365 466.195 533.258 466.195 533.151L466.302 533.044Z" fill="#003B2F"/><path d="M459.13 532.829L461.699 536.147L469.084 545.567L471.439 548.564C471.439 548.564 471.439 548.564 471.439 548.671C471.439 548.671 471.439 548.671 471.332 548.671C460.95 543.319 450.567 537.967 440.184 532.615C440.184 532.615 439.97 532.615 440.077 532.508C440.077 532.508 440.291 532.508 440.398 532.508L458.809 532.936C458.809 532.936 459.023 532.936 459.13 532.936V532.829Z" fill="#003B2F"/><path d="M459.131 532.831C459.131 532.831 458.917 532.831 458.81 532.831L440.293 532.402H440.079C440.079 532.402 440.935 531.974 441.363 531.867C445.216 530.155 449.177 528.442 453.03 526.836L464.697 521.806L474.009 517.738H474.223C474.223 517.738 474.116 517.738 474.009 517.845L465.125 526.836L459.238 532.831H459.131Z" fill="#003B2F"/><path d="M518.643 534.222C518.643 534.222 518.536 534.222 518.429 534.222C509.224 534.008 500.126 533.794 490.921 533.58H490.707C490.707 533.58 490.814 533.58 490.921 533.58H491.135C500.233 533.794 509.331 534.008 518.322 534.222C518.429 534.222 518.643 534.222 518.75 534.222H518.643Z" fill="#003B2F"/><path d="M518.747 534.222C509.434 534.008 500.122 533.794 490.703 533.58C490.275 532.831 489.846 532.081 489.418 531.332C488.99 530.583 488.455 529.727 488.027 528.977L485.672 524.91L483.959 522.02L481.498 517.845C482.033 518.06 482.675 518.274 483.21 518.595L497.553 524.91L515.857 532.938L518.854 534.222H518.747Z" fill="#003B2F"/><path d="M432.261 545.569C426.374 540.003 422.627 528.764 422.627 522.663C422.627 524.376 423.056 526.089 423.591 527.801C424.768 531.547 427.23 535.294 430.869 538.719C430.976 538.826 431.083 538.933 431.297 539.147C448.423 555.31 485.672 560.876 514.251 551.456C514.679 551.349 515.108 551.135 515.536 551.028C515.75 551.028 516.071 550.814 516.392 550.707C516.392 550.707 516.392 550.707 516.499 550.707C533.839 544.392 543.472 533.902 543.687 522.984C543.687 521.7 543.687 520.416 543.365 519.131C547.754 532.618 537.585 550.707 515.322 557.986C486.636 567.405 449.494 561.946 432.368 545.676L432.261 545.569Z" fill="#03FC9D"/><path d="M431.296 539.147C431.296 539.147 431.082 538.933 430.868 538.719C427.229 535.187 424.874 531.547 423.589 527.801C423.054 526.089 422.733 524.376 422.626 522.663C422.626 522.663 422.626 522.449 422.626 522.342C422.091 510.568 432.58 499.008 451.954 492.693C480.64 483.274 517.782 488.733 534.908 504.895C539.618 509.284 542.294 514.1 543.15 518.917C543.364 520.202 543.471 521.486 543.471 522.77C543.257 533.688 533.624 544.285 516.284 550.493C516.284 550.493 516.284 550.493 516.177 550.493C515.962 550.493 515.641 550.707 515.32 550.814C514.892 550.921 514.464 551.135 514.036 551.242C485.35 560.662 448.208 555.203 431.082 538.933L431.296 539.147Z" fill="#E6E8EA"/><path d="M431.832 545.462C425.945 539.896 422.199 528.657 422.199 522.556C422.199 524.269 422.627 525.981 423.162 527.694C424.339 531.44 426.801 535.187 430.441 538.612C430.548 538.719 430.655 538.826 430.869 539.04C447.995 555.202 485.244 560.768 513.823 551.349C514.251 551.242 514.679 551.028 515.107 550.921C515.321 550.921 515.642 550.707 515.963 550.6C515.963 550.6 515.963 550.6 516.07 550.6C533.41 544.285 543.044 533.795 543.258 522.877C543.258 521.593 543.258 520.308 542.937 519.024C547.325 532.511 537.157 550.6 514.893 557.878C486.207 567.298 449.065 561.839 431.939 545.569L431.832 545.462Z" stroke="#003B2F" stroke-width="2.67593" stroke-linecap="round" stroke-linejoin="round"/><path d="M430.868 539.04C430.868 539.04 430.654 538.826 430.44 538.612C426.8 535.08 424.446 531.44 423.161 527.694C422.626 525.981 422.305 524.269 422.198 522.556C422.198 522.556 422.198 522.342 422.198 522.235C421.663 510.461 432.152 498.901 451.526 492.586C480.212 483.166 517.354 488.625 534.48 504.788C539.189 509.177 541.865 513.993 542.722 518.81C542.936 520.094 543.043 521.379 543.043 522.663C542.829 533.581 533.195 544.178 515.855 550.386C515.855 550.386 515.855 550.386 515.748 550.386C515.534 550.386 515.213 550.6 514.892 550.707C514.464 550.814 514.036 551.028 513.608 551.135C484.922 560.554 447.78 555.095 430.654 538.826L430.868 539.04Z" stroke="#003B2F" stroke-width="2.67593" stroke-linecap="round" stroke-linejoin="round"/><path d="M485.672 506.18C485.779 506.287 485.886 506.394 485.886 506.501L487.064 508.535L488.134 510.355L489.419 512.495L490.489 514.315L491.773 516.456L492.844 518.275L494.021 520.309L494.878 521.808C494.878 521.808 494.878 521.808 494.878 522.022H494.663C486.743 521.808 478.822 521.701 470.901 521.487C470.794 521.487 470.687 521.487 470.58 521.487C471.008 521.058 471.436 520.523 471.972 520.095L483.639 508.321L485.672 506.287V506.18Z" fill="#003B2F"/><path d="M470.58 521.486L494.77 522.021H494.985C494.985 522.021 495.092 522.021 495.199 522.021C504.404 522.235 513.502 522.449 522.707 522.663C522.707 522.663 522.921 522.663 523.028 522.663C522.172 522.984 521.316 523.305 520.459 523.626L483.425 537.22H483.21C483.21 537.22 483.21 537.113 483.21 537.006L484.067 535.829L485.886 533.581L487.706 531.333C488.348 530.584 488.883 529.835 489.526 528.978L491.238 526.731L493.058 524.376L494.77 522.128V521.914H494.556C486.743 521.7 478.822 521.593 471.008 521.379C470.901 521.379 470.794 521.379 470.687 521.379L470.58 521.486Z" fill="#003B2F"/><path d="M470.577 521.486H476.357C482.458 521.7 488.56 521.914 494.661 522.021C494.875 522.021 494.875 522.021 494.768 522.235L492.734 524.911C492.306 525.446 491.771 526.088 491.342 526.623L489.416 529.192L488.238 530.691L486.633 532.724L485.455 534.223L483.85 536.257L482.994 537.327C482.994 537.327 482.994 537.327 482.887 537.327L476.571 529.406L470.577 521.807C470.577 521.807 470.47 521.7 470.47 521.593L470.577 521.486Z" fill="#003B2F"/><path d="M463.515 521.271L466.084 524.589L473.47 534.009L475.825 537.006C475.825 537.006 475.825 537.006 475.825 537.113C475.825 537.113 475.824 537.113 475.717 537.113C465.335 531.761 454.952 526.409 444.57 521.057C444.57 521.057 444.356 521.057 444.463 520.95C444.463 520.95 444.677 520.95 444.784 520.95L463.194 521.378C463.194 521.378 463.408 521.378 463.515 521.378V521.271Z" fill="#003B2F"/><path d="M463.516 521.272C463.516 521.272 463.302 521.272 463.195 521.272C456.987 521.165 450.886 520.951 444.677 520.844H444.463C444.463 520.844 445.32 520.416 445.748 520.309C449.601 518.596 453.562 516.884 457.415 515.278L469.082 510.248L478.394 506.18H478.608C478.608 506.18 478.501 506.18 478.394 506.287L469.51 515.278L463.623 521.272H463.516Z" fill="#003B2F"/><path d="M523.029 522.663C523.029 522.663 522.921 522.663 522.814 522.663L495.306 522.021H495.092C495.092 522.021 495.199 522.021 495.306 522.021H495.52C504.618 522.235 513.716 522.449 522.707 522.663C522.814 522.663 523.029 522.663 523.136 522.663H523.029Z" fill="#003B2F"/><path d="M523.027 522.557C513.715 522.343 504.403 522.129 494.984 521.915C494.555 521.165 494.127 520.416 493.699 519.667C493.271 518.918 492.736 518.061 492.308 517.312L489.953 513.245L488.24 510.355L485.778 506.18C486.314 506.394 486.956 506.608 487.491 506.929L501.834 513.245L520.137 521.272L523.134 522.557H523.027Z" fill="#003B2F"/><path d="M422.733 534.009C416.846 528.443 413.1 517.204 413.1 511.103C413.1 512.815 413.528 514.528 414.063 516.24C415.24 519.987 417.702 523.733 421.341 527.158C421.449 527.265 421.556 527.372 421.77 527.586C438.896 543.749 476.145 549.315 504.723 539.896C505.152 539.789 505.58 539.574 506.008 539.467C506.222 539.467 506.543 539.253 506.864 539.146C506.864 539.146 506.864 539.146 506.971 539.146C524.311 532.831 533.945 522.341 534.159 511.424C534.159 510.139 534.159 508.855 533.838 507.57C538.226 521.057 528.058 539.146 505.794 546.425C477.108 555.844 439.966 550.385 422.84 534.116L422.733 534.009Z" fill="#03FC9D"/><path d="M421.768 527.586C421.768 527.586 421.554 527.372 421.34 527.158C417.701 523.626 415.346 519.987 414.061 516.24C413.526 514.528 413.205 512.815 413.098 511.103C413.098 511.103 413.098 510.888 413.098 510.781C412.563 499.007 423.053 487.447 442.426 481.132C471.112 471.713 508.254 477.172 525.38 493.334C530.09 497.723 532.766 502.54 533.622 507.356C533.836 508.641 533.943 509.925 533.943 511.21C533.729 522.127 524.096 532.724 506.756 538.932C506.756 538.932 506.756 538.932 506.649 538.932C506.435 538.932 506.113 539.146 505.792 539.253C505.364 539.36 504.936 539.574 504.508 539.682C475.822 549.101 438.68 543.642 421.554 527.372L421.768 527.586Z" fill="#E6E8EA"/><path d="M422.305 533.901C416.418 528.335 412.671 517.096 412.671 510.995C412.671 512.708 413.1 514.421 413.635 516.133C414.812 519.879 417.274 523.626 420.913 527.051C421.02 527.158 421.127 527.265 421.341 527.479C438.467 543.642 475.716 549.208 504.295 539.788C504.723 539.681 505.152 539.467 505.58 539.36C505.794 539.36 506.115 539.146 506.436 539.039C506.436 539.039 506.436 539.039 506.543 539.039C523.883 532.724 533.516 522.234 533.731 511.316C533.731 510.032 533.731 508.748 533.409 507.463C537.798 520.95 527.629 539.039 505.366 546.318C476.68 555.737 439.538 550.278 422.412 534.008L422.305 533.901Z" stroke="#003B2F" stroke-width="2.67593" stroke-linecap="round" stroke-linejoin="round"/><path d="M421.235 527.479C421.235 527.479 421.021 527.265 420.807 527.051C417.168 523.519 414.813 519.879 413.529 516.133C412.994 514.421 412.672 512.708 412.565 510.995C412.565 510.995 412.565 510.781 412.565 510.674C412.03 498.9 422.52 487.34 441.894 481.025C470.58 471.606 507.722 477.065 524.847 493.227C529.557 497.616 532.233 502.432 533.089 507.249C533.303 508.534 533.41 509.818 533.41 511.102C533.196 522.02 523.563 532.617 506.223 538.825C506.223 538.825 506.223 538.825 506.116 538.825C505.902 538.825 505.581 539.039 505.26 539.146C504.832 539.253 504.403 539.467 503.975 539.574C475.289 548.994 438.147 543.535 421.021 527.265L421.235 527.479Z" stroke="#003B2F" stroke-width="2.67593" stroke-linecap="round" stroke-linejoin="round"/><path d="M476.144 494.619C476.252 494.726 476.359 494.833 476.359 494.941L477.536 496.974L478.606 498.794L479.891 500.935L480.961 502.754L482.246 504.895L483.316 506.715L484.493 508.748L485.35 510.247C485.35 510.247 485.35 510.247 485.35 510.461H485.136C477.215 510.247 469.294 510.14 461.373 509.926C461.266 509.926 461.159 509.926 461.052 509.926C461.48 509.498 461.909 508.962 462.444 508.534L474.111 496.76L476.144 494.726V494.619Z" fill="#003B2F"/><path d="M461.052 509.817L485.243 510.353H485.457C485.457 510.353 485.564 510.353 485.671 510.353L513.179 510.995C513.179 510.995 513.393 510.995 513.5 510.995C512.644 511.316 511.788 511.637 510.932 511.958L473.897 525.552H473.683C473.683 525.552 473.683 525.445 473.683 525.338L474.539 524.16L476.359 521.913L478.178 519.665C478.82 518.916 479.356 518.166 479.998 517.31L481.71 515.062L483.53 512.707L485.243 510.46V510.246H485.029C477.215 510.032 469.294 509.925 461.48 509.71C461.373 509.71 461.266 509.71 461.159 509.71L461.052 509.817Z" fill="#003B2F"/><path d="M461.049 509.818H466.829C472.931 510.032 479.032 510.246 485.133 510.353C485.347 510.353 485.347 510.353 485.24 510.567L483.206 513.243C482.778 513.778 482.243 514.42 481.815 514.956L479.888 517.525L478.711 519.023L477.105 521.057L475.928 522.555L474.322 524.589L473.466 525.659C473.466 525.659 473.466 525.659 473.359 525.659L467.044 517.739L461.049 510.139C461.049 510.139 460.942 510.032 460.942 509.925L461.049 509.818Z" fill="#003B2F"/><path d="M453.987 509.71L456.556 513.028L463.941 522.448L466.296 525.445C466.296 525.445 466.296 525.445 466.296 525.552C466.296 525.552 466.296 525.552 466.189 525.552C455.807 520.2 445.424 514.848 435.041 509.496C435.041 509.496 434.827 509.496 434.934 509.389C434.934 509.389 435.148 509.389 435.255 509.389L453.666 509.817C453.666 509.817 453.88 509.817 453.987 509.817V509.71Z" fill="#003B2F"/><path d="M453.989 509.712C453.989 509.712 453.775 509.712 453.668 509.712C447.459 509.605 441.358 509.391 435.15 509.283H434.936C434.936 509.283 435.792 508.855 436.22 508.748C440.074 507.036 444.034 505.323 447.888 503.718L459.555 498.687L468.867 494.619H469.081C469.081 494.619 468.974 494.619 468.867 494.726L459.983 503.718L454.096 509.712H453.989Z" fill="#003B2F"/><path d="M513.501 511.103C513.501 511.103 513.394 511.103 513.287 511.103L485.779 510.46H485.564C485.564 510.46 485.671 510.46 485.779 510.46H485.993C495.091 510.675 504.189 510.889 513.18 511.103C513.287 511.103 513.501 511.103 513.608 511.103H513.501Z" fill="#003B2F"/><path d="M513.499 510.996C504.187 510.782 494.875 510.568 485.456 510.354C485.028 509.605 484.599 508.855 484.171 508.106C483.743 507.357 483.208 506.501 482.78 505.751L480.425 501.684L478.712 498.794L476.25 494.619C476.786 494.833 477.428 495.048 477.963 495.369L492.306 501.684L510.609 509.712L513.606 510.996H513.499Z" fill="#003B2F"/><path d="M437.294 522.448C431.407 516.882 427.661 505.643 427.661 499.542C427.661 501.254 428.089 502.967 428.624 504.68C429.801 508.426 432.263 512.172 435.903 515.597C436.01 515.704 436.117 515.811 436.331 516.025C453.457 532.188 490.706 537.754 519.285 528.335C519.713 528.228 520.141 528.014 520.569 527.907C520.783 527.907 521.104 527.693 521.425 527.585C521.425 527.585 521.425 527.585 521.532 527.585C538.872 521.27 548.506 510.781 548.72 499.863C548.72 498.578 548.72 497.294 548.399 496.01C552.787 509.496 542.619 527.585 520.355 534.864C491.669 544.283 454.527 538.824 437.401 522.555L437.294 522.448Z" fill="#03FC9D"/><path d="M436.329 516.026C436.329 516.026 436.115 515.811 435.901 515.597C432.262 512.065 429.907 508.426 428.623 504.68C428.087 502.967 427.766 501.254 427.659 499.542C427.659 499.542 427.659 499.328 427.659 499.221C427.124 487.447 437.614 475.887 456.987 469.571C485.673 460.152 522.815 465.611 539.941 481.774C544.651 486.162 547.327 490.979 548.183 495.795C548.397 497.08 548.504 498.364 548.504 499.649C548.29 510.567 538.657 521.163 521.317 527.371C521.317 527.371 521.317 527.371 521.21 527.371C520.996 527.371 520.675 527.586 520.353 527.693C519.925 527.8 519.497 528.014 519.069 528.121C490.383 537.54 453.241 532.081 436.115 515.811L436.329 516.026Z" fill="#E6E8EA"/><path d="M436.866 522.341C430.979 516.775 427.232 505.536 427.232 499.435C427.232 501.147 427.661 502.86 428.196 504.572C429.373 508.319 431.835 512.065 435.474 515.49C435.581 515.597 435.688 515.704 435.902 515.918C453.028 532.081 490.277 537.647 518.856 528.228C519.284 528.121 519.713 527.906 520.141 527.799C520.355 527.799 520.676 527.585 520.997 527.478C520.997 527.478 520.997 527.478 521.104 527.478C538.444 521.163 548.077 510.673 548.292 499.756C548.292 498.471 548.292 497.187 547.97 495.902C552.359 509.389 542.19 527.478 519.927 534.757C491.241 544.176 454.099 538.717 436.973 522.448L436.866 522.341Z" stroke="#003B2F" stroke-width="2.67593" stroke-linecap="round" stroke-linejoin="round"/><path d="M435.9 515.918C435.9 515.918 435.686 515.704 435.472 515.49C431.833 511.958 429.478 508.319 428.194 504.572C427.659 502.86 427.337 501.147 427.23 499.435C427.23 499.435 427.23 499.221 427.23 499.113C426.695 487.339 437.185 475.779 456.559 469.464C485.245 460.045 522.387 465.504 539.513 481.666C544.222 486.055 546.898 490.872 547.754 495.688C547.968 496.973 548.076 498.257 548.076 499.542C547.861 510.459 538.228 521.056 520.888 527.264C520.888 527.264 520.888 527.264 520.781 527.264C520.567 527.264 520.246 527.478 519.925 527.585C519.497 527.692 519.068 527.907 518.64 528.014C489.954 537.433 452.812 531.974 435.686 515.704L435.9 515.918Z" stroke="#003B2F" stroke-width="2.67593" stroke-linecap="round" stroke-linejoin="round"/><path d="M490.706 483.058C490.813 483.165 490.92 483.272 490.92 483.379L492.097 485.413L493.167 487.233L494.452 489.374L495.522 491.193L496.807 493.334L497.877 495.154L499.054 497.187L499.911 498.686C499.911 498.686 499.911 498.686 499.911 498.9H499.697C491.776 498.686 483.855 498.579 475.934 498.365C475.827 498.365 475.72 498.365 475.613 498.365C476.041 497.937 476.47 497.401 477.005 496.973L488.672 485.199L490.706 483.165V483.058Z" fill="#003B2F"/><path d="M475.613 498.257L499.804 498.792H500.018C500.018 498.792 500.125 498.792 500.232 498.792C509.437 499.006 518.535 499.22 527.74 499.434C527.74 499.434 527.954 499.434 528.062 499.434C527.205 499.755 526.349 500.076 525.493 500.397L488.458 513.991H488.244C488.244 513.991 488.244 513.884 488.244 513.777L489.1 512.6L490.92 510.352L492.739 508.104C493.381 507.355 493.917 506.606 494.559 505.749L496.271 503.502L498.091 501.147L499.804 498.899V498.685H499.59C491.776 498.471 483.855 498.364 476.041 498.15C475.934 498.15 475.827 498.15 475.72 498.15L475.613 498.257Z" fill="#003B2F"/><path d="M475.72 498.364H481.5C487.601 498.578 493.703 498.792 499.804 498.899C500.018 498.899 500.018 498.899 499.911 499.113L497.877 501.789C497.449 502.324 496.914 502.966 496.486 503.502L494.559 506.07L493.381 507.569L491.776 509.603L490.598 511.101L488.993 513.135L488.137 514.205C488.137 514.205 488.137 514.205 488.03 514.205L481.714 506.285L475.72 498.685C475.72 498.685 475.613 498.578 475.613 498.471L475.72 498.364Z" fill="#003B2F"/><path d="M468.548 498.149L471.117 501.467L478.502 510.887L480.857 513.884C480.857 513.884 480.857 513.884 480.857 513.991C480.857 513.991 480.857 513.991 480.75 513.991C470.368 508.639 459.985 503.287 449.602 497.935C449.602 497.935 449.388 497.935 449.495 497.828C449.495 497.828 449.709 497.828 449.816 497.828C455.918 497.935 462.126 498.149 468.227 498.256C468.334 498.256 468.441 498.256 468.548 498.256V498.149Z" fill="#003B2F"/><path d="M468.549 498.151C468.549 498.151 468.335 498.151 468.228 498.151C462.02 498.044 455.919 497.829 449.711 497.722H449.497C449.497 497.722 450.353 497.294 450.781 497.187C454.634 495.475 458.595 493.762 462.448 492.157L474.115 487.126L483.427 483.058H483.641C483.641 483.058 483.534 483.058 483.427 483.165L474.543 492.157L468.656 498.151H468.549Z" fill="#003B2F"/><path d="M528.062 499.542C528.062 499.542 527.955 499.542 527.848 499.542C518.642 499.328 509.544 499.114 500.339 498.9H500.125C500.125 498.9 500.232 498.9 500.339 498.9H500.553C509.651 499.114 518.749 499.328 527.741 499.542C527.848 499.542 528.062 499.542 528.169 499.542H528.062Z" fill="#003B2F"/><path d="M528.164 499.435C518.852 499.221 509.54 499.007 500.121 498.793C499.693 498.044 499.264 497.294 498.836 496.545C498.408 495.796 497.873 494.939 497.445 494.19L495.09 490.123L493.377 487.233L490.916 483.058C491.451 483.272 492.093 483.486 492.628 483.808L506.971 490.123L525.274 498.151L528.272 499.435H528.164Z" fill="#003B2F"/><path d="M425.09 516.134C419.203 510.568 415.457 499.329 415.457 493.228C415.457 494.941 415.885 496.653 416.42 498.366C417.597 502.112 420.059 505.858 423.698 509.284C423.805 509.391 423.912 509.498 424.127 509.712C441.253 525.874 478.501 531.44 507.08 522.021C507.509 521.914 507.937 521.7 508.365 521.593C508.579 521.593 508.9 521.379 509.221 521.272C509.221 521.272 509.221 521.272 509.328 521.272C526.668 514.957 536.302 504.467 536.516 493.549C536.516 492.265 536.516 490.98 536.195 489.696C540.583 503.182 530.415 521.272 508.151 528.55C479.465 537.97 442.323 532.511 425.197 516.241L425.09 516.134Z" fill="#03FC9D"/><path d="M424.021 509.605C424.021 509.605 423.807 509.391 423.593 509.176C419.954 505.644 417.599 502.005 416.314 498.259C415.779 496.546 415.458 494.833 415.351 493.121C415.351 493.121 415.351 492.907 415.351 492.8C414.816 481.026 425.306 469.466 444.679 463.15C473.365 453.731 510.507 459.19 527.633 475.353C532.343 479.741 535.019 484.558 535.875 489.375C536.089 490.659 536.196 491.943 536.196 493.228C535.982 504.146 526.349 514.742 509.009 520.951C509.009 520.951 509.009 520.951 508.902 520.951C508.688 520.951 508.366 521.165 508.045 521.272C507.617 521.379 507.189 521.593 506.761 521.7C478.075 531.119 440.933 525.66 423.807 509.391L424.021 509.605Z" fill="#E6E8EA"/><path d="M424.662 516.027C418.775 510.461 415.028 499.222 415.028 493.121C415.028 494.833 415.456 496.546 415.992 498.259C417.169 502.005 419.631 505.751 423.27 509.176C423.377 509.283 423.484 509.39 423.698 509.605C440.824 525.767 478.073 531.333 506.652 521.914C507.08 521.807 507.508 521.593 507.937 521.486C508.151 521.486 508.472 521.272 508.793 521.165C508.793 521.165 508.793 521.165 508.9 521.165C526.24 514.849 535.873 504.36 536.087 493.442C536.087 492.158 536.087 490.873 535.766 489.589C540.155 503.075 529.986 521.165 507.723 528.443C479.037 537.862 441.895 532.404 424.769 516.134L424.662 516.027Z" stroke="#003B2F" stroke-width="2.67593" stroke-linecap="round" stroke-linejoin="round"/><path d="M423.592 509.498C423.592 509.498 423.378 509.284 423.164 509.07C419.525 505.537 417.17 501.898 415.886 498.152C415.35 496.439 415.029 494.727 414.922 493.014C414.922 493.014 414.922 492.8 414.922 492.693C414.387 480.919 424.877 469.359 444.251 463.044C472.937 453.624 510.078 459.083 527.204 475.246C531.914 479.634 534.59 484.451 535.446 489.268C535.66 490.552 535.767 491.837 535.767 493.121C535.553 504.039 525.92 514.635 508.58 520.844C508.58 520.844 508.58 520.844 508.473 520.844C508.259 520.844 507.938 521.058 507.617 521.165C507.188 521.272 506.76 521.486 506.332 521.593C477.646 531.012 440.504 525.553 423.378 509.284L423.592 509.498Z" stroke="#003B2F" stroke-width="2.67593" stroke-linecap="round" stroke-linejoin="round"/><path d="M466.837 466.788L466.623 471.712C456.134 473.96 448.748 480.917 448.32 490.551L447.678 506.285L465.125 507.034L464.911 512.493L471.119 512.814L471.333 507.355L477.862 507.677L477.648 513.135L483.856 513.457L484.07 507.998L501.303 508.747L501.946 493.012C502.374 483.486 495.63 475.994 485.569 472.782L485.783 467.752L479.575 467.431L479.361 471.391C478.29 471.284 477.113 471.177 475.936 471.07H475.829C474.758 471.07 473.795 471.07 472.831 471.07L473.046 467.216L466.837 466.895V466.788ZM453.458 502.111L453.993 490.765C454.314 483.7 459.345 478.669 466.516 476.636L465.339 502.646L453.458 502.111ZM496.487 492.584L495.952 503.93L484.392 503.395L485.569 477.385C492.419 480.168 496.808 485.52 496.487 492.584ZM476.15 475.458C477.22 475.458 478.29 475.565 479.361 475.779L478.183 503.181L471.654 502.86L472.831 475.458C473.902 475.458 474.972 475.458 476.043 475.458H476.15Z" fill="#003B2F"/><path d="M1347.54 364.351L1349.68 309.762L1367.13 305.802C1370.34 305.053 1373.12 305.053 1375.47 305.909C1377.83 306.765 1379.65 308.264 1380.93 310.619C1382.22 312.973 1382.65 315.97 1382.43 319.717C1382.22 323.57 1381.25 326.995 1379.65 329.992C1378.04 332.989 1375.9 335.451 1373.23 337.271L1382.65 356.538L1373.23 358.678L1363.17 337.485L1368.41 340.054L1356.85 342.73L1355.99 362.532L1347.65 364.351H1347.54ZM1357.06 333.846L1365.95 331.812C1367.45 331.491 1368.84 330.849 1370.02 329.885C1371.19 328.922 1372.05 327.745 1372.8 326.246C1373.44 324.855 1373.87 323.249 1373.98 321.536C1373.98 319.824 1373.87 318.325 1373.23 317.255C1372.58 316.185 1371.84 315.328 1370.77 314.9C1369.69 314.472 1368.41 314.365 1366.8 314.686L1357.81 316.72L1357.06 333.739V333.846Z" fill="#003B2F"/><path d="M1388 355.253L1391.21 300.236L1399.77 298.309L1396.24 353.433L1387.89 355.36L1388 355.253Z" fill="#003B2F"/><path d="M1421.5 348.619C1418.61 349.262 1415.93 349.262 1413.47 348.619C1411.12 347.977 1409.08 346.693 1407.37 344.766C1405.77 342.946 1404.59 340.592 1403.95 337.809L1411.23 332.671C1412.08 335.561 1413.58 337.595 1415.51 338.986C1417.43 340.27 1419.79 340.592 1422.46 340.056C1423.96 339.735 1425.25 339.093 1426.42 338.344C1427.6 337.595 1428.46 336.524 1429.1 335.454C1429.74 334.383 1430.17 333.099 1430.28 331.707C1430.38 330.102 1430.06 328.817 1429.42 327.961C1428.67 327.105 1427.49 326.57 1426 326.356L1417.33 324.964C1413.79 324.429 1411.23 323.037 1409.51 320.79C1407.91 318.542 1407.16 315.545 1407.37 311.906C1407.59 308.694 1408.44 305.697 1409.94 302.914C1411.44 300.131 1413.47 297.777 1415.93 295.85C1418.4 293.923 1421.18 292.532 1424.28 291.89C1427.17 291.247 1429.64 291.247 1431.99 291.89C1434.24 292.532 1436.16 293.709 1437.77 295.422C1439.38 297.134 1440.34 299.275 1440.98 301.951L1433.6 307.303C1432.85 304.734 1431.67 302.807 1429.96 301.737C1428.24 300.667 1426.1 300.346 1423.64 300.881C1422.25 301.202 1420.97 301.737 1419.79 302.593C1418.61 303.45 1417.75 304.413 1417.01 305.59C1416.26 306.768 1415.93 308.052 1415.83 309.444C1415.72 310.942 1416.04 312.227 1416.79 313.297C1417.54 314.26 1418.72 314.903 1420.43 315.117L1428.78 316.401C1432.42 317.043 1434.99 318.328 1436.7 320.469C1438.31 322.609 1439.05 325.499 1438.73 329.139C1438.52 332.243 1437.56 335.24 1435.95 337.916C1434.35 340.592 1432.31 342.946 1429.85 344.766C1427.39 346.693 1424.5 347.977 1421.39 348.726L1421.5 348.619Z" fill="#003B2F"/><path d="M1445.16 342.41L1450.08 286.751L1458.75 284.717L1456.07 314.152L1453.83 313.724L1476.73 280.649L1487.65 278.081L1466.03 309.228L1467.21 301.843L1482.3 333.954L1472.34 336.202L1462.18 314.794L1455.11 325.07L1453.72 340.376L1445.26 342.303L1445.16 342.41Z" fill="#003B2F"/><path d="M1591.05 660.021H1701.8C1714 660.021 1723.9 650.126 1723.9 637.919C1723.9 625.713 1714 615.818 1701.8 615.818H1591.05C1578.84 615.818 1568.95 625.713 1568.95 637.919C1568.95 650.126 1578.84 660.021 1591.05 660.021Z" fill="#03FC9D"/><path d="M1655.31 631.207H1836.59C1856.6 631.207 1872.82 615.007 1872.82 595.023C1872.82 575.039 1856.6 558.838 1836.59 558.838H1655.31C1635.31 558.838 1619.09 575.039 1619.09 595.023C1619.09 615.007 1635.31 631.207 1655.31 631.207Z" fill="#03FC9D"/><path d="M1512.04 624.973H1726.14C1749.76 624.973 1768.92 605.84 1768.92 582.239C1768.92 558.638 1749.76 539.505 1726.14 539.505H1512.04C1488.41 539.505 1469.26 558.638 1469.26 582.239C1469.26 605.84 1488.41 624.973 1512.04 624.973Z" fill="#03FC9D"/><path d="M851.024 166.227H1133.29" stroke="#03FC9D" stroke-width="3.65972" stroke-linecap="round" stroke-linejoin="round"/><path d="M817.696 204.06H975.551" stroke="#003B2F" stroke-width="3.65972" stroke-linecap="round" stroke-linejoin="round"/><path d="M1758.4 302.602L1776.9 321.104" stroke="#003B2F" stroke-width="3.65972" stroke-linecap="round" stroke-linejoin="round"/><path d="M1790.42 334.624L1808.92 353.007" stroke="#003B2F" stroke-width="3.65972" stroke-linecap="round" stroke-linejoin="round"/><path d="M1758.4 353.007L1776.9 334.624" stroke="#003B2F" stroke-width="3.65972" stroke-linecap="round" stroke-linejoin="round"/><path d="M1790.42 321.104L1808.92 302.602" stroke="#003B2F" stroke-width="3.65972" stroke-linecap="round" stroke-linejoin="round"/><path d="M1738.95 833.623C1747.26 833.623 1754 826.885 1754 818.572C1754 810.26 1747.26 803.521 1738.95 803.521C1730.64 803.521 1723.9 810.26 1723.9 818.572C1723.9 826.885 1730.64 833.623 1738.95 833.623Z" stroke="#003B2F" stroke-width="3.65972" stroke-linecap="round" stroke-linejoin="round"/><path d="M1163.59 803.521H1478.83" stroke="#03FC9D" stroke-width="3.65972" stroke-linecap="round" stroke-linejoin="round"/><path d="M1163.59 870.293H1339.83" stroke="#003B2F" stroke-width="3.65972" stroke-linecap="round" stroke-linejoin="round"/><path d="M1545.62 514.54L1553.38 531.565" stroke="#003B2F" stroke-width="3.65972" stroke-linecap="round" stroke-linejoin="round"/><path d="M1559.07 544.06L1566.83 561.085" stroke="#003B2F" stroke-width="3.65972" stroke-linecap="round" stroke-linejoin="round"/><path d="M1532.95 548.414L1549.98 540.658" stroke="#003B2F" stroke-width="3.65972" stroke-linecap="round" stroke-linejoin="round"/><path d="M1562.4 534.998L1579.5 527.211" stroke="#003B2F" stroke-width="3.65972" stroke-linecap="round" stroke-linejoin="round"/><path d="M435 204.06H377.164C395.509 204.06 410.353 189.216 410.353 170.871C410.353 152.526 395.509 137.682 377.164 137.682H210.94C192.595 137.682 177.751 152.526 177.751 170.871H126.778C108.433 170.871 93.5889 185.715 93.5889 204.06C93.5889 222.405 108.433 237.249 126.778 237.249H235.587C235.587 255.594 250.431 270.437 268.776 270.437H435C453.345 270.437 468.189 255.594 468.189 237.249C468.189 218.904 453.345 204.06 435 204.06Z" fill="#E6E8EA"/><path d="M777.161 274.76L770.751 301.883" stroke="#003B2F" stroke-width="3.65972" stroke-linecap="round" stroke-linejoin="round"/><path d="M766.06 321.735L759.622 348.974" stroke="#003B2F" stroke-width="3.65972" stroke-linecap="round" stroke-linejoin="round"/><path d="M731.24 303.026L758.479 309.463" stroke="#003B2F" stroke-width="3.65972" stroke-linecap="round" stroke-linejoin="round"/><path d="M778.331 314.155L805.455 320.565" stroke="#003B2F" stroke-width="3.65972" stroke-linecap="round" stroke-linejoin="round"/><path d="M180.174 925.385H249.782" stroke="#003B2F" stroke-width="3.65972" stroke-linecap="round" stroke-linejoin="round"/><path d="M127.336 925.385H144.843" stroke="#003B2F" stroke-width="3.65972" stroke-linecap="round" stroke-linejoin="round"/><path d="M190.299 877.503H370.646" stroke="#03FC9D" stroke-width="3.65972" stroke-linecap="round" stroke-linejoin="round"/><path d="M103.932 641.28H320.73" stroke="#03FC9D" stroke-width="3.65972" stroke-linecap="round" stroke-linejoin="round"/><path d="M47.1807 590.356H214.523" stroke="#003B2F" stroke-width="3.65972" stroke-linecap="round" stroke-linejoin="round"/><path d="M234.997 399.192L262.986 415.321" stroke="#003B2F" stroke-width="3.65972" stroke-linecap="round" stroke-linejoin="round"/><path d="M290.976 399.192L274.609 408.68" stroke="#003B2F" stroke-width="3.65972" stroke-linecap="round" stroke-linejoin="round"/><path d="M262.986 415.321V448.054" stroke="#003B2F" stroke-width="3.65972" stroke-linecap="round" stroke-linejoin="round"/></svg>