<svg width="1920" height="1080" viewBox="0 0 1920 1080" fill="none" xmlns="http://www.w3.org/2000/svg"><path d="M1508.04 274.065C1518.47 274.065 1526.92 265.61 1526.92 255.181C1526.92 244.752 1518.47 236.298 1508.04 236.298C1497.61 236.298 1489.15 244.752 1489.15 255.181C1489.15 265.61 1497.61 274.065 1508.04 274.065Z" stroke="#003B2F" stroke-width="3" stroke-linecap="round" stroke-linejoin="round"/><path d="M1522.92 351.272H1655.2C1669.79 351.272 1681.62 339.445 1681.62 324.854C1681.62 310.264 1669.79 298.436 1655.2 298.436H1522.92C1508.33 298.436 1496.5 310.264 1496.5 324.854C1496.5 339.445 1508.33 351.272 1522.92 351.272Z" fill="#03FC9D"/><path d="M1594.64 310.808L1811.38 310.808C1835.27 310.808 1854.64 291.442 1854.64 267.553C1854.64 243.664 1835.27 224.298 1811.38 224.298L1594.64 224.298C1570.75 224.298 1551.39 243.664 1551.39 267.553C1551.39 291.442 1570.75 310.808 1594.64 310.808Z" fill="#03FC9D"/><path d="M1536.97 491.236H1599.94" stroke="#003B2F" stroke-width="3" stroke-linecap="round" stroke-linejoin="round"/><path d="M1489.15 491.236H1505.06" stroke="#003B2F" stroke-width="3" stroke-linecap="round" stroke-linejoin="round"/><path d="M1546.08 445.934H1709.15" stroke="#03FC9D" stroke-width="3" stroke-linecap="round" stroke-linejoin="round"/><path d="M1794.63 876.016L1809.42 890.899" stroke="#003B2F" stroke-width="3" stroke-linecap="round" stroke-linejoin="round"/><path d="M1820.31 901.69L1835.19 916.573" stroke="#003B2F" stroke-width="3" stroke-linecap="round" stroke-linejoin="round"/><path d="M1794.63 916.573L1809.42 901.69" stroke="#003B2F" stroke-width="3" stroke-linecap="round" stroke-linejoin="round"/><path d="M1820.31 890.899L1835.19 876.016" stroke="#003B2F" stroke-width="3" stroke-linecap="round" stroke-linejoin="round"/><path d="M1272.29 224.298H771.263C766.555 224.298 762.738 228.115 762.738 232.823V930.216C762.738 934.924 766.555 938.741 771.263 938.741H1272.29C1277 938.741 1280.82 934.924 1280.82 930.216V232.823C1280.82 228.115 1277 224.298 1272.29 224.298Z" fill="#E6E8EA"/><path d="M1285.31 206.966H780.913C777.136 206.966 774.074 210.028 774.074 213.805V914.569C774.074 918.346 777.136 921.409 780.913 921.409H1285.31C1289.09 921.409 1292.15 918.346 1292.15 914.569V213.805C1292.15 210.028 1289.09 206.966 1285.31 206.966Z" fill="white" stroke="#003B2F" stroke-width="3" stroke-linecap="round" stroke-linejoin="round"/><path d="M900.923 399.864C931.192 399.864 955.729 375.327 955.729 345.059C955.729 314.79 931.192 290.253 900.923 290.253C870.655 290.253 846.118 314.79 846.118 345.059C846.118 375.327 870.655 399.864 900.923 399.864Z" fill="#BFFEE5"/><path d="M900.924 390.59C875.816 390.59 855.393 370.166 855.393 345.059C855.393 319.951 875.816 299.528 900.924 299.528C926.031 299.528 946.455 319.951 946.455 345.059C946.455 370.166 926.031 390.59 900.924 390.59Z" fill="#03FC9D"/><path d="M1212.52 333.63H978.495C977.839 333.63 977.371 333.068 977.371 332.505V303.838C977.371 303.182 977.933 302.714 978.495 302.714H1212.52C1213.18 302.714 1213.64 303.276 1213.64 303.838V332.505C1213.64 333.161 1213.08 333.63 1212.52 333.63Z" stroke="#003B2F" stroke-width="3" stroke-linecap="round" stroke-linejoin="round"/><path d="M1212.52 384.594H978.495C977.839 384.594 977.371 384.032 977.371 383.47V354.802C977.371 354.146 977.933 353.678 978.495 353.678H1212.52C1213.18 353.678 1213.64 354.24 1213.64 354.802V383.47C1213.64 384.126 1213.08 384.594 1212.52 384.594Z" stroke="#003B2F" stroke-width="3" stroke-linecap="round" stroke-linejoin="round"/><path d="M850.708 461.135H1215.71" stroke="#003B2F" stroke-width="3" stroke-linecap="round" stroke-linejoin="round"/><path d="M850.708 504.043H1215.71" stroke="#003B2F" stroke-width="3" stroke-linecap="round" stroke-linejoin="round"/><path d="M850.708 547.043H1215.71" stroke="#003B2F" stroke-width="3" stroke-linecap="round" stroke-linejoin="round"/><path d="M850.708 589.952H1215.71" stroke="#003B2F" stroke-width="3" stroke-linecap="round" stroke-linejoin="round"/><path d="M850.708 632.86H1215.71" stroke="#003B2F" stroke-width="3" stroke-linecap="round" stroke-linejoin="round"/><path d="M1051.01 786.503H1200.15" stroke="#003B2F" stroke-width="3" stroke-linecap="round" stroke-linejoin="round"/><path d="M991.423 777.228C991.423 775.635 992.173 773.761 993.016 771.794C994.14 769.077 995.358 766.266 994.796 763.362C994.328 760.552 992.266 758.397 990.299 756.242C988.8 754.649 987.395 753.057 986.833 751.464C986.271 749.872 986.364 747.81 986.458 745.562C986.645 742.658 986.739 739.754 985.334 737.224C983.835 734.695 981.212 733.289 978.588 731.978C976.715 731.041 974.841 730.104 973.81 728.792C972.686 727.481 972.124 725.513 971.468 723.452C970.625 720.642 969.688 717.831 967.534 715.958C965.285 714.084 962.287 713.709 959.383 713.334C957.228 713.053 955.167 712.772 953.762 712.023C952.357 711.18 951.045 709.587 949.733 707.807C947.953 705.465 946.173 703.123 943.457 702.092C940.74 701.062 937.835 701.811 935.025 702.373C932.87 702.842 930.903 703.31 929.216 703.029C927.624 702.748 925.844 701.624 924.064 700.5C921.628 698.907 919.098 697.314 916.194 697.314C913.29 697.314 910.854 698.907 908.418 700.5C906.545 701.717 904.858 702.842 903.172 703.123C901.579 703.404 899.612 702.935 897.551 702.467C894.647 701.811 891.742 701.155 888.932 702.186C886.121 703.216 884.341 705.652 882.561 707.994C881.25 709.681 880.032 711.273 878.626 712.116C877.127 712.96 875.066 713.241 872.912 713.522C870.007 713.896 867.103 714.271 864.855 716.051C862.606 717.925 861.763 720.829 860.826 723.64C860.17 725.701 859.608 727.668 858.578 728.886C857.454 730.198 855.674 731.135 853.706 732.071C851.083 733.383 848.46 734.788 847.054 737.318C845.649 739.847 845.743 742.845 845.93 745.749C846.024 747.904 846.118 749.965 845.556 751.558C844.993 753.151 843.588 754.649 842.089 756.242C840.122 758.397 838.061 760.552 837.592 763.456C837.124 766.266 838.248 769.077 839.372 771.7C840.215 773.668 840.965 775.635 840.965 777.321C840.965 779.008 840.215 780.788 839.372 782.755C838.248 785.472 837.03 788.282 837.592 791.187C838.061 793.997 840.122 796.152 842.089 798.307C843.588 799.899 844.993 801.492 845.556 803.085C846.118 804.677 846.024 806.738 845.93 808.987C845.743 811.891 845.649 814.795 847.054 817.325C848.553 819.854 851.177 821.26 853.8 822.571C855.674 823.508 857.547 824.445 858.578 825.756C859.702 827.068 860.264 829.035 860.92 831.097C861.763 833.907 862.7 836.718 864.855 838.591C867.103 840.465 870.101 840.84 873.005 841.215C875.16 841.496 877.221 841.777 878.626 842.526C880.032 843.369 881.343 844.962 882.655 846.742C884.435 849.084 886.215 851.426 888.932 852.457C891.649 853.487 894.553 852.738 897.363 852.176C899.518 851.707 901.486 851.239 903.172 851.52C904.765 851.801 906.545 852.925 908.325 854.049C910.76 855.642 913.29 857.235 916.194 857.235C919.098 857.235 921.534 855.642 923.97 854.049C925.844 852.832 927.53 851.707 929.216 851.426C930.809 851.145 932.776 851.614 934.837 852.082C937.742 852.738 940.646 853.394 943.457 852.363C946.267 851.333 948.047 848.897 949.827 846.555C951.139 844.868 952.357 843.276 953.762 842.432C955.261 841.589 957.322 841.308 959.477 841.027C962.381 840.652 965.285 840.278 967.534 838.498C969.782 836.624 970.625 833.72 971.562 830.909C972.218 828.848 972.78 826.881 973.81 825.663C974.935 824.351 976.715 823.414 978.682 822.478C981.305 821.166 983.928 819.761 985.334 817.231C986.739 814.702 986.645 811.704 986.458 808.799C986.364 806.645 986.271 804.584 986.833 802.991C987.395 801.398 988.8 799.899 990.299 798.307C992.266 796.152 994.328 793.997 994.796 791.093C995.264 788.282 994.14 785.472 993.016 782.849C992.173 780.881 991.423 778.914 991.423 777.228ZM940.74 844.493C922.752 851.051 903.359 850.208 886.028 842.058C868.696 834.001 855.58 819.667 849.022 801.679C842.464 783.692 843.307 764.299 851.458 746.967C859.515 729.636 873.848 716.52 891.836 709.962C899.893 707.057 908.137 705.652 916.288 705.652C945.518 705.652 973.061 723.733 983.647 752.776C997.138 789.875 977.933 831.003 940.833 844.587L940.74 844.493Z" fill="#03FC9D"/><path d="M916.194 834.563C907.95 834.563 899.705 832.783 892.023 829.129C878.158 822.665 867.665 811.235 862.419 796.808C857.172 782.474 857.828 766.922 864.293 753.057C870.757 739.191 882.186 728.699 896.614 723.452C910.948 718.206 926.499 718.862 940.365 725.326C954.23 731.79 964.723 743.22 969.969 757.647C975.216 771.981 974.56 787.533 968.096 801.398C961.631 815.264 950.202 825.757 935.774 831.003C929.404 833.345 922.752 834.469 916.194 834.469V834.563ZM916.194 723.546C910.011 723.546 903.734 724.67 897.738 726.825C884.247 731.697 873.474 741.627 867.384 754.65C861.295 767.672 860.639 782.287 865.604 795.777C870.476 809.268 880.406 820.042 893.429 826.131C906.451 832.221 921.066 832.877 934.556 827.911C948.047 823.04 958.821 813.109 964.91 800.087C971 787.065 971.656 772.45 966.69 758.959C961.819 745.468 951.888 734.695 938.866 728.605C931.652 725.232 923.876 723.546 916.194 723.546Z" fill="#03FC9D"/><path d="M1055.69 849.177C1051.1 849.177 1047.54 847.116 1045.11 842.994C1039.39 833.157 1042.29 814.233 1051.76 800.836C1058.69 790.999 1067.31 781.911 1076.3 773.386C1077.15 763.081 1077.99 753.806 1078.83 745.28C1049.32 770.013 1030.02 774.51 1008.38 773.761C1007.72 773.761 1007.26 773.199 1007.26 772.543C1007.26 771.887 1007.82 771.419 1008.47 771.419C1029.65 772.168 1048.57 767.671 1077.61 743.313C1078.18 742.845 1078.64 742.376 1079.21 741.814C1083.52 701.248 1088.39 682.23 1094.48 681.012C1096.82 680.544 1099.07 682.418 1101.13 686.633C1105.81 695.908 1100.75 710.336 1097.29 718.018C1092.98 727.668 1086.8 737.223 1081.27 742.845C1080.14 753.431 1079.3 763.362 1078.64 770.856C1083.05 766.734 1087.54 762.706 1091.95 758.677C1096.44 754.649 1100.85 750.714 1104.88 746.873C1106.28 734.6 1109.37 721.765 1112.37 715.301C1117.34 704.902 1123.61 698.719 1128.39 699.562C1130.73 699.937 1132.23 702.092 1132.51 705.277C1133.82 719.892 1122.49 733.382 1107.12 747.997C1107.12 748.185 1107.12 748.278 1107.12 748.466C1105.63 762.237 1106.56 772.355 1109.56 774.885C1109.94 775.26 1111.25 776.29 1114.34 774.229C1121.83 769.076 1128.95 761.488 1135.14 753.244C1134.95 751.932 1134.76 750.339 1134.67 748.653C1134.2 739.097 1139.35 711.835 1148.72 706.12C1150.97 704.715 1153.41 704.715 1155.65 706.12C1156.87 706.87 1157.62 708.275 1157.62 710.43C1157.9 718.205 1149.75 737.223 1137.57 753.899C1138.13 756.71 1139.17 758.49 1140.57 759.052C1145.54 760.926 1156.31 749.309 1165.87 739.191C1172.61 731.883 1179.07 725.044 1184.32 721.578C1184.88 721.203 1185.54 721.391 1185.91 721.953C1186.29 722.515 1186.1 723.171 1185.54 723.545C1180.48 726.824 1173.92 733.945 1167.46 740.784C1156.5 752.588 1146.1 763.643 1139.73 761.301C1137.95 760.645 1136.64 759.052 1135.79 756.429C1129.8 764.205 1122.86 771.419 1115.65 776.384C1111.9 778.913 1109.47 778.07 1108.06 776.852C1104.22 773.573 1103.56 762.612 1104.6 750.62C1101.04 753.899 1097.38 757.272 1093.54 760.645C1088.48 765.235 1083.33 769.826 1078.36 774.51C1078.36 774.885 1078.36 775.26 1078.36 775.634C1078.18 778.539 1077.99 780.693 1077.8 782.005C1077.61 783.785 1077.43 786.127 1077.24 788.844C1075.83 809.361 1073.21 847.491 1057.1 849.084C1056.53 849.084 1055.97 849.084 1055.5 849.084L1055.69 849.177ZM1076.02 776.946C1067.78 784.909 1060.09 793.247 1053.72 802.241C1044.92 814.701 1041.92 832.876 1047.17 841.87C1049.32 845.617 1052.69 847.21 1057.1 846.835C1071.24 845.43 1073.87 807.113 1075.18 788.75C1075.37 786.033 1075.55 783.598 1075.74 781.818C1075.83 780.787 1076.02 779.101 1076.11 777.04L1076.02 776.946ZM1152.37 707.619C1151.63 707.619 1150.88 707.9 1150.03 708.368C1142.26 713.053 1136.64 738.348 1137.1 748.747C1137.1 749.403 1137.1 750.058 1137.2 750.62C1148.25 734.975 1155.65 717.643 1155.47 710.711C1155.47 709.493 1155.09 708.556 1154.62 708.275C1153.87 707.806 1153.12 707.619 1152.37 707.619ZM1127.74 702.092C1125.11 702.092 1119.77 705.745 1114.71 716.519C1112 722.234 1109.28 733.382 1107.78 744.531C1121.65 731.134 1131.48 718.674 1130.36 705.652C1130.26 704.434 1129.8 702.373 1128.2 702.092C1128.11 702.092 1127.92 702.092 1127.74 702.092ZM1095.13 683.448C1095.13 683.448 1095.04 683.448 1094.95 683.448C1093.26 683.823 1088.76 688.132 1084.08 721.11C1083.24 727.012 1082.49 733.195 1081.83 739.191C1086.61 733.663 1091.67 725.607 1095.32 717.362C1100.85 704.808 1102.25 694.128 1099.16 687.945C1097.76 685.135 1096.26 683.542 1095.23 683.542L1095.13 683.448Z" fill="#003B2F"/><path d="M737.63 275.919C700.812 293.344 667.741 317.234 639.448 347.026C523.747 468.629 517.376 657.498 624.552 786.315" stroke="#003B2F" stroke-width="3" stroke-linecap="round" stroke-linejoin="round"/><path d="M553.539 742.753C600.675 742.753 638.886 704.541 638.886 657.406C638.886 610.27 600.675 572.058 553.539 572.058C506.403 572.058 468.192 610.27 468.192 657.406C468.192 704.541 506.403 742.753 553.539 742.753Z" fill="#BFFEE5" stroke="#003B2F" stroke-width="3" stroke-miterlimit="10"/><path d="M553.539 726.92C591.931 726.92 623.054 695.797 623.054 657.405C623.054 619.013 591.931 587.891 553.539 587.891C515.148 587.891 484.025 619.013 484.025 657.405C484.025 695.797 515.148 726.92 553.539 726.92Z" fill="#03FC9D"/><path d="M505.01 708.369C533.116 735.07 577.71 734.039 604.504 705.934C631.298 677.828 630.173 633.234 602.068 606.44C573.962 579.646 529.368 580.77 502.574 608.876" stroke="#003B2F" stroke-width="3" stroke-linecap="round" stroke-linejoin="round"/><path d="M575.087 516.313C607.528 516.313 633.827 490.014 633.827 457.573C633.827 425.131 607.528 398.832 575.087 398.832C542.645 398.832 516.346 425.131 516.346 457.573C516.346 490.014 542.645 516.313 575.087 516.313Z" fill="#BFFEE5" stroke="#003B2F" stroke-width="3" stroke-miterlimit="10"/><path d="M575.087 505.354C601.475 505.354 622.866 483.962 622.866 457.575C622.866 431.187 601.475 409.795 575.087 409.795C548.699 409.795 527.307 431.187 527.307 457.575C527.307 483.962 548.699 505.354 575.087 505.354Z" fill="#03FC9D"/><path d="M541.547 492.893C561.034 511.349 591.856 510.599 610.406 491.206C628.862 471.72 628.112 440.897 608.72 422.348C589.327 403.798 558.411 404.641 539.861 424.034" stroke="#003B2F" stroke-width="3" stroke-linecap="round" stroke-linejoin="round"/><path d="M684.228 354.321C700.011 342.423 703.161 319.984 691.263 304.201C679.365 288.418 656.926 285.268 641.143 297.166C625.36 309.063 622.21 331.503 634.108 347.286C646.005 363.069 668.445 366.219 684.228 354.321Z" fill="#BFFEE5" stroke="#003B2F" stroke-width="3" stroke-miterlimit="10"/><path d="M603.942 785.378L625.583 787.346C625.583 787.346 626.052 787.346 626.239 787.158C626.333 786.971 626.426 786.877 626.52 786.596L628.487 765.049" stroke="#003B2F" stroke-width="3" stroke-linecap="round" stroke-linejoin="round"/><path d="M1441.93 710.235H1289.13C1285.5 710.235 1282.57 713.171 1282.57 716.793V739.184C1282.57 742.805 1285.5 745.742 1289.13 745.742H1441.93C1445.55 745.742 1448.48 742.805 1448.48 739.184V716.793C1448.48 713.171 1445.55 710.235 1441.93 710.235Z" fill="#03FC9D"/><path d="M1426.94 710.235H1403.7V745.742H1426.94V710.235Z" fill="#BFFEE5"/><path d="M1427.41 674.449H1274.61C1270.98 674.449 1268.05 677.385 1268.05 681.007V703.398C1268.05 707.02 1270.98 709.956 1274.61 709.956H1427.41C1431.03 709.956 1433.96 707.02 1433.96 703.398V681.007C1433.96 677.385 1431.03 674.449 1427.41 674.449Z" fill="#03FC9D"/><path d="M1412.51 674.449H1389.28V709.956H1412.51V674.449Z" fill="#BFFEE5"/><path d="M1441.93 638.754H1289.13C1285.5 638.754 1282.57 641.69 1282.57 645.312V667.703C1282.57 671.325 1285.5 674.261 1289.13 674.261H1441.93C1445.55 674.261 1448.48 671.325 1448.48 667.703V645.312C1448.48 641.69 1445.55 638.754 1441.93 638.754Z" fill="#03FC9D"/><path d="M1426.94 638.754H1403.7V674.261H1426.94V638.754Z" fill="#BFFEE5"/><path d="M1443.52 960.376H1290.72C1287.1 960.376 1284.16 963.312 1284.16 966.934V989.325C1284.16 992.947 1287.1 995.883 1290.72 995.883H1443.52C1447.14 995.883 1450.08 992.947 1450.08 989.325V966.934C1450.08 963.312 1447.14 960.376 1443.52 960.376Z" fill="#03FC9D"/><path d="M1428.53 960.376H1405.3V995.883H1428.53V960.376Z" fill="#BFFEE5"/><path d="M1443.52 924.588H1290.72C1287.1 924.588 1284.16 927.524 1284.16 931.146V953.536C1284.16 957.158 1287.1 960.094 1290.72 960.094H1443.52C1447.14 960.094 1450.08 957.158 1450.08 953.536V931.146C1450.08 927.524 1447.14 924.588 1443.52 924.588Z" fill="#03FC9D"/><path d="M1428.53 924.588H1405.3V960.094H1428.53V924.588Z" fill="#BFFEE5"/><path d="M1443.52 888.893H1290.72C1287.1 888.893 1284.16 891.829 1284.16 895.451V917.842C1284.16 921.464 1287.1 924.4 1290.72 924.4H1443.52C1447.14 924.4 1450.08 921.464 1450.08 917.842V895.451C1450.08 891.829 1447.14 888.893 1443.52 888.893Z" fill="#03FC9D"/><path d="M1428.53 888.893H1405.3V924.4H1428.53V888.893Z" fill="#BFFEE5"/><path d="M1443.52 853.199H1290.72C1287.1 853.199 1284.16 856.135 1284.16 859.757V882.147C1284.16 885.769 1287.1 888.705 1290.72 888.705H1443.52C1447.14 888.705 1450.08 885.769 1450.08 882.147V859.757C1450.08 856.135 1447.14 853.199 1443.52 853.199Z" fill="#03FC9D"/><path d="M1428.53 853.199H1405.3V888.705H1428.53V853.199Z" fill="#BFFEE5"/><path d="M1443.52 817.506H1290.72C1287.1 817.506 1284.16 820.443 1284.16 824.064V846.455C1284.16 850.077 1287.1 853.013 1290.72 853.013H1443.52C1447.14 853.013 1450.08 850.077 1450.08 846.455V824.064C1450.08 820.443 1447.14 817.506 1443.52 817.506Z" fill="#03FC9D"/><path d="M1428.53 817.506H1405.3V853.013H1428.53V817.506Z" fill="#BFFEE5"/><path d="M1429.09 781.718H1276.29C1272.67 781.718 1269.73 784.654 1269.73 788.276V810.667C1269.73 814.289 1272.67 817.225 1276.29 817.225H1429.09C1432.71 817.225 1435.65 814.289 1435.65 810.667V788.276C1435.65 784.654 1432.71 781.718 1429.09 781.718Z" fill="#03FC9D"/><path d="M1414.1 781.718H1390.87V817.225H1414.1V781.718Z" fill="#BFFEE5"/><path d="M1443.52 746.023H1290.72C1287.1 746.023 1284.16 748.959 1284.16 752.581V774.972C1284.16 778.594 1287.1 781.53 1290.72 781.53H1443.52C1447.14 781.53 1450.08 778.594 1450.08 774.972V752.581C1450.08 748.959 1447.14 746.023 1443.52 746.023Z" fill="#03FC9D"/><path d="M1428.53 746.023H1405.3V781.53H1428.53V746.023Z" fill="#BFFEE5"/><path d="M1441.93 710.235H1289.13C1285.5 710.235 1282.57 713.171 1282.57 716.793V739.184C1282.57 742.805 1285.5 745.742 1289.13 745.742H1441.93C1445.55 745.742 1448.48 742.805 1448.48 739.184V716.793C1448.48 713.171 1445.55 710.235 1441.93 710.235Z" stroke="#003B2F" stroke-width="3" stroke-linecap="round" stroke-linejoin="round"/><path d="M1427.41 674.449H1274.61C1270.98 674.449 1268.05 677.385 1268.05 681.007V703.398C1268.05 707.02 1270.98 709.956 1274.61 709.956H1427.41C1431.03 709.956 1433.96 707.02 1433.96 703.398V681.007C1433.96 677.385 1431.03 674.449 1427.41 674.449Z" stroke="#003B2F" stroke-width="3" stroke-linecap="round" stroke-linejoin="round"/><path d="M1441.93 638.754H1289.13C1285.5 638.754 1282.57 641.69 1282.57 645.312V667.703C1282.57 671.325 1285.5 674.261 1289.13 674.261H1441.93C1445.55 674.261 1448.48 671.325 1448.48 667.703V645.312C1448.48 641.69 1445.55 638.754 1441.93 638.754Z" stroke="#003B2F" stroke-width="3" stroke-linecap="round" stroke-linejoin="round"/><path d="M1443.52 960.376H1290.72C1287.1 960.376 1284.16 963.312 1284.16 966.934V989.325C1284.16 992.947 1287.1 995.883 1290.72 995.883H1443.52C1447.14 995.883 1450.08 992.947 1450.08 989.325V966.934C1450.08 963.312 1447.14 960.376 1443.52 960.376Z" stroke="#003B2F" stroke-width="3" stroke-linecap="round" stroke-linejoin="round"/><path d="M1443.52 924.588H1290.72C1287.1 924.588 1284.16 927.524 1284.16 931.146V953.536C1284.16 957.158 1287.1 960.094 1290.72 960.094H1443.52C1447.14 960.094 1450.08 957.158 1450.08 953.536V931.146C1450.08 927.524 1447.14 924.588 1443.52 924.588Z" stroke="#003B2F" stroke-width="3" stroke-linecap="round" stroke-linejoin="round"/><path d="M1443.52 888.893H1290.72C1287.1 888.893 1284.16 891.829 1284.16 895.451V917.842C1284.16 921.464 1287.1 924.4 1290.72 924.4H1443.52C1447.14 924.4 1450.08 921.464 1450.08 917.842V895.451C1450.08 891.829 1447.14 888.893 1443.52 888.893Z" stroke="#003B2F" stroke-width="3" stroke-linecap="round" stroke-linejoin="round"/><path d="M1443.52 853.199H1290.72C1287.1 853.199 1284.16 856.135 1284.16 859.757V882.147C1284.16 885.769 1287.1 888.705 1290.72 888.705H1443.52C1447.14 888.705 1450.08 885.769 1450.08 882.147V859.757C1450.08 856.135 1447.14 853.199 1443.52 853.199Z" stroke="#003B2F" stroke-width="3" stroke-linecap="round" stroke-linejoin="round"/><path d="M1443.52 817.506H1290.72C1287.1 817.506 1284.16 820.443 1284.16 824.064V846.455C1284.16 850.077 1287.1 853.013 1290.72 853.013H1443.52C1447.14 853.013 1450.08 850.077 1450.08 846.455V824.064C1450.08 820.443 1447.14 817.506 1443.52 817.506Z" stroke="#003B2F" stroke-width="3" stroke-linecap="round" stroke-linejoin="round"/><path d="M1429.09 781.718H1276.29C1272.67 781.718 1269.73 784.654 1269.73 788.276V810.667C1269.73 814.289 1272.67 817.225 1276.29 817.225H1429.09C1432.71 817.225 1435.65 814.289 1435.65 810.667V788.276C1435.65 784.654 1432.71 781.718 1429.09 781.718Z" stroke="#003B2F" stroke-width="3" stroke-linecap="round" stroke-linejoin="round"/><path d="M1443.52 746.023H1290.72C1287.1 746.023 1284.16 748.959 1284.16 752.581V774.972C1284.16 778.594 1287.1 781.53 1290.72 781.53H1443.52C1447.14 781.53 1450.08 778.594 1450.08 774.972V752.581C1450.08 748.959 1447.14 746.023 1443.52 746.023Z" stroke="#003B2F" stroke-width="3" stroke-linecap="round" stroke-linejoin="round"/><path d="M1366.23 988.294V967.027" stroke="#003B2F" stroke-width="3" stroke-linecap="round" stroke-linejoin="round"/><path d="M1354.05 988.294V967.027" stroke="#003B2F" stroke-width="3" stroke-linecap="round" stroke-linejoin="round"/><path d="M1341.87 988.294V967.027" stroke="#003B2F" stroke-width="3" stroke-linecap="round" stroke-linejoin="round"/><path d="M1329.69 988.294V967.027" stroke="#003B2F" stroke-width="3" stroke-linecap="round" stroke-linejoin="round"/><path d="M1317.51 988.294V967.027" stroke="#003B2F" stroke-width="3" stroke-linecap="round" stroke-linejoin="round"/><path d="M1366.23 953.256V931.989" stroke="#003B2F" stroke-width="3" stroke-linecap="round" stroke-linejoin="round"/><path d="M1354.05 953.256V931.989" stroke="#003B2F" stroke-width="3" stroke-linecap="round" stroke-linejoin="round"/><path d="M1341.87 953.256V931.989" stroke="#003B2F" stroke-width="3" stroke-linecap="round" stroke-linejoin="round"/><path d="M1329.69 953.256V931.989" stroke="#003B2F" stroke-width="3" stroke-linecap="round" stroke-linejoin="round"/><path d="M1317.51 953.256V931.989" stroke="#003B2F" stroke-width="3" stroke-linecap="round" stroke-linejoin="round"/><path d="M1366.23 917.561V896.295" stroke="#003B2F" stroke-width="3" stroke-linecap="round" stroke-linejoin="round"/><path d="M1354.05 917.561V896.295" stroke="#003B2F" stroke-width="3" stroke-linecap="round" stroke-linejoin="round"/><path d="M1341.87 917.561V896.295" stroke="#003B2F" stroke-width="3" stroke-linecap="round" stroke-linejoin="round"/><path d="M1329.69 917.561V896.295" stroke="#003B2F" stroke-width="3" stroke-linecap="round" stroke-linejoin="round"/><path d="M1317.51 917.561V896.295" stroke="#003B2F" stroke-width="3" stroke-linecap="round" stroke-linejoin="round"/><path d="M1366.23 881.866V860.6" stroke="#003B2F" stroke-width="3" stroke-linecap="round" stroke-linejoin="round"/><path d="M1354.05 881.866V860.6" stroke="#003B2F" stroke-width="3" stroke-linecap="round" stroke-linejoin="round"/><path d="M1341.87 881.866V860.6" stroke="#003B2F" stroke-width="3" stroke-linecap="round" stroke-linejoin="round"/><path d="M1329.69 881.866V860.6" stroke="#003B2F" stroke-width="3" stroke-linecap="round" stroke-linejoin="round"/><path d="M1317.51 881.866V860.6" stroke="#003B2F" stroke-width="3" stroke-linecap="round" stroke-linejoin="round"/><path d="M1351.61 810.386V789.119" stroke="#003B2F" stroke-width="3" stroke-linecap="round" stroke-linejoin="round"/><path d="M1339.44 810.386V789.119" stroke="#003B2F" stroke-width="3" stroke-linecap="round" stroke-linejoin="round"/><path d="M1327.26 810.386V789.119" stroke="#003B2F" stroke-width="3" stroke-linecap="round" stroke-linejoin="round"/><path d="M1315.08 810.386V789.119" stroke="#003B2F" stroke-width="3" stroke-linecap="round" stroke-linejoin="round"/><path d="M1302.8 810.386V789.119" stroke="#003B2F" stroke-width="3" stroke-linecap="round" stroke-linejoin="round"/><path d="M1366.23 774.598V753.331" stroke="#003B2F" stroke-width="3" stroke-linecap="round" stroke-linejoin="round"/><path d="M1354.05 774.598V753.331" stroke="#003B2F" stroke-width="3" stroke-linecap="round" stroke-linejoin="round"/><path d="M1341.87 774.598V753.331" stroke="#003B2F" stroke-width="3" stroke-linecap="round" stroke-linejoin="round"/><path d="M1329.69 774.598V753.331" stroke="#003B2F" stroke-width="3" stroke-linecap="round" stroke-linejoin="round"/><path d="M1317.51 774.598V753.331" stroke="#003B2F" stroke-width="3" stroke-linecap="round" stroke-linejoin="round"/><path d="M1365.39 738.903V717.637" stroke="#003B2F" stroke-width="3" stroke-linecap="round" stroke-linejoin="round"/><path d="M1353.21 738.903V717.637" stroke="#003B2F" stroke-width="3" stroke-linecap="round" stroke-linejoin="round"/><path d="M1341.03 738.903V717.637" stroke="#003B2F" stroke-width="3" stroke-linecap="round" stroke-linejoin="round"/><path d="M1328.85 738.903V717.637" stroke="#003B2F" stroke-width="3" stroke-linecap="round" stroke-linejoin="round"/><path d="M1316.67 738.903V717.637" stroke="#003B2F" stroke-width="3" stroke-linecap="round" stroke-linejoin="round"/><path d="M1350.21 703.117V681.85" stroke="#003B2F" stroke-width="3" stroke-linecap="round" stroke-linejoin="round"/><path d="M1338.03 703.117V681.85" stroke="#003B2F" stroke-width="3" stroke-linecap="round" stroke-linejoin="round"/><path d="M1325.85 703.117V681.85" stroke="#003B2F" stroke-width="3" stroke-linecap="round" stroke-linejoin="round"/><path d="M1313.58 703.117V681.85" stroke="#003B2F" stroke-width="3" stroke-linecap="round" stroke-linejoin="round"/><path d="M1301.4 703.117V681.85" stroke="#003B2F" stroke-width="3" stroke-linecap="round" stroke-linejoin="round"/><path d="M1365.39 667.422V646.156" stroke="#003B2F" stroke-width="3" stroke-linecap="round" stroke-linejoin="round"/><path d="M1353.21 667.422V646.156" stroke="#003B2F" stroke-width="3" stroke-linecap="round" stroke-linejoin="round"/><path d="M1341.03 667.422V646.156" stroke="#003B2F" stroke-width="3" stroke-linecap="round" stroke-linejoin="round"/><path d="M1328.85 667.422V646.156" stroke="#003B2F" stroke-width="3" stroke-linecap="round" stroke-linejoin="round"/><path d="M1316.67 667.422V646.156" stroke="#003B2F" stroke-width="3" stroke-linecap="round" stroke-linejoin="round"/><path d="M1367.17 846.08V824.814" stroke="#003B2F" stroke-width="3" stroke-linecap="round" stroke-linejoin="round"/><path d="M1354.89 846.08V824.814" stroke="#003B2F" stroke-width="3" stroke-linecap="round" stroke-linejoin="round"/><path d="M1342.71 846.08V824.814" stroke="#003B2F" stroke-width="3" stroke-linecap="round" stroke-linejoin="round"/><path d="M1330.54 846.08V824.814" stroke="#003B2F" stroke-width="3" stroke-linecap="round" stroke-linejoin="round"/><path d="M1318.36 846.08V824.814" stroke="#003B2F" stroke-width="3" stroke-linecap="round" stroke-linejoin="round"/><path d="M1329.5 960.376H1176.7C1173.08 960.376 1170.15 963.312 1170.15 966.934V989.325C1170.15 992.946 1173.08 995.883 1176.7 995.883H1329.5C1333.13 995.883 1336.06 992.946 1336.06 989.325V966.934C1336.06 963.312 1333.13 960.376 1329.5 960.376Z" fill="#03FC9D"/><path d="M1314.51 960.376H1291.28V995.883H1314.51V960.376Z" fill="#BFFEE5"/><path d="M1329.5 924.59H1176.7C1173.08 924.59 1170.15 927.526 1170.15 931.148V953.539C1170.15 957.16 1173.08 960.097 1176.7 960.097H1329.5C1333.13 960.097 1336.06 957.16 1336.06 953.539V931.148C1336.06 927.526 1333.13 924.59 1329.5 924.59Z" fill="#03FC9D"/><path d="M1314.51 924.59H1291.28V960.097H1314.51V924.59Z" fill="#BFFEE5"/><path d="M1329.5 888.895H1176.7C1173.08 888.895 1170.15 891.831 1170.15 895.453V917.844C1170.15 921.466 1173.08 924.402 1176.7 924.402H1329.5C1333.13 924.402 1336.06 921.466 1336.06 917.844V895.453C1336.06 891.831 1333.13 888.895 1329.5 888.895Z" fill="#03FC9D"/><path d="M1314.51 888.895H1291.28V924.402H1314.51V888.895Z" fill="#BFFEE5"/><path d="M1329.5 853.201H1176.7C1173.08 853.201 1170.15 856.137 1170.15 859.759V882.15C1170.15 885.771 1173.08 888.707 1176.7 888.707H1329.5C1333.13 888.707 1336.06 885.771 1336.06 882.15V859.759C1336.06 856.137 1333.13 853.201 1329.5 853.201Z" fill="#03FC9D"/><path d="M1314.51 853.201H1291.28V888.707H1314.51V853.201Z" fill="#BFFEE5"/><path d="M1329.5 817.506H1176.7C1173.08 817.506 1170.15 820.442 1170.15 824.064V846.455C1170.15 850.077 1173.08 853.013 1176.7 853.013H1329.5C1333.13 853.013 1336.06 850.077 1336.06 846.455V824.064C1336.06 820.442 1333.13 817.506 1329.5 817.506Z" fill="#03FC9D"/><path d="M1314.51 817.506H1291.28V853.013H1314.51V817.506Z" fill="#BFFEE5"/><path d="M1329.5 960.376H1176.7C1173.08 960.376 1170.15 963.312 1170.15 966.934V989.325C1170.15 992.946 1173.08 995.883 1176.7 995.883H1329.5C1333.13 995.883 1336.06 992.946 1336.06 989.325V966.934C1336.06 963.312 1333.13 960.376 1329.5 960.376Z" stroke="#003B2F" stroke-width="3" stroke-linecap="round" stroke-linejoin="round"/><path d="M1329.5 924.59H1176.7C1173.08 924.59 1170.15 927.526 1170.15 931.148V953.539C1170.15 957.16 1173.08 960.097 1176.7 960.097H1329.5C1333.13 960.097 1336.06 957.16 1336.06 953.539V931.148C1336.06 927.526 1333.13 924.59 1329.5 924.59Z" stroke="#003B2F" stroke-width="3" stroke-linecap="round" stroke-linejoin="round"/><path d="M1329.5 888.895H1176.7C1173.08 888.895 1170.15 891.831 1170.15 895.453V917.844C1170.15 921.466 1173.08 924.402 1176.7 924.402H1329.5C1333.13 924.402 1336.06 921.466 1336.06 917.844V895.453C1336.06 891.831 1333.13 888.895 1329.5 888.895Z" stroke="#003B2F" stroke-width="3" stroke-linecap="round" stroke-linejoin="round"/><path d="M1329.5 853.201H1176.7C1173.08 853.201 1170.15 856.137 1170.15 859.759V882.15C1170.15 885.771 1173.08 888.707 1176.7 888.707H1329.5C1333.13 888.707 1336.06 885.771 1336.06 882.15V859.759C1336.06 856.137 1333.13 853.201 1329.5 853.201Z" stroke="#003B2F" stroke-width="3" stroke-linecap="round" stroke-linejoin="round"/><path d="M1329.5 817.506H1176.7C1173.08 817.506 1170.15 820.442 1170.15 824.064V846.455C1170.15 850.077 1173.08 853.013 1176.7 853.013H1329.5C1333.13 853.013 1336.06 850.077 1336.06 846.455V824.064C1336.06 820.442 1333.13 817.506 1329.5 817.506Z" stroke="#003B2F" stroke-width="3" stroke-linecap="round" stroke-linejoin="round"/><path d="M1252.21 988.294V967.027" stroke="#003B2F" stroke-width="3" stroke-linecap="round" stroke-linejoin="round"/><path d="M1240.04 988.294V967.027" stroke="#003B2F" stroke-width="3" stroke-linecap="round" stroke-linejoin="round"/><path d="M1227.86 988.294V967.027" stroke="#003B2F" stroke-width="3" stroke-linecap="round" stroke-linejoin="round"/><path d="M1215.68 988.294V967.027" stroke="#003B2F" stroke-width="3" stroke-linecap="round" stroke-linejoin="round"/><path d="M1203.5 988.294V967.027" stroke="#003B2F" stroke-width="3" stroke-linecap="round" stroke-linejoin="round"/><path d="M1252.21 953.256V931.989" stroke="#003B2F" stroke-width="3" stroke-linecap="round" stroke-linejoin="round"/><path d="M1240.04 953.256V931.989" stroke="#003B2F" stroke-width="3" stroke-linecap="round" stroke-linejoin="round"/><path d="M1227.86 953.256V931.989" stroke="#003B2F" stroke-width="3" stroke-linecap="round" stroke-linejoin="round"/><path d="M1215.68 953.256V931.989" stroke="#003B2F" stroke-width="3" stroke-linecap="round" stroke-linejoin="round"/><path d="M1203.5 953.256V931.989" stroke="#003B2F" stroke-width="3" stroke-linecap="round" stroke-linejoin="round"/><path d="M1252.21 917.563V896.297" stroke="#003B2F" stroke-width="3" stroke-linecap="round" stroke-linejoin="round"/><path d="M1240.04 917.563V896.297" stroke="#003B2F" stroke-width="3" stroke-linecap="round" stroke-linejoin="round"/><path d="M1227.86 917.563V896.297" stroke="#003B2F" stroke-width="3" stroke-linecap="round" stroke-linejoin="round"/><path d="M1215.68 917.563V896.297" stroke="#003B2F" stroke-width="3" stroke-linecap="round" stroke-linejoin="round"/><path d="M1203.5 917.563V896.297" stroke="#003B2F" stroke-width="3" stroke-linecap="round" stroke-linejoin="round"/><path d="M1252.21 881.869V860.602" stroke="#003B2F" stroke-width="3" stroke-linecap="round" stroke-linejoin="round"/><path d="M1240.04 881.869V860.602" stroke="#003B2F" stroke-width="3" stroke-linecap="round" stroke-linejoin="round"/><path d="M1227.86 881.869V860.602" stroke="#003B2F" stroke-width="3" stroke-linecap="round" stroke-linejoin="round"/><path d="M1215.68 881.869V860.602" stroke="#003B2F" stroke-width="3" stroke-linecap="round" stroke-linejoin="round"/><path d="M1203.5 881.869V860.602" stroke="#003B2F" stroke-width="3" stroke-linecap="round" stroke-linejoin="round"/><path d="M1253.06 846.081V824.814" stroke="#003B2F" stroke-width="3" stroke-linecap="round" stroke-linejoin="round"/><path d="M1240.88 846.081V824.814" stroke="#003B2F" stroke-width="3" stroke-linecap="round" stroke-linejoin="round"/><path d="M1228.7 846.081V824.814" stroke="#003B2F" stroke-width="3" stroke-linecap="round" stroke-linejoin="round"/><path d="M1216.52 846.081V824.814" stroke="#003B2F" stroke-width="3" stroke-linecap="round" stroke-linejoin="round"/><path d="M1204.34 846.081V824.814" stroke="#003B2F" stroke-width="3" stroke-linecap="round" stroke-linejoin="round"/><path d="M1322.85 781.533H1170.05C1166.43 781.533 1163.49 784.469 1163.49 788.091V810.481C1163.49 814.103 1166.43 817.039 1170.05 817.039H1322.85C1326.47 817.039 1329.41 814.103 1329.41 810.481V788.091C1329.41 784.469 1326.47 781.533 1322.85 781.533Z" fill="#03FC9D"/><path d="M1307.86 781.533H1284.63V817.039H1307.86V781.533Z" fill="#BFFEE5"/><path d="M1322.85 781.533H1170.05C1166.43 781.533 1163.49 784.469 1163.49 788.091V810.481C1163.49 814.103 1166.43 817.039 1170.05 817.039H1322.85C1326.47 817.039 1329.41 814.103 1329.41 810.481V788.091C1329.41 784.469 1326.47 781.533 1322.85 781.533Z" stroke="#003B2F" stroke-width="3" stroke-linecap="round" stroke-linejoin="round"/><path d="M1246.5 810.2V788.934" stroke="#003B2F" stroke-width="3" stroke-linecap="round" stroke-linejoin="round"/><path d="M1234.23 810.2V788.934" stroke="#003B2F" stroke-width="3" stroke-linecap="round" stroke-linejoin="round"/><path d="M1222.05 810.2V788.934" stroke="#003B2F" stroke-width="3" stroke-linecap="round" stroke-linejoin="round"/><path d="M1209.87 810.2V788.934" stroke="#003B2F" stroke-width="3" stroke-linecap="round" stroke-linejoin="round"/><path d="M1197.69 810.201V788.934" stroke="#003B2F" stroke-width="3" stroke-linecap="round" stroke-linejoin="round"/><path d="M1335.03 745.65H1182.23C1178.61 745.65 1175.67 748.586 1175.67 752.208V774.599C1175.67 778.221 1178.61 781.157 1182.23 781.157H1335.03C1338.65 781.157 1341.59 778.221 1341.59 774.599V752.208C1341.59 748.586 1338.65 745.65 1335.03 745.65Z" fill="#03FC9D"/><path d="M1320.04 745.65H1296.81V781.157H1320.04V745.65Z" fill="#BFFEE5"/><path d="M1335.03 745.65H1182.23C1178.61 745.65 1175.67 748.586 1175.67 752.208V774.599C1175.67 778.221 1178.61 781.157 1182.23 781.157H1335.03C1338.65 781.157 1341.59 778.221 1341.59 774.599V752.208C1341.59 748.586 1338.65 745.65 1335.03 745.65Z" stroke="#003B2F" stroke-width="3" stroke-linecap="round" stroke-linejoin="round"/><path d="M1258.68 774.318V753.052" stroke="#003B2F" stroke-width="3" stroke-linecap="round" stroke-linejoin="round"/><path d="M1246.5 774.318V753.052" stroke="#003B2F" stroke-width="3" stroke-linecap="round" stroke-linejoin="round"/><path d="M1234.23 774.318V753.052" stroke="#003B2F" stroke-width="3" stroke-linecap="round" stroke-linejoin="round"/><path d="M1222.05 774.318V753.052" stroke="#003B2F" stroke-width="3" stroke-linecap="round" stroke-linejoin="round"/><path d="M1209.87 774.319V753.052" stroke="#003B2F" stroke-width="3" stroke-linecap="round" stroke-linejoin="round"/><path d="M822.603 924.026C806.021 918.218 789.626 913.065 788.97 888.332C788.783 879.338 794.778 870.157 799.837 862.756C810.424 847.392 817.544 838.211 817.45 824.252C817.356 798.863 793.279 783.78 769.858 783.218C769.858 783.218 769.483 783.218 769.296 783.218C769.109 783.218 768.921 783.218 768.734 783.218C745.313 783.873 721.235 798.863 721.142 824.345C721.142 838.398 728.168 847.486 738.755 862.85C743.814 870.251 749.809 879.432 749.622 888.426C749.06 913.159 732.665 918.218 715.989 924.12C697.158 930.772 684.136 948.01 683.012 967.871L686.197 995.883H852.207L855.393 967.871C854.268 947.916 841.246 930.678 822.415 924.12L822.603 924.026Z" fill="#003B2F"/><path d="M812.578 927.682C828.786 933.396 839.56 943.327 843.869 956.537" stroke="white" stroke-width="3" stroke-linecap="round" stroke-linejoin="round"/><path d="M789.907 797.927C796.184 800.644 804.522 807.576 807.145 818.069" stroke="white" stroke-width="3" stroke-linecap="round" stroke-linejoin="round"/><path d="M686.947 968.715H850.427" stroke="white" stroke-width="3" stroke-linecap="round" stroke-linejoin="round"/><path d="M686.947 975.366H850.427" stroke="white" stroke-width="3" stroke-linecap="round" stroke-linejoin="round"/><path d="M638.8 331.181V330.058L642.203 326.374C642.875 325.658 643.409 325.069 643.805 324.607C644.213 324.144 644.51 323.731 644.697 323.368C644.884 323.005 644.978 322.619 644.978 322.212C644.978 321.54 644.78 321.023 644.383 320.659C643.987 320.296 643.464 320.114 642.814 320.114C642.153 320.114 641.592 320.307 641.129 320.692C640.667 321.067 640.348 321.601 640.171 322.294L638.701 321.914C638.844 321.254 639.109 320.681 639.494 320.197C639.88 319.712 640.359 319.338 640.931 319.073C641.504 318.809 642.131 318.677 642.814 318.677C643.563 318.677 644.218 318.826 644.78 319.123C645.352 319.409 645.798 319.811 646.118 320.329C646.448 320.846 646.613 321.446 646.613 322.129C646.613 322.581 646.52 323.021 646.332 323.451C646.145 323.88 645.87 324.337 645.507 324.822C645.143 325.295 644.67 325.846 644.086 326.473L641.047 329.777H646.877V331.181H638.8ZM653.792 331.379C652.812 331.379 651.953 331.115 651.216 330.586C650.489 330.047 649.922 329.303 649.514 328.356C649.107 327.398 648.903 326.286 648.903 325.02C648.903 323.753 649.107 322.647 649.514 321.7C649.922 320.742 650.489 319.998 651.216 319.47C651.942 318.941 652.796 318.677 653.776 318.677C654.756 318.677 655.609 318.941 656.336 319.47C657.063 319.998 657.63 320.742 658.037 321.7C658.456 322.647 658.665 323.753 658.665 325.02C658.665 326.286 658.461 327.398 658.054 328.356C657.646 329.314 657.074 330.058 656.336 330.586C655.609 331.115 654.761 331.379 653.792 331.379ZM653.792 329.876C654.453 329.876 655.026 329.678 655.51 329.281C655.995 328.874 656.369 328.307 656.633 327.58C656.909 326.853 657.046 326 657.046 325.02C657.046 324.04 656.909 323.186 656.633 322.46C656.369 321.733 655.989 321.171 655.494 320.775C655.009 320.378 654.436 320.18 653.776 320.18C653.115 320.18 652.542 320.378 652.058 320.775C651.573 321.171 651.193 321.733 650.918 322.46C650.654 323.186 650.522 324.04 650.522 325.02C650.522 325.989 650.654 326.837 650.918 327.563C651.193 328.29 651.573 328.857 652.058 329.265C652.553 329.672 653.132 329.876 653.792 329.876ZM665.745 331.379C664.765 331.379 663.906 331.115 663.168 330.586C662.441 330.047 661.874 329.303 661.467 328.356C661.059 327.398 660.856 326.286 660.856 325.02C660.856 323.753 661.059 322.647 661.467 321.7C661.874 320.742 662.441 319.998 663.168 319.47C663.895 318.941 664.748 318.677 665.728 318.677C666.708 318.677 667.562 318.941 668.289 319.47C669.015 319.998 669.582 320.742 669.99 321.7C670.408 322.647 670.618 323.753 670.618 325.02C670.618 326.286 670.414 327.398 670.006 328.356C669.599 329.314 669.026 330.058 668.289 330.586C667.562 331.115 666.714 331.379 665.745 331.379ZM665.745 329.876C666.406 329.876 666.978 329.678 667.463 329.281C667.947 328.874 668.322 328.307 668.586 327.58C668.861 326.853 668.999 326 668.999 325.02C668.999 324.04 668.861 323.186 668.586 322.46C668.322 321.733 667.942 321.171 667.446 320.775C666.962 320.378 666.389 320.18 665.728 320.18C665.068 320.18 664.495 320.378 664.011 320.775C663.526 321.171 663.146 321.733 662.871 322.46C662.607 323.186 662.474 324.04 662.474 325.02C662.474 325.989 662.607 326.837 662.871 327.563C663.146 328.29 663.526 328.857 664.011 329.265C664.506 329.672 665.084 329.876 665.745 329.876ZM676.905 331.379C676.079 331.379 675.347 331.214 674.708 330.883C674.08 330.553 673.585 330.107 673.221 329.546C672.869 328.973 672.693 328.334 672.693 327.63C672.693 326.837 672.913 326.143 673.353 325.548C673.794 324.954 674.4 324.53 675.17 324.276L675.137 324.689C674.554 324.458 674.097 324.089 673.766 323.583C673.447 323.065 673.287 322.509 673.287 321.914C673.287 321.287 673.441 320.731 673.75 320.246C674.069 319.762 674.499 319.382 675.038 319.106C675.589 318.82 676.211 318.677 676.905 318.677C677.598 318.677 678.215 318.815 678.755 319.09C679.294 319.365 679.718 319.751 680.026 320.246C680.346 320.731 680.505 321.287 680.505 321.914C680.505 322.542 680.335 323.104 679.993 323.599C679.663 324.095 679.223 324.464 678.672 324.706L678.622 324.276C679.404 324.53 680.015 324.959 680.456 325.565C680.896 326.159 681.117 326.848 681.117 327.63C681.117 328.334 680.935 328.973 680.572 329.546C680.219 330.107 679.724 330.553 679.085 330.883C678.457 331.214 677.731 331.379 676.905 331.379ZM676.905 329.975C677.422 329.975 677.874 329.876 678.259 329.678C678.645 329.479 678.942 329.204 679.151 328.852C679.371 328.488 679.481 328.075 679.481 327.613C679.481 327.139 679.371 326.727 679.151 326.374C678.942 326.011 678.645 325.736 678.259 325.548C677.874 325.35 677.422 325.251 676.905 325.251C676.387 325.251 675.93 325.35 675.534 325.548C675.148 325.736 674.851 326.011 674.642 326.374C674.433 326.727 674.328 327.139 674.328 327.613C674.328 328.075 674.433 328.488 674.642 328.852C674.851 329.204 675.148 329.479 675.534 329.678C675.93 329.876 676.387 329.975 676.905 329.975ZM676.905 323.847C677.279 323.847 677.609 323.764 677.896 323.599C678.193 323.434 678.43 323.214 678.606 322.939C678.782 322.652 678.87 322.322 678.87 321.947C678.87 321.573 678.782 321.248 678.606 320.973C678.43 320.698 678.193 320.483 677.896 320.329C677.609 320.164 677.279 320.081 676.905 320.081C676.519 320.081 676.178 320.164 675.881 320.329C675.583 320.483 675.347 320.698 675.17 320.973C674.994 321.248 674.906 321.573 674.906 321.947C674.906 322.322 674.994 322.652 675.17 322.939C675.347 323.214 675.583 323.434 675.881 323.599C676.178 323.764 676.519 323.847 676.905 323.847Z" fill="#003B2F"/><path d="M502.702 670.527V667.983L510.41 659.64C511.931 658.018 513.141 656.684 514.039 655.636C514.962 654.589 515.635 653.653 516.059 652.83C516.483 652.007 516.695 651.134 516.695 650.211C516.695 648.69 516.246 647.517 515.348 646.694C514.451 645.871 513.266 645.459 511.794 645.459C510.297 645.459 509.025 645.896 507.978 646.769C506.93 647.617 506.207 648.827 505.808 650.398L502.478 649.538C502.802 648.041 503.401 646.744 504.274 645.647C505.147 644.549 506.232 643.701 507.529 643.102C508.826 642.504 510.248 642.204 511.794 642.204C513.49 642.204 514.974 642.541 516.246 643.215C517.543 643.863 518.554 644.774 519.277 645.946C520.025 647.118 520.399 648.478 520.399 650.024C520.399 651.047 520.187 652.044 519.763 653.017C519.339 653.99 518.716 655.025 517.893 656.123C517.07 657.195 515.997 658.442 514.675 659.864L507.791 667.347H520.998V670.527H502.702ZM536.661 670.976C534.441 670.976 532.496 670.378 530.824 669.18C529.178 667.958 527.894 666.275 526.971 664.129C526.048 661.959 525.586 659.44 525.586 656.572C525.586 653.703 526.048 651.196 526.971 649.051C527.894 646.881 529.178 645.198 530.824 644C532.471 642.803 534.404 642.204 536.624 642.204C538.844 642.204 540.777 642.803 542.423 644C544.069 645.198 545.354 646.881 546.277 649.051C547.225 651.196 547.698 653.703 547.698 656.572C547.698 659.44 547.237 661.959 546.314 664.129C545.391 666.299 544.094 667.983 542.423 669.18C540.777 670.378 538.856 670.976 536.661 670.976ZM536.661 667.572C538.158 667.572 539.455 667.123 540.552 666.225C541.65 665.302 542.498 664.017 543.096 662.371C543.72 660.725 544.032 658.792 544.032 656.572C544.032 654.352 543.72 652.419 543.096 650.772C542.498 649.126 541.637 647.854 540.515 646.956C539.417 646.058 538.12 645.609 536.624 645.609C535.127 645.609 533.83 646.058 532.733 646.956C531.635 647.854 530.775 649.126 530.151 650.772C529.552 652.419 529.253 654.352 529.253 656.572C529.253 658.767 529.552 660.687 530.151 662.334C530.775 663.98 531.635 665.264 532.733 666.187C533.855 667.11 535.165 667.572 536.661 667.572ZM552.174 670.527V667.983L559.882 659.64C561.403 658.018 562.613 656.684 563.511 655.636C564.434 654.589 565.108 653.653 565.532 652.83C565.956 652.007 566.168 651.134 566.168 650.211C566.168 648.69 565.719 647.517 564.821 646.694C563.923 645.871 562.738 645.459 561.266 645.459C559.77 645.459 558.498 645.896 557.45 646.769C556.402 647.617 555.679 648.827 555.28 650.398L551.95 649.538C552.274 648.041 552.873 646.744 553.746 645.647C554.619 644.549 555.704 643.701 557.001 643.102C558.298 642.504 559.72 642.204 561.266 642.204C562.962 642.204 564.447 642.541 565.719 643.215C567.016 643.863 568.026 644.774 568.749 645.946C569.498 647.118 569.872 648.478 569.872 650.024C569.872 651.047 569.66 652.044 569.236 653.017C568.812 653.99 568.188 655.025 567.365 656.123C566.542 657.195 565.469 658.442 564.147 659.864L557.263 667.347H570.47V670.527H552.174ZM587.489 670.527V664.092H573.795V661.061L587.414 642.653H590.931V661.061H594.56V664.092H590.931V670.527H587.489ZM576.564 662.371L576.04 661.061H587.489V645.721L588.574 646.021L576.564 662.371Z" fill="#003B2F"/><path d="M490.424 651.043L485.755 662.706" stroke="white" stroke-width="3" stroke-linecap="round" stroke-linejoin="round"/><path d="M482.326 671.274L477.677 682.886" stroke="white" stroke-width="3" stroke-linecap="round" stroke-linejoin="round"/><path d="M468.093 660.606L479.757 665.275" stroke="white" stroke-width="3" stroke-linecap="round" stroke-linejoin="round"/><path d="M488.272 668.684L499.936 673.353" stroke="white" stroke-width="3" stroke-linecap="round" stroke-linejoin="round"/><path d="M544.507 465.954V464.248L549.675 458.653C550.695 457.566 551.507 456.671 552.109 455.968C552.728 455.266 553.179 454.639 553.463 454.087C553.748 453.535 553.89 452.949 553.89 452.331C553.89 451.31 553.589 450.524 552.987 449.972C552.385 449.42 551.59 449.144 550.603 449.144C549.6 449.144 548.747 449.437 548.044 450.022C547.342 450.591 546.857 451.402 546.589 452.456L544.356 451.879C544.574 450.875 544.975 450.006 545.561 449.27C546.146 448.534 546.874 447.965 547.743 447.564C548.613 447.162 549.566 446.962 550.603 446.962C551.741 446.962 552.736 447.187 553.589 447.639C554.459 448.074 555.136 448.684 555.621 449.471C556.123 450.257 556.374 451.168 556.374 452.205C556.374 452.891 556.232 453.56 555.947 454.212C555.663 454.865 555.245 455.559 554.693 456.295C554.141 457.014 553.422 457.85 552.535 458.803L547.919 463.821H556.775V465.954H544.507ZM567.278 466.255C565.789 466.255 564.485 465.853 563.364 465.05C562.26 464.231 561.399 463.102 560.78 461.663C560.161 460.208 559.852 458.519 559.852 456.596C559.852 454.672 560.161 452.991 560.78 451.553C561.399 450.098 562.26 448.969 563.364 448.166C564.468 447.363 565.764 446.962 567.253 446.962C568.741 446.962 570.038 447.363 571.142 448.166C572.245 448.969 573.107 450.098 573.726 451.553C574.361 452.991 574.679 454.672 574.679 456.596C574.679 458.519 574.37 460.208 573.751 461.663C573.132 463.119 572.262 464.248 571.142 465.05C570.038 465.853 568.75 466.255 567.278 466.255ZM567.278 463.972C568.281 463.972 569.151 463.671 569.887 463.068C570.623 462.45 571.192 461.588 571.593 460.484C572.011 459.38 572.22 458.084 572.22 456.596C572.22 455.107 572.011 453.811 571.593 452.707C571.192 451.603 570.615 450.75 569.862 450.148C569.126 449.546 568.256 449.245 567.253 449.245C566.249 449.245 565.38 449.546 564.644 450.148C563.908 450.75 563.331 451.603 562.913 452.707C562.511 453.811 562.31 455.107 562.31 456.596C562.31 458.067 562.511 459.355 562.913 460.459C563.331 461.563 563.908 462.425 564.644 463.043C565.396 463.662 566.274 463.972 567.278 463.972ZM580.791 465.954V449.395H577.254V447.263H583.275V465.954H580.791ZM593.212 466.255C592.008 466.255 590.937 465.987 590.001 465.452C589.081 464.917 588.353 464.189 587.818 463.269C587.283 462.333 587.015 461.27 587.015 460.083C587.015 459.431 587.09 458.787 587.241 458.151C587.391 457.516 587.634 456.872 587.968 456.219C588.303 455.567 588.729 454.89 589.248 454.187L594.517 447.263H597.477L591.029 455.642L590.578 455.592C590.829 455.258 591.105 454.998 591.406 454.814C591.723 454.63 592.058 454.497 592.409 454.413C592.777 454.329 593.162 454.287 593.563 454.287C594.667 454.287 595.654 454.547 596.524 455.065C597.41 455.567 598.104 456.261 598.606 457.148C599.124 458.034 599.384 459.054 599.384 460.208C599.384 461.362 599.116 462.399 598.581 463.319C598.046 464.223 597.31 464.942 596.373 465.477C595.453 465.995 594.399 466.255 593.212 466.255ZM593.212 464.047C593.914 464.047 594.542 463.888 595.094 463.57C595.646 463.236 596.08 462.776 596.398 462.19C596.733 461.605 596.9 460.953 596.9 460.233C596.9 459.481 596.741 458.829 596.423 458.277C596.105 457.708 595.671 457.256 595.119 456.922C594.567 456.587 593.931 456.42 593.212 456.42C592.509 456.42 591.874 456.587 591.305 456.922C590.737 457.256 590.293 457.708 589.976 458.277C589.658 458.829 589.499 459.481 589.499 460.233C589.499 460.953 589.658 461.605 589.976 462.19C590.31 462.776 590.753 463.236 591.305 463.57C591.874 463.888 592.509 464.047 593.212 464.047Z" fill="#003B2F"/><path d="M1533.79 659.895L1519.43 645.53L1505.06 659.895L1519.43 674.261L1533.79 659.895Z" stroke="#003B2F" stroke-width="3" stroke-linecap="round" stroke-linejoin="round"/><path d="M360.637 937.463H328.435C338.662 937.463 346.885 929.931 346.885 920.671C346.885 911.411 338.593 903.879 328.435 903.879H235.908C225.681 903.879 217.458 911.411 217.458 920.671H189.057C178.83 920.671 170.607 928.203 170.607 937.463C170.607 946.722 178.899 954.254 189.057 954.254H249.659C249.659 963.514 257.951 971.046 268.109 971.046H360.637C370.864 971.046 379.087 963.514 379.087 954.254C379.087 944.995 370.795 937.463 360.637 937.463Z" fill="#E6E8EA"/><path d="M304.388 925.508H327.468" stroke="#003B2F" stroke-width="3" stroke-linecap="round" stroke-linejoin="round"/><path d="M271.011 864.076H438.238" stroke="#03FC9D" stroke-width="3" stroke-linecap="round" stroke-linejoin="round"/><path d="M357.32 925.439H450.814" stroke="#003B2F" stroke-width="3" stroke-linecap="round" stroke-linejoin="round"/><path d="M405.931 480.539C412.533 480.539 417.885 475.187 417.885 468.585C417.885 461.983 412.533 456.63 405.931 456.63C399.328 456.63 393.976 461.983 393.976 468.585C393.976 475.187 399.328 480.539 405.931 480.539Z" stroke="#003B2F" stroke-width="3" stroke-linecap="round" stroke-linejoin="round"/><path d="M204.26 328.291H181.192" stroke="#03FC9D" stroke-width="3" stroke-linecap="round" stroke-linejoin="round"/><path d="M300.673 368.094H133.873" stroke="#003B2F" stroke-width="3" stroke-linecap="round" stroke-linejoin="round"/><path d="M151.421 328.429H58.1627" stroke="#03FC9D" stroke-width="3" stroke-linecap="round" stroke-linejoin="round"/><path d="M683.047 538.884V554.501" stroke="#003B2F" stroke-width="3" stroke-linecap="round" stroke-linejoin="round"/><path d="M683.047 565.971V581.519" stroke="#003B2F" stroke-width="3" stroke-linecap="round" stroke-linejoin="round"/><path d="M661.694 560.236H677.311" stroke="#003B2F" stroke-width="3" stroke-linecap="round" stroke-linejoin="round"/><path d="M688.713 560.236H704.33" stroke="#003B2F" stroke-width="3" stroke-linecap="round" stroke-linejoin="round"/><path d="M638.886 111.95L655.609 121.555" stroke="#003B2F" stroke-width="3" stroke-linecap="round" stroke-linejoin="round"/><path d="M672.332 111.95L662.519 117.617" stroke="#003B2F" stroke-width="3" stroke-linecap="round" stroke-linejoin="round"/><path d="M655.609 121.555V141.111" stroke="#003B2F" stroke-width="3" stroke-linecap="round" stroke-linejoin="round"/><path d="M925.837 336.13C926.273 329.271 920.393 326.222 912.554 324.48L914.187 315.116L908.09 314.354L906.566 323.5C904.932 323.174 903.19 323.065 901.666 322.956L903.19 313.701L897.093 312.939L895.46 322.303C894.153 322.085 892.738 321.976 891.431 321.867L882.939 320.669L881.85 326.767C881.85 326.767 886.423 327.311 886.314 327.42C888.818 327.855 889.362 329.271 889.471 330.469L887.62 341.139L885.116 356.164C885.007 356.926 884.245 358.015 882.503 357.797L878.039 357.144L875.644 363.786L883.701 364.875C885.225 365.092 886.641 365.419 888.056 365.528L886.423 375.001L892.52 375.763L894.153 366.399C895.787 366.726 897.42 366.943 898.944 367.052L897.311 376.416L903.408 377.178L905.041 367.706C915.494 368.577 923.224 367.052 925.62 358.124C927.579 350.938 924.422 347.236 918.869 345.058C922.68 343.861 925.402 341.03 925.728 336.13H925.837ZM913.861 355.402C912.663 362.479 899.597 360.084 895.569 359.431L897.746 346.909C901.993 347.454 915.167 347.998 913.969 355.402H913.861ZM913.861 337.219C912.772 343.643 901.884 341.465 898.508 341.03L900.468 329.598C903.953 330.033 915.058 330.469 913.969 337.219H913.861Z" fill="#003B2F"/><path d="M887.417 781.851L902.811 801.128L944.971 753.42" stroke="#003B2F" stroke-width="3" stroke-linecap="round" stroke-linejoin="round"/><mask id="mask0_793_375" style="mask-type:luminance" maskUnits="userSpaceOnUse" x="111" y="482" width="200" height="199"><path d="M286.717 482.02L111.788 506.013L135.781 680.942L310.71 656.949L286.717 482.02Z" fill="white"/></mask><g mask="url(#mask0_793_375)"><path d="M223.286 668.955C271.604 662.324 305.387 617.795 298.755 569.478C292.123 521.16 247.595 487.377 199.277 494.009C150.959 500.641 117.177 545.169 123.809 593.487C130.44 641.805 174.969 675.587 223.286 668.955Z" fill="#03FC9D"/><path d="M195.064 622.682L180.129 624.727C176.988 625.15 175.442 625.375 174.42 624.876C173.872 624.602 173.398 624.203 173.024 623.704C172.65 623.206 172.401 622.632 172.301 622.034C172.077 620.887 172.65 619.366 173.822 616.3L201.396 543.624C202.568 540.532 203.166 538.986 204.089 538.313C204.588 537.964 205.161 537.74 205.759 537.64C206.358 537.565 206.981 537.64 207.529 537.839C208.602 538.238 209.599 539.56 211.543 542.227L220.993 554.943C223.137 557.835 224.234 559.281 224.832 560.876C225.505 562.597 225.755 564.491 225.58 566.336C225.43 568.032 224.782 569.727 223.511 573.093L209.05 611.363C207.754 614.779 207.106 616.474 206.059 617.845C204.962 619.316 203.515 620.463 201.845 621.261C200.349 621.934 198.579 622.159 195.089 622.657L195.064 622.682ZM251.659 609.344L229.046 612.46C225.705 612.909 224.034 613.158 222.962 612.66C222.389 612.41 221.89 612.011 221.516 611.538C221.117 611.039 220.868 610.466 220.743 609.867C220.519 608.745 221.167 607.225 222.464 604.208L231.19 583.938C232.461 580.946 233.109 579.475 234.082 578.802C234.605 578.453 235.204 578.229 235.827 578.129C236.45 578.029 237.099 578.104 237.697 578.304C238.819 578.678 239.841 579.924 241.885 582.442L255.772 599.62C257.842 602.188 258.889 603.46 258.989 604.607C259.039 605.23 258.939 605.853 258.689 606.427C258.44 607 258.066 607.499 257.592 607.898C256.67 608.671 255 608.895 251.659 609.369V609.344Z" fill="#003B2F"/></g><path fill-rule="evenodd" clip-rule="evenodd" d="M399.822 208.812C414.856 175.229 454.273 160.17 487.881 175.229C521.465 190.263 536.523 229.68 521.465 263.288C506.431 296.871 467.014 311.93 433.406 296.871C399.798 281.812 384.764 242.42 399.822 208.812Z" fill="#03FC9D"/><path d="M469.806 256.083L467.063 253.041C466.764 252.717 466.365 252.517 465.941 252.492C465.517 252.467 465.069 252.592 464.745 252.866C461.678 255.384 458.063 256.257 454.498 254.661C451.281 253.215 449.412 250.498 448.838 246.459C448.614 244.888 448.614 243.268 448.813 241.547L458.013 245.661C458.586 245.91 459.284 245.836 459.783 245.437L463.299 243.492C463.523 243.317 463.697 243.068 463.797 242.819C463.897 242.545 463.947 242.27 463.897 241.971C463.847 241.697 463.747 241.423 463.573 241.173C463.398 240.949 463.174 240.749 462.9 240.65L450.459 235.09C450.708 234.417 450.982 233.769 451.256 233.12C451.531 232.472 451.855 231.824 452.179 231.201L462.426 235.788C462.999 236.062 463.697 235.963 464.171 235.564L467.687 233.619C467.911 233.444 468.085 233.195 468.185 232.946C468.285 232.672 468.335 232.397 468.285 232.098C468.235 231.824 468.135 231.55 467.961 231.3C467.786 231.076 467.562 230.876 467.288 230.777L455.869 225.666C459.958 221.028 465.019 219.034 469.482 221.128C472.897 222.649 474.717 225.691 475.066 229.505C475.141 230.353 475.889 231.001 476.737 231.001H480.85C481.848 231.051 482.621 230.203 482.546 229.231C481.922 222.125 478.557 217.189 472.448 214.446C466.889 211.953 461.454 212.153 456.118 214.995C453.002 216.665 450.259 219.059 447.916 222.125L442.904 219.882C442.331 219.632 441.633 219.707 441.134 220.106L437.619 222.051C437.394 222.225 437.22 222.474 437.12 222.724C437.02 222.998 436.97 223.272 437.02 223.571C437.07 223.846 437.17 224.12 437.344 224.369C437.519 224.594 437.743 224.793 438.018 224.893L444.4 227.735C443.752 229.007 443.154 230.278 442.63 231.599L438.466 229.73C437.893 229.48 437.195 229.555 436.696 229.954L433.181 231.899C432.957 232.073 432.782 232.323 432.682 232.572C432.583 232.846 432.533 233.12 432.583 233.42C432.632 233.694 432.732 233.968 432.907 234.217C433.081 234.442 433.306 234.641 433.58 234.741L440.76 237.957C438.865 248.279 442.58 257.578 451.406 261.368C457.639 264.16 463.697 263.188 469.581 258.476C469.756 258.326 469.905 258.152 470.005 257.952C470.105 257.753 470.18 257.529 470.18 257.304C470.18 257.08 470.18 256.855 470.08 256.631C470.005 256.407 469.881 256.207 469.731 256.033L469.806 256.083Z" fill="#003B2F"/><path d="M417 242.245C415.729 233.42 417.1 224.095 421.613 215.494C431.86 195.972 455.271 186.997 475.939 194.676C486.809 198.715 495.037 206.493 499.849 215.917C500.073 216.366 500.447 216.715 500.921 216.89C501.37 217.089 501.893 217.114 502.367 216.965L506.506 215.643C507.727 215.244 508.325 213.848 507.777 212.701C502.242 201.482 492.693 192.182 480.078 187.146C455.046 177.173 426.175 187.994 413.884 211.978C408.574 222.35 407.028 233.594 408.698 244.19C408.898 245.462 410.194 246.234 411.416 245.861L415.554 244.539C416.028 244.39 416.427 244.09 416.701 243.667C416.976 243.243 417.075 242.744 417 242.245ZM504.312 229.854C505.583 238.68 504.187 248.005 499.674 256.606C489.427 276.128 466.016 285.103 445.348 277.424C434.478 273.385 426.25 265.606 421.413 256.182C421.189 255.734 420.815 255.384 420.341 255.21C419.892 255.01 419.369 254.986 418.895 255.135L414.757 256.457C413.535 256.855 412.937 258.252 413.485 259.398C419.02 270.618 428.569 279.917 441.184 284.954C466.241 294.926 495.087 284.106 507.378 260.121C512.689 249.75 514.234 238.506 512.564 227.91C512.365 226.638 511.068 225.865 509.846 226.239L505.708 227.561C505.234 227.71 504.835 228.034 504.561 228.433C504.287 228.857 504.187 229.356 504.262 229.854H504.312Z" fill="#003B2F"/><mask id="mask1_793_375" style="mask-type:luminance" maskUnits="userSpaceOnUse" x="1596" y="594" width="184" height="184"><path d="M1637.88 594.255L1596.08 735.471L1737.29 777.275L1779.1 636.058L1637.88 594.255Z" fill="white"/></mask><g mask="url(#mask1_793_375)"><path d="M1666.71 756.423C1705.7 767.957 1746.67 745.702 1758.2 706.715C1769.74 667.727 1747.48 626.758 1708.49 615.225C1669.51 603.691 1628.54 625.946 1617 664.933C1605.47 703.92 1627.73 744.889 1666.71 756.423Z" fill="#03FC9D"/><path d="M1652.35 695.473C1653.07 695.083 1653.88 695.018 1654.63 695.246L1725.03 716.104C1726.3 716.494 1726.49 718.216 1725.32 718.865L1707.29 728.645C1706.61 729.034 1705.77 729.099 1705.02 728.872L1634.61 708.014C1634.32 707.916 1634.06 707.754 1633.9 707.527C1633.74 707.299 1633.57 707.007 1633.57 706.714C1633.54 706.422 1633.57 706.129 1633.74 705.87C1633.87 705.61 1634.09 705.382 1634.35 705.252L1652.39 695.473H1652.35Z" fill="#003B2F"/><path d="M1668.05 642.515C1668.76 642.125 1669.57 642.06 1670.32 642.288L1740.72 663.146C1741.99 663.536 1742.19 665.258 1741.02 665.908L1722.98 675.687C1722.3 676.077 1721.46 676.142 1720.71 675.914L1650.31 655.056C1650.01 654.959 1649.75 654.796 1649.59 654.569C1649.4 654.341 1649.3 654.049 1649.27 653.757C1649.27 653.464 1649.27 653.172 1649.43 652.912C1649.56 652.652 1649.79 652.425 1650.05 652.295L1668.08 642.515H1668.05Z" fill="#003B2F"/><path d="M1719.74 686.636C1719.35 685.954 1718.73 685.434 1717.95 685.207L1647.54 664.349C1647.25 664.251 1646.96 664.284 1646.67 664.349C1646.37 664.446 1646.15 664.608 1645.95 664.836C1645.76 665.063 1645.66 665.356 1645.63 665.648C1645.63 665.94 1645.66 666.233 1645.79 666.493L1655.57 684.524C1655.76 684.882 1656.02 685.174 1656.32 685.434C1656.61 685.694 1656.97 685.856 1657.36 685.986L1727.76 706.845C1729.03 707.234 1730.13 705.87 1729.52 704.7L1719.7 686.669L1719.74 686.636Z" fill="#003B2F"/></g></svg>