<svg width="1676" height="857" viewBox="0 0 1676 857" fill="none" xmlns="http://www.w3.org/2000/svg"><path d="M1487.68 471.405L1508.79 483.611" stroke="#003B2F" stroke-width="3" stroke-linecap="round" stroke-linejoin="round"/><path d="M1529.82 471.405L1517.44 478.533" stroke="#003B2F" stroke-width="3" stroke-linecap="round" stroke-linejoin="round"/><path d="M1508.79 483.611V508.111" stroke="#003B2F" stroke-width="3" stroke-linecap="round" stroke-linejoin="round"/><path d="M600.767 302.398V253.13H566.823V415.545C569.763 376.255 581.078 337.589 600.767 302.398Z" fill="#03FC9D"/><path d="M566.823 455.904V544.194H588.383C576.178 515.952 568.961 486.017 566.823 455.904Z" fill="#03FC9D"/><path d="M583.749 537.779V570.031" stroke="#03FC9D" stroke-width="5" stroke-linecap="round" stroke-linejoin="round"/><path d="M583.749 221.145V294.735" stroke="#03FC9D" stroke-width="5" stroke-linecap="round" stroke-linejoin="round"/><path d="M1387 215.176H1353.06V451.449H1387V215.176Z" fill="#03FC9D"/><path d="M1370.08 183.103V473.366" stroke="#03FC9D" stroke-width="5" stroke-linecap="round" stroke-linejoin="round"/><path d="M1209.62 243.597H1175.68V355.229H1209.62V243.597Z" fill="#03FC9D"/><path d="M1192.61 231.302V365.208" stroke="#03FC9D" stroke-width="5" stroke-linecap="round" stroke-linejoin="round"/><path d="M511.407 467.664H477.463V509.002H511.407V467.664Z" fill="#E6E8EA"/><path d="M494.479 457.15V522.099" stroke="#E6E8EA" stroke-width="5" stroke-linecap="round" stroke-linejoin="round"/><path d="M556.132 452.25H522.188V484.235H556.132V452.25Z" fill="#E6E8EA"/><path d="M539.114 441.738V493.589" stroke="#E6E8EA" stroke-width="5" stroke-linecap="round" stroke-linejoin="round"/><path d="M337.321 582.592H303.377V630.791H337.321V582.592Z" fill="#E6E8EA"/><path d="M320.303 572.079V646.65" stroke="#E6E8EA" stroke-width="5" stroke-linecap="round" stroke-linejoin="round"/><path d="M381.242 591.591H347.298V610.656H381.242V591.591Z" fill="#E6E8EA"/><path d="M364.316 581.078V620.1" stroke="#E6E8EA" stroke-width="5" stroke-linecap="round" stroke-linejoin="round"/><path d="M1164.99 308.812H1131.04V327.878H1164.99V308.812Z" fill="#E6E8EA"/><path d="M1148.06 278.254V354.16" stroke="#E6E8EA" stroke-width="5" stroke-linecap="round" stroke-linejoin="round"/><path d="M1252.39 318.434H1218.44V358.258H1252.39V318.434Z" fill="#E6E8EA"/><path d="M1235.37 302.843V376.789" stroke="#E6E8EA" stroke-width="5" stroke-linecap="round" stroke-linejoin="round"/><path d="M1086.32 317.187V318.969C1092.82 332.778 1098.17 346.944 1102.18 361.377H1120.26V317.187H1086.32Z" fill="#E6E8EA"/><path d="M1103.25 286.717V345.696" stroke="#E6E8EA" stroke-width="5" stroke-linecap="round" stroke-linejoin="round"/><path d="M419.196 537.779H385.252V597.025H419.196V537.779Z" fill="#E6E8EA"/><path d="M402.181 527.266V612.794" stroke="#E6E8EA" stroke-width="5" stroke-linecap="round" stroke-linejoin="round"/><path d="M1434.85 250.1H1400.9V309.347H1434.85V250.1Z" fill="#03FC9D"/><path d="M1417.83 239.677V325.205" stroke="#03FC9D" stroke-width="5" stroke-linecap="round" stroke-linejoin="round"/><path d="M290.636 574.307H256.692V633.553H290.636V574.307Z" fill="#03FC9D"/><path d="M273.708 563.883V649.412" stroke="#03FC9D" stroke-width="5" stroke-linecap="round" stroke-linejoin="round"/><path d="M1295.24 337.856H1261.3V389.708H1295.24V337.856Z" fill="#E6E8EA"/><path d="M1278.31 318.434V403.25" stroke="#E6E8EA" stroke-width="5" stroke-linecap="round" stroke-linejoin="round"/><path d="M1339.61 294.736H1305.66V403.339H1339.61V294.736Z" fill="#03FC9D"/><path d="M1322.59 282.441V445.301" stroke="#03FC9D" stroke-width="5" stroke-linecap="round" stroke-linejoin="round"/><path d="M465.258 445.925H431.314V554.261H465.258V445.925Z" fill="#03FC9D"/><path d="M448.33 423.118V567.358" stroke="#03FC9D" stroke-width="5" stroke-linecap="round" stroke-linejoin="round"/><path d="M244.041 547.757H210.097V743.137H244.041V547.757Z" fill="#03FC9D"/><path d="M227.024 511.229V785.188" stroke="#03FC9D" stroke-width="5" stroke-linecap="round" stroke-linejoin="round"/><path d="M210.097 762.648L588.116 543.659" stroke="#003B2F" stroke-width="7" stroke-linecap="round" stroke-linejoin="round"/><path d="M1059.68 274.333L1370.08 146.575" stroke="#003B2F" stroke-width="7" stroke-linecap="round" stroke-linejoin="round"/><path d="M293.042 203.416H224.085C216.458 203.416 210.276 209.579 210.276 217.181C210.276 224.783 216.458 230.946 224.085 230.946H293.042C300.669 230.946 306.852 224.783 306.852 217.181C306.852 209.579 300.669 203.416 293.042 203.416Z" fill="#03FC9D"/><path d="M255.712 164.75H142.654C130.205 164.75 120.114 174.842 120.114 187.29C120.114 199.739 130.205 209.831 142.654 209.831H255.712C268.16 209.831 278.252 199.739 278.252 187.29C278.252 174.842 268.16 164.75 255.712 164.75Z" fill="#03FC9D"/><path d="M149.871 369.306H321.106" stroke="#003B2F" stroke-width="3" stroke-linecap="round" stroke-linejoin="round"/><path d="M105.236 369.306H120.114" stroke="#003C2E" stroke-width="3" stroke-linecap="round" stroke-linejoin="round"/><path d="M234.687 322.176H387.035" stroke="#03FC9D" stroke-width="3" stroke-linecap="round" stroke-linejoin="round"/><path d="M925.597 128.578H956.601" stroke="#003B2F" stroke-width="3" stroke-linecap="round" stroke-linejoin="round"/><path d="M1038.57 94.5458H1190.29" stroke="#03FC9D" stroke-width="3" stroke-linecap="round" stroke-linejoin="round"/><path d="M996.692 128.49H1122.4" stroke="#003B2F" stroke-width="3" stroke-linecap="round" stroke-linejoin="round"/><path d="M659.657 747.591H635.423" stroke="#003B2F" stroke-width="3" stroke-linecap="round" stroke-linejoin="round"/><path d="M593.817 702.243H418.661" stroke="#03FC9D" stroke-width="3" stroke-linecap="round" stroke-linejoin="round"/><path d="M604.152 747.413H506.24" stroke="#003B2F" stroke-width="3" stroke-linecap="round" stroke-linejoin="round"/><path d="M1358.85 702.065H1315.55C1329.27 702.065 1340.41 691.998 1340.41 679.525C1340.41 667.052 1329.27 656.984 1315.55 656.984H1191.18C1177.46 656.984 1166.32 667.052 1166.32 679.525H1128.1C1114.38 679.525 1103.25 689.592 1103.25 702.065C1103.25 714.538 1114.38 724.605 1128.1 724.605H1209.62C1209.62 737.078 1220.76 747.146 1234.48 747.146H1358.85C1372.57 747.146 1383.71 737.078 1383.71 724.605C1383.71 712.133 1372.57 702.065 1358.85 702.065Z" fill="#E6E8EA"/><path d="M458.754 227.293C500.003 217.582 525.484 176.243 515.773 134.994C506.062 93.7439 464.723 68.2635 423.473 77.9746C382.224 87.6856 356.743 129.024 366.454 170.274C376.165 211.524 417.504 237.004 458.754 227.293Z" fill="#03FC9D"/><path d="M405.654 135.528C401.021 132.499 396.388 129.648 391.577 126.886L403.783 124.035C409.128 127.42 414.474 130.717 419.73 134.102L426.768 138.468C429.352 140.161 432.381 141.052 435.5 140.963C438.618 140.963 441.558 139.804 444.052 137.933C445.478 136.775 446.814 135.35 447.705 133.746L449.754 130.361C450.467 129.202 451.18 127.955 451.982 126.708C452.783 125.46 454.031 123.233 455.1 121.54C457.327 117.888 459.465 114.502 461.693 110.493L473.809 107.642C472.74 109.424 471.671 111.206 470.602 112.988L462.405 125.817C461.158 127.777 460.089 129.826 458.752 131.786L454.387 138.824C453.051 140.963 451.447 142.923 449.398 144.526C446.28 147.021 442.627 148.624 438.796 149.337C434.876 150.05 430.867 149.694 427.214 148.446C425.076 147.644 423.116 146.575 421.334 145.239C419.285 143.992 417.325 142.655 415.275 141.408C413.226 140.25 412.336 139.448 410.732 138.557C409.128 137.666 407.257 136.508 405.654 135.528ZM473.72 168.047L468.82 164.928C467.305 163.859 465.702 163.057 464.276 162.077L459.554 159.137C454.743 156.108 448.952 154.95 443.34 155.93C442.627 156.019 441.914 156.197 441.201 156.465C439.954 156.821 438.707 157.266 437.46 157.801C433.718 159.494 430.421 162.256 428.105 165.641C427.392 166.799 426.679 168.047 425.877 169.205C422.314 175.085 418.483 181.321 414.919 187.38C413.405 189.696 412.157 192.012 410.554 194.418L408.415 197.981L420.443 195.131C422.759 191.3 425.076 187.558 427.303 183.816C428.55 181.856 429.619 179.807 430.867 178.025L434.787 171.076C436.568 168.314 439.241 166.176 442.449 165.106C445.567 164.037 449.041 164.037 452.16 165.106C453.674 165.73 455.1 166.443 456.436 167.423C458.04 168.403 459.643 169.383 461.247 170.452C462.851 171.521 465.078 172.947 467.038 174.016L478.264 181.143L490.202 178.292C488.42 177.223 486.817 176.065 485.035 175.085C481.293 173.125 477.462 170.541 473.72 168.136V168.047Z" fill="#003B2F"/><path d="M464.99 223.195C506.24 213.484 531.72 172.145 522.009 130.895C512.298 89.6454 470.959 64.1651 429.71 73.8761C388.46 83.5872 362.979 124.926 372.69 166.176C382.401 207.425 423.74 232.906 464.99 223.195Z" stroke="#003B2F" stroke-width="3" stroke-linecap="round" stroke-linejoin="round"/><path d="M1345.84 702.778C1376.49 695.561 1395.56 664.736 1388.25 634.088C1380.95 603.44 1350.21 584.374 1319.56 591.68C1288.91 598.986 1269.85 629.722 1277.15 660.37C1284.46 691.018 1315.2 710.083 1345.84 702.778Z" fill="#03FC9D"/><path d="M1306.38 634.444C1302.99 632.217 1299.52 630.078 1295.95 628.029L1305.04 625.891C1308.96 628.475 1312.97 630.88 1316.89 633.375L1322.15 636.582C1324.02 637.829 1326.33 638.542 1328.65 638.453C1330.97 638.453 1333.19 637.651 1334.98 636.226C1336.05 635.335 1337.03 634.266 1337.74 633.108L1339.25 630.613C1339.79 629.722 1340.32 628.831 1340.86 627.94C1341.39 627.049 1342.37 625.357 1343.17 624.109C1344.78 621.347 1346.38 618.853 1348.07 615.913L1357.16 613.775C1356.36 615.111 1355.56 616.447 1354.75 617.784L1348.61 627.406C1347.63 628.831 1346.83 630.435 1345.93 631.86L1342.73 637.117C1341.75 638.72 1340.5 640.146 1339.07 641.393C1336.76 643.264 1334.09 644.422 1331.15 644.957C1328.29 645.491 1325.26 645.224 1322.5 644.244C1320.9 643.62 1319.47 642.819 1318.14 641.839C1316.62 640.859 1315.11 639.879 1313.59 638.988C1312.08 638.097 1311.37 637.562 1310.21 636.849C1309.05 636.137 1307.62 635.335 1306.47 634.533L1306.38 634.444ZM1357.07 658.588L1353.42 656.272C1352.26 655.47 1351.1 654.935 1350.03 654.133L1346.56 651.906C1342.99 649.679 1338.63 648.788 1334.44 649.501C1333.91 649.501 1333.37 649.679 1332.84 649.857C1331.86 650.124 1330.97 650.481 1330.08 650.837C1327.23 652.084 1324.82 654.133 1323.13 656.717C1322.59 657.608 1322.06 658.499 1321.43 659.301C1318.76 663.666 1315.91 668.299 1313.24 672.843C1312.08 674.535 1311.19 676.317 1310.03 678.099L1308.43 680.772L1317.34 678.634C1319.12 675.783 1320.81 673.021 1322.41 670.17C1323.39 668.744 1324.2 667.23 1325.09 665.804L1328.03 660.637C1329.36 658.588 1331.32 656.984 1333.73 656.182C1336.04 655.381 1338.63 655.381 1340.95 656.182C1342.1 656.628 1343.17 657.162 1344.15 657.875C1345.4 658.588 1346.56 659.39 1347.72 660.192C1348.87 660.993 1350.57 662.063 1352.08 662.864L1360.46 668.21L1369.37 666.072C1368.03 665.27 1366.87 664.468 1365.53 663.666C1362.77 662.152 1359.92 660.281 1357.07 658.499V658.588Z" fill="#003B2F"/><path d="M1350.57 699.749C1381.21 692.532 1400.28 661.706 1392.97 631.059C1385.67 600.411 1354.93 581.345 1324.28 588.651C1293.64 595.956 1274.57 626.693 1281.88 657.341C1289.09 687.988 1319.92 707.054 1350.57 699.749Z" stroke="#003B2F" stroke-width="3" stroke-linecap="round" stroke-linejoin="round"/><path d="M1204.1 151.564C1225.04 146.575 1238.04 125.549 1233.05 104.613C1228.06 83.6761 1207.04 70.6686 1186.1 75.6578C1165.17 80.6469 1152.16 101.673 1157.15 122.609C1162.14 143.546 1183.16 156.553 1204.1 151.564Z" fill="#03FC9D"/><path d="M1177.1 104.969C1174.79 103.455 1172.38 102.029 1169.98 100.515L1176.21 99.0891C1178.89 100.871 1181.65 102.475 1184.32 104.256L1187.88 106.484C1189.22 107.375 1190.73 107.82 1192.34 107.731C1193.94 107.731 1195.46 107.196 1196.7 106.216C1197.42 105.593 1198.13 104.88 1198.57 104.078L1199.64 102.385C1200 101.762 1200.36 101.138 1200.8 100.515C1201.25 99.8909 1201.87 98.7327 1202.41 97.8418C1203.47 95.9708 1204.63 94.2781 1205.79 92.229L1211.94 90.8035C1211.4 91.6944 1210.87 92.5853 1210.34 93.4763L1206.15 99.98C1205.52 100.96 1204.99 102.029 1204.28 103.009L1202.05 106.573C1201.43 107.642 1200.53 108.622 1199.55 109.513C1197.95 110.76 1196.17 111.651 1194.12 111.918C1192.16 112.275 1190.11 112.097 1188.24 111.473C1187.17 111.027 1186.19 110.493 1185.21 109.869C1184.14 109.246 1183.16 108.533 1182.09 107.909C1181.02 107.286 1180.58 106.929 1179.78 106.484C1178.97 106.038 1177.99 105.415 1177.19 104.88L1177.1 104.969ZM1211.76 121.451L1209.27 119.848C1208.46 119.313 1207.66 118.868 1206.95 118.422L1204.54 116.907C1202.05 115.393 1199.11 114.769 1196.26 115.304C1195.9 115.304 1195.55 115.482 1195.19 115.571C1194.57 115.749 1193.94 116.017 1193.32 116.284C1191.36 117.175 1189.75 118.511 1188.6 120.293C1188.24 120.828 1187.88 121.54 1187.44 122.075C1185.66 125.104 1183.7 128.222 1181.83 131.34C1181.02 132.499 1180.4 133.657 1179.6 134.904L1178.53 136.686L1184.59 135.26C1185.75 133.3 1186.9 131.43 1188.06 129.469C1188.69 128.489 1189.22 127.42 1189.93 126.529L1191.89 122.966C1192.78 121.54 1194.21 120.471 1195.81 119.937C1197.42 119.402 1199.11 119.402 1200.71 119.937C1201.51 120.204 1202.23 120.649 1202.85 121.095C1203.65 121.629 1204.45 122.075 1205.26 122.609C1206.06 123.144 1207.22 123.857 1208.2 124.391L1213.9 128.044L1219.96 126.619C1219.07 126.084 1218.26 125.46 1217.37 125.015C1215.5 124.035 1213.54 122.698 1211.58 121.451H1211.76Z" fill="#003B2F"/><path d="M1207.22 149.515C1228.15 144.526 1241.16 123.5 1236.17 102.564C1231.18 81.6271 1210.16 68.6197 1189.22 73.6088C1168.28 78.598 1155.28 99.6237 1160.27 120.56C1165.26 141.497 1186.28 154.505 1207.22 149.515Z" stroke="#003B2F" stroke-width="3" stroke-linecap="round" stroke-linejoin="round"/><path d="M834.81 656.041C965.152 651.854 1067.43 542.805 1063.33 412.464C1059.14 282.122 950.095 179.844 819.753 183.942C689.412 188.13 587.134 297.178 591.232 427.52C595.419 557.862 704.468 660.14 834.81 656.041Z" fill="#03FC9D"/><path d="M855.301 673.058C985.643 668.87 1087.92 559.822 1083.82 429.48C1079.64 299.138 970.587 196.86 840.245 200.959C709.903 205.146 607.625 314.195 611.724 444.536C615.911 574.878 724.96 677.156 855.301 673.058Z" stroke="#003B2F" stroke-width="3" stroke-linecap="round" stroke-linejoin="round"/><path d="M750.261 357.761C738.145 345.11 725.85 332.815 712.932 320.431H753.023C767.011 334.954 781.176 349.119 795.164 363.463L813.784 382.083C820.466 389.3 829.286 394.289 838.908 396.338C848.53 398.387 858.597 397.318 867.596 393.309C873.03 390.814 877.93 387.34 882.118 383.063L890.849 374.154C894.056 370.947 896.996 367.65 900.381 364.443C903.767 361.236 909.291 355.088 914.013 350.634C923.546 340.744 932.633 332.013 942.522 321.144H982.435C977.803 325.777 973.259 330.677 968.448 335.31L933.435 369.254C928 374.332 923.189 380.034 917.755 385.112L899.135 403.733C893.433 409.524 886.84 414.335 879.534 417.898C868.13 423.333 855.568 425.738 843.006 425.026C830.444 424.313 818.239 420.304 807.548 413.622C801.578 409.524 796.233 404.713 791.511 399.278C786.076 393.843 780.909 388.32 775.475 383.063C770.04 377.807 767.634 374.867 763.536 370.947C759.438 367.027 754.181 362.038 750.083 357.672L750.261 357.761ZM937.979 508.772L924.971 495.498C921.051 491.221 916.775 487.479 913.033 483.203L900.56 470.552C887.731 457.544 870.625 449.793 852.45 448.546C850.133 448.368 847.728 448.368 845.323 448.546C841.135 448.724 836.948 449.259 832.85 450.061C819.843 452.644 807.815 458.703 798.015 467.612C794.807 470.552 791.867 473.937 788.482 476.966C772.98 492.647 756.587 509.04 740.907 525.433C734.581 531.402 728.968 537.727 722.286 544.053L713.11 553.586H752.489C762.556 543.518 772.445 533.451 782.157 523.383C787.591 518.305 792.402 512.781 797.658 507.881L815.032 489.261C822.693 481.866 832.582 477.323 843.095 476.254C853.697 475.274 864.299 477.857 873.119 483.648C877.396 486.588 881.316 489.974 884.701 493.894C888.978 498.17 893.254 502.447 897.353 506.901C901.451 511.356 907.42 517.325 912.855 522.225L942.522 552.606H981.633C977.001 547.973 972.724 543.251 968.003 538.796C957.935 529.887 947.868 519.018 937.979 508.772Z" fill="#003B2F"/></svg>