<svg width="1676" height="857" viewBox="0 0 1676 857" fill="none" xmlns="http://www.w3.org/2000/svg"><path d="M184.253 480.002L204.994 491.955" stroke="#003B2F" stroke-width="3" stroke-linecap="round" stroke-linejoin="round"/><path d="M225.736 480.002L213.608 487.033" stroke="#003B2F" stroke-width="3" stroke-linecap="round" stroke-linejoin="round"/><path d="M204.994 491.955V516.212" stroke="#003B2F" stroke-width="3" stroke-linecap="round" stroke-linejoin="round"/><path d="M189.351 634.949H247.357" stroke="#003B2F" stroke-width="3" stroke-linecap="round" stroke-linejoin="round"/><path d="M145.319 634.949H159.908" stroke="#003B2F" stroke-width="3" stroke-linecap="round" stroke-linejoin="round"/><path d="M197.787 595.048H348.076" stroke="#03FC9D" stroke-width="3" stroke-linecap="round" stroke-linejoin="round"/><path d="M1422.07 394.839L1435.78 408.55" stroke="#003B2F" stroke-width="3" stroke-linecap="round" stroke-linejoin="round"/><path d="M1445.8 418.569L1459.51 432.191" stroke="#003B2F" stroke-width="3" stroke-linecap="round" stroke-linejoin="round"/><path d="M1422.07 432.191L1435.78 418.569" stroke="#003B2F" stroke-width="3" stroke-linecap="round" stroke-linejoin="round"/><path d="M1445.8 408.55L1459.51 394.839" stroke="#003B2F" stroke-width="3" stroke-linecap="round" stroke-linejoin="round"/><path d="M1145.04 409.956C1154.65 409.956 1162.45 402.164 1162.45 392.554C1162.45 382.943 1154.65 375.152 1145.04 375.152C1135.43 375.152 1127.64 382.943 1127.64 392.554C1127.64 402.164 1135.43 409.956 1145.04 409.956Z" stroke="#003B2F" stroke-width="3" stroke-linecap="round" stroke-linejoin="round"/><path d="M1169.65 786.995H1291.64C1305.09 786.995 1315.99 776.095 1315.99 762.65C1315.99 749.204 1305.09 738.305 1291.64 738.305H1169.65C1156.21 738.305 1145.31 749.204 1145.31 762.65C1145.31 776.095 1156.21 786.995 1169.65 786.995Z" fill="#03FC9D"/><path d="M1235.92 749.73H1435.6C1457.64 749.73 1475.5 731.885 1475.5 709.873C1475.5 687.86 1457.64 670.016 1435.6 670.016H1235.92C1213.88 670.016 1196.02 687.86 1196.02 709.873C1196.02 731.885 1213.88 749.73 1235.92 749.73Z" fill="#03FC9D"/><path d="M1454.32 193.136H1409.32C1423.56 193.136 1435.07 182.941 1435.07 170.373C1435.07 157.805 1423.56 147.61 1409.32 147.61H1280.04C1265.8 147.61 1254.29 157.805 1254.29 170.373H1214.56C1200.32 170.373 1188.81 180.568 1188.81 193.136C1188.81 205.704 1200.32 215.899 1214.56 215.899H1299.29C1299.29 228.467 1310.8 238.662 1325.04 238.662H1454.32C1468.56 238.662 1480.07 228.467 1480.07 215.899C1480.07 203.331 1468.56 193.136 1454.32 193.136Z" fill="#E6E8EA"/><path d="M1297.88 176.877H1330.14" stroke="#003B2F" stroke-width="3" stroke-linecap="round" stroke-linejoin="round"/><path d="M1371.79 127.22H1605.4" stroke="#03FC9D" stroke-width="3" stroke-linecap="round" stroke-linejoin="round"/><path d="M1371.79 176.701H1502.4" stroke="#003B2F" stroke-width="3" stroke-linecap="round" stroke-linejoin="round"/><path d="M382.353 743.226V765.023" stroke="#003B2F" stroke-width="3" stroke-linecap="round" stroke-linejoin="round"/><path d="M382.353 781.018V802.814" stroke="#003B2F" stroke-width="3" stroke-linecap="round" stroke-linejoin="round"/><path d="M352.558 773.021H374.354" stroke="#003B2F" stroke-width="3" stroke-linecap="round" stroke-linejoin="round"/><path d="M390.262 773.021H412.146" stroke="#003B2F" stroke-width="3" stroke-linecap="round" stroke-linejoin="round"/><path d="M1167.89 541.788H1377.07" stroke="#03FC9D" stroke-width="3" stroke-linecap="round" stroke-linejoin="round"/><path d="M1143.2 569.824H1260.18" stroke="#003B2F" stroke-width="3" stroke-linecap="round" stroke-linejoin="round"/><path d="M181.352 197.97H342.012" stroke="#03FC9D" stroke-width="3" stroke-linecap="round" stroke-linejoin="round"/><path d="M281.105 224.161H405.115" stroke="#003B2F" stroke-width="3" stroke-linecap="round" stroke-linejoin="round"/><path d="M637.315 258.788V279.442" stroke="#003B2F" stroke-width="3" stroke-linecap="round" stroke-linejoin="round"/><path d="M637.315 294.559V315.3" stroke="#003B2F" stroke-width="3" stroke-linecap="round" stroke-linejoin="round"/><path d="M609.015 287H629.756" stroke="#003B2F" stroke-width="3" stroke-linecap="round" stroke-linejoin="round"/><path d="M644.873 287H665.527" stroke="#003B2F" stroke-width="3" stroke-linecap="round" stroke-linejoin="round"/><path d="M604.533 681.178H568.235C579.748 681.178 589.065 671.862 589.065 660.348C589.065 648.835 579.748 639.519 568.235 639.519H463.912C452.399 639.519 443.083 648.835 443.083 660.348H411.092C399.578 660.348 390.262 669.664 390.262 681.178C390.262 692.691 399.578 702.007 411.092 702.007H479.38C479.38 713.521 488.697 722.837 500.21 722.837H604.533C616.046 722.837 625.362 713.521 625.362 702.007C625.362 690.494 616.046 681.178 604.533 681.178Z" fill="#E6E8EA"/><path d="M297.276 387.193H446.422C462.828 387.193 476.128 373.893 476.128 357.486V357.399C476.128 340.992 462.828 327.692 446.422 327.692H297.276C280.87 327.692 267.57 340.992 267.57 357.399V357.486C267.57 373.893 280.87 387.193 297.276 387.193Z" fill="#03FC9D"/><path d="M244.808 422.611H393.953C410.36 422.611 423.659 409.311 423.659 392.905V392.817C423.659 376.411 410.36 363.111 393.953 363.111H244.808C228.401 363.111 215.101 376.411 215.101 392.817V392.905C215.101 409.311 228.401 422.611 244.808 422.611Z" fill="#03FC9D"/><path d="M837.963 806.682C827.416 806.682 816.079 806.33 803.159 805.627C749.987 802.727 689.168 794.905 640.83 758.255C624.395 745.863 609.806 730.043 597.413 711.323C575.705 678.717 561.995 638.464 558.655 598.124C556.809 575.009 552.063 554.883 568.586 543.545C584.142 532.911 606.993 538.096 623.604 535.723C660.341 530.45 700.594 527.989 750.251 527.989C778.111 527.989 806.235 528.692 833.48 529.483C893.684 531.065 955.996 532.735 1016.73 541.26C1035.1 543.809 1054.61 547.237 1072.8 554.443C1077.19 556.201 1081.15 554.619 1082.99 557.519C1085.72 561.738 1084.58 571.406 1083.96 577.734C1079.21 621.853 1064.8 664.479 1042.13 701.128C1019.01 738.481 988.778 767.132 954.766 783.831C923.126 799.387 886.037 806.682 838.138 806.682H837.963Z" fill="#03FC9D" stroke="#003B2F" stroke-width="3" stroke-linecap="round" stroke-linejoin="round"/><path d="M820.913 650.329C967.307 650.329 1085.98 611.728 1085.98 564.111C1085.98 516.494 967.307 477.893 820.913 477.893C674.518 477.893 555.843 516.494 555.843 564.111C555.843 611.728 674.518 650.329 820.913 650.329Z" fill="#003B2F"/><path d="M604.269 683.99C604.269 688.56 605.851 692.427 608.927 695.591C610.772 697.437 613.497 698.755 615.87 697.701C619.122 696.295 619.737 691.636 619.385 687.857C619.122 684.605 618.506 681.354 616.837 678.717C615.167 676.08 612.354 674.059 609.454 674.235C606.554 674.41 603.741 677.487 604.093 680.65V683.902L604.269 683.99Z" fill="#E6E8EA"/><path d="M601.456 661.842C602.335 662.282 603.302 662.721 604.181 662.369C604.884 662.018 605.323 661.227 605.675 660.436C607.257 656.481 606.905 651.735 605.499 647.692C604.093 643.649 601.72 640.046 599.347 636.443C594.777 629.499 581.33 617.722 581.77 633.63C582.033 645.056 592.756 657.096 601.544 661.842H601.456Z" fill="#E6E8EA"/><path d="M824.604 635.74C960.465 635.74 1070.6 602.726 1070.6 562.002C1070.6 521.277 960.465 488.264 824.604 488.264C688.743 488.264 578.606 521.277 578.606 562.002C578.606 602.726 688.743 635.74 824.604 635.74Z" fill="white"/><path d="M628.086 658.151C633.008 655.426 639.336 656.042 642.676 660.7C646.016 665.358 646.104 672.301 643.731 677.662C643.027 679.332 642.061 680.914 640.567 681.793C638.106 683.375 634.942 682.672 632.481 681.266C627.999 678.805 624.483 673.883 623.956 668.434C623.956 668.434 622.55 661.139 627.999 658.151H628.086Z" fill="#E6E8EA"/><path d="M646.543 703.326C644.873 710.445 644.609 712.818 648.213 719.058C649.355 720.991 651.289 723.013 653.398 722.397C655.068 721.87 655.859 719.849 656.299 718.003C657.529 712.29 656.914 706.05 654.453 700.777C653.574 698.931 652.256 696.998 650.322 696.646C648.389 696.383 646.367 699.019 647.598 700.601L646.543 703.326Z" fill="#E6E8EA"/><path d="M702.44 655.69C704.637 656.833 707.01 657.712 708.592 659.733C710.174 661.755 710.701 664.919 709.295 667.028C708.152 668.786 706.131 669.401 704.198 669.752C696.024 671.159 687.235 667.819 681.61 661.227C680.468 659.821 679.325 658.063 679.677 656.218C680.028 654.372 681.435 653.581 684.686 653.317C684.686 653.317 698.573 653.669 702.44 655.69Z" fill="#E6E8EA"/><path d="M732.146 713.432C729.421 717.563 726.345 722.133 727.048 727.231C727.927 733.647 735.749 737.514 740.759 733.998C743.923 731.801 745.417 727.67 746.472 723.715C747.526 719.76 748.142 715.014 745.681 711.85C743.747 709.39 740.407 708.774 737.507 709.653C737.507 709.653 734.783 709.478 732.146 713.52V713.432Z" fill="#E6E8EA"/><mask id="mask0_269_269" style="mask-type:luminance" maskUnits="userSpaceOnUse" x="583" y="494" width="485" height="136"><path d="M1067.88 494.24H583.879V629.763H1067.88V494.24Z" fill="white"/></mask><g mask="url(#mask0_269_269)"><path d="M667.197 540.029L690.575 542.93L710.877 545.391L727.049 547.412C736.716 541.875 752.888 537.217 773.805 534.317L766.51 529.834L757.634 524.122L747.351 517.53C710.877 522.364 683.281 530.538 667.197 540.029Z" fill="#03FC9D"/><path d="M726.697 547.412L760.446 551.543L791.558 555.41C795.777 555.322 799.292 554.531 801.05 553.476C801.577 553.037 801.841 552.773 801.841 552.422L788.306 543.721L773.629 534.317C752.799 537.305 736.716 541.963 726.873 547.5H726.697V547.412Z" fill="#E6E8EA"/><path d="M1062.17 548.027C1051.35 540.469 1029.12 542.227 1022.97 542.842L1021.39 543.018L1007.85 544.512L993.173 546.182C1006.71 556.816 1005.92 567.978 993.173 577.997L1007.85 579.667L1026.75 581.688C1048.72 584.237 1057.86 579.843 1061.29 577.558C1069.64 568.066 1070.16 557.959 1062.43 548.115H1062.25L1062.17 548.027Z" fill="#003B2F"/><path d="M993.085 546.094L969.355 548.642L948.526 550.928L932.091 552.773C939.649 559.013 939.385 565.429 932.091 571.318L948.262 573.163L969.092 575.448L992.821 577.997C1005.92 567.978 1006.71 556.816 993.173 546.182L993.085 546.094Z" fill="#03FC9D"/><path d="M932.443 552.773L898.254 556.552L866.439 560.068C863.714 560.947 862.923 562.177 864.505 563.32C865.033 563.671 865.648 563.935 866.439 564.199L898.254 567.626L932.443 571.405C939.386 565.605 940.001 559.101 932.443 552.861V552.773Z" fill="#E6E8EA"/><path d="M643.643 579.579L658.32 577.909C644.785 567.275 645.576 556.113 658.32 546.094L643.643 544.424L624.483 542.315C602.248 539.854 593.371 544.424 590.295 546.709C582.209 556.025 581.77 565.957 589.152 575.712C599.963 583.622 622.55 581.776 628.702 581.161L643.731 579.491L643.643 579.579Z" fill="#003B2F"/><path d="M658.32 577.909L682.05 575.36L702.704 573.075L719.139 571.23C711.58 564.99 711.844 558.574 719.139 552.685L702.704 550.84L682.05 548.642L658.32 546.094C645.576 556.113 644.785 567.275 658.32 577.821V577.909Z" fill="#03FC9D"/><path d="M719.226 571.318L753.415 567.538L784.879 564.111C787.603 563.232 788.394 562.001 786.812 560.859C786.285 560.419 785.318 560.156 784.527 559.892L753.063 556.464L718.875 552.685C711.932 558.574 711.58 565.077 719.226 571.23V571.318Z" fill="#E6E8EA"/><path d="M667.461 584.061L652.959 585.907L637.93 587.841C637.93 587.841 611.652 591.883 623.868 599.53C643.204 607.967 668.515 614.734 697.606 619.656C705.165 620.623 724.06 622.381 733.377 615.877L741.462 610.691L747.79 606.649C713.778 602.078 684.687 594.432 667.285 584.149H667.461V584.061Z" fill="#003B2F"/><path d="M766.95 594.256L773.893 589.862C754.206 587.137 737.42 582.567 727.137 576.767L710.965 578.7L690.663 581.161L667.285 584.061C684.511 594.256 713.426 601.99 747.615 606.561L757.897 599.969L766.774 594.256H766.95Z" fill="#03FC9D"/><path d="M774.069 589.686L788.746 580.282L802.281 571.581C801.929 570.439 799.556 569.296 795.337 568.857C794.195 568.681 792.789 568.593 791.47 568.593L760.71 572.46L726.961 576.591C737.595 582.479 754.206 586.962 773.893 589.686H774.069Z" fill="#E6E8EA"/><path d="M984.208 540.117L998.71 538.272L1014.88 536.25H1013.39C1019.19 535.547 1039.49 532.471 1028.06 524.913C1008.55 516.3 982.451 509.445 952.393 504.347C931.3 501.359 918.205 508.214 918.205 508.214L910.119 513.487L903.703 517.53C937.892 522.012 966.807 529.747 984.033 540.117H984.208Z" fill="#003B2F"/><path d="M884.719 529.747L877.776 534.229C897.463 536.953 914.25 541.524 924.708 547.412L940.88 545.479L961.182 543.018L984.208 540.117C966.982 529.922 938.067 522.1 903.879 517.53L893.596 524.122L884.719 529.747Z" fill="#03FC9D"/><path d="M877.776 534.317L863.099 543.721L849.564 552.51C849.916 553.652 852.289 554.707 856.508 555.146C857.65 555.322 859.056 555.41 860.375 555.41L891.487 551.543L925.236 547.412C914.426 541.524 897.639 537.041 877.952 534.229H877.776V534.317Z" fill="#E6E8EA"/><path d="M888.586 613.064L882.786 608.934C844.73 612.801 804.917 612.537 769.235 608.934L763.434 613.064L753.942 619.92C753.942 619.92 749.284 625.281 776.969 628.269C777.496 628.357 778.111 628.445 778.551 628.445C810.454 630.29 844.203 630.29 877.249 628.181C881.907 627.742 905.021 625.72 896.76 618.953L888.411 613.064H888.586Z" fill="#003B2F"/><path d="M882.786 608.934L873.558 602.254L865.472 596.454L859.056 591.971C836.821 594.081 813.706 593.993 792.965 591.971L786.549 596.454L778.463 602.254L769.235 608.934C804.917 612.537 844.555 612.801 882.786 608.934Z" fill="#03FC9D"/><path d="M858.792 591.883L845.433 582.303L833.217 573.515C830.141 572.724 825.483 572.548 821.264 572.987C820.122 573.163 818.979 573.339 818.188 573.515L805.972 582.303L792.613 591.883C813.706 593.817 836.469 593.993 858.704 591.883H858.88H858.792Z" fill="#E6E8EA"/><path d="M762.995 510.939L768.795 515.069C806.851 511.29 846.664 511.554 882.346 515.069L888.147 510.939L893.948 506.72C896.233 504.962 902.649 498.634 874.876 495.646C874.524 495.646 874.524 495.558 874.349 495.558C841.303 493.625 806.411 493.625 772.223 495.91C764.489 496.613 746.12 499.074 755.788 505.753L763.083 511.026H762.907L762.995 510.939Z" fill="#003B2F"/><path d="M768.795 515.069L778.024 521.749L786.109 527.549L792.525 532.12C814.761 530.01 837.875 530.098 858.617 532.12L865.033 527.549L873.118 521.749L882.347 515.069C846.664 511.466 807.027 511.202 768.795 515.069Z" fill="#03FC9D"/><path d="M792.349 532.032L805.708 541.611L818.276 550.576C821.352 551.279 825.835 551.543 829.702 551.015C831.196 550.84 832.25 550.576 833.129 550.4L845.346 541.524L858.705 531.944C837.875 530.098 814.849 529.922 792.613 532.032H792.261H792.349Z" fill="#E6E8EA"/><path d="M1013.48 587.489L1011.89 587.313L998.798 585.643L984.297 583.798C968.125 593.378 940.616 601.375 903.791 606.385L910.207 610.428L918.293 615.613C928.751 622.82 950.548 620.008 955.997 619.041C984.56 614.031 1008.91 607.352 1027.27 599.354C1027.63 599.266 1027.63 599.178 1027.8 599.002C1039.75 591.356 1019.28 588.192 1013.3 587.401H1013.48V587.489Z" fill="#003B2F"/><path d="M984.209 583.974L960.831 581.073L940.177 578.612L924.357 576.679C914.689 582.216 898.518 586.786 877.601 589.686L884.544 594.081L893.421 599.881L903.703 606.473C940.177 601.727 967.862 593.553 984.033 583.974H984.209Z" fill="#03FC9D"/><path d="M924.445 576.679L890.696 572.548L860.023 568.769C858.881 568.769 857.474 568.857 856.508 569.032C853.783 569.384 851.498 569.999 850.355 570.79C849.828 571.142 849.564 571.405 849.564 571.757L862.923 580.37L877.601 589.774C898.43 586.786 914.514 582.216 924.357 576.679H924.445Z" fill="#E6E8EA"/><path d="M652.608 538.272L667.109 540.029C684.511 529.746 713.25 522.1 747.439 517.53L741.111 513.487L734.695 509.357C731.97 507.687 720.369 501.886 693.212 505.314C693.036 505.314 692.86 505.314 692.597 505.314C664.385 510.499 639.688 517.442 621.144 525.792C617.453 527.813 610.685 533.262 634.239 535.987L652.432 538.272H652.608Z" fill="#003B2F"/></g><path d="M809.487 529.571C778.902 532.999 747.087 534.932 712.283 535.46C674.843 536.075 635.03 535.108 597.15 524.034C576.584 518.058 562.522 510.324 552.943 499.689C543.802 489.494 533.08 465.061 538.089 452.318C542.308 441.683 564.983 445.287 576.057 442.914L576.76 442.738C672.91 422.172 772.311 400.991 871.888 389.917C913.019 385.347 951.075 382.798 988.251 382.183C1003.63 381.919 1022.35 375.152 1030.17 387.808C1032.63 391.763 1033.78 404.858 1033.95 411.362C1034.74 433.07 1023.14 456.009 1002.75 472.708C983.242 488.703 958.457 497.58 936.837 504.172C897.375 516.124 855.716 524.474 809.487 529.571Z" fill="#03FC9D" stroke="#003B2F" stroke-width="3" stroke-linecap="round" stroke-linejoin="round"/><path d="M1030.88 390.62C1036.15 428.764 954.327 482.2 794.81 501.095C629.053 520.782 540.99 497.58 535.716 459.437C530.443 421.293 636.963 374.976 773.717 355.993C910.47 337.009 1025.6 352.477 1030.88 390.62Z" fill="#003B2F"/><path d="M792.398 490.263C921.819 472.258 1022.67 428.432 1017.65 392.375C1012.64 356.318 903.654 341.684 774.233 359.688C644.812 377.693 543.962 421.519 548.978 457.576C553.995 493.633 662.977 508.268 792.398 490.263Z" fill="white"/><mask id="mask1_269_269" style="mask-type:luminance" maskUnits="userSpaceOnUse" x="562" y="341" width="447" height="168"><path d="M993.724 341.918L562.892 397.72L577.196 508.151L1008.03 452.349L993.724 341.918Z" fill="white"/></mask><g mask="url(#mask1_269_269)"><path d="M641.885 425.512L662.978 425.16L681.347 424.809L695.936 424.633C703.934 419.008 717.82 413.295 736.189 408.549L729.246 405.737L720.721 402.134L710.877 398.003C678.974 406.176 655.244 415.932 641.885 425.512Z" fill="#03FC9D"/><path d="M695.673 424.633L726.082 424.106L754.206 423.666C757.897 423.139 760.973 422.084 762.467 420.942C762.819 420.59 763.083 420.238 763.083 419.975L750.075 414.438L736.013 408.461C717.82 413.295 703.934 418.92 695.76 424.633H695.585H695.673Z" fill="#E6E8EA"/><path d="M994.404 386.402C983.945 381.48 964.346 385.435 958.985 386.753L957.578 387.017L945.714 389.829L932.794 392.818C945.977 399.936 946.417 409.165 936.134 418.744L949.405 418.393L966.455 417.866C986.23 417.426 993.964 412.768 996.776 410.571C1003.19 401.87 1002.58 393.609 994.667 386.402H994.491H994.404Z" fill="#003B2F"/><path d="M932.706 392.817L911.877 397.651L893.596 401.87L879.183 405.21C886.565 409.428 887.005 414.702 881.116 420.326L895.706 419.975L914.426 419.448L935.782 418.832C946.329 409.165 945.89 400.024 932.706 392.905V392.817Z" fill="#03FC9D"/><path d="M879.446 405.21L849.388 412.241L821.44 418.744C819.067 419.799 818.54 420.854 820.034 421.645C820.473 421.821 821.088 421.996 821.879 422.084L850.531 421.205L881.379 420.326C886.916 414.789 886.829 409.428 879.446 405.21Z" fill="#E6E8EA"/><path d="M625.099 460.403L638.018 457.415C624.835 450.296 624.396 441.068 634.678 431.488L621.407 431.84L604.093 432.367C584.055 432.894 576.584 437.728 574.124 439.925C567.971 448.45 568.587 456.624 576.145 463.655C586.604 468.84 606.466 464.798 611.915 463.567L625.099 460.491V460.403Z" fill="#003B2F"/><path d="M638.018 457.327L658.848 452.494L676.953 448.275L691.366 444.935C683.984 440.717 683.544 435.443 689.433 429.818L674.58 430.258L655.947 430.873L634.591 431.488C624.308 441.068 624.747 450.296 637.93 457.327H638.018Z" fill="#03FC9D"/><path d="M691.629 444.935L721.687 437.904L749.284 431.488C751.657 430.434 752.184 429.379 750.69 428.588C750.251 428.324 749.284 428.148 748.581 428.061L720.193 428.852L689.344 429.73C683.807 435.355 684.159 440.629 691.629 444.847V444.935Z" fill="#E6E8EA"/><path d="M646.807 461.282L634.063 464.446L620.88 467.698C620.88 467.698 597.941 474.026 609.63 478.772C627.735 483.43 651.026 485.979 677.392 486.682C684.247 486.682 701.21 485.803 708.856 479.475L715.447 474.378L720.633 470.335C689.872 470.51 663.242 467.61 646.631 461.282H646.807Z" fill="#003B2F"/><path d="M736.541 458.118L742.253 453.724C724.412 453.724 709.032 451.966 699.276 448.451L685.126 451.878L667.285 456.273L646.807 461.37C663.242 467.698 689.784 470.686 720.721 470.423L729.246 463.919L736.541 458.294H736.716L736.541 458.118Z" fill="#03FC9D"/><path d="M742.341 453.636L754.382 444.232L765.544 435.619C765.104 434.74 762.907 434.125 759.04 434.213C757.985 434.213 756.755 434.301 755.612 434.476L728.631 441.156L699.1 448.363C709.208 451.966 724.5 453.724 742.253 453.636H742.429H742.341Z" fill="#E6E8EA"/><path d="M924.181 388.95L936.925 385.786L951.075 382.271L949.757 382.535C954.854 381.216 972.608 376.382 961.622 371.549C943.341 366.803 919.348 364.166 892.102 363.463C872.943 363.463 862.045 370.582 862.045 370.582L855.453 375.767L850.18 379.81C881.116 379.546 907.571 382.535 924.094 388.95H924.269H924.181Z" fill="#003B2F"/><path d="M834.535 392.027L828.823 396.509C846.664 396.509 862.044 398.267 871.976 401.87L886.125 398.442L903.967 394.048L924.181 389.038C907.746 382.71 881.204 379.634 850.267 379.898L841.742 386.402L834.447 392.027H834.535Z" fill="#03FC9D"/><path d="M828.823 396.509L816.782 405.913L805.62 414.614C806.06 415.493 808.257 416.108 812.036 416.02C813.091 416.02 814.321 415.932 815.464 415.756L842.797 409.077L872.327 401.87C862.045 398.267 846.664 396.597 828.911 396.597H828.735L828.823 396.509Z" fill="#E6E8EA"/><path d="M846.752 459.437L841.127 456.712C807.642 464.271 772.135 468.577 740.056 469.807L735.31 473.85L727.576 480.53C727.576 480.53 723.972 485.452 749.02 484.661C749.46 484.661 750.075 484.661 750.514 484.661C779.166 482.463 809.136 478.596 838.314 473.059C842.445 472.18 862.747 467.874 854.749 463.304L846.664 459.437H846.84H846.752Z" fill="#003B2F"/><path d="M841.127 456.712L832.25 452.318L824.428 448.538L818.188 445.638C798.589 449.945 778.024 452.493 759.303 453.284L754.03 457.679L747.439 463.392L739.968 469.895C772.047 468.665 807.466 464.358 841.039 456.8L841.127 456.712Z" fill="#03FC9D"/><path d="M817.925 445.638L805.005 439.398L793.14 433.598C790.328 433.334 786.109 433.598 782.418 434.564C781.451 434.828 780.484 435.092 779.781 435.355L769.762 443.968L758.864 453.284C777.848 452.406 798.15 449.945 817.749 445.638H817.925Z" fill="#E6E8EA"/><path d="M724.148 390.708L729.773 393.433C763.258 385.962 798.765 381.568 830.844 380.337L835.59 376.295L840.336 372.164C842.182 370.494 847.279 364.605 822.231 365.309C821.967 365.309 821.967 365.309 821.792 365.309C792.173 367.594 761.149 371.637 730.915 377.349C724.06 378.755 707.977 382.974 717.293 387.193L724.324 390.62H724.148V390.708Z" fill="#003B2F"/><path d="M729.773 393.433L738.65 397.827L746.472 401.606L752.712 404.595C772.311 400.288 792.877 397.739 811.597 396.948L816.87 392.466L823.462 386.841L830.932 380.338C798.853 381.568 763.434 385.874 729.861 393.433H729.773Z" fill="#03FC9D"/><path d="M752.448 404.507L765.368 410.747L777.497 416.547C780.309 416.811 784.352 416.459 787.779 415.58C789.098 415.317 790.064 414.965 790.768 414.702L800.699 406.001L811.597 396.685C792.877 397.563 772.311 400.112 752.712 404.419H752.448V404.507Z" fill="#E6E8EA"/><path d="M955.205 424.193H953.799L942.022 424.457L928.927 424.633C915.568 434.301 891.838 444.056 859.671 452.318L865.823 454.866L873.558 458.118C883.665 462.776 902.736 457.942 907.482 456.536C932.355 449.154 953.36 440.892 968.828 432.279C969.092 432.191 969.092 432.103 969.268 431.928C979.111 424.369 960.479 424.106 955.118 424.106H955.293L955.205 424.193Z" fill="#003B2F"/><path d="M928.839 424.633L907.746 424.984L889.114 425.336L874.876 425.6C866.878 431.224 852.992 436.849 834.623 441.595L841.303 444.408L849.828 448.099L859.671 452.23C891.575 444.144 915.48 434.301 928.839 424.633Z" fill="#03FC9D"/><path d="M874.788 425.688L844.379 426.215L816.694 426.654C815.727 426.742 814.409 427.006 813.53 427.27C811.157 427.885 809.136 428.588 808.257 429.379C807.818 429.73 807.642 429.994 807.642 430.258L820.473 435.707L834.535 441.683C852.728 436.849 866.615 431.312 874.788 425.6V425.688Z" fill="#E6E8EA"/><path d="M628.79 425.688L641.885 425.424C656.299 415.053 681.083 405.473 711.053 397.827L704.989 395.278L698.837 392.642C696.2 391.587 685.302 388.247 661.484 394.136C661.308 394.136 661.221 394.136 660.957 394.224C636.348 401.694 615.167 410.219 599.523 419.184C596.447 421.293 590.998 426.479 612.267 426.039L628.702 425.775H628.878L628.79 425.688Z" fill="#003B2F"/></g><path d="M1022.7 299.744C1013.04 299.744 1002.4 299.041 989.306 297.635C921.984 290.164 850.443 270.565 770.553 237.871C735.925 223.633 699.715 207.022 669.306 181.974C652.783 168.352 642.852 155.696 638.282 142.161C633.887 129.242 634.415 111.049 644.082 101.381C647.334 98.0413 652.871 96.3714 660.429 96.3714C667.988 96.3714 675.986 97.9534 681.962 99.1839L682.665 99.3596C816.958 125.902 955.821 153.235 1084.75 205.968C1098.99 211.768 1115.51 220.293 1117.71 234.971C1118.41 239.541 1117.62 244.726 1115.25 250.791C1107.43 271.093 1087.65 287.528 1062.34 294.822C1050.65 298.162 1037.64 299.832 1022.7 299.832V299.744Z" fill="#03FC9D" stroke="#003B2F" stroke-width="3" stroke-linecap="round" stroke-linejoin="round"/><path d="M1120.43 230.4C1110.24 267.489 1014 284.364 859.935 238.838C699.803 191.554 628.087 135.569 638.282 98.3928C648.477 61.3041 764.577 60.6889 897.727 97.1624C1030.88 133.636 1130.54 193.224 1120.43 230.4Z" fill="#003B2F"/><path d="M1107.52 226.834C1117.14 191.722 1022.76 135.288 896.731 100.787C770.701 66.2852 660.741 66.7804 651.129 101.893C641.516 137.005 735.892 193.439 861.922 227.94C987.952 262.442 1097.91 261.947 1107.52 226.834Z" fill="white"/><mask id="mask2_269_269" style="mask-type:luminance" maskUnits="userSpaceOnUse" x="656" y="49" width="447" height="231"><path d="M688.406 49.0268L656.311 159.139L1070.18 279.77L1102.27 169.658L688.406 49.0268Z" fill="white"/></mask><g mask="url(#mask2_269_269)"><path d="M748.845 107.006L768.18 115.18L784.967 122.298L798.238 128.011C807.817 125.902 822.758 126.166 841.303 128.978L836.205 123.529L829.965 116.674L822.671 108.764C790.328 103.578 764.84 103.315 748.757 107.006H748.845Z" fill="#03FC9D"/><path d="M797.974 127.835L825.834 139.612L851.585 150.511C855.189 151.477 858.441 151.741 860.198 151.302C860.726 151.126 861.077 150.95 861.165 150.598L851.673 140.14L841.39 128.802C822.934 126.078 807.993 125.814 798.237 127.835H798.062H797.974Z" fill="#E6E8EA"/><path d="M1084.75 211.944C1077.28 203.155 1057.86 198.937 1052.41 197.97L1051 197.706L1039.05 195.509L1026.13 193.136C1035.18 205.177 1031.84 214.053 1018.57 218.975L1030.7 223.985L1046.35 230.313C1064.54 237.871 1073.41 236.641 1076.84 235.586C1086.25 229.961 1089.06 221.875 1084.75 211.944Z" fill="#003B2F"/><path d="M1026.13 193.136L1005.21 189.357L986.845 186.017L972.344 183.381C977.353 190.324 975.508 195.509 967.949 198.497L981.308 203.946L998.534 210.977L1018.22 218.975C1031.76 214.141 1035.1 205.265 1026.04 193.224L1026.13 193.136Z" fill="#03FC9D"/><path d="M972.695 183.469L942.55 178.019L914.513 172.922C911.965 172.922 910.998 173.801 912.052 175.119C912.404 175.471 912.843 175.91 913.547 176.262L939.913 186.984L968.301 198.585C975.595 195.597 977.705 190.412 972.695 183.469Z" fill="#E6E8EA"/><path d="M719.314 133.284L732.234 135.657C723.181 123.617 726.521 114.74 739.792 109.818L727.664 104.809L711.756 98.3051C693.299 90.7467 684.598 92.2408 681.434 93.3834C672.294 99.0082 669.57 106.918 673.612 116.674C680.995 125.814 700.77 129.945 706.131 130.999L719.314 133.372V133.284Z" fill="#003B2F"/><path d="M732.234 135.57L753.151 139.349L771.344 142.689L785.846 145.325C780.836 138.382 782.682 133.197 790.24 130.208L776.617 124.672L759.479 117.728L739.792 109.731C726.521 114.652 723.182 123.529 732.322 135.482L732.234 135.57Z" fill="#03FC9D"/><path d="M786.021 145.413L816.167 150.862L843.851 155.872C846.4 155.872 847.367 154.993 846.312 153.675C845.961 153.235 845.258 152.708 844.642 152.356L818.54 141.722L790.152 130.121C782.857 133.197 781.012 138.382 786.021 145.325V145.413Z" fill="#E6E8EA"/><path d="M738.65 142.864L725.818 140.755L712.547 138.558C712.547 138.558 689.081 135.306 697.782 144.534C712.371 156.223 732.41 168 756.051 179.25C762.292 181.974 778.023 188.039 787.603 185.051L795.689 182.853L802.017 181.096C773.981 168.879 750.954 155.432 738.474 142.776H738.65V142.864Z" fill="#003B2F"/><path d="M821.352 175.91L828.295 174.065C812.124 166.946 798.853 159.036 791.382 151.741L777.144 149.28L759.215 146.204L738.562 142.689C750.866 155.256 773.805 168.791 801.929 180.92L812.299 178.195L821.264 175.822H821.44L821.352 175.91Z" fill="#03FC9D"/><path d="M828.559 173.977L843.324 169.934L856.947 166.242C856.947 165.188 855.101 163.694 851.673 162.288C850.706 161.936 849.476 161.497 848.421 161.145L821.176 156.575L791.382 151.477C799.116 158.948 812.212 166.682 828.383 173.801H828.559V173.977Z" fill="#E6E8EA"/><path d="M1019.98 186.017L1032.81 188.127L1047.05 190.5L1045.82 190.236C1051 191.027 1069.11 193.576 1061.11 184.611C1046.43 172.746 1025.78 160.618 1001.26 149.016C983.945 141.282 971.113 143.655 971.113 143.655L962.94 145.94L956.436 147.61C984.648 159.827 1007.5 173.274 1019.8 185.929H1019.98V186.017Z" fill="#003B2F"/><path d="M937.364 152.883L930.333 154.817C946.504 161.936 959.775 169.846 967.334 177.228L981.572 179.689L999.501 182.765L1019.89 186.193C1007.59 173.625 984.736 160.002 956.524 147.874L946.153 150.598L937.276 152.971L937.364 152.883Z" fill="#03FC9D"/><path d="M930.333 154.817L915.568 158.86L901.857 162.639C901.857 163.694 903.703 165.1 907.131 166.506C908.097 166.858 909.328 167.297 910.382 167.649L937.891 172.307L967.685 177.404C959.863 169.934 946.592 162.112 930.421 154.905H930.245L930.333 154.817Z" fill="#E6E8EA"/><path d="M920.929 221.524L916.974 216.778C883.489 210.45 849.476 200.255 819.858 188.478L813.882 190.412L804.126 193.663C804.126 193.663 798.853 196.827 821.879 206.231C822.231 206.407 822.846 206.583 823.198 206.759C850.091 216.251 878.919 224.6 907.658 231.192C911.789 232.07 932.003 236.113 926.554 228.555L920.753 221.612H920.929V221.524Z" fill="#003B2F"/><path d="M916.974 216.69L910.646 209.044L905.109 202.277L900.627 197.003C881.116 193.224 861.341 187.336 844.115 180.48L837.523 182.502L829.262 185.226L819.858 188.303C849.476 200.08 883.401 210.187 916.974 216.602V216.69Z" fill="#03FC9D"/><path d="M900.451 196.828L891.311 185.666L882.874 175.471C880.413 174.065 876.458 172.746 872.767 172.043C871.8 171.867 870.745 171.78 870.042 171.692L857.474 175.822L843.764 180.305C861.341 187.16 880.764 192.961 900.276 196.828H900.451Z" fill="#E6E8EA"/><path d="M837.699 107.182L841.654 112.016C875.14 118.432 909.152 128.539 938.771 140.316L944.747 138.382L950.723 136.449C953.096 135.658 960.127 132.054 937.101 122.738C936.837 122.738 936.837 122.562 936.749 122.562C908.889 112.807 879.095 104.106 849.389 97.3384C842.621 95.9322 826.274 93.3835 832.953 101.205L837.963 107.27H837.875L837.699 107.182Z" fill="#003B2F"/><path d="M841.654 112.016L847.982 119.662L853.519 126.341L857.914 131.703C877.425 135.482 897.199 141.37 914.425 148.226L921.017 146.116L929.278 143.392L938.682 140.316C909.064 128.539 875.14 118.432 841.566 112.016H841.654Z" fill="#03FC9D"/><path d="M857.737 131.703L866.878 142.864L875.491 153.235C877.952 154.553 881.731 155.872 885.158 156.487C886.389 156.751 887.444 156.838 888.234 156.838L900.802 152.62L914.513 148.138C897.199 141.458 877.512 135.57 857.913 131.703H857.649H857.737Z" fill="#E6E8EA"/><path d="M1033.78 231.895L1032.46 231.368L1021.65 226.797L1009.7 221.7C993.612 225.479 968.125 225.127 935.519 219.942L940.089 224.864L945.801 231.104C953.096 239.541 972.344 242.705 977.265 243.32C1002.84 246.396 1025.25 247.012 1042.92 245.078C1043.18 245.078 1043.27 245.078 1043.44 244.902C1055.49 241.65 1038.7 233.916 1033.78 231.807H1033.95L1033.78 231.895Z" fill="#003B2F"/><path d="M1009.61 221.7L990.272 213.526L973.222 206.319L960.127 200.782C950.547 202.892 935.694 202.54 917.062 199.728L921.984 205.089L928.224 212.032L935.518 219.942C967.773 225.215 993.436 225.479 1009.52 221.7H1009.7H1009.61Z" fill="#03FC9D"/><path d="M960.127 200.871L932.266 189.094L906.955 178.371C905.988 178.108 904.757 177.844 903.879 177.668C901.418 177.229 899.396 177.229 898.254 177.492C897.726 177.668 897.375 177.844 897.287 178.108L906.691 188.39L916.974 199.728C935.43 202.452 950.371 202.804 960.039 200.695L960.127 200.871Z" fill="#E6E8EA"/><path d="M736.804 101.909L748.845 106.918C766.158 102.963 792.525 103.842 822.846 108.676L818.452 103.842L813.882 98.8325C811.948 96.8111 803.335 89.1648 779.43 85.2099C779.254 85.2099 779.166 85.2099 778.902 85.122C753.503 82.3096 730.828 81.7822 712.986 83.9794C709.295 84.6825 702.264 87.4071 721.775 95.4927L736.804 101.909Z" fill="#003B2F"/></g></svg>