<svg width="1676" height="857" viewBox="0 0 1676 857" fill="none" xmlns="http://www.w3.org/2000/svg"><path d="M1473.22 564.38H1544.59" stroke="#003B2F" stroke-width="3" stroke-linecap="round" stroke-linejoin="round"/><path d="M1419.08 564.38H1437.04" stroke="#003B2F" stroke-width="3" stroke-linecap="round" stroke-linejoin="round"/><path d="M1264.57 723.072H1299.83" stroke="#003B2F" stroke-width="3" stroke-linecap="round" stroke-linejoin="round"/><path d="M1147.99 663.056H1403.24" stroke="#03FC9D" stroke-width="3" stroke-linecap="round" stroke-linejoin="round"/><path d="M1345.32 722.888H1488.05" stroke="#003B2F" stroke-width="3" stroke-linecap="round" stroke-linejoin="round"/><path d="M1313.74 498.932L1330.59 515.777" stroke="#003B2F" stroke-width="3" stroke-linecap="round" stroke-linejoin="round"/><path d="M1342.93 528.112L1359.78 544.957" stroke="#003B2F" stroke-width="3" stroke-linecap="round" stroke-linejoin="round"/><path d="M1313.74 544.957L1330.59 528.112" stroke="#003B2F" stroke-width="3" stroke-linecap="round" stroke-linejoin="round"/><path d="M1342.93 515.777L1359.78 498.932" stroke="#003B2F" stroke-width="3" stroke-linecap="round" stroke-linejoin="round"/><path d="M375.061 351.562V375.402" stroke="#003B2F" stroke-width="3" stroke-linecap="round" stroke-linejoin="round"/><path d="M375.061 392.8V416.64" stroke="#003B2F" stroke-width="3" stroke-linecap="round" stroke-linejoin="round"/><path d="M342.464 384.147H366.313" stroke="#003B2F" stroke-width="3" stroke-linecap="round" stroke-linejoin="round"/><path d="M383.716 384.147H407.565" stroke="#003B2F" stroke-width="3" stroke-linecap="round" stroke-linejoin="round"/><path d="M72.2045 639.031H112.812C100.013 639.031 89.6079 628.63 89.6079 615.835C89.6079 603.04 100.013 592.638 112.812 592.638H229.296C242.095 592.638 252.5 603.04 252.5 615.835H288.228C301.027 615.835 311.432 626.236 311.432 639.031C311.432 651.826 301.027 662.228 288.228 662.228H211.892C211.892 675.022 201.487 685.424 188.688 685.424H72.2045C59.4052 685.424 49 675.022 49 662.228C49 649.433 59.4052 639.031 72.2045 639.031Z" fill="#E6E8EA"/><path d="M401.949 650.721H199.185C176.86 650.721 158.762 668.813 158.762 691.131C158.762 713.449 176.86 731.541 199.185 731.541H401.949C424.274 731.541 442.372 713.449 442.372 691.131C442.372 668.813 424.274 650.721 401.949 650.721Z" fill="#03FC9D"/><path d="M197.804 288.324H229.572" stroke="#003B2F" stroke-width="3" stroke-linecap="round" stroke-linejoin="round"/><path d="M64.8377 217.078H294.857" stroke="#03FC9D" stroke-width="3" stroke-linecap="round" stroke-linejoin="round"/><path d="M270.64 288.14H399.277" stroke="#003B2F" stroke-width="3" stroke-linecap="round" stroke-linejoin="round"/><path d="M1625.65 122.231L1606.5 103.095L1587.36 122.231L1606.5 141.367L1625.65 122.231Z" stroke="#003B2F" stroke-width="3" stroke-linecap="round" stroke-linejoin="round"/><path d="M1477.37 186.058H1434.46C1448.09 186.058 1459.04 176.024 1459.04 163.69C1459.04 151.355 1447.99 141.322 1434.46 141.322H1311.16C1297.53 141.322 1286.57 151.355 1286.57 163.69H1248.73C1235.1 163.69 1224.14 173.723 1224.14 186.058C1224.14 198.392 1235.19 208.425 1248.73 208.425H1329.48C1329.48 220.76 1340.53 230.793 1354.07 230.793H1477.37C1491 230.793 1501.95 220.76 1501.95 208.425C1501.95 196.091 1490.9 186.058 1477.37 186.058Z" fill="#E6E8EA"/><path d="M1402.41 170.133H1433.17" stroke="#003B2F" stroke-width="3" stroke-linecap="round" stroke-linejoin="round"/><path d="M1357.94 88.3013H1580.78" stroke="#03FC9D" stroke-width="3" stroke-linecap="round" stroke-linejoin="round"/><path d="M1472.95 170.041H1597.53" stroke="#003B2F" stroke-width="3" stroke-linecap="round" stroke-linejoin="round"/><path d="M735.929 820C887.223 820 1009.87 813.365 1009.87 805.18C1009.87 796.995 887.223 790.36 735.929 790.36C584.634 790.36 461.986 796.995 461.986 805.18C461.986 813.365 584.634 820 735.929 820Z" fill="#E6E8EA"/><path d="M876.721 631.576C863.093 590.706 849.373 549.928 835.745 509.058C832.706 500.037 823.59 494.146 814.014 496.723C805.174 499.117 798.636 509.334 801.675 518.447C815.303 559.317 829.023 600.095 842.651 640.965C845.69 649.985 854.806 655.877 864.382 653.299C873.222 650.906 879.76 640.688 876.721 631.576Z" fill="#003B2F"/><path d="M578.745 721.783C578.929 729.423 580.863 763.113 581.876 770.754C582.704 777.013 583.533 783.456 585.835 789.347C587.953 794.962 591.452 800.854 596.885 803.799C599.832 805.456 603.147 805.732 606.277 804.351C608.764 803.247 610.697 801.13 612.171 798.829C613.736 796.343 614.749 793.582 615.762 790.82C616.959 787.322 618.156 783.732 619.169 780.05C621.194 772.871 626.535 740.93 627.732 733.566C627.916 732.645 629.666 717.181 615.025 706.595C610.421 703.281 592.005 703.926 586.572 705.951C583.902 706.963 581.507 708.62 580.218 711.106C578.469 714.327 578.745 718.009 578.837 721.599L578.745 721.783Z" fill="#003B2F"/><path d="M889.428 804.352C896.979 805.548 969.539 806.193 973.499 801.406C975.616 798.829 976.629 795.607 975.801 792.293C975.156 789.624 973.406 787.323 971.473 785.482C969.355 783.457 966.777 781.984 964.29 780.511C961.068 778.67 917.237 760.905 910.146 758.327C909.318 758.051 889.797 754.277 876.721 766.796C872.669 770.662 874.419 788.059 875.432 793.766C875.892 796.528 877.181 799.197 879.391 800.946C882.246 803.247 885.929 803.707 889.428 804.26V804.352Z" fill="#003B2F"/><path d="M938.507 716.353C937.034 708.897 922.209 665.818 914.658 652.655C910.975 646.303 907.015 640.136 902.687 634.153C896.518 625.684 890.533 620.069 879.759 618.412C871.748 617.124 861.066 619.241 853.332 621.634C843.111 624.856 834.363 626.605 829.39 634.981C819.906 650.906 825.707 671.157 829.667 688.738C833.166 704.57 839.335 723.348 844.86 738.629C847.531 745.9 853.976 760.076 859.133 766.059C869.354 777.841 916.592 773.607 931.785 759.248C940.165 751.331 941.914 740.193 940.533 729.148C939.98 724.913 939.336 720.587 938.415 716.353H938.507Z" fill="#E6E8EA" stroke="#003B2F" stroke-width="3" stroke-linecap="round" stroke-linejoin="round"/><path d="M658.119 742.034C664.289 737.524 697.438 706.319 706.278 694.077C710.606 688.094 714.565 681.926 718.156 675.483C723.313 666.37 725.983 658.638 723.037 648.052C720.827 640.228 716.775 632.22 712.355 625.408C707.383 617.584 699.28 608.931 689.519 607.827C671.103 605.802 650.845 623.567 637.217 633.969C624.325 643.818 610.605 654.588 599.003 665.91C593.478 671.341 587.309 677.048 584.546 684.412C582.06 691.039 582.336 698.771 583.257 705.675C585.927 725.281 596.793 745.716 616.13 753.541C626.812 757.867 637.677 754.829 647.162 749.122C650.845 746.913 654.436 744.52 657.935 741.942L658.119 742.034Z" fill="#E6E8EA" stroke="#003B2F" stroke-width="3" stroke-linecap="round" stroke-linejoin="round"/><path d="M855.174 484.205C853.885 472.331 850.386 459.72 843.296 453.645C834.732 446.281 822.945 445.636 812.172 446.373C806.003 446.833 799.833 447.385 793.664 447.938C787.77 448.49 781.877 448.858 776.076 449.502C770.643 450.147 765.026 451.435 760.422 454.565C756.371 457.327 753.24 461.653 752.135 466.439C751.951 467.452 751.859 468.465 751.859 469.385C750.846 473.527 750.109 477.761 749.465 481.996C748.636 487.519 747.899 493.042 747.623 498.657C747.255 507.954 748.175 518.355 754.713 525.443C761.988 533.359 772.945 534.832 783.166 535.016C798.36 535.292 814.842 532.807 829.115 527.284C839.796 523.142 853.793 514.765 855.266 502.431C855.819 497.46 855.911 490.925 855.174 484.021V484.205Z" fill="#E6E8EA" stroke="#003B2F" stroke-width="3" stroke-linecap="round" stroke-linejoin="round"/><path d="M712.447 647.316C754.989 617.032 781.784 569.994 785.928 517.895C786.665 508.69 777.273 499.853 768.341 500.313C758.12 500.773 751.49 508.045 750.753 517.895C750.661 519.091 750.569 520.288 750.477 521.485C750.477 521.393 749.924 526.179 750.108 524.522C750.293 522.957 749.832 526.363 749.74 526.639C749.464 528.112 749.188 529.585 748.911 531.058C747.899 536.12 746.701 540.999 745.136 545.97C744.307 548.547 743.479 551.124 742.558 553.702C742.189 554.806 741.729 555.911 741.269 557.108C739.243 562.446 741.913 555.727 740.624 558.764C738.506 563.735 736.02 568.614 733.35 573.308C730.863 577.727 728.101 582.053 725.154 586.287C724.326 587.484 723.405 588.772 722.484 589.969C720.642 592.362 723.773 588.312 721.932 590.706C720.274 592.823 718.525 594.848 716.683 596.873C713.276 600.647 709.685 604.329 705.909 607.827C703.884 609.668 701.858 611.417 699.74 613.166C697.622 614.914 699.648 613.35 698.359 614.27C697.162 615.191 695.965 616.019 694.675 616.94C686.941 622.463 683.257 632.312 688.322 641.056C692.834 648.697 704.62 652.931 712.447 647.408V647.316Z" fill="#003B2F"/><path d="M746.425 543.668C752.686 554.806 768.432 558.949 779.298 552.321" stroke="#03FC9D" stroke-width="3" stroke-linecap="round" stroke-linejoin="round"/><path d="M849.465 376.415C872.762 406.883 896.519 437.812 929.3 458.707C946.703 469.753 968.71 478.774 989.429 472.607C999.926 469.477 1008.67 462.941 1015.12 454.105C1021.93 444.808 1023.31 434.13 1021.57 422.992C1020 413.603 1008.31 408.356 999.834 410.658C989.797 413.419 986.022 422.9 987.495 432.381C986.943 428.791 986.482 434.866 987.495 431.092C987.219 432.013 985.469 435.419 986.943 432.933C986.482 433.67 983.72 436.892 985.838 434.774C985.561 435.051 982.431 437.904 983.812 436.799C985.285 435.695 981.694 437.996 981.326 438.272C978.195 440.113 982.523 438.272 979.208 439.009C975.064 439.929 981.233 439.377 976.353 439.469C974.419 439.469 972.302 439.469 970.368 439.193C972.578 439.561 968.802 438.732 968.158 438.548C966.224 438.088 964.291 437.444 962.357 436.707C960.976 436.247 957.2 434.406 954.53 432.933C948.545 429.62 941.454 425.017 936.85 421.427C915.303 404.766 895.782 379.729 879.76 358.742C873.959 351.194 864.566 347.236 855.634 352.39C848.176 356.717 843.48 368.867 849.281 376.507L849.465 376.415Z" fill="#003B2F"/><path d="M910.422 396.574C897.346 394.825 884.639 404.766 883.442 417.929" stroke="#03FC9D" stroke-width="3" stroke-linecap="round" stroke-linejoin="round"/><path d="M930.128 416.273C917.328 415.628 905.542 426.95 905.542 439.745" stroke="#03FC9D" stroke-width="3" stroke-linecap="round" stroke-linejoin="round"/><path d="M951.399 431.829C938.968 434.958 930.957 449.134 934.548 461.377" stroke="#03FC9D" stroke-width="3" stroke-linecap="round" stroke-linejoin="round"/><path d="M966.316 440.205C959.778 451.251 964.106 466.9 975.34 472.975" stroke="#03FC9D" stroke-width="3" stroke-linecap="round" stroke-linejoin="round"/><path d="M885.284 391.511C884.547 381.846 883.074 372.365 881.232 363.16C879.575 354.784 878.009 345.855 874.142 337.847C865.302 319.989 845.136 315.847 827.18 312.257C804.344 307.654 780.403 306.826 756.922 307.194C736.48 307.562 716.038 308.943 707.106 327.169C703.147 335.269 701.858 344.29 701.581 353.219C701.213 363.068 701.765 372.917 702.226 382.859C702.686 392.892 703.423 402.925 704.252 413.051C704.712 418.021 705.172 422.992 705.725 427.963C706.185 432.289 706.646 436.799 708.672 440.942C716.591 456.958 742.005 462.573 758.396 465.703C787.125 471.226 815.578 468.833 844.4 465.519C858.304 463.954 872.116 460.548 877.917 446.649C885.192 429.343 886.665 410.289 885.192 391.511H885.284Z" fill="#E6E8EA" stroke="#003B2F" stroke-width="3" stroke-linecap="round" stroke-linejoin="round"/><path d="M756.37 326.617C758.212 339.411 768.617 350.641 781.417 352.943C795.045 355.428 809.317 348.985 815.579 336.374C818.986 329.562 819.999 321.738 818.249 314.282C817.328 310.6 811.711 312.165 812.54 315.847C815.118 326.709 810.146 338.583 800.477 344.198C790.809 349.721 778.194 348.432 770.091 340.7C765.671 336.466 762.908 331.035 761.987 324.96C761.803 323.395 759.777 322.566 758.396 322.935C756.739 323.395 756.094 324.96 756.37 326.525V326.617Z" fill="#003B2F"/><path d="M798.82 334.533C811.896 318.516 819.723 300.659 821.288 279.948C822.025 270.743 812.725 261.906 803.701 262.366C793.572 262.827 786.85 270.098 786.113 279.948C786.113 279.948 785.376 285.471 785.837 282.709C785.653 283.906 785.376 285.195 785.1 286.391C784.456 289.245 783.074 293.571 782.43 295.136C780.956 299.002 776.26 306.642 773.958 309.496C767.973 316.859 766.776 327.169 773.958 334.441C780.128 340.608 792.835 341.897 798.912 334.441L798.82 334.533Z" fill="#003B2F"/><path d="M708.948 338.123C669.721 337.478 630.771 348.616 596.885 368.039C564.841 386.448 524.877 417.193 530.126 458.983C533.165 483.376 551.857 503.719 577.272 504.271C586.48 504.455 595.32 495.987 594.859 486.69C594.399 477.025 587.124 469.293 577.272 469.109C575.154 469.017 575.062 469.109 576.995 469.293C575.89 469.109 574.878 468.832 573.773 468.464C576.811 469.385 571.471 467.176 570.642 466.623C573.22 468.372 568.524 464.414 567.971 463.862C569.905 466.071 567.235 462.481 566.866 461.929C565.946 460.088 565.854 459.904 566.498 461.561C566.038 460.456 565.762 459.259 565.393 458.155C565.025 455.946 564.841 455.669 565.025 457.234C564.933 455.946 564.841 454.749 564.841 453.46C564.841 452.172 564.841 450.883 565.025 449.686C564.841 450.883 564.841 450.883 565.025 449.686C565.393 447.477 566.13 445.36 566.682 443.151C567.511 441.126 567.603 440.757 567.051 441.954C567.603 440.757 568.156 439.653 568.8 438.456C569.997 436.155 571.378 434.038 572.852 431.921C575.798 427.686 571.378 433.209 574.785 429.435C576.535 427.594 578.192 425.661 580.034 423.82C587.309 416.641 592.926 412.498 601.029 407.067C617.695 395.837 634.362 387.553 652.594 381.754C662.171 378.716 671.931 376.507 681.784 374.942C688.046 373.93 678.653 375.218 685.007 374.482C687.677 374.206 690.348 373.93 692.926 373.746C698.267 373.377 703.607 373.285 708.948 373.377C718.156 373.562 726.996 365.185 726.536 355.796C726.075 346.131 718.801 338.307 708.948 338.215V338.123Z" fill="#003B2F"/><path d="M659.961 378.901C665.67 367.487 660.697 352.114 648.911 346.775" stroke="#03FC9D" stroke-width="3" stroke-linecap="round" stroke-linejoin="round"/><path d="M578.929 423.452C577.272 410.381 564.288 400.716 551.305 402.925" stroke="#03FC9D" stroke-width="3" stroke-linecap="round" stroke-linejoin="round"/><path d="M564.472 447.017C559.131 435.235 543.754 430.172 532.336 435.879" stroke="#03FC9D" stroke-width="3" stroke-linecap="round" stroke-linejoin="round"/><path d="M1061.34 344.474C1060.15 336.006 1058.4 327.537 1056 319.253C1053.7 311.336 1051.4 302.684 1043.94 298.173C1037.31 294.123 1028.65 293.571 1021.01 293.295C1012.36 293.019 1003.52 293.755 995.137 296.056C987.586 298.081 980.588 302.039 975.984 308.575C971.748 314.742 969.538 321.922 967.881 329.194C963.921 346.591 961.988 364.449 961.343 382.214C961.067 390.867 960.883 399.519 961.343 408.172C961.619 415.26 962.448 422.44 964.75 429.159C966.96 435.879 970.828 442.046 976.445 446.465C980.128 449.318 984.271 451.251 988.599 452.724C995.874 455.854 1004.62 457.05 1011.71 457.971C1019.35 458.983 1027.27 459.259 1034.82 457.418C1042.37 455.485 1048.82 450.975 1053.33 444.624C1063 430.816 1062.91 412.867 1063.46 396.666C1064.11 379.269 1063.92 361.779 1061.44 344.566L1061.34 344.474Z" fill="#E6E8EA" stroke="#003B2F" stroke-width="3" stroke-linecap="round" stroke-linejoin="round"/><path d="M692.558 439.377C686.573 427.595 674.97 425.569 661.987 423.728C639.979 420.599 615.854 418.758 593.386 420.691C584.178 421.519 574.509 423.268 566.867 428.699C547.069 442.783 540.347 483.56 554.251 503.075C561.802 513.753 574.601 518.815 586.848 521.853C601.95 525.627 617.604 527.652 633.165 528.112C641.176 528.296 649.187 528.112 657.106 527.56C664.197 527.008 671.655 525.627 677.18 520.748C687.862 511.451 692.097 496.447 694.123 482.916C695.228 475.644 696.057 468.28 696.241 461.008C696.517 453.644 695.781 446.004 692.374 439.285L692.558 439.377Z" fill="#E6E8EA" stroke="#003B2F" stroke-width="3" stroke-linecap="round" stroke-linejoin="round"/><path d="M761.158 490.28C759.04 485.125 750.293 479.05 747.53 477.301C743.11 474.54 736.388 470.397 731.508 467.912C735.007 466.808 741.545 464.69 744.584 462.757C748.451 460.272 751.95 456.774 753.055 452.264C754.068 448.214 753.055 443.335 749.74 440.573C745.873 437.352 740.716 437.628 736.02 438.64C731.232 439.745 726.443 441.31 721.747 442.783C710.882 446.188 700.016 449.686 688.69 451.711C680.127 453.552 672.944 470.397 671.839 477.393C670.09 487.887 671.839 499.301 679.574 507.125C682.152 509.702 685.099 511.727 688.414 512.924C697.53 520.104 705.265 529.493 716.038 534.187C721.471 536.581 729.574 537.685 732.797 531.242C733.718 529.493 733.994 527.56 733.902 525.627C734.455 525.903 735.007 526.087 735.56 526.271C739.243 527.56 742.189 526.455 745.781 524.338C749.924 521.853 750.661 516.698 749.464 512.372C748.543 508.782 748.359 507.125 746.425 503.903C748.727 503.995 753.331 504.916 756.462 503.627C760.053 502.246 763.736 496.263 761.158 490.096V490.28Z" fill="#003B2F"/><path d="M733.442 526.179C724.326 518.907 715.21 511.635 706.094 504.271" stroke="white" stroke-width="3" stroke-linecap="round" stroke-linejoin="round"/><path d="M748.544 504.364C738.967 498.104 729.391 491.937 719.814 485.678" stroke="white" stroke-width="3" stroke-linecap="round" stroke-linejoin="round"/><path d="M1084.64 286.943C1083.81 286.667 1082.98 286.391 1082.15 286.115C1084.73 284.734 1087.5 283.353 1089.61 281.605C1092.19 279.487 1093.11 276.542 1091.55 273.78C1090.26 271.571 1087.96 269.822 1085.47 268.718C1081.33 266.877 1076.81 266.693 1072.3 267.153C1074.24 264.944 1074.7 262.274 1073.13 259.881C1071.75 257.764 1069.26 256.107 1066.68 255.186C1059.59 252.609 1051.95 254.634 1044.68 256.383C1039.24 257.764 1033.72 259.237 1028.29 260.986C1028.29 259.513 1028.47 258.132 1028.47 256.843C1028.84 253.898 1028.75 250.952 1028.01 248.099C1027.18 244.877 1025.34 241.287 1022.12 239.906C1018.25 238.249 1014.94 240.919 1012.63 243.864C1010.52 246.626 998.913 267.981 995.598 275.99C992.559 283.353 988.784 290.994 988.047 299.002C987.403 306.182 991.731 311.889 997.163 316.123C1007.29 323.947 1020.83 325.972 1032.98 321.646C1036.67 320.357 1040.07 318.516 1043.3 316.215C1059.32 312.625 1081.97 306.642 1088.51 300.843C1091.09 298.634 1091.55 295.78 1090.81 293.295C1089.98 290.533 1087.59 288.048 1084.64 286.943Z" fill="#003B2F"/><path d="M1024.6 277.739C1034.73 280.316 1043.3 288.14 1046.7 298.081" stroke="white" stroke-width="3" stroke-linecap="round" stroke-linejoin="round"/><path d="M1028.38 260.986C1027.64 264.944 1025.43 273.78 1024.6 277.831" stroke="white" stroke-width="3" stroke-linecap="round" stroke-linejoin="round"/><path d="M1072.3 267.153C1058.4 270.466 1044.4 276.634 1030.59 280.04" stroke="white" stroke-width="3" stroke-linecap="round" stroke-linejoin="round"/><path d="M1082.15 286.115C1070.64 287.68 1056.19 289.153 1044.86 291.454" stroke="white" stroke-width="3" stroke-linecap="round" stroke-linejoin="round"/><path d="M971.104 318.148L972.393 320.541C976.629 334.073 990.349 340.884 1003.33 343.369C1015.12 345.671 1027.83 344.934 1039.06 340.516C1045.51 338.031 1053.52 333.244 1058.4 328.365" stroke="#003B2F" stroke-width="3" stroke-linecap="round" stroke-linejoin="round"/><path d="M680.219 427.963C672.484 426.766 664.657 431 658.856 435.603C652.41 440.757 647.53 447.937 644.307 455.485C641.084 463.217 639.519 471.594 639.611 479.97C639.611 488.439 640.9 497.276 643.939 505.192C647.254 514.029 653.055 522.405 661.803 526.547" stroke="#003B2F" stroke-width="3" stroke-linecap="round" stroke-linejoin="round"/><path d="M630.219 389.486C634.454 377.336 626.812 362.976 614.657 359.294" stroke="#03FC9D" stroke-width="3" stroke-linecap="round" stroke-linejoin="round"/><path d="M601.674 406.055C604.252 393.629 595.32 380.005 582.613 377.888" stroke="#03FC9D" stroke-width="3" stroke-linecap="round" stroke-linejoin="round"/><path d="M705.91 608.471C705.91 621.266 717.42 632.68 730.219 632.22" stroke="#03FC9D" stroke-width="3" stroke-linecap="round" stroke-linejoin="round"/><path d="M723.037 590.337C725.615 602.948 739.428 611.417 751.859 608.379" stroke="#03FC9D" stroke-width="3" stroke-linecap="round" stroke-linejoin="round"/><path d="M736.941 567.877C741.177 579.844 755.726 587.024 767.789 582.237" stroke="#03FC9D" stroke-width="3" stroke-linecap="round" stroke-linejoin="round"/><path d="M824.511 582.789C830.404 584.17 836.758 583.434 842.375 581.409C847.716 579.568 852.872 576.622 856.187 571.928" stroke="#03FC9D" stroke-width="3" stroke-linecap="round" stroke-linejoin="round"/><path d="M815.395 555.359C821.288 556.739 827.642 556.003 833.259 553.978C838.599 552.137 843.756 549.191 847.071 544.497" stroke="#03FC9D" stroke-width="3" stroke-linecap="round" stroke-linejoin="round"/><path d="M833.35 610.312C839.244 611.693 845.597 610.956 851.214 608.931C856.555 607.09 861.711 604.145 865.026 599.45" stroke="#03FC9D" stroke-width="3" stroke-linecap="round" stroke-linejoin="round"/><path d="M849.188 745.348C865.026 746.913 878.838 744.151 894.216 740.377C909.962 736.511 926.168 730.712 939.336 720.955" stroke="#003B2F" stroke-width="3" stroke-linecap="round" stroke-linejoin="round"/><path d="M603.239 662.044C601.674 682.203 605.357 698.771 616.499 715.985C625.983 730.805 638.322 740.286 655.726 743.691" stroke="#003B2F" stroke-width="3" stroke-linecap="round" stroke-linejoin="round"/><path d="M936.85 150.066C928.931 135.154 917.513 122.36 903.056 114.443C867.329 94.8369 825.8 96.1256 784.363 96.6779C742.374 97.2302 693.847 97.8745 658.212 123.372C643.202 134.142 631.6 148.87 624.418 165.899C603.607 215.513 612.263 273.412 658.856 302.5C699.832 328.089 733.35 324.776 781.509 324.039C826.26 323.395 882.062 326.341 914.014 303.973C946.887 281.052 959.686 252.241 955.174 209.162C953.149 189.279 946.703 168.844 936.758 150.158L936.85 150.066Z" fill="#E6E8EA" stroke="#003B2F" stroke-width="3" stroke-linecap="round" stroke-linejoin="round"/><path d="M861.067 148.501L753.147 153.012C700.569 155.221 666.13 193.145 667.327 238.065C668.524 282.985 707.475 315.387 759.04 315.663C789.703 315.847 832.798 314.374 862.079 311.336C915.303 305.814 950.386 271.111 949.188 226.191C947.991 181.271 917.052 146.108 861.067 148.409V148.501Z" fill="#003B2F"/><path d="M714.197 322.658C710.514 321.278 704.16 318.332 700.661 316.491C692.834 312.441 685.376 307.654 678.562 302.039C670.274 295.136 663.368 286.943 658.856 277.186C653.608 265.956 651.305 253.53 650.661 241.195C649.832 224.166 653.055 207.137 660.606 191.857C668.156 176.668 679.943 163.966 694.123 154.669C710.606 143.899 729.759 137.916 749.188 135.522C758.857 134.326 768.709 134.142 778.47 133.774L819.354 132.025C827.457 131.656 835.468 131.288 843.572 131.012C864.566 130.276 886.113 132.209 905.819 140.033C920.828 146.016 937.311 159.271 946.887 172.434" stroke="#003B2F" stroke-width="3" stroke-linecap="round" stroke-linejoin="round"/><path d="M795.597 238.802L812.172 238.065L838.507 236.961L844.585 236.684" stroke="#03FC9D" stroke-width="3" stroke-linecap="round" stroke-linejoin="round"/><path d="M689.796 108.368C696.518 111.129 702.963 114.719 708.304 119.69C712.724 123.832 716.131 128.803 718.433 134.418C719.63 137.363 720.183 138.836 720.735 141.966" stroke="#003B2F" stroke-width="3" stroke-linecap="round" stroke-linejoin="round"/><path d="M642.65 201.338C641.084 196.827 639.059 192.685 636.664 189.003C632.337 182.652 624.418 176.392 615.762 179.338C608.119 181.915 603.055 189.831 600.476 196.367C596.057 207.597 595.504 219.839 597.622 231.622C602.41 259.421 629.114 276.542 641.084 247.73C646.517 234.659 647.714 215.789 642.742 201.246L642.65 201.338Z" fill="#E6E8EA" stroke="#003B2F" stroke-width="3" stroke-linecap="round" stroke-linejoin="round"/><path d="M860.239 99.9917C865.487 102.477 871.749 105.883 876.077 109.749C881.325 114.443 886.206 119.874 889.336 126.226C890.994 129.631 892.099 131.933 892.191 135.707" stroke="#003B2F" stroke-width="3" stroke-linecap="round" stroke-linejoin="round"/><path d="M725.431 233.463C727.273 228.4 729.206 223.338 731.324 218.367C733.258 213.672 735.284 208.794 738.599 204.836C741.822 201.062 746.518 198.945 751.214 201.154C755.818 203.271 758.857 208.242 760.975 212.568C764.013 218.735 766.592 225.087 768.986 231.53" stroke="#03FC9D" stroke-width="3" stroke-linecap="round" stroke-linejoin="round"/><path d="M869.814 227.388C871.656 222.325 873.59 217.262 875.707 212.292C877.641 207.597 879.667 202.719 882.982 198.76C886.205 194.986 890.901 192.869 895.597 195.078C900.201 197.196 903.24 202.166 905.358 206.493C908.396 212.66 910.975 219.011 913.369 225.455" stroke="#03FC9D" stroke-width="3" stroke-linecap="round" stroke-linejoin="round"/><path d="M397.16 188.451H396.516C390.439 189.279 384.545 189.095 378.836 187.898C376.35 187.346 373.772 186.702 371.378 185.873H370.917C354.25 179.43 341.267 164.518 338.228 145.464C333.808 117.389 352.961 91.0628 381.138 86.6444C388.873 85.4478 396.424 86.0001 403.33 88.0252C405.264 88.5775 407.105 89.2218 408.855 89.9582C424.14 96.3096 436.019 110.117 439.426 127.33V128.251C439.426 128.251 439.702 129.079 439.794 129.447C444.214 157.522 425.061 183.848 396.884 188.267H397.068L397.16 188.451Z" fill="#03FC9D"/><path d="M369.905 113.155L378.284 121.807C379.665 123.188 381.047 124.661 382.52 126.041C386.295 130 392.465 130.276 396.424 126.594C396.608 126.502 396.7 126.318 396.885 126.226C401.028 122.083 405.264 117.941 409.408 113.799L409.684 113.523H417.695C417.695 113.523 417.511 113.799 417.419 113.891C411.894 119.414 406.369 124.753 400.844 130.276C397.805 133.405 393.57 135.062 389.242 134.97C385.374 134.97 381.691 133.313 378.929 130.552C373.312 124.937 367.787 119.138 362.078 113.339L361.802 113.062H369.813L369.905 113.155Z" fill="#003B2F"/><path d="M361.34 160.376C362.169 159.547 363.09 158.719 363.919 157.891C368.615 153.196 373.403 148.501 378.099 143.715C381.138 140.585 385.374 138.928 389.794 139.02C393.661 139.02 397.252 140.677 400.015 143.255C405.816 149.054 411.433 154.853 417.142 160.744L416.681 161.02H409.499C409.499 161.02 408.947 160.928 408.67 160.652C404.527 156.418 400.291 152.091 396.147 147.857C392.28 143.991 386.11 143.899 382.243 147.857C378.007 151.999 373.864 156.234 369.536 160.56C369.259 160.836 368.891 160.928 368.523 160.928H361.064L361.248 160.376H361.34Z" fill="#003B2F"/><path d="M1253.89 407.16H1253.33C1248.09 406.976 1243.02 406.055 1238.42 404.306C1236.39 403.478 1234.27 402.557 1232.34 401.545H1231.97C1218.62 393.813 1209.6 379.453 1209.5 362.884C1209.5 338.399 1229.21 318.608 1253.7 318.516C1260.42 318.516 1266.78 319.989 1272.39 322.658C1273.96 323.395 1275.43 324.223 1276.81 325.052C1288.97 332.416 1297.26 345.763 1297.9 360.859V361.687C1297.9 361.687 1297.9 362.424 1297.9 362.792C1297.9 387.277 1278.2 407.068 1253.7 407.16H1253.79H1253.89Z" fill="#03FC9D"/><path fill-rule="evenodd" clip-rule="evenodd" d="M1240.63 368.407L1237.22 369.327L1239.8 362.884L1243.2 361.963L1250.94 342.265L1262.27 344.014L1256.56 358.466L1259.96 357.545L1257.39 363.989L1253.98 364.909L1250.76 373.009L1267.88 375.679L1264.57 384.055L1236.11 379.637L1240.53 368.407H1240.63Z" fill="#003B2F"/><path d="M1063.65 213.304H1063C1056.37 213.212 1049.93 211.831 1044.13 209.806C1041.45 208.701 1038.78 207.689 1036.39 206.308H1035.93C1019.08 196.459 1007.57 178.325 1007.57 157.338C1007.57 126.502 1032.52 101.372 1063.55 101.188C1072.03 101.188 1080.04 103.121 1087.31 106.343C1089.34 107.355 1091.18 108.276 1093.02 109.38C1108.49 118.769 1118.99 135.43 1119.82 154.669L1119.63 155.681C1119.63 155.681 1119.82 156.51 1119.91 157.062C1119.91 187.898 1094.95 213.028 1063.92 213.212H1063.74L1063.65 213.304Z" fill="#03FC9D"/><path d="M1094.86 145.372C1095.23 136.627 1087.68 132.853 1077.73 130.736L1079.58 118.77L1071.75 117.849L1069.91 129.539C1067.79 129.171 1065.67 129.079 1063.74 128.895L1065.58 117.113L1057.75 116.192L1055.91 128.159C1054.25 127.882 1052.5 127.79 1050.85 127.698L1039.98 126.318L1038.78 134.05C1038.78 134.05 1044.68 134.602 1044.49 134.786C1047.72 135.246 1048.45 137.087 1048.54 138.56L1046.43 152.183L1043.48 171.33C1043.3 172.342 1042.47 173.631 1040.17 173.447L1034.46 172.71L1031.51 181.179L1041.73 182.468C1043.66 182.744 1045.41 183.02 1047.26 183.204L1045.32 195.354L1053.15 196.275L1054.99 184.309C1057.11 184.677 1059.23 184.953 1061.16 185.137L1059.32 197.103L1067.15 198.024L1069.08 185.873C1082.34 186.794 1092.19 184.677 1095.05 173.355C1097.44 164.15 1093.39 159.455 1086.21 156.878C1091.09 155.313 1094.49 151.723 1094.77 145.464H1094.95L1094.86 145.372ZM1079.94 170.041C1078.56 179.154 1061.9 176.208 1056.74 175.564L1059.23 159.547C1064.57 160.192 1081.42 160.652 1079.94 170.041ZM1079.76 146.937C1078.47 155.221 1064.66 152.552 1060.24 151.999L1062.54 137.455C1066.96 138.008 1081.14 138.376 1079.85 146.937H1079.76Z" fill="#003B2F"/><path d="M404.066 579.015C404.066 579.015 403.79 579.015 403.698 579.107C400.199 580.028 396.607 580.396 393.108 580.12C391.543 580.028 389.978 579.752 388.504 579.383C388.504 579.383 388.32 579.383 388.228 579.383C377.823 576.806 368.983 568.89 365.852 557.844C361.156 541.459 370.733 524.338 387.123 519.644C391.635 518.355 396.147 518.171 400.475 518.815C401.672 518.999 402.777 519.275 403.882 519.552C413.458 522.221 421.562 529.585 424.876 539.618C424.876 539.802 424.969 539.894 425.061 540.078C425.061 540.355 425.245 540.539 425.245 540.815C429.941 557.2 420.364 574.321 403.974 578.923L404.066 579.015Z" fill="#03FC9D"/><path fill-rule="evenodd" clip-rule="evenodd" d="M380.401 537.869L407.565 534.555L408.302 540.354L381.138 543.668L380.401 537.869ZM398.909 551.861L400.751 566.865L394.95 567.601L393.108 552.597L398.909 551.861Z" fill="#003B2F"/><path fill-rule="evenodd" clip-rule="evenodd" d="M395.226 545.97C385.557 547.166 377.914 549.836 378.191 551.953C378.467 554.07 386.478 554.898 396.146 553.702C405.815 552.505 413.458 549.836 413.181 547.718C412.905 545.601 404.894 544.773 395.226 545.97ZM395.962 551.769C386.294 552.965 379.296 552.873 379.203 551.769C379.111 550.664 385.741 547.995 395.41 546.798C405.078 545.601 412.169 546.614 412.261 547.718C412.353 548.823 405.631 550.48 395.962 551.677V551.769Z" fill="#003B2F"/><path fill-rule="evenodd" clip-rule="evenodd" d="M397.712 541.735L398.817 550.48L393.016 551.216L391.911 542.472L397.712 541.735Z" fill="#003B2F"/><path d="M1104.81 594.019H1104.44C1101.31 593.743 1098.45 593.099 1095.69 591.902C1094.49 591.35 1093.3 590.798 1092.19 590.061H1092.01C1084.36 585.091 1079.39 576.438 1079.76 566.681C1080.41 552.229 1092.56 541.091 1107.02 541.735C1110.98 541.92 1114.66 542.932 1117.97 544.681C1118.8 545.141 1119.72 545.602 1120.46 546.246C1127.46 550.94 1131.97 558.949 1131.97 567.969V568.43C1131.97 568.43 1131.97 568.89 1131.97 569.074C1131.33 583.526 1119.17 594.664 1104.71 594.019H1104.81Z" fill="#03FC9D"/><path d="M1098.08 583.618C1097.99 584.262 1097.53 584.354 1096.89 584.262C1089.89 580.304 1086.02 572.388 1087.59 564.288C1089.15 556.187 1095.87 550.388 1103.89 549.468C1104.53 549.468 1104.9 549.836 1104.71 550.48L1104.44 551.861C1104.44 551.861 1104.07 552.597 1103.61 552.781C1097.26 553.794 1092.1 558.488 1090.81 564.932C1089.52 571.375 1092.65 577.911 1097.9 581.133C1098.27 581.409 1098.36 581.869 1098.27 582.237L1097.99 583.618H1098.08Z" fill="#003B2F"/><path d="M1105.18 579.752C1105.18 579.752 1104.62 580.488 1104.16 580.396L1102.51 580.028C1102.51 580.028 1101.77 579.476 1101.86 579.016L1102.32 576.622C1099.19 575.61 1097.9 573.401 1097.81 570.639C1097.81 570.271 1098.18 569.903 1098.55 569.995L1100.39 570.363C1100.39 570.363 1100.94 570.731 1101.03 571.099C1101.12 572.572 1101.68 573.953 1104.35 574.505C1106.37 574.873 1108.03 574.229 1108.31 572.572C1108.58 570.915 1107.94 570.179 1105.18 569.166C1101.03 567.694 1099.28 566.037 1099.93 562.631C1100.48 559.961 1102.87 558.397 1105.82 558.581L1106.28 556.187C1106.28 556.187 1106.83 555.451 1107.29 555.543L1108.95 555.911C1108.95 555.911 1109.69 556.464 1109.6 556.924L1109.14 559.317C1111.53 560.238 1112.82 561.986 1112.82 564.288C1112.82 564.656 1112.45 565.024 1112.08 564.932L1110.42 564.564C1110.42 564.564 1109.87 564.196 1109.78 563.827C1109.69 562.355 1108.77 561.526 1106.93 561.158C1104.9 560.79 1103.7 561.526 1103.43 562.999C1103.15 564.472 1103.61 565.392 1106.56 566.405C1110.7 567.878 1112.45 569.534 1111.81 572.94C1111.25 575.61 1108.77 577.359 1105.64 577.359L1105.18 579.752Z" fill="#003B2F"/><path d="M1107.85 586.379C1107.2 586.379 1106.83 586.011 1107.02 585.367L1107.29 583.986C1107.29 583.986 1107.66 583.25 1108.12 583.066C1114.48 582.053 1119.63 577.358 1120.92 570.915C1122.21 564.472 1119.08 557.936 1113.83 554.714C1113.46 554.438 1113.37 553.978 1113.46 553.61L1113.74 552.229C1113.83 551.585 1114.29 551.493 1114.94 551.585C1121.75 555.451 1125.8 563.459 1124.24 571.559C1122.58 579.66 1115.95 585.459 1107.94 586.379H1107.85Z" fill="#003B2F"/></svg>