<?xml version="1.0" encoding="UTF-8"?><svg id="Layer_1" data-name="Layer 1" xmlns="http://www.w3.org/2000/svg" viewBox="0 0 192 108"><defs><style>.cls-1, .cls-2 {
        fill: #00ff94;
      }

      .cls-3, .cls-4 {
        fill: #e3e7e3;
      }

      .cls-5 {
        fill: #003d2e;
        stroke-miterlimit: 10;
        stroke-width: .17px;
      }

      .cls-5, .cls-6, .cls-4, .cls-2, .cls-7 {
        stroke: #003d2e;
      }

      .cls-6 {
        fill: #fff;
      }

      .cls-6, .cls-4, .cls-2 {
        stroke-width: .33px;
      }

      .cls-6, .cls-4, .cls-2, .cls-8, .cls-9, .cls-10, .cls-7 {
        stroke-linecap: round;
        stroke-linejoin: round;
      }

      .cls-8 {
        stroke: #163b2f;
      }

      .cls-8, .cls-9, .cls-10, .cls-7 {
        fill: none;
        stroke-width: .33px;
      }

      .cls-9 {
        stroke: #00ff94;
      }

      .cls-10 {
        stroke: #003c2e;
      }</style></defs><line class="cls-10" x1="18.4" y1="16.45" x2="25.24" y2="16.45"/><line class="cls-10" x1="13.2" y1="16.45" x2="14.93" y2="16.45"/><line class="cls-9" x1="19.39" y1="11.52" x2="37.12" y2="11.52"/><g><line class="cls-8" x1="3.1" y1="10.17" x2="4.72" y2="11.79"/><line class="cls-8" x1="5.9" y1="12.97" x2="7.51" y2="14.58"/><line class="cls-8" x1="3.1" y1="14.58" x2="4.72" y2="12.97"/><line class="cls-8" x1="5.9" y1="11.79" x2="7.51" y2="10.17"/></g><path class="cls-3" d="M164.15,96.63h3.5c-1.11,0-2,.9-2,2s.9,2,2,2h10.04c1.11,0,2-.9,2-2h3.08c1.11,0,2-.9,2-2,0-1.11-.9-2-2-2h-6.58c0-1.11-.9-2-2-2h-10.04c-1.11,0-2,.9-2,2s.9,2,2,2Z"/><g><line class="cls-8" x1="175.19" y1="89.59" x2="175.19" y2="87.89"/><line class="cls-8" x1="175.19" y1="86.65" x2="175.19" y2="84.96"/><line class="cls-8" x1="177.5" y1="87.27" x2="175.81" y2="87.27"/><line class="cls-8" x1="174.57" y1="87.27" x2="172.88" y2="87.27"/></g><path class="cls-1" d="M178.9,98.69h13.04c-.05-2.36,0-4.66,.04-6.97h-13.08c-1.92,0-3.49,1.56-3.49,3.49s1.56,3.49,3.49,3.49Z"/><path class="cls-3" d="M156.4,17.26h4.74c-1.5,0-2.72,1.07-2.72,2.4s1.22,2.4,2.72,2.4h13.62c1.5,0,2.72-1.07,2.72-2.4h4.18c1.5,0,2.72-1.07,2.72-2.4s-1.22-2.4-2.72-2.4h-8.93c0-1.32-1.22-2.4-2.72-2.4h-13.62c-1.5,0-2.72,1.07-2.72,2.4s1.22,2.4,2.72,2.4Z"/><line class="cls-10" x1="164.68" y1="18.97" x2="161.28" y2="18.97"/><line class="cls-10" x1="156.89" y1="18.99" x2="143.13" y2="18.99"/><line class="cls-10" x1="129.39" y1="95.08" x2="125.91" y2="95.08"/><line class="cls-9" x1="143.95" y1="88.36" x2="118.76" y2="88.36"/><line class="cls-10" x1="121.42" y1="95.07" x2="107.34" y2="95.07"/><g><polygon class="cls-4" points="69.07 97.63 98.36 87.13 96.87 20.91 63.34 16.96 69.07 97.63"/><polygon class="cls-4" points="54.76 92.31 69.07 97.63 63.34 16.96 44.4 31.95 54.76 92.31"/><ellipse class="cls-6" cx="80.49" cy="38.75" rx="10.69" ry="15.63"/><ellipse class="cls-6" cx="82.89" cy="73.92" rx="10.69" ry="15.63"/><ellipse class="cls-5" cx="80.83" cy="38.69" rx="7.45" ry="10.89"/><ellipse class="cls-4" cx="80.96" cy="38.75" rx="6.4" ry="9.36"/><ellipse class="cls-5" cx="83.23" cy="73.86" rx="7.45" ry="10.89"/><ellipse class="cls-4" cx="83.36" cy="73.91" rx="6.4" ry="9.36"/><ellipse class="cls-2" cx="81.24" cy="38.75" rx="2.88" ry="4.22"/><ellipse class="cls-4" cx="80.96" cy="25.29" rx=".77" ry="1.12"/><ellipse class="cls-4" cx="82.12" cy="52.1" rx=".77" ry="1.12"/><ellipse class="cls-4" cx="71.73" cy="38.75" rx=".77" ry="1.12"/><ellipse class="cls-4" cx="89.63" cy="38.69" rx=".77" ry="1.12"/><ellipse class="cls-2" cx="83.64" cy="73.92" rx="2.88" ry="4.22"/><ellipse class="cls-4" cx="83.36" cy="60.46" rx=".77" ry="1.12"/><ellipse class="cls-4" cx="84.52" cy="87.26" rx=".77" ry="1.12"/><ellipse class="cls-4" cx="74.13" cy="73.92" rx=".77" ry="1.12"/><ellipse class="cls-4" cx="92.04" cy="73.86" rx=".77" ry="1.12"/></g><g><polygon class="cls-4" points="27.75 103.4 57.04 92.9 55.54 26.68 22.02 22.73 27.75 103.4"/><polygon class="cls-4" points="13.44 98.08 27.75 103.4 22.02 22.73 3.08 37.72 13.44 98.08"/><ellipse class="cls-6" cx="39.16" cy="44.52" rx="10.69" ry="15.63"/><ellipse class="cls-6" cx="41.57" cy="79.69" rx="10.69" ry="15.63"/><ellipse class="cls-5" cx="39.51" cy="44.46" rx="7.45" ry="10.89"/><ellipse class="cls-4" cx="39.64" cy="44.52" rx="6.4" ry="9.36"/><ellipse class="cls-5" cx="41.91" cy="79.63" rx="7.45" ry="10.89"/><ellipse class="cls-4" cx="42.04" cy="79.68" rx="6.4" ry="9.36"/><ellipse class="cls-2" cx="39.92" cy="44.52" rx="2.88" ry="4.22"/><ellipse class="cls-4" cx="39.64" cy="31.06" rx=".77" ry="1.12"/><ellipse class="cls-4" cx="40.8" cy="57.87" rx=".77" ry="1.12"/><ellipse class="cls-4" cx="30.41" cy="44.52" rx=".77" ry="1.12"/><ellipse class="cls-4" cx="48.31" cy="44.46" rx=".77" ry="1.12"/><ellipse class="cls-2" cx="42.32" cy="79.69" rx="2.88" ry="4.22"/><ellipse class="cls-4" cx="42.04" cy="66.23" rx=".77" ry="1.12"/><ellipse class="cls-4" cx="43.2" cy="93.03" rx=".77" ry="1.12"/><ellipse class="cls-4" cx="32.81" cy="79.69" rx=".77" ry="1.12"/><ellipse class="cls-4" cx="50.72" cy="79.63" rx=".77" ry="1.12"/></g><path class="cls-7" d="M104.45,66.75c5.85-4.33,3.5-7.51,9.36-11.83,5.85-4.33,8.21-1.14,14.06-5.47,5.86-4.33,3.5-7.51,9.36-11.84s8.21-1.15,14.06-5.47"/><path class="cls-7" d="M106.92,71.54c6.55-3.18,4.82-6.74,11.37-9.91,6.55-3.18,8.28,.38,14.83-2.79,6.55-3.18,4.83-6.74,11.38-9.91s8.28,.38,14.83-2.79"/><path class="cls-7" d="M108.46,76.67c7.02-1.93,5.97-5.74,12.99-7.67,7.02-1.93,8.07,1.89,15.09-.04,7.02-1.93,5.97-5.74,13-7.67,7.02-1.93,8.07,1.89,15.09-.04"/><path class="cls-1" d="M129.78,25.98h-2.44c-1.34-3.73-4.96-6.29-9.73-6.29h-7.84v6.29h-2.72v2.26h2.73v2.37h-2.73v2.26h2.73v6.22h7.84c4.71,0,8.3-2.54,9.68-6.22h2.49v-2.26h-1.94c.05-.4,.08-.81,.08-1.22v-.05c0-.37-.02-.73-.06-1.09h1.93v-2.26h0Zm-17.82-4.28h5.65c3.5,0,6.1,1.72,7.3,4.28h-12.95v-4.28h0Zm5.65,15.35h-5.65v-4.19h12.94c-1.21,2.51-3.8,4.19-7.29,4.19h0Zm8.04-7.62c0,.4-.03,.79-.08,1.17h-13.6v-2.37h13.61c.05,.37,.08,.76,.08,1.15v.06h0Z"/><path class="cls-1" d="M178.15,41.05h-1.37c-.76-2.1-2.79-3.54-5.47-3.54h-4.41v3.54h-1.53v1.27h1.53v1.33h-1.53v1.27h1.53v3.5h4.41c2.65,0,4.67-1.43,5.45-3.5h1.4v-1.27h-1.09c.03-.22,.04-.46,.04-.69v-.03c0-.21-.01-.41-.03-.61h1.08v-1.27h0Zm-10.03-2.41h3.18c1.97,0,3.43,.97,4.11,2.41h-7.29v-2.41h0Zm3.18,8.64h-3.18v-2.36h7.28c-.68,1.41-2.14,2.36-4.1,2.36h0Zm4.52-4.29c0,.22-.02,.44-.05,.66h-7.65v-1.33h7.65c.03,.21,.04,.42,.04,.64v.03h0Z"/></svg>