<?xml version="1.0" encoding="UTF-8"?><svg id="Layer_3" data-name="Layer 3" xmlns="http://www.w3.org/2000/svg" viewBox="0 0 192 108"><defs><style>.cls-1, .cls-2 {
        fill: #00ff94;
      }

      .cls-1, .cls-3, .cls-4, .cls-5, .cls-6 {
        stroke-linecap: round;
        stroke-linejoin: round;
        stroke-width: .3px;
      }

      .cls-1, .cls-4 {
        stroke: #003c2e;
      }

      .cls-7 {
        fill: #004734;
      }

      .cls-8 {
        fill: #003d2e;
      }

      .cls-9 {
        fill: #003c2e;
      }

      .cls-10 {
        fill: #e3e7e3;
      }

      .cls-11 {
        fill: #fff;
      }

      .cls-3 {
        stroke: #00ff94;
      }

      .cls-3, .cls-4, .cls-5, .cls-6 {
        fill: none;
      }

      .cls-5 {
        stroke: #003d2e;
      }

      .cls-6 {
        stroke: #163b2f;
      }</style></defs><g><g><g><path class="cls-2" d="M107.37,91.6c-1.37-.22-3.27-1.53-4.08-2.45,.24,.25,.5,.47,.78,.66,.63,.44,1.38,.75,2.24,.9,.03,0,.06,.01,.09,.02,4,.65,8.72-2.37,10.54-6.75,.03-.06,.05-.13,.08-.19,.02-.04,.03-.09,.05-.13,0,0,0-.01,0-.02,1.03-2.74,.66-5.32-.77-6.99-.17-.19-.35-.38-.55-.54,2.28,1.57,3.58,5.34,2.16,8.74-1.82,4.38-6.54,7.4-10.54,6.75Z"/><path class="cls-10" d="M106.4,90.73s-.06,0-.09-.02c-.86-.15-1.61-.46-2.24-.9-.28-.2-.55-.42-.78-.66-.01-.01-.02-.03-.04-.04-1.62-1.72-2.03-4.53-.8-7.49,1.82-4.38,6.54-7.4,10.54-6.76,1.1,.18,2.02,.61,2.75,1.24,.2,.17,.38,.35,.55,.54,1.44,1.66,1.8,4.25,.77,6.99,0,0,0,.01,0,.02-.02,.04-.03,.09-.05,.13-.02,.06-.05,.13-.08,.19-1.82,4.38-6.54,7.4-10.54,6.75Z"/></g><g><path class="cls-4" d="M107.3,91.63c-1.37-.22-3.27-1.53-4.08-2.45,.24,.25,.5,.47,.78,.66,.63,.44,1.38,.75,2.24,.9,.03,0,.06,.01,.09,.02,4,.65,8.72-2.37,10.54-6.75,.03-.06,.05-.13,.08-.19,.02-.04,.03-.09,.05-.13,0,0,0-.01,0-.02,1.03-2.74,.66-5.32-.77-6.99-.17-.19-.35-.38-.55-.54,2.28,1.57,3.58,5.34,2.16,8.74-1.82,4.38-6.54,7.4-10.54,6.75Z"/><path class="cls-4" d="M106.33,90.76s-.06,0-.09-.02c-.86-.15-1.61-.46-2.24-.9-.28-.2-.55-.42-.78-.66-.01-.01-.02-.03-.04-.04-1.62-1.72-2.03-4.53-.8-7.49,1.82-4.38,6.54-7.4,10.54-6.76,1.1,.18,2.02,.61,2.75,1.24,.2,.17,.38,.35,.55,.54,1.44,1.66,1.8,4.25,.77,6.99,0,0,0,.01,0,.02-.02,.04-.03,.09-.05,.13-.02,.06-.05,.13-.08,.19-1.82,4.38-6.54,7.4-10.54,6.75Z"/></g><path class="cls-9" d="M111.12,88.33l-1.19-.51,.82-4.24-3.24,3.19-1.32-.57,5.01-4.94,.44-2.28-6.76,6.66-1.32-.57,8.57-8.45,1.16,.5-.53,2.79,1.2,.52-1.6,1.58-1.22,6.32Z"/></g><g><g><g><path class="cls-2" d="M93.68,79.55c.23-1.05,1.32-2.46,2.07-3.05-.2,.17-.38,.37-.55,.58-.37,.47-.64,1.04-.79,1.69,0,.02-.01,.05-.02,.07-.68,3.07,1.46,6.85,4.77,8.45,.05,.02,.1,.05,.15,.07,.03,.01,.07,.03,.1,.04,0,0,0,0,.01,0,2.07,.92,4.09,.75,5.44-.29,.16-.12,.31-.25,.44-.4-1.32,1.69-4.29,2.54-6.86,1.29-3.31-1.6-5.45-5.39-4.77-8.45Z"/><path class="cls-10" d="M94.4,78.84s.01-.05,.02-.07c.15-.66,.42-1.22,.79-1.69,.16-.21,.35-.41,.55-.58,0,0,.02-.02,.03-.03,1.4-1.18,3.6-1.37,5.83-.29,3.31,1.6,5.45,5.39,4.77,8.45-.19,.84-.56,1.54-1.08,2.08-.14,.15-.29,.28-.44,.4-1.35,1.04-3.37,1.21-5.44,.29,0,0,0,0-.01,0-.03-.01-.07-.03-.1-.04-.05-.02-.1-.04-.15-.07-3.31-1.6-5.45-5.39-4.77-8.45Z"/></g><g><path class="cls-4" d="M93.66,79.5c.23-1.05,1.32-2.46,2.07-3.05-.2,.17-.38,.37-.55,.58-.37,.47-.64,1.04-.79,1.69,0,.02-.01,.05-.02,.07-.68,3.07,1.46,6.85,4.77,8.45,.05,.02,.1,.05,.15,.07,.03,.01,.07,.03,.1,.04,0,0,0,0,.01,0,2.07,.92,4.09,.75,5.44-.29,.16-.12,.31-.25,.44-.4-1.32,1.69-4.29,2.54-6.86,1.29-3.31-1.6-5.45-5.39-4.77-8.45Z"/><path class="cls-4" d="M94.38,78.79s.01-.05,.02-.07c.15-.66,.42-1.22,.79-1.69,.16-.21,.35-.41,.55-.58,0,0,.02-.02,.03-.03,1.4-1.18,3.6-1.37,5.83-.29,3.31,1.6,5.45,5.39,4.77,8.45-.19,.84-.56,1.54-1.08,2.08-.14,.15-.29,.28-.44,.4-1.35,1.04-3.37,1.21-5.44,.29,0,0,0,0-.01,0-.03-.01-.07-.03-.1-.04-.05-.02-.1-.04-.15-.07-3.31-1.6-5.45-5.39-4.77-8.45Z"/></g></g><g><path id="Path_14" data-name="Path 14" class="cls-8" d="M102.53,80.43s0,0,0,0c0,.02-.01,.04-.03,.06l-.16,.31-.14,.27-.16,.31-.14,.26-.16,.31-.14,.26-.16,.31-.12,.23s0,.02-.02,.02c0,0,0,0,0,0,0,0-.01-.02-.02-.02-.58-.71-1.15-1.42-1.73-2.13-.01,0-.02-.02-.02-.03,.09,0,.18,0,.27-.01l2.32-.12,.41-.02h0Z"/><path id="Path_15" data-name="Path 15" class="cls-7" d="M99.53,80.58l1.76,2.18h.01s.01,.03,.02,.04c.67,.82,1.33,1.64,2,2.47,0,0,.02,.02,.02,.03-.1-.04-.21-.09-.31-.13l-4.46-1.94s-.02,0-.03-.01c0-.01,.02-.01,.03-.01l.21-.03,.42-.06,.41-.06c.14-.02,.28-.04,.42-.07l.41-.06,.42-.07,.41-.06h.01s.02,0,0-.02v-.02c-.59-.7-1.16-1.41-1.73-2.11-.01,0-.02-.02-.02-.04,0,0,0,0,0,0h0Z"/><path id="Path_16" data-name="Path 16" class="cls-7" d="M99.53,80.58l.42,.52c.44,.55,.89,1.09,1.33,1.64,.02,.02,.02,.02-.01,.03l-.48,.08c-.11,.02-.21,.03-.32,.05l-.46,.07-.26,.04-.38,.06-.26,.04-.37,.06-.2,.03s0,0,0,0c0,0,0-.01,0-.02l.5-1.32,.47-1.25s0-.02,.01-.03h0Z"/><path id="Path_17" data-name="Path 17" class="cls-7" d="M99.01,79.94l-.21,.55-.59,1.56-.19,.49s0,.01,0,.02c0,0,0-.01,0-.02-.13-1.43-.26-2.86-.4-4.28,0,0,0-.02,0-.02,.01,0,.02,.01,.03,.02,.45,.55,.9,1.1,1.34,1.66,0,.01,.02,.02,.02,.03h0Z"/><path id="Path_18" data-name="Path 18" class="cls-8" d="M99.01,79.94s0-.02-.02-.03c-.45-.55-.9-1.11-1.35-1.66l-.02-.02c.06,.02,.11,.04,.17,.06,.5,.18,1,.36,1.5,.53l1.49,.53,1.19,.43h.03s-.03,.01-.04,.01l-1.76,.09-1.17,.06s-.01,0-.02,0h0Z"/><path id="Path_19" data-name="Path 19" class="cls-8" d="M103.34,85.29s0-.02-.01-.02c-.67-.82-1.34-1.65-2.01-2.47,0,0-.02-.01-.02-.02h0s.01,0,.02,.01l.02,.02c.66,.81,1.32,1.63,1.98,2.44,.01,.01,.02,.03,.03,.04h0s0,0,0,0h0Z"/><path id="Path_20" data-name="Path 20" class="cls-8" d="M103.35,85.29c-.68-.84-1.36-1.68-2.04-2.52h0c.06-.12,.11-.23,.17-.34,.06-.12,.12-.23,.18-.35l.31-.6,.22-.42,.33-.62s0,0,0,0c.01,.07,.03,.15,.04,.22l.32,1.86,.4,2.38,.07,.39s0,0,0,.01h0Z"/></g></g><g><g><g><path class="cls-2" d="M91.56,82.22c.18-.67,.94-1.56,1.44-1.92-.14,.11-.26,.23-.37,.36-.25,.29-.45,.66-.57,1.08,0,.01,0,.03-.01,.04-.54,1.98,.74,4.51,2.84,5.65,.03,.02,.06,.03,.09,.05,.02,.01,.04,.02,.06,.03,0,0,0,0,0,0,1.32,.66,2.64,.61,3.55-.02,.11-.07,.21-.16,.3-.25-.91,1.06-2.87,1.52-4.51,.63-2.11-1.14-3.38-3.67-2.84-5.65Z"/><path class="cls-10" d="M92.04,81.78s0-.03,.01-.04c.12-.42,.31-.78,.57-1.08,.11-.13,.24-.25,.37-.36,0,0,.01-.01,.02-.02,.95-.72,2.38-.78,3.81,0,2.11,1.15,3.38,3.67,2.84,5.65-.15,.54-.41,.98-.77,1.32-.09,.09-.2,.17-.3,.25-.91,.64-2.23,.68-3.55,.02,0,0,0,0,0,0-.02-.01-.04-.02-.06-.03-.03-.02-.06-.03-.09-.05-2.11-1.14-3.38-3.67-2.84-5.65Z"/></g><g><path class="cls-4" d="M91.54,82.19c.18-.67,.94-1.56,1.44-1.92-.14,.11-.26,.23-.37,.36-.25,.29-.45,.66-.57,1.08,0,.01,0,.03-.01,.04-.54,1.98,.74,4.51,2.84,5.65,.03,.02,.06,.03,.09,.05,.02,.01,.04,.02,.06,.03,0,0,0,0,0,0,1.32,.66,2.64,.61,3.55-.02,.11-.07,.21-.16,.3-.25-.91,1.06-2.87,1.52-4.51,.63-2.11-1.14-3.38-3.67-2.84-5.65Z"/><path class="cls-4" d="M92.03,81.75s0-.03,.01-.04c.12-.42,.31-.78,.57-1.08,.11-.13,.24-.25,.37-.36,0,0,.01-.01,.02-.02,.95-.72,2.38-.78,3.81,0,2.11,1.15,3.38,3.67,2.84,5.65-.15,.54-.41,.98-.77,1.32-.09,.09-.2,.17-.3,.25-.91,.64-2.23,.68-3.55,.02,0,0,0,0,0,0-.02-.01-.04-.02-.06-.03-.03-.02-.06-.03-.09-.05-2.11-1.14-3.38-3.67-2.84-5.65Z"/></g></g><g><path id="Path_14-2" data-name="Path 14" class="cls-8" d="M95.89,82.22s0,0,0,0c.01,.01,.02,.03,.03,.04l.13,.22,.12,.19,.13,.22,.11,.19,.14,.22,.11,.19,.13,.22,.1,.16s.01,.01,0,.02c0,0,0,0,0,0,0,0-.01,0-.02,0-.64-.13-1.28-.27-1.92-.4,0,0-.02,0-.03,0,.03-.04,.06-.08,.09-.11l.74-.98,.13-.17h0Z"/><path id="Path_15-2" data-name="Path 15" class="cls-7" d="M94.93,83.49l1.96,.41h.01s.01,0,.02,0l2.22,.46s.02,0,.03,.01c-.06,.02-.13,.04-.19,.05l-2.76,.78s-.01,0-.02,0c0,0,0-.01,0-.02l.05-.1,.11-.2,.1-.2c.04-.07,.07-.13,.11-.2l.1-.19,.11-.2,.1-.19h0s0-.02,0-.02h-.02c-.64-.14-1.27-.27-1.91-.4,0,0-.02,0-.03,0,0,0,0,0,0,0h0Z"/><path id="Path_16-2" data-name="Path 16" class="cls-7" d="M94.93,83.49l.47,.1c.49,.1,.99,.21,1.48,.31,.02,0,.02,0,.01,.02l-.12,.23c-.03,.05-.05,.1-.08,.15l-.12,.22-.07,.12-.1,.18-.07,.12-.09,.18-.05,.1s0,0,0,0c0,0,0,0-.01-.01l-.64-.87-.61-.83s-.01-.01-.01-.02h0Z"/><path id="Path_17-2" data-name="Path 17" class="cls-7" d="M94.35,83.37l.27,.36,.75,1.03,.24,.33s0,0,0,.01c0,0,0,0-.01,0-.93-.68-1.85-1.35-2.78-2.03,0,0-.01,0-.01-.01,0,0,.02,0,.02,0l1.49,.31s.02,0,.03,.01h0Z"/><path id="Path_18-2" data-name="Path 18" class="cls-8" d="M94.35,83.37s-.01,0-.02,0c-.5-.1-1-.21-1.5-.31h-.02s.06-.03,.1-.04c.28-.11,.57-.22,.86-.32l.85-.32,.68-.26h.02s0,0-.01,.01l-.56,.75-.38,.5s0,0,0,0h0Z"/><path id="Path_19-2" data-name="Path 19" class="cls-8" d="M99.17,84.38s-.01,0-.02,0l-2.23-.47s-.01,0-.02,0h0s0,0,.01,0h.02c.73,.16,1.47,.31,2.2,.46,.01,0,.03,0,.04,.01h0s0,0,0,0h0Z"/><path id="Path_20-2" data-name="Path 20" class="cls-8" d="M99.17,84.38c-.76-.16-1.51-.32-2.27-.47h0c-.05-.08-.1-.16-.14-.24-.05-.08-.1-.17-.15-.25l-.26-.43-.18-.3-.27-.45s0,0,0,0c.05,.03,.1,.06,.15,.1l1.26,.82,1.61,1.05,.26,.17s0,0,0,0h0Z"/></g></g><g><g><path class="cls-2" d="M83.44,80.98c.08-.86,.82-2.1,1.36-2.65-.14,.16-.27,.33-.38,.52-.25,.41-.41,.89-.47,1.43,0,.02,0,.04,0,.06-.24,2.53,1.84,5.35,4.65,6.31,.04,.01,.08,.03,.12,.04,.03,0,.06,.02,.08,.02,0,0,0,0,.01,0,1.75,.53,3.35,.2,4.33-.77,.11-.11,.22-.23,.32-.36-.89,1.49-3.19,2.45-5.37,1.71-2.81-.96-4.89-3.79-4.65-6.31Z"/><path class="cls-10" d="M83.94,80.34s0-.04,0-.06c.06-.54,.22-1.02,.47-1.43,.11-.19,.24-.36,.38-.52,0,0,.02-.02,.02-.02,1.01-1.08,2.75-1.45,4.65-.8,2.81,.96,4.89,3.79,4.65,6.31-.07,.69-.3,1.29-.66,1.77-.1,.13-.2,.25-.32,.36-.98,.97-2.58,1.3-4.33,.77,0,0,0,0-.01,0-.03,0-.06-.02-.08-.02-.04-.01-.08-.03-.12-.04-2.81-.96-4.89-3.79-4.65-6.31Z"/></g><g><path class="cls-4" d="M83.42,80.95c.08-.86,.82-2.1,1.36-2.65-.14,.16-.27,.33-.38,.52-.25,.41-.41,.89-.47,1.43,0,.02,0,.04,0,.06-.24,2.53,1.84,5.35,4.65,6.31,.04,.01,.08,.03,.12,.04,.03,0,.06,.02,.08,.02,0,0,0,0,.01,0,1.75,.53,3.35,.2,4.33-.77,.11-.11,.22-.23,.32-.36-.89,1.49-3.19,2.45-5.37,1.71-2.81-.96-4.89-3.79-4.65-6.31Z"/><path class="cls-4" d="M83.92,80.31s0-.04,0-.06c.06-.54,.22-1.02,.47-1.43,.11-.19,.24-.36,.38-.52,0,0,.02-.02,.02-.02,1.01-1.08,2.75-1.45,4.65-.8,2.81,.96,4.89,3.79,4.65,6.31-.07,.69-.3,1.29-.66,1.77-.1,.13-.2,.25-.32,.36-.98,.97-2.58,1.3-4.33,.77,0,0,0,0-.01,0-.03,0-.06-.02-.08-.02-.04-.01-.08-.03-.12-.04-2.81-.96-4.89-3.79-4.65-6.31Z"/></g><path class="cls-9" d="M85.64,83.2l.27-.76,2.68,.34-2.13-1.9,.3-.85,3.29,2.93,1.44,.18-4.44-3.95,.3-.85,5.63,5.01-.27,.74-1.76-.22-.27,.77-1.06-.94-4-.51Z"/></g><g><path class="cls-5" d="M84.23,78.94c-1.76,.62-3.24,1.86-3.23,3.74"/><path class="cls-5" d="M94.22,78.22l-3.2,.02"/><path class="cls-5" d="M118.93,78.04h-1.44"/><path class="cls-5" d="M83.51,80.44c-1.54,.68-2.35,1.74-2.34,3.53"/><path class="cls-5" d="M93.71,79.34h-1.38"/><path class="cls-5" d="M119.09,79.33h-1.08"/><path class="cls-11" d="M81,82.42c.02,2.27,3.08,4.09,6.84,4.06l31.49-.22,.14,19.52-32.69,.23c-3.1,.02-5.63-2.16-5.65-4.87l-.13-18.73h0Z"/><path class="cls-5" d="M81.01,82.68l.29,19.26c.02,2.27,3.08,4.09,6.84,4.06l25.22-.18,6.12-.04"/><path class="cls-5" d="M81,82.42c.02,2.27,3.08,4.09,6.84,4.06l31.49-.22,.14,19.52"/></g><g><path class="cls-11" d="M118.27,87.8c-.23-.26-.61-.44-.84-.7-.48-.47-1.36-.24-2.9-.33-1.74-.09-3.18,.03-4.13,.1l-.71,.54,.03,.32c-.08,.03-.14,.11-.17,.2l-.82,3.25h0c-.18,.7-.16,1.44,.04,2.1,.17,.54,.44,1.16,.88,1.76,.73,1,1.59,1.48,2.05,1.69,.45,.06,1.68,.16,3.02-.63,.55-.32,.99-.72,1.32-1.09,.41-.46,.71-1.03,.86-1.65l.03-.1,1.38-5.21c.02-.09,0-.19-.05-.26h0Z"/><g><path class="cls-2" d="M112.31,95.92c-.25,0-.46-.02-.58-.04-.71-.3-1.3-.76-1.76-1.33-.32-.4-.58-.85-.75-1.35-.19-.52-.21-1.08-.07-1.63l.59-2.36c.03-.12,.11-.21,.23-.25l.64-.22c.48-.12,.96-.18,1.45-.18,.52,0,1.03,.07,1.53,.2,.9,.24,1.74,.7,2.44,1.33l.49,.51c.08,.09,.11,.21,.08,.33l-.6,2.38c-.14,.55-.38,.99-.71,1.34-.31,.32-.67,.59-1.07,.8-.59,.31-1.23,.47-1.9,.47h0Z"/><path class="cls-11" d="M112.06,88.72c.44,0,.95,.05,1.49,.2,1.19,.32,1.98,.94,2.38,1.3,.18,.2,.29,.31,.48,.51,.05,.05,.07,.12,.05,.19l-.6,2.38-.02,.08c-.11,.45-.34,.86-.66,1.19-.25,.26-.59,.54-1.03,.77-.7,.36-1.36,.45-1.83,.45-.24,0-.44-.02-.56-.04-.37-.16-1.06-.53-1.66-1.27-.36-.45-.59-.91-.73-1.3-.18-.49-.2-1.03-.07-1.54l.59-2.36c.02-.07,.07-.12,.13-.14l.24-.08,.4-.14c.3-.07,.79-.17,1.4-.17m0-.3c-.49,0-.99,.06-1.47,.18l-.43,.15-.24,.08c-.16,.06-.28,.19-.32,.35l-.59,2.36c-.14,.57-.12,1.17,.08,1.71,.18,.51,.44,.98,.78,1.39,.47,.59,1.09,1.06,1.78,1.36,.02,.01,.05,.02,.08,.02,.2,.03,.4,.04,.6,.04,.69,0,1.37-.17,1.97-.48,.41-.21,.78-.49,1.11-.83,.35-.36,.61-.82,.73-1.33l.02-.08,.6-2.38c.04-.17,0-.34-.12-.47l-.26-.28-.22-.23c-.73-.66-1.6-1.13-2.52-1.38-.51-.14-1.04-.21-1.57-.21h0Z"/></g><path class="cls-5" d="M111.55,88.41c.32-1.27,1.58-2.04,2.81-1.73,1.23,.31,1.97,1.59,1.66,2.86"/><path class="cls-5" d="M116.67,90.99c-.18-.2-.29-.31-.48-.51-.39-.36-1.19-.98-2.38-1.3-1.29-.35-2.37-.16-2.89-.03l-.4,.14-.24,.08c-.06,.02-.11,.08-.13,.14l-.59,2.36h0c-.13,.51-.11,1.05,.07,1.54,.14,.4,.37,.86,.73,1.3,.6,.75,1.29,1.11,1.66,1.27,.36,.05,1.34,.14,2.39-.41,.44-.23,.77-.51,1.03-.77,.32-.33,.54-.74,.66-1.19l.02-.08,.6-2.38c.02-.07,0-.14-.05-.19h0Z"/><path class="cls-11" d="M112.79,92.07l-.06,1.36-.84-.21,.62-1.22c-.21-.12-.32-.37-.26-.62,.08-.3,.37-.48,.66-.41s.47,.37,.39,.67c-.06,.25-.28,.42-.52,.42Z"/><path class="cls-5" d="M113.04,92.5l-.06,1.36-.84-.21,.62-1.22c-.21-.12-.32-.37-.26-.62,.08-.3,.37-.48,.66-.41s.47,.37,.39,.67c-.06,.25-.28,.42-.52,.42Z"/></g></g><g><path class="cls-11" d="M130.72,32.49c0-8.35-6.77-15.12-15.12-15.12-.42,0-.84,.02-1.25,.06-2.6-6.53-8.97-11.14-16.42-11.14s-13.84,4.62-16.43,11.15h.03c-4.82,.42-9.35,2.83-12.38,6.64-3.74,4.72-4.75,11.14-2.92,16.85,.32,.98,.71,1.94,1.19,2.86,1.99,3.82,5.4,7.03,9.48,8.46-.48,.88-.75,2.02-.55,3.65,0,0-.06,2.31,1.39,5.03,0,0,5.81,10.31,16.46,7.7,3.18-.78,5.33-4.6,6.13-8.47l.11-.02c2.25,2.96,5.79,4.9,9.79,4.9,6.8,0,12.31-5.51,12.31-12.31,0-2.16-.55-4.18-1.53-5.94l-.75,.46,.06-.38c6.04-1.98,10.4-7.66,10.4-14.36Zm-53.16,18.81l.73-1.62,.39,.58c-.38,.31-.77,.64-1.12,1.04Z"/><path class="cls-4" d="M91.8,19.7c-2.59-1.48-5.58-2.33-8.78-2.33-5.37,0-10.53,2.5-13.86,6.71-3.74,4.72-4.75,11.14-2.92,16.85,.32,.98,.71,1.94,1.19,2.86,2.02,3.88,5.5,7.14,9.67,8.53"/><path class="cls-4" d="M115.6,23.95c0-2.28-.43-4.46-1.22-6.47-2.58-6.56-8.97-11.2-16.45-11.2s-13.84,4.62-16.43,11.15"/><path class="cls-4" d="M115.6,47.61c8.35,0,15.12-6.77,15.12-15.12s-6.77-15.12-15.12-15.12c-.46,0-.91,.02-1.36,.06"/><path class="cls-4" d="M79.11,49.91c-1.41,1.14-3.17,2.4-2.74,5.98,0,0-.06,2.31,1.39,5.03,0,0,5.81,10.31,16.46,7.7,4.07-1,6.48-6.98,6.48-11.68"/><path class="cls-4" d="M100.04,59.59c2.21,3.27,5.96,5.43,10.2,5.43,6.8,0,12.31-5.51,12.31-12.31,0-2.16-.55-4.18-1.53-5.94"/><path class="cls-9" d="M95.98,51.35c-2.78-2.24-7.61-8.09-8.84-10.35-.11-.2-.35-.27-.55-.17-.2,.1-.29,.34-.19,.55,1.02,2.18,6.35,9.68,8.14,11.42,.57,.04,1.44-.67,1.44-1.44Z"/><path class="cls-9" d="M110.77,44.7c-.21-.06-.43,.06-.51,.26-1.55,4.45-4.87,8.43-9.03,10.93,.4-.25-.73-3.85-.83-4.26-.58-2.54-2.02-5.54-3.29-8.19,.12-.16,.18-.35,.19-.55,.49-3.07,1.68-6.14,2.84-9.11,.32-.82,.64-1.64,.94-2.46,.08-.21-.02-.44-.23-.53-.2-.09-.44,0-.54,.2-.42,.86-.85,1.71-1.28,2.56-1.16,2.28-2.35,4.63-3.21,7.14l-4.93-10.45c-.1-.2-.34-.29-.55-.2-.21,.09-.3,.33-.22,.54l6.59,16.15c.85,2.01,1.42,4.08,1.8,6.18-.82-.4-1.66-.92-2.53-1.56l-1.44,1.44c1.37,1.19,2.83,2.17,4.36,2.92,.58,6.15,1.2,12.56,.08,19.02l3.08,.76c.63-5.48-.15-11.62-.54-16.94,2.08-1.33,4-3.16,5.85-5.61,1.92-2.61,3.17-5.22,3.71-7.75,.05-.22-.08-.43-.3-.49Z"/></g><circle class="cls-2" cx="76.88" cy="40.78" r="3.88"/><circle class="cls-2" cx="85.16" cy="24.65" r="1.76"/><circle class="cls-2" cx="105.79" cy="38.22" r="1.76"/><circle class="cls-2" cx="114.95" cy="57.96" r="1.76"/><circle class="cls-2" cx="118.99" cy="8.63" r="1.76"/><circle class="cls-1" cx="77.81" cy="40.78" r="3.88"/><polygon class="cls-8" points="80.03 42.49 79.33 42.61 78.59 40.99 77.9 42.85 77.12 42.98 78.19 40.11 77.79 39.24 76.35 43.11 75.57 43.24 77.39 38.34 78.08 38.22 78.57 39.28 79.27 39.16 78.93 40.08 80.03 42.49"/><circle class="cls-2" cx="116.26" cy="38.22" r="3.88"/><circle class="cls-1" cx="117.19" cy="38.22" r="3.88"/><polygon class="cls-8" points="119.42 39.93 118.72 40.05 117.97 38.43 117.28 40.29 116.5 40.42 117.57 37.55 117.17 36.68 115.73 40.55 114.95 40.68 116.78 35.78 117.46 35.66 117.95 36.72 118.65 36.6 118.31 37.52 119.42 39.93"/><circle class="cls-2" cx="104.85" cy="23.01" r="3.88"/><circle class="cls-1" cx="105.78" cy="23.01" r="3.88"/><g><path id="Path_14-3" data-name="Path 14" class="cls-8" d="M104.11,22.96s0,0,0,0c.01,0,.02-.02,.04-.02l.22-.1,.19-.09,.22-.1,.19-.09,.22-.1,.19-.09,.22-.1,.16-.07s.01,0,.02,0c0,0,0,0,0,0,0,0,0,.01,0,.02,0,.57,0,1.13,0,1.7,0,0,0,.02,0,.02-.05-.03-.1-.06-.15-.09l-1.29-.76-.23-.13h0Z"/><path id="Path_15-3" data-name="Path 15" class="cls-7" d="M105.78,23.95v-1.74s0,0,0-.01c0,0,0-.01,0-.02v-1.97s0-.02,0-.02c.04,.06,.07,.12,.11,.18l1.55,2.57s0,.01,0,.02c0,0-.01,0-.02,0l-.13-.06-.25-.11-.25-.11c-.08-.04-.17-.08-.25-.12l-.25-.11-.25-.12-.25-.11h0s-.01,0-.01,0h0c0,.58,0,1.14,0,1.7,0,0,0,.02,0,.03,0,0,0,0,0,0h0Z"/><path id="Path_16-3" data-name="Path 16" class="cls-7" d="M105.79,23.95v-.42c0-.44,0-.87,0-1.31,0-.02,0-.02,.02-.01l.29,.13c.06,.03,.13,.06,.19,.09l.28,.13,.16,.07,.23,.1,.16,.07,.22,.1,.12,.06s0,0,0,0c0,0,0,0-.01,0l-.84,.5-.8,.47s-.01,0-.02,.01h0Z"/><path id="Path_17-3" data-name="Path 17" class="cls-7" d="M105.79,24.46l.35-.21,.99-.59,.31-.19s0,0,.01,0c0,0,0,0,0,.01-.55,.78-1.1,1.55-1.65,2.33,0,0,0,.01-.01,.01,0,0,0-.01,0-.02,0-.44,0-.88,0-1.32,0,0,0-.02,0-.02h0Z"/><path id="Path_18-3" data-name="Path 18" class="cls-8" d="M105.79,24.46s0,.01,0,.02v1.33s0,.01,0,.02c-.02-.03-.04-.06-.07-.09-.19-.27-.38-.54-.57-.81l-.57-.8-.45-.64h0s.02,0,.02,0l.99,.58,.66,.39s0,0,.01,0h0Z"/><path id="Path_19-3" data-name="Path 19" class="cls-8" d="M105.79,20.19s0,.01,0,.02v1.97s0,.01,0,.02h0s0,0,0-.01v-.02c0-.65,0-1.3,0-1.95,0-.01,0-.02,0-.03h0s0,0,0,0h0Z"/><path id="Path_20-3" data-name="Path 20" class="cls-8" d="M105.78,20.19c0,.67,0,1.34,0,2.01h0c-.08,.04-.16,.08-.24,.11-.08,.04-.17,.08-.25,.11l-.43,.2-.3,.14-.45,.2s0,0,0,0c.02-.04,.05-.08,.07-.13l.64-1.06,.82-1.36,.13-.22s0,0,0,0h0Z"/></g><circle class="cls-2" cx="87.95" cy="58.91" r="3.88"/><circle class="cls-1" cx="88.88" cy="58.91" r="3.88"/><g><path id="Path_14-4" data-name="Path 14" class="cls-8" d="M87.21,58.87s0,0,0,0c.01,0,.02-.02,.04-.02l.22-.1,.19-.09,.22-.1,.19-.09,.22-.1,.19-.09,.22-.1,.16-.07s.01,0,.02,0c0,0,0,0,0,0,0,0,0,.01,0,.02,0,.57,0,1.13,0,1.7,0,0,0,.02,0,.02-.05-.03-.1-.06-.15-.09l-1.29-.76-.23-.13h0Z"/><path id="Path_15-4" data-name="Path 15" class="cls-7" d="M88.89,59.86v-1.74s0,0,0-.01c0,0,0-.01,0-.02v-1.97s0-.02,0-.02c.04,.06,.07,.12,.11,.18l1.55,2.57s0,.01,0,.02c0,0-.01,0-.02,0l-.13-.06-.25-.11-.25-.11c-.08-.04-.17-.08-.25-.12l-.25-.11-.25-.12-.25-.11h0s-.01,0-.01,0h0c0,.58,0,1.14,0,1.7,0,0,0,.02,0,.03,0,0,0,0,0,0h0Z"/><path id="Path_16-4" data-name="Path 16" class="cls-7" d="M88.89,59.86v-.42c0-.44,0-.87,0-1.31,0-.02,0-.02,.02-.01l.29,.13c.06,.03,.13,.06,.19,.09l.28,.13,.16,.07,.23,.1,.16,.07,.22,.1,.12,.06s0,0,0,0c0,0,0,0-.01,0l-.84,.5-.8,.47s-.01,0-.02,.01h0Z"/><path id="Path_17-4" data-name="Path 17" class="cls-7" d="M88.89,60.37l.35-.21,.99-.59,.31-.19s0,0,.01,0c0,0,0,0,0,.01-.55,.78-1.1,1.55-1.65,2.33,0,0,0,.01-.01,.01,0,0,0-.01,0-.02,0-.44,0-.88,0-1.32,0,0,0-.02,0-.02h0Z"/><path id="Path_18-4" data-name="Path 18" class="cls-8" d="M88.89,60.37s0,.01,0,.02v1.33s0,.01,0,.02c-.02-.03-.04-.06-.07-.09-.19-.27-.38-.54-.57-.81l-.57-.8-.45-.64h0s.02,0,.02,0l.99,.58,.66,.39s0,0,.01,0h0Z"/><path id="Path_19-4" data-name="Path 19" class="cls-8" d="M88.89,56.1s0,.01,0,.02v1.97s0,.01,0,.02h0s0,0,0-.01v-.02c0-.65,0-1.3,0-1.95,0-.01,0-.02,0-.03h0s0,0,0,0h0Z"/><path id="Path_20-4" data-name="Path 20" class="cls-8" d="M88.89,56.09c0,.67,0,1.34,0,2.01h0c-.08,.04-.16,.08-.24,.11-.08,.04-.17,.08-.25,.11l-.43,.2-.3,.14-.45,.2s0,0,0,0c.02-.04,.05-.08,.07-.13l.64-1.06,.82-1.36,.13-.22s0,0,0,0h0Z"/></g><path class="cls-2" d="M34.65,21.58h-4.82c1.52,0,2.76-1.12,2.76-2.51s-1.24-2.51-2.76-2.51H15.99c-1.52,0-2.76,1.12-2.76,2.51h-4.25c-1.52,0-2.76,1.12-2.76,2.51s1.24,2.51,2.76,2.51h9.06c0,1.38,1.24,2.51,2.76,2.51h13.84c1.52,0,2.76-1.12,2.76-2.51s-1.24-2.51-2.76-2.51Z"/><line class="cls-4" x1="26.24" y1="19.79" x2="29.69" y2="19.79"/><line class="cls-3" x1="21.25" y1="10.61" x2="46.25" y2="10.61"/><line class="cls-4" x1="34.15" y1="19.78" x2="48.13" y2="19.78"/><line class="cls-4" x1="154.48" y1="19.38" x2="158.34" y2="19.38"/><line class="cls-3" x1="138.34" y1="13.76" x2="166.26" y2="13.76"/><line class="cls-4" x1="163.32" y1="19.36" x2="178.92" y2="19.36"/><g><line class="cls-5" x1="31.45" y1="53.6" x2="33.95" y2="55.04"/><line class="cls-5" x1="36.45" y1="53.6" x2="34.98" y2="54.44"/><line class="cls-5" x1="33.95" y1="55.04" x2="33.95" y2="57.96"/></g><line class="cls-3" x1="31.45" y1="61.93" x2="49.56" y2="61.93"/><line class="cls-4" x1="40.16" y1="66.65" x2="54.13" y2="66.65"/><circle class="cls-4" cx="176.1" cy="12.71" r="2.1"/><path class="cls-11" d="M36.55,95.35h-4.59c1.45,0,2.63,1.18,2.63,2.63s-1.18,2.63-2.63,2.63h-13.18c-1.45,0-2.63-1.18-2.63-2.63h-4.05c-1.45,0-2.63-1.18-2.63-2.63,0-1.45,1.18-2.63,2.63-2.63h8.64c0-1.45,1.18-2.63,2.63-2.63h13.18c1.45,0,2.63,1.18,2.63,2.63s-1.18,2.63-2.63,2.63Z"/><path class="cls-2" d="M17.18,98.06H.05c.06-3.1,0-6.12-.05-9.15H17.18c2.53,0,4.58,2.05,4.58,4.58,0,2.53-2.05,4.58-4.58,4.58Z"/><rect class="cls-11" x="141.26" y="85.08" width="20.61" height="5.88" rx="2.94" ry="2.94"/><rect class="cls-11" x="146.47" y="89.98" width="29.63" height="8.45" rx="4.23" ry="4.23"/><line class="cls-6" x1="180.29" y1="86.84" x2="181.89" y2="88.44"/><line class="cls-6" x1="183.07" y1="89.61" x2="184.67" y2="91.22"/><line class="cls-6" x1="180.29" y1="91.22" x2="181.89" y2="89.61"/><line class="cls-6" x1="183.07" y1="88.44" x2="184.67" y2="86.84"/><rect class="cls-2" x="140.86" y="54.5" width="15.64" height="4.46" rx="2.23" ry="2.23" transform="translate(297.37 113.45) rotate(-180)"/><rect class="cls-2" x="145.51" y="48.23" width="25.61" height="7.3" rx="3.65" ry="3.65" transform="translate(316.62 103.77) rotate(-180)"/><rect class="cls-5" x="10.08" y="31.8" width="2.91" height="2.91" transform="translate(26.89 1.58) rotate(45)"/></svg>