<?xml version="1.0" encoding="UTF-8"?><svg id="Layer_1" data-name="Layer 1" xmlns="http://www.w3.org/2000/svg" viewBox="0 0 192 108"><defs><style>.cls-1, .cls-2 {
        stroke-width: .32px;
      }

      .cls-1, .cls-2, .cls-3, .cls-4, .cls-5, .cls-6 {
        stroke-linecap: round;
        stroke-linejoin: round;
      }

      .cls-1, .cls-5 {
        stroke: #003d2e;
      }

      .cls-1, .cls-7 {
        fill: #e3e7e3;
      }

      .cls-2, .cls-3 {
        stroke: #00ff94;
      }

      .cls-2, .cls-3, .cls-4, .cls-5, .cls-6 {
        fill: none;
      }

      .cls-3, .cls-4, .cls-5, .cls-6 {
        stroke-width: .32px;
      }

      .cls-4 {
        stroke: #003c2e;
      }

      .cls-6 {
        stroke: #163b2f;
      }

      .cls-8 {
        fill: #00ff94;
      }

      .cls-9 {
        fill: #003d2e;
      }</style></defs><path class="cls-1" d="M96.75,14.72V86.99l-39.23-19.62c-1.1-.57-2.02-1.39-2.65-2.41,.81-.53,1.33-1.46,1.33-2.49v-23.23c0-1.04-.52-1.96-1.33-2.49,.63-1,1.54-1.85,2.65-2.41L96.75,14.72Z"/><g><line class="cls-5" x1="9.84" y1="82.81" x2="12.35" y2="84.26"/><line class="cls-5" x1="14.86" y1="82.81" x2="13.38" y2="83.66"/><line class="cls-5" x1="12.35" y1="84.26" x2="12.35" y2="87.18"/></g><line class="cls-3" x1="9.84" y1="91.16" x2="27.99" y2="91.16"/><path class="cls-7" d="M173.29,93.85h-5c1.58,0,2.87-1.13,2.87-2.53s-1.28-2.53-2.87-2.53h-14.37c-1.58,0-2.87,1.13-2.87,2.53h-4.41c-1.58,0-2.87,1.13-2.87,2.53s1.28,2.53,2.87,2.53h9.41c0,1.4,1.28,2.53,2.87,2.53h14.37c1.58,0,2.87-1.13,2.87-2.53s-1.28-2.53-2.87-2.53Z"/><line class="cls-4" x1="164.56" y1="92.05" x2="168.15" y2="92.05"/><line class="cls-3" x1="159.38" y1="82.78" x2="185.34" y2="82.78"/><line class="cls-4" x1="172.78" y1="92.03" x2="187.29" y2="92.03"/><g><line class="cls-5" x1="106.66" y1="84.91" x2="109.26" y2="86.41"/><line class="cls-5" x1="111.86" y1="84.91" x2="110.33" y2="85.79"/><line class="cls-5" x1="109.26" y1="86.41" x2="109.26" y2="89.44"/></g><line class="cls-3" x1="106.66" y1="93.56" x2="125.47" y2="93.56"/><line class="cls-4" x1="121.97" y1="96.78" x2="136.49" y2="96.78"/><line class="cls-4" x1="24.93" y1="14.92" x2="32.18" y2="14.92"/><line class="cls-4" x1="19.41" y1="14.92" x2="21.24" y2="14.92"/><line class="cls-3" x1="17.02" y1="21.14" x2="42.98" y2="21.14"/><line class="cls-4" x1="40.85" y1="26.14" x2="26.33" y2="26.14"/><g><line class="cls-6" x1="8.7" y1="8.26" x2="10.41" y2="9.98"/><line class="cls-6" x1="11.67" y1="11.23" x2="13.38" y2="12.94"/><line class="cls-6" x1="8.7" y1="12.94" x2="10.41" y2="11.23"/><line class="cls-6" x1="11.67" y1="9.98" x2="13.38" y2="8.26"/></g><rect class="cls-8" x="144.2" y="14.34" width="16.84" height="4.01" rx="1.24" ry="1.24" transform="translate(305.23 32.68) rotate(-180)"/><rect class="cls-8" x="148.97" y="9.07" width="20.57" height="6.37" rx="1.97" ry="1.97" transform="translate(318.51 24.52) rotate(-180)"/><g><line class="cls-6" x1="159.53" y1="17.23" x2="160.92" y2="16.08"/><line class="cls-6" x1="161.93" y1="15.23" x2="163.31" y2="14.08"/><line class="cls-6" x1="159.53" y1="14.08" x2="160.92" y2="15.23"/><line class="cls-6" x1="161.93" y1="16.08" x2="163.31" y2="17.23"/></g><path class="cls-8" d="M155.76,29.2c1.12-.59,2.82-.59,3.94,0l11.41,6.02c.67,.35,1.05,.88,1.11,1.43h.01v30.25c-.01,.6-.39,1.19-1.12,1.58l-11.41,6.02c-1.12,.59-2.82,.59-3.94,0l-11.41-6.02c-.73-.38-1.08-.98-1.1-1.58v-30.25h0c.05-.55,.4-1.07,1.09-1.43l11.41-6.02h0Zm14.66,24.27l-10.73,5.67c-1.12,.59-2.82,.59-3.93,0l-10.7-5.66v13.33l10.7,5.63c.63,.34,1.29,.67,1.93,.68h.04c.64,0,1.26-.32,1.89-.63l10.8-5.73s0-13.29,0-13.29Zm-28.96,12.78c0,1.16,.13,1.92,.4,2.46,.22,.45,.55,.79,1.15,1.2l.04,.02c.13,.09,.28,.19,.46,.29l.21,.13,.64,.39-.92,1.54-.72-.44-.12-.07c-.18-.11-.36-.23-.54-.35-1.72-1.17-2.36-2.44-2.37-5.09v-.08s1.78,0,1.78,0Zm15.41-20.82c-.08,.03-.16,.06-.23,.1l-11.4,6.04s-.02,.01-.04,.02h-.01s.02,.02,.02,.02h.02s11.4,6.05,11.4,6.05c.07,.04,.15,.07,.23,.1v-12.32h0Zm1.81,0v12.32c.08-.03,.16-.06,.23-.1l11.4-6.04s.02-.01,.04-.02h.01s-.02-.02-.02-.02h-.02s-11.4-6.05-11.4-6.05c-.07-.04-.15-.07-.23-.1h0Zm11.74-6.61l-10.25,5.38,10.25,5.38v-10.76h0Zm-25.36,0v10.76l10.25-5.38-10.25-5.38h0Zm13.84-8c-.59-.31-1.67-.31-2.26,0l-11.4,6.03s-.02,.01-.04,.02h-.01s.02,.01,.02,.01h.02s11.41,6.05,11.41,6.05c.59,.31,1.67,.31,2.26,0l11.41-6.03s.02-.01,.04-.02h.01s-.02-.02-.02-.02h-.02s-11.41-6.05-11.41-6.05h0Zm13.21,.61l.72,.44,.12,.07c.21,.13,.38,.24,.54,.35,1.72,1.17,2.36,2.44,2.37,5.09v.08h-1.78c0-1.16-.13-1.92-.4-2.46-.22-.45-.55-.79-1.15-1.2l-.04-.02c-.15-.1-.3-.2-.46-.29l-.21-.13-.64-.39s.92-1.54,.92-1.54Z"/><path class="cls-1" d="M56.19,39.24v23.23c0,1.04-.52,1.96-1.33,2.49-.49,.32-1.05,.52-1.68,.52H29.95c-1.67,0-3.01-1.34-3.01-3.01v-23.23c0-1.67,1.34-3.01,3.01-3.01h23.23c.62,0,1.2,.18,1.67,.52h.02c.81,.53,1.33,1.46,1.33,2.49Z"/><path class="cls-1" d="M26.94,38.65v24.39h-5.11c-1.54,0-2.77-1.25-2.77-2.77v-18.86c0-1.52,1.23-2.77,2.77-2.77h5.11Z"/><path class="cls-1" d="M45.59,96.78c-2.69,0-4.99-1.93-5.47-4.56l-4.82-26.74h11.3l4.47,24.76c.62,3.4-2.01,6.54-5.47,6.54Z"/><line class="cls-2" x1="129.2" y1="21.85" x2="101.43" y2="32.73"/><line class="cls-2" x1="130.18" y1="49.19" x2="101.43" y2="49.84"/><line class="cls-2" x1="119" y1="72.82" x2="101.43" y2="66.56"/><path class="cls-9" d="M40.89,44.24c.3-.16,.75-.16,1.05,0l3.04,1.6c.18,.09,.28,.24,.3,.38h0v8.06c0,.16-.1,.32-.3,.42l-3.04,1.6c-.3,.16-.75,.16-1.05,0l-3.04-1.6c-.19-.1-.29-.26-.29-.42v-8.06h0c.01-.15,.11-.28,.29-.38l3.04-1.6h0Zm3.91,6.46l-2.86,1.51c-.3,.16-.75,.16-1.05,0l-2.85-1.51v3.55l2.85,1.5c.17,.09,.34,.18,.51,.18h0c.17,0,.34-.09,.5-.17l2.88-1.53s0-3.54,0-3.54Zm-7.72,3.4c0,.31,.04,.51,.11,.65,.06,.12,.15,.21,.31,.32h0s.07,.06,.12,.08l.06,.03,.17,.1-.25,.41-.19-.12-.03-.02s-.1-.06-.14-.09c-.46-.31-.63-.65-.63-1.36v-.02s.47,0,.47,0Zm4.1-5.55s-.04,.02-.06,.03l-3.04,1.61s0,0,0,0h0s0,0,0,0h0s3.04,1.61,3.04,1.61c.02,.01,.04,.02,.06,.03v-3.28h0Zm.48,0v3.28s.04-.02,.06-.03l3.04-1.61s0,0,0,0h0s0,0,0,0h0s-3.04-1.61-3.04-1.61c-.02-.01-.04-.02-.06-.03h0Zm3.13-1.76l-2.73,1.43,2.73,1.43v-2.87h0Zm-6.75,0v2.87l2.73-1.43-2.73-1.43h0Zm3.69-2.13c-.16-.08-.44-.08-.6,0l-3.04,1.61s0,0,0,0h0s0,0,0,0h0s3.04,1.61,3.04,1.61c.16,.08,.44,.08,.6,0l3.04-1.61s0,0,0,0h0s0,0,0,0h0s-3.04-1.61-3.04-1.61h0Zm3.52,.16l.19,.12,.03,.02c.06,.03,.1,.06,.14,.09,.46,.31,.63,.65,.63,1.36v.02h-.47c0-.31-.04-.51-.11-.66-.06-.12-.15-.21-.31-.32h0s-.08-.06-.12-.08l-.06-.03-.17-.1s.25-.41,.25-.41Z"/></svg>