<?xml version="1.0" encoding="UTF-8"?><svg id="Layer_1" data-name="Layer 1" xmlns="http://www.w3.org/2000/svg" viewBox="0 0 192 108"><defs><style>.cls-1 {
        stroke: #00ff94;
      }

      .cls-1, .cls-2, .cls-3, .cls-4 {
        fill: none;
        stroke-linecap: round;
        stroke-linejoin: round;
        stroke-width: .33px;
      }

      .cls-2 {
        stroke: #003c2e;
      }

      .cls-3 {
        stroke: #003d2e;
      }

      .cls-4 {
        stroke: #163b2f;
      }

      .cls-5 {
        fill: #00ff94;
      }

      .cls-6, .cls-7 {
        fill: #003d2e;
      }

      .cls-8 {
        fill: #e3e7e3;
      }

      .cls-9 {
        fill: #fff;
      }

      .cls-9, .cls-7 {
        fill-rule: evenodd;
      }</style></defs><rect class="cls-3" x="63.5" y="71.95" width="3.02" height="3.02" transform="translate(70.99 -24.45) rotate(45)"/><path class="cls-8" d="M49.63,88.82h-4.79c1.52,0,2.75-1.12,2.75-2.49s-1.23-2.49-2.75-2.49h-13.77c-1.52,0-2.75,1.12-2.75,2.49h-4.22c-1.52,0-2.75,1.12-2.75,2.49s1.23,2.49,2.75,2.49h9.02c0,1.38,1.23,2.49,2.75,2.49h13.77c1.52,0,2.75-1.12,2.75-2.49s-1.23-2.49-2.75-2.49Z"/><path class="cls-8" d="M38.41,45.38h-4.79c1.52,0,2.75-1.23,2.75-2.75s-1.23-2.75-2.75-2.75h-13.77c-1.52,0-2.75,1.23-2.75,2.75h-4.22c-1.52,0-2.75,1.23-2.75,2.75s1.23,2.75,2.75,2.75h9.02c0,1.52,1.23,2.75,2.75,2.75h13.77c1.52,0,2.75-1.23,2.75-2.75s-1.23-2.75-2.75-2.75Z"/><line class="cls-3" x1="8.89" y1="12.68" x2="11.38" y2="14.12"/><line class="cls-3" x1="13.86" y1="12.68" x2="12.4" y2="13.53"/><line class="cls-3" x1="11.38" y1="14.12" x2="11.38" y2="17.02"/><line class="cls-2" x1="184.8" y1="72.17" x2="191.76" y2="72.17"/><line class="cls-2" x1="179.52" y1="72.17" x2="181.27" y2="72.17"/><line class="cls-2" x1="144.99" y1="91.04" x2="148.42" y2="91.04"/><line class="cls-1" x1="130.61" y1="83.34" x2="155.48" y2="83.34"/><line class="cls-2" x1="152.86" y1="91.02" x2="166.76" y2="91.02"/><line class="cls-2" x1="41.27" y1="87.04" x2="44.7" y2="87.04"/><line class="cls-1" x1="36.31" y1="77.91" x2="61.18" y2="77.91"/><line class="cls-2" x1="49.14" y1="87.03" x2="63.04" y2="87.03"/><line class="cls-2" x1="167.85" y1="18.47" x2="181.75" y2="18.47"/><line class="cls-1" x1="8.89" y1="20.97" x2="26.9" y2="20.97"/><line class="cls-2" x1="22.98" y1="35.72" x2="36.88" y2="35.72"/><line class="cls-4" x1="169.26" y1="65.8" x2="170.9" y2="67.44"/><line class="cls-4" x1="172.1" y1="68.64" x2="173.74" y2="70.28"/><line class="cls-4" x1="169.26" y1="70.28" x2="170.9" y2="68.64"/><line class="cls-4" x1="172.1" y1="67.44" x2="173.74" y2="65.8"/><g><line class="cls-4" x1="60.24" y1="19.02" x2="60.24" y2="21.34"/><line class="cls-4" x1="60.24" y1="23.04" x2="60.24" y2="25.36"/><line class="cls-4" x1="57.07" y1="22.19" x2="59.39" y2="22.19"/><line class="cls-4" x1="61.09" y1="22.19" x2="63.41" y2="22.19"/></g><g><line class="cls-3" x1="154.02" y1="17.74" x2="156.09" y2="16.54"/><line class="cls-3" x1="158.17" y1="17.74" x2="156.95" y2="17.04"/><line class="cls-3" x1="156.09" y1="16.54" x2="156.09" y2="14.12"/></g><rect class="cls-5" x="141.7" y="44.71" width="20.46" height="5.83" rx="2.92" ry="2.92" transform="translate(303.86 95.26) rotate(-180)"/><rect class="cls-5" x="147.77" y="36.52" width="33.5" height="9.55" rx="4.05" ry="4.05" transform="translate(329.04 82.59) rotate(-180)"/><path class="cls-5" d="M18.18,42.55H.3c.06,3.24,0,6.39-.05,9.55H18.18c2.64,0,4.78-2.14,4.78-4.78s-2.14-4.78-4.78-4.78Z"/><path class="cls-8" d="M120.5,16.96V93.71c0,1.83-1.49,3.32-3.32,3.32h-35.5c-1.83,0-3.32-1.49-3.32-3.32V16.96c0-1.83,1.49-3.32,3.32-3.32h8.85v1.4c0,.71,.58,1.29,1.29,1.29h14.88c.71,0,1.29-.58,1.29-1.29v-1.4h9.19c1.83,0,3.32,1.49,3.32,3.32Z"/><path class="cls-6" d="M117.18,11.5h-35.5c-3,0-5.45,2.45-5.45,5.45V93.71c0,3,2.45,5.45,5.45,5.45h35.5c3,0,5.45-2.45,5.45-5.45V16.96c0-3-2.45-5.45-5.45-5.45Zm3.32,82.21c0,1.83-1.49,3.32-3.32,3.32h-35.5c-1.83,0-3.32-1.49-3.32-3.32V16.96c0-1.83,1.49-3.32,3.32-3.32h8.85v1.4c0,.71,.58,1.29,1.29,1.29h14.88c.71,0,1.29-.58,1.29-1.29v-1.4h9.19c1.83,0,3.32,1.49,3.32,3.32V93.71Z"/><path class="cls-7" d="M93.99,66.33v15.92h13.21l-13.21-15.92Z"/><path class="cls-9" d="M80.66,82.25h13.21v-15.92l-13.21,15.92Z"/><path class="cls-7" d="M107.31,74.82v11.67h9.79l-9.79-11.67Z"/><path class="cls-9" d="M97.64,86.5h9.67v-11.67l-9.67,11.67Z"/><circle class="cls-5" cx="107.31" cy="66.33" r="5.31"/><circle class="cls-5" cx="93.99" cy="60.44" r="2.59"/></svg>