<svg width="1676" height="858" viewBox="0 0 1676 858" fill="none" xmlns="http://www.w3.org/2000/svg"><path d="M774.313 754.114H888.971C896.98 754.114 903.473 747.621 903.473 739.612C903.473 731.603 896.98 725.11 888.971 725.11H774.313C766.303 725.11 759.811 731.603 759.811 739.612C759.811 747.621 766.303 754.114 774.313 754.114Z" fill="#E6E8EA"/><path d="M715.582 732.904H854.622C867.337 732.904 877.644 722.596 877.644 709.882V709.791C877.644 697.076 867.337 686.769 854.622 686.769H715.582C702.867 686.769 692.56 697.076 692.56 709.791V709.882C692.56 722.596 702.867 732.904 715.582 732.904Z" fill="#E6E8EA"/><path d="M1314.61 218.257L1432.71 218.257C1442.93 218.257 1451.2 209.999 1451.2 199.812C1451.2 189.625 1442.93 181.367 1432.71 181.367H1314.61C1304.4 181.367 1296.12 189.625 1296.12 199.812C1296.12 209.999 1304.4 218.257 1314.61 218.257Z" fill="#03FC9D"/><path d="M1369.54 191.518L1500.24 191.518C1516.46 191.518 1529.61 178.37 1529.61 162.151C1529.61 145.932 1516.46 132.784 1500.24 132.784L1369.54 132.784C1353.32 132.784 1340.17 145.932 1340.17 162.151C1340.17 178.37 1353.32 191.518 1369.54 191.518Z" fill="#03FC9D"/><path d="M1437.34 208.014L1450.12 197.409" stroke="#003B2F" stroke-width="2.71917" stroke-linecap="round" stroke-linejoin="round"/><path d="M1459.37 189.614L1472.15 179.01" stroke="#003B2F" stroke-width="2.71917" stroke-linecap="round" stroke-linejoin="round"/><path d="M1437.34 179.01L1450.12 189.614" stroke="#003B2F" stroke-width="2.71917" stroke-linecap="round" stroke-linejoin="round"/><path d="M1459.37 197.409L1472.15 208.014" stroke="#003B2F" stroke-width="2.71917" stroke-linecap="round" stroke-linejoin="round"/><path d="M127.877 435.97L140.023 448.116" stroke="#003B2F" stroke-width="2.71917" stroke-linecap="round" stroke-linejoin="round"/><path d="M148.904 456.998L161.049 469.144" stroke="#003B2F" stroke-width="2.71917" stroke-linecap="round" stroke-linejoin="round"/><path d="M127.877 469.144L140.023 456.998" stroke="#003B2F" stroke-width="2.71917" stroke-linecap="round" stroke-linejoin="round"/><path d="M148.904 448.116L161.049 435.97" stroke="#003B2F" stroke-width="2.71917" stroke-linecap="round" stroke-linejoin="round"/><path d="M816.645 628.578H936.832" stroke="#03FC9D" stroke-width="2.71917" stroke-linecap="round" stroke-linejoin="round"/><path d="M924.141 670.635H991.304" stroke="#003B2F" stroke-width="2.71917" stroke-linecap="round" stroke-linejoin="round"/><path d="M1512.02 365.273H1495.43" stroke="#003B2F" stroke-width="2.71917" stroke-linecap="round" stroke-linejoin="round"/><path d="M1581.45 323.125H1461.36" stroke="#03FC9D" stroke-width="2.71917" stroke-linecap="round" stroke-linejoin="round"/><path d="M1473.96 365.182H1406.79" stroke="#003B2F" stroke-width="2.71917" stroke-linecap="round" stroke-linejoin="round"/><path d="M827.7 674.442L849.997 687.041" stroke="#003B2F" stroke-width="2.71917" stroke-linecap="round" stroke-linejoin="round"/><path d="M872.385 674.442L859.242 681.874" stroke="#003B2F" stroke-width="2.71917" stroke-linecap="round" stroke-linejoin="round"/><path d="M849.997 687.041V712.601" stroke="#003B2F" stroke-width="2.71917" stroke-linecap="round" stroke-linejoin="round"/><path d="M1154.64 463.435V642.265L1309.63 552.805V373.974L1154.64 463.435Z" fill="#E6E8EA"/><path d="M1190.53 483.829V695.652L1006.99 589.695V377.872L1190.53 483.829Z" fill="#03FC9D"/><path d="M1190.53 695.652L1006.99 589.695" stroke="#003B2F" stroke-width="1.81278" stroke-linecap="round" stroke-linejoin="round"/><path d="M1190.53 272.005L1006.99 377.872L1190.53 483.828L1374.16 377.872L1190.53 272.005Z" fill="#03FC9D"/><path d="M1190.53 483.829L1374.16 377.872V589.695" stroke="#003B2F" stroke-width="1.81278" stroke-linecap="round" stroke-linejoin="round"/><path d="M1006.99 589.695V377.872L1190.53 272.005L1374.16 377.872" stroke="#003B2F" stroke-width="1.81278" stroke-linecap="round" stroke-linejoin="round"/><path d="M1190.53 621.509L1309.63 552.804L1374.16 589.694L1190.53 695.651V483.828" stroke="#003B2F" stroke-width="1.81278" stroke-linecap="round" stroke-linejoin="round"/><path d="M1006.99 377.872L1190.53 483.829" stroke="#003B2F" stroke-width="1.81278" stroke-linecap="round" stroke-linejoin="round"/><path d="M1309.63 552.805V415.124" stroke="#003B2F" stroke-width="1.81278" stroke-linecap="round" stroke-linejoin="round"/><path d="M1190.75 428.173C1229.14 428.053 1260.2 405.027 1260.11 376.744C1260.02 348.461 1228.82 325.631 1190.43 325.752C1152.03 325.873 1120.98 348.898 1121.07 377.181C1121.16 405.464 1152.36 428.294 1190.75 428.173Z" fill="#03FC9D" stroke="#003B2F" stroke-width="1.81278" stroke-linecap="round" stroke-linejoin="round"/><path d="M1167.51 348.595L1154.91 333.096" stroke="#003B2F" stroke-width="1.81278" stroke-linecap="round" stroke-linejoin="round"/><path d="M1226.06 421.015L1213.01 404.881" stroke="#003B2F" stroke-width="1.81278" stroke-linecap="round" stroke-linejoin="round"/><path d="M1201.59 344.879L1207.57 327.385" stroke="#003B2F" stroke-width="1.81278" stroke-linecap="round" stroke-linejoin="round"/><path d="M1173.4 426.725L1179.65 408.416" stroke="#003B2F" stroke-width="1.81278" stroke-linecap="round" stroke-linejoin="round"/><path d="M1229.14 360.015L1250.26 350.77" stroke="#003B2F" stroke-width="1.81278" stroke-linecap="round" stroke-linejoin="round"/><path d="M1130.71 403.34L1152.73 393.642" stroke="#003B2F" stroke-width="1.81278" stroke-linecap="round" stroke-linejoin="round"/><path d="M1234.13 385.122L1257.87 389.564" stroke="#003B2F" stroke-width="1.81278" stroke-linecap="round" stroke-linejoin="round"/><path d="M1123.1 364.547L1147.84 369.17" stroke="#003B2F" stroke-width="1.81278" stroke-linecap="round" stroke-linejoin="round"/><path d="M1190.67 402.341C1209.74 402.281 1225.17 390.87 1225.12 376.853C1225.08 362.837 1209.58 351.523 1190.51 351.583C1171.44 351.643 1156.01 363.054 1156.06 377.07C1156.1 391.087 1171.6 402.401 1190.67 402.341Z" stroke="#003B2F" stroke-width="1.81278" stroke-linecap="round" stroke-linejoin="round"/><path d="M1179.11 362.916L1172.85 355.211" stroke="#003B2F" stroke-width="1.81278" stroke-linecap="round" stroke-linejoin="round"/><path d="M1208.11 398.899L1201.68 390.832" stroke="#003B2F" stroke-width="1.81278" stroke-linecap="round" stroke-linejoin="round"/><path d="M1195.97 361.102L1198.96 352.401" stroke="#003B2F" stroke-width="1.81278" stroke-linecap="round" stroke-linejoin="round"/><path d="M1182.01 401.709L1185.09 392.645" stroke="#003B2F" stroke-width="1.81278" stroke-linecap="round" stroke-linejoin="round"/><path d="M1209.65 368.625L1220.17 364.003" stroke="#003B2F" stroke-width="1.81278" stroke-linecap="round" stroke-linejoin="round"/><path d="M1160.8 390.107L1171.77 385.303" stroke="#003B2F" stroke-width="1.81278" stroke-linecap="round" stroke-linejoin="round"/><path d="M1212.1 381.043L1223.97 383.218" stroke="#003B2F" stroke-width="1.81278" stroke-linecap="round" stroke-linejoin="round"/><path d="M1157.08 370.801L1169.32 373.157" stroke="#003B2F" stroke-width="1.81278" stroke-linecap="round" stroke-linejoin="round"/><path d="M1190.67 402.341C1209.74 402.281 1225.17 390.87 1225.12 376.853C1225.08 362.837 1209.58 351.523 1190.51 351.583C1171.44 351.643 1156.01 363.054 1156.06 377.07C1156.1 391.087 1171.6 402.401 1190.67 402.341Z" fill="#E6E8EA" stroke="#003B2F" stroke-width="1.81278" stroke-linecap="round" stroke-linejoin="round"/><path d="M1179.11 362.916L1172.85 355.211" stroke="#003B2F" stroke-width="1.81278" stroke-linecap="round" stroke-linejoin="round"/><path d="M1208.11 398.899L1201.68 390.832" stroke="#003B2F" stroke-width="1.81278" stroke-linecap="round" stroke-linejoin="round"/><path d="M1195.97 361.102L1198.96 352.401" stroke="#003B2F" stroke-width="1.81278" stroke-linecap="round" stroke-linejoin="round"/><path d="M1182.01 401.709L1185.09 392.645" stroke="#003B2F" stroke-width="1.81278" stroke-linecap="round" stroke-linejoin="round"/><path d="M1209.65 368.625L1220.17 364.003" stroke="#003B2F" stroke-width="1.81278" stroke-linecap="round" stroke-linejoin="round"/><path d="M1160.8 390.107L1171.77 385.303" stroke="#003B2F" stroke-width="1.81278" stroke-linecap="round" stroke-linejoin="round"/><path d="M1212.1 381.043L1223.97 383.218" stroke="#003B2F" stroke-width="1.81278" stroke-linecap="round" stroke-linejoin="round"/><path d="M1157.08 370.801L1169.32 373.157" stroke="#003B2F" stroke-width="1.81278" stroke-linecap="round" stroke-linejoin="round"/><path d="M1172.59 367.266L1162.89 361.918" stroke="#003B2F" stroke-width="1.81278" stroke-linecap="round" stroke-linejoin="round"/><path d="M1218.17 392.192L1207.93 386.663" stroke="#003B2F" stroke-width="1.81278" stroke-linecap="round" stroke-linejoin="round"/><path d="M1187.27 360.74L1185.55 351.858" stroke="#003B2F" stroke-width="1.81278" stroke-linecap="round" stroke-linejoin="round"/><path d="M1195.42 402.162L1193.61 392.917" stroke="#003B2F" stroke-width="1.81278" stroke-linecap="round" stroke-linejoin="round"/><path d="M1203.86 363.822L1211.11 356.662" stroke="#003B2F" stroke-width="1.81278" stroke-linecap="round" stroke-linejoin="round"/><path d="M1169.87 397.449L1177.48 389.926" stroke="#003B2F" stroke-width="1.81278" stroke-linecap="round" stroke-linejoin="round"/><path d="M1212.56 374.608L1224.61 373.339" stroke="#003B2F" stroke-width="1.81278" stroke-linecap="round" stroke-linejoin="round"/><path d="M1156.36 380.772L1168.87 379.412" stroke="#003B2F" stroke-width="1.81278" stroke-linecap="round" stroke-linejoin="round"/><path d="M1134.61 408.145L1129.53 410.411C1127.63 411.226 1125.27 410.773 1124.09 409.414L1120.56 404.972C1119.47 403.613 1120.1 401.8 1121.92 400.984L1126.99 398.718" stroke="#003B2F" stroke-width="1.81278" stroke-linecap="round" stroke-linejoin="round"/><path d="M1254.07 355.665L1259.14 353.399C1261.05 352.583 1261.59 350.77 1260.5 349.411L1256.97 344.969C1255.88 343.61 1253.43 343.157 1251.53 343.972L1246.45 346.238" stroke="#003B2F" stroke-width="1.81278" stroke-linecap="round" stroke-linejoin="round"/><path d="M1121.37 369.985L1115.66 368.898C1113.58 368.535 1112.31 366.904 1112.85 365.363L1114.57 360.378C1115.12 358.837 1117.29 357.84 1119.38 358.293L1125.09 359.381" stroke="#003B2F" stroke-width="1.81278" stroke-linecap="round" stroke-linejoin="round"/><path d="M1256.06 395.001L1261.77 396.089C1263.86 396.452 1266.03 395.545 1266.58 394.004L1268.3 389.019C1268.84 387.478 1267.57 385.847 1265.49 385.484L1259.78 384.397" stroke="#003B2F" stroke-width="1.81278" stroke-linecap="round" stroke-linejoin="round"/><path d="M1148.66 336.087L1145.66 332.37C1144.58 331.011 1145.21 329.198 1147.02 328.382L1153.01 325.754C1154.91 324.938 1157.27 325.391 1158.44 326.751L1161.44 330.467" stroke="#003B2F" stroke-width="1.81278" stroke-linecap="round" stroke-linejoin="round"/><path d="M1219.71 423.916L1222.7 427.632C1223.79 428.992 1226.24 429.445 1228.14 428.629L1234.12 426.001C1236.03 425.185 1236.57 423.372 1235.48 422.013L1232.49 418.297" stroke="#003B2F" stroke-width="1.81278" stroke-linecap="round" stroke-linejoin="round"/><path d="M1200.5 326.207L1201.95 322.038C1202.49 320.497 1204.67 319.5 1206.76 319.953L1213.55 321.222C1215.64 321.584 1216.91 323.216 1216.36 324.757L1214.91 328.926" stroke="#003B2F" stroke-width="1.81278" stroke-linecap="round" stroke-linejoin="round"/><path d="M1166.24 425.456L1164.79 429.626C1164.24 431.167 1165.51 432.798 1167.6 433.161L1174.39 434.43C1176.48 434.792 1178.65 433.886 1179.2 432.345L1180.65 428.175" stroke="#003B2F" stroke-width="1.81278" stroke-linecap="round" stroke-linejoin="round"/><path d="M1189.38 394.732C1203.89 394.686 1215.64 386.006 1215.6 375.343C1215.57 364.681 1203.77 356.074 1189.26 356.12C1174.74 356.166 1163 364.846 1163.03 375.508C1163.06 386.171 1174.86 394.778 1189.38 394.732Z" fill="#E6E8EA"/><path d="M1319.69 680.243C1315.07 674.171 1312.35 661.663 1312.62 654.955C1312.62 656.859 1312.89 658.762 1313.25 660.575C1314.16 664.744 1315.97 668.823 1318.78 672.63C1318.87 672.811 1318.96 672.902 1319.05 673.083C1332.65 690.939 1363.01 696.74 1387.03 686.044C1387.4 685.863 1387.76 685.682 1388.03 685.591C1388.21 685.501 1388.48 685.41 1388.66 685.229C1388.66 685.229 1388.66 685.229 1388.76 685.229C1403.26 678.159 1411.69 666.376 1412.23 654.23C1412.23 652.78 1412.23 651.42 1412.14 649.97C1415.31 664.925 1406.16 684.957 1387.58 693.295C1363.65 703.991 1333.19 698.099 1319.6 680.334L1319.69 680.243Z" fill="#03FC9D"/><path d="M1319.15 673.083C1319.15 673.083 1318.96 672.811 1318.87 672.63C1315.97 668.823 1314.16 664.653 1313.34 660.575C1312.98 658.671 1312.71 656.858 1312.71 654.955C1312.71 654.864 1312.71 654.774 1312.71 654.683C1312.71 641.631 1321.86 628.76 1338 621.6C1361.93 610.995 1392.38 616.796 1405.98 634.561C1409.69 639.456 1411.78 644.713 1412.32 649.97C1412.5 651.42 1412.5 652.78 1412.41 654.23C1411.87 666.376 1403.44 678.159 1388.94 685.228C1388.94 685.228 1388.94 685.228 1388.85 685.228C1388.67 685.319 1388.39 685.41 1388.21 685.591C1387.85 685.772 1387.49 685.954 1387.22 686.044C1363.29 696.74 1332.83 690.848 1319.24 673.083H1319.15Z" fill="#E6E8EA"/><path d="M1319.33 680.153C1314.7 674.08 1311.98 661.572 1312.26 654.864C1312.26 656.768 1312.53 658.671 1312.89 660.484C1313.8 664.653 1315.61 668.732 1318.42 672.539C1318.51 672.72 1318.6 672.811 1318.69 672.992C1332.29 690.848 1362.65 696.649 1386.67 685.954C1387.03 685.772 1387.4 685.591 1387.67 685.5C1387.85 685.41 1388.12 685.319 1388.3 685.138C1388.3 685.138 1388.3 685.138 1388.39 685.138C1402.89 678.068 1411.32 666.285 1411.87 654.139C1411.87 652.689 1411.87 651.329 1411.78 649.879C1414.95 664.835 1405.8 684.866 1387.21 693.205C1363.29 703.9 1332.83 698.009 1319.24 680.243L1319.33 680.153Z" stroke="#003B2F" stroke-width="1.81278" stroke-linecap="round" stroke-linejoin="round"/><path d="M1318.78 672.901C1318.78 672.901 1318.6 672.629 1318.51 672.448C1315.61 668.641 1313.8 664.472 1312.98 660.393C1312.62 658.49 1312.35 656.677 1312.35 654.773C1312.35 654.683 1312.35 654.592 1312.35 654.502C1312.35 641.45 1321.5 628.579 1337.64 621.418C1361.57 610.814 1392.02 616.614 1405.62 634.38C1409.33 639.274 1411.42 644.531 1411.96 649.788C1412.14 651.239 1412.14 652.598 1412.05 654.048C1411.51 666.194 1403.08 677.977 1388.58 685.047C1388.58 685.047 1388.58 685.047 1388.48 685.047C1388.3 685.137 1388.03 685.228 1387.85 685.409C1387.49 685.591 1387.13 685.772 1386.85 685.863C1362.92 696.558 1332.47 690.666 1318.87 672.901H1318.78Z" stroke="#003B2F" stroke-width="1.81278" stroke-linecap="round" stroke-linejoin="round"/><path d="M1343.16 651.421C1343.16 651.421 1343.98 651.421 1344.34 651.783L1374.89 676.618C1375.43 677.071 1375.16 677.978 1374.43 678.068L1363.47 679.156C1363.47 679.156 1362.65 679.156 1362.29 678.793L1331.74 653.958C1331.74 653.958 1331.38 653.143 1331.65 652.871C1331.74 652.689 1332.01 652.599 1332.2 652.599L1343.16 651.511V651.421Z" fill="#003B2F"/><path d="M1361.84 628.398C1361.84 628.398 1362.65 628.398 1363.01 628.761L1393.56 653.596C1394.1 654.049 1393.83 654.955 1393.11 655.046L1382.14 656.134C1382.14 656.134 1381.32 656.134 1380.96 655.771L1350.41 630.936C1350.41 630.936 1350.05 630.12 1350.32 629.848C1350.41 629.667 1350.69 629.576 1350.87 629.576L1361.84 628.489V628.398Z" fill="#003B2F"/><path d="M1378.42 660.938C1378.42 660.938 1378.15 660.122 1377.88 659.85L1347.33 635.015C1347.33 635.015 1346.52 634.743 1346.24 635.106C1346.15 635.287 1346.06 635.468 1346.06 635.74L1347.24 646.707C1347.24 646.707 1347.51 647.523 1347.79 647.795L1378.33 672.63C1378.87 673.083 1379.69 672.63 1379.6 671.905L1378.42 660.938Z" fill="#003B2F"/><path d="M1190.53 691.119V486.185" stroke="#003B2F" stroke-width="1.81278" stroke-linecap="round" stroke-linejoin="round"/><path d="M1190.53 486.185V695.108L1096.17 818.558V613.533L1190.53 486.185Z" fill="#E6E8EA" stroke="#003B2F" stroke-width="1.81278" stroke-linecap="round" stroke-linejoin="round"/><path d="M1213.1 494.796V515.008L1286.7 472.499L1286.43 452.558L1213.1 494.796Z" fill="#003B2F"/><path d="M1223.34 666.92C1219.26 657.221 1219.9 639.728 1222.52 630.845C1221.89 633.383 1221.53 635.921 1221.44 638.55C1221.17 644.351 1222.25 650.423 1224.79 656.496C1224.79 656.677 1224.97 656.949 1225.06 657.131C1237.12 685.41 1275.64 703.447 1311.08 697.374C1311.62 697.284 1312.08 697.193 1312.62 697.102C1312.98 697.102 1313.34 696.921 1313.62 696.921C1313.62 696.921 1313.71 696.921 1313.8 696.921C1335.55 692.48 1350.69 679.609 1355.49 663.657C1356.04 661.844 1356.49 659.85 1356.76 657.946C1355.85 678.975 1337 702.541 1309.45 707.254C1273.92 713.327 1235.4 695.29 1223.43 667.01L1223.34 666.92Z" fill="#03FC9D"/><path d="M1224.97 657.13C1224.97 657.13 1224.79 656.677 1224.7 656.496C1222.16 650.423 1221.16 644.35 1221.34 638.549C1221.44 635.921 1221.8 633.383 1222.43 630.845C1222.43 630.754 1222.43 630.573 1222.52 630.482C1226.96 613.17 1243.37 599.121 1267.39 595.043C1302.92 588.97 1341.44 607.007 1353.41 635.286C1356.67 642.991 1357.67 650.695 1356.58 657.946C1356.31 659.849 1355.85 661.753 1355.31 663.656C1350.51 679.609 1335.37 692.479 1313.62 696.921C1313.62 696.921 1313.62 696.921 1313.43 696.921C1313.07 696.921 1312.71 697.102 1312.44 697.102C1311.89 697.193 1311.44 697.283 1310.9 697.374C1275.37 703.447 1236.84 685.41 1224.88 657.13H1224.97Z" fill="#E6E8EA"/><path d="M1222.89 666.647C1218.81 656.949 1219.44 639.456 1222.07 630.573C1221.44 633.111 1221.08 635.649 1220.98 638.277C1220.71 644.078 1221.8 650.151 1224.34 656.224C1224.34 656.405 1224.52 656.677 1224.61 656.858C1236.67 685.138 1275.19 703.175 1310.63 697.102C1311.17 697.011 1311.62 696.921 1312.17 696.83C1312.53 696.83 1312.89 696.649 1313.16 696.649C1313.16 696.649 1313.26 696.649 1313.35 696.649C1335.1 692.207 1350.24 679.337 1355.04 663.384C1355.58 661.572 1356.04 659.577 1356.31 657.674C1355.4 678.702 1336.55 702.268 1309 706.982C1273.46 713.054 1234.94 695.017 1222.98 666.738L1222.89 666.647Z" stroke="#003B2F" stroke-width="1.81278" stroke-linecap="round" stroke-linejoin="round"/><path d="M1224.52 656.858C1224.52 656.858 1224.34 656.405 1224.25 656.224C1221.71 650.151 1220.71 644.078 1220.89 638.277C1220.98 635.649 1221.35 633.111 1221.98 630.573C1221.98 630.482 1221.98 630.301 1222.07 630.21C1226.51 612.898 1242.92 598.849 1266.94 594.771C1302.47 588.698 1340.99 606.735 1352.95 635.014C1356.22 642.718 1357.21 650.423 1356.13 657.674C1355.85 659.577 1355.4 661.481 1354.86 663.384C1350.05 679.337 1334.92 692.207 1313.16 696.649C1313.16 696.649 1313.16 696.649 1312.98 696.649C1312.62 696.649 1312.26 696.83 1311.99 696.83C1311.44 696.92 1310.99 697.011 1310.44 697.102C1274.91 703.175 1236.39 685.137 1224.43 656.858H1224.52Z" stroke="#003B2F" stroke-width="1.81278" stroke-linecap="round" stroke-linejoin="round"/><path d="M1264.67 636.465C1265.22 636.465 1265.76 636.828 1266.03 637.281L1296.58 679.428C1297.12 680.153 1296.49 681.241 1295.58 681.059L1281.17 678.793C1280.62 678.793 1280.08 678.431 1279.81 677.978L1249.26 635.831C1248.9 635.377 1248.99 634.652 1249.54 634.38C1249.81 634.199 1250.08 634.108 1250.35 634.199L1264.76 636.465H1264.67Z" fill="#003B2F"/><path d="M1296.4 613.533C1296.94 613.533 1297.48 613.896 1297.76 614.349L1328.3 656.496C1328.84 657.221 1328.21 658.309 1327.3 658.127L1312.89 655.861C1312.35 655.861 1311.8 655.499 1311.53 655.046L1280.99 612.899C1280.63 612.445 1280.72 611.72 1281.26 611.448C1281.53 611.267 1281.8 611.176 1282.08 611.267L1296.49 613.533H1296.4Z" fill="#003B2F"/><path d="M1306.37 660.665C1306.37 660.121 1306.37 659.578 1306.01 659.124L1275.46 616.977C1275.1 616.524 1274.46 616.434 1274.01 616.705C1273.74 616.887 1273.65 617.159 1273.56 617.431L1271.29 631.842C1271.29 632.386 1271.29 632.93 1271.65 633.383L1302.2 675.53C1302.74 676.255 1303.92 675.983 1304.1 675.077L1306.37 660.665Z" fill="#003B2F"/><path d="M1306.64 605.465C1304.91 598.123 1307.45 585.887 1310.35 579.814C1309.63 581.537 1309.08 583.259 1308.63 585.162C1307.72 589.241 1307.81 593.682 1308.81 598.305C1308.81 598.486 1308.81 598.667 1308.9 598.758C1313.98 620.239 1339.09 637.642 1364.92 637.551C1365.28 637.551 1365.64 637.551 1366.1 637.551C1366.37 637.551 1366.64 637.551 1366.82 637.551C1366.82 637.551 1366.82 637.551 1366.91 637.551C1382.77 637.008 1395.01 629.756 1400.36 619.061C1400.99 617.792 1401.54 616.523 1401.9 615.164C1398.73 629.938 1382.59 644.259 1362.47 644.259C1336.64 644.259 1311.62 626.856 1306.46 605.465H1306.64Z" fill="#03FC9D"/><path d="M1308.99 598.849C1308.99 598.849 1308.99 598.487 1308.9 598.396C1307.91 593.773 1307.82 589.332 1308.72 585.253C1309.08 583.441 1309.72 581.628 1310.44 579.906C1310.44 579.906 1310.44 579.724 1310.53 579.634C1315.79 567.941 1329.12 559.965 1346.52 559.965C1372.35 559.965 1397.37 577.368 1402.53 598.759C1403.89 604.65 1403.71 610.179 1402.08 615.164C1401.63 616.524 1401.08 617.793 1400.54 619.062C1395.19 629.757 1382.95 637.008 1367.09 637.552C1367.09 637.552 1367.09 637.552 1367 637.552C1366.73 637.552 1366.46 637.552 1366.28 637.552C1365.91 637.552 1365.55 637.552 1365.1 637.552C1339.27 637.552 1314.25 620.149 1309.08 598.759L1308.99 598.849Z" fill="#E6E8EA"/><path d="M1306.37 605.284C1304.64 597.942 1307.18 585.706 1310.08 579.633C1309.36 581.355 1308.81 583.077 1308.36 584.981C1307.45 589.059 1307.54 593.501 1308.54 598.123C1308.54 598.305 1308.54 598.486 1308.63 598.576C1313.71 620.058 1338.82 637.46 1364.65 637.37C1365.01 637.37 1365.37 637.37 1365.83 637.37C1366.1 637.37 1366.37 637.37 1366.55 637.37C1366.55 637.37 1366.55 637.37 1366.64 637.37C1382.5 636.826 1394.74 629.575 1400.09 618.88C1400.72 617.611 1401.27 616.342 1401.63 614.982C1398.46 629.756 1382.32 644.077 1362.2 644.077C1336.37 644.077 1311.35 626.674 1306.19 605.284H1306.37Z" stroke="#003B2F" stroke-width="1.81278" stroke-linecap="round" stroke-linejoin="round"/><path d="M1308.72 598.577C1308.72 598.577 1308.72 598.214 1308.63 598.124C1307.64 593.501 1307.55 589.06 1308.45 584.981C1308.81 583.168 1309.45 581.356 1310.17 579.633C1310.17 579.633 1310.17 579.452 1310.26 579.361C1315.52 567.669 1328.85 559.693 1346.25 559.693C1372.08 559.693 1397.1 577.096 1402.26 598.486C1403.62 604.378 1403.44 609.907 1401.81 614.892C1401.36 616.252 1400.81 617.52 1400.27 618.789C1394.92 629.485 1382.68 636.736 1366.82 637.28C1366.82 637.28 1366.82 637.28 1366.73 637.28C1366.46 637.28 1366.19 637.28 1366.01 637.28C1365.64 637.28 1365.28 637.28 1364.83 637.28C1339 637.28 1313.98 619.877 1308.81 598.486L1308.72 598.577Z" stroke="#003B2F" stroke-width="1.81278" stroke-linecap="round" stroke-linejoin="round"/><path d="M1347.6 583.168C1347.78 583.168 1347.87 583.349 1348.06 583.44L1350.41 584.799L1352.5 586.068L1354.94 587.519L1357.03 588.697L1359.48 590.147L1361.56 591.325L1364.01 592.776L1365.82 593.773C1365.82 593.773 1366 593.773 1366 593.863H1365.82C1359.11 595.857 1352.32 597.942 1345.61 599.936C1345.52 599.936 1345.43 599.936 1345.34 599.936C1345.34 599.392 1345.52 598.939 1345.52 598.395L1347.51 585.343L1347.87 582.987L1347.6 583.168Z" fill="#003B2F"/><path d="M1345.07 600.117L1365.73 593.954H1365.91C1365.91 593.954 1366 593.863 1366.1 593.863C1373.89 591.506 1381.68 589.15 1389.48 586.793C1389.48 586.793 1389.66 586.703 1389.75 586.793C1389.21 587.337 1388.75 587.79 1388.21 588.334L1366.19 609.906C1366.19 609.906 1366.1 609.997 1366 610.087C1366 610.087 1366 609.997 1366 609.906V608.637V606.19V603.743C1366 602.927 1366 602.111 1366 601.295V598.939V596.492V594.135C1366 594.135 1366 594.044 1365.82 594.135H1365.64C1358.93 596.22 1352.23 598.214 1345.52 600.208C1345.43 600.208 1345.34 600.208 1345.16 600.208L1345.07 600.117Z" fill="#003B2F"/><path d="M1345.07 600.117L1350.05 598.667C1355.22 597.126 1360.48 595.585 1365.64 593.953C1365.82 593.953 1365.82 593.954 1365.82 594.044V596.854C1365.82 597.488 1365.82 598.123 1365.82 598.667V601.295V602.836V605.011V606.552V608.728V609.906C1365.82 609.906 1365.73 609.906 1365.64 609.906L1355.13 604.921L1345.16 600.208C1345.16 600.208 1344.98 600.208 1344.89 600.117H1345.07Z" fill="#003B2F"/><path d="M1338.99 601.93L1343.35 604.014L1355.76 609.815L1359.66 611.628H1359.75C1359.75 611.628 1359.66 611.628 1359.57 611.628C1347.33 609.997 1335.1 608.365 1322.77 606.734H1322.59C1322.59 606.734 1322.77 606.734 1322.86 606.643L1338.54 601.93C1338.54 601.93 1338.72 601.93 1338.81 601.93H1338.99Z" fill="#003B2F"/><path d="M1338.99 601.93C1338.99 601.93 1338.81 601.93 1338.72 601.93L1322.95 606.643H1322.77C1322.77 606.643 1323.22 606.099 1323.5 605.827C1325.67 603.38 1327.76 600.842 1329.93 598.395L1336.37 590.963L1341.44 585.071H1341.53C1341.53 585.071 1341.53 585.071 1341.53 585.162L1339.99 595.132L1338.99 601.749C1338.99 601.749 1338.99 601.749 1338.99 601.839V601.93Z" fill="#003B2F"/><path d="M1389.75 586.703H1389.57L1366.09 593.773H1365.91C1365.91 593.773 1365.91 593.773 1366.09 593.773H1366.27C1373.98 591.416 1381.77 589.06 1389.48 586.703C1389.57 586.703 1389.75 586.703 1389.93 586.703H1389.75Z" fill="#003B2F"/><path d="M1389.75 586.703C1381.77 589.06 1373.8 591.507 1365.91 593.864C1365.1 593.41 1364.19 592.867 1363.37 592.413C1362.47 591.87 1361.56 591.326 1360.66 590.782L1355.94 588.063L1352.68 586.159L1347.78 583.349C1348.42 583.349 1349.05 583.44 1349.69 583.531L1365.82 584.89L1386.4 586.612L1389.75 586.884C1389.75 586.884 1389.75 586.884 1389.84 586.884L1389.75 586.703Z" fill="#003B2F"/><path d="M1236.12 533.136C1231.59 527.153 1229.05 514.827 1229.41 508.119C1229.41 509.932 1229.59 511.836 1229.96 513.648C1230.77 517.727 1232.59 521.806 1235.3 525.613C1235.3 525.794 1235.49 525.885 1235.58 526.066C1248.81 543.74 1278.72 549.723 1302.38 539.39C1302.74 539.208 1303.1 539.118 1303.37 538.937C1303.56 538.846 1303.83 538.755 1304.01 538.574C1304.01 538.574 1304.01 538.574 1304.1 538.574C1318.42 531.776 1326.85 520.265 1327.48 508.301C1327.48 506.941 1327.48 505.491 1327.39 504.131C1330.38 518.905 1321.23 538.574 1302.83 546.55C1279.17 556.883 1249.26 550.901 1236.03 533.226L1236.12 533.136Z" fill="#03FC9D"/><path d="M1235.58 526.066C1235.58 526.066 1235.4 525.794 1235.31 525.612C1232.5 521.806 1230.77 517.727 1229.96 513.648C1229.6 511.835 1229.41 509.932 1229.41 508.119C1229.41 508.119 1229.41 507.938 1229.41 507.847C1229.6 494.976 1238.57 482.468 1254.61 475.489C1278.27 465.247 1308.18 471.138 1321.41 488.813C1325.04 493.617 1327.03 498.874 1327.49 504.04C1327.67 505.4 1327.67 506.85 1327.58 508.21C1326.94 520.174 1318.6 531.685 1304.19 538.483C1304.19 538.483 1304.19 538.483 1304.1 538.483C1303.92 538.574 1303.65 538.664 1303.47 538.846C1303.1 539.027 1302.74 539.208 1302.47 539.299C1278.81 549.632 1248.9 543.649 1235.67 525.975L1235.58 526.066Z" fill="#E6E8EA"/><path d="M1235.76 532.954C1231.23 526.972 1228.69 514.645 1229.05 507.938C1229.05 509.751 1229.23 511.654 1229.59 513.467C1230.41 517.546 1232.22 521.624 1234.94 525.431C1234.94 525.613 1235.12 525.703 1235.21 525.884C1248.45 543.559 1278.36 549.541 1302.01 539.208C1302.38 539.027 1302.74 538.936 1303.01 538.755C1303.19 538.665 1303.46 538.574 1303.65 538.393C1303.65 538.393 1303.65 538.393 1303.74 538.393C1318.06 531.595 1326.49 520.084 1327.12 508.119C1327.12 506.76 1327.12 505.309 1327.03 503.95C1330.02 518.724 1320.87 538.393 1302.47 546.369C1278.81 556.702 1248.9 550.719 1235.67 533.045L1235.76 532.954Z" stroke="#003B2F" stroke-width="1.81278" stroke-linecap="round" stroke-linejoin="round"/><path d="M1235.21 525.884C1235.21 525.884 1235.03 525.612 1234.94 525.431C1232.13 521.624 1230.41 517.545 1229.6 513.467C1229.23 511.654 1229.05 509.75 1229.05 507.938C1229.05 507.938 1229.05 507.756 1229.05 507.666C1229.23 494.795 1238.21 482.287 1254.25 475.308C1277.91 465.065 1307.82 470.957 1321.05 488.631C1324.68 493.435 1326.67 498.692 1327.12 503.859C1327.3 505.218 1327.3 506.669 1327.21 508.028C1326.58 519.993 1318.24 531.504 1303.83 538.302C1303.83 538.302 1303.83 538.302 1303.74 538.302C1303.56 538.392 1303.28 538.483 1303.1 538.664C1302.74 538.845 1302.38 539.027 1302.11 539.117C1278.45 549.45 1248.54 543.468 1235.31 525.793L1235.21 525.884Z" stroke="#003B2F" stroke-width="1.81278" stroke-linecap="round" stroke-linejoin="round"/><path d="M1281.26 490.082C1281.26 490.172 1281.44 490.354 1281.44 490.444L1282.35 492.71L1283.16 494.704L1284.07 496.97L1284.79 498.874L1285.7 501.14L1286.51 503.043L1287.42 505.309L1288.06 506.941C1288.06 506.941 1288.06 507.031 1288.06 507.122H1287.87C1281.44 506.941 1275.09 506.759 1268.66 506.578C1268.57 506.578 1268.48 506.578 1268.39 506.578C1268.75 506.034 1269.2 505.581 1269.57 505.037L1279.54 492.166L1281.26 489.9V490.082Z" fill="#003B2F"/><path d="M1268.3 506.759L1287.96 507.303H1288.06C1288.06 507.303 1288.15 507.303 1288.24 507.303L1310.53 507.937C1310.53 507.937 1310.72 507.937 1310.81 507.937C1310.08 508.3 1309.36 508.662 1308.63 508.934L1277.9 523.799C1277.9 523.799 1277.72 523.799 1277.72 523.89V523.708L1278.54 522.44L1280.08 519.902L1281.62 517.454C1282.16 516.639 1282.71 515.732 1283.16 514.917L1284.7 512.469L1286.24 509.931L1287.78 507.484V507.303H1287.6C1281.26 507.122 1274.91 506.94 1268.48 506.759C1268.39 506.759 1268.3 506.759 1268.21 506.759H1268.3Z" fill="#003B2F"/><path d="M1268.3 506.759L1273.01 506.94C1277.91 507.122 1282.89 507.212 1287.88 507.394C1288.06 507.394 1288.06 507.394 1287.97 507.575L1286.15 510.475C1285.79 511.11 1285.34 511.744 1284.98 512.379L1283.25 515.188L1282.26 516.729L1280.9 518.995L1279.9 520.536L1278.54 522.802L1277.82 523.98C1277.82 523.98 1277.82 523.98 1277.72 523.89L1273.01 515.188L1268.48 506.94C1268.48 506.94 1268.48 506.759 1268.39 506.759H1268.3Z" fill="#003B2F"/><path d="M1262.59 506.578L1264.58 510.204L1270.2 520.446L1271.92 523.709C1271.92 523.709 1271.92 523.709 1271.92 523.8C1271.92 523.8 1271.92 523.8 1271.83 523.8C1263.67 517.999 1255.43 512.107 1247.27 506.306C1247.27 506.306 1247.18 506.306 1247.18 506.216C1247.18 506.216 1247.36 506.216 1247.45 506.216L1262.41 506.669C1262.41 506.669 1262.59 506.669 1262.68 506.669L1262.59 506.578Z" fill="#003B2F"/><path d="M1262.59 506.578H1262.41C1257.42 506.397 1252.35 506.306 1247.36 506.125H1247.18C1247.18 506.125 1247.9 505.672 1248.27 505.491C1251.53 503.678 1254.7 501.774 1257.96 499.962L1267.66 494.433L1275.37 490.082H1275.55C1275.55 490.082 1275.46 490.082 1275.37 490.173L1267.75 499.962L1262.68 506.488C1262.68 506.488 1262.68 506.488 1262.68 506.578H1262.59Z" fill="#003B2F"/><path d="M1310.81 508.029C1310.81 508.029 1310.72 508.029 1310.63 508.029L1288.33 507.394H1288.15C1288.15 507.394 1288.24 507.394 1288.33 507.394H1288.51C1295.85 507.575 1303.19 507.847 1310.63 508.029C1310.72 508.029 1310.9 508.029 1310.99 508.029H1310.81Z" fill="#003B2F"/><path d="M1310.9 507.938C1303.28 507.756 1295.76 507.484 1288.15 507.303C1287.78 506.487 1287.51 505.672 1287.15 504.856C1286.79 504.04 1286.42 503.134 1286.15 502.318L1284.34 497.877L1283.07 494.795L1281.26 490.172C1281.71 490.444 1282.16 490.716 1282.62 490.988L1293.95 497.786L1308.45 506.487L1310.81 507.938H1310.9Z" fill="#003B2F"/><path d="M373.235 274.906C381.211 254.422 404.233 244.27 424.718 252.246C445.202 260.223 455.354 283.245 447.377 303.729C439.401 324.214 416.379 334.365 395.895 326.389C375.41 318.413 365.259 295.39 373.235 274.906Z" fill="#03FC9D" stroke="#003B2F" stroke-width="2.08469" stroke-linecap="round" stroke-linejoin="round"/><path d="M408.131 264.755C408.131 264.755 408.403 264.845 408.584 265.026C408.766 265.208 408.766 265.298 408.856 265.48C408.856 265.661 408.856 265.842 408.856 265.933L396.348 298.11C396.348 298.11 396.167 298.563 395.986 298.653C395.804 298.835 395.623 298.925 395.442 299.016L385.562 303.004C385.562 303.004 385.2 303.004 385.109 303.004C384.928 303.004 384.837 302.913 384.656 302.732C384.565 302.642 384.474 302.46 384.384 302.279C384.384 302.098 384.384 301.916 384.384 301.826L396.892 269.649C396.892 269.649 397.073 269.196 397.254 269.105C397.436 268.924 397.617 268.833 397.798 268.743L407.678 264.755C407.678 264.755 408.041 264.755 408.131 264.755ZM415.02 267.655C415.02 267.655 414.838 267.383 414.657 267.292C414.476 267.292 414.385 267.202 414.204 267.202C414.023 267.202 413.841 267.202 413.751 267.383C413.66 267.474 413.479 267.655 413.479 267.746L400.971 299.922C400.971 299.922 400.88 300.376 400.88 300.557C400.88 300.829 400.88 301.01 401.061 301.191L405.684 310.799C405.684 310.799 405.865 311.071 406.046 311.162C406.228 311.162 406.318 311.252 406.5 311.252C406.681 311.252 406.862 311.252 406.953 311.071C407.043 310.98 407.225 310.799 407.225 310.708L419.733 278.532C419.733 278.532 419.824 278.078 419.824 277.897C419.824 277.625 419.824 277.444 419.642 277.263L415.02 267.655ZM411.938 313.156C411.938 313.156 412.029 313.428 412.21 313.609C412.301 313.699 412.482 313.79 412.663 313.881C412.844 313.881 413.026 313.881 413.116 313.881L422.996 309.893C422.996 309.893 423.449 309.711 423.54 309.53C423.721 309.349 423.812 309.168 423.902 308.986L436.41 276.809C436.41 276.809 436.41 276.447 436.41 276.356C436.41 276.266 436.41 276.084 436.229 275.994C436.048 275.903 436.048 275.812 435.957 275.722C435.867 275.722 435.685 275.631 435.595 275.631C435.504 275.631 435.323 275.631 435.232 275.631L425.353 279.619C425.353 279.619 424.899 279.801 424.809 279.982C424.627 280.163 424.537 280.344 424.446 280.526L411.938 312.702C411.938 312.702 411.938 313.065 411.938 313.156Z" fill="#003B2F"/><path d="M593.488 104.596C602.914 80.2139 630.378 68.1589 654.76 77.5853C679.141 87.0118 691.196 114.475 681.77 138.857C672.344 163.239 644.88 175.294 620.498 165.868C596.116 156.441 584.061 128.978 593.488 104.596Z" fill="#03FC9D" stroke="#003B2F" stroke-width="2.53789" stroke-linecap="round" stroke-linejoin="round"/><path d="M618.142 127.89C618.777 127.164 619.502 126.53 620.408 126.077C621.224 125.714 622.221 125.533 624.124 125.352L645.877 122.542C647.781 122.27 648.778 122.179 649.684 122.27C650.681 122.451 651.588 122.814 652.403 123.358C653.129 123.901 653.763 124.627 655.032 126.077L660.47 132.603C661.649 133.962 662.192 134.597 662.283 135.231C662.283 135.594 662.283 135.866 662.192 136.138C662.102 136.41 661.921 136.682 661.649 136.953C661.195 137.316 660.289 137.497 658.567 137.679L617.236 143.026C615.513 143.298 614.607 143.389 614.063 143.026C613.791 142.936 613.519 142.664 613.248 142.392C613.066 142.12 612.885 141.848 612.794 141.485C612.704 140.851 612.976 140.126 613.61 138.494L616.511 130.971C617.236 129.159 617.508 128.343 618.051 127.618L618.142 127.89ZM632.1 100.426C632.1 100.426 632.644 100.063 633.007 100.063C633.369 100.063 633.641 100.063 634.004 100.063C634.548 100.245 635.091 100.97 636.179 102.329L643.43 111.756C644.518 113.115 645.062 113.841 645.062 114.475C645.062 114.838 645.062 115.11 644.88 115.472C644.699 115.835 644.609 116.107 644.337 116.288C643.883 116.741 642.977 116.832 641.255 117.194L629.563 119.188C627.84 119.46 626.934 119.641 626.39 119.37C626.118 119.188 625.846 119.007 625.574 118.735C625.393 118.463 625.212 118.191 625.121 117.829C625.031 117.194 625.302 116.378 626.028 114.656L630.469 103.236C631.103 101.514 631.466 100.698 632.01 100.335L632.1 100.426Z" fill="#003B2F"/><path d="M146.817 315.331C151.802 302.46 166.304 296.025 179.266 301.01C192.227 305.995 198.572 320.497 193.587 333.458C188.601 346.42 174.099 352.765 161.138 347.779C148.267 342.794 141.832 328.292 146.817 315.331Z" fill="#03FC9D" stroke="#003B2F" stroke-width="1.35958" stroke-linecap="round" stroke-linejoin="round"/><path d="M178.18 318.593C178.271 319.318 177.999 320.043 177.455 320.497L173.286 323.85L170.476 326.207L166.306 329.651C165.763 330.104 165.491 330.829 165.581 331.555L166.216 335.815C166.306 336.54 166.76 337.083 167.394 337.355L171.292 338.896C171.926 339.168 172.651 339.077 173.195 338.534L176.458 335.815C177.002 335.361 177.274 334.636 177.183 333.911L176.639 329.742C176.549 329.017 176.095 328.473 175.461 328.201L172.923 327.204L175.733 324.847L178.271 325.844C178.271 325.844 178.905 326.207 179.086 326.479C179.268 326.751 179.449 327.113 179.449 327.476L180.537 335.18C180.627 335.905 180.355 336.63 179.812 337.083L173.739 342.159C173.739 342.159 173.195 342.522 172.832 342.612C172.47 342.703 172.107 342.612 171.835 342.522L164.584 339.712C163.95 339.44 163.497 338.896 163.406 338.171L162.318 330.376C162.228 329.651 162.5 328.926 163.043 328.473L167.213 325.028L170.023 322.672L174.192 319.228C174.736 318.774 175.008 318.049 174.917 317.324L174.373 313.155C174.283 312.43 173.829 311.886 173.195 311.614L169.297 310.073C169.297 310.073 168.663 309.892 168.3 309.982C167.938 309.982 167.666 310.164 167.394 310.436L164.131 313.064C163.587 313.517 163.315 314.242 163.406 314.968L163.95 319.137C164.04 319.862 164.494 320.406 165.128 320.678L167.666 321.675L164.856 324.031L162.318 323.034C161.684 322.763 161.231 322.219 161.14 321.494L160.052 313.699C159.962 312.974 160.234 312.248 160.777 311.795L166.85 306.719C167.394 306.266 168.119 306.085 168.754 306.357L176.005 309.167C176.005 309.167 176.639 309.529 176.821 309.801C177.002 310.073 177.183 310.436 177.183 310.798L178.271 318.684L178.18 318.593Z" fill="#003B2F"/><path d="M439.223 439.959C439.223 439.959 412.575 426.454 399.795 420.29C388.284 414.67 387.377 413.402 384.296 409.142C383.933 408.598 383.48 408.054 383.027 407.419C378.767 401.709 357.92 363.006 357.648 362.644" stroke="#003B2F" stroke-width="2.99108" stroke-linecap="round" stroke-linejoin="round"/><path d="M413.933 431.801C413.933 431.801 394.173 425.365 382.934 421.921C372.964 418.839 371.06 416.301 368.069 412.404C367.707 411.86 367.254 411.316 366.8 410.772C363.991 407.238 358.552 398.536 353.205 390.197C351.211 387.025 348.129 382.856 346.407 380.227" stroke="#003B2F" stroke-width="2.99108" stroke-linecap="round" stroke-linejoin="round"/><path d="M410.308 430.623C410.308 430.623 374.143 421.106 367.073 419.203C361.272 417.662 360.094 416.574 357.194 414.127C356.559 413.583 355.834 412.949 355.018 412.224C351.211 409.051 341.785 401.347 331.905 393.189L324.835 387.842" stroke="#003B2F" stroke-width="2.99108" stroke-linecap="round" stroke-linejoin="round"/><path d="M515.175 383.038C495.234 385.485 486.624 387.66 478.285 389.745C476.835 390.107 475.384 390.47 473.934 390.833C465.686 392.827 425.08 398.99 413.297 400.984" stroke="#003B2F" stroke-width="2.99108" stroke-linecap="round" stroke-linejoin="round"/><path d="M388.189 161.245C388.189 161.245 414.475 174.478 427.255 180.641C438.766 186.261 439.672 187.53 442.754 191.79C443.117 192.334 443.57 192.878 444.023 193.512C448.283 199.222 468.858 237.744 469.13 238.106" stroke="#003B2F" stroke-width="2.99108" stroke-linecap="round" stroke-linejoin="round"/><path d="M412.933 169.221C412.933 169.221 432.783 175.566 444.022 179.01C453.992 182.092 455.896 184.629 458.887 188.527C459.25 189.071 459.703 189.615 460.156 190.158C462.966 193.693 468.404 202.395 473.752 210.733C475.746 213.906 478.737 218.075 480.459 220.794" stroke="#003B2F" stroke-width="2.99108" stroke-linecap="round" stroke-linejoin="round"/><path d="M416.74 169.764C416.74 169.764 452.451 179.553 459.431 181.366C465.232 182.907 466.41 183.994 469.31 186.442C469.945 186.986 470.67 187.62 471.486 188.345C475.292 191.517 484.719 199.222 494.599 207.379L502.937 213.724" stroke="#003B2F" stroke-width="2.99108" stroke-linecap="round" stroke-linejoin="round"/><path d="M313.413 218.075C333.354 215.628 341.964 213.452 350.303 211.368C351.753 211.005 353.204 210.642 354.654 210.28C362.902 208.286 372.963 205.023 384.836 203.935" stroke="#003B2F" stroke-width="2.99108" stroke-linecap="round" stroke-linejoin="round"/><path d="M550.797 382.947C525.237 378.506 483.633 378.687 483.633 378.687C483.633 378.687 461.336 372.252 441.486 372.07C421.637 371.889 425.534 384.488 425.534 384.488C425.534 384.488 426.44 391.739 443.209 396.09" stroke="#003B2F" stroke-width="2.99108" stroke-linecap="round" stroke-linejoin="round"/><path d="M145.098 139.945C214.981 187.892 243.441 205.204 262.929 214.178C265.829 215.537 269.636 216.625 274.077 217.622C275.437 217.894 276.796 218.166 278.247 218.438C303.807 222.879 343.325 222.245 343.325 222.245C343.325 222.245 365.622 228.68 385.472 228.861C385.472 228.861 400.79 230.855 401.334 219.979C401.606 215.084 398.887 210.552 394.627 208.014C392.089 206.473 388.373 205.023 383.206 204.117L415.293 200.219L419.643 201.216C419.643 201.216 437.318 222.698 446.019 232.396C454.72 242.094 463.24 241.279 469.041 238.106C469.041 238.106 472.486 244.814 477.38 251.068C482.275 257.322 493.695 259.316 501.399 252.427L479.555 219.344C479.555 219.344 495.417 232.577 504.028 239.647C512.729 246.717 524.512 245.086 529.86 235.931L502.034 213.181C502.034 213.181 513.454 215.356 517.08 203.392L467.41 177.832L412.936 169.221L388.101 161.245C388.101 161.245 377.859 155.988 367.707 157.528C357.556 159.069 351.12 160.52 321.935 163.692C292.749 166.955 270.452 155.534 254.318 140.398C238.184 125.352 150.718 40.0605 150.718 40.0605" stroke="#003B2F" stroke-width="2.99108" stroke-linecap="round" stroke-linejoin="round"/><path d="M636.27 430.623C602.009 408.235 575.723 392.192 564.031 386.754C561.131 385.394 557.324 384.306 552.882 383.309C542.278 381.225 532.035 382.222 515.72 386.391C499.405 390.561 476.836 397.993 465.778 401.619C454.721 405.244 452.726 405.697 449.373 405.335C446.019 404.972 411.667 400.712 411.667 400.712L407.316 399.715C407.316 399.715 389.642 378.234 380.941 368.535C372.239 358.837 363.719 359.653 357.918 362.825C357.918 362.825 354.474 356.118 349.579 349.864C344.685 343.61 333.264 341.616 325.56 348.504L347.404 381.587C347.404 381.587 331.542 368.354 322.932 361.284C314.23 354.214 302.447 355.846 297.1 365L324.926 387.751C324.926 387.751 313.505 385.575 309.88 397.54L359.55 423.1L414.024 431.711L438.859 439.687C438.859 439.687 449.101 444.944 459.252 443.403C469.404 441.862 475.839 440.412 505.025 437.24C534.211 433.977 556.508 445.397 572.642 460.534C579.258 466.697 597.93 484.825 617.689 503.95" stroke="#003B2F" stroke-width="2.99108" stroke-linecap="round" stroke-linejoin="round"/><path d="M468.495 773.51L1169.86 72.1471" stroke="#003B2F" stroke-width="2.71917" stroke-linecap="round" stroke-linejoin="round"/><path d="M1389.84 783.299C1400.45 783.299 1409.06 774.696 1409.06 764.083C1409.06 753.471 1400.45 744.868 1389.84 744.868C1379.23 744.868 1370.62 753.471 1370.62 764.083C1370.62 774.696 1379.23 783.299 1389.84 783.299Z" stroke="#003B2F" stroke-width="2.71917" stroke-linecap="round" stroke-linejoin="round"/><path d="M402.693 602.112H371.241C381.211 602.112 389.278 594.045 389.278 584.075C389.278 574.105 381.211 566.038 371.241 566.038H280.874C270.904 566.038 262.837 574.105 262.837 584.075H235.102C225.131 584.075 217.064 592.142 217.064 602.112C217.064 612.083 225.131 620.149 235.102 620.149H294.289C294.289 630.12 302.356 638.187 312.326 638.187H402.693C412.663 638.187 420.73 630.12 420.73 620.149C420.73 610.179 412.663 602.112 402.693 602.112Z" fill="#E6E8EA"/><path d="M612.795 229.768H778.483" stroke="#03FC9D" stroke-width="2.71917" stroke-linecap="round" stroke-linejoin="round"/><path d="M742.407 272.731H870.298" stroke="#003B2F" stroke-width="2.71917" stroke-linecap="round" stroke-linejoin="round"/><path d="M867.85 74.4132V95.7133" stroke="#003B2F" stroke-width="2.71917" stroke-linecap="round" stroke-linejoin="round"/><path d="M867.85 111.303V132.693" stroke="#003B2F" stroke-width="2.71917" stroke-linecap="round" stroke-linejoin="round"/><path d="M838.755 103.508H860.055" stroke="#003B2F" stroke-width="2.71917" stroke-linecap="round" stroke-linejoin="round"/><path d="M875.736 103.508H897.036" stroke="#003B2F" stroke-width="2.71917" stroke-linecap="round" stroke-linejoin="round"/><path d="M1495.44 523.8V541.202" stroke="#003B2F" stroke-width="2.26597" stroke-linecap="round" stroke-linejoin="round"/><path d="M1495.44 553.982V571.475" stroke="#003B2F" stroke-width="2.26597" stroke-linecap="round" stroke-linejoin="round"/><path d="M1471.6 547.638H1489" stroke="#003B2F" stroke-width="2.26597" stroke-linecap="round" stroke-linejoin="round"/><path d="M1501.78 547.638H1519.18" stroke="#003B2F" stroke-width="2.26597" stroke-linecap="round" stroke-linejoin="round"/><path d="M125.337 674.623H282.414C299.735 674.623 313.775 660.582 313.775 643.262C313.775 625.942 299.735 611.901 282.414 611.901H125.337C108.017 611.901 93.9762 625.942 93.9762 643.262C93.9762 660.582 108.017 674.623 125.337 674.623Z" fill="#03FC9D"/></svg>