<?xml version="1.0" encoding="UTF-8"?><svg id="Layer_1" data-name="Layer 1" xmlns="http://www.w3.org/2000/svg" viewBox="0 0 192 108"><defs><style>.cls-1 {
        stroke-miterlimit: 10;
        stroke-width: .32px;
      }

      .cls-1, .cls-2 {
        fill: #e3e7e3;
      }

      .cls-1, .cls-3 {
        stroke: #003d2e;
      }

      .cls-4 {
        fill: #00ff94;
      }

      .cls-5 {
        fill: #004734;
      }

      .cls-6 {
        fill: #003d2e;
      }

      .cls-7 {
        stroke: #163b2f;
      }

      .cls-7, .cls-8, .cls-3, .cls-9 {
        fill: none;
        stroke-linecap: round;
        stroke-linejoin: round;
        stroke-width: .32px;
      }

      .cls-8 {
        stroke: #003c2e;
      }

      .cls-9 {
        stroke: #00ff94;
      }</style></defs><path class="cls-2" d="M15.9,42.58h4.57c-1.45,0-2.62,1.03-2.62,2.31s1.17,2.31,2.62,2.31h13.12c1.45,0,2.62-1.03,2.62-2.31h4.03c1.45,0,2.62-1.03,2.62-2.31s-1.17-2.31-2.62-2.31h-8.6c0-1.28-1.17-2.31-2.62-2.31H15.9c-1.45,0-2.62,1.03-2.62,2.31s1.17,2.31,2.62,2.31Z"/><line class="cls-8" x1="23.88" y1="44.22" x2="20.61" y2="44.22"/><line class="cls-8" x1="16.38" y1="44.24" x2="3.12" y2="44.24"/><circle class="cls-8" cx="183.66" cy="13.45" r="2.04"/><rect class="cls-4" x="164.95" y="18.11" width="19.96" height="5.69" rx="2.85" ry="2.85"/><rect class="cls-4" x="146.3" y="10.12" width="32.68" height="9.32" rx="3.98" ry="3.98"/><circle class="cls-8" cx="178.96" cy="63.56" r="1.99"/><line class="cls-8" x1="171.37" y1="65.85" x2="168.09" y2="65.85"/><line class="cls-9" x1="185.07" y1="58.51" x2="161.36" y2="58.51"/><line class="cls-8" x1="163.86" y1="65.84" x2="150.61" y2="65.84"/><line class="cls-8" x1="117.52" y1="36.28" x2="110.74" y2="36.28"/><line class="cls-8" x1="122.68" y1="36.28" x2="120.97" y2="36.28"/><line class="cls-8" x1="134.42" y1="50.84" x2="131.07" y2="50.84"/><line class="cls-9" x1="148.44" y1="44.37" x2="124.18" y2="44.37"/><line class="cls-8" x1="126.74" y1="50.82" x2="113.18" y2="50.82"/><g><line class="cls-7" x1="132.69" y1="30.92" x2="131.09" y2="32.3"/><line class="cls-7" x1="129.92" y1="33.31" x2="128.32" y2="34.69"/><line class="cls-7" x1="132.69" y1="34.69" x2="131.09" y2="33.31"/><line class="cls-7" x1="129.92" y1="32.3" x2="128.32" y2="30.92"/></g><path class="cls-2" d="M154.91,95.83h4.68c-1.48,0-2.68-1.2-2.68-2.68s1.2-2.68,2.68-2.68h13.43c1.48,0,2.68,1.2,2.68,2.68h4.12c1.48,0,2.68,1.2,2.68,2.68s-1.2,2.68-2.68,2.68h-8.8c0,1.48-1.2,2.68-2.68,2.68h-13.43c-1.48,0-2.68-1.2-2.68-2.68s1.2-2.68,2.68-2.68Z"/><path class="cls-4" d="M174.65,93.07h17.44c-.06,3.16,0,6.23,.05,9.32h-17.49c-2.57,0-4.66-2.09-4.66-4.66s2.09-4.66,4.66-4.66Z"/><g><polygon class="cls-4" points="62.38 26.8 118.62 21.52 69.23 33.14 77.98 40.94 66.03 46.13 62.38 26.8"/><g><polygon class="cls-2" points="69.23 33.14 66.03 46.13 62.38 26.8 52.28 16.26 118.62 21.52 84.78 47 69.23 33.14"/><path class="cls-3" d="M92.54,25.1l-8.06,1.9h-.03s-3.73,.88-3.73,.88l-13.6,3.2,15.55,13.85,33.84-25.48-23.97,5.64Z"/><polygon class="cls-3" points="116.51 19.46 92.54 25.1 84.48 27 84.44 27 80.72 27.88 67.12 31.08 63.92 44.07 60.28 24.74 50.17 14.2 77.22 16.35 80.18 16.58 86.91 17.11 86.93 17.11 86.95 17.12 92.15 17.53 96.55 17.88 96.61 17.88 97.2 17.93 116.51 19.46"/><path class="cls-3" d="M63.92,44.07l8.05-3.5-8.05,3.5Z"/><polyline class="cls-3" points="116.51 19.46 96.29 21.36 82.47 22.66 82.46 22.66 78.79 23 60.28 24.74"/><g id="Group_7245" data-name="Group 7245"><path class="cls-5" d="M80.96,34.49v.02s0,0,0,0t0-.01Z"/></g><path class="cls-3" d="M64.62,37.05c-.1-.46,.27-.26,.17-.72s-.48-.65-.58-1.11,.27-.26,.17-.72-.48-.65-.58-1.11,.27-.26,.17-.72-.48-.65-.58-1.11,.27-.26,.17-.72-.48-.65-.58-1.11,.27-.26,.17-.72-.48-.65-.58-1.11,.27-.26,.17-.72-.48-.65-.58-1.11,.27-.26,.17-.72"/><path class="cls-3" d="M65.74,35.18c-.1-.46,.27-.26,.17-.72s-.48-.65-.58-1.11,.27-.26,.17-.72-.48-.65-.58-1.11,.27-.26,.17-.72-.48-.65-.58-1.11,.27-.26,.17-.72-.48-.65-.58-1.11,.27-.26,.17-.72-.48-.65-.58-1.11,.27-.26,.17-.72"/><path class="cls-3" d="M66.77,31.47c-.1-.46,.27-.26,.17-.72s-.48-.65-.58-1.11,.27-.26,.17-.72-.48-.65-.58-1.11,.27-.26,.17-.72-.48-.65-.58-1.11,.27-.26,.17-.72"/><path class="cls-3" d="M68.89,32.54c-.1-.46-.48-.65-.58-1.11s.27-.26,.17-.72-.48-.65-.58-1.11,.27-.26,.17-.72-.48-.65-.58-1.11,.27-.26,.17-.72-.48-.65-.58-1.11,.27-.26,.17-.72"/><path class="cls-3" d="M70.98,34.32c-.1-.46-.48-.65-.58-1.11s.27-.26,.17-.72-.48-.65-.58-1.11,.27-.26,.17-.72-.48-.65-.58-1.11,.27-.26,.17-.72-.48-.65-.58-1.11,.27-.26,.17-.72-.48-.65-.58-1.11,.27-.26,.17-.72"/><path class="cls-3" d="M72.92,36.1c-.1-.46-.48-.65-.58-1.11s.27-.26,.17-.72-.48-.65-.58-1.11,.27-.26,.17-.72-.48-.65-.58-1.11,.27-.26,.17-.72-.48-.65-.58-1.11,.27-.26,.17-.72-.48-.65-.58-1.11,.27-.26,.17-.72-.48-.65-.58-1.11,.27-.26,.17-.72"/><path class="cls-3" d="M74.09,36.1c-.1-.46,.27-.26,.17-.72s-.48-.65-.58-1.11,.27-.26,.17-.72-.48-.65-.58-1.11,.27-.26,.17-.72-.48-.65-.58-1.11,.27-.26,.17-.72-.48-.65-.58-1.11,.27-.26,.17-.72-.48-.65-.58-1.11,.27-.26,.17-.72-.48-.65-.58-1.11,.27-.26,.17-.72"/><path class="cls-3" d="M75.94,36.1c-.1-.46,.27-.26,.17-.72s-.48-.65-.58-1.11,.27-.26,.17-.72-.48-.65-.58-1.11,.27-.26,.17-.72-.48-.65-.58-1.11,.27-.26,.17-.72-.48-.65-.58-1.11,.27-.26,.17-.72-.48-.65-.58-1.11,.27-.26,.17-.72-.48-.65-.58-1.11,.27-.26,.17-.72"/><path class="cls-3" d="M77.48,36.1c-.1-.46,.27-.26,.17-.72s-.48-.65-.58-1.11,.27-.26,.17-.72-.48-.65-.58-1.11,.27-.26,.17-.72-.48-.65-.58-1.11,.27-.26,.17-.72-.48-.65-.58-1.11,.27-.26,.17-.72-.48-.65-.58-1.11,.27-.26,.17-.72-.48-.65-.58-1.11,.27-.26,.17-.72"/><path class="cls-3" d="M79.21,35.75c-.1-.46,.27-.26,.17-.72s-.48-.65-.58-1.11,.27-.26,.17-.72-.48-.65-.58-1.11,.27-.26,.17-.72-.48-.65-.58-1.11,.27-.26,.17-.72-.48-.65-.58-1.11,.27-.26,.17-.72-.48-.65-.58-1.11,.27-.26,.17-.72-.48-.65-.58-1.11,.27-.26,.17-.72"/><path class="cls-3" d="M80.81,35.37c-.1-.46,.27-.26,.17-.72s-.48-.65-.58-1.11,.27-.26,.17-.72-.48-.65-.58-1.11,.27-.26,.17-.72-.48-.65-.58-1.11,.27-.26,.17-.72-.48-.65-.58-1.11,.27-.26,.17-.72-.48-.65-.58-1.11,.27-.26,.17-.72-.48-.65-.58-1.11,.27-.26,.17-.72"/><path class="cls-3" d="M82.6,35.37c-.1-.46,.27-.26,.17-.72s-.48-.65-.58-1.11,.27-.26,.17-.72-.48-.65-.58-1.11,.27-.26,.17-.72-.48-.65-.58-1.11,.27-.26,.17-.72-.48-.65-.58-1.11,.27-.26,.17-.72-.48-.65-.58-1.11,.27-.26,.17-.72-.48-.65-.58-1.11,.27-.26,.17-.72"/><path class="cls-3" d="M84.13,35.37c-.1-.46,.27-.26,.17-.72s-.48-.65-.58-1.11,.27-.26,.17-.72-.48-.65-.58-1.11,.27-.26,.17-.72-.48-.65-.58-1.11,.27-.26,.17-.72-.48-.65-.58-1.11,.27-.26,.17-.72-.48-.65-.58-1.11,.27-.26,.17-.72-.48-.65-.58-1.11,.27-.26,.17-.72"/><path class="cls-3" d="M85.47,34.99c-.1-.46,.27-.26,.17-.72s-.48-.65-.58-1.11,.27-.26,.17-.72-.48-.65-.58-1.11,.27-.26,.17-.72-.48-.65-.58-1.11,.27-.26,.17-.72-.48-.65-.58-1.11,.27-.26,.17-.72-.48-.65-.58-1.11,.27-.26,.17-.72-.48-.65-.58-1.11,.27-.26,.17-.72"/><path class="cls-3" d="M87.35,34.99c-.1-.46,.27-.26,.17-.72s-.48-.65-.58-1.11,.27-.26,.17-.72-.48-.65-.58-1.11,.27-.26,.17-.72-.48-.65-.58-1.11,.27-.26,.17-.72-.48-.65-.58-1.11,.27-.26,.17-.72-.48-.65-.58-1.11,.27-.26,.17-.72-.48-.65-.58-1.11,.27-.26,.17-.72"/><path class="cls-3" d="M89.2,34.99c-.1-.46,.27-.26,.17-.72s-.48-.65-.58-1.11,.27-.26,.17-.72-.48-.65-.58-1.11,.27-.26,.17-.72-.48-.65-.58-1.11,.27-.26,.17-.72-.48-.65-.58-1.11,.27-.26,.17-.72-.48-.65-.58-1.11,.27-.26,.17-.72-.48-.65-.58-1.11,.27-.26,.17-.72"/><path class="cls-3" d="M90.79,34.5c-.1-.46,.27-.26,.17-.72s-.48-.65-.58-1.11,.27-.26,.17-.72-.48-.65-.58-1.11,.27-.26,.17-.72-.48-.65-.58-1.11,.27-.26,.17-.72-.48-.65-.58-1.11,.27-.26,.17-.72-.48-.65-.58-1.11,.27-.26,.17-.72-.48-.65-.58-1.11,.27-.26,.17-.72"/><path class="cls-3" d="M92.52,34.5c-.1-.46,.27-.26,.17-.72s-.48-.65-.58-1.11,.27-.26,.17-.72-.48-.65-.58-1.11,.27-.26,.17-.72-.48-.65-.58-1.11,.27-.26,.17-.72-.48-.65-.58-1.11,.27-.26,.17-.72-.48-.65-.58-1.11,.27-.26,.17-.72-.48-.65-.58-1.11,.27-.26,.17-.72"/><path class="cls-3" d="M94.3,34.27c-.1-.46,.27-.26,.17-.72s-.48-.65-.58-1.11,.27-.26,.17-.72-.48-.65-.58-1.11,.27-.26,.17-.72-.48-.65-.58-1.11,.27-.26,.17-.72-.48-.65-.58-1.11,.27-.26,.17-.72-.48-.65-.58-1.11,.27-.26,.17-.72-.48-.65-.58-1.11,.27-.26,.17-.72"/><path class="cls-3" d="M94.03,34.87c-.08-.39,.22-.22,.13-.61s-.38-.55-.46-.93,.22-.22,.13-.61-.38-.55-.46-.93,.22-.22,.14-.61-.38-.55-.46-.94,.22-.22,.14-.61-.38-.55-.46-.94,.22-.22,.13-.61-.38-.55-.46-.94,.22-.22,.13-.61-.38-.55-.46-.94,.21-.22,.13-.61"/><path class="cls-3" d="M95.86,34.11c-.1-.46,.27-.26,.17-.72s-.48-.65-.58-1.11,.27-.26,.17-.72-.48-.65-.58-1.11,.27-.26,.17-.72-.48-.65-.58-1.11,.27-.26,.17-.72-.48-.65-.58-1.11,.27-.26,.17-.72-.48-.65-.58-1.11,.27-.26,.17-.72-.48-.65-.58-1.11,.27-.26,.17-.72"/><path class="cls-3" d="M97.68,33.49c-.1-.46,.29,0,.27-.26-.03-.47-.48-.65-.58-1.11s.27-.26,.17-.72-.48-.65-.58-1.11,.27-.26,.17-.72-.48-.65-.58-1.11,.27-.26,.17-.72-.48-.65-.58-1.11,.27-.26,.17-.72-.48-.65-.58-1.11,.27-.26,.17-.72-.48-.65-.58-1.11,.27-.26,.17-.72"/><path class="cls-3" d="M98.77,32.07c-.08-.39,.22-.22,.13-.61s-.38-.55-.46-.93,.22-.22,.13-.61-.38-.55-.46-.93,.22-.22,.14-.61-.38-.55-.46-.94,.22-.22,.14-.61-.38-.55-.46-.94,.22-.22,.13-.61-.38-.55-.46-.94,.22-.22,.13-.61-.38-.55-.46-.94,.21-.22,.13-.61"/><path class="cls-3" d="M100.12,31.01c-.06-.35,.16-.2,.1-.55s-.28-.49-.34-.84,.16-.2,.1-.55-.28-.49-.34-.84,.16-.2,.1-.55-.28-.49-.34-.84,.16-.2,.1-.55-.28-.49-.34-.84,.16-.2,.1-.55-.28-.49-.34-.84,.16-.2,.1-.55-.28-.49-.34-.84,.16-.2,.1-.55"/><path class="cls-3" d="M101.77,30.15c-.06-.31,.17-.18,.11-.5s-.3-.45-.36-.76,.17-.18,.11-.5-.3-.45-.37-.76,.17-.18,.11-.49-.3-.45-.37-.76,.17-.18,.11-.5-.3-.45-.37-.76,.17-.18,.11-.5-.3-.45-.37-.76,.17-.18,.11-.5-.3-.45-.37-.77,.17-.18,.11-.5"/><polygon class="cls-1" points="77.98 40.94 72.92 36.1 67.12 31.08 115.03 19.42 116.51 19.54 82.67 45.01 77.98 40.94"/></g><path class="cls-6" d="M84.49,43.85l-4.27-5.41,6.54-.15,1.83,2.32,1.05-.83-2-2.54c-.15-.19-.38-.3-.63-.3l-7.93,.18c-.43,0-.77,.36-.76,.79,0,.17,.06,.33,.17,.47l4.96,6.28,1.05-.83h0Zm11.34-8.95l-4.27-5.41-1.66,6.32,1.83,2.32-1.05,.83-2-2.54c-.15-.19-.2-.44-.14-.68l2.02-7.67c.11-.42,.53-.66,.95-.56,.16,.04,.31,.14,.41,.27l4.96,6.28-1.05,.83Z"/></g><g><polygon class="cls-4" points="93.62 83.67 136.99 79.59 98.9 88.56 105.65 94.57 96.43 98.57 93.62 83.67"/><g><polygon class="cls-2" points="98.9 88.56 96.43 98.57 93.62 83.67 85.83 75.54 136.99 79.59 110.9 99.24 98.9 88.56"/><path class="cls-3" d="M116.88,82.35l-6.22,1.46h-.02s-2.87,.68-2.87,.68l-10.49,2.47,11.99,10.68,26.1-19.65-18.49,4.35Z"/><polygon class="cls-3" points="135.37 78 116.88 82.35 110.66 83.82 110.64 83.82 107.76 84.5 97.28 86.97 94.81 96.98 92 82.08 84.2 73.95 105.06 75.6 107.35 75.78 112.54 76.19 112.55 76.19 112.57 76.2 116.58 76.51 119.98 76.78 120.02 76.79 120.47 76.82 135.37 78"/><path class="cls-3" d="M94.81,96.98l6.21-2.7-6.21,2.7Z"/><polyline class="cls-3" points="135.37 78 119.77 79.47 109.11 80.47 109.11 80.47 106.28 80.74 92 82.08"/><g id="Group_7245-2" data-name="Group 7245"><path class="cls-5" d="M107.95,89.59h0s0,.01,0,.01t0-.01Z"/></g><path class="cls-3" d="M95.35,91.57c-.08-.35,.21-.2,.13-.56s-.37-.5-.45-.85,.21-.2,.13-.56-.37-.5-.45-.85,.21-.2,.13-.55-.37-.5-.45-.86,.21-.2,.13-.55-.37-.5-.45-.86,.21-.2,.13-.56-.37-.5-.45-.86,.21-.2,.13-.56-.37-.5-.45-.86,.21-.2,.13-.56"/><path class="cls-3" d="M96.21,90.13c-.08-.35,.21-.2,.13-.56s-.37-.5-.45-.85,.21-.2,.13-.55-.37-.5-.45-.86,.21-.2,.13-.55-.37-.5-.45-.86,.21-.2,.13-.56-.37-.5-.45-.86,.21-.2,.13-.56-.37-.5-.45-.86,.21-.2,.13-.56"/><path class="cls-3" d="M97.01,87.27c-.08-.35,.21-.2,.13-.55s-.37-.5-.45-.86,.21-.2,.13-.56-.37-.5-.45-.86,.21-.2,.13-.56-.37-.5-.45-.86,.21-.2,.13-.56"/><path class="cls-3" d="M98.64,88.09c-.08-.35-.37-.5-.45-.86s.21-.2,.13-.55-.37-.5-.45-.86,.21-.2,.13-.56-.37-.5-.45-.86,.21-.2,.13-.56-.37-.5-.45-.86,.21-.2,.13-.56"/><path class="cls-3" d="M100.25,89.46c-.08-.35-.37-.5-.45-.85s.21-.2,.13-.55-.37-.5-.45-.86,.21-.2,.13-.55-.37-.5-.45-.86,.21-.2,.13-.56-.37-.5-.45-.86,.21-.2,.13-.56-.37-.5-.45-.86,.21-.2,.13-.56"/><path class="cls-3" d="M101.75,90.83c-.08-.35-.37-.5-.45-.85s.21-.2,.13-.56-.37-.5-.45-.85,.21-.2,.13-.55-.37-.5-.45-.86,.21-.2,.13-.55-.37-.5-.45-.86,.21-.2,.13-.56-.37-.5-.45-.86,.21-.2,.13-.56-.37-.5-.45-.86,.21-.2,.13-.56"/><path class="cls-3" d="M102.65,90.84c-.08-.35,.21-.2,.13-.56s-.37-.5-.45-.85,.21-.2,.13-.56-.37-.5-.45-.85,.21-.2,.13-.55-.37-.5-.45-.86,.21-.2,.13-.55-.37-.5-.45-.86,.21-.2,.13-.56-.37-.5-.45-.86,.21-.2,.13-.56-.37-.5-.45-.86,.21-.2,.13-.56"/><path class="cls-3" d="M104.08,90.84c-.08-.35,.21-.2,.13-.56s-.37-.5-.45-.85,.21-.2,.13-.56-.37-.5-.45-.85,.21-.2,.13-.55-.37-.5-.45-.86,.21-.2,.13-.55-.37-.5-.45-.86,.21-.2,.13-.56-.37-.5-.45-.86,.21-.2,.13-.56-.37-.5-.45-.86,.21-.2,.13-.56"/><path class="cls-3" d="M105.26,90.84c-.08-.35,.21-.2,.13-.56s-.37-.5-.45-.85,.21-.2,.13-.56-.37-.5-.45-.85,.21-.2,.13-.55-.37-.5-.45-.86,.21-.2,.13-.55-.37-.5-.45-.86,.21-.2,.13-.56-.37-.5-.45-.86,.21-.2,.13-.56-.37-.5-.45-.86,.21-.2,.13-.56"/><path class="cls-3" d="M106.6,90.56c-.08-.35,.21-.2,.13-.56s-.37-.5-.45-.85,.21-.2,.13-.56-.37-.5-.45-.85,.21-.2,.13-.55-.37-.5-.45-.86,.21-.2,.13-.55-.37-.5-.45-.86,.21-.2,.13-.56-.37-.5-.45-.86,.21-.2,.13-.56-.37-.5-.45-.86,.21-.2,.13-.56"/><path class="cls-3" d="M107.83,90.27c-.08-.35,.21-.2,.13-.56s-.37-.5-.45-.85,.21-.2,.13-.56-.37-.5-.45-.85,.21-.2,.13-.55-.37-.5-.45-.86,.21-.2,.13-.55-.37-.5-.45-.86,.21-.2,.13-.56-.37-.5-.45-.86,.21-.2,.13-.56-.37-.5-.45-.86,.21-.2,.13-.56"/><path class="cls-3" d="M109.21,90.27c-.08-.35,.21-.2,.13-.56s-.37-.5-.45-.85,.21-.2,.13-.56-.37-.5-.45-.85,.21-.2,.13-.55-.37-.5-.45-.86,.21-.2,.13-.55-.37-.5-.45-.86,.21-.2,.13-.56-.37-.5-.45-.86,.21-.2,.13-.56-.37-.5-.45-.86,.21-.2,.13-.56"/><path class="cls-3" d="M110.4,90.27c-.08-.35,.21-.2,.13-.56s-.37-.5-.45-.85,.21-.2,.13-.56-.37-.5-.45-.85,.21-.2,.13-.55-.37-.5-.45-.86,.21-.2,.13-.55-.37-.5-.45-.86,.21-.2,.13-.56-.37-.5-.45-.86,.21-.2,.13-.56-.37-.5-.45-.86,.21-.2,.13-.56"/><path class="cls-3" d="M111.43,89.98c-.08-.35,.21-.2,.13-.56s-.37-.5-.45-.85,.21-.2,.13-.56-.37-.5-.45-.85,.21-.2,.13-.55-.37-.5-.45-.86,.21-.2,.13-.55-.37-.5-.45-.86,.21-.2,.13-.56-.37-.5-.45-.86,.21-.2,.13-.56-.37-.5-.45-.86,.21-.2,.13-.56"/><path class="cls-3" d="M112.88,89.98c-.08-.35,.21-.2,.13-.56s-.37-.5-.45-.85,.21-.2,.13-.56-.37-.5-.45-.85,.21-.2,.13-.55-.37-.5-.45-.86,.21-.2,.13-.55-.37-.5-.45-.86,.21-.2,.13-.56-.37-.5-.45-.86,.21-.2,.13-.56-.37-.5-.45-.86,.21-.2,.13-.56"/><path class="cls-3" d="M114.3,89.98c-.08-.35,.21-.2,.13-.56s-.37-.5-.45-.85,.21-.2,.13-.56-.37-.5-.45-.85,.21-.2,.13-.55-.37-.5-.45-.86,.21-.2,.13-.55-.37-.5-.45-.86,.21-.2,.13-.56-.37-.5-.45-.86,.21-.2,.13-.56-.37-.5-.45-.86,.21-.2,.13-.56"/><path class="cls-3" d="M115.53,89.61c-.08-.35,.21-.2,.13-.56s-.37-.5-.45-.85,.21-.2,.13-.56-.37-.5-.45-.85,.21-.2,.13-.55-.37-.5-.45-.86,.21-.2,.13-.55-.37-.5-.45-.86,.21-.2,.13-.56-.37-.5-.45-.86,.21-.2,.13-.56-.37-.5-.45-.86,.21-.2,.13-.56"/><path class="cls-3" d="M116.87,89.61c-.08-.35,.21-.2,.13-.56s-.37-.5-.45-.85,.21-.2,.13-.56-.37-.5-.45-.85,.21-.2,.13-.55-.37-.5-.45-.86,.21-.2,.13-.55-.37-.5-.45-.86,.21-.2,.13-.56-.37-.5-.45-.86,.21-.2,.13-.56-.37-.5-.45-.86,.21-.2,.13-.56"/><path class="cls-3" d="M118.24,89.42c-.08-.35,.21-.2,.13-.56s-.37-.5-.45-.85,.21-.2,.13-.56-.37-.5-.45-.85,.21-.2,.13-.55-.37-.5-.45-.86,.21-.2,.13-.55-.37-.5-.45-.86,.21-.2,.13-.56-.37-.5-.45-.86,.21-.2,.13-.56-.37-.5-.45-.86,.21-.2,.13-.56"/><path class="cls-3" d="M118.03,89.89c-.06-.3,.17-.17,.1-.47s-.29-.42-.35-.72,.17-.17,.1-.47-.29-.42-.35-.72,.17-.17,.1-.47-.29-.42-.35-.72,.17-.17,.1-.47-.29-.42-.35-.72,.17-.17,.1-.47-.29-.42-.35-.72,.17-.17,.1-.47-.29-.43-.35-.72,.17-.17,.1-.47"/><path class="cls-3" d="M119.44,89.3c-.08-.35,.21-.2,.13-.56s-.37-.5-.45-.85,.21-.2,.13-.56-.37-.5-.45-.85,.21-.2,.13-.55-.37-.5-.45-.86,.21-.2,.13-.55-.37-.5-.45-.86,.21-.2,.13-.56-.37-.5-.45-.86,.21-.2,.13-.56-.37-.5-.45-.86,.21-.2,.13-.56"/><path class="cls-3" d="M120.85,88.82c-.08-.35,.22,0,.21-.2-.02-.36-.37-.5-.45-.85s.21-.2,.13-.56-.37-.5-.45-.85,.21-.2,.13-.55-.37-.5-.45-.86,.21-.2,.13-.55-.37-.5-.45-.86,.21-.2,.13-.56-.37-.5-.45-.86,.21-.2,.13-.56-.37-.5-.45-.86,.21-.2,.13-.56"/><path class="cls-3" d="M121.69,87.73c-.06-.3,.17-.17,.1-.47s-.29-.42-.35-.72,.17-.17,.1-.47-.29-.42-.35-.72,.17-.17,.1-.47-.29-.42-.35-.72,.17-.17,.1-.47-.29-.42-.35-.72,.17-.17,.1-.47-.29-.42-.35-.72,.17-.17,.1-.47-.29-.43-.35-.72,.17-.17,.1-.47"/><path class="cls-3" d="M122.73,86.91c-.05-.27,.13-.15,.08-.42s-.22-.38-.26-.64,.13-.15,.08-.42-.22-.38-.26-.65,.13-.15,.08-.42-.22-.38-.26-.65,.13-.15,.08-.42-.22-.38-.26-.65,.13-.16,.08-.42-.22-.38-.26-.65,.13-.16,.08-.42-.22-.38-.26-.65,.13-.16,.08-.42"/><path class="cls-3" d="M124,86.24c-.05-.24,.13-.14,.08-.38s-.23-.34-.28-.59,.13-.14,.08-.38-.23-.34-.28-.59,.13-.14,.08-.38-.23-.35-.28-.59,.13-.14,.08-.38-.23-.35-.28-.59,.13-.14,.08-.38-.23-.35-.28-.59,.13-.14,.08-.38-.23-.35-.28-.59,.13-.14,.08-.38"/><polygon class="cls-1" points="105.65 94.57 101.75 90.83 97.28 86.97 134.23 77.97 135.37 78.06 109.27 97.71 105.65 94.57"/></g><path class="cls-6" d="M110.67,96.81l-3.29-4.17,5.04-.12,1.41,1.79,.81-.64-1.55-1.96c-.12-.15-.3-.23-.49-.23l-6.11,.14c-.33,0-.59,.28-.59,.61,0,.13,.05,.26,.13,.36l3.82,4.84,.81-.64h0Zm8.75-6.9l-3.29-4.17-1.28,4.88,1.41,1.79-.81,.64-1.55-1.96c-.12-.15-.16-.34-.11-.53l1.56-5.91c.08-.32,.41-.51,.73-.43,.13,.03,.24,.11,.32,.21l3.82,4.84-.81,.64Z"/></g><polygon class="cls-4" points="7 75.87 78.33 69.17 15.69 83.91 26.79 93.8 11.63 100.39 7 75.87"/><g><polygon class="cls-2" points="15.69 83.91 11.63 100.39 7 75.87 -5.81 62.5 78.33 69.17 35.41 101.48 15.69 83.91"/><path class="cls-3" d="M45.25,73.71l-10.23,2.41h-.04s-4.73,1.12-4.73,1.12l-17.25,4.06,19.72,17.57,42.92-32.32-30.41,7.16Z"/><polygon class="cls-3" points="75.66 66.55 45.25 73.71 35.02 76.12 34.99 76.12 30.26 77.24 13.01 81.3 8.95 97.77 4.33 73.25 -8.49 59.88 25.82 62.61 29.58 62.9 38.12 63.58 38.14 63.58 38.17 63.58 44.76 64.1 50.35 64.55 50.41 64.55 51.16 64.61 75.66 66.55"/><path class="cls-3" d="M8.95,97.77l10.21-4.43-10.21,4.43Z"/><polyline class="cls-3" points="75.66 66.55 50.01 68.96 32.48 70.61 32.47 70.61 27.81 71.05 4.33 73.25"/><g id="Group_7245-3" data-name="Group 7245"><path class="cls-5" d="M30.57,85.62v.02s0,0,0,0t0-.02Z"/></g><path class="cls-3" d="M9.84,88.87c-.13-.58,.35-.33,.22-.91s-.61-.82-.74-1.4,.35-.33,.22-.91-.61-.83-.74-1.4,.35-.33,.22-.91-.61-.83-.74-1.41,.35-.33,.22-.91-.61-.83-.74-1.41c-.13-.58,.35-.33,.22-.92s-.61-.83-.74-1.41,.35-.33,.21-.92-.61-.83-.74-1.41,.35-.34,.21-.92"/><path class="cls-3" d="M11.26,86.5c-.13-.58,.35-.33,.22-.91s-.61-.83-.74-1.4,.35-.33,.22-.91-.61-.83-.74-1.41,.35-.33,.22-.91-.61-.83-.74-1.41,.35-.33,.22-.92-.61-.83-.74-1.41,.35-.33,.21-.92-.61-.83-.74-1.41,.35-.34,.21-.92"/><path class="cls-3" d="M12.57,81.79c-.13-.58,.35-.33,.22-.91s-.61-.83-.74-1.41,.35-.33,.22-.92-.61-.83-.74-1.41,.35-.33,.21-.92-.61-.83-.74-1.41,.35-.34,.21-.92"/><path class="cls-3" d="M15.25,83.15c-.13-.58-.61-.83-.74-1.41s.35-.33,.22-.91-.61-.83-.74-1.41,.35-.33,.22-.92-.61-.83-.74-1.41,.35-.33,.21-.92-.61-.83-.74-1.41,.35-.34,.21-.92"/><path class="cls-3" d="M17.91,85.4c-.13-.58-.61-.83-.74-1.4s.35-.33,.22-.91-.61-.83-.74-1.41,.35-.33,.22-.91-.61-.83-.74-1.41c-.13-.58,.35-.33,.22-.92s-.61-.83-.74-1.41,.35-.33,.21-.92-.61-.83-.74-1.41,.35-.34,.21-.92"/><path class="cls-3" d="M20.37,87.66c-.13-.58-.61-.82-.74-1.4s.35-.33,.22-.91-.61-.83-.74-1.4,.35-.33,.22-.91-.61-.83-.74-1.41,.35-.33,.22-.91-.61-.83-.74-1.41,.35-.33,.22-.92-.61-.83-.74-1.41,.35-.33,.21-.92-.61-.83-.74-1.41,.35-.34,.21-.92"/><path class="cls-3" d="M21.85,87.66c-.13-.58,.35-.33,.22-.91s-.61-.82-.74-1.4,.35-.33,.22-.91-.61-.83-.74-1.4,.35-.33,.22-.91-.61-.83-.74-1.41,.35-.33,.22-.91-.61-.83-.74-1.41,.35-.33,.22-.92-.61-.83-.74-1.41,.35-.33,.21-.92-.61-.83-.74-1.41,.35-.34,.21-.92"/><path class="cls-3" d="M24.2,87.66c-.13-.58,.35-.33,.22-.91s-.61-.82-.74-1.4,.35-.33,.22-.91-.61-.83-.74-1.4,.35-.33,.22-.91-.61-.83-.74-1.41,.35-.33,.22-.91-.61-.83-.74-1.41,.35-.33,.22-.92-.61-.83-.74-1.41,.35-.33,.21-.92-.61-.83-.74-1.41,.35-.34,.21-.92"/><path class="cls-3" d="M26.15,87.66c-.13-.58,.35-.33,.22-.91s-.61-.82-.74-1.4,.35-.33,.22-.91-.61-.83-.74-1.4,.35-.33,.22-.91-.61-.83-.74-1.41,.35-.33,.22-.91-.61-.83-.74-1.41,.35-.33,.22-.92-.61-.83-.74-1.41,.35-.33,.21-.92-.61-.83-.74-1.41,.35-.34,.21-.92"/><path class="cls-3" d="M28.35,87.21c-.13-.58,.35-.33,.22-.91s-.61-.82-.74-1.4,.35-.33,.22-.91-.61-.83-.74-1.4,.35-.33,.22-.91-.61-.83-.74-1.41,.35-.33,.22-.91-.61-.83-.74-1.41,.35-.33,.22-.92-.61-.83-.74-1.41,.35-.33,.21-.92-.61-.83-.74-1.41,.35-.34,.21-.92"/><path class="cls-3" d="M30.37,86.73c-.13-.58,.35-.33,.22-.91s-.61-.82-.74-1.4,.35-.33,.22-.91-.61-.83-.74-1.4,.35-.33,.22-.91-.61-.83-.74-1.41,.35-.33,.22-.91-.61-.83-.74-1.41,.35-.33,.22-.92-.61-.83-.74-1.41,.35-.33,.21-.92-.61-.83-.74-1.41,.35-.34,.21-.92"/><path class="cls-3" d="M32.65,86.73c-.13-.58,.35-.33,.22-.91s-.61-.82-.74-1.4,.35-.33,.22-.91-.61-.83-.74-1.4,.35-.33,.22-.91-.61-.83-.74-1.41,.35-.33,.22-.91-.61-.83-.74-1.41,.35-.33,.22-.92-.61-.83-.74-1.41,.35-.33,.21-.92-.61-.83-.74-1.41c-.13-.58,.35-.34,.21-.92"/><path class="cls-3" d="M34.59,86.73c-.13-.58,.35-.33,.22-.91s-.61-.82-.74-1.4,.35-.33,.22-.91-.61-.83-.74-1.4,.35-.33,.22-.91-.61-.83-.74-1.41,.35-.33,.22-.91-.61-.83-.74-1.41c-.13-.58,.35-.33,.22-.92s-.61-.83-.74-1.41,.35-.33,.21-.92-.61-.83-.74-1.41,.35-.34,.21-.92"/><path class="cls-3" d="M36.29,86.25c-.13-.58,.35-.33,.22-.91s-.61-.82-.74-1.4,.35-.33,.22-.91-.61-.83-.74-1.4,.35-.33,.22-.91-.61-.83-.74-1.41,.35-.33,.22-.91-.61-.83-.74-1.41c-.13-.58,.35-.33,.22-.92s-.61-.83-.74-1.41,.35-.33,.21-.92-.61-.83-.74-1.41,.35-.34,.21-.92"/><path class="cls-3" d="M38.67,86.25c-.13-.58,.35-.33,.22-.91s-.61-.82-.74-1.4,.35-.33,.22-.91-.61-.83-.74-1.4,.35-.33,.22-.91-.61-.83-.74-1.41,.35-.33,.22-.91-.61-.83-.74-1.41,.35-.33,.22-.92-.61-.83-.74-1.41,.35-.33,.21-.92-.61-.83-.74-1.41,.35-.34,.21-.92"/><path class="cls-3" d="M41.02,86.25c-.13-.58,.35-.33,.22-.91s-.61-.82-.74-1.4,.35-.33,.22-.91-.61-.83-.74-1.4,.35-.33,.22-.91-.61-.83-.74-1.41,.35-.33,.22-.91-.61-.83-.74-1.41,.35-.33,.22-.92-.61-.83-.74-1.41,.35-.33,.21-.92-.61-.83-.74-1.41,.35-.34,.21-.92"/><path class="cls-3" d="M43.03,85.64c-.13-.58,.35-.33,.22-.91s-.61-.82-.74-1.4,.35-.33,.22-.91-.61-.83-.74-1.4,.35-.33,.22-.91-.61-.83-.74-1.41,.35-.33,.22-.91-.61-.83-.74-1.41,.35-.33,.22-.92-.61-.83-.74-1.41,.35-.33,.21-.92-.61-.83-.74-1.41,.35-.34,.21-.92"/><path class="cls-3" d="M45.23,85.64c-.13-.58,.35-.33,.22-.91s-.61-.82-.74-1.4,.35-.33,.22-.91-.61-.83-.74-1.4,.35-.33,.22-.91-.61-.83-.74-1.41,.35-.33,.22-.91-.61-.83-.74-1.41,.35-.33,.22-.92-.61-.83-.74-1.41,.35-.33,.21-.92-.61-.83-.74-1.41,.35-.34,.21-.92"/><path class="cls-3" d="M47.49,85.34c-.13-.58,.35-.33,.22-.91s-.61-.82-.74-1.4,.35-.33,.22-.91-.61-.83-.74-1.4,.35-.33,.22-.91-.61-.83-.74-1.41,.35-.33,.22-.91-.61-.83-.74-1.41,.35-.33,.22-.92-.61-.83-.74-1.41,.35-.33,.21-.92-.61-.83-.74-1.41,.35-.34,.21-.92"/><path class="cls-3" d="M47.14,86.1c-.1-.49,.27-.28,.17-.77s-.48-.69-.58-1.18,.27-.28,.17-.77-.48-.7-.58-1.18,.27-.28,.17-.77-.48-.7-.58-1.19,.27-.28,.17-.77-.48-.7-.58-1.19,.27-.28,.17-.77-.48-.7-.58-1.19,.27-.28,.17-.77-.48-.7-.58-1.19,.27-.28,.17-.78"/><path class="cls-3" d="M49.47,85.13c-.13-.58,.35-.33,.22-.91s-.61-.82-.74-1.4,.35-.33,.22-.91-.61-.83-.74-1.4,.35-.33,.22-.91c-.13-.58-.61-.83-.74-1.41s.35-.33,.22-.91-.61-.83-.74-1.41c-.13-.58,.35-.33,.22-.92s-.61-.83-.74-1.41,.35-.33,.21-.92-.61-.83-.74-1.41,.35-.34,.21-.92"/><path class="cls-3" d="M51.78,84.34c-.13-.58,.36,0,.35-.33-.03-.59-.61-.82-.74-1.4s.35-.33,.22-.91-.61-.83-.74-1.4,.35-.33,.22-.91-.61-.83-.74-1.41,.35-.33,.22-.91-.61-.83-.74-1.41c-.13-.58,.35-.33,.22-.92s-.61-.83-.74-1.41,.35-.33,.21-.92-.61-.83-.74-1.41,.35-.34,.21-.92"/><path class="cls-3" d="M53.16,82.55c-.1-.49,.27-.28,.17-.77s-.48-.69-.58-1.18,.27-.28,.17-.77-.48-.7-.58-1.18,.27-.28,.17-.77-.48-.7-.58-1.19,.27-.28,.17-.77-.48-.7-.58-1.19,.27-.28,.17-.77-.48-.7-.58-1.19,.27-.28,.17-.77-.48-.7-.58-1.19,.27-.28,.17-.78"/><path class="cls-3" d="M54.87,81.2c-.08-.44,.21-.25,.13-.69s-.36-.62-.43-1.06,.21-.25,.13-.69-.36-.62-.43-1.06,.21-.25,.13-.69-.36-.62-.43-1.06,.21-.25,.13-.69-.36-.62-.43-1.06,.21-.26,.13-.7-.36-.62-.43-1.06,.21-.26,.13-.7-.36-.63-.43-1.07,.21-.26,.13-.7"/><path class="cls-3" d="M56.97,80.11c-.08-.4,.22-.23,.14-.63s-.38-.57-.46-.96,.22-.23,.14-.63-.38-.57-.46-.97,.22-.23,.14-.63-.38-.57-.46-.97,.22-.23,.14-.63-.38-.57-.46-.97,.22-.23,.14-.63-.38-.57-.46-.97,.22-.23,.14-.63-.38-.57-.46-.97,.22-.23,.14-.63"/><polygon class="cls-1" points="26.79 93.8 20.37 87.66 13.01 81.3 73.78 66.5 75.66 66.65 32.74 98.97 26.79 93.8"/></g><path class="cls-6" d="M35.04,97.49l-5.41-6.86,8.29-.19,2.32,2.94,1.33-1.05-2.54-3.22c-.19-.24-.49-.38-.8-.37l-10.05,.23c-.54,.01-.98,.46-.96,1.01,0,.21,.08,.42,.21,.59l6.29,7.97,1.33-1.05h0Zm14.38-11.35l-5.41-6.86-2.11,8.02,2.32,2.94-1.33,1.05-2.54-3.22c-.19-.24-.26-.56-.18-.86l2.56-9.73c.14-.53,.68-.84,1.2-.7,.21,.05,.39,.18,.53,.34l6.29,7.97-1.33,1.05Z"/></svg>