<svg width="1920" height="1081" viewBox="0 0 1920 1081" fill="none" xmlns="http://www.w3.org/2000/svg"><path d="M565.04 471.81C591.818 471.81 613.526 450.102 613.526 423.324C613.526 396.546 591.818 374.838 565.04 374.838C538.263 374.838 516.555 396.546 516.555 423.324C516.555 450.102 538.263 471.81 565.04 471.81Z" fill="#E6E8EA" stroke="#003B2F" stroke-width="3.01958" stroke-linecap="round" stroke-linejoin="round"/><path d="M601.668 441.893C611.904 421.654 603.796 396.949 583.557 386.712C563.319 376.476 538.613 384.584 528.377 404.823C518.14 425.062 526.249 449.767 546.487 460.003C566.726 470.24 591.431 462.132 601.668 441.893Z" fill="white"/><path d="M577.722 407.965C575.393 403.306 570.389 403.479 564.608 405.377L562.106 398.647L557.793 400.459L560.208 407.016C559.087 407.447 557.879 407.965 556.757 408.483L554.342 401.926L550.028 403.738L552.53 410.467C551.581 410.898 550.718 411.243 549.769 411.675L543.816 414.09L545.456 418.49C545.456 418.49 548.648 417.11 548.561 417.196C550.287 416.506 551.236 417.196 551.754 417.973L554.601 425.651C554.601 425.651 554.859 425.565 555.032 425.479C554.859 425.479 554.773 425.565 554.601 425.651L558.569 436.435C558.655 436.953 558.655 437.988 557.448 438.506L554.342 439.8L555.291 445.063L560.899 442.733C561.934 442.302 562.969 441.871 564.004 441.439L566.506 448.255L570.82 446.443L568.318 439.714C569.526 439.282 570.648 438.765 571.769 438.333L574.271 445.063L578.585 443.251L576.083 436.435C583.243 433.071 587.643 429.188 585.918 422.459C584.538 417.024 581.087 415.816 576.6 416.506C578.671 414.263 579.447 411.502 577.722 408.051V407.965ZM577.032 425.047C578.93 430.137 569.526 433.329 566.593 434.537L563.228 425.479C566.161 424.271 575.047 419.698 577.032 424.961V425.047ZM570.302 413.141C572.028 417.8 564.177 420.388 561.675 421.424L558.655 413.228C561.071 412.192 568.491 408.31 570.302 413.141Z" fill="#003B2F"/><path d="M1062.67 449.462C1089.44 449.462 1111.15 427.754 1111.15 400.976C1111.15 374.198 1089.44 352.49 1062.67 352.49C1035.89 352.49 1014.18 374.198 1014.18 400.976C1014.18 427.754 1035.89 449.462 1062.67 449.462Z" fill="#E6E8EA" stroke="#003B2F" stroke-width="3.01958" stroke-linecap="round" stroke-linejoin="round"/><path d="M1062.67 442.041C1085.35 442.041 1103.73 423.655 1103.73 400.975C1103.73 378.295 1085.35 359.909 1062.67 359.909C1039.99 359.909 1021.6 378.295 1021.6 400.975C1021.6 423.655 1039.99 442.041 1062.67 442.041Z" fill="white"/><path d="M1083.8 400.028C1085.62 395.11 1081.91 391.573 1076.56 388.64L1079.75 382.083L1075.44 380.185L1072.33 386.569C1071.21 386.051 1070 385.534 1068.79 385.102L1071.9 378.632L1067.58 376.734L1064.39 383.291C1063.44 382.859 1062.49 382.514 1061.63 382.083L1055.59 379.408L1053.52 383.636C1053.52 383.636 1056.8 385.016 1056.71 385.016C1058.44 385.793 1058.61 387 1058.35 387.863L1054.73 395.369C1054.73 395.369 1054.99 395.542 1055.16 395.628C1054.99 395.628 1054.9 395.455 1054.73 395.455L1049.64 405.894C1049.29 406.412 1048.6 407.016 1047.4 406.498L1044.2 405.118L1041.01 409.518L1046.71 412.02C1047.74 412.451 1048.78 412.969 1049.81 413.4L1046.62 420.043L1050.93 421.941L1054.13 415.385C1055.33 415.902 1056.46 416.42 1057.58 416.937L1054.38 423.494L1058.7 425.392L1061.89 418.749C1069.4 421.596 1075.35 422.114 1079.06 416.161C1081.99 411.33 1080.53 407.879 1076.82 405.118C1079.92 405.118 1082.51 403.651 1083.8 400.028ZM1070.86 411.502C1068.45 416.42 1059.47 411.847 1056.54 410.553L1060.77 401.753C1063.7 403.047 1073.36 406.326 1070.86 411.502ZM1074.83 398.216C1072.67 402.702 1065.17 398.82 1062.75 397.698L1066.64 389.761C1069.05 390.883 1077.16 393.557 1074.92 398.216H1074.83Z" fill="#003B2F"/><path d="M865.858 250.765C871.713 224.635 855.277 198.706 829.147 192.851C803.017 186.996 777.088 203.432 771.233 229.562C765.378 255.692 781.814 281.621 807.944 287.476C834.074 293.331 860.003 276.895 865.858 250.765Z" fill="#E6E8EA" stroke="#003B2F" stroke-width="3.01958" stroke-linecap="round" stroke-linejoin="round"/><path d="M818.597 281.23C841.277 281.23 859.663 262.844 859.663 240.164C859.663 217.484 841.277 199.098 818.597 199.098C795.916 199.098 777.53 217.484 777.53 240.164C777.53 262.844 795.916 281.23 818.597 281.23Z" fill="white"/><path d="M840.684 239.128C842.582 233.951 838.699 230.241 833.092 227.222L836.456 220.406L831.884 218.422L828.692 225.065C827.484 224.547 826.276 224.03 825.068 223.512L828.347 216.783L823.774 214.798L820.409 221.614C819.374 221.183 818.425 220.751 817.476 220.406L811.178 217.645L809.021 222.132C809.021 222.132 812.386 223.512 812.3 223.598C814.111 224.375 814.284 225.669 814.025 226.618L810.229 234.382C810.229 234.382 810.488 234.555 810.661 234.641C810.488 234.641 810.315 234.469 810.143 234.469L804.88 245.425C804.535 245.943 803.759 246.633 802.464 246.029L799.186 244.563L795.908 249.135L801.861 251.723C802.982 252.241 804.017 252.672 805.053 253.19L801.688 260.092L806.261 262.076L809.625 255.261C810.833 255.865 812.041 256.382 813.249 256.9L809.97 263.716L814.543 265.7L817.907 258.798C825.758 261.731 831.97 262.335 835.766 256.037C838.872 250.947 837.319 247.41 833.437 244.563C836.629 244.563 839.39 243.01 840.77 239.3L840.684 239.128ZM827.139 251.12C824.637 256.296 815.233 251.465 812.213 250.084L816.7 240.939C819.806 242.32 829.813 245.771 827.225 251.12H827.139ZM831.28 237.229C829.037 241.975 821.186 237.833 818.598 236.712L822.653 228.343C825.241 229.465 833.609 232.312 831.28 237.229Z" fill="#003B2F"/><path d="M1367.21 538.756C1393.99 538.756 1415.7 517.048 1415.7 490.27C1415.7 463.493 1393.99 441.785 1367.21 441.785C1340.43 441.785 1318.72 463.493 1318.72 490.27C1318.72 517.048 1340.43 538.756 1367.21 538.756Z" fill="#E6E8EA" stroke="#003B2F" stroke-width="3.01958" stroke-linecap="round" stroke-linejoin="round"/><path d="M1367.21 531.336C1389.89 531.336 1408.28 512.95 1408.28 490.269C1408.28 467.589 1389.89 449.203 1367.21 449.203C1344.53 449.203 1326.15 467.589 1326.15 490.269C1326.15 512.95 1344.53 531.336 1367.21 531.336Z" fill="white"/><path d="M1389.12 489.236C1391.02 484.146 1387.14 480.436 1381.62 477.417L1384.9 470.601L1380.41 468.617L1377.22 475.26C1376.01 474.742 1374.8 474.225 1373.59 473.707L1376.79 467.064L1372.3 465.08L1369.02 471.895C1368.07 471.464 1367.04 471.119 1366.18 470.687L1359.96 467.927L1357.81 472.327C1357.81 472.327 1361.17 473.707 1361.09 473.793C1362.9 474.57 1363.07 475.864 1362.81 476.727L1359.1 484.491C1359.1 484.491 1359.36 484.664 1359.53 484.75C1359.36 484.75 1359.19 484.577 1359.01 484.577L1353.75 495.448C1353.41 495.966 1352.63 496.656 1351.42 496.052L1348.14 494.585L1344.87 499.158L1350.73 501.746C1351.85 502.264 1352.89 502.695 1353.92 503.213L1350.56 510.114L1355.05 512.099L1358.32 505.283C1359.53 505.887 1360.74 506.405 1361.95 506.922L1358.67 513.652L1363.16 515.636L1366.52 508.82C1374.28 511.754 1380.41 512.358 1384.21 506.146C1387.31 501.142 1385.76 497.605 1381.88 494.758C1385.07 494.758 1387.74 493.291 1389.12 489.495V489.236ZM1375.75 501.142C1373.25 506.232 1364.02 501.487 1360.91 500.107L1365.31 491.048C1368.33 492.428 1378.34 495.793 1375.75 501.142ZM1379.89 487.424C1377.65 492.083 1369.89 488.028 1367.38 486.907L1371.35 478.625C1373.85 479.746 1382.22 482.507 1379.89 487.424Z" fill="#003B2F"/><path d="M1225.81 281.748C1218.82 270.274 1203.81 266.65 1203.81 266.65C1203.81 266.65 1200.19 281.662 1207.26 293.136C1214.33 304.611 1229.26 308.234 1229.26 308.234C1229.26 308.234 1232.88 293.223 1225.81 281.748Z" fill="#03FC9D"/><path d="M629.225 558.946C632.676 550.405 628.535 540.742 628.535 540.742C628.535 540.742 618.873 544.883 615.422 553.424C611.971 561.966 616.112 571.628 616.112 571.628C616.112 571.628 625.774 567.487 629.225 558.946Z" fill="#03FC9D"/><path d="M1250.57 440.402C1259.02 436.865 1262.99 427.116 1262.99 427.116C1262.99 427.116 1253.24 423.148 1244.79 426.771C1236.33 430.395 1232.36 440.057 1232.36 440.057C1232.36 440.057 1242.11 444.026 1250.57 440.402Z" fill="#03FC9D"/><path d="M943.952 843.732C884.51 843.732 836.369 848.822 836.369 855.034V904.555C836.369 906.884 854.228 949.158 854.228 949.158C854.228 954.421 894.431 958.648 943.952 958.648C993.473 958.648 1033.68 954.421 1033.68 949.158C1033.68 949.158 1051.54 906.884 1051.54 904.555V855.034C1051.54 848.736 1003.39 843.732 943.952 843.732Z" fill="#03FC9D"/><path d="M836.542 854.346C840.597 855.985 845.86 859.954 862.597 861.938C883.389 864.44 913.153 865.82 941.882 865.82C970.611 865.82 998.046 864.871 1018.84 862.369C1039.37 859.867 1047.91 859.436 1050.33 853.311C1042.56 847.875 997.874 843.648 943.953 843.648C886.667 843.648 839.82 848.393 836.542 854.346Z" fill="#003B2F"/><path d="M851.467 864.266C855.005 865.733 862.165 867.631 876.745 869.442C894.777 871.599 918.416 872.807 943.349 872.807C968.282 872.807 991.921 871.599 1009.95 869.442C1027.81 867.286 1034.54 864.784 1037.13 863.403C1030.4 858.658 991.576 855.035 944.729 855.035C894.949 855.035 854.314 859.176 851.467 864.352V864.266Z" fill="#E6E8EA" stroke="#003B2F" stroke-width="3.01958" stroke-linecap="round" stroke-linejoin="round"/><path d="M943.952 867.458C915.568 867.458 888.91 866.25 868.894 864.179C836.369 860.729 836.369 856.501 836.369 854.689C836.369 852.878 836.369 848.564 868.894 845.199C888.996 843.042 915.655 841.921 943.952 841.921C972.25 841.921 998.995 843.129 1019.01 845.199C1051.54 848.65 1051.54 852.878 1051.54 854.689C1051.54 856.501 1051.54 860.815 1019.01 864.179C998.909 866.336 972.25 867.458 943.952 867.458ZM839.648 854.689C840.251 855.38 844.393 858.485 870.965 861.16C890.722 863.144 916.604 864.266 943.952 864.266C971.301 864.266 997.183 863.144 1016.94 861.16C1043.51 858.485 1047.65 855.38 1048.26 854.689C1047.65 853.999 1043.51 850.893 1016.94 848.219C997.183 846.235 971.301 845.113 943.952 845.113C916.604 845.113 890.722 846.235 870.965 848.219C844.393 850.893 840.251 853.999 839.648 854.689Z" fill="#003B2F"/><path d="M946.065 1000.99C1121.73 1000.99 1264.13 990.051 1264.13 976.557C1264.13 963.064 1121.73 952.125 946.065 952.125C770.402 952.125 628 963.064 628 976.557C628 990.051 770.402 1000.99 946.065 1000.99Z" fill="#E6E8EA"/><path d="M941.278 865.991C912.549 865.991 883.302 864.525 862.596 862.023C845.859 859.952 840.683 856.07 836.542 854.431C836.455 854.69 836.369 854.862 836.369 855.121V904.642C836.369 906.971 854.228 949.246 854.228 949.246C854.228 954.508 894.431 958.736 943.952 958.736C993.473 958.736 1033.68 954.508 1033.68 949.246C1033.68 949.246 1051.54 906.971 1051.54 904.642V855.121C1051.54 854.517 1051.1 853.999 1050.33 853.396C1045.67 860.039 1038.94 860.297 1018.41 862.799C997.615 865.301 970.007 865.991 941.278 865.991Z" fill="#03FC9D"/><path d="M941.278 865.991C912.549 865.991 883.302 864.525 862.596 862.023C845.859 859.952 840.683 856.07 836.542 854.431C836.455 854.69 836.369 854.862 836.369 855.121V904.642C836.369 906.971 854.228 949.246 854.228 949.246C854.228 954.508 894.431 958.736 943.952 958.736C993.473 958.736 1033.68 954.508 1033.68 949.246C1033.68 949.246 1051.54 906.971 1051.54 904.642V855.121C1051.54 854.517 1051.1 853.999 1050.33 853.396C1045.67 860.039 1038.94 860.297 1018.41 862.799C997.615 865.301 970.007 865.991 941.278 865.991Z" fill="#03FC9D" stroke="#003B2F" stroke-width="2.76076" stroke-miterlimit="10"/><path d="M943.953 958.651C993.474 958.651 1033.68 954.424 1033.68 949.161C1033.68 949.161 1051.54 906.887 1051.54 904.558V904.212C1046.88 910.597 1039.98 910.942 1019.53 913.444C998.65 915.946 970.784 916.636 941.882 916.636C912.98 916.636 883.475 915.169 862.597 912.667C845.946 910.597 840.597 906.801 836.542 905.075C837.922 910.424 854.314 949.161 854.314 949.161C854.314 954.424 894.518 958.651 944.039 958.651H943.953Z" fill="#9FB4AD" stroke="#003B2F" stroke-width="2.76076" stroke-miterlimit="10"/><path d="M918.502 865.646C918.502 865.646 946.972 552.386 930.839 539.1C914.706 525.814 796.08 460.936 776.15 446.097C739.139 418.575 683.147 336.961 611.972 344.553C611.972 344.553 653.728 323.674 723.006 384.411C792.284 445.148 826.448 462.23 872.95 478.363C919.451 494.496 949.819 514.425 949.819 514.425C949.819 514.425 1048.52 486.904 1083.63 447.995C1118.74 409.085 1154.81 347.4 1189.92 328.419C1189.92 328.419 1155.75 355.941 1134.88 399.595C1114 443.25 1090.27 472.669 1051.36 502.088C1012.45 531.508 965.952 536.253 965.952 550.488C965.952 564.723 975.443 864.697 975.443 864.697C975.443 864.697 952.753 869.183 918.502 865.646Z" fill="#003B2F"/><path d="M860.611 486.906C860.611 486.906 822.651 458.435 702.127 514.427C658.99 534.529 621.461 543.846 585.398 532.458C585.398 532.458 610.073 554.285 675.554 532.458C741.036 510.631 777.099 492.6 823.6 498.294C870.102 503.988 901.419 517.274 901.419 517.274V506.835L860.611 486.906Z" fill="#003B2F"/><path d="M1041.87 497.345C1043.77 494.498 1099.76 475.518 1145.32 483.11C1190.87 490.702 1247.81 530.56 1293.36 536.255C1338.91 541.949 1364.54 525.815 1364.54 525.815C1364.54 525.815 1325.63 538.153 1291.46 525.815C1257.3 513.478 1187.07 467.926 1147.21 464.13C1107.36 460.334 1076.99 464.13 1056.11 476.467" fill="#003B2F"/><path d="M831.538 553.855C832.659 542.295 842.149 534.185 851.208 527.801C858.282 522.797 866.565 517.275 875.969 513.824C890.549 508.562 906.423 508.907 920.486 509.252L920.227 518.742C906.423 518.397 897.192 515.463 884.337 520.122C876.055 523.142 864.839 527.283 854.918 532.459C846.549 536.859 836.369 543.416 831.538 553.855Z" fill="#003B2F"/><path d="M682.285 517.104C666.842 517.104 653.469 513.825 642.513 507.441C655.626 509.684 675.728 511.409 690.222 510.202C712.049 508.304 731.806 500.97 744.833 498.296L725.853 511.237C712.481 513.998 698.591 516.845 684.442 517.104C683.752 517.104 682.975 517.104 682.285 517.104Z" fill="#003B2F"/><path d="M729.734 550.575C726.801 540.567 731.805 523.917 739.57 513.823C745.868 505.627 756.479 495.101 771.146 491.046L773.648 500.191C761.483 503.556 752.424 512.615 747.075 519.603C739.915 528.921 734.738 539.877 729.648 550.575H729.734Z" fill="#003B2F"/><path d="M797.114 454.983C768.471 442.215 736.033 427.634 702.903 430.309C695.484 430.913 687.892 432.38 680.559 433.846C672.363 435.485 663.821 437.125 655.194 437.642C636.473 438.764 617.147 434.278 600.755 424.96C619.477 430.999 637.681 429.187 654.59 428.152C662.614 427.634 670.464 426.168 678.747 424.529C686.339 423.062 694.19 421.509 702.213 420.905C737.758 418.144 771.405 433.156 801.083 446.442L797.201 455.156L797.114 454.983Z" fill="#003B2F"/><path d="M560.294 483.284C602.395 468.79 623.964 452.743 647.948 428.932L654.677 435.661C629.227 460.853 595.752 477.763 560.294 483.198V483.284Z" fill="#003B2F"/><path d="M680.646 427.722C666.324 403.047 638.544 381.048 610.074 377.079C641.909 377.424 672.881 395.369 688.842 422.977L680.646 427.722Z" fill="#003B2F"/><path d="M720.244 392.695C716.017 381.134 711.272 369.574 706.182 358.358C700.66 346.366 693.758 332.562 684.182 321.26C677.194 313.064 665.633 302.453 650.018 298.829C670.81 295.206 683.578 305.817 691.429 315.135C701.782 327.386 709.115 341.88 714.895 354.476C720.158 365.95 724.989 377.683 729.217 389.503L720.244 392.781V392.695Z" fill="#003B2F"/><path d="M709.892 352.923L704.629 349.386C707.649 344.899 711.014 340.586 714.982 337.221C719.123 333.684 724.041 330.578 725.766 328.594C731.719 321.778 734.308 318.413 736.033 313.064C735.602 320.398 732.064 327.731 725.163 335.668C723.351 337.739 721.453 339.723 719.641 341.621C716.018 345.331 712.653 348.868 709.978 352.923H709.892Z" fill="#003B2F"/><path d="M942.745 540.569C938.949 510.546 934.636 476.554 937.138 442.994C939.898 406.069 951.114 373.975 969.49 350.163C976.824 340.673 986.055 331.442 998.564 321.089C1000.29 319.622 1002.1 318.242 1003.83 316.775C1011.68 310.391 1020.05 300.901 1026.09 293.481C1030.83 287.787 1037.65 279.764 1036.35 266.65C1037.56 278.901 1037.65 290.289 1032.56 298.227C1026.95 307.113 1017.72 317.724 1009.78 324.109C1008.05 325.489 1006.33 326.956 1004.6 328.336C992.698 338.171 982.345 353.442 975.443 362.414C958.188 384.673 954.565 412.712 955.514 462.06C956.118 494.758 959.31 509.424 963.106 538.93L942.745 540.397V540.569Z" fill="#003B2F"/><path d="M947.318 418.405L939.812 428.499C940.33 416.249 931.099 392.351 918.417 382.17C909.53 375.096 899.35 370.092 888.652 364.743C885.374 363.104 882.009 361.465 878.644 359.739C866.048 353.183 850.347 343.692 841.202 328.595C838.096 323.418 835.766 317.81 833.61 312.375C829.555 302.367 825.672 292.963 817.649 288.046C829.814 289.944 838.009 297.795 842.496 308.752C844.653 314.101 846.723 319.191 849.484 323.677C857.421 336.791 871.656 345.332 883.131 351.284C886.323 352.924 889.687 354.649 892.966 356.202C903.664 361.465 914.793 366.986 924.456 374.751C939.726 386.916 948.095 402.79 947.404 418.319L947.318 418.405Z" fill="#003B2F"/><path d="M802.637 356.462C799.704 356.462 796.857 356.204 793.837 355.772C789.092 354.909 784.175 353.356 778.481 350.768C769.508 346.713 762.347 341.192 759.759 327.906C762.779 334.635 767.438 339.035 775.634 342.659C780.551 344.902 791.508 345.678 795.477 346.368C806.865 348.353 818.253 345.074 830.331 341.71C840.08 338.949 846.378 337.568 856.817 337.396L860.613 345.506C851.468 345.592 842.409 348.18 832.833 350.855C822.998 353.615 812.904 356.462 802.551 356.462H802.637Z" fill="#003B2F"/><path d="M884.769 358.274L877.004 352.752C881.663 346.195 887.788 341.278 893.827 336.533C894.431 336.015 895.121 335.497 895.725 335.066C905.733 327.043 918.415 316.172 927.215 302.282C935.929 288.737 939.639 273.898 937.827 260.698C944.642 269.498 945.16 291.929 935.239 307.459C925.662 322.47 912.29 334.117 901.678 342.572C901.074 343.09 900.384 343.607 899.78 344.125C894.086 348.611 888.651 352.925 884.855 358.36L884.769 358.274Z" fill="#003B2F"/><path d="M923.679 317.119C912.118 312.374 902.801 306.249 895.985 298.829C887.616 289.77 882.871 278.21 882.958 267.253C882.958 275.794 895.122 287.786 901.852 295.119C907.718 301.504 923.679 307.974 927.216 308.319L923.593 317.119H923.679Z" fill="#003B2F"/><path d="M870.103 490.184C856.99 487.423 844.48 480.348 834.731 470.168C824.982 459.988 818.512 447.133 816.355 433.933C814.716 423.925 816.182 419.18 819.719 411.933C821.963 407.275 827.657 400.804 831.625 397.698C840.684 390.537 845.602 386.655 846.292 381.047C845.343 389.416 840.253 395.541 835.335 401.408C832.402 404.945 829.641 408.31 827.829 411.933C825.155 417.455 824.465 424.27 825.759 432.38C827.57 443.682 833.264 454.725 841.633 463.525C850.002 472.325 860.872 478.45 872.088 480.78L870.103 490.097V490.184Z" fill="#003B2F"/><path d="M835.248 463.611L831.624 459.211C832.055 455.673 834.644 452.654 839.389 450.325C843.53 448.254 849.31 447.132 853.538 445.752C858.628 444.113 862.51 443.681 867.255 441.87C870.447 440.662 874.761 437.642 874.761 436.089C874.675 439.109 872.604 441.783 868.722 444.027C863.89 446.787 858.628 448.513 853.538 450.152C849.31 451.532 845.255 452.826 841.459 454.724C836.369 457.313 833.695 461.195 835.161 463.611H835.248Z" fill="#003B2F"/><path d="M1031 500.364L1023.76 494.239C1034.71 481.298 1034.63 461.972 1032.73 447.996C1031.87 441.957 1030.57 435.745 1029.36 429.792C1027.12 418.663 1025.31 415.039 1025.31 403.392C1025.31 393.471 1027.38 383.808 1031.26 375.526C1035.75 366.036 1045.24 355.424 1054.38 355.597C1045.06 360.083 1034.19 373.197 1034.19 395.542C1034.19 406.326 1036.35 416.765 1038.68 427.894C1039.97 434.02 1041.27 440.318 1042.13 446.702C1045.32 469.478 1041.53 488.027 1031.09 500.364H1031Z" fill="#003B2F"/><path d="M1038.77 427.897L1032.12 421.082C1037.82 415.56 1044.12 410.729 1050.24 406.156C1053.52 403.654 1056.88 401.152 1060.08 398.564C1075.95 385.623 1088.63 369.404 1096.83 351.717C1105.54 332.824 1117.88 311.6 1114.77 293.396C1118.23 313.498 1114.95 335.067 1105.46 355.686C1096.66 374.753 1083.03 392.094 1066.03 405.984C1062.66 408.658 1059.21 411.333 1055.94 413.835C1049.81 418.493 1043.94 422.893 1038.68 427.983L1038.77 427.897Z" fill="#003B2F"/><path d="M1105.02 352.148L1105.89 336.618C1111.32 332.132 1106.15 338.258 1110.72 332.219C1115.98 325.23 1128.92 311.081 1136.34 305.646C1142.47 301.16 1147.13 297.45 1154.37 294.689C1163.09 291.411 1175.77 288.478 1185.26 293.913C1177.67 293.913 1173.53 292.964 1165.33 296.07C1158.43 298.658 1149.8 300.384 1141.09 308.925C1135.57 314.36 1132.8 319.364 1127.8 326.093C1123.14 332.305 1111.32 346.971 1105.02 352.148Z" fill="#003B2F"/><path d="M1108.99 438.764L1101.32 433.157C1109.17 422.545 1120.12 413.573 1133.84 406.671C1144.97 401.063 1158.43 396.577 1173.7 393.385C1183.02 391.4 1192.51 389.934 1201.74 388.467C1218.65 385.792 1236.16 383.032 1252.38 377.338C1280.42 367.502 1309.49 350.938 1314.76 329.283C1311.48 342.569 1303.97 354.561 1292.41 365.001C1282.4 373.973 1269.64 381.306 1255.57 386.31C1238.58 392.349 1220.63 395.11 1203.2 397.871C1194.15 399.337 1184.74 400.804 1175.68 402.702C1143.76 409.431 1121.93 421.251 1109.08 438.851L1108.99 438.764Z" fill="#003B2F"/><path d="M1305.79 405.723C1305.79 405.723 1305.1 405.723 1304.84 405.723C1294.74 405.551 1291.29 405.033 1278.61 400.288C1276.71 399.598 1274.73 398.821 1272.92 398.131C1260.84 393.472 1248.33 388.641 1236.85 391.919L1234.26 382.774C1248.76 378.633 1263.43 384.241 1276.37 389.245C1278.18 389.935 1280.16 390.712 1281.97 391.402C1293.53 395.716 1303.11 397.786 1312.08 397.872C1322.78 398.045 1332.62 395.198 1339.86 389.849C1335.72 400.547 1318.21 405.723 1305.87 405.723H1305.79Z" fill="#003B2F"/><path d="M1234.35 440.318C1229.95 439.197 1225.29 438.765 1220.37 438.248C1211.4 437.385 1202.17 436.522 1194.06 431.346C1190.61 429.189 1187.76 426.428 1185 423.754C1183.71 422.546 1182.5 421.338 1181.29 420.303C1172.49 412.624 1160.76 408.052 1149.02 407.879L1149.63 400.978C1163.52 401.236 1177.06 403.997 1187.5 413.142C1188.88 414.35 1190.26 415.644 1191.56 416.938C1194.06 419.354 1196.48 421.597 1199.06 423.322C1205.28 427.205 1210.19 432.985 1218.39 433.762C1223.48 434.279 1230.29 433.244 1234.26 440.318H1234.35Z" fill="#003B2F"/><path d="M1180.95 534.617C1169.9 533.495 1159.21 526.248 1149.97 513.739C1147.21 510.029 1144.8 506.147 1142.38 502.437C1138.33 496.139 1134.44 490.1 1129.61 484.923C1122.8 477.676 1111.67 470.947 1100.88 473.794L1099.25 467.496C1112.79 464.045 1126.25 471.896 1134.27 480.523C1139.62 486.131 1143.76 492.688 1147.82 498.986C1150.15 502.696 1152.56 506.405 1155.24 509.943C1160.93 517.621 1169.39 533.495 1180.95 534.703V534.617Z" fill="#003B2F"/><path d="M1292.93 506.834C1279.04 509.854 1264.72 508.991 1251 508.215L1250.48 517.705C1255.23 517.963 1260.32 518.222 1265.67 518.222C1276.11 518.222 1287.24 517.101 1297.24 512.442C1306.65 508.042 1314.33 500.968 1321.05 493.893C1317.86 492.685 1324.25 495.101 1321.05 493.893C1315.62 499.328 1299.66 505.368 1293.02 506.748L1292.93 506.834Z" fill="#003B2F"/><path d="M961.466 635.47L952.321 632.882C960.689 603.29 980.187 576.459 1005.72 559.463C984.932 580.945 969.23 608.035 961.466 635.47Z" fill="#003B2F"/><path d="M1160.24 576.286C1152.3 569.557 1146.95 561.706 1144.62 553.338C1142.81 546.694 1142.9 539.706 1143.24 533.149V531.597C1143.85 519.691 1143.68 502.436 1137.98 492.773L1144.28 494.413C1151.01 505.714 1150.4 519.691 1149.8 531.942V533.495C1149.46 539.793 1147.73 549.024 1149.28 554.804C1151.7 563.69 1155.41 572.318 1160.24 576.373V576.286Z" fill="#003B2F"/><path d="M1152.3 367.33L1161.02 353.613C1174.3 345.676 1175.6 346.97 1190.01 342.829C1194.49 341.535 1199.06 340.24 1203.55 338.774C1233.83 329.197 1252.3 322.813 1257.56 314.876C1244.88 333.942 1222.27 342.829 1206.4 347.833C1201.83 349.299 1197.17 350.593 1192.59 351.887C1178.1 356.029 1164.47 359.997 1152.22 367.33H1152.3Z" fill="#003B2F"/><path d="M1219.85 340.5L1208.47 341.19C1215.63 334.46 1222.96 316.602 1225.55 305.818C1226.5 301.935 1227.45 297.88 1228.65 293.912C1233.83 277.261 1245.39 264.751 1264.03 259.144C1251.69 268.547 1242.37 281.92 1237.8 296.759C1236.68 300.382 1235.82 304.092 1234.87 307.974C1232.02 319.708 1229.17 331.786 1219.85 340.5Z" fill="#003B2F"/><path d="M576.858 496.395C575.823 509.767 585.831 521.5 585.831 521.5C585.831 521.5 597.478 511.493 598.513 498.034C599.548 484.661 589.541 472.928 589.541 472.928C589.541 472.928 577.894 482.936 576.858 496.395Z" fill="#03FC9D"/><path d="M569.87 454.984C557.102 450.757 543.298 457.659 543.298 457.659C543.298 457.659 550.2 471.376 562.968 475.69C575.737 479.917 589.541 473.015 589.541 473.015C589.541 473.015 582.639 459.298 569.87 454.984Z" fill="#03FC9D"/><path d="M602.912 439.974C592.731 448.773 591.61 464.13 591.61 464.13C591.61 464.13 606.967 465.166 617.147 456.366C627.327 447.566 628.449 432.209 628.449 432.209C628.449 432.209 613.092 431.174 602.912 439.974Z" fill="#03FC9D"/><path d="M627.155 405.55C621.03 393.558 606.449 388.727 606.449 388.727C606.449 388.727 601.704 403.394 607.743 415.386C613.869 427.378 628.449 432.209 628.449 432.209C628.449 432.209 633.194 417.542 627.155 405.55Z" fill="#03FC9D"/><path d="M774.943 361.294C765.54 370.956 765.712 386.313 765.712 386.313C765.712 386.313 781.069 386.141 790.473 376.478C799.877 366.815 799.704 351.458 799.704 351.458C799.704 351.458 784.347 351.631 774.943 361.294Z" fill="#03FC9D"/><path d="M796.166 324.972C789.091 313.497 774.166 309.96 774.166 309.96C774.166 309.96 770.629 324.972 777.703 336.36C784.778 347.834 799.703 351.371 799.703 351.371C799.703 351.371 803.24 336.36 796.166 324.972Z" fill="#03FC9D"/><path d="M735.602 435.921C724.041 442.736 720.159 457.662 720.159 457.662C720.159 457.662 735.085 461.458 746.645 454.642C758.206 447.827 762.088 432.901 762.088 432.901C762.088 432.901 747.163 429.105 735.602 435.921Z" fill="#03FC9D"/><path d="M765.54 406.415C761.743 393.56 748.199 386.141 748.199 386.141C748.199 386.141 740.865 399.686 744.661 412.54C748.457 425.395 762.002 432.815 762.002 432.815C762.002 432.815 769.336 419.27 765.54 406.415Z" fill="#03FC9D"/><path d="M839.303 372.936C835.852 359.909 822.565 352.145 822.565 352.145C822.565 352.145 814.887 365.431 818.338 378.458C821.789 391.485 835.075 399.25 835.075 399.25C835.075 399.25 842.753 385.964 839.303 372.936Z" fill="#03FC9D"/><path d="M859.491 409.775C872.95 409.603 883.648 398.56 883.648 398.56C883.648 398.56 872.605 387.862 859.146 388.034C845.688 388.207 834.99 399.25 834.99 399.25C834.99 399.25 846.033 409.948 859.491 409.775Z" fill="#03FC9D"/><path d="M621.461 507.874C608.865 512.533 602.395 526.509 602.395 526.509C602.395 526.509 616.371 532.893 628.967 528.235C641.563 523.576 648.033 509.599 648.033 509.599C648.033 509.599 634.057 503.215 621.461 507.874Z" fill="#03FC9D"/><path d="M656.23 484.23C654.764 470.858 642.772 461.195 642.772 461.195C642.772 461.195 633.195 473.187 634.662 486.56C636.129 499.932 648.121 509.595 648.121 509.595C648.121 509.595 657.697 497.603 656.23 484.23Z" fill="#03FC9D"/><path d="M841.547 556.699C842.927 570.072 854.919 579.734 854.919 579.734C854.919 579.734 864.582 567.742 863.115 554.37C861.735 540.998 849.743 531.335 849.743 531.335C849.743 531.335 840.08 543.327 841.547 556.699Z" fill="#03FC9D"/><path d="M827.138 517.188C813.852 515.29 801.515 524.607 801.515 524.607C801.515 524.607 810.832 536.858 824.118 538.756C837.405 540.654 849.742 531.337 849.742 531.337C849.742 531.337 840.424 519.086 827.138 517.188Z" fill="#03FC9D"/><path d="M822.479 315.824C809.02 315.566 797.891 326.177 797.891 326.177C797.891 326.177 808.589 337.307 821.961 337.565C835.42 337.824 846.549 327.213 846.549 327.213C846.549 327.213 835.852 316.083 822.479 315.824Z" fill="#03FC9D"/><path d="M796.511 276.917C783.052 276.658 771.923 287.27 771.923 287.27C771.923 287.27 782.621 298.399 795.993 298.658C809.452 298.917 820.581 288.305 820.581 288.305C820.581 288.305 809.883 277.176 796.511 276.917Z" fill="#03FC9D"/><path d="M863.459 306.594C866.996 293.653 859.404 280.194 859.404 280.194C859.404 280.194 846.031 287.872 842.494 300.813C838.957 313.754 846.549 327.213 846.549 327.213C846.549 327.213 859.921 319.535 863.459 306.594Z" fill="#03FC9D"/><path d="M921.781 264.578C909.099 260.006 895.208 266.476 895.208 266.476C895.208 266.476 901.765 280.453 914.361 285.025C927.043 289.598 940.934 283.127 940.934 283.127C940.934 283.127 934.377 269.151 921.781 264.578Z" fill="#03FC9D"/><path d="M963.537 268.978C971.043 257.848 968.11 242.664 968.11 242.664C968.11 242.664 953.012 245.597 945.506 256.813C938 267.942 940.934 283.126 940.934 283.126C940.934 283.126 956.032 280.193 963.537 268.978Z" fill="#03FC9D"/><path d="M1018.06 410.471C1005.81 404.863 991.403 410.126 991.403 410.126C991.403 410.126 996.752 424.533 1009 430.227C1021.25 435.835 1035.66 430.573 1035.66 430.573C1035.66 430.573 1030.31 416.165 1018.06 410.471Z" fill="#03FC9D"/><path d="M1059.3 418.407C1067.76 407.881 1066.12 392.611 1066.12 392.611C1066.12 392.611 1050.85 394.336 1042.39 404.775C1033.94 415.215 1035.58 430.571 1035.58 430.571C1035.58 430.571 1050.85 428.846 1059.3 418.407Z" fill="#03FC9D"/><path d="M1021.51 354.477C1009.26 348.869 994.855 354.132 994.855 354.132C994.855 354.132 1000.2 368.54 1012.45 374.234C1024.71 379.842 1039.11 374.579 1039.11 374.579C1039.11 374.579 1033.76 360.171 1021.51 354.477Z" fill="#03FC9D"/><path d="M1064.91 357.236C1073.36 346.71 1071.73 331.44 1071.73 331.44C1071.73 331.44 1056.46 333.165 1048 343.605C1039.55 354.13 1041.18 369.4 1041.18 369.4C1041.18 369.4 1056.46 367.675 1064.91 357.236Z" fill="#03FC9D"/><path d="M1095.71 326.352C1087.43 315.74 1072.16 313.929 1072.16 313.929C1072.16 313.929 1070.34 329.199 1078.63 339.811C1086.91 350.422 1102.18 352.234 1102.18 352.234C1102.18 352.234 1103.99 336.964 1095.71 326.352Z" fill="#03FC9D"/><path d="M1128.92 352.233C1141.18 346.711 1146.7 332.39 1146.7 332.39C1146.7 332.39 1132.29 326.955 1120.04 332.39C1107.79 337.825 1102.27 352.233 1102.27 352.233C1102.27 352.233 1116.67 357.668 1128.92 352.233Z" fill="#03FC9D"/><path d="M1190.69 276.744C1197.25 265.01 1193.11 250.171 1193.11 250.171C1193.11 250.171 1178.27 254.399 1171.71 266.132C1165.16 277.865 1169.3 292.704 1169.3 292.704C1169.3 292.704 1184.14 288.477 1190.69 276.744Z" fill="#03FC9D"/><path d="M1179.65 317.379C1189.49 326.61 1204.84 326.093 1204.84 326.093C1204.84 326.093 1204.33 310.736 1194.49 301.505C1184.65 292.273 1169.3 292.791 1169.3 292.791C1169.3 292.791 1169.82 308.148 1179.65 317.379Z" fill="#03FC9D"/><path d="M1135.05 397.008C1141.61 385.275 1137.46 370.436 1137.46 370.436C1137.46 370.436 1122.63 374.663 1116.07 386.397C1109.51 398.13 1113.65 412.969 1113.65 412.969C1113.65 412.969 1128.49 408.742 1135.05 397.008Z" fill="#03FC9D"/><path d="M1124 437.555C1133.84 446.786 1149.2 446.269 1149.2 446.269C1149.2 446.269 1148.68 430.912 1138.84 421.681C1129.01 412.45 1113.65 412.967 1113.65 412.967C1113.65 412.967 1114.17 428.324 1124 437.555Z" fill="#03FC9D"/><path d="M631.211 294.778C618.097 297.97 610.074 311.084 610.074 311.084C610.074 311.084 623.274 319.108 636.301 315.915C649.415 312.723 657.438 299.61 657.438 299.61C657.438 299.61 644.238 291.586 631.211 294.778Z" fill="#03FC9D"/><path d="M834.645 266.047C834.731 252.589 823.947 241.632 823.947 241.632C823.947 241.632 812.99 252.416 812.904 265.875C812.818 279.333 823.602 290.29 823.602 290.29C823.602 290.29 834.559 279.506 834.645 266.047Z" fill="#03FC9D"/><path d="M997.615 295.208C990.627 283.733 975.615 280.11 975.615 280.11C975.615 280.11 971.992 295.121 979.066 306.596C986.141 318.07 1001.07 321.694 1001.07 321.694C1001.07 321.694 1004.69 306.682 997.615 295.208Z" fill="#03FC9D"/><path d="M1027.55 324.8C1040.41 320.745 1047.57 307.114 1047.57 307.114C1047.57 307.114 1033.94 299.953 1021.08 304.008C1008.23 308.063 1001.07 321.694 1001.07 321.694C1001.07 321.694 1014.7 328.855 1027.55 324.8Z" fill="#03FC9D"/><path d="M1220.03 422.113C1232.62 417.281 1238.84 403.219 1238.84 403.219C1238.84 403.219 1224.77 397.007 1212.18 401.752C1199.58 406.584 1193.37 420.646 1193.37 420.646C1193.37 420.646 1207.43 426.858 1220.03 422.113Z" fill="#03FC9D"/><path d="M1212.18 462.315C1213.82 475.687 1225.89 485.178 1225.89 485.178C1225.89 485.178 1235.38 473.013 1233.75 459.727C1232.11 446.354 1220.03 436.864 1220.03 436.864C1220.03 436.864 1210.54 449.029 1212.18 462.315Z" fill="#03FC9D"/><path d="M1343.49 369.488C1342.97 356.029 1331.75 345.59 1331.75 345.59C1331.75 345.59 1321.31 356.892 1321.75 370.35C1322.26 383.809 1333.48 394.248 1333.48 394.248C1333.48 394.248 1343.92 382.946 1343.49 369.488Z" fill="#03FC9D"/><path d="M1355.05 409.864C1368.25 412.625 1381.1 404.256 1381.1 404.256C1381.1 404.256 1372.65 391.402 1359.53 388.555C1346.42 385.708 1333.48 394.162 1333.48 394.162C1333.48 394.162 1341.93 407.017 1355.05 409.864Z" fill="#03FC9D"/><path d="M1285.25 348.004C1284.73 334.545 1273.52 324.106 1273.52 324.106C1273.52 324.106 1263.08 335.408 1263.51 348.866C1264.03 362.325 1275.24 372.764 1275.24 372.764C1275.24 372.764 1285.68 361.462 1285.25 348.004Z" fill="#03FC9D"/><path d="M1296.9 388.38C1310.1 391.141 1322.95 382.772 1322.95 382.772C1322.95 382.772 1314.5 369.917 1301.39 367.07C1288.27 364.223 1275.33 372.678 1275.33 372.678C1275.33 372.678 1283.79 385.533 1296.9 388.38Z" fill="#03FC9D"/><path d="M1327.61 471.378C1327.09 457.919 1315.88 447.48 1315.88 447.48C1315.88 447.48 1305.44 458.782 1305.87 472.241C1306.39 485.699 1317.6 496.138 1317.6 496.138C1317.6 496.138 1328.04 484.836 1327.61 471.378Z" fill="#03FC9D"/><path d="M1339.26 511.752C1352.46 514.513 1365.31 506.144 1365.31 506.144C1365.31 506.144 1356.86 493.29 1343.75 490.442C1330.55 487.682 1317.69 496.05 1317.69 496.05C1317.69 496.05 1326.15 508.905 1339.26 511.752Z" fill="#03FC9D"/><path d="M1312.51 519.261C1321.57 509.339 1320.97 493.982 1320.97 493.982C1320.97 493.982 1305.61 494.673 1296.47 504.594C1287.41 514.516 1288.01 529.872 1288.01 529.872C1288.01 529.872 1303.37 529.182 1312.51 519.261Z" fill="#03FC9D"/><path d="M1301.21 558.255C1308.63 569.471 1323.73 572.577 1323.73 572.577C1323.73 572.577 1326.75 557.479 1319.33 546.263C1311.91 535.048 1296.81 531.942 1296.81 531.942C1296.81 531.942 1293.79 547.04 1301.21 558.255Z" fill="#03FC9D"/><path d="M1197.43 549.541C1206.48 539.619 1205.88 524.263 1205.88 524.263C1205.88 524.263 1190.52 524.953 1181.38 534.874C1172.32 544.796 1172.92 560.153 1172.92 560.153C1172.92 560.153 1188.28 559.462 1197.43 549.541Z" fill="#03FC9D"/><path d="M1177.32 586.467C1184.74 597.683 1199.84 600.789 1199.84 600.789C1199.84 600.789 1202.86 585.691 1195.44 574.475C1188.02 563.26 1172.92 560.154 1172.92 560.154C1172.92 560.154 1169.9 575.252 1177.32 586.467Z" fill="#03FC9D"/><path d="M1146.18 559.636C1156.01 568.867 1171.37 568.349 1171.37 568.349C1171.37 568.349 1170.85 552.993 1161.1 543.761C1151.27 534.53 1135.91 535.048 1135.91 535.048C1135.91 535.048 1136.43 550.404 1146.18 559.636Z" fill="#03FC9D"/><path d="M1113.74 546.955C1102.44 554.202 1099.16 569.3 1099.16 569.3C1099.16 569.3 1114.17 572.579 1125.56 565.245C1136.86 557.998 1140.14 542.9 1140.14 542.9C1140.14 542.9 1125.13 539.622 1113.74 546.955Z" fill="#03FC9D"/><path d="M592.043 409.086C579.447 404.428 565.471 410.812 565.471 410.812C565.471 410.812 571.941 424.788 584.537 429.447C597.133 434.106 611.109 427.722 611.109 427.722C611.109 427.722 604.639 413.745 592.043 409.086Z" fill="#03FC9D"/><path d="M714.379 484.318C701.783 479.66 687.807 486.044 687.807 486.044C687.807 486.044 694.277 500.02 706.873 504.679C719.469 509.338 733.445 502.953 733.445 502.953C733.445 502.953 726.975 488.977 714.379 484.318Z" fill="#03FC9D"/><path d="M604.293 359.997C591.697 355.338 577.721 361.723 577.721 361.723C577.721 361.723 584.191 375.699 596.787 380.358C609.383 385.016 623.359 378.632 623.359 378.632C623.359 378.632 616.889 364.656 604.293 359.997Z" fill="#03FC9D"/><path d="M993.043 540.052C984.761 529.44 969.491 527.628 969.491 527.628C969.491 527.628 967.679 542.899 975.961 553.511C984.243 564.122 999.514 565.934 999.514 565.934C999.514 565.934 1001.33 550.664 993.043 540.052Z" fill="#03FC9D"/><path d="M1026.17 565.932C1038.42 560.411 1043.95 546.089 1043.95 546.089C1043.95 546.089 1029.54 540.654 1017.29 546.089C1005.04 551.525 999.514 565.932 999.514 565.932C999.514 565.932 1013.92 571.368 1026.17 565.932Z" fill="#03FC9D"/><path d="M1127.63 606.051C1134.19 597.769 1132.72 585.69 1132.72 585.69C1132.72 585.69 1120.73 587.157 1114.17 595.439C1107.61 603.722 1109.08 615.8 1109.08 615.8C1109.08 615.8 1121.07 614.333 1127.63 606.051Z" fill="#03FC9D"/><path d="M1017.63 239.559C1008.57 262.076 1012.63 283.645 1026.34 291.064C1027.21 291.496 1030.66 293.307 1031.52 293.739C1032.99 294.515 1034.54 295.119 1036.26 295.55C1053.86 299.95 1076.38 283.213 1086.39 258.108C1095.45 235.504 1091.31 213.763 1077.5 206.516C1076.73 206.085 1073.45 204.359 1072.59 203.928C1071.12 203.151 1069.48 202.547 1067.75 202.116C1050.16 197.716 1027.64 214.453 1017.63 239.559Z" fill="#9FB4AD" stroke="#003B2F" stroke-width="2.76076" stroke-miterlimit="10"/><path d="M1017.63 239.559C1007.62 264.665 1013.75 288.562 1031.35 293.049C1048.95 297.449 1071.46 280.711 1081.47 255.606C1091.48 230.5 1085.35 206.602 1067.75 202.116C1050.15 197.716 1027.64 214.453 1017.63 239.559Z" fill="#E6E8EA" stroke="#003B2F" stroke-width="3.01958" stroke-linecap="round" stroke-linejoin="round"/><path d="M1072.61 258.398C1082.85 239.019 1080.83 217.86 1068.11 211.137C1055.39 204.415 1036.77 214.676 1026.53 234.055C1016.29 253.434 1018.31 274.593 1031.03 281.316C1043.75 288.038 1062.37 277.777 1072.61 258.398Z" fill="white"/><path d="M1063.53 245.682C1065.08 241.11 1062.32 237.918 1058.18 235.416L1060.85 229.29L1057.49 227.651L1054.9 233.604C1054.04 233.173 1053.09 232.741 1052.23 232.31L1054.81 226.357L1051.45 224.718L1048.77 230.843C1048.08 230.498 1047.31 230.153 1046.62 229.808L1042.05 227.565L1040.32 231.533C1040.32 231.533 1042.82 232.655 1042.74 232.741C1044.12 233.431 1044.12 234.467 1043.94 235.329L1040.92 242.318C1040.92 242.318 1041.1 242.404 1041.27 242.49C1041.18 242.49 1041.01 242.404 1040.92 242.318L1036.7 252.067C1036.44 252.498 1035.83 253.102 1034.88 252.67L1032.47 251.463L1029.88 255.604L1034.19 257.761C1034.97 258.192 1035.83 258.537 1036.61 258.968L1033.94 265.18L1037.3 266.819L1039.97 260.694C1040.92 261.125 1041.79 261.643 1042.65 262.074L1039.97 268.113L1043.34 269.753L1046.01 263.627C1051.79 266.043 1056.37 266.388 1059.47 260.78C1061.89 256.294 1060.85 253.188 1058.01 250.772C1060.42 250.6 1062.49 249.306 1063.61 245.941L1063.53 245.682ZM1053.09 256.553C1051.1 261.125 1044.2 257.157 1041.96 256.035L1045.5 247.839C1047.74 248.961 1055.16 251.721 1053.09 256.553ZM1056.54 244.216C1054.73 248.443 1049.03 244.992 1047.14 244.129L1050.33 236.71C1052.23 237.659 1058.44 239.902 1056.54 244.216Z" fill="#003B2F"/><path d="M1019.61 270.361C1008.83 262.252 993.646 264.408 993.646 264.408C993.646 264.408 995.803 279.679 1006.59 287.702C1017.37 295.812 1032.56 293.655 1032.56 293.655C1032.56 293.655 1030.4 278.385 1019.61 270.361Z" fill="#03FC9D"/><path d="M1008.49 486.995C1014.7 475.089 1010.12 460.336 1010.12 460.336C1010.12 460.336 995.458 464.995 989.246 476.901C983.034 488.807 987.607 503.56 987.607 503.56C987.607 503.56 1002.27 498.901 1008.49 486.995Z" fill="#03FC9D"/><path d="M1250.75 478.018C1262.11 453.771 1251.66 424.903 1227.42 413.54C1203.17 402.176 1174.3 412.621 1162.94 436.868C1151.58 461.115 1162.02 489.983 1186.27 501.347C1210.51 512.71 1239.38 502.266 1250.75 478.018Z" fill="#E6E8EA" stroke="#003B2F" stroke-width="3.01958" stroke-linecap="round" stroke-linejoin="round"/><path d="M1237.34 485.059C1252.54 468.234 1251.23 442.265 1234.41 427.057C1217.58 411.848 1191.61 413.159 1176.4 429.985C1161.2 446.81 1162.51 472.779 1179.33 487.987C1196.16 503.196 1222.13 501.885 1237.34 485.059Z" fill="white"/><path d="M1207.95 437.732C1203.55 435.575 1200.01 438.681 1196.82 443.339L1191.13 439.802L1188.97 443.598L1194.49 447.049C1193.89 448.085 1193.37 449.12 1192.77 450.069L1187.16 446.618L1185 450.414L1190.7 453.951C1190.27 454.814 1189.83 455.59 1189.32 456.367L1186.3 461.629L1190.01 463.959C1190.01 463.959 1191.56 461.112 1191.56 461.198C1192.42 459.645 1193.54 459.645 1194.32 459.99L1200.79 464.045C1200.79 464.045 1200.96 463.786 1201.05 463.7C1201.05 463.786 1200.88 463.959 1200.79 464.131L1209.94 469.825C1209.94 469.825 1210.88 470.861 1210.28 471.982L1208.73 474.743L1212.44 478.108L1215.28 473.19C1215.8 472.241 1216.32 471.378 1216.84 470.516L1222.62 474.139L1224.78 470.343L1219.08 466.806C1219.68 465.771 1220.29 464.735 1220.81 463.786L1226.5 467.324L1228.66 463.527L1222.88 459.904C1226.24 453.261 1227.28 447.912 1222.1 443.943C1217.96 440.751 1214.68 441.787 1211.83 444.979C1212.09 442.132 1211.06 439.63 1207.87 438.077L1207.95 437.732ZM1217.27 450.759C1221.58 453.433 1216.49 461.198 1215.03 463.786L1207.35 459.041C1208.81 456.453 1212.78 447.912 1217.27 450.759ZM1205.45 445.841C1209.42 448.257 1205.02 454.728 1203.81 456.884L1196.91 452.571C1198.12 450.414 1201.39 443.253 1205.45 445.841Z" fill="#003B2F"/><path d="M904.428 352.965C905.741 326.219 885.124 303.473 858.378 302.16C831.632 300.847 808.886 321.465 807.573 348.211C806.26 374.956 826.878 397.702 853.624 399.015C880.37 400.328 903.115 379.71 904.428 352.965Z" fill="#E6E8EA" stroke="#003B2F" stroke-width="3.01958" stroke-linecap="round" stroke-linejoin="round"/><path d="M856.04 391.659C878.72 391.659 897.106 373.273 897.106 350.593C897.106 327.912 878.72 309.526 856.04 309.526C833.36 309.526 814.974 327.912 814.974 350.593C814.974 373.273 833.36 391.659 856.04 391.659Z" fill="white"/><path d="M865.788 334.286C862.941 330.318 858.368 331.353 853.278 333.941L849.914 328.075L846.204 330.404L849.482 336.098C848.533 336.702 847.498 337.392 846.549 337.996L843.27 332.302L839.561 334.632L842.925 340.498C842.149 341.016 841.372 341.533 840.596 342.051L835.506 345.243L837.663 349.039L840.337 347.314C841.804 346.365 842.839 346.882 843.357 347.573L847.153 354.216C847.153 354.216 847.412 354.043 847.584 353.957C847.498 353.957 847.325 354.129 847.153 354.216L852.502 363.533C852.674 364.051 852.847 364.914 851.812 365.604L849.137 367.329L850.863 371.988L855.694 368.968C856.557 368.365 857.506 367.847 858.368 367.329L861.733 373.196L865.443 370.866L862.078 365C863.113 364.396 864.062 363.792 865.098 363.188L868.462 368.968L872.172 366.639L868.807 360.772C874.847 356.545 878.384 352.318 875.709 346.365C873.553 341.62 870.188 340.929 866.133 342.396C867.686 339.98 867.945 337.306 865.874 334.459L865.788 334.286ZM867.858 350.161C870.36 354.561 862.164 359.047 859.662 360.6L855.176 352.749C857.678 351.196 865.184 345.502 867.858 350.161ZM859.835 340.239C862.164 344.208 855.263 347.918 853.192 349.212L849.137 342.137C851.208 340.843 857.419 336.098 859.835 340.239Z" fill="#003B2F"/><path d="M691.517 612.35C718.295 612.35 740.002 590.642 740.002 563.864C740.002 537.086 718.295 515.378 691.517 515.378C664.739 515.378 643.031 537.086 643.031 563.864C643.031 590.642 664.739 612.35 691.517 612.35Z" fill="#E6E8EA" stroke="#003B2F" stroke-width="3.01958" stroke-linecap="round" stroke-linejoin="round"/><path d="M691.517 604.929C714.198 604.929 732.584 586.543 732.584 563.863C732.584 541.183 714.198 522.797 691.517 522.797C668.837 522.797 650.451 541.183 650.451 563.863C650.451 586.543 668.837 604.929 691.517 604.929Z" fill="white"/><path d="M707.132 571.886C710.928 568.867 709.72 564.294 706.873 559.377L712.481 555.753L709.979 552.13L704.457 555.667C703.767 554.718 703.077 553.769 702.387 552.82L707.908 549.283L705.406 545.659L699.798 549.283C699.281 548.506 698.677 547.73 698.159 547.04L694.708 542.036L690.998 544.365C690.998 544.365 692.896 546.953 692.81 546.953C693.845 548.42 693.328 549.369 692.81 549.973L686.34 554.114C686.34 554.114 686.512 554.373 686.598 554.545C686.598 554.459 686.426 554.287 686.34 554.2L677.281 559.981C676.763 560.239 675.901 560.412 675.21 559.377L673.399 556.788L668.826 558.686L672.104 563.345C672.708 564.208 673.312 565.071 673.916 565.933L668.222 569.643L670.724 573.267L676.418 569.643C677.108 570.679 677.712 571.628 678.402 572.49L672.795 576.114L675.297 579.737L680.991 576.027C685.563 581.894 689.963 585.172 695.743 582.153C700.402 579.737 700.834 576.373 699.281 572.404C701.783 573.871 704.457 573.957 707.218 571.714L707.132 571.886ZM691.43 574.733C687.202 577.494 682.285 569.557 680.646 567.055L688.238 562.137C689.963 564.553 695.916 571.8 691.516 574.647L691.43 574.733ZM700.92 566.192C697.038 568.694 693.069 562.051 691.602 559.981L698.504 555.581C699.885 557.651 704.975 563.604 700.92 566.192Z" fill="#003B2F"/><path d="M882.181 456.105C876.746 478.968 883.648 499.156 897.883 504.246C898.746 504.591 902.283 505.799 903.232 506.144C904.785 506.661 906.338 507.007 908.063 507.179C925.577 508.905 944.729 489.666 950.855 464.215C956.29 441.266 949.302 420.992 934.98 415.988C934.118 415.729 930.753 414.521 929.89 414.176C928.337 413.658 926.698 413.313 925.059 413.141C907.545 411.415 888.393 430.654 882.267 456.105H882.181Z" fill="#9FB4AD" stroke="#003B2F" stroke-width="2.76076" stroke-miterlimit="10"/><path d="M882.18 456.105C876.141 481.556 885.372 503.642 902.972 505.367C920.486 507.093 939.638 487.854 945.764 462.403C951.803 436.952 942.572 414.866 924.972 413.141C907.458 411.415 888.306 430.654 882.18 456.105Z" fill="#E6E8EA" stroke="#003B2F" stroke-width="3.01958" stroke-linecap="round" stroke-linejoin="round"/><path d="M1206.66 329.197C1201.22 352.06 1208.12 372.248 1222.36 377.338C1223.22 377.683 1226.76 378.891 1227.71 379.236C1229.26 379.754 1230.81 380.099 1232.54 380.271C1250.05 381.997 1269.2 362.758 1275.33 337.307C1280.76 314.358 1273.78 294.084 1259.45 289.08C1258.59 288.821 1255.23 287.613 1254.36 287.268C1252.81 286.751 1251.17 286.406 1249.53 286.233C1232.02 284.508 1212.87 303.747 1206.74 329.197H1206.66Z" fill="#9FB4AD" stroke="#003B2F" stroke-width="2.76076" stroke-miterlimit="10"/><path d="M1206.65 329.197C1200.62 354.648 1209.85 376.734 1227.45 378.46C1244.96 380.185 1264.11 360.946 1270.24 335.495C1276.28 310.045 1267.05 287.959 1249.45 286.233C1231.93 284.508 1212.78 303.747 1206.65 329.197Z" fill="#E6E8EA" stroke="#003B2F" stroke-width="3.01958" stroke-linecap="round" stroke-linejoin="round"/><path d="M1263.03 341.24C1270.24 320.544 1265.08 299.926 1251.49 295.189C1237.9 290.452 1221.04 303.389 1213.82 324.086C1206.61 344.782 1211.77 365.4 1225.36 370.137C1238.95 374.874 1255.81 361.936 1263.03 341.24Z" fill="white"/><path d="M1252.81 330.234C1254.37 325.661 1251.61 322.469 1247.46 319.967L1250.14 313.842L1246.77 312.202L1244.19 318.155C1243.32 317.724 1242.37 317.292 1241.51 316.861L1244.1 310.908L1240.73 309.269L1238.06 315.394C1237.37 315.049 1236.59 314.704 1235.9 314.359L1231.33 312.116L1229.61 316.085C1229.61 316.085 1232.11 317.206 1232.02 317.292C1233.4 317.983 1233.4 319.018 1233.23 319.881L1230.21 326.869C1230.21 326.869 1230.38 326.955 1230.55 327.041C1230.47 327.041 1230.3 326.955 1230.21 326.869L1225.98 336.618C1225.72 337.049 1225.12 337.653 1224.17 337.222L1221.75 336.014L1219.17 340.155L1223.48 342.312C1224.26 342.743 1225.03 343.088 1225.81 343.52L1223.14 349.731L1226.41 351.371L1229.09 345.245C1229.95 345.677 1230.9 346.194 1231.76 346.539L1229.09 352.578L1232.45 354.218L1235.13 348.092C1240.91 350.508 1245.48 350.853 1248.5 345.245C1250.92 340.759 1249.88 337.653 1247.03 335.237C1249.45 335.065 1251.52 333.771 1252.64 330.406L1252.81 330.234ZM1242.46 341.104C1240.48 345.677 1233.57 341.708 1231.33 340.586L1234.87 332.39C1237.11 333.512 1244.53 336.273 1242.37 341.104H1242.46ZM1245.91 328.767C1244.1 332.994 1238.41 329.543 1236.51 328.681L1239.7 321.261C1241.6 322.21 1247.72 324.453 1245.83 328.767H1245.91Z" fill="#003B2F"/><path d="M685.133 252.586C674.348 230.672 655.541 219.112 640.788 224.374C639.839 224.72 636.216 226.014 635.267 226.359C633.714 226.963 632.161 227.739 630.694 228.688C615.51 238.868 612.922 266.907 624.914 291.323C635.698 313.323 654.678 324.883 669.431 319.448C670.294 319.103 673.745 317.895 674.694 317.55C676.247 316.946 677.799 316.17 679.266 315.221C694.45 305.04 697.038 277.001 685.046 252.586H685.133Z" fill="#9FB4AD" stroke="#003B2F" stroke-width="2.76076" stroke-miterlimit="10"/><path d="M685.134 252.588C673.142 228.173 651.142 216.612 635.958 226.879C620.774 237.059 618.185 265.098 630.177 289.513C642.169 313.929 664.169 325.489 679.353 315.223C694.537 305.043 697.126 277.004 685.134 252.588Z" fill="#E6E8EA" stroke="#003B2F" stroke-width="3.01958" stroke-linecap="round" stroke-linejoin="round"/><path d="M671.322 308.598C684.923 303.618 689.801 282.787 682.216 262.071C674.631 241.355 657.456 228.599 643.854 233.579C630.252 238.559 625.374 259.39 632.96 280.106C640.545 300.822 657.72 313.578 671.322 308.598Z" fill="white"/><path d="M668.051 261.817C666.411 256.986 662.443 255.778 657.87 255.95L656.145 249.135L652.694 249.652L654.333 256.295C653.384 256.382 652.521 256.554 651.572 256.727L649.933 249.998L646.482 250.515L648.208 257.331C647.431 257.417 646.741 257.59 645.965 257.676L641.133 258.28L642.255 262.68C642.255 262.68 644.843 262.248 644.757 262.335C646.137 262.162 646.827 263.025 647.172 263.888L649.07 271.652C649.07 271.652 649.329 271.652 649.416 271.652C649.329 271.652 649.157 271.652 649.07 271.652L651.745 282.523C651.745 283.04 651.745 283.903 650.796 284.076L648.294 284.421L648.812 289.511L653.298 288.907C654.161 288.821 654.937 288.734 655.8 288.562L657.525 295.464L660.976 294.946L659.251 288.13C660.2 288.044 661.149 287.872 662.012 287.785L663.737 294.601L667.188 294.083L665.462 287.181C671.243 285.974 674.866 283.644 673.745 277.001C672.796 271.652 670.208 269.582 666.584 269.064C668.31 267.597 669 265.182 667.792 261.644L668.051 261.817ZM666.843 277.26C668.137 282.436 660.631 282.868 658.215 283.213L655.972 274.068C658.302 273.723 665.549 271.911 666.843 277.26ZM662.012 264.578C663.219 269.237 656.835 269.582 654.937 269.84L652.867 261.558C654.851 261.299 660.804 259.66 662.012 264.578Z" fill="#003B2F"/><path d="M1260.32 299.432C1273.6 301.417 1286.03 292.272 1286.03 292.272C1286.03 292.272 1276.88 279.934 1263.59 277.864C1250.31 275.88 1237.89 285.025 1237.89 285.025C1237.89 285.025 1247.03 297.362 1260.32 299.432Z" fill="#03FC9D"/><path d="M1261.96 247.496C1264.03 234.21 1254.97 221.787 1254.97 221.787C1254.97 221.787 1242.54 230.845 1240.47 244.132C1238.4 257.418 1247.46 269.841 1247.46 269.841C1247.46 269.841 1259.89 260.782 1261.96 247.496Z" fill="#03FC9D"/><path d="M1200.96 350.94C1188.71 345.332 1174.3 350.681 1174.3 350.681C1174.3 350.681 1179.65 365.089 1191.9 370.697C1204.15 376.305 1218.56 370.956 1218.56 370.956C1218.56 370.956 1213.21 356.548 1200.96 350.94Z" fill="#03FC9D"/><path d="M1303.02 409.261C1295.26 398.304 1280.07 395.716 1280.07 395.716C1280.07 395.716 1277.49 410.9 1285.34 421.857C1293.1 432.814 1308.29 435.402 1308.29 435.402C1308.29 435.402 1310.87 420.218 1303.02 409.261Z" fill="#03FC9D"/><path d="M833.176 575.594C838.439 563.171 832.658 548.936 832.658 548.936C832.658 548.936 818.423 554.716 813.161 567.139C807.898 579.563 813.678 593.798 813.678 593.798C813.678 593.798 827.913 588.018 833.176 575.594Z" fill="#03FC9D"/><path d="M891.756 439.628C902.713 431.863 905.387 416.679 905.387 416.679C905.387 416.679 890.203 414.091 879.246 421.855C868.29 429.62 865.615 444.804 865.615 444.804C865.615 444.804 880.799 447.392 891.756 439.628Z" fill="#03FC9D"/><path d="M863.372 434.622C866.392 425.995 861.819 416.505 861.819 416.505C861.819 416.505 852.329 421.077 849.31 429.791C846.29 438.418 850.863 447.908 850.863 447.908C850.863 447.908 860.353 443.336 863.372 434.622Z" fill="#03FC9D"/><path d="M940.242 248.964C937.223 240.337 927.733 235.764 927.733 235.764C927.733 235.764 923.246 245.254 926.266 253.882C929.286 262.509 938.776 267.081 938.776 267.081C938.776 267.081 943.262 257.591 940.242 248.964Z" fill="#03FC9D"/><path d="M885.458 261.126C882.438 252.498 872.948 247.926 872.948 247.926C872.948 247.926 868.462 257.416 871.481 266.043C874.501 274.671 883.991 279.243 883.991 279.243C883.991 279.243 888.477 269.753 885.458 261.126Z" fill="#03FC9D"/><path d="M762.949 314.706C759.93 306.078 750.44 301.506 750.44 301.506C750.44 301.506 745.953 310.996 748.973 319.623C751.993 328.251 761.483 332.823 761.483 332.823C761.483 332.823 765.969 323.333 762.949 314.706Z" fill="#03FC9D"/><path d="M721.365 318.585C718.345 309.958 708.855 305.385 708.855 305.385C708.855 305.385 704.369 314.875 707.389 323.503C710.408 332.13 719.898 336.703 719.898 336.703C719.898 336.703 724.384 327.212 721.365 318.585Z" fill="#03FC9D"/><path d="M664.598 381.908C661.579 373.281 652.089 368.708 652.089 368.708C652.089 368.708 647.602 378.199 650.622 386.826C653.641 395.453 663.132 400.026 663.132 400.026C663.132 400.026 667.618 390.536 664.598 381.908Z" fill="#03FC9D"/><path d="M792.025 508.649C789.005 500.021 779.515 495.449 779.515 495.449C779.515 495.449 775.029 504.939 778.049 513.566C781.068 522.194 790.558 526.766 790.558 526.766C790.558 526.766 795.045 517.276 792.025 508.649Z" fill="#03FC9D"/><path d="M964.486 345.849C961.466 337.222 951.976 332.649 951.976 332.649C951.976 332.649 947.49 342.14 950.51 350.767C953.529 359.394 963.019 363.967 963.019 363.967C963.019 363.967 967.506 354.477 964.486 345.849Z" fill="#03FC9D"/><path d="M1181.98 377.081C1178.96 368.454 1169.47 363.881 1169.47 363.881C1169.47 363.881 1164.99 373.371 1168 381.999C1171.02 390.626 1180.51 395.199 1180.51 395.199C1180.51 395.199 1185 385.709 1181.98 377.081Z" fill="#03FC9D"/><path d="M1116.84 288.389C1113.82 279.762 1104.33 275.189 1104.33 275.189C1104.33 275.189 1099.85 284.68 1102.87 293.307C1105.89 301.934 1115.38 306.507 1115.38 306.507C1115.38 306.507 1119.86 297.017 1116.84 288.389Z" fill="#03FC9D"/><path d="M1155.58 290.2C1159.03 281.659 1154.89 271.996 1154.89 271.996C1154.89 271.996 1145.23 276.137 1141.78 284.678C1138.33 293.219 1142.47 302.882 1142.47 302.882C1142.47 302.882 1152.13 298.741 1155.58 290.2Z" fill="#03FC9D"/><path d="M710.236 446.011C713.687 437.47 709.545 427.807 709.545 427.807C709.545 427.807 699.883 431.948 696.432 440.489C692.981 449.03 697.122 458.693 697.122 458.693C697.122 458.693 706.785 454.552 710.236 446.011Z" fill="#03FC9D"/><path d="M737.931 377.426C741.382 368.885 737.241 359.222 737.241 359.222C737.241 359.222 727.578 363.363 724.127 371.904C720.676 380.445 724.817 390.108 724.817 390.108C724.817 390.108 734.48 385.967 737.931 377.426Z" fill="#03FC9D"/><path d="M644.582 362.154C653.037 358.617 657.006 348.868 657.006 348.868C657.006 348.868 647.257 344.899 638.802 348.523C630.347 352.146 626.378 361.809 626.378 361.809C626.378 361.809 636.127 365.777 644.582 362.154Z" fill="#03FC9D"/><path d="M969.402 465.337C977.857 461.8 981.825 452.051 981.825 452.051C981.825 452.051 972.076 448.083 963.622 451.706C955.167 455.243 951.198 464.992 951.198 464.992C951.198 464.992 960.947 468.961 969.402 465.337Z" fill="#03FC9D"/><path d="M1173.78 421.854C1171.28 413.054 1162.14 407.877 1162.14 407.877C1162.14 407.877 1156.96 417.022 1159.46 425.909C1161.96 434.795 1171.11 439.885 1171.11 439.885C1171.11 439.885 1176.29 430.74 1173.78 421.854Z" fill="#03FC9D"/><path d="M1078.97 498.034C1076.47 489.235 1067.32 484.058 1067.32 484.058C1067.32 484.058 1062.15 493.203 1064.65 502.089C1067.15 510.975 1076.29 516.066 1076.29 516.066C1076.29 516.066 1081.47 506.921 1078.97 498.034Z" fill="#03FC9D"/><path d="M1276.8 261.645C1284.91 257.417 1288.1 247.323 1288.1 247.323C1288.1 247.323 1278.09 244.217 1269.89 248.445C1261.78 252.672 1258.59 262.766 1258.59 262.766C1258.59 262.766 1268.6 265.872 1276.8 261.645Z" fill="#03FC9D"/><path d="M1376.53 527.366C1384.64 523.139 1387.83 513.045 1387.83 513.045C1387.83 513.045 1377.82 509.939 1369.63 514.167C1361.43 518.394 1358.33 528.488 1358.33 528.488C1358.33 528.488 1368.33 531.594 1376.53 527.366Z" fill="#03FC9D"/><path d="M553.736 496.914C561.846 492.686 565.038 482.592 565.038 482.592C565.038 482.592 555.03 479.487 546.834 483.714C538.724 487.941 535.532 498.035 535.532 498.035C535.532 498.035 545.54 501.141 553.736 496.914Z" fill="#03FC9D"/><path d="M891.411 365.78C878.039 367.074 868.29 378.98 868.29 378.98C868.29 378.98 880.196 388.729 893.568 387.349C906.941 386.055 916.69 374.149 916.69 374.149C916.69 374.149 904.784 364.4 891.411 365.78Z" fill="#03FC9D"/><path d="M931.011 351.715C932.995 338.429 923.764 326.006 923.764 326.006C923.764 326.006 911.426 335.237 909.442 348.523C907.458 361.809 916.689 374.233 916.689 374.233C916.689 374.233 929.026 365.002 931.011 351.715Z" fill="#03FC9D"/><path d="M734.567 556.53C741.124 568.264 755.877 572.577 755.877 572.577C755.877 572.577 760.104 557.738 753.548 546.005C746.991 534.272 732.238 529.958 732.238 529.958C732.238 529.958 728.011 544.797 734.567 556.53Z" fill="#03FC9D"/><path d="M705.923 525.732C692.896 529.183 685.218 542.555 685.218 542.555C685.218 542.555 698.59 550.233 711.531 546.782C724.559 543.331 732.237 529.959 732.237 529.959C732.237 529.959 718.865 522.281 705.923 525.732Z" fill="#03FC9D"/><path d="M940.07 399.769C931.788 389.157 916.517 387.345 916.517 387.345C916.517 387.345 914.706 402.616 922.988 413.227C931.27 423.839 946.541 425.651 946.541 425.651C946.541 425.651 948.352 410.38 940.07 399.769Z" fill="#03FC9D"/><path d="M973.2 425.649C985.451 420.128 990.972 405.806 990.972 405.806C990.972 405.806 976.565 400.371 964.314 405.806C952.063 411.328 946.542 425.649 946.542 425.649C946.542 425.649 960.949 431.084 973.2 425.649Z" fill="#03FC9D"/><path d="M657.611 309.874C644.497 312.721 636.128 325.662 636.128 325.662C636.128 325.662 649.069 333.944 662.269 331.097C675.383 328.25 683.751 315.309 683.751 315.309C683.751 315.309 670.81 307.027 657.611 309.874Z" fill="#03FC9D"/><path d="M695.313 291.236C695.745 277.778 685.133 266.562 685.133 266.562C685.133 266.562 673.917 277.174 673.572 290.546C673.141 304.005 683.753 315.22 683.753 315.22C683.753 315.22 694.968 304.609 695.313 291.236Z" fill="#03FC9D"/><path d="M1168.09 544.366C1157.31 522.453 1138.5 510.892 1123.75 516.155C1122.8 516.5 1119.18 517.794 1118.23 518.139C1116.67 518.743 1115.12 519.519 1113.65 520.468C1098.47 530.649 1095.88 558.688 1107.87 583.103C1118.66 605.103 1137.64 616.664 1152.39 611.228C1153.25 610.883 1156.7 609.675 1157.65 609.33C1159.21 608.726 1160.76 607.95 1162.23 607.001C1177.41 596.821 1180 568.782 1168.01 544.366H1168.09Z" fill="#9FB4AD" stroke="#003B2F" stroke-width="2.76076" stroke-miterlimit="10"/><path d="M1168.09 544.368C1156.1 519.953 1134.1 508.392 1118.92 518.658C1103.73 528.839 1101.15 556.878 1113.14 581.293C1125.13 605.709 1147.13 617.269 1162.31 607.003C1177.5 596.822 1180.09 568.783 1168.09 544.368Z" fill="#E6E8EA" stroke="#003B2F" stroke-width="3.01958" stroke-linecap="round" stroke-linejoin="round"/><path d="M1154.41 600.357C1168.01 595.377 1172.89 574.546 1165.3 553.83C1157.72 533.114 1140.54 520.358 1126.94 525.338C1113.34 530.319 1108.46 551.15 1116.05 571.865C1123.63 592.581 1140.81 605.338 1154.41 600.357Z" fill="white"/><path d="M1150.23 548.508C1147.9 544.28 1143.68 544.28 1138.93 545.661L1136.26 539.622L1132.72 541.002L1135.4 546.955C1134.45 547.3 1133.58 547.731 1132.63 548.076L1129.96 542.124L1126.51 543.504L1129.18 549.543C1128.41 549.888 1127.72 550.147 1126.94 550.492L1122.11 552.39L1123.83 556.359C1123.83 556.359 1126.42 555.237 1126.34 555.323C1127.72 554.72 1128.58 555.41 1129.1 556.1L1132.2 563.002C1132.2 563.002 1132.46 563.002 1132.55 562.915C1132.46 562.915 1132.29 563.002 1132.2 563.088L1136.52 572.751C1136.69 573.268 1136.78 574.131 1135.74 574.476L1133.24 575.511L1134.53 580.17L1139.1 578.358C1139.97 578.013 1140.83 577.668 1141.61 577.409L1144.37 583.535L1147.82 582.155L1145.06 576.029C1146.01 575.684 1146.96 575.339 1147.9 574.908L1150.58 580.947L1154.12 579.566L1151.36 573.441C1157.05 570.766 1160.5 567.488 1158.43 561.449C1156.7 556.618 1153.69 555.323 1149.98 555.841C1151.53 553.943 1151.96 551.527 1150.15 548.422L1150.23 548.508ZM1151.18 563.606C1153.25 568.178 1145.58 570.68 1143.16 571.629L1139.54 563.519C1141.87 562.57 1149.03 558.861 1151.18 563.692V563.606ZM1144.45 552.735C1146.35 556.876 1139.88 558.947 1137.9 559.723L1134.62 552.304C1136.6 551.527 1142.47 548.335 1144.45 552.735Z" fill="#003B2F"/><path d="M1181.21 525.04C1194.58 526.334 1206.48 516.585 1206.48 516.585C1206.48 516.585 1196.65 504.68 1183.28 503.385C1169.9 502.091 1158 511.84 1158 511.84C1158 511.84 1167.83 523.746 1181.21 525.04Z" fill="#03FC9D"/><path d="M1116.15 502.608C1111.67 515.29 1118.23 529.18 1118.23 529.18C1118.23 529.18 1132.12 522.537 1136.6 509.855C1141.09 497.173 1134.53 483.283 1134.53 483.283C1134.53 483.283 1120.64 489.926 1116.15 502.608Z" fill="#03FC9D"/><path d="M1048.17 854.689C1047.57 855.38 1043.43 858.486 1016.85 861.16C997.097 863.144 971.215 864.266 943.866 864.266C916.518 864.266 890.636 863.144 870.879 861.16C844.307 858.486 840.165 855.38 839.562 854.689C839.82 854.431 840.597 853.74 843.271 852.878C842.15 852.188 840.942 851.497 839.82 850.807C836.283 852.446 836.283 853.827 836.283 854.776C836.283 856.588 836.283 860.901 868.808 864.266C888.91 866.423 915.569 867.544 943.866 867.544C972.164 867.544 998.909 866.336 1018.92 864.266C1051.45 860.815 1051.45 856.588 1051.45 854.776C1051.45 853.568 1051.45 851.325 1042.13 848.909C1040.92 849.772 1039.8 850.548 1038.59 851.411C1046.01 852.964 1047.74 854.344 1048.09 854.776L1048.17 854.689Z" fill="#003B2F"/><path d="M937.868 466.832C944.864 446.765 939.848 426.773 926.666 422.177C913.483 417.581 897.125 430.122 890.13 450.189C883.134 470.255 888.15 490.248 901.332 494.843C914.515 499.439 930.872 486.898 937.868 466.832Z" fill="white"/><path d="M926.181 455.587C927.648 450.928 925.232 447.736 921.522 445.234L924.11 438.936L921.091 437.297L918.589 443.423C917.812 442.991 916.95 442.56 916.173 442.215L918.675 436.089L915.656 434.45L913.067 440.748C912.377 440.403 911.773 440.058 911.169 439.799L907.028 437.556L905.389 441.611C905.389 441.611 907.632 442.732 907.546 442.732C908.754 443.423 908.84 444.458 908.581 445.321L905.648 452.481C905.648 452.481 905.82 452.568 905.993 452.654C905.907 452.654 905.82 452.568 905.648 452.481L901.593 462.489C901.334 462.921 900.817 463.611 899.954 463.179L897.797 462.058L895.381 466.285L899.35 468.356C900.04 468.787 900.817 469.132 901.507 469.477L898.919 475.775L901.938 477.414L904.526 471.117C905.303 471.548 906.166 471.979 906.942 472.411L904.44 478.622L907.46 480.262L910.048 473.964C915.311 476.293 919.452 476.552 922.385 470.771C924.714 466.113 923.765 463.007 921.263 460.591C923.507 460.419 925.405 458.952 926.44 455.587H926.181ZM916.432 466.889C914.534 471.634 908.322 467.666 906.252 466.63L909.703 458.262C911.773 459.383 918.503 461.972 916.432 466.975V466.889ZM919.883 454.293C918.158 458.607 912.981 455.242 911.256 454.293L914.362 446.701C916.087 447.564 921.695 449.721 919.883 454.207V454.293Z" fill="#003B2F"/><path d="M857.421 963.654C853.539 957.701 851.899 945.967 852.503 939.669C852.417 941.395 852.503 943.207 852.676 944.932C853.193 948.814 854.574 952.783 857.076 956.493C857.076 956.579 857.248 956.752 857.335 956.924C868.723 974.351 896.589 981.771 919.538 973.489C919.883 973.402 920.228 973.23 920.573 973.057C920.832 973.057 921.005 972.885 921.177 972.799H921.263C935.24 967.277 943.781 956.838 945.075 945.622C945.247 944.328 945.334 943.034 945.247 941.654C947.146 955.716 937.397 973.748 919.538 980.218C896.589 988.5 868.723 981.081 857.335 963.654H857.421Z" fill="#03FC9D"/><path d="M857.334 956.925C857.334 956.925 857.161 956.667 857.075 956.494C854.659 952.784 853.192 948.816 852.675 944.933C852.416 943.208 852.416 941.396 852.502 939.671V939.412C853.451 927.334 862.683 915.945 878.212 910.424C901.161 902.142 929.027 909.561 940.415 926.989C943.521 931.734 945.16 936.824 945.246 941.741C945.246 943.035 945.246 944.416 945.074 945.71C943.78 956.925 935.239 967.278 921.262 972.886H921.176C921.176 972.886 920.745 973.059 920.572 973.145C920.227 973.231 919.882 973.404 919.537 973.576C896.588 981.859 868.722 974.439 857.334 957.012V956.925Z" fill="#E6E8EA"/><path d="M857.075 963.57C853.193 957.617 851.554 945.883 852.158 939.585C852.071 941.311 852.158 943.123 852.33 944.848C852.848 948.73 854.228 952.699 856.73 956.409C856.73 956.495 856.903 956.668 856.989 956.84C868.377 974.267 896.243 981.687 919.192 973.405C919.537 973.318 919.882 973.146 920.228 972.973C920.486 972.973 920.659 972.801 920.831 972.715H920.918C934.894 967.193 943.435 956.754 944.729 945.538C944.902 944.244 944.988 942.95 944.902 941.57C946.8 955.632 937.051 973.664 919.192 980.134C896.243 988.416 868.377 980.997 856.989 963.57H857.075Z" stroke="#003B2F" stroke-width="2.32939" stroke-linecap="round" stroke-linejoin="round"/><path d="M856.988 956.837C856.988 956.837 856.816 956.578 856.73 956.405C854.314 952.695 852.847 948.727 852.33 944.845C852.071 943.119 852.071 941.307 852.157 939.582V939.323C853.106 927.245 862.337 915.857 877.867 910.335C900.815 902.053 928.682 909.472 940.07 926.9C943.176 931.645 944.815 936.735 944.901 941.652C944.901 942.946 944.901 944.327 944.729 945.621C943.435 956.837 934.893 967.189 920.917 972.797H920.831C920.831 972.797 920.4 972.97 920.227 973.056C919.882 973.142 919.537 973.315 919.192 973.487C896.243 981.77 868.377 974.35 856.988 956.923V956.837Z" stroke="#003B2F" stroke-width="2.32939" stroke-linecap="round" stroke-linejoin="round"/><path d="M917.984 935.096C918.847 929.747 914.792 926.986 909.271 925.002L911.082 917.755L906.683 916.633L904.871 923.794L901.334 922.931L903.145 915.598L898.745 914.562L896.934 921.723L894.087 921.033L888.134 919.566L886.926 924.225C886.926 924.225 890.204 925.002 890.118 925.002C890.463 925.002 890.722 925.174 890.981 925.26C891.24 925.433 891.498 925.606 891.671 925.864C891.843 926.123 892.016 926.382 892.102 926.727C892.102 927.072 892.189 927.331 892.102 927.676L890.032 935.786L887.098 947.26C887.098 947.26 886.926 947.692 886.84 947.778C886.667 947.95 886.581 948.037 886.322 948.209C886.149 948.296 885.891 948.382 885.718 948.382C885.545 948.382 885.287 948.382 885.114 948.382L881.922 947.519L879.765 952.523L885.459 953.99L888.565 954.852L886.753 962.186L891.153 963.307L892.965 956.319L896.416 957.268L894.604 964.515L899.004 965.636L900.902 958.39C908.322 959.856 913.93 959.339 916.431 952.523C916.949 951.574 917.208 950.539 917.294 949.417C917.294 948.382 917.208 947.26 916.777 946.311C916.431 945.276 915.828 944.413 915.051 943.637C914.275 942.86 913.412 942.256 912.377 941.911C913.93 941.652 915.31 940.79 916.259 939.668C917.294 938.547 917.898 937.08 917.984 935.527V935.354V935.096ZM907.804 949.072C906.424 954.507 897.279 951.488 894.345 950.797L896.761 941.135C899.694 941.911 909.357 943.378 907.804 949.072ZM909.271 934.923C907.977 939.841 900.385 937.339 897.883 936.649L900.212 927.762C902.714 928.539 910.651 929.747 909.357 934.837L909.271 934.923Z" fill="#003B2F"/><path d="M770.975 971.244C767.092 965.291 765.453 953.558 766.057 947.26C765.971 948.986 766.057 950.797 766.23 952.523C766.747 956.405 768.128 960.374 770.629 964.084C770.629 964.17 770.802 964.342 770.888 964.515C782.276 981.942 810.143 989.362 833.092 981.08C833.437 980.993 833.782 980.821 834.127 980.648C834.386 980.648 834.558 980.476 834.731 980.389H834.817C848.793 974.868 857.335 964.429 858.629 953.213C858.801 951.919 858.887 950.625 858.801 949.245C860.699 963.307 850.95 981.338 833.092 987.809C810.143 996.091 782.276 988.672 770.888 971.244H770.975Z" fill="#03FC9D"/><path d="M770.974 964.428C770.974 964.428 770.801 964.169 770.715 963.996C768.299 960.287 766.833 956.318 766.315 952.436C766.056 950.71 766.056 948.899 766.142 947.173V946.914C767.091 934.836 776.323 923.448 791.852 917.926C814.801 909.644 842.667 917.064 854.055 934.491C857.161 939.236 858.8 944.326 858.887 949.244C858.887 950.538 858.887 951.918 858.714 953.212C857.42 964.428 848.879 974.781 834.903 980.388H834.816C834.816 980.388 834.385 980.561 834.212 980.647C833.867 980.734 833.522 980.906 833.177 981.079C810.228 989.361 782.362 981.941 770.974 964.514V964.428Z" fill="#E6E8EA"/><path d="M770.715 971.072C766.833 965.119 765.194 953.386 765.798 947.088C765.711 948.813 765.798 950.625 765.97 952.351C766.488 956.233 767.868 960.202 770.37 963.911C770.37 963.998 770.543 964.17 770.629 964.343C782.017 981.77 809.884 989.189 832.832 980.907C833.177 980.821 833.523 980.648 833.868 980.476C834.126 980.476 834.299 980.303 834.472 980.217H834.558C848.534 974.695 857.075 964.256 858.369 953.041C858.542 951.747 858.628 950.453 858.542 949.072C860.44 963.135 850.691 981.166 832.832 987.637C809.884 995.919 782.017 988.499 770.629 971.072H770.715Z" stroke="#003B2F" stroke-width="2.32939" stroke-linecap="round" stroke-linejoin="round"/><path d="M770.628 964.343C770.628 964.343 770.455 964.085 770.369 963.912C767.954 960.202 766.487 956.234 765.969 952.351C765.71 950.626 765.71 948.814 765.797 947.089V946.83C766.746 934.752 775.977 923.363 791.506 917.842C814.455 909.56 842.321 916.979 853.71 934.406C856.815 939.151 858.455 944.242 858.541 949.159C858.541 950.453 858.541 951.834 858.368 953.128C857.074 964.343 848.533 974.696 834.557 980.304H834.471C834.471 980.304 834.039 980.477 833.867 980.563C833.522 980.649 833.176 980.822 832.831 980.994C809.883 989.276 782.016 981.857 770.628 964.43V964.343Z" stroke="#003B2F" stroke-width="2.32939" stroke-linecap="round" stroke-linejoin="round"/><path d="M816.87 934.492C812.47 931.472 808.157 933.888 804.016 938.029L798.321 933.284L795.388 936.735L801.082 941.394L798.839 944.241L793.059 939.496L790.212 943.033L795.906 947.778L794.094 950.021L790.125 954.766L793.749 957.872C793.749 957.872 795.82 955.284 795.82 955.37C795.992 955.111 796.251 954.853 796.51 954.68C796.769 954.507 797.027 954.335 797.372 954.335C797.718 954.335 797.976 954.335 798.321 954.335C798.667 954.335 798.925 954.507 799.184 954.68L805.568 960.029L814.627 967.621C814.627 967.621 814.886 967.966 814.972 968.139C815.059 968.311 815.145 968.57 815.145 968.743C815.145 968.915 815.145 969.174 815.059 969.346C815.059 969.519 814.886 969.692 814.714 969.864L812.557 972.366L816.094 976.507L819.804 972.021L821.874 969.519L827.655 974.264L830.502 970.813L824.98 966.154L827.309 963.394L833.004 968.139L835.937 964.688L830.156 959.856C834.643 953.731 836.627 948.468 831.537 943.378C830.847 942.515 830.07 941.825 829.121 941.308C828.172 940.79 827.137 940.445 826.102 940.358C825.066 940.272 823.945 940.359 822.909 940.704C821.874 941.049 820.925 941.566 820.149 942.343C820.494 940.876 820.408 939.237 819.804 937.857C819.2 936.476 818.164 935.268 816.784 934.492H816.612H816.87ZM825.153 949.676C829.466 953.3 822.823 960.201 820.925 962.617L813.247 956.233C815.231 953.903 820.666 945.88 825.153 949.676ZM813.074 942.257C816.957 945.535 811.435 951.315 809.796 953.3L802.808 947.433C804.619 945.535 809.106 938.806 813.161 942.257H813.074Z" fill="#003B2F"/><path d="M740.433 930.18C736.551 924.227 734.912 912.494 735.515 906.196C735.429 907.922 735.516 909.734 735.688 911.459C736.206 915.341 737.586 919.31 740.088 923.02C740.088 923.106 740.261 923.278 740.347 923.451C751.735 940.878 779.601 948.298 802.55 940.016C802.895 939.929 803.24 939.757 803.585 939.584C803.844 939.584 804.017 939.412 804.189 939.325H804.276C818.252 933.804 826.793 923.365 828.087 912.149C828.26 910.855 828.346 909.561 828.26 908.181C830.158 922.243 820.409 940.274 802.55 946.745C779.601 955.027 751.735 947.608 740.347 930.18H740.433Z" fill="#03FC9D"/><path d="M740.432 923.536C740.432 923.536 740.26 923.277 740.173 923.105C737.758 919.395 736.291 915.427 735.773 911.544C735.515 909.819 735.515 908.007 735.601 906.282V906.023C736.55 893.944 745.781 882.556 761.31 877.035C784.259 868.752 812.126 876.172 823.514 893.599C826.62 898.344 828.259 903.434 828.345 908.352C828.345 909.646 828.345 911.027 828.173 912.321C826.878 923.536 818.337 933.889 804.361 939.497H804.275C804.275 939.497 803.843 939.669 803.671 939.756C803.326 939.842 802.981 940.015 802.636 940.187C779.687 948.469 751.82 941.05 740.432 923.622V923.536Z" fill="#E6E8EA"/><path d="M740.088 930.092C736.206 924.139 734.566 912.406 735.17 906.108C735.084 907.833 735.17 909.645 735.343 911.371C735.86 915.253 737.241 919.222 739.743 922.931C739.743 923.018 739.915 923.19 740.002 923.363C751.39 940.79 779.256 948.21 802.205 939.927C802.55 939.841 802.895 939.668 803.24 939.496C803.499 939.496 803.672 939.323 803.844 939.237H803.93C817.907 933.716 826.448 923.276 827.742 912.061C827.914 910.767 828.001 909.473 827.914 908.092C829.812 922.155 820.064 940.186 802.205 946.657C779.256 954.939 751.39 947.519 740.002 930.092H740.088Z" stroke="#003B2F" stroke-width="2.32939" stroke-linecap="round" stroke-linejoin="round"/><path d="M740.087 923.448C740.087 923.448 739.914 923.189 739.828 923.016C737.413 919.307 735.946 915.338 735.428 911.456C735.169 909.73 735.169 907.919 735.256 906.193V905.934C736.205 893.856 745.436 882.468 760.965 876.946C783.914 868.664 811.78 876.084 823.169 893.511C826.274 898.256 827.914 903.346 828 908.264C828 909.558 828 910.938 827.827 912.232C826.533 923.448 817.992 933.801 804.016 939.409H803.93C803.93 939.409 803.498 939.581 803.326 939.667C802.981 939.754 802.635 939.926 802.29 940.099C779.342 948.381 751.475 940.961 740.087 923.534V923.448Z" stroke="#003B2F" stroke-width="2.32939" stroke-linecap="round" stroke-linejoin="round"/><path d="M783.568 887.907C779.341 884.542 774.941 886.699 770.455 890.581L765.106 885.491L762 888.77L767.349 893.86L764.933 896.534L759.498 891.358L756.478 894.636L761.827 899.726L759.843 901.883L755.616 906.369L759.067 909.648C759.067 909.648 761.31 907.232 761.31 907.318C761.482 907.06 761.741 906.801 762 906.715C762.259 906.542 762.604 906.456 762.863 906.369C763.208 906.369 763.467 906.369 763.812 906.369C764.157 906.456 764.416 906.628 764.674 906.801L770.714 912.581L779.255 920.777C779.255 920.777 779.514 921.122 779.6 921.295C779.6 921.467 779.686 921.726 779.686 921.899C779.686 922.071 779.686 922.33 779.514 922.503C779.427 922.675 779.255 922.848 779.168 923.02L776.839 925.436L780.117 929.75L784.172 925.522L786.415 923.193L791.851 928.369L794.957 925.091L789.78 920.087L792.282 917.499L797.631 922.589L800.737 919.31L795.302 914.134C800.219 908.354 802.549 903.177 797.804 897.742C797.2 896.879 796.423 896.103 795.56 895.499C794.698 894.895 793.662 894.55 792.627 894.377C791.592 894.205 790.47 894.291 789.435 894.55C788.4 894.809 787.451 895.326 786.588 896.017C787.106 894.55 787.019 892.997 786.588 891.53C786.157 890.064 785.121 888.856 783.827 887.993H783.655L783.568 887.907ZM790.729 903.609C794.784 907.491 787.71 913.962 785.639 916.205L778.478 909.389C780.549 907.146 786.588 899.554 790.815 903.695L790.729 903.609ZM779.168 895.413C782.878 898.95 776.925 904.299 775.114 906.197L768.557 899.813C770.455 898.001 775.372 891.703 779.255 895.326L779.168 895.413Z" fill="#003B2F"/><path d="M695.053 971.16C691.171 965.207 689.532 953.474 690.136 947.176C690.049 948.902 690.136 950.713 690.308 952.439C690.826 956.321 692.206 960.29 694.708 964C694.708 964.086 694.881 964.258 694.967 964.431C706.355 981.858 734.221 989.278 757.17 980.996C757.515 980.909 757.86 980.737 758.206 980.564C758.464 980.564 758.637 980.392 758.809 980.305H758.896C772.872 974.784 781.413 964.345 782.707 953.129C782.88 951.835 782.966 950.541 782.88 949.161C784.778 963.223 775.029 981.254 757.17 987.725C734.221 996.007 706.355 988.588 694.967 971.16H695.053Z" fill="#03FC9D"/><path d="M694.966 964.428C694.966 964.428 694.793 964.169 694.707 963.996C692.291 960.287 690.825 956.318 690.307 952.436C690.048 950.71 690.048 948.899 690.135 947.173V946.914C691.084 934.836 700.315 923.448 715.844 917.926C738.793 909.644 766.659 917.064 778.047 934.491C781.153 939.236 782.793 944.326 782.879 949.244C782.879 950.538 782.879 951.918 782.706 953.212C781.412 964.428 772.871 974.781 758.895 980.388H758.808C758.808 980.388 758.377 980.561 758.205 980.647C757.859 980.734 757.514 980.906 757.169 981.079C734.22 989.361 706.354 981.941 694.966 964.514V964.428Z" fill="#E6E8EA"/><path d="M694.708 971.072C690.825 965.119 689.186 953.386 689.79 947.088C689.704 948.813 689.79 950.625 689.962 952.351C690.48 956.233 691.86 960.202 694.362 963.911C694.362 963.998 694.535 964.17 694.621 964.343C706.009 981.77 733.876 989.189 756.825 980.907C757.17 980.821 757.515 980.648 757.86 980.476C758.119 980.476 758.291 980.303 758.464 980.217H758.55C772.526 974.695 781.067 964.256 782.362 953.041C782.534 951.747 782.62 950.453 782.534 949.072C784.432 963.135 774.683 981.166 756.825 987.637C733.876 995.919 706.009 988.499 694.621 971.072H694.708Z" stroke="#003B2F" stroke-width="2.32939" stroke-linecap="round" stroke-linejoin="round"/><path d="M694.621 964.343C694.621 964.343 694.448 964.085 694.362 963.912C691.946 960.202 690.48 956.234 689.962 952.351C689.703 950.626 689.703 948.814 689.789 947.089V946.83C690.738 934.752 699.97 923.363 715.499 917.842C738.448 909.56 766.314 916.979 777.702 934.406C780.808 939.151 782.447 944.242 782.534 949.159C782.534 950.453 782.534 951.834 782.361 953.128C781.067 964.343 772.526 974.696 758.549 980.304H758.463C758.463 980.304 758.032 980.477 757.859 980.563C757.514 980.649 757.169 980.822 756.824 980.994C733.875 989.276 706.009 981.857 694.621 964.43V964.343Z" stroke="#003B2F" stroke-width="2.32939" stroke-linecap="round" stroke-linejoin="round"/><path d="M754.15 942.69C755.013 937.341 750.958 934.581 745.437 932.596L747.248 925.349L742.849 924.228L741.037 931.389L737.5 930.526L739.311 923.193L734.911 922.157L733.1 929.318L730.253 928.628L724.3 927.161L723.092 931.82C723.092 931.82 726.37 932.596 726.284 932.596C726.629 932.596 726.888 932.769 727.147 932.855C727.406 933.028 727.664 933.2 727.837 933.459C728.009 933.718 728.182 933.977 728.268 934.322C728.268 934.667 728.355 934.926 728.268 935.271L726.198 943.381L723.264 954.855C723.264 954.855 723.092 955.286 723.006 955.373C722.833 955.545 722.747 955.631 722.488 955.804C722.315 955.89 722.057 955.976 721.884 955.976C721.711 955.976 721.453 955.976 721.28 955.976L718.088 955.114L715.931 960.118L721.625 961.584L724.731 962.447L722.919 969.78L727.319 970.816L729.131 963.827L732.582 964.776L730.77 972.023L735.17 973.145L737.068 965.898C744.488 967.365 750.096 966.847 752.511 960.031C753.029 959.082 753.288 958.047 753.374 956.926C753.374 955.89 753.288 954.769 752.856 953.82C752.511 952.784 751.907 951.922 751.131 951.145C750.354 950.369 749.492 949.765 748.456 949.42C750.009 949.161 751.39 948.298 752.339 947.177C753.374 946.055 753.978 944.588 754.064 943.035V942.863L754.15 942.69ZM743.97 956.667C742.59 962.102 733.445 959.082 730.511 958.392L732.927 948.73C735.86 949.506 745.523 950.973 743.97 956.667ZM745.437 942.518C744.143 947.435 736.551 944.934 734.049 944.243L736.378 935.357C738.88 936.134 746.817 937.341 745.523 942.432L745.437 942.518Z" fill="#003B2F"/><path d="M796.252 930.18C792.37 924.227 790.73 912.494 791.334 906.196C791.248 907.922 791.334 909.734 791.507 911.459C792.025 915.341 793.405 919.31 795.907 923.02C795.907 923.106 796.079 923.278 796.166 923.451C807.554 940.878 835.42 948.298 858.369 940.016C858.714 939.929 859.059 939.757 859.404 939.584C859.663 939.584 859.836 939.412 860.008 939.325H860.094C874.071 933.804 882.612 923.365 883.906 912.149C884.079 910.855 884.165 909.561 884.079 908.181C885.977 922.243 876.228 940.274 858.369 946.745C835.42 955.027 807.554 947.608 796.166 930.18H796.252Z" fill="#03FC9D"/><path d="M796.165 923.448C796.165 923.448 795.992 923.189 795.906 923.016C793.49 919.307 792.024 915.338 791.506 911.456C791.247 909.73 791.247 907.919 791.333 906.193V905.934C792.282 893.856 801.514 882.468 817.043 876.946C839.992 868.664 867.858 876.084 879.246 893.511C882.352 898.256 883.991 903.346 884.078 908.264C884.078 909.558 884.078 910.938 883.905 912.232C882.611 923.448 874.07 933.801 860.093 939.409H860.007C860.007 939.409 859.576 939.581 859.403 939.667C859.058 939.754 858.713 939.926 858.368 940.099C835.419 948.381 807.553 940.961 796.165 923.534V923.448Z" fill="#E6E8EA"/><path d="M856.471 911.113C859.749 906.885 857.506 902.399 853.624 898.085L858.628 892.65L855.349 889.544L850.345 894.98L847.671 892.564L852.761 887.042L849.396 884.023L844.392 889.458L842.236 887.56L837.663 883.419L834.385 886.87C834.385 886.87 836.887 889.113 836.8 889.027C837.059 889.199 837.318 889.458 837.491 889.717C837.663 889.976 837.749 890.321 837.836 890.58C837.836 890.925 837.836 891.184 837.836 891.529C837.836 891.874 837.577 892.133 837.404 892.391L831.71 898.517L823.687 907.23C823.687 907.23 823.342 907.489 823.169 907.576C822.997 907.576 822.738 907.662 822.565 907.662C822.393 907.662 822.134 907.662 821.961 907.489C821.789 907.317 821.616 907.317 821.444 907.144L819.028 904.901L814.714 908.266L819.028 912.234L821.357 914.477L816.267 919.999L819.632 923.019L824.55 917.756L827.138 920.258L822.134 925.693L825.412 928.799L830.502 923.277C836.369 928.109 841.545 930.352 846.894 925.52C847.757 924.917 848.534 924.14 849.051 923.191C849.655 922.242 850 921.293 850.087 920.172C850.259 919.136 850.087 918.015 849.828 916.979C849.569 915.944 849.051 914.995 848.361 914.132C849.828 914.564 851.381 914.564 852.847 914.046C854.314 913.528 855.522 912.493 856.385 911.199V911.026L856.471 911.113ZM840.855 918.532C837.059 922.673 830.416 915.685 828.173 913.615L834.902 906.281C837.146 908.352 844.824 914.219 840.855 918.532ZM848.879 906.799C845.428 910.509 839.906 904.642 838.008 902.917L844.306 896.187C846.118 898.085 852.588 902.917 848.965 906.799H848.879Z" fill="#003B2F"/><path d="M795.906 930.008C792.024 924.055 790.385 912.321 790.989 906.023C790.902 907.749 790.989 909.561 791.161 911.286C791.679 915.168 793.059 919.137 795.561 922.847C795.561 922.933 795.734 923.106 795.82 923.278C807.208 940.705 835.074 948.125 858.023 939.843C858.368 939.756 858.713 939.584 859.059 939.411C859.317 939.411 859.49 939.239 859.662 939.152H859.749C873.725 933.631 882.266 923.192 883.56 911.976C883.733 910.682 883.819 909.388 883.733 908.008C885.631 922.07 875.882 940.102 858.023 946.572C835.074 954.854 807.208 947.435 795.82 930.008H795.906Z" stroke="#003B2F" stroke-width="2.32939" stroke-linecap="round" stroke-linejoin="round"/><path d="M795.819 923.364C795.819 923.364 795.647 923.105 795.561 922.933C793.145 919.223 791.678 915.254 791.161 911.372C790.902 909.646 790.902 907.835 790.988 906.109V905.85C791.937 893.772 801.168 882.384 816.698 876.862C839.646 868.58 867.513 876 878.901 893.427C882.007 898.172 883.646 903.262 883.732 908.18C883.732 909.474 883.732 910.854 883.56 912.148C882.266 923.364 873.725 933.717 859.748 939.325H859.662C859.662 939.325 859.231 939.497 859.058 939.583C858.713 939.67 858.368 939.842 858.023 940.015C835.074 948.297 807.208 940.877 795.819 923.45V923.364Z" stroke="#003B2F" stroke-width="2.32939" stroke-linecap="round" stroke-linejoin="round"/><path d="M1017.11 960.722C1013.23 954.769 1011.59 943.036 1012.2 936.738C1012.11 938.463 1012.2 940.275 1012.37 942C1012.89 945.883 1014.27 949.851 1016.77 953.561C1016.77 953.647 1016.94 953.82 1017.03 953.993C1028.42 971.42 1056.28 978.839 1079.23 970.557C1079.58 970.471 1079.92 970.298 1080.27 970.126C1080.52 970.126 1080.7 969.953 1080.87 969.867H1080.96C1094.93 964.345 1103.47 953.906 1104.77 942.691C1104.94 941.397 1105.03 940.102 1104.94 938.722C1106.84 952.785 1097.09 970.816 1079.23 977.286C1056.28 985.569 1028.42 978.149 1017.03 960.722H1017.11Z" fill="#03FC9D"/><path d="M1017.11 953.989C1017.11 953.989 1016.94 953.73 1016.85 953.558C1014.44 949.848 1012.97 945.879 1012.45 941.997C1012.2 940.271 1012.2 938.46 1012.28 936.734V936.475C1013.23 924.397 1022.46 913.009 1037.99 907.487C1060.94 899.205 1088.81 906.625 1100.19 924.052C1103.3 928.797 1104.94 933.887 1105.03 938.805C1105.03 940.099 1105.03 941.479 1104.85 942.773C1103.56 953.989 1095.02 964.342 1081.04 969.95H1080.96C1080.96 969.95 1080.52 970.122 1080.35 970.208C1080.01 970.295 1079.66 970.467 1079.32 970.64C1056.37 978.922 1028.5 971.502 1017.11 954.075V953.989Z" fill="#E6E8EA"/><path d="M1016.77 960.549C1012.89 954.596 1011.25 942.862 1011.85 936.564C1011.76 938.29 1011.85 940.102 1012.02 941.827C1012.54 945.709 1013.92 949.678 1016.42 953.388C1016.42 953.474 1016.6 953.647 1016.68 953.819C1028.07 971.246 1055.94 978.666 1078.89 970.384C1079.23 970.298 1079.58 970.125 1079.92 969.952C1080.18 969.952 1080.35 969.78 1080.52 969.694H1080.61C1094.59 964.172 1103.13 953.733 1104.42 942.517C1104.59 941.223 1104.68 939.929 1104.59 938.549C1106.49 952.611 1096.74 970.643 1078.89 977.113C1055.94 985.395 1028.07 977.976 1016.68 960.549H1016.77Z" stroke="#003B2F" stroke-width="2.32939" stroke-linecap="round" stroke-linejoin="round"/><path d="M1016.77 953.905C1016.77 953.905 1016.59 953.646 1016.51 953.474C1014.09 949.764 1012.63 945.795 1012.11 941.913C1011.85 940.187 1011.85 938.376 1011.94 936.65V936.391C1012.88 924.313 1022.12 912.925 1037.65 907.403C1060.59 899.121 1088.46 906.541 1099.85 923.968C1102.95 928.713 1104.59 933.803 1104.68 938.721C1104.68 940.015 1104.68 941.395 1104.51 942.689C1103.21 953.905 1094.67 964.258 1080.7 969.866H1080.61C1080.61 969.866 1080.18 970.038 1080.01 970.124C1079.66 970.211 1079.32 970.383 1078.97 970.556C1056.02 978.838 1028.16 971.418 1016.77 953.991V953.905Z" stroke="#003B2F" stroke-width="2.32939" stroke-linecap="round" stroke-linejoin="round"/><path d="M1077.68 932.079C1078.54 926.73 1074.49 923.969 1068.96 921.985L1070.78 914.738L1066.38 913.616L1064.56 920.777L1061.03 919.914L1062.84 912.581L1058.44 911.546L1056.63 918.707L1053.78 918.016L1047.83 916.55L1046.62 921.209C1046.62 921.209 1049.9 921.985 1049.81 921.985C1050.16 921.985 1050.41 922.158 1050.67 922.244C1050.93 922.416 1051.19 922.589 1051.36 922.848C1051.54 923.107 1051.71 923.365 1051.8 923.71C1051.8 924.056 1051.88 924.314 1051.8 924.659L1049.72 932.769L1046.79 944.244C1046.79 944.244 1046.62 944.675 1046.53 944.761C1046.36 944.934 1046.27 945.02 1046.01 945.193C1045.84 945.279 1045.58 945.365 1045.41 945.365C1045.24 945.365 1044.98 945.365 1044.81 945.365L1041.61 944.502L1039.46 949.506L1045.15 950.973L1048.26 951.836L1046.45 959.169L1050.85 960.29L1052.66 953.302L1056.11 954.251L1054.3 961.498L1058.7 962.62L1060.6 955.373C1068.01 956.84 1073.62 956.322 1076.12 949.506C1076.64 948.557 1076.9 947.522 1076.99 946.4C1076.99 945.365 1076.9 944.244 1076.47 943.295C1076.12 942.259 1075.52 941.397 1074.74 940.62C1073.97 939.844 1073.1 939.24 1072.07 938.895C1073.62 938.636 1075 937.773 1075.95 936.651C1076.99 935.53 1077.59 934.063 1077.68 932.51V932.338V932.079ZM1067.5 946.055C1066.12 951.491 1056.97 948.471 1054.04 947.781L1056.45 938.118C1059.39 938.895 1069.05 940.361 1067.5 946.055ZM1068.96 931.906C1067.67 936.824 1060.08 934.322 1057.58 933.632L1059.9 924.746C1062.41 925.522 1070.34 926.73 1069.05 931.82L1068.96 931.906Z" fill="#003B2F"/><path d="M1078.71 971.248C1075.35 966.158 1074.05 956.237 1074.57 950.888C1074.48 952.354 1074.57 953.907 1074.74 955.374C1075.17 958.739 1076.38 962.017 1078.45 965.209C1078.45 965.295 1078.63 965.468 1078.63 965.554C1088.29 980.393 1112.01 986.691 1131.51 979.617C1131.77 979.531 1132.11 979.444 1132.37 979.272C1132.55 979.272 1132.72 979.099 1132.89 979.013H1132.98C1144.8 974.268 1152.13 965.468 1153.25 955.892C1153.42 954.77 1153.42 953.648 1153.42 952.527C1155.06 964.519 1146.69 979.789 1131.6 985.225C1112.1 992.299 1088.46 985.915 1078.71 971.162V971.248Z" fill="#03FC9D"/><path d="M1078.71 965.552C1078.71 965.552 1078.54 965.293 1078.54 965.207C1076.55 962.015 1075.26 958.736 1074.83 955.372C1074.66 953.905 1074.57 952.352 1074.66 950.886V950.627C1075.43 940.36 1083.37 930.698 1096.48 925.953C1115.98 918.878 1139.62 925.262 1149.37 940.015C1152.04 944.07 1153.34 948.384 1153.51 952.525C1153.51 953.646 1153.51 954.768 1153.34 955.889C1152.22 965.466 1144.97 974.18 1133.06 979.011H1132.98C1132.98 979.011 1132.63 979.183 1132.46 979.27C1132.2 979.356 1131.86 979.528 1131.6 979.615C1112.1 986.689 1088.46 980.305 1078.71 965.552Z" fill="#E6E8EA"/><path d="M1078.45 971.164C1075.09 966.074 1073.79 956.153 1074.31 950.804C1074.23 952.27 1074.31 953.823 1074.48 955.29C1074.92 958.655 1076.12 961.933 1078.19 965.125C1078.19 965.211 1078.37 965.384 1078.37 965.47C1088.03 980.309 1111.75 986.607 1131.25 979.533C1131.51 979.447 1131.86 979.36 1132.11 979.188C1132.29 979.188 1132.46 979.015 1132.63 978.929H1132.72C1144.54 974.184 1151.87 965.384 1152.99 955.808C1153.17 954.686 1153.17 953.564 1153.17 952.443C1154.8 964.435 1146.44 979.705 1131.34 985.141C1111.84 992.215 1088.2 985.831 1078.45 971.078V971.164Z" stroke="#003B2F" stroke-width="1.98429" stroke-linecap="round" stroke-linejoin="round"/><path d="M1078.45 965.468C1078.45 965.468 1078.28 965.209 1078.28 965.123C1076.3 961.93 1075 958.652 1074.57 955.287C1074.4 953.821 1074.31 952.268 1074.4 950.801V950.542C1075.17 940.276 1083.11 930.613 1096.22 925.868C1115.72 918.794 1139.36 925.178 1149.11 939.931C1151.78 943.986 1153.08 948.299 1153.25 952.44C1153.25 953.562 1153.25 954.683 1153.08 955.805C1151.96 965.381 1144.71 974.095 1132.8 978.926H1132.72C1132.72 978.926 1132.37 979.099 1132.2 979.185C1131.94 979.271 1131.6 979.444 1131.34 979.53C1111.84 986.605 1088.2 980.22 1078.45 965.468Z" stroke="#003B2F" stroke-width="1.98429" stroke-linecap="round" stroke-linejoin="round"/><path d="M1125.39 938.896C1123.57 934.755 1119.35 934.582 1114.52 935.617L1112.53 929.665L1108.91 930.872L1110.89 936.825L1107.96 937.861L1105.89 931.821L1102.26 933.116L1104.25 939.068L1101.92 939.931L1096.92 941.57L1098.21 945.453C1098.21 945.453 1100.88 944.504 1100.8 944.59C1101.06 944.504 1101.32 944.417 1101.57 944.417C1101.83 944.417 1102.09 944.417 1102.35 944.504C1102.61 944.59 1102.87 944.762 1103.04 944.935C1103.21 945.108 1103.39 945.366 1103.47 945.625L1105.63 952.355L1108.74 961.931C1108.74 961.931 1108.74 962.276 1108.74 962.449C1108.74 962.621 1108.74 962.794 1108.56 962.966C1108.48 963.139 1108.39 963.225 1108.22 963.398C1108.04 963.484 1107.87 963.57 1107.7 963.656L1105.03 964.519L1105.72 969.092L1110.46 967.539L1113.05 966.676L1115.12 972.715L1118.74 971.507L1116.84 965.641L1119.78 964.692L1121.76 970.645L1125.39 969.437L1123.4 963.398C1129.44 961.068 1133.15 958.049 1131.77 952.096C1131.68 951.233 1131.43 950.284 1130.99 949.507C1130.56 948.731 1129.96 948.041 1129.18 947.523C1128.49 947.006 1127.63 946.574 1126.77 946.402C1125.9 946.229 1124.95 946.143 1124.09 946.402C1125.04 945.539 1125.64 944.331 1125.9 943.037C1126.08 941.743 1125.9 940.449 1125.21 939.241V939.068L1125.39 938.896ZM1124.52 953.562C1126.08 958.135 1118.14 960.119 1115.64 960.982L1112.96 952.958C1115.38 952.182 1122.97 948.817 1124.52 953.562ZM1119.09 942.778C1120.47 946.919 1113.83 948.558 1111.75 949.249L1109.34 941.829C1111.5 941.225 1117.71 938.464 1119.09 942.778Z" fill="#003B2F"/><path d="M1533 939.125L1548.17 954.291" stroke="#003B2F" stroke-width="3" stroke-linecap="round" stroke-linejoin="round"/><path d="M1559.25 965.375L1574.42 980.444" stroke="#003B2F" stroke-width="3" stroke-linecap="round" stroke-linejoin="round"/><path d="M1533 980.444L1548.17 965.375" stroke="#003B2F" stroke-width="3" stroke-linecap="round" stroke-linejoin="round"/><path d="M1559.25 954.291L1574.42 939.125" stroke="#003B2F" stroke-width="3" stroke-linecap="round" stroke-linejoin="round"/><path d="M1163.25 739.624C1173.88 739.624 1182.5 731.006 1182.5 720.374C1182.5 709.743 1173.88 701.125 1163.25 701.125C1152.62 701.125 1144 709.743 1144 720.374C1144 731.006 1152.62 739.624 1163.25 739.624Z" stroke="#003B2F" stroke-width="3" stroke-linecap="round" stroke-linejoin="round"/><path d="M1602.7 727.039H1552.92C1568.67 727.039 1581.41 715.762 1581.41 701.86C1581.41 687.957 1568.67 676.68 1552.92 676.68H1409.91C1394.16 676.68 1381.43 687.957 1381.43 701.86H1337.49C1321.74 701.86 1309 713.137 1309 727.039C1309 740.942 1321.74 752.219 1337.49 752.219H1431.2C1431.2 766.122 1443.94 777.399 1459.69 777.399H1602.7C1618.45 777.399 1631.19 766.122 1631.19 752.219C1631.19 738.317 1618.45 727.039 1602.7 727.039Z" fill="#E6E8EA"/><path d="M1429.65 709.054H1465.33" stroke="#003B2F" stroke-width="3" stroke-linecap="round" stroke-linejoin="round"/><path d="M1511.41 654.125H1769.82" stroke="#03FC9D" stroke-width="3" stroke-linecap="round" stroke-linejoin="round"/><path d="M1511.41 708.859H1655.88" stroke="#003B2F" stroke-width="3" stroke-linecap="round" stroke-linejoin="round"/><path d="M1486.93 291.524H1621.87C1636.74 291.524 1648.8 279.468 1648.8 264.595C1648.8 249.722 1636.74 237.665 1621.87 237.665L1486.93 237.665C1472.06 237.665 1460 249.722 1460 264.595C1460 279.468 1472.06 291.524 1486.93 291.524Z" fill="#03FC9D"/><path d="M1560.23 250.303L1781.12 250.303C1805.49 250.303 1825.25 230.564 1825.25 206.214C1825.25 181.865 1805.49 162.125 1781.12 162.125L1560.23 162.125C1535.86 162.125 1516.1 181.865 1516.1 206.214C1516.1 230.564 1535.86 250.303 1560.23 250.303Z" fill="#03FC9D"/><path d="M1593.32 406.125H1824.7" stroke="#03FC9D" stroke-width="3" stroke-linecap="round" stroke-linejoin="round"/><path d="M1566 437.138H1695.4" stroke="#003B2F" stroke-width="3" stroke-linecap="round" stroke-linejoin="round"/><path d="M1160.31 123.125V145.972" stroke="#003B2F" stroke-width="3" stroke-linecap="round" stroke-linejoin="round"/><path d="M1160.31 162.693V185.637" stroke="#003B2F" stroke-width="3" stroke-linecap="round" stroke-linejoin="round"/><path d="M1129 154.333H1151.94" stroke="#003B2F" stroke-width="3" stroke-linecap="round" stroke-linejoin="round"/><path d="M1168.67 154.333H1191.51" stroke="#003B2F" stroke-width="3" stroke-linecap="round" stroke-linejoin="round"/><path d="M286.9 790.942H451.881C470.029 790.942 484.741 776.23 484.741 758.082V757.985C484.741 739.837 470.029 725.125 451.881 725.125H286.9C268.751 725.125 254.039 739.837 254.039 757.985V758.082C254.039 776.23 268.751 790.942 286.9 790.942Z" fill="#03FC9D"/><path d="M228.861 830.122H393.842C411.99 830.122 426.702 815.41 426.702 797.262V797.165C426.702 779.016 411.99 764.305 393.842 764.305H228.861C210.712 764.305 196 779.016 196 797.165V797.262C196 815.41 210.712 830.122 228.861 830.122Z" fill="#03FC9D"/><path d="M331.021 310.207H290.869C303.605 310.207 313.91 299.902 313.91 287.166C313.91 274.43 303.605 264.125 290.869 264.125H175.47C162.734 264.125 152.429 274.43 152.429 287.166H117.041C104.305 287.166 94 297.471 94 310.207C94 322.943 104.305 333.248 117.041 333.248H192.581C192.581 345.984 202.886 356.289 215.622 356.289H331.021C343.757 356.289 354.062 345.984 354.062 333.248C354.062 320.512 343.757 310.207 331.021 310.207Z" fill="#E6E8EA"/><path d="M634.958 669.125V693.235" stroke="#003B2F" stroke-width="3" stroke-linecap="round" stroke-linejoin="round"/><path d="M634.958 710.929V735.04" stroke="#003B2F" stroke-width="3" stroke-linecap="round" stroke-linejoin="round"/><path d="M602 702.083H626.11" stroke="#003B2F" stroke-width="3" stroke-linecap="round" stroke-linejoin="round"/><path d="M643.707 702.083H667.915" stroke="#003B2F" stroke-width="3" stroke-linecap="round" stroke-linejoin="round"/><path d="M171 454.125L193.944 467.347" stroke="#003B2F" stroke-width="3" stroke-linecap="round" stroke-linejoin="round"/><path d="M216.888 454.125L203.472 461.903" stroke="#003B2F" stroke-width="3" stroke-linecap="round" stroke-linejoin="round"/><path d="M193.943 467.347V494.179" stroke="#003B2F" stroke-width="3" stroke-linecap="round" stroke-linejoin="round"/><path d="M288.781 591.303H352.946" stroke="#003B2F" stroke-width="3" stroke-linecap="round" stroke-linejoin="round"/><path d="M240.074 591.303H256.213" stroke="#003B2F" stroke-width="3" stroke-linecap="round" stroke-linejoin="round"/><path d="M298.114 547.166H464.36" stroke="#03FC9D" stroke-width="3" stroke-linecap="round" stroke-linejoin="round"/><path d="M383 157.125H560.717" stroke="#03FC9D" stroke-width="3" stroke-linecap="round" stroke-linejoin="round"/><path d="M493.344 186.097H630.52" stroke="#003B2F" stroke-width="3" stroke-linecap="round" stroke-linejoin="round"/></svg>