<svg width="1920" height="1080" viewBox="0 0 1920 1080" fill="none" xmlns="http://www.w3.org/2000/svg"><g clip-path="url(#clip0_122_2084)"><path d="M1533.95 250.005H1577.26C1577.26 250.005 1577.64 249.525 1577.26 249.525C1561.03 246.452 1549.51 229.838 1555.08 211.879C1558.82 199.683 1571.02 192 1583.69 192H1728.13C1744.07 192 1757.04 204.869 1757.13 220.715C1757.13 220.907 1757.23 221.003 1757.42 221.003H1799.87C1815.72 221.003 1830.02 232.911 1830.79 248.661C1831.56 265.275 1818.31 279.008 1801.79 279.008H1706.81C1706.81 279.008 1706.52 279.104 1706.52 279.296C1706.43 295.238 1693.46 308.011 1677.52 308.011H1532.03C1515.61 308.011 1502.35 294.278 1503.02 277.664C1503.7 261.049 1518.01 250.005 1533.95 250.005Z" fill="#E6E8EA"/><path d="M1943.54 264.699H1690.58C1662.68 264.699 1640.07 287.293 1640.07 315.165C1640.07 343.037 1662.68 365.632 1690.58 365.632H1943.54C1971.44 365.632 1994.05 343.037 1994.05 315.165C1994.05 287.293 1971.44 264.699 1943.54 264.699Z" fill="#03FC9D"/><path d="M511.709 408.157C450.055 423.811 412.409 486.138 427.582 548.081C442.756 609.928 504.891 647.958 566.833 633.36L511.709 408.157Z" fill="#03FC9D"/><path d="M546.86 552.018C541.962 553.651 537.352 554.803 534.567 555.668L527.941 528.682C530.726 527.913 535.24 526.377 540.233 525.128L537.16 512.644C532.359 514.468 527.557 515.621 524.868 516.389L518.818 491.9C521.507 491.132 526.116 489.499 531.206 488.443L522.851 454.254L520.546 454.927L525.348 474.518C521.891 475.478 518.433 476.535 514.976 477.591L510.078 457.904L497.114 461.649L502.011 481.816C499.226 482.681 496.441 483.545 493.752 484.313L475.794 489.403L479.059 502.464C479.059 502.464 488.662 499.583 488.47 499.775C493.752 498.239 496.153 500.639 497.306 503.04L502.972 525.993C502.972 525.993 503.836 525.801 504.412 525.705C503.932 525.801 503.548 525.993 503.068 526.089L510.943 558.165C511.135 559.797 510.751 562.582 507.101 563.639C507.293 563.639 497.69 566.328 497.69 566.328L498.746 581.693L515.648 576.892C518.818 576.027 521.891 575.163 524.964 574.299L529.958 594.658L542.922 590.913L537.929 570.745C541.482 569.785 544.939 568.825 548.3 567.864L553.198 587.936L555.407 587.359L546.86 552.306V552.018Z" fill="#003B2F"/><path d="M692.062 400.379L663.828 630.479C727.019 637.682 784.352 592.641 792.131 529.45C799.91 466.259 755.157 408.638 692.158 400.379H692.062Z" fill="#03FC9D"/><path d="M712.708 513.22C720.967 510.147 726.633 504.097 726.825 493.149C727.113 478.167 713.956 472.021 696.67 469.14L699.167 448.588L686.202 447.532L681.881 482.393C691.292 483.545 702.24 486.618 700.992 496.702C699.839 506.402 688.411 507.65 678.807 507.362L677.271 519.943C688.987 521.095 703.969 524.264 702.528 536.077C701.184 547.409 685.722 548.273 673.91 547.601L669.492 583.326L682.649 584.478L685.146 563.735C707.906 564.407 724.424 560.469 728.842 540.878C732.395 525.128 725.192 517.35 712.708 513.316V513.22Z" fill="#003B2F"/><path d="M1002.35 1329.23L987.851 1172.02C984.874 1156.18 973.542 1143.4 958.368 1138.12C865.886 1105.85 734.318 959.304 690.045 907.733C681.306 897.457 676.12 884.685 675.352 871.144C672.087 808.048 623.301 709.804 601.885 669.373C595.643 657.561 600.444 642.964 612.449 637.106C674.2 606.662 742.289 671.006 806.248 772.035C845.335 833.786 891.528 853.473 933.111 855.298C1126.91 703.178 1086.67 565.367 1047.59 502.368C1039.04 488.539 1024.63 479.512 1008.4 480.088C760.055 488.923 736.911 414.111 737.679 383.572C737.871 376.466 743.537 370.8 750.644 370.607L1098.77 357.835C1120.19 357.066 1139.97 369.647 1148.23 389.43C1152.26 398.938 1156.87 409.982 1161.68 421.698L1180.02 376.658C952.03 145.789 1009.65 85.0944 1036.83 70.9772C1042.3 68.0961 1049.03 69.4406 1053.16 74.1464L1252.81 303.095L1288.06 343.526C1295.74 352.361 1299.97 363.597 1299.97 375.313L1299.58 533.772L1299.2 681.954L1315.62 1500.75" stroke="#003B2F" stroke-width="2.88106" stroke-linecap="round" stroke-linejoin="round"/><path d="M1299.1 681.762L1299.49 533.58L1339.15 444.171C1339.63 443.21 1339.82 442.154 1340.01 441.097L1346.45 385.013C1366.13 352.073 1381.88 331.713 1416.07 347.847C1422.6 350.92 1425.68 358.603 1422.79 365.326C1400.32 418.433 1307.84 639.699 1299.1 681.762Z" stroke="#003B2F" stroke-width="2.88106" stroke-linecap="round" stroke-linejoin="round"/><path d="M1299.48 533.676L1299.87 375.217C1299.87 363.501 1295.64 352.265 1287.96 343.429L1252.71 302.999C1261.07 229.724 1263.95 127.158 1360.56 125.045C1368.73 124.853 1375.26 131.864 1374.3 140.027L1346.35 385.109L1339.91 441.193C1339.82 442.25 1339.53 443.306 1339.05 444.267L1299.39 533.676H1299.48Z" stroke="#003B2F" stroke-width="2.88106" stroke-linecap="round" stroke-linejoin="round"/><path d="M1206.33 536.653L1161.1 420.162" stroke="#003B2F" stroke-width="2.88106" stroke-linecap="round" stroke-linejoin="round"/><path d="M1020.79 838.78C1020.79 838.78 979.494 863.461 933.205 855.394" stroke="#003B2F" stroke-width="2.88106" stroke-linecap="round" stroke-linejoin="round"/><path d="M300.43 380.499H253.756C268.546 380.499 280.55 369.647 280.55 356.202C280.55 342.757 268.546 331.905 253.756 331.905H119.691C104.902 331.905 92.8972 342.757 92.8972 356.202H51.7941C37.0047 356.202 25.0002 367.054 25.0002 380.499C25.0002 393.944 37.0047 404.796 51.7941 404.796H139.666C139.666 418.241 151.671 429.093 166.46 429.093H300.526C315.315 429.093 327.32 418.241 327.32 404.796C327.32 391.351 315.315 380.499 300.526 380.499H300.43Z" fill="#E6E8EA"/><path d="M378.699 147.133H446.404" stroke="#003B2F" stroke-width="2.88106" stroke-linecap="round" stroke-linejoin="round"/><path d="M327.225 147.133H344.32" stroke="#003B2F" stroke-width="2.88106" stroke-linecap="round" stroke-linejoin="round"/><path d="M224.466 363.213H257.887" stroke="#003B2F" stroke-width="2.88106" stroke-linecap="round" stroke-linejoin="round"/><path d="M176.064 274.188H418.361" stroke="#03FC9D" stroke-width="2.88106" stroke-linecap="round" stroke-linejoin="round"/><path d="M301.102 363.021H436.608" stroke="#003B2F" stroke-width="2.88106" stroke-linecap="round" stroke-linejoin="round"/><path d="M363.91 864.805H499.416" stroke="#003B2F" stroke-width="2.88106" stroke-linecap="round" stroke-linejoin="round"/><path d="M1504 616.294H1679.46" stroke="#03FC9D" stroke-width="2.88106" stroke-linecap="round" stroke-linejoin="round"/><path d="M1641.24 692.258H1776.74" stroke="#003B2F" stroke-width="2.88106" stroke-linecap="round" stroke-linejoin="round"/><path d="M528.546 229.061L508.581 209.096L488.616 229.061L508.581 249.026L528.546 229.061Z" stroke="#003B2F" stroke-width="2.88106" stroke-linecap="round" stroke-linejoin="round"/><path d="M1603.49 512L1626.73 525.445" stroke="#003B2F" stroke-width="2.88106" stroke-linecap="round" stroke-linejoin="round"/><path d="M1649.97 512L1636.33 519.875" stroke="#003B2F" stroke-width="2.88106" stroke-linecap="round" stroke-linejoin="round"/><path d="M1626.73 525.445V552.623" stroke="#003B2F" stroke-width="2.88106" stroke-linecap="round" stroke-linejoin="round"/><path d="M237.718 729.107H263.84" stroke="#003B2F" stroke-width="2.88106" stroke-linecap="round" stroke-linejoin="round"/><path d="M128.525 685.123H317.426" stroke="#03FC9D" stroke-width="2.88106" stroke-linecap="round" stroke-linejoin="round"/><path d="M297.548 729.012H403.09" stroke="#003B2F" stroke-width="2.88106" stroke-linecap="round" stroke-linejoin="round"/><path d="M802.409 219.448V241.152" stroke="#003B2F" stroke-width="2.88106" stroke-linecap="round" stroke-linejoin="round"/><path d="M802.409 257.094V278.702" stroke="#003B2F" stroke-width="2.88106" stroke-linecap="round" stroke-linejoin="round"/><path d="M772.829 249.123H794.533" stroke="#003B2F" stroke-width="2.88106" stroke-linecap="round" stroke-linejoin="round"/><path d="M810.38 249.123H832.084" stroke="#003B2F" stroke-width="2.88106" stroke-linecap="round" stroke-linejoin="round"/><path d="M1693.73 941.77H1582.41C1570.15 941.77 1560.2 931.83 1560.2 919.56C1560.2 907.3 1570.14 897.35 1582.41 897.35H1693.72C1705.98 897.35 1715.93 907.29 1715.93 919.56C1715.93 931.83 1705.99 941.77 1693.73 941.77Z" fill="#03FC9D"/><path d="M1636.44 909.66H1459.33C1439.82 909.66 1424 893.84 1424 874.33C1424 854.82 1439.82 839 1459.33 839H1636.44C1655.95 839 1671.77 854.82 1671.77 874.33C1671.78 893.84 1655.96 909.66 1636.44 909.66Z" fill="#03FC9D"/><path d="M1704.73 868.12C1710.92 868.12 1715.93 863.106 1715.93 856.92C1715.93 850.734 1710.92 845.72 1704.73 845.72C1698.55 845.72 1693.53 850.734 1693.53 856.92C1693.53 863.106 1698.55 868.12 1704.73 868.12Z" stroke="#003B2F" stroke-width="3" stroke-miterlimit="10" stroke-linecap="round" stroke-linejoin="round"/></g><defs><clipPath id="clip0_122_2084"><rect width="1920" height="1080" fill="white"/></clipPath></defs></svg>