<svg width="1920" height="1080" viewBox="0 0 1920 1080" fill="none" xmlns="http://www.w3.org/2000/svg"><g clip-path="url(#clip0_136_2)"><path d="M1585.71 272.233H1603.18" stroke="#003B2F" stroke-width="2.66429" stroke-linecap="round" stroke-linejoin="round"/><path d="M1512.98 228.025H1638.9" stroke="#03FC9D" stroke-width="2.66429" stroke-linecap="round" stroke-linejoin="round"/><path d="M1625.58 272.134H1696.03" stroke="#003B2F" stroke-width="2.66429" stroke-linecap="round" stroke-linejoin="round"/><path d="M226.922 242.827L337.637 242.827C349.845 242.827 359.741 232.931 359.741 220.723C359.741 208.515 349.845 198.619 337.637 198.619H226.922C214.714 198.619 204.818 208.515 204.818 220.723C204.818 232.931 214.714 242.827 226.922 242.827Z" fill="#E6E8EA"/><path d="M283.854 300.948H460.091C479.492 300.948 495.22 285.22 495.22 265.819C495.22 246.417 479.492 230.689 460.091 230.689L283.854 230.689C264.452 230.689 248.724 246.417 248.724 265.819C248.724 285.22 264.452 300.948 283.854 300.948Z" fill="#03FC9D"/><path d="M345.922 210.954L358.652 223.683" stroke="#003B2F" stroke-width="2.66429" stroke-linecap="round" stroke-linejoin="round"/><path d="M367.932 232.959L380.661 245.688" stroke="#003B2F" stroke-width="2.66429" stroke-linecap="round" stroke-linejoin="round"/><path d="M345.922 245.688L358.652 232.959" stroke="#003B2F" stroke-width="2.66429" stroke-linecap="round" stroke-linejoin="round"/><path d="M367.932 223.683L380.661 210.954" stroke="#003B2F" stroke-width="2.66429" stroke-linecap="round" stroke-linejoin="round"/><path d="M535.973 398.046C547.091 398.046 556.103 389.034 556.103 377.916C556.103 366.798 547.091 357.786 535.973 357.786C524.855 357.786 515.843 366.798 515.843 377.916C515.843 389.034 524.855 398.046 535.973 398.046Z" stroke="#003B2F" stroke-width="2.96032" stroke-linecap="round" stroke-linejoin="round"/><path d="M1409.87 375.745L1433.94 389.658" stroke="#003B2F" stroke-width="2.96032" stroke-linecap="round" stroke-linejoin="round"/><path d="M1457.93 375.745L1443.81 383.935" stroke="#003B2F" stroke-width="2.96032" stroke-linecap="round" stroke-linejoin="round"/><path d="M1433.95 389.659V417.683" stroke="#003B2F" stroke-width="2.96032" stroke-linecap="round" stroke-linejoin="round"/><path d="M1489.79 854.527H1663.66" stroke="#03FC9D" stroke-width="2.96032" stroke-linecap="round" stroke-linejoin="round"/><path d="M1625.87 892.123H1759.97" stroke="#003B2F" stroke-width="2.96032" stroke-linecap="round" stroke-linejoin="round"/><path d="M272.609 633.49L299.942 649.278" stroke="#003B2F" stroke-width="2.96032" stroke-linecap="round" stroke-linejoin="round"/><path d="M327.374 633.49L311.29 642.766" stroke="#003B2F" stroke-width="2.96032" stroke-linecap="round" stroke-linejoin="round"/><path d="M299.938 649.278V681.151" stroke="#003B2F" stroke-width="2.96032" stroke-linecap="round" stroke-linejoin="round"/><path d="M188.433 833.607H222.181" stroke="#003B2F" stroke-width="2.96032" stroke-linecap="round" stroke-linejoin="round"/><path d="M132.483 770.355H376.512" stroke="#03FC9D" stroke-width="2.96032" stroke-linecap="round" stroke-linejoin="round"/><path d="M265.697 833.41H402.069" stroke="#003B2F" stroke-width="2.96032" stroke-linecap="round" stroke-linejoin="round"/><path d="M1761.15 646.516H1714.08C1728.98 646.516 1741.02 634.477 1741.02 619.577C1741.02 604.676 1728.98 592.638 1714.08 592.638H1578.99C1564.09 592.638 1552.05 604.676 1552.05 619.577H1510.61C1495.71 619.577 1483.67 631.615 1483.67 646.516C1483.67 661.416 1495.71 673.455 1510.61 673.455H1599.12C1599.12 688.355 1611.16 700.393 1626.06 700.393H1761.15C1776.05 700.393 1788.09 688.355 1788.09 673.455C1788.09 658.554 1776.05 646.516 1761.15 646.516Z" fill="#E6E8EA"/><path d="M1410.46 747.166H1645.41C1671.29 747.166 1692.28 726.181 1692.28 700.295C1692.28 674.408 1671.29 653.423 1645.41 653.423H1410.46C1384.57 653.423 1363.58 674.408 1363.58 700.295C1363.58 726.181 1384.57 747.166 1410.46 747.166Z" fill="#03FC9D"/><path d="M1183.39 715.886L910.453 873.276L638.695 714.899L913.512 554.844L1183.39 715.886Z" fill="white" stroke="#003B2F" stroke-width="2.96032" stroke-linecap="round" stroke-linejoin="round"/><path d="M910.453 959.52V871.993L1183.49 715.392V798.478L910.453 959.52Z" fill="#03FC9D" stroke="#003B2F" stroke-width="2.96032" stroke-linecap="round" stroke-linejoin="round"/><path d="M910.455 959.52V871.993L639.784 714.405V799.268L910.455 959.52Z" fill="#E6E8EA" stroke="#003B2F" stroke-width="2.96032" stroke-linecap="round" stroke-linejoin="round"/><path d="M1236.68 569.843L963.636 727.332L691.879 568.955L966.794 408.901L1236.68 569.843Z" fill="white" stroke="#003B2F" stroke-width="2.96032" stroke-linecap="round" stroke-linejoin="round"/><path d="M963.733 813.576V725.951L1236.77 569.449V652.436L963.733 813.576Z" fill="#03FC9D" stroke="#003B2F" stroke-width="2.96032" stroke-linecap="round" stroke-linejoin="round"/><path d="M963.736 813.576V725.951L693.064 568.363V653.225L963.736 813.576Z" fill="#E6E8EA" stroke="#003B2F" stroke-width="2.96032" stroke-linecap="round" stroke-linejoin="round"/><path d="M1290.16 423.702L1017.12 581.191L745.361 422.814L1020.18 262.76L1290.16 423.702Z" fill="white" stroke="#003B2F" stroke-width="2.96032" stroke-linecap="round" stroke-linejoin="round"/><path d="M1017.22 667.435V579.81L1290.26 423.308V506.295L1017.22 667.435Z" fill="#03FC9D" stroke="#003B2F" stroke-width="2.96032" stroke-linecap="round" stroke-linejoin="round"/><path d="M1017.22 667.435V579.81L746.451 422.222V507.084L1017.22 667.435Z" fill="#E6E8EA" stroke="#003B2F" stroke-width="2.96032" stroke-linecap="round" stroke-linejoin="round"/><path d="M1019.89 428.932C1093.73 428.932 1153.59 421.819 1153.59 413.045C1153.59 404.271 1093.73 397.158 1019.89 397.158C946.042 397.158 886.179 404.271 886.179 413.045C886.179 421.819 946.042 428.932 1019.89 428.932Z" fill="#E6E8EA"/><path d="M1122.81 308.052V357.194H959.894C937.297 357.194 919.535 345.944 913.121 322.558C912.332 319.302 911.542 316.144 911.542 312.888V163.885C911.542 146.123 926.048 123.625 946.178 120.368C953.48 118 959.894 118 967.098 118H1039.63C1054.92 118 1069.43 129.249 1068.64 145.334C1068.64 152.537 1074.26 159.05 1080.77 159.05C1086.4 159.05 1092.02 152.636 1092.02 146.123C1092.81 130.039 1104.95 118.789 1121.82 118.789V167.141H973.413C962.953 167.141 959.697 169.51 959.697 180.068V294.435C959.697 304.895 962.164 307.362 973.413 307.362H1121.82L1122.61 308.151L1122.81 308.052Z" fill="#003B2F"/><path d="M403.353 568.955C409.372 596.19 436.41 613.36 463.644 607.341C490.879 601.321 508.049 574.284 502.03 547.049C496.011 519.814 468.973 502.644 441.738 508.663C414.503 514.683 397.333 541.72 403.353 568.955Z" fill="#03FC9D"/><path d="M425.949 591.848C403.648 575.073 399.307 543.496 416.082 521.294C432.955 499.092 464.631 494.651 486.932 511.426C509.233 528.201 513.575 559.778 496.8 581.981C479.926 604.183 448.25 608.623 425.949 591.848Z" stroke="#003B2F" stroke-width="2.96032" stroke-linecap="round" stroke-linejoin="round"/><path d="M477.661 565.699V575.566H444.999C440.46 575.566 436.907 573.297 435.625 568.659C435.427 567.968 435.329 567.376 435.329 566.685V536.885C435.329 533.333 438.19 528.793 442.236 528.201C443.716 527.708 444.999 527.708 446.479 527.708H460.985C464.044 527.708 467.004 529.978 466.807 533.234C466.807 534.714 467.892 535.997 469.274 535.997C470.359 535.997 471.543 534.714 471.543 533.431C471.741 530.175 474.109 527.905 477.562 527.905V537.576H447.861C445.788 537.576 445.098 538.069 445.098 540.141V563.034C445.098 565.107 445.591 565.6 447.861 565.6H477.562L477.76 565.797L477.661 565.699Z" fill="#003B2F"/><path d="M1476.76 586.52C1483.77 618.195 1515.25 638.227 1546.92 631.221C1578.6 624.214 1598.63 592.736 1591.62 561.061C1584.62 529.386 1553.14 509.354 1521.46 516.36C1489.69 523.366 1469.76 554.844 1476.76 586.52Z" fill="#03FC9D"/><path d="M1503.11 613.064C1477.16 593.526 1472.03 556.719 1491.66 530.866C1511.3 505.012 1548.2 499.881 1574.16 519.419C1600.11 538.957 1605.24 575.764 1585.6 601.617C1565.97 627.471 1529.06 632.602 1503.11 613.064Z" stroke="#003B2F" stroke-width="2.96032" stroke-linecap="round" stroke-linejoin="round"/><path d="M1563.3 582.671V594.118H1525.31C1520.08 594.118 1515.94 591.453 1514.36 586.026C1514.16 585.237 1513.97 584.546 1513.97 583.757V549.022C1513.97 544.878 1517.32 539.648 1522.06 538.859C1523.73 538.266 1525.21 538.266 1526.99 538.266H1543.96C1547.52 538.266 1550.97 540.931 1550.77 544.68C1550.77 546.358 1552.05 547.838 1553.63 547.838C1554.92 547.838 1556.3 546.358 1556.3 544.878C1556.5 541.128 1559.36 538.464 1563.3 538.464V549.713H1528.67C1526.2 549.713 1525.51 550.305 1525.51 552.673V579.316C1525.51 581.783 1526.1 582.277 1528.67 582.277H1563.3L1563.5 582.474L1563.3 582.671Z" fill="#003B2F"/><path d="M1327.17 212.039C1332.89 237.794 1358.35 253.977 1384.1 248.254C1409.86 242.531 1426.04 217.072 1420.32 191.317C1414.59 165.562 1389.14 149.379 1363.38 155.103C1337.63 160.826 1321.44 186.285 1327.17 212.039Z" fill="#03FC9D"/><path d="M1348.58 233.551C1327.56 217.664 1323.42 187.863 1339.31 166.845C1355.19 145.827 1385.19 141.683 1406.21 157.57C1427.23 173.358 1431.37 203.257 1415.49 224.275C1399.6 245.294 1369.6 249.438 1348.58 233.551Z" stroke="#003B2F" stroke-width="2.96032" stroke-linecap="round" stroke-linejoin="round"/><path d="M1397.33 208.882V218.157H1366.54C1362.3 218.157 1358.94 215.987 1357.66 211.645C1357.46 211.053 1357.36 210.461 1357.36 209.77V181.548C1357.36 178.193 1360.13 173.95 1363.88 173.358C1365.26 172.865 1366.44 172.865 1367.82 172.865H1381.54C1384.4 172.865 1387.16 175.035 1387.06 178.094C1387.06 179.476 1388.15 180.66 1389.33 180.66C1390.42 180.66 1391.51 179.476 1391.51 178.193C1391.7 175.134 1393.97 172.963 1397.13 172.963V182.14H1369.01C1367.03 182.14 1366.44 182.634 1366.44 184.607V206.217C1366.44 208.191 1366.93 208.684 1369.01 208.684H1397.13L1397.33 208.882Z" fill="#003B2F"/></g><defs><clipPath id="clip0_136_2"><rect width="1657.09" height="843" fill="white" transform="translate(131 118)"/></clipPath></defs></svg>