<svg width="1676" height="857" viewBox="0 0 1676 857" fill="none" xmlns="http://www.w3.org/2000/svg"><g clip-path="url(#clip0_237_8)"><path d="M388.693 45.5773L295.158 99.5813L388.693 153.503L482.146 99.5813L388.693 45.5773Z" fill="#03FC9D"/><path d="M388.693 153.503V261.428L482.145 207.507V99.5813L388.693 153.503Z" fill="#03FC9D"/><path d="M388.693 153.503V261.428L295.158 207.507V99.5813L388.693 153.503Z" fill="#03FC9D"/><path d="M499.43 89.6572L388.693 25.7291L277.873 89.6572" stroke="#003B2F" stroke-width="3" stroke-linecap="round" stroke-linejoin="round"/><path d="M388.693 153.503L499.43 89.6573V153.503" stroke="#003B2F" stroke-width="3" stroke-linecap="round" stroke-linejoin="round"/><path d="M388.693 153.503V281.359" stroke="#003B2F" stroke-width="3" stroke-linecap="round" stroke-linejoin="round"/><path d="M388.693 153.503L277.873 89.6573" stroke="#003B2F" stroke-width="3" stroke-linecap="round" stroke-linejoin="round"/><path d="M277.873 180.463V89.6573" stroke="#003B2F" stroke-width="3" stroke-linecap="round" stroke-linejoin="round"/><path d="M388.693 281.359L306.405 233.889" stroke="#003B2F" stroke-width="3" stroke-linecap="round" stroke-linejoin="round"/><path d="M388.693 281.359L470.898 233.889" stroke="#003B2F" stroke-width="3" stroke-linecap="round" stroke-linejoin="round"/><path d="M1339.51 42.931L1245.97 96.8523L1339.51 150.774L1432.96 96.8523L1339.51 42.931Z" fill="#E6E8EA"/><path d="M1339.51 150.774V258.699L1432.96 204.778V96.8523L1339.51 150.774Z" fill="#E6E8EA"/><path d="M1339.51 150.774V258.699L1245.97 204.778V96.8523L1339.51 150.774Z" fill="#E6E8EA"/><path d="M1450.25 86.9282L1339.51 23L1228.69 86.9282" stroke="#003B2F" stroke-width="3" stroke-linecap="round" stroke-linejoin="round"/><path d="M1450.25 177.817V86.9282" stroke="#003B2F" stroke-width="3" stroke-linecap="round" stroke-linejoin="round"/><path d="M1339.51 278.63L1421.72 231.16" stroke="#003B2F" stroke-width="3" stroke-linecap="round" stroke-linejoin="round"/><path d="M1450.25 86.9282L1339.51 150.774" stroke="#003B2F" stroke-width="3" stroke-linecap="round" stroke-linejoin="round"/><path d="M1339.51 150.774V278.63" stroke="#003B2F" stroke-width="3" stroke-linecap="round" stroke-linejoin="round"/><path d="M1339.51 150.774L1228.69 86.9282V170.622" stroke="#003B2F" stroke-width="3" stroke-linecap="round" stroke-linejoin="round"/><path d="M1339.51 278.216L1263.67 234.385" stroke="#003B2F" stroke-width="3" stroke-linecap="round" stroke-linejoin="round"/><path d="M1293 185L1054 340" stroke="#003B2F" stroke-width="3" stroke-linecap="round" stroke-linejoin="round" stroke-dasharray="8 8"/><path d="M433 180L719 346" stroke="#003B2F" stroke-width="3" stroke-linecap="round" stroke-linejoin="round" stroke-dasharray="8 8"/><path d="M1389 179L1705 370" stroke="#003B2F" stroke-width="3" stroke-linecap="round" stroke-linejoin="round" stroke-dasharray="8 8"/><path d="M499 180V89" stroke="#003B2F" stroke-width="3" stroke-linecap="round" stroke-linejoin="round"/><path d="M1505.07 451H1465.02C1477.65 451 1487.95 440.667 1487.95 428C1487.95 415.333 1477.65 405 1465.02 405H1350.1C1337.47 405 1327.16 415.333 1327.16 428H1291.93C1279.3 428 1269 438.333 1269 451C1269 463.667 1279.3 474 1291.93 474H1367.22C1367.22 486.667 1377.52 497 1390.15 497H1505.07C1517.7 497 1528 486.667 1528 474C1528 461.333 1517.7 451 1505.07 451Z" fill="#E6E8EA"/><path d="M1435 435H1464" stroke="#003B2F" stroke-width="3" stroke-linecap="round" stroke-linejoin="round"/><path d="M1316 370H1523" stroke="#03FC9D" stroke-width="3" stroke-linecap="round" stroke-linejoin="round"/><path d="M1500 435H1559" stroke="#003B2F" stroke-width="3" stroke-linecap="round" stroke-linejoin="round"/><path d="M536 514H594" stroke="#003B2F" stroke-width="3" stroke-linecap="round" stroke-linejoin="round"/><path d="M492 514H506" stroke="#003B2F" stroke-width="3" stroke-linecap="round" stroke-linejoin="round"/><path d="M1131 93H1160" stroke="#003B2F" stroke-width="3" stroke-linecap="round" stroke-linejoin="round"/><path d="M939 78H1145" stroke="#03FC9D" stroke-width="3" stroke-linecap="round" stroke-linejoin="round"/><path d="M832 752H861" stroke="#003B2F" stroke-width="3" stroke-linecap="round" stroke-linejoin="round"/><path d="M713 687H920" stroke="#03FC9D" stroke-width="3" stroke-linecap="round" stroke-linejoin="round"/><path d="M898 752H1014" stroke="#003B2F" stroke-width="3" stroke-linecap="round" stroke-linejoin="round"/><path d="M106 158H221" stroke="#003B2F" stroke-width="3" stroke-linecap="round" stroke-linejoin="round"/><path d="M642.337 139.278L655.983 152.924" stroke="#003B2F" stroke-width="3" stroke-linecap="round" stroke-linejoin="round"/><path d="M665.99 162.848L679.636 176.494" stroke="#003B2F" stroke-width="3" stroke-linecap="round" stroke-linejoin="round"/><path d="M642.337 176.494L655.983 162.848" stroke="#003B2F" stroke-width="3" stroke-linecap="round" stroke-linejoin="round"/><path d="M665.99 152.924L679.636 139.278" stroke="#003B2F" stroke-width="3" stroke-linecap="round" stroke-linejoin="round"/><path d="M1180.48 352.069L1194.04 365.632" stroke="#003B2F" stroke-width="3" stroke-linecap="round" stroke-linejoin="round"/><path d="M1203.96 375.556L1217.61 389.119" stroke="#003B2F" stroke-width="3" stroke-linecap="round" stroke-linejoin="round"/><path d="M1180.48 389.119L1194.04 375.556" stroke="#003B2F" stroke-width="3" stroke-linecap="round" stroke-linejoin="round"/><path d="M1203.96 365.632L1217.61 352.069" stroke="#003B2F" stroke-width="3" stroke-linecap="round" stroke-linejoin="round"/><path d="M1020.53 682.212L1037.82 672.206" stroke="#003B2F" stroke-width="3" stroke-linecap="round" stroke-linejoin="round"/><path d="M1055.02 682.212L1044.93 676.341" stroke="#003B2F" stroke-width="3" stroke-linecap="round" stroke-linejoin="round"/><path d="M1037.82 672.206V652.109" stroke="#003B2F" stroke-width="3" stroke-linecap="round" stroke-linejoin="round"/><path d="M200.119 510H320.881C334.201 510 345 499.255 345 486C345 472.745 334.201 462 320.881 462H200.119C186.799 462 176 472.745 176 486C176 499.255 186.799 510 200.119 510Z" fill="#03FC9D"/><path d="M137 691.041C137 697.71 134.263 703.72 129.949 708.002C125.553 712.365 119.497 715 112.861 715H-8V667H112.778C126.133 667 137 677.703 137 690.959V691.041Z" fill="#E6E8EA"/><path d="M265.524 473L463.476 473C485.304 473 503 455.315 503 433.5C503 411.685 485.304 394 463.476 394H265.524C243.696 394 226 411.685 226 433.5C226 455.315 243.696 473 265.524 473Z" fill="#03FC9D"/><path d="M229 468C238.941 468 247 460.389 247 451C247 441.611 238.941 434 229 434C219.059 434 211 441.611 211 451C211 460.389 219.059 468 229 468Z" stroke="#003B2F" stroke-width="3" stroke-linecap="round" stroke-linejoin="round"/><path d="M747 603C751.971 603 756 599.194 756 594.5C756 589.806 751.971 586 747 586C742.029 586 738 589.806 738 594.5C738 599.194 742.029 603 747 603Z" stroke="#003B2F" stroke-width="3" stroke-linecap="round" stroke-linejoin="round"/><path d="M1058.5 277C1063.19 277 1067 272.971 1067 268C1067 263.029 1063.19 259 1058.5 259C1053.81 259 1050 263.029 1050 268C1050 272.971 1053.81 277 1058.5 277Z" stroke="#003B2F" stroke-width="3" stroke-linecap="round" stroke-linejoin="round"/><path d="M1099.84 405.577L871.007 537.485L643.248 404.75L873.571 270.608L1099.84 405.577Z" fill="white" stroke="#003B2F" stroke-width="3" stroke-linecap="round" stroke-linejoin="round"/><path d="M871.09 609.766V536.41L1099.92 405.163V474.798L871.09 609.766Z" fill="#03FC9D" stroke="#003B2F" stroke-width="3" stroke-linecap="round" stroke-linejoin="round"/><path d="M871.09 609.766V536.41L644.157 404.336V475.459L871.09 609.766Z" fill="#E6E8EA" stroke="#003B2F" stroke-width="3" stroke-linecap="round" stroke-linejoin="round"/><path d="M871.5 410C922.586 410 964 403.956 964 396.5C964 389.044 922.586 383 871.5 383C820.414 383 779 389.044 779 396.5C779 403.956 820.414 410 871.5 410Z" fill="#E6E8EA"/><path d="M870.842 322.958L869.684 317.334L778.133 263.579L871.421 212.552L963.798 263.579L870.842 322.958Z" fill="white"/><path d="M778.216 234.881C778.216 234.881 778.299 234.881 778.381 234.881C779.043 234.385 779.705 234.054 780.449 233.806L792.606 228.265L803.275 223.386L815.597 217.762L826.017 213.048L838.423 207.424L848.926 202.628L861.166 197.087L870.18 192.952C870.18 192.952 870.759 192.538 871.172 192.703C871.172 192.703 871.172 192.869 871.255 192.952C871.255 193.282 871.255 193.613 871.255 194.027C871.255 225.453 871.255 256.962 871.255 288.472C871.255 288.968 871.255 289.381 871.007 289.795C868.195 288.141 865.383 286.487 862.571 284.915L790.787 242.49L778.051 234.964V234.798L778.216 234.881Z" fill="#003B2F"/><path d="M871.09 289.877V192.786C871.09 192.786 871.007 192.124 871.09 191.794V82.4624C871.09 82.0489 870.841 81.5527 871.42 81.2219C873.405 84.5299 875.473 87.838 877.458 91.1461L963.467 233.971C963.467 233.971 963.798 234.633 963.963 234.964C963.55 235.212 963.219 234.964 962.888 234.716L955.858 231.49L941.965 225.122L928.071 218.837C923.357 216.687 918.726 214.536 914.012 212.469L900.366 206.266L886.224 199.898L872.578 193.696L872.165 193.53C872.165 193.53 871.586 193.448 871.586 193.861V288.472C871.668 288.968 871.586 289.464 871.42 289.877C871.42 289.877 871.42 290.043 871.255 289.96L871.09 289.877Z" fill="#004734"/><path d="M871.255 289.712V193.779C871.255 192.703 871.255 192.703 872.248 193.2L888.292 200.477C891.848 202.049 895.321 203.703 898.877 205.357L914.26 212.304L923.026 216.356L935.68 222.062L944.446 226.115L956.768 231.738L963.55 234.798C963.55 234.798 963.798 234.881 963.881 234.881C963.881 235.295 963.55 235.295 963.302 235.377L916.741 262.917L872.33 289.133C872.33 289.133 871.586 289.629 871.172 289.712H871.255Z" fill="#004734"/><path d="M871.172 318.161L890.607 306.666L945.603 274.164L963.053 263.909C963.053 263.909 963.384 263.578 963.715 263.661C963.715 263.909 963.467 264.075 963.384 264.24C932.785 307.327 902.268 350.332 871.668 393.42C871.503 393.668 871.503 394.081 871.007 394.081C870.841 393.668 870.759 393.254 870.759 392.841V319.484C870.759 319.071 870.676 318.492 871.172 318.244V318.161Z" fill="#004734"/><path d="M871.173 318.161C871.173 318.161 871.007 318.906 871.007 319.236V394.081C869.684 392.51 868.609 390.773 867.368 389.036C856.782 374.15 846.197 359.264 835.611 344.295L803.936 299.719L778.712 264.157L778.133 263.33C778.712 263.661 779.043 263.826 779.374 264.075L834.04 296.411L870.428 317.913C870.428 317.913 870.842 318.079 871.007 318.161" fill="#003B2F"/><path d="M871.338 81.2218C871.338 81.2218 871.255 81.8007 871.255 82.1315V191.711C871.255 191.711 871.338 192.372 871.09 192.703C871.09 192.703 870.841 192.207 870.841 191.959V82.7105C870.841 82.1315 870.841 81.4699 871.09 80.891H871.255V81.2218H871.338Z" fill="#003B2F"/><path d="M871.09 80.891C871.09 118.024 871.09 155.24 871.09 192.372V192.703C866.706 194.688 862.406 196.673 858.023 198.74C853.391 200.808 848.76 202.958 844.212 205.026L820.311 215.942L803.605 223.551L778.795 234.798C778.795 234.798 778.547 234.798 778.464 234.881C779.87 232.565 781.193 230.25 782.599 227.934L818.078 169.051L863.481 93.7924L870.924 81.3872C870.924 81.3872 871.09 81.1391 871.255 80.9737" fill="#003B2F"/><path d="M1295.02 580.076L1201.48 633.998L1295.02 688.002L1388.47 633.998L1295.02 580.076Z" fill="#E6E8EA"/><path d="M1295.02 688.002V795.844L1388.47 741.923V633.998L1295.02 688.002Z" fill="#E6E8EA"/><path d="M1295.02 688.002V795.844L1201.48 741.923V633.998L1295.02 688.002Z" fill="#E6E8EA"/><path d="M1239.61 783.852L1295.02 815.775" stroke="#003B2F" stroke-width="3" stroke-linecap="round" stroke-linejoin="round"/><path d="M1405.75 624.074L1295.02 560.145L1184.2 624.074V688.002" stroke="#003B2F" stroke-width="3" stroke-linecap="round" stroke-linejoin="round"/><path d="M1295.02 688.002L1405.75 624.074V751.847L1295.02 815.775V688.002Z" stroke="#003B2F" stroke-width="3" stroke-linecap="round" stroke-linejoin="round"/><path d="M1295.02 688.002L1184.2 624.074" stroke="#003B2F" stroke-width="3" stroke-linecap="round" stroke-linejoin="round"/><circle cx="747.451" cy="513.419" r="1.24052" fill="#003B2F"/><path d="M738.189 518.795L565.839 618.202" stroke="#003B2F" stroke-width="3" stroke-linecap="round" stroke-linejoin="round" stroke-dasharray="8 8"/><circle cx="561.208" cy="620.931" r="1.24052" fill="#003B2F"/><circle cx="339.499" cy="187.728" r="1.39275" fill="#003B2F"/><path d="M329.378 194.135L-1.81873 404.255" stroke="#003B2F" stroke-width="3" stroke-linecap="round" stroke-linejoin="round" stroke-dasharray="8 8"/><path d="M998 507L1177 610" stroke="#003B2F" stroke-width="3" stroke-linecap="round" stroke-linejoin="round" stroke-dasharray="8 8"/><path d="M450.471 594.549L356.936 648.471L450.471 702.392L544.007 648.471L450.471 594.549Z" fill="#03FC9D"/><path d="M450.471 702.392V810.318L544.007 756.396V648.471L450.471 702.392Z" fill="#03FC9D"/><path d="M450.471 702.392V810.318L356.936 756.396V648.471L450.471 702.392Z" fill="#03FC9D"/><path d="M561.208 702.392V638.547" stroke="#003B2F" stroke-width="3" stroke-linecap="round" stroke-linejoin="round"/><path d="M339.651 638.547V766.32L450.471 830.248L514.978 793.033" stroke="#003B2F" stroke-width="3" stroke-linecap="round" stroke-linejoin="round"/><path d="M450.471 702.392L561.208 638.546L450.471 574.37L339.651 638.546L450.471 702.392Z" stroke="#003B2F" stroke-width="3" stroke-linecap="round" stroke-linejoin="round"/><path d="M450.471 702.392V830.248" stroke="#003B2F" stroke-width="3" stroke-linecap="round" stroke-linejoin="round"/><path d="M499 733L747 883" stroke="#003B2F" stroke-width="3" stroke-linecap="round" stroke-linejoin="round" stroke-dasharray="8 8"/></g><defs><clipPath id="clip0_237_8"><rect width="1675.05" height="857" fill="white"/></clipPath></defs></svg>