<svg width="1920" height="1080" viewBox="0 0 1920 1080" fill="none" xmlns="http://www.w3.org/2000/svg"><path d="M1007.63 173.386C988.251 179.448 968.616 186.79 949.237 195.327L964.518 292.137C977.751 286.161 991.154 281.124 1004.64 276.77L1007.54 173.386H1007.63Z" fill="#003D2E" stroke="#003D2E" stroke-width="3" stroke-linecap="round" stroke-linejoin="round"/><path d="M1007.63 173.386L1002.08 158.447L999.179 261.83L1004.73 276.77L1007.63 173.386Z" fill="#003D2E" stroke="#003D2E" stroke-width="3" stroke-linecap="round" stroke-linejoin="round"/><path d="M964.603 292.137L959.054 277.197L961.786 252.525L972.713 288.637L964.603 292.137Z" fill="#003D2E" stroke="#003D2E" stroke-width="3" stroke-linecap="round" stroke-linejoin="round"/><path d="M1002.08 158.447C982.703 164.508 963.068 171.85 943.688 180.387L958.97 277.197C972.202 271.221 985.605 266.184 999.094 261.83L1002 158.447H1002.08Z" fill="#03FC9E" stroke="#003D2E" stroke-width="3" stroke-linecap="round" stroke-linejoin="round"/><path d="M891.098 224.609C871.89 235.536 852.767 247.744 834.242 260.806L886.232 338.322C898.782 329.102 911.673 320.565 924.82 312.796L891.098 224.523V224.609Z" fill="#003D2E" stroke="#003D2E" stroke-width="3" stroke-linecap="round" stroke-linejoin="round"/><path d="M885.55 209.669C866.341 220.596 847.218 232.804 828.693 245.866L880.684 323.382C893.233 314.162 906.124 305.625 919.271 297.857L885.55 209.583V209.669Z" fill="#03FC9E" stroke="#003D2E" stroke-width="3" stroke-linecap="round" stroke-linejoin="round"/><path d="M886.233 338.408L880.684 323.468L828.693 245.866L834.242 260.806L886.233 338.408Z" fill="#003D2E" stroke="#003D2E" stroke-width="3" stroke-linecap="round" stroke-linejoin="round"/><path d="M826.898 347.372L779.688 303.577C762.017 318.858 744.772 335.249 728.637 352.238L815.544 402.009C826.301 390.142 837.57 378.703 849.436 368.031" fill="#003D2E"/><path d="M826.898 347.372L779.688 303.577C762.017 318.858 744.772 335.249 728.637 352.238L815.544 402.009C826.301 390.142 837.57 378.703 849.436 368.031" stroke="#003D2E" stroke-width="3" stroke-linecap="round" stroke-linejoin="round"/><path d="M849.182 367.69L843.804 353.177L823.657 334.481L818.193 365.641" fill="#003D2E"/><path d="M849.182 367.69L843.804 353.177L823.657 334.481L818.193 365.641" stroke="#003D2E" stroke-width="3" stroke-linecap="round" stroke-linejoin="round"/><path d="M774.223 288.637C756.552 303.918 739.307 320.309 723.172 337.298L810.079 387.069C820.836 375.202 832.105 363.763 843.971 353.091L774.394 288.551L774.223 288.637Z" fill="#03FC9E" stroke="#003D2E" stroke-width="3" stroke-linecap="round" stroke-linejoin="round"/><path d="M728.637 352.238L723.088 337.298L809.91 387.154L815.459 402.094L728.637 352.238Z" fill="#003D2E" stroke="#003D2E" stroke-width="3" stroke-linecap="round" stroke-linejoin="round"/><path d="M755.958 429.754L682.112 406.277C667.428 425.144 653.769 444.779 641.561 464.756L759.202 478.586C766.97 465.012 775.764 451.865 785.154 439.145" fill="#003D2E"/><path d="M755.958 429.754L682.112 406.277C667.428 425.144 653.769 444.779 641.561 464.756L759.202 478.586C766.97 465.012 775.764 451.865 785.154 439.145" stroke="#003D2E" stroke-width="3" stroke-linecap="round" stroke-linejoin="round"/><path d="M784.812 438.718L779.605 424.717L755.786 417.119L745.457 449.219" fill="#003D2E"/><path d="M784.812 438.718L779.605 424.717L755.786 417.119L745.457 449.219" stroke="#003D2E" stroke-width="3" stroke-linecap="round" stroke-linejoin="round"/><path d="M676.647 391.252C661.963 410.119 648.304 429.754 636.096 449.731L753.737 463.561C761.506 449.987 770.299 436.84 779.689 424.12L676.647 391.337V391.252Z" fill="#03FC9E" stroke="#003D2E" stroke-width="3" stroke-linecap="round" stroke-linejoin="round"/><path d="M641.562 464.756L636.013 449.731L753.739 463.561L759.203 478.501L641.562 464.756Z" fill="#003D2E" stroke="#003D2E" stroke-width="3" stroke-linecap="round" stroke-linejoin="round"/><path d="M704.479 521.442L608.266 526.394C598.619 547.224 590.339 568.396 583.594 589.482L723.858 561.481C727.87 546.883 731.456 536.894 737.517 522.637C737.347 523.064 738.969 519.137 738.713 519.564" fill="#003D2E"/><path d="M704.479 521.442L608.266 526.394C598.619 547.224 590.339 568.396 583.594 589.482L723.858 561.481C727.871 546.883 731.456 536.894 737.517 522.637C737.347 523.064 738.969 519.137 738.713 519.564" stroke="#003D2E" stroke-width="3" stroke-linecap="round" stroke-linejoin="round"/><path d="M738.544 519.052L733.251 504.71L701.408 506.332L703.542 535.784" fill="#003D2E"/><path d="M738.544 519.052L733.251 504.71L701.408 506.332L703.542 535.784" stroke="#003D2E" stroke-width="3" stroke-linecap="round" stroke-linejoin="round"/><path d="M733.25 504.71L602.718 511.454C593.071 532.284 584.79 553.456 578.046 574.543L718.31 546.541C722.322 531.943 726.249 521.015 732.396 506.758C732.225 507.185 733.42 504.197 733.25 504.71Z" fill="#03FC9E" stroke="#003D2E" stroke-width="3" stroke-linecap="round" stroke-linejoin="round"/><path d="M583.678 589.568L578.129 574.543L718.308 546.541L723.857 561.481L583.678 589.568Z" fill="#003D2E" stroke="#003D2E" stroke-width="3" stroke-linecap="round" stroke-linejoin="round"/><path d="M693.551 611.508L568.141 654.449C564.726 675.792 563.19 696.964 563.446 717.368L714.552 644.205C713.698 631.314 714.296 617.825 715.918 603.825" fill="#003D2E"/><path d="M693.551 611.508L568.141 654.449C564.726 675.792 563.19 696.964 563.446 717.368L714.552 644.205C713.698 631.314 714.296 617.825 715.918 603.825" stroke="#003D2E" stroke-width="3" stroke-linecap="round" stroke-linejoin="round"/><path d="M715.576 603.056L710.368 588.885L691.843 595.202L689.453 628.155" fill="#003D2E"/><path d="M715.576 603.056L710.368 588.885L691.843 595.202L689.453 628.155" stroke="#003D2E" stroke-width="3" stroke-linecap="round" stroke-linejoin="round"/><path d="M562.593 639.51C559.179 660.852 557.642 682.024 557.898 702.428L709.004 629.265C708.15 616.374 708.748 602.886 710.37 588.885L562.593 639.51Z" fill="#03FC9E" stroke="#003D2E" stroke-width="3" stroke-linecap="round" stroke-linejoin="round"/><path d="M563.449 717.282L557.9 702.342L709.006 629.265L714.555 644.205L563.449 717.282Z" fill="#003D2E" stroke="#003D2E" stroke-width="3" stroke-linecap="round" stroke-linejoin="round"/><path d="M1148.24 508.124L1149.52 496.343L1166.42 497.197L1162.41 512.82" fill="#E6E8EA"/><path d="M1148.24 508.124L1149.52 496.343L1166.42 497.197L1162.41 512.82" stroke="#003D2E" stroke-width="3" stroke-linecap="round" stroke-linejoin="round"/><path d="M687.577 615.35L688.857 603.569L711.48 596.654V625.253" fill="#E6E8EA"/><path d="M687.577 615.35L688.857 603.569L711.48 596.654V625.253" stroke="#003D2E" stroke-width="3" stroke-linecap="round" stroke-linejoin="round"/><path d="M868.478 446.06L869.759 434.279L857.38 427.108L856.697 434.535L852.599 450.841L868.478 446.06Z" fill="#E6E8EA" stroke="#003D2E" stroke-width="3" stroke-linecap="round" stroke-linejoin="round"/><path d="M922.858 396.374L869.16 305.284C843.976 311.601 820.499 320.309 798.9 331.151L897.162 425.4C907.833 419.595 919.444 414.9 931.822 411.485" fill="#E6E8EA"/><path d="M922.858 396.374L869.16 305.284C843.976 311.601 820.499 320.309 798.9 331.151L897.162 425.4C907.833 419.595 919.444 414.9 931.822 411.485" stroke="#003D2E" stroke-width="3" stroke-linecap="round" stroke-linejoin="round"/><path d="M1113.15 452.036C1121.86 460.061 1129.2 468.939 1135.18 478.245L1268.95 437.352C1256.57 418.827 1241.63 401.753 1224.39 386.301L1126.81 443.926" fill="#E6E8EA"/><path d="M1113.15 452.036C1121.86 460.061 1129.2 468.939 1135.18 478.245L1268.95 437.352C1256.57 418.827 1241.63 401.753 1224.39 386.301L1126.81 443.926" stroke="#003D2E" stroke-width="3" stroke-linecap="round" stroke-linejoin="round"/><path d="M1048.44 414.814C1060.82 418.912 1072.68 424.205 1083.53 430.437L1166.33 344.64C1145.16 332.603 1122.11 322.529 1097.87 314.504L1056.46 398.338" fill="#E6E8EA"/><path d="M1048.44 414.814C1060.82 418.912 1072.68 424.205 1083.53 430.437L1166.33 344.64C1145.16 332.603 1122.11 322.529 1097.87 314.504L1056.46 398.338" stroke="#003D2E" stroke-width="3" stroke-linecap="round" stroke-linejoin="round"/><path d="M739.229 370.507C721.557 385.874 706.788 403.289 694.921 422.071L847.905 472.269C853.198 462.793 860.113 453.999 868.48 446.06" fill="#E6E8EA"/><path d="M739.229 370.507C721.557 385.874 706.788 403.289 694.921 422.071L847.905 472.269C853.198 462.793 860.113 453.999 868.48 446.06" stroke="#003D2E" stroke-width="3" stroke-linecap="round" stroke-linejoin="round"/><path d="M970.494 404.997C983.641 404.143 996.959 404.485 1010.02 406.107L1022.83 297.174C997.728 293.759 971.946 292.393 945.652 293.674C945.566 293.674 945.395 293.674 945.31 293.674L970.153 404.997H970.494Z" fill="#E6E8EA" stroke="#003D2E" stroke-width="3" stroke-linecap="round" stroke-linejoin="round"/><path d="M837.147 502.234L669.65 482.769C664.869 503.771 663.332 525.711 666.235 548.419L837.317 534.077C835.439 523.32 835.354 512.564 837.147 502.234Z" fill="#E6E8EA" stroke="#003D2E" stroke-width="3" stroke-linecap="round" stroke-linejoin="round"/><path d="M1193.99 710.709L1099.15 619.704C1088.73 626.363 1077.04 631.912 1064.49 636.095L1138.08 760.821C1164.2 751.174 1187.85 738.966 1208.51 724.539" fill="#E6E8EA"/><path d="M1193.99 710.709L1099.15 619.704C1088.73 626.363 1077.04 631.912 1064.49 636.095L1138.08 760.821C1164.2 751.174 1187.85 738.966 1208.51 724.539" stroke="#003D2E" stroke-width="3" stroke-linecap="round" stroke-linejoin="round"/><path d="M687.577 615.35C698.76 637.375 713.615 658.035 731.884 676.817L870.696 594.861C861.733 585.982 854.391 576.25 848.756 566.091L710.029 608.52" fill="#E6E8EA"/><path d="M687.577 615.35C698.76 637.375 713.615 658.035 731.884 676.817L870.696 594.861C861.733 585.982 854.391 576.25 848.756 566.091L710.029 608.52" stroke="#003D2E" stroke-width="3" stroke-linecap="round" stroke-linejoin="round"/><path d="M796.424 727.954C820.926 742.723 847.988 754.675 876.673 763.98L939.932 635.839C926.444 631.485 913.638 625.68 901.942 618.765L808.974 715.063" fill="#E6E8EA"/><path d="M796.424 727.954C820.926 742.723 847.988 754.675 876.673 763.98L939.932 635.839C926.444 631.485 913.638 625.68 901.942 618.765L808.974 715.063" stroke="#003D2E" stroke-width="3" stroke-linecap="round" stroke-linejoin="round"/><path d="M1278.77 613.301L1143.97 569.079C1139.7 578.897 1133.72 588.202 1126.21 596.739L1261.52 675.792C1275.78 658.035 1286.62 638.571 1294.13 618.338" fill="#E6E8EA"/><path d="M1278.77 613.301L1143.97 569.079C1139.7 578.897 1133.72 588.202 1126.21 596.739L1261.52 675.792C1275.78 658.035 1286.62 638.571 1294.13 618.338" stroke="#003D2E" stroke-width="3" stroke-linecap="round" stroke-linejoin="round"/><path d="M1050.91 763.212L1024.45 644.632H1024.02C1009.94 646.083 995.679 646.083 981.593 644.632L965.373 782.079C994.655 784.81 1024.53 784.81 1054.41 781.139C1054.58 781.139 1054.67 781.139 1054.84 781.139" fill="#E6E8EA"/><path d="M1050.91 763.212L1024.45 644.632H1024.02C1009.94 646.083 995.679 646.083 981.593 644.632L965.373 782.079C994.655 784.81 1024.53 784.81 1054.41 781.139C1054.58 781.139 1054.67 781.139 1054.84 781.139" stroke="#003D2E" stroke-width="3" stroke-linecap="round" stroke-linejoin="round"/><path d="M1148.24 508.124C1150.97 518.369 1151.99 528.699 1151.31 538.943L1305.74 556.871C1306.09 536.809 1303.61 516.32 1297.21 495.66L1162.83 506.929" fill="#E6E8EA"/><path d="M1148.24 508.124C1150.97 518.369 1151.99 528.699 1151.31 538.943L1305.74 556.871C1306.09 536.809 1303.61 516.32 1297.21 495.66L1162.83 506.929" stroke="#003D2E" stroke-width="3" stroke-linecap="round" stroke-linejoin="round"/><path d="M733.078 665.035L731.883 676.817L870.696 594.861L871.976 583.08L733.078 665.035Z" fill="#E6E8EA" stroke="#003D2E" stroke-width="3" stroke-linecap="round" stroke-linejoin="round"/><path d="M798.9 331.066L800.096 319.37L898.357 413.619L897.162 425.4L798.9 331.066Z" fill="#E6E8EA" stroke="#003D2E" stroke-width="3" stroke-linecap="round" stroke-linejoin="round"/><path d="M931.739 411.485L933.019 399.704L925.421 386.813L913.213 393.728" fill="#E6E8EA"/><path d="M931.739 411.485L933.019 399.704L925.421 386.813L913.213 393.728" stroke="#003D2E" stroke-width="3" stroke-linecap="round" stroke-linejoin="round"/><path d="M796.512 727.271L797.622 716.258L807.183 706.355L816.232 722.661" fill="#E6E8EA"/><path d="M796.512 727.271L797.622 716.258L807.183 706.355L816.232 722.661" stroke="#003D2E" stroke-width="3" stroke-linecap="round" stroke-linejoin="round"/><path d="M1054.93 781.054L1056.12 769.273L1053.3 756.638L1041.35 769.7" fill="#E6E8EA"/><path d="M1054.93 781.054L1056.12 769.273L1053.3 756.638L1041.35 769.7" stroke="#003D2E" stroke-width="3" stroke-linecap="round" stroke-linejoin="round"/><path d="M1208.51 723.77L1209.71 712.843L1197.84 701.489L1181.36 716.855" fill="#E6E8EA"/><path d="M1208.51 723.77L1209.71 712.843L1197.84 701.489L1181.36 716.855" stroke="#003D2E" stroke-width="3" stroke-linecap="round" stroke-linejoin="round"/><path d="M1294.22 617.655L1295.42 606.642L1280.48 601.776L1274.07 621.497" fill="#E6E8EA"/><path d="M1294.22 617.655L1295.42 606.642L1280.48 601.776L1274.07 621.497" stroke="#003D2E" stroke-width="3" stroke-linecap="round" stroke-linejoin="round"/><path d="M1113.24 451.609L1114.43 440.34L1136.88 445.377" fill="#E6E8EA"/><path d="M1113.24 451.609L1114.43 440.34L1136.88 445.377" stroke="#003D2E" stroke-width="3" stroke-linecap="round" stroke-linejoin="round"/><path d="M1048.44 414.814L1049.72 403.033L1056.04 390.228L1065.77 400.899" fill="#E6E8EA"/><path d="M1048.44 414.814L1049.72 403.033L1056.04 390.228L1065.77 400.899" stroke="#003D2E" stroke-width="3" stroke-linecap="round" stroke-linejoin="round"/><path d="M933.019 399.704L870.357 293.503C845.173 299.82 821.696 308.528 800.097 319.37L898.359 413.619C909.03 407.814 920.64 403.119 933.019 399.704Z" fill="#03FC9E" stroke="#003D2E" stroke-width="3" stroke-linecap="round" stroke-linejoin="round"/><path d="M1136.37 466.549L1270.15 425.656C1257.77 407.131 1242.83 390.057 1225.58 374.605L1114.35 440.255C1123.05 448.28 1130.4 457.158 1136.37 466.464V466.549Z" fill="#03FC9E" stroke="#003D2E" stroke-width="3" stroke-linecap="round" stroke-linejoin="round"/><path d="M1084.89 418.656L1167.7 332.859C1146.53 320.821 1123.48 310.748 1099.23 302.723L1049.72 403.033C1062.1 407.131 1073.96 412.424 1084.81 418.656H1084.89Z" fill="#03FC9E" stroke="#003D2E" stroke-width="3" stroke-linecap="round" stroke-linejoin="round"/><path d="M869.756 434.279L740.505 358.726C722.833 374.093 708.064 391.508 696.198 410.29L849.182 460.488C854.475 451.011 861.39 442.218 869.756 434.279Z" fill="#03FC9E" stroke="#003D2E" stroke-width="3" stroke-linecap="round" stroke-linejoin="round"/><path d="M971.774 393.301C984.921 392.447 998.239 392.789 1011.3 394.411L1024.11 285.478C999.007 282.063 973.225 280.697 946.931 281.978C946.846 281.978 946.675 281.978 946.59 281.978L971.433 393.301H971.774Z" fill="#03FC9E" stroke="#003D2E" stroke-width="3" stroke-linecap="round" stroke-linejoin="round"/><path d="M838.427 490.538L670.93 471.074C666.149 492.075 664.612 514.015 667.515 536.724L838.598 522.381C836.719 511.625 836.634 500.868 838.427 490.538Z" fill="#03FC9E" stroke="#003D2E" stroke-width="3" stroke-linecap="round" stroke-linejoin="round"/><path d="M1065.68 624.314L1139.27 749.04C1165.4 739.393 1189.04 727.185 1209.7 712.758L1100.43 607.923C1090.01 614.581 1078.32 620.131 1065.77 624.314H1065.68Z" fill="#03FC9E" stroke="#003D2E" stroke-width="3" stroke-linecap="round" stroke-linejoin="round"/><path d="M850.036 554.31L688.856 603.569C700.04 625.594 714.894 646.254 733.164 665.035L871.976 583.08C863.012 574.201 855.671 564.469 850.036 554.31Z" fill="#03FC9E" stroke="#003D2E" stroke-width="3" stroke-linecap="round" stroke-linejoin="round"/><path d="M903.139 606.984L797.621 716.258C822.122 731.027 849.184 742.979 877.869 752.284L941.128 624.143C927.64 619.789 914.834 613.984 903.139 607.069V606.984Z" fill="#03FC9E" stroke="#003D2E" stroke-width="3" stroke-linecap="round" stroke-linejoin="round"/><path d="M1127.49 584.958L1262.8 664.011C1277.06 646.254 1287.9 626.789 1295.41 606.557L1145.25 557.298C1140.98 567.115 1135 576.421 1127.49 584.958Z" fill="#03FC9E" stroke="#003D2E" stroke-width="3" stroke-linecap="round" stroke-linejoin="round"/><path d="M1025.3 632.936C1011.22 634.387 996.959 634.387 982.873 632.936L966.653 770.383C995.935 773.115 1025.81 773.115 1055.69 769.444C1055.87 769.444 1055.95 769.444 1056.12 769.444L1025.64 633.021H1025.22L1025.3 632.936Z" fill="#03FC9E" stroke="#003D2E" stroke-width="3" stroke-linecap="round" stroke-linejoin="round"/><path d="M1149.52 496.343C1152.25 506.588 1153.27 516.918 1152.59 527.162L1307.02 545.09C1307.37 525.028 1304.89 504.539 1298.49 483.879L1149.52 496.343Z" fill="#03FC9E" stroke="#003D2E" stroke-width="3" stroke-linecap="round" stroke-linejoin="round"/><path d="M696.202 410.29L694.921 422.071L847.905 472.269L849.101 460.488L696.202 410.29Z" fill="#E6E8EA" stroke="#003D2E" stroke-width="3" stroke-linecap="round" stroke-linejoin="round"/><path d="M667.517 536.724L666.322 548.419L837.405 534.162L838.6 522.381L667.517 536.724Z" fill="#E6E8EA" stroke="#003D2E" stroke-width="3" stroke-linecap="round" stroke-linejoin="round"/><path d="M876.588 763.98L877.869 752.199L941.128 624.058L939.848 635.839L876.588 763.98Z" fill="#E6E8EA" stroke="#003D2E" stroke-width="3" stroke-linecap="round" stroke-linejoin="round"/><path d="M1137.99 760.821L1139.27 749.04L1065.68 624.314L1064.49 636.095L1137.99 760.821Z" fill="#E6E8EA" stroke="#003D2E" stroke-width="3" stroke-linecap="round" stroke-linejoin="round"/><path d="M1261.52 675.792L1262.8 664.096L1127.49 584.958L1126.21 596.739L1261.52 675.792Z" fill="#E6E8EA" stroke="#003D2E" stroke-width="3" stroke-linecap="round" stroke-linejoin="round"/><path d="M1151.4 538.943L1152.59 527.162L1307.03 545.09L1305.83 556.786L1151.4 538.943Z" fill="#E6E8EA" stroke="#003D2E" stroke-width="3" stroke-linecap="round" stroke-linejoin="round"/><path d="M1135.18 478.33L1136.37 466.549L1270.15 425.656L1268.95 437.438L1135.18 478.33Z" fill="#E6E8EA" stroke="#003D2E" stroke-width="3" stroke-linecap="round" stroke-linejoin="round"/><path d="M1083.95 430.437L1084.89 418.656L1167.7 332.859L1166.42 344.64L1083.95 430.437Z" fill="#E6E8EA" stroke="#003D2E" stroke-width="3" stroke-linecap="round" stroke-linejoin="round"/><path d="M970.153 404.997L971.348 393.301L946.591 281.978L945.31 293.759L970.153 404.997Z" fill="#E6E8EA" stroke="#003D2E" stroke-width="3" stroke-linecap="round" stroke-linejoin="round"/><path d="M1218.15 146.922V147.006V146.922Z" fill="#03FC9E" stroke="#003D2E" stroke-width="3" stroke-linecap="round" stroke-linejoin="round"/><path d="M1130.82 853.704C1153.27 837.74 1175.13 820.154 1195.7 801.543L1125.36 696.537C1111.87 708.148 1097.87 718.99 1083.18 728.978L1130.82 853.619V853.704Z" fill="#003D2E" stroke="#003D2E" stroke-width="3" stroke-linecap="round" stroke-linejoin="round"/><path d="M1195.79 801.543L1190.24 786.603L1179.4 770.383L1159.67 803.25" fill="#003D2E"/><path d="M1195.79 801.543L1190.24 786.603L1179.4 770.383L1159.67 803.25" stroke="#003D2E" stroke-width="3" stroke-linecap="round" stroke-linejoin="round"/><path d="M1125.35 838.679C1147.81 822.715 1169.66 805.129 1190.24 786.518L1119.89 681.512C1106.4 693.122 1092.4 703.964 1077.72 713.953L1125.35 838.594V838.679Z" fill="#03FC9E" stroke="#003D2E" stroke-width="3" stroke-linecap="round" stroke-linejoin="round"/><path d="M570.276 776.956C574.544 796.079 580.776 814.434 588.887 831.337L734.529 715.831C728.809 705.33 722.577 695 719.247 682.878L570.361 776.956H570.276Z" fill="#003D2E" stroke="#003D2E" stroke-width="3" stroke-linecap="round" stroke-linejoin="round"/><path d="M564.728 762.016C568.996 781.139 575.228 799.494 583.338 816.397L728.98 700.891C723.261 690.39 718.651 679.036 715.321 666.914L564.813 762.016H564.728Z" fill="#03FC9E" stroke="#003D2E" stroke-width="3" stroke-linecap="round" stroke-linejoin="round"/><path d="M734.446 715.831L728.982 700.891L583.34 816.397L588.889 831.337L734.446 715.831Z" fill="#003D2E" stroke="#003D2E" stroke-width="3" stroke-linecap="round" stroke-linejoin="round"/><path d="M619.193 878.547C631.23 892.889 645.231 905.78 660.768 916.793L782.934 768.59C782.934 768.59 778.409 766.029 778.58 766.114C768.079 759.285 763.298 754.333 755.103 745.369L619.193 878.547Z" fill="#003D2E" stroke="#003D2E" stroke-width="3" stroke-linecap="round" stroke-linejoin="round"/><path d="M619.194 878.547L613.645 863.607L626.707 850.802L639.683 879.572" fill="#003D2E"/><path d="M619.194 878.547L613.645 863.607L626.707 850.802L639.683 879.572" stroke="#003D2E" stroke-width="3" stroke-linecap="round" stroke-linejoin="round"/><path d="M613.645 863.607C625.682 877.95 639.683 890.841 655.221 901.853L777.386 753.65C777.386 753.65 773.971 751.857 774.142 752.028C763.641 745.198 757.836 739.479 749.555 730.429L613.645 863.607Z" fill="#03FC9E" stroke="#003D2E" stroke-width="3" stroke-linecap="round" stroke-linejoin="round"/><path d="M660.77 916.793L655.221 901.853L777.386 753.65L782.936 768.59L660.77 916.793Z" fill="#003D2E" stroke="#003D2E" stroke-width="3" stroke-linecap="round" stroke-linejoin="round"/><path d="M712.676 944.453C731.628 951.795 752.032 957.088 773.46 960.161L855.501 794.884C841.671 793.006 828.78 789.676 816.657 785.323L712.676 944.453Z" fill="#003D2E" stroke="#003D2E" stroke-width="3" stroke-linecap="round" stroke-linejoin="round"/><path d="M712.677 944.453L707.128 929.428L719.08 911.244L741.276 929.513" fill="#003D2E"/><path d="M712.677 944.453L707.128 929.428L719.08 911.244L741.276 929.513" stroke="#003D2E" stroke-width="3" stroke-linecap="round" stroke-linejoin="round"/><path d="M707.128 929.428C726.08 936.77 746.484 942.063 767.912 945.136L849.953 779.859C836.123 777.981 823.232 774.651 811.109 770.297L707.128 929.428Z" fill="#03FC9E" stroke="#003D2E" stroke-width="3" stroke-linecap="round" stroke-linejoin="round"/><path d="M707.128 929.513V929.428V929.513Z" fill="#03FC9E" stroke="#003D2E" stroke-width="3" stroke-linecap="round" stroke-linejoin="round"/><path d="M773.544 960.161L767.995 945.222L849.951 779.944L855.5 794.884L773.544 960.161Z" fill="#003D2E" stroke="#003D2E" stroke-width="3" stroke-linecap="round" stroke-linejoin="round"/><path d="M897.588 796.335C897.588 796.335 898.271 796.335 898.613 796.335L841.244 963.149C864.208 962.04 888.197 958.796 912.443 953.503H912.784L944.201 790.616C944.115 790.616 943.944 790.616 943.859 790.701C927.809 794.116 912.443 795.652 897.588 796.335Z" fill="#003D2E" stroke="#003D2E" stroke-width="3" stroke-linecap="round" stroke-linejoin="round"/><path d="M841.241 963.149L835.691 948.21L844.058 923.794L863.181 941.892" fill="#003D2E"/><path d="M841.241 963.149L835.691 948.21L844.058 923.794L863.181 941.892" stroke="#003D2E" stroke-width="3" stroke-linecap="round" stroke-linejoin="round"/><path d="M894.002 781.31C894.002 781.31 892.636 781.31 892.977 781.31L835.608 948.124C858.573 947.014 882.562 943.77 906.807 938.477H907.149L938.565 775.59C938.48 775.59 938.309 775.59 938.224 775.676C922.174 779.09 908.856 780.627 894.002 781.31Z" fill="#03FC9E" stroke="#003D2E" stroke-width="3" stroke-linecap="round" stroke-linejoin="round"/><path d="M912.785 953.417L907.577 936.77L938.311 775.676L944.201 790.616L912.785 953.417Z" fill="#003D2E" stroke="#003D2E" stroke-width="3" stroke-linecap="round" stroke-linejoin="round"/><path d="M987.053 931.221C1011.73 921.915 1036.4 910.561 1060.47 897.585L1038.1 756.126C1022.82 764.065 1007.2 770.81 991.407 776.615L987.053 931.221Z" fill="#003D2E" stroke="#003D2E" stroke-width="3" stroke-linecap="round" stroke-linejoin="round"/><path d="M987.054 931.221L981.505 916.196L982.188 892.89L1006.43 901.853" fill="#003D2E"/><path d="M987.054 931.221L981.505 916.196L982.188 892.89L1006.43 901.853" stroke="#003D2E" stroke-width="3" stroke-linecap="round" stroke-linejoin="round"/><path d="M981.505 916.196C1006.18 906.89 1030.85 895.536 1054.92 882.56L1032.56 741.101C1017.28 749.04 1001.65 755.784 985.859 761.59L981.505 916.196Z" fill="#03FC9E" stroke="#003D2E" stroke-width="3" stroke-linecap="round" stroke-linejoin="round"/><path d="M1060.47 897.5L1055.01 882.56L1032.56 741.101L1038.11 756.126L1060.47 897.5Z" fill="#003D2E" stroke="#003D2E" stroke-width="3" stroke-linecap="round" stroke-linejoin="round"/><path d="M1253.5 743.149C1271.25 723.002 1287.82 702.001 1302.67 680.573L1196.73 619.874C1196.73 619.874 1196.81 619.704 1196.9 619.618C1186.65 633.448 1175.72 647.022 1163.77 659.913L1253.5 743.149Z" fill="#003D2E" stroke="#003D2E" stroke-width="3" stroke-linecap="round" stroke-linejoin="round"/><path d="M1302.67 680.573L1297.12 665.633L1280.48 656.071L1266.65 690.561" fill="#003D2E"/><path d="M1302.67 680.573L1297.12 665.633L1280.48 656.071L1266.65 690.561" stroke="#003D2E" stroke-width="3" stroke-linecap="round" stroke-linejoin="round"/><path d="M1247.95 728.21C1265.71 708.062 1282.27 687.061 1297.12 665.633L1191.18 604.935C1191.18 604.935 1191.26 604.764 1191.35 604.678C1181.1 618.508 1170.18 632.082 1158.22 644.973L1247.95 728.21Z" fill="#03FC9E" stroke="#003D2E" stroke-width="3" stroke-linecap="round" stroke-linejoin="round"/><path d="M1253.5 743.149L1247.95 728.21L1158.22 644.973L1163.77 659.913L1253.5 743.149Z" fill="#003D2E" stroke="#003D2E" stroke-width="3" stroke-linecap="round" stroke-linejoin="round"/><path d="M1342.28 615.777C1353.72 594.178 1363.62 572.238 1371.82 550.554L1245.13 535.699C1239.15 550.041 1232.07 564.213 1224.04 578.128L1342.28 615.777Z" fill="#003D2E" stroke="#003D2E" stroke-width="3" stroke-linecap="round" stroke-linejoin="round"/><path d="M1371.82 550.468L1366.27 535.528L1342.28 532.711L1344.76 568.054" fill="#003D2E"/><path d="M1371.82 550.468L1366.27 535.528L1342.28 532.711L1344.76 568.054" stroke="#003D2E" stroke-width="3" stroke-linecap="round" stroke-linejoin="round"/><path d="M1336.82 600.751C1348.26 579.153 1358.16 557.212 1366.36 535.528L1239.67 520.674C1233.69 535.016 1226.6 549.188 1218.58 563.103L1336.82 600.751Z" fill="#03FC9E" stroke="#003D2E" stroke-width="3" stroke-linecap="round" stroke-linejoin="round"/><path d="M1224.05 578.043L1218.5 563.103L1336.82 600.751L1342.28 615.777L1224.05 578.043Z" fill="#003D2E" stroke="#003D2E" stroke-width="3" stroke-linecap="round" stroke-linejoin="round"/><path d="M1259.3 493.611L1390.94 486.782C1395.47 466.378 1398.37 446.145 1399.74 426.51L1267.24 452.975C1265.7 466.89 1263.57 477.732 1259.81 491.648C1259.9 491.221 1259.3 493.953 1259.39 493.526L1259.3 493.611Z" fill="#003D2E" stroke="#003D2E" stroke-width="3" stroke-linecap="round" stroke-linejoin="round"/><path d="M1399.65 426.51L1394.1 411.57L1381.64 414.046L1377.37 447.853" fill="#003D2E"/><path d="M1399.65 426.51L1394.1 411.57L1381.64 414.046L1377.37 447.853" stroke="#003D2E" stroke-width="3" stroke-linecap="round" stroke-linejoin="round"/><path d="M1253.75 478.586L1385.39 471.757C1389.92 451.353 1392.82 431.12 1394.19 411.485L1261.69 437.95C1260.16 451.865 1257.94 462.878 1254.18 476.879C1254.27 476.452 1253.67 478.928 1253.84 478.586H1253.75Z" fill="#03FC9E" stroke="#003D2E" stroke-width="3" stroke-linecap="round" stroke-linejoin="round"/><path d="M1259.3 493.611L1253.75 478.586L1385.39 471.842L1390.86 486.782L1259.3 493.611Z" fill="#003D2E" stroke="#003D2E" stroke-width="3" stroke-linecap="round" stroke-linejoin="round"/><path d="M1398.71 369.312C1396.83 351.384 1393.33 334.139 1388.38 317.919L1262.63 378.788C1265.45 389.886 1267.16 401.667 1267.92 414.046L1398.8 369.227L1398.71 369.312Z" fill="#003D2E" stroke="#003D2E" stroke-width="3" stroke-linecap="round" stroke-linejoin="round"/><path d="M1388.38 317.919L1382.83 302.979L1377.37 332.517" fill="#003D2E"/><path d="M1388.38 317.919L1382.83 302.979L1377.37 332.517" stroke="#003D2E" stroke-width="3" stroke-linecap="round" stroke-linejoin="round"/><path d="M1393.16 354.287C1391.29 336.359 1387.79 319.114 1382.83 302.894L1257.08 363.763C1259.9 374.861 1261.61 386.642 1262.38 399.021L1393.25 354.201L1393.16 354.287Z" fill="#03FC9E" stroke="#003D2E" stroke-width="3" stroke-linecap="round" stroke-linejoin="round"/><path d="M1267.84 414.046L1262.29 399.106L1393.16 354.287L1398.71 369.312L1267.84 414.046Z" fill="#003D2E" stroke="#003D2E" stroke-width="3" stroke-linecap="round" stroke-linejoin="round"/><path d="M1369.35 272.672C1361.75 258.842 1352.7 245.866 1342.54 234.085L1233.69 320.395C1240.35 328.675 1246.07 337.639 1250.94 347.457L1369.35 272.672Z" fill="#003D2E" stroke="#003D2E" stroke-width="3" stroke-linecap="round" stroke-linejoin="round"/><path d="M1233.78 320.395L1228.23 305.455L1246.67 290.771L1253.76 314.504" fill="#003D2E"/><path d="M1233.78 320.395L1228.23 305.455L1246.67 290.771L1253.76 314.504" stroke="#003D2E" stroke-width="3" stroke-linecap="round" stroke-linejoin="round"/><path d="M1363.88 257.647C1356.29 243.817 1347.24 230.841 1337.08 219.06L1228.23 305.369C1234.89 313.65 1240.61 322.614 1245.47 332.432L1363.88 257.647Z" fill="#03FC9E" stroke="#003D2E" stroke-width="3" stroke-linecap="round" stroke-linejoin="round"/><path d="M1251.02 347.457L1245.48 332.517L1363.88 257.647L1369.35 272.672L1251.02 347.457Z" fill="#003D2E" stroke="#003D2E" stroke-width="3" stroke-linecap="round" stroke-linejoin="round"/><path d="M1081.99 261.83C1081.99 261.83 1083.44 261.745 1083.18 261.745L1120.83 152.215C1102.9 153.154 1084.38 155.459 1065.68 158.959H1065.43L1044.77 266.27C1044.85 266.27 1044.94 266.27 1045.02 266.27C1058.51 263.708 1069.44 262.513 1082.07 261.916L1081.99 261.83Z" fill="#003D2E" stroke="#003D2E" stroke-width="3" stroke-linecap="round" stroke-linejoin="round"/><path d="M1044 266.27L1039.13 251.244L1043.65 227.682L1060.73 241.085" fill="#003D2E"/><path d="M1044 266.27L1039.13 251.244L1043.65 227.682L1060.73 241.085" stroke="#003D2E" stroke-width="3" stroke-linecap="round" stroke-linejoin="round"/><path d="M1078.4 246.72C1078.4 246.72 1077.89 246.72 1077.55 246.72L1115.2 137.189C1097.27 138.128 1078.74 140.433 1060.05 143.934H1059.79L1039.13 251.244C1039.22 251.244 1039.3 251.244 1039.39 251.244C1052.87 248.683 1065.85 247.403 1078.4 246.72Z" fill="#03FC9E" stroke="#003D2E" stroke-width="3" stroke-linecap="round" stroke-linejoin="round"/><path d="M1083.18 261.66L1077.63 246.72L1115.28 137.275L1120.74 152.215L1083.18 261.66Z" fill="#003D2E" stroke="#003D2E" stroke-width="3" stroke-linecap="round" stroke-linejoin="round"/><path d="M1308.82 202.583C1296.61 193.363 1283.12 185.253 1268.95 178.423L1184.61 280.697C1184.61 280.697 1185.97 281.466 1185.89 281.38C1195.7 286.332 1203.3 291.112 1211.58 297.771L1308.73 202.498L1308.82 202.583Z" fill="#003D2E" stroke="#003D2E" stroke-width="3" stroke-linecap="round" stroke-linejoin="round"/><path d="M1184.6 280.697L1178.8 265.672L1188.87 253.891L1204.33 273.611" fill="#003D2E"/><path d="M1184.6 280.697L1178.8 265.672L1188.87 253.891L1204.33 273.611" stroke="#003D2E" stroke-width="3" stroke-linecap="round" stroke-linejoin="round"/><path d="M1303.27 187.643C1291.06 178.423 1277.57 170.313 1263.4 163.483L1179.06 265.757C1179.06 265.757 1178.88 265.757 1178.8 265.672C1188.62 270.624 1197.84 276.258 1206.12 282.832L1303.27 187.558V187.643Z" fill="#03FC9E" stroke="#003D2E" stroke-width="3" stroke-linecap="round" stroke-linejoin="round"/><path d="M1308.82 202.583L1303.27 187.643L1206.12 282.832L1211.58 297.857L1308.82 202.583Z" fill="#003D2E" stroke="#003D2E" stroke-width="3" stroke-linecap="round" stroke-linejoin="round"/><path d="M1223.7 161.947C1207.91 157.764 1191.18 154.776 1174.02 153.154L1119.81 262.342C1131.76 263.538 1143.03 265.757 1153.79 268.831L1223.7 161.947Z" fill="#003D2E" stroke="#003D2E" stroke-width="3" stroke-linecap="round" stroke-linejoin="round"/><path d="M1119.81 262.343L1114.34 247.403L1123.56 228.707L1140.12 245.525" fill="#003D2E"/><path d="M1119.81 262.343L1114.34 247.403L1123.56 228.707L1140.12 245.525" stroke="#003D2E" stroke-width="3" stroke-linecap="round" stroke-linejoin="round"/><path d="M1218.16 147.007C1202.36 142.824 1185.63 139.836 1168.47 138.214L1114.26 247.403C1126.21 248.598 1137.48 250.817 1148.24 253.891L1218.16 147.007Z" fill="#03FC9E" stroke="#003D2E" stroke-width="3" stroke-linecap="round" stroke-linejoin="round"/><path d="M1153.79 268.831L1148.32 253.891L1218.16 147.007L1223.71 161.947L1153.79 268.831Z" fill="#003D2E" stroke="#003D2E" stroke-width="3" stroke-linecap="round" stroke-linejoin="round"/><path d="M1750.13 368.315C1739.89 364.303 1727.34 350.9 1722.56 342.362C1724.01 344.667 1725.63 346.802 1727.51 348.851C1731.69 353.29 1736.99 356.961 1743.39 359.607C1743.65 359.693 1743.82 359.778 1744.07 359.863C1774.04 371.645 1815.87 356.193 1837.38 325.203C1837.72 324.776 1837.98 324.264 1838.32 323.837C1838.49 323.581 1838.75 323.239 1838.92 322.898C1838.92 322.898 1838.92 322.898 1838.92 322.727C1851.55 303.177 1853.09 282.518 1844.72 267.151C1843.79 265.358 1842.68 263.651 1841.4 262.029C1856.42 278.078 1860.18 309.58 1843.44 333.569C1821.85 364.559 1780.1 380.096 1750.13 368.23V368.315Z" fill="#003B2F"/><path d="M1744.07 359.949C1744.07 359.949 1743.65 359.778 1743.39 359.693C1736.99 357.046 1731.7 353.375 1727.51 348.936C1725.63 346.887 1723.93 344.753 1722.56 342.448C1722.56 342.362 1722.39 342.192 1722.3 342.106C1712.66 325.971 1714.19 303.433 1728.79 282.518C1750.39 251.528 1792.14 235.991 1822.1 247.857C1830.3 251.101 1836.79 256.053 1841.4 262.114C1842.68 263.736 1843.79 265.444 1844.73 267.236C1853.09 282.603 1851.56 303.348 1838.92 322.813C1838.92 322.813 1838.92 322.898 1838.92 322.983C1838.75 323.239 1838.49 323.581 1838.32 323.922C1837.98 324.349 1837.73 324.861 1837.38 325.288C1815.79 356.278 1774.04 371.815 1744.07 359.949Z" fill="#03FC9D"/><path d="M1749.54 368.486C1739.29 364.473 1726.74 351.07 1721.96 342.533C1723.41 344.838 1725.04 346.973 1726.91 349.021C1731.1 353.461 1736.39 357.132 1742.79 359.778C1743.05 359.863 1743.22 359.949 1743.48 360.034C1773.44 371.815 1815.27 356.363 1836.79 325.374C1837.13 324.947 1837.38 324.435 1837.73 324.008C1837.9 323.752 1838.15 323.41 1838.32 323.069C1838.32 323.069 1838.32 323.069 1838.32 322.898C1850.96 303.348 1852.49 282.688 1844.13 267.322C1843.19 265.529 1842.08 263.822 1840.8 262.2C1855.82 278.249 1859.58 309.751 1842.85 333.74C1821.25 364.73 1779.5 380.267 1749.54 368.401V368.486Z" stroke="#003B2F" stroke-width="3" stroke-linecap="round" stroke-linejoin="round"/><path d="M1743.48 360.034C1743.48 360.034 1743.05 359.863 1742.8 359.778C1736.39 357.132 1731.1 353.461 1726.92 349.021C1725.04 346.973 1723.33 344.838 1721.96 342.533C1721.96 342.448 1721.79 342.277 1721.71 342.192C1712.06 326.057 1713.6 303.519 1728.2 282.603C1749.8 251.614 1791.54 236.076 1821.51 247.943C1829.7 251.187 1836.19 256.138 1840.8 262.2C1842.08 263.822 1843.19 265.529 1844.13 267.322C1852.5 282.689 1850.96 303.434 1838.32 322.898C1838.32 322.898 1838.32 322.983 1838.32 323.069C1838.15 323.325 1837.9 323.666 1837.73 324.008C1837.39 324.435 1837.13 324.947 1836.79 325.374C1815.19 356.363 1773.44 371.901 1743.48 360.034Z" stroke="#003B2F" stroke-width="3" stroke-linecap="round" stroke-linejoin="round"/><path d="M1779.33 271.846L1777.8 256.309C1775.15 257.077 1772.5 258.102 1769.94 259.297L1774.21 273.895C1775.92 273.127 1777.63 272.444 1779.42 271.932L1779.33 271.846Z" fill="#003B2F"/><path d="M1798.03 271.249L1790.09 286.872C1791.37 287.213 1792.56 287.725 1793.59 288.408L1805.2 274.407C1806.05 274.92 1806.91 275.517 1807.68 276.2L1820.74 262.882C1819.03 261.431 1817.07 260.065 1815.02 258.955L1804.09 273.383C1802.72 272.615 1801.27 272.017 1799.74 271.505L1808.44 256.138C1806.14 255.37 1803.75 254.772 1801.27 254.431L1794.87 270.651C1795.98 270.822 1797 271.078 1798.03 271.334V271.249Z" fill="#003B2F"/><path d="M1812.03 310.092L1797 306.08C1796.32 307.446 1795.47 308.641 1794.53 309.836L1806.99 317.776C1806.22 318.715 1805.37 319.654 1804.52 320.593L1815.87 330.155C1817.83 328.106 1819.71 325.886 1821.42 323.666L1808.36 316.41C1809.47 314.873 1810.49 313.337 1811.43 311.714L1826.03 316.581C1827.4 314.19 1828.59 311.714 1829.53 309.239L1813.48 306.848C1813.05 307.958 1812.54 308.983 1812.03 310.092Z" fill="#003B2F"/><path d="M1833.03 286.786C1832.78 284.396 1832.35 282.005 1831.67 279.786L1814.93 287.384C1815.36 288.835 1815.62 290.372 1815.79 291.994L1833.03 286.786Z" fill="#003B2F"/><path d="M1816.21 293.53L1798.88 297.884C1798.88 299.165 1798.88 300.531 1798.45 301.982L1831.92 301.726C1832.52 299.25 1832.86 296.689 1833.12 294.213L1816.13 296.86C1816.13 295.75 1816.21 294.64 1816.13 293.616L1816.21 293.53Z" fill="#003B2F"/><path d="M1781.12 271.163L1781.72 286.957C1783.17 286.615 1784.62 286.445 1785.99 286.359L1793.59 253.833C1791.03 253.833 1788.38 254.089 1785.73 254.516L1784.54 270.48C1783.34 270.651 1782.15 270.907 1781.04 271.163H1781.12Z" fill="#003B2F"/><path d="M1813.48 283.03L1829.1 273.383C1828.08 271.419 1826.8 269.456 1825.43 267.749L1796.32 290.884C1797.09 291.908 1797.69 292.933 1798.11 294.128L1814.68 285.762C1814.33 284.823 1813.91 283.884 1813.48 282.945V283.03Z" fill="#003B2F"/><path d="M1777.54 288.579L1772.42 274.408C1771.31 275.005 1770.2 275.603 1769.09 276.286L1762.34 263.309C1759.95 264.761 1757.56 266.468 1755.34 268.261L1773.61 291.14C1774.81 290.201 1776.17 289.347 1777.54 288.664V288.579Z" fill="#003B2F"/><path d="M1785.39 332.289L1786.93 347.826C1789.58 347.058 1792.22 346.033 1794.78 344.838L1790.52 330.24C1788.81 331.008 1787.1 331.691 1785.31 332.203L1785.39 332.289Z" fill="#003B2F"/><path d="M1766.7 332.886L1774.64 317.264C1773.36 316.922 1772.16 316.41 1771.14 315.727L1759.53 329.728C1758.67 329.215 1757.82 328.618 1757.05 327.935L1743.99 341.253C1745.7 342.704 1747.66 344.07 1749.71 345.18L1760.64 330.752C1762 331.52 1763.45 332.118 1764.99 332.63L1756.28 347.997C1758.59 348.765 1760.98 349.363 1763.45 349.704L1769.86 333.484C1768.75 333.313 1767.72 333.057 1766.7 332.801V332.886Z" fill="#003B2F"/><path d="M1752.7 294.128L1767.72 298.141C1768.41 296.775 1769.26 295.579 1770.2 294.384L1757.74 286.445C1758.5 285.506 1759.36 284.567 1760.21 283.628L1748.86 274.066C1746.89 276.115 1745.02 278.335 1743.31 280.554L1756.37 287.811C1755.26 289.347 1754.24 290.884 1753.3 292.506L1738.7 287.64C1737.33 290.03 1736.14 292.506 1735.2 294.982L1751.25 297.372C1751.67 296.262 1752.19 295.238 1752.7 294.128Z" fill="#003B2F"/><path d="M1731.78 317.349C1732.04 319.739 1732.46 322.13 1733.15 324.349L1749.88 316.751C1749.45 315.3 1749.2 313.763 1749.02 312.141L1731.78 317.349Z" fill="#003B2F"/><path d="M1748.6 310.605L1765.93 306.251C1765.93 304.97 1765.93 303.604 1766.36 302.153L1732.89 302.409C1732.29 304.885 1731.95 307.446 1731.7 309.922L1748.69 307.275C1748.69 308.385 1748.6 309.495 1748.69 310.519L1748.6 310.605Z" fill="#003B2F"/><path d="M1783.69 332.972L1783.09 317.178C1781.64 317.52 1780.19 317.69 1778.82 317.776L1771.22 350.302C1773.78 350.302 1776.43 350.046 1779.08 349.619L1780.27 333.655C1781.47 333.484 1782.66 333.228 1783.77 332.972H1783.69Z" fill="#003B2F"/><path d="M1766.61 310.007L1750.05 318.373C1750.39 319.312 1750.82 320.252 1751.25 321.191L1735.62 330.837C1736.65 332.801 1737.93 334.765 1739.29 336.472L1768.41 313.336C1767.64 312.312 1767.04 311.288 1766.61 310.092V310.007Z" fill="#003B2F"/><path d="M1791.2 313.08C1790 314.019 1788.64 314.873 1787.27 315.556L1792.39 329.728C1793.5 329.13 1794.61 328.532 1795.72 327.849L1802.47 340.826C1804.86 339.375 1807.25 337.667 1809.47 335.874L1791.2 312.995V313.08Z" fill="#003B2F"/><path d="M1470.9 499.345C1474.05 484.747 1489.25 464.855 1499.67 456.66C1496.85 459.05 1494.37 461.782 1492.07 464.77C1486.95 471.344 1483.19 479.283 1481.14 488.418C1481.05 488.759 1480.97 489.015 1480.88 489.357C1471.58 532.213 1501.54 584.972 1547.9 607.168C1548.58 607.51 1549.27 607.766 1549.95 608.107C1550.38 608.278 1550.89 608.534 1551.31 608.705C1551.31 608.705 1551.4 608.705 1551.49 608.705C1580.51 621.425 1608.68 618.949 1627.47 604.351C1629.68 602.643 1631.73 600.765 1633.61 598.716C1615.34 622.449 1573.85 634.316 1537.91 617.071C1491.56 594.875 1461.59 542.116 1470.9 499.26V499.345Z" fill="#003B2F"/><path d="M1480.8 489.357C1480.8 489.357 1480.97 488.674 1481.06 488.418C1483.19 479.283 1486.95 471.343 1491.98 464.77C1494.29 461.782 1496.85 459.05 1499.58 456.66C1499.75 456.574 1499.92 456.404 1500.01 456.318C1519.47 439.756 1550.21 437.025 1581.45 451.964C1627.81 474.161 1657.77 526.92 1648.47 569.776C1645.91 581.557 1640.7 591.289 1633.53 598.802C1631.56 600.851 1629.51 602.729 1627.38 604.436C1608.6 619.035 1580.43 621.51 1551.4 608.79H1551.23C1550.8 608.619 1550.29 608.363 1549.86 608.193C1549.18 607.851 1548.5 607.595 1547.82 607.253C1501.46 585.057 1471.49 532.298 1480.8 489.442V489.357Z" fill="#03FC9D"/><path d="M1470.55 498.662C1473.71 484.064 1488.91 464.172 1499.32 455.977C1496.51 458.367 1494.03 461.099 1491.73 464.087C1486.6 470.661 1482.85 478.6 1480.8 487.735C1480.71 488.076 1480.63 488.332 1480.54 488.674C1471.24 531.53 1501.2 584.289 1547.56 606.485C1548.24 606.827 1548.92 607.083 1549.61 607.424C1550.03 607.595 1550.55 607.851 1550.97 608.022C1550.97 608.022 1551.06 608.022 1551.14 608.022C1580.17 620.742 1608.34 618.266 1627.12 603.668C1629.34 601.96 1631.39 600.082 1633.27 598.033C1615 621.766 1573.51 633.633 1537.57 616.388C1491.21 594.192 1461.25 541.433 1470.55 498.577V498.662Z" stroke="#003B2F" stroke-width="3" stroke-linecap="round" stroke-linejoin="round"/><path d="M1480.54 488.674C1480.54 488.674 1480.71 487.991 1480.8 487.735C1482.93 478.6 1486.69 470.661 1491.72 464.087C1494.03 461.099 1496.59 458.367 1499.32 455.977C1499.49 455.891 1499.66 455.721 1499.75 455.635C1519.21 439.073 1549.95 436.342 1581.19 451.281C1627.55 473.478 1657.51 526.237 1648.21 569.093C1645.65 580.874 1640.44 590.606 1633.27 598.119C1631.31 600.168 1629.26 602.046 1627.12 603.753C1608.34 618.352 1580.17 620.827 1551.14 608.107H1550.97C1550.54 607.936 1550.03 607.68 1549.61 607.51C1548.92 607.168 1548.24 606.912 1547.56 606.57C1501.2 584.374 1471.24 531.615 1480.54 488.759V488.674Z" stroke="#003B2F" stroke-width="3" stroke-linecap="round" stroke-linejoin="round"/><path d="M1525.45 527.944H1504.45C1505.21 531.53 1506.15 535.201 1507.43 538.786L1527.41 535.115C1526.64 532.725 1525.96 530.335 1525.45 527.859V527.944Z" fill="#003B2F"/><path d="M1526.98 502.845L1546.87 515.651C1547.47 514.029 1548.33 512.492 1549.35 511.126L1532.02 493.625C1532.87 492.515 1533.73 491.576 1534.67 490.637L1518.45 471.258C1516.23 473.392 1514.26 475.783 1512.47 478.344L1530.4 494.991C1529.2 496.699 1528.18 498.577 1527.32 500.54L1507.86 486.71C1506.58 489.698 1505.47 492.772 1504.7 496.016L1525.62 506.858C1525.96 505.406 1526.38 504.04 1526.9 502.674L1526.98 502.845Z" fill="#003B2F"/><path d="M1580.51 489.442L1573.26 509.077C1574.96 510.187 1576.5 511.468 1578.04 512.919L1590.24 497.296C1591.44 498.491 1592.55 499.772 1593.66 501.052L1607.83 487.137C1605.36 484.149 1602.62 481.332 1599.89 478.771L1588.62 495.333C1586.74 493.625 1584.78 492.003 1582.82 490.552L1591.1 471.6C1588.02 469.465 1584.87 467.502 1581.71 465.88L1576.5 487.052C1577.87 487.82 1579.32 488.588 1580.68 489.442H1580.51Z" fill="#003B2F"/><path d="M1552.08 458.111C1548.84 458.111 1545.68 458.367 1542.6 458.965L1550.63 482.527C1552.68 482.186 1554.73 482.015 1556.86 482.015L1552.08 458.196V458.111Z" fill="#003B2F"/><path d="M1559 481.588L1562.67 505.406C1564.46 505.492 1566.25 505.919 1568.04 506.516L1571.89 461.611C1568.56 460.501 1565.23 459.562 1561.98 458.965L1563.35 482.1C1561.9 481.844 1560.45 481.673 1559 481.588Z" fill="#003B2F"/><path d="M1524.68 525.468L1545.93 526.834C1545.59 524.871 1545.59 522.907 1545.68 520.944L1503.16 506.175C1502.91 509.675 1502.82 513.26 1503.08 516.846L1524.25 520.602C1524.34 522.224 1524.51 523.846 1524.76 525.468H1524.68Z" fill="#003B2F"/><path d="M1544.57 483.722L1533.64 461.44C1530.83 462.55 1528.18 463.916 1525.62 465.538L1552.94 507.797C1554.3 506.858 1555.84 506.26 1557.46 505.833L1548.41 482.527C1547.05 482.869 1545.77 483.295 1544.57 483.808V483.722Z" fill="#003B2F"/><path d="M1547.47 532.725L1527.92 537.591C1528.52 539.213 1529.2 540.75 1529.97 542.286L1511.79 549.458C1513.49 552.872 1515.37 556.287 1517.51 559.531L1550.37 538.274C1549.18 536.481 1548.24 534.603 1547.47 532.725Z" fill="#003B2F"/><path d="M1606.89 528.286H1627.89C1627.12 524.7 1626.18 521.029 1624.9 517.444L1604.93 521.115C1605.7 523.505 1606.38 525.895 1606.89 528.371V528.286Z" fill="#003B2F"/><path d="M1605.35 553.385L1585.46 540.579C1584.86 542.201 1584.01 543.738 1582.98 545.104L1600.31 562.605C1599.46 563.714 1598.61 564.653 1597.67 565.593L1613.89 584.972C1616.11 582.837 1618.07 580.447 1619.86 577.886L1601.94 561.239C1603.13 559.531 1604.16 557.653 1605.01 555.69L1624.47 569.52C1625.76 566.532 1626.86 563.458 1627.63 560.214L1606.72 549.372C1606.38 550.823 1605.95 552.189 1605.44 553.555L1605.35 553.385Z" fill="#003B2F"/><path d="M1551.83 566.788L1559.08 547.153C1557.38 546.043 1555.84 544.762 1554.3 543.311L1542.1 558.934C1540.9 557.739 1539.79 556.458 1538.68 555.177L1524.51 569.093C1526.99 572.081 1529.72 574.898 1532.45 577.459L1543.72 560.897C1545.6 562.605 1547.56 564.227 1549.52 565.678L1541.24 584.63C1544.32 586.765 1547.47 588.728 1550.63 590.35L1555.84 569.178C1554.47 568.41 1553.02 567.642 1551.66 566.788H1551.83Z" fill="#003B2F"/><path d="M1580.25 598.119C1583.5 598.119 1586.66 597.863 1589.73 597.265L1581.7 573.703C1579.66 574.044 1577.61 574.215 1575.47 574.215L1580.25 598.033V598.119Z" fill="#003B2F"/><path d="M1573.42 574.642L1569.75 550.824C1567.96 550.738 1566.17 550.311 1564.38 549.714L1560.53 594.619C1563.86 595.728 1567.19 596.667 1570.44 597.265L1569.07 574.13C1570.52 574.386 1571.97 574.557 1573.42 574.642Z" fill="#003B2F"/><path d="M1607.66 530.761L1586.4 529.395C1586.74 531.359 1586.74 533.323 1586.66 535.286L1629.17 550.055C1629.43 546.555 1629.51 542.969 1629.26 539.384L1608.09 535.628C1608 534.005 1607.83 532.383 1607.57 530.761H1607.66Z" fill="#003B2F"/><path d="M1574.79 550.397L1583.84 573.703C1585.2 573.361 1586.49 572.934 1587.68 572.422L1598.61 594.704C1601.43 593.594 1604.07 592.228 1606.63 590.606L1579.31 548.348C1577.95 549.287 1576.41 549.884 1574.79 550.311V550.397Z" fill="#003B2F"/><path d="M1581.96 517.87C1583.16 519.663 1584.1 521.541 1584.87 523.42L1604.42 518.553C1603.82 516.931 1603.14 515.395 1602.37 513.858L1620.55 506.687C1618.84 503.272 1616.97 499.857 1614.83 496.613L1581.96 517.87Z" fill="#003B2F"/><path d="M319.652 763.468C308.98 759.284 295.919 745.369 290.967 736.491C292.419 738.881 294.211 741.186 296.09 743.235C300.443 747.93 305.907 751.686 312.566 754.418C312.822 754.504 312.993 754.589 313.249 754.76C344.409 767.139 387.948 751.004 410.401 718.819C410.742 718.307 411.084 717.88 411.34 717.368C411.511 717.026 411.767 716.77 411.937 716.428C411.937 716.428 411.937 716.343 411.937 716.258C425.084 695.94 426.706 674.426 418.084 658.376C417.06 656.498 415.95 654.706 414.669 652.998C430.292 669.731 434.134 702.513 416.633 727.527C394.18 759.711 350.641 775.846 319.481 763.468H319.652Z" fill="#003B2F"/><path d="M313.335 754.76C313.335 754.76 312.823 754.589 312.652 754.418C305.993 751.686 300.444 747.845 296.175 743.235C294.212 741.101 292.505 738.881 291.053 736.49C291.053 736.405 290.882 736.234 290.797 736.064C280.723 719.331 282.431 695.854 297.627 674.085C320.165 641.9 363.618 625.765 394.864 638.144C403.401 641.558 410.145 646.681 414.926 653.084C416.206 654.791 417.402 656.584 418.341 658.462C427.048 674.426 425.341 696.025 412.194 716.343C412.194 716.343 412.194 716.428 412.194 716.514C412.023 716.855 411.767 717.111 411.596 717.453C411.255 717.965 410.999 718.392 410.657 718.904C388.205 751.089 344.666 767.224 313.506 754.845L313.335 754.76Z" fill="#03FC9D"/><path d="M319.056 763.638C308.385 759.455 295.323 745.54 290.372 736.661C291.823 739.052 293.616 741.357 295.494 743.406C299.848 748.101 305.311 751.857 311.97 754.589C312.226 754.674 312.397 754.76 312.653 754.931C343.814 767.309 387.353 751.174 409.805 718.99C410.146 718.477 410.488 718.05 410.744 717.538C410.915 717.197 411.171 716.941 411.342 716.599C411.342 716.599 411.342 716.514 411.342 716.428C424.489 696.11 426.111 674.597 417.488 658.547C416.464 656.669 415.354 654.876 414.074 653.169C429.696 669.902 433.538 702.684 416.037 727.697C393.585 759.882 350.046 776.017 318.885 763.638H319.056Z" stroke="#003B2F" stroke-width="3" stroke-linecap="round" stroke-linejoin="round"/><path d="M312.74 754.845C312.74 754.845 312.227 754.674 312.057 754.503C305.398 751.772 299.849 747.93 295.58 743.32C293.617 741.186 291.909 738.966 290.458 736.576C290.458 736.49 290.287 736.32 290.202 736.149C280.128 719.416 281.836 695.939 297.032 674.17C319.569 641.985 363.023 625.85 394.269 638.229C402.806 641.644 409.55 646.766 414.331 653.169C415.611 654.876 416.806 656.669 417.745 658.547C426.453 674.511 424.746 696.11 411.599 716.428C411.599 716.428 411.599 716.514 411.599 716.599C411.428 716.94 411.172 717.197 411.001 717.538C410.66 718.05 410.404 718.477 410.062 718.989C387.61 751.174 344.071 767.309 312.91 754.93L312.74 754.845Z" stroke="#003B2F" stroke-width="3" stroke-linecap="round" stroke-linejoin="round"/><path d="M350.898 663.328L349.617 646.169C346.715 646.937 343.812 647.961 340.91 649.156L345.178 665.292C347.056 664.523 348.935 663.84 350.898 663.328Z" fill="#003B2F"/><path d="M371.39 663.328L362.341 680.231C363.707 680.658 364.987 681.256 366.182 682.024L379.159 666.999C380.098 667.596 380.952 668.279 381.805 669.048L396.404 654.791C394.526 653.084 392.477 651.632 390.257 650.266L377.964 665.804C376.512 664.95 374.89 664.182 373.268 663.584L383.171 646.937C380.695 645.998 378.049 645.315 375.403 644.803L367.975 662.389C369.17 662.645 370.28 662.901 371.39 663.243V663.328Z" fill="#003B2F"/><path d="M385.817 706.355L369.426 701.403C368.657 702.855 367.718 704.22 366.608 705.501L380.097 714.636C379.243 715.66 378.304 716.685 377.28 717.624L389.488 728.466C391.707 726.246 393.842 723.941 395.72 721.551L381.548 713.184C382.829 711.562 383.939 709.94 385.048 708.148L400.927 713.953C402.464 711.392 403.83 708.66 404.94 706.013L387.353 702.855C386.841 704.05 386.329 705.245 385.646 706.355H385.817Z" fill="#003B2F"/><path d="M409.291 681.512C409.121 678.865 408.608 676.304 408.011 673.829L389.485 681.597C389.912 683.219 390.168 684.927 390.339 686.634L409.377 681.512H409.291Z" fill="#003B2F"/><path d="M390.769 688.342L371.731 692.525C371.731 693.976 371.56 695.513 371.219 696.964L407.843 697.818C408.526 695.086 409.038 692.269 409.294 689.622L390.598 691.927C390.683 690.732 390.769 689.537 390.769 688.342Z" fill="#003B2F"/><path d="M352.866 662.56L353.207 679.975C354.829 679.634 356.366 679.463 357.903 679.463L367.037 643.949C364.22 643.949 361.317 644.034 358.415 644.376L356.793 661.791C355.512 661.962 354.232 662.133 352.951 662.474L352.866 662.56Z" fill="#003B2F"/><path d="M388.035 676.731L405.366 666.657C404.256 664.438 402.975 662.304 401.524 660.34L369.168 684.756C370.022 685.866 370.62 687.061 371.047 688.342L389.316 679.719C388.974 678.695 388.548 677.585 388.035 676.646V676.731Z" fill="#003B2F"/><path d="M348.509 681.597L343.216 665.889C341.935 666.487 340.74 667.084 339.545 667.767L332.459 653.254C329.813 654.791 327.166 656.498 324.69 658.462L344.155 684.158C345.521 683.134 346.972 682.28 348.509 681.512V681.597Z" fill="#003B2F"/><path d="M356.108 729.832L357.388 746.991C360.291 746.223 363.194 745.198 366.096 744.003L361.828 727.868C359.95 728.636 358.071 729.319 356.108 729.832Z" fill="#003B2F"/><path d="M335.619 729.917L344.668 713.014C343.302 712.587 342.021 711.989 340.826 711.221L327.85 726.246C326.911 725.648 326.057 724.966 325.203 724.197L310.605 738.454C312.483 740.161 314.532 741.613 316.752 742.979L329.045 727.441C330.496 728.295 332.118 729.063 333.74 729.661L323.837 746.308C326.313 747.247 328.96 747.93 331.606 748.442L339.033 730.856C337.838 730.6 336.728 730.344 335.619 730.002V729.917Z" fill="#003B2F"/><path d="M321.191 686.805L337.582 691.756C338.35 690.305 339.289 688.939 340.399 687.659L326.911 678.524C327.764 677.499 328.703 676.475 329.728 675.536L317.52 664.694C315.3 666.914 313.166 669.219 311.288 671.609L325.459 679.975C324.179 681.597 323.069 683.219 321.959 685.012L306.08 679.207C304.544 681.768 303.178 684.5 302.068 687.146L319.654 690.305C320.166 689.11 320.679 687.915 321.362 686.805H321.191Z" fill="#003B2F"/><path d="M297.714 711.648C297.885 714.294 298.397 716.855 298.995 719.331L317.52 711.562C317.093 709.94 316.837 708.233 316.667 706.526L297.629 711.648H297.714Z" fill="#003B2F"/><path d="M316.237 704.818L335.275 700.635C335.275 699.184 335.446 697.647 335.787 696.196L299.163 695.342C298.48 698.074 297.968 700.891 297.712 703.537L316.408 701.233C316.323 702.428 316.237 703.623 316.237 704.818Z" fill="#003B2F"/><path d="M354.144 730.6L353.803 713.184C352.181 713.526 350.644 713.697 349.107 713.697L339.973 749.211C342.79 749.211 345.692 749.125 348.595 748.784L350.217 731.368C351.498 731.198 352.778 731.027 354.059 730.685L354.144 730.6Z" fill="#003B2F"/><path d="M336.046 704.818L317.776 713.441C318.118 714.465 318.545 715.575 319.057 716.514L301.727 726.588C302.836 728.807 304.117 730.941 305.568 732.905L337.924 708.489C337.07 707.379 336.472 706.184 336.046 704.903V704.818Z" fill="#003B2F"/><path d="M362.851 709.001C361.485 710.026 360.034 710.879 358.497 711.648L363.79 727.356C365.071 726.758 366.266 726.161 367.461 725.478L374.547 739.991C377.193 738.454 379.84 736.747 382.315 734.783L362.851 709.087V709.001Z" fill="#003B2F"/><path d="M662.873 179.404L640.188 156.718L617.502 179.404L640.188 202.09L662.873 179.404Z" stroke="#003B2F" stroke-width="3" stroke-miterlimit="10" stroke-linecap="round" stroke-linejoin="round"/><path d="M520.757 271.982H458.901C478.475 271.982 494.332 257.571 494.332 239.799C494.332 222.026 478.46 207.63 458.901 207.63H281.262C261.688 207.63 245.831 222.04 245.831 239.799H191.294C171.72 239.799 155.862 254.209 155.862 271.982C155.862 289.754 171.734 304.151 191.294 304.151H307.672C307.672 321.923 323.544 336.334 343.104 336.334H520.743C540.316 336.334 556.174 321.923 556.174 304.151C556.202 286.378 540.331 271.982 520.757 271.982Z" fill="#E6E8EA"/><path d="M398.52 236.106H434.976" stroke="#003B2F" stroke-width="3" stroke-miterlimit="10" stroke-linecap="round" stroke-linejoin="round"/><path d="M288.838 136.193H552.722" stroke="#03FC9D" stroke-width="3" stroke-miterlimit="10" stroke-linecap="round" stroke-linejoin="round"/><path d="M482.046 235.919H629.563" stroke="#003B2F" stroke-width="3" stroke-miterlimit="10" stroke-linecap="round" stroke-linejoin="round"/><path d="M186.792 498.846C167.858 498.826 139.198 485.268 126.215 474.617C129.901 477.443 134.005 479.878 138.258 481.913C147.775 486.45 158.574 489.004 170.455 489.136C170.885 489.204 171.264 489.163 171.724 489.152C227.23 489.277 284.582 438.087 299.719 374.77C299.966 373.86 300.133 372.92 300.3 371.981C300.428 371.391 300.586 370.721 300.714 370.131C300.744 370.051 300.773 369.971 300.803 369.891C308.753 330.587 298.243 296.358 275.13 276.937C272.425 274.657 269.551 272.588 266.588 270.759C300.852 287.128 326.613 335.217 314.817 384.385C299.709 447.621 242.357 498.811 186.822 498.766L186.792 498.846Z" fill="#003B2F"/><path d="M171.725 489.152C171.725 489.152 170.915 489.125 170.456 489.136C158.575 489.004 147.695 486.42 138.259 481.914C134.006 479.879 129.902 477.444 126.216 474.618C125.975 474.528 125.875 474.309 125.665 474.14C100.023 454.417 88.3747 417.124 98.5717 374.466C113.71 311.149 171.032 260.04 226.567 260.084C241.775 260.086 255.256 264.001 266.529 270.919C269.572 272.778 272.447 274.847 275.072 277.097C298.184 296.519 308.694 330.748 300.744 370.051C300.715 370.131 300.685 370.211 300.655 370.291C300.527 370.881 300.369 371.551 300.241 372.141C300.074 373.081 299.827 373.991 299.661 374.931C284.552 438.167 227.2 489.357 171.665 489.312L171.725 489.152Z" fill="#03FC9D"/><path d="M186.044 499.388C167.109 499.368 138.45 485.81 125.466 475.159C129.152 477.985 133.257 480.42 137.51 482.455C147.026 486.992 157.826 489.545 169.707 489.678C170.136 489.746 170.516 489.705 170.976 489.694C226.481 489.818 283.833 438.629 298.971 375.312C299.218 374.402 299.385 373.462 299.552 372.523C299.68 371.933 299.837 371.263 299.965 370.673C299.995 370.593 300.025 370.513 300.055 370.433C308.004 331.129 297.494 296.9 274.382 277.479C271.677 275.199 268.803 273.13 265.839 271.301C300.103 287.669 325.864 335.759 314.069 384.927C298.961 448.163 241.609 499.353 186.074 499.308L186.044 499.388Z" stroke="#003B2F" stroke-width="3" stroke-linecap="round" stroke-linejoin="round"/><path d="M170.976 489.694C170.976 489.694 170.167 489.667 169.707 489.678C157.826 489.546 146.947 486.962 137.51 482.456C133.257 480.421 129.153 477.986 125.467 475.159C125.227 475.07 125.126 474.851 124.916 474.682C99.2745 454.959 87.6261 417.665 97.8232 375.008C112.961 311.691 170.283 260.582 225.818 260.626C241.026 260.628 254.508 264.542 265.78 271.461C268.824 273.32 271.698 275.389 274.323 277.639C297.436 297.061 307.945 331.29 299.996 370.593C299.966 370.673 299.936 370.753 299.907 370.833C299.779 371.423 299.621 372.093 299.493 372.683C299.326 373.623 299.079 374.533 298.912 375.472C283.804 438.709 226.452 489.899 170.917 489.854L170.976 489.694Z" stroke="#003B2F" stroke-width="3" stroke-linecap="round" stroke-linejoin="round"/><path d="M172.084 327.821L159.004 302.473C155.088 305.663 151.212 309.232 147.707 313.03L164.692 334.729C167.072 332.244 169.582 329.898 172.194 327.771L172.084 327.821Z" fill="#003B2F"/><path d="M203.306 313.645L200.409 345.718C202.796 345.421 205.145 345.473 207.374 345.846L217.535 313.83C219.334 314.134 221.154 314.628 222.865 315.172L235.963 283.336C232.063 282.07 227.933 281.173 223.735 280.707L214.974 312.879C212.175 312.568 209.287 312.497 206.39 312.696L210.725 280.428C206.339 280.712 201.885 281.425 197.442 282.598L197.464 314.662C199.371 314.187 201.328 313.821 203.255 313.535L203.306 313.645Z" fill="#003B2F"/><path d="M253.032 369.542L224.866 373.288C224.585 376.007 224.034 378.717 223.213 381.417L249.687 386.15C248.964 388.34 248.242 390.531 247.279 392.632L272.934 400.794C274.937 395.892 276.62 390.871 278.033 385.84L251.095 382.848C251.964 379.528 252.673 376.148 253.112 372.76L281.113 370.683C281.796 365.655 282.13 360.588 282.134 355.672L253.31 362.907C253.317 365.095 253.244 367.254 252.981 369.433L253.032 369.542Z" fill="#003B2F"/><path d="M272.913 315.273C270.912 311.343 268.523 307.723 265.934 304.394L242.651 329.078C244.387 331.27 245.953 333.673 247.27 336.257L272.913 315.273Z" fill="#003B2F"/><path d="M248.978 338.531L222.651 358.168C223.657 360.363 224.304 362.789 224.732 365.316L281.11 341.267C280.406 336.543 279.372 331.97 277.98 327.628L251.004 344.11C250.368 342.144 249.673 340.337 248.898 338.501L248.978 338.531Z" fill="#003B2F"/><path d="M174.574 325.286L186.268 351.667C188.431 350.012 190.745 348.686 193.13 347.659L184.135 287.036C179.805 288.889 175.406 291.171 171.187 293.702L179.968 321.552C178.093 322.677 176.268 323.911 174.494 325.256L174.574 325.286Z" fill="#003B2F"/><path d="M237.306 322.63L257.304 295.269C254.208 292.571 250.883 290.243 247.33 288.286L213.726 348.114C215.688 349.207 217.451 350.59 218.905 352.314L241.226 326.544C240.002 325.179 238.669 323.865 237.277 322.71L237.306 322.63Z" fill="#003B2F"/><path d="M180.213 357.432L162.023 337.016C160.48 338.72 159.067 340.563 157.704 342.515L137.625 325.223C134.511 329.439 131.658 333.935 129.044 338.519L175.219 364.502C176.63 361.93 178.301 359.637 180.103 357.483L180.213 357.432Z" fill="#003B2F"/><path d="M222.945 426.032L236.025 451.38C239.942 448.191 243.817 444.621 247.322 440.823L230.338 419.124C227.957 421.61 225.447 423.956 222.836 426.083L222.945 426.032Z" fill="#003B2F"/><path d="M191.722 440.208L194.618 408.135C192.231 408.432 189.883 408.38 187.654 408.007L177.493 440.023C175.693 439.719 173.873 439.225 172.163 438.681L159.064 470.517C162.965 471.783 167.094 472.68 171.292 473.146L180.054 440.974C182.853 441.285 185.74 441.356 188.637 441.157L184.303 473.425C188.688 473.141 193.143 472.427 197.585 471.254L197.564 439.19C195.657 439.666 193.7 440.032 191.772 440.318L191.722 440.208Z" fill="#003B2F"/><path d="M141.998 384.311L170.163 380.565C170.444 377.846 170.995 375.137 171.816 372.436L145.342 367.704C146.065 365.513 146.787 363.323 147.75 361.222L122.095 353.059C120.092 357.961 118.409 362.983 116.996 368.013L143.934 371.006C143.065 374.326 142.356 377.705 141.917 381.094L113.917 383.171C113.233 388.199 112.899 393.266 112.895 398.182L141.719 390.947C141.712 388.758 141.785 386.6 142.048 384.421L141.998 384.311Z" fill="#003B2F"/><path d="M122.115 438.58C124.116 442.51 126.505 446.13 129.094 449.459L152.377 424.775C150.641 422.583 149.075 420.179 147.758 417.596L122.115 438.58Z" fill="#003B2F"/><path d="M146.082 415.243L172.408 395.606C171.402 393.411 170.755 390.985 170.327 388.458L113.949 412.507C114.653 417.231 115.687 421.804 117.08 426.146L144.056 409.664C144.691 411.63 145.387 413.437 146.162 415.273L146.082 415.243Z" fill="#003B2F"/><path d="M220.453 428.567L208.759 402.185C206.596 403.841 204.282 405.167 201.897 406.194L210.891 466.816C215.222 464.964 219.621 462.682 223.84 460.151L215.059 432.301C216.934 431.176 218.758 429.941 220.533 428.597L220.453 428.567Z" fill="#003B2F"/><path d="M176.126 401.54L153.805 427.309C155.028 428.674 156.361 429.989 157.754 431.144L137.756 458.505C140.852 461.203 144.177 463.531 147.73 465.488L181.334 405.66C179.372 404.567 177.61 403.184 176.155 401.46L176.126 401.54Z" fill="#003B2F"/><path d="M219.782 389.432C218.371 392.004 216.699 394.297 214.898 396.451L233.087 416.867C234.631 415.164 236.044 413.321 237.407 411.368L257.485 428.661C260.599 424.444 263.453 419.949 266.066 415.364L219.891 389.381L219.782 389.432Z" fill="#003B2F"/><path d="M327.247 966.756H356.869" stroke="#003B2F" stroke-width="3" stroke-miterlimit="10" stroke-linecap="round" stroke-linejoin="round"/><path d="M203.266 916.806H417.724" stroke="#03FC9D" stroke-width="3" stroke-miterlimit="10" stroke-linecap="round" stroke-linejoin="round"/><path d="M395.12 966.593H515.021" stroke="#003B2F" stroke-width="3" stroke-miterlimit="10" stroke-linecap="round" stroke-linejoin="round"/><path d="M66.6172 733.098L93.0207 748.329" stroke="#003B2F" stroke-width="3" stroke-miterlimit="10" stroke-linecap="round" stroke-linejoin="round"/><path d="M119.41 733.098L103.899 742.055" stroke="#003B2F" stroke-width="3" stroke-miterlimit="10" stroke-linecap="round" stroke-linejoin="round"/><path d="M93.0225 748.33V779.153" stroke="#003B2F" stroke-width="3" stroke-miterlimit="10" stroke-linecap="round" stroke-linejoin="round"/><path d="M392.236 479.591L409.66 497.003" stroke="#003B2F" stroke-width="3" stroke-miterlimit="10" stroke-linecap="round" stroke-linejoin="round"/><path d="M422.395 509.738L439.818 527.162" stroke="#003B2F" stroke-width="3" stroke-miterlimit="10" stroke-linecap="round" stroke-linejoin="round"/><path d="M392.236 527.162L409.66 509.738" stroke="#003B2F" stroke-width="3" stroke-miterlimit="10" stroke-linecap="round" stroke-linejoin="round"/><path d="M422.395 497.003L439.818 479.591" stroke="#003B2F" stroke-width="3" stroke-miterlimit="10" stroke-linecap="round" stroke-linejoin="round"/><path d="M1777.88 831.631H1726.28C1742.53 831.631 1755.93 818.396 1755.93 801.979C1755.93 785.562 1742.7 772.327 1726.28 772.327H1578.02C1561.77 772.327 1548.37 785.562 1548.37 801.979H1502.81C1486.56 801.979 1473.15 815.213 1473.15 831.631C1473.15 848.048 1486.39 861.283 1502.81 861.283H1599.97C1599.97 877.533 1613.2 890.934 1629.62 890.934H1777.88C1794.13 890.934 1807.53 877.7 1807.53 861.283C1807.53 844.865 1794.3 831.631 1777.88 831.631Z" fill="#03FC9D"/><path d="M1401.39 953.417H1659.21C1687.62 953.417 1710.64 930.391 1710.64 901.987C1710.64 873.583 1687.62 850.557 1659.21 850.557H1401.39C1372.99 850.557 1349.96 873.583 1349.96 901.987C1349.96 930.391 1372.99 953.417 1401.39 953.417Z" fill="#E6E8EA"/><path d="M1429.21 659.481V684.112" stroke="#003B2F" stroke-width="3" stroke-miterlimit="10" stroke-linecap="round" stroke-linejoin="round"/><path d="M1429.21 702.118V726.761" stroke="#003B2F" stroke-width="3" stroke-miterlimit="10" stroke-linecap="round" stroke-linejoin="round"/><path d="M1395.58 693.115H1420.21" stroke="#003B2F" stroke-width="3" stroke-miterlimit="10" stroke-linecap="round" stroke-linejoin="round"/><path d="M1438.21 693.115H1462.85" stroke="#003B2F" stroke-width="3" stroke-miterlimit="10" stroke-linecap="round" stroke-linejoin="round"/><path d="M1115.29 966.756H1262.8" stroke="#003B2F" stroke-width="3" stroke-miterlimit="10" stroke-linecap="round" stroke-linejoin="round"/><path d="M1491.48 158.447H1565.25" stroke="#003B2F" stroke-width="3" stroke-miterlimit="10" stroke-linecap="round" stroke-linejoin="round"/><path d="M1435.43 158.447H1454.01" stroke="#003B2F" stroke-width="3" stroke-miterlimit="10" stroke-linecap="round" stroke-linejoin="round"/><path d="M1583.53 113.244H1774.68" stroke="#03FC9D" stroke-width="3" stroke-miterlimit="10" stroke-linecap="round" stroke-linejoin="round"/><path d="M1606.33 399.053C1618.57 399.053 1628.49 389.132 1628.49 376.894C1628.49 364.656 1618.57 354.736 1606.33 354.736C1594.09 354.736 1584.17 364.656 1584.17 376.894C1584.17 389.132 1594.09 399.053 1606.33 399.053Z" stroke="#003B2F" stroke-width="3" stroke-miterlimit="10" stroke-linecap="round" stroke-linejoin="round"/></svg>