<svg width="1920" height="1080" viewBox="0 0 1920 1080" fill="none" xmlns="http://www.w3.org/2000/svg"><path d="M1098.26 376.454H821.615C807.672 376.454 796.389 387.737 796.389 401.679V678.321C796.389 692.263 807.672 703.547 821.615 703.547H1098.26C1112.2 703.547 1123.48 692.263 1123.48 678.321V401.679C1123.48 387.737 1112.2 376.454 1098.26 376.454Z" fill="#03FC9D" stroke="#003D2E" stroke-width="3" stroke-linecap="round" stroke-linejoin="round"/><path d="M1072.97 406.413H846.971C835.558 406.413 826.35 415.622 826.35 427.035V653.03C826.35 664.443 835.558 673.652 846.971 673.652H1072.97C1084.38 673.652 1093.59 664.443 1093.59 653.03V427.035C1093.59 415.622 1084.38 406.413 1072.97 406.413Z" fill="#83FCD0" stroke="#003D2E" stroke-width="3" stroke-linecap="round" stroke-linejoin="round"/><path d="M547.503 548.301L565.336 566.134H658.393L699.701 524.826H767.337" stroke="#003D2E" stroke-width="3" stroke-linecap="round" stroke-linejoin="round"/><path d="M531.292 554.915C525.002 554.915 519.1 552.451 514.626 548.041C510.151 543.567 507.752 537.665 507.752 531.375C507.752 525.085 510.216 519.184 514.626 514.709C523.834 505.501 538.749 505.501 547.893 514.709C552.367 519.184 554.767 525.085 554.767 531.375C554.767 537.665 552.302 543.567 547.893 548.041C543.418 552.516 537.517 554.915 531.227 554.915H531.292Z" stroke="#003D2E" stroke-width="3" stroke-linecap="round" stroke-linejoin="round"/><path d="M652.234 361.344L717.147 426.257H766.237" stroke="#003D2E" stroke-width="3" stroke-linecap="round" stroke-linejoin="round"/><path d="M637.771 361.214C635.891 359.334 634.788 356.805 634.788 354.081C634.788 351.357 635.826 348.828 637.771 346.948C639.652 345.067 642.181 343.965 644.904 343.965C647.628 343.965 650.157 345.002 652.038 346.948C653.918 348.828 655.021 351.357 655.021 354.081C655.021 356.805 653.983 359.334 652.038 361.214C650.157 363.095 647.628 364.197 644.904 364.197C642.181 364.197 639.652 363.16 637.771 361.214Z" stroke="#003D2E" stroke-width="3" stroke-linecap="round" stroke-linejoin="round"/><path d="M719.742 557.314C719.742 554.591 717.537 552.451 714.878 552.451C712.219 552.451 710.015 554.656 710.015 557.314C710.015 559.973 712.219 562.243 714.878 562.243C717.537 562.243 719.742 560.038 719.742 557.314Z" fill="#003D2E"/><path d="M648.406 350.644C646.525 348.763 643.413 348.763 641.467 350.644C639.586 352.525 639.586 355.637 641.467 357.583C643.348 359.463 646.46 359.463 648.406 357.583C650.286 355.702 650.286 352.589 648.406 350.644Z" fill="#003D2E"/><path d="M766.428 456.93C766.428 456.93 766.428 448.046 775.247 448.046H789.643V470.094H775.247C770.383 470.094 766.428 466.138 766.428 461.275V456.93Z" fill="#003D2E"/><path d="M766.428 489.678C766.428 489.678 766.428 480.794 775.247 480.794H789.643V502.842H775.247C770.383 502.842 766.428 498.886 766.428 494.023V489.678Z" fill="#003D2E"/><path d="M766.428 522.426C766.428 522.426 766.428 513.542 775.247 513.542H789.643V535.59H775.247C770.383 535.59 766.428 531.635 766.428 526.771V522.426Z" fill="#003D2E"/><path d="M766.428 424.182C766.428 424.182 766.428 415.297 775.247 415.297H789.643V437.346H775.247C770.383 437.346 766.428 433.39 766.428 428.526V424.182Z" fill="#003D2E"/><path d="M636.543 498.951C634.662 497.071 633.56 494.542 633.56 491.818C633.56 489.094 634.597 486.565 636.543 484.685C638.423 482.804 640.952 481.702 643.676 481.702C649.253 481.702 653.727 486.241 653.727 491.753C653.727 494.477 652.69 497.006 650.744 498.886C648.864 500.767 646.335 501.869 643.611 501.869C640.887 501.869 638.358 500.832 636.478 498.886L636.543 498.951Z" stroke="#003D2E" stroke-width="3" stroke-linecap="round" stroke-linejoin="round"/><path d="M707.743 564.448C705.862 562.567 704.76 560.038 704.76 557.314C704.76 554.591 705.797 552.062 707.743 550.181C709.623 548.301 712.152 547.198 714.876 547.198C720.453 547.198 724.927 551.737 724.927 557.25C724.927 559.973 723.89 562.502 721.944 564.383C720.064 566.263 717.535 567.366 714.811 567.366C712.088 567.366 709.559 566.328 707.678 564.383L707.743 564.448Z" stroke="#003D2E" stroke-width="3" stroke-linecap="round" stroke-linejoin="round"/><path d="M541.668 521C535.961 515.293 526.623 515.293 520.917 521C515.21 526.706 515.21 536.044 520.917 541.751C526.623 547.458 535.961 547.458 541.668 541.751C547.375 536.044 547.375 526.706 541.668 521Z" fill="#003D2E"/><path d="M668.641 739.991C662.934 734.284 653.596 734.284 647.889 739.991C642.183 745.698 642.183 755.036 647.889 760.742C653.596 766.449 662.934 766.449 668.641 760.742C674.347 755.036 674.347 745.698 668.641 739.991Z" fill="#003D2E"/><path d="M609.11 658.023C605.738 654.651 600.355 654.651 596.983 658.023C593.611 661.395 593.611 666.778 596.983 670.15C600.355 673.522 605.738 673.522 609.11 670.15C612.482 666.778 612.482 661.395 609.11 658.023Z" fill="#003D2E"/><path d="M620.457 663.73H658.458L699.766 622.422H767.402" stroke="#003D2E" stroke-width="3" stroke-linecap="round" stroke-linejoin="round"/><path d="M590.692 676.44C587.385 673.133 585.569 668.788 585.569 664.119C585.569 659.45 587.385 655.105 590.692 651.798C594 648.491 598.344 646.675 603.013 646.675C607.682 646.675 612.027 648.491 615.335 651.798C618.642 655.105 620.458 659.45 620.458 664.119C620.458 668.788 618.642 673.133 615.335 676.44C612.027 679.747 607.682 681.563 603.013 681.563C598.344 681.563 594 679.747 590.692 676.44Z" stroke="#003D2E" stroke-width="3" stroke-linecap="round" stroke-linejoin="round"/><path d="M658.264 738.305V716.257L718.637 655.883H765.976" stroke="#003D2E" stroke-width="3" stroke-linecap="round" stroke-linejoin="round"/><path d="M621.692 417.243H655.478L696.786 458.551H766.174" stroke="#003D2E" stroke-width="3" stroke-linecap="round" stroke-linejoin="round"/><path d="M653.724 491.818H772.655" stroke="#003D2E" stroke-width="3" stroke-linecap="round" stroke-linejoin="round"/><path d="M766.428 555.174C766.428 555.174 766.428 546.29 775.247 546.29H789.643V568.339H775.247C770.383 568.339 766.428 564.383 766.428 559.519V555.174Z" fill="#003D2E"/><path d="M724.732 557.25H772.785" stroke="#003D2E" stroke-width="3" stroke-linecap="round" stroke-linejoin="round"/><path d="M766.428 587.923C766.428 587.923 766.428 579.038 775.247 579.038H789.643V601.087H775.247C770.383 601.087 766.428 597.131 766.428 592.267V587.923Z" fill="#003D2E"/><path d="M766.428 620.606C766.428 620.606 766.428 611.722 775.247 611.722H789.643V633.77H775.247C770.383 633.77 766.428 629.814 766.428 624.951V620.606Z" fill="#003D2E"/><path d="M766.428 653.354C766.428 653.354 766.428 644.47 775.247 644.47H789.643V666.518H775.247C770.383 666.518 766.428 662.563 766.428 657.699V653.354Z" fill="#003D2E"/><path d="M678.561 588.96H772.914" stroke="#003D2E" stroke-width="3" stroke-linecap="round" stroke-linejoin="round"/><path d="M606.191 434.363C615.646 434.363 623.311 426.698 623.311 417.243C623.311 407.788 615.646 400.123 606.191 400.123C596.736 400.123 589.071 407.788 589.071 417.243C589.071 426.698 596.736 434.363 606.191 434.363Z" fill="#003D2E"/><path d="M675.515 601.735C682.571 601.735 688.29 596.016 688.29 588.96C688.29 581.905 682.571 576.185 675.515 576.185C668.46 576.185 662.74 581.905 662.74 588.96C662.74 596.016 668.46 601.735 675.515 601.735Z" fill="#003D2E"/><path d="M952.671 127.437L934.838 145.27V238.327L976.146 279.635V347.272" stroke="#003D2E" stroke-width="3" stroke-linecap="round" stroke-linejoin="round"/><path d="M946.053 111.225C946.053 104.935 948.517 99.0339 952.927 94.5594C957.401 90.0849 963.302 87.6855 969.593 87.6855C975.883 87.6855 981.784 90.1498 986.258 94.5594C995.467 103.768 995.467 118.683 986.258 127.826C981.784 132.301 975.883 134.7 969.593 134.7C963.302 134.7 957.401 132.236 952.927 127.826C948.452 123.352 946.053 117.451 946.053 111.161V111.225Z" stroke="#003D2E" stroke-width="3" stroke-linecap="round" stroke-linejoin="round"/><path d="M1139.63 232.167L1074.72 297.08V346.169" stroke="#003D2E" stroke-width="3" stroke-linecap="round" stroke-linejoin="round"/><path d="M1139.82 217.706C1141.7 215.825 1144.23 214.723 1146.95 214.723C1149.67 214.723 1152.2 215.76 1154.08 217.706C1155.97 219.586 1157.07 222.115 1157.07 224.839C1157.07 227.563 1156.03 230.092 1154.08 231.972C1152.2 233.853 1149.67 234.955 1146.95 234.955C1144.23 234.955 1141.7 233.918 1139.82 231.972C1137.94 230.092 1136.83 227.563 1136.83 224.839C1136.83 222.115 1137.87 219.586 1139.82 217.706Z" stroke="#003D2E" stroke-width="3" stroke-linecap="round" stroke-linejoin="round"/><path d="M943.717 299.673C946.441 299.673 948.581 297.469 948.581 294.81C948.581 292.151 946.376 289.946 943.717 289.946C941.059 289.946 938.789 292.151 938.789 294.81C938.789 297.469 940.994 299.673 943.717 299.673Z" fill="#003D2E"/><path d="M1150.39 228.341C1152.27 226.46 1152.27 223.347 1150.39 221.402C1148.51 219.521 1145.4 219.521 1143.45 221.402C1141.57 223.283 1141.57 226.395 1143.45 228.341C1145.33 230.221 1148.44 230.221 1150.39 228.341Z" fill="#003D2E"/><path d="M1044.11 346.364C1044.11 346.364 1052.99 346.364 1052.99 355.183V369.58H1030.94V355.183C1030.94 350.32 1034.9 346.364 1039.76 346.364H1044.11Z" fill="#003D2E"/><path d="M1011.35 346.364C1011.35 346.364 1020.24 346.364 1020.24 355.183V369.58H998.19V355.183C998.19 350.32 1002.15 346.364 1007.01 346.364H1011.35Z" fill="#003D2E"/><path d="M978.608 346.364C978.608 346.364 987.493 346.364 987.493 355.183V369.58H965.444V355.183C965.444 350.32 969.4 346.364 974.264 346.364H978.608Z" fill="#003D2E"/><path d="M1076.86 346.364C1076.86 346.364 1085.74 346.364 1085.74 355.183V369.58H1063.69V355.183C1063.69 350.32 1067.65 346.364 1072.51 346.364H1076.86Z" fill="#003D2E"/><path d="M1002.09 216.474C1003.97 214.593 1006.49 213.491 1009.22 213.491C1011.94 213.491 1014.47 214.528 1016.35 216.474C1018.23 218.354 1019.33 220.883 1019.33 223.607C1019.33 229.184 1014.8 233.658 1009.28 233.658C1006.56 233.658 1004.03 232.621 1002.15 230.675C1000.27 228.795 999.167 226.266 999.167 223.542C999.167 220.818 1000.2 218.289 1002.15 216.409L1002.09 216.474Z" stroke="#003D2E" stroke-width="3" stroke-linecap="round" stroke-linejoin="round"/><path d="M936.59 287.677C938.471 285.796 941 284.694 943.723 284.694C946.447 284.694 948.976 285.731 950.857 287.677C952.737 289.557 953.84 292.086 953.84 294.81C953.84 300.387 949.3 304.861 943.788 304.861C941.065 304.861 938.535 303.824 936.655 301.878C934.774 299.998 933.672 297.469 933.672 294.745C933.672 292.021 934.709 289.492 936.655 287.612L936.59 287.677Z" stroke="#003D2E" stroke-width="3" stroke-linecap="round" stroke-linejoin="round"/><path d="M980.032 121.601C985.739 115.894 985.739 106.556 980.032 100.85C974.326 95.143 964.988 95.143 959.281 100.85C953.574 106.556 953.574 115.894 959.281 121.601C964.988 127.308 974.326 127.308 980.032 121.601Z" fill="#003D2E"/><path d="M761.044 248.573C766.751 242.867 766.751 233.529 761.044 227.822C755.337 222.115 745.999 222.115 740.293 227.822C734.586 233.529 734.586 242.867 740.293 248.573C745.999 254.28 755.337 254.28 761.044 248.573Z" fill="#003D2E"/><path d="M842.95 189.043C846.322 185.671 846.322 180.288 842.95 176.916C839.577 173.544 834.195 173.544 830.823 176.916C827.451 180.288 827.451 185.671 830.823 189.043C834.195 192.415 839.577 192.415 842.95 189.043Z" fill="#003D2E"/><path d="M837.243 200.391V238.392L878.551 279.7V347.337" stroke="#003D2E" stroke-width="3" stroke-linecap="round" stroke-linejoin="round"/><path d="M824.596 170.626C827.903 167.319 832.248 165.503 836.917 165.503C841.586 165.503 845.931 167.319 849.238 170.626C852.545 173.933 854.361 178.278 854.361 182.947C854.361 187.616 852.545 191.961 849.238 195.268C845.931 198.576 841.586 200.391 836.917 200.391C832.248 200.391 827.903 198.576 824.596 195.268C821.288 191.961 819.473 187.616 819.473 182.947C819.473 178.278 821.288 173.933 824.596 170.626Z" stroke="#003D2E" stroke-width="3" stroke-linecap="round" stroke-linejoin="round"/><path d="M762.667 238.198H784.715L845.089 298.571V345.91" stroke="#003D2E" stroke-width="3" stroke-linecap="round" stroke-linejoin="round"/><path d="M1083.79 201.623V235.409L1042.48 276.717V346.105" stroke="#003D2E" stroke-width="3" stroke-linecap="round" stroke-linejoin="round"/><path d="M1009.22 233.658V352.589" stroke="#003D2E" stroke-width="3" stroke-linecap="round" stroke-linejoin="round"/><path d="M945.86 346.364C945.86 346.364 954.745 346.364 954.745 355.183V369.58H932.696V355.183C932.696 350.32 936.652 346.364 941.516 346.364H945.86Z" fill="#003D2E"/><path d="M943.722 304.667V352.719" stroke="#003D2E" stroke-width="3" stroke-linecap="round" stroke-linejoin="round"/><path d="M913.114 346.364C913.114 346.364 921.998 346.364 921.998 355.183V369.58H899.95V355.183C899.95 350.32 903.906 346.364 908.77 346.364H913.114Z" fill="#003D2E"/><path d="M880.367 346.364C880.367 346.364 889.251 346.364 889.251 355.183V369.58H867.203V355.183C867.203 350.32 871.159 346.364 876.022 346.364H880.367Z" fill="#003D2E"/><path d="M847.613 346.364C847.613 346.364 856.498 346.364 856.498 355.183V369.58H834.449V355.183C834.449 350.32 838.405 346.364 843.269 346.364H847.613Z" fill="#003D2E"/><path d="M912.008 258.495V352.849" stroke="#003D2E" stroke-width="3" stroke-linecap="round" stroke-linejoin="round"/><path d="M1083.79 203.245C1093.25 203.245 1100.91 195.58 1100.91 186.125C1100.91 176.67 1093.25 169.005 1083.79 169.005C1074.34 169.005 1066.67 176.67 1066.67 186.125C1066.67 195.58 1074.34 203.245 1083.79 203.245Z" fill="#003D2E"/><path d="M912.009 268.222C919.065 268.222 924.784 262.503 924.784 255.447C924.784 248.392 919.065 242.672 912.009 242.672C904.954 242.672 899.234 248.392 899.234 255.447C899.234 262.503 904.954 268.222 912.009 268.222Z" fill="#003D2E"/><path d="M1372.5 531.051L1354.67 513.218H1261.61L1220.3 554.526H1152.67" stroke="#003D2E" stroke-width="3" stroke-linecap="round" stroke-linejoin="round"/><path d="M1388.71 524.501C1395 524.501 1400.9 526.966 1405.37 531.375C1409.85 535.85 1412.25 541.751 1412.25 548.041C1412.25 554.331 1409.78 560.233 1405.37 564.707C1396.17 573.916 1381.25 573.916 1372.11 564.707C1367.63 560.233 1365.23 554.331 1365.23 548.041C1365.23 541.751 1367.7 535.85 1372.11 531.375C1376.58 526.901 1382.48 524.501 1388.77 524.501H1388.71Z" stroke="#003D2E" stroke-width="3" stroke-linecap="round" stroke-linejoin="round"/><path d="M1267.77 718.008L1202.86 653.095H1153.77" stroke="#003D2E" stroke-width="3" stroke-linecap="round" stroke-linejoin="round"/><path d="M1282.23 718.202C1284.11 720.083 1285.21 722.612 1285.21 725.335C1285.21 728.059 1284.17 730.588 1282.23 732.469C1280.35 734.349 1277.82 735.452 1275.09 735.452C1272.37 735.452 1269.84 734.414 1267.96 732.469C1266.08 730.588 1264.98 728.059 1264.98 725.335C1264.98 722.612 1266.02 720.083 1267.96 718.202C1269.84 716.322 1272.37 715.219 1275.09 715.219C1277.82 715.219 1280.35 716.257 1282.23 718.202Z" stroke="#003D2E" stroke-width="3" stroke-linecap="round" stroke-linejoin="round"/><path d="M1200.26 522.102C1200.26 524.826 1202.47 526.966 1205.13 526.966C1207.79 526.966 1209.99 524.761 1209.99 522.102C1209.99 519.443 1207.79 517.174 1205.13 517.174C1202.47 517.174 1200.26 519.378 1200.26 522.102Z" fill="#003D2E"/><path d="M1271.66 728.772C1273.54 730.653 1276.65 730.653 1278.6 728.772C1280.48 726.892 1280.48 723.779 1278.6 721.834C1276.72 719.953 1273.6 719.953 1271.66 721.834C1269.78 723.714 1269.78 726.827 1271.66 728.772Z" fill="#003D2E"/><path d="M1153.57 622.487C1153.57 622.487 1153.57 631.371 1144.75 631.371H1130.36V609.322H1144.75C1149.62 609.322 1153.57 613.278 1153.57 618.142V622.487Z" fill="#003D2E"/><path d="M1153.57 589.738C1153.57 589.738 1153.57 598.623 1144.75 598.623H1130.36V576.574H1144.75C1149.62 576.574 1153.57 580.53 1153.57 585.394V589.738Z" fill="#003D2E"/><path d="M1153.57 556.99C1153.57 556.99 1153.57 565.874 1144.75 565.874H1130.36V543.826H1144.75C1149.62 543.826 1153.57 547.782 1153.57 552.645V556.99Z" fill="#003D2E"/><path d="M1153.57 655.235C1153.57 655.235 1153.57 664.119 1144.75 664.119H1130.36V642.071H1144.75C1149.62 642.071 1153.57 646.026 1153.57 650.89V655.235Z" fill="#003D2E"/><path d="M1283.46 580.465C1285.34 582.346 1286.44 584.875 1286.44 587.598C1286.44 590.322 1285.41 592.851 1283.46 594.732C1281.58 596.612 1279.05 597.715 1276.33 597.715C1270.75 597.715 1266.28 593.175 1266.28 587.663C1266.28 584.94 1267.31 582.411 1269.26 580.53C1271.14 578.649 1273.67 577.547 1276.39 577.547C1279.12 577.547 1281.65 578.585 1283.53 580.53L1283.46 580.465Z" stroke="#003D2E" stroke-width="3" stroke-linecap="round" stroke-linejoin="round"/><path d="M1212.32 514.969C1214.2 516.849 1215.31 519.378 1215.31 522.102C1215.31 524.826 1214.27 527.355 1212.32 529.235C1210.44 531.116 1207.91 532.218 1205.19 532.218C1199.61 532.218 1195.14 527.679 1195.14 522.167C1195.14 519.443 1196.18 516.914 1198.12 515.034C1200 513.153 1202.53 512.051 1205.26 512.051C1207.98 512.051 1210.51 513.088 1212.39 515.034L1212.32 514.969Z" stroke="#003D2E" stroke-width="3" stroke-linecap="round" stroke-linejoin="round"/><path d="M1378.33 558.417C1384.04 564.123 1393.38 564.123 1399.09 558.417C1404.79 552.71 1404.79 543.372 1399.09 537.666C1393.38 531.959 1384.04 531.959 1378.33 537.666C1372.63 543.372 1372.63 552.71 1378.33 558.417Z" fill="#003D2E"/><path d="M1251.36 339.425C1257.07 345.132 1266.41 345.132 1272.11 339.425C1277.82 333.719 1277.82 324.381 1272.11 318.674C1266.41 312.967 1257.07 312.967 1251.36 318.674C1245.65 324.381 1245.65 333.719 1251.36 339.425Z" fill="#003D2E"/><path d="M1310.89 421.328C1314.27 424.7 1319.65 424.7 1323.02 421.328C1326.39 417.956 1326.39 412.574 1323.02 409.202C1319.65 405.83 1314.27 405.83 1310.89 409.202C1307.52 412.574 1307.52 417.956 1310.89 421.328Z" fill="#003D2E"/><path d="M1299.54 415.622H1261.54L1220.23 456.93H1152.6" stroke="#003D2E" stroke-width="3" stroke-linecap="round" stroke-linejoin="round"/><path d="M1329.31 402.976C1332.62 406.284 1334.43 410.628 1334.43 415.297C1334.43 419.966 1332.62 424.311 1329.31 427.619C1326 430.926 1321.66 432.742 1316.99 432.742C1312.32 432.742 1307.97 430.926 1304.67 427.619C1301.36 424.311 1299.54 419.966 1299.54 415.297C1299.54 410.628 1301.36 406.284 1304.67 402.976C1307.97 399.669 1312.32 397.853 1316.99 397.853C1321.66 397.853 1326 399.669 1329.31 402.976Z" stroke="#003D2E" stroke-width="3" stroke-linecap="round" stroke-linejoin="round"/><path d="M1261.74 341.111V363.16L1201.37 423.533H1154.03" stroke="#003D2E" stroke-width="3" stroke-linecap="round" stroke-linejoin="round"/><path d="M1298.31 662.174H1264.53L1223.22 620.865H1153.83" stroke="#003D2E" stroke-width="3" stroke-linecap="round" stroke-linejoin="round"/><path d="M1266.28 587.598H1147.35" stroke="#003D2E" stroke-width="3" stroke-linecap="round" stroke-linejoin="round"/><path d="M1153.57 524.242C1153.57 524.242 1153.57 533.126 1144.75 533.126H1130.36V511.078H1144.75C1149.62 511.078 1153.57 515.034 1153.57 519.897V524.242Z" fill="#003D2E"/><path d="M1195.27 522.102H1147.21" stroke="#003D2E" stroke-width="3" stroke-linecap="round" stroke-linejoin="round"/><path d="M1153.57 491.494C1153.57 491.494 1153.57 500.378 1144.75 500.378H1130.36V478.33H1144.75C1149.62 478.33 1153.57 482.285 1153.57 487.149V491.494Z" fill="#003D2E"/><path d="M1153.57 458.746C1153.57 458.746 1153.57 467.63 1144.75 467.63H1130.36V445.581H1144.75C1149.62 445.581 1153.57 449.537 1153.57 454.401V458.746Z" fill="#003D2E"/><path d="M1153.57 425.997C1153.57 425.997 1153.57 434.882 1144.75 434.882H1130.36V412.833H1144.75C1149.62 412.833 1153.57 416.789 1153.57 421.653V425.997Z" fill="#003D2E"/><path d="M1241.44 490.391H1147.09" stroke="#003D2E" stroke-width="3" stroke-linecap="round" stroke-linejoin="round"/><path d="M1313.81 679.293C1323.27 679.293 1330.93 671.629 1330.93 662.174C1330.93 652.719 1323.27 645.054 1313.81 645.054C1304.36 645.054 1296.69 652.719 1296.69 662.174C1296.69 671.629 1304.36 679.293 1313.81 679.293Z" fill="#003D2E"/><path d="M1244.49 503.166C1251.54 503.166 1257.26 497.447 1257.26 490.391C1257.26 483.336 1251.54 477.616 1244.49 477.616C1237.43 477.616 1231.71 483.336 1231.71 490.391C1231.71 497.447 1237.43 503.166 1244.49 503.166Z" fill="#003D2E"/><path d="M966.096 952.563L983.929 934.729V841.673L942.621 800.365V732.728" stroke="#003D2E" stroke-width="3" stroke-linecap="round" stroke-linejoin="round"/><path d="M972.71 968.775C972.71 975.065 970.245 980.966 965.836 985.441C961.361 989.915 955.46 992.314 949.17 992.314C942.88 992.314 936.978 989.85 932.504 985.441C923.296 976.232 923.296 961.317 932.504 952.174C936.978 947.699 942.88 945.3 949.17 945.3C955.46 945.3 961.361 947.764 965.836 952.174C970.31 956.648 972.71 962.549 972.71 968.84V968.775Z" stroke="#003D2E" stroke-width="3" stroke-linecap="round" stroke-linejoin="round"/><path d="M779.139 847.898L844.051 782.985V733.895" stroke="#003D2E" stroke-width="3" stroke-linecap="round" stroke-linejoin="round"/><path d="M779.011 862.294C777.131 864.175 774.602 865.277 771.878 865.277C769.154 865.277 766.625 864.24 764.745 862.294C762.864 860.414 761.762 857.885 761.762 855.161C761.762 852.437 762.799 849.908 764.745 848.028C766.625 846.147 769.154 845.045 771.878 845.045C774.602 845.045 777.131 846.082 779.011 848.028C780.892 849.908 781.994 852.437 781.994 855.161C781.994 857.885 780.957 860.414 779.011 862.294Z" stroke="#003D2E" stroke-width="3" stroke-linecap="round" stroke-linejoin="round"/><path d="M975.115 780.327C972.391 780.327 970.251 782.531 970.251 785.19C970.251 787.849 972.456 790.054 975.115 790.054C977.773 790.054 980.043 787.849 980.043 785.19C980.043 782.531 977.838 780.327 975.115 780.327Z" fill="#003D2E"/><path d="M768.377 851.724C766.497 853.605 766.497 856.717 768.377 858.663C770.258 860.543 773.371 860.543 775.316 858.663C777.197 856.782 777.197 853.67 775.316 851.724C773.435 849.844 770.323 849.844 768.377 851.724Z" fill="#003D2E"/><path d="M874.662 733.636C874.662 733.636 865.777 733.636 865.777 724.817V710.42H887.826V724.817C887.826 729.68 883.87 733.636 879.006 733.636H874.662Z" fill="#003D2E"/><path d="M907.41 733.636C907.41 733.636 898.525 733.636 898.525 724.817V710.42H920.574V724.817C920.574 729.68 916.618 733.636 911.754 733.636H907.41Z" fill="#003D2E"/><path d="M940.157 733.636C940.157 733.636 931.272 733.636 931.272 724.817V710.42H953.321V724.817C953.321 729.68 949.365 733.636 944.501 733.636H940.157Z" fill="#003D2E"/><path d="M841.915 733.636C841.915 733.636 833.031 733.636 833.031 724.817V710.42H855.08V724.817C855.08 729.68 851.124 733.636 846.26 733.636H841.915Z" fill="#003D2E"/><path d="M916.75 863.526C914.869 865.407 912.34 866.509 909.616 866.509C906.893 866.509 904.364 865.472 902.483 863.526C900.602 861.646 899.5 859.117 899.5 856.393C899.5 850.816 904.039 846.342 909.551 846.342C912.275 846.342 914.804 847.379 916.685 849.325C918.565 851.205 919.668 853.734 919.668 856.458C919.668 859.182 918.63 861.711 916.685 863.591L916.75 863.526Z" stroke="#003D2E" stroke-width="3" stroke-linecap="round" stroke-linejoin="round"/><path d="M982.18 792.388C980.3 794.269 977.771 795.371 975.047 795.371C972.323 795.371 969.794 794.334 967.914 792.388C966.033 790.508 964.931 787.979 964.931 785.255C964.931 779.678 969.47 775.204 974.982 775.204C977.706 775.204 980.235 776.241 982.115 778.187C983.996 780.067 985.098 782.596 985.098 785.32C985.098 788.043 984.061 790.573 982.115 792.453L982.18 792.388Z" stroke="#003D2E" stroke-width="3" stroke-linecap="round" stroke-linejoin="round"/><path d="M938.794 958.399C933.087 964.106 933.087 973.444 938.794 979.15C944.5 984.857 953.838 984.857 959.545 979.15C965.252 973.444 965.252 964.106 959.545 958.399C953.838 952.692 944.5 952.692 938.794 958.399Z" fill="#003D2E"/><path d="M1157.79 831.427C1152.08 837.133 1152.08 846.471 1157.79 852.178C1163.5 857.885 1172.83 857.885 1178.54 852.178C1184.25 846.471 1184.25 837.133 1178.54 831.427C1172.83 825.72 1163.5 825.72 1157.79 831.427Z" fill="#003D2E"/><path d="M1075.82 891.022C1072.45 894.394 1072.45 899.776 1075.82 903.149C1079.19 906.521 1084.57 906.521 1087.95 903.149C1091.32 899.776 1091.32 894.394 1087.95 891.022C1084.57 887.65 1079.19 887.65 1075.82 891.022Z" fill="#003D2E"/><path d="M1081.53 879.609V841.608L1040.22 800.3V732.663" stroke="#003D2E" stroke-width="3" stroke-linecap="round" stroke-linejoin="round"/><path d="M1094.17 909.374C1090.87 912.681 1086.52 914.497 1081.85 914.497C1077.18 914.497 1072.84 912.681 1069.53 909.374C1066.22 906.067 1064.41 901.722 1064.41 897.053C1064.41 892.384 1066.22 888.039 1069.53 884.732C1072.84 881.424 1077.18 879.609 1081.85 879.609C1086.52 879.609 1090.87 881.424 1094.17 884.732C1097.48 888.039 1099.3 892.384 1099.3 897.053C1099.3 901.722 1097.48 906.067 1094.17 909.374Z" stroke="#003D2E" stroke-width="3" stroke-linecap="round" stroke-linejoin="round"/><path d="M1156.1 841.802H1134.05L1073.68 781.429V734.09" stroke="#003D2E" stroke-width="3" stroke-linecap="round" stroke-linejoin="round"/><path d="M834.976 878.377V844.591L876.284 803.283V733.895" stroke="#003D2E" stroke-width="3" stroke-linecap="round" stroke-linejoin="round"/><path d="M909.551 846.342V727.411" stroke="#003D2E" stroke-width="3" stroke-linecap="round" stroke-linejoin="round"/><path d="M972.91 733.636C972.91 733.636 964.025 733.636 964.025 724.817V710.42H986.074V724.817C986.074 729.68 982.118 733.636 977.254 733.636H972.91Z" fill="#003D2E"/><path d="M975.044 775.398V727.346" stroke="#003D2E" stroke-width="3" stroke-linecap="round" stroke-linejoin="round"/><path d="M1005.66 733.636C1005.66 733.636 996.772 733.636 996.772 724.817V710.42H1018.82V724.817C1018.82 729.68 1014.87 733.636 1010 733.636H1005.66Z" fill="#003D2E"/><path d="M1038.4 733.636C1038.4 733.636 1029.52 733.636 1029.52 724.817V710.42H1051.57V724.817C1051.57 729.68 1047.61 733.636 1042.75 733.636H1038.4Z" fill="#003D2E"/><path d="M1071.15 733.636C1071.15 733.636 1062.27 733.636 1062.27 724.817V710.42H1084.31V724.817C1084.31 729.68 1080.36 733.636 1075.49 733.636H1071.15Z" fill="#003D2E"/><path d="M1006.76 821.505V727.151" stroke="#003D2E" stroke-width="3" stroke-linecap="round" stroke-linejoin="round"/><path d="M834.977 910.995C844.432 910.995 852.097 903.33 852.097 893.875C852.097 884.42 844.432 876.755 834.977 876.755C825.522 876.755 817.857 884.42 817.857 893.875C817.857 903.33 825.522 910.995 834.977 910.995Z" fill="#003D2E"/><path d="M1006.75 837.328C1013.81 837.328 1019.53 831.608 1019.53 824.553C1019.53 817.497 1013.81 811.778 1006.75 811.778C999.699 811.778 993.979 817.497 993.979 824.553C993.979 831.608 999.699 837.328 1006.75 837.328Z" fill="#003D2E"/><path d="M1050.1 580.144C1044.53 580.144 1039.38 579.135 1034.65 577.116C1029.99 575.098 1025.88 572.279 1022.33 568.659C1018.85 565.04 1016.13 560.794 1014.19 555.922C1012.24 551.05 1011.26 545.725 1011.26 539.948C1011.26 534.171 1012.2 528.846 1014.08 523.974C1016.03 519.032 1018.74 514.786 1022.22 511.236C1025.77 507.617 1029.92 504.833 1034.65 502.884C1039.38 500.865 1044.53 499.856 1050.1 499.856C1055.67 499.856 1060.65 500.796 1065.03 502.675C1069.49 504.554 1073.24 507.06 1076.31 510.192C1079.37 513.255 1081.56 516.63 1082.88 520.319L1070.15 526.271C1068.69 522.373 1066.21 519.171 1062.73 516.665C1059.25 514.09 1055.04 512.802 1050.1 512.802C1045.23 512.802 1040.91 513.951 1037.15 516.248C1033.47 518.545 1030.58 521.712 1028.49 525.749C1026.47 529.786 1025.46 534.519 1025.46 539.948C1025.46 545.377 1026.47 550.145 1028.49 554.251C1030.58 558.288 1033.47 561.455 1037.15 563.752C1040.91 566.049 1045.23 567.198 1050.1 567.198C1055.04 567.198 1059.25 565.945 1062.73 563.439C1066.21 560.864 1068.69 557.627 1070.15 553.729L1082.88 559.681C1081.56 563.37 1079.37 566.78 1076.31 569.912C1073.24 572.975 1069.49 575.446 1065.03 577.325C1060.65 579.204 1055.67 580.144 1050.1 580.144Z" fill="#003B2F"/><path d="M984.397 578.891V501.109H998.597V578.891H984.397Z" fill="#003B2F"/><path d="M944.571 580.144C939.629 580.144 935.035 579.239 930.789 577.43C926.613 575.62 922.994 573.114 919.931 569.912C916.938 566.641 914.746 562.848 913.354 558.532L925.151 553.416C927.031 557.871 929.745 561.386 933.295 563.961C936.845 566.467 940.847 567.72 945.302 567.72C947.808 567.72 949.965 567.337 951.775 566.571C953.654 565.736 955.081 564.622 956.056 563.23C957.1 561.838 957.622 560.168 957.622 558.219C957.622 555.922 956.926 554.043 955.534 552.581C954.211 551.05 952.193 549.866 949.478 549.031L934.548 544.228C928.492 542.349 923.933 539.53 920.871 535.772C917.808 532.013 916.277 527.593 916.277 522.512C916.277 518.057 917.356 514.125 919.513 510.714C921.741 507.303 924.803 504.659 928.701 502.779C932.669 500.83 937.193 499.856 942.274 499.856C946.937 499.856 951.218 500.691 955.116 502.362C959.014 503.963 962.355 506.225 965.139 509.148C967.993 512.002 970.116 515.378 971.508 519.275L959.814 524.496C958.283 520.598 955.986 517.605 952.923 515.517C949.861 513.359 946.311 512.28 942.274 512.28C939.907 512.28 937.819 512.698 936.01 513.533C934.2 514.299 932.773 515.412 931.729 516.874C930.755 518.266 930.267 519.937 930.267 521.886C930.267 524.043 930.963 525.957 932.355 527.628C933.748 529.229 935.87 530.482 938.724 531.386L953.028 535.876C959.223 537.894 963.851 540.679 966.914 544.228C970.046 547.778 971.612 552.163 971.612 557.384C971.612 561.838 970.464 565.771 968.167 569.181C965.87 572.592 962.703 575.272 958.666 577.221C954.629 579.17 949.93 580.144 944.571 580.144Z" fill="#003B2F"/><path d="M862.179 549.658H884.104L873.141 516.874L862.179 549.658ZM837.121 578.891L863.953 501.109H882.329L909.161 578.891H893.709L888.176 562.186H858.107L852.469 578.891H837.121Z" fill="#003B2F"/><path d="M494.354 777.228H455.58C467.792 777.228 477.863 767.283 477.863 754.946C477.863 742.609 467.917 732.663 455.58 732.663H344.168C331.956 732.663 321.885 742.609 321.885 754.946H287.643C275.432 754.946 265.36 764.891 265.36 777.228C265.36 789.566 275.306 799.511 287.643 799.511H360.659C360.659 811.722 370.604 821.793 382.942 821.793H494.354C506.566 821.793 516.637 811.848 516.637 799.511C516.637 787.174 506.692 777.228 494.354 777.228Z" fill="#03FC9D"/><path d="M211.434 868.747H405.179C426.524 868.747 443.827 851.444 443.827 830.099C443.827 808.754 426.524 791.451 405.179 791.451H211.434C190.089 791.451 172.786 808.754 172.786 830.099C172.786 851.444 190.089 868.747 211.434 868.747Z" fill="#E6E8EA"/><path d="M1393.47 287.952H1535.23C1550.83 287.952 1563.47 275.311 1563.47 259.718V259.619C1563.47 244.025 1550.83 231.384 1535.23 231.384L1393.47 231.384C1377.87 231.384 1365.23 244.025 1365.23 259.619V259.718C1365.23 275.311 1377.87 287.952 1393.47 287.952Z" fill="#03FC9D"/><path d="M1470.44 244.56L1702.46 244.56C1728.01 244.56 1748.73 223.847 1748.73 198.296C1748.73 172.744 1728.01 152.031 1702.46 152.031L1470.44 152.031C1444.89 152.031 1424.18 172.744 1424.18 198.296C1424.18 223.847 1444.89 244.56 1470.44 244.56Z" fill="#03FC9D"/><path d="M1469.01 815.76H1712.97" stroke="#03FC9D" stroke-width="3" stroke-linecap="round" stroke-linejoin="round"/><path d="M1440.21 848.458H1576.64" stroke="#003B2F" stroke-width="3" stroke-linecap="round" stroke-linejoin="round"/><path d="M401.55 244.56H479.079" stroke="#003B2F" stroke-width="3" stroke-linecap="round" stroke-linejoin="round"/><path d="M342.599 244.56H362.096" stroke="#003B2F" stroke-width="3" stroke-linecap="round" stroke-linejoin="round"/><path d="M354.1 195.387H555.147" stroke="#03FC9D" stroke-width="3" stroke-linecap="round" stroke-linejoin="round"/><path d="M1597.53 633.402L1623.09 648.171" stroke="#003B2F" stroke-width="3" stroke-linecap="round" stroke-linejoin="round"/><path d="M1648.76 633.402L1633.69 642.06" stroke="#003B2F" stroke-width="3" stroke-linecap="round" stroke-linejoin="round"/><path d="M1623.09 648.172V678.014" stroke="#003B2F" stroke-width="3" stroke-linecap="round" stroke-linejoin="round"/><path d="M616.508 902.97L635.488 921.95L654.468 902.97L635.488 883.991L616.508 902.97Z" stroke="#003B2F" stroke-width="3" stroke-miterlimit="10" stroke-linecap="round" stroke-linejoin="round"/><path d="M265.412 406.673V430.761" stroke="#003B2F" stroke-width="3" stroke-linecap="round" stroke-linejoin="round"/><path d="M265.412 448.392V472.583" stroke="#003B2F" stroke-width="3" stroke-linecap="round" stroke-linejoin="round"/><path d="M232.405 439.576H256.596" stroke="#003B2F" stroke-width="3" stroke-linecap="round" stroke-linejoin="round"/><path d="M274.228 439.576H298.316" stroke="#003B2F" stroke-width="3" stroke-linecap="round" stroke-linejoin="round"/></svg>