<svg width="1920" height="1080" viewBox="0 0 1920 1080" fill="none" xmlns="http://www.w3.org/2000/svg"><path d="M408.321 619.351H489.155" stroke="#003B2F" stroke-width="3" stroke-linecap="round" stroke-linejoin="round"/><path d="M346.993 619.351H367.332" stroke="#003B2F" stroke-width="3" stroke-linecap="round" stroke-linejoin="round"/><path d="M236.438 863.728H276.281" stroke="#003B2F" stroke-width="3" stroke-linecap="round" stroke-linejoin="round"/><path d="M104.392 795.723H393.41" stroke="#03FC9D" stroke-width="3" stroke-linecap="round" stroke-linejoin="round"/><path d="M327.905 863.519H489.468" stroke="#003B2F" stroke-width="3" stroke-linecap="round" stroke-linejoin="round"/><path d="M227.678 545.192L246.765 564.279" stroke="#003B2F" stroke-width="3" stroke-linecap="round" stroke-linejoin="round"/><path d="M260.74 578.254L279.827 597.341" stroke="#003B2F" stroke-width="3" stroke-linecap="round" stroke-linejoin="round"/><path d="M227.678 597.341L246.765 578.254" stroke="#003B2F" stroke-width="3" stroke-linecap="round" stroke-linejoin="round"/><path d="M260.74 564.279L279.827 545.192" stroke="#003B2F" stroke-width="3" stroke-linecap="round" stroke-linejoin="round"/><path d="M1783.54 844.642V871.552" stroke="#003B2F" stroke-width="3" stroke-linecap="round" stroke-linejoin="round"/><path d="M1783.54 891.264V918.278" stroke="#003B2F" stroke-width="3" stroke-linecap="round" stroke-linejoin="round"/><path d="M1746.72 881.461H1773.73" stroke="#003B2F" stroke-width="3" stroke-linecap="round" stroke-linejoin="round"/><path d="M1793.45 881.461H1820.46" stroke="#003B2F" stroke-width="3" stroke-linecap="round" stroke-linejoin="round"/><path d="M1367.17 168.771L1396.06 185.459" stroke="#003B2F" stroke-width="3" stroke-linecap="round" stroke-linejoin="round"/><path d="M1424.95 168.771L1408.05 178.575" stroke="#003B2F" stroke-width="3" stroke-linecap="round" stroke-linejoin="round"/><path d="M1396.05 185.457V219.251" stroke="#003B2F" stroke-width="3" stroke-linecap="round" stroke-linejoin="round"/><path d="M87.2848 205.067H133.282C118.784 205.067 106.998 193.281 106.998 178.783C106.998 164.285 118.784 152.499 133.282 152.499H265.222C279.72 152.499 291.506 164.285 291.506 178.783H331.975C346.473 178.783 358.259 190.569 358.259 205.067C358.259 219.565 346.473 231.351 331.975 231.351H245.51C245.51 245.848 233.724 257.635 219.226 257.635H87.2848C72.787 257.635 61.001 245.848 61.001 231.351C61.001 216.853 72.787 205.067 87.2848 205.067Z" fill="#E6E8EA"/><path d="M460.785 218.313H231.114C205.826 218.313 185.326 238.814 185.326 264.102C185.326 289.39 205.826 309.89 231.114 309.89H460.785C486.073 309.89 506.574 289.39 506.574 264.102C506.574 238.814 486.073 218.313 460.785 218.313Z" fill="#03FC9D"/><path d="M729.26 465.611H615.885L629.444 490.33L619.535 851.525H725.505L715.597 490.33L729.26 465.611Z" fill="#03FC9D"/><path d="M925.555 465.611H812.284L825.843 490.33L815.935 851.525H921.905L911.996 490.33L925.555 465.611Z" fill="#03FC9D"/><path d="M1121.96 465.611H1008.58L1022.14 490.33L1012.34 851.525H1118.2L1108.4 490.33L1121.96 465.611Z" fill="#03FC9D"/><path d="M1318.36 465.611H1204.98L1218.54 490.33L1208.63 851.525H1314.6L1304.69 490.33L1318.36 465.611Z" fill="#03FC9D"/><path d="M1858.06 497.956L1836.38 476.273L1814.7 497.956L1836.38 519.639L1858.06 497.956Z" stroke="#003B2F" stroke-width="3" stroke-linecap="round" stroke-linejoin="round"/><path d="M1690.19 570.224H1641.58C1657.02 570.224 1669.43 558.855 1669.43 544.879C1669.43 530.903 1656.91 519.534 1641.58 519.534H1501.92C1486.49 519.534 1474.07 530.903 1474.07 544.879H1431.21C1415.77 544.879 1403.36 556.248 1403.36 570.224C1403.36 584.201 1415.87 595.569 1431.21 595.569H1522.68C1522.68 609.546 1535.19 620.915 1550.53 620.915H1690.19C1705.62 620.915 1718.03 609.546 1718.03 595.569C1718.03 581.593 1705.52 570.224 1690.19 570.224Z" fill="#E6E8EA"/><path d="M1605.29 552.181H1640.12" stroke="#003B2F" stroke-width="3" stroke-linecap="round" stroke-linejoin="round"/><path d="M1554.91 459.456H1807.32" stroke="#03FC9D" stroke-width="3" stroke-linecap="round" stroke-linejoin="round"/><path d="M1685.17 551.973H1826.19" stroke="#003B2F" stroke-width="3" stroke-linecap="round" stroke-linejoin="round"/><path d="M1392.51 900.128H561.436C550.548 900.128 541.723 908.954 541.723 919.841V955.721C541.723 966.608 550.548 975.434 561.436 975.434H1392.51C1403.39 975.434 1412.22 966.608 1412.22 955.721V919.841C1412.22 908.954 1403.39 900.128 1392.51 900.128Z" stroke="#003B2F" stroke-width="3" stroke-linecap="round" stroke-linejoin="round"/><path d="M629.441 862.684L639.35 501.49H725.503L735.411 862.684H629.441Z" stroke="#003B2F" stroke-width="3" stroke-linecap="round" stroke-linejoin="round"/><path d="M639.348 501.49L619.531 465.611H745.318L725.501 501.49H639.348Z" stroke="#003B2F" stroke-width="3" stroke-linecap="round" stroke-linejoin="round"/><path d="M825.841 862.684L835.645 501.49H921.902L931.706 862.684H825.841Z" stroke="#003B2F" stroke-width="3" stroke-linecap="round" stroke-linejoin="round"/><path d="M835.644 501.49L815.931 465.611H941.613L921.901 501.49H835.644Z" stroke="#003B2F" stroke-width="3" stroke-linecap="round" stroke-linejoin="round"/><path d="M1022.14 862.684L1032.05 501.49H1118.2L1128.11 862.684H1022.14Z" stroke="#003B2F" stroke-width="3" stroke-linecap="round" stroke-linejoin="round"/><path d="M1032.04 501.49L1012.33 465.611H1138.01L1118.2 501.49H1032.04Z" stroke="#003B2F" stroke-width="3" stroke-linecap="round" stroke-linejoin="round"/><path d="M1218.54 862.684L1228.45 501.49H1314.6L1324.51 862.684H1218.54Z" stroke="#003B2F" stroke-width="3" stroke-linecap="round" stroke-linejoin="round"/><path d="M1228.45 501.49L1208.63 465.611H1334.42L1314.6 501.49H1228.45Z" stroke="#003B2F" stroke-width="3" stroke-linecap="round" stroke-linejoin="round"/><path d="M1367.16 332.836H586.784V465.611H1367.16V332.836Z" stroke="#003B2F" stroke-width="3" stroke-linecap="round" stroke-linejoin="round"/><path d="M586.784 332.836L976.975 105.563L1367.16 332.836H586.784Z" fill="white"/><path d="M683.367 276.617L976.975 105.563L1367.16 332.836H586.784L658.335 291.219" stroke="#003B2F" stroke-width="3" stroke-linecap="round" stroke-linejoin="round"/><path d="M715.388 295.392L976.975 143.008L1238.56 295.392" stroke="#003B2F" stroke-width="3" stroke-linecap="round" stroke-linejoin="round"/><path d="M748.14 862.686H609.732V900.13H1344.22V862.686H777.761" stroke="#003B2F" stroke-width="3" stroke-linecap="round" stroke-linejoin="round"/><path d="M982.555 472.898C1049.94 469.814 1102.06 412.689 1098.98 345.306C1095.9 277.922 1038.77 225.796 971.389 228.88C904.005 231.963 851.88 289.088 854.963 356.472C858.046 423.855 915.171 475.981 982.555 472.898Z" fill="white"/><path d="M982.555 472.898C1049.94 469.814 1102.06 412.689 1098.98 345.306C1095.9 277.922 1038.77 225.796 971.389 228.88C904.005 231.963 851.88 289.088 854.963 356.472C858.046 423.855 915.171 475.981 982.555 472.898Z" stroke="#003B2F" stroke-width="3" stroke-linecap="round" stroke-linejoin="round"/><path d="M1048.16 326.855V289.994C1048.16 283.958 1043.1 279 1037.17 279H916.994C910.958 279 906 284.066 906 289.994V411.141C906 417.176 911.066 422.134 916.994 422.134H1037.17C1043.21 422.134 1048.16 417.069 1048.16 411.141V374.279H1022.62C1014.11 390.554 996.752 401.871 976.92 401.871C948.574 401.871 925.724 379.022 925.724 350.459C925.724 321.897 948.574 299.047 976.92 299.047C996.752 299.047 1013.78 310.365 1022.62 326.64H1048.16V326.855Z" fill="#03FC9D"/><path d="M962.042 357.466H982.305V352.724H960.749C960.749 351.754 960.534 350.999 960.534 350.46C960.534 349.921 960.533 349.167 960.749 348.197H982.305V343.454H962.042C963.336 340.437 965.599 338.173 968.294 336.449C971.096 334.724 974.33 333.97 978.102 333.97C983.383 333.97 987.587 335.694 991.144 339.467L996.964 334.185C994.7 331.706 991.898 329.658 988.449 328.149C985.216 326.856 981.443 326.102 977.455 326.102C973.467 326.102 969.695 326.856 966.138 328.365C962.581 329.874 959.563 331.922 957.408 334.401C955.252 336.88 953.42 340.221 952.342 343.454H944.366V348.197H951.372V352.724H944.366V357.466H952.342C953.312 361.023 955.144 364.041 957.408 366.52C959.671 368.999 962.689 371.262 966.138 372.556C969.695 374.065 973.36 374.819 977.455 374.819C981.551 374.819 985.216 374.065 988.449 372.771C991.682 371.478 994.7 369.538 996.964 366.735L991.144 361.238C987.587 365.011 983.168 366.735 978.102 366.735C974.33 366.735 971.096 365.981 968.294 364.256C965.491 362.963 963.228 360.484 962.042 357.466ZM1048.05 342.7H1022.94V358.544H1048.05V342.7Z" fill="#003B2F"/><path d="M498.552 426.186C508.043 435.677 495.318 463.839 469.973 488.975C444.732 514.112 416.571 526.732 407.08 517.241L395.711 505.455C397.797 507.436 400.613 508.479 403.951 508.584C416.988 509.21 438.892 497.111 458.917 477.189C478.63 457.58 490.834 436.199 490.729 423.057C490.729 419.302 489.686 416.277 487.496 414.087L498.447 426.186H498.552Z" fill="#9FB4AD"/><path d="M487.489 414.086C489.679 416.276 490.618 419.301 490.722 423.056C490.722 436.094 478.623 457.58 458.91 477.188C438.885 497.11 416.981 509.209 403.944 508.583C400.606 508.583 397.79 507.436 395.704 505.454C386.108 495.858 399.042 467.593 424.387 442.352C449.732 417.111 477.998 404.49 487.489 414.086Z" fill="#E6E8EA"/><path d="M487.6 414.087L498.552 426.186C508.043 435.677 495.318 463.839 469.973 488.975C444.732 514.112 416.571 526.732 407.08 517.241L395.711 505.455" stroke="#003B2F" stroke-width="3" stroke-linecap="round" stroke-linejoin="round"/><path d="M487.489 414.086C489.679 416.276 490.618 419.301 490.722 423.056C490.722 436.094 478.623 457.58 458.91 477.188C438.885 497.11 416.981 509.209 403.944 508.583C400.606 508.583 397.79 507.436 395.704 505.454C386.108 495.858 399.042 467.593 424.387 442.352C449.732 417.111 477.998 404.49 487.489 414.086Z" stroke="#003B2F" stroke-width="3" stroke-linecap="round" stroke-linejoin="round"/><path d="M490.622 423.056C490.622 436.094 478.523 457.58 458.81 477.188C438.785 497.11 416.777 509.313 403.844 508.583C400.402 508.479 397.69 507.436 395.604 505.454C386.008 495.858 398.837 467.593 424.287 442.352C449.632 417.111 478.002 404.49 487.493 413.982C489.683 416.172 490.622 419.197 490.622 422.952V423.056Z" stroke="#003B2F" stroke-width="3" stroke-linecap="round" stroke-linejoin="round"/><path d="M408.959 503.263C407.186 503.576 405.517 503.785 404.162 503.68C401.867 503.68 400.198 503.055 399.155 501.907C396.235 498.987 397.069 491.269 401.345 481.777C406.56 470.408 415.843 457.579 427.734 445.793C443.692 429.94 461.527 418.466 474.252 416.172C476.964 415.65 481.762 415.233 484.056 417.528C485.203 418.675 485.725 420.448 485.725 423.056C485.725 435.05 473.313 455.806 455.373 473.642C439.415 489.495 421.684 500.864 408.959 503.263Z" stroke="#003B2F" stroke-width="3" stroke-linecap="round" stroke-linejoin="round"/><path d="M456.933 460.814L466.007 451.427C467.467 449.862 468.093 447.985 467.259 447.255L451.301 431.818C450.466 431.088 448.589 431.714 447.129 433.174L417.403 463.943C415.942 465.507 415.317 467.385 416.151 468.115L432.109 483.551C432.944 484.282 434.821 483.656 436.281 482.196L445.355 472.808L441.913 469.575C436.803 472.6 431.692 473.226 429.084 470.722C425.33 467.072 427.937 458.415 434.925 451.114C441.913 443.813 450.57 440.997 454.325 444.647C456.933 447.15 456.411 452.261 453.595 457.476L457.037 460.71L456.933 460.814Z" fill="#003B2F"/><path d="M438.05 457.581L440.762 460.188L441.909 458.937L439.093 456.12C439.093 456.12 439.51 455.599 439.614 455.495C439.719 455.39 439.927 455.182 440.24 454.973L443.056 457.789L444.204 456.538L441.492 453.93C442.43 453.304 443.265 452.991 443.995 452.991C444.829 452.991 445.455 453.096 445.872 453.617C446.602 454.243 446.707 455.286 446.289 456.642L448.376 456.016C448.688 455.077 448.793 454.243 448.688 453.409C448.584 452.678 448.271 451.948 447.75 451.531C447.228 451.114 446.498 450.697 445.664 450.697C444.829 450.697 443.891 450.697 443.056 451.114C442.222 451.531 441.074 452.053 440.136 452.783L439.093 451.74L437.945 452.991L438.884 453.93L437.737 455.077L436.798 454.139L435.651 455.39L436.694 456.433C435.964 457.476 435.442 458.415 435.129 459.354C434.816 460.292 434.608 461.231 434.816 461.961C434.816 462.796 435.234 463.421 435.755 463.943C436.277 464.464 437.007 464.777 437.737 464.882C438.467 464.986 439.406 464.882 440.344 464.465L440.97 462.274C439.614 462.796 438.571 462.691 437.841 461.961C437.32 461.44 437.111 460.918 437.111 460.084C437.111 459.458 437.32 458.519 437.945 457.581M452.965 464.882L449.627 461.648L445.768 465.612L449.106 468.845L452.965 464.882Z" fill="#9FB4AD"/><path d="M287.853 696.222C300.786 692.571 319.039 717.603 328.53 751.918C338.021 786.233 335.205 817.002 322.272 820.548L306.418 824.616C309.13 823.782 311.425 821.904 313.198 818.984C320.082 807.928 320.29 782.896 312.781 755.673C305.375 728.868 292.755 707.799 281.282 701.437C278.048 699.663 274.815 699.038 271.895 699.768L287.853 696.117V696.222Z" fill="#9FB4AD"/><path d="M271.898 699.872C274.818 699.037 277.948 699.663 281.285 701.541C292.758 707.903 305.379 729.076 312.784 755.777C320.398 783 320.085 808.032 313.201 819.088C311.428 822.008 309.238 823.886 306.422 824.72C293.384 828.371 275.131 803.234 265.536 768.711C255.94 734.291 258.86 703.418 271.898 699.768V699.872Z" fill="#E6E8EA"/><path d="M271.895 699.872L287.853 696.222C300.786 692.571 319.039 717.603 328.53 751.918C338.021 786.233 335.205 817.002 322.272 820.548L306.418 824.616" stroke="#003B2F" stroke-width="3" stroke-linecap="round" stroke-linejoin="round"/><path d="M271.898 699.872C274.818 699.037 277.948 699.663 281.285 701.541C292.758 707.903 305.379 729.076 312.784 755.777C320.398 783 320.085 808.032 313.201 819.088C311.428 822.008 309.238 823.886 306.422 824.72C293.384 828.371 275.131 803.234 265.536 768.711C255.94 734.291 258.86 703.418 271.898 699.768V699.872Z" stroke="#003B2F" stroke-width="3" stroke-linecap="round" stroke-linejoin="round"/><path d="M281.281 701.541C292.754 707.903 305.375 728.972 312.78 755.777C320.394 783 320.081 808.136 313.197 819.088C311.424 822.008 309.129 823.886 306.418 824.72C293.38 828.371 275.023 803.339 265.532 768.815C256.04 734.291 258.856 703.418 271.894 699.872C274.814 699.037 277.943 699.663 281.281 701.541Z" stroke="#003B2F" stroke-width="3" stroke-linecap="round" stroke-linejoin="round"/><path d="M311.112 812.099C310.486 813.768 309.861 815.333 309.13 816.48C307.983 818.462 306.627 819.609 305.167 820.026C301.204 821.069 294.841 816.584 288.687 808.136C281.282 798.019 274.815 783.625 270.33 767.458C264.385 745.764 263.134 724.591 267.306 712.387C268.244 709.884 270.122 705.399 273.251 704.565C274.815 704.148 276.693 704.565 278.883 705.817C289.313 711.657 301.308 732.726 308.087 757.133C314.137 778.827 315.284 799.896 311.112 812.099Z" stroke="#003B2F" stroke-width="3" stroke-linecap="round" stroke-linejoin="round"/><path d="M297.657 749.415L293.902 736.899C293.276 734.813 291.921 733.457 290.878 733.77L269.6 740.133C268.557 740.445 268.14 742.427 268.766 744.409L280.969 785.399C281.595 787.485 282.951 788.841 283.994 788.528L305.271 782.166C306.314 781.853 306.731 779.871 306.105 777.889L302.351 765.373L297.866 766.729C297.97 772.674 296.093 777.472 292.546 778.515C287.54 779.975 281.178 773.509 278.361 763.809C275.545 754.109 277.214 745.243 282.221 743.679C285.767 742.636 289.835 745.556 293.068 750.563L297.553 749.207L297.657 749.415Z" fill="#003B2F"/><path d="M285.452 764.331L288.998 763.288L288.477 761.724L284.618 762.871C284.618 762.871 284.409 762.245 284.305 762.141C284.201 762.037 284.201 761.724 284.096 761.411L287.955 760.264L287.434 758.699L283.888 759.742C283.888 758.699 283.888 757.76 284.305 757.03C284.618 756.3 285.139 755.883 285.765 755.674C286.704 755.361 287.642 755.674 288.581 756.822L289.103 754.736C288.477 754.006 287.747 753.484 287.017 753.171C286.287 752.963 285.556 752.858 284.826 753.171C284.096 753.484 283.575 753.797 283.053 754.527C282.532 755.257 282.219 756.092 282.115 757.03C282.01 757.969 282.01 759.221 282.115 760.368L280.654 760.785L281.176 762.35L282.427 761.932L282.845 763.497L281.593 763.914L282.115 765.479L283.575 765.061C284.096 766.209 284.722 767.147 285.348 767.878C285.974 768.608 286.808 769.233 287.538 769.442C288.268 769.755 289.103 769.859 289.728 769.651C290.354 769.442 290.98 769.025 291.502 768.399C292.023 767.773 292.232 766.939 292.44 765.896L290.876 764.331C290.667 765.792 290.041 766.626 289.103 766.835C288.477 767.043 287.747 766.939 287.121 766.522C286.495 766.209 285.869 765.479 285.348 764.54M299.116 755.048L294.631 756.404L296.195 761.724L300.68 760.368L299.116 755.048Z" fill="#9FB4AD"/><path d="M1536.14 815.437C1529.46 827.118 1498.9 822.008 1468.13 804.172C1437.26 786.232 1417.75 762.348 1424.53 750.77L1432.98 736.689C1431.63 739.193 1431.31 742.113 1432.04 745.451C1434.86 758.175 1452.17 776.22 1476.68 790.404C1500.78 804.381 1524.56 810.535 1537.18 807.093C1540.73 806.05 1543.44 804.381 1545 801.669L1536.14 815.437Z" fill="#9FB4AD"/><path d="M1545 801.772C1543.54 804.38 1540.83 806.153 1537.18 807.196C1524.56 810.638 1500.67 804.484 1476.68 790.508C1452.17 776.323 1434.86 758.279 1432.04 745.554C1431.31 742.32 1431.52 739.296 1432.98 736.793C1439.76 725.006 1470.42 730.222 1501.4 748.161C1532.38 766.101 1551.88 790.09 1545.1 801.772H1545Z" fill="#E6E8EA"/><path d="M1545 801.774L1536.14 815.541C1529.46 827.223 1498.9 822.112 1468.13 804.277C1437.26 786.337 1417.75 762.452 1424.53 750.875L1432.98 736.794" stroke="#003B2F" stroke-width="3" stroke-linecap="round" stroke-linejoin="round"/><path d="M1545 801.772C1543.54 804.38 1540.83 806.153 1537.18 807.196C1524.56 810.638 1500.67 804.484 1476.68 790.508C1452.17 776.323 1434.86 758.279 1432.04 745.554C1431.31 742.32 1431.52 739.296 1432.98 736.793C1439.76 725.006 1470.42 730.222 1501.4 748.161C1532.38 766.101 1551.88 790.09 1545.1 801.772H1545Z" stroke="#003B2F" stroke-width="3" stroke-linecap="round" stroke-linejoin="round"/><path d="M1537.07 807.092C1524.45 810.534 1500.67 804.38 1476.58 790.404C1452.07 776.219 1434.76 758.175 1431.94 745.45C1431.21 742.113 1431.42 739.192 1432.88 736.689C1439.66 724.903 1470.22 730.014 1501.2 747.953C1532.17 765.893 1551.78 789.987 1544.9 801.668C1543.44 804.276 1540.73 806.049 1537.07 806.988V807.092Z" stroke="#003B2F" stroke-width="3" stroke-linecap="round" stroke-linejoin="round"/><path d="M1438.41 748.996C1437.68 747.431 1437.05 745.762 1436.74 744.407C1436.22 742.216 1436.32 740.443 1437.16 739.087C1439.24 735.541 1446.96 734.289 1457.18 736.062C1469.49 738.148 1484.3 743.885 1498.8 752.229C1518.3 763.598 1533.95 777.783 1539.48 789.465C1540.62 791.864 1542.4 796.453 1540.73 799.269C1539.89 800.625 1538.33 801.668 1535.93 802.294C1524.35 805.423 1501.09 798.747 1479.19 786.127C1459.68 774.862 1444.14 760.677 1438.51 748.996H1438.41Z" stroke="#003B2F" stroke-width="3" stroke-linecap="round" stroke-linejoin="round"/><path d="M1491.91 784.354L1503.28 790.612C1505.15 791.655 1507.14 791.655 1507.66 790.716L1518.4 771.316C1518.92 770.377 1517.88 768.709 1516 767.666L1478.56 746.91C1476.68 745.867 1474.7 745.867 1474.18 746.805L1463.43 766.205C1462.91 767.144 1463.96 768.813 1465.83 769.856L1477.2 776.114L1479.5 771.942C1475.22 767.77 1473.24 763.076 1475.01 759.843C1477.51 755.254 1486.59 755.462 1495.45 760.364C1504.32 765.267 1509.33 772.881 1506.72 777.365C1504.95 780.599 1499.94 781.433 1494.1 779.973L1491.8 784.145L1491.91 784.354Z" fill="#003B2F"/><path d="M1490.13 765.163L1488.36 768.397L1489.82 769.231L1491.7 765.789C1491.7 765.789 1492.22 765.998 1492.43 766.102C1492.63 766.206 1492.84 766.311 1493.05 766.519L1491.17 769.961L1492.63 770.796L1494.41 767.562C1495.24 768.292 1495.76 769.022 1495.97 769.753C1496.28 770.483 1496.18 771.108 1495.97 771.734C1495.45 772.569 1494.62 772.986 1493.05 772.882L1494.2 774.759C1495.14 774.759 1496.08 774.759 1496.81 774.446C1497.54 774.133 1498.06 773.612 1498.37 772.986C1498.68 772.36 1498.79 771.63 1498.68 770.796C1498.58 769.961 1498.16 769.127 1497.64 768.397C1497.12 767.667 1496.18 766.728 1495.35 765.998L1496.08 764.746L1494.62 763.912L1493.99 765.059L1492.63 764.329L1493.26 763.182L1491.8 762.347L1491.07 763.599C1489.92 763.182 1488.78 762.973 1487.84 762.869C1486.9 762.764 1485.85 762.869 1485.23 763.286C1484.5 763.599 1483.87 764.12 1483.56 764.746C1483.25 765.372 1483.14 766.102 1483.14 766.832C1483.14 767.562 1483.56 768.397 1484.29 769.231H1486.48C1485.65 768.084 1485.54 767.041 1485.96 766.206C1486.27 765.581 1486.79 765.163 1487.63 765.059C1488.25 764.85 1489.19 764.85 1490.24 765.163M1487.11 781.539L1489.3 777.471L1484.39 774.759L1482.2 778.827L1487.11 781.539Z" fill="#9FB4AD"/><path d="M1675.8 255.133C1684.87 265.041 1670.89 292.577 1644.51 316.566C1618.12 340.555 1589.44 351.924 1580.47 342.12L1569.62 329.812C1571.6 331.898 1574.31 333.046 1577.75 333.359C1590.69 334.506 1613.11 323.45 1634.08 304.363C1654.62 285.589 1667.77 264.729 1668.18 251.691C1668.29 247.936 1667.45 244.807 1665.37 242.617L1675.8 255.237V255.133Z" fill="#9FB4AD"/><path d="M1665.36 242.512C1667.45 244.703 1668.28 247.832 1668.18 251.586C1667.66 264.624 1654.62 285.589 1634.07 304.258C1613.21 323.346 1590.79 334.401 1577.75 333.254C1574.41 333.046 1571.7 331.898 1569.61 329.708C1560.43 319.695 1574.62 292.055 1601.01 267.962C1627.4 243.868 1656.18 232.395 1665.36 242.408V242.512Z" fill="#E6E8EA"/><path d="M1665.37 242.513L1675.8 255.133C1684.87 265.042 1670.89 292.577 1644.51 316.566C1618.12 340.556 1589.44 351.925 1580.47 342.12L1569.62 329.813" stroke="#003B2F" stroke-width="3" stroke-linecap="round" stroke-linejoin="round"/><path d="M1665.36 242.512C1667.45 244.703 1668.28 247.832 1668.18 251.586C1667.66 264.624 1654.62 285.589 1634.07 304.258C1613.21 323.346 1590.79 334.401 1577.75 333.254C1574.41 333.046 1571.7 331.898 1569.61 329.708C1560.43 319.695 1574.62 292.055 1601.01 267.962C1627.4 243.868 1656.18 232.395 1665.36 242.408V242.512Z" stroke="#003B2F" stroke-width="3" stroke-linecap="round" stroke-linejoin="round"/><path d="M1668.08 251.691C1667.55 264.729 1654.52 285.589 1633.97 304.363C1613.11 323.45 1590.68 334.61 1577.65 333.359C1574.2 333.046 1571.49 332.003 1569.51 329.812C1560.33 319.799 1574.41 292.16 1600.91 268.066C1627.4 243.973 1656.19 232.499 1665.26 242.512C1667.35 244.703 1668.18 247.832 1667.97 251.587L1668.08 251.691Z" stroke="#003B2F" stroke-width="3" stroke-linecap="round" stroke-linejoin="round"/><path d="M1582.97 328.248C1581.2 328.457 1579.53 328.561 1578.07 328.457C1575.77 328.353 1574.21 327.622 1573.17 326.475C1570.35 323.346 1571.6 315.732 1576.29 306.449C1581.93 295.289 1591.84 282.982 1604.25 271.717C1620.94 256.489 1639.19 245.955 1652.02 244.077C1654.73 243.764 1659.53 243.452 1661.72 245.85C1662.76 246.998 1663.28 248.875 1663.18 251.378C1662.76 263.373 1649.3 283.607 1630.64 300.609C1614.05 315.732 1595.8 326.371 1582.97 328.144V328.248Z" stroke="#003B2F" stroke-width="3" stroke-linecap="round" stroke-linejoin="round"/><path d="M1632.82 287.883L1642.31 278.913C1643.88 277.453 1644.5 275.576 1643.77 274.741L1628.54 258.679C1627.81 257.844 1625.83 258.47 1624.27 259.931L1593.29 289.343C1591.73 290.804 1591.1 292.681 1591.83 293.515L1607.06 309.578C1607.79 310.412 1609.77 309.786 1611.33 308.326L1620.83 299.356L1617.59 295.914C1612.38 298.731 1607.27 299.148 1604.76 296.54C1601.11 292.785 1604.14 284.128 1611.44 277.245C1618.74 270.361 1627.5 267.753 1631.15 271.612C1633.65 274.22 1632.92 279.331 1629.9 284.441L1633.13 287.883H1632.82Z" fill="#003B2F"/><path d="M1614.05 283.815L1616.66 286.527L1617.91 285.379L1615.2 282.459C1615.2 282.459 1615.61 282.042 1615.72 281.833C1615.82 281.625 1616.03 281.52 1616.34 281.312L1619.06 284.232L1620.31 283.085L1617.7 280.373C1618.64 279.851 1619.47 279.539 1620.31 279.539C1621.14 279.539 1621.66 279.747 1622.19 280.269C1622.81 280.999 1622.92 281.937 1622.39 283.398L1624.48 282.876C1624.79 281.937 1625 281.103 1624.9 280.269C1624.9 279.539 1624.48 278.808 1623.96 278.287C1623.44 277.765 1622.81 277.452 1621.98 277.348C1621.14 277.244 1620.2 277.348 1619.37 277.661C1618.54 277.974 1617.39 278.495 1616.45 279.226L1615.41 278.183L1614.15 279.33L1615.09 280.269L1613.95 281.416L1613.01 280.477L1611.76 281.625L1612.8 282.668C1612.07 283.606 1611.44 284.649 1611.13 285.484C1610.82 286.318 1610.61 287.361 1610.71 288.091C1610.71 288.926 1611.03 289.656 1611.55 290.177C1612.07 290.699 1612.69 291.012 1613.42 291.116C1614.15 291.22 1615.09 291.116 1616.03 290.803L1616.76 288.717C1615.3 289.134 1614.36 289.03 1613.74 288.3C1613.22 287.778 1613.01 287.152 1613.11 286.422C1613.11 285.797 1613.42 284.858 1614.05 283.919M1628.76 291.846L1625.52 288.508L1621.46 292.368L1624.69 295.705L1628.76 291.846Z" fill="#9FB4AD"/></svg>