<?xml version="1.0" encoding="UTF-8"?><svg id="Layer_1" data-name="Layer 1" xmlns="http://www.w3.org/2000/svg" xmlns:xlink="http://www.w3.org/1999/xlink" viewBox="0 0 192 108"><defs><style>.cls-1, .cls-2, .cls-3, .cls-4, .cls-5, .cls-6 {
        fill: none;
      }

      .cls-7 {
        clip-path: url(#clippath);
      }

      .cls-8 {
        fill: #fff;
      }

      .cls-8, .cls-2, .cls-3, .cls-4, .cls-5, .cls-6 {
        stroke-width: .3px;
      }

      .cls-8, .cls-4, .cls-6 {
        stroke: #003d2e;
      }

      .cls-8, .cls-6 {
        stroke-miterlimit: 10;
      }

      .cls-9 {
        fill: #00ff94;
      }

      .cls-10 {
        fill: #003d2e;
      }

      .cls-11 {
        fill: #e3e7e3;
      }

      .cls-2 {
        stroke: #00ff94;
      }

      .cls-2, .cls-3, .cls-4, .cls-5 {
        stroke-linecap: round;
        stroke-linejoin: round;
      }

      .cls-3 {
        stroke: #003c2e;
      }

      .cls-5 {
        stroke: #163b2f;
      }

      .cls-12 {
        fill: #003c2e;
        fill-rule: evenodd;
      }</style><clipPath id="clippath"><path class="cls-1" d="M128.29,64.89c0,3.35-16.93,6.07-37.8,6.07s-37.8-2.71-37.8-6.07,17.86-27.02,37.8-33.24c35.85-11.19,37.8,29.89,37.8,33.24Z"/></clipPath></defs><circle class="cls-3" cx="76.94" cy="10.6" r="2.01"/><g><line class="cls-4" x1="97.64" y1="29.89" x2="100.04" y2="31.27"/><line class="cls-4" x1="102.43" y1="29.89" x2="101.02" y2="30.7"/><line class="cls-4" x1="100.04" y1="31.27" x2="100.04" y2="34.07"/></g><line class="cls-2" x1="97.64" y1="37.86" x2="114.96" y2="37.86"/><line class="cls-3" x1="154.15" y1="60.15" x2="167.52" y2="60.15"/><line class="cls-2" x1="51.6" y1="15.74" x2="75.51" y2="15.74"/><line class="cls-3" x1="47.16" y1="12.63" x2="50.47" y2="12.63"/><line class="cls-3" x1="54.73" y1="12.61" x2="68.1" y2="12.61"/><line class="cls-3" x1="11.39" y1="65.39" x2="15.83" y2="65.39"/><line class="cls-2" x1="6.45" y1="61" x2="30.36" y2="61"/><line class="cls-3" x1="21.57" y1="65.37" x2="39.56" y2="65.37"/><line class="cls-3" x1="158.5" y1="56.8" x2="165.19" y2="56.8"/><line class="cls-3" x1="153.42" y1="56.8" x2="155.11" y2="56.8"/><g><line class="cls-5" x1="147.75" y1="49.19" x2="149.33" y2="50.77"/><line class="cls-5" x1="150.49" y1="51.92" x2="152.06" y2="53.5"/><line class="cls-5" x1="147.75" y1="53.5" x2="149.33" y2="51.92"/><line class="cls-5" x1="150.49" y1="50.77" x2="152.06" y2="49.19"/></g><g><line class="cls-5" x1="17.54" y1="31.41" x2="17.54" y2="33.64"/><line class="cls-5" x1="17.54" y1="35.27" x2="17.54" y2="37.5"/><line class="cls-5" x1="14.49" y1="34.45" x2="16.72" y2="34.45"/><line class="cls-5" x1="18.36" y1="34.45" x2="20.59" y2="34.45"/></g><rect class="cls-9" x="15.85" y="38.43" width="19.67" height="5.61" rx="2.8" ry="2.8" transform="translate(51.37 82.47) rotate(-180)"/><rect class="cls-9" x="21.69" y="30.56" width="32.21" height="9.19" rx="4.59" ry="4.59" transform="translate(75.58 70.3) rotate(-180)"/><rect class="cls-4" x="176.76" y="14.05" width="2.94" height="2.94" transform="translate(63.18 -121.48) rotate(45)"/><path class="cls-11" d="M164.21,22.45h-4.66c1.48,0,2.67-1.09,2.67-2.43s-1.2-2.43-2.67-2.43h-13.39c-1.48,0-2.67,1.09-2.67,2.43h-4.11c-1.48,0-2.67,1.09-2.67,2.43s1.2,2.43,2.67,2.43h8.77c0,1.34,1.2,2.43,2.67,2.43h13.39c1.48,0,2.67-1.09,2.67-2.43s-1.2-2.43-2.67-2.43Z"/><line class="cls-3" x1="156.07" y1="20.72" x2="159.41" y2="20.72"/><line class="cls-2" x1="151.24" y1="11.83" x2="175.44" y2="11.83"/><line class="cls-3" x1="163.73" y1="20.7" x2="177.25" y2="20.7"/><g><g><path class="cls-9" d="M160.98,98.18c-1.02-.96-1.88-3.14-2.05-4.37,.06,.34,.16,.68,.28,1,.28,.73,.74,1.41,1.37,2.02,.02,.02,.04,.04,.07,.07,3,2.82,8.69,2.95,12.7,.29,.06-.04,.12-.08,.17-.12,.04-.03,.08-.05,.11-.08,0,0,.01,0,.02-.01,2.42-1.72,3.58-4.1,3.31-6.32-.03-.26-.08-.51-.15-.77,1.02,2.62-.02,6.52-3.14,8.58-4.02,2.65-9.71,2.52-12.7-.29Z"/><path class="cls-11" d="M160.66,96.9s-.05-.04-.07-.07c-.63-.61-1.09-1.3-1.37-2.02-.13-.33-.22-.66-.28-1,0-.02,0-.04,0-.06-.39-2.37,.87-4.97,3.58-6.76,4.02-2.65,9.71-2.52,12.71,.29,.82,.77,1.35,1.66,1.61,2.6,.07,.25,.12,.51,.15,.77,.27,2.22-.9,4.6-3.31,6.32,0,0,0,0-.02,.01-.04,.03-.08,.05-.11,.08-.06,.04-.11,.08-.17,.12-4.02,2.65-9.71,2.52-12.7-.29Z"/></g><g><path class="cls-3" d="M160.91,98.17c-1.02-.96-1.88-3.14-2.05-4.37,.06,.34,.16,.68,.28,1,.28,.73,.74,1.41,1.37,2.02,.02,.02,.04,.04,.07,.07,3,2.82,8.69,2.95,12.7,.29,.06-.04,.12-.08,.17-.12,.04-.03,.08-.05,.11-.08,0,0,.01,0,.02-.01,2.42-1.72,3.58-4.1,3.31-6.32-.03-.26-.08-.51-.15-.77,1.02,2.62-.02,6.52-3.14,8.58-4.02,2.65-9.71,2.52-12.7-.29Z"/><path class="cls-3" d="M160.59,96.89s-.05-.04-.07-.07c-.63-.61-1.09-1.3-1.37-2.02-.13-.33-.22-.66-.28-1,0-.02,0-.04,0-.06-.39-2.37,.87-4.97,3.58-6.76,4.02-2.65,9.71-2.52,12.71,.29,.82,.77,1.35,1.66,1.61,2.6,.07,.25,.12,.51,.15,.77,.27,2.22-.9,4.6-3.31,6.32,0,0,0,0-.02,.01-.04,.03-.08,.05-.11,.08-.06,.04-.11,.08-.17,.12-4.02,2.65-9.71,2.52-12.7-.29Z"/></g><path class="cls-12" d="M171.04,87.76c1.85,1.11,1.87,2.86,.17,5.45-1.56,2.38-3.25,3.54-5.26,3.32l-2.91-1.14,2.5-3.81-.79-.31,.62-.94,.79,.31,2.5-3.81,2.38,.93Zm-1.13,1.55l-1.03-.39-1.45,2.22,1.41,.55-.62,.94-1.41-.55-1.44,2.2,1,.42c1.58,.38,2.6-.51,3.58-1.99,1.06-1.62,.91-2.79-.04-3.4h0Z"/></g><g><g><path class="cls-9" d="M156.87,100.06c-1.32,.47-3.65,.23-4.83-.2,.33,.1,.67,.17,1.02,.21,.77,.08,1.59,0,2.43-.29,.03,0,.06-.02,.09-.03,3.88-1.36,6.62-6.35,6.11-11.14,0-.07-.02-.14-.03-.21,0-.04-.01-.09-.02-.14,0,0,0-.01,0-.02-.41-2.94-1.99-5.07-4.08-5.85-.24-.09-.49-.16-.75-.22,2.79,.3,5.78,3.02,6.17,6.74,.5,4.79-2.23,9.78-6.11,11.14Z"/><path class="cls-11" d="M155.58,99.76s-.06,.02-.09,.03c-.83,.28-1.65,.37-2.43,.29-.35-.04-.69-.11-1.02-.21-.02,0-.03-.01-.05-.02-2.28-.75-4.01-3.06-4.35-6.29-.5-4.79,2.23-9.78,6.11-11.14,1.06-.37,2.1-.44,3.05-.23,.26,.05,.51,.13,.75,.22,2.09,.78,3.67,2.91,4.08,5.85,0,0,0,.01,0,.02,0,.04,.01,.09,.02,.14,0,.07,.02,.14,.03,.21,.5,4.79-2.23,9.78-6.11,11.14Z"/></g><g><path class="cls-3" d="M156.83,100.12c-1.32,.47-3.65,.23-4.83-.2,.33,.1,.67,.17,1.02,.21,.77,.08,1.59,0,2.43-.29,.03,0,.06-.02,.09-.03,3.88-1.36,6.62-6.35,6.11-11.14,0-.07-.02-.14-.03-.21,0-.04-.01-.09-.02-.14,0,0,0-.01,0-.02-.41-2.94-1.99-5.07-4.08-5.85-.24-.09-.49-.16-.75-.22,2.79,.3,5.78,3.02,6.17,6.74,.5,4.79-2.23,9.78-6.11,11.14Z"/><path class="cls-3" d="M155.54,99.81s-.06,.02-.09,.03c-.83,.28-1.65,.37-2.43,.29-.35-.04-.69-.11-1.02-.21-.02,0-.03-.01-.05-.02-2.28-.75-4.01-3.06-4.35-6.29-.5-4.79,2.23-9.78,6.11-11.14,1.06-.37,2.1-.44,3.05-.23,.26,.05,.51,.13,.75,.22,2.09,.78,3.67,2.91,4.08,5.85,0,0,0,.01,0,.02,0,.04,.01,.09,.02,.14,0,.07,.02,.14,.03,.21,.5,4.79-2.23,9.78-6.11,11.14Z"/></g><path class="cls-12" d="M152.25,86.33c1.83-1.13,3.4-.35,4.92,2.36,1.39,2.48,1.64,4.51,.52,6.2l-2.35,2.05-2.23-3.97-.64,.56-.55-.98,.64-.56-2.23-3.98,1.93-1.68Zm.85,1.72l-.82,.73,1.3,2.31,1.14-1,.55,.98-1.14,1,1.29,2.29,.84-.7c1.07-1.22,.75-2.54-.12-4.09-.95-1.69-2.05-2.1-3.04-1.53h0Z"/></g><g><path class="cls-8" d="M128.7,65.01c0,3.36-16.92,6.07-37.8,6.07s-37.8-2.71-37.8-6.07,16.92-6.06,37.8-6.06,37.8,2.71,37.8,6.06Z"/><path class="cls-8" d="M141.05,90.76c0,4.45-22.45,8.05-50.15,8.05s-50.15-3.6-50.15-8.05l.6-1.24,11.76-24.5c0,3.36,16.92,6.07,37.8,6.07s37.8-2.71,37.8-6.07l11.76,24.5,.6,1.24Z"/><path class="cls-8" d="M40.75,90.76c0-.42,.2-.84,.6-1.24l-.6,1.24Z"/><path class="cls-8" d="M141.05,90.76l-.6-1.24c.39,.4,.6,.82,.6,1.24Z"/></g><g><g><path class="cls-9" d="M50.09,98.36c-1.32,.47-3.65,.23-4.83-.2,.33,.1,.67,.17,1.02,.21,.77,.08,1.59,0,2.43-.29,.03,0,.06-.02,.09-.03,3.88-1.36,6.62-6.35,6.11-11.14,0-.07-.02-.14-.03-.21,0-.04-.01-.09-.02-.14,0,0,0-.01,0-.02-.41-2.94-1.99-5.07-4.08-5.85-.24-.09-.49-.16-.75-.22,2.79,.3,5.78,3.02,6.17,6.74,.5,4.79-2.23,9.78-6.11,11.14Z"/><path class="cls-11" d="M48.81,98.05s-.06,.02-.09,.03c-.83,.28-1.65,.37-2.43,.29-.35-.04-.69-.11-1.02-.21-.02,0-.03-.01-.05-.02-2.28-.75-4.01-3.06-4.35-6.29-.5-4.79,2.23-9.78,6.11-11.14,1.06-.37,2.1-.44,3.05-.23,.26,.05,.51,.13,.75,.22,2.09,.78,3.67,2.91,4.08,5.85,0,0,0,.01,0,.02,0,.04,.01,.09,.02,.14,0,.07,.02,.14,.03,.21,.5,4.79-2.23,9.78-6.11,11.14Z"/></g><g><path class="cls-3" d="M50.05,98.41c-1.32,.47-3.65,.23-4.83-.2,.33,.1,.67,.17,1.02,.21,.77,.08,1.59,0,2.43-.29,.03,0,.06-.02,.09-.03,3.88-1.36,6.62-6.35,6.11-11.14,0-.07-.02-.14-.03-.21,0-.04-.01-.09-.02-.14,0,0,0-.01,0-.02-.41-2.94-1.99-5.07-4.08-5.85-.24-.09-.49-.16-.75-.22,2.79,.3,5.78,3.02,6.17,6.74,.5,4.79-2.23,9.78-6.11,11.14Z"/><path class="cls-3" d="M48.76,98.11s-.06,.02-.09,.03c-.83,.28-1.65,.37-2.43,.29-.35-.04-.69-.11-1.02-.21-.02,0-.03-.01-.05-.02-2.28-.75-4.01-3.06-4.35-6.29-.5-4.79,2.23-9.78,6.11-11.14,1.06-.37,2.1-.44,3.05-.23,.26,.05,.51,.13,.75,.22,2.09,.78,3.67,2.91,4.08,5.85,0,0,0,.01,0,.02,0,.04,.01,.09,.02,.14,0,.07,.02,.14,.03,.21,.5,4.79-2.23,9.78-6.11,11.14Z"/></g><path class="cls-12" d="M45.48,84.63c1.83-1.13,3.4-.35,4.92,2.36,1.39,2.48,1.64,4.51,.52,6.2l-2.35,2.05-2.23-3.97-.64,.56-.55-.98,.64-.56-2.23-3.98,1.93-1.68Zm.85,1.72l-.82,.73,1.3,2.31,1.14-1,.55,.98-1.14,1,1.29,2.29,.84-.7c1.07-1.22,.75-2.54-.12-4.09-.95-1.69-2.05-2.1-3.04-1.53h0Z"/></g><g class="cls-7"><g><g><g><path class="cls-9" d="M76.46,67.08c-1.02-.96-1.88-3.14-2.05-4.37,.06,.34,.16,.68,.28,1,.28,.73,.74,1.41,1.37,2.02,.02,.02,.04,.04,.07,.07,3,2.82,8.69,2.95,12.7,.29,.06-.04,.12-.08,.17-.12,.04-.03,.08-.05,.11-.08,0,0,.01,0,.02-.01,2.42-1.72,3.58-4.1,3.31-6.32-.03-.26-.08-.51-.15-.77,1.02,2.62-.02,6.52-3.14,8.58-4.02,2.65-9.71,2.52-12.7-.29Z"/><path class="cls-11" d="M76.14,65.8s-.05-.04-.07-.07c-.63-.61-1.09-1.3-1.37-2.02-.13-.33-.22-.66-.28-1,0-.02,0-.04,0-.06-.39-2.37,.87-4.97,3.58-6.76,4.02-2.65,9.71-2.52,12.71,.29,.82,.77,1.35,1.66,1.61,2.6,.07,.25,.12,.51,.15,.77,.27,2.22-.9,4.6-3.31,6.32,0,0,0,0-.02,.01-.04,.03-.08,.05-.11,.08-.06,.04-.11,.08-.17,.12-4.02,2.65-9.71,2.52-12.7-.29Z"/></g><g><path class="cls-3" d="M76.39,67.07c-1.02-.96-1.88-3.14-2.05-4.37,.06,.34,.16,.68,.28,1,.28,.73,.74,1.41,1.37,2.02,.02,.02,.04,.04,.07,.07,3,2.82,8.69,2.95,12.7,.29,.06-.04,.12-.08,.17-.12,.04-.03,.08-.05,.11-.08,0,0,.01,0,.02-.01,2.42-1.72,3.58-4.1,3.31-6.32-.03-.26-.08-.51-.15-.77,1.02,2.62-.02,6.52-3.14,8.58-4.02,2.65-9.71,2.52-12.7-.29Z"/><path class="cls-3" d="M76.07,65.79s-.05-.04-.07-.07c-.63-.61-1.09-1.3-1.37-2.02-.13-.33-.22-.66-.28-1,0-.02,0-.04,0-.06-.39-2.37,.87-4.97,3.58-6.76,4.02-2.65,9.71-2.52,12.71,.29,.82,.77,1.35,1.66,1.61,2.6,.07,.25,.12,.51,.15,.77,.27,2.22-.9,4.6-3.31,6.32,0,0,0,0-.02,.01-.04,.03-.08,.05-.11,.08-.06,.04-.11,.08-.17,.12-4.02,2.65-9.71,2.52-12.7-.29Z"/></g><path class="cls-12" d="M86.52,56.66c1.85,1.11,1.87,2.86,.17,5.45-1.56,2.38-3.25,3.54-5.26,3.32l-2.91-1.14,2.5-3.81-.79-.31,.62-.94,.79,.31,2.5-3.81,2.38,.93Zm-1.13,1.55l-1.03-.39-1.45,2.22,1.41,.55-.62,.94-1.41-.55-1.44,2.2,1,.42c1.58,.38,2.6-.51,3.58-1.99,1.06-1.62,.91-2.79-.04-3.4h0Z"/></g><g><g><path class="cls-9" d="M63.26,69.61c-1.02-.96-1.88-3.14-2.05-4.37,.06,.34,.16,.68,.28,1,.28,.73,.74,1.41,1.37,2.02,.02,.02,.04,.04,.07,.07,3,2.82,8.69,2.95,12.7,.29,.06-.04,.12-.08,.17-.12,.04-.03,.08-.05,.11-.08,0,0,.01,0,.02-.01,2.42-1.72,3.58-4.1,3.31-6.32-.03-.26-.08-.51-.15-.77,1.02,2.62-.02,6.52-3.14,8.58-4.02,2.65-9.71,2.52-12.7-.29Z"/><path class="cls-11" d="M62.93,68.33s-.05-.04-.07-.07c-.63-.61-1.09-1.3-1.37-2.02-.13-.33-.22-.66-.28-1,0-.02,0-.04,0-.06-.39-2.37,.87-4.97,3.58-6.76,4.02-2.65,9.71-2.52,12.71,.29,.82,.77,1.35,1.66,1.61,2.6,.07,.25,.12,.51,.15,.77,.27,2.22-.9,4.6-3.31,6.32,0,0,0,0-.02,.01-.04,.03-.08,.05-.11,.08-.06,.04-.11,.08-.17,.12-4.02,2.65-9.71,2.52-12.7-.29Z"/></g><g><path class="cls-3" d="M63.19,69.6c-1.02-.96-1.88-3.14-2.05-4.37,.06,.34,.16,.68,.28,1,.28,.73,.74,1.41,1.37,2.02,.02,.02,.04,.04,.07,.07,3,2.82,8.69,2.95,12.7,.29,.06-.04,.12-.08,.17-.12,.04-.03,.08-.05,.11-.08,0,0,.01,0,.02-.01,2.42-1.72,3.58-4.1,3.31-6.32-.03-.26-.08-.51-.15-.77,1.02,2.62-.02,6.52-3.14,8.58-4.02,2.65-9.71,2.52-12.7-.29Z"/><path class="cls-3" d="M62.86,68.32s-.05-.04-.07-.07c-.63-.61-1.09-1.3-1.37-2.02-.13-.33-.22-.66-.28-1,0-.02,0-.04,0-.06-.39-2.37,.87-4.97,3.58-6.76,4.02-2.65,9.71-2.52,12.71,.29,.82,.77,1.35,1.66,1.61,2.6,.07,.25,.12,.51,.15,.77,.27,2.22-.9,4.6-3.31,6.32,0,0,0,0-.02,.01-.04,.03-.08,.05-.11,.08-.06,.04-.11,.08-.17,.12-4.02,2.65-9.71,2.52-12.7-.29Z"/></g><path class="cls-12" d="M73.31,59.19c1.85,1.11,1.87,2.86,.17,5.45-1.56,2.38-3.25,3.54-5.26,3.32l-2.91-1.14,2.5-3.81-.79-.31,.62-.94,.79,.31,2.5-3.81,2.38,.93Zm-1.13,1.55l-1.03-.39-1.45,2.22,1.41,.55-.62,.94-1.41-.55-1.44,2.2,1,.42c1.58,.38,2.6-.51,3.58-1.99,1.06-1.62,.91-2.79-.04-3.4h0Z"/></g><g><g><path class="cls-9" d="M93.28,65.52c-1.02-.96-1.88-3.14-2.05-4.37,.06,.34,.16,.68,.28,1,.28,.73,.74,1.41,1.37,2.02,.02,.02,.04,.04,.07,.07,3,2.82,8.69,2.95,12.7,.29,.06-.04,.12-.08,.17-.12,.04-.03,.08-.05,.11-.08,0,0,.01,0,.02-.01,2.42-1.72,3.58-4.1,3.31-6.32-.03-.26-.08-.51-.15-.77,1.02,2.62-.02,6.52-3.14,8.58-4.02,2.65-9.71,2.52-12.7-.29Z"/><path class="cls-11" d="M92.96,64.23s-.05-.04-.07-.07c-.63-.61-1.09-1.3-1.37-2.02-.13-.33-.22-.66-.28-1,0-.02,0-.04,0-.06-.39-2.37,.87-4.97,3.58-6.76,4.02-2.65,9.71-2.52,12.71,.29,.82,.77,1.35,1.66,1.61,2.6,.07,.25,.12,.51,.15,.77,.27,2.22-.9,4.6-3.31,6.32,0,0,0,0-.02,.01-.04,.03-.08,.05-.11,.08-.06,.04-.11,.08-.17,.12-4.02,2.65-9.71,2.52-12.7-.29Z"/></g><g><path class="cls-3" d="M93.21,65.51c-1.02-.96-1.88-3.14-2.05-4.37,.06,.34,.16,.68,.28,1,.28,.73,.74,1.41,1.37,2.02,.02,.02,.04,.04,.07,.07,3,2.82,8.69,2.95,12.7,.29,.06-.04,.12-.08,.17-.12,.04-.03,.08-.05,.11-.08,0,0,.01,0,.02-.01,2.42-1.72,3.58-4.1,3.31-6.32-.03-.26-.08-.51-.15-.77,1.02,2.62-.02,6.52-3.14,8.58-4.02,2.65-9.71,2.52-12.7-.29Z"/><path class="cls-3" d="M92.89,64.22s-.05-.04-.07-.07c-.63-.61-1.09-1.3-1.37-2.02-.13-.33-.22-.66-.28-1,0-.02,0-.04,0-.06-.39-2.37,.87-4.97,3.58-6.76,4.02-2.65,9.71-2.52,12.71,.29,.82,.77,1.35,1.66,1.61,2.6,.07,.25,.12,.51,.15,.77,.27,2.22-.9,4.6-3.31,6.32,0,0,0,0-.02,.01-.04,.03-.08,.05-.11,.08-.06,.04-.11,.08-.17,.12-4.02,2.65-9.71,2.52-12.7-.29Z"/></g><path class="cls-12" d="M103.34,55.09c1.85,1.11,1.87,2.86,.17,5.45-1.56,2.38-3.25,3.54-5.26,3.32l-2.91-1.14,2.5-3.81-.79-.31,.62-.94,.79,.31,2.5-3.81,2.38,.93Zm-1.13,1.55l-1.03-.39-1.45,2.22,1.41,.55-.62,.94-1.41-.55-1.44,2.2,1,.42c1.58,.38,2.6-.51,3.58-1.99,1.06-1.62,.91-2.79-.04-3.4h0Z"/></g><g><g><path class="cls-9" d="M119.27,70.91c-1.66,.62-4.61,.36-6.1-.15,.42,.13,.85,.21,1.29,.25,.98,.09,2.01-.04,3.06-.41,.04-.01,.07-.02,.11-.04,4.87-1.8,8.23-8.15,7.5-14.19-.01-.09-.02-.18-.04-.26,0-.06-.02-.12-.03-.17,0,0,0-.02,0-.02-.58-3.7-2.62-6.36-5.27-7.31-.31-.11-.63-.2-.95-.26,3.53,.32,7.36,3.7,7.93,8.39,.73,6.04-2.63,12.4-7.5,14.19Z"/><path class="cls-11" d="M117.64,70.55s-.07,.03-.11,.04c-1.05,.37-2.08,.5-3.06,.41-.44-.04-.87-.12-1.29-.25-.02,0-.04-.01-.07-.02-2.89-.9-5.12-3.78-5.62-7.86-.73-6.04,2.63-12.4,7.5-14.2,1.33-.49,2.64-.59,3.85-.35,.33,.06,.64,.15,.95,.26,2.66,.95,4.69,3.61,5.27,7.31,0,0,0,.02,0,.02,0,.06,.02,.12,.03,.17,.01,.09,.03,.18,.04,.26,.73,6.04-2.63,12.4-7.5,14.19Z"/></g><g><path class="cls-3" d="M119.22,70.98c-1.66,.62-4.61,.36-6.1-.15,.42,.13,.85,.21,1.29,.25,.98,.09,2.01-.04,3.06-.41,.04-.01,.07-.02,.11-.04,4.87-1.8,8.23-8.15,7.5-14.19-.01-.09-.02-.18-.04-.26,0-.06-.02-.12-.03-.17,0,0,0-.02,0-.02-.58-3.7-2.62-6.36-5.27-7.31-.31-.11-.63-.2-.95-.26,3.53,.32,7.36,3.7,7.93,8.39,.73,6.04-2.63,12.4-7.5,14.19Z"/><path class="cls-3" d="M117.59,70.62s-.07,.03-.11,.04c-1.05,.37-2.08,.5-3.06,.41-.44-.04-.87-.12-1.29-.25-.02,0-.04-.01-.07-.02-2.89-.9-5.12-3.78-5.62-7.86-.73-6.04,2.63-12.4,7.5-14.2,1.33-.49,2.64-.59,3.85-.35,.33,.06,.64,.15,.95,.26,2.66,.95,4.69,3.61,5.27,7.31,0,0,0,.02,0,.02,0,.06,.02,.12,.03,.17,.01,.09,.03,.18,.04,.26,.73,6.04-2.63,12.4-7.5,14.19Z"/></g><path class="cls-12" d="M113.17,53.66c2.29-1.46,4.29-.51,6.26,2.88,1.81,3.1,2.17,5.67,.78,7.82l-2.93,2.64-2.89-4.97-.79,.72-.72-1.23,.79-.72-2.9-4.98,2.4-2.16Zm1.11,2.15l-1.02,.94,1.68,2.89,1.42-1.28,.72,1.23-1.42,1.28,1.67,2.87,1.04-.9c1.32-1.57,.9-3.23-.23-5.17-1.23-2.12-2.64-2.61-3.86-1.87h0Z"/></g><g><g><path class="cls-9" d="M95.29,71.12c-1.17-1.1-2.15-3.59-2.34-5,.07,.39,.18,.77,.32,1.15,.32,.83,.85,1.61,1.57,2.31,.02,.03,.05,.05,.08,.08,3.43,3.22,9.93,3.37,14.52,.34,.07-.04,.13-.09,.2-.14,.04-.03,.09-.06,.13-.09,0,0,.01,0,.02-.01,2.76-1.97,4.09-4.69,3.79-7.22-.03-.29-.09-.59-.17-.88,1.17,2.99-.02,7.45-3.59,9.81-4.59,3.03-11.09,2.88-14.52-.34Z"/><path class="cls-11" d="M94.92,69.65s-.05-.05-.08-.08c-.73-.7-1.25-1.48-1.57-2.31-.15-.37-.26-.76-.32-1.15,0-.02,0-.04,0-.06-.44-2.7,.99-5.68,4.09-7.72,4.59-3.03,11.09-2.88,14.52,.33,.94,.88,1.55,1.9,1.84,2.98,.08,.29,.14,.58,.17,.88,.3,2.53-1.02,5.26-3.79,7.22,0,0-.01,.01-.02,.01-.04,.03-.09,.06-.13,.09-.07,.05-.13,.09-.2,.14-4.59,3.03-11.09,2.88-14.52-.34Z"/></g><g><path class="cls-3" d="M95.21,71.11c-1.17-1.1-2.15-3.59-2.34-5,.07,.39,.18,.77,.32,1.15,.32,.83,.85,1.61,1.57,2.31,.02,.03,.05,.05,.08,.08,3.43,3.22,9.93,3.37,14.52,.34,.07-.04,.13-.09,.2-.14,.04-.03,.09-.06,.13-.09,0,0,.01,0,.02-.01,2.76-1.97,4.09-4.69,3.79-7.22-.03-.29-.09-.59-.17-.88,1.17,2.99-.02,7.45-3.59,9.81-4.59,3.03-11.09,2.88-14.52-.34Z"/><path class="cls-3" d="M94.84,69.64s-.05-.05-.08-.08c-.73-.7-1.25-1.48-1.57-2.31-.15-.37-.26-.76-.32-1.15,0-.02,0-.04,0-.06-.44-2.7,.99-5.68,4.09-7.72,4.59-3.03,11.09-2.88,14.52,.33,.94,.88,1.55,1.9,1.84,2.98,.08,.29,.14,.58,.17,.88,.3,2.53-1.02,5.26-3.79,7.22,0,0-.01,.01-.02,.01-.04,.03-.09,.06-.13,.09-.07,.05-.13,.09-.2,.14-4.59,3.03-11.09,2.88-14.52-.34Z"/></g><path class="cls-12" d="M106.79,59.21c2.11,1.26,2.14,3.27,.2,6.23-1.78,2.72-3.71,4.04-6.02,3.79l-3.32-1.3,2.85-4.35-.9-.35,.71-1.08,.9,.35,2.86-4.36,2.72,1.07Zm-1.3,1.77l-1.17-.44-1.66,2.53,1.61,.63-.71,1.08-1.61-.63-1.65,2.51,1.15,.48c1.8,.44,2.97-.58,4.09-2.28,1.22-1.85,1.04-3.19-.04-3.89h0Z"/></g><g><g><path class="cls-9" d="M82.74,71.25c-1.02-.96-1.88-3.14-2.05-4.37,.06,.34,.16,.68,.28,1,.28,.73,.74,1.41,1.37,2.02,.02,.02,.04,.04,.07,.07,3,2.82,8.69,2.95,12.7,.29,.06-.04,.12-.08,.17-.12,.04-.03,.08-.05,.11-.08,0,0,.01,0,.02-.01,2.42-1.72,3.58-4.1,3.31-6.32-.03-.26-.08-.51-.15-.77,1.02,2.62-.02,6.52-3.14,8.58-4.02,2.65-9.71,2.52-12.7-.29Z"/><path class="cls-11" d="M82.42,69.96s-.05-.04-.07-.07c-.63-.61-1.09-1.3-1.37-2.02-.13-.33-.22-.66-.28-1,0-.02,0-.04,0-.06-.39-2.37,.87-4.97,3.58-6.76,4.02-2.65,9.71-2.52,12.71,.29,.82,.77,1.35,1.66,1.61,2.6,.07,.25,.12,.51,.15,.77,.27,2.22-.9,4.6-3.31,6.32,0,0,0,0-.02,.01-.04,.03-.08,.05-.11,.08-.06,.04-.11,.08-.17,.12-4.02,2.65-9.71,2.52-12.7-.29Z"/></g><g><path class="cls-3" d="M82.67,71.24c-1.02-.96-1.88-3.14-2.05-4.37,.06,.34,.16,.68,.28,1,.28,.73,.74,1.41,1.37,2.02,.02,.02,.04,.04,.07,.07,3,2.82,8.69,2.95,12.7,.29,.06-.04,.12-.08,.17-.12,.04-.03,.08-.05,.11-.08,0,0,.01,0,.02-.01,2.42-1.72,3.58-4.1,3.31-6.32-.03-.26-.08-.51-.15-.77,1.02,2.62-.02,6.52-3.14,8.58-4.02,2.65-9.71,2.52-12.7-.29Z"/><path class="cls-3" d="M82.35,69.95s-.05-.04-.07-.07c-.63-.61-1.09-1.3-1.37-2.02-.13-.33-.22-.66-.28-1,0-.02,0-.04,0-.06-.39-2.37,.87-4.97,3.58-6.76,4.02-2.65,9.71-2.52,12.71,.29,.82,.77,1.35,1.66,1.61,2.6,.07,.25,.12,.51,.15,.77,.27,2.22-.9,4.6-3.31,6.32,0,0,0,0-.02,.01-.04,.03-.08,.05-.11,.08-.06,.04-.11,.08-.17,.12-4.02,2.65-9.71,2.52-12.7-.29Z"/></g><path class="cls-12" d="M92.8,60.82c1.85,1.11,1.87,2.86,.17,5.45-1.56,2.38-3.25,3.54-5.26,3.32l-2.91-1.14,2.5-3.81-.79-.31,.62-.94,.79,.31,2.5-3.81,2.38,.93Zm-1.13,1.55l-1.03-.39-1.45,2.22,1.41,.55-.62,.94-1.41-.55-1.44,2.2,1,.42c1.58,.38,2.6-.51,3.58-1.99,1.06-1.62,.91-2.79-.04-3.4h0Z"/></g><g><g><path class="cls-9" d="M68.21,71.42c-1.02-.96-1.88-3.14-2.05-4.37,.06,.34,.16,.68,.28,1,.28,.73,.74,1.41,1.37,2.02,.02,.02,.04,.04,.07,.07,3,2.82,8.69,2.95,12.7,.29,.06-.04,.12-.08,.17-.12,.04-.03,.08-.05,.11-.08,0,0,.01,0,.02-.01,2.42-1.72,3.58-4.1,3.31-6.32-.03-.26-.08-.51-.15-.77,1.02,2.62-.02,6.52-3.14,8.58-4.02,2.65-9.71,2.52-12.7-.29Z"/><path class="cls-11" d="M67.89,70.14s-.05-.04-.07-.07c-.63-.61-1.09-1.3-1.37-2.02-.13-.33-.22-.66-.28-1,0-.02,0-.04,0-.06-.39-2.37,.87-4.97,3.58-6.76,4.02-2.65,9.71-2.52,12.71,.29,.82,.77,1.35,1.66,1.61,2.6,.07,.25,.12,.51,.15,.77,.27,2.22-.9,4.6-3.31,6.32,0,0,0,0-.02,.01-.04,.03-.08,.05-.11,.08-.06,.04-.11,.08-.17,.12-4.02,2.65-9.71,2.52-12.7-.29Z"/></g><g><path class="cls-3" d="M68.14,71.41c-1.02-.96-1.88-3.14-2.05-4.37,.06,.34,.16,.68,.28,1,.28,.73,.74,1.41,1.37,2.02,.02,.02,.04,.04,.07,.07,3,2.82,8.69,2.95,12.7,.29,.06-.04,.12-.08,.17-.12,.04-.03,.08-.05,.11-.08,0,0,.01,0,.02-.01,2.42-1.72,3.58-4.1,3.31-6.32-.03-.26-.08-.51-.15-.77,1.02,2.62-.02,6.52-3.14,8.58-4.02,2.65-9.71,2.52-12.7-.29Z"/><path class="cls-3" d="M67.82,70.13s-.05-.04-.07-.07c-.63-.61-1.09-1.3-1.37-2.02-.13-.33-.22-.66-.28-1,0-.02,0-.04,0-.06-.39-2.37,.87-4.97,3.58-6.76,4.02-2.65,9.71-2.52,12.71,.29,.82,.77,1.35,1.66,1.61,2.6,.07,.25,.12,.51,.15,.77,.27,2.22-.9,4.6-3.31,6.32,0,0,0,0-.02,.01-.04,.03-.08,.05-.11,.08-.06,.04-.11,.08-.17,.12-4.02,2.65-9.71,2.52-12.7-.29Z"/></g><path class="cls-12" d="M78.27,61c1.85,1.11,1.87,2.86,.17,5.45-1.56,2.38-3.25,3.54-5.26,3.32l-2.91-1.14,2.5-3.81-.79-.31,.62-.94,.79,.31,2.5-3.81,2.38,.93Zm-1.13,1.55l-1.03-.39-1.45,2.22,1.41,.55-.62,.94-1.41-.55-1.44,2.2,1,.42c1.58,.38,2.6-.51,3.58-1.99,1.06-1.62,.91-2.79-.04-3.4h0Z"/></g><g><g><path class="cls-9" d="M64.49,72.54c-1.32,.47-3.65,.23-4.83-.2,.33,.1,.67,.17,1.02,.21,.77,.08,1.59,0,2.43-.29,.03,0,.06-.02,.09-.03,3.88-1.36,6.62-6.35,6.11-11.14,0-.07-.02-.14-.03-.21,0-.04-.01-.09-.02-.14,0,0,0-.01,0-.02-.41-2.94-1.99-5.07-4.08-5.85-.24-.09-.49-.16-.75-.22,2.79,.3,5.78,3.02,6.17,6.74,.5,4.79-2.23,9.78-6.11,11.14Z"/><path class="cls-11" d="M63.2,72.24s-.06,.02-.09,.03c-.83,.28-1.65,.37-2.43,.29-.35-.04-.69-.11-1.02-.21-.02,0-.03-.01-.05-.02-2.28-.75-4.01-3.06-4.35-6.29-.5-4.79,2.23-9.78,6.11-11.14,1.06-.37,2.1-.44,3.05-.23,.26,.05,.51,.13,.75,.22,2.09,.78,3.67,2.91,4.08,5.85,0,0,0,.01,0,.02,0,.04,.01,.09,.02,.14,0,.07,.02,.14,.03,.21,.5,4.79-2.23,9.78-6.11,11.14Z"/></g><g><path class="cls-3" d="M64.45,72.6c-1.32,.47-3.65,.23-4.83-.2,.33,.1,.67,.17,1.02,.21,.77,.08,1.59,0,2.43-.29,.03,0,.06-.02,.09-.03,3.88-1.36,6.62-6.35,6.11-11.14,0-.07-.02-.14-.03-.21,0-.04-.01-.09-.02-.14,0,0,0-.01,0-.02-.41-2.94-1.99-5.07-4.08-5.85-.24-.09-.49-.16-.75-.22,2.79,.3,5.78,3.02,6.17,6.74,.5,4.79-2.23,9.78-6.11,11.14Z"/><path class="cls-3" d="M63.16,72.3s-.06,.02-.09,.03c-.83,.28-1.65,.37-2.43,.29-.35-.04-.69-.11-1.02-.21-.02,0-.03-.01-.05-.02-2.28-.75-4.01-3.06-4.35-6.29-.5-4.79,2.23-9.78,6.11-11.14,1.06-.37,2.1-.44,3.05-.23,.26,.05,.51,.13,.75,.22,2.09,.78,3.67,2.91,4.08,5.85,0,0,0,.01,0,.02,0,.04,.01,.09,.02,.14,0,.07,.02,.14,.03,.21,.5,4.79-2.23,9.78-6.11,11.14Z"/></g><path class="cls-12" d="M59.88,58.81c1.83-1.13,3.4-.35,4.92,2.36,1.39,2.48,1.64,4.51,.52,6.2l-2.35,2.05-2.23-3.97-.64,.56-.55-.98,.64-.56-2.23-3.98,1.93-1.68Zm.85,1.72l-.82,.73,1.3,2.31,1.14-1,.55,.98-1.14,1,1.29,2.29,.84-.7c1.07-1.22,.75-2.54-.12-4.09-.95-1.69-2.05-2.1-3.04-1.53h0Z"/></g></g></g><path class="cls-6" d="M128.7,65.02c0,3.35-16.93,6.07-37.8,6.07s-37.8-2.71-37.8-6.07"/><g><g><path class="cls-9" d="M19.14,95.49c-1.02-.96-1.88-3.14-2.05-4.37,.06,.34,.16,.68,.28,1,.28,.73,.74,1.41,1.37,2.02,.02,.02,.04,.04,.07,.07,3,2.82,8.69,2.95,12.7,.29,.06-.04,.12-.08,.17-.12,.04-.03,.08-.05,.11-.08,0,0,.01,0,.02-.01,2.42-1.72,3.58-4.1,3.31-6.32-.03-.26-.08-.51-.15-.77,1.02,2.62-.02,6.52-3.14,8.58-4.02,2.65-9.71,2.52-12.7-.29Z"/><path class="cls-11" d="M18.82,94.21s-.05-.04-.07-.07c-.63-.61-1.09-1.3-1.37-2.02-.13-.33-.22-.66-.28-1,0-.02,0-.04,0-.06-.39-2.37,.87-4.97,3.58-6.76,4.02-2.65,9.71-2.52,12.71,.29,.82,.77,1.35,1.66,1.61,2.6,.07,.25,.12,.51,.15,.77,.27,2.22-.9,4.6-3.31,6.32,0,0,0,0-.02,.01-.04,.03-.08,.05-.11,.08-.06,.04-.11,.08-.17,.12-4.02,2.65-9.71,2.52-12.7-.29Z"/></g><g><path class="cls-3" d="M19.07,95.48c-1.02-.96-1.88-3.14-2.05-4.37,.06,.34,.16,.68,.28,1,.28,.73,.74,1.41,1.37,2.02,.02,.02,.04,.04,.07,.07,3,2.82,8.69,2.95,12.7,.29,.06-.04,.12-.08,.17-.12,.04-.03,.08-.05,.11-.08,0,0,.01,0,.02-.01,2.42-1.72,3.58-4.1,3.31-6.32-.03-.26-.08-.51-.15-.77,1.02,2.62-.02,6.52-3.14,8.58-4.02,2.65-9.71,2.52-12.7-.29Z"/><path class="cls-3" d="M18.75,94.2s-.05-.04-.07-.07c-.63-.61-1.09-1.3-1.37-2.02-.13-.33-.22-.66-.28-1,0-.02,0-.04,0-.06-.39-2.37,.87-4.97,3.58-6.76,4.02-2.65,9.71-2.52,12.71,.29,.82,.77,1.35,1.66,1.61,2.6,.07,.25,.12,.51,.15,.77,.27,2.22-.9,4.6-3.31,6.32,0,0,0,0-.02,.01-.04,.03-.08,.05-.11,.08-.06,.04-.11,.08-.17,.12-4.02,2.65-9.71,2.52-12.7-.29Z"/></g><path class="cls-12" d="M29.2,85.07c1.85,1.11,1.87,2.86,.17,5.45-1.56,2.38-3.25,3.54-5.26,3.32l-2.91-1.14,2.5-3.81-.79-.31,.62-.94,.79,.31,2.5-3.81,2.38,.93Zm-1.13,1.55l-1.03-.39-1.45,2.22,1.41,.55-.62,.94-1.41-.55-1.44,2.2,1,.42c1.58,.38,2.6-.51,3.58-1.99,1.06-1.62,.91-2.79-.04-3.4h0Z"/></g><path class="cls-11" d="M82.13,81.09c-.13-.02-.28,.02-.39,.1-.2,.14-.27,.42-.29,.65,0,.07-.01,.13,.02,.2,.06,.16,.23,.17,.31,.07,.09-.1,.02-.25,.01-.36-.02-.14,.02-.23,.14-.32,.08-.07,.18-.13,.24-.21,.02-.02,.04-.06,.03-.09-.01-.02-.04-.04-.07-.04Z"/><path class="cls-11" d="M82.61,81.45s.07,.07,.15,.07c.05,0,.1-.02,.12-.07,0-.02,0-.05,0-.07-.06-.43-.42-.14-.28,.07Z"/><path class="cls-11" d="M82.61,81.45s.07,.07,.15,.07c.05,0,.1-.02,.12-.07,0-.02,0-.05,0-.07-.06-.43-.42-.14-.28,.07Z"/><path class="cls-11" d="M81.49,85.64s-.12-.02-.15,0c-.04,.03-.03,.18-.03,.23,0,.08-.02,.76-.02,.76,.08,.02,.15,.04,.23,.04,.01,0,.02,0,.02,0h0c0-.32,0-.64,0-.95,0-.07,0-.07-.06-.09Z"/><path class="cls-11" d="M82.76,85.89c-.06-.08-.11-.15-.15-.23-.04-.09-.06-.18-.08-.28-.02-.06-.05-.13-.12-.16-.24-.1-.61,.24-.54,.49,.02,.09,.09,.17,.15,.23,.03,.03,.34,.35,.4,.39,0,0,.01,0,.01,0,.07-.07,.15-.14,.23-.21,.02-.02,.04-.04,.07-.06,.02-.02,.04-.04,.06-.05,.03-.04,.02-.06-.03-.12Z"/><path class="cls-11" d="M82.61,81.45s.07,.07,.15,.07c.05,0,.1-.02,.12-.07,0-.02,0-.05,0-.07-.06-.43-.42-.14-.28,.07Z"/><path class="cls-11" d="M87.86,82.25c-.11-.33-.48-.29-.74-.17-.35,.16-.58,.48-.5,.88,.07,.36,.41,.65,.78,.65,.05,0,.11,0,.14-.04,.05-.07-.02-.17-.1-.2-.13-.06-.25-.13-.3-.28-.12-.32,.2-.69,.53-.68,.07,0,.16,.02,.2-.04,.02-.03,.01-.07,0-.12Z"/><path class="cls-11" d="M87.86,82.25c-.11-.33-.48-.29-.74-.17-.35,.16-.58,.48-.5,.88,.07,.36,.41,.65,.78,.65,.05,0,.11,0,.14-.04,.05-.07-.02-.17-.1-.2-.13-.06-.25-.13-.3-.28-.12-.32,.2-.69,.53-.68,.07,0,.16,.02,.2-.04,.02-.03,.01-.07,0-.12Z"/><path class="cls-11" d="M82.76,85.89c-.06-.08-.11-.15-.15-.23-.04-.09-.06-.18-.08-.28-.02-.06-.05-.13-.12-.16-.24-.1-.61,.24-.54,.49,.02,.09,.09,.17,.15,.23,.03,.03,.34,.35,.4,.39,0,0,.01,0,.01,0,.07-.07,.15-.14,.23-.21,.02-.02,.04-.04,.07-.06,.02-.02,.04-.04,.06-.05,.03-.04,.02-.06-.03-.12Z"/><path class="cls-11" d="M81.49,85.64s-.12-.02-.15,0c-.04,.03-.03,.18-.03,.23,0,.08-.02,.76-.02,.76,.08,.02,.15,.04,.23,.04,.01,0,.02,0,.02,0h0c0-.32,0-.64,0-.95,0-.07,0-.07-.06-.09Z"/><path class="cls-11" d="M82.61,81.45s.07,.07,.15,.07c.05,0,.1-.02,.12-.07,0-.02,0-.05,0-.07-.06-.43-.42-.14-.28,.07Z"/><path class="cls-11" d="M81.49,85.64s-.12-.02-.15,0c-.04,.03-.03,.18-.03,.23,0,.08-.02,.76-.02,.76,.08,.02,.15,.04,.23,.04,.01,0,.02,0,.02,0h0c0-.32,0-.64,0-.95,0-.07,0-.07-.06-.09Z"/><path class="cls-11" d="M82.76,85.89c-.06-.08-.11-.15-.15-.23-.04-.09-.06-.18-.08-.28-.02-.06-.05-.13-.12-.16-.24-.1-.61,.24-.54,.49,.02,.09,.09,.17,.15,.23,.03,.03,.34,.35,.4,.39,0,0,.01,0,.01,0,.07-.07,.15-.14,.23-.21,.02-.02,.04-.04,.07-.06,.02-.02,.04-.04,.06-.05,.03-.04,.02-.06-.03-.12Z"/><path class="cls-11" d="M82.61,81.45s.07,.07,.15,.07c.05,0,.1-.02,.12-.07,0-.02,0-.05,0-.07-.06-.43-.42-.14-.28,.07Z"/><path class="cls-11" d="M87.86,82.25c-.11-.33-.48-.29-.74-.17-.35,.16-.58,.48-.5,.88,.07,.36,.41,.65,.78,.65,.05,0,.11,0,.14-.04,.05-.07-.02-.17-.1-.2-.13-.06-.25-.13-.3-.28-.12-.32,.2-.69,.53-.68,.07,0,.16,.02,.2-.04,.02-.03,.01-.07,0-.12Z"/><path class="cls-11" d="M87.86,82.25c-.11-.33-.48-.29-.74-.17-.35,.16-.58,.48-.5,.88,.07,.36,.41,.65,.78,.65,.05,0,.11,0,.14-.04,.05-.07-.02-.17-.1-.2-.13-.06-.25-.13-.3-.28-.12-.32,.2-.69,.53-.68,.07,0,.16,.02,.2-.04,.02-.03,.01-.07,0-.12Z"/><path class="cls-11" d="M82.76,85.89c-.06-.08-.11-.15-.15-.23-.04-.09-.06-.18-.08-.28-.02-.06-.05-.13-.12-.16-.24-.1-.61,.24-.54,.49,.02,.09,.09,.17,.15,.23,.03,.03,.34,.35,.4,.39,0,0,.01,0,.01,0,.07-.07,.15-.14,.23-.21,.02-.02,.04-.04,.07-.06,.02-.02,.04-.04,.06-.05,.03-.04,.02-.06-.03-.12Z"/><path class="cls-11" d="M81.49,85.64s-.12-.02-.15,0c-.04,.03-.03,.18-.03,.23,0,.08-.02,.76-.02,.76,.08,.02,.15,.04,.23,.04,.01,0,.02,0,.02,0h0c0-.32,0-.64,0-.95,0-.07,0-.07-.06-.09Z"/><path class="cls-11" d="M82.61,81.45s.07,.07,.15,.07c.05,0,.1-.02,.12-.07,0-.02,0-.05,0-.07-.06-.43-.42-.14-.28,.07Z"/><path class="cls-11" d="M81.01,85c-.07-.07-.15-.14-.25-.17-.07-.02-.15-.02-.2,.03-.09,.09-.06,.23-.12,.32-.06,.08-.25,.09-.28,.18h0s0,.06,.01,.09c0,.02,.01,.04,.02,.05,.03,.07,.07,.14,.14,.19,.11,.09,.26,.09,.39,.02,.13-.06,.26-.17,.34-.29,.04-.06,.07-.14,.06-.22-.01-.07-.06-.14-.11-.2Z"/><path class="cls-11" d="M81.49,85.64s-.12-.02-.15,0c-.04,.03-.03,.18-.03,.23,0,.08-.02,.76-.02,.76,.08,.02,.15,.04,.23,.04,.01,0,.02,0,.02,0h0c0-.32,0-.64,0-.95,0-.07,0-.07-.06-.09Z"/><path class="cls-11" d="M82.76,85.89c-.06-.08-.11-.15-.15-.23-.04-.09-.06-.18-.08-.28-.02-.06-.05-.13-.12-.16-.24-.1-.61,.24-.54,.49,.02,.09,.09,.17,.15,.23,.03,.03,.34,.35,.4,.39,0,0,.01,0,.01,0,.07-.07,.15-.14,.23-.21,.02-.02,.04-.04,.07-.06,.02-.02,.04-.04,.06-.05,.03-.04,.02-.06-.03-.12Z"/><path class="cls-11" d="M82.61,81.45s.07,.07,.15,.07c.05,0,.1-.02,.12-.07,0-.02,0-.05,0-.07-.06-.43-.42-.14-.28,.07Z"/><path class="cls-11" d="M85.67,87.98s.09,.06,.13,.1c.1-.07,.19-.13,.26-.2,0,0-.15,.04-.39,.1Z"/><path class="cls-11" d="M87.86,82.25c-.11-.33-.48-.29-.74-.17-.35,.16-.58,.48-.5,.88,.07,.36,.41,.65,.78,.65,.05,0,.11,0,.14-.04,.05-.07-.02-.17-.1-.2-.13-.06-.25-.13-.3-.28-.12-.32,.2-.69,.53-.68,.07,0,.16,.02,.2-.04,.02-.03,.01-.07,0-.12Z"/><path class="cls-11" d="M87.86,82.25c-.11-.33-.48-.29-.74-.17-.35,.16-.58,.48-.5,.88,.07,.36,.41,.65,.78,.65,.05,0,.11,0,.14-.04,.05-.07-.02-.17-.1-.2-.13-.06-.25-.13-.3-.28-.12-.32,.2-.69,.53-.68,.07,0,.16,.02,.2-.04,.02-.03,.01-.07,0-.12Z"/><path class="cls-11" d="M82.61,81.45s.07,.07,.15,.07c.05,0,.1-.02,.12-.07,0-.02,0-.05,0-.07-.06-.43-.42-.14-.28,.07Z"/><path class="cls-11" d="M87.86,82.25c-.11-.33-.48-.29-.74-.17-.35,.16-.58,.48-.5,.88,.07,.36,.41,.65,.78,.65,.05,0,.11,0,.14-.04,.05-.07-.02-.17-.1-.2-.13-.06-.25-.13-.3-.28-.12-.32,.2-.69,.53-.68,.07,0,.16,.02,.2-.04,.02-.03,.01-.07,0-.12Z"/><path class="cls-11" d="M82.61,81.45s.07,.07,.15,.07c.05,0,.1-.02,.12-.07,0-.02,0-.05,0-.07-.06-.43-.42-.14-.28,.07Z"/><path class="cls-11" d="M82.61,85.66c-.04-.09-.06-.18-.08-.28-.02-.06-.05-.13-.12-.16-.24-.1-.61,.24-.54,.49,.02,.09,.09,.17,.15,.23,.03,.03,.34,.35,.4,.39,.09-.07,.17-.13,.24-.21,.02-.02,.04-.04,.07-.06,.02-.02,.04-.04,.06-.05,.03-.04,.02-.06-.03-.12-.06-.08-.11-.15-.15-.23Z"/><path class="cls-11" d="M81.49,85.64s-.12-.02-.15,0c-.04,.03-.03,.18-.03,.23,0,.08-.02,.76-.02,.76,.07,0,.15,.02,.23,.04,.01,0,.02,0,.02,0h0c0-.32,0-.64,0-.95,0-.07,0-.07-.06-.09Z"/><path class="cls-11" d="M82.61,81.45s.07,.07,.15,.07c.05,0,.1-.02,.12-.07,0-.02,0-.05,0-.07-.06-.43-.42-.14-.28,.07Z"/><path class="cls-11" d="M81.49,85.64s-.12-.02-.15,0c-.04,.03-.03,.18-.03,.23,0,.08-.02,.76-.02,.76,.08,.02,.15,.04,.23,.04,.01,0,.02,0,.02,0h0c0-.32,0-.64,0-.95,0-.07,0-.07-.06-.09Z"/><path class="cls-11" d="M82.76,85.89c-.06-.08-.11-.15-.15-.23-.04-.09-.06-.18-.08-.28-.02-.06-.05-.13-.12-.16-.24-.1-.61,.24-.54,.49,.02,.09,.09,.17,.15,.23,.03,.03,.34,.35,.4,.39,0,0,.01,0,.01,0,.07-.07,.15-.14,.23-.21,.02-.02,.04-.04,.07-.06,.02-.02,.04-.04,.06-.05,.03-.04,.02-.06-.03-.12Z"/><path class="cls-11" d="M87.86,82.25c-.11-.33-.48-.29-.74-.17-.35,.16-.58,.48-.5,.88,.07,.36,.41,.65,.78,.65,.05,0,.11,0,.14-.04,.05-.07-.02-.17-.1-.2-.13-.06-.25-.13-.3-.28-.12-.32,.2-.69,.53-.68,.07,0,.16,.02,.2-.04,.02-.03,.01-.07,0-.12Z"/><path class="cls-11" d="M87.86,82.25c-.11-.33-.48-.29-.74-.17-.35,.16-.58,.48-.5,.88,.07,.36,.41,.65,.78,.65,.05,0,.11,0,.14-.04,.05-.07-.02-.17-.1-.2-.13-.06-.25-.13-.3-.28-.12-.32,.2-.69,.53-.68,.07,0,.16,.02,.2-.04,.02-.03,.01-.07,0-.12Z"/><path class="cls-11" d="M82.61,81.45s.07,.07,.15,.07c.05,0,.1-.02,.12-.07,0-.02,0-.05,0-.07-.06-.43-.42-.14-.28,.07Z"/><path class="cls-11" d="M82.76,85.89c-.06-.08-.11-.15-.15-.23-.04-.09-.06-.18-.08-.28-.02-.06-.05-.13-.12-.16-.24-.1-.61,.24-.54,.49,.02,.09,.09,.17,.15,.23,.03,.03,.34,.35,.4,.39,0,0,.01,0,.01,0,.07-.07,.15-.14,.23-.21,.02-.02,.04-.04,.07-.06,.02-.02,.04-.04,.06-.05,.03-.04,.02-.06-.03-.12Z"/><path class="cls-11" d="M81.49,85.64s-.12-.02-.15,0c-.04,.03-.03,.18-.03,.23,0,.08-.02,.76-.02,.76,.08,.02,.15,.04,.23,.04,.01,0,.02,0,.02,0h0c0-.32,0-.64,0-.95,0-.07,0-.07-.06-.09Z"/><path class="cls-11" d="M82.61,81.45s.07,.07,.15,.07c.05,0,.1-.02,.12-.07,0-.02,0-.05,0-.07-.06-.43-.42-.14-.28,.07Z"/><path class="cls-11" d="M81.49,85.64s-.12-.02-.15,0c-.04,.03-.03,.18-.03,.23,0,.08-.02,.76-.02,.76,.08,.02,.15,.04,.23,.04,.01,0,.02,0,.02,0h0c0-.32,0-.64,0-.95,0-.07,0-.07-.06-.09Z"/><path class="cls-11" d="M82.76,85.89c-.06-.08-.11-.15-.15-.23-.04-.09-.06-.18-.08-.28-.02-.06-.05-.13-.12-.16-.24-.1-.61,.24-.54,.49,.02,.09,.09,.17,.15,.23,.03,.03,.34,.35,.4,.39,0,0,.01,0,.01,0,.07-.07,.15-.14,.23-.21,.02-.02,.04-.04,.07-.06,.02-.02,.04-.04,.06-.05,.03-.04,.02-.06-.03-.12Z"/><path class="cls-11" d="M87.86,82.25c-.11-.33-.48-.29-.74-.17-.35,.16-.58,.48-.5,.88,.07,.36,.41,.65,.78,.65,.05,0,.11,0,.14-.04,.05-.07-.02-.17-.1-.2-.13-.06-.25-.13-.3-.28-.12-.32,.2-.69,.53-.68,.07,0,.16,.02,.2-.04,.02-.03,.01-.07,0-.12Z"/><path class="cls-11" d="M87.86,82.25c-.11-.33-.48-.29-.74-.17-.35,.16-.58,.48-.5,.88,.07,.36,.41,.65,.78,.65,.05,0,.11,0,.14-.04,.05-.07-.02-.17-.1-.2-.13-.06-.25-.13-.3-.28-.12-.32,.2-.69,.53-.68,.07,0,.16,.02,.2-.04,.02-.03,.01-.07,0-.12Z"/><path class="cls-11" d="M82.61,81.45s.07,.07,.15,.07c.05,0,.1-.02,.12-.07,0-.02,0-.05,0-.07-.06-.43-.42-.14-.28,.07Z"/><path class="cls-11" d="M82.76,85.89c-.06-.08-.11-.15-.15-.23-.04-.09-.06-.18-.08-.28-.02-.06-.05-.13-.12-.16-.24-.1-.61,.24-.54,.49,.02,.09,.09,.17,.15,.23,.03,.03,.34,.35,.4,.39,0,0,.01,0,.01,0,.07-.07,.15-.14,.23-.21,.02-.02,.04-.04,.07-.06,.02-.02,.04-.04,.06-.05,.03-.04,.02-.06-.03-.12Z"/><path class="cls-11" d="M81.49,85.64s-.12-.02-.15,0c-.04,.03-.03,.18-.03,.23,0,.08-.02,.76-.02,.76,.08,.02,.15,.04,.23,.04,.01,0,.02,0,.02,0h0c0-.32,0-.64,0-.95,0-.07,0-.07-.06-.09Z"/><path class="cls-11" d="M82.61,81.45s.07,.07,.15,.07c.05,0,.1-.02,.12-.07,0-.02,0-.05,0-.07-.06-.43-.42-.14-.28,.07Z"/><path class="cls-11" d="M87.86,82.25c-.11-.33-.48-.29-.74-.17-.35,.16-.58,.48-.5,.88,.07,.36,.41,.65,.78,.65,.05,0,.11,0,.14-.04,.05-.07-.02-.17-.1-.2-.13-.06-.25-.13-.3-.28-.12-.32,.2-.69,.53-.68,.07,0,.16,.02,.2-.04,.02-.03,.01-.07,0-.12Z"/><path class="cls-11" d="M87.86,82.25c-.11-.33-.48-.29-.74-.17-.35,.16-.58,.48-.5,.88,.07,.36,.41,.65,.78,.65,.05,0,.11,0,.14-.04,.05-.07-.02-.17-.1-.2-.13-.06-.25-.13-.3-.28-.12-.32,.2-.69,.53-.68,.07,0,.16,.02,.2-.04,.02-.03,.01-.07,0-.12Z"/><path class="cls-11" d="M82.61,81.45s.07,.07,.15,.07c.05,0,.1-.02,.12-.07,0-.02,0-.05,0-.07-.06-.43-.42-.14-.28,.07Z"/><path class="cls-9" d="M97.29,93c-.17-2.79-.58-5.51-1.59-8.13-.12-.32-.24-.62-.37-.94h0c-.29-.13-.68-.39-.83-.67-.08-.15-.13-.33-.15-.51h0c-.77-1.43-3.8-3.74-4.37-4.17h0c-.07-.01-.13-.03-.19-.06-.81-.4-2.05-.54-2.81,.02-.53,.39-.95,.95-1.36,1.46-.24,.29-.46,.6-.69,.91,0,0,.28-2.94,0-3.45-.11-.2-.25-.29-.38-.32-.26-.05-.36-.29-.42-.53-.08-.3-.16-.61-.25-.91-.18-.64-.34-1.41-.43-2.09-.01-.01-.02-.02-.02-.02-.24-.23-.39-.32-.39-.32-.07,.15-.13,.38-.2,1.37-.08,.98-.41,3.4-.41,3.4,0,.06-.21,.19-.26,.23-.09,.07-.17,.15-.26,.23-.17,.15-.35,.31-.53,.46-.34,.29-.67,.6-1,.91-.36,.35-.69,.76-.86,1.24-.17,.45-.18,.94-.17,1.4,.22-.46,.7-.68,1.21-.78,.08-.01,.17-.01,.23,.03,.2,.15,.17,.56,.18,.78,.03,.51,.01,1.01,.01,1.52,.23-.05,.47-.04,.69,0,.43,.08,.87,.09,1.27,.31,.2,.11,.37,.27,.46,.48,.01,.02,.02,.04,.02,.06,0,0,1.9,.66,2.66,.31,.76-.35,.44-.76,.44-.76,0,0,1.91,.13,2.32-.1,.41-.23,1.33-1.63,2.45-1.38,1.11,.24,1.75,.7,1.85,1.16s.35,.83-.56,2.06c-.91,1.22-1.71,2.57-1.71,2.57,0,0-.56,.73-.19,1.19,.2,.24,.32,.31,.45,.39,.12,.07,.24,.13,.43,.32,.39,.39,.8,1.28,1.22,1.52,.41,.24,1.07,.29,1.58,.15,.51-.15,1.11-.58,1.73-.25,.62,.33,.43,1.4,.43,1.4,0,0-.17,.87-.81,1.01-.64,.15-.45,.56-.45,.56,0,0,0,.23,.99,.12,.57-.06,.91-.1,1.1-.12v-.02c-.02-.67-.02-1.33-.06-2.01Zm-14.9-10.68c-.15,.1-.32,.19-.5,.23-.24,.06-.52,.02-.69-.18-.29-.37-.12-.87,.15-1.21,.06-.07,.12-.13,.18-.19,.2-.18,.5-.33,.77-.28,.31,.06,.61,.28,.69,.59,.12,.45-.25,.83-.6,1.05Zm6.22,1c-.57,.45-1.63,.75-2.26,.26-.19-.15-.55-.53-.47-.83,0-.02,.02-.04,.04-.07,.24-.36,.59-.69,1-.83,.45-.15,.88-.02,1.27,.23,.23,.15,.53,.35,.68,.59,.15,.24-.06,.49-.25,.64Z"/><path class="cls-11" d="M97.04,96.16c-.26,.28-.72,.42-1.08,.5-.42,.09-.84,.1-1.27,.12-1.24,.05-2.47,.09-3.71,.1-2.08,.02-4.17,0-6.25,0h-2.94c-.86,0-1.9-.34-2.34-1.14-.34-.62-.37-1.43-.46-2.12-.11-.78-.07-1.61,.22-2.35,.09-.21,.18-.42,.21-.63,.04-.26-.04-.42-.14-.64-.11-.26-.19-.54-.29-.81-.15-.35-.35-.7-.48-1.07-.28-.6-.46-1.21-.37-1.88,.02-.11,.04-.22,.06-.32,.04-.18,.1-.36,.17-.54,.07-.22,.17-.43,.26-.64,.06-.14,.12-.28,.19-.42,.03-.07,.07-.14,.1-.21,.11-.21,.23-.42,.31-.63,0-.02,.01-.03,.02-.05,.08-.26,.08-.58,.08-.86v-.07c.22-.46,.7-.68,1.21-.78,.08-.01,.17-.01,.23,.03,.2,.15,.17,.56,.18,.78,.03,.51,.01,1.01,.01,1.52-.2,.04-.39,.13-.53,.28-.29,.29-.35,.66-.26,1.03h0s0,.06,.01,.09c0,.02,.01,.04,.02,.05,.02,.06,.04,.1,.06,.15v1.57s-.05,.03-.03,.07c0,0-.09,1,.84,1.21,.92,.21,2.69,.38,3.49,.13,.58-.18,.97-.38,1.24-.55,.1-.07,.19-.13,.26-.2,0,0-.15,.04-.39,.1-.54,.13-1.49,.33-1.92,.26-.61-.09-1.15-.58-1.15-.58,.11-.06-.07-.69-.07-.69,0,0,.58-.49,.48-1.16,.27-.25,.51-.54,.39-.92,0,0,1.9,.66,2.66,.31,.76-.35,.44-.76,.44-.76,0,0,1.91,.13,2.32-.1,.41-.23,1.33-1.63,2.45-1.38,1.11,.24,1.75,.7,1.85,1.16s.35,.83-.56,2.06c-.91,1.22-1.71,2.57-1.71,2.57,0,0-.56,.73-.19,1.19,.2,.24,.32,.31,.45,.39,.12,.07,.24,.13,.43,.32,.39,.39,.8,1.28,1.22,1.52,.41,.24,1.07,.29,1.58,.15,.51-.15,1.11-.58,1.73-.25,.62,.33,.43,1.4,.43,1.4,0,0-.17,.87-.81,1.01-.64,.15-.45,.56-.45,.56,0,0,0,.23,.99,.12,.57-.06,.91-.1,1.1-.12,.01,.44,0,.78-.31,1.13Z"/><path class="cls-10" d="M95.32,83.94c-.29-.13-.68-.39-.83-.67-.08-.15-.13-.33-.15-.51h0c-.05-.37-.02-.75-.04-1.08-.04-.69-.09-1.38-.1-2.06-.03-1.02-.02-2.04,.02-3.05,.01-.39,.04-1.41-.48-1.51-.16-.03-.32,.05-.45,.15-.46,.36-.83,.91-1.17,1.38-.36,.49-.66,1.05-1.06,1.5-.25,.29-.67,.58-1.08,.51h0c-.07-.01-.13-.03-.19-.06-.81-.4-2.05-.54-2.81,.02-.53,.39-.95,.95-1.36,1.46-.24,.29-.46,.6-.69,.91,0,0,.28-2.94,0-3.45-.11-.2-.25-.29-.38-.32-.26-.05-.36-.29-.42-.53-.08-.3-.16-.61-.25-.91-.18-.64-.34-1.41-.43-2.09,.33,.31,.84,.86,1.44,1.8,.29,.44,.64,.85,1.1,1.13,.24,.15,.53,.29,.88,.39,1.17,.34,2.42,.62,3.52-.03,.61-.35,1.16-.81,1.63-1.32,.43-.48,.87-.98,1.54-1.11,.09-.02,.2-.03,.29-.01,.31,.07,.51,.43,.65,.69,.42,.76,.49,1.58,.53,2.43,.04,1.11,.05,2.22,.04,3.33,0,.64-.1,1.36,0,2,.05,.34,.1,.65,.23,.96,.01,.02,.02,.06,.03,.08Z"/><path class="cls-11" d="M94.34,82.75c-.77-1.42-3.8-3.73-4.37-4.16,.4,.07,.83-.23,1.08-.51,.4-.45,.7-1.01,1.06-1.5,.35-.46,.71-1.02,1.17-1.38,.13-.1,.29-.18,.45-.15,.52,.1,.49,1.12,.48,1.51-.04,1-.05,2.03-.02,3.05,.02,.69,.06,1.38,.1,2.06,.02,.33,0,.72,.04,1.08Z"/><path class="cls-10" d="M88.86,82.68c-.15-.24-.45-.43-.68-.59-.39-.26-.82-.39-1.27-.23-.42,.14-.76,.46-1,.83-.02,.02-.03,.04-.04,.07-.08,.29,.28,.68,.47,.83,.64,.49,1.69,.19,2.26-.26,.19-.15,.4-.4,.25-.64Zm-1-.32c-.04,.06-.13,.05-.2,.04-.33,0-.65,.36-.53,.68,.05,.15,.17,.22,.3,.28,.08,.04,.15,.13,.1,.2-.03,.04-.09,.05-.14,.04-.37,0-.71-.29-.78-.65-.08-.4,.15-.72,.5-.88,.26-.12,.63-.16,.74,.17,.01,.04,.02,.09,0,.12Z"/><path class="cls-1" d="M87.86,82.37c-.04,.06-.13,.05-.2,.04-.33,0-.65,.36-.53,.68,.05,.15,.17,.22,.3,.28,.08,.04,.15,.13,.1,.2-.03,.04-.09,.05-.14,.04-.37,0-.71-.29-.78-.65-.08-.4,.15-.72,.5-.88,.26-.12,.63-.16,.74,.17,.01,.04,.02,.09,0,.12Z"/><path class="cls-1" d="M82.13,81.09s.06,.01,.07,.04c.01,.03,0,.06-.03,.09-.07,.08-.17,.13-.24,.21-.12,.09-.17,.18-.14,.32,.01,.11,.07,.26-.01,.36-.08,.09-.25,.09-.31-.07-.03-.06-.02-.13-.02-.2,.02-.23,.09-.51,.29-.65,.11-.08,.26-.12,.39-.1Z"/><path class="cls-1" d="M82.89,81.38s0,.05,0,.07c-.02,.04-.07,.07-.12,.07-.08,0-.13-.03-.15-.07-.15-.21,.22-.5,.28-.07Z"/><path class="cls-10" d="M83.02,85.82s-.04,.04-.07,.05c-.06,.05-.1,.09-.16,.14,.03-.04,.02-.06-.03-.12-.06-.08-.11-.15-.15-.23-.04-.09-.06-.18-.08-.28-.02-.06-.05-.13-.12-.16-.24-.1-.61,.24-.54,.49,.02,.09,.09,.17,.15,.23,.03,.03,.34,.35,.4,.39-.02,.02-.03,.03-.05,.04-.26,.21-.53,.32-.83,.3,0-.32,0-.63,0-.95,0-.07,0-.07-.06-.09-.04,0-.12-.02-.15,0-.04,.03-.03,.18-.03,.23,0,.08-.02,.76-.02,.76-.42-.13-.82-.52-1.02-.97h0c-.02-.06-.04-.1-.06-.16,.03,.07,.07,.14,.14,.19,.11,.09,.26,.09,.39,.02,.13-.06,.26-.17,.34-.29,.04-.06,.07-.14,.06-.22-.01-.07-.06-.14-.11-.2-.07-.07-.15-.14-.25-.17-.07-.02-.15-.02-.2,.03-.09,.09-.06,.23-.12,.32-.06,.08-.25,.09-.28,.18-.09-.37-.02-.74,.26-1.03,.15-.15,.33-.23,.53-.28,.23-.05,.47-.04,.69,0,.43,.08,.87,.09,1.27,.31,.2,.11,.37,.27,.46,.48,.01,.02,.02,.04,.02,.06,.12,.38-.12,.67-.39,.92Z"/><path class="cls-1" d="M81.12,85.19c.01,.08-.01,.16-.06,.22-.08,.12-.21,.23-.34,.29-.12,.07-.28,.07-.39-.02-.07-.05-.11-.12-.14-.19-.01-.04-.02-.09-.04-.13h0c.03-.09,.22-.1,.28-.18,.06-.1,.02-.24,.12-.32,.05-.05,.13-.06,.2-.03,.1,.02,.18,.09,.25,.17,.05,.06,.1,.12,.11,.2Z"/><path class="cls-1" d="M81.54,85.72c0,.32,0,.63,0,.95h0s-.01,0-.02,0c-.07,0-.15-.02-.23-.04,0,0,.01-.68,.02-.76,0-.05-.01-.2,.03-.23,.03-.03,.12-.01,.15,0,.06,.01,.06,.02,.06,.09Z"/><path class="cls-1" d="M82.79,86.01s-.03,.02-.06,.05c-.02,.02-.04,.04-.07,.06-.08,.07-.16,.14-.24,.21-.06-.04-.37-.36-.4-.39-.06-.07-.13-.14-.15-.23-.07-.25,.3-.59,.54-.49,.07,.03,.1,.1,.12,.16,.02,.1,.04,.19,.08,.28,.04,.08,.09,.15,.15,.23,.06,.07,.06,.09,.03,.12Z"/><path class="cls-1" d="M82.79,86.01s-.03,.02-.06,.05c-.02,.02-.04,.04-.07,.06-.08,.07-.16,.14-.23,.21,0,0,0,0-.01,0-.06-.04-.37-.36-.4-.39-.06-.07-.13-.14-.15-.23-.07-.25,.3-.59,.54-.49,.07,.03,.1,.1,.12,.16,.02,.1,.04,.19,.08,.28,.04,.08,.09,.15,.15,.23,.06,.07,.06,.09,.03,.12Z"/><path class="cls-1" d="M81.12,85.19c.01,.08-.01,.16-.06,.22-.08,.12-.21,.23-.34,.29-.12,.07-.28,.07-.39-.02-.07-.05-.11-.12-.14-.19-.01-.01-.02-.03-.02-.05-.01-.02-.02-.05-.01-.08h0c.03-.09,.22-.1,.28-.18,.06-.1,.02-.24,.12-.32,.05-.05,.13-.06,.2-.03,.1,.02,.18,.09,.25,.17,.05,.06,.1,.12,.11,.2Z"/><path class="cls-11" d="M81.54,85.72c0,.32,0,.63,0,.95h0s0,0,0,0c0,0-.01,0-.02,0-.07-.02-.15-.04-.23-.04,0,0,.01-.68,.02-.76,0-.05-.01-.2,.03-.23,.03-.03,.12-.01,.15,0,.06,.01,.06,.02,.06,.09Z"/><line class="cls-1" x1="83.99" y1="85.64" x2="87.73" y2="85.44"/><line class="cls-1" x1="86.06" y1="86.04" x2="88.4" y2="86.18"/><path class="cls-1" d="M84.19,86.65s1.49-.17,2.31,0,1.96,.64,2.31,.9"/><path class="cls-1" d="M85.35,87.22s1.27,.09,2.18,1.02"/><path class="cls-1" d="M86.44,88.72c-.17-.25-.39-.46-.63-.64"/><path class="cls-1" d="M83.63,87.22s1.12,.14,2.04,.76"/><path class="cls-1" d="M80.15,84.15s-.81-.78-1.58-.91"/><path class="cls-1" d="M79.67,84.66s-.85-.85-2.02-.97"/><path class="cls-1" d="M79.35,85.08s-1.53-.84-2.48-.73"/><path class="cls-1" d="M79.67,85.77s-.53-.38-2.2-.48"/><path class="cls-1" d="M79.35,86.04s-1.04-.18-1.7-.11"/><path class="cls-11" d="M82.53,86.97s.18,.63,.07,.69-1.39-.19-1.96-.25c-.29-.03-.39-.09-.4-.12-.02-.04,.03-.07,.03-.07v-1.57c.2,.45,.6,.84,1.02,.97,.08,.02,.15,.04,.23,.04,.01,0,.02,0,.02,0h0c.31,.02,.58-.1,.83-.31,.02-.01,.03-.02,.05-.04,0,0,.01,0,.01,0,.07-.07,.15-.14,.23-.21,.02-.02,.04-.04,.07-.06,.02-.02,.04-.04,.06-.05,.06-.05,.1-.09,.16-.14,.02-.02,.04-.04,.07-.05,.09,.67-.48,1.16-.48,1.16Z"/><path class="cls-10" d="M85.81,88.08c-.26,.17-.65,.37-1.24,.55-.8,.25-2.57,.08-3.49-.13-.93-.21-.84-1.21-.84-1.21,.02,.04,.11,.09,.4,.12,.58,.06,1.85,.31,1.96,.25,0,0,.54,.49,1.15,.58,.43,.07,1.38-.13,1.92-.26,.04,.03,.09,.06,.13,.1Z"/><path class="cls-11" d="M81.92,80.71s.18-.87,.84-.95c.66-.08,.98,.3,.98,.3,0,0,.34,.36,.17,.87-.08,.22-.21,.48-.33,.71-.17,.31-.37,.6-.6,.87-.49,.57-1.31,1.53-1.31,1.53l-.21-.03,.34-1.44"/><path class="cls-1" d="M87.86,82.37c-.04,.06-.13,.05-.2,.04-.33,0-.65,.36-.53,.68,.05,.15,.17,.22,.3,.28,.08,.04,.15,.13,.1,.2-.03,.04-.09,.05-.14,.04-.37,0-.71-.29-.78-.65-.08-.4,.15-.72,.5-.88,.26-.12,.63-.16,.74,.17,.01,.04,.02,.09,0,.12Z"/><path class="cls-1" d="M82.89,81.38s0,.05,0,.07c-.02,.04-.07,.07-.12,.07-.08,0-.13-.03-.15-.07-.15-.21,.22-.5,.28-.07Z"/><path class="cls-1" d="M82.2,81.12s0,.06-.03,.09c-.07,.08-.17,.13-.24,.21-.12,.09-.17,.18-.14,.32,.01,.11,.07,.26-.01,.36-.08,.09-.25,.09-.31-.07-.03-.06-.02-.13-.02-.2,.02-.23,.09-.51,.29-.65,.11-.08,.26-.12,.39-.1,.03,0,.06,.01,.07,.04Z"/><path class="cls-1" d="M94.23,83.84s.14,6.03-7.71,9.56"/><path class="cls-10" d="M82.99,81.28c-.09-.31-.39-.53-.69-.59-.28-.05-.57,.1-.77,.28-.06,.06-.12,.12-.18,.19-.27,.34-.44,.84-.15,1.21,.17,.2,.45,.24,.69,.18,.18-.04,.35-.13,.5-.23,.35-.23,.72-.6,.6-1.05Zm-.82-.07c-.07,.08-.17,.13-.24,.21-.12,.09-.17,.18-.14,.32,.01,.11,.07,.26-.01,.36-.08,.09-.25,.09-.31-.07-.03-.06-.02-.13-.02-.2,.02-.23,.09-.51,.29-.65,.11-.08,.26-.12,.39-.1,.03,0,.06,.01,.07,.04,.01,.03,0,.06-.03,.09Zm.72,.24s-.07,.07-.12,.07c-.08,0-.13-.03-.15-.07-.15-.21,.22-.5,.28-.07,0,.02,0,.05,0,.07Z"/><g><path class="cls-10" d="M85.9,91.75l-1.34,4.22h-.82l-.93-3.21-.94,3.21h-.82l-1.34-4.22h.84l.93,3.21,.93-3.21h.78l.93,3.21,.93-3.21h.83Z"/><path class="cls-10" d="M86.76,95.43c-.41-.41-.61-.93-.61-1.57s.21-1.16,.61-1.57,.94-.61,1.58-.61,1.17,.2,1.58,.61c.41,.41,.61,.93,.61,1.57s-.21,1.16-.61,1.57c-.41,.41-.94,.61-1.58,.61s-1.17-.2-1.58-.61Zm.61-2.67c-.25,.29-.38,.65-.38,1.1s.13,.81,.38,1.1,.58,.43,.97,.43,.72-.14,.97-.43,.38-.65,.38-1.1-.13-.81-.38-1.1c-.25-.28-.57-.43-.97-.43s-.72,.14-.97,.43Z"/><path class="cls-10" d="M96.96,91.75l-1.34,4.22h-.82l-.93-3.21-.94,3.21h-.82l-1.34-4.22h.84l.93,3.21,.93-3.21h.78l.93,3.21,.93-3.21h.83Z"/></g></svg>