<svg width="1676" height="858" viewBox="0 0 1676 858" fill="none" xmlns="http://www.w3.org/2000/svg"><path d="M737.102 553.112V456.465L821.53 406.827V502.455L737.102 553.112Z" fill="#E6E8EA"/><path d="M890.6 464.866V368.135L975.113 318.496V414.124L890.6 464.866Z" fill="#E6E8EA" stroke="#003D2E" stroke-width="2.54557" stroke-linecap="round" stroke-linejoin="round"/><path d="M819.07 603.09L902.649 555.319L820.258 505.341L735.915 554.894L819.07 603.09Z" fill="#00FF94"/><path d="M974.942 513.996L1058.52 466.224L976.13 416.246L891.702 465.8L974.942 513.996Z" fill="#00FF94" stroke="#163B2F" stroke-width="2.54557" stroke-linecap="round" stroke-linejoin="round"/><path d="M902.308 361.516L985.803 410.56L906.126 456.89L822.292 407.76L736.677 457.229L583.518 369.492L670.068 319.09L742.022 361.516L750.338 356.594L750.083 272.506L824.499 229.146L975.026 318.92L902.308 361.516Z" fill="#00FF94" stroke="#163B2F" stroke-width="2.54557" stroke-linecap="round" stroke-linejoin="round"/><path d="M750.339 356.595L821.53 314.763L750.424 273.609L750.339 356.595Z" fill="white"/><path d="M749.15 356.425L748.98 273.779" stroke="#003C2E" stroke-width="2.54557" stroke-linecap="round" stroke-linejoin="round"/><path d="M821.529 798.674V603.769L906.721 554.215L906.212 456.975L985.888 410.645L986.397 507.546L1058.27 466.393V660.959L821.529 798.674Z" fill="#E6E8EA" stroke="#003D2E" stroke-width="2.54557" stroke-linecap="round" stroke-linejoin="round"/><path d="M817.541 800.626C819.153 801.56 821.104 800.372 821.104 798.59V605.297L737.78 556.676C737.016 556.252 736.592 555.488 736.592 554.64V457.314L736.337 457.06L587.082 369.832C585.47 368.898 583.518 368.729 583.518 370.595V662.572C583.518 663.42 583.943 664.184 584.706 664.608L817.541 800.711V800.626Z" fill="white" stroke="#163B2F" stroke-width="2.54557" stroke-linecap="round" stroke-linejoin="round"/><path d="M821.105 503.389L736.592 554.13" stroke="#003C2E" stroke-width="2.46071" stroke-linecap="round" stroke-linejoin="round"/><path d="M906.552 554.215V457.569L822.633 408.524V504.407L906.552 554.215Z" fill="white"/><path d="M822.633 504.407V408.524" stroke="#003C2E" stroke-width="2.54557" stroke-linecap="round" stroke-linejoin="round"/><path d="M584.792 562.785L821.106 700.925" stroke="#003C2E" stroke-width="2.63042" stroke-linecap="round" stroke-linejoin="round"/><path d="M584.877 465.545L738.799 557.185" stroke="#003C2E" stroke-width="2.54557" stroke-linecap="round" stroke-linejoin="round"/><path d="M736.593 554.131L735.235 751.667" stroke="#003C2E" stroke-width="2.63042" stroke-linecap="round" stroke-linejoin="round"/><path d="M657.341 410.9V707.119" stroke="#003C2E" stroke-width="2.54557" stroke-linecap="round" stroke-linejoin="round"/><path d="M822.378 700.161L1058.01 562.87" stroke="#003C2E" stroke-width="2.63042" stroke-linecap="round" stroke-linejoin="round"/><path d="M866.841 576.532L990.301 505.341" stroke="#003C2E" stroke-width="2.63042" stroke-linecap="round" stroke-linejoin="round"/><path d="M906.551 749.206V456.466" stroke="#003C2E" stroke-width="2.63042" stroke-linecap="round" stroke-linejoin="round"/><path d="M985.804 413.7V703.046" stroke="#003C2E" stroke-width="2.63042" stroke-linecap="round" stroke-linejoin="round"/><path d="M742.024 361.516L905.534 456.466" stroke="#003C2E" stroke-width="2.54557" stroke-linecap="round" stroke-linejoin="round"/><path d="M822.293 407.761L902.309 361.516" stroke="#003C2E" stroke-width="2.54557" stroke-linecap="round" stroke-linejoin="round"/><path d="M657.341 410.9L894.927 271.827" stroke="#003C2E" stroke-width="2.54557" stroke-linecap="round" stroke-linejoin="round"/><path d="M749.32 272.76L984.275 409.457" stroke="#003C2E" stroke-width="2.54557" stroke-linecap="round" stroke-linejoin="round"/><path d="M839.434 634.061V536.566L922.25 488.879V585.271L839.434 634.061Z" fill="#E6E8EA" stroke="#003D2E" stroke-width="2.54557" stroke-linecap="round" stroke-linejoin="round"/><path d="M839.432 634.231V536.736L757.38 488.879V585.611L839.432 634.231Z" fill="white" stroke="#163B2F" stroke-width="2.54557" stroke-linecap="round" stroke-linejoin="round"/><path d="M798.066 103.947L718.305 150.277L638.628 103.863L719.238 56.9393L798.066 103.947Z" fill="#00FF94" stroke="#163B2F" stroke-width="2.54557" stroke-linecap="round" stroke-linejoin="round"/><path d="M718.306 244.123V149.852L798.406 103.777V196.945L718.306 244.123Z" fill="#E6E8EA" stroke="#003D2E" stroke-width="2.54557" stroke-linecap="round" stroke-linejoin="round"/><path d="M718.305 244.123V149.852L638.968 103.692V197.115L718.305 244.123Z" fill="white" stroke="#163B2F" stroke-width="2.54557" stroke-linecap="round" stroke-linejoin="round"/><path d="M1199.9 291.131L1120.14 337.46L1040.46 291.046L1121.07 244.123L1199.9 291.131Z" fill="#00FF94" stroke="#163B2F" stroke-width="2.54557" stroke-linecap="round" stroke-linejoin="round"/><path d="M1120.14 431.306V337.12L1200.24 290.961V384.129L1120.14 431.306Z" fill="#E6E8EA" stroke="#003D2E" stroke-width="2.54557" stroke-linecap="round" stroke-linejoin="round"/><path d="M1120.14 431.307V337.121L1040.8 290.876V384.384L1120.14 431.307Z" fill="white" stroke="#163B2F" stroke-width="2.54557" stroke-linecap="round" stroke-linejoin="round"/><path d="M922.248 489.134L839.772 537.075L757.38 489.049L840.705 440.513L922.248 489.134Z" fill="#00FF94" stroke="#163B2F" stroke-width="2.54557" stroke-linecap="round" stroke-linejoin="round"/><path d="M420.255 186.799H384.683C395.886 186.799 405.126 177.675 405.126 166.357C405.126 155.038 396.001 145.914 384.683 145.914H282.471C271.268 145.914 262.028 155.038 262.028 166.357H230.614C219.411 166.357 210.171 175.481 210.171 186.799C210.171 198.117 219.295 207.242 230.614 207.242H297.6C297.6 218.445 306.724 227.684 318.043 227.684H420.255C431.458 227.684 440.698 218.56 440.698 207.242C440.698 195.923 431.574 186.799 420.255 186.799Z" fill="#03FC9D"/><path d="M138.334 255.402L316.08 255.402C335.662 255.402 351.536 239.528 351.536 219.946C351.536 200.363 335.662 184.489 316.08 184.489L138.334 184.489C118.752 184.489 102.877 200.363 102.877 219.946C102.877 239.528 118.752 255.402 138.334 255.402Z" fill="#E6E8EA"/><path d="M1356.06 504.407H1443.6C1453.22 504.407 1461.02 496.606 1461.02 486.983V486.923C1461.02 477.3 1453.22 469.499 1443.6 469.499H1356.06C1346.44 469.499 1338.63 477.3 1338.63 486.923V486.983C1338.63 496.606 1346.44 504.407 1356.06 504.407Z" fill="#E6E8EA"/><path d="M1403.53 477.618H1546.84C1562.62 477.618 1575.4 464.829 1575.4 449.052C1575.4 433.275 1562.62 420.485 1546.84 420.485H1403.53C1387.75 420.485 1374.96 433.275 1374.96 449.052C1374.96 464.829 1387.75 477.618 1403.53 477.618Z" fill="#E6E8EA"/><path d="M1375.5 200.658H1433.73" stroke="#003B2F" stroke-width="3" stroke-linecap="round" stroke-linejoin="round"/><path d="M1331.29 200.658H1345.97" stroke="#003B2F" stroke-width="3" stroke-linecap="round" stroke-linejoin="round"/><path d="M1245.36 147.242L1259.13 161.011" stroke="#003B2F" stroke-width="3" stroke-linecap="round" stroke-linejoin="round"/><path d="M1269.17 171.047L1282.94 184.816" stroke="#003B2F" stroke-width="3" stroke-linecap="round" stroke-linejoin="round"/><path d="M1245.36 184.816L1259.13 171.047" stroke="#003B2F" stroke-width="3" stroke-linecap="round" stroke-linejoin="round"/><path d="M1269.17 161.011L1282.94 147.242" stroke="#003B2F" stroke-width="3" stroke-linecap="round" stroke-linejoin="round"/><path d="M551.762 265.55L533.873 247.662L515.985 265.55L533.873 283.439L551.762 265.55Z" stroke="#003B2F" stroke-width="3" stroke-linecap="round" stroke-linejoin="round"/><path d="M1199.33 641.612L1220.15 653.639" stroke="#003B2F" stroke-width="3" stroke-linecap="round" stroke-linejoin="round"/><path d="M1241.05 641.612L1228.77 648.662" stroke="#003B2F" stroke-width="3" stroke-linecap="round" stroke-linejoin="round"/><path d="M1220.15 653.639V677.942" stroke="#003B2F" stroke-width="3" stroke-linecap="round" stroke-linejoin="round"/><path d="M1199.33 710.953H1350.2" stroke="#03FC9D" stroke-width="3" stroke-linecap="round" stroke-linejoin="round"/><path d="M1317.36 744.214H1433.73" stroke="#003B2F" stroke-width="3" stroke-linecap="round" stroke-linejoin="round"/><path d="M395.043 539.267H453.27" stroke="#003B2F" stroke-width="3" stroke-linecap="round" stroke-linejoin="round"/><path d="M350.834 539.267H365.515" stroke="#003B2F" stroke-width="3" stroke-linecap="round" stroke-linejoin="round"/><path d="M250.056 684.254H278.838" stroke="#003B2F" stroke-width="3" stroke-linecap="round" stroke-linejoin="round"/><path d="M129.703 619.805H337.894" stroke="#03FC9D" stroke-width="3" stroke-linecap="round" stroke-linejoin="round"/><path d="M315.997 684.171H432.368" stroke="#003B2F" stroke-width="3" stroke-linecap="round" stroke-linejoin="round"/><path d="M264.903 485.851L278.672 499.62" stroke="#003B2F" stroke-width="3" stroke-linecap="round" stroke-linejoin="round"/><path d="M288.708 509.656L302.477 523.425" stroke="#003B2F" stroke-width="3" stroke-linecap="round" stroke-linejoin="round"/><path d="M264.903 523.425L278.672 509.656" stroke="#003B2F" stroke-width="3" stroke-linecap="round" stroke-linejoin="round"/><path d="M288.708 499.62L302.477 485.851" stroke="#003B2F" stroke-width="3" stroke-linecap="round" stroke-linejoin="round"/></svg>