<svg width="1920" height="1080" viewBox="0 0 1920 1080" fill="none" xmlns="http://www.w3.org/2000/svg"><path d="M1662.09 414.667L1680.4 435.748" stroke="#003B2F" stroke-width="3" stroke-linecap="round" stroke-linejoin="round"/><path d="M1707.82 430.48L1691.67 433.573" stroke="#003B2F" stroke-width="3" stroke-linecap="round" stroke-linejoin="round"/><path d="M1680.4 435.748L1671.16 462.486" stroke="#003B2F" stroke-width="3" stroke-linecap="round" stroke-linejoin="round"/><path d="M423.187 525.933H373.37C389.155 525.933 401.968 514.35 401.968 500C401.968 485.649 389.155 474.066 373.37 474.066H230.275C214.489 474.066 201.676 485.649 201.676 500H157.702C141.917 500 129.104 511.583 129.104 525.933C129.104 540.284 141.917 551.866 157.702 551.866H251.493C251.493 566.217 264.306 577.8 280.092 577.8H423.187C438.972 577.8 451.785 566.217 451.785 551.866C451.785 537.516 438.972 525.933 423.187 525.933Z" fill="#03FC9D"/><path d="M1530.27 532.087C1538.9 532.087 1545.91 525.086 1545.91 516.448C1545.91 507.811 1538.9 500.809 1530.27 500.809C1521.63 500.809 1514.63 507.811 1514.63 516.448C1514.63 525.086 1521.63 532.087 1530.27 532.087Z" stroke="#003B2F" stroke-width="3" stroke-linecap="round" stroke-linejoin="round"/><path d="M1524.18 908.431H1695.86" stroke="#03FC9D" stroke-width="3" stroke-linecap="round" stroke-linejoin="round"/><path d="M1658.48 946.277H1790.9" stroke="#003B2F" stroke-width="3" stroke-linecap="round" stroke-linejoin="round"/><path d="M614.179 134.223L624.02 155.134" stroke="#003B2F" stroke-width="3" stroke-linecap="round" stroke-linejoin="round"/><path d="M631.194 170.509L641.034 191.42" stroke="#003B2F" stroke-width="3" stroke-linecap="round" stroke-linejoin="round"/><path d="M599.009 176.25L619.92 166.41" stroke="#003B2F" stroke-width="3" stroke-linecap="round" stroke-linejoin="round"/><path d="M635.295 159.234L656.206 149.394" stroke="#003B2F" stroke-width="3" stroke-linecap="round" stroke-linejoin="round"/><path d="M147.248 929.806H182.92" stroke="#003B2F" stroke-width="3" stroke-linecap="round" stroke-linejoin="round"/><path d="M277.119 890.65H451.785" stroke="#03FC9D" stroke-width="3" stroke-linecap="round" stroke-linejoin="round"/><path d="M229.045 929.704H373.678" stroke="#003B2F" stroke-width="3" stroke-linecap="round" stroke-linejoin="round"/><path d="M1499.34 230.76H1627.43C1641.54 230.76 1652.97 242.189 1652.97 256.298C1652.97 270.407 1641.54 281.837 1627.43 281.837H1499.34C1485.23 281.837 1473.81 270.407 1473.81 256.298C1473.81 242.189 1485.23 230.76 1499.34 230.76Z" fill="#E6E8EA"/><path d="M1436.02 260.866H1578.53C1594.22 260.866 1606.98 273.556 1606.98 289.321C1606.98 305.085 1594.29 317.775 1578.53 317.775H1436.02C1420.33 317.775 1407.56 305.085 1407.56 289.321C1407.56 273.635 1420.33 260.866 1436.02 260.866Z" fill="#E6E8EA"/><path d="M766.144 847.3H699.163V279.492H766.144" stroke="#003B2F" stroke-width="3" stroke-linecap="round" stroke-linejoin="round"/><path d="M684.2 792.717H628.212V334.073H684.2" stroke="#003B2F" stroke-width="3" stroke-linecap="round" stroke-linejoin="round"/><path d="M612.107 754.371H565.578V372.423H612.107" stroke="#003B2F" stroke-width="3" stroke-linecap="round" stroke-linejoin="round"/><path d="M1310.57 422.497V236.029H777.959V890.873H1156.64" stroke="#003B2F" stroke-width="3" stroke-linecap="round" stroke-linejoin="round"/><line x1="843.88" y1="332.573" x2="1097.1" y2="332.573" stroke="#003B2F" stroke-width="3"/><line x1="843.88" y1="448.125" x2="1097.1" y2="448.125" stroke="#003B2F" stroke-width="3"/><line x1="843.88" y1="563.677" x2="884.283" y2="563.677" stroke="#003B2F" stroke-width="3"/><line x1="910.732" y1="563.677" x2="1071.21" y2="563.677" stroke="#003B2F" stroke-width="3"/><line x1="843.88" y1="390.349" x2="1233.55" y2="390.349" stroke="#003B2F" stroke-width="3"/><line x1="843.88" y1="505.901" x2="1065.01" y2="505.901" stroke="#003B2F" stroke-width="3"/><line x1="843.88" y1="621.453" x2="919.512" y2="621.453" stroke="#003B2F" stroke-width="3"/><line x1="943.383" y1="621.453" x2="1010" y2="621.453" stroke="#003B2F" stroke-width="3"/><path d="M228.387 225.578H491.666" stroke="#03FC9D" stroke-width="3" stroke-linecap="round" stroke-linejoin="round"/><path d="M197.301 260.866H344.538" stroke="#003B2F" stroke-width="3" stroke-linecap="round" stroke-linejoin="round"/><path d="M1297.7 929.704C1149.22 891.465 1101.7 768.025 1101.7 685.422V523.373C1101.7 523.373 1137.2 521.331 1195.07 501.655C1230.02 489.775 1264.41 475.667 1297.7 459.704C1331.16 475.667 1365.37 489.589 1400.32 501.655C1458.01 521.331 1493.7 523.373 1493.7 523.373V685.422C1493.7 767.839 1446.36 891.279 1297.7 929.704Z" fill="white" stroke="#003B2F" stroke-width="3" stroke-linecap="round" stroke-linejoin="round"/><path d="M1366.75 822.189H1222.72C1203.2 822.189 1187.37 807.998 1187.37 790.511V661.564C1187.37 644.076 1203.2 629.886 1222.72 629.886H1366.75C1386.27 629.886 1402.1 646.87 1402.1 664.357V790.455C1402.1 807.942 1386.27 822.133 1366.75 822.133V822.189Z" fill="#03FC9D"/><path d="M1355.21 634.643V599.583C1355.21 569.46 1330.67 544.947 1300.51 544.947C1270.35 544.947 1245.81 569.46 1245.81 599.583V634.643" stroke="#003B2F" stroke-width="3" stroke-linecap="round" stroke-linejoin="round"/><path d="M1222.7 634.82V599.778C1222.7 589.237 1224.78 579.033 1228.81 569.445C1232.72 560.138 1238.32 551.84 1245.49 544.664C1252.65 537.487 1260.94 531.881 1270.23 527.956C1279.85 523.863 1290.04 521.845 1300.51 521.845C1310.98 521.845 1321.22 523.919 1330.79 527.956C1340.08 531.881 1348.37 537.487 1355.53 544.664C1362.7 551.84 1368.29 560.138 1372.21 569.445C1376.3 579.089 1378.31 589.293 1378.31 599.778V635.324" stroke="#003B2F" stroke-width="3" stroke-linecap="round" stroke-linejoin="round"/><path d="M1372.75 827.628H1228.27C1208.68 827.628 1192.8 813.387 1192.8 795.838V666.435C1192.8 648.886 1208.68 634.645 1228.27 634.645H1372.75C1392.33 634.645 1408.21 651.689 1408.21 669.238V795.781C1408.21 813.331 1392.33 827.572 1372.75 827.572V827.628Z" stroke="#003B2F" stroke-width="3" stroke-linecap="round" stroke-linejoin="round"/><path d="M1213.63 767.537V757.186L1233.93 735.982C1237.95 731.761 1241.03 728.412 1243.18 725.933C1245.39 723.387 1246.93 721.21 1247.8 719.401C1248.67 717.592 1249.11 715.749 1249.11 713.873C1249.11 710.725 1248.1 708.246 1246.09 706.437C1244.15 704.628 1241.64 703.724 1238.55 703.724C1235.34 703.724 1232.56 704.662 1230.21 706.537C1227.87 708.346 1226.16 711.026 1225.09 714.577L1213.13 710.859C1213.93 706.906 1215.57 703.489 1218.05 700.608C1220.53 697.66 1223.55 695.416 1227.1 693.875C1230.72 692.267 1234.53 691.463 1238.55 691.463C1243.38 691.463 1247.6 692.334 1251.22 694.076C1254.9 695.818 1257.75 698.263 1259.76 701.412C1261.84 704.561 1262.87 708.246 1262.87 712.467C1262.87 715.146 1262.37 717.793 1261.37 720.406C1260.36 723.018 1258.85 725.698 1256.84 728.445C1254.83 731.125 1252.22 734.14 1249.01 737.49L1231.42 755.98H1263.88V767.537H1213.63ZM1298.82 768.743C1294.87 768.743 1291.08 768.006 1287.46 766.532C1283.91 765.058 1280.83 762.982 1278.22 760.302C1275.67 757.555 1273.93 754.306 1272.99 750.554L1284.85 746.333C1285.99 749.75 1287.83 752.296 1290.38 753.971C1292.92 755.579 1295.74 756.382 1298.82 756.382C1301.36 756.382 1303.61 755.846 1305.55 754.775C1307.56 753.636 1309.1 752.095 1310.17 750.152C1311.25 748.142 1311.78 745.831 1311.78 743.218C1311.78 740.605 1311.21 738.327 1310.07 736.384C1309 734.441 1307.49 732.934 1305.55 731.862C1303.61 730.723 1301.36 730.154 1298.82 730.154C1296.21 730.154 1293.83 730.723 1291.68 731.862C1289.61 733.001 1288.1 734.642 1287.16 736.786L1276.01 734.274L1281.94 692.669H1322.74V704.226H1287.36L1292.49 698.297L1288.27 729.651L1284.35 726.435C1286.22 723.688 1288.5 721.679 1291.18 720.406C1293.93 719.133 1297.24 718.496 1301.13 718.496C1306.09 718.496 1310.38 719.568 1313.99 721.712C1317.68 723.856 1320.53 726.77 1322.54 730.455C1324.55 734.14 1325.55 738.394 1325.55 743.218C1325.55 748.041 1324.38 752.396 1322.03 756.282C1319.69 760.168 1316.51 763.216 1312.49 765.427C1308.47 767.638 1303.91 768.743 1298.82 768.743ZM1361.15 768.743C1356.06 768.743 1351.53 767.671 1347.58 765.527C1343.7 763.317 1340.65 760.369 1338.44 756.684C1336.23 752.932 1335.12 748.678 1335.12 743.921C1335.12 741.509 1335.36 739.097 1335.82 736.686C1336.36 734.274 1337.3 731.694 1338.64 728.948C1340.04 726.201 1342.05 723.152 1344.67 719.803L1365.57 692.669H1381.85L1356.43 725.33L1354.21 722.918C1355.15 722.181 1356.12 721.612 1357.13 721.21C1358.13 720.741 1359.14 720.406 1360.14 720.205C1361.22 720.004 1362.32 719.903 1363.46 719.903C1368.02 719.903 1372.07 720.942 1375.62 723.018C1379.17 725.095 1381.95 727.943 1383.96 731.56C1386.04 735.111 1387.08 739.131 1387.08 743.62C1387.08 748.443 1385.97 752.765 1383.76 756.583C1381.55 760.335 1378.47 763.317 1374.51 765.527C1370.63 767.671 1366.17 768.743 1361.15 768.743ZM1361.15 756.382C1363.43 756.382 1365.47 755.88 1367.28 754.875C1369.15 753.803 1370.63 752.296 1371.7 750.353C1372.84 748.41 1373.41 746.233 1373.41 743.821C1373.41 741.275 1372.84 739.097 1371.7 737.289C1370.63 735.413 1369.19 733.939 1367.38 732.867C1365.57 731.795 1363.49 731.259 1361.15 731.259C1358.87 731.259 1356.79 731.795 1354.92 732.867C1353.04 733.939 1351.53 735.413 1350.4 737.289C1349.32 739.097 1348.79 741.275 1348.79 743.821C1348.79 746.233 1349.32 748.41 1350.4 750.353C1351.53 752.296 1353.04 753.803 1354.92 754.875C1356.79 755.88 1358.87 756.382 1361.15 756.382Z" fill="#003B2F"/></svg>