<svg width="1920" height="1080" viewBox="0 0 1920 1080" fill="none" xmlns="http://www.w3.org/2000/svg"><path d="M1482.54 343.717H1628.93C1645.06 343.717 1658.12 356.779 1658.12 372.905C1658.12 389.03 1645.06 402.092 1628.93 402.092H1482.54C1466.42 402.092 1453.36 389.03 1453.36 372.905C1453.36 356.779 1466.42 343.717 1482.54 343.717Z" fill="#E6E8EA"/><path d="M1410.17 378.125H1573.04C1590.97 378.125 1605.57 392.628 1605.57 410.645C1605.57 428.662 1591.06 443.166 1573.04 443.166H1410.17C1392.24 443.166 1377.65 428.662 1377.65 410.645C1377.65 392.718 1392.24 378.125 1410.17 378.125Z" fill="#E6E8EA"/><path d="M793.46 384.508C778.234 384.508 765.344 373.621 762.766 358.541C761.396 350.315 763.249 342.009 768.002 335.234C772.836 328.46 780.006 323.864 788.223 322.493C805.464 319.509 821.334 331.202 824.235 347.976C825.604 356.202 823.751 364.509 818.998 371.283C814.164 378.057 806.994 382.654 798.777 384.025C797.005 384.347 795.232 384.508 793.46 384.508Z" fill="#03FC9D"/><path d="M1426.54 175.428H593.351C568.906 175.428 549.066 195.378 549.066 220.042V855.482H1470.82V220.042C1470.82 195.378 1450.98 175.428 1426.54 175.428Z" fill="#E6E8EA" stroke="#003D2E" stroke-width="3" stroke-linecap="round" stroke-linejoin="round"/><path d="M1436.95 209.519H582.828V787.959H1436.95V209.519Z" fill="white" stroke="#003D2E" stroke-width="3" stroke-linecap="round" stroke-linejoin="round"/><path d="M452.055 829.394V846.714C452.055 866.006 467.621 881.681 486.694 881.681H1532.97C1552.16 881.681 1567.61 866.006 1567.61 846.714V829.394H452.055Z" fill="#003D2E"/><path d="M880.54 831.587V834.108C880.54 838.383 884.048 841.891 888.323 841.891H1131.56C1135.83 841.891 1139.34 838.383 1139.34 834.108V831.587H880.65H880.54Z" fill="#E6E8EA" stroke="#003D2E" stroke-width="3" stroke-linecap="round" stroke-linejoin="round"/><path d="M1404.72 259.832H615.054V735.453H1404.72V259.832Z" fill="#E6E8EA"/><path d="M1404.72 236.374H615.055V250.405H1404.72V236.374Z" fill="#E6E8EA"/><path d="M1404.72 744.771H615.055V758.802H1404.72V744.771Z" fill="#E6E8EA"/><path d="M1355.39 407.594H946.968V715.832H1355.39V407.594Z" fill="white"/><path d="M772.133 466.348C772.133 476.652 769.283 486.188 764.351 494.409C754.924 510.084 737.824 520.607 718.203 520.607C688.497 520.607 664.381 496.273 664.381 466.238C664.381 439.93 683.016 417.898 707.789 412.965C711.187 412.307 714.695 411.978 718.312 411.978C726.862 411.978 734.864 413.952 741.989 417.459C759.856 426.338 772.133 444.863 772.133 466.238V466.348Z" fill="#003C2E"/><path d="M741.989 417.569L718.312 466.348L707.789 413.075C711.187 412.417 714.695 412.088 718.312 412.088C726.862 412.088 734.864 414.061 741.989 417.569Z" fill="#00FF94"/><path d="M907.509 466.348C907.509 476.652 904.659 486.188 899.727 494.409C890.3 510.084 873.2 520.607 853.578 520.607C823.873 520.607 799.757 496.273 799.757 466.238C799.757 439.93 818.392 417.898 843.165 412.965C846.563 412.307 850.071 411.978 853.688 411.978C862.238 411.978 870.24 413.952 877.365 417.459C895.232 426.338 907.509 444.863 907.509 466.238V466.348Z" fill="#003C2E"/><path d="M877.364 417.569L853.687 466.348L843.164 413.075C846.562 412.417 850.07 412.088 853.687 412.088C862.237 412.088 870.239 414.061 877.364 417.569Z" fill="white"/><path d="M907.511 466.348C907.511 476.652 904.661 486.188 899.728 494.409L853.58 466.348L877.257 417.569C895.124 426.448 907.401 444.973 907.401 466.348H907.511Z" fill="#00FF94"/><path d="M772.133 605.559C772.133 595.256 769.283 585.719 764.351 577.498C754.924 561.823 737.824 551.3 718.203 551.3C688.497 551.3 664.381 575.634 664.381 605.669C664.381 631.977 683.016 654.009 707.789 658.942C711.187 659.6 714.695 659.929 718.312 659.929C726.862 659.929 734.864 657.956 741.989 654.448C759.856 645.569 772.133 627.044 772.133 605.669V605.559Z" fill="#003C2E"/><path d="M741.989 654.338L718.312 605.559L707.789 658.833C711.187 659.49 714.695 659.819 718.312 659.819C726.862 659.819 734.864 657.846 741.989 654.338Z" fill="white"/><path d="M772.136 605.559C772.136 595.256 769.286 585.719 764.353 577.498L718.205 605.559L741.882 654.338C759.749 645.459 772.026 626.934 772.026 605.559H772.136Z" fill="#00FF94"/><path d="M907.509 605.559C907.509 615.863 904.659 625.4 899.727 633.621C890.3 649.296 873.2 659.819 853.578 659.819C823.873 659.819 799.757 635.484 799.757 605.45C799.757 579.142 818.392 557.109 843.165 552.177C846.563 551.519 850.071 551.19 853.688 551.19C862.238 551.19 870.24 553.163 877.365 556.671C895.232 565.55 907.509 584.075 907.509 605.45V605.559Z" fill="#003C2E"/><path d="M877.364 556.781C870.239 553.273 862.128 551.3 853.687 551.3C850.07 551.3 846.562 551.629 843.164 552.286L853.687 605.559L899.835 633.621C904.768 625.4 907.618 615.863 907.618 605.559C907.618 584.184 895.341 565.659 877.474 556.781H877.364Z" fill="#00FF94"/><path d="M996.625 535.734H976.346V581.992H996.625V535.734Z" fill="#00FF94"/><path d="M1024.57 501.644H1004.3V581.992H1024.57V501.644Z" fill="#00FF94"/><path d="M1052.42 511.071H1032.14V581.992H1052.42V511.071Z" fill="#00FF94"/><path d="M1080.26 479.721H1059.98V581.992H1080.26V479.721Z" fill="#00FF94"/><path d="M1108.1 493.861H1087.82V581.992H1108.1V493.861Z" fill="#00FF94"/><path d="M1135.95 455.605H1115.67V581.992H1135.95V455.605Z" fill="#00FF94"/><path d="M1186.7 535.734H1166.42V581.992H1186.7V535.734Z" fill="#003C2E"/><path d="M1214.65 501.644H1194.37V581.992H1214.65V501.644Z" fill="#003C2E"/><path d="M1242.49 511.071H1222.21V581.992H1242.49V511.071Z" fill="#003C2E"/><path d="M1270.33 479.721H1250.05V581.992H1270.33V479.721Z" fill="#003C2E"/><path d="M1298.18 493.861H1277.9V581.992H1298.18V493.861Z" fill="#003C2E"/><path d="M1326.02 455.605H1305.74V581.992H1326.02V455.605Z" fill="#003C2E"/><path d="M1108.1 611.369H1004.41C988.95 611.369 976.454 623.975 976.454 639.54C976.454 655.106 988.95 667.711 1004.41 667.711H1108.1C1123.56 667.711 1136.05 655.106 1136.05 639.54C1136.05 623.975 1123.56 611.369 1108.1 611.369Z" fill="#00FF94" stroke="#003C2E" stroke-width="3" stroke-linecap="round" stroke-linejoin="round"/><path d="M1298.18 611.369H1194.48C1179.03 611.369 1166.53 623.975 1166.53 639.54C1166.53 655.106 1179.03 667.711 1194.48 667.711H1298.18C1313.63 667.711 1326.13 655.106 1326.13 639.54C1326.13 623.975 1313.63 611.369 1298.18 611.369Z" fill="#00FF94" stroke="#003C2E" stroke-width="3" stroke-linecap="round" stroke-linejoin="round"/><path d="M939.08 821.502L930.092 784.671L1304.76 692.813L1313.64 729.754L939.08 821.502Z" fill="#00FF94" stroke="#003C2E" stroke-width="3" stroke-linecap="round" stroke-linejoin="round"/><g style="mix-blend-mode:multiply" opacity="0.15"><path d="M1449.34 822.379C1529.01 822.379 1593.59 757.254 1593.59 676.919C1593.59 596.584 1529.01 531.459 1449.34 531.459C1369.67 531.459 1305.09 596.584 1305.09 676.919C1305.09 757.254 1369.67 822.379 1449.34 822.379Z" fill="#00FF94"/></g><path d="M1261.57 741.811L1252.91 706.077C1251.48 700.157 1245.56 696.54 1239.64 697.965L932.501 773.271C926.582 774.696 923.074 780.725 924.499 786.644L933.159 822.379C934.584 828.298 940.503 831.915 946.423 830.49L1253.56 755.184C1259.48 753.759 1262.99 747.731 1261.57 741.811Z" fill="#00FF94" stroke="#003C2E" stroke-width="3" stroke-linecap="round" stroke-linejoin="round"/><path d="M1305.85 681.852L1294.67 684.592C1291.6 685.36 1289.74 688.538 1290.4 691.608L1301.47 737.537C1302.24 740.606 1305.3 742.579 1308.37 741.811L1319.55 739.071L1305.74 681.852H1305.85Z" fill="#003C2E"/><path d="M1300.15 713.421C1280.2 630.552 1330.84 546.586 1413.05 526.417C1495.27 506.248 1578.46 557.329 1598.52 640.198C1618.47 723.177 1567.83 807.033 1485.62 827.202C1403.41 847.371 1320.21 796.29 1300.15 713.421ZM1580.55 644.692C1562.9 571.688 1489.78 526.746 1417.33 544.504C1344.98 562.261 1300.37 636.032 1318.02 709.036C1335.67 782.04 1408.78 826.983 1481.23 809.225C1553.58 791.467 1598.19 717.696 1580.55 644.692Z" fill="#003C2E"/><path d="M777.172 321.436C777.172 330.972 784.297 337.33 792.957 337.33C797.67 337.33 802.274 336.015 806.22 333.603V342.92C804.467 344.017 798.986 346.099 792.957 346.099C778.926 346.099 767.745 335.357 767.745 321.436C767.745 307.515 778.926 296.882 792.957 296.882C798.986 296.882 804.357 298.855 806.22 300.061V309.269C802.165 306.857 797.561 305.542 792.957 305.542C784.297 305.542 777.172 311.899 777.172 321.436ZM847.655 321.984V345.332H838.995V324.724C838.995 320.669 837.242 317.599 832.528 317.599C827.815 317.599 825.403 320.449 825.403 325.601V345.332H816.743V294.799H825.403V316.503C826.061 314.969 828.472 310.036 835.707 310.036C842.942 310.036 847.655 314.42 847.655 321.984ZM894.57 337.988V345.222H883.39C882.622 345.222 882.074 344.674 881.965 344.017C881.965 344.017 881.965 344.017 881.965 343.907V337.659C880.759 341.715 877.58 345.88 871.003 345.88C862.015 345.88 855.438 339.194 855.438 327.903C855.438 316.613 862.563 309.926 871.442 309.926C879.663 309.926 881.307 316.613 881.307 316.613V310.584H889.967V337.988H894.57ZM881.636 328.013C881.636 321.545 878.457 317.38 873.305 317.38C868.153 317.38 864.536 321.107 864.536 327.903C864.536 334.699 867.715 338.426 872.867 338.426C878.018 338.426 881.636 334.919 881.636 328.013ZM914.411 312.009V345.222H905.751V317.819H899.503V310.584H913.095C913.863 310.584 914.411 311.132 914.411 311.899C914.411 311.899 914.411 311.899 914.411 312.009ZM914.082 303.459H904.765V294.69H914.082V303.459ZM924.495 310.694H933.045V316.832C933.374 315.955 935.347 309.926 943.459 309.926C950.913 309.926 955.407 314.311 955.407 321.874V345.222H946.747V324.615C946.747 320.559 944.994 317.49 940.28 317.49C935.567 317.49 933.155 320.34 933.155 325.492V345.222H924.495V310.584V310.694ZM1002.32 338.097V345.332H991.142C990.374 345.332 989.826 344.784 989.717 344.126C989.717 344.126 989.717 344.126 989.717 344.017V337.769C988.511 341.824 985.332 345.99 978.755 345.99C969.767 345.99 963.19 339.303 963.19 328.013C963.19 316.722 970.315 310.036 979.193 310.036C987.415 310.036 989.059 316.722 989.059 316.722V310.694H997.719V338.097H1002.32ZM989.388 328.122C989.388 321.655 986.209 317.49 981.057 317.49C975.905 317.49 972.288 321.217 972.288 328.013C972.288 334.809 975.467 338.536 980.728 338.536C985.99 338.536 989.388 335.028 989.388 328.122ZM1019.97 296.882V345.332H1011.31V302.034H1005.94V294.799H1017.89C1018.98 294.799 1019.97 295.676 1019.97 296.882ZM1035.54 361.226H1026.88V353.992H1033.23C1035.54 353.992 1036.52 353.334 1037.4 351.251L1039.92 344.784L1026.55 310.803H1036.19L1044.31 335.247L1052.75 310.803H1062.39L1045.4 354.649C1043.65 359.253 1040.58 361.336 1035.54 361.336V361.226ZM1067.21 343.03V334.699C1068.42 335.467 1073.13 338.645 1078.51 338.645C1082.56 338.645 1084.42 337.44 1084.42 335.138C1084.42 328.232 1066.78 333.384 1066.78 320.34C1066.78 314.42 1071.71 309.926 1080.92 309.926C1085.96 309.926 1089.58 311.242 1091 312.119V320.449C1089.25 319.353 1085.85 317.161 1081.14 317.161C1077.08 317.161 1075.55 318.367 1075.55 320.34C1075.55 325.93 1093.08 322.094 1093.08 334.809C1093.08 341.715 1087.38 346.099 1078.94 346.099C1073.46 346.099 1068.86 344.236 1067.32 343.14L1067.21 343.03ZM1113.69 312.009V345.222H1105.03V317.819H1098.78V310.584H1112.38C1113.14 310.584 1113.69 311.132 1113.69 311.899C1113.69 311.899 1113.69 311.899 1113.69 312.009ZM1113.36 303.459H1104.05V294.69H1113.36V303.459ZM1122.9 343.03V334.699C1124.11 335.467 1128.82 338.645 1134.19 338.645C1138.25 338.645 1140.11 337.44 1140.11 335.138C1140.11 328.232 1122.46 333.384 1122.46 320.34C1122.46 314.42 1127.39 309.926 1136.6 309.926C1141.64 309.926 1145.26 311.242 1146.69 312.119V320.449C1143.84 318.367 1140.33 317.27 1136.82 317.161C1132.76 317.161 1131.23 318.367 1131.23 320.34C1131.23 325.93 1148.88 322.094 1148.88 334.809C1148.88 341.715 1143.18 346.099 1134.74 346.099C1129.26 346.099 1124.65 344.236 1123.12 343.14L1122.9 343.03Z" fill="#003C2E"/><path d="M703.621 282.742C704.498 282.742 705.485 282.851 705.485 282.851C702.525 286.359 700.771 290.744 700.443 295.347C689.043 297.211 680.164 306.309 678.52 317.819C673.477 318.367 667.668 320.669 664.379 324.067C663.612 301.267 681.041 282.851 703.621 282.851V282.742ZM709.321 351.251C708.335 351.361 707.239 351.471 706.143 351.471C704.279 351.471 702.525 351.251 700.771 351.032C699.346 354.43 697.483 357.609 695.291 360.459C680.931 357.28 669.531 346.319 665.804 332.178C669.312 328.013 677.533 325.492 682.575 325.492C693.427 325.492 699.127 331.192 701.1 340.18C694.523 338.426 690.687 334.809 688.166 329.328C686.631 328.78 685.096 328.561 683.562 328.561C682.137 328.561 680.712 328.78 679.396 329.219C682.246 340.18 692.879 348.401 705.814 348.401C717.762 348.401 722.804 342.372 722.804 342.372V333.055C722.804 333.055 716.995 339.194 709.65 340.399C708.006 328.78 698.798 319.572 687.07 317.928C688.933 308.611 696.058 303.459 705.595 303.459C715.131 303.459 722.914 310.474 722.914 310.474V301.267C722.914 301.267 717.981 296.663 709.102 295.676C709.321 291.621 711.952 286.469 714.802 284.605C726.86 288.332 738.479 298.526 741.768 313.324C741.768 313.324 736.506 318.586 726.531 318.586C718.31 318.586 713.158 314.53 710.308 307.296C708.773 306.747 707.129 306.528 705.595 306.528C704.06 306.528 702.635 306.747 701.21 307.296C704.389 318.805 714.583 326.588 725.873 326.588C737.164 326.588 742.864 321.546 742.864 321.546C742.864 344.565 725.325 361.007 704.389 361.446C706.8 359.144 708.664 353.882 709.212 351.361L709.321 351.251Z" fill="#003C2E"/><path d="M472.114 516.498H436.542C447.745 516.498 456.985 507.374 456.985 496.055C456.985 484.737 447.861 475.613 436.542 475.613H334.33C323.127 475.613 313.887 484.737 313.887 496.055H282.473C271.27 496.055 262.03 505.18 262.03 516.498C262.03 527.816 271.154 536.94 282.473 536.94H349.46C349.46 548.143 358.584 557.383 369.902 557.383H472.114C483.317 557.383 492.557 548.259 492.557 536.94C492.557 525.622 483.433 516.498 472.114 516.498Z" fill="#03FC9D"/><path d="M212.557 600.46H390.303C409.885 600.46 425.76 584.585 425.76 565.003C425.76 545.421 409.885 529.546 390.303 529.546H212.557C192.975 529.546 177.1 545.421 177.1 565.003C177.1 584.585 192.975 600.46 212.557 600.46Z" fill="#E6E8EA"/><path d="M1602.87 565.872H1634.22" stroke="#003B2F" stroke-width="3" stroke-linecap="round" stroke-linejoin="round"/><path d="M1717.01 531.459H1870.51" stroke="#03FC9D" stroke-width="3" stroke-linecap="round" stroke-linejoin="round"/><path d="M1674.76 565.782H1801.87" stroke="#003B2F" stroke-width="3" stroke-linecap="round" stroke-linejoin="round"/><path d="M1767.55 783.305L1776.2 801.683" stroke="#003B2F" stroke-width="3" stroke-linecap="round" stroke-linejoin="round"/><path d="M1782.51 815.195L1791.16 833.573" stroke="#003B2F" stroke-width="3" stroke-linecap="round" stroke-linejoin="round"/><path d="M1754.22 820.24L1772.6 811.592" stroke="#003B2F" stroke-width="3" stroke-linecap="round" stroke-linejoin="round"/><path d="M1786.11 805.286L1804.49 796.638" stroke="#003B2F" stroke-width="3" stroke-linecap="round" stroke-linejoin="round"/><path d="M289.778 725.144C297.369 725.144 303.522 718.99 303.522 711.399C303.522 703.808 297.369 697.655 289.778 697.655C282.187 697.655 276.034 703.808 276.034 711.399C276.034 718.99 282.187 725.144 289.778 725.144Z" stroke="#003B2F" stroke-width="3" stroke-linecap="round" stroke-linejoin="round"/><path d="M213.4 223.974L234.219 236.001" stroke="#003B2F" stroke-width="3" stroke-linecap="round" stroke-linejoin="round"/><path d="M255.122 223.974L242.846 231.024" stroke="#003B2F" stroke-width="3" stroke-linecap="round" stroke-linejoin="round"/><path d="M234.219 236.001V260.304" stroke="#003B2F" stroke-width="3" stroke-linecap="round" stroke-linejoin="round"/><path d="M213.4 293.315H364.276" stroke="#03FC9D" stroke-width="3" stroke-linecap="round" stroke-linejoin="round"/><path d="M331.43 326.576H447.801" stroke="#003B2F" stroke-width="3" stroke-linecap="round" stroke-linejoin="round"/><path d="M1846.19 175.428H1802.41C1816.28 175.428 1827.54 165.248 1827.54 152.637C1827.54 140.025 1816.28 129.845 1802.41 129.845H1676.65C1662.78 129.845 1651.52 140.025 1651.52 152.637H1612.87C1599 152.637 1587.74 162.816 1587.74 175.428C1587.74 188.04 1599 198.22 1612.87 198.22H1695.3C1695.3 210.831 1706.56 221.011 1720.43 221.011H1846.19C1860.06 221.011 1871.32 210.831 1871.32 198.22C1871.32 185.608 1860.06 175.428 1846.19 175.428Z" fill="#03FC9D"/><path d="M379.16 837.487C348.577 854.587 318.433 860.726 305.059 853.82C302.648 852.614 300.675 850.86 299.469 848.668C291.577 834.637 314.486 806.905 350.55 786.626C386.613 766.456 422.348 761.305 430.24 775.445L431.008 777.308C431.775 779.61 431.994 782.241 431.336 785.201C428.486 800.218 408.098 821.264 379.05 837.597L379.16 837.487Z" fill="#E3E7E3"/><path d="M431.009 777.308L436.928 790.353C444.821 804.383 421.911 832.116 385.848 852.395C349.784 872.674 314.05 877.607 306.157 863.576L305.39 861.712L299.471 848.668C300.676 850.86 302.54 852.614 305.061 853.82C318.434 860.835 348.578 854.587 379.161 837.487C408.209 821.155 428.707 799.999 431.448 785.091C431.996 782.241 431.886 779.501 431.119 777.199L431.009 777.308Z" fill="#9FB4AD"/><path d="M431.009 777.308L436.928 790.353C444.821 804.383 421.911 832.116 385.848 852.395C349.784 872.674 314.05 877.607 306.157 863.576L305.39 861.712L299.471 848.668" stroke="#003B2F" stroke-width="3" stroke-linecap="round" stroke-linejoin="round"/><path d="M431.006 777.308C431.773 779.61 431.993 782.241 431.335 785.201C428.485 800.218 408.096 821.264 379.048 837.597C348.466 854.697 318.321 860.835 304.948 853.93C302.537 852.724 300.564 850.97 299.358 848.778" stroke="#003B2F" stroke-width="3" stroke-linecap="round" stroke-linejoin="round"/><path d="M305.06 853.82C302.648 852.614 300.675 850.86 299.469 848.668C291.577 834.637 314.487 806.795 350.55 786.516C386.614 766.347 422.348 761.305 430.241 775.335L431.008 777.199C431.775 779.501 431.994 782.241 431.337 785.091C428.487 799.999 408.098 821.155 379.05 837.487C348.467 854.587 318.323 860.835 304.95 853.82H305.06Z" stroke="#003B2F" stroke-width="3" stroke-linecap="round" stroke-linejoin="round"/><path d="M303.632 842.53C303.522 831.349 320.951 809.755 353.397 791.558C370.278 782.131 387.488 775.774 401.738 773.801C413.796 772.047 422.784 773.801 425.196 778.185L425.744 779.501C425.744 779.501 425.963 780.597 425.963 781.474C425.963 782.241 425.963 783.118 425.744 783.885C423.661 795.066 407.219 815.016 376.307 832.445C345.067 849.983 317.663 853.93 307.578 848.668C305.934 847.901 305.057 847.024 304.399 845.818C303.851 844.831 303.632 843.735 303.522 842.31L303.632 842.53Z" stroke="#003B2F" stroke-width="3" stroke-linecap="round" stroke-linejoin="round"/><path fill-rule="evenodd" clip-rule="evenodd" d="M380.255 785.091L394.724 805.808L384.091 813.262L369.622 792.545L380.255 785.091ZM359.757 818.085L332.353 837.268L329.283 832.883L356.687 813.701L359.757 818.085Z" fill="#003C2E"/><path fill-rule="evenodd" clip-rule="evenodd" d="M369.729 807.781C364.577 800.437 357.233 796.71 353.397 799.451C349.56 802.191 350.437 810.303 355.589 817.756C360.741 825.21 368.085 828.828 371.922 826.087C375.868 823.347 374.881 815.235 369.729 807.891V807.781ZM359.097 815.235C353.945 807.891 351.972 801.533 353.835 800.218C355.699 798.903 362.824 801.753 367.976 809.097C373.127 816.441 373.347 824.005 371.374 825.32C369.401 826.635 364.139 822.58 359.097 815.235Z" fill="#003C2E"/><path fill-rule="evenodd" clip-rule="evenodd" d="M378.394 805.041L362.39 816.222L359.321 811.837L375.324 800.656L378.394 805.041Z" fill="#003C2E"/><path d="M232.166 883.745L232.714 912.464C232.714 914.328 233.81 916.082 235.345 917.068C242.47 921.343 266.147 931.647 329.175 931.208C393.629 930.77 419.17 918.712 426.514 914.218C428.049 913.232 429.035 911.478 429.035 909.614V879.47" fill="#9FB4AD"/><path d="M232.166 883.745L232.714 912.464C232.714 914.328 233.81 916.082 235.345 917.068C242.47 921.343 266.147 931.647 329.175 931.208C393.629 930.77 419.17 918.712 426.514 914.218C428.049 913.232 429.035 911.478 429.035 909.614V879.47" stroke="#003A2F" stroke-width="3" stroke-miterlimit="10"/><path d="M331.151 861.055C276.453 861.055 232.059 871.249 232.059 883.745C232.059 884.622 232.278 885.389 232.607 886.266C233.484 888.13 235.237 889.883 237.868 891.528C251.68 900.297 288.182 906.545 331.041 906.545C373.901 906.545 410.951 900.187 424.434 891.418C428.051 889.116 430.024 886.485 430.024 883.855C430.024 871.358 385.63 861.164 330.932 861.164L331.151 861.055Z" fill="#E3E7E3" stroke="#003A2F" stroke-width="3" stroke-miterlimit="10"/><path d="M331.044 866.974C285.444 866.974 248.175 875.305 248.175 883.964C248.175 892.624 285.115 899.639 330.605 899.639C376.096 899.639 413.036 892.624 413.036 883.964C413.036 875.305 376.425 866.974 330.934 866.974H331.044Z" stroke="#163B2F" stroke-width="3" stroke-linecap="round" stroke-linejoin="round"/><path d="M339.374 894.816C337.51 894.816 336.085 894.378 336.085 893.939V891.308C332.687 891.308 329.07 891.308 325.562 891.089V893.72C325.562 893.72 324.028 894.487 322.164 894.487C320.301 894.487 318.876 894.049 318.876 893.61V890.541C314.491 890.103 310.545 889.445 307.147 888.568C293.993 885.28 293.993 880.237 307.366 877.278C310.764 876.51 314.82 875.962 319.205 875.633V872.455C319.205 872.455 320.739 871.687 322.603 871.687C324.466 871.687 325.891 872.126 325.891 872.564V875.305C329.289 875.305 332.907 875.305 336.414 875.414V872.674C336.414 872.674 337.949 871.906 339.812 871.906C341.676 871.906 343.101 872.345 343.101 872.783V875.853C347.595 876.291 351.87 877.058 355.487 877.935C356.803 878.264 356.803 878.703 355.487 879.032C354.172 879.36 352.089 879.251 350.774 879.032C348.472 878.483 345.951 877.935 343.101 877.607V880.128C343.101 880.128 341.566 880.895 339.703 880.895C337.839 880.895 336.414 880.457 336.414 880.018V876.949C333.016 876.73 329.399 876.73 325.891 876.839V879.908C325.891 879.908 324.357 880.676 322.493 880.676C320.63 880.676 319.205 880.237 319.205 879.799V877.278C316.684 877.497 314.272 877.935 312.08 878.374C301.337 880.676 301.337 884.732 311.97 887.472C314.053 888.02 316.464 888.458 319.095 888.787V886.157C319.095 886.157 320.63 885.389 322.493 885.389C324.357 885.389 325.782 885.828 325.782 886.266V889.335C329.18 889.555 332.797 889.664 336.305 889.555V886.376C336.305 886.376 337.839 885.608 339.703 885.608C341.566 885.608 342.991 886.047 342.991 886.485V889.116C345.732 888.897 348.362 888.458 350.664 888.02C351.98 887.691 354.062 887.801 355.378 888.02C356.693 888.349 356.693 888.787 355.378 889.116C351.76 889.883 347.595 890.432 342.882 890.76V893.83C342.882 893.83 341.347 894.597 339.484 894.597L339.374 894.816Z" fill="#003A2F"/><path d="M589.305 793.925C613.657 758.506 604.686 710.053 569.267 685.701C533.848 661.349 485.394 670.32 461.042 705.739C436.691 741.158 445.662 789.612 481.081 813.964C516.5 838.316 564.954 829.344 589.305 793.925Z" fill="#9FB4AD" stroke="#003A2F" stroke-width="3" stroke-miterlimit="10"/><path d="M604.219 774.479C619.37 734.255 599.045 689.365 558.821 674.214C518.597 659.063 473.707 679.388 458.556 719.612C443.405 759.836 463.73 804.726 503.954 819.877C544.178 835.028 589.068 814.703 604.219 774.479Z" fill="#E3E7E3" stroke="#163B2F" stroke-width="3" stroke-linecap="round" stroke-linejoin="round"/><path d="M506.317 814.03C488.669 807.233 474.638 793.97 466.965 776.651C459.292 759.331 458.744 740.039 465.54 722.391C472.336 704.743 485.599 690.712 502.919 683.039C520.238 675.366 539.53 674.818 557.178 681.614C574.826 688.41 588.857 701.674 596.53 718.993C604.203 736.312 604.751 755.605 597.955 773.253C591.159 790.901 577.896 804.931 560.576 812.605C543.257 820.278 523.965 820.826 506.317 814.03Z" stroke="#163B2F" stroke-width="3" stroke-linecap="round" stroke-linejoin="round"/><path d="M566.056 733.901C566.494 723.487 557.506 718.993 545.667 716.581L547.859 702.331L538.542 701.235L536.35 715.047C533.829 714.608 531.307 714.499 529.006 714.28L531.198 700.249L521.881 699.153L519.688 713.403C517.715 713.074 515.632 712.964 513.659 712.855L500.725 711.21L499.3 720.418C499.3 720.418 506.315 721.076 506.096 721.295C509.932 721.843 510.809 724.035 510.919 725.789L508.398 742.012L504.89 764.703C504.671 765.908 503.684 767.443 500.944 767.224L494.148 766.347L490.64 776.432L502.807 777.966C505.109 778.295 507.192 778.624 509.384 778.843L507.192 793.312L516.509 794.408L518.702 780.158C521.223 780.597 523.744 780.926 526.046 781.145L523.854 795.395L533.171 796.491L535.363 782.022C551.148 783.118 562.767 780.597 566.275 767.114C569.125 756.153 564.302 750.672 555.752 747.493C561.561 745.63 565.617 741.355 565.946 733.901H566.165H566.056ZM548.298 763.278C546.654 774.02 526.813 770.622 520.675 769.855L523.634 750.781C529.992 751.549 550.052 752.097 548.298 763.278ZM548.079 735.874C546.544 745.739 530.102 742.56 524.84 741.903L527.581 724.583C532.842 725.241 549.723 725.68 548.079 735.874Z" fill="#003C2E"/><path d="M420.594 805.918L421.032 834.199C421.032 836.391 422.238 838.255 424.101 839.351C431.665 843.735 455.67 853.71 518.151 853.272C581.728 852.833 607.707 841.324 615.709 836.501C617.572 835.405 618.669 833.432 618.669 831.349V806.466" fill="#9FB4AD"/><path d="M420.594 805.918L421.032 834.199C421.032 836.391 422.238 838.255 424.101 839.351C431.665 843.735 455.67 853.71 518.151 853.272C581.728 852.833 607.707 841.324 615.709 836.501C617.572 835.405 618.669 833.432 618.669 831.349V806.466" stroke="#003A2F" stroke-width="3" stroke-miterlimit="10"/><path d="M519.579 783.228C464.881 783.228 420.487 793.422 420.487 805.918C420.487 806.795 420.706 807.562 421.035 808.439C421.912 810.303 423.666 812.056 426.296 813.701C440.108 822.47 476.61 828.718 519.47 828.718C562.329 828.718 599.379 822.36 612.862 813.591C616.479 811.289 618.452 808.658 618.452 806.028C618.452 793.531 574.058 783.337 519.36 783.337L519.579 783.228Z" fill="#E3E7E3" stroke="#003A2F" stroke-width="3" stroke-miterlimit="10"/><path d="M519.472 789.256C473.872 789.256 436.603 797.587 436.603 806.247C436.603 814.906 473.543 821.922 519.033 821.922C564.524 821.922 601.464 814.906 601.464 806.247C601.464 797.587 564.853 789.256 519.362 789.256H519.472Z" stroke="#163B2F" stroke-width="3" stroke-linecap="round" stroke-linejoin="round"/><path d="M527.802 816.989C525.938 816.989 524.513 816.551 524.513 816.112V813.481C521.115 813.481 517.498 813.482 513.99 813.262V815.893C513.99 815.893 512.456 816.66 510.592 816.66C508.729 816.66 507.304 816.222 507.304 815.783V812.714C502.919 812.276 498.973 811.618 495.575 810.741C482.421 807.453 482.421 802.41 495.794 799.451C499.192 798.683 503.248 798.135 507.632 797.806V794.628C507.632 794.628 509.167 793.86 511.03 793.86C512.894 793.86 514.319 794.299 514.319 794.737V797.478C517.717 797.478 521.334 797.478 524.842 797.587V794.847C524.842 794.847 526.377 794.08 528.24 794.08C530.104 794.08 531.529 794.518 531.529 794.956V798.026C536.023 798.464 540.298 799.231 543.915 800.108C545.231 800.437 545.231 800.876 543.915 801.205C542.6 801.533 540.517 801.424 539.202 801.205C536.9 800.656 534.379 800.108 531.529 799.78V802.301C531.529 802.301 529.994 803.068 528.131 803.068C526.267 803.068 524.842 802.63 524.842 802.191V799.122C521.444 798.903 517.827 798.903 514.319 799.012V802.081C514.319 802.081 512.784 802.849 510.921 802.849C509.057 802.849 507.632 802.41 507.632 801.972V799.451C505.111 799.67 502.7 800.108 500.507 800.547C489.765 802.849 489.765 806.905 500.398 809.645C502.481 810.193 504.892 810.631 507.523 810.96V808.33C507.523 808.33 509.057 807.562 510.921 807.562C512.784 807.562 514.209 808.001 514.209 808.439V811.508C517.607 811.728 521.225 811.837 524.732 811.728V808.549C524.732 808.549 526.267 807.782 528.131 807.782C529.994 807.782 531.419 808.22 531.419 808.658V811.289C534.159 811.07 536.79 810.631 539.092 810.193C540.407 809.864 542.49 809.974 543.806 810.193C545.121 810.522 545.121 810.96 543.806 811.289C540.188 812.056 536.023 812.605 531.309 812.933V816.003C531.309 816.003 529.775 816.77 527.911 816.77L527.802 816.989Z" fill="#003A2F"/><path d="M455.014 866.974L456.439 894.926C456.549 897.337 457.864 899.53 459.947 900.735C467.839 905.23 491.736 914.876 552.572 914.437C614.395 913.999 640.155 902.818 648.595 897.995C650.678 896.789 651.993 894.487 651.993 892.076V866.755" fill="#9FB4AD"/><path d="M455.014 866.974L456.439 894.926C456.549 897.337 457.864 899.53 459.947 900.735C467.839 905.23 491.736 914.876 552.572 914.437C614.395 913.999 640.155 902.818 648.595 897.995C650.678 896.789 651.993 894.487 651.993 892.076V866.755" stroke="#003A2F" stroke-width="3" stroke-miterlimit="10"/><path d="M554 844.283C499.301 844.283 454.907 854.478 454.907 866.974C454.907 867.851 455.126 868.618 455.455 869.495C456.332 871.358 458.086 873.112 460.717 874.756C474.528 883.526 511.03 889.774 553.89 889.774C596.75 889.774 633.8 883.416 647.282 874.647C650.9 872.345 652.873 869.714 652.873 867.083C652.873 854.587 608.478 844.393 553.78 844.393L554 844.283Z" fill="#E3E7E3" stroke="#003A2F" stroke-width="3" stroke-miterlimit="10"/><path d="M553.892 850.312C508.292 850.312 471.023 858.643 471.023 867.303C471.023 875.962 507.964 882.978 553.454 882.978C598.944 882.978 635.885 875.962 635.885 867.303C635.885 858.643 599.273 850.312 553.783 850.312H553.892Z" stroke="#163B2F" stroke-width="3" stroke-linecap="round" stroke-linejoin="round"/><path d="M596.969 865.987L564.743 865.658L559.043 853.71L596.969 865.987ZM564.743 865.658L536.791 865.33L559.043 853.601L564.743 865.549V865.658ZM531.748 865.33L509.935 865.11L553.891 853.601L531.748 865.33ZM596.969 865.987L564.743 865.658L546.218 877.387L596.969 865.987ZM564.743 865.658L536.791 865.33L546.218 877.387L564.743 865.658ZM531.748 865.33L509.935 865.11L541.066 877.387L531.748 865.33Z" fill="#003A2F"/><path d="M448.33 779.172L449.755 807.124C449.865 809.535 451.18 811.728 453.263 812.933C461.155 817.428 485.051 827.074 545.888 826.635C607.711 826.197 633.471 815.016 641.911 810.193C643.994 808.987 645.309 806.685 645.309 804.274V778.953" fill="#9FB4AD"/><path d="M448.33 779.172L449.755 807.124C449.865 809.535 451.18 811.728 453.263 812.933C461.155 817.428 485.051 827.074 545.888 826.635C607.711 826.197 633.471 815.016 641.911 810.193C643.994 808.987 645.309 806.685 645.309 804.274V778.953" stroke="#003A2F" stroke-width="3" stroke-miterlimit="10"/><path d="M547.315 756.372C492.617 756.372 448.222 766.566 448.222 779.062C448.222 779.939 448.442 780.706 448.771 781.583C449.647 783.447 451.401 785.201 454.032 786.845C467.844 795.614 504.346 801.862 547.205 801.862C590.065 801.862 627.115 795.505 640.598 786.735C644.215 784.433 646.188 781.803 646.188 779.172C646.188 766.676 601.794 756.481 547.096 756.481L547.315 756.372Z" fill="#E3E7E3" stroke="#003A2F" stroke-width="3" stroke-miterlimit="10"/><path d="M547.208 762.401C501.608 762.401 464.339 770.731 464.339 779.391C464.339 788.051 501.279 795.066 546.769 795.066C592.26 795.066 629.2 788.051 629.2 779.391C629.2 770.731 592.589 762.401 547.098 762.401H547.208Z" stroke="#163B2F" stroke-width="3" stroke-linecap="round" stroke-linejoin="round"/><path d="M516.403 784.762L527.584 781.583C529.338 781.035 531.311 780.487 533.065 779.939C538.217 778.514 538.545 776.103 533.722 774.568C533.503 774.568 533.393 774.568 533.174 774.458C527.803 772.924 522.542 771.28 517.17 769.635H516.842V766.456C516.842 766.456 517.17 766.456 517.39 766.456C524.515 768.539 531.42 770.622 538.545 772.814C542.601 774.02 544.793 775.555 544.574 777.199C544.574 778.624 542.492 780.049 538.874 781.145C531.53 783.337 524.076 785.42 516.622 787.612H516.293V784.653L516.403 784.762Z" fill="#003D2E"/><path d="M577.461 788.051C576.365 787.722 575.378 787.393 574.282 787.064C568.253 785.31 562.225 783.447 555.976 781.693C551.921 780.487 549.728 778.953 549.948 777.199C549.948 775.774 552.03 774.349 555.428 773.253C562.882 771.06 570.336 768.868 578.009 766.676H578.338V769.526C578.338 769.526 578.119 769.745 577.79 769.855C572.309 771.389 566.719 773.033 561.238 774.678C556.305 776.103 556.086 778.514 561.238 780.049C566.609 781.693 572.09 783.228 577.571 784.872C577.9 784.872 578.119 785.091 578.119 785.201V788.051H577.461Z" fill="#003D2E"/><path d="M429.693 920.138L430.241 947.322C430.241 950.282 431.995 952.913 434.626 954.338C443.504 959.051 468.168 967.93 527.36 967.491C593.787 967.053 619.108 954.447 625.795 950.172C627.11 949.405 627.768 947.98 627.768 946.445V920.138" fill="#9FB4AD"/><path d="M429.693 920.138L430.241 947.322C430.241 950.282 431.995 952.913 434.626 954.338C443.504 959.051 468.168 967.93 527.36 967.491C593.787 967.053 619.108 954.447 625.795 950.172C627.11 949.405 627.768 947.98 627.768 946.445V920.138" stroke="#003A2F" stroke-width="3" stroke-miterlimit="10"/><path d="M528.785 897.447C474.087 897.447 429.693 907.641 429.693 920.137C429.693 921.014 429.912 921.782 430.241 922.658C431.118 924.522 432.872 926.276 435.502 927.92C449.314 936.689 485.816 942.937 528.676 942.937C571.535 942.937 608.585 936.58 622.068 927.81C625.685 925.508 627.658 922.878 627.658 920.247C627.658 907.751 583.264 897.557 528.566 897.557L528.785 897.447Z" fill="#E3E7E3" stroke="#003A2F" stroke-width="3" stroke-miterlimit="10"/><path d="M528.678 903.476C483.078 903.476 445.809 911.807 445.809 920.466C445.809 929.126 482.749 936.141 528.24 936.141C573.73 936.141 610.67 929.126 610.67 920.466C610.67 911.807 574.059 903.476 528.568 903.476H528.678Z" stroke="#163B2F" stroke-width="3" stroke-linecap="round" stroke-linejoin="round"/><path fill-rule="evenodd" clip-rule="evenodd" d="M496.34 911.04H556.848V914.328H496.34V911.04ZM533.061 920.138V928.688H520.127V920.138H533.061Z" fill="#003C2E"/><path fill-rule="evenodd" clip-rule="evenodd" d="M526.594 916.52C505.109 916.52 487.68 917.507 487.68 918.713C487.68 919.918 505.109 920.905 526.594 920.905C548.078 920.905 565.507 919.918 565.507 918.713C565.507 917.507 548.078 916.52 526.594 916.52ZM526.594 919.809C505.109 919.809 489.872 919.37 489.872 918.713C489.872 918.055 505.109 917.068 526.594 917.068C548.078 917.068 563.315 918.055 563.315 918.713C563.315 919.37 548.078 919.809 526.594 919.809Z" fill="#003C2E"/><path fill-rule="evenodd" clip-rule="evenodd" d="M533.173 914.328V919.261H520.238V914.328H533.173Z" fill="#003C2E"/><path d="M294.322 865.439L295.966 894.597C295.966 897.118 297.391 899.53 299.584 900.735C307.914 905.449 333.235 915.533 397.251 915.095C463.13 914.657 490.205 902.708 498.755 897.666C500.837 896.46 502.043 894.268 502.043 891.966V865.439" fill="#9FB4AD"/><path d="M294.322 865.439L295.966 894.597C295.966 897.118 297.391 899.53 299.584 900.735C307.914 905.449 333.235 915.533 397.251 915.095C463.13 914.657 490.205 902.708 498.755 897.666C500.837 896.46 502.043 894.268 502.043 891.966V865.439" stroke="#003A2F" stroke-width="3" stroke-miterlimit="10"/><path d="M398.235 841.653C340.906 841.653 294.429 852.285 294.429 865.439C294.429 866.316 294.648 867.193 295.087 868.07C295.964 870.043 297.827 871.797 300.677 873.551C315.146 882.758 353.402 889.226 398.344 889.226C443.287 889.226 482.091 882.539 496.341 873.331C500.177 870.81 502.26 868.18 502.26 865.439C502.26 852.285 455.783 841.653 398.454 841.653H398.235Z" fill="#E3E7E3" stroke="#003A2F" stroke-width="3" stroke-miterlimit="10"/><path d="M398.126 847.901C350.333 847.901 311.31 856.56 311.31 865.768C311.31 874.976 350.005 882.21 397.797 882.21C445.589 882.21 484.283 874.866 484.283 865.768C484.283 856.67 445.918 847.901 398.235 847.901H398.126Z" stroke="#163B2F" stroke-width="3" stroke-linecap="round" stroke-linejoin="round"/><path fill-rule="evenodd" clip-rule="evenodd" d="M376.75 868.508L371.379 869.385L374.01 865.439L379.381 864.562L387.164 852.505H406.456L400.646 861.383L406.018 860.507L403.387 864.453L398.016 865.33L394.837 870.262H423.885L420.487 875.414H372.037L376.421 868.508H376.641H376.75Z" fill="#003D2E"/><path d="M645.199 864.453L645.747 893.172C645.747 895.036 646.843 896.789 648.378 897.776C655.503 902.051 679.18 912.355 742.209 911.916C806.662 911.478 832.203 899.42 839.547 894.926C841.082 893.939 842.068 892.186 842.068 890.322V860.178" fill="#9FB4AD"/><path d="M645.199 864.453L645.747 893.172C645.747 895.036 646.843 896.789 648.378 897.776C655.503 902.051 679.18 912.355 742.209 911.916C806.662 911.478 832.203 899.42 839.547 894.926C841.082 893.939 842.068 892.186 842.068 890.322V860.178" stroke="#003A2F" stroke-width="3" stroke-miterlimit="10"/><path d="M744.291 841.762C689.593 841.762 645.199 851.957 645.199 864.453C645.199 865.33 645.418 866.097 645.747 866.974C646.624 868.837 648.378 870.591 651.009 872.236C664.82 881.005 701.322 887.253 744.182 887.253C787.041 887.253 824.091 880.895 837.574 872.126C841.191 869.824 843.164 867.193 843.164 864.562C843.164 852.066 798.77 841.872 744.072 841.872L744.291 841.762Z" fill="#E3E7E3" stroke="#003A2F" stroke-width="3" stroke-miterlimit="10"/><path d="M744.184 847.682C698.584 847.682 661.315 856.012 661.315 864.672C661.315 873.332 698.256 880.347 743.746 880.347C789.236 880.347 826.177 873.332 826.177 864.672C826.177 856.012 789.565 847.682 744.075 847.682H744.184Z" stroke="#163B2F" stroke-width="3" stroke-linecap="round" stroke-linejoin="round"/><path fill-rule="evenodd" clip-rule="evenodd" d="M723.357 868.289L717.986 869.166L720.616 865.22L725.988 864.343L733.77 852.286H753.063L747.253 861.164L752.624 860.287L749.993 864.234L744.622 865.111L741.443 870.043H770.491L767.093 875.195H718.643L723.028 868.289H723.247H723.357Z" fill="#003D2E"/><path d="M573.621 820.716L575.266 849.874C575.266 852.395 576.691 854.806 578.883 856.012C587.214 860.726 612.535 870.81 676.55 870.372C742.429 869.933 769.504 857.985 778.054 852.943C780.137 851.737 781.343 849.545 781.343 847.243V820.716" fill="#9FB4AD"/><path d="M573.621 820.716L575.266 849.874C575.266 852.395 576.691 854.806 578.883 856.012C587.214 860.726 612.535 870.81 676.55 870.372C742.429 869.933 769.504 857.985 778.054 852.943C780.137 851.737 781.343 849.545 781.343 847.243V820.716" stroke="#003A2F" stroke-width="3" stroke-miterlimit="10"/><path d="M677.535 796.93C620.206 796.93 573.729 807.562 573.729 820.716C573.729 821.593 573.948 822.47 574.386 823.347C575.263 825.32 577.127 827.074 579.977 828.828C594.446 838.035 632.702 844.503 677.644 844.503C722.587 844.503 761.39 837.816 775.64 828.608C779.477 826.087 781.56 823.456 781.56 820.716C781.56 807.562 735.083 796.93 677.754 796.93H677.535Z" fill="#E3E7E3" stroke="#003A2F" stroke-width="3" stroke-miterlimit="10"/><path d="M677.318 803.178C629.526 803.178 590.503 811.837 590.503 821.045C590.503 830.253 629.197 837.487 676.989 837.487C724.782 837.487 763.476 830.143 763.476 821.045C763.476 811.947 725.111 803.178 677.428 803.178H677.318Z" stroke="#163B2F" stroke-width="3" stroke-linecap="round" stroke-linejoin="round"/><path d="M717.659 826.087L693.763 824.881L669.976 823.676L646.08 822.47L642.243 822.36L645.093 821.812L656.932 819.62L665.043 819.949L688.94 821.155L712.836 822.36L707.903 818.633L684.007 817.428L671.62 816.88L680.938 815.126L698.805 811.728L694.42 808.439L676.553 811.728L658.686 815.126L654.082 816.003L636.324 815.126L640.709 818.414L639.393 818.743L624.705 821.483L622.842 821.812L627.117 824.991L627.665 825.101L650.903 826.197L674.799 827.403L698.695 828.608L722.592 829.814L717.659 826.087Z" fill="#003A2F"/><path d="M722.038 949.733C711.515 963.874 672.492 952.474 635.113 924.303C597.734 896.132 576.14 861.931 586.663 847.791L599.926 830.801C597.734 833.87 596.857 837.706 597.296 842.091C598.94 859.081 618.671 885.28 648.376 907.641C677.534 929.674 707.569 941.512 724.559 938.991C729.382 938.224 733.219 936.36 735.63 933.182L721.928 949.733H722.038Z" fill="#9FB4AD"/><path d="M735.74 933.291C733.328 936.47 729.492 938.334 724.668 939.101C707.678 941.622 677.534 929.783 648.486 907.751C618.78 885.389 599.049 859.191 597.405 842.201C596.857 837.816 597.734 833.98 600.036 830.91C610.778 816.66 649.801 828.17 687.29 856.451C724.778 884.622 746.482 919.041 735.74 933.291Z" fill="#E3E7E3"/><path d="M735.74 933.291L722.038 949.843C711.515 963.983 672.492 952.583 635.113 924.412C597.734 896.241 576.14 862.041 586.663 847.901L599.926 830.91" stroke="#003B2F" stroke-width="3" stroke-linecap="round" stroke-linejoin="round"/><path d="M735.74 933.291C733.328 936.47 729.492 938.334 724.668 939.101C707.678 941.622 677.534 929.783 648.486 907.751C618.78 885.389 599.049 859.191 597.405 842.201C596.857 837.816 597.734 833.98 600.036 830.91C610.778 816.66 649.801 828.17 687.29 856.451C724.778 884.622 746.482 919.041 735.74 933.291Z" stroke="#003B2F" stroke-width="3" stroke-linecap="round" stroke-linejoin="round"/><path d="M724.671 938.991C707.681 941.512 677.646 929.674 648.489 907.751C618.783 885.389 599.052 859.191 597.408 842.201C596.969 837.707 597.737 833.98 600.039 830.91C610.781 816.66 649.804 828.17 687.293 856.451C724.781 884.732 746.485 919.151 735.852 933.291C733.441 936.47 729.604 938.333 724.781 938.991H724.671Z" stroke="#163B2F" stroke-width="3" stroke-linecap="round" stroke-linejoin="round"/><path d="M605.19 847.791C604.422 845.599 603.984 843.407 603.765 841.543C603.436 838.583 603.874 836.391 605.08 834.747C608.369 830.362 618.563 830.143 631.717 833.87C647.501 838.474 665.807 848.23 683.345 861.493C706.913 879.36 725.109 900.297 730.48 916.41C731.576 919.808 733.111 925.947 730.48 929.345C729.274 930.989 726.972 932.085 723.684 932.524C708.119 934.826 678.851 922.439 652.324 902.489C628.757 884.731 610.67 863.795 605.19 847.682V847.791Z" stroke="#163B2F" stroke-width="3" stroke-linecap="round" stroke-linejoin="round"/><path d="M663.503 858.753C655.83 852.505 650.897 853.601 647.061 856.999L636.757 847.791L634.345 850.97L644.32 859.849C643.553 860.616 643.005 861.603 642.457 862.48L632.372 853.491L629.961 856.67L640.265 865.878C639.716 866.535 639.278 867.303 638.84 868.07L635.441 872.455L642.128 878.374C642.128 878.374 643.882 875.853 643.882 876.072C644.978 874.866 646.732 875.743 648.047 876.73L659.666 887.143L675.999 901.722C676.876 902.489 677.863 903.805 677.205 904.791L675.451 907.093L682.357 914.437L685.536 910.272C686.193 909.505 686.851 908.847 687.29 908.08L697.703 917.397L700.115 914.218L689.811 905.01C690.578 904.243 691.236 903.366 691.784 902.489L702.088 911.697L704.499 908.518L694.086 899.201C697.593 893.391 697.703 887.143 688.166 877.826C680.493 870.262 675.561 869.056 671.724 870.81C671.286 867.303 668.765 863.247 663.284 858.753H663.503ZM682.466 883.087C690.249 889.993 684.33 896.132 682.686 898.214L668.984 885.937C670.628 883.745 674.465 875.853 682.576 883.087H682.466ZM661.968 867.303C669.093 873.66 663.941 878.593 662.516 880.347L650.02 869.166C651.336 867.412 654.624 860.726 661.968 867.303Z" fill="#003C2E"/><path d="M512.566 95.2635L528.654 113.791" stroke="#003B2F" stroke-width="3" stroke-linecap="round" stroke-linejoin="round"/><path d="M552.751 109.161L538.562 111.879" stroke="#003B2F" stroke-width="3" stroke-linecap="round" stroke-linejoin="round"/><path d="M528.655 113.791L520.529 137.289" stroke="#003B2F" stroke-width="3" stroke-linecap="round" stroke-linejoin="round"/></svg>