<svg width="1920" height="1080" viewBox="0 0 1920 1080" fill="none" xmlns="http://www.w3.org/2000/svg"><path d="M399.4 464.3C374 464.3 353.4 484.9 353.4 510.3C353.4 535.7 374 556.3 399.4 556.3C424.8 556.3 445.4 535.7 445.4 510.3C445.4 484.9 424.8 464.3 399.4 464.3ZM399.4 536.3C385 536.3 373.3 524.6 373.3 510.2C373.3 495.8 385 484.1 399.4 484.1C413.8 484.1 425.5 495.8 425.5 510.2C425.5 524.6 413.8 536.3 399.4 536.3Z" fill="#E6E8EA"/><path d="M451.6 496.8C449.3 491.2 448.1 488.4 445.8 482.8L450.7 472.5L437.1 458.9L426.8 463.8C421.2 461.5 418.4 460.3 412.8 458L409 447.3H389.8L386 458C380.4 460.3 377.6 461.5 372 463.8L361.7 458.9L348.1 472.5L353 482.8C350.7 488.4 349.5 491.2 347.2 496.8L336.5 500.6V519.8L347.2 523.6C349.5 529.2 350.7 532 353 537.6L348.1 547.9L361.7 561.5L372 556.6C377.6 558.9 380.4 560.1 386 562.4L389.8 573.1H409L412.8 562.4C418.4 560.1 421.2 558.9 426.8 556.6L437.1 561.5L450.7 547.9L445.8 537.6C448.1 532 449.3 529.2 451.6 523.6L462.3 519.8V500.6L451.6 496.8ZM399.4 556.2C374 556.2 353.4 535.6 353.4 510.2C353.4 484.8 374 464.2 399.4 464.2C424.8 464.2 445.4 484.8 445.4 510.2C445.4 535.6 424.8 556.2 399.4 556.2Z" fill="#03FC9D"/><path d="M1252.6 609.8C1241.5 609.8 1232.4 618.9 1232.4 630C1232.4 641.1 1241.5 650.2 1252.6 650.2C1263.7 650.2 1272.8 641.1 1272.8 630C1272.8 618.9 1263.7 609.8 1252.6 609.8ZM1252.6 641.4C1246.3 641.4 1241.1 636.3 1241.1 629.9C1241.1 623.5 1246.2 618.4 1252.6 618.4C1259 618.4 1264.1 623.5 1264.1 629.9C1264.1 636.3 1259 641.4 1252.6 641.4Z" fill="#E6E8EA"/><path d="M1275.5 624.1C1274.5 621.6 1274 620.4 1273 617.9L1275.1 613.4L1269.1 607.4L1264.6 609.6C1262.1 608.6 1260.9 608.1 1258.5 607L1256.8 602.3H1248.4L1246.7 607C1244.2 608 1243 608.5 1240.6 609.6L1236.1 607.4L1230.1 613.4L1232.2 617.9C1231.2 620.4 1230.7 621.6 1229.7 624.1L1225 625.8V634.2L1229.7 635.9C1230.7 638.4 1231.2 639.6 1232.2 642.1L1230.1 646.6L1236.1 652.6L1240.6 650.4C1243.1 651.4 1244.3 651.9 1246.7 653L1248.4 657.7H1256.8L1258.5 653C1261 652 1262.2 651.5 1264.6 650.4L1269.1 652.6L1275.1 646.6L1273 642.1C1274 639.6 1274.5 638.4 1275.5 635.9L1280.2 634.2V625.8L1275.5 624.1ZM1252.6 650.2C1241.5 650.2 1232.4 641.1 1232.4 630C1232.4 618.9 1241.5 609.8 1252.6 609.8C1263.7 609.8 1272.8 618.9 1272.8 630C1272.8 641.1 1263.7 650.2 1252.6 650.2Z" fill="#03FC9D"/><path d="M1118 903.4H848.6C830.7 903.4 816.1 888.8 816.1 870.9V232.6C816.1 214.7 830.7 200.1 848.6 200.1H1118C1135.9 200.1 1150.5 214.7 1150.5 232.6V870.9C1150.5 888.8 1135.9 903.4 1118 903.4Z" stroke="#003B2F" stroke-width="3" stroke-linecap="round" stroke-linejoin="round"/><path d="M1154.8 447.8H1151.8V488.9H1154.8V447.8Z" fill="#003B2F"/><path d="M1061.4 231.1C1057.5 231.1 1054.4 227.9 1054.4 224.1C1054.4 220.3 1057.6 217.1 1061.4 217.1C1065.2 217.1 1068.4 220.3 1068.4 224.1C1068.4 227.9 1065.2 231.1 1061.4 231.1Z" stroke="#003B2F" stroke-width="3" stroke-linecap="round" stroke-linejoin="round"/><path d="M1004 229.1H962.6C959.8 229.1 957.6 226.9 957.6 224.1C957.6 221.3 959.8 219.1 962.6 219.1H1004C1006.8 219.1 1009 221.3 1009 224.1C1009 226.9 1006.8 229.1 1004 229.1Z" stroke="#003B2F" stroke-width="3" stroke-linecap="round" stroke-linejoin="round"/><path d="M999.6 870.8H967.1C964.1 870.8 961.7 868.4 961.7 865.4C961.7 862.4 964.1 860 967.1 860H999.6C1002.6 860 1005 862.4 1005 865.4C1005 868.4 1002.6 870.8 999.6 870.8Z" stroke="#003B2F" stroke-width="3" stroke-linecap="round" stroke-linejoin="round"/><path d="M921.4 423.7C880.3 423.7 846.9 390.3 846.9 349.2C846.9 308.1 880.3 274.7 921.4 274.7C962.5 274.7 995.9 308.1 995.9 349.2C995.9 390.3 962.5 423.7 921.4 423.7ZM921.4 304.3C896.6 304.3 876.5 324.4 876.5 349.2C876.5 374 896.6 394.1 921.4 394.1C946.2 394.1 966.3 374 966.3 349.2C966.3 324.4 946.2 304.3 921.4 304.3Z" fill="#003B2F"/><path d="M921.4 604.9C880.3 604.9 846.9 571.5 846.9 530.4C846.9 489.3 880.3 455.9 921.4 455.9C962.5 455.9 995.9 489.3 995.9 530.4C995.9 571.5 962.5 604.9 921.4 604.9ZM921.4 485.5C896.6 485.5 876.5 505.6 876.5 530.4C876.5 555.2 896.6 575.3 921.4 575.3C946.2 575.3 966.3 555.2 966.3 530.4C966.3 505.6 946.2 485.5 921.4 485.5Z" fill="#03FC9D"/><path d="M864.1 791.3H846.6V811.5H864.1V791.3Z" fill="#003B2F"/><path d="M887.6 757.7H870.1V811.5H887.6V757.7Z" fill="#003B2F"/><path d="M911.1 736.4H893.6V811.4H911.1V736.4Z" fill="#003B2F"/><path d="M934.6 757.7H917.1V811.5H934.6V757.7Z" fill="#003B2F"/><path d="M958.1 693.9H940.6V811.4H958.1V693.9Z" fill="#003B2F"/><path d="M980.8 674.8H963.3V811.4H980.8V674.8Z" fill="#003B2F"/><path d="M1003.4 799.6H985.9V811.5H1003.4V799.6Z" fill="#03FC9D"/><path d="M1026.9 779.8H1009.4V811.5H1026.9V779.8Z" fill="#03FC9D"/><path d="M1050.4 767.3H1032.9V811.5H1050.4V767.3Z" fill="#03FC9D"/><path d="M1073.9 779.8H1056.4V811.5H1073.9V779.8Z" fill="#03FC9D"/><path d="M1097.4 742.3H1079.9V811.5H1097.4V742.3Z" fill="#03FC9D"/><path d="M1120.1 731H1102.6V811.4H1120.1V731Z" fill="#03FC9D"/><path d="M1020.2 335.8H1114.3" stroke="#003B2F" stroke-width="3" stroke-linecap="round" stroke-linejoin="round"/><path d="M1020.2 356.6H1114.3" stroke="#003B2F" stroke-width="3" stroke-linecap="round" stroke-linejoin="round"/><path d="M1020.2 377.3H1114.3" stroke="#003B2F" stroke-width="3" stroke-linecap="round" stroke-linejoin="round"/><path d="M1020.2 398.1H1077.5" stroke="#003B2F" stroke-width="3" stroke-linecap="round" stroke-linejoin="round"/><path d="M1020.2 521.8H1114.3" stroke="#03FC9D" stroke-width="3" stroke-linecap="round" stroke-linejoin="round"/><path d="M1020.2 542.5H1114.3" stroke="#03FC9D" stroke-width="3" stroke-linecap="round" stroke-linejoin="round"/><path d="M1020.2 563.3H1114.3" stroke="#03FC9D" stroke-width="3" stroke-linecap="round" stroke-linejoin="round"/><path d="M1020.2 584H1077.5" stroke="#03FC9D" stroke-width="3" stroke-linecap="round" stroke-linejoin="round"/><path d="M1416 250.6H1090.5C1082.93 250.6 1076.8 256.734 1076.8 264.3V454.6C1076.8 462.166 1082.93 468.3 1090.5 468.3H1416C1423.57 468.3 1429.7 462.166 1429.7 454.6V264.3C1429.7 256.734 1423.57 250.6 1416 250.6Z" fill="#E6E8EA"/><path d="M1429.7 264.3V274.1H1076.8V264.3C1076.8 256.7 1082.9 250.6 1090.5 250.6H1416C1423.6 250.6 1429.7 256.7 1429.7 264.3Z" fill="#003B2F"/><path d="M1376.3 267.5C1379.12 267.5 1381.4 265.217 1381.4 262.4C1381.4 259.583 1379.12 257.3 1376.3 257.3C1373.48 257.3 1371.2 259.583 1371.2 262.4C1371.2 265.217 1373.48 267.5 1376.3 267.5Z" fill="white"/><path d="M1391.8 267.5C1394.62 267.5 1396.9 265.217 1396.9 262.4C1396.9 259.583 1394.62 257.3 1391.8 257.3C1388.98 257.3 1386.7 259.583 1386.7 262.4C1386.7 265.217 1388.98 267.5 1391.8 267.5Z" fill="white"/><path d="M1407.3 267.5C1410.12 267.5 1412.4 265.217 1412.4 262.4C1412.4 259.583 1410.12 257.3 1407.3 257.3C1404.48 257.3 1402.2 259.583 1402.2 262.4C1402.2 265.217 1404.48 267.5 1407.3 267.5Z" fill="white"/><path d="M1212.3 443.7C1185.2 430 1168.4 402.7 1168.4 372.4C1168.4 328.4 1204.2 292.6 1248.2 292.6V318.9C1218.7 318.9 1194.7 342.9 1194.7 372.4C1194.7 392.7 1206 411.1 1224.2 420.2L1212.4 443.7H1212.3Z" fill="#003B2F"/><path d="M1287.5 408.8C1277.4 419.7 1263.1 425.9 1248.2 425.9C1239.7 425.9 1231.6 424 1224.1 420.2L1212.3 443.7C1223.5 449.4 1235.6 452.2 1248.2 452.2C1270.3 452.2 1291.7 442.9 1306.7 426.6L1287.4 408.7L1287.5 408.8Z" fill="#03FC9D"/><path d="M1306.8 426.7L1287.5 408.8C1296.7 398.9 1301.8 386 1301.8 372.4H1328.1C1328.1 392.6 1320.5 411.9 1306.8 426.7Z" fill="#6AFCC4"/><path d="M1328.1 372.4H1301.8C1301.8 342.9 1277.8 318.9 1248.3 318.9V292.6C1292.3 292.6 1328.1 328.4 1328.1 372.4Z" fill="#577069"/><path d="M752.3 510.3H394.5C386.16 510.3 379.4 517.061 379.4 525.4V734.6C379.4 742.94 386.16 749.7 394.5 749.7H752.3C760.639 749.7 767.4 742.94 767.4 734.6V525.4C767.4 517.061 760.639 510.3 752.3 510.3Z" fill="#E6E8EA"/><path d="M767.4 525.4V536.2H379.4V525.4C379.4 517.1 386.1 510.3 394.5 510.3H752.3C760.6 510.3 767.4 517 767.4 525.4Z" fill="#003B2F"/><path d="M714.2 523.2C714.2 526.3 711.7 528.8 708.6 528.8C705.5 528.8 703 526.3 703 523.2C703 520.1 705.5 517.6 708.6 517.6C711.7 517.6 714.2 520.1 714.2 523.2Z" fill="white"/><path d="M731.2 523.2C731.2 526.3 728.7 528.8 725.6 528.8C722.5 528.8 720 526.3 720 523.2C720 520.1 722.5 517.6 725.6 517.6C728.7 517.6 731.2 520.1 731.2 523.2Z" fill="white"/><path d="M748.3 523.2C748.3 526.3 745.8 528.8 742.7 528.8C739.6 528.8 737.1 526.3 737.1 523.2C737.1 520.1 739.6 517.6 742.7 517.6C745.8 517.6 748.3 520.1 748.3 523.2Z" fill="white"/><path d="M745.5 727.1V572.6C745.5 572.6 695.7 655.1 660.4 652.8C636.3 651.2 588.4 558.7 553.1 587.6C522.2 612.9 506.9 668.1 481.8 670.2C436.8 674 401.4 627.4 401.4 627.4V727.1H745.5Z" fill="#03FC9D"/><path d="M399.4 726.5C399.4 726.5 412.8 686.5 428.6 653.6C439 632.1 448.6 621.6 458.9 620.5C472 619.1 483.2 633.5 494.9 648.7C507 664.4 519.5 680.5 534.8 681.1C534.8 681.1 534.9 681.1 535 681.1C543.9 681.1 554.6 658.1 564.9 635.8C577.1 609.4 589.7 582.2 604.7 577.9C609.2 576.7 613.6 577.5 617.9 580.3C633.3 590.6 639.3 613.4 644.5 633.4C649.5 652.6 653.9 669.3 664.8 668C676 666.7 685.3 655.2 693.5 645.1C703.2 633.2 712.3 622 722.9 629.4C737.7 639.8 742.5 683.3 745.6 712C746.3 718 746.8 723.1 747.4 726.6" stroke="#003B2F" stroke-width="3" stroke-linecap="round" stroke-linejoin="round"/><path d="M454.8 372.3H680.9" stroke="#03FC9D" stroke-width="3" stroke-linecap="round" stroke-linejoin="round"/><path d="M593.9 415.9H720.3" stroke="#003B2F" stroke-width="3" stroke-linecap="round" stroke-linejoin="round"/><path d="M1574.4 832.4H1543.2" stroke="#003B2F" stroke-width="3" stroke-linecap="round" stroke-linejoin="round"/><path d="M1574.4 876.1H1479" stroke="#03FC9D" stroke-width="3" stroke-linecap="round" stroke-linejoin="round"/><path d="M1502.8 832.5H1376.4" stroke="#003B2F" stroke-width="3" stroke-linecap="round" stroke-linejoin="round"/><path d="M336.4 852.6V864" stroke="#003B2F" stroke-width="3" stroke-linecap="round" stroke-linejoin="round"/><path d="M336.4 872.2V883.6" stroke="#003B2F" stroke-width="3" stroke-linecap="round" stroke-linejoin="round"/><path d="M320.9 868.1H332.2" stroke="#003B2F" stroke-width="3" stroke-linecap="round" stroke-linejoin="round"/><path d="M340.5 868.1H351.8" stroke="#003B2F" stroke-width="3" stroke-linecap="round" stroke-linejoin="round"/><path d="M1460.3 525.3H1569.9C1582 525.3 1591.8 515.495 1591.8 503.4C1591.8 491.305 1582 481.5 1569.9 481.5H1460.3C1448.2 481.5 1438.4 491.305 1438.4 503.4C1438.4 515.495 1448.2 525.3 1460.3 525.3Z" fill="#E6E8EA"/><path d="M1516.7 582.8H1691.2C1710.42 582.8 1726 567.22 1726 548C1726 528.781 1710.42 513.2 1691.2 513.2H1516.7C1497.48 513.2 1481.9 528.781 1481.9 548C1481.9 567.22 1497.48 582.8 1516.7 582.8Z" fill="#03FC9D"/><path d="M201.9 844H317C329.647 844 339.9 833.747 339.9 821.1V821C339.9 808.353 329.647 798.1 317 798.1H201.9C189.253 798.1 179 808.353 179 821V821.1C179 833.747 189.253 844 201.9 844Z" fill="#E6E8EA"/><path d="M136.8 903.4H260.4C280.558 903.4 296.9 887.058 296.9 866.9C296.9 846.741 280.558 830.4 260.4 830.4H136.8C116.642 830.4 100.3 846.741 100.3 866.9C100.3 887.058 116.642 903.4 136.8 903.4Z" fill="#E6E8EA"/><path d="M1430.9 670.1L1444.2 683.3" stroke="#003B2F" stroke-width="3" stroke-linecap="round" stroke-linejoin="round"/><path d="M1453.8 693L1467 706.2" stroke="#003B2F" stroke-width="3" stroke-linecap="round" stroke-linejoin="round"/><path d="M1430.9 706.2L1444.2 693" stroke="#003B2F" stroke-width="3" stroke-linecap="round" stroke-linejoin="round"/><path d="M1453.8 683.3L1467 670.1" stroke="#003B2F" stroke-width="3" stroke-linecap="round" stroke-linejoin="round"/><path d="M641.2 883.6L664.4 896.7" stroke="#003B2F" stroke-width="3" stroke-linecap="round" stroke-linejoin="round"/><path d="M687.6 883.6L674 891.3" stroke="#003B2F" stroke-width="3" stroke-linecap="round" stroke-linejoin="round"/><path d="M664.4 896.7V923.2" stroke="#003B2F" stroke-width="3" stroke-linecap="round" stroke-linejoin="round"/><path d="M663 146.6L686.2 159.7" stroke="#003B2F" stroke-width="3" stroke-linecap="round" stroke-linejoin="round"/><path d="M709.4 146.6L695.7 154.3" stroke="#003B2F" stroke-width="3" stroke-linecap="round" stroke-linejoin="round"/><path d="M686.2 159.7V186.2" stroke="#003B2F" stroke-width="3" stroke-linecap="round" stroke-linejoin="round"/><path d="M453.6 242.4H405.8C420.9 242.4 433.2 230.1 433.2 215C433.2 199.9 420.9 187.6 405.8 187.6H268.5C253.4 187.6 241.1 199.9 241.1 215H199C183.9 215 171.6 227.3 171.6 242.4C171.6 257.5 183.9 269.8 199 269.8H288.9C288.9 284.9 301.2 297.2 316.3 297.2H453.6C468.7 297.2 481 284.9 481 269.8C481 254.7 468.7 242.4 453.6 242.4Z" stroke="#003B2F" stroke-width="3" stroke-linecap="round" stroke-linejoin="round"/><path d="M260.7 223.4C279.809 223.4 295.3 207.909 295.3 188.8C295.3 169.691 279.809 154.2 260.7 154.2C241.591 154.2 226.1 169.691 226.1 188.8C226.1 207.909 241.591 223.4 260.7 223.4Z" fill="#03FC9D"/><path d="M1539.1 192H1430.9" stroke="#003B2F" stroke-width="3" stroke-linecap="round" stroke-linejoin="round"/><path d="M1621.3 192H1594" stroke="#003B2F" stroke-width="3" stroke-linecap="round" stroke-linejoin="round"/><path d="M1766.5 292.9H1713" stroke="#003B2F" stroke-width="3" stroke-linecap="round" stroke-linejoin="round"/><path d="M1774.1 246H1484.2" stroke="#03FC9D" stroke-width="3" stroke-linecap="round" stroke-linejoin="round"/></svg>