<svg width="1676" height="857" viewBox="0 0 1676 857" fill="none" xmlns="http://www.w3.org/2000/svg"><g clip-path="url(#clip0_269_473)"><path d="M623.252 472.453C632.178 465.107 629.645 447.269 617.594 432.611C605.542 417.953 588.537 412.025 579.61 419.372C570.684 426.718 573.217 444.556 585.268 459.214C597.319 473.872 614.325 479.8 623.252 472.453Z" fill="#E6E8EA"/><path d="M678.211 354.498C669.296 343.606 656.72 339.286 650.057 344.732C643.393 350.178 645.27 363.418 654.28 374.216C663.196 385.108 675.771 389.427 682.435 383.981C689.098 378.535 687.221 365.296 678.211 354.498Z" fill="#E6E8EA"/><path d="M718.655 382.279C728.342 374.307 725.598 354.955 712.526 339.055C699.454 323.156 681.004 316.729 671.317 324.702C661.63 332.674 664.374 352.026 677.446 367.926C690.518 383.825 708.968 390.251 718.655 382.279Z" fill="#E6E8EA"/><path d="M745.091 468.059C759.941 455.837 755.724 426.157 735.672 401.767C715.619 377.377 687.324 367.513 672.474 379.735C657.623 391.957 661.84 421.637 681.892 446.027C701.945 470.417 730.24 480.281 745.091 468.059Z" fill="#E6E8EA"/><path d="M666.033 442.758C684.126 427.868 678.987 391.706 654.556 361.99C630.124 332.273 595.65 320.254 577.557 335.145C559.464 350.036 564.603 386.197 589.034 415.913C613.466 445.63 647.94 457.649 666.033 442.758Z" fill="#E6E8EA"/><path d="M636.506 272.651C641.99 268.138 640.456 257.206 633.081 248.235C625.705 239.264 615.28 235.651 609.796 240.164C604.312 244.677 605.846 255.608 613.221 264.579C620.597 273.551 631.022 277.164 636.506 272.651Z" fill="#E6E8EA"/><path d="M708.389 334.32C713.873 329.807 712.34 318.876 704.964 309.905C697.588 300.934 687.164 297.32 681.68 301.833C676.196 306.347 677.729 317.278 685.105 326.249C692.48 335.22 702.905 338.833 708.389 334.32Z" fill="#E6E8EA"/><path d="M680.183 243.418C674.739 236.751 667.044 234.122 662.914 237.409C658.879 240.695 660.005 248.864 665.448 255.437C670.892 262.103 678.587 264.732 682.717 261.446C686.752 258.16 685.626 249.991 680.183 243.418Z" fill="#E6E8EA"/><path d="M634.854 273.277C631.475 269.146 626.689 267.549 624.249 269.615C621.715 271.681 622.465 276.657 625.844 280.789C629.223 284.92 634.009 286.516 636.449 284.451C638.983 282.385 638.232 277.408 634.854 273.277Z" fill="#E6E8EA"/><path d="M579.951 340.038C577.886 337.502 574.977 336.563 573.475 337.784C571.974 339.005 572.349 342.103 574.414 344.545C576.478 347.08 579.388 348.019 580.889 346.798C582.391 345.577 582.015 342.479 579.951 340.038Z" fill="#E6E8EA"/><path d="M676.805 358.911C673.52 354.873 668.734 353.183 666.294 355.249C663.853 357.315 664.51 362.197 667.889 366.235C671.174 370.272 675.96 371.962 678.4 369.897C680.84 367.831 680.183 362.948 676.805 358.911Z" fill="#E6E8EA"/><path d="M742.031 262.197C736.587 255.531 728.892 252.901 724.762 256.188C720.727 259.474 721.853 267.643 727.296 274.216C732.74 280.883 740.435 283.512 744.565 280.225C748.6 276.939 747.474 268.77 742.031 262.197Z" fill="#E6E8EA"/><path d="M650.902 290.554C644.52 282.855 635.605 279.662 630.912 283.606C626.22 287.549 627.534 296.845 633.915 304.639C640.297 312.338 649.213 315.531 653.905 311.587C658.598 307.737 657.284 298.348 650.902 290.554Z" fill="#E6E8EA"/><path d="M784.45 419.005C781.634 415.531 777.599 414.122 775.44 415.906C773.282 417.69 773.939 421.916 776.754 425.39C779.57 428.864 783.605 430.272 785.764 428.488C787.922 426.704 787.265 422.479 784.45 419.005Z" fill="#E6E8EA"/><path d="M734.585 316.162C745.673 307.037 742.543 284.9 727.595 266.717C712.646 248.535 691.539 241.193 680.451 250.318C669.362 259.443 672.492 281.581 687.441 299.763C702.39 317.945 723.497 325.288 734.585 316.162Z" fill="#E6E8EA"/><path d="M685.513 306.517C695.681 298.149 692.792 277.827 679.062 261.127C665.331 244.426 645.958 237.671 635.791 246.039C625.623 254.406 628.512 274.728 642.242 291.429C655.973 308.129 675.346 314.884 685.513 306.517Z" fill="#E6E8EA"/><path d="M575.635 328.864C574.04 326.986 571.881 326.235 570.661 327.174C569.535 328.113 569.817 330.46 571.412 332.338C573.008 334.216 575.166 334.967 576.386 334.028C577.606 333.089 577.231 330.742 575.635 328.864Z" fill="#E6E8EA"/><path d="M1426.57 403.887C1468.33 403.887 1502.12 453.465 1502.12 514.592C1502.12 575.718 1468.33 625.296 1426.57 625.296C1384.81 625.296 1351.02 575.718 1351.02 514.592C1351.02 453.465 1384.81 403.887 1426.57 403.887Z" fill="#03FC9D" stroke="#003B2F" stroke-width="3" stroke-miterlimit="10"/><path d="M1426.57 403.887H1362.37C1320.61 403.887 1286.83 453.465 1286.83 514.592C1286.83 575.718 1320.61 625.296 1362.37 625.296H1426.57C1384.8 625.296 1351.02 575.718 1351.02 514.592C1351.02 453.465 1384.8 403.887 1426.57 403.887Z" fill="#03FC9D" stroke="#003B2F" stroke-width="3" stroke-miterlimit="10"/><path d="M1426.57 442.291C1399.35 442.291 1377.2 474.592 1377.2 514.498C1377.2 554.404 1399.26 586.704 1426.57 586.704C1453.88 586.704 1475.93 554.404 1475.93 514.498C1475.93 474.592 1453.88 442.291 1426.57 442.291Z" fill="#03FC9D" stroke="#003B2F" stroke-width="3" stroke-miterlimit="10"/><path d="M743.062 406.704C784.919 406.704 818.799 455.624 818.799 516C818.799 576.376 784.919 625.296 743.062 625.296C701.205 625.296 667.325 576.376 667.325 516C667.325 455.624 701.205 406.704 743.062 406.704Z" fill="#03FC9D" stroke="#003B2F" stroke-width="3" stroke-miterlimit="10"/><path d="M743.063 406.704H649.682C607.825 406.704 573.946 455.624 573.946 516C573.946 576.376 607.825 625.296 649.682 625.296H743.063C701.206 625.296 667.326 576.376 667.326 516C667.326 455.624 701.206 406.704 743.063 406.704Z" fill="#03FC9D" stroke="#003B2F" stroke-width="3" stroke-miterlimit="10"/><path d="M743.063 444.639C715.752 444.639 693.604 476.563 693.604 516C693.604 555.437 715.752 587.362 743.063 587.362C770.373 587.362 792.521 555.437 792.521 516C792.521 476.563 770.373 444.639 743.063 444.639Z" fill="#03FC9D" stroke="#003B2F" stroke-width="3" stroke-miterlimit="10"/><path d="M743.063 490.272H798.903C801.531 490.272 803.689 488.113 803.689 485.484C803.689 482.854 801.531 480.695 798.903 480.695H743.063C740.435 480.695 738.276 482.854 738.276 485.484C738.276 488.113 740.435 490.272 743.063 490.272Z" fill="white" stroke="#003B2F" stroke-width="3" stroke-linecap="round" stroke-linejoin="round"/><path d="M845.077 508.582C847.33 508.582 849.394 506.986 849.77 504.638C850.239 502.009 848.55 499.568 845.922 499.099L744.002 480.695C741.374 480.225 738.934 481.915 738.464 484.545C737.995 487.174 739.684 489.615 742.312 490.084L844.233 508.488C844.233 508.488 844.796 508.488 845.077 508.488V508.582Z" fill="white" stroke="#003B2F" stroke-width="3" stroke-linecap="round" stroke-linejoin="round"/><path d="M743.063 520.695H870.041C872.669 520.695 874.827 518.535 874.827 515.906C874.827 513.277 872.669 511.117 870.041 511.117H743.063C740.435 511.117 738.276 513.277 738.276 515.906C738.276 518.535 740.435 520.695 743.063 520.695Z" fill="white" stroke="#003B2F" stroke-width="3" stroke-linecap="round" stroke-linejoin="round"/><path d="M1508.03 598.535C1523.04 575.906 1531.11 545.39 1530.65 513.934C1530.65 511.587 1530.55 509.146 1530.36 506.798C1530.18 503.793 1531.87 501.258 1533.93 501.258C1549.42 501.822 1607.32 506.516 1667.01 544.92C1670.48 547.174 1673.39 550.648 1675.46 555.155C1681.56 568.394 1681.56 585.014 1674.89 597.596C1671.8 603.324 1672.64 606.61 1676.58 606.61H1508.4C1505.87 606.61 1504.37 603.7 1505.87 601.634C1506.62 600.601 1507.28 599.568 1508.03 598.535Z" fill="white" stroke="#003B2F" stroke-width="3" stroke-linecap="round" stroke-linejoin="round"/><path d="M1508.4 606.61C1505.87 606.61 1504.37 603.699 1505.87 601.634C1506.62 600.601 1507.28 599.568 1508.03 598.535C1508.69 597.596 1509.25 596.657 1509.91 595.624H1703.99C1704.92 595.624 1705.21 596.939 1704.27 597.314C1696.48 600.413 1680.24 606.61 1676.58 606.61H1508.4Z" fill="white" stroke="#003B2F" stroke-width="3" stroke-linecap="round" stroke-linejoin="round"/><path d="M1474.34 422.291C1469.74 424.545 1464.67 425.671 1459.51 425.671H1328.68C1328.68 422.761 1331.03 420.319 1334.03 420.319H1461.67C1466.83 420.319 1471.9 419.193 1476.5 416.939L1490.1 409.897C1494.8 407.455 1500.05 406.235 1505.4 406.235H1513.94C1509.81 406.235 1505.78 407.174 1502.12 408.958L1474.34 422.291Z" fill="#003B2F"/><path d="M1541.25 420.319C1542.75 422.667 1541.06 425.671 1538.34 425.671H1459.6C1464.76 425.671 1469.83 424.545 1474.43 422.291L1502.21 408.958C1505.87 407.174 1509.91 406.235 1514.03 406.235C1517.04 406.235 1519.95 406.704 1522.76 407.643C1524.08 408.113 1525.3 408.488 1526.61 408.958C1532.34 410.93 1537.4 414.592 1540.78 419.568C1540.97 419.756 1541.06 420.038 1541.25 420.225V420.319Z" fill="#003B2F"/><path d="M930.009 444.545C1059.71 364.075 1234.74 289.146 1268.43 289.146H1312.07C1320.05 289.146 1326.8 294.779 1328.31 302.573C1343.32 379.662 1362 409.052 1375.32 420.413C1379.36 423.793 1384.43 425.671 1389.68 425.671H1538.15C1540.88 425.671 1542.56 422.573 1541.06 420.319C1540.88 420.131 1540.78 419.85 1540.59 419.662C1537.12 414.685 1532.15 411.024 1526.42 409.052C1609.85 437.315 1747.63 485.39 1872.91 574.498C1874.51 575.624 1875.45 577.502 1875.45 579.474C1875.45 582.855 1872.73 585.578 1869.35 585.578H1800.46C1793.33 585.578 1786.29 584.639 1779.44 582.667C1758.04 576.657 1702.67 563.512 1632.1 563.512C1502.12 563.512 1421.4 593.465 1398.41 603.324C1393.63 605.39 1388.46 606.423 1383.21 606.423H1034.46C1022.64 606.423 1011.1 603.324 1000.77 597.502L919.873 551.587C912.365 547.268 907.673 539.286 907.673 530.648V484.545C907.673 468.301 916.119 453.183 929.915 444.545H930.009Z" fill="white" stroke="#003B2F" stroke-width="3" stroke-linecap="round" stroke-linejoin="round"/><path d="M1464.86 420.413H1532.15C1533.56 420.413 1534.4 418.817 1533.65 417.596C1530.83 413.653 1523.33 408.113 1510.75 408.113H1504.18C1507.28 406.892 1510.66 406.235 1514.03 406.235C1517.04 406.235 1519.95 406.704 1522.76 407.643C1524.08 408.113 1525.3 408.488 1526.61 408.958C1532.34 410.93 1537.4 414.592 1540.78 419.568C1540.97 419.756 1541.06 420.038 1541.25 420.225C1542.75 422.573 1541.06 425.578 1538.34 425.578H1459.6C1459.6 422.667 1461.95 420.225 1464.95 420.225L1464.86 420.413Z" fill="white" stroke="#003B2F" stroke-width="3" stroke-linecap="round" stroke-linejoin="round"/><path d="M1542.1 573.371L1666.16 572.057L1804.31 554.873C1806.94 554.592 1808.82 552.15 1808.44 549.521C1808.16 546.892 1805.72 545.014 1803.09 545.39L1665.51 562.479L1542 563.794C1539.37 563.794 1537.22 565.953 1537.22 568.676C1537.22 571.305 1539.37 573.465 1542 573.465L1542.1 573.371Z" fill="#003B2F"/><path d="M1542.1 573.371C1542.1 573.371 1542.28 573.371 1542.47 573.371L1804.12 554.967C1806.75 554.779 1808.72 552.526 1808.54 549.803C1808.35 547.174 1806.1 545.202 1803.37 545.39L1541.72 563.794C1539.09 563.981 1537.12 566.235 1537.31 568.958C1537.5 571.493 1539.56 573.371 1542.1 573.371Z" fill="#003B2F"/><path d="M1526.42 572.714L1546.79 565.202C1553.92 562.573 1558.61 555.812 1558.61 548.207V470.272C1558.61 467.455 1556.36 465.202 1553.55 465.202H1526.42V572.714Z" fill="#003B2F"/><path d="M898.852 479.85L1045.63 477.127C1050.98 477.033 1056.05 474.685 1059.9 470.836C1061.87 468.958 1064.4 467.643 1067.31 467.455C1167.64 459.944 1369.51 448.676 1402.73 448.676H1513.19C1520.51 448.676 1526.42 454.592 1526.42 461.915V591.587C1526.42 598.347 1522.11 604.075 1516.19 605.014C1510.75 605.859 1505.03 606.423 1498.83 606.423H1048.73C1041.13 606.423 1033.53 604.92 1026.21 601.915L893.503 547.174C890.03 545.765 887.684 542.291 887.684 538.535V491.399C887.684 485.202 892.658 480.131 898.852 480.038V479.85Z" fill="#03FC9D" stroke="#003B2F" stroke-width="3" stroke-miterlimit="10"/><path d="M898.852 479.85L931.7 479.286V521.822C931.7 525.578 933.858 529.052 937.143 530.46L1061.31 585.202C1068.16 588.207 1075.29 589.709 1082.42 589.709H1526.42V591.587C1526.42 598.347 1522.11 604.075 1516.19 605.014C1510.75 605.859 1505.03 606.423 1498.83 606.423H1048.73C1041.13 606.423 1033.53 604.92 1026.21 601.916L893.503 547.174C890.03 545.765 887.684 542.291 887.684 538.535V491.399C887.684 485.202 892.658 480.132 898.852 480.038V479.85Z" fill="white" stroke="#003B2F" stroke-width="3" stroke-linecap="round" stroke-linejoin="round"/><path d="M1509.72 429.239H1480.44C1478.09 429.239 1476.21 427.361 1476.21 425.014V406.798C1476.21 404.451 1478.09 402.573 1480.44 402.573H1509.72C1514.32 402.573 1518.07 406.329 1518.07 410.929V420.883C1518.07 425.484 1514.32 429.239 1509.72 429.239Z" fill="white" stroke="#003B2F" stroke-width="3" stroke-linecap="round" stroke-linejoin="round"/><path d="M1500.15 405.108H1477.81C1476.93 405.108 1476.21 405.822 1476.21 406.704V424.92C1476.21 425.802 1476.93 426.516 1477.81 426.516H1500.15C1501.03 426.516 1501.74 425.802 1501.74 424.92V406.704C1501.74 405.822 1501.03 405.108 1500.15 405.108Z" fill="white" stroke="#003B2F" stroke-width="3" stroke-linecap="round" stroke-linejoin="round"/><path d="M1496.67 429.239H1491.6V448.676H1496.67V429.239Z" fill="white" stroke="#003B2F" stroke-width="3" stroke-linecap="round" stroke-linejoin="round"/><path d="M786.326 531.493H955.443C957.695 531.493 959.572 529.991 960.135 527.831L968.769 493.277C970.552 486.047 965.109 479.005 957.601 479.005H807.911C799.934 479.005 792.895 484.451 790.924 492.244L782.384 526.423C781.727 528.958 783.698 531.493 786.326 531.493Z" fill="white" stroke="#003B2F" stroke-width="3" stroke-linecap="round" stroke-linejoin="round"/><path d="M927.758 511.117H964.359L961.919 520.695H927.758C925.13 520.695 922.972 518.535 922.972 515.906C922.972 513.277 925.13 511.117 927.758 511.117Z" fill="white" stroke="#003B2F" stroke-width="3" stroke-linecap="round" stroke-linejoin="round"/><path d="M938.268 496.939L968.957 492.62C968.957 492.62 968.957 492.995 968.863 493.277L966.517 502.667L939.582 506.423C939.582 506.423 939.113 506.423 938.925 506.423C936.579 506.423 934.514 504.733 934.233 502.291C933.857 499.662 935.734 497.221 938.268 496.845V496.939Z" fill="white" stroke="#003B2F" stroke-width="3" stroke-linecap="round" stroke-linejoin="round"/><path d="M845.075 508.582C847.327 508.582 849.392 506.986 849.767 504.639C850.237 502.01 848.547 499.568 845.92 499.099L804.72 491.681C802.092 491.211 799.652 492.902 799.183 495.531C798.713 498.16 800.403 500.601 803.031 501.071L844.23 508.488C844.23 508.488 844.793 508.488 845.075 508.488V508.582Z" fill="white" stroke="#003B2F" stroke-width="3" stroke-linecap="round" stroke-linejoin="round"/><path d="M821.708 520.695H845.076C847.704 520.695 849.863 518.535 849.863 515.906C849.863 513.277 847.704 511.117 845.076 511.117H821.708C819.08 511.117 816.921 513.277 816.921 515.906C816.921 518.535 819.08 520.695 821.708 520.695Z" fill="white" stroke="#003B2F" stroke-width="3" stroke-linecap="round" stroke-linejoin="round"/><path d="M791.113 292.432V349.897C791.113 360.507 789.048 370.93 785.106 380.038L745.69 471.399C743.437 476.563 738.369 479.944 732.738 479.944H684.969C681.591 479.944 678.869 476.094 678.869 471.305V283.981C678.869 279.193 681.591 275.343 684.969 275.343H779.006C785.67 275.343 791.113 282.948 791.113 292.432Z" fill="#003B2F"/><path d="M950.374 433.84V446.235H730.672C718.754 446.235 708.524 439.099 704.301 435.624C703.55 435.061 704.019 433.84 704.958 433.84H950.374Z" fill="white" stroke="#003B2F" stroke-width="3" stroke-linecap="round" stroke-linejoin="round"/><path d="M815.137 429.24L816.263 430.648C824.146 440.413 836.065 446.141 848.641 446.141H851.738V433.183C851.738 432.056 852.583 431.211 853.709 431.211H859.528C860.748 431.211 861.874 431.963 862.343 433.183L872.76 462.948L877.265 475.906C877.922 477.69 879.611 478.911 881.582 478.911H891.343V531.493H863.094C844.136 531.493 828.839 516.094 828.839 497.221V484.826C828.839 480.977 828.182 477.221 826.962 473.559L812.134 431.117C811.664 429.897 812.603 428.582 813.917 428.582C814.48 428.582 815.043 428.864 815.418 429.333L815.137 429.24Z" fill="white" stroke="#003B2F" stroke-width="3" stroke-linecap="round" stroke-linejoin="round"/><path d="M869.383 470.93H854.836C853.074 470.93 851.645 472.359 851.645 474.122V490.272C851.645 492.035 853.074 493.465 854.836 493.465H869.383C871.145 493.465 872.574 492.035 872.574 490.272V474.122C872.574 472.359 871.145 470.93 869.383 470.93Z" fill="white" stroke="#003B2F" stroke-width="3" stroke-linecap="round" stroke-linejoin="round"/><path d="M883.085 433.84H851.645V446.235H883.085V433.84Z" fill="white" stroke="#003B2F" stroke-width="3" stroke-linecap="round" stroke-linejoin="round"/><path d="M686.095 276.375H950.281V315.249H693.321C687.409 315.249 682.341 311.117 681.215 305.39C679.432 296.845 678.869 289.239 678.681 283.981C678.587 279.85 681.872 276.375 686.001 276.375H686.095Z" fill="#03FC9D" stroke="#003B2F" stroke-width="3" stroke-linecap="round" stroke-linejoin="round"/><path d="M700.454 342.479C693.697 335.249 688.254 326.704 684.5 317.315C684.125 316.376 684.782 315.343 685.814 315.343H950.376V346.235H709.089C705.804 346.235 702.707 344.826 700.454 342.479Z" fill="#03FC9D" stroke="#003B2F" stroke-width="3" stroke-linecap="round" stroke-linejoin="round"/><path d="M950.376 350.836V368.207H759.486C741.842 368.207 725.606 362.573 712.28 352.995C711.341 352.338 711.81 350.836 712.937 350.836H950.282H950.376Z" fill="#03FC9D" stroke="#003B2F" stroke-width="3" stroke-linecap="round" stroke-linejoin="round"/><path d="M950.374 397.503V428.488H700.359C697.825 428.488 695.291 427.362 693.602 425.484C685.156 415.812 681.12 405.202 679.619 400.319C679.149 398.911 680.276 397.503 681.683 397.503H950.28H950.374Z" fill="white" stroke="#003B2F" stroke-width="3" stroke-linecap="round" stroke-linejoin="round"/><path d="M846.483 429.24L847.61 430.648C855.493 440.413 867.412 446.141 879.988 446.141H883.085V433.183C883.085 432.056 883.929 431.211 885.056 431.211H890.874C892.094 431.211 893.22 431.963 893.69 433.183L904.107 462.948L908.612 475.906C909.269 477.69 910.958 478.911 912.929 478.911H922.689V531.493H894.441C875.483 531.493 860.185 516.094 860.185 497.221V484.826C860.185 480.977 859.529 477.221 858.308 473.559L843.48 431.117C843.011 429.897 843.95 428.582 845.263 428.582C845.827 428.582 846.39 428.864 846.765 429.333L846.483 429.24Z" fill="white" stroke="#003B2F" stroke-width="3" stroke-linecap="round" stroke-linejoin="round"/><path d="M950.376 433.84H883.086V446.235H950.376V433.84Z" fill="white" stroke="#003B2F" stroke-width="3" stroke-linecap="round" stroke-linejoin="round"/><path d="M1051.17 292.432V349.897C1051.17 360.507 1049.1 370.93 1045.16 380.038L1005.75 471.399C1003.49 476.563 998.426 479.944 992.795 479.944H945.026C941.647 479.944 938.926 476.094 938.926 471.305V283.981C938.926 279.193 941.647 275.343 945.026 275.343H1039.06C1045.73 275.343 1051.17 282.948 1051.17 292.432Z" fill="#003B2F"/><path d="M914.712 525.014V606.423H784.825L761.081 529.709C760.33 527.362 762.113 525.014 764.553 525.014H914.712Z" fill="white" stroke="#003B2F" stroke-width="3" stroke-linecap="round" stroke-linejoin="round"/><path d="M730.861 528.394C730.861 525.39 728.421 522.948 725.418 522.948H726.451C729.36 522.948 732.175 523.512 734.897 524.639L928.884 606.329H738.839C734.428 606.329 730.861 602.761 730.861 598.347V528.394Z" fill="white" stroke="#003B2F" stroke-width="3" stroke-linecap="round" stroke-linejoin="round"/><path d="M730.86 528.394V540.789L692.851 523.981C692.288 523.793 692.476 522.948 693.039 522.948H725.417C728.42 522.948 730.86 525.39 730.86 528.394Z" fill="white" stroke="#003B2F" stroke-width="3" stroke-linecap="round" stroke-linejoin="round"/><path d="M762.019 525.953C762.676 525.296 763.52 524.92 764.552 524.92H914.712V565.108H855.117L762.019 525.953Z" fill="white" stroke="#003B2F" stroke-width="3" stroke-linecap="round" stroke-linejoin="round"/><path d="M798.996 552.432C799.183 549.803 801.529 547.831 804.157 548.019L828.746 549.897L834.564 559.944L803.406 557.596C800.779 557.408 798.808 555.061 798.996 552.432Z" fill="white" stroke="#003B2F" stroke-width="3" stroke-linecap="round" stroke-linejoin="round"/><path d="M914.712 525.014V606.423H868.82C864.221 606.423 859.904 603.981 857.651 599.944L820.581 535.718C816.733 529.146 809.694 525.014 802.093 525.014H914.712Z" fill="white" stroke="#003B2F" stroke-width="3" stroke-linecap="round" stroke-linejoin="round"/><path d="M914.712 525.014H892.001C886.37 525.014 882.053 529.897 882.71 535.531L890.218 600.131C890.593 603.418 887.965 606.423 884.681 606.423H914.806V525.014H914.712Z" fill="white" stroke="#003B2F" stroke-width="3" stroke-linecap="round" stroke-linejoin="round"/><path d="M955.444 524.639L1149.62 606.329H916.966C912.555 606.329 908.988 602.761 908.988 598.347V526.986C908.988 524.732 910.771 522.948 913.024 522.948H947.373C950.188 522.948 952.91 523.512 955.444 524.545V524.639Z" fill="white" stroke="#003B2F" stroke-width="3" stroke-linecap="round" stroke-linejoin="round"/><path d="M913.023 523.042H947.372C950.187 523.042 952.909 523.606 955.443 524.639L1149.62 606.329H1107.01L910.677 523.7C911.334 523.23 912.084 522.948 913.023 522.948V523.042Z" fill="white" stroke="#003B2F" stroke-width="3" stroke-linecap="round" stroke-linejoin="round"/><path d="M1777.47 533.934C1779.44 533.934 1781.32 532.62 1781.98 530.648C1782.82 528.113 1781.41 525.39 1778.97 524.545L1624.87 473.371C1622.34 472.526 1619.62 473.934 1618.77 476.376C1617.93 478.911 1619.33 481.634 1621.77 482.479L1775.88 533.653C1776.34 533.84 1776.91 533.934 1777.38 533.934H1777.47Z" fill="white" stroke="#003B2F" stroke-width="3" stroke-linecap="round" stroke-linejoin="round"/><path d="M1605.07 507.549C1605.07 507.549 1605.26 507.549 1605.35 507.549L1832.47 492.62C1835.09 492.432 1837.07 490.179 1836.97 487.549C1836.78 484.92 1834.53 482.855 1831.9 483.042L1604.79 497.972C1602.16 498.16 1600.19 500.413 1600.28 503.042C1600.47 505.578 1602.54 507.549 1605.07 507.549Z" fill="white" stroke="#003B2F" stroke-width="3" stroke-linecap="round" stroke-linejoin="round"/><path d="M984.255 500.132C984.255 500.132 984.724 500.132 984.912 500.132L1055.3 490.272C1057.93 489.897 1059.71 487.456 1059.33 484.826C1058.96 482.197 1056.52 480.413 1053.89 480.789L983.504 490.648C980.876 491.024 979.093 493.465 979.468 496.094C979.844 498.535 981.815 500.226 984.161 500.226L984.255 500.132Z" fill="white" stroke="#003B2F" stroke-width="3" stroke-linecap="round" stroke-linejoin="round"/><path d="M998.051 520.695H1054.74C1057.36 520.695 1059.52 518.535 1059.52 515.906C1059.52 513.277 1057.36 511.118 1054.74 511.118H998.051C995.423 511.118 993.265 513.277 993.265 515.906C993.265 518.535 995.423 520.695 998.051 520.695Z" fill="white" stroke="#003B2F" stroke-width="3" stroke-linecap="round" stroke-linejoin="round"/><path d="M980.5 557.878L1054.73 557.596C1057.36 557.596 1059.52 555.437 1059.52 552.808C1059.52 550.179 1057.36 548.019 1054.73 548.019L980.5 548.301C977.872 548.301 975.714 550.46 975.714 553.089C975.714 555.718 977.872 557.878 980.5 557.878Z" fill="white" stroke="#003B2F" stroke-width="3" stroke-linecap="round" stroke-linejoin="round"/><path d="M1167.26 444.639C1139.95 444.639 1117.8 476.563 1117.8 516C1117.8 555.437 1139.95 587.362 1167.26 587.362C1194.57 587.362 1216.72 555.437 1216.72 516C1216.72 476.563 1194.57 444.639 1167.26 444.639Z" fill="#03FC9D" stroke="#003B2F" stroke-width="3" stroke-miterlimit="10"/><path d="M1167.26 406.704C1209.12 406.704 1243 455.624 1243 516C1243 576.376 1209.12 625.296 1167.26 625.296C1125.4 625.296 1091.52 576.376 1091.52 516C1091.52 455.624 1125.4 406.704 1167.26 406.704ZM1167.26 587.268C1194.57 587.268 1216.72 555.343 1216.72 515.906C1216.72 476.469 1194.57 444.545 1167.26 444.545C1139.95 444.545 1117.8 476.469 1117.8 515.906C1117.8 555.343 1139.95 587.268 1167.26 587.268Z" fill="#03FC9D" stroke="#003B2F" stroke-width="3" stroke-miterlimit="10"/><path d="M1167.26 406.704H1073.88C1032.02 406.704 998.145 455.624 998.145 516C998.145 576.376 1032.02 625.296 1073.88 625.296H1167.26C1125.4 625.296 1091.53 576.376 1091.53 516C1091.53 455.624 1125.4 406.704 1167.26 406.704Z" fill="#03FC9D" stroke="#003B2F" stroke-width="3" stroke-miterlimit="10"/><path d="M1167.26 579.38C1142.96 579.38 1123.25 550.929 1123.25 515.906C1123.25 480.883 1142.96 452.432 1167.26 452.432C1191.57 452.432 1211.28 480.883 1211.28 515.906C1211.28 550.929 1191.57 579.38 1167.26 579.38Z" fill="#003B2F"/><path d="M1161.26 486.704C1159 483.324 1156.28 480.225 1153.18 477.596C1150.09 474.967 1146.71 472.901 1143.33 471.399C1142.86 471.211 1142.49 471.117 1142.02 471.023C1139.86 472.244 1137.7 473.84 1135.82 475.718C1135.54 476.657 1135.54 477.69 1135.63 478.723L1137.23 490.648C1137.89 495.812 1141.73 499.474 1146.05 499.474C1146.52 499.474 1146.99 499.474 1147.46 499.38L1157.6 497.502C1161.91 496.657 1163.88 490.742 1161.16 486.61L1161.26 486.704Z" fill="#03FC9D" stroke="#003B2F" stroke-width="3" stroke-linecap="round" stroke-linejoin="round"/><path d="M1140.8 516C1140.8 506.517 1134.51 498.723 1126.63 498.723C1126.63 498.723 1126.63 498.723 1126.53 498.723C1125.5 504.169 1124.84 509.991 1124.84 516C1124.84 522.009 1125.41 527.737 1126.53 533.277C1126.53 533.277 1126.53 533.277 1126.63 533.277C1134.41 533.277 1140.8 525.578 1140.8 516Z" fill="#03FC9D" stroke="#003B2F" stroke-width="3" stroke-linecap="round" stroke-linejoin="round"/><path d="M1141.92 560.883C1145.02 558.723 1145.77 553.559 1143.05 550.272L1135.73 541.728C1133.95 539.662 1131.69 538.629 1129.44 538.629C1128.88 538.629 1128.41 538.629 1127.85 538.817C1129.35 544.263 1131.32 549.427 1133.66 554.028C1136.1 556.845 1138.92 559.099 1141.92 560.883Z" fill="#03FC9D" stroke="#003B2F" stroke-width="3" stroke-linecap="round" stroke-linejoin="round"/><path d="M1162.94 542.479C1161.82 544.545 1159.94 545.484 1158.16 545.484C1156.09 545.484 1154.12 544.263 1153 541.822L1148.3 531.023C1146.05 525.859 1147.83 519.568 1152.25 516.939L1161.44 511.399C1162.29 510.93 1163.23 510.648 1164.07 510.648C1167.17 510.648 1169.98 513.653 1169.8 517.69C1169.7 522.009 1169.04 526.329 1167.82 530.648C1166.6 534.967 1165.01 538.911 1162.94 542.479Z" fill="#03FC9D" stroke="#003B2F" stroke-width="3" stroke-linecap="round" stroke-linejoin="round"/><path d="M539.784 335.718C541.848 338.253 544.851 339.286 546.447 338.066C548.042 336.751 547.573 333.652 545.415 331.117C543.35 328.582 540.347 327.549 538.751 328.77C537.156 330.084 537.625 333.183 539.784 335.718Z" fill="white"/><path d="M891.626 547.456C928.479 547.456 958.353 517.566 958.353 480.695C958.353 443.824 928.479 413.934 891.626 413.934C854.774 413.934 824.899 443.824 824.899 480.695C824.899 517.566 854.774 547.456 891.626 547.456Z" fill="#E6E8EA"/><path d="M824.286 385.204C833.212 377.858 830.679 360.02 818.628 345.361C806.576 330.703 789.57 324.776 780.644 332.123C771.718 339.469 774.251 357.307 786.302 371.965C798.353 386.623 815.359 392.551 824.286 385.204Z" fill="#E6E8EA"/><path d="M767.463 470.554C776.379 481.446 788.954 485.765 795.618 480.319C802.281 474.873 800.404 461.634 791.395 450.836C782.479 439.944 769.903 435.624 763.24 441.07C756.576 446.516 758.453 459.756 767.463 470.554Z" fill="#E6E8EA"/><path d="M815.869 549.844C827.277 540.455 824.06 517.682 808.683 498.979C793.306 480.276 771.592 472.726 760.184 482.115C748.776 491.504 751.993 514.277 767.37 532.98C782.747 551.683 804.46 559.233 815.869 549.844Z" fill="#E6E8EA"/><path d="M1003.56 501.524C1018.41 489.302 1014.19 459.622 994.138 435.232C974.086 410.842 945.791 400.978 930.94 413.2C916.089 425.422 920.306 455.102 940.359 479.492C960.411 503.882 988.706 513.746 1003.56 501.524Z" fill="#E6E8EA"/><path d="M1070.79 383.136C1076.32 389.897 1084.21 392.62 1088.34 389.24C1092.47 385.859 1091.25 377.596 1085.71 370.836C1080.17 364.075 1072.29 361.352 1068.16 364.733C1064.03 368.113 1065.25 376.376 1070.79 383.136Z" fill="#E6E8EA"/><path d="M823.962 357.972C829.499 364.732 837.382 367.455 841.511 364.075C845.641 360.695 844.421 352.432 838.884 345.671C833.347 338.911 825.463 336.188 821.334 339.568C817.204 342.948 818.424 351.211 823.962 357.972Z" fill="#E6E8EA"/><path d="M1042.26 346.798C1046.1 351.399 1051.45 353.277 1054.27 351.024C1057.08 348.676 1056.33 343.042 1052.49 338.441C1048.64 333.84 1043.29 331.963 1040.47 334.216C1037.66 336.563 1038.41 342.197 1042.26 346.798Z" fill="#E6E8EA"/><path d="M948.903 569.423C979.566 544.188 970.896 482.954 929.54 432.652C888.183 382.35 829.801 362.029 799.139 387.264C768.476 412.499 777.146 473.734 818.502 524.035C859.858 574.337 918.241 594.658 948.903 569.423Z" fill="#E6E8EA"/><path d="M1211.18 471.305C1216.72 478.066 1224.51 480.789 1228.64 477.409C1232.77 474.028 1231.55 465.859 1226.01 459.099C1220.48 452.338 1212.69 449.615 1208.56 452.995C1204.43 456.376 1205.65 464.545 1211.18 471.305Z" fill="#E6E8EA"/><path d="M1193.16 543.136C1198.42 549.521 1205.83 552.056 1209.68 548.864C1213.53 545.671 1212.5 537.878 1207.24 531.493C1201.99 525.108 1194.57 522.573 1190.72 525.765C1186.88 528.958 1187.91 536.751 1193.16 543.136Z" fill="white"/><path d="M1178.06 487.08C1180.31 489.897 1183.59 491.023 1185.28 489.615C1186.97 488.207 1186.5 484.826 1184.25 482.103C1182 479.286 1178.71 478.16 1177.02 479.568C1175.33 480.977 1175.8 484.357 1178.06 487.08Z" fill="white"/><path d="M1212.97 490.648C1219.16 498.16 1227.89 501.164 1232.49 497.408C1237.09 493.653 1235.77 484.451 1229.58 476.939C1223.38 469.427 1214.66 466.422 1210.06 470.178C1205.46 473.934 1206.77 483.136 1212.97 490.648Z" fill="#E6E8EA"/><path d="M1198.05 495.155C1206.02 504.826 1217.19 508.77 1223.1 503.887C1229.02 499.005 1227.33 487.268 1219.35 477.596C1211.37 467.925 1200.2 463.981 1194.29 468.864C1188.38 473.747 1190.07 485.484 1198.05 495.155Z" fill="#E6E8EA"/><path d="M1215.13 433.277C1215.13 433.277 1236.8 458.535 1240.84 503.136C1244.88 547.737 1231.08 570.085 1231.08 570.085C1231.08 570.085 1213.06 562.667 1214.28 552.15C1215.41 541.634 1225.64 545.859 1225.64 545.859C1225.64 545.859 1210.15 536.563 1212.31 526.61C1214.47 516.657 1225.54 517.315 1225.54 517.315C1225.54 517.315 1209.59 510.366 1209.59 498.347C1209.59 486.329 1220.38 478.254 1220.38 478.254C1220.38 478.254 1210.25 454.686 1211 445.859C1211.75 437.033 1215.13 433.277 1215.13 433.277Z" fill="#E6E8EA"/><path d="M417.622 369.729C426.548 362.383 424.015 344.545 411.964 329.887C399.912 315.229 382.906 309.301 373.98 316.648C365.053 323.994 367.587 341.832 379.638 356.49C391.689 371.148 408.695 377.076 417.622 369.729Z" fill="#E6E8EA"/><path d="M319.05 434.498C327.966 445.39 340.541 449.709 347.205 444.263C353.868 438.817 351.991 425.578 342.981 414.779C334.066 403.887 321.49 399.568 314.827 405.014C308.163 410.46 310.04 423.7 319.05 434.498Z" fill="#E6E8EA"/><path d="M325.913 464.306C335.6 456.333 332.856 436.981 319.784 421.082C306.712 405.182 288.262 398.756 278.575 406.728C268.888 414.701 271.632 434.053 284.704 449.952C297.776 465.852 316.226 472.278 325.913 464.306Z" fill="#E6E8EA"/><path d="M324.759 409.272C339.61 397.05 335.393 367.37 315.34 342.98C295.288 318.59 266.993 308.726 252.142 320.948C237.291 333.17 241.508 362.85 261.561 387.24C281.613 411.63 309.908 421.494 324.759 409.272Z" fill="#E6E8EA"/><path d="M419.676 453.956C437.769 439.066 432.63 402.904 408.198 373.188C383.766 343.471 349.293 331.453 331.2 346.343C313.107 361.234 318.245 397.395 342.677 427.111C367.109 456.828 401.583 468.847 419.676 453.956Z" fill="#E6E8EA"/><path d="M387.457 548.903C392.941 544.39 391.407 533.458 384.031 524.487C376.656 515.516 366.231 511.903 360.747 516.416C355.263 520.929 356.797 531.86 364.172 540.831C371.548 549.803 381.973 553.416 387.457 548.903Z" fill="#E6E8EA"/><path d="M315.553 487.174C321.037 482.661 319.503 471.73 312.127 462.759C304.752 453.788 294.327 450.174 288.843 454.687C283.359 459.2 284.892 470.132 292.268 479.103C299.644 488.074 310.069 491.687 315.553 487.174Z" fill="#E6E8EA"/><path d="M317.079 545.578C322.522 552.244 330.217 554.873 334.347 551.587C338.382 548.301 337.256 540.132 331.813 533.559C326.37 526.892 318.674 524.263 314.545 527.549C310.509 530.836 311.635 539.005 317.079 545.578Z" fill="#E6E8EA"/><path d="M362.408 515.718C365.787 519.85 370.573 521.446 373.013 519.38C375.547 517.314 374.796 512.338 371.418 508.206C368.039 504.075 363.253 502.479 360.813 504.544C358.279 506.61 359.029 511.587 362.408 515.718Z" fill="#E6E8EA"/><path d="M417.31 448.958C419.375 451.493 422.284 452.432 423.785 451.211C425.287 449.99 424.912 446.892 422.847 444.451C420.782 441.915 417.873 440.976 416.371 442.197C414.87 443.418 415.245 446.516 417.31 448.958Z" fill="#E6E8EA"/><path d="M320.458 430.084C323.743 434.122 328.529 435.812 330.969 433.746C333.41 431.681 332.753 426.798 329.374 422.761C326.089 418.723 321.303 417.033 318.863 419.099C316.423 421.164 317.08 426.047 320.458 430.084Z" fill="#E6E8EA"/><path d="M255.233 526.798C260.676 533.465 268.372 536.094 272.501 532.808C276.537 529.521 275.411 521.352 269.967 514.779C264.524 508.113 256.828 505.484 252.699 508.77C248.664 512.056 249.79 520.225 255.233 526.798Z" fill="#E6E8EA"/><path d="M346.359 498.441C352.741 506.141 361.657 509.333 366.349 505.39C371.042 501.446 369.728 492.15 363.346 484.357C356.964 476.657 348.049 473.465 343.356 477.408C338.664 481.258 339.978 490.648 346.359 498.441Z" fill="#E6E8EA"/><path d="M212.812 369.991C215.628 373.465 219.663 374.873 221.822 373.089C223.98 371.305 223.323 367.08 220.508 363.606C217.692 360.131 213.657 358.723 211.498 360.507C209.34 362.291 209.997 366.516 212.812 369.991Z" fill="#E6E8EA"/><path d="M316.781 538.689C327.869 529.564 324.739 507.427 309.791 489.244C294.842 471.062 273.735 463.72 262.647 472.845C251.558 481.971 254.688 504.108 269.637 522.29C284.586 540.473 305.693 547.815 316.781 538.689Z" fill="#E6E8EA"/><path d="M361.442 542.969C371.609 534.601 368.721 514.279 354.99 497.579C341.26 480.878 321.886 474.123 311.719 482.491C301.552 490.858 304.44 511.18 318.171 527.881C331.901 544.581 351.274 551.336 361.442 542.969Z" fill="#E6E8EA"/><path d="M421.628 460.131C423.224 462.009 425.382 462.761 426.602 461.822C427.728 460.883 427.447 458.535 425.851 456.657C424.256 454.779 422.097 454.028 420.877 454.967C419.657 455.906 420.033 458.254 421.628 460.131Z" fill="#E6E8EA"/><path d="M1214.09 488.864C1216.34 491.681 1219.63 492.808 1221.32 491.399C1223.01 489.991 1222.54 486.61 1220.29 483.887C1218.03 481.071 1214.75 479.944 1213.06 481.352C1211.37 482.761 1211.84 486.141 1214.09 488.864Z" fill="white"/><path d="M477.186 681.634L468.27 685.859C458.416 691.775 446.872 695.249 434.578 695.249C416.371 695.249 399.854 687.831 388.029 675.812C376.391 686.986 359.78 692.995 341.855 690.085C319.425 686.516 301.124 668.207 297.558 645.765C295.305 631.681 298.59 618.441 305.441 607.737C287.14 598.723 274.471 579.85 274.471 557.972C274.471 531.024 293.616 508.676 319.049 503.606C311.917 493.183 308.444 479.944 310.603 465.953C313.794 444.92 330.311 427.549 351.052 423.23C363.534 420.601 375.547 422.573 385.588 427.643C389.436 412.526 403.138 401.352 419.468 401.352C419.468 401.352 419.656 401.352 419.75 401.352C430.636 401.352 443.494 407.643 448.937 417.127L452.972 430.178C452.972 396.563 480.189 369.239 513.881 369.239C529.554 369.239 543.725 375.155 554.518 384.826C561.462 391.024 566.906 398.817 570.472 407.643C579.669 396 593.84 388.582 609.701 388.582C629.879 388.582 647.241 400.601 655.218 417.878C662.632 402.103 678.587 391.211 697.075 391.211C719.599 391.211 738.369 407.362 742.498 428.77C751.32 420.695 763.52 416.188 776.847 417.878C791.394 419.662 804.063 429.709 810.351 442.948C815.044 452.808 815.231 462.009 813.26 470.366C813.26 470.366 812.604 480.413 811.008 487.08L810.633 487.737C842.635 492.244 867.787 517.784 871.823 549.991C872.198 547.08 864.972 547.831 864.972 544.826C864.972 538.066 864.033 531.587 862.25 525.39C871.823 518.817 890.874 511.211 903.356 511.211C908.048 511.211 912.553 511.775 916.964 512.714L917.34 512.244C927.194 496.188 945.119 493.089 954.222 493.089C970.271 493.089 984.16 501.916 991.575 514.873C998.238 509.615 1007.25 507.268 1016.73 509.803C1025.45 512.15 1032.77 519.005 1035.59 527.549C1037.75 533.934 1037.56 540.132 1035.78 545.578C1038.5 545.014 1041.22 544.732 1044.13 544.732C1063.37 544.732 1079.61 557.315 1085.05 574.685C1091.43 571.681 1099.13 570.93 1107.1 573.559C1116.21 576.563 1123.34 584.357 1125.69 593.653C1130.66 613.183 1116.02 630.648 1097.34 630.648C1093.4 630.648 1089.74 629.897 1086.27 628.488C1086.27 640.789 1076.23 650.742 1063.93 650.742C1056.89 650.742 1050.61 647.455 1046.48 642.385C1043.75 660.413 1028.18 674.31 1009.41 674.31C994.484 674.31 981.533 665.578 975.526 652.901C969.52 665.578 956.569 674.31 941.647 674.31C932.074 674.31 914.524 672.714 906.641 658.066L906.453 657.784C903.356 679.944 886.088 697.596 864.127 701.164C861.405 701.634 858.59 701.822 855.68 701.822C839.163 701.822 816.545 687.549 807.16 675.343L806.691 674.686C801.905 680.225 795.898 684.826 788.766 688.019C770.371 696.188 749.818 692.714 735.272 680.695C734.802 682.009 734.333 683.324 733.864 684.639C724.479 708.582 701.204 725.484 673.988 725.484C669.202 725.484 664.509 724.92 659.91 723.887C656.72 723.23 653.716 722.291 650.713 721.07L650.995 722.854C650.995 724.639 650.807 726.329 650.526 728.019C646.302 753.371 615.332 763.887 594.31 749.146C576.948 736.939 575.164 728.019 575.634 719.662C567.844 722.103 559.492 723.418 550.951 723.418C544.757 723.418 538.657 722.667 532.838 721.446C509.564 716.282 489.949 701.258 478.499 681.07L477.279 681.634H477.186Z" fill="#E6E8EA"/><path d="M238.809 603.418C225.389 603.418 213.845 611.118 208.214 622.385C211.499 607.737 224.169 596.657 239.466 595.718C237.401 578.817 222.949 565.672 205.493 565.672C186.629 565.672 171.238 580.977 171.238 599.944C171.238 602.103 171.425 604.263 171.801 606.329C162.51 611.587 156.222 621.634 156.222 633.089C156.222 650.085 170.018 663.794 186.91 663.794C195.545 663.794 203.334 660.226 208.965 654.498C214.878 664.92 225.952 671.963 238.809 671.963C255.139 671.963 268.747 660.507 272.22 645.296C272.783 642.855 273.064 640.319 273.064 637.784C273.064 618.911 257.767 603.512 238.809 603.512V603.418Z" fill="#E6E8EA"/><path d="M52.5175 628.582C61.6399 628.582 69.035 621.183 69.035 612.056C69.035 602.929 61.6399 595.531 52.5175 595.531C43.3951 595.531 36 602.929 36 612.056C36 621.183 43.3951 628.582 52.5175 628.582Z" fill="#E6E8EA"/><path d="M122.342 563.418C137.425 563.418 149.652 551.185 149.652 536.094C149.652 521.003 137.425 508.77 122.342 508.77C107.259 508.77 95.0317 521.003 95.0317 536.094C95.0317 551.185 107.259 563.418 122.342 563.418Z" fill="#E6E8EA"/><path d="M371.043 640.225C361.471 640.225 353.587 632.432 353.587 622.761C353.587 613.089 361.377 605.296 371.043 605.296C380.71 605.296 388.499 613.089 388.499 622.761C388.499 632.432 380.71 640.225 371.043 640.225Z" stroke="#003B2F" stroke-width="3" stroke-linecap="round" stroke-linejoin="round"/><path d="M440.584 408.301C434.765 403.887 427.445 401.258 419.562 401.258C403.232 401.258 389.53 412.432 385.682 427.549C378.643 423.981 370.666 422.009 362.22 422.009C333.408 422.009 310.04 445.39 310.04 474.216C310.04 485.108 313.418 495.249 319.143 503.606C293.71 508.676 274.564 531.024 274.564 557.972C274.564 579.756 287.14 598.723 305.535 607.737C300.091 616.188 296.901 626.141 296.901 636.939C296.901 666.704 321.02 690.836 350.77 690.836" stroke="#003B2F" stroke-width="3" stroke-linecap="round" stroke-linejoin="round"/><path d="M813.167 470.179C813.918 466.986 814.387 463.7 814.387 460.319C814.387 436.563 795.148 417.315 771.404 417.315C760.236 417.315 750.1 421.634 742.498 428.582C738.369 407.174 719.599 391.024 697.075 391.024C678.493 391.024 662.632 401.916 655.218 417.69C647.335 400.413 629.973 388.394 609.701 388.394C593.747 388.394 579.576 395.812 570.472 407.456C567 398.629 561.463 390.836 554.518 384.639C543.725 374.967 529.46 369.052 513.881 369.052C480.283 369.052 452.973 396.282 452.973 429.991C452.973 440.601 455.694 450.554 460.387 459.193" stroke="#003B2F" stroke-width="3" stroke-linecap="round" stroke-linejoin="round"/><path d="M584.267 534.967C584.08 532.244 583.892 529.521 583.892 526.798C583.892 474.967 625.843 432.995 677.648 432.995C713.029 432.995 743.905 452.62 759.86 481.634" stroke="#003B2F" stroke-width="3" stroke-linecap="round" stroke-linejoin="round"/><path d="M737.149 526.235C738.463 523.606 740.058 521.071 741.748 518.535C753.573 501.258 771.592 490.836 790.737 488.019" stroke="#003B2F" stroke-width="3" stroke-linecap="round" stroke-linejoin="round"/><path d="M871.635 549.897C867.224 514.404 837.005 486.986 800.31 486.986" stroke="#003B2F" stroke-width="3" stroke-linecap="round" stroke-linejoin="round"/><path d="M959.01 549.521C950.376 527.08 928.697 511.118 903.17 511.118C890.688 511.118 879.144 514.967 869.572 521.446" stroke="#003B2F" stroke-width="3" stroke-linecap="round" stroke-linejoin="round"/><path d="M962.294 545.484C970.177 536.751 981.533 531.211 994.203 531.211C1017.95 531.211 1037.19 550.46 1037.19 574.216" stroke="#003B2F" stroke-width="3" stroke-linecap="round" stroke-linejoin="round"/><path d="M1097.16 630.742C1113.39 630.742 1126.53 617.596 1126.53 601.352C1126.53 585.108 1113.39 571.963 1097.16 571.963C1092.74 571.963 1088.62 572.996 1084.86 574.686C1079.32 557.315 1063.09 544.733 1043.94 544.733C1041.13 544.733 1038.31 545.014 1035.59 545.578C1036.44 542.855 1037 539.944 1037 536.845C1037 521.258 1024.42 508.676 1008.84 508.676C1002.27 508.676 996.174 510.93 991.387 514.78C983.973 501.728 970.084 492.996 954.035 492.996C945.026 492.996 936.579 495.812 929.728 500.601" stroke="#003B2F" stroke-width="3" stroke-linecap="round" stroke-linejoin="round"/><path d="M650.995 722.948C621.151 717.409 598.439 691.117 598.439 659.662C598.439 624.075 627.251 595.249 662.82 595.249C667.606 595.249 672.299 595.812 676.897 596.845" stroke="#003B2F" stroke-width="3" stroke-linecap="round" stroke-linejoin="round"/><path d="M588.585 566.423C547.291 546.329 497.551 563.512 477.467 604.827C460.105 640.507 470.616 682.573 500.46 706.235C505.153 709.991 510.315 713.277 515.852 716" stroke="#003B2F" stroke-width="3" stroke-linecap="round" stroke-linejoin="round"/><path d="M424.819 450.272C455.192 450.272 479.815 425.637 479.815 395.249C479.815 364.86 455.192 340.225 424.819 340.225C394.446 340.225 369.823 364.86 369.823 395.249C369.823 425.637 394.446 450.272 424.819 450.272Z" fill="#003B2F"/><path d="M411.774 341.727C382.305 348.958 364.192 378.723 371.419 408.3C378.645 437.878 408.395 455.906 437.958 448.676C467.52 441.446 485.54 411.681 478.313 382.103C471.087 352.526 441.336 334.497 411.774 341.727ZM449.408 411.774L432.702 408.394C429.699 407.737 426.414 408.582 423.974 410.554L410.742 421.258L417.311 402.291L384.37 382.385L418.906 383.512C420.971 383.512 422.848 383.136 424.631 382.103L454.757 365.202L434.767 398.066L449.408 411.774Z" fill="#03FC9D"/><path d="M426.789 392.901L444.996 374.685L424.349 387.549C423.504 388.113 422.566 388.3 421.533 388.206L397.32 386.329L421.909 394.028C423.692 394.591 425.381 394.122 426.695 392.807L426.789 392.901Z" fill="#03FC9D"/><path d="M427.353 395.53C426.133 396.845 424.444 397.314 422.849 396.657L396.195 386.61L421.629 401.164L412.994 417.69L424.632 404.263C425.758 402.76 427.635 402.291 429.324 403.136L445.842 409.709L430.544 399.005L446.405 374.31L427.447 395.53H427.353Z" fill="#03FC9D"/><path d="M424.537 449.239C454.91 449.239 479.533 424.604 479.533 394.216C479.533 363.827 454.91 339.192 424.537 339.192C394.164 339.192 369.541 363.827 369.541 394.216C369.541 424.604 394.164 449.239 424.537 449.239Z" stroke="#003B2F" stroke-width="3" stroke-linecap="round" stroke-linejoin="round"/><path d="M265.821 660.178C302.518 660.178 332.267 630.415 332.267 593.7C332.267 556.984 302.518 527.221 265.821 527.221C229.124 527.221 199.376 556.984 199.376 593.7C199.376 630.415 229.124 660.178 265.821 660.178Z" fill="#003B2F"/><path d="M247.707 529.756C212.42 539.803 191.867 576.61 201.909 611.915C211.951 647.22 248.74 667.784 284.027 657.737C319.314 647.69 339.868 610.882 329.826 575.577C319.784 540.272 282.995 519.709 247.707 529.756ZM296.321 612.667L275.956 609.286C272.296 608.629 268.354 609.756 265.539 612.291L249.96 625.906L257.092 602.713L216.455 580.178L258.312 579.99C260.752 579.99 263.005 579.333 265.163 578.019L300.826 556.235L278.115 596.798L296.321 612.76V612.667Z" fill="#03FC9D"/><path d="M268.168 590.789L289.378 567.972L265.07 584.404C264.038 585.061 262.912 585.437 261.786 585.343L232.411 584.122L262.443 592.385C264.601 592.948 266.666 592.385 268.168 590.789Z" fill="#03FC9D"/><path d="M268.823 593.981C267.415 595.671 265.444 596.235 263.38 595.484L230.814 584.592L262.16 601.024L252.493 621.399L265.914 604.686C267.228 602.902 269.48 602.244 271.545 603.089L291.816 610.226L272.859 598.019L290.878 567.503L268.917 593.981H268.823Z" fill="#03FC9D"/><path d="M265.445 658.958C302.142 658.958 331.891 629.194 331.891 592.479C331.891 555.764 302.142 526 265.445 526C228.749 526 199 555.764 199 592.479C199 629.194 228.749 658.958 265.445 658.958Z" stroke="#003B2F" stroke-width="3" stroke-linecap="round" stroke-linejoin="round"/><path d="M784.681 593.136C799.826 588.972 808.726 573.313 804.561 558.161C800.395 543.008 784.74 534.1 769.595 538.264C754.45 542.427 745.55 558.086 749.716 573.239C753.882 588.391 769.536 597.3 784.681 593.136Z" fill="#003B2F"/><path d="M769.595 538.264C754.523 542.407 745.541 558.055 749.716 573.239C753.89 588.423 769.505 597.308 784.681 593.136C799.858 588.964 808.735 573.345 804.561 558.161C800.386 542.976 784.772 534.091 769.595 538.264ZM790.076 573.857L781.427 572.292C779.894 572.038 778.219 572.498 776.927 573.53L770.294 579.295L773.433 569.422L756.113 559.654L773.917 559.715C774.945 559.77 775.992 559.482 776.847 558.909L792.118 549.755L782.225 567.004L789.971 573.886L790.076 573.857Z" fill="#03FC9D"/><path d="M778.134 564.412L787.31 554.793L776.834 561.729C776.834 561.729 775.92 562.092 775.368 562.131L762.819 561.527L775.622 565.103C776.603 565.396 777.441 565.166 778.134 564.412Z" fill="#03FC9D"/><path d="M778.403 565.802C777.815 566.527 776.977 566.758 776.101 566.435L762.19 561.7L775.525 568.846L771.279 577.56L777.09 570.443C777.65 569.614 778.592 569.355 779.497 569.782L788.13 572.927L780.026 567.609L787.833 554.65L778.299 565.831L778.403 565.802Z" fill="#03FC9D"/><path d="M784.508 592.508C799.653 588.344 808.554 572.685 804.388 557.532C800.222 542.38 784.567 533.472 769.422 537.635C754.277 541.799 745.377 557.458 749.543 572.611C753.709 587.763 769.363 596.671 784.508 592.508Z" stroke="#003B2F" stroke-width="3" stroke-linecap="round" stroke-linejoin="round"/><path d="M564.87 656.578C578.45 656.578 589.459 645.563 589.459 631.977C589.459 618.39 578.45 607.376 564.87 607.376C551.29 607.376 540.282 618.39 540.282 631.977C540.282 645.563 551.29 656.578 564.87 656.578Z" fill="#003B2F"/><path d="M553.608 610.193C541.595 616.39 536.809 631.225 543.003 643.244C549.197 655.263 564.025 660.052 576.038 653.855C588.05 647.657 592.837 632.822 586.643 620.803C580.449 608.784 565.62 603.995 553.608 610.193ZM577.258 636.671L569.656 636.953C568.248 636.953 566.934 637.704 566.09 638.831L561.491 644.84L562.429 635.92L546.1 630.756L561.209 627.657C562.054 627.47 562.899 627.094 563.556 626.437L574.911 615.92L569.656 632.258L577.445 636.671H577.258Z" fill="#03FC9D"/><path d="M565.433 630.756L571.44 620.99L563.838 628.69C563.838 628.69 563.181 629.16 562.712 629.253L552.013 630.944L563.463 631.695C564.307 631.695 564.964 631.413 565.433 630.662V630.756Z" fill="#03FC9D"/><path d="M565.996 631.883C565.621 632.54 564.964 632.915 564.119 632.822L551.543 631.225L564.119 634.887L562.055 642.962L565.715 635.92C566.09 635.169 566.841 634.793 567.686 634.887L575.569 636.014L567.779 633.009L572.096 620.709L566.09 631.883H565.996Z" fill="#03FC9D"/><path d="M564.589 656.202C578.168 656.202 589.177 645.188 589.177 631.601C589.177 618.014 578.168 607 564.589 607C551.009 607 540 618.014 540 631.601C540 645.188 551.009 656.202 564.589 656.202Z" stroke="#003B2F" stroke-width="3" stroke-linecap="round" stroke-linejoin="round"/><path d="M1015.35 634.679C1027.69 629.018 1033.11 614.418 1027.44 602.067C1021.78 589.717 1007.18 584.294 994.838 589.955C982.494 595.615 977.078 610.216 982.742 622.566C988.405 634.916 1003 640.339 1015.35 634.679Z" fill="#003B2F"/><path d="M994.838 589.955C982.554 595.588 977.067 610.19 982.742 622.566C988.417 634.942 1002.98 640.351 1015.35 634.679C1027.72 629.006 1033.12 614.443 1027.44 602.067C1021.77 589.692 1007.21 584.282 994.838 589.955ZM1017.27 617.477L1009.67 617.345C1008.33 617.342 1006.96 617.968 1006 619.027L1001.14 624.87L1002.45 616.008L986.31 610.083L1001.51 607.658C1002.4 607.562 1003.25 607.171 1003.9 606.563L1015.66 596.626L1009.61 612.722L1017.18 617.516L1017.27 617.477Z" fill="#03FC9D"/><path d="M1005.68 611.119L1012.17 601.634L1004.19 609.01C1004.19 609.01 1003.47 609.447 1003 609.557L992.208 610.788L1003.63 612.057C1004.51 612.171 1005.19 611.858 1005.68 611.119Z" fill="#03FC9D"/><path d="M1006.19 612.228C1005.79 612.929 1005.1 613.242 1004.31 613.089L991.781 610.984L1004.15 615.226L1001.74 623.253L1005.71 616.371C1006.07 615.585 1006.84 615.233 1007.67 615.472L1015.48 616.955L1007.82 613.544L1012.68 601.399L1006.1 612.267L1006.19 612.228Z" fill="#03FC9D"/><path d="M1015.15 634.252C1027.49 628.591 1032.91 613.991 1027.25 601.641C1021.58 589.291 1006.99 583.868 994.642 589.528C982.299 595.189 976.883 609.789 982.546 622.139C988.209 634.489 1002.81 639.912 1015.15 634.252Z" stroke="#003B2F" stroke-width="3" stroke-linecap="round" stroke-linejoin="round"/><path d="M286.055 186.4C298.399 180.739 303.815 166.139 298.151 153.789C292.488 141.438 277.89 136.015 265.546 141.676C253.202 147.336 247.787 161.937 253.45 174.287C259.113 186.637 273.711 192.06 286.055 186.4Z" fill="#003B2F"/><path d="M265.546 141.676C253.262 147.309 247.775 161.911 253.45 174.287C259.125 186.663 273.685 192.072 286.055 186.4C298.425 180.727 303.826 166.164 298.151 153.789C292.476 141.413 277.916 136.004 265.546 141.676ZM287.975 169.198L280.378 169.066C279.034 169.063 277.669 169.689 276.71 170.748L271.852 176.591L273.157 167.729L257.018 161.804L272.219 159.379C273.104 159.283 273.957 158.892 274.607 158.284L286.364 148.347L280.323 164.443L287.89 169.237L287.975 169.198Z" fill="#03FC9D"/><path d="M276.386 162.84L282.878 153.355L274.903 160.731C274.903 160.731 274.174 161.168 273.709 161.279L262.916 162.509L274.339 163.779C275.217 163.892 275.899 163.579 276.386 162.84Z" fill="#03FC9D"/><path d="M276.895 163.949C276.493 164.65 275.811 164.963 275.018 164.81L262.489 162.705L274.862 166.947L272.452 174.974L276.42 168.092C276.782 167.307 277.55 166.954 278.382 167.193L286.186 168.676L278.531 165.265L283.389 153.121L276.81 163.988L276.895 163.949Z" fill="#03FC9D"/><path d="M285.859 185.973C298.203 180.313 303.619 165.712 297.956 153.362C292.292 141.012 277.695 135.589 265.351 141.249C253.007 146.91 247.591 161.51 253.254 173.86C258.918 186.21 273.515 191.633 285.859 185.973Z" stroke="#003B2F" stroke-width="3" stroke-linecap="round" stroke-linejoin="round"/><path d="M1424.03 571.963L1387.71 554.873C1381.15 551.775 1373.26 551.775 1366.69 554.873L1330.37 571.963L1355.99 532.526L1291.99 468.77L1370.26 490.554C1374.86 491.869 1379.46 491.869 1384.05 490.554L1462.32 468.77L1398.32 532.526L1423.94 571.963H1424.03Z" fill="#003B2F"/><path d="M1383.02 516L1434.73 484.639L1380.49 502.479C1378.24 503.23 1375.98 503.23 1373.82 502.479L1319.58 484.639L1371.29 516C1375.04 518.254 1379.17 518.254 1382.93 516H1383.02Z" fill="#03FC9D"/><path d="M1382.74 522.479C1379.27 524.827 1375.23 524.827 1371.76 522.479L1316.58 484.733L1366.41 532.15L1337.51 565.014L1371.57 540.789C1374.95 538.066 1379.55 538.066 1383.02 540.789L1417.09 565.014L1388.19 532.15L1438.02 484.733L1382.84 522.479H1382.74Z" fill="#03FC9D"/><path d="M495 281L516.337 293.387" stroke="#003B2F" stroke-width="3" stroke-linecap="round" stroke-linejoin="round"/><path d="M537.673 281L525.196 288.233" stroke="#003B2F" stroke-width="3" stroke-linecap="round" stroke-linejoin="round"/><path d="M516.341 293.386V318.25" stroke="#003B2F" stroke-width="3" stroke-linecap="round" stroke-linejoin="round"/><path d="M811.383 167.946H871.055" stroke="#003B2F" stroke-width="3" stroke-linecap="round" stroke-linejoin="round"/><path d="M173.383 345.946H233.055" stroke="#003B2F" stroke-width="3" stroke-linecap="round" stroke-linejoin="round"/><path d="M766 167.946H781.099" stroke="#003B2F" stroke-width="3" stroke-linecap="round" stroke-linejoin="round"/><path d="M128 345.946H143.099" stroke="#003B2F" stroke-width="3" stroke-linecap="round" stroke-linejoin="round"/><path d="M819.974 125H974.67" stroke="#03FC9D" stroke-width="3" stroke-linecap="round" stroke-linejoin="round"/><path d="M181.974 303H336.67" stroke="#03FC9D" stroke-width="3" stroke-linecap="round" stroke-linejoin="round"/><path d="M166.647 194V216.422" stroke="#003B2F" stroke-width="3" stroke-linecap="round" stroke-linejoin="round"/><path d="M166.647 232.787V255.209" stroke="#003B2F" stroke-width="3" stroke-linecap="round" stroke-linejoin="round"/><path d="M136 224.65H158.422" stroke="#003B2F" stroke-width="3" stroke-linecap="round" stroke-linejoin="round"/><path d="M174.875 224.65H197.298" stroke="#003B2F" stroke-width="3" stroke-linecap="round" stroke-linejoin="round"/><path d="M1396.87 131.235H1424.67C1424.67 131.235 1424.92 130.927 1424.67 130.927C1414.25 128.954 1406.85 118.289 1410.43 106.761C1412.83 98.9318 1420.66 94 1428.8 94H1521.52C1531.75 94 1540.07 102.261 1540.14 112.433C1540.14 112.556 1540.2 112.618 1540.32 112.618H1567.57C1577.74 112.618 1586.93 120.262 1587.42 130.372C1587.91 141.037 1579.41 149.853 1568.8 149.853H1507.83C1507.83 149.853 1507.65 149.915 1507.65 150.038C1507.59 160.272 1499.26 168.471 1489.03 168.471H1395.63C1385.09 168.471 1376.58 159.655 1377.02 148.99C1377.45 138.325 1386.63 131.235 1396.87 131.235Z" fill="#E6E8EA"/><path d="M1659.86 140.668H1497.47C1479.57 140.668 1465.05 155.172 1465.05 173.064C1465.05 190.955 1479.57 205.46 1497.47 205.46H1659.86C1677.76 205.46 1692.28 190.955 1692.28 173.064C1692.28 155.172 1677.76 140.668 1659.86 140.668Z" fill="#03FC9D"/><path d="M1242 691H1281" stroke="#003B2F" stroke-width="3" stroke-linecap="round" stroke-linejoin="round"/><path d="M1567 368H1606" stroke="#03FC9D" stroke-width="3" stroke-linecap="round" stroke-linejoin="round"/><path d="M1079 669H1364" stroke="#03FC9D" stroke-width="3" stroke-linecap="round" stroke-linejoin="round"/><path d="M1214 352H1499" stroke="#03FC9D" stroke-width="3" stroke-linecap="round" stroke-linejoin="round"/><path d="M1331 691H1489" stroke="#003B2F" stroke-width="3" stroke-linecap="round" stroke-linejoin="round"/><path d="M1397 368H1555" stroke="#03FC9D" stroke-width="3" stroke-linecap="round" stroke-linejoin="round"/><path d="M1019 236H1224" stroke="#03FC9D" stroke-width="3" stroke-linecap="round" stroke-linejoin="round"/><path d="M1200 264H1315" stroke="#003B2F" stroke-width="3" stroke-linecap="round" stroke-linejoin="round"/><path d="M463.857 165H523.143C529.691 165 535 159.627 535 153C535 146.373 529.691 141 523.143 141H463.857C457.309 141 452 146.373 452 153C452 159.627 457.309 165 463.857 165Z" fill="#03FC9D"/><path d="M496.26 147H592.74C603.377 147 612 138.27 612 127.5C612 116.73 603.377 108 592.74 108L496.26 108C485.623 108 477 116.73 477 127.5C477 138.27 485.623 147 496.26 147Z" fill="#03FC9D"/><path d="M1496.75 269.877L1481.88 255L1467 269.877L1481.88 284.754L1496.75 269.877Z" stroke="#003B2F" stroke-width="3" stroke-linecap="round" stroke-linejoin="round"/><path d="M958.89 722.886L940.886 712L930 730.004L948.004 740.89L958.89 722.886Z" stroke="#003B2F" stroke-width="3" stroke-linecap="round" stroke-linejoin="round"/></g><defs><clipPath id="clip0_269_473"><rect width="1675.05" height="857" fill="white" transform="translate(0.109863)"/></clipPath></defs></svg>