<?xml version="1.0" encoding="UTF-8"?><svg id="Layer_1" data-name="Layer 1" xmlns="http://www.w3.org/2000/svg" viewBox="0 0 192 108"><defs><style>.cls-1 {
        stroke: #00ff94;
      }

      .cls-1, .cls-2, .cls-3 {
        fill: none;
        stroke-linecap: round;
        stroke-linejoin: round;
      }

      .cls-1, .cls-2, .cls-3, .cls-4, .cls-5 {
        stroke-width: .33px;
      }

      .cls-2 {
        stroke: #003c2e;
      }

      .cls-3 {
        stroke: #163b2f;
      }

      .cls-6 {
        fill: #00ff94;
      }

      .cls-7 {
        fill: #003d2e;
      }

      .cls-8, .cls-5 {
        fill: #e3e7e3;
      }

      .cls-4 {
        fill: #fff;
      }

      .cls-4, .cls-5 {
        stroke: #003d2e;
        stroke-miterlimit: 10;
      }</style></defs><line class="cls-2" x1="23.66" y1="57.98" x2="30.48" y2="57.98"/><line class="cls-2" x1="18.48" y1="57.98" x2="20.2" y2="57.98"/><line class="cls-1" x1="24.65" y1="53.07" x2="42.32" y2="53.07"/><g><line class="cls-3" x1="8.41" y1="51.73" x2="10.02" y2="53.34"/><line class="cls-3" x1="11.2" y1="54.52" x2="12.81" y2="56.13"/><line class="cls-3" x1="8.41" y1="56.13" x2="10.02" y2="54.52"/><line class="cls-3" x1="11.2" y1="53.34" x2="12.81" y2="51.73"/></g><circle class="cls-2" cx="178.38" cy="60.48" r="2.06"/><line class="cls-2" x1="170.52" y1="62.85" x2="167.13" y2="62.85"/><line class="cls-1" x1="184.7" y1="55.25" x2="160.17" y2="55.25"/><line class="cls-2" x1="162.75" y1="62.83" x2="149.04" y2="62.83"/><path class="cls-8" d="M31.83,93.48h-4.73c1.5,0,2.71-1.07,2.71-2.39s-1.21-2.39-2.71-2.39H13.52c-1.5,0-2.71,1.07-2.71,2.39H6.64c-1.5,0-2.71,1.07-2.71,2.39s1.21,2.39,2.71,2.39H15.54c0,1.32,1.21,2.39,2.71,2.39h13.58c1.5,0,2.71-1.07,2.71-2.39s-1.21-2.39-2.71-2.39Z"/><line class="cls-2" x1="23.58" y1="91.78" x2="26.97" y2="91.78"/><line class="cls-1" x1="18.68" y1="83.02" x2="43.22" y2="83.02"/><line class="cls-2" x1="31.34" y1="91.76" x2="45.06" y2="91.76"/><g><line class="cls-3" x1="6.42" y1="80.77" x2="6.42" y2="83.06"/><line class="cls-3" x1="6.42" y1="84.73" x2="6.42" y2="87.02"/><line class="cls-3" x1="3.29" y1="83.9" x2="5.58" y2="83.9"/><line class="cls-3" x1="7.25" y1="83.9" x2="9.54" y2="83.9"/></g><line class="cls-2" x1="157.33" y1="18.44" x2="150.31" y2="18.44"/><line class="cls-2" x1="162.66" y1="18.44" x2="160.9" y2="18.44"/><line class="cls-2" x1="174.82" y1="33.5" x2="171.35" y2="33.5"/><line class="cls-1" x1="189.33" y1="26.81" x2="164.22" y2="26.81"/><line class="cls-2" x1="166.87" y1="33.49" x2="152.83" y2="33.49"/><g><line class="cls-3" x1="173.03" y1="12.89" x2="171.37" y2="14.32"/><line class="cls-3" x1="170.16" y1="15.36" x2="168.5" y2="16.79"/><line class="cls-3" x1="173.03" y1="16.79" x2="171.37" y2="15.36"/><line class="cls-3" x1="170.16" y1="14.32" x2="168.5" y2="12.89"/></g><circle class="cls-2" cx="41.92" cy="20.81" r="2.11"/><rect class="cls-6" x="22.56" y="25.63" width="20.65" height="5.89" rx="2.94" ry="2.94"/><rect class="cls-6" x="3.26" y="17.36" width="33.82" height="9.65" rx="4.08" ry="4.08"/><path class="cls-8" d="M153.49,93.87h4.84c-1.53,0-2.77-1.24-2.77-2.77s1.24-2.77,2.77-2.77h13.9c1.53,0,2.77,1.24,2.77,2.77h4.27c1.53,0,2.77,1.24,2.77,2.77s-1.24,2.77-2.77,2.77h-9.1c0,1.53-1.24,2.77-2.77,2.77h-13.9c-1.53,0-2.77-1.24-2.77-2.77s1.24-2.77,2.77-2.77Z"/><path class="cls-6" d="M173.91,91.01h18.05c-.06,3.27,0,6.45,.05,9.65h-18.1c-2.66,0-4.82-2.16-4.82-4.82s2.16-4.82,4.82-4.82Z"/><g><path class="cls-5" d="M49.23,54.86h92.51l-3.46-14.83c-.63-2.71-3.05-4.64-5.84-4.64H58.53c-2.79,0-5.21,1.92-5.84,4.64l-3.46,14.83Z"/><path class="cls-5" d="M49.23,54.86h92.51v29.85c0,3.08-2.49,5.57-5.57,5.57H54.8c-3.08,0-5.57-2.49-5.57-5.57v-29.85Z"/><polygon class="cls-7" points="69.35 21.77 69.35 41.36 121.63 41.36 121.63 22.29 69.35 21.77"/><rect class="cls-4" x="72.85" y="13.85" width="45.28" height="27.25"/><rect class="cls-7" x="67.92" y="76.14" width="55.14" height="14.79"/><polygon class="cls-4" points="72.85 83.53 118.13 83.53 124.76 98.46 66.29 98.35 72.85 83.53"/><g><path class="cls-6" d="M100.1,93.65c.12-.08,.26-.12,.39-.12l12.12,.17c.22,0,.25,.24,.04,.37l-3.15,2.04c-.12,.08-.26,.12-.39,.12l-12.12-.17c-.14,0-.21-.1-.17-.22,.02-.06,.07-.11,.13-.15l3.14-2.04h0Z"/><path class="cls-6" d="M102.96,85.74c.12-.08,.26-.12,.39-.12l12.12,.17c.22,0,.25,.24,.04,.37l-3.15,2.04c-.12,.08-.26,.12-.39,.12l-12.12-.17c-.14,0-.21-.1-.17-.22,.02-.06,.07-.11,.13-.15l3.14-2.04h0Z"/><path class="cls-6" d="M111.78,89.84c-.06-.08-.17-.13-.3-.13l-12.12-.17c-.14,0-.28,.09-.33,.21-.02,.06-.01,.11,.02,.15l1.64,2.11c.06,.08,.17,.13,.3,.13l12.12,.17c.22,0,.41-.23,.31-.36l-1.64-2.11h0Z"/></g><g><path class="cls-6" d="M77.68,93.65c.12-.08,.26-.12,.39-.12l12.12,.17c.22,0,.25,.24,.04,.37l-3.15,2.04c-.12,.08-.26,.12-.39,.12l-12.12-.17c-.14,0-.21-.1-.17-.22,.02-.06,.07-.11,.13-.15l3.14-2.04h0Z"/><path class="cls-6" d="M80.54,85.74c.12-.08,.26-.12,.39-.12l12.12,.17c.22,0,.25,.24,.04,.37l-3.15,2.04c-.12,.08-.26,.12-.39,.12l-12.12-.17c-.14,0-.21-.1-.17-.22,.02-.06,.07-.11,.13-.15l3.14-2.04h0Z"/><path class="cls-6" d="M89.36,89.84c-.06-.08-.17-.13-.3-.13l-12.12-.17c-.14,0-.28,.09-.33,.21-.02,.06-.01,.11,.02,.15l1.64,2.11c.06,.08,.17,.13,.3,.13l12.12,.17c.22,0,.41-.23,.31-.36l-1.64-2.11h0Z"/></g><g><path class="cls-7" d="M89.75,69.43c.09-.09,.21-.14,.34-.14h11.84c.22,0,.32,.26,.17,.41l-2.34,2.34c-.09,.09-.21,.14-.34,.14h-11.84c-.13,0-.24-.11-.24-.24,0-.06,.03-.13,.07-.17l2.34-2.34h0Z"/><path class="cls-7" d="M89.75,60.52c.09-.09,.21-.14,.34-.14h11.84c.22,0,.32,.26,.17,.41l-2.34,2.34c-.09,.09-.21,.14-.34,.14h-11.84c-.13,0-.24-.11-.24-.24,0-.06,.03-.13,.07-.17l2.34-2.34h0Z"/><path class="cls-7" d="M99.76,64.98c-.09-.09-.21-.14-.34-.14h-11.84c-.13,0-.24,.11-.24,.24,0,.06,.03,.13,.07,.17l2.34,2.34c.09,.09,.21,.14,.34,.14h11.84c.22,0,.32-.26,.17-.41l-2.34-2.34h0Z"/></g></g></svg>