<svg width="1676" height="858" viewBox="0 0 1676 858" fill="none" xmlns="http://www.w3.org/2000/svg"><g clip-path="url(#clip0_694_1131)"><path d="M1059.35 565.008L837.249 693.161L616.113 564.285L839.739 434.044L1059.35 565.008Z" fill="#E6E8EA" stroke="#003B2F" stroke-width="2.40889" stroke-linecap="round" stroke-linejoin="round"/><path d="M837.33 763.34V692.037L1059.51 564.687V632.216L837.33 763.34Z" fill="#03FC9D" stroke="#003B2F" stroke-width="2.40889" stroke-linecap="round" stroke-linejoin="round"/><path d="M837.331 763.339V692.036L616.997 563.802V632.857L837.331 763.339Z" fill="white" stroke="#003B2F" stroke-width="2.40889" stroke-linecap="round" stroke-linejoin="round"/><path d="M1060.15 408.59L837.973 536.663L616.836 407.868L840.542 277.547L1060.15 408.59Z" fill="white" stroke="#003B2F" stroke-width="2.40889" stroke-linecap="round" stroke-linejoin="round"/><path d="M838.053 606.842V535.619L1060.23 408.189V475.799L838.053 606.842Z" fill="#03FC9D" stroke="#003B2F" stroke-width="2.40889" stroke-linecap="round" stroke-linejoin="round"/><path d="M838.054 606.842V535.619L617.801 407.385V476.44L838.054 606.842Z" fill="white" stroke="#003B2F" stroke-width="2.40889" stroke-linecap="round" stroke-linejoin="round"/><path d="M837.973 412.847C887.73 412.847 928.066 407.059 928.066 399.919C928.066 392.78 887.73 386.992 837.973 386.992C788.216 386.992 747.881 392.78 747.881 399.919C747.881 407.059 788.216 412.847 837.973 412.847Z" fill="#E6E8EA"/><path d="M837.813 328.374L836.688 322.914L747.881 270.721L838.375 221.178L928.066 270.721L837.813 328.374Z" fill="white"/><path d="M747.88 242.86C747.88 242.86 747.961 242.86 748.041 242.86C748.683 242.378 749.326 242.057 750.048 241.816L761.852 236.436L772.21 231.698L784.174 226.238L794.292 221.661L806.336 216.201L816.534 211.544L828.418 206.164L837.17 202.149C837.17 202.149 837.732 201.748 838.133 201.909C838.133 201.909 838.133 202.069 838.214 202.149C838.214 202.471 838.214 202.792 838.214 203.193C838.214 233.706 838.214 264.299 838.214 294.892C838.214 295.374 838.214 295.775 837.973 296.177C835.243 294.571 832.513 292.965 829.783 291.439L760.085 250.247L747.72 242.94V242.779L747.88 242.86Z" fill="#003B2F"/><path d="M838.054 296.256V201.988C838.054 201.988 837.973 201.346 838.054 201.025V94.8729C838.054 94.4714 837.813 93.9896 838.375 93.6685C840.302 96.8803 842.309 100.092 844.236 103.304L927.745 241.976C927.745 241.976 928.066 242.618 928.226 242.939C927.825 243.18 927.504 242.939 927.183 242.699L920.357 239.567L906.868 233.384L893.378 227.282C888.801 225.194 884.304 223.106 879.727 221.099L866.478 215.077L852.748 208.894L839.499 202.872L839.097 202.711C839.097 202.711 838.535 202.631 838.535 203.032V294.891C838.616 295.373 838.535 295.855 838.375 296.256C838.375 296.256 838.375 296.417 838.214 296.337L838.054 296.256Z" fill="#003B2F"/><path d="M838.214 296.095V202.952C838.214 201.908 838.214 201.908 839.177 202.39L854.755 209.456C858.208 210.981 861.58 212.587 865.033 214.193L879.968 220.938L888.479 224.873L900.765 230.413L909.276 234.348L921.24 239.808L927.825 242.779C927.825 242.779 928.066 242.859 928.146 242.859C928.146 243.26 927.825 243.26 927.584 243.341L882.377 270.079L839.258 295.533C839.258 295.533 838.535 296.015 838.134 296.095H838.214Z" fill="#003B2F"/><path d="M838.215 323.717L857.084 312.556L910.481 281L927.424 271.043C927.424 271.043 927.745 270.722 928.066 270.802C928.066 271.043 927.825 271.203 927.745 271.364C898.035 313.198 868.406 354.953 838.696 396.787C838.536 397.028 838.536 397.429 838.054 397.429C837.893 397.028 837.813 396.626 837.813 396.225V325.002C837.813 324.601 837.733 324.038 838.215 323.798V323.717Z" fill="#003B2F"/><path d="M838.214 323.718C838.214 323.718 838.053 324.441 838.053 324.762V397.43C836.769 395.904 835.725 394.218 834.52 392.532C824.243 378.079 813.965 363.625 803.687 349.092L772.933 305.812L748.443 271.284L747.881 270.481C748.443 270.803 748.764 270.963 749.085 271.204L802.161 302.6L837.491 323.477C837.491 323.477 837.893 323.638 838.053 323.718" fill="#003B2F"/><path d="M838.374 93.6684C838.374 93.6684 838.294 94.2304 838.294 94.5516V200.944C838.294 200.944 838.374 201.587 838.133 201.908C838.133 201.908 837.893 201.426 837.893 201.185V95.1137C837.893 94.5516 837.893 93.9092 838.133 93.3472H838.294V93.6684H838.374Z" fill="#003B2F"/><path d="M838.054 93.3472C838.054 129.4 838.054 165.534 838.054 201.587V201.908C833.798 203.835 829.622 205.762 825.367 207.77C820.87 209.777 816.374 211.865 811.957 213.872L788.752 224.471L772.532 231.858L748.443 242.779C748.443 242.779 748.202 242.779 748.122 242.859C749.487 240.611 750.771 238.362 752.136 236.114L786.584 178.943L830.586 105.793L837.813 93.7487C837.813 93.7487 837.973 93.5078 838.134 93.3472" fill="#003B2F"/><path d="M1026.05 147.628L1006.63 128.211L987.212 147.628L1006.63 167.044L1026.05 147.628Z" stroke="#003B2F" stroke-width="3" stroke-linecap="round" stroke-linejoin="round"/><g clip-path="url(#clip1_694_1131)"><path d="M1364.39 564.687C1404.98 564.687 1437.89 531.779 1437.89 491.187C1437.89 450.594 1404.98 417.687 1364.39 417.687C1323.79 417.687 1290.89 450.594 1290.89 491.187C1290.89 531.779 1323.79 564.687 1364.39 564.687Z" fill="#03FC9D"/><path d="M1396.97 511.849C1401.29 517.637 1405.74 523.563 1410.19 529.494C1401.28 540 1390.22 546.739 1376.87 549.569C1362.03 552.665 1348 550.372 1334.38 542.83C1346.51 533.807 1358.39 524.914 1370.39 516.025C1373.09 518.584 1375.66 521.142 1378.22 523.568C1381.05 526.26 1379.97 526.398 1383.61 524.376C1388.57 521.556 1392.81 517.638 1396.02 512.924C1396.16 512.658 1396.43 512.387 1396.56 512.116C1396.43 512.116 1396.56 512.116 1396.97 511.849ZM1343.95 523.701C1340.58 526.26 1337.47 528.552 1334.37 530.978C1332.08 532.723 1329.79 534.345 1327.49 536.095C1326.55 536.904 1325.87 536.904 1324.79 535.957C1314.54 526.802 1308.07 515.483 1305.64 502.014C1303.21 488.407 1305.37 475.476 1311.84 463.22C1311.98 462.949 1312.25 462.545 1312.38 462.274C1312.38 462.14 1312.52 462.14 1312.79 462.007C1321.69 473.721 1330.73 485.444 1339.64 497.163C1339.36 497.567 1339.23 497.838 1338.96 498.109C1336.26 500.935 1333.56 503.764 1330.73 506.461C1329.92 507.269 1329.79 507.94 1330.32 508.886C1333.13 514.192 1337.1 518.796 1341.93 522.355C1342.6 522.759 1343.14 523.164 1343.95 523.701ZM1394.27 440.049C1389.95 443.145 1385.63 446.246 1381.32 449.209C1373.9 454.464 1366.48 459.848 1359.2 465.103C1358.25 465.779 1357.57 465.912 1356.77 464.965C1354.34 462.411 1351.78 460.119 1349.35 457.56C1348.67 456.885 1348 456.752 1347.05 457.156C1341.25 460.119 1336.67 464.295 1332.89 469.55C1332.62 469.816 1332.35 470.221 1332.08 470.625C1329.92 467.8 1327.9 465.237 1325.88 462.545C1323.72 459.715 1321.69 456.885 1319.67 454.193C1318.99 453.251 1318.86 452.576 1319.8 451.634C1330.19 440.182 1343 433.443 1358.39 431.835C1370.53 430.485 1382.13 432.91 1392.92 438.703C1393.33 438.969 1393.73 439.107 1394.14 439.374C1394.14 439.778 1394.14 439.916 1394.27 440.049H1394.27ZM1416.26 520.871C1413.59 517.429 1410.93 513.972 1408.3 510.499C1402.36 502.689 1396.43 494.742 1390.36 486.928C1389.55 485.849 1389.55 485.173 1390.49 484.232C1393.06 481.673 1395.49 479.114 1398.05 476.556C1398.72 475.88 1398.99 475.205 1398.45 474.263C1395.54 468.642 1391.33 463.794 1386.18 460.119C1385.77 459.848 1385.37 459.448 1384.83 459.177C1385.23 458.773 1385.64 458.502 1385.9 458.236C1391.03 454.331 1396.16 450.555 1401.28 446.65C1402.1 445.975 1402.77 445.704 1403.71 446.65C1416.53 458.236 1423.41 472.651 1424.08 490.024C1424.36 500.131 1422.06 509.69 1417.47 518.717C1416.98 519.385 1416.57 520.105 1416.26 520.871Z" fill="#003B2F"/></g><g clip-path="url(#clip2_694_1131)"><path d="M312.846 620.163C358.962 620.163 396.346 582.779 396.346 536.663C396.346 490.547 358.962 453.163 312.846 453.163C266.73 453.163 229.346 490.547 229.346 536.663C229.346 582.779 266.73 620.163 312.846 620.163Z" fill="#03FC9D"/><path d="M312.23 527.833C314.683 530.458 309.193 531.267 306.615 531.418C302.711 531.648 301.902 530.281 302.67 528.569C302.998 527.872 303.559 527.311 304.256 526.982C305.044 526.565 306.02 526.304 307.058 526.241C308.081 526.184 309.104 526.304 310.023 526.586C310.936 526.867 311.703 527.295 312.23 527.833ZM328.628 521.007C326.269 540.728 358.061 536.621 357.461 552.319C360.592 547.862 361.949 535.755 352.712 529.519C344.482 523.961 333.768 527.003 328.628 521.007ZM344.498 516.091L343.819 515.485C344.049 515.689 344.273 515.903 344.498 516.091Z" fill="#003B2F"/><path d="M354.596 526.226L354.575 526.194C354.273 525.604 353.928 525.037 353.542 524.498C352.438 522.904 350.812 521.745 348.944 521.221C347.718 520.889 346.46 520.683 345.192 520.605C343.913 520.501 342.604 520.448 341.278 520.375C338.632 520.219 335.918 519.937 333.272 519.144C331.916 518.748 330.601 518.22 329.348 517.568C328.093 516.844 326.937 515.962 325.909 514.943C323.873 512.949 322.266 510.684 320.659 508.487C319.145 506.285 317.522 504.171 315.795 502.151C314.106 500.183 312.087 498.523 309.83 497.246C307.526 496.026 305.004 495.272 302.409 495.028C305.096 494.722 307.818 495.071 310.341 496.045C312.916 497.103 315.252 498.664 317.214 500.638C318.514 501.917 319.73 503.284 320.862 504.724C329.275 502.981 336.096 504.531 341.341 507.532L341.455 507.595C343.397 508.705 345.186 510.063 346.779 511.634C347.901 512.718 348.943 513.883 349.894 515.12L349.967 515.219C353.062 519.342 354.591 523.632 354.596 526.231V526.226ZM302.55 500.132C304.47 500.408 306.432 501.16 307.695 502.59C308.958 504.025 309.423 505.893 309.783 507.668C310.086 509.04 310.32 510.444 310.868 511.749C311.135 512.385 311.526 512.939 311.855 513.539C312.126 514.04 312.617 514.489 312.805 515.021C312.839 515.097 312.852 515.18 312.843 515.263C312.833 515.345 312.802 515.424 312.752 515.491C312.079 516.221 310.273 515.412 309.59 515.083C308.414 514.511 307.358 513.719 306.479 512.751C303.74 509.766 302.325 505.465 302.409 501.551C302.431 501.076 302.475 500.602 302.55 500.132ZM334.462 536.663C329.364 550.258 352.504 559.375 343.835 573.194C352.728 569.687 356.95 559.093 353.26 550.686C350.03 543.306 340.485 540.619 334.462 536.663Z" fill="#003B2F"/><path d="M307.627 557.538C308.911 556.521 310.324 555.679 311.829 555.033C313.342 554.402 314.913 553.921 316.515 553.614C319.698 552.982 322.851 552.826 325.496 551.709C326.813 551.166 328.017 550.382 329.045 549.397C330.052 548.421 330.82 547.205 331.294 545.848C331.777 544.416 331.972 542.904 331.869 541.396C331.75 539.777 331.4 538.183 330.83 536.663C332.009 537.952 332.865 539.523 333.335 541.24C333.794 542.962 333.846 544.768 333.481 546.511C333.064 548.358 332.176 550.049 330.898 551.396C329.64 552.7 328.116 553.692 326.446 554.302C324.857 554.888 323.193 555.246 321.504 555.367C319.876 555.513 318.305 555.55 316.765 555.644C313.638 555.783 310.553 556.423 307.627 557.538ZM338.94 575.788C338.434 576.132 337.933 576.493 337.374 576.806C336.812 577.121 336.227 577.397 335.626 577.63C334.363 578.152 332.975 578.424 331.566 578.413C327.756 578.35 325.069 575.95 323.492 573.231C322.423 571.378 321.682 569.379 320.408 567.615C318.582 565.095 315.466 563.065 311.818 563.44C310.331 563.597 308.932 564.166 308.108 565.262C305.931 568.122 309.057 572.135 313.039 571.566C313.377 571.524 313.709 571.447 314.031 571.336C314.34 571.224 314.633 571.071 314.902 570.882C315.441 570.513 315.863 569.997 316.118 569.395C316.378 568.8 316.437 568.137 316.285 567.506C316.192 567.163 316.03 566.843 315.809 566.565C315.589 566.287 315.314 566.057 315.002 565.888C315.733 566.157 316.332 566.7 316.672 567.402C316.985 568.09 317.063 568.842 316.901 569.567C316.732 570.347 316.336 571.058 315.763 571.613C315.442 571.919 315.08 572.178 314.688 572.385C314.292 572.594 313.869 572.766 313.425 572.897C312.528 573.158 311.568 573.241 310.628 573.142C309.334 572.993 308.094 572.537 307.012 571.811C305.78 570.987 304.867 569.907 303.75 568.978C302.435 567.816 300.933 566.885 299.309 566.222C298.149 565.792 296.95 565.477 295.729 565.283C295.107 565.176 294.482 565.091 293.855 565.027C293.573 565.001 292.17 564.74 291.971 564.891C293.902 563.378 296.016 562.042 298.27 560.889C300.619 559.71 303.097 558.81 305.655 558.206C308.359 557.564 311.152 557.382 313.916 557.669C315.346 557.815 316.739 558.123 318.07 558.582C319.464 559.052 320.747 559.73 321.869 560.57C322.981 561.457 323.879 562.517 324.51 563.696C325.084 564.792 325.512 565.945 325.783 567.125C326.603 570.658 326.305 576.132 331.749 576.936C332.036 576.988 332.323 577.02 332.61 577.041L333.497 577.061C334.113 577.02 334.723 576.947 335.323 576.837C336.565 576.592 337.776 576.232 338.94 575.788Z" fill="#003B2F"/><path d="M307.455 519.723C307.258 520.438 306.917 521.106 306.453 521.685C305.567 522.765 304.416 523.598 303.113 524.102C301.923 524.587 300.67 524.9 299.392 525.03C299.116 525.062 298.829 525.083 298.547 525.104C297.741 525.13 296.964 525.404 296.318 525.886C295.691 526.354 295.233 527.014 295.014 527.765C294.919 528.136 294.849 528.512 294.805 528.892C294.675 529.873 294.654 530.891 294.544 532.128C294.265 534.235 293.622 536.278 292.644 538.166C291.371 540.702 289.941 542.753 290.27 545.681C290.489 547.575 291.517 548.849 292.879 550.164C295.348 552.549 300.864 553.619 299.632 559.495C298.891 563.007 292.744 566.687 284.101 567.976C284.957 567.85 283 564.724 282.875 564.521C281.951 563.148 280.934 561.859 280.198 560.367C278.757 557.475 278.084 554.135 278.679 550.968C279.305 547.633 281.904 545.081 284.07 542.534C286.648 539.507 289.357 535.536 289.952 531.601C290.092 530.651 290.192 529.456 290.421 528.271C290.63 526.956 291.068 525.683 291.705 524.498C292.143 523.715 292.717 523.016 293.406 522.426C293.764 522.125 294.004 521.706 294.081 521.244C294.159 520.782 294.069 520.308 293.829 519.906L280.052 496.453L299.836 519.566C300.072 519.833 300.36 520.048 300.684 520.197C301.007 520.347 301.357 520.428 301.713 520.435C302.069 520.443 302.423 520.376 302.752 520.24C303.081 520.104 303.378 519.901 303.625 519.645C303.872 519.373 304.013 519.022 304.023 518.655C304.032 518.288 303.91 517.93 303.677 517.646C302.388 516.08 301.021 514.489 299.695 512.918L294.716 507.088L284.722 495.435L271.096 479.257L286.006 494.396L296.642 505.533L301.949 511.112C303.713 512.991 305.472 514.802 307.231 516.774L307.523 517.108L307.586 517.63C307.669 518.33 307.627 519.039 307.455 519.723ZM308.843 574.421C307.925 573.718 307.107 572.893 306.411 571.968C307.158 572.85 307.972 573.669 308.843 574.421Z" fill="#003B2F"/></g><g clip-path="url(#clip3_694_1131)"><path d="M471 296.359C503.033 296.359 529 270.168 529 237.859C529 205.55 503.033 179.359 471 179.359C438.967 179.359 413 205.55 413 237.859C413 270.168 438.967 296.359 471 296.359Z" fill="#03FC9D"/><path d="M445.451 202.262L513.035 248.696L496.324 273.559L428.732 226.759L445.451 202.262Z" fill="white"/><path d="M513.036 248.696C507.221 257.106 487.599 253.815 469.068 240.653C450.174 227.856 440.003 210.671 445.451 202.262C451.266 193.853 470.888 197.143 489.419 210.306C508.312 222.737 518.484 240.287 513.036 248.696Z" fill="white"/><path d="M496.321 273.193C490.506 281.602 470.888 278.312 452.357 265.149C433.826 251.987 423.284 235.168 429.102 226.393C434.913 217.984 454.535 221.274 473.066 234.437C491.597 247.599 501.773 264.784 496.321 273.193Z" fill="white"/><path d="M513.035 248.696L496.324 273.559C490.506 281.968 470.888 278.312 452.353 265.515C448.721 262.956 445.451 260.396 442.181 257.471C444.726 257.106 447.996 255.643 451.265 251.987C457.08 245.771 459.987 244.309 462.528 244.674C465.073 244.674 467.98 247.234 472.704 253.449C477.427 259.665 483.967 261.493 487.965 258.203C488.327 257.837 488.69 257.837 489.052 257.471C492.322 254.912 493.413 253.815 499.59 242.115C501.044 239.19 506.13 234.437 513.035 236.631C514.852 241.384 514.852 245.406 513.035 248.696Z" fill="#003B2F"/><path fill-rule="evenodd" clip-rule="evenodd" d="M510.491 247.234C505.405 254.546 487.599 250.89 470.522 238.824C453.085 226.759 442.91 211.403 447.996 204.09C453.082 196.778 470.888 200.434 487.965 212.499C505.039 224.565 515.214 239.921 510.491 247.234ZM494.505 236.265C491.96 239.921 483.242 238.093 474.52 232.243C466.164 226.393 461.075 218.715 463.62 215.059C466.164 211.403 474.883 213.231 483.604 219.081C491.96 224.931 497.049 232.609 494.505 236.265Z" fill="#03FC9D"/><path d="M443.997 210.671C443.997 210.306 443.635 209.94 443.272 210.306C442.91 210.671 442.547 210.671 442.547 211.037C442.91 212.134 443.272 212.865 443.272 213.596C443.272 213.962 443.635 214.328 443.997 213.962C444.36 213.962 444.722 213.596 444.36 213.231C444.36 212.499 444.36 211.768 443.997 210.671ZM445.813 216.521C445.813 216.156 445.451 215.79 445.088 216.156C444.726 216.521 444.726 216.521 444.726 216.887C448.721 226.028 457.08 235.899 467.98 243.212C468.343 243.578 468.705 243.212 469.068 243.212C469.43 242.846 469.068 242.481 469.068 242.115C457.805 234.803 449.812 225.296 445.813 216.521ZM489.777 252.353C489.415 252.353 489.052 252.353 489.052 252.718C489.052 253.084 489.052 253.449 489.415 253.449C490.506 253.815 491.96 254.181 493.051 254.546C493.413 254.546 493.776 254.546 493.776 254.181C493.776 253.815 493.776 253.449 493.413 253.449C492.326 253.084 490.869 252.718 489.777 252.353ZM496.321 253.815C495.958 253.815 495.596 254.181 495.596 254.546C495.596 254.912 495.958 255.278 496.321 255.278C499.228 255.643 502.498 256.009 505.042 255.643C505.405 255.643 505.767 255.278 505.767 254.912C505.767 254.546 505.405 254.181 505.042 254.181C502.135 254.546 499.228 254.181 496.321 253.815Z" fill="#03FC9D"/></g><path d="M1428.82 94.2351H1575.21C1591.34 94.2351 1604.4 107.297 1604.4 123.423C1604.4 139.548 1591.34 152.61 1575.21 152.61H1428.82C1412.7 152.61 1399.64 139.548 1399.64 123.423C1399.64 107.297 1412.7 94.2351 1428.82 94.2351Z" fill="#E6E8EA"/><path d="M1356.45 128.643H1519.32C1537.25 128.643 1551.84 143.147 1551.84 161.164C1551.84 179.181 1537.34 193.684 1519.32 193.684H1356.45C1338.52 193.684 1323.93 179.181 1323.93 161.164C1323.93 143.237 1338.52 128.643 1356.45 128.643Z" fill="#E6E8EA"/><path d="M1119.83 304.894H1151.18" stroke="#003B2F" stroke-width="2.70255" stroke-linecap="round" stroke-linejoin="round"/><path d="M1233.97 270.481H1387.48" stroke="#03FC9D" stroke-width="2.70255" stroke-linecap="round" stroke-linejoin="round"/><path d="M1191.72 304.804H1318.83" stroke="#003B2F" stroke-width="2.70255" stroke-linecap="round" stroke-linejoin="round"/><path d="M1174.9 642.894L1183.55 661.271" stroke="#003B2F" stroke-width="2.70255" stroke-linecap="round" stroke-linejoin="round"/><path d="M1189.85 674.783L1198.5 693.161" stroke="#003B2F" stroke-width="2.70255" stroke-linecap="round" stroke-linejoin="round"/><path d="M1161.57 679.829L1179.94 671.18" stroke="#003B2F" stroke-width="2.70255" stroke-linecap="round" stroke-linejoin="round"/><path d="M1193.46 664.874L1211.83 656.226" stroke="#003B2F" stroke-width="2.70255" stroke-linecap="round" stroke-linejoin="round"/><path d="M1765.4 645.922H1723.68C1736.82 645.922 1747.65 635.222 1747.65 621.949C1747.65 608.675 1736.95 597.975 1723.68 597.975H1603.81C1590.68 597.975 1579.84 608.675 1579.84 621.949H1543C1529.86 621.949 1519.03 632.649 1519.03 645.922C1519.03 659.195 1529.73 669.895 1543 669.895H1621.56C1621.56 683.033 1632.26 693.869 1645.53 693.869H1765.4C1778.53 693.869 1789.37 683.169 1789.37 669.895C1789.37 656.622 1778.67 645.922 1765.4 645.922Z" fill="#03FC9D"/><path d="M1461.01 744.385H1669.46C1692.42 744.385 1711.04 725.769 1711.04 702.805C1711.04 679.84 1692.42 661.224 1669.46 661.224H1461.01C1438.04 661.224 1419.43 679.84 1419.43 702.805C1419.43 725.769 1438.04 744.385 1461.01 744.385Z" fill="#E6E8EA"/><path d="M264.724 109.525L280.812 128.053" stroke="#003B2F" stroke-width="2.70255" stroke-linecap="round" stroke-linejoin="round"/><path d="M304.91 123.423L290.72 126.141" stroke="#003B2F" stroke-width="2.70255" stroke-linecap="round" stroke-linejoin="round"/><path d="M280.813 128.053L272.687 151.551" stroke="#003B2F" stroke-width="2.70255" stroke-linecap="round" stroke-linejoin="round"/><path d="M297.776 308.592H253.995C267.868 308.592 279.129 298.412 279.129 285.801C279.129 273.189 267.868 263.009 253.995 263.009H128.236C114.363 263.009 103.102 273.189 103.102 285.801H64.456C50.5829 285.801 39.3223 295.98 39.3223 308.592C39.3223 321.204 50.5829 331.384 64.456 331.384H146.884C146.884 343.995 158.144 354.175 172.018 354.175H297.776C311.649 354.175 322.91 343.995 322.91 331.384C322.91 318.772 311.649 308.592 297.776 308.592Z" fill="#03FC9D"/><path d="M505.767 466.907C513.358 466.907 519.512 460.754 519.512 453.163C519.512 445.572 513.358 439.419 505.767 439.419C498.177 439.419 492.023 445.572 492.023 453.163C492.023 460.754 498.177 466.907 505.767 466.907Z" stroke="#003B2F" stroke-width="3" stroke-linecap="round" stroke-linejoin="round"/><path d="M88.5083 616.548L109.327 628.575" stroke="#003B2F" stroke-width="3" stroke-linecap="round" stroke-linejoin="round"/><path d="M130.23 616.548L117.955 623.599" stroke="#003B2F" stroke-width="3" stroke-linecap="round" stroke-linejoin="round"/><path d="M109.328 628.576V652.879" stroke="#003B2F" stroke-width="3" stroke-linecap="round" stroke-linejoin="round"/><path d="M88.5083 685.89H239.385" stroke="#03FC9D" stroke-width="3" stroke-linecap="round" stroke-linejoin="round"/><path d="M206.539 719.151H322.91" stroke="#003B2F" stroke-width="3" stroke-linecap="round" stroke-linejoin="round"/></g><defs><clipPath id="clip0_694_1131"><rect width="1675.05" height="857" fill="white" transform="translate(0.645996 0.446045)"/></clipPath><clipPath id="clip1_694_1131"><rect width="147" height="147" fill="white" transform="translate(1290.89 417.687)"/></clipPath><clipPath id="clip2_694_1131"><rect width="167" height="167" fill="white" transform="translate(229.346 453.163)"/></clipPath><clipPath id="clip3_694_1131"><rect width="116" height="117" fill="white" transform="translate(413 179.359)"/></clipPath></defs></svg>