<svg width="1920" height="1080" viewBox="0 0 1920 1080" fill="none" xmlns="http://www.w3.org/2000/svg"><path d="M1238.25 782.455L1196.66 788.323L995.823 676.322C981.205 668.189 963.499 668.086 948.778 676.116L742.276 788.426L699.863 782.97V833.926C700.275 843.809 703.466 853.177 709.231 856.265L948.778 986.59C963.499 994.517 981.205 994.517 995.823 986.384L1229.09 856.265C1235.16 852.868 1238.25 842.265 1238.36 831.559V782.661L1238.25 782.455Z" fill="#E6E8EA" stroke="#003B2F" stroke-width="3" stroke-linejoin="round"/><path d="M1229.09 798.205L1143.03 846.28L995.821 928.325C981.204 936.457 963.497 936.56 948.777 928.531L794.466 844.633L727.244 808.088L709.332 798.308C696.773 791.514 696.773 773.499 709.332 766.705L948.88 636.483C963.6 628.556 981.306 628.556 995.924 636.689L1147.66 721.307L1229.19 766.808C1241.44 773.705 1241.44 791.411 1229.19 798.205H1229.09Z" fill="#03FC9D" stroke="#003B2F" stroke-width="3" stroke-linecap="round" stroke-linejoin="round"/><path d="M1175.46 754.558L1118.01 722.543L991.292 651.821C979.145 645.027 964.321 644.924 952.071 651.615L762.862 754.558H744.127V773.911C744.127 779.058 746.803 784.102 751.951 786.882L766.98 795.014L823.187 825.588L952.071 895.692C964.321 902.383 979.145 902.28 991.292 895.486L1114.21 826.926L1186.16 786.779C1191.21 783.999 1193.78 778.955 1193.88 773.911V754.558H1175.46Z" fill="#E6E8EA" stroke="#003B2F" stroke-width="3" stroke-linejoin="round"/><path d="M1186.17 767.22L1183.9 768.558L1114.31 807.367L991.401 875.927C979.254 882.618 964.43 882.721 952.18 876.133L823.296 806.029L767.089 775.455L754.324 768.558L752.059 767.323C744.956 763.514 742.692 755.381 745.162 748.69C746.295 745.499 748.662 742.719 752.059 740.866L952.18 632.056C964.43 625.365 979.254 625.468 991.401 632.262L1118.12 702.984L1186.27 740.969C1189.57 742.822 1191.83 745.602 1192.96 748.69C1195.43 755.278 1193.17 763.308 1186.27 767.22H1186.17Z" fill="#03FC9D" stroke="#003B2F" stroke-width="3" stroke-linecap="round" stroke-linejoin="round"/><path d="M1064.18 744.778L1088.06 758.778L976.983 823.529C962.674 813.647 957.115 803.97 961.13 783.485L980.792 695.984L1037.72 729.337L1068.4 711.322L963.189 649.145L788.701 752.808L842.437 782.97L872.702 765.058L847.275 750.749L939.615 696.086L920.571 783.279V783.485C913.776 819.823 933.541 834.132 959.998 848.956L973.483 856.471L1145.09 756.617L1094.75 726.866L1064.18 744.778Z" fill="#003B2F"/><path d="M1196.56 372.95L1133.97 437.083L1200.57 474.657L1263.99 411.553L1196.56 372.95Z" fill="#E6E8EA" stroke="#003B2F" stroke-width="3" stroke-linejoin="round"/><path d="M1285.6 469.922L1222.91 534.158L1200.57 474.657L1263.98 411.553L1285.6 469.922Z" fill="#E6E8EA" stroke="#003B2F" stroke-width="3" stroke-linejoin="round"/><path d="M1155.49 495.452L1133.97 437.083L1200.57 474.657L1222.91 534.158L1155.49 495.452Z" fill="#E6E8EA" stroke="#003B2F" stroke-width="3" stroke-linejoin="round"/><path d="M1109.99 459.216L1047.29 523.452L1114 561.026L1177.41 497.922L1109.99 459.216Z" fill="#03FC9D" stroke="#003B2F" stroke-width="3" stroke-linecap="round" stroke-linejoin="round"/><path d="M1198.93 556.291L1136.35 620.527L1114.01 561.026L1177.42 497.922L1198.93 556.291Z" fill="#03FC9D" stroke="#003B2F" stroke-width="3" stroke-linecap="round" stroke-linejoin="round"/><path d="M1068.91 581.82L1047.29 523.452L1114 561.026L1136.34 620.527L1068.91 581.82Z" fill="#03FC9D" stroke="#003B2F" stroke-width="3" stroke-linecap="round" stroke-linejoin="round"/><path d="M1056.05 240.154L993.461 304.39L1060.06 341.964L1123.48 278.86L1056.05 240.154Z" fill="#E6E8EA" stroke="#003B2F" stroke-width="3" stroke-linejoin="round"/><path d="M1145.09 337.229L1082.5 401.465L1060.06 341.964L1123.48 278.86L1145.09 337.229Z" fill="#E6E8EA" stroke="#003B2F" stroke-width="3" stroke-linejoin="round"/><path d="M1015.08 362.759L993.461 304.39L1060.06 341.964L1082.51 401.465L1015.08 362.759Z" fill="#E6E8EA" stroke="#003B2F" stroke-width="3" stroke-linejoin="round"/><path d="M848.617 181.683L786.028 245.919L852.632 283.493L916.045 220.286L848.617 181.683Z" fill="#E6E8EA" stroke="#003B2F" stroke-width="3" stroke-linejoin="round"/><path d="M937.66 278.655L875.071 342.891L852.63 283.493L916.042 220.286L937.66 278.655Z" fill="#E6E8EA" stroke="#003B2F" stroke-width="3" stroke-linejoin="round"/><path d="M807.646 304.287L786.028 245.919L852.632 283.493L875.074 342.891L807.646 304.287Z" fill="#E6E8EA" stroke="#003B2F" stroke-width="3" stroke-linejoin="round"/><path d="M768.215 256.625L705.523 320.758L772.127 358.332L835.643 295.228L768.215 256.625Z" fill="#E6E8EA" stroke="#003B2F" stroke-width="3" stroke-linejoin="round"/><path d="M857.156 353.597L794.566 417.833L772.125 358.332L835.641 295.228L857.156 353.597Z" fill="#E6E8EA" stroke="#003B2F" stroke-width="3" stroke-linejoin="round"/><path d="M727.141 379.126L705.523 320.758L772.127 358.332L794.569 417.833L727.141 379.126Z" fill="#E6E8EA" stroke="#003B2F" stroke-width="3" stroke-linejoin="round"/><path d="M696.987 337.229L634.397 401.465L701.001 439.039L764.414 375.832L696.987 337.229Z" fill="#03FC9D" stroke="#003B2F" stroke-width="3" stroke-linecap="round" stroke-linejoin="round"/><path d="M786.03 434.201L723.44 498.437L700.999 439.039L764.412 375.832L786.03 434.201Z" fill="#03FC9D" stroke="#003B2F" stroke-width="3" stroke-linecap="round" stroke-linejoin="round"/><path d="M656.015 459.73L634.397 401.465L701.001 439.039L723.443 498.437L656.015 459.73Z" fill="#03FC9D" stroke="#003B2F" stroke-width="3" stroke-linecap="round" stroke-linejoin="round"/><path d="M981.205 87.4904L918.616 151.726L985.22 189.301L1048.63 126.094L981.205 87.4904Z" fill="#E6E8EA" stroke="#003B2F" stroke-width="3" stroke-linejoin="round"/><path d="M1070.25 184.462L1007.66 248.698L985.218 189.301L1048.63 126.094L1070.25 184.462Z" fill="#E6E8EA" stroke="#003B2F" stroke-width="3" stroke-linejoin="round"/><path d="M940.234 210.095L918.616 151.726L985.22 189.301L1007.66 248.698L940.234 210.095Z" fill="#E6E8EA" stroke="#003B2F" stroke-width="3" stroke-linejoin="round"/><path d="M944.152 198.051L881.46 262.287L948.167 299.861L1011.58 236.757L944.152 198.051Z" fill="#03FC9D" stroke="#003B2F" stroke-width="3" stroke-linecap="round" stroke-linejoin="round"/><path d="M1033.1 295.125L970.51 359.361L948.172 299.861L1011.58 236.757L1033.1 295.125Z" fill="#03FC9D" stroke="#003B2F" stroke-width="3" stroke-linecap="round" stroke-linejoin="round"/><path d="M903.078 320.655L881.46 262.287L948.167 299.861L970.505 359.361L903.078 320.655Z" fill="#03FC9D" stroke="#003B2F" stroke-width="3" stroke-linecap="round" stroke-linejoin="round"/><path d="M1185.75 129.903L1123.16 194.036L1189.77 231.61L1253.18 168.506L1185.75 129.903Z" fill="#03FC9D" stroke="#003B2F" stroke-width="3" stroke-linecap="round" stroke-linejoin="round"/><path d="M1274.8 226.874L1212.21 291.111L1189.77 231.61L1253.18 168.506L1274.8 226.874Z" fill="#03FC9D" stroke="#003B2F" stroke-width="3" stroke-linecap="round" stroke-linejoin="round"/><path d="M1144.78 252.404L1123.16 194.036L1189.77 231.61L1212.21 291.111L1144.78 252.404Z" fill="#03FC9D" stroke="#003B2F" stroke-width="3" stroke-linecap="round" stroke-linejoin="round"/><path d="M1088.37 184.462L1025.78 248.698L1092.39 286.272L1155.8 223.169L1088.37 184.462Z" fill="#E6E8EA" stroke="#003B2F" stroke-width="3" stroke-linejoin="round"/><path d="M1177.41 281.537L1114.72 345.67L1092.38 286.272L1155.8 223.168L1177.41 281.537Z" fill="#E6E8EA" stroke="#003B2F" stroke-width="3" stroke-linejoin="round"/><path d="M1047.3 307.067L1025.78 248.698L1092.39 286.272L1114.72 345.67L1047.3 307.067Z" fill="#E6E8EA" stroke="#003B2F" stroke-width="3" stroke-linejoin="round"/><path d="M859.423 309.434L796.834 373.67L863.438 411.245L926.85 348.141L859.423 309.434Z" fill="#E6E8EA" stroke="#003B2F" stroke-width="3" stroke-linejoin="round"/><path d="M948.466 406.509L885.877 470.745L863.436 411.245L926.848 348.141L948.466 406.509Z" fill="#E6E8EA" stroke="#003B2F" stroke-width="3" stroke-linejoin="round"/><path d="M818.452 432.039L796.834 373.67L863.438 411.245L885.879 470.745L818.452 432.039Z" fill="#E6E8EA" stroke="#003B2F" stroke-width="3" stroke-linejoin="round"/><path d="M977.086 299.861L914.394 364.097L980.997 401.671L1044.51 338.567L977.086 299.861Z" fill="#E6E8EA" stroke="#003B2F" stroke-width="3" stroke-linejoin="round"/><path d="M1066.03 396.936L1003.44 461.069L980.995 401.671L1044.51 338.567L1066.03 396.936Z" fill="#E6E8EA" stroke="#003B2F" stroke-width="3" stroke-linejoin="round"/><path d="M936.011 422.465L914.394 364.097L980.997 401.671L1003.44 461.069L936.011 422.465Z" fill="#E6E8EA" stroke="#003B2F" stroke-width="3" stroke-linejoin="round"/><path d="M819.898 103.858L757.206 168.094L823.913 205.668L887.325 142.565L819.898 103.858Z" fill="#03FC9D" stroke="#003B2F" stroke-width="3" stroke-linecap="round" stroke-linejoin="round"/><path d="M908.846 200.83L846.256 265.066L823.918 205.668L887.331 142.565L908.846 200.83Z" fill="#03FC9D" stroke="#003B2F" stroke-width="3" stroke-linecap="round" stroke-linejoin="round"/><path d="M778.824 226.463L757.206 168.094L823.913 205.668L846.251 265.066L778.824 226.463Z" fill="#03FC9D" stroke="#003B2F" stroke-width="3" stroke-linecap="round" stroke-linejoin="round"/><path d="M926.959 497.922L864.37 562.158L930.974 599.732L994.387 536.526L926.959 497.922Z" fill="#03FC9D" stroke="#003B2F" stroke-width="3" stroke-linecap="round" stroke-linejoin="round"/><path d="M1016 594.894L953.413 659.13L930.972 599.732L994.384 536.526L1016 594.894Z" fill="#03FC9D" stroke="#003B2F" stroke-width="3" stroke-linecap="round" stroke-linejoin="round"/><path d="M885.988 620.527L864.37 562.158L930.974 599.732L953.415 659.13L885.988 620.527Z" fill="#03FC9D" stroke="#003B2F" stroke-width="3" stroke-linecap="round" stroke-linejoin="round"/><path d="M819.898 423.495L757.206 487.731L823.913 525.305L887.325 462.201L819.898 423.495Z" fill="#E6E8EA" stroke="#003B2F" stroke-width="3" stroke-linejoin="round"/><path d="M908.846 520.569L846.256 584.806L823.918 525.305L887.331 462.201L908.846 520.569Z" fill="#E6E8EA" stroke="#003B2F" stroke-width="3" stroke-linejoin="round"/><path d="M778.824 546.099L757.206 487.731L823.913 525.305L846.251 584.806L778.824 546.099Z" fill="#E6E8EA" stroke="#003B2F" stroke-width="3" stroke-linejoin="round"/><path d="M851.191 583.262L788.602 647.498L855.205 685.072L918.618 621.968L851.191 583.262Z" fill="#03FC9D" stroke="#003B2F" stroke-width="3" stroke-linecap="round" stroke-linejoin="round"/><path d="M940.234 680.336L877.542 744.572L855.203 685.072L918.616 621.968L940.234 680.336Z" fill="#03FC9D" stroke="#003B2F" stroke-width="3" stroke-linecap="round" stroke-linejoin="round"/><path d="M810.117 705.866L788.602 647.498L855.205 685.072L877.544 744.572L810.117 705.866Z" fill="#03FC9D" stroke="#003B2F" stroke-width="3" stroke-linecap="round" stroke-linejoin="round"/><path d="M890.718 402.391L828.129 466.525L894.733 504.202L958.145 440.995L890.718 402.391Z" fill="#03FC9D" stroke="#003B2F" stroke-width="3" stroke-linecap="round" stroke-linejoin="round"/><path d="M979.761 499.363L917.172 563.599L894.73 504.202L958.143 440.995L979.761 499.363Z" fill="#03FC9D" stroke="#003B2F" stroke-width="3" stroke-linecap="round" stroke-linejoin="round"/><path d="M849.747 524.893L828.129 466.525L894.733 504.202L917.174 563.599L849.747 524.893Z" fill="#03FC9D" stroke="#003B2F" stroke-width="3" stroke-linecap="round" stroke-linejoin="round"/><path d="M1034.12 534.158L971.534 598.394L1038.14 635.968L1101.55 572.761L1034.12 534.158Z" fill="#E6E8EA" stroke="#003B2F" stroke-width="3" stroke-linejoin="round"/><path d="M1123.17 631.13L1060.47 695.366L1038.14 635.968L1101.55 572.761L1123.17 631.13Z" fill="#E6E8EA" stroke="#003B2F" stroke-width="3" stroke-linejoin="round"/><path d="M993.152 656.762L971.534 598.394L1038.14 635.968L1060.48 695.366L993.152 656.762Z" fill="#E6E8EA" stroke="#003B2F" stroke-width="3" stroke-linejoin="round"/><path d="M1148.69 272.993L1086 337.229L1152.71 374.803L1216.12 311.596L1148.69 272.993Z" fill="#E6E8EA" stroke="#003B2F" stroke-width="3" stroke-linejoin="round"/><path d="M1237.64 369.965L1175.05 434.201L1152.71 374.803L1216.12 311.596L1237.64 369.965Z" fill="#E6E8EA" stroke="#003B2F" stroke-width="3" stroke-linejoin="round"/><path d="M1107.62 395.597L1086 337.229L1152.71 374.803L1175.04 434.201L1107.62 395.597Z" fill="#E6E8EA" stroke="#003B2F" stroke-width="3" stroke-linejoin="round"/><path d="M1062.02 359.362L999.433 423.495L1066.04 461.069L1129.45 397.965L1062.02 359.362Z" fill="#03FC9D" stroke="#003B2F" stroke-width="3" stroke-linecap="round" stroke-linejoin="round"/><path d="M1151.06 456.333L1088.48 520.569L1066.03 461.069L1129.45 397.965L1151.06 456.333Z" fill="#03FC9D" stroke="#003B2F" stroke-width="3" stroke-linecap="round" stroke-linejoin="round"/><path d="M1021.05 481.863L999.433 423.495L1066.04 461.069L1088.48 520.569L1021.05 481.863Z" fill="#03FC9D" stroke="#003B2F" stroke-width="3" stroke-linecap="round" stroke-linejoin="round"/><path d="M986.255 434.201L923.562 498.437L990.269 536.011L1053.68 472.804L986.255 434.201Z" fill="#E6E8EA" stroke="#003B2F" stroke-width="3" stroke-linejoin="round"/><path d="M1075.3 531.173L1012.61 595.409L990.274 536.011L1053.69 472.804L1075.3 531.173Z" fill="#E6E8EA" stroke="#003B2F" stroke-width="3" stroke-linejoin="round"/><path d="M945.18 556.805L923.562 498.437L990.269 536.011L1012.61 595.409L945.18 556.805Z" fill="#E6E8EA" stroke="#003B2F" stroke-width="3" stroke-linejoin="round"/><path opacity="0.56" d="M526.98 170.386L747.423 745.457C748.555 748.93 750.82 751.969 754.217 754.031L756.379 755.334L769.041 762.931L824.527 796.251L951.764 872.767C963.911 880.039 978.529 879.93 990.573 872.55L1111.94 797.771L1180.71 755.334L1182.97 753.923C1186.27 751.969 1188.43 748.93 1189.56 745.457L1426.6 182.361L526.98 170.386Z" fill="url(#paint0_linear_1092_9)"/><path d="M1585.83 276.122C1619.87 271.305 1643.56 239.805 1638.74 205.767C1633.92 171.728 1602.42 148.039 1568.38 152.857C1534.35 157.674 1510.66 189.174 1515.47 223.213C1520.29 257.251 1551.79 280.94 1585.83 276.122Z" fill="#03FC9D"/><path d="M1595.06 225.843L1596.23 234.163L1561.9 239.022C1561.62 233.467 1562.81 229.402 1568.2 223.106L1591.07 197.237L1593.83 216.713L1603.19 215.387L1598.13 179.578L1544.94 187.106L1547.46 204.918L1556.83 203.592L1555.62 195.087L1583.85 191.092L1561.09 216.82L1561.03 216.829C1551.55 228.04 1551.78 235.866 1553.07 244.988L1553.73 249.672L1606.92 242.144L1604.42 224.456L1595.05 225.781L1595.06 225.843Z" fill="#003B2F"/><path d="M1353.16 436.238C1369.93 440.464 1386.96 430.294 1391.18 413.523C1395.41 396.751 1385.24 379.729 1368.47 375.503C1351.7 371.277 1334.67 381.447 1330.45 398.218C1326.22 414.99 1336.39 432.012 1353.16 436.238Z" fill="#03FC9D"/><path d="M1367.02 414.571L1365.98 418.67L1349.07 414.408C1349.99 411.766 1351.32 410.098 1355.03 408.191L1370.6 400.488L1368.18 410.084L1372.8 411.247L1377.24 393.604L1351.03 387L1348.82 395.776L1353.44 396.939L1354.49 392.748L1368.4 396.253L1352.91 403.911L1352.88 403.903C1346.33 407.324 1344.95 411.013 1343.82 415.507L1343.24 417.815L1369.44 424.419L1371.64 415.704L1367.02 414.54L1367.02 414.571Z" fill="#003B2F"/><path d="M202.783 648.702C225.88 642.514 239.587 618.773 233.398 595.676C227.209 572.579 203.468 558.872 180.371 565.061C157.275 571.25 143.568 594.991 149.757 618.087C155.945 641.184 179.686 654.891 202.783 648.702Z" fill="#03FC9D"/><path d="M204.924 613.211L206.437 618.857L183.143 625.099C182.48 621.287 182.956 618.38 186.152 613.58L199.766 593.795L203.307 607.011L209.664 605.307L203.154 581.01L167.062 590.68L170.301 602.766L176.658 601.063L175.111 595.292L194.265 590.16L180.712 609.838L180.67 609.849C175.069 618.387 175.884 623.772 177.543 629.961L178.394 633.139L214.486 623.469L211.27 611.466L204.913 613.169L204.924 613.211Z" fill="#003B2F"/><path d="M421.764 335.741C467.904 331.486 501.858 290.633 497.603 244.493C493.348 198.354 452.495 164.4 406.356 168.655C360.216 172.91 326.262 213.762 330.517 259.902C334.772 306.042 375.625 339.996 421.764 335.741Z" fill="#03FC9D"/><path d="M437.479 268.658L438.519 279.937L391.985 284.228C391.968 276.731 393.829 271.336 401.506 263.213L433.987 229.887L436.422 256.286L449.12 255.115L444.644 206.577L372.546 213.225L374.773 237.369L387.472 236.198L386.408 224.669L424.671 221.141L392.341 254.285L392.258 254.293C378.764 268.765 378.557 279.316 379.697 291.68L380.283 298.029L452.381 291.381L450.169 267.404L437.471 268.575L437.479 268.658Z" fill="#003B2F"/><path d="M65.9531 388.696H294.319" stroke="#03FC9D" stroke-width="3" stroke-linecap="round" stroke-linejoin="round"/><path d="M244.604 439.039H420.743" stroke="#003B2F" stroke-width="3" stroke-linecap="round" stroke-linejoin="round"/><path d="M603.22 135.339L614.009 158.266" stroke="#003B2F" stroke-width="3" stroke-linecap="round" stroke-linejoin="round"/><path d="M621.876 175.124L632.665 198.051" stroke="#003B2F" stroke-width="3" stroke-linecap="round" stroke-linejoin="round"/><path d="M586.587 181.418L609.514 170.629" stroke="#003B2F" stroke-width="3" stroke-linecap="round" stroke-linejoin="round"/><path d="M626.372 162.761L649.299 151.972" stroke="#003B2F" stroke-width="3" stroke-linecap="round" stroke-linejoin="round"/><path d="M1722.79 149.576L1729.63 164.099" stroke="#003B2F" stroke-width="3" stroke-linecap="round" stroke-linejoin="round"/><path d="M1734.61 174.778L1741.44 189.301" stroke="#003B2F" stroke-width="3" stroke-linecap="round" stroke-linejoin="round"/><path d="M1712.26 178.765L1726.78 171.93" stroke="#003B2F" stroke-width="3" stroke-linecap="round" stroke-linejoin="round"/><path d="M1737.46 166.947L1751.98 160.112" stroke="#003B2F" stroke-width="3" stroke-linecap="round" stroke-linejoin="round"/><path d="M1353.43 683.27L1373.5 706.384" stroke="#003B2F" stroke-width="3" stroke-linecap="round" stroke-linejoin="round"/><path d="M1403.56 700.608L1385.86 703.999" stroke="#003B2F" stroke-width="3" stroke-linecap="round" stroke-linejoin="round"/><path d="M1373.5 706.384L1363.36 735.699" stroke="#003B2F" stroke-width="3" stroke-linecap="round" stroke-linejoin="round"/><path d="M450.905 847.339H406.526C420.503 847.339 432.03 835.956 432.03 821.835C432.03 807.715 420.647 796.332 406.526 796.332H279.01C265.034 796.332 253.507 807.715 253.507 821.835H214.316C200.339 821.835 188.812 833.218 188.812 847.339C188.812 861.459 200.195 872.842 214.316 872.842H297.886C297.886 886.818 309.268 898.345 323.389 898.345H450.905C464.881 898.345 476.408 886.962 476.408 872.842C476.408 858.721 465.025 847.339 450.905 847.339Z" fill="#E6E8EA"/><path d="M156.472 915.983H328.531C347.487 915.983 362.854 900.617 362.854 881.661C362.854 862.705 347.487 847.339 328.531 847.339H156.472C137.516 847.339 122.149 862.705 122.149 881.661C122.149 900.617 137.516 915.983 156.472 915.983Z" fill="#03FC9D"/><path d="M1745.55 550.014H1690.93C1708.24 550.014 1722.29 537.315 1722.29 521.58C1722.29 505.846 1708.24 493.147 1690.93 493.147H1534.04C1516.74 493.147 1502.69 505.846 1502.69 521.58H1454.47C1437.17 521.58 1423.12 534.28 1423.12 550.014C1423.12 565.748 1437.17 578.448 1454.47 578.448H1557.31C1557.31 594.182 1571.35 606.882 1588.66 606.882H1745.55C1762.86 606.882 1776.91 594.182 1776.91 578.448C1776.91 562.714 1762.86 550.014 1745.55 550.014Z" fill="#03FC9D"/><path d="M1403.56 873.376H1442.67" stroke="#003B2F" stroke-width="3" stroke-linecap="round" stroke-linejoin="round"/><path d="M1545.95 830.445H1737.46" stroke="#03FC9D" stroke-width="3" stroke-linecap="round" stroke-linejoin="round"/><path d="M1493.24 873.264H1651.82" stroke="#003B2F" stroke-width="3" stroke-linecap="round" stroke-linejoin="round"/><path d="M550.232 637.431C559.702 637.431 567.379 629.754 567.379 620.284C567.379 610.814 559.702 603.137 550.232 603.137C540.762 603.137 533.085 610.814 533.085 620.284C533.085 629.754 540.762 637.431 550.232 637.431Z" stroke="#003B2F" stroke-width="3" stroke-linecap="round" stroke-linejoin="round"/><defs><linearGradient id="paint0_linear_1092_9" x1="955.775" y1="945.376" x2="955.775" y2="492.465" gradientUnits="userSpaceOnUse"><stop stop-color="#03FC9D"/><stop offset="1" stop-color="#03FC9D" stop-opacity="0"/></linearGradient></defs></svg>