<svg width="1920" height="1081" viewBox="0 0 1920 1081" fill="none" xmlns="http://www.w3.org/2000/svg"><ellipse cx="967.209" cy="871.06" rx="557.201" ry="101.309" fill="#03FC9D"/><ellipse cx="967.209" cy="871.06" rx="431.337" ry="78.4248" fill="#6AFCC4"/><ellipse cx="967.209" cy="871.06" rx="338.853" ry="61.6096" fill="#A9FEDE"/><path d="M1621.62 589.446H1566C1583.55 589.446 1597.83 576.626 1597.83 560.527C1597.83 544.427 1583.55 531.608 1566 531.608H1406.58C1389.03 531.608 1374.76 544.427 1374.76 560.527H1325.68C1308.13 560.527 1293.85 573.346 1293.85 589.446C1293.85 605.545 1308.13 618.365 1325.68 618.365H1430.08C1430.08 634.464 1444.36 647.284 1461.9 647.284H1621.33C1638.88 647.284 1653.15 634.464 1653.15 618.365C1653.15 602.266 1638.88 589.446 1621.33 589.446H1621.62Z" fill="#E6E8EA"/><path d="M283.899 430.631H437.224C455.611 430.631 470.516 415.89 470.516 397.706V397.404C470.516 379.22 455.611 364.48 437.224 364.48H283.899C265.513 364.48 250.608 379.22 250.608 397.404V397.706C250.608 415.89 265.513 430.631 283.899 430.631Z" fill="#03FC9D"/><path d="M178.315 464.6H335.414C355.721 464.6 372.182 448.258 372.182 428.1V427.798C372.182 407.639 355.721 391.298 335.414 391.298H178.315C158.008 391.298 141.547 407.639 141.547 427.798V428.1C141.547 448.258 158.008 464.6 178.315 464.6Z" fill="#03FC9D"/><path d="M342.724 473.54H491.036C507.351 473.54 520.577 460.332 520.577 444.04C520.577 427.747 507.351 414.54 491.036 414.54H342.724C326.409 414.54 313.183 427.747 313.183 444.04C313.183 460.332 326.409 473.54 342.724 473.54Z" fill="#03FC9D"/><path d="M1725.03 575.424H1669.41C1686.96 575.424 1701.24 562.605 1701.24 546.505C1701.24 530.406 1686.96 517.586 1669.41 517.586H1509.99C1492.44 517.586 1478.16 530.406 1478.16 546.505H1429.09C1411.54 546.505 1397.26 559.325 1397.26 575.424C1397.26 591.524 1411.54 604.343 1429.09 604.343H1533.49C1533.49 620.443 1547.76 633.263 1565.31 633.263H1724.73C1742.28 633.263 1756.56 620.443 1756.56 604.343C1756.56 588.244 1742.28 575.424 1724.73 575.424H1725.03Z" fill="#E6E8EA"/><path d="M572.984 544.751L582.627 554.394" stroke="#003B2F" stroke-width="3.45125" stroke-miterlimit="10" stroke-linecap="round" stroke-linejoin="round"/><path d="M589.672 561.443L599.315 571.086" stroke="#003B2F" stroke-width="3.45125" stroke-miterlimit="10" stroke-linecap="round" stroke-linejoin="round"/><path d="M572.984 571.086L582.627 561.443" stroke="#003B2F" stroke-width="3.45125" stroke-miterlimit="10" stroke-linecap="round" stroke-linejoin="round"/><path d="M589.672 554.394L599.315 544.751" stroke="#003B2F" stroke-width="3.45125" stroke-miterlimit="10" stroke-linecap="round" stroke-linejoin="round"/><path d="M787.679 292.929C775.898 289.128 760.95 274.94 754.996 265.819C756.769 268.353 758.796 270.633 760.949 272.787C765.89 277.474 772.097 281.274 779.445 283.808C779.698 283.808 779.951 283.934 780.205 284.061C814.661 295.209 860.392 275.067 882.434 238.837C882.814 238.33 883.068 237.823 883.321 237.19C883.574 236.81 883.701 236.43 883.954 236.177C883.954 236.177 883.954 236.177 883.954 236.05C896.749 213.248 897.129 189.939 886.615 173.344C885.348 171.444 884.081 169.544 882.561 167.77C900.549 184.745 906.883 219.708 889.655 247.831C867.613 284.061 821.755 304.203 787.425 293.055L787.679 292.929Z" fill="#03FC9D"/><path d="M780.331 283.935C780.331 283.935 779.824 283.808 779.571 283.682C772.224 281.148 766.017 277.474 761.076 272.66C758.796 270.507 756.769 268.227 755.122 265.693C755.122 265.693 754.995 265.44 754.869 265.313C742.961 247.958 743.214 222.496 758.036 198.047C780.078 161.817 825.935 141.675 860.265 152.822C869.64 155.863 877.24 160.93 882.814 167.517C884.334 169.291 885.728 171.064 886.868 173.091C897.256 189.686 897.002 213.122 884.208 235.797C884.208 235.797 884.208 235.797 884.208 235.924C883.954 236.304 883.828 236.684 883.574 236.937C883.321 237.444 882.941 238.077 882.687 238.584C860.645 274.814 814.788 294.956 780.458 283.808L780.331 283.935Z" fill="#E6E8EA"/><path d="M787.172 293.182C775.391 289.382 760.443 275.194 754.489 266.073C756.263 268.606 758.29 270.887 760.443 273.04C765.384 277.727 771.591 281.528 778.938 284.061C779.192 284.061 779.445 284.188 779.698 284.315C814.155 295.462 859.886 275.32 881.928 239.09C882.308 238.584 882.561 238.077 882.815 237.444C883.068 237.064 883.195 236.683 883.448 236.43C883.448 236.43 883.448 236.43 883.448 236.303C896.243 213.501 896.623 190.192 886.108 173.598C884.842 171.697 883.575 169.797 882.055 168.024C900.043 184.999 906.377 219.962 889.149 248.085C867.107 284.315 821.249 304.457 786.919 293.309L787.172 293.182Z" stroke="#03FC9D" stroke-width="4.12929" stroke-linecap="round" stroke-linejoin="round"/><path d="M779.824 284.189C779.824 284.189 779.318 284.062 779.064 283.935C771.717 281.402 765.51 277.728 760.569 272.914C758.289 270.761 756.262 268.48 754.615 265.947C754.615 265.947 754.489 265.693 754.362 265.567C742.454 248.212 742.708 222.749 757.529 198.3C779.571 162.07 825.429 141.928 859.759 153.076C869.133 156.116 876.733 161.184 882.307 167.771C883.827 169.544 885.221 171.318 886.361 173.345C896.749 189.94 896.495 213.375 883.701 236.051C883.701 236.051 883.701 236.051 883.701 236.177C883.447 236.557 883.321 236.937 883.067 237.191C882.814 237.697 882.434 238.331 882.181 238.838C860.139 275.068 814.281 295.21 779.951 284.062L779.824 284.189Z" stroke="#003B2F" stroke-width="4.12929" stroke-linecap="round" stroke-linejoin="round"/><path d="M835.056 225.916C840.25 227.056 845.064 225.916 848.738 220.342C853.805 212.868 849.118 205.394 841.39 198.3L849.371 188.672L842.91 183.732L835.183 193.106C833.536 191.839 831.763 190.446 829.989 189.179L837.843 179.805L831.383 174.864L823.402 184.492C822.008 183.478 820.615 182.338 819.222 181.325L810.354 174.358L805.16 180.565C805.16 180.565 809.974 184.112 809.847 184.238C812.508 186.265 812.127 188.292 811.367 189.686L802.247 200.58C802.247 200.58 802.627 200.96 802.88 201.213C802.627 201.087 802.5 200.833 802.247 200.707L789.452 216.035C788.692 216.668 787.172 217.555 785.398 216.035L780.711 212.361L773.617 218.315L781.978 224.776C781.978 224.776 782.865 225.536 783.371 225.916C784.512 226.802 785.525 227.563 786.538 228.449L778.431 238.204L784.892 243.144L792.872 233.516C793.632 234.023 794.266 234.657 794.899 235.163C795.913 235.923 796.926 236.81 797.94 237.57L796.673 239.217L789.959 247.198L796.419 252.138L799.46 248.465L804.4 242.511C815.674 250.365 825.302 253.785 834.043 245.171C841.01 238.33 839.87 231.996 834.93 225.916H835.056ZM824.415 196.146C828.089 198.933 840.377 206.787 834.676 213.628C829.229 220.215 818.335 210.588 814.788 207.801L824.542 196.146H824.415ZM799.08 226.549L809.847 213.628C814.154 217.048 828.849 226.422 822.515 234.023C816.435 241.244 803.387 229.843 799.08 226.422V226.549Z" fill="#003B2F"/><path d="M1080.89 231.374C1049.35 259.42 1026.61 294.494 1014.51 326.601C1002.37 358.59 996.413 400.05 1001.41 441.94L1014.26 446.802C1010.27 414.259 1014.84 382.62 1022.83 355.126L1038.44 353.171L1049.98 322.483L1039.56 310.655C1051.8 284.835 1069.23 258.058 1093.74 236.236L1080.89 231.374Z" fill="#03FC9D" stroke="#003B2F" stroke-width="4.12929"/><path d="M1315.63 451.904L1323.28 431.637L1006.35 312.048L998.707 332.315L1315.63 451.904Z" fill="#003B2F"/><path d="M1137.91 891.711C1158.69 871.443 1083.19 741.597 1059.37 727.156C1057.47 710.814 1056.46 672.684 1041.89 656.342C1027.32 640.001 987.798 600.604 980.324 593.003C954.354 578.435 917.364 556.52 917.364 556.52C903.683 517.756 885.568 462.397 885.568 462.397C878.347 459.991 727.473 424.774 727.473 424.774C727.473 424.774 728.993 498.248 725.953 556.646C706.951 621.126 678.068 685.732 664.134 717.655C666.414 744.891 659.32 826.725 658.053 871.696C706.571 901.592 748.122 925.154 798.666 912.233C873.787 912.233 1055.32 914.767 1137.79 891.965L1137.91 891.711Z" fill="#E6E8EA"/><path d="M1119.29 862.447C1139.05 861.94 1187.44 857.76 1192.26 852.439C1197.07 847.119 1159.45 741.469 1130.82 705.365C1123.09 678.763 1103.08 573.873 1103.08 573.873C1103.08 573.873 994.892 434.146 972.343 432.246C949.794 430.346 812.854 450.741 812.854 450.741L873.407 629.358L1119.04 862.447H1119.29Z" fill="#B2B4B5"/><path d="M1155.52 901.592C1176.29 881.324 1100.79 751.478 1076.98 737.037C1075.08 720.695 1074.07 682.565 1059.5 666.223C1044.93 649.882 1005.41 610.485 997.932 602.884C971.962 588.316 934.972 566.401 934.972 566.401C921.291 527.637 903.176 472.278 903.176 472.278C895.955 469.872 745.081 434.655 745.081 434.655C745.081 434.655 746.601 508.128 743.561 566.527C724.559 631.007 695.676 695.613 681.742 727.536C684.022 754.772 676.928 836.606 675.661 881.577C724.179 911.473 765.73 935.035 816.274 922.114C891.395 922.114 1072.93 924.648 1155.39 901.846L1155.52 901.592Z" stroke="#003B2F" stroke-width="4.12929" stroke-linecap="round" stroke-linejoin="round"/><path d="M1135.88 871.06C1155.65 870.553 1204.04 866.373 1208.85 861.053C1213.66 855.732 1176.04 750.082 1147.41 713.979C1139.68 687.376 1119.67 582.486 1119.67 582.486C1119.67 582.486 1011.49 442.76 988.937 440.86C966.388 438.959 829.449 459.355 829.449 459.355L890.001 637.972L1135.63 871.06H1135.88Z" stroke="#003B2F" stroke-width="4.12929" stroke-linecap="round" stroke-linejoin="round"/><path d="M954.353 597.056C945.486 561.206 950.806 525.736 966.514 498.374C980.069 474.685 1001.35 457.076 1027.83 450.489L1005.91 455.936C979.436 462.524 958.154 480.132 944.599 503.821C928.891 531.183 923.57 566.78 932.438 602.503C949.033 669.136 1008.83 711.7 1066.08 697.512L1088 692.065C1030.87 706.38 970.948 663.816 954.353 597.056Z" fill="#03FC9D"/><path d="M1027.83 450.362C1084.96 436.047 1144.88 478.612 1161.47 545.371C1178.07 612.131 1145.26 677.75 1088.13 691.938C1030.99 706.253 971.074 663.689 954.479 596.929C937.884 530.296 970.694 464.55 1027.83 450.362Z" fill="#03FC9D"/><path d="M1143.23 599.462L1130.44 602.629L1110.29 588.315C1110.29 588.315 1109.41 587.935 1109.03 588.061C1108.65 588.061 1108.27 588.441 1108.01 588.948C1107.51 589.835 1107.89 591.102 1108.65 591.608L1129.93 606.81L1144.12 603.263C1145 603.009 1145.51 601.996 1145.26 600.983C1145 599.969 1144.12 599.209 1143.1 599.462H1143.23ZM1145.38 572.1L1120.18 578.307L1108.14 569.693C1108.14 569.693 1107.25 569.313 1106.87 569.44C1106.49 569.44 1106.11 569.82 1105.86 570.326C1105.35 571.213 1105.73 572.48 1106.49 572.987L1119.8 582.487L1146.27 575.9C1147.16 575.647 1147.67 574.633 1147.41 573.62C1147.16 572.607 1146.27 571.846 1145.38 572.1ZM1130.31 624.545C1130.31 624.545 1129.55 624.925 1129.3 625.305C1118.53 645.32 1101.3 659.001 1081.03 664.068C1060.64 669.136 1039.1 665.082 1020.1 652.414C1019.72 652.161 1019.21 652.034 1018.83 652.161C1018.45 652.161 1018.07 652.541 1017.82 653.047C1017.44 653.934 1017.82 655.201 1018.58 655.708C1038.21 668.756 1060.76 673.063 1081.92 667.742C1103.07 662.422 1120.94 648.107 1132.21 627.332C1132.72 626.445 1132.46 625.305 1131.58 624.671C1131.2 624.418 1130.69 624.291 1130.18 624.418L1130.31 624.545ZM1021.87 610.357C1021.87 610.357 1020.99 609.977 1020.61 610.103C1020.23 610.23 1019.85 610.483 1019.59 610.99L1008.57 633.032L995.777 636.199C994.891 636.453 994.384 637.466 994.637 638.479C994.891 639.493 995.777 640.253 996.791 640L1010.98 636.453L1022.63 613.017C1023.01 612.13 1022.76 610.863 1022 610.357H1021.87ZM1015.79 595.662C1016.3 594.775 1015.92 593.508 1015.16 593.002C1014.78 592.748 1014.27 592.622 1013.89 592.748C1013.51 592.748 1013.13 593.128 1012.88 593.635L1006.29 606.936L981.209 613.144C980.323 613.397 979.816 614.41 980.069 615.424C980.323 616.437 981.209 617.197 982.223 616.944L1008.7 610.357L1016.05 595.789L1015.79 595.662ZM1011.36 582.741C1011.11 581.727 1010.22 580.967 1009.21 581.221L968.415 591.355C967.528 591.608 967.021 592.622 967.275 593.635C967.528 594.649 968.415 595.409 969.428 595.155L1010.22 585.021C1011.11 584.768 1011.61 583.754 1011.36 582.741ZM972.469 542.837L985.263 539.67L1005.4 553.985C1005.4 553.985 1006.29 554.365 1006.67 554.238C1007.05 554.238 1007.43 553.858 1007.69 553.351C1008.19 552.465 1007.81 551.198 1007.05 550.691L985.77 535.49L971.582 539.037C970.695 539.29 970.188 540.303 970.442 541.317C970.695 542.33 971.582 543.09 972.469 542.837ZM1146.27 547.017L1105.48 557.152C1104.59 557.405 1104.09 558.419 1104.34 559.432C1104.59 560.445 1105.48 561.205 1106.49 560.952L1147.28 550.818C1148.17 550.564 1148.68 549.551 1148.43 548.538C1148.17 547.524 1147.16 546.764 1146.27 547.017ZM1099.91 546.637C1099.4 547.524 1099.78 548.791 1100.54 549.298C1100.92 549.551 1101.43 549.678 1101.81 549.551C1102.19 549.551 1102.57 549.171 1102.82 548.664L1109.41 535.363L1134.62 529.156C1135.5 528.902 1136.01 527.889 1135.76 526.876C1135.5 525.862 1134.49 525.102 1133.6 525.355L1107.13 531.943L1099.78 546.511L1099.91 546.637ZM1093.83 531.816C1093.83 531.816 1094.71 532.196 1095.09 532.069C1095.47 532.069 1095.85 531.689 1096.11 531.183L1107.13 509.141L1119.92 505.974C1120.81 505.72 1121.32 504.707 1121.06 503.693C1120.81 502.68 1119.8 501.92 1118.91 502.173L1104.72 505.72L1093.07 529.156C1092.56 530.042 1092.94 531.309 1093.7 531.816H1093.83ZM970.315 570.073L995.397 563.866L1007.43 572.48C1007.43 572.48 1008.32 572.86 1008.7 572.733C1009.08 572.733 1009.46 572.353 1009.71 571.846C1010.22 570.96 1009.84 569.693 1009.08 569.186L995.777 559.685L969.302 566.273C968.415 566.526 967.908 567.539 968.161 568.553C968.415 569.566 969.302 570.326 970.315 570.073ZM985.263 517.628C985.263 517.628 986.023 517.248 986.276 516.868C997.044 496.853 1014.15 483.171 1034.54 478.104C1054.94 473.037 1076.47 477.218 1095.47 489.759C1095.85 490.012 1096.36 490.139 1096.74 490.012C1097.12 490.012 1097.5 489.632 1097.75 489.125C1098.13 488.239 1097.75 486.972 1096.99 486.465C1077.36 473.417 1054.81 469.11 1033.65 474.431C1012.5 479.751 994.637 494.066 983.363 514.841C982.856 515.728 983.11 516.868 983.996 517.501C984.376 517.881 984.883 517.881 985.263 517.755V517.628Z" fill="#A9FEDE"/><path d="M1080.52 558.038C1085.21 554.238 1087.62 549.044 1085.34 541.95C1082.3 532.196 1072.42 531.056 1060.51 532.956L1057.72 519.021L1048.73 521.175L1051.51 534.729C1049.11 535.363 1046.7 535.996 1044.29 536.503L1041.51 522.821L1032.51 524.975L1035.3 538.91C1033.4 539.416 1031.5 539.923 1029.6 540.43L1017.19 543.343L1019.09 552.338C1019.09 552.338 1025.67 550.564 1025.55 550.691C1029.22 549.804 1030.74 551.451 1031.5 553.098L1034.79 568.933C1034.79 568.933 1035.43 568.806 1035.81 568.806C1035.55 568.806 1035.17 568.932 1034.79 569.059L1039.35 591.228C1039.35 592.368 1039.1 594.268 1036.57 594.902L1029.98 596.422L1030.23 606.936L1041.89 604.149C1042.52 604.022 1043.15 603.769 1043.79 603.642C1045.31 603.262 1046.83 602.882 1048.22 602.629L1051.13 616.69L1060.13 614.537L1057.22 600.602C1058.23 600.349 1059.24 600.222 1060.13 599.969C1061.52 599.589 1063.04 599.335 1064.44 598.955L1064.94 601.236L1067.22 612.763L1076.22 610.61L1075.08 605.289L1073.3 596.675C1088.25 592.115 1098.13 586.034 1096.74 572.353C1095.6 561.332 1089.27 557.785 1080.27 558.038H1080.52ZM1046.57 546.384C1051.64 545.117 1067.35 539.796 1069.38 549.677C1071.28 559.305 1055.19 561.965 1050.12 563.232L1046.7 546.257L1046.57 546.384ZM1055.57 590.468L1051.77 571.846C1057.85 570.326 1076.6 564.119 1078.88 575.013C1081.03 585.527 1061.65 588.948 1055.57 590.468Z" fill="#003B2F"/><path d="M1161.47 545.372C1153.24 512.056 1134.11 484.693 1109.92 467.592C1085.72 450.363 1056.46 443.269 1027.95 450.49C970.822 464.805 937.886 530.424 954.481 597.057C962.715 630.247 981.843 657.61 1005.91 674.711C1030.11 691.939 1059.5 699.16 1088.13 691.939C1145.26 677.625 1178.19 612.005 1161.47 545.372Z" stroke="#003B2F" stroke-width="4.12929" stroke-linecap="round" stroke-linejoin="round"/><path d="M1185.78 473.305C1189 468.434 1197.15 463.417 1201.95 461.863C1200.69 462.329 1199.34 463.031 1198.1 463.779C1195.42 465.467 1192.92 467.763 1190.94 470.804C1190.94 470.804 1190.85 471.041 1190.8 471.159C1181.6 485.272 1185.08 508.44 1198.73 522.75C1198.97 522.841 1199.11 523.168 1199.3 523.377C1199.42 523.422 1199.61 523.631 1199.69 523.795C1208.33 532.393 1218.87 535.339 1227.61 532.714C1228.66 532.439 1229.64 532.001 1230.62 531.563C1220.74 537.546 1204.2 536.101 1193.66 525.015C1180.01 510.705 1176.53 487.536 1185.73 473.423L1185.78 473.305Z" fill="#03FC9D"/><path d="M1190.73 470.995C1190.73 470.995 1190.82 470.759 1190.86 470.64C1192.84 467.599 1195.35 465.303 1198.03 463.616C1199.26 462.868 1200.57 462.284 1201.88 461.699C1201.88 461.699 1201.88 461.699 1202.04 461.626C1211.29 458.381 1222.82 461.572 1231.97 471.315C1245.58 485.744 1249.1 508.793 1239.9 522.907C1237.33 526.804 1234.12 529.51 1230.48 531.236C1229.5 531.674 1228.51 532.112 1227.46 532.387C1218.72 535.012 1208.19 532.065 1199.54 523.467C1199.42 523.422 1199.23 523.213 1199.16 523.05C1198.92 522.959 1198.78 522.632 1198.58 522.423C1184.93 508.113 1181.46 484.945 1190.65 470.832L1190.73 470.995Z" fill="#E6E8EA"/><path d="M1185.75 473.023C1188.97 468.152 1197.13 463.136 1201.93 461.581C1200.66 462.047 1199.31 462.75 1198.07 463.498C1195.39 465.185 1192.89 467.481 1190.91 470.522C1190.91 470.522 1190.82 470.759 1190.77 470.877C1181.58 484.99 1185.05 508.158 1198.7 522.469C1198.94 522.559 1199.08 522.886 1199.28 523.095C1199.39 523.14 1199.59 523.349 1199.66 523.513C1208.3 532.111 1218.84 535.058 1227.58 532.432C1228.63 532.158 1229.61 531.719 1230.6 531.281C1220.71 537.265 1204.17 535.82 1193.63 524.733C1179.98 510.423 1176.5 487.255 1185.7 473.142L1185.75 473.023Z" stroke="#03FC9D" stroke-width="4.12929" stroke-linecap="round" stroke-linejoin="round"/><path d="M1190.7 470.713C1190.7 470.713 1190.79 470.477 1190.83 470.359C1192.81 467.317 1195.32 465.021 1198 463.334C1199.23 462.586 1200.54 462.002 1201.85 461.417C1201.85 461.417 1201.85 461.417 1202.02 461.344C1211.26 458.1 1222.79 461.29 1231.95 471.033C1245.55 485.462 1249.07 508.511 1239.87 522.625C1237.3 526.522 1234.09 529.228 1230.45 530.954C1229.47 531.392 1228.49 531.83 1227.43 532.105C1218.69 534.73 1208.16 531.784 1199.51 523.185C1199.39 523.14 1199.2 522.931 1199.13 522.768C1198.89 522.677 1198.75 522.35 1198.55 522.141C1184.91 507.831 1181.43 484.663 1190.63 470.55L1190.7 470.713Z" stroke="#003B2F" stroke-width="4.12929" stroke-linecap="round" stroke-linejoin="round"/><path d="M1224.62 489.117C1226.19 487.141 1226.74 484.639 1225.22 481.886C1223.14 478.106 1219.03 478.568 1214.37 480.449L1212.01 474.933L1208.48 476.703L1210.77 482.056C1209.91 482.54 1208.93 482.978 1208.07 483.461L1205.82 477.99L1202.29 479.761L1204.66 485.277C1203.96 485.688 1203.14 486.053 1202.44 486.463L1197.61 488.818L1199.1 492.372L1201.64 491.039C1202.99 490.337 1203.85 490.936 1204.31 491.517L1206.92 497.806C1206.92 497.806 1207.08 497.733 1207.25 497.66C1207.25 497.66 1207.04 497.851 1206.92 497.806L1210.58 506.667C1210.58 506.667 1210.76 507.959 1209.74 508.515L1207.19 509.847L1208.2 514.302L1212.75 511.975C1212.75 511.975 1213.24 511.756 1213.57 511.61C1214.23 511.318 1214.76 510.98 1215.25 510.761L1217.57 516.396L1221.1 514.626L1218.73 509.109C1218.73 509.109 1219.55 508.744 1219.88 508.598C1220.41 508.26 1221.02 508.086 1221.56 507.749L1221.88 508.685L1223.76 513.339L1227.29 511.568L1226.34 509.442L1224.92 506.052C1230.64 502.813 1234.16 499.278 1232.52 493.633C1231.11 489.16 1228.23 488.192 1224.62 489.117ZM1209.77 487.506C1211.78 486.511 1217.68 482.799 1219.43 486.725C1220.95 490.56 1214.66 493.173 1212.65 494.167L1209.82 487.387L1209.77 487.506ZM1217.14 505.11L1214.02 497.676C1216.36 496.535 1223.61 492.12 1225.34 496.446C1227.12 500.654 1219.48 503.969 1217.03 505.065L1217.14 505.11Z" fill="#003B2F"/><path d="M816.371 688.482C809.592 687.725 799.83 681.877 795.606 677.524C796.831 678.631 798.179 679.705 799.615 680.622C802.799 682.635 806.58 683.956 810.926 684.465C811.048 684.432 811.17 684.398 811.326 684.486C831.232 686.614 853.703 670.424 861.402 648.324C861.579 648.013 861.6 647.613 861.654 647.335C861.621 647.213 861.797 646.901 861.886 646.745C866.221 632.933 863.672 620.363 856.137 612.587C855.223 611.656 854.343 610.848 853.341 610.073C865.04 617.226 872.428 635.425 866.392 652.598C858.572 674.731 836.222 690.888 816.317 688.76L816.371 688.482Z" fill="#03FC9D"/><path d="M811.326 684.487C811.326 684.487 811.082 684.554 810.926 684.466C806.703 683.923 802.921 682.602 799.615 680.623C798.179 679.705 796.865 678.754 795.606 677.524C795.606 677.524 795.572 677.402 795.416 677.314C787.014 669.251 784.162 655.583 789.482 640.578C797.303 618.445 819.653 602.288 839.558 604.416C844.982 605.022 849.698 606.874 853.396 609.796C854.398 610.571 855.4 611.345 856.192 612.309C863.727 620.086 866.188 632.811 861.941 646.468C861.974 646.59 861.798 646.901 861.709 647.057C861.655 647.335 861.511 647.769 861.457 648.047C853.636 670.181 831.286 686.337 811.381 684.209L811.326 684.487Z" fill="#E6E8EA"/><path d="M816.161 688.671C809.381 687.914 799.619 682.067 795.395 677.713C796.621 678.82 797.968 679.894 799.405 680.812C802.588 682.824 806.37 684.146 810.716 684.655C810.838 684.621 810.96 684.587 811.116 684.676C831.021 686.804 853.493 670.614 861.191 648.514C861.368 648.202 861.389 647.802 861.444 647.524C861.41 647.402 861.587 647.09 861.675 646.934C866.011 633.122 863.461 620.553 855.927 612.776C855.013 611.846 854.133 611.037 853.13 610.263C864.829 617.415 872.218 635.614 866.182 652.787C858.361 674.921 836.012 691.077 816.106 688.949L816.161 688.671Z" stroke="#03FC9D" stroke-width="4.12929" stroke-linecap="round" stroke-linejoin="round"/><path d="M811.115 684.677C811.115 684.677 810.871 684.744 810.715 684.656C806.492 684.113 802.71 682.791 799.404 680.813C797.968 679.895 796.654 678.943 795.395 677.714C795.395 677.714 795.361 677.592 795.205 677.503C786.804 669.441 783.951 655.772 789.271 640.768C797.092 618.634 819.442 602.478 839.347 604.606C844.771 605.211 849.487 607.064 853.185 609.985C854.187 610.76 855.19 611.535 855.981 612.499C863.516 620.276 865.977 633.001 861.73 646.657C861.764 646.779 861.587 647.091 861.498 647.247C861.444 647.525 861.3 647.959 861.246 648.236C853.425 670.37 831.075 686.527 811.17 684.399L811.115 684.677Z" stroke="#003B2F" stroke-width="4.12929" stroke-linecap="round" stroke-linejoin="round"/><path d="M833.504 648.666C836.473 649.424 839.316 648.771 841.606 645.642C844.637 641.388 842.102 636.963 837.633 632.677L842.45 627.274L838.718 624.23L834.024 629.599C833.022 628.825 832.019 628.05 831.017 627.275L835.711 621.906L831.98 618.862L827.164 624.265C826.317 623.579 825.504 623.015 824.814 622.417L819.701 618.177L816.589 621.664L819.285 623.811C820.822 625.095 820.603 626.207 820.161 626.986L814.658 633.236C814.658 633.236 814.848 633.447 815.004 633.535C814.97 633.413 814.814 633.324 814.658 633.236L806.941 641.937C806.941 641.937 805.577 642.708 804.574 641.933L801.879 639.786L797.69 643.176L802.457 647.117C802.457 647.117 802.958 647.504 803.303 647.803C803.96 648.279 804.495 648.788 805.152 649.264L800.247 654.823L803.979 657.867L808.795 652.464C808.795 652.464 809.642 653.15 809.987 653.449C810.522 653.959 811.179 654.434 811.714 654.944L810.905 655.824L806.897 660.347L810.628 663.391L812.544 661.285L815.533 657.832C821.981 662.623 827.565 664.762 832.794 659.901C836.971 655.989 836.482 652.313 833.627 648.633L833.504 648.666ZM827.729 631.074C829.767 632.745 836.859 637.49 833.36 641.478C830.072 645.277 823.877 639.496 821.805 637.703L827.729 631.074ZM812.382 648.32L818.904 641C821.443 643.059 829.727 648.789 825.93 653.123C822.22 657.3 814.922 650.379 812.382 648.32Z" fill="#003B2F"/><path d="M1516.77 332.013H1594.3" stroke="#003B2F" stroke-width="3" stroke-linecap="round" stroke-linejoin="round"/><path d="M1457.82 332.013H1477.32" stroke="#003B2F" stroke-width="3" stroke-linecap="round" stroke-linejoin="round"/><path d="M1469.32 282.839H1670.37" stroke="#03FC9D" stroke-width="3" stroke-linecap="round" stroke-linejoin="round"/><path d="M1378.45 150.005L1404.01 164.774" stroke="#003B2F" stroke-width="3" stroke-linecap="round" stroke-linejoin="round"/><path d="M1429.68 150.005L1414.61 158.663" stroke="#003B2F" stroke-width="3" stroke-linecap="round" stroke-linejoin="round"/><path d="M1404.02 164.775V194.617" stroke="#003B2F" stroke-width="3" stroke-linecap="round" stroke-linejoin="round"/><path d="M377.021 168.024H620.98" stroke="#03FC9D" stroke-width="3" stroke-linecap="round" stroke-linejoin="round"/><path d="M348.217 200.722H484.65" stroke="#003B2F" stroke-width="3" stroke-linecap="round" stroke-linejoin="round"/><path d="M1556.62 769.751C1567.82 769.751 1576.91 760.664 1576.91 749.455C1576.91 738.246 1567.82 729.159 1556.62 729.159C1545.41 729.159 1536.32 738.246 1536.32 749.455C1536.32 760.664 1545.41 769.751 1556.62 769.751Z" stroke="#003B2F" stroke-width="3" stroke-linecap="round" stroke-linejoin="round"/><path d="M223.961 694.076V718.165" stroke="#003B2F" stroke-width="3" stroke-linecap="round" stroke-linejoin="round"/><path d="M223.961 735.795V759.986" stroke="#003B2F" stroke-width="3" stroke-linecap="round" stroke-linejoin="round"/><path d="M190.954 726.98H215.145" stroke="#003B2F" stroke-width="3" stroke-linecap="round" stroke-linejoin="round"/><path d="M232.776 726.98H256.865" stroke="#003B2F" stroke-width="3" stroke-linecap="round" stroke-linejoin="round"/></svg>