<svg xmlns="http://www.w3.org/2000/svg" viewBox="0 0 32 32"><defs><linearGradient id="a" x1="90.7%" x2="16.3%" y1="22.7%" y2="85.3%"><stop offset="0" stop-color="#B6509E"/><stop offset="1" stop-color="#2EBAC6"/></linearGradient></defs><g fill="none"><circle cx="16" cy="16" r="16" fill="url(#a)"/><path fill="#fff" d="M23.001 22.374 17.589 9.295c-.306-.676-.758-1.007-1.356-1.007h-.479c-.598 0-1.05.331-1.356 1.007l-2.353 5.698h-1.782a.974.974 0 0 0-.97.967v.014a.974.974 0 0 0 .97.967h.957l-2.247 5.433a1.1 1.1 0 0 0-.066.37c0 .306.093.544.266.73s.412.278.718.278a.97.97 0 0 0 .558-.186 1.2 1.2 0 0 0 .386-.49l2.473-6.135h1.715a.974.974 0 0 0 .97-.968v-.026a.974.974 0 0 0-.97-.967h-.917l1.888-4.704 5.146 12.8c.093.198.212.37.385.49a.97.97 0 0 0 .559.185q.459 0 .718-.278c.173-.185.266-.424.266-.729a.9.9 0 0 0-.067-.37"/></g></svg>