<svg xmlns="http://www.w3.org/2000/svg" viewBox="0 0 32 32"><g fill="none"><circle cx="16" cy="16" r="16" fill="#FFF"/><g fill="#0033AD"><path d="M10.577 16.008a1.62 1.62 0 0 0 1.522 1.706h.093a1.617 1.617 0 1 0-1.615-1.706m-6.025-.416a.522.522 0 1 0-.059 1.043.522.522 0 0 0 .059-1.043m5.922-8.964A.522.522 0 1 0 10 5.697a.522.522 0 0 0 .474.93m1.64 2.859a.807.807 0 1 0-.727-1.44.807.807 0 0 0 .727 1.44m-5.517 1.966a.665.665 0 1 0 .729-1.112.665.665 0 0 0-.729 1.112m.983 3.852a.808.808 0 1 0-.093 1.613.808.808 0 0 0 .093-1.613m-.892 5.422a.665.665 0 1 0 .598 1.188.665.665 0 0 0-.598-1.188m3.136-7.093a.95.95 0 1 0 1.042-1.588.95.95 0 0 0-1.042 1.588m9.95-4.211a.808.808 0 1 0 .886-1.35.808.808 0 0 0-.886 1.35m1.656-2.85a.522.522 0 1 0 .572-.873.522.522 0 0 0-.572.873m-1.53 7.894a1.616 1.616 0 0 0-.183 3.227h.093a1.616 1.616 0 0 0 .09-3.23z"/><path d="M12.645 13.521a1.616 1.616 0 1 0 0-.002zm12.667-2.071a.665.665 0 1 0-.603-1.185.665.665 0 0 0 .603 1.186m-4.096.514a.95.95 0 1 0 .855 1.696.95.95 0 0 0-.855-1.696M15.94 6.329A.665.665 0 1 0 16.013 5a.665.665 0 0 0-.075 1.328m-.006 4.184a.95.95 0 1 0 .104-1.896.95.95 0 0 0-.104 1.896m-5.148 9.7a.95.95 0 1 0-.854-1.697.95.95 0 0 0 .854 1.697m5.76-8.313a1.614 1.614 0 1 0 2.701 1.767 1.614 1.614 0 0 0-2.701-1.767m2.811 6.757a1.617 1.617 0 1 0-.716 2.17 1.607 1.607 0 0 0 .716-2.17m2.821-.112a.95.95 0 1 0-1.042 1.588.95.95 0 0 0 1.042-1.588m3.096-2.428a.808.808 0 1 0-1.612-.093.808.808 0 0 0 1.612.093m2.235-.575a.522.522 0 1 0-.058 1.043.522.522 0 0 0 .058-1.043m-2.104 5.183a.665.665 0 1 0-.728 1.112.665.665 0 0 0 .728-1.112m-14.833 4.88a.522.522 0 1 0-.574.873.522.522 0 0 0 .574-.873m10.955-.054a.522.522 0 1 0 .474.93.522.522 0 0 0-.474-.93m-6.069-5.273a1.616 1.616 0 1 0-2.703-1.771 1.616 1.616 0 0 0 2.703 1.771m-3.23 2.477a.808.808 0 1 0-.886 1.35.808.808 0 0 0 .886-1.35m3.766 3.093a.665.665 0 1 0-.075 1.328.665.665 0 0 0 .075-1.328M16 21.664a.95.95 0 1 0-.105 1.896.95.95 0 0 0 .104-1.896m3.886 1.026a.808.808 0 1 0 .733 1.44.808.808 0 0 0-.733-1.44"/></g></g></svg>