<svg xmlns="http://www.w3.org/2000/svg" viewBox="0 0 32 32"><g fill="none" fill-rule="evenodd"><circle cx="16" cy="16" r="16" fill="#F2E3EE" fill-rule="nonzero"/><circle cx="16" cy="16" r="16" fill="#D9327C" fill-rule="nonzero"/><path fill="#FFF" d="M15.35 8.175c-.132.1-.282.283-.401.641-.112.336-.701 2.049-1.438 4.184h4.978c-.736-2.135-1.325-3.848-1.437-4.184-.12-.358-.27-.542-.402-.641C16.523 8.079 16.328 8 16 8s-.522.08-.65.175M8 13h3.396a1679 1679 0 0 0 1.656-4.816c.213-.642.564-1.208 1.098-1.609C14.69 6.171 15.328 6 16 6s1.311.17 1.85.575c.535.4.885.967 1.099 1.609.12.36.817 2.385 1.656 4.816H24a1 1 0 0 1 0 2H8a1 1 0 1 1 0-2m0 4a1 1 0 1 0 0 2h1.324l-.535 1.548-.533 1.543-.2.582a1 1 0 1 0 1.89.654l.2-.582.534-1.543.76-2.202h9.12c.28.81.54 1.56.76 2.202l.534 1.543.201.582a1 1 0 1 0 1.89-.654l-.2-.582-.534-1.543L22.676 19H24a1 1 0 0 0 0-2zm15 6 .945-.327zm0 0-.945.327zM9 23l.945.327zm0 0-.945-.327z"/></g></svg>