<svg xmlns="http://www.w3.org/2000/svg" viewBox="0 0 32 32"><path fill="#3164fa" d="M16 0c8.84 0 16 7.16 16 16s-7.16 16-16 16S0 24.84 0 16 7.16 0 16 0"/><path fill="#fff" fill-rule="evenodd" d="m13.1 5.64-1.12-1.19c1.94-.25 7.04.07 11.99 3.35.06.45.05.9.05.9l.36.2c.2.36.41.88.54 1.49.16.75.21 1.6.02 2.42a5.8 5.8 0 0 1-.89 2.01c-.26.37-.5.63-.66.77-.63.01-1.81.44-2.14 1.91-1.01.58-2.6 1.16-4.7 1.16s-4.05-.58-5.59-1.71c-1.53-1.12-2.56-2.78-2.56-4.96 0-1.74.78-3.09 1.77-4.09s2.35-1.81 3.13-2.08l-.2-.17Zm8.68 2.85c-.39.42-.75.63-.86.68-2.27-.51-3.09-1.74-3.09-1.74 2.14-.01 4.08.52 5.5 1.42 0 0-.77-.26-1.55-.37Z"/><path fill="#fff" d="M11.95 5.97c-4.87.98-8.59 5.37-8.59 10.68 0 6.71 5.66 12.25 12.65 12.25 5.22 0 9.56-3.19 11.83-7.47-3.02.72-6.63-.56-6.65-3.35-1.09.56-2.65 1.06-4.64 1.06-2.09 0-4.25-.6-5.88-1.8-1.64-1.2-2.76-3-2.76-5.36 0-1.9.85-3.37 1.91-4.44.61-.61 1.45-1.19 2.13-1.58Zm13.47 4.32c-.07-.31-.15-.6-.25-.86 1.31.98 2.33 2.32 2.25 4.18-.12 2.69-1.74 3.74-2.78 3.92.5-.84.08-1.36-.08-1.54-.08-.09-.25-.23-.53-.32.14-.16.29-.34.45-.56.38-.54.76-1.28.97-2.18.21-.91.15-1.84-.02-2.63Z"/></svg>