<svg xmlns="http://www.w3.org/2000/svg" viewBox="0 0 32 32"><defs><linearGradient id="c" x1="-1.97" x2="36.26" y1="-2.15" y2="36.07" gradientUnits="userSpaceOnUse"><stop offset=".21" stop-color="#89d0ff"/><stop offset=".4" stop-color="#ffcfa7"/><stop offset=".6" stop-color="#ff8bed"/><stop offset=".84" stop-color="#a281ff"/></linearGradient><linearGradient id="d" x1="-4.7" x2="30.64" y1="-4.89" y2="30.45" gradientUnits="userSpaceOnUse"><stop offset=".21" stop-color="#89d0ff"/><stop offset=".4" stop-color="#ffcfa7"/><stop offset=".6" stop-color="#ff8d8b"/><stop offset=".84" stop-color="#a281ff"/></linearGradient><linearGradient id="e" x1="-.92" x2="31.51" y1="-1.11" y2="31.32" gradientUnits="userSpaceOnUse"><stop offset=".21" stop-color="#89d0ff"/><stop offset=".4" stop-color="#ffcfa7"/><stop offset=".6" stop-color="#ff8bfb"/><stop offset=".84" stop-color="#a281ff"/></linearGradient><linearGradient id="f" x1="-1.26" x2="28.46" y1="-1.44" y2="28.28" gradientUnits="userSpaceOnUse"><stop offset=".21" stop-color="#89d0ff"/><stop offset=".4" stop-color="#ffcfa7"/><stop offset=".6" stop-color="#ff8be5"/><stop offset=".84" stop-color="#a281ff"/></linearGradient><linearGradient id="g" x1="1.53" x2="28.31" y1="1.35" y2="28.12" gradientUnits="userSpaceOnUse"><stop offset=".21" stop-color="#89d0ff"/><stop offset=".4" stop-color="#ffcfa7"/><stop offset=".6" stop-color="#b08bff"/><stop offset=".84" stop-color="#a281ff"/></linearGradient><radialGradient id="a" cx="-48.91" cy="36.35" r=".56" fx="-48.91" fy="36.35" gradientTransform="matrix(32 0 0 -32 1581 1181)" gradientUnits="userSpaceOnUse"><stop offset=".17" stop-color="#073183"/><stop offset="1" stop-color="#0054f9"/></radialGradient><clipPath id="b"><path fill="none" d="M16 0c8.84 0 16 7.16 16 16s-7.16 16-16 16S0 24.84 0 16 7.16 0 16 0"/></clipPath></defs><path fill="url(#a)" d="M16 0c8.84 0 16 7.16 16 16s-7.16 16-16 16S0 24.84 0 16 7.16 0 16 0"/><g clip-path="url(#b)" opacity=".8"><path fill="url(#c)" d="M30.73 3.39C28.45.42 25.11-1.4 21.07-1.29c-1.62 0-3.21.2-4.8.48-.27.06-.56.12-.82.22-.45.19-.93.36-1.42.26-.51-.12-1.05 0-1.57.03C9.66-.33 6.78.78 4.99 2.98 3.6 4.71 3.04 6.64 2.64 8.74a.95.95 0 0 1-.17.35c-1 1.32-1.29 2.77-1.8 4.33-1 1.57-2.12 3.32-2.3 5.05-.4 2.17.39 5.05 1.44 7.11 1.06 2.51 2.73 4.56 5.12 5.82 2.51 1.26 5.46 1.3 8.24 1.39 2.32.1 3.73-.52 5.6-.74.88 0 1.78-.05 2.65-.23 4.06-1.05 7.07-4.98 7.96-9.09.12-.55.06-1.2.54-1.6 1.88-1.7 3.14-4.08 3.47-6.6 1.55-3.77.86-8.58-2.65-11.13Zm-1.58 19.29c-1.02 4.76-5.02 9.35-10.09 9.14-.47 0-.95.01-1.4.16-1.6.56-4.16.67-6.2.54-2.31-.15-4.69-.32-6.65-1.43C2.58 29.85 1 27.83.01 25.48c-1.8-3.56-2.26-7.53.17-10.86.28-.43.84-1.27.93-1.77.26-1.48.84-2.63 1.66-3.84.52-2.31 1.09-4.54 2.77-6.35C7.35.86 9.86-.12 12.41-.08l.76-.07c.77-.06 1.48.24 2.19-.17.5-.2 1.04-.3 1.56-.38 1.37-.2 2.76-.37 4.14-.37 4-.11 7.28 1.71 9.51 4.62 5.07 3.7 3.51 10.95.77 15.58-.74 1.23-2.26 1.94-2.2 3.54Z"/><path fill="url(#d)" d="M29.52 4.23C27.59 1.57 24.61.07 21.07.14c-1.89.03-3.81.16-5.53 1-1.13.66-2.39-.18-3.6 0-2.2.09-4.42 1.02-5.83 2.73-1.35 1.61-1.7 3.58-2.18 5.53-.05.11-.14.29-.22.39-1.25 1.51-1.14 3.32-2.09 4.93-2.55 2.96-2.28 6.79-.56 10.13.92 2.26 2.49 4.31 4.73 5.36 1.87.9 4.06.97 6.12 1.11 1.86.1 4.14-.04 5.53-.55.39-.13.85-.15 1.26-.16.79 0 1.6-.03 2.38-.2 3.49-.89 6.12-4.44 6.88-7.95.19-.7-.05-1.59.61-2.08a9.42 9.42 0 0 0 3.41-6.21c1.48-3.57.83-7.6-2.46-9.93Zm-1.63 17.06c-.06 2.19-1.11 4.06-2.36 5.78-1.7 2.32-4.1 3.46-6.84 3.33-1.94.16-3.44.89-5.8.74-.35 0-.77-.02-1.12-.03-.7-.04-1.45-.07-2.15-.17-5.34-.32-7.77-3.77-9.3-8.51-.84-2.92-.39-5.24 1.47-7.59.96-1.55.82-3.34 2.02-4.81.13-.17.26-.41.34-.61.78-4.49 2.8-7.73 7.72-8.06 1.22-.19 2.46.63 3.62.05C17.22.53 19.17.39 21.07.36c3.49-.09 6.43 1.43 8.3 4.02 2.5 1.79 3.66 4.76 2.97 7.76-.57 2.1-.84 4.36-2.15 6.17-.56 1.16-2.12 1.68-2.31 2.98Z"/><path fill="url(#e)" d="M28.63 5.37c-.14-.12-.27-.26-.38-.4-1.64-2.27-4.16-3.43-7.18-3.38-2.14.02-4.03.19-5.94 1.4-1.03.22-2.08-.64-3.19-.4-2.61.06-5.18 1.79-5.86 4.36-.28.75-.52 1.53-.6 2.33-.14.42-.26.88-.52 1.24-.16.25-.34.5-.48.76-.71 1.03-.67 2.29-1.09 3.42-.12.28-.39.57-.57.81-1.58 1.95-2.07 3.91-1.35 6.46.23.9.66 1.76 1.03 2.6.78 1.82 2.07 3.47 3.89 4.33 1.73.82 3.74.84 5.62.97 1.71.09 3.87-.04 5.09-.52.54-.21 1.22-.17 1.79-.2 3.83.32 6.89-3.45 7.65-6.97.18-.98-.03-2.16.94-2.79.59-.43 1.11-.96 1.53-1.55.9-1.18 1.42-2.62 1.58-4.09 1.3-3.07.87-6.4-1.97-8.39Zm1.77 8.4c-.21 2.13-1.3 4.19-3.03 5.48-1.01.65-.84 1.88-1.01 2.91-.22 1.18-.6 1.99-1.28 3.05-1.47 2.5-3.63 3.96-6.46 3.77-1.98.09-3.43.92-5.83.73-.67 0-1.36-.05-2.03-.09-1.51-.13-3.1-.26-4.43-.95-1.74-.89-2.95-2.5-3.7-4.28-.33-.76-.73-1.55-.95-2.35-.87-2.77-.09-4.87 1.66-6.89.26-.37.44-.85.49-1.29.09-1.09.52-2.09 1.12-2.99.34-.45.56-1 .71-1.56.08-.82.34-1.61.62-2.38.69-2.49 3.19-4.1 5.72-4.15.98-.11 1.86.33 2.79.5.13 0 .27-.04.39-.1 1.42-.86 2.54-1.19 4.03-1.3 3.39-.46 7.03.45 8.89 3.26.83.89 1.86 1.48 2.39 2.67.96 1.89.61 4.06-.12 5.96Z"/><path fill="url(#f)" d="M27.68 6.42c-.2-.18-.39-.38-.56-.6-1.41-1.95-3.46-2.86-6.05-2.82-2.23-.1-4.03.48-6.07 1.59-1 .1-2.03-.8-2.97-.59-2.03.05-4 1.26-4.58 3.3-.27.73-.51 1.47-.58 2.24-.13.48-.3.98-.53 1.43-.21.35-.48.7-.67 1.06-.55.9-.65 1.88-.65 2.9-.14.48-.6.71-.88 1.17-.06.14-.45.54-.51.67-1.1 1.56-1.34 2.86-.8 4.82.32 1.12.84 2.13 1.34 3.16.98 1.93 2.79 3.28 5 3.45.3.04.81.09 1.11.13 2.02.19 5.11.29 6.66-.46.32-.12.73-.1 1.07-.12.79-.05 1.6.02 2.38-.15 2.6-.97 4.97-4.14 4.84-6.97-.03-.69-.21-1.59.59-1.93 2.11-.92 3.16-3.35 3.46-5.54 1.05-2.63.77-5.1-1.62-6.76Zm1.42 6.67c-.31 1.31-.44 2.57-1.33 3.68-.68 1.47-2.77 1.45-2.78 3.06 0 .22.04.53.04.75.26 2.85-2.92 7.21-5.96 6.95-.47 0-1.04.03-1.51.05-.12 0-.27.03-.39.03-1.14.41-2.17.68-4 .66-1.24 0-2.51-.09-3.74-.24-2.42-.14-4.32-1.63-5.28-3.81-.37-.83-.82-1.69-1.07-2.57-.57-1.98-.33-3.29.78-4.8.04-.06.33-.43.39-.51.33-.55.87-.8 1-1.39 0-1.02.11-2 .68-2.9.19-.36.5-.73.68-1.09.21-.43.37-.91.49-1.37.06-.7.25-1.37.51-2.02.52-2.06 2.41-3.29 4.44-3.35.94-.22 2.01.78 3.03.58 2.01-1.09 3.8-1.68 5.99-1.57 2.38-.03 4.33.76 5.65 2.45.27.35.54.69.89.98 2.23 1.5 2.48 4.02 1.48 6.44Z"/><path fill="url(#g)" d="M28.07 8.85c-.53-.87-1.52-1.33-2.1-2.16-1.94-2.83-6.56-2.85-9.45-1.21-.73.28-1.59.94-2.37.57a3.684 3.684 0 0 0-4.71.52c-.93 1.17-.97 2.79-1.43 4.16-.38 1.25-1.52 2.15-1.53 3.48 0 .2.03.41.07.6.07.19.25.53.09.7-.71.63-1.32 1.39-1.88 2.15-1.29 1.57-.71 3.57.14 5.27.63 1.5 1.36 2.69 2.61 3.34 1.15.59 2.61.59 3.89.72 1.53.12 3.98.1 5.01-.42.29-.13.6-.18.91-.2.42-.03 1.08-.05 1.5-.07 1.67.24 2.91-1.02 3.86-2.31.97-1.25 1.29-2.69 1.1-4.24-.02-.27-.03-.56-.02-.83 0-.64.49-1.11 1.03-1.34.79-.24 1.4-.69 1.94-1.45.84-.97.9-2.25 1.21-3.42.5-1.2.77-2.8.13-3.87Zm-.48 4.28c-.12.99-.36 2-.98 2.8-.75 1.51-2.79 1.16-3.07 2.84-.02.3 0 .62.01.92.17 1.61-.03 2.85-1.09 4.23-.67.84-1.51 1.88-2.53 2.11-.79.11-1.65.05-2.44.11-.21 0-.43.03-.63.06-1.45.61-3.57.74-5.33.58-.54-.03-1.13-.08-1.67-.15-.76-.08-1.54-.17-2.22-.53-1.3-.62-2.06-2.04-2.68-3.55-.8-1.61-1.15-3.45 0-4.81.56-.74 1.08-1.42 1.8-2.06.37-.34-.06-.82-.06-1.22-.16-1.34 1.06-2.33 1.46-3.54.34-.76.35-1.62.6-2.4.07-.2.16-.42.22-.62.4-1.52 1.69-2.22 3.2-2.27.63-.05 1.25.27 1.86.6.96.44 2.01-.35 2.87-.74 2.64-1.33 6.74-1.35 8.63 1 .33.43.63.8 1.04 1.16.49.47 1.07.8 1.35 1.41.64 1.19.08 2.82-.35 4.07Z"/></g><g fill="#fff"><path d="M26.88 11.01c-.04.28-.12.54-.24.8-.15.34-.25.69-.31 1.05-.03.17-.06.34-.08.51s0 .02 0 .02c-.03.22-.05.37-.14.64-.11.35-.27.68-.49.97-.24.32-.64.85-1.17.91-.06 0-.12 0-.18-.01-1.51-.77-2.81-1.34-3.26-1.47-.52-.15-.45-1.29-.4-2.29.03-.45.05-.87.03-1.24-.07-1.27-.3-2.66-1.4-3.34-.66-.4-1.51-.52-2.33-.52.15-.07.32-.17.5-.28.48-.28 1.07-.62 1.66-.69l.57-.06c1.19-.13 2.22-.25 3.31.12.49.17 1.5.73 1.76 1.26.18.37.49.66 1.11 1.23.32.3.53.47.69.6.22.19.26.22.33.36.2.41.13.84.03 1.44Zm-5.53 5.21c.09.03.12.14.07.21-.16.24-.34.57-.55.97-.09.17-.19.35-.28.52-.29.5-.32.93-.33 1.26-.02.36-.04.52-.25.66-.18.12-.35.16-1.6.35-.14.02-.27.06-.4.11l-.04.02c-.09.03-.17-.04-.17-.13 0-.17.01-.39.01-.65v-.05c0-.2 0-.4-.01-.6-.02-.32-.02-.45.07-.59.1-.17.18-.22.32-.3.19-.12.44-.28.82-.8.2-.27.25-.42.27-.55.01-.05.02-.07.17-.19.16-.12.66-.5 1.3-.4.17.03.38.09.61.17Zm-4.92 5.75s-.06.05-.1.06c-.13 0-.22-.03-.28-.1-.13-.16-.11-.47-.08-.65l.53-.14c.04.28.06.68-.06.84Zm.04-1.9c-.01.08-.02.17-.02.25v.38c-.17.06-.31.06-.49.06v-.44c0-.1 0-.27.02-.32.05 0 .1-.02.15-.03.11-.02.25-.05.34-.04 0 .04 0 .09-.01.13Zm-.97 1.74c-.03.27-.11.6-.36.65-.11.02-.17-.01-.2-.04-.17-.16-.2-.64-.17-.98.11 0 .26-.02.44-.06.11-.02.22-.05.3-.06.01.13.02.31 0 .49Zm-.12-.97-.57.2c.03-.22.07-.53.08-.74.01-.15.05-.19.06-.2 0 0 .01-.01.03-.01H15l.36-.02c.01.17.01.54.01.77Zm-.92-.18c-.03.09-.07.33-.09.5l-.72-.02c.04-.22.1-.45.16-.63s.13-.31.19-.35c.11-.05.23-.04.33.03.16.13.2.29.14.47Zm-.27 2.19a.27.27 0 0 1-.19.12c-.08 0-.14 0-.19-.05-.22-.21-.21-.89-.2-1.21.3-.07.62-.12.77-.13.02.27.03.98-.19 1.28Zm-.93-1.73c-.03.09-.07.18-.09.26-.08.03-.34 0-.6-.05l.18-1.13c.29-.08.63-.1.72-.01.11.11-.11.69-.2.94Zm-.32 1.9c-.14.17-.35.25-.64.25-.2 0-.27-.08-.31-.14-.16-.25 0-.86.15-1.24l.97.06c.01.07.02.15.02.24.01.27-.02.61-.2.83Z"/><path d="M20.94 14.85c-.87-.25-.8-1.52-.73-2.75.03-.44.05-.85.03-1.19-.07-1.15-.26-2.41-1.19-2.98-1-.61-2.63-.47-3.64-.34-.37.11-.71.19-.98.17-.59-.03-1.06-.28-1.46-.5-.32-.17-.6-.32-.86-.32h-.04c-.78.05-1.14.24-1.47.53-.08.07-.18.28-.51 1.23-.16.48-.19.74-.23.99-.03.23-.06.47-.18.83-.09.24-.15.46-.21.66-.16.54-.29.97-.67 1.48-.05.06-.1.15-.16.25-.11.17-.22.34-.34.5-.1.14-.33.66-.32.82.02.25.1.41.19.59s.2.39.22.67v.05c.04.45-.03.67-.88 1.43-.44.39-.84.83-1.19 1.3-.02.03 0 .08.05.07h.17c.21.02.4.11.55.26.03.03.06.03.1.02.14-.06.29-.05.44-.03.17.02.35.07.47.17.05.04.11.06.17.05a.8.8 0 0 1 .41.02c.1.04.18.09.25.16.07.06.17.08.25.03.03-.02.07-.03.1-.05a.86.86 0 0 1 .57.04c.09.03.18.06.26.11.12.09.22.21.27.35.04.11.19.14.28.08.11-.08.21-.09.3-.05.04.01.07.04.09.07.07.08.18.16.28.13.28-.07.62-.02.86.11.1.05.19.13.25.23v-.05s.03-.04.05-.05l.06-.02c.14-.05.86-.25 1.14.04.01.01.03.01.05 0 .03-.03.06-.06.09-.08.23-.12.5-.1.7.06.04.04.11.02.14-.02.07-.11.2-.17.33-.16l.4-.02c.18 0 .35-.03.53-.05.04 0 .09-.02.14-.03.19-.04.41-.09.59 0 .17.08.15.27.13.45 0 .07-.02.14-.02.21v.1c0 .15 0 .29-.02.39l.02.08c.02.08.1.12.17.08.13-.08.27-.19.32-.25 0 0 0-.01.01-.02l.03-.12c.02-.15.05-.45.05-1.05v-.07c0-.19 0-.38-.01-.57-.02-.33-.03-.59.13-.85s.31-.35.46-.45c.17-.11.37-.23.69-.68.16-.22.18-.31.2-.38.04-.17.09-.27.34-.45.2-.15.82-.62 1.65-.48.27.05.71.19 1.15.36.02 0 .05.01.07.03.38.15.74.32.99.45.07.04.16.01.21-.05.07-.08.15-.15.24-.2l.09-.06c.08-.07.08-.21-.01-.26-.83-.42-1.71-.77-2.6-1.03Zm-8.31.27c-.27 1.18-2.1 2.48-2.93 2.48h-.02s-.06 0-.09-.02h-.03c-.19-.08-.37-.18-.52-.33a.7.7 0 0 1-.22-.37l-.02-.07c-.05-.2-.1-.45.08-.86l.07-.15.02-.05c.05-.11.09-.22.13-.33.05-.14.06-.19.06-.25 0-.04.01-.1.03-.17.05-.22.08-.41.1-.58.04-.3.08-.56.24-.8.04-.05.08-.1.13-.14l.04-.03c.08-.06.18-.1.27-.12.15-.04.32-.04.53-.02a3.5 3.5 0 0 1 1.11.29l.09.04s.07.03.1.04h.03c.13.07.24.13.33.2.07.05.14.11.2.17.35.37.33.8.27 1.06Zm.85-4.47-.04.21c-.08.48-.27 1.14-.97 1.31-.67.16-.83.2-1.3.22h-.03c-.35 0-1.02-.22-1.13-.76-.08-.35.08-.6.33-1.02.04-.07.09-.14.14-.23.34-.57.47-.98.58-1.31.1-.32.19-.59.41-.81.14-.14.32-.25.51-.31.16-.05.32-.07.49-.07.32 0 .65.09.88.28.1.08.25.25.34.74.04.25-.03.72-.2 1.74Zm4.95 1.37c-.24.41-.37.64-.58.81-.41.34-.89.42-1.28.42-.28 0-.52-.04-.66-.07-.41-.07-1.16-.21-1.42-.81a.6.6 0 0 1-.05-.29c0-.09 0-.25-.04-.63v-.02c-.03-.2-.03-.41 0-.61v-.03c.15-.73.19-.84.22-.9.08-.14.26-.19.4-.11.13.07.18.23.12.36-.01.04-.06.2-.17.76v.03c-.03.14-.03.29 0 .43v.03c.05.41.05.59.05.69v.05c.05.12.14.2.24.26.1.05.2-.04.18-.15-.12-.63-.11-1.35.13-1.8.08-.15.23-.4.37-.64l.04-.07.03-.06c.07-.11.13-.22.2-.32l.03-.05v-.02h.01s0-.01.01-.02l.02-.03.1-.15c.08-.1-.01-.24-.13-.19-.2.09-.34.2-.37.22-.13.1-.31.08-.41-.05s-.08-.31.05-.41c.15-.12.94-.69 1.89-.42.68.19 1.04.72 1.18.91.11.16.44.64.43 1.32 0 .52-.22.89-.61 1.56Z"/><path d="m12.27 8.48-.17.42c-.15.37-.31.78-.39.93-.14.26-.24.43-.33.56-.1.15-.18.27-.23.44-.1.29-.12.62-.05.98-.18-.02-.48-.15-.51-.3-.02-.12.05-.25.26-.6.04-.07.09-.15.14-.23.37-.62.52-1.09.63-1.42.12-.37.18-.52.36-.65.09-.06.19-.1.29-.12Zm-.36 13.05c-.17.35-.37.68-.61.98-.13-.35-.35-1.15-.3-1.8v-.06c.02-.2.08-.38.17-.53.06-.1.23-.16.43-.16.14 0 .3.03.44.1.07.04.17.12.18.34.02.31-.13.72-.32 1.11Z"/><path d="M22.94 16.92s.03.03.02.05c-.06.12-.13.2-.22.31-.1.12-.22.26-.33.48-.16.31-.21.59-.23 1.3-.03.84 0 1.32.03 1.66.02.33.04.53-.02.86-.12.66-.4 1.09-.75 1.64-.44.69-.9 1.4-1.66 1.62-.07.02-.07.02-.27.02-.17 0-.46 0-1 .02-.99.04-1.49.05-1.92.14-.45.09-.68.18-.91.27-.2.08-.4.16-.77.24-.22.04-.55.09-1.67.09-1.17 0-1.87 0-2.8-.1-1.28-.15-1.92-.22-2.34-.45-1-.54-1.43-1.5-2.13-3.09 0-.02.02-.04.03-.03.13.08.29.1.43.07s.03 0 .03 0c.04.12.12.23.23.3.12.06.26.07.39.07.14 0 .27-.01.41-.03.07-.01.14.03.17.09.12.3.28.52.51.55h.05c.07 0 .14-.02.2-.06.11-.07.28-.02.36.07.05.06.1.1.15.14.24.25.82.36 1.31.36.27 0 .51-.03.64-.1.2-.1.2-.25.19-.31-.02-.11-.03-.22-.05-.32 0-.01.02-.02.02 0 .03.06.06.14.16.16h.03c.14 0 .35.04.38.17.02.07.05.13.08.19.08.13.25.28.58.29h.03c.38 0 .67-.12.87-.37.01-.02.03-.03.04-.05.07-.1.28-.1.37-.02.12.11.28.16.44.14.17-.02.33-.12.42-.26.07-.1.12-.22.16-.36.01-.04.07-.05.09-.02.1.09.22.14.35.14.04 0 .08 0 .13-.01.33-.07.49-.34.57-.65 0-.01.02-.01.02 0 .12.15.31.23.5.22h.04c.14 0 .26-.07.35-.18.1-.13.14-.32.15-.52 0-.07.05-.14.12-.17.28-.12.6-.37.7-.54.03-.06.08-.1.14-.11.21-.04.3-.08.38-.12.09-.04.19-.07.29-.08 1.26-.19 1.51-.24 1.78-.42.41-.27.43-.65.45-1.01.02-.31.04-.66.27-1.06.09-.15.19-.33.29-.53.18-.34.43-.81.62-1.06.04-.06.12-.08.18-.05.43.18.79.36.87.43Z"/><path d="M10.68 20.67c-.05.44-.08 1.02-.01 1.78.02.21.05.44.08.66-.06.03-.24.08-.56.07-.46 0-.9-.12-1.03-.27l-.02-.02c-.11-.09-.19-.15-.19-.31 0-.05.02-.11.07-.18.03-.05.07-.1.11-.15.08-.1.17-.23.27-.4q.255-.45.57-.87c.11-.15.22-.31.32-.46.11-.16.19-.29.27-.39.08-.11.16-.21.25-.3-.01.09-.02.19-.04.28-.02.15-.06.33-.08.55Zm-.21-6.78c-.06.09-.13.19-.21.37-.22.48-.22.76-.23.98 0 .11 0 .21-.03.31-.03.08-.06.17-.1.25-.13.29-.3.68-.22 1.2-.1-.05-.26-.16-.29-.23 0-.03-.01-.06-.02-.08a.64.64 0 0 1 .04-.5c.27-.62.3-.77.32-.94 0-.04.01-.08.02-.11.06-.25.09-.46.11-.63.04-.26.06-.43.15-.55.03-.05.12-.07.25-.07.05 0 .11 0 .17.01h.03Zm-.35 6.15c-.01-.15-.04-.3-.1-.44l-.02-.05-.03-.05-.02-.02c-.02-.02-.03-.03-.05-.04l-.03-.02h-.02c-.09-.03-.18-.07-.27-.08h-.09l-.06.02H9.4l-.02.03-.03.03s-.01.02-.02.02-.11.17-.11.17c-.08.13-.17.26-.26.38-.12.18-.25.36-.37.54l-.02.03.15.03.35.06c.24.03.49.05.74.04h.03c.06-.08.13-.19.22-.32.05-.08.1-.15.14-.21-.02-.03-.03-.07-.04-.11Zm-.87 1.01c-.02.19-.23.68-.56 1.14-.28.39-.44.48-.48.49-.13-.02-.26-.35-.37-.67-.04-.12-.08-.25-.11-.37-.06-.26-.09-.52-.07-.79.28.15.77.2 1.45.2zv.01Zm-.49-1.55-.01.01c-.12.17-.23.34-.35.52l-.18.27s-.08.1-.12.16c-.1-.02-.19-.05-.29-.07-.09-.03-.19-.06-.28-.1-.01-.03-.03-.05-.05-.07s.08-.17.08-.17c.05-.1.11-.21.16-.31.1-.18.23-.36.41-.48.07-.06.16-.09.25-.1h.12s.04.01.06.02c0 0 .01 0 .02.01.02.01.04.02.05.03-.03-.02.04.05.04.04a.4.4 0 0 1 .08.23Zm-.93-.49c-.22.18-.38.42-.51.67l-.21.42c0 .01-.01.03-.02.04-.17-.04-.33-.1-.49-.17.06-.12.14-.24.22-.36.1-.16.22-.32.34-.47.05-.06.1-.12.16-.16.07-.04.15-.03.22-.02.08 0 .17 0 .24.04.02 0 .03.02.05.02Zm-.35 2.92-.03.03h-.02c-.15.02-.31.03-.47.02-.06 0-.11-.01-.13-.05-.04-.06-.05-.16-.06-.23-.07-.37-.08-.76-.03-1.14.19.07.39.12.6.16-.05.34.03.84.07.99l.06.21Zm-.62-3.04a6 6 0 0 0-.47.67c-.06.09-.12.19-.17.29a.7.7 0 0 1-.19-.09c-.05-.03-.1-.07-.15-.1l-.06-.05h-.01c.02-.06.04-.1.06-.14.1-.23.24-.44.39-.64.04-.05.07-.11.13-.12s.11-.01.17 0c.12.02.23.08.31.18Zm-1.33.92s.02-.01.02 0c.05.06.11.12.17.17.03.02.06.05.09.07v.01c-.07.29-.12.59-.12.89 0 .02-.02.02-.03 0-.09-.36-.2-.93-.14-1.14Zm.85.63c-.04.26-.05.52-.04.77 0 .14.02.28.04.43h-.14s-.04-.01-.07-.03a.35.35 0 0 1-.1-.11.9.9 0 0 1-.09-.4c-.01-.27.01-.53.06-.79.04.02.08.03.14.06s.12.05.19.08Z"/></g></svg>