<svg xmlns="http://www.w3.org/2000/svg" viewBox="0 0 32 32"><g fill="none"><circle cx="16" cy="16" r="16" fill="#2E3148"/><circle cx="16" cy="16" r="9.284" fill="#1B1E36"/><path fill="#6F7390" d="M16.033 2.041c-1.727 0-3.128 6.265-3.128 13.992s1.4 13.992 3.128 13.992c1.727 0 3.127-6.264 3.127-13.992 0-7.727-1.4-13.992-3.127-13.992m.216 27.194c-.198.264-.395.066-.395.066-.796-.922-1.193-2.634-1.193-2.634-1.391-4.477-1.06-14.09-1.06-14.09.653-7.632 1.843-9.435 2.248-9.835a.25.25 0 0 1 .316-.026c.588.416 1.08 2.157 1.08 2.157 1.455 5.399 1.323 10.469 1.323 10.469.132 4.411-.729 9.35-.729 9.35-.662 3.752-1.59 4.543-1.59 4.543"/><path fill="#6F7390" d="M28.17 9.07c-.86-1.499-6.99.404-13.697 4.25S3.037 21.497 3.896 22.995c.86 1.498 6.99-.404 13.696-4.25S29.028 10.569 28.17 9.07M4.69 22.79c-.33-.042-.255-.312-.255-.312.403-1.149 1.689-2.346 1.689-2.346 3.192-3.435 11.696-7.931 11.696-7.931 6.945-3.231 9.102-3.095 9.649-2.944a.25.25 0 0 1 .179.263c-.066.717-1.333 2.01-1.333 2.01-3.957 3.95-8.42 6.359-8.42 6.359-3.762 2.31-8.473 4.02-8.473 4.02-3.585 1.292-4.732.88-4.732.88z"/><path fill="#6F7390" d="M28.139 23.045c.866-1.494-3.852-5.847-10.535-9.721S4.793 7.524 3.927 9.021s3.852 5.846 10.538 9.72 12.808 5.802 13.674 4.304M4.5 9.598c-.128-.303.142-.376.142-.376 1.197-.226 2.877.288 2.877.288 4.572 1.041 12.723 6.148 12.723 6.148 6.276 4.391 7.239 6.326 7.383 6.875a.25.25 0 0 1-.137.287c-.654.3-2.407-.147-2.407-.147-5.403-1.448-9.723-4.102-9.723-4.102-3.882-2.094-7.721-5.316-7.721-5.316-2.917-2.456-3.136-3.654-3.136-3.654z"/><circle cx="16" cy="16" r="1.646" fill="#B7B9C8"/><circle cx="22.749" cy="9.679" r="1" fill="#B7B9C8"/><circle cx="7.078" cy="13.037" r="1" fill="#B7B9C8"/><circle cx="14.058" cy="25.152" r="1" fill="#B7B9C8"/></g></svg>