<svg xmlns="http://www.w3.org/2000/svg" viewBox="0 0 20 20"><circle cx="10" cy="10" r="10" fill="#0e1113"/><path fill="#fff" d="m2.809 14.154 2.784-8.07h1.906l2.785 8.07H8.68l-.574-1.733h-3.12l-.585 1.733zm2.6-3.033h2.275L6.34 7.1h.412zm8.549 3.163q-.77 0-1.43-.282a3.4 3.4 0 0 1-1.127-.78 3.2 3.2 0 0 1-.682-1.18l1.224-.531q.292.693.845 1.094.552.39 1.245.39.39 0 .672-.12a1.04 1.04 0 0 0 .444-.346.84.84 0 0 0 .163-.52.8.8 0 0 0-.217-.585q-.206-.238-.628-.368l-1.55-.498q-.941-.293-1.418-.878a2.1 2.1 0 0 1-.477-1.376q0-.693.336-1.224.346-.53.953-.823a3.15 3.15 0 0 1 1.408-.304q.726 0 1.333.26.606.249 1.04.705.444.444.66 1.05l-1.213.542q-.238-.606-.715-.932a1.87 1.87 0 0 0-1.105-.336q-.368 0-.65.13a1 1 0 0 0-.444.347.9.9 0 0 0-.152.52q0 .336.217.596.217.249.661.39l1.484.466q.964.314 1.441.866.488.553.488 1.365 0 .693-.358 1.225a2.43 2.43 0 0 1-.986.834q-.628.303-1.462.303m-.52.954V5h.92v10.238z"/></svg>