<svg xmlns="http://www.w3.org/2000/svg" xmlns:xlink="http://www.w3.org/1999/xlink" viewBox="0 0 32 32"><defs><filter id="d" width="112.6%" height="114.1%" x="-6.3%" y="-6%" filterUnits="objectBoundingBox"><feOffset in="SourceAlpha" result="shadowOffsetOuter1"/><feGaussianBlur in="shadowOffsetOuter1" result="shadowBlurOuter1" stdDeviation=".5"/><feColorMatrix in="shadowBlurOuter1" values="0 0 0 0 0 0 0 0 0 0 0 0 0 0 0 0 0 0 0.3 0"/></filter><circle id="a" cx="16" cy="16" r="16"/><path id="c" d="M8.358 18.396 15.656 6.08a.4.4 0 0 1 .688 0l10.297 17.316a.4.4 0 0 1-.344.604H12.222a.4.4 0 0 1-.34-.612l2-3.2a.4.4 0 0 1 .34-.188h4.55a.4.4 0 0 0 .337-.615L16 14.5l-2.881 4.322a.4.4 0 0 1-.333.178H8.702a.4.4 0 0 1-.344-.604"/></defs><g fill="none" fill-rule="evenodd"><mask id="b" fill="#fff"><use xlink:href="#a"/></mask><use xlink:href="#a" fill="#D8D8D8"/><g mask="url(#b)"><path fill="#CF00CF" d="M4-3h28v34H4z"/><path fill="#B829DD" d="M-5.074-5h29.647q.102 4.85.529 6.882c.619 2.952 1.588 5.294 2.118 7.942.453 2.267 1.058 7.411 5.294 11.117Q36.749 24.647 24.573 31H-5.074z" opacity=".828"/><path fill="#A821D3" d="M-4-4h28q.098 4.58.5 6.5c.584 2.787 1.5 5 2 7.5.428 2.142 1 7 5 10.5q4 3.5-7.5 9.5H-4z"/><path fill="#8E1ECD" d="M-12-3h28q-.5.5 0 1.5c.5 1 2.5 8 6.5 16.5q4 8.5 12.5 15.5l-47 .5z"/><path fill="#7C1AC5" d="M-12-2h28q-.5.5 0 1.5c.5 1 2.5 8 6.5 16.5q4 8.5 12.5 15.5l-47 .5z"/><path fill="#5A0FB0" d="m-12.915-4.631 21.202.37q-.54.497-.027 1.52c.177.352.199 1.5 1.085 3.05 1.468 2.569 4.963 7.628 7.643 13.318 1.334 2.834 3.038 8.16 5.644 10.74q2.607 2.58 7.854 5.711l-44.064 3.285z"/><path fill="#5512B9" d="M-12-3H8q-.5.5 0 1.5c.172.345.212 1.477 1.073 2.991C10.5 4 13.88 8.931 16.5 14.5c1.305 2.773 3 8 5.5 10.5q2.5 2.5 7.5 5.5l-41.5 4z"/><path fill="#A122D4" d="M-12-3H0q-.5.5 0 1.5C.172-1.155-.64.576.5 2c2 2.5 6.5 6 9 12 3 6.5 8.5 15.5 12.5 17.5q4 2-34-.5z" opacity=".859"/><path fill="#861BC9" d="M-12-2H0q-.5.5 0 1.5C.172-.155-.64 1.576.5 3c2 2.5 6.5 6 9 12 3 6.5 8.5 15.5 12.5 17.5q4 2-34-.5z"/><path fill="#6D18B1" d="M.06 15.408C5.743 17.197 8.096 21.69 10 25.5c.5 1 1 2 4 6.5q2.04 3.06-31.507-.536Q-4.472 15.408.06 15.408"/><path fill="#2D0F93" d="M0 16c5.013 1.671 7.325 5.44 9 9 1.332 2.831 1.5 2.5 4 6.5q1.788 2.86-28.5-.5Q-4 16 0 16"/></g><use xlink:href="#c" fill="#000" filter="url(#d)"/><use xlink:href="#c" fill="#FFF"/></g></svg>