<svg xmlns="http://www.w3.org/2000/svg" viewBox="0 0 32 32"><g fill="none"><circle cx="16" cy="16" r="16" fill="#E84142"/><path fill="#FFF" d="M12.075 23h-2.73c-.574 0-.857 0-1.03-.115a.73.73 0 0 1-.314-.565c-.01-.212.13-.471.414-.99l6.74-12.367c.287-.525.433-.788.616-.885a.67.67 0 0 1 .629 0c.183.097.328.36.615.885l1.385 2.518c.315.572.474.86.543 1.162.076.327.076.673 0 1-.07.302-.225.59-.54 1.162l-3.54 6.515c-.318.58-.477.87-.698 1.09a2.04 2.04 0 0 1-.84.507c-.286.083-.608.083-1.25.083m10.492-1H18.43c-.61 0-.918 0-1.097-.113a.71.71 0 0 1-.332-.558c-.011-.208.142-.463.45-.975l2.064-3.426c.303-.505.457-.756.647-.851a.75.75 0 0 1 .661 0c.194.095.344.346.651.848l2.072 3.426c.307.512.464.766.453.974a.7.7 0 0 1-.332.558c-.183.117-.49.117-1.1.117"/></g></svg>