<svg xmlns="http://www.w3.org/2000/svg" viewBox="0 0 32 32"><g fill="none" fill-rule="evenodd"><path fill="#0055D5" fill-rule="nonzero" d="M0 16C0 7.163 7.163 0 16 0s16 7.163 16 16-7.163 16-16 16S0 24.837 0 16"/><path fill="#FFF" d="M14.947 14.21c-.21.805-.524 1.1-1.052 1-.261-.05-.738-.627-1.092-.888-.232-.172-1.766 2.11-2.592 2.888q-.46.432-.468-1.778 1.885-1.904 1.648-2.016c-.915-.434-1.211-.706-1.707-.706-.935 0-1.579 3.222-1.579 5 0 1.777.807 4.402 1.053 4L22.37 9.812q2.703-2.575 3.167 3.019L26 19.21c0 4.427-1.505 4.061-2.632 3.29l-2.753-1.882s-1.93-1.624-1.93-2.027c0-.402.468-.889.468-.889.527 0 .167-.053 2.11 1.798s2.702.981 2.632.21v-4.5c0-2.979-.946-3.847-1.58-3.21-4.21 4-11.874 11.905-13.564 11.905q-1.689 0-2.217-2.113Q6 18.403 6 16.71c0-1.627.216-3.964.534-4.88.319-.914 1.126-1.777 1.69-1.509 0 0 6.935 3.084 6.723 3.889"/></g></svg>