<svg xmlns="http://www.w3.org/2000/svg" viewBox="0 0 32 32"><g fill="none"><circle cx="16" cy="16" r="16" fill="#262627"/><g fill="#FFF"><path d="M20.447 17.899c3.86.57 6.553 1.861 6.553 3.362 0 2.03-4.925 3.676-11 3.676S5 23.29 5 21.26c0-1.5 2.693-2.792 6.553-3.362 1.325.27 2.84.422 4.447.422a22.7 22.7 0 0 0 4.347-.402zm-1.663-6.044c3.496.39 6.016 1.491 6.016 2.79 0 1.624-3.94 2.94-8.8 2.94s-8.8-1.316-8.8-2.94c0-1.299 2.52-2.4 6.016-2.79.856.14 1.797.217 2.784.217.953 0 1.862-.072 2.694-.203z"/><ellipse cx="6.6" cy="2.205" rx="6.6" ry="2.205" transform="translate(9.4 7.074)"/></g></g></svg>