<svg xmlns="http://www.w3.org/2000/svg" viewBox="0 0 32 32"><g fill="none"><circle cx="16" cy="16" r="16" fill="#4520E6"/><path fill="#FFF" d="M21.61 19.532c0 1.65-1.317 2.99-2.935 2.99h-5.628l5.849-5.959c1.513.117 2.714 1.396 2.714 2.969m-9.307-3.342V9.3h6.556q.168 0 .33.018zm10.633-3.846a4.17 4.17 0 0 0-1.726-3.38l2.82-2.83-1.687.009-2.24 2.248a4.1 4.1 0 0 0-1.32-.215h-7.712v10.963l9.285-9.319a2.98 2.98 0 0 1 1.394 2.524 2.975 2.975 0 0 1-2.967 2.977h-.245L8.208 25.689h1.677l2.025-2.033h6.873c2.29 0 4.153-1.87 4.153-4.167a4.17 4.17 0 0 0-2.021-3.57 4.17 4.17 0 0 0 2.02-3.575Z"/></g></svg>