<svg xmlns="http://www.w3.org/2000/svg" viewBox="0 0 20 20"><circle cx="10" cy="10" r="10" fill="#8dc351"/><path fill="#fff" d="M13.25 6.58c-.48-1.23-1.7-1.34-3.11-1.07l-.51-1.75-1.07.3.49 1.72L8.2 6l-.49-1.69-1.07.3.5 1.76-.68.21L5 7l.32 1.15.78-.23a.58.58 0 0 1 .75.3l.58 2h.11-.11l.8 2.8a.39.39 0 0 1-.3.47l-.78.23.16 1.34 1.39-.4.77-.22.53 1.78 1-.31-.51-1.75.86-.24.5 1.75 1.15-.31-.51-1.77c1.77-.62 2.9-1.44 2.57-3.17a1.89 1.89 0 0 0-2.17-1.77 1.73 1.73 0 0 0 .4-2.07zm-.4 4.23c.38 1.33-1.94 1.84-2.66 2l-.68-2.31c.72-.21 2.94-1.07 3.34.32zM11.4 7.63c.34 1.21-1.59 1.62-2.2 1.79l-.61-2.14c.6-.17 2.44-.91 2.81.35"/></svg>