<svg xmlns="http://www.w3.org/2000/svg" viewBox="0 0 32 32"><g fill="none"><circle cx="16" cy="16" r="16" fill="#231F20"/><path fill="#CF0" d="M12.14 20.245a.826.826 0 0 1-.817-.69L9.012 5.968a.829.829 0 1 1 1.637-.277l2.31 13.586a.83.83 0 0 1-.82.968Z"/><path fill="#CF0" d="M12.14 20.245a.826.826 0 0 1-.817-.69L9.012 5.968a.829.829 0 1 1 1.637-.277l2.31 13.586a.83.83 0 0 1-.82.968Z"/><path fill="#CF0" d="M16.013 13.98a6.46 6.46 0 0 0-3.577 1.074l.28 1.645a5 5 0 0 1 3.297-1.238 5.033 5.033 0 0 1 5.027 5.028 5.033 5.033 0 0 1-5.027 5.028 5.033 5.033 0 0 1-4.91-6.104l-.446-2.618a6.47 6.47 0 0 0-1.154 3.695c0 3.59 2.92 6.51 6.51 6.51s6.51-2.92 6.51-6.51-2.92-6.51-6.51-6.51"/><g fill="#1CD8D2" transform="translate(12.61 16.648)"><circle cx="3.047" cy="6.753" r="1"/><circle cx="5.816" cy="5.721" r="1"/><circle cx="3.64" cy="3.82" r="1"/><circle cx=".887" cy="4.726" r="1"/><circle cx="6.383" cy="2.911" r="1"/><circle cx="4.231" cy=".887" r="1"/><circle cx="1.452" cy="1.918" r="1"/></g></g></svg>