<svg xmlns="http://www.w3.org/2000/svg" viewBox="0 0 32 32"><g fill="none"><circle cx="16" cy="16" r="16" fill="#FFF"/><path fill="#FBCC5C" d="M13.895 23.895a5.79 5.79 0 1 0 0-11.58 5.79 5.79 0 0 0 0 11.58m0 2.105a7.895 7.895 0 1 1 0-15.79 7.895 7.895 0 0 1 0 15.79"/><path fill="#35D07F" d="M18.105 19.684a5.79 5.79 0 1 0 0-11.579 5.79 5.79 0 0 0 0 11.58zm0 2.105a7.895 7.895 0 1 1 0-15.79 7.895 7.895 0 0 1 0 15.79"/><path fill="#5EA33B" d="M18.366 21.79a5.8 5.8 0 0 0 1.149-2.275 5.8 5.8 0 0 0 2.274-1.149 7.9 7.9 0 0 1-.613 2.81 7.9 7.9 0 0 1-2.81.613zm-5.88-9.305a5.8 5.8 0 0 0-2.275 1.149c.03-.967.238-1.919.613-2.81a7.9 7.9 0 0 1 2.81-.613 5.8 5.8 0 0 0-1.149 2.274z"/></g></svg>