<svg xmlns="http://www.w3.org/2000/svg" viewBox="0 0 32 32"><g fill="none" fill-rule="evenodd"><circle cx="16" cy="16" r="16" fill="#3AAC59"/><path fill="#FFF" fill-rule="nonzero" d="M18.178 13.35h2.34v6.84h-2.34zm-3.213-.514c-.9 0-1.82.215-2.049.616l-.009.015v-2.87h-2.403v4.561a9 9 0 0 1 1.038.557c.004.003-1.373 2.146-3.248 2.596-1.108.267-2.416-.056-2.681-1.167q-.015-.069-.025-.138a8 8 0 0 1 .54-.291c.458-.2.808-.35.94-.401l.036-.013a11.6 11.6 0 0 1 2.013-.534 7.6 7.6 0 0 0-2.15.104l-.013.003a6 6 0 0 0-1.335.425c.193-.801.89-1.497 1.715-1.695a3 3 0 0 1 .456-.07l.055-.004q.111-.007.223-.007h.044a4 4 0 0 1 .316.018 6 6 0 0 1 1.275.297v-1.574a13 13 0 0 0-.738-.205c-.678-.18-1.841-.373-3.114-.063-2.046.499-2.627 2.013-2.627 3.863q.002.353.053.664A9 9 0 0 0 2 18.541l1.37-.61c.52 1.777 2.336 2.375 3.703 2.375 1.426 0 2.341-.407 3.431-1.087v.862h2.403v-4.275l.01-.017v-.073c.228-.61.617-.768 1.049-.768.57 0 .927.405.927 1.05v4.083h2.403v-4.775c0-1.504-.94-2.47-2.331-2.47M19.31 10c-.726 0-1.238.513-1.238 1.24 0 .729.512 1.241 1.237 1.241s1.238-.512 1.238-1.24S20.035 10 19.309 10m9.199 6.207h.003l-.003-3.047h-2.405l-.013.433c-2.32-1.495-3.802.042-3.802.042-.708.65-1.12 1.674-1.12 2.96 0 2.28 1.367 3.636 3.144 3.636.665 0 1.279-.15 1.808-.885.062.171.198.59.296.735h2.503c-.429-.707-.425-3.157-.411-3.874m-3.636 2.049c-.779 0-1.328-.678-1.328-1.64 0-.963.55-1.64 1.328-1.64.547 0 .98.333 1.19.864v1.55c-.21.532-.643.866-1.19.866"/></g></svg>