<svg xmlns="http://www.w3.org/2000/svg" viewBox="0 0 32 32"><g fill="none" fill-rule="evenodd"><circle cx="16" cy="16" r="16" fill="#CD0124" fill-rule="nonzero"/><g fill="#F8F8F8" transform="translate(7 7)"><circle cx="16.579" cy="1.421" r="1.421"/><circle cx="12.789" cy="9.947" r="1.421"/><path fill-rule="nonzero" d="m16.338.796.866.385L9.24 19.099l-.865-.385z"/><circle cx="1.421" cy="1.421" r="1.421" transform="matrix(-1 0 0 1 2.842 0)"/><circle cx="5.211" cy="9.947" r="1.421" transform="matrix(-1 0 0 1 10.421 0)"/><path fill-rule="nonzero" d="m1.662.796-.866.385L8.76 19.099l.865-.385z"/><circle cx="9" cy="18.474" r="1.421"/><path fill-rule="nonzero" d="M17.053.947v1H.947v-1z"/><path fill-rule="nonzero" d="m16.674.758.568.758L5.116 10.61l-.569-.758z"/><path fill-rule="nonzero" d="m1.326.758 12.127 9.095-.569.758L.758 1.516z"/></g></g></svg>