<svg xmlns="http://www.w3.org/2000/svg" viewBox="0 0 32 32"><path fill="#fff" d="M0 16C0 7.16 7.16 0 16 0s16 7.16 16 16-7.16 16-16 16S0 24.84 0 16"/><path fill="#fc0" d="M17.37 9.9v1.16l-1.02-.09-.76.04V11l-.48.17-.21.29.04.4-.32-1.46.02-.36.28-.24.55-.11.82.04z"/><path fill="#ff9800" d="m17.37 9.9-1.08-.17-.82-.04-.55.11-.28.24-.02.36-.32-.91-.1-.46.11-.33.35-.19.64-.05.91.1 1.15.25z"/><path fill="#e40000" d="m17.34 6.25-1.46-.44-1.26-.27-.98-.09-.7.1-.54-.67.84-.07 1.12.11 1.38.31 1.59.48z"/><path fill="#4dffaa" d="m22.31 15.99-1.22-.2-1.3-.1-1.28-.01v-.01l-1.16.1-.97.21v-.01l-.71.31.05-1.25.69-.25.94-.13 1.15-.03 1.27.09 1.29.18 1.21.26z"/><path fill="#80ff77" d="M21.08 13.94v.01l-1.3-.26v-.01z"/><path fill="#aaff4d" d="M21.08 13.94v.01l-1.3-.26v-.01z"/><path fill="#80ff77" d="m23.3 14.69-.01.79-1.02-.33-1.21-.26-1.29-.18-1.27-.09-1.15.03-.94.13-.69.25v-1.32l.69-.18.95-.06 1.15.05 1.27.16v.01l1.3.26v-.01l1.21.34z"/><path fill="#b7ff40" d="m24.1 14.41-.08.72-.72-.44-1.01-.41-1.21-.34-1.3-.26-1.27-.16-1.15-.05-.95.06-.69.18-.41.29-.07-1.41.44-.23.71-.11.97.01 1.17.14 1.29.24h.01v.01l.96.25.34.09h.01l1.22.42 1.02.48z"/><path fill="#dbff1c" d="m24.57 14.31-.13.63-.34-.53-.72-.52-1.02-.48-1.22-.42h-.01l-.34-.09-.96-.26h-.01l-1.29-.24-1.17-.14-.97-.01-.71.11-.44.23-.16.34-.18-1.47.21-.29.48-.16.76-.04 1.02.09 1.2.22h.01l1.32.33 1.33.44 1.24.51 1.03.56h.01l.72.59z"/><path fill="#1cffdb" d="m16.51 22.39 1.51-.52-.21.41-1.52.55z"/><path fill="#0098ff" d="m12.86 25.68.31-.61-.4.35-.35.64.43-.39Z"/><path fill="#00b4ff" d="m13.24 25.17.28-.57-.35.47-.31.61z"/><path fill="gold" d="m21.37 11.14-.14.91-1.33-.44-1.32-.33-1.21-.22V9.9l1.26.3 1.37.42z"/><path fill="#ffa700" d="m21.54 10.3-.17.84-1.37-.52-1.37-.42-1.26-.3-.01-1.09 1.34.38 1.42.51z"/><path fill="#ff7e00" d="m21.74 9.55-.2.75-1.42-.6-1.42-.51-1.34-.38v-.99l1.41.46 1.5.58z"/><path fill="#ff2900" d="m22.48 8-.26.38-1.6-.82.18-.44z"/><path fill="#ff2900" d="m19.05 6.35 1.75.77-.19.44-1.66-.72-1.61-.59-.01-.54z"/><path fill="#f1fc06" d="m24.42 13.05-.19.66-.73-.59-1.03-.57v.01l-1.24-.51.14-.91 1.27.6 1.04.64z"/><path fill="#ff1e00" d="m23.26 7.76-.25-.08-.27.08-1.75-.91-1.83-.82h-.01v.01l-1.83-.68-.01-.16 1.94.7 1.93.84.19.07z"/><path fill="#ff5900" d="m21.97 8.9-.23.65-1.47-.68v-.01l-1.5-.58-1.41-.46-.01-.86 1.51.53 1.58.65v.01z"/><path fill="#ff3b00" d="m18.95 6.84-.09.65-1.51-.53-.01-.71zm3.27 1.54-.25.52-1.53-.75v-.01l-1.58-.65.1-.65 1.66.72z"/><path fill="#ff1e00" d="m22.74 7.76-.26.24-1.68-.88-1.75-.77-1.72-.64-.01-.35 1.83.67 1.84.82H21z"/><path fill="gold" d="m24.66 12.44-.24.61-.73-.67-1.02-.62-1.3-.62.17-.84 1.3.68 1.07.72z"/><path fill="#ff6f00" d="m27.41 11.11-.34-.23-.36-.12-.84-1.03-1.27-1.04-1.59-1.01.25.08 1.65 1.02 1.3 1.06.32.23z"/><path fill="#ffb600" d="m24.94 11.91-.28.53-.75-.74-1.07-.72-1.3-.68.2-.75 1.34.76 1.1.79z"/><path fill="#ff6800" d="M26.71 10.76h-.37l-.83-1-1.23-1.02-1.54-.98.27-.08 1.59 1.01 1.26 1.04z"/><path fill="#ff9800" d="m25.26 11.47-.32.44-.76-.81-1.1-.8-1.34-.75.23-.65 1.39.83 1.12.86v.01z"/><path fill="#ff6c00" d="m26.34 10.76-.37.12-.81-.97-1.19-.97h-.01L22.48 8l.26-.24 1.54.98 1.23 1.02z"/><path fill="#ff8200" d="m25.6 11.12-.34.35-.78-.88-1.12-.86-1.39-.83.25-.52 1.43.89 1.16.92z"/><path fill="#ff7300" d="m25.97 10.88-.37.24-.79-.93-1.16-.92-1.43-.89.26-.38 1.49.94 1.19.97z"/><path fill="#0028ff" d="m8.86 27-.03-.19-.59-.7v.14z"/><path fill="#004cff" d="M8.24 26.26v-.14l-.52-.83-.04.08z"/><path fill="#0040ff" d="m9.03 26.04-.17.45-.03.33-.59-.7.08-.28.2-.4z"/><path fill="#0060ff" d="m8.52 25.44-.2.4-.08.28-.52-.83.11-.22.24-.34z"/><path fill="#0074ff" d="m8.07 24.73-.24.34-.11.21-.01.01-.04.08-.49-1 .08-.02.14-.16.28-.27z"/><path fill="#00a0ff" d="m15.62 22.79-1.68.59-1.45.63-1.17.65-.41-.36 1.2-.62 1.48-.6 1.71-.57z"/><path fill="#00b0ff" d="m15.3 22.52-1.71.56-1.48.6-1.2.62-.38-.46 1.23-.58 1.51-.56 1.74-.54z"/><path fill="#0094ff" d="m14.3 23.59-1.42.65-1.13.67-.43-.25 1.17-.65 1.45-.63z"/><path fill="#00c4ff" d="m15.01 22.16-1.74.54-1.51.56-1.23.58-.35-.54 1.27-.53 1.54-.53 1.75-.5z"/><path fill="#005cff" d="m9.57 26.51.32-.57-.49-.43-.36.53.54.47Z"/><path fill="#0070ff" d="m9.03 26.04.36-.53-.46-.55-.41.49.5.6Z"/><path fill="#0094ff" d="m14.66 23.71-1.38.65-1.09.69-.44-.14 1.13-.67 1.42-.65z"/><path fill="#0074ff" d="m11.32 24.66-.86.65-.58.63-.49-.43.62-.59.9-.62z"/><path fill="#004cff" d="m10.13 26.84.27-.6-.52-.3-.32.57.56.33Z"/><path fill="#0084ff" d="M10.01 24.92v-.01l-.62.59-.46-.54.66-.55.94-.57.38.46z"/><path fill="#00e0fb" d="m14.74 21.74-1.75.5-1.54.53-1.27.53-.29-.62 1.29-.48 1.56-.47 1.78-.47z"/><path fill="#008cff" d="m8.52 25.44.4-.48-.41-.65-.44.43.45.71Z"/><path fill="#0068ff" d="m11.75 24.91-.82.67-.53.66-.52-.3.58-.63.86-.65z"/><path fill="#00a0ff" d="m10.53 23.84-.94.57-.66.55-.41-.66.69-.48.97-.52z"/><path fill="#0094ff" d="m15.03 23.72-1.35.66-1.06.69-.43-.02 1.09-.69 1.38-.65z"/><path fill="#0048ff" d="m10.7 27.02.22-.62-.52-.17-.27.6.57.18Z"/><path fill="#0064ff" d="m12.19 25.05-.78.69-.49.67-.52-.17.53-.66.82-.67z"/><path fill="#06ecf1" d="m14.52 21.26-1.78.47-1.56.47-1.29.48-.25-.67 1.32-.42 1.58-.43 1.79-.42z"/><path fill="#00acff" d="m8.07 24.73.44-.43-.36-.74-.48.36.39.81Z"/><path fill="#0028ff" d="m12.09 27.86-.64.14-.67-.03-.67-.22-.65-.38v-.01l-.63-.54.03-.34.59.51V27l.61.36v-.01l.62.2.61.04.6-.13z"/><path fill="#00c0ff" d="m10.18 23.3-.97.52-.69.48-.36-.74.72-.42 1.01-.46z"/><path fill="#000cff" d="m13.27 27.85-.69.36-.72.16-.75-.04-.16-.1-.72-.23-.7-.41-.67-.59-.03-.18.63.54v.01l.65.38.67.22.67.03.64-.14.6-.32.3.24z"/><path fill="#00a8ff" d="m7.68 23.92-.28.27-.14.16-.08.02-.4-1.1.1.05.17-.09.31-.19z"/><path fill="#009cff" d="m13.04 24.97 1.02-.68-.39.09-1.05.69z"/><path fill="#004cff" d="m11.27 27.06.18-.62-.52-.03-.22.62.57.03Z"/><path fill="#0064ff" d="m12.62 25.07-.74.69-.44.67-.52-.02.49-.67.78-.69z"/><path fill="#00d4ff" d="m7.68 23.92.48-.36-.29-.81-.5.28.32.88Z"/><path fill="#00e4f8" d="m9.89 22.68-1.01.46-.72.42-.3-.81.75-.35 1.04-.39z"/><path fill="#003cff" d="m11.89 27.46-.6.13-.61-.03-.62-.2-.61-.36-.59-.51.17-.45.53.47.01.01.56.32.57.18.57.03.55-.12z"/><path fill="#00acff" d="m13.44 24.76.98-.66-.36.19-1.02.68z"/><path fill="#0070ff" d="m13.04 24.97-.7.69-.39.66-.51.11.44-.67.74-.69z"/><path fill="#0054ff" d="m11.82 26.93.13-.61-.5.11-.18.62z"/><path fill="#0038ff" d="m12.69 27.54-.6.32-.2-.4-.07-.53.52-.27.11.5z"/><path fill="#0080ff" d="m13.44 24.76-.66.66-.36.65-.47.25.39-.66.7-.69z"/><path fill="#0068ff" d="m12.34 26.66.09-.59-.47.25-.13.61.52-.27Z"/><path fill="#53ffa4" d="m5.11 16.41.11.83-.11-1.51-.11-.84.11 1.51Z"/><path fill="#13fce4" d="m5.47 18.73.19.8-.24-1.47-.2-.82z"/><path fill="#97ff60" d="m5 14.9.11.84.03-1.49-.11-.84z"/><path fill="#00b4ff" d="m6.03 20.95.22.71-.36-1.39-.22-.74.37 1.42Z"/><path fill="#53ffa4" d="m5.22 17.24.2.82-.11-1.49-.2-.84z"/><path fill="#d7ff1f" d="m5.03 13.4.11.84.17-1.43-.11-.85-.17 1.43Z"/><path fill="#16ffe1" d="m5.66 19.53.22.74-.24-1.44-.23-.77.24 1.47Z"/><path fill="#97ff60" d="m5.11 15.73.2.83.03-1.47-.2-.86-.03 1.49Z"/><path fill="#ffd000" d="m6.04 13.27-.3 1.28-.23-.86-.2-.87-.11-.85.31-1.34.11.85v.01l.2.89z"/><path fill="#00bcff" d="m6.24 21.66.2.6-.35-1.35-.21-.65.36 1.39Z"/><path fill="#56ffa0" d="m5.42 18.05.23.77-.11-1.46-.23-.8z"/><path fill="#d7ff1f" d="m5.14 14.24.2.85.17-1.41-.2-.87z"/><path fill="#19ffde" d="m5.88 20.26.21.65-.23-1.4-.22-.69z"/><path fill="#97ff60" d="m5.31 16.57.23.8.03-1.44-.23-.83z"/><path fill="#00c4ff" d="m6.44 22.26.15.48-.34-1.3-.17-.53.35 1.35Z"/><path fill="#56ffa0" d="m5.65 18.82.22.69-.1-1.41-.22-.73.11 1.46Z"/><path fill="#d4ff23" d="m5.34 15.1.23.83.17-1.38-.23-.86z"/><path fill="#1cffdb" d="m6.09 20.91.17.53-.22-1.34-.18-.58.23 1.4Z"/><path fill="#94ff63" d="m5.54 17.36.22.73.03-1.39-.22-.78z"/><path fill="#0cf" d="m6.59 22.74.11.34-.32-1.24-.12-.4.34 1.3Z"/><path fill="#56ffa0" d="m5.86 19.51.18.58-.1-1.36-.18-.64.1 1.41Z"/><path fill="#1fffd7" d="m6.26 21.44.12.4-.21-1.28-.13-.46z"/><path fill="#d1ff26" d="m5.57 15.93.22.78.16-1.34-.21-.82z"/><path fill="#00d4ff" d="m6.7 23.08.08.19-.3-1.17-.1-.26z"/><path fill="#94ff63" d="m5.76 18.1.18.64.03-1.34-.18-.69z"/><path fill="#5aff9d" d="m6.04 20.09.13.46-.09-1.29-.14-.53z"/><path fill="#26ffd1" d="m6.38 21.84.1.26-.2-1.21-.11-.33z"/><path fill="#00e0fb" d="m6.78 23.27.1.05-.28-1.1-.12-.12z"/><path fill="#ffdb00" d="m6.53 15.64-.27 1.13-.13-.65-.18-.75-.21-.82.3-1.28.21.86.16.8z"/><path fill="#ceff29" d="m5.79 16.71.18.69.16-1.28-.17-.75-.16 1.33Z"/><path fill="#02e8f4" d="m6.88 23.32.17-.08-.26-1.02H6.6z"/><path fill="#94ff63" d="m5.94 18.74.14.53.03-1.27-.14-.59-.03 1.34Z"/><path fill="#2cffca" d="m6.48 22.1.12.12-.18-1.13-.13-.2.2 1.21Z"/><path fill="#5aff9d" d="m6.17 20.56.11.33-.09-1.22-.12-.4.09 1.29Z"/><path fill="#0cf4eb" d="m7.05 23.23.31-.19-.24-.94-.33.12.26 1.02Z"/><path fill="#26ffd1" d="m14.33 20.74-1.79.42-1.58.43-1.31.42-1.04.39-.75.35-.22-.86.77-.28 1.05-.32 1.34-.35 1.59-.38 1.81-.38z"/><path fill="#16ffe1" d="m7.36 23.04.5-.28-.22-.86-.53.21.24.94Z"/><path fill="#30ffc7" d="M6.6 22.22h.19l-.17-1.06-.2-.08.19 1.13Z"/><path fill="#5dff9a" d="m6.28 20.89.13.2-.08-1.14-.14-.28z"/><path fill="#36ffc1" d="m6.79 22.21.33-.12-.16-.97-.34.03.17 1.05Z"/><path fill="#90ff66" d="m6.08 19.26.12.4.03-1.2-.12-.48-.03 1.27Z"/><path fill="#caff2c" d="m5.97 17.4.14.59.15-1.22-.13-.65z"/><path fill="#53ffa4" d="m14.2 20.18-1.81.38-1.59.38-1.34.35-1.05.33-.77.27-.53.21-.15-.97.54-.13.78-.2 1.07-.25 1.35-.29 1.6-.32 1.82-.33z"/><path fill="#60ff97" d="m6.41 21.09.2.08-.07-1.06-.21-.16z"/><path fill="#60ff97" d="m6.61 21.16.34-.03-.07-.98-.35-.05.07 1.06Z"/><path fill="#6dff8a" d="m14.11 19.61-1.81.33-1.61.32-1.34.29-1.07.25-.78.2-.54.13-.07-.98.55-.04.79-.12 1.07-.18 1.35-.23h.01l1.61-.26 1.82-.29z"/><path fill="#90ff66" d="m6.19 19.67.14.28.03-1.12-.14-.35-.03 1.2Z"/><path fill="#c7ff30" d="m6.11 17.99.12.47.14-1.15-.11-.54z"/><path fill="#8dff6a" d="m6.33 19.94.21.16.03-1.04-.21-.24z"/><path fill="#8dff6a" d="m6.54 20.1.35.05.02-.96-.35-.13-.03 1.04Z"/><path fill="#87ff70" d="m14.11 18.47-.02.56-1.82.29-1.62.26-1.35.23-1.07.18-.79.12h-.01l-.54.04.02-.96.55.04.79-.05 1.07-.1 1.36-.16 1.61-.21z"/><path fill="#c1ff36" d="m6.22 18.47.14.35.14-1.08-.13-.43-.14 1.15Z"/><path fill="#fbf100" d="m6.26 16.77.11.54.26-1.07-.09-.61-.27 1.13Z"/><path fill="#beff39" d="m6.36 18.82.21.24.13-1-.2-.32z"/><path fill="#a0ff56" d="m14.19 17.92-.08.55-1.82.24-1.61.21-1.36.16-1.07.1-.79.05-.55-.04.12-.92.54.12.78.03 1.07-.04 1.35-.1 1.61-.15z"/><path fill="#b7ff40" d="m6.57 19.06.35.13.12-.92-.34-.21z"/><path fill="#beff39" d="m14.33 17.42-.14.5-1.81.21-1.61.15-1.35.1-1.07.04-.78-.03.19-.78.77.1 1.05.03 1.34-.05 1.6-.1z"/><path fill="#f4f802" d="m6.37 17.31.12.43.24-1-.11-.5-.26 1.07Z"/><path fill="#dbff1c" d="m7.76 17.61-.19.78-.54-.12-.34-.21-.2-.32.24-1 .19.39.32.29z"/><path fill="#f8f500" d="m14.74 16.6-.23.38-1.8.13-1.58.06-1.32-.01.28-.5 1.3.06 1.56-.02-.08.14.09-.14z"/><path fill="#d1ff26" d="m14.51 16.98-.18.45-1.81.16-1.6.1-1.34.05.23-.58 1.32.01 1.58-.06z"/><path fill="#ffea00" d="m13.24 16.37-.29.33-1.56.02-1.3-.06.34-.39 1.27.09z"/><path fill="gold" d="m13.56 16.13-.32.24-1.54-.01-1.27-.09.38-.29 1.24.12z"/><path fill="#f4f802" d="m9.81 17.16-.23.57-1.05-.02-.77-.1.27-.7.75.16z"/><path fill="#ffe600" d="m10.09 16.66-.28.5-1.03-.09-.75-.16.34-.6.72.22z"/><path fill="#feed00" d="m8.03 16.91-.27.7-.52-.19-.32-.28-.19-.39.34-.9.16.46.3.35z"/><path fill="#fc0" d="m10.43 16.27-.34.39-1-.13-.72-.22.4-.48.69.26z"/><path fill="#ffb900" d="m10.81 15.98 1.24.12.38-.16-1.2-.13-.41.17Z"/><path fill="#ffc800" d="m8.37 16.31-.34.6-.5-.25-.3-.35-.16-.46.44-.77.13.52.26.4z"/><path fill="#ffb600" d="m10.81 15.98-.38.29-.97-.18-.69-.26.46-.35.65.3z"/><path fill="#ffae00" d="m11.23 15.81 1.2.13.4-.05-1.16-.14-.44.05Z"/><path fill="#ffa700" d="m8.77 15.83-.4.48L7.9 16l-.26-.41-.13-.51.51-.62.09.56.23.46z"/><path fill="#ff9400" d="m12.11 15.83-.42-.07-.14-.08z"/><path fill="#ff8d00" d="m9.23 15.48-.46.35-.43-.35-.23-.46-.09-.56.59-.45.05.59v.01l.18.48zm2 .33-.42.17-.93-.2-.65-.3.5-.21.6.32z"/><path fill="#ff8200" d="m11.66 15.76-.43.05-.9-.22-.6-.32.52-.06.56.32z"/><path fill="#f70" d="m9.39 14.86-.55.23-.19-.49h.01l-.05-.59.63-.27.01.61z"/><path fill="#f70" d="m9.73 15.27-.5.21-.39-.39.55-.23z"/><path fill="#ff7a00" d="M11.69 15.76h-.03l-.07-.02-.78-.21-.56-.32.54.09.54.24.22.14z"/><path fill="#ff7e00" d="m11.79 15.83-.2-.09.07.02h.03z"/><path fill="#50ffa7" d="m28.7 17.71.14-.59.11-.64-.14.65-.11.59Z"/><path fill="#f1fc06" d="m24.76 13.71-.34-.66-.19.66.34.6z"/><path fill="#f4f802" d="m28.62 13.35-.4-.93-.23-.53.39.96.23.5Z"/><path fill="#a0ff56" d="m28.99 15.16-.14.75-.67.7-1.14.63-1.52.58-1.8.52-.07-.52 1.8-.52 1.52-.59 1.14-.66.67-.73.15-.8z"/><path fill="#eeff09" d="m25 13.17-.1.7-.23.48.09-.64-.34-.66.24-.61z"/><path fill="#ffde00" d="m28.39 12.85-.14.9-.28-.4.14-.92-.39-.98.28.44z"/><path fill="#beff39" d="m28.78 15.32.15-.8-.13-.61-.15.84z"/><path fill="#ffe600" d="m25.29 12.7-.11.75-.28.42.1-.7-.34-.73.28-.53z"/><path fill="#fc0" d="m28.11 12.43-.14.92-.31-.32.14-.93-.39-.99.31.34z"/><path fill="#ffd000" d="m25.61 12.31-.11.79-.32.35.11-.75-.35-.79.32-.44z"/><path fill="#d4ff23" d="m28.66 14.75.15-.84-.18-.56-.15.87z"/><path fill="#ffb900" d="m27.8 12.1-.14.93-.35-.23.14-.93-.38-.99.34.23z"/><path fill="#ffc100" d="m25.96 12.01-.12.84-.34.25.11-.79-.35-.84.34-.35z"/><path fill="#ffb200" d="m27.45 11.87-.14.93-.36-.14.13-.91-.37-.99.36.12zm-1.12-.05-.12.87-.37.16.12-.84-.36-.89.37-.24z"/><path fill="#ffab00" d="m27.08 11.75-.13.91-.37-.04.13-.89-.37-.97h.37z"/><path fill="#ffae00" d="m26.71 11.73-.13.89-.37.07.12-.87-.36-.94.37-.12z"/><path fill="#ebff0c" d="m28.62 13.35-.14.87-.67.79-1.13.7-.22-.44 1.13-.71.66-.81.14-.9z"/><path fill="#00d0ff" d="m26.82 20.23-.34.17-1.06.36-1.43.38-1.71.43.29-.11 1.72-.44 1.45-.41z"/><path fill="#02e8f4" d="m27.76 19.58-.33.29-.61.36-1.08.38-1.45.41-1.72.44.27-.19 1.74-.45 1.47-.43 1.08-.41z"/><path fill="#0ff8e7" d="m28.06 19.21-.3.37-.63.4-1.08.41-1.46.42h-.01v.01l-1.74.45.25-.26 1.75-.47 1.48-.45 1.1-.44z"/><path fill="#feed00" d="m24.92 13.82.58-.72-.32.34-.57.68z"/><path fill="#f4f802" d="m28.24 13.75-.65.8-.01.01-1.12.71-.25-.37 1.11-.73.65-.82z"/><path fill="#1fffd7" d="m28.32 18.77-.26.44-.64.44-1.1.44-1.48.45-1.75.47.21-.34 1.77-.48 1.49-.47 1.11-.47z"/><path fill="#ffde00" d="m25.25 13.6.59-.75-.34.26-.58.72.33-.22Z"/><path fill="#00e4f8" d="m22.71 21.37-.29.15-1.83.45-1.85.51-1.77.55-1.59.61.34-.18 1.56-.6 1.75-.54 1.85-.5z"/><path fill="#ffe600" d="m27.97 13.35-.65.82-1.12.73-.29-.32 1.1-.72.65-.83z"/><path fill="#ffdb00" d="m27.66 13.03-.65.83-1.1.72-.32-.23 1.09-.72.63-.83z"/><path fill="#ffd000" d="m26.58 12.62-.61.81-1.06.7-.34.02 1.04-.68.6-.78z"/><path fill="#30ffc7" d="m28.53 18.27-.21.5-.65.48-1.11.47-1.49.47-1.77.48.18-.39 1.78-.49 1.5-.49 1.12-.51z"/><path fill="#ffd000" d="m27.32 12.8-.64.83-1.09.72-.33-.15 1.07-.72.62-.82z"/><path fill="#fc0" d="m26.95 12.66-.62.82-1.07.72-.35-.07 1.06-.7.61-.81z"/><path fill="#43ffb4" d="m28.7 17.71-.17.56-.65.52-1.12.51-1.5.49-1.78.49.13-.44 1.79-.5 1.51-.52 1.13-.54z"/><path fill="#13fce4" d="m23.2 20.85-.23.3-1.83.44-1.84.49-1.74.53-1.54.58-1.27.61.29-.39 1.25-.58 1.52-.55 1.73-.52 1.83-.47z"/><path fill="#eeff09" d="M27.59 14.55v.01h-.01z"/><path fill="#ffde00" d="m26.21 12.69-.6.78-1.04.68-.34.11 1.02-.66.59-.75z"/><path fill="#5aff9d" d="m28.81 17.13-.11.58-.66.56v.01h-.01l-1.12.54-1.51.52-1.79.5.08-.48 1.8-.51 1.52-.54 1.13-.57z"/><path fill="#16ffe1" d="m23.39 20.49-.19.36-1.83.44-1.82.47h-.01v.01l-1.73.51-1.52.55-1.25.58.25-.48 1.22-.53.01-.01 1.5-.52 1.72-.49 1.83-.46z"/><path fill="#0cf4eb" d="m22.97 21.15-.26.22-1.83.45-1.85.5-1.75.54-1.56.6.12-.21 1.72-.64 1.74-.53 1.84-.49z"/><path fill="#0018ff" d="m14.14 27.17-.24.14-.63.55.21-.11z"/><path fill="#6dff8a" d="m29 15.82-.05.66-.14.65-.67.61-1.13.57-1.52.54-1.8.51.04-.5 1.8-.52 1.52-.56 1.14-.6.67-.66z"/><path fill="#2cffca" d="m23.55 20.07-.16.42-1.82.43-1.83.46-1.72.49-1.5.52h-.01l-1.22.54.19-.54 1.21-.5 1.5-.48 1.71-.47 1.82-.44z"/><path fill="#87ff70" d="m29 15.82-.14.7-.67.66-1.14.6-1.52.56-1.8.52-.01-.52 1.8-.52 1.52-.58 1.14-.63.67-.7.14-.75z"/><path fill="#46ffb1" d="m23.66 19.61-.11.46-1.83.43-1.82.44-1.71.47-1.5.48-1.21.5.12-.61 1.21-.45 1.49-.44 1.71-.43 1.82-.43z"/><path fill="#04f" d="m14.72 26.4-.27.17-.55.73.24-.13z"/><path fill="#63ff94" d="m23.72 19.11-.06.5-1.83.42-1.82.43-1.71.43-1.49.44-1.21.45.07-.65 1.2-.39 1.49-.4 1.71-.41 1.82-.4z"/><path fill="#b7ff40" d="m28.78 15.32-.67.73-1.14.66-1.52.59-1.8.52-.11-.5 1.8-.53 1.51-.6 1.14-.68.67-.76z"/><path fill="#7dff7a" d="m23.73 18.6-.01.51-1.83.42-1.82.4-1.71.41-1.49.4-1.2.39v-.68l1.21-.34 1.49-.35 1.7-.37 1.83-.38z"/><path fill="#c4ff33" d="m28.66 14.75-.67.76-1.14.68-1.51.6-1.8.53-.16-.48 1.79-.52 1.51-.61 1.13-.7.67-.79z"/><path fill="#d7ff1f" d="m26.68 15.71-1.51.61-1.79.52-.2-.44 1.78-.51 1.5-.62z"/><path fill="#00b0ff" d="m15.78 23.94-.2.42-.38 1.09.18-.38.39-1.14Z"/><path fill="#e4ff13" d="m26.46 15.27-1.5.62-1.78.51-.23-.38 1.76-.51h.01l1.48-.62z"/><path fill="#0040ff" d="m13.9 27.3-.63.55-.28-.07-.3-.24.56-.49.33.21z"/><path fill="#f1fc06" d="m26.2 14.9-1.48.61-.28-.31 1.47-.62zm-1.77.3.29.31-1.77.51-.27-.32z"/><path fill="#ffe600" d="m25.59 14.35-1.46.6-1.74.49-.3-.17-.31-.09-.31-.01 1.39-.37 1.37-.54.34-.11.34-.02.35.07z"/><path fill="#007cff" d="m15.2 25.45-.29.22-.46.9.27-.17.49-.94Z"/><path fill="#feed00" d="m25.91 14.58-1.48.62-1.75.5-.29-.26 1.74-.49 1.46-.6z"/><path fill="#aaff4d" d="m23.69 18.08-1.83.4-1.83.36-1.71.34-1.5.3-1.21.28-.13-.68 1.22-.22 1.51-.26 1.72-.3 1.83-.34h.01l1.83-.39z"/><path fill="#beff39" d="m23.6 17.57-1.83.39h-.01l-1.83.34-1.72.3-1.51.26-1.22.22-.19-.65 1.24-.17 1.52-.21 1.73-.27 1.85-.32 1.84-.39z"/><path fill="#0054ff" d="m13.25 27.05-.56.49-.24-.38-.11-.5.47-.43.15.47h.01z"/><path fill="#00acff" d="m13.17 25.07.63-.64-.36.32-.66.67z"/><path fill="#d1ff26" d="m23.47 17.07-1.84.39-1.85.32-1.73.27-1.52.21-1.24.17-.25-.61 1.27-.11 1.54-.18 1.74-.23 1.85-.31 1.85-.37z"/><path fill="#0068ff" d="m14.45 26.57-.55.73-.32-.04-.33-.21.48-.65.37.17z"/><path fill="#f1fc06" d="m23.29 16.62-1.85.37-1.85.31-1.74.23-1.54.18-.18-.32.17.32-1.26.11-.3-.54 1.29-.07 1.57-.14 1.76-.21 1.86-.29 1.85-.37z"/><path fill="#ffde00" d="m22.24 15.35-1.86.35-1.9.25-.33-.14-.32-.05 1.64-.21 1.84-.35.31-.04.31.05v.01z"/><path fill="#0080ff" d="m12.81 26.24.05-.56-.43.39-.09.59z"/><path fill="#eeff09" d="m23.07 16.2-1.85.37-1.86.29-.27-.37 1.87-.28 1.86-.36z"/><path fill="#ffea00" d="m22.54 15.56-1.86.36-1.88.26-.32-.23 1.9-.25 1.86-.35z"/><path fill="#fbf100" d="m22.82 15.85-1.86.36-1.87.28-.29-.31 1.88-.26 1.86-.36z"/><path fill="#0cf4eb" d="m16.05 22.67-.21.47-.26 1.22.2-.42z"/><path fill="#00b8ff" d="m15.58 24.36-.31.27-.36 1.04.29-.22z"/><path fill="#007cff" d="m13.73 26.4-.48.65-.29-.35-.15-.46.41-.56.19.42z"/><path fill="#00a0ff" d="M13.22 25.68v-.51l-.37.51-.05.56z"/><path fill="#0098ff" d="m14.91 25.67-.46.9h-.35l-.37-.17.41-.79.4.11z"/><path fill="#46ffb1" d="m16.19 21.31-.21.53-.13 1.31.21-.48.14-1.36Z"/><path fill="#00b8ff" d="m14.14 25.61-.41.79-.32-.3-.19-.42.35-.68.22.36z"/><path fill="#00c8ff" d="m13.57 25-.02-.45-.32.62v.51l.33-.68Z"/><path fill="#0cf" d="m15.27 24.63-.36 1.04-.37.05-.4-.11.31-.92.43.05z"/><path fill="gold" d="m18.48 15.96-1.82.15-1.64.06-.35-.16h-.02l-.37-.07 1.69-.04 1.86-.14.32.05z"/><path fill="#f8f500" d="m19.36 16.86-1.76.21-1.57.14-.3-.43 1.58-.11 1.78-.18z"/><path fill="#ffdb00" d="m18.8 16.18-1.8.17-1.61.08-.37-.26 1.64-.06 1.82-.16z"/><path fill="#ffe600" d="m19.09 16.49-1.78.18-1.59.11-.33-.35 1.61-.08 1.8-.17z"/><path fill="#16ffe1" d="m15.52 23.47-.25 1.16-.39.11-.42-.05.21-1.02.44-.03z"/><path fill="#0cf4eb" d="m13.84 24.21-.04-.39-.24.72.02.45.27-.79Z"/><path fill="#00d8ff" d="m14.46 24.69-.32.92-.35-.25-.22-.36.27-.79.24.3z"/><path fill="#80ff77" d="m16.19 19.89-.22.58v1.37l.21-.53v-1.42Z"/><path fill="#9aff5d" d="m23.73 18.6-1.83.41-1.83.38-1.7.37-1.49.35-1.21.34-.06-.69 1.21-.28 1.5-.3 1.71-.34 1.83-.36 1.83-.4z"/><path fill="#49ffad" d="m15.98 21.84-.33.39-.13 1.25.33-.33z"/><path fill="#30ffc7" d="m14.02 23.33-.05-.31-.17.8.04.39z"/><path fill="#29ffce" d="m14.67 23.67-.21 1.02-.38-.18-.24-.3.18-.88.26.23z"/><path fill="#4dffaa" d="m15.64 22.23-.12 1.24-.41.17-.44.03.11-1.1.44-.1h.01z"/><path fill="#beff39" d="m16.06 18.43-.21.64.13 1.39.22-.58z"/><path fill="#80ff77" d="m15.98 20.47-.34.45v1.3l.33-.39v-1.37Z"/><path fill="#ffb900" d="m12.82 15.9 1.45.05.38.06-1.42-.04z"/><path fill="#56ffa0" d="m14.11 22.39-.06-.24-.08.86.06.32.09-.94Z"/><path fill="#ffbd00" d="m13.23 15.96 1.42.04.37.16-1.39-.03-.41-.18Z"/><path fill="#ffdb00" d="m14.41 16.81 1.32-.03.31.43-1.29.07z"/><path fill="#ffc100" d="m13.64 16.14 1.39.03.36.26h-1.35l-.39-.29Z"/><path fill="#fc0" d="M14.03 16.42h1.35l.34.35-1.32.03z"/><path fill="#50ffa7" d="m14.78 22.57-.11 1.1-.39-.11-.26-.23.09-.94.27.15z"/><path fill="#d7ff1f" d="m14.37 18.55.92-.11.19.65-.9.18z"/><path fill="#80ff77" d="m15.65 20.92-.01 1.31-.41.24-.45.1v-1.15l.45-.18z"/><path fill="#f8f500" d="m16.15 17.69-.09.74-.21.65-.33.52-.25-1.31.32-.59.2-.7.08-.79z"/><path fill="#baff3c" d="m15.85 19.08-.33.52.12 1.33.34-.45-.13-1.39Z"/><path fill="#f1fc06" d="m14.1 17.88.94-.05.25.61-.92.11z"/><path fill="#80ff77" d="m14.15 21.41-.1-.15v.9l.07.23.04-.98Z"/><path fill="#ffa700" d="m11.66 15.76 1.16.14.41.07-1.12-.13-.45-.07Z"/><path fill="#ffe200" d="M13.77 17.28h.97l.3.55-.94.05z"/><path fill="#ffab00" d="m12.11 15.83 1.12.13.41.18-1.08-.11z"/><path fill="#80ff77" d="M14.78 21.42v1.15l-.4-.03-.27-.15v-.98l.27.06z"/><path fill="#fc0" d="m13.4 16.76 1.01.05.34.47h-.97l-.37-.52Z"/><path fill="#ffae00" d="m12.56 16.03 1.08.11.39.28-1.05-.08-.43-.31Z"/><path fill="#ffbd00" d="m12.99 16.34 1.04.08.37.38-1.01-.05-.41-.42Z"/><path fill="#e1ff16" d="m13.79 18.6.58-.06.21.72-.56.13z"/><path fill="#a7ff50" d="m14.01 20.42-.05-.07.09.91.06.15-.1-1Z"/><path fill="#fbf100" d="M13.49 17.87h.61l.27.68-.58.05z"/><path fill="#b7ff40" d="m15.65 20.92-.42.32-.45.18-.11-1.17.44-.26.41-.39z"/><path fill="#ffd300" d="m13.13 17.2.64.07.33.6h-.61z"/><path fill="#adff49" d="m14.78 21.42-.4.05-.27-.06-.1-.99.26-.03.4-.14z"/><path fill="#ebff0c" d="M13.53 18.58h.26l.23.8-.24.06-.26-.87Z"/><path fill="#ffb900" d="m12.72 16.63.68.12.37.52-.64-.07z"/><path fill="#ff9c00" d="m11.79 15.83.77.2.43.31-.72-.17z"/><path fill="#ceff29" d="m13.82 19.43-.04.02.17.9.05.07-.19-.98Z"/><path fill="#ffa700" d="m12.27 16.17.72.17.41.42-.68-.12-.45-.46Z"/><path fill="#ebff0c" d="m15.52 19.6-.41.39-.44.26-.23-1.15.43-.35.4-.46z"/><path fill="#ffe200" d="m13.2 17.78.29.09.3.73h-.26z"/><path fill="#deff19" d="m14.67 20.25-.4.14-.26.03-.19-.99.25-.11.37-.22z"/><path fill="#ffc100" d="m12.8 17.05.33.15.36.66-.29-.09-.4-.73Z"/><path fill="#ffa700" d="m12.35 16.42.37.21.41.57-.33-.15z"/><path fill="#ff8600" d="m11.33 15.54.46.29.48.34-.41-.26-.52-.38Z"/><path fill="#ff9400" d="m11.86 15.92.41.25.45.46-.37-.21-.49-.51Z"/><path fill="#0ff8e7" d="m15.84 23.15-.33.33-.25 1.16.31-.27.26-1.22Z"/><path fill="#ff8d00" d="m5.72 9.76-.21.87.44-1.2.19-.86z"/><path fill="#ff1a00" d="m7.26 6.78-.57.77.65-.82.51-.74-.58.79Z"/><path fill="#ff4e00" d="m6.15 8.57-.19.86.57-1.04.17-.85-.54 1.02Z"/><path fill="#ff1600" d="m6.69 7.55-.17.84.68-.84.14-.83z"/><path fill="#d10000" d="m8.5 5.41-.43.71-.11.81-.76.62.14-.83.5-.73z"/><path fill="#ff5900" d="m7.02 11.12-.55 1-.21-.92-.19-.91-.12-.86.57-1.04.11.87.19.92z"/><path fill="#ff8d00" d="m6.47 12.11-.43 1.16-.22-.89-.2-.9-.11-.85.44-1.2.11.86.2.9v.01z"/><path fill="#ff1e00" d="m7.68 10.32-.66.8-.2-.94-.19-.92-.11-.87.68-.84.1.87.18.94z"/><path fill="#d60000" d="m8.42 9.73-.74.59-.2-.96-.18-.94-.1-.87.76-.62.11.88.17.94z"/><path fill="#ff9c00" d="m6.91 14.62-.38 1.02-.12-.71-.16-.8-.21-.86.43-1.16.2.9.15.84z"/><path fill="#ff6000" d="m7.41 13.74-.5.88-.09-.77-.15-.84-.2-.9.55-.99.18.93.13.88z"/><path fill="#ff3000" d="m7.99 13.04-.58.7-.08-.81-.13-.88-.18-.93.66-.8.16.95v.01l.1.91z"/><path fill="#ffc400" d="m7.07 15.85-.34.9-.11-.5-.09-.61.39-1.02.07.67z"/><path fill="#ff9800" d="m7.51 15.08-.44.77-.08-.56-.08-.67.5-.88.04.72z"/><path fill="#ff1300" d="m8.65 12.52-.66.52-.05-.85-.1-.92-.16-.95.74-.59.14.97.08.94z"/><path fill="#ff6f00" d="m8.02 14.46-.51.62-.06-.62-.04-.72.58-.7.01.76z"/><path fill="#ff3800" d="m8.65 12.52-.02.8-.02.69-.59.45L8 13.8l-.01-.76z"/><path fill="#b00" d="m17.32 5.36-1.71-.52-1.52-.33-1.26-.13-.97.07-.55-.2 1.11-.07 1.4.14 1.65.35 1.84.53z"/><path fill="#d60000" d="m17.33 5.71-1.59-.48-1.38-.31-1.12-.11-.84.07-.54-.43.97-.07 1.26.13 1.52.33 1.71.52z"/><path fill="#a80000" d="m9.85 4.59-.63.49-.34.67v.01l-.08.79-.84.38.11-.81.43-.71.73-.52z"/><path fill="#8d0000" d="m11.31 4.25-.81.28-.51.47-.26.64-.04.79-.89.12.08-.79.34-.68.63-.49.93-.29z"/><path fill="maroon" d="m11.86 4.45-.68.27h-.01l-.39.45-.17.62-.01.77-.91-.13.04-.79.26-.64.51-.47.81-.28z"/><path fill="#840000" d="m12.4 4.88-.54.27-.29.44h-.01l-.08.6.04.76-.91-.39v-.77l.17-.62.4-.46.68-.26z"/><path fill="#ad0000" d="m9.23 9.37-.81.36-.18-.98-.17-.94-.11-.88.84-.38.11.88.16.95z"/><path fill="#920000" d="m10.09 9.26-.86.11-.16-.99-.16-.95-.11-.88.89-.12.1.88.16.95z"/><path fill="#840000" d="m10.98 9.39-.88-.13-.15-1-.16-.95-.1-.88.91.13.11.88.14.96z"/><path fill="#890000" d="m11.86 9.77-.88-.38-.13-.99-.14-.96-.11-.88.92.39.1.88.13.96z"/><path fill="#da0000" d="m9.4 11.32-.03.89-.72.31-.01-.88-.08-.93v-.01l-.14-.97.81-.36.12.99z"/><path fill="#c40000" d="m10.2 11.21-.06.91-.76.09.02-.89-.05-.96-.12-.99.87-.11.09.99z"/><path fill="#b60000" d="m11.05 10.38-.02.96-.1.9-.79-.13.06-.9-.01-.96-.09-.99.88.13z"/><path fill="#ff1a00" d="m9.38 12.21-.07.81-.07.72-.63.27.02-.69v-.01l.02-.79z"/><path fill="#b00" d="m11.9 10.75-.05.95-.14.88-.78-.34.1-.9.02-.96-.07-.99.88.38z"/><path fill="#ff6c00" d="m9.87 14.28.09.52-.57.06-.14-.5v-.01l-.01-.61.68-.08zm.38.93-.52.06-.34-.41.57-.06z"/><path fill="#ff6400" d="m9.96 14.8.29.42.54.09-.24-.41z"/><path fill="#f10800" d="m10.14 12.12-.11.82-.11.72-.68.08.07-.72.07-.81z"/><path fill="#ff6400" d="m10.55 14.9.24.41.54.24-.19-.39z"/><path fill="#e80000" d="m10.93 12.24-.16.81-.16.72-.69-.11.1-.69.12-.86z"/><path fill="#ff4a00" d="m10.51 14.39.04.51-.59-.1-.09-.52.05-.62.69.11z"/><path fill="#ed0400" d="m11.71 12.58-.2.8-.21.69-.69-.3.16-.72.16-.81z"/><path fill="#ff4a00" d="m11.3 14.07-.15.6v.02l-.01.46-.59-.25-.04-.51.1-.62z"/><path fill="#ff4e00" d="M17.36 7.82v.99l-1.15-.25-.91-.1-.63.05h-.01l-.35.19-.41-1.22.46-.15h.74l1.01.17z"/><path fill="#e80000" d="M17.35 6.95 16 6.57l-1.13-.22-.85-.05-.58.12-.5-.87.7-.1.98.09h.01l1.25.27 1.46.44z"/><path fill="#ff3400" d="m17.36 7.82-1.25-.32-1.01-.17h-.74l-.46.15-.46-1.06.58-.12.85.05 1.13.22 1.35.39z"/><path fill="#ff6000" d="m14.52 10.05.16.72.56 1.38-.18-.72-.53-1.39Z"/><path fill="#ff3400" d="m14.68 10.76-.67-1.24-.13-.72-.16-.57-.02-.44.2-.31.41 1.22-.11.33.1.46.2.52.02.03z"/><path fill="#df0000" d="m14.01 9.52-.77-1.07-.1-.73-.08-.57.08-.44.3-.29.46 1.06-.2.31.02.44.16.57z"/><path fill="#920000" d="m12.51 5.82-.18.44.01.58.07.75-.89-.64-.04-.75h.01l-.01-.01.08-.6.29-.44.01.01v-.01l.54-.27.54.67z"/><path fill="#b20000" d="m13.14 7.72.1.73-.83-.86-.07-.75-.01-.58.18-.44.43-.27.5.87-.3.28v.01l-.08.44z"/><path fill="#ff9f00" d="m15.87 16.21-.42-1.42-.03-.88-.1-.89-.09-.87.43 1.48.18 1.72v.01z"/><path fill="#ff6000" d="m15.45 14.79-.53-1.34-.05-.9-.1-.91-.09-.88.55 1.39.09.86.1.9z"/><path fill="#ff2d00" d="m14.92 13.45-.65-1.19-.06-.94-.11-.92-.09-.88.67 1.24.09.88.1.91z"/><path fill="#df0000" d="m14.27 12.26-.74-1.04-.07-.95-.12-.94-.1-.88.77 1.07.09.88.11.92z"/><path fill="#9b0000" d="m12.72 10.39-.86-.62-.11-.98-.13-.96-.1-.88.89.64.1.88h-.01l.13.94h-.01l.01.01z"/><path fill="#9b0000" d="M12.63 9.41v.01l-.01-.01z"/><path fill="#b00" d="m13.53 11.23-.81-.84-.09-.97v-.01l-.12-.93-.01-.01-.09-.88.83.86.1.88.12.94z"/><path fill="#a40000" d="M12.63 9.41v.01l-.01-.01z"/><path fill="#ffb600" d="m15.87 16.21-.08.79-.2.7-.32.59-.37-1.27.3-.65.19-.75.06-.83z"/><path fill="#ff7e00" d="m15.45 14.79-.06.83-.19.75-.3.65-.48-1.17.28-.72.17-.8.05-.87z"/><path fill="#ff4a00" d="m14.92 13.45-.05.88-.17.8-.28.72-.57-1.06.25-.77.14-.86.03-.9z"/><path fill="#f4f802" d="M13.54 18.49v.1l.24.87.04-.02z"/><path fill="#ff1e00" d="m14.27 12.26-.03.9-.14.86-.25.77-.66-.92.22-.81.11-.9.01-.93z"/><path fill="#c80000" d="m12.74 11.35-.09.92-.18.86-.76-.55.14-.88.05-.94v-.01l-.04-.98.86.62z"/><path fill="#e40000" d="m13.53 11.22-.01.94-.11.89-.22.82-.72-.74.18-.85v-.01l.09-.92-.02-.96z"/><path fill="#ffc800" d="m15.27 18.29-.4.47-.43.34-.32-1.11.4-.42.38-.55z"/><path fill="#ffd300" d="m13.18 17.6.02.17.33.81v-.1z"/><path fill="#ffe200" d="m14.44 19.1-.37.22-.25.11-.28-.94.22-.2.36-.3z"/><path fill="#ffb200" d="m12.75 16.81.06.24.4.73-.02-.17-.43-.8Z"/><path fill="#ffa300" d="m14.9 17.03-.38.54-.4.42-.43-1.04.38-.49v-.01l.35-.6z"/><path fill="#ff9400" d="m12.25 16.12.1.3.45.63-.05-.24-.49-.69Z"/><path fill="#ff6c00" d="m11.14 15.15.19.39.52.38-.14-.35-.57-.41Z"/><path fill="#ff7e00" d="m11.71 15.56.14.35.49.51-.1-.3-.54-.56Z"/><path fill="#ffb200" d="m14.12 17.99-.36.3-.22.2-.36-.89.19-.27.32-.38z"/><path fill="#ff6800" d="m14.42 15.85-.35.6-.38.5-.5-.94.34-.55v-.01l.32-.66z"/><path fill="#ff8d00" d="m13.7 16.95-.33.38-.19.27-.43-.79.15-.34.29-.45z"/><path fill="#ff4e00" d="m12.61 15.21-.24.51-.12.4-.54-.55.07-.46.2-.55z"/><path fill="#ff4300" d="m13.85 14.78-.32.67v.01l-.34.56-.58-.81.3-.62.28-.72z"/><path fill="#fa0f00" d="m12.47 13.13-.24.76-.25.67-.68-.49.21-.69.2-.8z"/><path fill="#f20" d="m13.19 13.87-.28.72-.3.62-.64-.65.26-.67.25-.76z"/><path fill="#ff6800" d="m13.19 16.02-.29.45-.15.34-.5-.69.11-.4.25-.51z"/><path fill="#f50" d="m11.98 14.56-.2.55-.07.46-.57-.42.01-.49.15-.59z"/><path fill="#ffe600" d="m15.66 13.63.09.86.29 1.53-.09-.86-.29-1.54Z"/><path fill="#ffea00" d="m15.75 14.49.09.87.28 1.51-.09-.85-.29-1.53Z"/><path fill="#ffea00" d="m15.84 15.36.03.85.28 1.48-.02-.81-.29-1.51Z"/></svg>