<svg xmlns="http://www.w3.org/2000/svg" fill="none" viewBox="0 0 2600 2600"><path fill="#00F6FF" d="M1300 2600c717.97 0 1300-582.03 1300-1300S2017.97 0 1300 0 0 582.03 0 1300s582.03 1300 1300 1300"/><mask id="a" width="834" height="932" x="996" y="1403" maskUnits="userSpaceOnUse" style="mask-type:luminance"><path fill="#fff" d="M996.337 1403.38h833.083V2335H996.337z"/></mask><g mask="url(#a)"><path fill="#000" d="m997.369 1695.56 257.121 638.01 572.18-594.11H1392.8l-115.85-334.33z"/></g><path fill="#000" d="M1692.2 974 1364 1314.55 1471.62 1625H2335l-225.3-651zM265 974l225.207 651H907.53L1235 1285.06 1127.42 974z"/><path fill="#000" d="M1344.59 265 774 858.83h432.67L1322.2 1193 1601 903.303z"/></svg>