<svg xmlns="http://www.w3.org/2000/svg" viewBox="0 0 32 32"><defs><linearGradient id="a" x1="15.96" x2="15.96" y1="273.07" y2="241.96" gradientTransform="matrix(1 0 0 -1 0 273.53)" gradientUnits="userSpaceOnUse"><stop offset="0" stop-color="#c09118"/><stop offset="1" stop-color="#fdeec4"/></linearGradient></defs><path fill="url(#a)" d="M15.96 31.57c8.58 0 15.54-6.96 15.54-15.56S24.55.46 15.96.46.42 7.43.42 16.02s6.96 15.56 15.54 15.56Z"/><path fill="#10330a" d="M15.95 31.98c-2.12 0-4.18-.42-6.13-1.24-1.91-.8-3.62-1.96-5.09-3.42C1.69 24.29.02 20.27.02 16 .02 7.19 7.19 0 16 0h.02c2.15 0 4.25.43 6.23 1.27 1.92.82 3.65 1.99 5.12 3.48 3.03 3.06 4.68 7.12 4.63 11.43-.02 2.12-.46 4.18-1.3 6.13-.81 1.88-1.97 3.57-3.43 5.03-3.01 2.99-6.99 4.64-11.21 4.64zM16.02.65H16C7.55.66.67 7.55.67 16c0 4.1 1.6 7.95 4.52 10.86a15.3 15.3 0 0 0 4.89 3.29c1.89.8 3.89 1.2 5.94 1.19h.04c4.04 0 7.86-1.58 10.75-4.45s4.5-6.67 4.54-10.7c.04-4.13-1.54-8.03-4.44-10.97A15.3 15.3 0 0 0 22 1.88C20.1 1.07 18.09.66 16.03.66Z"/><path fill="#10330a" d="M15.96 30c-1.86 0-3.66-.36-5.37-1.08-1.67-.7-3.17-1.71-4.46-3A13.9 13.9 0 0 1 2 16C2 8.28 8.28 1.99 16 1.98h.01c1.89 0 3.72.37 5.46 1.11 1.68.72 3.19 1.74 4.49 3.05 2.65 2.68 4.1 6.24 4.06 10.02-.02 1.86-.4 3.66-1.14 5.37-.71 1.65-1.73 3.13-3.01 4.41-2.64 2.62-6.13 4.07-9.82 4.07h-.1Zm.06-27.45h-.01C8.6 2.55 2.58 8.59 2.58 16c0 3.59 1.4 6.97 3.96 9.51 1.24 1.24 2.68 2.2 4.28 2.88 1.66.7 3.41 1.05 5.21 1.04h.04c3.54 0 6.88-1.38 9.42-3.9 2.53-2.51 3.94-5.84 3.98-9.37.04-3.62-1.35-7.04-3.89-9.61a13.5 13.5 0 0 0-4.31-2.93c-1.66-.71-3.42-1.07-5.23-1.07Z"/><path fill="#10330a" d="M23.57 15.06h-6.7v2.18h3.14v.5s0 1.1-.75 1.81h.01c-.89.99-2.35 1.54-3.57 1.54-2.89 0-4.72-2.11-4.72-5.13s1.87-5.18 4.84-5.18c2.13 0 3.21 1.07 4.1 2.46l2.01-1.31c-1.25-2.14-3.5-3.34-6.05-3.34-4.4 0-7.39 3.18-7.39 7.51 0 1.72.49 3.24 1.34 4.43 0 0 .07.1.2.26.52.67 1.17 1.22 1.9 1.63.92.55 2.15.98 3.69.94h.01c.41 0 .83-.04 1.27-.13 1.42-.26 2.44-.83 3.11-1.36v1.18h2.1v-5.8h1.46v-2.18Z"/></svg>