<svg xmlns="http://www.w3.org/2000/svg" fill="none" viewBox="0 0 1875 1875"><g clip-path="url(#a)"><path fill="#988430" d="M937.5 1875c517.77 0 937.5-419.73 937.5-937.5S1455.27 0 937.5 0 0 419.733 0 937.5 419.733 1875 937.5 1875"/><path fill="#7a6a2a" d="M937.5 1844.97c501.18 0 907.47-406.29 907.47-907.47S1438.68 30.03 937.5 30.03 30.03 436.318 30.03 937.5s406.288 907.47 907.47 907.47"/><path fill="#ba9f33" d="M937.5 1825.85c490.62 0 888.35-397.73 888.35-888.35S1428.12 49.15 937.5 49.15 49.15 446.878 49.15 937.5s397.728 888.35 888.35 888.35"/><g fill-rule="evenodd"><path fill="#e2cc85" d="m383.027 1222.57-46.219-78 26.88-97.56 191.733-66.019-81.603-149.272 40.328-150.755 75.711-134.996 233.957-32.793 171.912-146.126 371.214 25.017 72.87 353.86-140.32 445.534-79.94 230.65-324.052 10.94-150.458-92.93-176.171-65.62z"/><path fill="#f1d789" d="M1079.73 1302.66s-28.83 13.2-78 10.16c-14.23-19.11-113.89-28.06-113.89-28.06s-12.44-3.79-34.44 5.31c-22.14 9-43.08 7.89-62.65 12.74s-39-20.63-54-25.94c-15-5.61-34.89-19.11-34.89-19.11l-42-4.1-84.34-35.65-133.99-133.49-36.41 57-11.23 70.54 40.51 83.59 109.07 99.36 212.68 54 126.06-37.14 157.92-66.75 39.6-42.47z"/><path fill="#f4ecb4" d="m324.11 830.876 27-81.76 32.17-52.8 103.6-8.65-31.1 90.72-86.61 154.13 35.95 137.594-63.71 31.85-19.58-30.03-15.77-68.87-1.06-77.374z"/><path fill="#f3e19d" d="m440.31 1297.05-19.87-27.76s-5.31-13.2-2.27-24.73c3-11.68 2.57-12.44 1.06-16.84s-14.26-19.57-13.5-32.62c.75-13.2-1.06-17.6 8.64-28.06 10.16-10.16 7.13-27.76 7.13-27.76l13.2 8.19 3-4.55s4.85 3.79 4.85 9.71c1.06-8.19-3.34-46.12 6.67-54.76s27.76 40.5 27.76 40.5l-10.92-71.3-28.07-73.114-49.91-66.75-3-73.58v-6.37s-22.91 35.2-29.28 63c-4.55 19.11 6.37 42.32 4.1 69.78-1.83 27.314-4.1 25.184 2.57 36.004s22.91 33.07 16.54 49.15c-5.61 13.81-24.73 4.1-24.73 4.1s-3.79 11.22-8.95 15.32c-1.82-6.67-3.79-10.92-7.43-15-.31 2.58-1.06 6.07-1.06 6.07s-3.34-10.47-6.68-23.67c-4.54-17.59-9.4-40.8-13.8-53.244-1.82 7.134-6.37 28.824-6.37 28.824l2.58 33.38 12.44 45.81 12 30 11.68 36.71 10.15 24.66 8.19 18.81 7.13 42.33 34.43 36.4 18.36 8.2 13.34-6.83z"/><path fill="#f5eec0" d="M459.43 747.286s-12.74 3.8-18.81 10.47c-6.07 6.37-8.65 11.68-16.84 22.45s-8.65 19.57-15.33 33.07c-6.67 13.2-21.39 33.07-23.21 40.2s-4.85 40.5-8.64 56.28c-3.34 15.78 3.79 35.2 3.79 35.2l8.64-1.83s0 11.23 8.65 18.82c8.64 7.43 10.16-25.19 10.16-25.19l32.31-109.07 48.69-33.07 5.31-26.7-34.74-20.63z"/><path fill="#e0cd81" d="m666.888 1758.51 65.296-25.18 5.568 2.42s2.962 2.42 2.962 10.62c8.184-6.51 15.153-5.32 20.204-9.65 2.605 7.72 5.211 33.32 16.714 36.45 12.007 3.63 24.899-7.24 37.963-20.99 12.88-14.25 27.551-32.13 38.651-39.37a349 349 0 0 1 10.803 32.11c14.625-16.17 40.052-81.85 76.27-80.66 10.468-34.3 27.957-63.59 50.303-84.26 33.608-31.63 54.678-34.05 80.978-31.15 10.44-18.82 23.32-34.78 37.96-47.09 4.35 2.42 16.37 12.56 31.35 2.9 15.16-9.64 32.21-47.08 54.68-51.9 12.11-2.31 24.42 1.27 34.83 10.13 0 0 65.43-90.07 110.58-120.01-1.74-7.24-5.22-34.53 47.71-94.9 2.96 3.63.87 13.77 2.96 14.32.86 0 13.78-7.72 30.12-25.11 20.21-21 44.41-42.98 59.03-49.01 27.55-11.35 56.78 11.82 56.78 11.82 2.49-2.41 5.26-4.21 8.19-5.31 6.95-1.69 12-2.9 15.84-4.78-.35 12.56 4.7 34.05 0 52.64 5.45 4.25 11.22 7.65 17.22 10.14-2.95 8.93-9.41 31.63-20.2 42.5 9.05 6.03 10.27 13.04 23.16 19.1-5.23 10.14-13.78 27.54-17.59 38.2-3.83 11.35-17.6 58.43-23.69 76.29-6.44 17.88-15.14 50.72-19.33 57.31s-19.34 34.52-31 48.27c10.33-5.31 52.6-23.17 70.53-29.94l-58.41 120.05c-124.54 103.51-263.57 169.02-407.81 192.18-144.247 23.15-290.393 3.41-428.702-57.9z"/><path fill="#d2c281" d="M618.84 846.956s10.46.76 23.66-4.1 34.89-15.32 44.3-11.22c13.19 5.61 10.46 23.21 24.73 39 8.64 9.71 24.42 9.41 33.37 19.88s39.74 5.61 39.74 5.61l11.68 63-46.87 60.084-15.33 74.63h-63.38l-57.9-22.97-28.52-69 14.26-69.784z"/><path fill="#ccb360" d="M807.12 805.696s4.85 13.8 6.68 24.42a23.5 23.5 0 0 0 1.06-6.37s3.79 20.94 4.54 29.59c1.52-.31 3-.76 3.34.75s3.8 18.36 3 27.76a75.64 75.64 0 0 1 25.48-25.48c6.07-3.8 13.2-7.89 20.64-8.2 11.68-.3 20.17 7.44 34.13 7.44 33.67 0 64.17-24.73 86.62-32.31 16.53-5.62 30.79-9.71 40.8-18.82 4.86-4.09 13.51-13.19 21.39-26.7 10.47-18 21.39-33.67 32.32-35.64a68 68 0 0 1-15 1.06s3.34-3.34 9-7.89 12.44-10.16 22.14-10.16c17.3 0 25.94 2.57 35.65 2.57 9.71-.3 15.32-2.57 15.32-2.57s10.17 7.13 33.07 7.13c22.91.3 38.23 2.27 50.22 3.34s52.18-3.34 63.71-3c7.52.289 14.9 2.095 21.7 5.31l-37.17-108-133.52-116.7-79.49 56.28-122.28 122.27-118.32 43.84-24.73 27.76v42.32z"/><path fill="#d5b457" d="M1072.6 743.796s3.34-3.33 8.94-7.88 12.45-10.17 22.15-10.17c17.29 0 25.94 2.58 35.65 2.58 9.71-.3 15.32-2.58 15.32-2.58s10.18 7.12 33.07 7.12c22.91.3 38.23 2.27 50.22 3.33s52.18-3.33 63.71-3c7.52.283 14.89 2.09 21.69 5.31l-16.84-48.7-19.56-37.16-55.83-61.14-67.51-39.74c-.3-.3-23.21-6.37-23.21-6.37l-60.68 36.71-55.06 142.45-1.06 30 35.64 16.84c8.95-15 18.82-27 28.07-28.52-8.35.91-14.72.91-14.72.91z"/><path fill="#d2b159" d="M588.84 1504.73s-3-11.23-30.8-40.2c-7.89-8.19-12.74-15-18.05-19.87-13.2-12.45-20.94-15.78-30.34-22.91-20.63-15.32-43.08-15.32-60.37-34.13s-37.44-54.75-51.44-91.48c-13.8-36.71-17.6-48.39-17.6-49.45s3.8-8.19 8.65-7.13 4.85 10.46 6.07 12.74a75.4 75.4 0 0 0 8.19 10.46c7.13 8.2 17.29 18 22.45 32.62-1.06-12.44-5.31-26.24-5.31-26.24s26.7 16.84 49.45 34.43c22.91 17.6 32.31 23.67 39 34.89s22.45 40.81 30 49.46 111 41.26 111 41.26l49.21 36.69 24.43 53.55-19.12 30-36.71 7.89-59.62-26.7-19.09-25.89z"/><path fill="#c2a44d" d="M456.39 1320.26s12.44 19.87 42.78 38.68c27.31 16.54 70.54 31.56 109.08 40.51 22.14 5.31 44.29 9.4 64.16 9.71 53.55.75 90.41-14.56 136.08-19.57 24.73-2.58 55.07-4.55 86.62-12 40.5-9.71 64.47-20.64 97.09-36 23.66-10.92 45.36-19.11 62.95-29.58 24.73-14.56 42.78-30.79 63.72-35.64-2.58 7.13-5.31 19.87-25.94 33.07l25.94-1.06s-14.56 8.64-40.2 28.06c-15.78 12-36.71 32.31-58.1 45.81-13.81 8.65-28.83 15-38.69 20.18-24 13.2-33.68 19.87-49.45 36 5.61-.3 6.07 0 6.07 0s-19.88 2.58-34.13 10.16c-3 0-8.2-1.06-17.3 1.52-7.13 2.27-16.54 7.44-26.24 10.16-13.81 4.1-18.35 2.28-18.35 2.28l2.27 4.55s-18-.31-24 .3c1.06.3.76.76.76.76a9 9 0 0 0-3 1.06 31.4 31.4 0 0 1-9.4 4.09c-1.82.3-3.34.3-5.62.76.76 1.82 6.68 12 9.41 18-2.27 1.52-36.41 27.31-36.41 27.31a25.6 25.6 0 0 1 2.58 5.31c1.06 3.33 1.52 8.19 2.58 10.46 2.57 4.55 4.09 5.31 4.09 5.31s-4.09.76-11.23 2.58c-6.06 1.52-13.5 4.09-24 5.61-3.221.41-6.462.67-9.71.76 1.52 3.34 8.19 16.08-4.1 30.79s-16.08 16.85-19.87 26.25a39.7 39.7 0 0 0-6.07-3.8c-4.09-1.82-9.71-4.54-11.68-8.19a97.4 97.4 0 0 1-4.55 14.26c-3.79 10.16-9.4 20.18-10.46 27.76-4.1-4.55-11.68-13.5-22.15-11.68s-18.81 16.08-20.63 20.18c0-2.58-1.82-4.55-2.27-1.52-.31 3.34-6.07 38.22-38.23 66.44-.3-7.13-.3-22.91-1.06-28.06-3 3-6.67 7.43-28.52 16.84-21.39 9.4-18 18.81-18 18.81s-1.82-15 9.71-30.8c11.68-15.77 18.81-23.21 18.81-24.42a6.7 6.7 0 0 0-1.52-3.34c-1.52-1.52-4.55-3.34-4.55-4.55 1.82-.75 19.87-9.4 18.81-27.31-1.06-16.07-7.88-24.42-12.74-30.33-.75-.76 7.14-6.37 6.07-8.19-.76-1.06-10.46-8.2-11.68-12a34.7 34.7 0 0 1 1.52-6.67c1.06-3.34 1.82-5.62 1.52-7.89-.76-3.79-4.86-14.26-6.07-15.32 1.06.3 8.64 0 8.64 0s-6.06-9.71-7.13-14.26-3.34-16.54-4.55-18.81c2.58.3 8.95.75 8.95 0 .31-2.28-5.61-6.07-3-9 1.82.3 5.31 1.82 8.64 6.07-1.82-4.86-4.85-14.26-11.23-18.05 3-1.06 13.2-3.8 22.15 1.51s12 12.74 12 12.74l13.51 10.17c9.4 7.43 21.38 18 40.5 25.48 4.1 2.28 14.56 2.28 22.15.76a34.3 34.3 0 0 0 9.4-3.79 16.6 16.6 0 0 1 3.34-1.52 72 72 0 0 0-5.61-9.41c2.58 0 5.61.31 5.61.31s1.82-4.1-6.37-12c1.82-1.82 4.1-3 4.1-6.07-2.58-.3-7.13-4.09-8.19-5.61 1.51-1.06 3.79-4.55 6.37-5.61-2.28-1.82-7.89-9.41-10.47-10.16 2.465-.92 4.85-2.04 7.13-3.34 0 0-12.74-3.34-16.84-6.07-4.1-3-10.16-8.19-13.8-9.71-3.8-1.52-10.47-2.27-13.2-5.31 2.57.76 6.67 0 9.71 0 2.27 0 3.34.3 4.09.3-.3-1.06-.3-3.34 5.62-4.09 2.848-.43 5.611-1.3 8.19-2.58 0 0-5.62-.3-12-6.37s-11.68-10.92-15.32-11.68c-3.79-.76-10.92 2.58-15.32 2.27-6.07-.75-8.65-3.79-8.65-3.79s-20.17 1.82-64.92-25.48c-38.69-23.67-55.53-44.6-55.53-44.6a67 67 0 0 1-10.46-4.86c-14.56-7.58-34.74-23.36-34.13-44z"/><path fill="#caa13e" d="M1014.49 409.756a19.7 19.7 0 0 1 9 6.07c7.13 8.19 11.68 23.66-4.55 40.2 6.37 2.27 9 3 14.56 2.27-5.61 6.68-18.35 20.94-19.11 33.38-.76 10.16 5.61 13.2 5.61 13.2s-9.71 11.22-10.16 30c4.59-5.171 9.6-9.942 15-14.26 11.23-8.95 26.7-19.11 37.17-25.48-.14 2.67.22 5.342 1.06 7.88 0 0 19.56-16.08 36-8.94 7.43 3.34 4.09 13.8 4.09 13.8s10.17-3.79 17.3 3.34 17.21 25.52 22.38 32.65c2.27 3.34 8.19 9.71 14.25 19.57a247.6 247.6 0 0 1 20.64 43.53c.3-7.89 2.27-20.17 24.73-12.44 22.45 7.89 47.93 24.43 69.32 57s26.69 69.34 37.46 83.34c10.92 13.5 22.15 35.95 22.91 45.36s-3.34 39.74 19.11 121.81c6.37-25.48 16.08-82.07 16.08-82.07l5.31-49.91 6.07-154.43-161.26-133.97-126.06-91.48-82.07 7.89 5.15 11.68z"/><path fill="#ceb052" d="M503.73 1712.26v-1.68c1.277-.8 2.404-1.82 3.33-3 1.06-1.52 1.83-3.34 2.58-3.79 1.52-.76 8.65-3 12.44-2.28s13.81 4.85 19.12 4.55c10.92-.3 23.66-8.65 43.84-4.85 30.34 5.61 37.47 26.24 55.07 37.92 12 8.2 24.42 4.55 26.24 4.55h4.09c.76 0 6.37-6.37 9.41-6.06 6.07.3 6.67 5.31 10.46 5.61 8.95 1.06 26.25-4.55 34.9-2.27a16.6 16.6 0 0 1 6.799 4.11 16.66 16.66 0 0 1 4.121 6.8c1.82 5.61.3 12.74-4.1 16.84-9.4 8.64-18.35 16.84-20.17 24a83 83 0 0 1 6.66 5.64 883.5 883.5 0 0 1-214.79-86z"/><path fill="#c39d3c" d="m1311.52 1740.62 2.93 1.71a891.1 891.1 0 0 0 284-210.5c-.87-30.7-2-62.17-3.24-73.83-2.57-24.73-.75-49.91-1.51-64.47s-8.95-73.88-12.74-89.2c-4.1-15.32-12-22.91-13.2-22.91-1.06.31-7.44 28.83-7.44 36s-1.52 24.43-1.52 28.83c-1.06-.31-1.51-3-1.51-4.1-1.52 3.79-3.34 10.47-4.1 11.23s1.06-6.37 0-7.89-3-.76-2.58-4.55c.18-2.25.53-4.48 1.06-6.67 0 0-4.55 6.67-7.88 23.66-3.34 16.84-3.34 17.3-4.55 18.81-1.06 1.83-7.13 7.89-7.44 10.17-.3 4.09 5.62 8.19 6.07 10.46.3 3.8-5.31 21.39-7.13 30s-1.06 25.48-3 34.13c-1.52 7.89-3 12.44-8.19 15.77 3.79.76 7.43 1.82 7.43 1.82s5.31 22.45-8.19 41.57c-4.85 6.67-6.06 9.71-11.22 15.78-10.17 11.22-18.06 24-18.82 32.31a55 55 0 0 1-1.06-7.44s-15.77 18.36-22.45 28.83c-8.64 13.5-20.63 12.74-24 16.08s-4.1 9.4-3 14.26c-3 .75-8.64 1.82-12.44 13.5-1.82 6.06-6.37 12-13.5 16.08s-15.78 5.31-20.18 6.37c3.79 1.06 5.31 1.06 7.13 2.27-2.27 3.79-12.74 9.71-24.42 17.3-11.68 7.13-17.3 17.59-20.18 24.42-3 6.37-7.43 10.47-14.56 11.23 3 1.82 7.44 6.06 9.71 7.43-3.34.76-9 .76-19.11 9.41-10.62 8.8-14.26 11.38-19.12 12.14z"/><path fill="#d2ba6b" d="M1100.44 1810.92c5.81-4.08 12.1-7.41 18.73-9.93 23.66-9.4 48.69-11.22 58.55-14.25 9.41-3 16.84-7.14 28.52-9.41l-.85 7.52a885 885 0 0 1-105 26.07z"/><path fill="#c0993a" d="M1536.84 1188.59s-4.85 26.24-13.5 42.78-18 39.44-18 39.44c.06-5.16.67-10.3 1.82-15.33-10.92 6.37-37.47 21.7-45 28.52-7.13 6.37-19.12 17.6-22.15 22.91 7.13-20.93 14.56-39.74 15.78-48.39-10.92 7.89-61.9 49.91-88.44 77.67l-82.68 66.9c-9.54 5.14-19.37 9.74-29.43 13.78-14.25 6.06-31.09 11.22-43.53 16.08 3.34-8.95 8.64-16.85 16.08-24.43 7.89-7.43 31.55-33.07 35.19-45 3.34-12.44 4.1-19.87-.3-30.34-4.1 1.06-13.5 1.52-19.87 3.34s-13.2 8.64-13.2 8.64 4.85-27.76 15.32-54c-7.89.3-21.39 2.57-21.39 2.57s18.81-31.55 51-53.54c-9.86 2.09-19.5 5.09-28.82 8.94-18.81 7.89-39.44 19.57-54.76 25.94 8.64-12 69.32-98.6 105.43-179.31 36-80.55 49.45-101.184 57.34-144.414 4.09-21.39 3-53 4.09-81.31 1.06-28.07 4.55-53.25 2.28-70.09 9.4 11.68 44.6 44.6 45.81 118.18 1.06 73.57-33.67 172.944-70.54 226.484 9 2.58 32.32 5.62 56.28-36s23.67-53.24 32.32-70.54c1.06 8.65.75 11.68.75 11.68s34.9-42.32 51.43-95.574c3.34 22.91 13.2 43.09-2.28 85.114-13.8 37.92-31.85 47.18-31.85 47.18s8.95-1.52 22.14-9.41c2.28 5.61 1.83 12 5.62 14.26s8.95 6.07 9.71 9.71c4.09-6.07 10.46-13.81 12.44-19.57-1.52 12-2.58 64.47 3 91.17 11.69-1.06 23.67-1.82 31.86-22.91-5.61 20.64-5.61 33.07-1.82 50.67 6.22-4.24 11.83-11.83 11.83-11.83z"/><path fill="#a88f33" d="M1142.68 352.416s-11.68 4.85-31.55 4.85c-17.29 0-12.44-6.67-39.44-6.67-41.56 0-186.74 24-212.23 23.66-16.54-.3 55.82 7.13 55.82 7.13l184.93 2.58 37.16-3 13.81-28.1z"/><path fill="#e3c571" d="M663.16 713.916s-23.67 18.05-33.68 31.86-15.32 22.9-26.7 34.13c2.671.101 5.34-.257 7.89-1.06 0 0 0 3-1.82 3.79a10.6 10.6 0 0 1 4.66.521 10.6 10.6 0 0 1 3.98 2.479c-3.34 1.82-12.44 10.93-5.31 21.7 5.31 8.19 16.54 8.94 16.54 8.94s-2.58 7.44 8.19 6.68c23.21-1.06 49.15-11.23 61.13-8.65 12 3 18.82 4.1 27.31 18.82 9 14.56 16.84 16.84 16.84 16.84s5.31-13.51 4.1-33.68a100.2 100.2 0 0 0 7.13-34.13l-7.89-58.1-34.43-43.54-44.6 24.73-3.34 8.64z"/><path fill="#d3ae4d" d="M1153.6 549.626s-5.31 1.06-20.63 9-25.94 10.46-31.86 22.14-6.37 20.94-6.37 20.94 10.47-4.55 16.54-6.07c6.37-1.51 13.5-1.061 12.74 1.519a17.5 17.5 0 0 1-3 4.851s12-.3 11.68 5.62-2.27 12.44-4.54 15.32c-2.28 3-11.68 7.44-12.74 10.93-2.58 7.13 1.06 7.43-.31 13.19-1.06 5.62-6.06 16.539-22.45 35.649-16.84 19.12-24 32.62-24 32.62s-8.19-15.319-12.44-28.519c-3 1.51-19.11 10.459-19.11 10.459l-37.32-130 .75-8.649s3.34-4.09 4.1-11.68c-5.61-1.82-6.37-3.341-13.81-10.46s-13.5-15.781-25.93-21.701c-1.82-3.34-4.1-7.879-13.2-9.709s-14.56-3.33-14.56-3.33 4.85-1.83 7.13-5.62c-5.62.76-10.16 2.58-22.45 2.28-12.44-.31-13.81-.76-20.63.3s-15 4.1-18.05-6.37c-3.34-2.58-10.47-.301-16.54 8.639s-8.19 16.081-19.87 19.571a40.7 40.7 0 0 1-5.31 14.559c-3.34 5.62-8.65 11.231-15.78 19.571-11.23 13.2-9.41 34.889-27.31 51.429-18.05 16.53 3-45.82 3-45.82l28.82-68.999 82.07-80.25 127.43-8.64 12.44 66 62.2 21.39 39.29 59.92z"/><path fill="#f4efc8" d="M370.99 783.546s-3.79-9.41 0-27.76 9.71-27 11.68-54 19.57-60.68 19.57-60.68l48.69-22.14 34.44 9.4 10.16 46.12-43.54 24s-2.27 10.16-14.56 18.35-29.28 14.56-33.37 22.91a66.8 66.8 0 0 0-5.31 16.08s-12.44-2.58-19.87 5.61c-7.89 8.35-7.59 15.78-7.89 22.15z"/><path fill="#ebcc73" d="M469.29 771.256s-4.1 2.58-7.13 9c-3-4.85-10.17-33.68-10.47-59.62s-1.85-32.37 4.15-41.31 29.53-18.36 26.19-34.46c-3.34-15.32-17.3-21.69-34.44-17.29-12 3-20.93 28.52-33.37 41.26-9.41 9.71-20.63 8.19-23.66 13.5-4.1 7.13-.31 14.26-1.52 18.81-.31 1.52-4.1 9.71-10.93 19.57-13.8 19.87-37.16 47.94-40.2 73.12 1.06-14.26.31-14.56 4.1-30.34l-2.28-3.79 15-49.15 9.71-40.5 21.7-67.82 38.22-69.32 37.17-41.57 38.68 2.58 4.55 58.1 22.15 109.08 46.57 57.34-74.64 50.23-29.58 2.58z"/><path fill="#e6bd62" d="M567.89 715.736s-16.84 11.23-20.63 15.32c2.27.31 6.06 1.83 4.54 4.1-1.82 2.27-12.74 10.16-18.81 17.6-6.37 7.43-12.44 16.84-14.56 21.39-2.27 4.09-19.57 16.08-25.48 17.59 12.44 0 37.47-15.32 46.87-15.32-.3 4.55 2.58 9.71 7.89 10.16s20.63 3.34 41.26-9.4c20.63-12.44 13.81-21.7 22.45-27.76 16.54-10.93 23.21-20.64 32.31-26.7s13.81-7.44 13.81-7.44.3-4.55 3-4.09a4.08 4.08 0 0 1 3.34 2.58s15.78-11.23 36-14.26a2.1 2.1 0 0 1-1.06-1.06s1.51-.76 1.82-1.52c0 0 1.06-1.52 1.82-.76s1.82 6.37 3.34 8.65c3.34-1.52 9.71-15.78 9.71-15.78l15.33-43.84v-40.05l-12 2.28-90 38.22-54.62 56.59-6.37 13.5z"/><path fill="#b6933f" d="M826.99 519.286a50.9 50.9 0 0 0 13.85-5.62c-1.82 4.86-1.82 10.17-9.71 21.7s-8.19 13.2-14.56 25.18c-6.37 12.44-7.13 30.34-13.2 38.22a27.8 27.8 0 0 1 8.64-2.57s-6.06 5.31-8.64 10.92-7.13 17.29-18.35 24.43-25.49 11.68-40.81 28.52c-15.33 16.53-31.1 37.47-39 45 4.1-7.13 9.71-21.39 11.23-30.79s-.31-20.64 2.27-33.07 2.58-21.39 15-43.09 33.68-97.09 33.68-97.09l45.81-14.56 13.81 32.77z"/><path fill="#dfc068" d="m576.84 455.416 1.82-14.56 22.91-36.71 23.97-64.47v-88.14l-1.82-50.97 3.79-33.38 2.88-10.61 3.04-4.1 19.56 10.16 27.01 36.71 2.58 70.85-26.25 111.8-74.94 81.77z"/><path fill="#a88f33" d="M636.46 148.376s-12 .31-14.56 50.22l-5.62 100.88c-1.82 24.73-6.06 39.74-8.19 54.31s-3.34 34.43-10.16 46.57c-3 5.61-9.41 23.21-24.43 36.41-16.84 14.56-42 24.73-45.81 25.49-6.68 1.51-40.51 4.85-54.31 12.44-4.85 2.58-13.2 5.61-22.45 14.26-18.36 16.53-42.78 46.11-60.38 81.76-27 53.25-54 203.58-54 203.58l6.07-10.16s.76-13.5 14.26-37.17c13.2-23.66 9.41-50.21 27.76-95.57 7.13-17.29 16.08-39.74 27-58.86 17.3-31.1 38.23-57.8 59.32-72.36 34.43-23.66 72.36-28.82 72.36-28.82l40.81-27s7.13-13.8 16.54-29.58c13.19-22.14 30-46.87 33.67-82.82 5.62-53.25-7.89-88.14-7.13-119.69s1.06-54.76 7.44-60.38 1.82-3.49 1.82-3.49z"/><path fill="#b58634" d="M805.6 340.436s-3.34 1.51-9.4 0a13.54 13.54 0 0 1-6.07 12.74c-6.37-2.58-66 2.58-66 2.58s-27.76-4.86-36.41-41.57c-6.06-24.43 4.55-58.1 1.06-80.25-5.31-32.62-12.74-39-13.5-49.15s-1.52-12.74-1.52-19.11c-3.34-.76-5.31-1.82-8.64-1.82-.76-3 .75-5.62-2.58-10.93 1.82.76 14.26 2.28 28.82 16.08 12 11.23 12 15.32 13.81 17.6 2.27 2.27 20.63 18 28.52 33.68s23.21 65.68 26.7 73.87c1.06 3.34 3.34 6.68 9 14.26 8.8 10.93 21.69 29 36.25 32z"/><path fill="#a88f33" d="M707.31 187.366a420 420 0 0 1 24.72 46.12c8.95 20.17 14.26 36.71 25.49 50.21-6.07-17.59-16.84-52.18-23.21-64.47-7.13-13-21.69-27-27-31.85z"/><path fill="#e6c367" d="M604.15 436.766s-15.32 3.79-43.84 18.81c-9.41 4.85-18.35 8.94-27 12.74-22.47 10.16-46.57 19.55-65.69 24.73 1.52 1.82 2.27 2.57 2.27 2.57s0 7.44 4.1 11.68c-2.27 2.28-32.62 22.91-23.66 91.93 6.06-2.27 13.19-5.31 14.25-5.31 1.83.31 2.28 5.31 4.55 5.31s9.71-3 17.6-13.2c-.3 4.1-4.85 45.36 19.57 73.12 4.55-5.31 16.08-22.91 16.08-22.91l.3-5.61s1.06-19.57 7.44-37.47 18.81-31.1 18.81-31.1l64.91-92.69-9.71-32.61z"/><path fill="#dcba5a" d="M543.47 572.866a35.9 35.9 0 0 1-9.71 4.85c-1.06-3.79-2.58-16.84 6.37-29.58 10.47-15.33 33.37-35.2 39.74-51 4.1-10.17 2.28-35.65 38.69-68.27s50.66-43.84 50.66-43.84l58.86-29.58 72.36 28.52-35.95 140.9-27.91 66-111-20.93-82.12 2.93z"/><path fill="#d2a83e" d="M1132.97 383.506a182.7 182.7 0 0 0-55.82-10.92c-31.86-1.06-78.43.76-124.09 1.06-49.15.3-93.75-16.84-155.64-19.87-10.16-6.07-36-32.62-116.66 23.66 4.85-.3 58.56-12.44 77.21 10.93 18.81 23.21 13.5 62.65 10.93 72.05-4.86 20.94-20.64 51.43-27 72.82s-4.86 32.63-9.41 47.63-14.56 22.45-8.65 39.74c7.89-4.85 12-4.85 25.18-34.43s10.47-50.67 32.32-75.7c21.39-25.18 57-59.62 70.54-68.27s121.05-64.47 233.62-11.22c27.15-2.88 47.48-47.49 47.48-47.49z"/><path fill="#ac8132" d="M1244.02 248.806s-4.86 6.06-10.93 12.74c-13.5 14.26-31.1 30.33-46.12 46.87-14.25 15.78-30.33 28.07-48.39 48.7l-44.3 50.21c-4.85 6.68-8.64 17.6-8.64 23.21-2.58-1.82-5.61-3.79-5.61-3.79a38.3 38.3 0 0 0 4.55 6.68c3.79 5.31 9.7 12 12.74 16.08a48.9 48.9 0 0 1 7.88 17.29c1.82.3 13.5 2.58 28.07-21.39s33.67-50.21 33.67-50.21l30.34-45.06 19.12-38.22 24-42.78 3.65-20.33z"/><path fill="#a88f33" d="M1275.12 218.166s-18.36 15-25.49 24-24 32.62-24 32.62l6.07-.76 30.8-27.3 12-21.39.61-7.13zm307.49 1004.244s-6.07-16.53-7.89-31.55 3-18-2.58-35.19c-3.34-10.47-9.4-9-10.92-10.47s-2.58-17.29-2.28-25.94-.3-19.87-1.82-24.73c-2.27-1.82-3.79-3.34-7.13-14.56-3.79-11.23-5.61-16.84-7.43-20.17s-7.14-6.37-7.14-9.71c0-6.68 6.07-10.16 6.07-12-.3-3.79-4.85-.75-6.07-1.82-1.51-1.82 3.8-12.74 1.83-14.26-.76-.75-6.07 5.62-7.44 3.8-1.52-1.83-3.34-19.88-6.07-31.864-2.57-11.68-5.31-20.17-5.61-23.66-.3-3.34-20.94-62.2-25.94-76.46a362 362 0 0 1-10.16-36.71c-1.52-7.13-2.58-21.7-3.34-20.18s-.3 8.95-1.52 8.65c-1.06-.31-4.85-26.24-6.06-30.34-1.06-4.1-7.44-18-9-28.06-1.52-10.17-4.85-36.72-7.13-54.77s-3.34-25.48-3.34-30c.37-11.056-.24-22.123-1.82-33.07-3-19.12-9-42.33-14.26-55.82l-42-106.95c0-4.1 5.31-1.82 5.31-1.82l22.9 58.55c9.41 25.49 18.36 47.94 20.64 50.22 1.82 2.27 16.08 27.3 22.45 68.26s8.64 78.73 12.44 103.91c1.82 12 3.34 24.73 7.13 37.47 4.09 13.81 10.46 28.07 18.81 49.91 7.13 18.36 12.44 33.68 15.32 46.88 3.34 16.84 3.34 29.58 5.31 37.93 1.83 7.13 4.55 21.38 10.93 42s15.77 47.184 22.14 63.714c12.45 33.07 18 60.68 19.88 75.4 1.66 15.17 7.28 67.66 5.76 83.43z"/><path fill="#a17c34" d="M1379.03 557.516s-17.6-17.6-24.73-78c-7.13-60.68-5.61-150-5.61-150l-14.26-34.89s-3-23.21-10.47-31.85-22.14-23.21-28.82-30.34-14.26-16.84-18.81-18.36c2.27-3.79 12.44-25.18 51.42-25.48s51 21.39 55.07 29.28 22.45 42 29.27 107c6.37 64.92 6.68 69.78 5.62 92.23-.76 12.44-4.86 41.26-12 72.05-6.52 26.1-13.65 55.23-26.7 68.42z"/><path fill="#543e26" d="M1253.73 558.576s-4.1 4.09-7.89 14.26a47.7 47.7 0 0 1-7.44-10.17c-5.61-9.4-14.25-21.39-34.43-14.56-.3-6.37-.76-9.71 0-14.26 3.34-.75 13.5-8.94 23.66-20.93 7.14-8.19 13.81-17.6 18.36-29.58 3-2.28 8.19-6.07 15-10.47 9.71-6.67 21.39-15.78 23.21-25.94-4.55 1.82-14.26 6.37-28.83 5.62 5.62-2.58 14.26-5.31 13.2-16.54 2.28-1.52 4.1-2.58 4.1-2.58a15 15 0 0 0-5.31-.76c-.31-1.06-.76-2.57-3.34-1.82s-3 .76-3.34 1.82c-1.06.31-4.55 0-7.13 1.83s-9.71 7.88-12.44 8.94l2.57-4.54s-7.43.75-12.74 3c-9.71 3.34-20.93 9.41-32.31 15.32 1.06-1.82 1.52-3 2.27-3.34s2.58-.75 2.58-1.06-.75-3-.3-4.09c3.4-7.208 7.42-14.11 12-20.63 5.31-7.14 6.37-17.3 6.37-17.3l23.21-11.68 65.23-15 42.33 2.58-5.31 29.28-25 51.12-21.39 46.57-24.43 28.53-22.45 16.38z"/><path fill="#585136" d="M838.98 765.186s13.8 18.36 70.54 18.36c27 0 36.41-2.58 42-4.1 6.07-1.52 28.82-10.46 51.73-37.47 20.63-24.42 16.08-34.43 16.08-34.43l-12-1.82-39 5.31-115.4 49.15-14 5z"/><path fill="#252211" d="M881.3 769.736s-49.15 10.93-49.15-20.17c0-30.34 30.34-62.2 37.93-67.81 7.89-5.62 26.7-12 26.7-12h45.36l8.64 22.91-3.79 49.45-65.69 27.61z"/><path fill="#c3b378" d="M926.66 679.026s-9.4-8.65-30.79 3-38.69 36-39.75 58.11c-1.06 19.56 16.08 34.13 42.78 34.89 19.87.75 31.86-1.52 37.93-3-1.52-1.82-9.41-11.68-9.41-11.68l-.75-81.31z"/><path fill="#e6d89c" d="M917.41 683.866s-2.27-1.82-9 1.82c-5.61 3-13.8 10.93-20.17 16.54-4.1 3.34-6.68 4.85-9 7.43-9.41 11.23-17.3 29.59-12.74 38.69s19.57 19.57 57.8 12.44l-7-76.91z"/><path fill="#252211" d="M904.97 702.686s-6.07 9.41-6.07 24.43c0 15.32 8.65 39.74 40.51 41.56 24.42 1.52 40.8-35.19 58.55-49.45 13.5-10.92 21.69-11.23 21.69-11.23s-13.8-15-50.66-34.43c-36.41-19.57-77.22-22.15-99.37 7.89 10.47-.76 44.3-9.41 44.3-9.41l16.54 5.31-25.49 25.34z"/><path fill="#9f8e57" d="M553.18 598.776s6.67-4.55 19.57-7.44c12.44-3 37.47-5.31 37.47-5.31l20.63 9 8.19 31.1-15 32.32-19.11 12-21.7-34.89-30-36.72z"/><path fill="#585136" d="M520.26 635.946s-6.37 3.79-9.71 18c-3.34 14.56 3 32.31 6.67 37.92s12 20.94 29.28 21.7c4.277-.023 8.506-.9 12.44-2.58a78.7 78.7 0 0 0 16.84-10.47c7.44-5.61 13.5-10.46 12.74-10.92-1.82-.76-45.81-37.17-45.81-37.17l-16.54-18.46-5.92 2z"/><path fill="#453a25" d="M561.84 696.316s8.95-.75 14.26-4.09-31.1-39.44-31.1-39.44l2.58 39z"/><path fill="#84754b" d="M523.14 633.206s-4.55 8.65-4.55 10.93c-.76 7.43 1.52 30.79 3.34 38.22 1.82 7.89 11.68 19.87 24.43 19.87 7.88 0 18.81-4.85 18.81-6.06 0-1.52-11.23-3-14.26-8.65-1.82-3-2.58-10.46-3-18-.3-4.85-.3-10.16 1.52-12 4.1-4.55 4.85-17.6 4.85-17.6l14.56-27.05h-19.15l-22.91 14.26z"/><path fill="#252211" d="M517.53 641.556s15-19.87 28.52-24.43 19.57-1.82 19.57-1.82l-7.89 20.18-11.23 12.44.76 6.37s-1.83 16.84 9.4 28.52 19.57 11.23 24.43 11.23 18.81-4.1 25.94-20.94c6.37-15.77 11.68-36-1.06-56.28-12.45-20.18-34.44-20.96-38.69-20.96s-37.62 1.67-49.75 45.66z"/><path fill="#f7f7e7" d="M902.69 709.056c-5.61-2.58-.3-18.35 5.31-23.21s12.74-10.46 25.19-11.23c4.54-.3 8.94 2.58 8.19 5.62-1.06 5.61-8.95 13.5-16.08 19.11-9.86 7.74-16.24 12.59-22.61 9.71"/><path fill="#d4c38b" d="M540.13 626.536s-10.47 4.85-15.32 15a39.8 39.8 0 0 0-3 24c.76 3.79 4.55 13.19 7.13 16.53s6.07 5.62 8.65 5.31 7.88-7.13 7.88-11.22.31-21.39 5.31-30.8c4.4-9.4-10.62-18.81-10.62-18.81z"/><path fill="#e2d59d" d="M541.65 625.776c-1.82 1.06-4.85 2.58-4.1 4.55.76 1.82 7.13 3 9.41 7.44 2.58 4.55 2.58 9.4 1.82 11.68a18.5 18.5 0 0 0 5.31-3.8c3.34-3.79 7.43-8.94 10.92-8.94 2.28 0 4.55 1.06 6.68 1.06 3.34 0 6.67-1.06 7.13-4.55.75-4.55-6.37-8.65-10.47-7.89.76-3 1.82-7.43-1.52-10.47s-13.8 2.28-16.08 3.8-9.1 7.13-9.1 7.13z"/><path fill="#6e6342" d="M435.46 879.266s-3 3.79-4.85 12.74-1.06 7.89-2.58 14.26-20.19 69.78-13.19 91.17 19.12 29.284 26.7 46.574c1.52 3.79 3 6.07 3.79 9.41 2.58 11.22.31 19.87 3.34 31.1 1.06 3.79 3.8 8.19 7.89 12.74 9 9.4 23.67 18.35 30 24.72 8.94 9.41 21.69 28.53 37.92 30.34 8.65 1.06 20.94-2.58 31.1-8.64 9-5.62 14.56-13.5 24-18 6.67-3.34 13.8-4.55 20.17-6.07 13.2-2.58 25.19-3 32.32-1.52 10.92 2.28 36.71 10.17 51 10.17a138.8 138.8 0 0 0 33.07-4.55c21.69-6.37 47.93-17.3 65.23-22.15 10.16-3 18.35-3.79 26.7-5.61 14.26-3.34 26.24-7.89 33.07-16.54-4.55-5.31-10.16-13.5-40.51-13.2-34.43.76-74.18 19.87-93.75 22.91s-28.06 5.61-49.91-2.28c-21.42-7.97-22.13-13.24-22.13-13.24s-22.49-15.73-31.9-55.83 0-69.324 24.43-97.094c6.37-7.13 4.85-13.5 4.85-13.5s16.08-21.69 11.68-42c-4.85-20.18-35.95-16.08-35.95-16.08l-172.48 30.17z"/><path fill="#292311" d="M501.14 1014.59s-8.64-8.19-5.61-47.944a49.3 49.3 0 0 1 10.92 1.06s4.71 30.8-5.31 46.884"/><path fill="#252211" d="M439.56 848.926a24 24 0 0 0 3.34-3c-3 5.61-16.85 28.06-5.62 63.41 11.23 35.19 39.44 61.43 74.18 62.65s53-15.78 73.88-41.26c8.19-10.16 17.6-22.91 25.94-31.55 12.44-13.51 22.15-17.3 22.15-30.34 0-26.7-27.31-38.69-67.51-50.67s-76.46-10.5-95.27-2.3c-18.35 8.94-26.24 18.35-31.1 33.07zm-3.04 189.634a9.4 9.4 0 0 0 3.34 0c2.27-.31 25.94-9 50.67-7.44a270 270 0 0 1 54.76 9c31.1 8.19 69.78 24.42 94.81 33.68 6.67 2.57 13.2 7.13 18 8.94 19.12 7.44 19.87 7.44 31.1 9.41 13.2 1.82 26.7-2.58 40.81-5.61 17.29-3.8 46.87-5.62 72.81-9.41a149.6 149.6 0 0 0 24.73-5.61s-20.63 20.63-70.09 28.06a219.6 219.6 0 0 1-60.37.76c-15.78-1.52-26.24-3.8-34.13-6.07-8.95-2.58-27.31-9.41-49.91-15-15.78-4.1-33.38-7.13-53.55-10.92-49.76-9.11-103.76-19.57-123-29.73z"/><path fill="#fff" fill-opacity=".8" d="M1413.89 699.2C1319.08 454.36 1084.7 409 1084.7 409H416.01l2.58 249.39h133.17v556.89H416v248.94h650.19c156.7 0 282.31-157.47 282.31-157.47 201.15-285.49 65.38-607.55 65.38-607.55zm-344.21 439.77s-51 73.58-106.49 73.58h-111L849.56 659h142.45s66 13.8 112.11 144.41c0 0 61.13 187-34.44 335.56"/></g></g><defs><clipPath id="a"><path fill="#fff" d="M0 0h1875v1875H0z"/></clipPath></defs></svg>