<svg xmlns="http://www.w3.org/2000/svg" viewBox="0 0 32 32"><defs><linearGradient id="a" x1="80.939%" x2="56.354%" y1="-14.088%" y2="88.122%"><stop offset="0%" stop-color="#2C2C3D"/><stop offset="100%" stop-color="#1A1A27"/></linearGradient><linearGradient id="b" x1="41.017%" x2="101.999%" y1="13.725%" y2="92.769%"><stop offset="0%" stop-color="#FFF"/><stop offset="100%" stop-color="#FFF" stop-opacity=".55"/></linearGradient><linearGradient id="c" x1="60.987%" x2="-8.531%" y1="84.26%" y2="-17.979%"><stop offset="0%" stop-color="#6966FF"/><stop offset="100%" stop-color="#6966FF" stop-opacity=".36"/></linearGradient></defs><g fill="none"><rect width="30" height="30" x="1" y="1" fill="url(#a)" rx="15"/><path fill="#FFF" d="M19.947 7.961 8.293 24.37h3.578L23.586 7.96z"/><path fill="url(#b)" d="m12.244 7.961 3.429 4.835-1.79 2.637-5.292-7.472z"/><path fill="url(#c)" d="m20.295 24.37-3.802-5.347 1.789-2.564 5.59 7.911z"/><path fill="#2D2D3D" d="M16 0C7.163 0 0 7.163 0 16s7.163 16 16 16 16-7.163 16-16S24.837 0 16 0m0 2c7.732 0 14 6.268 14 14s-6.268 14-14 14S2 23.732 2 16 8.268 2 16 2"/></g></svg>