<svg xmlns="http://www.w3.org/2000/svg" viewBox="0 0 32 32"><defs><linearGradient id="a" x1="66.608%" x2="-30.587%" y1="111.852%" y2="-59.225%"><stop offset="0%" stop-color="#44BCF0"/><stop offset="37.88%" stop-color="#7298F8"/><stop offset="100%" stop-color="#A099FF"/></linearGradient></defs><g fill="none"><path fill="url(#a)" d="M32 16c0 8.837-7.163 16-16 16S0 24.837 0 16 7.163 0 16 0s16 7.163 16 16"/><path fill="#FFF" d="M9.134 14.156c.203.433.707 1.29.707 1.29l5.825-9.587-5.685 3.952a2.5 2.5 0 0 0-.81.887 4.09 4.09 0 0 0-.037 3.458m-2.309 3.156a6.43 6.43 0 0 0 2.545 4.69l6.288 4.364s-3.934-5.644-7.252-11.26a5.7 5.7 0 0 1-.667-1.915 3 3 0 0 1 0-.92c-.086.16-.254.486-.254.486a7.4 7.4 0 0 0-.68 2.166 13.3 13.3 0 0 0 .02 2.39Zm16.043.758c-.204-.433-.708-1.29-.708-1.29l-5.825 9.586 5.686-3.95c.338-.224.616-.529.809-.886a4.09 4.09 0 0 0 .038-3.46m2.308-3.157a6.4 6.4 0 0 0-.763-2.618 6.5 6.5 0 0 0-1.782-2.071l-6.288-4.365s3.932 5.644 7.253 11.26a5.7 5.7 0 0 1 .664 1.916c.046.305.046.615 0 .92.086-.16.254-.487.254-.487a7.4 7.4 0 0 0 .68-2.166c.066-.795.06-1.595-.018-2.389"/><path fill="#FFF" d="M9.172 10.698c.192-.357.47-.662.809-.887l5.685-3.952-5.825 9.589s-.509-.857-.707-1.29a4.09 4.09 0 0 1 .038-3.46m-2.347 6.614a6.43 6.43 0 0 0 2.545 4.69l6.288 4.364s-3.934-5.644-7.252-11.26a5.7 5.7 0 0 1-.667-1.915 3 3 0 0 1 0-.92c-.086.16-.254.486-.254.486a7.4 7.4 0 0 0-.68 2.166 13.3 13.3 0 0 0 .02 2.39Zm16.033.76c-.204-.433-.708-1.29-.708-1.29l-5.815 9.584 5.686-3.95c.338-.224.616-.529.809-.886a4.09 4.09 0 0 0 .038-3.46zm2.308-3.156a6.43 6.43 0 0 0-2.545-4.69L16.343 5.86s3.932 5.644 7.253 11.26a5.7 5.7 0 0 1 .664 1.916c.046.305.046.615 0 .92.086-.16.254-.487.254-.487a7.4 7.4 0 0 0 .68-2.166c.066-.795.06-1.595-.018-2.389l-.01.003Z"/></g></svg>