<svg xmlns="http://www.w3.org/2000/svg" viewBox="0 0 32 32"><g fill="none" fill-rule="evenodd"><path fill="#F18A77" fill-rule="nonzero" d="m15.998 4 7.2 11.002a9 9 0 0 0-1.785.137l-5.415-2.269z"/><circle cx="16" cy="16" r="15.5" stroke="#999" stroke-opacity=".2"/><path fill="#FEED5C" fill-rule="nonzero" d="M15.998 4 8 16.22l7.998-3.35z"/><path fill="#16ACD2" fill-rule="nonzero" d="m8 17.616 6.466 3.518a9.06 9.06 0 0 0-.327 4.448z"/><path fill="#A766A8" fill-rule="nonzero" d="m15.998 12.872 5.415 2.267a9 9 0 0 0-5.416 3.208z"/><path fill="#5AB56F" fill-rule="nonzero" d="m15.998 12.872-.001 5.475a9 9 0 0 0-1.06 1.649L8 16.22z"/><circle cx="23" cy="24" r="8" fill="#F4B728"/><circle cx="23" cy="24" r="5" fill="#F4B728" stroke="#D39C1A" stroke-linejoin="round"/></g></svg>