<svg xmlns="http://www.w3.org/2000/svg" viewBox="0 0 20 20"><circle cx="10" cy="10" r="10" fill="#0e1113"/><path fill="#fff" d="M10.394 15.253a4.2 4.2 0 0 1-1.774-.373 4.4 4.4 0 0 1-1.413-1.067 5 5 0 0 1-.933-1.626 6.2 6.2 0 0 1-.334-2.067q0-1.12.32-2.053a5.1 5.1 0 0 1 .934-1.627 4.1 4.1 0 0 1 1.413-1.067 4.3 4.3 0 0 1 1.8-.373q1.32 0 2.32.693A3.55 3.55 0 0 1 14.14 7.56l-1.4.56q-.293-.813-.92-1.267a2.34 2.34 0 0 0-1.426-.453q-.813 0-1.48.48-.653.467-1.04 1.307t-.387 1.933.373 1.947q.375.84 1.027 1.32.654.466 1.493.466.828 0 1.44-.453.627-.466.92-1.267l1.4.56a3.6 3.6 0 0 1-.813 1.36q-.546.573-1.293.894a4.3 4.3 0 0 1-1.64.306m-5.587-3.64v-1.026h5.947v1.026zm0-1.96v-1.04h5.947v1.04z"/></svg>