<svg xmlns="http://www.w3.org/2000/svg" id="Layer_1" viewBox="0 0 154.8 154.8"><defs><linearGradient id="linear-gradient" x1="-1306.334" x2="-1204.51" y1="4584.02" y2="4482.197" gradientTransform="rotate(-90 -2778.97 1638.844)" gradientUnits="userSpaceOnUse"><stop offset="0" stop-color="#8656ef"/><stop offset=".97" stop-color="#1aa3ff"/></linearGradient><style>.cls-2{fill:#fff}</style></defs><path id="Logo" d="M5.4 77.4c0-39.765 32.235-72 72-72s72 32.235 72 72-32.235 72-72 72-72-32.235-72-72" style="fill:url(#linear-gradient);fill-rule:evenodd"/><path d="m96.099 92.001-4.072-1.819a1.83 1.83 0 0 0-2.388.855c-1.922 3.9-5.116 6.386-9.335 6.386-3.82 0-6.884-1.87-9.232-5.651-.918-1.463-1.647-3.095-2.203-4.884h10.934c.693 0 1.327-.39 1.64-1.009l2.609-3.521a1.837 1.837 0 0 0-1.64-2.665H67.639a41 41 0 0 1-.069-2.326c-.008-.789.014-1.562.055-2.323h12.178c.693 0 1.327-.39 1.64-1.009l2.609-3.521a1.837 1.837 0 0 0-1.64-2.665H68.856c1.983-6.465 6.122-10.7 11.448-10.617 4.058 0 7.209 2.222 9.23 5.861.453.816 1.472 1.128 2.326.751l4.093-1.807c.979-.432 1.396-1.616.877-2.553-3.778-6.823-9.286-10.251-16.525-10.251-6.606 0-11.898 2.626-15.917 7.839-2.349 3.07-3.984 6.673-4.955 10.776h-5.945c-.693 0-1.327.39-1.64 1.009l-2.609 3.521a1.837 1.837 0 0 0 1.64 2.665h7.572a48 48 0 0 0-.029 4.649h-4.934c-.693 0-1.327.39-1.64 1.009l-2.609 3.521a1.837 1.837 0 0 0 1.64 2.665h8.537c2.7 11.16 10.473 18.77 20.889 18.613 7.395 0 12.969-3.676 16.691-10.997a1.84 1.84 0 0 0-.896-2.502Z" class="cls-2"/><path d="M37.244 102.683c-5.13-8.117-7.875-17.885-7.222-28.316 1.483-23.669 20.537-42.783 44.202-44.335 12.44-.816 23.941 3.203 32.835 10.343a2.26 2.26 0 0 0 2.925-.076l3.488-3.112c1.035-.923 1.013-2.558-.056-3.441-10.374-8.574-23.842-13.53-38.454-12.913-28.98 1.222-52.562 24.533-54.1 53.497-.665 12.529 2.77 24.239 9.079 33.914.755 1.158 2.374 1.359 3.406.439l3.484-3.109a2.26 2.26 0 0 0 .411-2.89Zm80.312-50.566c5.131 8.118 7.875 17.886 7.222 28.318-1.483 23.669-20.538 42.782-44.202 44.334-12.44.816-23.941-3.203-32.835-10.343a2.26 2.26 0 0 0-2.925.076l-3.488 3.112c-1.035.923-1.013 2.558.056 3.441 10.374 8.574 23.843 13.53 38.456 12.913 28.98-1.223 52.561-24.535 54.098-53.5.665-12.528-2.771-24.238-9.08-33.911-.755-1.158-2.374-1.359-3.406-.439l-3.484 3.109a2.26 2.26 0 0 0-.411 2.89Z" class="cls-2"/></svg>