<svg xmlns="http://www.w3.org/2000/svg" viewBox="0 0 32 32"><g fill="none" fill-rule="evenodd"><circle cx="16" cy="16" r="16" fill="#1F2944"/><g fill="#FFF" transform="translate(8 7.5)"><path d="M0 0h2v2H0zm0 5h2v2H0zm5-5h2v2H5zm0 5h2v2H5zm5-5h2v2h-2z"/><rect width="1" height="1" x="15" y=".5" rx=".5"/><rect width="1" height="1" x="15" y="5.5" rx=".5"/><path d="M0 10h2v2H0z"/><rect width="1" height="1" x="15" y="10.5" rx=".5"/><rect width="1" height="1" x="15" y="15.5" rx=".5"/><rect width="1" height="1" x="10.5" y="10.5" rx=".5"/><rect width="1" height="1" x="10.5" y="15.5" rx=".5"/><rect width="1" height="1" x="5.5" y="10.5" rx=".5"/><rect width="1" height="1" x="10.5" y="5.5" rx=".5"/><rect width="1" height="1" x="5.5" y="15.5" rx=".5"/><rect width="1" height="1" x=".5" y="15.5" rx=".5"/></g></g></svg>