<svg xmlns="http://www.w3.org/2000/svg" id="Layer_1" viewBox="0 0 577.78 577.78"><defs><style>.cls-2{fill:#fff}</style></defs><circle cx="288.89" cy="288.89" r="278.75" style="fill:#e62058" transform="rotate(-45 288.891 288.887)"/><path d="m363.35 264.89-132.31-.1c-36.07 0-66.07 28.52-67.01 65.19-.03.98.78 1.79 1.76 1.79l132.31.08v.02c36.07 0 66.07-28.52 67.01-65.19.03-.98-.78-1.79-1.76-1.79m67.06-100.44-199.36-.1c-36.07 0-66.07 28.52-67.01 65.19-.03.98.78 1.79 1.76 1.79l199.36.08v.02c36.07 0 66.07-28.52 67.01-65.19.03-.98-.78-1.79-1.76-1.79" class="cls-2"/><circle cx="197.56" cy="398.33" r="33.53" class="cls-2"/></svg>