<svg xmlns="http://www.w3.org/2000/svg" viewBox="0 0 32 32"><g fill="none"><circle cx="16" cy="16" r="16" fill="#1969FF"/><path fill="#FFF" d="M15.03 5.088c.539-.284 1.359-.284 1.898 0l5.5 2.9c.325.171.504.426.535.69h.006v14.575c-.007.288-.187.573-.54.759l-5.5 2.9c-.54.284-1.36.284-1.9 0l-5.5-2.9c-.351-.185-.52-.473-.528-.759V8.677h.002c.025-.266.195-.514.526-.689zm7.064 11.693-5.168 2.733c-.538.285-1.357.285-1.895 0l-5.156-2.727v6.421l5.156 2.713c.305.163.621.322.93.329h.018c.308.001.606-.156.91-.304l5.205-2.761zM8.138 22.938c0 .558.065.926.192 1.184.106.215.265.379.555.578l.017.011c.064.044.134.09.22.142l.1.063.31.188-.444.74-.346-.211-.059-.036a8 8 0 0 1-.26-.169c-.827-.562-1.136-1.176-1.142-2.452v-.038zm7.425-10.032a1 1 0 0 0-.112.048l-5.492 2.91-.017.008-.005.003.01.005.012.007 5.492 2.909a1 1 0 0 0 .111.048zm.874 0v5.938a1 1 0 0 0 .112-.048l5.492-2.91.017-.008.005-.003-.01-.005-.012-.007-5.492-2.909a1 1 0 0 0-.111-.048Zm5.657-3.187-4.938 2.594 4.938 2.593V9.72Zm-12.219 0v5.187l4.938-2.594L9.875 9.72Zm6.67-3.856c-.286-.15-.804-.15-1.09 0L9.96 8.77l-.017.01-.005.002.01.005.012.007 5.497 2.906c.285.151.803.151 1.088 0l5.497-2.906.017-.009.005-.003-.01-.005-.012-.007zm6.367.293.346.211.059.036c.1.063.183.116.26.169.827.562 1.136 1.176 1.142 2.452v.039h-.857c0-.56-.065-.927-.192-1.185-.106-.215-.265-.379-.555-.578l-.017-.011a7 7 0 0 0-.22-.142l-.1-.063-.31-.188z"/></g></svg>