<svg xmlns="http://www.w3.org/2000/svg" viewBox="0 0 32 32"><g fill="none"><path fill="#6647ED" d="M0 16C0 7.163 7.163 0 16 0s16 7.163 16 16-7.163 16-16 16S0 24.837 0 16"/><path fill="#FFF" d="M20.76 19.293c.362.36.39.927.083 1.32l-.084.094-4.018 4c-.392.39-1.028.39-1.42 0a.997.997 0 0 1-.084-1.32l.084-.094 4.018-4a1.01 1.01 0 0 1 1.42 0zM15.026 7c3.328 0 6.027 2.686 6.027 6s-2.699 6-6.027 6S9 16.314 9 13s2.698-6 6.027-6zm0 2c-2.22 0-4.018 1.79-4.018 4s1.799 4 4.018 4 4.018-1.79 4.018-4-1.8-4-4.018-4m7.031-2c.555 0 1.005.448 1.005 1s-.45 1-1.005 1a1 1 0 0 1-1.004-1c0-.552.45-1 1.004-1"/></g></svg>