<svg xmlns="http://www.w3.org/2000/svg" fill="none" viewBox="0 0 320 320"><path fill="#fff" d="M160 300c77.32 0 140-62.68 140-140S237.32 20 160 20 20 82.68 20 160s62.68 140 140 140"/><g clip-path="url(#a)"><mask id="b" width="320" height="320" x="0" y="0" maskUnits="userSpaceOnUse" style="mask-type:luminance"><path fill="#fff" d="M320 160C320 71.634 248.366 0 160 0S0 71.634 0 160s71.634 160 160 160 160-71.634 160-160"/></mask><g mask="url(#b)"><path fill="#131313" d="M-40 160C-40 49.543 49.543-40 160-40s200 89.543 200 200-89.543 200-200 200-200-89.543-200-200"/><path fill="#fff" d="M75.533 248.141h-23.61l72.393-83.844c2.313-2.677 2.313-6.693 0-9.3l-71.848-83.14h22.725l72.256 83.844c1.837 2.466 2.177 6.06.204 8.385-18.915 21.912-72.12 84.055-72.12 84.055M267.536 71.858h-22.657l-91.443 106.53c-2.381 2.607-2.449 6.764-.136 9.442l2.449 3.1 49.055 57.211h23.678l-53.07-61.721c-2.313-2.677-2.245-6.834.136-9.441z"/><path fill="#fff" d="M192.285 180.15a7.18 7.18 0 0 0 1.497 6.341c13.199 15.43 52.798 61.65 52.798 61.65h21.5l-67.562-78.208-6.124 6.764c-.816.916-1.701 2.255-2.109 3.453M93.29 71.858h21.841s38.917 46.572 53.001 61.015c2.245 2.255 1.837 5.214-.204 7.61-7.484 8.807-7.688 8.948-7.688 8.948zm87.021 54.111 46.47-54.111h-21.976l-31.298 36.496c-2.381 2.607-2.449 6.694-.136 9.442 1.769 2.043 6.94 8.173 6.94 8.173M93.495 248.141l46.47-54.111s5.171 6.13 6.94 8.173c2.313 2.748 2.245 6.835-.136 9.441l-31.297 36.497z"/></g></g><defs><clipPath id="a"><path fill="#fff" d="M0 0h320v320H0z"/></clipPath></defs></svg>