<svg xmlns="http://www.w3.org/2000/svg" viewBox="0 0 32 32"><defs><linearGradient id="a" x1="0%" x2="169.211%" y1="45.164%" y2="45.164%"><stop offset="0%" stop-color="#0082FA"/><stop offset="100%" stop-color="#00F2FE"/></linearGradient><linearGradient id="b" x1="-69.211%" x2="100%" y1="54.836%" y2="54.836%"><stop offset="0%" stop-color="#0082FA"/><stop offset="100%" stop-color="#00F2FE"/></linearGradient></defs><g fill="none"><path fill="url(#a)" d="M3.88 5.53c.198-.249.409-.49.62-.73.009-.011.03-.014.04-.026.019-.024.05-.038.069-.062l.018-.024c.147-.135.303-.283.483-.412a7.2 7.2 0 0 1 1.996-1.092c2.236-.786 4.725-.302 6.678 1.541 2.725 2.555 2.481 6.671.305 9.407-2.75 4.078-7.474 9.768-.932 14.865 1.176.916 2.049 1.672 5.754 2.743-2.423.446-4.67.307-7.171-.332-1.77-.998-4.55-3.136-5.497-6.024-1.43-4.38 2.518-10.925 4.426-13.447 2.62-3.49-1.62-7.266-4.74-3.05-1.631 2.198-4.485 8.417-3.494 13.03.58 2.616 1.353 4.523 4.418 7.142a14.5 14.5 0 0 1-1.656-1.141c-7.12-6.633-6.294-16.89-1.317-22.387Z"/><path fill="url(#b)" d="M28.12 26.469c-.199.25-.409.49-.62.73-.009.012-.03.015-.04.027-.019.023-.05.038-.069.062l-.019.023c-.146.136-.302.284-.483.412a7.2 7.2 0 0 1-1.995 1.093c-2.236.785-4.725.302-6.678-1.541-2.725-2.555-2.481-6.671-.305-9.407 2.75-4.078 7.474-9.768.932-14.865-1.176-.916-2.049-1.672-5.754-2.743 2.423-.446 4.67-.307 7.171.332 1.77.998 4.55 3.136 5.497 6.024 1.43 4.38-2.518 10.925-4.426 13.447-2.62 3.489 1.62 7.266 4.74 3.05 1.632-2.198 4.485-8.417 3.494-13.03-.58-2.616-1.353-4.523-4.418-7.142a14.5 14.5 0 0 1 1.656 1.141c7.12 6.633 6.294 16.89 1.317 22.387"/></g></svg>