<svg xmlns="http://www.w3.org/2000/svg" xml:space="preserve" id="maple_x5F_finance" x="0" y="0" version="1.1" viewBox="0 0 128 128"><style>.st0{fill:#f80}</style><path id="bottom" d="M3.6 82.6c6.9 6.8 15.5 10.1 24.4 12.6 6.6 1.9 13.3 3.1 20.2 3.6 6.1.4 12.1.8 18.2.8 9 0 18-1 26.9-3h.6c0 .5.1.9.1 1.3 0 1.8 0 3.6.2 5.4.3 2.7 2.3 4.2 5 4.1 2.3-.1 4.2-2.2 4.2-4.7v-7.6c0-.9.2-1.2 1.1-1.5 5.4-1.8 10.7-4.1 15.3-7.6 1.4-1 2.6-2.2 4-3.3 1.7 1.9 3 4.1 3.4 6.6.8 4.5-1.1 8.1-4 11.2-3.6 3.8-8 6.3-12.7 8.3-7.8 3.4-16.1 5.4-24.5 6.7-9.3 1.5-18.7 1.9-28 1.5-13.3-.5-26.4-2.4-38.9-7.4-5.3-2.1-10.4-4.8-14.4-8.9C2.2 98.2.4 95.2.3 91.6c-.4-3.5 1-6.4 3.3-9" class="st0"/><path id="middle-a" d="M3.8 56.3c7.8 7.8 17.7 11.1 28 13.7 6.2 1.5 12.5 2.5 18.8 3 3.2.2 6.4.5 9.5.6 1.1 0 1.3.5 1.3 1.4 0 1.8-.1 3.6.3 5.4.7 3.3 3.9 4.9 6.4 3.4 2-1.2 2.6-3.1 2.7-5.3.1-1.4 0-2.8 0-4.2 0-.6.2-.9.8-.9 6.3-.4 12.6-1 18.8-2.2 2.3-.4 4 1.1 4.1 3.4.1 3.8 0 7.7 0 11.5 0 .8-.5 1-1 1.1-3.2.6-6.5 1.1-9.7 1.6-7.2 1-14.4 1.4-21.6 1.3-6.4-.1-12.7-.6-19-1.5-7.5-1.1-14.9-2.7-22-5.4-5.5-2.1-10.8-4.6-15.1-8.7-2.5-2.4-4.5-5.1-5.2-8.6-.5-3.1.7-7.3 2.9-9.6" class="st0"/><path id="middle-b" d="M103.9 84.7V71.9c0-3.1.6-3.8 3.4-4.9 5.6-2.1 10.7-4.8 15.2-8.8.7-.6 1.3-1.2 2-2 1.5 1.6 2.6 3.6 3.1 5.7.9 4-.3 7.4-2.8 10.5-2.5 3.2-5.7 5.5-9.2 7.3s-7.3 3.2-10.9 4.8c-.1.1-.4.1-.8.2" class="st0"/><path id="top" d="M60.8 13c6.3-.1 13.3.2 20.2 1 10.1 1.2 20 3.3 29.4 7.4 4.7 2.1 9.1 4.6 12.7 8.4 2.1 2.2 3.6 4.7 4 7.8.4 2.7-.3 5.1-1.6 7.3-2.5 4.2-6.3 7-10.5 9.3-7.1 3.9-14.8 6.3-22.7 7.9-6.6 1.4-13.3 2.2-20 2.5-1.1 0-1.4-.3-1.3-1.3.2-3 .4-6 .7-8.9.5-4 2.8-6.7 6.5-8.3 3-1.3 6-2.4 8.9-3.8 2-1 3.9-2.1 5.5-3.6 2.5-2.3 2.5-5.3.1-7.7-1.8-1.9-4.1-3-6.5-4-4.4-1.7-8.9-2.7-13.6-3-3.7-.2-7.4-.4-11.1-.2-6.4.3-12.8 1.4-18.5 4.5-1.6.8-3 2-4.2 3.3-1.9 2.2-1.8 4.7.3 6.8 1.2 1.2 2.6 2.3 4.1 3.1 2.7 1.4 5.5 2.7 8.2 4 .9.5 1.9 1 2.8 1.4 4.2 1.6 6 5 6.5 9.1.3 2.6.4 5.2.5 7.7.1.9-.2 1.2-1.1 1.2-6.1-.2-12.1-.7-18.1-1.6-7.6-1.1-15.1-2.9-22.3-5.7-5-1.9-9.7-4.3-13.7-7.9q-1.8-1.65-3.3-3.6c-3.6-4.8-3.4-10.3.3-15 3.1-3.9 7.1-6.5 11.5-8.7 7.1-3.5 14.7-5.7 22.5-7.1 4.9-.9 9.9-1.4 14.9-2 2.7-.2 5.5-.1 8.9-.3" class="st0"/></svg>