<svg xmlns="http://www.w3.org/2000/svg" fill="none" viewBox="0 0 1080 1080"><path fill="#00EC97" d="M540 1080c298.234 0 540-241.766 540-540S838.234 0 540 0 0 241.766 0 540s241.766 540 540 540"/><path fill="#000" d="M773.045 243a63.23 63.23 0 0 0-53.881 30.119L595.158 457.226c-4.039 6.067-2.4 14.248 3.668 18.287a13.184 13.184 0 0 0 15.904-.98l122.062-105.871c2.028-1.825 5.155-1.639 6.98.389a5.05 5.05 0 0 1 1.268 3.363v331.471a4.934 4.934 0 0 1-4.952 4.935 4.88 4.88 0 0 1-3.786-1.775L367.327 265.378A63.31 63.31 0 0 0 319.09 243h-12.895C271.293 243 243 271.293 243 306.195v466.85c0 34.902 28.293 63.195 63.195 63.195a63.23 63.23 0 0 0 53.881-30.119l124.006-184.107c4.039-6.067 2.4-14.248-3.668-18.287a13.184 13.184 0 0 0-15.904.98L342.448 710.578c-2.028 1.825-5.155 1.639-6.98-.389a4.95 4.95 0 0 1-1.251-3.363V375.271a4.934 4.934 0 0 1 4.952-4.936c1.454 0 2.857.643 3.786 1.775l368.924 441.752a63.31 63.31 0 0 0 48.237 22.378h12.896c34.901.017 63.211-28.259 63.245-63.161V306.195c0-34.902-28.293-63.195-63.195-63.195z"/></svg>