<svg xmlns="http://www.w3.org/2000/svg" fill="none" viewBox="0 0 1000 1000"><path fill="#0A0D11" fill-rule="evenodd" d="M500 1000c276.142 0 500-223.858 500-500S776.142 0 500 0 0 223.858 0 500s223.858 500 500 500" clip-rule="evenodd"/><path fill="#544B40" fill-rule="evenodd" d="M500 984.375c267.513 0 484.375-216.862 484.375-484.375S767.513 15.625 500 15.625 15.625 232.487 15.625 500 232.487 984.375 500 984.375M1000 500c0 276.142-223.858 500-500 500S0 776.142 0 500 223.858 0 500 0s500 223.858 500 500" clip-rule="evenodd"/><path fill="#E1D8C7" d="M436.545 462.452c-5.103-4.739-13.123 1.458-9.113 7.656l62.701 101.342c2.551 3.646 1.458 8.749-2.552 10.936-1.458 1.094-2.916 1.459-4.375 1.459-2.551 0-5.103-1.459-6.561-3.646l-88.948-130.506c-4.01-5.468-12.759-1.093-10.572 5.468l65.982 180.084c1.093 3.645 0 7.655-3.646 9.478-1.458.729-2.916 1.458-4.374 1.458-3.281 0-6.197-2.187-7.291-5.468l-83.844-181.177c-2.917-6.562-12.759-4.01-11.666 3.281l39.371 220.912c.364 3.645-1.458 7.291-4.375 8.749-5.93 2.372-14.062 5.218-16.04-4.01L306.039 483.96c-1.458-6.926-11.665-5.832-12.03 1.094l2.552 224.193c0 4.01-2.916 7.291-6.926 8.02-3.645.729-7.655 1.093-11.665 1.458-4.739.364-8.749-3.281-9.114-7.656l-4.739-200.862c-.365-7.655-10.572-8.384-12.03-1.093l-40.099 199.768c-.729 4.375-4.739 7.291-9.114 6.562-8.384-1.094-16.404-2.916-24.789-4.739-4.374-1.094-6.926-5.468-5.832-9.843l75.824-364.177c4.739-24.059 25.883-41.557 51.036-41.557a53.58 53.58 0 0 1 37.183 14.946L563.77 537.548c5.104 4.739 13.124-1.458 9.114-7.656L510.182 428.55c-2.551-3.646-1.458-8.749 2.552-10.936 1.458-1.094 2.917-1.459 4.375-1.459 2.552 0 5.103 1.459 6.561 3.646l88.949 130.506c4.01 5.468 12.759 1.093 10.571-5.468l-65.982-180.084c-1.093-3.645.365-7.655 3.646-9.478 1.458-.729 2.916-1.458 4.374-1.458 3.281 0 6.197 2.187 7.291 5.468l83.845 181.177c2.916 6.562 12.759 4.01 11.665-3.281l-39.371-220.912c-.364-3.645 1.459-7.291 4.375-8.749 5.93-2.372 14.062-5.218 16.04 4.01l45.203 204.508c1.458 6.926 11.665 5.832 12.03-1.094l-2.552-224.193c0-4.01 2.916-7.291 6.926-8.02 3.646-.729 7.656-1.093 11.666-1.458 4.739-.364 8.749 3.281 9.113 7.656l4.739 200.862c.365 7.655 10.572 8.384 12.03 1.093l40.1-199.768c.729-4.375 4.739-7.291 9.113-6.562 8.385 1.094 16.404 2.916 24.789 4.739 4.374 1.094 6.926 5.468 5.833 9.843l-75.825 364.177c-4.739 24.059-25.882 41.557-51.036 41.557a53.6 53.6 0 0 1-37.183-14.946z"/></svg>