<svg xmlns="http://www.w3.org/2000/svg" viewBox="0 0 32 32"><g fill="none" fill-rule="evenodd"><circle cx="16" cy="16" r="16" fill="#2D2D2D"/><g fill="#FFF" fill-rule="nonzero"><path d="M18.821 5.46a3.795 3.795 0 0 1-.098 4.751c-.196.223-.392.47-.588.693-.66.89-.587 1.98.172 2.697.783.718 1.934.718 2.718-.124.833-.866 1.788-1.385 3.012-1.385 2.082 0 3.747 1.682 3.747 3.81a3.767 3.767 0 0 1-3.722 3.81c-1.078-.024-2.008-.346-2.792-1.163-.906-.915-2.008-1.039-2.816-.321-.857.742-.906 1.88-.05 2.92.931 1.138 1.641 2.325 1.274 3.884-.343 1.46-1.494 2.623-2.914 2.87-1.567.297-3.135-.346-3.943-1.682-.857-1.386-.808-2.796.049-4.182.196-.321.465-.594.686-.89.783-.99.759-2.104-.123-2.846-.832-.717-1.934-.618-2.767.247-1.029 1.114-2.302 1.535-3.772 1.188-1.542-.371-2.644-1.608-2.865-3.192-.196-1.484.612-3.068 1.91-3.785a3.82 3.82 0 0 1 4.335.445c.147.124.294.297.44.42.834.768 1.985.768 2.744.026.734-.718.783-1.831.098-2.697-.588-.718-1.2-1.361-1.396-2.326-.368-1.757.44-3.514 2.032-4.256 1.641-.767 3.576-.321 4.629 1.089zm-2.718 16.504h-.025c-1.298-.025-2.35.99-2.35 2.251 0 .547.213 1.048.563 1.436a2.33 2.33 0 0 0 1.763.791c1.2 0 2.204-.99 2.228-2.202 0-1.183-.896-2.163-2.024-2.267zM10.078 16.1c0-1.262-1.004-2.276-2.253-2.252-1.297.025-2.276 1.013-2.253 2.249v.028c0 .985.612 1.774 1.498 2.073.249.084.52.129.804.129l.158-.006a2.2 2.2 0 0 0 2.046-2.196zm14.033-2.425c-1.298-.024-2.327.916-2.351 2.178q-.004.254.038.488c.188 1.041 1.038 1.791 2.166 1.813h.158l.156-.01a2.205 2.205 0 0 0 1.988-2.118 2.23 2.23 0 0 0-1.922-2.333l-.079-.01zM15.96 5.56h-.152c-1.274.05-2.278 1.065-2.229 2.302.025 1.262 1.053 2.227 2.327 2.202l.158-.009a2.243 2.243 0 0 0 2.046-2.243c0-1.134-.906-2.122-2-2.24z"/><path d="M16.03 25.7c-.809 0-1.568-.742-1.568-1.534 0-.767.735-1.485 1.543-1.485.832-.024 1.543.693 1.518 1.534 0 .866-.637 1.485-1.494 1.485m8.008-8.289c-.857-.024-1.543-.668-1.543-1.509 0-.792.735-1.51 1.568-1.51.832 0 1.518.743 1.494 1.584a1.466 1.466 0 0 1-1.519 1.435m-6.661-9.575c0 .841-.661 1.51-1.47 1.534-.783.025-1.591-.742-1.591-1.534 0-.816.71-1.51 1.567-1.51.833 0 1.494.669 1.494 1.51m-9.526 6.73c.857 0 1.518.668 1.493 1.559 0 .816-.636 1.484-1.395 1.484-.833 0-1.666-.767-1.666-1.534 0-.791.735-1.509 1.568-1.509"/></g></g></svg>