<svg xmlns="http://www.w3.org/2000/svg" viewBox="0 0 32 32"><g fill="none" fill-rule="evenodd"><circle cx="16" cy="16" r="16" fill="#FFF"/><path fill="#141414" d="M7.814 15.712a1.183 1.183 0 1 1-2.366 0 1.183 1.183 0 0 1 2.366 0m18.802 0a1.183 1.183 0 1 1-2.367 0 1.183 1.183 0 0 1 2.367 0m-9.4 4.669a1.183 1.183 0 1 1-2.368 0 1.183 1.183 0 0 1 2.367 0m-4.732-2.303a1.183 1.183 0 1 1-2.367 0 1.183 1.183 0 0 1 2.367 0m9.4 0a1.183 1.183 0 1 1-2.366 0 1.183 1.183 0 0 1 2.367 0M7.43 19.294a.8.8 0 1 1-1.599 0 .8.8 0 0 1 1.6 0m18.802 0a.8.8 0 1 1-1.6-.001.8.8 0 0 1 1.6 0m-9.402 4.733a.8.8 0 1 1-1.6 0 .8.8 0 0 1 1.6 0M12.1 21.66a.8.8 0 1 1-1.598 0 .8.8 0 0 1 1.598 0m9.401 0a.8.8 0 1 1-1.599 0 .8.8 0 0 1 1.599 0m-14.453.447a.416.416 0 1 1-.832.001.416.416 0 0 1 .832 0m18.802 0a.416.416 0 1 1-.832 0 .416.416 0 0 1 .832 0m-9.401 4.732a.416.416 0 1 1-.832 0 .416.416 0 0 1 .832 0m-4.733-2.366a.416.416 0 1 1-.832 0 .416.416 0 0 1 .832 0m9.401 0a.416.416 0 1 1-.832 0 .416.416 0 0 1 .832 0M17.6 6.599a1.599 1.599 0 1 1-3.198 0 1.599 1.599 0 0 1 3.198 0m0 4.732a1.599 1.599 0 1 1-3.198 0 1.599 1.599 0 0 1 3.198 0m0 4.67A1.599 1.599 0 1 1 14.4 16a1.599 1.599 0 0 1 3.198 0M27 11.331a1.599 1.599 0 1 1-3.198 0 1.599 1.599 0 0 1 3.198 0m-18.802 0a1.599 1.599 0 1 1-3.198 0 1.599 1.599 0 0 1 3.198 0m4.732-2.366a1.599 1.599 0 1 1-3.197 0 1.599 1.599 0 0 1 3.197 0m0 4.669a1.599 1.599 0 1 1-3.198 0 1.599 1.599 0 0 1 3.198 0m9.401-4.669a1.599 1.599 0 1 1-3.198 0 1.599 1.599 0 0 1 3.198 0m0 4.669a1.6 1.6 0 1 1-3.198 0 1.6 1.6 0 0 1 3.198 0"/></g></svg>