<svg xmlns="http://www.w3.org/2000/svg" viewBox="0 0 32 32"><g fill="none"><circle cx="16" cy="16" r="15.5" fill="#FFF" stroke="#101010"/><path fill="#101010" d="M20.209 19.806h-1.334v-5.37l-1.959 5.37h-1.275l-1.964-5.37v5.37h-1.29v-7.623h1.807l2.113 5.827 2.114-5.827h1.806zm4.72-1.132c1.032 0 1.843-.517 1.972-1.634h-2.194v-1.319h3.551v4.085H26.94v-.87c-.28.489-.98 1.067-2.232 1.067-2.134 0-3.507-1.698-3.507-3.944 0-2.09 1.187-4.051 3.737-4.051 1.806 0 3.125.97 3.321 2.712H26.81c-.087-.86-.905-1.383-1.917-1.383-1.548 0-2.276 1.21-2.276 2.678 0 1.57.826 2.659 2.307 2.659zM7.564 11.992c2.34 0 3.824 1.77 3.824 4.008s-1.48 4.003-3.824 4.003c-2.34 0-3.822-1.753-3.822-4.003s1.481-4.008 3.822-4.008m0 1.368c-1.492 0-2.385 1.133-2.385 2.645s.893 2.638 2.385 2.638S9.951 17.52 9.951 16s-.893-2.64-2.387-2.64"/></g></svg>