<svg xmlns="http://www.w3.org/2000/svg" viewBox="0 0 32 32"><g fill="none" transform="translate(1 1)"><circle cx="15" cy="15" r="15" fill="#FF0420"/><path fill="#FFF" d="M10.628 18.987q-1.34 0-2.195-.63-.845-.642-.845-1.825 0-.247.057-.608.146-.81.416-1.947.765-3.096 3.952-3.096.867 0 1.553.293a2.35 2.35 0 0 1 1.081.855q.394.563.394 1.351a4 4 0 0 1-.056.597 26 26 0 0 1-.405 1.947q-.394 1.543-1.363 2.308-.968.755-2.589.755m.158-1.621q.63 0 1.07-.372.45-.372.64-1.137.26-1.059.395-1.846.045-.237.045-.485 0-1.024-1.07-1.024-.63 0-1.08.371-.44.372-.63 1.138a24 24 0 0 0-.406 1.846 2.4 2.4 0 0 0-.045.473q0 1.036 1.08 1.036Zm4.772 1.508a.24.24 0 0 1-.191-.079.27.27 0 0 1-.034-.202l1.554-7.318a.32.32 0 0 1 .123-.203.34.34 0 0 1 .214-.079h2.995q1.25 0 2.004.518.765.519.766 1.498 0 .28-.068.585-.282 1.294-1.137 1.914-.844.62-2.32.62h-1.52l-.517 2.465a.32.32 0 0 1-.124.202.34.34 0 0 1-.214.08zm3.986-4.3q.473 0 .821-.26.36-.258.473-.742.034-.192.034-.338 0-.327-.191-.496-.192-.18-.653-.18h-1.351l-.428 2.016z"/></g></svg>