<svg xmlns="http://www.w3.org/2000/svg" viewBox="0 0 32 32"><g fill="#CBAAFF"><path d="M7.562 6.394a1.697 1.697 0 1 0 0-3.394 1.697 1.697 0 0 0 0 3.394m-5.364-.996a1.198 1.198 0 1 0 0-2.397 1.198 1.198 0 0 0 0 2.397m17.153 23.969c6.216-.73 11.216-5.812 11.623-12.28a13.206 13.206 0 0 0-14.906-13.92 11 11 0 0 0-3.227.809c-1.195.584-1.968 1.562-1.968 2.87a3.08 3.08 0 0 0 3.079 3.08c.286 0 1.27-.312 1.503-.392a7.12 7.12 0 1 1-3.602 10.642c-1.422-1.86-1.093-4.836-1.094-4.872a3.084 3.084 0 0 0-6.057-.696c-.072.258-.105 1.014-.095 1.115-.293 7.155 5.18 13.262 12.36 13.715a13.3 13.3 0 0 0 2.384-.072z"/><path d="M5.36 11.35a2.2 2.2 0 1 0 0-4.4 2.2 2.2 0 0 0 0 4.4"/></g></svg>