<svg xmlns="http://www.w3.org/2000/svg" viewBox="0 0 32 32"><g fill="none"><circle cx="16" cy="16" r="16" fill="#FFF"/><path fill="#B3D234" d="M10.195 7.204a21 21 0 0 1 1.377-1.448c-7.285-.237-5.164 5.07-7.538 10.463-2.734 6.211.321 8.578 4.874 9.316a10 10 0 0 1-1.538-2.536C4.418 19.254 5.606 12.43 10.195 7.204"/><path fill="#0095D9" d="M27.724 13.82c-.678 1.924-1.922 4.083-3.68 6.208-1.371 1.656-2.895 2.96-4.468 3.904-1.819 1.187-4.075 1.887-6.597 1.887-1.411 0-2.8-.079-4.071-.285a8.3 8.3 0 0 0 2.726 2.151c6.587 3.21 7.003-2.753 13.971-5.778 3.913-1.7 3.927-5.02 2.12-8.086"/><path fill="#EEE809" d="M19.573 7.616a8.6 8.6 0 0 1 2.719.97c2.212 1.261 4.227 3.19 5.432 5.234 1.187-3.367.634-6.015-1.962-6.494-2.853-.526-5.084-.695-7.228-2.203-2.64-1.858-4.954-1.245-6.962.633q.212.005.435.02c2.786.165 5.445.712 7.566 1.84"/><path fill="#51B849" d="M10.195 7.204C5.606 12.431 4.418 19.254 7.37 23c-1.326-3.135-1.234-7.045.634-10.167 2.487-4.157 7.475-5.97 11.57-5.216-2.122-1.129-4.78-1.675-7.566-1.84q-.224-.014-.436-.02a21 21 0 0 0-1.377 1.448"/><path fill="#00845D" d="M22.292 8.586a8.6 8.6 0 0 0-2.719-.97c2.794 1.486 4.652 3.983 4.632 7.96-.02 3.45-1.788 6.5-4.63 8.356 1.573-.944 3.098-2.248 4.468-3.904 1.76-2.125 3.003-4.283 3.681-6.207-1.205-2.044-3.22-3.974-5.432-5.235"/><path fill="#005121" d="M19.114 22.041a6.78 6.78 0 0 1-9.393-2.035c-2.035-3.166-1.029-7.243 2.026-9.431 3.416-2.447 7.796-1.482 9.393 2.034 1.557 3.43 1.127 7.39-2.026 9.432m.46-14.425c-4.095-.753-9.083 1.059-11.57 5.215-1.868 3.122-1.96 7.033-.634 10.167a10 10 0 0 0 1.538 2.537c1.272.206 2.66.284 4.07.284 2.524 0 4.78-.7 6.597-1.887 2.842-1.856 4.611-4.906 4.63-8.357.02-3.976-1.839-6.473-4.631-7.959"/></g></svg>