<svg xmlns="http://www.w3.org/2000/svg" viewBox="0 0 32 32"><g fill="none" fill-rule="evenodd"><circle cx="16" cy="16" r="16" fill="#3CEAAA" fill-rule="nonzero"/><path fill="#000" fill-opacity=".6" d="M12.074 8.484c.969-.95 2.52-.95 3.49 0l2.618 2.565.437-.428c.969-.95 2.52-.95 3.49 0l2.58 2.53a2.493 2.493 0 0 1 0 3.562l-6.944 6.803c-.97.95-2.52.95-3.49 0L7.31 16.713a2.493 2.493 0 0 1 0-3.563zm4.326 4.31-2.582-2.529-4.763 4.666 2.582 2.53zm-2.982 6.412L16 21.735l2.582-2.53L16 16.678l-2.582 2.529Zm4.364-4.275 2.581 2.53 2.582-2.53-2.582-2.529z"/></g></svg>