<svg xmlns="http://www.w3.org/2000/svg" viewBox="0 0 32 32"><path fill="#f5f5f5" d="M16 32c8.84 0 16-7.16 16-16S24.84 0 16 0 0 7.16 0 16s7.16 16 16 16"/><path fill="#ae918b" d="M8.67 6.68h-.24s-.02-.01-.02-.02v-.02c.12-.04.22-.03.26.03"/><path fill="#42281f" d="M8.39 6.65v.02l.03.01h.24s.09 0 .13.02c.04.05.11.07.17.06q.225.105.42.24c.35.27.66.53.91.8l.7.7c.16.17.33.33.52.5.28.25.59.47.92.64.24.13.5.22.76.27.1.02.2.02.3.01.01 0 .03 0 .04.01s.03.02.04.02c.11.02.22.02.32 0s.19-.02.29-.02c.19 0 .38-.05.57-.06.18-.02.37-.04.56-.07l.06-.03h.02s0 .02.03.02c.12 0 .24.01.36-.02.09-.02.19-.03.28-.02q.21.045.42 0l.43.03c.13.04.26.05.39.02.13.02.27.03.4.03l.41.03c.25.03.51.05.76.07.08.02.13.03.22 0 .44-.14.8-.3 1.09-.49l.83-.54c.36-.24.72-.4 1.07-.47.22-.05.5-.05.71.07.26.16.44.42.5.72l.04.23c.03.17 0 .34.01.51 0 .08 0 .17-.01.25-.02.12-.03.24-.03.35 0 .18-.05.36-.04.55l.03.49c0 .14.02.3.06.46l.1.54c0 .06.04.1.05.15l.15.49c.05.14.11.27.18.41l.15.31c.24.49.43 1.01.55 1.54.01.1.06.17.07.29.02.11.05.2.06.31 0 .15.06.27.07.42.02.23.04.45.04.65 0 .03.02.07.05.1v.32c-.05.23-.07.45-.07.68 0 .05 0 .1-.01.14-.05.12-.08.25-.08.38 0 .05 0 .1-.02.15-.01.06-.02.11-.02.16-.05.28-.11.56-.17.84-.3 1.13-.88 2.17-1.68 3.03-.17.17-.34.35-.52.51a8.2 8.2 0 0 1-2.47 1.51c-.28.11-.52.17-.7.2-.3.05-.6.1-.89.15l-.17.02h-1.56l-.17-.02c-.17-.06-.34-.08-.52-.08-.04 0-.09 0-.13-.02a.6.6 0 0 0-.13-.02l-.19-.03c-.07-.01-.14-.02-.2-.01-.82-.14-1.61-.45-2.31-.91-.68-.41-1.29-.93-1.81-1.54a9.3 9.3 0 0 1-1.42-2.39 18 18 0 0 1-.78-2.24c-.1-.37-.19-.74-.26-1.12l-.17-.96c-.11-.65-.25-1.3-.41-1.95l-.34-1.31c-.14-.56-.26-1.13-.35-1.71q-.06-.36-.09-.72c-.06-1.04.1-2.07.47-3.04.12-.31.4-.6.74-.62zv-.01Z"/><path fill="#826158" d="M8.98 6.76c.12.04.23.1.32.16q.48.315.93.78c.05.05.11.09.16.14.29.3.65.67.87.88.33.31.68.59 1.06.82.22.12.46.22.71.28.36.09.73.11 1.1.07.35-.04.62-.07.8-.1.15-.02.3-.04.44-.05l-.06.03c-.2.03-.39.06-.57.07-.18.02-.37.07-.56.06-.09 0-.19 0-.29.02a.9.9 0 0 1-.32 0c-.01 0-.02 0-.03-.02-.01-.01-.03-.02-.05-.01-.1.01-.2 0-.3-.01-.27-.05-.52-.15-.76-.27-.33-.18-.64-.39-.92-.64-.18-.16-.35-.32-.51-.5l-.7-.7c-.29-.29-.59-.55-.91-.8-.13-.09-.27-.17-.41-.24"/><path fill="#774c46" d="M11.69 9.57c.29.81.39 1.61.3 2.38-.01.09.02.1.09.05q.945-.87 2.1-1.44c.21-.1.4-.21.59-.34.49-.1 1-.14 1.5-.12.03.24-.1.37-.32.42-.63.14-1.21.34-1.73.67q-.6.405-1.14.9c-.09.09-.1.19-.02.3q.06.09.15.06l.35-.06s.05.01.05.07v-.02l-.02-.02h-.05l-.07.16v-.02s-.02-.01-.03-.01h-.01c-.23.1-.96.51-.8.82.07.15.18.28.32.36h.02s0 .06-.01.07c-.17.11-.32.25-.46.42-.15.15-.28.32-.41.5-.26.36-.47.69-.64.99s-.22.67.06.92c.12.11.25.14.38.09l.01.01-.02.03c-.46.26-.84.63-1.12 1.08-.17.27-.42.72-.02.92.06.03.1.01.15-.01.08-.05.09-.03.04.05-.06.09-.11.18-.15.29-.1.25-.2.49-.31.74-.05.09-.11.17-.17.25-.09.11-.2.2-.33.26l-.28-.66c.17-.29.27-.49.33-.78 0-.03 0-.05-.03-.06-.1-.02-.19-.06-.19-.19.03-.6.19-1.16.48-1.66l.19-.33s.02-.08.01-.17c0-.02 0-.03.01-.05.37-.78.61-1.63.69-2.49 0-.01 0-.02-.02-.03h-.03c-.17.29-.34.57-.5.86-.15.28-.35.5-.67.5-.27 0-.51-.14-.72-.31-.01 0-.03-.01-.04-.01 0 0-.01 0-.02.01s0 .01 0 .02c.17.26.1.56-.18.67-.12.04-.25.03-.37-.02l-.18-.92c.06.03.08.04.09 0 .04-.19.04-.39.02-.58 0-.03.03-.04.06-.04.17.02.34.05.51.11.28.12.68.19.95 0 .34-.26.27-.68.11-1.06-.01-.03 0-.06.02-.07l.31-.03c.18-.01.24-.17.17-.32-.08-.14-.19-.28-.3-.4 0 0-.01-.02-.01-.03v-.02l.02-.01c.33-.2.56-.52.64-.9.08-.33.03-.68-.16-.97l-.02-.06a.6.6 0 0 0-.09-.32c-.19-.36-.39-.71-.6-1.06-.35-.57-.77-1.1-1.25-1.58-.13-.13-.34-.23-.62-.31.21-.04.38-.03.5.02.25.11.47.25.68.43.52.43 1 .98 1.45 1.42.23.22.48.44.74.65"/><path fill="#e6d1cc" d="M8.32 7.05c.28.08.49.18.62.31.45.44.87.97 1.25 1.58 0 .03.01.06.04.09v.05h-.01l-.02.01c-.1-.1-.19-.19-.27-.31l-.4-.57c-.2-.28-.51-.66-.88-.52-.29.11-.42.42-.49.72-.17.74-.27 1.5-.3 2.26-.02.39-.02.77 0 1.16l-.02.03s-.02 0-.04-.02c-.04-.11-.08-.23-.1-.34-.11-.54-.17-1.1-.18-1.65.01-.71.13-1.41.34-2.09.11-.36.26-.59.45-.71"/><path fill="#c98c89" d="M10.19 8.94c.23.38.43.73.6 1.06.06.1.08.2.09.32 0 .02-.02.03-.03.03q-.015 0-.03-.03c-.21-.37-.52-.67-.89-.87-.11-.06-.22-.06-.3.02-.06.06-.1.14-.13.22-.19.59-.36 1.18-.52 1.77-.15.55-.27 1.16-.36 1.82-.13-.15-.23-.31-.32-.48l-.44-.85-.03-.13.04.02.03-.03c-.05-1.15.05-2.3.3-3.42.07-.3.2-.6.49-.72.36-.14.68.24.88.51l.4.57c.07.12.17.22.27.32h.02v-.06a.4.4 0 0 1-.05-.09"/><path fill="#826158" d="M22.79 8.51c.15.07.27.19.36.32.12.22.2.45.23.71.01.21.01.42-.01.63l-.05.65c-.04.81.08 1.62.34 2.38.08.21.17.4.27.6.44.85.72 1.77.82 2.71 0 .01 0 .02.02.03.03.24.05.49.06.73-.04-.04-.06-.07-.06-.1 0-.22-.02-.43-.04-.64-.01-.15-.06-.27-.07-.41 0-.11-.04-.21-.06-.33-.02-.1-.06-.17-.07-.28l-.03-.11-.1-.34c-.14-.48-.34-.95-.58-1.4-.07-.13-.13-.27-.18-.41l-.15-.49c0-.05-.04-.1-.05-.15l-.1-.55a3.4 3.4 0 0 1-.06-.46l-.03-.49c-.01-.18.04-.36.03-.55 0-.12 0-.23.03-.35.01-.09.02-.17.01-.25 0-.17.02-.34-.01-.51l-.04-.23c-.06-.3-.24-.55-.5-.71"/><path fill="#e6d1cc" d="M23.1 12.43v.02h-.05v-.02c-.2-.49-.32-1.02-.35-1.55-.02-.34.05-.68.08-1.02q.015-.18-.03-.36c-.13-.44-.54-.46-.9-.34-.28.09-.56.2-.83.32l.07-.18c.28-.23.63-.41 1.04-.52.14-.05.29-.05.43-.01.28.09.43.42.46.69.03.23.01.56-.02.85-.07.7-.03 1.41.1 2.1"/><path fill="#c98c89" d="M23.1 12.43v.06l-.18.36c-.07-.13-.14-.26-.19-.4-.22-.64-.45-1.28-.67-1.92-.04-.14-.11-.28-.2-.4-.19-.26-.45-.38-.74-.25a.74.74 0 0 0-.34.29c-.02-.02-.04-.05-.04-.07.02-.13.07-.26.14-.38.04-.08.09-.16.14-.23.28-.13.56-.24.83-.32.36-.11.77-.1.9.34.03.11.05.23.03.35-.03.34-.1.69-.08 1.03.03.54.16 1.07.36 1.57h.03v-.03Z"/><path fill="#774c46" d="m21.09 9.32-.07.17s-.07.11-.14.23-.11.25-.14.38l-.11.19c-.05.08-.09.3-.15.64-.02.13 0 .26.07.37 0 0 .01.02 0 .03v.03h-.04c-.47-.37-.98-.7-1.51-.99.06-.04.12-.07.19-.07.31.11.59.28.84.5.02 0 .04 0 .05-.01v-.02l.36-1.02z"/><path fill="#bc7573" d="m10.87 10.32.02.06c-.03.27-.04.56-.11.81-.03.12-.07.24-.11.35a.06.06 0 0 1-.08 0c-.11-.12-.2-.25-.26-.4-.03-.09-.06-.08-.08 0-.15.48-.18.99-.09 1.48 0 .02-.02.03-.03.03h-.02l-.49-.11H9.6v.09c.1.2.14.42.11.64 0 .01-.02.02-.03.02-.17-.09-.34-.17-.51-.27-.02 0-.04.01-.05.03 0 .25.01.49.05.74.02.08-.01.1-.07.05-.19-.15-.35-.34-.49-.55.09-.66.21-1.27.36-1.82.13-.5.3-1.08.53-1.77.02-.08.06-.16.11-.23.09-.07.18-.08.3-.02.39.2.71.51.92.89.02 0 .03 0 .03-.03"/><path fill="#683b36" d="M11.69 9.57c.3.19.49.31.59.36.56.29 1.19.4 1.81.32l.67-.05c-.19.13-.39.24-.59.34-.76.38-1.47.87-2.1 1.45-.07.06-.09.05-.09-.05.08-.81-.02-1.62-.3-2.38m8.76.19-.35 1.02-.03.03h-.03c-.24-.21-.53-.38-.83-.5.44-.13.86-.31 1.25-.55Z"/><path fill="#826158" d="m16.93 9.79.38.02a.74.74 0 0 1-.39-.02Z"/><path fill="#bc7573" d="M22.93 12.85q-.03.105-.09.18c-.04.04-.07.03-.1-.02l-.3-.67s-.05-.05-.08-.04c-.01 0-.03 0-.03.02-.03.03-.05.05-.09.07-.06.03-.07.01-.06-.05l.13-.45s0-.02-.01-.03h-.03c-.23.09-.47.04-.71 0-.08-.01-.13-.07-.14-.15l-.09-.53s0-.01-.01-.02c-.02-.01-.04 0-.05.02l-.1.22-.02.02h-.05c-.18-.4-.3-.83-.33-1.27.09-.12.2-.22.34-.28.3-.12.55 0 .74.25.07.1.14.23.2.4l.67 1.92c.03.08.09.21.19.4"/><path fill="#fff5f6" d="M16.26 10.09c1.07.07 1.91.14 2.53.2.07.01.14.04.2.08.53.29 1.04.63 1.51 1 .07.08.14.14.22.2.06.05.06.07-.02.07h-.06l-.21.03c-.01 0-.03.01-.03.02-.1.12-.11.29-.03.43v.02l-.01.01c-.01 0-.02 0-.03-.01-.14-.11-.23-.34-.06-.46.06-.04.06-.06-.01-.04-.11.02-.22.07-.31.13-.04.03-.04.07 0 .1l.36.29c.4.26.68.42.84.49.19.09.39.13.6.14.03 0 .05 0 .06-.03.04-.07.09-.13.09-.22 0-.1-.02-.2-.06-.29v-.02s.02-.02.03-.01c.07.06.12.13.15.22.03.08.06.26-.02.32-.04.03-.09.04-.14.03-.02 0-.02 0-.01.02.02.02.03.03.05.03.12.01.23.03.34.06l.51.5.54.56s.01.04 0 .06l-.12.14s-.02.05 0 .07c.28.31.54.67.74 1.04 0 .04.01.08.03.11s0 .02-.01.03h-.03s-.03 0-.04-.03l-.07-.21s-.01-.02-.02-.03c0 0-.02-.01-.03-.01-.23 0-.45-.08-.6-.24-.2-.19-.41-.38-.62-.56-.13-.12-.3-.21-.47-.25-.24-.17-.48-.34-.71-.52-.2-.17-.4-.35-.58-.54.11-.18.08-.46-.17-.46-.13-.13-.34-.17-.51-.19-.38-.17-.8-.25-1.22-.29-.26-.03-.52 0-.76.08-.02 0-.04.02-.05.05 0 .02-.01.04 0 .06.02.09.05.18.08.27.06.15-.1.23-.22.28-.52.21-1.11.26-1.66.34-.46.05-.92.19-1.33.4-.5.24-1 .5-1.54.6-.2.04-.4.02-.59-.06q-.105-.045-.18.06c0 .01-.02.02-.03.03-.03.02-.05.01-.04-.02.13-.17.29-.32.47-.44v-.02s0-.03-.02-.03a.8.8 0 0 1-.33-.36c-.15-.31.57-.72.8-.82h.02s.01 0 .01.01v.02c-.03.06-.05.11-.01.16.01.02.03.04.06.04.23.03.45 0 .68-.02.13-.01.26-.03.4-.06.45-.09.9-.21 1.34-.35.17-.06.27-.26.1-.4-.06-.05-.13-.1-.2-.14q-.06-.03-.03.03c.07.18.01.29-.11.42-.03.03-.07.06-.11.07-.04.02-.05 0-.02-.03.11-.16.15-.3.13-.4a.28.28 0 0 0-.21-.21c-.5-.17-1.05-.08-1.46.25-.12.06-.23.16-.3.28-.06.04-.11.09-.15.14l-.35.06c-.07.02-.11-.01-.15-.06-.08-.11-.07-.21.02-.3.35-.33.73-.63 1.13-.9.51-.33 1.1-.53 1.73-.67.22-.05.35-.17.32-.42"/><path fill="#826158" d="M20.74 10.1s.02.05.04.06c.04.44.15.87.33 1.27h.05c.01 0 .02-.01.02-.02l.1-.23v-.02h.06v.02l.02.03.07.5s.02.07.05.1.06.05.1.06c.24.03.47.08.71 0 .01 0 .03 0 .03.02v.02l-.13.45c-.02.06 0 .08.06.05l.09-.07s.04-.02.06-.02.04.02.05.04l.3.67c.02.06.06.06.1.02.04-.05.08-.11.09-.17l.18-.37.12.51q-.12.24-.33.42c-.03.03-.08.02-.1 0s-.04-.02-.05.01l-.51-.49s0-.08-.05-.14a.1.1 0 0 1-.02-.05c-.02-.1-.05-.21-.1-.3h-.02s-.03-.01-.03.02a.54.54 0 0 0-.15-.22c-.01 0-.02 0-.02.01v.02h-.02s-.02 0-.03.02v.06c0-.07-.01-.12-.05-.17-.07-.08-.14-.15-.21-.23a.93.93 0 0 0-.73-.26.5.5 0 0 0-.16-.03h.06c.07-.01.08-.03.02-.08-.08-.06-.15-.13-.22-.2.02 0 .03 0 .04-.01v-.06a.48.48 0 0 1-.07-.37c.06-.34.1-.56.15-.64l.11-.19Zm-9.85.28c.19.29.24.62.16.97-.08.38-.32.71-.66.91-.01.02 0 .04 0 .05.1.11.23.26.3.4.07.15.01.31-.17.32l-.31.03s-.03.05-.02.07c.16.37.24.8-.1 1.05-.27.2-.67.12-.95 0-.17-.06-.35-.09-.54-.1-.02 0-.03.02-.03.03.03.19.02.39-.01.58-.01.04-.04.03-.09 0l-.15-.68c-.05-.23-.11-.45-.17-.68-.09-.33-.17-.67-.25-1-.03-.12-.05-.25-.05-.38l.44.85c.07.15.18.31.32.48.11.18.28.36.49.54.06.05.09.04.07-.04-.04-.24-.06-.49-.05-.74 0-.01.01-.02.02-.02q.03-.015.06 0c.16.09.32.18.48.26h.03v-.02l.01-.01c.03-.22-.01-.43-.11-.63-.02-.02-.02-.05-.02-.07s.01-.02.02-.02h.01l.49.11s.04 0 .05-.02c.01-.01.02-.03.01-.05-.1-.45-.03-.99.09-1.45.02-.09.05-.09.08 0 .06.16.14.29.26.4.02.02.06.02.08 0 .04-.12.08-.23.11-.35.07-.26.08-.55.11-.81"/><path fill="#010101" d="M15.68 11.91s-.01.07-.01.1-.02.01-.02.01l-.01-.02c0-.02 0-.03-.02-.03-.02-.01-.03-.02-.02-.05 0-.01 0-.02-.01-.02h-.04c-.03.01-.07.01-.11 0a.28.28 0 0 0-.22-.14l-.35-.05c-.08-.01-.14.02-.19.09a.09.09 0 0 0 0 .1c.04.05.1.09.16.09l.47.09v.04c-.14.19-.35.38-.58.43s-.74.04-.74-.34v-.25c.43-.33.98-.42 1.48-.25.1.03.18.11.21.21m4.64.23-.02.03-.36-.29s-.04-.07 0-.11c.09-.06.2-.11.31-.13.07-.01.07 0 .02.03-.18.11-.09.35.05.46m.49-.45a.95.95 0 0 1 .74.25l-.09.02s-.07.06-.07.1c0 .02 0 .03.02.05.08.12.19.23.31.31-.12.11-.29.16-.46.12q-.165-.03-.33-.09c-.07-.04-.14-.1-.2-.16-.23-.21-.23-.48.07-.61"/><path fill="#fff5f6" d="M15.44 11.89c.04.09.03.14-.03.17-.19-.02-.38-.05-.56-.08-.06 0-.12-.04-.16-.09a.09.09 0 0 1 0-.1c.05-.07.12-.1.19-.09l.35.05c.09 0 .17.06.22.14m5.85-.02h.01v.05s-.03.05-.06.07a.17.17 0 0 1-.1 0h-.02s-.05-.04-.07-.07a.2.2 0 0 1 0-.11h.01s.02-.01.03-.01l.18.07Zm-6.86-.06h.03c.01 0 .02.01.03.02v.02s.04.07.03.11c0 .02-.01.04-.02.06s-.02.03-.04.04h-.01s-.07.04-.11.03a.16.16 0 0 1-.09-.07V12s-.02-.02-.02-.03v-.02l.02-.01.17-.12Zm7.1.14c.06.08.13.16.21.23.04.05.05.11.04.17-.02.07-.04.09-.07.07-.12-.08-.23-.19-.31-.31a.1.1 0 0 1-.01-.09l.02-.03s.03-.02.04-.02l.09-.02Z"/><path fill="#e6d1cc" d="M20.06 12.42c-.19.03-.36 0-.56-.01a5 5 0 0 1-.76-.11.53.53 0 0 0-.35.03c-.1.05-.14.12-.11.21.06.2.25.21.4.29-.06.04-.13.07-.19.09-.07.01-.13.03-.2.06-.51.18-1.01.37-1.52.54-.6.2-1.21.38-1.79.65-1.37.59-2.3 1.9-2.4 3.38-.1.87.03 1.76.38 2.56.31.7.78 1.31 1.37 1.79.5.42 1.07.76 1.69.98 1.09.42 2.27.54 3.42.34.82-.13 1.59-.46 2.25-.96.85-.67 1.49-1.57 1.84-2.59.27-.75.38-1.54.34-2.34a3.5 3.5 0 0 0-.63-1.85c-.21-.32-.46-.61-.73-.88-.25-.24-.41-.4-.48-.47.18.04.34.13.47.25.21.17.42.36.62.56.16.16.38.25.6.24.01 0 .02 0 .03.01.01 0 .02.02.02.03l.07.2s.02.03.04.03h.04v-.03s-.03-.07-.03-.11l.42.88c.06.15.09.29.11.42.02.22.04.49.05.82 0 .14-.02.29-.03.44-.02.08-.05.16-.09.23s-.07.14-.08.22c-.12.61-.33 1.2-.63 1.75-.55 1.01-1.27 1.92-2.12 2.7a5.08 5.08 0 0 1-3.86 1.38 4.9 4.9 0 0 1-2.13-.5c-.44-.21-.87-.47-1.36-.57-.33-.07-.67-.13-1-.19-.28-.05-.56-.13-.82-.26a2.7 2.7 0 0 1-1.21-1.27 8.6 8.6 0 0 1-.53-1.26q-.06-.15-.15-.3c.11-.24.22-.49.31-.74.04-.1.09-.2.15-.29.06-.08.04-.09-.04-.05-.05.02-.1.04-.15.01-.4-.2-.15-.65.02-.92.28-.45.67-.83 1.14-1.09s0-.02 0-.02c-.14.06-.26.02-.38-.09-.27-.25-.23-.62-.06-.92.2-.34.41-.67.64-.99.12-.17.26-.34.41-.5 0 .03.01.04.04.02.01 0 .02-.01.03-.02q.075-.105.18-.06c.19.07.39.09.59.06.53-.1 1.04-.36 1.54-.6.42-.21.87-.35 1.33-.4.55-.08 1.14-.13 1.66-.34.11-.05.27-.13.22-.28-.03-.09-.06-.18-.08-.27v-.06s.03-.04.06-.05c.24-.09.49-.11.76-.08.43.05.84.11 1.22.29"/><path fill="#c98c89" d="M20.06 12.42c.18.02.39.06.52.19v.05s-.04-.03-.06-.03h-.01v.02c-.04.2-.26.19-.39.12-.13-.06-.4-.07-.43.14-.06 0-.12-.01-.17-.04.02-.15-.27-.25-.37-.25-.2 0-.36-.01-.51-.04-.11-.02-.2-.11-.24-.26a.53.53 0 0 1 .35-.03c.25.05.5.1.76.11.2.01.36.05.56.01"/><path fill="#bc7573" d="M18.38 12.32c.05.15.13.23.25.26.14.03.31.04.51.04.1 0 .39.1.37.25-.04-.01-.08.01-.1.07 0-.07-.02-.11-.05-.12-.08-.03-.11 0-.07.08.03.08.04.17.03.26v.02l-.02.01h-.01l-.01-.01a.8.8 0 0 0-.37-.27l-.23-.08c-.15-.09-.34-.09-.4-.28-.03-.1 0-.17.1-.22"/><path fill="#fff5f6" d="M13.7 12.42c.02.17.11.19.23.26.02 0 .02.02.01.04s-.02.02-.04.02c-.16-.03-.26-.11-.28-.27l.02-.07s.02-.02.03-.02.02.01.02.02v.02Z"/><path fill="#250e08" d="M22.24 12.94a2 2 0 0 0-.34-.06c-.02 0-.03-.01-.05-.03-.01-.02 0-.02.01-.02.05 0 .1 0 .14-.03.08-.06.05-.24.02-.32 0-.03.01-.03.03-.03q.015 0 .03.03c.04.09.07.18.09.28 0 .02.01.03.02.05.05.06.07.11.05.14"/><path fill="#e6d1cc" d="m20.12 12.54-.54-.06s-.05.01-.05.03v.02s.01.06.04.06l.54.06s.06-.03.06-.06-.02-.06-.05-.06m.46.08c.25 0 .28.28.17.46a.6.6 0 0 1-.22-.16c.06-.07.08-.16.05-.25z"/><path fill="#bc7573" d="M20.58 12.65c.02.09 0 .18-.06.25-.05.06-.13.11-.21.13-.18.04-.36.12-.5.25-.06.05-.07.03-.06-.03.03-.12.09-.24.18-.34v-.02h-.01c-.06-.04-.12-.02-.15.03 0 .02-.03.04-.05.06-.01-.04-.02-.06-.05-.07.02-.2.3-.2.43-.14.14.06.35.08.39-.12 0-.01.01-.02.02-.02s.03 0 .06.03"/><path fill="#ae918b" d="m19.42 12.94-.04.51c0 .06-.04.09-.1.09-1.26-.11-2.53.1-3.66.69-.74.38-1.36.96-1.81 1.66a4.46 4.46 0 0 0-.75 2.75c.04.73.29 1.43.71 2.02.16.25.34.48.55.7l.4.36c.97.85 2.2 1.35 3.48 1.41 1.15.03 2.28-.32 3.21-1l.48-.39c.11-.09.23-.21.34-.34.27-.32.5-.66.68-1.01.85-1.52.75-3.4-.27-4.83a4.56 4.56 0 0 0-2.97-2.01c-.01 0-.02-.02-.03-.03v-.02l.09-.53s.04-.03.05-.06c.02-.03.05-.04.08-.05.03 0 .05 0 .07.01s0 .03 0 .03c-.08.11-.14.22-.17.34-.01.07 0 .08.06.03.14-.12.31-.21.49-.24a.36.36 0 0 0 .21-.13.5.5 0 0 0 .22.16c.19.21.39.39.58.54s.43.32.71.52c.07.08.23.24.48.47.23.22.47.51.73.88.38.54.59 1.18.63 1.84.05.8-.06 1.59-.34 2.34a5.6 5.6 0 0 1-1.83 2.59c-.65.51-1.43.84-2.25.97-1.15.19-2.33.08-3.42-.34-.64-.24-1.2-.57-1.69-.99-.59-.49-1.05-1.1-1.37-1.79-.35-.81-.48-1.69-.38-2.56a3.98 3.98 0 0 1 2.39-3.38c.59-.27 1.19-.46 1.79-.65.51-.16 1.01-.36 1.52-.54l.2-.05a.6.6 0 0 0 .19-.08l.23.08c.15.05.28.14.37.27h.01l.02.01h.02v-.03c0-.09 0-.18-.03-.26-.03-.09 0-.11.07-.08.02 0 .04.05.05.12"/><path fill="#250e08" d="M19.51 12.87c.06.03.11.04.17.04.03.01.04.03.05.06l-.09.53s0 .03.01.04c0 .01.02.02.03.02 1.22.23 2.29.95 2.96 1.99-.02.03-.06.04-.09.05-.01 0-.02.01-.02.02a.22.22 0 0 0 0 .16c.1.31-.07.63-.32.8-.15.1-.32.16-.5.19-.38.06-.76.02-1.13-.1l-.29-.1c-.27-.07-.54-.14-.81-.19-.07-.01-.14-.02-.21 0-.56.07-1.09.26-1.58.55-.48.28-.98.54-1.48.79-.23.1-.46.14-.69.22-.03 0-.06 0-.09-.01-.38-.22-.8-.38-1.24-.47-.03 0-.06-.03-.07-.06-.11-.21-.19-.44-.24-.68-.03-.19-.04-.4-.02-.64 0-.04-.02-.09-.06-.11 0 0-.01-.02-.01-.03v-.06c.45-.7 1.07-1.27 1.81-1.65 1.13-.58 2.4-.82 3.66-.7.06 0 .09-.02.1-.09l.04-.51c.02-.06.06-.08.1-.07"/><path fill="#774c46" d="m23.23 13 .15.44c.04.11.1.25.19.42.26.5.48 1.05.64 1.66q.105.375.09.66l-.41-.88c-.21-.39-.46-.75-.76-1.08l.02-.03.12-.14s.01-.04 0-.06l-.54-.56s.03-.03.05-.01c.03.03.07.03.1 0q.21-.18.33-.42"/><path fill="#683b36" d="M9.69 19.65q-.465-1.155-.72-2.37c-.11-.55-.22-1.11-.31-1.66.11.05.25.06.37.02.28-.11.35-.42.18-.67v-.02h.05c.21.17.45.31.72.31.31 0 .51-.21.67-.49.17-.29.34-.58.52-.86s.02.02.01.03c-.08.86-.32 1.71-.69 2.49 0 .02-.01.04-.01.06 0 .08 0 .13-.01.16l-.19.33c-.3.51-.46 1.08-.49 1.66 0 .13.09.17.19.19q.045 0 .03.06c-.06.29-.17.49-.33.77"/><path fill="#3c1a18" d="M22.65 15.56c1.01 1.42 1.11 3.3.26 4.83-.06-.02-.06-.09-.03-.21.1-.4.02-.7-.11-1.06-.05-.13-.14-.17-.27-.11-.07.03-.13.07-.19.11-.62.45-1.21.92-1.87 1.32-.48.29-1.08.54-1.64.58-.49.04-.99-.02-1.46-.15-.79-.26-1.52-.68-2.15-1.22l-.89-.74c-.09-.07-.18-.13-.29-.17-.04-.01-.08 0-.1.04-.05.11-.08.23-.1.35-.07.33-.08.66-.05.99.02.14.03.28.05.42.02.03.03.07.03.11q0 .03-.06.03a3.85 3.85 0 0 1-.71-2.02c-.05-.97.21-1.94.75-2.75v.06s0 .03.01.03c.04.03.06.07.05.11-.02.24-.02.46.02.63.05.24.13.47.24.68.02.03.04.05.07.06.45.09.88.25 1.28.48h.05c.23-.08.46-.12.69-.22.37-.16.74-.35 1.08-.56l.4-.23c.48-.29 1.02-.47 1.58-.55h.21c.37.07.74.16 1.1.28.37.11.74.15 1.13.1.18-.03.35-.09.5-.19.25-.17.42-.48.32-.8a.4.4 0 0 1 0-.16c0-.01.02-.02.03-.02.03 0 .07-.02.09-.05"/><path fill="#826158" d="m24.82 17.59-.03.64s0 .03-.02.03h-.02s-.01 0-.01-.01c0-.23.03-.44.08-.66"/><path fill="#cbb2ad" d="M24.45 17.86c0 .35-.07.7-.11 1.03-.16 1.34-.71 2.6-1.58 3.62-.72.84-1.61 1.51-2.61 1.98-1.05.5-2.15.57-3.29.54-.72-.02-1.43-.12-2.13-.31-.23-.06-.46-.14-.68-.23-.97-.4-1.85-1.01-2.56-1.78-.64-.7-1.15-1.52-1.5-2.4.12-.07.23-.15.32-.26.06-.08.12-.16.17-.25.06.09.12.19.15.3.15.44.33.87.53 1.26.26.54.68.98 1.21 1.26.25.12.53.21.82.26.34.06.67.11 1 .19.48.1.91.36 1.36.57.66.32 1.39.49 2.13.5 1.42.1 2.82-.4 3.86-1.39.85-.78 1.56-1.69 2.11-2.7.29-.55.5-1.14.63-1.75.02-.08.05-.15.09-.22s.07-.14.09-.22"/><path fill="#826158" d="m24.74 18.42-.08.65c0 .05 0 .1-.03.15-.2 1.33-.78 2.58-1.67 3.59-.77.89-1.73 1.6-2.81 2.08-.54.25-1.12.4-1.72.44 0-.01-.02-.01-.04-.01l.68-.11c.18-.03.41-.09.7-.2.91-.35 1.75-.86 2.48-1.51.18-.16.35-.34.52-.51l.19-.2a7.1 7.1 0 0 0 1.7-3.99c0-.13.03-.25.08-.37"/><path fill="#4e1e1e" d="M22.91 20.38c-.27.5-.61.96-1.02 1.35-.03 0-.04-.01-.04-.05l.02-.06c.12-.17.18-.37.19-.58.02-.16-.08-.29-.2-.39-.1-.08-.25-.09-.35-.01-.74.49-1.58.83-2.46.98-1.05.17-2.12.01-3.08-.45q-.75-.36-1.44-.81c-.2-.13-.48-.11-.46.21 0 .13.04.26.1.37l.22.37s0 .02-.01.03h-.07c-.2-.22-.39-.45-.55-.7.04 0 .06 0 .06-.03 0-.04 0-.08-.03-.11-.1-.46-.1-.94 0-1.4.02-.12.05-.23.1-.34.02-.05.06-.06.09-.05.11.04.21.1.3.17l.89.74c.63.54 1.36.96 2.15 1.22.46.14.95.19 1.46.15.56-.05 1.16-.28 1.64-.58.66-.4 1.25-.86 1.88-1.32.06-.04.11-.08.18-.11.14-.06.23-.02.27.11.13.36.21.66.11 1.06-.03.11-.02.19.03.21"/><path fill="#683b36" d="m21.89 21.73-.48.39a.7.7 0 0 0-.17-.12.8.8 0 0 0-.4.02c-.3.07-.6.13-.91.17-.5.07-.99.13-1.49.18-.43.04-.92.04-1.47.01-.69-.05-1.37-.25-1.98-.59l-.17-.06-.03-.03c-.01-.02-.03-.02-.06-.01l-.41-.36s.06.01.07 0c.02 0 .02 0 .01-.03l-.22-.37a.9.9 0 0 1-.1-.37c-.03-.33.26-.34.46-.21.51.34.99.6 1.44.82.76.37 1.6.54 2.45.51.21-.02.42-.02.63-.06.88-.15 1.72-.49 2.46-.99.11-.08.25-.07.35.01.11.1.22.23.2.39-.01.21-.08.41-.19.58 0 .02-.01.04-.02.06 0 .03.01.05.05.05"/><path fill="#7e4140" d="M14.72 21.7s.05-.01.06.01l.04.03.17.06c.63.34 1.29.54 1.98.59.55.03 1.04.03 1.47-.01.5-.05 1-.11 1.49-.18.31-.04.62-.1.91-.17.14-.03.29-.06.4-.02.07.02.13.07.17.12-.69.52-1.5.84-2.35.95-.28.03-.57.05-.85.05a5.73 5.73 0 0 1-3.48-1.41Z"/><path fill="#826158" d="M16.29 25.36c-.4-.03-.8-.09-1.18-.17.07 0 .14 0 .2.01l.19.03s.09.01.13.02l.13.02c.17 0 .34.03.52.08"/><path fill="#ae918b" d="M18.39 25.31s.04 0 .05.01c-.08.03-.17.04-.25.03.06-.03.13-.04.2-.04"/></svg>