<svg xmlns="http://www.w3.org/2000/svg" viewBox="0 0 32 32"><defs><linearGradient id="a" x1="50%" x2="50%" y1="0%" y2="100%"><stop offset="0%" stop-color="#00FF19"/><stop offset="100%" stop-color="#00B81E"/></linearGradient></defs><g fill="none"><path fill="#55F" d="M0 16C0 7.163 7.163 0 16 0s16 7.163 16 16-7.163 16-16 16S0 24.837 0 16"/><path fill="url(#a)" d="M16.393 22.619c-.242-2.63.141-6.174 1.691-7.89 1.633.361 4.898-.756 6.085-3.021 1.077-2.054.881-5.069 1.484-5.89-7.099 0-8.277 7.338-10.31 12.833-1.502-4.063-6.22-6.8-10.318-5.13 1.666 1.151 2.705 3.991 4.963 4.246.71.08 2 0 2.85-1.606 2.01 1.633 1.718 3.614 1.456 6.458-.105 1.148-.502 2.24-.444 3.15.084 1.608 2.903 1.608 2.987 0 .058-.91-.339-2.002-.444-3.15"/></g></svg>