<svg xmlns="http://www.w3.org/2000/svg" viewBox="0 0 32 32"><defs><linearGradient id="a" x1="98.751%" x2="2.084%" y1="50.014%" y2="50%"><stop offset="0%" stop-color="#060606"/><stop offset="100%" stop-color="#FBFBFB"/></linearGradient></defs><g fill="none" fill-rule="evenodd"><circle cx="16" cy="16" r="16" fill="#000"/><path fill="url(#a)" fill-rule="nonzero" d="M16 0c8.837 0 16 7.163 16 16s-7.163 16-16 16S0 24.837 0 16 7.163 0 16 0m0 1C7.716 1 1 7.716 1 16s6.716 15 15 15 15-6.716 15-15S24.284 1 16 1"/><path fill="url(#a)" fill-rule="nonzero" d="M16 4c6.627 0 12 5.373 12 12s-5.373 12-12 12S4 22.627 4 16 9.373 4 16 4m0 1C9.925 5 5 9.925 5 16s4.925 11 11 11 11-4.925 11-11S22.075 5 16 5" transform="rotate(-180 16 16)"/><path fill="url(#a)" fill-rule="nonzero" d="M16 7a9 9 0 1 1 0 18 9 9 0 0 1 0-18m0 1a8 8 0 1 0 0 16 8 8 0 0 0 0-16"/></g></svg>