<svg xmlns="http://www.w3.org/2000/svg" viewBox="0 0 32 32"><g fill="none" fill-rule="evenodd"><circle cx="16" cy="16" r="16" fill="#2E2E2E"/><g fill="#FFF"><path d="M7 7v18h16.665v-2.018H8.995V9.018h14.67V7z"/><path d="M25.32 13.917q0-.642-.496-1.115c-.331-.316-.791-.475-1.389-.475-.506 0-.901.103-1.195.317a.99.99 0 0 0-.442.846q0 .279.11.502c.074.149.194.279.368.4.175.12.405.223.7.316a9 9 0 0 0 1.094.26c1.113.205 1.959.549 2.547 1.023q.883.722.883 2.129v.186a3.4 3.4 0 0 1-.267 1.357c-.174.4-.432.744-.763 1.032s-.736.502-1.214.66a5.4 5.4 0 0 1-1.61.233c-.698 0-1.305-.102-1.839-.298a3.55 3.55 0 0 1-1.324-.827 3.45 3.45 0 0 1-.8-1.237 4.3 4.3 0 0 1-.276-1.552v-.093h1.996c0 .641.184 1.152.551 1.543.368.381.939.576 1.72.576.607 0 1.058-.13 1.352-.4q.442-.404.442-.948a1.4 1.4 0 0 0-.092-.502 1.1 1.1 0 0 0-.322-.427c-.147-.13-.359-.242-.626-.344a6 6 0 0 0-1.002-.26 10 10 0 0 1-1.472-.363 4.3 4.3 0 0 1-1.158-.586 2.46 2.46 0 0 1-.764-.92c-.184-.373-.276-.819-.276-1.349v-.093c0-.437.092-.846.267-1.218q.262-.558.745-.976a3.3 3.3 0 0 1 1.15-.641 4.7 4.7 0 0 1 1.508-.233c.625 0 1.177.093 1.665.27q.729.264 1.223.725c.33.307.552.67.745 1.06.239.474.248 1.44.248 1.44z"/></g></g></svg>