<svg xmlns="http://www.w3.org/2000/svg" viewBox="0 0 32 32"><defs><linearGradient id="a" x1="100%" x2="-.733%" y1="48.873%" y2="49.606%"><stop offset="0%" stop-color="#B3F8F1"/><stop offset="50%" stop-color="#8FF0BE"/><stop offset="100%" stop-color="#B5F9F1"/></linearGradient></defs><g fill="none" fill-rule="evenodd"><circle cx="16" cy="16" r="16" fill="#7BBAA4"/><g transform="translate(6.468 4)"><path fill="#7BBAA4" stroke="#004531" d="M6.419 3.996C4.02 5.594-.374 10.389.025 15.184c.4 4.795 3.597 8.391 9.59 8.79 5.994.4 9.99-3.995 10.39-7.591.399-3.597-1.999-10.789-7.992-12.787-1.636-.51-1.429-.28-2.398-.4-1.555-.19-.799-.799-3.196.8Z"/><path fill="#FFAFBC" d="M10.015 22.376c4.414 0 7.991-3.399 7.991-7.592 0-1.535-.48-2.965-1.305-4.16-2.29-1.034-11.88-1.434-13.479.564-.692 1.124-1.199 2.2-1.199 3.596 0 4.193 3.578 7.592 7.992 7.592"/><path fill="#FF93A1" d="M12.013 21.178c2.397-.4 4.795-2.797 4.795-4.795s-.77-2.797-3.197-2.797-6.793 3.786-6.793 5.993 2.797 1.998 5.195 1.599M4.39 15.277c.381-.095.748-.597.733-1.003-.014-.407-.143-.565-.53-.552-.389.014-1.06.809-1.044 1.258.015.45.461.391.842.297Z"/><path fill="#FFF" d="M15.609 20.778c.57-.142 1.505-.842 1.483-1.452s-.214-.848-.796-.827c-.583.02-1.91 1.206-1.886 1.88s.628.541 1.199.399"/><path fill="#FFD3DA" d="M10.015 12.387c3.53 0 6.793-.936 6.793-1.598s-3.262-1.2-6.793-1.2-6.793.937-6.793 1.6c0 .661 3.262 1.198 6.793 1.198"/><path fill="url(#a)" d="m0 3.996.343 2.4a.2.2 0 0 0 .34.114l1.993-1.994a.2.2 0 0 1 .26-.02l4.093 2.977a.2.2 0 0 0 .28-.045q.9-1.252 1.482-1.834.5-.5 1.499-1.237a1 1 0 0 1 1.04-.09l.258.128 3.055 1.528a.2.2 0 0 0 .243-.051l1.756-2.108a.2.2 0 0 1 .295-.013l.644.644-.663-1.658a.2.2 0 0 0-.348-.042l-1.686 2.36a.2.2 0 0 1-.253.063l-3.753-1.877a.2.2 0 0 0-.18 0q-1.248.627-1.907 1.154-.513.41-1.382 1.331a1 1 0 0 1-1.341.103L3.324 3.695a.2.2 0 0 0-.251.004L.993 5.432a.2.2 0 0 1-.307-.064z" transform="translate(1.224 9.59)"/><ellipse cx="5.295" cy="9.708" fill="#FFF" rx="1.199" ry="2.397" transform="rotate(39 5.295 9.708)"/><path fill="#8CB973" d="m7.617 3.197 2.797.4.8-.4v2.397q-.8.4-1.599.4a3.55 3.55 0 0 1-1.598-.4z"/><path fill="#DE8845" d="m7.218 1.199 4.395-.4v1.598l-.4.8q-.798.798-1.997.799-1.2 0-1.599-.8l-.799-.799z"/><path fill="#EBB749" d="M9.615 1.598q1.324 0 2.398-.4Q10.539.001 9.216 0T6.818 1.199q1.474.4 2.797.4Z"/><path stroke="#004531" d="M7.218 3.596a2 2 0 0 0 0-.4q-.107-.75-.387-2.305a.16.16 0 0 1 .062-.15Q7.869 0 9.216 0q1.354 0 2.71.865a.16.16 0 0 1 .072.159q-.281 1.478-.385 2.173a1.6 1.6 0 0 0 0 .4"/></g></g></svg>