<svg xmlns="http://www.w3.org/2000/svg" viewBox="0 0 32 32"><defs><linearGradient id="a" x1="50%" x2="50%" y1="0%" y2="100%"><stop offset="0%" stop-color="#0B0327"/><stop offset="100%" stop-color="#160555"/></linearGradient></defs><g fill="none"><circle cx="16" cy="16" r="16" fill="url(#a)"/><path fill="#00D1FF" d="M10.833 12.254a.66.66 0 0 0-.517-.237h-4.19a.12.12 0 0 1-.09-.035.1.1 0 0 1-.036-.077V9.112q0-.042.035-.077A.12.12 0 0 1 6.125 9h4.429q1.674 0 2.89 1.355l1.076 1.299-2.095 2.528zm7.737-1.913Q19.785 9 21.475 9h4.413q.057 0 .084.028t.028.084v2.793a.12.12 0 0 1-.028.077q-.027.035-.084.035h-4.19a.66.66 0 0 0-.516.237l-3.087 3.715 3.101 3.743q.21.224.503.224h4.19q.056 0 .083.035a.14.14 0 0 1 .028.09v2.794a.12.12 0 0 1-.028.077q-.027.035-.084.035h-4.413q-1.69 0-2.89-1.355l-2.57-3.1-2.57 3.1q-1.217 1.355-2.905 1.355H6.126q-.056 0-.084-.035a.14.14 0 0 1-.028-.091v-2.794a.12.12 0 0 1 .028-.076q.028-.036.084-.035h4.19a.7.7 0 0 0 .517-.238l3.03-3.659z"/></g></svg>