<svg xmlns="http://www.w3.org/2000/svg" viewBox="0 0 32 32"><defs><linearGradient id="a" x1="67.606%" x2="12.372%" y1="32.43%" y2="53.058%"><stop offset="0%" stop-color="#00FFA3"/><stop offset="100%" stop-color="#DC1FFF"/></linearGradient><linearGradient id="b" x1="67.606%" x2="12.372%" y1="43.908%" y2="64.535%"><stop offset="0%" stop-color="#00FFA3"/><stop offset="100%" stop-color="#DC1FFF"/></linearGradient><linearGradient id="c" x1="67.606%" x2="12.372%" y1="38.206%" y2="58.833%"><stop offset="0%" stop-color="#00FFA3"/><stop offset="100%" stop-color="#DC1FFF"/></linearGradient></defs><g fill="none" fill-rule="evenodd"><circle cx="16" cy="16" r="16" fill="#000"/><g fill-rule="nonzero"><path fill="url(#a)" d="M3.25 12.19a.65.65 0 0 1 .46-.19h15.957c.29 0 .436.351.23.557l-3.153 3.15a.65.65 0 0 1-.46.191H.326a.326.326 0 0 1-.23-.557l3.152-3.15z" transform="translate(6 8)"/><path fill="url(#b)" d="M3.25.19A.65.65 0 0 1 3.71 0h15.957c.29 0 .436.351.23.557l-3.153 3.15a.65.65 0 0 1-.46.191H.326a.326.326 0 0 1-.23-.557L3.248.191z" transform="translate(6 8)"/><path fill="url(#c)" d="M16.744 6.19a.65.65 0 0 0-.46-.19H.326a.326.326 0 0 0-.23.557l3.152 3.15a.65.65 0 0 0 .461.191h15.957c.29 0 .436-.351.23-.557l-3.153-3.15z" transform="translate(6 8)"/></g></g></svg>