<svg xmlns="http://www.w3.org/2000/svg" fill="none" viewBox="0 0 2600 2600"><path fill="#fff" d="M1300 2600c717.97 0 1300-582.03 1300-1300S2017.97 0 1300 0 0 582.03 0 1300s582.03 1300 1300 1300"/><path fill="#2683FF" d="M406.107 1750.12a68.3 68.3 0 0 0-37.98 11.53 68.3 68.3 0 0 0-25.179 30.68 68.33 68.33 0 0 0-3.89 39.49 68.35 68.35 0 0 0 18.709 35.01 68.4 68.4 0 0 0 35.003 18.71 68.46 68.46 0 0 0 39.498-3.89 68.4 68.4 0 0 0 30.68-25.18 68.36 68.36 0 0 0 11.521-37.98c0-12.13-3.312-23.15-8.825-34.18a69.4 69.4 0 0 0-25.25-24.96 69.46 69.46 0 0 0-34.287-9.21M1371.93 262.787a68.36 68.36 0 0 0-116.7-48.339 68.4 68.4 0 0 0-18.71 35.002 68.36 68.36 0 0 0 29.07 70.179 68.36 68.36 0 0 0 37.98 11.521 68.76 68.76 0 0 0 48.23-20.135 68.78 68.78 0 0 0 20.13-48.228m833.59 593.175c13.52 0 26.74-4.009 37.98-11.521a68.4 68.4 0 0 0 25.18-30.68 68.4 68.4 0 0 0 3.89-39.498 68.362 68.362 0 0 0-135.41 13.337 67.3 67.3 0 0 0 8.82 33.075 68.19 68.19 0 0 0 59.54 35.287M438.019 724.75c-33.075-18.75-73.875-7.713-92.612 25.362-18.738 33.075-7.713 73.875 25.362 92.613 33.075 18.737 73.875 7.712 92.613-25.363 18.75-31.975 7.712-73.875-25.363-92.612m1795.001 1038.6c-9.93-6.61-22.05-8.83-34.18-9.93a68.4 68.4 0 0 0-26.44 4.94c-8.4 3.38-16.05 8.4-22.49 14.76a68.2 68.2 0 0 0-15.06 22.29 68.4 68.4 0 0 0-5.29 26.37c0 9.06 1.8 18.02 5.29 26.38a68.3 68.3 0 0 0 15.06 22.29 68.4 68.4 0 0 0 48.93 19.69c24.25 0 46.25-13.23 59.54-34.18 18.75-31.97 7.71-73.87-25.36-92.61m-997.81 570c-3.32 30.87 15.43 60.64 44.1 71.66 6.61 2.2 14.33 4.41 20.95 4.41 16.72-.02 32.9-5.87 45.78-16.53a71.96 71.96 0 0 0 24.78-41.9 67.98 67.98 0 0 0-12.96-50.1 67.98 67.98 0 0 0-44.46-26.47 68.04 68.04 0 0 0-50.22 12.5 68 68 0 0 0-26.87 44.22c-.6.59-.99 1.36-1.1 2.2"/><path fill="#2683FF" d="M2300.28 1637.66c-8.12-4.7-16.6-8.75-25.36-12.12V987.162c9.92-3.312 19.85-8.824 29.77-13.224 102.5-57.338 140-187.438 82.69-290.001s-187.44-139.999-290-82.687c-8.82 4.412-16.54 9.925-24.25 15.438l-562.3-325.251c1.1-9.925 2.2-18.749 2.2-28.662C1513.02 144.812 1417.14 50 1300.27 50c-116.88 0-215 97.025-215 213.888 0 9.925 1.1 18.749 2.2 28.662L529.582 615.6a213.2 213.2 0 0 0-74.793-37.691A213.13 213.13 0 0 0 192.04 729.054a213.14 213.14 0 0 0 22.56 162.684 213.1 213.1 0 0 0 55.919 62.35c7.713 5.512 15.438 11.025 24.25 16.537a135.3 135.3 0 0 0 28.663 13.225v637.28c-109.163 44.1-162.1 167.62-118 276.73 44.1 109.12 167.587 162.08 276.75 117.98 9.925-3.31 18.75-8.83 27.562-13.23 8.825-5.51 17.638-11.02 26.463-17.64l552.373 318.64c-18.75 115.77 60.64 224.91 176.41 243.66 115.78 18.75 224.93-60.63 243.67-176.41 2.2-12.12 2.2-23.15 2.2-35.29-.15-10.32-.88-20.63-2.2-30.87l549.07-316.43c8.83 6.62 17.64 13.23 27.56 18.75 102.5 57.34 232.64 20.95 290-81.58 55.09-102.55 22.02-228.24-75.01-287.78m38.59 266.81c-45.2 77.18-145.54 103.64-222.71 58.44-61.74-36.39-92.62-108.05-76.08-177.5l-258-151.05a287.6 287.6 0 0 1-146.19 79.65 287.65 287.65 0 0 1-165.83-14.65c-38.59 12.13-121.25 19.85-121.25 19.85v454.25c90.41 27.57 140 123.49 112.5 213.89s-123.49 140-213.9 112.5c-1.1 0-2.2-1.1-3.32-1.1-7.71-2.2-14.33-5.51-20.95-8.83-84.9-41.9-117.97-145.53-76.07-229.32 20.95-41.9 58.44-72.76 102.5-87.1v-463.08a762 762 0 0 1-94.83-36.38 342.4 342.4 0 0 1-148.86-3.28 342.4 342.4 0 0 1-133.386-66.18l-307.612 177.5a163.74 163.74 0 0 1-63.193 170.6c-26.223 19-57.49 29.8-89.85 31.04a163.8 163.8 0 0 1-91.951-24.11 163.76 163.76 0 0 1-75.992-165.3 163.76 163.76 0 0 1 41.568-85.49 163.73 163.73 0 0 1 82.055-47.99c52.925-13.23 109.15 2.2 150 39.68l287.763-166.49c-97.025-136.71-81.588-324.14 37.5-443.22l-327.5-187.437c-65 61.737-167.588 58.437-229.325-7.713a162.5 162.5 0 0 1 7.712-230.437c66.15-61.738 167.588-58.438 229.325 7.712 37.5 39.687 51.825 94.813 39.688 147.738l362.737 208.377a342.6 342.6 0 0 1 154.361-40.802c50.74-41.875 180.74-84.875 180.74-84.875V407.225c-80.49-24.25-125.69-109.15-101.44-189.637C1183.33 137.1 1268.29 93 1348.78 117.25s125.69 109.15 101.44 189.637a150.96 150.96 0 0 1-101.44 101.438v486.25s238.15 59.537 313.13 148.835l385.88-219.397c-19.85-88.2 34.18-176.413 122.39-196.251s176.41 34.175 196.25 122.388c19.84 88.212-34.17 176.412-122.39 196.25a164.2 164.2 0 0 1-79.51-1.828 164.24 164.24 0 0 1-69.34-38.972l-381.47 216.08c11.02 23.15 20.95 46.24 27.56 70.56 117.98 80.48 159.88 234.83 97.03 363.83l252.5 146.64a161.27 161.27 0 0 1 92.44-42.34c34.57-3.77 69.43 3.73 99.39 21.39 76.08 45.2 102.5 144.44 56.25 222.71z"/><path fill="#2683FF" d="M1627.73 1278.24c-1.1-8.83-2.2-16.54-3.31-25.37a137 137 0 0 0-4.41-17.63c0-2.2-1.1-4.42-1.1-6.62-2.2-6.61-4.42-14.33-6.62-20.95v-1.1a292.3 292.3 0 0 0-62.85-99.22c-6.61-6.61-12.12-12.13-19.85-18.75l-1.1-1.1c-6.61-5.51-13.22-11.03-20.95-15.44l-1.1-1.1c-6.61-4.41-14.33-9.92-20.95-13.22l-1.1-1.1a203 203 0 0 0-22.05-11.03l-2.2-1.1c-7.71-3.31-15.43-6.61-24.25-9.92l-1.1-1.1c-8.82-2.2-16.53-5.52-25.36-6.62h-1.1c-8.72-2-17.56-3.47-26.46-4.41h-1.1c-46.96-6.67-94.85-.97-138.93 16.54l-5.51 4.41c-6.61 2.2-17.64 7.71-24.25 11.03a51.6 51.6 0 0 1-11.02 5.51c-3.32 1.1-8.83 5.51-12.13 7.71s-11.02 7.71-15.44 11.03l-3.31 2.2c-6.61 4.41-12.12 9.92-18.75 15.43l-5.51 5.52c-6.61 6.61-12.13 12.12-17.64 18.75-13.11-2.2-26.39-3.31-39.69-3.32-4.41 0-7.71 0-11.02 1.1-50.71 2.2-99.226 23.15-136.713 57.34-18.75 16.54-34.175 37.5-46.25 59.54l-1.175 2.25a156 156 0 0 0-8.825 19.85c-1.1 2.2-1.1 3.31-2.2 5.51a108 108 0 0 0-5.513 17.64c-1.1 2.2-1.1 5.51-2.2 7.71-1.1 5.51-2.2 11.03-3.312 17.64 0 2.2-1.1 4.41-1.1 7.71a195 195 0 0 0-1.1 25.36c-.184 7.01.184 14.01 1.1 20.95 0 2.2 1.1 4.42 1.1 7.72 1.1 4.41 1.1 8.82 2.2 13.22s1.1 5.51 2.2 8.83a32.2 32.2 0 0 1 2.2 9.92c0 3.31 2.2 6.61 3.312 9.93a54 54 0 0 0 3.313 7.71c1.661 3.6 3.133 7.28 4.412 11.02 1.1 2.2 2.2 3.32 2.2 5.52a195.04 195.04 0 0 0 75 88.2c16.538 9.92 33.075 18.75 50.711 24.25 6.84 2.35 13.84 4.19 20.95 5.51l2.2 1.1 19.85 3.31 4.41 1.1c7.72 1.1 15.44 1.1 24.25 1.1 29.78 0 58.44-5.51 84.9-17.64 6.62 4.42 12.13 8.83 18.75 13.23l2.2 1.1c5.52 3.31 12.13 6.61 18.75 9.92h1.08a284.2 284.2 0 0 0 203.97 20.95h1.1c9.92-2.14 19.55-5.47 28.67-9.92l29.77-13.23a161.53 161.53 0 0 0 99.23 34.18c7.71 0 14.33-1.1 22.05-1.1l5.51-1.1c7.06-1.05 14.06-2.53 20.95-4.41 6.79-2.09 13.43-4.67 19.85-7.71l3.31-1.11c6.61-3.31 12.13-6.61 18.75-9.92 27.56-17.64 48.51-44.1 60.64-73.88 4.41-9.92 6.61-19.85 8.82-29.76v-3.31c1.1-4.41 1.1-8.83 2.2-13.23 0-5.51 1.1-11.02 1.1-16.53 0-72.77-45.2-135.62-112.5-156.57"/></svg>