<svg xmlns="http://www.w3.org/2000/svg" viewBox="0 0 32 32"><defs><linearGradient id="a" x1="35.535%" x2="51.434%" y1="8.331%" y2="54.004%"><stop offset="0%" stop-color="#03B8FF"/><stop offset="100%" stop-color="#FA52A0"/></linearGradient><linearGradient id="b" x1="36.509%" x2="55.516%" y1="13.616%" y2="64.593%"><stop offset="0%" stop-color="#03B8FF"/><stop offset="100%" stop-color="#FA52A0"/></linearGradient><linearGradient id="c" x1="28.725%" x2="47.793%" y1="-6.768%" y2="44.873%"><stop offset="0%" stop-color="#03B8FF"/><stop offset="100%" stop-color="#FA52A0"/></linearGradient></defs><g fill="none" fill-rule="evenodd"><circle cx="16" cy="16" r="16" fill="#FFF" fill-rule="nonzero"/><path fill="url(#a)" fill-rule="nonzero" d="m4.952 1.264 18.644 12.7-4.61 6.8L.34 7.964z" transform="translate(4 5)"/><path fill="url(#b)" fill-rule="nonzero" d="M23.596 13.964c-1.604 2.3-7.017 1.4-12.129-2.2-5.212-3.5-8.018-8.2-6.515-10.5 1.604-2.3 7.017-1.4 12.129 2.2 5.212 3.4 8.018 8.2 6.515 10.5" transform="translate(4 5)"/><path fill="url(#c)" fill-rule="nonzero" d="M18.985 20.664c-1.604 2.3-7.016 1.4-12.128-2.2s-8.02-8.2-6.415-10.6c1.603-2.3 7.016-1.4 12.128 2.2s7.919 8.3 6.415 10.6" transform="translate(4 5)"/><path fill="#0E0F23" fill-rule="nonzero" d="m27.596 18.964-4.61 6.8c-1.605 2.3-7.017 1.3-12.13-2.2-1.002-.7-1.904-1.4-2.806-2.2.702-.1 1.604-.5 2.506-1.5 1.604-1.7 2.406-2.1 3.107-2 .702 0 1.504.7 2.807 2.4s3.107 2.2 4.21 1.3c.1-.1.2-.1.3-.2.902-.7 1.203-1 2.907-4.2.401-.8 1.804-2.1 3.709-1.5q.751 1.95 0 3.3"/><path fill="#FFF" d="M26.894 18.564c-1.403 2-6.315 1-11.026-2.3-4.81-3.3-7.617-7.5-6.214-9.5s6.315-1 11.026 2.3 7.517 7.5 6.214 9.5m-4.41-3c-.702 1-3.107.5-5.513-1.1-2.305-1.6-3.709-3.7-3.007-4.7s3.107-.5 5.513 1.1c2.305 1.6 3.709 3.7 3.007 4.7"/><path fill="#FFF" fill-rule="nonzero" d="M8.551 8.564c0-.1-.1-.2-.2-.1s-.2.1-.2.2c.1.3.2.5.2.7 0 .1.1.2.2.1.1 0 .2-.1.1-.2 0-.2 0-.4-.1-.7m.501 1.6c0-.1-.1-.2-.2-.1s-.1.1-.1.2c1.102 2.5 3.408 5.2 6.415 7.2.1.1.2 0 .3 0 .1-.1 0-.2 0-.3-3.107-2-5.312-4.6-6.415-7m12.128 9.8c-.1 0-.2 0-.2.1s0 .2.1.2c.301.1.702.2 1.003.3.1 0 .2 0 .2-.1s0-.2-.1-.2c-.3-.1-.701-.2-1.002-.3zm1.805.4c-.1 0-.2.1-.2.2s.1.2.2.2c.802.1 1.704.2 2.406.1.1 0 .2-.1.2-.2s-.1-.2-.2-.2c-.802.1-1.604 0-2.406-.1"/></g></svg>