<svg xmlns="http://www.w3.org/2000/svg" viewBox="0 0 32 32"><defs><linearGradient id="a" x1="0%" x2="100%" y1="50%" y2="50%"><stop offset="0%" stop-color="#ED3438"/><stop offset="100%" stop-color="#F68E1D"/></linearGradient></defs><g fill="none" fill-rule="evenodd"><path fill="url(#a)" d="M0 16c0 8.837 7.164 16 16 16s16-7.163 16-16S24.836 0 16 0 0 7.163 0 16"/><path fill="#FFF" d="M20.743 9.512c-.569.022-1.062.198-1.432.65-.029.035-.065.065-.098.097-.33.318-.663.634-.99.955-.341.334-.677.673-1.016 1.01-.28.277-.565.552-.844.831-.292.293-.576.592-.87.883-.306.303-.623.596-.93.898-.374.366-.742.736-1.113 1.105l-2.054 2.04q-1.359 1.353-2.72 2.703c-.171.171-.177.195.003.376q.652.653 1.308 1.305c.267.268.582.45.955.516a2.36 2.36 0 0 0 1.066-.035c.258-.074.503-.18.7-.37l1.075-1.028c.252-.241.51-.477.759-.721.497-.488.989-.984 1.488-1.47.407-.399.822-.788 1.232-1.184q.842-.813 1.683-1.628.791-.768 1.584-1.534c.232-.224.448-.2.615.066.302.48.471 1.001.401 1.572-.058.482-.228.933-.566 1.29-.39.414-.805.805-1.21 1.204-.289.283-.583.56-.87.844q-.556.551-1.11 1.107c-.058.059-.111.123-.168.182q-.181.19-.366.374c-.274.271-.552.538-.823.812-.291.292-.576.59-.864.886l-.082.073-.93.9q-.215.212-.426.426c-.247.247-.498.488-.737.742-.144.152-.143.245.027.364.293.205.586.42.908.57.59.275 1.206.391 1.84.392h.013q.322 0 .652-.039a4.1 4.1 0 0 0 2.276-1.024c.477-.416.905-.888 1.354-1.336l.994-.995.935-.934c.286-.285.57-.573.857-.855.321-.315.65-.62.97-.937.326-.322.651-.647.965-.982.387-.416.574-.63.714-.836a4.57 4.57 0 0 0 .728-3.1 4.5 4.5 0 0 0-.684-1.787c-.199-.307-.301-.437-.906-1.034a171 171 0 0 1-2.67-2.675c-.43-.444-.926-.67-1.53-.67zm-4.693-3.8a5 5 0 0 0-.61.037 4.2 4.2 0 0 0-2.51 1.203c-.5.49-.988.989-1.482 1.482q-.38.38-.764.755-.405.393-.807.787c-.248.246-.49.498-.736.744-.384.382-.773.758-1.155 1.142-.297.3-.586.607-.88.91-.171.178-.356.344-.516.532-.696.816-1.025 1.768-1.035 3.034-.032.484.17 1.112.463 1.71.157.319.37.612.577.903.142.2.246.198.436.044q.052-.045.099-.096.277-.289.555-.575.405-.413.807-.826c.28-.29.556-.585.835-.876.134-.138.276-.268.409-.407.286-.298.565-.603.853-.899.282-.289.572-.568.854-.855.316-.322.623-.651.94-.971.29-.294.592-.576.882-.87.38-.386.75-.782 1.13-1.169.231-.236.472-.463.705-.698.317-.318.629-.643.947-.96.273-.272.556-.534.829-.806q.916-.912 1.83-1.828a1 1 0 0 0 .11-.123c.148-.183.16-.226-.023-.357-.29-.209-.583-.424-.905-.573a4.3 4.3 0 0 0-1.815-.395h-.023Z"/></g></svg>