<svg xmlns="http://www.w3.org/2000/svg" viewBox="0 0 32 32"><g fill="none"><circle cx="16" cy="16" r="16" fill="#FF4A4A"/><g fill="#FFF"><path d="M19.677 19.513h-1.1a.373.373 0 0 1-.374-.373v-2.898l-1.93 1.207a.5.5 0 0 1-.53 0l-1.93-1.207v2.898a.373.373 0 0 1-.374.373h-1.1a.373.373 0 0 1-.374-.373v-5.586a.499.499 0 0 1 .78-.41l3.052 2.084a.375.375 0 0 0 .423 0l3.05-2.084a.499.499 0 0 1 .781.41v5.586a.373.373 0 0 1-.374.373m-9.368-.05H3.496A.496.496 0 0 1 3 18.967v-5.596A.37.37 0 0 1 3.372 13h1.095a.37.37 0 0 1 .372.371v4.257h4.127v-4.257A.37.37 0 0 1 9.34 13h1.094a.37.37 0 0 1 .372.371v5.597a.496.496 0 0 1-.496.495M21.691 13h6.813a.496.496 0 0 1 .497.495v5.597a.37.37 0 0 1-.372.371h-1.095a.37.37 0 0 1-.373-.371v-4.01a.25.25 0 0 0-.248-.247h-3.63a.25.25 0 0 0-.249.247v4.01a.37.37 0 0 1-.372.371h-1.095a.37.37 0 0 1-.372-.371v-5.597a.496.496 0 0 1 .496-.495"/><path d="M24.178 16.401v1.102a.37.37 0 0 0 .372.369h1.095a.37.37 0 0 0 .372-.369v-1.102a.37.37 0 0 0-.372-.368H24.55a.37.37 0 0 0-.372.368"/></g></g></svg>