<svg xmlns="http://www.w3.org/2000/svg" xmlns:xlink="http://www.w3.org/1999/xlink" viewBox="0 0 32 32"><defs><radialGradient id="b" cx="50%" cy="50%" r="57.055%" fx="50%" fy="50%" gradientTransform="matrix(0 .87634 -1 0 1 .062)"><stop offset="0%" stop-color="#FF64A5"/><stop offset="100%" stop-color="#F7F8FA"/></radialGradient><circle id="a" cx="16" cy="16" r="16"/></defs><g fill="none" fill-rule="evenodd"><mask id="c" fill="#fff"><use xlink:href="#a"/></mask><use xlink:href="#a" fill="#FFF" fill-rule="nonzero"/><path fill="url(#b)" fill-rule="nonzero" d="M-7.885-25.737h61.846v70.572H-7.885z" mask="url(#c)" opacity=".196"/><g fill="#FF007A" fill-rule="nonzero"><path d="M15.882 14.308c.47.503-.582.658-1.076.687-.748.044-.903-.218-.756-.546a.64.64 0 0 1 .304-.304c.151-.08.338-.13.537-.142.196-.011.392.012.568.066s.322.136.423.239M19.024 13c-.452 3.779 5.64 2.992 5.525 6 .6-.854.86-3.174-.91-4.369-1.577-1.065-3.63-.482-4.615-1.631m3.041-.942-.13-.116z"/><path d="m24 14-.004-.006a3 3 0 0 0-.198-.325 1.6 1.6 0 0 0-.881-.628 3.6 3.6 0 0 0-.719-.118c-.245-.02-.496-.03-.75-.044-.507-.03-1.027-.084-1.534-.236a4 4 0 0 1-.752-.302 3.2 3.2 0 0 1-.659-.503c-.39-.382-.698-.816-1.006-1.237q-.435-.633-.932-1.214a4.3 4.3 0 0 0-1.143-.94A3.8 3.8 0 0 0 14 8.022a3.2 3.2 0 0 1 1.52.195 4 4 0 0 1 1.317.88q.373.368.699.783c1.612-.334 2.919-.037 3.924.538l.022.012a5 5 0 0 1 1.02.774 6 6 0 0 1 .597.668l.014.019c.593.79.886 1.612.887 2.11zm.002.004-.004-.008zM14.027 9c.368.053.744.197.986.471.242.275.331.633.4.973.058.263.103.532.208.782.051.122.126.228.189.343.052.096.146.182.182.284a.09.09 0 0 1-.01.09c-.129.14-.475-.015-.606-.078a2 2 0 0 1-.596-.447c-.525-.572-.796-1.396-.78-2.146A3 3 0 0 1 14.028 9zm6.115 7c-.977 2.605 3.457 4.352 1.796 7 1.704-.672 2.513-2.702 1.806-4.313-.619-1.414-2.448-1.929-3.602-2.687"/><path d="M15 20a3.6 3.6 0 0 1 .805-.48q.436-.183.898-.272c.61-.121 1.214-.151 1.721-.365a2.2 2.2 0 0 0 .68-.443c.193-.187.34-.42.431-.68a2.2 2.2 0 0 0 .11-.853 3.3 3.3 0 0 0-.199-.907c.226.247.39.548.48.877.088.33.098.676.028 1.01-.08.354-.25.678-.495.936-.241.25-.533.44-.853.557a3.5 3.5 0 0 1-.947.204c-.312.028-.613.035-.908.053A5.6 5.6 0 0 0 15 20m6 3.497c-.097.066-.193.135-.3.195a3 3 0 0 1-.335.158c-.242.1-.508.152-.778.15-.73-.012-1.245-.472-1.547-.993-.205-.355-.347-.738-.591-1.076-.35-.483-.947-.872-1.646-.8-.285.03-.553.139-.711.349-.417.548.182 1.317.945 1.208a1 1 0 0 0 .19-.044.7.7 0 0 0 .167-.087.66.66 0 0 0 .233-.285.57.57 0 0 0 .032-.362.5.5 0 0 0-.246-.31.58.58 0 0 1 .32.29c.06.132.075.276.044.415a.77.77 0 0 1-.218.392 1 1 0 0 1-.206.148q-.114.06-.242.098c-.172.05-.356.066-.536.047a1.6 1.6 0 0 1-.693-.255c-.236-.158-.411-.365-.625-.543a3 3 0 0 0-.851-.528 3.6 3.6 0 0 0-.686-.18 5 5 0 0 0-.359-.049c-.054-.005-.323-.055-.361-.026.37-.29.775-.546 1.207-.767a6.5 6.5 0 0 1 1.415-.514 4.7 4.7 0 0 1 1.583-.103q.412.043.796.175c.267.09.513.22.728.381.213.17.385.373.506.599q.166.317.244.657c.157.677.1 1.726 1.143 1.88q.082.015.165.02l.17.004q.177-.012.35-.043.358-.072.693-.2zm-5.987-.487-.026-.02z"/><path d="M14.967 12.754a1.1 1.1 0 0 1-.192.376 1.55 1.55 0 0 1-.64.463 2.6 2.6 0 0 1-.713.178q-.08.008-.162.014a.76.76 0 0 0-.427.15.7.7 0 0 0-.25.36 2 2 0 0 0-.04.216c-.025.188-.029.383-.05.62a3.5 3.5 0 0 1-.364 1.157c-.244.486-.518.879-.455 1.44.042.363.239.607.5.859.473.457 1.53.662 1.294 1.788-.142.673-1.32 1.378-2.976 1.625.164-.024-.211-.623-.235-.662-.177-.263-.372-.51-.513-.796-.276-.554-.405-1.194-.291-1.801.12-.639.618-1.128 1.033-1.616.494-.58 1.013-1.341 1.127-2.095.027-.182.046-.411.09-.638.04-.252.124-.496.246-.723q.127-.226.326-.397a.38.38 0 0 0 .081-.483l-2.64-4.494 3.791 4.429a.494.494 0 0 0 .726.015.29.29 0 0 0 .01-.383c-.247-.3-.509-.605-.763-.906l-.954-1.117L10.611 8.1 8 5l2.857 2.901 2.038 2.134 1.017 1.069c.338.36.675.707 1.012 1.085l.056.064.012.1q.024.203-.025.401m.266 10.481a2.4 2.4 0 0 1-.466-.47q.215.254.466.47"/></g></g></svg>