<svg xmlns="http://www.w3.org/2000/svg" xmlns:xlink="http://www.w3.org/1999/xlink" viewBox="0 0 32 32"><defs><circle id="c" cx="16" cy="16" r="16"/><path id="a" d="M0 0h8.125v16H0z"/></defs><g fill="none" fill-rule="evenodd"><circle cx="16" cy="16" r="16" fill="#FFF"/><path fill="#0E3CA5" fill-rule="nonzero" d="M14.487 23.51c.69 2.591 3.166 4.569 4.416 4.488.044-.003 4.744-.892 7.316-5.255 2.002-3.394 1.32-6.672-1.403-6.743-.98.072-11.644 2.574-10.329 7.511M16.853 4c-1.774 0-3.457.375-4.98 1.043q-.399.165-.776.376c-.173.09-.345.18-.512.278l.04.013A5.6 5.6 0 0 0 9.33 6.92c-3.521 4.591 8.282 7.928 14.592 7.94 2.904 2.056 3.72-5.792.882-7.97A12.3 12.3 0 0 0 16.853 4"/><path fill="#5493F7" fill-rule="nonzero" d="M12.417 6.692C10.821 9 5.503 10.628 4.629 10.374l-.004-.01.109-.208a12.5 12.5 0 0 1 3.791-4.258 13 13 0 0 1 1.016-.648c.743-.415 1.506-.44 1.757-.45 2.367.043 1.13 1.873 1.118 1.892"/><g transform="translate(3 12)"><mask id="b" fill="#fff"><use xlink:href="#a"/></mask><path fill="#5493F7" fill-rule="nonzero" d="M8.077 11.99c.12.758-.003 3.755-.163 4.008-.137.008-.424.025-1.254-.427a13.15 13.15 0 0 1-4.115-3.569A12.7 12.7 0 0 1 .672 8.485 12.4 12.4 0 0 1 0 4.435 12.4 12.4 0 0 1 .81 0h.003c.951 1.229 2.052 2.34 2.986 3.582.891 1.181 2.117 3.107 2.365 3.519 1.549 2.554 1.795 4.13 1.913 4.889" mask="url(#b)"/></g><path fill="#5493F7" fill-rule="nonzero" d="M29 16.576a12.5 12.5 0 0 1-.891 4.642c-1.507 1.6-11.669-2.339-11.77-2.382-1.389-.601-5.62-2.432-6.001-5.307-.55-4.137 7.948-7.02 11.682-7.129.447.005 1.81.02 2.604.659A12.54 12.54 0 0 1 29 16.575m-8.886 10.232c.607-2.118 5.92-4.288 7.093-4.406.145-.014.206.086.143.201-1.224 2.19-3.035 3.994-5.226 5.163-1.108.53-2.328.144-2.01-.958"/><mask id="d" fill="#fff"><use xlink:href="#c"/></mask><use xlink:href="#c" fill="#FFF" fill-opacity="0"/><g mask="url(#d)"><g transform="translate(11 17)"><rect width="22" height="1" x="1" fill="#DB2D2D" rx=".5"/><path fill="#FCFCFB" d="M0 1h23v1H0z"/><path fill="#DB2D2D" d="M0 2h23v1H0z"/><path fill="#FCFCFB" d="M0 3h23v1H0z"/><path fill="#DB2D2D" d="M0 4h23v1H0z"/><path fill="#FCFCFB" d="M0 5h23v1H0z"/><path fill="#DB2D2D" d="M0 6h23v1H0z"/><path fill="#FCFCFB" d="M0 7h23v1H0z"/><path fill="#DB2D2D" d="M0 8h23v1H0z"/><path fill="#FCFCFB" d="M0 9h23v1H0z"/><path fill="#DB2D2D" d="M0 10h23v1H0z"/><rect width="23" height="2" y="11" fill="#DB2D2D" rx="1"/><path fill="#1639B7" d="M1 0h9.3v7H0V1a1 1 0 0 1 1-1"/><path fill="#FEF9F7" d="m1 1.175-.294.23.128-.35-.31-.21.373.013L1 .5l.103.358.373-.013-.31.21.128.35zm0 1.667-.294.23.128-.351-.31-.209.373.013L1 2.167l.103.358.373-.013-.31.209.128.35zm.833-.834-.294.23.128-.35-.31-.21.373.014.103-.359.103.359.373-.013-.31.208.128.35zm1.667 0-.294.23.128-.35-.31-.21.373.014.103-.359.103.359.373-.013-.31.208.128.35zm1.667 0-.294.23.127-.35-.309-.21.373.014.103-.359.103.359.372-.013-.309.208.128.35zm1.666 0-.294.23.128-.35-.31-.21.373.014.103-.359.103.359.373-.013-.31.208.128.35zm1.667 0-.294.23.128-.35-.31-.21.373.014.103-.359.103.359.373-.013-.31.208.128.35zM1.833 3.675l-.294.23.128-.35-.31-.21.373.013L1.833 3l.103.358.373-.013-.31.21.128.35zm1.667 0-.294.23.128-.35-.31-.21.373.013L3.5 3l.103.358.373-.013-.31.21.128.35zm1.667 0-.294.23.127-.35-.309-.21.373.013L5.167 3l.103.358.372-.013-.309.21.128.35zm1.666 0-.294.23.128-.35-.31-.21.373.013L6.833 3l.103.358.373-.013-.31.21.128.35zm1.667 0-.294.23.128-.35-.31-.21.373.013L8.5 3l.103.358.373-.013-.31.21.128.35zm-5.833-2.5-.294.23.127-.35-.309-.21.373.013L2.667.5l.103.358.372-.013-.309.21.128.35zm0 1.667-.294.23.127-.351-.309-.209.373.013.103-.358.103.358.372-.013-.309.209.128.35zm1.666-1.667-.294.23.128-.35-.31-.21.373.013L4.333.5l.103.358.373-.013-.31.21.128.35zm0 1.667-.294.23.128-.351-.31-.209.373.013.103-.358.103.358.373-.013-.31.209.128.35zM6 1.175l-.294.23.128-.35-.31-.21.373.013L6 .5l.103.358.373-.013-.31.21.128.35zm0 1.667-.294.23.128-.351-.31-.209.373.013L6 2.167l.103.358.373-.013-.31.209.128.35zm1.667-1.667-.294.23.127-.35-.309-.21.373.013L7.667.5l.103.358.372-.013-.309.21.128.35zm0 1.667-.294.23.127-.351-.309-.209.373.013.103-.358.103.358.372-.013-.309.209.128.35zm1.666-1.667-.294.23.128-.35-.31-.21.373.013L9.333.5l.103.358.373-.013-.31.21.128.35zm0 1.667-.294.23.128-.351-.31-.209.373.013.103-.358.103.358.373-.013-.31.209.128.35zM1 4.508l-.294.23.128-.35-.31-.21.373.014L1 3.833l.103.359.373-.013-.31.208.128.35zm.833.834-.294.23.128-.351-.31-.209.373.013.103-.358.103.358.373-.013-.31.209.128.35zm1.667 0-.294.23.128-.351-.31-.209.373.013.103-.358.103.358.373-.013-.31.209.128.35zm1.667 0-.294.23L5 5.22l-.309-.209.373.013.103-.358.103.358.372-.013-.309.209.128.35zm1.666 0-.294.23.128-.351-.31-.209.373.013.103-.358.103.358.373-.013-.31.209.128.35zm1.667 0-.294.23.128-.351-.31-.209.373.013.103-.358.103.358.373-.013-.31.209.128.35zm-5.833-.834-.294.23.127-.35-.309-.21.373.014.103-.359.103.359.372-.013-.309.208.128.35zm1.666 0-.294.23.128-.35-.31-.21.373.014.103-.359.103.359.373-.013-.31.208.128.35zm1.667 0-.294.23.128-.35-.31-.21.373.014L6 3.833l.103.359.373-.013-.31.208.128.35zm1.667 0-.294.23.127-.35-.309-.21.373.014.103-.359.103.359.372-.013-.309.208.128.35zm1.666 0-.294.23.128-.35-.31-.21.373.014.103-.359.103.359.373-.013-.31.208.128.35zM1 6.175l-.294.23.128-.35-.31-.21.373.013L1 5.5l.103.358.373-.013-.31.21.128.35zm1.667 0-.294.23.127-.35-.309-.21.373.013.103-.358.103.358.372-.013-.309.21.128.35zm1.666 0-.294.23.128-.35-.31-.21.373.013.103-.358.103.358.373-.013-.31.21.128.35zm1.667 0-.294.23.128-.35-.31-.21.373.013L6 5.5l.103.358.373-.013-.31.21.128.35zm1.667 0-.294.23.127-.35-.309-.21.373.013.103-.358.103.358.372-.013-.309.21.128.35zm1.666 0-.294.23.128-.35-.31-.21.373.013.103-.358.103.358.373-.013-.31.21.128.35z"/><path fill="#FCFCFB" d="M0 11h23v1H0z"/></g></g></g></svg>