<svg xmlns="http://www.w3.org/2000/svg" viewBox="0 0 32 32"><g fill="none" fill-rule="evenodd"><circle cx="16" cy="16" r="16" fill="#FFF" fill-rule="nonzero"/><path fill="#F09242" d="M18.723 13.785c0 1.77-2.761 1.555-3.637 1.555v-3.119c.877 0 3.637-.277 3.637 1.564m.721 4.842c0 1.934-3.307 1.713-4.361 1.713v-3.426c1.054 0 4.361-.306 4.361 1.72m2.179-5.54c-.177-1.856-1.766-2.47-3.777-2.663V7.886H16.3v2.494c-.41 0-.827 0-1.243.016v-2.51h-1.553v2.56h-3.15v1.666s1.148-.02 1.131 0a.8.8 0 0 1 .883.685v7.012a.55.55 0 0 1-.583.516c.02.018-1.131 0-1.131 0l-.307 1.86h3.137v2.609h1.555v-2.57h1.24v2.553h1.555v-2.573c2.625-.153 4.449-.808 4.685-3.27.186-1.984-.744-2.868-2.23-3.222.903-.46 1.47-1.272 1.336-2.622"/><path fill="#CECDD1" fill-rule="nonzero" d="M7.567 6.643a12.5 12.5 0 0 1 11.825-2.75l.178.051q.133.04.264.083.19.06.374.128l.123.044q.251.092.499.196l.02.01a14.1 14.1 0 0 1 3.606 2.246l.685-.74c-.092-.092-.188-.176-.281-.264a13.57 13.57 0 0 0-8.51-3.307h-.537a14 14 0 0 0-3.017.368l-.203.049-.169.044c-.986.265-1.94.64-2.841 1.119-.988.53-1.887 1.21-2.665 2.017zm-.867.861-.752-.658c-5.1 5.345-4.357 14.042 0 18.187l.767-.6a12.52 12.52 0 0 1-.014-16.93zm19.673-.326a9 9 0 0 0-.362-.359l-.659.722c3.867 4.392 4.683 11.365.122 16.733l.64.775a13.62 13.62 0 0 0 .265-17.87zM24.506 25.3q-.667.498-1.33.92a12.5 12.5 0 0 1-5.415 2.16 11.2 11.2 0 0 1-3.016.071 12.5 12.5 0 0 1-6.862-2.896l-.307-.223-.707.634c2.474 2.444 5.866 3.62 9.205 3.618h.256a13.57 13.57 0 0 0 8.452-3.242c.107-.101.216-.201.319-.307z"/><path fill="#5E5F5F" fill-rule="nonzero" d="M15.994 1.074a14.926 14.926 0 1 1-14.92 14.92c.013-8.235 6.685-14.907 14.92-14.92m0-1.074C7.157.003-.003 7.17 0 16.006S7.17 32.003 16.006 32 32.003 24.83 32 15.994A16 16 0 0 0 15.994 0"/></g></svg>