<svg xmlns="http://www.w3.org/2000/svg" viewBox="0 0 32 32"><g fill="none"><circle cx="16" cy="16" r="16" fill="#FFF"/><path fill="#000" d="m24.557 8.75-2.882 1.469-13.917 7.088a8.29 8.29 0 0 1 12.262-8.31l1.65-.84.246-.126A10.127 10.127 0 0 0 5.87 16.998a1.84 1.84 0 0 1-1 1.78l-.87.444v2.07l2.561-1.306.83-.423.817-.417 14.671-7.475 1.649-.84 3.407-1.736V7.027zm3.378 2.415-18.894 9.62-1.649.841L4 23.355v2.067l3.37-1.717 2.881-1.468 13.931-7.099a8.29 8.29 0 0 1-12.274 8.316l-.101.054-1.789.911a10.127 10.127 0 0 0 16.047-8.969 1.84 1.84 0 0 1 1-1.78l.87-.444z"/></g></svg>