<svg xmlns="http://www.w3.org/2000/svg" viewBox="0 0 20 20"><circle cx="10" cy="10" r="10" fill="#2C7DF7"/><path fill="#FFF" d="M11.582 16.25q-1.346 0-1.962-.644-.616-.645-.616-1.39 0-.27.108-.457a.8.8 0 0 1 .293-.294.9.9 0 0 1 .458-.107q.272 0 .459.107.186.108.293.294a.9.9 0 0 1 .107.458q0 .33-.157.537a.73.73 0 0 1-.372.272q.186.258.587.365a3 3 0 0 0 .802.114q.557 0 1.01-.3.45-.3.665-.888a3.9 3.9 0 0 0 .215-1.332q0-.809-.237-1.381-.228-.58-.68-.86a1.8 1.8 0 0 0-.973-.279q-.344 0-.86.287l-.63.315v-.315l2.836-3.78H9.004v3.923q0 .486.215.802.215.315.659.315.343 0 .658-.23c.212-.154.396-.342.544-.558a.2.2 0 0 1 .072-.093.14.14 0 0 1 .093-.036q.08 0 .186.08a.4.4 0 0 1 .1.264q-.012.1-.035.2-.244.545-.673.83a1.67 1.67 0 0 1-.945.287q-1.275 0-1.761-.5-.487-.502-.487-1.361V6.972H5.625v-.73H7.63V4.58l-.458-.459V3.75h1.331l.501.258V6.24l5.184-.014.515.516-3.179 3.178a2.2 2.2 0 0 1 .602-.143q.515 0 1.16.33.651.321 1.002.887.351.558.45 1.074.108.516.108.916a3.8 3.8 0 0 1-.386 1.704q-.387.788-1.174 1.174a3.8 3.8 0 0 1-1.704.387z"/></svg>