<svg xmlns="http://www.w3.org/2000/svg" viewBox="0 0 32 32"><g fill="none"><path fill="#006AE3" d="M0 16C0 7.163 7.163 0 16 0s16 7.163 16 16-7.163 16-16 16S0 24.837 0 16"/><path fill="#FFF" d="M15.34 22.746V9.434h1.449v13.312z"/><path fill="#FFF" d="m22.718 13.869-4.477 1.187-.998-4.646 1.331-.301.525 2.201s1.21-1.984-.403-4.038c-.95-1.056-1.402-1.1-2.467-1.267-.938-.135-3.117.182-3.766 2.726-.276 1.639.035 2.851 2.147 4.439l-.119 1.766s-2.358-1.66-2.966-2.826c-.47-.921-1.277-2.742.18-5.276.783-1.268 2.329-2.484 5.052-2.356 1.37.058 4.713 1.732 4.194 5.642-.09.733-.47 1.709-.47 1.709l1.837-.41zm-2.557 10.416c-.819 1.245-2.396 2.42-5.113 2.22-1.37-.092-4.665-1.855-4.044-5.75.108-.73.515-1.692.515-1.692l-1.846.358-.362-1.456 4.508-1.069.877 4.672-1.34.266-.468-2.218s-1.26 1.949.295 4.048c.921 1.082 1.37 1.136 2.435 1.331.93.16 3.12-.102 3.836-2.627.317-1.629.038-2.851-2.029-4.496l.167-1.763s2.313 1.722 2.89 2.902c.44.938 1.199 2.781-.32 5.274z"/></g></svg>