<svg xmlns="http://www.w3.org/2000/svg" xml:space="preserve" id="Isolation_Mode" x="0" y="0" version="1.1" viewBox="0 0 60 60"><style>.st0{fill:#b9b9b9}</style><path d="M35.3 21.9 53.1 4.1c.8-.8 2-.8 2.8 0s.8 2 0 2.8L38.1 24.7c-.8.8-2 .8-2.8 0-.7-.8-.7-2.1 0-2.8" class="st0"/><path d="M48.3 22.5h-8.8c-1.1 0-2-.8-2-2v-8.8c0-.6-.2-1.1-.6-1.4-.8-.8-2-.8-2.8 0-.4.4-.6.8-.6 1.4l-.1 12.8c0 1.1.8 2 2 2l12.8-.1c1.1 0 2-.8 2-2 0-.6-.2-1.1-.6-1.4-.2-.3-.7-.5-1.3-.5M24.7 38.1 6.9 55.9c-.8.8-2 .8-2.8 0s-.8-2 0-2.8l17.8-17.8c.8-.8 2-.8 2.8 0 .7.8.7 2.1 0 2.8" class="st0"/><path d="M11.7 37.5h8.8c1.1 0 2 .8 2 2v8.8c0 .6.2 1.1.6 1.4.8.8 2 .8 2.8 0 .4-.4.6-.8.6-1.4l.1-12.8c0-1.1-.8-2-2-2l-12.8.1c-1.1 0-2 .8-2 2 0 .6.2 1.1.6 1.4.2.3.7.5 1.3.5" class="st0"/></svg>