<svg xmlns="http://www.w3.org/2000/svg" xml:space="preserve" id="Isolation_Mode" x="0" y="0" version="1.1" viewBox="0 0 60 60"><style>.st0{fill:#b9b9b9}</style><path d="M54.7 8.1 36.9 25.9c-.8.8-2 .8-2.8 0s-.8-2 0-2.8L51.9 5.3c.8-.8 2-.8 2.8 0 .7.8.7 2.1 0 2.8" class="st0"/><path d="M41.7 7.5h8.8c1.1 0 2 .8 2 2v8.8c0 .6.2 1.1.6 1.4.8.8 2 .8 2.8 0 .4-.4.6-.8.6-1.4l.1-12.8c0-1.1-.8-2-2-2l-12.9.1c-1.1 0-2 .8-2 2 0 .6.2 1.1.6 1.4s.9.5 1.4.5M5.3 51.9l17.8-17.8c.8-.8 2-.8 2.8 0s.8 2 0 2.8L8.1 54.7c-.8.8-2 .8-2.8 0-.7-.8-.7-2.1 0-2.8" class="st0"/><path d="M18.3 52.5H9.5c-1.1 0-2-.8-2-2v-8.8c0-.6-.2-1.1-.6-1.4-.8-.8-2-.8-2.8 0-.4.4-.6.8-.6 1.4v12.8c0 1.1.8 2 2 2l12.8-.1c1.1 0 2-.8 2-2 0-.6-.2-1.1-.6-1.4s-.9-.5-1.4-.5" class="st0"/></svg>