<svg xmlns="http://www.w3.org/2000/svg" xml:space="preserve" id="Isolation_Mode" x="0" y="0" version="1.1" viewBox="0 0 60 60"><style>.st0{fill:#df4249}</style><path d="M12.3 15.2h35.4c1.1 0 2 .9 2 2s-.9 2-2 2H12.3c-1.1 0-2-.9-2-2s.9-2 2-2" class="st0"/><path d="m21.1 24.9-6.3-6.3c-.8-.8-.8-2 0-2.8l6.3-6.3c.4-.4.6-.9.6-1.4 0-1.1-.9-2-2-2-.5 0-1 .2-1.4.6l-9.2 9.1c-.8.8-.8 2 0 2.8l9.2 9.1c.8.8 2 .8 2.8 0 .4-.4.6-.9.6-1.4s-.2-1-.6-1.4m26.6 19.9H12.3c-1.1 0-2-.9-2-2s.9-2 2-2h35.4c1.1 0 2 .9 2 2s-.9 2-2 2" class="st0"/><path d="m38.9 35.1 6.3 6.3c.8.8.8 2 0 2.8l-6.3 6.3c-.4.4-.6.9-.6 1.4 0 1.1.9 2 2 2 .5 0 1-.2 1.4-.6l9.2-9.2c.8-.8.8-2 0-2.8l-9.2-9.2c-.8-.8-2-.8-2.8 0-.4.4-.6.9-.6 1.4 0 .7.2 1.2.6 1.6" class="st0"/></svg>