<svg xmlns="http://www.w3.org/2000/svg" width="144" height="16" fill="none" viewBox="0 0 144 16"><path fill="#003B2F" d="M77.031 12.837V1.247h7.399V2.37h-5.985v4.415h5.433v1.12h-5.433v4.933zm8.517-2.31c0-1.76 1.448-2.777 3.829-2.777.586 0 1.224.069 1.879.241V7.13c0-1.07-.827-1.828-2.052-1.828-.897 0-1.811.206-2.777.62l-.379-1c1.173-.448 2.242-.673 3.311-.673 1.897 0 3.208 1.173 3.208 2.915v4.053c0 .466.276.76.759.76.138 0 .345-.035.448-.053l.104 1.035a5 5 0 0 1-.897.086c-.914 0-1.5-.534-1.604-1.397-.672.88-1.759 1.397-2.915 1.397-1.655 0-2.914-1.086-2.914-2.518m1.345-.087c0 .914.811 1.604 1.897 1.604 1.449 0 2.466-1.035 2.466-2.518v-.707a7.5 7.5 0 0 0-1.724-.207c-1.656 0-2.639.69-2.639 1.828m7.987-3.846c0-1.362 1.259-2.346 3.053-2.346.879 0 1.845.19 2.828.587l-.31 1.017c-.862-.362-1.69-.551-2.415-.551-1.086 0-1.793.517-1.793 1.293 0 2.07 4.794.828 4.794 4.036 0 1.414-1.259 2.414-3.104 2.414-.966 0-2.018-.207-3.122-.638l.328-1.017c.966.396 1.88.603 2.69.603 1.121 0 1.863-.552 1.863-1.362 0-2.122-4.812-.897-4.812-4.036m10.271-4.622v2.483h2.638v1.087h-2.638v4.933c0 .862.586 1.448 1.448 1.448.363 0 .759-.069 1.19-.172l.19 1.07a6.5 6.5 0 0 1-1.673.223c-1.5 0-2.518-1-2.518-2.449V5.542h-1.742V4.455h1.742V1.972zm5.094 10.865V1.247h4.363c2.26 0 3.881 1.501 3.881 3.64 0 2.121-1.621 3.621-3.881 3.621h-2.983v4.33zm1.38-10.468v5.018h2.776c1.57 0 2.691-1.034 2.691-2.5s-1.121-2.518-2.691-2.518zm8.349 8.157c0-1.759 1.449-2.776 3.829-2.776.586 0 1.224.069 1.88.241V7.13c0-1.07-.828-1.828-2.053-1.828-.897 0-1.811.206-2.776.62l-.38-1c1.173-.448 2.242-.673 3.312-.673 1.897 0 3.207 1.173 3.207 2.915v4.053c0 .466.276.76.759.76.138 0 .345-.035.449-.053l.103 1.035a5 5 0 0 1-.897.086c-.914 0-1.5-.534-1.604-1.397-.672.88-1.759 1.397-2.914 1.397-1.656 0-2.915-1.086-2.915-2.518m1.345-.086c0 .914.811 1.604 1.897 1.604 1.449 0 2.467-1.035 2.467-2.518V8.82a7.5 7.5 0 0 0-1.725-.207c-1.656 0-2.639.69-2.639 1.828m7.987-3.846c0-1.362 1.259-2.346 3.053-2.346.88 0 1.846.19 2.829.587l-.311 1.017c-.862-.362-1.69-.551-2.414-.551-1.087 0-1.794.517-1.794 1.293 0 2.07 4.795.828 4.795 4.036 0 1.414-1.259 2.414-3.105 2.414-.966 0-2.018-.207-3.122-.638l.328-1.017c.966.396 1.88.603 2.691.603 1.121 0 1.862-.552 1.862-1.362 0-2.122-4.812-.897-4.812-4.036m7.748 0c0-1.362 1.259-2.346 3.053-2.346.879 0 1.845.19 2.828.587l-.31 1.017c-.863-.362-1.69-.551-2.415-.551-1.086 0-1.794.517-1.794 1.293 0 2.07 4.795.828 4.795 4.036 0 1.414-1.259 2.414-3.104 2.414-.966 0-2.018-.207-3.122-.638l.328-1.017c.966.396 1.88.603 2.69.603 1.121 0 1.863-.552 1.863-1.362 0-2.122-4.812-.897-4.812-4.036M10.839 9.25c0-1.361-.795-2.457-2.068-2.899.971-.442 1.644-1.362 1.644-2.546 0-1.856-1.556-3.147-3.766-3.147H.344v1.574a1.795 1.795 0 0 1 0 3.589v1.415a1.794 1.794 0 1 1 0 3.588v1.715h6.588c2.263 0 3.907-1.344 3.907-3.289M3.732 2.372H6.33c1.061 0 1.821.69 1.821 1.663 0 .972-.76 1.644-1.821 1.644H3.732zm0 8.452V7.236h2.829c1.166 0 1.962.724 1.962 1.785s-.795 1.804-1.962 1.804zM13.402.04c.795 0 1.361.566 1.361 1.36s-.566 1.362-1.36 1.362c-.797 0-1.345-.566-1.345-1.361 0-.796.565-1.36 1.344-1.36m-1.13 3.837h2.261v8.662h-2.262zm6.643-.002h2.405V5.59h-2.405v4.137c0 .66.525 1.212 1.185 1.22q.518.005 1.15-.16l.298 1.698a8 8 0 0 1-1.962.265c-1.732 0-2.933-1.132-2.933-2.794V1.893c0-.31.251-.562.562-.562h1.7zm6.982-.211c1.008 0 2.085.212 3.182.6l-.495 1.627c-.866-.336-1.732-.549-2.51-.549s-1.343.37-1.343.938c0 1.572 4.632.423 4.632 3.782 0 1.573-1.416 2.687-3.466 2.687-1.061 0-2.226-.23-3.446-.69l.476-1.609c1.008.407 1.962.62 2.794.62.83 0 1.414-.407 1.414-1.008 0-1.644-4.613-.495-4.613-3.782 0-1.522 1.378-2.617 3.376-2.617m7.065.212h2.405V5.59h-2.405v4.137c0 .66.525 1.212 1.185 1.22q.517.005 1.149-.16l.3 1.698a8 8 0 0 1-1.962.265c-1.732 0-2.934-1.132-2.934-2.794V1.9a.57.57 0 0 1 .569-.57h1.692v2.547zm14.367 0h1.802l.282 1.185c.69-.903 1.698-1.397 2.846-1.397 1.256 0 2.281.6 2.776 1.59.794-1.025 1.873-1.59 3.13-1.59 1.891 0 3.234 1.308 3.234 3.164v5.71h-2.263V7.18c0-.971-.689-1.66-1.679-1.66-1.149 0-1.962.866-1.962 2.103v4.914h-2.264V7.18c0-.971-.689-1.66-1.662-1.66-1.166 0-1.98.866-1.98 2.103v4.914h-2.262zm15.941 0h1.803l.283 1.114c.637-.849 1.626-1.326 2.776-1.326 2.334 0 3.978 1.875 3.978 4.544 0 2.67-1.644 4.542-3.978 4.542-1.062 0-1.98-.423-2.599-1.202v3.855a.564.564 0 0 1-.564.563h-1.699zm4.279 1.573c-1.202 0-2.05.903-2.05 2.175V8.79c0 1.255.848 2.174 2.05 2.174 1.326 0 2.262-1.15 2.262-2.757s-.937-2.759-2.262-2.759m-22.262 5.665h-2.263v.436c-.619.778-1.539 1.202-2.599 1.202-2.333 0-3.978-1.873-3.978-4.543s1.645-4.544 3.978-4.544c1.15 0 2.139.478 2.776 1.326l.283-1.114h1.803zM41.009 5.45c-1.327 0-2.262 1.13-2.262 2.758s.937 2.758 2.262 2.758c1.202 0 2.05-.92 2.05-2.175V7.626c0-1.272-.848-2.175-2.05-2.175"/></svg>