<svg xmlns="http://www.w3.org/2000/svg" width="321" height="160" fill="none" viewBox="0 0 321 160"><g clip-path="url(#a)"><path fill="#03FC9D" d="M171.222 90.728q.275-2.765.277-5.602c0-31.074-25.19-56.264-56.263-56.264s-56.264 25.19-56.264 56.264q.002 2.837.277 5.602z" opacity=".45"/><path fill="#003B2F" d="M296.072 90.728c.342-1.815.522-3.688.522-5.602 0-16.634-13.484-30.118-30.117-30.118s-30.118 13.485-30.118 30.118c0 1.914.181 3.786.522 5.602z" opacity=".15"/><path fill="#03FC9D" d="M243.267 90.728a11.3 11.3 0 0 0 1.483-5.602c0-6.262-5.077-11.338-11.338-11.338s-11.338 5.076-11.338 11.338c0 2.038.541 3.95 1.483 5.602zm-212.643 0a10.1 10.1 0 0 0 1.683-5.602c0-5.616-4.553-10.17-10.169-10.17S11.97 79.51 11.97 85.127c0 2.07.62 3.996 1.684 5.602z" opacity=".45"/><path fill="#003B2F" d="M67.621 90.728a7.989 7.989 0 1 0-11.385 0zm127.233.001c.542-1.772.835-3.653.835-5.603 0-10.556-8.557-19.114-19.114-19.114s-19.114 8.558-19.114 19.114c0 1.95.292 3.831.835 5.603z" opacity=".15"/><path fill="#003B2F" d="M304.724 202.462a809 809 0 0 1-40.146-2.366 768 768 0 0 1-40.393-4.473q-6.612-.913-13.174-1.945a650 650 0 0 1-12.905-2.165 612 612 0 0 1-12.557-2.369 574 574 0 0 1-12.134-2.555 528 528 0 0 1-11.643-2.722 460 460 0 0 1-11.089-2.885q-2.687-.735-5.318-1.493-2.608-.75-5.158-1.518l-2.517-.776q-1.245-.387-2.476-.777-1.224-.388-2.433-.783-1.203-.393-2.388-.794-.593-.195-1.179-.394-.585-.199-1.166-.399l-1.153-.401-1.145-.397q-.286-.099-.569-.201l-.564-.203-.561-.205-.559-.201-.556-.2-.554-.201a52 52 0 0 1-1.098-.408 247 247 0 0 1-8.368-3.271 206 206 0 0 1-7.604-3.309 169 169 0 0 1-6.828-3.322 134 134 0 0 1-7.445-4.129 113 113 0 0 1-2.64-1.638 98 98 0 0 1-2.455-1.624 81 81 0 0 1-2.275-1.605 76 76 0 0 1-1.068-.796 72 72 0 0 1-1.998-1.581 64 64 0 0 1-1.829-1.56 54 54 0 0 1-1.662-1.538 47 47 0 0 1-1.503-1.513 39 39 0 0 1-2.54-2.953 30 30 0 0 1-1.964-2.851 25 25 0 0 1-1.443-2.745 21 21 0 0 1-.971-2.638 18 18 0 0 1-.546-2.529 17 17 0 0 1-.163-2.419 16 16 0 0 1 .182-2.31 17 17 0 0 1 .485-2.195q.308-1.056.75-2.079.433-.998.982-1.961a22 22 0 0 1 1.18-1.842q.626-.882 1.347-1.725.706-.825 1.493-1.61a32 32 0 0 1 1.613-1.496q.825-.713 1.711-1.386.87-.66 1.795-1.28l.46-.304.475-.305.709-.456.173-.113.171-.114.17-.113.17-.112q.336-.227.66-.452.323-.226.636-.451a44 44 0 0 0 1.195-.899 30 30 0 0 0 1.086-.898 21 21 0 0 0 .966-.897l.114-.112.109-.113.213-.224a2 2 0 0 0 .105-.113l.05-.056.05-.056.198-.224.185-.226.09-.112.023-.028.023-.028.022-.028.02-.029.169-.225.08-.112.077-.113.15-.225.034-.057.034-.056.033-.057.033-.056.066-.112.033-.057.029-.056.115-.226.028-.055.026-.057.025-.056.024-.057.024-.056.024-.056.024-.056.022-.056.08-.225.036-.111.031-.112.015-.056.014-.056.014-.056.014-.055.04-.224.005-.027.004-.028.005-.028.004-.028.01-.111.005-.056.005-.054.003-.055.003-.055.001-.11v-.11a2 2 0 0 0-.013-.218l-.01-.109-.007-.054-.009-.054-.04-.215a1 1 0 0 0-.026-.108l-.03-.106-.03-.105-.038-.106-.02-.052-.02-.053-.02-.052-.022-.052-.098-.206-.025-.052-.028-.05-.058-.102-.059-.101-.015-.025-.017-.025q-.007-.013-.017-.025l-.016-.026-.034-.05-.033-.049-.034-.05-.036-.048-.15-.195a6.5 6.5 0 0 0-1.144-1.09 10 10 0 0 0-.951-.646 11 11 0 0 0-.515-.298 13 13 0 0 0-.538-.282q-.136-.069-.274-.136l-.277-.131q-.14-.065-.281-.128a34 34 0 0 0-.569-.244q-.142-.06-.286-.117l-.288-.114a28 28 0 0 0-.868-.322l-.072-.026-.072-.025-.072-.026-.073-.025-.288-.099-.288-.096-.144-.047-.144-.046-.144-.047-.143-.045-.142-.044-.143-.045-.284-.086-.142-.043-.141-.041-.561-.163-.278-.079-.275-.076-.274-.076-.272-.073-.27-.072-.267-.07a109 109 0 0 0-2.057-.517l-.969-.233-.925-.22-.88-.208-.832-.199a146 146 0 0 1-1.513-.374 56 56 0 0 1-1.293-.348 29 29 0 0 1-1.055-.324 13 13 0 0 1-.804-.3 6 6 0 0 1-.31-.142 4 4 0 0 1-.277-.153l-.026-.016-.026-.017-.026-.016-.046-.033-.007-.004-.006-.004-.005-.004-.006-.004-.02-.016q-.023-.015-.042-.032-.02-.014-.038-.032l-.034-.032-.032-.031-.03-.031-.006-.008-.006-.008-.006-.008-.007-.008-.013-.015-.003-.004-.002-.004-.003-.004-.003-.004-.022-.031-.016-.03-.002-.005-.002-.004-.003-.004-.002-.004-.006-.015-.014-.031-.002-.008-.003-.008-.002-.008-.003-.007q0-.005-.003-.008l-.002-.008v-.008l-.002-.008-.001-.007-.002-.008-.001-.008-.002-.008v-.015l-.001-.016v-.032l.001-.031.006-.032.008-.032.01-.033a.7.7 0 0 1 .068-.133 1 1 0 0 1 .108-.138h-.022V-48.191H64.79v138.92h.022a2 2 0 0 0-.134.158 1 1 0 0 0-.09.155l-.012.038-.012.039-.009.037-.004.038-.003.019v.056l.001.01.001.009.002.009v.009l.002.009.001.01.002.008q0 .005.003.01l.008.036.014.038.006.018.003.005.002.005.003.004.002.005.018.036.023.037.003.004q0 .002.003.005l.002.004.004.005.014.018.007.01.006.009.007.009.007.009.033.037.035.037.038.037.041.037.046.038.023.019.007.004.006.005.007.004.006.005.05.038.03.018.028.02.029.019q.015.008.03.02.123.075.276.155.153.079.336.16.184.08.4.163a15 15 0 0 0 .985.341 34 34 0 0 0 1.223.359 57 57 0 0 0 1.439.377 117 117 0 0 0 1.632.404l.882.214.921.224q.473.115.96.236a131 131 0 0 1 2.279.59l.262.07.264.074a38 38 0 0 1 .532.15l.268.078.27.08.27.081.068.02.068.021.068.021.068.021.272.085.136.044.137.044.137.044.136.045.138.046.068.022.069.023.274.094.273.096.069.025.068.025.07.025.068.025.545.206.272.106a19 19 0 0 1 .537.223 26 26 0 0 1 .53.236q.132.06.261.122l.258.126a15 15 0 0 1 .985.54 12 12 0 0 1 .68.443 9 9 0 0 1 .607.478 6 6 0 0 1 .818.866l.13.183.03.046.03.046.028.047.043.07.014.023.028.047.049.095.048.095.023.048.022.048.079.193.017.05.017.049.015.049.015.049.03.099.022.099.011.049.01.051.019.1.025.202.006.05.002.051.003.101a2 2 0 0 1 0 .205l-.007.102-.007.104-.005.051-.008.051-.008.052-.007.052-.016.104-.012.051-.006.026-.006.026-.05.209-.067.209-.035.105-.042.104-.087.211-.024.052-.025.053-.026.052-.026.053-.026.053-.027.053-.027.053-.03.052-.121.211-.03.054-.034.052-.069.106-.035.053-.034.053-.036.053-.037.053-.153.211-.078.107-.084.105-.171.212-.043.053-.046.052-.047.053-.046.053-.188.212-.2.211-.05.053-.051.053a2 2 0 0 1-.105.106l-.216.211-.108.106-.115.105q-.227.213-.47.423a23 23 0 0 1-1.026.848 34 34 0 0 1-1.744 1.274 42 42 0 0 1-1.454.962l-.169.107-.17.108-.172.108-.702.431-.507.311-.493.311q-.991.636-1.931 1.313-.958.692-1.857 1.425-.916.749-1.765 1.543a32 32 0 0 0-1.655 1.667 28 28 0 0 0-1.518 1.796q-.73.942-1.357 1.93a22 22 0 0 0-1.164 2.068q-.536 1.082-.936 2.208-.202.574-.37 1.158a19 19 0 0 0-.516 2.424 18 18 0 0 0-.178 2.567 18.4 18.4 0 0 0 .206 2.71q.105.7.263 1.408.324 1.446.88 2.924a26 26 0 0 0 1.396 3.063 32 32 0 0 0 1.97 3.2 40 40 0 0 0 2.609 3.33q.741.855 1.56 1.712.829.87 1.738 1.741a64 64 0 0 0 1.922 1.77 73 73 0 0 0 4.426 3.613 94 94 0 0 0 2.516 1.841q.657.462 1.334.926a107 107 0 0 0 4.317 2.804 140 140 0 0 0 6.499 3.785 177 177 0 0 0 7.364 3.806 216 216 0 0 0 8.233 3.801 262 262 0 0 0 9.089 3.765q.295.12.593.238a106 106 0 0 0 1.81.694l.609.233.609.235.613.234.618.23 2.508.924a188 188 0 0 0 2.556.919q1.292.463 2.604.916 1.318.456 2.655.905 1.342.451 2.703.899 1.368.45 2.75.899a450 450 0 0 0 11.464 3.489 485 485 0 0 0 12.159 3.356 555 555 0 0 0 12.79 3.172 606 606 0 0 0 13.348 2.985q6.853 1.452 13.831 2.773 6.067 1.148 12.201 2.194h101.133q-6.447-.118-13.026-.342z"/><path fill="#003B2F" d="M166.881 198.776a516 516 0 0 1-13.138-3.809 472 472 0 0 1-12.363-3.954 674 674 0 0 1-5.867-2.03q-1.437-.508-2.855-1.024-1.41-.513-2.798-1.036a216 216 0 0 1-2.745-1.034l-1.35-.522-1.338-.518a48 48 0 0 1-.665-.26l-.659-.264-.655-.265-.652-.264-.65-.26-.647-.259-.643-.262-.637-.267a274 274 0 0 1-9.719-4.232 223 223 0 0 1-8.776-4.262 181 181 0 0 1-7.823-4.257 144 144 0 0 1-8.452-5.265 112 112 0 0 1-4.37-3.108 117 117 0 0 1-2.637-2.043 89 89 0 0 1-2.418-2.015 76 76 0 0 1-2.195-1.991 66 66 0 0 1-1.99-1.957 58 58 0 0 1-1.79-1.923 50 50 0 0 1-1.598-1.887 41 41 0 0 1-2.638-3.661 33 33 0 0 1-1.95-3.502 27 27 0 0 1-1.333-3.336 23 23 0 0 1-.78-3.164 21 21 0 0 1-.203-1.518 20 20 0 0 1 .05-4.294 19 19 0 0 1 .509-2.649 21 21 0 0 1 .828-2.479 22 22 0 0 1 1.097-2.313q.602-1.102 1.32-2.154a28 28 0 0 1 1.508-1.999 31 31 0 0 1 1.66-1.852 35 35 0 0 1 1.79-1.712 39 39 0 0 1 1.892-1.58q.958-.75 1.974-1.455a46 46 0 0 1 2.042-1.337l.519-.317.533-.314.695-.414.17-.103.17-.103.167-.103q.082-.052.167-.102.33-.205.65-.409a50 50 0 0 0 1.23-.815q.293-.201.577-.406a29 29 0 0 0 1.077-.808 22 22 0 0 0 .966-.807l.114-.1.109-.101.216-.202a2 2 0 0 0 .105-.101l.05-.05.052-.051.2-.201.189-.201.046-.05.047-.05.045-.05.045-.05.172-.202.085-.099.08-.101.156-.2.037-.051.036-.05.035-.05.036-.05.069-.1.017-.025.017-.025.032-.05.126-.2.03-.049.029-.051.027-.05.028-.05.027-.05.027-.05.026-.05.026-.049.092-.199.044-.099.038-.1.073-.198.058-.197.007-.025.007-.024.006-.025.006-.024.021-.099.02-.098.009-.048.008-.049.012-.097.01-.097a2 2 0 0 0 .011-.194l.002-.096v-.047l-.003-.048-.014-.19a1 1 0 0 0-.012-.095l-.008-.048-.007-.047-.017-.093-.024-.094-.011-.046-.012-.047-.013-.046-.014-.046-.066-.183-.017-.046-.02-.045-.04-.09-.043-.09-.01-.022-.012-.022-.013-.022-.012-.023-.025-.044-.025-.044-.025-.044-.026-.044-.114-.173a5 5 0 0 0-.734-.823 7 7 0 0 0-.362-.307 7 7 0 0 0-.605-.435 12 12 0 0 0-1.373-.778 17 17 0 0 0-.998-.456l-.256-.108a19 19 0 0 0-.517-.205l-.26-.099-.066-.024-.065-.025-.065-.024-.066-.024-.262-.094-.263-.092-.066-.023-.066-.023-.065-.022-.066-.023-.132-.043-.131-.044-.132-.043-.131-.043-.263-.083-.066-.021-.065-.02-.066-.021-.066-.02-.262-.08-.261-.08-.52-.152-.258-.074-.258-.072-.256-.072-.255-.07a112 112 0 0 0-1.986-.52 184 184 0 0 0-1.869-.467l-.883-.218a350 350 0 0 1-1.647-.415 80 80 0 0 1-1.467-.393 44 44 0 0 1-1.26-.376 21 21 0 0 1-1.028-.364q-.225-.09-.42-.178a7 7 0 0 1-.358-.175 4 4 0 0 1-.328-.193l-.03-.021-.03-.021-.032-.022-.055-.042-.006-.005-.007-.005-.007-.005-.007-.005-.024-.021a1 1 0 0 1-.135-.127l-.038-.042-.034-.041-.007-.01-.007-.01-.007-.011-.007-.01-.015-.022-.003-.005-.006-.01-.002-.005-.024-.042-.018-.041-.003-.006-.003-.005-.002-.005-.002-.005-.006-.021-.003-.01-.004-.01-.006-.021-.008-.042-.002-.01-.002-.011v-.01l-.001-.01v-.01l-.002-.011-.001-.01v-.01l.001-.022v-.02l.002-.022.004-.021.008-.042.012-.043.015-.042.017-.043a1 1 0 0 1 .18-.26q.04-.046.086-.088V-61.7h-1.542V90.73a2 2 0 0 0-.188.195 1.4 1.4 0 0 0-.134.195l-.022.049a1 1 0 0 0-.049.145l-.006.024-.003.024-.002.024-.003.024v.072l.002.012.001.012.007.048.002.012.003.012.003.012.003.012.006.024.002.006.002.006.003.006.002.006.017.048.025.048.011.024.016.024.008.012.007.012.007.012.008.012.036.048.04.048a2 2 0 0 0 .09.096l.052.048.027.023.006.006.008.007.007.005.007.007.06.047.033.024.032.024.033.024.035.024q.142.097.316.193.175.098.382.194.207.097.447.195.24.099.51.197.27.099.57.197.3.1.626.2a43 43 0 0 0 1.405.405 81 81 0 0 0 1.585.42l.851.217.884.224.914.231a270 270 0 0 1 1.905.497q.488.13.983.268l.247.07q.124.037.249.071l.249.073.25.073.25.075.251.076q.126.038.25.078l.252.079.251.08.126.041.125.042.126.042.125.042.125.043.125.043.063.022.062.022.063.022.061.022.25.09.123.045.124.047.123.046.122.047.245.096a25 25 0 0 1 .484.199q.12.05.238.102a24 24 0 0 1 .698.324 12 12 0 0 1 .446.23 15 15 0 0 1 .43.24 11 11 0 0 1 .406.252 8 8 0 0 1 .735.54 5 5 0 0 1 .32.288q.076.074.148.148.07.075.137.151a4 4 0 0 1 .243.31q.056.08.108.159l.095.162.022.04.021.041.02.041.02.041.01.021q.007.01.01.021l.01.02.01.021.033.082.033.084.017.043.013.042.05.17.01.043.01.042.008.044.008.043.017.087.01.087q0 .022.004.044l.004.044.004.044.003.044.002.177v.045l-.004.044-.007.09q-.002.044-.008.089-.005.045-.013.09a5 5 0 0 1-.042.226l-.011.045-.013.045-.011.046-.025.091-.008.023-.007.023-.008.022-.009.023-.064.184-.08.183-.04.093-.047.092-.099.185-.026.046-.028.047-.028.046-.028.046-.028.047-.029.047-.03.046-.03.046-.129.187-.016.023-.017.023-.017.024-.017.023-.073.093-.036.047-.035.047-.037.047-.038.046-.158.187-.08.094-.085.093-.174.189-.044.047-.046.047-.047.047-.046.046-.189.189-.2.188-.05.047-.051.047-.052.048-.052.047-.215.188-.109.096-.113.094a22 22 0 0 1-.958.757q-.255.19-.52.38-.267.192-.545.381a35 35 0 0 1-1.166.767 50 50 0 0 1-1.262.773l-.164.097-.166.097-.166.098-.169.097-.686.392-.563.32-.553.323q-1.114.66-2.181 1.367-1.09.722-2.124 1.491a43 43 0 0 0-2.05 1.623 40 40 0 0 0-1.961 1.767 35 35 0 0 0-1.845 1.92q-.902 1.013-1.703 2.084a29 29 0 0 0-1.527 2.258q-.725 1.191-1.311 2.443-.3.64-.56 1.294a23 23 0 0 0-.895 2.739 22 22 0 0 0-.543 2.945 22 22 0 0 0-.128 3.156q.024.823.11 1.659.178 1.713.624 3.479a28 28 0 0 0 1.219 3.694 34 34 0 0 0 1.889 3.906 42 42 0 0 0 2.642 4.107 52 52 0 0 0 1.627 2.124 59 59 0 0 0 1.841 2.171 68 68 0 0 0 2.062 2.216q1.097 1.127 2.29 2.258a80 80 0 0 0 2.537 2.291 109 109 0 0 0 4.263 3.504q.76.592 1.545 1.185a116 116 0 0 0 3.286 2.386 149 149 0 0 0 7.356 4.843 188 188 0 0 0 8.425 4.903 232 232 0 0 0 9.503 4.93 284 284 0 0 0 10.577 4.917q.346.156.696.31.349.155.7.306l.706.304.71.306q.355.15.712.304l.715.308a156 156 0 0 0 1.446.613l1.463.603 1.478.609q.744.305 1.494.608a170 170 0 0 0 1.514.601q1.522.61 3.066 1.209 1.555.603 3.132 1.197 1.587.597 3.194 1.189 1.617.596 3.255 1.191a481 481 0 0 0 6.692 2.341c.819.28 1.645.557 2.47.834h31.105c-.567-.139-1.137-.276-1.702-.417a580 580 0 0 1-13.843-3.611z"/><path fill="#003B2F" d="M127.56 201.341q-.809-.344-1.611-.692-.799-.347-1.592-.694l-1.575-.689a69 69 0 0 1-1.558-.696l-.77-.351q-.384-.175-.766-.345l-.763-.346-.759-.345a103 103 0 0 1-1.499-.7 296 296 0 0 1-11.338-5.572 242 242 0 0 1-10.136-5.566q-4.696-2.73-8.935-5.513a155 155 0 0 1-9.515-6.757 121 121 0 0 1-4.847-3.961 109 109 0 0 1-2.891-2.587 85 85 0 0 1-2.625-2.543 79 79 0 0 1-2.356-2.498 69 69 0 0 1-2.108-2.447 61 61 0 0 1-1.868-2.392 54 54 0 0 1-1.637-2.336q-1.499-2.269-2.615-4.499a36 36 0 0 1-1.807-4.256 30 30 0 0 1-1.093-4.002 26 26 0 0 1-.467-3.746 24.4 24.4 0 0 1 .074-3.491 23.8 23.8 0 0 1 1.453-6.239 26 26 0 0 1 1.236-2.767 28 28 0 0 1 1.497-2.548 32 32 0 0 1 1.702-2.343 35 35 0 0 1 1.868-2.151 39 39 0 0 1 1.998-1.974 44 44 0 0 1 2.103-1.809 48 48 0 0 1 2.182-1.658 54 54 0 0 1 4.541-2.907l.58-.329.59-.324.678-.374.166-.093.164-.093.163-.093.163-.092a64 64 0 0 0 1.246-.738 36 36 0 0 0 1.152-.731q.275-.181.54-.363a31 31 0 0 0 1.002-.722q.236-.18.46-.359l.112-.089.108-.09.213-.179.052-.044.051-.045.05-.045.05-.045.199-.177.188-.179.046-.044.047-.044.046-.045.044-.044.173-.178.085-.088.08-.089.158-.176.038-.044.037-.044.036-.044.036-.044.072-.088.018-.022.017-.022.017-.022.016-.022.13-.175.032-.044.03-.044.03-.044.029-.044.028-.043.029-.043.028-.044.028-.043.1-.174.049-.087.043-.087.083-.172.07-.172.008-.021.009-.022.008-.021.008-.022.027-.085.013-.043.014-.043.012-.042.012-.042.02-.085.02-.085a2 2 0 0 0 .027-.168l.01-.083.006-.042.002-.042.007-.166v-.041l-.002-.041-.002-.041-.002-.041-.005-.082-.012-.081-.006-.04-.006-.041-.006-.04-.007-.04-.04-.159-.011-.04-.012-.039-.027-.079-.028-.078-.007-.019-.009-.02-.008-.019-.008-.02-.035-.077-.017-.038-.018-.038-.084-.151a3 3 0 0 0-.195-.297 4 4 0 0 0-.504-.564 6 6 0 0 0-.817-.647 8 8 0 0 0-.374-.24 8 8 0 0 0-.398-.23q-.101-.056-.206-.111a11 11 0 0 0-.642-.32 14 14 0 0 0-.445-.2l-.227-.098a21 21 0 0 0-.462-.188q-.465-.184-.945-.354a38 38 0 0 0-.963-.328 49 49 0 0 0-.972-.305 66 66 0 0 0-1.934-.554q-.477-.132-.95-.256-.47-.125-.932-.245l-.911-.236-.885-.228a134 134 0 0 1-2.46-.656 63 63 0 0 1-1.435-.424q-.335-.105-.644-.21t-.59-.21-.53-.21a10 10 0 0 1-.468-.209 6 6 0 0 1-.4-.21 4 4 0 0 1-.332-.21l-.037-.026-.035-.026-.034-.026-.034-.027-.063-.052-.007-.007-.007-.006-.008-.007-.008-.006-.027-.026a1.3 1.3 0 0 1-.19-.21l-.036-.053-.008-.013-.007-.014-.008-.013-.008-.013-.015-.026-.012-.027-.023-.052-.017-.053-.002-.007-.003-.007-.002-.007-.002-.006-.005-.027q0-.007-.003-.013l-.003-.013-.002-.014-.003-.013-.004-.053-.001-.013v-.079l.001-.013.005-.027.004-.026q.001-.013.005-.026l.007-.027a.5.5 0 0 1 .037-.106l.026-.053q.012-.026.027-.053a1.5 1.5 0 0 1 .157-.213 2 2 0 0 1 .214-.212V-69.78h-1.542V90.73a3 3 0 0 0-.25.233 2 2 0 0 0-.188.235l-.035.059a1 1 0 0 0-.08.178l-.01.03-.008.03-.007.03-.007.029-.002.015v.014l-.002.015-.002.015-.001.015-.002.015v.029a.7.7 0 0 0 .035.238q.04.12.116.236.08.119.196.236.118.117.273.234t.35.232.42.23q.23.116.491.228.262.114.555.226a22 22 0 0 0 1.28.449q.348.112.715.223a59 59 0 0 0 1.556.449 129 129 0 0 0 1.692.456l.885.235.906.24a187 187 0 0 1 1.856.506 77 77 0 0 1 1.877.553q.471.147.932.3.465.155.914.32a25 25 0 0 1 1.529.619 15 15 0 0 1 .998.495 12 12 0 0 1 .545.322 8 8 0 0 1 .492.34 5.4 5.4 0 0 1 .561.487 5 5 0 0 1 .234.256 3 3 0 0 1 .36.538l.066.139.015.035.014.036.013.035.014.036.007.017.006.018.007.018.005.017.022.072.02.072.01.036.007.036.026.146.005.037.01.111.005.074v.15l-.001.038q0 .019-.003.038l-.015.151-.005.039-.007.038-.015.077a1 1 0 0 1-.035.154l-.046.155-.013.039-.014.039-.015.039-.015.039-.03.079-.017.039-.01.019-.008.019-.075.159-.086.158a4 4 0 0 1-.197.32q-.108.16-.235.322a7 7 0 0 1-.27.325 9 9 0 0 1-.303.327l-.08.082-.084.082-.171.165-.044.041-.091.083-.046.041-.185.166-.197.165-.049.042-.049.042-.05.041-.051.042-.21.167-.106.083-.11.084q-.22.168-.453.335a25 25 0 0 1-.984.677q-.26.17-.53.34a44 44 0 0 1-1.732 1.035q-.308.175-.624.349l-.16.088-.16.088-.162.087-.163.088-.667.355-.62.328-.614.334a61 61 0 0 0-4.836 2.967 52 52 0 0 0-2.348 1.699 49 49 0 0 0-2.283 1.86 44 44 0 0 0-2.195 2.039q-1.087 1.08-2.08 2.233-1.022 1.185-1.931 2.446a33 33 0 0 0-1.74 2.678 31 31 0 0 0-1.494 2.929 28 28 0 0 0-1.184 3.198 27 27 0 0 0-.796 3.485 26.6 26.6 0 0 0-.327 3.783 28 28 0 0 0 .233 4.094q.279 2.166.897 4.408.641 2.329 1.66 4.724a45 45 0 0 0 2.534 5.028q.76 1.307 1.629 2.625.885 1.344 1.881 2.698a72 72 0 0 0 2.147 2.767 82 82 0 0 0 5.14 5.728 106 106 0 0 0 3.017 2.954q.797.747 1.623 1.498a118 118 0 0 0 5.341 4.574 161 161 0 0 0 8.257 6.26 203 203 0 0 0 9.603 6.402 252 252 0 0 0 10.987 6.503 298 298 0 0 0 6.983 3.777h21.476c-.623-.259-1.249-.517-1.867-.779q-.818-.337-1.63-.682z"/><path fill="#003B2F" d="M78.214 191.723a165 165 0 0 1-10.611-8.767 123 123 0 0 1-3.613-3.403 137 137 0 0 1-1.679-1.673 120 120 0 0 1-3.106-3.29 97 97 0 0 1-1.43-1.617q-.691-.8-1.35-1.599a83 83 0 0 1-2.459-3.141 74 74 0 0 1-2.16-3.057 64 64 0 0 1-1.873-2.97 58 58 0 0 1-1.6-2.883 47 47 0 0 1-2.428-5.496 39.5 39.5 0 0 1-1.5-5.13 34 34 0 0 1-.699-4.756 30.4 30.4 0 0 1 .204-6.448 29.3 29.3 0 0 1 1.38-5.656 30 30 0 0 1 1.413-3.363 32 32 0 0 1 1.717-3.06 36 36 0 0 1 1.948-2.783 40 40 0 0 1 2.125-2.528 44 44 0 0 1 2.257-2.299q1.141-1.08 2.356-2.089a53 53 0 0 1 2.433-1.901 58 58 0 0 1 2.484-1.73 62 62 0 0 1 2.524-1.577q1.257-.744 2.554-1.436l.642-.339.645-.331.657-.338.16-.084.159-.084.158-.084.158-.084q.31-.166.612-.332a71 71 0 0 0 1.159-.659q.277-.164.544-.326a36 36 0 0 0 1.018-.645q.241-.16.47-.319.23-.158.446-.317l.108-.079.104-.079.206-.157.051-.04.05-.039.048-.039.049-.04.194-.156.18-.155.046-.039.046-.039.044-.039q.023-.019.043-.039l.168-.154.084-.077.078-.077a9 9 0 0 0 .568-.609q.126-.151.235-.301.108-.149.199-.298l.088-.147.076-.147.009-.019.01-.018.008-.018.009-.019.032-.072.015-.037.016-.036.015-.037.014-.036.024-.072.024-.072a2 2 0 0 0 .04-.143l.018-.071.009-.035.005-.036.022-.14.004-.035.002-.035.004-.069.004-.069-.002-.069-.002-.034-.002-.069-.003-.033-.016-.136-.005-.034-.008-.033-.016-.067-.015-.066q-.001-.009-.004-.017l-.005-.017-.005-.016-.005-.017-.022-.065-.011-.032-.012-.033-.056-.129a3 3 0 0 0-.136-.253 2 2 0 0 0-.17-.246 3 3 0 0 0-.207-.24 4 4 0 0 0-.365-.344 7 7 0 0 0-.28-.22 6 6 0 0 0-.464-.316 8 8 0 0 0-.338-.202 9 9 0 0 0-.544-.29l-.19-.093-.192-.092-.198-.09q-.099-.046-.201-.088l-.204-.087a24 24 0 0 0-.842-.335 34 34 0 0 0-.875-.314 47 47 0 0 0-1.812-.579 74 74 0 0 0-1.838-.528 155 155 0 0 0-1.816-.495l-.886-.24a205 205 0 0 1-1.704-.47l-.808-.232a49 49 0 0 1-1.503-.466 29 29 0 0 1-.684-.236q-.33-.117-.632-.237-.3-.12-.573-.24-.27-.12-.508-.244a6 6 0 0 1-.437-.247 4 4 0 0 1-.362-.25 3 3 0 0 1-.281-.254 1.5 1.5 0 0 1-.198-.256 1 1 0 0 1-.113-.257.8.8 0 0 1-.025-.258v-.016l.002-.016.002-.016.003-.016.002-.016.003-.016.003-.016q0-.007.004-.016l.008-.032.008-.032a.3.3 0 0 1 .023-.064.6.6 0 0 1 .059-.127l.038-.064.04-.064a2 2 0 0 1 .214-.253 3 3 0 0 1 .281-.25V-93.333h-1.542V90.729a4 4 0 0 0-.32.27 3 3 0 0 0-.252.276 3 3 0 0 0-.135.21 1 1 0 0 0-.05.106l-.012.035-.012.036-.012.035-.005.018-.004.018-.004.017-.004.018-.004.018-.004.017-.003.018-.002.018a.8.8 0 0 0 .01.284q.028.143.104.284t.198.281q.123.141.288.278.168.138.376.273.209.136.455.27.247.132.529.263.282.13.595.258.315.128.654.254a32 32 0 0 0 1.455.496 55 55 0 0 0 1.609.487 112 112 0 0 0 1.717.486l.886.246.897.25a149 149 0 0 1 1.804.516q.451.132.895.269.447.138.881.28.438.143.86.291.423.15.827.306.405.158.785.322.383.166.731.34.352.176.663.36.315.188.582.383a4.6 4.6 0 0 1 .587.51q.05.052.097.106a3 3 0 0 1 .173.217 2 2 0 0 1 .14.223 2 2 0 0 1 .109.229l.043.116.009.029.008.03.007.03.008.029q.001.008.004.015l.004.015.004.015.003.015.01.06.01.06.005.029.002.03.008.122v.062l-.002.03v.031l-.002.062-.008.062-.003.032-.004.031q0 .016-.004.031l-.005.032-.028.126-.007.032-.01.032-.02.065-.02.064-.024.065-.026.065-.026.065-.015.032-.016.033-.016.032-.016.033-.032.066-.01.017-.009.016-.01.017-.01.016-.077.133-.089.135q-.09.134-.197.27a7 7 0 0 1-.496.551q-.14.14-.292.281l-.076.071-.08.071-.165.142-.042.036-.044.035-.044.036-.044.036-.177.144-.189.144-.047.036-.047.037-.048.036-.05.037-.2.146-.1.073-.107.073a28 28 0 0 1-.892.593 28 28 0 0 1-.993.603 38 38 0 0 1-1.085.614 61 61 0 0 1-1.176.624l-.154.079-.155.079-.155.079-.156.08-.643.319-.676.335-.677.344q-1.366.704-2.697 1.46a69 69 0 0 0-2.681 1.607 63 63 0 0 0-2.657 1.769 59 59 0 0 0-2.62 1.949 55 55 0 0 0-2.564 2.151 50 50 0 0 0-2.487 2.378 45 45 0 0 0-2.375 2.631 42 42 0 0 0-2.22 2.912 37.4 37.4 0 0 0-2.914 4.964q-.438.9-.825 1.829a34 34 0 0 0-1.357 3.943 33 33 0 0 0-1.125 6.678 35 35 0 0 0-.074 2.442q.006 1.261.103 2.553.1 1.318.297 2.665.203 1.376.51 2.779.313 1.435.737 2.895.433 1.493.984 3.009a52 52 0 0 0 1.253 3.122q.703 1.607 1.533 3.236a69 69 0 0 0 1.832 3.348 77 77 0 0 0 2.146 3.46 89 89 0 0 0 2.475 3.572 98 98 0 0 0 2.836 3.668 111 111 0 0 0 3.2 3.77 126 126 0 0 0 3.572 3.876 125 125 0 0 0 3.973 3.961 173 173 0 0 0 9.18 8.198 205 205 0 0 0 4.146 3.363h17.13a247 247 0 0 1-5.892-3.829 210 210 0 0 1-10.172-7.25z"/><path fill="#003B2F" d="M58.723 197.095q-1.079-1.123-2.11-2.245a134 134 0 0 1-3.879-4.414q-.91-1.082-1.78-2.159a126 126 0 0 1-3.25-4.218 101 101 0 0 1-2.854-4.087 91 91 0 0 1-2.464-3.962 81 81 0 0 1-2.11-3.826 71 71 0 0 1-1.77-3.689 63 63 0 0 1-1.453-3.553 55 55 0 0 1-1.154-3.414 51 51 0 0 1-.872-3.28 47 47 0 0 1-.612-3.142 44 44 0 0 1-.375-3.007 41 41 0 0 1-.157-2.873q-.027-1.389.041-2.742a38 38 0 0 1 .608-5.1 36.4 36.4 0 0 1 1.96-6.744 38 38 0 0 1 1.837-3.943 40 40 0 0 1 2.141-3.543 44 44 0 0 1 1.16-1.634 47 47 0 0 1 2.453-3.016 51 51 0 0 1 2.586-2.712 55 55 0 0 1 2.677-2.441 60 60 0 0 1 2.735-2.201 66 66 0 0 1 2.776-1.987 70 70 0 0 1 2.796-1.798 78 78 0 0 1 5.624-3.109l.705-.348.702-.339.63-.304.154-.076.152-.075.151-.076.15-.074a67 67 0 0 0 1.153-.595 39 39 0 0 0 2.031-1.151 28 28 0 0 0 .87-.558l.103-.069.097-.068.197-.137.048-.034.047-.034.046-.033.045-.034.184-.135.173-.134.042-.034a1 1 0 0 0 .086-.067l.04-.034.16-.132.08-.066.073-.066a9 9 0 0 0 .542-.517 6 6 0 0 0 .228-.253q.105-.126.194-.25l.087-.122.077-.122.01-.016.01-.015q.004-.008.01-.015l.008-.015.032-.06.016-.031.016-.03.017-.03.015-.03.026-.059.027-.06q.014-.029.025-.058l.02-.059.023-.059.01-.029.008-.029.03-.115.007-.028.005-.029.004-.028.005-.029.01-.057.005-.056.002-.028.003-.028.002-.028.001-.028-.002-.111v-.027l-.003-.027-.006-.055-.007-.054-.002-.014-.003-.013-.003-.014-.003-.014-.006-.026-.005-.027-.006-.027-.007-.027-.033-.106a2 2 0 0 0-.088-.208l-.055-.103-.062-.101a3 3 0 0 0-.232-.296l-.089-.097a4 4 0 0 0-.428-.376 6 6 0 0 0-.524-.358 10 10 0 0 0-.608-.342q-.323-.166-.68-.326-.356-.159-.74-.312-.383-.151-.789-.299a49 49 0 0 0-1.68-.566 76 76 0 0 0-1.763-.532l-.893-.257-.892-.254-.886-.251a274 274 0 0 1-1.729-.5 82 82 0 0 1-1.632-.506q-.392-.127-.765-.257a29 29 0 0 1-.722-.262 22 22 0 0 1-.67-.267q-.32-.135-.611-.274a10 10 0 0 1-.544-.28 6 6 0 0 1-.469-.286 4 4 0 0 1-.384-.293 2.4 2.4 0 0 1-.292-.299 1.6 1.6 0 0 1-.197-.302 1 1 0 0 1-.096-.305.9.9 0 0 1 .01-.324l.004-.019.005-.019.005-.019.005-.018.006-.02.005-.018.006-.019.015-.038.015-.038.035-.075a1 1 0 0 1 .087-.15l.052-.076.056-.074a3 3 0 0 1 .283-.294 4 4 0 0 1 .355-.287V-84.79h-1.542V90.728q-.108.077-.209.153a5 5 0 0 0-.363.312 3 3 0 0 0-.218.24 2 2 0 0 0-.19.285 1 1 0 0 0-.039.083q-.008.02-.02.04l-.007.021-.007.02-.007.021-.007.02-.007.022-.006.02-.006.02-.004.021a1 1 0 0 0-.03.333q.015.167.083.332.07.165.19.33.123.164.296.323.175.162.393.318.222.157.482.31.263.152.562.3.3.15.63.292.333.145.69.285.359.141.74.277a39 39 0 0 0 1.598.538 79 79 0 0 0 1.706.523l.878.258 1.773.517a163 163 0 0 1 1.75.526q.433.135.85.27a42 42 0 0 1 1.608.558q.383.144.74.29.358.147.684.298.329.152.617.308.293.156.542.317.251.162.456.328.206.167.363.338.155.172.26.349.105.179.156.362.053.185.05.377a1.5 1.5 0 0 1-.061.393l-.034.101-.008.026-.011.025-.023.052a1 1 0 0 1-.046.103l-.027.052-.027.052-.015.027-.016.026-.016.027-.016.027-.031.053-.01.013q-.003.007-.009.013l-.01.014-.008.013-.076.109-.085.109q-.086.11-.187.223t-.218.227a8 8 0 0 1-.52.467l-.07.06-.078.06-.151.121-.04.03-.04.03-.042.03-.041.031-.166.122-.177.124-.044.032-.044.031-.045.031-.048.032-.187.125-.094.064-.1.063a26 26 0 0 1-1.295.78l-.48.267a43 43 0 0 1-1.58.82l-.57.281-.148.07a10 10 0 0 1-.295.142l-.15.071-.614.287-.733.342-.74.352q-1.496.723-2.961 1.502-1.5.798-2.968 1.657a77 77 0 0 0-2.973 1.834 72 72 0 0 0-4.452 3.133q-.744.569-1.474 1.16-.741.601-1.466 1.225a59 59 0 0 0-4.313 4.105q-.71.75-1.393 1.528a51 51 0 0 0-2.683 3.33 47 47 0 0 0-2.491 3.733 43.4 43.4 0 0 0-3.186 6.461 42 42 0 0 0-2.197 7.642 43 43 0 0 0-.687 5.828 46 46 0 0 0-.051 3.149q.03 1.635.173 3.311.148 1.719.42 3.478.28 1.804.692 3.646.424 1.89.99 3.815a68 68 0 0 0 1.31 3.988 76 76 0 0 0 1.652 4.163 85 85 0 0 0 2.019 4.34 96 96 0 0 0 3.771 6.841q.714 1.18 1.473 2.366.768 1.2 1.584 2.407.825 1.223 1.696 2.452a151 151 0 0 0 3.743 5.045 139 139 0 0 0 2.056 2.586l.218.264h14.715a173 173 0 0 1-5.717-5.709z"/><path fill="#003B2F" d="M35.572 198.044a124 124 0 0 1-3.022-5.354 103 103 0 0 1-3.653-7.627 91 91 0 0 1-1.905-4.81 81 81 0 0 1-1.515-4.593 73 73 0 0 1-1.153-4.38 64 64 0 0 1-.82-4.173 61 61 0 0 1-.509-3.971 57 57 0 0 1-.23-3.772 53 53 0 0 1 .023-3.576 50 50 0 0 1 .697-6.592 48 48 0 0 1 1.418-5.888 47 47 0 0 1 1.97-5.242 48 48 0 0 1 2.382-4.654 51 51 0 0 1 2.68-4.128 54 54 0 0 1 2.883-3.661q.733-.854 1.492-1.673a60 60 0 0 1 3.054-3.066q.765-.716 1.548-1.404a69 69 0 0 1 4.691-3.764 78 78 0 0 1 1.568-1.122 79 79 0 0 1 3.131-2.069 83 83 0 0 1 3.117-1.861 87 87 0 0 1 3.099-1.679 93 93 0 0 1 3.08-1.519l.766-.356.759-.345.6-.273.147-.067.145-.068.143-.067.144-.067a64 64 0 0 0 1.604-.787l.49-.255q.24-.127.466-.252a29 29 0 0 0 1.254-.731l.096-.059.091-.059.18-.117.046-.029.044-.029.042-.03.043-.029.17-.114.159-.114.039-.028.04-.028.04-.028.036-.028.148-.112.073-.055.068-.055q.136-.11.261-.216a7 7 0 0 0 .446-.418q.096-.102.179-.201l.083-.099.071-.097.01-.012.008-.012.01-.011.008-.012.03-.048.016-.024.016-.024.016-.024.014-.023.026-.047.027-.047.025-.046.021-.046.022-.045.01-.023.01-.022.034-.091a1.4 1.4 0 0 0 .072-.347 1.1 1.1 0 0 0-.027-.333 1.3 1.3 0 0 0-.122-.321 1.8 1.8 0 0 0-.216-.313l-.07-.077-.076-.076a2 2 0 0 0-.166-.153q-.044-.038-.092-.076a6 6 0 0 0-.203-.15l-.108-.075a5 5 0 0 0-.36-.223 14 14 0 0 0-.403-.22q-.071-.037-.145-.073l-.149-.073a15 15 0 0 0-.64-.288 22 22 0 0 0-.701-.282 34 34 0 0 0-1.55-.551 62 62 0 0 0-1.684-.536q-.43-.133-.872-.265L60.38 97l-.884-.263a230 230 0 0 1-1.751-.533q-.43-.135-.853-.272a39 39 0 0 1-1.623-.56q-.387-.143-.754-.29a21 21 0 0 1-.705-.3q-.337-.15-.645-.308a9 9 0 0 1-.574-.318 6 6 0 0 1-.49-.328 4 4 0 0 1-.442-.38l-.041-.043-.04-.044-.04-.043-.068-.086-.009-.011q-.004-.007-.008-.01l-.009-.012-.008-.01-.029-.044a1.3 1.3 0 0 1-.148-.264l-.036-.088-.028-.089-.005-.022-.006-.022-.005-.022q-.001-.012-.005-.023l-.008-.043-.005-.045-.008-.088.003-.09.003-.044.006-.044.004-.022q0-.011.003-.023l.003-.022.004-.022.025-.088.013-.045.008-.022.009-.022.008-.022.009-.022.008-.022.01-.022.022-.044.022-.044.023-.043.027-.043a2 2 0 0 1 .12-.173 4 4 0 0 1 .144-.172 3.4 3.4 0 0 1 .36-.336 5 5 0 0 1 .438-.325V-83.75h-1.542V90.73h.001a8 8 0 0 0-.488.344 5 5 0 0 0-.408.359 4 4 0 0 0-.24.275 2 2 0 0 0-.097.14l-.03.047-.026.047-.026.047-.012.024-.011.023-.01.023-.011.024-.011.024-.01.024-.01.024-.008.023-.032.095-.006.024-.006.024-.005.024-.005.024-.01.048-.005.048-.009.096.002.096.001.048.006.048.003.024.007.048.005.024.024.095a1.6 1.6 0 0 0 .173.379l.03.047.007.012.008.012.008.012.008.011.069.094.038.046.04.046a1 1 0 0 0 .083.093q.087.092.187.183a4 4 0 0 0 .454.358 7 7 0 0 0 .545.346l.149.085a11 11 0 0 0 .313.167l.163.083.338.163q.35.163.722.318.376.157.772.308a42 42 0 0 0 1.654.589 81 81 0 0 0 1.74.562l.884.274.883.271q.442.135.875.27l.86.268a78 78 0 0 1 1.638.538 39 39 0 0 1 1.477.543q.343.136.654.272a14 14 0 0 1 .85.41l.244.136.114.068.11.068.105.068.097.067.092.067q.046.033.088.068a3 3 0 0 1 .229.2l.065.067.06.067q.03.033.057.066a1.7 1.7 0 0 1 .196.333 1 1 0 0 1 .041.135l.015.068.002.017.003.017.002.017.003.018v.077l.001.008.001.009v.008l-.003.035-.001.036v.017l-.005.017-.002.018-.003.018-.003.017-.003.018q0 .009-.004.018l-.005.018-.005.018-.004.019-.009.036-.014.037-.007.018-.006.019-.007.018-.007.019-.034.075-.008.019-.01.019-.021.039-.02.039-.024.039-.026.04-.024.039-.028.04-.016.021-.014.02-.029.041-.007.01-.009.01-.008.011-.008.01-.068.083-.076.085-.037.043-.01.011-.012.011-.01.01-.012.011-.085.088-.095.09-.024.023-.025.022-.024.023-.027.023-.106.093-.013.012-.014.012-.014.012-.015.012-.058.047-.03.024-.028.023-.06.048-.127.097-.063.049-.07.049-.139.1-.034.025-.038.026-.037.026-.037.025-.15.103-.16.104-.041.026-.04.027-.041.026-.043.026-.172.107-.086.053-.092.055a28 28 0 0 1-2.116 1.141q-.242.12-.495.241-.252.122-.516.246-.265.124-.539.249l-.139.062-.14.063-.14.064-.141.063-.582.257-.79.347-.2.09-.2.09-.202.09-.2.09a101 101 0 0 0-6.487 3.243 92 92 0 0 0-3.298 1.895 88 88 0 0 0-3.335 2.112q-.844.563-1.677 1.148a80 80 0 0 0-5.065 3.869 74 74 0 0 0-3.379 2.991 67 67 0 0 0-4.984 5.235 61 61 0 0 0-3.187 4.081 57 57 0 0 0-4.372 7.186 54.7 54.7 0 0 0-4.438 11.975 58 58 0 0 0-1.266 7.194q-.216 1.935-.308 3.931a64 64 0 0 0-.054 4.168 68 68 0 0 0 .23 4.413 72 72 0 0 0 .552 4.665q.365 2.434.899 4.926a89 89 0 0 0 1.28 5.196 100 100 0 0 0 1.697 5.476 112 112 0 0 0 3.407 8.756 127 127 0 0 0 1.391 3.06l.114.238h13.212q-.655-1.001-1.285-1.998a142 142 0 0 1-1.693-2.76z"/><path fill="#003B2F" d="M12.983 195.744a109 109 0 0 1-1.464-6.092 98 98 0 0 1-1.03-5.748 89 89 0 0 1-.636-5.42 79 79 0 0 1-.282-5.105 75 75 0 0 1 .043-4.806q.095-2.295.328-4.519.226-2.157.579-4.243a65 65 0 0 1 1.792-7.712 63 63 0 0 1 2.451-6.766 62.6 62.6 0 0 1 6.182-11.105 66 66 0 0 1 3.46-4.532 71 71 0 0 1 5.38-5.767 77 77 0 0 1 3.626-3.269 85 85 0 0 1 1.81-1.487 88 88 0 0 1 3.595-2.713 90 90 0 0 1 5.307-3.511 98 98 0 0 1 6.891-3.847 110 110 0 0 1 5.243-2.485l.208-.092.208-.09.206-.091.816-.35.567-.243.138-.061.136-.06.136-.06.135-.059.523-.236a47 47 0 0 0 2.274-1.114 20 20 0 0 0 .74-.411l.088-.05.082-.05.163-.098.041-.025.04-.024.037-.024.038-.024.153-.095.14-.093.072-.047.036-.024.032-.022.13-.091.066-.045.059-.044.12-.088.029-.021.027-.022.026-.021.028-.021.054-.043.028-.021.025-.021.098-.082.025-.021.024-.02.022-.02.022-.02.088-.08.08-.077.01-.01.01-.009.01-.01.01-.01.034-.037.072-.074.06-.073.008-.009.008-.009.008-.009.007-.01.027-.034.013-.018.013-.018.027-.035q.01-.018.022-.034l.023-.033.022-.034.018-.033.02-.033.011-.016.006-.016.008-.016.008-.016.008-.016.008-.016.008-.016.006-.016.005-.015.007-.016.014-.031.008-.031.005-.015.005-.015.005-.016.004-.015.003-.015.002-.014.004-.015.003-.015.004-.015.002-.015.003-.029.004-.029v-.088l-.001-.014-.001-.014-.001-.015v-.014l-.01-.056a1 1 0 0 0-.028-.113.8.8 0 0 0-.08-.17l-.034-.057-.038-.057-.046-.058-.05-.058-.054-.059a2 2 0 0 0-.123-.118l-.07-.06-.076-.06-.08-.061a2 2 0 0 0-.176-.124 5 5 0 0 0-.306-.189l-.113-.064-.119-.064-.123-.064a12 12 0 0 0-.541-.261 19 19 0 0 0-.617-.264 26 26 0 0 0-.68-.267q-.354-.134-.736-.267-.381-.135-.783-.27l-.821-.27a137 137 0 0 0-1.72-.545l-.88-.278-.887-.281a98 98 0 0 1-1.754-.581 46 46 0 0 1-1.676-.613 26 26 0 0 1-.784-.322q-.38-.163-.735-.333l-.174-.086a14 14 0 0 1-.654-.35 9 9 0 0 1-.44-.27 6 6 0 0 1-.506-.373 3.2 3.2 0 0 1-.524-.531l-.038-.05-.067-.099-.008-.012-.008-.013-.008-.012-.008-.013-.028-.05a1.3 1.3 0 0 1-.132-.301l-.028-.101-.02-.101-.004-.026-.002-.025-.002-.025-.003-.026-.003-.05v-.052l.005-.101.014-.102.01-.05.013-.051.006-.026.007-.025.007-.025.008-.025.039-.1.01-.026.011-.025.012-.025.013-.025.013-.025.013-.026.013-.025.014-.025.03-.05.032-.05.032-.049.036-.05.074-.098a3.4 3.4 0 0 1 .48-.481q.112-.094.235-.187a7 7 0 0 1 .53-.362V-72.898h-1.542V90.73a9 9 0 0 0-.584.382 6 6 0 0 0-.5.4 7 7 0 0 0-.21.206 3 3 0 0 0-.182.21l-.042.052-.038.053-.037.053q-.017.027-.036.053-.007.014-.017.027l-.015.027-.016.027-.015.027-.016.026-.014.027-.027.054-.049.108-.01.027-.01.026-.008.027-.01.027-.016.054-.014.055-.023.108-.01.108-.005.055v.136l.002.027.015.109a2 2 0 0 0 .053.217 2 2 0 0 0 .089.215l.026.054.008.013.007.013.008.013.008.013.063.106a4 4 0 0 0 .157.21q.084.105.185.208.101.104.216.204.114.102.243.201a6 6 0 0 0 .56.39l.154.096.159.094.164.094a9 9 0 0 0 .343.184 17 17 0 0 0 .927.444q.39.174.799.34a39 39 0 0 0 1.702.644 77 77 0 0 0 1.77.605l.889.29.879.286.862.28a113 113 0 0 1 1.637.549 44 44 0 0 1 1.46.533q.338.132.64.26.305.128.57.253a10 10 0 0 1 .598.305l.104.058.099.059.091.057.088.056.082.056q.04.027.077.055a2 2 0 0 1 .135.107l.061.052.056.05.052.051.045.049q.022.024.04.048l.038.047.034.046.027.046a1 1 0 0 1 .044.089l.019.044a.4.4 0 0 1 .022.086l.011.086v.043l-.003.043v.021l-.006.023-.003.021-.002.012-.004.011-.004.012-.002.011-.003.012q0 .006-.003.011l-.004.011-.005.012-.005.011q0 .006-.004.012l-.007.022-.013.024-.006.012-.005.012-.005.012-.006.012-.008.013-.008.012-.007.013-.007.013-.006.012-.008.013-.018.026-.016.026-.02.026-.02.027-.019.027-.01.014-.013.014-.012.014-.011.015-.022.028-.007.007-.007.007-.007.008-.007.007-.014.015-.013.015-.014.015-.013.015-.062.061-.03.031-.008.008-.01.008-.008.008-.009.008-.018.016-.018.016-.018.016-.017.016-.08.067-.019.017-.02.017-.02.018-.023.017-.088.071-.023.017-.024.018-.05.037-.025.018-.024.018-.025.019-.026.019-.109.076-.054.039-.06.039-.119.08-.014.009-.016.011-.016.01-.016.01-.067.041-.13.083-.142.085-.035.022-.035.021-.036.022-.039.022-.153.088-.077.045-.081.045-.337.184a29 29 0 0 1-1.157.585l-.434.206a69 69 0 0 1-1.442.645l-.525.224-.547.229-.848.353a25 25 0 0 0-.43.183l-.218.093q-.109.045-.218.093a120 120 0 0 0-3.493 1.571q-.886.417-1.77.851a113 113 0 0 0-3.591 1.845q-.915.492-1.825 1.003a105 105 0 0 0-5.592 3.38 100 100 0 0 0-3.828 2.618 92 92 0 0 0-5.878 4.603 86 86 0 0 0-3.982 3.614 83 83 0 0 0-3.987 4.141 79 79 0 0 0-1.98 2.297 75 75 0 0 0-5.751 7.948 72.4 72.4 0 0 0-5.172 9.846 74 74 0 0 0-2.865 7.831 76 76 0 0 0-1.18 4.347 80 80 0 0 0-.975 4.662 84 84 0 0 0-.734 4.995 88 88 0 0 0-.455 5.347 92 92 0 0 0-.134 5.717q.02 3.006.226 6.11.213 3.213.627 6.528a125 125 0 0 0 1.076 6.973l.053.274H15.12c-.068-.202-.14-.405-.206-.607a122 122 0 0 1-1.94-6.452z"/></g><defs><clipPath id="a"><path fill="#fff" d="M0 0h321v160H0z"/></clipPath></defs></svg>